<?xml version="1.0" encoding="utf-8"?>
<!-- Generator: Adobe Illustrator 21.0.2, SVG Export Plug-In . SVG Version: 6.00 Build 0)  -->
<svg version="1.1" id="_x30_1_x5F_Misc_x5F_CowboyBuckleBelt."
	 xmlns="http://www.w3.org/2000/svg" xmlns:xlink="http://www.w3.org/1999/xlink" x="0px" y="0px" viewBox="0 0 2000 2000"
	 enable-background="new 0 0 2000 2000" xml:space="preserve">
<g>
	<g>
		<g>
			<path fill="#64320F" d="M1175.1,1177.3c-0.7,14.5,1,21.6-3.6,24.2s-13.5,2.8-19.9-3.1c0,0-4.7,0.7-12.2,0c-5.1-0.5-8-2.1-9.2-3.1
				c-0.6-0.5-0.8-0.8-0.8-0.8l-2.9-64l-0.2-5.2c2.7,0.6,5.1,1.2,7.3,1.7c11.3,2.7,17.1,4.4,19.3,5.6c0.6,0.3,0.9,0.6,1.1,0.8
				c0.9,1.3,0.7,6.3,0.7,6.3s6-0.6,7.4,2.9s1.4,9.5,1.4,9.5s9.2,1.8,10.9,3.1S1175.8,1162.8,1175.1,1177.3z"/>
		</g>
		<path opacity="0.3" fill="#091426" enable-background="new    " d="M1151.5,1198.5c6.4,5.9,15.4,5.7,19.9,3.1
			c4.6-2.6,2.9-9.7,3.6-24.2s0.8-20.8-0.8-22s-10.9-3.1-10.9-3.1s0.1-5.9-1.4-9.5c-1.5-3.5-7.4-2.9-7.4-2.9s0.1-5-0.7-6.3
			c-0.2-0.2-0.5-0.5-1.1-0.8v0.1c-0.1,0.9-0.1,1.9-0.1,2.8c0,0.1,0,0.2,0,0.2c-0.1,1.4-0.3,3.1,0,4.5c-0.8-0.2-1.6-0.4-2.4-0.6
			c-3-0.6-7.6-1.3-10.6,0.2c-1.4-3.5-3-7-4.6-10.2c-0.5-1-1-1.8-1.6-2.6c-2.2-0.5-4.7-1.1-7.3-1.7l0.2,5.2c9.3,14,9.1,34.2,6.6,49.9
			c-0.7,4.6-2.3,9.3-2.8,14c0,0.3-0.1,0.6-0.1,0.8c1.3,1,4.1,2.6,9.2,3.1C1146.8,1199.1,1151.5,1198.5,1151.5,1198.5z
			 M1168.8,1160.2c0-1.5,0-3.5-0.1-5.5c1.1,0.4,2.1,0.9,2.8,1.4c2.1,1.4,2.4,2.9,2.6,5.4c0.2,3.9-0.5,7.8-0.7,11.6
			c-0.3,6.6-0.1,13.4,0.5,20.1c-2-1.9-4.5-3.6-6.8-4.8c0-0.5,0-1,0-1.6C1169,1178.2,1169,1168.8,1168.8,1160.2z M1159,1145.6
			c1.9,5.8,1.3,13,1.7,18.8c0.5,7.1,0.7,14.3,0.9,21.5c-5.2-2-12.7-4-18.3-3c0.4-11.9,1.4-24.5-1.4-35.9c-0.4-1.7-1-3.4-1.6-5.1
			C1146.6,1140.2,1153.6,1142,1159,1145.6z"/>
	</g>
	<g>
		<path fill="#64320F" d="M992.4,1131.4c-0.6,0-1.2,0.1-1.7,0.1c-2.6,0.2-5.4,0.5-8.1,0.9c-7.3,1-14.8,2.5-21.5,4.1
			c-10,2.4-18.3,4.9-21.6,6.3c-6.7,2.7-4,3.2-4,5.5s0.4,10.5,0.4,10.5s-0.6,0.2-1.5,0.6c-1.1,0.5-2.7,1.3-4,2.1
			c-1,0.7-1.8,1.4-2,2.1c-0.2,0.6-0.4,2.6-0.7,5.2c-0.6,7.2-1.2,19.4-0.8,23.1c0.2,1.7,0.2,3.5,0.4,5.4c0.4,3.8,1.7,7.4,7.3,9
			c8.3,2.3,10.5-2.3,10.5-2.3s2,5,11.6,3s11.6-6.4,11.6-6.4c9.2,6.5,20.4,3.8,32.7-4.5c0.3-0.2,0.7-0.4,1-0.7
			C1001.9,1195.5,1012.5,1130,992.4,1131.4z"/>
		<path opacity="0.3" fill="#091426" enable-background="new    " d="M934.6,1206.2c8.3,2.3,10.5-2.3,10.5-2.3s2,5,11.6,3
			s11.6-6.4,11.6-6.4c9.2,6.5,20.4,3.8,32.7-4.5c0-0.1,0-0.2-0.1-0.3c-0.8-3.2-2.4-6.2-3.3-9.4c-1.6-5.8-2.6-11.7-3.4-17.6
			c-0.8-5.8-1.3-11.6-2.3-17.4c0,0-0.7-4.9-2-5.8c0.1-1.5,0.1-3,0.1-4.5c1.5-0.7,2.3-2.3,2-3.9c-0.1-0.6-0.5-1-0.7-1.6
			c-0.5-1-0.5-1.6-0.6-2.9c0-0.4,0-0.9,0-1.3c-2.6,0.2-5.4,0.5-8.1,0.9c-0.1,1.8-0.1,3.6-0.3,5.2c0,0.2,0,0.4,0,0.6
			c-6.8,1-14.7,5.9-18.3,10.9c-0.3-0.1-0.5-0.1-0.8-0.2c1.1-4.5,0.1-8.5-2.1-12.4c-10,2.4-18.3,4.9-21.6,6.3c-6.7,2.7-4,3.2-4,5.5
			s0.4,10.5,0.4,10.5s-0.6,0.2-1.5,0.6c2.6-0.5,4.9-0.3,7.4,0.4c0.1,4.3,0.3,8.5,0.2,12.8c-0.1,3.9-0.3,7.7-0.5,11.6
			c-0.1,1.6-0.2,3.2-0.3,4.8c-0.1,1,0.2,3.1,0,4.6c-0.4-0.2-0.8-0.4-1.2-0.5c-1.7-0.5-3.1-0.3-4.8,0.1c-0.7,0.2-1.4,0.4-2,0.7
			c0.5-7,0.6-14,0.6-21c0-4-0.3-9-3.4-11.5c-1,0.7-1.8,1.4-2,2.1c-0.2,0.6-0.4,2.6-0.7,5.2c0.6,3.4,0.4,7,0.4,10.7
			c-0.1,5.9-0.4,11.8-0.7,17.8C927.7,1201,929,1204.7,934.6,1206.2z M975.2,1144.1c2.9-1.4,6-1.9,9.1-2.7
			c-1.1,11.8-1.4,24.5,0.7,35.9c0.6,3.4,1.6,6.9,3,10.5c-4.6-0.7-10.4,0.8-13.7,2.7c-0.7,0.4-1.3,0.8-1.8,1.3
			c0-7.6-0.2-15.2-0.4-22.8c-0.1-7.3,0.4-15.3-0.8-22.6C972.6,1145.6,973.8,1144.8,975.2,1144.1z M947,1191.9
			c0.4-5.5,0.7-10.9,0.9-16.4c0.2-4.9,0.4-9.9,0.2-14.8c-0.1-2-0.3-4.1-1-5.9c3.9-3.4,12.9-3.1,16.4-2.1c0.3,0.1,0.6,0.1,0.8,0.1
			c-0.1,1.7,0,3.5,0.1,5.2c0.3,4.5,0.2,9,0,13.6c-0.1,4.6-0.3,9.1-0.4,13.7c-0.1,2.5-0.3,5.1-0.4,7.6c-0.7-0.4-1.4-0.7-2.4-0.9
			c-3.4-0.6-8.5-0.3-11.7,1.1c-0.9,0.4-1.8,0.9-2.7,1.5C946.9,1193.7,946.9,1192.8,947,1191.9z"/>
	</g>
	<g>
		<path fill="#888888" d="M1134.7,1153.3c-0.2-7.8-1.7-16.7-3.3-24.3c-0.7-3.3-1.4-6.3-2.1-8.8s-1.3-4.6-1.8-5.9
			c-2-5.6-8.9-8.4-24.8-12.6c-2.4-0.6-4.6-1.2-6.8-1.6c-12-2.6-19.6-2.8-19.6-2.8s-1.3-4-4.2-5.7c-1-0.6-1.9-0.4-2.8,0
			c-1.6,0.9-2.7,2.8-2.7,2.8s0-0.1-0.1-0.3c-0.4-0.7-1.5-2.4-3.9-3.2c-0.2-0.1-0.3-0.1-0.5-0.1c-3.3-0.9-6.6,4-6.6,4
			s-0.8-2.2-4.3-1.9c-0.1,0-0.1,0-0.2,0c-3.3,0.6-4,6.2-4,6.2c-23.3,2.5-48.8,13.8-53.9,18.5c-5.2,4.7-5,38.5,0.8,63.8
			c1.6,6.8,3.1,12.3,4.6,16.7c4.2,11.9,8.9,15.9,16.5,18.4c2.3,0.7,5.6,1.3,9.5,1.6c6.9,0.6,15.4,0.7,22.1,0.6
			c6.6-0.1,11.6-0.3,11.6-0.3s1.7,4.8,6.3,4.6c0.8,0,1.4-0.2,2-0.3c3-0.8,4-3,4-3s0.2,1.6,4.3,1.5c0.1,0,0.3,0,0.4,0
			c0.2,0,0.3,0,0.4,0c4-0.3,3.6-1.4,3.6-1.4s2.5,3.1,8,2.6c5.5-0.4,5.2-7.3,5.2-7.3s22.9-5.1,31.7-9.9s7.3-7.6,9.5-14.7
			C1135.8,1183.6,1135.1,1167.9,1134.7,1153.3z"/>
		<path fill="none" d="M1055.6,1123.3L1055.6,1123.3"/>
		<path fill="#A4A4A4" d="M1016.3,1194c-8.7-6.6-11-12.5-11-12.5l-1.9,4c0,0,3.7,11.1,6.6,17.7c2.9,6.6,4.9,9.4,0,5.2
			c-4.9-4.1-9.1-15.4-9.1-15.4l-2.3,5.2c4.2,11.9,8.9,15.9,16.5,18.4c2.3,0.7,5.6,1.3,9.5,1.6l5.3-16
			C1029.9,1202.1,1025,1200.5,1016.3,1194z"/>
		<path fill="#A4A4A4" d="M1035.9,1173.1c-5.2-2.6-6.1-3.9-6.1-3.9s-3.9,0.3-8.1-0.8s-6-4.9-6-4.9l-5.9,12.8
			c4.9,10.2,24.2,21.7,24.2,21.7l10.6-25C1044.7,1173.1,1041.1,1175.6,1035.9,1173.1z"/>
		<path fill="#A4A4A4" d="M1075.3,1197.4l2-5c0,0-3.6,2.4-10.7,2.2c-7.1-0.3-10.2-2.2-10.2-2.2l-9.7,26.4c6.6-0.1,11.6-0.3,11.6-0.3
			s1.7,4.8,6.3,4.6c0.8,0,1.4-0.2,2-0.3c1.2-3.5,3-9.4,4.4-15.8C1073.4,1196.9,1075.3,1197.4,1075.3,1197.4z"/>
		<path fill="#A4A4A4" d="M1079.5,1202.8c0,0-3.2,3.7-3.9,6.4c-0.5,2.1-0.6,8.8-0.7,12.1c0.1,0,0.3,0,0.4,0c0.2,0,0.3,0,0.4,0
			l3.8-7.8L1079.5,1202.8L1079.5,1202.8z"/>
		<path fill="#A4A4A4" d="M1084.8,1192.4c-2.3-0.8-2.9,3.6-2.6,5.7c0.3,2,2.6,6.6,2.6,6.6s2.2-3.6,2.7-7
			C1088.1,1194.2,1087.1,1193.2,1084.8,1192.4z"/>
		<path fill="#A4A4A4" d="M1086.1,1189.9c0,0,4.4,0.2,5,4.1l28.4-46.5l-1.4-9L1086.1,1189.9z"/>
		<path fill="#A4A4A4" d="M1080.8,1170.1c-3.1-0.4-4.3-1.4-4.3-1.4l-1,7.7c2.7,2.2,4.1,7.7,4.1,7.7l6.6-14.9
			C1086.1,1169.2,1083.9,1170.5,1080.8,1170.1z"/>
		<path fill="#A4A4A4" d="M1073.2,1178c0,0-2.1-3.7,0.3-11.7s1.6-9,2.9-7.1s1.8,3.5,5.7,2.4c3.9-1.1,5.3-2.5,7.8-3s4.7-9.6,4.7-9.6
			l-1.9-2.6c0,0,2.2,1,2.8-5.3c0.6-6.3-4.1-8.9-3.1-12.7s7.4,0.5,9.3,4.9l4.2-7.9c0,0-2.4-4.6-5.8-6.6s-4.2-2.1-6.6,1.5
			s-32,58.5-32,58.5l-0.7,3.9c1.8,2.1,4.9,3.9,9.4,4.5s6.6-1.1,7-3.1C1077.5,1181.9,1073.2,1178,1073.2,1178z"/>
		<path fill="#A4A4A4" d="M1052.2,1150.1c-3.5,4.4-6.6,4.4-15.4,4.2c-8.8-0.3-8-0.1-10.1-2s-3.2-3.3-3.2-3.3l-3.6,5.8
			c0,0,2.7,4.4,9,6c6.2,1.6,10.2,2.8,15.1,1.9s8.5,0.8,4.8-3.1c0,0,0.9-3,1.9-2.7c1.1,0.3,0.9,3,3.2-1c2.3-4,5.8-10.4,5.8-10.4
			S1055.7,1145.6,1052.2,1150.1z"/>
		<path fill="#A4A4A4" d="M1045.7,1150.7c0,0,6.9-10.8,17.5-9.9l8.7-15.1c0,0-3.5,1.4-5.6-1.8c0,0-0.8,2.5-5.5,2.2
			c-4.4-0.3-5.1-2.5-5.2-2.8c0.1,0.3,0.4,2.9-4.5,1.3c-5.2-1.6-5.4-8.3-5.4-8.3l-19.7,28.2c1.9,2.7,2.6,5.3,2.6,5.3L1045.7,1150.7z"
			/>
		<path fill="#A4A4A4" d="M1077.2,1119l18.8-18.9c-12-2.6-19.6-2.8-19.6-2.8s-1.3-4-4.2-5.7c-1-0.6-1.9-0.4-2.8,0
			c0.4,4.4,1.2,13.6,1.7,19.8C1071.8,1119.8,1074.6,1119.4,1077.2,1119z"/>
		<path fill="#A4A4A4" d="M1061.3,1099.4c0,0,0,0-0.5,9.4s0,9,2.4,10.4c0,0,1.3,0.2,2.5-4.5c0.9-3.6,0.9-15.3,0.9-20.4
			c-0.4-0.7-1.5-2.4-3.9-3.2c0.2,1.2,0.6,2.7,1.2,4.6C1065.5,1100.3,1061.3,1099.4,1061.3,1099.4z"/>
		<path fill="#A4A4A4" d="M1053.3,1095.2c0.3,1.3,0.3,6.7,1.1,10.5c0.8,3.8-1.5,2.8-2,4.8c-0.5,2.1,0,3.5,2,6.7
			c0,0,3.1-2.1,2.8-10.7c-0.2-8.5-1.7-11.8-1.7-11.8s-0.8-2.2-4.3-1.9c-0.1,0-0.1,0-0.2,0
			C1052.1,1093.7,1053.2,1094.6,1053.3,1095.2z"/>
		<path fill="#A4A4A4" d="M1109.2,1120.2l3.4-6.2l-4.2-3.6h-8.9l-1.8,2.8C1097.8,1113.2,1106.1,1116.4,1109.2,1120.2z"/>
		<path fill="#A4A4A4" d="M1127.7,1133.6l3.7-4.5c-0.7-3.3-1.4-6.3-2.1-8.8c-1.4,2.3-3.2,5.3-3.2,5.3L1127.7,1133.6z"/>
		<path fill="#63666B" d="M1088.5,1161c0.6-0.5,1.4-0.9,2.1-1.1c1.1-0.3,2.4-0.3,3.4-0.9l0,0c0.4,0.4,0.7,0.9,1,1.3s0.8,0.1,0.8-0.3
			c-0.1-0.9-0.5-1.6-1-2.3c6.8,1.2,12.9-5.6,13.3-12c0.4-6.9-6.3-12.6-12.1-15.6c-0.6-0.5-1.3-1-1.9-1.4c-1-0.7-1.9,0.9-0.9,1.6
			c2.6,1.8,5.2,4.2,5.7,7.5c0.5,3.4-1.6,6.1-4.5,7.6c-5.2,2.8-10.6,3.4-16.3,3.4c-0.3-0.9-0.9-1.7-1.7-2.3c-3.7-2.8-9.2-4-13.7-3.5
			c-5.7,0.7-11.3,4.4-13.3,9.6c-0.2-0.3-0.6-0.5-1-0.4c-4,0.6-7.9,1-12,1.1c-3.4,0.1-7.9,0.5-10.5-2.2c-2.8-2.9-0.6-7.4,0.8-10.5
			c1.3-2.9,2.8-5.6,5.6-7.1c0.9-0.5,0.3-2.2-0.7-1.7c-0.1,0-0.1,0.1-0.2,0.1l0,0c0,0,0,0-0.1,0c-4.9,2.1-9,5.6-11.7,10.3
			c-1.9,3.4-3.3,7.6-2.5,11.4c0.2,3.3,2.9,6.3,5.4,8.1c2.7,1.9,7.2,4.6,11,4.3c-0.3,0.7-0.6,1.5-0.6,2.3c0,0.4,0.6,0.7,0.9,0.4
			c0.7-0.7,1.3-1.5,1.9-2.2c1.9,3.1,6.9,4.1,10.2,3.8c3.4-0.3,6.1-3.5,7.5-6.6c1.2,2.5,2.7,5,3.8,7.5c1.4,3.2,2,6.4,2.9,9.7
			c-2.3,1.5-4.9,3.4-3.9,6.5c0.6,1.9,3.7,5.1,5.9,4.5c4.5,1.3,11,2.2,13.8-1.6c0.6-0.9,1-1.9,1.4-2.9c0.6-1.5,1.6-3.3,1.7-4.9
			c0.1-2-2.3-3.9-3.9-4.8l0,0c-0.6-3.3-1-6.4-0.4-9.8c0.3-1.6,0.9-3.1,1.5-4.7c0.4,0.8,1,1.5,1.5,2.1c1.1,1.4,2.3,2.3,4.2,2.4
			C1085.5,1168,1087.2,1164,1088.5,1161z M1078.2,1149.5c3.1,0.8,6.4,0.1,9.5-0.6c3.3-0.8,7.1-1.9,9.9-4c2.6-2,3.6-5,2.9-8.2
			c-0.2-0.9-0.5-1.7-0.9-2.5c3.7,2.3,7.2,5.1,7.5,9.8c0.3,3.7-1.6,7.1-4.4,9.5c-2.5,2.1-5.3,2.7-8.3,3.5c0,0-0.1,0-0.1,0.1
			c-1.9-1.9-5.1-3-7.5-3.3c-3.1-0.5-6.2-0.2-8.9,1.1C1078.4,1153.1,1078.6,1151.2,1078.2,1149.5z M1034.5,1164
			c-1.5-0.2-3.1,0-4.6-0.4c-1.9-0.5-3.7-1.5-5.4-2.5c-3-1.8-4.9-3.8-6-6.6c-1.4-6.4,2.4-13.1,7.6-17.4c-0.6,1-1,2-1.5,3
			c-1.4,3.3-3.2,7.4-1.2,10.9c1.9,3.2,5.8,4,9.3,4.1c5.4,0.2,10.8-0.4,16.2-1.2l0,0c-0.4,1.5-0.4,3.1-0.1,4.7
			c-2.4-1.2-6.2,0-8.2,0.9C1038.4,1160.6,1036.1,1162.1,1034.5,1164z M1080.4,1165.8c-1.6-1.1-2.2-3.5-3.7-4.6
			c0.2-0.7,0.4-1.3,0.4-2c0-0.3-0.4-0.5-0.6-0.4c-2.6,1.9-3.5,6.4-3.9,9.4c-0.3,3.2-0.1,6.7,1,9.8c-0.2,0.3-0.2,0.7,0.2,1
			c1.9,1.6,3.6,2.4,2.8,5c-0.6,1.9-1.5,4.6-3.1,5.8c-1.6,1.2-4.2,1-6.2,1c-2.1-0.1-4.2-0.3-6.3-0.6c-1.2-0.8-2.4-1.5-3.1-2.8
			c-1.3-2.5,1-3.9,2.8-5.2c0.5,0.1,1-0.1,1-0.7c0-0.1,0-0.2,0-0.2c0.1-0.2,0-0.4,0-0.6c-0.1-3.5-1.5-7.1-2.9-10.3
			c-1.3-3.1-2.8-6.5-4.9-9.2c0.1-1.1-1.7-0.9-1.8-0.1c-1.3,2.9-3.3,7-6.9,7.2c-3.5,0.2-6.4-1-9-3.1c1-1.3,2.1-2.6,3.6-3.6
			c1.4-0.9,2.9-1.5,4.5-1.8c1.9-0.4,3.1,0,4.7,0.5c0.1,0.2,0.3,0.2,0.5,0.2h0.1c0.3,0.1,0.5-0.2,0.4-0.5c-0.1-0.1-0.1-0.2-0.2-0.2
			c-0.2-7.1,4.4-13.1,11.4-14.6c3.4-0.7,6.9-0.3,10.3,0.7c2.1,0.6,4.7,1.5,5.4,3.8c0.6,2-0.4,3.9-0.8,5.9c0,0.1,0,0.2,0,0.3
			c-0.3,0.2-0.6,0.4-0.8,0.6c-0.4,0.3,0,1,0.5,0.8c4.9-1.9,11.8-2.8,16.5,0.4c-1,0.1-2.1,0.5-2.9,0.8c-0.3,0.1-0.6,0.3-0.9,0.5
			c-0.4-0.2-0.9-0.1-1.1,0.4C1086.2,1161.7,1084.5,1168.7,1080.4,1165.8z"/>
		<path fill="#63666B" d="M1064,1185.6c-0.3-0.8-1-1.4-1.9-1.2c-0.4,0.1-0.5,0.6-0.2,0.8c0.3,0.3,0.8,0.5,0.7,1.1
			c-0.3,1.1,1.3,1.4,1.6,0.4c0-0.1,0.1-0.2,0.1-0.3C1064.4,1186.1,1064.2,1185.8,1064,1185.6z"/>
		<path fill="#63666B" d="M1062.3,1164c0.7-0.3,0.7-1.2,0.6-1.8c-0.1-0.7-0.4-1.2-0.9-1.7c-0.2-0.2-0.5-0.3-0.7-0.2
			c-0.3-0.1-0.7-0.2-1,0.1c-0.3,0.2-0.4,0.7-0.1,1c0.1,0.1,0.3,0.2,0.4,0.2v0.2c0,0.3,0,0.5-0.1,0.8c0,0.5,0,0.9,0.5,1.2
			c0.2,0.1,0.4,0.1,0.6,0.1C1061.8,1164.1,1062.1,1164.1,1062.3,1164z M1060.6,1161.8C1060.6,1161.8,1060.6,1161.7,1060.6,1161.8
			C1060.6,1161.7,1060.6,1161.7,1060.6,1161.8L1060.6,1161.8z"/>
		<path fill="#63666B" d="M1068.3,1159.7c-0.1,0-0.2,0.1-0.3,0.1c-0.2,0-0.3,0.1-0.5,0.2c-0.1,0.1-0.1,0.3-0.1,0.4
			c0.1,0.1,0.2,0.2,0.3,0.3c0.1,0.2,0.2,0.3,0.3,0.4c0.1,0,0.1,0.1,0.2,0.1c0.1,0.3,0,0.7-0.1,0.9c-0.4,0.5-0.3,1.3,0.4,1.5
			c1.2,0.4,2.2-0.8,1.9-2C1070.2,1160.7,1069.4,1159.4,1068.3,1159.7z"/>
		<path fill="#63666B" d="M1073.4,1152.9c-3.3,0.8-6.6,1.4-10,1.7c-2.8,0.2-5.8-0.1-8.5,0.7c-0.1,0-0.1,0.2,0,0.2
			c2.8,1.2,6.1,0.9,9,0.6c3.4-0.3,6.7-0.8,10-1.8C1074.8,1154.1,1074.4,1152.7,1073.4,1152.9z"/>
		<path fill="#63666B" d="M1133.7,1190.4c-0.3-0.1-0.6-0.2-1-0.1c-2.1,0.4-4,1.4-5.6,2.8c1.4-13.5,1.2-26.8,0.1-40.4
			c-0.6-7-1.2-14.1-1.9-21.1c-0.4-3.6-0.4-8.1-2.3-11.4c0.2,0.1,0.5,0.2,0.7,0.3c1.6,0.5,3.9,1,5.8,0.6c-0.1-0.3-0.1-0.5-0.2-0.8
			c-0.2-0.9-0.5-1.8-0.7-2.5c-1.6,0.1-3.1-0.1-4.7-0.4c-1.8-0.3-3.2-1.3-4.6-2.4c2.3-0.5,4.7-1.6,6.8-3.1c-0.7-0.8-1.5-1.6-2.5-2.4
			c-1.8,1.2-3.7,2.3-5.8,3c-2.8,0.9-5.5-0.4-8.1-1.6c2.9-0.9,6-2.4,8.1-4.4c-1.2-0.5-2.4-0.9-3.8-1.4c-1.1,0.8-2.1,1.7-3.2,2.2
			c-4.4,2.2-8.5,2.4-12.9,0.9c3.3-1,6.6-2.6,8.6-5.3c-1-0.3-2-0.5-3-0.8c-2.3,2.1-5,3.5-8.3,4.4c-5.3,1.4-8.7-1.2-13.4-2.7
			c1.5-0.8,3-1.6,4.5-2.5c0.9-0.6,2.1-1.4,2.9-2.3c-1-0.2-2-0.3-2.9-0.5c-0.7,0.7-1.4,1.3-2.3,1.9c-2,1.4-4.7,2.5-6.5,4.3
			c-0.1-2.4-0.3-4.8-0.7-7.1c-0.3,0-0.5,0-0.5,0s-0.7-2-2.1-3.7c1.2,4.2,1.6,8.6,1.5,13.1c-0.1,3.6,0,9.7-1.4,13.8
			c-2.8,1.6-4.9-5.3-5.3-7.4c-0.8-3.4-0.9-6.9-0.9-10.4c0-3.4-0.1-6.3-0.9-9.1c-0.4,0.5-0.6,0.9-0.6,0.9s0-0.1-0.1-0.3
			c-0.1-0.2-0.3-0.5-0.6-0.9c1.2,6.5,0,13.5,1,20.1c-0.5,1.5-1.2,2.9-2.1,4.2c-0.5,0.8-1.1,1.5-1.8,2.1c-1.7-1.1-3.5-2.2-5.2-3.3
			c-1-1.6-0.2-6.7-0.3-8.7c-0.2-4.8-0.3-9.6-1-14.3c-0.6,0.7-1,1.3-1,1.3s-0.2-0.5-0.7-0.9c0.2,5.2,0.4,10.5,0.6,15.7
			c0,1.7-0.2,3.9-0.1,6.2c-0.1,0.1-0.2,0.1-0.3,0.3c-4.2,5.8-5.7-9.2-5.7-11c-0.1-3.4-0.3-6.7-0.8-10c-1.1,1.8-1.3,4.1-1.3,4.1
			c-0.1,0-0.2,0-0.2,0c-0.2,3-0.3,6.3,0,9.4c-5.7,0.9-9.2-3.6-13.2-7.1c-0.5,0.1-1.1,0.3-1.6,0.4c1.8,1.7,3.6,3.8,5.5,5.5
			c-3.1,1-6.3,1.3-9.5,1.4c-4,0.1-6.2-1.1-8.7-3.2c-0.5,0.2-1,0.3-1.6,0.5c1,2.3,3.2,3.7,5.9,4.4c-2.5,3.3-7.1,2.7-10.6,1.4
			c-1.6-0.6-2.9-1.6-4.2-2.6c-0.8,0.3-1.6,0.7-2.4,1c1.4,1.8,3.8,3.1,6.1,4c-2.2,1.5-4.3,2.8-7.1,3.3s-5.3,0.1-7.8-1.4
			c-0.5-0.3-0.9-0.6-1.4-0.9c-0.5,0.3-0.9,0.6-1.3,0.8c1.5,2.3,4,3.6,6.7,4.1c-0.1,0.1-0.3,0.2-0.5,0.3c-1.3,0.7-2.8,0.9-4.3,1
			c-1.3,0.1-2.6,0.2-3.9,0.1c-0.6-0.1-1.2-0.2-1.8-0.4c-0.3,0.8-0.5,1.8-0.7,2.9c2.1,0.8,4.9,0.7,6.8,0.4c0.3,0,0.7-0.1,1.1-0.1
			c-2.7,4.9-1.7,12.6-1.8,17.8c-0.2,8.6-0.1,17.1,1,25.6c1,7.6,2.7,15.1,5.4,22.2c1.9,4.8,4.1,10.2,7.1,14.8
			c-2.8-0.7-5.7-0.4-8.6,0.3c0.3,0.6,0.6,1.1,0.9,1.6c1.4-0.1,2.7-0.2,4.1-0.2c2.4,0.1,3.8,1.1,5.7,2.1c-2,0.9-4,1.9-5.8,3.2
			c0.5,0.4,0.9,0.8,1.4,1.2c4.7-2.9,10.5-5.1,15.5-2.4c-2.3,1.8-4.1,4.1-5.6,6.6c0.5,0.1,1.1,0.2,1.7,0.3c1.6-2.1,3.6-4,5.9-5.4
			c3.1-1.9,5.6-2.1,8.6-0.9c-3.3,1.6-6.2,4.1-8.5,6.9c0.4,0,0.9,0.1,1.3,0.1c5.8-5.1,15.7-10.4,22.2-5.5l0,0
			c-2.4,1.7-4.5,3.8-6.3,5.9c1,0,2,0,2.9,0c3.1-4.2,8-6,13-7.7c-0.2,2.7-0.4,5.5-0.2,8.1c0.4,0.8,1.2,2.1,2.5,2.9
			c0.8-3.9,0.4-8.1,0.6-12c0.2-3.4,0.6-6.8,0.8-10.1c3.2-1.2,5.1-0.2,5.7,3.1c0.2,0.5,0.3,1,0.5,1.5c0.7,2.3,0.8,4.5,0.9,7
			c0.1,1.6,0.2,3.3,0.2,4.9c0,0.6-0.5,3.7,0.2,4.5c0.5-0.6,0.7-1,0.7-1s0.1,1.1,2.3,1.4c0.2-2.6-0.6-6.2-0.8-8.1
			c0-0.3-0.1-0.5-0.1-0.8c0-2,0.2-3.9,0.4-5.9c0.2-1.5,0.1-3.6,0.7-5c0.1-0.6,0.3-1.1,0.4-1.7c4-1.2,6.1-0.5,6.4,2
			c2,5.4,1.6,12.7-0.5,18.2c0.2,0.3,1.1,1.1,2.6,1.8c1.4-5.3,0.7-11.3,0-16.6c-0.1-0.9-0.3-1.9-0.6-2.9c0.1-0.3,0.1-0.5,0.1-0.9
			c0-1.3,0-2.4,0.3-3.7c0.4-1.5,1.2-3.4,2.1-4.6c0-0.1,0-0.2-0.1-0.2c-2.1,0-3,1.5-3.5,3.4c-0.2,0.8-0.4,1.7-0.5,2.5
			c-0.7-0.9-1.6-1.7-2.7-2c-4.9-1.4-6.4,4.1-6.7,9.5c-0.5-1.5-1.1-3-1.7-4.4c-0.9-2-2.1-5.3-4.7-5.6c-2.4-0.2-3.1,1.4-3.6,3.2
			c-0.9,2.4-1,5.2-1.2,7.6c-0.1,0.8-0.1,1.6-0.2,2.4c-2.7-0.1-5.3,0.7-7.7,2c0-0.5-0.3-1.1-1-1.4c-4.6-1.8-9.3-1.5-13.7,0
			c-1.9-3-6.2-3.1-9.2-1.9c-0.5,0.2-1,0.5-1.5,0.7c-0.1-0.1-0.2-0.1-0.3-0.2c-2.9-1.6-5.3-2.4-8.7-1.7c-0.7,0.2-1.4,0.4-2.2,0.6
			c0-0.5-0.2-0.9-0.6-1.2l0,0c-0.1-0.1-0.2-0.1-0.3-0.2c-2.4-5.8-6.4-11-8.6-16.9c-2.8-7.2-4.5-14.8-5.4-22.5
			c-1.8-14.4-0.6-28.4,0.2-42.7c2.3-0.5,4.9-1.4,4.7-3.7l0,0c4.3-0.1,8.6-2,10.7-5.5c0.2,0,0.3,0.1,0.5,0.1c4.3,0.8,8.4,0,10.7-3.9
			c0-0.1,0.1-0.2,0.1-0.2c4.7,0.6,10-0.2,12.7-1.7c0.2-0.1,0.3-0.3,0.4-0.4c2.1,1.4,4.5,2.1,7.4,1.3c0.1,0.8,0.3,1.7,0.5,2.5
			c-11.2,0-21.6,5.6-29.6,13.4c-8.2,8.1-12.3,18.3-14.1,29.5c-1.1,6.3-1.4,12.6,0.5,18.9c2,6.5,6.3,11.3,11.6,15.4
			c5.9,4.5,12.1,8.9,18.8,12c7.1,3.3,15,4.5,22.8,5.1c0.8,0.1,0.8-1.2,0-1.3c-7.5-0.5-15.2-1.8-22-5c-6-2.9-11.4-6.9-16.8-10.7
			c-5.8-4.1-10.9-8.9-13.2-15.8c-1.9-5.6-2-11.7-1.3-17.6c1.5-5.6,2.8-11.2,5.4-16.3c2.3-4.5,5.3-8.7,8.9-12.3
			c7.8-7.8,18.2-13.5,29.4-13.4c0.4,1.2,1,2.4,1.7,3.4c1.5,2.3,4.5,2.8,5.9,1.2c0.2,1.1,0.6,2,1.3,2.8c3.8,4.5,8.9-0.4,10.7-5.1
			c0.2,0.8,0.5,1.6,0.9,2.3c0.8,1.8,2.1,4.9,4.3,5.1l0,0c0.2,0.1,0.4,0.2,0.6,0.1c0.3-0.1,0.6-0.2,0.9-0.3c0.7-0.3,1.1-0.8,1.5-1.5
			c1.8-3.2,1.3-9.6,1.5-12.1c11.3,1,22,3.9,30.9,11.3c8.6,7.1,13.7,17.2,13.9,28.3c0.2,10.7-2.6,22.1-7.7,31.5
			c-5.3,9.8-13.2,15.3-23.7,18.7c-0.1,0-0.2,0.1-0.2,0.1c-0.8-3.8-1.8-7.7-6.4-7.9c-0.3,0-0.3,0.4-0.1,0.5
			c5.6,0.9,5.7,10.9,6.1,14.9c0.4,4.8-0.4,8.7-1.2,13.4c-0.1,0.3,0,0.6,0.1,0.8c2.1-1,2.9-3.2,3.1-4.9c0.3-2.6,0.1-5.4-0.2-8.1
			c1.4-0.5,2.3-0.1,3.8,0.5c2.1,0.9,3.7,2.1,5.3,3.5c0.9-0.2,1.7-0.5,2.7-0.7c-0.9-0.9-2.9-2.5-5.2-3.8c2.4-3.1,6-4.8,9.8-3.3
			c2.3,0.9,3.6,2.7,5.3,4.2c0.9-0.3,1.7-0.6,2.5-0.9c-0.9-1.8-2.6-3.4-4.5-4.5c1.9-1.7,4.2-2.1,6.7-1.3c1.9,0.6,3.2,2.3,5,2.9
			c0.2-0.1,0.4-0.2,0.6-0.3c0.3-0.2,0.7-0.4,1-0.6c0-0.3-0.1-0.5-0.3-0.7c-1.6-1.5-3.4-2.6-5.3-3.2c0.2-0.2,0.3-0.4,0.5-0.7
			c1.6-2,2.4-2.8,5-3.3c1.9-0.3,3.8-0.7,5.8-0.7c0.5,0,1,0,1.4-0.1c0.4-1.5,0.7-3.3,1.3-5.4
			C1133.7,1190.6,1133.7,1190.5,1133.7,1190.4z M1125.4,1194.1c-0.9,0.3-1.8,0.6-2.7,1c-2.2,0.9-3.8,2.6-4.7,4.8
			c-0.1,0.2-0.1,0.4-0.1,0.6c-2.8-0.4-5.6,0.3-7.8,2.8c-1-0.4-2.1-0.7-3.1-0.8c-4.2-0.4-7.3,2.2-9.5,5.4c-2.1-1-4.3-1.6-5.6-0.8
			c-0.3-1.8-0.6-3.5-0.9-5.1h0.1c10.1-1,18.9-8.9,24.1-17.2c6.4-10.4,9.1-23.6,8.6-35.7c-1-24.4-23.4-39.4-46.4-40
			c0-1.1,0.1-2.2,0.1-3.3c1.3-0.3,2.4-1,3.5-1.7c4.2,3.5,8.6,6.1,14.1,4.8c0.3-0.1,0.6-0.1,0.9-0.2c3.5,2,7,3.8,11.2,2.9
			c0.3-0.1,0.6-0.1,0.8-0.2c2.8,3,6,4.1,9.4,3.8c1.4,1.5,2.4,3,3.8,4.1c0,2,0.7,3.8,1,5.9c0.6,3.4,1,6.8,1.4,10.2
			c0.8,6.7,1.4,13.4,1.8,20.1C1126.4,1168.2,1126.5,1181.3,1125.4,1194.1z"/>
		<path fill="#888888" d="M1070.5,1184.9c1.2-0.7,2-0.6,2.3,0.3s-0.5,2.7-0.5,2.7l-1.5-0.8L1070.5,1184.9z"/>
		<g>
			<path fill="none" d="M1060.2,1162.6c0,0,0.1,0,0.2,0C1060.3,1162.7,1060.2,1162.6,1060.2,1162.6z"/>
			<path fill="#CACBCC" d="M1030.1,1156.8c3.9,1.3,8.6,0,12.5-0.6c0.6-0.1,0.5-1.2-0.1-1.1c-3.5,0.4-7,0.5-10.6,0.2
				c-3.2-0.3-4.6-2.3-7.2-3.3c-0.2-0.1-0.3,0.1-0.3,0.3C1024.8,1154.5,1028.2,1156.1,1030.1,1156.8z"/>
			<path fill="#CACBCC" d="M1041.1,1161.4c0,0.1,0,0.2,0.1,0.3c1,0.7,2.4-0.1,3.5-0.1c1.7,0,3.2,0.5,4.8,0.9c1,0.2,1.7-1.2,0.7-1.7
				c-1.7-0.8-3.7-1-5.5-0.8C1043.5,1160.1,1041.5,1160.1,1041.1,1161.4z"/>
			<path fill="#CACBCC" d="M1061.5,1164.5c0.3-0.6,0.1-1.3-0.4-1.6c-0.1-0.1-0.3-0.1-0.4-0.2c0,0-0.1,0-0.2,0
				c-0.1-0.1-0.2-0.2-0.3-0.2c-0.1-0.1-0.1-0.1-0.2-0.1l0,0l-0.1-0.1c-0.1-0.1-0.3-0.2-0.4-0.4c-0.1-0.2-0.5-0.2-0.5,0.1
				c0,0.2-0.1,0.3-0.2,0.4s-0.3,0.4-0.3,0.4c-0.2,0.5-0.2,1,0,1.5C1059.1,1165.3,1060.8,1165.7,1061.5,1164.5z M1060.3,1162.7
				c-0.1,0-0.1,0-0.2,0C1060.2,1162.6,1060.3,1162.7,1060.3,1162.7z"/>
			<path fill="#CACBCC" d="M1068.1,1162.5c-0.4-0.4-0.4-0.8-0.4-1.3c-0.1-0.5-0.8-0.3-0.9,0.1c0,0.5-0.3,0.8-0.4,1.4
				c0,0.5,0.2,0.9,0.5,1.3c0.6,0.7,1.9,1,2.7,0.4c0.7-0.5,0.5-1.8-0.5-1.7C1068.7,1162.7,1068.4,1162.8,1068.1,1162.5z"/>
			<path fill="#CACBCC" d="M1062.3,1146.1c1.8,0.9,4.4,0.3,6.3,0.7c2.3,0.5,4.5,1.5,6.8,2.1c0.1,0,0.1-0.1,0.1-0.1
				c-1.5-2.2-3.9-3.3-6.4-3.8c-2-0.4-5.4-0.9-6.9,0.7C1062.2,1145.8,1062.2,1146.1,1062.3,1146.1z"/>
			<path fill="#CACBCC" d="M1084.8,1155.3c-1.4,0-4-0.1-4.6,1.5c0,0.1,0.1,0.2,0.2,0.2c1.4,0.1,2.8-0.2,4.1-0.1
				c1.9,0.1,3.3,1,5.1,1.3c0.5,0.1,1-0.4,0.7-0.9C1089.2,1155.6,1086.7,1155.3,1084.8,1155.3z"/>
			<path fill="#CACBCC" d="M1081.5,1151.1c1.9,0.7,4.8,0.2,6.7,0c1.9-0.2,4-1,5.4-2.4c0.6-0.6-0.2-1.5-0.9-1.1
				c-3.8,1.9-7,2.9-11.2,3.3C1081.4,1150.9,1081.4,1151.1,1081.5,1151.1z"/>
			<path fill="#CACBCC" d="M1104.3,1140.2c0.7,1,1,2.4,2.1,3c0.1,0.1,0.4,0,0.4-0.1c0.6-1.3-0.4-2.9-1.2-3.9c-1-1.3-2-2.3-3.6-2.8
				c-0.3-0.1-0.5,0.3-0.4,0.5C1102.5,1138,1103.5,1139.1,1104.3,1140.2z"/>
			<path fill="#CACBCC" d="M1063.9,1188.8c0.3-0.4,0-1-0.5-1.1c-0.4-0.1-0.7-0.1-0.8-0.4c-0.2-0.4-0.1-1-0.3-1.5
				c-0.2-0.6-1.2-0.8-1.5-0.2c-0.4,1-0.4,2.2,0.4,3.1C1061.9,1189.4,1063.2,1189.7,1063.9,1188.8z"/>
			<path fill="#CACBCC" d="M1071.4,1185.6c0-0.3-0.1-0.6-0.3-0.9c-0.1-0.1-0.3-0.1-0.4-0.1c-1.1,0.4-1.3,1.8-0.6,2.7
				c0.6,0.8,1.8-0.2,1.3-1C1071.4,1186,1071.4,1185.8,1071.4,1185.6z"/>
			<path fill="#CACBCC" d="M1076.9,1184c1.2-1.6-0.7-3.2-2.1-3.9c-1.6-0.8-4-1.2-5.6-0.2c-0.1,0-0.1,0.1,0,0.2
				c1.3,0.4,2.6,0.5,3.9,1.1c1.4,0.7,2.1,1.5,3,2.8C1076.3,1184.1,1076.7,1184.2,1076.9,1184z"/>
			<path fill="#CACBCC" d="M1062,1198.1c-0.4,0.3-0.2,0.9,0.3,0.8c2-0.4,3.5,4.4,4,5.8c0.6,1.8,0.6,3.9,1.6,5.5
				c0.2,0.4,0.8,0.3,0.9-0.1C1069.9,1207.1,1066.5,1194.9,1062,1198.1z"/>
			<path fill="#CACBCC" d="M1079.7,1202.1c-0.6-1.6-2.1-3.7-4.1-3.3c-0.1,0-0.1,0.1-0.1,0.2c0.8,0.6,1.7,1.1,2.3,2
				c0.8,1.3,0.9,3.2,1.1,4.5c0.3,2.3,0.3,4.8,1,7.1c0.1,0.2,0.4,0.2,0.4,0c0.3-1.8,0.1-3.5,0-5.3
				C1080.3,1205.6,1080.3,1203.8,1079.7,1202.1z"/>
			<path fill="#CACBCC" d="M1087.9,1196c-0.8-1.9-3.9-3.7-4.8-0.9c-0.1,0.3,0.3,0.6,0.5,0.3c0.7-0.1,1.4-0.2,2.2-0.4
				c0.5,0.5,0.8,1.1,0.9,1.7c0.2,0.8,0.3,1.6,0.3,2.3c0.2,1.6,0.3,3.1,0.5,4.7c0.2,2.6,0,5.7,0.9,8.2c0.2,0.4,0.8,0.5,0.9,0
				c0.7-2.6,0.1-5.6-0.1-8.2C1089,1201.3,1088.8,1198.3,1087.9,1196z"/>
			<path fill="#CACBCC" d="M1112.4,1191.3c-2.1,0.9-3.9,2.4-5.8,3.6c-1.8,1.1-3.7,2.2-5.6,3.1c-2.1,1-4.2,1.9-6.4,2.6
				c-1.3,0.4-2.5,0.4-3.3,1.6c-0.3,0.4,0.2,0.9,0.6,0.8c1.9-0.5,3.8-0.7,5.6-1.4c1.8-0.7,3.5-1.5,5.1-2.5c3.4-2,7.4-4.5,10-7.5
				C1112.8,1191.4,1112.6,1191.2,1112.4,1191.3z"/>
			<path fill="#CACBCC" d="M1057.6,1206.5c-5-0.8-10.1-0.9-15.1-2.1c-5.2-1.2-10-3.3-14.6-6.1c-8.3-5-17.3-11.2-21.1-20.5
				c-0.1-0.1-0.3-0.1-0.2,0.1c1.8,4.5,4.3,8,7.6,11.6c3.4,3.7,7.6,6.8,11.8,9.6c9.4,6.2,20.1,9.2,31.4,9.1
				C1058.2,1208,1058.5,1206.6,1057.6,1206.5z"/>
			<path fill="#CACBCC" d="M1058,1212c-1-0.5-2.1,0-3.1,0.3c-0.4,0.1-0.7,0.2-1,0.5c-0.2,0.2-0.2,0.7-0.5,0.8c0,0-0.1,0.1,0,0.1
				c0.2,0,0.3,0,0.4,0c0.2,0,0.3-0.1,0.5-0.1s0.4,0,0.7,0c1,0,2.1,0.3,3-0.2C1058.4,1213.1,1058.5,1212.2,1058,1212z"/>
			<path fill="#CACBCC" d="M1044.1,1210.7c-0.4-0.3-1.1-0.2-1.5,0.1c-0.4,0.2-0.5,0.6-0.6,1.1c-0.1,0.4,0.3,0.6,0.6,0.4l0,0
				c0.1,0,0.2,0,0.2,0c0.1,0,0.2,0,0.3,0c0.2,0,0.4,0,0.6,0c0.3,0,0.6-0.3,0.7-0.6c0,0,0,0,0-0.1
				C1044.6,1211.3,1044.4,1210.9,1044.1,1210.7z"/>
			<path fill="#CACBCC" d="M1032.6,1210.2c-1.3-0.1-2.2,0.2-3.3,0.8c-0.4,0.2-0.2,0.9,0.2,0.9c1-0.1,2.1,0,3.1,0.1
				c0.3,0,0.6-0.2,0.8-0.4c0.1-0.2,0.2-0.4,0.1-0.7C1033.3,1210.4,1033,1210.2,1032.6,1210.2z"/>
			<path fill="#CACBCC" d="M1021.2,1208.8c-0.6-0.2-1.3-0.3-1.9-0.3c-0.6,0-1.1,0.2-1.7,0.5c-0.4,0.2-0.2,0.7,0.2,0.8
				c1,0.1,2,0.4,2.9,0.7c0.3,0.1,0.7,0,0.9-0.2s0.3-0.4,0.3-0.6C1021.9,1209.3,1021.6,1208.9,1021.2,1208.8z"/>
			<path fill="#CACBCC" d="M1009.9,1207.4c-0.2-0.1-0.3-0.2-0.5-0.2c-0.4-0.1-0.9-0.2-1.3-0.2c-0.5-0.1-0.9,0-1.3,0.3
				c-0.1,0.1-0.1,0.2,0,0.3c0.3,0.3,0.6,0.4,1,0.6c0.3,0.1,0.5,0.3,0.7,0.5c0.1,0.1,0.2,0.3,0.3,0.3s0.1,0.1,0.2,0.1
				C1010.1,1209.8,1011,1208,1009.9,1207.4z"/>
			<path fill="#CACBCC" d="M1009.8,1203.1c-3.9-6.6-6.6-13.8-8.4-21.2c-1.8-7.5-2.1-15.3-3.9-22.8c-0.1-0.5-0.9-0.4-1,0.1
				c-0.2,7.9,1.3,16.4,3,24.1c1.7,7.5,4.1,14.4,8.1,21C1008.5,1205.7,1010.6,1204.4,1009.8,1203.1z"/>
			<path fill="#CACBCC" d="M1005.4,1113.9c0.3-0.2,0.7-0.3,1.1-0.3c0.2,0,0.4,0,0.6,0c0.6-0.1,1-0.9,0.8-1.4c-0.2-0.6-0.8-1-1.4-0.8
				c-0.2,0.1-0.3,0.1-0.5,0.2c-0.7,0.2-1.4,0.5-1.8,1.2C1003.9,1113.4,1004.7,1114.4,1005.4,1113.9z"/>
			<path fill="#CACBCC" d="M1014.2,1109c0.1,0.1,0.3,0.2,0.5,0.1c0.7-0.2,1.4-0.1,2.1-0.2c0.7-0.1,1.4-0.2,2-0.5
				c0.9-0.4,0.4-1.9-0.5-1.9c-1.6,0.1-2.6,1-3.9,1.6c-0.2,0.1-0.2,0.3-0.2,0.4C1014,1108.8,1014,1108.9,1014.2,1109
				C1014.1,1109,1014.2,1109,1014.2,1109z"/>
			<path fill="#CACBCC" d="M1029.4,1104.9c0.8,0,2,0.3,2.6-0.4c0.2-0.3,0.3-0.7,0-0.9c-0.8-0.8-2.2-0.2-3.2-0.1
				c-0.3,0-1.8,0.3-1.4,0.9S1028.7,1104.9,1029.4,1104.9z"/>
			<path fill="#CACBCC" d="M1041.4,1101.5c0.8,0,1.5,0,2.3,0.3c1.1,0.4,1.5-1.8,0-1.6c-0.9,0.2-1.7,0.1-2.6,0.2
				c-0.6,0-1.1,0-1.4,0.5c-0.1,0.1,0,0.2,0,0.3C1040.1,1101.7,1040.8,1101.5,1041.4,1101.5z"/>
			<path fill="#CACBCC" d="M1053.6,1096.6c0.3,1,0.1,2.4,0.1,3.5c0,1.8,0.1,3.7,0.3,5.5c0.2,1.3,1.7,0.9,1.7,0
				c0-1.6,0.2-13.6-3.7-11.3c-0.1,0.1-0.2,0.3-0.1,0.4C1052.6,1095.2,1053.3,1095.8,1053.6,1096.6z"/>
			<path fill="#CACBCC" d="M1065.7,1106.2c0,1,1.4,0.9,1.5,0c0.2-3.9,1.3-12.7-4-13.8c-0.3-0.1-0.5,0.3-0.3,0.5
				C1066.2,1096.4,1065.7,1101.8,1065.7,1106.2z"/>
			<path fill="#CACBCC" d="M1074.1,1100.3c0.2,1.9,0.1,3.9,0.5,5.7c0.1,0.6,1.2,0.7,1.3,0c0.4-2.6-0.1-5.5-0.6-8.1
				c-0.4-2-1.1-3.9-3.2-4.5c-0.2-0.1-0.5,0.2-0.3,0.4C1073.3,1095.9,1073.9,1097.7,1074.1,1100.3z"/>
			<path fill="#CACBCC" d="M1081,1099.3c0.3,0.1,0.5,0.2,0.8,0.3c0.3,0.1,0.7,0.1,1,0.1c1,0.1,1-1.3,0.2-1.2c-0.4,0-0.8,0-1.1,0.1
				c-0.3,0-0.5,0.2-0.8,0.3C1080.8,1098.9,1080.8,1099.3,1081,1099.3z"/>
			<path fill="#CACBCC" d="M1097.9,1103.2c0.5,0.2,0.7,0.4,1.1,0.7c0.4,0.3,0.7,0.5,1.2,0.5c0.7,0,1.2-0.7,1-1.4
				c-0.3-1.3-1.4-1.1-2.4-1.1c-0.9,0-2.2-0.8-3.1-0.2c-0.1,0.1-0.2,0.2-0.1,0.4C1096.1,1102.8,1097.2,1102.9,1097.9,1103.2z"/>
			<path fill="#CACBCC" d="M1108.5,1106.2c0.5,0.2,1.1,0.3,1.4,0.7c0.8,1.1,2.5-0.6,1.5-1.5c-0.6-0.5-1.4-0.5-2.1-0.6
				s-1.6-0.2-2.3,0c-0.4,0.1-0.4,0.6-0.1,0.8C1107.3,1105.9,1107.9,1106,1108.5,1106.2z"/>
			<path fill="#CACBCC" d="M1120.4,1108.4c-0.4,0-0.7-0.1-1.1-0.1s-0.6,0.2-1,0.2c-0.2,0-0.3,0.4-0.1,0.5c0.2,0.2,0.4,0.5,0.6,0.6
				c0.3,0.2,0.7,0.3,1.1,0.5c0.7,0.3,1.4,0.6,2.2,0.5c0.7-0.1,1-1.2,0.4-1.6C1121.9,1108.5,1121.2,1108.5,1120.4,1108.4z"/>
			<path fill="#CACBCC" d="M1124.9,1112.5c-0.3,0-0.6,0.2-0.6,0.6s0,0.9,0,1.3c0,0.7,0.6,1.2,1.2,1.2s1.3-0.6,1.2-1.2
				C1126.6,1113.5,1125.9,1112.4,1124.9,1112.5z"/>
			<path fill="#CACBCC" d="M1134.1,1147.2c-1-7.4-3-14.8-5.1-22c-0.1-0.3-0.4-0.1-0.4,0.1c1.6,7.8,2.2,15.8,3.1,23.7
				c0.8,6.4,0.8,13.6,2.4,19.8c0.1,0.5,1,0.6,1.1,0C1137,1162.1,1135,1153.9,1134.1,1147.2z"/>
		</g>
	</g>
	<path opacity="0.3" fill="#091426" enable-background="new    " d="M927.7,1168.8c-0.6,7.2-1.2,19.4-0.8,23.1
		c0.2,1.7,0.2,3.5,0.4,5.4c0.3-5.9,0.7-11.8,0.7-17.8C928.1,1175.8,928.3,1172.2,927.7,1168.8z"/>
</g>
</svg>
