<?xml version="1.0" encoding="utf-8"?>
<!-- Generator: Adobe Illustrator 22.1.0, SVG Export Plug-In . SVG Version: 6.00 Build 0)  -->
<svg version="1.1" id="_x30_2_x5F_Misc_x5F_DressBuckleBelt"
	 xmlns="http://www.w3.org/2000/svg" xmlns:xlink="http://www.w3.org/1999/xlink" x="0px" y="0px" viewBox="0 0 2000 2000"
	 enable-background="new 0 0 2000 2000" xml:space="preserve">
<g>
	<g>
		<path fill="#64320F" d="M1161.2,1163.7c0,0,1.7,1.6,1.6,5.5c-0.1,1.9-0.3,7.8-0.7,13.9c-0.5,6.7-1.1,13.6-2,15.6
			c-1.7,3.9-3.7,3.6-14.1-1.4c-0.9-0.5-2-0.9-3-1.4c-10.6-4.8-26-10.4-26-10.4l-60.1,2.9c-37.7,1.8-68.7,4.9-94.1,9.7
			c-25.4,4.8-28.5,9.5-31.5,6.9c-3.1-2.6-1.7-11.9-2.3-25.4c-0.6-13.5-0.1-15.6,5.5-18.9c2.9-1.8,14.6-7,35.4-12.5
			c17.5-4.6,41.6-9.5,72.4-12.7c2-0.2,4-0.4,6-0.6c23.2-2.2,36-1.3,43.8,0.3c16.2,3.5,10.7,10.7,31.3,2.4
			c30.5-12.3,30.6-12.6,40.7-9c1,0.4,1.9,0.9,2.8,1.5C1174.1,1136,1173.7,1152.2,1161.2,1163.7z"/>
	</g>
	<path opacity="0.3" fill="#091426" d="M1161.2,1163.7c12.6-11.5,12.9-27.7,5.5-33.4c0.6,4,0.9,8.9,0.2,13.8
		c-1.8,11.7-9.4,25.3-20.3,29.9c-10.9,4.6-30.2,4.8-30.2,4.8s-10.3-25-24.4-43.4c-7.8-1.7-20.6-2.5-43.8-0.3c-2,0.2-4,0.4-6,0.6
		c-8.7,21.3,0.1,49.1,0.1,49.1c-41.5,2.2-75.3,5.6-75.3,5.6c-1.4-15.5-1.9-27.7,2.8-42c-20.8,5.5-32.5,10.7-35.4,12.5
		c-5.5,3.3-6,5.5-5.4,18.9c0.6,13.5-0.8,22.8,2.3,25.4s6.1-2.2,31.5-6.9c25.4-4.8,56.4-7.9,94.1-9.7l60.1-2.9c0,0,15.4,5.6,26,10.4
		c7.2-3.7,13.9-8.5,19.2-12.8c0.4-6.1,0.7-12,0.7-13.9C1162.9,1165.2,1161.2,1163.7,1161.2,1163.7z"/>
	<path fill="#F8C82B" d="M1120.6,1150c-0.5-12.4-2.9-17.7-3.9-19s-6.1-6.4-22.1-11c-16-4.6-33.3,1.7-39,4.5
		c-3.7,1.8-6.7,2.6-8.7,4.3c-1,0.8-1.8,1.9-2.2,3.4c-1.3,4.5-2,24.1,0,38.1c2,14,6,19.1,7.2,19.3s12.6,2.3,23.5,2.9
		c5.7,0.3,29.3,0.5,35.9-0.8c6.3-1.2,8.6-3.4,9.2-6.9c0-0.2,0.1-0.4,0.1-0.6C1121,1180.3,1121.1,1162.4,1120.6,1150z"/>
	<path opacity="0.3" fill="#091426" d="M1044.7,1132.1c-1.3,4.5-2,24.1,0,38.1c2,14,6,19.1,7.2,19.3s12.6,2.3,23.5,2.9
		c5.7,0.3,29.3,0.5,35.9-0.8c6.3-1.2,8.6-3.4,9.2-6.9c-2.8-2.2-7.8,0.3-10.6,1.1c-6.6,1.7-13.3,3-20.1,3.6
		c-6.7,0.6-13.5,0.6-20.2,0.2c-5.3-0.4-10-1.7-14.9-3.1c-0.2-0.2-0.3-0.4-0.5-0.6c-3.9-5.5-4.9-13.2-5.5-19.7
		c-0.2-2.1-0.3-4.3-0.4-6.4c0.9,1.5,2.1,2.8,3.5,3c1.6,0.2,2.7-1.1,2.4-2.3c2.2-0.9,4.3-1.9,6.8-2.4c4.4-0.9,8.9-1.5,13.4-1.6
		c8.8-0.1,16.1,2.2,23.8,6.1c2.9,1.5,5-2.4,2.5-4.3c-7.7-5.7-18.6-7.4-28-7c-5.6,0.3-17.6,0.4-21.7,5.9c-0.4-0.5-0.7-1.1-0.9-1.9
		c-0.5-2,0.5-3.1,1.8-4.4c0.6-0.6,0-1.7-0.8-1.4c-1.2,0.4-2.2,1.3-2.9,2.4c0-2.5,0.1-5,0.2-7.5c0.3-4.7,1.4-11.6-1.6-15.7
		C1045.9,1129.6,1045.1,1130.6,1044.7,1132.1z"/>
	<path opacity="0.3" fill="#091426" d="M1056.2,1133.4c3.3-3.4,8.2-4,12.6-4.8c4.6-0.9,9.2-1.3,13.8-1c4.7,0.2,9.2,1,13.7,2.4
		c2.4,0.7,5.2,1.5,7.4,2.8c2.1,1.2,3,3.1,4.4,5c0.3,0.4,0.9,0.7,1.4,0.6c0.2,1.4,0.7,2.8,1,4.4c0.7,3.9,1,7.9,1.2,11.9
		c0.1,2.1,1.9,24.5-1,24.4c-1.7-0.1-2.1,1.9-1.2,3c1.8,2.2,4.6,1.2,5.9-1c2.5-4.3,1.5-12,1.3-16.7c-0.2-6.2-0.5-12.5-1.3-18.7
		c-0.5-3.4-1-8.2-4.1-10.2c0.1-2.8-2.7-5.7-5.1-7.1c-5.6-3.3-12.6-4.9-18.9-5.6c-10.5-1.3-26.8-1-33.6,8.6
		C1052.6,1132.9,1055,1134.7,1056.2,1133.4z"/>
	<g>
		<path fill="#64320F" d="M1113.2,1165c-1.1,13.1-0.2,18.2-2.2,18.7c-2,0.4-23.6,3.1-53.2,0.2c0,0-0.4-0.5-1.1-1.7
			c-1.4-2.3-3.7-7.4-5.4-16.9c-0.2-1.4-0.5-2.9-0.7-4.5c0,0,6.1-6.8,21.7-6.3c15.5,0.5,21,3.9,25,6c4,2.1,5.3-0.3,5.6-2.8
			c0.1-0.7-0.1-1.5-0.5-2.4c-1.3-2.3-5-5.1-14.1-7.1c-12.4-2.7-27.9-0.8-37.6,4.1c0,0,0.5-9,1.3-15.1c0.3-1.9,0.6-3.6,0.9-4.6
			c0,0,11.1-7.9,28.8-6.6c17.7,1.3,28.8,9.9,28.8,9.9S1114.3,1151.9,1113.2,1165z"/>
	</g>
	<path opacity="0.3" fill="#091426" d="M1085.1,1160.9c10.1,2.9,17.5,6.4,20.2,1.4c2-3.7-1.3-6-3.1-7c0.5,0.9,0.6,1.7,0.5,2.4
		c-0.3,2.5-1.6,4.9-5.6,2.8c-4-2.1-9.4-5.5-25-6c-15.5-0.5-21.7,6.3-21.7,6.3c0.2,1.6,0.5,3.1,0.7,4.5
		C1059.8,1159.3,1075.2,1158,1085.1,1160.9z"/>
	<path opacity="0.3" fill="#091426" d="M1111,1183.7c2-0.4,1.2-5.6,2.2-18.7s-3-29-3-29s-11.1-8.6-28.8-9.9s-28.8,6.6-28.8,6.6
		c-0.3,1-0.6,2.6-0.9,4.6c1.4-0.6,2.6-1.5,4.1-2.2c2.7-1.4,5.6-2.4,8.5-3.2c5.6-1.4,11.4-1.8,17.2-1.2c6.3,0.6,12.4,2.1,18.3,4.2
		c2.4,0.8,4.6,2,6.8,3.1c0.3,1.2,0.5,2.3,0.7,3.5c0.9,5.2,1.3,10.4,1.3,15.7c0,7.2-1.4,14.4-1.9,21.6c-7.2-2.9-16.7-2-23.5-1.3
		c-6.2,0.6-12.5,1.4-18.5,2.9c-2.5,0.6-5.4,1.1-8.2,1.9c0.7,1.2,1.1,1.7,1.1,1.7C1087.4,1186.8,1109,1184.1,1111,1183.7z"/>
	<path fill="#FEFCF1" d="M1055.4,1185.6c0.1,0,0.1,0,0.2,0c0.6,0.1,1.4-0.4,1.1-1.1c0,0,0-0.1-0.1-0.1c-0.3-0.7-1.1-1-1.6-0.4
		C1054.5,1184.4,1054.7,1185.5,1055.4,1185.6L1055.4,1185.6z"/>
	<path fill="#FEFCF1" d="M1064.1,1187.8c4.7,1,8.8,1.5,13.6,1.4c2.5-0.1,5.2,0.4,7.7-0.1c2.6-0.5,5-1.1,7.7-1.1c0.7,0,0.7-1.2,0-1.1
		c-2.8,0.3-4.8-0.2-7.7-0.5c-2.5-0.2-5,0.1-7.4,0c-4.5-0.3-9-0.2-13.5-0.6C1063.3,1185.8,1063,1187.6,1064.1,1187.8L1064.1,1187.8z"
		/>
	<path fill="#FEFCF1" d="M1073.5,1150.3c4.5,0.6,9,0.6,13.5,1.5c4.2,0.8,7.5,2.6,11.5,3.9c0.6,0.2,0.9-0.5,0.7-0.9
		c-1.7-3.6-6.9-4.8-10.5-5.6c-4.8-1.1-10.4-1.6-15.2-0.3C1072.8,1149,1072.7,1150.2,1073.5,1150.3L1073.5,1150.3z"/>
	<path fill="#FEFCF1" d="M1081,1121.1c5,0.4,10,1.1,14.9,2.4c4.4,1.3,8,3.6,12.2,5.4c0.5,0.2,1.2-0.1,1-0.8c-1.4-3.6-6.6-5.4-10-6.6
		c-5.8-2.1-11.9-2.7-18.1-2.6C1079.6,1119,1079.6,1121,1081,1121.1L1081,1121.1z"/>
	<path fill="#FEFCF1" d="M1113.6,1132.4c0.3,0.6,0.3,1.3,0.6,1.9c0.3,0.6,1,0.8,1.6,0.7c0.6-0.2,1.1-0.8,1.1-1.4
		c-0.1-0.6-0.3-1.1-0.7-1.6c-0.3-0.3-0.5-0.6-0.9-0.9C1114.4,1130.2,1113,1131.2,1113.6,1132.4L1113.6,1132.4z"/>
	<path opacity="0.3" fill="#091426" d="M1148.1,1153.3c-1.4,4.6-5.1,6.8-7.6,6.8s-3.1-4-1.8-6.7c1.7-3.9,4-5.5,6.5-5.5
		C1147.7,1147.8,1149.1,1150,1148.1,1153.3z"/>
	<path fill="#31211C" d="M1147.9,1152.3c-0.6,2.8-2.7,4.3-4.1,4.4c-1.5,0.1-2-2.3-1.4-3.9c0.8-2.4,2.1-3.5,3.6-3.6
		C1147.4,1149,1148.3,1150.3,1147.9,1152.3z"/>
	<g>
		<path opacity="0.3" fill="#091426" d="M981.2,1169c0-1.3,1.1-2.3,2.5-2.3c0.3,0,0.5,0,0.7,0.1c-0.3-1.3-1.3-1.5-2.7-1.5
			c-1.6,0-3,1.6-3,3.5c0,2,0.4,4.1,3,2.1c0.1-0.1,0.2-0.2,0.3-0.3C981.6,1170.4,981.2,1169.8,981.2,1169z"/>
		<path opacity="0.3" fill="#091426" d="M1002.6,1164.1c0-1.4,1-2.6,2.3-2.6c0.5,0,1,0.2,1.4,0.5c-0.6-1.2-1.8-2-3.2-2
			c-2,0-3.6,1.6-3.6,3.6s1.6,3.6,3.6,3.6c0.6,0,1.2-0.2,1.7-0.5C1003.6,1166.7,1002.6,1165.5,1002.6,1164.1z"/>
		<path opacity="0.3" fill="#091426" d="M1023.2,1156c-2,0-3.5,2.1-3.5,4.7s1.6,4.7,3.5,4.7s3.5-2.1,3.5-4.7
			S1025.2,1156,1023.2,1156z M1024.2,1164.3c-1.4,0-2.5-1.5-2.5-3.3s1.1-3.3,2.5-3.3s2.5,1.5,2.5,3.3S1025.5,1164.3,1024.2,1164.3z"
			/>
		<path fill="#31211C" d="M1024.2,1157.8c-1.4,0-2.5,1.5-2.5,3.3s1.1,3.3,2.5,3.3s2.5-1.5,2.5-3.3S1025.5,1157.8,1024.2,1157.8z"/>
		<path fill="#31211C" d="M1006.7,1163.6c0-0.6-0.1-1.1-0.4-1.6c-0.4-0.3-0.9-0.5-1.4-0.5c-1.3,0-2.3,1.2-2.3,2.6
			c0,1.4,1,2.5,2.2,2.6C1005.9,1166.1,1006.7,1165,1006.7,1163.6z"/>
		<path fill="#31211C" d="M984.5,1167.6c0-0.3,0-0.5-0.1-0.7c-0.2-0.1-0.5-0.1-0.7-0.1c-1.4,0-2.5,1-2.5,2.3c0,0.7,0.4,1.4,1,1.8
			C983.4,1170,984.5,1169.4,984.5,1167.6z"/>
	</g>
</g>
</svg>
