<?xml version="1.0" encoding="utf-8"?>
<!-- Generator: Adobe Illustrator 21.0.2, SVG Export Plug-In . SVG Version: 6.00 Build 0)  -->
<svg version="1.1" id="_x30_4_x5F_Misc_x5F_TiesBolo"
	 xmlns="http://www.w3.org/2000/svg" xmlns:xlink="http://www.w3.org/1999/xlink" x="0px" y="0px" viewBox="0 0 2000 2000"
	 enable-background="new 0 0 2000 2000" xml:space="preserve">
<g>
	<g>
		<g>
			<path fill="#64320F" d="M1037.3,1028.9c-0.3,0.4-0.6,0.8-1.3,5.3c-0.4,2.9-1,7.5-1.9,15c-1.1,10-2.7,25.6-3.7,43.7
				c-1.4,24.8,0.3,48.2,1.3,58.7c0.3,3.6,0.6,5.7,0.6,5.8l6-0.7c0-0.1-0.9-7.6-1.6-19.1c0-0.8-0.1-1.6-0.1-2.4
				c-0.3-4.9-0.5-10.4-0.6-16.3c0-0.9,0-1.9,0-2.8c0-3.7,0-7.4,0.1-11.3c0-1.1,0.1-2.2,0.1-3.4c0.1-2.7,0.2-5.5,0.4-8.2
				c0.2-3.4,0.4-6.8,0.6-10c0.1-0.9,0.1-1.8,0.2-2.6c0.5-6.3,1-12.3,1.5-17.8c0.1-1.2,0.2-2.3,0.3-3.4c0.3-2.8,0.5-5.4,0.8-7.8
				c0.1-0.8,0.2-1.6,0.3-2.4c0.2-1.3,0.3-2.6,0.4-3.8c0.5-4.2,0.9-7.6,1.3-9.9c0.3-2,0.5-3.2,0.6-3.6c0,0.1-0.1,0.5-0.5,0.9
				L1037.3,1028.9z"/>
			<path fill="#64320F" d="M1067.5,1116.8c0-1.1-0.1-2.2-0.1-3.4c-0.2-5.5-0.4-11.1-0.8-16.3c0-0.2,0-0.4,0-0.6
				c-0.1-0.9-0.1-1.7-0.2-2.6c-0.3-4.2-0.8-8.7-1.4-13.7c-0.2-1.3-0.3-2.6-0.5-3.9c-0.5-3.9-1.1-8.2-1.9-12.8
				c-0.2-0.9-0.3-1.9-0.5-2.8c-0.5-2.8-1-5.8-1.6-8.9c-0.1-0.8-0.3-1.6-0.5-2.4c-0.4-2.1-0.8-4.2-1.3-6.4c-0.7-3.5-1.5-7.2-2.4-11.1
				c-0.5-2-0.9-4.1-1.4-6.3l-5.8,1.4c0.7,3,1.4,5.9,2,8.6c6.6,29.7,8.5,47.3,9.6,61.9c0.3,3.6,0.5,7.4,0.6,11.3
				c0.2,4.2,0.3,8.5,0.4,12.4c0,0.7,0,1.4,0,2.1c0.2,9.4,0.1,16.5,0.1,16.6h6C1067.8,1139.8,1067.9,1129.2,1067.5,1116.8z"/>
		</g>
		<path opacity="0.3" fill="#091426" enable-background="new    " d="M1038.3,1034.2c-0.7-0.1-1.5-0.1-2.3-0.1
			c-0.4,2.9-1,7.5-1.9,15c-1.1,10-2.7,25.6-3.7,43.7c-1.4,24.8,0.3,48.2,1.3,58.7c1.3-0.1,2.5-1,2.4-2.7c-0.2-2.8-0.4-5.7-0.6-8.5
			c1-0.7,1.9-1.6,2.8-2.5c0.1-0.1,0.2-0.2,0.4-0.3c0-0.8-0.1-1.6-0.1-2.4c-0.6,0.6-1.1,1.3-1.7,1.8c-0.5,0.4-1,0.9-1.5,1.4
			c-0.4-5.5-0.8-11-1.1-16.5c0.5-0.3,1-0.6,1.4-0.9c0.8-0.6,1.4-1.2,2-1.9c0.1-0.1,0.1-0.1,0.2-0.2c0-0.9,0-1.9,0-2.8
			c-0.8,1-1.6,2.1-2.4,2.9c-0.4,0.4-0.9,0.8-1.3,1.2c-0.2-4-0.3-7.9-0.4-11.9c1.5-1,2.9-2.2,4.2-3.6c0-1.1,0.1-2.2,0.1-3.4
			c-0.7,1-1.3,2.1-2.2,3c-0.7,0.7-1.4,1.3-2.1,1.9c-0.1-6,0-11.9,0.3-17.9c1.8-1.6,3.4-3.4,4.9-5.2c0.1-0.9,0.1-1.8,0.2-2.6
			c-1,1.1-2.1,2.1-2.8,2.9c-0.7,0.9-1.5,1.7-2.2,2.5c0.1-2.2,0.3-4.4,0.5-6.6c0.4-4,0.8-8,1.2-11.9c1.4-1.7,3.2-3.2,4.8-4.8
			c0.1-1.2,0.2-2.3,0.3-3.4c-1.2,1.3-2.3,2.7-3.4,3.9c-0.4,0.4-0.9,0.9-1.5,1.5c0.1-0.5,0.1-1.1,0.2-1.6c0.2-2.5,0.7-5.2,1.1-7.9
			c0.6-0.6,1-1.2,1.4-1.6c0.8-0.9,1.9-1.5,3-2.1c0.1-0.8,0.2-1.6,0.3-2.4c-1.3,0.6-2.4,1.4-3.4,2.3c-0.3,0.3-0.6,0.6-0.9,0.9
			c0.2-2,0.3-3.9,0.1-5.8c0-0.2,0-0.3-0.1-0.5c0.8-0.2,1.5-0.5,2.3-0.7c0.8-0.1,1.6-0.2,2.5-0.1c0.5-4.2,0.9-7.6,1.3-9.9
			C1040.9,1034.7,1039.7,1034.3,1038.3,1034.2z"/>
		<path opacity="0.3" fill="#091426" enable-background="new    " d="M1066.6,1096.5c-0.1-0.9-0.1-1.7-0.2-2.6
			c-0.8,0.9-1.7,1.8-2.4,2.6c-0.9,1.1-1.8,2.3-2.5,3.5c-0.1-4.2-0.3-8.4-0.7-12.6c1.6-2,2.9-4.3,4-6.7c0.1-0.1,0.1-0.3,0.2-0.5
			c-0.2-1.3-0.3-2.6-0.5-3.9c-0.5,1.3-1,2.6-1.5,3.8c-0.8,1.6-1.6,3.2-2.5,4.8c-0.3-3.3-0.7-6.5-1.1-9.7c-0.3-2-0.5-4-0.8-6.1
			c1.4-1.8,2.8-3.6,4-5.6c-0.2-0.9-0.3-1.9-0.5-2.8c-0.9,1.9-2.7,4.5-3,5c-0.3,0.4-0.5,0.9-0.8,1.3c-0.4-3.3-0.9-6.6-1.5-9.9
			c1.2-1.8,2.4-3.5,3.7-5.3c-0.1-0.8-0.3-1.6-0.5-2.4c-1.3,1.7-2.5,3.5-3.6,5.4c-0.1-0.7-0.2-1.4-0.4-2.1c-0.4-2.1-0.8-4.2-1.3-6.4
			c1.3-0.9,2.8-2,4-3.3c-0.7-3.5-1.5-7.2-2.4-11.1c-0.1,0-0.2,0-0.4,0.1c-2,0.7-3.6,2.1-4.9,3.7c6.6,29.7,8.5,47.3,9.6,61.9
			c0.3,3.6,0.5,7.4,0.6,11.3c0.1-2.1,0.2-4.1,0.2-6.2C1063.2,1100.6,1064.9,1098.5,1066.6,1096.5z"/>
		<path opacity="0.3" fill="#091426" enable-background="new    " d="M1067.3,1117.1c0.1-0.1,0.1-0.2,0.2-0.3c0-1.1-0.1-2.2-0.1-3.4
			c-0.6,1-1.2,2-1.9,2.9c-1.3,1.7-2.6,3.3-3.9,5c0,0.7,0,1.4,0,2.1C1063.7,1121.4,1065.6,1119.3,1067.3,1117.1z"/>
	</g>
	<g>
		<path fill="#888888" d="M1070.5,993.2c-1.5-4-3.5-7.6-6-10.6c-5.1-6.3-12.2-10.3-20.4-10.1c-4.3,0.1-8.1,1-11.4,2.5
			c-1.1,0.5-2.1,1.1-3.1,1.7c-9.5,6.2-14,18.6-14,31.5c0,19.7,10.9,30.2,30.7,29.8c13.8-0.2,22.1-6.5,25.3-17.6
			c0.2-0.7,0.4-1.3,0.5-2c0.8-3.4,1.1-7.3,1-11.5C1073,1002.1,1072,997.4,1070.5,993.2z"/>
		<path opacity="0.3" fill="#091426" enable-background="new    " d="M1015.6,1008.2c0,19.7,10.9,30.2,30.7,29.8
			c14.7-0.3,23.1-7.3,25.8-19.7c-1.8,2.9-4.7,6.8-8.7,9.8c-7.5,5.8-9,6.4-17.2,7s-16-2.8-21-9.2c-5.1-6.4-8.9-18.1-6.9-27.1
			c1.6-7.6,4.9-16,11.2-22.2C1020.1,982.9,1015.6,995.3,1015.6,1008.2z"/>
		<path opacity="0.3" fill="#091426" enable-background="new    " d="M1061.1,1003.9c0.3,12-4.9,22.9-16.4,22.1
			c-9.7-0.7-18-6.7-18-18.9c0-11.3,4.6-24.3,16.6-24.3C1056.6,982.7,1060.8,992.6,1061.1,1003.9z"/>
		<g>
			<g>
				<path fill="#34AF93" d="M1052,987.1c-2.4-1.8-5.2-2.9-8.3-2.9c-1.8,0-3.5,0.4-5.1,1.1c-6.2,2.7-10.7,10-10.7,18.6
					c0,10.9,7.1,19.7,15.8,19.7s15.8-8.8,15.8-19.7C1059.5,996.8,1056.5,990.6,1052,987.1z"/>
				<path opacity="0.3" fill="#091426" enable-background="new    " d="M1052,987.1c3,4.2,4.4,10.4,5,15.5
					c0.9,7.6-2.2,12.6-4.7,14.6s-10.5,2.1-14.9-1.9s-6.2-9.8-5.6-14.6c0.5-4.2,2.5-8.6,6.7-15.5c-6.2,2.7-10.7,10-10.7,18.6
					c0,10.9,7.1,19.7,15.8,19.7s15.8-8.8,15.8-19.7C1059.5,996.8,1056.5,990.6,1052,987.1z"/>
				
					<ellipse transform="matrix(0.9077 -0.4195 0.4195 0.9077 -320.185 531.7396)" fill="#9FD9CC" cx="1048.9" cy="993.9" rx="3.1" ry="4.2"/>
			</g>
			<g>
				<path opacity="0.3" fill="#091426" enable-background="new    " d="M1029.1,988c0-1.4-1-2.8-2.3-2.8c-1.4,0-2.8,1.5-2.8,2.9
					s0.8,2.7,2.2,2.7C1027.5,990.7,1029.1,989.3,1029.1,988z"/>
				<g>
					<path fill="#888888" d="M1028.5,987.2c-0.3-0.2-0.6-0.3-0.9-0.5c-0.5-0.3-1.3-1.2-1.9-1c-0.2,0.1-0.3-0.1-0.2-0.3
						c-0.5,0.5-0.8,1.1-0.8,1.8c0,1.4,1.1,2.5,2.5,2.5c1,0,1.9-0.6,2.3-1.5l0,0C1029,987.7,1028.9,987.5,1028.5,987.2z"/>
					<path fill="#EEEEEE" d="M1027,984.8c-0.7,0-1.2,0.3-1.7,0.7c-0.1,0.2,0,0.3,0.2,0.3c0.7-0.2,1.5,0.7,1.9,1
						c0.3,0.2,0.6,0.3,0.9,0.5c0.5,0.2,0.6,0.5,0.8,0.9l0,0c0.1-0.3,0.2-0.6,0.2-0.9C1029.5,985.9,1028.4,984.8,1027,984.8z"/>
				</g>
			</g>
			<g>
				<path opacity="0.3" fill="#091426" enable-background="new    " d="M1024.1,1002.2c0-1.4-1-2.8-2.3-2.8c-1.4,0-2.8,1.5-2.8,2.9
					s0.8,2.7,2.2,2.7C1022.6,1005,1024.1,1003.6,1024.1,1002.2z"/>
				<g>
					<path fill="#888888" d="M1023.5,1001.5c-0.3-0.2-0.6-0.3-0.9-0.5c-0.5-0.3-1.3-1.2-1.9-1c-0.2,0.1-0.3-0.1-0.2-0.3
						c-0.5,0.5-0.8,1.1-0.8,1.8c0,1.4,1.1,2.5,2.5,2.5c1,0,1.9-0.6,2.3-1.5l0,0C1024.1,1002,1024,1001.7,1023.5,1001.5z"/>
					<path fill="#EEEEEE" d="M1022.1,999c-0.7,0-1.2,0.3-1.7,0.7c-0.1,0.2,0,0.3,0.2,0.3c0.7-0.2,1.5,0.7,1.9,1
						c0.3,0.2,0.6,0.3,0.9,0.5c0.5,0.2,0.6,0.5,0.8,0.9l0,0c0.1-0.3,0.2-0.6,0.2-0.9C1024.6,1000.2,1023.4,999,1022.1,999z"/>
				</g>
			</g>
			<g>
				<path opacity="0.3" fill="#091426" enable-background="new    " d="M1026.9,1017.1c0-1.4-1-2.8-2.3-2.8c-1.4,0-2.8,1.5-2.8,2.9
					s0.8,2.7,2.2,2.7S1026.9,1018.5,1026.9,1017.1z"/>
				<g>
					<path fill="#888888" d="M1026.3,1016.4c-0.3-0.2-0.6-0.3-0.9-0.5c-0.5-0.3-1.3-1.2-1.9-1c-0.2,0.1-0.3-0.1-0.2-0.3
						c-0.5,0.5-0.8,1.1-0.8,1.8c0,1.4,1.1,2.5,2.5,2.5c1,0,1.9-0.6,2.3-1.5l0,0C1026.8,1016.8,1026.7,1016.6,1026.3,1016.4z"/>
					<path fill="#EEEEEE" d="M1024.8,1013.9c-0.7,0-1.2,0.3-1.7,0.7c-0.1,0.2,0,0.3,0.2,0.3c0.7-0.2,1.5,0.7,1.9,1
						c0.3,0.2,0.6,0.3,0.9,0.5c0.5,0.2,0.6,0.5,0.8,0.9l0,0c0.1-0.3,0.2-0.6,0.2-0.9C1027.3,1015,1026.2,1013.9,1024.8,1013.9z"/>
				</g>
			</g>
			<g>
				<path opacity="0.3" fill="#091426" enable-background="new    " d="M1036.1,1027.8c0-1.4-1-2.8-2.3-2.8c-1.4,0-2.8,1.5-2.8,2.9
					s0.8,2.7,2.2,2.7C1034.5,1030.5,1036.1,1029.1,1036.1,1027.8z"/>
				<g>
					<path fill="#888888" d="M1035.4,1027c-0.3-0.2-0.6-0.3-0.9-0.5c-0.5-0.3-1.3-1.2-1.9-1c-0.2,0.1-0.3-0.1-0.2-0.3
						c-0.5,0.5-0.8,1.1-0.8,1.8c0,1.4,1.1,2.5,2.5,2.5c1,0,1.9-0.6,2.3-1.5l0,0C1036,1027.5,1035.9,1027.3,1035.4,1027z"/>
					<path fill="#EEEEEE" d="M1034,1024.6c-0.7,0-1.2,0.3-1.7,0.7c-0.1,0.2,0,0.3,0.2,0.3c0.7-0.2,1.5,0.7,1.9,1
						c0.3,0.2,0.6,0.3,0.9,0.5c0.5,0.2,0.6,0.5,0.8,0.9l0,0c0.1-0.3,0.2-0.6,0.2-0.9C1036.5,1025.7,1035.4,1024.6,1034,1024.6z"/>
				</g>
			</g>
			<g>
				<path opacity="0.3" fill="#091426" enable-background="new    " d="M1048.8,1030.7c0-1.4-1-2.8-2.3-2.8c-1.4,0-2.8,1.5-2.8,2.9
					s0.8,2.7,2.2,2.7S1048.8,1032.1,1048.8,1030.7z"/>
				<g>
					<path fill="#888888" d="M1048.2,1030c-0.3-0.2-0.6-0.3-0.9-0.5c-0.5-0.3-1.3-1.2-1.9-1c-0.2,0.1-0.3-0.1-0.2-0.3
						c-0.5,0.5-0.8,1.1-0.8,1.8c0,1.4,1.1,2.5,2.5,2.5c1,0,1.9-0.6,2.3-1.5l0,0C1048.8,1030.5,1048.7,1030.2,1048.2,1030z"/>
					<path fill="#EEEEEE" d="M1046.8,1027.6c-0.7,0-1.2,0.3-1.7,0.7c-0.1,0.2,0,0.3,0.2,0.3c0.7-0.2,1.5,0.7,1.9,1
						c0.3,0.2,0.6,0.3,0.9,0.5c0.5,0.2,0.6,0.5,0.8,0.9l0,0c0.1-0.3,0.2-0.6,0.2-0.9C1049.2,1028.7,1048.1,1027.6,1046.8,1027.6z"/>
				</g>
			</g>
			<g>
				<path opacity="0.3" fill="#091426" enable-background="new    " d="M1063.2,1023.8c0-1.4-1-2.8-2.3-2.8s-2.8,1.5-2.8,2.9
					s0.8,2.7,2.2,2.7C1061.7,1026.6,1063.2,1025.2,1063.2,1023.8z"/>
				<g>
					<path fill="#888888" d="M1062.6,1023.1c-0.3-0.2-0.6-0.3-0.9-0.5c-0.5-0.3-1.3-1.2-1.9-1c-0.2,0.1-0.3-0.1-0.2-0.3
						c-0.5,0.5-0.8,1.1-0.8,1.8c0,1.4,1.1,2.5,2.5,2.5c1,0,1.9-0.6,2.3-1.5l0,0C1063.2,1023.6,1063.1,1023.3,1062.6,1023.1z"/>
					<path fill="#EEEEEE" d="M1061.2,1020.7c-0.7,0-1.2,0.3-1.7,0.7c-0.1,0.2,0,0.3,0.2,0.3c0.7-0.2,1.5,0.7,1.9,1
						c0.3,0.2,0.6,0.3,0.9,0.5c0.5,0.2,0.6,0.5,0.8,0.9l0,0c0.1-0.3,0.2-0.6,0.2-0.9C1063.6,1021.8,1062.5,1020.7,1061.2,1020.7z"/>
				</g>
			</g>
			<g>
				<path opacity="0.3" fill="#091426" enable-background="new    " d="M1068.6,1012.2c0-1.4-1-2.8-2.3-2.8c-1.4,0-2.8,1.5-2.8,2.9
					s0.8,2.7,2.2,2.7C1067,1015,1068.6,1013.6,1068.6,1012.2z"/>
				<g>
					<path fill="#888888" d="M1067.9,1011.5c-0.3-0.2-0.6-0.3-0.9-0.5c-0.5-0.3-1.3-1.2-1.9-1c-0.2,0.1-0.3-0.1-0.2-0.3
						c-0.5,0.5-0.8,1.1-0.8,1.8c0,1.4,1.1,2.5,2.5,2.5c1,0,1.9-0.6,2.3-1.5l0,0C1068.5,1012,1068.4,1011.7,1067.9,1011.5z"/>
					<path fill="#EEEEEE" d="M1066.5,1009c-0.7,0-1.2,0.3-1.7,0.7c-0.1,0.2,0,0.3,0.2,0.3c0.7-0.2,1.5,0.7,1.9,1
						c0.3,0.2,0.6,0.3,0.9,0.5c0.5,0.2,0.6,0.5,0.8,0.9l0,0c0.1-0.3,0.2-0.6,0.2-0.9C1069,1010.1,1067.9,1009,1066.5,1009z"/>
				</g>
			</g>
			<g>
				<path opacity="0.3" fill="#091426" enable-background="new    " d="M1068.8,999.2c0-1.4-1-2.8-2.3-2.8c-1.4,0-2.8,1.5-2.8,2.9
					s0.8,2.7,2.2,2.7C1067.2,1002,1068.8,1000.6,1068.8,999.2z"/>
				<g>
					<path fill="#888888" d="M1068.1,998.5c-0.3-0.2-0.6-0.3-0.9-0.5c-0.5-0.3-1.3-1.2-1.9-1c-0.2,0.1-0.3-0.1-0.2-0.3
						c-0.5,0.5-0.8,1.1-0.8,1.8c0,1.4,1.1,2.5,2.5,2.5c1,0,1.9-0.6,2.3-1.5l0,0C1068.7,999,1068.6,998.8,1068.1,998.5z"/>
					<path fill="#EEEEEE" d="M1066.7,996.1c-0.7,0-1.2,0.3-1.7,0.7c-0.1,0.2,0,0.3,0.2,0.3c0.7-0.2,1.5,0.7,1.9,1
						c0.3,0.2,0.6,0.3,0.9,0.5c0.5,0.2,0.6,0.5,0.8,0.9l0,0c0.1-0.3,0.2-0.6,0.2-0.9C1069.2,997.2,1068.1,996.1,1066.7,996.1z"/>
				</g>
			</g>
			<g>
				<path opacity="0.3" fill="#091426" enable-background="new    " d="M1063.4,986.3c0-1.4-1-2.8-2.3-2.8s-2.8,1.5-2.8,2.9
					s0.8,2.7,2.2,2.7C1061.9,989.1,1063.4,987.7,1063.4,986.3z"/>
				<g>
					<path fill="#888888" d="M1062.8,985.6c-0.3-0.2-0.6-0.3-0.9-0.5c-0.5-0.3-1.3-1.2-1.9-1c-0.2,0.1-0.3-0.1-0.2-0.3
						c-0.5,0.5-0.8,1.1-0.8,1.8c0,1.4,1.1,2.5,2.5,2.5c1,0,1.9-0.6,2.3-1.5l0,0C1063.4,986.1,1063.3,985.8,1062.8,985.6z"/>
					<path fill="#EEEEEE" d="M1061.4,983.1c-0.7,0-1.2,0.3-1.7,0.7c-0.1,0.2,0,0.3,0.2,0.3c0.7-0.2,1.5,0.7,1.9,1
						c0.3,0.2,0.6,0.3,0.9,0.5c0.5,0.2,0.6,0.5,0.8,0.9l0,0c0.1-0.3,0.2-0.6,0.2-0.9C1063.8,984.2,1062.7,983.1,1061.4,983.1z"/>
				</g>
			</g>
			<g>
				<path opacity="0.3" fill="#091426" enable-background="new    " d="M1052.3,978.9c0-1.4-1-2.8-2.3-2.8c-1.4,0-2.8,1.5-2.8,2.9
					s0.8,2.7,2.2,2.7C1050.7,981.7,1052.3,980.3,1052.3,978.9z"/>
				<g>
					<path fill="#888888" d="M1051.6,978.2c-0.3-0.2-0.6-0.3-0.9-0.5c-0.5-0.3-1.3-1.2-1.9-1c-0.2,0.1-0.3-0.1-0.2-0.3
						c-0.5,0.5-0.8,1.1-0.8,1.8c0,1.4,1.1,2.5,2.5,2.5c1,0,1.9-0.6,2.3-1.5l0,0C1052.2,978.7,1052.1,978.4,1051.6,978.2z"/>
					<path fill="#EEEEEE" d="M1050.2,975.7c-0.7,0-1.2,0.3-1.7,0.7c-0.1,0.2,0,0.3,0.2,0.3c0.7-0.2,1.5,0.7,1.9,1
						c0.3,0.2,0.6,0.3,0.9,0.5c0.5,0.2,0.6,0.5,0.8,0.9l0,0c0.1-0.3,0.2-0.6,0.2-0.9C1052.7,976.9,1051.6,975.7,1050.2,975.7z"/>
				</g>
			</g>
			<g>
				<path opacity="0.3" fill="#091426" enable-background="new    " d="M1039.5,979.1c0-1.4-1-2.8-2.3-2.8c-1.4,0-2.8,1.5-2.8,2.9
					s0.8,2.7,2.2,2.7C1038,981.9,1039.5,980.5,1039.5,979.1z"/>
				<g>
					<path fill="#888888" d="M1038.9,978.4c-0.3-0.2-0.6-0.3-0.9-0.5c-0.5-0.3-1.3-1.2-1.9-1c-0.2,0.1-0.3-0.1-0.2-0.3
						c-0.5,0.5-0.8,1.1-0.8,1.8c0,1.4,1.1,2.5,2.5,2.5c1,0,1.9-0.6,2.3-1.5l0,0C1039.4,978.9,1039.3,978.6,1038.9,978.4z"/>
					<path fill="#EEEEEE" d="M1037.4,975.9c-0.7,0-1.2,0.3-1.7,0.7c-0.1,0.2,0,0.3,0.2,0.3c0.7-0.2,1.5,0.7,1.9,1
						c0.3,0.2,0.6,0.3,0.9,0.5c0.5,0.2,0.6,0.5,0.8,0.9l0,0c0.1-0.3,0.2-0.6,0.2-0.9C1039.9,977.1,1038.8,975.9,1037.4,975.9z"/>
				</g>
			</g>
		</g>
		<path fill="#EEEEEE" d="M1033,975.3c2.8-0.3,5.4-1.2,8.2-1.4c3-0.2,6,0,9,0.7c5.3,1.3,10.2,4.3,14.4,7.9
			c-5.1-6.3-12.2-10.3-20.4-10.1c-4.3,0.1-8.1,1-11.4,2.5C1032.6,975.1,1032.8,975.3,1033,975.3z"/>
		<path fill="#EEEEEE" d="M1073.1,1006.9c-0.1-4.8-1-9.5-2.6-13.7c0.5,2.8,0.6,5.7,0.9,8.3c0.3,3.2,0.4,6.4,0.3,9.5
			c0,3-0.6,6.2-0.2,9.2c0,0.1,0,0.1,0.1,0.2c0.2-0.7,0.4-1.3,0.5-2C1072.9,1014.9,1073.2,1011.1,1073.1,1006.9z"/>
	</g>
	<g>
		<path fill="#888888" d="M1042.2,1177.5c-0.1-0.1-0.2-0.1-0.2-0.1s0.2-2.3,0.1-5.3c0-0.5,0-1-0.1-1.5c-0.2-3.7-0.8-17.8-2.6-21
			c-1.8-3.2-10.2-1.2-12,1.2c-0.1,0.2-0.3,0.4-0.4,0.5c-1.5,2-2,2.8,0.1,6c6.2,9.8,8.6,19.6,8.6,19.6c-5,3.2-4.7,9.3-0.5,11.5
			c3.2,1.7,6.6,1.7,8.4-0.7c0.5-0.7,0.9-1.7,1.1-2.8C1045.3,1180.4,1042.8,1178,1042.2,1177.5z"/>
		<path fill="#888888" d="M1070.2,1167.9c-1-1.7-2.4-2.4-2.4-2.4s0.1-1.6,0.3-4.1c0.5-6.5,1.4-18.8,1.5-22.1
			c0.2-4.6-4.1-6.9-9.6-5.7c-1.6,0.4-2.7,0.9-3.5,1.7c-2,1.9-1.7,5.4,0.8,11.4c3.5,8.4,3.6,19.6,3.4,19.8
			c-5.6,4.3-3.2,10.7,1.5,12.7c3.9,1.6,7.1,0.6,8.4-3.1c0.3-0.8,0.5-1.7,0.6-2.7C1071.5,1170.8,1070.9,1169.1,1070.2,1167.9z"/>
	</g>
	<path opacity="0.3" fill="#091426" enable-background="new    " d="M1057.4,1146.7c3.5,8.4,3.6,19.6,3.4,19.8
		c-5.6,4.3-3.2,10.7,1.5,12.7c3.9,1.6,7.1,0.6,8.4-3.1c-3.1,0.7-6.5,1.1-8.9-1.7c-1.3-1.4-1.4-3.9-1.2-5.7c0.1-0.7,0.3-1.3,0.4-1.8
		c1.7-0.2,3.4,0,5.4,0.2c1.2,0.1,2.5,0.6,3.8,0.9c-1-1.7-2.4-2.4-2.4-2.4s0.1-1.6,0.3-4.1c-1.4-0.2-2.6-0.2-3.6-0.2
		c-0.3,0-0.6,0-1,0c0-5.9-1.8-11.7-3.5-17.2c-0.8-2.8-1.8-6-3.5-8.7C1054.6,1137.2,1054.9,1140.7,1057.4,1146.7z"/>
	<path opacity="0.3" fill="#091426" enable-background="new    " d="M1037.1,1184.3c-1.5-2.3-1.9-5.1,0.2-6.9
		c1.6,0.3,3.3,0.3,4.9,0.1c-0.1-0.1-0.2-0.1-0.2-0.1s0.2-2.3,0.1-5.3c-1.3-0.1-2.7-0.3-4-0.3c-0.4-0.3-0.7-0.7-1.1-1
		c-0.5-0.6-1-1.2-1.4-1.7c-0.9-4-3.3-8.4-5-11.9c-1-2-2.3-3.9-3.5-5.8c-1.5,2-2,2.8,0.1,6c6.2,9.8,8.6,19.6,8.6,19.6
		c-5,3.2-4.7,9.3-0.5,11.5c3.2,1.7,6.6,1.7,8.4-0.7C1040.8,1187.5,1038.7,1186.8,1037.1,1184.3z"/>
</g>
</svg>
