<?xml version="1.0" encoding="utf-8"?>
<!-- Generator: Adobe Illustrator 22.1.0, SVG Export Plug-In . SVG Version: 6.00 Build 0)  -->
<svg version="1.1" id="_x30_5_x5F_Misc_x5F_TiesOxford"
	 xmlns="http://www.w3.org/2000/svg" xmlns:xlink="http://www.w3.org/1999/xlink" x="0px" y="0px" viewBox="0 0 2000 2000"
	 enable-background="new 0 0 2000 2000" xml:space="preserve">
<g>
	<g>
		<g>
			<path fill="#CE2828" d="M1098,1114.3c-0.1-2-1-6.1-2.5-11.5c-2.4-8.7-6.4-21.2-11.1-35c-0.5-1.5-1-2.9-1.5-4.4
				c-1.6-4.6-3.4-9.1-5.2-13.5c-3.1-7.5-6.4-14.5-9.2-20.2c-1.1-2.3-2.1-4.3-3.1-6.2c-0.9-1.8-1.8-3.4-2.5-4.7
				c-1.3-2.4-2.1-3.8-2.1-3.8c7.7-6.3,11.3-14.1,12.7-21.2c1.4-7.1,0.7-13.6,0-17.4c-0.1-0.2-0.1-0.5-0.2-0.7
				c-0.2-1-0.4-1.8-0.6-2.5c-1.3-4.5-3.4-4.7-16.6-6.8c-0.2,0-0.3,0-0.5-0.1c-3-0.5-6.2-0.6-9.3-0.4c-5.4,0.3-10.9,1.2-15.6,2.4
				c-5.7,1.4-10.4,3.2-12.8,4.3c-0.6,0.3-1.1,0.5-1.4,0.7c-1.8,1.2-3.1,5.3-2.2,11.7c0.4,3.1,1.4,6.7,3,10.7
				c0.1,0.3,0.2,0.5,0.3,0.8c1.9,4.6,4.6,8.4,7.4,11.5c2.1,2.3,4.3,4.1,6.3,5.6c2.9,2.2,5.5,3.6,7,4.4c0.8,0.4,1.3,0.6,1.3,0.6
				s-0.2,1-0.5,2.7c-0.6,3.3-1.8,9.2-3.2,16.4c-0.4,1.9-0.8,4-1.2,6.1c-1.1,5.4-2.3,11.3-3.4,17.1c-1.3,6.2-2.6,12.4-3.7,17.8
				c-0.9,4-1.7,7.6-2.4,10.5c-0.7,3.1-1.3,5.9-1.8,8.4c-2.5,14-0.6,20.2,1.8,24.8c1.6,3,6,10,12.6,20.6c3.7,6,8.2,13.1,13.2,21.2
				c2,3.3,4.1,6.7,6.3,10.3c9.5,15.6,8.4,11.4,12.9,2c0.3-0.6,0.6-1.3,1-2c1.1-2,2.3-4.4,3.5-6.8c0.3,0,0.6,0.1,0.9,0.1
				c-0.3-0.1-0.5-0.3-0.8-0.4c0-0.1,0.1-0.2,0.1-0.3c2.8-5.5,5.8-11.7,8.7-17.6c1.6-3.3,3.3-6.5,4.8-9.5c1-1.9,2-3.8,2.9-5.5
				c2.1-3.9,3.6-6.8,4.7-9.2c0.8-1.8,1.3-3.3,1.7-4.7C1098,1118.4,1098.1,1116.5,1098,1114.3z"/>
			<path fill="#CE2828" d="M1066.9,1015.9C1066.9,1015.9,1066.9,1015.9,1066.9,1015.9C1066.9,1016.1,1067,1016.1,1066.9,1015.9z"/>
		</g>
		<path fill="#FC9779" d="M1050.8,1106c-3.7-4-6.8-8.6-10.3-12.8c-3.3-4-7-7.7-10.4-11.5c-0.9-1-1.8-2-2.6-3
			c-0.9,4-1.7,7.6-2.4,10.5c-0.7,3.1-1.3,5.9-1.8,8.4c5.8,5.8,11.9,11.1,18.1,16.6c8.4,7.5,16.4,15.3,25.6,22c4.9,3.6,9.8,7,14.3,11
			c0.7,0.7,1.5,1.4,2.3,2.2c1.6-3.3,3.3-6.5,4.8-9.5c-4.5-3.1-8.8-6.6-12.7-10.5C1067.4,1121.5,1058.5,1114.3,1050.8,1106z"/>
		<path fill="#FC9779" d="M1074.4,1167.5c-0.9-0.1-1.9-0.2-2.8-0.4c0.8-0.1,1.6-0.2,2.3-0.2c-9.7-4.5-18.9-10.8-27.4-17.1
			c-3.1-2.2-6-4.6-9-7c3.7,6,8.2,13.1,13.2,21.2c4,2.7,8.1,5.2,12.2,7.6c2.5,1.4,4.9,2.6,6.9,4.6c0,0,0.1,0.1,0.1,0.1
			c0.3-0.6,0.6-1.3,1-2C1072,1172.3,1073.2,1170,1074.4,1167.5z"/>
		<path fill="#FC9779" d="M1098,1114.3c-0.1-2-1-6.1-2.5-11.5c-3.9-2.4-7.6-5.2-11.4-7.7c-8.4-5.4-15.1-12.6-22-19.8
			c-7.1-7.4-13.5-15.4-20.5-22.9c-2.3-2.5-4.6-5.6-7-8.7c-1.1,5.4-2.3,11.3-3.4,17.1c0.4,0.3,0.7,0.7,1,1
			c7.3,7.6,15.5,14.4,22.9,21.9c6.9,7,13.7,13.8,21.3,20c3.9,3.1,8.2,5.8,12,9c3,2.5,5.9,5.4,9.1,7.7
			C1098,1118.4,1098.1,1116.5,1098,1114.3z"/>
		<path fill="#FC9779" d="M1049,1038.8l0.1,4.3c0,0,9.1,9.4,19.2,16.6c6,4.3,12.1,6.7,16,8c-0.5-1.5-1-2.9-1.5-4.4
			c-1.6-4.6-3.4-9.1-5.2-13.5l-27.9-21.2v-7.2c0,0-5.2-0.2-10.7-0.1c-0.6,3.3-1.8,9.2-3.2,16.4c1.9,0.4,4.7,1,7.2,1.2
			C1047.2,1039.2,1049,1038.8,1049,1038.8z"/>
		<path fill="#FC9779" d="M1057.2,1018.5c0,0-2.2,3,11.2,11.1c-2.2-4.6-4.2-8.3-5.5-10.9C1059.7,1018.8,1057.2,1018.5,1057.2,1018.5
			z"/>
		<path fill="#FC9779" d="M1073.3,975.5c-0.2-1-0.4-1.8-0.6-2.5c-1.4,2.4-3.8,5.9-8,10.9c-10.9,13.2-28.5,26.1-33.5,29.6
			c2.9,2.2,5.5,3.6,7,4.4c11.4-3.5,18-8.7,35.3-24.3C1075,986,1074.1,979.1,1073.3,975.5z"/>
		<path fill="#FC9779" d="M1056.1,966.2c-0.2,0-0.3,0-0.5-0.1c-3-0.5-6.2-0.6-9.3-0.4c-0.8,1.9-2.7,4.9-6.9,9.6
			c-7.6,8.3-17.8,16.8-22,20.3c0.1,0.3,0.2,0.5,0.3,0.8c1.9,4.6,4.6,8.4,7.4,11.5C1040.8,992.7,1053.9,975,1056.1,966.2z"/>
		<path fill="#FC9779" d="M1030.6,968.2c-7.2,1.8-12.8,4.1-14.1,5c-1.8,1.2-3.1,5.3-2.2,11.7
			C1019.6,979.6,1026.3,972.7,1030.6,968.2z"/>
	</g>
	<path opacity="0.3" fill="#091426" d="M1014.3,984.9c0.4,3.1,1.4,6.7,3,10.7c0.1,0.3,0.2,0.5,0.3,0.8c1.9,4.6,4.6,8.4,7.4,11.5
		c2.1,2.3,4.3,4.1,6.3,5.6c2.9,2.2,5.5,3.6,7,4.4c0.8,0.4,1.3,0.6,1.3,0.6s-0.2,1-0.5,2.7c-0.6,3.3-1.8,9.2-3.2,16.4
		c-0.4,1.9-0.8,4-1.2,6.1c-1.1,5.4-2.3,11.3-3.4,17.1c-1.3,6.2-2.6,12.4-3.7,17.8c-0.9,4-1.7,7.6-2.4,10.5c-0.7,3.1-1.3,5.9-1.8,8.4
		c-2.5,14-0.6,20.2,1.8,24.8c1.6,3,6,10,12.6,20.6c3.7,6,8.2,13.1,13.2,21.2c2,3.3,4.1,6.7,6.3,10.3c9.5,15.6,8.4,11.4,12.9,2
		c0.3-0.6,0.6-1.3,1-2c1.1-2,2.3-4.4,3.5-6.8c0.3,0,0.6,0.1,0.9,0.1c-0.3-0.1-0.5-0.3-0.8-0.4c0-0.1,0.1-0.2,0.1-0.3
		c2.8-5.5,5.8-11.7,8.7-17.6c1.6-3.3,3.3-6.5,4.8-9.5c1-1.9,2-3.8,2.9-5.5c2.1-3.9,3.6-6.8,4.7-9.2c-0.4,0.5-0.7,0.9-1.1,1.4
		c-3.9,4.7-7.5,9.7-10.5,15c-3.4,6-6.1,12.4-9.2,18.6c-1.4,2.6-2.8,5.2-4.3,7.8c-1.2,2.1-4.1,8.5-6.6,9.7
		c-3.6-4.8-6.5-10.9-9.2-15.6c-4.4-7.3-8.7-14.6-13.6-21.6c-5-7.1-9.5-13.8-11.4-22.4c-0.6-2.8-0.8-5.8-1-8.7
		c0-5.2,0.5-10.3,1.5-15.6c1.8-8.8,3.8-17.6,5.5-26.5c1.7-8.9,3.2-17.8,4.6-26.7c0.6-3.9,1.2-7.8,1.6-11.8c0.1-1.3-0.3-5.4,0-8.1
		c2.3-0.7,4.5-1.3,6.9-1.6c-0.4,2.8,0.1,5.8,0.1,8.5c-0.1,4-0.2,8-0.5,12c-0.3,4.8-2.4,13.8,1.2,17.9c5.7,6.4,13.3-10.4,7.1-15.6
		c-0.5-0.4-1.1,0-1,0.6c0.5,2.5,0.9,4.8,0.3,7.3c-0.2,1.5-0.8,2.8-1.9,4c-2.3-0.2-3.3-1.3-3-3.2c-1.1-3.6,0-9,0.1-12.8
		c0.1-3.7,0.3-7.4,0.6-11.1c0.2-2.5,0.6-5,0-7.2c0.3-0.1,0.5-0.2,0.7-0.3c4.5,0.5,8.7,2.4,12.8,4.2c-0.9-1.8-1.8-3.4-2.5-4.7
		c-1.3-2.4-2.1-3.8-2.1-3.8c7.7-6.3,11.3-14.1,12.7-21.2c1.4-7.1,0.7-13.6,0-17.4c-0.3,1.6-0.1,3.4-0.3,5.1
		c-0.6,3.9-1.4,7.7-2.4,11.5c-1,3.9-2.1,8.3-4.2,11.7c0,0.1-0.1,0.1-0.1,0.2c-1,1-2,2-3.2,2.7c-0.9,0.4-1.7,0.7-2.7,0.9
		c0.2-0.6,0.3-1.3,0.5-1.9c0.1-0.5-0.1-0.9-0.5-1.2c-0.1-0.1-0.1-0.1-0.2-0.1c-0.1,0-0.2,0-0.3,0c-0.3,0-0.5,0.1-0.7,0.3
		c0.1-0.9,0.2-1.8,0.3-2.7c0.2-1.7,0.9-3.3,0.7-5c0-0.5-0.5-0.8-0.9-0.5c-4.7,2.6-2.6,10.7-6.7,13.9c-0.6-0.3-1.3-0.5-2-0.5
		c-1.3-0.1-2.6,0.4-3.4,1.2c-0.9-0.7-1.8-1.4-2.5-2.3c-0.7-0.9-0.9-2-2-2.4c-0.2-0.1-0.4,0.1-0.5,0.2c-0.8,1.1,0,3.1,0.8,4.8
		c-1-0.6-2-1.4-2.9-2.3c-1.4-1.4-2.7-3-3.9-4.6c-1-1.3-2-3.1-3.7-3.5c-0.1,0-0.2,0.1-0.2,0.2c-0.2,1.5,0.7,2.6,1.5,3.9
		c1,1.7,2,3.5,3.2,5.1c0.3,0.5,0.7,1,1,1.4c-1.9-0.8-3.7-1.9-5.3-3.3c-4.1-3.4-7.2-8-9.5-12.7c-3.7-7.7-4.6-15.7-5.5-24
		c-0.6,0.3-1.1,0.5-1.4,0.7C1014.7,974.4,1013.4,978.4,1014.3,984.9z"/>
</g>
</svg>
