<?xml version="1.0" encoding="utf-8"?>
<!-- Generator: Adobe Illustrator 21.0.2, SVG Export Plug-In . SVG Version: 6.00 Build 0)  -->
<svg version="1.1" id="_x30_7_x5F_Misc_x5F_Cape_x5F_Misc."
	 xmlns="http://www.w3.org/2000/svg" xmlns:xlink="http://www.w3.org/1999/xlink" x="0px" y="0px" viewBox="0 0 2000 2000"
	 enable-background="new 0 0 2000 2000" xml:space="preserve">
<g>
	<path fill="#2B4CA9" d="M1076.6,980.3c0,0-5.9-5.9-10-9.2s-12.4-6.4-14-11.1s1.4-10.6,6.7-13.1l3.4-0.9c0,0,9.9,3,13.8,11.2
		S1076.6,980.3,1076.6,980.3z"/>
	<g>
		<path fill="#2B4CA9" d="M990.8,959c0,0-27.5,1.9-49.8,2.8c-22.3,0.8-32.1,0.7-32.1,0.7s-23.8,8.5-55.1,23.3
			c-12.3,5.8-25.8,12.5-39.4,20.1c-48.4,26.8-77.1,40.5-112.6,52.4s-87.6,25.7-142.6,30.1c-55,4.3-117.5,4.1-153.3-2.4
			c-35.8-6.6-58.6-17.6-74.1-19.6s-16.6,2.6-17,11.2c-0.3,7,1.7,13.1,5.4,18.5c-1.3-0.4-2.6,1.5-1.8,2.6c3.7,5.5,9.7,9.2,15.2,12.7
			c6,3.8,12.3,7.2,18.8,10.1c13.4,6.1,27.5,10.7,41.9,14.1c15.9,3.8,32,6.4,48.2,8.8c0.3,0,0.6,0.1,0.9,0.1
			c14.5,2.4,29.7,4.8,39.5,7.4c10.7,2.9,14.9,6.1,4.9,10.2c-25.5,10.3-66.7,10.4-78.1,26.7c-0.6,0.9-1.2,1.9-1.6,2.9
			c-0.2,0.5-0.4,1-0.6,1.6c-3.7,11.8,0.5,27.8,14.5,45.1c10.8,13.4,27.3,27.6,50.5,41.4c2.5,1.5,4.9,2.9,7.3,4.2
			c47.4,27.2,61,25.3,53,32.4c-8.3,7.5-44.2,39.9-49.3,50.7c-1.4,2.9-2.5,6.6-2.5,10.8c0.2,11.3,9.1,26.7,44.8,43.5
			c49,23.1,104.2,35.4,117.3,57.9s11.5,47.8,12.7,53.3s5.8,10,15.7-19c6.1-18.1,14.4-51.8,30.6-80.1c9.7-17,22.3-32.2,39-40.8
			c0,0-30.8-24.7-56.4-54c-12.7-14.5-23-30.7-28.7-47.8c-5.8-17.5-6.8-36-0.3-54.3c12.8-36.2,49.1-63.6,95.3-97.7
			c46-33.9,88.1-56.2,135.4-88.7c8.9-6.1,18-12.6,27.3-19.6c30.9-23.1,50.2-43.9,60.3-51.1C984,972.4,997.3,963.5,990.8,959z"/>
		<path fill="#2B4CA9" d="M835.8,1206.3c-17.7,26.3-20.4,29.9-20.4,29.9s11,5.7,25.5,14.6c3.7,2.3,7.7,4.8,11.7,7.5
			c5.2,3.5,10.6,7.2,15.9,11.1c0,0,23.8-54.1,38.4-77.6c14.6-23.5,32.2-44.2,41.4-49.2c9.4-42.9,17-93.5,17.3-95.7l0,0l0,0l-30.1,34
			C901.8,1118.5,853.6,1180,835.8,1206.3z"/>
	</g>
	<path fill="#213B81" d="M973.8,979.6c10.2-7.2,23.4-16.2,17-20.7c0,0-27.5,1.9-49.8,2.8c-22.3,0.8-32.1,0.7-32.1,0.7
		s-23.8,8.5-55.1,23.3c3.8-1.1,7.7-2,11.7-2.5c5-0.7,10.1-0.7,15.1-1.3c4.9-0.6,9.6-2.1,14.3-3.6c10.4-3.3,21.1-5.7,32-6.8
		c5.2-0.5,10.7-1,15.9-0.7c2.4,0.1,5.4,0.6,7.1,2.5c0.9,1,1.4,2.1,1.7,3.4c-8.2-0.2-16.8,0.7-24.6,1.4c-4.5,0.4-8.9,1.1-13.4,1.8
		c-5.1,0.8-11.2,0.7-15.7,3.1c-0.4,0.2-0.3,0.9,0.1,0.9c4.3,0.8,8.9-0.7,13.3-1.4c5.5-0.8,11.2-1.8,16.8-1.8c1,0,1.9,0,2.9,0.1
		c-0.2,0-0.5,0.1-0.7,0.1c-5.8,1.1-11.5,2.5-17.1,4c-5.2,1.4-11.5,2.5-15.9,5.7c-0.5,0.4-0.4,1.3,0.4,1.3c4.9-0.1,9.9-2.3,14.6-3.6
		c5.7-1.5,11.4-2.8,17.2-3.8c7.7-1.4,15.6-2.3,23.4-2.9c0.1,0.2,0.2,0.5,0.3,0.7c-4.7,4.5-17.2,4.6-22.2,5.8
		c-7.4,1.9-14.5,5.6-20.9,9.7c-13.8,8.8-24.8,22.4-39.7,29.3c-0.7,0.3-0.2,1.5,0.5,1.2c8.2-2.7,15-8.6,21.8-13.8
		c7.4-5.6,14.8-11.3,23-15.8c8.5-4.6,17.2-6,26.5-7.5c0.9,0.5,1.2,1.3,0.2,2.9c-0.8,1.4-2.7,2.8-4,3.7c-2.8,1.9-6,3.4-8.9,5.1
		c-6.6,3.8-12.6,8.5-18,13.7c-10.2,9.8-18.1,21.2-25,33.3c8.9-6.1,18-12.6,27.3-19.6C944.4,1007.6,963.7,986.8,973.8,979.6z"/>
	<path fill="#213B81" d="M907,1191.8c14.6-23.5,32.2-44.2,41.4-49.2c9.4-42.9,17-93.5,17.3-95.7l0,0l0,0l-30.1,34
		c-33.7,37.7-82,99.1-99.8,125.5c-17.7,26.3-20.4,29.9-20.4,29.9s11,5.7,25.5,14.6c1-2.7,2-5.5,2.9-8.3c1.8-5.5,2.8-11.4,4.3-17
		c3.1-11.6,6.8-23,12.2-33.7c5.6-11.1,13.1-21.3,20.5-31.4c7.5-10.2,15.1-20.6,24-29.6c0.6-0.6,1-1.3,1.3-2
		c5.3-6.3,15.7-19.4,22.2-11.2c1.1,1.4,1.8,3.1,2.3,4.9c-0.5,6.2-0.5,11.9-3.8,17.9c-3.8,7-9.1,13.2-13.8,19.6
		c-9.7,13.1-18.9,26.4-27.7,40.1s-17.1,27.6-25,41.9c-2.9,5.2-6.1,10.5-7.7,16.2c5.2,3.5,10.6,7.2,15.9,11.1
		C868.6,1269.4,892.4,1215.3,907,1191.8z M941.5,1098.2c0,0.2-0.1,0.4-0.1,0.7c-0.1-0.1-0.2-0.2-0.3-0.3
		C941.2,1098.5,941.3,1098.4,941.5,1098.2z"/>
	<path fill="#213B81" d="M480.5,1188.1c27.4,2.9,55,1.7,82.1-2.4c55-8.3,107.7-28.7,156.3-55.4c24.8-13.6,50.7-28.7,71.3-48.5
		c6.7-4.6,13.5-9.2,20.3-13.7c1.5-1,0.1-3.4-1.4-2.5c-4.9,3.1-9.9,6.1-14.9,9c-0.3,0-0.5,0-0.8,0.2c-4.3,2.5-8.6,5.1-12.8,7.8
		c-1.3,0.8-2.6,1.5-3.9,2.3c-10.5,6.1-20.8,12.7-31.2,18.9c-20.3,12.1-41.5,22.6-63.5,31.2c-21.3,8.4-43.2,15.3-65.1,21.7
		c-10.9,3.2-21.8,6.2-32.7,9.2c-11.8,3.3-23.6,6.7-35.9,8c-12.9,1.4-25.8,1.7-38.5,4.3c-6.2,1.3-12.4,2.8-18.8,3.2
		c-2.1,0.1-4.1,0.1-6-0.1c4.6-1.6,9.5-2.5,13.6-5.4c5.4-3.7,7.5-9.9,5.1-16.1c-5-12.7-20.3-16.7-32.3-18.6
		c-34.5-5.5-69.7-8.4-102.9-20.2c-8.6-3.1-17-6.7-25.1-11.1c-7.8-4.2-14.8-10.4-23-13.8c-0.1,0-0.1,0-0.2-0.1
		c17,25.1,69.5,34.4,89.5,41.4c7.5,2.6,20.3,4.9,33.6,7.1c7.9,1.2,15.9,2.4,23.8,3.7c5.2,0.9,10.7,1.8,15.6,3.7
		c10.7,2.9,14.9,6.1,4.9,10.2c-25.5,10.3-66.7,10.4-78.1,26.7C431.5,1177.7,456.7,1185.6,480.5,1188.1z M479.5,1170.8
		c0.1,0,0.2,0,0.2,0c-0.1,0.1-0.2,0.1-0.2,0.2C479.5,1170.9,479.5,1170.9,479.5,1170.8z"/>
	<path fill="#213B81" d="M472.4,1224c11.3-3.7,22.3-8.2,33.5-12c10.6-3.6,21.8-7.2,31.4-13c1-0.2,1.9-0.4,2.9-0.6
		c6.8-1.4,13.3-3.7,20-5.2c0.9-0.2,0.5-1.6-0.4-1.4c-8,1.6-16.8,1.6-25,2.4c-7.5,0.7-15.1,0.7-22.6,0.8c-15.7,0.2-31.4-1.1-46.9-3.4
		c-14.5-2.1-28.1-6.4-42.9-3.7c-4.2,0.7-9.7,1.8-14.5,3.7c-0.2,0.5-0.4,1-0.6,1.6c-3.7,11.8,0.5,27.8,14.5,45.1
		c5.3-1.2,10.5-2.6,15.5-3.8C449.2,1231.5,460.8,1227.8,472.4,1224z M473.2,1208.9h-0.1l0,0H473.2z"/>
	<path fill="#213B81" d="M559.3,1307.1c12.3-13.5,25.1-26.1,39.1-38c7.1-6,14.2-12,21.8-17.3c6.7-4.7,14.3-9,20.5-14.4
		c0.4-0.3,0-1-0.5-0.8c-7.7,2.7-15,7.8-21.7,12.3c-7.3,4.9-14.8,9.8-21.8,15.1c-14.2,10.6-27.1,23-39.6,35.4
		c-6.3,6.3-12.7,12.4-19.1,18.6c-0.1-1.5-0.5-2.9-1.3-4.3c-3.3-5.7-10.9-8-16.5-10.7c-8-3.8-16.1-7.6-24.1-11.4
		c-5.2-2.5-10.8-5.5-16.5-7.7c47.4,27.2,61,25.3,53,32.4c-8.3,7.5-44.2,39.9-49.3,50.7c-1.4,2.9-2.5,6.6-2.5,10.8
		C509.1,1356.6,535.5,1333.2,559.3,1307.1z"/>
	<path fill="#213B81" d="M651.4,1312.5c-1.5,10.6-1.8,21.1-0.1,31.7c1.5,9.6,4.9,19.2,10.4,27.2c3,4.3,8.2,11.2,14,14.6
		c-1.2,1.5-2.2,3.2-3.2,4.8c-2.7,4.1-5.3,8.4-7.9,12.6c-2.5,4-4.6,8.2-6.6,12.4c-1.8,3.9-3.5,11.5-7.2,14c-0.4,0.3-0.1,0.9,0.4,0.7
		c3.2-1.4,4.2-5.3,5.8-8.1c2.6-4.6,5.4-9,8.2-13.4c1.8-2.8,3.5-5.5,5.4-8.2c3.2,1.4,7.3,1.2,10.6,2.4c4.8,1.6,9.1,4.8,12.3,8.7
		c3.2,3.8,5.5,8.3,6.9,13c0.9,2.9,1,5.9,1.4,8.9c9.7-17,22.3-32.2,39-40.8c0,0-30.8-24.7-56.4-54c-12.7-14.5-23-30.7-28.7-47.8
		c-0.4,1.7-0.8,3.3-1.2,4.9C653.2,1301.4,652.1,1306.9,651.4,1312.5z"/>
</g>
</svg>
