<?xml version="1.0" encoding="utf-8"?>
<!-- Generator: Adobe Illustrator 21.0.2, SVG Export Plug-In . SVG Version: 6.00 Build 0)  -->
<svg version="1.1" id="_x30_9_x5F_Misc_x5F_Camera" xmlns="http://www.w3.org/2000/svg" xmlns:xlink="http://www.w3.org/1999/xlink"
	 x="0px" y="0px" viewBox="0 0 2000 2000" enable-background="new 0 0 2000 2000" xml:space="preserve">
<g>
	<g>
		<path fill="#6D440E" d="M1180,1081.9l-15.1,3c0,0-0.1-3.3-7.4-20.4c-7.4-17.1-29.5-40.7-48.6-61c-19.2-20.2-30.2-21.2-30.2-21.2
			l-15.8-14.3c7.4,0.2,17.1,6.5,28.3,13.2c1.1,0.7,2.3,1.5,3.5,2.3c11.2,8.1,27.2,24.9,39.7,36.8c10.1,9.7,23.1,23.5,34.3,40.8
			C1172.7,1067.6,1176.6,1074.5,1180,1081.9z"/>
	</g>
	<path opacity="0.3" fill="#091426" enable-background="new    " d="M1062.8,968l15.8,14.3c0,0,11,1,30.2,21.2s41.3,43.8,48.7,61
		s7.4,20.5,7.4,20.5l15.1-3c-3.4-7.4-7.3-14.3-11.5-20.8c-11.6-3.8-11.6-5.6-16.5-15.4c-5.4-10.7-15.8-14.8-24.2-24.7
		c-8.4-9.9-28.8-31.3-33.6-34.5c-3.1-2-2.1-2.7,0.4-3c-1.2-0.9-2.4-1.7-3.5-2.4C1079.9,974.5,1070.2,968.2,1062.8,968z"/>
	<g>
		<g>
			<path fill="#D8D8D8" d="M1012.4,1086.3l-8.6,3.7c-8.4-13.5-10.9-14.3-8.4-16c0.4-0.3,1.1-0.6,1.9-0.9c3.9-1.6,11.2-3.4,12.7-3.5
				c1.4-0.2,2.3,1.7,2.5,9.3C1012.5,1080.9,1012.5,1083.3,1012.4,1086.3z"/>
			<path opacity="0.3" fill="#091426" enable-background="new    " d="M1003.8,1090l8.6-3.7c0-3,0-5.4,0-7.5c-3.1,1.5-8.9,4.2-9.8,3
				c-1-1.3-2.2-4.3-5.3-8.7c-0.8,0.3-1.5,0.6-1.9,0.9C992.9,1075.7,995.4,1076.5,1003.8,1090z"/>
			<path fill="#888888" d="M1028.4,1091.2l-35.8,14.2c-1.2-8.4-2.4-11.7,1.7-14.4c0.8-0.5,1.8-1,3-1.5c7.7-3.1,26.1-6.6,27.9-6.7
				c1,0,1.9,2.7,2.5,5C1028.2,1089.6,1028.4,1091.2,1028.4,1091.2z"/>
			<path opacity="0.3" fill="#091426" enable-background="new    " d="M992.6,1105.4l35.8-14.2c0,0-0.3-1.6-0.7-3.4
				c-8.4-1.4-23.3,3.4-28.7,4.5c-4.6,0.9-5.5,1.1-4.6-1.3C990.2,1093.7,991.4,1097,992.6,1105.4z"/>
		</g>
		<g>
			<g>
				<path fill="#888888" d="M1164.9,1077.7l-29.5,2.6l-1-1.4c-0.7-7.8,0.4-9.7,2.7-11.5c0.5-0.4,1.3-0.9,2.2-1.5
					c3.5-2.1,9.7-4.7,16.7-3.5c8.9,1.5,8.4,2.8,8.4,4.8c0,0.6,0,1.7,0.1,3C1164.7,1073.5,1164.9,1077.7,1164.9,1077.7z"/>
			</g>
			<path opacity="0.3" fill="#091426" enable-background="new    " d="M1134.5,1079l1,1.4l29.5-2.6c0,0-0.2-4.3-0.3-7.5l-23.1,3.1
				c0,0,0-4.1-2-7.3c-1,0.6-1.7,1.1-2.2,1.5C1134.9,1069.3,1133.8,1071.2,1134.5,1079z"/>
		</g>
		<g>
			<path fill="#D8D8D8" d="M1190.8,1082.8c-0.2-3.7-0.3-7.1-2.5-7.2s-15.5,0.9-29.6,2c-14.2,1-33.7,1.2-33.7,1.2s-0.9-1.8-2.2-4.5
				c-3.2-6.7-9.1-19-11-22.1c-2.7-4.4-3.4-5.6-6.3-5.2c-2.4,0.3-29.8,4.2-40.4,6.3c-2.2,0.4-3.7,0.8-4.1,1c-0.3,0.2-0.7,0.4-1,0.7
				c-2.9,2.1-8.3,7.4-12.3,10.3c-4.5,3.2-4.8,1.9-5.7,5.5c-0.8,3.6-3.7,18.7-3.7,18.7c-0.3,0-0.6,0.1-0.9,0.1
				c-24.6,3.6-35.5,4-37.9,5.7c-0.4,0.3-1,0.8-1.9,1.7c-4.7,4.4-15.6,15.4-20.7,20.4c-6,5.9-7.2,5.8-6.9,9.1
				c0.3,3.3,1.5,8.3,4.9,26.8l86.6,59.6h49.2l21.9-2.5l5.5-23.9l13.2-57.4l40.8-10.4C1192.2,1118.7,1191.1,1086.5,1190.8,1082.8z
				 M999.5,1095.9l-0.6,0.3C999.3,1095.9,999.5,1095.9,999.5,1095.9z"/>
			<path fill="#D8D8D8" d="M1160.5,1190.7l-27.1,22.2h-22.6l21.9-2.5l5.5-23.9C1151.1,1189,1160.5,1190.7,1160.5,1190.7z"/>
			<path opacity="0.3" fill="#091426" enable-background="new    " d="M1138.2,1186.5c-25.3-4.9-64-12.9-70.9-18
				c-10.4-7.6-10.2-39.4-10.2-39.4l18.7-1.8l2.9-5c0,0-17.5,2.6-18.7,0.7s0.2-8,0-20.5s-1.3-20.6-1.3-20.6s-4.2,1.4-5.8,6.7
				s-1.3,23.3-1.4,29.1s0.2,6.3-2.3,6.7c-2.5,0.4-36.4,3.4-43.3,3.4c-6.9,0-7.9-0.9-8.1-3.8c-0.2-2.8-0.4-15-0.3-21.5
				c0-4.2,0.9-5.7,1.5-6.3l-1.3,0.7c-4.7,4.4-15.6,15.4-20.7,20.4c-6,5.9-7.2,5.8-6.9,9.1c0.3,3.3,1.5,8.3,4.9,26.8l86.6,59.6h49.3
				l21.9-2.5L1138.2,1186.5z"/>
			<path opacity="0.3" fill="#091426" enable-background="new    " d="M1049.5,1089.8l10.5-34.7c-2.9,2.1-8.3,7.5-12.3,10.3
				c-4.5,3.2-4.8,1.9-5.7,5.5c-0.8,3.6-3.7,18.7-3.7,18.7c-0.3,0-0.6,0.1-0.8,0.1l-0.2,1.8
				C1044.3,1090.7,1049.5,1089.8,1049.5,1089.8z"/>
			<path fill="#091426" d="M998.9,1096.2l0.6-0.3C999.5,1095.9,999.3,1095.9,998.9,1096.2z"/>
		</g>
		<g>
			<path fill="#888888" d="M1079.4,1071.5v-11.6c0,0,12.6-2.8,17.2-3.1s5.2-1,5.5,1.1s0.6,11.8,0.6,11.8l-22.3,2.7
				C1079.9,1072.4,1079.4,1072,1079.4,1071.5z"/>
			<g>
				<path fill="#091426" d="M1096.7,1061c-1.2-2-4.2-0.6-10.8,1.1c-6.7,1.7-6.2,3-5.6,5.6c0,0,0.4,1.9,1.1,3.1
					c0.7,1.1,3.8,0.2,9.2-0.4s7-1.3,7.4-3.3C1098.4,1065,1098,1063,1096.7,1061z M1085.7,1068.4c-0.5,0.7-0.8,1.2-1.6,0.8
					s-0.7-1.2,0.7-3.2s2.2-1.9,3-1.5C1088.5,1064.9,1087.5,1065.8,1085.7,1068.4z M1090.1,1062.7c0.8,0.2-0.1,1.8-0.9,1.7
					C1088.5,1064.3,1089.1,1062.5,1090.1,1062.7z M1093.4,1066.3c-1.5,2-2.9,2.8-3.6,1.8s-0.1-1.7,1.9-3.7
					C1094.3,1061.9,1094.9,1064.3,1093.4,1066.3z"/>
			</g>
		</g>
		<path fill="#FEFEFE" d="M1061.2,1057.2c12.1-1.3,24.1-4,36.1-5.8c3.2-0.5,7.8-2.4,10.4,0.1c1.8,1.7,2.9,4.7,4.1,6.9
			c3,5.4,5,11.3,7.8,16.8c0.9,1.7,3,0.8,3.3-0.8c-3.2-6.7-9.1-19-11-22.1c-2.7-4.4-3.4-5.6-6.3-5.2c-2.4,0.3-29.7,4.3-40.4,6.3
			c-1.4,0.4-2.9,0.8-4.3,1.3C1059.5,1055,1059.7,1057.3,1061.2,1057.2z"/>
		<g>
			<path fill="#FEFEFE" d="M1188.8,1075.7c-9.1-0.3-18,0.2-27,1.3c-8.4,1-16.9,1-25.2,2.9c-0.4,0.1-0.4,0.7,0,0.8
				c8.4,1.4,16.8-0.1,25.2-0.4c9-0.4,18-0.9,27-0.6C1191.3,1079.7,1191.3,1075.8,1188.8,1075.7z"/>
			<path fill="#FEFEFE" d="M1186.9,1089.8c-5.8,0.1-11.5,0-17.3,0.2c-5,0.2-10.6-0.6-15.4,0.7c-0.4,0.1-0.4,0.6,0,0.7
				c4.7,1.5,10.5,0.9,15.4,1.1c5.8,0.3,11.5,0.1,17.3,0C1188.6,1092.5,1188.6,1089.8,1186.9,1089.8z"/>
			<path fill="#FEFEFE" d="M1113.8,1087.2c-9.4-0.5-19.1,1.2-28.6,1.4c-7.7,0.2-16.1,0.3-23.7,1.9c-0.9-0.8-2.7-0.4-2.7,1.2
				c-0.1,5.4,0.1,10.9-0.2,16.3c-0.2,5.2-0.6,10.5,0.8,15.5c0.1,0.4,0.7,0.4,0.8,0c2.7-9.6,1.5-20.6,1.7-30.5
				c8.2,0.2,16.7-1.5,25-1.4c8.9,0.1,18.5,0.6,27.2-1C1116.2,1090.1,1115.6,1087.3,1113.8,1087.2z"/>
			<path fill="#FEFEFE" d="M1051.9,1088.9c-16.4,1.2-33.3,1.1-49.3,5.1c-6.1,1.5-6.3,5.2-6.6,11c-0.3,8.7-0.2,17.6,0.7,26.2
				c0.2,1.5,2.4,1.6,2.4,0c0-6.9-0.2-13.7,0.1-20.6c0.1-2.7-0.3-6.8,0.6-9.4c1.6-4.5,6.9-4.6,10.9-5.3c13.6-2.4,27.4-2.3,41.1-3.8
				C1053.9,1091.9,1054,1088.8,1051.9,1088.9z"/>
		</g>
		<g>
			<path fill="#888888" d="M1136,1086.1l-15.1,1.2c-31.8,1.6-50.2,2.9-56.7,3.3c-1.2,0.1-2.1,0.1-2.4,0.2c-2.3,0.1-3.2-4.6-4.2-7.2
				c-0.6-1.5-0.3-2.8,1.8-3.7c1.5-0.6,3.8-1.1,7.3-1.3c8.5-0.5,61.2-3.6,65-3.4s6.3,3.4,7.8,6.5S1136,1086.1,1136,1086.1z"/>
		</g>
		<path opacity="0.3" fill="#091426" enable-background="new    " d="M1057.5,1083.6c1.1,2.6,2,7.3,4.2,7.2c0.4,0,1.2-0.1,2.4-0.1
			c-1-2.3-2.7-6.4-4.9-10.8C1057.2,1080.8,1056.9,1082.1,1057.5,1083.6z"/>
		<path fill="#FEFEFE" d="M1004.2,1106.6c8.1-0.2,16.2-2.2,24.4-2.7c8.3-0.5,16.6-0.1,24.8-0.8c1.7-0.1,1.7-2.8,0-2.7
			c-8.9,0.6-17.8,0.3-26.7,1.1c-7.4,0.6-15.9,1.2-22.7,4.4C1003.6,1106.1,1003.8,1106.7,1004.2,1106.6L1004.2,1106.6z"/>
		<path fill="#888888" d="M978.1,1126.1c5.2-3.5,10-7.6,14.7-11.6c2.9-2.4,5.6-4.9,8.6-7.2c3.3-2.4,6.6-2.9,10.5-3.3
			c13.7-1.3,27.6-2.4,41.4-2.6c1.8,0,1.8-2.9,0-2.8c-15,1.1-30.5,0.5-45.3,3.1c-5.5,0.9-8.7,4.8-12.8,8.3c-6,5-12.1,10-17.5,15.7
			C977.6,1125.9,977.8,1126.2,978.1,1126.1L978.1,1126.1z"/>
		<path fill="#888888" d="M1147.7,1090.6c5.4,1.1,11.3,0.5,16.8,0.3c6.2-0.2,12.3-0.6,18.5-1.1c1.8-0.1,1.8-2.9,0-2.8
			c-6.2,0.3-12.3,0.7-18.5,0.9c-5.5,0.2-11.4-0.1-16.8,1.1C1146.9,1089.2,1146.9,1090.5,1147.7,1090.6L1147.7,1090.6z"/>
	</g>
	<g>
		<g>
			<path fill="#707070" d="M1200,1122.3c-0.1,0.5-0.1,1.1-0.2,1.7c-0.5,4.5-10.8,5.1-10.8,5.1s0,0.5,0.1,1.4c0.2,2.2,0.6,7,1.1,12.9
				c1.5,17.5,3.8,45.9,3.9,54.1c0,1.2,0,2-0.1,2.2c-1,2.7-17.4,22.6-20,23c-2.5,0.4-38-1.4-93.6,1.1s-97.6,9.8-101,9.6
				c-1.3-0.1-2-0.4-2.5-1.5c-0.9-1.9-1.1-6.3-2-16.2c-1.3-15.5-1.5-49.5-1.5-49.5c-2.7,1.5-5.3,0.6-6.2-1.9
				c-0.2-0.7-0.4-1.4-0.4-2.3c0.1-4.1-0.5-4.8,1.5-6.1c2-1.3,13-11.3,22.2-18.1c9.2-6.8,8.4-5.9,15.9-6.7c6-0.7,33.2-3.4,43.9-4.4
				c2.7-0.3,4.4-0.4,4.4-0.4s-3.6,20.3,0.8,35.8c4.4,15.4,14.4,27.1,29,33.9c10.9,5.1,26.8,6.4,41.3,1.6c4.8-1.6,9.5-3.9,13.8-7.1
				l12.8-25.3l20.2-40l4-7.9c0,0,12.7-2.1,18.5-1.6C1200.2,1116.3,1200.3,1118.7,1200,1122.3z"/>
		</g>
		<path fill="#D8D8D8" d="M1012.8,1211.9c-8.3,0.5-11.2,0.4-13.3,2.1c-1.9,1.5-10.9,8.3-22.6,18c0.5,1.1,1.3,1.4,2.5,1.5
			c3.5,0.2,45.4-7.1,101-9.6s91.1-0.7,93.6-1.1s18.9-20.3,20-23c0.1-0.2,0.1-1,0.1-2.2c-10,0.7-37.8,2.7-58.7,5.1
			C1109.5,1205.5,1021.1,1211.5,1012.8,1211.9z"/>
		<path fill="none" d="M1156,1209.4c-1.8,0.2-3.4,0.6-4.8,1l6.7,8.5c1.8-0.2,3.4-0.6,4.8-1L1156,1209.4z"/>
		<path fill="none" d="M1150.2,1210.7c-4.1,1.4-6.4,3.4-6.2,5c0.3,2.2,5.4,4,12.7,3.3L1150.2,1210.7z"/>
		<path fill="none" d="M1160.5,1209.1c-1,0-2.2,0.1-3.3,0.2l6.5,8.3c4.1-1.4,6.5-3.4,6.3-5.1
			C1169.8,1210.7,1166.1,1209.1,1160.5,1209.1z"/>
		<path fill="#696D70" d="M1171,1212.5L1171,1212.5c-0.4-3.3-6.9-5.1-14.7-4.1c-7.9,1-13.7,4.3-13.3,7.5c0.3,2.7,4.7,4.3,10.6,4.3
			c1.3,0,2.7-0.1,4.1-0.3C1165.5,1219,1171.4,1215.7,1171,1212.5z M1151.2,1210.4c1.4-0.4,3-0.8,4.8-1l6.7,8.5
			c-1.4,0.4-3.1,0.8-4.8,1L1151.2,1210.4z M1144,1215.8c-0.2-1.6,2.1-3.6,6.2-5l6.5,8.3C1149.4,1219.8,1144.2,1218,1144,1215.8z
			 M1163.7,1217.6l-6.5-8.3c1.2-0.1,2.3-0.2,3.3-0.2c5.6,0,9.3,1.6,9.5,3.5C1170.2,1214.2,1167.8,1216.2,1163.7,1217.6z"/>
		<path opacity="0.3" fill="#091426" enable-background="new    " d="M1180.6,1131.2l8.6-0.7c-0.1-0.9-0.1-1.4-0.1-1.4
			s10.4-0.6,10.8-5.1c0.1-0.6,0.1-1.1,0.2-1.7c-5.5,0.7-14.5,1.8-27.1,3.1c-0.1,0-0.1,0-0.2,0l-20.2,40L1180.6,1131.2z"/>
		<path opacity="0.3" fill="#091426" enable-background="new    " d="M973.5,1166.4c0,0,0.1,34,1.5,49.5c0.9,9.8,1.1,14.2,2,16.2
			c0.5,1.1,1.3,1.4,2.5,1.5c3.5,0.2,45.4-7.1,101-9.6s91.1-0.7,93.6-1.1s18.9-20.3,20-23c0.1-0.2,0.1-1,0.1-2.2
			c-0.1-8.2-2.4-36.6-3.9-54.1c-3.1,16.2,2.9,48.4,2.2,48.8c-0.7,0.5-10.5,1.9-25.9,3.9s-42.3,3.7-42.3,3.7l1.7-2.1
			c-14.5,4.9-30.4,3.5-41.3-1.6c-14.5-6.8-24.5-18.4-29-33.9c-4.4-15.4-0.8-35.8-0.8-35.8s-1.7,0.2-4.4,0.4v5.6
			c-43.3,5.2-48.6,5.5-52.2,8.5c-3.3,2.8-12.8,9.4-31,23.6C968.2,1167,970.7,1167.9,973.5,1166.4z M1002.3,1190.5
			c0.2-14,0-48.4,0-48.4l47-5.3c0,0-1.3,3.7,0.9,17.9s4.5,28.8,20.7,48.4c0,0-58.6,5.1-64.3,5.5
			C1000.9,1209.1,1002.1,1204.5,1002.3,1190.5z"/>
		<g>
			<path fill="#D8D8D8" d="M1033.6,1164.3c-0.9,0.7-1.7,1.5-2.3,2.4c-0.2,0.3-0.3,0.5-0.4,0.8c0.2,1.3,0.1,2.6,0.8,3.9
				c1.3,2.5,3.9,3.7,6.7,3.7c1.5,0,3.3-0.3,4.7-0.9c0.6-0.2,1.2-0.7,1.7-1c0.5-1.1,0.8-2.3,0.8-3.5c0-3.9-2.8-7.2-6.5-7.9l0,0
				C1037.1,1162.4,1035.2,1163,1033.6,1164.3z M1038.8,1171.9c-1.6,0.5-3.8-0.2-4.1-2c-0.2-1.1,0.4-2.1,1.2-2.7
				c0.3-0.5,1-0.7,1.6-0.7c0.9,0,1.7,0.4,2.1,1.2C1040.6,1169,1040.6,1171.3,1038.8,1171.9z M1044.4,1171.1
				c-0.4,1.6-2.9,0.9-2.5-0.7c0.3-1.4,0.2-2.9-0.6-4.1c-0.8-1.3-1.7-1.8-3.2-2.1c-1.2-0.2-0.9-2.1,0.3-2
				C1043,1162.5,1045.5,1166.8,1044.4,1171.1z"/>
			<path fill="#D8D8D8" d="M1038.2,1160.4l1.2-6.4c-0.4-0.1-0.8-0.2-1.2-0.6c-1.3-1.1-2.3-2.6-3.9-3.2l0,0
				c-1.3,2.8-2.4,7.4-2.2,12.8l0.1-0.1C1033.8,1161.6,1035.9,1160.4,1038.2,1160.4z"/>
			<path fill="#F8F8F8" d="M1038.2,1153.5c0.4,0.4,0.8,0.5,1.2,0.6l0.5-2.9l-4.6-2.9c-0.4,0.5-0.7,1.2-1.1,2l0,0
				C1035.9,1150.9,1036.9,1152.3,1038.2,1153.5z"/>
			<path fill="#F8F8F8" d="M1038.1,1164.2c1.5,0.2,2.4,0.7,3.2,2.1c0.8,1.3,0.9,2.7,0.6,4.1c-0.4,1.6,2.1,2.3,2.5,0.7
				c1.1-4.3-1.4-8.7-6.1-8.9C1037.2,1162.2,1036.9,1164.1,1038.1,1164.2z"/>
			<path fill="#D8D8D8" d="M1037.3,1168.1c-0.3,0-0.6,0.2-0.9,0.2l0,0c-0.2,0.3-0.4,0.6-0.3,1.1c0.2,0.8,1,0.9,1.7,0.9
				c0.4,0,0.6-0.1,0.6-0.5s-0.1-0.8-0.3-1.1C1038,1168.4,1037.7,1168.1,1037.3,1168.1z"/>
			<path fill="#999CA2" d="M1037.5,1166.5c-0.6,0-1.3,0.2-1.6,0.7c-0.9,0.6-1.4,1.6-1.2,2.7c0.3,1.8,2.5,2.5,4.1,2
				c1.8-0.6,1.8-2.9,0.8-4.2C1039.2,1167,1038.4,1166.6,1037.5,1166.5z M1037.8,1170.3c-0.7,0-1.5-0.1-1.7-0.9
				c-0.1-0.4,0-0.8,0.3-1.1l0,0c0.3,0,0.6-0.2,0.9-0.2c0.4,0,0.7,0.3,0.9,0.6c0.2,0.3,0.4,0.8,0.3,1.1
				C1038.5,1170.2,1038.2,1170.2,1037.8,1170.3z"/>
			<path fill="#999CA2" d="M1029.6,1169.7c0,4.4,3.6,8,8,8c3.2,0,5.9-1.8,7.2-4.5c-0.6,0.3-1.1,0.8-1.7,1c-1.5,0.6-3.2,0.9-4.7,0.9
				c-2.8,0-5.4-1.2-6.7-3.7c-0.7-1.3-0.6-2.6-0.8-3.9c0.1-0.3,0.2-0.5,0.4-0.8c0.6-0.9,1.4-1.8,2.3-2.4c1.6-1.3,3.5-1.9,5.4-2.4l0,0
				c-0.4-0.1-0.8-0.1-1.2-0.1l0.2-1.3c-2.2,0-4.3,1.2-6,2.6l-0.1,0.1c0,0.3,0,0.5,0,0.8C1030.5,1165.4,1029.6,1167.4,1029.6,1169.7z
				"/>
		</g>
	</g>
	<g>
		<g>
			<path fill="#545454" d="M1131.1,1084.9c-19.1,0-36.5,8.7-46.8,22.8c-0.6,0.7-1.1,1.5-1.6,2.3l0,0c-1.6,2.1-3.2,4.2-4.7,6.2l0,0
				c-2.4,3.4-4.6,6.7-6.5,10.1c-4.2,7.6-7.1,15.3-8.1,23.8c-1.7,14.6-1.2,27.3,20.3,40.5c17.7,10.9,32.6,9.2,48.6,4.7
				c0.9-0.3,1.8-0.5,2.8-0.8c1.9-0.5,3.8-1.1,5.7-1.7c0.6-0.2,1.2-0.4,1.8-0.6h0.1c24.6-5.7,43-27.8,43-54.2
				C1185.6,1107.4,1161.8,1084.9,1131.1,1084.9z M1069.6,1133.8L1069.6,1133.8c0.1-0.5,0.2-0.9,0.3-1.4
				C1069.8,1132.9,1069.7,1133.4,1069.6,1133.8z M1076.2,1170.9c0.5-0.4,1-0.8,1.4-1.2C1077.2,1170.1,1076.7,1170.6,1076.2,1170.9z"
				/>
		</g>
		<path fill="#3D4146" d="M1098.3,1158.3c0,0-14.4-18.7,0-40.3c14.4-21.6,41.8-24.6,58.2-13.9c16.5,10.7,20.9,29.8,17.2,44.3
			c-3.7,14.5-17.7,33-40.8,30.3c-23.1-2.7-24.7-22.8-24.7-22.8L1098.3,1158.3z"/>
		<g>
			<path fill="#2B2F34" d="M1170.4,1140.8c0,21-17.9,38-39.9,38c-15.1,0-37.5-17.1-37.5-38.1s19.9-39.1,41.9-39.1
				C1159,1101.5,1170.4,1119.8,1170.4,1140.8z"/>
			<path fill="#3A3A3A" d="M1163.1,1140.6c0.8,24.4-14.5,34.8-32.4,34.8c-12.2,0-34-15.8-34-32.8s19.7-33.9,37.6-33.9
				C1153.9,1108.8,1162.6,1123.6,1163.1,1140.6z"/>
			<path fill="#838383" d="M1115.3,1172.3c0,0,13.6-12.5,24-30.2s10.6-32.4,10.6-32.4s-4-2.2-9.5-2.3c-5.5-0.2-9.7,0-9.7,0
				s0.1,7.2-12.2,24.6s-18.5,23.3-18.5,23.3S1105,1166.5,1115.3,1172.3z"/>
			<path fill="#838383" d="M1122.5,1175c0,0,5.4,1.9,8.5,2.2c0,0,11.5-13.7,21.4-27.3c9.8-13.7,13-23.8,13-23.8s-2-4.3-5.3-6.5
				c0,0-6,14.8-16.1,28.8C1133.8,1162.4,1122.5,1175,1122.5,1175z"/>
		</g>
		<path fill="#3D4146" d="M1157.5,1095.6c0.8,0.5,1.6,0.9,2.3,1.5C1159.1,1096.5,1158.3,1096,1157.5,1095.6z"/>
		<path fill="#3D4146" d="M1157.4,1095.5c0.1,0,0.1,0.1,0.2,0.1C1157.5,1095.5,1157.4,1095.5,1157.4,1095.5z"/>
		<path fill="#3D4146" d="M1169.9,1173.6c7.8-7.4,10.9-17.5,11.9-28c1.1-11.6-0.7-23-5.4-33.7c-0.1-0.2-0.3,0-0.3,0.1
			c3.3,9.1,5.1,18.9,4.8,28.6c-0.3,9.4-2.4,19.5-8.1,27.1c-5.5,7.5-13.6,11.4-22,14.8c-7.5,3.1-15,4.4-23.1,4.3
			c-8.7-0.1-17.1-1.3-24.5-6c-7.1-4.5-12.9-10.8-16.9-18.1c-8.5-15.6-7.9-35,1.3-50.2c9.8-16,28.8-25.6,47.4-24.4
			c0.5,0,0.5-0.7,0-0.8c-17.3-1.3-34.7,6.1-45.5,19.7c-11.2,14.3-14.1,34.3-7.3,51.1c3.2,7.9,8.4,15,14.9,20.4
			c6.9,5.7,14.6,8.8,23.5,9.6c8.5,0.8,17.6,0.6,25.8-2.2C1154.8,1183.4,1163.4,1179.7,1169.9,1173.6z"/>
		<path fill="#3D4146" d="M1114.9,1190.3c-8.1-2.2-15.5-6.4-21.6-12.1c-12.8-11.9-18.9-29.4-17-46.7c1-8.6,3.9-16.4,7.9-23.8
			c-0.6,0.7-1.1,1.5-1.6,2.3l0,0c-1.6,2.1-3.2,4.2-4.7,6.2c-1.2,3.3-2.2,6.7-2.8,10.2c-0.1,0.1-0.2,0.1-0.3,0.2
			c-1.7,2.4-3.7,4.7-5.3,7.2c0.6-2.7,1.3-5.2,1.9-7.5c-4.2,7.6-7.1,15.3-8.1,23.8c-1.7,14.6-1.2,27.3,20.3,40.5
			c17.7,10.9,32.6,9.2,48.6,4.7c0.9-0.3,1.8-0.5,2.8-0.8c1.9-0.5,3.8-1.1,5.7-1.7C1132.1,1192.8,1123.2,1192.6,1114.9,1190.3z
			 M1068.6,1138.2c2-3.1,4-6.1,6.1-9.1c-0.2,1.8-0.4,3.5-0.5,5.3c-0.7,0.2-1,0.6-1.7,1.4c-1.1,1.3-2.2,2.6-3.3,4
			c-0.3,0.4-0.7,0.8-1.1,1.3C1068.3,1140,1068.5,1139.1,1068.6,1138.2z M1066.8,1151.2c0.2-2.1,0.4-4.3,0.7-6.4
			c1.3-1.6,2.6-3.3,3.8-4.8c0.8-0.9,2-2,2.8-3.1c-0.1,3.7,0.2,7.4,0.8,11.1c-0.4,0.3-0.8,0.8-1.2,1.2c-1.3,1.4-2.4,2.8-3.5,4.3
			c-1.2,1.7-2.3,3.4-3.3,5.2C1066.6,1156.1,1066.6,1153.6,1066.8,1151.2z M1067.2,1160.6c0.8-1.4,1.6-2.9,2.5-4.2
			c0.9-1.3,1.8-2.6,2.8-3.9c0.5-0.7,1.7-2.4,2.7-3.2c0.4,1.9,0.8,3.8,1.4,5.6c0.3,1,0.6,1.9,1,2.8c-0.2,0-0.3,0.1-0.4,0.2
			c-2.7,2.9-5.7,6-8.1,9.2C1068.2,1165,1067.6,1162.8,1067.2,1160.6z M1072.2,1173.7c-1-1.6-1.9-3.3-2.6-5.1c3-2.9,5.7-6.4,8.5-9.5
			c1,2.5,2.2,5,3.7,7.4c-2.4,1.1-4,3.3-6.1,4.8c-0.9,0.6-1.9,1-2.7,1.7C1072.7,1173.2,1072.5,1173.4,1072.2,1173.7z M1073.1,1174.9
			c0.1-0.1,0.3-0.3,0.4-0.4c1.1-0.9,2.4-1.4,3.6-2.3c1.7-1.2,3.1-2.8,4.9-4c0.2,0.1,0.5,0,0.7-0.1l0.1-0.1c1.5,2.3,3.1,4.5,5,6.6
			c-1.8,0.6-3.2,1.9-4.8,2.8c-1.7,1-3.6,1.8-5,3.1C1076.1,1178.9,1074.5,1177,1073.1,1174.9z M1078.8,1181.6c3.5-1,6.5-3.8,9.8-5.3
			c0.1-0.1,0.2-0.1,0.2-0.2c2.1,2.3,4.5,4.5,7,6.4c-2,0.9-3.9,1.9-5.9,2.8c-1,0.4-2.4,1.1-3.5,1.8
			C1083.6,1185.4,1081.1,1183.6,1078.8,1181.6z M1093,1189.9c-1.7-0.6-3.3-1.3-4.9-2c0.9-0.4,1.7-0.9,2.5-1.2
			c2.2-0.9,4.3-1.9,6.3-3.1c0.1-0.1,0.1-0.1,0.2-0.2c3.3,2.4,6.9,4.5,10.6,6.1c-1.2,0.3-2.3,0.7-3.4,1.1c-1.6,0.5-3.4,0.8-5,1.1
			C1097.2,1191.2,1095.1,1190.6,1093,1189.9z M1103.2,1192.5c0.1,0,0.2-0.1,0.4-0.1c2.2-0.5,4.7-1.1,6.9-1.9
			c4.7,1.7,9.7,2.7,14.8,3.3C1120,1194.1,1111.8,1194.1,1103.2,1192.5z"/>
	</g>
	<g>
		<g>
			<path fill="#6D440E" d="M983.8,1110.4l-7.1,7.3c-7.2-10.2-10.7-23.7-17.2-47.5s-5.7-57.5-4.6-66.7c1.1-9.2-0.5-11.6,2.9-14.1
				s4.1-3.8,3.6,3.6c-0.1,1.4-0.2,3.2-0.3,5.4c-0.4,9-0.4,24.1,4.1,42.2c4.3,17.5,13.3,50.2,17,63.7
				C983.2,1108.1,983.8,1110.4,983.8,1110.4z"/>
		</g>
		<path opacity="0.3" fill="#091426" enable-background="new    " d="M957.8,989.4c-3.4,2.5-1.8,4.9-2.9,14.1
			c-1.1,9.2-1.9,42.9,4.6,66.7c6.5,23.8,10,37.2,17.2,47.5l7.1-7.3c0,0-0.6-2.3-1.7-6.1c-4.1,2.8-5.5,3.8-5.5,3.8
			s-5.5-17.4-10.9-33.2c-5.3-15.8-9.3-26.2-10.2-47.9c-0.9-21.7,0.4-26.6,1.9-27.5c0.7-0.4,2.1-0.8,3.6-1.1c0.1-2.1,0.2-4,0.3-5.4
			C961.9,985.6,961.1,986.9,957.8,989.4z"/>
		<path fill="#3B4048" d="M979,1120.3c6.5-6.8,7.6-9.6,7.3-11.2c-0.4-1.6-0.8-1.6-4.4,1.6c-3.5,3.1-8.1,5.4-9.2,7.9
			c-1.1,2.5,0.5,4.1,2.2,3.6C976.7,1121.8,979,1120.3,979,1120.3z"/>
	</g>
</g>
</svg>
