<?xml version="1.0" encoding="utf-8"?>
<!-- Generator: Adobe Illustrator 21.0.2, SVG Export Plug-In . SVG Version: 6.00 Build 0)  -->
<svg version="1.1" id="_x31_0_x5F_Misc_x5F_JewelryGoldChain"
	 xmlns="http://www.w3.org/2000/svg" xmlns:xlink="http://www.w3.org/1999/xlink" x="0px" y="0px" viewBox="0 0 2000 2000"
	 enable-background="new 0 0 2000 2000" xml:space="preserve">
<g>
	<g>
		<g>
			<path fill="none" d="M1044.7,1093.4c0.4,4.2,4.3,5.8,4.3,5.8l-1-11.7C1048,1087.6,1044.2,1089.2,1044.7,1093.4z"/>
			<path fill="none" d="M1083.1,1139.4c0.4-0.2,0.9-0.4,1.4-0.9c0.9-0.8,1.6-2.1,1.3-4.2c-0.6-4.4-2.6-5.7-4.8-5.9
				c-0.1,0-0.2,0-0.3,0c-0.1,0-0.2,0-0.3,0l1.8,11.3C1082.2,1139.7,1082.6,1139.6,1083.1,1139.4z"/>
			<path fill="none" d="M1057.5,1083.2l0.1,1l1.1,16.8l6.3-0.3h0.1l4.5-0.2l-2-18.2C1067.6,1082.3,1062.3,1081.4,1057.5,1083.2
				L1057.5,1083.2z"/>
			<path fill="none" d="M1061,1125.1h-0.4l0.2,2l1.6,16.4c0.3,0,0.6,0,0.9,0c2.9,0.1,5.1,0,6.8-0.1c4.2-0.3,5.5-0.9,5.5-0.9l-2.5-16
				C1068.3,1125.4,1062.7,1125.1,1061,1125.1z"/>
			<path fill="#FDAF4B" d="M1116.2,1128.4c-0.1-1-0.2-2-0.4-3c-2.1-12.3-10.5-18.8-19-21.7c-4-1.4-8.6-2.2-12.4-2.6
				c-2.2-0.2-4.2-0.4-5.7-0.5c-1.9-0.1-3.1-0.1-3.1-0.1l-1.6-14.8l-0.2-1.5c0,0,0,0,0.1,0.1c0.5,0.3,2.8,1.9,3.7,4.3
				c1.1,2.6,1.1,6,1.1,6l24.9-0.3c0,0,0.1-1.4,0-3.7c0-0.3,0-0.6-0.1-0.9c-0.2-3.2-0.9-7.8-2.9-12.6c-3.3-7.9-10-15.1-23.5-17.4
				c-0.5-0.1-1.1-0.2-1.7-0.2c-0.2-0.1-0.4-0.1-0.6-0.1c-1.1-0.1-2.2-0.2-3.3-0.3h-0.1l-0.5-3.3h-4.5h-2.1l0.2,3.8l-4.2,0.4
				l-7.1,0.7c-0.1-0.5-0.2-0.9-0.3-1.4l-0.7-3.6l-2.3,0.5c-0.4,0-0.8,0.1-1.3,0.3l-1.7,0.3l-2.9,0.6v5c0,0-1.8,0.3-4.6,1
				c-4.6,1.1-11.8,3.3-17.5,7c-0.1,0-0.1,0.1-0.1,0.1c-8.1,5.3-9.6,11.1-10.3,14.4c-1.8,8.8-1.6,19,3.2,27.1s12.6,13.3,21,14.7
				c8.4,1.3,16.2-0.8,16.2-0.8l1.6,16.5c0,0-1.7-0.2-3.8-1.2l0,0c-2.4-1.2-5.3-3.4-7-7.9l-13.1,1.6l-18.2,2.2h-0.2l-5.2,4.6
				c0,0-0.2,8.7,10.8,20.5s28.2,14,41.4,14l1.6,9l3.2-0.4l3.7-0.5l1.5-0.2l-1.1-7.3l-0.3-1.9c0,0,4-0.4,8-1.1
				c1.9-0.4,3.9-0.8,5.4-1.4l1.8,9.1l2-0.7l2-0.7l1.4-0.5l-0.5-9l0,0c0.1,0,0.2-0.1,0.5-0.1c2.6-0.7,14.9-4.5,20.3-9.6
				c2.9-2.7,5.1-6.7,6.6-11.8C1116.2,1143,1116.9,1136,1116.2,1128.4z M1080.6,1128.3c0.1,0,0.2,0,0.3,0c2.2,0.2,4.2,1.5,4.8,5.9
				c0.3,2.2-0.4,3.5-1.3,4.2c-0.5,0.4-1,0.7-1.4,0.9c-0.5,0.2-0.9,0.3-0.9,0.3l-1.8-11.3C1080.4,1128.3,1080.5,1128.3,1080.6,1128.3
				z M1067.6,1082.3l2,18.2l-4.5,0.2h-0.1l-6.3,0.3l-1.1-16.8l-0.1-1c0,0,0,0,0.1,0C1062.3,1081.4,1067.6,1082.3,1067.6,1082.3z
				 M1044.7,1093.4c-0.4-4.2,3.3-5.8,3.3-5.8l1,11.7C1049,1099.2,1045.1,1097.6,1044.7,1093.4z M1070.1,1143.4
				c-1.7,0.1-3.9,0.2-6.8,0.1c-0.3,0-0.6,0-0.9,0l-1.6-16.4l-0.2-2h0.4c1.6,0,7.3,0.3,12.1,1.4l2.5,16
				C1075.6,1142.5,1074.3,1143.1,1070.1,1143.4z"/>
		</g>
		<g>
			<path fill="#FFF8EF" d="M1071.3,1152.4c-0.1,0-0.3,0.1-0.3,0.3c-1.5,4.1-4,7.6-5.7,11.6c-0.3-2.3-0.6-4.7-0.8-7
				c-0.4-4.5-0.6-9.2-1.1-13.8c-0.3,0-0.6,0-0.9,0l-1.8-18.3c0.1,0,0.2,0,0.4,0c-0.1-0.8-0.2-1.5-0.2-2.3c1.7-0.2,3.2-0.2,4.9-0.2
				c0.7,0,1.5-0.7,1.4-1.4c-0.7-6.7-2.2-13.8-2-20.5l-6.4,0.3l-1.2-17.8c0,0,0,0,0.1,0c-0.3-3.2-0.8-6.3-1.4-9.4
				c-0.5-2.7-1.2-5.5-1.9-8.2c-0.4-1.5-0.6-3.3-1-5l0,0l-0.3-1.4c-0.2-0.7-0.4-1.3-0.7-1.8c-0.6-1.2-1.4-1.5-2.4-1.4l-1.3,0.3
				c-0.3,0.1-0.7,0.2-1.1,0.3c-0.6,0.2-0.6,1.1,0,1.2c4.2,0.7,4.4,5.4,5.4,9.1c1.2,4.7,2.2,9.5,2.6,14.4c0.1,1.4,0.2,2.8,0.3,4.2
				c-0.6,1.1-1.3,2.2-1.8,3.3c-0.3,0.6-0.5,1.3-0.8,2c-0.2,0.5-0.5,0.8-0.8,1.3c-0.3,0.1-0.6,0.3-0.6,0.6c0.4,6.1,0.9,12.3,1.7,18.4
				c0,0.2,0.1,0.4,0.3,0.5c0.1,0.2,0.3,0.4,0.6,0.2c0.3,0,0.6-0.2,0.7-0.5c0.9-0.7,2-1.7,2.7-2.8c0.2,2.6,0.5,5.2,0.7,7.9
				c0.5,6.9,0.9,13.9,1.7,20.8c0.2,4.7,0.7,9.4,1.3,14.1c-0.2,0.1-0.5,0.2-0.6,0.4c0.2-0.3-0.1,0-0.2,0c-0.1,0.1-0.2,0.1-0.3,0.2
				c-0.3,0.2-0.6,0.4-0.8,0.7c-0.4,0.3-0.9,0.8-0.9,1.4c-0.2,0.1-0.4,0.3-0.4,0.7c-0.2,5.9,0.2,12.1,0.8,17.9
				c0.1,1.1,1.3,1.7,2.2,0.9c1.2-1.2,2.1-2.3,2.6-3.4c0.7,4.7,1.6,9.3,2.9,13.9l1.5-0.2l-1.4-9.2c0,0,4-0.4,8-1.1
				c-0.2-7-1.7-14.2-3-21C1071.9,1152,1071.4,1152.1,1071.3,1152.4z M1053.4,1092.9L1053.4,1092.9c0-0.1,0.1-0.1,0.1-0.2
				C1053.5,1092.7,1053.4,1092.8,1053.4,1092.9z"/>
			<path fill="#FFF8EF" d="M1029.4,1135.2c1.6,0.2,3.3,0,5-0.2c-0.1,0.2-0.2,0.4-0.3,0.6c-0.3,0.5-0.7,1-0.9,1.5
				c-0.2,0.4,0.2,0.9,0.6,0.6c0.1,0,0.1-0.1,0.2-0.1c2,0.1,3.8-1.3,5.6,0.7c0.8,1,1.3,2.7,2.1,3.8c1.8,2.5,4,4.4,6.8,5.6
				c0.1,0.1,0.3,0.1,0.4,0.1c0.2,0.5,0.9,0.4,0.9-0.1c0.1-2.2,0.2-4.3-0.1-6.4c0.1-0.1,0.1-0.2,0.1-0.3c-2.4-1.2-5.3-3.4-7-7.9
				l-13.1,1.6c-0.1,0-0.2,0.1-0.2,0.1C1029.2,1134.9,1029.2,1135.2,1029.4,1135.2z M1047.3,1145c0.1,0,0.1,0,0.2,0
				c0,0.1,0,0.1,0,0.2C1047.4,1145.1,1047.3,1145,1047.3,1145L1047.3,1145z"/>
			<path fill="#FFF8EF" d="M1045.1,1166.1c-8.7-2-17.3-8-23.3-14.6c-0.3-0.3-0.6,0.1-0.4,0.4c0.8,1,1.7,1.9,2.5,2.8
				c-1,0.8-1.6,1.7-2,3l0,0c-0.1,0.2,0,0.5,0.2,0.7c3.1,3.1,6.8,5.8,10.8,7.6c3.8,1.7,7.7,1.8,11.8,2.2c0.7,0.1,1-0.6,0.9-1.1
				C1045.8,1166.6,1045.6,1166.2,1045.1,1166.1z"/>
			<path fill="#FFF8EF" d="M1048.8,1163.3c-0.1,0.1-0.2,0.1-0.3,0.2c-0.2,0.3-0.6,0.4-1.1,0.2c-7.7-2.5-15.5-6.6-21-12.8
				c-0.1-0.2-0.2-0.3-0.2-0.5c-0.1-0.2-0.2-0.5,0-0.9c1.2-2.5,2.7-5,4.1-7.5c0.2-0.4,0.6-0.6,1-0.6c1.9-0.8,4.4-2.5,6.3-1.3
				c1.2,0.8,1.7,3.2,2.7,4.3c1.8,2,4.2,2.8,6.7,3.9c3.1,1.4,2.9,2.3,3,5.7C1049.9,1156.5,1050.9,1161.4,1048.8,1163.3z"/>
			<path fill="#FFF8EF" d="M1083.5,1142.8c7.8-1.5,9.4-9.2,5.8-15.3c-0.8-1.9-2.1-3.6-3.8-4.9c-0.2-0.2-0.4-0.1-0.6,0
				c-0.2,0-0.4,0.1-0.5,0.4c-0.4,1-0.9,2-1.3,3.1c-0.1,0.1-0.2,0.3-0.2,0.5c-0.1,0.3,0.1,0.6,0.3,0.7c1.5,2,2.8,4.1,3,6.6
				c0.3,2.8-1,4.2-2.7,6c-0.2,0.1-0.3,0.1-0.5,0.2c0-0.2-0.1-0.4-0.1-0.6c-0.5,0.2-0.9,0.3-0.9,0.3l-1.8-11.3c0.2,0,0.4,0,0.6,0
				c-0.9-5.8-2.5-11.8-3.4-17.3c-0.3-1.7-0.5-3.4-0.7-5.1l0,0c1-1.1,1.1-2.9,2-4.1c0.3-0.4,0.2-0.9-0.1-1.2
				c-1.9-0.1-3.1-0.1-3.1-0.1l-1.8-16.3c0,0,0,0,0.1,0.1c0-0.2-0.1-0.4-0.1-0.6c0.2-2,0.1-4.1-0.2-6.2c2.3,1.3,4.2,2.4,5.8,4.7
				c1.5,2.4,2.3,5,3.3,7.6c0.2,0.5,0.7,0.5,1,0.2c0.2-0.1,0.3-0.2,0.4-0.4c0.5-1.6,1.3-3.2,1.6-4.9c0.3-0.2,0.4-0.6,0.4-0.9
				c0-0.2-0.1-0.5-0.1-0.7c0.9-1.7,1.7-3.3,2.6-4.9c0.7-1.3,1.7-2.6,2-4.1c0.5-0.3,0.8-0.9,0.4-1.4c-2.1-3.1-4.7-6.2-8.2-7.5
				c-3.1-1.2-7.3-0.9-10.6-0.2c-0.2-2-0.4-3.9-0.6-5.9h-0.1l-0.5-3.3h-3.7c-0.6,4,0.9,8.8,1,12.7c0.1,4,0.2,8,0.4,11.9
				c-0.2,1.6-0.1,3.2,0,4.8c0.1,2.5,0.1,5.1,0.7,7.6c0.3,1.1,1.5,1.2,2.2,0.6c0.2-0.1,0.3-0.2,0.5-0.4c1.1,10.3,2.5,20.7,4.3,31
				c-2.7,3.2-2.1,5.7-1.5,10.3c0.7,5.2,0.8,13,3.4,17.6c0.2,0.4,0.7,0.7,1.1,0.6c0.6-0.1,1.1-0.2,1.6-0.4c1.4,9.4,3,18.7,5.1,27.8
				l1.4-0.5l-0.5-9c0,0,0.2,0,0.5-0.1c-1.4-6.9-2.9-13.7-3.4-20.8C1083.9,1147.2,1083.7,1145,1083.5,1142.8z M1085.2,1074.7
				L1085.2,1074.7L1085.2,1074.7L1085.2,1074.7z M1073.7,1066.4C1073.6,1066.4,1073.6,1066.4,1073.7,1066.4
				C1073.6,1066.4,1073.6,1066.4,1073.7,1066.4C1073.6,1066.4,1073.6,1066.4,1073.7,1066.4z M1073,1071.9c0-0.1,0-0.1,0-0.2
				C1073,1071.8,1073,1071.9,1073,1071.9L1073,1071.9z M1073.3,1074.1c2.4,1.1,4.6,2.1,6.6,3.9c1.7,1.6,2.8,3.6,4.2,5.4
				c-0.5,1.1-0.8,2.3-1,3.5c-1.7-4.4-4.8-9.8-9.4-10.4C1073.5,1075.8,1073.4,1075,1073.3,1074.1z"/>
			<path fill="#FFF8EF" d="M1096.8,1103.7c-4-1.4-8.6-2.2-12.4-2.6c0,0.1,0.1,0.2,0.2,0.3c2.7,1.2,5.5,2.1,8.3,3
				c-0.1,0.2-0.2,0.4-0.3,0.5c-0.2,0.3-0.3,0.7-0.4,1c-0.1,0.2-0.2,0.3-0.2,0.5c-0.1,0.2-0.1,0.5-0.2,0.7c0,0.1,0,0.1,0,0.2
				s0,0.3,0.1,0.4c1.8,1.2,3.9,1.8,5.8,2.8c2.1,1.2,3.8,2.8,5.7,4.3c0.3,0.2,0.9,0.3,1.1-0.1c0.5-1.1,0.9-2.2,1.2-3.3
				c4.1,3.8,7,8.5,9.5,13.6c0.2,0.3,0.4,0.5,0.7,0.5C1113.7,1113.1,1105.3,1106.6,1096.8,1103.7z M1094.7,1107.4L1094.7,1107.4
				c0.1,0,0.2,0,0.2,0.1C1094.9,1107.4,1094.8,1107.4,1094.7,1107.4z M1101.8,1108.3L1101.8,1108.3L1101.8,1108.3L1101.8,1108.3z"/>
			<path fill="#FFF8EF" d="M1096.9,1112.1c-1.6-1-3.7-2.6-5.8-2.2c-0.2,0-0.3,0.3-0.1,0.5l0,0c-0.9,1.4-1.3,3.1-2,4.6
				s-1.7,3.1-1.8,4.8c-0.4-0.1-0.7,0.4-0.4,0.7c3.2,3,5.2,5.2,6,9.6c0.5,3,0.4,5.9-0.7,8.5c-0.1,0.1-0.1,0.1-0.2,0.2
				c-0.3,0.5-0.6,1-1,1.5c-0.6,0.3-1.1,1.1-1.4,1.4c-1.4,1.5-2.8,3-4.5,4.2l-0.1,0.1c-0.2,0-0.4,0.2-0.4,0.5c-0.2,2,0.7,4.1,1,6.1
				c0.4,2.3,0.4,4.7,1.1,7c0.2,0.7,1.1,0.5,1.2-0.2c0-0.1,0-0.1,0-0.2c0.1-0.1,0.1-0.1,0.1-0.2c2.4-7,5.2-13.7,8-20.6
				c2.5-6.3,5.2-13.6,6.4-20.3c0.4-0.2,0.7-0.8,0.3-1.3C1100.9,1115.1,1099,1113.4,1096.9,1112.1z M1088.1,1120.1L1088.1,1120.1
				C1088.1,1120.1,1088.2,1120.1,1088.1,1120.1C1088.1,1120.2,1088.1,1120.1,1088.1,1120.1z M1085.7,1146.7
				C1085.7,1146.6,1085.6,1146.6,1085.7,1146.7C1085.7,1146.6,1085.7,1146.6,1085.7,1146.7
				C1085.7,1146.6,1085.7,1146.6,1085.7,1146.7z M1101.3,1118.1c0-0.1,0-0.1,0-0.2C1101.3,1117.9,1101.3,1118,1101.3,1118.1
				C1101.4,1118.1,1101.3,1118.1,1101.3,1118.1z"/>
			<path fill="#FFF8EF" d="M1047.2,1115.3c1-0.1,1.9-0.1,2.9-0.1c0.6,0,0.8-0.6,0.6-1.1c-0.6-1.4-0.3-3.2-0.5-4.7
				c0-0.1,0-0.2-0.1-0.2c0.1-0.3,0.1-0.7,0-1c0-0.2-0.4-0.2-0.5-0.1c-1.3,1.9-2.2,4.1-3.1,6.2
				C1046.5,1114.7,1046.6,1115.4,1047.2,1115.3z"/>
			<path fill="#FFF8EF" d="M1050.9,1117.4c-0.7-0.6-2.1-0.4-2.9-0.3c-0.9,0.1-2.6-0.2-3.3,0.6c0,0,0,0.1-0.1,0.1s-0.2,0.1-0.3,0.1
				c-0.5,0.4-0.9,0.9-1.2,1.4c-0.3,0.4-0.8,0.9-0.6,1.5c0,0.2,0.2,0.2,0.3,0.2l0.1,0.1c2.7,0.8,5.4,0.2,8.2,0.3c0.5,0,0.9-0.5,0.8-1
				C1051.6,1119.6,1051.5,1117.9,1050.9,1117.4z"/>
			<path fill="#FFF8EF" d="M1074.3,1059.8c-0.2,0.5-0.4,1.1-0.6,1.6s0.6,1,1,0.6c0-0.1,0.1-0.1,0.1-0.2c0.2,0.1,0.3,0.2,0.5,0.2
				c7.3,0.9,12.2,2.7,17.3,8.1c3.5,3.6,5.7,7.6,7.3,12c-0.2,0.9-0.5,1.8-0.8,2.7c-0.5,1.4-1.2,2.7-1.6,4.1c-0.1,0.5,0.4,0.9,0.8,0.8
				c0.5,0.3,1.2,0.2,1.8,0.2c1,0,2.3,0.2,3.2-0.2c0.1,0,0.1-0.1,0.1-0.1c-0.2-3.2-1-7.8-2.9-12.6c-3.3-7.9-10-15.1-23.5-17.4
				c-0.4,0-0.7,0.1-1.1,0.2c0,0,0,0-0.1-0.1c-0.2-0.1-0.3-0.2-0.5-0.3l0,0c-0.2,0-0.4-0.1-0.6-0.1
				C1074.6,1059.3,1074.4,1059.6,1074.3,1059.8z M1074.4,1060.5L1074.4,1060.5L1074.4,1060.5L1074.4,1060.5z"/>
		</g>
		<g>
			<path opacity="0.3" fill="#091426" enable-background="new    " d="M1054.5,1121.8L1054.5,1121.8c-0.1-1.2-0.2-2.3-0.3-3.4
				c-0.1-0.9-0.2-1.8-0.3-2.8c0-0.5-0.1-1-0.1-1.5c-0.6-7.2-1.3-14.3-2.1-21.4c-0.7-6.7-1.6-13.4-2.5-20.1c-0.7-5-0.8-10.8-2.3-15.9
				l-2.9,0.6v5c0,0-1.8,0.3-4.6,1c0.2,1.2,0.4,2.4,0.6,3.6c-5.7,1.3-11.8,4.9-15.3,9.3c-4.3,5.2-5.3,13.4-4.7,19.9
				c0.5,5.9,3,11.6,7.8,15.3c5.3,4.1,11.9,6.7,18.7,6.5c0.2,1.6,0.5,3.3,0.8,4.9c-14.1,0.6-27-7.9-30.9-21.9
				c-1.9-6.8-1.2-14.3,0.8-20.9c1-3.5,2.8-6.5,4.6-9.6c-8.1,5.3-9.6,11.1-10.3,14.4c-1.8,8.8-1.6,19,3.2,27.1s12.6,13.3,21,14.7
				c8.4,1.3,16.2-0.8,16.2-0.8l1.6,16.5c0,0-1.7-0.2-3.8-1.2c0,0.2,0,0.4,0.1,0.6c0.2,2,0.5,3.9,0.7,5.9c-1.6-0.8-3.5-1.2-5-2.2
				c-2.2-1.5-4.1-3.6-5.5-5.8c-0.3-0.5-1-0.1-0.8,0.4c1.3,2.4,2.8,4.4,5,6c1.6,1.3,4.1,3.1,6.4,3.3c0.7,5.9,1.5,11.9,2.3,17.8
				c-4.1-0.6-8-2.1-11.8-3.8c-3.3-1.4-6.6-2.9-9.7-4.7c-3.1-1.9-6-4.1-8.4-6.9c-2.4-2.9-3.7-5.9-4.7-9.5c2.9-0.1,5.9-0.9,8.8-1.3
				c3.5-0.5,7-0.7,10.5-1.2c0.7-0.1,0.5-1.3-0.2-1.3c-3.4,0-6.9,0.5-10.3,0.9c-3.1,0.4-6.3,0.7-9.2,1.9c-0.3-0.1-0.6,0-0.7,0.3
				c-0.2,0.1-0.2,0.4,0,0.6c0.4,7.3,6.4,13.4,12.2,17.1c3.6,2.3,7.6,4,11.6,5.7c3.9,1.6,7.8,3.1,12,3.7c0.1,0.8,0.2,1.5,0.3,2.3
				c-6.7,0.5-12.4-1.6-18.4-4.5c-5-2.4-10.2-5-14.5-8.6c-4.4-3.8-6.9-8.2-8-14c-0.4-2.2-0.5-4.8-1.2-7.1h-0.2l-5.2,4.6
				c0,0-0.2,8.7,10.8,20.5s28.2,14,41.4,14l1.6,9l3.2-0.4c-2.3-13.9-5.4-27.4-6.6-41.5C1055.9,1135.9,1055.3,1128.8,1054.5,1121.8z
				 M1043.1,1092.7c0.5,4.1,1,8.1,1.6,12.2c-1.7-0.7-3-1.6-3.8-3.8c-0.6-1.9-0.7-4.2-0.7-6.2c0.1-2.1,0.5-4.2,1.1-6.2
				c0.3-0.8,0.7-1.6,1-2.4C1042.7,1088.4,1042.9,1090.6,1043.1,1092.7z M1030.2,1111.1c-5.5-3.7-8.3-9.4-8.7-16
				c-0.3-6.2,0.8-13.7,5-18.4c1.9-2.2,4.5-3.9,7.1-5.2c2.2-1.1,4.6-1.9,6.9-2.9c0.3,1.6,0.5,3.1,0.6,4.7c0.3,3.4,0.7,6.9,1.1,10.3
				c-1.5,1.6-2.3,4.3-2.7,6.3c-0.6,2.6-0.8,5.3-0.5,7.9c0.5,4.3,1.9,8.2,6.2,9.3c0.2,1,0.3,2,0.5,3c0.3,2,0.6,4,0.9,6.1
				C1040.6,1116.3,1035,1114.3,1030.2,1111.1z M1044.7,1093.4c-0.4-4.2,3.3-5.8,3.3-5.8l1,11.7
				C1049,1099.2,1045.1,1097.6,1044.7,1093.4z"/>
			<path opacity="0.3" fill="#091426" enable-background="new    " d="M1064.2,1117.2c0.1,0,0.3,0,0.4,0c0.3,0,0.6,0,0.8-0.1
				C1065,1117.1,1064.6,1117.1,1064.2,1117.2z"/>
			<path opacity="0.3" fill="#091426" enable-background="new    " d="M1079.1,1154.8c-1.5-6.9-2.1-14.3-3.9-21.2
				c-1.3-10.7-2.3-21.4-3.3-32.2c-1.4-15.1-1.7-31.1-5.3-45.8h-2.1l0.2,3.8l-4.2,0.4c0.1,1.3,0.2,2.7,0.3,4
				c-0.9,0.2-1.9,0.2-2.8,0.3c-1,0.2-2.2,0.1-3.1,0.7c-0.2,0.2-0.3,0.5,0,0.7c1.1,0.5,2.4,0.1,3.5,0c0.8-0.1,1.6-0.2,2.4-0.3h0.1
				c0.2,1.5,0.4,3,0.6,4.5c-0.5-0.4-1.1-0.6-1.8-0.6c-1.8,0-3.2,1.5-3.2,3.3c0,1.2,0.6,2.2,1.5,2.7c-0.5,0.1-0.8,0.1-1.1,0.7
				c-0.1,0.1,0,0.2,0,0.3c0.7,0.7,1.9,0.3,2.8,0.1c0.8-0.2,1.5-0.2,2.3-0.2c0.1,0,0.1,0,0.2,0c0.1,0.7,0.1,1.4,0.2,2.1
				c-1.5,0.1-3,0.3-4.6,0.5c-0.4,0-0.7,0.3-0.7,0.7c0.1,1.7,0.3,3.4,0.6,5.1l-0.1-0.9c0,0,0,0,0.1,0c4.7-1.8,10-0.9,10-0.9l2,18.2
				l-4.5,0.2h-0.1c0.2,1.8,0.5,3.5,0.7,5.2c-0.8,0-1.7,0.1-2.5,0.1c-1.1,0.1-2.3-0.1-3.2,0.5c-0.2,0.1-0.2,0.4,0,0.6
				c0.9,0.6,2.1,0.3,3.2,0.3c0.9,0,1.8,0,2.7,0c0.2,1.3,0.3,2.5,0.4,3.8c-0.5-0.3-1.1-0.5-1.7-0.5c-1.8,0-3.2,1.5-3.2,3.2
				s1.2,3,2.8,3.2c0.4,0,0.8-0.1,1.2-0.1c0.6-0.1,1.1-0.4,1.5-0.8c0,0.3,0.1,0.6,0.1,0.9c-0.5,0-1,0-1.6,0c-0.3,0.1-0.5,0.1-0.8,0.1
				c-0.1,0-0.3,0-0.4,0c-1.2,0.1-2.4,0.2-3.5,0.2c-0.4,0-0.6,0.7-0.1,0.8c2,0.3,4.4,0.7,6.5,0.5c0.1,1,0.2,1.9,0.3,2.9
				c-0.1,0-0.2,0-0.3,0c-0.5-0.1-0.9-0.1-1.4-0.1c-1.7-0.1-3.3-0.1-5-0.1c-0.3,0-0.6,0.3-0.6,0.6c0,0.4,0.1,0.8,0.1,1.2
				c0,0.6,0.1,1.2,0.1,1.7c0.1,0.7,0,1.6,0.4,2.2l-0.2-2h0.4c1.6,0,7.3,0.3,12.1,1.4l2.5,16c0,0-1.2,0.6-5.5,0.9
				c0.4,2.2,0.8,4.4,1.1,6.6c-2.4,0.1-5,0.1-7.2,0.7c-0.3,0.1-0.3,0.5,0,0.6c2.3,0.6,5,0.4,7.4,0.1c0,0.2,0.1,0.4,0.1,0.6
				c0.2,1.5,0.5,3,0.7,4.5c-0.6-0.5-1.3-0.8-2.1-0.8c-1.9,0-3.4,1.7-3.4,3.8c0,2.1,1.5,3.8,3.4,3.8c1.2,0,2.2-0.7,2.9-1.7
				c0.3,1.9,0.6,3.8,0.9,5.7c-1.4,0-2.8,0.2-4.3,0.3c-1.3,0.1-2.9-0.1-4,0.7c-0.1,0.1-0.1,0.2,0,0.2c1.2,0.7,2.7,0.4,4,0.4
				c1.5,0,3,0,4.5-0.1c0.1,0.5,0.2,1,0.3,1.5c-0.9,0.1-1.8,0.3-2.6,0.5c-1.5,0-3,0-4.4,0.2c-0.6-0.5-1.3,0-1.4,0.7s0.2,1.6,0.4,2.3
				c0.2,0.8,0.4,1.6,0.6,2.3c0,0.1,0.1,0.2,0.2,0.3l-0.3-1.9c0,0,4-0.4,8-1.1c1.9-0.4,3.9-0.8,5.4-1.4l1.8,9.1l2-0.7
				C1081.8,1172.1,1080.9,1163.3,1079.1,1154.8z M1070.4,1172.9C1070.4,1172.9,1070.3,1172.8,1070.4,1172.9
				C1070.4,1172.8,1070.5,1172.8,1070.4,1172.9C1070.4,1172.8,1070.4,1172.9,1070.4,1172.9z"/>
			<path opacity="0.3" fill="#091426" enable-background="new    " d="M1085.8,1134.3c0.3,2.2-0.4,3.5-1.3,4.2c0.3,0,0.6,0,0.9-0.2
				c1.1-0.9,1.6-2.3,1.7-3.7c0.3-1.1,0.3-2.3-0.1-3.5c-0.3-0.9-0.8-1.8-1.4-2.5c-0.5-1-1.1-1.9-1.7-2.5c-0.4-0.5-0.9-0.5-1.3-0.3
				c-0.3-0.2-0.5-0.4-0.8-0.6s-0.7-0.3-1-0.2c-0.1,0-0.1-0.1-0.2-0.1c-0.5-0.2-1,0.5-0.7,0.9c0,0,0,0.1,0.1,0.1v0.1
				c0,0.1,0,0.2,0.1,0.3l0,0c0.1,0.2,0.2,0.4,0.3,0.6l0,0c0.1,0.5,0.2,1,0.3,1.6c0.1,0,0.2,0,0.3,0
				C1083.1,1128.6,1085.1,1129.9,1085.8,1134.3z"/>
			<path opacity="0.3" fill="#091426" enable-background="new    " d="M1099.5,1090.7c-2.4,0.1-4.7,0.1-7.1,0.1
				c-3.4,0-6.8-0.2-10.2-0.1c-0.1-1.9-0.8-3.9-1.3-5.3c-1.5-3.6-3.5-5-6.8-6.9c-0.4-0.2-0.9,0-0.9,0.5c0.2,2.3,0.4,4.5,0.8,6.7
				l-0.2-1.5c0,0,0,0,0.1,0.1c0.5,0.3,2.8,1.9,3.7,4.3c1.1,2.6,1.1,6,1.1,6l24.9-0.3c0,0,0.1-1.4,0-3.7
				C1102.3,1090.4,1100.8,1090.6,1099.5,1090.7z"/>
			<path opacity="0.3" fill="#091426" enable-background="new    " d="M1107.8,1160.5c2.9-2.7,5.1-6.7,6.6-11.8
				c-3.6,5.1-7.8,9.8-13.1,13c-3.5,2.1-7.3,3.3-11.1,4.7c-0.9,0.3-2.3,0.6-2.9,1.4c-0.5,0.6-0.5,1.5-0.4,2.4c0.1,0,0.2-0.1,0.5-0.1
				C1090.1,1169.4,1102.4,1165.6,1107.8,1160.5z"/>
			<path opacity="0.3" fill="#091426" enable-background="new    " d="M1083.4,1087.6c0.1,0.2,0.2,0.3,0.3,0.4
				c0.1,0.1,0.2,0.1,0.3,0.2c4.3,0.9,8.9,0.1,13.2-0.3c0.7-0.1,0.8-0.7,0.5-1.1c0-0.1,0-0.1,0-0.2c-0.3-3.7-0.8-7.6-2.2-11
				c-1.2-3-3.2-5.2-5.6-7.3c-4.9-4.4-11-5.8-17.5-5.3c-0.8,0.1-0.8,1.2,0,1.2c6-0.3,12,1.1,16.6,5c2.5,2.1,4.6,4.4,5.7,7.6
				s1.3,6.6,1.7,9.9c-3.9,0.6-7.9,0.1-11.8,0.3c-2.1-5.6-5.8-10-11.5-12c-0.6-0.2-1.1,0.8-0.5,1.1
				C1077.6,1078.2,1081.9,1082.3,1083.4,1087.6z"/>
			<path opacity="0.3" fill="#091426" enable-background="new    " d="M1092.3,1129.5c-1.9-5.5-7.2-11-13.1-11.9
				c-0.5-0.1-0.9,0.6-0.4,0.9c5,2.3,9.7,5.3,11.8,10.7c2.7,6.9-2.1,12-7.1,16.1c-0.8,0.7,0.4,1.8,1.2,1.2
				C1090,1142.1,1094.8,1136.8,1092.3,1129.5z"/>
			<path opacity="0.3" fill="#091426" enable-background="new    " d="M1106.3,1151.5c2.3-2.7,4.8-5.8,5.5-9.4
				c0.8-4,0.4-8.4-0.1-12.3c-1.1-7.8-4.6-14.8-11.4-19c-3.4-2.2-7.2-4.3-11.1-5.4c-4-1.2-8.1-0.6-12.1,0.2c-0.5,0.1-0.4,1,0.1,0.9
				c3.9-0.5,7.7-1,11.6,0.2c3.6,1.1,6.8,3.1,10,5c6.6,4.2,10.1,10.5,11.3,18.1c0.6,3.7,1.1,8.2,0.3,12c-0.7,3.5-3.5,6.7-5.7,9.4
				c-4.7,5.4-10.8,10.9-17.9,12.6c-0.9,0.2-0.5,1.7,0.4,1.4C1094.8,1163.3,1101.4,1157.3,1106.3,1151.5z"/>
			<ellipse opacity="0.3" fill="#091426" enable-background="new    " cx="1088.2" cy="1081.1" rx="3.3" ry="3.4"/>
			<ellipse opacity="0.3" fill="#091426" enable-background="new    " cx="1079.3" cy="1072.8" rx="3.3" ry="3.4"/>
			<ellipse opacity="0.3" fill="#091426" enable-background="new    " cx="1036.9" cy="1076.2" rx="3.2" ry="3.3"/>
			<ellipse opacity="0.3" fill="#091426" enable-background="new    " cx="1028.9" cy="1085.8" rx="3.2" ry="3.3"/>
			<ellipse opacity="0.3" fill="#091426" enable-background="new    " cx="1028.9" cy="1099.9" rx="3.2" ry="4"/>
			<path opacity="0.3" fill="#091426" enable-background="new    " d="M1065.4,1117.1c-0.3,0.1-0.5,0.1-0.8,0.1c-0.1,0-0.3,0-0.4,0
				C1064.6,1117.1,1065,1117.1,1065.4,1117.1z"/>
			<circle opacity="0.3" fill="#091426" enable-background="new    " cx="1083.3" cy="1113.8" r="3.2"/>
			<ellipse opacity="0.3" fill="#091426" enable-background="new    " cx="1093" cy="1119.6" rx="3.2" ry="3.7"/>
			<ellipse opacity="0.3" fill="#091426" enable-background="new    " cx="1093.6" cy="1147" rx="3.6" ry="3.2"/>
			<ellipse opacity="0.3" fill="#091426" enable-background="new    " cx="1097.8" cy="1133.4" rx="3.4" ry="4"/>
			<ellipse opacity="0.3" fill="#091426" enable-background="new    " cx="1047" cy="1159.2" rx="3.4" ry="3.8"/>
			<ellipse opacity="0.3" fill="#091426" enable-background="new    " cx="1036.2" cy="1155" rx="3.4" ry="3.8"/>
			<ellipse opacity="0.3" fill="#091426" enable-background="new    " cx="1037.4" cy="1111.1" rx="2.9" ry="3.5"/>
		</g>
		<g>
			<g>
				<path fill="none" d="M1000,1017.7c1.4-6.2,0.8-10.9-3.8-15.5c-2.4-2.5-4.8-3.9-8.4-3.6c-0.2,0-0.3,0-0.5,0.1
					c-0.3,0.9-0.8,1.7-1.3,2.4c0,0,0,0.1-0.1,0.1c-0.2,0.4-0.5,0.7-0.9,0.9c-0.3,0.3-0.7,0.4-1,0.5c-0.1,5.4,0.6,11.1,4.4,14.8
					c1.5,1.4,6.2,4.8,8.6,4.6c1.5-0.1,2.3-1.7,3.1-3.2C999.9,1018.5,999.9,1018.2,1000,1017.7z"/>
				<path fill="none" d="M1021.6,1031.7c-0.6-0.9-1.3-1.8-2.1-2.6c-3.1-2.9-7.1-4.4-11.2-5.4c-0.6-0.1-1.2-0.3-1.8-0.4
					c1.3,2,2.5,4.2,4.2,5.9c1.8,1.9,3.8,3.7,6.2,4.9c0.8,0.4,1.7,0.8,2.6,1C1019.6,1033.9,1020.4,1032.7,1021.6,1031.7z"/>
				<path fill="none" d="M1046.6,1044.5c0.3-0.9,0.4-1.8,0.2-2.6c-0.3-1.6-2.6-3-3.8-3.7c-2.5-1.5-5.3-2.7-8.2-3.1
					c-1.6-0.2-3.9-0.5-6-0.3c0.1,0.3,0.2,0.6,0.2,1c0.4,1.8-0.8,3.2-2.6,3.4c-0.1,0-0.2,0-0.3,0c0.1,0.6,0.4,1.2,0.7,1.8
					c1.6,2.5,4.6,4.2,7.3,5.3c3.5,1.4,8.2,2.5,11.2-0.4C1045.8,1045.5,1046.2,1045,1046.6,1044.5z"/>
				<path fill="none" d="M983,994.5c0-3.4-2.3-7.5-4-9.6c-1.3-1.6-2.9-2.7-4.7-3.8c0.3,3.6,2.1,7.6,3.2,10.4c0.9,2.2,2,3.4,3.5,4.5
					C981.5,995.4,982.2,994.9,983,994.5z"/>
				<path fill="none" d="M1081.8,1015.4c-2.3,4.2-3,6.8-2.3,11.4c0.2,0.1,0.3,0.2,0.5,0.3c0,0,0.1,0,0.1,0.1
					c3.6,0.7,5.8-4.2,7.2-7.1c1.1-2.3,4.1-8.9,2.5-11.4C1087.2,1004.6,1082.8,1013.5,1081.8,1015.4z"/>
				<path fill="none" d="M1089.8,979.3c0,0.9-0.7,1.6-1.6,1.7c-0.8,0.7-1.7,1.1-2.8,1.4c-0.1,0.2-0.2,0.3-0.3,0.5
					c-0.6,2.9-1.5,5.7-1.2,8.8c0.4,5.3,5.9,16.6,11.4,7.2c2.2-3.7,2.6-11,1-15C1095.3,981.2,1092.5,979.1,1089.8,979.3z"/>
				<path fill="none" d="M1065.4,1045c3.1,1.5,8.1,0.6,10.9-1.3c3.5-2.3,5.6-8.4,2-11.5C1071.3,1026.1,1060.4,1037.9,1065.4,1045z"
					/>
				<path fill="none" d="M1084.8,976.6c-2.6-6-7.6-11.9-14.2-10.7c0.7,3.9,2.4,8.6,5.9,10.4c1.9,1,4.2,1.6,6.3,1.6
					C1083.4,977.4,1084.1,977,1084.8,976.6z"/>
				<path fill="none" d="M1042.9,1038.2c-2.5-1.5-5.3-2.7-8.2-3.1c-1.6-0.2-3.9-0.5-6-0.3c0.1,0.3,0.2,0.6,0.2,1
					c0.4,1.8-0.8,3.2-2.6,3.4c-0.1,0-0.2,0-0.3,0c0.1,0.6,0.4,1.2,0.7,1.8c1.6,2.5,4.6,4.2,7.3,5.3c3.5,1.4,8.2,2.5,11.2-0.4
					c0.5-0.4,0.9-0.9,1.2-1.5c0.3-0.9,0.4-1.8,0.2-2.6C1046.5,1040.3,1044.2,1038.9,1042.9,1038.2z"/>
				<path fill="none" d="M987.8,998.7c-0.2,0-0.3,0-0.5,0.1c-0.3,0.9-0.8,1.7-1.3,2.4c0,0,0,0.1-0.1,0.1c-0.2,0.4-0.5,0.7-0.9,0.9
					c-0.3,0.3-0.7,0.4-1,0.5c-0.1,5.4,0.6,11.1,4.4,14.8c1.5,1.4,6.2,4.8,8.6,4.6c1.5-0.1,2.3-1.7,3.1-3.2c-0.1-0.3-0.1-0.7,0-1.1
					c1.4-6.2,0.8-10.9-3.8-15.5C993.7,999.8,991.4,998.3,987.8,998.7z"/>
				<path fill="none" d="M974.3,981.1c0.3,3.6,2.1,7.6,3.2,10.4c0.9,2.2,2,3.4,3.5,4.5c0.5-0.6,1.2-1.1,1.9-1.5c0-3.4-2.3-7.5-4-9.6
					C977.6,983.3,976,982.2,974.3,981.1z"/>
				<path fill="none" d="M1070.7,965.9c0.7,3.9,2.4,8.6,5.9,10.4c1.9,1,4.2,1.6,6.3,1.6c0.5-0.5,1.2-0.9,2-1.3
					C1082.2,970.6,1077.2,964.7,1070.7,965.9z"/>
				<path fill="none" d="M1008.3,1023.8c-0.6-0.1-1.2-0.3-1.8-0.4c1.3,2,2.5,4.2,4.2,5.9c1.8,1.9,3.8,3.7,6.2,4.9
					c0.8,0.4,1.7,0.8,2.6,1c0.2-1.3,1.1-2.5,2.2-3.5c-0.6-0.9-1.3-1.8-2.1-2.6C1016.4,1026.2,1012.3,1024.7,1008.3,1023.8z"/>
				<path fill="none" d="M1065.4,1045c3.1,1.5,8.1,0.6,10.9-1.3c3.5-2.3,5.6-8.4,2-11.5C1071.3,1026.1,1060.4,1037.9,1065.4,1045z"
					/>
				<path fill="none" d="M1089.8,979.3c0,0.9-0.7,1.6-1.6,1.7c-0.8,0.7-1.7,1.1-2.8,1.4c-0.1,0.2-0.2,0.3-0.3,0.5
					c-0.6,2.9-1.5,5.7-1.2,8.8c0.4,5.3,5.9,16.6,11.4,7.2c2.2-3.7,2.6-11,1-15C1095.3,981.2,1092.5,979.1,1089.8,979.3z"/>
				<path fill="none" d="M1081.8,1015.4c-2.3,4.2-3,6.8-2.3,11.4c0.2,0.1,0.3,0.2,0.5,0.3c0,0,0.1,0,0.1,0.1
					c3.6,0.7,5.8-4.2,7.2-7.1c1.1-2.3,4.1-8.9,2.5-11.4C1087.2,1004.6,1082.8,1013.5,1081.8,1015.4z"/>
				<g>
					<path fill="none" d="M977.5,991.5c0.9,2.2,2,3.4,3.5,4.5c0.2-0.3,0.4-0.5,0.7-0.7c0.4-0.3,0.8-0.6,1.2-0.8
						c0-0.7-0.1-1.5-0.3-2.3c-0.7-2.8-2.4-5.6-3.7-7.3c-1.3-1.6-2.9-2.7-4.7-3.8C974.6,984.7,976.3,988.7,977.5,991.5z"/>
					<path fill="none" d="M987.8,998.7c-0.2,0-0.3,0-0.5,0.1c-0.2,0.6-0.5,1.1-0.8,1.6c-0.2,0.3-0.3,0.5-0.5,0.8c0,0,0,0.1-0.1,0.1
						c-0.1,0.1-0.1,0.2-0.2,0.3c-0.2,0.2-0.5,0.4-0.7,0.6c-0.3,0.3-0.7,0.4-1,0.5c0,1.1,0,2.1,0.1,3.2c0.2,4.4,1.3,8.7,4.3,11.6
						c1.5,1.4,6.2,4.8,8.6,4.6c1.4-0.1,2.2-1.5,2.9-2.9c0-0.1,0.1-0.2,0.1-0.3c-0.1-0.3-0.1-0.7,0-1.1c0.3-1.2,0.5-2.4,0.6-3.5
						c0.4-4.6-0.7-8.3-4.4-12.1c-1.8-1.8-3.5-3-5.6-3.4C989.7,998.6,988.8,998.6,987.8,998.7z"/>
					<path fill="none" d="M1021.6,1031.7c-0.6-0.9-1.3-1.8-2.1-2.6c-3.1-2.9-7.1-4.4-11.2-5.4c-0.6-0.1-1.2-0.3-1.8-0.4
						c0.1,0.2,0.2,0.3,0.3,0.5c1.2,1.9,2.4,3.8,3.9,5.4s3.1,3,4.9,4.2c0.4,0.3,0.8,0.5,1.2,0.7c0.8,0.4,1.7,0.8,2.6,1
						c0-0.3,0.1-0.6,0.2-0.8c0.3-0.9,1-1.8,1.8-2.5C1021.4,1031.8,1021.5,1031.8,1021.6,1031.7z"/>
					<path fill="none" d="M1026.4,1039.2c-0.1,0-0.2,0-0.3,0c0.1,0.6,0.4,1.2,0.7,1.8c0.4,0.7,1,1.3,1.6,1.9
						c1.6,1.5,3.7,2.6,5.6,3.4c3.5,1.4,8.2,2.5,11.2-0.4c0.5-0.4,0.9-0.9,1.2-1.5c0.1-0.3,0.1-0.5,0.2-0.8c0.1-0.6,0.1-1.2,0-1.8
						c-0.3-1.6-2.6-3-3.8-3.7c-2.5-1.5-5.3-2.7-8.2-3.1c-1.4-0.2-3.4-0.4-5.3-0.3c-0.2,0-0.5,0-0.7,0c0.1,0.3,0.2,0.6,0.2,1
						c0.2,0.9,0,1.8-0.5,2.4C1028,1038.8,1027.3,1039.2,1026.4,1039.2z"/>
					<path fill="none" d="M1064.3,1039.2c-0.4,2-0.2,4.1,1.1,5.8c3.1,1.5,8.1,0.6,10.9-1.3c1.5-1,2.8-2.7,3.4-4.5
						c0.8-2.3,0.6-4.9-1.2-6.7c-0.1-0.1-0.2-0.2-0.2-0.3c-0.4-0.3-0.8-0.6-1.2-0.8C1072,1028.5,1065.5,1033.6,1064.3,1039.2z"/>
					<path fill="none" d="M1085.5,982.4c-0.1,0.2-0.2,0.3-0.3,0.5c-0.1,0.3-0.1,0.6-0.2,0.9c-0.6,2.6-1.3,5.1-1,7.9
						c0.3,3.7,3.1,10.4,6.6,10.8c0.6,0.1,1.2,0,1.8-0.4c1-0.5,1.9-1.5,2.9-3.2c2.2-3.7,2.6-11,1-15c-1-2.7-3.8-4.8-6.5-4.6
						c0,0.8-0.5,1.4-1.2,1.6c-0.1,0-0.2,0.1-0.3,0.1C1087.5,981.7,1086.5,982.2,1085.5,982.4z"/>
					<path fill="none" d="M1080,1027.1C1080,1027.1,1080.1,1027.1,1080,1027.1c0.5,0.2,0.9,0.2,1.2,0.1c1.1-0.1,2-0.8,2.8-1.7
						c1.4-1.5,2.5-3.8,3.3-5.5c0.4-0.9,1.1-2.4,1.7-4c1-2.7,1.8-5.9,0.8-7.4c-1.4-2.2-3.4-0.5-5,1.8c-1.4,1.9-2.5,4.2-3,5
						c-2.3,4.2-3,6.8-2.3,11.4C1079.6,1026.9,1079.8,1027,1080,1027.1z"/>
					<path fill="none" d="M1076.6,976.3c1.5,0.8,3.3,1.3,5.1,1.5c0.4,0,0.8,0.1,1.2,0.1c0.5-0.5,1.2-0.9,2-1.3
						c-0.3-0.7-0.7-1.4-1-2.1c-2.8-5.2-7.4-9.7-13.2-8.6C1071.3,969.8,1073,974.5,1076.6,976.3z"/>
					<path fill="none" d="M1008.3,1023.8c-0.6-0.1-1.2-0.3-1.8-0.4c0.1,0.2,0.2,0.3,0.3,0.5c1.2,1.9,2.4,3.8,3.9,5.4s3.1,3,4.9,4.2
						c0.4,0.3,0.8,0.5,1.2,0.7c0.8,0.4,1.7,0.8,2.6,1c0-0.3,0.1-0.6,0.2-0.8c0.3-0.9,1-1.8,1.8-2.5c0.1-0.1,0.1-0.1,0.2-0.2
						c-0.6-0.9-1.3-1.8-2.1-2.6C1016.4,1026.2,1012.3,1024.7,1008.3,1023.8z"/>
					<path fill="none" d="M1042.9,1038.2c-2.5-1.5-5.3-2.7-8.2-3.1c-1.4-0.2-3.4-0.4-5.3-0.3c-0.2,0-0.5,0-0.7,0
						c0.1,0.3,0.2,0.6,0.2,1c0.2,0.9,0,1.8-0.5,2.4s-1.2,1-2.1,1.1c-0.1,0-0.2,0-0.3,0c0.1,0.6,0.4,1.2,0.7,1.8
						c0.4,0.7,1,1.3,1.6,1.9c1.6,1.5,3.7,2.6,5.6,3.4c3.5,1.4,8.2,2.5,11.2-0.4c0.5-0.4,0.9-0.9,1.2-1.5c0.1-0.3,0.1-0.5,0.2-0.8
						c0.1-0.6,0.1-1.2,0-1.8C1046.5,1040.3,1044.2,1038.9,1042.9,1038.2z"/>
					<path fill="none" d="M978.9,984.9c-1.3-1.6-2.9-2.7-4.7-3.8c0.3,3.6,2.1,7.6,3.2,10.4c0.9,2.2,2,3.4,3.5,4.5
						c0.2-0.3,0.4-0.5,0.7-0.7c0.4-0.3,0.8-0.6,1.2-0.8c0-0.7-0.1-1.5-0.3-2.3C982,989.4,980.3,986.5,978.9,984.9z"/>
					<path fill="none" d="M990.6,998.8c-0.8-0.2-1.7-0.2-2.8-0.1c-0.2,0-0.3,0-0.5,0.1c-0.2,0.6-0.5,1.1-0.8,1.6
						c-0.2,0.3-0.3,0.5-0.5,0.8c0,0,0,0.1-0.1,0.1c-0.1,0.1-0.1,0.2-0.2,0.3c-0.2,0.2-0.5,0.4-0.7,0.6c-0.3,0.3-0.7,0.4-1,0.5
						c0,1.1,0,2.1,0.1,3.2c0.2,4.4,1.3,8.7,4.3,11.6c1.5,1.4,6.2,4.8,8.6,4.6c1.4-0.1,2.2-1.5,2.9-2.9c0-0.1,0.1-0.2,0.1-0.3
						c-0.1-0.3-0.1-0.7,0-1.1c0.3-1.2,0.5-2.4,0.6-3.5c0.4-4.6-0.7-8.3-4.4-12.1C994.4,1000.5,992.7,999.2,990.6,998.8z"/>
					<path fill="none" d="M1083.8,974.5c-2.8-5.2-7.4-9.7-13.2-8.6c0.7,3.9,2.4,8.6,5.9,10.4c1.5,0.8,3.3,1.3,5.1,1.5
						c0.4,0,0.8,0.1,1.2,0.1c0.5-0.5,1.2-0.9,2-1.3C1084.5,975.9,1084.2,975.2,1083.8,974.5z"/>
					<path fill="none" d="M1089.8,979.3c0,0.8-0.5,1.4-1.2,1.6c-0.1,0-0.2,0.1-0.3,0.1c-0.8,0.7-1.7,1.1-2.8,1.4
						c-0.1,0.2-0.2,0.3-0.3,0.5c-0.1,0.3-0.1,0.6-0.2,0.9c-0.6,2.6-1.3,5.1-1,7.9c0.3,3.7,3.1,10.4,6.6,10.8c0.6,0.1,1.2,0,1.8-0.4
						c1-0.5,1.9-1.5,2.9-3.2c2.2-3.7,2.6-11,1-15C1095.3,981.2,1092.5,979.1,1089.8,979.3z"/>
					<path fill="none" d="M1078.3,1032.2c-0.4-0.3-0.8-0.6-1.2-0.8c-5.1-2.9-11.6,2.2-12.7,7.8c-0.4,2-0.2,4.1,1.1,5.8
						c3.1,1.5,8.1,0.6,10.9-1.3c1.5-1,2.8-2.7,3.4-4.5c0.8-2.3,0.6-4.9-1.2-6.7C1078.4,1032.4,1078.3,1032.3,1078.3,1032.2z"/>
					<path fill="none" d="M1084.8,1010.4c-1.4,1.9-2.5,4.2-3,5c-2.3,4.2-3,6.8-2.3,11.4c0.2,0.1,0.3,0.2,0.5,0.3c0,0,0.1,0,0.1,0.1
						c0.4,0.1,0.8,0.1,1.1,0c1.1-0.1,2-0.8,2.8-1.7c1.4-1.5,2.5-3.8,3.3-5.5c0.4-0.9,1.1-2.4,1.7-4c1-2.7,1.8-5.9,0.8-7.4
						C1088.4,1006.4,1086.4,1008.1,1084.8,1010.4z"/>
					<path fill="#FDAF4B" d="M1101.3,987c-0.7-4.5-2.6-8.6-6.4-10.7c-1.6-0.9-4-1.1-6.4-0.8c-1.8-4.4-4.8-8.9-8.5-11.6
						c-2.3-1.7-7.7-3.6-10.8-2.2c-0.8-2-2.4-3.4-7.1-4.1c-0.3,0-0.6-0.1-0.9-0.1c-1.2-0.1-2.2-0.1-3,0.1c-3.2,0.6-4.1,2.7-4.1,2.7
						c0.4,1.3,1.1,2.3,1.1,2.3s1-0.3,2.4-0.6c2.1-0.4,5.1-0.6,7,0.9c3.2,2.6,0.9,7.5,0.9,7.5c0.7,0.8,2.2,1.7,2.6,2
						c0.1,0,0.1,0.1,0.1,0.1l0,0c0.1,0.3,0.2,0.6,0.3,0.9c0.9,2.4,2.4,4.5,4.4,6c0.1,0.1,0.2,0.2,0.3,0.2c1.8,1.3,4.7,2.5,7.6,2.9
						c-0.1,0.1-0.1,0.2-0.1,0.3c-0.5,1.2-0.9,2.4-1.2,3.6c-0.4,1.6-0.5,3.3-0.4,5.3c0.2,3.3,1.2,6.5,2.8,9.3c0.5,0.8,1,1.6,1.6,2.3
						c0.2,0.3,0.5,0.5,0.7,0.8c0.2,0.2,0.5,0.4,0.7,0.6c-1.3,1.1-2.5,2.6-3.5,3.9c-2.7,3.6-5.7,8.4-6.1,13c-0.1,1.3,0,2.6,0.4,3.9
						c-1-0.2-2-0.2-3-0.1c-5.6,0.6-10.3,5.6-12.3,10.8c-0.5,1.3-0.8,2.7-0.9,4c0,0-0.4,0-0.9,0c-0.9,0-2.2,0.1-3.4,0.3
						c-1,0.1-2,0.3-2.6,0.6c-0.1-0.3-0.1-0.6-0.2-0.9c-0.4-1.4-1.1-2.6-2-3.7c-2.4-2.9-6.2-4.7-9.6-6c-4.3-1.7-10-2.5-14.7-1.3
						c-2.1-3.1-5-5.7-8.3-7.6c-3.3-1.9-8.6-4.5-13-4.1c2-8.4-0.2-15.8-7.2-21.4c-3-2.4-6.2-3.6-10-3.1c-0.8-6.3-5.7-13.2-10.8-16.8
						c-1.2-0.8-2.3-1.4-3.5-1.9c0-0.8,0.2-1.5,0.8-1.7c1.6-0.7,4.9,3,4.9,3c0.6-0.2,1.3-0.7,1.8-1.2c0.6-0.5,1-1,1-1
						c-2.2-6-6.6-6.9-10.1-6.3c-3.5,0.5-6.3,3.3-6.7,9.5c-0.2,3.2,0.8,4.9,1.8,5.8c0.9,0.8,1.8,1,1.8,1s0.6-0.5,1.5-1.2
						c1,3.9,2.6,7.7,4.2,11.2c1.4,2.9,2.8,6.3,5.3,8c-0.4,3.3,0.2,6.8,0.8,9.9c0.9,4.9,3.2,9.2,7.4,12.2c3.1,2.2,7.9,5.1,11.8,3.5
						c0.6-0.2,1.2-0.6,1.8-1.1c1.4,2.8,3.8,5.4,5.6,7.3c3.3,3.4,8.2,7.5,13.2,8.1c0.2,0.7,0.5,1.3,0.9,2c2.5,4.2,7.8,7.1,12.3,8.6
						c4.6,1.5,10.4,2,14.3-1.3l0,0c2.4-1.2,3.9-3.2,4.5-5.6c1.8,8.1,3.8,16.8,3.8,16.8l7-1.4c0,0,0.2-3.9,0-6.1c0-0.1,0-0.2,0-0.2
						c-0.1-0.7-0.5-2.6-1.1-4.7c0.1,0.1,0.1,0.1,0.2,0.2c0.2,0.1,0.4,0.2,0.6,0.3c5.7,3.3,15.1,0.5,19.1-4.2
						c1.9-2.2,2.9-4.9,3.1-7.7c0.1-1.8-0.1-3.7-0.7-5.3c-0.1-0.3-0.3-0.7-0.4-1c2.1-1,3.9-2.8,5.2-4.7c3.3-5.2,7.9-14.2,4.7-20.5
						c3-1.1,4.9-4.3,6-7.2C1101.5,995.9,1102,991.3,1101.3,987z M981.7,995.3c-0.3,0.2-0.5,0.5-0.7,0.7c-1.5-1-2.6-2.3-3.5-4.5
						c-1.2-2.8-2.9-6.8-3.2-10.4c1.7,1,3.4,2.2,4.7,3.8c1.4,1.6,3,4.5,3.7,7.3c0.2,0.8,0.3,1.6,0.3,2.3
						C982.5,994.7,982.1,995,981.7,995.3z M1000.6,1014.3c-0.1,1.1-0.3,2.3-0.6,3.5c-0.1,0.4-0.1,0.8,0,1.1c0,0.1-0.1,0.2-0.2,0.3
						c-0.8,1.4-1.5,2.8-2.9,2.9c-2.3,0.2-7.1-3.2-8.5-4.6c-3-3-4.1-7.2-4.3-11.6c-0.1-1.1-0.1-2.1-0.1-3.2c0.4-0.1,0.7-0.2,1-0.5
						c0.3-0.2,0.5-0.4,0.7-0.6c0.1-0.1,0.2-0.2,0.2-0.3c0,0,0-0.1,0.1-0.1c0.2-0.2,0.3-0.5,0.5-0.8c0.3-0.5,0.6-1.1,0.8-1.6
						c0.2,0,0.3,0,0.5-0.1c1-0.1,1.9,0,2.8,0.2c2.1,0.4,3.8,1.7,5.6,3.4C999.9,1006,1001,1009.7,1000.6,1014.3z M1021.4,1031.9
						c-0.8,0.7-1.4,1.6-1.8,2.5c-0.1,0.3-0.2,0.6-0.2,0.8c-0.9-0.3-1.8-0.6-2.6-1c-0.4-0.2-0.8-0.5-1.2-0.7
						c-1.8-1.2-3.4-2.6-4.9-4.2s-2.7-3.5-3.9-5.4c-0.1-0.2-0.2-0.3-0.3-0.5c0.6,0.1,1.2,0.2,1.8,0.4c4,1,8.1,2.5,11.1,5.3
						c0.9,0.8,1.5,1.7,2.2,2.6C1021.5,1031.8,1021.4,1031.8,1021.4,1031.9z M1046.8,1043.7c0,0.3-0.1,0.5-0.2,0.8
						c-0.4,0.5-0.7,1-1.2,1.5c-3,2.9-7.8,1.8-11.2,0.4c-1.9-0.8-4-1.9-5.6-3.4c-0.6-0.6-1.2-1.2-1.6-1.9c-0.4-0.6-0.6-1.2-0.7-1.8
						c0.1,0,0.2,0,0.3,0c0.9-0.1,1.6-0.5,2.1-1.1s0.7-1.4,0.5-2.4c-0.1-0.3-0.2-0.6-0.2-1c0.2,0,0.5,0,0.7,0
						c1.9-0.1,3.9,0.2,5.3,0.3c2.9,0.4,5.7,1.6,8.2,3.1c1.2,0.7,3.5,2.1,3.8,3.7C1046.9,1042.5,1046.9,1043.1,1046.8,1043.7z
						 M1076.6,976.3c-3.6-1.8-5.2-6.5-5.9-10.4c5.8-1.1,10.4,3.4,13.2,8.6c0.4,0.7,0.7,1.4,1,2.1c-0.8,0.4-1.4,0.8-2,1.3
						c-0.4,0-0.8,0-1.2-0.1C1079.9,977.6,1078.1,977.1,1076.6,976.3z M1079.7,1039.2c-0.6,1.9-1.9,3.5-3.4,4.5
						c-2.8,1.8-7.8,2.8-10.9,1.3c-1.2-1.8-1.5-3.8-1.1-5.8c1.2-5.6,7.6-10.7,12.8-7.8c0.4,0.2,0.8,0.5,1.2,0.8
						c0.1,0.1,0.2,0.2,0.2,0.3C1080.3,1034.2,1080.5,1036.8,1079.7,1039.2z M1089.1,1016c-0.6,1.7-1.3,3.2-1.7,4
						c-0.8,1.7-1.9,3.9-3.3,5.5c-0.8,0.9-1.8,1.5-2.8,1.6c-0.4,0.1-0.7,0.1-1.1,0c0,0-0.1,0-0.1-0.1c-0.2-0.1-0.3-0.2-0.5-0.3
						c-0.7-4.6,0-7.2,2.3-11.4c0.5-0.8,1.6-3.1,3-5c1.6-2.3,3.6-3.9,5-1.8C1090.8,1010.2,1090,1013.3,1089.1,1016z M1095.3,998.9
						c-1,1.7-2,2.7-2.9,3.2c-0.6,0.3-1.2,0.4-1.8,0.4c-3.5-0.4-6.3-7.1-6.6-10.8c-0.2-2.8,0.4-5.3,1-7.9c0.1-0.3,0.1-0.6,0.2-0.9
						c0.1-0.2,0.2-0.3,0.3-0.5c1.1-0.2,2-0.7,2.8-1.4c0.1,0,0.2-0.1,0.3-0.1c0.7-0.3,1.2-0.8,1.2-1.6c2.7-0.2,5.4,1.9,6.5,4.6
						C1097.8,987.9,1097.4,995.1,1095.3,998.9z"/>
				</g>
				<path opacity="0.3" fill="#091426" enable-background="new    " d="M987.8,998.7c1-0.1,1.9,0,2.8,0.1c-0.1-0.1-0.2-0.3-0.3-0.4
					c-2.3-2.3-5.3-4-7.7-6.3c0.2,0.8,0.3,1.6,0.3,2.3c-0.5,0.2-0.9,0.5-1.2,0.8c1.4,1.9,3,3.6,4.8,5c0.3-0.5,0.6-1.1,0.8-1.6
					C987.5,998.7,987.7,998.7,987.8,998.7z"/>
				<path opacity="0.3" fill="#091426" enable-background="new    " d="M1000,1018.9c0,0.1-0.1,0.2-0.1,0.3c0.3,0.3,0.6,0.7,0.9,1
					c1.8,1.6,3.8,2.7,6,3.8c-0.1-0.2-0.2-0.3-0.3-0.5c0.6,0.1,1.2,0.2,1.8,0.4c4,1,8.1,2.5,11.2,5.4c0.8,0.8,1.5,1.7,2.1,2.6
					c-0.1,0.1-0.2,0.1-0.2,0.2c1.9,2,2.6,4.2,3.2,7.1c0.4,2.4,2,3.4,4,3.9c-0.6-0.6-1.2-1.2-1.6-1.9c-0.4-0.6-0.6-1.2-0.7-1.8
					c0.1,0,0.2,0,0.3,0c0.9-0.1,1.6-0.5,2.1-1.1c-0.1-0.1-0.3-0.1-0.4-0.2c-3-1.7-2.5-3.8-4.1-6.4c-1.2-2-3.1-3.8-5-5.3
					c-5.6-4.3-14.2-6.3-18.4-12c-0.1,1.1-0.3,2.3-0.6,3.5C999.9,1018.2,999.9,1018.5,1000,1018.9z"/>
				<path opacity="0.3" fill="#091426" enable-background="new    " d="M1062.2,1054.1c-1.2,0.3-2.5,0.4-3.7,0.9
					c-0.6-2.3-1.5-4.5-2-6.7c-0.6-2.5-0.7-5.2-1.2-7.7c-1,0.1-2,0.3-2.6,0.6c-0.1-0.3-0.1-0.6-0.2-0.9c-0.4-1.4-1.1-2.6-2-3.7
					c-0.1,2.8-0.7,5.5-1.3,8.3c-0.2,0.9-0.3,2-0.6,3c-0.3,0.1-0.6,0.2-0.9,0.4c-4.8,3.9-13.7,1.7-18.6-0.8c-3.7-1.9-5.8-4.7-8.1-7.6
					c-0.4-1.1-0.8-2.2-1-3.4c-0.1-0.7-0.2-1.4-0.3-2.1c-0.1,0.3-0.2,0.6-0.2,0.8c-0.9-0.3-1.8-0.6-2.6-1c-0.4-0.2-0.8-0.5-1.2-0.7
					c-0.1,0.4-0.1,0.9-0.1,1.3c-2.1-1.2-4.3-2.4-6.2-4c-2.4-2-4.7-4.8-6.1-7.7c-0.2-0.4-0.8-0.3-0.9,0.1c0,0.1-0.1,0.2-0.1,0.2h-0.1
					c-6.4,0.2-12.3,0.8-16.5-5c-3.4-4.7-3.7-10-5.5-15.2c1.2,1.1,2.6,2,4.1,2.5c-0.1-1.1-0.1-2.1-0.1-3.2c0.3-0.1,0.7-0.2,1-0.5
					c0.3-0.1,0.6-0.3,0.7-0.6c-0.7-0.2-1.5-0.3-2.3-0.6c-3.5-1.3-5.3-4.7-7.2-7.9c-1.6-2.7-3.1-5.4-4-8.5c-0.6-2.1-0.5-4.2-1.3-6.2
					c0.1-0.2,0.3-0.4,0.5-0.6c0.9-0.9,2.2-1.4,3.5-1.5c0.8,0,1.4,0.1,2-0.1c-1.2-0.8-2.3-1.4-3.5-1.9c0-0.8,0.2-1.5,0.8-1.7
					c1.6-0.7,4.9,3,4.9,3c0.6-0.2,1.3-0.7,1.8-1.2c-0.6-1.3-1.9-2.4-3-3.1c-1.5-1-4.2-1.6-5.8-0.8c-0.5,0.3-0.8,0.9-0.8,1.4
					c0,0.4,0.2,0.7,0.3,1.1c0.1,0.2,0.1,0.5,0.1,0.8c-1.1,0.5-2,1.1-2.6,1.7c-1.6,1.7-2.3,4.3-2.1,6.8c0.9,0.8,1.8,1,1.8,1
					s0.6-0.5,1.5-1.2c1,3.9,2.6,7.7,4.2,11.2c1.4,2.9,2.8,6.3,5.3,8c-0.4,3.3,0.2,6.8,0.8,9.9c0.9,4.9,3.3,9.2,7.4,12.2
					c3.1,2.2,7.9,5.1,11.8,3.5c0.6-0.3,1.3-0.6,1.8-1.1c1.4,2.8,3.7,5.4,5.6,7.3c3.3,3.4,8.2,7.5,13.2,8.1c0.2,0.7,0.5,1.3,0.9,2
					c2.5,4.2,7.8,7.1,12.2,8.6c4.6,1.5,10.4,2,14.3-1.3l0,0c2.4-1.2,3.9-3.2,4.5-5.6c1.8,8.1,3.8,16.8,3.8,16.8l7-1.4
					c0,0,0.2-3.9,0-6.1C1063.1,1054.1,1062.6,1054,1062.2,1054.1z"/>
				<path opacity="0.3" fill="#091426" enable-background="new    " d="M1034.7,1035.2c2.9,0.4,5.7,1.6,8.2,3.1
					c1.3,0.7,3.5,2.1,3.8,3.7c0.1,0.6,0.1,1.2,0,1.8c0.7-0.7,1.1-1.7,0.9-3c-0.5-3-4.8-5.4-7.2-6.6c-2.6-1.3-6.5-2.6-9.4-1.5
					c-1.1,0.4-1.6,1.2-1.6,2.1C1031.4,1034.8,1033.4,1035,1034.7,1035.2z"/>
				<path opacity="0.3" fill="#091426" enable-background="new    " d="M1073.1,1028.4c-3,0.6-6,2.2-7.8,4.5
					c-1.6,2.2-1.6,4.2-0.9,6.3c1.2-5.6,7.6-10.7,12.7-7.8v-0.1c0.2-0.4,0.2-0.9,0.2-1.3c0.1-1.8-0.2-3.7-0.6-5.4
					c-0.2-0.9-0.5-2-1.1-2.8c-0.1,1.3,0,2.6,0.4,3.9c-1-0.2-2-0.2-3-0.1c0,0.1,0,0.2,0,0.3C1073.1,1026.7,1073,1027.5,1073.1,1028.4
					z"/>
				<path opacity="0.3" fill="#091426" enable-background="new    " d="M1076.5,1045.9c-2.2,0.8-6,2-8.3,1.5c-5.4-1.1-7-6.3-7.6-11
					c-0.5,1.3-0.8,2.7-0.9,4l0,0c0,0-0.4,0-0.9,0c0.4,3.1,1.6,5.9,3.6,8c0.2,0.5,0.5,1,0.8,1.5c5.7,3.3,15.1,0.5,19.1-4.2
					c1.9-2.2,2.9-4.9,3.1-7.7C1082.7,1040.8,1080.6,1044.4,1076.5,1045.9z"/>
				<path opacity="0.3" fill="#091426" enable-background="new    " d="M1079.7,1039.2c3-1.6,2.3-7.5,0.4-9.6
					c-0.5-0.5-1.2-0.2-1.4,0.4c-0.3,0.7-0.3,1.6-0.2,2.5C1080.3,1034.2,1080.5,1036.8,1079.7,1039.2z"/>
				<path opacity="0.3" fill="#091426" enable-background="new    " d="M1089.5,1027c3.3-5.2,7.9-14.2,4.7-20.5c3-1.1,4.9-4.3,6-7.2
					c1.3-3.4,1.8-8,1.2-12.3c-0.4,3.1-1.1,6.3-2.2,9.2c-1.4,3.7-5,6.2-6,9.8c0,0.1,0,0.1,0,0.2c-0.9,0.2-1.8,0.5-2.5,0.8
					c-0.2,0.1-0.4,0.1-0.6,0.2c0.1-0.3,0.3-0.6,0.4-0.9c0.6-1.4,1.4-2.8,1.8-4.3c-0.6,0.3-1.2,0.4-1.8,0.4c-0.2,0.4-0.5,0.8-0.8,1.1
					c-0.6,0.8-1.5,1.3-2.2,1.9c-1.2,1-2.2,2.5-2.8,4c-0.1,0.3-0.1,0.7-0.1,0.9c1.6-2.3,3.6-3.9,5-1.8c1,1.5,0.2,4.7-0.8,7.4
					c1.6-2.7,3-6.1,5.8-5.8c-1.2,2.9-1.8,6.1-3.2,9c-1.5,3.3-3.4,6.1-5.4,9.1c-0.4-0.6-0.9-1.1-1.2-1.6c-0.3-0.4-0.6-0.8-1-1.2
					c-0.8,0.9-1.8,1.5-2.8,1.7c0.3,0.6,0.7,1.2,0.9,1.6c0.7,1.2,1.5,2.9,2.6,3.9c-0.1-0.3-0.3-0.7-0.4-1
					C1086.3,1030.7,1088.2,1028.9,1089.5,1027z"/>
				<path opacity="0.3" fill="#091426" enable-background="new    " d="M1085.5,982.4c1.1-0.2,2-0.7,2.8-1.4c0.1,0,0.2-0.1,0.3-0.1
					c-0.6-1.2-1.5-2.3-2.2-3.3s-1.6-2.2-2.6-3.1c0.4,0.7,0.7,1.4,1,2.1c-0.7,0.4-1.4,0.8-2,1.3c-0.4,0-0.8,0-1.2-0.1
					c0.4,0.8,0.9,1.5,1.2,2.2c0.6,1.1,1.2,2.6,2,3.7c0.1-0.3,0.1-0.6,0.2-0.9C1085.2,982.7,1085.4,982.6,1085.5,982.4z"/>
				<path opacity="0.3" fill="#091426" enable-background="new    " d="M1068,969.8c-0.3-1.1-0.9-2.2-1-3.3c-0.1-0.7,0-1.4-0.1-2.1
					c-0.6-3.4-3.6-4.3-5.7-6.8c0,0,0,0-0.1-0.1c-1.2-0.1-2.2-0.1-3.1,0.1c-1.3,1.1-1.2,2.8-0.6,4.3c2.1-0.4,5.1-0.6,7,0.9
					c3.2,2.6,0.9,7.5,0.9,7.5c0.7,0.8,2.2,1.7,2.6,2C1068.4,971.6,1068.3,970.9,1068,969.8z"/>
				<path fill="#FFF8EF" d="M980.3,982.7c0,1.7,0.9,3.6,1.4,5.2c0.3,0.9,0.6,3.2,2.1,2.6c1.4-0.6,0.3-3,0-4
					c-0.5-1.4-1.1-3.6-2.5-4.4C980.9,981.9,980.3,982.2,980.3,982.7L980.3,982.7z"/>
				<path fill="#FFF8EF" d="M996.8,999c2.7,2,4.1,4.9,5.5,7.8c0.2,0.4,0.7,0.5,1.1,0.5c0.2,0,0.3-0.1,0.4-0.3
					c0.4-0.3,0.3-0.8,0.2-1.2c-1.6-3.3-3.4-6-6.5-8.1C996.7,997.2,996,998.4,996.8,999L996.8,999z"/>
				<path fill="#FFF8EF" d="M985.6,1016.6c0.7,1.8,2.2,3.8,4.1,4.3c1,0.3,1.9-1.1,1.1-1.8c-1.2-1.1-3.1-1.5-4-3
					C986.4,1015.5,985.3,1015.9,985.6,1016.6L985.6,1016.6z"/>
				<path fill="#FFF8EF" d="M1007.2,1027.3c0.5,1.3,1,2.5,1.9,3.6c0.8,1,1.9,2,3.3,1.7c1.1-0.3,1.2-1.8,0.3-2.4
					c-0.4-0.2-0.8-0.3-1.1-0.5c-0.4-0.2-0.7-0.6-1-0.9c-0.7-0.7-1.5-1.4-2.2-2.2C1008,1026.1,1007,1026.6,1007.2,1027.3
					L1007.2,1027.3z"/>
				<path fill="#FFF8EF" d="M1015.7,1022.1c2.3,1.4,4.1,3.6,5.8,5.7c1.3,1.6,2.7,4.2,4.6,4.9c0.6,0.2,1.1-0.3,1.1-0.9
					c0.2-2.2-2.8-5-4.2-6.6c-1.9-2.1-4.1-3.6-6.7-4.5C1015.5,1020.4,1015,1021.6,1015.7,1022.1L1015.7,1022.1z"/>
				<path fill="#FFF8EF" d="M1027.3,1043.4c0.6,1.5,1.9,2.8,3.3,3.7c1.2,0.8,3.3,1.7,4.7,0.8c0.7-0.5,0.8-1.5,0-2
					c-1.1-0.7-2.6-0.6-3.8-1.1c-1.3-0.5-2.4-1.4-3.6-1.8C1027.6,1042.8,1027.2,1043.1,1027.3,1043.4L1027.3,1043.4z"/>
				<path fill="#FFF8EF" d="M1041.9,1033c0,1.3,1.6,1.8,2.5,2.4c0.7,0.5,1.3,1,1.8,1.6c0.5,0.5,0.8,1,1.6,1.1c1,0.2,1.8-0.8,1.3-1.7
					c-0.8-1.6-2.4-2.7-4-3.4c-0.7-0.3-1.6-0.8-2.4-0.6C1042.5,1032.5,1041.9,1032.7,1041.9,1033L1041.9,1033z"/>
				<path fill="#FFF8EF" d="M1057.1,1042c0.2,1.2,0.7,2.3,0.9,3.6c0.2,1.2,0.5,2.4,0.8,3.7c0.5,1.9,3.2,1.1,2.9-0.8
					c-0.4-2.5-1.8-5.3-3.8-6.9C1057.5,1041.1,1057,1041.4,1057.1,1042L1057.1,1042z"/>
				<path fill="#FFF8EF" d="M1081.3,1030.5c0.3,0.9,0.7,1.7,0.9,2.5c0.3,0.9,0.3,1.8,0.4,2.8c0.2,2,3,1.7,2.7-0.4
					c-0.3-1.9-1.2-4.4-2.6-5.8C1082.2,1029,1081.1,1029.7,1081.3,1030.5L1081.3,1030.5z"/>
				<path fill="#FFF8EF" d="M1083.9,1007.7c0.7-0.4,1.2-1.1,1.9-1.5c0.5-0.3,0.9-0.7,1.4-1.1c0.4-0.4,0.9-0.6,1-1.3
					c0.2-0.8-0.3-1.4-1.1-1.5c-1.1-0.1-2.2,1.3-2.7,2.2c-0.2,0.4-0.5,0.8-0.5,1.3c-0.1,0.5,0,1.1-0.3,1.5
					C1083.4,1007.5,1083.7,1007.8,1083.9,1007.7L1083.9,1007.7z"/>
				<path fill="#FFF8EF" d="M1093.1,977.5c0.9,1.2,2.1,2.2,2.8,3.6c0.8,1.4,1.4,2.8,1.7,4.4c0.4,2,3.5,1.1,3-0.8
					c-0.7-3.3-3.1-7.5-6.6-8.3C1093.4,976.1,1092.7,976.8,1093.1,977.5L1093.1,977.5z"/>
			</g>
			<path opacity="0.3" fill="#091426" enable-background="new    " d="M1081.2,979.2c-1.2-0.3-2.5-0.2-3.7-0.7s-2.4-1.2-3.4-2
				c-1.2-0.8-2-1.8-2.7-3c-0.6-1-0.7-1.7-1.7-2.2c-0.2-0.1-0.4-0.1-0.5,0.1c-0.9,2.1,1.9,5.5,3.2,7.1c0.2,0.2,0.4,0.5,0.6,0.7
				c0.1,0.1,0.2,0.2,0.3,0.2c1.8,1.3,4.7,2.5,7.5,2.9c0,0.1-0.1,0.2-0.1,0.3c0,0,0,0,0.1,0C1082.7,982.7,1083.3,979.7,1081.2,979.2z
				"/>
			<path opacity="0.3" fill="#091426" enable-background="new    " d="M1085.2,1001.1c0.4-2.6-1.9-4.8-3-7.1c-1-2.3-1-5.7-2.7-7.7
				c-0.4,1.6-0.5,3.3-0.4,5.3c0.2,3.3,1.2,6.5,2.8,9.3c0.5,0.5,1,0.8,1.7,1C1084.2,1002.1,1085.1,1001.8,1085.2,1001.1z"/>
		</g>
		<path opacity="0.3" fill="#091426" enable-background="new    " d="M1028.3,1144.1c-3,0.9-4.8,2.2-4.8,3.8c0,1.6,0.8,5,3.7,4.5
			s3.8-4.7,3.8-4.7L1028.3,1144.1z"/>
		<g>
			<g>
				<path fill="#9BB0EE" d="M1032.2,1146.6c0,1-0.4,1.9-1.1,2.5c-0.5,0.4-1,0.6-1.7,0.6c-1.5,0-2.8-1.4-2.8-3.1
					c0-0.7,0.2-1.3,0.5-1.8c0.5-0.8,1.3-1.3,2.3-1.3C1031,1143.5,1032.2,1144.9,1032.2,1146.6z"/>
			</g>
			<path opacity="0.3" fill="#091426" enable-background="new    " d="M1029.4,1149.7c0.6,0,1.2-0.2,1.7-0.6c-1.5,0-3-0.9-3-2
				c-0.1-1-0.4-1.8-0.9-2.2c-0.3,0.5-0.5,1.1-0.5,1.8C1026.6,1148.3,1027.9,1149.7,1029.4,1149.7z"/>
			<path fill="#FFF8EF" d="M1029.3,1145.6c0.2,0.2,0.3,0.5,0.4,0.8s0.4,0.5,0.7,0.7c0,0,0,0,0.1,0c0.3,0.1,0.6,0,0.8-0.2
				c0,0,0,0,0.1-0.1c0.2-0.2,0.3-0.6,0.2-0.9c-0.3-0.8-0.7-1.2-1.5-1.5C1029.3,1144.3,1028.8,1145.2,1029.3,1145.6L1029.3,1145.6z"
				/>
		</g>
		<g>
			<g>
				<path fill="#9BB0EE" d="M1039.5,1155c0,1-0.4,1.9-1.1,2.5c-0.5,0.4-1,0.6-1.7,0.6c-1.5,0-2.8-1.4-2.8-3.1c0-0.7,0.2-1.3,0.5-1.8
					c0.5-0.8,1.3-1.3,2.3-1.3C1038.3,1151.9,1039.5,1153.3,1039.5,1155z"/>
			</g>
			<path opacity="0.3" fill="#091426" enable-background="new    " d="M1036.7,1158.1c0.6,0,1.2-0.2,1.7-0.6c-1.5,0-3-0.9-3-2
				c-0.1-1-0.4-1.8-0.9-2.2c-0.3,0.5-0.5,1.1-0.5,1.8C1033.9,1156.7,1035.2,1158.1,1036.7,1158.1z"/>
			<path fill="#FFF8EF" d="M1036.6,1154.1c0.2,0.2,0.3,0.5,0.4,0.8s0.4,0.5,0.7,0.7c0,0,0,0,0.1,0c0.3,0.1,0.6,0,0.8-0.2
				c0,0,0,0,0.1-0.1c0.2-0.2,0.3-0.6,0.2-0.9c-0.3-0.8-0.7-1.2-1.5-1.5C1036.6,1152.7,1036.1,1153.6,1036.6,1154.1L1036.6,1154.1z"
				/>
		</g>
		<g>
			<g>
				<path fill="#9BB0EE" d="M1050.4,1158.6c0,1-0.4,1.9-1.1,2.5c-0.5,0.4-1,0.6-1.7,0.6c-1.5,0-2.8-1.4-2.8-3.1
					c0-0.7,0.2-1.3,0.5-1.8c0.5-0.8,1.3-1.3,2.3-1.3C1049.1,1155.5,1050.4,1156.9,1050.4,1158.6z"/>
			</g>
			<path opacity="0.3" fill="#091426" enable-background="new    " d="M1047.6,1161.7c0.6,0,1.2-0.2,1.7-0.6c-1.5,0-3-0.9-3-2
				c-0.1-1-0.4-1.8-0.9-2.2c-0.3,0.5-0.5,1.1-0.5,1.8C1044.8,1160.3,1046,1161.7,1047.6,1161.7z"/>
			<path fill="#FFF8EF" d="M1047.4,1157.6c0.2,0.2,0.3,0.5,0.4,0.8s0.4,0.5,0.7,0.7c0,0,0,0,0.1,0c0.3,0.1,0.6,0,0.8-0.2
				c0,0,0,0,0.1-0.1c0.2-0.2,0.3-0.6,0.2-0.9c-0.3-0.8-0.7-1.2-1.5-1.5C1047.5,1156.3,1046.9,1157.2,1047.4,1157.6L1047.4,1157.6z"
				/>
		</g>
		<g>
			<g>
				<path fill="#9BB0EE" d="M1073.9,1159.2c0,1-0.4,1.9-1.1,2.5c-0.5,0.4-1,0.6-1.7,0.6c-1.5,0-2.8-1.4-2.8-3.1
					c0-0.7,0.2-1.3,0.5-1.8c0.5-0.8,1.3-1.3,2.3-1.3C1072.7,1156.2,1073.9,1157.5,1073.9,1159.2z"/>
			</g>
			<path opacity="0.3" fill="#091426" enable-background="new    " d="M1071.1,1162.3c0.6,0,1.2-0.2,1.7-0.6c-1.5,0-3-0.9-3-2
				c-0.1-1-0.4-1.8-0.9-2.2c-0.3,0.5-0.5,1.1-0.5,1.8C1068.3,1160.9,1069.6,1162.3,1071.1,1162.3z"/>
			<path fill="#FFF8EF" d="M1071,1158.3c0.2,0.2,0.3,0.5,0.4,0.8s0.4,0.5,0.7,0.7c0,0,0,0,0.1,0c0.3,0.1,0.6,0,0.8-0.2
				c0,0,0,0,0.1-0.1c0.2-0.2,0.3-0.6,0.2-0.9c-0.3-0.8-0.7-1.2-1.5-1.5C1071,1156.9,1070.5,1157.8,1071,1158.3L1071,1158.3z"/>
		</g>
		<g>
			<g>
				<path fill="#9BB0EE" d="M1088.2,1155c0,1-0.4,1.9-1.1,2.5c-0.5,0.4-1,0.6-1.7,0.6c-1.5,0-2.8-1.4-2.8-3.1c0-0.7,0.2-1.3,0.5-1.8
					c0.5-0.8,1.3-1.3,2.3-1.3C1087,1151.9,1088.2,1153.3,1088.2,1155z"/>
			</g>
			<path opacity="0.3" fill="#091426" enable-background="new    " d="M1085.4,1158.1c0.6,0,1.2-0.2,1.7-0.6c-1.5,0-3-0.9-3-2
				c-0.1-1-0.4-1.8-0.9-2.2c-0.3,0.5-0.5,1.1-0.5,1.8C1082.6,1156.7,1083.9,1158.1,1085.4,1158.1z"/>
			<path fill="#FFF8EF" d="M1085.3,1154.1c0.2,0.2,0.3,0.5,0.4,0.8s0.4,0.5,0.7,0.7c0,0,0,0,0.1,0c0.3,0.1,0.6,0,0.8-0.2
				c0,0,0,0,0.1-0.1c0.2-0.2,0.3-0.6,0.2-0.9c-0.3-0.8-0.7-1.2-1.5-1.5C1085.3,1152.7,1084.8,1153.6,1085.3,1154.1L1085.3,1154.1z"
				/>
		</g>
		<g>
			<g>
				<path fill="#9BB0EE" d="M1097.2,1146.6c0,1-0.4,1.9-1.1,2.5c-0.5,0.4-1,0.6-1.7,0.6c-1.5,0-2.8-1.4-2.8-3.1
					c0-0.7,0.2-1.3,0.5-1.8c0.5-0.8,1.3-1.3,2.3-1.3C1096,1143.5,1097.2,1144.9,1097.2,1146.6z"/>
			</g>
			<path opacity="0.3" fill="#091426" enable-background="new    " d="M1094.4,1149.7c0.6,0,1.2-0.2,1.7-0.6c-1.5,0-3-0.9-3-2
				c-0.1-1-0.4-1.8-0.9-2.2c-0.3,0.5-0.5,1.1-0.5,1.8C1091.6,1148.3,1092.9,1149.7,1094.4,1149.7z"/>
			<path fill="#FFF8EF" d="M1094.3,1145.6c0.2,0.2,0.3,0.5,0.4,0.8s0.4,0.5,0.7,0.7c0,0,0,0,0.1,0c0.3,0.1,0.6,0,0.8-0.2
				c0,0,0,0,0.1-0.1c0.2-0.2,0.3-0.6,0.2-0.9c-0.3-0.8-0.7-1.2-1.5-1.5C1094.3,1144.3,1093.8,1145.2,1094.3,1145.6L1094.3,1145.6z"
				/>
		</g>
		<g>
			<g>
				<path fill="#9BB0EE" d="M1101.7,1133c0,1-0.4,1.9-1.1,2.5c-0.5,0.4-1,0.6-1.7,0.6c-1.5,0-2.8-1.4-2.8-3.1c0-0.7,0.2-1.3,0.5-1.8
					c0.5-0.8,1.3-1.3,2.3-1.3C1100.5,1130,1101.7,1131.4,1101.7,1133z"/>
			</g>
			<path opacity="0.3" fill="#091426" enable-background="new    " d="M1098.9,1136.1c0.6,0,1.2-0.2,1.7-0.6c-1.5,0-3-0.9-3-2
				c-0.1-1-0.4-1.8-0.9-2.2c-0.3,0.5-0.5,1.1-0.5,1.8C1096.1,1134.7,1097.3,1136.1,1098.9,1136.1z"/>
			<path fill="#FFF8EF" d="M1098.8,1132.1c0.2,0.2,0.3,0.5,0.4,0.8s0.4,0.5,0.7,0.7c0,0,0,0,0.1,0c0.3,0.1,0.6,0,0.8-0.2
				c0,0,0,0,0.1-0.1c0.2-0.2,0.3-0.6,0.2-0.9c-0.3-0.8-0.7-1.2-1.5-1.5C1098.8,1130.7,1098.3,1131.7,1098.8,1132.1L1098.8,1132.1z"
				/>
		</g>
		<g>
			<g>
				<path fill="#9BB0EE" d="M1096.1,1119c0,1-0.4,1.9-1.1,2.5c-0.5,0.4-1,0.6-1.7,0.6c-1.5,0-2.8-1.4-2.8-3.1c0-0.7,0.2-1.3,0.5-1.8
					c0.5-0.8,1.3-1.3,2.3-1.3C1094.8,1115.9,1096.1,1117.3,1096.1,1119z"/>
			</g>
			<path opacity="0.3" fill="#091426" enable-background="new    " d="M1093.3,1122c0.6,0,1.2-0.2,1.7-0.6c-1.5,0-3-0.9-3-2
				c-0.1-1-0.4-1.8-0.9-2.2c-0.3,0.5-0.5,1.1-0.5,1.8C1090.5,1120.7,1091.7,1122,1093.3,1122z"/>
			<path fill="#FFF8EF" d="M1093.2,1118c0.2,0.2,0.3,0.5,0.4,0.8s0.4,0.5,0.7,0.7c0,0,0,0,0.1,0c0.3,0.1,0.6,0,0.8-0.2
				c0,0,0,0,0.1-0.1c0.2-0.2,0.3-0.6,0.2-0.9c-0.3-0.8-0.7-1.2-1.5-1.5C1093.2,1116.6,1092.7,1117.6,1093.2,1118L1093.2,1118z"/>
		</g>
		<g>
			<g>
				<path fill="#9BB0EE" d="M1086.6,1113.8c0,1-0.4,1.9-1.1,2.5c-0.5,0.4-1,0.6-1.7,0.6c-1.5,0-2.8-1.4-2.8-3.1
					c0-0.7,0.2-1.3,0.5-1.8c0.5-0.8,1.3-1.3,2.3-1.3C1085.4,1110.7,1086.6,1112.1,1086.6,1113.8z"/>
			</g>
			<path opacity="0.3" fill="#091426" enable-background="new    " d="M1083.8,1116.8c0.6,0,1.2-0.2,1.7-0.6c-1.5,0-3-0.9-3-2
				c-0.1-1-0.4-1.8-0.9-2.2c-0.3,0.5-0.5,1.1-0.5,1.8C1081,1115.5,1082.3,1116.8,1083.8,1116.8z"/>
			<path fill="#FFF8EF" d="M1083.7,1112.8c0.2,0.2,0.3,0.5,0.4,0.8s0.4,0.5,0.7,0.7c0,0,0,0,0.1,0c0.3,0.1,0.6,0,0.8-0.2
				c0,0,0,0,0.1-0.1c0.2-0.2,0.3-0.6,0.2-0.9c-0.3-0.8-0.7-1.2-1.5-1.5C1083.7,1111.4,1083.2,1112.4,1083.7,1112.8L1083.7,1112.8z"
				/>
		</g>
		<g>
			<g>
				<path fill="#9BB0EE" d="M1068.3,1113.8c0,1-0.4,1.9-1.1,2.5c-0.5,0.4-1,0.6-1.7,0.6c-1.5,0-2.8-1.4-2.8-3.1
					c0-0.7,0.2-1.3,0.5-1.8c0.5-0.8,1.3-1.3,2.3-1.3C1067.1,1110.7,1068.3,1112.1,1068.3,1113.8z"/>
			</g>
			<path opacity="0.3" fill="#091426" enable-background="new    " d="M1065.5,1116.8c0.6,0,1.2-0.2,1.7-0.6c-1.5,0-3-0.9-3-2
				c-0.1-1-0.4-1.8-0.9-2.2c-0.3,0.5-0.5,1.1-0.5,1.8C1062.7,1115.5,1064,1116.8,1065.5,1116.8z"/>
			<path fill="#FFF8EF" d="M1065.4,1112.8c0.2,0.2,0.3,0.5,0.4,0.8s0.4,0.5,0.7,0.7c0,0,0,0,0.1,0c0.3,0.1,0.6,0,0.8-0.2
				c0,0,0,0,0.1-0.1c0.2-0.2,0.3-0.6,0.2-0.9c-0.3-0.8-0.7-1.2-1.5-1.5C1065.4,1111.4,1064.9,1112.4,1065.4,1112.8L1065.4,1112.8z"
				/>
		</g>
		<g>
			<g>
				<path fill="#9BB0EE" d="M1040.7,1110.7c0,1-0.4,1.9-1.1,2.5c-0.5,0.4-1,0.6-1.7,0.6c-1.5,0-2.8-1.4-2.8-3.1
					c0-0.7,0.2-1.3,0.5-1.8c0.5-0.8,1.3-1.3,2.3-1.3C1039.4,1107.6,1040.7,1109,1040.7,1110.7z"/>
			</g>
			<path opacity="0.3" fill="#091426" enable-background="new    " d="M1037.8,1113.8c0.6,0,1.2-0.2,1.7-0.6c-1.5,0-3-0.9-3-2
				c-0.1-1-0.4-1.8-0.9-2.2c-0.3,0.5-0.5,1.1-0.5,1.8C1035,1112.4,1036.3,1113.8,1037.8,1113.8z"/>
			<path fill="#FFF8EF" d="M1037.7,1109.7c0.2,0.2,0.3,0.5,0.4,0.8s0.4,0.5,0.7,0.7c0,0,0,0,0.1,0c0.3,0.1,0.6,0,0.8-0.2
				c0,0,0,0,0.1-0.1c0.2-0.2,0.3-0.6,0.2-0.9c-0.3-0.8-0.7-1.2-1.5-1.5C1037.7,1108.4,1037.2,1109.3,1037.7,1109.7L1037.7,1109.7z"
				/>
		</g>
		<g>
			<g>
				<path fill="#9BB0EE" d="M1032,1098.1c0,1-0.4,1.9-1.1,2.5c-0.5,0.4-1,0.6-1.7,0.6c-1.5,0-2.8-1.4-2.8-3.1c0-0.7,0.2-1.3,0.5-1.8
					c0.5-0.8,1.3-1.3,2.3-1.3C1030.8,1095,1032,1096.4,1032,1098.1z"/>
			</g>
			<path opacity="0.3" fill="#091426" enable-background="new    " d="M1029.2,1101.2c0.6,0,1.2-0.2,1.7-0.6c-1.5,0-3-0.9-3-2
				c-0.1-1-0.4-1.8-0.9-2.2c-0.3,0.5-0.5,1.1-0.5,1.8C1026.4,1099.8,1027.7,1101.2,1029.2,1101.2z"/>
			<path fill="#FFF8EF" d="M1029.1,1097.2c0.2,0.2,0.3,0.5,0.4,0.8s0.4,0.5,0.7,0.7c0,0,0,0,0.1,0c0.3,0.1,0.6,0,0.8-0.2
				c0,0,0,0,0.1-0.1c0.2-0.2,0.3-0.6,0.2-0.9c-0.3-0.8-0.7-1.2-1.5-1.5C1029.1,1095.8,1028.6,1096.7,1029.1,1097.2L1029.1,1097.2z"
				/>
		</g>
		<g>
			<g>
				<path fill="#9BB0EE" d="M1032.9,1084.3c0,1-0.4,1.9-1.1,2.5c-0.5,0.4-1,0.6-1.7,0.6c-1.5,0-2.8-1.4-2.8-3.1
					c0-0.7,0.2-1.3,0.5-1.8c0.5-0.8,1.3-1.3,2.3-1.3C1031.6,1081.2,1032.9,1082.6,1032.9,1084.3z"/>
			</g>
			<path opacity="0.3" fill="#091426" enable-background="new    " d="M1030.1,1087.4c0.6,0,1.2-0.2,1.7-0.6c-1.5,0-3-0.9-3-2
				c-0.1-1-0.4-1.8-0.9-2.2c-0.3,0.5-0.5,1.1-0.5,1.8C1027.3,1086,1028.5,1087.4,1030.1,1087.4z"/>
			<path fill="#FFF8EF" d="M1030,1083.3c0.2,0.2,0.3,0.5,0.4,0.8s0.4,0.5,0.7,0.7c0,0,0,0,0.1,0c0.3,0.1,0.6,0,0.8-0.2
				c0,0,0,0,0.1-0.1c0.2-0.2,0.3-0.6,0.2-0.9c-0.3-0.8-0.7-1.2-1.5-1.5C1030,1082,1029.5,1082.9,1030,1083.3L1030,1083.3z"/>
		</g>
		<g>
			<g>
				<path fill="#9BB0EE" d="M1040.3,1076.3c0,1-0.4,1.9-1.1,2.5c-0.5,0.4-1,0.6-1.7,0.6c-1.5,0-2.8-1.4-2.8-3.1
					c0-0.7,0.2-1.3,0.5-1.8c0.5-0.8,1.3-1.3,2.3-1.3C1039.1,1073.2,1040.3,1074.6,1040.3,1076.3z"/>
			</g>
			<path opacity="0.3" fill="#091426" enable-background="new    " d="M1037.5,1079.4c0.6,0,1.2-0.2,1.7-0.6c-1.5,0-3-0.9-3-2
				c-0.1-1-0.4-1.8-0.9-2.2c-0.3,0.5-0.5,1.1-0.5,1.8C1034.7,1078,1036,1079.4,1037.5,1079.4z"/>
			<path fill="#FFF8EF" d="M1037.4,1075.3c0.2,0.2,0.3,0.5,0.4,0.8s0.4,0.5,0.7,0.7c0,0,0,0,0.1,0c0.3,0.1,0.6,0,0.8-0.2
				c0,0,0,0,0.1-0.1c0.2-0.2,0.3-0.6,0.2-0.9c-0.3-0.8-0.7-1.2-1.5-1.5C1037.4,1074,1036.9,1074.9,1037.4,1075.3L1037.4,1075.3z"/>
		</g>
		<g>
			<g>
				<path fill="#9BB0EE" d="M1062.7,1071.5c0,0.9-0.4,1.6-1,2.1c-0.4,0.3-0.9,0.5-1.4,0.5c-1.3,0-2.4-1.2-2.4-2.6
					c0-0.6,0.2-1.1,0.4-1.5c0.4-0.7,1.1-1.1,2-1.1C1061.7,1068.9,1062.7,1070.1,1062.7,1071.5z"/>
			</g>
			<path opacity="0.3" fill="#091426" enable-background="new    " d="M1060.3,1074.1c0.5,0,1-0.2,1.4-0.5c-1.3,0-2.5-0.8-2.6-1.7
				c-0.1-0.8-0.3-1.5-0.8-1.9c-0.3,0.4-0.4,0.9-0.4,1.5C1057.9,1073,1059,1074.1,1060.3,1074.1z"/>
			<path fill="#FFF8EF" d="M1060.2,1070.7c0.2,0.2,0.3,0.4,0.3,0.7c0,0.3,0.3,0.5,0.6,0.6l0,0c0.2,0.1,0.5,0,0.7-0.2c0,0,0,0,0.1,0
				c0.2-0.2,0.3-0.5,0.2-0.8c-0.2-0.7-0.6-1-1.3-1.3C1060.2,1069.5,1059.8,1070.3,1060.2,1070.7L1060.2,1070.7z"/>
		</g>
		<g>
			<g>
				<path fill="#9BB0EE" d="M1082.3,1072.3c0,1-0.4,1.8-1.1,2.3c-0.4,0.4-1,0.6-1.6,0.6c-1.5,0-2.7-1.3-2.7-2.9
					c0-0.6,0.2-1.2,0.5-1.7c0.5-0.7,1.3-1.2,2.2-1.2C1081.1,1069.4,1082.3,1070.7,1082.3,1072.3z"/>
			</g>
			<path opacity="0.3" fill="#091426" enable-background="new    " d="M1079.6,1075.3c0.6,0,1.1-0.2,1.6-0.6c-1.5,0-2.8-0.8-2.9-2
				c-0.1-0.9-0.4-1.7-0.9-2.1c-0.3,0.5-0.5,1.1-0.5,1.7C1076.9,1074,1078.1,1075.3,1079.6,1075.3z"/>
			<path fill="#FFF8EF" d="M1079.5,1071.4c0.2,0.2,0.3,0.5,0.4,0.8c0,0.3,0.4,0.5,0.6,0.6c0,0,0,0,0.1,0c0.3,0.1,0.6,0,0.8-0.2
				c0,0,0,0,0.1,0c0.2-0.2,0.3-0.6,0.2-0.9c-0.3-0.7-0.7-1.1-1.4-1.4C1079.5,1070.1,1079,1071,1079.5,1071.4L1079.5,1071.4z"/>
		</g>
		<g>
			<g>
				<path fill="#9BB0EE" d="M1091.9,1080.4c0,1-0.4,1.8-1.1,2.3c-0.4,0.4-1,0.6-1.6,0.6c-1.5,0-2.7-1.3-2.7-2.9
					c0-0.6,0.2-1.2,0.5-1.7c0.5-0.7,1.3-1.2,2.2-1.2C1090.7,1077.5,1091.9,1078.8,1091.9,1080.4z"/>
			</g>
			<path opacity="0.3" fill="#091426" enable-background="new    " d="M1089.3,1083.3c0.6,0,1.1-0.2,1.6-0.6c-1.5,0-2.8-0.8-2.9-2
				c-0.1-0.9-0.4-1.7-0.9-2.1c-0.3,0.5-0.5,1.1-0.5,1.7C1086.6,1082,1087.8,1083.3,1089.3,1083.3z"/>
			<path fill="#FFF8EF" d="M1089.1,1079.5c0.2,0.2,0.3,0.5,0.4,0.8c0,0.3,0.4,0.5,0.6,0.6c0,0,0,0,0.1,0c0.3,0.1,0.6,0,0.8-0.2
				c0,0,0,0,0.1,0c0.2-0.2,0.3-0.6,0.2-0.9c-0.3-0.7-0.7-1.1-1.4-1.4C1089.1,1078.2,1088.6,1079.1,1089.1,1079.5L1089.1,1079.5z"/>
		</g>
	</g>
	<path fill="#FFF8EF" d="M1083.6,1143.8c0.9,7.9,2.1,17.4,2.1,17.4l-3.1-2l-1.1-11.3L1083.6,1143.8z"/>
</g>
</svg>
