<?xml version="1.0" encoding="utf-8"?>
<!-- Generator: Adobe Illustrator 22.1.0, SVG Export Plug-In . SVG Version: 6.00 Build 0)  -->
<svg version="1.1" id="_x31_1_x5F_Misc_x5F_JewelryPearls"
	 xmlns="http://www.w3.org/2000/svg" xmlns:xlink="http://www.w3.org/1999/xlink" x="0px" y="0px" viewBox="0 0 2000 2000"
	 enable-background="new 0 0 2000 2000" xml:space="preserve">
<g>
	<path fill="#D8D8D8" d="M1092.4,1032.9c-1.4-1.8-3.1-3.4-5.1-4.5c3.7-0.8,5.6-3.4,6.3-6.7c0.9-4.7-0.9-10.7-3.6-14
		c-0.6-0.7-1.3-1.3-2-1.8c-1.1-0.7-2.3-1.2-3.5-1.4c0.9-1.3,2.3-3.4,3-5.6c0.1-0.3,0.2-0.7,0.3-1.1c0.6-3.1-1-6.8-5.4-9.5
		c-0.3-0.2-0.5-0.3-0.8-0.4c-1-0.4-2.1-0.6-3.1-0.4c1.1-1.5,1.9-3.3,2.3-5.1c0.6-2.5,0.3-4.9-1.5-6.2c-0.7-0.5-1.5-0.9-2.3-1.1
		c-1.1-0.3-2.2-0.3-3.3-0.2c0.6-1.1,1-2.3,1.3-3.4c1-4,0.2-8-1.9-8.6c-1.8-0.5-3.7-0.9-5.4-0.1c-0.3-3.6-1.4-4.8-4.7-5.4
		c-2.4-0.4-4.5,1-5.3,3.4c-0.5,1.5-0.6,3.3,0,5.4c1,3.2,4,3.8,6.3,3.8c0,2.1,1,3.7,2.4,4.9c1,0.8,2.3,1.4,3.5,1.7
		c-0.9,0.8-1.7,1.8-2.1,3c-2.2,7.3,3.1,9.2,6.4,9.8c-1.9,1.6-3.3,3.9-3.3,6.4c0,4.7,1.3,7.9,7.5,9.7c-0.8,0.4-1.5,0.8-2.2,1.3
		c-1,0.8-1.9,1.7-2.7,2.8c-0.2,0.3-0.5,0.7-0.7,1.1c-3.5,5.9-1.9,11,2.9,15.9c-1.4,0.3-2.7,0.8-3.9,1.5c-1.7,0.9-3.3,2.1-4.6,3.6
		c-3.2,3.5-5.2,8.3-5.2,13.7c0,2.3,0.4,4.5,1,6.5c-0.6-0.5-1.2-0.9-1.8-1.3c-3-2-6.6-3.2-10.4-3.2c-3.8,0-7.3,1.2-10.3,3.1
		c-3.1,2.1-5.7,5-7.4,8.6c-0.3-1.3-0.7-2.6-1.2-3.8c-2.9-7.1-8.8-11-12.7-11.6c-3.1-0.5-6.5-0.5-9.6,0.7c-0.8,0.3-1.6,0.7-2.4,1.2
		c0.6-2.4,0.4-4.6-0.3-6.6c-0.9-2.5-2.8-4.6-5.1-6.3c-1.8-1.4-4.1-2-6.3-2.1c-1.4,0-2.8,0.2-4.1,0.6c1.3-1.9,2.3-3.5,2.8-5
		c1.1-3.1,0.3-5.4-2.7-8.7c-0.7-0.7-1.4-1.4-2-1.9c-1.3-1.1-2.5-1.8-3.6-2.3c0.7-1.2,1.7-2.9,2.3-5c0.3-1,0.5-2.1,0.6-3.3
		c0.2-3.6-0.6-6.4-2.8-8.4c-1-0.9-2.3-1.6-3.9-2.2c1.3-0.8,2.8-2,4.1-3.9c0.4-0.7,0.8-1.4,1.2-2.3c1.2-3.1-0.9-7.2-2.6-9.2
		c0.6-0.9,1.4-2.1,2.1-3.5c0.8-1.5,1.6-3.1,1.9-4.5c1-3.8-2.1-10.7-8.2-7.2c-0.6,0.4-1.2,0.7-1.7,1.1c-4.1,3.1-5.4,7.4-3,12.7
		c-0.9,0.4-1.7,1-2.4,2c-2.7,3.6-2.5,10.4,3.2,14.5c-2,0.9-3.6,2.9-4.8,6c-1.9,4.7,1.9,10,7.7,13.2c0,0-0.1,0-0.1,0
		c-3.1,1.6-5.8,6.5-3.5,13.3c1.6,4.8,7.6,6.3,11,6.8c-0.7,0.6-1.3,1.3-1.7,2c-2.8,4.8-3.2,11.9,4.9,17.2c5.8,3.8,9.3,3.5,11.9,1.3
		c-1.1,5.9,0.4,13.5,8.2,18c8.8,5,16.9,2.7,20.7-0.7c1.1,10.7,9.5,19.1,19.7,19.1c11,0,19.9-9.7,19.9-21.6c0,0,0,0,0,0
		c0-1.8-0.2-3.6-0.6-5.3c-0.2-0.9-0.4-1.7-0.7-2.5c2.8,2.2,6.2,3.4,9.8,3.4c7.8,0,14.3-5.8,16.5-13.7c0.5-1.8,0.7-3.6,0.7-5.5
		C1096.6,1040.6,1095,1036.3,1092.4,1032.9z"/>
	<path opacity="0.3" fill="#091426" d="M1070.3,1063.7c-0.2-0.9-0.4-1.7-0.7-2.5c2.8,2.2,6.2,3.4,9.8,3.4c7.8,0,14.3-5.8,16.5-13.7
		c-1.8,2.8-4.4,6.2-7.1,7.8c-5,2.7-13.5,1.9-19-9.3c-3.1-6.3-3-13-2.4-17.7c-3.2,3.5-5.2,8.3-5.2,13.7c0,2.3,0.4,4.5,1,6.5
		c-0.6-0.5-1.2-0.9-1.8-1.3c0.6,1.3,1.4,2.8,2.4,4.7C1066.3,1059.7,1068.7,1062.3,1070.3,1063.7z"/>
	<path opacity="0.3" fill="#091426" d="M1092.4,1032.9c-1.4-1.8-3.1-3.4-5.1-4.5c3.7-0.8,5.6-3.4,6.3-6.7
		c-6.2,2.3-16.7-0.4-18.5-5.6c-0.9-2.6-1.3-4.8-1.5-6.4c-0.2,0.3-0.5,0.7-0.7,1.1c-3.5,5.9-1.9,11,2.9,15.9
		c-1.4,0.3-2.7,0.8-3.9,1.5c1.4,0.9,4.3,2.3,10.2,4C1087.3,1033.5,1090.5,1033.4,1092.4,1032.9z"/>
	<path opacity="0.3" fill="#091426" d="M1088,1005.8c-1.1-0.7-2.3-1.2-3.5-1.4c0.9-1.3,2.3-3.4,3-5.6c0.1-0.3,0.2-0.7,0.3-1.1
		c-1.7,1.3-4.1,2.5-7.5,2.7c-7.2,0.6-7.7-6.6-3.7-10.4c1.4-1.3,3.2-1.9,5-2.2c-1-0.4-2.1-0.6-3.1-0.4c1.1-1.5,1.9-3.3,2.3-5.1
		c-1.2,0.4-2.8,0.8-4.9,1.3c-6.7,1.5-7.2-2.8-5.8-5.7c1-2.1,2.8-2.8,6.9-2.9c-1.1-0.3-2.2-0.3-3.3-0.2c0.6-1.1,1-2.3,1.3-3.4
		c-1.9,1.1-4.7,2.2-6.8,1c-3.4-2-2.3-6.7-2.3-6.7s-3.6,3-5.9,1.2c-2.3-1.7-2.3-6.1-2.3-6.2c-0.5,1.5-0.6,3.3,0,5.4
		c1,3.2,4,3.8,6.3,3.8c0,2.1,1,3.7,2.4,4.9c1,0.8,2.3,1.4,3.5,1.7c-0.9,0.8-1.7,1.8-2.1,3c-2.2,7.3,3.1,9.2,6.4,9.8
		c-1.9,1.6-3.3,3.9-3.3,6.4c0,4.7,1.3,7.9,7.5,9.7c-0.8,0.4-1.5,0.8-2.2,1.3c1,0.3,2.7,0.6,5.4,0.5
		C1085.5,1007.3,1086.7,1006.3,1088,1005.8z"/>
	<path opacity="0.3" fill="#091426" d="M976.2,977.7c-0.9,0.4-1.7,1-2.4,2c-2.7,3.6-2.5,10.4,3.2,14.5c-2,0.9-3.6,2.9-4.8,6
		c-1.9,4.7,1.9,10,7.7,13.2c0,0-0.1,0-0.1,0c-3.1,1.6-5.8,6.5-3.5,13.3c1.6,4.8,7.6,6.3,11,6.8c-0.7,0.6-1.3,1.3-1.7,2
		c-2.8,4.8-3.2,11.9,4.9,17.2c5.8,3.8,9.3,3.5,11.9,1.3c-1.1,5.9,0.4,13.5,8.2,18c8.8,5,16.9,2.7,20.7-0.7
		c1.1,10.7,9.5,19.1,19.7,19.1c11,0,19.9-9.7,19.9-21.6c0,0,0,0,0,0c-1,2.5-2.7,6-5.6,9.4c-5.4,6.7-16.6,6.7-20.2,4.4
		c-3.6-2.4-8.8-9.5-6.9-23c0.6-4.2,1.5-7.1,2.6-9.3c-3.1,2.1-5.7,5-7.4,8.6c-0.3-1.3-0.7-2.6-1.2-3.8c-0.4,3.6-1.8,7.2-3.9,10.9
		c-3.6,6.1-9.3,5.7-13.2,3.3c-3.9-2.4-11.3-10.9-8.6-19.3c0.8-2.5,2-4.4,3.4-5.8c-0.8,0.3-1.6,0.7-2.4,1.2c0.6-2.4,0.4-4.6-0.3-6.6
		c-0.3,2-0.9,4.1-1.9,5.7c-3.6,5.5-4.1,7.5-9.5,5.3s-7.5-8.8-5.8-13.3c1.2-3.2,2.3-4.5,5.9-6c-1.4,0-2.8,0.2-4.1,0.6
		c1.3-1.9,2.3-3.5,2.8-5c-1.4,0.8-3.1,1.7-5.1,2.7c-5.5,2.8-8.8,0.6-9.9-3.5c-1.1-4.1-1.2-9.8,1.7-9.8c1.6,0,5.4,0,8.6,0
		c-1.3-1.1-2.5-1.8-3.6-2.3c0.7-1.2,1.7-2.9,2.3-5c-2.2,0.1-4.8,0-7.1-0.3c-5.3-0.7-7.3-7.5-1.6-10.3c2.4-1.1,4.6-1.3,6.5-1.1
		c-1-0.9-2.3-1.6-3.9-2.2c1.3-0.8,2.8-2,4.1-3.9c-1.9,1.1-4.3,2.1-6.6,1.9c-4.8-0.2-6.1-3.4-5.8-8.1c0.3-4.7,2.1-6.6,5.5-6.7
		s5.5,1.4,5.5,1.4c0.6-0.9,1.4-2.1,2.1-3.5c-2,0.1-4.7,0-7.2-0.7c-4.2-1.3-3.9-5.1-0.7-9.8C975.1,968.1,973.8,972.4,976.2,977.7z"/>
	<g>
		<path fill="#FFFFFF" d="M1058.8,1061c0,0.1,0.1,0.1,0.1,0.2C1058.8,1061.1,1058.8,1061,1058.8,1061z"/>
		<path fill="#FFFFFF" d="M984.1,966.4C984.1,966.4,984.1,966.4,984.1,966.4C984.1,966.4,984.1,966.4,984.1,966.4
			C984.1,966.4,984.1,966.4,984.1,966.4z"/>
		<path fill="#FFFFFF" d="M984.2,966.4C984.2,966.4,984.2,966.4,984.2,966.4C984.2,966.4,984.3,966.5,984.2,966.4
			C984.2,966.4,984.2,966.4,984.2,966.4C984.2,966.4,984.2,966.4,984.2,966.4z"/>
		<path fill="#FFFFFF" d="M984.2,966.4C984.1,966.4,984.1,966.4,984.2,966.4C984,966.5,984,966.5,984.2,966.4z"/>
		<path fill="#FFFFFF" d="M1023.9,1050.4C1024,1050.4,1024,1050.4,1023.9,1050.4C1024.3,1050.7,1024.3,1050.7,1023.9,1050.4
			C1024,1050.4,1024,1050.4,1023.9,1050.4z"/>
		<path fill="#FFFFFF" d="M1086.7,1013.5c-0.1,0-0.2,0-0.3,0C1086.3,1013.5,1086.3,1013.6,1086.7,1013.5z"/>
		<path fill="#FFFFFF" d="M1086.7,1013.5C1086.7,1013.5,1086.7,1013.5,1086.7,1013.5c0.1,0,0.2,0,0.4,0
			C1087,1013.4,1086.9,1013.4,1086.7,1013.5z"/>
		<path fill="#FFFFFF" d="M1087.2,1011.5c0,0.1,0,0.1,0,0.1C1087.2,1011.6,1087.2,1011.6,1087.2,1011.5z"/>
		<path fill="#FFFFFF" d="M1050.2,1053.4c-0.9,0-1.6,0.6-1.9,1.4c-0.1,0.3-0.1,0.5-0.1,0.8c0,0.4,0.1,0.7,0.3,1
			c0.4,0.5,0.4,0.6,0.2,0.3c-0.2-0.3-0.2-0.2,0.2,0.2c0.2,0.2,0.5,0.4,0.8,0.5c0.4,0.1,0.8,0.1,1.1,0c0.8-0.2,1.6-1.1,1.5-2
			C1052.3,1054.4,1051.6,1053.4,1050.2,1053.4z"/>
		<path fill="#FFFFFF" d="M1059.5,1058.5c-1.3-1.3-2.8-1.1-4-0.3c-0.2,0.1-0.4,0.2-0.6,0.4c-0.5,0.5-0.9,1.1-1,1.8
			c-0.2,0.6-0.3,1.3-0.1,2c0,0.3,0.1,0.6,0.2,0.9c0.4,1.3,1.5,2.3,2.4,3.3c1.2,1.3,3.2,1.7,4.7,0.5c1.5-1.3,1.6-3.2,0.8-4.9
			C1061.2,1061.1,1060.5,1059.5,1059.5,1058.5z M1058.9,1061.2c0-0.1-0.1-0.1-0.1-0.2C1058.8,1061,1058.8,1061.1,1058.9,1061.2z"/>
		<path fill="#FFFFFF" d="M1079.7,1032.5c-0.3,0-0.6,0.1-0.9,0.2c-1,0.3-1.3,1.5-0.7,2.3c0,0,0.1,0.1,0.3,0.3
			c0.2,0.1,0.3,0.2,0.5,0.4c0.9,0.6,2.2,0,2.5-1C1081.6,1033.6,1080.8,1032.5,1079.7,1032.5z"/>
		<path fill="#FFFFFF" d="M1078.1,1035C1078.1,1035,1078.1,1035,1078.1,1035C1078,1034.9,1078.1,1034.9,1078.1,1035z"/>
		<path fill="#FFFFFF" d="M1089.1,1034.2c-1.3-0.8-2.8-0.5-4,0.2c-0.5,0.3-0.8,0.7-1,1.2c-0.7,0.8-1,2-0.7,3.1
			c0.4,1.4,1.7,2.1,3.1,2.2c2.2,0.2,4.5-1.1,4.6-3.5C1091,1036.1,1090.2,1034.8,1089.1,1034.2z"/>
		<path fill="#FFFFFF" d="M1080.5,1007.8c0,0-0.1,0-0.1,0c-1.4-0.1-1.9,1.7-1.1,2.6c0,0,0.1,0.1,0.1,0.1c0.8,0.8,2.1,0.5,2.6-0.5
			C1082.4,1008.9,1081.6,1007.9,1080.5,1007.8z"/>
		<path fill="#FFFFFF" d="M1086,1015c0.8,0.1,1.6,0,2.3-0.5c1.1-0.7,1.8-2.1,1.4-3.4c-0.4-1.3-1.5-2.3-2.9-2.3
			c-0.6,0-1.1,0.1-1.6,0.4c0,0,0,0,0,0c0,0,0,0,0,0c-0.5,0.1-0.9,0.3-1.4,0.7c-0.9,0.8-1.3,2.1-0.8,3.2
			C1083.6,1014.5,1084.7,1014.9,1086,1015z M1087.2,1011.5c0,0,0,0.1,0,0.1C1087.2,1011.6,1087.2,1011.6,1087.2,1011.5z
			 M1086.4,1013.5c0.1,0,0.2,0,0.3,0C1086.3,1013.6,1086.3,1013.5,1086.4,1013.5z M1086.7,1013.5
			C1086.7,1013.5,1086.7,1013.5,1086.7,1013.5c0.1,0,0.3,0,0.3,0C1087,1013.5,1086.9,1013.5,1086.7,1013.5z"/>
		<path fill="#FFFFFF" d="M1077.7,992.5C1077.7,992.4,1077.7,992.4,1077.7,992.5c0-0.1,0-0.1,0-0.1
			C1077.7,992.4,1077.7,992.4,1077.7,992.5z"/>
		<path fill="#FFFFFF" d="M1084.5,993.6c-0.3-1.3-1.5-2.2-2.7-2.5c-0.7-0.2-1.3,0-1.8,0.4c-0.2-0.2-0.5-0.4-0.9-0.4
			c-0.3,0-0.6,0.1-0.9,0.3c-0.3,0.2-0.5,0.6-0.5,1c0.1,0.6,0.4,0.9,0.9,1.1c0,0,0.1,0,0.1,0.1c0.2,0.1,0.3,0.1,0.5,0
			c0,0.1,0.1,0.2,0.1,0.3c0,0.4,0,0.8,0,1.2c0.3,1.5,1.8,2.3,3.2,1.9C1084.1,996.6,1084.9,995.1,1084.5,993.6z"/>
		<path fill="#FFFFFF" d="M1015,1045.7c-0.4-0.2-0.8-0.1-1.2-0.1c0.4,0-0.2,0-0.3,0c-0.6,0-1.1,0.3-1.5,0.7
			c-0.3,0.3-0.5,0.8-0.3,1.2c0.2,0.6,0.5,1.1,1.1,1.4c0,0,0.2,0.1,0.3,0.1c0.2,0.2,0.5,0.4,0.8,0.5c0.2,0,0.5,0.1,0.7,0.1
			c1,0.1,1.8-0.8,1.9-1.7C1016.5,1046.8,1015.9,1046.1,1015,1045.7z"/>
		<path fill="#FFFFFF" d="M1023.7,1050.2c0,0-0.1-0.1-0.1-0.1c-0.1-0.1-0.2-0.2-0.4-0.2c-0.5-0.3-0.9-0.4-1.5-0.5
			c-0.8-0.1-1.7,0.7-1.8,1.4c-0.2,0.9,0.1,2.2,0.6,3c0.5,0.8,1.3,1.3,2.3,1.3c0.9,0,1.8-0.6,2.2-1.3c0.5-0.9,0.4-2.2-0.4-2.9
			C1024.3,1050.5,1024,1050.4,1023.7,1050.2z M1024,1050.5C1024,1050.4,1024,1050.4,1024,1050.5
			C1024,1050.4,1024,1050.4,1024,1050.5C1024.3,1050.7,1024.3,1050.7,1024,1050.5z"/>
		<path fill="#FFFFFF" d="M1001.7,1039.2c-0.6-0.5-1.5-0.6-2.2,0c-0.6,0.6-0.5,1.5,0,2.2c0,0,0.1,0.1,0.1,0.1c0.5,0.6,1.6,0.5,2.2,0
			c0.5-0.5,0.7-1.7,0-2.2C1001.8,1039.3,1001.8,1039.3,1001.7,1039.2z"/>
		<path fill="#FFFFFF" d="M997,1032.2c-0.8,0-1.5,0.7-1.5,1.5c0,0.8,0.7,1.5,1.5,1.5c0.8,0,1.5-0.7,1.5-1.5
			C998.5,1032.8,997.8,1032.2,997,1032.2z"/>
		<path fill="#FFFFFF" d="M988.4,1019.4c-0.4,0.1-0.8,0.4-0.9,0.9c-0.1,0.4-0.1,0.6,0,1c0.1,0.7,1,1.2,1.7,1c0.7-0.2,1.3-1,1-1.7
			C990,1019.7,989.3,1019.1,988.4,1019.4z"/>
		<path fill="#FFFFFF" d="M985.2,1018.4c0,0,0,0.1,0,0.1c-0.1,1,1.6,1,1.5,0c0,0,0-0.1,0-0.1
			C986.6,1017.4,985.3,1017.4,985.2,1018.4z"/>
		<path fill="#FFFFFF" d="M986.7,1002.3c-0.1-0.8-0.7-1.7-1.5-2.1c-0.4-0.2-0.8-0.2-1.2-0.1c0,0,0,0,0,0c0,0,0-0.1,0-0.1
			c-0.6-1-1.9,0.4-0.9,0.9c0,0,0,0,0,0c0,0.1-0.1,0.1-0.1,0.2c-0.2,0.8,0,1.9,0.5,2.5c0.6,0.8,1.7,1.2,2.6,0.5
			C986.7,1003.7,986.9,1003,986.7,1002.3C986.7,1002.3,986.7,1002.3,986.7,1002.3z"/>
		<path fill="#FFFFFF" d="M983.5,981.9c0.4-0.9-0.4-1.6-1.3-1.5c0,0-0.1,0-0.1,0c-0.7,0.1-0.9,1-0.6,1.5c0,0,0,0.1,0.1,0.1
			C982,982.8,983.2,982.7,983.5,981.9z"/>
		<path fill="#FFFFFF" d="M985.5,966.5c-0.2-0.1-0.5-0.1-0.8-0.1c-0.1,0-0.1,0-0.2,0c-0.2,0-0.3,0-0.4,0.1c0.1,0,0,0,0,0
			c-0.2,0-0.2,0,0,0c0,0,0,0,0,0c0,0,0,0,0,0c-0.1,0-0.2,0-0.3-0.1c-0.7-0.1-1.4,0.1-1.8,0.7c-0.3,0.6-0.3,1.4,0.2,1.9
			c0,0,0.3,0.2,0.3,0.2c0.1,0.1,0.1,0.2,0.2,0.3c0.1,0.3,0.3,0.5,0.6,0.8c0.6,0.5,1.4,0.8,2.2,0.6c0.6-0.2,1-0.5,1.3-1
			C987.5,968.6,986.9,966.8,985.5,966.5z"/>
		<path fill="#FFFFFF" d="M984.1,966.4C984.1,966.4,984.1,966.4,984.1,966.4C984.2,966.4,984.2,966.4,984.1,966.4
			C984.2,966.4,984.2,966.4,984.1,966.4C984.2,966.4,984.2,966.4,984.1,966.4C984.2,966.4,984.2,966.4,984.1,966.4
			C984.2,966.4,984.2,966.4,984.1,966.4C984.1,966.4,984.1,966.4,984.1,966.4C984.1,966.4,984.1,966.4,984.1,966.4
			C984.1,966.4,984.1,966.4,984.1,966.4z"/>
		<path fill="#FFFFFF" d="M1073,967.3c-0.3-0.5-1-0.7-1.6-0.4c-0.5,0.3-0.8,1.1-0.4,1.6c0.1,0.2,0.2,0.3,0.4,0.5
			c0.4,0.3,0.9,0.4,1.3,0.2c0.4-0.2,0.7-0.8,0.5-1.2C1073.2,967.6,1073.1,967.5,1073,967.3z"/>
		<path fill="#FFFFFF" d="M1078.4,980.2c-0.1-0.7-0.7-1.3-1.4-1.4c-1.4-0.3-2.5,1.1-1.8,2.3c0.3,0.5,0.7,0.9,1.3,1
			C1077.7,982.4,1078.6,981.4,1078.4,980.2z"/>
	</g>
</g>
</svg>
