<?xml version="1.0" encoding="utf-8"?>
<!-- Generator: Adobe Illustrator 21.0.2, SVG Export Plug-In . SVG Version: 6.00 Build 0)  -->
<svg version="1.1" id="_x31_7_x5F_Misc_x5F_Tattoo" xmlns="http://www.w3.org/2000/svg" xmlns:xlink="http://www.w3.org/1999/xlink"
	 x="0px" y="0px" viewBox="0 0 2000 2000" enable-background="new 0 0 2000 2000" xml:space="preserve">
<g>
	<g>
		<path fill="#CE2828" d="M813.1,1243.2c-2.9-8-21.3-18-31.6-3.8s-4.3,27.9-4.3,27.9c-30.4-9-48.3-1-53,9.1s-1.1,24,8.2,29.8
			s21.1,4.2,29.2,2l2.4-7.6c0,0,10.7-14.6,16.8-18.8s35.5-18.5,35.5-18.5S815.9,1251.2,813.1,1243.2z M744.9,1300.8
			c-0.4,1.1-6.5,2.5-9.8-2.4s-5.9-8.7-4-16.6s3.9-6.9,3.2-2.5s0,7.9,2,11.7C739.8,1297.6,745.3,1299.6,744.9,1300.8z"/>
	</g>
	<g>
		<path fill="#F7B342" d="M814.2,1116.8c-0.5-3-3.6-3.9-6.2-4.2c-9.6-1.1-21.6,2.9-28.7,9.4c-7.9,7.2-8.1,17-7.1,27
			c0.3,2.8,1,5.7,1.1,8.5c0.2,4.7-1.8,8.4-5.4,11.3c-6.2,5.2-13.9,4.6-21.4,3.2c-1.8-0.3-2.5,2.2-0.8,2.7c3.6,1.1,7.7,1.4,11.6,0.9
			c0,0.2,0,0.3-0.1,0.5c-0.1,0.7-0.1,1.3-0.1,1.9c0,0.2,0,0.3,0.1,0.4c-0.3,0.1-0.4,0.6-0.1,0.8c4.1,1.9,9.9,0,13.6-2.3
			c4.7-2.8,8-7.7,9.2-13c1.7-7.2-1.3-14.5-1.4-21.7c-0.1-10.9,6.9-17,17.1-18.5c0.9-0.1,0.9-1.3,0.4-1.8c0.5-0.5,0.4-1.5,0.4-2.1
			c-0.1-1.1-0.2-2.1-0.4-3.1c1.5-0.4,3-0.7,4.5-0.9c1.8-0.3,3.6-0.5,5.5-0.4c1-0.2,1.8-0.1,2.5,0.1c-0.3,0.4-0.5,1-0.7,1.5
			c-0.4,1-0.7,2.1-0.2,3c0.2,0.5,1.1,0.5,1.3,0c0.4-0.8,0.2-1.7,0.3-2.6c0.1-0.4,0.2-0.8,0.3-1.2c0.7,0.7,1.1,1.9,1.1,3.4
			c-0.9,0.4-0.2,1.7,0.7,1.5C813.4,1120.6,814.5,1118.9,814.2,1116.8z M778.1,1157.3c-0.8-0.1-1.7-0.1-2.4,0c0-0.7-0.1-1.4-0.2-2.1
			c-0.3-1.9-0.6-3.8-0.9-5.7c0.3,0.1,0.5,0.1,0.9,0.1c0.4-0.1,0.7-0.2,1.1-0.2c0.2,0,0.3,0,0.5-0.1
			C777.4,1151.9,777.9,1154.6,778.1,1157.3z M776.7,1166.8c-1-0.4-2-0.7-3-1c1.1-2,1.8-4.3,1.9-6.9c0.5,0,0.9,0.1,1.4,0.2
			c0.3,0.1,0.8,0.1,1.1,0.3C778.1,1161.9,777.8,1164.4,776.7,1166.8z M760.1,1177.9c0-0.1,0-0.2,0-0.3c-0.1-0.6-0.3-1.1-0.4-1.7
			c-0.1-0.2-0.1-0.5-0.1-0.7c2.4-0.5,4.8-1.3,6.9-2.5c0,0.3,0,0.7,0.1,1c0.1,0.9,0.3,1.8,0.5,2.7v0.1
			C764.7,1177.4,762.4,1177.6,760.1,1177.9z M769.6,1175.2c-0.1-0.4-0.3-0.9-0.5-1.3c-0.3-0.7-0.5-1.6-1.1-2.1
			c1.9-1.2,3.5-2.7,4.7-4.5c0.7,0.9,1.7,1.6,2.7,2C774,1171.7,772,1173.7,769.6,1175.2z M776.5,1144.1c0,1.4,0.2,2.8,0.4,4.1
			c-0.3-0.1-0.4,0-0.7,0s-0.6-0.1-0.9-0.1c-0.3,0-0.6,0.1-0.9,0.2c-0.9-7.7-0.6-15.7,4.2-21.8c0.4,0.4,0.8,0.8,1.1,1.2
			c0.4,0.4,0.8,0.9,1.3,1.3C777.9,1133,776.3,1138.2,776.5,1144.1z M782.5,1127.3c-0.4-0.5-0.9-0.8-1.4-1.1c-0.5-0.3-0.9-0.7-1.4-1
			c0.3-0.3,0.6-0.6,0.9-0.9c1.8-1.7,3.8-3.1,5.9-4.2c-0.3,1.1,0,2.5,0.1,3.5c0,0.2,0.1,0.3,0.2,0.5
			C785.2,1125,783.7,1126,782.5,1127.3z M794.6,1121.7c-2.2,0.3-4.2,0.8-6,1.5c-0.2-1.1-0.1-2.7-0.7-3.7l-0.1-0.1
			c2-0.9,4-1.7,6.2-2.3c0.1,0,0.3-0.1,0.4-0.1C794.1,1118.6,793.9,1120.8,794.6,1121.7z"/>
	</g>
	<path fill="#7B7B7B" d="M849.3,1081.9c-0.5-0.8-1.9-1.1-2.5,0.2c-0.4,0.8-1.2,1.6-1.8,2.3c-0.6,0.8-1.4,1.6-1.4,2.6
		c0,0.5,0.5,1,1.1,0.8c1-0.3,1.7-1.5,2.3-2.3c0.5-0.6,1-1.1,1.5-1.6c-0.1,0.5-0.1,0.9-0.1,1.4c-0.1,1.2-0.3,2.4-0.4,3.6
		c-0.1,0.9,1.4,1.4,1.8,0.5c0.9-2,1.7-5,0.7-7.2C850.4,1081.7,849.7,1081.6,849.3,1081.9z"/>
	<path fill="#7B7B7B" d="M846.6,1081.5c1.6-0.2,1.6-2.7,0-2.5c-1.3,0.2-2.6,0.8-3.7,1.5c-0.5,0.4-1.1,0.8-1.6,1.2
		c-0.6,0.5-0.6,0.9-0.9,1.6c-0.2,0.4,0.3,0.8,0.7,0.7c0.5-0.1,0.8-0.1,1.3-0.3c0.5-0.3,0.9-0.6,1.4-0.9
		C844.6,1082.4,845.7,1081.6,846.6,1081.5z"/>
	<path fill="#2B4CA9" d="M895,1085.6c-0.6,1.3-1.3,2.6-2,3.9c-0.3,0.6-0.7,1.2-1,1.8c-0.3,0.7-0.3,1.3-0.6,1.9
		c-0.2,0.6,0.6,0.9,1,0.6c0.5-0.4,1-0.6,1.4-1.1c0.5-0.5,0.8-1.1,1.2-1.7c0.8-1.3,1.5-2.7,2.2-4.1
		C898,1085.4,895.7,1084.1,895,1085.6z"/>
	<path fill="#7B7B7B" d="M882.6,1105.5c0-0.6-0.4-1.2-1.2-1.3c-0.7-0.1-1.2,0.1-1.7,0.4c-1.3-0.8-2.9-0.5-4.3-0.2
		c-1.5,0.2-2.8,0.8-4.3,1.3c-0.6,0.2-1,1.3-0.2,1.6c1.4,0.6,2.6,0.6,4.1,0.5c0.7,0,1.5,0,2.3,0c-1,1.5-2.1,2.9-3.1,4.3
		c-0.7,1,0.9,2.3,1.7,1.3c1-1.1,2-2.2,3-3.4c0.1-0.1,0.2-0.2,0.3-0.4c0.2,1.1,0.5,2.1,0.6,3.2c0.1,1.6-0.4,3.8,1,5
		c0.2,0.2,0.6,0.3,0.8,0.1c1.7-1.1,1.3-3.7,1.2-5.5c0-1.2-0.2-2.5,0.1-3.7s0.5-1.6,0-2.8C882.9,1105.9,882.8,1105.7,882.6,1105.5z"
		/>
	<polygon fill="none" points="1144.1,1165 1144.1,1165 1142.6,1162 	"/>
	<path fill="#2B4CA9" d="M923.5,1029.4c0.3,0.8,1.2,1.3,2.1,1.6c1,0.4,2.2-0.4,2.5-1.4c0.2-1-0.3-2.2-1.4-2.5
		c-0.9-0.2-1.9-0.3-2.6,0.3c-0.2,0-0.5,0.1-0.7,0.2c-0.4,0.3-0.6,0.8-0.3,1.3C923.2,1029.1,923.4,1029.2,923.5,1029.4z"/>
	<path fill="#2B4CA9" d="M934.6,1036.4c0.6,0.4,1.5,0.3,2-0.1c0.6-0.5,0.8-1.2,0.6-1.9c-0.2-0.9-0.9-1.5-1.4-2.1s-0.9-1.1-1.7-1.4
		c-0.6-0.2-1.3,0.3-1.5,0.8c-0.2,0.8,0.2,1.6,0.4,2.3C933.4,1034.9,933.8,1035.7,934.6,1036.4z"/>
	<path fill="#2B4CA9" d="M943.1,1042.6c-0.2-0.8-0.5-1.5-1-2.1c-0.3-0.4-0.6-0.7-0.9-1c-0.2-0.2-0.5-0.4-0.7-0.5
		c-0.1-0.1-0.3-0.1-0.4-0.2c-0.5-0.1-0.6-0.1-0.4,0c-0.8-0.1-1.7,0.3-1.7,1.3c0,0.8,0.3,1.5,0.7,2.2c0.2,0.4,0.3,1.2,0.5,1.7
		c0.4,1.1,1.5,1.8,2.7,1.3C943,1044.8,943.6,1043.5,943.1,1042.6z"/>
	<path fill="#2B4CA9" d="M945.6,1054c0.2-1-0.1-1.8-0.3-2.8c-0.2-0.8-0.5-1.5-1-2.1c-0.4-0.6-1.4-0.3-1.7,0.2
		c-0.6,1-0.6,2.1-0.7,3.2c-0.1,0.5-0.2,0.9,0,1.4c0.3,0.8,0.9,1.4,1.9,1.4C944.6,1055.4,945.4,1054.8,945.6,1054z"/>
	<path fill="#C52828" d="M903.4,1039.9c-1.1,1-2,2.4-2.6,3.7c-0.6,1.1-1.4,2.6-1,3.9c0.2,0.6,0.9,0.8,1.4,0.4
		c0.9-0.8,1.2-2.2,1.8-3.2c0.7-1.2,1.6-2.1,2.3-3.2C906.2,1040.2,904.4,1039.1,903.4,1039.9z"/>
	<path fill="#C52828" d="M920.9,1039.9c0.8-0.8-0.2-2.2-1.2-1.6c-3,1.8-5.7,4-8.3,6.3c-2.1,1.7-5.8,3.9-6.2,6.7
		c0,0.2,0.1,0.5,0.4,0.5c2.6,0.1,5.1-2.8,7-4.4C915.4,1045,918.4,1042.6,920.9,1039.9z"/>
	<path fill="#C52828" d="M911.8,1053.9c-1.1,0.9-2,1.2-2.4,2.5c0,0.2,0.1,0.3,0.2,0.4c2,0.5,4.4-1.8,6.2-2.6
		c2.4-1.1,5.4-1.5,7.4-3.2c0.7-0.6,0.1-1.7-0.7-1.7c-2.5,0-5.6,1.4-7.8,2.6C913.7,1052.3,912.8,1053.1,911.8,1053.9z"/>
	<path fill="#C52828" d="M914.7,1058.3c-0.8,0.2-1.6,0.4-2.3,0.9c-0.9,0.7-0.6,2,0.6,2.1c0.8,0.1,1.6-0.1,2.4-0.3
		c0.8-0.2,1.6-0.3,2.3-0.8c1.1-0.7,0.6-2.3-0.7-2.4C916.3,1057.8,915.5,1058.1,914.7,1058.3z"/>
	<path fill="#E07930" d="M855.7,1109.3c-0.7-0.4-1.8-0.2-2.5-0.3c-1.1-0.1-2.1-0.3-3.2-0.6c-2.3-0.8-4.6-2.3-5.3-4.8
		c-0.6-2.1-0.2-4.2-0.1-6.4c0-1.2-1.4-1.4-2-0.6c-2,2.8-1.4,9,0.7,11.6c2.6,3.3,7.5,4.8,11.5,4.3c0.8-0.1,1.4-0.5,1.7-1.3
		C856.8,1110.5,856.4,1109.8,855.7,1109.3z"/>
	<path fill="#E07930" d="M857,1103c-2-0.4-4.4-0.1-5.8-1.9c-0.6-0.7-0.9-1.6-1-2.4c-0.2-0.8-0.1-1.3-0.8-1.9c-0.2-0.1-0.3-0.1-0.5,0
		c-1.6,1.2-0.3,4.5,0.7,5.9c1.5,2.1,4.6,3,7,2.9C858,1105.5,858.5,1103.3,857,1103z"/>
	<path fill="#E07930" d="M858.8,1099.3c-0.8-0.3-1.7-0.4-2.4-0.9c-0.3-0.2-0.6-0.5-0.9-0.8c-0.3-0.3-0.7-0.6-0.9-0.9
		c-0.2-0.4-0.7-0.1-0.6,0.3c0.1,0.6,0,1,0.3,1.6c0.3,0.5,0.6,0.9,1,1.3c0.8,0.9,2,1.7,3.2,1.8C860,1101.7,860,1099.7,858.8,1099.3z"
		/>
	<path fill="#FEB04B" d="M873.2,1072.3c-2.7,0.4-7.4,1.7-10,2.4c0,0,0,0.1-0.1,0.1c-2.1,4.8-1.6,8.4-1.6,8.4s-0.1,0-0.1,0.1
		c4.3,2.7,7.8,7,9.6,9.6c2-1.4,3.6-2.7,3.6-2.7s2.6-0.1,6.5-1.3c0-4.1-0.2-11-1.6-14.1C877.6,1070.5,877,1071.8,873.2,1072.3z"/>
	<path fill="#FEB04B" d="M889.4,1091.6c-4.9,0.3-6.7,2.2-9.5,5.5s-3.7,7.6-0.7,9.8s5.7,5.2,9.2,0
		C891.9,1101.8,899,1091.1,889.4,1091.6z"/>
	<path fill="#7B7B7B" d="M864.9,1071c-0.6,1.3-1.2,2.6-1.8,3.8c2.6-0.8,7.3-2.1,10-2.5c3.9-0.6,4.4-1.9,6.4,2.6
		c1.3,3.1,1.6,10,1.7,14.1c0.7-0.2,1.5-0.5,2.3-0.8c1.7-0.6,3.3-1.3,4.6-1.8l-3.7-18.2C884.3,1068.3,874.4,1068,864.9,1071z"/>
	<path fill="#7B7B7B" d="M861.4,1083.4c-0.6,0.4-2.6,2.1-3.4,4.6c-1,2.9,0,3.6,2.5,5.4c2.5,1.7,3.1,2.7,5.4,2.3
		c1.6-0.3,3.5-1.4,5.2-2.6C869.2,1090.5,865.7,1086.1,861.4,1083.4z"/>
	<path fill="#CE2828" d="M880.6,1144.2c2.6-3.3,3.2-4.6,3.2-4.6l-6.6-1.7c0,0,5.2-6.3,5.8-7.3c0.6-0.9-4.7-3.7-5.4-4.2
		s-5.9,6.9-5.9,6.9s-3.3-4.2-4.5-5.1s-1.8-0.2-3.2,1.4c-1.5,1.6-1.5,1.4-1.1,3.4s4.2,6.3,4.2,6.3s-4.2,5.3-4.8,5.9s3.4,3.1,4.7,3.7
		c1.3,0.7,6.1-6.9,6.1-6.9s2.3,1.2,4.6,1.9C880,1144.7,880.6,1144.2,880.6,1144.2z"/>
	<circle fill="#A3A72E" cx="847.8" cy="1170.6" r="1.9"/>
	<circle fill="#A3A72E" cx="838" cy="1184.8" r="1.9"/>
	<circle fill="#A3A72E" cx="842.9" cy="1178.2" r="1.9"/>
	<circle fill="#A3A72E" cx="835" cy="1190.7" r="1.3"/>
	<path fill="#2B4CA9" d="M820.7,1217.7c3.5-4.6,6.5-14.2,6.7-15s-5.4-4.9-6.7-5.6s-4.6,3.2-7.1,6.4c-2.5,3.3-5,5.4-3.1,5.5
		s7.7-1,8.6-0.8c0.9,0.2,0.7,3,0.6,5.9C819.7,1217.1,820.2,1218.5,820.7,1217.7z"/>
	<path fill="#7A44B3" d="M788,1206.9c0.1,0,4.2,3,4.8,3.5s2-3.7,2.4-4.4c0.4-0.7-4.8-4-4.9-4.1c-0.1-0.2,3-4.3,3.3-5.2
		c0.3-0.9-3.3-2.4-4-2.7c-0.6-0.3-3.9,4.8-4.6,5.5s-3.6-1.1-4.6-1.5s-3.4,2.5-3.8,3.2c-0.4,0.7,4.3,2.1,5.2,3
		c0.8,0.9,1.5,0.3-0.3,2.5s-3.9,4.8-3.2,5.8s3,2.3,4.5,1.7S788,1206.9,788,1206.9z"/>
	<path fill="#A3A72E" d="M754.7,1238.4c-2.9-0.5-4.1,1.2-4.3,4c-0.2,2.9,3,5.3,5.8,3.8C759.1,1244.8,760.3,1239.3,754.7,1238.4z"/>
	<path fill="#CE2828" d="M687.2,1213.4c0,0.1-0.1,3.4,1.3,4.3c1.3,1,3,0.4,3.2-1.5s0-4,0-4s2.4,0.5,3.4-1.2s-0.1-3.9-4.4-3.5
		c0,0,0.1-2.5-2.2-2.2s-1.7,2-2,3.8c0,0-1.9-0.7-3.4,0.6c-1.5,1.3-1.3,2.9,0,3.6C684.5,1213.9,687.2,1213.4,687.2,1213.4z"/>
	<polygon fill="#FEB04B" points="704.3,1259.5 704,1264.5 710.1,1264.5 710.1,1259.9 	"/>
	<polygon fill="#FEB04B" points="704,1275 703.5,1280.2 708.8,1280.1 709,1275 	"/>
	<polygon fill="#FEB04B" points="704,1291.3 704,1296 708.5,1296 708.5,1291 	"/>
	<path fill="none" d="M828.7,1131.8c-0.5,0.5-0.8,1.1-1,1.9c0.1,0.8,0.1,1.5,0.1,2.4c0.1,1.6,0.7,2.3,2.4,2.5c2.5,0.3,5-1.8,4.5-4.5
		C834.1,1131.6,830.7,1130,828.7,1131.8z"/>
	<path fill="none" d="M808.5,1112.8c-0.9,1.7-0.8,3.9,0.5,5.4c2.7,3,6.4,1.1,8-1.9c1.8-3.4-0.1-7.6-4.3-6.6
		c-1.1,0.3-2.6,1.3-3.9,2.6C808.7,1112.4,808.6,1112.6,808.5,1112.8z"/>
	<g>
		<path fill="none" d="M785.8,1291.3c-1.2,0.1-2.3,0.7-1.9,2c0.3,0.9,1.3,1.4,2.1,1.7c0.5-0.2,0.9-0.6,1.2-1.2
			C787.8,1292.7,787.2,1291.2,785.8,1291.3z"/>
		<path fill="none" d="M814.9,1272.9c-0.6-0.2-1.2-0.3-1.8-0.4c-0.1,1.1,0.3,2.2,0.7,3.2c0.4-0.4,0.8-0.7,1.2-1
			c0.5-0.4,0.9-0.8,1.4-1.3C815.9,1273.2,815.4,1273,814.9,1272.9z"/>
		<path fill="#E57C30" d="M780.6,1300.1c-2.4-1-5.2-2.9-7.7-3.1c-0.7-0.1-1.3,0.6-1.5,1.2c-0.6,1.6-0.1,3.7,0.5,5.3
			c0.2,0.4,0.3,0.9,0.5,1.3c-0.3,0.1-0.6,0.2-0.8,0.3c-0.8,0.7-2.6,1.3-3.5,1.8c-0.5,0.3-0.9,1.1-0.7,1.7c1,2.4,4.8,4,7.3,4.4
			c1.1,0.1,2.1-1.1,1.1-2c-0.8-0.8-1.5-1.2-2.5-1.6c-0.3-0.1-1-0.4-1.6-0.7c1.6-0.6,3.2-1.3,3.7-2.6c0.3-0.7,0-1.4-0.2-2.1
			c-0.3-0.9-0.7-2.3-0.8-3.5c1.6,0.6,3.5,1.8,4.7,2.4C780.9,1303.8,782.5,1300.9,780.6,1300.1z"/>
		<path fill="#E57C30" d="M786.4,1288.3c-2.7-0.3-6,1.5-5.6,4.5c0.2,2,1.8,3.5,3.6,4c2,1.5,4.2-0.2,5.3-2.3
			C791.1,1291.9,789.4,1288.7,786.4,1288.3z M787.3,1293.8c-0.3,0.6-0.7,1-1.2,1.2c-0.9-0.3-1.8-0.8-2.1-1.7c-0.5-1.3,0.7-1.9,1.9-2
			C787.2,1291.2,787.8,1292.7,787.3,1293.8z"/>
		<path fill="#E57C30" d="M801.4,1277.1c-0.4-0.1-1,0.1-1.1,0.6c-0.2,1.2,0.1,1.5,0.7,2.6c0.3,0.6,0.9,1.3,1.3,1.9
			c-0.5,0-1.1,0.1-1.4,0.1c-0.9-0.1-1.8-0.5-2.7-0.7c-1.5-0.3-2.8-0.3-4.3,0c-0.8,0.1-1,1.1-0.7,1.8c0.9,1.7,1.7,3.5,2.5,5.2
			c0.5,1.2,2.7,0.3,2.2-0.9c-0.4-1-0.9-2.1-1.4-3.1c0.2,0.1,0.3,0.1,0.5,0.1c1.2,0.3,2.4,0.1,3.6,0.3c1.6,0.2,3.5,1.1,5,0
			c1.3-1,1-2.6,0.2-3.8C804.8,1279.8,803.2,1277.4,801.4,1277.1z"/>
		<path fill="#E57C30" d="M822.7,1272.4c-1-1.5-2.7-1.6-4.4-1.8c-0.9-0.1-1.7-0.1-2.6-0.1c-1.1,0-2.2-0.3-3.4-0.2
			c-0.4,0-0.9,0.3-0.9,0.7c-0.2,1.8-0.2,3.2,0.4,5c0.5,1.4,0.6,3.5,1.7,4.6c0.3,0.3,0.8,0.2,1-0.1c0.6-0.8,0.5-1.6,0.2-2.5
			c0.2-0.1,0.4-0.1,0.6-0.2c0.5-0.3,1-0.7,1.5-1c0.9-0.7,1.8-1.6,2.7-2.3l0,0c1,0.2,1.9,0.2,2.8-0.3
			C822.8,1273.7,823,1273,822.7,1272.4z M815,1274.7c-0.4,0.3-0.8,0.6-1.2,1c-0.4-1-0.8-2.2-0.7-3.2c0.6,0.1,1.2,0.2,1.8,0.4
			c0.5,0.2,1,0.4,1.4,0.5C815.9,1273.9,815.4,1274.3,815,1274.7z"/>
	</g>
	<path fill="#CE2828" d="M783,1309.6c11.1-0.3,34.8,2.8,39.1,2.5s4.4,0.4,3.6-4.9s-4.5-24.8-4.5-24.8s-11.3,5.3-21.4,11
		C789.7,1299.2,783,1309.6,783,1309.6z"/>
	<g>
		<path fill="none" d="M758.3,1318.7c-1.3,0.1-2.5,0.1-3.7,0c0,1.9,1.4,3.4,3.4,4.5C758.1,1321.7,758.2,1320.2,758.3,1318.7z"/>
		<path fill="none" d="M826,1260.4c0.1-0.8,0.5-1.1,1.1-1.5c0.7-0.6,0.9-1.3,0.9-2.2c0-0.4,0-1.6-0.3-1.9s-1.2-0.2-1.6-0.2
			c-0.9,0.2-1.6,0.7-2.2,1.5c-0.9,6.1-9.1,10-13.9,12.7c-7.6,4.2-15.8,7.4-23.4,11.7c-8.4,4.7-16,11-20.6,19.5
			c-2.4,4.4-3.9,9.2-4.6,14.1c-0.4,3.4-0.2,7-1.6,10.1c3.9,1.5,8.9,2,10.9,2c4.2,0,5.6-1.4,6.9-5.6c0.5-1.6,0.5-3.4,0.9-5.1
			c1.6-7.3,5.3-13,11-17.7c6.2-5.1,13.8-8.6,21.1-11.8c8.8-3.8,15.6-7.5,19.8-16.6c-1.5-2.1-4-5-4.1-7.7
			C826,1261.4,825.9,1260.9,826,1260.4z"/>
		<path fill="none" d="M833.2,1262.4c-0.8-1-1.4-2.1-2-3.2c-0.5,1.1-1.2,2.1-2.1,2.7c1.2,1.3,2.2,3,3.1,4.3c0.9,1.3,1.9,2.5,2.9,3.7
			c0.6,0.7,1.4,2.1,2.3,2.5c0.1,0,0.1,0.1,0.1,0.1c0.5-0.7,0.9-1.3,1-1.8c0.3-1.4-0.8-2.6-1.5-3.7
			C835.9,1265.3,834.4,1264,833.2,1262.4z"/>
		<path fill="#FDAF4B" d="M839.3,1264.7c-2.4-2.8-4.5-5.5-6.3-8.8c-0.5-1-1-1.8-1.6-2.5c-0.5-1.1-1.4-2-2.8-2.4
			c-1.9-0.6-4.6-0.1-6,1.4c-0.6,0.7-1.1,1.8-1.2,2.7c0,0.3,0,0.7,0,1c-11.1,13.3-30.7,16.3-44.3,26.5c-6.2,4.7-11.2,11-14.4,18
			c-2.3,5.1-3.4,10.2-4,15.5c-1.7-0.3-3.4-0.8-5-1.2c-1-0.3-2,0.3-2.3,1.3c-2.4,9.4,9.9,12.6,16.8,13.3c3.4,0.3,8.1,0.6,10.7-2.1
			c3.2-3.3,2.7-10,4.1-14.3c7.5-23,39.1-20.6,49.7-40.7c1,1.3,2.1,2.5,3.5,3.1c0.4,0.8,1.6,1.3,2.3,0.5c1.3-1.7,3.7-4.4,3.8-6.6
			C842.2,1267.4,840.5,1266,839.3,1264.7z M754.6,1318.7c1.2,0.1,2.4,0.1,3.7,0c-0.1,1.5-0.2,3-0.3,4.5
			C756,1322.1,754.6,1320.6,754.6,1318.7z M810.7,1286c-7.3,3.2-14.9,6.7-21.1,11.8c-5.7,4.7-9.4,10.4-11,17.7
			c-0.4,1.7-0.4,3.5-0.9,5.1c-1.2,4.2-2.7,5.6-6.9,5.6c-2,0-6.9-0.5-10.9-2c1.4-3.1,1.2-6.7,1.6-10.1c0.6-5,2.2-9.7,4.6-14.1
			c4.6-8.6,12.2-14.8,20.6-19.5c7.6-4.3,15.7-7.5,23.4-11.7c4.8-2.7,13-6.5,13.9-12.7c0.6-0.7,1.2-1.3,2.2-1.5
			c0.4-0.1,1.3-0.2,1.6,0.2c0.3,0.3,0.3,1.5,0.3,1.9c0,0.9-0.2,1.6-0.9,2.2c-0.5,0.5-1,0.8-1.1,1.5c-0.1,0.5,0,1,0.4,1.3
			c0.1,2.6,2.6,5.6,4.1,7.7C826.3,1278.5,819.5,1282.2,810.7,1286z M838.5,1270.6c-0.1,0.5-0.5,1.2-1,1.8c-0.1,0-0.1-0.1-0.1-0.1
			c-0.8-0.3-1.7-1.8-2.3-2.5c-1-1.2-2-2.4-2.9-3.7c-0.9-1.3-1.9-3-3.1-4.3c0.9-0.7,1.6-1.6,2.1-2.7c0.6,1.1,1.3,2.2,2,3.2
			c1.2,1.6,2.7,2.9,3.8,4.5C837.7,1268,838.8,1269.2,838.5,1270.6z"/>
	</g>
	<path fill="#7A44B3" d="M720.3,1322c2.4,0.4,4.8,0.7,7.3,0.9c2.2,0.2,4.7,0.7,6.6-0.6c1.1-0.8,1-2.1,0-2.9c-1.7-1.3-4-1-6.1-1
		c-2.4,0-4.9,0-7.3,0C718.9,1318.5,718.2,1321.6,720.3,1322L720.3,1322z"/>
	<g>
		<path fill="#A3A72E" d="M701,1335.3c-1.5-1.4-0.6-1.7,1.2-3.2s3.5-4.3,1.1-9.8c-2.5-5.5-6.8-5.5-6.8-5.5l-0.2-6.9
			c0,0-6.6,0.8-6.9,0.9l0.5,6.3c-4.3,1.4-5.7,5.3-4.9,10.7c0.8,5.3,6,6.2,7.2,6.9s1,0.9,2.5,3.8s4.5,4.4,4.5,4.4l4.8-4.5
			C703.9,1338.5,702.5,1336.7,701,1335.3z M697.5,1329.8c-1.6,1.1-4.6,0.5-5.6-1.3s-0.2-3.6,1.2-4.9c0.7-0.6,1.8-0.8,3.9,0.8
			S699.1,1328.7,697.5,1329.8z"/>
	</g>
	<path fill="#FEB04B" d="M775.9,1347.4c-0.1,0.1-0.1,0.2-0.2,0.3C775.8,1347.6,775.9,1347.5,775.9,1347.4L775.9,1347.4z"/>
	<path fill="#FEB04B" d="M749.4,1355.5c-2.8-2.3-6.4-3.4-9.6-4.9c-3.6-1.7-7.4-3.2-10.9-5c-0.8-0.4-1.6,0.8-0.7,1.3
		c3.4,2.2,6.6,4.5,10.1,6.4c3.1,1.7,6.4,3.9,9.9,4.4C749.3,1357.9,750.5,1356.5,749.4,1355.5z"/>
	<path fill="#FEB04B" d="M748.7,1346.5c-1-0.7-2.5,0.2-1.8,1.4c1.6,2.6,4.4,4.2,6.4,6.4c1.4,1.5,3.6-0.7,2.2-2.2
		C753.5,1350,751,1348.3,748.7,1346.5z"/>
	<path fill="#FEB04B" d="M760.8,1350.7c-0.2-0.3-0.4-0.5-0.7-0.6c-0.1-0.1-0.1-0.2-0.2-0.3c-0.2-0.4-0.4-0.7-0.6-1.1
		c-0.4-0.7-0.9-1.4-1.6-1.9c-0.7-0.5-1.7,0.2-1.7,1c0,1.3,0.8,2.7,1.3,3.9c0.3,0.5,0.5,1.1,1,1.4c0.7,0.4,1.7,0.3,2.2-0.3
		C761.1,1352.2,761.2,1351.4,760.8,1350.7C760.8,1350.8,760.8,1350.8,760.8,1350.7z"/>
	<path fill="#FEB04B" d="M745.8,1362.7c0.4-0.4,0.4-1,0.2-1.4c-0.7-1.4-2.4-1.2-3.7-1.4c-1.3-0.2-2.6-0.8-3.8-0.8
		c-0.9,0-1.4,1.1-0.7,1.8c1,1.1,2.4,1.5,3.8,1.9C742.9,1363.1,744.6,1363.9,745.8,1362.7z"/>
	<path fill="#FEB04B" d="M745.9,1365c-1-0.1-1.9,0.1-2.8,0.3c-0.9,0.2-1.7,0.4-2.5,0.8c-0.6,0.3-0.4,1.2,0.2,1.4
		c0.9,0.2,1.6,0.3,2.5,0.3s1.8,0.1,2.7-0.1C747,1367.2,747.3,1365.2,745.9,1365z"/>
	<path fill="#FEB04B" d="M777.5,1346.9c-0.3-0.4-0.7-0.7-1-1c-0.3-0.2-0.5-0.5-0.9-0.6c-0.3,0-0.7,0.1-0.9,0.4
		c-0.3,0.6,0,1.2,0.3,1.8c0.2,0.5,0.5,1.1,0.8,1.6c0.7,1.1,2.2,0.8,2.6-0.3c0.1-0.3,0.1-0.7,0-1
		C778.1,1347.3,777.8,1347.1,777.5,1346.9z M775.9,1347.4L775.9,1347.4c-0.1,0.1-0.1,0.2-0.2,0.3
		C775.8,1347.6,775.9,1347.5,775.9,1347.4z"/>
	<path fill="#FEB04B" d="M779.2,1338.9c-0.4-0.3-1.2-0.3-1.3,0.3c-0.2,1.6,0.3,3.1,0.9,4.5c0.6,1.5,0.9,3.1,2.5,3.7
		c0.6,0.2,1.4-0.3,1.5-0.9c0.4-1.5-0.7-2.7-1.3-4C780.9,1341.4,780.3,1339.9,779.2,1338.9z"/>
	<path fill="#FEB04B" d="M788.3,1325.7c-1.9,5.5-2.5,12.1-3,17.9c-0.1,1.8,2.8,2.2,3.1,0.4c0.9-6,0.9-12.1,1.7-18.1
		C790.3,1324.9,788.6,1324.8,788.3,1325.7z"/>
	<path fill="#FEB04B" d="M792.8,1345.6c-0.1,0-0.2,0.1-0.2,0.1c-0.1,0,0,0.1,0.1,0.1s0.2-0.1,0.3-0.1
		C793,1345.6,792.9,1345.5,792.8,1345.6z"/>
	<path fill="#FEB04B" d="M797.3,1333.4c-3.6,3.3-6.5,7.9-7.3,12.9c-0.1,0.6,0.6,1.3,1.2,0.7c3.4-3.7,5.6-8.5,6.5-13.3
		C797.7,1333.4,797.5,1333.3,797.3,1333.4z"/>
	<path fill="#FEB04B" d="M801.7,1343.4c0.8-1.1-0.7-2.1-1.7-1.7c-1.3,0.6-2.4,1.8-3.4,2.8c-1.1,1.1-2.1,2.1-2.7,3.5
		c-0.4,0.9,0.4,2,1.4,1.4c1.3-0.8,2.2-1.9,3.3-2.9C799.6,1345.4,800.8,1344.6,801.7,1343.4z"/>
	<path fill="#FEB04B" d="M764.3,1401.2c-0.5,0-0.9,0.4-0.9,0.9c0,0.1,0,0.1,0,0.2c0,0.3,0,0.6,0.2,0.9c0.5,0.9,2,0.5,2-0.5
		C765.5,1401.9,765.1,1401.1,764.3,1401.2z"/>
	<path fill="#FEB04B" d="M769.7,1404.3L769.7,1404.3c-0.5-0.7-1.3-0.6-1.7,0.1c-0.5,0.6-0.4,1.4-0.6,2.1c-0.1,0.6,0.1,1.3,0.7,1.6
		c0.4,0.2,0.7,0.2,1.1,0.1c0.7-0.1,1-0.8,1.1-1.4C770.3,1405.9,770.3,1404.9,769.7,1404.3z"/>
	<path fill="#FEB04B" d="M774.3,1405.8c-0.7,0.5-0.9,1.2-1.1,2c-0.2,0.8-0.3,1.7-0.3,2.4c0.2,1.7,2.5,2.2,3.1,0.4
		c0.2-0.7,0.3-1.7,0.3-2.4c0-0.8,0-1.7-0.6-2.3C775.3,1405.6,774.7,1405.5,774.3,1405.8z"/>
	<path fill="#FEB04B" d="M779.8,1409.6c-0.2,0.7-0.5,1.4-0.7,2.1c-0.1,0.7-0.3,1.4-0.4,2.2c-0.2,0.9,0.2,1.7,1.1,2
		c0.8,0.2,1.8-0.3,2-1.1c0.1-0.3,0.1-0.5,0.1-0.8c0-0.1,0-0.1,0-0.2c0.1-0.5,0.2-1,0.2-1.5c0.1-0.8-0.1-1.6-0.1-2.3
		C782,1408.6,780.1,1408.3,779.8,1409.6z"/>
	<path fill="#FEB04B" d="M785.2,1412.1c-0.3,0.4-0.3,0.9-0.2,1.4c0.4,1.3,2.3,1.1,2.4-0.3c0-0.5-0.2-1-0.5-1.3
		C786.3,1411.5,785.5,1411.5,785.2,1412.1z"/>
	<path fill="#FEB04B" d="M802.8,1407.4c-0.2-0.2-0.5-0.3-0.7-0.3c-0.2-0.1-0.4-0.2-0.5-0.3c-0.2-0.1-0.4-0.2-0.6-0.3
		c-0.2,0-0.4,0-0.5,0c-0.7-0.1-1.3,0.5-1,1.2c0.1,0.1,0.1,0.2,0.1,0.4c0.1,0.2,0.2,0.3,0.4,0.5s0.4,0.4,0.7,0.6
		c0.7,0.5,1.6,0.9,2.3,0.1C803.3,1408.7,803.3,1407.9,802.8,1407.4L802.8,1407.4z"/>
	<path fill="#FEB04B" d="M805.6,1402.2c-0.6-0.2-1.2-0.4-1.8-0.6c-0.2,0-1-0.1-1.1-0.2c-0.7-1.1-2.5-0.4-2.1,0.9
		c0.5,1.8,2.6,2.3,4.2,2.9c0.8,0.3,1.7-0.3,1.9-1.1C806.9,1403.3,806.4,1402.4,805.6,1402.2z"/>
	<path fill="#FEB04B" d="M820.7,1399.8c-2.5-1.9-6-2.6-9.1-3.2c-3-0.6-6.5-1.5-9.6-1.1c-0.6,0.1-1.1,0.8-0.5,1.3
		c2.4,2.1,5.7,2.2,8.7,2.7c3.3,0.6,6.8,1.9,10.2,1.9C821.2,1401.4,821.3,1400.3,820.7,1399.8z"/>
	<path fill="#FEB04B" d="M802.6,1391.2c0.1,0.5,0.6,0.8,1.1,0.9c3.4,0.4,6.9,1.3,10.3,1.5c1.7,0.1,2-2.5,0.4-2.9
		c-3.3-0.9-7.6-1.8-11-0.9c-0.5,0.1-0.9,0.6-0.9,1.1c0,0.1,0,0.1,0,0.2C802.6,1391.1,802.6,1391.2,802.6,1391.2z"/>
	<path fill="#FEB04B" d="M804.5,1386.8c0.7,0,1.5,0.1,2.2,0c0.8-0.1,1.5-0.2,2.3-0.4c1.6-0.3,1.3-3.2-0.4-3
		c-0.8,0.1-1.5,0.3-2.3,0.5c-0.7,0.2-1.4,0.6-2.1,0.9C803.2,1385.2,803.3,1386.9,804.5,1386.8z"/>
	<path fill="#7A44B3" d="M838.8,1370.1c-0.2-0.9-0.8-1.6-1.6-2.1c-0.5-0.3-1-0.4-1.5-0.4c-0.2-0.1-0.5-0.1-0.7-0.1
		c-0.5,0-1.1,0.2-1.5,0.5c-0.2,0.1-0.4,0.2-0.5,0.3c-1.2,0.7-2,1.9-2,3.3c0,1.2,0.5,2.4,1.5,3.1c0.8,0.8,2.1,1.1,3.3,0.7
		s2.6-1.3,3.2-2.5C839.4,1372,839.3,1370.9,838.8,1370.1z"/>
	<g>
		<g>
			<path fill="#CE2828" d="M754.8,1361.3c-0.8-0.8-1.2,2.1-1.4,2.8c-0.5,1.8-0.7,3.4-0.8,5.3c-0.3,4-0.9,7.9-1.1,11.8
				c1.2,0,2.4,0,3.6,0c0-0.1,0-0.3,0-0.4c-0.2-2.3-3.4-2.3-3.6,0c0,0.1,0,0.3,0,0.4c-0.2,2.3,3.5,2.3,3.6,0c0.3-4,0.9-7.8,1.1-11.8
				c0.1-2.8,2.1-6.6,0.5-9.1c-0.4-0.6-1.1-0.6-1.6-0.2c-0.1,0-0.1,0.1-0.2,0.1C754.5,1360.5,754.5,1361,754.8,1361.3L754.8,1361.3z"
				/>
		</g>
	</g>
	<g>
		<path fill="none" d="M774.8,1369.3c2.3-0.9,4.7-1.8,7.2-2.7c-2-1.4-3.9-2.7-6-4c-1.4-0.8-3.2-1.6-4.6-2.7c-0.5,2.4-1.4,4.6-1.9,7
			c-0.4,1.5-0.2,3.1-0.5,4.6C771,1370.7,773,1370,774.8,1369.3z"/>
		<path fill="none" d="M778.1,1360.1c2,0.9,3.9,2.1,5.7,3.3c0-0.8,0.1-1.6,0.1-2.4c-0.1-2.4-0.4-4.7-0.1-7.1l-0.1-0.1
			c-3.5,1.4-7,2.6-10.6,3.7C774.8,1358.3,776.6,1359.4,778.1,1360.1z"/>
		<path fill="none" d="M777.3,1371.8c-2.3,0.9-4.7,1.8-7,2.7c4,2.8,6.8,8.2,9.1,12.1c2.8,4.6,5.2,9.4,8,14
			c-0.8-6.2-1.7-12.4-2.6-18.6c-0.5-3.6-1.8-8.3-1.5-12.3C781.3,1370.3,779.3,1371,777.3,1371.8z"/>
		<path fill="none" d="M786.5,1361c0,1.3,0.3,2.7,0.1,4c3.6-1.1,7.2-2,10.9-2.3c-2.2-1.6-4.5-3-6.9-4.4c-1.3-0.8-2.8-1.4-4.1-2.2
			C786.5,1357.7,786.4,1359.4,786.5,1361z"/>
		<path fill="none" d="M767.7,1366.7c0.3-2.7,1.2-5.3,1.5-8c-3.9,1.1-7.8,2.2-11.6,3.4c0.4,0.4,0.9,0.9,1.4,1.3
			c1.2,0.9,2.3,1.7,3.5,2.6c1.4,1.1,3.5,2.3,5,3.8C767.6,1368.7,767.6,1367.7,767.7,1366.7z"/>
		<path fill="none" d="M789.1,1367.9c-1,0.3-2.1,0.5-3.1,0.9c0.4,1.9,0.5,4,0.8,6c0.4,3.1,0.9,6.2,1.4,9.2
			c0.8,5.7,1.8,11.3,2.7,16.9c0.9-5.1,2.5-10.2,3.6-15.1c0.9-3.8,1.8-7.7,2.7-11.5c0.6-2.5,1.5-5.3,1.9-8
			C795.7,1366.8,792.4,1367.1,789.1,1367.9z"/>
		<path fill="none" d="M777.8,1389.4c-2.8-4.9-7-9.2-9.6-14.1c-4.1,1.6-8.1,3.4-12,5.7c1.3,0.8,2.4,1.9,3.7,2.9
			c3.7,2.9,7.5,5.7,11.3,8.4c4.2,3,8.6,5.8,13,8.5C782,1397,779.9,1393.2,777.8,1389.4z"/>
		<path fill="#CE2828" d="M803.9,1361.2c-3.2-2.2-6.5-4.4-10-6c-2.6-1.2-5.4-2.9-8.2-3.9c-0.4-0.9-1.4-1.6-2.5-1.1
			c-5.5,2.4-11.3,4.1-17,5.9c-3.9,1.2-8.7,1.8-11.4,5.2c-0.4,0.5-0.2,1.4,0.5,1.4c0.6,1.9,2.9,3.9,4.1,5c1.4,1.2,2.8,2.3,4.3,3.5
			c0.6,0.5,1.3,1.1,1.9,1.6c-4.6,1.8-9.1,4-12.5,7.1c-0.2,0-0.3,0-0.5,0c-0.6,0-1,0.6-0.9,1.2c0.6,3.4,3.8,5.1,6.5,7.1
			c3.3,2.6,6.6,5.1,10.1,7.5c7.2,5,14.7,10.1,22.5,14.2c2,1.1,3.1-0.5,3.1-2c3.5-7.4,4.6-16.5,6.5-24.5c1.1-4.5,2.2-8.9,3.2-13.4
			c0.4-1.7,0.7-3.2,0.7-4.6C805.3,1364.4,805.6,1362.4,803.9,1361.2z M797.4,1362.7c-3.6,0.4-7.3,1.2-10.9,2.3
			c0.1-1.3-0.1-2.7-0.1-4c0-1.6,0.1-3.3,0-4.9c1.4,0.8,2.8,1.4,4.1,2.2C792.9,1359.7,795.2,1361.1,797.4,1362.7z M784.8,1381.9
			c0.9,6.2,1.8,12.4,2.6,18.6c-2.8-4.6-5.3-9.4-8-14c-2.3-3.9-5.2-9.3-9.1-12.1c2.3-0.9,4.7-1.8,7-2.7c2-0.8,4-1.5,6-2.1
			C783,1373.6,784.3,1378.3,784.8,1381.9z M783.6,1353.8C783.6,1353.9,783.7,1353.9,783.6,1353.8c-0.2,2.4,0.2,4.8,0.2,7.2
			c0,0.8-0.1,1.6-0.1,2.4c-1.8-1.3-3.7-2.4-5.7-3.3c-1.5-0.7-3.3-1.9-5.1-2.6C776.5,1356.4,780.1,1355.2,783.6,1353.8z
			 M771.4,1359.9c1.5,1,3.3,1.8,4.6,2.7c2.1,1.3,4,2.6,6,4c-2.5,0.9-4.9,1.8-7.2,2.7c-1.9,0.7-3.9,1.5-5.9,2.2
			c0.3-1.5,0.1-3.1,0.5-4.6C770,1364.5,770.9,1362.3,771.4,1359.9z M762.5,1366c-1.1-0.9-2.3-1.8-3.5-2.6c-0.5-0.4-0.9-0.8-1.4-1.3
			c3.9-1.2,7.8-2.3,11.6-3.4c-0.3,2.7-1.2,5.3-1.5,8c-0.1,1.1-0.1,2.1-0.2,3.1C766,1368.3,763.9,1367.1,762.5,1366z M759.8,1383.9
			c-1.3-1-2.4-2.1-3.7-2.9c3.8-2.3,7.9-4.1,12-5.7c2.6,4.9,6.9,9.3,9.6,14.1c2.2,3.8,4.2,7.6,6.4,11.4c-4.4-2.7-8.8-5.5-13-8.5
			C767.3,1389.6,763.6,1386.8,759.8,1383.9z M794.5,1385.9c-1.1,4.8-2.7,10-3.6,15.1c-0.9-5.6-1.9-11.3-2.7-16.9
			c-0.5-3.1-1-6.2-1.4-9.2c-0.3-2-0.3-4.1-0.8-6c1-0.3,2.1-0.6,3.1-0.9c3.3-0.8,6.6-1.1,9.9-1.6c-0.4,2.7-1.4,5.5-1.9,8
			C796.2,1378.2,795.4,1382,794.5,1385.9z"/>
	</g>
	<path fill="none" d="M833.8,1334.2c-2.5-0.9-5.4-1.7-8.1-1.7c-7.9,0.1-9.7,9.2-8.4,15.4c0.9,4.2,3.7,5.6,7.7,6.3
		c1.3,0.3,2.6,0.4,3.8,0.4c1.6-0.3,3.1-0.7,4.5-1.4c3.5-1.9,5.1-5.5,5.5-9.4C839.2,1339.6,838.1,1335.8,833.8,1334.2z"/>
	<path fill="#2B4CA9" d="M866.7,1348.6c-0.7-7.9-17.4-5.7-23.7-4.1c0-0.2,0-0.4,0-0.6c0-4.8-0.9-9.6-5.4-12c-4-2.2-10-3.6-14.5-2.8
		c-9.9,1.8-12.5,13.8-9.5,22.2c2.9,8.3,15.7,11.2,22.4,5.9c0.7-0.4,1.5-0.9,2.1-1.4c2.4-1.9,3.8-4.5,4.4-7.2
		c0.1,0.1,0.3,0.2,0.4,0.2c5.3,1.8,10.9,2.6,16.4,3.7C862.5,1353.1,867.2,1353.4,866.7,1348.6z M838.9,1343.9
		c-0.3,3.9-2,7.5-5.5,9.4c-1.4,0.7-2.9,1.1-4.5,1.4c-1.2,0-2.5-0.2-3.8-0.4c-4-0.8-6.8-2.1-7.7-6.3c-1.3-6.2,0.5-15.4,8.4-15.4
		c2.7,0,5.6,0.7,8.1,1.7C838.1,1335.8,839.2,1339.6,838.9,1343.9z"/>
	<circle fill="#E67C30" cx="843.2" cy="1295.5" r="3.5"/>
	<path fill="#A3A72E" d="M885,1315.3c0.2,0.1,0.3,0.2,0.5,0.3c0.7,0.4,1.7,0.5,2.4,0c6-4.3,4.5-16.6-1.5-20.4
		c-7.6-4.8-20,3.4-25.4,8.5c-5.6,5.2-11.8,15.9-8.2,23.7c1.6,3.4,5.1,5.6,8.8,5.8c5.3,0.3,9.2-3.3,13.3-6.1c2-1.4,0.2-4.6-1.9-3.3
		c-2.8,1.8-6,4.1-9.4,4.3c-6,0.4-6.7-4.5-5.4-9.1c1.7-6,5.6-10.6,10.6-14.1c5.5-3.8,17-10.8,17.4,1.3c0.1,1.6-0.1,3.1-0.7,4.6
		c-0.3,0.7-1.1,1.4-1.2,2.2C884.3,1313.7,884.2,1314.8,885,1315.3L885,1315.3z"/>
	<g>
		<path fill="#05FF0C" d="M859.5,1067c-0.9,0.6-1.9,1.2-2.9,1.8c0.1,0.2,0.1,0.4,0.2,0.6C857.7,1068.6,858.6,1067.8,859.5,1067z"/>
		<path fill="#2B4CA9" d="M856.9,1069.4c0.1,0.4,0.2,0.8,0.3,1.3c2.1-1.2,4.2-2.7,6.3-4c1.4-0.9,3-1.8,4.4-2.9
			c-0.5-0.4-0.9-0.9-1.2-1.3c-2.3,1.5-4.6,3-7.1,4.5C858.6,1067.8,857.7,1068.6,856.9,1069.4z"/>
		<path fill="#2B4CA9" d="M917.2,1028.2c0.6,0,1.2-0.1,1.7-0.4c0.8-0.5,1-1.6,0.5-2.3c-1.1,0.9-2.2,1.8-3.3,2.6
			c0.1,0,0.3,0.1,0.4,0.1C916.9,1028.2,917,1028.2,917.2,1028.2z"/>
		<path fill="#2B4CA9" d="M946.5,1059.6c-0.6-0.8-1.8-0.4-2.3,0.3c-1.3,1.9-1.1,4.5-1.3,6.7c-0.1,1.3,1.3,2.5,2.5,2.5
			c0.2,0,0.4,0,0.7-0.1c0.6-0.7,1.2-1.3,1.8-2c0-0.1,0-0.2,0.1-0.4C948,1064.2,948.1,1061.6,946.5,1059.6z"/>
		<path fill="#7A44B3" d="M935.3,1080.4c-1.8-0.4-3.4-2-4.8-3c-1.7-1.3-2.9-2.9-4.4-4.2c-0.7-0.6-2.1-0.5-2.3,0.6
			c-0.6,3.1,1.9,5.3,4.1,7c1.4,1.1,3,2.6,4.7,3.5c1.1-1.3,2.3-2.6,3.4-3.9C935.7,1080.4,935.5,1080.4,935.3,1080.4z"/>
		<path fill="#7A44B3" d="M917.8,1080.1c-1-1.2-2.9,0.1-2.6,1.5c0.8,2.8,2.5,5.4,4.7,7.3c1.5,1.3,3.4,2.8,5.4,3.8
			c1.2-1.4,2.4-2.8,3.7-4.2c-2.1-1-4.2-1.5-6.1-3C921,1083.8,919.4,1081.9,917.8,1080.1z"/>
		<path fill="#7A44B3" d="M914.1,1094.2c-1.7-1.3-2.8-3.2-4.2-4.8c-0.9-1.1-2.6-0.1-2.7,1.1c-0.3,5.3,5.8,9.1,10.3,11.2
			c1.1-1.3,2.3-2.7,3.5-4c-0.1-0.1-0.2-0.1-0.4-0.1C918.3,1096.8,916,1095.7,914.1,1094.2z"/>
		<path fill="#C52828" d="M896.2,1047.6c0.1,0.3,0.5,0.2,0.6,0c0.5-0.7,0.7-1.2,0.8-2s0.3-1.6,0.5-2.4c0.1-0.4-0.1-0.8-0.4-1
			c-0.5,0.4-1.1,0.7-1.6,1.1c-0.2,0.7-0.3,1.3-0.3,2C895.6,1046.2,895.7,1046.8,896.2,1047.6z"/>
		<path fill="#FEB04B" d="M869.3,1062.5c-0.4,0.5-0.9,0.9-1.4,1.3c0.2,0.2,0.4,0.3,0.7,0.5c0,0-1.8,3.1-3.5,6.6
			c9.5-3,19.4-2.6,19.4-2.6l3.5,18.2c2.6-1,4.3-1.8,4.3-1.8s2.7,3.4,5.2,3.8s3.8-1.2,3.6-4.8c-0.2-3.5-3-11.3-3-11.3s3.9-2,4.2-7.2
			s-1.3-8.6-6.6-10.6s-12.7,4.1-12.7,4.1l-6.4-2.5c-2.4,1.6-5,3.2-7.6,4.9C869.5,1061.2,869.7,1062,869.3,1062.5z M891.3,1056.9
			c2,0,1.6,0.4,5.5,2.8s3,4.1,1.2,5.1s-2.9-0.5-6.3-3.3S889.1,1056.9,891.3,1056.9z"/>
		<path fill="#FEB04B" d="M869.3,1062.5c0.4-0.5,0.2-1.3-0.3-1.5c-0.8,0.5-1.6,1-2.4,1.5c0.4,0.5,0.8,0.9,1.2,1.3
			C868.4,1063.4,868.8,1063,869.3,1062.5z"/>
		<path fill="#FEB04B" d="M847.4,1083.2c3.9,1.8,7.9-1.2,9.4-7.5c0.5-2,0.5-3.7,0.3-5c-0.1,0-0.2,0.1-0.2,0.1
			c-0.5,0.3-1-0.4-0.6-0.8c0.2-0.2,0.4-0.4,0.6-0.6c-0.1-0.2-0.1-0.4-0.2-0.6c-3.8,2.4-7.8,4.9-11.8,7.5
			C843.5,1079.7,844.7,1081.9,847.4,1083.2z"/>
		<path fill="#FEB04B" d="M856.3,1070c-0.4,0.4,0.1,1.1,0.6,0.8c0.1,0,0.2-0.1,0.2-0.1c-0.1-0.5-0.2-0.9-0.3-1.3
			C856.7,1069.6,856.5,1069.8,856.3,1070z"/>
		<path fill="#A3A72E" d="M848.7,1156.5c-2-2.5-1.8-3.2-6.5,0.7s-18.4,21-22.7,25.2s-6.9,6.5-7.8,7.7c-0.8,1.2,1.9,6.6,6.5,12.1
			c3.7,4.4,11.4,7.7,14.4,8.8c0.8-1.2,1.6-2.3,2.3-3.4c-2-1-6.8-3.3-9.9-5c-4-2.2-8.3-7.3-9.4-8.9s1.8-3.8,3.2-4.8c0,0,1.1,5,8.2,9
			c4.2,2.4,8.2,4.4,10.8,5.6c0.8-1.2,1.6-2.3,2.4-3.5c-1.8-0.7-4.9-2-8.5-3.8c-5.7-2.8-7.6-5.3-7.6-5.3s7.7-9.6,12.8-15.7
			c5-6.1,10.9-12.8,10.9-12.8s4.7,4.8,8.8,7.3c1.6,1,3,1.6,4.1,1.9c0.9-1.2,1.8-2.3,2.7-3.5C855.3,1164.6,850.5,1158.8,848.7,1156.5
			z"/>
		<path fill="#2B4CA9" d="M748.5,1143.8c0,1.4,2.2,1.7,2.5,0.3c0.3-1.2,1.3-2.1,1.6-3.4c0.2-1.1,0.2-2.3-0.1-3.4
			c-1.6,1.1-3.2,2.3-4.7,3.4c0,0.1,0,0.3,0,0.4C747.9,1142,748.5,1142.9,748.5,1143.8z"/>
		<path fill="#2B4CA9" d="M727.5,1173.6c-0.3,3.1-0.4,6.2,3,7.3c1.7,0.6,3.3,0,5.1-0.1c3.1-0.1,6.1,0.8,9.1,1.5
			c9.9,2.6,20.2,6,30.6,5.3c4.3-0.3,8.6-1.1,12.5-2.9c4.2-1.8,6.9-4.8,10.3-7.5c-0.2,1.8-0.3,3.7,0.6,5.5c0.6,1.2,2.1,0.8,2.8,0
			c1.4-1.8,1.5-4.3,1.8-6.5c0.2-1.7,1-4.3,0.2-6c-0.8-1.8-3.2-1.8-4.8-2.1c-2.4-0.5-4.5-0.9-6.9-0.5c-1.4,0.2-1.5,2.3-0.4,2.9
			c1.4,0.8,2.6,1.2,4.1,1.5c0.1,0,0.3,0.1,0.4,0.1c-12.2,9.6-28.3,9.5-42.3,4.2c-3.4-1.3-6.8-2.4-9.7-4.1c3.4-2.7,6.6-5.6,9.9-8.3
			c5.8-4.8,11.5-9.5,17.3-14.2c4.6-3.8,9.2-7.5,13.8-11.3c1,2,2.4,3.9,3.6,5.4c2.8,3.6,6.5,6.5,10.9,7.7c9.6,2.8,19.9-2.4,27.4-8.1
			c0.7,0.3,1.4,0.5,2.2,0.7c6.6,1.2,12.9-4.5,11.5-11.3c-1.3-6.5-9-9.5-14.5-5.7c-3.4,2.4-5.1,8.2-3.2,12c-3,2.2-6.6,4.5-10.4,5.9
			c-3.2,0.4-6.4,0.5-9.8-0.3c-6.1-1.4-9.8-5-12.7-10.3c5.2-4.3,10.5-8.6,15.7-12.9c0.1,0.2,0.3,0.3,0.5,0.5
			c5.1,4.8,13.8,2.8,16.7-3.4c3.1-6.5-0.8-14.4-8.3-14.5c-5.8-0.1-11.3,5-11.9,10.7c-19,14.4-36.2,30.9-54.3,46.4
			c-3,2.5-6.1,4.9-8.9,7.7c-1.1-1.3-2-2.7-2.7-4.5c-2.5-6.4-0.3-11.4,2.3-16.8c-3.6,2.7-7.2,5.4-10.7,8.1c-0.1,0.7-0.1,1.5-0.1,2.2
			C727.8,1163,728,1168.2,727.5,1173.6z M828.7,1131.8c2-1.8,5.4-0.1,5.9,2.3c0.5,2.6-2,4.7-4.5,4.5c-1.7-0.2-2.3-0.9-2.4-2.5
			c0-0.9,0-1.6-0.1-2.4C827.8,1132.9,828.1,1132.2,828.7,1131.8z M808.5,1112.8c0.1-0.2,0.2-0.4,0.3-0.6c1.3-1.3,2.8-2.4,3.9-2.6
			c4.2-0.9,6.1,3.3,4.3,6.6c-1.6,3-5.4,4.9-8,1.9C807.7,1116.7,807.6,1114.5,808.5,1112.8z"/>
		<path fill="#E67C30" d="M693,1190.2c1.3,0.5,2.9,0.7,4.3,0.5c1.6,4.1,4.9,7.5,7.5,10.9c1.3,1.7,2.7,4.2,4.4,5.8
			c-1.2,3.5-1.2,9.1,0,11.9c1,2.3,3.7,4.3,5.5,5.9c1.3,1.2,2.4,2.2,3.8,2.8l0,0c-1.6,2.4-1.2,6.2,0.2,8.6c2.5,4.2,8.2,2.9,10.8-0.4
			c1.3-1.6,2.5-3.9,2.2-6c-0.4-2.4-2.5-3.7-4.7-4.3c-1.7-0.5-3.6-0.9-5.3-0.4c-0.6-1.1-1.3-1.8-2.4-2.9c-1.2-1.2-4.7-3.5-5.3-5.1
			c-0.5-1.3,0.3-3.9,0.4-5.3c0.1-1.2,0.3-2.3,0.3-3.4c2.6-0.4,5.3-1.6,7.8-2.4c2.8-0.8,4.2-0.5,6.5,1.3c1.2,0.9,2.1,1.7,3.2,2.2
			c-1.2,1.9-1.8,4.2-1.3,5.8c1.4,4.3,7.6,5.1,11.1,3.3c3.7-1.9,5.3-7,2.5-10.3c-1.8-2.1-5.8-3.2-8.5-2c-1.8-3.8-6.9-7.1-10.9-6.5
			c-3.4,0.5-8.1,0.8-11.5,2.7c-1.3-2-3.4-3.9-4.6-5.5c-2.4-3.1-4.6-6.6-7.3-9.5c1.1-1.8,1.2-4,1.1-6.2c-0.1-1.8-0.4-3.7-1.5-5.1
			c-0.9,0.8-1.9,1.6-2.8,2.5c1.4,2,1.6,6,0,7.5c-1.3,1.1-3.4,0.9-4.9,0.5c-0.9-0.3-1.7-0.8-2.4-1.3c-0.5,0.5-1,1-1.5,1.5
			C690.5,1188.8,691.9,1189.8,693,1190.2z M720.9,1231.7c1-2.6,2.8-2.7,5.2-1.9c1.4,0.4,2.2,1,1.7,2.5c-0.3,1-1.1,2.1-1.9,2.7
			c-1.8,1.4-4.1,1.1-5.1-1c-0.3-0.6-0.4-1.1-0.4-1.6C720.7,1232.2,720.8,1232,720.9,1231.7z M735.5,1212.4c0.2-0.3,0.4-0.6,0.6-0.9
			c0.8-0.5,1.5-1.2,2.4-1.3c1.1-0.1,2.8,0.2,3.5,1.1c2,2.3-0.8,4.9-3,5.2c-1.1,0.2-2.4,0-3.4-0.6
			C734.2,1215,734.8,1213.6,735.5,1212.4z"/>
		<path fill="#7A44B3" d="M669.4,1312.2c0.9-2.8,3.1-4.5,3.5-7.5c0.2-1.8-2-2.5-3.3-1.9c-2.8,1.3-4.9,4.5-5.9,7.5
			c1.7,3.1,3.5,6.1,5.3,9.1C669.3,1317,668.7,1314.5,669.4,1312.2z"/>
		<path fill="#2B4CA9" d="M719.5,1363c-3.4-2.4-6.8-3.9-11-3.5c-1.8,0.2-3.8,0.5-5.4,1.3c0.1,0.1,0.1,0.1,0.2,0.2
			c1.5,1.6,3.1,3.1,4.7,4.7c0.1,0,0.2,0,0.3-0.1c2.6-0.5,5.4,0.2,7.8,1.3c5.5,2.4,6.4,6.6,6,11.4c1.3,1.1,2.7,2.2,4,3.3
			C729.1,1374.9,725.1,1367,719.5,1363z"/>
		<path fill="#7A44B3" d="M852.9,1266.8c-0.5,0.9,0,2,0.9,2.3c2.4,0.8,5.4-0.1,8,0.3c0.9,0.1,1.8,0.3,2.6,0.5
			c-0.9,1.5-1.4,3.2-1.9,4.7c-0.8,2.3-1.7,5.2-1.5,7.7c0.1,1.1,1.2,1.9,2.3,1.3c2-1.2,2-4.4,2.9-6.4c0.9-2.2,2.8-4.4,3.3-6.7
			c0.1,0,0.3,0,0.4,0c-2.8-2-5.5-4-8.3-6c-0.3,0-0.7,0-1-0.1C857.9,1264.2,854.4,1264.1,852.9,1266.8z"/>
		<path fill="#A3A72E" d="M895.8,1299.5c2.6-1.8,4.8-2.2,7.6-0.8c2.3,1.2,4,3.2,4.3,5.9c0.6,5.9-5.4,10.7-9.2,14.5
			c-4,3.9-7.9,5.8-13.6,4c-7.3-2.4-6.2-11.3-1.5-15.6c1.6-1.4-0.4-3.8-2.2-2.9c-7.3,3.9-8.5,14.7-2.6,20.5
			c6.4,6.3,16.6,4.1,22.6-1.2c5.7-5,12.3-11.2,12.2-18.7c-4.6-4.1-9.6-8.3-14.7-12.5c-1.9,0.8-3.6,2.3-5.2,3.9
			C892.1,1298,894,1300.7,895.8,1299.5z"/>
		<path fill="#2B4CA9" d="M660.7,1283.7c1.4-0.8,2.7-1.7,4-2.7c1.1,1.7,3.8,5.9,5,5.8c1.5-0.2,4.7-3.5,6.7-4.8
			c1.9-1.1,0.2-3.7-4.4-7.9c1.3-1.5,2.5-3.2,3.5-4.9c2.1,1,5.2,2.6,6.5,3.2c2.1,1,3.7-2.9,5.7-7.9c1.9-4.7-1.1-5.3-7.5-7.6
			c0.4-1.8,0.6-3.6,0.7-5.4c0-0.2,0-0.4,0-0.6c2.9,0,9.2,0,10.1,0c1.2,0-0.1-7.1-0.8-9.2c-0.6-1.9-3.5-1.3-10.3-1.2
			c-0.3-1.2-0.7-2.3-1.1-3.4c1.2-1,3.6-3.1,5.1-4.5c2.1-1.9,1.4-2.5-1.6-5.9c-2.9-3.3-2.5-2.1-7.6,2.6c-0.3-0.5-0.7-0.9-1-1.4
			c-1.2-1.5-2.7-3.2-4.3-4.9c3.4-4.6,2.1-5.9-2.7-9.1c-4.1,6.2-7.3,12.3-9.8,18.3c0.2,0.2,0.4,0.3,0.7,0.5c2,1.5,4.1,3.2,5.6,5.2
			c3.4,4.4,4.9,10.2,4.3,15.7c-1,9.7-7.7,17.4-15.9,22c0.9,6.3,2.6,12.5,4.8,18.6c1.6-0.7,3.5-1.5,4.6-2.2
			C663.3,1290.9,663.4,1288.9,660.7,1283.7z"/>
	</g>
	<g>
		<path fill="none" d="M807.6,1116.2c0.2-0.4,0.3-0.7,0.4-1.1c-0.5,0-1.1,0-1.5,0c-0.9,0-1.7,0-2.6,0c0,0.3,0.1,0.7,0.1,1.1
			c0,0.8,0,1.6,0.1,2.4c0.9-0.1,1.8-0.2,2.8-0.2C807.1,1117.6,807.3,1117,807.6,1116.2z"/>
		<path fill="#F7B342" d="M811.5,1118.5c-0.6,0-1.3-0.1-2-0.1c0.1-0.4,0.2-0.8,0.2-1.2c0.1-0.6,0.4-1.2,0.5-1.8
			c0.5,0.1,0.9,0.2,1.2,0.4c0.4,0.2,0.8-0.3,0.5-0.7c-1.5-1.8-2.2-2.8-4.7-3c-1.2-0.1-2.4-0.1-3.6,0.1c-1.4,0.2-2.5,1-3.8,1.3
			s-0.6,2.4,0.7,1.7c0.1-0.1,0.3-0.1,0.4-0.1c0,0.5,0,1.1,0,1.6c0,0.8,0.1,1.6,0.2,2.4c-1.4,0.3-2.8,0.6-4.2,1.1
			c-0.1-0.1-0.1-0.2-0.2-0.3c-0.2-1.1,0.2-2.3-0.6-3.3c-0.3-0.4-1.1-0.4-1.4,0c-0.8,1-0.4,2.2-0.6,3.3c-0.2,0.2-0.3,0.5-0.4,0.8
			c-0.1,0.2-0.1,0.5-0.1,0.8c-1.1,0.5-2.1,1-3.2,1.7c-1.4,0.6-3.1,1.2-4,2.5c-0.2,0.3,0.1,0.5,0.3,0.6c1.8,0.2,3.8-0.9,5.4-1.5
			c0.2-0.1,0.4-0.2,0.6-0.2c2-0.5,4-1,6.1-1.5c4.2-1,8.3-1.2,12.5-1.4C813.4,1121.3,813.3,1118.6,811.5,1118.5z M804.1,1116.1
			c0-0.3,0-0.7-0.1-1.1c0.9,0,1.7,0,2.6,0c0.4,0,0.9,0,1.5,0c-0.2,0.3-0.3,0.7-0.4,1.1c-0.3,0.8-0.6,1.4-0.7,2.2
			c-0.9,0-1.9,0.1-2.8,0.2C804.1,1117.8,804.1,1117,804.1,1116.1z"/>
	</g>
	<path fill="#F7B342" d="M810.4,1120.5c0.3,0.5,1,0.8,1.5,0.8c0.7,0,1.2-0.5,1.6-0.9c1-1.2,0.6-2.5,0.2-3.8
		c-0.2-0.6-0.6-0.8-1.1-0.9c-0.3,0-0.6,0.1-0.8,0.3c-0.3,0.3-0.4,0.7-0.3,1.1c0.1,0.4,0.1,0.8,0,1.2c0,0.1-0.1,0.2-0.2,0.3
		c-0.1,0.1-0.5,0.6-0.3,0.4c0.2-0.1,0.4-0.2,0.5-0.3C810.7,1119,810,1119.6,810.4,1120.5L810.4,1120.5z"/>
</g>
</svg>
