<?xml version="1.0" encoding="UTF-8"?>
<svg width="48px" height="48px" viewBox="0 0 48 48" version="1.1" xmlns="http://www.w3.org/2000/svg" xmlns:xlink="http://www.w3.org/1999/xlink">
    <!-- Generator: Sketch 51.3 (57544) - http://www.bohemiancoding.com/sketch -->
    <title>bottom-cowboyjeans</title>
    <desc>Created with Sketch.</desc>
    <defs></defs>
    <g id="SVGs" stroke="none" stroke-width="1" fill="none" fill-rule="evenodd">
        <g id="Slices" transform="translate(-118.000000, -236.000000)"></g>
        <g id="Group-29" transform="translate(9.000000, 9.000000)" fill-rule="nonzero">
            <polygon id="Combined-Shape" stroke="#2643A9" stroke-width="0.8101296" fill="#2643A9" stroke-linejoin="round" points="14.2686478 11.417234 6.72247206 9.21530681 7.95616718 1.19069662 22.2345988 1.19069662 23.515138 9.21530681 16.1868333 11.417234"></polygon>
            <path d="M7.4995288,3.62417802 C17.6312368,3.62417802 22.6970908,3.62417802 22.6970908,3.62417802" id="Line-4" stroke="#2F56CE" stroke-width="0.56709072" stroke-linecap="round"></path>
            <path d="M14.639932,3.47703864 L14.639932,11.5861687 C15.7983676,11.0238666 16.3775854,10.2075302 16.3775854,9.13715961 C16.3775854,8.06678899 16.3775854,5.28686045 16.3775854,0.797373997" id="Path-10" stroke="#2F56CE" stroke-width="0.56709072" stroke-linejoin="round"></path>
            <path d="M9.4058314,3.19412602 L9.4058314,1.07819847" id="Line-5" stroke="#2F56CE" stroke-width="0.56709072" stroke-linecap="square"></path>
            <path d="M19.3330787,3.19412602 L19.3330787,1.07151469" id="Line-5-Copy-2" stroke="#2F56CE" stroke-width="0.56709072" stroke-linecap="square"></path>
            <path d="M10.6928004,3.19412602 L10.6928004,1.07200775" id="Line-5-Copy" stroke="#2F56CE" stroke-width="0.56709072" stroke-linecap="square"></path>
            <path d="M20.6200477,3.19412602 L20.6200477,1.08948419" id="Line-5-Copy-3" stroke="#2F56CE" stroke-width="0.56709072" stroke-linecap="square"></path>
            <path d="M7.01540279,6.39990298 C8.5169579,6.4588811 9.59545581,6.24503287 10.2508965,5.7583583 C10.9063373,5.27168373 11.2700927,4.49165954 11.3421628,3.41828573" id="Path-13" stroke="#2F56CE" stroke-width="0.56709072"></path>
            <path d="M18.8370405,6.39990298 C20.3385956,6.4588811 21.4170935,6.24503287 22.0725343,5.7583583 C22.727975,5.27168373 23.0917304,4.49165954 23.1638005,3.41828573" id="Path-13" stroke="#2F56CE" stroke-width="0.56709072" transform="translate(21.000421, 4.913875) scale(-1, 1) translate(-21.000421, -4.913875) "></path>
            <path d="M15.2532321,2.595494 C15.5069808,2.595494 15.7126847,2.39237056 15.7126847,2.14180511 C15.7126847,1.89123965 15.5069808,1.68811622 15.2532321,1.68811622 C14.9994834,1.68811622 14.7937795,1.89123965 14.7937795,2.14180511 C14.7937795,2.39237056 14.9994834,2.595494 15.2532321,2.595494 Z" id="Oval-6" stroke="#FFC550" stroke-width="0.5" fill="#FFC550"></path>
            <path d="M19.9183244,4.58480524 C19.9813215,4.58480524 20.0323907,4.53373604 20.0323907,4.47073899 C20.0323907,4.40774194 19.9813215,4.35667274 19.9183244,4.35667274 C19.8553274,4.35667274 19.8042582,4.40774194 19.8042582,4.47073899 C19.8042582,4.53373604 19.8553274,4.58480524 19.9183244,4.58480524 Z" id="Oval-6-Copy" stroke="#FFC550" stroke-width="0.5" fill="#FFC550"></path>
            <path d="M10.2778824,4.58480524 C10.3408794,4.58480524 10.3919486,4.53373604 10.3919486,4.47073899 C10.3919486,4.40774194 10.3408794,4.35667274 10.2778824,4.35667274 C10.2148853,4.35667274 10.1638161,4.40774194 10.1638161,4.47073899 C10.1638161,4.53373604 10.2148853,4.58480524 10.2778824,4.58480524 Z" id="Oval-6-Copy-2" stroke="#FFC550" stroke-width="0.5" fill="#FFC550"></path>
            <g id="Group-28" transform="translate(0.287444, 4.859929)" stroke="#8D1512" stroke-linecap="round" stroke-width="0.56709072">
                <path d="M3.56763068,0.230945938 C3.99701762,0.230945938 5.00360809,0.419796905 6.58740211,0.797498837" id="Path-56"></path>
                <path d="M3.29731067,2.25795306 C3.81482505,2.25795306 6.11988912,2.25795306 6.11988912,2.25795306" id="Path-57"></path>
                <path d="M3.21986466,3.98848467 C4.61296076,3.84560442 5.43848583,3.94240329 5.69643985,4.27888129" id="Path-58"></path>
                <path d="M3.0501163,6.14935691 C3.81313025,6.06141558 4.71288162,5.91008897 5.23207595,6.14935691" id="Path-59"></path>
                <path d="M2.88069015,7.99818839 C3.42163833,7.88063725 4.1592598,7.91446533 5.09355458,8.09967261" id="Path-60"></path>
                <path d="M2.49132338,9.96397575 C3.09880768,9.81932922 4.25489171,9.81932922 4.73583328,9.96397575" id="Path-61"></path>
                <path d="M2.06590628,12.4421326 C2.34619472,12.27009 4.0749878,12.3234587 4.31377778,12.6159084" id="Path-62"></path>
                <path d="M1.61765344,14.6701175 C2.11065042,14.453655 3.45436569,14.453655 3.85358544,14.6701175" id="Path-63"></path>
                <path d="M1.52167378,16.8643928 C1.94384519,16.6320339 3.29625427,16.6320339 3.60818817,16.6827673" id="Path-64"></path>
                <path d="M1.16835734,18.8906843 C1.62646317,18.6467131 2.99834638,18.4772072 3.17291808,18.6150329" id="Path-65"></path>
                <path d="M0.686256602,20.8969079 C1.12906132,20.5474113 2.39638698,20.2306094 2.99197092,20.4512433" id="Path-66"></path>
                <path d="M0.548894405,23.2347024 C0.746301849,22.8238747 1.66575919,21.7659145 2.83270032,21.7659145" id="Path-67"></path>
                <path d="M23.3650674,0.230945938 C23.7944544,0.230945938 24.8010448,0.419796905 26.3848389,0.797498837" id="Path-56" transform="translate(24.874953, 0.627663) scale(-1, 1) translate(-24.874953, -0.627663) "></path>
                <path d="M23.8325804,2.25795306 C24.3500948,2.25795306 26.6551589,2.25795306 26.6551589,2.25795306" id="Path-57" transform="translate(25.243870, 2.654670) scale(-1, 1) translate(-25.243870, -2.654670) "></path>
                <path d="M24.2560297,3.98848467 C25.6491258,3.84560442 26.4746509,3.94240329 26.7326049,4.27888129" id="Path-58" transform="translate(25.494317, 4.321320) scale(-1, 1) translate(-25.494317, -4.321320) "></path>
                <path d="M24.7203936,6.14935691 C25.4834075,6.06141558 26.3831589,5.91008897 26.9023532,6.14935691" id="Path-59" transform="translate(25.811373, 6.417382) scale(-1, 1) translate(-25.811373, -6.417382) "></path>
                <path d="M24.858915,7.99818839 C25.3998631,7.88063725 26.1374846,7.91446533 27.0717794,8.09967261" id="Path-60" transform="translate(25.965347, 8.326443) scale(-1, 1) translate(-25.965347, -8.326443) "></path>
                <path d="M25.2166363,9.96397575 C25.8241206,9.81932922 26.9802046,9.81932922 27.4611462,9.96397575" id="Path-61" transform="translate(26.338891, 10.252208) scale(-1, 1) translate(-26.338891, -10.252208) "></path>
                <path d="M25.6386918,12.4421326 C25.9189802,12.27009 27.6477733,12.3234587 27.8865633,12.6159084" id="Path-62" transform="translate(26.762628, 12.741114) scale(-1, 1) translate(-26.762628, -12.741114) "></path>
                <path d="M26.0988841,14.6701175 C26.5918811,14.453655 27.9355963,14.453655 28.3348161,14.6701175" id="Path-63" transform="translate(27.216850, 14.904487) scale(-1, 1) translate(-27.216850, -14.904487) "></path>
                <path d="M26.3442814,16.8643928 C26.7664528,16.6320339 28.1188619,16.6320339 28.4307958,16.6827673" id="Path-64" transform="translate(27.387539, 17.052316) scale(-1, 1) translate(-27.387539, -17.052316) "></path>
                <path d="M26.7795515,18.8906843 C27.2376573,18.6467131 28.6095405,18.4772072 28.7841122,18.6150329" id="Path-65" transform="translate(27.781832, 18.962362) scale(-1, 1) translate(-27.781832, -18.962362) "></path>
                <path d="M26.9604986,20.8969079 C27.4033033,20.5474113 28.670629,20.2306094 29.2662129,20.4512433" id="Path-66" transform="translate(28.113356, 20.774873) scale(-1, 1) translate(-28.113356, -20.774873) "></path>
                <path d="M27.1197692,23.2347024 C27.3171767,22.8238747 28.236634,21.7659145 29.4035751,21.7659145" id="Path-67" transform="translate(28.261672, 22.500308) scale(-1, 1) translate(-28.261672, -22.500308) "></path>
            </g>
            <path d="M14.9979728,11.0655873 C14.5297426,9.91872343 13.5619544,8.78713685 12.0946081,7.67082752 C10.6272619,6.55451819 8.80129526,5.84389786 6.6167083,5.53896655 L3.1028808,26.8714321 C4.78590727,27.9291347 6.30443258,28.457986 7.65845675,28.457986 C9.01248092,28.457986 10.491198,28.33584 12.0946081,28.0915479 L14.9979728,11.0655873 Z" id="Path-55" stroke="#CF2819" stroke-width="0.8101296" fill="#CF2819"></path>
            <path d="M27.4244764,11.0655873 C26.9562462,9.91872343 25.988458,8.78713685 24.5211118,7.67082752 C23.0537655,6.55451819 21.2277989,5.84389786 19.0432119,5.53896655 L15.5293844,26.8714321 C17.2124109,27.9291347 18.7309362,28.457986 20.0849604,28.457986 C21.4389846,28.457986 22.9177017,28.33584 24.5211118,28.0915479 L27.4244764,11.0655873 Z" id="Path-55" stroke="#CF2819" stroke-width="0.8101296" fill="#CF2819" transform="translate(21.476930, 16.998476) scale(-1, 1) translate(-21.476930, -16.998476) "></path>
        </g>
    </g>
</svg>