<?xml version="1.0" encoding="UTF-8"?>
<svg width="48px" height="48px" viewBox="0 0 48 48" version="1.1" xmlns="http://www.w3.org/2000/svg" xmlns:xlink="http://www.w3.org/1999/xlink">
    <!-- Generator: Sketch 53.2 (72643) - https://sketchapp.com -->
    <title>Bottom-Newshorts</title>
    <desc>Created with Sketch.</desc>
    <g id="SVGs" stroke="none" stroke-width="1" fill="none" fill-rule="evenodd">
        <g id="Slices" transform="translate(-473.000000, -295.000000)"></g>
        <g id="Group-9" transform="translate(9.000000, 13.000000)" fill="#DCB16D" fill-rule="nonzero" stroke="#DCB16D" stroke-width="0.8208">
            <g id="Group-8" transform="translate(0.703382, 0.316349)">
                <path d="M14.1945404,12.4783132 L14.1945404,12.4783132 C14.0356277,12.4783132 13.8956975,12.5829756 13.8508036,12.735415 L11.145396,21.9217545 L0.640480014,19.9579017 L6.07910289,3.28621825 L7.07910289,0.846961807 L21.6450071,0.846961807 L21.6057615,0.846961807 L22.6057615,3.28621825 L27.7486008,19.9579017 L17.2436849,21.9217545 L14.5382773,12.735415 C14.4933833,12.5829756 14.3534531,12.4783132 14.1945404,12.4783132 Z" id="Combined-Shape" stroke-linecap="round" stroke-linejoin="round"></path>
                <path d="M6.03438747,2.77430738 L22.6049684,2.77430738 L22.6049684,1.14461347 C22.6049684,0.818986386 22.3409955,0.555013475 22.0153684,0.555013475 L6.62398747,0.555013475 C6.29836038,0.555013475 6.03438747,0.818986386 6.03438747,1.14461347 L6.03438747,2.77430738 Z" id="Rectangle-6"></path>
            </g>
        </g>
        <path d="M12,22 L14,22 L14,31 L12,31 C11.4477153,31 11,30.5522847 11,30 L11,23 C11,22.4477153 11.4477153,22 12,22 Z" id="Rectangle" fill="#DCB16D" transform="translate(12.500000, 26.500000) rotate(16.000000) translate(-12.500000, -26.500000) "></path>
        <path d="M35,22 L37,22 L37,31 L35,31 C34.4477153,31 34,30.5522847 34,30 L34,23 C34,22.4477153 34.4477153,22 35,22 Z" id="Rectangle" fill="#DCB16D" transform="translate(35.500000, 26.500000) scale(-1, 1) rotate(16.000000) translate(-35.500000, -26.500000) "></path>
        <path d="M15.3273691,16.5010562 L32.71875,16.5010562" id="Path-393" stroke="#AA8B5C"></path>
        <path d="M17.5300293,13.4609623 L17.5300293,16.5010562" id="Path-394" stroke="#AA8B5C"></path>
        <path d="M19.5300293,13.4609623 L19.5300293,16.5010562" id="Path-394" stroke="#AA8B5C"></path>
        <path d="M25.5300293,13.4609623 L25.5300293,16.5010562" id="Path-394" stroke="#AA8B5C" stroke-width="0.75"></path>
        <path d="M28.4967041,13.4609623 L28.4967041,16.5010562" id="Path-394" stroke="#AA8B5C"></path>
        <path d="M30.4967041,13.4609623 L30.4967041,16.5010562" id="Path-394" stroke="#AA8B5C"></path>
        <path d="M25.5300293,16.6746826 L25.5300293,22.6519775 C25.5450846,24.2189535 24.7237142,25.0024414 23.065918,25.0024414 C23.065918,24.1588542 23.065918,21.3250591 23.065918,16.5010562" id="Path-395" stroke="#AA8B5C" stroke-width="0.75"></path>
        <path d="M17.0300444,16.4971747 L18.0300142,16.5049378 C18.0084471,19.2830255 16.7077137,20.7856885 14.2453702,20.8060644 C14.2284543,20.8062044 13.9960905,20.8060644 13.9790649,20.8060644 C14.1266073,20.348278 14.2362214,20.0146018 14.3079074,19.8050359 C16.1429942,19.7645107 17.0127247,18.7281399 17.0300444,16.4971747 Z" id="Path-396" fill="#AA8B5C" fill-rule="nonzero"></path>
        <path d="M33.0601348,16.4971747 L34.0601047,16.5049378 C34.0385376,19.2830255 32.7378042,20.7856885 30.2754607,20.8060644 C30.2585447,20.8062044 30.0261809,20.8060644 30.0091554,20.8060644 C30.1566977,20.348278 30.2663119,20.0146018 30.3379979,19.8050359 C32.1730847,19.7645107 33.0428152,18.7281399 33.0601348,16.4971747 Z" id="Path-396" fill="#AA8B5C" fill-rule="nonzero" transform="translate(32.034630, 18.651651) scale(-1, 1) translate(-32.034630, -18.651651) "></path>
        <path d="M10.3438616,30.1483154 L14.7144775,31.2391337 L16.6365028,24.3283022 C16.7844864,23.7962126 16.4731069,23.2449044 15.9410174,23.0969208 C15.9261921,23.0927976 15.9112737,23.0890172 15.8962739,23.0855825 L12.6629639,22.3452148" id="Path-397" stroke="#AA8B5C" stroke-width="0.75" stroke-linecap="round" stroke-linejoin="round"></path>
        <polyline id="Path-398" stroke="#AA8B5C" stroke-width="0.75" stroke-linecap="round" stroke-linejoin="round" points="12.5 22.3452148 12.5 26.7921743 16.3122559 24.3163489"></polyline>
        <path d="M13.7445068,24.5 C14.0206492,24.5 14.2445068,24.2761424 14.2445068,24 C14.2445068,23.7238576 14.0206492,23.5 13.7445068,23.5 C13.4683645,23.5 13.2445068,23.7238576 13.2445068,24 C13.2445068,24.2761424 13.4683645,24.5 13.7445068,24.5 Z" id="Oval" fill="#AA8B5C"></path>
        <path d="M31.3438616,30.1483154 L35.7144775,31.2391337 L37.6365028,24.3283022 C37.7844864,23.7962126 37.4731069,23.2449044 36.9410174,23.0969208 C36.9261921,23.0927976 36.9112737,23.0890172 36.8962739,23.0855825 L33.6629639,22.3452148" id="Path-397" stroke="#AA8B5C" stroke-width="0.75" stroke-linecap="round" stroke-linejoin="round" transform="translate(34.508592, 26.792174) scale(-1, 1) translate(-34.508592, -26.792174) "></path>
        <polyline id="Path-398" stroke="#AA8B5C" stroke-width="0.75" stroke-linecap="round" stroke-linejoin="round" transform="translate(33.406128, 24.568695) scale(-1, 1) translate(-33.406128, -24.568695) " points="31.5 22.3452148 31.5 26.7921743 35.3122559 24.3163489"></polyline>
        <path d="M33.7445068,24.5 C34.0206492,24.5 34.2445068,24.2761424 34.2445068,24 C34.2445068,23.7238576 34.0206492,23.5 33.7445068,23.5 C33.4683645,23.5 33.2445068,23.7238576 33.2445068,24 C33.2445068,24.2761424 33.4683645,24.5 33.7445068,24.5 Z" id="Oval" fill="#AA8B5C"></path>
    </g>
</svg>