<?xml version="1.0" encoding="UTF-8"?>
<svg width="48px" height="48px" viewBox="0 0 48 48" version="1.1" xmlns="http://www.w3.org/2000/svg" xmlns:xlink="http://www.w3.org/1999/xlink">
    <!-- Generator: Sketch 51.3 (57544) - http://www.bohemiancoding.com/sketch -->
    <title>bottom-wetsuit</title>
    <desc>Created with Sketch.</desc>
    <defs></defs>
    <g id="SVGs" stroke="none" stroke-width="1" fill="none" fill-rule="evenodd">
        <g id="Slices" transform="translate(-236.000000, -236.000000)"></g>
        <g id="Group-136" transform="translate(14.000000, 9.000000)" fill-rule="nonzero">
            <g id="Group-133" transform="translate(0.000000, 0.935484)" stroke-linejoin="round">
                <path d="M9.30522201,11.3174323 L6.21816589,26.4805566 L0.881020782,24.9578716 L3.3768842,0.843227036 C3.42647316,0.364106194 3.83020931,1.30972855e-15 4.31188954,1.22124533e-15 L16.2283138,8.8817842e-16 C16.7105176,1.65616489e-15 17.1145143,0.364874719 17.163459,0.844588001 L19.623715,24.9578716 L14.2865699,26.4805566 L11.227268,11.3177117 C11.1350297,10.8605506 10.7333077,10.5317861 10.2669344,10.5317861 L10.2669344,10.5317861 C9.80037236,10.5317861 9.39829984,10.8602489 9.30522201,11.3174323 Z" id="Combined-Shape" stroke="#2A1958" stroke-width="0.771552" fill="#2A1958"></path>
                <path d="M0.573479635,24.5599433 L6.38601417,24.7037097 L6.35054424,26.2644642 C6.33874906,26.7834779 5.90844348,27.1946597 5.38942982,27.1828645 C5.38558029,27.182777 5.38173133,27.1826659 5.37788316,27.1825311 L1.61511787,27.0507386 C1.13956021,27.034082 0.751460196,26.6646773 0.711364522,26.1905203 L0.573479635,24.5599433 Z" id="Rectangle-10" stroke="#81DA45" stroke-width="0.6558192" fill="#81DA45" stroke-linecap="round" transform="translate(3.479747, 25.871261) rotate(-349.000000) translate(-3.479747, -25.871261) "></path>
                <path d="M14.0975618,24.5599433 L19.9100964,24.7037097 L19.8746264,26.2644642 C19.8628312,26.7834779 19.4325257,27.1946597 18.913512,27.1828645 C18.9096625,27.182777 18.9058135,27.1826659 18.9019653,27.1825311 L15.1392001,27.0507386 C14.6636424,27.034082 14.2755424,26.6646773 14.2354467,26.1905203 L14.0975618,24.5599433 Z" id="Rectangle-10" stroke="#81DA45" stroke-width="0.6558192" fill="#81DA45" stroke-linecap="round" transform="translate(17.003829, 25.871261) scale(-1, 1) rotate(-349.000000) translate(-17.003829, -25.871261) "></path>
            </g>
            <path d="M1.70412931,14.0824467 C1.98875841,11.3721895 2.42817972,7.14282544 3.02239325,1.39435445 L3.02237701,1.39435277 C3.07190955,0.91517084 3.47567594,0.550989951 3.95741113,0.550989951 L4.10103815,0.550989951 C3.44673018,8.33230033 5.0422613,13.5576264 8.8876315,16.2269681 C8.62856501,17.6007316 8.31873391,19.1246994 7.95813821,20.7988714 C4.03947587,19.8596191 1.95480624,17.6208109 1.70412931,14.0824467 Z" id="Path-305" fill="#81DA45"></path>
            <path d="M11.6462818,14.0824467 C11.930911,11.3721895 12.3703323,7.14282544 12.9645458,1.39435445 L12.9645296,1.39435277 C13.0140621,0.91517084 13.4178285,0.550989951 13.8995637,0.550989951 L14.0431907,0.550989951 C13.3888827,8.33230033 14.9844138,13.5576264 18.829784,16.2269681 C18.5707176,17.6007316 18.2608865,19.1246994 17.9002907,20.7988714 C13.9816284,19.8596191 11.8969588,17.6208109 11.6462818,14.0824467 Z" id="Path-305" fill="#81DA45" transform="translate(15.238033, 10.674931) scale(-1, 1) translate(-15.238033, -10.674931) "></path>
        </g>
    </g>
</svg>