<?xml version="1.0" encoding="UTF-8"?>
<svg width="48px" height="48px" viewBox="0 0 48 48" version="1.1" xmlns="http://www.w3.org/2000/svg" xmlns:xlink="http://www.w3.org/1999/xlink">
    <!-- Generator: Sketch 51.3 (57544) - http://www.bohemiancoding.com/sketch -->
    <title>bottom-maxiskirt</title>
    <desc>Created with Sketch.</desc>
    <defs></defs>
    <g id="SVGs" stroke="none" stroke-width="1" fill="none" fill-rule="evenodd">
        <g id="Slices" transform="translate(0.000000, -236.000000)"></g>
        <g id="Group-25" transform="translate(9.000000, 12.000000)" fill-rule="nonzero" stroke-width="0.75238632">
            <path d="M15.0066891,22.7222756 C13.0469431,22.7222756 11.6999172,21.8868795 10.6999475,20.9909817 C10.2133104,21.6376302 9.40854126,21.9609544 8.28564007,21.9609544 C7.16273889,21.9609544 6.31669366,21.5411582 5.74750439,20.7015659 C4.94154613,20.8945098 3.9986867,20.9909817 2.91892609,20.9909817 C1.83916547,20.9909817 1.07927774,20.6842364 0.639262874,20.0707459 C3.86433733,14.0475955 5.66053594,10.7305713 6.02785869,10.1196734 C6.57884282,9.20332656 6.73050312,6.29340846 7.36900744,4.97834735 C7.79467699,4.10163995 8.47723675,3.3481342 9.4166867,2.71783009 L9.4166867,1.79915048 C9.4166867,1.24686573 9.86440195,0.799150483 10.4166867,0.799150483 L15.9320173,0.799150483 L19.5966915,0.799150483 C20.1489762,0.799150483 20.5966915,1.24686573 20.5966915,1.79915048 L20.5966915,2.71783009 C21.5361414,3.3481342 22.2187012,4.10163995 22.6443708,4.97834735 C23.2828751,6.29340846 23.4345354,9.20332656 23.9855195,10.1196734 C24.3528423,10.7305713 26.1490409,14.0475955 29.3741153,20.0707459 C28.9341005,20.6842364 28.1742127,20.9909817 27.0944521,20.9909817 C26.0146915,20.9909817 25.0718321,20.8945098 24.2658738,20.7015659 C23.6966845,21.5411582 22.8506393,21.9609544 21.7277381,21.9609544 C20.6048369,21.9609544 19.8000678,21.6376302 19.3134306,20.9909817 C18.313461,21.8868795 16.9664351,22.7222756 15.0066891,22.7222756 Z" id="Combined-Shape" stroke="#FFE285" fill="#FFE285"></path>
            <path d="M9.44245891,2.31831254 L20.6190478,2.31831254 L20.6190478,1.46869925 C20.6190478,1.12418024 20.33976,0.844892409 19.995241,0.844892409 L10.0662657,0.844892409 C9.72174674,0.844892409 9.44245891,1.12418024 9.44245891,1.46869925 L9.44245891,2.31831254 Z" id="Rectangle-12" stroke="#FFA76F" fill="#FFA76F"></path>
            <path d="M4.65696866,12.6711333 L3.05910131,15.6241999 C6.42744874,16.6718652 10.5785219,17.1972531 15.5109449,17.1972531 C20.4095866,17.1972531 24.2377261,16.678823 26.9898842,15.6491611 L25.3635201,12.6770012 C22.1951605,13.4664257 18.9120336,13.8781747 15.5147321,13.9123774 C12.0982039,13.9467736 8.47892214,13.5327883 4.65696867,12.6711333 Z" id="Rectangle-12-Copy-2" stroke="#FFA76F" fill="#FFA76F"></path>
            <path d="M6.92494906,6.51336442 L6.43087448,9.09450534 C10.0674774,9.65775119 13.094964,9.93904334 15.5109449,9.93904334 C17.9097181,9.93904334 20.6222569,9.66167845 23.6477462,9.10628828 L23.1246277,6.54245997 C21.4016046,7.08717957 18.9248249,7.37247633 15.6852779,7.40509081 C12.358428,7.43858423 9.4385077,7.14189703 6.92494906,6.51336442 Z" id="Rectangle-12-Copy-3" stroke="#FFA76F" fill="#FFA76F"></path>
        </g>
    </g>
</svg>