<?xml version="1.0" encoding="UTF-8"?>
<svg width="48px" height="48px" viewBox="0 0 48 48" version="1.1" xmlns="http://www.w3.org/2000/svg" xmlns:xlink="http://www.w3.org/1999/xlink">
    <!-- Generator: Sketch 53.2 (72643) - https://sketchapp.com -->
    <title>Bottom-AdidasTracksuit</title>
    <desc>Created with Sketch.</desc>
    <g id="SVGs" stroke="none" stroke-width="1" fill="none" fill-rule="evenodd">
        <g id="Slices" transform="translate(-531.000000, -295.000000)"></g>
        <g id="Group-12" transform="translate(16.000000, 14.000000)">
            <path d="M8.39689773,7.93895259 L5.49310698,22.0666932 L4.86325709,22.6202562 L0.933899914,21.6244007 L2.38024902,0.0443209648 L16.3374995,0.0126987561 L17.6765942,21.6244007 L13.7727311,22.6534726 L13.1734047,22.3392342 L10.2135964,7.93895259 C10.124973,7.50777537 9.7454378,7.19831521 9.30524705,7.19831521 L9.30524705,7.19831521 C8.86505629,7.19831521 8.48552113,7.50777537 8.39689773,7.93895259 Z" id="Combined-Shape" stroke="#D42D2C" stroke-width="0.771552" fill="#D42F2E" fill-rule="nonzero" stroke-linejoin="round"></path>
            <path d="M12.9285889,5.61901855 C13.757016,5.61901855 14.4285889,4.94744568 14.4285889,4.11901855 C14.4285889,3.29059143 13.757016,2.61901855 12.9285889,2.61901855 C12.1001617,2.61901855 11.4285889,3.29059143 11.4285889,4.11901855 C11.4285889,4.94744568 12.1001617,5.61901855 12.9285889,5.61901855 Z" id="Oval" fill="#FFFFFF"></path>
            <path d="M3.5,0.0126987561 L1.7088623,21.2641602" id="FFFFFF" stroke="#FFFFFF"></path>
            <path d="M16.9012451,0.0126987561 L15.1101074,21.2641602" id="FFFFFF" stroke="#FFFFFF" transform="translate(16.005676, 10.638429) scale(-1, 1) translate(-16.005676, -10.638429) "></path>
            <path d="M0.467352126,21.027973 L5.99908976,20.9720851 L5.8834524,22.0999205 C5.83132524,22.6083276 5.40423285,22.9956159 4.89316555,22.9979147 L1.52309726,23.0130734 C0.988765581,23.0154769 0.546948091,22.5973866 0.519882899,22.0637354 L0.467352126,21.027973 Z" id="Rectangle" fill="#951718" transform="translate(3.233221, 21.994727) rotate(6.000000) translate(-3.233221, -21.994727) "></path>
            <path d="M12.5849148,21.0279847 L18.1166525,20.9720968 L18.0010151,22.0999322 C17.9488879,22.6083394 17.5217955,22.9956277 17.0107282,22.9979265 L13.64066,23.0130852 C13.1063283,23.0154886 12.6645108,22.5973984 12.6374456,22.0637472 L12.5849148,21.0279847 Z" id="Rectangle" fill="#951718" transform="translate(15.350784, 21.992596) scale(-1, 1) rotate(6.000000) translate(-15.350784, -21.992596) "></path>
        </g>
        <path d="M19,11 L31.6878662,11 C32.240151,11 32.6878662,11.4477153 32.6878662,12 L32.6878662,14 L18,14 L18,12 C18,11.4477153 18.4477153,11 19,11 Z" id="Rectangle" fill="#951718"></path>
        <path d="M19.8069532,15.0466485 C19.8683609,14.7774205 20.1363941,14.6089488 20.4056221,14.6703565 C20.67485,14.7317642 20.8433217,14.9997974 20.781914,15.2690254 C20.3864723,17.0027489 19.3307926,17.9307861 17.7088623,17.9307861 C17.7695992,17.3218079 17.7695992,17.1923523 17.7994625,16.9295067 C18.8788179,16.8986502 19.5191152,16.3086082 19.8069532,15.0466485 Z" id="Path-399" fill="#951718" fill-rule="nonzero"></path>
        <path d="M31.9717143,15.0466485 C32.033122,14.7774205 32.3011552,14.6089488 32.5703832,14.6703565 C32.8396112,14.7317642 33.0080828,14.9997974 32.9466751,15.2690254 C32.5570297,16.9773363 31.5263598,17.903407 29.9445801,17.9301883 C29.9597412,17.5147095 30.0017815,17.2895508 30.0017815,16.9281999 C31.0584553,16.8848062 31.6872308,16.2939013 31.9717143,15.0466485 Z" id="Path-399" fill="#951718" fill-rule="nonzero" transform="translate(31.451942, 16.293958) scale(-1, 1) translate(-31.451942, -16.293958) "></path>
    </g>
</svg>