<?xml version="1.0" encoding="UTF-8"?>
<svg width="48px" height="48px" viewBox="0 0 48 48" version="1.1" xmlns="http://www.w3.org/2000/svg" xmlns:xlink="http://www.w3.org/1999/xlink">
    <!-- Generator: Sketch 53.2 (72643) - https://sketchapp.com -->
    <title>Bottom-KraftwerkPants</title>
    <desc>Created with Sketch.</desc>
    <g id="SVGs" stroke="none" stroke-width="1" fill="none" fill-rule="evenodd">
        <g id="Slices" transform="translate(-590.000000, -295.000000)"></g>
        <g id="Group-13" transform="translate(15.000000, 10.000000)">
            <path d="M9.72791478,10.0215635 L6.06713512,28.2827539 L0.577500157,27.2454766 L3.23444141,0.544433594 L17.2365163,0.544433594 L19.8557,27.2454766 L14.366065,28.2827539 L10.7185591,10.0216202 C10.6714023,9.78553083 10.4641316,9.61556645 10.2233787,9.61556645 L10.2233787,9.61556645 C9.98258695,9.61556645 9.77524411,9.78546898 9.72791478,10.0215635 Z" id="Combined-Shape" stroke="#888888" stroke-width="0.771552" fill="#888888" fill-rule="nonzero" stroke-linejoin="round"></path>
            <path d="M9.79101351,2.32433784 L9.79101351,9.44451295 C10.9270278,8.91180569 11.4950349,8.1384344 11.4950349,7.12439907 C11.4950349,6.11036374 11.4950349,3.91704192 11.4950349,0.544433594" id="Path-10" stroke="#64646A" stroke-width="0.5400864" stroke-linecap="round" stroke-linejoin="round" fill-rule="nonzero"></path>
            <path d="M3.51794434,0 L16.9047852,0 C17.4570699,-1.01453063e-16 17.9047852,0.44771525 17.9047852,1 L17.9047852,3 L2.51794434,3 L2.51794434,1 C2.51794434,0.44771525 2.96565959,1.01453063e-16 3.51794434,0 Z" id="Rectangle" fill="#3F3F48"></path>
            <path d="M4.41081164,19.2570047 L3.30444146,26.524031" id="Line-6" stroke="#64646A" stroke-width="0.5400864" stroke-linecap="round" fill-rule="nonzero"></path>
            <path d="M5.85940656,9.2969226 L4.9757706,15.2463694" id="Line-6" stroke="#64646A" stroke-width="0.5400864" stroke-linecap="round" fill-rule="nonzero"></path>
            <path d="M16.8522012,19.2570047 L15.745831,26.524031" id="Line-6" stroke="#64646A" stroke-width="0.5400864" stroke-linecap="round" fill-rule="nonzero" transform="translate(16.299016, 22.890518) scale(-1, 1) translate(-16.299016, -22.890518) "></path>
            <path d="M15.331712,9.41473647 C15.331712,9.41473647 14.9952807,11.3586141 14.3224182,15.2463694" id="Line-6" stroke="#64646A" stroke-width="0.5400864" stroke-linecap="round" fill-rule="nonzero" transform="translate(14.827065, 12.330553) scale(-1, 1) translate(-14.827065, -12.330553) "></path>
            <path d="M2.76489223,3.17927206 C12.7005027,3.17927206 17.6683079,3.17927206 17.6683079,3.17927206" id="Line-4" stroke="#888888" stroke-width="0.5400864" stroke-linecap="round" fill-rule="nonzero"></path>
            <path d="M6.86495033,2.88861515 L6.86495033,0.544433594" id="Line-5" stroke="#888888" stroke-linecap="square" fill-rule="nonzero" transform="translate(6.864950, 1.716524) rotate(0.000000) translate(-6.864950, -1.716524) "></path>
            <path d="M13.8649503,2.88861515 L13.8649503,0.544433594" id="Line-5" stroke="#888888" stroke-linecap="square" fill-rule="nonzero" transform="translate(13.864950, 1.716524) rotate(0.000000) translate(-13.864950, -1.716524) "></path>
            <rect id="Rectangle" stroke="#A8ADC3" stroke-linecap="round" stroke-linejoin="round" x="8.44954427" y="0" width="4" height="3"></rect>
            <path d="M4.65940315,3.20652796 C4.62036525,4.5949624 4.49103958,5.53094892 4.27142616,6.01448752 C3.87079,6.89659685 3.07714077,7.34203782 2.13671664,7.34203782" id="Path-19" stroke="#64646A" stroke-width="0.5400864" fill-rule="nonzero"></path>
            <path d="M18.2811767,3.2785447 C18.2397323,4.62737585 18.1111127,5.53935679 17.895318,6.01448752 C17.4946818,6.89659685 16.7010326,7.34203782 15.7606085,7.34203782" id="Path-19" stroke="#64646A" stroke-width="0.5400864" fill-rule="nonzero" transform="translate(17.020893, 5.310291) scale(-1, 1) translate(-17.020893, -5.310291) "></path>
        </g>
    </g>
</svg>