<?xml version="1.0" encoding="UTF-8"?>
<svg width="48px" height="48px" viewBox="0 0 48 48" version="1.1" xmlns="http://www.w3.org/2000/svg" xmlns:xlink="http://www.w3.org/1999/xlink">
    <!-- Generator: Sketch 51.3 (57544) - http://www.bohemiancoding.com/sketch -->
    <title>bottom-bellbottoms</title>
    <desc>Created with Sketch.</desc>
    <defs></defs>
    <g id="SVGs" stroke="none" stroke-width="1" fill="none" fill-rule="evenodd">
        <g id="Slices" transform="translate(-472.000000, -177.000000)"></g>
        <g id="Group-37" transform="translate(9.000000, 9.000000)" fill-rule="nonzero">
            <path d="M12.3746665,16.985623 C11.7056173,19.3373707 11.6810461,23.4839685 12.3009531,28.5961677 C12.3245874,28.7910736 12.3009531,28.9691198 12.2100175,29.0268393 C12.1190819,29.0845588 11.9589526,29.0789943 11.754517,29.0268393 C7.27579773,27.8842422 3.89177404,27.0209204 1.60244593,26.4368741 C1.40902488,26.3875291 1.31468729,26.3318037 1.22771588,26.1837688 C1.14074448,26.0357338 1.24057709,25.9085265 1.35124406,25.7134375 C3.12909081,22.579365 5.13346535,18.6408659 6.09399033,16.0307086 C7.07639622,13.3610914 7.96138607,8.63109817 8.61031535,0.924319899 C8.63535659,0.626926511 8.70773136,0.403794233 8.86349487,0.24780812 C9.01925839,0.0918220071 9.20947509,0.0187891 9.47202436,0.0187891 C12.0747182,0.0187891 15.9012658,0.0187891 20.9516673,0.0187891 C21.2714532,0.0187891 21.4894661,0.0756835937 21.693144,0.24780812 C21.8968219,0.419932646 21.9977196,0.651347491 22.0193625,0.911764706 C22.6705576,8.74723947 23.5544215,14.3054048 24.7357467,16.985623 C25.8976384,19.6217502 27.489345,22.7568148 29.2383526,25.8245132 C29.3267076,25.9794847 29.3328184,26.0803438 29.2894395,26.1837688 C29.2460605,26.2871937 29.1699569,26.3746861 29.0048523,26.4170426 C24.462604,27.5823254 21.0356481,28.4614877 18.7239846,29.0545292 C18.5543956,29.0980361 18.4367819,29.1064313 18.3387747,29.0268393 C18.2407676,28.9472473 18.2559421,28.8655893 18.2753817,28.7072207 C18.9091594,23.5440319 18.8891047,19.3543767 18.2152174,16.985623 C17.5708331,14.720574 16.8384103,12.645486 15.2633847,8.69233476 C13.7671621,12.7111609 12.8042561,15.4755903 12.3746665,16.985623 Z" id="Mask" fill="#9132B6"></path>
            <path d="M17.359516,0.0187891 C17.4769257,1.30010154 17.9554416,1.86759474 18.7714781,1.86759474 C19.6927922,1.86759474 20.6913433,1.37034667 21.7589795,0.353516606 C21.8185961,0.296737059 21.9706531,0.57634628 21.9869907,0.773313841 C22.0044303,0.983566648 22.0220584,1.19225833 22.0398751,1.39937329 C20.9340063,2.34883989 19.8465817,2.83196125 18.7714781,2.83196125 C17.3362405,2.83196125 16.5539533,1.83771784 16.3972862,0.0187891 L17.359516,0.0187891 Z" id="Combined-Shape" fill="#FFA4EF"></path>
            <g id="Group-18" transform="translate(0.280884, 0.018789)">
                <path d="M8.38394871,28.2229673 C8.49149866,28.0150919 8.44646374,27.3093798 8.4269399,26.9028635 C8.39485679,26.2348437 8.07695118,25.2992534 7.7508184,25.2992534 C7.42468563,25.2992534 7.29464607,26.1986737 7.29464607,26.8377996 C7.29464607,27.2176579 7.39951016,27.7746458 7.49373282,27.9880786 C7.63769001,28.0297473 8.20590072,28.1855784 8.38394871,28.2229673 Z" id="Oval-8" fill="#CBBDF5"></path>
                <path d="M19.4232067,22.1265651 C19.6121507,22.5128994 19.2856248,22.8774046 18.4436292,23.2200807 C18.5061228,21.9481226 18.4124402,19.5032907 18.2469048,18.5075707 C18.3819842,18.5075707 18.6666048,18.4473747 18.7696579,18.419675 C18.7114469,18.4353121 18.9515382,18.3637385 19.0179549,18.3583985 C19.1894961,18.3446061 19.3237343,18.4312166 19.4038217,18.5837835 C19.4176229,18.6111623 19.4176229,18.6111623 19.4295312,18.6383463 C19.4852574,18.7693275 19.4669699,18.8893076 19.4089156,19.044048 C19.3822743,19.1150586 19.3465549,19.193499 19.2780391,19.3402564 C19.2239115,19.4592994 19.1905376,19.5443695 19.1692814,19.6228421 C19.1186205,19.8098695 19.1442455,19.8913149 19.2950324,19.9684212 C19.3386498,19.9907253 19.3771332,20.0101765 19.4107144,20.026938 C19.4993361,19.9645932 19.6225441,19.9366969 19.7685488,19.9366969 C19.7607681,19.9366969 19.8630419,19.7929367 20.0184144,19.4728589 C20.0628542,19.3810418 20.0848535,19.3358666 20.108674,19.2882651 C20.2623347,18.9811988 20.3699895,18.8229184 20.5426788,18.7342058 C20.8443888,18.5792138 21.1036603,18.7554854 21.2969665,19.1271921 C21.483047,19.4850047 21.5406139,19.7252373 21.4386261,19.9322246 C21.3404254,20.131526 21.2109238,20.1787729 20.9190314,20.2228078 C20.8063295,20.23981 20.783968,20.2435412 20.7390373,20.2540882 C20.6270989,20.2803645 20.5642885,20.3172027 20.5211823,20.3835789 C20.4300433,20.5239176 20.4903424,20.6272699 20.8507058,20.9285367 C20.9904879,21.0453958 20.9879251,21.0432362 21.0362091,21.0859661 C21.134995,21.1733885 21.2096797,21.2493235 21.2704896,21.3292046 C21.5311604,21.6716274 21.3307278,22.0775632 20.9520388,22.3847107 C20.807193,22.5021924 20.6484013,22.5906325 20.507546,22.6250041 C20.245999,22.6888268 19.9892383,22.56076 19.9892383,22.2536706 C19.9892383,22.1776959 19.9569657,22.0381741 19.8981012,21.8642869 C19.8752052,21.7966511 19.8488566,21.7252246 19.8197311,21.6512167 C19.7833827,21.5588554 19.7469506,21.4725016 19.7141205,21.3981172 L19.3470217,21.3981172 C19.2679031,21.6208139 19.2916908,21.857654 19.4232067,22.1265651 Z" id="Path" fill="#FCA1FE"></path>
                <path d="M23.3480542,27.5192167 C23.3480542,27.6289763 23.3379643,27.7320974 23.3182256,27.828392 C23.0745332,27.8984023 21.5418713,28.2791662 21.5418713,28.2791662 C21.9107771,25.4634725 22.0178821,24.9524332 22.5288071,24.9524332 C23.1033209,24.9524332 23.3480542,26.2659575 23.3480542,27.5192167 Z" id="Oval-9" fill="#CBBDF5"></path>
                <path d="M20.3182603,15.6672079 C21.1670838,15.7630287 21.8800982,15.4233804 21.9450077,14.8699837 C22.0099173,14.3165871 21.3191026,14.1385091 20.3716328,14.1831556 C19.4241629,14.227802 18.4848359,14.2170168 18.4848359,14.8561428 C18.4848359,15.4952687 19.4694369,15.5713872 20.3182603,15.6672079 Z" id="Oval-10" stroke="#CBBDF5" stroke-width="0.771552" fill="#CBBDF5" transform="translate(20.217033, 14.929960) rotate(47.000000) translate(-20.217033, -14.929960) "></path>
                <path d="M21.9710266,3.55551407 C21.7032131,3.74381725 21.41396,3.96448798 21.0478946,4.24263166 C18.6430206,6.0699024 17.3011745,6.5108412 15.6217707,5.20237451 C14.9501621,4.67910688 14.4762533,4.08092896 14.099568,3.35060247 C13.9143175,2.99143416 13.8729603,2.89204321 13.5424804,2.05661818 C13.0965457,0.92933323 12.6712244,0.319074039 11.7822954,0.0268635713 L13.4965633,0.0268635713 C13.8693823,0.451192572 14.162569,1.00249913 14.4392316,1.70187872 C14.7548242,2.49966989 14.7926615,2.59060181 14.9566472,2.90854122 C15.2723317,3.52059815 15.6594226,4.00919266 16.2144732,4.44164687 C17.4124908,5.37505324 18.3833929,5.05600891 20.4644603,3.47477282 C21.0321666,3.04341841 21.4852774,2.70358123 21.8640789,2.45727855 C21.8640789,2.45727855 21.8924079,2.7883973 21.9190792,3.03566646 C21.9360772,3.19325527 21.9437428,3.35967804 21.9710266,3.55551407 Z" id="Combined-Shape" fill="#CBBDF5"></path>
                <path d="M13.9017005,11.9019925 C12.6241032,12.4537413 10.9933763,12.8416217 9.77168674,12.8416217 C8.92404089,12.8416217 7.84825386,12.6017449 6.85700253,12.2229192 C6.90465688,12.0149331 6.97676064,11.6400867 7.01403743,11.4437447 C7.95119691,11.8150442 8.98310506,12.0701285 9.77168674,12.0701285 C11.1233649,12.0701285 13.0833476,11.5280763 14.275051,10.8636963 L13.9017005,11.9019925 Z" id="Combined-Shape" fill="#CBBDF5"></path>
                <path d="M19.2421132,11.4687326 C20.5333722,11.0407244 21.4742531,11.143304 22.8570979,11.6342453 C22.9300381,11.6601407 23.015594,11.6831143 23.0439825,11.7021931 C23.0957538,11.9301484 23.1812742,12.4467562 23.2113312,12.5810605 C23.0465615,12.525821 22.8397474,12.4467562 22.5989841,12.3612797 C21.362783,11.9224003 20.5822302,11.8373004 19.4848496,12.2010446 C18.2728912,12.6027673 17.2265861,12.7417102 16.4289438,12.615735 L16.0789429,11.7021931 C16.6769229,12.0190066 17.7527133,11.9624177 19.2421132,11.4687326 Z" id="Path" fill="#CBBDF5"></path>
                <path d="M8.27220901,1.68083132 C10.3601479,2.2495607 12.7622833,3.64887912 13.9882219,5.13992159 C15.3462635,6.79163386 15.8988557,8.53373159 15.632746,10.598078 C15.4855526,10.1973866 15.2728003,9.65159567 14.9944891,8.96070521 C14.8560087,9.30718654 14.7691781,9.53198075 14.7339975,9.63508784 C14.7380453,8.20288455 14.2399065,6.96448933 13.2433133,5.75238712 C12.1751686,4.45326076 10.0250934,3.19750806 8.18612264,2.65571808 C8.18612264,2.3512068 8.27220901,1.90316497 8.27220901,1.68083132 Z" id="Path-33" fill="#FCA1FE"></path>
                <path d="M20.1780699,28.6313577 C20.2051658,27.4963941 20.2967598,26.4747257 20.4533768,25.5658022 C20.88411,23.0660525 21.8464423,21.4133252 23.3694205,21.9698026 C24.35881,22.3313134 24.7432452,24.1011027 24.7247439,27.4616613 C24.5322473,27.5085141 24.0246413,27.6555941 23.7486053,27.7143602 C23.7632188,26.3126564 23.7250515,25.2239524 23.5998844,24.3952038 C23.4560328,23.4427425 23.2272776,22.9445911 23.0384542,22.8755974 C22.4096679,22.6458466 21.7356252,23.8034601 21.403738,25.7295595 C21.267051,26.5228195 21.1752177,27.3948186 21.1424378,28.3834601 C20.9621457,28.4156879 20.3862457,28.5960145 20.1780699,28.6313577 Z" id="Path-35" fill="#FC45E0"></path>
                <path d="M9.075285,28.3735056 C9.12011466,28.3843394 9.15047352,28.3914447 9.16305804,28.3939702 C9.06829972,25.6800309 8.20191763,23.2877602 7.45736566,23.2877602 C6.80090771,23.2877602 6.32808168,25.7397545 6.74196616,27.5910967 C6.75743322,27.6602822 6.77752747,27.7310631 6.80180295,27.8028771 C6.25009246,27.6642924 5.83762638,27.5603698 5.78783156,27.546706 C5.34862439,25.2108099 5.94960316,22.3619683 7.45736566,22.3619683 C8.98691652,22.3619683 10.0447734,25.3224803 10.095475,28.6314225 C10.0470823,28.6180153 9.63122443,28.5131826 9.075285,28.3735056 Z" id="Combined-Shape" fill="#FC45E0"></path>
                <path d="M8.65419936,19.0295242 C9.16775519,18.409334 10.5324167,18.6342341 11.7067572,19.3483825 C11.6150445,19.9728596 11.6150445,21.9208592 11.6150445,23.0605109 C11.0801366,22.9280788 10.4865407,22.6201749 9.83425679,22.1367992 C8.61068867,21.2300726 8.06238602,19.7442213 8.65419936,19.0295242 Z" id="Path-38" fill="#FCA1FE"></path>
                <path d="M11.6322043,20.4670338 C11.1285118,20.0727184 10.5209154,19.7833236 9.99666723,19.6758183 C9.61314291,19.5971706 9.40576009,19.6339655 9.39696829,19.6445829 C9.36255177,19.6861456 9.35326558,19.8718167 9.46604035,20.1715162 C9.6241031,20.5915689 9.96404318,21.0326775 10.4084296,21.3619906 C10.8239639,21.6699228 11.3076496,21.9247044 11.6322043,22.0557644 C11.6322043,21.4480914 11.6322043,20.6926703 11.6322043,20.4670338 Z" id="Path" fill="#CBBDF5"></path>
                <path d="M9.02748441,16.6308088 C8.74480092,15.7316333 9.52991169,14.5471908 11.177743,14.1334313 C11.9910517,13.9292149 12.6183357,13.9548365 13.0399746,14.1646923 C12.966648,14.421648 12.440711,15.8776612 12.2573938,16.4870443 C11.3068641,16.8387548 9.26760137,17.3945863 9.02748441,16.6308088 Z" id="Path-39" fill="#FCA1FE"></path>
                <path d="M22.867411,10.5959154 C21.6938161,10.6095801 20.7053272,10.3019053 19.1919484,9.61896853 C19.2827617,9.6599495 18.8143868,9.44808553 18.7008766,9.39738494 C18.518815,9.31606504 18.3672859,9.2502785 18.2228049,9.1903442 L17.8281511,9.0269678 L18.0177697,8.65503087 C18.9223996,6.88059886 20.5046277,5.49818228 22.0864827,4.81898958 C22.2025153,6.04606863 22.7736118,9.00645366 22.867411,10.5959154 Z" id="Path-40" fill="#FC45E0"></path>
                <path d="M7.93755544,5.04144157 C10.2347953,5.68019856 11.7527321,6.85187355 12.4361753,8.56381769 L12.6268396,9.04140923 L12.1749359,9.28682642 C10.5075969,10.1923149 8.71687406,10.6060614 7.2021266,10.3897959 C7.25085112,10.0899029 7.35896565,9.49529651 7.38919628,9.25086161 C8.48976529,9.40427251 9.82715656,9.13705293 11.1337838,8.51827958 C10.5382758,7.46705554 9.43062025,6.68814899 7.80815185,6.2036659 C7.83341467,5.92791735 7.93755544,5.28897838 7.93755544,5.04144157 Z" id="Path-41" fill="#FC45E0"></path>
                <path d="M2.55070889,23.0151167 C3.65158081,24.2464911 4.24543302,25.6533772 4.2849237,27.1723227 C4.13194385,27.1316618 3.61057598,26.9974857 3.50811204,26.9731175 C3.43485564,25.8079657 2.97590388,24.7244741 2.16341297,23.7416316 C2.25358853,23.5801603 2.49192893,23.1048873 2.55070889,23.0151167 Z" id="Path-42" fill="#FFA4EF"></path>
                <path d="M27.8358933,23.7751463 C27.2803793,24.5343058 26.9476503,25.4808484 26.8819579,26.8695884 C26.746172,26.8695884 26.2990994,27.0427945 26.103454,27.0427945 C26.1512708,25.3910169 26.5388628,24.2412162 27.2132871,23.3195551 C27.2668899,23.2463021 27.3454538,23.1487338 27.4328769,23.0438132 C27.5540318,23.2463021 27.7415163,23.6063555 27.8358933,23.7751463 Z" id="Path-43" fill="#FFA4EF"></path>
                <path d="M6.51145056,13.7568978 L6.54679769,13.8345293 C7.12800208,15.1110047 7.12800208,16.4761306 6.55364625,17.9050917 C5.86968269,19.6067501 4.3124267,21.344198 3.19951801,21.7992392 C4.26977974,19.7094688 5.2396951,17.6313724 5.82371262,16.0443469 C6.05919205,15.4044486 6.28907448,14.6461723 6.51145056,13.7568978 Z" id="Combined-Shape" fill="#F848D6"></path>
                <path d="M23.6895678,14.6802749 C22.9193904,16.1964759 22.9143808,17.7679255 23.6745389,19.3946239 C24.4454984,21.0444366 25.5642159,21.9846669 26.9757538,22.1502798 C26.3931124,21.0444366 24.4454984,17.3987876 23.6895678,14.6802749 Z" id="Path-45" fill="#FC45E0"></path>
                <path d="M19.6810472,21.1567619 C19.9822852,21.0138775 20.2139653,20.7372253 20.0775056,20.3909792 C19.9410458,20.0447332 19.4723695,20.1046003 19.1636701,20.2343484 C18.8549708,20.3640964 18.5794629,20.7153673 18.662193,20.89321 C18.7449231,21.0710528 19.3798092,21.2996463 19.6810472,21.1567619 Z" id="Oval-11" fill="#FC45E0"></path>
                <path d="M22.5437629,9.22131362 C22.6018307,9.22131362 22.6603671,9.21863699 22.7191944,9.21347174 C22.6409506,8.43767216 22.4032486,7.02942108 22.3147028,6.49049217 C21.0365094,6.73933463 19.9076049,8.03106057 19.9076049,8.43767216 C19.9076049,8.84428375 21.2289243,9.22131362 22.5437629,9.22131362 Z" id="Oval-12" fill="#CBBDF5"></path>
                <path d="M7.91686277,8.25173877 C8.51699226,8.47527458 8.81705701,8.39209012 8.81705701,8.00218538 C8.81705701,7.61228064 8.55955293,7.35712958 8.04454476,7.2367322 L7.91686277,8.25173877 Z" id="Path-46" stroke="#FC45E0" stroke-width="0.771552" fill="#FC45E0"></path>
                <path d="M15.9274485,11.3235634 L15.5324785,10.3433466 L15.5324785,9.90562894 L15.4010638,10.0172083 L15.3776998,9.95922453 C15.4682362,9.87009944 15.5644983,9.7895867 15.6513706,9.72731964 C15.6977968,9.6940906 15.6977968,9.6940906 15.744875,9.66074 C16.3447186,9.23738972 16.6499804,9.10504259 16.9527622,9.38433041 C17.2977229,9.70252446 17.0459063,10.2194819 16.5397492,10.7853566 C16.3536356,10.9934282 16.1510822,11.1768379 15.9752507,11.293062 C15.9592442,11.3036422 15.9433063,11.3138203 15.9274485,11.3235634 Z" id="Combined-Shape" fill="#FCA1FE"></path>
                <circle id="Oval-14" stroke="#FC45E0" stroke-width="0.5" fill="#FC45E0" cx="18.8664182" cy="16.3162838" r="1"></circle>
                <circle id="Oval-14" stroke="#9132B6" stroke-width="0.5" fill="#9132B6" cx="9.95862151" cy="15.6770707" r="1"></circle>
                <circle id="Oval-14-Copy-2" stroke="#9132B6" stroke-width="0.5" fill="#9132B6" cx="11.7045113" cy="14.7386177" r="1"></circle>
                <circle id="Oval-14-Copy-3" stroke="#9132B6" stroke-width="0.5" fill="#9132B6" cx="11.0598463" cy="16.4040247" r="1"></circle>
                <circle id="Oval-14-Copy" stroke="#FC45E0" stroke-width="0.5" fill="#FC45E0" cx="22.671731" cy="13.8262929" r="1"></circle>
            </g>
        </g>
    </g>
</svg>