<?xml version="1.0" encoding="UTF-8"?>
<svg width="48px" height="48px" viewBox="0 0 48 48" version="1.1" xmlns="http://www.w3.org/2000/svg" xmlns:xlink="http://www.w3.org/1999/xlink">
    <!-- Generator: Sketch 51.3 (57544) - http://www.bohemiancoding.com/sketch -->
    <title>bottom-pjpants</title>
    <desc>Created with Sketch.</desc>
    <defs></defs>
    <g id="SVGs" stroke="none" stroke-width="1" fill="none" fill-rule="evenodd">
        <g id="Slices" transform="translate(-177.000000, -236.000000)"></g>
        <g id="Group-135" transform="translate(14.000000, 9.000000)" fill-rule="nonzero">
            <g id="Group-133" transform="translate(0.000000, 0.935484)" stroke-linejoin="round">
                <path d="M9.3440186,11.2724235 L6.21816589,26.4805566 L0.881020782,24.9578716 L3.46415811,0 L17.0772865,0 L19.623715,24.9578716 L14.2865699,26.4805566 L11.1607172,11.2724235 C11.0720938,10.8412463 10.6925587,10.5317861 10.2523679,10.5317861 L10.2523679,10.5317861 C9.81217716,10.5317861 9.432642,10.8412463 9.3440186,11.2724235 Z" id="Combined-Shape" stroke="#DDDDDD" stroke-width="0.771552" fill="#DDDDDD"></path>
                <path d="M14.0770168,23.8785937 L19.9255166,23.9795606 L19.9255166,26.2094336 C19.9255166,26.7285813 19.5046642,27.1494336 18.9855166,27.1494336 C18.9779922,27.1494336 18.9704681,27.1493433 18.9629459,27.1491626 L15.1266039,27.0570203 C14.6375462,27.045274 14.2392506,26.6603879 14.210769,26.172019 L14.0770168,23.8785937 Z" id="Rectangle-10" stroke="#132868" stroke-width="0.6558192" fill="#132868" stroke-linecap="round" transform="translate(17.001267, 25.513834) scale(-1, 1) rotate(-349.000000) translate(-17.001267, -25.513834) "></path>
                <path d="M0.586909341,23.8796855 L6.44661841,23.978517 L6.44661841,26.2058072 C6.44661841,26.7249549 6.02576608,27.1458072 5.50661841,27.1458072 C5.49825489,27.1458072 5.48989173,27.1456956 5.48153118,27.1454724 L1.69298736,27.0443256 C1.2142715,27.0315449 0.821688078,26.6609189 0.781405991,26.1837297 L0.586909341,23.8796855 Z" id="Rectangle-10" stroke="#132868" stroke-width="0.6558192" fill="#132868" stroke-linecap="round" transform="translate(3.516764, 25.512546) rotate(-349.000000) translate(-3.516764, -25.512546) "></path>
            </g>
            <path d="M3.10663181,0.974624125 C3.13354752,0.71764768 3.36793236,0.530710886 3.630145,0.557089108 C3.89235764,0.583467329 4.0831035,0.813171672 4.05618779,1.07014812 L1.62601201,24.2721351 C1.5990963,24.5291115 1.36471146,24.7160483 1.10249882,24.6896701 C0.840286176,24.6632919 0.649540325,24.4335876 0.676456034,24.1766111 L3.10663181,0.974624125 Z" id="Path-304" fill="#132868"></path>
            <polygon id="Path-304" fill="#132868" points="5.36407471 0.547906691 6.31862016 0.547906691 6.31862016 1.01564863 6.31382742 6.6145077 3.59782217 25.254968 2.65286219 25.1227268 2.72033007 24.6596819 5.36407471 6.5483871"></polygon>
            <polygon id="Path-304" fill="#132868" points="8.10282214 0.547920965 9.0573676 0.547920965 9.0573676 0.981504379 9.05025634 6.63412026 5.68795079 25.5086542 4.74762785 25.3477686 4.8297098 24.8869959 8.10282214 6.55367743"></polygon>
            <g id="Group-134" transform="translate(15.750000, 13.096774) scale(-1, 1) translate(-15.750000, -13.096774) translate(11.454545, 0.000000)" fill="#132868">
                <path d="M2.5826339,0.974624125 C2.60954961,0.71764768 2.84393445,0.530710886 3.10614709,0.557089108 C3.36835973,0.583467329 3.55910558,0.813171672 3.53218987,1.07014812 L1.10201409,24.2721351 C1.07509838,24.5291115 0.840713545,24.7160483 0.578500904,24.6896701 C0.316288262,24.6632919 0.125542411,24.4335876 0.15245812,24.1766111 L2.5826339,0.974624125 Z" id="Path-304"></path>
                <polygon id="Path-304" points="4.84007679 0.547906691 5.79462225 0.547906691 5.79462225 1.01564863 5.78982951 6.6145077 3.07382425 25.254968 2.12886427 25.1227268 2.19633215 24.6596819 4.84007679 6.5483871"></polygon>
                <polygon id="Path-304" points="7.57882423 0.54859186 8.53336968 0.54859186 8.53336968 0.981504379 8.52625843 6.63412026 5.16395288 25.5086542 4.22362994 25.3477686 4.30571189 24.8869959 7.57882423 6.55367743"></polygon>
            </g>
        </g>
    </g>
</svg>