<?xml version="1.0" encoding="UTF-8"?>
<svg width="48px" height="48px" viewBox="0 0 48 48" version="1.1" xmlns="http://www.w3.org/2000/svg" xmlns:xlink="http://www.w3.org/1999/xlink">
    <!-- Generator: Sketch 51.3 (57544) - http://www.bohemiancoding.com/sketch -->
    <title>bottom-snow-pants</title>
    <desc>Created with Sketch.</desc>
    <defs></defs>
    <g id="SVGs" stroke="none" stroke-width="1" fill="none" fill-rule="evenodd">
        <g id="Slices" transform="translate(-354.000000, -236.000000)"></g>
        <g id="Group-52" transform="translate(9.000000, 10.212077)" fill-rule="nonzero">
            <path d="M14.5276946,8.3956734 L9.18917294,27.8632106 L0.988715855,24.4501824 C4.28505685,13.7687588 6.06111419,7.99413142 6.31688789,7.12630045 C6.57266159,6.25846947 7.29689289,4.76939175 8.48958178,2.65906728 L8.48958178,0.658722196 L20.5658074,0.658722196 L20.5658074,2.65906728 C21.7584963,4.76939175 22.4827276,6.25846947 22.7385013,7.12630045 C22.994275,7.99413142 24.7703323,13.7687588 28.0666733,24.4501824 L19.8662162,27.8632106 L14.5276946,8.3956734 Z" id="Combined-Shape" stroke="#DAD8DA" fill="#D8D8D8" stroke-linecap="round" stroke-linejoin="round"></path>
            <circle id="Oval-34" stroke="#0F1C59" stroke-width="0.9" fill="#0A1C56" cx="14.4758884" cy="1.63529156" r="1"></circle>
            <path d="M5.28644543,11.3025153 L3.80736171,15.7813334 C5.3907227,16.5452533 6.69724684,17.2803733 7.72825156,17.9885042 C8.68612493,18.6464058 9.80650223,19.4910993 11.0903632,20.5230541 L12.3249384,15.8584175 C11.5102934,15.0260175 10.4607201,14.1521934 9.17665524,13.2389156 C7.94794281,12.3650067 6.65172642,11.7200096 5.28644542,11.3025153 Z" id="Rectangle-53" stroke="#0A1C56" fill="#0A1C56"></path>
            <path d="M18.2672566,11.3025153 L16.7881728,15.7813334 C18.3715338,16.5452533 19.678058,17.2803733 20.7090627,17.9885042 C21.6669361,18.6464058 22.7873134,19.4910993 24.0711743,20.5230541 L25.3057496,15.8584175 C24.4911046,15.0260175 23.4415312,14.1521934 22.1574664,13.2389156 C20.9287539,12.3650067 19.6325375,11.7200096 18.2672566,11.3025153 Z" id="Rectangle-53" stroke="#0A1C56" fill="#0A1C56" transform="translate(21.018100, 16.043966) scale(-1, 1) translate(-21.018100, -16.043966) "></path>
            <path d="M0.605029542,24.5900947 C1.4647469,25.5339647 7.76548742,27.8947211 9.40753607,28.1471948" id="Path-130" stroke="#0A1C56" stroke-linecap="round" stroke-linejoin="round"></path>
            <path d="M19.6589485,24.5900947 C20.5186658,25.5339647 26.8194063,27.8947211 28.461455,28.1471948" id="Path-130" stroke="#0A1C56" stroke-linecap="round" stroke-linejoin="round" transform="translate(24.060202, 26.368645) scale(-1, 1) translate(-24.060202, -26.368645) "></path>
        </g>
    </g>
</svg>