<?xml version="1.0" encoding="UTF-8"?>
<svg width="48px" height="48px" viewBox="0 0 48 48" version="1.1" xmlns="http://www.w3.org/2000/svg" xmlns:xlink="http://www.w3.org/1999/xlink">
    <!-- Generator: Sketch 51.3 (57544) - http://www.bohemiancoding.com/sketch -->
    <title>bottom-armorsuit</title>
    <desc>Created with Sketch.</desc>
    <defs></defs>
    <g id="SVGs" stroke="none" stroke-width="1" fill="none" fill-rule="evenodd">
        <g id="Slices" transform="translate(-708.000000, -177.000000)"></g>
        <g id="Group-9" transform="translate(10.055986, 8.196784)">
            <path d="M6.76623618,31.1060222 C6.14068907,31.1060222 5.76237989,30.6441178 5.76237989,29.7903445 C5.76237989,28.7883213 6.16565874,27.6973794 6.76623618,27.6973794 C7.36689715,27.6973794 7.75075488,28.7755964 7.75075488,29.7903445 C7.75075488,30.6470138 7.38869892,31.1060222 6.76623618,31.1060222 Z M6.76623618,30.5379151 C7.04142352,30.5379151 7.18264774,30.3588734 7.18264774,29.7903445 C7.18264774,29.0776848 6.89349576,28.2654865 6.76623618,28.2654865 C6.63353973,28.2654865 6.33048703,29.0852987 6.33048703,29.7903445 C6.33048703,30.3525896 6.48227239,30.5379151 6.76623618,30.5379151 Z" id="Oval-9" fill="#715439" fill-rule="nonzero" transform="translate(6.756567, 29.401701) rotate(-15.000000) translate(-6.756567, -29.401701) "></path>
            <path d="M23.4087892,30.4611829 C22.7832421,30.4611829 22.4049329,29.9992785 22.4049329,29.1455052 C22.4049329,28.143482 22.8082118,27.0525401 23.4087892,27.0525401 C24.0094502,27.0525401 24.3933079,28.1307571 24.3933079,29.1455052 C24.3933079,30.0021745 24.0312519,30.4611829 23.4087892,30.4611829 Z M23.4087892,29.8930758 C23.6839765,29.8930758 23.8252008,29.7140341 23.8252008,29.1455052 C23.8252008,28.4328455 23.5360488,27.6206472 23.4087892,27.6206472 C23.2760928,27.6206472 22.9730401,28.4404594 22.9730401,29.1455052 C22.9730401,29.7077503 23.1248254,29.8930758 23.4087892,29.8930758 Z" id="Oval-9-Copy-2" fill="#715439" fill-rule="nonzero" transform="translate(23.399120, 28.756861) rotate(-45.000000) translate(-23.399120, -28.756861) "></path>
            <path d="M4.88822438,30.6565757 C4.27113616,30.6565757 3.9159549,30.1710357 3.9159549,29.3075909 C3.9159549,28.2925669 4.28756105,27.2479329 4.88822438,27.2479329 C5.48878015,27.2479329 5.90432989,28.3205531 5.90432989,29.3075909 C5.90432989,30.1634625 5.51147698,30.6565757 4.88822438,30.6565757 Z M4.88822438,30.0884686 C5.16572032,30.0884686 5.33622275,29.8744521 5.33622275,29.3075909 C5.33622275,28.6118704 5.02790569,27.8160401 4.88822438,27.8160401 C4.76107813,27.8160401 4.48406204,28.5947689 4.48406204,29.3075909 C4.48406204,29.8888045 4.63011988,30.0884686 4.88822438,30.0884686 Z" id="Oval-9-Copy" fill="#715439" fill-rule="nonzero" transform="translate(4.910142, 28.952254) scale(-1, 1) rotate(-41.000000) translate(-4.910142, -28.952254) "></path>
            <path d="M21.4472146,30.8519686 C20.9002234,30.8519686 20.6138865,30.3615267 20.6138865,29.5029837 C20.6138865,28.4669308 20.9045001,27.4433257 21.4472146,27.4433257 C21.9892306,27.4433257 22.3155289,28.4986187 22.3155289,29.5029837 C22.3155289,30.3516763 21.9974229,30.8519686 21.4472146,30.8519686 Z M21.4472146,30.2838614 C21.6159061,30.2838614 21.7474218,30.0770239 21.7474218,29.5029837 C21.7474218,28.8245904 21.4959921,28.0114329 21.4472146,28.0114329 C21.4090543,28.0114329 21.1819937,28.8111906 21.1819937,29.5029837 C21.1819937,30.0890992 21.2957026,30.2838614 21.4472146,30.2838614 Z" id="Oval-9-Copy-3" fill="#715439" fill-rule="nonzero" transform="translate(21.464708, 29.147647) scale(-1, 1) rotate(-14.000000) translate(-21.464708, -29.147647) "></path>
            <path d="M6.84114198,5.991103 C6.80885437,5.99764569 6.77613921,6.00103042 6.74302154,6.00103042 C7.53295018,4.17632777 5.41390431,4.10226592 5.32873505,3.31787364 C5.24356579,2.53348137 5.47217284,1.79921555 6.2281051,2.08996263 C6.32367374,2.12672029 6.43163243,2.16230976 6.54622291,2.19881246 C7.09323841,2.33647843 7.53087353,2.25171965 7.85912825,1.94453613 C8.34523651,1.28379784 9.18311472,0.805575507 9.95405436,0.805575507 C10.7282351,0.805575507 11.6340209,1.28782733 12.1630427,1.95287933 C12.4154327,2.11595773 12.6696962,2.0313627 12.9258331,1.69909424 C12.9323863,1.69059316 12.9388911,1.68238129 12.9453474,1.67445862 C13.3907637,0.971951213 14.1136463,0.428071124 14.8918777,0.501740131 C15.5199939,0.561198922 16.286804,0.959007851 16.9034342,1.48801141 C17.384346,1.77612067 18.0124771,1.70817655 18.7878275,1.28417906 C19.0314111,1.05198824 19.3134223,0.909789438 19.6099946,0.919264551 C20.1087694,0.935199776 20.748142,1.20519921 21.3786979,1.11812285 C22.1698896,1.00886357 22.1440944,1.71231389 21.8588965,2.47753694 C21.6996134,2.90491444 22.4507385,2.71279231 22.2384957,3.52488046 C22.127754,3.94860294 21.1357813,3.86878656 21.5995962,5.03766423 C21.5449437,5.04244784 21.4898492,5.04504547 21.4344142,5.04555348 L24.8009419,18.6902533 C26.3620129,22.0550964 27.0921135,23.9322876 26.9912438,24.3218268 C26.8425769,24.89595 22.3105295,28.4945589 21.8009034,28.110537 C20.6243974,27.2239965 18.956375,23.490326 17.5010911,20.327757 C16.930154,19.0870177 16.0161371,17.5372685 15.27048,15.5040128 C14.9228581,14.5561185 14.4439454,12.9746142 13.8337417,10.7594998 C13.747858,10.5306481 13.6651593,10.4162222 13.5856456,10.4162222 C13.5061319,10.4162222 13.4271896,10.5306481 13.3488187,10.7594998 C12.9138519,12.8204053 12.4926144,14.5710634 12.0851063,16.0114742 C11.6775982,17.451885 10.9873443,19.5667988 10.0143447,22.3562157 C8.3371965,25.7588829 7.28809036,27.7145541 6.86702625,28.2232291 C6.23543009,28.9862417 0.669211286,25.3127875 0.720536277,24.7419085 C0.929912514,22.413053 2.65147294,17.829083 5.88521756,10.9899986 L6.84114198,5.991103 Z" id="Combined-Shape" fill="#132F71"></path>
            <path d="M15.6716375,14.5370345 C16.1643394,13.0024924 23.7186045,17.6487326 25.2169709,17.1703977 C25.4303247,17.1022872 26.7621639,19.596905 26.3083077,20.1960732 C26.0583095,20.5261137 24.2149702,22.463819 19.0435782,23.085684 C18.0920092,23.2001111 17.5876388,22.2952526 17.4182063,21.8904191 C17.2265569,21.4137126 16.7730735,20.6843161 16.3371781,18.7451123 C16.0238129,17.3510183 15.6364954,14.6464861 15.6716375,14.5370345 Z" id="Rectangle-4-Copy" fill="#3157B2" transform="translate(21.035684, 18.660217) rotate(-8.000000) translate(-21.035684, -18.660217) "></path>
            <path d="M0.858500272,14.8271851 C1.51435696,13.3307411 8.5099728,18.9434547 10.0613838,18.4651199 C10.2822906,18.3970094 11.661279,20.8916272 11.1913556,21.4907953 C10.9325071,21.8208359 8.23307734,23.2668635 6.44376042,23.7901459 C5.9098308,23.9462926 4.59135709,24.3644842 3.66944324,24.3804061 C3.17565498,24.3889341 2.31201671,24.2612385 2.13658601,23.856405 C1.93815195,23.3796985 1.45063703,21.1661379 1.34540501,19.1846361 C1.25509069,17.4840319 0.434940764,15.7936053 0.858500272,14.8271851 Z" id="Rectangle-4-Copy-3" fill="#4E55BD" transform="translate(6.013062, 19.476760) scale(-1, 1) rotate(-8.000000) translate(-6.013062, -19.476760) "></path>
            <path d="M24.361572,12.5804487 C25.8036151,16.4476381 26.3905139,18.6935984 26.1222682,19.3183296 C24.5513635,20.45778 22.9551599,21.2590165 21.3336574,21.7220389 C18.9014037,22.4165725 17.1463869,22.3801877 16.9885869,21.8897686 C16.2846068,20.3463996 16.120453,18.9150845 15.7813705,17.5201983 C15.442288,16.1253121 15.3885204,15.2148178 15.2115689,13.821727 C15.1449058,13.2969059 17.4127399,12.4324922 22.0150715,11.2284861 C23.2828345,11.3344679 24.0650013,11.7851221 24.361572,12.5804487 Z" id="Path-21" fill="#9EB4EE" transform="translate(20.697759, 16.740059) rotate(-8.000000) translate(-20.697759, -16.740059) "></path>
            <path d="M10.1282748,13.9092702 C11.5703179,17.7764596 12.1529211,20.0305517 11.8760843,20.6715464 C10.978175,21.5012121 9.38626691,22.2943167 7.1003602,23.0508604 C3.67150015,24.1856758 2.54711954,23.4892282 2.38931955,22.9988091 C1.68533941,21.4554401 0.943527412,15.2454477 0.766575954,13.852357 C0.699912768,13.3275358 2.76315664,13.1979099 6.95630757,13.4634792 C8.77438167,12.9653466 9.83170409,13.1139436 10.1282748,13.9092702 Z" id="Path-21-Copy" fill="#9EB4EE" transform="translate(6.353987, 18.419876) scale(-1, 1) rotate(-8.000000) translate(-6.353987, -18.419876) "></path>
            <polygon id="Rectangle-5" fill="#DDDDDD" transform="translate(5.603817, 17.997254) rotate(14.000000) translate(-5.603817, -17.997254) " points="5.1716888 13.1231761 6.11879864 13.1231761 6.02444339 22.8713312 5.5078889 22.7601106 5.08883449 22.6506232"></polygon>
            <polygon id="Rectangle-5-Copy-5" fill="#DDDDDD" transform="translate(19.709526, 18.128341) rotate(4.000000) translate(-19.709526, -18.128341) " points="19.2807176 13.6357421 20.2278274 13.6357421 20.1136259 22.3565743 19.6674442 22.5124729 19.1912247 22.6209402"></polygon>
            <polygon id="Rectangle-5-Copy" fill="#DDDDDD" transform="translate(4.834981, 17.691987) rotate(14.000000) translate(-4.834981, -17.691987) " points="4.37081388 13.0126181 4.85227265 13.0126181 4.84279289 22.3713554 4.33498053 22.2167247"></polygon>
            <polygon id="Rectangle-5-Copy-6" fill="#DDDDDD" transform="translate(18.916432, 18.076992) rotate(4.000000) translate(-18.916432, -18.076992) " points="18.4600839 13.5271157 18.9415426 13.5271157 18.8801547 22.5944413 18.4164319 22.626868"></polygon>
            <path d="M16.1774075,11.1813903 C16.2194158,10.8824863 16.2887296,10.7464094 16.6083466,10.7006187 C19.0615241,10.3491585 22.0879893,10.5463752 23.4605708,10.1231775 C23.6814776,10.0550669 24.8068723,12.4667165 24.4282367,13.092309 C24.3111788,13.2857155 19.3458159,15.0303408 18.0687451,14.6178336 C17.5271678,14.4428984 16.0899375,11.8037721 16.1774075,11.1813903 Z" id="Rectangle-4-Copy" fill="#3157B2" transform="translate(20.339517, 12.401241) rotate(-8.000000) translate(-20.339517, -12.401241) "></path>
            <path d="M2.81911732,12.162546 C2.98773331,11.6388841 3.24316128,11.6567454 3.5627783,11.6109547 C6.01595576,11.2594945 8.70567754,11.3189217 10.0782591,10.895724 C10.2991659,10.8276135 11.4245606,13.239263 11.045925,13.8648555 C10.928867,14.058262 6.01599741,15.4229545 5.09284028,15.220282 C4.50748421,15.0917713 2.74602795,12.3895358 2.81911732,12.162546 Z" id="Rectangle-4-Copy-4" fill="#4E55BD" transform="translate(6.970024, 13.067529) scale(-1, 1) rotate(-4.000000) translate(-6.970024, -13.067529) "></path>
            <path d="M16.2523659,10.4065922 C16.4426174,10.2064313 17.104619,9.85067756 17.807427,9.79781836 C19.7557557,9.65128174 22.7044535,9.95831403 23.6496773,9.51039705 C24.1986072,9.51039705 24.8092263,12.2923081 24.5618237,12.5138701 C24.3649398,12.69019 19.2938531,14.3745392 18.3706959,14.1718667 C17.7853399,14.0433559 16.0621144,10.606753 16.2523659,10.4065922 Z" id="Rectangle-4-Copy-2" fill="#9EB4EE" transform="translate(20.428121, 11.849579) rotate(-8.000000) translate(-20.428121, -11.849579) "></path>
            <path d="M2.90228497,11.5658023 C3.87978058,11.0901265 4.79316693,11.1539967 5.68828802,11.035629 C7.54144862,10.7905736 9.17489742,10.6870994 10.0421714,10.2761208 C10.5911013,10.2761208 11.2017204,13.0580318 10.9543178,13.2795939 C10.757434,13.4559138 6.09098845,14.9717219 5.16783131,14.7690494 C4.58247525,14.6405387 2.56670418,11.729105 2.90228497,11.5658023 Z" id="Rectangle-4-Copy-5" fill="#9EB4EE" transform="translate(6.937906, 12.531890) scale(-1, 1) rotate(-4.000000) translate(-6.937906, -12.531890) "></path>
            <polygon id="Rectangle-5-Copy-3" fill="#DDDDDD" transform="translate(5.224557, 11.381852) rotate(21.000000) translate(-5.224557, -11.381852) " points="4.92981608 8.94763614 5.41127485 8.94763614 5.35808256 13.816067 4.72455721 13.8083643"></polygon>
            <polygon id="Rectangle-5-Copy-7" fill="#DDDDDD" transform="translate(21.116725, 11.307199) rotate(-7.000000) translate(-21.116725, -11.307199) " points="20.8328527 8.91346857 21.3143115 8.91346857 21.2451991 13.5154949 20.6167248 13.7009293"></polygon>
            <g id="Group-7" transform="translate(19.991094, 9.293455) rotate(-4.000000) translate(-19.991094, -9.293455) translate(14.991094, 6.293455)">
                <path d="M0.477457088,1.81321559 C1.04073502,1.16137717 5.9605071,1.22846032 7.4417231,0.750125478 C7.65263478,0.68201495 9.1753799,3.24655064 8.93917127,3.46811269 C8.7511956,3.64443257 3.31679891,5.35794551 2.43541084,5.15527301 C1.87653973,5.0267623 0.189744668,2.14616315 0.477457088,1.81321559 Z" id="Rectangle-4-Copy" fill="#3157B2"></path>
                <path d="M0.728251064,1.22159819 C2.75979481,0.548033418 6.1133886,0.934420489 7.34138201,0.324929324 C7.86547512,0.324929324 9.26493447,2.81734101 9.02872584,3.03890307 C8.84075017,3.21522294 3.57344462,4.90881545 2.69205656,4.70614295 C2.13318545,4.57763224 0.368732869,1.34079759 0.728251064,1.22159819 Z" id="Rectangle-4-Copy-2" fill="#9EB4EE"></path>
            </g>
            <g id="Group-7-Copy" transform="translate(7.381629, 10.023586) scale(-1, 1) rotate(-4.000000) translate(-7.381629, -10.023586) translate(2.381629, 7.023586)">
                <path d="M0.564789197,1.4947001 C3.23466894,1.16225825 5.9605071,1.22846032 7.4417231,0.750125478 C7.65263478,0.68201495 9.20316147,3.28753888 8.96695284,3.50910094 C8.77897717,3.68542081 3.62897437,5.30854701 2.74758631,5.10587451 C2.1887152,4.97736381 0.150306834,1.54630964 0.564789197,1.4947001 Z" id="Rectangle-4-Copy" fill="#4E55BD"></path>
                <path d="M0.796522541,1.14210958 C3.31120135,1.14210958 6.1133886,0.934420489 7.34138201,0.324929324 C7.86547512,0.324929324 9.26493447,2.81734101 9.02872584,3.03890307 C8.84075017,3.21522294 3.92234458,4.85064611 3.04095652,4.64797361 C2.48208541,4.5194629 0.369704698,1.14210958 0.796522541,1.14210958 Z" id="Rectangle-4-Copy-2" fill="#9EB4EE"></path>
            </g>
            <polygon id="Rectangle-5-Copy-8" fill="#DDDDDD" transform="translate(21.385599, 7.829199) rotate(-7.000000) translate(-21.385599, -7.829199) " points="21.0788762 5.47739647 21.560335 5.47739647 21.4964799 10.0360721 20.8855991 10.1810025"></polygon>
            <g id="Group-8" transform="translate(15.362714, 3.785402)">
                <path d="M0.206746754,2.11169182 C2.50176575,1.77924997 5.02355604,1.27187523 6.29680397,0.793540396 C6.47810289,0.725429868 7.92462359,3.22440483 7.7215795,3.44596689 C7.5599963,3.62228676 3.12599358,5.36762812 2.36835558,5.16495562 C1.887952,5.03644491 -0.14954079,2.16330136 0.206746754,2.11169182 Z" id="Rectangle-4" fill="#3157B2"></path>
                <path d="M0.352312057,1.63812473 C2.51392089,1.63812473 5.15497242,0.977835406 6.21055113,0.368344242 C6.66105968,0.368344242 7.86402989,2.86075593 7.6609858,3.08231798 C7.49940259,3.25863786 3.27155889,4.89406103 2.51392089,4.69138853 C2.0335173,4.56287782 -0.0145790203,1.63812473 0.352312057,1.63812473 Z" id="Rectangle-4" fill="#9EB4EE"></path>
            </g>
            <polygon id="Rectangle-5-Copy-4" fill="#DDDDDD" transform="translate(6.910090, 8.641095) rotate(20.000000) translate(-6.910090, -8.641095) " points="6.67829032 6.19686251 7.15974909 6.19686251 7.12749897 11.0767908 6.4100903 11.0853268"></polygon>
            <polygon id="Rectangle-5-Copy-9" fill="#DDDDDD" transform="translate(21.639105, 5.844193) rotate(-7.000000) translate(-21.639105, -5.844193) " points="21.3026793 4.31927944 21.758552 4.16645981 21.7262884 7.38220858 21.1391047 7.5219262"></polygon>
            <g id="Group-8-Copy" transform="translate(8.141297, 7.379155) scale(-1, 1) rotate(-4.000000) translate(-8.141297, -7.379155) translate(4.141297, 4.379155)">
                <path d="M0.206746754,2.11169182 C2.50176575,1.77924997 5.02355604,1.27187523 6.29680397,0.793540396 C6.47810289,0.725429868 7.92462359,3.22440483 7.7215795,3.44596689 C7.5599963,3.62228676 3.12599358,5.36762812 2.36835558,5.16495562 C1.887952,5.03644491 -0.14954079,2.16330136 0.206746754,2.11169182 Z" id="Rectangle-4" fill="#4E55BD"></path>
                <path d="M0.352312057,1.63812473 C2.51392089,1.63812473 5.15497242,0.977835406 6.21055113,0.368344242 C6.66105968,0.368344242 7.86402989,2.86075593 7.6609858,3.08231798 C7.49940259,3.25863786 3.27155889,4.89406103 2.51392089,4.69138853 C2.0335173,4.56287782 -0.0145790203,1.63812473 0.352312057,1.63812473 Z" id="Rectangle-4" fill="#9EB4EE"></path>
            </g>
            <path d="M19.6778359,7.46756815 C19.6532017,7.21028908 19.879221,6.9847914 20.1826639,6.96390498 C20.4861069,6.94301855 20.7520659,7.13465265 20.7767,7.39193171 L20.896678,8.64498496 C20.9213121,8.90226402 20.6952929,9.12776171 20.39185,9.14864813 C20.088407,9.16953456 19.822448,8.97790046 19.7978139,8.7206214 L19.6778359,7.46756815 Z" id="Path-20" fill="#715439" fill-rule="nonzero" transform="translate(20.287257, 8.056277) rotate(-17.000000) translate(-20.287257, -8.056277) "></path>
            <path d="M7.27663635,8.17950837 C7.25200224,7.9222293 7.47802147,7.69673162 7.78146443,7.6758452 C8.08490738,7.65495877 8.35086638,7.84659286 8.37550048,8.10387193 L8.49547854,9.35692518 C8.52011264,9.61420424 8.29409341,9.83970193 7.99065046,9.86058835 C7.68720751,9.88147478 7.4212485,9.68984068 7.3966144,9.43256162 L7.27663635,8.17950837 Z" id="Path-20-Copy-3" fill="#715439" fill-rule="nonzero" transform="translate(7.886057, 8.768217) scale(-1, 1) rotate(-18.000000) translate(-7.886057, -8.768217) "></path>
            <path d="M18.8036354,10.6644707 C18.7790013,10.404316 19.0050206,10.1762979 19.3084635,10.155178 C19.6119065,10.1340581 19.8778655,10.3278341 19.9024996,10.5879888 L20.0224776,11.8550476 C20.0471117,12.1152023 19.8210925,12.3432204 19.5176496,12.3643402 C19.2142066,12.3854601 18.9482476,12.1916841 18.9236135,11.9315294 L18.8036354,10.6644707 Z" id="Path-20-Copy" fill="#715439" fill-rule="nonzero" transform="translate(19.413057, 11.259759) rotate(-10.000000) translate(-19.413057, -11.259759) "></path>
            <path d="M7.27965905,11.2697743 C7.25502495,11.0096196 7.48104418,10.7816016 7.78448713,10.7604817 C8.08793008,10.7393618 8.35388909,10.9331378 8.37852319,11.1932925 L8.49850124,12.4603512 C8.52313535,12.7205059 8.29711612,12.948524 7.99367316,12.9696439 C7.69023021,12.9907638 7.42427121,12.7969878 7.39963711,12.5368331 L7.27965905,11.2697743 Z" id="Path-20-Copy-4" fill="#715439" fill-rule="nonzero" transform="translate(7.889080, 11.865063) scale(-1, 1) rotate(-11.000000) translate(-7.889080, -11.865063) "></path>
            <path d="M14.9843077,3.75073895 C14.9207909,3.53899099 14.8695693,3.29241401 14.8291015,3.00721404 C14.8070623,2.85189139 14.9151099,2.70811124 15.0704326,2.68607209 C15.2257552,2.66403293 15.3695354,2.77208055 15.3915745,2.9274032 C15.5508196,4.04969525 15.7833868,4.29607361 16.3499517,4.29607361 C17.020222,4.29607361 17.6145757,3.82579186 18.1369981,2.83483928 C18.2101589,2.69606483 18.3819664,2.64287446 18.5207408,2.71603526 C18.6595153,2.78919605 18.7127056,2.96100352 18.6395448,3.09977796 C18.4850364,3.39285592 18.3207359,3.65050317 18.1467075,3.87190595 C19.2058634,4.01872731 19.7048512,3.77375987 19.7732241,3.17598764 C19.7910516,3.02012542 19.9318549,2.90822613 20.0877171,2.92605357 C20.2435793,2.94388102 20.3554786,3.08468431 20.3376512,3.24054653 C20.2139401,4.32213067 19.2656149,4.67988185 17.6701253,4.36719669 C17.2719435,4.69605849 16.831691,4.86418075 16.3499517,4.86418075 C15.8435104,4.86418075 15.4799514,4.70546653 15.2254307,4.30473158 C14.8512724,4.8055613 14.1638768,5.07346819 13.6030762,5.00207847 C13.3617872,4.97136247 13.1566632,4.87808816 12.9885133,4.7274675 C12.1623423,4.90061121 11.5283397,4.85219364 11.1218158,4.58174496 C11.088717,4.62119967 11.0444922,4.6521366 10.9918868,4.66917919 C9.36923313,5.19487036 8.2551517,4.72223798 7.7869352,3.27870568 C7.73853336,3.12948064 7.82026671,2.9692724 7.96949174,2.92087056 C8.11871678,2.87246872 8.27892501,2.95420206 8.32732686,3.1034271 C8.68629145,4.21013091 9.44906223,4.55072468 10.7457256,4.15119261 C10.6494601,3.95437982 10.59983,3.71467052 10.59983,3.43202485 C10.59983,3.2751464 10.7270052,3.14797128 10.8838836,3.14797128 C11.0407621,3.14797128 11.1679372,3.2751464 11.1679372,3.43202485 C11.1679372,4.12926405 11.5987699,4.39144121 12.6377714,4.21619666 C12.5844728,4.09062622 12.5410513,3.95119166 12.5076157,3.7985928 C12.4740389,3.6453497 12.5710477,3.49390226 12.7242908,3.4603255 C12.8775339,3.42674873 13.0289813,3.52375747 13.0625581,3.67700058 C13.1703868,4.16912677 13.3708819,4.39982844 13.6748171,4.43851928 C14.0708864,4.48893876 14.6066296,4.25996851 14.8274723,3.87823668 C14.8637897,3.81546111 14.9204542,3.77179078 14.9843077,3.75073895 Z" id="Combined-Shape" fill="#715439" fill-rule="nonzero"></path>
        </g>
    </g>
</svg>