<?xml version="1.0" encoding="utf-8"?>
<!-- Generator: Adobe Illustrator 23.0.1, SVG Export Plug-In . SVG Version: 6.00 Build 0)  -->
<svg version="1.1" id="Layer_1" xmlns="http://www.w3.org/2000/svg" xmlns:xlink="http://www.w3.org/1999/xlink" x="0px" y="0px"
	 viewBox="0 0 48 48" style="enable-background:new 0 0 48 48;" xml:space="preserve">
<style type="text/css">
	.st0{fill:#294B13;}
	.st1{fill:#F5CD2E;}
</style>
<title>24_Bottom_Lederhosen (LED)</title>
<g>
	<path class="st0" d="M35.7,19.7l0.1-6.8c0-0.2-0.2-0.4-0.4-0.4c0,0,0,0,0,0h-5.7c0,0-1.3-1.7-5.5-1.7H24c-4.2,0-5.5,1.7-5.5,1.7
		h-5.7c-0.2,0-0.4,0.2-0.4,0.4c0,0,0,0,0,0l0.1,6.8c-1.1,3.8-1.9,7.7-2.1,11.7c0,0.2,0.1,0.4,0.2,0.5c2.8,2.5,8.6,2.7,10.3,2.8
		c0.3,0,0.5-0.2,0.6-0.4l2.3-8.1l0.3,0l0.3,0l2.3,8.1c0.1,0.3,0.3,0.4,0.6,0.4c1.6,0,7.4-0.3,10.3-2.8c0.1-0.1,0.2-0.3,0.2-0.5
		C37.6,27.3,36.9,23.4,35.7,19.7z"/>
	<path class="st1" d="M17.5,27.4c-0.4,0-0.8-0.1-1.2-0.2c-0.7-0.3-1.2-0.9-1.5-1.9c-0.5-1.9,0.2-4.9,1.5-6.5c0.7-0.8,1.5-1.5,2.4-2
		l0.4,0.8c-0.8,0.5-1.5,1.1-2.1,1.8c-1.1,1.4-1.8,4.1-1.4,5.8c0.2,0.7,0.5,1.1,1,1.3c0.5,0.2,1.1,0.2,1.7,0c0.9-0.4,1.7-1.4,2.2-2.8
		c0.5-1.5,0.7-3.1,0.6-4.7l0.8-0.1c0.2,1.7,0,3.4-0.6,5.1c-0.6,1.7-1.6,2.8-2.7,3.3C18.3,27.3,17.9,27.4,17.5,27.4z"/>
	<path class="st1" d="M31,27.5c-0.4,0-0.8-0.1-1.2-0.2c-1.1-0.5-2-1.6-2.7-3.3c-0.6-1.6-0.8-3.4-0.6-5.1l0.8,0.1
		c-0.1,1.6,0,3.2,0.6,4.7c0.5,1.4,1.3,2.4,2.2,2.8c0.5,0.2,1.1,0.2,1.7,0c0.5-0.2,0.8-0.6,1-1.3c0.4-1.6-0.2-4.4-1.4-5.8
		c-0.6-0.7-1.3-1.3-2.1-1.8l0.4-0.8c0.9,0.5,1.7,1.2,2.4,2c1.3,1.6,2,4.6,1.5,6.5c-0.2,0.9-0.7,1.6-1.5,1.9
		C31.8,27.5,31.4,27.5,31,27.5z"/>
	<path class="st1" d="M13.7,18.3c-0.7,0-1.2,0-1.2,0l0-0.9c0,0,3.1,0.1,5.6-0.2l0.1,0.8C16.7,18.3,14.9,18.3,13.7,18.3z"/>
	<path class="st1" d="M34.1,18.3c-1.1,0-2.7,0-4.2-0.2l0.1-0.8c1.7,0.1,3.5,0.2,5.2,0.2l0,0.9C35.2,18.3,34.8,18.3,34.1,18.3z"/>
	<path class="st1" d="M24.1,19.6c-3.3,0-5.8-1.6-5.8-3.8s2.4-3.8,5.8-3.8c3.4,0,6,1.7,6,3.8S27.5,19.6,24.1,19.6z M24.1,12.8
		c-2.8,0-4.9,1.3-4.9,3s2.1,3,4.9,3c2.9,0,5.1-1.3,5.1-3S27,12.8,24.1,12.8z"/>
	<path class="st1" d="M27.4,15.2h-1.5c-0.3-0.9-1.2-1.4-2.1-1.1c-0.5,0.2-0.9,0.6-1.1,1.1h-1.6c-0.3,0-0.5,0.2-0.5,0.5
		c0,0.3,0.2,0.5,0.5,0.5h1.5c0.2,0.9,1.1,1.4,2,1.2c0.6-0.1,1.1-0.6,1.2-1.2h1.4c0.3,0,0.5-0.2,0.5-0.5
		C27.8,15.4,27.6,15.2,27.4,15.2z M24.3,16.4c-0.4,0-0.7-0.3-0.7-0.7s0.3-0.7,0.7-0.7s0.7,0.3,0.7,0.7
		C24.9,16.1,24.7,16.4,24.3,16.4z"/>
	<rect x="15.8" y="13.4" class="st1" width="1.2" height="1.3"/>
	<rect x="13.4" y="13.4" class="st1" width="1.2" height="1.3"/>
	<rect x="33.2" y="13.4" class="st1" width="1.2" height="1.3"/>
	<rect x="30.9" y="13.4" class="st1" width="1.2" height="1.3"/>
	<path class="st1" d="M17.6,32c-0.1,0-0.1,0-0.2,0c-5.4-2.2-5.3-6.9-5.3-6.9c0-0.2,0.2-0.4,0.4-0.4h0c0.2,0,0.4,0.2,0.4,0.4
		c0,0.2-0.1,4.1,4.8,6.1c0.2,0.1,0.3,0.3,0.2,0.5C17.9,31.9,17.7,32,17.6,32L17.6,32z"/>
	<path class="st1" d="M15.4,30.2c-1.3,0-2.6-0.2-3.9-0.7c-0.2-0.1-0.3-0.3-0.3-0.5c0.1-0.2,0.3-0.3,0.5-0.3c0,0,0,0,0,0
		c0,0,0,0,0.1,0c0.7,0.3,3.1,1.1,6.6,0.2c0.2-0.1,0.5,0.1,0.5,0.3c0.1,0.2-0.1,0.5-0.3,0.5C17.5,30,16.5,30.1,15.4,30.2z"/>
	<path class="st1" d="M30,32c-0.2,0-0.3-0.1-0.4-0.3c-0.1-0.2,0-0.5,0.2-0.6c4.9-1.9,4.8-5.9,4.8-6.1c0-0.2,0.2-0.4,0.4-0.4l0,0
		c0.2,0,0.4,0.2,0.4,0.4c0,0,0.1,4.7-5.3,6.9C30.1,32,30,32,30,32z"/>
	<path class="st1" d="M36.1,29.5c-1.2,0.5-2.6,0.7-3.9,0.7c-1.1,0-2.1-0.1-3.2-0.4c-0.2-0.1-0.4-0.3-0.3-0.5
		c0.1-0.2,0.3-0.4,0.5-0.3c3.5,0.8,5.9,0,6.6-0.2c0.2-0.1,0.5-0.1,0.6,0.1C36.6,29.3,36.1,29.5,36.1,29.5z"/>
	<path class="st0" d="M11.4,33.6l1.1-2.1L11,30.9l-0.4,2.3l-2.3,3c-0.3,0.4,0.2,0.3,0.2,0.3l1.4-0.4c0.3-0.1,0.6,0,0.8,0.2l0.9,1.1
		c0,0,0.4,0.4,0.4-0.1L11.4,33.6z"/>
	<path class="st0" d="M36.7,33.6l-0.9-2.3l1.3-0.3l0.4,2.3l2.3,3c0.3,0.4-0.2,0.3-0.2,0.3l-1.4-0.4c-0.3-0.1-0.6,0-0.8,0.2l-1,1.1
		c0,0-0.4,0.4-0.4-0.1L36.7,33.6z"/>
</g>
</svg>
