<?xml version="1.0" encoding="utf-8"?>
<!-- Generator: Adobe Illustrator 23.0.1, SVG Export Plug-In . SVG Version: 6.00 Build 0)  -->
<svg version="1.1" id="Layer_1" xmlns="http://www.w3.org/2000/svg" xmlns:xlink="http://www.w3.org/1999/xlink" x="0px" y="0px"
	 viewBox="0 0 48 48" style="enable-background:new 0 0 48 48;" xml:space="preserve">
<style type="text/css">
	.st0{fill:#939393;}
	.st1{clip-path:url(#SVGID_2_);}
	.st2{fill:#CCCCCC;}
</style>
<title>34_Bottom_GermanFootballShorts (GFT)</title>
<g>
	<path d="M36.6,28.2c0.3-2.1-0.2-4.1-0.6-6.5c-0.3-2.1-2.1-3.5-2.1-3.5V14c0-0.5-0.4-0.8-0.8-0.8h-18c-0.5,0-0.8,0.4-0.8,0.8v4.1
		c0,0-1.8,1.4-2.1,3.5c-0.3,2.4-0.9,4.5-0.6,6.5c0.2,1.6-1.3,3.6-1,4.3c0.4,0.8,2.1,3.5,5.8,3.7c4,0.1,5.5-0.3,5.6-0.7
		c0.3-0.8-0.1-2.1,0.4-3.1c0.9-1.7,1.2-3.4,1.2-6c0-1.4,0.4-1.8,0.4-1.8h0.1c0,0,0.4,0.4,0.4,1.8c0,2.6,0.3,4.3,1.2,6
		c0.5,1.1,0.1,2.3,0.4,3.1c0.2,0.4,1.7,0.8,5.7,0.7c3.6-0.1,5.4-2.9,5.8-3.7C37.9,31.8,36.3,29.8,36.6,28.2z"/>
	<path class="st0" d="M32.4,16.9H29c-0.1-0.8-0.1-1.6,0.1-2.4c0.1-0.3,0-0.6-0.3-0.8c-0.3-0.1-0.6,0-0.8,0.3c0,0.1,0,0.2,0,0.2
		c-0.2,0.9-0.3,1.8-0.2,2.6h-3.4v-2.7c0.1-0.3-0.1-0.6-0.4-0.7c-0.3-0.1-0.6,0.1-0.7,0.4c0,0.1,0,0.2,0,0.2v2.7h-3.2
		c0-0.9-0.1-1.8-0.3-2.6c-0.2-0.3-0.5-0.3-0.8-0.2c-0.2,0.1-0.3,0.3-0.3,0.6c0.2,0.7,0.3,1.5,0.2,2.2h-3c-0.3-0.1-0.6,0.1-0.7,0.4
		s0.1,0.6,0.4,0.7c0.1,0,0.2,0,0.2,0h16.3c0.3,0.1,0.6-0.1,0.7-0.4c0.1-0.3-0.1-0.6-0.4-0.7C32.6,16.9,32.5,16.9,32.4,16.9z"/>
	<g>
		<defs>
			<path id="SVGID_1_" d="M36.6,28.2c0.3-2.1-0.2-4.1-0.6-6.5c-0.3-2.1-2.1-3.5-2.1-3.5V14c0-0.5-0.4-0.8-0.8-0.8h-18
				c-0.5,0-0.8,0.4-0.8,0.8v4.1c0,0-1.8,1.4-2.1,3.5c-0.3,2.4-0.9,4.5-0.6,6.5c0.2,1.6-1.3,3.6-1,4.3c0.4,0.8,2.1,3.5,5.8,3.7
				c4,0.1,5.5-0.3,5.6-0.7c0.3-0.8-0.1-2.1,0.4-3.1c0.9-1.7,1.2-3.4,1.2-6c0-1.4,0.4-1.8,0.4-1.8h0.1c0,0,0.4,0.4,0.4,1.8
				c0,2.6,0.3,4.3,1.2,6c0.5,1.1,0.1,2.3,0.4,3.1c0.2,0.4,1.7,0.8,5.7,0.7c3.6-0.1,5.4-2.9,5.8-3.7C37.9,31.8,36.3,29.8,36.6,28.2z"
				/>
		</defs>
		<clipPath id="SVGID_2_">
			<use xlink:href="#SVGID_1_"  style="overflow:visible;"/>
		</clipPath>
		<g class="st1">
			<path class="st2" d="M11.2,34.5l-0.7-0.9c1.2-0.9,1.8-2.4,1.8-3.8c0-0.4,0-0.9-0.1-1.4c-0.1-0.8-0.1-1.7-0.1-2.5
				c0.1-1.3,0.3-2.5,0.5-3.7c0.3-1.6,1.8-3.1,2.4-3.8c0.1-0.1,0.1-0.2,0.1-0.3l0-5.4h1.1l0,5.4c0,0.4-0.1,0.8-0.4,1.1
				c-0.6,0.6-1.9,2-2.2,3.3c-0.2,1.2-0.4,2.3-0.5,3.5c0,0.8,0,1.6,0.1,2.4c0,0.5,0.1,1,0.1,1.4C13.5,31.6,12.7,33.3,11.2,34.5z"/>
			<path class="st2" d="M37.1,34.5c-1.4-1.2-2.3-2.9-2.3-4.7c0-0.5,0-0.9,0.1-1.4c0.1-0.8,0.1-1.6,0.1-2.4c-0.1-1.2-0.2-2.4-0.5-3.5
				c-0.3-1.3-1.6-2.7-2.1-3.3c-0.3-0.3-0.4-0.7-0.4-1.1l0-5.4H33l0,5.4c0,0.1,0,0.2,0.1,0.3c0.6,0.7,2.1,2.3,2.4,3.8
				c0.3,1.2,0.4,2.5,0.5,3.7c0,0.8,0,1.7-0.1,2.5c0,0.5-0.1,0.9-0.1,1.4c0,1.5,0.7,2.9,1.8,3.8L37.1,34.5z"/>
		</g>
	</g>
</g>
</svg>
