<?xml version="1.0" encoding="UTF-8"?>
<svg width="48px" height="48px" viewBox="0 0 48 48" version="1.1" xmlns="http://www.w3.org/2000/svg" xmlns:xlink="http://www.w3.org/1999/xlink">
    <!-- Generator: Sketch 51.3 (57544) - http://www.bohemiancoding.com/sketch -->
    <title>bottom-overalls</title>
    <desc>Created with Sketch.</desc>
    <defs></defs>
    <g id="SVGs" stroke="none" stroke-width="1" fill="none" fill-rule="evenodd">
        <g id="Slices" transform="translate(-177.000000, -177.000000)"></g>
        <g id="Group-12" transform="translate(14.000000, 10.000000)" fill-rule="nonzero">
            <path d="M9.39689773,11.9389526 L6.27104502,27.1470857 L0.933899914,25.6244007 L3.51703725,0.666529077 L17.1301656,0.666529077 L19.6765942,25.6244007 L14.3394491,27.1470857 L11.2135964,11.9389526 C11.124973,11.5077754 10.7454378,11.1983152 10.305247,11.1983152 L10.305247,11.1983152 C9.86505629,11.1983152 9.48552113,11.5077754 9.39689773,11.9389526 Z" id="Combined-Shape" stroke="#2643A9" stroke-width="0.771552" fill="#2643A9" stroke-linejoin="round"></path>
            <path d="M13.9306677,24.595393 L20.3091813,24.595393 L20.3091813,26.8481143 C20.3091813,27.367262 19.888329,27.7881143 19.3691813,27.7881143 L14.8706677,27.7881143 C14.3515201,27.7881143 13.9306677,27.367262 13.9306677,26.8481143 L13.9306677,24.595393 Z" id="Rectangle-10" stroke="#94A7EF" stroke-width="0.6558192" fill="#94A7EF" stroke-linecap="round" stroke-linejoin="round" transform="translate(17.119925, 26.191754) scale(-1, 1) rotate(-349.000000) translate(-17.119925, -26.191754) "></path>
            <path d="M0.305090055,24.595393 L6.68360366,24.595393 L6.68360366,26.8481143 C6.68360366,27.367262 6.26275132,27.7881143 5.74360366,27.7881143 L1.24509005,27.7881143 C0.72594239,27.7881143 0.305090055,27.367262 0.305090055,26.8481143 L0.305090055,24.595393 Z" id="Rectangle-10" stroke="#94A7EF" stroke-width="0.6558192" fill="#94A7EF" stroke-linecap="round" stroke-linejoin="round" transform="translate(3.494347, 26.191754) rotate(-349.000000) translate(-3.494347, -26.191754) "></path>
            <path d="M3.08167592,2.97193251 C12.7412972,2.97193251 17.5711078,2.97193251 17.5711078,2.97193251" id="Line-4" stroke="#2F56CE" stroke-width="0.5400864" stroke-linecap="round"></path>
            <path d="M9.88937214,2.8325373 L9.88937214,10.5148711 C10.9938305,9.9821638 11.5460596,9.2087925 11.5460596,8.19475717 C11.5460596,7.18072184 11.5460596,4.54710533 11.5460596,0.293907641" id="Path-10" stroke="#2F56CE" stroke-width="0.5400864" stroke-linejoin="round"></path>
            <path d="M4.89915438,2.56451482 L4.89915438,0.559951877" id="Line-5" stroke="#2F56CE" stroke-width="0.5400864" stroke-linecap="square"></path>
            <path d="M14.3638418,2.56451482 L14.3638418,0.553619875" id="Line-5-Copy-2" stroke="#2F56CE" stroke-width="0.5400864" stroke-linecap="square"></path>
            <path d="M6.12615706,2.56451482 L6.12615706,0.55408699" id="Line-5-Copy" stroke="#2F56CE" stroke-width="0.5400864" stroke-linecap="square"></path>
            <path d="M15.5908444,2.56451482 L15.5908444,0.570643618" id="Line-5-Copy-3" stroke="#2F56CE" stroke-width="0.5400864" stroke-linecap="square"></path>
            <path d="M2.62010775,5.60156668 C4.05169793,5.65744069 5.07994325,5.45484763 5.70484372,4.99378751 C6.32974419,4.53272738 6.67655043,3.7937571 6.74526243,2.77687666" id="Path-13" stroke="#2F56CE" stroke-width="0.5400864"></path>
            <path d="M13.8909165,5.60156668 C15.3225067,5.65744069 16.350752,5.45484763 16.9756525,4.99378751 C17.6005529,4.53272738 17.9473592,3.7937571 18.0160712,2.77687666" id="Path-13" stroke="#2F56CE" stroke-width="0.5400864" transform="translate(15.953494, 4.193751) scale(-1, 1) translate(-15.953494, -4.193751) "></path>
            <path d="M10.4740956,1.99738975 C10.7160208,1.99738975 10.91214,1.80495702 10.91214,1.56757922 C10.91214,1.33020142 10.7160208,1.13776869 10.4740956,1.13776869 C10.2321703,1.13776869 10.0360511,1.33020142 10.0360511,1.56757922 C10.0360511,1.80495702 10.2321703,1.99738975 10.4740956,1.99738975 Z" id="Oval-6" stroke="#FFC550" stroke-width="0.5" fill="#FFC550"></path>
            <path d="M14.9217012,3.88314392 C14.9816984,3.88314392 15.0303357,3.83450659 15.0303357,3.7745094 C15.0303357,3.71451221 14.9816984,3.66587488 14.9217012,3.66587488 C14.861704,3.66587488 14.8130667,3.71451221 14.8130667,3.7745094 C14.8130667,3.83450659 14.861704,3.88314392 14.9217012,3.88314392 Z" id="Oval-6-Copy" stroke="#FFC550" stroke-width="0.5" fill="#FFC550"></path>
            <path d="M5.73045536,3.88314392 C5.79045255,3.88314392 5.83908988,3.83450659 5.83908988,3.7745094 C5.83908988,3.71451221 5.79045255,3.66587488 5.73045536,3.66587488 C5.67045817,3.66587488 5.62182084,3.71451221 5.62182084,3.7745094 C5.62182084,3.83450659 5.67045817,3.88314392 5.73045536,3.88314392 Z" id="Oval-6-Copy-2" stroke="#FFC550" stroke-width="0.5" fill="#FFC550"></path>
        </g>
    </g>
</svg>