<?xml version="1.0" encoding="UTF-8"?>
<svg width="48px" height="48px" viewBox="0 0 48 48" version="1.1" xmlns="http://www.w3.org/2000/svg" xmlns:xlink="http://www.w3.org/1999/xlink">
    <!-- Generator: Sketch 51.3 (57544) - http://www.bohemiancoding.com/sketch -->
    <title>bottom-firefighter-pants</title>
    <desc>Created with Sketch.</desc>
    <defs></defs>
    <g id="SVGs" stroke="none" stroke-width="1" fill="none" fill-rule="evenodd">
        <g id="Slices" transform="translate(-413.000000, -236.000000)"></g>
        <g id="Group-53" transform="translate(13.000000, 9.212077)" fill-rule="nonzero">
            <polygon id="Combined-Shape" stroke="#091426" fill="#091426" stroke-linejoin="round" points="5.82395142 9.84001197 15.9711379 9.84001197 21.77955 27.7921816 15.5563079 30.468848 11.4183047 15.7580267 10.5488141 15.7580267 6.29260888 30.468848 0.12916363 27.7921816"></polygon>
            <rect id="Rectangle-54" stroke="#D7241C" fill="#D7241C" stroke-linejoin="round" x="7.30566438" y="0.239835789" width="1.61267662" height="7.11340325"></rect>
            <rect id="Rectangle-54-Copy" stroke="#D7241C" fill="#D7241C" stroke-linejoin="round" x="12.610949" y="0.239835789" width="1.61267662" height="7.11340325"></rect>
            <polyline id="Path-131" stroke="#979797" stroke-linecap="round" stroke-linejoin="round" points="6.43023103 11.2978286 8.29392102 8.80616428 8.29392102 11.6205585"></polyline>
            <polyline id="Path-131" stroke="#979797" stroke-linecap="round" stroke-linejoin="round" transform="translate(14.167214, 10.213361) scale(-1, 1) translate(-14.167214, -10.213361) " points="13.235369 11.2978286 15.099059 8.80616428 15.099059 11.6205585"></polyline>
            <polygon id="Triangle-4" stroke="#828E85" fill="#828E85" stroke-linejoin="round" transform="translate(8.112003, 8.473402) scale(-1, -1) translate(-8.112003, -8.473402) " points="8.11200269 7.48974737 9.79377435 9.45705586 6.43023103 9.45705586"></polygon>
            <polygon id="Triangle-4-Copy" stroke="#828E85" fill="#828E85" stroke-linejoin="round" transform="translate(13.417287, 8.473402) scale(-1, -1) translate(-13.417287, -8.473402) " points="13.4172873 7.48974737 15.099059 9.45705586 11.7355157 9.45705586"></polygon>
            <polygon id="Path-132" stroke="#98A611" fill="#98A611" stroke-linejoin="round" points="1.12710889 24.3406611 0.0155393387 27.7842786 6.34698957 30.6526276 7.23774396 27.2344888"></polygon>
            <path d="M0.52627663,25.8436924 L6.8907651,28.9239478" id="Line-38" stroke="#6D6B43" stroke-linecap="round"></path>
            <polygon id="Path-132" stroke="#98A611" fill="#98A611" stroke-linejoin="round" transform="translate(18.233610, 27.496644) scale(-1, 1) translate(-18.233610, -27.496644) " points="15.7340777 24.3406611 14.6225081 27.7842786 20.9539584 30.6526276 21.8447127 27.2344888"></polygon>
            <path d="M15.0513662,25.9565166 L21.4158547,29.036772" id="Line-38" stroke="#6D6B43" stroke-linecap="round" transform="translate(18.233610, 27.496644) scale(-1, 1) translate(-18.233610, -27.496644) "></path>
            <polygon id="Path-133" stroke="#2E2C27" fill="#2E2C27" stroke-linejoin="round" points="4.33881171 19.62397 3.17253211 23.4049139 5.85534295 24.4563179 7.0806829 20.3655776"></polygon>
            <polygon id="Path-133" stroke="#2E2C27" fill="#2E2C27" stroke-linejoin="round" transform="translate(16.279535, 22.040144) scale(-1, 1) translate(-16.279535, -22.040144) " points="15.4917392 19.62397 14.3254596 23.4049139 17.0082705 24.4563179 18.2336104 20.3655776"></polygon>
            <path d="M10.8975447,11.3292915 C11.1305108,11.3292915 11.3193672,11.1404351 11.3193672,10.9074689 C11.3193672,10.6745027 11.1305108,10.4856463 10.8975447,10.4856463 C10.6645785,10.4856463 10.4757221,10.6745027 10.4757221,10.9074689 C10.4757221,11.1404351 10.6645785,11.3292915 10.8975447,11.3292915 Z" id="Oval-6" stroke="#8F94A8" stroke-width="0.5632" fill="#8F94A8"></path>
        </g>
    </g>
</svg>