<?xml version="1.0" encoding="utf-8"?>
<!-- Generator: Adobe Illustrator 23.0.1, SVG Export Plug-In . SVG Version: 6.00 Build 0)  -->
<svg version="1.1" id="Layer_1" xmlns="http://www.w3.org/2000/svg" xmlns:xlink="http://www.w3.org/1999/xlink" x="0px" y="0px"
	 viewBox="0 0 48 48" style="enable-background:new 0 0 48 48;" xml:space="preserve">
<style type="text/css">
	.st0{fill:#323232;}
	.st1{fill:#3AB99D;}
	.st2{fill:#FFFFFF;}
</style>
<title>25_Bottom_Dirndl (DRN)</title>
<g>
	<path class="st0" d="M30.3,14.5l-5.7-0.3v-0.1l-0.6,0l-0.6,0v0.1l-5.7,0.3c0,0-6.2,8.2-6.9,18.3c0,0.5,0.3,1,0.8,1.2
		c0.7,0.2,2,0.4,4.1,0.2c0,0,0.1,2.6,5.1,2.3c0,0-0.2,0.8,2.5,1c0.2,0,0.3,0,0.5,0c0.2,0,0.6,0,0.6,0c2.8-0.2,2.5-1,2.5-1
		c5,0.3,5.1-2.3,5.1-2.3c2.2,0.2,3.4,0,4.1-0.2c0.5-0.2,0.8-0.7,0.8-1.2C36.5,22.7,30.3,14.5,30.3,14.5z"/>
	<path class="st1" d="M29,15.1h1.4c0.3,0,0.5-0.2,0.5-0.5V12c0-0.3-0.2-0.5-0.5-0.5H17.9c-0.3,0-0.5,0.2-0.5,0.5v2.6
		c0,0.3,0.2,0.5,0.5,0.5h1.3c-0.8,1.8-3.1,7.6-2.9,14.2c0,0.7,0.3,1.3,0.8,1.7c0.9,0.8,3.1,1.8,6.7,1.9c0,0,0.1,0,0.2,0s0.2,0,0.2,0
		c3.7-0.1,5.8-1.1,6.7-1.9c0.5-0.4,0.8-1.1,0.8-1.7C32.1,22.7,29.8,16.9,29,15.1z"/>
	<path class="st2" d="M30.8,14.4c-5.7,0.3-13.3,0-13.3,0c-0.3,0-0.5,0.2-0.5,0.4c0,0,0,0,0,0.1c0,0.3,0.2,0.5,0.4,0.5c0,0,0,0,0,0
		c0,0,1.9,0,3.2,0.1c-0.3,0.8-0.4,1.7-0.4,2.6c0,0.3,0.2,0.5,0.5,0.5h0c0.3,0,0.5-0.3,0.5-0.5c0-0.8,0.1-1.7,0.5-2.4
		c0.6,0,1.3,0,2.1,0c0.1,0.8,0.1,1.6,0,2.3c0,0.3,0.2,0.5,0.4,0.6c0,0,0,0,0,0h0c0.3,0,0.5-0.2,0.5-0.4c0.1-0.8,0.1-1.6,0-2.4
		c0.6,0,1.3,0,1.9,0c0.3,0.7,0.4,1.5,0.3,2.3c0,0.3,0.2,0.5,0.4,0.6c0,0,0,0,0,0h0.1c0.3,0,0.5-0.2,0.5-0.4c0.1-0.8,0-1.6-0.3-2.4
		c0.7,0,2.3-0.1,3.1-0.1c0.3,0,0.4-0.2,0.4-0.5c0,0,0,0,0-0.1C31.3,14.6,31.1,14.4,30.8,14.4z"/>
</g>
</svg>
