<?xml version="1.0" encoding="UTF-8"?>
<svg width="48px" height="48px" viewBox="0 0 48 48" version="1.1" xmlns="http://www.w3.org/2000/svg" xmlns:xlink="http://www.w3.org/1999/xlink">
    <!-- Generator: Sketch 51.3 (57544) - http://www.bohemiancoding.com/sketch -->
    <title>bottom-soccershorts</title>
    <desc>Created with Sketch.</desc>
    <defs></defs>
    <g id="SVGs" stroke="none" stroke-width="1" fill="none" fill-rule="evenodd">
        <g id="Slices" transform="translate(-295.000000, -177.000000)"></g>
        <g id="Group-16-Copy-2" transform="translate(10.000000, 13.000000)" fill-rule="nonzero">
            <path d="M13.4678549,14.428144 L12.1556289,22.1635667 L5.12468499,22.1635667 C2.12947619,22.1635667 0.319761594,18.8330186 0.319761594,17.1371039 C0.319761594,16.0064942 0.91187287,15.0659184 2.09609542,14.3153767 L2.09609542,8.85808764 C2.09609542,6.87232459 3.10562528,5.20565782 5.12468499,3.85808732 C4.59854048,3.65226868 4.33546822,2.93917671 4.33546822,1.71881142 C4.33546822,0.49844613 5.04384917,0.278656579 6.57809294,0.153927385 L21.2260497,0.153927385 C22.7602934,0.278656579 23.5861562,0.49844613 23.5861562,1.71881142 C23.5861562,2.93917671 23.323084,3.65226868 22.7969395,3.85808732 C24.8159992,5.20565782 25.825529,6.87232459 25.825529,8.85808764 L25.825529,14.3153767 C27.0097516,15.0659184 27.6018629,16.0064942 27.6018629,17.1371039 C27.6018629,18.8330186 25.7921483,22.1635667 22.7969395,22.1635667 L15.7659956,22.1635667 L14.4537696,14.428144 C14.407585,14.1558912 14.1494405,13.9726267 13.8771877,14.0188113 C13.6676004,14.0543653 13.503409,14.2185568 13.4678549,14.428144 Z" id="Combined-Shape-Copy" stroke="#D22524" stroke-width="0.86184" fill="#D22524" stroke-linecap="round" stroke-linejoin="round"></path>
            <path d="M4.22321732,3.59606174 L23.9197542,3.59606174" id="Path-27" stroke="#8D1512" stroke-width="0.603288"></path>
            <path d="M8.70895012,0.0381563481 L8.70895012,3.57585984" id="Line-10" stroke="#8D1512" stroke-width="0.603288" stroke-linecap="round" stroke-linejoin="round"></path>
            <path d="M12.0702536,0.0381563481 L12.0702536,3.57585984" id="Line-10-Copy" stroke="#8D1512" stroke-width="0.603288" stroke-linecap="round" stroke-linejoin="round"></path>
            <path d="M15.8377184,0.0381563481 L15.8377184,3.57585984" id="Line-10-Copy-2" stroke="#8D1512" stroke-width="0.603288" stroke-linecap="round" stroke-linejoin="round"></path>
            <path d="M19.2126743,0.0381563481 L19.2126743,3.57585984" id="Line-10-Copy-3" stroke="#8D1512" stroke-width="0.603288" stroke-linecap="round" stroke-linejoin="round"></path>
            <path d="M12.0723004,22.1635667 L5.33514285,22.1635667 C2.33993404,22.1635667 0.530219446,18.8330186 0.530219446,17.1371039 C0.530219446,16.0064942 1.12233072,15.0659184 2.30655327,14.3153767 L2.30655327,8.85808764 C2.30655327,4.3994728 3.81241343,5.39405067 4.4591294,3.78837403 C3.81241343,2.66618627 3.81241343,1.64076122 4.4591294,0.427655476" id="Combined-Shape-Copy" stroke="#D8D8D8" stroke-width="1.50822" stroke-linecap="round" stroke-linejoin="round"></path>
            <path d="M27.3359167,22.1635667 L20.598759,22.1635667 C17.6035502,22.1635667 15.7938357,18.8330186 15.7938357,17.1371039 C15.7938357,16.0064942 16.3859469,15.0659184 17.5701695,14.3153767 L17.5701695,8.85808764 C17.5701695,4.3994728 19.0760296,5.39405067 19.7227456,3.78837403 C19.0760296,2.66618627 19.0760296,1.64076122 19.7227456,0.427655476" id="Combined-Shape-Copy" stroke="#D8D8D8" stroke-width="1.50822" stroke-linecap="round" stroke-linejoin="round" transform="translate(21.564876, 11.295611) scale(-1, 1) translate(-21.564876, -11.295611) "></path>
        </g>
    </g>
</svg>