<?xml version="1.0" encoding="UTF-8"?>
<svg width="48px" height="48px" viewBox="0 0 48 48" version="1.1" xmlns="http://www.w3.org/2000/svg" xmlns:xlink="http://www.w3.org/1999/xlink">
    <!-- Generator: Sketch 51.3 (57544) - http://www.bohemiancoding.com/sketch -->
    <title>bottom-bunnysuit</title>
    <desc>Created with Sketch.</desc>
    <defs></defs>
    <g id="SVGs" stroke="none" stroke-width="1" fill="none" fill-rule="evenodd">
        <g id="Slices" transform="translate(-295.000000, -236.000000)"></g>
        <g id="Group-17" transform="translate(10.000000, 11.212077)" fill-rule="nonzero">
            <path d="M7.48113093,0 L18.8905782,0 L18.8905782,2.36896294 C19.8468002,5.94032732 20.600027,8.16211139 21.1502586,9.03431513 C21.975606,10.3426207 25.1967963,14.8368642 24.313723,17.9403996 C25.8520507,18.7701535 26.2869881,19.0760706 25.8140081,20.6525397 C26.4535525,21.5926072 26.6548833,23.0162614 25.8140081,23.2849643 C25.2534246,23.4640996 22.7215672,24.532364 18.2184359,26.4897576 C17.5444525,26.1229754 17.2074608,25.5839327 17.2074608,24.8726294 C16.314927,24.8726294 15.2354012,24.1018762 15.7751641,22.6081 C14.9712159,22.1518157 14.3079046,22.1997423 14.3079046,20.93401 L14.3079046,14.7656276 C14.3079046,14.5301851 13.9338879,13.2179012 13.1858545,10.8287759 C12.4378212,13.2179012 12.0638045,14.5301851 12.0638045,14.7656276 L12.0638045,20.93401 C12.0638045,22.1997423 11.4004932,22.1518157 10.596545,22.6081 C11.1363079,24.1018762 10.0567821,24.8726294 9.16424834,24.8726294 C9.16424834,25.5839327 8.82725661,26.1229754 8.15327316,26.4897576 C3.65014186,24.532364 1.11828447,23.4640996 0.557700995,23.2849643 C-0.283174217,23.0162614 -0.0818434312,21.5926072 0.557700995,20.6525397 C0.0847209649,19.0760706 0.51965837,18.7701535 2.05798605,17.9403996 C1.17491281,14.8368642 4.39610312,10.3426207 5.22145051,9.03431513 C5.7716821,8.16211139 6.52490891,5.94032732 7.48113093,2.36896294 L7.48113093,0 Z" id="Combined-Shape" stroke="#F3A3F0" fill="#F3A3F0"></path>
            <path d="M12.8693669,1.25561362 C12.8276045,1.25561362 12.7858603,1.25735772 12.7442434,1.26084135 C11.9187035,1.32994513 11.3054909,2.05519715 11.3745946,2.88073708 L12.0164657,10.5487715 C12.0654753,11.1342592 12.5549851,11.5845055 13.1425205,11.5845055 C13.7337137,11.5845055 14.2276115,11.134221 14.2821115,10.5455452 L14.9905071,2.89389337 C14.994763,2.84792298 14.9968944,2.8017806 14.9968944,2.75561362 C14.9968944,1.92718649 14.3253215,1.25561362 13.4968944,1.25561362 L12.8693669,1.25561362 Z" id="Rectangle-50" stroke="#AD98EF" fill="#AD98EF"></path>
            <path d="M14.4703204,1.47750692 C14.8373303,1.71804793 15.1702177,2.04578909 15.2918626,2.7092734 C15.3751605,3.16360294 15.2014091,4.14722261 14.4703204,4.2288341 C12.6715795,4.42962766 12.4331335,2.33087325 11.7895347,3.36925518 C11.5919138,3.68809678 11.4991577,4.3712983 11.4075989,4.98550195 C11.2973078,5.72536767 11.5882348,6.17394596 12.1304829,6.17394596 C13.1228814,6.17394596 13.7113734,5.16577806 14.4703204,5.89236433 C14.7980945,6.20616253 14.7455964,6.74466991 14.7833998,7.36967454 C14.8331284,8.19184131 14.6703848,9.07403642 14.2688444,8.89741483 C14.0353552,8.79471223 12.2348388,7.66440048 11.7895347,8.21826038 C11.7101944,8.31694219 11.6584501,8.85087421 11.7895347,9.601401 C11.8528027,9.96364235 12.0294361,10.9683834 12.4232,10.6049495 C12.816964,10.2415155 14.61881,9.96364235 14.4703204,10.6049495 C14.3218307,11.2462566 14.0258048,11.5241294 13.3477193,11.8094195" id="Path-127" stroke="#8F79C7" stroke-linecap="round" stroke-linejoin="round"></path>
        </g>
    </g>
</svg>