<?xml version="1.0" encoding="utf-8"?>
<!-- Generator: Adobe Illustrator 22.1.0, SVG Export Plug-In . SVG Version: 6.00 Build 0)  -->
<svg version="1.1" id="Layer_1" xmlns="http://www.w3.org/2000/svg" xmlns:xlink="http://www.w3.org/1999/xlink" x="0px" y="0px"
	 viewBox="0 0 48 48" style="enable-background:new 0 0 48 48;" xml:space="preserve">
<style type="text/css">
	.st0{fill:#373740;stroke:#373740;stroke-width:0.7716;stroke-linejoin:round;}
	.st1{fill:none;stroke:#1A1A1C;stroke-width:0.5401;stroke-linecap:round;}
	.st2{fill:none;stroke:#1A1A1C;stroke-width:0.5401;stroke-linecap:round;stroke-linejoin:round;}
	.st3{fill:none;stroke:#1A1A1C;stroke-width:0.5401;stroke-linecap:square;}
	.st4{fill:none;stroke:#1A1A1C;stroke-width:0.5401;}
</style>
<title>bottom-businesssuitpants</title>
<desc>Created with Sketch.</desc>
<g id="SVGs">
	<g id="Slices" transform="translate(-413.000000, -177.000000)">
	</g>
	<g id="Group-13" transform="translate(14.000000, 10.000000)">
		<path id="Combined-Shape" class="st0" d="M9.7,10L6.1,28.3l-5.5-1L3.2,0.3h14l2.6,26.9l-5.5,1L10.7,10c0-0.2-0.3-0.4-0.5-0.4l0,0
			C10,9.6,9.8,9.8,9.7,10z"/>
		<path id="Line-6" class="st1" d="M4.4,19.3l-1.1,7.3"/>
		<path id="Line-6_1_" class="st1" d="M5.9,9.3L5,15.2"/>
		<path id="Line-6_2_" class="st1" d="M15.7,19.3l1.1,7.3"/>
		<path id="Line-6_3_" class="st1" d="M14.3,9.4c0,0,0.3,1.9,1,5.8"/>
		<path id="Line-4" class="st1" d="M2.8,2.2c9.9,0,14.9,0,14.9,0"/>
		<path id="Path-10" class="st2" d="M9.8,2.3v7.1c1.1-0.5,1.7-1.3,1.7-2.3s0-3.3,0-6.9"/>
		<path id="Line-5" class="st3" d="M4.9,1.9V0.2"/>
		<path id="Line-5-Copy-5" class="st3" d="M15.5,1.9V0.2"/>
		<path id="Line-5-Copy-4" class="st3" d="M8.1,1.9V0.2"/>
		<path id="Line-5-Copy-6" class="st3" d="M13.3,2V0.3"/>
		<path id="Path-19" class="st4" d="M4.7,2.2c0,1.9-0.1,3.2-0.4,3.8C3.9,6.9,3.1,7.3,2.1,7.3"/>
		<path id="Path-19_1_" class="st4" d="M15.7,2.2c0,1.9,0.1,3.2,0.4,3.8c0.4,0.9,1.2,1.3,2.1,1.3"/>
	</g>
</g>
</svg>
