<?xml version="1.0" encoding="utf-8"?>
<!-- Generator: Adobe Illustrator 23.0.1, SVG Export Plug-In . SVG Version: 6.00 Build 0)  -->
<svg version="1.1" id="Layer_1" xmlns="http://www.w3.org/2000/svg" xmlns:xlink="http://www.w3.org/1999/xlink" x="0px" y="0px"
	 viewBox="0 0 48 48" style="enable-background:new 0 0 48 48;" xml:space="preserve">
<style type="text/css">
	.st0{clip-path:url(#SVGID_2_);}
	.st1{fill:#951918;}
	.st2{fill:#D42E2D;}
	.st3{fill:#DDDDDD;}
	.st4{fill:#FDA9A9;}
</style>
<title>38_Bottom_Yogapants</title>
<g>
	<g>
		<defs>
			<path id="SVGID_1_" d="M31.4,15.3v-3.7c0-0.4-0.3-0.6-0.6-0.6H18.4c-0.4,0-0.6,0.3-0.6,0.6v3.7c0,3.1-0.2,6.1-0.6,9.2L15.6,36
				c0,0.3,0.2,0.6,0.5,0.6l1.2,0.2l2.5,0.1l0.8,0c0.3,0,0.5-0.2,0.5-0.5c0.2-2,1.4-9.8,1.8-11.1c0.4-1.4,1.6-4.6,1.6-5
				c0,0,0-0.1,0-0.1c0,0,0,0.1,0,0.1c0,0.3,1.2,3.6,1.6,5c0.4,1.2,1.6,9,1.9,11.1c0,0.3,0.3,0.5,0.5,0.5l0.6,0l2.6-0.1l1.2-0.2
				c0.3,0,0.5-0.3,0.5-0.6L32,24.4C31.6,21.4,31.4,18.3,31.4,15.3z"/>
		</defs>
		<clipPath id="SVGID_2_">
			<use xlink:href="#SVGID_1_"  style="overflow:visible;"/>
		</clipPath>
		<g class="st0">
			<path class="st1" d="M31.4,19.9v-8.3c0-0.4-0.3-0.6-0.6-0.6H18.4c-0.4,0-0.6,0.3-0.6,0.6v8.3L15.6,36c0,0.3,0.2,0.6,0.5,0.6
				l1.2,0.2l2.5,0.1l0.8,0c0.3,0,0.5-0.2,0.5-0.5c0.2-2,1.4-9.8,1.8-11.1c0.4-1.4,1.6-4.6,1.6-5c0,0,0-0.1,0-0.1c0,0,0,0.1,0,0.1
				c0,0.3,1.2,3.6,1.6,5c0.4,1.2,1.6,9,1.9,11.1c0,0.3,0.3,0.5,0.5,0.5l0.8,0l2.3-0.1l1.4-0.2c0.3,0,0.5-0.3,0.5-0.6L31.4,19.9z"/>
			<path class="st2" d="M31.4,15.3v-3.7c0-0.4-0.3-0.6-0.6-0.6H18.4c-0.4,0-0.6,0.3-0.6,0.6v3.7c0,3.1-0.2,6.1-0.6,9.2L15.6,36
				c0,0.3,0.2,0.6,0.5,0.6l1.2,0.2l2.5,0.1l0.8,0c0.3,0,0.5-0.2,0.5-0.5c0.2-2,1.4-9.8,1.8-11.1c0.4-1.4,1.6-4.6,1.6-5
				c0,0,0-0.1,0-0.1c0,0,0,0.1,0,0.1c0,0.3,1.2,3.6,1.6,5c0.4,1.2,1.6,9,1.9,11.1c0,0.3,0.3,0.5,0.5,0.5l0.6,0l2.6-0.1l1.2-0.2
				c0.3,0,0.5-0.3,0.5-0.6L32,24.4C31.6,21.4,31.4,18.3,31.4,15.3z"/>
			<path class="st3" d="M16.8,21.4l-1.3,11.9c0,0,1.7-1,1.9-1.8c0.1-0.6,0.4-4.8,0.6-7c0.1-0.8-0.2-1.6-0.6-2.3L16.8,21.4z"/>
			<path class="st3" d="M32.2,21.4l1.3,11.9c0,0-1.7-1-1.9-1.8c-0.1-0.6-0.4-4.8-0.6-7c-0.1-0.8,0.2-1.6,0.6-2.3L32.2,21.4z"/>
			<path class="st3" d="M24.1,23.4l-2.3,10.4c0,0-1.3-1.4-1.2-2.1c0-0.6,1-4.2,1.5-6c0.2-0.7,0.6-1.3,1.2-1.7L24.1,23.4z"/>
			<path class="st3" d="M25.2,23.4l2.3,10.4c0,0,1.3-1.4,1.2-2.1c0-0.6-1-4.2-1.5-6c-0.2-0.7-0.6-1.3-1.2-1.7L25.2,23.4z"/>
			<circle class="st4" cx="20.3" cy="17.8" r="1.2"/>
			<circle class="st3" cx="20.3" cy="17.8" r="0.7"/>
			<path class="st4" d="M17.4,9.9h13.8c0.4,0,0.6,0.3,0.6,0.6c0,0,0,0,0,0v4l0,0H16.8l0,0v-4C16.8,10.2,17.1,9.9,17.4,9.9L17.4,9.9z
				"/>
		</g>
	</g>
</g>
</svg>
