<?xml version="1.0" encoding="UTF-8"?>
<svg width="48px" height="48px" viewBox="0 0 48 48" version="1.1" xmlns="http://www.w3.org/2000/svg" xmlns:xlink="http://www.w3.org/1999/xlink">
    <!-- Generator: Sketch 51.3 (57544) - http://www.bohemiancoding.com/sketch -->
    <title>facialhair-goatee</title>
    <desc>Created with Sketch.</desc>
    <defs></defs>
    <g id="SVGs" stroke="none" stroke-width="1" fill="none" fill-rule="evenodd">
        <g id="Slices" transform="translate(-413.000000, -532.000000)"></g>
        <g id="Group-152" transform="translate(12.000000, 14.000000)" fill-rule="nonzero">
            <path d="M11.5375977,18.4928705 C17.5152679,18.4928705 22.3611271,15.7264183 22.3611271,11.0469245 C22.3611271,9.68530558 21.9508434,8.31174756 21.2217754,7.04848241 C21.7311512,5.07118682 22.3410543,1.13462298 21.0847544,0.284453549 C19.4011312,-0.854896218 16.4295521,1.75961389 15.5929417,2.31067579 C14.3404785,1.8243407 12.9716055,1.54692452 11.5375977,1.54692452 C10.1289282,1.54692452 8.78311202,1.81462364 7.54875396,2.28509179 C6.63935164,1.76324961 3.98016823,-0.565577397 2.29853953,0.164976405 C0.531549534,0.932613916 1.51926454,5.58250636 1.91281999,6.94699097 C1.14667462,8.23799612 0.714068244,9.64875465 0.714068244,11.0469245 C0.714068244,15.7264183 5.55992742,18.4928705 11.5375977,18.4928705 Z" id="Oval-2" fill="#000000"></path>
            <path d="M12.0330811,18.5105211 C18.0107513,18.5105211 22.8566105,15.744069 22.8566105,11.0645752 C22.8566105,9.70295626 22.4463268,8.32939823 21.7172588,7.06613309 C22.2266346,5.08883749 22.8365377,1.15227366 21.5802378,0.302104228 C19.8966146,-0.837245538 16.9250355,1.77726457 16.0884251,2.32832646 C14.8359619,1.84199138 13.4670889,1.5645752 12.0330811,1.5645752 C10.6244116,1.5645752 9.27859542,1.83227432 8.04423736,2.30274247 C7.13483504,1.78090029 4.47565162,-0.547926717 2.79402293,0.182627085 C1.02703293,0.950264596 2.01474794,5.60015704 2.40830339,6.96464165 C1.64215802,8.2556468 1.20955164,9.66640533 1.20955164,11.0645752 C1.20955164,15.744069 6.05541082,18.5105211 12.0330811,18.5105211 Z" id="Oval-2" fill="#000000"></path>
            <path d="M12.0759277,18.5506832 C17.4059139,18.5506832 21.7267214,15.6143165 21.7267214,11.9921247 C21.7267214,9.71262658 20.0155226,7.6947433 17.4184879,7.26001386 C15.8887554,7.00394498 14.051676,7.95608862 12.0759277,7.95608862 C10.1122329,7.95608862 8.28552028,7.00325326 6.76139927,7.25534945 C4.14865343,7.6875089 2.42513408,9.70443518 2.42513408,11.9921247 C2.42513408,15.6143165 6.74594158,18.5506832 12.0759277,18.5506832 Z" id="Oval-2" fill="#9B9B9B"></path>
            <g id="Group-146" transform="translate(5.000000, 12.000000)">
                <path d="M7.23985707,1.577944 C7.01826616,1.81907981 6.9074707,2.21666595 6.9074707,2.77070241" id="Path-99" stroke="#F6D5AE" stroke-width="0.57375" stroke-linecap="round" transform="translate(7.407471, 2.174323) scale(-1, 1) translate(-7.407471, -2.174323) "></path>
                <path d="M8.42478275,1.47163602 C8.20319184,1.71277184 8.09239639,2.11035797 8.09239639,2.66439443" id="Path-99" stroke="#F6D5AE" stroke-width="0.57375" stroke-linecap="round" transform="translate(8.592396, 2.068015) scale(-1, 1) rotate(10.000000) translate(-8.592396, -2.068015) "></path>
                <path d="M6.46712979,1.577944 C6.24553888,1.81907981 6.13474343,2.21666595 6.13474343,2.77070241" id="Path-99" stroke="#F6D5AE" stroke-width="0.57375" stroke-linecap="round"></path>
                <path d="M5.28220411,1.47163602 C5.0606132,1.71277184 4.94981774,2.11035797 4.94981774,2.66439443" id="Path-99" stroke="#F6D5AE" stroke-width="0.57375" stroke-linecap="round" transform="translate(5.449818, 2.068015) rotate(10.000000) translate(-5.449818, -2.068015) "></path>
                <path d="M4.35044368,1.0449208 C4.12885277,1.28605661 4.01805732,1.68364275 4.01805732,2.23767921" id="Path-99" stroke="#F6D5AE" stroke-width="0.57375" stroke-linecap="round" transform="translate(4.518057, 1.641300) rotate(20.000000) translate(-4.518057, -1.641300) "></path>
                <path d="M3.45971084,0.501909607 C3.23811993,0.743045425 3.12732447,1.14063156 3.12732447,1.69466802" id="Path-99" stroke="#F6D5AE" stroke-width="0.57375" stroke-linecap="round" transform="translate(3.627324, 1.098289) rotate(30.000000) translate(-3.627324, -1.098289) "></path>
                <path d="M10.1963368,0.501909607 C9.9747459,0.743045425 9.86395044,1.14063156 9.86395044,1.69466802" id="Path-99" stroke="#F6D5AE" stroke-width="0.57375" stroke-linecap="round" transform="translate(10.363950, 1.098289) scale(-1, 1) rotate(30.000000) translate(-10.363950, -1.098289) "></path>
                <path d="M9.28420579,1.0449208 C9.06261488,1.28605661 8.95181943,1.68364275 8.95181943,2.23767921" id="Path-99" stroke="#F6D5AE" stroke-width="0.57375" stroke-linecap="round" transform="translate(9.451819, 1.641300) scale(-1, 1) rotate(20.000000) translate(-9.451819, -1.641300) "></path>
                <path d="M6.9934082,4.20429616 C7.33536977,4.20429616 7.63445498,4.20429616 7.89066384,4.20429616 C7.89066384,5.534825 9.05333085,5.67729045 9.65578114,5.67729045 C10.519928,5.67729045 11.2899294,5.18051256 11.7854018,4.60054578 C12.2528201,4.05341725 12.8325937,2.83483627 12.2528201,1.39652873 C12.048512,0.889679277 11.7324851,0.526200598 11.4788811,0.293135031 C11.3180494,0.145328419 11.2522528,0.15445704 11.2522528,0.0555221822 C11.2522528,-0.0434126753 11.4157843,0.0112943225 11.5382804,0.0555221822 C11.6186012,0.0845224465 11.699916,0.121040264 11.7737876,0.1657595 C12.4049142,0.547820798 13.0897673,1.37286587 13.3086442,2.18784484 C13.6009716,3.2763139 13.7549169,4.87206005 12.1051612,6.32005638 C10.9661485,7.3197719 9.26223078,7.81030676 6.9934082,7.79166094 C4.72458563,7.81030676 3.02066794,7.3197719 1.88165516,6.32005638 C0.231899525,4.87206005 0.385844818,3.2763139 0.678172232,2.18784484 C0.897049095,1.37286587 1.58190224,0.547820798 2.21302879,0.1657595 C2.28690044,0.121040264 2.3682152,0.0845224465 2.44853605,0.0555221822 C2.57103214,0.0112943225 2.73456365,-0.0434126753 2.73456365,0.0555221822 C2.73456365,0.15445704 2.668767,0.145328419 2.50793528,0.293135031 C2.25433135,0.526200598 1.93830446,0.889679277 1.7339963,1.39652873 C1.15422266,2.83483627 1.7339963,4.05341725 2.20141463,4.60054578 C2.69688705,5.18051256 3.46688843,5.67729045 4.33103527,5.67729045 C4.93348555,5.67729045 6.09615257,5.534825 6.09615257,4.20429616 C6.35236143,4.20429616 6.65144664,4.20429616 6.9934082,4.20429616 Z" id="Combined-Shape" fill="#F6D5AE"></path>
            </g>
        </g>
    </g>
</svg>