<?xml version="1.0" encoding="UTF-8"?>
<svg width="48px" height="48px" viewBox="0 0 48 48" version="1.1" xmlns="http://www.w3.org/2000/svg" xmlns:xlink="http://www.w3.org/1999/xlink">
    <!-- Generator: Sketch 51.3 (57544) - http://www.bohemiancoding.com/sketch -->
    <title>facialhair-fullbeard</title>
    <desc>Created with Sketch.</desc>
    <defs></defs>
    <g id="SVGs" stroke="none" stroke-width="1" fill="none" fill-rule="evenodd">
        <g id="Slices" transform="translate(-354.000000, -532.000000)"></g>
        <g id="Group-151" transform="translate(13.000000, 12.000000)" fill-rule="nonzero">
            <path d="M10.8235294,18.4928705 C16.8011996,18.4928705 21.6470588,15.7264183 21.6470588,11.0469245 C21.6470588,9.68530558 21.2367752,8.31174756 20.5077071,7.04848241 C21.017083,5.07118682 21.626986,1.13462298 20.3706862,0.284453549 C18.687063,-0.854896218 15.7154838,1.75961389 14.8788735,2.31067579 C13.6264103,1.8243407 12.2575373,1.54692452 10.8235294,1.54692452 C9.41485993,1.54692452 8.06904378,1.81462364 6.83468572,2.28509179 C5.92528339,1.76324961 3.26609998,-0.565577397 1.58447129,0.164976405 C-0.182518711,0.932613916 0.805196297,5.58250636 1.19875174,6.94699097 C0.432606378,8.23799612 0,9.64875465 0,11.0469245 C0,15.7264183 4.84585918,18.4928705 10.8235294,18.4928705 Z" id="Oval-2" fill="#000000"></path>
            <path d="M10.8663761,18.5330325 C16.1963622,18.5330325 20.5171697,15.5966658 20.5171697,11.974474 C20.5171697,9.6949759 18.8059709,7.67709262 16.2089363,7.24236318 C14.6792037,6.9862943 12.8421244,7.93843794 10.8663761,7.93843794 C8.90268131,7.93843794 7.07596864,6.98560258 5.55184763,7.23769877 C2.93910179,7.66985822 1.21558244,9.6867845 1.21558244,11.974474 C1.21558244,15.5966658 5.53638993,18.5330325 10.8663761,18.5330325 Z" id="Oval-2" fill="#9B9B9B"></path>
            <g id="Group-145" transform="translate(0.000000, 12.000000)">
                <path d="M0.375190735,2.08214306 C0.375190735,1.70728038 0.649079242,1.87904958 0.794863793,1.95571541 C2.3393514,2.76793735 4.74655917,2.89035177 7.6140213,2.32295865 C8.43006134,2.93916404 9.44290161,3.9235113 10.8670197,3.9235113 C11.8164317,3.9235113 12.9272181,3.38999375 14.199379,2.32295865 C17.3963334,2.55381523 19.6281572,2.39340564 20.8948505,1.84172989 C21.051228,1.77362366 21.3588486,1.65156613 21.3588486,1.95571541 C21.3588486,2.14813455 21.3588486,2.08327221 21.3588486,2.42598712 C21.3588486,3.43001968 21.3588486,3.97668457 21.3588486,6.31489147 C21.3588486,10.0648606 20.4491944,12.0742532 18.3480453,13.2758512 C18.2370682,13.6816295 17.1569901,16.3401156 13.9661026,16.8155795 C11.8388443,17.1325554 9.82893626,16.5402814 7.93637848,15.0387573 C2.89558665,13.7936956 0.375190735,10.7147772 0.375190735,5.80200195 C0.375190735,3.6681607 0.375190735,3.70122456 0.375190735,2.59115823 C0.375190735,1.4810919 0.375190735,2.27983757 0.375190735,2.08214306 Z" id="Path-106" fill="#D0A573" transform="translate(10.867020, 9.328783) scale(-1, 1) translate(-10.867020, -9.328783) "></path>
                <path d="M0.375190735,1.31933594 C0.375190735,0.944473267 0.649079242,1.11624247 0.794863793,1.19290829 C2.3393514,2.00513023 4.74655917,2.89035177 7.6140213,2.32295865 C8.43006134,2.93916404 9.44290161,3.9235113 10.8670197,3.9235113 C11.8164317,3.9235113 12.9272181,3.38999375 14.199379,2.32295865 C17.4044045,2.32295865 19.6362284,1.90828002 20.8948505,1.07892277 C21.0333559,0.987655945 21.3588486,0.888759007 21.3588486,1.19290829 C21.3588486,1.38532743 21.3588486,1.32046509 21.3588486,1.66318001 C21.3588486,2.66721256 21.3588486,3.96843373 21.3588486,6.30664062 C21.3588486,10.0566098 20.4491944,12.0660024 18.3480453,13.2676003 C18.2370682,13.6733787 17.1569901,16.3318648 13.9661026,16.8073287 C11.8388443,17.1243046 9.82893626,16.5320305 7.93637848,15.0305065 C2.89558665,13.7854448 0.375190735,10.7065263 0.375190735,5.79375111 C0.375190735,3.65990986 0.375190735,2.93841744 0.375190735,1.82835111 C0.375190735,0.718284778 0.375190735,1.51703045 0.375190735,1.31933594 Z" id="Path-106" fill="#D0A573"></path>
                <path d="M11.1216804,2.52253433 C11.113929,2.52383188 11.1058253,2.52448065 11.0973693,2.52448065 C11.0547073,2.52448065 11.010438,2.52443751 10.9645515,2.52420237 C10.918665,2.52443751 10.8743957,2.52448065 10.8317337,2.52448065 C10.8232777,2.52448065 10.815174,2.52383188 10.8074226,2.52253433 C10.4948947,2.51724584 10.1173456,2.49775575 9.67228996,2.4264887 C9.19646454,2.35029447 8.86045239,2.24993048 8.6020919,2.16693393 C8.2896682,2.06656994 8.21938621,2.52606201 8.21938621,2.70581055 C8.21938621,2.88555908 8.35039055,4.25386186 7.72816002,5.17658858 C7.10592949,6.0993153 6.05100548,6.34819586 4.79207145,6.23025235 C3.53313743,6.11230885 2.95120155,5.10724571 2.83440315,4.52938843 C2.77806136,4.25063878 2.80089103,4.14058339 2.90668785,4.14058339 C3.01248466,4.14058339 3.08282005,4.44589233 3.30926048,4.7222623 C3.53570091,4.99863226 3.88920196,5.30090297 4.61770164,5.22157842 C5.35695806,5.1410826 5.24986564,4.24432096 4.98390495,3.59543402 C4.71794426,2.94654707 4.49882042,2.49796642 4.49882042,1.47260909 C4.49882042,0.447251753 5.96721184,-1.10973011e-05 6.60637199,-1.10973011e-05 C7.24553215,-1.10973011e-05 8.24811851,0.182320335 8.88183128,0.451416016 C9.28634096,0.623184384 9.98058104,0.921288828 10.9645515,1.34572935 C11.948522,0.921288828 12.642762,0.623184384 13.0472717,0.451416016 C13.6809845,0.182320335 14.6835709,-1.10973011e-05 15.322731,-1.10973011e-05 C15.9618912,-1.10973011e-05 17.4302826,0.447251753 17.4302826,1.47260909 C17.4302826,2.49796642 17.2111588,2.94654707 16.9451981,3.59543402 C16.6792374,4.24432096 16.5721449,5.1410826 17.3114014,5.22157842 C18.0399011,5.30090297 18.3934021,4.99863226 18.6198425,4.7222623 C18.846283,4.44589233 18.9166183,4.14058339 19.0224152,4.14058339 C19.128212,4.14058339 19.1510416,4.25063878 19.0946999,4.52938843 C18.9779015,5.10724571 18.3959656,6.11230885 17.1370316,6.23025235 C15.8780975,6.34819586 14.8231735,6.0993153 14.200943,5.17658858 C13.5787125,4.25386186 13.7097168,2.88555908 13.7097168,2.70581055 C13.7097168,2.52606201 13.6394348,2.06656994 13.3270111,2.16693393 C13.0686506,2.24993048 12.7326385,2.35029447 12.256813,2.4264887 C11.8117574,2.49775575 11.4342083,2.51724584 11.1216804,2.52253433 Z" id="Combined-Shape" fill="#F6D5AE"></path>
            </g>
        </g>
    </g>
</svg>