<?xml version="1.0" encoding="UTF-8"?>
<svg width="48px" height="48px" viewBox="0 0 48 48" version="1.1" xmlns="http://www.w3.org/2000/svg" xmlns:xlink="http://www.w3.org/1999/xlink">
    <!-- Generator: Sketch 51.3 (57544) - http://www.bohemiancoding.com/sketch -->
    <title>facialhair-muttonchops</title>
    <desc>Created with Sketch.</desc>
    <defs></defs>
    <g id="SVGs" stroke="none" stroke-width="1" fill="none" fill-rule="evenodd">
        <g id="Slices" transform="translate(-177.000000, -532.000000)"></g>
        <g id="Group-142" transform="translate(12.000000, 14.000000)" fill-rule="nonzero">
            <path d="M11.9857178,19.31411 C17.963388,19.31411 22.8092472,16.5476578 22.8092472,11.8681641 C22.8092472,10.5065451 22.3989635,9.1329871 21.6698955,7.86972195 C22.1792714,5.89242636 22.7891744,1.95586252 21.5328745,1.1056931 C19.8492513,-0.0336566707 16.8776722,2.58085344 16.0410618,3.13191533 C14.7885987,2.64558025 13.4197256,2.36816406 11.9857178,2.36816406 C10.5770483,2.36816406 9.23123214,2.63586319 7.99687408,3.10633134 C7.08747176,2.58448915 4.42828834,0.25566215 2.74665965,0.986215952 C0.979669651,1.75385346 1.96738466,6.40374591 2.36094011,7.76823052 C1.59479474,9.05923567 1.16218836,10.4699942 1.16218836,11.8681641 C1.16218836,16.5476578 6.00804754,19.31411 11.9857178,19.31411 Z" id="Oval-2" fill="#000000"></path>
            <path d="M12.0285645,19.3542721 C17.3585506,19.3542721 21.6793581,16.4179054 21.6793581,12.7957135 C21.6793581,10.5162154 19.9681593,8.49833216 17.3711246,8.06360273 C15.8413921,7.80753385 14.0043127,8.75967748 12.0285645,8.75967748 C10.0648697,8.75967748 8.238157,7.80684213 6.71403599,8.05893832 C4.10129015,8.49109777 2.3777708,10.508024 2.3777708,12.7957135 C2.3777708,16.4179054 6.6985783,19.3542721 12.0285645,19.3542721 Z" id="Oval-2" fill="#9B9B9B"></path>
            <path d="M2.73582255,12.1580184 L8.77369721,14.9976846 C9.14533558,15.2393172 9.23824518,15.5144082 9.05242599,15.8229575 C8.77369721,16.2857816 8.3606817,17.8055903 9.05242599,19.7139155 C9.17260735,20.0454616 9.2952661,20.2737188 8.77369721,20.407752 C8.25212833,20.5417852 6.54317682,20.3021834 5.70777924,19.4495445 C5.30880103,19.0423319 3.96900267,19.4495445 3.22041822,17.9570518 C3.10920175,17.7353136 1.9228061,18.2208735 1.02864575,16.7831626 C0.13448541,15.3454518 0.805919079,13.3546792 1.02864575,12.7820418 C1.19999995,12.3414847 1.34061451,12.1727373 1.69155093,12.0444597 C1.92550855,11.9589413 2.27359909,11.9967942 2.73582255,12.1580184 Z" id="Path-102" fill="#F6D5AE"></path>
            <path d="M16.8512072,12.1580184 L22.8890818,14.9976846 C23.2607202,15.2393172 23.3536298,15.5144082 23.1678106,15.8229575 C22.8890818,16.2857816 22.4760663,17.8055903 23.1678106,19.7139155 C23.287992,20.0454616 23.4106507,20.2737188 22.8890818,20.407752 C22.3675129,20.5417852 20.6585614,20.3021834 19.8231639,19.4495445 C19.4241856,19.0423319 18.0843873,19.4495445 17.3358028,17.9570518 C17.2245864,17.7353136 16.0381907,18.2208735 15.1440304,16.7831626 C14.24987,15.3454518 14.9213037,13.3546792 15.1440304,12.7820418 C15.3153846,12.3414847 15.4559991,12.1727373 15.8069355,12.0444597 C16.0408932,11.9589413 16.3889837,11.9967942 16.8512072,12.1580184 Z" id="Path-102" fill="#F6D5AE" transform="translate(18.982587, 16.221269) scale(-1, 1) translate(-18.982587, -16.221269) "></path>
        </g>
    </g>
</svg>