<?xml version="1.0" encoding="UTF-8"?>
<svg width="48px" height="48px" viewBox="0 0 48 48" version="1.1" xmlns="http://www.w3.org/2000/svg" xmlns:xlink="http://www.w3.org/1999/xlink">
    <!-- Generator: Sketch 51.3 (57544) - http://www.bohemiancoding.com/sketch -->
    <title>facialhair-wizardbeard</title>
    <desc>Created with Sketch.</desc>
    <defs></defs>
    <g id="SVGs" stroke="none" stroke-width="1" fill="none" fill-rule="evenodd">
        <g id="Slices" transform="translate(-295.000000, -532.000000)"></g>
        <g id="Group-150" transform="translate(13.000000, 11.000000)" fill-rule="nonzero">
            <path d="M11.0422363,18.4928705 C17.0199066,18.4928705 21.8657657,15.7264183 21.8657657,11.0469245 C21.8657657,9.68530558 21.4554821,8.31174756 20.7264141,7.04848241 C21.2357899,5.07118682 21.8456929,1.13462298 20.5893931,0.284453549 C18.9057699,-0.854896218 15.9341908,1.75961389 15.0975804,2.31067579 C13.8451172,1.8243407 12.4762442,1.54692452 11.0422363,1.54692452 C9.63356685,1.54692452 8.28775069,1.81462364 7.05339264,2.28509179 C6.14399031,1.76324961 3.4848069,-0.565577397 1.8031782,0.164976405 C0.0361882058,0.932613916 1.02390321,5.58250636 1.41745866,6.94699097 C0.651313295,8.23799612 0.218706916,9.64875465 0.218706916,11.0469245 C0.218706916,15.7264183 5.06456609,18.4928705 11.0422363,18.4928705 Z" id="Oval-2" fill="#000000"></path>
            <path d="M11.085083,18.5330325 C16.4150692,18.5330325 20.7358767,15.5966658 20.7358767,11.974474 C20.7358767,9.6949759 19.0246778,7.67709262 16.4276432,7.24236318 C14.8979107,6.9862943 13.0608313,7.93843794 11.085083,7.93843794 C9.12138822,7.93843794 7.29467555,6.98560258 5.77055455,7.23769877 C3.1578087,7.66985822 1.43428936,9.6867845 1.43428936,11.974474 C1.43428936,15.5966658 5.75509685,18.5330325 11.085083,18.5330325 Z" id="Oval-2" fill="#9B9B9B"></path>
            <g id="Group-144" transform="translate(0.000000, 12.000000)">
                <path d="M1.31447474,0.365018644 C4.56151979,2.21304499 6.91165341,3.27311826 8.36487561,3.54523847 C8.71430125,4.14445638 10.1400824,4.47510091 11.0273091,4.47510091 C11.8370135,4.47510091 13.1470649,4.16282552 13.4560039,3.58690829 C14.97279,3.32746614 17.4084819,2.24494581 20.7630796,0.339347285 L20.7630842,0.33935534 C21.0251948,0.190461905 21.3583794,0.282242552 21.5072728,0.544353154 C21.553957,0.626535517 21.5785005,0.719432157 21.5785005,0.813948568 L21.5785005,5.34570312 C21.4212348,7.30801432 21.168507,8.73916016 20.8203169,9.63914063 C20.2980317,10.9891113 20.129019,11.3835746 19.2214497,12.517832 C19.0551225,12.7257035 18.4263667,13.0722363 18.6725239,12.3233984 C18.8366287,11.8241732 18.8897309,11.3134538 18.8318305,10.7912402 C18.701671,11.2399772 18.5517638,11.6780794 18.3821089,12.1055469 C18.1276264,12.746748 17.4269137,14.1641124 15.7567182,15.8677832 C14.9527729,16.6878418 14.8191401,16.4226709 14.8191401,16.2086865 C14.8191401,15.9947021 14.8979878,15.2147656 14.501601,15.0477246 C14.1052143,14.8806836 13.5060151,15.0222119 13.1470649,15.3173535 C12.7881147,15.6124951 11.9709565,16.3602051 12.3795356,17.9815234 C12.7881147,19.6028418 12.7658106,19.6468962 12.6696821,19.7316406 C12.4993109,19.8818356 12.0127436,20.0971436 10.7241108,19.4308057 C9.435478,18.7644678 7.40149851,16.8108398 6.60818796,15.3173535 C6.4649664,15.0477246 6.29994089,15.0193652 6.20444285,15.1683594 C6.1089448,15.3173535 5.79881785,15.8577393 5.40404246,16.0332129 C5.00926707,16.2086865 4.8552241,16.0487891 4.97994089,15.765625 C5.10465769,15.4824609 5.1356489,13.505791 4.57544382,12.9145947 C4.29544603,12.6191071 4.17705978,12.7910419 4.0292573,12.9145947 C3.55719187,13.3092094 2.86285564,13.3092094 2.53915476,12.9145947 C2.24959982,12.5616064 2.80287803,12.5042287 2.9945698,12.1055469 C3.30550242,11.4588672 3.61423289,10.9202728 2.1950825,8.72982392 C0.775932105,6.539375 0.456352026,4.98304688 0.456352026,3.90979492 C0.456352026,3.25137399 0.456352026,1.83276367 0.456352026,0.864007161 C0.456352026,0.864007161 0.456352026,0.864007161 0.456352026,0.864007161 L0.456352026,0.864007161 C0.456352026,0.546925072 0.713397848,0.28987925 1.03047994,0.28987925 C1.1300577,0.28987925 1.22792338,0.315778492 1.31446624,0.365033579 Z" id="Path-104" fill="#D0A573"></path>
                <path d="M11.0273091,1.69856771 L11.0273091,2.58662435 C10.0148937,2.67506836 9.23257598,2.93925456 8.68035593,3.37918294 C7.85202585,4.03907552 7.7268063,4.70763841 7.71108835,5.28866048 C7.71108835,5.28866048 7.55779734,6.23767904 9.16858835,9.18780599 C10.242449,11.1545573 9.956492,13.3526595 8.31071726,15.7821126 C8.07602119,16.0646074 7.87614489,16.113914 7.71108835,15.9300326 C7.62330435,15.8322366 7.6096821,15.7557943 7.85202585,15.2711068 C8.0943696,14.7864193 8.46637156,12.8289779 6.80960398,11.0083919 C5.1528364,9.18780599 3.38381296,7.41663411 2.95928171,5.17688802 C2.53475046,2.93714193 3.75044382,1.6833138 4.05412546,1.42926107 C4.3578071,1.17520833 5.88233835,0.188323568 8.31071726,0.534436849 C9.30483734,0.676127324 10.2103679,1.06417094 11.0273091,1.69856771 Z" id="Path-105" fill="#F6D5AE"></path>
                <path d="M18.9473091,1.69856771 L18.9473091,2.58662435 C17.9348937,2.67506836 17.152576,2.93925456 16.6003559,3.37918294 C15.7720259,4.03907552 15.6468063,4.70763841 15.6310884,5.28866048 C15.6310884,5.28866048 15.4777973,6.23767904 17.0885884,9.18780599 C18.6993794,12.1379329 16.624681,14.169764 15.5029883,14.6624007 C14.6244365,15.0482523 13.7266064,14.169764 13.5856689,13.6984505 C13.4859725,13.3650526 13.5371954,12.9559237 13.7266064,13.0395247 C13.774629,13.0607207 13.7804543,13.240637 13.8969775,13.5098983 C13.9900561,13.7249837 14.4107369,13.9003058 14.8687961,13.6984505 C15.6893619,13.3368476 15.6097627,11.9755793 14.729604,11.0083919 C13.0728364,9.18780599 11.303813,7.41663411 10.8792817,5.17688802 C10.4547505,2.93714193 11.6704438,1.6833138 11.9741255,1.42926107 C12.2778071,1.17520833 13.8023384,0.188323568 16.2307173,0.534436849 C17.2248373,0.676127324 18.1303679,1.06417094 18.9473091,1.69856771 Z" id="Path-105" fill="#F6D5AE" transform="translate(14.868796, 7.609722) scale(-1, 1) translate(-14.868796, -7.609722) "></path>
            </g>
        </g>
    </g>
</svg>