<?xml version="1.0" encoding="utf-8"?>
<!-- Generator: Adobe Illustrator 21.0.2, SVG Export Plug-In . SVG Version: 6.00 Build 0)  -->
<svg version="1.1" id="_x30_9_x5F_EyeExpress_x5F_Chillin"
	 xmlns="http://www.w3.org/2000/svg" xmlns:xlink="http://www.w3.org/1999/xlink" x="0px" y="0px" viewBox="0 0 2000 2000"
	 enable-background="new 0 0 2000 2000" xml:space="preserve">
<g>
	<g>
		<path fill="#D9E9E6" d="M873,653c-9.8,8.9-19,18-28.5,26.8c1.3,4.3,2.8,8.7,4.5,13.2c6.7,18.1,15,33.2,24.6,44.8
			c5,6.1,9.5,11.4,14.1,15.6c14.1,0.5,32.4,5.3,41.1,8.8c21-13.8,32.1-62.2,22.2-109.9c-0.5-2.4-1.1-4.8-1.8-7.1
			C922.5,637.4,894.8,632.8,873,653z"/>
		<path fill="#C6D9D5" d="M848.5,693.2l1-0.4c-0.8-5.2-1.6-10.4-2.4-15.5c-1.1,1-2.1,2-3.2,2.9C845.4,684.6,846.9,688.9,848.5,693.2
			z"/>
		<path fill="#8d5548"  d="M845.5,688.5c1,2.6,1.9,5.1,2.9,7.6c2.1,5,4.3,10,6.9,14.8c5,9.6,11,18.9,18.3,26.9
			c-6.4-8.7-11.7-18.1-16.1-28c-4.5-9.8-7.9-20-11-30.3c-0.1-0.4-0.2-0.9-0.4-1.3c-1.1,1-2.1,2-3.2,2.9
			C843.8,683.6,844.6,686.1,845.5,688.5z"/>
		<path fill="#D9E9E6" d="M1102.9,642.4c-3.6,33.1,1.4,78.9,12.1,89.6c7.9,7.9,18.7,5.4,26.6,1.8c5.3-5,11.7-10.1,18.8-14.5
			c6.6-7.8,12.5-18.1,17.4-29.9c4-9.6,7.3-20.2,9.6-31.1c-11.4-11.2-22.2-23-38.4-25.3C1131.5,629.4,1116.3,634,1102.9,642.4z"/>
		<path fill="#C6D9D5" d="M1180.9,663.3c-0.8,8.6-2.3,17-3.7,25.9l1,0.4c3.4-8.1,6.2-16.4,8.4-24.8c0.5-1.9,1-3.9,1.4-5.8
			c-2.1-2-4.1-4.1-6.2-6.1C1181.6,656.3,1181.3,659.8,1180.9,663.3z"/>
		<path fill="#8d5548"  d="M1177.8,689.4c3.8-7.9,6.9-16.1,9.3-24.5c0.5-1.8,1-3.6,1.5-5.5c-0.8-0.8-1.6-1.6-2.4-2.4
			C1184.2,668,1181.4,678.8,1177.8,689.4z"/>
		<path fill="#8d5548"  d="M1130,746.5c3.4-5.5,7.7-10.4,12.3-14.9c4.6-4.5,9.8-8.6,15.2-12.2c1.3-0.9,2.8-1.7,4.2-2.5
			c0.7-0.4,1.4-0.8,2.1-1.2l2.2-1.1l2.2-1.1c0.7-0.3,1.5-0.6,2.2-1c1.5-0.6,3-1.3,4.5-1.8c6.1-2.2,12.6-3.6,19-3.7
			c-6.3,1.3-12.4,3.3-18.2,5.9c-1.5,0.6-2.9,1.3-4.3,2c-0.7,0.3-1.4,0.7-2.1,1l-2.1,1.2l-2.1,1.1c-0.7,0.4-1.4,0.8-2,1.2
			c-1.4,0.8-2.7,1.6-4,2.5c-2.7,1.7-5.3,3.5-7.8,5.4c-2.6,1.9-5,3.9-7.5,5.9C1139,737.4,1134.4,741.8,1130,746.5z"/>
		<g>
			<path fill="#A34F3E" d="M1108.9,639c-5.4,9.8-9.3,23.6-10.3,39.1c-2,30.8,8.1,56.5,22.6,57.4s27.8-23.3,29.7-54.1
				c1.3-21-2.9-39.5-10.3-49.6C1129,631.2,1118.5,634,1108.9,639z"/>
			<path fill="#8d5548"  d="M1127.5,624L1127.5,624L1127.5,624z"/>
			<path fill="#A34F3E" d="M1133.9,631.9c7.6,6.8,13.6,25.4,12,49.3c-0.9,13.9-4.2,26.8-9.3,36.3c-4.5,8.3-9.8,13.1-14.6,13.1
				c-0.2,0-0.3,0-0.5,0c-10-0.6-19.8-22.2-17.9-52.1c0.9-13.9,4.2-26.8,9.3-36.3c1.4-2.6,2.9-4.9,4.5-6.8c-2.9,1-5.7,2.3-8.5,3.7
				c-5.4,9.8-9.3,23.6-10.3,39.1c-2,30.8,8.1,56.5,22.6,57.4c0.3,0,0.5,0,0.8,0c14.1,0,27-23.9,28.9-54.1c1.3-21-2.9-39.5-10.3-49.6
				C1138.3,631.7,1136.1,631.7,1133.9,631.9z"/>
			<path opacity="0.16" enable-background="new    " d="M1133.9,631.9c7.6,6.8,13.6,25.4,12,49.3c-0.9,13.9-4.2,26.8-9.3,36.3
				c-4.5,8.3-9.8,13.1-14.6,13.1c-0.2,0-0.3,0-0.5,0c-10-0.6-19.8-22.2-17.9-52.1c0.9-13.9,4.2-26.8,9.3-36.3
				c1.4-2.6,2.9-4.9,4.5-6.8c-2.9,1-5.7,2.3-8.5,3.7c-5.4,9.8-9.3,23.6-10.3,39.1c-2,30.8,8.1,56.5,22.6,57.4c0.3,0,0.5,0,0.8,0
				c14.1,0,27-23.9,28.9-54.1c1.3-21-2.9-39.5-10.3-49.6C1138.3,631.7,1136.1,631.7,1133.9,631.9z"/>
		</g>
		<g>
			<path fill="#A34F3E" d="M866.4,659.1c-4,11.2-5.3,25.4-3,40.5c4.9,32.2,24.4,56,43.5,53c19.1-2.9,30.6-31.4,25.7-63.6
				c-3.6-23.7-15.1-42.8-28.6-50.1c-11.1,1.2-21.6,5.3-31,14C870.8,655,868.5,657.1,866.4,659.1z"/>
			<path fill="#8d5548"  d="M892.3,635.8L892.3,635.8L892.3,635.8z"/>
			<path fill="#A34F3E" d="M913.5,654c7,9.2,12.1,21.9,14.2,35.8c2.2,14.7,1,29-3.5,40.2c-4.2,10.3-10.5,16.6-18,17.7
				c-0.8,0.1-1.6,0.2-2.4,0.2c-7.2,0-14.7-4.7-21.2-13.3c-7-9.2-12.1-21.9-14.2-35.8c-3-19.7,0.6-38.3,8.3-49c-1.2,1-2.5,2-3.7,3.1
				c-2.2,2-4.5,4.1-6.6,6.1c-4,11.2-5.3,25.4-3,40.5c4.6,30.4,22.3,53.3,40.3,53.3c1.1,0,2.1-0.1,3.2-0.2
				c19.1-2.9,30.6-31.4,25.7-63.6c-3.6-23.7-15.1-42.8-28.5-50.1c-3.3,0.4-6.6,1-9.9,1.9C900.8,641.7,907.5,646.2,913.5,654z"/>
			<path opacity="0.16" enable-background="new    " d="M913.5,654c7,9.2,12.1,21.9,14.2,35.8c2.2,14.7,1,29-3.5,40.2
				c-4.2,10.3-10.5,16.6-18,17.7c-0.8,0.1-1.6,0.2-2.4,0.2c-7.2,0-14.7-4.7-21.2-13.3c-7-9.2-12.1-21.9-14.2-35.8
				c-3-19.7,0.6-38.3,8.3-49c-1.2,1-2.5,2-3.7,3.1c-2.2,2-4.5,4.1-6.6,6.1c-4,11.2-5.3,25.4-3,40.5c4.6,30.4,22.3,53.3,40.3,53.3
				c1.1,0,2.1-0.1,3.2-0.2c19.1-2.9,30.6-31.4,25.7-63.6c-3.6-23.7-15.1-42.8-28.5-50.1c-3.3,0.4-6.6,1-9.9,1.9
				C900.8,641.7,907.5,646.2,913.5,654z"/>
		</g>
		<path fill="#8d5548"  d="M932.5,764c-2.3-0.9-4.7-1.6-7.2-2.3c-2.4-0.7-4.8-1.2-7.3-1.8c-2.4-0.5-4.8-1.1-7.3-1.6
			c-2.4-0.5-4.9-1-7.3-1.5c-2.4-0.5-4.9-0.9-7.3-1.2c-2.4-0.4-4.9-0.7-7.4-0.9s-4.9-0.4-7.4-0.4s-4.9,0.2-7.4,0.7
			c2.2-1.2,4.8-1.8,7.3-2.2s5.1-0.5,7.6-0.5s5.1,0.2,7.6,0.5s5,0.7,7.5,1.1c5,1,9.9,2.2,14.7,3.8c2.4,0.8,4.8,1.7,7.1,2.7
			C928.1,761.4,930.5,762.5,932.5,764z"/>
	</g>
	<path fill="#8d5548"  d="M832.2,639.4c-0.9-3.9,2.3,30.5,8.7,49.6l2.5-3.6C840.8,679,833.1,642.7,832.2,639.4z"/>
	<path fill="#8d5548"  d="M1182.5,617.7c0,0,9.5,27.4,8.3,40.2l6.6,4.6C1197.4,662.5,1190.4,625.6,1182.5,617.7z"/>

		<ellipse transform="matrix(0.161 -0.987 0.987 0.161 113.5157 1453.0933)" fill="#FFFFFF" cx="911.4" cy="659.8" rx="22.1" ry="18.3"/>

		<ellipse transform="matrix(0.161 -0.987 0.987 0.161 312.0258 1672.9252)" fill="#FFFFFF" cx="1140" cy="652.9" rx="22.1" ry="18.3"/>
	<path fill="#8d5548"  d="M830.1,694.5c7.3-2,15.7-2.7,15.7-2.7s20.9-45.5,58.1-50.3c28.3-3.6,49.2,6,49.2,6s-26.9-17.2-52.9-10.3
		c-4.6,1.2-14.7,2.2-32.8,15.5C854.8,661.9,839.9,678.8,830.1,694.5z"/>
	<path fill="#8d5548"  d="M1205.3,664.3c0,0-9-4.3-19.7-15.3s-25.3-21.7-51.3-20.3c-26,1.3-38,20-38,20s26-20.7,50.3-14
		s44,28.7,44,28.7S1195.7,664.7,1205.3,664.3z"/>
</g>
</svg>
