<?xml version="1.0" encoding="utf-8"?>
<!-- Generator: Adobe Illustrator 21.0.2, SVG Export Plug-In . SVG Version: 6.00 Build 0)  -->
<svg version="1.1" id="_x31_0_x5F_EyeExpress_x5F_Angry"
	 xmlns="http://www.w3.org/2000/svg" xmlns:xlink="http://www.w3.org/1999/xlink" x="0px" y="0px" viewBox="0 0 2000 2000"
	 enable-background="new 0 0 2000 2000" xml:space="preserve">
<g>
	<path fill="#C6D9D5" d="M857.6,602.2c-5.7,0-11.5,0.5-17.1,1.4c0.4,13.3,1.1,26.8,1.8,35.5c4.1-7.9,7.6-16.1,8.7-25.1
		c40.8,2.8,79,25.3,100.3,60.5c0-6.2-0.2-12.2-0.4-18.2C932.4,650.6,917.5,602.2,857.6,602.2z"/>
	<path fill="#D9E9E6" d="M851,614c-1.1,9-4.6,17.1-8.7,25.1c0.3,3.5,0.5,6.3,0.8,7.9c7.4,49.5,20.2,108.2,68.6,108.2
		c31.8,0,39.7-46.6,39.7-78.2c0-0.9,0-1.7,0-2.5C930,639.3,891.8,616.8,851,614z"/>
	<path fill="#D9E9E6" d="M1179,592c-33.5,10.2-68.7,26.5-87.1,57.7c-2,11.2-3.4,22.4-3.4,33.2c0,38.1,18.4,54.5,39.7,54.5
		c38.3,0,51.4-66.1,55.2-117.3C1182,610.7,1180.5,601.4,1179,592z"/>
	<path fill="#C6D9D5" d="M1179,592c1.5,9.4,3,18.7,4.4,28.1c1-13.3,1.3-25.6,1.3-35.5c0-3.7,0-7.3-0.1-10.7
		c-44.6,8.4-64.8,35-87.2,49.4c-2,8.7-4,17.5-5.6,26.3C1110.3,618.5,1145.5,602.2,1179,592z"/>
	<path fill="#8d5548"  d="M835.6,605.6c32.6-13.9,58.6-8.2,85.1,15.9c17.4,15.7,26.1,27.7,32.1,31.1c3.4,1.9,12.9-2,12.8-2.2
		c4.1,6-10.8,9-13.7,8.3c-13.8-3-34.3-42.7-75.2-48.9c-7.2-1.1-14.5-0.3-21.8-0.8C852,608.8,834.7,606,835.6,605.6z"/>
	<path fill="#8d5548"  d="M1091,619.7c2.5,10.1,9.7,0.2,14.8-4.5c8.7-7.9,16.5-16.5,25.7-23.8c10.9-8.7,24.2-17.8,38.6-19
		c1.9-0.2,20.8,0.5,21.4,4.2c0.6,3.4-11.5,5-14.9,5.9c-18.5,4.8-34.2,11.5-49.6,23.1c-6.7,5.1-23.7,25.5-32.9,24.2
		C1081.4,628.1,1090,616.1,1091,619.7z"/>

		<ellipse transform="matrix(0.9813 -0.1927 0.1927 0.9813 -116.5736 187.4416)" fill="#A34F3E" cx="905.4" cy="693" rx="32.5" ry="53.1"/>

		<ellipse transform="matrix(0.9813 -0.1927 0.1927 0.9813 -116.5736 187.4416)" opacity="0.16" enable-background="new    " cx="905.4" cy="693" rx="32.5" ry="53.1"/>
	<g>
		<path fill="#A34F3E" d="M911.6,740.3c-14,0-28.7-18.5-33.3-42.1c-5-25.6,3.1-49.6,17.8-52.5c1-0.2,2-0.3,3-0.3
			c14,0,28.7,18.5,33.3,42.1c2.6,13,1.9,25.8-1.9,36c-3.5,9.3-9.1,15.2-15.9,16.5C913.6,740.3,912.6,740.3,911.6,740.3z"/>
	</g>

		<ellipse transform="matrix(8.497454e-02 -0.9964 0.9964 8.497454e-02 350.8978 1733.8708)" fill="#A34F3E" cx="1119.5" cy="675.9" rx="53.1" ry="28.5"/>

		<ellipse transform="matrix(8.497454e-02 -0.9964 0.9964 8.497454e-02 350.8978 1733.8708)" opacity="0.16" enable-background="new    " cx="1119.5" cy="675.9" rx="53.1" ry="28.5"/>
	<path fill="#A34F3E" d="M1116.2,723.8c-0.3,0-0.6,0-0.9,0c-11.3-1-21.8-21.2-19.3-49.9c1.1-12.9,4.7-24.9,10.3-33.7
		c4.9-7.8,10.9-12.3,16.3-12.3c0.3,0,0.6,0,0.9,0c11.3,1,21.8,21.2,19.3,49.9c-1.1,12.9-4.7,24.9-10.3,33.7
		C1127.7,719.3,1121.7,723.8,1116.2,723.8z"/>
	<path fill="#8d5548"  d="M849.3,605c0.4,19.3-3.1,90.1,19.6,122.4c2.2,3.1,10,13.9,23.8,19.8c8.2,3.5,15,3.7,17.3,3.7
		c3.7,0,9.1,0,14.8-2.8c4.1-2,7.5-4.9,11.1-9.6c11.1-14.4,12-30,12.6-29.9s0.5,19.4-11.3,34.8c-6.9,8.9-16.5,13.2-27.6,13.3
		c-12.6,0.1-30.4-6.9-42.8-22.7c-17.9-22.7-23.6-56.2-26-80.4c-2.8-28.9-0.3-46.9,0-48.8c0.1-0.9,6.2-3.3,7.4-2.7
		C849.3,602.6,849.3,604.3,849.3,605z"/>
	<path fill="#8d5548"  d="M1091.5,707.2c5.9,17.2,18.3,30.9,38.5,29.4c22.8-1.7,33.2-27.8,38.9-46.5c7-22.6,10.1-46.5,11.9-70
		c0.2-3,1.8-29.7,3.8-40.1c0.5-2.6,1.7-2.4,2.4-2.5c4.4-0.7-1.2,50-1.8,56.3c-2.2,23.6-6.1,46.3-14.7,68.5
		c-7.3,18.8-20.8,40.3-43.7,39.3C1103.3,740.5,1097.6,725,1091.5,707.2z"/>

		<ellipse transform="matrix(0.9772 -0.2125 0.2125 0.9772 -118.7912 208.5276)" fill="#FFFFFF" cx="910.7" cy="656.9" rx="9" ry="20.9"/>

		<ellipse transform="matrix(0.1105 -0.9939 0.9939 0.1105 367.1357 1693.9504)" fill="#FFFFFF" cx="1129.9" cy="641.9" rx="20.9" ry="9"/>
</g>
</svg>
