<?xml version="1.0" encoding="utf-8"?>
<!-- Generator: Adobe Illustrator 21.0.2, SVG Export Plug-In . SVG Version: 6.00 Build 0)  -->
<svg version="1.1" id="_x31_1_x5F_EyeExpress_x5F_HeartEyes"
	 xmlns="http://www.w3.org/2000/svg" xmlns:xlink="http://www.w3.org/1999/xlink" x="0px" y="0px" viewBox="0 0 2000 2000"
	 enable-background="new 0 0 2000 2000" xml:space="preserve">
<g>
	<path opacity="0.1" enable-background="new    " d="M839.7,577.2c9.6,5.4,21.7,3.1,28.2-5.8c7.4-10,20.2-20.6,42.4-24.9
		c36-6.9,68.6,20.7,78.1,59.8c17,73.6-28.5,118.3-65,171.3c-7.5,10.8-22.8,12.7-32.5,3.8c-54.8-50.7-129.9-48.1-145.5-128.6
		c-9.5-39,7.4-76.1,43.4-83C811.2,565.6,828.2,570.7,839.7,577.2z"/>
	<path opacity="0.1" enable-background="new    " d="M1140.8,597.3c0,0,18.9-26.2,61.6-12c32.8,11,46.3,47,35.3,81.4
		c-15.7,49.1-62.6,53.5-123.7,95.3c-12.2,8.4-29.1,3.3-34.6-10.5c-28.5-72.5-79.5-109.5-63.6-158.9c11-34.4,42.8-55.3,75.6-44.3
		C1134.1,562.5,1140.8,597.3,1140.8,597.3z"/>
	<path fill="#960081" d="M917.3,694c-7-8-35.7-7.3-44.7-11.3c-32-14-50.3-13.7-57.3-50.7c-3-20-16-33-8-50c4-11,16.7-15,28.7-18
		c3.2-1.1-8.2-14-4.5-14.6c-10.2-3.3-23-4.8-38.3-1.9c-36,6.9-52.9,44-43.4,83c16.4,84.4,98.3,77.4,153.4,136.5
		c5,5.4,13.8,4.6,17.8-1.5c8.1-12.4,16.8-24.3,25.4-36C925.3,742.5,934.8,717.8,917.3,694z"/>
	<path fill="#AD0072" d="M992.8,584.1c-9.5-39-42.1-66.6-78.1-59.8c-46.8,8.9-52,46.3-52,46.3s-10.3-14.5-31.2-21.2
		c-3.7,0.6-7.3,1.5-10.5,2.6c-12,3-23,12-27,23c-8,17-12,36-9,56c7,37,41,51,73,65c9,4,14,13,21,21c17.5,23.8,46.3,25.5,67.4,12.5
		C977.7,686.7,1007,645.5,992.8,584.1z"/>
	<path fill="#960081" d="M1117.3,687.3c-11-25-14-51-28-74c-12-20-13.7-27.3-0.7-49.3c8-13,8.3-12.7,23.3-14.7
		c5.1-0.6,2.7-17.8,8.2-17c-5.2-3.2-11.3-6.2-18.3-8.5c-32.8-11-64.6,9.9-75.6,44.3c-16.4,51.2,38.9,89.1,66.6,166.9
		c3.6,10,15.7,13.8,24.3,7.6c11.5-8.3,22.5-15.2,33-21.2C1128.8,722.4,1125.7,706.8,1117.3,687.3z"/>
	<path fill="#AD0072" d="M1248.1,642.3c11-34.4-2.5-70.4-35.3-81.4c-42.7-14.3-61.6,12-61.6,12s-4.6-24.2-31-40.5
		c-5.5-0.8-11-0.9-16.2-0.3c-15,2-28,9-36,22c-13,22-2,43,10,63c14,23,11,50,22,75c8.4,19.5,28.8,30.4,50.1,29.4
		C1198.5,693.6,1234.6,684.2,1248.1,642.3z"/>
	<path fill="#FFFFFF" d="M973.5,586.6c-0.7-5.5-1.9-10.9-3.8-16.1c-1.9-5.3-4.3-10.5-7.1-15.5c-1.3-2.3-2.7-4.5-4.2-6.7
		c-1.1-1.6-2.4-3.1-3.6-4.7c-0.1-0.1-0.1-0.2-0.2-0.3c0.2,0.1,0.1-0.2-0.5-1.5c-5.1-10.4-20.2-11.2-27.9-3.6c-8,8-6.3,22.1,3.6,27.9
		c1.7,1,1.7,1,0.2,0.2c0.1,0.1,0.2,0.3,0.3,0.4c1.2,1.7,2.4,3.4,3.4,5.3c0.2,0.4,2,4.1,2,4c0.7,1.7,1.2,3.4,1.8,5.1
		c0.6,2,1.1,4.1,1.5,6.2c0.1,0.7,0.2,1.4,0.4,2c0,0.3,0.1,0.7,0.1,1.2c0.2,5.2,0,10.5,1.2,15.5c1.7,6.9,9,12.6,16.2,12.3
		c7.9-0.4,13.5-5.1,16.2-12.3C975.4,599.9,974.4,592.9,973.5,586.6z"/>
	<path fill="#FFFFFF" d="M1227,617.9c-0.9-9.6-3.1-18.3-7.2-27.1c-3.5-7.4-9-15.6-16.4-19.6c-4.9-4.3-12-5.1-17.2,0
		c-5.1,5.1-4.3,12-0.2,16.9c2.5,4.9,5.7,9.9,7.4,14.1c2.1,5.1,3.2,10.9,3.4,15.7c0.3,7.8,6.7,15.4,15,15
		C1219.5,632.6,1227.8,626.3,1227,617.9z"/>
</g>
</svg>
