<?xml version="1.0" encoding="utf-8"?>
<!-- Generator: Adobe Illustrator 21.0.2, SVG Export Plug-In . SVG Version: 6.00 Build 0)  -->
<svg version="1.1" id="_x31_3_x5F_EyeExpress_x5F_Zany"
	 xmlns="http://www.w3.org/2000/svg" xmlns:xlink="http://www.w3.org/1999/xlink" x="0px" y="0px" viewBox="0 0 2000 2000"
	 enable-background="new 0 0 2000 2000" xml:space="preserve">
<g>
	<path fill="#8d5548"  d="M1120.9,750.7c-3.5-2.8-6.5-5.9-9.5-9c-0.7-0.8-1.5-1.6-2.2-2.4c-0.7-0.8-1.4-1.7-2.1-2.5
		c-1.3-1.7-2.7-3.5-3.9-5.3c-1.3-1.8-2.5-3.7-3.8-5.5s-2.8-3.5-4.3-5.1c-0.8-0.8-1.5-1.6-2.4-2.4c-0.8-0.8-1.6-1.5-2.5-2.2l-5.1-4.4
		c-3.4-2.9-6.5-6.2-9.4-9.6c-2.9-3.4-5.7-7-8.5-10.6c-1.4-1.8-2.9-3.5-4.3-5.2c-1.5-1.7-3.4-3.1-5-4.7c-1.6-1.7-3-3.5-4.4-5.3
		c-0.7-0.9-1.4-1.8-2.1-2.8c-0.7-0.9-1.4-1.9-2.1-2.8c-2.7-3.9-5.2-8-7.2-12.6c-0.5-1.2-1-2.3-1.4-3.6l-0.6-1.9l-0.3-1l-0.2-1
		l-0.4-2c-0.1-0.7-0.2-1.4-0.2-2.1c0-0.7-0.2-1.5-0.1-2.2v-2.1c0-0.7,0.1-1.4,0.2-2.1l0.2-2c0.2-1.3,0.5-2.6,0.8-3.9
		c0.3-1.2,0.7-2.5,1-3.7l1.3-3.6l1.4-3.5l1.6-3.4c0.5-1.1,1.1-2.2,1.7-3.3c0.5-1.1,1.1-2.2,1.7-3.2c2.4-4.3,5-8.4,7.6-12.5
		c1.3-2.1,2.7-4.1,4.1-6.1l2.2-3c0.7-1,1.5-1.9,2.1-3.1c1.3-2.2,2.1-5,3.3-7.4c1.2-2.4,3-4.3,5-5.8c1-0.7,2.1-1.4,3.2-2
		s2.3-1,3.5-1.5c2.4-1,4.8-1.8,6.9-3c2.2-1.2,4.2-2.6,6.3-3.9l6.3-4c4.2-2.7,8.6-5.3,13.3-7.6l3.6-1.5c0.6-0.2,1.2-0.5,1.8-0.7
		l1.8-0.6c1.2-0.4,2.5-0.8,3.7-1.1c1.3-0.2,2.7-0.1,4.1,0.1c1.4,0.2,2.8,0.5,4.1,0.6c1.3,0,2.6-0.3,3.8-0.4c1.3-0.2,2.6-0.3,3.9-0.4
		c1.3-0.1,2.6-0.3,3.9-0.3c2.6-0.1,5.2-0.2,7.8-0.1c1.3,0,2.6,0,3.9,0.1l3.8,0.3c5.2,0.5,10.5,1.2,16.2,3c1.4,0.5,2.8,0.9,4.3,1.5
		c0.7,0.3,1.4,0.6,2.1,0.9l2.2,1.1c2.9,1.5,5.7,3.4,8.3,5.8c2.6,2.3,4.8,5,6.6,7.9c1.8,2.8,3,5.7,4,8.5c2,5.6,2.7,10.7,3.5,15.4
		c0.7,4.7,1.3,9.1,1.9,13.3c0.3,2.1,0.7,4.1,1,6.1c0.4,2,0.8,3.9,1.6,5.7c0.9,1.8,2.2,3.5,3.5,5.2s2.6,3.4,3.3,5.3
		c1.6,3.9,3.1,7.9,4.3,12.2c1.3,4.3,2.5,8.8,3.7,13.5c0.3,1.1,0.6,2.3,1,3.5c0.2,0.6,0.3,1.2,0.5,1.8l0.5,1.8l0.5,1.8
		c0.2,0.6,0.4,1.2,0.5,1.8c0.3,1.3,0.8,2.5,1.1,3.7c0.4,1.3,0.8,2.6,1.2,3.9c0.4,1.3,0.7,2.7,1,4.1c0.4,1.4,0.4,2.9,0.5,4.4
		c0,0.8,0.1,1.4,0,2.3c0,0.8-0.1,1.6-0.2,2.5c-0.4,3.3-1.6,6.4-3.1,9.3c-1.6,2.9-3.4,5.4-5,8c-1.6,2.5-3.2,5-4.5,7.6
		c-1.4,2.7-2.6,5.5-4.2,8.1c-0.8,1.3-1.7,2.5-2.7,3.6c-0.5,0.5-1,1.1-1.6,1.5c-0.5,0.5-1.1,0.9-1.7,1.3c-2.4,1.6-4.9,3-7.5,4.2
		s-5.2,2.1-7.9,2.9c-2.7,0.8-5.4,1.3-8.2,1.7c-2.7,0.4-5.5,0.6-8.3,0.7c-2.8,0-5.6,0.1-8.5-0.1c-1.4-0.1-2.7-0.2-4.1-0.4l-2-0.2
		c-0.7-0.1-1.3-0.2-2-0.3l-4-0.6c-1.3-0.2-2.7-0.5-4-0.8c-1.3-0.2-2.6-0.6-4-0.9l-2-0.5c-0.6-0.2-1.3-0.4-1.9-0.6
		c-1.3-0.4-2.6-0.8-3.8-1.3c-1.2-0.5-2.5-1-3.7-1.5s-2.4-1.2-3.5-1.8c-0.6-0.3-1.2-0.6-1.7-1s-1.1-0.7-1.6-1.1
		c-2.1-1.5-3.9-3.5-5.8-5.2c-1.8-1.8-3.8-3.3-5.9-4.8c-2.1-1.4-4.2-2.7-6.4-4c-4.3-2.7-7.9-6.2-10.3-10.7c-0.6-1.1-1.1-2.3-1.6-3.4
		c-0.5-1.2-1-2.3-1.5-3.4c-1-2.3-2.3-4.3-3.6-6.3c-2.7-3.9-6.4-7.2-9.1-11.3c-2.6-4.1-4.7-8.5-6.3-13.3c-0.2-0.6-0.4-1.2-0.6-1.9
		c-0.2-0.6-0.4-1.3-0.6-1.9l-0.3-1l-0.3-1.1l-0.3-1.2l-0.3-1.5l-0.1-0.4c0-0.1-0.1-0.4-0.1-0.7c-0.1-0.5-0.1-1-0.1-1.5v-0.7v-0.6
		l0.1-1.1c0-0.4,0.1-0.7,0.1-1.1l0.1-0.5c0-0.2,0.1-0.3,0.1-0.4c0.1-0.6,0.3-1.1,0.5-1.7l0.3-0.8l0.3-0.7l0.5-1.3l0.3-0.7l0.3-0.6
		l0.6-1.1c0.4-0.8,0.8-1.4,1.1-2c0.4-0.7,0.7-1.3,1.1-1.9l2.1-3.6c1.4-2.3,2.6-4.6,4-6.8c0.3-0.5,0.7-1.1,1-1.6l1.1-1.5
		c0.7-1,1.6-2,2.4-2.9c1.7-1.8,3.6-3.3,5.5-4.9c3.8-3,8.1-5.4,12.4-7.6l13-6.4c2.2-1.1,4-2.8,6.1-4.1c0.5-0.3,1.1-0.6,1.7-0.9
		c0.6-0.3,1.2-0.5,1.8-0.7c1.2-0.5,2.4-0.9,3.7-1.3c2.6-0.7,5.2-1.3,8.1-1.7c0.4,0,0.7-0.1,1.1-0.1l1.2-0.1l1.2-0.1
		c0.4,0,0.9,0,1.3,0h1.3h0.3c0.1,0,0.4,0,0.5,0c0.4,0,0.8,0.1,1.2,0.1c0.8,0.1,1.5,0.3,2.2,0.5c0.6,0.2,1.4,0.5,1.9,0.8
		c2.3,1.2,3.8,2.6,4.9,3.9c1.2,1.3,2,2.6,2.8,3.8c1.5,2.5,2.5,4.8,3.5,7.2c1.8,4.6,3.1,9.2,4.2,13.7c2.2,9,3.8,18,5.1,27
		c0.6,4.5,1.2,9,1.7,13.5l0.7,6.8v0.4c0-0.2,0.1,0.4,0.1,0.8v0.2l-0.1,1c0,0.7-0.1,1.3-0.2,2c-0.2,1.3-0.5,2.7-1,4
		c-0.9,2.6-2.4,5.2-4.4,7.2c-2,2.1-4.5,3.5-7.1,4.4s-5.2,1.2-7.7,1.3c-2.5,0-5-0.3-7.4-0.8c-4.8-1.1-9.2-3-13.2-5.9
		c-3.9-2.7-7.4-6.5-9.3-11c-0.9-2.3-1.3-4.8-1.3-7.3c0.1-2.5,0.7-4.9,1.7-7.1c2-4.4,5.2-7.9,8.6-10.8l0,0c0.4-0.3,0.9-0.3,1.3,0.1
		c0.3,0.4,0.3,0.9-0.1,1.2c-3.2,3-6,6.4-7.6,10.4c-0.8,2-1.2,4.1-1.2,6.2c0.1,2.1,0.5,4.2,1.4,6.1c1.8,3.8,4.9,7,8.5,9.3
		c3.6,2.4,7.8,3.9,12,4.7s8.7,0.7,12.6-0.8c1.9-0.8,3.7-1.9,5.1-3.4s2.4-3.4,3-5.4c0.3-1,0.5-2,0.6-3.1c0.1-0.5,0.1-1.1,0.1-1.6
		v-0.8v-0.2c0,0,0,0.1,0-0.1l-0.1-0.4c-0.3-2.2-0.7-4.4-1-6.6c-0.7-4.4-1.5-8.8-2.4-13.1c-1.7-8.7-3.7-17.4-6.3-25.9
		c-1.3-4.2-2.7-8.4-4.5-12.4c-0.9-2-1.9-3.9-3.1-5.7s-2.6-3.4-4.2-4.2c-0.8-0.4-1.5-0.4-2.6-0.3c-0.5,0-1,0.1-1.5,0.2
		c-0.5,0.1-1,0.2-1.5,0.3c-2.1,0.5-4.1,1.3-6.1,2.2c-3.9,1.8-7.9,3.9-11.6,6.1c-3.7,2.4-7.3,5-10.8,7.6c-3.5,2.7-6.9,5.5-10.2,8.5
		l-4.9,4.5c-0.8,0.7-1.6,1.5-2.4,2.3s-1.6,1.5-2.4,2.3c-1.5,1.6-3,3.2-4.4,4.9c-0.7,0.8-1.4,1.7-2,2.6c-0.6,0.9-1.2,1.8-1.7,2.7
		c-1,1.8-1.8,3.9-1.4,5.4c0.5,1.9,1.3,4,2.1,6c1.7,4,3.8,7.9,5.9,11.8c2.1,3.9,4.4,7.7,6.9,11.4s5.3,7.1,8.3,10.4
		c1.5,1.6,3,3.3,4.5,4.9c1.5,1.7,3,3.2,4.6,4.8c3.2,3,6.5,6,10.1,8.5s7.5,4.6,11.4,6.5s8.1,3.3,12.3,4.3c4.2,1,8.6,1.4,12.9,1.4
		c4.3-0.1,8.6-0.8,12.8-2c4.2-1.1,8.3-2.7,12.1-4.7c1.9-1,3.8-2.1,5.6-3.3c1.8-1.1,3.6-2.4,5.3-3.7c3.4-2.6,6.4-5.8,8.5-9.6
		c1.1-1.9,1.8-3.9,2.5-5.9c0.6-2.1,0.9-4.2,1-6.3c0.2-4.2-0.2-8.6-1.2-12.9c-0.9-4.3-2.4-8.5-3.9-12.6c-3.2-8.3-6.9-16.4-10.1-24.8
		c-1.6-4.2-2.8-8.6-4-12.9c-0.5-2.2-1.1-4.4-1.6-6.6c-0.5-2.2-0.9-4.4-1.3-6.6c-0.8-4.4-1.4-8.9-2.1-13.2c-0.8-4.4-1.7-8.7-3.2-12.7
		c-0.8-2-1.7-3.9-2.9-5.7c-1.2-1.7-2.6-3.3-4.1-4.7c-3.2-2.7-7.1-4.4-11.3-5.5c-8.4-2.1-17.4-2-26-1.2c-4.3,0.5-8.7,1.1-12.9,2.5
		c-4.2,1.3-8.4,2.4-12.5,3.9c-4.1,1.6-8.2,3.2-12.1,5.2c-4,1.9-7.8,4-11.5,6.4c-1.8,1.2-3.7,2.4-5.4,3.8c-0.9,0.7-1.8,1.3-2.6,2
		c-0.9,0.7-1.7,1.3-2.6,2c-3.4,2.7-7.1,5.2-10.5,8s-6.5,6-9.5,9.2s-5.8,6.6-8.4,10.2c-2.5,3.6-4.9,7.3-6.7,11.3
		c-1.8,4-3.2,8.2-3.5,12.4c-0.4,4.2,0.7,8.4,2.3,12.5c1.7,4,3.9,7.8,6.3,11.5s5.1,7.2,7.8,10.7c1.3,1.8,2.7,3.5,4.1,5.2
		s2.9,3.3,4.4,5c6,6.6,12.4,12.8,18.5,19.3c3.1,3.2,6.2,6.4,9.4,9.5c1.6,1.6,3.2,3.1,4.9,4.6c1.7,1.5,3.4,3,5.1,4.5
		c3.4,3,6.5,6.3,9.3,9.9c2.8,3.6,5.4,7.5,7.1,11.9c0.6,1.6-0.1,3.3-1.7,3.9c-1.1,0.4-2.2,0.2-3-0.5L1120.9,750.7z"/>
	<path fill="#8d5548"  d="M884.8,663.9c1.7-2.4,3.7-4.6,6-6.5c2.2-2,4.6-3.8,7.2-5.3c2.6-1.6,5.7-2.3,8.7-2.9c3-0.7,6.1-1.3,9.3-1
		c3.2,0.2,6.3,1.5,8.9,3.2c1.3,0.9,2.5,1.7,3.6,2.8s2.1,2.1,3.1,3.2c2,2.3,3.6,4.7,5,7.4s2.5,5.4,3.2,8.4c0.2,0.8,0.3,1.6,0.4,2.4
		c0,0.2,0.1,0.4,0,0.7v0.8c0,0.5-0.1,1.1-0.2,1.5c-0.1,0.5-0.2,0.9-0.4,1.4l-0.5,1.2c-0.2,0.4-0.4,0.8-0.6,1.2l-0.6,1.1
		c-1.7,2.8-3.6,5.1-5.7,7.3c-4.1,4.3-8.5,8.1-13.1,11.7c-2.3,1.8-4.6,3.5-7,5.1s-4.9,3.1-7.4,4.4c-2.5,1.3-5.3,2.3-8.1,3.2
		s-5.4,2-8.2,3.2l-1.1,0.5l-1.2,0.4c-0.2,0.1-0.5,0.1-0.7,0.2l-0.4,0.1c-0.1,0-0.2,0.1-0.4,0.1c-0.4,0.1-0.8,0.1-1.2,0.1
		c-0.3,0-0.6,0-0.9,0c-2.4-0.2-4.4-1.1-5.9-2.1c-3.1-2.1-5.1-4.6-7-7.1c-3.7-5-6.4-10.2-9.1-15.4c-2.6-5.2-4.8-10.6-6.9-16
		c-0.5-1.4-1-2.7-1.5-4.1c-0.5-1.4-1-2.7-1.7-4.1c-0.7-1.3-1.5-2.6-2-4s-0.7-2.9-1-4.3c-0.6-2.9-0.9-5.9-1.1-9.1
		c-0.1-1.6-0.1-3.2,0-5.1c0.1-1.7,0.2-3.2,0.5-4.9c0.9-6.4,2.6-12.8,5.4-18.8c1.4-3,3-5.9,4.9-8.7s4.1-5.3,6.5-7.7
		c1.2-1.2,2.4-2.3,3.8-3.3c1.3-1,2.7-2,4.1-2.9c2.8-1.8,5.8-3.3,9-4.2s6.4-1.5,9.6-1.9c3.2-0.4,6.4-0.9,9.7-1h1.2h0.6
		c0.2,0,0.3,0,0.7,0c0.6,0,1.3,0.1,1.8,0.1l1.5,0.2c0.5,0.1,0.9,0.2,1.3,0.3c0.4,0.1,0.9,0.2,1.3,0.3c0.8,0.2,1.6,0.4,2.4,0.6
		c3.1,0.9,6,1.9,8.8,3s5.6,2.2,8.3,3.5c2.7,1.2,5.4,2.6,8.1,3.9c2.7,1.3,5.3,2.8,7.9,4.4c0.7,0.4,1.3,0.8,2,1.1s1.5,0.6,2.2,0.8
		c1.6,0.5,3.3,0.8,4.6,1.6c5.1,3.6,9.7,8.2,13.6,13.6c1,1.3,2,2.7,2.8,4.1c0.4,0.7,0.9,1.4,1.3,2.2l1.2,2.3c0.4,0.7,0.8,1.5,1.2,2.3
		s0.8,1.6,1.1,2.4c0.6,1.7,1.4,3.2,1.9,5c1.2,3.4,1.9,7,2.3,10.6l0.2,2.8c0,0.5,0.1,0.9,0.1,1.4v1.2v2.5c0,0.8,0,1.6-0.1,2.4
		c-0.1,1.6-0.1,3.3-0.3,4.8c-0.2,1.6-0.3,3.2-0.5,4.8s-0.5,3.1-0.7,4.7c-0.3,1.6-0.5,3.1-0.7,4.7c-0.4,3.2-0.9,6.4-1.7,9.4
		c-0.4,1.6-0.9,3-1.5,4.5s-1.1,2.9-1.8,4.3c-0.6,1.4-1.2,2.9-1.9,4.3l-2.1,4.1c-0.7,1.3-1.5,2.7-2.2,4c-0.8,1.3-1.6,2.6-2.5,3.9
		c-1.6,2.6-3.4,5-5.3,7.4c-0.9,1.2-1.9,2.4-2.8,3.6c-1,1.2-2,2.3-3.1,3.3s-2.4,2-3.6,2.9c-1.2,0.9-2.5,1.8-3.7,2.8
		c-1.1,1-2.3,1.9-3.4,3c-0.5,0.5-1.1,1.1-1.6,1.6l-1.6,1.6c-4.3,4.2-8.8,8.1-13.6,11.8c-4.7,3.8-9.8,7.3-15.4,10.4
		c-2.9,1.6-5.8,3.1-9.5,4.2c-0.5,0.1-0.9,0.3-1.3,0.4l-1.5,0.3l-1.5,0.3c-0.5,0.1-1.1,0.1-1.7,0.2l-1.7,0.1c-0.2,0-0.8,0-1.3,0
		s-1-0.1-1.5-0.1c-0.4-0.1-0.8-0.2-1.2-0.2c-0.4-0.1-0.8-0.2-1.1-0.3c-0.7-0.2-1.4-0.4-1.9-0.7c-2.3-1-4-2-5.5-3s-2.8-2.1-4.1-3.1
		c-2.5-2.1-4.7-4.3-6.9-6.4c-2.2-2.1-4.7-3.9-7.1-5.8c-2.4-1.9-4.6-3.9-6.4-6.3c-3.8-4.6-7.1-9.4-10.2-14.3
		c-6.3-9.8-11.7-20-18.2-29.7c-1.6-2.4-3.3-4.8-4.9-7.3c-0.8-1.2-1.6-2.5-2.4-3.7c-0.8-1.3-1.5-2.5-2.3-3.8
		c-1.4-2.6-2.8-5.3-3.9-8.1c-0.6-1.4-1.1-2.8-1.4-4.3c-0.4-1.5-0.5-3-0.7-4.6c-0.2-3.2-0.2-6.4-0.7-9.4c-0.2-1.5-0.6-3-0.9-4.6
		c-0.3-1.5-0.5-3.1-0.7-4.7c-0.4-3.2-0.6-6.4-0.6-9.9c0.1-3.5,0.4-6.8,1.1-10c0.7-3.2,1.4-6.3,2.4-9.3c0.5-1.5,1-3,1.5-4.5
		c0.6-1.4,1.1-2.9,1.8-4.4c0.3-0.7,0.6-1.4,1-2.2l1-2.1c0.6-1.4,1.4-2.8,2.1-4.2l2.4-4.1c0.8-1.4,1.4-2.8,2-4.3s1.1-3.1,1.8-4.7
		c0.3-0.8,0.6-1.6,1-2.3s0.8-1.5,1.2-2.2c0.8-1.4,1.9-2.7,3.1-3.8c1.1-1.2,2.4-2.2,3.6-3.3c5-4.2,11-7.1,16.9-9.5
		c5.9-2.5,11.8-4.6,17.6-7.2c2.9-1.3,5.7-2.9,8.7-4.4l2.2-1.1c0.7-0.3,1.5-0.7,2.3-1c1.5-0.6,3.1-1.2,4.6-1.6
		c12.7-3,25.8,0,37.5,4.2c5.9,2.1,11.7,4.3,17.4,6.5s11.6,3.8,17.3,6.1s11.1,5.6,15.6,9.9c4.5,4.3,8,9.7,11.6,14.6
		c1.8,2.4,3.6,4.9,5.6,7.1c2,2.3,4.2,4.4,6,6.9c0.5,0.6,0.9,1.3,1.3,1.9l1.2,2c0.7,1.4,1.3,2.8,1.9,4.2c1.1,2.9,2.1,5.9,2.6,8.9
		l0.4,2.3c0.1,0.8,0.2,1.5,0.3,2.3c0.2,1.5,0.3,3.1,0.4,4.6c0.1,1.5,0.1,3.1,0.1,4.6c-0.1,0.8,0,1.5-0.1,2.3v1.1v1
		c-0.1,2.7-0.1,5.4,0.4,8.1c0.5,2.7,1.7,5.3,2.8,8.1l0.8,2.1c0.3,0.7,0.5,1.4,0.7,2.2c0.4,1.4,0.7,3,0.8,4.5c0.3,3.1-0.1,6.3-1,9.4
		c-0.9,3.1-2.4,5.9-3.9,8.6l-0.6,1c-0.2,0.3-0.3,0.7-0.5,1c-0.4,0.7-0.8,1.3-1.1,2c-0.7,1.3-1.3,2.7-2,3.9c-1.4,2.6-2.8,5.1-4.3,7.5
		c-1.4,2.5-2.8,5-4.1,7.5l-0.9,1.9c-0.3,0.6-0.7,1.3-1,1.9c-0.6,1.3-1.1,2.6-1.6,4c-0.2,0.7-0.4,1.4-0.6,2.1
		c-0.2,0.7-0.5,1.5-0.8,2.3c-0.6,1.6-1.3,3-2.2,4.3c-0.2,0.3-0.4,0.7-0.7,1c-0.2,0.3-0.5,0.6-0.7,0.9c-0.5,0.6-1,1.2-1.6,1.7
		c-1.1,1.1-2.2,2.1-3.3,3c-0.6,0.5-1.1,0.9-1.7,1.3c-0.6,0.4-1.2,0.9-1.8,1.3c-1.2,0.8-2.4,1.6-3.6,2.3c-4.9,2.9-9.4,6.1-13.9,9.4
		c-4.4,3.3-8.6,6.8-12,11c-0.9,1-1.7,2.1-2.5,3.1c-0.9,1-1.5,2.2-2.3,3.3c-1.5,2.2-2.6,4.6-3.7,7l-0.1,0.3c-1.1,2.5-4,3.5-6.5,2.4
		s-3.5-4-2.4-6.5c0.2-0.4,0.4-0.7,0.6-1c1.9-2.4,3.6-4.8,5.6-7.1l1.4-1.7c0.5-0.6,1-1.1,1.5-1.6c1-1.1,2-2.2,3-3.2s2.1-2,3.1-3.1
		c1-1,2.1-2,3.2-3c1.1-1,2.1-1.9,3.2-2.9c1.1-1,2.2-1.9,3.2-2.8c4.3-3.7,8.9-7.2,13.2-10.7s8.6-6.9,12.5-10.2c4-3,7.9-7.6,10.6-12.4
		c1.4-2.4,2.8-4.8,3.9-7.4c0.5-1.3,1.1-2.5,1.6-3.8l1.4-3.9c0.5-1.3,0.9-2.6,1.2-3.9c0.4-1.3,0.7-2.7,0.9-4c0.5-2.7,0.7-5.4,0.9-8.1
		c0.3-5.3,0.2-10.6,0.3-16.3c0-2.8,0-5.6-0.1-8.5c-0.1-1.4-0.1-2.8-0.2-4.2c-0.1-1.4-0.1-2.8-0.1-4.3c0-1.4-0.1-2.7-0.2-4.1
		c-0.2-1.4-0.3-2.7-0.6-4.1c-0.3-1.3-0.5-2.7-1-4c-0.2-0.7-0.4-1.3-0.6-2l-0.7-1.9c-1-2.6-2.1-5-3.3-7.5c-1.3-2.4-2.7-4.8-4.2-7.1
		s-3-4.6-4.7-6.8s-3.6-4.2-5.6-6.1c-4-3.8-8.4-7.2-12.9-10.3c-2.3-1.6-4.6-3-6.9-4.5c-1.2-0.7-2.4-1.4-3.6-2.1l-3.6-2
		c-4.9-2.6-9.9-4.8-15.1-6.6c-5.2-1.7-10.6-3.1-16-3.9c-5.4-0.9-10.9-1.3-16.4-1.3c-5.5-0.1-11,0.2-16.4,0.8s-10.9,1.3-16.2,2.9
		c-1.3,0.4-2.6,0.8-3.9,1.3c-1.3,0.5-2.6,1-3.8,1.5l-3.8,1.7l-3.6,2c-4.8,2.7-9.2,6-13.4,9.6c-1,0.9-2.1,1.8-3,2.8c-1,1-2,1.9-3,2.9
		c-0.5,0.5-1,1-1.5,1.5s-0.9,1-1.4,1.5c-1,1-1.9,2-2.8,3.1c-3.5,4.2-6.3,9.1-8.7,14.1c-1.2,2.5-2.2,5.1-3,7.7c-0.9,2.6-1.5,5.3-2,8
		s-0.6,5.5-0.5,8.2s0.5,5.5,1,8.2c1.1,5.4,2.8,10.7,4.9,15.9l3.2,7.7c1.1,2.6,2.2,5.1,3.4,7.6c2.3,5.1,4.9,10,7.5,15
		c1.3,2.5,2.7,4.9,4.1,7.3c1.4,2.4,2.9,4.8,4.4,7.2c3,4.7,6,9.4,9.2,14s6.5,9.1,10,13.5c3.4,4.4,6.9,8.8,10.7,12.9
		c1.9,2,3.9,4,6,5.8s4.3,3.5,6.6,4.5c0.6,0.3,1.2,0.4,1.7,0.5c0.3,0,0.5,0.1,0.8,0l1-0.1c0.3,0,0.6,0,1-0.1l1-0.2l1-0.2
		c0.3-0.1,0.6-0.2,1-0.3c2.6-0.8,5-2,7.4-3.4c4.8-2.7,9.3-6,13.5-9.6c4.3-3.6,8.3-7.4,12.1-11.5c2-2,3.8-4.1,5.5-6.3
		c1.8-2.1,3.5-4.3,5.2-6.5c1.6-2.3,3.3-4.5,4.9-6.7c0.8-1.1,1.6-2.3,2.4-3.4c0.8-1.1,1.6-2.3,2.3-3.5c3-4.7,5.7-9.5,8.1-14.5
		c2.4-5,4.6-10.1,6.3-15.4c1.8-5.2,2.9-10.7,3.3-16.2c0.2-2.7,0.3-5.5,0.1-8.2c-0.3-2.7-0.8-5.4-1.8-7.9c-1.8-5.1-4.9-9.8-8.4-14
		s-7.7-7.9-12-11.3l-3.2-2.6c-0.5-0.4-1.1-0.8-1.7-1.3c-0.6-0.4-1.1-0.8-1.7-1.2c-2.3-1.5-4.7-3-7.1-4.4c-4.8-2.8-9.8-5.2-15-7.3
		c-2.6-1-5.2-2-7.8-2.7c-1.3-0.4-2.6-0.7-4-0.9l-1-0.1l-0.9-0.1c-0.7,0-1.4,0-2,0c-5.5,0.2-10.9,1.4-16,3.4s-9.9,4.7-14.1,8.2
		c-4.2,3.5-7.7,7.8-10.1,12.7c-2.5,4.8-3.9,10.2-4.2,15.7c-0.1,1.4-0.1,2.7-0.1,4.1c0,1.3,0.2,2.7,0.3,4c0.3,2.7,0.8,5.5,1.4,8.2
		c2,10.9,5.1,21.7,9.3,32.1c2.1,5.1,4.5,10.2,7.5,14.8c1.5,2.2,3.3,4.4,5.4,5.9c1.1,0.7,2.2,1.3,3.4,1.4h0.4c0.1,0,0.2,0,0.4,0
		c0.3-0.1,0.6-0.1,0.9-0.2c0.6-0.2,1.3-0.4,1.9-0.7c2.5-1,5-2.3,7.5-3.7c2.4-1.3,4.9-2.7,7.2-4.2c4.8-2.8,9.6-5.7,14.2-8.9
		c4.6-3.1,9.1-6.4,13.2-10.1c2-1.9,4-3.8,5.5-6c0.3-0.6,0.8-1.1,1-1.7l0.4-0.9l0.3-0.9c0.1-0.3,0.1-0.6,0.2-0.9
		c0-0.3,0.1-0.6,0.1-0.9c0-0.6-0.1-1.3-0.2-2c-0.4-2.7-1.3-5.3-2.3-7.8c-1.1-2.5-2.4-4.9-4.1-7.1c-1.7-2.1-3.8-3.9-6.2-5.1
		c-2.4-1.1-5-1.4-7.6-1.3c-2.6,0.1-5.1,0.7-7.5,1.8s-4.4,3-6.7,4.1c-4.6,2.6-8.8,5.8-13.2,9c-1.2,0.9-2.8,0.6-3.6-0.5
		C884.1,666.1,884.1,664.8,884.8,663.9L884.8,663.9z"/>
</g>
</svg>
