<?xml version="1.0" encoding="utf-8"?>
<!-- Generator: Adobe Illustrator 21.0.2, SVG Export Plug-In . SVG Version: 6.00 Build 0)  -->
<svg version="1.1" id="_x31_5_x5F_EyeExpress_x5F_Winking"
	 xmlns="http://www.w3.org/2000/svg" xmlns:xlink="http://www.w3.org/1999/xlink" x="0px" y="0px" viewBox="0 0 2000 2000"
	 enable-background="new 0 0 2000 2000" xml:space="preserve">
<g>
	<path fill="#DBECF1" d="M956.1,674.8c-0.3-6.9,1.7-29.4-11.2-52.8c-21.4-24-57.5-55.3-82.9-29c-22.1,21.4-18.8,52.9-17.6,83.7
		c0.5,1.6,0.9,2.5,0.9,2.5c6.5,17.4,34.8,77.3,70.8,74.5S956.6,685.3,956.1,674.8z"/>

		<ellipse transform="matrix(0.9708 -0.24 0.24 0.9708 -140.2066 236.8859)" fill="#A34F3E" cx="902.5" cy="694.1" rx="36.4" ry="60.8"/>

		<ellipse transform="matrix(0.9708 -0.24 0.24 0.9708 -140.2066 236.8859)" opacity="0.18" enable-background="new    " cx="902.5" cy="694.1" rx="36.4" ry="60.8"/>

		<ellipse transform="matrix(0.9708 -0.24 0.24 0.9708 -140.2066 236.8859)" fill="#A34F3E" cx="902.5" cy="694.1" rx="32.3" ry="53.9"/>
	<path fill="#8d5548"  d="M1181.8,688.6c1,1.4,0.3,3-3.5,4.9c-7.6,3.9-14.5,7.8-22.6,11.8c-6.9,3.4-11.9,6.1-19.6,10.9
		c-4.7,3-6.5,4.4-15.8,10.9c-4.6,3.2-12,11.6-21.6,15.2c31-33.6,39.6-37.6,56.6-46.6c0,0,5.9-3.1,20.1-7.2
		C1176.6,688.1,1180.7,687.3,1181.8,688.6z"/>
	<path fill="#8d5548"  d="M1183.2,702.8c0.8-0.2,1.1,1,0.4,1.2c-4.5,1.6-18.6,6.6-23,8.3c-3.8,1.6-7.6,3.1-11.3,4.8
		c-1.9,0.8-3.7,1.6-5.6,2.5c-1.8,0.9-3.7,1.7-5.5,2.7c-1.8,0.9-3.7,1.8-5.5,2.8c-1.8,0.9-3.6,1.9-5.4,2.9c-3.6,1.9-7,4-10.5,6.2
		s-7,4.4-10.7,6.2s-7.8,3.1-12,3.2c4-0.8,7.8-2.4,11.3-4.5s6.7-4.6,10.1-6.9c6.7-4.8,13.9-8.9,21.3-12.6c7.4-3.6,15.1-6.8,22.9-9.4
		C1164.2,708.6,1178.6,703.9,1183.2,702.8z"/>
	<path fill="#8d5548"  d="M1096.2,742c0.2-0.1,0.6-0.3,0.9-0.5s0.6-0.5,0.9-0.8c0.6-0.6,1.2-1.2,1.7-1.9c1-1.3,1.9-2.8,2.7-4.3
		c1.7-3.1,3.3-6.2,5-9.2c1.7-3.1,3.5-6.1,5.4-9c0.9-1.5,1.9-3,2.9-4.4c1-1.5,2-2.9,3.1-4.3c4.3-5.6,9.1-10.8,14.3-15.6
		c2.6-2.4,5.3-4.7,8-6.9c2.8-2.1,5.6-4.2,8.6-6.1l0.6,0.8c-5.4,4.4-10.6,9-15.5,13.9c-2.4,2.5-4.8,5-7.1,7.6c-2.3,2.6-4.5,5.2-6.6,8
		c-1.1,1.4-2.1,2.7-3,4.2l-2.9,4.3c-1.9,2.9-3.8,5.8-5.6,8.8l-5.5,8.9c-1,1.5-2,3-3.2,4.3c-0.6,0.7-1.2,1.3-2,1.9
		c-0.4,0.3-0.7,0.6-1.2,0.8c-0.4,0.2-0.8,0.4-1.5,0.5L1096.2,742z"/>
	<path fill="#C6D9D5" d="M862,593c25.5-21.6,61.9,7,82.9,29c-6.9-12.5-18.1-25.4-36.1-36.2C857,554.6,842.4,606,842.4,606
		c-8.5,33.6-0.7,62.4,2,70.8C843.2,645.9,839.9,614.4,862,593z"/>
	<path fill="#8d5548"  d="M843.2,676.5c-3-7.9-5-16.2-6.5-24.6c-1.4-8.4-2.2-17-1.9-25.6c0.1-4.3,0.5-8.7,1.3-13s1.9-8.6,3.6-12.7
		c1.7-4.2,3.9-8.1,6.7-11.8c2.9-3.6,6.4-6.7,10.4-9.1c3.9-2.4,8.3-4.1,12.8-5c2.2-0.5,4.5-0.8,6.8-0.9c2.3-0.1,4.5,0,6.7,0.2
		c4.4,0.4,8.8,1.1,13,2.5c4.2,1.3,8.3,2.9,12.2,5l1.5,0.8c0.5,0.3,0.9,0.6,1.4,0.8l2.8,1.7c0.9,0.6,1.8,1.2,2.7,1.9
		c0.9,0.6,1.8,1.2,2.6,2c3.4,2.8,6.6,5.7,9.4,8.9c5.7,6.4,10.6,13.5,14.4,21c-5.2-6.7-10.6-13.1-16.8-18.6c-3-2.8-6.3-5.3-9.7-7.6
		c-0.8-0.6-1.7-1.1-2.6-1.6c-0.9-0.5-1.7-1.1-2.6-1.6l-2.7-1.4c-0.5-0.2-0.9-0.5-1.4-0.7l-1.4-0.6c-7.4-3.3-15.3-5.4-23.3-5.7
		c-2-0.1-4-0.1-5.9,0s-3.8,0.4-5.7,0.8c-3.7,0.9-7.4,2.3-10.6,4.3c-3.3,1.9-6.2,4.5-8.6,7.4c-2.4,3-4.4,6.4-6,10
		c-3.2,7.3-4.8,15.3-5.6,23.5c-0.4,4.1-0.5,8.2-0.6,12.4c0,4.2,0.1,8.3,0.4,12.5C840.7,659.8,841.7,668.1,843.2,676.5z"/>
	<path fill="#FFFFFF" d="M918.7,648.3c2.7,12.6-1.1,24.2-8.5,25.7c-7.4,1.6-15.5-7.4-18.2-20.1s0.2-25.5,7.6-27.1
		C906.9,625.3,916,635.6,918.7,648.3z"/>
</g>
</svg>
