<?xml version="1.0" encoding="utf-8"?>
<!-- Generator: Adobe Illustrator 21.0.2, SVG Export Plug-In . SVG Version: 6.00 Build 0)  -->
<svg version="1.1" id="Layer_1" xmlns="http://www.w3.org/2000/svg" xmlns:xlink="http://www.w3.org/1999/xlink" x="0px" y="0px"
	 viewBox="0 0 48 48" enable-background="new 0 0 48 48" xml:space="preserve">
<title>01-eyeexpresion-happyclosed</title>
<path fill="#703628" d="M26.1,30.8c0.8,0.7,1.8,1.2,2.9,1.3c0.5,0.1,1,0.1,1.6,0c0.3,0,0.5-0.1,0.8-0.1l0.4-0.1
	c0.1,0,0.2-0.1,0.4-0.1l0.4-0.1c0.1,0,0.2-0.1,0.3-0.2c0.2-0.1,0.4-0.3,0.7-0.4c0.4-0.3,0.8-0.7,1.2-1.1c0.7-0.8,1.4-1.8,1.9-2.8
	c-0.1,1.2-0.6,2.3-1.2,3.3c-0.3,0.5-0.7,1-1.2,1.4c-0.2,0.2-0.5,0.4-0.8,0.5c-0.1,0.1-0.3,0.2-0.4,0.2l-0.4,0.2
	C32.3,33,32.2,33,32,33c-0.2,0-0.3,0.1-0.5,0.1l-0.5,0c-0.2,0-0.3,0-0.5,0l-0.5,0c-0.2,0-0.3,0-0.5,0c-0.2,0-0.3,0-0.5-0.1
	c-0.1,0-0.3-0.1-0.4-0.1C27.7,32.7,26.7,31.9,26.1,30.8z"/>
<path fill="#703628" d="M26.7,21.8c0.5-1.3,1.1-2.6,1.9-3.8c0.4-0.6,0.8-1.2,1.3-1.7c0.5-0.5,1.1-1,1.8-1.3c0.3-0.1,0.7-0.2,1.1-0.3
	c0.4,0,0.7,0,1.1,0.2c0.7,0.3,1.2,0.9,1.5,1.6c0.5,1.4,0.6,2.8,0.5,4.2c0-0.7,0-1.4-0.1-2.1c-0.1-0.7-0.3-1.4-0.5-2
	c-0.2-0.6-0.7-1.2-1.4-1.4c-0.3-0.1-0.7-0.2-1-0.1c-0.3,0-0.7,0.1-1,0.2c-0.6,0.3-1.2,0.7-1.7,1.2c-0.5,0.5-0.9,1-1.3,1.6
	c-0.4,0.6-0.8,1.2-1.1,1.8C27.4,20.5,27,21.1,26.7,21.8z"/>
<path fill="#703628" d="M21.9,30.8c-0.6,1.1-1.6,1.8-2.7,2.2c-0.1,0-0.3,0.1-0.4,0.1c-0.1,0-0.3,0.1-0.5,0.1c-0.2,0-0.3,0-0.5,0
	l-0.5,0c-0.2,0-0.3,0-0.5,0l-0.5,0c-0.2,0-0.3-0.1-0.5-0.1c-0.2,0-0.3-0.1-0.5-0.1l-0.4-0.2c-0.1-0.1-0.3-0.1-0.4-0.2
	c-0.3-0.2-0.5-0.3-0.8-0.5c-0.5-0.4-0.9-0.8-1.2-1.4c-0.7-1-1.1-2.1-1.2-3.3c0.5,1,1.1,1.9,1.9,2.8c0.3,0.4,0.7,0.8,1.2,1.1
	c0.2,0.2,0.4,0.3,0.7,0.4c0.1,0.1,0.2,0.1,0.3,0.2l0.4,0.1c0.1,0,0.2,0.1,0.4,0.1l0.4,0.1c0.3,0,0.5,0.1,0.8,0.1c0.5,0.1,1,0,1.6,0
	C20,32,21.1,31.6,21.9,30.8z"/>
<path fill="#703628" d="M21.3,21.8c-0.3-0.6-0.6-1.3-1-1.9c-0.3-0.6-0.7-1.2-1.1-1.8c-0.4-0.6-0.8-1.1-1.3-1.6
	c-0.5-0.5-1.1-0.9-1.7-1.2c-0.3-0.1-0.6-0.2-1-0.2c-0.3,0-0.7,0-1,0.1c-0.6,0.3-1.1,0.8-1.4,1.4c-0.3,0.6-0.5,1.3-0.5,2
	c-0.1,0.7-0.1,1.4-0.1,2.1c-0.2-1.4,0-2.9,0.5-4.2c0.3-0.7,0.8-1.3,1.5-1.6c0.3-0.1,0.7-0.2,1.1-0.2c0.4,0,0.7,0.1,1.1,0.3
	c0.7,0.3,1.3,0.7,1.8,1.3c0.5,0.5,0.9,1.1,1.3,1.7C20.1,19.2,20.8,20.4,21.3,21.8z"/>
</svg>
