<?xml version="1.0" encoding="utf-8"?>
<!-- Generator: Adobe Illustrator 21.0.2, SVG Export Plug-In . SVG Version: 6.00 Build 0)  -->
<svg version="1.1" id="Layer_1" xmlns="http://www.w3.org/2000/svg" xmlns:xlink="http://www.w3.org/1999/xlink" x="0px" y="0px"
	 viewBox="0 0 48 48" enable-background="new 0 0 48 48" xml:space="preserve">
<title>03-eyeexpress-sad</title>
<path fill="#703628" d="M27.1,19.3c0.9-2.1,2.4-3.3,4.3-2.9c2.7,0.7,4.6,3.8,4.6,8c0,1.1,0,2.2-0.2,3.3c0.4-1.3,0.6-2.7,0.6-4.1
	c0-4.8-2.2-8.6-5-8.6C29.5,15,27.9,16.7,27.1,19.3z"/>
<path fill="#703628" d="M34.9,30.2L34.9,30.2c-0.1,0.1-0.1,0.1-0.1,0.1s0,0-0.1,0l-3.6,2.6c-0.1,0-0.1,0-0.2,0
	c-0.2,0.3-0.3,0.5-0.5,0.8c0.5-0.4,1-0.8,1.5-1.2s1-0.7,1.5-1s1.1-0.6,1.6-0.9s1.1-0.5,1.7-0.8C36.2,29.9,35.5,30,34.9,30.2
	L34.9,30.2L34.9,30.2z"/>
<path fill="#703628" d="M34.7,30.3c-0.1,0-0.2,0-0.4,0c-0.4,0.2-0.9,0.4-1.3,0.6c-0.6,0.3-1.1,0.7-1.5,1.2c-0.2,0.2-0.5,0.5-0.6,0.8
	c0.1,0,0.1,0,0.2,0L34.7,30.3z"/>
<path fill="#703628" d="M34.9,30.2L34.9,30.2L34.9,30.2L34.9,30.2z"/>
<path fill="#703628" d="M34.9,30.1L34.9,30.1L34.9,30.1L34.9,30.1L34.9,30.1z"/>
<path fill="#703628" d="M34.8,30.3L34.8,30.3L34.8,30.3L34.8,30.3z"/>
<path fill="#703628" d="M34.7,30.3l0.1-0.1v-0.1l0,0c-0.2,0-0.3,0.1-0.5,0.2C34.5,30.3,34.6,30.3,34.7,30.3z"/>
<path fill="#703628" d="M12.3,23.6c0,1.4,0.2,2.8,0.6,4.1c-0.1-1.1-0.2-2.2-0.2-3.3c0-4.1,1.9-7.3,4.6-8c1.8-0.5,3.3,0.8,4.3,2.9
	c-0.9-2.6-2.5-4.3-4.4-4.3C14.5,15,12.3,18.9,12.3,23.6z"/>
<path fill="#EEF6F3" d="M31.4,16.4c-1.9-0.4-3.4,0.8-4.3,2.9c-0.7,1.6-1,3.3-1,5.1c0,1.3,0.2,2.6,0.6,3.8l0,0
	c0.4,1.4,1.2,2.7,2.3,3.7c0,0,0,0,0.1,0.1c0.6,0.5,1.2,0.8,1.9,0.9c0.2-0.3,0.4-0.5,0.6-0.8c0.5-0.5,1-0.9,1.5-1.2
	c0.4-0.2,0.8-0.4,1.3-0.6c0.2-0.1,0.3-0.1,0.5-0.2l0,0l0,0c0.4-0.7,0.7-1.6,0.8-2.4c0.1-1.1,0.2-2.2,0.2-3.3
	C35.9,20.3,34.1,17.1,31.4,16.4z M29.9,21.9c0.3,0,0.5,0.1,0.7,0.2C30.1,23,30.3,24.2,31,25c0.4,0.3,1,0.3,1.4,0
	c0.1,0.5,0.2,1,0.2,1.5c0,0.9-0.2,1.8-0.5,2.6c-0.1,0.3-0.3,0.7-0.5,1s-0.6,0.5-0.9,0.7c-0.2,0.2-0.5,0.3-0.8,0.3
	c-1.1,0-2.1-1.2-2.5-2.8c-0.1-0.6-0.2-1.2-0.2-1.8C27.1,24,28.4,21.9,29.9,21.9z"/>
<path fill="#975444" d="M33,23.6c-0.5,0.5-1.1,0.5-1.6,0.1c-0.8-1.1-1-2.7-0.5-4.1c-0.3-0.2-0.5-0.2-0.8-0.2c-1.7,0-3,2.9-3,6.4
	c0,0.8,0.1,1.7,0.2,2.5c0.5,2.3,1.5,3.9,2.8,3.9c0.3,0,0.6-0.2,0.9-0.4c0.4-0.2,0.7-0.5,1-1c0.2-0.4,0.4-0.9,0.6-1.4
	c0.4-1.2,0.6-2.4,0.6-3.7C33.2,25,33.1,24.3,33,23.6z"/>
<path fill="#EEF6F3" d="M21.5,19.3c-0.9-2.1-2.5-3.4-4.3-2.9c-2.7,0.7-4.6,3.8-4.6,8c0,1.1,0,2.2,0.2,3.3c0.1,0.8,0.4,1.7,0.8,2.4
	l0,0l0,0c0.2,0,0.3,0.1,0.5,0.2c0.4,0.2,0.9,0.4,1.3,0.6c0.6,0.3,1.1,0.7,1.5,1.2c0.2,0.2,0.5,0.5,0.6,0.8c0.7-0.1,1.4-0.5,1.9-0.9
	c0,0,0,0,0.1-0.1c1.1-1,1.9-2.3,2.3-3.7l0,0c0.4-1.2,0.6-2.5,0.6-3.8C22.5,22.7,22.2,20.9,21.5,19.3z M16.2,25c0.4,0.3,1,0.4,1.4,0
	c0.8-0.8,0.9-2,0.4-2.9c0.2-0.1,0.5-0.2,0.7-0.2c1.5,0,2.7,2.1,2.7,4.6c0,0.6-0.1,1.2-0.2,1.8c-0.4,1.6-1.4,2.8-2.5,2.8
	c-0.3,0-0.5-0.1-0.8-0.3c-0.4-0.2-0.7-0.4-0.9-0.7c-0.2-0.3-0.4-0.6-0.5-1c-0.3-0.8-0.5-1.7-0.5-2.6C16,26,16.1,25.5,16.2,25z"/>
<path fill="#975444" d="M18.5,19.4c-0.3,0-0.6,0.1-0.8,0.2c0.6,1.3,0.4,3-0.5,4.1c-0.4,0.4-1.1,0.4-1.5-0.1
	c-0.1,0.7-0.2,1.4-0.2,2.2c0,1.3,0.2,2.5,0.5,3.7c0.2,0.5,0.4,0.9,0.6,1.4c0.3,0.4,0.6,0.7,1,1c0.3,0.2,0.5,0.4,0.9,0.4
	c1.2,0,2.3-1.6,2.7-3.9c0.2-0.8,0.2-1.7,0.2-2.5C21.5,22.2,20.1,19.4,18.5,19.4z"/>
<path fill="#703628" d="M13.9,30.3C13.9,30.3,13.8,30.3,13.9,30.3C13.8,30.3,13.8,30.2,13.9,30.3l-0.2-0.1l0,0l0,0
	c-0.6-0.2-1.2-0.3-1.9-0.2c0.6,0.3,1.2,0.5,1.7,0.8c0.6,0.3,1.1,0.6,1.6,0.9c0.5,0.3,1,0.7,1.5,1c0.5,0.4,1,0.7,1.5,1.2
	c-0.1-0.3-0.3-0.6-0.5-0.8c-0.1,0-0.1,0-0.2,0L13.9,30.3z"/>
<path fill="#703628" d="M15.5,30.9c-0.4-0.2-0.8-0.4-1.3-0.6c-0.1,0-0.2,0-0.4,0l3.6,2.6c0.1,0,0.1,0,0.2,0
	c-0.2-0.3-0.4-0.5-0.6-0.8C16.6,31.7,16,31.3,15.5,30.9z"/>
<path fill="#703628" d="M13.8,30.3l0.1,0.1c0.1,0,0.2,0,0.4,0C14.1,30.3,14,30.3,13.8,30.3L13.8,30.3C13.7,30.2,13.7,30.2,13.8,30.3
	z"/>
</svg>
