<?xml version="1.0" encoding="utf-8"?>
<!-- Generator: Adobe Illustrator 21.0.2, SVG Export Plug-In . SVG Version: 6.00 Build 0)  -->
<svg version="1.1" id="Layer_1" xmlns="http://www.w3.org/2000/svg" xmlns:xlink="http://www.w3.org/1999/xlink" x="0px" y="0px"
	 viewBox="0 0 48 48" enable-background="new 0 0 48 48" xml:space="preserve">
<title>03-eyeexpress-sad</title>
<path fill="#703628" d="M31.6,15.4c-0.5-0.1-1.1-0.2-1.6-0.3c-0.7-0.1-1.3-0.2-2-0.3c-0.6-0.2-1.3-0.5-1.8-0.9
	c0.2,0.3,0.4,0.6,0.6,0.9c0.3,0.2,0.6,0.4,0.9,0.6c0.6,0.2,1.2,0.4,1.8,0.5c-2.1,1.2-3.6,4.6-3.6,8.6c0,4,1.5,7.4,3.6,8.6
	c1.1-1,3.6-1.5,5.1-1.9c1.2-2,1.8-4.4,1.7-6.7C36.5,19.6,34.3,15.6,31.6,15.4z"/>
<ellipse fill="#EEF6F3" cx="31.2" cy="25.2" rx="5.3" ry="8.9"/>
<path fill="#EEF6F3" d="M21.9,24.4c0,4-1.5,7.4-3.6,8.6c-1.1-1-3.6-1.5-5.1-1.9c-1.1-1.9-1.7-4.1-1.7-6.3c0,0.1,0,0.3,0,0.4
	c0,4.9,2.4,8.9,5.3,8.9s5.3-4,5.3-8.9c0-1.3-0.2-2.6-0.5-3.9C21.8,22.3,21.9,23.3,21.9,24.4z"/>
<path fill="#EEF6F3" d="M18.3,32.9c2.1-1.2,3.6-4.6,3.6-8.6c0-1-0.1-2.1-0.3-3.1c-0.9-2.9-2.7-5-4.8-5c-2.8,0-5.2,3.7-5.3,8.4
	c0,2.2,0.6,4.4,1.7,6.3C14.8,31.4,17.2,31.9,18.3,32.9z"/>
<path fill="#975444" d="M30.9,25.9c-0.8-0.8-1-2.1-0.4-3.1c-0.2-0.1-0.5-0.2-0.8-0.2c-1.6,0-2.9,2.2-2.9,4.8s1.3,4.8,2.9,4.8
	c0.3,0,0.6-0.1,0.8-0.3c0.4-0.2,0.7-0.4,0.9-0.7c0.8-1.1,1.1-2.4,1.1-3.8c0-0.5-0.1-1.1-0.2-1.6C32,26.2,31.4,26.2,30.9,25.9z"/>
<path fill="#975444" d="M18.3,22.6c-0.3,0-0.5,0.1-0.8,0.2c0.5,1,0.4,2.3-0.4,3.1c-0.4,0.3-1.1,0.3-1.5-0.1
	c-0.1,0.5-0.2,1.1-0.2,1.6c0,1.3,0.3,2.7,1.1,3.8c0.3,0.3,0.6,0.6,0.9,0.7c0.2,0.2,0.5,0.3,0.8,0.3c1.6,0,2.9-2.2,2.9-4.8
	S19.9,22.6,18.3,22.6z"/>
<path fill="#703628" d="M18.3,15.8c0.6-0.1,1.2-0.3,1.8-0.5c0.3-0.1,0.6-0.3,0.9-0.6c0.3-0.2,0.5-0.5,0.6-0.9
	c-0.5,0.4-1.1,0.7-1.8,0.9c-0.6,0.2-1.3,0.3-2,0.3c-0.5,0.1-1,0.1-1.6,0.3c-2.7,0.3-4.9,4.2-4.9,9c0,0.1,0,0.3,0,0.4
	c0.1-4.7,2.5-8.4,5.3-8.4c2.1,0,3.9,2,4.8,5C21,18.7,19.8,16.7,18.3,15.8z"/>
</svg>
