<?xml version="1.0" encoding="utf-8"?>
<!-- Generator: Adobe Illustrator 21.0.2, SVG Export Plug-In . SVG Version: 6.00 Build 0)  -->
<svg version="1.1" id="Layer_1" xmlns="http://www.w3.org/2000/svg" xmlns:xlink="http://www.w3.org/1999/xlink" x="0px" y="0px"
	 viewBox="0 0 48 48" enable-background="new 0 0 48 48" xml:space="preserve">
<title>04-eyeexpress-confused</title>
<path fill="#703628" d="M12.3,24.4c0-0.9,0.1-1.8,0.3-2.7c-0.1,0.1-0.1,0.1-0.2,0.2c-0.1,0.7-0.2,1.4-0.2,2.2
	C12.2,24.1,12.2,24.3,12.3,24.4z"/>
<path fill="#EEF6F3" d="M22.6,23.1c-0.1,0-0.1,0.1-0.2,0.1c-0.5,0.3-1.2,0.3-1.7,0.1c0.7,1.1,1.1,2.4,1,3.6c0,2.6-1.3,4.7-2.8,4.7
	c-0.3,0-0.6-0.1-0.8-0.3c-0.4-0.2-0.7-0.4-0.9-0.7c-0.7-1.1-1.1-2.4-1.1-3.7c0-0.5,0.1-1,0.2-1.6c0.4,0.4,1,0.4,1.5,0
	c0.8-0.8,0.9-2,0.4-3c0.1,0,0.2-0.1,0.3-0.1c-0.5-0.2-1-0.5-1.6-0.7c-2.2-0.9-3.5-0.4-4.2,0.1c-0.2,0.9-0.3,1.8-0.3,2.7
	c0,0.1,0,0.3,0,0.4c-0.1,2.4,0.6,4.7,1.9,6.7l0.9,0.3l1.9,1.7c0.2,0,0.3,0,0.5,0c2.9,0,5.2-3.9,5.2-8.7
	C22.7,24.3,22.6,23.7,22.6,23.1z"/>
<path fill="#703628" d="M17.9,34.3c-0.5-0.4-1-0.8-1.5-1.2c-0.5-0.4-1-0.7-1.6-1c-0.5-0.3-1.1-0.6-1.6-0.9c-0.6-0.3-1.2-0.5-1.8-0.8
	c0.7,0,1.3,0.1,2,0.3c0.6,0.2,1.3,0.5,1.8,0.8c0.6,0.3,1.1,0.8,1.6,1.2C17.2,33.2,17.6,33.7,17.9,34.3z"/>
<path fill="#703628" d="M31.6,15.2c-2.8,0-5.1,3.9-5.1,8.8c0,3.9,1.5,7.2,3.5,8.4c1.1-1,3.5-1.5,5-1.8c1.2-2,1.7-4.3,1.7-6.6
	C36.7,19.1,34.4,15.2,31.6,15.2z"/>
<path fill="#EEF6F3" d="M32,33c-0.3,0.1,0.2-0.2,0.1-0.1c0.1-0.1,0.2-0.2,0.3-0.3c0.3-0.3,0.6-0.5,0.9-0.8c0.5-0.4,1.1-0.6,1.7-0.6
	c1.2-1.9,1.8-4.2,1.7-6.4c0-4.8-2.3-8.7-5.2-8.7s-5.2,3.9-5.2,8.7c0,4.7,2.2,8.5,5,8.7C31.5,33.3,31.7,33.1,32,33z"/>
<path fill="#975444" d="M18.4,22.3c-0.1,0-0.2,0.1-0.3,0.1c0.5,1,0.3,2.2-0.4,3c-0.4,0.3-1,0.3-1.5,0c-0.1,0.5-0.2,1-0.2,1.6
	c0,1.3,0.3,2.6,1.1,3.7c0.2,0.3,0.6,0.6,0.9,0.7c0.2,0.2,0.5,0.3,0.8,0.3c1.5,0,2.8-2.1,2.8-4.7c0-1.3-0.3-2.6-1-3.6
	C19.9,23,19.2,22.7,18.4,22.3z"/>
<path fill="#975444" d="M31.3,25.4c-0.8-0.8-0.9-2-0.4-3c-0.2-0.1-0.5-0.2-0.8-0.2c-1.5,0-2.8,2.1-2.8,4.7s1.3,4.7,2.8,4.7
	c0.3,0,0.6-0.1,0.8-0.3c0.4-0.2,0.7-0.4,0.9-0.7c0.7-1.1,1.1-2.4,1.1-3.7c0-0.5-0.1-1-0.2-1.6C32.3,25.7,31.7,25.7,31.3,25.4z"/>
<path fill="#703628" d="M34,16.6c-0.5-0.4-1.1-0.7-1.7-0.8c-0.6-0.1-1.3-0.1-2-0.2c-0.7-0.1-1.4-0.3-2-0.5c-0.3-0.1-0.6-0.3-0.9-0.6
	c-0.3-0.2-0.5-0.5-0.6-0.8c0.5,0.4,1.1,0.7,1.7,0.9c0.6,0.2,1.3,0.3,1.9,0.3c0.7,0.1,1.4,0.2,2,0.4c0.3,0.1,0.7,0.3,1,0.5
	C33.7,16,33.9,16.3,34,16.6z"/>
<path fill="#703628" d="M11,23c0.2-0.6,0.6-1.1,1.1-1.5c0.5-0.4,1.2-0.6,1.8-0.7c0.6-0.1,1.3-0.1,1.9,0.1c0.6,0.1,1.2,0.3,1.8,0.5
	c1.2,0.4,2.2,1,3.3,1.4c0.3,0.1,0.5,0.2,0.8,0.2c0.2,0.1,0.5,0,0.7,0c0.1-0.1,0.2-0.1,0.3-0.2c0.1-0.1,0.2-0.2,0.3-0.3
	c0.1-0.1,0.2-0.2,0.3-0.4c0.1-0.1,0.1-0.3,0.2-0.4c0,0.3,0,0.6-0.2,0.9c-0.1,0.1-0.1,0.3-0.2,0.4c0,0.1-0.1,0.1-0.1,0.2
	c-0.1,0.1-0.1,0.2-0.2,0.2c-0.3,0.2-0.7,0.3-1.1,0.3c-0.3,0-0.7-0.1-1-0.1c-1.2-0.3-2.3-0.8-3.5-1.2c-1.1-0.5-2.2-0.7-3.3-0.8
	c-0.6,0-1.1,0.1-1.6,0.4C11.8,22.1,11.4,22.5,11,23z"/>
<path fill="#703628" d="M30.5,34.3c0.3-0.6,0.7-1.1,1.1-1.6c0.5-0.5,1-0.9,1.6-1.2c0.6-0.3,1.2-0.6,1.8-0.8c0.6-0.2,1.3-0.3,2-0.3
	c-0.6,0.3-1.2,0.5-1.8,0.8c-0.6,0.3-1.1,0.6-1.6,0.9c-0.5,0.3-1.1,0.7-1.6,1C31.5,33.5,31,33.9,30.5,34.3z"/>
</svg>
