<?xml version="1.0" encoding="utf-8"?>
<!-- Generator: Adobe Illustrator 21.0.2, SVG Export Plug-In . SVG Version: 6.00 Build 0)  -->
<svg version="1.1" id="Layer_1" xmlns="http://www.w3.org/2000/svg" xmlns:xlink="http://www.w3.org/1999/xlink" x="0px" y="0px"
	 viewBox="0 0 48 48" enable-background="new 0 0 48 48" xml:space="preserve">
<title>07-eyeexpress-neutral</title>
<path fill="#EEF6F3" d="M26.4,28.5c0,0,1,4.2,4.5,4.7l3.8-2.7l-0.2-0.6"/>
<g>
	<defs>
		<path id="SVGID_1_" d="M29.5,32.1c-2-1.1-3.4-4.4-3.4-8.2c0-4.8,2.2-8.6,5-8.6s5,3.9,5,8.6c0.1,2.2-0.5,4.5-1.6,6.4
			C32.9,30.6,30.6,31.1,29.5,32.1z"/>
	</defs>
	<clipPath id="SVGID_2_">
		<use xlink:href="#SVGID_1_"  overflow="visible"/>
	</clipPath>
	<g clip-path="url(#SVGID_2_)">
		<rect x="21.6" y="10.8" fill="#703628" width="19" height="25.8"/>
	</g>
</g>
<g>
	<defs>
		<path id="SVGID_3_" d="M29.3,32.3c-0.3,0-0.4,0.1-0.7-0.2c-1.9-2-2.9-4.7-2.8-7.5c0-4.8,2.3-8.7,5.3-8c2.7,0.7,4.6,3.8,4.6,8
			c0,2.5-0.1,4.4-1.1,5.9c-1.7-0.1-3.3,0.4-4.6,1.4C29.7,32.2,29.5,32.3,29.3,32.3z"/>
	</defs>
	<clipPath id="SVGID_4_">
		<use xlink:href="#SVGID_3_"  overflow="visible"/>
	</clipPath>
	<g clip-path="url(#SVGID_4_)">
		<rect x="21.3" y="12.1" fill="#EEF6F3" width="18.9" height="25"/>
	</g>
</g>
<g>
	<defs>
		<path id="SVGID_5_" d="M30.3,22.3c-0.5,1-0.3,2.2,0.4,2.9c0.4,0.3,1,0.3,1.4,0c0.1,0.5,0.2,1,0.2,1.5c0,1.3-0.3,2.5-1,3.6
			c-0.2,0.3-0.6,0.5-0.9,0.7c-0.2,0.2-0.5,0.3-0.8,0.3c-1.5,0-2.7-2.1-2.7-4.6s1.2-4.6,2.7-4.6C29.8,22.2,30.1,22.2,30.3,22.3z"/>
	</defs>
	<clipPath id="SVGID_6_">
		<use xlink:href="#SVGID_5_"  overflow="visible"/>
	</clipPath>
	<g clip-path="url(#SVGID_6_)">
		<rect x="22.3" y="16.3" fill="#975444" width="14.5" height="20.9"/>
	</g>
</g>
<path fill="#703628" d="M30.2,34c0.3-0.6,0.7-1.1,1.1-1.6c0.5-0.5,1-0.9,1.5-1.2c0.6-0.3,1.2-0.6,1.8-0.8c0.6-0.2,1.3-0.3,1.9-0.3
	c-0.6,0.3-1.2,0.5-1.7,0.8c-0.6,0.3-1.1,0.6-1.6,0.9c-0.5,0.3-1,0.7-1.5,1C31.2,33.2,30.7,33.6,30.2,34z"/>
<path fill="#EEF6F3" d="M21.6,28.5c0,0-1,4.2-4.5,4.7l-3.8-2.7l0.2-0.6"/>
<g>
	<defs>
		<path id="SVGID_7_" d="M18.5,32.1c2-1.1,3.4-4.4,3.4-8.2c0-4.8-2.2-8.6-5-8.6s-5,3.9-5,8.6c-0.1,2.2,0.5,4.5,1.6,6.4
			C15.1,30.6,17.4,31.1,18.5,32.1z"/>
	</defs>
	<clipPath id="SVGID_8_">
		<use xlink:href="#SVGID_7_"  overflow="visible"/>
	</clipPath>
	<g clip-path="url(#SVGID_8_)">
		<rect x="7.4" y="10.8" fill="#703628" width="19" height="25.8"/>
	</g>
</g>
<g>
	<defs>
		<path id="SVGID_9_" d="M18.7,32.3c0.3,0,0.4,0.1,0.7-0.2c1.9-2,2.9-4.7,2.8-7.5c0-4.8-2.3-8.7-5.3-8c-2.7,0.7-4.6,3.8-4.6,8
			c0,2.5,0.1,4.4,1.1,5.9c1.7-0.1,3.3,0.4,4.6,1.4C18.3,32.2,18.5,32.3,18.7,32.3z"/>
	</defs>
	<clipPath id="SVGID_10_">
		<use xlink:href="#SVGID_9_"  overflow="visible"/>
	</clipPath>
	<g clip-path="url(#SVGID_10_)">
		<rect x="7.9" y="12.1" fill="#EEF6F3" width="18.9" height="25"/>
	</g>
</g>
<g>
	<defs>
		<path id="SVGID_11_" d="M17.7,22.3c0.5,1,0.3,2.2-0.4,2.9c-0.4,0.3-1,0.3-1.4,0c-0.1,0.5-0.2,1-0.2,1.5c0,1.3,0.3,2.5,1,3.6
			c0.2,0.3,0.6,0.5,0.9,0.7c0.2,0.2,0.5,0.3,0.8,0.3c1.5,0,2.7-2.1,2.7-4.6s-1.2-4.6-2.7-4.6C18.2,22.2,17.9,22.2,17.7,22.3z"/>
	</defs>
	<clipPath id="SVGID_12_">
		<use xlink:href="#SVGID_11_"  overflow="visible"/>
	</clipPath>
	<g clip-path="url(#SVGID_12_)">
		<rect x="11.2" y="16.3" fill="#975444" width="14.5" height="20.9"/>
	</g>
</g>
<path fill="#703628" d="M17.8,34c-0.5-0.4-1-0.8-1.5-1.2c-0.5-0.4-1-0.7-1.5-1c-0.5-0.3-1.1-0.6-1.6-0.9c-0.5-0.3-1.1-0.5-1.7-0.8
	c0.6,0,1.3,0.1,1.9,0.3c0.6,0.2,1.2,0.4,1.8,0.8c0.6,0.3,1.1,0.7,1.5,1.2C17.2,32.9,17.5,33.4,17.8,34z"/>
</svg>
