<?xml version="1.0" encoding="utf-8"?>
<!-- Generator: Adobe Illustrator 21.0.2, SVG Export Plug-In . SVG Version: 6.00 Build 0)  -->
<svg version="1.1" id="Layer_1" xmlns="http://www.w3.org/2000/svg" xmlns:xlink="http://www.w3.org/1999/xlink" x="0px" y="0px"
	 viewBox="0 0 48 48" enable-background="new 0 0 48 48" xml:space="preserve">
<title>09-eyeexpress-chillin</title>
<path fill="#975444" d="M27.8,29c-0.6-0.9-1-1.8-1.2-2.8C26.7,27.3,27.1,28.3,27.8,29z"/>
<path fill="#EEF6F3" d="M34,28.3c0.7-1.5,1-3.2,1-4.8c0-0.3,0-1.7,0-2c-1.5-0.4-3,0.3-4.5-0.3c-0.3-0.1-0.5-0.2-0.8-0.3
	c-0.3-0.1-0.7-0.1-1-0.1c-0.8,0-1.1,0.5-1.9,0.8c-0.2,0.1-1,0.9-1.2,0.9c0,0.3,0,0.7,0,1c0,4.1,1.9,7.4,4.2,7.8
	C31,29.9,32.4,28.9,34,28.3z M29.8,29.3c-0.2,0.1-0.5,0.2-0.7,0.3c-0.5,0-0.9-0.2-1.2-0.5c-0.7-0.8-1.2-1.8-1.2-2.8
	c0-0.3-0.1-0.6-0.1-0.9c0-2.3,1.1-4.2,2.5-4.2c0.2,0,0.5,0.1,0.7,0.2c-0.5,0.9-0.3,2,0.4,2.7c0.4,0.3,0.9,0.3,1.3,0
	c0.1,0.5,0.1,0.9,0.1,1.4c0,1.2-0.3,2.3-1,3.3C30.4,29,30.1,29.2,29.8,29.3L29.8,29.3z"/>
<path fill="#975444" d="M29,29.6c0.3,0,0.5-0.1,0.7-0.3c0.3-0.1,0.6-0.4,0.8-0.6c0.7-1,1-2.1,1-3.3c0-0.5,0-0.9-0.1-1.4
	c-0.4,0.3-0.9,0.3-1.3,0c-0.7-0.7-0.8-1.8-0.4-2.7c-0.2-0.1-0.4-0.2-0.7-0.2c-1.4,0-2.5,1.9-2.5,4.2c0,0.3,0,0.6,0.1,0.9
	c0.2,1,0.7,1.9,1.2,2.8C28.1,29.4,28.6,29.6,29,29.6z"/>
<path fill="#703628" d="M25.5,22.6c0.2-0.5,0.6-0.9,1.1-1.2c0.5-0.3,1-0.6,1.5-0.7c1.1-0.3,2.2-0.3,3.3,0c1,0.2,2,0.3,3.1,0.4
	c0.5,0,1,0.1,1.5,0c0.5,0,1-0.1,1.5-0.4c-0.2,0.2-0.4,0.4-0.6,0.5c-0.2,0.1-0.5,0.2-0.8,0.3c-0.5,0.1-1.1,0.2-1.6,0.2
	c-1.1,0-2.2-0.1-3.2-0.3c-1-0.2-2-0.3-3-0.2c-0.5,0.1-1,0.2-1.4,0.4C26.3,22,25.9,22.2,25.5,22.6z"/>
<path fill="#703628" d="M29.8,31.3c0.3-0.5,0.6-1,1-1.5c0.4-0.4,0.9-0.8,1.4-1.1c0.5-0.3,1.1-0.6,1.6-0.7c0.6-0.2,1.2-0.2,1.8-0.2
	c-0.5,0.3-1.1,0.5-1.6,0.7c-0.5,0.2-1,0.5-1.5,0.8c-0.5,0.3-0.9,0.6-1.4,0.9C30.7,30.6,30.2,31,29.8,31.3z"/>
<path fill="#703628" d="M34.9,25.1c0-0.8,0-1.5-0.1-2.2c-0.1-0.7-0.1-1.5-0.2-2.2c-0.1-0.7-0.3-1.4-0.5-2.1c-0.3-0.7-0.6-1.3-1-2
	c0.6,0.5,1.1,1.1,1.4,1.8c0.3,0.7,0.6,1.4,0.7,2.2c0.1,0.8,0.2,1.5,0.1,2.3C35.3,23.7,35.1,24.4,34.9,25.1z"/>
<path fill="#975444" d="M20.2,29c0.6-0.9,1-1.8,1.2-2.8C21.3,27.3,20.9,28.3,20.2,29z"/>
<path fill="#EEF6F3" d="M18.1,31.2c2.4-0.4,4.2-3.7,4.2-7.8c0-0.3,0-0.7,0-1c-0.1-0.1-1-0.9-1.2-0.9c-0.8-0.3-1-0.8-1.9-0.8
	c-0.3,0-0.7,0-1,0.1c-0.3,0.1-0.6,0.2-0.8,0.3c-1.4,0.6-3-0.1-4.5,0.3c0,0.3,0,1.7,0,2c0,1.7,0.3,3.3,1,4.8
	C15.6,28.9,17,29.9,18.1,31.2z M17.4,28.7c-0.7-1-1-2.1-1-3.3c0-0.5,0-0.9,0.1-1.4c0.4,0.3,0.9,0.3,1.3,0c0.7-0.7,0.8-1.8,0.4-2.7
	c0.2-0.1,0.4-0.2,0.7-0.2c1.4,0,2.5,1.9,2.5,4.2c0,0.3,0,0.6-0.1,0.9c-0.1,1-0.5,2-1.2,2.8c-0.3,0.3-0.8,0.5-1.2,0.5
	c-0.3,0-0.5-0.1-0.7-0.3C17.9,29.2,17.6,29,17.4,28.7L17.4,28.7z"/>
<path fill="#975444" d="M19,29.6c-0.3,0-0.5-0.1-0.7-0.3c-0.3-0.1-0.6-0.4-0.8-0.6c-0.7-1-1-2.1-1-3.3c0-0.5,0-0.9,0.1-1.4
	c0.4,0.3,0.9,0.3,1.3,0c0.7-0.7,0.8-1.8,0.4-2.7c0.2-0.1,0.4-0.2,0.7-0.2c1.4,0,2.5,1.9,2.5,4.2c0,0.3,0,0.6-0.1,0.9
	c-0.2,1-0.7,1.9-1.2,2.8C19.9,29.4,19.4,29.6,19,29.6z"/>
<path fill="#703628" d="M22.5,22.6c-0.4-0.4-0.8-0.7-1.3-0.9c-0.5-0.2-0.9-0.3-1.4-0.4c-1-0.1-2-0.1-3,0.2c-1.1,0.2-2.1,0.3-3.2,0.3
	c-0.5,0-1.1-0.1-1.6-0.2c-0.3-0.1-0.5-0.2-0.8-0.3c-0.2-0.1-0.5-0.3-0.6-0.5c0.5,0.3,1,0.4,1.5,0.4c0.5,0,1,0,1.5,0
	c1-0.1,2-0.2,3.1-0.4c1.1-0.2,2.2-0.2,3.3,0c0.5,0.1,1.1,0.4,1.5,0.7C21.8,21.7,22.2,22.1,22.5,22.6z"/>
<path fill="#703628" d="M18.2,31.3c-0.5-0.4-0.9-0.7-1.4-1.1c-0.5-0.3-0.9-0.6-1.4-0.9c-0.5-0.3-1-0.6-1.5-0.8
	c-0.5-0.3-1-0.5-1.6-0.7c0.6,0,1.2,0.1,1.8,0.2c0.6,0.2,1.1,0.4,1.6,0.7c0.5,0.3,1,0.7,1.4,1.1C17.6,30.3,18,30.8,18.2,31.3z"/>
<path fill="#703628" d="M13.1,25.1c-0.2-0.7-0.4-1.5-0.4-2.2c-0.1-0.8,0-1.5,0.1-2.3c0.1-0.8,0.4-1.5,0.7-2.2
	c0.3-0.7,0.8-1.3,1.4-1.8c-0.4,0.6-0.7,1.3-1,2c-0.2,0.7-0.4,1.4-0.5,2.1c-0.1,0.7-0.2,1.4-0.2,2.2C13.1,23.6,13.1,24.4,13.1,25.1z"
	/>
</svg>
