<?xml version="1.0" encoding="utf-8"?>
<!-- Generator: Adobe Illustrator 21.0.2, SVG Export Plug-In . SVG Version: 6.00 Build 0)  -->
<svg version="1.1" id="Layer_1" xmlns="http://www.w3.org/2000/svg" xmlns:xlink="http://www.w3.org/1999/xlink" x="0px" y="0px"
	 viewBox="0 0 48 48" enable-background="new 0 0 48 48" xml:space="preserve">
<title>12-eyeexpress-starstruck</title>
<polygon fill="#FDFF00" points="21.3,23 16.5,29.9 16.8,30.8 19.3,27.2 23.7,27.2 21.1,23.7 "/>
<polygon fill="#FDFF00" points="22.5,19.6 21.9,19.7 16,28.2 16.4,29.4 21.7,21.8 "/>
<polygon fill="#FDFF00" points="14.8,18.4 14.9,22.8 11.3,25.4 14.2,26.3 18,20.8 "/>
<polygon fill="#F5FFB9" points="18.3,21 18,20.8 14.2,26.3 15.5,26.6 16,28.2 21.9,19.7 "/>
<polygon fill="#F5FFB9" points="21.7,21.8 16.4,29.4 16.5,29.9 21.3,23 "/>
<polygon fill="#FDFF00" points="32.4,21.2 30.2,27.2 31.1,27.7 33.4,21.4 "/>
<polygon fill="#FDFF00" points="33.8,21.5 31.4,27.9 33.8,29.4 33.4,25 36.7,22.1 "/>
<polygon fill="#FDFF00" points="30.7,17.2 28.5,21 24.1,21.3 27.1,24.6 26.1,28.9 27,28.4 30.9,17.7 "/>
<polygon fill="#F5FFB9" points="32.4,21.2 30.9,17.7 27,28.4 30.1,27.1 30.2,27.2 32.4,21.2 "/>
<polygon fill="#F5FFB9" points="33.4,21.4 31.1,27.7 31.4,27.9 33.8,21.5 "/>
<path fill="#FFA52E" d="M16.8,31.1c-0.1,0-0.2-0.1-0.3-0.2l-1.3-4.1l-4.1-1.2c-0.1,0-0.2-0.2-0.2-0.3c0-0.1,0.1-0.1,0.1-0.1l3.5-2.5
	l-0.1-4.3c0-0.2,0.1-0.3,0.3-0.3c0.1,0,0.1,0,0.2,0.1l3.4,2.5l4-1.4c0.1-0.1,0.3,0,0.4,0.2c0,0.1,0,0.1,0,0.2l-1.3,4l2.6,3.4
	c0.1,0.1,0.1,0.3-0.1,0.4c0,0-0.1,0.1-0.2,0.1h0l-4.3,0L17.1,31C17,31.1,16.9,31.1,16.8,31.1z M11.9,25.3l3.7,1.1
	c0.1,0,0.2,0.1,0.2,0.2l1.2,3.7l2.2-3.1c0.1-0.1,0.1-0.1,0.2-0.1h0l3.8,0l-2.3-3.1c-0.1-0.1-0.1-0.2,0-0.3L22,20l-3.6,1.3
	c-0.1,0-0.2,0-0.3,0L15.1,19l0.1,3.8c0,0.1,0,0.2-0.1,0.2L11.9,25.3z"/>
<path fill="#FFA52E" d="M33.8,29.7c-0.1,0-0.1,0-0.1,0l-3.6-2.2l-3.9,1.7c-0.1,0.1-0.3,0-0.4-0.1c0-0.1,0-0.1,0-0.2l1-4.1l-2.8-3.2
	c-0.1-0.1-0.1-0.3,0-0.4c0,0,0.1-0.1,0.2-0.1l4.2-0.3l2.1-3.7c0.1-0.1,0.2-0.2,0.4-0.1c0.1,0,0.1,0.1,0.1,0.1l1.6,3.9l4.2,0.9
	c0.2,0,0.2,0.2,0.2,0.3c0,0.1,0,0.1-0.1,0.2l-3.2,2.8l0.4,4.2C34.1,29.5,34,29.6,33.8,29.7C33.9,29.7,33.8,29.7,33.8,29.7z
	 M30.1,26.8c0.1,0,0.1,0,0.1,0l3.3,2L33.1,25c0-0.1,0-0.2,0.1-0.2l2.9-2.5l-3.7-0.8c-0.1,0-0.2-0.1-0.2-0.2l-1.5-3.5l-1.9,3.3
	c0,0.1-0.1,0.1-0.2,0.1l-3.8,0.3l2.6,2.8c0.1,0.1,0.1,0.2,0.1,0.3l-0.9,3.7l3.5-1.6C30,26.8,30,26.8,30.1,26.8z"/>
</svg>
