<?xml version="1.0" encoding="UTF-8"?>
<svg width="48px" height="48px" viewBox="0 0 48 48" version="1.1" xmlns="http://www.w3.org/2000/svg" xmlns:xlink="http://www.w3.org/1999/xlink">
    <!-- Generator: Sketch 51.3 (57544) - http://www.bohemiancoding.com/sketch -->
    <title>headgear-snapback</title>
    <desc>Created with Sketch.</desc>
    <defs></defs>
    <g id="SVGs" stroke="none" stroke-width="1" fill="none" fill-rule="evenodd">
        <g id="Slices" transform="translate(-354.000000, -710.000000)"></g>
        <g id="18-headgear-snapback" transform="translate(12.304902, 17.782124)" fill-rule="nonzero">
            <path d="M25.0003117,11.1366624 L0.756518931,11.1366624 C0.36780706,11.0948075 0.0731357464,10.7667039 0.0731357464,10.3757451 C0.0731357464,9.98478635 0.36780706,9.65668273 0.756518931,9.61482781 L25.0003117,9.61482781 C25.3890235,9.65668273 25.6836948,9.98478635 25.6836948,10.3757451 C25.6836948,10.7667039 25.3890235,11.0948075 25.0003117,11.1366624 Z" id="Shape" fill="#88F6DD"></path>
            <ellipse id="Oval" fill="#88F6DD" cx="9.67640493" cy="0.782909127" rx="1.3283065" ry="1"></ellipse>
            <path d="M17.611057,11.1366624 L17.611057,4.77662535 C17.611057,4.77662535 17.611057,1.35469669 13.2126911,0.976437225 C8.81432522,0.59817776 5.62990833,1.05560781 1.09079474,4.77662535 C1.09079474,4.77662535 0.457430051,5.0141371 0.475023515,7.10775926 C0.479775103,7.51873057 0.811774409,7.85072987 1.22274571,7.85548146 L1.28432284,7.85548146 C1.66299341,7.85312207 2.02683815,8.00250524 2.29460388,8.27027097 C2.56236961,8.5380367 2.71175277,8.90188143 2.70939338,9.28055201 L2.70939338,11.1366624 L17.611057,11.1366624 Z" id="Shape" fill="#6E49D4"></path>
            <circle id="Oval" fill="#864EBA" cx="13.4765931" cy="2.6302228" r="1"></circle>
            <path d="M14.6993388,10.8463703 C14.6324606,10.8464129 14.5684402,10.8192586 14.5219869,10.7711463 C14.4755337,10.7230341 14.4506418,10.6581005 14.4530303,10.591265 L14.4530303,10.3361598 C14.4506418,10.2693243 14.4755337,10.2043908 14.5219869,10.1562785 C14.5684402,10.1081663 14.6324606,10.0810119 14.6993388,10.0810546 C14.8402295,10.0810546 14.954444,10.1952691 14.954444,10.3361598 L14.954444,10.591265 C14.954444,10.7321558 14.8402295,10.8463703 14.6993388,10.8463703 Z M14.6993388,9.32453566 C14.6324606,9.32457833 14.5684402,9.29742401 14.5219869,9.24931175 C14.4755337,9.20119949 14.4506418,9.13626595 14.4530303,9.06943044 L14.4530303,8.30411478 C14.4530303,8.23878971 14.4789806,8.17614018 14.5251724,8.12994838 C14.5713642,8.08375658 14.6340137,8.05780629 14.6993388,8.05780629 C14.8368644,8.0577245 14.9497017,8.16667087 14.954444,8.30411478 L14.954444,9.08702391 C14.9593283,9.15767514 14.9346234,9.22717732 14.8862423,9.27889504 C14.8378612,9.33061277 14.7701584,9.35989122 14.6993388,9.35972259 L14.6993388,9.32453566 Z M14.6993388,7.29249063 C14.6324606,7.29253329 14.5684402,7.26537897 14.5219869,7.21726671 C14.4755337,7.16915446 14.4506418,7.10422092 14.4530303,7.03738541 L14.4530303,6.28086648 C14.4506418,6.21403096 14.4755337,6.14909743 14.5219869,6.10098517 C14.5684402,6.05287291 14.6324606,6.02571859 14.6993388,6.02576125 C14.8402295,6.02576125 14.954444,6.13997575 14.954444,6.28086648 L14.954444,7.03738541 C14.9646852,7.11089933 14.9424011,7.18522834 14.8934048,7.24098269 C14.8444086,7.29673703 14.7735592,7.32838747 14.6993388,7.32767756 L14.6993388,7.29249063 Z M14.6993388,5.26924232 C14.6324606,5.26928499 14.5684402,5.24213067 14.5219869,5.19401841 C14.4755337,5.14590615 14.4506418,5.08097261 14.4530303,5.0141371 L14.4530303,4.24882144 C14.4506418,4.18198593 14.4755337,4.11705239 14.5219869,4.06894013 C14.5684402,4.02082787 14.6324606,3.99367355 14.6993388,3.99371622 C14.8402295,3.99371622 14.954444,4.10793072 14.954444,4.24882144 L14.954444,5.0141371 C14.9646852,5.08765102 14.9424011,5.16198004 14.8934048,5.21773438 C14.8444086,5.27348872 14.7735592,5.30513917 14.6993388,5.30442925 L14.6993388,5.26924232 Z M14.0659741,3.42192865 C13.9874998,3.42136097 13.9133489,3.38589752 13.8636493,3.3251646 C13.7140148,3.13336434 13.55242,2.95120286 13.379829,2.77976724 C13.2802757,2.68015473 13.2802757,2.51871374 13.379829,2.41910123 C13.4261569,2.37181801 13.4895671,2.34517278 13.5557636,2.34517278 C13.6219601,2.34517278 13.6853704,2.37181801 13.7316983,2.41910123 C13.9191735,2.60491303 14.0954199,2.80172155 14.2595022,3.00848226 C14.3544694,3.10994985 14.3544694,3.26768068 14.2595022,3.36914826 C14.20897,3.42263833 14.1395015,3.45421492 14.0659741,3.45711558 L14.0659741,3.42192865 Z M12.561733,2.0760287 C12.5181056,2.08394655 12.4734093,2.08394655 12.429782,2.0760287 C12.22594,1.94846582 12.011017,1.83953225 11.7876206,1.75054962 C11.7250076,1.72704844 11.6746428,1.6790968 11.6480981,1.61771219 C11.6215534,1.55632759 11.6211111,1.48678782 11.6468728,1.42507054 C11.670374,1.36245757 11.7183257,1.31209275 11.7797103,1.28554806 C11.8410949,1.25900336 11.9106346,1.25856108 11.9723519,1.28432284 C12.2219192,1.381905 12.4631551,1.49958105 12.6936839,1.63619211 C12.8117296,1.71155816 12.8503428,1.86601101 12.7816512,1.98806138 C12.7339532,2.06372967 12.651173,2.11008662 12.561733,2.11121562 L12.561733,2.0760287 Z M10.6528422,1.45146074 C10.4156568,1.43385115 10.1774922,1.43385115 9.94030689,1.45146074 C9.87350372,1.4588054 9.80660034,1.43853425 9.75510789,1.39534704 C9.70361545,1.35215983 9.67200607,1.28980737 9.6676082,1.22274571 C9.66026354,1.15594255 9.68053469,1.08903916 9.7237219,1.03754672 C9.76690911,0.986054279 9.82926158,0.954444896 9.89632323,0.95004703 C10.1625044,0.923646448 10.4306446,0.923646448 10.6968258,0.95004703 C10.7645443,0.954555485 10.8276748,0.985862276 10.8722495,1.03704056 C10.9168241,1.08821884 10.9391681,1.15504947 10.9343376,1.22274571 C10.9345003,1.29589454 10.9042946,1.36582954 10.8509297,1.41585915 C10.7975648,1.46588877 10.7258284,1.49152445 10.6528422,1.48664767 L10.6528422,1.45146074 Z" id="Shape" fill="#2A1958"></path>
            <path d="M5.51555081,10.8463703 C5.37466009,10.8463703 5.26044559,10.7321558 5.26044559,10.591265 L5.26044559,9.83474611 C5.26044559,9.69385538 5.37466009,9.57964089 5.51555081,9.57964089 C5.65644154,9.57964089 5.77065603,9.69385538 5.77065603,9.83474611 L5.77065603,10.591265 C5.77065603,10.7321558 5.65644154,10.8463703 5.51555081,10.8463703 Z M5.51555081,8.82312195 C5.37466009,8.82312195 5.26044559,8.70890746 5.26044559,8.56801673 L5.26044559,7.80270107 C5.26044559,7.66181035 5.37466009,7.54759585 5.51555081,7.54759585 C5.65644154,7.54759585 5.77065603,7.66181035 5.77065603,7.80270107 L5.77065603,8.56801673 C5.7808972,8.64153065 5.7586131,8.71585967 5.70961686,8.77161401 C5.66062062,8.82736835 5.58977126,8.8590188 5.51555081,8.85830888 L5.51555081,8.82312195 Z M5.51555081,6.79107692 C5.37466009,6.79107692 5.26044559,6.67686242 5.26044559,6.5359717 L5.26044559,5.77945277 C5.26044559,5.63856204 5.37466009,5.52434754 5.51555081,5.52434754 C5.65644154,5.52434754 5.77065603,5.63856204 5.77065603,5.77945277 L5.77065603,6.5359717 C5.7808972,6.60948562 5.7586131,6.68381463 5.70961686,6.73956898 C5.66062062,6.79532332 5.58977126,6.82697376 5.51555081,6.82626384 L5.51555081,6.79107692 Z M5.68268872,4.78542208 L5.5947214,4.78542208 C5.53051162,4.76371586 5.47808423,4.71650917 5.44978629,4.65491954 C5.42148835,4.59332991 5.41982102,4.52280103 5.44517696,4.459943 C5.52736871,4.2084454 5.63035281,3.96422596 5.75306257,3.72981427 C5.78149482,3.66964263 5.83306608,3.6235371 5.89603412,3.6019954 C5.95900216,3.5804537 6.02800751,3.58530935 6.08733838,3.61545675 C6.21013332,3.6816216 6.26023294,3.83192045 6.20169589,3.95852929 C6.09361206,4.17510704 5.99958574,4.39841955 5.92020047,4.62708091 C5.89289417,4.73724183 5.79609451,4.81611563 5.68268872,4.820609 L5.68268872,4.78542208 Z M6.66792267,3.02607573 C6.60993188,3.02293439 6.5544584,3.00136138 6.5095815,2.9644986 C6.4100282,2.8648861 6.4100282,2.70344511 6.5095815,2.6038326 C6.68154658,2.40110096 6.8698407,2.21280685 7.07257233,2.04084177 C7.13941281,1.96745962 7.24274978,1.93951084 7.3374666,1.96919777 C7.43218341,1.9988847 7.50108066,2.08081657 7.51407801,2.17922215 C7.52707535,2.27762773 7.48181262,2.37463778 7.39805141,2.42789797 C7.21724284,2.58374601 7.0468097,2.75124064 6.88784097,2.92931168 C6.84662223,3.01249492 6.7607167,3.06403824 6.66792267,3.06126265 L6.66792267,3.02607573 Z M8.28652132,1.82972021 C8.16319301,1.83152755 8.05623503,1.74484145 8.03246152,1.62381271 C8.00868802,1.50278396 8.07490879,1.38208061 8.18975727,1.33710323 C8.43486694,1.23240471 8.6878168,1.14710766 8.9462762,1.08199801 C9.08220168,1.04870274 9.21957506,1.13112676 9.25416181,1.26672937 C9.28745708,1.40265486 9.20503306,1.54002823 9.06943044,1.57461498 C8.83610452,1.63625198 8.6069283,1.71264405 8.38328537,1.80333001 C8.35881463,1.83408837 8.32474885,1.8557666 8.28652132,1.86490713 L8.28652132,1.82972021 Z" id="Shape" fill="#2A1958"></path>
            <circle id="Oval" fill="#864EBA" cx="8.34809844" cy="9.09582064" r="1"></circle>
            <path d="M3.88815544,3.80898485 C4.44200173,3.80898485 4.89098286,3.36000372 4.89098286,2.80615743 C4.88915402,2.63902193 4.84366675,2.47526774 4.75903188,2.33113392 C4.16915397,2.6334576 3.59648793,2.96824697 3.04366919,3.33396134 C3.22492083,3.62680823 3.54376689,3.80615913 3.88815544,3.80898485 Z" id="Shape" fill="#864EBA"></path>
            <circle id="Oval" fill="#864EBA" cx="12.6497003" cy="7.00219848" r="1"></circle>
            <path d="M16.397108,5.51555081 C16.4018855,6.06254766 16.8441418,6.50480396 17.3911387,6.5095815 C17.467104,6.51870671 17.5438884,6.51870671 17.6198537,6.5095815 L17.6198537,4.77662535 C17.6240154,4.69750945 17.6240154,4.61822948 17.6198537,4.53911359 C17.549735,4.5306381 17.4788508,4.5306381 17.4087322,4.53911359 C16.8616171,4.53412525 16.4114836,4.96860186 16.397108,5.51555081 Z" id="Shape" fill="#864EBA"></path>
            <circle id="Oval" fill="#864EBA" cx="2.2167764" cy="5.99937106" r="1"></circle>
            <circle id="Oval" fill="#864EBA" cx="8.67357751" cy="3.78259466" r="1"></circle>
        </g>
    </g>
</svg>