<?xml version="1.0" encoding="UTF-8"?>
<svg width="48px" height="48px" viewBox="0 0 48 48" version="1.1" xmlns="http://www.w3.org/2000/svg" xmlns:xlink="http://www.w3.org/1999/xlink">
    <!-- Generator: Sketch 51.3 (57544) - http://www.bohemiancoding.com/sketch -->
    <title>headgear-fedora</title>
    <desc>Created with Sketch.</desc>
    <defs></defs>
    <g id="SVGs" stroke="none" stroke-width="1" fill="none" fill-rule="evenodd">
        <g id="Slices" transform="translate(-177.000000, -770.000000)"></g>
        <g id="20_HeadGear_Fedora_v1" transform="translate(10.283516, 16.578880)" fill-rule="nonzero">
            <path d="M3.59754171,9.07951003 L3.76885322,9.07951003 C3.76885322,8.47991975 3.85450898,7.36639493 3.94016473,6.76680465 C4.11147624,5.56762408 4.28278775,4.11147624 4.96803379,3.08360718 C5.56762408,2.22704963 6.93811616,1.37049208 7.96598522,1.19918057 C10.9639366,0.770901795 13.9618881,0.34262302 16.9598395,0.085655755 C17.9020528,1.72778458e-15 18.8442661,0.085655755 19.7864794,0.256967265 C20.0434467,0.256967265 20.3004139,1.97008237 20.3860697,2.14139388 C20.643037,2.99795143 20.9000042,3.85450898 21.1569715,4.71106653 C21.9278733,7.02377191 23.4696769,10.3643464 24.4118902,12.591396 C24.4118902,12.591396 26.0393495,13.1909863 26.0393495,13.276642 C26.4676283,13.5336093 26.9815628,13.7049208 27.4098416,13.9618881 C27.6668089,14.1331996 29.4655797,14.9897571 29.037301,15.2467244 C28.2663992,15.5893474 27.4954974,15.1610686 26.7245956,14.9897571 C25.868038,14.7327899 25.0114805,14.4758226 24.0692672,14.3045111 C21.8422175,13.8762323 19.4438564,13.8762323 17.131151,13.8762323 C14.2188553,13.8762323 11.3065597,13.9618881 8.39426399,13.9618881 C6.93811616,13.9618881 5.39631257,13.9618881 3.94016473,13.8762323 C3.16926294,13.8762323 2.4840169,13.4479535 1.88442661,13.0196748 C1.11352482,12.4200845 0.51393453,11.5635269 0.256967265,10.7069694 C0.085655755,10.1073791 0,9.42213305 0,8.82254277 C0,8.5655755 0.085655755,8.13729673 0.256967265,7.96598522 C0.599590285,7.6233622 1.11352482,8.22295248 1.37049208,8.39426399 C1.79877086,8.73688701 2.22704963,9.07951003 2.56967265,9.07951003 C2.91229567,9.07951003 3.59754171,9.07951003 3.59754171,9.07951003 Z" id="Shape" fill="#898989"></path>
            <path d="M7.45205069,5.73893559 C7.28073918,5.82459134 7.19508342,6.25287012 7.10942767,6.42418163 C7.02377191,6.59549314 7.02377191,6.8524604 7.02377191,7.02377191 C7.02377191,7.19508342 7.02377191,7.45205069 7.10942767,7.6233622 C7.19508342,7.79467371 7.36639493,7.79467371 7.45205069,7.88032946 C7.96598522,8.22295248 8.47991975,8.5655755 8.99385428,8.90819852 C9.07951003,8.99385428 9.25082154,9.07951003 9.3364773,9.16516579 C9.42213305,9.25082154 9.50778881,9.3364773 9.59344456,9.42213305 C9.67910032,9.50778881 9.76475607,9.59344456 9.85041183,9.67910032 C9.93606758,9.67910032 9.93606758,9.76475607 10.0217233,9.76475607 C10.1073791,9.67910032 10.1073791,9.42213305 10.1073791,9.3364773 C10.1073791,9.07951003 10.1073791,8.90819852 10.1930349,8.65123126 C10.1930349,8.13729673 10.2786906,7.6233622 10.1073791,7.19508342 C9.93606758,6.68114889 9.50778881,6.33852587 9.07951003,6.16721436 C8.5655755,5.9102471 8.05164097,5.82459134 7.45205069,5.73893559 C7.45205069,5.73893559 7.45205069,5.73893559 7.45205069,5.73893559 Z" id="Shape" fill="#FFFEFA"></path>
            <path d="M11.7348384,9.16516579 C11.7348384,8.5655755 11.8204942,7.96598522 11.7348384,7.36639493 C11.6491827,7.02377191 11.5635269,6.76680465 11.3922154,6.50983738 C11.1352482,6.25287012 10.9639366,6.08155861 10.6213136,5.9102471 C10.6213136,5.9102471 10.1073791,5.65327983 10.0217233,5.65327983 C9.85041183,5.82459134 9.76475607,6.08155861 9.67910032,6.33852587 C9.59344456,6.59549314 9.50778881,6.8524604 9.50778881,7.19508342 C9.50778881,7.96598522 9.93606758,8.99385428 10.4500021,9.50778881 C10.5356579,9.59344456 10.7069694,9.67910032 10.7926251,9.76475607 C10.9639366,9.85041183 11.7348384,9.76475607 11.7348384,10.0217233 C11.6491827,9.67910032 11.7348384,9.42213305 11.7348384,9.16516579 Z" id="Shape" fill="#1E2B58"></path>
            <path d="M6.50983738,6.93811616 C6.42418163,6.93811616 6.59549314,7.88032946 6.68114889,7.88032946 C6.76680465,8.30860824 6.93811616,8.65123126 7.19508342,8.99385428 C7.45205069,9.3364773 7.79467371,9.50778881 8.13729673,9.67910032 C8.5655755,9.85041183 8.99385428,9.76475607 9.42213305,9.85041183 C9.67910032,9.85041183 10.2786906,10.0217233 10.5356579,10.0217233 C10.4500021,10.0217233 10.4500021,9.76475607 10.4500021,9.67910032 C10.3643464,9.25082154 10.1930349,8.90819852 10.0217233,8.5655755 C9.93606758,8.22295248 9.50778881,7.70901795 9.25082154,7.45205069 C8.99385428,7.10942767 8.47991975,7.02377191 7.96598522,6.93811616 C7.53770644,6.8524604 7.02377191,6.8524604 6.50983738,6.93811616 Z" id="Shape" fill="#5C1F5B"></path>
            <path d="M2.4840169,9.07951003 C2.65532841,9.16516579 4.02582049,9.93606758 4.197132,10.0217233 C5.56762408,10.6213136 6.68114889,10.6213136 8.05164097,10.8782809 C9.42213305,11.0495924 10.8782809,10.9639366 12.3344287,11.0495924 C13.5336093,11.0495924 14.7327899,11.1352482 16.0176262,11.2209039 C18.1590201,11.3065597 20.3004139,11.4778712 22.3561521,11.9918057 C22.6987751,12.0774615 23.0413981,12.1631172 23.3840211,12.3344287 C23.4696769,12.3344287 24.3262344,12.6770517 24.3262344,12.7627075 C24.3262344,12.7627075 22.8700866,9.3364773 22.8700866,9.3364773 L14.1331996,9.16516579 L5.99590285,9.16516579 C5.99590285,9.07951003 2.4840169,9.07951003 2.4840169,9.07951003 Z" id="Shape" fill="#4D4E4E"></path>
            <path d="M17.131151,1.97008237 C17.2168068,2.56967265 17.3881183,3.16926294 17.7307413,3.59754171 C18.0733643,4.02582049 18.6729546,4.28278775 19.1868891,4.62541077 L19.1868891,4.71106653 C18.5872988,4.62541077 17.9877086,4.28278775 17.473774,3.85450898 C17.2168068,3.59754171 17.0454953,3.34057445 16.9598395,2.99795143 C16.8741837,2.65532841 16.8741837,2.31270539 16.8741837,2.05573812 L17.131151,2.05573812 L17.131151,1.97008237 Z" id="Shape" fill="#4D4E4E"></path>
        </g>
    </g>
</svg>