<?xml version="1.0" encoding="UTF-8"?>
<svg width="48px" height="48px" viewBox="0 0 48 48" version="1.1" xmlns="http://www.w3.org/2000/svg" xmlns:xlink="http://www.w3.org/1999/xlink">
    <!-- Generator: Sketch 51.3 (57544) - http://www.bohemiancoding.com/sketch -->
    <title>headgear-turban</title>
    <desc>Created with Sketch.</desc>
    <defs></defs>
    <g id="SVGs" stroke="none" stroke-width="1" fill="none" fill-rule="evenodd">
        <g id="Slices" transform="translate(-825.000000, -710.000000)"></g>
        <g id="Group-140" transform="translate(12.449702, 14.639956)">
            <path d="M7.69808405,18.9191715 C10.5363888,17.8500388 13.3481787,17.6975294 16.1334537,18.4616432 C18.9187287,19.2257569 17.5128338,16.918337 11.9157689,11.5393833 L7.40140738,16.0885823 L7.69808405,18.9191715 Z" id="Path-33" stroke="#143072" stroke-width="0.7" fill="#864EBA"></path>
            <path d="M6.65953945,20.4194742 C7.60543868,20.506421 7.72798671,19.3341076 8.07236664,17.3895535 C8.28843823,16.1694973 9.10911061,15.3536563 9.74838422,14.6451474 C10.4898997,13.8233237 11.6820543,12.4437415 12.1552251,12.7677422 C12.4195904,12.9487646 13.1906391,13.9569285 14.1995918,15.218409 C14.6294061,15.7558004 15.1575587,16.3404395 15.6141226,17.0068113 C16.75655,18.674226 15.9534651,20.0784589 17.0764155,20.2888777 C17.7514284,20.4153619 18.4516441,19.665798 19.2180099,18.2639566 C19.5366117,17.681168 20.0632962,17.6906523 20.4087702,17.1317092 C21.0037906,16.1690241 20.92216,15.9544676 21.4716364,14.9522812 C22.0703869,13.8602241 22.2154338,13.7279108 22.5375575,12.5771642 C23.0843733,10.6237328 22.4662376,10.1967598 22.8774726,8.73528938 C23.1764228,7.67286286 22.9849805,7.59815439 22.5375575,6.61437429 C22.1160409,5.68755662 21.8144804,5.9032339 21.09847,5.08023278 C20.3299221,4.19684368 20.7418749,3.94432671 19.7871003,3.31814959 C19.1523342,2.90184601 18.0805245,3.2769084 17.9153349,2.61505525 C17.6050875,1.37200937 16.4135047,0.624619142 14.7706797,1.06375937 C14.061824,1.25324212 13.6628558,1.62056087 12.9289344,1.78224564 C11.6435901,2.06541031 11.0538505,1.29412491 9.05163465,1.78224564 C4.61934391,2.86279496 2.47763208,4.49310671 1.10892453,7.46257583 C0.722469662,8.30100607 1.16806891,8.94274541 1.18559048,9.30273492 C1.26876274,11.0115512 0.135964063,10.6944596 1.10892453,12.1213983 C2.6345476,14.3588691 3.10194241,15.7963315 3.38904631,17.2143674 C3.57909563,18.1530407 5.89744881,20.349423 6.65953945,20.4194742 Z" id="Path-30" stroke="#132F71" stroke-width="0.6" fill="#3157B2"></path>
            <path d="M6.0492819,19.8910612 C5.39722641,15.2235466 5.85222095,11.7867062 7.41426551,9.58054009 C9.75733236,6.27129084 13.1501285,1.14728435 14.9232649,0.829158153 C16.6964013,0.511031955 17.7792161,1.23795685 17.7792161,2.5316146 C17.7792161,3.82527234 16.5069544,7.67309011 13.6116184,10.84128 C11.7366516,12.8929422 8.57930574,14.9452661 8.0654968,17.2557951 C7.59123182,19.3885003 7.49798011,20.3990887 6.78187295,20.3990887 C6.30446817,20.3990887 6.06027116,20.2297462 6.0492819,19.8910612 Z" id="Path-31" stroke="#132F71" stroke-width="0.6"></path>
            <path d="M13.9126085,10.7256667 C15.8737275,12.5048161 17.1398025,13.8704002 17.7108336,14.8224191 C18.2818647,15.774438 18.6539737,17.1400221 18.8271604,18.9191715" id="Path-32" stroke="#132F71" stroke-width="0.6" stroke-linecap="round"></path>
            <path d="M14.5130703,9.99243475 C15.7334455,10.1723007 16.7343427,10.5368285 17.5157617,11.0860183 C19.0740956,12.1812322 20.250629,13.7232681 21.0453619,15.712126" id="Path-32-Copy" stroke="#132F71" stroke-width="0.6" stroke-linecap="round"></path>
            <path d="M2.5715074,4.2727435 C3.58512485,4.21646305 4.43549103,4.29637972 5.12260595,4.5124935 C7.40503283,5.23037035 9.09879286,7.62121715 9.73431264,8.85102266 C10.5552552,10.439643 11.044019,12.3569185 11.2006041,14.602849" id="Path-32-Copy-4" stroke="#132F71" stroke-width="0.6" stroke-linecap="round" transform="translate(6.886056, 9.429075) scale(-1, 1) translate(-6.886056, -9.429075) "></path>
            <path d="M1.1821831,3.05989401 C3.07939296,2.63064301 4.76829168,2.78103752 6.24887927,3.51107755 C7.72946686,4.24111757 9.69783758,6.06378938 12.1539914,8.97909299" id="Path-32-Copy-5" stroke="#132F71" stroke-width="0.6" stroke-linecap="round" transform="translate(6.668087, 5.900289) scale(-1, 1) translate(-6.668087, -5.900289) "></path>
            <path d="M14.9270802,9.31273315 C15.8113003,8.87883645 16.4577179,8.60508732 16.8663332,8.49148578 C18.5507387,8.02319427 19.9468916,8.07692768 20.5057629,8.13189016 C21.5040792,8.23007007 22.2461038,8.6236844 22.7318366,9.31273315" id="Path-32-Copy-2" stroke="#132F71" stroke-width="0.6" stroke-linecap="round"></path>
            <path d="M16.4984541,6.74762552 C17.8757401,5.93029908 18.9815498,5.49796991 19.8158834,5.45063801 C20.7161354,5.39956654 21.4912166,5.5700724 22.1411269,5.96215559" id="Path-32-Copy-3" stroke="#132F71" stroke-width="0.6" stroke-linecap="round"></path>
        </g>
    </g>
</svg>