<?xml version="1.0" encoding="utf-8"?>
<!-- Generator: Adobe Illustrator 23.0.1, SVG Export Plug-In . SVG Version: 6.00 Build 0)  -->
<svg version="1.1" id="Layer_1" xmlns="http://www.w3.org/2000/svg" xmlns:xlink="http://www.w3.org/1999/xlink" x="0px" y="0px"
	 viewBox="0 0 48 48" style="enable-background:new 0 0 48 48;" xml:space="preserve">
<style type="text/css">
	.st0{fill:#14473C;}
	.st1{fill:#DDDDDD;}
	.st2{fill:#715439;}
	.st3{fill:#F5CD2E;}
	.st4{fill:#9EB4EE;}
	.st5{fill:#FFE09E;}
	.st6{fill:#E98734;}
	.st7{fill:#F1F582;}
	.st8{fill:#ACB034;}
	.st9{fill:#F1AFF1;}
	.st10{fill:#DE74DD;}
	.st11{fill:#3157B2;}
	.st12{fill:#FCA183;}
	.st13{fill:#E2683A;}
</style>
<title>29_HeadGear_DirndlFlowerCrown (DRN)</title>
<g>
	<path class="st0" d="M34.3,26.4c0.1-0.2,0.2-0.3,0.4-0.4c0.4-0.1,0.7,0.1,0.9,0.4c0,0,0,0,0,0c0.4,1.1,0.9,2.1,1.5,3.1
		c0.2,0.3,0.1,0.7-0.2,0.9c-0.3,0.2-0.7,0.1-0.9-0.2c0,0,0,0,0,0c-0.6-1.1-1.2-2.2-1.6-3.4C34.2,26.8,34.2,26.6,34.3,26.4z"/>
	<path class="st0" d="M32.3,23.9c0.2,0,0.3,0,0.4,0.1c0.2,0.2,0.3,0.6,0,0.8c-0.6,0.7-1.1,1.5-1.6,2.4c-0.1,0.3-0.5,0.4-0.8,0.3
		c-0.3-0.1-0.4-0.5-0.3-0.8c0.5-0.9,1.1-1.8,1.8-2.6C32,24,32.1,23.9,32.3,23.9z"/>
	<ellipse transform="matrix(0.7851 -0.6194 0.6194 0.7851 -8.8304 14.6946)" class="st1" cx="16.8" cy="20.1" rx="2.2" ry="1.1"/>
	<ellipse transform="matrix(0.9669 -0.2551 0.2551 0.9669 -4.4864 4.3305)" class="st1" cx="14.5" cy="19.5" rx="1.1" ry="2.2"/>
	<ellipse transform="matrix(0.5003 -0.8659 0.8659 0.5003 -11.8042 21.2861)" class="st1" cx="12.5" cy="20.9" rx="1.1" ry="2.2"/>
	<ellipse transform="matrix(0.7851 -0.6194 0.6194 0.7851 -4.265 26.7301)" class="st1" cx="36.4" cy="19.5" rx="2.2" ry="1.1"/>
	<ellipse transform="matrix(0.9669 -0.2551 0.2551 0.9669 -3.6942 9.3173)" class="st1" cx="34.1" cy="18.9" rx="1.1" ry="2.2"/>
	<ellipse transform="matrix(0.5003 -0.8659 0.8659 0.5003 -1.5112 37.997)" class="st1" cx="32.2" cy="20.3" rx="1.1" ry="2.2"/>
	<ellipse transform="matrix(0.6828 -0.7306 0.7306 0.6828 -14.2905 25.6555)" class="st1" cx="22.4" cy="29.3" rx="2.2" ry="1.3"/>
	<ellipse transform="matrix(0.9474 -0.32 0.32 0.9474 -7.7499 8.1786)" class="st1" cx="21" cy="27.7" rx="2.2" ry="1.1"/>
	<ellipse transform="matrix(0.9174 -0.3979 0.3979 0.9174 -9.7364 12.3443)" class="st1" cx="24.9" cy="29.6" rx="1.1" ry="2.2"/>
	<ellipse transform="matrix(0.3641 -0.9314 0.9314 0.3641 -8.9834 42.466)" class="st1" cx="26.6" cy="27.8" rx="1.3" ry="2.2"/>
	<path class="st2" d="M6.4,26.4c-0.1,0.2,0,0.4,0.1,0.6c0.2,0.3,0.9,0.4,1.3,0.3c0.7-0.2,11.1-2.3,12-2.4c0.3,0,0.6-0.3,0.6-0.7
		c0,0,0-0.1,0-0.1c-0.2-0.4-0.6-0.6-1-0.5C18.1,23.6,7.1,25.8,6.7,26C6.6,26.1,6.4,26.2,6.4,26.4z"/>
	<path class="st2" d="M30.9,22.1c-0.2,0.1-0.3,0.2-0.4,0.4c-0.1,0.4,0.1,0.7,0.4,0.9c0,0,0,0,0,0c0.3,0.1,9,6,9.7,6.5
		c0.3,0.2,0.7,0.2,1-0.1c0.2-0.3,0.2-0.7-0.1-1c0,0,0,0-0.1,0c-0.9-0.6-9.6-6.6-10-6.7C31.2,22,31,22,30.9,22.1z"/>
	<path class="st2" d="M21.5,21.5c-0.1,0.1-0.2,0.3-0.2,0.5c0,0.4-1,1.4-0.6,1.4c0,0-0.3,1.5,1.6,1.8c2.1,0.3,6.5-0.6,8.8-0.4
		c3.7,0.3,6.3-0.9,6.9-1c0.6,0,1.2-0.2,1.3-0.6c0.1-0.4-0.2-0.7-0.5-0.8c-1-0.2-16.5-1.2-16.9-1.2C21.8,21.3,21.6,21.4,21.5,21.5z"
		/>
	<ellipse class="st1" cx="34.4" cy="21.3" rx="2.2" ry="2.3"/>
	<ellipse class="st3" cx="34.4" cy="21.3" rx="1.1" ry="1.1"/>
	<ellipse class="st1" cx="23.7" cy="27.1" rx="2.2" ry="2.3"/>
	<ellipse class="st3" cx="23.5" cy="27" rx="1.3" ry="1.3"/>
	<ellipse class="st4" cx="31.3" cy="22.3" rx="1.7" ry="1.8"/>
	<path class="st5" d="M29.3,20.9c0.4,0.3,0.7,0.8,0.9,1.3c0.6,1.7-0.4,3.6-2.1,4.2c-0.6,0.2-1.2,0.2-1.8,0.1
		c-1.9-0.4-3.1-2.2-2.7-4.1c0.1-0.5,0.4-0.9,0.7-1.4c0.5-0.8,1-1.3,1.9-1.2c0.5,0.1,1.4-0.1,1.8,0C28.8,20,29,20.6,29.3,20.9z"/>
	<path class="st3" d="M30.2,22.6c0.6,1.8-0.3,3.7-2.1,4.3c-1.8,0.6-2.7-2-0.9-2.6C29,23.8,29.6,20.8,30.2,22.6z"/>
	<path class="st3" d="M25.6,25.8c1.2-1.3-0.7-3.3-1.5-3.3C22.2,22.7,24.3,27.2,25.6,25.8z"/>
	<ellipse class="st6" cx="31.3" cy="22.3" rx="0.9" ry="0.9"/>
	<ellipse class="st4" cx="23" cy="19.9" rx="1.9" ry="1.9"/>
	<ellipse class="st6" cx="23" cy="19.9" rx="0.9" ry="1"/>
	<ellipse class="st1" cx="15" cy="21.7" rx="2.2" ry="2.3"/>
	<ellipse class="st3" cx="15" cy="21.7" rx="1.1" ry="1.1"/>
	<path class="st0" d="M35.5,23.6c-0.4,0-0.7-0.3-0.7-0.7c0-0.2,0.1-0.4,0.2-0.5c0.8-0.8,1.6-1.6,2.2-2.5c0.2-0.3,0.6-0.4,0.9-0.2
		s0.4,0.6,0.2,0.9c-0.8,1-1.6,2-2.5,2.8C35.8,23.5,35.7,23.6,35.5,23.6z"/>
	<path class="st0" d="M10.6,20.9C10.2,21,10,21.4,10,21.7c0,0.2,0.1,0.4,0.3,0.5c0.9,0.6,1.8,1.4,2.6,2.1c0.3,0.3,0.7,0.3,1,0
		c0.3-0.3,0.3-0.7,0-1c0,0,0,0,0,0c-0.9-0.9-1.9-1.7-2.9-2.4C10.9,20.9,10.7,20.9,10.6,20.9z"/>
	<path class="st0" d="M8,23.1c-0.2,0.1-0.3,0.3-0.3,0.4c-0.1,0.4,0.1,0.7,0.5,0.8c0,0,0,0,0,0c1.1,0.3,2.1,0.7,3.2,1.2
		c0.3,0.2,0.7,0.1,0.9-0.3c0.2-0.3,0.1-0.7-0.3-0.9l0,0c-1.1-0.5-2.3-1-3.5-1.3C8.3,23,8.2,23,8,23.1z"/>
	<path class="st0" d="M12.7,26.3c0-0.2-0.1-0.4-0.3-0.5c-0.3-0.2-0.7-0.1-0.9,0.2c-0.7,0.9-1.4,1.8-2.2,2.6c-0.3,0.3-0.3,0.7,0,1
		c0.2,0.2,0.6,0.3,0.9,0.1c0.9-0.9,1.7-1.8,2.5-2.9C12.7,26.6,12.7,26.5,12.7,26.3z"/>
	<path class="st0" d="M13.1,30.5c0.3,0.3,0.7,0.3,1,0c0.1-0.1,0.2-0.3,0.2-0.5c0-1.1,0.1-2.3,0.2-3.4c0.1-0.4-0.2-0.7-0.6-0.8
		c-0.3-0.1-0.7,0.1-0.8,0.5c-0.2,1.2-0.3,2.5-0.3,3.8C12.9,30.3,13,30.4,13.1,30.5z"/>
	<path class="st0" d="M37.1,25.6c-0.2-0.1-0.3-0.3-0.3-0.5c0-0.4,0.3-0.7,0.6-0.7c0,0,0,0,0,0c1.1-0.1,2.2-0.4,3.3-0.7
		c0.3-0.1,0.7,0,0.9,0.4c0.1,0.3,0,0.7-0.4,0.9c-1.2,0.4-2.5,0.6-3.7,0.7C37.3,25.8,37.2,25.7,37.1,25.6z"/>
	<path class="st7" d="M38.4,25.1c0,1.6-1.3,3-3,3s-3-1.3-3-3c0-0.8,0.2-1.5,0.7-2.2c0.3-0.2,0.6-0.4,1-0.6c0.4-0.3,0.9-0.4,1.3-0.4
		c0.7,0,1.2,0.5,2,0.7S38.4,24.1,38.4,25.1z"/>
	<path class="st8" d="M38,26.6c-0.9,1.5-2.8,2-4.3,1.2c-1.5-0.9-2-2.8-1.2-4.3l0,0c0.9-1.5,0.9,1.2,2.4,2.1S38.9,25,38,26.6z"/>
	<path class="st9" d="M15.9,24.9c0.9,1.4-0.1,3.2-1.7,3.8c-1.6,0.6-3.3-0.2-4-1.7C10,26.7,10,26.3,10,25.9c0-0.7-0.1-1.6,0.6-2
		c0.5-0.4,0.8-1,1.2-1.2c1-0.4,1.8,0.1,2.8,0.5C15.2,23.5,15.5,24.3,15.9,24.9z"/>
	<path class="st10" d="M16.3,25.6c0.6,1.7-1.5,3.9-4.2,3.3c-1.8-0.4-2-1.4-1.7-1.9c0.4-0.9,1.2-0.3,3-0.1
		C15.1,27.2,15.8,24.4,16.3,25.6z"/>
	<ellipse class="st4" cx="39" cy="26.8" rx="1.7" ry="2.2"/>
	<path class="st11" d="M38.7,27.3c0.9,0.5,2.2,0.2,1.7,1c-0.6,0.8-1.7,1-2.6,0.4c-0.8-0.5-1-1.6-0.5-2.4
		C37.8,25.5,37.8,26.7,38.7,27.3z"/>
	
		<ellipse transform="matrix(0.9999 -1.361315e-02 1.361315e-02 0.9999 -0.371 0.2312)" class="st4" cx="16.8" cy="27.4" rx="1.7" ry="1.8"/>
	
		<ellipse transform="matrix(0.9999 -1.361315e-02 1.361315e-02 0.9999 -0.371 0.2312)" class="st6" cx="16.8" cy="27.4" rx="0.9" ry="0.9"/>
	<path class="st12" d="M22.6,22.3c0.7,1.8-0.1,3.9-1.9,4.6c0,0,0,0-0.1,0c-1.9,0.7-4-0.2-4.7-2.1c-0.3-0.8-0.6-1.8-0.1-2.4
		c0.5-0.7,0.8-1.4,1.8-2.1c0.8-0.6,1.9-0.6,2.8-0.2c0.5,0.3,0.7,0.6,1.5,1C22.3,21.3,22.4,21.9,22.6,22.3z"/>
	<path class="st13" d="M23,24.2c-0.3,2.1-2.1,3.5-4.2,3.3c-1.2-0.2-2.2-0.9-2.7-2c-0.2-0.3,0.1-0.9-0.1-1.5
		c-0.1-0.5,0.8-1.1,1.3-0.7c0.5,0.4,0.9,1,1.7,1.1c0.7,0.1,1.3-0.6,2.1-0.7C22.4,23.5,23.2,22.8,23,24.2z"/>
</g>
</svg>
