<?xml version="1.0" encoding="UTF-8"?>
<svg width="48px" height="48px" viewBox="0 0 48 48" version="1.1" xmlns="http://www.w3.org/2000/svg" xmlns:xlink="http://www.w3.org/1999/xlink">
    <!-- Generator: Sketch 53.2 (72643) - https://sketchapp.com -->
    <title>HeadGear-AdidasTracksuitBuckethat</title>
    <desc>Created with Sketch.</desc>
    <g id="SVGs" stroke="none" stroke-width="1" fill="none" fill-rule="evenodd">
        <g id="Slices" transform="translate(-533.000000, -829.000000)"></g>
        <path d="M17.2533189,18.2902215 C19.4725903,17.4300738 21.7064286,17 23.954834,17 C26.2126883,17 28.4727834,17.4336962 30.7351194,18.3010886 L30.7351166,18.3010959 C32.1173075,18.8310357 33.093819,20.0809951 33.273542,21.5503445 L33.7459023,25.4121904 L37.2026211,27.146881 C37.6962526,27.3946065 37.8955988,27.9955952 37.6478733,28.4892268 C37.5421268,28.6999429 37.3653335,28.8665229 37.1487048,28.9595584 C33.4854294,30.5328248 29.1025278,31.319458 24,31.319458 C18.9000529,31.319458 14.4935457,30.5336203 10.7804782,28.961945 L10.7804744,28.9619538 C10.2718709,28.746671 10.0340874,28.1598451 10.2493703,27.6512415 C10.3428691,27.4303515 10.5126494,27.2504271 10.7277483,27.1442813 L14.25522,25.4035645 L14.7284573,21.5342813 C14.9075325,20.0700957 15.8779161,18.8233016 17.2533189,18.2902215 Z" id="Rectangle" fill="#D22524"></path>
        <circle id="Oval" fill="#FFFFFF" cx="24" cy="22" r="3"></circle>
        <g id="Group-163" transform="translate(22.000000, 20.000000)">
            <path d="M2,3.08575439 C2.73637967,3.08575439 3.62394206,2.70664978 3.62394206,1.83575439 C3.62394206,0.964859009 2.73637967,0.585754395 2,0.585754395 C1.26362033,0.585754395 0.370768229,0.92678833 0.370768229,1.83575439 C0.370768229,2.74472046 1.26362033,3.08575439 2,3.08575439 Z" id="Oval" fill="#D32A2A"></path>
            <path d="M0.604695638,1.24623108 C0.494266961,1.19951514 0.514923971,0.955361798 0.666666667,0.513771057 C1.03434245,0.555351257 1.28252496,0.635561625 1.41121419,0.754402161 C1.60424805,0.932662964 0.806057017,1.33141535 0.604695638,1.24623108 Z" id="Path-378" fill="#D22524"></path>
            <path d="M2.62869152,1.24623108 C2.51826284,1.19951514 2.53891985,0.955361798 2.69066255,0.513771057 C3.05833833,0.555351257 3.30652084,0.635561625 3.43521007,0.754402161 C3.62824393,0.932662964 2.8300529,1.33141535 2.62869152,1.24623108 Z" id="Path-378" fill="#D22524" transform="translate(3.011998, 0.885891) scale(-1, 1) translate(-3.011998, -0.885891) "></path>
        </g>
        <path d="M24,26 C24.3423791,26 25,25.5039449 25,24.8891142 C25,24.5629883 25,24.2099057 25,24 C25,23.4477153 24.5522847,23 24,23 C23.4477153,23 23,23.4477153 23,24 C23,24.2100842 23,24.5 23,24.8899815 C23,25.5018339 23.6577995,26 24,26 Z" id="Oval" fill="#D32A2A"></path>
        <path d="M13.7077942,25.6677704 C13.8433228,25.598465 14.1799278,25.4373627 14.2559624,25.3999422 C14.2722613,25.2886282 14.2881622,25.167381 14.3036652,25.0362008 C17.5318086,25.6978176 20.7836489,26.0285645 24.0058594,26.0285645 C27.2280209,26.0285645 30.4787545,25.6977886 33.6982574,25.0362008 C33.712922,25.2052013 33.728935,25.3319453 33.7462966,25.4164325 C33.7915614,25.4450039 33.9638062,25.5287832 34.263031,25.6677704 C34.2515571,25.6701282 33.7961874,25.7756005 33.7847134,25.7779501 C30.527238,26.4449886 27.2674969,26.7785645 24.0058594,26.7785645 C20.7458557,26.7785645 17.483515,26.4453228 14.2192004,25.7789611 C14.2061096,25.7762888 13.7208851,25.6704534 13.7077942,25.6677704 Z" id="Path-377" fill="#983120" fill-rule="nonzero"></path>
        <path d="M12.053975,26.4945317 C16.8706349,27.5176441 20.9754704,28.0285645 24.0058594,28.0285645 C27.0313322,28.0285645 31.1034499,27.5192982 35.9018676,26.4994975 C36.1294217,26.6166077 36.8733639,26.980423 36.9873962,27.0464938 C31.7476131,28.2007056 27.2717427,28.7785645 24.0058594,28.7785645 C20.7384389,28.7785645 16.1833668,28.2001592 10.9316406,27.0448532 C11.0538372,26.9742584 11.5608215,26.7329102 12.053975,26.4945317 Z" id="Path-377" fill="#983120" fill-rule="nonzero"></path>
        <path d="M23.3080139,24.1861572 C23.0567729,23.9669189 22.8730876,23.7814738 22.756958,23.6298218 C22.6408285,23.4781698 22.43927,23.3821208 22.1522827,23.3416748 C22.0557454,23.2564697 22.0557454,23.1812642 22.1522827,23.1160583 C22.2994062,23.0166841 22.8253406,23.1409966 23,23.1856689 C23.229248,23.2443034 23.4118856,23.3908861 23.5479126,23.6254171 L23.3080139,24.1861572 Z" id="Path-379" fill="#D22524"></path>
    </g>
</svg>