<?xml version="1.0" encoding="UTF-8"?>
<svg width="48px" height="48px" viewBox="0 0 48 48" version="1.1" xmlns="http://www.w3.org/2000/svg" xmlns:xlink="http://www.w3.org/1999/xlink">
    <!-- Generator: Sketch 51.3 (57544) - http://www.bohemiancoding.com/sketch -->
    <title>headgear-bunnysuit</title>
    <desc>Created with Sketch.</desc>
    <defs></defs>
    <g id="SVGs" stroke="none" stroke-width="1" fill="none" fill-rule="evenodd">
        <g id="Slices" transform="translate(-59.000000, -710.000000)"></g>
        <g id="Group-41" transform="translate(13.442325, 14.861742)" fill-rule="nonzero">
            <path d="M19.1176593,11.2694714 C19.1176593,13.6332951 16.9454378,15.6390871 15.2371489,16.9790118 C14.4032257,17.6331133 12.3559813,20.0091265 11.3818791,20.0091265 C10.4077769,20.0091265 8.20780145,17.6331133 7.37387826,16.9790118 C5.66558937,15.6390871 3.15263739,13.6332951 3.15263739,11.2694714 C3.15263739,6.9553089 7.91062,2.53224873 11.3818791,2.53224873 C14.8531382,2.53224873 19.1176593,6.9553089 19.1176593,11.2694714 Z M11.7988452,5.55649781 C11.7988888,5.52863144 11.1351701,5.52863144 11.1352138,5.55649781 C8.94584787,6.06931935 5.89895756,8.89840695 5.89895756,12.184506 C5.89895756,13.6409513 7.71780551,14.0125938 9.29224177,15.5589581 C9.66681116,15.9268489 10.3196401,16.6371537 11.2507284,17.6898724 C12.2113736,16.6371537 12.8789808,15.9268489 13.2535502,15.5589581 C14.8279865,14.0125938 17.0351014,13.6409513 17.0351014,12.184506 C17.0351014,8.89840695 13.9882111,6.06931935 11.7988452,5.55649781 Z" id="Combined-Shape" stroke="#F0A4F1" fill="#F0A4F1"></path>
            <path d="M7.35587228,3.99452213 C5.40325975,1.45225161 3.87106588,0.343769493 2.75929066,0.669075774 C1.09162784,1.1570352 0.0254394067,3.20011102 0.0254394067,5.28464113 C0.0254394067,7.36917123 0.227674276,8.60834408 0.654227132,8.60834408 C1.08077999,8.60834408 1.26984247,3.42733469 1.8986302,3.13173084 C2.52741792,2.836127 4.39150427,5.10448938 5.21574696,5.70247696 C5.9776791,5.49572216 6.69105421,4.92640388 7.35587228,3.99452213 Z" id="Path-95" stroke="#F0A4F1" fill="#F0A4F1"></path>
            <path d="M22.4854554,4.33022427 C20.4279748,1.37056991 18.8433468,0.0533958642 17.7315716,0.378702145 C16.0639088,0.866661566 15.4847196,2.72040733 15.4847196,3.70414851 C15.4847196,4.68788968 15.0581668,6.07207862 15.4847196,6.07207862 C15.9112725,6.07207862 16.6572557,2.60929077 16.9979944,2.60929077 C17.338733,2.60929077 19.582494,5.76194641 20.5192831,6.07207862 C21.2812152,5.86532382 21.936606,5.2847057 22.4854554,4.33022427 Z" id="Path-95" stroke="#F0A4F1" fill="#F0A4F1" transform="translate(18.890298, 3.201229) scale(-1, 1) translate(-18.890298, -3.201229) "></path>
            <path d="M5.45964112,5.15025631 L6.22002324,4.48664732 C4.52929098,2.79273078 3.49904315,1.88666164 3.12927974,1.76843989 C2.57463463,1.59110726 1.88549213,3.00793329 2.50738594,3.29963292 C2.92198181,3.49409934 3.90606687,4.11097381 5.45964112,5.15025631 Z" id="Path-97" stroke="#5B318F" fill="#5B318F"></path>
            <path d="M17.3810354,5.31638526 L16.5583337,4.34946557 C18.2977785,2.22886272 19.3371727,1.32917331 19.6765163,1.65039736 C20.1855318,2.13223342 20.6550949,2.52604338 20.4203134,2.75662049 C20.2637923,2.91033855 19.2506996,3.76359348 17.3810354,5.31638526 Z" id="Path-98" stroke="#5B318F" fill="#5B318F"></path>
        </g>
    </g>
</svg>