<?xml version="1.0" encoding="UTF-8"?>
<svg width="48px" height="48px" viewBox="0 0 48 48" version="1.1" xmlns="http://www.w3.org/2000/svg" xmlns:xlink="http://www.w3.org/1999/xlink">
    <!-- Generator: Sketch 51.3 (57544) - http://www.bohemiancoding.com/sketch -->
    <title>headgear-snowbaordinghelmet</title>
    <desc>Created with Sketch.</desc>
    <defs></defs>
    <g id="SVGs" stroke="none" stroke-width="1" fill="none" fill-rule="evenodd">
        <g id="Slices" transform="translate(-295.000000, -710.000000)"></g>
        <g id="Group-45" transform="translate(13.575154, 12.880859)" fill-rule="nonzero">
            <path d="M1.07398721,13.2531503 C1.08596789,17.7438676 1.3810241,19.9892262 1.95915583,19.9892262 C2.53728757,19.9892262 2.85987386,17.9145286 2.92691471,13.7651333" id="Path-115" stroke="#464346" stroke-width="1.5" stroke-linecap="round"></path>
            <path d="M18.3798111,13.0299224 C18.3917918,17.5206397 18.686848,19.7659983 19.2649797,19.7659983 C19.8431115,19.7659983 20.1656978,17.6913007 20.2327386,13.5419055" id="Path-115" stroke="#464346" stroke-width="1.5" stroke-linecap="round" transform="translate(19.306275, 16.397960) scale(-1, 1) translate(-19.306275, -16.397960) "></path>
            <path d="M20.6717799,13.5037807 L0.573879156,13.5037807 C0.184850931,9.58694834 0.815539463,6.61262684 2.36872459,4.23885066 C3.88743343,1.91776554 6.77967345,0.044952643 10.6714396,0.1466802 C14.5632058,0.044952643 17.4554458,1.91776554 18.9741547,4.23885066 C20.5273398,6.61262684 21.0608082,9.58694834 20.6717799,13.5037807 Z" id="Combined-Shape" fill="#132069"></path>
            <path d="M2.76108183,13.5735263 L18.603778,13.5735263" id="Path-114" stroke="#464346" stroke-width="3.5" stroke-linecap="round"></path>
            <polygon id="Rectangle-39" stroke="#858385" fill="#858385" stroke-linecap="round" stroke-linejoin="round" points="1.48409891 20.4578562 2.43598379 20.4578562 2.90925882 22.6374915 0.940054311 22.6374915"></polygon>
            <path d="M0.461882489,17.7947075 C2.30204478,17.6978882 3.22212592,17.6494786 3.22212592,17.6494786" id="Line-35" stroke="#979797" stroke-width="2" stroke-linecap="round"></path>
            <polygon id="Rectangle-39" stroke="#858385" fill="#858385" stroke-linecap="round" stroke-linejoin="round" transform="translate(19.230480, 21.324446) scale(-1, 1) translate(-19.230480, -21.324446) " points="18.7899228 20.2346283 19.7418077 20.2346283 20.2150827 22.4142636 18.2458782 22.4142636"></polygon>
            <path d="M17.7677064,17.5714796 C19.6078687,17.4746603 20.5279498,17.4262507 20.5279498,17.4262507" id="Line-35" stroke="#979797" stroke-width="2" stroke-linecap="round" transform="translate(19.147828, 17.498865) scale(-1, 1) translate(-19.147828, -17.498865) "></path>
            <path d="M2.98226316,5.28084425 C1.93527616,5.28084425 1.02993017,6.0107658 0.807853349,7.03392936 C0.788623264,7.12252718 0.778925471,7.21292784 0.778925471,7.30358858 C0.778925471,8.00571674 1.34811281,8.57490407 2.05024096,8.57490407 L18.8776275,8.57490407 C18.9607102,8.57490407 19.043603,8.56696753 19.1251764,8.55120258 C19.8326004,8.4144851 20.2952495,7.73017318 20.158532,7.02274912 C19.9630834,6.01142944 19.077786,5.28084425 18.0477532,5.28084425 L2.98226316,5.28084425 Z" id="Rectangle-40" stroke="#8C898C" fill="#8C898C"></path>
            <path d="M10.8451617,1.66930467 C13.3368344,1.66930467 15.2615218,2.0170444 15.81129,2.41706666 C16.7418923,3.09419135 19.1943782,7.42550839 19.1943782,7.42550839 L19.1943782,8.96389301 L17.4185809,11.9771991 L13.4230063,11.9771991 L12.1038233,10.5701557 L9.66721557,10.5701557 L8.30904407,11.9771991 L3.631174,11.9771991 L1.85537675,8.96389301 L1.85537675,7.42550839 C1.85537675,7.42550839 4.30786267,3.09419135 5.23846494,2.41706666 C5.78823314,2.0170444 8.3534889,1.66930467 10.8451617,1.66930467 Z" id="Combined-Shape" stroke="#DCD4CC" fill="#DCD4CC"></path>
            <path d="M10.6807496,3.23546594 C13.5386772,3.32434863 15.0864815,3.45526063 15.3241623,3.62820194 C15.9276522,4.06731312 17.9190091,7.66853909 17.9190091,7.66853909 L17.9190091,8.66617202 L16.7674155,10.6202824 L13.9073954,10.6202824 L13.0519133,9.49293692 L8.50841939,9.49293692 L7.62765356,10.6202824 L4.48489195,10.6202824 L3.3332984,8.66617202 L3.3332984,7.66853909 C3.3332984,7.66853909 5.32160725,4.06731312 5.92509708,3.62820194 C6.16277793,3.45526063 7.74799544,3.32434863 10.6807496,3.23546594 Z" id="Combined-Shape" stroke="#9F4736" fill="#9D4534"></path>
            <path d="M7.54640748,3.30892572 L7.49203234,11.6210893 L9.04274846,10.6140425 L9.14284429,2.21843215 C8.87784996,2.36416326 8.64875383,2.4998089 8.4558689,2.62506984 C8.15986463,2.81729726 7.8566192,3.04521068 7.5464075,3.30892578 Z M7.17506791,12.3751689 L7.10461149,12.374708 L7.03287762,12.2642476 L7.17967667,11.9125144 L7.34019972,11.9795101 L7.17506791,12.3751689 Z" id="Rectangle-41" stroke="#DA873E" fill="#DA873E" opacity="0.5" transform="translate(8.319940, 6.914381) rotate(33.000000) translate(-8.319940, -6.914381) "></path>
            <path d="M12.9331028,3.23482904 L12.8951691,9.90972335 L13.2565686,9.67502782 L13.289096,3.12012993 C13.2859082,3.12034815 13.2828275,3.12063931 13.2798543,3.12100165 C13.2175603,3.12859333 13.0986807,3.16662234 12.9331028,3.23482904 Z" id="Rectangle-41-Copy" stroke="#D9ACAB" fill="#D9ACAB" transform="translate(13.090440, 6.726910) rotate(33.000000) translate(-13.090440, -6.726910) "></path>
            <path d="M14.9758276,5.09338597 L14.9602628,5.06950332 L14.9602364,5.10356444 L14.692733,5.27820063 L14.9600099,5.39591439 L14.9554347,11.3016353 L15.354991,11.0262337 L15.399251,11.0903389 L15.3991758,10.9957785 L15.6329966,10.8346131 L15.3989769,10.7457124 L15.3942627,4.82021597 L14.9758276,5.09338597 Z" id="Rectangle-41-Copy-2" stroke="#DA873E" fill="#DA873E" opacity="0.5" transform="translate(15.394263, 8.061318) rotate(33.000000) translate(-15.394263, -8.061318) "></path>
            <path d="M15.3534725,5.94316173 L15.3224801,11.0788564 L15.1316017,11.2028144 L15.3217728,11.4956522 L15.2906743,11.5807777 L15.3770405,11.580757 L15.4039212,11.6221496 L15.4190467,11.580747 L15.7906743,11.5806581 L15.7906194,11.3512141 L15.8208446,11.3513965 L15.7906083,11.3048368 L15.7891849,5.35072014 L15.064142,5.79733234 L15.3534725,5.94316173 Z" id="Rectangle-41-Copy-3" stroke="#BD5697" fill="#C45B9B" transform="translate(15.789185, 8.486495) rotate(33.000000) translate(-15.789185, -8.486495) "></path>
            <path d="M5.97385994,2.98907249 L6.25971425,2.77943371 L5.46404859,2.37099986 L5.37913019,10.4740472 L5.87910274,10.4792868 L6.07411152,10.0188831 L5.9255782,9.95597028 L5.97385994,2.98907249 Z" id="Rectangle-41-Copy-4" stroke="#BD5697" fill="#BD5697" transform="translate(5.923278, 6.427763) rotate(33.000000) translate(-5.923278, -6.427763) "></path>
        </g>
    </g>
</svg>