<?xml version="1.0" encoding="UTF-8"?>
<svg width="48px" height="48px" viewBox="0 0 48 48" version="1.1" xmlns="http://www.w3.org/2000/svg" xmlns:xlink="http://www.w3.org/1999/xlink">
    <!-- Generator: Sketch 51.3 (57544) - http://www.bohemiancoding.com/sketch -->
    <title>headgear-bow</title>
    <desc>Created with Sketch.</desc>
    <defs></defs>
    <g id="SVGs" stroke="none" stroke-width="1" fill="none" fill-rule="evenodd">
        <g id="Slices" transform="translate(-707.000000, -710.000000)"></g>
        <g id="23_HeadGear_Bow_v1" transform="translate(12.772539, 15.353275)" fill-rule="nonzero">
            <path d="M21.4779837,9.2634392 C21.0475751,10.0237049 20.2634382,10.5163038 19.3917038,10.5740509 C17.8190772,10.8359163 16.2063197,10.7104456 14.6931163,10.2085061 C14.5326332,11.1446574 13.6936767,12.2248837 12.0273142,12.5265949 C11.6413896,12.5927346 11.2508724,12.6285072 10.8593541,12.6335836 C10.5918824,12.6335836 10.3333263,12.6335836 10.1104332,12.6335836 C10.1458594,13.0677486 10.1309003,13.5045554 10.0658545,13.9352796 C10.0087101,14.3269743 9.90391674,14.7102187 9.75380413,15.0764925 C9.22438507,16.1528448 8.42589286,17.0741819 7.4357154,17.7512103 C7.20218493,17.9126737 6.94290818,18.0332675 6.66896297,18.1078393 C5.85630527,18.2629446 5.01839947,18.0211773 4.41328432,17.4569913 C4.02812082,17.1011319 3.73973208,16.653209 3.57520608,16.1552953 C3.57520608,16.0304752 3.512796,15.905655 3.48604882,15.7808348 C3.45930165,15.6560147 3.41472302,15.2904699 3.37906011,15.058661 C3.35593947,14.8627055 3.31718105,14.6689134 3.26315568,14.4791389 C2.98676817,13.5429876 2.11302704,13.3735888 1.39085324,12.9010554 C0.995747451,12.6428338 0.661184622,12.302188 0.410123391,11.9024941 C0.0656895462,11.3763325 -0.0650471189,10.7385927 0.0445786295,10.1193489 C0.29918546,9.22043259 0.958606827,8.49177198 1.82772381,8.14897347 C2.6802105,7.81913775 3.61231668,7.75389032 4.50244158,7.96174322 C4.90364924,8.02415331 5.30485691,8.11331056 5.69714885,8.20246782 C6.64771636,8.50933094 7.57697493,8.87865165 8.47885533,9.30801783 C8.40752952,8.32728799 9.5037987,6.93030941 10.8771856,6.49064845 C11.257182,6.40301904 11.646289,6.36111521 12.03623,6.36582829 C12.4552691,6.36582829 12.7584038,6.36582829 12.7584038,6.36582829 C12.7584038,6.36582829 12.9278025,5.21569965 13.2131058,4.01207665 C13.3111788,3.62870044 13.4181675,3.22749277 13.5340719,2.87086374 C13.6325438,2.53194415 13.7639334,2.20347004 13.9263638,1.89013389 C13.9887739,1.77422945 14.0600997,1.66724074 14.1314255,1.56025203 C14.3619751,1.24223995 14.6349501,0.957266055 14.9427566,0.713258072 C15.6513978,0.0755184384 16.6379727,-0.153447756 17.5550643,0.106988711 C18.389322,0.449789784 19.0202545,1.15630272 19.2668837,2.02386978 C19.5077822,2.91195377 19.5981908,3.83412204 19.5343554,4.7520819 C19.526341,4.82917774 19.5418838,4.90689216 19.5789341,4.97497505 C19.6257281,5.04582403 19.694718,5.09913438 19.77508,5.12654239 C20.1873309,5.22359109 20.5698044,5.41941753 20.8895458,5.69714885 C21.1591802,6.03294796 21.3619559,6.41731388 21.4868994,6.82944604 C21.8262894,7.60594147 21.8230531,8.48945094 21.4779837,9.2634392 Z" id="Shape" fill="#F3A3F0"></path>
            <circle id="Oval" fill="#FFFEFF" cx="3.58412181" cy="8.55909686" r="1"></circle>
            <circle id="Oval" fill="#FFFEFF" cx="7.5070412" cy="13.7480493" r="1"></circle>
            <circle id="Oval" fill="#FFFEFF" cx="4.60051456" cy="12.9545497" r="1"></circle>
            <circle id="Oval" fill="#FFFEFF" cx="6.54414281" cy="16.5475873" r="1"></circle>
            <path d="M4.48461013,15.3617957 C4.48462822,15.5194163 4.42140988,15.6704549 4.3091205,15.7810683 C4.19683112,15.8916818 4.04485894,15.9526218 3.88725649,15.9502336 C3.73747111,15.9523798 3.59303399,15.8946049 3.48604882,15.7897506 C3.48604882,15.549026 3.41472302,15.2993856 3.37906011,15.0675768 C3.47873723,14.8797277 3.67460559,14.7628939 3.88725649,14.7644421 C4.21716579,14.7644421 4.48461013,15.0318864 4.48461013,15.3617957 Z" id="Shape" fill="#FFFEFF"></path>
            <circle id="Oval" fill="#FFFEFF" cx="6.32124966" cy="9.97669728" r="1"></circle>
            <circle id="Oval" fill="#FFFEFF" cx="1.53350485" cy="11.385382" r="1"></circle>
            <circle id="Oval" fill="#FFFEFF" cx="9.17428195" cy="11.1803203" r="1"></circle>
            <path d="M10.0658545,13.9085324 C10.0087101,14.3002271 9.90391674,14.6834716 9.75380413,15.0497453 C9.4596906,14.9771475 9.26875683,14.6931118 9.31256737,14.3933555 C9.3563779,14.0935992 9.62061461,13.8760885 9.92320292,13.8907009 L10.0658545,13.9085324 Z" id="Shape" fill="#FFFEFF"></path>
            <circle id="Oval" fill="#FFFEFF" cx="10.083686" cy="8.79090573" r="1"></circle>
            <path d="M12.0273142,12.5265949 C11.6413896,12.5927346 11.2508724,12.6285072 10.8593541,12.6335836 C10.8550247,12.6130055 10.8550247,12.5917516 10.8593541,12.5711735 C10.8470441,12.2461882 11.1005175,11.9727564 11.4255027,11.9604463 C11.750488,11.9481363 12.0239199,12.2016096 12.03623,12.5265949 L12.0273142,12.5265949 Z" id="Shape" fill="#FFFEFF"></path>
            <circle id="Oval" fill="#FFFEFF" cx="12.9545497" cy="9.63789969" r="1"></circle>
            <circle id="Oval" fill="#FFFEFF" cx="14.3721501" cy="7.10583354" r="1"></circle>
            <circle id="Oval" fill="#FFFEFF" cx="15.9324022" cy="4.64509319" r="1"></circle>
            <circle id="Oval" fill="#FFFEFF" cx="17.465907" cy="1.94362825" r="1"></circle>
            <circle id="Oval" fill="#FFFEFF" cx="17.2697611" cy="8.45210815" r="1"></circle>
            <circle id="Oval" fill="#FFFEFF" cx="19.2133893" cy="5.92004199" r="1"></circle>
            <circle id="Oval" fill="#FFFEFF" cx="20.0336361" cy="9.38825937" r="1"></circle>
            <path d="M12.0273142,6.51739563 C12.0273142,6.84238091 11.7638616,7.10583354 11.4388763,7.10583354 C11.113891,7.10583354 10.8504384,6.84238091 10.8504384,6.51739563 C11.2304348,6.42976622 11.6195418,6.38786239 12.0094828,6.39257547 C12.0187656,6.43363643 12.0247287,6.47537791 12.0273142,6.51739563 Z" id="Shape" fill="#FFFEFF"></path>
            <path d="M13.9174481,3.45930165 C13.9174845,3.78576028 13.6554325,4.05178277 13.3290102,4.05665528 L13.1863586,4.05665528 C13.2844316,3.67327907 13.3914203,3.2720714 13.5073247,2.91544237 C13.7441261,2.9933873 13.907621,3.21019578 13.9174481,3.45930165 Z" id="Shape" fill="#FFFEFF"></path>
            <path d="M15.1032397,1.09663429 C15.1032397,1.42161957 14.839787,1.68507219 14.5148018,1.68507219 C14.3742039,1.68412173 14.2384471,1.63360758 14.1314255,1.54242058 C14.3619751,1.2244085 14.6349501,0.939434603 14.9427566,0.69542662 C15.0444424,0.804450535 15.1016853,0.947557792 15.1032397,1.09663429 Z" id="Shape" fill="#FFFEFF"></path>
        </g>
    </g>
</svg>