<?xml version="1.0" encoding="utf-8"?>
<!-- Generator: Adobe Illustrator 23.0.1, SVG Export Plug-In . SVG Version: 6.00 Build 0)  -->
<svg version="1.1" id="Layer_1" xmlns="http://www.w3.org/2000/svg" xmlns:xlink="http://www.w3.org/1999/xlink" x="0px" y="0px"
	 viewBox="0 0 48 48" style="enable-background:new 0 0 48 48;" xml:space="preserve">
<style type="text/css">
	.st0{fill:#9EB4EE;}
	.st1{fill:#323232;}
	.st2{clip-path:url(#SVGID_2_);}
	.st3{fill:#DDDDDD;}
	.st4{fill:#939393;}
	.st5{fill:#D42E2D;}
</style>
<title>31_HeadGear_AstronautHelmet (AST)</title>
<g>
	<path class="st0" d="M26.5,35.7c-0.4,0-0.9,0-1.3-0.1c-0.8-0.1-1.7-0.1-2.5,0c-0.9,0.1-1.8,0.2-2.6-0.1c-6.3-2.2-9.6-9-7.4-15.3
		s9-9.6,15.3-7.4s9.6,9,7.4,15.3c-1.2,3.6-4.1,6.4-7.8,7.5C27.3,35.7,26.9,35.7,26.5,35.7z M24,34.7c0.5,0,0.9,0,1.3,0.1
		c0.7,0.1,1.4,0.2,2,0c5.9-1.8,9.2-8.1,7.4-14.1c-1.8-5.9-8.1-9.2-14.1-7.4s-9.2,8.1-7.4,14.1c1.1,3.4,3.7,6.1,7.1,7.3
		c0.7,0.3,1.5,0.2,2.3,0.1C23.1,34.8,23.6,34.7,24,34.7z"/>
	<path class="st1" d="M19.1,33.3c0.5,0.2,0.8,0.6,0.9,1.1l1.1,0.1c0,0,0.2-1,0.1-1c-0.1,0-2-0.5-2-0.5L19.1,33.3z"/>
	<path class="st1" d="M29,33.3c-0.5,0.2-0.8,0.6-0.9,1.1L27,34.5c0,0-0.2-1-0.1-1c0.1,0,2-0.5,2-0.5L29,33.3z"/>
	<path class="st1" d="M31.7,17.9c-1.3-0.6-2.9,0.3-3.6,0.9c-1.2-0.8-2.6-1.3-4-1.3h0c-1.4,0-2.8,0.5-4,1.3c-0.7-0.6-2.3-1.6-3.6-0.9
		c-1.4,0.7-1.6,4.7-0.5,5.9c0,0-2.7,10.5,8.1,10.5l0,0c10.8,0,8.1-10.5,8.1-10.5C33.2,22.7,33.1,18.6,31.7,17.9z M24,33.6
		c-3.4,0-6.2-2.2-6.2-5c0-1.7,1.1-3.3,2.8-3.6c1-0.2,2.2,0.5,3.4,0.5c1.3,0,2.5-0.7,3.5-0.5c1.7,0.3,2.8,1.9,2.8,3.6
		C30.3,31.4,27.5,33.6,24,33.6z"/>
	<g>
		<defs>
			<path id="SVGID_1_" d="M31.7,17.9c-1.3-0.6-2.9,0.3-3.6,0.9c-1.2-0.8-2.6-1.3-4-1.3h0c-1.4,0-2.8,0.5-4,1.3
				c-0.7-0.6-2.3-1.6-3.6-0.9c-1.4,0.7-1.6,4.7-0.5,5.9c0,0-2,7.9,4.5,10c0.4,0.1,0.8,1.2,1.2,1.3c0.7,0.1,1.5-0.8,2.4-0.8l0,0
				c1,0,1.8,0.9,2.6,0.8c0.4-0.1,0.8-1.2,1.2-1.3c6.4-2.2,4.4-10,4.4-10C33.2,22.7,33.1,18.6,31.7,17.9z"/>
		</defs>
		<clipPath id="SVGID_2_">
			<use xlink:href="#SVGID_1_"  style="overflow:visible;"/>
		</clipPath>
		<g class="st2">
			<path class="st3" d="M24.1,25.5c1.2,0,2.3-0.3,3.2-0.5v-7.2c-1-0.5-2.1-0.8-3.2-0.8v0.1v0v0l0,0c-1.2,0-2.3,0.2-3.4,0.8V25
				C21.7,25.2,22.9,25.5,24.1,25.5z"/>
			<path class="st3" d="M20.7,34c0.9,0.3,2,0.1,3.3,0.1l0,0c1.3,0,2.4,0.2,3.3-0.1v-1.4c-2.1,1-4.6,1-6.7,0V34"/>
			<path class="st3" d="M29.6,20.1l-1.5-2l1.7-1.3l1.5,2c0.3,0.5,0.3,1.1-0.2,1.5l0,0C30.6,20.6,30,20.6,29.6,20.1
				C29.6,20.1,29.6,20.1,29.6,20.1z"/>
		</g>
	</g>
	<path class="st1" d="M20.7,33.1c-1.9-0.9-3.1-2.6-3.1-4.5c0-1.9,1.2-3.5,3-3.8c0.6-0.1,1.2,0.1,1.8,0.2c0.5,0.2,1.1,0.3,1.6,0.3
		c0.6,0,1.1-0.1,1.6-0.3c0.7-0.2,1.3-0.3,1.9-0.2c1.8,0.3,3,1.9,3,3.8s-1.3,3.6-3.1,4.5v-0.6c1.6-0.8,2.7-2.3,2.7-3.9
		c0-1.6-1.1-3.1-2.6-3.4c-0.5-0.1-1,0.1-1.6,0.2c-0.6,0.2-1.2,0.3-1.8,0.3c-0.6,0-1.2-0.1-1.8-0.3c-0.4-0.1-0.9-0.2-1.3-0.3
		c-0.1,0-0.2,0-0.3,0C19.1,25.6,18,27,18,28.7c0,1.6,1.1,3.1,2.7,3.9L20.7,33.1z"/>
	<path class="st4" d="M22.2,32c-1.6,0.1-2.3-0.2-2.3-0.2v-1.1c0,0,0.7,0.3,2.3,0.2V32z"/>
	<path d="M22.9,30.1h0.6c0.6,0,1.1,0.5,1.1,1.1l0,0c0,0.6-0.5,1.1-1.1,1.1h-0.6c-0.6,0-1.1-0.5-1.1-1.1l0,0
		C21.8,30.7,22.3,30.1,22.9,30.1z"/>
	<path class="st4" d="M23.1,30.6h0.3c0.4,0,0.7,0.3,0.7,0.7v0c0,0.4-0.3,0.7-0.7,0.7h-0.3c-0.4,0-0.7-0.3-0.7-0.7v0
		C22.4,30.9,22.7,30.6,23.1,30.6z"/>
	<path class="st0" d="M18.4,29.3c0.4,0.4,0.9,0.8,1.5,1.1c0.1,0,0.2,0.2,0.2,0.3v1c0,0.2-0.2,0.3-0.4,0.3c0,0,0,0-0.1,0l-1.2-0.3
		c-0.9-0.2-1.3-1-1.1-2l0.1-0.2c0.1-0.3,0.4-0.4,0.7-0.3C18.3,29.2,18.3,29.2,18.4,29.3z"/>
	<path class="st5" d="M32.1,33c0.2,0,0.3-0.1,0.4-0.2l2.4-3.1c0.2-0.3,0.1-0.6-0.1-0.8c-0.3-0.2-0.6-0.1-0.8,0.1l-2.4,3.1
		c-0.2,0.3-0.1,0.6,0.1,0.8C31.8,33,32,33,32.1,33z"/>
	<path class="st5" d="M15.9,33c-0.2,0-0.3-0.1-0.4-0.2l-2.4-3.1c-0.2-0.3-0.1-0.6,0.1-0.8c0.3-0.2,0.6-0.1,0.8,0.1l2.4,3.1
		c0.2,0.3,0.1,0.6-0.1,0.8C16.2,33,16.1,33,15.9,33L15.9,33z"/>
	<path class="st5" d="M20.2,34h7.6c0.5,0,0.9,0.4,0.9,0.9v0.3c0,0.5-0.4,0.9-0.9,0.9h-7.6c-0.5,0-0.9-0.4-0.9-0.9v-0.3
		C19.3,34.4,19.7,34,20.2,34z"/>
</g>
</svg>
