<?xml version="1.0" encoding="utf-8"?>
<!-- Generator: Adobe Illustrator 23.0.1, SVG Export Plug-In . SVG Version: 6.00 Build 0)  -->
<svg version="1.1" id="Layer_1" xmlns="http://www.w3.org/2000/svg" xmlns:xlink="http://www.w3.org/1999/xlink" x="0px" y="0px"
	 viewBox="0 0 48 48" style="enable-background:new 0 0 48 48;" xml:space="preserve">
<style type="text/css">
	.st0{fill:#9EB4EE;}
	.st1{fill:#622160;}
	.st2{fill:#FDB854;}
	.st3{clip-path:url(#SVGID_2_);}
	.st4{fill:#2A1958;}
	.st5{fill:#9BADF2;}
</style>
<title>33_Headgear_Chullo</title>
<g>
	<polygon class="st0" points="30.7,34.4 31.4,34.4 31.4,31.5 30.6,31.4 	"/>
	<circle class="st1" cx="31.5" cy="34.5" r="0.5"/>
	<circle class="st2" cx="30.8" cy="34.8" r="0.6"/>
	<circle class="st1" cx="30.4" cy="34.4" r="0.5"/>
	<polygon class="st0" points="17.9,34.4 17.2,34.4 17.2,31.5 18,31.4 	"/>
	<circle class="st1" cx="17.1" cy="34.5" r="0.5"/>
	<circle class="st2" cx="17.8" cy="34.8" r="0.6"/>
	<circle class="st1" cx="18.2" cy="34.4" r="0.5"/>
	<path class="st0" d="M31.6,18.4c-1.1-2.4-3.2-5.8-7.1-6c0,0-0.1,0-0.2,0c-0.1,0-0.2,0-0.2,0c-3.9,0.2-6.1,3.6-7.1,6
		c-1.1,2.5-0.6,6.1-0.4,7.3c0.3,1.2,0.5,5.1,0.5,5.1s-0.3,1.3,0.4,1.3s0.4-0.9,0.4-0.9c0.5-1.6,0-3.9-0.2-5.5c-0.2-1,1-2.9,2-3.6
		c0.1-0.1,0.2-0.1,0.4-0.2l3.9-1.1c0.2-0.1,0.5-0.1,0.7,0l3.9,1.2c0.1,0,0.3,0.1,0.4,0.2c1,0.6,2.3,2.5,2.1,3.5
		c-0.3,1.6-1.1,3.9-0.6,5.5c0,0-0.1,0.9,0.6,0.9s0.4-1.3,0.4-1.3s0.2-3.9,0.5-5.1C32.2,24.5,32.7,20.9,31.6,18.4z"/>
	<g>
		<defs>
			<path id="SVGID_1_" d="M31.6,18.4c-1.1-2.4-3.2-5.8-7.1-6c0,0-0.1,0-0.2,0c-0.1,0-0.2,0-0.2,0c-3.9,0.2-6.1,3.6-7.1,6
				c-1.1,2.5-0.6,6.1-0.4,7.3c0.3,1.2,0.5,5.1,0.5,5.1s-0.3,1.3,0.4,1.3s0.4-0.9,0.4-0.9c0.5-1.6-0.1-3.9-0.3-5.5
				c-0.2-1.1,1.2-3,2.2-3.5l4.4-1.4l4.4,1.4c1,0.5,2.5,2.5,2.3,3.6c-0.2,1.6-0.9,3.9-0.4,5.5c0,0-0.3,0.9,0.4,0.9s0.4-1.3,0.4-1.3
				s0.2-3.9,0.5-5.1C32.2,24.5,32.7,20.9,31.6,18.4z"/>
		</defs>
		<clipPath id="SVGID_2_">
			<use xlink:href="#SVGID_1_"  style="overflow:visible;"/>
		</clipPath>
		<g class="st3">
			<path class="st4" d="M17.8,16.6l-0.2-1.4c0.1,0,7-4.5,13.5,0l-0.7,1.1C24.4,12.7,17.9,16.5,17.8,16.6z"/>
			<circle class="st5" cx="21" cy="14.4" r="0.4"/>
			<circle class="st5" cx="23.2" cy="14" r="0.4"/>
			<circle class="st5" cx="25.4" cy="14" r="0.4"/>
			<circle class="st5" cx="27.6" cy="14.4" r="0.4"/>
			<path class="st1" d="M16.2,20.2l-0.6-1.8c0.4-0.2,9.1-5.6,17.5,0L32.1,20C24.7,15.2,16.3,20.1,16.2,20.2z"/>
			<circle class="st2" cx="18.2" cy="18.1" r="0.4"/>
			<circle class="st2" cx="20.1" cy="17.5" r="0.5"/>
			<circle class="st2" cx="22.2" cy="17.1" r="0.5"/>
			<circle class="st2" cx="30.5" cy="18.1" r="0.4"/>
			<circle class="st2" cx="28.6" cy="17.5" r="0.5"/>
			<circle class="st2" cx="26.6" cy="17.1" r="0.5"/>
			<circle class="st2" cx="24.3" cy="16.9" r="0.7"/>
		</g>
	</g>
	<path class="st4" d="M31.1,30.5C31,30.5,31,30.5,31.1,30.5c-0.3-1.7,0.1-3.7,0.3-4.8c0.2-1.2-0.2-2.5-1.2-3.2
		c-1.7-1.3-3.7-2.1-5.9-2.2c-2.1,0-4.2,0.8-5.9,2.2c-1,0.8-1.4,2-1.2,3.3c0.2,1.1,0.5,3,0.3,4.8c0,0,0,0,0,0c-0.5,0-0.8,0.3-0.9,0.8
		s0.3,0.8,0.8,0.9c0,0,0.1,0,0.1,0c0.4,0,0.7-0.3,0.8-0.6l0,0c0.1-0.3,0.1-0.7,0.2-1c0,0,0.1,0,0.1,0c0.4,0,0.8-0.3,0.8-0.7
		c0-0.4-0.3-0.8-0.7-0.8c0,0-0.1,0-0.1,0h0c0-0.3,0-0.5,0-0.8c0.4,0,0.7-0.4,0.7-0.8c0-0.4-0.4-0.7-0.7-0.7c0,0-0.1,0-0.1,0
		c0-0.2-0.1-0.5-0.1-0.7c0.4,0,0.7-0.3,0.7-0.8c0-0.4-0.3-0.7-0.8-0.7l0,0c0,0,0,0,0,0c0-0.2,0.1-0.4,0.2-0.6c0.3,0.3,0.9,0.3,1.2,0
		s0.3-0.9,0-1.2l0,0c0.2-0.1,0.3-0.2,0.5-0.3c0.1,0.4,0.6,0.7,1,0.5c0.4-0.1,0.7-0.6,0.5-1c0-0.1,0-0.1-0.1-0.2
		c0.2-0.1,0.4-0.1,0.6-0.2c0,0.5,0.4,0.8,0.9,0.8c0.4,0,0.8-0.4,0.8-0.8c0-0.1,0-0.2-0.1-0.3c0.2,0,0.4,0,0.7,0c0.2,0,0.4,0,0.7,0.1
		c0,0.1-0.1,0.2-0.1,0.3c0,0.5,0.4,0.8,0.8,0.8c0.4,0,0.8-0.3,0.8-0.8c0.2,0.1,0.4,0.1,0.6,0.2C27,22,27,22.1,27,22.3
		c0,0.5,0.4,0.8,0.8,0.8c0.3,0,0.6-0.2,0.8-0.5c0.2,0.1,0.3,0.2,0.5,0.3c-0.3,0.3-0.4,0.8,0,1.2c0.3,0.3,0.8,0.4,1.2,0
		c0.1,0.2,0.2,0.4,0.2,0.6c0,0,0,0,0,0c-0.4,0-0.8,0.3-0.8,0.7c0,0.4,0.3,0.8,0.7,0.8c0,0.2-0.1,0.4-0.1,0.7c0,0-0.1,0-0.1,0
		c-0.4,0-0.7,0.4-0.7,0.8c0,0.3,0.3,0.6,0.6,0.7c0,0.2,0,0.5,0,0.8h0c-0.4,0-0.7,0.4-0.7,0.8c0,0.4,0.3,0.7,0.7,0.7c0,0,0.1,0,0.1,0
		c0,0.3,0.1,0.7,0.2,1l0,0c0.1,0.4,0.4,0.6,0.8,0.6c0.5,0,0.8-0.4,0.8-0.9C31.8,30.9,31.5,30.6,31.1,30.5L31.1,30.5z"/>
</g>
</svg>
