<?xml version="1.0" encoding="UTF-8"?>
<svg width="48px" height="48px" viewBox="0 0 48 48" version="1.1" xmlns="http://www.w3.org/2000/svg" xmlns:xlink="http://www.w3.org/1999/xlink">
    <!-- Generator: Sketch 51.3 (57544) - http://www.bohemiancoding.com/sketch -->
    <title>misc-jewelrypearls</title>
    <desc>Created with Sketch.</desc>
    <defs></defs>
    <g id="SVGs" stroke="none" stroke-width="1" fill="none" fill-rule="evenodd">
        <g id="Slices" transform="translate(-885.000000, -473.000000)"></g>
        <g id="Group-124" transform="translate(13.000000, 12.000000)" fill-rule="nonzero">
            <g id="Group-123" transform="translate(8.842105, 0.000000)">
                <path d="M1.68514854,2.63006882 C2.29556853,2.63006882 2.7904117,2.13971403 2.7904117,1.53483073 C2.7904117,0.929947432 2.29556853,0.439592634 1.68514854,0.439592634 C1.07472855,0.439592634 0.579885382,0.929947432 0.579885382,1.53483073 C0.579885382,2.13971403 1.07472855,2.63006882 1.68514854,2.63006882 Z" id="Oval-62" fill="#D8D8D8"></path>
                <path d="M1.68514854,2.63006882 C2.06475351,2.63006882 2.39966162,2.4404346 2.5986605,2.15155121 C2.54777768,2.19390454 2.36521189,2.3377615 2.05046322,2.38128911 C1.73571456,2.42481673 1.39565879,2.33135364 1.11173931,2.04659058 C0.827819824,1.76182753 0.783835963,1.3680831 0.816997327,1.13969203 C0.850158691,0.911300971 0.969986765,0.713831895 1.00271325,0.673238543 C0.745250321,0.873761614 0.579885382,1.18515981 0.579885382,1.53483073 C0.579885382,2.13971403 1.07472855,2.63006882 1.68514854,2.63006882 Z" id="Oval-62" fill="#939393"></path>
                <path d="M1.6575478,1.21403659 C1.83195351,1.21403659 1.97333727,1.07393522 1.97333727,0.901111421 C1.97333727,0.728287622 1.83195351,0.588186251 1.6575478,0.588186251 C1.48314209,0.588186251 1.34175833,0.728287622 1.34175833,0.901111421 C1.34175833,1.07393522 1.48314209,1.21403659 1.6575478,1.21403659 Z" id="Oval-63" fill="#FFFFFF"></path>
            </g>
            <g id="Group-123" transform="translate(6.631579, 0.000000)">
                <path d="M1.9394724,2.87205869 C2.54989239,2.87205869 3.04473556,2.38170389 3.04473556,1.77682059 C3.04473556,1.17193729 2.54989239,0.681582496 1.9394724,0.681582496 C1.32905241,0.681582496 0.834209241,1.17193729 0.834209241,1.77682059 C0.834209241,2.38170389 1.32905241,2.87205869 1.9394724,2.87205869 Z" id="Oval-62" fill="#D8D8D8"></path>
                <path d="M1.9394724,2.87205869 C2.31907737,2.87205869 2.65398548,2.68242446 2.85298435,2.39354107 C2.80210154,2.4358944 2.61953575,2.57975136 2.30478708,2.62327897 C1.99003842,2.66680659 1.64998265,2.5733435 1.36606317,2.28858045 C1.08214368,2.0038174 1.03815982,1.61007296 1.07132119,1.3816819 C1.10448255,1.15329083 1.22431062,0.955821757 1.25703711,0.915228405 C0.99957418,1.11575148 0.834209241,1.42714967 0.834209241,1.77682059 C0.834209241,2.38170389 1.32905241,2.87205869 1.9394724,2.87205869 Z" id="Oval-62" fill="#939393"></path>
                <path d="M2.41315661,1.62035801 C2.58756232,1.62035801 2.72894608,1.48025664 2.72894608,1.30743284 C2.72894608,1.13460904 2.58756232,0.994507666 2.41315661,0.994507666 C2.2387509,0.994507666 2.09736714,1.13460904 2.09736714,1.30743284 C2.09736714,1.48025664 2.2387509,1.62035801 2.41315661,1.62035801 Z" id="Oval-63" fill="#FFFFFF"></path>
            </g>
            <g id="Group-123" transform="translate(11.052632, 0.000000)">
                <path d="M1.12496145,2.81149437 C1.73538144,2.81149437 2.23022461,2.32113958 2.23022461,1.71625628 C2.23022461,1.11137298 1.73538144,0.621018183 1.12496145,0.621018183 C0.514541465,0.621018183 0.0196982936,1.11137298 0.0196982936,1.71625628 C0.0196982936,2.32113958 0.514541465,2.81149437 1.12496145,2.81149437 Z" id="Oval-62" fill="#D8D8D8"></path>
                <path d="M1.12496145,2.81149437 C1.50456642,2.81149437 1.83947453,2.62186015 2.03847341,2.33297675 C1.98759059,2.37533009 1.8050248,2.51918704 1.49027614,2.56271466 C1.17552747,2.60624228 0.835471705,2.51277918 0.55155222,2.22801613 C0.267632735,1.94325308 0.223648874,1.54950865 0.256810238,1.32111758 C0.289971603,1.09272652 0.409799676,0.895257444 0.442526162,0.854664092 C0.185063232,1.05518716 0.0196982936,1.36658536 0.0196982936,1.71625628 C0.0196982936,2.32113958 0.514541465,2.81149437 1.12496145,2.81149437 Z" id="Oval-62" fill="#939393"></path>
                <path d="M1.59864566,1.55979369 C1.77305137,1.55979369 1.91443514,1.41969232 1.91443514,1.24686852 C1.91443514,1.07404472 1.77305137,0.933943353 1.59864566,0.933943353 C1.42423995,0.933943353 1.28285619,1.07404472 1.28285619,1.24686852 C1.28285619,1.41969232 1.42423995,1.55979369 1.59864566,1.55979369 Z" id="Oval-63" fill="#FFFFFF"></path>
            </g>
            <g id="Group-123" transform="translate(5.526316, 1.095238)">
                <path d="M1.18972296,2.51923479 C1.80014295,2.51923479 2.29498612,2.02888 2.29498612,1.4239967 C2.29498612,0.819113401 1.80014295,0.328758603 1.18972296,0.328758603 C0.579302978,0.328758603 0.0844598067,0.819113401 0.0844598067,1.4239967 C0.0844598067,2.02888 0.579302978,2.51923479 1.18972296,2.51923479 Z" id="Oval-62" fill="#D8D8D8"></path>
                <path d="M1.18972296,2.51923479 C1.56932793,2.51923479 1.90423604,2.32960057 2.10323492,2.04071717 C2.0523521,2.08307051 1.86978631,2.22692747 1.55503765,2.27045508 C1.24028899,2.3139827 0.900233219,2.2205196 0.616313734,1.93575655 C0.332394249,1.6509935 0.288410388,1.25724907 0.321571752,1.028858 C0.354733116,0.80046694 0.474561189,0.602997864 0.507287675,0.562404512 C0.249824745,0.762927583 0.0844598067,1.07432578 0.0844598067,1.4239967 C0.0844598067,2.02888 0.579302978,2.51923479 1.18972296,2.51923479 Z" id="Oval-62" fill="#939393"></path>
                <path d="M1.66340718,1.26753411 C1.83781289,1.26753411 1.97919665,1.12743274 1.97919665,0.954608943 C1.97919665,0.781785144 1.83781289,0.641683773 1.66340718,0.641683773 C1.48900146,0.641683773 1.3476177,0.781785144 1.3476177,0.954608943 C1.3476177,1.12743274 1.48900146,1.26753411 1.66340718,1.26753411 Z" id="Oval-63" fill="#FFFFFF"></path>
            </g>
            <g id="Group-123" transform="translate(3.315789, 2.190476)">
                <path d="M1.80994937,2.64958845 C2.42036936,2.64958845 2.91521253,2.15923365 2.91521253,1.55435035 C2.91521253,0.949467056 2.42036936,0.459112258 1.80994937,0.459112258 C1.19952939,0.459112258 0.704686215,0.949467056 0.704686215,1.55435035 C0.704686215,2.15923365 1.19952939,2.64958845 1.80994937,2.64958845 Z" id="Oval-62" fill="#D8D8D8"></path>
                <path d="M1.80994937,2.64958845 C2.18955434,2.64958845 2.52446245,2.45995423 2.72346133,2.17107083 C2.67257851,2.21342416 2.49001272,2.35728112 2.17526406,2.40080874 C1.86051539,2.44433635 1.52045963,2.35087326 1.23654014,2.06611021 C0.952620657,1.78134716 0.908636796,1.38760272 0.94179816,1.15921166 C0.974959524,0.930820595 1.0947876,0.733351519 1.12751408,0.692758167 C0.870051154,0.893281238 0.704686215,1.20467943 0.704686215,1.55435035 C0.704686215,2.15923365 1.19952939,2.64958845 1.80994937,2.64958845 Z" id="Oval-62" fill="#939393"></path>
                <path d="M2.28363358,1.39788777 C2.45803929,1.39788777 2.59942306,1.2577864 2.59942306,1.0849626 C2.59942306,0.912138799 2.45803929,0.772037428 2.28363358,0.772037428 C2.10922787,0.772037428 1.96784411,0.912138799 1.96784411,1.0849626 C1.96784411,1.2577864 2.10922787,1.39788777 2.28363358,1.39788777 Z" id="Oval-63" fill="#FFFFFF"></path>
            </g>
            <g id="Group-123" transform="translate(2.210526, 3.285714)">
                <path d="M1.47828273,3.19075666 C2.16500521,3.19075666 2.72170378,2.63910751 2.72170378,1.9586138 C2.72170378,1.27812009 2.16500521,0.726470947 1.47828273,0.726470947 C0.791560243,0.726470947 0.234861675,1.27812009 0.234861675,1.9586138 C0.234861675,2.63910751 0.791560243,3.19075666 1.47828273,3.19075666 Z" id="Oval-62" fill="#D8D8D8"></path>
                <path d="M1.47828273,3.19075666 C1.90533832,3.19075666 2.28210994,2.97741816 2.50598368,2.65242434 C2.44874051,2.70007184 2.24335399,2.86191092 1.88926175,2.91087949 C1.5351695,2.95984805 1.15260676,2.85470207 0.833197343,2.53434364 C0.513787922,2.21398521 0.464306078,1.77102272 0.501612613,1.51408277 C0.538919148,1.25714283 0.67372573,1.03499012 0.710543027,0.989322595 C0.420897231,1.21491105 0.234861675,1.56523402 0.234861675,1.9586138 C0.234861675,2.63910751 0.791560243,3.19075666 1.47828273,3.19075666 Z" id="Oval-62" fill="#939393"></path>
                <path d="M2.01117746,1.7825934 C2.20738389,1.7825934 2.36644062,1.62497935 2.36644062,1.43055258 C2.36644062,1.23612581 2.20738389,1.07851176 2.01117746,1.07851176 C1.81497104,1.07851176 1.65591431,1.23612581 1.65591431,1.43055258 C1.65591431,1.62497935 1.81497104,1.7825934 2.01117746,1.7825934 Z" id="Oval-63" fill="#FFFFFF"></path>
            </g>
            <g id="Group-123" transform="translate(12.157895, 1.095238)">
                <path d="M1.91046464,2.51154727 C2.52088462,2.51154727 3.0157278,2.02119247 3.0157278,1.41630918 C3.0157278,0.811425878 2.52088462,0.32107108 1.91046464,0.32107108 C1.30004465,0.32107108 0.80520148,0.811425878 0.80520148,1.41630918 C0.80520148,2.02119247 1.30004465,2.51154727 1.91046464,2.51154727 Z" id="Oval-62" fill="#D8D8D8"></path>
                <path d="M1.91046464,2.51154727 C2.29006961,2.51154727 2.62497772,2.32191305 2.82397659,2.03302965 C2.77309378,2.07538299 2.59052799,2.21923994 2.27577932,2.26276756 C1.96103066,2.30629517 1.62097489,2.21283208 1.33705541,1.92806903 C1.05313592,1.64330598 1.00915206,1.24956154 1.04231343,1.02117048 C1.07547479,0.792779416 1.19530286,0.595310341 1.22802935,0.554716989 C0.970566419,0.75524006 0.80520148,1.06663825 0.80520148,1.41630918 C0.80520148,2.02119247 1.30004465,2.51154727 1.91046464,2.51154727 Z" id="Oval-62" fill="#939393"></path>
                <path d="M2.38414885,1.25984659 C2.55855456,1.25984659 2.69993832,1.11974522 2.69993832,0.94692142 C2.69993832,0.774097621 2.55855456,0.63399625 2.38414885,0.63399625 C2.20974314,0.63399625 2.06835937,0.774097621 2.06835937,0.94692142 C2.06835937,1.11974522 2.20974314,1.25984659 2.38414885,1.25984659 Z" id="Oval-63" fill="#FFFFFF"></path>
            </g>
            <g id="Group-123" transform="translate(14.368421, 2.190476)">
                <path d="M1.47251491,2.57391648 C2.08293489,2.57391648 2.57777806,2.08356168 2.57777806,1.47867839 C2.57777806,0.873795088 2.08293489,0.38344029 1.47251491,0.38344029 C0.862094919,0.38344029 0.367251748,0.873795088 0.367251748,1.47867839 C0.367251748,2.08356168 0.862094919,2.57391648 1.47251491,2.57391648 Z" id="Oval-62" fill="#D8D8D8"></path>
                <path d="M1.47251491,2.57391648 C1.85211987,2.57391648 2.18702798,2.38428226 2.38602686,2.09539886 C2.33514404,2.1377522 2.15257825,2.28160915 1.83782959,2.32513677 C1.52308093,2.36866438 1.18302516,2.27520129 0.899105674,1.99043824 C0.615186189,1.70567519 0.571202328,1.31193075 0.604363692,1.08353969 C0.637525057,0.855148627 0.75735313,0.657679551 0.790079616,0.617086199 C0.532616686,0.81760927 0.367251748,1.12900746 0.367251748,1.47867839 C0.367251748,2.08356168 0.862094919,2.57391648 1.47251491,2.57391648 Z" id="Oval-62" fill="#939393"></path>
                <path d="M1.94619912,1.3222158 C2.12060483,1.3222158 2.26198859,1.18211443 2.26198859,1.00929063 C2.26198859,0.836466831 2.12060483,0.69636546 1.94619912,0.69636546 C1.77179341,0.69636546 1.63040964,0.836466831 1.63040964,1.00929063 C1.63040964,1.18211443 1.77179341,1.3222158 1.94619912,1.3222158 Z" id="Oval-63" fill="#FFFFFF"></path>
            </g>
            <g id="Group-123" transform="translate(15.473684, 3.285714)">
                <path d="M1.91032972,3.19075666 C2.5970522,3.19075666 3.15375077,2.63910751 3.15375077,1.9586138 C3.15375077,1.27812009 2.5970522,0.726470947 1.91032972,0.726470947 C1.22360723,0.726470947 0.666908666,1.27812009 0.666908666,1.9586138 C0.666908666,2.63910751 1.22360723,3.19075666 1.91032972,3.19075666 Z" id="Oval-62" fill="#D8D8D8"></path>
                <path d="M1.91032972,3.19075666 C2.33738531,3.19075666 2.71415693,2.97741816 2.93803067,2.65242434 C2.8807875,2.70007184 2.67540098,2.86191092 2.32130874,2.91087949 C1.96721649,2.95984805 1.58465375,2.85470207 1.26524433,2.53434364 C0.945834913,2.21398521 0.896353069,1.77102272 0.933659604,1.51408277 C0.970966138,1.25714283 1.10577272,1.03499012 1.14259002,0.989322595 C0.852944221,1.21491105 0.666908666,1.56523402 0.666908666,1.9586138 C0.666908666,2.63910751 1.22360723,3.19075666 1.91032972,3.19075666 Z" id="Oval-62" fill="#939393"></path>
                <path d="M2.44322446,1.7825934 C2.63943088,1.7825934 2.79848761,1.62497935 2.79848761,1.43055258 C2.79848761,1.23612581 2.63943088,1.07851176 2.44322446,1.07851176 C2.24701803,1.07851176 2.0879613,1.23612581 2.0879613,1.43055258 C2.0879613,1.62497935 2.24701803,1.7825934 2.44322446,1.7825934 Z" id="Oval-63" fill="#FFFFFF"></path>
            </g>
            <g id="Group-123" transform="translate(0.000000, 5.476190)">
                <path d="M2.33060495,3.46094872 C3.24623493,3.46094872 3.98849969,2.72541652 3.98849969,1.81809157 C3.98849969,0.910766629 3.24623493,0.175234432 2.33060495,0.175234432 C1.41497497,0.175234432 0.672710218,0.910766629 0.672710218,1.81809157 C0.672710218,2.72541652 1.41497497,3.46094872 2.33060495,3.46094872 Z" id="Oval-62" fill="#D8D8D8"></path>
                <path d="M2.33060495,3.46094872 C2.90001241,3.46094872 3.40237457,3.17649738 3.70087289,2.74317229 C3.62454866,2.80670229 3.35069998,3.02248773 2.87857698,3.08777915 C2.40645399,3.15307057 1.89637034,3.01287593 1.47049111,2.58573136 C1.04461188,2.15858678 0.978636089,1.56797013 1.02837814,1.22538353 C1.07812018,0.882796937 1.25786229,0.586593324 1.30695202,0.525703295 C0.920757626,0.826487901 0.672710218,1.29358519 0.672710218,1.81809157 C0.672710218,2.72541652 1.41497497,3.46094872 2.33060495,3.46094872 Z" id="Oval-62" fill="#939393"></path>
                <path d="M3.04113127,1.5833977 C3.30273984,1.5833977 3.51481548,1.37324564 3.51481548,1.11400994 C3.51481548,0.854774243 3.30273984,0.644622187 3.04113127,0.644622187 C2.7795227,0.644622187 2.56744706,0.854774243 2.56744706,1.11400994 C2.56744706,1.37324564 2.7795227,1.5833977 3.04113127,1.5833977 Z" id="Oval-63" fill="#FFFFFF"></path>
            </g>
            <g id="Group-123" transform="translate(16.578947, 5.476190)">
                <path d="M2.15035208,3.46094872 C3.06598206,3.46094872 3.80824681,2.72541652 3.80824681,1.81809157 C3.80824681,0.910766629 3.06598206,0.175234432 2.15035208,0.175234432 C1.2347221,0.175234432 0.49245734,0.910766629 0.49245734,1.81809157 C0.49245734,2.72541652 1.2347221,3.46094872 2.15035208,3.46094872 Z" id="Oval-62" fill="#D8D8D8"></path>
                <path d="M2.15035208,3.46094872 C2.71975953,3.46094872 3.22212169,3.17649738 3.52062001,2.74317229 C3.44429578,2.80670229 3.1704471,3.02248773 2.6983241,3.08777915 C2.22620111,3.15307057 1.71611746,3.01287593 1.29023823,2.58573136 C0.864359002,2.15858678 0.798383211,1.56797013 0.848125257,1.22538353 C0.897867303,0.882796937 1.07760941,0.586593324 1.12669914,0.525703295 C0.740504747,0.826487901 0.49245734,1.29358519 0.49245734,1.81809157 C0.49245734,2.72541652 1.2347221,3.46094872 2.15035208,3.46094872 Z" id="Oval-62" fill="#939393"></path>
                <path d="M2.86087839,1.5833977 C3.12248696,1.5833977 3.3345626,1.37324564 3.3345626,1.11400994 C3.3345626,0.854774243 3.12248696,0.644622187 2.86087839,0.644622187 C2.59926983,0.644622187 2.38719418,0.854774243 2.38719418,1.11400994 C2.38719418,1.37324564 2.59926983,1.5833977 2.86087839,1.5833977 Z" id="Oval-63" fill="#FFFFFF"></path>
            </g>
            <g id="Group-123" transform="translate(0.000000, 7.666667)">
                <path d="M1.65789474,3.78466797 C2.57352472,3.78466797 3.31578947,3.04913577 3.31578947,2.14181083 C3.31578947,1.23448588 2.57352472,0.498953683 1.65789474,0.498953683 C0.742264757,0.498953683 0,1.23448588 0,2.14181083 C0,3.04913577 0.742264757,3.78466797 1.65789474,3.78466797 Z" id="Oval-62" fill="#D8D8D8"></path>
                <path d="M1.65789474,3.78466797 C2.22730219,3.78466797 2.72966435,3.50021663 3.02816267,3.06689154 C2.95183844,3.13042154 2.67798976,3.34620698 2.20586676,3.4114984 C1.73374377,3.47678982 1.22366012,3.33659518 0.79778089,2.90945061 C0.371901663,2.48230603 0.305925871,1.89168938 0.355667917,1.54910278 C0.405409964,1.20651619 0.585152074,0.910312575 0.634241802,0.849422547 C0.248047408,1.15020715 0,1.61730444 0,2.14181083 C0,3.04913577 0.742264757,3.78466797 1.65789474,3.78466797 Z" id="Oval-62" fill="#939393"></path>
                <path d="M2.36842105,1.90711695 C2.63002962,1.90711695 2.84210526,1.69696489 2.84210526,1.43772919 C2.84210526,1.17849349 2.63002962,0.968341438 2.36842105,0.968341438 C2.10681249,0.968341438 1.89473684,1.17849349 1.89473684,1.43772919 C1.89473684,1.69696489 2.10681249,1.90711695 2.36842105,1.90711695 Z" id="Oval-63" fill="#FFFFFF"></path>
            </g>
            <g id="Group-123" transform="translate(17.684211, 7.666667)">
                <path d="M1.65789474,3.78466797 C2.57352472,3.78466797 3.31578947,3.04913577 3.31578947,2.14181083 C3.31578947,1.23448588 2.57352472,0.498953683 1.65789474,0.498953683 C0.742264757,0.498953683 0,1.23448588 0,2.14181083 C0,3.04913577 0.742264757,3.78466797 1.65789474,3.78466797 Z" id="Oval-62" fill="#D8D8D8"></path>
                <path d="M1.65789474,3.78466797 C2.22730219,3.78466797 2.72966435,3.50021663 3.02816267,3.06689154 C2.95183844,3.13042154 2.67798976,3.34620698 2.20586676,3.4114984 C1.73374377,3.47678982 1.22366012,3.33659518 0.79778089,2.90945061 C0.371901663,2.48230603 0.305925871,1.89168938 0.355667917,1.54910278 C0.405409964,1.20651619 0.585152074,0.910312575 0.634241802,0.849422547 C0.248047408,1.15020715 0,1.61730444 0,2.14181083 C0,3.04913577 0.742264757,3.78466797 1.65789474,3.78466797 Z" id="Oval-62" fill="#939393"></path>
                <path d="M2.36842105,1.90711695 C2.63002962,1.90711695 2.84210526,1.69696489 2.84210526,1.43772919 C2.84210526,1.17849349 2.63002962,0.968341438 2.36842105,0.968341438 C2.10681249,0.968341438 1.89473684,1.17849349 1.89473684,1.43772919 C1.89473684,1.69696489 2.10681249,1.90711695 2.36842105,1.90711695 Z" id="Oval-63" fill="#FFFFFF"></path>
            </g>
            <g id="Group-123" transform="translate(0.000000, 9.857143)">
                <path d="M1.65789474,4.19752139 C2.57352472,4.19752139 3.31578947,3.46198919 3.31578947,2.55466425 C3.31578947,1.6473393 2.57352472,0.911807106 1.65789474,0.911807106 C0.742264757,0.911807106 0,1.6473393 0,2.55466425 C0,3.46198919 0.742264757,4.19752139 1.65789474,4.19752139 Z" id="Oval-62" fill="#D8D8D8"></path>
                <path d="M1.65789474,4.19752139 C2.22730219,4.19752139 2.72966435,3.91307006 3.02816267,3.47974496 C2.95183844,3.54327496 2.67798976,3.7590604 2.20586676,3.82435182 C1.73374377,3.88964325 1.22366012,3.74944861 0.79778089,3.32230403 C0.371901663,2.89515946 0.305925871,2.3045428 0.355667917,1.96195621 C0.405409964,1.61936961 0.585152074,1.323166 0.634241802,1.26227597 C0.248047408,1.56306058 0,2.03015787 0,2.55466425 C0,3.46198919 0.742264757,4.19752139 1.65789474,4.19752139 Z" id="Oval-62" fill="#939393"></path>
                <path d="M2.36842105,2.31997037 C2.63002962,2.31997037 2.84210526,2.10981831 2.84210526,1.85058262 C2.84210526,1.59134692 2.63002962,1.38119486 2.36842105,1.38119486 C2.10681249,1.38119486 1.89473684,1.59134692 1.89473684,1.85058262 C1.89473684,2.10981831 2.10681249,2.31997037 2.36842105,2.31997037 Z" id="Oval-63" fill="#FFFFFF"></path>
            </g>
            <g id="Group-123" transform="translate(17.684211, 9.857143)">
                <path d="M1.65789474,4.19752139 C2.57352472,4.19752139 3.31578947,3.46198919 3.31578947,2.55466425 C3.31578947,1.6473393 2.57352472,0.911807106 1.65789474,0.911807106 C0.742264757,0.911807106 0,1.6473393 0,2.55466425 C0,3.46198919 0.742264757,4.19752139 1.65789474,4.19752139 Z" id="Oval-62" fill="#D8D8D8"></path>
                <path d="M1.65789474,4.19752139 C2.22730219,4.19752139 2.72966435,3.91307006 3.02816267,3.47974496 C2.95183844,3.54327496 2.67798976,3.7590604 2.20586676,3.82435182 C1.73374377,3.88964325 1.22366012,3.74944861 0.79778089,3.32230403 C0.371901663,2.89515946 0.305925871,2.3045428 0.355667917,1.96195621 C0.405409964,1.61936961 0.585152074,1.323166 0.634241802,1.26227597 C0.248047408,1.56306058 0,2.03015787 0,2.55466425 C0,3.46198919 0.742264757,4.19752139 1.65789474,4.19752139 Z" id="Oval-62" fill="#939393"></path>
                <path d="M2.36842105,2.31997037 C2.63002962,2.31997037 2.84210526,2.10981831 2.84210526,1.85058262 C2.84210526,1.59134692 2.63002962,1.38119486 2.36842105,1.38119486 C2.10681249,1.38119486 1.89473684,1.59134692 1.89473684,1.85058262 C1.89473684,2.10981831 2.10681249,2.31997037 2.36842105,2.31997037 Z" id="Oval-63" fill="#FFFFFF"></path>
            </g>
            <g id="Group-123" transform="translate(0.000000, 13.142857)">
                <ellipse id="Oval-62" fill="#D8D8D8" cx="2.21052632" cy="2.19047619" rx="2.21052632" ry="2.19047619"></ellipse>
                <path d="M2.21052632,4.38095238 C2.96973625,4.38095238 3.63955247,4.00168394 4.03755023,3.42391714 C3.93578459,3.50862381 3.57065301,3.79633772 2.94115568,3.88339296 C2.31165836,3.97044819 1.63154682,3.783522 1.06370785,3.2139959 C0.495868884,2.6444698 0.407901162,1.85698093 0.47422389,1.4001988 C0.540546618,0.943416673 0.780202765,0.548478522 0.845655736,0.467291818 C0.330729877,0.868337959 0,1.49113435 0,2.19047619 C0,3.40024279 0.989686343,4.38095238 2.21052632,4.38095238 Z" id="Oval-62" fill="#939393"></path>
                <ellipse id="Oval-63" fill="#FFFFFF" cx="3.15789474" cy="1.25170068" rx="1" ry="1"></ellipse>
            </g>
            <g id="Group-123" transform="translate(2.210526, 15.333333)">
                <ellipse id="Oval-62" fill="#D8D8D8" cx="2.76315789" cy="2.73809524" rx="2.76315789" ry="2.73809524"></ellipse>
                <path d="M2.76315789,5.47619048 C3.71217032,5.47619048 4.54944059,5.00210492 5.04693778,4.27989643 C4.91973074,4.38577976 4.46331626,4.74542216 3.67644461,4.8542412 C2.88957295,4.96306024 2.03943353,4.7294025 1.32963482,4.01749488 C0.619836105,3.30558725 0.509876452,2.32122616 0.592779862,1.7502485 C0.675683273,1.17927084 0.975253457,0.685598153 1.05706967,0.584114773 C0.413412346,1.08542245 0,1.86391793 0,2.73809524 C0,4.25030348 1.23710793,5.47619048 2.76315789,5.47619048 Z" id="Oval-62" fill="#939393"></path>
                <ellipse id="Oval-63" fill="#FFFFFF" cx="3.94736842" cy="1.56462585" rx="1" ry="1"></ellipse>
            </g>
            <g id="Group-123" transform="translate(16.578947, 13.142857)">
                <ellipse id="Oval-62" fill="#D8D8D8" cx="2.21052632" cy="2.19047619" rx="2.21052632" ry="2.19047619"></ellipse>
                <path d="M2.21052632,4.38095238 C2.96973625,4.38095238 3.63955247,4.00168394 4.03755023,3.42391714 C3.93578459,3.50862381 3.57065301,3.79633772 2.94115568,3.88339296 C2.31165836,3.97044819 1.63154682,3.783522 1.06370785,3.2139959 C0.495868884,2.6444698 0.407901162,1.85698093 0.47422389,1.4001988 C0.540546618,0.943416673 0.780202765,0.548478522 0.845655736,0.467291818 C0.330729877,0.868337959 0,1.49113435 0,2.19047619 C0,3.40024279 0.989686343,4.38095238 2.21052632,4.38095238 Z" id="Oval-62" fill="#939393"></path>
                <ellipse id="Oval-63" fill="#FFFFFF" cx="3.15789474" cy="1.25170068" rx="1" ry="1"></ellipse>
            </g>
            <g id="Group-123" transform="translate(13.263158, 15.333333)">
                <ellipse id="Oval-62" fill="#D8D8D8" cx="2.76315789" cy="2.73809524" rx="2.76315789" ry="2.73809524"></ellipse>
                <path d="M2.76315789,5.47619048 C3.71217032,5.47619048 4.54944059,5.00210492 5.04693778,4.27989643 C4.91973074,4.38577976 4.46331626,4.74542216 3.67644461,4.8542412 C2.88957295,4.96306024 2.03943353,4.7294025 1.32963482,4.01749488 C0.619836105,3.30558725 0.509876452,2.32122616 0.592779862,1.7502485 C0.675683273,1.17927084 0.975253457,0.685598153 1.05706967,0.584114773 C0.413412346,1.08542245 0,1.86391793 0,2.73809524 C0,4.25030348 1.23710793,5.47619048 2.76315789,5.47619048 Z" id="Oval-62" fill="#939393"></path>
                <ellipse id="Oval-63" fill="#FFFFFF" cx="3.94736842" cy="1.56462585" rx="1" ry="1"></ellipse>
            </g>
            <g id="Group-123" transform="translate(6.631579, 15.333333)">
                <ellipse id="Oval-62" fill="#D8D8D8" cx="3.86842105" cy="3.83333333" rx="3.86842105" ry="3.83333333"></ellipse>
                <path d="M3.86842105,7.66666667 C5.19703844,7.66666667 6.36921683,7.00294689 7.0657129,5.991855 C6.88762303,6.14009167 6.24864277,6.64359102 5.14702245,6.79593767 C4.04540213,6.94828433 2.85520694,6.6211635 1.86148874,5.62449283 C0.867770546,4.62782215 0.713827033,3.24971662 0.829891807,2.4503479 C0.945956582,1.65097918 1.36535484,0.959837414 1.47989754,0.817760682 C0.578777285,1.51959143 0,2.60948511 0,3.83333333 C0,5.95042487 1.7319511,7.66666667 3.86842105,7.66666667 Z" id="Oval-62" fill="#939393"></path>
                <ellipse id="Oval-63" fill="#FFFFFF" cx="5.52631579" cy="2.19047619" rx="1.10526316" ry="1.0952381"></ellipse>
            </g>
        </g>
    </g>
</svg>