<?xml version="1.0" encoding="UTF-8"?>
<svg width="48px" height="48px" viewBox="0 0 48 48" version="1.1" xmlns="http://www.w3.org/2000/svg" xmlns:xlink="http://www.w3.org/1999/xlink">
    <!-- Generator: Sketch 51.3 (57544) - http://www.bohemiancoding.com/sketch -->
    <title>misc-dressbucklebelt</title>
    <desc>Created with Sketch.</desc>
    <defs></defs>
    <g id="SVGs" stroke="none" stroke-width="1" fill="none" fill-rule="evenodd">
        <g id="Slices" transform="translate(-531.000000, -473.000000)"></g>
        <g id="Group-110" transform="translate(9.000000, 20.000000)" fill-rule="nonzero">
            <path d="M1.88820801,1.14285714 L28.2145752,1.14285714 C28.8220884,1.14285714 29.3145752,1.63534392 29.3145752,2.24285714 L29.3145752,5.75714286 C29.3145752,6.36465608 28.8220884,6.85714286 28.2145752,6.85714286 L1.88820801,6.85714286 C1.28069478,6.85714286 0.788208008,6.36465608 0.788208008,5.75714286 L0.788208008,2.24285714 C0.788208008,1.63534392 1.28069478,1.14285714 1.88820801,1.14285714 Z" id="Rectangle-58" fill="#6E3A0C"></path>
            <ellipse id="Oval-55" fill="#5C3009" cx="7.30357143" cy="4" rx="1" ry="1"></ellipse>
            <ellipse id="Oval-55" fill="#5C3009" cx="3.98214286" cy="4" rx="1" ry="1"></ellipse>
            <path d="M22.4247899,6.85791975 C23.3203812,6.24378787 23.9107143,5.19305764 23.9107143,4 C23.9107143,2.80563465 23.3190863,1.7539089 22.4218438,1.14006238 C22.8841711,1.14069475 23.5055368,1.13870675 24.0471313,1.14361277 C24.6545506,1.92612393 25.0178571,2.91926594 25.0178571,4 C25.0178571,5.0815048 24.6540322,6.07529257 24.0458314,6.85806108 C23.6215455,6.86078753 22.8668382,6.86064802 22.4247899,6.85791975 Z" id="Oval-56" fill="#5C3009"></path>
            <rect id="Rectangle-59" stroke="#F5CD2E" stroke-width="1.1" x="10.6214286" y="0.55" width="8.86428571" height="6.9" rx="2.2"></rect>
            <path d="M9.57941764,4.0015346 L14.418978,4.0015346" id="Path-218" stroke="#F5CD2E" stroke-width="1.1" stroke-linecap="round"></path>
        </g>
    </g>
</svg>