<?xml version="1.0" encoding="UTF-8"?>
<svg width="48px" height="48px" viewBox="0 0 48 48" version="1.1" xmlns="http://www.w3.org/2000/svg" xmlns:xlink="http://www.w3.org/1999/xlink">
    <!-- Generator: Sketch 51.3 (57544) - http://www.bohemiancoding.com/sketch -->
    <title>misc-piercingearrings</title>
    <desc>Created with Sketch.</desc>
    <defs></defs>
    <g id="SVGs" stroke="none" stroke-width="1" fill="none" fill-rule="evenodd">
        <g id="Slices" transform="translate(-59.000000, -473.000000)"></g>
        <g id="Group-99" transform="translate(13.000000, 15.000000)" fill-rule="nonzero">
            <g id="Group-3">
                <path d="M11.0527344,18.6905749 C17.0304046,18.6905749 21.8762638,15.9241227 21.8762638,11.2446289 C21.8762638,9.88300997 21.4659801,8.50945195 20.7369121,7.2461868 C21.246288,5.26889121 21.856191,1.33232737 20.5998911,0.482157939 C18.9162679,-0.657191827 15.9446888,1.95731828 15.1080784,2.50838018 C13.8556153,2.02204509 12.4867422,1.74462891 11.0527344,1.74462891 C9.6440649,1.74462891 8.29824874,2.01232803 7.06389068,2.48279618 C6.15448836,1.960954 3.49530494,-0.367873007 1.81367625,0.362680796 C0.0466862526,1.13031831 1.03440126,5.78021075 1.42795671,7.14469536 C0.661811341,8.43570052 0.229204963,9.84645904 0.229204963,11.2446289 C0.229204963,15.9241227 5.07506414,18.6905749 11.0527344,18.6905749 Z" id="Oval-2" fill="#000000"></path>
                <path d="M11.0527344,18.4136332 C16.4611027,18.4136332 20.8454515,15.4248314 20.8454515,11.7379576 C20.8454515,9.41775416 19.109088,7.36383725 16.4738616,6.92134479 C14.921633,6.66070325 13.0575378,7.62984945 11.0527344,7.62984945 C9.06016172,7.62984945 7.20658563,6.65999917 5.66005108,6.91659709 C3.00888251,7.35647367 1.26001729,9.40941648 1.26001729,11.7379576 C1.26001729,15.4248314 5.64436607,18.4136332 11.0527344,18.4136332 Z" id="Oval-2" fill="#9B9B9B"></path>
                <path d="M12.2324568,14.3328395 C12.2324568,13.7059217 11.7207822,13.1977044 11.0895996,13.1977044 C10.458417,13.1977044 9.94674247,13.7059217 9.94674247,14.3328395 C9.94674247,14.9597573 12.2324568,14.9597573 12.2324568,14.3328395 Z" id="Oval-4" fill="#4A4A4A"></path>
            </g>
            <path d="M20.7413025,7.24023438 L20.9997864,6.09207153 C21.0990448,6.15354919 21.2819431,6.20833578 21.3494308,6.22966294 C21.5910583,6.30602089 21.844458,6.34533691 22.1037598,6.34533691 C23.4844716,6.34533691 24.6037598,5.22604879 24.6037598,3.84533691 C24.6037598,2.46462504 23.4844716,1.34533691 22.1037598,1.34533691 C20.9972219,1.34533691 19.9734006,2.06805383 19.6545868,3.10971069 L18.7565456,2.8197978 C19.2031285,1.36068227 20.5546232,0.345336914 22.1037598,0.345336914 C24.0367564,0.345336914 25.6037598,1.91234029 25.6037598,3.84533691 C25.6037598,5.77833354 24.0367564,7.34533691 22.1037598,7.34533691 C21.7419302,7.34533691 21.3869245,7.29025629 21.0481038,7.18318379 C20.9533685,7.15324599 20.8329611,7.27809235 20.7413025,7.24023438 Z" id="Oval-42" fill="#FFE899"></path>
            <path d="M20.8577881,6.77326965 C20.918869,6.49000549 20.9360531,6.3981534 20.9613495,6.27398682 C21.0008698,6.28999329 21.0283513,6.30459864 21.0627792,6.31853168 C21.3576569,6.43786952 21.674093,6.5 22,6.5 C23.3807119,6.5 24.5,5.38071187 24.5,4 C24.5,2.61928813 23.3807119,1.5 22,1.5 C20.8780334,1.5 19.9022344,2.24575267 19.5969605,3.30770127 C19.5206686,3.57309563 19.2436773,3.72639354 18.9782829,3.65010172 C18.7128885,3.5738099 18.5595906,3.29681852 18.6358824,3.03142415 C19.0635487,1.54371253 20.4292209,0.5 22,0.5 C23.9329966,0.5 25.5,2.06700338 25.5,4 C25.5,5.93299662 23.9329966,7.5 22,7.5 C21.5650256,7.5 21.140353,7.42038322 20.7425084,7.26716649 C20.7548981,7.1809082 20.7967072,7.05653381 20.8577881,6.77326965 Z" id="Oval-40" fill="#F5CD2E"></path>
            <path d="M24.3982297,2.19735363 C24.0636762,1.75297118 23.608479,1.40455882 23.0813014,1.20077997" id="Oval-41" stroke="#FFFFFF" stroke-width="0.7" opacity="0.798381696" stroke-linecap="round" stroke-linejoin="round"></path>
        </g>
    </g>
</svg>