<?xml version="1.0" encoding="UTF-8"?>
<svg width="48px" height="48px" viewBox="0 0 48 48" version="1.1" xmlns="http://www.w3.org/2000/svg" xmlns:xlink="http://www.w3.org/1999/xlink">
    <!-- Generator: Sketch 51.3 (57544) - http://www.bohemiancoding.com/sketch -->
    <title>misc-cowboybuckle</title>
    <desc>Created with Sketch.</desc>
    <defs></defs>
    <g id="SVGs" stroke="none" stroke-width="1" fill="none" fill-rule="evenodd">
        <g id="Slices" transform="translate(-590.000000, -473.000000)"></g>
        <g id="Group-115" transform="translate(9.000000, 17.000000)" fill-rule="nonzero">
            <g id="Group-110" transform="translate(0.000000, 1.000000)">
                <path d="M2.88820801,3.14285714 L27.214575,3.14285714 C27.8220882,3.14285714 28.314575,3.63534392 28.314575,4.24285714 L28.314575,7.75714286 C28.314575,8.36465608 27.8220882,8.85714286 27.214575,8.85714286 L2.88820801,8.85714286 C2.28069478,8.85714286 1.78820801,8.36465608 1.78820801,7.75714286 L1.78820801,4.24285714 C1.78820801,3.63534392 2.28069478,3.14285714 2.88820801,3.14285714 Z" id="Rectangle-58" fill="#6E3A0C"></path>
                <path d="M1.88820801,4.14285714 L28.2145752,4.14285714 C28.8220884,4.14285714 29.3145752,4.63534392 29.3145752,5.24285714 L29.3145752,6.75714314 C29.3145752,7.36465637 28.8220884,7.85714314 28.2145752,7.85714314 L1.88820801,7.85714314 C1.28069478,7.85714314 0.788208008,7.36465637 0.788208008,6.75714314 L0.788208008,5.24285714 C0.788208008,4.63534392 1.28069478,4.14285714 1.88820801,4.14285714 Z" id="Rectangle-58" fill="#562D0A"></path>
                <path d="M2.80737305,3.84118652 L27.2875977,3.84118652 C27.8398824,3.84118652 28.2875977,4.28890177 28.2875977,4.84118652 L28.2875977,7.18969727 C28.2875977,7.74198202 27.8398824,8.18969727 27.2875977,8.18969727 L2.80737305,8.18969727 C2.2550883,8.18969727 1.80737305,7.74198202 1.80737305,7.18969727 L1.80737305,4.84118652 C1.80737305,4.28890177 2.2550883,3.84118652 2.80737305,3.84118652 Z" id="Rectangle-58" fill="#562D0A"></path>
                <path d="M25.7802734,4.14285714 L25.7802734,7.85714314 L23.590332,7.85714314 L23.590332,4.14285714 L25.7802734,4.14285714 Z M26.590332,4.14285714 L28.2145752,4.14285714 C28.8220884,4.14285714 29.3145752,4.63534392 29.3145752,5.24285714 L29.3145752,6.75714314 C29.3145752,7.36465637 28.8220884,7.85714314 28.2145752,7.85714314 L26.590332,7.85714314 L26.590332,4.14285714 Z M22.7802734,4.14285714 L22.7802734,7.85714314 L7.28820801,7.85714314 L7.28820801,4.14285714 L22.7802734,4.14285714 Z M6.47814941,4.14285714 L6.47814941,7.85714314 L4.28820801,7.85714314 L4.28820801,4.14285714 L6.47814941,4.14285714 Z M3.47814941,4.14285714 L3.47814941,7.85714314 L1.88820801,7.85714314 C1.28069478,7.85714314 0.788208008,7.36465637 0.788208008,6.75714314 L0.788208008,5.24285714 C0.788208008,4.63534392 1.28069478,4.14285714 1.88820801,4.14285714 L3.47814941,4.14285714 Z" id="Combined-Shape" fill="#61340C"></path>
                <path d="M10.5155148,1.18973799 C12.0303067,0.635511623 13.5439746,0.358398438 15.0565186,0.358398438 C16.568481,0.358398438 18.080436,0.635298605 19.5923835,1.18909894 L19.5923808,1.1891062 C20.4592855,1.50663848 21.0357146,2.3316547 21.0357146,3.25488303 L21.0357232,8.31026499 C21.0357232,9.16773399 20.537523,9.94707261 19.759268,10.3070341 C18.1616985,11.0459482 16.5801587,11.4154053 15.0146484,11.4154053 C13.454555,11.4154053 11.8946305,11.0485005 10.3348749,10.314691 L10.3348757,10.3146892 C9.56368337,9.95187062 9.07142857,9.17627126 9.07142857,8.3239949 L9.07144818,3.2557748 C9.07144818,2.33226251 9.64822961,1.50705704 10.5155148,1.18973799 Z" id="Rectangle-59" fill="#939393"></path>
            </g>
            <g id="Group-112" transform="translate(10.000000, 1.000000)" fill="#D8D8D8">
                <path d="M1.00805664,2.27624512 C1.28419902,2.27624512 1.50805664,2.05238749 1.50805664,1.77624512 C1.50805664,1.50010274 1.28419902,1.27624512 1.00805664,1.27624512 C0.731914266,1.27624512 0.508056641,1.50010274 0.508056641,1.77624512 C0.508056641,2.05238749 0.731914266,2.27624512 1.00805664,2.27624512 Z" id="Oval-57"></path>
                <path d="M2.67480469,1.87036133 C2.95094706,1.87036133 3.17480469,1.6465037 3.17480469,1.37036133 C3.17480469,1.09421895 2.95094706,0.870361328 2.67480469,0.870361328 C2.39866231,0.870361328 2.17480469,1.09421895 2.17480469,1.37036133 C2.17480469,1.6465037 2.39866231,1.87036133 2.67480469,1.87036133 Z" id="Oval-57"></path>
            </g>
            <g id="Group-111" transform="translate(18.000000, 2.500000) scale(-1, 1) translate(-18.000000, -2.500000) translate(16.000000, 1.000000)" fill="#D8D8D8">
                <path d="M1.00805664,2.27624512 C1.28419902,2.27624512 1.50805664,2.05238749 1.50805664,1.77624512 C1.50805664,1.50010274 1.28419902,1.27624512 1.00805664,1.27624512 C0.731914266,1.27624512 0.508056641,1.50010274 0.508056641,1.77624512 C0.508056641,2.05238749 0.731914266,2.27624512 1.00805664,2.27624512 Z" id="Oval-57"></path>
                <path d="M2.67480469,1.87036133 C2.95094706,1.87036133 3.17480469,1.6465037 3.17480469,1.37036133 C3.17480469,1.09421895 2.95094706,0.870361328 2.67480469,0.870361328 C2.39866231,0.870361328 2.17480469,1.09421895 2.17480469,1.37036133 C2.17480469,1.6465037 2.39866231,1.87036133 2.67480469,1.87036133 Z" id="Oval-57"></path>
            </g>
            <g id="Group-112" transform="translate(12.000000, 11.000000) scale(1, -1) translate(-12.000000, -11.000000) translate(10.000000, 10.000000)" fill="#D8D8D8">
                <path d="M1.00805664,1.72338867 C1.28419902,1.72338867 1.50805664,1.49953105 1.50805664,1.22338867 C1.50805664,0.947246297 1.28419902,0.723388672 1.00805664,0.723388672 C0.731914266,0.723388672 0.508056641,0.947246297 0.508056641,1.22338867 C0.508056641,1.49953105 0.731914266,1.72338867 1.00805664,1.72338867 Z" id="Oval-57"></path>
                <path d="M2.67480469,1.31750488 C2.95094706,1.31750488 3.17480469,1.09364726 3.17480469,0.817504883 C3.17480469,0.541362508 2.95094706,0.317504883 2.67480469,0.317504883 C2.39866231,0.317504883 2.17480469,0.541362508 2.17480469,0.817504883 C2.17480469,1.09364726 2.39866231,1.31750488 2.67480469,1.31750488 Z" id="Oval-57"></path>
            </g>
            <g id="Group-111" transform="translate(18.000000, 11.000000) scale(-1, -1) translate(-18.000000, -11.000000) translate(16.000000, 10.000000)" fill="#D8D8D8">
                <path d="M1.00805664,1.72338867 C1.28419902,1.72338867 1.50805664,1.49953105 1.50805664,1.22338867 C1.50805664,0.947246297 1.28419902,0.723388672 1.00805664,0.723388672 C0.731914266,0.723388672 0.508056641,0.947246297 0.508056641,1.22338867 C0.508056641,1.49953105 0.731914266,1.72338867 1.00805664,1.72338867 Z" id="Oval-57"></path>
                <path d="M2.67480469,1.31750488 C2.95094706,1.31750488 3.17480469,1.09364726 3.17480469,0.817504883 C3.17480469,0.541362508 2.95094706,0.317504883 2.67480469,0.317504883 C2.39866231,0.317504883 2.17480469,0.541362508 2.17480469,0.817504883 C2.17480469,1.09364726 2.39866231,1.31750488 2.67480469,1.31750488 Z" id="Oval-57"></path>
            </g>
            <path d="M9.58850098,4.15771484 L9.58850098,9.87731934" id="Path-219" stroke="#D8D8D8" stroke-linecap="round"></path>
            <path d="M20.588501,4.15771484 L20.588501,9.87731934" id="Path-219" stroke="#D8D8D8" stroke-linecap="round"></path>
            <g id="Group-113" transform="translate(13.000000, 0.000000)" stroke="#D8D8D8" stroke-linecap="round">
                <path d="M2.03271484,1.21679688 L2.03271484,2.98376465" id="Path-220"></path>
                <path d="M1.53894043,1.80908203 L1.53894043,2.57605003" id="Path-220"></path>
                <path d="M2.53894043,1.80908203 L2.53894043,2.57605003" id="Path-220"></path>
            </g>
            <g id="Group-113" transform="translate(13.000000, 10.000000)" stroke="#D8D8D8" stroke-linecap="round">
                <path d="M2.03271484,1.66540527 L2.03271484,2.43237305" id="Path-220"></path>
                <path d="M1.53894043,1.25769043 L1.53894043,2.02465843" id="Path-220"></path>
                <path d="M2.53894043,1.25769043 L2.53894043,2.02465843" id="Path-220"></path>
            </g>
            <g id="Group-114" transform="translate(10.000000, 3.000000)">
                <path d="M1.43450928,1.19238281 C1.6632056,0.946330364 2.07639476,0.641476824 2.19433594,0.751098633 C2.27847921,0.829306579 2.22440206,1.06925612 2.03210449,1.47094727 C1.79962158,2.00866699 1.79815674,2.29748535 1.79815674,2.51324463 C1.79815674,2.87696515 1.95692005,3.02280778 2.15790605,3.02443036 C2.61393806,3.02811195 3.0956013,3.02811195 3.60287458,3.02442725 L3.61013812,4.02440087 C3.09788015,4.02812178 2.61111891,4.02812178 2.14983321,4.02439777 C1.41934758,4.01850048 0.798156738,3.44786425 0.798156738,2.51324463 C0.798156738,2.14764404 0.890728873,1.77743157 1.43450928,1.19238281 Z" id="Path-221" fill="#E1E1E1"></path>
                <path d="M7.07900983,1.19238281 C7.30770616,0.946330364 7.72089531,0.641476824 7.83883649,0.751098633 C7.92297976,0.829306579 7.86890262,1.06925612 7.67660505,1.47094727 C7.44412214,2.00866699 7.44265729,2.29748535 7.44265729,2.51324463 C7.44265729,2.87696515 7.60142061,3.02280778 7.8024066,3.02443036 C8.25843862,3.02811195 8.74010186,3.02811195 9.24737513,3.02442725 L9.25463867,4.02440087 C8.7423807,4.02812178 8.25561946,4.02812178 7.79433377,4.02439777 C7.06384813,4.01850048 6.44265729,3.44786425 6.44265729,2.51324463 C6.44265729,2.14764404 6.53522943,1.77743157 7.07900983,1.19238281 Z" id="Path-221" fill="#E1E1E1" transform="translate(7.848648, 2.377652) scale(-1, 1) translate(-7.848648, -2.377652) "></path>
                <path d="M5.0133667,5.28820801 C5.84179382,5.28820801 6.5133667,4.14031677 6.5133667,3.31188965 C6.5133667,2.48346252 5.84179382,1.81188965 5.0133667,1.81188965 C4.18493957,1.81188965 3.5133667,2.48346252 3.5133667,3.31188965 C3.5133667,4.14031677 4.18493957,5.28820801 5.0133667,5.28820801 Z" id="Oval-58" fill="#D8D8D8"></path>
                <path d="M4,4.60562134 L6,4.60562134 L5.73092651,6.22177124 L5.80386726,6.22249247 C5.91340971,6.22357561 6.00169595,6.31258174 6.00188948,6.42212937 L6.002296,6.65224732 C6.00271266,6.88809787 5.81185577,7.07963029 5.57600522,7.08004694 C5.57575375,7.08004739 5.57550227,7.08004761 5.5752508,7.08004761 L4.43219062,7.08004761 C4.1950602,7.08004761 4.00270968,6.88803947 4.00228722,6.65090942 L4.0018831,6.42407571 C4.00168631,6.31361894 4.09106969,6.2239165 4.20152647,6.22371972 C4.20229032,6.22371835 4.20305418,6.22372137 4.203818,6.22372876 L4.27804565,6.22444703 L4,4.60562134 Z" id="Rectangle-61" fill="#D8D8D8"></path>
            </g>
        </g>
    </g>
</svg>