<?xml version="1.0" encoding="UTF-8"?>
<svg width="48px" height="48px" viewBox="0 0 48 48" version="1.1" xmlns="http://www.w3.org/2000/svg" xmlns:xlink="http://www.w3.org/1999/xlink">
    <!-- Generator: Sketch 51.3 (57544) - http://www.bohemiancoding.com/sketch -->
    <title>misc-camera</title>
    <desc>Created with Sketch.</desc>
    <defs></defs>
    <g id="SVGs" stroke="none" stroke-width="1" fill="none" fill-rule="evenodd">
        <g id="Slices" transform="translate(-767.000000, -473.000000)"></g>
        <g id="Group-119" transform="translate(9.000000, 15.000000)" fill-rule="nonzero">
            <path d="M2.40833333,3.6 L10.2513631,3.6 L11.2527586,1.55291761 C11.4541399,1.1412481 11.8724091,0.880224609 12.3306952,0.880224609 L16.7528394,0.880224609 C17.2358681,0.880224609 17.671811,1.16983577 17.8590328,1.61510504 L18.6936188,3.6 L26.5916667,3.6 C27.2544084,3.6 27.7916667,4.1372583 27.7916667,4.8 L27.7916667,16.8 C27.7916667,17.4627417 27.2544084,18 26.5916667,18 L2.40833333,18 C1.74559163,18 1.20833333,17.4627417 1.20833333,16.8 L1.20833333,4.8 C1.20833333,4.1372583 1.74559163,3.6 2.40833333,3.6 Z" id="Rectangle-67" fill="#DDDDDD"></path>
            <path d="M0.6,8.4 L28.4,8.4 C28.7313708,8.4 29,8.66862915 29,9 L29,10.2058628 C29,10.5349352 28.734948,10.8026027 28.4058914,10.8058339 L27.7916667,10.8118652 L27.7916667,16.8 C27.7916667,17.4627417 27.2544084,18 26.5916667,18 L2.40833333,18 C1.74559163,18 1.20833333,17.4627417 1.20833333,16.8 L1.20833333,10.8251953 L0.587491943,10.81225 C0.261066621,10.8054436 4.0702234e-16,10.5388766 2.22044605e-16,10.2123804 L0,9 C-4.05812251e-17,8.66862915 0.26862915,8.4 0.6,8.4 Z" id="Rectangle-68" fill="#939393"></path>
            <path d="M14.5213877,16.2558105 C11.8552386,16.2558105 9.69222107,14.1077104 9.69222107,11.4558105 C9.69222107,8.80391069 11.8552386,6.65581055 14.5213877,6.65581055 C17.1875369,6.65581055 19.3505544,8.80391069 19.3505544,11.4558105 C19.3505544,14.1077104 17.1875369,16.2558105 14.5213877,16.2558105 Z" id="Oval-59" stroke="#DDDDDD" stroke-width="1.2" fill="#939393"></path>
            <path d="M10.9986881,12.4202239 L14.1978556,7.84592516 C14.5689521,7.8077784 14.9481869,7.8320269 15.3355598,7.91867065 C15.7524117,8.01190796 16.1437151,8.17770996 16.50947,8.41607666 L12.4541068,14.4471997 C12.0985753,14.207551 11.7961814,13.9152308 11.5469252,13.5702393 C11.3082676,13.239917 11.1255219,12.8565785 10.9986881,12.4202239 Z" id="Path-226" fill="#FFFFFF"></path>
            <path d="M13.4435933,14.918811 L17.3367513,9.14912109 C17.8500078,9.80222168 18.1273969,10.4752075 18.1689186,11.1680786 C17.9966367,11.4473755 17.1885245,12.6814209 15.7445819,14.8702148 C15.3641107,14.9972806 14.9655736,15.0652127 14.5489705,15.0740112 C14.1323675,15.0828098 13.7639084,15.0310764 13.4435933,14.918811 Z" id="Path-228" fill="#FFFFFF"></path>
            <path d="M2.43584188,5.27768555 L10.6508713,5.27768555 M18.2994944,5.27768555 L26.5616506,5.27768555" id="Path-229" stroke="#939393" stroke-width="1.2" stroke-linecap="round"></path>
            <path d="M12.2363435,3 L16.7500435,3 C16.8502359,3 16.939886,3.06224071 16.9749058,3.1561137 L17.2435063,3.8761137 C17.2898354,4.00030176 17.2267183,4.13853325 17.1025302,4.18486238 C17.0756954,4.19487328 17.0472853,4.2 17.0186439,4.2 L11.9011903,4.2 C11.7686419,4.2 11.6611903,4.09254834 11.6611903,3.96 C11.6611903,3.92500865 11.6688417,3.89044052 11.6836084,3.85871767 L12.0187616,3.13871767 C12.0581476,3.05410571 12.1430137,3 12.2363435,3 Z" id="Rectangle-69" fill="#939393"></path>
            <path d="M13.4268106,1.53823242 L15.558128,1.53823242 C15.6500093,1.53823242 15.7338266,1.59068992 15.7739875,1.67332931 L15.9883852,2.1144963 C16.0463216,2.23371223 15.9966448,2.37732256 15.8774288,2.43525895 C15.8447401,2.45114499 15.8088702,2.45939941 15.7725257,2.45939941 L13.1592903,2.45939941 C13.0267419,2.45939941 12.9192903,2.35194775 12.9192903,2.21939941 C12.9192903,2.17551891 12.9313205,2.1324782 12.954073,2.09495721 L13.2215933,1.65379022 C13.2650974,1.58204777 13.3429084,1.53823242 13.4268106,1.53823242 Z" id="Rectangle-69" fill="#939393"></path>
            <path d="M4.825,2.4 L7.25833333,2.4 C7.92107503,2.4 8.45833333,2.9372583 8.45833333,3.6 L3.625,3.6 L3.625,3.6 C3.625,2.9372583 4.1622583,2.4 4.825,2.4 Z" id="Rectangle-70" fill="#939393"></path>
            <path d="M5.43333333,1.2 L6.65,1.2 C6.98137085,1.2 7.25,1.46862915 7.25,1.8 L7.25,2.4 L4.83333333,2.4 L4.83333333,1.8 C4.83333333,1.46862915 5.10196248,1.2 5.43333333,1.2 Z" id="Rectangle-71" fill="#DDDDDD"></path>
        </g>
    </g>
</svg>