<?xml version="1.0" encoding="UTF-8"?>
<svg width="48px" height="48px" viewBox="0 0 48 48" version="1.1" xmlns="http://www.w3.org/2000/svg" xmlns:xlink="http://www.w3.org/1999/xlink">
    <!-- Generator: Sketch 51.3 (57544) - http://www.bohemiancoding.com/sketch -->
    <title>misc-jewelrywatch</title>
    <desc>Created with Sketch.</desc>
    <defs></defs>
    <g id="SVGs" stroke="none" stroke-width="1" fill="none" fill-rule="evenodd">
        <g id="Slices" transform="translate(-354.000000, -473.000000)"></g>
        <g id="Group-105" transform="translate(11.000000, 17.000000)" fill-rule="nonzero">
            <rect id="Rectangle-53" fill="#6E3A0C" x="0" y="6" width="28" height="4" rx="1"></rect>
            <rect id="Rectangle-54" fill="#F5CD2E" x="5" y="5" width="18" height="6" rx="2"></rect>
            <path d="M7.67421342,5.00320279 C7.77421241,5.05066063 7.92421089,5.12184739 8.12420886,5.21676307 C7.71508846,6.0788256 7.5,7.02364973 7.5,8 C7.5,8.98348326 7.7182477,9.93494911 8.1331402,10.8019785 C7.9489331,10.8901257 7.81077778,10.956236 7.71867423,11.0003095 C7.55708313,11.0027828 7.27449036,11.0027828 7.12541415,11.0027828 C6.71505965,10.064644 6.5,9.04717209 6.5,8 C6.5,6.95536909 6.71401341,5.94025458 7.12249774,5.00389586 C7.23109761,5.00320279 7.5,5.00320279 7.67421342,5.00320279 Z M20.2837372,11.0003095 C20.1723277,11.0003095 20.0377952,10.9248916 19.8801396,10.7740556 C20.2864489,9.91443303 20.5,8.97286015 20.5,8 C20.5,7.03574651 20.2902163,6.10219547 19.8908024,5.24861716 C20.044956,5.08689893 20.1646937,5.00532516 20.2500153,5.00389586 C20.441452,5.00068893 20.7842354,5.00068893 20.8761008,5.00068893 C21.2855436,5.93805703 21.5,6.95427324 21.5,8 C21.5,9.04629791 21.2853048,10.0630047 20.8755119,11.0006613 C20.7619171,11.0027828 20.4508514,11.0003095 20.2837372,11.0003095 Z" id="Oval-48" fill="#000000" opacity="0.0344308036"></path>
            <rect id="Rectangle-55" fill="#F5CD2E" x="13" y="0" width="2" height="3" rx="1"></rect>
            <circle id="Oval-48" stroke="#F5CD2E" stroke-width="2" fill="#DDDDDD" cx="14" cy="8" r="6"></circle>
            <path d="M14.0045776,8.5 C14.28072,8.5 14.5045776,8.27614237 14.5045776,8 C14.5045776,7.72385763 14.28072,7.5 14.0045776,7.5 C13.7284353,7.5 13.5045776,7.72385763 13.5045776,8 C13.5045776,8.27614237 13.7284353,8.5 14.0045776,8.5 Z" id="Oval-49" fill="#000000"></path>
            <polyline id="Path-213" stroke="#000000" stroke-width="0.8" stroke-linecap="round" stroke-linejoin="round" points="16.2790527 11.5067139 14 8 16.6781006 8.72338867"></polyline>
            <path d="M8.91181984,5.6901579 L17.4862018,5.6901579 C17.7257683,6.11274627 17.9061016,6.53638005 18.0272015,6.96105924 C18.1437318,7.36971339 18.2010445,7.77941294 18.1991398,8.1901579 L8.19865039,8.1901579 C8.20301193,7.74471041 8.26843653,7.30028679 8.39492419,6.85688703 C8.50615968,6.46695346 8.67845822,6.07804375 8.91181984,5.6901579 Z" id="Rectangle-56" fill="#FFFFFF" opacity="0.651227679" transform="translate(13.198918, 6.940158) rotate(-37.000000) translate(-13.198918, -6.940158) "></path>
            <path d="M9.70362318,8.80025449 C9.66963619,8.63378079 9.64541622,8.46728694 9.63096326,8.30077294 L19.5769417,8.30077294 C19.5624796,8.46709536 19.5384884,8.63340087 19.5049681,8.79968948 C19.4712953,8.96673421 19.4280934,9.13376203 19.3753624,9.30077294 L9.83512158,9.30077294 C9.78152176,9.13395361 9.73768896,8.96711412 9.70362318,8.80025449 Z" id="Rectangle-56" fill="#FFFFFF" opacity="0.649051339" transform="translate(14.603952, 8.800773) rotate(-37.000000) translate(-14.603952, -8.800773) "></path>
        </g>
    </g>
</svg>