<svg xmlns="http://www.w3.org/2000/svg" viewBox="0 0 2000 2000"><title>BaseOctocat_v1_svgexport</title><ellipse fill="#5CDFF2" cx="981.8" cy="1755.6" rx="432" ry="110.8"/><path fill="#282828" d="M1278.9 1686.1c-8.7-1.9-12.6 5.8-12.6 5.8s-9.7 1.9-17.5-7.8 5.8-26.2-11.7-49.5c-9.9-13.2-25.6-25.7-40.8-34.8l-1.6-.9-1.8-1.1-1.1-.6-1.2-.7-1.1-.6-1.2-.6-1.1-.6-1.2-.6-1.1-.6-1.1-.6-1.2-.6-1-.5-1.3-.6-.8-.4c-.7-.3-1.4-.6-2-.9l-.8-.3-1.3-.5-.8-.3-1.2-.4-.8-.3c-.4-.1-.8-.3-1.1-.4l-.8-.3c-.4-.1-.8-.2-1.1-.3l-.7-.2-1.2-.3-.6-.2-1.7-.4c-2.3-.5-4.5-.8-6.8-.9l-1.9-8.8v.1s-18 8.5-39.3 16.8c-11.3 4.4-23.5 8.9-34.5 12-7.8 2.2-15 3.8-20.7 4.2-2.2.2-4.4.1-6.5-.2-3 .4-6.6.9-10.9 1.3-13.1 1.2-32.7 1.9-61.6.1-14.7-.9-28.2-1.9-39.8-3.4-14.5-1.8-26-4.4-32.5-8.5-1.7-1-3.3-2.4-4.5-4h-1.6c-12.5-.1-25-.9-37.4-2.4-15.5-2.1-27.5-6.3-39.7-16.1v-.1l-1.8 4.9-10.9 30.3-2.9 1-.7.3c-.9.3-1.8.6-2.7 1l-.2.1-3 1.1-.6.2-2.8 1.1-.2.1c-1 .4-2.1.8-3.1 1.3l-.4.2c-1 .4-2 .8-3 1.3h-.1l-3.3 1.5h-.1l-3.3 1.5c-2.2 1.1-4.5 2.2-6.8 3.4-6.9 3.6-13.6 7.8-20 12.3-3.7 2.7-7.3 5.5-10.8 8.6l-.2.2c-1.3 1.1-2.6 2.3-3.8 3.5-1.2 1.2-2.5 2.4-3.7 3.6l-.2.2c-.7.8-1.5 1.5-2.2 2.3l-.1.2-.2.2c-1.2 1.3-2.3 2.6-3.4 3.9l-.1.1c-1.1 1.3-2.2 2.7-3.3 4l-.4.5c-.6.8-1.2 1.6-1.8 2.3l-.3.5c-1.4 1.9-2.7 3.9-4 5.9 0 .1-.1.2-.2.3l-.1.1c-.5.9-1.1 1.7-1.6 2.6-.1.1-.1.2-.2.3l-.3.5c-.5.8-1 1.6-1.4 2.5-.1.1-.2.3-.2.4s-.1.2-.1.3c-1.3 2.3-2.5 4.7-3.6 7.2v.1c-.4.8-.8 1.7-1.2 2.6l-.4 1c-.4.9-.7 1.8-1.1 2.7l-.3.6v.2c-.5 1.2-.9 2.3-1.3 3.6v.1l-.1.2c-.5 1.5-1 2.9-1.5 4.4-.3.9-.5 1.8-.8 2.7-.1.2-.1.4-.2.7s-.1.3-.1.5c-.3 1-.5 2-.8 3 0 .1 0 .2-.1.3 0 .2-.1.3-.1.5l-.9 3.9c0 .3-.1.5-.2.8-.2 1-.4 2.1-.6 3.1-.1.4-.2.9-.2 1.3-.2.9-.3 1.9-.5 2.9 0 .2-.1.5-.1.7l-.1.6c-.2 1.2-.3 2.3-.5 3.5v.7c-.2 1.4-.3 2.8-.4 4.2l-.1.7v.5c-.1 1-.2 2.1-.2 3.2v1.5c-.1 1-.1 2.1-.1 3.2v1.4c0 1.5-.1 3-.1 4.6 1 27.2 46.6 50.5 83.5 43.7l3.3-.6 1.1-.2 2.2-.4 1.4-.3 2-.4 1.4-.3 1.9-.4 1.5-.3 1.8-.4 1.5-.3 1.6-.4 1.6-.4 1.5-.4 1.7-.4 1.4-.3 1.8-.4 1.1-.3c5.5-1.4 10.8-2.8 15.6-4.2h-.5l2.5-.7c.6-1.5 1.1-3 1.5-4.6.2 1.3.5 2.7.8 3.9l1.5-.4c0 1.1 0 2.2.1 3.2v.6c0 1 .1 2.1.1 3.1.5 1.5 1 3 1.6 4.4l-1.3.6c0 .5.1 1 .1 1.6v1.2c0 .3 0 .6.1 1v.5c0 .6.1 1.1.2 1.7v.5c0 .4.1.9.1 1.3v.4c0 .4.1.7.1 1.1v.8c0 .4.1.7.1 1.1v.4c0 .3.1.6.1.9s0 .3.1.5 0 .2 0 .3v.2l.1.6v.3l.1.3c0 .2.1.4.1.6s.1.4.1.6v.1c.1.3.1.7.2 1 0 .1 0 .2.1.3.1.3.2.7.2 1 4.9 18.4 63.1 28.2 90.3 21.4s71.8-50.5 86.4-64.1l1.2-1.2.4-.4c.3-.3.5-.6.8-.9l.5-.5.1-.1c.1-.1.2-.2.2-.3.1-.2.3-.3.4-.5s.3-.4.5-.6l.2-.2c.1-.1.1-.2.2-.2l.3-.4.5-.6c.1-.2.3-.4.4-.6 6.2-9 10.2-21.1 12.4-32v-.1c.2-1 .4-2.1.6-3.1v-.2c.2-1 .3-1.9.5-2.9v-.2c.1-.9.3-1.7.4-2.5 0-.3.1-.7.1-1 .1-.6.2-1.1.2-1.7 0-.3.1-.6.1-.8v-.3c.1-.7.2-1.4.2-2v-.4c.1-.8.2-1.5.2-2.3l1.1.6.4.2.8.4.6.2.8.3.6.2.8.3.7.2.8.3.7.3.9.3.7.3.9.3.8.3.9.3.8.2 1 .3.8.3 1 .3.9.3 1 .3.9.2 1.1.3.9.2 1.1.3 1 .3 1.1.3 1 .2 1.2.3 1 .2 1.2.3 1 .2 1.2.3 1 .2 1.2.3 1 .2 1.3.3 1 .2 1.3.3 1.1.2 1.3.3 1.1.2 1.3.3 1.1.2 1.3.3 1.1.2 1.3.3 1.2.2 1.3.3 1.2.2 1.4.3 1.2.2 1.4.3 1.2.2 1.3.3 1.2.2 1.3.2 1.3.2 1.3.2 1.3.2 1.2.2 1.3.2 1.3.2 1.3.2 1.2.2 1.3.2 1.2.2 1.4.2 1.1.2 1.5.2 1 .2 1.5.2 1 .2 1.5.2 1 .2 1.6.2.8.1 1.7.3.7.1 1.8.3.5.1 2 .3c16.7 2.5 31.1 4.3 38.7 4.8l1 .1 1.3.1c19.4 1 41.7 1.9 65.1-1.9s22.3-15.5 36.9-25.2 13.3-20.9 4.6-22.9zm-554.1-8.8c-.6 1-1.1 1.9-1.7 2.9.1-.1.2-.3.2-.4.5-.8 1-1.6 1.5-2.5zm-12.5 29.4l-.9 3.3c0-.1.1-.2.1-.3.3-1 .6-2 .8-3zm14.5-32.7c-.6.9-1.2 1.9-1.8 2.9 0-.1.1-.2.2-.3.5-.9 1-1.7 1.6-2.6z"/><path fill="#282828" d="M723 1680.5c-1.3 2.3-2.5 4.7-3.6 7.2.1-.2.2-.5.3-.7 1-2.3 2.1-4.4 3.3-6.5zm-6.7 14.2c-.5 1.2-.9 2.4-1.4 3.6v-.1c.5-1.1 1-2.3 1.4-3.5zm-2.8 8.2c.5-1.5.9-2.9 1.5-4.4-.9 2.5-1.7 5.1-2.4 7.7.1-.2.1-.4.2-.7.1-.8.4-1.7.7-2.6zm4.3-11.7l.4-1c.4-.9.8-1.7 1.2-2.6-1 2.2-2 4.5-2.9 6.8l.3-.6c.2-.8.6-1.7 1-2.6zm-6.5 19.3c-.4 1.5-.7 3.1-1.1 4.7 0-.3.1-.5.2-.8l.9-3.9zm367.7 10.6l-1.1-.2 1.1.2zm-338.6-64.8c-1.2 1.3-2.4 2.7-3.6 4 1.1-1.3 2.2-2.6 3.4-3.9l.2-.1zm282.7 106.9c.2-.2.3-.4.5-.6l-.1.1c-.1.1-.2.3-.4.5zM731 1667.7c-1.4 1.9-2.7 3.9-4 5.9 1.3-2 2.6-3.9 4-5.9zm112.7 139.5c-.1-.3-.1-.6-.2-1v-.1c0-.2-.1-.4-.1-.6s-.1-.4-.1-.6l-.1-.3v-.3c.3 1.6.5 3 .8 4.1-.1-.3-.2-.6-.2-1-.1 0-.1-.1-.1-.2zm-100.9-153.4zm341 68.3l-1.1-.2 1.1.2zm-285.2 67.3l-1.4.3-2.2.4-1.1.2-3.3.6c3.8-.7 7.7-1.5 11.4-2.3l-1.4.3-2 .5zm43.2 2.9v-.3l.1 1.2v-.4c-.1-.1-.1-.3-.1-.5zm.7 7.3c0-.4-.1-.7-.1-1.1v-.4c0-.4-.1-.8-.1-1.3v-.5c0-.5-.1-1.1-.2-1.7v-.5c.2 2.3.4 4.3.6 6.2v-.4s-.2-.1-.2-.3zm-5-19.9l-2.5.7c-4.8 1.4-10.1 2.8-15.6 4.2l-1.1.3-1.8.4-1.4.3-1.7.4-1.5.4-1.6.4-1.6.4-1.5.3-1.8.4-1.5.3c13.2-2.9 25.7-6.3 35.8-9.2-.3-1.3-.6-2.6-.8-3.9-.4 1.5-.9 3.1-1.4 4.6zm3.9 5.8c0-1-.1-2-.1-3.1v-.4c.1 3 .2 5.8.3 8.4l1.3-.6c-.5-1.3-1-2.8-1.5-4.3zm-132-65.8l-.6 3.6c0-.2.1-.5.1-.7.2-1 .3-2 .5-2.9zm133.6 83.6c0-.2 0-.3-.1-.5 0 .3.1.6.1.9v-.4zm-.3-1.8l.1.4-.1-.4zm-135.1-68v-.5l-.3 4.2v-.5c.2-1.1.3-2.2.3-3.2zm373.8-11.9l-1.1-.2 1.1.2zm-374.2 19.7c0-1.1.1-2.1.1-3.2-.2 3-.2 6-.2 9.1 0-1.5 0-3.1.1-4.6v-1.3zm384.1-17.7l-1.2-.2 1.2.2zm-382.6.2c-.2 1.3-.4 2.6-.5 3.9v-.4c.2-1.1.4-2.3.5-3.5zm380.1-.7l-1.2-.2 1.2.2zm-2.5-.5l-1.1-.2 1.1.2zm-304.8-97.2c-11 5.8-21.4 12.8-30.8 20.9 3.5-3.1 7.1-5.9 10.8-8.6 6.4-4.5 13-8.6 20-12.3zm-73.8 106.8c.1-1.4.3-2.8.4-4.2-.1 1.4-.2 2.8-.4 4.2zm344.1-18.3l-.8-.3.8.3zm5.4 1.7l-.9-.3.9.3zm-8.7-2.8l-.7-.3.7.3zm1.6.5l-.7-.3.7.3zm3.4 1.2l-.8-.2.8.2zm1.8.5l-.8-.3.8.3zm-345.7 3.4c.2-1.1.4-2.1.6-3.1-.2 1-.4 2-.6 3.1zm131.7 63.4c0-1.1 0-2.2-.1-3.2.1 1.1.1 2.1.1 3.2zm186.6-25.1c-.1.2-.3.4-.4.7.1-.3.2-.5.4-.7zm.9-1.7l-.4.6.4-.6zm14-44.6l-.4-.2.4.2zm-20.5 53.7l-.4.4.4-.4zm23.2-52.5l-.6-.2.6.2zm31.1 8.9l-1-.2 1 .2zm-32.5-9.5l-.6-.2.6.2zm2.8 1.2l-.7-.2.7.2zm25.1 7.3l-1-.2 1 .2zm-2.3-.6l-1-.2 1 .2zm4.6 1.1l-1-.2 1 .2zm-342.9-52.7c.6-.8 1.2-1.6 1.8-2.3-.6.7-1.2 1.5-1.8 2.3zm15.3-17.3c1.3-1.2 2.5-2.4 3.8-3.5-1.3 1.1-2.5 2.3-3.8 3.5zm314.4 66.7l-.9-.2.9.2zm2.1.6l-1-.3 1 .3zm2.1.5l-1-.2 1 .2zm-6.2-1.7l-.9-.2.9.2zm8.4 2.3l-1-.2 1 .2zm-32 20.9c.1-.4.3-.8.4-1.2-.1.3-.2.6-.3.8l-.1.4zm89.1-9.8l-1.6-.2 1.6.2zm-2.6-.4l-1.5-.2 1.5.2zm-2.5-.4l-1.5-.2 1.5.2zm7.5 1.2l-1.7-.3 1.7.3zm4.9.7l-2-.3 2 .3zm-14.9-2.3l-1.5-.2 1.5.2zm12.5 2l-1.8-.3 1.8.3zm-89-14c0-.4.1-.8.2-1.2 0 .1 0 .2-.1.4 0 .2 0 .5-.1.8zm68.8 10.7l-1.3-.2 1.3.2zm-68.6-12.4v-.2.2zm130 20.9c-7.6-.6-22.1-2.3-38.7-4.8 16.7 2.4 31.1 4.2 38.7 4.8zm-56.3-7.7l-1.4-.2 1.4.2zm-73.6-13.5c.1-.7.2-1.4.2-2-.1.7-.2 1.4-.2 2zm71 13.1l-1.3-.2 1.3.2zm60 8.1l-1-.1 1 .1zm-131.5-17.8c.1-.4.1-.8.2-1.2 0 .2-.1.4-.1.7s-.1.3-.1.5zm58.7 7.4l-1.2-.2 1.2.2zm-72.1 33.1c-.2.2-.3.4-.4.7l-.2.3 1.2-1.8-.6.8zm4.4-8c-.2.5-.4 1-.7 1.4 0 .1-.1.2-.2.3-.2.5-.5.9-.7 1.4l-.3.6-.3.5c.9-1.6 1.7-3.3 2.5-5-.1.2-.1.3-.2.5s-.1.2-.1.3zm70.2-24.6l-1.3-.2 1.3.2zm-7.7-1.5l-1.2-.2 1.2.2zm-58.8 16.7c-.1.3-.2.7-.3 1l-.3.8c-.1.3-.2.7-.4 1l-.3.8c-.1.4-.3.7-.4 1.1l-.3.8c0 .1-.1.2-.1.2l-.1.1c.9-2.3 1.8-4.7 2.6-7 0 .1-.1.2-.1.3l-.3.9zm3.3-12c-.1.3-.2.7-.2 1s-.1.6-.2.9c0 .1-.1.3-.1.4.3-1.1.5-2.1.7-3.2 0 .3-.1.6-.2.9zm58.1-4.2l-1.2-.2 1.2.2zm-64.3 23.9c.2-.3.3-.7.5-1.1l-.3.7c-.1.2-.2.3-.2.4zm-7.9 13.3c-.1.2-.3.3-.4.5.3-.4.7-.8 1-1.2l-.2.2c0 .1-.2.3-.4.5zm14.5-34.7c.1-.4.2-.7.2-1.1-.1.3-.1.6-.2.9v.2zm1-5.4c0 .3-.1.5-.1.8s-.1.6-.2 1c.2-.9.3-1.8.4-2.6v.1c0 .1-.1.4-.1.7zm.2-1c.1-.6.2-1.1.3-1.7l-.2 1c-.1.2-.1.5-.1.7zm-2.5 11.8c.1-.3.2-.7.3-1 0 .1 0 .2-.1.3l-.2.7zm69.3-6l-1.3-.2 1.3.2zm-66.5-8c0-.2.1-.4.1-.7v.3c0 .1-.1.2-.1.4zm-1.6 8.8v-.2.2zm-12.8 32.5c-.2.2-.3.4-.5.6l-.3.4c.4-.5.8-1.1 1.2-1.7-.1.3-.2.5-.4.7zm10.6-23.6l-.2.8v.1l-.1.3c.3-1 .6-2.1.9-3.1l-.2.7-.4 1.2zm67.7-10.2l-1.3-.2 1.3.2zm-64.9-1.8c0 .3-.1.6-.2.9s-.1.3-.1.5c.1-.6.2-1.1.3-1.7.1.2.1.2 0 .3zm10.1-11.1l-.9-.3.9.3zm1.7.5l-.9-.3.9.3zm34.2 8.8l-1.3-.3 1.3.3zm86.6 13.1zm-84.1-12.6l-1.3-.3 1.3.3zm-35-8.7l-.9-.3.9.3zm42.5 10.2l-1.4-.3 1.4.3zm-54.2-12.5v.4-.4zm-.7 5.8zm67.7 9l-1.3-.2 1.3.2zm-67.3-12zm52 9.2l-1.4-.3 1.4.3zm-2.5-.5l-1.3-.3 1.3.3zm-47.9-13.2l-1.1-.6 1.1.6zm4 1.7l-.8-.3.8.3zm-2.7-1.1l-.8-.4.8.4zm1.3.6l-.8-.3.8.3zm9.6 3.4l-1-.3 1 .3zm45.8 10.5l-1.3-.2 1.3.2zm-27.1-5.6l-1.2-.3 1.2.3zm42.3 8.3l-1.1-.2 1.1.2zm5 .8l-1-.2 1 .2zm-2.5-.4l-1-.2 1 .2zm-47.1-9.2l-1.2-.3 1.2.3zm4.6 1.1l-1.3-.3 1.3.3zm2.4.5l-1.3-.3 1.3.3zm32.6 6.4l-1.2-.2 1.2.2zm-30.2-5.9l-1.3-.3 1.3.3zm25.1 5l-1.2-.2 1.2.2zm-2.6-.5l-1.3-.2 1.3.2zm10.2 1.8l-1.2-.2 1.2.2zm10 1.6l-1-.2 1 .2zm-60.8-12.2l-1.1-.3 1.1.3zm-2-.5l-1.1-.3 1.1.3zm22.5 5.4l-1.3-.3 1.3.3zm-24.5-6l-1-.3 1 .3zm-1.9-.6l-1-.3 1 .3zm8 2.3l-1.1-.3 1.1.3zm61 12l-.8-.1.8.1zm-27.5-4.7l-1.3-.3 1.3.3zm32.2 5.4l-.5-.1.5.1zm-63.5-12.2l-1.2-.3 1.2.3zm2.2.6l-1.2-.3 1.2.3zm59 11.3l-.7-.1.7.1zm-79.9-17.5l-.8-.3.8.3zm-21.6 46.7zm13.1-35.2v-.2.2z"/><path fill="#282828" d="M1039.3 1724v-.2.2zm-13.1 35.2zm12.5-32zm1.9-11.8c0-.1 0-.2.1-.4s0-.3 0-.4v-.1c0 .4 0 .7-.1.9zm-.7 5.3zm.4-2.6v-.4c0-.2.1-.4.1-.6 0 .4-.1.7-.1 1zm-289.6-71.8l-.2.2.2-.2zm51.3 142.4l1.8-.4-1.8.4zm37.7-9.7l1.5-.4-1.5.4zm-132.4-40.8v-1c.1.3 0 .6 0 1zm135.2 62.2c0 .3.1.5.1.8v.3c0-.3 0-.7-.1-1.1zm-.8-9.9c0 .4.1.8.1 1.2v.3c0-.5-.1-1-.1-1.5zm.2 3.4v.3c0-.3 0-.6-.1-1 .1.3.1.5.1.7zM708.2 1728v-.3.3zm328.8 6.3l.4-1.5c0-.1.1-.2.1-.2-.2.5-.4 1.1-.5 1.7zm-324.7-27.6c0-.2.1-.3.1-.5 0 .2 0 .4-.1.5zm4-12v-.2.2zm-1.4 3.8l.1-.2c0 .1 0 .2-.1.2zm4.4-10.8zm-8 22.8c0-.2.1-.3.1-.5 0 .2 0 .4-.1.5zm-2.6 13.3l.1-.6-.1.6zm329.9 3.6c0 .1-.1.3-.1.4.1-.1.1-.3.1-.4zm1.5-8.4c0-.2 0-.3.1-.5 0 .2 0 .4-.1.5zm-1.2 7c0-.1 0-.2.1-.4 0 .2 0 .3-.1.4zm1.6-9.5v-.1.1zm-12.6 40.2c.2-.3.4-.7.6-1l-.6 1zM842.8 1802c0 .2 0 .3.1.5l.1.4c-.1-.3-.2-.6-.2-.9zm194.9-70.7l.1-.3c0 .2-.1.3-.1.4v-.1zM723 1680.5c0-.1.1-.2.1-.3l-.1.3zm308.7 68.9l.4-.9c-.2.3-.3.6-.4.9zm-2.9 5.6l.1-.2c.1-.1.1-.3.2-.4l-.3.6zm-6.5 9.1c.3-.3.5-.6.8-.9-.3.3-.5.6-.8.9zM843 1803.8c0 .2 0 .3.1.4l-.1-.6v.2zm180.7-41.3l.2-.2-.2.2zm1.2-1.5l.1-.2c0 .1-.1.2-.1.2zm-317.2-28.8l-.1.7.1-.7zm327.8 7.2v-.1c0 .1-.1.3-.1.4l.1-.3zm3.8-15.6c0-.2 0-.3.1-.4 0 .1-.1.2-.1.4zm-3.4 14.3l.2-.6c-.1.1-.2.4-.2.6zM746.6 1650zm-19.6 23.6c0 .1-.1.2-.2.3.1-.1.2-.2.2-.3zm9.8-13.2zm-3.3 4l-.4.5.4-.5zm7.1-8.3l-.1.2.1-.2zm-9.2 11.2l-.3.5.3-.5zm11.5-13.6l-.2.2.2-.2zm289.6 93.7l.3-.7-.3.7zm-307.7-70l.3-.5-.3.5z"/><path fill="#282828" d="M1039.7 1721.7c0-.3.1-.5.1-.8-.2 1-.3 1.9-.5 2.9 0-.1 0-.2.1-.4 0-.3.1-.6.2-1s.1-.5.1-.7zm.6-3.6c-.1.8-.2 1.7-.4 2.5 0-.2.1-.4.1-.7l.2-1c0-.2.1-.4.1-.5-.1-.1-.1-.2 0-.3zm.1-1c0-.2.1-.4.1-.7v-.1c0-.3.1-.6.1-.9-.1.6-.1 1.1-.2 1.7zm.3-2.5v-.2.2zm-14.5 44.6l.2-.3c.2-.2.3-.4.4-.7l.6-.9c.1-.2.3-.4.4-.7l.6-1 .4-.6.3-.6.3-.5.3-.6c.2-.5.5-.9.7-1.4.1-.1.1-.2.2-.3.2-.5.4-.9.7-1.4.1-.1.1-.2.2-.3s.2-.3.2-.5.3-.6.4-.9c.1-.1.1-.2.2-.4l.3-.7.3-.8.1-.1c0-.1.1-.2.1-.2l.3-.8c.1-.4.3-.7.4-1.1l.3-.8c.1-.3.3-.7.4-1l.3-.8c.1-.3.2-.7.3-1s.2-.6.3-.8c0-.1 0-.2.1-.3 0-.1.1-.3.1-.4l.1-.4c.1-.3.2-.6.3-.8s.1-.4.2-.6l.1-.3v-.1l.2-.8.3-1.2.2-.7c.2-.6.3-1.2.5-1.8v-.1l.2-.7c0-.1.1-.2.1-.3s.1-.3.1-.4.1-.3.1-.4c.1-.3.1-.6.2-.9s.2-.7.2-1 .1-.6.2-.9c0-.2.1-.3.1-.5v-.2c-2.3 10.9-6.2 22.9-12.5 32zm13-35v-.2c-.2 1-.4 2-.6 3.1v-.1c.1-.3.1-.6.2-.9 0-.1 0-.2.1-.4s.1-.3.1-.5.2-.7.2-1z"/><path fill="#494949" d="M1181 1735.6c30.7 2 60 3.3 73.3-4s43.3-38 27.3-46-13.5 5.3-30.7 20c-18.6 16-43.9 26.6-69.9 30zm-235.3 89.3c-20 9.3-40 8-66.7 3.3s-53.3-10.7-53.3-22 7.3-19.3 26.7-16.7 42.7 18 54 23.3 23.3 16.1 39.3 12.1zM807 1787.6c-13.3 2.7-31.3 10.7-55.3 6s-59.3-14.7-65.3-28c-.7-14 10.8-16.6 20.7-18.3s31.3 23.6 55.3 31.6c14.4 4.8 29.4 7.7 44.6 8.7z"/><path opacity=".3" fill="#091426" d="M1044.7 1610.6c4.3-.4 7.9-.8 10.9-1.3 2.2.3 4.3.4 6.5.2.7 0 1.4-.1 2.2-.2l1.8-.2h.4c1.6-.2 3.2-.5 4.9-.8l1.2-.3 1.1-.2 1.3-.3 1.2-.3 1.2-.3 2.4-.6 3-.8c10.9-3.1 23.2-7.5 34.5-12l2-.8 1.1-.4.6-.3.2-.1.8-.3.7-.3.4-.2 1-.4.9-.4 1.1-.4.8-.3.9-.4.4-.2.6-.2 1.1-.4.7-.3 1-.4.7-.3.1-.1 1.3-.6h.1l.3-.2 1.1-.5.5-.2 1-.4.6-.2.1-.1 1.1-.5.3-.1.2-.1 1-.4c.2-.1.3-.1.5-.2l1.1-.5.4-.2 1-.4.4-.2h.1l.9-.4c7.5-3.3 12.3-5.5 12.3-5.5l1.8 8.2h.2c3.1.1 6.2.6 9.2 1.4 3 .8 5.9 1.8 8.8 3 5.7 2.3 11.3 5 16.6 8.1 10.8 6 20.8 13.2 30 21.5 4.6 4.1 8.9 8.6 12.8 13.4 4 4.7 7.1 10.2 9.2 16.1 1.9 5.9 2.6 12.2 2 18.4-.2 3.1-.5 6.1-.5 9.2s.6 6.1 2.5 8.4l-.3.2c2.1 2.7 4.8 4.9 7.9 6.3-2.1.8-4.2 1.5-6.4 2.1L1209 1705c21-13.8 25.8-32.2 31.8-52.6-.3-.8-.6-1.5-.9-2.2-1.1-2.5-2.4-4.9-4-7.1-1.6-2.3-3.4-4.4-5.3-6.4-3.9-4.3-8.1-8.3-12.5-12-1.1-1-2.2-1.9-3.4-2.8s-2.3-1.9-3.4-2.7l-3.5-2.7c-1.2-.9-2.4-1.7-3.6-2.6-4.8-3.4-9.7-6.7-14.8-9.7-1.2-.8-2.5-1.5-3.8-2.2l-1.9-1.1-1.9-1c-1.3-.7-2.6-1.4-3.9-2s-2.6-1.4-3.9-1.9-2.6-1.2-3.9-1.7c-1.1-.4-2.2-.9-3.2-1.3-9.1-1.3-18.3-1.7-27.5-1.2l-7.7 1.6c-8.9 8.5-16.6 18.1-23 28.5-1.6 2.6-5.5 8-5.5 8s5.7 8.4 7 10.5c12.2 18.9 26.8 33.9 43 49.5s34.9 31.2 57 27c-4.6 3.4-5.6 8.5-4.2 13.6-8.1 2.6-16.4 4.4-24.8 5.5 5.8.4 11.5.7 17 1-8.7-.1-17.1-.5-24.9-.8l-1.3-.1-1-.1c-7.6-.6-22.1-2.3-38.7-4.8l-2-.3-.5-.1-1.8-.3-.7-.1-1.7-.3-.8-.1-1.6-.2-1-.2-1.5-.2-1-.2-1.5-.2-1-.2-1.5-.2-1.1-.2-1.4-.2-1.2-.2-1.3-.2-1.2-.2-1.3-.2-1.3-.2-1.3-.2-1.2-.2-1.3-.2-1.3-.2-1.3-.2-1.3-.2-1.2-.2-1.3-.3-1.2-.2-1.4-.3-1.2-.2-1.4-.3-1.2-.2-1.3-.3-1.2-.2-1.3-.3-1.1-.2-1.3-.3-1.1-.2-1.3-.3-1.1-.2-1.3-.3-1.1-.2-1.3-.3-1-.2-1.3-.3-1-.2-1.2-.3-1-.2-1.2-.3-1-.2-.3-.1-.9-.2-1-.2-1.2-.3-1-.2-1.1-.3-1-.3-1.1-.3-.9-.2-1.1-.3-.9-.2-1-.3-.9-.3-1-.3-.8-.3-1-.3-.8-.2-.9-.3-.8-.3-.9-.3-.7-.3-.9-.3-.7-.3-.8-.3-.7-.2-.8-.3-.6-.2-.8-.3-.6-.2-.8-.4-.4-.2-1.1-.6c-.1.7-.1 1.5-.2 2.3v.4c-.1.7-.2 1.3-.2 2v.3c0 .3-.1.6-.1.8-.1.5-.1 1.1-.2 1.7 0 .3-.1.7-.1 1-.1.8-.2 1.7-.4 2.5v.2c-.2 1-.3 1.9-.5 2.9v.2c-.2 1-.4 2.1-.6 3.1v.1c-2.3 10.9-6.2 23-12.4 32-.1.2-.3.4-.4.6s-.3.4-.5.6l-.3.4c-.1.1-.1.2-.2.2l-.2.2c-.2.2-.3.4-.5.6s-.3.3-.4.5l-.2.3-.1.1c-.2.2-.3.4-.5.5s-.5.6-.8.9l-.4.4-1.2 1.2c-14.6 13.6-59.2 57.3-86.4 64.1-14.4 3.6-37.4 2.6-56.7-1.9l1.4.2c26.7 4.7 46.7 6 66.7-3.3-16 4-28-6.7-39.3-12s-34.7-20.7-54-23.3c-3.2-.5-6.4-.6-9.7-.4-.4-1.2-.9-2.3-1.2-3.6 0-1-.1-2-.1-3.1v-.6c0-1.1 0-2.2-.1-3.2l-1.5.4c-.3-1.3-.6-2.6-.8-3.9-.4 1.6-.9 3.1-1.5 4.6l-2.5.7c-4.8 1.4-10.1 2.8-15.6 4.2l-1.1.3-1.8.4-1.4.3-1.7.4-1.5.4-1.6.4-1.6.4-1.5.3-1.8.4-1.5.3-1.9.4-.9.2c2.1-.5 4.1-1 6-1.4-15.2-.9-30.2-3.9-44.7-8.7-24-8-45.3-33.3-55.3-31.6 0-1.5 0-3 .1-4.5v-1.4c0-1.1.1-2.1.1-3.2v-1.5c.1-1.1.2-2.1.2-3.2v-.5l.1-.7c.1-1.4.3-2.8.4-4.2v-.7c.1-1.2.3-2.3.5-3.5l.1-.6c0-.2.1-.5.1-.7.2-1 .3-1.9.5-2.9.1-.4.1-.9.2-1.3.2-1.1.4-2.1.6-3.1 0-.3.1-.5.2-.8l.9-3.9c0-.2.1-.3.1-.5 0-.1.1-.2.1-.3.3-1 .5-2 .8-3 0-.2.1-.3.1-.5s.1-.4.2-.7c.3-.9.5-1.8.8-2.7.5-1.5.9-2.9 1.5-4.4l.1-.2v-.1c.4-1.2.9-2.4 1.3-3.6v-.2l.3-.6c.4-.9.7-1.8 1.1-2.7l.4-1c.4-.9.8-1.7 1.2-2.6v-.1c.1-.2.2-.5.3-.7 1-2.2 2.1-4.4 3.3-6.5 0-.1.1-.2.1-.3s.2-.3.2-.4c.5-.8.9-1.7 1.4-2.5l.3-.5c0-.1.1-.2.2-.3.5-.9 1.1-1.8 1.6-2.6l.1-.1c.1-.1.1-.2.2-.3 1.3-2 2.6-4 4-5.9l.3-.5c.6-.8 1.2-1.6 1.8-2.3l.4-.5c1.1-1.4 2.1-2.7 3.3-4l.1-.1c1.1-1.3 2.2-2.6 3.4-3.9l.2-.2.1-.2c.7-.8 1.5-1.5 2.2-2.3l.2-.2c1.2-1.2 2.5-2.5 3.7-3.6 1.3-1.2 2.5-2.4 3.8-3.5l.2-.2c3.5-3.1 7.1-5.9 10.8-8.6 6.4-4.6 13.1-8.7 20-12.3 2.2-1.2 4.5-2.3 6.8-3.4l3.3-1.5h.1l3.3-1.5h.1c1-.4 2-.9 3-1.3l.4-.2c1-.4 2.1-.9 3.1-1.3l.2-.1 2.8-1.1.6-.2 3-1.1.2-.1c.9-.3 1.8-.7 2.7-1l.7-.3 2.9-1 .3-.7h.2c1.2-3.4 2.3-6.7 3.4-10l7-19.5 1.8-4.9c1.5 1.2 3 2.3 4.5 3.4 10.7 7.4 21.6 10.9 35.1 12.7 12.4 1.5 24.9 2.3 37.4 2.4h1.6c1.2 1.6 2.7 3 4.5 4 6.5 4 18 6.6 32.5 8.5.7 2 1.2 3.2 1.1 3.8 0 0 13.5-1.8 34.2 7.5s26.6 34.2 26.6 34.2c-20-28.5-63.3-27.3-79.3-21.3s-24 24-24 42c0 20.3 17 39.3 31 68s7.8 29.6 20 47c7 10 20.7 12 38.7-4.7 15-13.9 29.5-24.5 36.2-33 5.3-25.7 13.5-72.5-5.3-100.7 8.4-11.8 15.8-12.6 22.1-40zm4.6 102.5l-.9-.3.9.3zm1.7.5l-.9-.3.9.3zm34.2 8.8l-1.3-.3 1.3.3zm86.6 13.1zm-84.1-12.6l-1.3-.3 1.3.3zm-35-8.7l-.9-.3.9.3zm42.5 10.2l-1.4-.3 1.4.3zm-54.2-12.5v.4-.4zm-.7 5.8zm67.7 9l-1.3-.2 1.3.2zm-67.3-12zm52 9.2l-1.4-.3 1.4.3zm-2.5-.5l-1.3-.3 1.3.3zm-47.9-13.2l-1.1-.6 1.1.6zm4 1.7l-.8-.3.8.3zm-2.7-1.1l-.8-.4.8.4zm1.3.6l-.8-.3.8.3zm9.6 3.4l-1-.3 1 .3zm45.8 10.5l-1.3-.2 1.3.2zm-27.1-5.6l-1.2-.3 1.2.3zm42.3 8.3l-1.1-.2 1.1.2zm5 .8l-1-.2 1 .2zm-2.5-.4l-1-.2 1 .2zm-47.1-9.2l-1.2-.3 1.2.3zm4.6 1.1l-1.3-.3 1.3.3zm2.4.5l-1.3-.3 1.3.3zm32.6 6.4l-1.2-.2 1.2.2zm-30.2-5.9l-1.3-.3 1.3.3zm25.1 5l-1.2-.2 1.2.2zm-2.6-.5l-1.3-.2 1.3.2zm10.2 1.8l-1.2-.2 1.2.2zm10 1.6l-1-.2 1 .2zm-60.8-12.2l-1.1-.3 1.1.3zm-2-.5l-1.1-.3 1.1.3zm22.5 5.4l-1.3-.3 1.3.3zm-24.5-6l-1-.3 1 .3zm-1.9-.6l-1-.3 1 .3zm8 2.3l-1.1-.3 1.1.3zm61 12l-.8-.1.8.1zm-27.6-4.7l-1.3-.3 1.3.3zm32.3 5.4l-.5-.1.5.1zm-63.5-12.2l-1.2-.3 1.2.3zm2.2.6l-1.2-.3 1.2.3zm59 11.3l-.7-.1.7.1zm-79.9-17.5l-.8-.3.8.3zm-21.6 46.7zm13.1-35.2v-.2.2z"/><path opacity=".3" fill="#091426" d="M1039.3 1724v-.2.2zm-13.1 35.2zm12.5-32zm1.9-11.8c0-.1 0-.2.1-.4s0-.3 0-.4v-.1c0 .4 0 .7-.1.9zm-.7 5.3zm.4-2.6v-.4c0-.2.1-.4.1-.6 0 .4-.1.7-.1 1zm-289.6-71.8l-.2.2.2-.2zm51.3 142.4l1.8-.4-1.8.4zm37.7-9.7l1.5-.4-1.5.4zm-132.4-40.8v-1c.1.3 0 .6 0 1zm135.2 62.2c0 .3.1.5.1.8v.3c0-.3 0-.7-.1-1.1zm-.8-9.9c0 .4.1.8.1 1.2v.3c0-.5-.1-1-.1-1.5zm.2 3.4v.3c0-.3 0-.6-.1-1 .1.3.1.5.1.7zM708.2 1728v-.3.3zm328.8 6.3l.4-1.5c0-.1.1-.2.1-.2-.2.5-.4 1.1-.5 1.7zm-324.7-27.6c0-.2.1-.3.1-.5 0 .2 0 .4-.1.5zm4-12v-.2.2zm-1.4 3.8l.1-.2c0 .1 0 .2-.1.2zm4.4-10.8zm-8 22.8c0-.2.1-.3.1-.5 0 .2 0 .4-.1.5zm-2.6 13.3l.1-.6-.1.6zm329.9 3.6c0 .1-.1.3-.1.4.1-.1.1-.3.1-.4zm1.5-8.4c0-.2 0-.3.1-.5 0 .2 0 .4-.1.5zm-1.2 7c0-.1 0-.2.1-.4 0 .2 0 .3-.1.4zm1.6-9.5v-.1.1zm-12.6 40.2c.2-.3.4-.7.6-1l-.6 1zM842.8 1802c0 .2 0 .3.1.5l.1.4c-.1-.3-.2-.6-.2-.9zm194.9-70.7l.1-.3c0 .2-.1.3-.1.4v-.1zM723 1680.5c0-.1.1-.2.1-.3l-.1.3zm308.7 68.9l.4-.9c-.2.3-.3.6-.4.9zm-2.9 5.6l.1-.2c.1-.1.1-.3.2-.4l-.3.6zm-6.5 9.1c.3-.3.5-.6.8-.9-.3.3-.5.6-.8.9zM843 1803.8c0 .2 0 .3.1.4l-.1-.6v.2zm180.7-41.3l.2-.2-.2.2zm1.2-1.5l.1-.2c0 .1-.1.2-.1.2zm-317.2-28.8l-.1.7.1-.7zm327.8 7.2v-.1c0 .1-.1.3-.1.4l.1-.3zm3.8-15.6c0-.2 0-.3.1-.4 0 .1-.1.2-.1.4zm-3.4 14.3l.2-.6c-.1.1-.2.4-.2.6zM746.6 1650zm-19.6 23.6c0 .1-.1.2-.2.3.1-.1.2-.2.2-.3zm9.8-13.2zm-3.3 4l-.4.5.4-.5zm7.1-8.3l-.1.2.1-.2zm-9.2 11.2l-.3.5.3-.5zm11.5-13.6l-.2.2.2-.2zm289.6 93.7l.3-.7-.3.7zm-307.7-70l.3-.5-.3.5z"/><path opacity=".3" fill="#091426" d="M1039.7 1721.7c0-.3.1-.5.1-.8-.2 1-.3 1.9-.5 2.9 0-.1 0-.2.1-.4 0-.3.1-.6.2-1s.1-.5.1-.7zm.6-3.6c-.1.8-.2 1.7-.4 2.5 0-.2.1-.4.1-.7l.2-1c0-.2.1-.4.1-.5-.1-.1-.1-.2 0-.3zm.1-1c0-.2.1-.4.1-.7v-.1c0-.3.1-.6.1-.9-.1.6-.1 1.1-.2 1.7zm.3-2.5v-.2.2zm-14.5 44.6l.2-.3c.2-.2.3-.4.4-.7l.6-.9c.1-.2.3-.4.4-.7l.6-1 .4-.6.3-.6.3-.5.3-.6c.2-.5.5-.9.7-1.4.1-.1.1-.2.2-.3.2-.5.4-.9.7-1.4.1-.1.1-.2.2-.3s.2-.3.2-.5.3-.6.4-.9c.1-.1.1-.2.2-.4l.3-.7.3-.8.1-.1c0-.1.1-.2.1-.2l.3-.8c.1-.4.3-.7.4-1.1l.3-.8c.1-.3.3-.7.4-1l.3-.8c.1-.3.2-.7.3-1s.2-.6.3-.8c0-.1 0-.2.1-.3 0-.1.1-.3.1-.4l.1-.4c.1-.3.2-.6.3-.8s.1-.4.2-.6l.1-.3v-.1l.2-.8.3-1.2.2-.7c.2-.6.3-1.2.5-1.8v-.1l.2-.7c0-.1.1-.2.1-.3s.1-.3.1-.4.1-.3.1-.4c.1-.3.1-.6.2-.9s.2-.7.2-1 .1-.6.2-.9c0-.2.1-.3.1-.5v-.2c-2.3 10.9-6.2 22.9-12.5 32zm13-35v-.2c-.2 1-.4 2-.6 3.1v-.1c.1-.3.1-.6.2-.9 0-.1 0-.2.1-.4s.1-.3.1-.5.2-.7.2-1zm-220.5-123.6l7-19.5-10.6 29.6h.2c1.1-3.5 2.3-6.8 3.4-10.1z"/><path opacity=".04" fill="#FFF" d="M1043.3 1689.4c.6-6.7 1.4-13.4 2.5-20.1.5-3.3 1.1-6.6 1.8-9.9s1.5-6.5 2.4-9.7c1.9-6.4 4.1-12.8 6.2-19.3s4.1-13.1 5.7-19.8l.3-1.2c-2.2.2-4.4.1-6.5-.2-1.3 6.6-3 13-4.8 19.6s-3.8 13-5.4 19.7c-.8 3.3-1.4 6.8-2 10.2s-1 6.8-1.3 10.2c-.7 6.8-1 13.6-1.2 20.4-.1 3.4-.1 6.8-.1 10.2 0 3.4.1 6.8-.1 10.2l.4.1h.4c.8-6.9 1.1-13.7 1.7-20.4zm-150.5-52.2c-1.2.8-2.3 1.7-3.4 2.6-4.7 3.7-9.2 7.7-13.4 12-2.1 2.1-4.2 4.4-6.1 6.7-1.9 2.4-3.6 4.8-5.2 7.4-3.1 5.1-5.8 10.5-8 16.1-4.3 11.2-7.6 22.7-9.8 34.5-4.7 23.5-6 47.6-3.9 71.4l.8-.1c.7-23.6 3.8-47.1 9.3-70.1.7-2.8 1.5-5.7 2.3-8.5s1.5-5.6 2.4-8.4c1.7-5.5 3.6-10.9 5.9-16.1 2.1-5.1 4.7-10.1 7.6-14.8 1.4-2.3 3-4.5 4.7-6.6.8-1 1.7-2 2.6-3 .4-.5 1-1 1.5-1.5l1.5-1.5c3.9-4.1 8.1-7.9 12.5-11.5 1.5-1.2 3-2.3 4.6-3.4l.8.2.2-.9 1.1-.7c.6-.4 1.1-.7 1.7-1.1s1.2-.7 1.7-1c1.1-.6 2.4-1.3 3.6-2 5-2.5 10.2-4.7 15.5-6.3 1.3-.4 2.7-.8 4.1-1.2s2.7-.7 4.1-1c2.8-.7 5.5-1.2 8.3-1.7 5.7-.9 11.4-1.4 17.1-1.5 5.6-.3 11.1.4 16.5 1.8 5.4 1.5 10.6 3.9 15.2 7.2 2.4 1.7 4.6 3.5 6.8 5.5s4.3 4.1 6.2 6.3l.7-.5c-3.4-5-7.4-9.5-11.9-13.4-4.6-4-9.8-7-15.5-9.1-5.7-2-11.7-3.1-17.7-3.2-6-.2-12 0-18 .6-6 .7-11.9 1.8-17.7 3.4-5.8 1.6-11.4 3.7-16.9 6.3-.8.3-1.5.7-2.2 1.1 2.8-10.9 5.5-21.8 8.2-32.7-1.7-1-3.3-2.4-4.5-4h-1.6c-.8 2.8-1.5 5.7-2.3 8.5-3 11.5-6.2 22.8-9.4 34.2zm-185.6 104.1c0-1.1.1-2.1.1-3.2v-1.5c.1-1.1.2-2.1.2-3.2v-.5l.1-.7c.1-1.4.3-2.8.4-4.2v-.7c.1-1.2.3-2.3.5-3.5l.1-.6c0-.2.1-.5.1-.7.2-1 .3-1.9.5-2.9.1-.4.1-.9.2-1.3.2-1.1.4-2.1.6-3.1 0-.3.1-.5.2-.8l.9-3.9c0-.2.1-.3.1-.5 0-.1.1-.2.1-.3.3-1 .5-2 .8-3 0-.2.1-.3.1-.5s.1-.4.2-.7c.3-.9.5-1.8.8-2.7.5-1.5.9-2.9 1.5-4.4l.1-.2v-.1c.4-1.2.9-2.4 1.3-3.6v-.2l.3-.6c.4-.9.7-1.8 1.1-2.7l.4-1c.4-.9.8-1.7 1.2-2.6v-.1c.1-.2.2-.5.3-.7 1-2.2 2.1-4.4 3.3-6.5 0-.1.1-.2.1-.3s.2-.3.2-.4c.5-.8.9-1.7 1.4-2.5l.3-.5c0-.1.1-.2.2-.3.5-.9 1.1-1.8 1.6-2.6l.1-.1c.1-.1.1-.2.2-.3 1.3-2 2.6-4 4-5.9l.3-.5c.6-.8 1.2-1.6 1.8-2.3l.4-.5c1.1-1.4 2.1-2.7 3.3-4l.1-.1c1.1-1.3 2.2-2.6 3.4-3.9l.2-.2.1-.2c.7-.8 1.5-1.5 2.2-2.3l.2-.2c1.2-1.2 2.5-2.5 3.7-3.6 1.3-1.2 2.5-2.4 3.8-3.5l.2-.2c3.5-3.1 7.1-5.9 10.8-8.6 6.4-4.6 13.1-8.7 20-12.3 2.2-1.2 4.5-2.3 6.8-3.4l3.3-1.5h.1l3.3-1.5h.1c1-.4 2-.9 3-1.3l.4-.2c1-.4 2.1-.9 3.1-1.3l.2-.1 2.8-1.1.6-.2 3-1.1.2-.1c.9-.3 1.8-.7 2.7-1l.7-.3 2.9-1 .3-.7-.4.1h-.1c-14.8 4.8-29 11.2-42.3 19.1-13.5 8-25.6 18.2-35.8 30.1-10.1 12-17.8 25.9-22.7 40.9-2.4 7.4-4.2 15.1-5.3 22.9-1 7.8-1.5 15.6-1.5 23.4h.4c0-1.5 0-3.1.1-4.6-.1.3 0-.1 0-.6z"/><path opacity=".04" fill="#FFF" d="M709.4 1735.7c.3-1.9.7-3.8 1.1-5.7s.8-3.8 1.2-5.6c1.8-7.4 4.1-14.6 7-21.7 2.7-7 6.1-13.7 10-20 1.9-3.2 4-6.2 6.2-9.2s4.5-5.8 7-8.6c9.9-11 21.4-20.6 34-28.3 12.7-8 26.4-14.3 40.5-20.1 4.1-1 8.3-1.6 12.5-1.8 4.6-.2 9.1 0 13.7.5s9.1 1.4 13.5 2.7c2.2.7 4.4 1.5 6.5 2.5.5.2 1.1.5 1.6.8l1.5.9c.5.3 1 .6 1.5 1l1.5 1 .6-.5c-3.4-3.5-7.5-6.2-12-8.1-4.4-1.9-9.1-3.4-13.8-4.3-4.7-1-9.5-1.5-14.4-1.7-2.4-.1-4.8 0-7.2.1 3.6-10.5 6.9-20.4 10-30.2-1.5-1-3-2.2-4.5-3.4l-1.8 4.9-7 19.5c-1.1 3.3-2.2 6.6-3.4 10h-.2l-.3.7-2.9 1-.7.3c-.9.3-1.8.6-2.7 1l-.2.1-3 1.1-.6.2-2.8 1.1-.2.1c-1 .4-2.1.8-3.1 1.3l-.4.2c-1 .4-2 .8-3 1.3h-.1l-3.3 1.5h-.1l-3.3 1.5c-2.2 1.1-4.5 2.2-6.8 3.4-6.9 3.6-13.6 7.8-20 12.3-3.7 2.7-7.3 5.5-10.8 8.6l-.2.2c-1.3 1.1-2.6 2.3-3.8 3.5-1.2 1.2-2.5 2.4-3.7 3.6l-.2.2c-.7.8-1.5 1.5-2.2 2.3l-.1.2-.2.2c-1.2 1.3-2.3 2.6-3.4 3.9l-.1.1c-1.1 1.3-2.2 2.7-3.3 4l-.4.5c-.6.8-1.2 1.6-1.8 2.3l-.3.5c-1.4 1.9-2.7 3.9-4 5.9 0 .1-.1.2-.2.3l-.1.1c-.5.9-1.1 1.7-1.6 2.6-.1.1-.1.2-.2.3l-.3.5c-.5.8-1 1.6-1.4 2.5-.1.1-.2.3-.2.4s-.1.2-.1.3c-1.1 2.1-2.2 4.3-3.3 6.5-.1.2-.2.5-.3.7v.1c-.4.8-.8 1.7-1.2 2.6l-.4 1c-.4.9-.7 1.8-1.1 2.7l-.3.6v.2c-.5 1.2-.9 2.3-1.3 3.6v.1l-.1.2c-.5 1.5-1 2.9-1.5 4.4-.3.9-.5 1.8-.8 2.7-.1.2-.1.4-.2.7s-.1.3-.1.5c-.3 1-.5 2-.8 3 0 .1 0 .2-.1.3 0 .2-.1.3-.1.5l-.9 3.9c0 .3-.1.5-.2.8-.2 1-.4 2.1-.6 3.1-.1.4-.2.9-.2 1.3-.2.9-.3 1.9-.5 2.9 0 .2-.1.5-.1.7l-.1.6c-.2 1.2-.3 2.3-.5 3.5v.7c-.2 1.4-.3 2.8-.4 4.2l-.1.7v.5c-.1 1-.2 2.1-.2 3.2v1.5c-.1 1-.1 2.1-.1 3.2v1.4c0 1.5-.1 3-.1 4.6h.4c.4-4.3.9-8.2 1.7-12zM963.7 1047l1.5-1.7-1.5 1.7z"/><path fill="#282828" d="M1425 1113c-35.5-14.6-52-27.3-66.9-34.8-.6 7-1.5 14-2.8 20.9-.1.3-.1.7-.2 1-.2.8-.3 1.6-.5 2.4-.2 1.2-.5 2.3-.8 3.5-.2 1-.4 1.9-.7 2.8 0 .1-.1.3-.1.4-.3 1.1-.5 2.1-.8 3.2l-1.2 4.2c-.1.3-.2.6-.3 1-.4 1.3-.8 2.7-1.3 4-.4 1.3-.9 2.6-1.4 3.9l-.3.9c-.5 1.2-.9 2.5-1.4 3.7-.1.2-.2.3-.2.5-.1.2-.2.5-.3.7-.4 1-.8 1.9-1.2 2.8l-.5 1.1c-.3.7-.6 1.3-.9 2l-.2.4-.5 1-.7 1.3c-.3.6-.6 1.1-.9 1.7l-.3.6c-.4.7-.7 1.3-1.1 2l-.1.2-.7 1.2-.2.4c-.3.6-.7 1.1-1 1.7l-.5.8-.8 1.2-.4.6c-.3.4-.6.9-1 1.3l-.1.1c-.6.8-1.2 1.5-1.8 2.3l-.3.3-1.8 2.1c-1.9 2.1-4 4-6.2 5.6-17.5 12.6-50.5-9.7-127.2-66-70.1-51.4-115.8-119.1-141.7-132.6-5.3-8-.6-13.2 5.4-16.9l-.3.1c29.6-7.4 58.5-17.7 86.2-30.5-49.8 14.3-75.3 4.8-98.5 6-39 2-73 31-113 31-128 0-228-59-239-109-10.7-48.8 14.3-72.9 13-87-2-22-23-36-33-112s37-136 113-161 154 41 234 40 147-81.7 171-83c18-1 60 7 72 70s-1 146 1 184c.1 1.7.8 3.3 2.1 4.4 4.7 11.8 22.9 25.8 26.9 59.6 1.3 11.1-1.6 25.1-8.9 40.2 7.7-15.5 10.8-29.8 9.4-41.2-4.5-38.1-27-51-28-64s19-83 17-170-44-129-92-171-138-85-277-83S617.8 388.9 590 443c-37 72-52 126-19 257 25.2 100.2 95.9 212 246 251 46.2 12 101.8 14.1 163 9 3.6-.3 7.2-.6 10.8-1 3.8 3.4-3.3 9.6-9.9 15.7-18.7 12.2-43.3 37.5-75.7 62.1-39.5 29.9-198.1 117.5-237.9 176.7s1 111.7 35.9 147.6c20.9 21.5 48.8 40.2 71.6 53.7l-1.5.7-.5.2-1.2.6-.7.3-1.2.6-.8.3-1.2.6-.8.4-1.3.6-.9.4-1.3.7-.9.5-1.4.7-1 .5-1.5.7-1 .5-1.5.8-1 .5-1.6.8-1 .5-1.6.9-1 .5-1.7 1-.9.5-1.8 1-.8.5-2 1.2-.6.4c-.9.5-1.7 1.1-2.6 1.6l-2.6 1.7c-12.2 8-22.8 17.3-25.1 26.2-5.8 23.3 5.8 38.8 19.4 28.2 24.7 40.2 63 64.4 102.1 71.6-.1.2-.1.3-.2.5l-.4 1c-.1.3-.2.5-.3.8l-.3.8v.1c-.1.2-.2.5-.3.8s-.3.8-.4 1.1c-.1.2-.1.4-.2.6v.1c-.1.3-.2.6-.3.8l-.1.3c0 .1-.1.2-.1.2-.2.4-.3.8-.4 1.2l-.2.4c-.1.3-.2.6-.3.8v.1c0 .1-.1.2-.1.3-.1.3-.2.7-.3 1 0 .1 0 .2-.1.2l-.2.8-.1.3-.3.8v.1c-.1.2-.1.4-.2.7v.2l-.2.7-1 2.7c12.2 9.8 24.2 14 39.7 16.1 12.4 1.5 24.9 2.3 37.4 2.4h1.6c1.2 1.6 2.7 3 4.5 4 6.5 4 18 6.6 32.5 8.5 11.6 1.5 25.2 2.5 39.8 3.4 29 1.8 48.5 1.1 61.6-.1 4.3-.4 7.9-.8 10.9-1.3 2.2.3 4.3.4 6.5.2 5.7-.4 12.9-1.9 20.7-4.2 10.9-3.1 23.2-7.5 34.5-12 21.3-8.4 39.3-16.8 39.3-16.8s29.1-178.7 9.7-309.7c-.3-2.1-.6-4.2-1-6.3-.1-.7-.2-1.3-.3-2-.2-1.4-.5-2.9-.7-4.3-.1-.8-.3-1.6-.4-2.3-.2-1.3-.4-2.7-.7-4l-.4-2.4c-.2-1.3-.5-2.7-.7-4l-.4-2.3c-.3-1.4-.5-2.8-.8-4.1-.1-.7-.3-1.4-.4-2.1l-.9-4.5-.3-1.7c-.4-1.9-.8-3.7-1.1-5.6-.1-.2-.1-.4-.1-.6-1.3-6.4-2.7-12.8-4.2-19.2l-.2-.7c-.4-1.9-.9-3.8-1.3-5.6-.1-.3-.1-.6-.2-.8-.4-1.8-.9-3.7-1.3-5.5-.1-.3-.1-.5-.2-.8-.5-1.9-.9-3.8-1.4-5.7l-.1-.5c-1.6-6.1-3.2-12.2-4.8-18.2l-.1-.4-1.5-3 1.5 3c-.8-2.7-1.5-5.4-2.3-8.1.5.6.9 1.2 1.4 1.8l.7.9c.5.6.9 1.2 1.4 1.8.2.3.5.6.7.9.5.6 1 1.2 1.4 1.8l.7.9c.5.6 1 1.3 1.5 1.9l.5.7c.9 1.2 1.9 2.3 2.8 3.5l.1.2 2.5 3.1.4.4.3.4.6.8.6.7.6.8c.2.2.4.5.6.7l.3.4.7.8.8 1c.2.2.4.5.6.7v.1c.2.3.5.6.8.9l1.1 1.3.4.4c3.1 3.5 6.3 7.1 9.6 10.7l.3.3c.2.2.3.4.5.6l1.7 1.9.5.5.3.3c.6.6 1.2 1.3 1.8 1.9l.2.2.3.3.1.1c1.7 1.8 3.4 3.5 5.1 5.3l.2.2c1.8 1.8 3.5 3.6 5.3 5.3 41.8 41.2 95.7 79.2 148.3 78.6 87.4-.9 147.5-100.1 168.9-142.6-5.3-3.4-34.9-15.6-81.3-34.7zm-681 319.7c-.8.2-1.5.4-2.3.6.8-.2 1.5-.4 2.3-.6zm-3.5 1c-.7.2-1.5.5-2.2.7.8-.3 1.5-.6 2.2-.7zm3.9-1.1c28.2-7.1 45.7 3 59.4 12.2-13.7-9.2-31.2-19.3-59.4-12.2zm64.3 15.4c1 .7 2 1.4 3 2-1-.6-2-1.3-3-2zm-2.3-1.5l2.1 1.4-2.1-1.4zm158.3-395.9v.2c-.1.4-.1.9-.2 1.3-.3 1.9-.6 3.8-.9 5.8 0 .3-.1.6-.1.8-.2 1.4-.4 2.8-.7 4.3v.2l-.6 3.9c-.1.5-.2 1-.3 1.6-.1.4-.2.9-.2 1.3-.1.4-.1.8-.2 1.2l-.6 3.3v.2c-.1.5-.2 1-.2 1.5 0 .2-.1.4-.1.6-.6 3.7-1.3 7.6-2 11.6 0 .3-.1.6-.2.9-.1.7-.3 1.4-.4 2.2-.1.4-.2.8-.2 1.3-.5 2.9-1 5.8-1.6 8.8-.3 1.7-.6 3.3-.9 5l-.5 2.4v.1c-.2.8-.3 1.6-.5 2.5-.1.4-.1.7-.2 1.1v.1c-.3 1.5-.6 3-.9 4.6v.2c-.3 1.4-.5 2.8-.8 4.2l-.1.5c-.3 1.4-.5 2.8-.8 4.2v.3l-.1.6c0 .2-.1.4-.1.7-.3 1.7-.7 3.4-1 5.2-.1.3-.1.7-.2 1l-1.7 9.1-.2.8c-.9 4.5-1.7 9-2.6 13.6l-4.7 24.2c0 .2-.1.3-.1.5l-.8 4.3v.4c-.3 1.4-.5 2.9-.8 4.3v.4l-1.8 9.3c0 .3-.1.6-.2.8-.2 1.2-.5 2.5-.7 3.7-.1.4-.2.8-.2 1.2l-.6 3.3-.3 1.5c-.2 1.1-.4 2.2-.6 3.2-.1.5-.2.9-.3 1.4l-.8 4.5c-.3 1.6-.6 3.2-.9 4.7v.2l-.2.8c-.2 1.2-.4 2.4-.7 3.6l-.1.6c-.1.3-.1.7-.2 1-.2 1-.4 2-.5 3-.1.5-.2.9-.3 1.4v.2c-.2 1.1-.4 2.1-.6 3.2-.1.5-.2 1-.3 1.6-.2 1.1-.4 2.3-.6 3.4l-.2 1.1v.1l-.8 4.6-.1.4c0 .2-.1.5-.1.8l-.6 3.5c-.1.5-.2 1.1-.3 1.6-.2 1-.4 2-.6 3.1v.1l-.3 1.7c-.2 1-.3 2-.5 2.9-.1.6-.2 1.2-.3 1.7-.2 1-.4 2.1-.5 3.1 0 .3-.1.6-.2 1s-.1.4-.1.6l-.8 4.6-.9 5.1c0 .2-.1.4-.1.6-.8 4-1.6 8.1-2.5 12.3 0 .2-.1.3-.1.5-.3 1.5-.6 2.9-1 4.4-.1.4-.2.7-.2 1.1-.4 1.7-.8 3.5-1.2 5.3-.1.5-.2 1-.4 1.6l-.4 1.8c-30.5-27.5-75.8-60.5-101.1-71.9 35.3-53.3 46-66.9 80-108.7 18.9-23.2 46.7-54.7 69.5-80.3-.4 1.2-.6 2.3-.8 3.4z"/><path fill="none" d="M1144.1 1165l-1.5-3 1.5 3zm-328.4 71.3c25.3 11.4 70.6 44.4 101.1 71.9l.4-1.8c.1-.5.2-1.1.4-1.6.4-1.8.8-3.5 1.2-5.3.1-.4.2-.7.2-1.1.3-1.5.6-2.9 1-4.4 0-.2.1-.3.1-.5.9-4.2 1.7-8.3 2.5-12.3 0-.2.1-.4.1-.6l.9-5.1.8-4.6c0-.2.1-.4.1-.6s.1-.6.2-1c.2-1 .4-2.1.5-3.1.1-.6.2-1.2.3-1.7.2-1 .3-2 .5-2.9l.3-1.7v-.1c.2-1 .4-2.1.6-3.1.1-.5.2-1.1.3-1.6l.6-3.5c0-.2.1-.5.1-.8l.1-.4.8-4.6v-.1l.2-1.1c.2-1.1.4-2.3.6-3.4.1-.5.2-1 .3-1.6.2-1 .4-2.1.6-3.2v-.2c.1-.5.2-.9.3-1.4.2-1 .4-2 .5-3 .1-.3.1-.7.2-1l.1-.6c.2-1.2.4-2.4.7-3.6l.2-.8v-.2c.3-1.6.6-3.2.9-4.7l.8-4.5c.1-.4.2-.9.3-1.4.2-1.1.4-2.2.6-3.2l.3-1.5.6-3.3c.1-.4.2-.8.2-1.2.2-1.2.5-2.5.7-3.7 0-.3.1-.6.2-.8l1.8-9.3v-.4c.3-1.4.5-2.9.8-4.3v-.4l.8-4.3c0-.2.1-.3.1-.5 1.6-8.2 3.1-16.3 4.7-24.2.9-4.6 1.8-9.2 2.6-13.6l.2-.8 1.7-9.1c.1-.3.1-.7.2-1 .3-1.7.7-3.5 1-5.2 0-.2.1-.4.1-.7l.1-.6v-.3c.3-1.4.5-2.8.8-4.2l.1-.5c.3-1.4.5-2.8.8-4.2v-.2c.3-1.5.6-3.1.9-4.6v-.1c.1-.3.1-.7.2-1.1.2-.8.3-1.7.5-2.5v-.1l.5-2.4c.3-1.7.6-3.4.9-5 .5-3 1.1-5.9 1.6-8.8.1-.4.2-.8.2-1.3.1-.7.2-1.4.4-2.2.1-.3.1-.6.2-.9.7-4 1.4-7.8 2-11.6 0-.2.1-.4.1-.6.1-.5.2-1 .2-1.5v-.2l.6-3.3c.1-.4.1-.8.2-1.2.1-.4.2-.9.2-1.3.1-.5.2-1 .3-1.6l.6-3.9v-.2c.2-1.4.5-2.9.7-4.3 0-.3.1-.6.1-.8.3-2 .6-3.9.9-5.8.1-.4.1-.9.2-1.3v-.2c.2-1.1.3-2.2.5-3.3-22.8 25.6-50.6 57.1-69.5 80.3-33.7 41.7-44.4 55.3-79.7 108.6z"/><path fill="#282828" d="M1346.4 1130.1zm7.5-24c-.2 1-.4 1.9-.7 2.8.2-.9.5-1.9.7-2.8zm-.8 3.2c-.3 1.1-.5 2.1-.8 3.2.3-1 .6-2.1.8-3.2zm-8.4 24.8l-.5 1.1.5-1.1zm1.5-3.4c-.1.2-.2.5-.3.7.1-.3.2-.5.3-.7zm-13.6 23.6l.3-.3-.3.3zm22.1-51.7c.2-.8.3-1.6.5-2.4-.2.8-.4 1.6-.5 2.4zm-11.4 34.6l-.2.4.2-.4zm4.6-10.8l.3-.9-.3.9zm2.9-8.8zm-14.7 32l-.4.6.4-.6zm6.5-10.9l-.7 1.3.7-1.3zm-7.8 12.8l-.1.2.1-.2zm4-6c-.1.1-.2.3-.3.4l.3-.4zm.8-1.3l-.1.2.1-.2zm-2.1 3.4l-.5.8.5-.8zm3.5-6l-.3.6.3-.6z"/><path fill="#494949" d="M1338.2 1146.4c-.2.4-.5.8-.7 1.2.3-.5.7-1.1 1-1.7l-.3.5zm4.4-7.7l.5-1-.5 1zm-6.5 10.9l.8-1.2-.8 1.2zm4-6.3l-.5.8c.4-.6.7-1.3 1.1-2-.2.5-.4.9-.6 1.2zm-1.3 2.2l.7-1.2-.7 1.2zm2.5-4.4l-.3.6c.3-.6.6-1.1.9-1.7-.2.3-.4.7-.6 1.1zm-188 30.3l-.1-.2.1.2zm181.5-19.9c.3-.4.7-.9 1-1.3-.4.4-.7.9-1 1.3zm-1.9 2.5c.6-.7 1.2-1.5 1.8-2.3-.6.8-1.2 1.5-1.8 2.3zm16.6-32.4c.4-1.3.9-2.7 1.3-4-.4 1.4-.8 2.7-1.3 4zm3.6-12.3c0-.1.1-.2.1-.3 0 .1-.1.2-.1.3zm.8-3.3c.3-1.2.5-2.3.8-3.5-.3 1.3-.5 2.4-.8 3.5zm-5.7 19.5c.5-1.3.9-2.6 1.4-3.9-.5 1.4-1 2.6-1.4 3.9zm6.9-25.3c.1-.3.1-.7.2-1 0 .3-.1.7-.2 1zm-9.8 32.5l-.4.8-.3.6c.4-.9.8-1.8 1.2-2.8l-.5 1.4zm-1.5 3.5l-.5 1c.3-.7.6-1.3.9-2l-.4 1zm2.4-5.6c.1-.2.2-.3.2-.5-.1.2-.1.4-.2.5zm.2-.5c.5-1.2 1-2.4 1.4-3.7-.4 1.3-.9 2.5-1.4 3.7z"/><path fill="#494949" d="M1156.5 1175.3l1.8 2.2c.2.2.4.5.6.7l1.8 2.1c.2.2.4.5.6.7l1.9 2.2c.1.2.3.3.4.5 3 3.5 6.2 7 9.4 10.5.1.2.3.3.4.4.7.8 1.5 1.6 2.2 2.4l.5.5 2.3 2.4.3.3c3.5 3.7 7.1 7.3 10.8 11 .9.9 1.8 1.7 2.7 2.6l.3.3c.9.9 1.8 1.7 2.7 2.6l.2.2c4.8 4.6 9.7 9 14.7 13.4l.1.1 3 2.6.1.1c6.2 5.2 12.5 10.3 19 15.1 20.6 15.3 42.7 27.9 65.1 35.1h.1c6.9 2.2 14 3.9 21.2 5.1h.3c1.1.2 2.3.3 3.4.5h.1c4.7.6 9.5.9 14.2.9 20.1-6.7 29.4-26.9 34.1-58.1s-9.8-92.7-15.5-133.8c-.1.3-.1.7-.2 1s-.1.7-.2 1c-.2.8-.3 1.6-.5 2.4-.2 1.2-.5 2.3-.8 3.5-.2 1-.4 1.9-.7 2.8 0 .1-.1.3-.1.4-.3 1.1-.5 2.1-.8 3.2l-1.2 4.2c-.1.3-.2.6-.3 1-.4 1.3-.8 2.7-1.3 4-.4 1.3-.9 2.6-1.4 3.9l-.3.9c-.5 1.2-.9 2.5-1.4 3.7-.1.2-.2.3-.2.5-.1.2-.2.5-.3.7-.4 1-.8 1.9-1.2 2.8l-.5 1.1c-.3.7-.6 1.3-.9 2l-.2.4-.5 1-.7 1.3c-.3.6-.6 1.1-.9 1.7l-.3.6c-.4.7-.7 1.3-1.1 2l-.1.2-.7 1.2-.2.4c-.3.6-.7 1.1-1 1.7l-.5.8-.8 1.2-.4.6c-.3.4-.6.9-1 1.3l-.1.1c-.6.8-1.2 1.5-1.8 2.3l-.3.3-1.8 2.1c-3.9 9.7-8 19.6-11.2 26.9-6.8 15.3-20.8 28.5-49.1 27.2-26.6-1.2-55.4-29.3-83.5-59-34.9-36.9-67.8-78.8-84.3-103.2 13.8 30.8 27.5 68.1 39.1 108.6l1.4 1.9.7.9c.5.6.9 1.2 1.4 1.8.2.3.5.6.7.9.5.6 1 1.2 1.4 1.8l.7.9c.5.6 1 1.3 1.5 1.9l.5.7c.9 1.2 1.9 2.3 2.8 3.5l.1.2c1 1.2 1.9 2.3 2.9 3.5l.8.6z"/><path fill="#99C7C9" d="M1135.3 1135.3c11.2 6.7 22.3 11.3 27 7.2 6-5.2-6.6-21.1-23.6-36.6-8.2-7.4-14.1-12.5-18.7-15.1 5.4 14.1 10.5 29 15.3 44.5zm48.2 36.7c-7.7 8.7 11.5 30.5 19 38.5s25.8 20.8 34 12c7.5-8-14-30.5-22.5-38.5s-23-20.5-30.5-12zm93 69c6.8 22.7 25 31.5 39.5 32s31-9.5 27.5-28.5-26.5-33-43-30c-17.8 3.2-27 16.5-24 26.5zm77.2-134.8c.2-1.7-3.6 14.9-3.5 13.4-1.2 3.7-2.4 7.2-3.8 10.6-.1.2-.2.3-.2.5-.3.7-.6 1.4-.9 2l-.4.8c-.2.6-.5 1.1-.8 1.7l-.4 1c-.2.5-.5 1-.7 1.5l-.5 1-.7 1.3c-.2.4-.4.7-.6 1.1l-.6 1.2c-.2.4-.4.8-.6 1.1l-.6 1-.7 1.2-.6.9-.6 1c-3 14.6.8 30.2 8.1 30.2 15.9 0 5.4-50.2 8.1-71.5z"/><path fill="none" d="M916.8 1308.3c.1-.6.3-1.2.4-1.8v-.1c.1-.5.2-1.1.4-1.6.4-1.8.8-3.5 1.2-5.3.1-.4.2-.8.2-1.1.3-1.5.6-2.9 1-4.4 0-.2.1-.4.1-.5.1-.3.2-.7.2-1 .4-1.7.7-3.5 1.1-5.2l.1-.6c.3-1.6.6-3.1.9-4.7l.2-.8c0-.2.1-.4.1-.6l.9-5.1c.3-1.7.6-3.5.9-5.2.1-.3.1-.6.2-.9l1.7-9.4v-.1l1.5-8.2v-.1l.1-.6.9-5v-.1l.8-4.6.3-1.5v-.1c.2-1.1.4-2.2.6-3.4.1-.4.2-.9.2-1.4.2-1 .4-2 .5-3v-.1l.2-1c.3-1.4.5-2.8.8-4.2v-.1c0-.2.1-.5.1-.7l1.8-9.5c.1-.4.2-.9.2-1.3.2-1.1.4-2.2.6-3.2v-.1c.1-.5.2-.9.3-1.4v-.1c1.2-6.2 2.3-12.3 3.5-18.4v-.2c.3-1.5.6-3 .8-4.5v-.2l5.6-29.1c.9-4.6 1.8-9.2 2.6-13.6l.2-.8c.3-1.6.6-3.3.9-4.9l.1-.5.6-3.3.1-.5.2-1.1c.1-.7.3-1.4.4-2.1 0-.3.1-.6.2-.8l.4-2.2c0-.2.1-.4.1-.7s.1-.4.1-.6l.1-.4c.3-1.4.5-2.8.8-4.2l.1-.5c.3-1.4.5-2.8.8-4.2v-.2c.1-.3.1-.6.2-.9.2-.8.3-1.6.5-2.4l.2-1.3.2-1.1.2-1.3c.1-.4.2-.8.2-1.2.2-.8.3-1.7.5-2.5l.2-1.1c.2-1.3.5-2.6.7-3.9.2-1.3.5-2.6.7-3.8l.3-1.5c.1-.6.2-1.3.3-1.9s.2-1 .3-1.6l.2-1.3c0-.2.1-.4.1-.6.1-.5.2-1 .3-1.6 0-.3.1-.6.2-.9s.1-.6.2-1l.3-1.5.3-1.8.3-1.7c.2-1 .3-1.9.5-2.8.1-.6.2-1.1.3-1.7l.2-1.1c0-.2.1-.4.1-.6.1-.5.2-1 .2-1.5v-.2c.1-.5.2-1 .2-1.4s.2-.9.2-1.4c0-.2 0-.3.1-.5.1-.4.1-.8.2-1.2s.2-.9.2-1.3.2-1.1.3-1.6l.2-1.4c.1-.8.3-1.6.4-2.4v-.2c.1-.5.2-1 .2-1.5s.1-.9.2-1.4.2-1 .2-1.4c0-.3.1-.6.1-.8s0-.3.1-.5l.2-1.4c.1-.4.1-.9.2-1.3s.1-.9.2-1.3.1-.9.2-1.3.1-.9.2-1.3v-.2c0-.3.1-.6.1-1l.3-2.1v-.2c-22.8 25.6-50.6 57.1-69.5 80.3-34 41.7-44.7 55.3-80 108.7 25.3 11.4 70.6 44.4 101.1 71.9l.6.1z"/><path fill="#282828" d="M960.9 1074.7v.2-.2zm1.9-11.5v.2-.2zm1.9-12.6v.2-.2zm-3 19.6c-.1.4-.1.8-.2 1.2 0-.4.1-.8.2-1.2zm1.9-12.1c0 .3-.1.6-.1.8 0-.3.1-.6.1-.8zm-1.4 9.2c-.1.5-.2 1.1-.3 1.6.1-.6.2-1.1.3-1.6zm-9 50.1v.2-.2zm1.1-5.7l-.2 1.1v-.1c0-.3.1-.7.2-1zm6.3-35.3c0 .2-.1.4-.1.6 0-.2.1-.4.1-.6zm-9.1 50.1l-.1.4v-.2l.1-.2zm7-37.9c0 .3-.1.6-.2.9.1-.3.1-.6.2-.9zm-.5 3.1l-.2 1.3c0-.5.1-.9.2-1.3zm-2.8 15c-.2.8-.3 1.6-.5 2.5v-.1l.5-2.4zm203 116.4c.4 1.9.8 3.7 1.1 5.6-.4-1.9-.7-3.7-1.1-5.6zm7.1 39.4c.3 2.1.7 4.2 1 6.3-.3-2.1-.6-4.2-1-6.3zm-213-140.2l.1-.5-.1.5zm-4.2 21.9l.2-.8-.2.8zm-17.2 90.8c.2-1 .4-2 .5-3-.2 1-.4 2-.5 3zm3.7-19.8c.2-1.1.4-2.2.6-3.2-.2 1-.4 2.1-.6 3.2zm229.7 41c.2 1.4.5 2.9.7 4.3-.2-1.5-.4-2.9-.7-4.3zm-2.2-12.7c.2 1.3.5 2.7.7 4-.2-1.4-.4-2.7-.7-4zm-210.8-116.1c0 .2-.1.4-.1.7 0-.2.1-.4.1-.7zm202.5 75.9c1.5 6.4 2.9 12.8 4.2 19.2-1.3-6.5-2.7-12.9-4.2-19.2zm5.8 27l.9 4.5c-.3-1.4-.6-2.9-.9-4.5zm-7.3-33.3zm8.6 40c.3 1.4.5 2.8.8 4.1-.3-1.3-.5-2.7-.8-4.1zm-11.7-52.8c.5 1.9 1 3.8 1.4 5.7-.4-1.9-.9-3.8-1.4-5.7zM832 1564.8c.1-.2.2-.5.3-.8-.3.9-.6 1.7-.9 2.5.1-.2.1-.4.2-.6.1-.4.2-.8.4-1.1zm-.7 1.7c-.1.4-.3.8-.4 1.1l.1-.3c.1-.2.2-.5.3-.8zm-2.1 6.3l.2-.8-.2.8zm321.6-382.1c.4 1.8.9 3.7 1.3 5.5-.4-1.9-.8-3.7-1.3-5.5zm-320.5 378.8l-.3.9v-.1c.1-.2.2-.5.3-.8zm.2-.4c.1-.4.3-.8.4-1.2-.2.4-.3.8-.4 1.2zm-1.4 4l-.3.9.3-.9zm-.7 2.5l.2-.7-.2.7zm121.8-442.3l-.2 1.1c.1-.4.1-.8.2-1.1zm-120.3 437.4l-.4 1.3c0-.1 0-.2.1-.2.1-.4.2-.7.3-1.1zm-1.5 4.9l-1 2.7 1-2.7zm89.2-270.7c-.1.5-.2 1.1-.4 1.6.1-.6.2-1.1.4-1.6zm-88.7 269.2c-.1.2-.1.5-.2.7v-.1c0-.2.1-.4.2-.6zm4-11.8l.4-1c-.3.9-.6 1.8-.9 2.6l.3-.8c0-.3.1-.6.2-.8zm106.9-375c-.3 1.5-.6 3-.8 4.5v-.1c.3-1.5.6-2.9.8-4.4zM919 1298.5c-.1.4-.2.7-.2 1.1 0-.4.1-.7.2-1.1zm11.6-62.1c-.2 1.1-.4 2.2-.6 3.4.2-1 .4-2.1.6-3.2v-.2zm-.9 4.9l-.8 4.6.2-1.1c.2-1.2.4-2.3.6-3.5zm3.8-20.2l.8-4.5-1.8 9.5v-.2c.4-1.7.7-3.2 1-4.8zm-4.6 24.9l-.9 5 .1-.4.8-4.6zm3.5-19.2c-.2 1.4-.5 2.8-.8 4.2l.1-.6c.3-1.2.5-2.4.7-3.6zm3.9-20.9c.2-1.2.5-2.5.7-3.7 0-.3.1-.6.2-.8l1.8-9.3c-1.2 6.1-2.3 12.2-3.5 18.4l.6-3.3c.1-.5.1-.9.2-1.3zm-16.2 87.7c0 .2-.1.3-.1.5 0-.2 0-.3.1-.5zm5.4-29c.2-1 .3-2 .5-2.9l.3-1.7-1.7 9.4c.2-1 .4-2.1.5-3.1.2-.6.3-1.1.4-1.7zm-1 5.8c-.3 1.7-.6 3.5-.9 5.2l.8-4.6c0-.2.1-.4.1-.6zm16.2-87.8c0-.2.1-.3.1-.5 1.6-8.2 3.1-16.3 4.7-24.2l-5.6 29.1v-.1l.8-4.3zm-18 98.1c0 .2-.1.4-.1.6-.1-.2 0-.4.1-.6zm4.5-25.5l.6-3.5-1.5 8.2c.2-1 .4-2.1.6-3.1.1-.5.2-1 .3-1.6zm32.4 90l-.7-.7.7.7z"/><path fill="none" d="M815.7 1236.3c25.3 11.4 70.6 44.4 101.1 71.9l.4-1.8c.1-.5.2-1.1.4-1.6.4-1.8.8-3.5 1.2-5.3.1-.4.2-.7.2-1.1.3-1.5.6-2.9 1-4.4 0-.2.1-.3.1-.5.9-4.2 1.7-8.3 2.5-12.3 0-.2.1-.4.1-.6l.9-5.1.8-4.6c0-.2.1-.4.1-.6s.1-.6.2-1c.2-1 .4-2.1.5-3.1.1-.6.2-1.2.3-1.7.2-1 .3-2 .5-2.9l.3-1.7v-.1c.2-1 .4-2.1.6-3.1.1-.5.2-1.1.3-1.6l.6-3.5c0-.2.1-.5.1-.8l.1-.4.8-4.6v-.1l.2-1.1c.2-1.1.4-2.3.6-3.4.1-.5.2-1 .3-1.6.2-1 .4-2.1.6-3.2v-.2c.1-.5.2-.9.3-1.4.2-1 .4-2 .5-3 .1-.3.1-.7.2-1l.1-.6c.2-1.2.4-2.4.7-3.6l.2-.8v-.2c.3-1.6.6-3.2.9-4.7l.8-4.5c.1-.4.2-.9.3-1.4.2-1.1.4-2.2.6-3.2l.3-1.5.6-3.3c.1-.4.2-.8.2-1.2.2-1.2.5-2.5.7-3.7 0-.3.1-.6.2-.8l1.8-9.3v-.4c.3-1.4.5-2.9.8-4.3v-.4l.8-4.3c0-.2.1-.3.1-.5 1.6-8.2 3.1-16.3 4.7-24.2.9-4.6 1.8-9.2 2.6-13.6l.2-.8 1.7-9.1c.1-.3.1-.7.2-1 .3-1.7.7-3.5 1-5.2 0-.2.1-.4.1-.7l.1-.6v-.3c.3-1.4.5-2.8.8-4.2l.1-.5c.3-1.4.5-2.8.8-4.2v-.2c.3-1.5.6-3.1.9-4.6v-.1c.1-.3.1-.7.2-1.1.2-.8.3-1.7.5-2.5v-.1l.5-2.4c.3-1.7.6-3.4.9-5 .5-3 1.1-5.9 1.6-8.8.1-.4.2-.8.2-1.3.1-.7.2-1.4.4-2.2.1-.3.1-.6.2-.9.7-4 1.4-7.8 2-11.6 0-.2.1-.4.1-.6.1-.5.2-1 .2-1.5v-.2l.6-3.3c.1-.4.1-.8.2-1.2.1-.4.2-.9.2-1.3.1-.5.2-1 .3-1.6l.6-3.9v-.2c.2-1.4.5-2.9.7-4.3 0-.3.1-.6.1-.8.3-2 .6-3.9.9-5.8.1-.4.1-.9.2-1.3v-.2c.2-1.1.3-2.2.5-3.3-22.8 25.6-50.6 57.1-69.5 80.3-33.7 41.7-44.4 55.3-79.7 108.6zm328.4-71.3l-1.5-3 1.5 3z"/><path fill="#282828" d="M753.5 1425l1.6-.8-1.6.8zm-2.5 1.4l1.6-.9-1.6.9zm-2.7 1.5l1.7-1c-.6.4-1.1.7-1.7 1zm-2.7 1.6l1.8-1-1.8 1zm10.5-5.8l1.5-.8-1.5.8zm2.5-1.3l1.5-.7-1.5.7zm-15.8 8.7l2-1.2-2 1.2zm405.4-265.9c.5.6 1 1.3 1.5 1.9l.5.7c.9 1.2 1.9 2.3 2.8 3.5-2-2.4-3.9-4.8-5.8-7.2l.1.2.9.9zm-2.1-2.8c.3.4.7.8 1 1.2l-2.2-2.8c.2.2.3.4.5.6s.4.7.7 1zm.9 1.3l.3.4-.3-.4zm-386 257.5l1.4-.7-1.4.7zm382.9-261.5l.3.4c-.8-1-1.6-2.1-2.4-3.1.5.6.9 1.2 1.4 1.8l.7.9zm-404.3 273.4c.8-.5 1.7-1.1 2.6-1.6-.9.5-1.7 1-2.6 1.6zm404.7-273l.6.8-.6-.8zM769.7 1417l1.2-.6-1.2.6zm-4.2 1.9l1.3-.6-1.3.6zm2.2-1l1.2-.6-1.2.6zm3.8-1.8l1.2-.6-1.2.6zm1.7-.7l1.5-.7-1.5.7zm-9.9 4.6l1.3-.7-1.3.7z"/><path fill="#494949" d="M742.2 1431.5l.6-.4-.6.4zm28.6-15.1l.7-.3-.7.3zm-10.8 5.2l1-.5-1 .5zm-2.4 1.3l1-.5-1 .5zm15.1-7.3l.5-.2-.5.2zm-10.3 4.9l.9-.5-.9.5zm4.4-2.2l.8-.4-.8.4zm-11.7 5.9l1-.5-1 .5zm-2.5 1.3l1-.5-1 .5zm-2.6 1.4l1-.5-1 .5zm14.7-7.6l.9-.4-.9.4zm4.2-2l.8-.3-.8.3zm-24.1 12.6l.8-.5-.8.5zm2.6-1.5l.9-.5-.9.5zm64.3 21.6c17 11 49 37.3 55.7 30.3s-17.3-23.7-30-31.3c-11.5-7-42.8-24-64.2-35.3l1.6.9-1.5.7-.5.2-1.2.6-.7.3-1.2.6-.8.3-1.2.6-.8.4-1.3.6-.9.4-1.3.7-.9.5-1.4.7-1 .5-1.5.7-1 .5-1.5.8-1 .5-1.6.8-1 .5-1.6.9-1 .5-1.7 1-.9.5-1.8 1-.8.5-2 1.2-.6.4c-.9.5-1.7 1.1-2.6 1.6l-2.6 1.7c38.7-13.1 58.8 4.9 74.8 15.2z"/><path opacity=".3" fill="#091426" d="M1144.1 1165l-1.5-3c25.1 119 29.9 264 19.4 336-5.9 40.4-11.8 73.5-16.6 84.4-14.6-1.7-24.8-17.7-29.1-32.5-9.4-32.1-6.1-66.4-4.9-99.8 1.4-38.4.1-76.8-4-115-2.1-19.1-4.8-38.1-8.2-57-2.2-11.9-3.1-35.4-9.7-47.6-.2-1.2-.3-2.4-.4-3.5-8-63-28-158-43-215 9 46 18 123 25 248s-15.9 288.1-22.9 334.1c-1.1 7.3-2.2 13.3-3.4 18.5 4.3-.4 7.9-.8 10.9-1.3 2.2.3 4.3.4 6.5.2.7 0 1.4-.1 2.2-.2l1.8-.2h.4c1.6-.2 3.2-.5 4.9-.8l1.2-.3 1.1-.2 1.3-.3 1.2-.3 1.2-.3 2.4-.6 3-.8c10.9-3.1 23.2-7.5 34.5-12l2-.8 1.1-.4.6-.3.2-.1.8-.3.7-.3.4-.2 1-.4.9-.4 1.1-.4.8-.3.9-.4.4-.2.6-.2 1.1-.4.7-.3 1-.4.7-.3.1-.1 1.3-.6h.1l.3-.2 1.1-.5.5-.2 1-.4.6-.2.1-.1 1.1-.5.3-.1.2-.1 1-.4c.2-.1.3-.1.5-.2l1.1-.5.4-.2 1-.4.4-.2h.1l.9-.4c7.5-3.3 12.3-5.5 12.3-5.5s29.1-178.7 9.7-309.7c-.3-2.1-.6-4.2-1-6.3-.1-.7-.2-1.3-.3-2-.2-1.4-.5-2.9-.7-4.3-.1-.8-.3-1.6-.4-2.3-.2-1.3-.4-2.7-.7-4l-.4-2.4c-.2-1.3-.5-2.7-.7-4l-.4-2.3c-.3-1.4-.5-2.8-.8-4.1-.1-.7-.3-1.4-.4-2.1l-.9-4.5-.3-1.7c-.4-1.9-.8-3.7-1.1-5.6-.1-.2-.1-.4-.1-.6-1.3-6.4-2.7-12.8-4.2-19.2l-.2-.7c-.4-1.9-.9-3.8-1.3-5.6-.1-.3-.1-.6-.2-.8-.4-1.8-.9-3.7-1.3-5.5-.1-.3-.1-.5-.2-.8-.5-1.9-.9-3.8-1.4-5.7l-.1-.5c-1.6-6.1-3.2-12.2-4.8-18.2l-.1-.4-.4-.3zm313.7-38.4l-6.4-2.6-.3-.1c-4.5-1.9-15.2 20.4-16.8 23.8-2.5 5.3-4.9 10.3-7.3 15.4-2.5 5.3-5.3 10.5-8.4 15.5-3.9 6.1-8 12.3-13.8 16.6-7.2 5.3-14.6 4.9-22.9 3.6-9.5-1.5-13.5-1.1-21.6 4.3-6.4 4.3-19 10.4-26.8 11.8-11.1 2.1-22.5 1.7-33.8 1.3-14.9-.5-30.1-1.1-44-6.2-10.3-3.8-11.6-3.4-20.7-9.6-20-13.4-36.9-33.1-53.3-50.7-29.3-31.2-64.7-100-101.3-142 14.8 32 49.1 105.9 61.5 149.3 40.8 53.6 119.9 134 196.3 133.2 1.4 0 2.8-.1 4.2-.1.5 0 .9-.1 1.4-.1.9 0 1.9-.1 2.8-.2.6 0 1.1-.1 1.6-.2.8-.1 1.7-.2 2.5-.3l1.7-.2 2.4-.3 1.7-.3c.8-.1 1.6-.3 2.3-.4l1.7-.3c.8-.2 1.5-.3 2.3-.5l1.7-.4 2.3-.6 1.7-.4 2.3-.7 1.6-.5c.8-.2 1.6-.5 2.4-.8.5-.2 1-.3 1.5-.5.8-.3 1.7-.6 2.5-.9l1.3-.5c.9-.3 1.8-.7 2.7-1.1.3-.1.7-.3 1-.4 1.1-.4 2.2-.9 3.3-1.4l.4-.2c3.8-1.7 7.5-3.6 11.2-5.6l.2-.1c1.2-.6 2.3-1.3 3.4-2l.4-.2c1.1-.6 2.1-1.3 3.1-1.9l.5-.3c1-.7 2-1.3 3-2l.5-.3 3-2.1.4-.3c1-.7 2.1-1.4 3.1-2.2l.3-.2c1.1-.8 2.1-1.6 3.2-2.4l.1-.1c12.2-9.5 23.5-20.1 33.7-31.7 25.3-28.6 43.5-60.3 53.3-79.9-4.3-2.4-21.6-9.7-49.1-21zm-303.3-214.1l-1.8.9 1.8-.9zm-5 2.3l-1.8.8 1.8-.8zm-101 7.2c-39 2-73 31-113 31-88.7 0-163.9-28.3-205.4-62.3-.4-.2-.8-.5-1.1-.7-46-31-50.3-58.2-58-72-11.4-20.4.5-42.1-12.9-50.4-31.5-19.5-94-198.5-27-307.5 8.4-13.6 29.2-26 40.9-37.5 9-8.9 8.3-17.2 18.9-24.8 85.3-61 215.8-81.9 286.7-57.8-65-22-82.6-27.1-69.6-38.1 12.3-10.4 133.7-3.8 162.2 14-30.4-22.7-25.9-41.2-147.5-46.1H917c-139 2-299.2 118.9-327 173-37 72-52 126-19 257 25.2 100.2 95.9 212 246 251 46.2 12 101.8 14.1 163 9 57.8-4.8 114.3-19.7 166.9-44-49.7 14.5-75.2 5-98.4 6.2zm124.9-19.3l.6-.3-.6.3zm-14.1 7.4l-1.5.8 1.5-.8zm10.7-5.6l-1.2.6 1.2-.6zm-6 3.2l-.2.1.2-.1zm-2.3 333.4l.4 2.3-.4-2.3z"/><path opacity=".3" fill="#091426" d="M1158 1222.5c0 .2.1.4.1.6 0-.2 0-.4-.1-.6zm1.3 6.2l.3 1.7-.3-1.7zm1.2 6.2c.1.7.3 1.4.4 2.1-.1-.7-.2-1.4-.4-2.1zm2.3 12.5l.4 2.4-.4-2.4zm1.1 6.4c.1.8.3 1.6.4 2.3-.1-.7-.2-1.5-.4-2.3zm-10.2-51.2l.2.7-.2-.7zm11.3 57.9c.1.7.2 1.3.3 2-.1-.7-.2-1.4-.3-2zm-15.9-76.8l.1.5-.1-.5zm1.5 6.2c.1.3.1.5.2.8-.1-.3-.1-.6-.2-.8zm-216.1 25.3c-.1.4-.2.9-.2 1.3.1-.4.2-.9.2-1.3zm-2.1 11.5l.2-.7c-.1.3-.2.5-.2.7zm32.1-174.5c.1-.4.1-.9.2-1.3-.1.4-.1.9-.2 1.3zM931.4 1232c.1-.3.1-.6.2-.9l-.2.9zm4-21.5c-.1.5-.2.9-.3 1.4v.1c.2-.6.3-1.1.3-1.5zm-12.7 70.2l.9-5.1-.9 5.1zm-.3 1.4c-.3 1.6-.6 3.1-.9 4.7l-.1.6c-.3 1.7-.7 3.5-1.1 5.2-.1.3-.2.7-.2 1 .9-4.2 1.7-8.3 2.5-12.3l-.2.8zm40.9-221.8c-.1.4-.2.9-.2 1.4s-.2 1-.2 1.5c.2-1.4.5-2.9.7-4.3-.2.5-.2.9-.3 1.4zm-5.2 30.8c0 .2-.1.4-.1.6.1-.7.2-1.4.4-2.2-.2.5-.2 1-.3 1.6zM938.9 1192v-.3.3zm18.5-97.5c-.1.6-.2 1.3-.3 1.9l-.3 1.5c-.2 1.3-.5 2.5-.7 3.8.5-3 1.1-5.9 1.6-8.8-.1.6-.2 1.1-.3 1.6zM928.8 1246v-.1.1zm-1 5.6v.1c0-.2.1-.5.1-.8l-.1.7zm3.1-16.6c-.1.5-.2.9-.2 1.4 0-.5.1-1 .2-1.4zm34.3-187.4l-.3 2.1c0 .3-.1.6-.1 1 .2-1.1.3-2.2.5-3.3s-.1.1-.1.2zM930 1239.8l-.3 1.5.3-1.5zm-5.3 29.6c-.1.3-.1.6-.2.9 0-.2.1-.6.2-.9zm-5.7 29.1c.3-1.5.6-2.9 1-4.4-.3 1.5-.7 2.9-1 4.4zm45.3-245c-.1.4-.1.9-.2 1.3s-.1.9-.2 1.3l-.2 1.4c0 .2-.1.3-.1.5.3-2 .6-3.9.9-5.8-.1.4-.1.9-.2 1.3zm-11.9 68.3c.3-1.4.5-2.8.8-4.2-.3 1.4-.6 2.7-.8 4.2zm-35.6 186.5zm34.7-181.8c.3-1.4.5-2.8.8-4.2-.3 1.4-.6 2.8-.8 4.2zm2.3-12.4c-.2.8-.3 1.6-.5 2.4 0 .3-.1.6-.2.9.3-1.5.6-3.1.9-4.6l-.2 1.3zm6.5-36c-.1.6-.2 1.1-.3 1.7-.2.9-.3 1.9-.5 2.8l-.3 1.7-.3 1.8-.3 1.5c0 .3-.1.6-.2 1 .7-4 1.4-7.8 2-11.6l-.1 1.1zm.3-1.7c.1-.5.2-1 .2-1.5 0 .5-.1 1-.2 1.5zm-5.2 29.2l-.2 1.1c.3-1.7.6-3.4.9-5-.2 1.3-.5 2.6-.7 3.9zm-38.2 200.9c-.1.6-.3 1.2-.4 1.8l.4-1.8zm45.2-240.7l-.2 1.4.6-3.9c-.1.9-.3 1.7-.4 2.5zm-7.9 44.6l-.2 1.3c.2-.8.3-1.7.5-2.5l-.3 1.2zm7.2-40.2c.1-.4.2-.9.2-1.3-.1.4-.1.9-.2 1.3zm-16.2 87.7c.9-4.6 1.8-9.2 2.6-13.6-.9 4.5-1.7 9-2.6 13.6zm-5.7 29.4v-.3.3zm10.1-52.5l-.6 3.3-.1.5c-.3 1.6-.6 3.2-.9 4.9l1.7-9.1-.1.4zm.8-4.5c-.1.3-.1.6-.2.8-.1.7-.3 1.4-.4 2.1.3-1.7.7-3.5 1-5.2l-.4 2.3zm-33.1 174.6c.4-1.8.8-3.5 1.2-5.3-.4 1.7-.8 3.5-1.2 5.3zm33.7-177.5l.1-.6c0 .2-.1.4-.1.6zm10.1-55.5c-.1.5-.2.9-.2 1.4s-.2 1-.2 1.4l.6-3.3c-.2.2-.2.3-.2.5zm-132.6 502.2zm-.2.8v-.1.1zm2.7-8.4zm1-2.6zm-1.4 4c0-.1 0-.2.1-.2-.1 0-.1.1-.1.2zm2.5-7.1c-.1.2-.1.3-.2.5.1-.3.1-.4.2-.5zm-2.9 8.3l-.2.4.2-.4zm-1.3 3.7l-.1.3.1-.3zm.7-2.1c0-.1.1-.2.1-.3 0 .1 0 .2-.1.3z"/><path opacity=".3" fill="#091426" d="M994.3 1025s0-.1-.7-9.4c-7.1 8-17.2 19.2-28.4 31.8-.1 1.1-.3 2.2-.5 3.3v.2c-.1.4-.1.9-.2 1.3-.3 1.9-.6 3.8-.9 5.8 0 .3-.1.6-.1.8-.2 1.4-.4 2.8-.7 4.3v.2l-.6 3.9c-.1.5-.2 1-.3 1.6-.1.4-.2.9-.2 1.3-.1.4-.1.8-.2 1.2l-.6 3.3v.2c-.1.5-.2 1-.2 1.5 0 .2-.1.4-.1.6-.6 3.7-1.3 7.6-2 11.6 0 .3-.1.6-.2.9-.1.7-.3 1.4-.4 2.2-.1.4-.2.8-.2 1.3-.5 2.9-1 5.8-1.6 8.8-.3 1.7-.6 3.3-.9 5l-.5 2.4v.1c-.2.8-.3 1.6-.5 2.5-.1.4-.1.7-.2 1.1v.1c-.3 1.5-.6 3-.9 4.6v.2c-.3 1.4-.5 2.8-.8 4.2l-.1.5c-.3 1.4-.5 2.8-.8 4.2v.3l-.1.6c0 .2-.1.4-.1.7-.3 1.7-.7 3.4-1 5.2-.1.3-.1.7-.2 1l-1.7 9.1-.2.8c-.9 4.5-1.7 9-2.6 13.6l-4.7 24.2c0 .2-.1.3-.1.5l-.8 4.3v.4c-.3 1.4-.5 2.9-.8 4.3v.4l-1.8 9.3c0 .3-.1.6-.2.8-.2 1.2-.5 2.5-.7 3.7-.1.4-.2.8-.2 1.2l-.6 3.3-.3 1.5c-.2 1.1-.4 2.2-.6 3.2-.1.5-.2.9-.3 1.4l-.8 4.5c-.3 1.6-.6 3.2-.9 4.7v.2l-.2.8c-.2 1.2-.4 2.4-.7 3.6l-.1.6c-.1.3-.1.7-.2 1-.2 1-.4 2-.5 3-.1.5-.2.9-.3 1.4v.2c-.2 1.1-.4 2.1-.6 3.2-.1.5-.2 1-.3 1.6-.2 1.1-.4 2.3-.6 3.4l-.2 1.1v.1l-.8 4.6-.1.4c0 .2-.1.5-.1.8l-.6 3.5c-.1.5-.2 1.1-.3 1.6-.2 1-.4 2-.6 3.1v.1l-.3 1.7c-.2 1-.3 2-.5 2.9-.1.6-.2 1.2-.3 1.7-.2 1-.4 2.1-.5 3.1 0 .3-.1.6-.2 1s-.1.4-.1.6l-.8 4.6-.9 5.1c0 .2-.1.4-.1.6-.8 4-1.6 8.1-2.5 12.3 0 .2-.1.3-.1.5-.3 1.5-.6 2.9-1 4.4-.1.4-.2.7-.2 1.1-.4 1.7-.8 3.5-1.2 5.3-.1.5-.2 1-.4 1.6l-.4 1.8c5.8 5.2 11 10.2 15.5 14.9 6.5 3.9 15.4 10.7 24.7 19.5.6.6 1.3 1.2 1.9 1.8l.7.7c3.2 3.2 6.5 6.6 9.8 10.2 5.2-58.6 25.2-276.8 24.6-330.3z"/><path fill="none" d="M1144.1 1165l-1.5-3 1.5 3z"/><path opacity=".3" fill="#091426" d="M827.5 1578.2c1.5 1.2 3 2.3 4.5 3.4 10.7 7.4 21.6 10.9 35.1 12.7 12.4 1.5 24.9 2.3 37.4 2.4h1.6c1.2 1.6 2.7 3 4.5 4 6.5 4 18 6.6 32.5 8.5-1.7-4.6-4.5-13.5-3.5-28.9.1-1.9-.4-4.2-.5-7 9.6-3.4 25.6-8.8 32.4-16.7 20.7-24.1 32.2-62.7 27.1-90.2 3.2-6.6 5.4-13.6 6.5-20.9 4-28.2-9.2-56.1-26.2-78.5 1.1 5.6 2 11.2 2.4 16.9 4.2 50.9-25.3 102.3-70.2 126.6s-102.7 21.2-146.2-5.6c-17.4-10.7-33.1-27-33.7-48.5-6.4 11.4-7.9 23.6-8.6 36h1.1l.8-.1.3-.1.7-.2.4-.1c.2-.1.5-.1.7-.2l.5-.2.6-.3.6-.3c.2-.1.4-.2.5-.3s.5-.3.7-.5l.5-.3 1.2-.9c5.2 8.6 11.3 16.6 18 24.1 2.8 3.1 5.7 6.1 8.7 8.9 1 .9 2 1.9 3 2.8 9.9 8.9 20.9 16.4 32.8 22.4 2.3 1.2 4.7 2.3 7 3.3 10.4 4.6 21.3 8 32.5 10.1-.1.2-.1.3-.2.5l-.4 1c-.1.3-.2.5-.3.8l-.3.8v.1c-.1.2-.2.5-.3.8s-.3.8-.4 1.1c-.1.2-.1.4-.2.6v.1c-.1.3-.2.6-.3.8l-.1.3c0 .1-.1.2-.1.2-.2.4-.3.8-.4 1.2l-.2.4c-.1.3-.2.6-.3.8v.1c0 .1-.1.2-.1.3-.1.3-.2.7-.3 1 0 .1 0 .2-.1.2l-.2.8-.1.3-.3.8v.1c-.1.2-.1.4-.2.7v.2l-.2.7-.7 3zm90.4-33.3zm-143.2-130.2l-1.4.6 1.4-.6z"/><path opacity=".3" fill="#091426" d="M868.8 1446.2c-6.6-10.3-17.6-16.9-28.2-23.2l-49-28.9c-27-15.9-54.9-32.6-72.9-58.3s-34.2-68.7-14.6-93.2c-10.1 6-19.4 8.7-23.8 15.9-1.3 2.3-4.3 3.1-6.5 1.7-1.1-.7-1.9-1.7-2.3-3-1.1-4.6-.5-9 .8-15.2 2.7-13.6 14.7-31.2 23-42.2 32.4-42.5 54.2-51.5 97.5-85.4 14.5-11.3 55.4-33.9 67.3-47.9-63 40-162.7 101.7-193.1 147-39.8 59.2 1 111.7 35.9 147.6 20.9 21.5 48.8 40.2 71.6 53.7l-1.6-.9c21.3 11.3 52.6 28.3 64.2 35.3 12.7 7.7 36.7 24.3 30 31.3-1.2 1.2-3.1 1.4-5.6.9 14.8 4.9 16.7-20.6 7.3-35.2zM762 1420.7l.3-.1-.3.1zm2.3-1.2l-.7.3.7-.3zm6.7-3.1l-.8.4.8-.4zm1.8-.8l-1 .4 1-.4zm-6.8 3.1l-.3.2.3-.2zm3.2-1.5l-.5.2.5-.2z"/><path opacity=".3" fill="#091426" d="M809 1232c2.8 1.2 5.2 2.3 7.5 3.1 34.7-52.3 45.5-66 79.2-107.4 22.8-28 58.5-68 82.8-95.1 15.9-16.2 15.9-18.5 21.6-32.3-44.5 43.7-90.5 87.4-131 134.8-29.5 34.4-65.8 71.3-107 90 12.5-2.1 35.2 1.9 46.9 6.9z"/><path opacity=".3" fill="#091426" d="M980.8 974.7c-18.7 12.2-43.3 37.5-75.7 62.1-12.4 9.4-36.4 24.4-64.8 42.4 1.1-.2 2.2-.4 3.2-.7 26.8-6.2 51.8-18.3 73.4-35.3 14-11.1 26.4-24.2 41.1-34.5s32.4-17.7 50.1-15.3c10.9 1.6 21.8 2.5 32.8 2.7 7.9 0 15.3-4 22.9-5.5 2.9 3 6 5.8 8.4 8.5 12.3 13.2 23.6 27.3 35.1 41.2 22.5 27 46.6 54.3 78.9 69.6 15.7 7.4 32.4 11.6 49.6 14.2-11.5-8.1-24.3-17.5-38.6-28-66.7-48.9-111.3-112.5-137.8-130.3-.4.4-.8.9-1.1 1.3-.3-.4-.6-.8-.9-1.1-8.1-9.4-3.1-15.3 3.5-19.4-23.1 5.9-46.6 10-70.3 12.5 3.9 3.3-3.2 9.5-9.8 15.6z"/><path opacity=".04" fill="#FFF" d="M653.2 843.2c-6.4-7.3-12.5-15-18.2-23-2.8.5-5.7 1.2-8.5 1.9 9.3 13.2 19.6 25.6 30.7 37.3 2.6-1.2 5.3-2.2 7.9-3.3-4.1-4.2-8-8.5-11.9-12.9zm642.3-66.8c-1.7 7.9-4.4 15.6-8 22.8 3.7-7.2 6.5-14.9 8.2-22.8h-.2zm-187 147c-41.6 15.3-85 24.9-129.1 28.6-20.5 1.7-40.2 2.6-58.5 2.6-38.5 0-72.8-3.8-101.8-11.3-55.4-14.4-103-39.7-141.8-75.5-2.6 1.2-5.2 2.5-7.7 3.8 37.3 34.9 85.6 63.3 147.5 79.4 30.8 8 65.8 11.6 103.8 11.6 19 0 38.8-.9 59.2-2.6 57.8-4.8 114.3-19.7 167-44-12.7 3.7-25.6 6.2-38.6 7.4zM616.4 807c2.9-.5 5.8-1 8.6-1.4-21.1-33.1-36.8-69.4-46.2-107.5-15.8-62.6-20.9-108.2-16.6-147.8 4.1-37.6 16.9-68.6 34.9-103.6 14-27.3 62.8-69.5 118.8-102.8 40.5-24.1 120.5-64.7 201.2-65.8 3.1 0 6.2-.1 9.2-.1 60.3 0 115.4 8.6 163.7 25.7 38.8 13.7 72.9 32.8 98.7 55.4 22.2 19.4 45.2 40.5 61.8 66.9 17.9 28.4 26.6 59.7 27.5 98.3 1 45.1-3.9 85.5-8.7 115.8-1.3 22.1-2.5 41.5-1.8 55.1.1 1.7.8 3.3 2.1 4.4 2.5 6.4 9 13.4 15.1 23.8l.8-.5c-7.5-13.2-15.8-20.9-16.4-28.7-1-13 19-83 17-170s-44-129-92-171c-46.9-41-134-83.1-267.7-83.1-3.1 0-6.2 0-9.3.1-139 2-299.2 118.9-327 173-37 72-52 126-19 257 9.3 37.6 24.6 73.7 45.3 106.8zm680.6-49c-1-8.4-3.1-16.7-6.3-24.6l-.8.4c3.4 8 5.6 16.5 6.5 25.2.2 1.8.3 3.7.3 5.5l.5-.1c.1-2.1 0-4.3-.2-6.4zm-337.4 587.2l-.7-.7.7.7zm1.4-5.2l5-38.5 5.1-38.5c3.4-25.7 6.7-51.4 9.9-77.1 1.6-12.9 3-25.7 4.5-38.6l2.1-19.3c.7-6.4 1.4-12.9 1.9-19.3l.9-9.7.4-4.8.3-4.8c.5-6.5 1-12.9 1.2-19.4.2-3.2.3-6.5.5-9.7s.2-6.5.3-9.7c.2-6.5.1-13-.1-19.5-3 25.8-6.1 51.4-8.9 77.1-1.4 12.8-2.8 25.7-4.3 38.6l-4.4 38.6c-2.9 25.7-6 51.4-9 77.1l-4.6 38.6-4.8 38.5-.3 2.7c.8.7 1.6 1.5 2.4 2.3l.7.7.7.7.5-6zm-50.3 260.7c2.6-10.5 5.1-21 7.6-31.5 2.3-9.5 4.5-18.9 6.7-28.4l-.3.2c-2.2 1.3-4.5 2.6-6.8 3.9-1.9 7.6-3.8 15.2-5.7 22.9-2.5 9.7-5 19.3-7.6 29h1.6c1.2 1.6 2.7 2.9 4.5 3.9z"/><path opacity=".04" fill="#FFF" d="M765.6 1224.7c8.7-1.3 17.5-.8 26 1.4s16.6 5.6 24.2 9.9c11.1 5.1 21.5 11.6 31.7 18.2s20.1 13.8 29.8 21.1 19.2 14.9 28.5 22.8 18.4 16 26.9 24.7l-.1-.1c4.5 2.8 8.8 5.8 12.8 9.1 4.1 3.3 8 6.7 11.9 10.3 7.6 7.2 14.7 15 21.2 23.2 6.5 8.3 12.1 17.1 16.9 26.5 4.8 9.4 8.2 19.4 10 29.8 1.9 10.4 1.5 21.1-1.1 31.4-2.7 10.2-7.6 19.7-13.4 28.4-5.9 8.7-12.6 16.8-20 24.2-7.4 7.5-15.3 14.4-23.6 20.7-8.3 6.3-17.1 12.1-26.2 17.3-9.1 5.2-18.6 9.7-28.5 13.3-4.9 1.8-10 3.3-15.1 4.4-5.1 1.2-10.4 1.9-15.6 2-10.5.3-21-.7-31.3-2.8-20.6-4.4-40.1-13-57.1-25.4-17-12.4-31.4-28-42.3-46v-.1c-.6-2.6-1.2-5.1-1.7-7.7-.6-2.6-.9-5.2-1.1-7.8-.1-2.6 0-5.3.5-7.9.5-2.6 1.2-5.1 2-7.6l.7.2c-1.4 5-2.3 10.2-1.8 15.2.3 2.6.7 5.1 1.4 7.6.6 2.5 1.2 5 1.9 7.6l-.2-.5c11.3 17.3 25.9 32.2 43 43.9 16.8 11.6 35.8 19.6 55.9 23.4 9.9 1.9 20 2.7 30.1 2.2 9.7-.3 19.4-3 28.8-6.5 9.5-3.6 18.6-8 27.4-13.2 8.8-5.1 17.3-10.9 25.3-17.1 8-6.2 15.6-13 22.7-20.2 7.1-7.2 13.5-15 19.1-23.3 5.5-8.1 9.7-17 12.5-26.4.6-2.3 1.1-4.6 1.4-6.9.3-2.4.5-4.8.6-7.1.1-4.8-.2-9.7-1-14.4-1.7-9.7-4.8-19.1-9.3-27.9-4.5-9-9.9-17.6-16-25.6-6.2-8.1-12.9-15.7-20.3-22.7-3.7-3.5-7.5-6.9-11.4-10.1-3.9-3.2-7.9-6.1-12.1-8.8l-.2-.1c-.3-.2-.6-.5-.9-.8-8.2-8.7-17-16.8-26.1-24.8-4.5-4-9.1-7.9-13.8-11.7l-14.1-11.4c-9.5-7.5-19.2-14.7-29.1-21.6-9.9-6.9-20-13.6-30.7-19l-.1-.1c-7.3-4.5-15.2-8-23.4-10.4-4.1-1.2-8.3-2.1-12.6-2.5-4.3-.5-8.6-.4-12.9.1l-.1-.4zm298.4 377.8l1.8-10c2.4-13.4 4.6-26.8 6.8-40.2l3-20.2c1-6.7 1.9-13.5 2.8-20.2 1.7-13.5 3.2-27 4.7-40.5s2.5-27.1 3.5-40.7 1.6-27.2 2-40.8.3-27.2.1-40.8-.7-27.2-1.5-40.8c-1.4-27.2-3.7-54.2-6.6-81.3s-6.6-53.9-10.7-80.8-8.6-53.6-13.4-80.3l-.8.1c4.3 26.8 8.3 53.6 11.8 80.5s6.6 53.8 9.1 80.8 4.4 54 5.4 81.1c.5 13.5.8 27.1.9 40.6s-.1 27.1-.7 40.6-1.4 27-2.6 40.4-2.7 26.9-4.3 40.4-3.2 26.9-5 40.3-3.6 26.8-5.4 40.3-3.8 26.8-5.8 40.2l-1.5 10.1-.8 5c-.3 1.6-.6 3.3-.9 4.9 2.2.3 4.3.4 6.5.2.3-1.3.6-2.6.8-3.8l.8-5.1z"/><path opacity=".04" fill="#FFF" d="M970 1047.4l-4.3-.6-.5.6c-3.3 24.6-10.3 61.5-18.4 103.8-5.5 30.9-11.8 64.4-18.6 98.6-1.6 8.6-3.1 17.2-4.6 25.8-1.8 10.3-4.1 21.3-6.8 32.7 1.6 1.4 3.1 2.8 4.6 4.2 21.3-100 39.8-204.9 48.6-265.1z"/><path fill="#FFC5AF" d="M1296.5 759c-4-33.8-22.2-47.8-26.9-59.6-1.2-1.1-2-2.7-2.1-4.4-2-38 11-121-1-184s-54-71-72-70c-24 1.3-91 82-171 83s-158-65-234-40-123 85-113 161 31 90 33 112c1.3 14.1-23.7 38.2-13 87 11 50 111 109 239 109 40 0 74-29 113-31 23.2-1.2 48.7 8.3 98.5-6 1.4-.4 2.9-.8 4.3-1.3 44.6-21.4 81-47.6 106.2-73.8 13.6-14.1 23.6-28.4 30.1-41.8 7.3-15 10.2-29 8.9-40.1z"/><path fill="#A34F3E" stroke="#8E4637" stroke-width="3" stroke-miterlimit="10" d="M1018.3 766.7c.6 8.9 18.8 8 27.9 6.8s19.6-8.1 19.3-11-7.1-12.5-26-10.2-21.2 14.4-21.2 14.4z"/><path opacity=".03" fill="#000D26" d="M1020.4 763.7c-1.9 1.5-1.4 4.2.5 5.8s4.6 2.2 7.2 2.6c11.9 2.2 25.1 2.8 35.8-2 .3-.1.6-.3.6-.5s-.5-.3-.6-.1c-11.4 8.3-25.4 11.9-40.7 10.6-4.7-.4-9.8-1.5-12.4-4.7-2.1-2.6-2-6.3.2-8.8 2.1-2.6 5.5-3.1 9.4-2.9zm237.1 77.3c12.3-12.8 21.7-25.8 28.2-38.1C1195 897.4 1136.1 903.3 1051 911c-88 8-32-4-114 6-76.2 9.3-173-9-242.5-85.5.4 4.2 1.1 8.3 2 12.5 11 50 111 109 239 109 40 0 74-29 113-31 23.9-1.2 50.1 8.9 102.8-7.2 44.6-21.4 81-47.6 106.2-73.8zm9-330c-12-63-54-71-72-70-22.8 1.3-84.3 74-158.8 82.2-5.1.2-10.2.5-15.2.8-78.9-.7-155.9-64.7-230.9-40-76 25-123 85-113 161s31 90 33 112c.1 1.2 0 2.3-.2 3.5.6-3.8 24.7-8.4 28-9.1 12.6-2.7 25.4-4.3 38.3-4.8 34.5-1.8 69.2 2.1 103 8.8 3.6.7 7.2 1.3 10.8 1.8l2.5 1 4.1 1c.9 0 1.7-.1 2.6-.1-.6-.3-1.3-.7-1.9-1.1 17.9 1.4 35.3-.6 51-8.1 35.5-10.2 71.5-24.7 104.3-22.7 49 3 49 20 75 14 4.1-1 8.3-3.1 12.8-6 9-3.2 16.9-9.5 24.2-15.8 2.3-2 4.6-3.9 6.8-5.9 21.6-13.5 51.1-25.3 96.6-18.3-2-38.2 11-121.2-1-184.2z"/><path fill="#282828" d="M667 806c-42-9-112 14-128 40-10 14 0 23 11 15s65.7-48 113.7-42c8 1 8.6-10.7 3.3-13zm8 46.3c-50.7 18-98 52.7-108.7 80.7-4.7 11.3 6.7 21.3 16.7 11.3s47.3-56 97.3-78c7.4-2.6 1.4-15.3-5.3-14z"/><path opacity=".3" fill="#091426" d="M664.3 815.7c-7.8.5-15.6.1-23.4.3-22.7.9-44.8 7.5-64.2 19.4-7.8 4.8-15.2 10.4-23.8 13.4-3.7 1.3-7.9 2.1-11.3.3-1.2-.7-2.2-1.7-2.8-2.9-9.7 13.9.2 22.8 11.2 14.8s65.7-48 113.7-42c3.8.5 6-1.9 6.6-4.8-1.9.9-3.9 1.5-6 1.5zM583 944.3c10-10 47.3-56 97.3-78 3.4-1.2 3.9-4.6 2.9-7.7-2.2 3-6.1 5.1-9.7 6.6-12.4 5.4-25.3 10.2-36.5 17.8-15.1 10.2-26.3 25.1-39.2 38-6.2 6.3-13.3 12.4-22.1 13.8-2.3.4-5.1.2-6.6-1.6-.8-1-1.3-2.2-1.5-3.4-.5 1.1-1 2.2-1.4 3.2-4.5 11.3 6.8 21.3 16.8 11.3z"/><path fill="#282828" d="M1391.9 778c-18.7-14.5-68.6-17.3-94.7-13.6-.1 4-.6 8.1-1.5 12 33.4-1.4 76.9 10.9 85.2 14.6 9 4 15-2 11-13zm-20-77c-11.6-2.7-57.7 5-86.6 21.7 2 3.4 3.7 7 5.3 10.7 25.4-12.8 64.2-15.4 79.3-14.4 16 1 15-15 2-18z"/><path opacity=".3" fill="#091426" d="M1391.9 778c-.2-.2-.4-.3-.6-.5-1.3 1.6-2.9 2.9-4.7 3.8-6.3 3.1-13.8 2.2-20.8 1-17.1-2.9-33.9-7.1-50.4-12.4-.8-.2-1.5-.5-2.2-1-2.4-1.9-1.6-3.9-.2-5.8-.7 0-1.3 0-2 .1-.9 0-1.8.1-2.8.2h-.5l-2.3.2h-.3c-.9.1-1.8.2-2.6.2h-.2l-2.3.2h-.3l-2.4.3c-.1 4-.6 8.1-1.5 12 1 0 2.1-.1 3.1-.1h3.3c6.6.1 13.2.5 19.8 1.3 7.8.9 15.5 2.2 22.7 3.6l3 .6c4 .8 7.8 1.7 11.4 2.6l2.5.6h.1l2.3.6h.2l2.2.6h.2l2.1.6h.1c1.4.4 2.7.8 3.9 1.2h.1l1.7.5h.2l1.5.5.2.1 1.3.4.2.1 1.1.4h.1l1 .4h.1l.8.3c8.9 4.4 14.9-1.6 10.9-12.6zm-20.3-59h1.3l.9-.1h.3l1-.2.2-.1c.3-.1.5-.1.8-.2l.3-.1c.2-.1.4-.1.6-.2l.3-.1c.2-.1.5-.2.7-.3h.1c.2-.1.5-.3.7-.5l.2-.2c.2-.1.3-.2.4-.4l.2-.2.4-.4.2-.2c.2-.2.3-.4.4-.6l.1-.1c.1-.2.2-.3.3-.5 0-.1.1-.1.1-.2.1-.1.1-.3.2-.5l.1-.2c.1-.2.1-.3.2-.5s0-.1 0-.2c.1-.2.1-.5.1-.7v-1.7c0-.1 0-.5-.1-.7v-.1c0-.2-.1-.4-.1-.6s0-.2-.1-.3-.1-.3-.2-.5c0-.1-.1-.2-.1-.3-.1-.2-.1-.3-.2-.5 0-.1-.1-.2-.1-.2s-.2-.5-.4-.7c0-.1-.1-.1-.1-.2l-.3-.5-.2-.3-.3-.4c-.1-.1-.1-.2-.2-.2s-.3-.3-.5-.5l-.1-.1c-2.1 2.1-4.5 3.9-7.1 5.4-6.2 3.5-13.3 5.3-20.3 6.6-14.6 2.8-29.5 3.9-44.3 3.3-1.3 0-2.5-.2-3.7-.6-1.5-.7-2.7-2-3.2-3.6-1.1.5-2.2.9-3.2 1.4l-1.1.5c-.7.3-1.3.6-2 .9l-1.3.7-1.7.8-1.4.7-1.6.8-1.4.8-.8.5c2 3.4 3.7 7 5.3 10.7l1.8-.9.7-.3c.6-.3 1.2-.5 1.7-.8l.8-.4c.6-.2 1.1-.5 1.7-.7l.9-.4c.6-.2 1.1-.4 1.7-.7l1-.4 1.7-.6 1-.3 1.8-.6 1-.3 1.8-.5 1.1-.3 1.8-.5 1.1-.3 1.9-.5 1-.3 1.8-.4 1-.2c.6-.2 1.2-.3 1.9-.4l1-.2 1.9-.4.9-.2 2-.4.7-.1c.7-.1 1.4-.3 2.2-.4h.1c2.6-.4 5.2-.8 7.7-1.2l.6-.1 1.8-.2 1-.1 1.7-.2 1.1-.1 1.6-.2 1.1-.1 1.5-.1 1.2-.1 1.4-.1 1.2-.1c.4 0 .9-.1 1.3-.1l1.2-.1 1.2-.1 1.2-.1h13l1.5.1h1.4z"/><path fill="#282828" d="M994 274c25 7 66 42 80 45s15.7-4.7 15.7-4.7c27 3 79.3 32.7 93.3 45.7 7 8 15 14 15-2s6-137-27-165c-39.4-33.5-156 45-177 81z"/><path opacity=".3" fill="#091426" d="M1084.6 317.8c-2.1.1-4.2.1-6.2-.2-11.1-1.7-18.8-12.1-23.1-22.5-10.2-24.2-4.5-57.4 7.9-80.4-31.8 19.2-59.8 43.5-69.1 59.4 25 7 66 42 80 45 4.6.9 8 .1 10.5-1.3zm11.2 1.2c-1.8-.2-3.1-1.9-2.8-3.7.1-.6.3-1.2.7-1.6 8.5-10.4 20.1-37.9 24-47.3 4.7-11.3 20-47.3 26.7-52.7s13.3-6.7 17.3-6 9.3 7.3 12 18.7 10.7 70 11.3 82 7.3 37.3 3.3 39.3-16.8-9.7-26-14.7c-8.7-4.7-32.7-14-46-15.3-6.4-.7-15 2-20.5 1.3z"/><path fill="#8D5548" d="M937.7 806.3c-2 1.6-4.3 2.9-6.7 3.8-2.4 1-4.8 1.7-7.4 2.2-2.5.5-5.1.8-7.6.8-2.6 0-5.1-.2-7.7-.8 2.5-.6 5-1.1 7.4-1.5l7.2-1.4 7.2-1.5c2.4-.5 5-1.1 7.6-1.6z"/><path fill="#8D5548" d="M929 808.8c7.9 6.2 16.6 11.4 25.8 15.6 9.2 4.2 18.7 7.5 28.5 9.9 9.8 2.4 19.8 3.8 29.8 4.3 10 .4 20.1-.2 30-1.8 9.9-1.6 19.7-4.3 29-8 9.4-3.6 18.5-8.2 27-13.6 2.2-1.3 4.2-2.8 6.3-4.2 1.1-.7 2.1-1.4 3.1-2.2l3-2.3c4-3 8-6.3 11.7-9.7 1.9-1.7 3.7-3.5 5.5-5.2l2.6-2.7 1.3-1.4 1.2-1.4c.8-1 1.7-1.9 2.5-2.9l2.3-3c.8-1 1.4-2 2.2-3.1.4-.5.7-1 1-1.6l.9-1.6 1.7.8c-2.2 4.7-5.1 9.2-8.4 13.2l-1.2 1.5-1.3 1.5-2.5 3c-1.8 1.9-3.5 3.8-5.4 5.6-3.7 3.6-7.6 7.1-11.6 10.4l-3.1 2.4c-1 .8-2 1.6-3.1 2.3-2.1 1.5-4.2 3.1-6.4 4.5l-6.6 4.2-6.8 3.8c-1.1.7-2.3 1.2-3.5 1.8l-3.5 1.7c-2.3 1.2-4.8 2.1-7.2 3.1-9.7 4-19.7 6.9-30.1 8.7-10.3 1.8-20.8 2.4-31.2 2-10.4-.5-20.8-2.1-30.9-4.7-10.1-2.6-20-6.2-29.3-10.8-9.4-4.6-18.2-10.3-26.2-17.1l2.9-3z"/><path opacity=".03" d="M928.2 809.8c2.5 1 4.7 2.2 7.2 3.1l3.5 1.5c1.2.5 2.4.9 3.6 1.3s2.3.9 3.5 1.3l3.6 1.2c2.3.8 4.7 1.5 7.1 2.2 9.3 2.7 18.9 4.8 28.5 6.2l3.5.5 3.6.3c1.2.1 2.4.3 3.5.4s2.4.2 3.5.3l3.5.2 1.8.1h1.8c2.3 0 4.7.1 7 .2s4.7-.1 7-.2c1.2 0 2.3-.1 3.5-.2l3.5-.3c2.3-.1 4.6-.4 6.9-.7l3.5-.4c1.2-.1 2.3-.4 3.4-.6 2.3-.4 4.6-.7 6.9-1.2s4.5-1.1 6.8-1.6c1.1-.2 2.3-.5 3.4-.9l3.3-1c1.1-.3 2.2-.6 3.3-1l3.3-1.2c9-3.1 17.7-6.9 26.2-11.2 8.7-4.5 17.1-9.5 25.2-15 2.1-1.4 4-2.9 6.1-4.3l3-2.3 1.5-1.1 1.5-1.2 3-2.4 2.9-2.5c1-.8 1.8-1.7 2.8-2.6.5-.4.9-.9 1.3-1.4l1.3-1.4 1.4.6-.9 1.8c-.3.6-.6 1.2-1 1.7-.7 1.1-1.3 2.2-2.1 3.3l-2.3 3.2-2.4 3-1.2 1.5-1.3 1.5-2.6 2.9c-1.8 1.8-3.6 3.7-5.4 5.5-7.5 7.1-15.6 13.6-24.2 19.3-8.6 5.7-17.8 10.5-27.4 14.3-9.6 3.9-19.6 6.8-29.8 8.5-10.2 1.7-20.6 2.3-30.9 1.8-10.3-.6-20.6-2.1-30.6-4.7-10-2.5-19.8-6-29.1-10.5s-18.1-10.1-26-16.8l1-1z"/><path opacity=".03" d="M928.5 809.4c7.8 6.5 16.5 11.9 25.7 16.2 9.2 4.4 18.8 7.8 28.7 10.3 9.9 2.5 20 3.9 30.1 4.4 10.2.4 20.4-.2 30.4-1.9s19.9-4.4 29.3-8.3c9.4-3.8 18.5-8.5 27-14 8.5-5.6 16.5-11.9 23.9-18.8 1.8-1.7 3.6-3.6 5.4-5.4l2.6-2.8 1.3-1.4 1.2-1.5c.8-1 1.6-2 2.4-2.9l2.2-3c.8-1 1.4-2.1 2.1-3.2.3-.5.6-1.1.9-1.6l.9-1.6 2.3 1-.7 1.9c-.2.6-.5 1.3-.8 1.9l-1.8 3.6-2 3.4c-.7 1.1-1.5 2.2-2.2 3.3l-1.1 1.6-1.2 1.6-2.4 3.2c-1.7 2-3.3 4.1-5.1 6-3.6 3.9-7.3 7.7-11.2 11.3l-3 2.6c-1 .9-2 1.8-3.1 2.5-2.1 1.6-4.2 3.3-6.3 4.9l-6.6 4.6c-2.2 1.4-4.6 2.8-6.8 4.2-1.1.7-2.3 1.3-3.5 2l-3.6 1.9c-2.3 1.3-4.8 2.4-7.3 3.5-9.9 4.5-20.3 7.8-31 9.8l-2 .4c-.7.1-1.3.3-2 .3l-4.1.5c-2.7.4-5.4.8-8.1.9l-4.1.2c-1.4.1-2.7.2-4.1.2h-8.2c-2.7-.1-5.5-.3-8.2-.5l-2-.2-2-.3-4.1-.5c-1.3-.2-2.7-.3-4-.6l-4-.8-4-.8c-1.3-.3-2.6-.7-4-1-10.6-2.7-20.7-7-29.9-12.8-2.3-1.5-4.5-3-6.7-4.7-2.2-1.6-4.3-3.4-6.2-5.3-1-1-2-1.8-2.9-2.8s-1.8-2-2.7-3.1c-.4-.5-.9-1-1.3-1.6s-.8-1.1-1.2-1.7c-.8-1.2-1.6-2.2-2.3-3.4l1.4-1.7z"/><path fill="#8D5548" d="M1130.3 774c2.6.3 5.3.2 7.9-.1 2.6-.2 5.2-.6 7.9-.9s5.3-.5 8-.6c2.7-.2 5.5 0 8.2.6l-7.9 1.7c-2.6.5-5.3 1-8 1.3-2.7.3-5.5.4-8.2.2-2.8 0-5.5-.8-7.9-2.2z"/><path fill="#282828" d="M588 462c-10-102 58-248 138-264 31-6.2 107 76 121 109 6 14-20 5-52 14s-86 48-88 57 6 46-2 56-47 4.7-69.3 7c-21.8 2.3-32.7 10-47.7 21z"/><path opacity=".3" fill="#091426" d="M639.2 341.9c-4.8-23.3-4.2-47.3-.8-70.9-34.9 55.1-56.3 130.7-50.4 191 15-11 25.9-18.7 47.7-21 4.4-.5 9.4-.6 14.7-.7 2.9-3.3 5.6-6.7 8.2-10.2 5.5-7.3 13-12.9 20.6-16.9-21.2-17.9-34.5-44.1-40-71.3zm208.3-29.8c-3.2.7-7.1-.9-10.4-2.4-8.1-3.8-16.8-6.5-25.6-8-1.4-.1-2.8-.6-4-1.3-1-.8-1.8-1.8-2.4-3-13.2-22.3-29.8-42.4-49.1-59.8-9.2-8.3-20.8-16.4-33-14.1-10.3 1.9-17.9 11-22.7 20.4-6 11.8-9.2 24.8-11.8 37.8-6.7 33-10.4 66.5-11.1 100.2-.1 3.1-.1 6.2.9 9.2s3.2 5.6 6.2 6.3c8.1 1.9 16.4-5.4 22.2-10.7-.3-2.9-.2-5.8.2-8.7 2-9 56-48 88-57 27-7.6 49.7-2.4 52.6-8.9z"/><path fill="#D9E9E6" d="M887.7 753.5c14.1.5 32.4 5.3 41.1 8.8 21-13.8 32.1-62.2 22.2-109.9-2.2-10.6-6.2-20.8-11.9-30-23.1-37.7-69.1-53.1-90.1-24-15.1 20.9-16.5 50 0 94.7 6.7 18.1 15 33.2 24.6 44.8 4.4 5.4 9.1 10.7 14.1 15.6z"/><path fill="#C6D9D5" d="M848.5 693.2c-3.6-9.4-6.6-19-8.9-28.8-2.4-9.8-3.5-19.9-3.2-30.1.2-10.2 2.7-20.2 7.4-29.3.6-1.1 1.2-2.2 1.9-3.3l2.1-3.2c.3-.5.7-1.1 1.1-1.6l1.2-1.5c.8-1 1.7-1.9 2.6-2.8 3.7-3.6 8.1-6.4 13-8.2 4.9-1.7 10-2.4 15.2-2.2 5.1.3 10.2 1.2 15 2.9 9.6 3.4 18.5 8.6 26.1 15.4 7.6 6.7 14 14.6 19.1 23.4 5 8.8 8.5 18.4 10.5 28.3l-1.1.2c-3.8-9.1-8.7-17.7-14.6-25.5-5.6-7.5-12.3-14.2-19.8-19.8l-2.8-2c-.9-.6-1.9-1.2-2.8-1.9l-2.9-1.8-2.9-1.6c-3.9-2-7.9-3.7-12.1-4.9-3.9-1.2-8-1.8-12.1-1.9-3.8-.1-7.5.5-11.1 1.7-3.4 1.2-6.5 3.1-9.1 5.6l-2 2-.9 1.1-.5.5c-.2.2-.3.4-.5.6l-1.8 2.6-1.7 2.7c-.6.9-1.1 1.8-1.5 2.8-.5.9-1 1.9-1.4 2.9l-1.2 3-1 3.1c-.4 1-.6 2.1-.9 3.2-.3 1.1-.6 2.1-.8 3.2l-.6 3.3c-.2 1.1-.3 2.2-.4 3.4-1.1 9.1-.7 18.7.2 28.4s2.7 19.6 4.1 29.7l-.9.4z"/><path fill="#8D5548" d="M873.6 737.8c-7.2-8.2-13.4-17.2-18.3-26.9-2.5-4.8-4.8-9.8-6.9-14.8-1.1-2.5-2-5.1-2.9-7.6s-1.8-5.1-2.7-7.7c-.4-1.3-.9-2.6-1.3-3.9l-1.2-3.9c-.8-2.6-1.4-5.3-2.1-7.9s-1.1-5.4-1.7-8.1c-.3-1.3-.4-2.7-.7-4.1s-.4-2.7-.6-4.1l-.4-4.1c0-.7-.1-1.4-.2-2.1v-2.1c0-1.4-.1-2.8-.1-4.2l.2-4.2c.3-5.6 1.3-11.1 2.8-16.5 1.7-5.4 4-10.5 7-15.3 2.9-4.9 6.9-9.2 11.5-12.6 2.4-1.6 4.9-3 7.6-4 1.3-.5 2.7-1 4.1-1.3.7-.2 1.4-.3 2.1-.5l1-.2 1.1-.2 2.1-.3 2.1-.1 1.1-.1h3.2c2.8.2 5.6.6 8.4 1.2 5.4 1.2 10.7 3.1 15.6 5.8 4.9 2.6 9.5 5.6 13.7 9.2 8.4 7 15.4 15.5 20.7 25.1-6-8.9-13.5-16.8-22.2-23.2-4.3-3.2-8.8-5.9-13.7-8.2-2.4-1.1-4.8-2.1-7.3-2.9-2.5-.8-5-1.4-7.6-1.9-2.6-.5-5.1-.7-7.7-.8h-2.9l-1 .1-1.9.2-1.9.3-.6.1-.9.2c-.6.2-1.2.3-1.8.5-1.2.4-2.4.8-3.6 1.3-2.3 1-4.5 2.2-6.6 3.7-1 .7-2 1.5-2.9 2.4-.5.4-1 .8-1.4 1.3l-1.3 1.4c-.4.5-.8.9-1.2 1.5l-1.2 1.5-2.2 3.2c-2.7 4.4-4.9 9.2-6.4 14.2s-2.4 10.2-2.7 15.4l-.2 3.9v6c0 .7.1 1.3.1 2l.3 4c1.2 10.6 3.3 21.1 6.4 31.3 3 10.3 6.6 20.4 11 30.3 4.4 9.8 9.8 19.1 16.2 27.7z"/><path fill="#D9E9E6" d="M1160.4 719.3c6.6-7.8 12.5-18.1 17.4-29.9 16.1-39.1 21.5-94.8-3.8-121.9-19.7-21.2-47.5.8-59.8 31.8-3.8 9.6-6.9 19.5-9.2 29.7-7 32.5-2.2 90.8 10 103 7.9 7.9 18.7 5.4 26.6 1.8 5.8-5.4 12-10.3 18.8-14.5z"/><path fill="#C6D9D5" d="M1177.2 689.2c1.3-8.8 2.8-17.3 3.7-25.9s1.6-16.9 1.7-25.3c.2-8.2-.1-16.4-1-24.6-.4-4-1.1-7.9-1.9-11.8-.8-3.8-1.9-7.5-3.2-11.1-1.2-3.5-2.8-6.8-4.7-10l-1.4-2.3-1.5-2.2-1.7-2c-.6-.6-1-1.2-1.6-1.7-1-1-2.1-1.9-3.3-2.7-1.1-.7-2.3-1.2-3.5-1.6-1.3-.3-2.6-.5-4-.5-1.5 0-3 .2-4.5.6-1.7.5-3.3 1-4.8 1.8-1.7.8-3.3 1.7-4.9 2.7-3.4 2.1-6.5 4.6-9.4 7.3-6.1 5.5-11.4 12.3-16.5 19.6l-1-.4c3.1-8.2 7.5-15.9 12.9-22.9 2.7-3.5 5.8-6.7 9.2-9.5 3.4-2.9 7.3-5.2 11.4-6.8 2.1-.8 4.3-1.3 6.6-1.6 2.3-.2 4.5-.2 6.8.2 2.2.4 4.4 1.2 6.4 2.2 2 1.1 3.8 2.4 5.5 3.9 6.6 6.1 11.2 14 14.3 22.2 1.5 4.2 2.7 8.4 3.5 12.8.8 4.3 1.4 8.7 1.7 13.1.3 4.4.4 8.8.3 13.2-.1 4.4-.4 8.8-.9 13.1s-1.1 8.7-1.9 13-1.7 8.6-2.8 12.8c-2.2 8.5-5 16.8-8.4 24.8l-1.1-.4z"/><path fill="#8D5548" d="M1177.8 689.4c5.6-16.4 9.3-33.5 10.8-50.7.8-8.6.8-17.2.1-25.7-.4-4.2-1-8.5-1.8-12.7-.8-4.1-2-8.2-3.5-12.2-1.4-3.9-3.2-7.7-5.4-11.3l-1.7-2.6-1.9-2.5-2-2.4c-.7-.7-1.4-1.5-2.1-2.2-1.5-1.3-3.1-2.5-4.8-3.5-1.7-.9-3.6-1.6-5.5-2-1.9-.4-3.9-.5-5.9-.3-2 .2-4 .6-5.9 1.3-3.9 1.4-7.6 3.5-10.8 6.1-3.4 2.6-6.5 5.6-9.2 8.8-5.6 6.6-10.3 13.9-14 21.8 2.8-8.4 6.8-16.3 12.1-23.3 2.7-3.6 5.7-6.9 9.1-9.8 3.4-3 7.3-5.5 11.6-7.2 2.2-.8 4.5-1.4 6.8-1.8 4.8-.6 9.7.2 14 2.5 2.1 1.1 4.1 2.4 5.8 4 .9.8 1.7 1.6 2.5 2.4l2.2 2.6 2.1 2.7c.7.9 1.3 1.9 1.9 2.8 2.4 3.8 4.4 7.9 5.9 12.2 3 8.4 4.7 17.3 5.3 26.2.3 4.4.3 8.9.2 13.3-.1 2.2-.2 4.4-.4 6.6s-.4 4.4-.7 6.6c-1.1 8.7-2.9 17.4-5.3 25.8-2.6 8.4-5.7 16.6-9.5 24.5z"/><path fill="#894733" d="M1130 746.5c3.5-5.5 7.6-10.5 12.3-15 4.7-4.5 9.8-8.6 15.2-12.2 1.3-.9 2.8-1.7 4.2-2.5l2.1-1.2 2.2-1.1 2.2-1.1c.7-.3 1.5-.7 2.2-1 1.5-.7 3-1.3 4.5-1.8 6.1-2.3 12.5-3.5 19-3.7-6.2 1.3-12.3 3.3-18.2 5.8-1.5.6-2.9 1.3-4.3 2-.7.3-1.4.7-2.1 1l-2.1 1.2-2.1 1.1c-.7.4-1.4.8-2 1.2-1.4.8-2.7 1.6-4 2.5-2.7 1.7-5.3 3.5-7.8 5.4s-5 3.9-7.5 5.9c-4.8 4.3-9.4 8.8-13.8 13.5z"/><path fill="#A34F3E" d="M1122 733h-.7c-12.8-.8-22.1-25.9-20.2-54.8 1.8-28.5 13.7-51.7 26.4-51.7h.6c5.9.4 11.5 6.2 15.3 15.9 4.1 10.5 5.9 24.3 5 38.8-1.8 28.6-13.7 51.8-26.4 51.8z"/><path fill="#8E4637" d="M1127.5 624v5h.5c10 .6 19.8 22.2 17.9 52.1-.9 13.9-4.2 26.8-9.3 36.3-4.5 8.3-9.8 13.1-14.6 13.1h-.5c-10-.6-19.8-22.2-17.9-52.1.9-13.9 4.2-26.8 9.3-36.3 4.5-8.3 9.8-13.1 14.6-13.1v-5m0 0c-14.1 0-27 23.9-28.9 54.1-2 30.8 8.1 56.5 22.6 57.4h.8c14.1 0 27-23.9 28.9-54.1 2-30.8-8.1-56.5-22.6-57.4h-.8z"/><path fill="#A34F3E" d="M903.7 750.4c-16.8 0-33.5-22.5-37.8-51.2-4.7-30.8 5.9-58.1 23.6-60.8.9-.1 1.9-.2 2.8-.2 16.8 0 33.5 22.5 37.8 51.2 4.7 30.8-5.9 58-23.6 60.8-.9.1-1.9.2-2.8.2z"/><path fill="#8E4637" d="M892.3 635.8v5c7.2 0 14.7 4.7 21.2 13.3 7 9.2 12.1 21.9 14.2 35.8 2.2 14.7 1 29-3.5 40.2-4.2 10.3-10.5 16.6-18 17.8-.8.1-1.6.2-2.4.2-7.2 0-14.7-4.7-21.2-13.3-7-9.2-12-21.9-14.2-35.8-4.4-28.9 5.4-55.5 21.5-57.9.8-.1 1.6-.2 2.5-.2l-.1-5.1m0 0c-1.1 0-2.1.1-3.2.2-19.1 3-30.6 31.4-25.7 63.6 4.7 30.4 22.3 53.3 40.3 53.3 1.1 0 2.1-.1 3.2-.2 19.1-2.9 30.6-31.4 25.7-63.6-4.7-30.4-22.3-53.3-40.3-53.3z"/><path fill="#894733" d="M932.5 764c-2.3-.9-4.7-1.6-7.2-2.2-2.4-.7-4.8-1.2-7.2-1.8s-4.8-1.1-7.3-1.6-4.9-1-7.3-1.5-4.9-.9-7.3-1.2-4.9-.7-7.4-.9-4.9-.4-7.4-.4c-2.5-.1-5 .2-7.4.7 2.3-1.1 4.8-1.9 7.3-2.2 2.5-.4 5.1-.5 7.6-.5s5.1.2 7.6.5 5 .7 7.5 1.1c5 .9 9.9 2.2 14.7 3.8 2.4.8 4.8 1.7 7.1 2.7 2.4.8 4.6 2 6.7 3.5z"/><ellipse transform="rotate(-12.321 902.568 647.523)" fill="#FFF" cx="902.7" cy="647.6" rx="8.3" ry="20.7"/><ellipse transform="matrix(.9999 -.01588 .01588 .9999 -9.932 18.132)" fill="#FFF" cx="1136.6" cy="634.4" rx="8.3" ry="20.7"/><path fill="#282828" d="M1607.6 1001.6c-30-22.5-134.6-73.3-194.6-43.3-32.1 16-38.4 34.4-45.6 61.7-.2.3-.3.7-.4 1-.9 3.3-1.6 6.9-2.2 10.8-1.1 6-1.9 12.1-2.5 18.2-1.2 9.2-2.4 18.6-4.2 26.9 1.1 20.1 21.8 59.1 58 74 51 21 92-4 92-4l1.9-6.8c21.9 11.7 48.3 17.1 67.7 9.9 0 0 7.6 12.8 33.4 16.9 19 3 43.4-44.4 47-78 3.9-36.9-20.5-64.8-50.5-87.3z"/><path fill="#494949" d="M1658 1089c4-37-20.4-64.9-50.4-87.4S1469 928.3 1412 957c-9.8 4.9-17.1 10.2-22.7 15.9-6.3 8-12.3 18.6-18 33-1.3 4.2-2.4 8.5-3.6 13 12.5-27.6 13.9-30.9 30.4-19.9 18 12 41 34 75 54s65 34 80 53 19 41 36 51c5.9 3.5 10.7 6.4 14.8 8.5 2.2.6 4.6 1.1 7.2 1.5 18.9 3 43.3-44.4 46.9-78z"/><path fill="#99C7C9" d="M1438.4 949.1c-2.9 10.8 18.4 31.4 44.6 40.9 33 12 82 28 100 23s-28-35-51-47c-5.5-2.9-12.1-6-19.3-8.9-25.1-7.3-51.2-11.3-74.3-8z"/><path opacity=".3" fill="#091426" d="M1559.7 1116c-.8 1.6-1.7 3.1-2.9 4.4-7.3 8.8-20.3 10.2-31.5 8.4-25.4-4.2-45.4-21.4-61.3-40.6-4.1-4.9-17.7-20.5-21.8-27.9.8 15.4 2.8 33.4 3.4 41.4 1.5 18-12.6 36.3-13.9 54.5 3.9 1 7.8 1.7 11.8 2.3 1.1.1 2.1.3 3.2.4l.5.1 3 .3h.4c1 .1 2 .1 3 .2h.2c1 0 2 .1 3 .1h3.6c.9 0 1.8 0 2.7-.1h.3c.9 0 1.8-.1 2.8-.2h.4c1.8-.1 3.6-.3 5.4-.6h.4l2.5-.4.3-.1 2.4-.4h.1c.8-.2 1.6-.3 2.4-.5l.4-.1 2.3-.5h.2l2.1-.5.2-.1 2.1-.6.3-.1c1.4-.4 2.7-.8 3.9-1.2l.3-.1 1.8-.6.2-.1 1.7-.6h.1l1.6-.6.3-.1 1.5-.6h.1l1.3-.5.2-.1 1.2-.5.2-.1c.8-.3 1.5-.7 2.1-1l.2-.1.9-.4.1-.1.7-.3h.1l.6-.3h.1l.5-.3.3-.2.2-.1h.1l1.9-6.8c21.9 11.7 48.3 17.1 67.7 9.9.7 1 1.4 2 2.3 2.8.1-.3.2-.7.2-1-8.4-9.7-12.8-23.4-20.4-36.4z"/><path opacity=".3" fill="#091426" d="M1658 1089l.3-3c-.5 1.4-1 2.7-1.6 4-4.8 11.3-12.9 21.7-24.1 26.8-15 6.8-33 2.8-47.4-5.3s-26.1-20.1-38.8-30.6c-32.1-26.2-70.7-43-107-63-15.2-8.4-30.9-18.4-38-34.3-2.5-5.7-3.7-11.9-3.4-18.1-3.1 2.2-6 4.7-8.7 7.4-6.3 8-12.3 18.6-18 33-1.3 4.2-2.4 8.5-3.6 13 12.5-27.6 13.8-30.9 30.3-19.9 18 12 41 34 75 54s65 34 80 53 17.3 43 34.3 53c6 3.5 12.3 4.4 16.4 6.5 2.2.6 4.6 1.1 7.2 1.5 19.1 3 43.5-44.4 47.1-78z"/><path opacity=".04" fill="#FFF" d="M1447.8 1081c4.9 4.7 8.8 9.8 12.8 14.7 4.1 4.9 8.5 9.5 13.1 13.9l1.7 1.6 1.8 1.6c1.2 1.1 2.4 2.1 3.6 3.1s2.4 2 3.7 3 2.5 2 3.8 2.9c5.1 3.8 10.5 7.2 16.1 10.3 11.1 6.2 23.1 10.8 35.5 13.7 6.2 1.5 12.5 2.5 18.9 3 1.6.2 3.2.2 4.8.3s3.2 0 4.8.1h1.2c.3 0 .5 0 .8-.1.6-.2 1.3-.4 1.9-.6.7-.2 1.4-.5 2.2-.7 1-.3 2.1-.2 3 .4l.2.4c-.6.6-1.2 1.1-1.9 1.5-.7.4-1.5.8-2.2 1.2-.8.3-1.6.6-2.5.8-.4.1-.9.1-1.3.2h-1.2c-1.6 0-3.3.1-4.9 0s-3.3 0-4.9-.2c-6.5-.4-13.1-1.3-19.5-2.7-12.8-2.8-25.2-7.4-36.7-13.8-11.5-6.3-22.1-14.1-31.5-23.2-9.4-9.1-17.4-19.6-23.5-31.2l.2-.2z"/></svg>