<?xml version="1.0" encoding="UTF-8"?>
<svg width="165px" height="35px" viewBox="0 0 165 35" version="1.1" xmlns="http://www.w3.org/2000/svg" xmlns:xlink="http://www.w3.org/1999/xlink">
    <!-- Generator: Sketch 53.2 (72643) - https://sketchapp.com -->
    <title>Group 8</title>
    <desc>Created with Sketch.</desc>
    <g id="Page-1" stroke="none" stroke-width="1" fill="none" fill-rule="evenodd">
        <g id="UI" transform="translate(-32.000000, -9.000000)" fill="#FFFFFF" fill-rule="nonzero">
            <g id="header">
                <g id="Group-8" transform="translate(32.000000, 9.500066)">
                    <path d="M63.5112847,19.7527483 L63.5112847,27.5554827 L62.0171441,27.5554827 L62.0171441,20.2410296 C62.0171441,18.9519671 61.5483941,18.278139 60.6597222,18.278139 C59.7319878,18.278139 59.1655816,19.0886858 59.1655816,20.4070452 L59.1655816,27.5554827 L57.6812066,27.5554827 L57.6812066,20.231264 C57.6812066,18.9519671 57.2124566,18.278139 56.3140191,18.278139 C55.3765191,18.278139 54.7905816,19.0886858 54.7905816,20.4070452 L54.7905816,27.5554827 L53.296441,27.5554827 L53.296441,16.9597796 L54.780816,16.9597796 L54.780816,18.4539202 L54.9565972,18.4539202 C55.2202691,17.3894671 55.9819878,16.7644671 56.9780816,16.7644671 C57.9741753,16.7644671 58.6773003,17.3797015 58.9019097,18.4246233 L59.077691,18.4246233 C59.3511285,17.4089983 60.2007378,16.7644671 61.265191,16.7644671 C62.7398003,16.7644671 63.5112847,17.7898577 63.5112847,19.7527483 Z M68.1983941,31.325014 C67.9542535,31.325014 67.6319879,31.3152483 67.4855035,31.2957171 L67.4855035,29.840639 C67.6124566,29.8699358 67.915191,29.8797015 68.071441,29.8797015 C69.0675347,29.8797015 69.6144097,29.4304827 70.0538629,28.200014 L70.2394097,27.6238421 L66.3429254,16.9597796 L68.149566,16.9597796 L71.118316,25.8269671 L71.2452691,25.8269671 L74.2042535,16.9597796 L75.9718316,16.9597796 L71.977691,27.9461077 C71.0499566,30.5535296 70.1612847,31.325014 68.1983941,31.325014 Z M89.3503472,21.5886858 C89.3503472,25.5047015 87.3093316,27.8386858 83.9304254,27.8386858 C80.5515191,27.8386858 78.5105035,25.5047015 78.5105035,21.5886858 L78.5105035,19.4304827 C78.5105035,15.5144671 80.5515191,13.1804827 83.9304254,13.1804827 C87.3093316,13.1804827 89.3503472,15.5144671 89.3503472,19.4304827 L89.3503472,21.5886858 Z M83.9304254,25.3777483 C85.6296441,25.3777483 86.5280816,24.0984515 86.5280816,21.559389 L86.5280816,19.4597796 C86.5280816,16.9207171 85.6296441,15.6414202 83.9304254,15.6414202 C82.2312066,15.6414202 81.3327691,16.9207171 81.3327691,19.4597796 L81.3327691,21.559389 C81.3327691,24.0984515 82.2312066,25.3777483 83.9304254,25.3777483 Z M101.566753,20.543764 L98.949566,20.543764 C98.7737847,19.3328265 98.0511285,18.746889 96.8890191,18.746889 C95.4534722,18.746889 94.6624566,19.8211077 94.6624566,21.793764 L94.6624566,22.5164202 C94.6624566,24.4890765 95.4534722,25.5632952 96.8890191,25.5632952 C98.0608941,25.5632952 98.7640191,25.0066546 98.949566,23.8543108 L101.566753,23.8543108 C101.332378,26.4226702 99.6917535,27.7898577 96.9085504,27.7898577 C93.7347222,27.7898577 91.9769097,25.9929827 91.9769097,22.7214983 L91.9769097,21.5886858 C91.9769097,18.3172015 93.7347222,16.5203265 96.9085504,16.5203265 C99.6917535,16.5203265 101.312847,17.9070452 101.566753,20.543764 Z M107.230425,13.7078265 L109.847613,13.7078265 L109.847613,16.8914202 L113.861285,16.8914202 L113.861285,19.0300921 L109.896441,19.0300921 L109.896441,24.1765765 C109.896441,24.9871233 110.472613,25.4461077 111.498003,25.4461077 C111.75191,25.4461077 113.617144,25.4363421 113.734332,25.4265765 L113.734332,27.5359515 C113.62691,27.5554827 111.498003,27.575014 111.28316,27.575014 C108.353472,27.575014 107.230425,26.6472796 107.230425,24.1472796 L107.230425,19.0300921 L104.427691,19.0300921 L104.427691,16.8914202 L107.230425,16.8914202 L107.230425,13.7078265 Z M122.220269,27.7898577 C119.18316,27.7898577 117.269097,25.9441546 117.269097,23.0047015 L117.269097,21.3445452 C117.269097,18.4050921 119.18316,16.559389 122.220269,16.559389 C125.257379,16.559389 127.171441,18.4050921 127.171441,21.3445452 L127.171441,23.0047015 C127.171441,25.9441546 125.257379,27.7898577 122.220269,27.7898577 Z M122.220269,18.746889 C120.784722,18.746889 119.89605,19.7820452 119.89605,21.4519671 L119.89605,22.8972796 C119.89605,24.5574358 120.784722,25.6023577 122.220269,25.6023577 C123.655816,25.6023577 124.544488,24.5574358 124.544488,22.8972796 L124.544488,21.4519671 C124.544488,19.7820452 123.655816,18.746889 122.220269,18.746889 Z M139.856597,20.543764 L137.23941,20.543764 C137.063629,19.3328265 136.340972,18.746889 135.178863,18.746889 C133.743316,18.746889 132.9523,19.8211077 132.9523,21.793764 L132.9523,22.5164202 C132.9523,24.4890765 133.743316,25.5632952 135.178863,25.5632952 C136.350738,25.5632952 137.053863,25.0066546 137.23941,23.8543108 L139.856597,23.8543108 C139.622222,26.4226702 137.981597,27.7898577 135.198394,27.7898577 C132.024566,27.7898577 130.266754,25.9929827 130.266754,22.7214983 L130.266754,21.5886858 C130.266754,18.3172015 132.024566,16.5203265 135.198394,16.5203265 C137.981597,16.5203265 139.602691,17.9070452 139.856597,20.543764 Z M146.291754,27.731264 C144.260504,27.731264 142.893316,26.4226702 142.893316,24.4793108 C142.893316,22.5359515 144.309332,21.3933733 146.965582,21.2078265 L149.485113,21.0515765 L149.485113,20.1922015 C149.485113,19.2547015 148.840582,18.7078265 147.737066,18.7078265 C146.809332,18.7078265 146.115972,19.1179827 145.891363,19.7918108 L143.293707,19.7918108 C143.489019,17.8386858 145.256597,16.5789202 147.815191,16.5789202 C150.578863,16.5789202 152.131597,17.8972796 152.131597,20.2507952 L152.131597,27.5554827 L149.592535,27.5554827 L149.592535,26.1199358 L149.35816,26.1199358 C148.830816,27.1355608 147.698004,27.731264 146.291754,27.731264 Z M147.209722,25.5925921 C148.537847,25.5925921 149.485113,24.7527483 149.485113,23.5515765 L149.485113,22.7703265 L147.4148,22.8972796 C146.1648,22.9754046 145.530035,23.4539202 145.530035,24.2839983 C145.530035,25.0847796 146.174566,25.5925921 147.209722,25.5925921 Z M158.28355,13.7078265 L160.900738,13.7078265 L160.900738,16.8914202 L164.91441,16.8914202 L164.91441,19.0300921 L160.949566,19.0300921 L160.949566,24.1765765 C160.949566,24.9871233 161.525738,25.4461077 162.551129,25.4461077 C162.805035,25.4461077 164.670269,25.4363421 164.787457,25.4265765 L164.787457,27.5359515 C164.680035,27.5554827 162.551129,27.575014 162.336285,27.575014 C159.406597,27.575014 158.28355,26.6472796 158.28355,24.1472796 L158.28355,19.0300921 L155.480816,19.0300921 L155.480816,16.8914202 L158.28355,16.8914202 L158.28355,13.7078265 Z" id="myOctocat"></path>
                    <path d="M11.5277503,27.0138245 C11.5277503,27.1990096 11.4004361,27.303176 11.1458068,27.3263237 C10.8911774,27.3494715 10.7638632,27.2684539 10.7638632,27.0832688 C10.7638632,26.8980837 10.879604,26.8054916 11.1110846,26.8054916 C11.2499732,26.8054916 11.3541396,26.8286394 11.4235839,26.8749359 C11.4930282,26.9212325 11.5277503,26.9675279 11.5277503,27.0138245 Z M9.37497765,26.7360474 C9.42127419,26.5508623 9.56016275,26.4929924 9.79164332,26.5624367 C10.0231239,26.6318809 10.1272903,26.724473 10.1041426,26.8402138 C10.0809948,26.9559546 10.0231239,27.0369722 9.93053188,27.0832688 C9.83793986,27.1295653 9.74534678,27.1295653 9.65275476,27.0832688 C9.56016275,27.0369722 9.47914407,26.9791023 9.40969979,26.9096581 C9.34025551,26.8402138 9.32868111,26.7823439 9.37497765,26.7360474 Z M12.4305259,26.5971588 C12.6620065,26.5971588 12.7893217,26.6666031 12.8124695,26.8054916 C12.8356172,26.9443802 12.7314508,27.060121 12.4999702,27.152713 C12.4073782,27.152713 12.3263595,27.1411386 12.2569152,27.1179909 C12.1874709,27.0948432 12.1411744,27.0138245 12.1180267,26.8749359 C12.0948789,26.7360474 12.1990453,26.6434553 12.4305259,26.5971588 Z M17.0138483,1.77635684e-14 C20.1619886,1.77635684e-14 23.0786483,0.740739328 25.7638275,2.22221692 C28.4490066,3.70369452 30.5554827,5.71757861 32.0832568,8.26386919 C33.6573275,10.9027518 34.4443623,13.7962638 34.4443623,16.944404 C34.4443623,20.7869871 33.367976,24.2244789 31.2152034,27.2568795 C29.0624307,30.28928 26.2499374,32.3841817 22.7777235,33.5415867 C22.4073543,33.6341787 22.1180028,33.5878832 21.90967,33.4026981 C21.7013371,33.217513 21.5971707,32.9860325 21.5971707,32.7082554 L21.5971707,26.8749359 C21.5971707,25.3934583 21.2036528,24.3286453 20.416618,23.6804991 C22.1295772,23.495314 23.402722,23.2638334 24.2360533,22.9860563 C25.5323469,22.5230941 26.5277145,21.8286513 27.2221573,20.9027279 C28.0091921,19.6990275 28.4027101,18.0555125 28.4027101,15.9721841 C28.4027101,15.0925563 28.2406738,14.3286692 27.9166001,13.6805229 C27.6851195,13.2175607 27.2453051,12.6388588 26.5971588,11.944416 C26.7823439,11.4814538 26.8980837,10.9258995 26.9443802,10.2777533 C26.9906767,9.25923683 26.8286394,8.24072145 26.4582703,7.222205 C25.995308,7.08331645 25.3471618,7.17590846 24.5138304,7.49998212 C23.9582762,7.73146269 23.31013,8.05553635 22.5693906,8.47220202 L21.666615,9.09720053 C20.2314329,8.68053486 18.7615297,8.47220202 17.2569033,8.47220202 C15.7522769,8.47220202 14.3055214,8.68053486 12.9166359,9.09720053 L12.0138602,8.47220202 C11.2731209,8.05553635 10.6018269,7.73146269 9.99997616,7.49998212 C9.16664481,7.17590846 8.5416463,7.08331645 8.12498063,7.222205 C7.70831496,8.24072145 7.54627866,9.25923683 7.63887068,10.2777533 C7.63887068,10.9258995 7.73146269,11.458306 7.91664779,11.8749717 C7.36109356,12.5694145 6.95600229,13.2059874 6.70137291,13.7846894 C6.44674354,14.3633913 6.31942938,15.0925563 6.31942938,15.9721841 C6.31942938,18.0555125 6.68979851,19.6758787 7.43053784,20.8332837 C8.07868409,21.8055036 9.05090399,22.5230941 10.3471976,22.9860563 C11.1805289,23.2638334 12.4305259,23.495314 14.0971886,23.6804991 C13.4953378,24.2360533 13.1249687,25.0230881 12.9860801,26.0416046 C12.1990453,26.4119737 11.4351583,26.5508623 10.6944189,26.4582703 C9.49071847,26.3656782 8.56479404,25.7406797 7.91664779,24.5832747 C7.63887068,24.074017 7.26850154,23.6573514 6.80553933,23.3332777 C6.48146568,23.1480926 6.13424428,22.9860563 5.76387515,22.8471678 L5.27776519,22.7777235 C4.7685075,22.7777235 4.50230373,22.8587421 4.47915599,23.0207784 C4.45600825,23.1828147 4.56017467,23.3564254 4.79165524,23.5416105 L5.13887664,23.8193877 C5.46295029,24.0045728 5.78702289,24.3054976 6.11109654,24.7221633 C6.38887366,25.0462369 6.62035423,25.4166061 6.80553933,25.8332717 L7.08331645,26.388826 C7.31479702,27.0832688 7.75461149,27.6156753 8.40275774,27.9860444 C8.95831198,28.310118 9.62960702,28.5184509 10.4166418,28.6110429 C10.9721961,28.6573394 11.550898,28.6341906 12.1527488,28.5415986 L12.9166359,28.4721543 L12.9860801,32.7082554 C12.9860801,32.9860325 12.8819137,33.217513 12.6735809,33.4026981 C12.4652481,33.5878832 12.1758965,33.6341787 11.8055274,33.5415867 C8.28701693,32.3841817 5.43980149,30.28928 3.26388111,27.2568795 C1.08796072,24.2244789 0,20.7869871 0,16.944404 C0,13.7962638 0.740739328,10.9258995 2.22221692,8.33331347 C3.70369452,5.74072741 5.74072741,3.70369452 8.33331347,2.22221692 C10.9258995,0.740739328 13.8194115,1.77635684e-14 17.0138483,1.77635684e-14 Z M6.73609505,23.9582762 C6.82868707,23.8656842 6.94442789,23.8888319 7.08331645,24.0277205 C7.222205,24.166609 7.24535274,24.2823499 7.15276072,24.3749419 C7.06016871,24.4675339 6.94442789,24.4443862 6.80553933,24.3054976 C6.66665077,24.166609 6.64350303,24.0508682 6.73609505,23.9582762 Z M5.97220798,23.402722 C6.0648,23.31013 6.18054082,23.2985556 6.31942938,23.3679998 C6.45831794,23.4374441 6.50461447,23.5300361 6.45831794,23.645777 C6.4120214,23.7615178 6.30785498,23.7730911 6.14581868,23.6804991 C5.98378238,23.5879071 5.92591144,23.495314 5.97220798,23.402722 Z M8.26386919,25.8332717 C8.31016573,25.7869752 8.37961,25.7754019 8.47220202,25.7985496 C8.56479404,25.8216973 8.64581272,25.8679939 8.715257,25.9374382 C8.78470128,26.0068824 8.83099782,26.0879011 8.85414556,26.1804931 C8.8772933,26.2730852 8.86571996,26.3425294 8.81942342,26.388826 C8.68053486,26.5277145 8.51849856,26.5045668 8.33331347,26.3193817 C8.24072145,26.2267897 8.19442491,26.1341966 8.19442491,26.0416046 C8.19442491,25.9490126 8.21757265,25.8795683 8.26386919,25.8332717 Z M7.43053784,24.8610518 C7.52312986,24.8147553 7.60414854,24.803182 7.67359282,24.8263297 C7.74303709,24.8494774 7.80090697,24.9073484 7.84720351,24.9999404 C7.98609207,25.1851255 7.98609207,25.324014 7.84720351,25.4166061 C7.80090697,25.4629026 7.74303709,25.4629026 7.67359282,25.4166061 C7.60414854,25.3703095 7.52312986,25.324014 7.43053784,25.2777175 C7.33794582,25.0462369 7.33794582,24.9073484 7.43053784,24.8610518 Z" id="g"></path>
                </g>
            </g>
        </g>
    </g>
</svg>