<svg width="211" height="16" viewBox="0 0 211 16" xmlns="http://www.w3.org/2000/svg"><title>Logo</title><g fill="#FFF" fill-rule="evenodd"><g fill-rule="nonzero"><path d="M10.722 6.44H6.045a.22.22 0 0 0-.218.217v2.286a.22.22 0 0 0 .218.22h1.824v2.84s-.41.14-1.546.14c-1.337 0-3.204-.489-3.204-4.591 0-4.103 1.947-4.645 3.773-4.645 1.58 0 2.261.278 2.694.412a.22.22 0 0 0 .26-.214l.523-2.21a.204.204 0 0 0-.083-.169C10.11.599 9.037 0 6.326 0 3.204 0 0 1.328 0 7.71c0 6.383 3.668 7.336 6.759 7.336 2.56 0 4.111-1.093 4.111-1.093a.188.188 0 0 0 .071-.166V6.66a.218.218 0 0 0-.22-.22zM34.831.772a.218.218 0 0 0-.21-.227h-2.627a.22.22 0 0 0-.232.227v5.08h-4.105V.773a.218.218 0 0 0-.218-.219H24.81a.22.22 0 0 0-.224.22V14.54a.22.22 0 0 0 .218.22h2.628a.22.22 0 0 0 .218-.22V8.65h4.11v5.891a.22.22 0 0 0 .219.221h2.64a.22.22 0 0 0 .218-.22L34.83.771z"/><ellipse cx="13.994" cy="2.573" rx="1.699" ry="1.715"/><path d="M15.504 11.634v-6.36a.22.22 0 0 0-.218-.218h-2.628a.252.252 0 0 0-.228.245v9.114c0 .267.167.347.383.347h2.368c.26 0 .323-.127.323-.352v-2.776zM44.84 5.077h-2.613a.22.22 0 0 0-.218.221v6.75a2.955 2.955 0 0 1-1.606.485c-.943 0-1.193-.428-1.193-1.35V5.297a.22.22 0 0 0-.218-.221H36.34a.22.22 0 0 0-.218.22v6.334c0 2.738 1.527 3.409 3.629 3.409 1.723 0 3.114-.952 3.114-.952.023.188.055.376.096.56a.23.23 0 0 0 .192.12h1.688a.22.22 0 0 0 .218-.22v-9.25a.22.22 0 0 0-.218-.22zm7.146-.31a4.917 4.917 0 0 0-2.495.662V.772a.218.218 0 0 0-.218-.219h-2.641a.218.218 0 0 0-.218.22V14.54a.22.22 0 0 0 .218.22h1.833c.08 0 .154-.045.192-.117.053-.208.09-.42.11-.635 0 0 1.083 1.023 3.126 1.023 2.4 0 3.778-1.217 3.778-5.464 0-4.246-2.194-4.8-3.685-4.8zm-1.031 7.76a3.136 3.136 0 0 1-1.52-.439V7.723a3.485 3.485 0 0 1 1.35-.439c.941-.084 1.855.2 1.855 2.444-.008 2.371-.418 2.84-1.685 2.8v-.001zM23.074 5.054H21.1V2.445c0-.099-.051-.154-.166-.154h-2.695c-.105 0-.155.046-.155.146v2.704s-1.349.325-1.44.352a.22.22 0 0 0-.155.21v1.699a.22.22 0 0 0 .204.215h1.391v4.074c0 3.028 2.126 3.324 3.555 3.324a6.014 6.014 0 0 0 1.569-.258.204.204 0 0 0 .124-.197v-1.863a.222.222 0 0 0-.218-.22c-.115 0-.41.047-.713.047-.97 0-1.3-.451-1.3-1.035V7.617h1.976a.22.22 0 0 0 .218-.22V5.275a.218.218 0 0 0-.22-.221z"/></g><path d="M66.314 14.214c3.483 0 4.002-2.726 4.002-6.182 0-3.456-.52-6.182-4.002-6.182-3.482 0-4.002 2.726-4.002 6.182 0 3.456.52 6.182 4.002 6.182zm0 1.21c-4.714 0-5.387-3.629-5.387-7.392 0-3.763.673-7.392 5.387-7.392 4.714 0 5.388 3.629 5.388 7.392 0 3.763-.674 7.392-5.388 7.392zm7.6-4.992c0-2.765.808-4.992 4.06-4.992.943 0 2.02.115 2.867.48v1.152c-.75-.25-1.52-.442-2.886-.442-2.425 0-2.694 1.901-2.694 3.802 0 1.9.27 3.802 2.694 3.802 1.366 0 2.135-.192 2.886-.442v1.152c-.847.365-1.924.48-2.867.48-3.252 0-4.06-2.227-4.06-4.992zm14.045 3.84v1.075c-.23.058-.615.077-.865.077-1.597 0-3.079-.73-3.079-2.611V6.688h-1.924v-.595l1.924-.557V2.944l1.347-.384v3.072h2.982v1.056h-2.982v5.971c0 1.171.635 1.651 1.847 1.651.25 0 .5-.019.75-.038zm10.101-3.84c0 2.938-.73 4.992-4.04 4.992-3.29 0-4.04-2.054-4.04-4.992s.75-4.992 4.04-4.992c3.31 0 4.04 2.054 4.04 4.992zm-1.346 0c0-2.17-.193-3.802-2.694-3.802-2.54 0-2.694 1.632-2.694 3.802s.154 3.802 2.694 3.802c2.501 0 2.694-1.632 2.694-3.802zm3.463 0c0-2.765.808-4.992 4.06-4.992.942 0 2.02.115 2.866.48v1.152c-.75-.25-1.52-.442-2.886-.442-2.424 0-2.693 1.901-2.693 3.802 0 1.9.27 3.802 2.693 3.802 1.366 0 2.136-.192 2.886-.442v1.152c-.846.365-1.924.48-2.866.48-3.252 0-4.06-2.227-4.06-4.992zm14.719-1.786c0-1.401-.5-2.016-2.29-2.016-1.29 0-2.136.23-2.886.48V5.958c.847-.364 1.962-.518 2.886-.518 2.886 0 3.636 1.306 3.636 3.226v6.566h-.75l-.289-.768a5.055 5.055 0 0 1-2.905.96c-2.52 0-3.367-1.478-3.367-3.091 0-1.632.904-2.842 3.425-2.995l2.54-.154v-.538zm0 1.479l-2.636.25c-1.366.134-1.963.844-1.963 1.958 0 .864.212 1.9 2.04 1.9 1.039 0 1.731-.287 2.559-.767v-3.341zm8.85 4.147v1.075c-.23.058-.616.077-.866.077-1.597 0-3.078-.73-3.078-2.611V6.688h-1.924v-.595l1.924-.557V2.944l1.347-.384v3.072h2.982v1.056h-2.982v5.971c0 1.171.635 1.651 1.847 1.651.25 0 .5-.019.75-.038zm11.063 1.152c-4.31 0-5.676-3.302-5.676-7.392S130.5.64 134.81.64c2.001 0 3.252.403 4.04.806v1.306c-1.5-.614-2.481-.902-4.04-.902-3.155 0-4.29 2.707-4.29 6.182 0 3.475 1.135 6.182 4.29 6.182 1.097 0 2.444-.096 3.117-.422V8.877h-3.02v-1.21h4.328v6.97c-.98.46-2.405.787-4.425.787zm6.927-4.992c0-2.765.788-4.992 4.04-4.992 3.27 0 3.656 2.227 3.656 4.992v.614h-6.35c.077 1.67.52 3.188 2.694 3.188 1.385 0 2.232-.135 3.175-.538v1.152c-1.078.48-2.232.576-3.175.576-3.252 0-4.04-2.227-4.04-4.992zm4.04-3.802c-2.232 0-2.636 1.594-2.694 3.322h5.003c0-1.709-.096-3.322-2.309-3.322zm11.833 8.602v-6.97c0-1.248-.731-1.632-1.924-1.632-1.251 0-1.886.212-2.598.615v7.987h-1.347v-9.6h.75l.29.806c.904-.672 1.885-.998 2.905-.998 2.29 0 3.27 1.037 3.27 2.88v6.912h-1.346zm3.56-4.8c0-2.765.788-4.992 4.04-4.992 3.27 0 3.655 2.227 3.655 4.992v.614h-6.35c.078 1.67.52 3.188 2.695 3.188 1.385 0 2.231-.135 3.174-.538v1.152c-1.077.48-2.232.576-3.174.576-3.252 0-4.04-2.227-4.04-4.992zm4.04-3.802c-2.232 0-2.636 1.594-2.694 3.322h5.002c0-1.709-.096-3.322-2.308-3.322zm11.255-1.094v1.248c-.289-.096-.673-.154-1.154-.154-1.309 0-2.078.212-2.79.615v7.987h-1.347v-9.6h.75l.289.806c.904-.672 2.02-.998 3.098-.998.442 0 .788.038 1.154.096zm7.369 3.11c0-1.401-.5-2.016-2.29-2.016a8.45 8.45 0 0 0-2.886.48V5.958c.847-.364 1.963-.518 2.886-.518 2.886 0 3.637 1.306 3.637 3.226v6.566h-.75l-.29-.768a5.055 5.055 0 0 1-2.904.96c-2.52 0-3.367-1.478-3.367-3.091 0-1.632.904-2.842 3.424-2.995l2.54-.154v-.538zm0 1.479l-2.636.25c-1.366.134-1.962.844-1.962 1.958 0 .864.211 1.9 2.039 1.9 1.039 0 1.732-.287 2.559-.767v-3.341zm8.85 4.147v1.075c-.23.058-.615.077-.865.077-1.597 0-3.079-.73-3.079-2.611V6.688h-1.924v-.595l1.924-.557V2.944l1.347-.384v3.072h2.982v1.056h-2.982v5.971c0 1.171.635 1.651 1.847 1.651.25 0 .5-.019.75-.038zm10.101-3.84c0 2.938-.73 4.992-4.04 4.992-3.29 0-4.04-2.054-4.04-4.992s.75-4.992 4.04-4.992c3.31 0 4.04 2.054 4.04 4.992zm-1.346 0c0-2.17-.193-3.802-2.694-3.802-2.54 0-2.694 1.632-2.694 3.802s.154 3.802 2.694 3.802c2.501 0 2.694-1.632 2.694-3.802zm8.946-4.896v1.248c-.288-.096-.673-.154-1.154-.154-1.308 0-2.078.212-2.79.615v7.987h-1.347v-9.6h.75l.29.806c.904-.672 2.02-.998 3.097-.998.442 0 .789.038 1.154.096z"/></g></svg>