<?xml version="1.0" encoding="UTF-8"?>
<svg width="48px" height="48px" viewBox="0 0 48 48" version="1.1" xmlns="http://www.w3.org/2000/svg" xmlns:xlink="http://www.w3.org/1999/xlink">
    <!-- Generator: Sketch 51.3 (57544) - http://www.bohemiancoding.com/sketch -->
    <title>category-eyes</title>
    <desc>Created with Sketch.</desc>
    <defs></defs>
    <g id="SVGs" stroke="none" stroke-width="1" fill="none" fill-rule="evenodd">
        <g id="Slices" transform="translate(-118.000000, -59.000000)"></g>
        <g id="Group-21" transform="translate(13.000000, 14.000000)" fill-rule="nonzero">
            <g id="Group-9">
                <g id="Group-5-Copy">
                    <path d="M7.21346354,18.5949388 C9.41203291,17.3466783 11,13.7614434 11,9.53333333 C11,4.26821872 8.53756612,0 5.5,0 C2.46243388,0 0,4.26821872 0,9.53333333 C0,12.3495008 0.70447544,14.8804671 1.82462895,16.6256504 C3.45253906,16.9806532 5.99743042,17.5051107 7.21346354,18.5949388 Z" id="Oval-6" fill="#703628"></path>
                    <path d="M7.28790283,19.1960653 C7.66876221,19.1756439 7.92605416,19.0040565 8.26492851,18.6822401 C9.99779198,17.0366037 11.3620605,13.9498511 11.3620605,10.4133333 C11.3620605,5.14821872 8.8581543,0.896669922 5.53442383,1.76098633 C2.5278829,2.54281948 0.463378906,5.84353516 0.463378906,10.4133333 C0.463378906,13.2295002 0.70447544,15.7604671 1.82462895,17.5056504 C3.66546424,17.2365986 5.35057261,18.03558 6.56390063,18.942704 C6.79888181,19.1183837 7.06413242,19.2080636 7.28790283,19.1960653 Z" id="Oval-6" fill="#EEF6F3"></path>
                    <path d="M6.84430424,10.1451481 C6.31142284,11.0785144 6.51476947,12.1997631 7.30116414,12.6537882 C7.78242255,12.9316429 8.37090934,12.8954449 8.8793381,12.612784 C8.98987632,13.0190347 9.05,13.4559948 9.05,13.9111111 C9.05,15.1583058 8.59848792,16.269153 7.89527374,16.9853124 C7.60622491,17.2796823 7.25026369,17.4343323 6.89003906,17.5773936 C6.60882366,17.6890768 6.33453431,17.8222222 6.025,17.8222222 C4.35433863,17.8222222 3,16.0711581 3,13.9111111 C3,11.7510641 4.35433863,10 6.025,10 C6.30893684,10 6.58373682,10.0505788 6.84430424,10.1451481 Z" id="Combined-Shape" fill="#201927" transform="translate(6.025000, 13.911111) scale(-1, 1) translate(-6.025000, -13.911111) "></path>
                </g>
            </g>
            <g id="Group-9" transform="translate(16.000000, 10.000000) scale(-1, 1) translate(-16.000000, -10.000000) translate(10.000000, 0.000000)">
                <g id="Group-5-Copy">
                    <path d="M7.21346354,18.5949388 C9.41203291,17.3466783 11,13.7614434 11,9.53333333 C11,4.26821872 8.53756612,0 5.5,0 C2.46243388,0 0,4.26821872 0,9.53333333 C0,12.3495008 0.70447544,14.8804671 1.82462895,16.6256504 C3.45253906,16.9806532 5.99743042,17.5051107 7.21346354,18.5949388 Z" id="Oval-6" fill="#703628"></path>
                    <path d="M7.28790283,19.1960653 C7.66876221,19.1756439 7.92605416,19.0040565 8.26492851,18.6822401 C9.99779198,17.0366037 11.3620605,13.9498511 11.3620605,10.4133333 C11.3620605,5.14821872 8.8581543,0.726015625 5.53442383,1.59033203 C2.5278829,2.37216518 0.463378906,5.84353516 0.463378906,10.4133333 C0.463378906,13.2295002 0.70447544,15.7604671 1.82462895,17.5056504 C3.66546424,17.2365986 5.35057261,18.03558 6.56390063,18.942704 C6.79888181,19.1183837 7.06413242,19.2080636 7.28790283,19.1960653 Z" id="Oval-6" fill="#EEF6F3"></path>
                    <path d="M6.84430424,10.1451481 C6.31142284,11.0785144 6.51476947,12.1997631 7.30116414,12.6537882 C7.78242255,12.9316429 8.37090934,12.8954449 8.8793381,12.612784 C8.98987632,13.0190347 9.05,13.4559948 9.05,13.9111111 C9.05,15.1583058 8.59848792,16.269153 7.89527374,16.9853124 C7.60622491,17.2796823 7.25026369,17.4343323 6.89003906,17.5773936 C6.60882366,17.6890768 6.33453431,17.8222222 6.025,17.8222222 C4.35433863,17.8222222 3,16.0711581 3,13.9111111 C3,11.7510641 4.35433863,10 6.025,10 C6.30893684,10 6.58373682,10.0505788 6.84430424,10.1451481 Z" id="Combined-Shape" fill="#201927" transform="translate(6.025000, 13.911111) scale(-1, 1) translate(-6.025000, -13.911111) "></path>
                </g>
            </g>
        </g>
    </g>
</svg>