<?xml version="1.0" encoding="UTF-8"?>
<svg width="48px" height="48px" viewBox="0 0 48 48" version="1.1" xmlns="http://www.w3.org/2000/svg" xmlns:xlink="http://www.w3.org/1999/xlink">
    <!-- Generator: Sketch 51.3 (57544) - http://www.bohemiancoding.com/sketch -->
    <title>category-shoes</title>
    <desc>Created with Sketch.</desc>
    <defs></defs>
    <g id="SVGs" stroke="none" stroke-width="1" fill="none" fill-rule="evenodd">
        <g id="Slices" transform="translate(-472.000000, 0.000000)"></g>
        <g id="Group-20" transform="translate(12.000000, 14.000000)" fill-rule="nonzero">
            <path d="M12.9448242,4.37304688 C12.4014476,3.34865407 13.0511475,1.71728516 13.8485107,1.51708984 C14.645874,1.31689453 15.5032519,1.6019625 15.9080811,2.92736816 C17.0441895,6.64697266 18.1525879,9.58105469 18.6848145,11.3596191 C19.217041,13.1381836 14.9797557,8.20937185 12.9448242,4.37304688 Z" id="Path-28" fill="#951918"></path>
            <path d="M6.60100036,2.25102103 C3.59960292,4.30854434 1.87253607,5.79148036 1.4197998,6.6998291 C0.74069541,8.06235221 0.0755961971,10.3253018 1.83203125,11.5909424 C3.5884663,12.856583 8.25769043,15.8572998 13.208374,19.2836914 C14.3892732,20.1009973 15.3138814,19.9241943 19.2231445,19.9241943 C23.1324076,19.9241943 22.9714355,17.5390625 23,15.8786621 C23.0176384,14.8533711 21.6040606,14.692391 19.2290158,13.4716481 C17.6456527,12.6578194 16.1590804,10.2496522 14.769299,6.24714654 C11.9076966,6.56300532 10.0782937,6.38585659 9.28109022,5.71570037 C8.48388674,5.04554414 7.97756866,4.05830824 7.76213598,2.75399266 C7.69650435,2.34361255 7.53025595,2.10148041 7.26339078,2.02759624 C6.99652561,1.95371207 6.77572881,2.028187 6.60100036,2.25102103 Z" id="Path-26" stroke="#A2200D" fill="#951918" stroke-linecap="round" stroke-linejoin="round"></path>
            <path d="M6.60100036,0.251021031 L1.56385133,6.39325333 C0.686343759,7.60344142 0.833068326,8.63041567 2.00402503,9.47417607 C3.17498173,10.3179365 7.02341219,12.9590314 13.5493164,17.3974609 C14.7296073,17.7991536 16.6228404,18 19.2290158,18 C23.1382789,18 23.1908476,16.4025897 22.8893205,14.7326339 C22.7061514,13.7181838 21.422408,12.7178133 19.0473633,11.4970703 C17.5747433,10.7401623 16.3675008,8.57871586 15.0623307,5.06357557 C14.96418,4.79923182 14.8805698,4.45534525 14.4733887,4.26647949 C14.1187249,4.10197321 13.7562326,4.25236404 13.369751,4.27758789 C11.2076928,4.41869534 9.95739917,4.28422856 9.28109022,3.71570037 C8.48388674,3.04554414 7.97756866,2.05830824 7.76213598,0.753992657 C7.69650435,0.343612551 7.53025595,0.101480411 7.26339078,0.0275962386 C6.99652561,-0.046287934 6.77572881,0.0281869969 6.60100036,0.251021031 Z" id="Path-26" stroke="#D42E2D" fill="#D42E2D" stroke-linecap="round" stroke-linejoin="round"></path>
            <path d="M12.6338598,6.92180752 C12.8900838,6.81883251 13.5632324,6.86743164 13.7453613,7.53088379 C13.9274902,8.19433594 13.495726,8.56108749 13.239502,8.6640625 L6.83691085,9.8014077 C6.58068681,9.90438271 6.28949844,9.78014982 6.18652344,9.52392578 C6.08354843,9.26770174 6.20778132,8.97651338 6.46400536,8.87353837 L12.6338598,6.92180752 Z" id="Path-27" fill="#FFFFFF"></path>
            <path d="M15.0910751,10.0415811 C15.3472992,9.93860614 16.0204478,9.98720527 16.2025767,10.6506574 C16.3847056,11.3141096 15.9529414,11.6808611 15.6967173,11.7838361 L9.68658549,12.564842 C9.43036145,12.667817 9.13917309,12.5435841 9.03619808,12.2873601 C8.93322307,12.031136 9.05745596,11.7399477 9.31368,11.6369727 L15.0910751,10.0415811 Z" id="Path-27" fill="#FFFFFF"></path>
        </g>
    </g>
</svg>