<?xml version="1.0" encoding="UTF-8"?>
<svg width="48px" height="48px" viewBox="0 0 48 48" version="1.1" xmlns="http://www.w3.org/2000/svg" xmlns:xlink="http://www.w3.org/1999/xlink">
    <!-- Generator: Sketch 51.3 (57544) - http://www.bohemiancoding.com/sketch -->
    <title>category-headgear</title>
    <desc>Created with Sketch.</desc>
    <defs></defs>
    <g id="SVGs" stroke="none" stroke-width="1" fill="none" fill-rule="evenodd">
        <g id="Slices" transform="translate(-531.000000, 0.000000)"></g>
        <g id="Group-26" transform="translate(8.000000, 17.000000)" fill-rule="nonzero">
            <path d="M31.9128418,7.37874349 L31.9128418,7.37874349 C31.9128418,10.0333337 29.8852347,12.2482747 27.2409759,12.4822506 C23.1157542,12.847276 19.172473,13.0297852 15.4111328,13.0297852 C11.8280357,13.0297852 8.2552311,12.8641637 4.69271906,12.5329209 L4.69271945,12.5329168 C2.03354451,12.2856663 3.27059672e-16,10.0542712 0,7.3836263 L3.55271368e-15,7.3836263 C2.82581875,7.82057748 5.68102889,8.03980408 8.54043053,8.0393712 L23.4877645,8.03710837 C26.3089556,8.03668128 29.1258299,7.81656091 31.9128418,7.37874349 Z" id="Rectangle-10" fill="#715439"></path>
            <path d="M11.6934965,0.383402851 L15.5,1.45638021 L19.3065035,0.383402851 C19.9975446,0.188612166 20.7156531,0.590902589 20.9104438,1.28194366 C20.920247,1.31672168 20.928596,1.3518933 20.935469,1.3873669 L21.9583333,6.66666667 L9.04166667,6.66666667 L10.064531,1.3873669 C10.201098,0.682504774 10.8832111,0.22181058 11.5880733,0.358377616 C11.6235469,0.365250625 11.6587185,0.37359962 11.6934965,0.383402851 Z" id="Rectangle-11" fill="#715439"></path>
            <polygon id="Rectangle-12" fill="#FDA9A9" points="9.28909683 5.33333333 21.6983681 5.33333333 21.9583333 6.66463216 22.1882324 8 8.79797363 8 9.04166667 6.67358398"></polygon>
            <path d="M9.83008123,5.98333333 L9.92829531,5.45133886 L9.28909683,5.98333333 L9.83008123,5.98333333 Z M21.1630181,5.98333333 L21.6983681,5.98333333 L21.0604172,5.45790722 L21.1630181,5.98333333 Z M21.1692367,6.01517888 L21.3203824,6.78920605 L21.9578829,6.01463232 L21.1692367,6.01517888 Z M9.82275033,6.0230425 L9.04121619,6.02358414 L9.68086515,6.79158951 L9.82275033,6.0230425 Z" id="Rectangle-12" stroke="#D42E2D" stroke-width="1.3" fill="#FEA5A5"></path>
        </g>
    </g>
</svg>