<?xml version="1.0" encoding="UTF-8"?>
<svg width="48px" height="48px" viewBox="0 0 48 48" version="1.1" xmlns="http://www.w3.org/2000/svg" xmlns:xlink="http://www.w3.org/1999/xlink">
    <!-- Generator: Sketch 51.3 (57544) - http://www.bohemiancoding.com/sketch -->
    <title>category-pants</title>
    <desc>Created with Sketch.</desc>
    <defs></defs>
    <g id="SVGs" stroke="none" stroke-width="1" fill="none" fill-rule="evenodd">
        <g id="Slices" transform="translate(-413.000000, 0.000000)"></g>
        <g id="Group-31" transform="translate(16.000000, 13.000000)" fill-rule="nonzero">
            <path d="M1.125,0 L14.875,0 C15.4963203,-1.21782134e-15 16,0.503679656 16,1.125 L16,20.843301 C16,21.4612126 15.5016285,21.963469 14.8837355,21.9682671 L10.7751541,22.0001708 C10.2028822,22.0046146 9.71847023,21.5787273 9.64959556,21.0105978 L7.98065476,7.24393259 L6.34295033,20.9679015 C6.27543901,21.5336466 5.79563474,21.9595991 5.22587581,21.9595991 L1.125,21.9595991 C0.503679656,21.9595991 -3.67999413e-16,21.4559195 -4.4408921e-16,20.8345991 L0,1.125 C-7.6089797e-17,0.503679656 0.503679656,5.58223905e-16 1.125,4.4408921e-16 Z" id="Rectangle-14" fill="#152F71"></path>
            <path d="M0,1.1 L3.42857143,1.1 L1.72445793,5.42588424 C1.445381,6.13431973 0.761422864,6.6 1.13490383e-16,6.6 L0,1.1 Z" id="Rectangle-16" fill="#061948"></path>
            <path d="M12.5714286,1.1 L16,1.1 L14.1556008,5.54243229 C13.8897777,6.18269577 13.2646812,6.6 12.5714286,6.6 L12.5714286,1.1 Z" id="Rectangle-16" fill="#061948" transform="translate(14.285714, 3.850000) scale(-1, 1) translate(-14.285714, -3.850000) "></path>
            <path d="M0.5625,0 L15.4375,0 C15.7481602,-1.16075399e-15 16,0.251839828 16,0.5625 L16,2.2 L0,2.2 L0,0.5625 C-3.80448985e-17,0.251839828 0.251839828,5.70673477e-17 0.5625,0 Z" id="Rectangle-15" fill="#3157B2"></path>
        </g>
    </g>
</svg>