<?xml version="1.0" encoding="UTF-8"?>
<svg width="48px" height="48px" viewBox="0 0 48 48" version="1.1" xmlns="http://www.w3.org/2000/svg" xmlns:xlink="http://www.w3.org/1999/xlink">
    <!-- Generator: Sketch 51.3 (57544) - http://www.bohemiancoding.com/sketch -->
    <title>category-Skin color</title>
    <desc>Created with Sketch.</desc>
    <defs></defs>
    <g id="SVGs" stroke="none" stroke-width="1" fill="none" fill-rule="evenodd">
        <g id="Slices" transform="translate(-59.000000, 0.000000)"></g>
        <g id="Group-8" transform="translate(24.500000, 24.500000) rotate(-5.000000) translate(-24.500000, -24.500000) translate(10.000000, 15.000000)" fill-rule="nonzero">
            <path d="M18.4883219,11.1448992 C18.3806424,11.0991389 18.2705516,11.0510334 18.1580496,11.0005827 C18.0735701,10.9626985 17.9659233,10.9137125 17.8351093,10.8536246 C17.3554695,11.6353737 16.8572939,12.3823369 16.3405826,13.0945142 C15.2379312,14.6142859 10.6661585,19.6035417 5.45963529,18.7148718 C0.253112127,17.8262019 -0.185735799,14.3807823 0.048189982,13.6725641 C0.204140503,13.2004187 0.632776661,12.971468 1.33409846,12.9857121 C1.96214971,13.0997522 2.60823044,13.0332646 3.27234064,12.7862492 C4.39565288,12.368434 6.13456843,11.2626239 7.45645441,9.6044058 C9.52349501,7.01144069 10.1500456,4.82963916 10.5098797,2.55740685 C10.6831292,1.46339393 11.3103393,0.949751316 11.6051678,0.839670974 C12.3012811,0.57976262 14.7828238,0.202717362 18.0977163,0.0231650788 C21.4126089,-0.156387205 24.4726187,0.764210752 24.6831802,0.846136834 C24.8937417,0.928062915 25.9740201,1.24334987 27.055148,1.24078076 C28.1362759,1.23821165 29.0806167,1.94328978 28.9691763,2.9502384 C28.8948827,3.62153747 28.3677001,4.26067509 27.3876285,4.86765126 C26.9307575,7.26167648 26.1237313,8.91712085 24.9665496,9.83398437 C22.6693003,11.6541516 20.5093663,12.0920644 18.4867477,11.1477225 C18.4872726,11.1467812 18.4877973,11.1458401 18.4883219,11.1448992 Z" id="Combined-Shape" fill="#201927"></path>
            <path d="M1.24482567,14.0793504 C1.48160351,14.707212 2.10669001,15.2018369 3.1200852,15.5632251 C5.11501399,16.2746393 6.40873884,16.1462681 7.24662805,15.9592177 C8.34903709,15.7131158 10.4739913,15.2162746 12.8501711,12.4736206 C14.2209631,10.8914138 15.4965017,8.99758924 16.6767871,6.79214702 C17.1025358,6.19302092 17.7050504,5.88617872 18.484331,5.87162043 C19.6532519,5.84978299 23.5351699,5.96550234 26.1943945,4.12862163 C27.5771338,3.17348341 27.9884863,2.77091806 27.7662426,2.42708542 C27.543999,2.08325279 26.9955053,1.99276301 26.4950854,2.03015784 C25.9946655,2.06755267 24.4003027,1.6148183 24.0167749,1.49485511 C23.633247,1.37489192 20.8702465,0.784781489 18.6420044,0.889258652 C17.1565096,0.958910094 15.1422509,1.21448902 12.5992285,1.65599543 C11.9513352,1.77669112 11.6024372,2.03789345 11.5525344,2.43960244 C11.4776803,3.04216591 11.1579976,6.63103537 8.46227501,9.83626804 C8.01794701,10.3645771 6.93260158,11.7393692 4.80621117,12.8386127 C4.02444664,13.2427481 3.48929847,13.4386222 2.61113915,13.5965003 C2.46126514,13.6234451 1.92150414,13.6362502 1.46087426,13.5545025 C1.15378767,13.5000041 1.08177147,13.6749534 1.24482567,14.0793504 Z" id="Path-13" fill="#382E4A"></path>
            <path d="M11.1389084,12.1563868 C11.8695214,12.1563868 12.4618003,10.7802033 12.4618003,9.08259483 C12.4618003,7.38498638 11.8695214,6.00880282 11.1389084,6.00880282 C10.4082954,6.00880282 9.81601649,7.38498638 9.81601649,9.08259483 C9.81601649,10.7802033 10.4082954,12.1563868 11.1389084,12.1563868 Z" id="Oval-14" fill="#A3C5C8" transform="translate(11.138908, 9.082595) rotate(36.000000) translate(-11.138908, -9.082595) "></path>
            <ellipse id="Oval-13" fill="#A3C5C8" cx="19.43" cy="2.77692308" rx="4.06" ry="1.31538462"></ellipse>
        </g>
    </g>
</svg>