<?xml version="1.0" encoding="UTF-8"?>
<svg width="48px" height="48px" viewBox="0 0 48 48" version="1.1" xmlns="http://www.w3.org/2000/svg" xmlns:xlink="http://www.w3.org/1999/xlink">
    <!-- Generator: Sketch 51.3 (57544) - http://www.bohemiancoding.com/sketch -->
    <title>category-props</title>
    <desc>Created with Sketch.</desc>
    <defs></defs>
    <g id="SVGs" stroke="none" stroke-width="1" fill="none" fill-rule="evenodd">
        <g id="Slices" transform="translate(-708.000000, 0.000000)"></g>
        <g id="Group-23" transform="translate(13.000000, 13.000000)" fill-rule="nonzero">
            <path d="M0.148298787,20.5724963 L7.9644607,9.50718016 C8.35852935,8.9492984 9.12600077,8.80824487 9.69268259,9.18955037 L10.4960737,9.73013139 C11.0719771,10.1176418 11.2246997,10.8986431 10.8371893,11.4745465 C10.791583,11.5423248 10.7394771,11.6054952 10.6816111,11.6631612 L0.935253104,21.3758296 C0.735977558,21.5744163 0.413446463,21.5738579 0.214859741,21.3745823 C0.212859134,21.3725748 0.210875315,21.3705506 0.208908493,21.3685099 L0.208908493,21.3685099 C0.000318399208,21.1520891 -0.0251193687,20.8180038 0.148298787,20.5724963 Z" id="Path-29" stroke="#FFBE3E" stroke-width="0.628425" fill="#FDB854"></path>
            <path d="M8.90974057,8.60201576 C9.68228111,8.70828927 10.2767152,8.91426627 10.6930427,9.21994678 C11.317534,9.67846753 12.0037181,9.96935145 12.2132064,10.6411377 C12.8946226,10.9126967 16.7707909,10.9938252 17.0837264,6.50444536 C17.2923501,3.51152544 18.262368,1.84270867 19.9937801,1.49799505 C17.7206372,1.84409075 15.7045124,1.75391803 13.9454057,1.22747689 C11.666805,0.545568801 9.14965386,2.83900853 8.78773899,5.13216956 C8.54646241,6.66094358 8.5871296,7.81755898 8.90974057,8.60201576 Z" id="Path-30" stroke="#FFE496" stroke-width="0.628425" fill="#FFE09E" stroke-linecap="round" stroke-linejoin="round" transform="translate(14.313331, 5.925907) rotate(4.000000) translate(-14.313331, -5.925907) "></path>
            <path d="M20.4287267,5.47222222 C20.3390545,6.52564607 20.2466308,7.24359018 20.1514555,7.62605455 C19.9068902,8.60884715 19.5544954,9.14489746 19.5181482,9.60862223 C19.4818009,10.072347 19.647678,10.8040432 20.4293338,10.8040432 C21.2109896,10.8040432 21.4218156,9.8763734 21.4171597,9.39493137 C21.4071434,8.35918059 21.0776657,7.05161088 20.4287267,5.47222222 Z" id="Path-31" fill="#864EBA"></path>
            <path d="M7.60443115,9.98260498 L9.15773134,7.77444797 C9.84711023,7.8882105 10.423127,8.13528081 10.8857818,8.51565891 C11.4065266,8.94379657 11.8139093,9.50524202 12.10793,10.1999953 L10.2630219,12.0946689 C9.90387724,11.579116 9.48718308,11.1334565 9.01293945,10.7576904 C8.61297708,10.440781 8.14347432,10.1824191 7.60443115,9.98260498 Z" id="Path-33" stroke="#864EBA" stroke-width="0.628425" fill="#864EBA" stroke-linecap="round" stroke-linejoin="round"></path>
            <path d="M9.58312988,2.65124512 C10.8887533,1.11462402 12.3141276,0.470621745 13.8592529,0.719238281 C15.2978636,0.9507162 15.9322036,1.5463828 18.0161743,1.57733154 C20.3999023,1.61273193 20.4688721,1.47143555 20.5789185,1.80084229 C20.6522827,2.02044678 20.5583293,2.16609701 20.2970581,2.23779297 C18.9297399,2.50048375 18.0428787,3.51053421 17.6364746,5.26794434 C17.3799438,6.3772583 16.9036865,7.00488281 16.3939209,6.94708252 C15.8841553,6.88928223 15.5905762,6.56030273 15.5809326,5.86120605 C15.5712891,5.16210937 15.4569702,4.65942383 15.0511475,4.32629395 C14.6453247,3.99316406 13.684082,4.26531982 13.1739502,4.68371582 C12.4577383,5.27113295 10.2695313,5.51672363 9.66003418,4.79760742 C9.2537028,4.31819661 9.22806803,3.60274251 9.58312988,2.65124512 Z" id="Path-34" fill="#864EBA"></path>
        </g>
    </g>
</svg>