<?xml version="1.0" encoding="UTF-8"?>
<svg width="48px" height="48px" viewBox="0 0 48 48" version="1.1" xmlns="http://www.w3.org/2000/svg" xmlns:xlink="http://www.w3.org/1999/xlink">
    <!-- Generator: Sketch 51.3 (57544) - http://www.bohemiancoding.com/sketch -->
    <title>category-glasses</title>
    <desc>Created with Sketch.</desc>
    <defs></defs>
    <g id="SVGs" stroke="none" stroke-width="1" fill="none" fill-rule="evenodd">
        <g id="Slices" transform="translate(-590.000000, 0.000000)"></g>
        <g id="Group-5" transform="translate(9.000000, 20.000000)" fill-rule="nonzero">
            <path d="M3.12712462,0.759160727 C3.58155467,0.306096614 4.26556377,0.0530430383 5.17915192,0 L7.33549107,0 L9.3507849,0 C10.3855841,0.0242656297 11.1681411,0.295802904 11.6984559,0.814611822 C12.1992021,1.30449356 12.4477061,2.04164694 12.4439679,3.02607196 L12.4439679,5.22278842 C12.3559051,6.55232772 11.7940294,7.69244427 10.7583407,8.64313807 C9.82601451,9.49895184 8.64742763,9.9096114 7.22258003,9.87511674 C5.79166843,9.92231018 4.63289707,9.59399271 3.74626595,8.89016435 C3.05532047,8.34167579 2.63651522,7.55435678 2.48985022,6.52820734 L2.48985022,2.68121808 C2.47269598,1.84052176 2.68512077,1.19983597 3.12712462,0.759160727 Z" id="Rectangle-3" stroke="#F5CD2E" stroke-width="1.232" fill="#E98734"></path>
            <path d="M18.0604579,0.759160727 C18.514888,0.306096614 19.1988971,0.0530430383 20.1124853,0 L22.2688244,0 L24.2841182,0 C25.3189174,0.0242656297 26.1014744,0.295802904 26.6317893,0.814611822 C27.1325354,1.30449356 27.3810394,2.04164694 27.3773012,3.02607196 L27.3773012,5.22278842 C27.2892385,6.55232772 26.7273627,7.69244427 25.691674,8.64313807 C24.7593478,9.49895184 23.580761,9.9096114 22.1559134,9.87511674 C20.7250018,9.92231018 19.5662304,9.59399271 18.6795993,8.89016435 C17.9886538,8.34167579 17.5698486,7.55435678 17.4231836,6.52820734 L17.4231836,2.68121808 C17.4060293,1.84052176 17.6184541,1.19983597 18.0604579,0.759160727 Z" id="Rectangle-3" stroke="#F5CD2E" stroke-width="1.232" fill="#E98734" transform="translate(22.399782, 4.939783) scale(-1, 1) translate(-22.399782, -4.939783) "></path>
            <path d="M17.4222222,4.9382716 C17.4222222,3.57460556 16.3079087,2.4691358 14.9333333,2.4691358 C13.558758,2.4691358 12.4444444,3.57460556 12.4444444,4.9382716" id="Oval-29" stroke="#F5CD2E" stroke-width="1.232"></path>
            <path d="M1.86666667,4.9382716 C2.8975982,4.9382716 2.48888889,4.10916929 2.48888889,3.08641975 C2.48888889,2.06367022 2.8975982,1.2345679 1.86666667,1.2345679 C0.835735134,1.2345679 0,2.06367022 0,3.08641975 C0,4.10916929 0.835735134,4.9382716 1.86666667,4.9382716 Z" id="Oval-30" fill="#F5CD2E"></path>
            <path d="M29.2444444,4.9382716 C30.275376,4.9382716 29.8666667,4.10916929 29.8666667,3.08641975 C29.8666667,2.06367022 30.275376,1.2345679 29.2444444,1.2345679 C28.2135129,1.2345679 27.3777778,2.06367022 27.3777778,3.08641975 C27.3777778,4.10916929 28.2135129,4.9382716 29.2444444,4.9382716 Z" id="Oval-30" fill="#F5CD2E" transform="translate(28.662190, 3.086420) scale(-1, 1) translate(-28.662190, -3.086420) "></path>
            <path d="M4.97777778,4.56030575 L6.87907986,2.4691358" id="Path-25" stroke="#FEBB85" stroke-width="1.232" stroke-linecap="round"></path>
            <path d="M6.22222222,6.39378531 L9.79053302,2.4691358" id="Path-25" stroke="#FEBB85" stroke-width="1.232" stroke-linecap="round"></path>
            <path d="M19.9111111,4.56030575 L21.8124132,2.4691358" id="Path-25" stroke="#FEBB85" stroke-width="1.232" stroke-linecap="round"></path>
            <path d="M21.1555556,6.39378531 L24.7238664,2.4691358" id="Path-25" stroke="#FEBB85" stroke-width="1.232" stroke-linecap="round"></path>
        </g>
    </g>
</svg>