<?xml version="1.0" encoding="utf-8"?>
<!-- Generator: Adobe Illustrator 21.0.2, SVG Export Plug-In . SVG Version: 6.00 Build 0)  -->
<svg version="1.1" id="Layer_1" xmlns="http://www.w3.org/2000/svg" xmlns:xlink="http://www.w3.org/1999/xlink" x="0px" y="0px"
	 viewBox="0 0 48 48" enable-background="new 0 0 48 48" xml:space="preserve">
<title>category-hair</title>
<desc>Created with Sketch.</desc>
<g id="Slices" transform="translate(-236.000000, 0.000000)">
</g>
<path id="Oval-2" fill="#382E4A" d="M24,34.4c6.6,0,12-3.1,12-8.2c0-1.5-0.5-3-1.3-4.4c0.6-2.2,1.2-6.5-0.2-7.5
	c-1.9-1.3-5.2,1.6-6.1,2.2c-1.4-0.5-2.9-0.8-4.5-0.8c-1.6,0-3.1,0.3-4.4,0.8c-1-0.6-4-3.2-5.8-2.3c-2,0.8-0.9,6-0.4,7.5
	c-0.8,1.4-1.3,3-1.3,4.5C12,31.4,17.4,34.4,24,34.4z"/>
<path id="Path-46" fill="#EA2A4F" d="M23.5,25.9c2.9-0.2,5.1-1.7,6.6-4.5c2-3.9,3.6,8.2-1.9,12c-0.5,0.3-0.9,0.5-0.8,0.6
	c0.1,0.1,0.4,0.1,1.1,0c4-0.6,7.2-3.1,7.5-7.2C36.5,21.5,29.9,14,24.3,14S11.6,20,12,26.8c0.2,3,2.3,6.2,7.7,7.3
	c0.6,0.1,1,0.2,1.1,0c0.1-0.2-0.3-0.3-0.9-0.7c-1.9-1.3-3-4.2-3.3-6.3c1.9-0.6,4.7-1.6,7.5-4c0.2-0.2,0.5-0.4,0.6-0.4
	c0.1,0,0.1,0.2,0.1,0.4C24.8,23.7,24.4,24.6,23.5,25.9z"/>
<path id="Path-47" fill="#BC2045" d="M16.7,27.1c-0.8,0.2-1.7,0.3-2.7,0.4c0.2,0.8,1.4,4.3,6.8,6.6c-0.2-0.2-2.2-2.1-3-3.5
	C17.2,29.4,16.8,28.3,16.7,27.1z"/>
</svg>
