<?xml version="1.0" encoding="utf-8"?>
<!-- Generator: Adobe Illustrator 21.0.2, SVG Export Plug-In . SVG Version: 6.00 Build 0)  -->
<svg version="1.1" id="Layer_1" xmlns="http://www.w3.org/2000/svg" xmlns:xlink="http://www.w3.org/1999/xlink" x="0px" y="0px"
	 viewBox="0 0 48 48" enable-background="new 0 0 48 48" xml:space="preserve">
<title>category-facial hair</title>
<desc>Created with Sketch.</desc>
<g id="SVGs">
	<g id="Slices" transform="translate(-295.000000, 0.000000)">
	</g>
	<g id="Group-2" transform="translate(12.000000, 14.000000)">
		<path id="Oval-2" fill="#382E4A" d="M12,20.4c6.6,0,12-3.1,12-8.2c0-1.5-0.5-3-1.3-4.4c0.6-2.2,1.2-6.5-0.2-7.5
			c-1.9-1.3-5.2,1.6-6.1,2.2C15.1,2,13.6,1.7,12,1.7c-1.6,0-3.1,0.3-4.4,0.8c-1-0.6-4-3.2-5.8-2.3c-2,0.8-0.9,6-0.4,7.5
			C0.5,9.1,0,10.7,0,12.2C0,17.4,5.4,20.4,12,20.4z"/>
		<path id="Path-23" fill="#F4142A" d="M12,12c-1.1-0.9-2.1-1.2-3.1-0.9c-1.5,0.4-2.1,1.2-2.1,2.8c0,0.8-0.7,1.1-2.2,0.9
			c-0.3-0.1-0.8-0.2-1.6-0.4c0.4,2,1.9,3.2,4.3,3.5c2.5,0.4,4-0.3,4.7-2c0.5,1.6,2.1,2.3,4.9,2c2.3-0.2,3.6-1.4,4.2-3.5
			c-0.7,0.2-1.2,0.3-1.5,0.4c-1.5,0.3-2.3,0-2.3-0.8c0-1.6-0.6-2.4-2-2.8C14.2,10.8,13.1,11.1,12,12z"/>
		<path id="Path-3" fill="#C65566" d="M13.1,11.9c1-0.5,2-0.5,2.8,0s1,1.2,0.7,2c-0.3-0.6-0.6-1.1-1-1.4S14.3,11.9,13.1,11.9z"/>
		<path id="Path-3_1_" fill="#C65566" d="M10.8,11.9c-1-0.5-2-0.5-2.8,0s-1,1.2-0.7,2c0.3-0.6,0.6-1.1,1-1.4S9.6,11.9,10.8,11.9z"/>
	</g>
</g>
</svg>
