<?xml version="1.0" encoding="UTF-8"?>
<svg width="48px" height="48px" viewBox="0 0 48 48" version="1.1" xmlns="http://www.w3.org/2000/svg" xmlns:xlink="http://www.w3.org/1999/xlink">
    <!-- Generator: Sketch 51.3 (57544) - http://www.bohemiancoding.com/sketch -->
    <title>category-facial hair</title>
    <desc>Created with Sketch.</desc>
    <defs></defs>
    <g id="SVGs" stroke="none" stroke-width="1" fill="none" fill-rule="evenodd">
        <g id="Slices" transform="translate(-295.000000, 0.000000)"></g>
        <g id="Group-2" transform="translate(12.000000, 14.000000)" fill-rule="nonzero">
            <path d="M12,20.4394884 C18.627417,20.4394884 24,17.3818307 24,12.2097587 C24,10.7048114 23.5451203,9.18666835 22.7368058,7.79042792 C23.3015485,5.60499595 23.9777454,1.25405697 22.5848912,0.314396027 C20.7182655,-0.944885293 17.4236886,1.9448364 16.4961423,2.55390482 C15.1075418,2.01637656 13.5898783,1.70975868 12,1.70975868 C10.4382143,1.70975868 8.94611375,2.00563666 7.57758634,2.52562777 C6.56933594,1.94885483 3.62111085,-0.62511186 1.75669643,0.182342343 C-0.202357701,1.0307838 0.892717634,6.17013861 1.32905085,7.67825318 C0.479628811,9.10515361 0,10.664413 0,12.2097587 C0,17.3818307 5.372583,20.4394884 12,20.4394884 Z" id="Oval-2" fill="#382E4A"></path>
            <path d="M11.9932333,12.0269382 C10.9415745,11.1656412 9.91204062,10.8579487 8.90463165,11.1038607 C7.39351819,11.4727288 6.77710359,12.3146287 6.77710359,13.9299538 C6.77710359,14.7460341 6.05405735,15.0308689 4.60796487,14.7844582 C4.29986987,14.7319595 3.76388158,14.5989546 3,14.3854435 C3.42101073,16.3799023 4.85495902,17.5536504 7.30184488,17.9066877 C9.77559258,18.2636007 11.3393887,17.5966379 11.9932333,15.9057993 C12.470889,17.5454898 14.0883199,18.2124526 16.8455261,17.9066877 C19.0974662,17.6569552 20.4822908,16.4832071 21,14.3854435 C20.2686334,14.5853999 19.7535267,14.7113834 19.4546798,14.763394 C17.9514093,15.0250196 17.1997741,14.7472062 17.1997741,13.9299538 C17.1997741,12.3385222 16.6137063,11.4934044 15.2265537,11.1038607 C14.2046819,10.8168961 13.1269084,11.1245886 11.9932333,12.0269382 Z" id="Path-23" fill="#E9C264"></path>
            <path d="M13.0709229,11.8863525 C14.1165771,11.3382568 15.0343018,11.3381551 15.8240967,11.8860474 C16.6138916,12.4339396 16.8448893,13.0918376 16.5170898,13.8597412 C16.2406413,13.253418 15.8995361,12.7818604 15.4937744,12.4450684 C15.0880127,12.1082764 14.2803955,11.9220378 13.0709229,11.8863525 Z" id="Path-3" fill="#E5D8A0"></path>
            <path d="M7.24549011,11.8863525 C8.29114441,11.3382568 9.20886902,11.3381551 9.99866394,11.8860474 C10.7884589,12.4339396 11.0194566,13.0918376 10.6916571,13.8597412 C10.4152085,13.253418 10.0741034,12.7818604 9.66834168,12.4450684 C9.26257996,12.1082764 8.45496277,11.9220378 7.24549011,11.8863525 Z" id="Path-3" fill="#E5D8A0" transform="translate(9.040683, 12.667473) scale(-1, 1) translate(-9.040683, -12.667473) "></path>
        </g>
    </g>
</svg>