<?xml version="1.0" encoding="utf-8"?>
<!-- Generator: Adobe Illustrator 23.0.3, SVG Export Plug-In . SVG Version: 6.00 Build 0)  -->
<svg version="1.1" id="Layer_1" xmlns="http://www.w3.org/2000/svg" xmlns:xlink="http://www.w3.org/1999/xlink" x="0px" y="0px"
	 viewBox="0 0 2000 2000" enable-background="new 0 0 2000 2000" xml:space="preserve">
<g id="beard_x5F_full">
	<g id="_x30_1_x5F_FacialHair_x5F_WizardBeard_x5F_Main_Asset">
		<path fill="#9F592A" d="M953.5,1339.2c-2.3-2-4.5-4.1-6.8-6.2C948.8,1334.8,951.1,1336.8,953.5,1339.2z"/>
		<path fill="#9F592A" d="M1289.9,1006.1c-9.2-39.4-2.1-81.9,1.8-100.9s13-35.3,17.7-95.9c4.8-60.6-7.6-70.2-15.8-80.4
			c-8.2-10.2-19.3-3.3-42.5,11.2s-46.8,27.3-46.8,27.3c-18.5-42.3-113-13.2-129.7-6.9s-23.2,19.6-50.9,13.8
			c-27.7-5.8-58.8-14.6-103.2,0C876.1,789,872.2,804,872.2,804s-64-4.6-89.5-8.4c-25.5-3.8-37.8-8.1-61-18.5
			c-23.2-10.5-29.4-14-59.5-39.3c0,0,0,0-1.5,3.2s3.7,8.5,9.5,23s13.5,36.1,17.6,56.2c4.2,20.1,6.6,34.2,6.6,34.2
			c1.1,15-2.3,26.3-3.9,75.4c-1.6,49.1,6.8,67.5,15.9,83.9c9,16.3,27.6,45.3,51.7,76.9c24.1,31.6,34.4,65.1,41.4,89.1
			c3.2,11,7,23.8,10.1,34.4l-0.2,0.5c1.6,6.7,3.5,13.1,5.9,19c0.5,1.8,0.8,2.8,0.8,2.8s0.1,0.1,0.4,0.2
			c21.9,52.8,71.3,76.8,107.6,103.3c-9-15-10.7-28-10.7-28c27.5,30.8,81.4,65.3,99.4,76.4c1.3,0.9,2.5,1.8,3.6,2.5
			c15,10.2-8.5-11.3-23.1-38s-18.3-43.2-18.3-43.2c35.6,27.6,71.3,56.9,94.8,82.1c23.6,25.2,29.7,43.8,33,49.6
			c3.3,5.7,5,0.6,6.1-6.8s15.9-25.8,28.9-46.8c13.1-21,25.4-48.9,25.4-48.9c6.8,17.5,40.2,48.9,40.2,48.9s3.5-15.7,15.1-38.3
			c11.6-22.6,28.2-38.5,40.2-61c12.1-22.4,45.7-78.9,51.3-141.6C1315.5,1084,1299,1045.4,1289.9,1006.1z M1076.3,851.3
			c-12.2,7.2-29.9,11.3-53.5,8.9c-23.6-2.4-33.9-8.9-33.9-8.9s7.7-18,15.7-30.1c7.9-12.1,15.4-17.6,25.4-23.2
			c9.9-5.5,16.7-9.5,16.7-9.5c10.4-1,24.5-4.7,41.1,11.7s16.6,27.9,16.6,27.9S1088.5,844.2,1076.3,851.3z"/>
	</g>
	<g id="_x30_1_x5F_FacialHair_x5F_WizardBeard_x5F_Highlights">
		<path opacity="0.35" fill="#E8FFFA" enable-background="new    " d="M1133.1,769c-12.3-6.2-27.1-9.4-40.3-7.4
			c-7.6,1.1-14.8,3.2-22.2,5.2c-2,0.6-6.3,1.9-8.4,2.5c3.8-1.7,8.7-3.4,12.6-4.8c8-2.7,17.3-4.8,25.6-5.7c8.4-0.9,16.4,1.2,24.7,2.9
			c7.8,1.6,16.8,3.8,22.6,9.5c0.3,0.3,0.8-0.1,0.6-0.5c-1.8-3-4.9-4.8-8.1-6.1c-3.9-1.6-8-2.9-12-3.9c-9-2.4-17.3-4.5-26.5-3.7
			c-8.8,0.8-18.6,3-27,5.8c-1.1,0.4-2.1,0.7-3.2,1.1c13.5-6.6,27.9-8.7,42.3-11.8c11.1-2.3,22.4-3.3,33.8-2.6
			c12,0.7,22.6,4.5,33.4,9.5c0.9,0.4,1.7-0.8,0.8-1.4c-15.4-10.3-35.6-12.3-54.2-10.5c-11.2,1.7-21.9,4.1-30.9,6.5
			c-5.9,1.8-11.6,3.9-17.3,6.1c-10.3,4-20.3,9-28.6,16.3c-0.6,0.5,13.2-6.7,19.8-8.5c6.8-1.9,15.4-3.3,22.3-4.4
			c7-1.1,13.2-0.9,20.1,0.6c7.7,1.6,18.9,6.3,25.6,8.4C1139.1,772.2,1133.5,769.2,1133.1,769z"/>
		<path opacity="0.35" fill="#E8FFFA" enable-background="new    " d="M1178.7,830c2.6-9,5.1-18.1,6.3-27.3c1-8,2.1-17.9-2.6-24.9
			c-0.2-0.3-0.7-0.1-0.6,0.2c3.8,9.2,2.3,20.6,0.6,30.1c-1.6,8.8-4.2,17.4-6.9,25.9c-3.3,10.5-8.5,20.1-12.7,30.2
			c0.6-2.2,1.1-4.5,1.7-6.7c1.4-5.1,2.9-10.2,4.6-15.2c1.5-4.2,3.8-8.6,3.5-13.1c0-0.5-0.7-0.6-0.8-0.1c-2.6,10.1-7,19.6-9.9,29.6
			c-2.7,9.4-6.5,20.6-5.8,30.5c0,0.7,0.9,0.8,1.2,0.2c1.5-3.9,2.1-8.2,2.8-12.4c2.3-7.9,6-15.3,9.4-22.7
			C1173.1,846.4,1176.2,838.4,1178.7,830z"/>
		<path opacity="0.35" fill="#E8FFFA" enable-background="new    " d="M1222.1,808.8c-0.2,0.9,1.2,1.3,1.4,0.4
			c1.5-9.1,2.3-18.1,2.3-27.3c0-7.9-0.2-15.4-3.5-22.7c-0.1-0.3-0.6-0.1-0.5,0.2c2.4,7.6,2.6,15.5,2.4,23.3
			C1223.9,791.4,1223.7,800.3,1222.1,808.8z"/>
		<path opacity="0.35" fill="#E8FFFA" enable-background="new    " d="M1196.3,888.8c-0.1,0.6,0.9,0.8,1.1,0.3
			c4.7-8.2,6.6-19,9.2-28.1c2.9-10,5.5-20.1,7.7-30.3c2-9.3,3.7-18.7,4.9-28.2c1.2-9.4,3.2-20.7,1.4-30.2c-0.1-0.4-0.6-0.4-0.7,0
			c-0.9,4.3-0.7,8.9-1,13.3c-0.3,5-0.9,10-1.5,15c-1.3,10.5-3.2,21-5.5,31.3c-2.2,9.9-4.9,19.6-7.7,29.3
			C1201.6,870.2,1197.3,879.6,1196.3,888.8z"/>
		<path opacity="0.35" fill="#E8FFFA" enable-background="new    " d="M1244.9,747.1c1.7,6.3,0.7,13.3,1.3,19.6
			c0.1,0.7,1.3,1,1.4,0.2c0.9-5.9,0.7-14.7-2.3-20C1245.2,746.7,1244.8,746.8,1244.9,747.1z"/>
		<path opacity="0.35" fill="#E8FFFA" enable-background="new    " d="M1249.9,751.3c1.1,4,1.8,8.1,2.6,12.2c0.2,1,2,0.8,1.9-0.3
			c-0.3-3.5-1.2-6.8-2.3-10.2c-1.3-3.9-2-7.8-3-11.7l0,0c-0.2,0.1-0.3,0.2-0.5,0.3C1248,744.9,1249,748.2,1249.9,751.3z"/>
		<path opacity="0.35" fill="#E8FFFA" enable-background="new    " d="M1262.5,772c0.8-5.9-0.8-12.7-1.9-18.6
			c-0.9-4.7-1.2-10.9-4.8-14.3c-0.2-0.2-0.6,0.1-0.5,0.4c5.5,9.7,3.1,22.3,6,32.7C1261.5,772.9,1262.4,772.6,1262.5,772z"/>
		<path opacity="0.35" fill="#E8FFFA" enable-background="new    " d="M1252.3,827.2c-0.1,1,1.6,1.2,1.8,0.2
			c2.8-14.4,3.5-29,3.8-43.6c0.2-7.4,0-14.9-0.4-22.3c-0.3-6.4-0.5-13.3-2.8-19.4c-0.1-0.4-0.7-0.2-0.6,0.2
			c1.7,6.8,1.7,14.2,2.1,21.2c0.3,7.1,0.4,14.2,0.3,21.3C1256.2,799,1254.1,813.1,1252.3,827.2z"/>
		<path opacity="0.35" fill="#E8FFFA" enable-background="new    " d="M1282.8,770.4c0,1.3,0.6,0.1,0.5-1.2
			c-0.6-13.6-1.7-29.1-6.6-41.9c-0.1-0.3-0.6-0.3-0.6,0.1c0.8,6.4,3.3,12.6,4.2,19C1281.4,753.9,1282.6,762.7,1282.8,770.4z"/>
		<path opacity="0.35" fill="#E8FFFA" enable-background="new    " d="M1276.8,725.7c3.8,10.8,7,22,8.6,33.4
			c0.2,1.1,1.9,0.7,1.7-0.5c-1.9-11.5-4.8-22.6-9.7-33.2l0,0C1277.2,725.4,1277,725.5,1276.8,725.7
			C1276.8,725.6,1276.8,725.6,1276.8,725.7z"/>
		<path opacity="0.35" fill="#E8FFFA" enable-background="new    " d="M1281.8,724.9c-0.3-0.2-0.7,0.1-0.4,0.4
			c6.1,7.1,11.5,11.6,16.7,22.6c0.2,0.4,0.8,0,0.7-0.4C1295.5,739.3,1288.7,730.5,1281.8,724.9z"/>
		<path opacity="0.35" fill="#E8FFFA" enable-background="new    " d="M1287,864.1c4.4-16.5,7.6-33.8,9.8-50.7
			c2.3-17.7,3.9-36.1,2.8-54c-0.1-0.9-1.4-1-1.5,0c-0.4,18.1-0.8,35.9-3.2,53.9c-1.2,8.9-2.8,17.7-4.7,26.5
			c-1.7,7.8-4.9,16.1-5,24.1C1285.3,864.9,1286.7,865.1,1287,864.1z"/>
		<path opacity="0.35" fill="#E8FFFA" enable-background="new    " d="M1053.7,863.5c-8.1,27.4-6.3,57.7,4,84.4
			c0.3,0.9,1.6,0.5,1.4-0.4c-3.1-13.9-6.8-27.4-7.9-41.6c-1.1-14.2-0.7-28.5,3.1-42.2C1054.4,863.3,1053.8,863.1,1053.7,863.5z"/>
		<path opacity="0.35" fill="#E8FFFA" enable-background="new    " d="M1054.9,863.2c3.3,14.9,2.2,29.6,3.4,44.7
			c0.1,1.5,2.5,1.5,2.3,0c-1.3-14.7,0.2-30.8-4.9-44.9C1055.5,862.4,1054.7,862.6,1054.9,863.2z"/>
		<path opacity="0.35" fill="#E8FFFA" enable-background="new    " d="M1063.6,903.2c0,1.5,2.4,1.5,2.3,0c-1-13.5-2.5-28.6-7.9-41.1
			c-0.2-0.4-0.7-0.1-0.6,0.3c1.1,6.5,3.2,12.9,4.3,19.4C1062.9,888.9,1063.4,896,1063.6,903.2z"/>
		<path opacity="0.35" fill="#E8FFFA" enable-background="new    " d="M1031.6,863.1c0-0.3-0.4-0.4-0.5-0.1c-7.5,15.6-8.8,34-7.8,51
			c0.1,1.6,2.6,1.6,2.5,0c-0.8-9.2-1.5-18.6,0.2-27.7C1027.4,878.4,1030.8,871,1031.6,863.1z"/>
		<path opacity="0.35" fill="#E8FFFA" enable-background="new    " d="M1029.9,906.2c0.1-7.1,0.1-14.2,0.7-21.3s2.4-14,3-21
			c0.1-0.6-0.8-0.6-1-0.1c-2.2,6.3-2.8,13.6-3.7,20.2c-1,7.4-1.6,14.8-1.5,22.2C1027.4,907.8,1029.9,907.8,1029.9,906.2z"/>
		<path opacity="0.35" fill="#E8FFFA" enable-background="new    " d="M902.8,812.6c-0.8,0.9-4.2,5.5-3.2,4.8
			c8.1-6.3,21.5-17.8,30.4-22.7c4.6-2.5,13.5-6.3,18-7.6c6.7-2.5,12-4.8,18.9-5.1c-2.4,0.5-4.9,0.9-7.2,1.9c-2.4,1-4.6,2.1-6.8,3.3
			c-5.9,3.4-11.4,7.5-17.1,11.2c-4.2,2.7-8.2,5.6-11.9,8.8c-5.8,5-13.1,11.7-15.1,19.7c0.7-0.1,1.2-0.6,1.7-1
			c3.6-3.4,7.1-6.7,10.5-10.2c3.5-3.6,6.9-7.4,10.7-10.6c4.8-4,10-7.4,15.1-10.8c5.1-3.4,10.4-6.5,16.2-8.4
			c5.3-1.7,11.6-3.9,17.1-4.5c0.6-0.1,1.3-0.1,1.9-0.2c9.7-1.1,19.8-2.1,29.6-2.2c6.5,0,10.4,0.2,17,1.3c0.8,0.1,3.3,1.4,4.1,1.4
			c0.5,0-0.2-0.4-1.3-1.1c-3.4-1.9-7.2-2.8-11-2.9c-23.7-0.5-37.9-1-57.6,2.8c-11.3,2.2-23.9,7.6-34.8,13.3
			C919.6,798.2,909.3,805.4,902.8,812.6z"/>
		<path opacity="0.35" fill="#E8FFFA" enable-background="new    " d="M982.8,791.2c-12.2,4.3-25,11.7-33.3,22.4
			c-0.4,0.5,0.2,1.1,0.7,0.7c10.3-9.9,21.5-17.7,34.8-22.2c7.8-2.6,17.3-3.8,25.3-5.4l0.7-0.1c2-0.3,16.2-0.9,18.6-0.5
			c-0.9-0.3-3.1-1.1-4.4-1.1C1009,785.3,997.9,786,982.8,791.2z"/>
		<path opacity="0.35" fill="#E8FFFA" enable-background="new    " d="M1029.9,786.2c-0.1,0-0.2-0.1-0.3-0.1
			C1030.1,786.3,1030.2,786.4,1029.9,786.2z"/>
		<path opacity="0.35" fill="#E8FFFA" enable-background="new    " d="M974.2,824.5c9.9-12.2,23-21.2,36-29.9
			c0.2-0.1,0.3-0.3,0.3-0.4c5.2-1.8,10.6-3.1,16.2-4c0.3,0-13,0.9-19.8,2.4c-13.3,5-25.4,12.8-35.7,23c-7.5,7.4-14.2,15.7-20,24.4
			c-6.7,10-9.9,20.2-12.5,31.8c-0.1,0.6,0.7,0.9,0.9,0.3c3.6-10.3,7.4-20.8,13.4-29.9c5.8-8.8,12.6-17.2,20.1-24.6
			c9.1-9,19.5-16.1,30.9-20.9c-11.3,7.7-22.6,15.7-31.5,26.2c-9.6,11.4-16.3,25-21.8,38.8c-12.5,31.4-23,65.2-20.2,99.4
			c0.1,1.4,2.3,1.4,2.2,0c-1.5-33,8-64.9,19.7-95.4C958.1,851.2,964.3,836.6,974.2,824.5z"/>
		<path opacity="0.35" fill="#E8FFFA" enable-background="new    " d="M1296.1,1074.2c-0.1-0.3-0.6-0.3-0.6,0
			c-1.4,10-0.1,20.8-0.1,30.8c0,2.8,0,5.6,0,8.4c-0.5-10-1.7-20.1-3-30c-0.8-6.5-1.9-13.1-3.1-19.5c-1.3-6.9-2.4-14.4-5.1-20.8
			c-0.1-0.3-0.6-0.1-0.6,0.2c0.3,6.5,2.2,13,3.2,19.4c1.2,7.6,2.4,15.2,3.4,22.8c1.8,14.2,2.3,28.4,3.3,42.7c0.1,1,1.2,1.3,1.8,0.9
			c0,3,0,5.9,0,8.9c0,1.6,2.4,1.6,2.5,0c0.2-10.9,0.1-21.8-0.2-32.7C1297.3,1095,1298.2,1084,1296.1,1074.2z"/>
		<path opacity="0.35" fill="#E8FFFA" enable-background="new    " d="M1269.1,1059.8c2.1,10.4,3.7,20.9,4.8,31.4
			c1,9.7,1.4,19.6,3.1,29.3c0.1,0.5,0.8,0.3,0.8-0.1c2.2-19.7-2.7-40.9-6.8-60.1c-4.3-20.3-9.5-40.6-16.6-60.2
			c-0.1-0.3-0.7-0.2-0.6,0.2C1259.1,1020,1265.1,1039.6,1269.1,1059.8z"/>
		<path opacity="0.35" fill="#E8FFFA" enable-background="new    " d="M1264.4,1084.3c1.7,13.2,2.7,26.6,3.2,39.9
			c0.5,13,0.3,26-0.4,39c-0.8,13.7-3,27.1-4.3,40.7c-0.1,1.1,1.7,1.3,1.9,0.3c2.9-13,3.8-26.8,4.7-40c0.8-13.6,1-27.3,0.5-40.9
			c-0.5-13.1-1.8-26.1-3.6-39.2c-1.9-13.5-4.2-28-8.4-41c-0.1-0.4-0.7-0.2-0.6,0.2c1.1,6.6,2.9,13,4.1,19.6
			C1262.5,1070,1263.5,1077.2,1264.4,1084.3z"/>
		<path opacity="0.35" fill="#E8FFFA" enable-background="new    " d="M1220.4,1154.7c0.3-4.1-0.2-8.5-0.9-12.8
			c0.3-3.6-0.5-7.6-0.9-11.1c-0.5-4.9-1.1-9.8-1.9-14.6c-1.7-9.4-3.5-20-8.4-28.4c-0.2-0.3-0.6-0.1-0.5,0.2
			c2.7,10.2,5.9,19.6,7.1,30.2c0.3,2.8,0.6,5.6,0.9,8.3c-2.1-7.3-4.7-14.3-8.1-21.1c-0.2-0.4-0.8-0.1-0.6,0.3
			c2.9,7.9,5.7,15.9,7.5,24.2c1.9,8.3,2.3,16.8,4.1,25C1218.8,1156,1220.3,1155.7,1220.4,1154.7z"/>
		<path opacity="0.35" fill="#E8FFFA" enable-background="new    " d="M1191.4,1152.3c-0.2-18-3.6-35.9-7.4-53.4
			c-0.1-0.4-0.6-0.2-0.6,0.2c3.2,17.6,4.5,35.4,6.1,53.2C1189.6,1153.5,1191.4,1153.5,1191.4,1152.3z"/>
		<path opacity="0.35" fill="#E8FFFA" enable-background="new    " d="M1211.5,1309.5c0.4-0.3-8.8-1.7-13.1-10
			c-0.2-0.4-0.8-0.1-0.7,0.3c1.3,4.2,3.3,7.8,7.4,9.7c-6.5-1.5-10.7-6.5-13.5-12.8c-1.5-9.5-2.6-18.9-3.5-28.4
			c0.4-6.6,0-13.5,0.6-20c0.9-9.4,2.5-18.7,4.6-28c3.8-16.9,7.9-33.4,7.9-50.8c0-33.5-7.1-68.5-20.6-99.1c-0.2-0.4-0.8-0.1-0.6,0.3
			c11,32.7,19.5,67.1,18.4,101.8c-0.5,17.6-5.4,34.5-9,51.6c-0.1,0.7-0.3,1.3-0.4,2c0.1-0.9,0.2-1.9,0.2-2.8c0-0.7-0.9-0.7-1.1-0.1
			c-4,9.6-4.8,21.1-5.2,31.4c-0.4,10.6,0.2,21.2,2.1,31.6c1.4,8.1,4,16.8,10.5,22.3C1200.5,1312.7,1205.6,1313.5,1211.5,1309.5z"/>
		<path opacity="0.35" fill="#E8FFFA" enable-background="new    " d="M1101.9,1303.5c0-0.4-0.5-0.4-0.7-0.1c-1,2.6-1.4,5.6-1.7,8.4
			c-0.3,2.1-1,4.5,0.4,6.2c0.5,0.6,1.5,0,1.3-0.7c-0.7-2,0.1-5,0.3-7.1C1101.8,1308.1,1102.1,1305.7,1101.9,1303.5z"/>
		<path opacity="0.35" fill="#E8FFFA" enable-background="new    " d="M1105.3,1348.2c-0.4-9,0.9-18.7-0.4-27.6
			c-0.1-0.4-0.6-0.3-0.7,0c-2.3,8.5-1.4,18.8-1.2,27.6c0.2,9.8,1,19.6,2.2,29.3c0.2,1.8,3,1.8,2.8,0
			C1106.7,1367.8,1105.7,1358,1105.3,1348.2z"/>
		<path opacity="0.35" fill="#E8FFFA" enable-background="new    " d="M1086.7,1372.5c4,13.2,13.7,36.5,13.5,35.4
			c-0.8-8.2-3.6-15.8-5.4-23.8c-2.1-9.4-4.1-20.3-8.7-28.8c-0.2-0.3-0.6-0.1-0.6,0.2c1.4,9,4.6,17.8,6.5,26.7
			c-1-3.4-2.1-6.9-3.1-10.3c-4-13.1-8.2-26.5-13.5-39.2c-0.3-0.7-1.4-0.5-1.2,0.3C1077.8,1346.3,1082.7,1359.3,1086.7,1372.5z"/>
		<path opacity="0.35" fill="#E8FFFA" enable-background="new    " d="M1118.1,1188.5c0.5-14.6,0.1-29.4-2.1-43.9s-4.7-30.3-12-43.2
			c-0.2-0.3-0.7-0.1-0.5,0.2c11.2,27.7,13.4,59.2,12.3,88.8c-0.6,15.3-2.4,30.7-4.7,45.8c-2.3,14.8-5.8,29.5-7.8,44.4
			c-0.2,1.5,2.2,1.8,2.6,0.4c3.9-15.3,5.9-31.3,8.1-46.9C1116.1,1219,1117.6,1203.8,1118.1,1188.5z"/>
		<path opacity="0.35" fill="#E8FFFA" enable-background="new    " d="M1124.2,1150.2c-0.5,10.6,0.2,21.3,0,31.9
			c-0.2,10.9-0.8,21.9-1.7,32.8c-1,11.1-2.5,22.2-4.4,33.2c-1.8,10.8-4.6,21.5-6.3,32.3c-0.2,1.4,1.7,2,2.1,0.6
			c6.5-20.7,8.7-43.6,10.5-65.1c0.9-10.9,1.6-21.8,1.7-32.8c0.1-10.9,0.3-22.2-1.3-32.9C1124.8,1149.8,1124.2,1149.9,1124.2,1150.2z
			"/>
		<path opacity="0.35" fill="#E8FFFA" enable-background="new    " d="M1106.4,1195.8c1.1-7.5,3.2-15.8,1.5-23.4
			c-0.1-0.3-0.5-0.2-0.5,0.1c-3.6,35.6-11,71.3-10.8,107.3c0,1.3,1.9,1.3,2,0c1.7-18.4,2.2-36.9,4.1-55.3
			C1103.8,1214.9,1105.1,1205.3,1106.4,1195.8z"/>
		<path opacity="0.35" fill="#E8FFFA" enable-background="new    " d="M1077.8,1204c0,1.1,1.6,1.1,1.7,0c0.6-10.7,0.8-21.3,1.7-32
			c0.5-5.7,1.2-11.4,2-17.1c0.7-4.8,2-9.7,1.9-14.6c0-0.4-0.6-0.5-0.7-0.1c-2,5-2.4,10.9-3.1,16.2c-0.7,4.9-1.3,9.8-1.8,14.7
			C1078.3,1181.9,1077.4,1193,1077.8,1204z"/>
		<path opacity="0.35" fill="#E8FFFA" enable-background="new    " d="M1076.7,1113.9c-5.3,14-8.1,29.5-10.8,44.2
			c-2.8,14.7-5,29.5-6.4,44.4c-1.3,14.8-2,29.7-1.1,44.5c0.9,13.5,2.5,28.7,8.3,41.1c0.7,1.5,3,0.4,2.6-1.1
			c-1.6-6.8-3.9-13.4-5.2-20.4c-1.4-7.4-2.2-14.9-2.5-22.3c-0.7-14.2-0.1-28.5,1-42.7c1.2-15,2.9-30,5.7-44.8
			c2.6-14.3,6.9-28.3,9.8-42.5C1078.3,1113.4,1077.1,1113.1,1076.7,1113.9z"/>
		<path opacity="0.35" fill="#E8FFFA" enable-background="new    " d="M1054.4,1226.3c-1.6-27.1,1.4-53.6,3.4-80.5
			c0.1-0.7-1.1-0.9-1.2-0.2c-5.9,26.7-6.4,55.4-4.7,82.5c1.6,26.6,5.5,54.4,16.2,79c0.4,0.9,1.8,0.3,1.6-0.7
			C1062.4,1279.9,1056,1253.8,1054.4,1226.3z"/>
		<path opacity="0.35" fill="#E8FFFA" enable-background="new    " d="M954.5,1241c-0.1,6.2-0.1,12.3,0.1,18.5
			c0.4,11,1.2,22,2.9,32.9c3.3,22,9.5,45.1,21.1,64.3c0.8,1.4,2.7,0.2,2.1-1.2c-9.7-20.6-17-41.2-20.7-63.8
			c-1.8-11.2-2.9-22.6-3.3-34c-0.2-5.6-0.2-11.2-0.2-16.7s1.2-12.4-0.4-17.6c-0.1-0.4-0.7-0.4-0.8,0
			C953.5,1228.6,954.6,1235.4,954.5,1241z"/>
		<path opacity="0.35" fill="#E8FFFA" enable-background="new    " d="M990.4,1353.1c-6.4-12.7-10.4-26.1-14.5-39.6
			c-0.1-0.2-0.3-0.1-0.3,0.1c4.2,25.7,15,55.5,36.9,71.4c0.4,0.3,0.7-0.3,0.5-0.6C1004.1,1374.9,996.3,1364.9,990.4,1353.1z"/>
		<path opacity="0.35" fill="#E8FFFA" enable-background="new    " d="M965.3,1204.9c0.8-5.9,2.6-12.2,3.1-18.3
			c2.8-9.7,4.3-19.9,6.9-29.6c3-11.4,5.9-23,9.4-34.3c0.1-0.2-0.1-0.3-0.2-0.3c0-0.1,0-0.2,0-0.3c0-0.3-0.5-0.3-0.5,0
			c0,0.2,0,0.3,0,0.5c0,0.1,0,0.1,0.1,0.1c-3.9,11.5-7.8,23-11,34.7c-3.1,11-7.1,22.5-8.3,33.9c0,0.2,0,0.3,0.1,0.4
			c-0.9,4.9-1.2,10.1-1.8,14.6c-1.1,7.8-1.9,15.6-2.5,23.4c-1.3,17.3-1.3,34.7,0.2,52c2.9,31.6,8.4,47.4,22.4,75.9
			c0.8,1.6,3.3,3.9,2.6,2.3c-13-28.3-20.3-48.9-23-79.9c-1.4-16-1.4-32.2-0.3-48.3C963.2,1222.7,964.1,1213.8,965.3,1204.9z"/>
		<path opacity="0.35" fill="#E8FFFA" enable-background="new    " d="M939,1106.8c-12.2,29.6-17.5,60-16.5,92c0,0.9,1.4,0.9,1.4,0
			c-0.4-30.9,5.1-62.8,15.6-91.8C939.6,1106.6,939.2,1106.5,939,1106.8z"/>
		<path opacity="0.35" fill="#E8FFFA" enable-background="new    " d="M927.5,1119.2c1.8-6.3,4.8-12.6,6.1-19
			c0.1-0.4-0.4-0.6-0.6-0.3c-3.5,5.2-5.4,11.9-7.3,17.8c-2.2,6.6-3.7,13.5-5,20.3c-2.4,13.3-2.8,26.7-2.1,40.2c0.1,1,1.7,1,1.6,0
			c-0.7-13.6,0.4-27.1,2.9-40.5C924.2,1131.5,925.7,1125.3,927.5,1119.2z"/>
		<path opacity="0.35" fill="#E8FFFA" enable-background="new    " d="M892.8,1198.8c1,6.1,2.9,11.9,6.1,17.2c0.3,0.5,1.3,0.2,1-0.4
			c-5.8-15-5.8-30.6-5-46.5c0.8-16.5,3.5-33.8,8.1-49.6c0.1-0.4-0.5-0.5-0.6-0.2c-2.7,8.6-5.4,16.9-7,25.8c-1.5,8.2-2.6,16.6-3.2,25
			c-0.1,1.3-0.2,2.6-0.3,3.8c-0.3-2.4-0.5-4.9-0.7-7.3c-1-11.7-0.8-23.4,1.6-34.9c2.2-10.5,5.5-20.8,9-31
			c3.5-10.3,8.7-20.5,11.3-31.1c0.1-0.4-0.5-0.6-0.7-0.3c-5.5,9.1-8.5,20.1-12,30c-3.9,11-7.5,22.2-9.9,33.7
			c-2.3,10.9-3,21.6-2.5,32.7c0.3,5.4,0.7,10.8,1.4,16.2c0.7,5.5,1.1,11.7,3.2,16.8C892.8,1198.7,892.8,1198.7,892.8,1198.8z"/>
		<path opacity="0.35" fill="#E8FFFA" enable-background="new    " d="M824.7,1128.1c1.8,5.8,3.5,12.5,6.6,17.8
			c1.2,3.8,2.4,7.6,4,11.2c0.4,0.9,1.7,0.2,1.5-0.6c-0.8-4.6-2.5-9.2-4.2-13.6c-1.5-5.2-3.9-10.3-5.5-15.5
			c-2.1-6.8-3.9-13.6-5.3-20.5c-3-14.1-4.4-28.4-5.4-42.7c0-0.4-0.6-0.4-0.6,0c-0.7,14.2,0.8,28.5,3.5,42.5
			C820.7,1113.9,822.6,1121.1,824.7,1128.1z"/>
		<path opacity="0.35" fill="#E8FFFA" enable-background="new    " d="M807.6,1082.7c0.9,8.9,3.7,18.1,6.4,26.5
			c0.4,1.2,2.3,0.7,1.9-0.5c-2.7-8.6-4.6-17.6-7.4-26.1C808.4,1082.2,807.6,1082.2,807.6,1082.7z"/>
		<path opacity="0.35" fill="#E8FFFA" enable-background="new    " d="M833,1188.8c3.3,8.7,5,18.5,6.3,27.7c0.2,1.7,1.2-7.4,1-9.2
			c-2.1-19.8-7.8-26.8-14.6-43.7c-6.8-16.9-15.4-32.1-24.3-47.9c-8.8-15.7-15.4-32.1-19.2-49.7c-3.8-17.8-4.1-35.6-3.5-53.7
			c0-0.4-0.6-0.4-0.6-0.1c-5.2,33.1,3,69.4,18,98.9c5.1,10,10.6,19.8,15.8,29.6c-3.8-6.1-7.8-12.1-11.8-17.9
			c-7.1-10.3-13.5-20.6-18.3-32.1c-5-12.1-7.6-24.9-11.3-37.4c-0.2-0.8-1.4-0.5-1.3,0.4c4.8,24.2,12.6,47.2,26.6,67.6
			c14.4,21,28.2,41.9,35,66.7C831.2,1189,832.3,1189.2,833,1188.8z"/>
		<path opacity="0.35" fill="#E8FFFA" enable-background="new    " d="M841.6,803c-4.2,3.9-5.2,10-7.5,14.8
			c-0.2,0.3,0.3,0.6,0.5,0.3c2.3-5,6.1-9.4,8.1-14.5C842.9,802.9,842,802.6,841.6,803z"/>
		<path opacity="0.35" fill="#E8FFFA" enable-background="new    " d="M796.8,829.7c2.9-8.2,7.4-15.4,10.9-23.2
			c0.1-0.2-0.2-0.5-0.4-0.3c-5.1,5.5-8.3,12.9-11.2,19.8c-3.5,8.2-6.1,16.9-7.6,25.7c-3.1,17.8-3.4,37.1,0.3,54.9
			c0.2,1.2,2.2,0.9,2.1-0.3c-1.5-18.1-2.9-35.8,0.2-53.9C792.4,844.6,794.3,837,796.8,829.7z"/>
		<path opacity="0.35" fill="#E8FFFA" enable-background="new    " d="M807.9,801.8c-7.8,6.6-13.8,17.1-18.4,26.1
			c-4,7.7-8.9,18.2-7.3,27c0.2,0.9,1.3,0.7,1.6,0c1.6-4.4,1.9-9.2,3.2-13.7c1.5-4.9,3.4-9.8,5.8-14.4c4.5-8.7,11.5-16,15.6-24.7
			C808.5,801.8,808.1,801.5,807.9,801.8z"/>
		<path opacity="0.35" fill="#E8FFFA" enable-background="new    " d="M770.5,827.2c2.3-7.7,5.8-15.1,7.4-23
			c0.1-0.3-0.4-0.5-0.6-0.2c-4.4,6.8-6.6,15-8.8,22.7c-2.4,8-4.2,16.2-5.4,24.5c-2.3,15.7-3.2,32.4,1.5,47.7
			c0.4,1.4,2.3,0.8,2.1-0.6c-2.3-16.5-3.8-32.8-1.2-49.4C766.7,841.6,768.4,834.3,770.5,827.2z"/>
		<path opacity="0.35" fill="#E8FFFA" enable-background="new    " d="M761.6,842.1c1-7.5,2.8-15.1,5.4-22.3
			c2.7-7.2,7.7-13.2,10.4-20.2c0.1-0.4-0.4-0.6-0.6-0.3c-5.6,4.7-9,13.2-11.8,19.7c-3.1,7.2-5.1,14.6-6.1,22.4
			C758.7,843.1,761.4,843.8,761.6,842.1z"/>
		<path opacity="0.35" fill="#E8FFFA" enable-background="new    " d="M744.8,793.9c-3.6,5.7-6.2,12.7-8.7,19
			c-2.8,7-4.5,14.1-5.6,21.5c-2.2,14.5-2.7,28.9,0.3,43.3c0.4,1.9,3.2,1.1,2.8-0.8c-2.8-14.2-2-28.8-0.4-43.1c0.8-7,2-13.8,4.5-20.5
			c2.4-6.3,5.9-12.6,7.7-19.2C745.5,793.8,745,793.6,744.8,793.9z"/>
		<path opacity="0.35" fill="#E8FFFA" enable-background="new    " d="M733.3,820.2c0.8-5.4,1.6-10.8,3.3-16.1
			c1.6-5.2,3.9-10.1,5.6-15.3c0.1-0.4-0.4-0.6-0.6-0.3c-6,8.6-9.4,20.6-11.1,30.9C730.1,821.3,733,822.1,733.3,820.2z"/>
		<path opacity="0.35" fill="#E8FFFA" enable-background="new    " d="M734.9,793.4c-4.6,4.8-8.1,13.1-8.8,19.6
			c-0.2,1.4,1.9,1.5,2.3,0.3c1.3-3.4,1.9-7.1,3.3-10.5c1.3-3,2.7-5.9,3.7-9.1C735.6,793.4,735.2,793.1,734.9,793.4z"/>
		<path opacity="0.35" fill="#E8FFFA" enable-background="new    " d="M713.1,780c-5.4,11.9-8.5,25.2-9.9,38.2
			c-0.2,1.8,2.7,1.8,2.9,0c1.4-13.1,4.4-25.2,8.2-37.7C714.4,779.8,713.4,779.3,713.1,780z"/>
		<path opacity="0.35" fill="#E8FFFA" enable-background="new    " d="M712.3,778.5c-1.6,0.6-2.4,2.4-3,4c-0.9,2.2-1.8,4.5-2.7,6.7
			c-0.4,0.9,1,1.6,1.6,1c2.7-2.8,2.5-7.6,4.7-10.9C713.1,778.8,712.7,778.3,712.3,778.5z"/>
	</g>
	<g id="_x30_1_x5F_FacialHair_x5F_WizardBeard_x5F_Shadows">
		<path fill="none" d="M1196,1291.8c-8.9-17.2-6.1-36.2-2.5-54.3c4.4-22,8.6-43.7,9.2-66.2c0.5-21.3-1.4-42.6-6.1-63.4
			c-4.6-20.4-11.5-40-18.1-59.9c-0.3-0.9,1.2-1.5,1.5-0.7c8.4,18.8,14.4,38.9,18.8,58.9c3.9,18,6.7,36.3,7.2,54.7
			c0.6,19.2-1.9,38.3-4.5,57.2c-0.7,5.5-1.7,11.1-2.6,16.8c1.7-4.4,3.3-8.8,4.5-13c5-17.4,7.2-34.9,6.8-52.9
			c-0.5-18.2-3.4-36-7-53.8s-8.3-35.3-13.4-52.7c-2.2-7.7-4.5-15.5-7.5-22.9c-3.2-7.9-7.7-15-11.8-22.5c-0.3-0.5,0.4-1.1,0.9-0.7
			c6.1,6.9,9.7,15.6,13.4,24c3.5,8,6.3,16.3,8.9,24.6c11,34.7,20.9,70,21.4,106.7c0.1,7.7-0.1,15.6-0.8,23.4
			c1.3-3.4,2.7-6.8,3.7-10.2c2.8-9,4.9-18.2,5.8-27.6c3.3-34.3-7.8-67.3-21.5-98.2c-6.6-14.8-14.7-28.9-20.4-44.1
			c-0.8-2.1-1.5-4.1-2.3-6.2c-20.7-5.8-29.2-32.4-33.5-51c-10.3-44.2-1.5-90-8.2-134.5c-1.7-11.2-4.1-23.1-9.1-33.3
			c-5.4-10.9-15.6-16.8-27.2-19.5c-6.9-1.6-14.2-1.7-21.2-0.5c-6.6,2.4-11.5,5.5-14.2,7.6c3.9-1.1,8-1.6,12-1.5
			c6.3,0.1,12.6,1.7,17.9,5.1c4.4,2.8,7.2,6.4,9.8,10.3c25.7,24.8,22.3,68.9,23.9,101.6c1.2,22.9,3.7,45.8,7.7,68.4
			c3.7,21,7.6,43.1,17.4,62.3c0.6,1.1-1,2-1.7,1c-6.3-8.7-9.5-18.3-12.1-28.7c-2.8-11.1-5-22.4-7-33.6c-3.6-20.1-6.3-40.2-8.1-60.5
			c-1.9-20.9-1.2-42.2-4.3-63c-2.7-18.3-9.7-37.3-25.5-48.2c-7.1-4.9-15.6-7.9-24.2-7.8c-2.9,0-5.6,0.5-8.2,1.3
			c12-0.1,24.1,2.6,31.4,13c5.4,7.6,8.8,16.5,10.3,25.6c1.7,5.5,2.2,11.8,2.6,17c0.7,8.4-0.1,17-0.6,25.4
			c-1.2,17.3-1.4,34.2,0.3,51.4c0.9,9.1,2.4,18.1,4.2,27c2.5,7.2,4.5,14.5,6.6,21.8c3.1,10.8,6.5,21.6,9.9,32.4
			c12.1,38.1,28.3,74.9,38,113.7c4.8,19.1,8.2,38.6,10.4,58.2c0.5,4.2,0.8,8.4,1.2,12.6c0.3-9.3,0.4-18.6,0-27.9
			c-0.6-15.4-2.5-30.6-5.1-45.8c-1.3-7.2-2.8-14.4-4.3-21.6c-1.3-6.3-3.9-13.7-3.2-20.1c0.1-0.5,0.8-0.8,1.1-0.3
			c3.4,5.8,4.1,14,5.4,20.5c1.5,7.5,2.9,15.1,4.2,22.6c2.5,14.5,4.3,29,5,43.7c0.7,15.5,0.7,31,0,46.6c-0.3,7.9-0.7,15.9-1.2,23.8
			c-0.3,4.6-0.4,9.3-0.8,14c1.1-7.6,2.3-15.1,3.5-22.7c1.9-11.4,4.3-22.6,6.9-33.9c2.5-10.9,5-24.8,2-35.8c-0.2-0.6,0.8-0.9,0.9-0.3
			c1,5.3,2.2,10.3,2.1,15.8c-0.1,5.4-0.9,10.9-1.8,16.2c-2,11.4-4.1,22.7-6,34c-2.1,12.2-4,24.5-5.6,36.8c-0.4,3.3-0.8,6.7-1.2,10
			c0.1,2.1,0.3,4.2,0.4,6.3c0.9,12.8,1,26.7,5.7,38.9c2.4,6.1,6,12,13.5,11.3c5.3-0.5,9.4-3,13.8-5.3
			C1205.6,1306.2,1199.6,1298.7,1196,1291.8z"/>
		<path opacity="0.3" fill="#091426" enable-background="new    " d="M1082.8,796c1.4,1.1,2.8,2.3,4.2,3.6
			C1085.7,798.3,1084.4,797.1,1082.8,796z"/>
		<path opacity="0.3" fill="#091426" enable-background="new    " d="M1200.2,774.9c-0.3-1-0.6-2.1-1-3.1c0.2,0.6,0.3,1.2,0.5,1.8
			C1199.9,774,1200,774.4,1200.2,774.9z"/>
		<path opacity="0.3" fill="#091426" enable-background="new    " d="M1101.6,883.2c0-0.8,0.1-1.6,0.1-2.3c-0.1,0.2-0.2,0.4-0.2,0.5
			C1101.5,882,1101.5,882.6,1101.6,883.2z"/>
		<path opacity="0.3" fill="#091426" enable-background="new    " d="M1071.3,878.4c2.8,8.4,5.6,16.9,7.7,25.5
			c4.4,17.9,4.7,36.6,7.5,54.8c0.2,1.4,2.4,1,2.4-0.3c0.8-18.9-3.1-36.9-6.9-55.3c-2-9.3-4.2-18.5-7.8-27.3c-1.6-4-3.4-7.8-5.2-11.7
			c-1.2-2.5-2.2-5.3-3.7-7.7c-0.8,0.3-1.6,0.5-2.4,0.8c0.9,2.3,2.1,4.4,3.1,6.6C1068,868.6,1069.7,873.5,1071.3,878.4z"/>
		<path opacity="0.3" fill="#091426" enable-background="new    " d="M1071.2,889.6c-1.6-8.6-2.7-19.5-7.7-26.9
			c-0.1-0.2-0.4-0.1-0.4,0.1c0.2,4.4,1.8,8.6,2.7,12.8c0.9,4.2,1.8,8.5,2.6,12.8c1.9,9.9,3.4,19.8,5,29.7
			c1.6,10.2,3.2,20.4,4.2,30.7c0.9,9.5,0.4,19.3,1.7,28.7c0.2,1.1,2.1,1.1,2.3,0c1.7-9.5,0.2-20.1-0.7-29.6
			c-0.9-9.6-2.2-19.1-3.9-28.6C1075.2,909.3,1073.1,899.5,1071.2,889.6z"/>
		<path opacity="0.3" fill="#091426" enable-background="new    " d="M1048.2,873.5c0.4-4.2,1.4-8.4,1.5-12.6c0-0.4-0.5-0.5-0.7-0.2
			c-4.2,6.5-3.5,16.6-4.1,24.1c-0.7,9.4-1.1,18.8-0.9,28.2c0.2,8.6,0.8,17.3,2,25.8c1.1,8.3,2,18.6,5.9,26c0.6,1.1,2.5,0.6,2.4-0.7
			c-0.1-3.9-1.4-7.7-2.1-11.5c-0.9-4.3-1.6-8.6-2.3-13c-1.3-8.9-2.2-17.7-2.4-26.7c-0.2-8.8,0.1-17.5,0.3-26.3
			C1047.8,882.3,1047.8,877.9,1048.2,873.5z"/>
		<path opacity="0.3" fill="#091426" enable-background="new    " d="M1039.3,944.9c3,14.4,7,28.6,10.7,42.8
			c3.7,14.4,5.9,30,11.4,43.8c0.7,1.8,4,1.8,3.7-0.5c-1.7-14-7-27.8-10.5-41.5c-3.7-14.2-7.5-28.5-10.8-42.8
			c-6.5-28.3-7.2-57-5.4-85.8c-0.6,0-1.2,0-1.8,0C1034,889,1033.5,917.1,1039.3,944.9z"/>
		<path opacity="0.3" fill="#091426" enable-background="new    " d="M1008.2,871.8c1.1-4.4,2.8-8.7,3.9-13.1l0,0
			c-0.6-0.1-1.2-0.2-1.8-0.3c-4.7,8.1-6.6,18.8-8.1,27.7c-1.7,10.5-2.4,21.4-1.1,31.9c0.2,1.4,2.3,1.5,2.3,0
			c-0.2-10.8-0.2-21.4,1.6-32C1005.9,881.1,1007,876.4,1008.2,871.8z"/>
		<path opacity="0.3" fill="#091426" enable-background="new    " d="M1013.5,859c-4.2,11.7-4.9,24.8-5.1,37.1
			c-0.3,16,1.2,31.9,3,47.8c3.6,31.3,10.6,62.2,14,93.5c2,18.1,1.9,36,2.1,54.2c0,1.1,1.7,1.4,1.9,0.3c2.6-14.8,2-30.3,0.9-45.3
			c-1.1-14.9-3.1-29.8-5.5-44.6c-4.9-31.2-11.4-62.3-12.9-93.9c-0.7-16-1.5-33.2,2.8-48.9C1014.4,859.1,1013.9,859,1013.5,859z"/>
		<path opacity="0.3" fill="#091426" enable-background="new    " d="M1154.3,1287.4c0.1,1.4,2,1.7,2.4,0.3
			c2.1-7.1,1.6-15.1,1.1-22.4c-0.5-7.6-1.3-15.1-2.1-22.6c-1.6-15.1-2.9-30.3-5-45.4c-1.9-14.2-4.2-28.5-7.3-42.5
			c-1.6-7.2-3.1-14.5-5-21.6c-1.7-6.4-3.4-14.6-7.7-19.9c-1-1.2-3-0.2-2.9,1.2c0.2,6.6,3.8,13.7,5.8,20c2.2,6.7,4.3,13.5,6,20.4
			c3.5,14.6,6,29.4,8,44.3c1.9,14.2,3.4,28.4,4.6,42.6c0.6,7.5,1.3,15.1,1.8,22.6C1154.5,1272,1154,1279.7,1154.3,1287.4z"/>
		<path opacity="0.3" fill="#091426" enable-background="new    " d="M1234,752.7c-1.2-2.1-4.4-0.2-3.2,1.9c0.3,0.5,0.6,1,0.8,1.5
			c-0.1,0.1-0.2,0.3-0.2,0.6c-0.6,7.3,0.9,14.7,0.3,22c-0.6,7.9-1.7,15.7-3.2,23.5c-2.8,14.3-6.3,28.4-9.4,42.6
			c-2.8,13.1-6.5,25.8-10.8,38.4c-4.3,12.5-7.7,24.8-9,37.9c-0.1,1.3,1.9,1.3,2,0c0.8-14,6.2-27.4,11-40.5
			c4.8-13,8.4-26.1,11.6-39.6c3.5-14.4,6.8-29,9.2-43.6c1-6.5,1.9-13.1,2-19.7c0.1-5.1,0.4-10.9-0.5-16.1c4.8,9.7,8.3,20.1,10,30.9
			c1.1,6.7,1.5,13.6,1.3,20.4c-0.2,6.6-2.2,13.3-2,19.9c0,1,1.6,1.6,2.1,0.6c2.7-5.5,2.8-12.8,3-18.8c0.3-7.1,0-14.2-1-21.3
			C1245.8,778.9,1241.2,765.2,1234,752.7z"/>
		<path opacity="0.3" fill="#091426" enable-background="new    " d="M1254.1,834.1c-4.8,16.2-9.7,32.4-12.1,49.2
			c-1.2,8-1.3,15.9-1.2,23.9c0.1,7.7,0.2,15.7,4.2,22.5c0.4,0.7,1.4,0.2,1.2-0.5c-2-8.9-4.2-17.3-3.4-26.6c0.8-8.8,2.3-17.7,4-26.4
			c3.3-16.9,8.5-33.4,13.5-49.8c4.9-16.2,9.6-32.5,12.1-49.2c2.2-14.9,2.5-30.8-4-44.7c-0.7-1.5-3.4-0.4-2.8,1.2
			c6.4,16.3,5.1,33.6,1.7,50.5C1264,801.1,1258.9,817.6,1254.1,834.1z"/>
		<path opacity="0.3" fill="#091426" enable-background="new    " d="M1280.3,782.3c0,0.3,0.6,0.5,0.6,0.1
			c1.9-9.4,1.6-18.8,0.1-28.3c-0.6-3.7-1.3-7.3-2.8-10.8c-1.8-4.3-3.8-9.3-6.2-13.3c-0.2-0.4-0.8-0.3-0.9,0.1
			c-1,3.1,0.2,5.9,1.4,8.8c2,4.6,4.6,8.9,6,13.8C1281.4,762.3,1279.6,772.5,1280.3,782.3z"/>
		<path opacity="0.3" fill="#091426" enable-background="new    " d="M1289.6,735.7c-0.8-1.5-2.8-0.4-2.5,1.1
			c1.9,9.9,3.7,19.5,2.9,29.6c-0.9,10.5-3.7,19.7-7.3,29.5c-6.8,18.7-15.7,36.6-21.5,55.7c-10.8,35.6-13.6,74-8.7,110.8
			c1.4,10.7,3.3,21.6,6,32.2c-0.3,0.1-0.6,0.3-0.5,0.7c0.9,3,2,6,3.2,9c1.1,3.6,2.4,7.2,3.8,10.8c0.8,2.1,1.6,4.3,2.3,6.5
			c2.7,8.3,5.2,16.6,7.4,25.1c4.5,17.9,7.3,36.2,8.6,54.5c1.2,18.1,0.5,36-1.2,54c-0.9,9.1-2.5,18.1-4.1,27.1
			c-0.5,2.5-0.9,5-1.3,7.5c-1.2,4.8-2.5,9.7-3.9,14.5c-4.8,16.5-10.7,32.7-16.8,48.8c-6.2,16.1-13.1,32.2-22.5,46.7
			c-0.2,0.3-0.4,0.6-0.6,0.9c0.7-6.5-0.7-14.6-2.2-17.5c-0.1-0.2-0.3,0-0.3,0.1c1,4.9,2.1,9.9,1,14.9c-0.5,2-1.2,3.6-2.4,5
			c-3.5,2.2-6.7,3.1-11,1.4c-2-0.8-3.8-1.8-5.5-3c0.2-0.2,0.3-0.5,0.4-0.9c1-4.2,2.1-8.5,3.4-12.6c0.9-2.6,2-5.2,3.1-7.7
			c2.7-5.7,6.5-10.9,8.6-16.8c11.2-18.3,19.5-38.3,25.3-59c4.4-15.7,7.9-32,8.3-48.3c0.4-17.9-2.1-36-4.3-53.7
			c-1.2-9.2-2.5-18.3-4.1-27.4c0.3-11.5-4-22.2-7.7-33c-3.8-11.1-7.8-22.2-11.5-33.4c-3.6-11.1-6.9-22.3-9.3-33.7
			c-1.3-6.2-2.4-12.5-3.2-18.8c-0.6-4.7-0.4-10.3-2.6-14.6c-0.2-0.3-0.8-0.4-0.9,0c-1.9,4.4-1.1,9.9-0.6,14.6
			c0.6,5.5,1.4,11,2.5,16.5c2.3,12.1,5.5,23.9,9.1,35.6c3.5,11.6,7.2,23,10.8,34.5c1.2,3.8,2.2,7.7,3.3,11.6
			c0.6,5.4,2.3,10.8,3.2,16c1.6,8.5,3,17,4.2,25.5c2.4,16.8,4.6,33.8,5.3,50.8c1.3,31-7.9,63.5-20.8,91.6
			c-6.6,14.5-14.9,28.2-24.7,40.6c0.1-0.8,0.3-1.7,0.4-2.5c1.5-7.7,3.9-15.2,6.5-22.6c2.7-7.8,5.9-15.4,9.3-22.9
			c1.5-3.3,2.8-6.7,4.5-9.9c1.4-2.8,3.5-5.5,3.3-8.7c0-0.2-0.3-0.4-0.5-0.3c-3.2,1.7-4.8,5.8-6.5,8.9c-2.1,3.7-4.2,7.3-6,11.1
			c-3.5,7.5-6.6,15.3-9.2,23.2c-2.8,8.3-5.2,16.8-7.2,25.3c0,0.1-0.1,0.2-0.1,0.4c-1.4-12.1,1.4-24.8,5.6-36.9
			c2.9-8.4,6.4-16.5,9.7-24.7c0.8-1.8,1.5-3.7,2.3-5.5c3.2-7.8,5.9-15.7,8.2-23.7c4.6-16.2,6.7-32.5,7.6-49.2
			c2-36-5.2-70.4-16.8-104.4c-3.4-9.9-7.2-19.6-10.1-29.6c-3-10.3-4.1-20.8-6.7-31.1c-0.1-0.5-1.1-0.6-1.1,0
			c-1.2,7.9,0.5,16.1,2.3,23.8c2.1,8.9,4.8,17.6,7.7,26.3c5.7,17.2,11.8,34.3,16,52c8.1,33.8,7.2,68.1-0.9,101.7
			c-2.2,9.3-5,18.4-8.3,27.3c-2.7,7.3-6.4,14.4-9.1,21.7c-2.8,6.6-5.5,13.3-7.6,20.2c-3.1,10.1-5.6,22.5-4.5,34c-0.7-2-1.2-4-1.6-6
			c-0.1-0.3-0.1-0.7-0.2-1c0-0.1,0-0.3,0-0.4c-1.5-18.5,7-34.2,11.9-51.6c0.8-3,1.6-6.1,2.2-9.2c0.2-0.1,0.3-0.3,0.5-0.5
			c4.4-6.7,6.5-15.5,9-23.2c2.6-8,4.7-16.1,6.3-24.4c3.1-16.1,2.5-32.5-0.4-48.6c-5.6-30.9-19.1-60.1-31.6-88.8
			c-1.2-5.2-3-10.4-3.9-15.6c-1.2-7.6-1.3-15.3-1-23c0.3-7.9,1.1-15.8,1.8-23.6c0.4-4.4,0.8-8.6,1.7-12.9c0.8-3.7,1.3-7.7,1-11.4
			c0.1-0.1,0-0.3,0-0.3c-0.1-0.4-0.8-0.7-1-0.2c-1.3,3-1.9,6.4-2.3,9.7c-0.6,5-1.1,9.8-1.8,14.8c-1.3,8.7-2.3,17.3-3.5,26
			c-0.5,3.7-0.9,7.8-1,12.1c-3.4-12.6-7.2-25-10-37.7c0-4.3,0.1-8.6,0.4-12.8c0.8-9.9,2.2-19.7,4.2-29.5
			c3.8-18.3,9.1-36.3,14.5-54.2c5.5-17.9,10.4-35.8,14.7-54.1c3.6-15.4,9.7-34,2.7-49.3c-0.4-0.9-1.8-0.2-1.6,0.7
			c4.3,18.5,0,37.5-5,55.4c-5,18-11.4,35.7-16.9,53.5c-5.5,17.6-10.5,35.3-13.9,53.4c-0.9,4.9-1.7,9.8-2.4,14.8
			c-1.3-18.2,1-36.2,5.7-53.9c5-18.9,11.8-37.4,18.5-55.7c6.3-17.3,13.9-35.5,11.5-54.3c-0.8-6.6-3-13.4-6.5-19.3
			c-6.6-9.1-17.8-13.7-30.8-15.6c-0.2,0.5-0.1,1.2,0.7,1.5c14.4,7.4,24.7,18.6,24.9,35.6c0.2,17.9-7.5,36.2-13.9,52.5
			c-6.4,16.5-13.9,32.6-20.4,49c-3.2,8-5.9,16.2-7.1,24.8c-1.2,8.7-1.2,17.5-1.3,26.3c-0.1,9.9-0.1,19.9,0.8,29.8
			c0.2,1.8,0.4,3.6,0.6,5.4c-1.4-3.4-2.6-6.9-3.7-10.5c0.1-0.2,0.1-0.5,0.1-0.7c-5-19.5-3.2-39.3,0.2-58.9
			c3.6-20.4,7.6-40.7,11.9-60.9c4-18.6,9.7-36.9,4.2-55.8c-2.1-7.3-5.5-14.5-11.2-19.8c-4.3-4-11.1-8-17.1-6.3c-0.5,0.1-0.5,0.9,0,1
			c4.2,1.3,8.2,1.9,12,4.5c3.7,2.5,6.4,5.9,8.6,9.8c4.3,7.9,6.5,17.9,6.6,26.8c0.2,9.5-2.7,18.7-4.7,27.9
			c-2.1,9.7-4.2,19.4-6.2,29.1c-3.7,18.2-7.6,36.5-10.3,54.8c-0.3,2.3-0.6,4.5-0.9,6.8c-0.6-13.3-0.2-26.8-0.1-40.1
			c0.2-24.3,0.3-49-5.8-72.7c-2.4-9.5-5.6-19.4-12-26.9c-6.6-7.7-17.4-11.7-27.1-13.3c-19.8-3.3-44.6,3.3-55.9,21.1
			c-1.8,0.3-3.7,0.7-5.5,1.1c0.6-0.9,0.7-2.2-0.4-3c-7.5-5.1-18.2-5.3-26.9-5.4c-9.6-0.2-19.3,0.5-28.8,2.3
			c-18.6,3.5-36.6,11.6-50.6,24.5c-28.3,26.1-37.8,67.7-35.8,104.9c1,19.3,4.4,40.2,11.7,58.7c3.2,10.3,7.3,20.6,13.4,28.9
			c0.2,0.3,0.7,0.1,0.6-0.3c-2.6-7.7-5.9-15.1-8.9-22.6c-6-17.9-11.4-35.7-12.6-54.8c-1.2-18.8,0-38,4.7-56.4
			c4.4-17.1,11.8-33.6,23.3-47.1c12-14,27.8-23.6,45.4-28.7c10.1-2.9,20.7-4.5,31.2-4.9c9.9-0.4,22.9-1.6,31.4,4.3
			c0.1,0,0.1,0.1,0.2,0.1c-7.1,1.8-14,4.1-20.7,7.2c-13.8,6.3-23.9,16.5-32.2,29.1c-8.8,13.4-15.9,27.8-20.6,43.1
			c-1.5,5.1-3,10.4-4.4,15.7c-1.1,4.1-2.2,8.2-3.2,12.4c-3.6,15.4-5.9,31-6.2,46.8c-0.5,32,6.1,63.2,9.7,94.9c1,8.6,1.6,17.3,1.8,26
			c0.1,7-1,14.6-0.5,21.7c-0.1,1-0.2,2-0.3,2.9c-1.2,10.9-2.8,21.8-4.6,32.7c-3.5,20.7-8.7,41-13.9,61.3c-5.2,20-8.2,39.5-7.5,60.2
			c0.7,19.9,2.3,40.1,6.7,59.5c1.4,6.1,3,12.7,5.1,19.2c-0.2-0.1-0.3-0.2-0.5-0.3c-14.9-20.5-25.2-43.8-30.3-68.9
			c-6.5-31.6-8.7-65-5.3-97.2c2-18.4,6.8-36.4,13.2-53.7c0.2-0.4-0.6-0.7-0.8-0.3c-14.9,29.1-18.2,63.8-17.1,96.1
			c1.1,32.7,4.5,66.6,17.9,96.8c3,6.7,6.4,13.3,10.3,19.5c-0.9-0.6-1.9-1.3-2.8-2c-3.6-2.9-6.8-6.4-9.6-10.1
			c-5.8-7.7-10.2-16.4-13.5-25.4c-3.4-9.1-6.1-18.6-8.4-28.1c-2.3-9.6-3-20.2-6.2-29.6c-0.2-0.4-0.8-0.4-0.8,0.1
			c-0.7,10.1,2.5,21.3,4.8,31.1c2.2,10,4.8,19.9,8.3,29.5c-6.1-11.1-11.6-22.7-17-34c-5.6-11.8-10.5-23.8-13.8-36.2
			c-0.7-3.5-1.2-7-1.7-10.5c-1.2-9.1-1.5-18.4-1.2-27.6c0.5-18.7,3.7-36.8,7.4-55.1c1.4-6.6,2.8-13.3,4.2-19.9
			c0.3-0.5,0.6-1,0.8-1.6c5.6-20.2,8.1-40.9,8.7-61.8c0.3-10.7,0-21.4-1.7-32c-1.7-10.3-5.2-20.2-9.1-29.9
			c-7.8-19.5-16.2-38.7-22.6-58.7c-5.5-17-8.7-34.5-6-52.1c3.3-10.5,6.9-20.7,12.8-30.2c7.1-11.5,16.7-21.6,27.7-29.6
			c23.7-17.1,52.6-25,81.5-26.8c-15,2.3-29.8,6.5-43.7,13.3c-13,6.3-25,14.8-34.7,25.5c-10.3,11.3-16.8,24.5-22,38.8
			c-3.2,8.8-5.7,17.1-5,26.5s1.6,19.5,3.7,28.7c0.2,0.8,1.4,0.6,1.4-0.2c0-7.9-1.6-15.9-2.1-23.8c-0.6-8.5,0.6-16.4,3.5-24.4
			c5.2-14.5,11.2-28.5,21.5-40.3c19.5-22.1,47.1-34,75.7-38.6c18.5-3,37.4-2.9,56-1.6c1.1,0.1,1.9-0.4,2.3-1.2
			c-2.2-0.2-4.5-0.6-7-1.1c-27.7-5.8-58.8-14.6-103.2,0C876.1,789,872.2,804,872.2,804s-3.1-0.2-8.3-0.6c-5,3-8.8,7.5-12.4,12.1
			c-4.9,6.3-9.2,12.9-12.9,19.9c-7.5,14-13.4,30.2-15.6,46c-1.3,9.1-1.6,18.3-0.4,27.5c1.2,9,3.9,17.8,6.4,26.5
			c5.1,17.7,11.1,35.1,20.1,51.1c1.4,2.4,5.1,0.2,3.7-2.2c-8.3-14.7-13.6-30.6-18.1-46.7c-5-17.6-9.2-34.5-7.1-53
			c1.8-16,5.6-30.9,12.9-45.3c5.6-11,13-24.3,23.4-32.1c-2.6,3-5,6.1-7.4,9.2c-5.9,7.8-11,16.1-14.8,25c-7.4,17.6-9.7,37.1-8.6,56.1
			c2.5,41.7,20.5,79.7,32.1,119.2c3.4,11.5,6.2,23.2,8,35c1.3,8.5,1,17.1,1.5,25.6c-0.1,1.3-0.3,2.6-0.4,3.9
			c-0.8,6.2-1.8,12.4-2.9,18.6c-1.5,6.7-2.9,13.5-4,20.3c-0.2,1.3-0.4,2.5-0.6,3.8c-0.1,0.4-0.2,0.8-0.3,1.2
			c-1.7,6.9-3.3,13.8-4.6,20.7c-2.5,13.3-4.5,26.8-5.8,40.3c-1.2,13.2-2,26.3-0.1,39.4c0.1,0.5,0.2,1,0.2,1.5
			c-5.4-9.9-8-21.2-9-32.6c-1.2-13.7-0.8-27.6-0.2-41.4c0.5-3.9,0.6-7.9,1-11.7c0.6-5.9,1.3-11.8,1.7-17.7
			c0.8-11.5,1.2-22.9,1.6-34.4c0.6-18.6,2-39-5.5-56.6c-3.7-15-9.5-29.2-14.9-43.7c-6.3-16.8-11-34-13.3-51.8
			c-1.1-8.7-1.6-17.4-1.6-26.1c0-8.6,1.3-17.5,0.6-26.1c-0.1-0.7-1-0.8-1.2-0.2c-2.8,7.6-3.1,16.4-3.4,24.4
			c-0.3,8.7,0,17.5,0.9,26.2c1.7,17.3,5.9,34.2,11.8,50.6c5.9,16.4,12.9,32.5,16.8,49.6c3.3,14.4,4.6,29.1,4.7,43.8
			c-0.2,4-0.5,8-0.7,11.9c-0.2,4.7-0.4,9.3-0.6,14c-1.4,14-2.3,28.2-3,42.3c-0.5-1.4-1.1-2.8-1.5-4.2c-2.6-7.2-5-14.4-7.1-21.7
			c-4.3-15.1-6.3-30.4-7.2-46c-0.9-14.7-1.2-29.5-2.3-44.2c-1.1-13.8-2.4-28.9-8.5-41.5c-0.2-0.4-0.7-0.1-0.7,0.3
			c2.4,15,5.5,29.6,6.5,44.9c1,14.7,1.1,29.5,2,44.2c0.9,14.3,2.6,28.6,6.2,42.5c3.6,13.7,8.7,26.9,12,40.7
			c-0.1,2.9-0.2,5.8-0.3,8.7c-2.6-6.7-5.7-13.2-8.8-19.6c-3.4-7.1-7.1-14-11.3-20.7c-4.3-6.8-9-13.3-12.7-20.4
			c-7.2-13.6-11.6-28.5-14-43.6c-0.5-3-0.9-6.1-1.3-9.1c0.3-5-0.7-10.3-0.7-15.4c0-6.8,0.3-13.7,0.1-20.5c-0.2-12.6-1.8-25-5.1-37.2
			c-3-11.4-7.3-22.4-12.1-33.2c-2.8-6.3-5.7-12.4-8.3-18.8c-2.4-5.9-5.3-11.8-7.5-17.7c-0.3-0.7-1.3-0.4-1.1,0.3
			c1.6,6,2.9,11.6,5.2,17.4c2.2,5.6,4.5,11.3,6.8,16.9c4.7,11.6,9.6,23.1,12.6,35.3c3.1,12.7,4.5,25.8,4.6,38.9c0,1.5,0,3,0,4.4
			c-0.4,5.1,0.1,10.7,0.2,15.4c0.1,7.1,0.5,14.1,1.4,21.1c2,14.5,5.8,28.7,11.9,42.1c6.5,14.3,16.6,26.6,23.6,40.7
			c3.5,7,6.7,14.2,9.9,21.4c1.8,4.2,3.5,8.4,4.6,12.9c1,4,1.1,8.1,1.9,12.1c0.1,0.4,0.3,0.7,0.5,0.9c0.2,2.5,0.4,5.1,0.6,7.7
			c0.1,1.2,0.1,2.5,0.2,3.7c-0.1,0.8-0.1,1.6-0.2,2.4c-0.4,4.2-2,7.5-3.5,11.1c-0.3-0.2-0.5-0.3-0.8-0.5c-1.6-1.1-3.1-2.5-4.6-3.7
			c-1-0.8-2.1-1.6-3.2-2.5l-0.5-0.6c-0.3-0.7-0.6-1.4-0.9-2.1c-3.2-8.1-5.9-16.5-8.8-24.7c-2.2-6.2-4.8-12.2-7.5-18.1
			c-5.4-15.7-12.1-30.9-19.4-45.8c-3.7-7.6-7.4-15.4-11.4-23c-1.8-4.5-4-8.9-6.4-13.2c-3.6-7.3-7.9-14.2-12.3-21.1
			c-9-14.1-17.6-28-22.8-44c-5.4-16.7-8.4-34-10.7-51.4c-1.1-8.3-1.9-16.7-1.7-25c0.1-4.5,0.4-9,1.1-13.5c0.6-4.1,2.2-8.4,2-12.5
			c0-0.7-0.9-1.2-1.4-0.6c-4.8,5.2-5.4,14.5-5.9,21.3c-0.7,8.9,0,17.9,1,26.8c1.9,17.5,4.2,35.2,8.7,52.2c2.3,8.8,5.5,17.1,9.2,25.2
			c-1.4-2-2.8-4.1-4-6.2c-3.5-6.2-6-13-8.9-19.5c-0.5-1.2-1.1-2.4-1.7-3.5c-1.5-4.7-2.9-9.5-4-14.3c-3.5-14.7-5.1-29.8-5.9-44.9
			c-0.7-14.6-0.8-29.3,0.3-43.8c1.2-15.9,4.5-30.9,8-46.4c0.3-1.1-1.4-1.9-1.9-0.8c-6.7,13.3-9.3,28.8-10.8,43.5
			c-0.9,8.7-1.4,17.6-1.5,26.4c-0.1-3.8-0.2-7.6-0.2-11.4c-0.4-24.2,0.6-47.6,7.4-71c0.4-1.5-1.8-2.5-2.5-1.1
			c-10.1,21.9-10.1,47.5-9.6,71.1c0.4,18.7,0.8,37.6,2.9,56.2c-2.9-7.7-5.3-15.6-7-23.6c-1.5-6.8-2.5-13.6-3.1-20.5
			c0.2-1.9,0.4-3.8,0.6-5.7c1.8-15.3,1.2-30.3,1.6-45.6c0.4-14.8,2.3-29.6,5.4-44c1.6-7.4,3.2-14.8,5-22.2
			c1.9-7.3,4.4-14.5,5.9-21.9c0.3-1.7-2-2.3-2.6-0.7c-3.6,8.9-6.5,18.3-9,27.7c-0.1,0.1-0.2,0.2-0.3,0.3c-0.5,0.9-1,1.7-1.5,2.6
			c-0.3,0.4-0.6,0.8-1,1.2c-4.6,3.3-8-5.8-8.7-9.3c-1.1-5.5-1-11.2-1-16.7c0-10.7,2.3-21.4,1.8-32c0-0.6-0.8-0.7-1-0.1
			c-3,7.8-3.4,16.3-4.2,24.6c-0.3,3.2-0.6,6.4-0.8,9.7c-0.7-2.4-1.4-4.7-2.1-7c-0.6-1.9-1.2-3.8-1.8-5.7c0.5-4.7-0.7-9.5-0.1-14.3
			c0.6-4.9,2.9-9.2,3.8-14c0.1-0.3-0.3-0.8-0.7-0.5c-3.8,2.8-6.8,8.3-8.4,14.2v-0.1c0.9-3.4,0.3-7,0.1-10.5
			c-0.2-3.8-0.1-7.5-0.8-11.2c0-0.1,0-0.1-0.1-0.2c-0.1-0.1-0.3-0.2-0.4-0.3c-0.4-0.1-0.9,0.1-1,0.5c-0.9,3.8-1.1,7.7-1.9,11.5
			c0,0,0,0,0,0.1c-0.1-0.3-0.2-0.5-0.3-0.8c-0.3-4.9-0.5-9.9-2-14.6c-0.4-1.3-2.5-0.8-2.1,0.6c0.7,2.3,0.9,4.6,1,6.9
			c-2.7-5.8-5.6-11.5-9-16.8c-0.4-0.4-0.8-0.7-1.3-1.1c0,0,0,0-1.5,3.2s3.7,8.5,9.5,23s13.5,36.1,17.6,56.2
			c4.2,20.1,6.6,34.2,6.6,34.2c1.1,15-2.3,26.3-3.9,75.4c-1.6,49.1,6.8,67.5,15.9,83.9c9,16.3,27.6,45.3,51.7,76.9
			c24.1,31.6,34.4,65.1,41.4,89.1c3.2,10.7,6.8,23.1,9.8,33.6l-0.6,1.4c16,68.7,73.7,95.3,114.7,125.3c-9-15-10.7-28-10.7-28
			c33.3,37.3,105.3,80,105.3,80l-28.5-23.9c0.6,0.2,1.2,0.4,1.7,0.5c1.8,0.3,2.9-1.6,1.7-3c-2.5-2.9-6.8-3.7-10.3-5.1
			c-0.9-0.4-1.7-0.8-2.6-1.2c-0.5-0.6-1.1-1.2-1.6-1.9c-0.7-0.8-1.4-1.6-2.1-2.4c-0.3-0.4-0.6-0.9-0.8-1.3
			c-4.2-7-7.8-14.5-10.8-22.2c-6.1-16-9.4-32.8-11.3-49.7c-2-17.1-2-34.6-1.1-51.7c0.9-18,3.2-35.9,8.6-53.1c0.5-1.4-1.8-2-2.3-0.6
			c-11.5,34.7-12.5,72.2-9.3,108.3c1.5,17,5,33.9,11,49.9c1.3,3.5,2.8,7,4.4,10.5c-12.5-10.2-17.8-29-21.2-43.9
			c-4.4-19.4-6-39.5-6.6-59.4c-0.6-20.3,2.2-39.5,7.6-59.1c5.3-19,10.1-38,13.7-57.4c1.9-10.6,3.5-21.3,4.8-32
			c0.3-2.1,0.5-4.3,0.8-6.5c1-4,1.2-8.4,1.3-12.6c0.4-5.2,0.5-10.4-0.1-15.4c0-0.1-0.1-0.2-0.1-0.3c-0.2-3.8-0.4-7.6-0.7-11.4
			c-1.2-15.2-3.4-30.3-5.6-45.3c-2.4-16.1-4.7-32.3-5.4-48.6c-0.7-16.2,0.9-32.4,4.1-48.3c1.8-8.8,4-17.4,6.4-26.1
			c1.2-4.3,2.4-8.6,3.6-13c0.6-2.2,1.3-4.5,1.8-6.7c3.9-10,8.6-19.6,14.2-28.7c7.8-12.7,16.8-23.5,30.4-30.3c4.2-2.1,8.6-3.7,13-4.9
			c-4.1,2.1-7.9,4.5-11.4,7.3c-8.8,6.9-15.5,16.1-21.7,25.3c-10.6,15.9-19.6,34.7-22.3,53.9c-5.5,27.5-4.5,56.5,1.2,83.7
			c3.6,17.5,8.6,34.6,11.6,52.3c1.6,9.3,3.2,18.6,4.2,28c1,8.9,0.6,18.2,2.2,27c0.2,1.2,1.8,0.7,1.9-0.3c0.9-8.7-0.6-18-1.3-26.7
			c-0.7-8.4-1.5-16.8-2.8-25.1c-2.7-17.4-7.4-34.3-11.3-51.5c-6.8-30-7.5-60.3-2.9-90.4c1.6-6.2,3.3-12.3,5.7-18.4
			c4-10.2,8.6-20.1,14.7-29.2c5.9-8.7,13-17.4,21-24.3c1.7-1.5,3.5-2.7,5.4-3.9c-2.4,2.2-4.7,4.5-7,6.8c0.6-0.6,1.2-1.2,1.8-1.7
			c0,0,0.1,0,0.1-0.1c2.4-2.2,4.9-4.1,7.6-5.8c0.1-0.1,0.2-0.2,0.4-0.2c0.5-0.3,1-0.7,1.6-1c0.2-0.1,0.3-0.2,0.5-0.3
			c0.5-0.3,1-0.6,1.5-0.9c0.2-0.1,0.3-0.2,0.5-0.3c0.7-0.4,1.4-0.8,2.1-1.2c9.9-5.5,16.7-9.5,16.7-9.5c0.3,0,0.6-0.1,0.9-0.1
			c0.1,0,0.2,0,0.3,0c0.2,0,0.4,0,0.7-0.1c0.1,0,0.2,0,0.3,0c0.8-0.1,1.6-0.2,2.4-0.3c0.3,0,0.6-0.1,0.9-0.1h0.1
			c0.3,0,0.6-0.1,0.9-0.1h0.1c2-0.2,4-0.3,6.1-0.3c0,0,0,0,0.1,0c0.3,0,0.7,0,1,0h0.1c0.3,0,0.7,0,1,0h0.1c0.3,0,0.7,0,1,0.1h0.1
			c0.4,0,0.7,0.1,1.1,0.1c2.3,0.3,4.7,0.8,7.2,1.6c0.4,0.1,0.8,0.3,1.2,0.4h0.1c0.4,0.1,0.8,0.3,1.1,0.5c0.1,0,0.1,0,0.2,0.1
			c0.4,0.2,0.8,0.3,1.1,0.5c0,0,0.1,0,0.1,0.1c0.4,0.2,0.8,0.4,1.2,0.6c2.1,1.1,4.3,2.5,6.6,4.3c1.6,1,3,2.3,4.2,3.6
			c0.2,0.2,0.5,0.5,0.7,0.7c16.5,16.5,16.6,27.9,16.6,27.9s-0.1,0.1-0.2,0.2l-0.1,0.1l-0.1,0.1l-0.1,0.1c-0.2,0.2-0.5,0.5-0.8,0.8
			l-0.1,0.1c-0.1,0.1-0.2,0.2-0.3,0.3c-0.1,0-0.1,0.1-0.2,0.1c-0.1,0.1-0.2,0.2-0.3,0.3c0,0-0.1,0.1-0.2,0.1
			c-0.1,0.1-0.2,0.2-0.4,0.4c-0.1,0-0.1,0.1-0.2,0.2c-0.2,0.2-0.5,0.5-0.8,0.7c-0.1,0.1-0.2,0.1-0.2,0.2c-0.1,0.1-0.3,0.3-0.4,0.4
			c-0.1,0.1-0.2,0.2-0.3,0.3c-0.1,0.1-0.3,0.3-0.4,0.4c-0.1,0.1-0.2,0.2-0.3,0.3c-0.1,0.1-0.3,0.3-0.5,0.4c-0.1,0.1-0.2,0.2-0.3,0.3
			c-0.2,0.1-0.3,0.3-0.5,0.4c0.1,4.6-0.2,9.3-0.8,13.9c-1.1-3.1-2.6-6.4-4.5-9.3c-0.8,0.7-1.7,1.5-2.6,2.2c1.2,3.3,2.9,6.4,3.9,9.8
			c0.8,2.7,1.2,5.6,1.6,8.4c-0.7,5-1.1,9.8-1.2,14.7c-1.9-10-4.7-19.8-9.3-28.9c-0.8,0.6-1.5,1.1-2.3,1.7
			c11.4,27,11.1,56.2,12.3,85.3c1.3,32.4,5.2,64.4,12.1,96.2c1.9,9.1,4.3,18,6.9,26.9c2.5,8.5,4.7,17.6,8.7,25.6
			c0.4,0.8,1.7,0.2,1.5-0.6c-2.3-8-5.9-15.6-8.3-23.6s-4.4-16.1-6.2-24.2c-3.8-16.9-6.3-33.8-7.5-51.1c-0.3-4.2-0.6-8.5-0.9-12.7
			c1.1-4.4,1.9-8.9,2.4-13.5c1,7.4,2.1,14.7,3.3,22c2.9,18,6.4,36.1,10.7,53.8c8.6,34.5,20.4,68.2,29.9,102.5
			c3.3,12.1,6.4,24.4,8.9,36.7c2.2,12.8,3.9,25.6,5.2,38.5c1.1,10.7,1.9,21.4,2.2,32.1c-0.3,6-0.6,11.9-0.9,17.9
			c-0.9,18-1.7,36-4.2,53.8c-2.4,16.9-6.6,33.8-14.3,49c-4,7.9-8.9,15.2-13.8,22.5c1-2.9,1.9-5.9,2.8-8.8c2.4-7.8,5.2-15.5,8-23.3
			c2.5-7,6.7-15.1,6.8-22.7c0-0.4-0.6-0.7-0.9-0.4c-5,5.9-7.1,14.9-9.8,22c-2.3,6-4.5,12-7,18c-2.5,4-4.6,8.6-6.9,12.6
			c-2,3.5-3.8,7.1-5.5,10.7c1.7-10.5,3.4-21.2,2.7-31.7c-0.1-1.2-1.8-1.6-2.2-0.3c-3.8,13.9-6.4,28.4-9.1,42.6
			c-0.7,3.9-1.4,7.7-1.9,11.6c-2.6-15.6-5.5-31.2-9.1-46.7c-4.6-19.7-11.7-39.1-14-59.2c-2.2-19.6,0.2-39.2,3-58.6s7-38.5,10.6-57.8
			c4-21.4,5.8-43,4.5-64.7c0-0.6-0.9-0.6-0.9,0c0,20.6-1.7,41-5.4,61.3c-3.5,19.6-8.8,38.7-13.3,58.1c-4.2,18.3-6.3,37.5-4.9,56.2
			c1.5,19.9,7.9,38.7,12.7,57.9c4.2,16.9,7.6,34.1,10.5,51.3c-4.2-9.2-8.9-18.2-13.8-26.9c-2-3.6-4.2-7-6.5-10.4
			c-8.3-14.3-17.3-28-24.2-43.2c-7.9-17.6-13.3-36.2-16.6-55.2c-6.8-39.5-5.1-80.2,2.7-119.3c4.5-22.6,10.3-44.9,16.7-67
			c0.3-1.2-1.5-1.7-1.8-0.5c-24.5,75.8-41.4,161.5-10.6,238.1c8.2,20.3,19.3,40.7,32,58.5c0.4,0.7,0.8,1.4,1.2,2.2
			c1.4,2.6,2.8,5.3,4.1,7.9c-3.1-4-6.4-7.8-9.8-11.5c-11.5-12.5-24.9-23.6-35.3-37.1c-21.1-27.3-31.7-64.7-34-98.7
			c-1.3-19.7,1.3-38.7,3-58.2c0.1-1.1-1.5-1.2-1.9-0.3c-5.4,16.2-6.1,34.4-5.6,51.4s2.9,34.1,7.1,50.5c4.3,16.7,10.8,33.5,19.3,48.6
			c-17.6-14.4-31.6-33.1-38.5-55c-4.3-13.4-5.2-26.7-4.6-40.7c0.3-7.3,0.6-14.6,0.9-22c0.1-3.9,0.6-8.4,0.6-12.7
			c0.4-4.4,1-8.7,1.7-13.1c3-18.8,8.3-37.1,13.1-55.5c9.3-35.9,10.8-72.5,4.8-109.1c-1.7-10-3.5-20.2-6.1-30.1c-1.1-4-2.1-8-3.2-12
			c-3.6-20.9-7-41.9-9.8-62.9c-2.5-18.1-4.2-36.1,0.1-54c1.7-7.1,4.1-14,7.1-20.6c-2.8-1.1-4.3-2-4.6-2.2H989c0,0,7.7-18,15.7-30.1
			c0.4-0.7,0.9-1.3,1.3-2c0.2-0.2,0.3-0.5,0.5-0.7c0.3-0.4,0.5-0.7,0.8-1.1c0.2-0.3,0.4-0.6,0.7-0.9c0.2-0.3,0.4-0.5,0.6-0.8
			c0.2-0.3,0.5-0.6,0.7-0.9c-1.8,2.1-3.6,4.3-5.3,6.5c-10,12.7-18.1,27.3-22.5,42.9c-4.8,17.3-5.6,34.7-3.4,52.5
			c2.7,20.9,5.9,41.8,9.5,62.5c3.3,19,6.8,38,10.3,56.9c0.2,7.4,1.2,14.8,1.5,22c0.4,10.5,0.3,21.1-0.4,31.6
			c-1.2,18.8-5.4,36.4-10.8,54.2c-3.4,7.7-5.8,15.9-8.2,23.8c-3.4,11-6.7,22.1-9.4,33.4c-5.2,21.3-8.6,43.3-6.7,65.3
			c1.3,15,5,30,11.8,43.5c35.5,27.4,70.9,56.6,94.3,81.7c23.6,25.2,29.7,43.8,33,49.6c3.3,5.7,5,0.6,6.1-6.8s15.9-25.8,28.9-46.8
			c13.1-21,25.4-48.9,25.4-48.9c6.8,17.5,40.2,48.9,40.2,48.9s2.2-9.8,8.8-25c0.4-1.9,0.7-3.9,1-5.9c0.1-1,0.2-2.1,0.4-3.1
			c1.4-5.1,2.6-10.3,3.4-15.5c0.6-1.8,1.1-3.6,1.6-5.3c0.7-2.2,1.7-4.6,2.7-7c5.8-7,10.7-14.6,15.4-22.7
			c8.9-15.3,16.3-31.2,22.7-47.7c6.1-16.5,11.8-33.7,16.7-51.1c2.4-8.7,4.6-17.4,6.4-26.3c1.5-7.3,3.4-15.2,2.7-22.7
			c1.1-9.9,1.7-19.7,1.9-29.7c0.6-28.9-3.1-58-10.7-85.8c-1.7-6-3.5-12-5.6-17.9c0.1-0.3,0.1-0.5,0-0.8
			c-5.6-18.1-11.2-35.9-13.9-54.7c-2.8-19.4-3.3-39-1.7-58.5c1.6-19.2,5.4-38.1,11.1-56.5c5.9-18.8,14.9-36.3,21.1-54.9
			c3.2-9.7,5.6-20.6,6.4-30.8C1294.9,755.5,1294.5,744.7,1289.6,735.7z M1200.2,774.9c-0.2-0.4-0.3-0.8-0.5-1.2
			c-0.1-0.6-0.3-1.2-0.5-1.8C1199.6,772.8,1199.9,773.8,1200.2,774.9z M1101.6,883.2c-0.1-0.6-0.1-1.2-0.1-1.8
			c0.1-0.2,0.2-0.4,0.2-0.5C1101.6,881.6,1101.6,882.4,1101.6,883.2z M1199.4,1314.5c-7.4,0.7-11.1-5.2-13.5-11.3
			c-4.7-12.2-4.8-26-5.7-38.9c-0.1-2.1-0.3-4.2-0.4-6.3c0.4-3.3,0.7-6.7,1.2-10c1.6-12.3,3.5-24.6,5.6-36.8c2-11.4,4.1-22.7,6-34
			c0.9-5.3,1.7-10.8,1.8-16.2c0.1-5.5-1.1-10.5-2.1-15.8c-0.1-0.6-1.1-0.3-0.9,0.3c3,11,0.5,24.9-2,35.8
			c-2.6,11.3-4.9,22.5-6.9,33.9c-1.3,7.5-2.5,15.1-3.5,22.7c0.4-4.7,0.5-9.4,0.8-14c0.5-7.9,0.9-15.9,1.2-23.8
			c0.6-15.5,0.7-31,0-46.6c-0.7-14.7-2.5-29.2-5-43.7c-1.3-7.6-2.7-15.1-4.2-22.6c-1.3-6.5-2-14.7-5.4-20.5c-0.3-0.5-1-0.3-1.1,0.3
			c-0.6,6.5,1.9,13.8,3.2,20.1c1.5,7.2,3,14.4,4.3,21.6c2.6,15.2,4.4,30.4,5.1,45.8c0.4,9.3,0.3,18.6,0,27.9
			c-0.3-4.2-0.7-8.4-1.2-12.6c-2.1-19.6-5.6-39-10.4-58.2c-9.7-38.8-25.9-75.6-38-113.7c-3.4-10.8-6.8-21.6-9.9-32.4
			c-2.1-7.3-4.1-14.6-6.6-21.8c-1.8-8.9-3.3-17.9-4.2-27c-1.8-17.3-1.6-34.1-0.3-51.4c0.6-8.4,1.3-17,0.6-25.4
			c-0.4-5.2-0.9-11.5-2.6-17c-1.5-9.1-4.9-17.9-10.3-25.6c-7.3-10.3-19.4-13.1-31.4-13c2.6-0.8,5.3-1.3,8.2-1.3
			c8.6-0.1,17.1,2.9,24.2,7.8c15.8,10.9,22.8,29.8,25.5,48.2c3.1,20.8,2.4,42.1,4.3,63c1.8,20.3,4.5,40.5,8.1,60.5
			c2,11.3,4.2,22.5,7,33.6c2.6,10.4,5.8,20,12.1,28.7c0.7,1,2.3,0.2,1.7-1c-9.8-19.2-13.7-41.3-17.4-62.3c-4-22.6-6.5-45.5-7.7-68.4
			c-1.7-32.7,1.8-76.8-23.9-101.6c-2.7-3.9-5.4-7.5-9.8-10.3c-5.3-3.4-11.6-4.9-17.9-5.1c-4-0.1-8.1,0.4-12,1.5
			c2.7-2,7.6-5.2,14.2-7.6c7.1-1.2,14.4-1.1,21.2,0.5c11.5,2.7,21.8,8.6,27.2,19.5c5,10.3,7.4,22.1,9.1,33.3
			c6.7,44.6-2,90.3,8.2,134.5c4.3,18.6,12.8,45.2,33.5,51c0.7,2.1,1.5,4.2,2.3,6.2c5.7,15.2,13.9,29.3,20.4,44.1
			c13.7,30.9,24.8,63.9,21.5,98.2c-0.9,9.4-3,18.6-5.8,27.6c-1,3.4-2.4,6.8-3.7,10.2c0.7-7.8,0.9-15.7,0.8-23.4
			c-0.5-36.7-10.4-72-21.4-106.7c-2.6-8.3-5.4-16.6-8.9-24.6c-3.7-8.4-7.2-17.1-13.4-24c-0.4-0.5-1.2,0.1-0.9,0.7
			c4.1,7.4,8.6,14.6,11.8,22.5c3,7.4,5.2,15.2,7.5,22.9c5.1,17.4,9.8,34.9,13.4,52.7c3.6,17.8,6.5,35.6,7,53.8
			c0.5,18.1-1.8,35.5-6.8,52.9c-1.2,4.3-2.8,8.6-4.5,13c0.9-5.7,1.9-11.3,2.6-16.8c2.6-18.9,5.1-38,4.5-57.2
			c-0.6-18.4-3.3-36.8-7.2-54.7c-4.4-20.1-10.4-40.2-18.8-58.9c-0.4-0.9-1.8-0.3-1.5,0.7c6.6,19.8,13.5,39.4,18.1,59.9
			c4.7,20.8,6.7,42.1,6.1,63.4c-0.6,22.5-4.8,44.2-9.2,66.2c-3.6,18.2-6.4,37.2,2.5,54.3c3.6,6.9,9.7,14.3,17.2,17.3
			C1208.8,1311.6,1204.6,1314,1199.4,1314.5z"/>
		<path opacity="0.3" fill="#091426" enable-background="new    " d="M1289.9,1006.1c-9.2-39.4-2.1-81.9,1.8-100.9
			s13-35.3,17.7-95.9c4.8-60.6-7.6-70.2-15.8-80.4c-0.7-0.9-1.4-1.6-2.1-2.2c-0.5,0.5-0.7,1.4-0.3,2.1
			c18.7,33.3,12.9,72.2,6.2,107.9c-7,37.1-19.5,73.5-22.6,111.3c-0.7,8.9-1.1,18.5-0.5,28c-4.6-18.9-7.4-38.2-6.9-57.9
			c0.2-9.3,1.1-18.5,3.2-27.6c1-4.4,2.3-8.8,3.8-13.1c1.6-4.5,4-8.9,4.9-13.6c0.1-0.6-0.6-1.1-1.1-0.6c-4.9,5-7.2,13.2-9.3,19.8
			c-2.4,7.9-4.2,16.1-5.4,24.2c-2.4,16.3-1.4,32.9,1.2,49.1c5.9,36.8,20.9,71.2,32.8,106.3c3.3,9.6,6.3,19.3,9,29.1
			c1.7,6.1,2.8,12.5,4.1,18.7C1308.9,1067.9,1297.1,1037.2,1289.9,1006.1z"/>
		<path opacity="0.3" fill="#091426" enable-background="new    " d="M1018.4,789.7c2.1-0.2,2.2-3.3,0-3.3
			c-25.6,0.2-48.8,14.9-65.2,33.6c-16.3,18.6-31.3,44.1-27.1,69.8c0.1,0.5,0.8,0.3,0.8-0.1c0.4-13.6,2.2-26.1,8.6-38.3
			c5.6-10.6,12.7-20.7,20.8-29.5C972.8,804.1,994.1,792.3,1018.4,789.7z"/>
		<path opacity="0.3" fill="#091426" enable-background="new    " d="M934.7,1085c-0.2,0.8,0.9,1.2,1.3,0.6
			c4.6-6.5,6.6-15.6,8.1-23.3c1.7-8.7,2.7-17.4,2.7-26.3c0-9.3-0.8-18.6-2-27.8s-1.8-19.2-5-28c-0.2-0.5-0.9-0.3-0.8,0.2
			c3.4,17.8,3.9,36.5,4,54.6c0.1,8.8-0.1,17.8-1.6,26.5C940,1069.7,936.8,1077.1,934.7,1085z"/>
		<path opacity="0.3" fill="#091426" enable-background="new    " d="M820.2,869.2c0.4-11,1.3-22,3.4-32.8c1-4.9,2.3-9.6,3.9-14.3
			c2.1-6.1,5-11.1,8.2-16.7c0.4-0.6-0.5-1.3-1-0.8c-16,17.3-16.8,42.4-17,64.5C817.9,870.8,820.2,870.8,820.2,869.2z"/>
		<path opacity="0.3" fill="#091426" enable-background="new    " d="M830.1,802.9c0.6-0.3,0.3-1.2-0.3-1.2
			c-4.2-0.1-7.6,3.6-10.4,6.4c-3.7,3.8-6.8,8.1-9.8,12.5c-6.1,9.2-9.3,20.7-10.8,31.5c-1.8,12.7-1.5,25.6-0.3,38.4
			c0.7,6.9,1.7,13.7,2.5,20.6c0.7,6.6,0.9,13.4,2.5,19.8c0.2,1,1.5,0.7,1.6-0.2c0.6-5.9-0.3-11.8-0.9-17.7
			c-0.6-6.2-1.2-12.4-1.5-18.6c-0.7-11.7-1.3-23.4-0.3-35.1C804.2,839.1,811.3,813.6,830.1,802.9z"/>
		<path opacity="0.3" fill="#091426" enable-background="new    " d="M772.6,857.4c-0.8,11.5-0.3,23.2,1.2,34.6
			c1.3,10,2.9,21.7,8.6,30.4c1.1,1.6,4.1,0.6,3.3-1.4c-8-19.7-10.3-40.5-9.3-61.7c1-20.4,3.9-42.6,16.1-59.6c0.7-1-0.8-2-1.6-1.2
			c-7,6.7-10.4,16.3-12.8,25.4C775.3,834.8,773.4,846.2,772.6,857.4z"/>
		<path opacity="0.3" fill="#091426" enable-background="new    " d="M747.8,830.8c0.4,13.6,3.2,26.6,9.3,38.8
			c0.4,0.8,1.6,0.2,1.4-0.6c-3.9-12.3-6.6-25.3-6.9-38.2c-0.1-6.1,0.2-12.3,0.9-18.4c0.4-3.3,0.8-6.7,1.5-10
			c0.6-2.9,1.8-5.8,1.6-8.8c0-0.4-0.5-0.7-0.8-0.3c-1,1.2-1.8,2.7-2.4,4.3c-0.3,0-0.5,0.1-0.7,0.4c-7.3,10.6-9.7,25.5-10.9,38.1
			c-1.3,13.8-0.6,27.8,1.2,41.6c3.8,29.1,12.2,57.1,26,83c0.6,1.2,2.5,0.1,1.8-1.1c-13.5-24.8-20.5-53-24.4-80.9
			c-1.9-13.5-2.7-27.3-1.7-40.9c0.5-6.7,1.5-13.3,3.2-19.8c0.6-2.5,1.4-4.9,2.2-7.2C748.1,817.5,747.7,824.2,747.8,830.8z"/>
		<path opacity="0.3" fill="#091426" enable-background="new    " d="M1012.8,810.7c-0.1,0.1-0.1,0.2-0.2,0.2
			C1012.6,810.9,1012.7,810.8,1012.8,810.7z"/>
		<path opacity="0.3" fill="#091426" enable-background="new    " d="M1011.5,812.1c-0.1,0.1-0.2,0.2-0.3,0.3
			C1011.4,812.3,1011.5,812.2,1011.5,812.1z"/>
		<path opacity="0.3" fill="#091426" enable-background="new    " d="M1009.1,814.9L1009.1,814.9L1009.1,814.9z"/>
	</g>
</g>
</svg>
