<?xml version="1.0" encoding="utf-8"?>
<!-- Generator: Adobe Illustrator 23.0.3, SVG Export Plug-In . SVG Version: 6.00 Build 0)  -->
<svg version="1.1" id="Layer_1" xmlns="http://www.w3.org/2000/svg" xmlns:xlink="http://www.w3.org/1999/xlink" x="0px" y="0px"
	 viewBox="0 0 2000 2000" enable-background="new 0 0 2000 2000" xml:space="preserve">
<g id="beard_x5F_cropped">
	<g id="beard_x5F_main">
		<g>
			<path fill="none" d="M694.4,854.4c0,0-2.4-14.1-6.6-34.2c-3.9-18.9-10.9-39.1-16.5-53.5l-36,67.3c17.5,22.2,36.2,40.9,57.2,57.1
				C693.9,872.6,695.1,864.3,694.4,854.4z"/>
			<path fill="none" d="M1076.3,851.3c12.2-7.1,28.1-23.2,28.1-23.2s0-11.5-16.6-27.9s-30.7-12.7-41.1-11.7c0,0-6.8,4-16.7,9.5
				c-10,5.6-17.5,11.1-25.4,23.2c-8,12.1-15.7,30.1-15.7,30.1s10.3,6.5,33.9,8.9C1046.4,862.6,1064.1,858.5,1076.3,851.3z"/>
			<path fill="none" d="M782.7,795.6c25.5,3.8,89.5,8.4,89.5,8.4s3.9-15,48.3-29.7c44.4-14.6,75.5-5.8,103.2,0s34.2-7.5,50.9-13.8
				s111.2-35.4,129.7,6.9c0,0,23.6-12.8,46.8-27.3c17.4-10.8,27.9-17.4,35.6-15.8c-1.7-3-3.7-6.2-6.4-9.7l-9.5-14.5l-35.2-20.3
				l-545.7,80.1c10.3,7.3,18.1,11,31.8,17.2C744.9,787.5,757.2,791.8,782.7,795.6z"/>
			<path fill="#9F592A" d="M694.4,854.4c0.7,9.9-0.5,18.2-1.9,36.7c7.4,5.7,15.1,11.1,23.1,16.3c36.9,23.6,76.5,39.2,118.5,47.5
				c46.4,9.2,95.8,9.7,148.5,5.1c35.6-3.1,69.4-10.4,102.9-20.4c18.6-5.5,35.7-12.5,53.5-19.7c36.3-14.7,71.1-36.1,101.6-62.8
				c20.3-17.7,38.3-38.2,49.3-63c8.2-18.3,10.4-37.2,1.7-59.2c-1.5-3.8-3-7.2-5-10.7c-7.7-1.6-18.2,5-35.6,15.8
				c-23.2,14.5-46.8,27.3-46.8,27.3c-18.5-42.3-113-13.2-129.7-6.9s-23.2,19.6-50.9,13.8c-27.7-5.8-58.8-14.6-103.2,0
				C876.1,789,872.2,804,872.2,804s-64-4.6-89.5-8.4c-25.5-3.8-37.8-8.1-61-18.5c-13.7-6.2-21.5-10-31.8-17.2l-16.3,2.4l-2.4,4.5
				c5.6,14.4,12.7,34.6,16.5,53.5C692,840.3,694.4,854.4,694.4,854.4z M1004.6,821.2c7.9-12.1,15.4-17.6,25.4-23.2
				c9.9-5.5,16.7-9.5,16.7-9.5c10.4-1,24.5-4.7,41.1,11.7s16.6,27.9,16.6,27.9s-15.9,16.1-28.1,23.2c-12.2,7.2-29.9,11.3-53.5,8.9
				c-23.6-2.4-33.9-8.9-33.9-8.9S996.6,833.3,1004.6,821.2z"/>
		</g>
	</g>
	<g id="shadows">
		<g>
			<path fill="none" d="M1137.7,823.3c-1.7-11.2-4.1-23-9.1-33.3c-5.4-10.9-15.7-16.8-27.2-19.5c-6.8-1.6-14.1-1.7-21.2-0.5
				c-6.6,2.4-11.5,5.6-14.2,7.6c3.9-1.1,8-1.6,12-1.5c6.3,0.2,12.6,1.7,17.9,5.1c4.4,2.8,7.1,6.4,9.8,10.3
				c25.7,24.8,22.2,68.9,23.9,101.6c0.5,9.9,1.3,19.8,2.3,29.6c2.4-1,4.7-1.9,7.1-2.9c0.7-0.3,1.3-0.6,2-0.8
				C1139.5,887.2,1142.5,855,1137.7,823.3z"/>
			<path fill="none" d="M1083,846.9c0.8-0.6,1.5-1.1,2.3-1.7c4.6,9.1,7.4,18.9,9.3,28.9c0.1-4.9,0.5-9.7,1.2-14.7
				c-0.4-2.8-0.8-5.7-1.6-8.4c-1-3.4-2.7-6.5-3.9-9.8c0.9-0.7,1.8-1.5,2.6-2.2c1.9,2.9,3.4,6.2,4.5,9.3c0.6-4.6,0.9-9.3,0.8-13.9
				c0.2-0.1,0.3-0.3,0.5-0.4c0.1-0.1,0.2-0.2,0.3-0.3c0.2-0.1,0.4-0.3,0.5-0.4c0.1-0.1,0.2-0.2,0.3-0.3c0.1-0.1,0.3-0.3,0.4-0.4
				c0.1-0.1,0.2-0.2,0.3-0.3c0.1-0.1,0.3-0.3,0.4-0.4c0-0.1,0.1-0.1,0.2-0.2c0.3-0.2,0.6-0.5,0.8-0.7c0.1-0.1,0.1-0.2,0.2-0.2
				c0.2-0.2,0.3-0.3,0.4-0.4c0.1,0,0.2-0.1,0.2-0.1c0.1-0.1,0.2-0.2,0.3-0.3c0.1,0,0.1-0.1,0.2-0.1c0.1-0.1,0.2-0.2,0.3-0.3l0.1-0.1
				c0.3-0.3,0.6-0.6,0.8-0.8l0.1-0.1l0.1-0.1l0.1-0.1c0.1-0.1,0.2-0.2,0.2-0.2s-0.1-11.4-16.6-27.9c-0.2-0.2-0.5-0.5-0.7-0.7
				c-1.2-1.3-2.6-2.6-4.2-3.6c-2.3-1.8-4.5-3.2-6.6-4.3c-0.4-0.2-0.8-0.4-1.2-0.6c0-0.1-0.1-0.1-0.1-0.1c-0.3-0.2-0.7-0.3-1.1-0.5
				c-0.1-0.1-0.1-0.1-0.2-0.1c-0.3-0.2-0.7-0.4-1.1-0.5h-0.1c-0.4-0.1-0.8-0.3-1.2-0.4c-2.5-0.8-4.9-1.3-7.2-1.6
				c-0.4,0-0.7-0.1-1.1-0.1h-0.1c-0.3-0.1-0.7-0.1-1-0.1h-0.1c-0.3,0-0.7,0-1,0h-0.1c-0.3,0-0.7,0-1,0c-0.1,0-0.1,0-0.1,0
				c-2.1,0-4.1,0.1-6.1,0.3h-0.1c-0.3,0-0.6,0.1-0.9,0.1h-0.1c-0.3,0-0.6,0.1-0.9,0.1c-0.8,0.1-1.6,0.2-2.4,0.3c-0.1,0-0.2,0-0.3,0
				c-0.3,0.1-0.5,0.1-0.7,0.1c-0.1,0-0.2,0-0.3,0c-0.3,0-0.6,0.1-0.9,0.1c0,0-6.8,4-16.7,9.5c-0.7,0.4-1.4,0.8-2.1,1.2
				c-0.2,0.1-0.3,0.2-0.5,0.3c-0.5,0.3-1,0.6-1.5,0.9c-0.2,0.1-0.3,0.2-0.5,0.3c-0.6,0.3-1.1,0.7-1.6,1c-0.2,0-0.3,0.1-0.4,0.2
				c-2.7,1.7-5.2,3.6-7.6,5.8c0,0.1-0.1,0.1-0.1,0.1c-0.6,0.5-1.2,1.1-1.8,1.7c2.3-2.3,4.6-4.6,7-6.8c-1.9,1.2-3.7,2.4-5.4,3.9
				c-8,6.9-15.1,15.6-21,24.3c-6.1,9.1-10.7,19-14.7,29.2c-2.4,6.1-4.1,12.2-5.7,18.4c-4.2,27.2-4,54.6,1.1,81.8
				c2.2-0.2,4.4-0.4,6.7-0.5c0.6-0.1,1.3-0.1,1.9-0.2c-2.3-14.4-4.4-28.9-6.3-43.3c-2.2-17.8-1.4-35.2,3.4-52.5
				c4.4-15.6,12.5-30.2,22.5-42.9c1.7-2.2,3.5-4.4,5.3-6.5c-0.2,0.3-0.5,0.6-0.7,0.9c-0.2,0.3-0.4,0.5-0.6,0.8
				c-0.3,0.3-0.5,0.6-0.7,0.9c-0.3,0.4-0.5,0.7-0.8,1.1c-0.2,0.2-0.3,0.5-0.5,0.7c-0.4,0.7-0.9,1.3-1.3,2
				c-8,12.1-15.7,30.1-15.7,30.1h0.1c0.3,0.2,1.8,1.1,4.6,2.2c-3,6.6-5.4,13.5-7.1,20.6c-4.3,17.9-2.6,35.9-0.1,54
				c1.4,10.4,2.9,20.8,4.6,31.3c7.3-0.8,14.6-1.7,21.8-2.9c-0.6-4.1-1.1-8.3-1.6-12.4c-1.8-15.9-3.3-31.8-3-47.8
				c0.2-12.3,0.9-25.4,5.1-37.1c0.4,0,0.9,0.1,1.2,0.2c-4.3,15.7-3.5,32.9-2.8,48.9c0.8,15.9,2.8,31.8,5.2,47.5
				c7.9-1.3,15.7-2.8,23.5-4.5c-0.5-2.1-0.9-4.2-1.4-6.3c-5.8-27.8-5.3-55.9-2.7-84c0.6,0,1.2,0,1.8,0c-1.8,28.8-1.1,57.5,5.4,85.8
				c0.3,1.2,0.6,2.4,0.9,3.6c0.9-0.2,1.9-0.4,2.8-0.6c-0.6-3.7-1-7.5-1.5-10.9c-1.2-8.5-1.8-17.2-2-25.8c-0.2-9.4,0.2-18.8,0.9-28.2
				c0.6-7.5-0.1-17.6,4.1-24.1c0.2-0.3,0.7-0.2,0.7,0.2c-0.1,4.2-1.1,8.4-1.5,12.6c-0.4,4.4-0.4,8.8-0.4,13.1
				c-0.2,8.8-0.5,17.5-0.3,26.3c0.2,9,1.1,17.8,2.4,26.7c0.5,3.1,1,6.1,1.5,9.1c8.5-2,17-4.2,25.4-6.6c-1-8-2.2-16-3.5-24
				c-1.6-9.9-3.1-19.8-5-29.7c-0.8-4.3-1.7-8.6-2.6-12.8s-2.5-8.4-2.7-12.8c0-0.2,0.3-0.3,0.4-0.1c5,7.4,6.1,18.3,7.7,26.9
				c1.9,9.9,4,19.7,5.8,29.7c1.3,7.3,2.4,14.6,3.2,21.9c1.4-0.4,2.7-0.8,4.1-1.2c-1.2-12.1-2.3-24.3-5.2-36.1
				c-2.1-8.6-4.9-17.1-7.7-25.5c-1.6-4.9-3.3-9.8-5.3-14.6c-1-2.2-2.2-4.3-3.1-6.6c0.8-0.3,1.6-0.5,2.4-0.8c1.5,2.4,2.5,5.2,3.7,7.7
				c1.8,3.9,3.6,7.7,5.2,11.7c3.6,8.8,5.8,18,7.8,27.3c2.5,11.9,5,23.7,6.2,35.7c2.5-0.8,4.9-1.5,7.3-2.3c-0.1-1.4-0.1-2.8-0.2-4.3
				C1094.1,903.1,1094.4,873.9,1083,846.9z M1011.5,812.1c0,0.1-0.1,0.2-0.3,0.3C1011.3,812.3,1011.4,812.2,1011.5,812.1z
				 M1008.2,871.8c-1.2,4.6-2.3,9.3-3.2,14.2c-1.8,10.6-1.8,21.2-1.6,32c0,1.5-2.1,1.4-2.3,0c-1.3-10.5-0.6-21.4,1.1-31.9
				c1.5-8.9,3.4-19.6,8.1-27.7c0.6,0.1,1.2,0.2,1.8,0.3C1011,863.1,1009.3,867.4,1008.2,871.8z M1012.6,810.9c0,0,0.1-0.1,0.2-0.2
				C1012.7,810.8,1012.7,810.9,1012.6,810.9z M1087,799.6c-1.4-1.3-2.8-2.5-4.2-3.6C1084.4,797.1,1085.7,798.3,1087,799.6z"/>
			<path fill="none" d="M948.3,942.9c0.3-15.8,2.6-31.4,6.2-46.8c1-4.2,2.1-8.3,3.2-12.4c1.4-5.3,2.9-10.6,4.4-15.7
				c4.7-15.3,11.8-29.7,20.6-43.1c8.3-12.6,18.4-22.8,32.2-29.1c6.7-3.1,13.6-5.4,20.7-7.2c-0.1,0-0.1-0.1-0.2-0.1
				c-8.5-5.9-21.5-4.7-31.4-4.3c-10.5,0.4-21.1,2-31.2,4.9c-17.6,5.1-33.4,14.7-45.4,28.7c-11.5,13.5-18.9,30-23.3,47.1
				c-4.7,18.4-5.9,37.6-4.7,56.4c0.9,14.3,4.2,27.9,8.3,41.4c13.5,0.3,27.2,0.2,41.1-0.4C948.4,955.8,948.2,949.4,948.3,942.9z
				 M926.9,889.7c0,0.4-0.7,0.6-0.8,0.1c-4.2-25.7,10.8-51.2,27.1-69.8c16.4-18.7,39.6-33.4,65.2-33.6c2.2,0,2.1,3.1,0,3.3
				c-24.3,2.6-45.6,14.4-62.1,32.2c-8.1,8.8-15.2,18.9-20.8,29.5C929.1,863.6,927.3,876.1,926.9,889.7z"/>
			<path fill="none" d="M1121.5,839c-2.7-18.4-9.7-37.3-25.5-48.2c-7.1-4.9-15.6-7.9-24.2-7.8c-2.9,0-5.6,0.5-8.2,1.3
				c12-0.1,24.1,2.7,31.4,13c5.4,7.7,8.8,16.5,10.3,25.6c1.7,5.5,2.2,11.8,2.6,17c0.7,8.4,0,17-0.6,25.4
				c-1.3,17.3-1.5,34.1,0.3,51.4c0.5,5,1.2,9.9,2,14.8c6.2-2.3,12.4-4.7,18.6-7.2c-0.9-7.4-1.7-14.8-2.3-22.3
				C1123.9,881.1,1124.6,859.8,1121.5,839z"/>
			<path fill="none" d="M689.7,760.1c-0.9,4.8-3.2,9.1-3.8,14c-0.6,4.8,0.6,9.6,0.1,14.3c0.6,1.9,1.2,3.8,1.8,5.7
				c0.7,2.3,1.4,4.6,2.1,7c0.2-3.3,0.5-6.5,0.8-9.7c0.8-8.3,1.2-16.8,4.2-24.6c0.2-0.6,1-0.5,1,0.1c0.5,10.6-1.8,21.3-1.8,32
				c0,5.5-0.1,11.2,1,16.7c0.7,3.5,4.1,12.6,8.7,9.3c0.4-0.4,0.7-0.8,1-1.2c0.5-0.9,1-1.7,1.5-2.6c0.1-0.1,0.2-0.2,0.3-0.3
				c2.5-9.4,5.4-18.8,9-27.7c0.6-1.6,2.9-1,2.6,0.7c-1.5,7.4-4,14.6-5.9,21.9c-1.8,7.4-3.4,14.8-5,22.2c-3.1,14.4-5,29.2-5.4,44
				c-0.1,5.4-0.2,10.7-0.2,16.1c1.7,1.2,3.4,2.4,5.1,3.6c0.4-17.7,2.3-35.6,9.7-51.5c0.7-1.4,2.9-0.4,2.5,1.1
				c-5.2,17.8-7,35.5-7.4,53.7c0.6,0.4,1.2,0.8,1.8,1.2c1.5-14.4,4.2-29.4,10.7-42.4c0.5-1.1,2.2-0.3,1.9,0.8
				c-3.4,14.9-6.5,29.4-7.8,44.6c11.7,7.3,23.6,13.8,35.8,19.6c-5.7-16.4-9.7-33.5-12-50.9c-1.8-13.8-2.5-27.8-1.2-41.6
				c1.2-12.6,3.6-27.5,10.9-38.1c0.2-0.3,0.4-0.4,0.7-0.4c0.6-1.6,1.4-3.1,2.4-4.3c0.3-0.4,0.8-0.1,0.8,0.3c0.2,3-1,5.9-1.6,8.8
				c-0.7,3.3-1.1,6.7-1.5,10c-0.7,6.1-1,12.3-0.9,18.4c0.3,12.9,3,25.9,6.9,38.2c0.2,0.8-1,1.4-1.4,0.6c-6.1-12.2-8.9-25.2-9.3-38.8
				c-0.1-6.6,0.3-13.3,1.3-20c-0.8,2.3-1.6,4.7-2.2,7.2c-1.7,6.5-2.7,13.1-3.2,19.8c-1,13.6-0.2,27.4,1.7,40.9
				c2.4,17.3,6,34.7,11.6,51.3c2.1,1,4.3,1.9,6.4,2.9c0-0.1-0.1-0.1-0.1-0.2c-2.3-5.8-3.6-11.4-5.2-17.4c-0.2-0.7,0.8-1,1.1-0.3
				c2.2,5.9,5.1,11.8,7.5,17.7c0.3,0.7,0.6,1.3,0.8,2c15.4,6.5,31.2,11.7,47.4,15.9c-0.9-5.1-1.6-10.1-2.2-15.3
				c-0.9-8.7-1.2-17.5-0.9-26.2c0.3-8,0.6-16.8,3.4-24.4c0.2-0.6,1.1-0.5,1.2,0.2c0.7,8.6-0.6,17.5-0.6,26.1
				c0,8.7,0.5,17.4,1.6,26.1c0.6,5,1.5,9.9,2.5,14.7c4.7,1.1,9.3,2.2,14.1,3.1c0.4,0.1,0.7,0.1,1.1,0.2c-2.3-6.5-4.3-13.1-6.2-19.7
				c-2.5-8.7-5.2-17.5-6.4-26.5c-1.2-9.2-0.9-18.4,0.4-27.5c2.2-15.8,8.1-32,15.6-46c3.7-7,8-13.6,12.9-19.9
				c3.6-4.6,7.4-9.1,12.4-12.1c5.2,0.4,8.3,0.6,8.3,0.6s3.9-15,48.2-29.6c44.4-14.6,75.5-5.8,103.2,0c2.5,0.5,4.8,0.9,7,1.1
				c-0.4,0.8-1.2,1.3-2.3,1.2c-18.6-1.3-37.5-1.4-56,1.6c-28.6,4.6-56.2,16.5-75.7,38.6c-10.3,11.8-16.3,25.8-21.5,40.3
				c-2.9,8-4.1,15.9-3.5,24.4c0.5,7.9,2.1,15.9,2.1,23.8c0,0.8-1.2,1-1.4,0.2c-2.1-9.2-3-19.3-3.7-28.7s1.8-17.7,5-26.5
				c5.2-14.3,11.7-27.5,22-38.8c9.7-10.7,21.7-19.2,34.7-25.5c13.9-6.8,28.7-11,43.7-13.3c-28.9,1.8-57.8,9.7-81.5,26.8
				c-11,8-20.6,18.1-27.7,29.6c-5.9,9.5-9.5,19.7-12.8,30.2c-2.7,17.6,0.5,35.1,6,52.1c5.4,16.8,12.2,33.1,18.9,49.5
				c9,0.8,18.1,1.3,27.3,1.6c-5.4-16.5-8.1-34.5-9-51.2c-2-37.2,7.5-78.8,35.8-104.9c14-12.9,32-21,50.6-24.5
				c9.5-1.8,19.2-2.5,28.8-2.3c8.7,0.1,19.4,0.3,26.9,5.4c1.1,0.8,1,2.1,0.4,3c1.8-0.4,3.7-0.8,5.5-1.1
				c11.3-17.8,36.1-24.4,55.9-21.1c9.7,1.6,20.5,5.6,27.1,13.3c6.4,7.5,9.6,17.4,12,26.9c6.1,23.7,6,48.4,5.8,72.7
				c-0.1,12.9-0.5,26,0.1,39c0.1,0,0.1-0.1,0.2-0.1c0.2-1.9,0.5-3.7,0.7-5.6c2.7-18.3,6.6-36.6,10.3-54.8c2-9.7,4.1-19.4,6.2-29.1
				c2-9.2,4.9-18.4,4.7-27.9c-0.1-8.9-2.3-18.9-6.6-26.8c-2.2-3.9-4.9-7.3-8.6-9.8c-3.8-2.6-7.8-3.2-12-4.5c-0.5-0.1-0.5-0.9,0-1
				c6-1.7,12.8,2.3,17.1,6.3c5.7,5.3,9.1,12.5,11.2,19.8c5.5,18.9-0.2,37.2-4.2,55.8c-4.3,20.2-8.3,40.5-11.9,60.9
				c-0.8,4.9-1.6,9.7-2.2,14.6c1.7-0.7,3.3-1.5,5-2.3c0.1-1.2,0.3-2.5,0.4-3.7c1.2-8.6,3.9-16.8,7.1-24.8c6.5-16.4,14-32.5,20.4-49
				c6.4-16.3,14.1-34.6,13.9-52.5c-0.2-17-10.5-28.2-24.9-35.6c-0.8-0.3-0.9-1-0.7-1.5c13,1.9,24.2,6.5,30.8,15.6
				c3.5,5.9,5.7,12.7,6.5,19.3c2.4,18.8-5.2,37-11.5,54.3c-6.7,18.3-13.5,36.8-18.5,55.7c-1,3.9-2,7.8-2.7,11.8
				c2.3-1.2,4.5-2.5,6.8-3.8c2.1-7.5,4.3-14.9,6.6-22.3c5.5-17.8,11.9-35.5,16.9-53.5c5-17.9,9.3-36.9,5-55.4
				c-0.2-0.9,1.2-1.6,1.6-0.7c7,15.3,0.9,33.9-2.7,49.3c-4.3,18.3-9.2,36.2-14.7,54.1c-2.5,8.4-5.1,16.9-7.4,25.4
				c7.4-4.4,14.7-9.1,21.8-14.1c4.1-12.2,7.7-24.5,10.4-37.2c3.1-14.2,6.6-28.3,9.4-42.6c1.5-7.8,2.6-15.6,3.2-23.5
				c0.6-7.3-0.9-14.7-0.3-22c0-0.3,0.1-0.5,0.2-0.6c-0.2-0.5-0.5-1-0.8-1.5c-1.2-2.1,2-4,3.2-1.9c7.2,12.5,11.8,26.2,14,40.6
				c1,7.1,1.3,14.2,1,21.3c-0.2,6-0.3,13.3-3,18.8c-0.5,1-2.1,0.4-2.1-0.6c-0.2-6.6,1.8-13.3,2-19.9c0.2-6.8-0.2-13.7-1.3-20.4
				c-1.7-10.8-5.2-21.2-10-30.9c0.9,5.2,0.6,11,0.5,16.1c-0.1,6.6-1,13.2-2,19.7c-2.4,14.6-5.7,29.2-9.2,43.6
				c-3.1,13-6.5,25.6-11,38c9.6-6.8,18.9-14.2,27.8-21.9c3.1-2.7,6.2-5.5,9.2-8.4c1.4-4.9,2.8-9.8,4.3-14.6
				c4.8-16.5,9.9-33,13.2-49.9c3.4-16.9,4.7-34.2-1.7-50.5c-0.6-1.6,2.1-2.7,2.8-1.2c6.5,13.9,6.2,29.8,4,44.7
				c-2.5,16.7-7.2,33-12.1,49.2c-1.7,5.7-3.5,11.4-5.2,17.1c5.5-5.6,10.7-11.5,15.5-17.6c4.1-10,8.4-19.9,12.1-30
				c3.6-9.8,6.4-19,7.3-29.5c0.8-10.1-1-19.7-2.9-29.6c-0.3-1.5,1.7-2.6,2.5-1.1c4.9,9,5.3,19.8,4.5,29.8
				c-0.8,10.2-3.2,21.1-6.4,30.8c-0.9,2.8-1.9,5.6-3,8.3c1.9-3.4,3.6-6.9,5.2-10.5c8.2-18.3,10.4-37.2,1.7-59.2
				c-2.8-7-5.5-12.7-11.3-20.4l-9.5-14.5l-35.2-20.3l-546,80.1C689.7,760,689.7,760,689.7,760.1z M1271.1,730.1
				c0.1-0.4,0.7-0.5,0.9-0.1c2.4,4,4.4,9,6.2,13.3c1.5,3.5,2.2,7.1,2.8,10.8c1.5,9.5,1.8,18.9-0.1,28.3c0,0.4-0.6,0.2-0.6-0.1
				c-0.7-9.8,1.1-20-1.8-29.6c-1.4-4.9-4-9.2-6-13.8C1271.3,736,1270.1,733.2,1271.1,730.1z M835.7,805.4
				c-3.2,5.6-6.1,10.6-8.2,16.7c-1.6,4.7-2.9,9.4-3.9,14.3c-2.1,10.8-3,21.8-3.4,32.8c0,1.6-2.3,1.6-2.5-0.1
				c0.2-22.1,1-47.2,17-64.5C835.2,804.1,836.1,804.8,835.7,805.4z M798.8,852.1c1.5-10.8,4.7-22.3,10.8-31.5
				c3-4.4,6.1-8.7,9.8-12.5c2.8-2.8,6.2-6.5,10.4-6.4c0.6,0,0.9,0.9,0.3,1.2c-18.8,10.7-25.9,36.2-27.7,56.4
				c-1,11.7-0.4,23.4,0.3,35.1c0.3,6.2,0.9,12.4,1.5,18.6c0.6,5.9,1.5,11.8,0.9,17.7c-0.1,0.9-1.4,1.2-1.6,0.2
				c-1.6-6.4-1.8-13.2-2.5-19.8c-0.8-6.9-1.8-13.7-2.5-20.6C797.3,877.7,797,864.8,798.8,852.1z M772.6,857.4
				c0.8-11.2,2.7-22.6,5.5-33.5c2.4-9.1,5.8-18.7,12.8-25.4c0.8-0.8,2.3,0.2,1.6,1.2c-12.2,17-15.1,39.2-16.1,59.6
				c-1,21.2,1.3,42,9.3,61.7c0.8,2-2.2,3-3.3,1.4c-5.7-8.7-7.3-20.4-8.6-30.4C772.3,880.6,771.8,868.9,772.6,857.4z"/>
			<path fill="none" d="M695,854.4c0,0-2.4-14.1-6.6-34.2c-3.9-19.2-11.1-39.7-16.8-54.1L635.3,834c17.7,22.4,36.5,41.2,57.8,57.6
				C694.5,872.7,695.7,864.4,695,854.4z"/>
			<path fill="none" d="M1199.5,773c0.1,0.2,0.1,0.4,0.2,0.7c0.2,0.4,0.3,0.8,0.5,1.2c-0.2-0.5-0.3-0.9-0.5-1.3
				C1199.6,773.4,1199.6,773.2,1199.5,773z"/>
			<path fill="none" d="M1199.4,772.6c0-0.1-0.1-0.3-0.1-0.4c0-0.1-0.1-0.2-0.1-0.3C1199.3,772.1,1199.3,772.3,1199.4,772.6z"/>
			<path fill="none" d="M1199.6,773c0.2,0.6,0.4,1.3,0.6,1.9C1200,774.2,1199.8,773.6,1199.6,773z"/>
			<path fill="none" d="M841.7,841.4c3.8-8.9,8.9-17.2,14.8-25c2.4-3.1,4.8-6.2,7.4-9.2c-10.4,7.8-17.8,21.1-23.4,32.1
				c-7.3,14.4-11.1,29.3-12.9,45.3c-2.1,18.5,2.1,35.4,7.1,53c1.7,6.2,3.6,12.4,5.7,18.5c1.7,0.3,3.4,0.6,5,0.9
				c-6.1-19.3-11.1-38.9-12.3-59.5C832,878.5,834.3,859,841.7,841.4z"/>
			<path fill="none" d="M680.6,773.7L680.6,773.7c1.5-5.5,4.3-10.7,7.8-13.6l-7.8,1.1c0,0.7,0,1.3,0.1,2
				C680.9,766.7,681.5,770.3,680.6,773.7z"/>
			<path fill="none" d="M676.5,763.6C676.5,763.5,676.5,763.5,676.5,763.6c0.1-0.7,0.2-1.2,0.3-1.8l-0.7,0.1c0,0.3,0,0.6,0.1,0.9
				C676.3,763.1,676.4,763.3,676.5,763.6z"/>
			<path fill="none" d="M972,881.7c2.7-19.2,11.7-38,22.3-53.9c6.2-9.2,12.9-18.4,21.7-25.3c3.5-2.8,7.3-5.2,11.4-7.3
				c-4.4,1.2-8.8,2.8-13,4.9c-13.6,6.8-22.6,17.6-30.4,30.3c-5.6,9.1-10.3,18.7-14.2,28.7c-0.5,2.2-1.2,4.5-1.8,6.7
				c-1.2,4.4-2.4,8.7-3.6,13c-2.4,8.7-4.6,17.3-6.4,26.1c-3.2,15.9-4.8,32.1-4.1,48.3c0.1,2.9,0.3,5.9,0.5,8.8
				c5.9-0.3,11.9-0.7,17.9-1.1C967.4,935,966.8,907.7,972,881.7z"/>
			<path opacity="0.3" fill="#091426" enable-background="new    " d="M1082.8,796c1.4,1.1,2.8,2.3,4.2,3.6
				C1085.7,798.3,1084.4,797.1,1082.8,796z"/>
			<path opacity="0.3" fill="#091426" enable-background="new    " d="M1199.5,773c0,0.2,0.1,0.4,0.2,0.6c0.2,0.4,0.3,0.8,0.5,1.3
				C1200,774.3,1199.8,773.7,1199.5,773c0-0.3-0.1-0.6-0.2-0.9c0,0.1,0.1,0.3,0.1,0.4C1199.5,772.7,1199.5,772.9,1199.5,773z"/>
			<path opacity="0.3" fill="#091426" enable-background="new    " d="M1101.6,883.2c0-0.8,0-1.6,0.1-2.3c0,0.1-0.1,0.3-0.2,0.5
				C1101.5,882,1101.5,882.6,1101.6,883.2z"/>
			<path opacity="0.3" fill="#091426" enable-background="new    " d="M1074.2,875.8c-1.6-4-3.4-7.8-5.2-11.7
				c-1.2-2.5-2.2-5.3-3.7-7.7c-0.8,0.3-1.6,0.5-2.4,0.8c0.9,2.3,2.1,4.4,3.1,6.6c2,4.8,3.7,9.7,5.3,14.6c2.8,8.4,5.6,16.9,7.7,25.5
				c2.9,11.8,4,24,5.2,36.1c0.4-0.1,0.9-0.2,1.3-0.4c0.9-0.3,1.8-0.6,2.7-0.8c-1.2-12-3.7-23.7-6.2-35.7
				C1080,893.8,1077.8,884.6,1074.2,875.8z"/>
			<path opacity="0.3" fill="#091426" enable-background="new    " d="M1071.2,889.6c-1.6-8.6-2.7-19.5-7.7-26.9
				c-0.1-0.2-0.4-0.1-0.4,0.1c0.2,4.4,1.8,8.6,2.7,12.8c0.9,4.2,1.8,8.5,2.6,12.8c1.9,9.9,3.4,19.8,5,29.7c1.3,8,2.5,16,3.5,24
				c1.1-0.3,2.2-0.6,3.3-0.9c-0.8-7.3-1.9-14.6-3.2-21.9C1075.2,909.3,1073.1,899.5,1071.2,889.6z"/>
			<path opacity="0.3" fill="#091426" enable-background="new    " d="M1047.5,912.9c-0.2-8.8,0.1-17.5,0.3-26.3
				c0-4.3,0-8.7,0.4-13.1c0.4-4.2,1.4-8.4,1.5-12.6c0-0.4-0.5-0.5-0.7-0.2c-4.2,6.5-3.5,16.6-4.1,24.1c-0.7,9.4-1.1,18.8-0.9,28.2
				c0.2,8.6,0.8,17.3,2,25.8c0.5,3.4,0.9,7.1,1.5,10.9c1.3-0.3,2.6-0.6,4-0.9c-0.6-3-1.1-6-1.5-9.1
				C1048.6,930.7,1047.7,921.9,1047.5,912.9z"/>
			<path opacity="0.3" fill="#091426" enable-background="new    " d="M1038.4,860.9c-0.6,0-1.2,0-1.8,0c-2.6,28.1-3.1,56.2,2.7,84
				c0.4,2.1,0.9,4.2,1.4,6.3c1.3-0.3,2.7-0.6,4-0.9c-0.3-1.2-0.6-2.4-0.9-3.6C1037.3,918.4,1036.6,889.7,1038.4,860.9z"/>
			<path opacity="0.3" fill="#091426" enable-background="new    " d="M1002.2,886.1c-1.7,10.5-2.4,21.4-1.1,31.9
				c0.2,1.4,2.3,1.5,2.3,0c-0.2-10.8-0.2-21.4,1.6-32c0.9-4.9,2-9.6,3.2-14.2c1.1-4.4,2.8-8.7,3.9-13.1c-0.6-0.1-1.2-0.2-1.8-0.3
				C1005.6,866.5,1003.7,877.2,1002.2,886.1z"/>
			<path opacity="0.3" fill="#091426" enable-background="new    " d="M1014.7,859.2c-0.3-0.1-0.8-0.2-1.2-0.2
				c-4.2,11.7-4.9,24.8-5.1,37.1c-0.3,16,1.2,31.9,3,47.8c0.5,4.1,1,8.3,1.6,12.4c1.4-0.2,2.8-0.4,4.2-0.7
				c-2.5-15.8-4.5-31.6-5.2-47.5C1011.2,892.1,1010.4,874.9,1014.7,859.2z"/>
			<path opacity="0.3" fill="#091426" enable-background="new    " d="M1233.1,797.4c1-6.5,1.9-13.1,2-19.7
				c0.1-5.1,0.4-10.9-0.5-16.1c4.8,9.7,8.3,20.1,10,30.9c1.1,6.7,1.5,13.6,1.3,20.4c-0.2,6.6-2.2,13.3-2,19.9c0,1,1.6,1.6,2.1,0.6
				c2.7-5.5,2.8-12.8,3-18.8c0.3-7.1,0-14.2-1-21.3c-2.2-14.4-6.8-28.1-14-40.6c-1.2-2.1-4.4-0.2-3.2,1.9c0.3,0.5,0.6,1,0.8,1.5
				c-0.1,0.1-0.2,0.3-0.2,0.6c-0.6,7.3,0.9,14.7,0.3,22c-0.6,7.9-1.7,15.7-3.2,23.5c-2.8,14.3-6.3,28.4-9.4,42.6
				c-2.7,12.7-6.3,25-10.4,37.2c1.4-1,2.8-1.9,4.1-2.9c4.5-12.5,8-25.1,11-38C1227.4,826.6,1230.7,812,1233.1,797.4z"/>
			<path opacity="0.3" fill="#091426" enable-background="new    " d="M1272.4,777.2c2.2-14.9,2.5-30.8-4-44.7
				c-0.7-1.5-3.4-0.4-2.8,1.2c6.4,16.3,5.1,33.6,1.7,50.5c-3.3,16.9-8.4,33.4-13.2,49.9c-1.4,4.9-2.9,9.7-4.3,14.6
				c1.8-1.7,3.6-3.4,5.3-5.2c1.7-5.7,3.5-11.4,5.2-17.1C1265.2,810.2,1269.9,793.9,1272.4,777.2z"/>
			<path opacity="0.3" fill="#091426" enable-background="new    " d="M1278.5,752.7c2.9,9.6,1.1,19.8,1.8,29.6
				c0,0.3,0.6,0.5,0.6,0.1c1.9-9.4,1.6-18.8,0.1-28.3c-0.6-3.7-1.3-7.3-2.8-10.8c-1.8-4.3-3.8-9.3-6.2-13.3
				c-0.2-0.4-0.8-0.3-0.9,0.1c-1,3.1,0.2,5.9,1.4,8.8C1274.5,743.5,1277.1,747.8,1278.5,752.7z"/>
			<path opacity="0.3" fill="#091426" enable-background="new    " d="M716.5,850c-7.4,15.9-9.4,33.9-9.7,51.5
				c1.6,1.1,3.2,2.2,4.8,3.2c0.4-18.1,2.2-35.9,7.4-53.7C719.4,849.6,717.2,848.6,716.5,850z"/>
			<path opacity="0.3" fill="#091426" enable-background="new    " d="M1163.1,840.1c4-18.6,9.7-36.9,4.2-55.8
				c-2.1-7.3-5.5-14.5-11.2-19.8c-4.3-4-11.1-8-17.1-6.3c-0.5,0.1-0.5,0.9,0,1c4.2,1.3,8.2,1.9,12,4.5c3.7,2.5,6.4,5.9,8.6,9.8
				c4.3,7.9,6.5,17.9,6.6,26.8c0.2,9.5-2.7,18.7-4.7,27.9c-2.1,9.7-4.2,19.4-6.2,29.1c-3.7,18.2-7.6,36.5-10.3,54.8
				c-0.2,1.9-0.5,3.7-0.7,5.6c1.6-0.7,3.2-1.4,4.8-2.1c0.6-4.9,1.3-9.7,2.2-14.6C1154.8,880.6,1158.8,860.3,1163.1,840.1z"/>
			<path opacity="0.3" fill="#091426" enable-background="new    " d="M1144,878.8c0.2-24.3,0.3-49-5.8-72.7
				c-2.4-9.5-5.6-19.4-12-26.9c-6.6-7.7-17.4-11.7-27.1-13.3c-19.8-3.3-44.6,3.3-55.9,21.1c-1.8,0.3-3.7,0.7-5.5,1.1
				c0.6-0.9,0.7-2.2-0.4-3c-7.5-5.1-18.2-5.3-26.9-5.4c-9.6-0.2-19.3,0.5-28.8,2.3c-18.6,3.5-36.6,11.6-50.6,24.5
				c-28.3,26.1-37.8,67.7-35.8,104.9c0.9,16.7,3.5,34.7,9,51.2c1.2,0,2.3,0.1,3.5,0.1c-4.1-13.5-7.4-27.1-8.3-41.4
				c-1.2-18.8,0-38,4.7-56.4c4.4-17.1,11.8-33.6,23.3-47.1c12-14,27.8-23.6,45.4-28.7c10.1-2.9,20.7-4.5,31.2-4.9
				c9.9-0.4,22.9-1.6,31.4,4.3c0.1,0,0.1,0.1,0.2,0.1c-7.1,1.8-14,4.1-20.7,7.2c-13.8,6.3-23.9,16.5-32.2,29.1
				c-8.8,13.4-15.9,27.8-20.6,43.1c-1.5,5.1-3,10.4-4.4,15.7c-1.1,4.1-2.2,8.2-3.2,12.4c-3.6,15.4-5.9,31-6.2,46.8
				c-0.1,6.5,0.1,12.9,0.5,19.3c1.9-0.1,3.8-0.2,5.6-0.3c-0.2-2.9-0.4-5.8-0.5-8.8c-0.7-16.2,0.9-32.4,4.1-48.3
				c1.8-8.8,4-17.4,6.4-26.1c1.2-4.3,2.4-8.6,3.6-13c0.6-2.2,1.3-4.5,1.8-6.7c3.9-10,8.6-19.6,14.2-28.7
				c7.8-12.7,16.8-23.5,30.4-30.3c4.2-2.1,8.6-3.7,13-4.9c-4.1,2.1-7.9,4.5-11.4,7.3c-8.8,6.9-15.5,16.1-21.7,25.3
				c-10.6,15.9-19.6,34.7-22.3,53.9c-5.2,26-4.6,53.3,0.3,79.1c1.2-0.1,2.4-0.2,3.6-0.3c-5.1-27.2-5.3-54.6-1.1-81.8
				c1.6-6.2,3.3-12.3,5.7-18.4c4-10.2,8.6-20.1,14.7-29.2c5.9-8.7,13-17.4,21-24.3c1.7-1.5,3.5-2.7,5.4-3.9c-2.4,2.2-4.7,4.5-7,6.8
				c0.6-0.6,1.2-1.2,1.8-1.7c0,0,0.1,0,0.1-0.1c2.4-2.2,4.9-4.1,7.6-5.8c0.1-0.1,0.2-0.2,0.4-0.2c0.5-0.3,1-0.7,1.6-1
				c0.2-0.1,0.3-0.2,0.5-0.3c0.5-0.3,1-0.6,1.5-0.9c0.2-0.1,0.3-0.2,0.5-0.3c0.7-0.4,1.4-0.8,2.1-1.2c9.9-5.5,16.7-9.5,16.7-9.5
				c0.3,0,0.6-0.1,0.9-0.1c0.1,0,0.2,0,0.3,0c0.2,0,0.4,0,0.7-0.1c0.1,0,0.2,0,0.3,0c0.8-0.1,1.6-0.2,2.4-0.3c0.3,0,0.6-0.1,0.9-0.1
				h0.1c0.3,0,0.6-0.1,0.9-0.1h0.1c2-0.2,4-0.3,6.1-0.3c0,0,0,0,0.1,0c0.3,0,0.7,0,1,0h0.1c0.3,0,0.7,0,1,0h0.1c0.3,0,0.7,0,1,0.1
				h0.1c0.4,0,0.7,0.1,1.1,0.1c2.3,0.3,4.7,0.8,7.2,1.6c0.4,0.1,0.8,0.3,1.2,0.4h0.1c0.4,0.1,0.8,0.3,1.1,0.5c0.1,0,0.1,0,0.2,0.1
				c0.4,0.2,0.8,0.3,1.1,0.5c0,0,0.1,0,0.1,0.1c0.4,0.2,0.8,0.4,1.2,0.6c2.1,1.1,4.3,2.5,6.6,4.3c1.6,1,3,2.3,4.2,3.6
				c0.2,0.2,0.5,0.5,0.7,0.7c16.5,16.5,16.6,27.9,16.6,27.9s-0.1,0.1-0.2,0.2l-0.1,0.1l-0.1,0.1l-0.1,0.1c-0.2,0.2-0.5,0.5-0.8,0.8
				l-0.1,0.1c-0.1,0.1-0.2,0.2-0.3,0.3c-0.1,0-0.1,0.1-0.2,0.1c-0.1,0.1-0.2,0.2-0.3,0.3c0,0-0.1,0.1-0.2,0.1
				c-0.1,0.1-0.2,0.2-0.4,0.4c-0.1,0-0.1,0.1-0.2,0.2c-0.2,0.2-0.5,0.5-0.8,0.7c-0.1,0.1-0.2,0.1-0.2,0.2c-0.1,0.1-0.3,0.3-0.4,0.4
				c-0.1,0.1-0.2,0.2-0.3,0.3c-0.1,0.1-0.3,0.3-0.4,0.4c-0.1,0.1-0.2,0.2-0.3,0.3c-0.1,0.1-0.3,0.3-0.5,0.4
				c-0.1,0.1-0.2,0.2-0.3,0.3c-0.2,0.1-0.3,0.3-0.5,0.4c0.1,4.6-0.2,9.3-0.8,13.9c-1.1-3.1-2.6-6.4-4.5-9.3
				c-0.8,0.7-1.7,1.5-2.6,2.2c1.2,3.3,2.9,6.4,3.9,9.8c0.8,2.7,1.2,5.6,1.6,8.4c-0.7,5-1.1,9.8-1.2,14.7c-1.9-10-4.7-19.8-9.3-28.9
				c-0.8,0.6-1.5,1.1-2.3,1.7c11.4,27,11.1,56.2,12.3,85.3c0.1,1.4,0.1,2.8,0.2,4.3c4.8-1.6,9.4-3.2,14.1-5c-0.8-4.9-1.5-9.8-2-14.8
				c-1.8-17.3-1.6-34.1-0.3-51.4c0.6-8.4,1.3-17,0.6-25.4c-0.4-5.2-0.9-11.5-2.6-17c-1.5-9.1-4.9-17.9-10.3-25.6
				c-7.3-10.3-19.4-13.1-31.4-13c2.6-0.8,5.3-1.3,8.2-1.3c8.6-0.1,17.1,2.9,24.2,7.8c15.8,10.9,22.8,29.8,25.5,48.2
				c3.1,20.8,2.4,42.1,4.3,63c0.7,7.4,1.4,14.9,2.3,22.3c1.3-0.5,2.5-1,3.8-1.5c-1-9.9-1.8-19.8-2.3-29.6
				c-1.7-32.7,1.8-76.8-23.9-101.6c-2.7-3.9-5.4-7.5-9.8-10.3c-5.3-3.4-11.6-4.9-17.9-5.1c-4-0.1-8.1,0.4-12,1.5
				c2.7-2,7.6-5.2,14.2-7.6c7.1-1.2,14.4-1.1,21.2,0.5c11.5,2.7,21.8,8.6,27.2,19.5c5,10.3,7.4,22.1,9.1,33.3
				c4.8,31.7,1.8,63.9,3.3,95.8c1-0.4,2.1-0.9,3.1-1.3C1143.5,904.8,1143.9,891.7,1144,878.8z"/>
			<path opacity="0.3" fill="#091426" enable-background="new    " d="M986.7,873.9c1.7-7.1,4.1-14,7.1-20.6c-2.8-1.1-4.3-2-4.6-2.2
				h-0.1c0,0,7.7-18,15.7-30.1c0.4-0.7,0.9-1.3,1.3-2c0.2-0.2,0.3-0.5,0.5-0.7c0.3-0.4,0.5-0.7,0.8-1.1c0.2-0.3,0.4-0.6,0.7-0.9
				c0.2-0.3,0.4-0.5,0.6-0.8c0.2-0.3,0.5-0.6,0.7-0.9c-1.8,2.1-3.6,4.3-5.3,6.5c-10,12.7-18.1,27.3-22.5,42.9
				c-4.8,17.3-5.6,34.7-3.4,52.5c1.9,14.5,4,28.9,6.3,43.3c2.2-0.2,4.4-0.4,6.7-0.7c-1.6-10.4-3.2-20.8-4.6-31.3
				C984.1,909.8,982.4,891.8,986.7,873.9z"/>
			<path opacity="0.3" fill="#091426" enable-background="new    " d="M1196.1,835.4c6.3-17.3,13.9-35.5,11.5-54.3
				c-0.8-6.6-3-13.4-6.5-19.3c-6.6-9.1-17.8-13.7-30.8-15.6c-0.2,0.5-0.1,1.2,0.7,1.5c14.4,7.4,24.7,18.6,24.9,35.6
				c0.2,17.9-7.5,36.2-13.9,52.5c-6.4,16.5-13.9,32.6-20.4,49c-3.2,8-5.9,16.2-7.1,24.8c-0.2,1.2-0.3,2.5-0.4,3.7
				c7-3.2,13.9-6.7,20.8-10.5c0.8-3.9,1.7-7.9,2.7-11.8C1182.6,872.2,1189.4,853.7,1196.1,835.4z M1199.2,771.8
				c0.2,0.4,0.3,0.8,0.4,1.2c0.2,0.6,0.4,1.2,0.6,1.9c-0.2-0.4-0.3-0.8-0.5-1.2c0-0.2-0.1-0.4-0.2-0.7c0-0.2-0.1-0.3-0.1-0.5
				C1199.3,772.3,1199.3,772.1,1199.2,771.8c0,0.2,0.1,0.3,0.1,0.4C1199.3,772.1,1199.2,771.9,1199.2,771.8z"/>
			<path opacity="0.3" fill="#091426" enable-background="new    " d="M1209,816.5c3.6-15.4,9.7-34,2.7-49.3
				c-0.4-0.9-1.8-0.2-1.6,0.7c4.3,18.5,0,37.5-5,55.4c-5,18-11.4,35.7-16.9,53.5c-2.3,7.4-4.5,14.8-6.6,22.3c1.8-1,3.5-2,5.3-3.1
				c2.4-8.5,4.9-17,7.4-25.4C1199.8,852.7,1204.7,834.8,1209,816.5z"/>
			<path opacity="0.3" fill="#091426" enable-background="new    " d="M695,854.4c0.7,10-0.5,18.3-1.9,37.2c2.8,2.2,5.7,4.3,8.6,6.4
				c0-5.3,0.1-10.7,0.2-16.1c0.4-14.8,2.3-29.6,5.4-44c1.6-7.4,3.2-14.8,5-22.2c1.9-7.3,4.4-14.5,5.9-21.9c0.3-1.7-2-2.3-2.6-0.7
				c-3.6,8.9-6.5,18.3-9,27.7c-0.1,0.1-0.2,0.2-0.3,0.3c-0.5,0.9-1,1.7-1.5,2.6c-0.3,0.4-0.6,0.8-1,1.2c-4.6,3.3-8-5.8-8.7-9.3
				c-1.1-5.5-1-11.2-1-16.7c0-10.7,2.3-21.4,1.8-32c0-0.6-0.8-0.7-1-0.1c-3,7.8-3.4,16.3-4.2,24.6c-0.3,3.2-0.6,6.4-0.8,9.7
				c-0.7-2.4-1.4-4.7-2.1-7c-0.6-1.9-1.2-3.8-1.8-5.7c0.5-4.7-0.7-9.5-0.1-14.3c0.6-4.9,2.9-9.2,3.8-14c0-0.1,0-0.1,0-0.2l-1.3,0.2
				c-3.5,2.9-6.3,8.1-7.8,13.7v-0.1c0.9-3.4,0.3-7,0.1-10.5c0-0.7-0.1-1.3-0.1-2l-3.8,0.6c-0.1,0.6-0.2,1.1-0.3,1.7c0,0,0,0,0,0.1
				c-0.1-0.3-0.2-0.5-0.3-0.8c0-0.3,0-0.6-0.1-0.9l-2.5,0.4l-2,3.8c5.7,14.4,12.9,35,16.8,54.1C692.6,840.3,695,854.4,695,854.4z"/>
			<path opacity="0.3" fill="#091426" enable-background="new    " d="M1294.1,765.5c0.8-10,0.4-20.8-4.5-29.8
				c-0.8-1.5-2.8-0.4-2.5,1.1c1.9,9.9,3.7,19.5,2.9,29.6c-0.9,10.5-3.7,19.7-7.3,29.5c-3.7,10.1-8,20-12.1,30
				c5.2-6.7,10-13.8,14.1-21.3c1-2.8,2-5.5,3-8.3C1290.9,786.6,1293.3,775.7,1294.1,765.5z"/>
			<path opacity="0.3" fill="#091426" enable-background="new    " d="M852,859.4c3.3-10.5,6.9-20.7,12.8-30.2
				c7.1-11.5,16.7-21.6,27.7-29.6c23.7-17.1,52.6-25,81.5-26.8c-15,2.3-29.8,6.5-43.7,13.3c-13,6.3-25,14.8-34.7,25.5
				c-10.3,11.3-16.8,24.5-22,38.8c-3.2,8.8-5.7,17.1-5,26.5s1.6,19.5,3.7,28.7c0.2,0.8,1.4,0.6,1.4-0.2c0-7.9-1.6-15.9-2.1-23.8
				c-0.6-8.5,0.6-16.4,3.5-24.4c5.2-14.5,11.2-28.5,21.5-40.3c19.5-22.1,47.1-34,75.7-38.6c18.5-3,37.4-2.9,56-1.6
				c1.1,0.1,1.9-0.4,2.3-1.2c-2.2-0.2-4.5-0.6-7-1.1c-27.7-5.8-58.8-14.6-103.2,0C876.1,789,872.2,804,872.2,804s-3.1-0.2-8.3-0.6
				c-5,3-8.8,7.5-12.4,12.1c-4.9,6.3-9.2,12.9-12.9,19.9c-7.5,14-13.4,30.2-15.6,46c-1.3,9.1-1.6,18.3-0.4,27.5
				c1.2,9,3.9,17.8,6.4,26.5c1.9,6.6,3.9,13.2,6.2,19.7c1.7,0.3,3.4,0.7,5.2,1c-2.1-6.1-4-12.3-5.7-18.5c-5-17.6-9.2-34.5-7.1-53
				c1.8-16,5.6-30.9,12.9-45.3c5.6-11,13-24.3,23.4-32.1c-2.6,3-5,6.1-7.4,9.2c-5.9,7.8-11,16.1-14.8,25
				c-7.4,17.6-9.7,37.1-8.6,56.1c1.2,20.5,6.2,40.1,12.3,59.5c10.3,1.7,20.8,3,31.4,4c-6.7-16.4-13.5-32.6-18.9-49.5
				C852.5,894.5,849.3,877,852,859.4z"/>
			<path opacity="0.3" fill="#091426" enable-background="new    " d="M759.3,915c-0.3-0.7-1.3-0.4-1.1,0.3c1.6,6,2.9,11.6,5.2,17.4
				c0,0.1,0.1,0.1,0.1,0.2c1.4,0.6,2.8,1.2,4.2,1.8c-0.3-0.7-0.6-1.3-0.8-2C764.4,926.8,761.5,920.9,759.3,915z"/>
			<path opacity="0.3" fill="#091426" enable-background="new    " d="M816,911c0-8.6,1.3-17.5,0.6-26.1c-0.1-0.7-1-0.8-1.2-0.2
				c-2.8,7.6-3.1,16.4-3.4,24.4c-0.3,8.7,0,17.5,0.9,26.2c0.5,5.1,1.2,10.2,2.2,15.3c1.7,0.4,3.3,0.9,5,1.3c-1-4.9-1.8-9.8-2.5-14.7
				C816.5,928.4,816,919.7,816,911z"/>
			<path opacity="0.3" fill="#091426" enable-background="new    " d="M724.1,863.6c-6.5,13-9.2,28-10.7,42.4c0.7,0.5,1.5,1,2.2,1.5
				c0.8,0.5,1.7,1,2.5,1.6c1.3-15.2,4.5-29.7,7.8-44.6C726.3,863.3,724.6,862.5,724.1,863.6z"/>
			<path opacity="0.3" fill="#091426" enable-background="new    " d="M1199.2,771.8c0,0.1,0.1,0.3,0.1,0.4c0.1,0.3,0.2,0.6,0.3,0.9
				C1199.5,772.6,1199.4,772.2,1199.2,771.8z"/>
			<path opacity="0.3" fill="#091426" enable-background="new    " d="M1199.2,771.8c0,0.1,0.1,0.3,0.1,0.4c0.1,0.3,0.2,0.6,0.3,0.9
				C1199.5,772.6,1199.4,772.2,1199.2,771.8z"/>
			<path opacity="0.3" fill="#091426" enable-background="new    " d="M1199.5,773c0-0.2-0.1-0.3-0.1-0.5
				C1199.5,772.7,1199.5,772.9,1199.5,773z"/>
			<path opacity="0.3" fill="#091426" enable-background="new    " d="M1199.5,773c0-0.2-0.1-0.3-0.1-0.5
				C1199.5,772.7,1199.5,772.9,1199.5,773z"/>
			<path opacity="0.3" fill="#091426" enable-background="new    " d="M1018.4,789.7c2.1-0.2,2.2-3.3,0-3.3
				c-25.6,0.2-48.8,14.9-65.2,33.6c-16.3,18.6-31.3,44.1-27.1,69.8c0.1,0.5,0.8,0.3,0.8-0.1c0.4-13.6,2.2-26.1,8.6-38.3
				c5.6-10.6,12.7-20.7,20.8-29.5C972.8,804.1,994.1,792.3,1018.4,789.7z"/>
			<path opacity="0.3" fill="#091426" enable-background="new    " d="M820.2,869.2c0.4-11,1.3-22,3.4-32.8c1-4.9,2.3-9.6,3.9-14.3
				c2.1-6.1,5-11.1,8.2-16.7c0.4-0.6-0.5-1.3-1-0.8c-16,17.3-16.8,42.4-17,64.5C817.9,870.8,820.2,870.8,820.2,869.2z"/>
			<path opacity="0.3" fill="#091426" enable-background="new    " d="M801,911.1c0.7,6.6,0.9,13.4,2.5,19.8c0.2,1,1.5,0.7,1.6-0.2
				c0.6-5.9-0.3-11.8-0.9-17.7c-0.6-6.2-1.2-12.4-1.5-18.6c-0.7-11.7-1.3-23.4-0.3-35.1c1.8-20.2,8.9-45.7,27.7-56.4
				c0.6-0.3,0.3-1.2-0.3-1.2c-4.2-0.1-7.6,3.6-10.4,6.4c-3.7,3.8-6.8,8.1-9.8,12.5c-6.1,9.2-9.3,20.7-10.8,31.5
				c-1.8,12.7-1.5,25.6-0.3,38.4C799.2,897.4,800.2,904.2,801,911.1z"/>
			<path opacity="0.3" fill="#091426" enable-background="new    " d="M782.4,922.4c1.1,1.6,4.1,0.6,3.3-1.4
				c-8-19.7-10.3-40.5-9.3-61.7c1-20.4,3.9-42.6,16.1-59.6c0.7-1-0.8-2-1.6-1.2c-7,6.7-10.4,16.3-12.8,25.4
				c-2.8,10.9-4.7,22.3-5.5,33.5c-0.8,11.5-0.3,23.2,1.2,34.6C775.1,902,776.7,913.7,782.4,922.4z"/>
			<path opacity="0.3" fill="#091426" enable-background="new    " d="M743.7,837.8c0.5-6.7,1.5-13.3,3.2-19.8
				c0.6-2.5,1.4-4.9,2.2-7.2c-1,6.7-1.4,13.4-1.3,20c0.4,13.6,3.2,26.6,9.3,38.8c0.4,0.8,1.6,0.2,1.4-0.6
				c-3.9-12.3-6.6-25.3-6.9-38.2c-0.1-6.1,0.2-12.3,0.9-18.4c0.4-3.3,0.8-6.7,1.5-10c0.6-2.9,1.8-5.8,1.6-8.8c0-0.4-0.5-0.7-0.8-0.3
				c-1,1.2-1.8,2.7-2.4,4.3c-0.3,0-0.5,0.1-0.7,0.4c-7.3,10.6-9.7,25.5-10.9,38.1c-1.3,13.8-0.6,27.8,1.2,41.6
				c2.3,17.4,6.2,34.5,12,50.9c1,0.5,2,1,3.1,1.4c-5.6-16.6-9.2-34-11.6-51.3C743.5,865.2,742.7,851.4,743.7,837.8z"/>
			<path opacity="0.3" fill="#091426" enable-background="new    " d="M1012.8,810.7c-0.1,0.1-0.2,0.2-0.2,0.2
				C1012.7,810.9,1012.7,810.8,1012.8,810.7z"/>
			<path opacity="0.3" fill="#091426" enable-background="new    " d="M1011.5,812.1c-0.1,0.1-0.2,0.2-0.3,0.3
				C1011.4,812.3,1011.5,812.2,1011.5,812.1z"/>
		</g>
	</g>
	<g id="highlights">
		<g>
			<path fill="none" d="M1290,794.2c7.7-17.1,10.1-34.7,3.3-54.8c-3.7-5.5-7.6-9.1-11.9-14.1c-0.3-0.3,0.1-0.6,0.4-0.4
				c3.5,2.9,7,6.6,10,10.6c-0.1-0.2-0.1-0.3-0.2-0.5c-2.8-7-5.5-12.7-11.3-20.4l-9.5-14.5l-35.2-20.3l-562,82.5L635.3,834
				c23.7,30,49.4,53.6,80.4,73.4c36.9,23.6,76.5,39.2,118.5,47.5c46.4,9.2,95.8,9.7,148.5,5.1c25.7-2.3,50.5-6.7,74.8-12.7
				c-10.1-26.5-11.8-56.6-3.8-83.8c0.1-0.4,0.7-0.2,0.6,0.2c-3.8,13.7-4.2,28-3.1,42.2c1.1,14,4.7,27.3,7.8,41
				c8.9-2.2,17.7-4.7,26.6-7.3c18.6-5.5,35.7-12.5,53.5-19.7c36.3-14.7,71.1-36.1,101.6-62.8C1261,839.4,1278.9,818.9,1290,794.2z
				 M1276.8,725.6L1276.8,725.6c0.2-0.1,0.4-0.2,0.6-0.2c4.9,10.6,7.8,21.7,9.7,33.2c0.2,1.2-1.5,1.6-1.7,0.5
				C1283.8,747.7,1280.6,736.5,1276.8,725.6L1276.8,725.6z M1276.7,727.3c4.9,12.8,6,28.3,6.6,41.9c0.1,1.3-0.5,2.5-0.5,1.2
				c-0.2-7.7-1.4-16.5-2.5-24c-0.9-6.4-3.4-12.6-4.2-19C1276.1,727,1276.6,727,1276.7,727.3z M706.6,789.2c0.9-2.2,1.8-4.5,2.7-6.7
				c0.6-1.6,1.4-3.4,3-4c0.4-0.2,0.8,0.3,0.6,0.8c-2.2,3.3-2,8.1-4.7,10.9C707.6,790.8,706.2,790.1,706.6,789.2z M706.1,818.2
				c-0.2,1.8-3.1,1.8-2.9,0c1.4-13,4.5-26.3,9.9-38.2c0.3-0.7,1.3-0.2,1.2,0.5C710.5,793,707.5,805.1,706.1,818.2z M742.2,788.8
				c-1.7,5.2-4,10.1-5.6,15.3c-1.7,5.3-2.5,10.7-3.3,16.1c-0.3,1.9-3.2,1.1-2.8-0.8c1.7-10.3,5.1-22.3,11.1-30.9
				C741.8,788.2,742.3,788.4,742.2,788.8z M726.1,813c0.7-6.5,4.2-14.8,8.8-19.6c0.3-0.3,0.7,0,0.5,0.3c-1,3.2-2.4,6.1-3.7,9.1
				c-1.4,3.4-2,7.1-3.3,10.5C728,814.5,725.9,814.4,726.1,813z M737.7,813.3c-2.5,6.7-3.7,13.5-4.5,20.5
				c-1.6,14.3-2.4,28.9,0.4,43.1c0.4,1.9-2.4,2.7-2.8,0.8c-3-14.4-2.5-28.8-0.3-43.3c1.1-7.4,2.8-14.5,5.6-21.5
				c2.5-6.3,5.1-13.3,8.7-19c0.2-0.3,0.7-0.1,0.6,0.2C743.6,800.7,740.1,807,737.7,813.3z M758.9,841.4c1-7.8,3-15.2,6.1-22.4
				c2.8-6.5,6.2-15,11.8-19.7c0.2-0.3,0.7-0.1,0.6,0.3c-2.7,7-7.7,13-10.4,20.2c-2.6,7.2-4.4,14.8-5.4,22.3
				C761.4,843.8,758.7,843.1,758.9,841.4z M770.5,827.2c-2.1,7.1-3.8,14.4-5,21.7c-2.6,16.6-1.1,32.9,1.2,49.4
				c0.2,1.4-1.7,2-2.1,0.6c-4.7-15.3-3.8-32-1.5-47.7c1.2-8.3,3-16.5,5.4-24.5c2.2-7.7,4.4-15.9,8.8-22.7c0.2-0.3,0.7-0.1,0.6,0.2
				C776.3,812.1,772.8,819.5,770.5,827.2z M807.7,806.5c-3.5,7.8-8,15-10.9,23.2c-2.5,7.3-4.4,14.9-5.7,22.7
				c-3.1,18.1-1.7,35.8-0.2,53.9c0.1,1.2-1.9,1.5-2.1,0.3c-3.7-17.8-3.4-37.1-0.3-54.9c1.5-8.8,4.1-17.5,7.6-25.7
				c2.9-6.9,6.1-14.3,11.2-19.8C807.5,806,807.8,806.3,807.7,806.5z M792.8,826.8c-2.4,4.6-4.3,9.5-5.8,14.4
				c-1.3,4.5-1.6,9.3-3.2,13.7c-0.3,0.7-1.4,0.9-1.6,0c-1.6-8.8,3.3-19.3,7.3-27c4.6-9,10.6-19.5,18.4-26.1c0.2-0.3,0.6,0,0.5,0.3
				C804.3,810.8,797.3,818.1,792.8,826.8z M842.7,803.6c-2,5.1-5.8,9.5-8.1,14.5c-0.2,0.3-0.7,0-0.5-0.3c2.3-4.8,3.3-10.9,7.5-14.8
				C842,802.6,842.9,802.9,842.7,803.6z M921,815.7c-3.4,3.5-6.9,6.8-10.5,10.2c-0.5,0.4-1,0.9-1.7,1c2-8,9.3-14.7,15.1-19.7
				c3.7-3.2,7.7-6.1,11.9-8.8c5.7-3.7,11.2-7.8,17.1-11.2c2.2-1.2,4.4-2.3,6.8-3.3c2.3-1,4.8-1.4,7.2-1.9
				c-6.9,0.3-12.2,2.6-18.9,5.1c-4.5,1.3-13.4,5.1-18,7.6c-8.9,4.9-22.3,16.4-30.4,22.7c-1,0.7,2.4-3.9,3.2-4.8
				c6.5-7.2,16.8-14.4,25.2-18.8c10.9-5.7,23.5-11.1,34.8-13.3c19.7-3.8,33.9-3.3,57.6-2.8c3.8,0.1,7.6,1,11,2.9
				c1.1,0.7,1.8,1.1,1.3,1.1c-0.8,0-3.3-1.3-4.1-1.4c-6.6-1.1-10.5-1.3-17-1.3c-9.8,0.1-19.9,1.1-29.6,2.2c-0.6,0.1-1.3,0.1-1.9,0.2
				c-5.5,0.6-11.8,2.8-17.1,4.5c-5.8,1.9-11.1,5-16.2,8.4c-5.1,3.4-10.3,6.8-15.1,10.8C927.9,808.3,924.5,812.1,921,815.7z
				 M1029.6,786.1c-2.4-0.4-16.6,0.2-18.6,0.5l-0.7,0.1c-8,1.6-17.5,2.8-25.3,5.4c-13.3,4.5-24.5,12.3-34.8,22.2
				c-0.5,0.4-1.1-0.2-0.7-0.7c8.3-10.7,21.1-18.1,33.3-22.4c15.1-5.2,26.2-5.9,42.4-6.2C1026.5,785,1028.7,785.8,1029.6,786.1
				c0.1,0,0.2,0.1,0.3,0.1C1030.2,786.4,1030.1,786.3,1029.6,786.1z M1010.2,794.6c-13,8.7-26.1,17.7-36,29.9
				c-9.9,12.1-16.1,26.7-21.8,41.2c-11.7,30.5-21.2,62.4-19.7,95.4c0.1,1.4-2.1,1.4-2.2,0c-2.8-34.2,7.7-68,20.2-99.4
				c5.5-13.8,12.2-27.4,21.8-38.8c8.9-10.5,20.2-18.5,31.5-26.2c-11.4,4.8-21.8,11.9-30.9,20.9c-7.5,7.4-14.3,15.8-20.1,24.6
				c-6,9.1-9.8,19.6-13.4,29.9c-0.2,0.6-1,0.3-0.9-0.3c2.6-11.6,5.8-21.8,12.5-31.8c5.8-8.7,12.5-17,20-24.4
				c10.3-10.2,22.4-18,35.7-23c6.6-1.4,19.2-2.3,19.8-2.4l0,0l0,0c-5.6,0.9-11,2.2-16.2,4C1010.5,794.3,1010.4,794.5,1010.2,794.6z
				 M1025.8,914c0.1,1.6-2.4,1.6-2.5,0c-1-17,0.3-35.4,7.8-51c0.1-0.3,0.5-0.2,0.5,0.1c-0.8,7.9-4.2,15.3-5.6,23.2
				C1024.3,895.4,1025,904.8,1025.8,914z M1030.6,884.9c-0.6,7.1-0.6,14.2-0.7,21.3c0,1.6-2.5,1.6-2.5,0c-0.1-7.4,0.5-14.8,1.5-22.2
				c0.9-6.6,1.5-13.9,3.7-20.2c0.2-0.5,1.1-0.5,1,0.1C1033,870.9,1031.2,877.8,1030.6,884.9z M1058.3,907.9
				c-1.2-15.1-0.1-29.8-3.4-44.7c-0.2-0.6,0.6-0.8,0.8-0.2c5.1,14.1,3.6,30.2,4.9,44.9C1060.8,909.4,1058.4,909.4,1058.3,907.9z
				 M1063.6,903.2c-0.2-7.2-0.7-14.3-1.9-21.4c-1.1-6.5-3.2-12.9-4.3-19.4c-0.1-0.4,0.4-0.7,0.6-0.3c5.4,12.5,6.9,27.6,7.9,41.1
				C1066,904.7,1063.6,904.7,1063.6,903.2z M1147.7,771.2c-5.8-5.7-14.8-7.9-22.6-9.5c-8.3-1.7-16.3-3.8-24.7-2.9
				c-8.3,0.9-17.6,3-25.6,5.7c-3.9,1.4-8.8,3.1-12.6,4.8c2.1-0.6,6.4-1.9,8.4-2.5c7.4-2,14.6-4.1,22.2-5.2c13.2-2,28,1.2,40.3,7.4
				c0.4,0.2,6,3.2,5.5,3.1c-6.7-2.1-17.9-6.8-25.6-8.4c-6.9-1.5-13.1-1.7-20.1-0.6c-6.9,1.1-15.5,2.5-22.3,4.4
				c-6.6,1.8-20.4,9-19.8,8.5c8.3-7.3,18.3-12.3,28.6-16.3c5.7-2.2,11.4-4.3,17.3-6.1c9-2.4,19.7-4.8,30.9-6.5
				c18.6-1.8,38.8,0.2,54.2,10.5c0.9,0.6,0.1,1.8-0.8,1.4c-10.8-5-21.4-8.8-33.4-9.5c-11.4-0.7-22.7,0.3-33.8,2.6
				c-14.4,3.1-28.8,5.2-42.3,11.8c1.1-0.4,2.1-0.7,3.2-1.1c8.4-2.8,18.2-5,27-5.8c9.2-0.8,17.5,1.3,26.5,3.7c4,1,8.1,2.3,12,3.9
				c3.2,1.3,6.3,3.1,8.1,6.1C1148.5,771.1,1148,771.5,1147.7,771.2z M1185,802.7c-1.2,9.2-3.7,18.3-6.3,27.3
				c-2.5,8.4-5.6,16.4-9.2,24.3c-3.4,7.4-7.1,14.8-9.4,22.7c-0.7,4.2-1.3,8.5-2.8,12.4c-0.3,0.6-1.2,0.5-1.2-0.2
				c-0.7-9.9,3.1-21.1,5.8-30.5c2.9-10,7.3-19.5,9.9-29.6c0.1-0.5,0.8-0.4,0.8,0.1c0.3,4.5-2,8.9-3.5,13.1c-1.7,5-3.2,10.1-4.6,15.2
				c-0.6,2.2-1.1,4.5-1.7,6.7c4.2-10.1,9.4-19.7,12.7-30.2c2.7-8.5,5.3-17.1,6.9-25.9c1.7-9.5,3.2-20.9-0.6-30.1
				c-0.1-0.3,0.4-0.5,0.6-0.2C1187.1,784.8,1186,794.7,1185,802.7z M1219.2,802.5c-1.2,9.5-2.9,18.9-4.9,28.2
				c-2.2,10.2-4.8,20.3-7.7,30.3c-2.6,9.1-4.5,19.9-9.2,28.1c-0.2,0.5-1.2,0.3-1.1-0.3c1-9.2,5.3-18.6,7.9-27.6
				c2.8-9.7,5.5-19.4,7.7-29.3c2.3-10.3,4.2-20.8,5.5-31.3c0.6-5,1.2-10,1.5-15c0.3-4.4,0.1-9,1-13.3c0.1-0.4,0.6-0.4,0.7,0
				C1222.4,781.8,1220.4,793.1,1219.2,802.5z M1223.5,809.2c-0.2,0.9-1.6,0.5-1.4-0.4c1.6-8.5,1.8-17.4,2.1-26.1
				c0.2-7.8,0-15.7-2.4-23.3c-0.1-0.3,0.4-0.5,0.5-0.2c3.3,7.3,3.5,14.8,3.5,22.7C1225.8,791.1,1225,800.1,1223.5,809.2z
				 M1255.8,739.1c3.6,3.4,3.9,9.6,4.8,14.3c1.1,5.9,2.7,12.7,1.9,18.6c-0.1,0.6-1,0.9-1.2,0.2c-2.9-10.4-0.5-23-6-32.7
				C1255.2,739.2,1255.6,738.9,1255.8,739.1z M1247.6,766.9c-0.1,0.8-1.3,0.5-1.4-0.2c-0.6-6.3,0.4-13.3-1.3-19.6
				c-0.1-0.3,0.3-0.4,0.4-0.2C1248.3,752.2,1248.5,761,1247.6,766.9z M1248.6,741.6c0.2-0.1,0.3-0.2,0.5-0.3c1,3.9,1.7,7.8,3,11.7
				c1.1,3.4,2,6.7,2.3,10.2c0.1,1.1-1.7,1.3-1.9,0.3c-0.8-4.1-1.5-8.2-2.6-12.2C1249,748.2,1248,744.9,1248.6,741.6z M1252.3,827.2
				c1.8-14.1,3.9-28.2,4.2-42.4c0.1-7.1,0-14.2-0.3-21.3c-0.4-7-0.4-14.4-2.1-21.2c-0.1-0.4,0.5-0.6,0.6-0.2
				c2.3,6.1,2.5,13,2.8,19.4c0.4,7.4,0.6,14.9,0.4,22.3c-0.3,14.6-1,29.2-3.8,43.6C1253.9,828.4,1252.2,828.2,1252.3,827.2z"/>
			<path opacity="0.35" fill="#E8FFFA" enable-background="new    " d="M1140.2,764.6c-3.9-1.6-8-2.9-12-3.9
				c-9-2.4-17.3-4.5-26.5-3.7c-8.8,0.8-18.6,3-27,5.8c-1.1,0.4-2.1,0.7-3.2,1.1c13.5-6.6,27.9-8.7,42.3-11.8
				c11.1-2.3,22.4-3.3,33.8-2.6c12,0.7,22.6,4.5,33.4,9.5c0.9,0.4,1.7-0.8,0.8-1.4c-15.4-10.3-35.6-12.3-54.2-10.5
				c-11.2,1.7-21.9,4.1-30.9,6.5c-5.9,1.8-11.6,3.9-17.3,6.1c-10.3,4-20.3,9-28.6,16.3c-0.6,0.5,13.2-6.7,19.8-8.5
				c6.8-1.9,15.4-3.3,22.3-4.4c7-1.1,13.2-0.9,20.1,0.6c7.7,1.6,18.9,6.3,25.6,8.4c0.5,0.1-5.1-2.9-5.5-3.1
				c-12.3-6.2-27.1-9.4-40.3-7.4c-7.6,1.1-14.8,3.2-22.2,5.2c-2,0.6-6.3,1.9-8.4,2.5c3.8-1.7,8.7-3.4,12.6-4.8
				c8-2.7,17.3-4.8,25.6-5.7c8.4-0.9,16.4,1.2,24.7,2.9c7.8,1.6,16.8,3.8,22.6,9.5c0.3,0.3,0.8-0.1,0.6-0.5
				C1146.5,767.7,1143.4,765.9,1140.2,764.6z"/>
			<path opacity="0.35" fill="#E8FFFA" enable-background="new    " d="M1181.8,778c3.8,9.2,2.3,20.6,0.6,30.1
				c-1.6,8.8-4.2,17.4-6.9,25.9c-3.3,10.5-8.5,20.1-12.7,30.2c0.6-2.2,1.1-4.5,1.7-6.7c1.4-5.1,2.9-10.2,4.6-15.2
				c1.5-4.2,3.8-8.6,3.5-13.1c0-0.5-0.7-0.6-0.8-0.1c-2.6,10.1-7,19.6-9.9,29.6c-2.7,9.4-6.5,20.6-5.8,30.5c0,0.7,0.9,0.8,1.2,0.2
				c1.5-3.9,2.1-8.2,2.8-12.4c2.3-7.9,6-15.3,9.4-22.7c3.6-7.9,6.7-15.9,9.2-24.3c2.6-9,5.1-18.1,6.3-27.3c1-8,2.1-17.9-2.6-24.9
				C1182.2,777.5,1181.7,777.7,1181.8,778z"/>
			<path opacity="0.35" fill="#E8FFFA" enable-background="new    " d="M1221.8,759.4c2.4,7.6,2.6,15.5,2.4,23.3
				c-0.3,8.7-0.5,17.6-2.1,26.1c-0.2,0.9,1.2,1.3,1.4,0.4c1.5-9.1,2.3-18.1,2.3-27.3c0-7.9-0.2-15.4-3.5-22.7
				C1222.2,758.9,1221.7,759.1,1221.8,759.4z"/>
			<path opacity="0.35" fill="#E8FFFA" enable-background="new    " d="M1219.9,772.3c-0.9,4.3-0.7,8.9-1,13.3c-0.3,5-0.9,10-1.5,15
				c-1.3,10.5-3.2,21-5.5,31.3c-2.2,9.9-4.9,19.6-7.7,29.3c-2.6,9-6.9,18.4-7.9,27.6c-0.1,0.6,0.9,0.8,1.1,0.3
				c4.7-8.2,6.6-19,9.2-28.1c2.9-10,5.5-20.1,7.7-30.3c2-9.3,3.7-18.7,4.9-28.2c1.2-9.4,3.2-20.7,1.4-30.2
				C1220.5,771.9,1220,771.9,1219.9,772.3z"/>
			<path opacity="0.35" fill="#E8FFFA" enable-background="new    " d="M1244.9,747.1c1.7,6.3,0.7,13.3,1.3,19.6
				c0.1,0.7,1.3,1,1.4,0.2c0.9-5.9,0.7-14.7-2.3-20C1245.2,746.7,1244.8,746.8,1244.9,747.1z"/>
			<path opacity="0.35" fill="#E8FFFA" enable-background="new    " d="M1254.4,763.2c-0.3-3.5-1.2-6.8-2.3-10.2
				c-1.3-3.9-2-7.8-3-11.7c-0.2,0.1-0.3,0.2-0.5,0.3c-0.6,3.3,0.4,6.6,1.3,9.7c1.1,4,1.8,8.1,2.6,12.2
				C1252.7,764.5,1254.5,764.3,1254.4,763.2z"/>
			<path opacity="0.35" fill="#E8FFFA" enable-background="new    " d="M1262.5,772c0.8-5.9-0.8-12.7-1.9-18.6
				c-0.9-4.7-1.2-10.9-4.8-14.3c-0.2-0.2-0.6,0.1-0.5,0.4c5.5,9.7,3.1,22.3,6,32.7C1261.5,772.9,1262.4,772.6,1262.5,772z"/>
			<path opacity="0.35" fill="#E8FFFA" enable-background="new    " d="M1257.5,761.5c-0.3-6.4-0.5-13.3-2.8-19.4
				c-0.1-0.4-0.7-0.2-0.6,0.2c1.7,6.8,1.7,14.2,2.1,21.2c0.3,7.1,0.4,14.2,0.3,21.3c-0.3,14.2-2.4,28.3-4.2,42.4
				c-0.1,1,1.6,1.2,1.8,0.2c2.8-14.4,3.5-29,3.8-43.6C1258.1,776.4,1257.9,768.9,1257.5,761.5z"/>
			<path opacity="0.35" fill="#E8FFFA" enable-background="new    " d="M1282.8,770.4c0,1.3,0.6,0.1,0.5-1.2
				c-0.6-13.6-1.7-29.1-6.6-41.9c-0.1-0.3-0.6-0.3-0.6,0.1c0.8,6.4,3.3,12.6,4.2,19C1281.4,753.9,1282.6,762.7,1282.8,770.4z"/>
			<path fill="none" d="M1276.8,725.7C1276.8,725.6,1276.8,725.6,1276.8,725.7"/>
			<path opacity="0.35" fill="#E8FFFA" enable-background="new    " d="M1287.1,758.6c-1.9-11.5-4.8-22.6-9.7-33.2
				c-0.2,0-0.4,0.1-0.6,0.3c3.8,10.8,7,22,8.6,33.4C1285.6,760.2,1287.3,759.8,1287.1,758.6z"/>
			<path opacity="0.35" fill="#E8FFFA" enable-background="new    " d="M1281.8,724.9c-0.3-0.2-0.7,0.1-0.4,0.4
				c4.2,4.9,8.1,8.6,11.9,14.1c-0.4-1.3-0.9-2.6-1.4-3.9C1288.8,731.5,1285.3,727.8,1281.8,724.9z"/>
			<path opacity="0.35" fill="#E8FFFA" enable-background="new    " d="M1054.3,863.7c0.1-0.4-0.5-0.6-0.6-0.2
				c-8,27.2-6.3,57.2,3.8,83.8c0.5-0.1,1-0.2,1.5-0.4c-3.1-13.7-6.7-27-7.8-41C1050.1,891.7,1050.5,877.4,1054.3,863.7z"/>
			<path opacity="0.35" fill="#E8FFFA" enable-background="new    " d="M1055.7,863c-0.2-0.6-1-0.4-0.8,0.2
				c3.3,14.9,2.2,29.6,3.4,44.7c0.1,1.5,2.5,1.5,2.3,0C1059.3,893.2,1060.8,877.1,1055.7,863z"/>
			<path opacity="0.35" fill="#E8FFFA" enable-background="new    " d="M1057.4,862.4c1.1,6.5,3.2,12.9,4.3,19.4
				c1.2,7.1,1.7,14.2,1.9,21.4c0,1.5,2.4,1.5,2.3,0c-1-13.5-2.5-28.6-7.9-41.1C1057.8,861.7,1057.3,862,1057.4,862.4z"/>
			<path opacity="0.35" fill="#E8FFFA" enable-background="new    " d="M1031.6,863.1c0-0.3-0.4-0.4-0.5-0.1
				c-7.5,15.6-8.8,34-7.8,51c0.1,1.6,2.6,1.6,2.5,0c-0.8-9.2-1.5-18.6,0.2-27.7C1027.4,878.4,1030.8,871,1031.6,863.1z"/>
			<path opacity="0.35" fill="#E8FFFA" enable-background="new    " d="M1032.6,863.8c-2.2,6.3-2.8,13.6-3.7,20.2
				c-1,7.4-1.6,14.8-1.5,22.2c0,1.6,2.5,1.6,2.5,0c0.1-7.1,0.1-14.2,0.7-21.3s2.4-14,3-21C1033.7,863.3,1032.8,863.3,1032.6,863.8z"
				/>
			<path opacity="0.35" fill="#E8FFFA" enable-background="new    " d="M946.8,794.3c5.1-3.4,10.4-6.5,16.2-8.4
				c5.3-1.7,11.6-3.9,17.1-4.5c0.6-0.1,1.3-0.1,1.9-0.2c9.7-1.1,19.8-2.1,29.6-2.2c6.5,0,10.4,0.2,17,1.3c0.8,0.1,3.3,1.4,4.1,1.4
				c0.5,0-0.2-0.4-1.3-1.1c-3.4-1.9-7.2-2.8-11-2.9c-23.7-0.5-37.9-1-57.6,2.8c-11.3,2.2-23.9,7.6-34.8,13.3
				c-8.4,4.4-18.7,11.6-25.2,18.8c-0.8,0.9-4.2,5.5-3.2,4.8c8.1-6.3,21.5-17.8,30.4-22.7c4.6-2.5,13.5-6.3,18-7.6
				c6.7-2.5,12-4.8,18.9-5.1c-2.4,0.5-4.9,0.9-7.2,1.9c-2.4,1-4.6,2.1-6.8,3.3c-5.9,3.4-11.4,7.5-17.1,11.2
				c-4.2,2.7-8.2,5.6-11.9,8.8c-5.8,5-13.1,11.7-15.1,19.7c0.7-0.1,1.2-0.6,1.7-1c3.6-3.4,7.1-6.7,10.5-10.2
				c3.5-3.6,6.9-7.4,10.7-10.6C936.5,801.1,941.7,797.7,946.8,794.3z"/>
			<path opacity="0.35" fill="#E8FFFA" enable-background="new    " d="M982.8,791.2c-12.2,4.3-25,11.7-33.3,22.4
				c-0.4,0.5,0.2,1.1,0.7,0.7c10.3-9.9,21.5-17.7,34.8-22.2c7.8-2.6,17.3-3.8,25.3-5.4l0.7-0.1c2-0.3,16.2-0.9,18.6-0.5
				c-0.9-0.3-3.1-1.1-4.4-1.1C1009,785.3,997.9,786,982.8,791.2z"/>
			<path opacity="0.35" fill="#E8FFFA" enable-background="new    " d="M1029.9,786.2c-0.1,0-0.2-0.1-0.3-0.1
				C1030.1,786.3,1030.2,786.4,1029.9,786.2z"/>
			<path opacity="0.35" fill="#E8FFFA" enable-background="new    " d="M1026.7,790.2L1026.7,790.2L1026.7,790.2z"/>
			<path opacity="0.35" fill="#E8FFFA" enable-background="new    " d="M1006.9,792.6c-13.3,5-25.4,12.8-35.7,23
				c-7.5,7.4-14.2,15.7-20,24.4c-6.7,10-9.9,20.2-12.5,31.8c-0.1,0.6,0.7,0.9,0.9,0.3c3.6-10.3,7.4-20.8,13.4-29.9
				c5.8-8.8,12.6-17.2,20.1-24.6c9.1-9,19.5-16.1,30.9-20.9c-11.3,7.7-22.6,15.7-31.5,26.2c-9.6,11.4-16.3,25-21.8,38.8
				c-12.5,31.4-23,65.2-20.2,99.4c0.1,1.4,2.3,1.4,2.2,0c-1.5-33,8-64.9,19.7-95.4c5.7-14.5,11.9-29.1,21.8-41.2
				c9.9-12.2,23-21.2,36-29.9c0.2-0.1,0.3-0.3,0.3-0.4c5.2-1.8,10.6-3.1,16.2-4C1026.1,790.3,1013.5,791.2,1006.9,792.6z"/>
			<path opacity="0.35" fill="#E8FFFA" enable-background="new    " d="M841.6,803c-4.2,3.9-5.2,10-7.5,14.8
				c-0.2,0.3,0.3,0.6,0.5,0.3c2.3-5,6.1-9.4,8.1-14.5C842.9,802.9,842,802.6,841.6,803z"/>
			<path opacity="0.35" fill="#E8FFFA" enable-background="new    " d="M807.3,806.2c-5.1,5.5-8.3,12.9-11.2,19.8
				c-3.5,8.2-6.1,16.9-7.6,25.7c-3.1,17.8-3.4,37.1,0.3,54.9c0.2,1.2,2.2,0.9,2.1-0.3c-1.5-18.1-2.9-35.8,0.2-53.9
				c1.3-7.8,3.2-15.4,5.7-22.7c2.9-8.2,7.4-15.4,10.9-23.2C807.8,806.3,807.5,806,807.3,806.2z"/>
			<path opacity="0.35" fill="#E8FFFA" enable-background="new    " d="M807.9,801.8c-7.8,6.6-13.8,17.1-18.4,26.1
				c-4,7.7-8.9,18.2-7.3,27c0.2,0.9,1.3,0.7,1.6,0c1.6-4.4,1.9-9.2,3.2-13.7c1.5-4.9,3.4-9.8,5.8-14.4c4.5-8.7,11.5-16,15.6-24.7
				C808.5,801.8,808.1,801.5,807.9,801.8z"/>
			<path opacity="0.35" fill="#E8FFFA" enable-background="new    " d="M777.3,804c-4.4,6.8-6.6,15-8.8,22.7
				c-2.4,8-4.2,16.2-5.4,24.5c-2.3,15.7-3.2,32.4,1.5,47.7c0.4,1.4,2.3,0.8,2.1-0.6c-2.3-16.5-3.8-32.8-1.2-49.4
				c1.2-7.3,2.9-14.6,5-21.7c2.3-7.7,5.8-15.1,7.4-23C778,803.9,777.5,803.7,777.3,804z"/>
			<path opacity="0.35" fill="#E8FFFA" enable-background="new    " d="M761.6,842.1c1-7.5,2.8-15.1,5.4-22.3
				c2.7-7.2,7.7-13.2,10.4-20.2c0.1-0.4-0.4-0.6-0.6-0.3c-5.6,4.7-9,13.2-11.8,19.7c-3.1,7.2-5.1,14.6-6.1,22.4
				C758.7,843.1,761.4,843.8,761.6,842.1z"/>
			<path opacity="0.35" fill="#E8FFFA" enable-background="new    " d="M744.8,793.9c-3.6,5.7-6.2,12.7-8.7,19
				c-2.8,7-4.5,14.1-5.6,21.5c-2.2,14.5-2.7,28.9,0.3,43.3c0.4,1.9,3.2,1.1,2.8-0.8c-2.8-14.2-2-28.8-0.4-43.1
				c0.8-7,2-13.8,4.5-20.5c2.4-6.3,5.9-12.6,7.7-19.2C745.5,793.8,745,793.6,744.8,793.9z"/>
			<path opacity="0.35" fill="#E8FFFA" enable-background="new    " d="M733.3,820.2c0.8-5.4,1.6-10.8,3.3-16.1
				c1.6-5.2,3.9-10.1,5.6-15.3c0.1-0.4-0.4-0.6-0.6-0.3c-6,8.6-9.4,20.6-11.1,30.9C730.1,821.3,733,822.1,733.3,820.2z"/>
			<path opacity="0.35" fill="#E8FFFA" enable-background="new    " d="M735.4,793.7c0.2-0.3-0.2-0.6-0.5-0.3
				c-4.6,4.8-8.1,13.1-8.8,19.6c-0.2,1.4,1.9,1.5,2.3,0.3c1.3-3.4,1.9-7.1,3.3-10.5C733,799.8,734.4,796.9,735.4,793.7z"/>
			<path opacity="0.35" fill="#E8FFFA" enable-background="new    " d="M713.1,780c-5.4,11.9-8.5,25.2-9.9,38.2
				c-0.2,1.8,2.7,1.8,2.9,0c1.4-13.1,4.4-25.2,8.2-37.7C714.4,779.8,713.4,779.3,713.1,780z"/>
			<path opacity="0.35" fill="#E8FFFA" enable-background="new    " d="M708.2,790.2c2.7-2.8,2.5-7.6,4.7-10.9
				c0.2-0.5-0.2-1-0.6-0.8c-1.6,0.6-2.4,2.4-3,4c-0.9,2.2-1.8,4.5-2.7,6.7C706.2,790.1,707.6,790.8,708.2,790.2z"/>
		</g>
	</g>
</g>
</svg>
