<?xml version="1.0" encoding="utf-8"?>
<!-- Generator: Adobe Illustrator 21.0.2, SVG Export Plug-In . SVG Version: 6.00 Build 0)  -->
<svg version="1.1" id="Layer_1" xmlns="http://www.w3.org/2000/svg" xmlns:xlink="http://www.w3.org/1999/xlink" x="0px" y="0px"
	 viewBox="0 0 2000 2000" enable-background="new 0 0 2000 2000" xml:space="preserve">

	<g id="_x30_2_x5F_FacialHair_x5F_FullBeard_x5F_Main_Asset">
		<path fill="#9F592A" d="M1303.2,757c-2.5-18.8-14.7-35.6-20.2-34.8s-4.8,15.9-6.2,23.2s-4.8,30.9-12.2,38.8
			c-7.4,7.9-17.1,10.7-35.1,4.4c-1-0.3-2-0.7-3.2-1.2c-19.5-7.7-59.3-29.1-91.1-36.3c-32.3-7.3-60.9,8.5-83,24.6
			c-1.8,1.3-3.2,3.1-5,4.4c0,0-8-2.3-20.9-4s-17.8-6.6-48.5-6.2s-55.8,13.4-65.5,18.8c-2.7,1.5-5.9,3.5-9.5,5.7
			c-9.2,6-20.3,14-28.7,20.3c-11.6,8.7-36.9,22.9-61.4,23.1s-39.1-12.1-42.1-14s-25.9-23.4-39.5-30.6s-27.7-9.1-36.6-1
			c0,0-8.8,39.4-1.4,91.2c18.4,129.6,154.1,128.1,173.7,138.8c0,0,9.9,12.4,31.6,26.6c21.8,14.3,42,11.8,65.5,22.3
			s17.7,9.1,26.8,11.9s13.2,6.4,22,11.9c9.9,9.3,23.2,17.1,48.4,24.7c0,0,7.6,2.5,11.1,5.9s2.5,4.3,7.3,2.4s8.2-8,26.5-18.5
			c18.3-10.6,42.4-20.8,62.6-41.7s45.4-50.1,49.6-82.6c0,0,4.1-10.4,15-25.2s25.5-15.4,29.9-25.3c4.4-9.9,25.4-17.6,26.8-44.9
			c0,0,5.7-5.1,9.7-27C1320.3,845.5,1305.7,775.8,1303.2,757z M948,813c1,3-2,5-1,8C946,818,949,816,948,813z M1054.2,855.6
			c-37.1,4.2-63.9,7.2-106.6-16.1c0.2,0,12.1-9.4,26.3-22.4s28.7-21.4,28.7-21.4c-6.5,5.7-8.9,15.4-6.4,14.3c2.5-1,1.5-6,11.1-13.5
			s13.3-8.6,13.3-8.6s-15.8,11.3-17.5,16.4c-1.6,5.2,0.8,1.6,3.4-1.5c2.6-3,6.8-5.5,6.8-5.5c-5.2,7.8-5.4,16.5-3.6,14.9
			c1.8-1.6,2.3-7,7.1-14.1c4.8-7,10.7-9.5,10.7-9.5c-9.8,9.9-10.5,13.6-9.5,13.3s2-1.4,2-1.4s-2.2,3.7-2.7,7
			c-0.5,3.4,0.3,3.2,3.1-1.8s4.9-7.6,4.9-7.6c-1.1,2.1-0.7,5.2,0.2,4c0.9-1.2,2.2-2.7,2.2-2.7s-3.6,9.4-2.2,9.7s1.4-2.1,4.5-8.9
			c3.1-6.9,8.1-11.6,8.1-11.6c-3.5,6.9-3.6,14.9-2.1,15.6s2-1.8,2.6-8s2.1-6.7,2.1-6.7s0.5,4.1,0.3,9s-2.6,9.3-1.7,10.3
			s2.8-0.2,4.3-5.9c1.4-5.8,1.1-11.2,1.1-11.2c3.2,4.8,2.2,10.1,2.6,13.3c0.5,3.2,3.2,3.3,3.1-3.9c-0.1-4.6-1.1-7.4-1.9-8.8
			c3.1,4.9,4.3,9.6,4.8,13.3c0.5,3.9,3.3,0,1.9-6.2c-1.5-6.2-3.8-8.4-3.8-8.4s3.1,3,4.6,6.7c1.5,3.8,4.7,1.9,2.1-3
			c-1.9-3.5-4.6-6-6-7.1c1.8,1.4,5.7,4.7,8.7,8.4c3.9,4.9,4,8.9,4.9,9.5c0.8,0.7,3.1,0.2,1.1-6.5c-1.1-3.5-2.9-5.9-4.3-7.4
			c1.5,1.1,3.7,2.4,6,2.9c4.5,0.9,0.5-0.9-2.8-3.4s-6.5-4.9-6.5-4.9c7.6,2.4,15.6,10.7,17,11.1c1.4,0.4,3.4-0.1-0.5-4.2
			s-7.4-6.9-7.4-6.9c3.7,1.4,10.2,3.7,8.3,1.6c-2-2.2-7.2-4.5-7.2-4.5c5.4,1,8.2,2.8,11.2,4.4s6.1,1.6,1.6-2.7s-10.9-5-10.9-5
			s8.7,0.9,13.1,3.1s9.5,4.9,8.4,2.6c-1.1-2.3-3.2-4.1-3.2-4.1c23,8.5,51.7,24.8,51.7,24.8S1087.8,851.8,1054.2,855.6z"/>
	</g>

</svg>
