<?xml version="1.0" encoding="utf-8"?>
<!-- Generator: Adobe Illustrator 21.0.2, SVG Export Plug-In . SVG Version: 6.00 Build 0)  -->
<svg version="1.1" id="Layer_1" xmlns="http://www.w3.org/2000/svg" xmlns:xlink="http://www.w3.org/1999/xlink" x="0px" y="0px"
	 viewBox="0 0 2000 2000" enable-background="new 0 0 2000 2000" xml:space="preserve">
<g>
	<path opacity="0.5" fill="#9F592A" enable-background="new    " d="M696.5,844c11,50,111,109,239,109c40,0,74-29,113-31
		c23.2-1.2,48.7,8.3,98.5-6c1.4-0.4,2.9-0.8,4.3-1.3c44.6-21.4,81-47.6,106.2-73.8c13.6-14.1,23.6-28.4,30.1-41.8
		c7.4-15.1,10.3-29.1,8.9-40.2c-1.1-9.6-3.4-17.5-6.2-24.3c-2.7,5.6-9.1,18.2-14.3,24.9c-6.9,8.9-7.9,8.6-17.9,18
		c-9.9,9.4-18.3,15.2-24.6,20.8s-18.8,12.9-33.4,18.1s-25.2,5.8-25.2,5.8s4.7-8.9,5.5-15.8s2.4-29.1-3.9-37.1s-9.5-9.5-10-5.6
		s2.1,13.8,0,22.6s-5.1,19.4-17.1,38.6s-19.2,26.3-37.9,38.8s-37.8,16.1-37.8,16.1s-5.5-16.1-7.1-18.5s-2.1,0.8-5.9,2.8
		s-8.9,2.1-8.9,2.1s-7.4-3.9-7.8-2.9s0,4.4,0,4.4s-1.8-1-5.5-2.7s-3.2-0.9-3.2-0.9v19.1c0,0-47.1,3.1-77.7-5.3
		c-30.6-8.4-58.3-25.5-67.6-40.7s-4.5-35.6-3.2-41s-14.1,0-19.6,20.1c-5.6,20.1,4.1,42.3,4.1,42.3s-48.6-3.4-78.8-19.5
		c-27.7-14.8-59.3-30.5-92.4-53.7C695.1,799.5,690.9,818.4,696.5,844z"/>
	<path opacity="0.5" fill="#9F592A" d="M983.4,931.4C983.4,931.4,983.5,931.4,983.4,931.4C983.5,931.4,983.5,931.4,983.4,931.4
		L983.4,931.4z"/>
	<path opacity="0.5" fill="#9F592A" d="M1057.5,797c1.9,2.1,3.5,4.4,5.2,6.6c0.4,0.5,1.4,0.2,1.1-0.5c-1-2.6-2.7-5.1-4.4-7.3
		c-1.5-2-3.5-4.2-5.9-5c-0.4-0.1-0.7,0.3-0.5,0.7C1054,793.5,1056,795.3,1057.5,797z"/>
	<path opacity="0.5" fill="#9F592A" d="M1072.2,798.8c0.8,0.7,1.8-0.4,1.2-1.2c-3.5-4.2-8.5-7.5-13.8-9c-0.4-0.1-0.8,0.5-0.4,0.8
		C1063.3,792.8,1068.3,795.2,1072.2,798.8z"/>
	<path opacity="0.5" fill="#9F592A" d="M1074.7,789.3c2.5,1.6,4.6,4.4,7.3,5.4c0.4,0.2,0.9-0.3,0.8-0.8c-0.9-2.8-4.2-4.9-6.6-6.4
		c-2.6-1.7-6.1-3.8-9.2-3.5c-0.4,0-0.8,0.6-0.4,0.9C1069,786.8,1072.1,787.6,1074.7,789.3z"/>
	<path opacity="0.5" fill="#9F592A" d="M1073.3,781.1c3.3,1.6,7.2,1.2,10.7,2.5c4.3,1.6,8.1,4,12,6.3c0.6,0.4,1.3-0.5,0.8-1
		c-3.1-3.1-6.8-5.2-10.9-6.7c-3.6-1.3-8.8-3.3-12.5-2C1073,780.3,1072.9,780.9,1073.3,781.1z"/>
	<path opacity="0.5" fill="#9F592A" d="M1086.1,776.5c2.2,0.7,4.4,1.5,6.5,2.5c3.3,1.6,6.3,3.8,9.6,5.1c0.3,0.1,0.6-0.3,0.4-0.5
		c-2.2-3.2-5.9-5.3-9.4-6.9c-2.4-1.1-6.8-3.8-9.2-2.1c-0.1,0.1-0.1,0.2-0.1,0.3C1084.5,776.1,1084.7,776.1,1086.1,776.5z"/>
	<path opacity="0.5" fill="#9F592A" d="M1090.8,771.9c4.2,0.1,8.4,1,12.4,2.3c3.6,1.1,6.8,3.2,10.3,4.5c0.7,0.3,1.2-0.7,0.7-1.2
		c-5.7-6-15.6-7.2-23.3-6.7C1090.1,770.8,1090,771.9,1090.8,771.9z"/>
	<path opacity="0.5" fill="#9F592A" d="M1100.2,766.7c0.1,0.2,0.3,0.5,0.6,0.5c0.4,0.1,0.8,0.1,1.2,0.2c6.9,2.7,13.3,5.5,19.4,9.8
		c0.7,0.5,1.7-0.7,1-1.3c-3.6-3-7.7-5.8-12.1-7.8c6.1,0.4,11.8,1.1,17,5.9c0.8,0.8,2.1-0.4,1.3-1.3c-6.5-6.9-17.6-9.3-26.7-7.5
		c-0.4-0.1-0.8-0.2-1.2-0.2C1099.6,764.9,1099.2,766.3,1100.2,766.7z"/>
	<path opacity="0.5" fill="#9F592A" d="M1108.9,762.1c4.7,1,9.6,1.1,14.3,2.1c4.8,1.1,8.8,3.2,12.8,6c0.8,0.6,1.7-0.7,1-1.3
		c-6.8-7.1-18.7-9.1-28-8C1108.4,760.9,1108.2,762,1108.9,762.1z"/>
	<path opacity="0.5" fill="#9F592A" d="M1120,758.6c3.6,0,9.2,2.2,12.4,3.7c3.3,1.5,5.8,4,8.9,5.7c0.6,0.3,1.4-0.4,1-1
		c-2.1-3.2-6.1-5.5-9.5-7c-2-0.9-4.1-1.6-6.2-2c-2.3-0.5-4.3,0.1-6.6-0.1C1119.5,757.7,1119.5,758.6,1120,758.6z"/>
	<path opacity="0.5" fill="#9F592A" d="M1131,754.5c3.7,0.4,7.4,1.3,10.7,3.2c2.7,1.6,4.7,4,7.3,5.9c0.9,0.7,2.2-0.6,1.6-1.6
		c-3.9-5.8-12.9-8.7-19.5-9.3C1129.8,752.5,1129.8,754.4,1131,754.5z"/>
	<path opacity="0.5" fill="#9F592A" d="M1138.5,752c9.4-0.2,21.7,4.6,28.4,11.3c0.6,0.6,1.7-0.2,1.2-0.9c-6-10.1-19.4-9.2-29.4-11.7
		C1137.7,750.4,1137.5,752.1,1138.5,752z"/>
	<path opacity="0.5" fill="#9F592A" d="M1168.7,783.1c-1.9-9.4-8-17.5-13.6-25.1c-0.3-0.4-0.9,0-0.6,0.4c5.8,7.8,8.5,16.7,12.2,25.5
		C1167.2,785.1,1168.9,784.2,1168.7,783.1z"/>
	<path opacity="0.5" fill="#9F592A" d="M1177.8,809.4c0.1,1,1.5,1,1.6,0c1.4-13.2-2.5-27.1-8-39c-0.2-0.5-1.1-0.1-0.9,0.4
		C1175.1,783.4,1176.4,796,1177.8,809.4z"/>
	<path opacity="0.5" fill="#9F592A" d="M1167.9,774.6c3.1,14.1,1,28.6,1.3,42.7c0,0.9,1.4,1.1,1.6,0.2c3.9-14.3,0.7-29.1-1.9-43.2
		C1168.7,773.7,1167.7,774,1167.9,774.6z"/>
	<path opacity="0.5" fill="#9F592A" d="M1162.2,828.6c0,0.8,1,0.8,1.3,0.2c2.5-6.7,3.8-14.7,4-21.8c0.3-8-1.5-15.1-3.2-22.8
		c-0.1-0.6-1.1-0.4-1,0.3c1.6,7.5,2,15.8,1.4,23.4C1164.1,814.8,1162.1,821.7,1162.2,828.6z"/>
	<path opacity="0.5" fill="#9F592A" d="M1159.8,833.4c1.3-6.5-0.7-14.6-1.4-21c-0.1-0.6-1-0.7-1,0c0.1,6.5-0.9,14.8,1.3,21
		C1158.9,833.9,1159.7,834,1159.8,833.4z"/>
	<path opacity="0.5" fill="#9F592A" d="M1292.2,750.6c0.5,0.3,1.3-0.1,1.2-0.7c-0.4-3.7-3.9-6.7-6.9-8.4c-0.8-0.5-1.5,0.7-0.7,1.2
		C1288.6,744.7,1289.3,748.7,1292.2,750.6z"/>
	<path opacity="0.5" fill="#9F592A" d="M1292,754.9c-2.6-2.8-5.9-4.6-8.1-7.6c-0.3-0.5-1.1-0.2-1,0.4c0.5,1.9,1.6,3,2.9,4.4
		c1.6,1.6,3.2,3.2,5,4.5C1291.8,757.2,1292.8,755.7,1292,754.9z"/>
	<path opacity="0.5" fill="#9F592A" d="M1283.1,763c1.3,1.3,2.6,3.5,4.3,4.1c0.8,0.3,1.3-0.5,1.2-1.2c-0.3-1.9-2.7-3.7-4.1-4.8
		c-1.6-1.4-3.4-3-5.4-3.9c-0.8-0.4-1.6,0.6-1,1.3C1279.7,760.1,1281.6,761.3,1283.1,763z"/>
	<path opacity="0.5" fill="#9F592A" d="M1289.9,759.8c-1.6-0.3-3.1-0.4-4.5-1.2c-1.5-0.8-2.9-1.7-4.3-2.5c-0.6-0.4-1.1,0.4-0.7,0.9
		c2.3,2.7,5.3,5.8,9.2,5.8C1291.1,762.7,1291.6,760.1,1289.9,759.8z"/>
	<path opacity="0.5" fill="#9F592A" d="M1285.5,769.7c1.2,0.6,2.1-0.8,1.4-1.8c-1-1.2-2.9-1.5-4.3-2.3c-1.5-0.9-2.9-2.2-4-3.5
		c-0.6-0.7-1.7,0.2-1.2,0.9C1279.5,766,1282.3,768,1285.5,769.7z"/>
	<path opacity="0.5" fill="#9F592A" d="M1275.7,774.4c1.7,1.5,4.3,3.6,6.7,3.6c1,0,1.6-1.3,0.9-2.1c-1.6-1.5-4-2.1-5.8-3.3
		c-2.1-1.4-3.7-3.1-5.5-4.9c-0.3-0.3-0.9,0-0.8,0.4C1272.1,770.6,1273.8,772.7,1275.7,774.4z"/>
	<path opacity="0.5" fill="#9F592A" d="M1277.6,781.8c1.8,0.5,2.6-2.3,0.8-2.8c-1.6-0.5-3-1.7-4.3-2.6c-1.5-1.1-3-2.3-4.4-3.5
		c-0.9-0.8-2,0.4-1.3,1.3C1270.8,777,1273.9,780.8,1277.6,781.8z"/>
	<path opacity="0.5" fill="#9F592A" d="M1272.8,787.6c0.1,0,0.1-0.1,0.2-0.1c0.7-0.6,0.5-1.8-0.3-2.2c-3.8-2-6.7-5.3-8.9-9
		c-0.4-0.7-1.6-0.2-1.3,0.5c0.9,2.3,2.1,4.3,3.6,6.2c1.4,1.8,3,4,5.2,4.9C1271.8,788.2,1272.4,787.9,1272.8,787.6z"/>
	<path opacity="0.5" fill="#9F592A" d="M1268.1,789.5c-4.4-1.4-7.4-5.7-10-9.4c-0.3-0.5-1-0.2-0.9,0.4c0.2,1.3,0.8,2.2,1.5,3.3
		c0.8,1.4,1.6,2.8,2.5,4.1c1.6,2.3,3.5,3.8,6,4.8C1269.2,793.5,1270.2,790.2,1268.1,789.5z"/>
	<path opacity="0.5" fill="#9F592A" d="M1260.2,797.2c0.9,0.8,2.4,0,2-1.2c-0.5-1.9-1.9-3.5-2.8-5.2c-1.1-2-1.8-4.2-2.8-6.3
		c-0.2-0.4-0.9-0.2-0.9,0.2c0,2.3,1,4.7,1.7,6.9C1258,793.6,1258.7,795.9,1260.2,797.2z"/>
	<path opacity="0.5" fill="#9F592A" d="M1259.2,801.1c-2.1-4.9-5.7-8.6-7.1-13.8c-0.2-0.8-1.4-0.5-1.3,0.3c0.9,5.1,3,11,6.4,15
		C1258.2,803.8,1259.7,802.3,1259.2,801.1z"/>
	<path opacity="0.5" fill="#9F592A" d="M1251.8,805.5c0.3,0.3,0.8,0.2,1-0.1c0.1-0.1,0.2-0.2,0.3-0.4c0.2-0.3,0.2-0.7,0-1
		c-2.3-3.6-4.6-7.9-5.2-12.2c0-0.3-0.4-0.2-0.4,0.1c-0.1,2.4,0.9,5.2,1.6,7.5C1249.7,801.3,1250.4,804,1251.8,805.5z"/>
	<path opacity="0.5" fill="#9F592A" d="M1252.9,808.8c0.4,2.9,1.3,5.7,1.8,8.7c0.6,4,0.3,7.5,0.2,11.4c-0.1,1.5,2.1,1.4,2.2,0
		c0.6-6.1-0.3-15-3.6-20.3C1253.4,808.3,1252.8,808.4,1252.9,808.8z"/>
	<path opacity="0.5" fill="#9F592A" d="M1260.1,824.4c0-0.5-0.7-0.5-0.8,0c-0.2,1.9-0.2,3.9-0.2,5.9c0,1.8-0.3,3.6,0,5.3
		c0.2,1.2,2,0.9,2.1-0.3c0.1-1.8-0.5-3.6-0.7-5.4C1260.3,828,1260.3,826.2,1260.1,824.4z"/>
	<path opacity="0.5" fill="#9F592A" d="M1265,819c1.4-2.2,0.4-4.9-0.4-7.2c-0.9-2.7-1.2-6-2.9-8.4c-0.3-0.3-0.9-0.4-1,0.1
		c-1,4.6,1.4,10.9,3,15.2C1263.8,819.4,1264.6,819.5,1265,819z"/>
	<path opacity="0.5" fill="#9F592A" d="M1265.5,821.3c-0.1-0.6-1.1-0.5-1.1,0.1c0.1,1.6,0.1,3.2,0.1,4.8c0,1.4-0.4,2.9,0.2,4.3
		c0.1,0.4,0.6,0.5,0.8,0.1c0.8-1.3,0.7-2.9,0.7-4.4C1266.1,824.6,1265.8,823,1265.5,821.3z"/>
	<path opacity="0.5" fill="#9F592A" d="M1268.6,815.9c-0.1-0.2-0.4-0.2-0.5,0c-0.9,1.4-0.6,3.5-0.7,5.1c-0.1,1.7-0.2,3.5,0.3,5.1
		c0.3,0.9,1.9,1.1,2.1,0c0.3-1.7,0-3.4-0.2-5.1C1269.3,819.3,1269.6,817.3,1268.6,815.9z"/>
	<path opacity="0.5" fill="#9F592A" d="M1267.4,794.1c1.1,6.8,0.9,13.9,1.6,20.8c0.1,1.3,2,1.4,2.1,0c0.5-7.3-1.3-14-3-21
		C1268,793.4,1267.3,793.6,1267.4,794.1z"/>
	<path opacity="0.5" fill="#9F592A" d="M1272.9,811.6c-0.1-0.4-0.7-0.4-0.8,0c-0.4,1.3-0.2,2.8-0.3,4.1c-0.1,1.4-0.4,2.9,0,4.2
		c0.2,0.5,0.9,0.7,1.2,0.2c0.6-1.3,0.4-2.7,0.4-4C1273.3,814.6,1273.4,813,1272.9,811.6z"/>
	<path opacity="0.5" fill="#9F592A" d="M1272.1,789.5C1272.1,789.4,1272,789.5,1272.1,789.5c-0.2,3.3,0.4,6.6,0.2,10
		c-0.2,3.1-0.5,6.1,0.1,9.2c0.3,1.5,2.3,1,2.5-0.3c0.3-3.6-0.2-7.3-0.7-10.8C1273.8,794.7,1273.6,791.8,1272.1,789.5z"/>
	<path opacity="0.5" fill="#9F592A" d="M1281.1,793.6c-0.6-3.3-0.8-7-2.1-10c-0.1-0.3-0.6-0.1-0.6,0.2c-0.2,4.2,0.7,8.6,0.6,12.9
		c0,1.6-0.9,4.9,0.3,6.2c0.7,0.8,2.1,0.4,2.4-0.6C1282.2,799.5,1281.5,796.3,1281.1,793.6z"/>
	<path opacity="0.5" fill="#9F592A" d="M1279.1,804c-0.1-0.3-0.4-0.3-0.6-0.1c-0.9,1.3-1.1,3.1-1.4,4.6c-0.4,1.5-1,3.2-0.5,4.7
		c0.3,0.9,1.7,1.3,2.2,0.3c0.7-1.5,0.4-3.1,0.4-4.6C1279.1,807.3,1279.5,805.5,1279.1,804z"/>
	<path opacity="0.5" fill="#9F592A" d="M1283.3,800.5c-0.1,0-0.1,0-0.2,0h-0.1c-0.3,0.1-0.4,0.3-0.5,0.6c-0.1,0.8-0.3,1.6-0.5,2.4
		c-0.2,0.7-0.5,1.2-0.4,1.9c0.1,0.5,0.7,0.6,1,0.3c0.6-0.5,0.7-1.4,0.8-2.1c0.1-0.8,0.2-1.6,0.3-2.5
		C1283.8,800.8,1283.6,800.6,1283.3,800.5z"/>
	<path opacity="0.5" fill="#9F592A" d="M1284.4,779.7c-0.1-0.6-1.2-0.5-1.1,0.1c0.4,3.3,0.6,6.4,0.5,9.7c0,3.2-0.8,6.4-0.6,9.6
		c0,0.8,1.2,1.2,1.6,0.4C1288.1,793.9,1285.7,785.7,1284.4,779.7z"/>
	<path opacity="0.5" fill="#9F592A" d="M1286.7,796.3c-0.1,0.5-0.2,1.1-0.3,1.6c-0.1,0.5-0.4,0.9-0.3,1.4c0.1,0.3,0.5,0.5,0.8,0.3
		c0.9-0.6,0.9-2.3,0.9-3.3C1287.8,795.5,1286.8,795.6,1286.7,796.3z"/>
	<path opacity="0.5" fill="#9F592A" d="M1287.2,771.4c0.1,6.4-0.1,12.8-0.2,19.3c0,1,1.4,1.2,1.7,0.2c1.7-6.5,0.5-13.1-0.6-19.6
		C1288,770.8,1287.2,770.9,1287.2,771.4z"/>
	<path opacity="0.5" fill="#9F592A" d="M1293,767.6c-0.1-0.6-0.8-0.6-0.9,0c-0.3,2.4-0.1,4.8-0.1,7.2c0,2.1,0,4.5,0.8,6.4
		c0.3,0.8,1.2,0.8,1.5,0c0.7-1.8,0.4-3.9,0-5.8C1293.8,772.8,1293.2,770.3,1293,767.6z"/>
	<path opacity="0.5" fill="#9F592A" d="M1294.4,758.7c-0.2-0.4-0.9-0.2-0.8,0.2c0.2,2.2,0.7,4.4,1.1,6.6c0.4,2.2,0.4,4.6,1.3,6.6
		c0.3,0.6,1.3,0.5,1.5-0.2c0.4-2.1-0.2-4.4-0.7-6.5C1296.1,763.1,1295.5,760.8,1294.4,758.7z"/>
	<path opacity="0.5" fill="#9F592A" d="M1298.5,760.4c-1-2.7-2.3-5.4-3.6-8c-0.2-0.4-0.7-0.1-0.6,0.3c0.5,2.5,1.3,5,2,7.5
		c0.4,1.5,0.2,3.6,1.4,4.6c0.2,0.2,0.4,0.2,0.6,0.1C1299.9,763.9,1299.1,761.8,1298.5,760.4z"/>
	<path opacity="0.5" fill="#9F592A" d="M1248.2,810.8c0.7,0.9,2.1-0.2,1.5-1.2c-2.7-4.4-6-8.3-10.1-11.4c-0.3-0.2-0.7,0.2-0.5,0.5
		C1241.8,803,1244.9,807,1248.2,810.8z"/>
	<path opacity="0.5" fill="#9F592A" d="M1240.8,807.5c-1.4-0.8-2.7-1.7-4-2.6c-1.3-1-2.4-2.4-4-2.8c-0.2,0-0.4,0.1-0.3,0.3
		c0.6,2.3,3.7,3.9,5.5,5.1c2.8,1.8,4.6,4.4,7,6.5c0.8,0.7,2.3,0,1.9-1.1C1245.9,810.3,1243.2,808.8,1240.8,807.5z"/>
	<path opacity="0.5" fill="#9F592A" d="M1250.9,829.9c0.6-4.9-1.6-10.1-3-14.7c-0.1-0.5-0.9-0.3-0.8,0.2c1,4.7,0.7,10.1,2.3,14.7
		C1249.7,830.9,1250.8,830.7,1250.9,829.9z"/>
	<path opacity="0.5" fill="#9F592A" d="M1251.3,829.7c0.2,2.1-0.1,4.3-0.2,6.4c-0.1,2-0.8,4.1-0.5,6c0.1,0.6,0.7,0.9,1.2,0.5
		c1.4-1.3,1.3-3.8,1.4-5.6c0.1-2.6-0.5-4.9-0.9-7.5C1252.2,829.1,1251.2,829.2,1251.3,829.7z"/>
	<path opacity="0.5" fill="#9F592A" d="M1245.7,837.5c-0.1-0.1-0.3-0.1-0.3,0c-0.8,1.8-0.6,4-0.7,6c-0.1,2.3-0.4,4.8,0.2,7.1
		c0.2,0.7,1.2,0.7,1.4,0c0.6-2.2,0.3-4.8,0.2-7.1C1246.4,841.5,1246.6,839.4,1245.7,837.5z"/>
	<path opacity="0.5" fill="#9F592A" d="M1238.3,819.4c0.6,2.6,1.4,5.1,1.8,7.7c0.4,2.6,0.4,5.4,1.4,7.8c0.3,0.7,1.3,0.8,1.5,0
		c1.5-4.8-1.4-11.9-4.2-15.7C1238.6,819,1238.2,819.1,1238.3,819.4z"/>
	<path opacity="0.5" fill="#9F592A" d="M1233.2,812.1c-2.2-1.8-4.4-3.9-6.8-5.4c-0.4-0.3-0.8,0.3-0.5,0.7c1.9,2.2,4.3,4.2,6.3,6.3
		c1.5,1.5,3.1,4,5.3,4.3c0.3,0,0.6-0.3,0.5-0.5C1237.8,815.1,1235,813.5,1233.2,812.1z"/>
	<path opacity="0.5" fill="#9F592A" d="M1225.1,816c2,2,3.9,4.1,6.3,5.6c1.2,0.7,2.5-0.9,1.5-2c-1.9-2-4.5-3.4-6.8-4.9
		c-2.6-1.7-4.9-3.7-7.5-5.4c-0.4-0.2-0.8,0.3-0.5,0.6C1220.4,812,1222.9,813.8,1225.1,816z"/>
	<path opacity="0.5" fill="#9F592A" d="M1217.9,820.6c1.5,1.9,3.8,4.8,6.4,5.2c0.8,0.1,1.4-0.6,1-1.3c-0.7-1.5-2.2-2.3-3.5-3.4
		c-1.2-1-2.2-2.1-3.4-3.1c-2.1-1.7-4.5-3.5-7.1-4.3c-0.5-0.1-0.7,0.5-0.3,0.8C1213.6,816.3,1215.8,818,1217.9,820.6z"/>
	<path opacity="0.5" fill="#9F592A" d="M1229.6,824.6c1.9,4.9,3.7,10,4.8,15.1c1.3,5.7,0.2,11.2,0.9,16.9c0.1,0.7,1,0.9,1.3,0.2
		c3.7-11.2-1.5-22.6-6-32.6C1230.3,823.6,1229.4,824,1229.6,824.6z"/>
	<path opacity="0.5" fill="#9F592A" d="M1222.1,829.9c1.1,2.9,2.2,5.5,2.7,8.6c0.6,3.4,0.8,6.7,0.9,10.1c0,1.3,1.9,1.3,2,0
		c0.6-6.4-1.4-13.7-5.1-19C1222.5,829.4,1222,829.5,1222.1,829.9z"/>
	<path opacity="0.5" fill="#9F592A" d="M1229.2,847.8L1229.2,847.8C1229.2,847.7,1229.3,847.7,1229.2,847.8c0.4-0.7-0.7-0.7-0.5-0.1
		v0.1c0,0.1,0.1,0.1,0.2,0.1c-0.1,0.1-0.2,0.3-0.2,0.5c0.6,3.2,0.6,6.4,0.4,9.7c-0.2,2.5-0.9,5-0.5,7.5c0.1,0.6,1,0.6,1.3,0.2
		c3-4.9,0.9-12.5-0.3-17.6C1229.6,847.9,1229.4,847.8,1229.2,847.8z"/>
	<path opacity="0.5" fill="#9F592A" d="M1223.7,850.1c-0.3,4-0.7,8.2-0.6,12.3c0,1,1.8,1.4,1.9,0.3c0.6-4.1,0.1-8.6-0.6-12.6
		C1224.3,849.6,1223.7,849.7,1223.7,850.1z"/>
	<path opacity="0.5" fill="#9F592A" d="M1219.5,854.3c0.2,2.8,0.2,5.7,0.2,8.5c0,2.5-0.4,5.2,0.4,7.5c0.2,0.6,1,0.6,1.2,0
		c1.8-4.5-0.1-11.6-1.1-16.1C1220.2,853.7,1219.4,853.8,1219.5,854.3z"/>
	<path opacity="0.5" fill="#9F592A" d="M1214.8,835.5c0.4,2,1.1,3.9,1.5,5.8c0.4,2,0.5,4,0.8,6c0.2,1.1,2.1,0.9,2-0.3
		c-0.4-4.1-1.8-8.2-3.4-12C1215.5,834.6,1214.7,835,1214.8,835.5z"/>
	<path opacity="0.5" fill="#9F592A" d="M1217.9,829.6c-1.6-3-4.8-5.4-7.4-7.5c-2.6-2.2-5.6-4.3-8.6-6c-0.4-0.2-0.9,0.3-0.5,0.7
		c2.6,2.5,5.3,4.9,7.8,7.4c2.3,2.3,4.5,5.2,7.2,6.9C1217.4,831.5,1218.3,830.5,1217.9,829.6z"/>
	<path opacity="0.5" fill="#9F592A" d="M1195.6,822.7c1.1,1.1,2.2,2.1,3.2,3.2c2.1,2.3,3.8,5.3,6.2,7.3c0.6,0.4,1.7,0.1,1.4-0.8
		c-0.8-2.2-2.9-4.3-4.5-6c-0.5-0.5-6-5.1-5.9-5.3c0.1-0.3-0.2-0.6-0.5-0.6c-0.1,0-0.1,0-0.2,0c-0.3,0-0.6,0.3-0.6,0.6
		C1194.6,821.8,1195.1,822.2,1195.6,822.7z"/>
	<path opacity="0.5" fill="#9F592A" d="M1196.8,833.4c1.3,1.7,2.1,3.7,3.4,5.4c0.4,0.5,1.3,0.2,1.4-0.4c0.3-2.1-1.2-3.7-2.5-5.2
		c-2.1-2.4-4.3-4.6-6.4-7c-0.3-0.3-0.9,0.1-0.6,0.5C1193.7,828.9,1195.2,831.2,1196.8,833.4z"/>
	<path opacity="0.5" fill="#9F592A" d="M1207.1,839.4c-0.2-0.4-0.7-0.1-0.7,0.3c0.6,2.9,1.6,5.7,2.2,8.6c0.7,3,0.7,6.2,1.7,9
		c0.2,0.6,1.1,0.8,1.5,0.2c1.6-2.7,0.4-5.8-0.6-8.6C1210,845.8,1208.8,842.4,1207.1,839.4z"/>
	<path opacity="0.5" fill="#9F592A" d="M1207,859.9c0.2-3-1.4-6.3-2.5-9.1c-1.2-2.9-2.4-5.8-4.2-8.4c-0.2-0.3-0.8-0.1-0.7,0.3
		c1.1,3.1,2.3,6.1,3.3,9.2c0.9,2.7,1.2,5.9,2.7,8.4C1206.1,860.8,1206.9,860.5,1207,859.9z"/>
	<path opacity="0.5" fill="#9F592A" d="M1206.5,862.7c-1.4,4.7-2.8,11.2-2,16.1c0.1,0.9,1.3,0.6,1.5,0c1.9-4.6,1.8-11.2,1.2-16
		C1207.2,862.4,1206.6,862.2,1206.5,862.7z"/>
	<path opacity="0.5" fill="#9F592A" d="M1200.3,864.3c-0.1-0.3-0.6-0.3-0.6,0.1c-0.2,4.3,1,9.6-1.2,13.6c-0.1,0.1-0.2,0.2-0.3,0.3
		c-0.1,0.2-0.2,0.5-0.4,0.7c-0.6,1.3,0.9,2.4,1.9,1.5c1.9-1.6,2-4.1,1.8-6.5C1201.3,870.9,1201.4,867.3,1200.3,864.3z"/>
	<path opacity="0.5" fill="#9F592A" d="M1194.2,850.4c-1.3-2.1-2.4-4.7-4.2-6.3c-0.1-0.1-0.3,0-0.2,0.1c0.7,2.5,2.3,4.7,3.1,7.3
		c0.7,2.4,1.4,4.7,2.5,7c0.6,1.3,2.7,0.4,2.2-0.9C1196.7,855,1195.5,852.6,1194.2,850.4z"/>
	<path opacity="0.5" fill="#9F592A" d="M1178.8,823.7c2.4,2.8,4.5,5.7,6.7,8.6c1.8,2.4,3.3,5.4,5.5,7.5c0.7,0.7,1.9,0,1.6-1
		c-0.8-3.2-3.3-6.1-5.4-8.6c-2.3-2.8-5-5.1-7.9-7.2C1178.9,822.8,1178.5,823.4,1178.8,823.7z"/>
	<path opacity="0.5" fill="#9F592A" d="M1187,844.6c-1-3.5-3.8-6.8-6-9.7c-2.3-3.1-4.9-5.7-7.6-8.4c-0.5-0.5-1.2,0.2-0.8,0.8
		c2.5,3.1,4.9,6.5,7.2,9.8c1.9,2.7,3.4,6,5.7,8.4C1186.1,846.1,1187.3,845.4,1187,844.6z"/>
	<path opacity="0.5" fill="#9F592A" d="M1178.4,849.9c0.7,1.2,2.8,0.4,2.3-1c-1.1-3.4-3-6.5-4.9-9.4s-3.8-6.1-6.4-8.4
		c-0.4-0.4-1,0.1-0.8,0.6c1.4,3.1,3.5,6,5.1,9C1175.2,843.8,1176.6,847,1178.4,849.9z"/>
	<path opacity="0.5" fill="#9F592A" d="M1166.3,845c0.8,2.5,0.9,5.4,2.4,7.6c0.6,0.9,2.1,0.6,2.1-0.6c-0.1-2.9-1.8-5.5-3-8.1
		c-1.1-2.6-2.4-5.1-3.7-7.6c-0.2-0.4-1-0.1-0.8,0.3C1164.5,839.4,1165.4,842.2,1166.3,845z"/>
	<path opacity="0.5" fill="#9F592A" d="M1184.8,849.9c-0.2-0.5-1-0.1-0.8,0.3c1.7,5.4,3.2,11.1,5.6,16.2c0.6,1.2,2.5,0.3,2.1-0.9
		C1190,860.2,1187.2,855,1184.8,849.9z"/>
	<path opacity="0.5" fill="#9F592A" d="M1178.1,850.9c-0.2-0.2-0.5,0-0.5,0.3c0.4,2.5,1.5,4.8,2.2,7.3c0.5,1.9,0.6,3.9,2.2,5.1
		c0.4,0.3,1.1,0,1.2-0.5c0.6-2-0.9-4.1-1.7-5.8C1180.4,855.1,1179.6,852.8,1178.1,850.9z"/>
	<path opacity="0.5" fill="#9F592A" d="M1179.5,871.8c-1.9-5.9-5.1-11.4-7.6-17c-0.3-0.6-1.3-0.2-1.1,0.5c2.1,5.7,4.1,11.4,5.9,17.2
		C1176.9,874.1,1180.2,873.8,1179.5,871.8z"/>
	<path opacity="0.5" fill="#9F592A" d="M1169.7,873.6c-1.8-5.6-2.8-11.5-4.7-17.1c-0.1-0.2-0.5-0.2-0.4,0.1
		c0.6,5.9,0.4,12.6,3.1,17.9C1168.3,875.6,1170.1,874.9,1169.7,873.6z"/>
	<path opacity="0.5" fill="#9F592A" d="M1162.8,876.3c-0.4-2.9-1.2-5.7-1.7-8.6c-0.5-2.9-0.5-5.7-0.9-8.6c0-0.4-0.6-0.3-0.7,0
		c-1.2,5.4-0.3,12.5,0.9,17.9C1160.8,878.5,1163,877.8,1162.8,876.3z"/>
	<path opacity="0.5" fill="#9F592A" d="M1216.1,856.6c0-0.6-0.8-0.6-0.9,0c-0.2,2.8-0.4,5.6-0.5,8.4c-0.1,2.4-0.5,5,0,7.4
		c0.1,0.6,1.1,0.6,1.2,0c0.6-2.3,0.3-5,0.3-7.4C1216.3,862.2,1216.2,859.4,1216.1,856.6z"/>
	<path opacity="0.5" fill="#9F592A" d="M1194,867.6c0.2,6.9-1.4,13.4-2.3,20.2c-0.2,1.3,1.7,1.3,2.1,0.3c2.5-6.5,2-13.8,1.1-20.5
		C1195,867,1194,866.9,1194,867.6z"/>
	<path opacity="0.5" fill="#9F592A" d="M1188,873.1c-0.4,3.6-0.5,7.1-1.1,10.7c-0.4,2.5-1.3,5-0.9,7.5c0.1,0.6,1,0.8,1.4,0.4
		c1.7-2.1,1.8-4.9,1.9-7.6c0.1-3.6,0-7.5-0.4-11C1188.8,872.6,1188.1,872.6,1188,873.1z"/>
	<path opacity="0.5" fill="#9F592A" d="M1180.7,874.5c-0.4,2.6-0.6,5.3-1.2,7.9c-0.5,2.3-1.7,4.7-1.5,7c0.1,0.7,0.9,0.9,1.3,0.4
		c1.3-1.9,1.4-4.4,1.6-6.7c0.3-2.9,0.6-5.7,0.4-8.6C1181.3,874.3,1180.8,874.1,1180.7,874.5z"/>
	<path opacity="0.5" fill="#9F592A" d="M1172.5,878.3c-1.5,6.8-4.7,14.4-4.3,21.4c0.1,1,1.6,1.3,1.8,0.2c1.4-6.8,3.5-14.6,3.2-21.5
		C1173.2,878,1172.6,877.9,1172.5,878.3z"/>
	<path opacity="0.5" fill="#9F592A" d="M1162.8,879.7c-1,8-1.4,15.7-3.3,23.5c-0.2,1,1.2,1.7,1.7,0.7c3.8-6.7,3.2-16.8,2.5-24.3
		C1163.7,879.1,1162.9,879.1,1162.8,879.7z"/>
	<path opacity="0.5" fill="#9F592A" d="M1156.4,877.9c0.2,4.6,0.3,9-0.4,13.6c-0.6,4-2.1,7.8-3,11.7c-0.2,1,1.2,1.8,1.8,0.7
		c3.9-7.5,3.9-18.1,2.1-26.2C1156.8,877.5,1156.4,877.6,1156.4,877.9z"/>
	<path opacity="0.5" fill="#9F592A" d="M1153.8,898.1c2-1.9,0.5-7.6,0.1-10c-0.9-5.1-2.8-9.9-5.7-14.2c-0.2-0.4-0.9-0.1-0.7,0.3
		c2.8,6.9,5.7,15.3,5,22.9c-0.1,0.1-0.1,0.3,0,0.5v0.1C1152.7,898.3,1153.4,898.5,1153.8,898.1z"/>
	<path opacity="0.5" fill="#9F592A" d="M1148.5,898.7c-0.6,1-0.7,2.1-1.1,3.2c-0.4,1.2-0.9,2.3-1.3,3.5c-0.4,1.1,1.4,1.6,1.8,0.5
		c0.3-1.2,0.5-2.4,0.8-3.6c0.3-1.1,0.6-2.2,0.6-3.3C1149.3,898.5,1148.8,898.3,1148.5,898.7z"/>
	<path opacity="0.5" fill="#9F592A" d="M1147.2,894.7c0.6-2.4-0.2-5.4-1.2-7.6c-1.1-2.5-2.5-5.9-4.6-7.8c-0.2-0.2-0.6,0-0.5,0.3
		c1,2.7,2.5,4.9,3.1,7.8c0.5,2.5,0.6,5.2,1.6,7.5C1145.9,895.7,1147,895.4,1147.2,894.7z"/>
	<path opacity="0.5" fill="#9F592A" d="M1161.2,850.1c-0.9-3.5-3-6.9-4.7-10.1c-1.7-3.1-3.7-6.5-6.2-9.1c-0.2-0.2-0.5,0-0.4,0.2
		c1,3.4,2.8,6.9,4.5,10.1c1.7,3.3,3.1,6.9,5.3,9.8C1160.3,851.7,1161.4,850.9,1161.2,850.1z"/>
	<path opacity="0.5" fill="#9F592A" d="M1157.7,858.1c-0.5-4.1-3.6-8.6-5.9-12s-5.6-7-9-9.3c-0.4-0.2-0.8,0.3-0.5,0.6
		c3.7,3.4,5.6,6.8,8,11.2c1.8,3.3,3.2,7.5,5.8,10.2C1156.6,859.3,1157.8,859,1157.7,858.1z"/>
	<path opacity="0.5" fill="#9F592A" d="M1155.7,865.6c-2-8.4-10.5-15.2-17.4-19.7c-0.1-0.1-0.2,0.1-0.1,0.2c3.1,3.4,6.4,6.2,9.2,9.9
		c2.6,3.4,4.5,6.7,6.4,10.4C1154.4,867.5,1156,866.7,1155.7,865.6z"/>
	<path opacity="0.5" fill="#9F592A" d="M1147.9,871c0.4-3.6-2.5-6.6-4.7-9.3c-3.2-4-6.3-8.3-10-11.8c-0.5-0.5-1.3,0.1-1,0.8
		c2.1,3.8,5,7.2,7.6,10.7c2.5,3.3,4.4,6.5,6.5,10C1146.8,872.2,1147.8,871.8,1147.9,871z"/>
	<path opacity="0.5" fill="#9F592A" d="M1136.4,862.8c-3-3.1-6.4-6.3-9.9-8.8c-0.3-0.2-0.7,0.2-0.5,0.5c2.4,3.4,5.3,6.6,8,9.7
		c2.6,2.9,5.4,7.1,8.9,9c0.6,0.3,1.6-0.2,1.3-1C1142.8,868.6,1139.1,865.6,1136.4,862.8z"/>
	<path opacity="0.5" fill="#9F592A" d="M1139.3,878.6L1139.3,878.6c0.6-0.1,1-0.7,1-1.2c0-1.3-1.3-2.2-2.1-3.1
		c-1.8-1.8-3.6-3.6-5.5-5.3c-3.4-3.1-7.4-6.1-11.4-8.4c-0.2-0.1-0.5,0.2-0.3,0.4c2.7,2.9,5.7,5.7,8.5,8.5c1.4,1.3,2.7,2.7,4.1,4
		c1.1,1.1,3.4,2.7,4.1,4.1C1137.8,878.2,1138.4,878.8,1139.3,878.6z"/>
	<path opacity="0.5" fill="#9F592A" d="M1124.2,874.1c-3.4-2.9-7-6.6-11.1-8.3c-0.2-0.1-0.3,0.2-0.2,0.3c2.4,4,6.8,7.1,10.2,10.3
		c1.8,1.6,3.6,3.2,5.3,4.9c1,0.9,2,1.8,3,2.7c0.1,0.1,2.3,1.7,2.3,1.6l0,0v0.1c0,0,0,0.1,0.1,0.1c0.2,0.4,0.7,0.6,1.1,0.4h0.1
		c0.6-0.2,1.1-1,0.6-1.6C1132.5,880.7,1128.1,877.4,1124.2,874.1z"/>
	<path opacity="0.5" fill="#9F592A" d="M1137.6,886.9c-0.3,3.4,1.3,7,1.6,10.4c0.3,3.6-0.1,7.1-0.3,10.6c-0.1,0.8,1.1,0.8,1.3,0.2
		c1.9-5.8,2.7-16.8-1.7-21.6C1138.1,886.2,1137.6,886.5,1137.6,886.9z"/>
	<path opacity="0.5" fill="#9F592A" d="M1131.7,895.7c1.5,5.8-0.2,11.6,0.4,17.4c0.1,0.8,1.2,1,1.5,0.2c1.8-5.8,1.1-12.2-0.7-17.9
		C1132.5,894.7,1131.5,895,1131.7,895.7z"/>
	<path opacity="0.5" fill="#9F592A" d="M1108.1,870c-0.3-0.2-0.6,0.2-0.4,0.5c3.4,3.9,7.4,7.4,10.9,11.2c1.6,1.7,3.2,3.5,4.6,5.4
		c1.2,1.7,1.9,3.6,3.4,5.1c0.4,0.4,1.1,0.1,1.1-0.5c-0.1-4-4-7.9-6.6-10.7C1117.3,877.1,1112.8,873,1108.1,870z"/>
	<path opacity="0.5" fill="#9F592A" d="M1117.4,887c2.6,4.3,4.5,8.4,5.6,13.3c0.9,4.3,0.9,8.6,1.7,12.9c0.1,0.8,1.4,0.8,1.6,0
		c2-8.9-2.9-19.6-8.2-26.6C1117.8,886.3,1117.2,886.6,1117.4,887z"/>
	<path opacity="0.5" fill="#9F592A" d="M1115.9,896.7c0,2.6,0.6,5.3,1.2,7.8c0.6,2.6,1,5.3,2.3,7.6c0.3,0.5,1.2,0.5,1.3-0.2
		c0.8-4.9-1.4-11.4-4.3-15.3C1116.2,896.4,1115.9,896.5,1115.9,896.7z"/>
	<path opacity="0.5" fill="#9F592A" d="M1109.9,896.9c-0.2-0.3-0.9-0.2-0.7,0.3c1.6,4.5,3.1,8.9,4.2,13.6c0.3,1.2,1.8,0.7,1.9-0.3
		c0.3-2.2-0.6-4.3-1.5-6.2C1112.5,901.8,1111.5,899.1,1109.9,896.9z"/>
	<path opacity="0.5" fill="#9F592A" d="M1116.7,893.4c-1.9-4.2-5.1-8-8.2-11.3c-3.2-3.4-6.5-7.1-10.3-9.8c-0.3-0.2-0.6,0.2-0.4,0.4
		c2.4,3.7,5.8,6.9,8.6,10.4c3.1,3.7,5.9,7.6,9,11.3C1116,895.2,1117,894.2,1116.7,893.4z"/>
	<path opacity="0.5" fill="#9F592A" d="M1101.7,898.1c0.7,3.4,2.1,6.6,3.1,9.9c1.1,3.6,1.5,7.1,1.8,10.8c0,1.3,1.9,1.2,2,0
		c0.9-6.9-3-15.1-6.2-21C1102.3,897.3,1101.6,897.7,1101.7,898.1z"/>
	<path opacity="0.5" fill="#9F592A" d="M1095.4,900.6c3.5,5.2,5.3,12.7,5.8,19c0,0.5,0,0.9,0.1,1.3c0.2,1.4,2.3,1.4,2.2,0
		c-0.6-6.9-3.2-15.1-7.3-20.8C1095.8,899.8,1095.1,900.2,1095.4,900.6z"/>
	<path opacity="0.5" fill="#9F592A" d="M1091.2,887.8c1.5,2.2,3.2,5.1,5.6,6.5c0.7,0.4,1.6-0.3,1.4-1.1c-0.8-2.8-3.4-5.3-5.3-7.4
		c-2.1-2.3-4.3-4.5-6.7-6.5c-0.4-0.3-0.9,0.2-0.5,0.5C1087.8,882.3,1089.4,885.2,1091.2,887.8z"/>
	<path opacity="0.5" fill="#9F592A" d="M1091.7,903.4c-0.5-7.6-7-15.8-11.4-21.8c-0.3-0.4-0.9,0-0.6,0.4c2,3.5,3.9,7.1,5.5,10.8
		c1.6,3.6,2.6,7.9,4.9,11C1090.5,904.5,1091.8,904.4,1091.7,903.4z"/>
	<path opacity="0.5" fill="#9F592A" d="M1091.4,906c0.5,3.1,0.4,6.1,0.6,9.2c0.1,2.1,0,4.4,1,6.3c0.4,0.7,1.2,0.4,1.5-0.2
		c1.9-4.5-1.3-11.1-2.4-15.5C1092,905.3,1091.4,905.5,1091.4,906z"/>
	<path opacity="0.5" fill="#9F592A" d="M1105.1,894c0.6,0.8,1.9-0.1,1.6-0.9c-1.2-3.7-4-7-6.5-10c-2.1-2.5-5.5-6.6-8.9-7.2
		c0,0-0.1,0-0.1,0.1c0.6,1.5,1.8,2.3,2.9,3.5c1.4,1.5,2.8,3.2,4.1,4.8C1100.9,887.3,1102.7,890.9,1105.1,894z"/>
	<path opacity="0.5" fill="#9F592A" d="M1081.1,903.7c-0.8-6.9-5.2-15-9.1-20.7c-0.2-0.3-0.8-0.1-0.7,0.3c1,3.8,2.4,7.5,3.8,11.2
		c1.3,3.2,2.3,6.8,4.3,9.7C1079.8,904.8,1081.2,904.7,1081.1,903.7z"/>
	<path opacity="0.5" fill="#9F592A" d="M1087.2,906.5c0.3,1.6,0.6,3.2,0.6,4.8c0,1.4-0.2,2.9-0.1,4.3c0,0.8,1.2,1,1.4,0.2
		c0.6-3,0-6.7-0.9-9.6C1088,905.6,1087.1,905.9,1087.2,906.5z"/>
	<path opacity="0.5" fill="#9F592A" d="M1081.6,907.5c-0.1,2.2,0.1,4.5-0.1,6.7c-0.1,2.2-0.7,4.4-0.7,6.7c0,0.5,0.7,0.7,0.9,0.2
		c2.3-3.8,2.2-9.8,0.4-13.8C1081.9,907.1,1081.6,907.3,1081.6,907.5z"/>
	<path opacity="0.5" fill="#9F592A" d="M1078.2,906.4c0-0.6-0.9-0.6-0.9,0c-0.6,4.6-1.3,9.3-1.3,14c0,1.6,2.3,1.1,2.2-0.1
		C1078.6,915.7,1078.3,911,1078.2,906.4z"/>
	<path opacity="0.5" fill="#9F592A" d="M1073.7,910.3c-0.7,2.2-0.9,4.4-1.7,6.5c-0.3,0.9,1.2,1.3,1.4,0.4c0.7-2.1,1.3-4.7,0.8-6.9
		C1074.1,910.1,1073.7,910.1,1073.7,910.3z"/>
	<path opacity="0.5" fill="#9F592A" d="M1068.1,904.1c1.1,5.2,1,10.6,0.7,15.9c-0.1,1.6,2.4,1.6,2.5,0c0.3-5.6-0.8-10.7-2.2-16.1
		C1068.9,903.2,1068,903.5,1068.1,904.1z"/>
	<path opacity="0.5" fill="#9F592A" d="M1065.6,915.1c-0.2-0.9-0.3-1.9-1.3-2.1c-0.1,0-0.2,0.1-0.1,0.2c0,0,0,3.1,0,3.4
		c0.1,1.4,0.1,2.9,0.3,4.3c0.2,1.5,2.5,1.6,2.4,0c0-0.5,0-0.8-0.2-1.1C1066.4,918.1,1066,916.6,1065.6,915.1z"/>
	<path opacity="0.5" fill="#9F592A" d="M1066,885.7c1.6,3.8,3.1,7.6,4.4,11.5c1,3,1.8,6.4,3.7,9c0.4,0.5,1.4,0.4,1.3-0.4
		c-0.3-6.9-5.4-14.6-8.6-20.6C1066.5,884.6,1065.7,885.1,1066,885.7z"/>
	<path opacity="0.5" fill="#9F592A" d="M1065,904.7c0.2-5.8-3.6-10.6-4.7-16c-0.2-0.8-1.3-0.4-1.2,0.3c0.4,2.7,1.4,5.3,2,7.9
		c0.6,2.7,0.9,5.7,2.3,8.2C1063.9,905.9,1065,905.5,1065,904.7z"/>
	<path opacity="0.5" fill="#9F592A" d="M1054.1,891.4c-0.1-0.4-0.8-0.4-0.8,0.1c0,3.3,0.5,6.7,1.1,10s1,6.9,2.7,9.7
		c0.4,0.7,1.4,0.4,1.4-0.4c0.1-3.1-1-6.2-1.7-9.2C1056,898.2,1055.3,894.7,1054.1,891.4z"/>
	<path opacity="0.5" fill="#9F592A" d="M1051.6,904.3c-0.1-0.4-0.8-0.3-0.8,0.1c0.2,4.8-0.1,11.9,3.1,15.8c0.5,0.6,1.4,0.1,1.4-0.6
		c0.1-2.4-1-4.9-1.7-7.3C1052.9,909.7,1052.1,907,1051.6,904.3z"/>
	<path opacity="0.5" fill="#9F592A" d="M1047.6,888.8c0-0.5-0.9-0.7-1-0.1c-1.2,8.6-1.8,20,1.1,28.2c0.1,0.4,0.7,0.3,0.7-0.1
		c0.5-4.5-0.4-9.4-0.6-14C1047.7,898.1,1047.9,893.4,1047.6,888.8z"/>
	<path opacity="0.5" fill="#9F592A" d="M1043.3,905.7c-0.1-0.4-0.8-0.4-0.9,0c-0.6,2.4-0.2,5-0.1,7.5c0.1,2-0.2,4.2,1.1,5.8
		c0.2,0.3,0.7,0.2,0.9-0.1c0.8-1.7,0.2-3.7-0.2-5.5C1043.7,910.9,1043.7,908.3,1043.3,905.7z"/>
	<path opacity="0.5" fill="#9F592A" d="M1039.5,893.3c-1.2,7.6-1.5,15.4-1.8,23c0,0.4,0.7,0.5,0.8,0.1c1.1-7.5,2.3-15.3,2.6-22.9
		C1041.2,892.6,1039.7,892.3,1039.5,893.3z"/>
	<path opacity="0.5" fill="#9F592A" d="M1044.4,889.2L1044.4,889.2c0,0,0-0.1,0-0.2l0,0l0,0c0.2-1.2,0.1-2.4,0.1-3.6
		c-0.1-0.9,0-2.1-0.7-2.8c0,0-0.1-0.1-0.2,0c-0.6,0.7-0.3,1.6-0.3,2.5c0,1.3-0.2,2.6-0.3,3.9C1043,889.9,1044.2,889.9,1044.4,889.2z
		"/>
	<path opacity="0.5" fill="#9F592A" d="M1054.1,882.6L1054.1,882.6c-1.1-4-2.2-8.1-2.7-12.2c-0.1-0.5-0.9-0.6-0.8,0
		c0.1,4.3,0.4,8.6,1.8,12.7C1052.8,884.2,1054.4,883.6,1054.1,882.6z"/>
	<path opacity="0.5" fill="#9F592A" d="M1053.4,868.9c1,5.8,1.8,12.4,4.4,17.7c0.2,0.5,1,0.2,1-0.3c-0.3-5.9-2.8-12.1-4.5-17.7
		C1054.1,868.1,1053.3,868.3,1053.4,868.9z"/>
	<path opacity="0.5" fill="#9F592A" d="M1061.8,880.4c-0.6-1.8-1.3-3.5-1.8-5.3s-0.7-3.6-1.1-5.4c-0.1-0.3-0.5-0.3-0.6,0
		c-1.1,3.6,0.7,8.1,2.1,11.4C1060.8,881.9,1062.1,881.2,1061.8,880.4z"/>
	<path opacity="0.5" fill="#9F592A" d="M1065,881.1c-0.6-3.9-1.5-8.2-3-11.9c-0.1-0.2-0.3-0.3-0.5-0.3c2.9-1.9,4.7-8.5,5.9-11.3
		c2.2-5.3,4.2-10.9,3.6-16.7c-0.1-0.7-1.1-0.9-1.2-0.2c-1.1,4.5-2,9-3.6,13.4c-1,2.7-2.2,5.3-3.4,7.8c-0.6,1.2-1.5,4.4-2.8,5.1
		c-1.2,0.6-0.4,2.7,0.9,2.2c0.1,0,0.1-0.1,0.2-0.1c-0.1,0.1-0.2,0.3-0.1,0.5c1.2,3.8,0.9,8.5,2.9,12
		C1064.1,882.3,1065.1,881.8,1065,881.1z"/>
	<path opacity="0.5" fill="#9F592A" d="M1068.8,879.6c0.5,1,2,0.1,1.5-0.9c-1-1.9-1.9-3.8-2.7-5.8c-0.6-1.6-1-3.4-2.1-4.7
		c-0.2-0.3-0.8-0.2-0.7,0.2c0.1,1.9,1.1,3.8,1.7,5.6C1067.3,875.9,1068,877.8,1068.8,879.6z"/>
	<path opacity="0.5" fill="#9F592A" d="M1074.7,881.9c-0.2-1.9-1.5-3.8-2.3-5.5c-1.2-2.6-2.4-5.3-3.4-8c-0.2-0.5-1-0.3-0.8,0.2
		c0.6,2.4,1.1,4.8,1.8,7.2c0.6,1.9,2.1,4.1,2.2,6.1C1072.2,883.5,1074.8,883.5,1074.7,881.9z"/>
	<path opacity="0.5" fill="#9F592A" d="M1047.2,882.9c0.1,0.5,0.8,0.5,1,0c0.5-1.7,0.3-3.5,0.3-5.2c-0.1-1.7,0-3.5-0.4-5.2
		c-0.1-0.5-0.8-0.3-0.8,0.1c-0.2,1.8,0,3.6,0,5.5C1047.2,879.7,1046.9,881.3,1047.2,882.9z"/>
	<path opacity="0.5" fill="#9F592A" d="M1043.9,873c0.2,2.6-0.1,5.2,0,7.8c0,0.8,1.2,1,1.4,0.2c0.6-2.6,0.2-5.6-0.3-8.1
		C1044.9,872.2,1043.9,872.3,1043.9,873z"/>
	<path opacity="0.5" fill="#9F592A" d="M1041.6,876.8c-0.1-0.8-1.3-0.8-1.3,0c0,1.3-0.1,2.5-0.1,3.8c0,0.9-0.3,2.1,0.5,2.7
		c0.2,0.2,0.5,0.2,0.7,0c0.8-0.7,0.5-1.8,0.5-2.7C1041.9,879.3,1041.7,878,1041.6,876.8z"/>
	<path opacity="0.5" fill="#9F592A" d="M1038.7,882.6c0.7-3.1-0.2-6.8-0.9-9.9c-0.1-0.6-1-0.3-0.9,0.3c0.4,3.2,0.1,6.5,0.8,9.6
		C1037.7,883.2,1038.6,883.2,1038.7,882.6z"/>
	<path opacity="0.5" fill="#9F592A" d="M1034.3,887c0.9-5.4,0.3-11.1-0.1-16.5c-0.1-1-1.6-0.9-1.5,0c0.7,5.5-0.2,10.7-0.5,16.3
		C1032.2,887.9,1034.1,888.2,1034.3,887z"/>
	<path opacity="0.5" fill="#9F592A" d="M1035.8,885.9c-4.4,7.9-8.4,18.5-8.9,27.6c0,0.8,1,0.8,1.3,0.2c1.8-4.4,2.7-9.2,4.1-13.7
		s3.1-9,4.5-13.6C1036.9,885.8,1036.1,885.4,1035.8,885.9z"/>
	<path opacity="0.5" fill="#9F592A" d="M1036.3,869c-5.1-3.1-10.2-6.3-15-9.9c-4.4-3.3-8.1-7.5-12.5-10.7c-0.2-0.1-0.3,0.1-0.2,0.2
		c2.8,4.7,7.8,9,12.1,12.4c4.6,3.7,9.5,6.9,14.8,9.3C1036.4,870.8,1037.2,869.6,1036.3,869z"/>
	<path opacity="0.5" fill="#9F592A" d="M1043.3,868.4c-3.9-3.8-8.4-6.9-12.4-10.7c-3.1-3-5.7-7.7-9.4-9.8c-0.2-0.1-0.4,0.1-0.3,0.3
		c5.5,8.5,12.2,16.3,20.7,22C1043,870.9,1044.3,869.3,1043.3,868.4z"/>
	<path opacity="0.5" fill="#9F592A" d="M1044.9,866.3c-0.3-3.2-2.1-6.1-3.5-8.9c-1.8-3.6-3.7-7.1-5.8-10.6c-0.4-0.7-1.5-0.1-1.1,0.7
		c1.8,3.3,3.6,6.7,5.2,10.1c1.4,3,2.3,6.4,4.5,9C1044.3,866.9,1044.9,866.7,1044.9,866.3z"/>
	<path opacity="0.5" fill="#9F592A" d="M1051.6,867c-1.5-6.5-3.2-13.6-6.7-19.4c-0.2-0.3-0.7-0.1-0.6,0.3c1.7,6.6,4.2,12.9,5.2,19.7
		C1049.7,868.9,1051.9,868.3,1051.6,867z"/>
	<path opacity="0.5" fill="#9F592A" d="M1053.1,865.7c0.5,0.7,1.7,0.9,2.1,0c0,0,0-0.1,0.1-0.1c0.2-0.5,0.1-1-0.1-1.3
		c-0.5-1.4-0.5-3.3-0.9-4.8c-0.4-1.4-0.8-2.9-1.2-4.3c-0.8-2.6-1.6-5.4-3-7.8c-0.2-0.3-0.6-0.1-0.5,0.2c0.7,3.3,1.9,6.4,2.5,9.8
		C1052.3,859.7,1051.8,863.8,1053.1,865.7z"/>
	<path opacity="0.5" fill="#9F592A" d="M1056,860.1c0.2,0.6,1,0.7,1.3,0.2c1.2-1.9,1-4.3,0.7-6.5c-0.4-2.4-1.4-5.1-2.1-7.5
		c-0.1-0.4-0.7-0.3-0.7,0.1c-0.1,2.4,0.7,4.6,0.7,7C1055.7,855.6,1055.4,858,1056,860.1z"/>
	<path opacity="0.5" fill="#9F592A" d="M1058.2,864.1c-0.2,0.8,0.8,1.2,1.3,0.6c4.7-6.1,4.3-15,2.9-22.1c-0.2-0.9-1.4-0.5-1.3,0.4
		c0.5,3.6,0.3,7.9-0.3,11.4C1060.3,857.8,1058.9,860.8,1058.2,864.1z"/>
	<path opacity="0.5" fill="#9F592A" d="M1067.1,863.6c6.9-6.8,10.1-14.4,12-23.7c0.2-0.8-1.1-1.2-1.3-0.4c-1.8,8.2-6.6,16.4-12,22.8
		C1065.1,863.2,1066.3,864.5,1067.1,863.6z"/>
	<path opacity="0.5" fill="#9F592A" d="M1087.2,835.7c0-0.4-0.6-0.6-0.8-0.2c-2.5,5.6-4.5,10.7-8.1,15.6c-3.5,4.8-7.1,9.8-11.3,14.1
		l0,0l-0.1,0.1l-0.1,0.1c-0.5,0.7,0.1,1.6,0.9,1.6c2,0,3.6-3.2,4.7-4.5c2.1-2.6,4.2-5.3,6.2-8.1
		C1082.5,849,1086.9,842.6,1087.2,835.7z"/>
	<path opacity="0.5" fill="#9F592A" d="M1033.7,909.2c-1.6,4-3,8.3-1.9,12.6c0.2,0.6,1.1,0.6,1.3,0c0.6-2.1,0.5-4.4,0.7-6.5
		c0.2-2,0.8-4.1,0.4-6.1C1034.1,908.9,1033.8,909,1033.7,909.2z"/>
	<path opacity="0.5" fill="#9F592A" d="M1029.8,914.3c-1.7,2.2-3.6,6.2-3,9c0.1,0.5,0.7,0.4,0.9,0c0.5-1.4,0.6-3,1-4.5
		s1.1-2.9,1.3-4.4C1030.1,914.3,1029.9,914.2,1029.8,914.3z"/>
	<path opacity="0.5" fill="#9F592A" d="M1024.2,913.9c-1.2,4.4-3.9,9.6-2.7,14.2c0.1,0.4,0.7,0.5,1,0.1c1-2,0.8-4.5,1.1-6.8
		c0.4-2.5,1.3-4.9,1.2-7.5C1024.8,913.7,1024.3,913.6,1024.2,913.9z"/>
	<path opacity="0.5" fill="#9F592A" d="M1025.8,884.4c-3.5,9.2-5.5,19.9-5.5,29.8c0,0.8,1.2,1,1.4,0.2c2-9.8,3.5-20,4.6-29.9
		C1026.3,884.2,1025.8,884.2,1025.8,884.4z"/>
	<path opacity="0.5" fill="#9F592A" d="M1017.4,907.8c0-0.2-0.3-0.2-0.4-0.1c-1.2,2.2-1.5,5.3-1.8,7.7c-0.4,2.9-0.8,6.5,0.2,9.3
		c0.2,0.6,0.9,0.6,1.1,0c1-2.8,0.6-6.2,0.6-9.2C1017.1,913.1,1017.8,910.3,1017.4,907.8z"/>
	<path opacity="0.5" fill="#9F592A" d="M1011,910.8c0-0.2-0.3-0.3-0.4-0.1c-1.4,6.1-1.6,12.7-1.4,18.9c0,1.4,2.3,1.4,2.1,0
		C1010.8,923.3,1011,917.1,1011,910.8z"/>
	<path opacity="0.5" fill="#9F592A" d="M1019.8,885.3c-4.6,4.5-8.4,14.2-7.6,20.5c0.1,0.7,1.2,0.8,1.5,0.2c1.5-3,1.8-6.6,2.8-9.8
		c1.1-3.6,2.8-7.1,3.5-10.8C1020.1,885.3,1019.9,885.2,1019.8,885.3z"/>
	<path opacity="0.5" fill="#9F592A" d="M1009.9,884.7c-2.8,8.2-7.5,18.6-5.9,27.4c0.1,0.7,1.4,0.7,1.5,0c0.9-4.5,0.7-9.2,1.6-13.7
		c0.9-4.6,2.5-9,3.9-13.4C1011.3,884.3,1010.2,884,1009.9,884.7z"/>
	<path opacity="0.5" fill="#9F592A" d="M1005.3,915c0-0.2-0.3-0.2-0.3,0c-1.1,4.4-0.8,10.2,0.5,14.6c0.3,0.9,1.6,0.5,1.4-0.4
		C1005.6,924.5,1006.5,919.6,1005.3,915z"/>
	<path opacity="0.5" fill="#9F592A" d="M1000.1,917.9c-0.3-4-0.3-7.9,0-11.9c0-0.7-0.9-0.6-1,0c-0.8,7.8-2.9,18.5,2.7,25.1
		c0.4,0.4,1,0,0.9-0.5C1001.9,926.3,1000.4,922.4,1000.1,917.9z"/>
	<path opacity="0.5" fill="#9F592A" d="M993.7,907.2c0-0.4-0.6-0.4-0.6,0c-1,7.7-2.7,17.4,0.7,24.6c0.3,0.7,1.4,0.3,1.4-0.4
		c-0.2-4-1.2-8-1.5-12C993.3,915.3,993.5,911.3,993.7,907.2z"/>
	<path opacity="0.5" fill="#9F592A" d="M997.3,881.7c-5.3,6.9-7.7,15-7.7,23.5c0,0.6,0.9,0.7,1,0.1c1.6-8,4.5-15.6,8-22.9
		C999.1,881.6,997.9,881,997.3,881.7z"/>
	<path opacity="0.5" fill="#9F592A" d="M1003.2,884.8c0.1-0.5-0.5-1.1-1-0.7c-4.7,3.5-5.6,12.1-5.4,17.5c0,0.3,0.4,0.4,0.6,0.1
		c1-2.8,1.6-5.8,2.5-8.6C1000.7,890.1,1002.4,887.6,1003.2,884.8z"/>
	<path opacity="0.5" fill="#9F592A" d="M1004.8,888.2c-0.4-0.1-1,0-1.1,0.5c-1.1,2.4-2,5.1-2.8,7.7c-0.2,0.7,0.8,1.1,1.2,0.5
		c0.7-1.4,1.3-2.8,2-4.3c0.5-1,1.4-2.2,1.5-3.3c0.1-0.4-0.1-1-0.6-1C1004.9,888.2,1004.9,888.2,1004.8,888.2z"/>
	<path opacity="0.5" fill="#9F592A" d="M988.1,885.9c-0.1,0-0.1,0-0.2,0.1c-0.2,0.1-0.2,0.2-0.2,0.3c-4.2,7.2-5,16-4.8,24.2
		c0,1.1,1.9,1.5,2.1,0.3c1.3-8.2,0.8-16.3,3.6-24.3c0.1-0.2,0-0.3-0.1-0.4C988.5,885.9,988.3,885.8,988.1,885.9z"/>
	<path opacity="0.5" fill="#9F592A" d="M988.2,909.8c0-0.2-0.4-0.3-0.4-0.1c-1.2,6.2-5.8,17.7-0.2,23c0.3,0.3,1.1,0.1,1-0.4
		c-0.4-3.7-1.4-7-1.3-10.8C987.3,917.6,987.8,913.6,988.2,909.8z"/>
	<path opacity="0.5" fill="#9F592A" d="M982.3,913.1c0-0.5-0.7-0.5-0.7,0c-0.3,6.7-1.2,12.6,0.7,19.1c0,0.2,0.1,0.5,0.2,0.7
		c0.6,0.9,2.2,0.4,1.9-0.8C982.3,925.8,982.4,919.7,982.3,913.1z M983.4,931.4L983.4,931.4C983.5,931.4,983.5,931.4,983.4,931.4
		C983.5,931.4,983.4,931.4,983.4,931.4z"/>
	<path opacity="0.5" fill="#9F592A" d="M978.6,920.6c-0.2-3.6,0.6-7,0.8-10.6c0-0.2-0.2-0.2-0.3-0.1c-3,6.7-2.3,16.1,0.4,22.8
		c0.3,0.9,1.7,0.5,1.4-0.4C979.8,928.5,978.8,924.7,978.6,920.6z"/>
	<path opacity="0.5" fill="#9F592A" d="M975.8,932.9c-1.1-3.7-1.7-7.4-1.8-11.3c0-0.6-0.8-0.6-0.9,0c-0.3,4.4,0.2,8.7,1.4,13
		c0.3,1,1.6,0.7,1.7-0.2c0-0.3,0-0.5,0.1-0.8C976.3,933.2,976.1,933,975.8,932.9z"/>
	<path opacity="0.5" fill="#9F592A" d="M973.6,918.7c0.1-10.5,2.3-20.6,7.2-29.9c0.1-0.3-0.2-0.6-0.4-0.3c-3.6,3.4-5.3,8.5-6.6,13.1
		c-1.5,5.4-2.9,11.5-2.5,17.1C971.3,920.2,973.6,920.2,973.6,918.7z"/>
	<path opacity="0.5" fill="#9F592A" d="M967.7,930.1c-0.7-3.5-0.3-6.9,0.2-10.4c0-0.4-0.6-0.5-0.7-0.2l0,0c-0.1,0-0.1,0.1-0.2,0.2
		c-0.1,0.1-0.1,0.2-0.1,0.3c-3.2,6.9,0,13.6,3.2,19.9c0.4,0.8,1.7,0.2,1.4-0.6C970.3,936.1,968.4,933.4,967.7,930.1z"/>
	<path opacity="0.5" fill="#9F592A" d="M972.2,884.3c-5.1,8.7-7.8,19-7.9,29.1c0,0.4,0.6,0.4,0.6,0c1.3-10.1,4-19.1,8.6-28.3
		C974,884.2,972.7,883.5,972.2,884.3z"/>
	<path opacity="0.5" fill="#9F592A" d="M968.2,884.7c0.9-0.7-0.4-2-1.3-1.3c-6.9,5.5-9.6,13.8-10.9,22.2c-0.1,0.7,1,1.1,1.1,0.3
		C958.9,897.8,961.4,890.1,968.2,884.7z"/>
	<path opacity="0.5" fill="#9F592A" d="M958.7,883.3c-4.3,5.6-7.4,12.5-8.9,19.4c-0.1,0.3,0.4,0.6,0.6,0.2c2.8-6.6,5.9-12.8,9.5-19
		C960.3,883.2,959.2,882.7,958.7,883.3z"/>
	<path opacity="0.5" fill="#9F592A" d="M949.6,908c-1.2,0.6-1.4,3-1.6,4.1c-0.3,1.9-0.5,3.8-0.4,5.8c0,0.5,0.7,0.5,0.7,0
		c0-1.5,0.1-3,0.6-4.5c0.3-1.2,0.9-3.1,1.8-4.1C951.3,908.6,950.5,907.5,949.6,908z"/>
	<path opacity="0.5" fill="#9F592A" d="M954,913.1c-2.7,9.2-3.1,19.3-0.7,28.6c0.3,1.2,2,0.7,1.8-0.5c-0.1-0.3-0.1-0.5-0.2-0.8
		c0-0.1,0-0.1-0.1-0.1c-2.1-9.1-0.9-17.8-0.3-27.1C954.7,912.9,954.1,912.8,954,913.1z"/>
	<path opacity="0.5" fill="#9F592A" d="M961,914.5c0.1-0.7-1.1-0.9-1.2-0.2c-1.6,8.9-3.7,20.7,2,28.5c0.5,0.7,1.6,0.1,1.2-0.7
		C959.1,934,959.9,923.2,961,914.5z"/>
	<path opacity="0.5" fill="#9F592A" d="M958.5,941.5c-0.1-0.3-0.6-0.2-0.5,0.1c0.2,0.9,0.3,1.8,0.6,2.7s0.5,1.7,0.8,2.6
		c0.2,0.5,0.7,0.9,1.3,0.7c0.2,0,0.3-0.1,0.5-0.3c0.4-0.4,0.4-1,0-1.5C960.1,944.6,959.2,943.1,958.5,941.5z"/>
	<path opacity="0.5" fill="#9F592A" d="M949.4,936.6c0-0.3-0.5-0.3-0.5,0c-0.3,4.7,0.5,11.2,5.3,13.6c1.2,0.6,2.1-1,1-1.8
		C951.8,946.2,949.3,940.5,949.4,936.6z"/>
	<path opacity="0.5" fill="#9F592A" d="M944.3,942.2c-0.8-2-1.3-4.1-2.3-6c-0.1-0.2-0.4-0.1-0.5,0.1c-0.3,5,1.3,10.2,5.8,12.9
		c0.9,0.5,1.9-0.7,1.1-1.4C946.6,946.2,945.1,944.5,944.3,942.2z"/>
	<path opacity="0.5" fill="#9F592A" d="M943.6,931.6c-1.8-16.9-0.3-35.8,8.8-50.6c0.2-0.3-0.3-0.6-0.5-0.3
		c-8.7,14.8-14.3,33.9-10.3,51.1C941.9,932.9,943.7,932.7,943.6,931.6z"/>
	<path opacity="0.5" fill="#9F592A" d="M936,915.5c-0.4,2.8-0.1,5.9-0.1,8.7c0,2.5,0.1,5.3,1,7.7c0.3,0.9,1.7,0.8,1.7-0.2
		c0.1-2.6-0.6-5.1-1.1-7.6c-0.6-2.9-0.6-5.7-1.1-8.6C936.4,915.2,936.1,915.3,936,915.5z"/>
	<path opacity="0.5" fill="#9F592A" d="M940.7,893.2c0.6-1.5,1.1-2.9,1.8-4.4c0.6-1.3,1.5-2.6,1.8-4c0-0.1-0.1-0.2-0.2-0.1
		c-1.2,0.9-2,2.5-2.8,3.9c-0.8,1.5-1.7,3.1-2.1,4.8c-0.2,0.6,0.6,1.1,1.1,0.6C940.6,893.7,940.7,893.5,940.7,893.2z"/>
	<path opacity="0.5" fill="#9F592A" d="M934.4,939.5c-1.2-3.7-1.8-7.6-2-11.5c-0.4-8.2,1.2-16.3,2.3-24.4c0.1-0.5-0.7-0.6-0.8-0.1
		c-2.1,8.7-3.6,17.9-2.9,26.8c0.3,3.8,1,7.5,2.3,11.1c0.6,1.6,1.2,3.1,2,4.5c0.5,0.9,1,1.8,1.6,2.7c0.2,0.8,0.6,1.3,1,1.3l0,0
		c0,0.1,0,0.1,0,0.2c0,0.4,0.3,0.9,0.8,0.8c0.1,0,0.1,0,0.2,0c0.7,0,1.2-0.8,0.8-1.4C937.9,946.1,935.7,943.4,934.4,939.5z"/>
	<path opacity="0.5" fill="#9F592A" d="M927.3,911.5c0-0.3-0.4-0.4-0.5-0.1c-0.7,2.3-1.5,4.5-1.8,7c-0.2,1.2-0.8,3.9,0.1,5
		c0.1,0.2,0.3,0.4,0.6,0.4c0,0,0,0,0.1,0c0.5,0,0.9-0.5,0.7-1C925.3,919.2,927.8,915.1,927.3,911.5z"/>
	<path opacity="0.5" fill="#9F592A" d="M927.5,941.4c-1.1-3.3-1.7-6.7-2-10.2c-0.1-0.7-1-0.7-1,0c-0.6,6.5,0.7,14.5,5,19.6
		c0.6,0.7,2-0.1,1.7-1C930,947,928.4,944.4,927.5,941.4z"/>
	<path opacity="0.5" fill="#9F592A" d="M922,947.5c-0.3-0.5-0.9-0.5-1.3-0.2c1-0.9,0.6-1,0.3-2.1c-0.2-0.9-0.5-1.8-0.6-2.7
		c-0.3-1.7-0.2-3.4-0.5-5.1c-0.1-0.3-0.5-0.3-0.6,0c-0.7,2.1-0.6,4.7-0.4,6.8c0.2,1.4,0.3,3.6,1.4,4.6c0.3,0.3,0.9,0.4,1.3,0.2
		c0.1,0,0.1-0.1,0.2-0.1c0.5-0.3,0.6-0.9,0.3-1.3C922.1,947.6,922,947.5,922,947.5z"/>
	<path opacity="0.5" fill="#9F592A" d="M941.1,876.1c-2.9,2.9-4.6,6.8-6.2,10.6c-2.2,5.2-4.3,10.6-5.3,16.2
		c-0.1,0.6,0.7,1.1,1.1,0.5c4.3-8.6,5.6-18.7,11.2-26.6C942.4,876.3,941.6,875.7,941.1,876.1z"/>
	<path opacity="0.5" fill="#9F592A" d="M922.5,899.6c-2.6,4.3-3.7,9.5-4.3,14.4c-0.8,6.5,0.9,11.7,1.4,18c0.1,0.9,1.4,0.7,1.2-0.2
		c-1.2-4.8-0.2-11.1,0.3-16c0.5-5.3,2-10.4,2.8-15.6C924,899.4,923,898.9,922.5,899.6z"/>
	<path opacity="0.5" fill="#9F592A" d="M931.2,880.1c0.3-0.5,3.6-5.3,4.7-5.1c0.7,0.1,1.4-0.7,0.7-1.3c-0.1-0.1-0.2-0.2-0.3-0.3
		c-0.3-0.3-0.7-0.3-1-0.1c-3.3,1.6-6.1,6.3-7.8,9.5c-2.4,4.4-3.8,8.9-5.3,13.6c-0.2,0.5,0.6,0.7,0.8,0.2c1.6-3.9,3.4-7.9,5.4-11.7
		C929.1,883.3,930.1,881.7,931.2,880.1z"/>
	<path opacity="0.5" fill="#9F592A" d="M910.1,917c0.8-16.3,9.2-32.5,19.6-44.8c0.6-0.7-0.4-1.8-1.1-1.1
		c-10.9,12.1-20.5,29-19.1,45.8C909.5,917.4,910,917.4,910.1,917z"/>
	<path opacity="0.5" fill="#9F592A" d="M910.5,891.5c1.5-3,3-5.9,4.8-8.8c1.3-2.1,3.4-4.5,4.2-6.9c0.1-0.4-0.3-0.9-0.8-0.8
		c-2.4,0.9-3.6,4.1-4.7,6.2c-1.6,3.2-3,6.5-4.2,9.9C909.6,891.6,910.3,891.8,910.5,891.5z"/>
	<path opacity="0.5" fill="#9F592A" d="M907.1,888.7c-2.7,6-4.6,14.2-4.5,20.8c0,0.4,0.6,0.5,0.7,0.1c1.1-3.3,1.5-6.8,2.5-10.2
		c0.9-3.4,2.1-6.7,2.9-10.1C908.8,888.5,907.5,887.8,907.1,888.7z"/>
	<path opacity="0.5" fill="#9F592A" d="M912.5,865.5c-1.1,5.2-3.2,10.3-3.5,15.6c0,0.6,0.7,0.6,1,0.3c3.4-4.5,2.9-10.5,2.8-15.9
		C912.8,865.4,912.5,865.4,912.5,865.5z"/>
	<path opacity="0.5" fill="#9F592A" d="M913.2,921.3c-0.1-0.5-0.7-0.3-0.8,0.1c-0.7,5.4-0.9,13.4,1.7,18.4c0.2,0.3,0.7,0.3,0.8-0.1
		c0.4-3-0.4-6.1-0.7-9.2C914,927.4,913.7,924.3,913.2,921.3z"/>
	<path opacity="0.5" fill="#9F592A" d="M907.5,925.9C907.5,925.8,907.5,925.8,907.5,925.9c-1.5,6.4-1,15.7,1.9,21.6
		c0.2,0.4,0.9,0.2,0.9-0.2c0-3.8-1.2-7.6-1.6-11.4C908.3,932.5,908.2,929.2,907.5,925.9z"/>
	<path opacity="0.5" fill="#9F592A" d="M902.2,928.1c-0.4,4.1-1.2,9.1,0.2,13.2c0.2,0.7,1.1,0.5,1.2-0.2c0.4-4.2-0.7-8.8-0.9-13
		C902.6,927.8,902.2,927.8,902.2,928.1z"/>
	<path opacity="0.5" fill="#9F592A" d="M894,927.5c-0.1-0.3-0.6-0.3-0.6,0c-0.7,5.2-0.6,11.5,2.1,16.2c0.7,1.3,2.6,0.1,1.9-1.1
		C895,937.7,895.2,932.7,894,927.5z"/>
	<path opacity="0.5" fill="#9F592A" d="M888.1,938.6c-0.4-1.7-0.4-3.6-1.5-5c-0.2-0.2-0.5-0.2-0.5,0.1c0.1,4-0.2,8.4,2.1,11.9
		c0.6,0.9,2,0.3,1.7-0.7C889.5,942.8,888.6,940.7,888.1,938.6z"/>
	<path opacity="0.5" fill="#9F592A" d="M899.4,912c-1.2,2.8-3.1,6.1-3,9.2c0,0.6,1,1,1.3,0.4c1.3-2.8,1.4-6.4,2.2-9.3
		C900.1,911.9,899.6,911.7,899.4,912z"/>
	<path opacity="0.5" fill="#9F592A" d="M894.7,907.5c-2.2,4.4-5.5,11.4-3.3,16.3c0.1,0.3,0.7,0.2,0.8-0.1c0.6-2.6,0.3-5.3,0.9-8
		c0.6-2.7,1.4-5.3,2.1-8C895.2,907.4,894.8,907.2,894.7,907.5z"/>
	<path opacity="0.5" fill="#9F592A" d="M889.6,906.4c-1.3,6.2-2.6,12.7-2.1,19.1c0.1,1.6,2.6,1.5,2.4,0c-0.8-6.5-0.4-12.6,0.4-19
		C890.4,906.1,889.7,906,889.6,906.4z"/>
	<path opacity="0.5" fill="#9F592A" d="M903.8,880.5c-0.1-0.5-0.8-0.7-1-0.1c-1.8,6.6-3.6,14-4.4,20.9c-0.1,0.7-0.1,1.1-0.2,1.9
		c-0.1,1.2,1.7,1.2,1.8,0C900.9,895.7,904.5,888,903.8,880.5z"/>
	<path opacity="0.5" fill="#9F592A" d="M892.5,901.8c2.7-7.7,4.9-17.9,4.2-26.1c0-0.3-0.4-0.3-0.5-0.1c-2.6,8.1-4.1,17.3-5.6,25.7
		C890.3,902.5,892,903,892.5,901.8z"/>
	<path opacity="0.5" fill="#9F592A" d="M888.5,872.4c-0.1,7.9-1.1,15.8-1.4,23.6c0,1.3,1.9,1.2,2,0c0.9-8,0.5-15.7,0.3-23.6
		C889.5,871.8,888.6,871.8,888.5,872.4z"/>
	<path opacity="0.5" fill="#9F592A" d="M903,855.3c-1,6.4-0.3,14.8,1.5,21c0.2,0.7,1.3,0.6,1.3-0.2c0.2-6.4-0.8-14.7-2.5-20.8
		C903.2,855.2,903,855.2,903,855.3z"/>
	<path opacity="0.5" fill="#9F592A" d="M891.9,841.8c1.5,9.7,2.3,19.6,5,29c0.4,1.5,2.6,0.8,2.3-0.6c-1.8-9.6-4.9-19-6.7-28.6
		C892.5,841.2,891.9,841.4,891.9,841.8z"/>
	<path opacity="0.5" fill="#9F592A" d="M877.4,826c0-0.4-0.6-0.5-0.7-0.1c-2.4,12.5,0.4,26.3,5.9,37.6c0.4,0.7,1.4,0.1,1.1-0.6
		C878.1,850.9,876.8,839.1,877.4,826z"/>
	<path opacity="0.5" fill="#9F592A" d="M879.9,865c-0.2-0.4-0.8-0.2-0.8,0.2c-0.1,5.2-1.9,11.7,1.5,16.3c0.3,0.5,1,0.3,1.1-0.3
		c0.2-3.1-0.6-6.3-0.6-9.4C881.1,869.4,881.3,867.1,879.9,865z"/>
	<path opacity="0.5" fill="#9F592A" d="M880.9,888.8c-1.4,7-3,15-1.5,22.1c0.1,0.6,1.1,0.6,1.2,0c1-7.2,0.3-14.7,0.9-22
		C881.6,888.5,881,888.5,880.9,888.8z"/>
	<path opacity="0.5" fill="#9F592A" d="M881.1,924c-0.4-4.2-0.8-8.3-1.5-12.4c-0.1-0.5-0.8-0.4-0.9,0.1c-0.2,5.7,0.3,11.3,0.9,17
		c0.4,3.8,0.3,8.2,2.1,11.6c0.6,1.1,2.1,0.1,1.6-0.9C881.4,935.1,881.6,928.8,881.1,924z"/>
	<path opacity="0.5" fill="#9F592A" d="M874,917.8c-0.1-0.4-0.6-0.3-0.7,0.1c-0.2,4.2,0.6,8.5,1.3,12.6c0.7,3.9,1.1,8.4,3.2,11.9
		c0.5,0.8,1.5,0.1,1.2-0.7C875.7,934.3,875.7,925.7,874,917.8z"/>
	<path opacity="0.5" fill="#9F592A" d="M874.6,941.3c-2.1-3.7-3.1-7.8-4.1-12c-0.1-0.4-0.9-0.4-0.8,0.1c0.5,4.7,1.4,9.3,3.7,13.5
		c0.4,0.7,1.8,0.5,1.7-0.5c0-0.2,0-0.3-0.1-0.5C875,941.7,874.8,941.5,874.6,941.3z"/>
	<path opacity="0.5" fill="#9F592A" d="M869.7,918.3c-1-3.5-0.3-7.5-0.5-11.1c0-0.4-0.7-0.6-0.8-0.1c-0.3,2-0.3,4-0.3,5.9
		c-0.1,1.9-0.3,3.8,0.3,5.6C868.7,919.5,869.9,919.1,869.7,918.3z"/>
	<path opacity="0.5" fill="#9F592A" d="M865.6,916.9c0-0.2-0.3-0.3-0.4-0.1c-1,3.3-0.7,8.8,1,11.8c0.2,0.3,0.7,0.2,0.6-0.2
		c-0.1-1.9-0.8-3.8-1-5.7C865.7,920.8,865.8,918.8,865.6,916.9z"/>
	<path opacity="0.5" fill="#9F592A" d="M862.4,920c-0.1-0.5-0.8-0.3-0.8,0.1c-0.3,3,0.3,6.1,1,9c0.5,2.3,1.1,4.5,2.5,6.3
		c0.1,0.2,0.2,0.4,0.5,0.5c0,0,0,0,0.1,0c0.6,0.2,1.4-0.6,0.9-1.2C863.5,930.6,863.1,924.9,862.4,920z"/>
	<path opacity="0.5" fill="#9F592A" d="M873.8,881.9c-0.8-3.4-2-6.7-2.6-10.2s-0.9-7-1.6-10.4c-0.1-0.6-1-0.4-1.1,0.1
		c-0.4,6.7,0.2,15.3,3.7,21.2C872.7,883.4,874,882.8,873.8,881.9z"/>
	<path opacity="0.5" fill="#9F592A" d="M872.8,885.9c0-0.2-0.2-0.2-0.3,0c-2.6,7.2-2.6,17.5-0.2,24.8c0.2,0.7,1.2,0.5,1.2-0.2
		c0.2-4.1-0.4-8.2-0.4-12.3C873,894.1,873.3,889.9,872.8,885.9z"/>
	<path opacity="0.5" fill="#9F592A" d="M865.9,907.7c0.4-9.3,0-19.5-1.3-28.8c0-0.2-0.3-0.2-0.3,0c-1.8,9.2-1.4,19.8,0.7,28.9
		C865.1,908.4,865.9,908.3,865.9,907.7z"/>
	<path opacity="0.5" fill="#9F592A" d="M854,879c-0.6,10.8,3.1,21.5,5.1,32c0.1,0.4,0.7,0.3,0.6-0.1c-1.1-10.6-0.7-21.9-4.4-32.1
		C855,878.1,854,878.2,854,879z"/>
	<path opacity="0.5" fill="#9F592A" d="M852.3,899c-0.6-7.4-1.8-14.8-2.5-22.2c0-0.2-0.3-0.3-0.4-0.1c-1.6,7.4-1.3,15.6,1.8,22.6
		C851.5,899.8,852.4,899.5,852.3,899z"/>
	<path opacity="0.5" fill="#9F592A" d="M859.1,926.9c-1.2-7.1-2.7-15.1-5.2-21.8c0-0.1-0.1-0.1-0.2-0.1l0,0
		c-0.1-0.2-0.4,0.1-0.2,0.2l0,0c-0.3,7.2,1.6,15.5,4,22.2C857.9,928.4,859.3,928,859.1,926.9z"/>
	<path opacity="0.5" fill="#9F592A" d="M861.5,935.4c-0.9-1.9-1.4-4.1-2.4-5.9c-0.1-0.1-0.3-0.1-0.3,0c-0.6,4.2,2,9.2,3.9,12.8l0,0
		c0.6,1.1,2.6,0.3,1.9-1.1C863.6,939.3,862.5,937.4,861.5,935.4z"/>
	<path opacity="0.5" fill="#9F592A" d="M863,874c-0.2-2.6-1.2-5.2-1.8-7.7c-0.6-2.9-0.7-5.8-1.2-8.6c-0.1-0.4-0.6-0.3-0.7,0
		c-1.6,4.8-0.1,12.5,2.3,16.7C862,875,863,874.7,863,874z"/>
	<path opacity="0.5" fill="#9F592A" d="M855.7,873.6c-2.9-4.8-3.6-11.7-3.4-17.1c0-0.4-0.6-0.5-0.7-0.1c-1.2,5.5-0.3,13.2,2.1,18.4
		C854.3,876.2,856.5,874.9,855.7,873.6z"/>
	<path opacity="0.5" fill="#9F592A" d="M847.2,874.1c-2.7-5.9-4.9-11.6-4.5-18.2c0-0.4-0.7-0.5-0.8-0.1c-1.1,6.7-0.8,13.8,3.1,19.6
		C845.9,876.8,847.8,875.6,847.2,874.1z"/>
	<path opacity="0.5" fill="#9F592A" d="M842.6,878.8c-1.1,7.1-0.1,15.5,3.1,22.1c0.5,1.1,2.3,0.3,2-0.8c-2.1-7.1-3.7-13.7-4.4-21.2
		C843.1,878.6,842.6,878.4,842.6,878.8z"/>
	<path opacity="0.5" fill="#9F592A" d="M846.6,904.4c-0.1,3.7,1.1,7,1.7,10.7c0.6,3.6,1.3,7,3,10.3c0.2,0.4,0.9,0.1,0.8-0.3
		c-0.9-3.4-2.2-6.7-2.8-10.2c-0.6-3.6-0.4-7.1-1.2-10.6C847.8,903.4,846.6,903.6,846.6,904.4z"/>
	<path opacity="0.5" fill="#9F592A" d="M850.5,926.4c-0.1-0.3-0.5-0.2-0.5,0.1c0.1,5.3,0.5,12,3.9,16.3c0.5,0.6,1.3-0.1,1.2-0.7
		c-0.4-2.6-1.6-5.2-2.2-7.8C852.1,931.6,851.4,929,850.5,926.4z"/>
	<path opacity="0.5" fill="#9F592A" d="M844.4,921.9c-0.2-0.8-1.3-0.4-1.2,0.3c1.1,7,2,15.2,6.4,21c0.4,0.6,1.6,0.3,1.3-0.5
		C848.3,935.8,846,929.2,844.4,921.9z"/>
	<path opacity="0.5" fill="#9F592A" d="M840.3,906.1c-0.1-0.5-1-0.4-1,0.1c0.2,2.5,0.6,4.9,0.8,7.4c0.2,1.6,0.2,3.3,1.3,4.5
		c0.5,0.5,1.2,0.1,1.3-0.5c0.2-1.6-0.7-3.4-1.1-5C841.2,910.5,840.9,908.3,840.3,906.1z"/>
	<path opacity="0.5" fill="#9F592A" d="M838.8,920c-1.6-3.4-3.6-6.4-4.5-10.1c-0.6-2.4-0.6-5.1-2.1-7.1c-0.1-0.1-0.3,0-0.3,0.1
		c0.5,5.9,1.6,13.3,5.2,18.1C837.9,922.1,839.4,921.2,838.8,920z"/>
	<path opacity="0.5" fill="#9F592A" d="M837.9,929.8c-1.1-2.9-2.1-5.9-3.4-8.8c-0.2-0.4-0.9-0.2-0.9,0.2c0.4,6.3,3.3,13.8,7.1,18.8
		c0.5,0.6,1.7,0.3,1.4-0.6C840.8,936.2,839.1,933.1,837.9,929.8z"/>
	<path opacity="0.5" fill="#9F592A" d="M837,900.6c-2-7.6-3.5-15.5-3-23.4c0-0.7-1-0.7-1.1,0c-0.7,8.2-0.3,15.9,2.6,23.8
		C835.9,901.9,837.3,901.6,837,900.6z"/>
	<path opacity="0.5" fill="#9F592A" d="M840.5,869.9c-1.1-2.8-2.5-5.4-3.5-8.2c-0.8-2.5-1.2-5.3-2.5-7.5c-0.2-0.3-0.6-0.2-0.7,0.1
		c-1.1,5,2.4,12.3,5.2,16.3C839.5,871.2,840.8,870.8,840.5,869.9z"/>
	<path opacity="0.5" fill="#9F592A" d="M830.4,870.5c0.3-2.8-1.2-5.5-1.9-8.2c-0.9-3.1-1.1-6.3-1.7-9.4c-0.1-0.7-1.2-0.5-1.3,0.2
		c-0.3,6,1.3,12.3,3.7,17.8C829.5,871.4,830.3,871,830.4,870.5z"/>
	<path opacity="0.5" fill="#9F592A" d="M827.2,872.5c-1,5.8-1.8,12.1-0.5,17.9c0.2,0.9,1.4,0.6,1.5-0.2c0.5-5.8-0.3-11.8-0.2-17.6
		C828.1,872.2,827.3,872,827.2,872.5z"/>
	<path opacity="0.5" fill="#9F592A" d="M830.4,923.2c-0.7-4.8-2-9.5-3.1-14.2c-1-4.7-1.6-9.6-3-14.2c-0.1-0.4-0.8-0.4-0.8,0.1
		c0,9.2,2.3,20,5.5,28.6C829.4,924.5,830.6,924.1,830.4,923.2z"/>
	<path opacity="0.5" fill="#9F592A" d="M827.8,927.6c-1-2.4-1.8-4.8-2.6-7.3c-0.1-0.4-0.8-0.3-0.7,0.2c1.4,4.7,2.6,10.5,5.3,14.6
		c0.3,0.5,1.1,0.2,1-0.4C830.1,932.2,828.8,929.9,827.8,927.6z"/>
	<path opacity="0.5" fill="#9F592A" d="M816.8,896c-0.1,3.6,0.4,7.4,0.9,11c0.4,3,0.7,6.2,2.2,8.8c0.4,0.7,1.4,0.2,1.2-0.5
		c-1.6-6.4-1.8-13.1-3.8-19.4C817.3,895.6,816.8,895.7,816.8,896z"/>
	<path opacity="0.5" fill="#9F592A" d="M816.5,918c-0.1-0.3-0.6-0.2-0.5,0.1c1,4.4,2.3,8.8,4.4,12.9c0.4,0.7,1.5,0.2,1.3-0.5
		C820.2,926.3,818.2,922.2,816.5,918z"/>
	<path opacity="0.5" fill="#9F592A" d="M820.6,869.8c-1.5,6.9-4.9,17.3-0.6,23.7c0.3,0.4,0.9,0.3,1-0.3c0.3-3.6-0.6-7.1-0.5-10.8
		c0.1-4.2,0.5-8.3,1.1-12.4C821.6,869.4,820.7,869.2,820.6,869.8z"/>
	<path opacity="0.5" fill="#9F592A" d="M811.2,866.7c-0.4,8.5-0.3,17.1,0.8,25.6c0.1,1.2,2,1.2,1.8,0c-0.8-8.5-1.5-17-1.8-25.6
		C811.9,866.2,811.2,866.2,811.2,866.7z"/>
	<path opacity="0.5" fill="#9F592A" d="M808.5,890.5c0.3-2.7-0.6-5.4-1.3-8.1c-0.8-3.4-1.4-6.7-1.3-10.2c0-0.4-0.6-0.4-0.6,0
		c-0.2,2.9-0.3,5.8,0.1,8.7c0.4,3.2,0.5,6.7,1.6,9.7C807.3,891.6,808.4,891.4,808.5,890.5z"/>
	<path opacity="0.5" fill="#9F592A" d="M812.8,913.1c-0.5-2.9-1.5-5.7-2.2-8.6c-0.7-2.8-1-5.8-1.8-8.6c-0.1-0.4-0.6-0.3-0.6,0.1
		c-0.4,5.6,0.7,12.7,3.2,17.7C811.8,914.5,812.9,913.9,812.8,913.1z"/>
	<path opacity="0.5" fill="#9F592A" d="M811.9,923c-1-2.4-1.5-5-2.6-7.4c-0.1-0.2-0.5-0.1-0.5,0.1c0.1,2.6,0.9,5.3,1.5,7.8
		c0.6,2.6,1.4,5.3,2.8,7.6c0.5,0.9,1.9,0.3,1.7-0.7C814.1,927.9,812.9,925.4,811.9,923z"/>
	<path opacity="0.5" fill="#9F592A" d="M805.4,914.4c-0.4-3.2-2-6.2-2.8-9.4c-1.1-4.1-1.5-8.3-1.7-12.5c0-0.5-0.7-0.5-0.7,0
		c-0.6,6.7-0.2,16.9,4.2,22.3C804.6,915.2,805.4,914.9,805.4,914.4z"/>
	<path opacity="0.5" fill="#9F592A" d="M804.7,921.3c-1.2-2.4-2.3-4.9-3.1-7.4c-0.2-0.6-1.1-0.4-1,0.3c0.7,2.8,1.4,5.4,2.6,8
		c0.8,1.8,1,4.2,2.6,5.5c0.9,0.7,1.9-0.4,1.2-1.2C805.8,925,805.5,922.9,804.7,921.3z"/>
	<path opacity="0.5" fill="#9F592A" d="M792.1,900.9c-0.1-0.5-0.9-0.4-0.9,0.1c1,8.5,3.7,16.7,6.9,24.6c0.4,0.9,1.8,0.6,1.5-0.4
		C796.9,917.1,793.9,909.3,792.1,900.9z"/>
	<path opacity="0.5" fill="#9F592A" d="M798,865c0-0.4-0.6-0.5-0.7-0.1c-1.2,7.4-0.2,15.6,0.9,23c0.2,1.2,2,0.7,1.8-0.5
		C798.8,879.9,798.8,872.5,798,865z"/>
	<path opacity="0.5" fill="#9F592A" d="M820.4,851c-0.1-0.4-0.8-0.4-0.9,0c-0.4,2.3-0.5,4.6-0.3,6.9c0.1,2,0.2,4.4,1.3,6.1
		c0.3,0.5,1.3,0.5,1.4-0.2c0.4-1.9-0.2-3.8-0.5-5.8C821.1,855.7,820.8,853.3,820.4,851z"/>
	<path opacity="0.5" fill="#9F592A" d="M817.4,864c-0.6-4.8-1.6-9.2-1.6-14.1c0-0.5-0.8-0.6-0.9-0.1c-0.7,4.6-0.9,10,0.7,14.5
		C815.9,865.1,817.6,865.1,817.4,864z"/>
	<path opacity="0.5" fill="#9F592A" d="M810.8,864.3c0.4,0,0.9-0.3,1-0.7v-0.1c0.1-0.4-0.1-0.9-0.4-1.1c-1.1-1.7-1-4.9-1.4-6.7
		c-0.5-2.6-0.8-5.2-1.4-7.7c-0.1-0.4-0.6-0.3-0.6,0.1c0,4.1,0.1,8.4,0.6,12.5C808.8,861.9,809,864.2,810.8,864.3z"/>
	<path opacity="0.5" fill="#9F592A" d="M804.1,862.8c0-0.8-0.1-1-0.3-1.6c-1.1-5.3-0.5-10.8-1.3-16.1c-0.1-0.4-0.6-0.3-0.7,0.1
		c-0.5,6-1.3,12,0.1,17.9C802.3,864.2,804.2,864,804.1,862.8z"/>
	<path opacity="0.5" fill="#9F592A" d="M798.6,861.2c-1-6.5-1.3-12.9-1.6-19.4c0-0.4-0.7-0.6-0.8-0.1c-1,6.6-0.7,13.5,0.2,20.1
		C796.6,863.2,799.1,862.6,798.6,861.2z"/>
	<path opacity="0.5" fill="#9F592A" d="M790.3,852.7c0-0.2,0.1-0.4,0.1-0.6c0-0.2,0-0.3-0.1-0.4c-0.2-5,0-9.9,0.4-14.9
		c0-0.6-0.9-0.7-1-0.1c-0.7,5.3-1,10.5-0.9,15.8C788.8,853.3,790.2,853.5,790.3,852.7z"/>
	<path opacity="0.5" fill="#9F592A" d="M785.6,850.6c-0.4-5.9,0.5-11.4,1-17.2c0-0.3-0.4-0.4-0.5-0.1c-2.4,5.4-2.7,11.5-2.7,17.4
		C783.4,852,785.7,852,785.6,850.6z"/>
	<path opacity="0.5" fill="#9F592A" d="M779.6,850.3c-0.5-6.5-0.6-13-0.2-19.6c0-0.3-0.5-0.4-0.5-0.1c-1.2,6.5-1.7,13-1.4,19.6
		C777.3,851.7,779.7,851.8,779.6,850.3z"/>
	<path opacity="0.5" fill="#9F592A" d="M794.3,893.1c-1.9-5.9-3.4-11.7-4.1-18c-0.5-5-0.5-10.2-1.8-15.1c-0.1-0.3-0.6-0.3-0.6,0.1
		c0.3,11.5,0.3,22.6,4.7,33.5C793,894.7,794.7,894.2,794.3,893.1z"/>
	<path opacity="0.5" fill="#9F592A" d="M785.4,883.9c-0.1,2.2,1.1,4.6,1.7,6.7c0.4,1.6,0.6,3.5,1.9,4.6c0.4,0.3,0.9-0.1,0.9-0.5
		c0-1.8-1.3-3.9-1.9-5.6c-0.7-1.8-1.1-3.9-2.3-5.3C785.7,883.6,785.5,883.8,785.4,883.9z"/>
	<path opacity="0.5" fill="#9F592A" d="M781.5,876c0.4,1.2,2.2,0.7,1.9-0.5c-1.5-7.1-2.8-13.7-2.3-21.1c0-0.5-0.9-0.7-1-0.1
		C779.1,861.3,779,869.2,781.5,876z"/>
	<path opacity="0.5" fill="#9F592A" d="M777.7,876.3c-0.9-4-1.9-7.9-2.3-12.1c-0.4-3.6-0.1-7.3-0.5-10.9c0-0.3-0.4-0.3-0.5-0.1
		c-2.4,7.2-1.3,16.5,1.1,23.6C775.9,878.4,778,877.8,777.7,876.3z"/>
	<path opacity="0.5" fill="#9F592A" d="M784.1,901.2C784.1,901.1,784.1,901.1,784.1,901.2c0.2-0.2,0.4-0.4,0.5-0.7
		c0.4-2.3-0.7-4.7-1.1-7c-0.7-3.9-1.4-7.9-1.6-11.8c0-0.6-0.8-0.6-0.9,0c-0.3,3.9-0.4,7.7,0,11.6c0.3,2.3,0.2,6,2,7.6
		c0.1,0.1,0.2,0.2,0.4,0.2v0.1c0.3,8.1,1.6,17.1,5.8,24.1c0.6,0.9,2.2,0.3,1.8-0.8C788.2,916.7,785.1,909.7,784.1,901.2z"/>
	<path opacity="0.5" fill="#9F592A" d="M776.2,900c-0.1-0.3-0.6-0.3-0.6,0.1c0,2.5,0.4,5.1,0.9,7.6c0.2,1.3,0.5,2.7,0.8,4
		c0.3,1.4,1.2,3.1,1.3,4.6c0.1,1.2,1.8,1.5,2.1,0.3c0.6-2-1.4-5.2-2-7C777.8,906.4,777.2,903.2,776.2,900z"/>
	<path opacity="0.5" fill="#9F592A" d="M775.9,881.2c0-0.4-0.6-0.5-0.8-0.1c-0.8,2.8-0.7,6-0.6,8.9c0,2.1,0.2,4.6,1.6,6.3
		c0.3,0.4,1.1,0.2,1.2-0.3c0.4-2.1-0.8-4.2-1-6.4C776.1,886.8,776.2,884,775.9,881.2z"/>
	<path opacity="0.5" fill="#9F592A" d="M771.3,893.5L771.3,893.5c-1.8-7.5-2.3-14.7-2.7-22.3c0-0.3-0.5-0.4-0.6-0.1
		c-1.4,7.5-0.7,15.6,1,23C769.3,895.7,771.6,895,771.3,893.5z"/>
	<path opacity="0.5" fill="#9F592A" d="M772.1,906.9c-1.4-3.6-1.7-7.3-2.7-11.1c-0.1-0.6-1.1-0.5-1.1,0.1c0.1,3.4,0.4,7,1.3,10.2
		c1,3.4,2.5,6.5,3.5,9.9c0.1,0.3,0.1,0.5,0.3,1c0.5,1.5,2.9,0.9,2.4-0.7C775,913,773.4,910.1,772.1,906.9z"/>
	<path opacity="0.5" fill="#9F592A" d="M758.9,902.3c-0.1-0.5-0.9-0.4-0.9,0.1c0.4,4,1.7,7.7,3.9,11c0.8,1.2,2.7,0,1.9-1.1
		C761.5,909.3,759.9,905.9,758.9,902.3z"/>
	<path opacity="0.5" fill="#9F592A" d="M762.6,872.6c0-0.4-0.6-0.5-0.7-0.1c-1.4,8.7-1.9,19.7,0.7,28.2c0.3,0.9,1.7,0.8,1.7-0.2
		c-0.1-4.7-1.2-9.3-1.5-13.9C762.5,882,762.7,877.3,762.6,872.6z"/>
	<path opacity="0.5" fill="#9F592A" d="M758.8,891.9c-2.2-6.8-3.2-13.2-4.4-20.3c-0.1-0.5-0.9-0.4-0.9,0.1c-0.5,6.7,1,14.7,3,21.1
		C757.1,894.7,759.5,893.1,758.8,891.9z"/>
	<path opacity="0.5" fill="#9F592A" d="M749.9,885.7c-0.1-0.6-1.1-0.5-1.1,0.1c0.2,5.7,1.1,11.6,4.5,16.3l0,0c0.7,1.3,2.9,0,1.7-1.3
		C751.5,896.6,750.9,891,749.9,885.7z"/>
	<path opacity="0.5" fill="#9F592A" d="M742.7,887.5c-0.1-0.3-0.5-0.2-0.6,0.1c-0.4,1.8-0.1,3.7,0.2,5.5c0.3,1.7,0.6,3.7,1.9,4.9
		c1.2,1.1,2.3-0.7,1.6-1.5C744.4,893.6,744,890.4,742.7,887.5z"/>
	<path opacity="0.5" fill="#9F592A" d="M737.3,886c-0.6-2.6-0.6-5.3-1.4-7.8c-0.1-0.3-0.5-0.3-0.6,0c-1.9,5.4,0.6,12.5,3.1,17.3
		c0.7,1.3,2.8,0,2-1.1C739.1,891.6,738,888.9,737.3,886z"/>
	<path opacity="0.5" fill="#9F592A" d="M745.6,880c-0.3-1.6-0.6-3.2-1-4.8c-0.6-3-1.1-5.9-1.6-8.9c-0.1-0.4-0.8-0.3-0.8,0.1
		c0.1,3.7,0.3,7.5,0.8,11.2c0.3,2.3,0.2,5.9,1.4,7.8c0.5,0.8,1.5,0.7,2,0c0,0,0-0.1,0.1-0.1c0.3-0.4,0.1-0.9-0.2-1.2
		C745.8,883.4,745.8,880.9,745.6,880z"/>
	<path opacity="0.5" fill="#9F592A" d="M746.7,855.1c0-0.2-0.4-0.2-0.5,0c-0.4,2.4-0.5,4.8-0.5,7.2s-0.3,5.1,0.6,7.4
		c0.3,0.7,1.6,1,1.7,0c0.3-2.3-0.3-4.6-0.5-6.9C747.2,860.1,747.1,857.6,746.7,855.1z"/>
	<path opacity="0.5" fill="#9F592A" d="M751.1,844.5c-0.2,3.3-0.6,6.6-0.9,10c-0.2,2.2-1.1,5.4,0.3,7.3c0.6,0.9,1.9,0.5,2-0.5
		c0.6-5.5-0.3-11.2-0.3-16.7C752.3,843.8,751.2,843.8,751.1,844.5z"/>
	<path opacity="0.5" fill="#9F592A" d="M759.5,865c0.4-0.5,0.6-0.8,0.5-1.5c0-0.2-0.1-0.4-0.2-0.5c-0.2-6.8,0.4-13.5,0.2-20.2
		c0-0.4-0.6-0.5-0.7-0.1c-1.9,6.6-1.9,14.5-2,21.3C757.4,865.1,758.7,865.8,759.5,865z"/>
	<path opacity="0.5" fill="#9F592A" d="M768,864.2c-0.1-3.6,0.1-7.8-0.8-11.3c-0.2-0.7-1.2-0.7-1.4,0c-1,3.4-0.7,7.7-0.5,11.2
		C765.2,865.6,768,866.1,768,864.2z"/>
	<path opacity="0.5" fill="#9F592A" d="M765.5,845.8c1.7-2.4,2-5.3,2.7-8.1c0.9-3.3,1.9-6.4,3.2-9.6c0.2-0.5-0.7-0.8-0.9-0.2
		c-1.1,2.7-2.2,5.5-3.2,8.2c-1,2.8-1.7,6.1-3.4,8.6C763.2,845.6,764.7,847,765.5,845.8z"/>
	<path opacity="0.5" fill="#9F592A" d="M771,844.4c0.2-0.3,0.3-0.5,0.3-0.8c1.7-4.4,3.7-8.7,5-13.3c0.2-0.7-0.8-0.9-1-0.3
		c-1.1,2.7-2.7,5.1-3.8,7.8c-0.8,1.9-2,4.1-2.2,6.1C769.2,844.8,770.6,845.2,771,844.4z"/>
	<path opacity="0.5" fill="#9F592A" d="M760.8,838.8c1.3-1.2,1.7-3.3,2.3-5c0.7-2.2,1.2-4.6,2.3-6.7c0.3-0.5-0.4-0.9-0.7-0.4
		c-1.3,1.7-2.2,3.6-3,5.6c-0.7,1.9-1.9,4-2.2,6C759.3,838.9,760.3,839.2,760.8,838.8z"/>
	<path opacity="0.5" fill="#9F592A" d="M754.4,838.9c0-0.1,0.1-0.1,0.1-0.2c0.2-0.2,0.2-0.5,0.2-0.7c1.1-2.8,2-5.7,2.8-8.7
		c0.5-2.2,1.4-4.6,1.1-6.9c0-0.3-0.5-0.3-0.6,0c-1.3,5.2-3.5,10.3-5.9,15.1C751.4,839.1,753.5,840.3,754.4,838.9z"/>
	<path opacity="0.5" fill="#9F592A" d="M751.1,841.5c1.7-6.7,3.3-14.1,2.5-21c-0.1-0.7-1.1-1-1.3-0.2c-1.6,6.4-2.2,13-3.7,19.5
		l-0.1,0.1c-0.4,0.7-0.4,1.2,0,1.9C749.1,842.9,750.8,842.7,751.1,841.5z"/>
	<path opacity="0.5" fill="#9F592A" d="M742.4,853.7c0.1-4.3,0.8-9.2,0.2-13.4c0-0.2-0.3-0.4-0.5-0.5c-0.1,0-0.2-0.1-0.4-0.1
		c-0.3-0.1-0.7,0.3-0.6,0.6c0.7,1.7-0.2,4.8-0.4,6.5c-0.1,1.9-0.3,3.8-0.4,5.6c0,0.1,0,0.2-0.1,0.3c0,0.3,0,0.7,0,1
		C740.1,855.1,742.3,855.1,742.4,853.7z"/>
	<path opacity="0.5" fill="#9F592A" d="M737.1,858.8c-0.1-0.4-0.7-0.3-0.7,0.1c-0.3,4.3,0.9,8.7,1.7,12.9c0.1,0.7,1.3,1,1.7,0.5
		c0-0.1,0.1-0.1,0.1-0.2c0.4-0.5,0.3-1.1-0.1-1.5C738.6,866.7,738.2,862.7,737.1,858.8z"/>
	<path opacity="0.5" fill="#9F592A" d="M731.4,863.1c0.5,3.4,0.9,6.9,0.9,10.4c-0.2,0.3-0.2,0.7,0.1,1c0.1,0.1,0.1,0.2,0.2,0.3
		c0.5,0.6,1.4,0.1,1.4-0.6c-0.1-3.8-0.5-7.6-1.5-11.4C732.3,862.1,731.2,862.4,731.4,863.1z"/>
	<path opacity="0.5" fill="#9F592A" d="M729.8,878.4c-0.1-0.3-0.4-0.2-0.5,0c-0.6,2.1-0.5,4.3-0.2,6.5c0,0.4,0.1,0.7,0.2,1.1
		c0,0.2,0.1,0.4,0.1,0.6c0.2,1,1.8,0.7,1.7-0.2c-0.1-0.6-0.1-1.1-0.3-1.6C730.3,882.7,730.2,880.6,729.8,878.4z"/>
	<path opacity="0.5" fill="#9F592A" d="M723.9,876.2c-0.1-0.7-1-0.7-1,0c-0.1,2.9,0.1,5.6,1,8.4c0.4,1.2,2.2,0.5,1.8-0.5
		C724.9,881.5,724.2,878.9,723.9,876.2z"/>
	<path opacity="0.5" fill="#9F592A" d="M718.5,874.9c-0.1-1.1-0.2-2-0.6-3c-0.2-0.4-0.8-0.4-0.8,0.1c0,1.9-0.8,5.5,1,6.9
		c0.6,0.5,1.4,0,1.3-0.7C719.1,877,718.6,876.1,718.5,874.9z"/>
	<path opacity="0.5" fill="#9F592A" d="M719.1,870.6c-1.3-8.2-3.8-16-3.9-24.5c0-0.5-0.8-0.6-0.8-0.1c-1.2,8,0,17.5,3.1,25
		C717.9,872,719.3,871.7,719.1,870.6z"/>
	<path opacity="0.5" fill="#9F592A" d="M725.2,870.3c-0.1-0.4-0.1-0.6-0.2-0.8c-1.3-4.6-2.3-9.3-2.8-14.1c-0.1-0.8-1.2-0.8-1.2,0
		c0.1,5.3,0.7,10.4,1.9,15.5C723.2,872.4,725.5,871.8,725.2,870.3z"/>
	<path opacity="0.5" fill="#9F592A" d="M729.2,863.2c0.3-1.7,0-3.5-0.2-5.2c-0.3-1.6-0.5-3.2-1.3-4.6c-0.4-0.6-1.3-0.1-0.9,0.6
		c1.3,2.8,0.6,6.4,1.1,9.3C727.9,863.9,729.1,863.9,729.2,863.2z"/>
	<path opacity="0.5" fill="#9F592A" d="M735.4,836c0-0.7-1.1-0.9-1.2-0.2c-1,5.1-1.2,10.9-0.6,16c0.1,0.7,0.9,0.7,1,0
		C735.2,846.8,735.5,841.2,735.4,836z"/>
	<path opacity="0.5" fill="#9F592A" d="M727.9,849.1c1-6.6-1.3-14-2.6-20.4c-0.1-0.6-1-0.3-0.9,0.3c0.8,4.1,0.8,8.2,0.9,12.3
		c0,2.8-0.4,5.6,1,8.1C726.6,850,727.8,849.9,727.9,849.1z"/>
	<path opacity="0.5" fill="#9F592A" d="M746.2,828.9c0.2-1.8,0.1-3.6,0-5.5c-0.1-1.6,0-3.2-0.2-4.8c-0.1-0.4-0.7-0.3-0.7,0.1
		c-0.2,1.8-0.2,3.5-0.5,5.3c-0.3,1.5-0.7,3-0.9,4.6C743.4,830.3,745.9,830.7,746.2,828.9z"/>
	<path opacity="0.5" fill="#9F592A" d="M741.4,830.4c0.6-2.1,0.3-4.4,0.4-6.5c0.2-2.8,0.6-5.5,1.2-8.2c0.2-0.7-0.9-1.1-1.1-0.3
		c-1.2,4.2-3.2,10.6-1.7,15C740.4,831,741.2,831,741.4,830.4z"/>
	<path opacity="0.5" fill="#9F592A" d="M735.9,829.9C735.9,829.9,736,829.9,735.9,829.9c-0.5-3.2,0.8-7,1.2-10.2
		c0.3-2.5,0.6-5.1,0.9-7.6c0.1-0.5-0.7-0.6-0.8-0.1c-1,3.5-1.9,7-2.6,10.6c-0.5,2.6-1.5,5.4-0.9,8C734,832,736.3,831.3,735.9,829.9z
		"/>
	<path opacity="0.5" fill="#9F592A" d="M723.3,848.1c-1.3-6.5-2.8-13-4.3-19.5c-0.1-0.4-0.8-0.3-0.7,0.1c0.8,6.2,1.7,12.5,2.7,18.7
		c-0.1,0.2-0.2,0.4-0.1,0.6c0.1,0.2,0.2,0.4,0.3,0.6C721.7,850,723.6,849.6,723.3,848.1z"/>
	<path opacity="0.5" fill="#9F592A" d="M715.2,838.2c0.2,0.8,1.5,0.6,1.5-0.2c0.1-3.9-1-8-1.4-11.9c0-0.4-0.7-0.4-0.7,0
		C714.7,830.1,714.2,834.3,715.2,838.2z"/>
	<path opacity="0.5" fill="#9F592A" d="M710.4,832.5c0.1,11.5,0.5,22.9,1.5,34.4c0.1,1.3,2.2,1.3,2,0c-1.1-11.4-2.1-22.9-2.7-34.4
		C711.2,832,710.4,831.9,710.4,832.5z"/>
	<path opacity="0.5" fill="#9F592A" d="M706.5,828.3c-3,8.8-2.8,18.3-1.6,27.5c0.2,1.5,2.5,1.2,2.1-0.3c-2-9.2-1.1-17.8,0.3-27
		C707.3,828,706.7,827.8,706.5,828.3z"/>
	<path opacity="0.5" fill="#9F592A" d="M704.9,824.8c0.1-0.6-0.6-0.9-1-0.4c-4.2,6.9-5.4,15.1-4.8,23.1c-0.2,1.9,3.1,1.9,3,0
		C701.5,839.6,703,832.3,704.9,824.8z"/>
	<path opacity="0.5" fill="#9F592A" d="M699.8,818.4c0-0.4-0.7-0.7-0.9-0.2c-1.3,2.8-1.9,6-2.6,9c-0.5,2.3-1.2,4.8-0.7,7.2
		c0.3,1.6,2.7,0.9,2.4-0.7c-0.5-2.2,0.3-4.9,0.6-7.2C699,823.8,699.7,821.1,699.8,818.4z"/>
	<path opacity="0.5" fill="#9F592A" d="M695.8,799.4c2.3-3.7,5.1-7.1,8-10.2c0.9-1-0.3-2.8-1.5-1.9c-3.6,2.6-5.4,7.8-7.2,11.7
		C694.9,799.4,695.5,799.8,695.8,799.4z"/>
	<path opacity="0.5" fill="#9F592A" d="M697,804.3c0,0.4,0.6,0.6,0.8,0.2c2.5-4.4,5-9.6,8.9-13c0.9-0.8-0.4-2.1-1.4-1.4
		c-2.3,1.9-3.7,4.8-5.2,7.3C698.8,799.5,697,801.7,697,804.3z"/>
	<path opacity="0.5" fill="#9F592A" d="M700.8,812.2c1.3-3.2,2.2-6.4,3.6-9.6c1.3-2.8,3.1-5.3,4.7-7.9c0.7-1.1-0.8-2.2-1.7-1.3
		c-4.6,4.5-6.5,12.5-7.3,18.7C699.9,812.6,700.6,812.6,700.8,812.2z"/>
	<path opacity="0.5" fill="#9F592A" d="M707.3,806.4c-1.2,2.9-2.2,6-2.8,9.1c-0.3,1.8,2.2,2.5,2.7,0.7c1.2-3.7,2.1-7.5,3-11.2
		c0.5-2,2.2-5.3,1.5-7.3c-0.1-0.4-0.7-0.2-0.6,0.2C711.4,800.1,708.2,804.3,707.3,806.4z"/>
	<path opacity="0.5" fill="#9F592A" d="M711,818.6c2-6.1,4.2-12.2,6.1-18.3c0.1-0.4-0.4-0.6-0.6-0.3c-3.5,5.3-6.1,11.8-7.7,17.9
		C708.3,819.5,710.5,820.1,711,818.6z"/>
	<path opacity="0.5" fill="#9F592A" d="M716.5,821.4c1.2-6.3,3.5-11.9,5.2-18c0.2-0.6-0.7-0.9-1-0.4c-3.5,5.1-6.4,11.8-6.3,18.2
		C714.4,822.3,716.3,822.7,716.5,821.4z"/>
	<path opacity="0.5" fill="#9F592A" d="M721.6,827.9c0.1,1.4,2.1,1.4,2.2,0c0.2-3.7,0.2-7.3,0.7-10.9c0.4-3.6,1.5-7.1,1.6-10.7
		c0-0.2-0.3-0.3-0.4-0.1C722,812.1,721.2,821,721.6,827.9z"/>
	<path opacity="0.5" fill="#9F592A" d="M729.1,827c1.4-5.4,1.1-11,0.9-16.5c0-0.5-0.8-0.5-0.8,0c-0.4,5.4-1.8,10.8-2.2,16.2
		C727,827.9,728.8,828.2,729.1,827z"/>
	<path opacity="0.5" fill="#9F592A" d="M872.1,821c-1.9,5.7-3.2,12-1.9,17.9c0.1,0.5,0.8,0.4,0.8-0.1c0-10.9,2.7-19.9,7.9-29.5
		c2.3-4.3,5-8.3,8.3-11.9c2-2.1,7.6-8.2,11.8-8.3c-2.1,1.9-4,4.1-5.7,6.2c-5.1,6.5-8.7,14-10.8,22c-2,8-3.1,16.3-1.2,24.3
		c2.1,8.9,6,17.1,10.1,25.3c0.2,0.4,1,0.1,0.8-0.3c-2.9-7.1-5.4-14.6-7.6-21.9c-2.3-8-2-16-0.1-24.1c1.7-7.4,4.7-14.7,8.6-21.2
		c2.4-4,5-7.1,8.2-9.5c0.1,0,0.2-0.1,0.3-0.2c2.3-1.8,5-3.3,8.1-4.6c0.4-0.2,0.2-0.9-0.2-0.9c-3.5,0.2-6.6,1.8-9.3,4
		c-7.1-3.5-16.8,9.9-19.9,14.8C876.7,808.4,874.2,814.6,872.1,821z"/>
	<path opacity="0.5" fill="#9F592A" d="M875,862.2c-4.7-11.4-8.1-21.8-7.1-34.3c1-12.6,5.3-25.3,16.1-32.7c0.7-0.5,0.1-1.7-0.7-1.2
		c-10.8,6.8-16.4,19.6-18,31.9c-1.6,12.2,0.1,27.3,8.3,37.1C874.1,863.6,875.3,863,875,862.2z"/>
	<path opacity="0.5" fill="#9F592A" d="M900.8,802.5c-0.1,0.3,0.4,0.6,0.6,0.2c2-4.1,3.8-8,6.7-11.5c1.3-1.6,9.9-10.9,12-7.8
		c0.2,0.3,0.9,0.1,0.7-0.3c-1.7-4.9-7.9,1.1-10,3C906.2,790.4,902.1,796.3,900.8,802.5z"/>
	<path opacity="0.5" fill="#9F592A" d="M912.6,801c0,0.3,0.3,0.4,0.5,0.2c1.4-1.2,2.1-2.8,3.1-4.3c1.5-2.4,3.2-4.5,5.1-6.6
		c1.4-1.6,2.8-3.2,4.2-4.7c1.7-1.8,3.7-2.6,5.8-3.8c0.4-0.2,0.2-0.8-0.2-0.8c-4.1,0-8.1,4.8-10.7,7.5
		C917.4,791.5,912.2,796.3,912.6,801z"/>
	<path opacity="0.5" fill="#9F592A" d="M924.8,800c3.1-2.5,4.8-6.8,7.3-9.9c2.7-3.3,6.7-8.6,11.1-9.1c0.7-0.1,0.9-1,0.2-1.2
		c-4.1-1.4-8.9,4.2-11.3,6.8c-3.1,3.5-7.7,8.3-7.8,13.2C924.3,800,924.6,800.1,924.8,800z"/>
	<path opacity="0.5" fill="#9F592A" d="M934.6,797.7c-0.3,0.6,0.5,1.3,1,0.8c3-3.4,5.7-7.2,9.1-10.4c3.5-3.1,7.6-5.1,11.2-8
		c0.4-0.4,0-1-0.5-0.9c-4.2,1.1-8.3,4.4-11.5,7.1C940.2,789.6,936.6,793.2,934.6,797.7z"/>
	<path opacity="0.5" fill="#9F592A" d="M944.3,795.1c-0.3,0.5,0.4,1,0.8,0.6c2.8-2.2,5.2-5.2,7.7-7.7c2.8-2.8,5.3-4.9,8.7-7
		c0.4-0.2,0.2-0.8-0.2-0.8c-3.2,0.1-6.2,3.3-8.6,5.2C949.6,788.1,946.2,791.5,944.3,795.1z"/>
	<path opacity="0.5" fill="#9F592A" d="M953.9,795.4c-0.5,0.7,0.3,1.6,1,1c5.1-5.3,10.5-9.7,16.2-14.2c0.7-0.5-0.2-1.6-0.9-1.2
		C964,784.6,958.4,789.9,953.9,795.4z"/>
	<path opacity="0.5" fill="#9F592A" d="M961.2,796.6c-0.1,0.6,0.7,1,1,0.4c1.7-2.7,4.4-4.9,6.6-7.1c3.2-3.2,6.6-6.2,11.4-6.3
		c1,0,1-1.6,0-1.6c-4.6,0.1-8,2.3-11.3,5.3C966.3,789.6,961.8,792.9,961.2,796.6z"/>
	<path opacity="0.5" fill="#9F592A" d="M972.2,798.3c-0.1,0.4,0.4,0.7,0.7,0.4c2.3-2.4,4.3-5,6.7-7.3c2.7-2.6,5.4-4.5,8.7-6.4
		c0.7-0.4,0.2-1.5-0.6-1.3c-3.5,0.8-6.5,3.7-9.1,6C975.9,792,972.8,794.6,972.2,798.3z"/>
	<path opacity="0.5" fill="#9F592A" d="M984.7,799.9c2.9-6.4,8-13,15.2-14.8c0.8-0.2,0.5-1.2-0.2-1.3c-4.1-0.5-7.4,2.9-9.9,5.6
		c-2.7,2.8-5.7,6.2-6.1,10.3C983.7,800.2,984.5,800.4,984.7,799.9z"/>
	<path opacity="0.5" fill="#9F592A" d="M990.7,802.8c1.5-3.3,3.8-6.6,6.5-9.1c1.3-1.2,2.8-2.3,4.4-3.3c1.7-1,3.6-1.2,5.2-2.3
		c1.2-0.8,0.4-2.6-1-2.3c-3.4,0.6-7.4,4.3-9.8,6.7c-2.9,2.9-4.8,6-6.4,9.8C989.4,803,990.4,803.4,990.7,802.8z"/>
	<path opacity="0.5" fill="#9F592A" d="M1000,799.5c-0.5,0.8,0.6,1.6,1.3,1c2.2-2.1,4-4.5,6.2-6.6c2.1-2,4.9-3.2,7-5.2
		c0.3-0.3,0.1-0.8-0.3-0.8c-2.7-0.1-5.5,2.2-7.5,3.9C1004.1,794.1,1001.8,796.6,1000,799.5z"/>
	<path opacity="0.5" fill="#9F592A" d="M1006.4,800.9c-0.1,0.4,0.4,0.8,0.7,0.6c2.4-1.3,4-4,6.1-5.8c2.9-2.5,6.2-4.3,9.9-5.5
		c0.7-0.2,0.5-1.1-0.2-1.2c-3.6-0.5-7.3,2.5-10,4.6C1010.5,795.5,1007.2,797.8,1006.4,800.9z"/>
	<path opacity="0.5" fill="#9F592A" d="M1017.5,801.3c-0.1,0.4,0.3,0.7,0.7,0.5c2.4-1.3,3.7-4.3,5.7-6.2c1-0.9,2-1.8,2.9-2.7
		c1-0.9,2.1-1.6,2.8-2.8c0.3-0.5-0.2-1-0.7-0.9c-2.4,0.6-4.8,3.2-6.4,5C1020.8,796.4,1017.9,798.5,1017.5,801.3z"/>
	<path opacity="0.5" fill="#9F592A" d="M1026.6,796.5c-0.7,0.9-1.3,1.9-2.1,2.8c-0.7,0.8-1.3,1.5-1.7,2.5c-0.3,0.7,0.7,1.2,1.2,0.7
		c0.6-0.6,1-1.3,1.5-2c0.7-1.2,1.6-1.7,2.7-2.5c1.6-1.2,3.3-2.2,4.8-3.4c0.4-0.3,0.5-0.8,0.1-1.1c-0.1-0.1-0.2-0.2-0.2-0.3
		c-0.2-0.3-0.7-0.4-1-0.3C1030,793.3,1027.8,795,1026.6,796.5z"/>
	<path opacity="0.5" fill="#9F592A" d="M1032.4,803.4c1.6-3.3,4.1-7.3,7-9.5c0.8-0.6,0.4-2.4-0.8-1.9c-1.9,0.7-2.9,2.5-3.9,4.2
		c-1.3,2.2-2.3,4.3-3.3,6.6C1031.2,803.5,1032.1,804,1032.4,803.4z"/>
	<path opacity="0.5" fill="#9F592A" d="M1039.5,802.2c1.4-3.4,3.6-6.2,6.1-8.8c1.2-1.2-0.8-3.1-1.8-1.8c-2.5,3.1-4.3,6.6-5.7,10.3
		C1037.7,802.7,1039.1,803,1039.5,802.2z"/>
</g>
</svg>
