<?xml version="1.0" encoding="utf-8"?>
<!-- Generator: Adobe Illustrator 21.0.2, SVG Export Plug-In . SVG Version: 6.00 Build 0)  -->
<svg version="1.1" id="Layer_1" xmlns="http://www.w3.org/2000/svg" xmlns:xlink="http://www.w3.org/1999/xlink" x="0px" y="0px"
	 viewBox="0 0 2000 2000" enable-background="new 0 0 2000 2000" xml:space="preserve">
	 <g id="mutton_x5F_chop_x5F_cropped">
	 	<g id="mutton_x5F_chops_x5F_cropped">
	 		<g>
	 			<path fill="none" d="M1156.8,901c5.9-10.9,9.9-25.9,9.9-25.9c5.4-14,7.3-37.7,7.3-56.1c0-18.4,0-26.8,0-26.8h0.1
	 				c1.6-0.8,28.3-14,51.5-26.4c0.5-0.2,0.9-0.5,1.4-0.7c1.1-0.6,2.1-1.1,3.2-1.7c0.5-0.2,1-0.5,1.5-0.8c6.9-3.8,13.2-7.4,18.1-10.4
	 				c22.8-14,36.4-26.2,36.4-26.2c0.6,0.2,1.3,0.6,2,1.2c-2-3.9-4.4-7.9-7.9-12.6l-9.5-14.5l-35.2-20.3l-583.1,71.6l-22.7,26
	 				L616.4,807l10.4,14.9c0.6-0.2,2.4-0.6,6.2-1c0.7,0,1.6-0.1,2.5-0.2c1.6-0.2,3.5-0.3,5.7-0.4c1.4-0.1,2.9-0.1,4.6-0.2
	 				c2.7,0,5.1-0.2,7.1-0.4c3.9-0.4,6.5-1.1,8.1-1.9c2.3-1.2,2.7-2.8,2.3-4.9c-0.1-0.3-0.2-0.7-0.5-1c-0.8-0.9-2.2-1.7-4.2-2.4
	 				c-3.4-1.2-8.3-2.1-14.2-2.8c-0.5-0.1-1.1-0.1-1.7-0.2c-1-0.1-2.1-0.2-3.2-0.3c-0.9-0.1-1.8-0.1-2.8-0.2c-1.4-0.1-2.8-0.1-4.3-0.2
	 				c-0.9,0-1.8-0.1-2.7-0.1c-0.2,0-0.5,0-0.7,0c-1.5-0.1-3-0.1-4.5-0.1c0,0,0.2-13.5,8.1-26.8c1.3-2.2,2.8-4.4,4.6-6.5
	 				c12.5-14.9,15.2-15.5,15.2-15.5s4,2.5,11,7.9c0.5,0.4,0.9,0.7,1.4,1.1c2.4,1.9,5.1,4,8.1,6.5c0.6,0.5,1.2,1,1.8,1.5
	 				c0.4,0.3,0.8,0.7,1.2,1c7.9,6.4,17.5,13.3,29.7,18.8c0.5,0.2,1,0.5,1.5,0.7c1.7,0.7,3.4,1.4,5.1,2c0.6,0.2,1.2,0.4,1.8,0.6
	 				c4.9,1.7,10.1,3.1,15.8,4.2c6.8,1.2,15.5,2.8,25.2,4.6c0.8,0.1,1.5,0.3,2.3,0.4c9.3,1.7,19.5,3.5,29.7,5.2
	 				c1.2,0.2,2.3,0.4,3.5,0.6c12.7,2.1,25.3,4.1,36.5,5.5c0.8,0.1,1.6,0.2,2.4,0.3c5.3,0.7,10.2,1.2,14.6,1.6
	 				c31,2.7,46.6,8.4,50.2,9.7c3.6,1.4,4.9,6,4,11.7s-0.9,36.8,5.3,62.7s18.4,43.8,27.3,54.8c0,0-4.4-1.8-13.5-14.7s-16.3-39-16.3-39
	 				s3,17.2,11.6,34.5c5.1,10.2,11.5,18.6,16,23.8c17.6-0.2,35.6-1.2,54-2.8c35.6-3.1,69.4-10.4,102.9-20.4
	 				c18.6-5.5,35.7-12.5,53.5-19.7c3.9-1.6,7.8-3.2,11.6-5C1151.2,912.4,1153,907.9,1156.8,901z"/>
	 			<path fill="none" d="M912.7,946.5c0,0,6.1,9.4,12.1,16.4c0.6,0,1.3,0,1.9,0C922.8,959.3,917.9,954,912.7,946.5z"/>
	 			<path fill="none" d="M1161,910c1-0.5,2-1,3-1.5c4.1-12.5,6-26.2,6-26.2C1169,888.4,1165,900.6,1161,910z"/>
	 			<path fill="none" d="M679.5,864.1c0.1-0.1,0.1-0.1,0.2-0.2c2-2.3,2.2-4.6,0.2-5.9c-1.3-0.8-3.6-1.3-7.1-1.1
	 				c-3.7,0.2-8.6,1.1-15.1,2.9c3.9,4,7.8,7.9,11.8,11.7c1-0.5,2.1-1.1,3.2-1.8C675,868.3,677.5,866.4,679.5,864.1z"/>
	 			<path fill="none" d="M1153.3,913.7c1.3-0.6,2.7-1.2,4-1.9c3.6-8.1,6.7-18.3,6.7-18.3S1157.2,906.9,1153.3,913.7z"/>
	 			<path fill="#9F592A" d="M1249.8,752.2c-4.9,3-11.2,6.6-18.1,10.4c-0.5,0.3-1,0.6-1.5,0.8c-1.1,0.6-2.1,1.1-3.2,1.7
	 				c-0.5,0.2-0.9,0.5-1.4,0.7c-23.2,12.4-49.9,25.6-51.5,26.4h-0.1c0,0,0,8.4,0,26.8c0,18.4-1.9,42.1-7.3,56.1c0,0-4,15-9.9,25.9
	 				c-3.8,6.9-5.6,11.4-6.2,13.9c0.9-0.4,1.8-0.8,2.7-1.2c3.9-6.8,10.7-20.2,10.7-20.2s-3.2,10.2-6.7,18.3c1.2-0.6,2.5-1.2,3.7-1.8
	 				c3.9-9.4,8-21.6,9-27.7c0,0-1.9,13.7-6,26.2c27.2-13.6,53.2-31,76.6-51.4c20.3-17.7,38.3-38.2,49.3-63
	 				c8.2-18.3,10.4-37.2,1.7-59.2c-1.1-2.7-2.2-5.3-3.4-7.8c-0.8-0.5-1.4-0.9-2-1.2C1286.2,726,1272.6,738.2,1249.8,752.2z"/>
	 			<path fill="#9F592A" d="M901,904.5c0,0,7.2,26.1,16.3,39s13.5,14.7,13.5,14.7c-8.9-11-21.1-28.9-27.3-54.8s-6.2-57-5.3-62.7
	 				s-0.4-10.3-4-11.7c-3.6-1.3-19.2-7-50.2-9.7c-4.4-0.4-9.3-0.9-14.6-1.6c-0.8-0.1-1.6-0.2-2.4-0.3c-11.2-1.4-23.8-3.4-36.5-5.5
	 				c-1.2-0.2-2.3-0.4-3.5-0.6c-10.2-1.7-20.4-3.5-29.7-5.2c-0.8-0.1-1.5-0.3-2.3-0.4c-9.7-1.8-18.4-3.4-25.2-4.6
	 				c-5.7-1.1-10.9-2.5-15.8-4.2c-0.6-0.2-1.2-0.4-1.8-0.6c-1.7-0.6-3.4-1.3-5.1-2c-0.5-0.2-1-0.5-1.5-0.7
	 				c-12.2-5.5-21.8-12.4-29.7-18.8c-0.4-0.3-0.8-0.7-1.2-1c-0.6-0.5-1.2-1-1.8-1.5c-3-2.5-5.7-4.6-8.1-6.5c-0.5-0.4-0.9-0.7-1.4-1.1
	 				c-7-5.4-11-7.9-11-7.9s-2.7,0.6-15.2,15.5c-1.8,2.1-3.3,4.3-4.6,6.5c-7.9,13.3-8.1,26.8-8.1,26.8c1.5,0,3,0,4.5,0.1
	 				c0.2,0,0.5,0,0.7,0c0.9,0,1.8,0.1,2.7,0.1c1.5,0.1,2.9,0.1,4.3,0.2c1,0.1,1.9,0.1,2.8,0.2c1.1,0.1,2.2,0.2,3.2,0.3
	 				c0.6,0.1,1.2,0.1,1.7,0.2c5.9,0.7,10.8,1.6,14.2,2.8c2,0.7,3.4,1.5,4.2,2.4c0.3,0.3,0.4,0.7,0.5,1c0.4,2.1,0,3.7-2.3,4.9
	 				c-1.6,0.8-4.2,1.5-8.1,1.9c-2,0.2-4.4,0.4-7.1,0.4c-1.7,0.1-3.2,0.1-4.6,0.2c-2.2,0.1-4.1,0.2-5.7,0.4c-0.9,0.1-1.8,0.2-2.5,0.2
	 				c-3.8,0.4-5.5,0.8-6.2,1l8.5,12.1c7.3,9.2,14.7,17.8,22.4,25.8c6.5-1.9,11.4-2.8,15.1-2.9c3.5-0.2,5.8,0.3,7.1,1.1
	 				c2,1.3,1.8,3.6-0.2,5.9c-0.1,0.1-0.1,0.1-0.2,0.2c-2,2.3-4.5,4.2-6.7,5.6c-1.2,0.7-2.3,1.3-3.2,1.8
	 				c14.2,13.3,29.4,25.2,46.1,35.9c36.9,23.6,76.5,39.2,118.5,47.5c29,5.8,59.2,8.1,90.6,7.9c-6-6.9-12.1-16.4-12.1-16.4
	 				c5.2,7.5,10.1,12.8,14,16.3c0.6,0,1.3,0,1.9,0c-4.5-5.2-11-13.6-16-23.8C904,921.7,901,904.5,901,904.5z"/>
	 		</g>
	 	</g>
	 	<g id="shadows_x5F_cropped" opacity="0.3">
	 		<g>
	 			<path fill="none" d="M1156.8,901.2c5.9-10.9,9.9-25.9,9.9-25.9c5.4-14,7.3-37.7,7.3-56.1s0-26.8,0-26.8h0.1
	 				c2.6,6.5,3.2,14.5,3.6,21c0.7,10.1,0.1,20.3-0.6,30.4c-0.6,10-1.3,20-3,29.9c-0.9,5.3-2.3,10.6-3.5,15.8c-1,4.6-1.5,9.5-2.7,14.1
	 				c3.5-6.2,6.5-12.5,8.7-19.3c4.5-13.8,6.1-28.1,8.3-42.3c0.1-0.4,0.8-0.3,0.8,0.1c-0.6,14.7-3.2,29.5-7.8,43.5
	 				c-2.3,6.9-5.2,13.6-8.4,20.1c2-1,4-2.1,6-3.2c1.3-2.5,2.6-5,3.7-7.6c4.9-11,6.8-22.1,9.4-33.8c0.1-0.6,1.1-0.4,1.1,0.2
	 				c-0.3,11.3-4.4,23.4-8.8,33.7c-0.9,2.1-1.9,4.1-2.9,6.1c4.4-2.4,8.7-5,13.1-7.6c1.5-3.8,2.8-7.7,4.1-11.6
	 				c3.4-11,5.4-22.1,6.1-33.3c0-4.3-0.2-8.6-0.9-13c-0.9-5.8-2.4-11.5-4.4-17c-1.9-5.2-5.1-9.9-6.6-15.2c-0.1-0.2,0.2-0.4,0.4-0.2
	 				c6,5.4,9.1,15.9,11.2,23.5c2.3,8.6,3.5,17.9,3.1,26.8c-0.4,9.6-2.7,19.2-5.2,28.5c-0.7,2.7-1.6,5.4-2.5,8.1
	 				c9.2-5.8,18.1-12.1,26.8-18.8c3.3-9.7,4.6-20.5,4.7-30.9c-0.1-4.2-0.4-8.4-0.9-12.6c-1.8-15.4-6.1-29.9-11.4-44.4
	 				c-0.1-0.4,0.5-0.7,0.7-0.3c7.1,15.2,10.8,32.4,12.3,49.1c0,0.4,0.1,0.8,0.1,1.2c0.3,2.7,0.5,5.5,0.5,8.3
	 				c0.3,5.6,0.2,11.1-0.1,16.7c-0.2,3-0.5,6-0.9,9c4.2-3.3,8.3-6.7,12.3-10.2c6.5-5.7,12.8-11.6,18.6-17.9c0.1-0.6,0.2-1.1,0.2-1.7
	 				c1.9-17.7-2.4-35.2-6.3-52.3c-0.2-0.5,0.7-0.7,0.8-0.2c0.1,0.4,0.2,0.7,0.3,1.1c4.6,8.2,7.3,17.1,8.5,26.4c0.7,5,1,10,1.2,15
	 				c0,2,0.1,4.1,0.2,6.2c2-2.2,3.9-4.5,5.7-6.9c2-7.1,2.9-14.6,3-22c0-7.5-0.7-15-2-22.4c-0.6-3.4-1.2-6.7-2.2-10
	 				c-0.9-3.1-2.5-6-3.6-9.1c0-0.1,0-0.1,0-0.1v-0.1c0-0.2,0.3-0.4,0.4-0.2c0.6,0.6,1.1,1.3,1.5,2.1c5.7,7.2,7.8,17.4,9,26.1
	 				c0.8,5.9,1.4,11.9,2.2,17.8c0.2,1.9,0.5,3.7,0.6,5.5c2.9-4.5,5.7-9.2,8.1-14c0.3-2.2,0.5-4.5,0.6-6.7c0.4-5.9,0.7-11.8,0.2-17.7
	 				c-0.4-4.4-1.4-8.5-2.6-12.6c-0.6-1.6-1.2-3.2-1.7-4.9c-0.2-0.7,0.8-1.1,1.2-0.5c3.1,4.9,4.7,11.2,5.9,16.9
	 				c0.9,4.4,1.5,8.9,1.8,13.4c2.8-7.5,4.5-15.1,4.8-23.1c-0.7-3-1.6-6-2.6-8.9c-3-8.4-7.9-15.4-12-23.2c-0.2-0.6,0.5-1,0.8-0.5
	 				c6.3,8.5,10.9,18.3,13.8,28.6c-0.2-8.3-1.9-17-5.6-26.2c-2.8-7-5.5-12.7-11.3-20.4l-9.5-14.5l-35.2-20.3l-583.1,71.6l-22.7,26
	 				L616.4,807l10.5,15c0.6-0.2,2.4-0.6,6.2-1c0,0.6,0.1,1.2,0.2,1.8c0.8,4.7,1.4,10.8,4.8,14.6c-0.6-2.2-1-4.6-1.4-6.6
	 				c-0.7-3.3-1-6.7-1.1-10c1.6-0.2,3.5-0.3,5.7-0.4c-0.2,1.4-0.2,3-0.4,4.6c1,2.6,1.7,5.3,2.4,8c0.4,1.4,0.8,4.4,1.9,6
	 				c3.1-1,5.2-12.9,5.9-14.8c0.6-1.6,1.3-3,2-4.5c3.9-0.4,6.5-1.1,8.1-1.9c-0.8,2.5-1.4,5-2.1,7.5c-1.3,4.6-2.5,9.3-3.2,14
	 				c-0.5,2.9-0.6,17.9,5.4,16.4c2.6-2.8,3.4-6.9,4.7-10.5c1-2.8,2.1-5.6,3.3-8.3c2.9-6.5,6.4-12.8,10.5-18.6
	 				c6.6-9.4,15.6-19,25.9-24.7c0.5,0.2,1,0.5,1.5,0.7c-5.5,4.1-11,8.1-15.6,13.3c-0.4,0.4-0.7,0.9-1.1,1.3
	 				c-8.4,11.3-14.8,24.3-16.7,38.3c-0.5,3.3-0.8,6.5-0.9,9.8c-3.7,0.2-8.6,1.1-15.1,2.9c3.9,4,7.8,8,11.9,11.7
	 				c1-0.5,2.1-1.1,3.3-1.9c0.1,0.4,0.1,0.8,0.1,1.2c0.1,1.3,0.2,2.7,0.3,4.1c2.7,2.4,5.3,4.8,8.1,7.1c-0.2-1-0.4-1.7-0.4-2
	 				c-0.4-1.9-0.7-3.7-0.9-5.6c-0.3-3.5-0.4-7-0.3-10.5c0.1-0.1,0.1-0.1,0.2-0.2c2-2.3,2.2-4.6,0.2-5.9c0.9-8.8,4.2-16.9,6.7-25.3
	 				c4.2-14.3,12-29.1,25.6-36.5c0.6,0.2,1.2,0.4,1.8,0.6c-7.6,6-14.3,12.1-19,20.7c-3.9,7.1-6,15.1-8,23c-0.3,2.3-1,4.6-1.5,6.9
	 				c-0.9,4.3-1.6,8.6-1.8,12.9c-0.4,7,1,13.6,2.7,20.4c0.7,2.5,1.4,5,2.1,7.5c3.7,2.9,7.4,5.8,11.3,8.6c-0.5-1.7-0.9-3.4-1.3-5.2
	 				c-0.9-4.1-1.9-8.7-2.1-13.3c-1.2-9.3-1.2-18.8,0.1-28.3c2-14.2,6.8-30.9,17.1-41.5c0.7-0.7,1.7,0.2,1.3,1
	 				c-1.6,3.3-3.3,6.5-4.9,9.7c-6.5,17.5-10.3,35.3-8.3,54.2c1,9.7,3.5,19.2,7.1,28.2c0.3,0.7,0.6,1.4,0.9,2.1c1.3,0.9,2.6,1.7,4,2.6
	 				c-2.4-8.2-4-16.8-5.4-25.1c-1.6-9.5-3.2-19.7-1.3-29.3c0.1-0.6,0.9-0.4,0.9,0.1c0.2,10.1,0.7,19.6,2.9,29.5
	 				c1.9,8.4,4.2,16.7,6.9,24.9c0.3,1,0.7,2.1,1,3.1c6.1,3.8,12.4,7.4,18.6,10.8c-1.3-3.1-2.5-6.2-3.5-9.4c-1.6-2.7-2.4-5.9-3.2-8.8
	 				c-1.4-4.6-2.3-9.3-3-14.1c-1.4-9.3-1.5-18.6-0.4-27.9c1-9,3-17.8,6-26.3c3.1-8.5,8.8-15.6,13.6-23.2c0.3-0.5,1.1,0,0.8,0.5
	 				c-4.2,7.9-6,16.7-8.9,25.1c-2.7,8-4.7,16.4-5.6,24.8c-0.9,8.9-0.9,18.1,0.5,27c2.5,9.9,4.9,19.7,8.7,29.2c1,2.5,2,4.9,3.2,7.3
	 				c7.7,3.9,15.6,7.5,23.5,10.8c-5-10.2-8.7-21-11-32.2c-2.5-12.9-3.3-26.7-1.6-39.7c1.8-13.4,8.8-26.6,15.9-37.9
	 				c0.2-0.4,0.9-0.1,0.7,0.3c-4.5,12.7-12.6,24.2-14,37.9c-1.4,13.1-0.2,26.4,2.7,39.2c2.7,12.2,7.2,23.9,13.2,34.8
	 				c2.6,1,5.3,2,7.9,3c-10.7-21.8-13.4-48-6.5-70.6c0.1-0.4,0.8-0.4,0.8,0.1c-2,20-2.8,39.9,4.2,59.1c1.6,4.5,3.7,8.9,6.1,13.1
	 				c10.4,3.6,21,6.7,31.8,9.3c-7.5-10.3-13.7-21.8-17.6-34c-4-12.9-4.7-26.8-4.2-40.2c0.5-12.2,1.9-23.6,8.5-34.3
	 				c0.2-0.4,0.8,0,0.6,0.4c-5.4,11.5-7,24.8-5.8,37.4c0.4,3.5,0.8,7,1.2,10.5c1.7,6.8,3.2,13.6,5.3,20.3c3,9.8,7.7,18.7,12.8,27.5
	 				c2.9,5,5.9,9.9,9.1,14.6c1.5,0.3,3.1,0.7,4.6,1c5.7,1.1,11.5,2.1,17.3,3c-7.3-9.6-12.8-20.6-16.8-32.2
	 				c-4.4-12.8-7.1-26.5-6.8-40.1c0.2-12.6,2-26.6,7.6-38c0.1-0.3,0.6-0.1,0.5,0.2c-2.6,13-5.1,25.2-4.5,38.6
	 				c0.6,12.7,2.6,25.3,6.7,37.4c2.7,8.2,6.5,16.5,11.2,24.2c-1.3-3.1-2.4-6.4-3.4-9.6c-2-6.6-3.5-13.4-4.6-20.2
	 				c-0.5-3.3-0.8-6.6-0.9-10c-0.2-3.6-0.5-7.2-0.1-10.8c0-0.3,0.4-0.3,0.4-0.1c0.5,3.1,0.5,6.3,0.8,9.4c0.4,3.4,0.8,6.9,1.2,10.3
	 				c0.7,6.7,2,13.3,4,19.8c1.9,5.9,4.5,11.6,7.5,17.2c0.9,1.6,1.9,3.2,2.9,4.7c7.6,1,15.2,1.9,22.9,2.5
	 				c-7.5-9.6-13.6-20.6-17.7-31.5c-3.9-10.4-5.7-21.1-6.3-32.1c-0.4-6.4-0.5-12.8-0.3-19.2c0.2-5.2,0.1-10.7,1.4-15.8
	 				c0-0.1,0-0.1,0-0.1c0.2-1.4,0.4-2.7,0.6-4.1c1-6,1.8-12.4,6-17.1c0.3-0.4,0.9,0.1,0.7,0.6c-3.3,6.6-3.7,14.3-4.3,21.5
	 				c-0.5,6.6-0.7,13.3-0.5,20c0.4,13.9,2.3,27.5,6.5,40.7c3.7,11.7,9.2,22.9,16.3,32.9c1.1,1.6,2.3,3.1,3.5,4.7
	 				c5.1,0.3,10.1,0.6,15.3,0.8c-9-9.4-15-21.3-18.7-33.6c-4.5-14.7-5.8-30.6-5.1-45.9c0.6-15,3.2-31.2,9.9-44.7
	 				c0.2-0.4,0.8-0.1,0.7,0.3c-4.3,14.7-7.7,29-8,44.4c-0.3,14,1.3,28.2,4.9,41.7c3.5,13.2,9.6,26,19.3,35.9c0.7,0.7,1.4,1.4,2.1,2.1
	 				c2.1,0.1,4.1,0.1,6.2,0.1c-1.7-1.9-3.3-3.8-4.9-5.8c-4.8-6.1-8.5-13-11.3-20.3c-5.8-14.8-8.5-31.5-7.4-47.4c0-0.3,0.4-0.2,0.4,0
	 				c1.9,15.5,2.6,31.1,8,45.9c2.7,7.3,6.4,14.3,11.1,20.5c1.9,2.6,4.1,4.9,6.3,7.1c22,0.3,44.6-0.8,67.9-2.8
	 				c35.6-3.1,69.4-10.4,102.9-20.4c18.6-5.5,35.7-12.5,53.5-19.7c3.9-1.6,7.8-3.3,11.7-5C1151.3,912.3,1153.2,907.9,1156.8,901.2z
	 				 M1231.8,762.5c2.6,2.7,4.6,6.6,6.3,9.5c2.6,4.3,5,8.7,6.6,13.4c0.1,0.3-0.4,0.5-0.6,0.2c-2.3-4.4-4.4-8.8-7.1-13
	 				c-1.4-2.1-2.8-4.1-4.2-6.1c-0.8-1-1.7-2.1-2.5-3.2C1230.8,763.1,1231.3,762.8,1231.8,762.5z M1227,765c3.6,4.4,6.1,10.1,8.6,14.9
	 				c2.8,5.6,5.3,11.1,7.2,17.2c4,12.8,5.3,26.8,3.9,40.1c0,0.2-0.4,0.2-0.4,0c-0.1-13.2-2-25.9-5.6-38.6c-1.9-6.5-4.1-13.3-7.2-19.5
	 				c-2.2-4.7-5.4-8.9-7.9-13.4C1226.1,765.5,1226.5,765.2,1227,765z M629,805.7c-1.5-0.1-3-0.1-4.5-0.1c0,0,0.2-13.5,8.1-26.8
	 				c-1.3,5.9-2.3,11.7-3.1,17.6C629.1,799.5,629,802.6,629,805.7z M632.8,802.5c-0.1,1.1-0.2,2.3-0.3,3.4c-0.9,0-1.8-0.1-2.7-0.1
	 				c1.4-15.2,7.4-28.5,16.7-40.4c0.1-0.2,0.3-0.2,0.4-0.2c-0.1-0.4,0.2-0.8,0.4-1.1c0.3-0.4,0.7-0.8,1.1-1.1
	 				c0.4-0.2,0.9,0.4,0.5,0.7c-0.3,0.3-0.7,0.6-0.9,1c-0.2,0.3-0.3,0.7-0.7,0.8c0.1,0.2,0.1,0.3,0,0.5
	 				C639.3,776.5,634.5,789.4,632.8,802.5z M652.5,789c-3.2,5.7-6,11.6-8,17.8c-0.5-0.1-1.1-0.1-1.7-0.2c2.4-6.2,5.5-12.3,9.5-17.7
	 				C652.4,788.7,652.6,788.8,652.5,789z M654,771.5c-6.4,9.6-11.5,20.1-13.9,31.4c-0.2,1.1-0.4,2.2-0.6,3.3
	 				c-0.9-0.1-1.8-0.1-2.8-0.2c2.5-12.8,8.3-25,16.8-34.9C653.7,770.9,654.2,771.2,654,771.5z M657.1,772.7c1.7-2.6,3.6-5.9,6.1-8
	 				c0.5,0.4,0.9,0.7,1.4,1.1c-1.2,0.7-2.4,1.4-3.5,2.5c-1.4,1.4-2.6,3-3.7,4.6C657.3,773.1,657,772.9,657.1,772.7z M671.9,794.3
	 				c-1.5,2-3,4.1-4.4,6.2c-1.8,3.6-3.3,7.5-4.6,11.5c-0.8-0.9-2.2-1.7-4.2-2.4c3.5-5.8,7.4-11.5,12.5-15.9
	 				C671.6,793.4,672.2,793.8,671.9,794.3z M672.1,776c-3.1,1.3-6.1,3-9,4.8c-0.1,0.1-0.2,0-0.1-0.1c2.8-1.9,5.6-4,8.7-5.5
	 				c1-0.5,2-1,3-1.4c0.4,0.3,0.8,0.7,1.2,1C674.6,775.1,673.3,775.5,672.1,776z M752.4,810.8c0,0.1-0.2,0-0.2-0.1
	 				c0.4-1.4,1.5-3.4,2.8-4.9c0.8,0.1,1.5,0.3,2.3,0.4C755.2,807,753.6,809,752.4,810.8z M786.8,813.5c-2.8,1.7-5.6,3.5-8.2,5.5
	 				c-0.1,0.2-0.4-0.1-0.2-0.2c2.6-2.2,4.7-4.9,7.5-6.8c0.3-0.3,0.6-0.5,1-0.7c1.2,0.2,2.3,0.4,3.5,0.6
	 				C789.2,812.3,788,812.8,786.8,813.5z M824.6,821.3c-3.8,2.9-7.6,6.1-10.7,9.8c-0.2,0.1-0.4-0.1-0.3-0.3c3.4-4.3,7.4-8,11.5-11.7
	 				c0.6-0.5,1.3-1.1,1.9-1.6c0.8,0.1,1.6,0.2,2.4,0.3C827.7,818.9,826.1,820.1,824.6,821.3z"/>
	 			<path fill="none" d="M1161.1,910c1-0.5,2-1,3-1.5c4.1-12.5,5.9-26,5.9-26C1169,888.6,1165,900.6,1161.1,910z"/>
	 			<path fill="none" d="M1153.4,913.6c1.3-0.6,2.6-1.2,3.9-1.9c3.5-8.1,6.6-18.1,6.6-18.1S1157.4,906.8,1153.4,913.6z"/>
	 			<path fill="#091426" d="M653.5,771.1c-8.5,9.9-14.3,22.1-16.8,34.9c1,0.1,1.9,0.1,2.8,0.2c0.2-1.1,0.4-2.2,0.6-3.3
	 				c2.4-11.3,7.5-21.8,13.9-31.4C654.2,771.2,653.7,770.9,653.5,771.1z"/>
	 			<path fill="#091426" d="M647.3,765.5c0.4-0.1,0.5-0.5,0.7-0.8c0.2-0.4,0.6-0.7,0.9-1c0.4-0.3-0.1-0.9-0.5-0.7
	 				c-0.4,0.3-0.8,0.7-1.1,1.1c-0.2,0.3-0.5,0.7-0.4,1.1c-0.1,0-0.3,0-0.4,0.2c-9.3,11.9-15.3,25.2-16.7,40.4c0.9,0,1.8,0.1,2.7,0.1
	 				c0.1-1.1,0.2-2.3,0.3-3.4c1.7-13.1,6.5-26,14.5-36.5C647.4,765.8,647.4,765.7,647.3,765.5z"/>
	 			<path fill="#091426" d="M652.3,788.9c-4,5.4-7.1,11.5-9.5,17.7c0.6,0.1,1.2,0.1,1.7,0.2c2-6.2,4.8-12.1,8-17.8
	 				C652.6,788.8,652.4,788.7,652.3,788.9z"/>
	 			<path fill="#091426" d="M673.8,847.2c1.9-14,8.3-27,16.7-38.3c0.4-0.4,0.7-0.9,1.1-1.3c4.6-5.2,10.1-9.2,15.6-13.3
	 				c-0.5-0.2-1-0.5-1.5-0.7c-10.3,5.7-19.3,15.3-25.9,24.7c-4.1,5.8-7.6,12.1-10.5,18.6c-1.2,2.7-2.3,5.5-3.3,8.3
	 				c-1.3,3.6-2.1,7.7-4.7,10.5c-6,1.5-5.9-13.5-5.4-16.4c0.7-4.7,1.9-9.4,3.2-14c0.7-2.5,1.3-5,2.1-7.5c-1.6,0.8-4.2,1.5-8.1,1.9
	 				c-0.7,1.5-1.4,2.9-2,4.5c-0.7,1.9-2.8,13.8-5.9,14.8c-1.1-1.6-1.5-4.6-1.9-6c-0.7-2.7-1.4-5.4-2.4-8c0.2-1.6,0.2-3.2,0.4-4.6
	 				c-2.2,0.1-4.1,0.2-5.7,0.4c0.1,3.3,0.4,6.7,1.1,10c0.4,2,0.8,4.4,1.4,6.6c-3.4-3.8-4-9.9-4.8-14.6c-0.1-0.6-0.2-1.2-0.2-1.8
	 				c-3.8,0.4-5.6,0.8-6.2,1l8.4,12c7.3,9.2,14.8,17.8,22.5,25.9c6.5-1.9,11.4-2.8,15.1-2.9C673,853.7,673.3,850.5,673.8,847.2z"/>
	 			<path fill="#091426" d="M624.5,805.6c1.5,0,3,0,4.5,0.1c0-3.1,0.1-6.2,0.5-9.3c0.8-5.9,1.8-11.7,3.1-17.6
	 				C624.7,792.1,624.5,805.6,624.5,805.6z"/>
	 			<path fill="#091426" d="M671.2,793.7c-5.1,4.4-9,10.1-12.5,15.9c2,0.7,3.4,1.5,4.2,2.4c1.3-4,2.8-7.9,4.6-11.5
	 				c1.4-2.1,2.9-4.2,4.4-6.2C672.2,793.8,671.6,793.4,671.2,793.7z"/>
	 			<path fill="#091426" d="M785.9,812c-2.8,1.9-4.9,4.6-7.5,6.8c-0.2,0.1,0.1,0.4,0.2,0.2c2.6-2,5.4-3.8,8.2-5.5
	 				c1.2-0.7,2.4-1.2,3.6-1.6c-1.2-0.2-2.3-0.4-3.5-0.6C786.5,811.5,786.2,811.7,785.9,812z"/>
	 			<path fill="#091426" d="M752.2,810.7c0,0.1,0.2,0.2,0.2,0.1c1.2-1.8,2.8-3.8,4.9-4.6c-0.8-0.1-1.5-0.3-2.3-0.4
	 				C753.7,807.3,752.6,809.3,752.2,810.7z"/>
	 			<path fill="#091426" d="M664.6,765.8c-0.5-0.4-0.9-0.7-1.4-1.1c-2.5,2.1-4.4,5.4-6.1,8c-0.1,0.2,0.2,0.4,0.3,0.2
	 				c1.1-1.6,2.3-3.2,3.7-4.6C662.2,767.2,663.4,766.5,664.6,765.8z"/>
	 			<path fill="#091426" d="M671.7,775.2c-3.1,1.5-5.9,3.6-8.7,5.5c-0.1,0.1,0,0.2,0.1,0.1c2.9-1.8,5.9-3.5,9-4.8
	 				c1.2-0.5,2.5-0.9,3.8-1.2c-0.4-0.3-0.8-0.7-1.2-1C673.7,774.2,672.7,774.7,671.7,775.2z"/>
	 			<path fill="#091426" d="M825.1,819.1c-4.1,3.7-8.1,7.4-11.5,11.7c-0.1,0.2,0.1,0.4,0.3,0.3c3.1-3.7,6.9-6.9,10.7-9.8
	 				c1.5-1.2,3.1-2.4,4.8-3.5c-0.8-0.1-1.6-0.2-2.4-0.3C826.4,818,825.7,818.6,825.1,819.1z"/>
	 			<path fill="#091426" d="M866.1,924.1c-4.2-13.2-6.1-26.8-6.5-40.7c-0.2-6.7,0-13.4,0.5-20c0.6-7.2,1-14.9,4.3-21.5
	 				c0.2-0.5-0.4-1-0.7-0.6c-4.2,4.7-5,11.1-6,17.1c-0.2,1.4-0.4,2.7-0.6,4.1c0,0,0,0,0,0.1c-1.3,5.1-1.2,10.6-1.4,15.8
	 				c-0.2,6.4-0.1,12.8,0.3,19.2c0.6,11,2.4,21.7,6.3,32.1c4.1,10.9,10.2,21.9,17.7,31.5c2,0.2,3.9,0.3,5.9,0.4
	 				c-1.2-1.5-2.4-3.1-3.5-4.7C875.3,947,869.8,935.8,866.1,924.1z"/>
	 			<path fill="#091426" d="M884.9,924.7c-3.6-13.5-5.2-27.7-4.9-41.7c0.3-15.4,3.7-29.7,8-44.4c0.1-0.4-0.5-0.7-0.7-0.3
	 				c-6.7,13.5-9.3,29.7-9.9,44.7c-0.7,15.3,0.6,31.2,5.1,45.9c3.7,12.3,9.7,24.2,18.7,33.6c1.7,0.1,3.4,0.1,5.1,0.2
	 				c-0.7-0.7-1.4-1.4-2.1-2.1C894.5,950.7,888.4,937.9,884.9,924.7z"/>
	 			<path fill="#091426" d="M807.6,911.8c-2.1-6.7-3.6-13.5-5.3-20.3c-0.4-3.5-0.8-7-1.2-10.5c-1.2-12.6,0.4-25.9,5.8-37.4
	 				c0.2-0.4-0.4-0.8-0.6-0.4c-6.6,10.7-8,22.1-8.5,34.3c-0.5,13.4,0.2,27.3,4.2,40.2c3.8,12.2,10.1,23.7,17.6,34
	 				c3.3,0.8,6.6,1.5,10,2.3c-3.3-4.7-6.3-9.6-9.1-14.6C815.3,930.5,810.6,921.6,807.6,911.8z"/>
	 			<path fill="#091426" d="M908.4,955.7c-4.7-6.2-8.4-13.2-11.1-20.5c-5.4-14.8-6.1-30.4-8-45.9c0-0.2-0.4-0.3-0.4,0
	 				c-1.1,15.9,1.6,32.6,7.4,47.4c2.8,7.3,6.5,14.2,11.3,20.3c1.5,1.9,3.1,3.9,4.9,5.8c0.8,0,1.5,0,2.3,0
	 				C912.5,960.6,910.3,958.3,908.4,955.7z"/>
	 			<path fill="#091426" d="M777.5,870.2c0-0.5-0.7-0.5-0.8-0.1c-6.9,22.6-4.2,48.8,6.5,70.6c1.5,0.6,3.1,1.1,4.6,1.7
	 				c-2.4-4.2-4.5-8.6-6.1-13.1C774.7,910.1,775.5,890.2,777.5,870.2z"/>
	 			<path fill="#091426" d="M846.7,936.8c-2-6.5-3.3-13.1-4-19.8c-0.4-3.4-0.8-6.9-1.2-10.3c-0.3-3.1-0.3-6.3-0.8-9.4
	 				c0-0.2-0.4-0.2-0.4,0.1c-0.4,3.6-0.1,7.2,0.1,10.8c0.1,3.4,0.4,6.7,0.9,10c1.1,6.8,2.6,13.6,4.6,20.2c1,3.2,2.1,6.5,3.4,9.6
	 				c-4.7-7.7-8.5-16-11.2-24.2c-4.1-12.1-6.1-24.7-6.7-37.4c-0.6-13.4,1.9-25.6,4.5-38.6c0.1-0.3-0.4-0.5-0.5-0.2
	 				c-5.6,11.4-7.4,25.4-7.6,38c-0.3,13.6,2.4,27.3,6.8,40.1c4,11.6,9.5,22.7,16.8,32.2c1.9,0.3,3.8,0.5,5.6,0.8
	 				c-1-1.6-2-3.1-2.9-4.7C851.2,948.4,848.6,942.7,846.7,936.8z"/>
	 			<path fill="#091426" d="M759.4,863.8c1.4-13.7,9.5-25.2,14-37.9c0.2-0.4-0.5-0.7-0.7-0.3c-7.1,11.3-14.1,24.5-15.9,37.9
	 				c-1.7,13-0.9,26.8,1.6,39.7c2.2,11.2,6,22,11,32.2c2,0.8,3.9,1.6,5.9,2.4c-6-10.9-10.5-22.6-13.2-34.8
	 				C759.2,890.2,758,876.9,759.4,863.8z"/>
	 			<path fill="#091426" d="M684,860.3c0.2-4.3,0.9-8.6,1.8-12.9c0.5-2.3,1.2-4.6,1.5-6.9c2-7.9,4.1-15.9,8-23
	 				c4.7-8.6,11.4-14.7,19-20.7c-0.6-0.2-1.2-0.4-1.8-0.6c-13.6,7.4-21.4,22.2-25.6,36.5c-2.5,8.4-5.8,16.5-6.7,25.3
	 				c2,1.3,1.8,3.6-0.2,5.9c-0.1,0.1-0.1,0.1-0.2,0.2c-0.1,3.5,0,7,0.3,10.5c0.2,1.9,0.5,3.7,0.9,5.6c0.1,0.3,0.2,1,0.4,2
	 				c2.4,2.1,4.9,4.1,7.4,6.1c-0.8-2.5-1.4-5-2.1-7.5C685,873.9,683.6,867.3,684,860.3z"/>
	 			<path fill="#091426" d="M702,873.4c-2-18.9,1.8-36.7,8.3-54.2c1.6-3.2,3.3-6.4,4.9-9.7c0.4-0.8-0.6-1.7-1.3-1
	 				c-10.3,10.6-15.1,27.3-17.1,41.5c-1.3,9.5-1.3,19-0.1,28.3c0.2,4.6,1.2,9.2,2.1,13.3c0.4,1.8,0.8,3.5,1.3,5.2
	 				c3.2,2.4,6.5,4.7,9.9,6.9c-0.3-0.7-0.6-1.4-0.9-2.1C705.5,892.6,703,883.1,702,873.4z"/>
	 			<path fill="#091426" d="M673,869.8c-1.2,0.7-2.3,1.4-3.3,1.9c1.2,1.1,2.4,2.3,3.7,3.4c-0.1-1.4-0.2-2.7-0.3-4.1
	 				C673.1,870.6,673.1,870.2,673,869.8z"/>
	 			<path fill="#091426" d="M711.1,881.5c-2.2-9.9-2.7-19.4-2.9-29.5c0-0.5-0.8-0.7-0.9-0.1c-1.9,9.6-0.3,19.8,1.3,29.3
	 				c1.4,8.3,3,16.9,5.4,25.1c0.6,0.4,1.1,0.7,1.7,1.1c1.1,0.7,2.3,1.4,3.4,2.1c-0.4-1.1-0.7-2.1-1-3.1
	 				C715.3,898.2,713,889.9,711.1,881.5z"/>
	 			<path fill="#091426" d="M734,888.1c-1.4-8.9-1.4-18.1-0.5-27c0.9-8.4,2.9-16.8,5.6-24.8c2.9-8.4,4.7-17.2,8.9-25.1
	 				c0.3-0.5-0.5-1-0.8-0.5c-4.8,7.6-10.5,14.7-13.6,23.2c-3,8.5-5,17.3-6,26.3c-1.1,9.3-1,18.6,0.4,27.9c0.7,4.8,1.6,9.5,3,14.1
	 				c0.8,2.9,1.6,6.1,3.2,8.8c1,3.2,2.2,6.3,3.5,9.4c2.7,1.5,5.4,2.9,8.2,4.3c-1.1-2.4-2.2-4.9-3.2-7.3
	 				C738.9,907.8,736.5,898,734,888.1z"/>
	 			<path fill="#091426" d="M1240.7,798.6c3.6,12.7,5.5,25.4,5.6,38.6c0,0.2,0.4,0.2,0.4,0c1.4-13.3,0.1-27.3-3.9-40.1
	 				c-1.9-6.1-4.4-11.6-7.2-17.2c-2.5-4.8-5-10.5-8.6-14.9c-0.5,0.2-0.9,0.5-1.4,0.7c2.5,4.5,5.7,8.7,7.9,13.4
	 				C1236.6,785.3,1238.8,792.1,1240.7,798.6z"/>
	 			<path fill="#091426" d="M1237,772.6c2.7,4.2,4.8,8.6,7.1,13c0.2,0.3,0.7,0.1,0.6-0.2c-1.6-4.7-4-9.1-6.6-13.4
	 				c-1.7-2.9-3.7-6.8-6.3-9.5c-0.5,0.3-1,0.6-1.5,0.8c0.8,1.1,1.7,2.2,2.5,3.2C1234.2,768.5,1235.6,770.5,1237,772.6z"/>
	 			<path fill="#091426" d="M1185.7,842.1c0-0.4-0.7-0.5-0.8-0.1c-2.2,14.2-3.8,28.5-8.3,42.3c-2.2,6.8-5.2,13.1-8.7,19.3
	 				c1.2-4.6,1.7-9.5,2.7-14.1c1.2-5.2,2.6-10.5,3.5-15.8c1.7-9.9,2.4-19.9,3-29.9c0.7-10.1,1.3-20.3,0.6-30.4
	 				c-0.4-6.5-1-14.5-3.6-21h-0.1c0,0,0,8.4,0,26.8s-1.9,42.1-7.3,56.1c0,0-4,15-9.9,25.9c-3.6,6.7-5.5,11.1-6.1,13.7
	 				c0.9-0.4,1.8-0.8,2.8-1.2c3.9-6.9,10.6-19.9,10.6-19.9s-3.1,10-6.6,18.1c1.2-0.6,2.5-1.2,3.7-1.8c3.9-9.4,7.9-21.4,8.9-27.5
	 				c0,0-1.9,13.6-5.9,26c1.8-0.9,3.6-1.9,5.5-2.8c3.2-6.5,6.1-13.2,8.4-20.1C1182.5,871.6,1185.1,856.8,1185.7,842.1z"/>
	 			<path fill="#091426" d="M1204.1,853.5c0.4-8.9-0.8-18.2-3.1-26.8c-2.1-7.6-5.2-18.1-11.2-23.5c-0.2-0.2-0.5,0-0.4,0.2
	 				c1.5,5.3,4.7,10,6.6,15.2c2,5.5,3.5,11.2,4.4,17c0.7,4.4,0.9,8.7,0.9,13c-0.7,11.2-2.7,22.3-6.1,33.3c-1.3,3.9-2.6,7.8-4.1,11.6
	 				c1.8-1.1,3.6-2.2,5.3-3.3c0.8-2.7,1.8-5.4,2.5-8.1C1201.4,872.7,1203.7,863.1,1204.1,853.5z"/>
	 			<path fill="#091426" d="M1189.7,861.3c0-0.6-1-0.8-1.1-0.2c-2.6,11.7-4.5,22.8-9.4,33.8c-1.1,2.6-2.4,5.1-3.7,7.6
	 				c0.8-0.5,1.7-0.9,2.5-1.4c1-2,2-4.1,2.9-6.1C1185.3,884.7,1189.4,872.6,1189.7,861.3z"/>
	 			<path fill="#091426" d="M1229.3,841.7c0-2.8-0.2-5.6-0.5-8.3c0-0.4-0.1-0.8-0.1-1.2c-1.5-16.7-5.2-33.9-12.3-49.1
	 				c-0.2-0.4-0.8-0.1-0.7,0.3c5.3,14.5,9.6,29,11.4,44.4c0.5,4.2,0.8,8.4,0.9,12.6c-0.2,10.4-1.4,21.3-4.7,30.9
	 				c1.7-1.3,3.4-2.6,5.1-4c0.3-3,0.6-5.9,0.9-9C1229.5,852.8,1229.6,847.3,1229.3,841.7z"/>
	 			<path fill="#091426" d="M1282.6,733.1c4.1,7.8,9,14.8,12,23.2c1,2.9,1.9,5.9,2.6,8.9c0.1-1.3,0.1-2.7,0-4.1
	 				c-2.9-10.3-7.5-20.1-13.8-28.6C1283.1,732.1,1282.4,732.5,1282.6,733.1z"/>
	 			<path fill="#091426" d="M1284.7,758c-0.4-0.6-1.4-0.2-1.2,0.5c0.5,1.7,1.1,3.3,1.7,4.9c1.2,4.1,2.2,8.2,2.6,12.6
	 				c0.5,5.9,0.2,11.8-0.2,17.7c-0.2,2.2-0.4,4.5-0.6,6.7c1-2.1,2.1-4.1,3-6.2c0.9-1.9,1.7-3.9,2.4-5.9c-0.2-4.5-0.8-9-1.8-13.4
	 				C1289.4,769.2,1287.8,762.9,1284.7,758z"/>
	 			<path fill="#091426" d="M1276,791.1c-1.2-8.7-3.3-18.9-9-26.1c-0.4-0.8-0.9-1.5-1.5-2.1c-0.1-0.2-0.4,0-0.4,0.2v0.1
	 				c0,0,0,0,0,0.1c1.1,3.1,2.7,6,3.6,9.1c1,3.3,1.6,6.6,2.2,10c1.3,7.4,2,14.9,2,22.4c-0.1,7.5-1,14.9-3,22c3.2-4,6.2-8.2,9-12.4
	 				c-0.2-1.8-0.4-3.7-0.6-5.5C1277.4,803,1276.8,797,1276,791.1z"/>
	 			<path fill="#091426" d="M1262.8,812.5c-1.2-9.3-3.9-18.2-8.5-26.4c-0.1-0.4-0.2-0.7-0.3-1.1c-0.1-0.5-1-0.3-0.8,0.2
	 				c3.9,17.1,8.2,34.6,6.3,52.3c-0.1,0.6-0.2,1.1-0.2,1.7c1.7-1.8,3.3-3.6,4.9-5.5c-0.1-2.1-0.1-4.2-0.2-6.2
	 				C1263.8,822.5,1263.5,817.5,1262.8,812.5z"/>
	 		</g>
	 	</g>
	 	<g id="highlights_x5F_cropped" opacity="0.35">
	 		<g>
	 			<path fill="none" d="M1292.5,772.6c-0.8-4.2-1.7-8.2-3.1-12.2c-1.5-4.2-3.4-8.3-5.6-12.2c-2.1-3.6-4.9-7.2-6.3-11.1
	 				c-0.1-0.2,0.3-0.5,0.5-0.4c2.8,3.3,4.7,7.7,6.8,11.4c2,3.8,3.8,7.6,5.3,11.6c2.2,6.1,4.5,13,5,19.7c2.6-10.4,2.9-21.1,0.2-32.7
	 				c-0.1,0-0.2,0-0.4-0.1c-2.3-1.8-3.6-4.8-4.9-7.3c-0.7-1.4-1.4-2.9-2.2-4.2c-1-1.5-2.2-2.8-3.3-4.2c-0.1-0.2,0.1-0.6,0.3-0.5
	 				c2.3,1.6,4.1,4.4,5.6,6.7c1.4,2,2.8,4.2,4,6.3c-0.8-2.8-1.7-5.6-2.8-8.4c-2.8-7-5.5-12.7-11.3-20.4l-9.5-14.5l-35.2-20.3
	 				l-583.1,71.6l-22.7,26L616.4,807l18.9,27c23.7,30,49.4,53.6,80.4,73.4c36.9,23.6,76.5,39.2,118.5,47.5
	 				c24.5,4.9,49.9,7.3,76.2,7.8c-5.5-7.1-9.7-15.7-13.2-23.9c-6.8-15.7-11.2-33-11.5-50.1c-0.1-9.4,0-18.7,1.3-28
	 				c0.7-4.7,1.5-9.3,2.4-13.9c1-4.9,1.8-9.8,3.1-14.6c0.2-0.5,0.8-0.3,0.6,0.4c-0.9,5.3-2.3,10.6-3.3,16c-1,5.6-1.9,11.3-2.5,17
	 				c-1.9,17.3-0.2,34.7,4.2,51.6c2.2,8.3,5.1,16.5,8.7,24.3c3.4,7.4,7.9,14.2,11.9,21.3c22.9,0.4,46.4-0.6,70.6-2.8
	 				c35.6-3.1,69.4-10.4,102.9-20.4c18.6-5.5,35.7-12.5,53.5-19.7c36.3-14.7,71.1-36.1,101.6-62.8c20.3-17.7,38.3-38.2,49.3-63
	 				c1.5-3.4,2.8-6.8,3.9-10.3C1293.4,780.1,1293.2,776.3,1292.5,772.6z M1279.1,735.1c4.1,5.1,8.7,10.2,11,16.4
	 				c0.1,0.3-0.3,0.4-0.5,0.2c-4-5.2-6.8-11.2-11-16.2C1278.3,735.1,1278.8,734.7,1279.1,735.1z M739.5,807.4c-3,2.2-6.2,3.9-9.1,6.4
	 				c-2.7,2.3-5,5-7.4,7.5c-0.3,0.3-0.7,0-0.4-0.4c1.8-3.3,4.4-6.2,7.4-8.6c2.7-2.2,5.9-4.6,9.2-5.6
	 				C739.7,806.6,739.8,807.2,739.5,807.4z M715.1,821.4c-0.2,0.3-0.7,0-0.4-0.3c2.5-3.6,4.2-7.6,6.9-11c2.2-2.9,5.7-5.4,9-6.9
	 				c0.2-0.2,0.5,0.2,0.3,0.4c-2.9,2.6-6.1,4.6-8.6,7.6C719.7,814.4,717.2,818,715.1,821.4z M737.1,818.6c-1.4,4.9-3.8,9.7-5.4,14.6
	 				c-1.6,5-2,10.1-3.3,15.2c-0.1,0.3-0.5,0.2-0.5,0c-0.4-5.2,1.1-10.7,2.3-15.6c1.2-4.8,3-10.5,6.1-14.5
	 				C736.6,817.9,737.2,818.1,737.1,818.6z M745.1,807.8c-7.3,4.7-14,10.7-18.4,18.3c-5.1,8.8-6.6,18.2-6.5,28.2c0,0.3-0.4,0.4-0.6,0
	 				c-3.1-18.6,8-39.4,25.2-47C745.1,807.2,745.4,807.6,745.1,807.8z M746.7,846.6c1.1-3.9,2-7.6,3.7-11.3c1.6-3.5,3.5-6.9,5.8-10
	 				c4-5.3,9.5-10,15.7-12.5c0.3-0.1,0.5,0.4,0.2,0.5c-12.7,6.8-20.4,20.1-24.9,33.4C747,847,746.5,846.9,746.7,846.6z M752.7,856.4
	 				c0,0.4-0.7,0.6-0.8,0.1c-0.7-3.9,1-7.7,2.3-11.3c1.3-3.7,2.6-7.4,4-11c2.3-5.9,5.5-11.3,10.6-15.1c0.3-0.2,0.6,0.3,0.3,0.6
	 				c-5.2,3.9-7.6,10.1-9.8,16c-1.2,3.3-2.3,6.6-3.5,9.9C754.5,849.2,753.2,852.6,752.7,856.4z M778.9,827.6
	 				c-4.5,5.1-8.5,10.5-11.5,16.6c-3.4,6.9-5,14.4-6,22c-0.4,3.7-0.8,7.5-0.9,11.2c-0.1,4.4,0.7,8.4,1.3,12.7c0,0.5-0.6,0.9-0.9,0.4
	 				c-3.4-7.2-2.1-16.6-1.1-24.2c1-7.4,2.4-14.6,5.6-21.4c3-6.4,7.1-12.2,11.8-17.3s10.2-10.7,16.3-14c0.2-0.1,0.4,0.1,0.2,0.2
	 				C788.9,818.6,783.4,822.5,778.9,827.6z M802.9,815.4c-6.5,6.8-11.2,14.9-14.3,23.7c-5.8,16.2-6.4,33.9-4.6,50.9
	 				c0.9,8,2.5,16,5,23.8s6.4,14.7,10.3,21.9c0.3,0.6-0.5,1.2-0.9,0.7c-5.7-6.8-9.4-16-12-24.5c-5.1-16.6-6.4-34.9-4.4-52.2
	 				c2-16.7,8.1-33,20.5-44.7C802.8,814.8,803.2,815.2,802.9,815.4z M831.5,826.4c-6.1,5.9-10.2,13-13.3,20.9
	 				c-3.2,8-5.9,16.6-6.9,25.2c-1.2,9.1-1.5,18,0.2,27.1c1.6,8.7,4.6,17.3,7.6,25.5c0.1,0.3-0.3,0.4-0.3,0.2
	 				c-3.7-8.6-7.5-16.8-9.1-26.1c-1.5-8.9-1.3-18.4,0.5-27.3c3.4-16.4,8.1-34.2,20.4-46.4C831.2,824.9,832.1,825.8,831.5,826.4z
	 				 M835.7,821.8c-3.3,1.9-6.2,3.5-8.9,6.4c-2.5,2.8-4.7,6-6.8,9.2c-4.8,7.1-8.7,14.4-10.8,22.8c-2.1,8.2-2.7,16.7-2.7,25.1
	 				c0,8.6,0.3,17.3,4.1,25.2c0.1,0.2-0.2,0.4-0.5,0.2c-4.5-7.7-5.1-16.7-5.2-25.4c-0.1-8.8,0.6-17.7,2.9-26.3
	 				c2.3-8.8,6.5-16.3,11.6-23.8c3.7-5.3,9.1-13.2,16.1-14C835.9,821.2,835.9,821.7,835.7,821.8z M864.5,823.9
	 				c-13.9,13.8-18.1,33.9-17.9,52.8c0.2,9,1,18,3.4,26.6c1.2,4.3,2.8,8.4,4.6,12.5c1.9,4.1,4.4,7.6,7.3,11.1
	 				c0.3,0.4-0.2,0.9-0.7,0.4c-5.2-5.6-9.2-12.7-11.6-19.9c-4.8-14.2-5.8-30.3-4-45.2c1.8-14.6,7.2-28.8,18.2-39
	 				C864.3,822.8,864.9,823.5,864.5,823.9z M852,879.3c0,0.2-0.2,0.2-0.4,0c-1.5-2.7-1.5-6.4-1.7-9.4c-0.1-3.2,0.1-6.4,0.5-9.6
	 				c0.5-3.6,1.3-7.1,2.3-10.6c0.9-3.1,1.7-6.6,3.4-9.4c0.2-0.3,0.7-0.2,0.7,0.2c-0.3,3.1-1.5,6.2-2.4,9.2c-0.9,3.1-1.6,6.1-2.2,9.2
	 				c-0.7,3.5-1,7-1.1,10.6C851.1,872.8,852,876,852,879.3z M869.2,910c-2.1-7.4-2.5-15.5-2.7-23.2c-0.2-7.9,0-15.9,0.9-23.8
	 				c1.4-12.7,5.4-27.8,16.1-36c0.5-0.4,1,0.4,0.7,0.7c-4.5,5.2-8.2,10.6-10.7,17c-2.6,6.7-3.9,13.9-4.6,21
	 				c-0.7,7.4-0.9,14.7-0.6,22.1c0.4,7.4,1.6,14.7,2,22.1C870.3,910.5,869.4,910.6,869.2,910z M884.8,829.8
	 				c-3.7,5.4-4.7,12.7-6.4,18.9c-1.9,7-3.6,13.9-4.1,21.1c-1,13.7,0.7,28,3.7,41.3c0.1,0.4-0.5,0.7-0.7,0.3c-1.8-2.6-2.1-6-2.6-9
	 				c-0.6-3.6-1.1-7.2-1.5-10.8c-0.9-7.5-1.3-15.1-0.6-22.7c0.7-7.3,2.7-14.4,4.6-21.5c1.7-6.1,2.7-13.1,6.9-18.1
	 				C884.5,828.9,885.1,829.4,884.8,829.8z M902.1,926.8c-4.7-15.1-7.6-31-9.1-46.7c-1.5-15.5-1.8-31.9,1.2-47.2
	 				c0-0.2,0.3-0.1,0.3,0.1c-0.7,7.8-1.3,15.6-1.4,23.5c0,7.7,0.5,15.4,1.3,23.1c1.7,15.9,5.2,31.4,8.8,46.9
	 				C903.4,927.2,902.3,927.5,902.1,926.8z M1261,765c2.1,3.1,4.5,7.2,5,11c0.1,0.4-0.5,0.8-0.8,0.3c-1.8-3.5-2.8-7.1-5-10.4
	 				c-2.2-3.4-4.8-6.9-7.8-9.5c-0.2-0.2,0.1-0.4,0.3-0.2C1255.8,758.9,1258.7,761.5,1261,765z M1251.3,754.8L1251.3,754.8
	 				c0.2,0.2,0.6,0.2,0.8,0.4c0.2,0.1,0.3,0.2,0.4,0.4c0.2,0.3-0.1,0.5-0.4,0.4c-0.2-0.1-0.4-0.2-0.5-0.4
	 				C1251.5,755.4,1251.5,755.1,1251.3,754.8L1251.3,754.8z M1241.3,763.7c1.7,1.7,2.7,4.2,4.1,6.3c1.4,2.2,2.7,4.5,3.9,6.9
	 				c2.4,4.5,4.5,9.6,5.2,14.7c0.1,0.1-0.2,0.3-0.3,0.1c-2.3-4.7-4-9.8-6.1-14.6c-1-2.4-2.2-4.8-3.4-7.2c-1.1-2.1-2.8-3.9-3.7-6.1
	 				C1240.9,763.7,1241.2,763.6,1241.3,763.7z M1205.4,780.2c9.9,9.6,16.9,22.4,18.7,36.2c0.1,0.9-1.6,1.1-1.7,0.2
	 				c-1-6.9-2.5-13.1-5.7-19.4c-3.1-6-6.9-11.9-11.6-16.7C1204.9,780.3,1205.2,780,1205.4,780.2z M1189.9,787.8
	 				c2.5,1.7,3.9,5.2,4.8,8c1.1,3.5,1.6,7.3,1.7,10.9c0,0.5-0.8,0.6-0.9,0.1c-0.7-3.3-1.2-6.6-2.1-9.8s-2.6-5.9-3.8-8.9
	 				C1189.5,787.9,1189.7,787.8,1189.9,787.8z M1185.4,848.8c-0.1,0.2-0.4,0.1-0.4-0.1c0.5-12.2,0.9-24.8-2-36.8c0-0.1,0.1-0.2,0.2,0
	 				c1.8,6,3.4,11.9,3.8,18.3C1187.4,836.5,1187.1,842.7,1185.4,848.8z M1196.2,869.9c-0.1,0.3-0.7,0.4-0.8,0c-0.5-3.1,0-6.4,0-9.5
	 				s0-6.3-0.1-9.4c-0.2-6.6-1.3-13.3-2.7-19.7c-1.3-6.2-3.1-12.4-5.4-18.3c-2.4-6.4-5.4-12.3-8.5-18.3c-0.2-0.3,0.2-0.5,0.3-0.2
	 				c3.9,5.1,6.9,11.3,9.3,17.3c2.5,6.2,4.3,12.6,5.6,19.1c1.2,6.4,1.8,12.7,2.4,19.2c0.3,3.5,0.5,6.9,0.5,10.3
	 				C1196.8,863.5,1197.1,867,1196.2,869.9z M1201.7,820.2c-0.5-6.2-1.2-12.3-2.5-18.5c-0.6-2.7-1.2-5.4-2-8.1s-2.3-5.2-3.4-7.8
	 				c0-0.1,0.1-0.3,0.2-0.3c4,3.5,5.5,10.4,6.6,15.3c1.4,6.3,2.2,12.9,2.1,19.4C1202.7,820.8,1201.8,820.8,1201.7,820.2z
	 				 M1206.7,812.8c0,0.4-0.6,0.5-0.7,0.1c-2.6-9.3-4-20-9.7-28c-0.2-0.2,0.2-0.4,0.4-0.3c3,4,5.4,8.3,6.9,13.1
	 				c0.8,2.6,1.5,5.2,2.1,7.8C1206.2,807.9,1206.9,810.4,1206.7,812.8z M1224.2,848c-0.1,0.4-0.7,0.4-0.8,0c-0.8-2.5-0.5-5.5-0.6-8.2
	 				s-0.3-5.4-0.5-8.1c-0.5-5.8-1.4-11.5-3-17.1c-1.6-5.7-4-11-6.4-16.4c-2.1-4.7-4-9.3-7.6-13.1c-0.2-0.2,0.1-0.5,0.3-0.2
	 				c3.8,3.6,6.2,8.3,8.4,12.8c2.5,5.1,4.8,10.3,6.5,15.7c1.8,5.6,2.8,11.5,3.3,17.4c0.3,3,0.5,6,0.6,9
	 				C1224.5,842.4,1224.9,845.4,1224.2,848z M1234.8,790.5c-2.1-3-3.3-7-4.6-10.4c-1.4-3.5-2.7-7-4.9-10.1c-0.2-0.2,0.1-0.4,0.3-0.2
	 				c2.5,2.7,4,5.8,5.5,9.1c1.6,3.6,3.7,7.5,4.3,11.4C1235.4,790.6,1235,790.8,1234.8,790.5z M1254.8,814.2c0,0.5-0.8,0.6-1,0.1
	 				c-1.3-4.3-1.8-8.8-3-13.1c-1.2-4.4-2.8-8.6-4.4-12.8c-1.7-4.4-3.9-8.7-6.1-12.9c-0.9-1.9-1.9-3.7-2.9-5.5c-1.1-2.1-2.7-3.8-4-5.7
	 				c-0.1-0.1,0.2-0.4,0.2-0.2c3.4,2.4,5.7,6.9,7.6,10.4c2.3,4.2,4.3,8.6,6.3,13c2,4.3,3.6,8.7,4.9,13.3
	 				C1253.6,805,1255,809.7,1254.8,814.2z M1269.7,815.7c-0.1,0.7-1.3,0.7-1.4,0c-0.5-2.5-0.4-5.1-0.6-7.6c-0.2-2.8-0.5-5.5-0.8-8.3
	 				c-0.7-5.4-1.6-10.9-3.1-16.1c-1.6-5.3-3.7-10.3-6.4-15c-2.5-4.4-5.8-8.2-8.7-12.4c-0.1-0.3,0.3-0.5,0.5-0.3
	 				c3.8,3.3,6.9,8.2,9.4,12.6c2.6,4.6,4.7,9.4,6.3,14.4c1.8,5.4,3.1,11,3.9,16.7C1269.5,804.7,1270.5,810.6,1269.7,815.7z
	 				 M1271.7,760.7c-1.5-2.2-2.5-4.8-3.7-7.2c-1.1-2.2-2.5-4.2-3.4-6.4c-0.1,0,0-0.1,0.1,0c1.8,1.8,3.1,4.2,4.4,6.3
	 				c1.4,2.1,2.8,4.5,3.6,6.9C1273,760.9,1272,761.2,1271.7,760.7z M1273.9,752.5c-1.3-1.6-2.1-3.5-3.1-5.3c-0.9-1.7-2.1-3.5-2.6-5.4
	 				c0-0.1,0.1-0.2,0.1,0c1.6,1.2,2.6,3.1,3.6,4.8c1.1,1.7,2.2,3.5,2.8,5.4C1274.9,752.5,1274.2,752.9,1273.9,752.5z"/>
	 			<path fill="#E8FFFA" d="M1196.3,850.1c-0.6-6.5-1.2-12.8-2.4-19.2c-1.3-6.5-3.1-12.9-5.6-19.1c-2.4-6-5.4-12.2-9.3-17.3
	 				c-0.1-0.3-0.5-0.1-0.3,0.2c3.1,6,6.1,11.9,8.5,18.3c2.3,5.9,4.1,12.1,5.4,18.3c1.4,6.4,2.5,13.1,2.7,19.7
	 				c0.1,3.1,0.1,6.3,0.1,9.4s-0.5,6.4,0,9.5c0.1,0.4,0.7,0.3,0.8,0c0.9-2.9,0.6-6.4,0.6-9.5C1196.8,857,1196.6,853.6,1196.3,850.1z"
	 				/>
	 			<path fill="#E8FFFA" d="M1183.2,811.9c-0.1-0.2-0.2-0.1-0.2,0c2.9,12,2.5,24.6,2,36.8c0,0.2,0.3,0.3,0.4,0.1
	 				c1.7-6.1,2-12.3,1.6-18.6C1186.6,823.8,1185,817.9,1183.2,811.9z"/>
	 			<path fill="#E8FFFA" d="M1193.4,797c0.9,3.2,1.4,6.5,2.1,9.8c0.1,0.5,0.9,0.4,0.9-0.1c-0.1-3.6-0.6-7.4-1.7-10.9
	 				c-0.9-2.8-2.3-6.3-4.8-8c-0.2,0-0.4,0.1-0.3,0.3C1190.8,791.1,1192.5,793.8,1193.4,797z"/>
	 			<path fill="#E8FFFA" d="M1194,785.5c-0.1,0-0.2,0.2-0.2,0.3c1.1,2.6,2.6,5.1,3.4,7.8s1.4,5.4,2,8.1c1.3,6.2,2,12.3,2.5,18.5
	 				c0.1,0.6,1,0.6,1,0c0.1-6.5-0.7-13.1-2.1-19.4C1199.5,795.9,1198,789,1194,785.5z"/>
	 			<path fill="#E8FFFA" d="M1203.6,797.7c-1.5-4.8-3.9-9.1-6.9-13.1c-0.2-0.1-0.6,0.1-0.4,0.3c5.7,8,7.1,18.7,9.7,28
	 				c0.1,0.4,0.7,0.3,0.7-0.1c0.2-2.4-0.5-4.9-1-7.3C1205.1,802.9,1204.4,800.3,1203.6,797.7z"/>
	 			<path fill="#E8FFFA" d="M1223.8,830.8c-0.5-5.9-1.5-11.8-3.3-17.4c-1.7-5.4-4-10.6-6.5-15.7c-2.2-4.5-4.6-9.2-8.4-12.8
	 				c-0.2-0.3-0.5,0-0.3,0.2c3.6,3.8,5.5,8.4,7.6,13.1c2.4,5.4,4.8,10.7,6.4,16.4c1.6,5.6,2.5,11.3,3,17.1c0.2,2.7,0.4,5.4,0.5,8.1
	 				c0.1,2.7-0.2,5.7,0.6,8.2c0.1,0.4,0.7,0.4,0.8,0c0.7-2.6,0.3-5.6,0.2-8.2C1224.3,836.8,1224.1,833.8,1223.8,830.8z"/>
	 			<path fill="#E8FFFA" d="M1216.7,797.2c3.2,6.3,4.7,12.5,5.7,19.4c0.1,0.9,1.8,0.7,1.7-0.2c-1.8-13.8-8.8-26.6-18.7-36.2
	 				c-0.2-0.2-0.5,0.1-0.3,0.3C1209.8,785.3,1213.6,791.2,1216.7,797.2z"/>
	 			<path fill="#E8FFFA" d="M1225.6,769.8c-0.2-0.2-0.5,0-0.3,0.2c2.2,3.1,3.5,6.6,4.9,10.1c1.3,3.4,2.5,7.4,4.6,10.4
	 				c0.2,0.3,0.6,0.1,0.6-0.2c-0.6-3.9-2.7-7.8-4.3-11.4C1229.6,775.6,1228.1,772.5,1225.6,769.8z"/>
	 			<path fill="#E8FFFA" d="M1247.5,787.5c-2-4.4-4-8.8-6.3-13c-1.9-3.5-4.2-8-7.6-10.4c0-0.2-0.3,0.1-0.2,0.2c1.3,1.9,2.9,3.6,4,5.7
	 				c1,1.8,2,3.6,2.9,5.5c2.2,4.2,4.4,8.5,6.1,12.9c1.6,4.2,3.2,8.4,4.4,12.8c1.2,4.3,1.7,8.8,3,13.1c0.2,0.5,1,0.4,1-0.1
	 				c0.2-4.5-1.2-9.2-2.4-13.4C1251.1,796.2,1249.5,791.8,1247.5,787.5z"/>
	 			<path fill="#E8FFFA" d="M1244.7,769.9c1.2,2.4,2.4,4.8,3.4,7.2c2.1,4.8,3.8,9.9,6.1,14.6c0.1,0.2,0.4,0,0.3-0.1
	 				c-0.7-5.1-2.8-10.2-5.2-14.7c-1.2-2.4-2.5-4.7-3.9-6.9c-1.4-2.1-2.4-4.6-4.1-6.3c-0.1-0.1-0.4,0-0.3,0.1
	 				C1241.9,766,1243.6,767.8,1244.7,769.9z"/>
	 			<path fill="#E8FFFA" d="M1264.9,783c-1.6-5-3.7-9.8-6.3-14.4c-2.5-4.4-5.6-9.3-9.4-12.6c-0.2-0.2-0.6,0-0.5,0.3
	 				c2.9,4.2,6.2,8,8.7,12.4c2.7,4.7,4.8,9.7,6.4,15c1.5,5.2,2.4,10.7,3.1,16.1c0.3,2.8,0.6,5.5,0.8,8.3c0.2,2.5,0.1,5.1,0.6,7.6
	 				c0.1,0.7,1.3,0.7,1.4,0c0.8-5.1-0.2-11-0.9-16C1268,794,1266.7,788.4,1264.9,783z"/>
	 			<path fill="none" d="M1251.3,754.9C1251.3,754.8,1251.3,754.8,1251.3,754.9"/>
	 			<path fill="#E8FFFA" d="M1252.1,756c0.3,0.1,0.6-0.1,0.4-0.4c-0.1-0.2-0.2-0.3-0.4-0.4c-0.2-0.2-0.6-0.2-0.8-0.3
	 				c0.2,0.2,0.2,0.5,0.3,0.7C1251.7,755.8,1251.9,755.9,1252.1,756z"/>
	 			<path fill="#E8FFFA" d="M1252.4,756.4c3,2.6,5.6,6.1,7.8,9.5c2.2,3.3,3.2,6.9,5,10.4c0.3,0.5,0.9,0.1,0.8-0.3
	 				c-0.5-3.8-2.9-7.9-5-11c-2.3-3.5-5.2-6.1-8.3-8.8C1252.5,756,1252.2,756.2,1252.4,756.4z"/>
	 			<path fill="#E8FFFA" d="M1269.1,753.4c-1.3-2.1-2.6-4.5-4.4-6.3c-0.1-0.1-0.2,0-0.1,0c0.9,2.2,2.3,4.2,3.4,6.4
	 				c1.2,2.4,2.2,5,3.7,7.2c0.3,0.5,1.3,0.2,1-0.4C1271.9,757.9,1270.5,755.5,1269.1,753.4z"/>
	 			<path fill="#E8FFFA" d="M1271.9,746.6c-1-1.7-2-3.6-3.6-4.8c0-0.2-0.1-0.1-0.1,0c0.5,1.9,1.7,3.7,2.6,5.4c1,1.8,1.8,3.7,3.1,5.3
	 				c0.3,0.4,1,0,0.8-0.5C1274.1,750.1,1273,748.3,1271.9,746.6z"/>
	 			<path fill="#E8FFFA" d="M1284.8,748.1c-2.1-3.7-4-8.1-6.8-11.4c-0.2-0.1-0.6,0.2-0.5,0.4c1.4,3.9,4.2,7.5,6.3,11.1
	 				c2.2,3.9,4.1,8,5.6,12.2c1.4,4,2.3,8,3.1,12.2c0.7,3.7,0.9,7.5,1.4,11.3c0.5-1.5,0.9-2.9,1.2-4.4c-0.5-6.7-2.8-13.7-5-19.7
	 				C1288.6,755.7,1286.8,751.9,1284.8,748.1z"/>
	 			<path fill="#E8FFFA" d="M1289.6,751.7c0.2,0.2,0.6,0.1,0.5-0.2c-2.3-6.2-6.9-11.3-11-16.4c-0.3-0.4-0.8,0-0.5,0.4
	 				C1282.8,740.5,1285.6,746.5,1289.6,751.7z"/>
	 			<path fill="#E8FFFA" d="M1284.9,730.4c-0.2-0.1-0.4,0.3-0.3,0.5c1.1,1.4,2.3,2.7,3.3,4.2c0.8,1.3,1.5,2.8,2.2,4.2
	 				c1.3,2.5,2.6,5.5,4.9,7.3c0.1,0.1,0.2,0.1,0.4,0.1c-0.3-1.1-0.5-2.2-0.9-3.3c-1.2-2.2-2.6-4.3-4-6.3
	 				C1289,734.8,1287.2,732,1284.9,730.4z"/>
	 			<path fill="#E8FFFA" d="M894.4,879.6c-0.8-7.7-1.3-15.4-1.3-23.1c0.1-7.9,0.7-15.7,1.4-23.5c0-0.2-0.3-0.3-0.3-0.1
	 				c-3,15.3-2.7,31.7-1.2,47.2c1.5,15.7,4.4,31.6,9.1,46.7c0.2,0.7,1.3,0.4,1.1-0.3C899.6,911,896.1,895.5,894.4,879.6z"/>
	 			<path fill="#E8FFFA" d="M891.4,917.2c-4.4-16.9-6.1-34.3-4.2-51.6c0.6-5.7,1.5-11.4,2.5-17c1-5.4,2.4-10.7,3.3-16
	 				c0.2-0.7-0.4-0.9-0.6-0.4c-1.3,4.8-2.1,9.7-3.1,14.6c-0.9,4.6-1.7,9.2-2.4,13.9c-1.3,9.3-1.4,18.6-1.3,28
	 				c0.3,17.1,4.7,34.4,11.5,50.1c3.5,8.2,7.7,16.8,13.2,23.9c0.6,0,1.1,0,1.7,0c-4-7.1-8.5-13.8-11.9-21.3
	 				C896.5,933.7,893.6,925.5,891.4,917.2z"/>
	 			<path fill="#E8FFFA" d="M884.1,829.3c-4.2,5-5.2,12-6.9,18.1c-1.9,7.1-3.9,14.2-4.6,21.5c-0.7,7.6-0.3,15.2,0.6,22.7
	 				c0.4,3.6,0.9,7.2,1.5,10.8c0.5,3,0.8,6.4,2.6,9c0.2,0.4,0.8,0.1,0.7-0.3c-3-13.3-4.7-27.6-3.7-41.3c0.5-7.2,2.2-14.1,4.1-21.1
	 				c1.7-6.2,2.7-13.5,6.4-18.9C885.1,829.4,884.5,828.9,884.1,829.3z"/>
	 			<path fill="#E8FFFA" d="M868.9,865.7c0.7-7.1,2-14.3,4.6-21c2.5-6.4,6.2-11.8,10.7-17c0.3-0.3-0.2-1.1-0.7-0.7
	 				c-10.7,8.2-14.7,23.3-16.1,36c-0.9,7.9-1.1,15.9-0.9,23.8c0.2,7.7,0.6,15.8,2.7,23.2c0.2,0.6,1.1,0.5,1.1-0.1
	 				c-0.4-7.4-1.6-14.7-2-22.1C868,880.4,868.2,873.1,868.9,865.7z"/>
	 			<path fill="#E8FFFA" d="M863.8,823.2c-11,10.2-16.4,24.4-18.2,39c-1.8,14.9-0.8,31,4,45.2c2.4,7.2,6.4,14.3,11.6,19.9
	 				c0.5,0.5,1,0,0.7-0.4c-2.9-3.5-5.4-7-7.3-11.1c-1.8-4.1-3.4-8.2-4.6-12.5c-2.4-8.6-3.2-17.6-3.4-26.6c-0.2-18.9,4-39,17.9-52.8
	 				C864.9,823.5,864.3,822.8,863.8,823.2z"/>
	 			<path fill="#E8FFFA" d="M854.4,849.7c0.9-3,2.1-6.1,2.4-9.2c0-0.4-0.5-0.5-0.7-0.2c-1.7,2.8-2.5,6.3-3.4,9.4
	 				c-1,3.5-1.8,7-2.3,10.6c-0.4,3.2-0.6,6.4-0.5,9.6c0.2,3,0.2,6.7,1.7,9.4c0.2,0.2,0.4,0.2,0.4,0c0-3.3-0.9-6.5-0.9-9.8
	 				c0.1-3.6,0.4-7.1,1.1-10.6C852.8,855.8,853.5,852.8,854.4,849.7z"/>
	 			<path fill="#E8FFFA" d="M835.5,821.2c-7,0.8-12.4,8.7-16.1,14c-5.1,7.5-9.3,15-11.6,23.8c-2.3,8.6-3,17.5-2.9,26.3
	 				c0.1,8.7,0.7,17.7,5.2,25.4c0.3,0.2,0.6,0,0.5-0.2c-3.8-7.9-4.1-16.6-4.1-25.2c0-8.4,0.6-16.9,2.7-25.1c2.1-8.4,6-15.7,10.8-22.8
	 				c2.1-3.2,4.3-6.4,6.8-9.2c2.7-2.9,5.6-4.5,8.9-6.4C835.9,821.7,835.9,821.2,835.5,821.2z"/>
	 			<path fill="#E8FFFA" d="M830.6,825.5c-12.3,12.2-17,30-20.4,46.4c-1.8,8.9-2,18.4-0.5,27.3c1.6,9.3,5.4,17.5,9.1,26.1
	 				c0,0.2,0.4,0.1,0.3-0.2c-3-8.2-6-16.8-7.6-25.5c-1.7-9.1-1.4-18-0.2-27.1c1-8.6,3.7-17.2,6.9-25.2c3.1-7.9,7.2-15,13.3-20.9
	 				C832.1,825.8,831.2,824.9,830.6,825.5z"/>
	 			<path fill="#E8FFFA" d="M802.5,815c-12.4,11.7-18.5,28-20.5,44.7c-2,17.3-0.7,35.6,4.4,52.2c2.6,8.5,6.3,17.7,12,24.5
	 				c0.4,0.5,1.2-0.1,0.9-0.7c-3.9-7.2-7.8-14.1-10.3-21.9s-4.1-15.8-5-23.8c-1.8-17-1.2-34.7,4.6-50.9c3.1-8.8,7.8-16.9,14.3-23.7
	 				C803.2,815.2,802.8,814.8,802.5,815z"/>
	 			<path fill="#E8FFFA" d="M793.5,813.6c-6.1,3.3-11.6,8.9-16.3,14s-8.8,10.9-11.8,17.3c-3.2,6.8-4.6,14-5.6,21.4
	 				c-1,7.6-2.3,17,1.1,24.2c0.3,0.5,0.9,0.1,0.9-0.4c-0.6-4.3-1.4-8.3-1.3-12.7c0.1-3.7,0.5-7.5,0.9-11.2c1-7.6,2.6-15.1,6-22
	 				c3-6.1,7-11.5,11.5-16.6s10-9,14.8-13.8C793.9,813.7,793.7,813.5,793.5,813.6z"/>
	 			<path fill="#E8FFFA" d="M769.1,819.7c0.3-0.3,0-0.8-0.3-0.6c-5.1,3.8-8.3,9.2-10.6,15.1c-1.4,3.6-2.7,7.3-4,11
	 				c-1.3,3.6-3,7.4-2.3,11.3c0.1,0.5,0.8,0.3,0.8-0.1c0.5-3.8,1.8-7.2,3.1-10.8c1.2-3.3,2.3-6.6,3.5-9.9
	 				C761.5,829.8,763.9,823.6,769.1,819.7z"/>
	 			<path fill="#E8FFFA" d="M772.1,813.3c0.3-0.1,0.1-0.6-0.2-0.5c-6.2,2.5-11.7,7.2-15.7,12.5c-2.3,3.1-4.2,6.5-5.8,10
	 				c-1.7,3.7-2.6,7.4-3.7,11.3c-0.2,0.3,0.3,0.4,0.5,0.1C751.7,833.4,759.4,820.1,772.1,813.3z"/>
	 			<path fill="#E8FFFA" d="M736.3,818.3c-3.1,4-4.9,9.7-6.1,14.5c-1.2,4.9-2.7,10.4-2.3,15.6c0,0.2,0.4,0.3,0.5,0
	 				c1.3-5.1,1.7-10.2,3.3-15.2c1.6-4.9,4-9.7,5.4-14.6C737.2,818.1,736.6,817.9,736.3,818.3z"/>
	 			<path fill="#E8FFFA" d="M744.8,807.3c-17.2,7.6-28.3,28.4-25.2,47c0.2,0.4,0.6,0.3,0.6,0c-0.1-10,1.4-19.4,6.5-28.2
	 				c4.4-7.6,11.1-13.6,18.4-18.3C745.4,807.6,745.1,807.2,744.8,807.3z"/>
	 			<path fill="#E8FFFA" d="M722.6,820.9c-0.3,0.4,0.1,0.7,0.4,0.4c2.4-2.5,4.7-5.2,7.4-7.5c2.9-2.5,6.1-4.2,9.1-6.4
	 				c0.3-0.2,0.2-0.8-0.3-0.7c-3.3,1-6.5,3.4-9.2,5.6C727,814.7,724.4,817.6,722.6,820.9z"/>
	 			<path fill="#E8FFFA" d="M730.9,803.6c0.2-0.2-0.1-0.6-0.3-0.4c-3.3,1.5-6.8,4-9,6.9c-2.7,3.4-4.4,7.4-6.9,11
	 				c-0.3,0.3,0.2,0.6,0.4,0.3c2.1-3.4,4.6-7,7.2-10.2C724.8,808.2,728,806.2,730.9,803.6z"/>
	 		</g>
	 	</g>
	 </g>
</svg>
