<?xml version="1.0" encoding="utf-8"?>
<!-- Generator: Adobe Illustrator 21.0.2, SVG Export Plug-In . SVG Version: 6.00 Build 0)  -->
<svg version="1.1" id="Layer_1" xmlns="http://www.w3.org/2000/svg" xmlns:xlink="http://www.w3.org/1999/xlink" x="0px" y="0px"
	 viewBox="0 0 2000 2000" enable-background="new 0 0 2000 2000" xml:space="preserve">
<g>
	<path fill="#9F592A" d="M1218.5,812.6c-5.1-3.1-12.6,2.3-21,12.2c-0.3,0.3-0.5,0.6-0.8,0.9c-0.1,0.1-0.1,0.2-0.2,0.3
		c-0.1,0.2-0.3,0.4-0.4,0.6c-0.1,0.1-0.2,0.2-0.2,0.3c-0.1,0.2-0.2,0.3-0.3,0.5c-0.1,0.1-0.1,0.2-0.2,0.3s-0.2,0.3-0.3,0.4
		c-0.1,0.1-0.1,0.2-0.2,0.3s-0.2,0.3-0.2,0.4c-0.1,0.1-0.1,0.2-0.1,0.2c-0.1,0.1-0.1,0.2-0.2,0.3c0,0.1-0.1,0.1-0.1,0.2
		c-0.1,0.1-0.1,0.2-0.2,0.3c0,0.1,0,0.1-0.1,0.2c0,0.1-0.1,0.2-0.1,0.3v0.1c0,0.1-0.1,0.2-0.1,0.3v0.1c0,0.1,0,0.2,0,0.3v0.1
		c0,0.1,0,0.2,0,0.2s0,0,0,0.1s0,0.1,0.1,0.2l0,0c0,0.1,0.1,0.1,0.1,0.2l0,0c0,0,0.1,0.1,0.2,0.1l0,0c0.1,0,0.1,0.1,0.2,0.1l0,0
		c0.1,0,0.2,0,0.3,0l0,0c1.4,0.1,4.2-1.6,6.4-4.3c4.5-5.6,9.9-12.6,14-2.2s-3.5,28.2-11.5,36s-18.4,15.4-33.5,1.7s-8.3-28.6,0-38
		s19.8-15.6,28-18.2c0.8-0.2,1.5-0.4,2.1-0.6c0.1,0,0.2,0,0.3-0.1c0.1,0,0.2,0,0.3-0.1c0.1,0,0.2,0,0.3-0.1c0.1,0,0.2,0,0.3,0
		c0.1,0,0.2,0,0.3-0.1c0.1,0,0.2,0,0.2,0c0.1,0,0.2,0,0.3,0c0.1,0,0.1,0,0.2,0s0.2,0,0.3,0c0.1,0,0.1,0,0.2,0s0.2,0,0.4,0h0.1
		c0.9-0.1,1.7-0.1,2.3-0.3h0.1c0.1,0,0.2,0,0.2,0h0.1c0.1,0,0.1,0,0.2-0.1h0.1c0.1,0,0.1,0,0.2-0.1h0.1c0.1,0,0.1,0,0.1-0.1
		c0,0,0.1,0,0.1-0.1l0.1-0.1c0,0,0.1,0,0.1-0.1l0.1-0.1c0,0,0.1,0,0.1-0.1l0.1-0.1c0,0,0,0,0.1-0.1c0-0.1,0.1-0.1,0.1-0.2l0,0
		c0-0.1,0.1-0.2,0.1-0.3v-0.1c0-0.1,0.1-0.1,0.1-0.2v-0.1c0-0.1,0-0.1,0.1-0.2c0-0.1,0-0.1,0-0.2c0-0.1,0-0.2,0-0.2
		c0-0.1,0-0.1,0-0.2c0-0.1,0-0.2,0-0.3s0-0.1,0-0.2c0-0.1,0-0.2,0-0.3s0-0.2,0-0.2c0-0.1,0-0.2,0-0.3s0-0.2,0-0.3s0-0.3,0-0.4
		c0-0.1,0-0.2,0-0.3s0-0.3,0-0.5c0-0.1,0-0.2,0-0.2c0-0.2,0-0.5,0-0.8s0-0.6,0-0.9c0-0.1,0-0.2,0-0.3c0-0.3,0-0.7-0.1-1.1
		c0-0.2,0-0.3,0-0.5s0-0.4,0-0.7c0-0.2,0-0.4,0-0.5c0-0.2,0-0.5,0-0.7s0-0.4,0-0.6c0-0.2,0-0.5,0-0.8c0-0.2,0-0.4,0-0.6
		c0-0.3,0-0.5-0.1-0.8c0-0.2,0-0.5,0-0.7c0-0.3,0-0.5-0.1-0.8l0,0c-0.3-3.7-0.8-8.1-1.6-12.8l0,0c-0.2-1.3-0.5-2.6-0.7-4l0,0l0,0
		c-0.4-2.2-1-4.4-1.6-6.6l0,0l0,0c-0.2-0.6-0.4-1.3-0.5-1.9l0,0c-0.7-2.5-1.5-5-2.5-7.6c-0.1-0.2-0.1-0.3-0.2-0.5
		c-0.2-0.5-0.4-1-0.6-1.4c-0.1-0.3-0.2-0.5-0.3-0.8c-0.2-0.4-0.4-0.9-0.6-1.3c-0.1-0.3-0.3-0.6-0.4-0.9c-0.2-0.4-0.4-0.8-0.6-1.2
		s-0.3-0.7-0.5-1.1c-0.2-0.4-0.3-0.7-0.5-1.1c-0.3-0.7-0.7-1.4-1.1-2c-0.1-0.3-0.3-0.5-0.4-0.8c-0.3-0.5-0.5-0.9-0.8-1.4
		c-0.2-0.3-0.3-0.6-0.5-0.9c-0.3-0.4-0.5-0.9-0.8-1.3c-0.2-0.3-0.4-0.6-0.6-0.9c-0.3-0.4-0.6-0.9-0.9-1.3c-0.2-0.3-0.4-0.5-0.6-0.8
		c-0.3-0.5-0.7-0.9-1-1.4c-0.2-0.2-0.3-0.5-0.5-0.7c-0.5-0.7-1-1.3-1.6-2c0,0-3.6-6.1-26.2-3.3c-1.9,0.2-4,0.5-6.3,0.8
		c-0.1,0-0.2,0-0.3,0c-0.7,0.1-1.3,0.2-2,0.3c-0.2,0-0.3,0-0.5,0.1c-0.7,0.1-1.4,0.2-2.1,0.3c-0.2,0-0.3,0-0.5,0.1
		c-0.7,0.1-1.5,0.2-2.2,0.3c-0.2,0-0.3,0-0.5,0.1c-0.8,0.1-1.5,0.2-2.3,0.4c-0.2,0-0.3,0.1-0.5,0.1c-0.8,0.1-1.6,0.3-2.4,0.4
		c-0.2,0-0.3,0.1-0.5,0.1c-0.8,0.1-1.6,0.3-2.5,0.5c-0.2,0-0.3,0.1-0.5,0.1c-0.8,0.2-1.7,0.3-2.6,0.5c-0.2,0-0.3,0.1-0.5,0.1
		c-0.9,0.2-1.8,0.4-2.7,0.6c-0.2,0-0.3,0.1-0.5,0.1c-0.9,0.2-1.8,0.4-2.8,0.6c-0.2,0-0.3,0.1-0.5,0.1c-0.9,0.2-1.9,0.5-2.9,0.7
		c-0.1,0-0.3,0.1-0.4,0.1c-1,0.3-2,0.5-3,0.8c-0.1,0-0.2,0.1-0.4,0.1c-1,0.3-2.1,0.6-3.1,0.9c-0.1,0-0.2,0-0.2,0.1
		c-1.1,0.3-2.2,0.7-3.3,1h0.1c-4.2,1.4-8.6,2.9-13,4.7c0,0,0,0-0.1,0c-0.6,0.2-1.2,0.5-1.8,0.8c-0.5,0.2-1.1,0.4-1.6,0.7
		c-0.9,0.4-1.8,0.8-2.7,1.2c-0.4,0.2-0.8,0.4-1.2,0.6c-1,0.5-2.1,1-3.1,1.5c-0.3,0.1-0.6,0.3-0.8,0.4c-1.3,0.7-2.7,1.4-4,2.1
		c0,0-0.1,0-0.1,0.1c-6.6,3.6-13.3,7.8-19.9,12.8l0,0l0,0c-2.4,1.8-4.8,3.7-7.2,5.8l0,0l0,0c-1.5,1.2-2.9,2.5-4.3,3.8
		c-0.6,0.5-1.2,1.1-1.8,1.7c-0.5,0.4-0.9,0.9-1.4,1.3c-1.1,1.1-2.2,2.2-3.3,3.3c0,0-0.1,0-0.3-0.1c-0.1,0-0.3-0.1-0.5-0.2h-0.1
		c-0.4-0.1-1-0.3-1.7-0.5l0,0c-0.3-0.1-0.5-0.2-0.8-0.2c-0.1,0-0.2-0.1-0.3-0.1c-0.3-0.1-0.6-0.2-0.9-0.3c-0.1,0-0.2,0-0.2-0.1
		c-0.2-0.1-0.5-0.1-0.7-0.2c-0.2,0-0.3-0.1-0.5-0.1c-0.3-0.1-0.6-0.2-0.9-0.3c-0.2-0.1-0.4-0.1-0.6-0.2c-0.2-0.1-0.4-0.1-0.6-0.2
		c-0.2-0.1-0.4-0.1-0.6-0.2c-0.4-0.1-0.7-0.2-1.1-0.3c-0.2-0.1-0.4-0.1-0.7-0.2c-0.2-0.1-0.5-0.1-0.7-0.2c-0.4-0.1-0.8-0.2-1.2-0.3
		c-0.2-0.1-0.4-0.1-0.7-0.2c-0.3-0.1-0.6-0.2-0.9-0.2c-0.2-0.1-0.4-0.1-0.7-0.2c-0.5-0.1-1-0.3-1.4-0.4c-0.2-0.1-0.5-0.1-0.7-0.2
		c-0.3-0.1-0.6-0.2-1-0.3c-0.2-0.1-0.4-0.1-0.7-0.2c-0.5-0.1-1.1-0.3-1.7-0.4c-0.2-0.1-0.5-0.1-0.7-0.2c-0.3-0.1-0.7-0.2-1-0.3
		s-0.5-0.1-0.8-0.2c-0.6-0.1-1.1-0.3-1.7-0.5c-0.2-0.1-0.5-0.1-0.7-0.2c-0.4-0.1-0.8-0.2-1.3-0.3c-0.4-0.1-0.9-0.2-1.3-0.3
		c-0.3-0.1-0.7-0.2-1-0.3s-0.6-0.2-0.9-0.2c-0.5-0.1-1.1-0.3-1.6-0.4c-0.4-0.1-0.7-0.2-1.1-0.3c-0.3-0.1-0.7-0.2-1-0.3
		c-0.4-0.1-0.8-0.2-1.1-0.3c-0.4-0.1-0.9-0.2-1.3-0.3c-0.4-0.1-0.8-0.2-1.3-0.3c-0.3-0.1-0.7-0.2-1-0.2c-0.5-0.1-0.9-0.2-1.4-0.3
		c-0.4-0.1-0.8-0.2-1.2-0.3c-0.3-0.1-0.6-0.1-0.8-0.2l0,0c-9.4-2.2-19.2-4.3-27.8-5.6c-28.6-4.5-76.4,1.6-91,11.1
		s-30.4,19.6-29.2,45.7s17.5,29.4,26.4,45.8c9,16.3,7.7,29.3-6.9,33.7s-23.8-3.5-33-19.2s-6.6-19-0.8-17.2s9.6,7.4,12.8,10
		s1.1-7.8-11.2-14s-20.8,3.1-23.2,9.8s-4.4,18.9,15.9,44.4c11.2,14.1,25.9,24.9,47.6,26.6c21.8,1.8,62.1-16.2,77.5-30.6
		s20.4-16.2,11.5-27.5s-21.2-21-24.2-29.2s-2.8-23.5,11.5-37.8c0,0,1.1-2.2,9.2,2.2c8.1,4.5,37.5,13.3,68.5,6s49.7-12.9,74.1-40.5
		c0,0,16.9-1.5,17.2,15.2s-11,31-16.2,38.5s-14.1,23.5-15.3,27.2s2.9,8,14.5,15.5c6.7,4.3,22.3,10.1,38.5,11.5l0,0
		c5.3,0.5,10.7,0.5,15.8-0.1l0,0c0.7-0.1,1.5-0.2,2.2-0.3l0,0c0.8-0.1,1.5-0.3,2.3-0.4l0,0c1.1-0.2,2.1-0.5,3.2-0.8
		c0.1,0,0.2-0.1,0.3-0.1c0.4-0.1,0.9-0.3,1.3-0.4c0.3-0.1,0.5-0.2,0.8-0.3c0.4-0.1,0.7-0.2,1.1-0.4c0.6-0.2,1.2-0.5,1.8-0.7
		c0.2-0.1,0.4-0.2,0.7-0.3c0.5-0.2,0.9-0.4,1.4-0.7c0.2-0.1,0.4-0.2,0.6-0.3c0.6-0.3,1.2-0.7,1.8-1.1c21.8-13.5,31.2-28.1,35.2-42.2
		S1223.6,815.7,1218.5,812.6z"/>
	<g>
		<path opacity="0.3" fill="#091426" enable-background="new    " d="M1154.8,892.6c-13-5.5-38.2-18.2-35.3-31.9
			c3.9-18.3,16.8-29.8,27.1-41.3c8-9,12-14,13.4-17c7.4-6.5,13.7-14.6,7.6-23.4c-4-5.9-11.1-9.4-17.3-12.5
			c-7.2-3.7-14.8-6.2-22.6-8.2c-0.4-0.1-0.5,0.5-0.2,0.6c12,3.1,24,8.3,34.1,15.7c8.1,5.9,8.9,14.3,2.1,21.7c-1,1.1-2.1,2.1-3.2,3.1
			c0-1.8-0.2-4.7-2.9-8c-1.9-7.4-7.8-12.5-15.9-15.3c-6.8-2.4-14.1-4-21.2-5.2c-5.6-1-10.9-1.1-16.4-1.2
			c-10.1-6.2-19.9-6.5-35.7-3.2c-2.4,1.8-4.8,3.7-7.2,5.8c7-1.9,16.2-3.5,24.7-2.3c5.9,0.8,10.8,2.8,14.5,5.2
			c-6.9-2.3-15.1-2.7-21.4-3.8c-0.4-0.1-0.5,0.5-0.1,0.6c5.7,0.7,11.4,2.4,16.8,4.4c3.2,1.2,6.2,3,9.2,4.5c1.4,1.2,2.7,2.1,2.9,4
			c0.3,3.5-4.1,6-7.3,6.8c-1.8-2.7-4.4-5.2-6.7-6.9c-4-3.1-9.8-6.3-14.8-7.1c-0.3,0-0.5,0.3-0.2,0.5c2,1.4,4.4,2.1,6.6,3.3
			c2.4,1.4,4.8,3.1,7,4.8c2.7,2.2,4.5,5,6.5,7.7c-0.6,4.2-8.4,9.2-11.3,10.9c-2.7,1.6-5.4,1.7-8.1,2.2c-0.7-2.1-2.1-4.1-3.2-5.8
			c-2.1-3.4-4.3-6.1-6.8-9.1c-0.3-0.3-0.8,0.1-0.5,0.5c2.4,2.9,4.7,6.9,6.1,10.4c0.6,1.5,0.9,3.2,1.5,4.8c-1.6,0.6-2.6,2.4-4.4,3
			c-0.3,0.1-0.6,0.2-0.9,0.2c-0.8-3.5-2.6-7.1-4.1-10.2c-1-2.2-2.2-4.4-3.5-6.5c-1.6-2.7-3.7-4.6-5.5-7.1c-0.4-0.6-1.3,0.1-0.8,0.6
			c3.2,3.5,5.8,9,7.8,13.2c1.6,3.4,2.3,7,3.5,10.4c-0.7,0.1-1.4,0.3-2.1,0.6c-1.8,1-3.6,3.4-5,5.1c-0.6,0.3-1.3,0.5-2.1,0.7
			c-1.3,0.4-2.7,0.8-4.2,1.2c-1.3-4.6-2.1-9.6-4.5-13.7c-0.1-0.3-0.5-0.1-0.5,0.1c-0.1,3.1,0.7,6.3,1.3,9.3c0.3,1.3,0.2,3.4,0.7,5
			c-0.7,0.2-1.5,0.4-2.3,0.6c0.9-5.4-1.5-11.4-2.5-16.5c-0.1-0.4-0.7-0.2-0.6,0.2c0.5,3.3,0.2,7.1,0.4,10.4c0.1,2.1,0,4.4,0.3,6.5
			c0,0.1,0,0.3,0.1,0.4h-0.1c-0.2-0.1-0.4-0.1-0.6-0.2c-5.8-2.2-7-13.6-6.7-18.6s1.9-10.5,3.7-15.2c0.1-0.3-0.4-0.6-0.6-0.2
			c-3.8,7.6-6.4,13.6-4.9,22.4c0.4,2.4,0.9,6.5,2.3,9.7c-0.2,0.3-0.5,0.6-0.6,0.9c-0.3,0.5-0.3,1-0.6,1.4c-0.1,0.2-0.3,0.3-0.4,0.5
			c-2.1,0.3-4.5,0.6-6-0.3c-0.1-0.1-0.3-0.2-0.4-0.3l0,0c-2-1.9-1.4-7.5-1.1-9.7c0.7-4.3,2.3-8.4,3.8-12.5c0.2-0.4-0.5-0.8-0.8-0.5
			c-4.8,5.7-7.6,13.5-6.2,21c0.2,1.2,0.7,2.2,1.3,3c-2.4,1.4-5.6,1.6-8.1,1.2c-2.6-0.4-6.6-1.4-8.2-3.9c0-0.1,0-0.1,0-0.2
			c0.2-5.8,0.8-11.5,2-17.2c1.5-7.5,7.4-13.5,13.1-18.2c0.1-0.1,0-0.3-0.1-0.2c-6.4,4.1-12.8,8.3-15,16.1c-1.6,5.7-2.4,12.2-2,18.4
			c-0.1,0.5-0.2,0.9-0.2,1.5c-0.1,1.9-0.6,3.2-2.6,3.9c-0.5,0.2-1,0.3-1.6,0.4c-2.1,0.3-4.5-0.2-6.5-0.8c-0.1-0.1-0.3-0.1-0.4-0.2
			c-0.4-0.2-0.8-0.4-1.1-0.6c-3.4-2.2-2.7-7.1-2.9-10.7c-0.4-6.8,0.3-13.8,4-19.7c0.3-0.4-0.4-0.8-0.6-0.4
			c-5.1,7.7-5.8,16.5-5.2,25.5c0.1,1.1,0.1,2,0.2,2.9c-3.7,0.4-6.8,0.5-9.8-2.8c-3-3.4-1.1-8.6,0-12.5c2.2-7.7,7.5-13,12.5-19
			c0.2-0.2-0.1-0.6-0.3-0.4c-8.8,6.2-15.2,17.4-16.7,28.1c0,0.2-0.1,0.5-0.1,0.7c-1.8-2-2.9-4-2.7-7.5c0.3-4.7,1.9-9.5,3.9-13.8
			c3.6-7.8,10.3-14.4,18.5-17.2c0.6-0.2,0.3-1.1-0.3-0.9c-10.2,3.4-18.7,10.1-23,20.2c-1.7,3.9-3.4,9.5-3.2,14.3
			c-2-6.5,1.2-24.7,15.4-32.7c6.5-3.7,13.9-5.4,20-6.1c17,4,32.9,8.5,39,10.3c-9.5-2.8-42.6-12.1-66.8-16
			c-28.6-4.5-76.4,1.6-91,11.1s-30.4,19.6-29.2,45.7s17.5,29.4,26.4,45.8c9,16.3,7.7,29.3-6.9,33.7s-23.8-3.5-33-19.2
			s-6.6-19-0.8-17.2s9.6,7.4,12.8,10s1.1-7.8-11.2-14s-20.8,3.1-23.2,9.8s-4.4,18.9,15.9,44.4c11.2,14.1,25.9,24.9,47.6,26.6
			c21.8,1.8,62.1-16.2,77.5-30.6s20.4-16.2,11.5-27.5s-21.2-21-24.2-29.2s-2.8-23.5,11.5-37.8c0,0,1.1-2.2,9.2,2.2
			c8.1,4.5,37.5,13.3,68.5,6s49.7-12.9,74.1-40.5c0,0,16.9-1.5,17.2,15.2s-11,31-16.2,38.5s-14.1,23.5-15.3,27.2s2.9,8,14.5,15.5
			c8.9,5.7,33.5,14,54.3,11.4C1165.4,893.1,1160.1,893,1154.8,892.6z M960,869.8c9.1,7.4,16,19.2,13.5,25.7c-1.1,2.9-4,6.3-8.2,10.1
			c2.6-3.3,3.4-8.1,3.2-12.2c-0.4-7.5-4.4-13.1-8.1-19.3l-0.1-0.1c-0.7-2.1-1.5-4.1-2.4-6.1C958.5,868.6,959.3,869.2,960,869.8z
			 M959.5,880.8c1.7,3.5,3.3,7,4,10.9c0.1,0.3,0.1,0.7,0.1,1c0.1,5-1.7,9.3-2.9,14.5c-0.2,0.9,0.7,1.5,1.5,1.1
			c0.1-0.1,0.2-0.1,0.3-0.2c-4.8,4-10.9,8.5-17.8,13.2c-15.2,10.5-33.2,17.4-52.3,15.5c-4-0.4-7.7-1.2-11.3-2.2
			c4.6,0.2,9.3-0.3,13.7-1.2c0.5-0.1,0.3-0.8-0.2-0.7c-6,0.9-13,1.5-18.9-0.2c-0.9-0.3-1.8-0.6-2.7-0.9c-10-4.5-18.1-11.2-24.5-17.6
			c-10.1-10.2-15.8-18.2-17.2-31.8c-1.3-13.6,1.1-16.8,7.7-19.7c0,0-1.2,1.7-1.2,5.7c-0.7-0.5-1.7-0.5-2,0.6
			c-2.6,10.3,1.7,21.2,6.9,30c2.6,4.3,5.6,8,8.9,11.7c3.6,3.9,6.6,5.5,11.7,6.9c0.1,0,0.1-0.1,0-0.1c-8.1-3.4-14.1-12.5-18.3-19.8
			c-2.4-4.1-4.3-8.7-5.3-13.3c-0.6-2.9-0.8-5.8-0.9-8.7c0.4,1.5,0.9,3,1.5,4.8c4.8,12.6,11.7,18.1,20.1,23.2s26.8,7.2,34.7,3.8
			c7.8-3.3,16.8-13.2,10.8-29.2c-1-2.7-2.4-5.5-4-8.2c1.7,1.4,3.3,2.7,4.8,4.3c4.3,4.4,7.5,10,10.5,15.4c1.6,2.9,3,6,3.2,9.4
			c0.1,1.6-0.3,3.2-0.6,4.7c-1.3,2.6-2.9,4.8-5.9,6.8c-4.3,2.9-9.6,4.3-14.5,5.9c-10.6,3.3-22.2,4.1-33,1.3c-0.1,0-0.3,0-0.4,0.1
			c-0.6-0.2-1.1-0.3-1.7-0.5c-0.6-0.2-0.8,0.7-0.2,0.9c0.7,0.2,1.3,0.3,2,0.5l0,0h0.1c0.2,0.1,0.4,0.1,0.7,0.2c0.1,0,0.1,0,0.1,0
			c12.3,2.7,25,1.6,37.1-1.8c5.2-1.5,14.1-5.1,17.6-10.8c6.8-6.6-4-22.1-7.5-27.5c-3.8-5.8-8.7-9.7-13.9-14.2
			c-1.5-1.3-3-2.6-4.5-4.1c-7.6-10.7-16.7-21.2-19.9-29.3c-4.9-12.4-4.3-27.4,1-36s23.2-20,56.7-26c15.2-2.7,28.3-2.8,38-2.1
			c-0.8,0.1-1.5,0.2-2.3,0.4c-4.4,0.6-8.7,1.5-13,2.4c-8.9,2-17.7,4.4-26.5,6.9c-10.2,2.9-20.5,7.2-28.8,13.9c-2,1.5-4,3.2-5.9,5.1
			c-0.5,0.5-0.9,1-1.4,1.4c-3.3,2.8-6.3,6.1-7.5,9.9c-2,6.4,2,12.7,7,16.4c2.4,2.6,5.3,4.8,8.5,7c8.8,5.9,17.7,11.4,25.6,18.4
			c7.4,6.6,14,14.1,19,22.6c1.7,2.9,3.7,6.4,5.3,10.1c1,4,2,8,2,12.3c0,7.5-2.7,12.1-7.5,17.6c-4,4.5-9,7.8-14.4,10.2
			c-6.1,2.8-12.4,5.5-19,6.8c-0.5,0.1-0.3,0.9,0.2,0.7c7.4-2.4,15-3.2,22.1-6.7c6.1-3,11.6-7,15.8-12.3c0.3-0.4,0.6-0.7,0.8-1.1
			c0.1-0.1,0.2-0.1,0.2-0.2c1.7-2,3.1-4.2,4.3-6.5c0.4-0.8,0.8-1.6,1-2.3c3.4-5.7-0.6-14.8-2.8-20.2c-3.8-9.1-9.3-17.5-15.9-24.8
			c-7-7.8-15.1-14.4-23.8-20.2c-8-5.4-17.6-10.3-24.2-17.7c-2-3.3-2.7-6.9-0.9-10.5c2.6-4,6.5-7,10.2-10c3.9-3.1,7.6-6.4,11.6-9.4
			c0.2-0.1,0.4-0.2,0.6-0.3c7-3.8,14.5-6.1,22.2-8.1c7.6-2,15.2-4.1,22.9-5.7c3.7-0.8,7.4-1.5,11.1-2.2c3.7-0.7,7.8-0.6,11.1-2.4
			c0.2-0.1,0.3-0.3,0.3-0.5c3.7,0.5,6.5,1.1,8.2,1.5c-8.1,0.5-15.9,3-23.5,5.7c-7.5,2.7-15.2,5.5-22.3,9.2
			c-6.3,3.3-11.8,7.7-15.9,13.6c-2.2,3.2-5.1,7.7-6.3,12.1c-3.8,11.1,3.1,22.9,10.4,31.6c1.4,1.7,2.9,3.3,4.4,4.8
			c2,2.6,4.1,5.1,6.5,7.5c3.5,3.5,6.8,7.3,9.7,11.2C953.6,870.6,956.9,875.6,959.5,880.8z M960.8,805.5c0,0-14.5,18.6-16.8,32.3
			c-0.7,3.9-0.4,7.6,0.6,11.1c-4.4-11-4.6-23.3,0.2-34.5c4.5-10.6,12.6-17.9,20.7-25.4C961.3,797.6,960.8,805.5,960.8,805.5z
			 M967.3,785.8c-10.5,7.5-20.5,17.5-25.2,29.4c-4.1,10.6-4.5,22.6-1.1,33.5c-0.5-0.5-1.1-1-1.6-1.5c-2.3-2.2-4.5-4.5-6.6-6.9
			c-1.1-6.9-2.9-13.3-2.8-20.5c0-0.6-0.9-0.7-1-0.1c-0.8,4.8-1.2,10.4-0.2,15.6c-1.5-2.1-2.9-4.3-4.1-6.5c-2.1-3.8-3.3-7.7-3-12.1
			c0.1-1.6,0.4-3.2,0.7-4.8c1.6-5.4,4.1-10.3,7.9-15c4.4-5.4,10.4-9.3,16.6-12.3c6.7-3.3,13.8-5.8,20.9-8.2
			c6.2-2.1,12.3-4.6,18.7-5.4c-4.3,1.4-11.7,4.6-17,11.6C968.7,783.6,967.9,784.7,967.3,785.8z M1099.2,795.4
			c0.1-0.2,0.2-0.3,0.2-0.5l0.1,0.1C1099.4,795.1,1099.3,795.2,1099.2,795.4z M1113.8,777c-2.8-2.5-5.4-4.7-8-6.4
			c9.8,1.3,19.9,3.4,29.3,6c5.4,1.5,11.1,3.1,14.9,7.5c0.5,0.6,0.9,1.1,1.3,1.7c-1-0.6-2-1.3-3.2-1.9
			C1135,776.6,1113.8,777,1113.8,777z"/>
		<path opacity="0.3" fill="#091426" enable-background="new    " d="M1174.8,891.5c-12.8-0.6-26.8-3.3-35-14.2
			c-9-12-3.2-24.6,0.7-37.1c0.4-0.9,0.8-1.9,1.2-2.8c1.9-4.2,4.1-8.3,6.7-12.2c5-7.7,10.9-14.8,17.3-21.4c6-6.2,12.7-11.6,19.2-17.3
			c3.2-2.8,8.3-7.7,8.1-12.5c1.5-7.6-6.4-15.5-12.7-18.3c-10.4-4.7-21.5-5-32.7-5.9c-11.3-1-23.1-0.5-34.3,1.3
			c-6.2,1-12.4,2.3-18.4,3.9c-1.9,0.5-3.8,1-5.7,1.5c-4.6,1-10.1,1.8-13.6,5c-0.3,0.2-0.1,0.7,0.3,0.7c5.1-0.1,10.1-3.1,15-4.3
			c5.5-1.3,11.4-2.3,17-3.1c0.3,0,0.2-0.6-0.1-0.6c-2.5,0-4.8,0.1-7.1,0.3c2.2-0.5,4.5-0.9,6.7-1.3c10.3-1.7,20.8-2.7,31.2-2.5
			c10.2,0.2,20.4,0.4,30.5,2.4c5.5,1,10.4,3.2,14.9,6.6c5,3.8,6.9,7.6,7.5,13.4c-0.5,2-0.7,4-1.8,5.9c-1.3,2.3-3.2,3.5-5.2,5.1
			c-3.1,2.4-6.1,4.8-9.1,7.4c-6.3,5.5-12.4,11.4-17.8,17.9c-5.1,6.1-9.7,12.6-13.7,19.5c-2.6,4.5-5.8,9.7-7.4,15
			c-5,11.2-6.7,25.1,1.1,35.2c8.2,10.7,22.4,13,35.2,13.3c0.8-0.1,1.5-0.3,2.3-0.4C1175,891.6,1174.9,891.5,1174.8,891.5z"/>
		<path opacity="0.3" fill="#091426" enable-background="new    " d="M1132.6,740.8c11.6-0.6,22.7,1.6,33.6,5.3
			c9.2,3.1,19.2,6.5,27.2,12.1c1.9,1.3,3.7,3,5.4,5c2.3,4.5,4.1,9.9,5.2,14.8c1.2,5,2.6,11.5,0.3,16.4c-5.7,4.9-13.9,6.1-20.8,9.2
			c-6.7,3-13.3,6.3-18.5,11.6c-4.8,4.9-8.6,10.8-11.2,17.1c-2,4.8-4.3,11-4.7,16.6c-1,5.4,0.6,11.9,2.9,16.5
			c3.2,6.3,8.8,9.7,15.4,11.8c13.4,4.3,30.1,3.1,37.9-10.1c0.1-0.2,0.1-0.3,0.1-0.4c10.6-10,14.4-25.1,14-35.4
			c-0.4-12.5-6.4-19.1-16.7-10c-5.1,4.6-7.1,8.4-8.2,10.9c1.4,0.1,4.2-1.6,6.4-4.3c4.5-5.6,9.9-12.6,14-2.2s-3.5,28.2-11.5,36
			s-18.4,15.4-33.5,1.7s-8.3-28.6,0-38s19.8-15.6,28-18.2c0.8-0.2,1.5-0.4,2.1-0.6c-8.5,1.5-29.9,6.4-37.8,19.7
			c-9.9,16.8-4.6,29.2-0.7,36.2c3.9,6.9,19.4,18.8,36,9.8c0.8-0.4,1.6-0.9,2.3-1.4c-0.5,0.5-1,1.1-1.5,1.6c-3.1,3.3-5.4,4.1-9.9,4.4
			c-6.3,0.4-12.6-0.1-18.7-1.7c-6.7-1.8-11.9-5-14.8-11.4c-2.1-4.6-1.9-9.5-2.6-14.3c0.3-2.5,0.4-5,0.9-7.5c0.8-3.9,2.3-7.8,4-11.5
			c3.4-7.1,8.4-12.9,14.4-18c6.7-5.7,15-9.6,23.4-12.1c3.8-1.1,10.5-1.7,11.4-6.4c0.7-1.1,1-2.5,1.2-3.9c-0.3-3.7-0.8-8.1-1.6-12.8
			c-0.8-3.1-1.9-6-3.4-8.8c1,1.5,1.8,3.2,2.6,4.8c-0.4-2.2-1-4.4-1.6-6.6c-1.8-2.6-3.8-4.9-5.9-6.9c-7.5-7.1-17.2-10.8-26.7-14.2
			c-11.4-4.1-23.6-7.5-35.8-7.1c-6.6,0.2-12.8,1.3-18.9,2.8c1.1-0.4,2.2-0.7,3.3-1c-9.9,3-20.6,7.1-31.5,13
			c5.1-2.8,10.2-5.2,15.2-7.2C1113,743.5,1123.1,741.2,1132.6,740.8z"/>
		<path opacity="0.35" fill="#E8FFFA" enable-background="new    " d="M1077.8,791.4c0.2,0.2,0.5-0.1,0.3-0.3
			c-2.5-3.4-5.7-5.6-9.5-7.3c-1.7-0.8-3.5-1.4-5.3-2.1c-1.7-0.7-3.2-1.4-4.8-0.5c-0.2,0.1-0.1,0.5,0.1,0.4c3.8-0.3,7.2,2.2,10.4,3.9
			C1072.1,787.2,1075.2,789.2,1077.8,791.4z"/>
		<path opacity="0.35" fill="#E8FFFA" enable-background="new    " d="M1057.9,779.2c3.7-0.7,8.9-0.1,12.5,1.3
			c0.5,0.2,0.7-0.5,0.4-0.8c-1.4-1.5-3.8-1.4-5.8-1.6c-2.3-0.1-5.2-0.5-7.2,0.8C1057.7,779,1057.8,779.2,1057.9,779.2z"/>
		<path opacity="0.35" fill="#E8FFFA" enable-background="new    " d="M1068.5,776.8c2.8,0,5.6,0.3,8.3,0.8c0.3,0.1,0.5-0.3,0.2-0.5
			c-2.7-1.4-5.6-1.6-8.6-1.5c-2.7,0.1-6.4-0.3-8.8,1.1c-0.2,0.1-0.1,0.4,0.2,0.4C1062.6,776.6,1065.6,776.8,1068.5,776.8z"/>
		<path opacity="0.35" fill="#E8FFFA" enable-background="new    " d="M1080.4,772.5c-4-0.5-7.9-0.5-11.9-0.1
			c-2.5,0.2-6.2,0.1-8,2.2c-0.1,0.1,0,0.3,0.2,0.2c2.9-1.4,7-1.3,10.2-1.4c3.2-0.1,6.3-0.1,9.5,0
			C1080.9,773.3,1080.9,772.5,1080.4,772.5z"/>
		<path opacity="0.35" fill="#E8FFFA" enable-background="new    " d="M1053.7,782.2c2.2,1.8,4.4,3.5,6.3,5.6
			c1.8,2.1,3.3,4.7,5.5,6.4c0.2,0.2,0.5,0,0.4-0.3c-0.7-2.6-3-4.9-4.9-6.7c-2.2-2-4.5-3.9-7.1-5.4
			C1053.8,782,1053.6,782.1,1053.7,782.2z"/>
		<path opacity="0.35" fill="#E8FFFA" enable-background="new    " d="M1054.6,794.3c1.1,2.5,1.9,5.6,3.6,7.7c0.2,0.2,0.6,0,0.6-0.2
			c-0.3-2.7-1.9-5.5-3-8c-1.4-3.4-3.4-6.7-4.7-10.1c-0.1-0.3-0.5-0.1-0.4,0.2C1052.2,787.2,1053.2,790.8,1054.6,794.3z"/>
		<path opacity="0.35" fill="#E8FFFA" enable-background="new    " d="M1047.9,800.7c0.1,0.2,0.4,0.2,0.4-0.1c0-2.9-0.3-5.9-0.5-8.8
			c-0.2-2.6,0-5.4-0.6-7.9c-0.1-0.2-0.4-0.2-0.5,0c-0.6,2.7-0.3,5.7,0,8.4C1046.8,795.1,1047.1,798,1047.9,800.7z"/>
		<path opacity="0.35" fill="#E8FFFA" enable-background="new    " d="M1035.6,800.4c0.4-3,1.6-5.7,3.1-8.4c1.2-2.2,2.7-4.2,3.2-6.7
			c0.1-0.2-0.3-0.5-0.5-0.3c-3.3,4-6.3,9.9-6.2,15.2C1035.2,800.6,1035.5,800.7,1035.6,800.4z"/>
		<path opacity="0.35" fill="#E8FFFA" enable-background="new    " d="M1041.4,782.1c-0.4,0.2-0.8,0.5-1.1,0.8
			c-4.3-0.5-8,4.5-10.4,7.3c-0.2,0.3,0.1,0.6,0.4,0.4c1.6-1.7,3.2-3.4,5.1-4.7c0.9-0.6,1.8-1,2.8-1.3c-6.4,5.6-10.2,14.5-11.8,22.5
			c0,0.2,0.3,0.3,0.4,0.1c1.2-4.7,3.2-9.2,5.8-13.4c2.6-4.2,6-7.5,9.3-11.2C1042,782.4,1041.7,781.9,1041.4,782.1z"/>
		<path opacity="0.35" fill="#E8FFFA" enable-background="new    " d="M1024.4,793.8c-0.1,0.3,0.3,0.5,0.5,0.2
			c1.6-2.7,3.5-4.9,5.7-7.1c2-1.9,4.3-3.7,5.9-5.9c0.3-0.4-0.3-0.9-0.7-0.7c-2.6,1.7-4.9,4.4-7,6.7
			C1027.2,789,1025.4,791.2,1024.4,793.8z"/>
		<path opacity="0.35" fill="#E8FFFA" enable-background="new    " d="M1018.1,788.5c3.1-2.9,6.7-4.8,10.4-6.8
			c0.3-0.2,0.1-0.6-0.2-0.5c-7.4,1.9-15.6,8.7-17.9,16.1c-0.1,0.2,0.2,0.3,0.3,0.2C1013,794.4,1015.1,791.2,1018.1,788.5z"/>
		<path opacity="0.35" fill="#E8FFFA" enable-background="new    " d="M1031.5,779.3c-5.6-0.4-11.1,2.1-15.2,5.7
			c-0.1,0.1,0,0.3,0.2,0.2c2.1-1.5,4.6-2.7,7.1-3.5c2.7-0.9,5.4-0.9,8.1-1.6C1032,780,1031.9,779.4,1031.5,779.3z"/>
		<path opacity="0.35" fill="#E8FFFA" enable-background="new    " d="M1029.3,777.2c-2.2,0.1-4.3,0.5-6.4,1.1
			c-0.1-0.1-0.2-0.3-0.4-0.3c-7.2,0-14.9,4.8-19.7,9.8c-0.2,0.2,0.1,0.5,0.3,0.3c2.8-2.4,5.8-4.4,9.1-5.9c2-0.9,4.1-1.5,6.1-2.1
			c-3.3,1.6-6.4,3.8-9.1,5.9c-0.2,0.2,0,0.6,0.2,0.4c3-1.9,6-3.7,9.2-5.2c3.5-1.5,7-2.3,10.7-2.9
			C1030.1,778.3,1030,777.2,1029.3,777.2z"/>
		<path opacity="0.35" fill="#E8FFFA" enable-background="new    " d="M1021.8,776.6c-7.4-4.2-17,1.1-22.8,5.8
			c-0.5,0.4,0.1,1.1,0.6,0.8c3.2-2.2,6.6-4.2,10.4-5.3c4-1.2,7.5-0.8,11.5-0.3C1022,777.6,1022.2,776.8,1021.8,776.6z"/>
		<path opacity="0.35" fill="#E8FFFA" enable-background="new    " d="M1127.9,757.3c0.3,0,0.3-0.5,0-0.5
			c-9.5-0.9-19.1-0.6-28.6,0.5c-8.4,0.9-16.4,2.4-24,6.3c-0.2,0.1-0.1,0.3,0,0.4c-0.2,0.1-0.4,0.2-0.6,0.2c-0.3,0.1-0.2,0.5,0.1,0.4
			c4-0.6,7.9-1.4,12-1.7c4-0.3,7.9-0.4,11.9-0.4c3.8,0,7.6,0.1,11.4,0c3.9,0,7.8,0.4,11.7,0.3c0.4,0,0.5-0.6,0.1-0.7
			c-3.6-1.1-7.6-1-11.4-1.2c-4.1-0.2-8.2-0.2-12.3-0.1c-7.1,0.1-15.2,0.5-22,2.9c7.7-3.7,16.7-4.4,25-5.2
			C1110.1,757.6,1119,757.4,1127.9,757.3z"/>
		<path opacity="0.35" fill="#E8FFFA" enable-background="new    " d="M1129.8,745.4c-5.8-0.8-11.8,0.8-17.6,1.3
			c-0.2,0-0.2,0.3,0,0.2c5.8-0.7,11.8,0,17.6-1.1C1130,745.8,1130,745.5,1129.8,745.4z"/>
		<path opacity="0.35" fill="#E8FFFA" enable-background="new    " d="M1137,743.6c5.7,0.4,11.4,1.8,17.1,1.8c0.4,0,0.4-0.5,0.1-0.7
			c-5.2-2-11.2-2.6-16.7-3c-5.8-0.4-11.6-0.3-17.3,0.9c-5.6,1.2-11,3.2-16.2,5.3c-5.3,2.1-10.6,4.1-15.7,6.6c-0.2,0.1,0,0.4,0.1,0.3
			c10.2-3.9,20.5-8.2,31.3-10.4C1125.4,743.3,1131.2,743.2,1137,743.6z"/>
		<path opacity="0.35" fill="#E8FFFA" enable-background="new    " d="M1141.6,738.8c9.5-1.6,19.1-5.1,28.8-3.4
			c8.7,1.5,16.1,5.3,24,9c0.1,0.1,0.2,0.1,0.3,0.1c-0.5-0.9-1.1-1.8-1.7-2.7c-2.7-1.7-6-2.8-8.9-3.8c-4.2-1.5-8.7-2.9-13.2-3.3
			c-9.9-0.7-20.1,0.7-29.4,3.9C1141.4,738.6,1141.4,738.8,1141.6,738.8z"/>
		<path opacity="0.35" fill="#E8FFFA" enable-background="new    " d="M1215.2,814.1c-2.3-0.3-3.6,0.7-5.3,2.1
			c-0.3,0.2,0.2,0.7,0.4,0.3c1.5-2.5,5.1-1.7,7-0.3c1.8,1.3,2.8,3.4,3.3,5.5c1.1,4,1.3,8.3,0.1,12.3c-0.1,0.4,0.4,0.5,0.6,0.3
			c3.2-4.2,1.9-12.4-0.9-16.5C1219.2,815.9,1217.3,814.4,1215.2,814.1z"/>
		<path opacity="0.35" fill="#E8FFFA" enable-background="new    " d="M1223.7,828.7c0-0.4-0.6-0.4-0.6,0c0.2,5-0.2,10-1.5,14.9
			c-1.2,4.7-3.2,8.9-5,13.3c-0.3,0.7,0.5,1.1,1,0.9c2.5-4.4,4.3-8.8,5.5-13.2C1224.3,839.3,1224.3,833.7,1223.7,828.7z"/>
		<path opacity="0.35" fill="#E8FFFA" enable-background="new    " d="M1215.7,857.7c1-2.5,1.9-5.1,2.7-7.7c0.7-2.4,1.5-5.2,1.3-7.7
			c0-0.1-0.2-0.2-0.2-0.1c-0.9,2.1-1.3,4.4-1.9,6.6c-0.8,2.7-1.8,5.3-2.9,7.9c-2.1,4.8-5,8.9-7.9,13.3c-0.4,0.6,0.2,1.3,0.7,1.4
			c0.8-0.9,1.6-1.7,2.4-2.6C1212.2,865.3,1214.1,861.5,1215.7,857.7z"/>
		<path opacity="0.35" fill="#E8FFFA" enable-background="new    " d="M939.4,915.9c4.2-3.5,8.3-7.7,10.6-12.8s2.5-10.9,1.4-16.4
			c-1.1-5.8-3.8-11.2-7-16.2c-2.9-4.5-6.5-10.6-11.4-13.2c-0.3-0.1-0.5,0.2-0.3,0.4c1.6,2.1,3.6,3.9,5.3,6c1.8,2.3,3.5,4.6,5.1,7.1
			c3,4.6,5.6,9.6,6.9,14.9c1.4,5.5,1.3,11.5-1,16.8c-2.2,5.1-6.3,8.9-9.9,13C938.8,915.7,939.1,916.1,939.4,915.9z"/>
		<path opacity="0.35" fill="#E8FFFA" enable-background="new    " d="M938.2,911.9c-1.5,2.3-2.8,4.6-5.4,5.8
			c-0.8,0.4-0.2,1.7,0.6,1.4c2-0.7,3.2-2.1,4.4-3.8c1.7-2.5,3.4-5,4.7-7.7c2.5-5,3.7-10.6,3.8-16.1c0.1-5.7-1.1-11.2-3.2-16.5
			c-1-2.5-2.2-4.9-3.6-7.2c-1.3-2.1-2.6-4.6-4.7-5.9c-0.1-0.1-0.2,0.1-0.2,0.2c1.2,2,2.8,3.7,4,5.8c1.3,2.4,2.5,4.9,3.5,7.5
			c1.8,4.7,2.7,9.9,2.8,14.9c0.1,4.9-0.8,9.9-2.7,14.5C941.1,907.2,939.7,909.6,938.2,911.9z"/>
		<path opacity="0.35" fill="#E8FFFA" enable-background="new    " d="M958.1,899.7c-1.3,4.6-5,9.2-8.1,12.9
			c-3,3.5-6.4,6.6-10.1,9.4c-7.2,5.3-15.4,8.7-24,10.9c-0.3,0.1-0.3,0.6,0.1,0.6c9.3-1.2,18.2-5.3,25.6-11c3.7-2.8,7-6,9.9-9.5
			c1.5-1.8,2.9-3.7,4.1-5.7c1.5-2.4,2.2-4.7,2.8-7.5C958.5,899.6,958.2,899.5,958.1,899.7z"/>
		<path opacity="0.35" fill="#E8FFFA" enable-background="new    " d="M881.8,794.4C881.9,794.5,882,794.4,881.8,794.4
			c0.1-0.1,0.1-0.2,0-0.2c0.1,0.1,0.2,0.1,0.3-0.1c0.1-0.2,0.2-0.3,0.4-0.5l0,0c5.5-5.7,14.1-8.7,21.3-11.6
			c7.7-3.1,15.4-5.7,23.4-7.9c13.4-3.7,13-3.1,29-5.3c1-0.2,11.9-1.1,13-1.3c-8.1-0.5-10.3-0.7-16.7,0c-8.5,0.8-17,2.8-25.3,5.1
			s-16.5,5.2-24.3,8.7c-7,3.1-15.5,6.2-20.8,12c0,0-0.1,0-0.1,0.1c-0.1,0.2-0.3,0.3-0.4,0.5c-0.1,0.1-0.1,0.3,0,0.3
			c-0.1,0-0.2,0.1-0.1,0.2C881.7,794.4,881.8,794.4,881.8,794.4z"/>
		<path opacity="0.35" fill="#E8FFFA" enable-background="new    " d="M979,770.5c1,0-2.5-0.5-4.6-0.3c-0.2-0.1-8.8,1.3-10.7,1.8
			c-5.3,1.3-11,1.8-16.2,3.3c-10.2,3-20.7,5.8-30.3,10.3c-7.8,3.6-14.1,9.2-21.2,15.6c-5.5,5-8.7,10.5-2.9,17.6
			c2.7,3.4,7.5,4.8,11.4,6.3c5.4,2.2,10.9,4.3,15.4,8.1c0.2,0.2,0.5-0.1,0.3-0.3c-6-5.7-14-7.8-21.2-11.3c-4.9-2.4-8.6-5.2-7.4-10.8
			c1-4.6,2.8-5.2,5.9-8.5c6.2-6.4,12.2-10.9,20.7-15.7c4.5-2.5,9.6-3.6,14.5-5.2c-3.3,1.4-6.6,2.9-9.7,4.5c-11.8,6-33,19.9-20.7,35
			c0.1,0.1,0.3,0,0.2-0.2c-2-4.3-4.1-8.1-2.3-13c1.4-4,4.5-7.2,7.6-10c5.7-5.3,12.6-9.2,19.7-12.5c14.9-6.8,30.9-11.5,47.2-13.9
			C974.8,771.5,979,770.5,979,770.5z"/>
		<path opacity="0.35" fill="#E8FFFA" enable-background="new    " d="M1011.5,772.3c-2.5-0.9-5.5,0-7.9,0.7c-2.8,0.8-5.5,1.4-7.9,3
			c-0.1,0.1,0,0.3,0.1,0.2c2.3-1.1,4.8-1.5,7.3-1.9c2.7-0.4,5.4-1.2,8.1-0.7C1012.1,773.8,1012.4,772.6,1011.5,772.3z"/>
	</g>
</g>
</svg>
