<?xml version="1.0" encoding="utf-8"?>
<!-- Generator: Adobe Illustrator 21.0.2, SVG Export Plug-In . SVG Version: 6.00 Build 0)  -->
<svg version="1.1" id="Layer_1" xmlns="http://www.w3.org/2000/svg" xmlns:xlink="http://www.w3.org/1999/xlink" x="0px" y="0px"
	 viewBox="0 0 2000 2000" enable-background="new 0 0 2000 2000" xml:space="preserve">
<g>
	<path fill="#9F592A" d="M1077.2,859.3c0-1.2-0.1-2.2-0.2-3c-0.1-0.6-0.1-1.1-0.2-1.5c0-0.2-0.1-0.4-0.2-0.6
		c-0.1-0.4-0.3-0.7-0.4-0.9c-0.4-0.6-0.9-0.9-1.7-0.8c-2.3,0.2-5,2.7-15.3,5.7c-0.4,0.1-0.7,0.2-1.1,0.3c-0.6,0.2-1.2,0.3-1.8,0.5
		c-0.7,0.2-1.4,0.3-2,0.5l0,0c-0.7,0.1-1.3,0.3-2,0.4c-1.6,0.3-3.2,0.6-4.7,0.8c-0.1,0-0.3,0-0.4,0.1c-5.1,0.8-9.3,1.1-11.8,1.9
		c-4.2,1.3,4.4,9.2,8.5,14.4s6.8,12.2,9.8,26c0.3,1.3,2.2,2.2,4.1,1.5c1.4-0.5,5.6-2.7,9.3-7.8l0,0l0.1-0.1c0.3-0.4,0.6-0.8,0.8-1.2
		l0,0c0.3-0.4,0.5-0.9,0.8-1.4c0-0.1,0.1-0.1,0.1-0.1c0.2-0.4,0.5-0.9,0.7-1.4c0-0.1,0.1-0.2,0.1-0.3c0.3-0.6,0.5-1.2,0.8-1.8
		c0.2-0.6,0.5-1.2,0.7-1.8c0.7-1.8,1.4-3.6,2-5.4c1.2-3.5,2.2-7,2.9-10.3c0.3-1.7,0.6-3.3,0.8-4.9c0.1-0.5,0.1-1.1,0.2-1.6
		c0.1-1.1,0.1-2.1,0.1-3.1C1077.3,861.8,1077.3,860.5,1077.2,859.3z"/>
	<g>
		<g id="_x30_7_x5F_FacialHair_x5F_SoulPatch_x5F_Shadows_1_">
			<g opacity="0.3">
				<path fill="#091426" d="M1072,881.6c1.1-3.9,2-7.9,2.6-11.9c0.4-2.3,0.6-4.6,0.7-7c0-0.6,0-1.3,0-1.9c0.4-1.9-0.4-3.2-2.5-3.9
					c3.5,7.9,1.1,17.1-2.5,24.9c-0.5,2.9-1.4,5.7-2.8,7.9c-0.2,0.4-0.8,0.2-0.8-0.2c-0.3-5.8,0.7-11.6,0.3-17.5
					c-0.2-3.4-0.4-6.6-1.5-9.8c-0.3-0.8-0.6-2.3-1.1-3.7c-0.3,0.1-0.6,0.2-0.9,0.4c-0.1,0.1-0.3,0.2-0.4,0.3
					c5.5,7.7,3.7,22,0.8,29.4c-0.2,0.4-0.7,0.3-0.8-0.1c-1.3-10.3,1.7-21.2-4.9-30c-0.6,0.2-1.2,0.3-1.8,0.5
					c0.4,0.7,0.8,1.4,1.2,2.2c1.3,2.5,1.9,5.7,2.7,8.4c1.6,5.8,1.3,12.2,0.7,18.1c-0.1,0.6-1,0.8-1.1,0.2
					c-0.9-6.6-3.9-12.1-5.8-18.5c-0.8-2.6-1.8-5.1-1.7-7.8c0-0.5,0-1.1,0-1.6l0,0c-1.6,0.3-3.2,0.6-4.7,0.8c0.3,0.8,0.6,1.6,0.8,2.4
					c0.4,1.3,0.6,2.6,1.1,3.9c0.9,2.5,2.4,4.7,3.6,7.1c2.1,4.3,2.8,9.5,2.9,14.3c0,0.3-0.4,0.3-0.4,0c-0.3-3-0.8-5.6-1.9-8.4
					c-1-2.5-2.2-4.8-3.4-7.1c-1.1-2-2.1-4-2.6-6.3c-0.4-1.9-0.4-3.8-0.6-5.7h0.1c-5.1,0.8-9.3,1.1-11.8,1.9
					c-4.2,1.3,4.4,9.2,8.5,14.4s6.8,12.2,9.8,26c0.3,1.3,2.2,2.2,4.1,1.5c1.6-0.5,6.4-3.1,10.2-9.1c-0.3,0.5-0.6,0.9-0.9,1.3
					C1068.4,891.6,1070.7,886.4,1072,881.6z M1052.3,886.7c-1.6-4.2-4-8-6.1-11.9c-0.9-1.7-1.9-3.4-2.6-5.2s-0.7-3.6-0.9-5.5
					c0-0.2,0.3-0.2,0.4,0c0.7,2.1,2,4.2,3,6.2c0.9,1.9,2,3.8,3,5.6c1.8,3.3,3.4,6.9,3.7,10.7
					C1052.8,886.9,1052.4,886.9,1052.3,886.7z"/>
				<path fill="#091426" d="M1069.3,858.4c0.2,1,0.2,1.9,0.1,2.8c0.7,2.2,1.1,4.4,1.2,6.4c0.1,1.2,0.2,2.5,0.2,3.8
					c0.8-4.9,0.4-10.1-1.2-14.7C1069.4,857.2,1069.3,857.8,1069.3,858.4z"/>
			</g>
		</g>
		<g id="_x30_7_x5F_FacialHair_x5F_SoulPatch_x5F_Highlights">
			<g opacity="0.35">
				<path fill="#E8FFFA" d="M1061.4,859.7c2,3,2.4,7.8,2.6,11.3c0.1,1.7,0.2,3.3,0.1,5c-0.1,1.8-0.8,3.6-0.6,5.4
					c0,0.3,0.4,0.4,0.5,0.1c1.9-2.7,1.9-8.3,1.6-11.5c-0.3-3.8-1.4-7.7-3.5-10.9C1061.9,858.8,1061.1,859.2,1061.4,859.7
					L1061.4,859.7z"/>
				<path fill="#E8FFFA" d="M1065.6,858.4c1,1.6,1.8,2.8,2.3,4.6c0.6,2.1,0.9,4.2,1.1,6.4c0,0.3,0.5,0.4,0.5,0.1
					c0.5-3.1-0.3-9.9-3.8-11.2C1065.7,858.2,1065.6,858.3,1065.6,858.4L1065.6,858.4z"/>
				<path fill="#E8FFFA" d="M1067.3,879.2c-0.1,2.7-0.8,5.3-0.9,8c0,0.2,0.2,0.2,0.3,0.1c1.1-2.4,1.2-5.5,1.3-8.1
					C1068,878.7,1067.3,878.7,1067.3,879.2L1067.3,879.2z"/>
				<path fill="#E8FFFA" d="M1070.9,857.2c0.7,2.4,1.8,4.4,2.1,7c0.2,1.9-0.1,3.9,0.3,5.8c0.1,0.4,0.8,0.5,1,0.1
					c0.8-1.9,0.5-4.1,0-6.1c-0.6-2.3-1.4-5.1-2.8-7C1071.2,856.7,1070.8,856.8,1070.9,857.2L1070.9,857.2z"/>
				<path fill="#E8FFFA" d="M1056.5,862.1c1.6,3.2,2.2,6.4,2.7,9.9c0.5,3.2,1.2,6.3,1.6,9.4c0,0.2,0.3,0.1,0.3,0
					c0-3.4,0.2-6.8-0.5-10.2c-0.6-3.2-1.9-6.5-3.5-9.4C1057,861.2,1056.3,861.6,1056.5,862.1L1056.5,862.1z"/>
				<path fill="#E8FFFA" d="M1053.7,862.3c0.2,0.8,0.7,1.6,0.9,2.4c0.2,0.8,0.2,1.8,0.3,2.6c0.2,1.5,0.3,3.2,1,4.5
					c0.1,0.2,0.4,0.1,0.5-0.1c0.9-2.8-0.4-7.5-2.2-9.8C1053.9,861.9,1053.6,862.1,1053.7,862.3L1053.7,862.3z"/>
				<path fill="#E8FFFA" d="M1047.6,863.2c0.1,0.3,0,0.7,0,1s0.1,0.7,0.2,1c0.2,0.6,0.4,1,0.8,1.4c0.1,0.1,0.3,0,0.3-0.1
					c-0.1-0.6-0.3-1.1-0.5-1.6c-0.1-0.3-0.2-0.6-0.3-0.9C1048,863.7,1047.8,863.5,1047.6,863.2
					C1047.8,863,1047.6,863.1,1047.6,863.2L1047.6,863.2z"/>
			</g>
		</g>
	</g>
</g>
</svg>
