<?xml version="1.0" encoding="UTF-8"?>
<svg width="48px" height="48px" viewBox="0 0 48 48" version="1.1" xmlns="http://www.w3.org/2000/svg" xmlns:xlink="http://www.w3.org/1999/xlink">
    <!-- Generator: Sketch 51.3 (57544) - http://www.bohemiancoding.com/sketch -->
    <title>Eyewear-mardigramask</title>
    <desc>Created with Sketch.</desc>
    <defs></defs>
    <g id="SVGs" stroke="none" stroke-width="1" fill="none" fill-rule="evenodd">
        <g id="Slices" transform="translate(-765.000000, -295.000000)"></g>
        <g id="Group-46" transform="translate(10.000000, 14.000000)" fill-rule="nonzero">
            <path d="M0.509934645,6.85411241 L1.33852915,4.1410319 L3.35105544,3.28328451 L4.97459059,4.1410319 L5.1794058,5.6395128 L4.70220478,6.54785156 L3.58505484,7.06068251 C4.10730293,7.75295681 4.71951372,8.12264902 5.4216872,8.16975911 C5.58829127,7.71086516 5.9232522,7.17022931 6.42657001,6.54785156 L7.73828125,6.54785156 L8.39255934,7.32774523 L8.39255934,7.93389214 L9.96535081,7.51831055 L11.5365648,5.6395128 L13.8106971,2.83596463 L16.7264874,6.29258898 L17.7823768,7.51831055 L19.1775654,7.93389214 C19.5013083,6.84629087 19.8706242,6.29918981 20.2855131,6.29258898 C20.9078463,6.28268772 21.8991887,7.18465169 22.0273625,7.93389214 C22.1128117,8.43338578 22.6459272,8.29485858 23.626709,7.51831055 L23.8867375,6.85411241 C22.8684458,6.43952546 22.3854167,5.85905852 22.4376502,5.11271159 C22.4898838,4.36636466 22.8862367,3.8184498 23.626709,3.46896701 C24.7933757,3.2997866 25.6053185,3.45508717 26.0625376,3.93486871 C26.5197566,4.41465025 26.821239,5.38773148 26.9669847,6.85411241 C26.8333333,7.72153501 26.6251878,8.35318106 26.3425481,8.74905056 C26.0599084,9.14492007 25.4546211,9.66778791 24.5266864,10.3176541 L23.1999887,11.0799154 L22.6736215,13.7274848 C21.2175669,15.8374023 19.8659355,16.8926324 18.6187275,16.8931749 C17.3715194,16.8937174 16.3676007,16.9528989 15.6069712,17.0707194 L13.8106971,18.7080892 L12.0890925,17.0707194 C9.76934345,17.0440448 8.31907302,16.8905527 7.73828125,16.6102431 C7.15748948,16.3299334 6.304531,15.5773926 5.1794058,14.3526204 L4.43363131,11.0799154 L1.88119742,9.59676107 L0.509934645,6.85411241 Z" id="Path-97" fill="#6E49D3"></path>
            <path d="M12.462899,14.1384977 L14.8653116,14.6707625 C15.0704282,14.716207 15.2298472,14.8776848 15.2726559,15.0833676 L15.7954435,17.5952004 C15.8555457,17.8839731 15.6701717,18.1667921 15.381399,18.2268944 C15.3073573,18.2423047 15.230887,18.241814 15.1570492,18.225455 L12.7546365,17.6931901 C12.54952,17.6477457 12.390101,17.4862678 12.3472923,17.280585 L11.8245047,14.7687523 C11.7644024,14.4799795 11.9497765,14.1971605 12.2385492,14.1370582 C12.3125909,14.121648 12.3890611,14.1221386 12.462899,14.1384977 Z" id="Rectangle-35" fill="#81DA45" transform="translate(13.809974, 16.181976) rotate(45.000000) translate(-13.809974, -16.181976) "></path>
            <path d="M12.462899,9.06763247 L14.8653116,9.59989731 C15.0704282,9.64534176 15.2298472,9.80681962 15.2726559,10.0125024 L15.7954435,12.5243352 C15.8555457,12.8131079 15.6701717,13.0959269 15.381399,13.1560292 C15.3073573,13.1714395 15.230887,13.1709488 15.1570492,13.1545897 L12.7546365,12.6223249 C12.54952,12.5768805 12.390101,12.4154026 12.3472923,12.2097198 L11.8245047,9.69788707 C11.7644024,9.40911434 11.9497765,9.12629529 12.2385492,9.06619304 C12.3125909,9.05078275 12.3890611,9.05127339 12.462899,9.06763247 Z" id="Rectangle-35" fill="#81DA45" transform="translate(13.809974, 11.111111) rotate(45.000000) translate(-13.809974, -11.111111) "></path>
            <path d="M7.07828359,11.9162755 L9.48069626,12.4485403 C9.68581281,12.4939847 9.84523178,12.6554626 9.88804053,12.8611454 L10.4108281,15.3729781 C10.4709304,15.6617509 10.2855563,15.9445699 9.99678358,16.0046722 C9.92274192,16.0200825 9.84627163,16.0195918 9.77243381,16.0032327 L7.37002114,15.4709679 C7.16490459,15.4255235 7.00548561,15.2640456 6.96267687,15.0583628 L6.43988928,12.5465301 C6.37978703,12.2577573 6.56516109,11.9749383 6.85393382,11.914836 C6.92797548,11.8994257 7.00444576,11.8999164 7.07828359,11.9162755 Z" id="Rectangle-35" fill="#81DA45" transform="translate(8.425359, 13.959754) rotate(45.000000) translate(-8.425359, -13.959754) "></path>
            <path d="M7.07828359,7.95652136 L9.48069626,8.48878619 C9.68581281,8.53423065 9.84523178,8.69570851 9.88804053,8.90139129 L10.4108281,11.413224 C10.4709304,11.7019968 10.2855563,11.9848158 9.99678358,12.0449181 C9.92274192,12.0603284 9.84627163,12.0598377 9.77243381,12.0434786 L7.37002114,11.5112138 C7.16490459,11.4657694 7.00548561,11.3042915 6.96267687,11.0986087 L6.43988928,8.58677596 C6.37978703,8.29800323 6.56516109,8.01518417 6.85393382,7.95508192 C6.92797548,7.93967164 7.00444576,7.94016228 7.07828359,7.95652136 Z" id="Rectangle-35" fill="#81DA45" transform="translate(8.425359, 10.000000) rotate(45.000000) translate(-8.425359, -10.000000) "></path>
            <path d="M3.03695437,8.05456996 L5.43936704,8.58683479 C5.64448359,8.63227924 5.80390257,8.79375711 5.84671131,8.99943989 L6.33817229,11.360758 L5.65611545,10.929229 C5.52553478,10.8466123 5.3655721,10.8246007 5.2175303,10.8688779 L3.54904681,11.3678972 C3.26645442,11.4524164 2.96885159,11.2918465 2.8843323,11.0092541 C2.87997434,10.9946831 2.87624078,10.9799327 2.8731418,10.9650431 L2.39856007,8.68482456 C2.33845782,8.39605183 2.52383187,8.11323277 2.8126046,8.05313052 C2.88664626,8.03772024 2.96311655,8.03821087 3.03695437,8.05456996 Z" id="Rectangle-35" fill="#81DA45" transform="translate(4.365561, 9.717288) rotate(45.000000) translate(-4.365561, -9.717288) "></path>
            <path d="M3.21158454,3.60863982 L4.33980713,3.78271453 C4.44525017,3.79898345 4.54340391,3.84646045 4.62161638,3.91902575 L5.37293176,4.616094 L5.61672141,5.78742791 C5.67682366,6.07620064 5.49144961,6.3590197 5.20267688,6.41912195 C5.12863522,6.43453223 5.05216493,6.43404159 4.97832711,6.41768251 L2.57591443,5.88541768 C2.37079789,5.83997323 2.21137891,5.67849536 2.16857017,5.47281258 L1.96222932,4.4814086 L2.7695611,3.74249591 C2.8889958,3.63318297 3.05157068,3.5839511 3.21158454,3.60863982 Z" id="Rectangle-35" fill="#81DA45" transform="translate(3.792280, 5.015118) rotate(45.000000) translate(-3.792280, -5.015118) "></path>
            <path d="M17.8475144,11.9162755 L20.249927,12.4485403 C20.4550436,12.4939847 20.6144626,12.6554626 20.6572713,12.8611454 L21.1800589,15.3729781 C21.2401611,15.6617509 21.0547871,15.9445699 20.7660143,16.0046722 C20.6919727,16.0200825 20.6155024,16.0195918 20.5416646,16.0032327 L18.1392519,15.4709679 C17.9341354,15.4255235 17.7747164,15.2640456 17.7319076,15.0583628 L17.2091201,12.5465301 C17.1490178,12.2577573 17.3343919,11.9749383 17.6231646,11.914836 C17.6972062,11.8994257 17.7736765,11.8999164 17.8475144,11.9162755 Z" id="Rectangle-35" fill="#81DA45" transform="translate(19.194589, 13.959754) rotate(45.000000) translate(-19.194589, -13.959754) "></path>
            <path d="M17.8475144,7.95652136 L20.249927,8.48878619 C20.4550436,8.53423065 20.6144626,8.69570851 20.6572713,8.90139129 L21.1800589,11.413224 C21.2401611,11.7019968 21.0547871,11.9848158 20.7660143,12.0449181 C20.6919727,12.0603284 20.6155024,12.0598377 20.5416646,12.0434786 L18.1392519,11.5112138 C17.9341354,11.4657694 17.7747164,11.3042915 17.7319076,11.0986087 L17.2091201,8.58677596 C17.1490178,8.29800323 17.3343919,8.01518417 17.6231646,7.95508192 C17.6972062,7.93967164 17.7736765,7.94016228 17.8475144,7.95652136 Z" id="Rectangle-35" fill="#81DA45" transform="translate(19.194589, 10.000000) rotate(45.000000) translate(-19.194589, -10.000000) "></path>
            <path d="M22.2939648,7.68498873 L24.447907,8.16220386 C24.7358847,8.22600657 24.9176145,8.51118098 24.8538118,8.79915873 C24.8493591,8.81925641 24.8437481,8.83907984 24.8370071,8.85852981 L24.4212126,10.0582152 C24.3890019,10.1511522 24.3830823,10.2511794 24.4041063,10.3472669 L24.7019564,11.7085463 L22.5857023,11.2396812 C22.3805858,11.1942367 22.2211668,11.0327589 22.1783581,10.8270761 L21.6555705,8.31524332 C21.5954682,8.02647059 21.7808423,7.74365154 22.069615,7.68354929 C22.1436567,7.668139 22.220127,7.66862964 22.2939648,7.68498873 Z" id="Rectangle-35" fill="#81DA45" transform="translate(23.253977, 9.691420) rotate(45.000000) translate(-23.253977, -9.691420) "></path>
            <path d="M22.5745564,4.12847718 L23.4168095,3.14759579 L24.2535776,3.33298536 C24.4586941,3.37842981 24.6181131,3.53990767 24.6609218,3.74559045 L25.1837094,6.2574232 C25.2438117,6.54619593 25.0584376,6.82901499 24.7696649,6.88911724 C24.6956232,6.90452752 24.6191529,6.90403689 24.5453151,6.8876778 L23.3280399,6.61798525 L22.7107663,6.07366408 C22.6055768,5.98090639 22.5410941,5.8504952 22.5312448,5.71059592 L22.4469945,4.51391212 C22.4371197,4.37365112 22.482956,4.23515435 22.5745564,4.12847718 Z" id="Rectangle-35" fill="#81DA45" transform="translate(23.817960, 5.022984) rotate(45.000000) translate(-23.817960, -5.022984) "></path>
            <path d="M13.7620568,18.7365723 L11.8644268,16.9714355 C9.40086013,17.3000307 7.5144043,16.8084039 6.20505934,15.4965549 C4.89571439,14.1847059 4.32092598,12.7314363 4.48069411,11.1367459 C1.90521084,10.0083641 0.617469201,8.52873626 0.617469201,6.69786241 C0.617469201,3.95155165 2.2173415,3.36235894 3.16609075,3.36235894 C4.11483999,3.36235894 5.21266526,3.56119792 5.21266526,5.17320421 C5.21266526,6.24787507 4.65422175,6.80198387 3.53733474,6.8355306 C3.83382161,7.6683214 4.52692433,8.1475604 5.61664288,8.27324761 C5.6251878,6.95705838 6.43642954,6.39146593 7.10451097,6.39146593 C7.7725924,6.39146593 8.53769156,6.6394043 8.28344727,8.03982205 C9.35537485,8.02571615 10.7641038,7.50691732 10.7641038,5.60370551" id="Path-93" stroke="#F5CD2E" stroke-width="1.06814815" stroke-linecap="round" stroke-linejoin="round"></path>
            <path d="M26.9743465,18.7365723 L25.0767165,16.9714355 C22.6131498,17.3000307 20.726694,16.8084039 19.417349,15.4965549 C18.1080041,14.1847059 17.5332156,12.7314363 17.6929838,11.1367459 C15.1175005,10.0083641 13.8297589,8.52873626 13.8297589,6.69786241 C13.8297589,3.95155165 15.4296312,3.36235894 16.3783804,3.36235894 C17.3271297,3.36235894 18.4249549,3.56119792 18.4249549,5.17320421 C18.4249549,6.24787507 17.8665114,6.80198387 16.7496244,6.8355306 C17.0461113,7.6683214 17.739214,8.1475604 18.8289325,8.27324761 C18.8374775,6.95705838 19.6487192,6.39146593 20.3168006,6.39146593 C20.9848821,6.39146593 21.7499812,6.6394043 21.4957369,8.03982205 C22.5676645,8.02571615 23.9763935,7.50691732 23.9763935,5.60370551" id="Path-93" stroke="#F5CD2E" stroke-width="1.06814815" stroke-linecap="round" stroke-linejoin="round" transform="translate(20.402053, 11.049466) scale(-1, 1) translate(-20.402053, -11.049466) "></path>
            <path d="M13.8266695,0.449761285 C14.2535213,2.5724736 15.6059414,3.8885498 17.8839299,4.39798991 C17.3884559,4.93812844 16.910006,5.49033836 16.4485802,6.05461968 L11.100708,6.05461968 C10.6080385,5.42030617 10.2098232,4.89942763 9.9060622,4.49198405 C12.0537297,3.88561107 13.3605988,2.53820349 13.8266695,0.449761285 Z" id="Path-94" stroke="#F5CD2E" stroke-width="1.06814815" fill="#F5CD2E" stroke-linecap="round" stroke-linejoin="round"></path>
            <path d="M12.462899,4.62318803 L14.8653116,5.15545286 C15.0704282,5.20089731 15.2298472,5.36237517 15.2726559,5.56805796 L15.7954435,8.07989071 C15.8555457,8.36866344 15.6701717,8.65148249 15.381399,8.71158474 C15.3073573,8.72699503 15.230887,8.72650439 15.1570492,8.7101453 L12.7546365,8.17788047 C12.54952,8.13243602 12.390101,7.97095816 12.3472923,7.76527537 L11.8245047,5.25344263 C11.7644024,4.96466989 11.9497765,4.68185084 12.2385492,4.62174859 C12.3125909,4.60633831 12.3890611,4.60682894 12.462899,4.62318803 Z" id="Rectangle-35" fill="#FDB854" transform="translate(13.809974, 6.666667) rotate(45.000000) translate(-13.809974, -6.666667) "></path>
            <path d="M4.83747746,13.5723199 C3.81552476,13.4341522 3.02628072,13.7131054 2.46974534,14.4091797 C1.92978845,15.0845188 2.12552193,15.6741891 2.54802997,15.8858236 C2.82205904,16.0230849 3.58814416,15.9994846 4.06619967,15.350274" id="Path-95" stroke="#F5CD2E" stroke-width="1.06814815" stroke-linecap="round" stroke-linejoin="round"></path>
            <path d="M25.4544103,13.5723199 C24.4324576,13.4341522 23.6432135,13.7131054 23.0866782,14.4091797 C22.5467213,15.0845188 22.7424547,15.6741891 23.1649628,15.8858236 C23.4389919,16.0230849 24.205077,15.9994846 24.6831325,15.350274" id="Path-95" stroke="#F5CD2E" stroke-width="1.06814815" stroke-linecap="round" stroke-linejoin="round" transform="translate(24.106083, 14.745688) scale(-1, 1) translate(-24.106083, -14.745688) "></path>
            <path d="M22.2236411,16.9056532 C21.2016883,16.7674855 20.4124443,17.0464388 19.8559089,17.742513 C19.315952,18.4178521 19.5116855,19.0075224 19.9341936,19.2191569 C20.2082226,19.3564182 20.9743077,19.3328179 21.4523633,18.6836073" id="Path-95" stroke="#F5CD2E" stroke-width="1.06814815" stroke-linecap="round" stroke-linejoin="round" transform="translate(20.875314, 18.079021) scale(-1, 1) rotate(-20.000000) translate(-20.875314, -18.079021) "></path>
            <path d="M8.12692574,16.9056532 C7.10497303,16.7674855 6.31572899,17.0464388 5.75919362,17.742513 C5.21923673,18.4178521 5.4149702,19.0075224 5.83747825,19.2191569 C6.11150732,19.3564182 6.87759243,19.3328179 7.35564795,18.6836073" id="Path-95" stroke="#F5CD2E" stroke-width="1.06814815" stroke-linecap="round" stroke-linejoin="round" transform="translate(6.778599, 18.079021) rotate(-20.000000) translate(-6.778599, -18.079021) "></path>
            <path d="M6.17844302,9.76155599 C5.97139299,11.5084274 6.452494,12.9204418 7.62174605,13.9975993 C8.79099811,15.0747568 10.1775103,15.510819 11.7812826,15.3057861 C11.9416882,14.1298793 11.6439087,13.1678974 10.8879438,12.4198405 C10.131979,11.6717836 8.56214541,10.7856887 6.17844302,9.76155599 Z" id="Path-96" stroke="#F5CD2E" stroke-width="1.06814815" fill="#FFFFFF" stroke-linecap="round" stroke-linejoin="round"></path>
            <path d="M15.8707507,9.76155599 C15.6637007,11.5084274 16.1448017,12.9204418 17.3140537,13.9975993 C18.4833058,15.0747568 19.869818,15.510819 21.4735903,15.3057861 C21.6339959,14.1298793 21.3362164,13.1678974 20.5802515,12.4198405 C19.8242867,11.6717836 18.2544531,10.7856887 15.8707507,9.76155599 Z" id="Path-96" stroke="#F5CD2E" stroke-width="1.06814815" fill="#FFFFFF" stroke-linecap="round" stroke-linejoin="round" transform="translate(18.669868, 12.558261) scale(-1, 1) translate(-18.669868, -12.558261) "></path>
        </g>
    </g>
</svg>