<?xml version="1.0" encoding="UTF-8"?>
<svg width="48px" height="48px" viewBox="0 0 48 48" version="1.1" xmlns="http://www.w3.org/2000/svg" xmlns:xlink="http://www.w3.org/1999/xlink">
    <!-- Generator: Sketch 51.3 (57544) - http://www.bohemiancoding.com/sketch -->
    <title>Eyewear-sunglassesaviators</title>
    <desc>Created with Sketch.</desc>
    <defs></defs>
    <g id="SVGs" stroke="none" stroke-width="1" fill="none" fill-rule="evenodd">
        <g id="Slices" transform="translate(-118.000000, -295.000000)"></g>
        <g id="Group-29" transform="translate(10.000000, 18.000000)" fill-rule="nonzero">
            <path d="M15.5126197,5.38819512 C15.1256138,5.14237062 14.6664387,5 14.1740112,5 C13.6101735,5 13.0899319,5.18665688 12.6717076,5.50154927" id="Oval-16" stroke="#E98734"></path>
            <path d="M27.588623,2.85524766 C27.2016172,2.60942315 26.7424421,2.46705254 26.2500146,2.46705254 C26.1165286,2.46705254 25.9854861,2.47751435 25.8576623,2.49766278" id="Oval-16" stroke="#E98734" stroke-linecap="round" transform="translate(26.723143, 2.967053) scale(1, -1) translate(-26.723143, -2.967053) "></path>
            <path d="M2.7139353,2.51001507 C2.56360644,2.48180613 2.40853347,2.46705254 2.25001461,2.46705254 C1.68617691,2.46705254 1.16593525,2.65370942 0.747711023,2.96860181" id="Oval-16" stroke="#E98734" stroke-linecap="round" transform="translate(1.730823, 2.967053) scale(1, -1) translate(-1.730823, -2.967053) "></path>
            <path d="M20.5,11.5 C17.7385763,11.5 15.5,9.26142375 15.5,6.5 C15.5,3.73857625 17.7385763,1.5 20.5,1.5 C21.2108557,1.5 22.3871751,1.50990763 24.0300864,1.52971795 C24.8538925,1.53965146 25.5155008,2.21214731 25.511987,3.03600495 C25.5039963,4.91022494 25.5,6.0653405 25.5,6.5 C25.5,9.26142375 23.2614237,11.5 20.5,11.5 Z" id="Oval-17" stroke="#E98734" fill="#8F2F0F"></path>
            <path d="M7.80886016,11.5 C5.04743641,11.5 2.80886016,9.26142375 2.80886016,6.5 C2.80886016,3.73857625 5.04743641,1.5 7.80886016,1.5 C8.51971587,1.5 9.69603528,1.50990763 11.3389465,1.52971795 C12.1627526,1.53965146 12.8243609,2.21214731 12.8208471,3.03600495 C12.8128564,4.91022494 12.8088602,6.0653405 12.8088602,6.5 C12.8088602,9.26142375 10.5702839,11.5 7.80886016,11.5 Z" id="Oval-17" stroke="#E98734" fill="#8F2F0F" transform="translate(7.814861, 6.500000) scale(-1, 1) translate(-7.814861, -6.500000) "></path>
            <g id="Group-28" transform="translate(7.291245, 6.428714) rotate(-8.000000) translate(-7.291245, -6.428714) translate(2.791245, 1.428714)" fill="#FFFFFF" opacity="0.498270089">
                <path d="M0.987287692,1.40371344 L6.35275756,9.44016947 C6.27380773,9.46651224 6.19035597,9.49066292 6.10240228,9.51262151 C6.0144486,9.5345801 5.9261327,9.55331308 5.8374546,9.56882044 L0.88698045,2.15394927 L0.987287692,1.40371344 Z" id="Path-69"></path>
                <path d="M3.88380873,0.452351761 L8.7211867,7.69782632 C8.67321366,7.76200298 8.62139684,7.82981508 8.56573624,7.90126262 C8.51007564,7.97271017 8.45397745,8.04342087 8.39744168,8.11339474 L3.22681485,0.368776618 L3.88380873,0.452351761 Z" id="Path-69"></path>
                <path d="M1.46864996,0.378736784 C1.62212438,0.280917262 1.79174951,0.228551342 1.97752534,0.221639026 L7.69580531,8.75914507 C7.56627699,8.85554012 7.42765216,8.94657155 7.27993083,9.03223936 C7.1322095,9.11790717 6.98187842,9.1944495 6.82893761,9.26186636 L1.1340297,0.759255263 C1.20363545,0.6033958 1.31517554,0.476556307 1.46864996,0.378736784 Z" id="Path-69"></path>
            </g>
            <g id="Group-28" transform="translate(20.786379, 6.359128) rotate(-8.000000) translate(-20.786379, -6.359128) translate(16.786379, 1.359128)" fill="#FFFFFF" opacity="0.498270089">
                <path d="M0.266410756,2.18974837 C0.319655521,2.12666988 0.374103072,2.06567004 0.429753407,2.00674884 L5.3028147,9.30567025 C5.22632898,9.33452623 5.14566198,9.36217693 5.06081373,9.38862236 C4.97596547,9.41506778 4.89075196,9.43911857 4.80517318,9.4607747 L0.0940675637,2.40443218 C0.15571826,2.32438813 0.213165991,2.25282686 0.266410756,2.18974837 Z" id="Path-69"></path>
                <path d="M3.32147568,0.61732807 L7.69478318,7.16771308 C7.65396345,7.24336313 7.6090583,7.32162594 7.56006774,7.40250152 C7.51107717,7.48337711 7.46065289,7.56248792 7.40879491,7.63983396 L2.77202569,0.694833262 C2.86166055,0.673988695 2.9524939,0.657075425 3.04452573,0.644093452 C3.13655757,0.631111479 3.22887422,0.622189685 3.32147568,0.61732807 Z" id="Path-69"></path>
                <path d="M1.17587277,1.36795473 C1.32406269,1.26925573 1.47602696,1.18117494 1.63176558,1.10371235 L6.60639155,8.53092816 C6.47694049,8.64093971 6.34282455,8.74287906 6.20404373,8.83674622 C6.06526291,8.93061338 5.92326863,9.01542664 5.77806089,9.09118601 L0.799468161,1.65804777 C0.902214645,1.56335141 1.02768285,1.46665373 1.17587277,1.36795473 Z" id="Path-69"></path>
            </g>
            <path d="M11.246521,2.78277588 L16.9978638,2.78277588" id="Path-70" stroke="#E98734"></path>
        </g>
    </g>
</svg>