<?xml version="1.0" encoding="UTF-8"?>
<svg width="48px" height="48px" viewBox="0 0 48 48" version="1.1" xmlns="http://www.w3.org/2000/svg" xmlns:xlink="http://www.w3.org/1999/xlink">
    <!-- Generator: Sketch 51.3 (57544) - http://www.bohemiancoding.com/sketch -->
    <title>Eyewear-oculusrift</title>
    <desc>Created with Sketch.</desc>
    <defs></defs>
    <g id="SVGs" stroke="none" stroke-width="1" fill="none" fill-rule="evenodd">
        <g id="Slices" transform="translate(-707.000000, -295.000000)"></g>
        <g id="Group-45" transform="translate(10.000000, 17.000000)" fill="#939393" fill-rule="nonzero">
            <path d="M9.7858281,5.23681641 L2.43478261,5.23681641 L2.43478261,3.90792752 C2.43478261,1.88042884 4.07839504,0.236816406 6.10589372,0.236816406 L21.8941063,0.236816406 C23.921605,0.236816406 25.5652174,1.88042884 25.5652174,3.90792752 L25.5652174,5.23681641 L18.2125186,5.23681641 C17.8957558,5.25235239 17.6290111,5.37105941 17.4122845,5.59293747 C17.1903405,5.82015708 17.067405,6.10903774 17.0434783,6.45957945 L17.0434783,6.5131127 C17.0434783,7.1889456 16.4956075,7.73681641 15.8197746,7.73681641 L12.1802254,7.73681641 C11.5043925,7.73681641 10.9565217,7.1889456 10.9565217,6.5131127 L10.9565217,6.48681641 C10.9372152,6.12397512 10.8137287,5.82601547 10.5860622,5.59293747 C10.3693357,5.37105941 10.102591,5.25235239 9.7858281,5.23681641 Z" id="Combined-Shape"></path>
            <path d="M2.43478261,9.27688599 L25.5652174,9.27688599 L25.5652174,10.6057749 C25.5652174,12.6332736 23.921605,14.276886 21.8941063,14.276886 L6.10589372,14.276886 C4.07839504,14.276886 2.43478261,12.6332736 2.43478261,10.6057749 L2.43478261,9.27688599 Z" id="Rectangle-33"></path>
            <path d="M26.7826087,5.24093628 L26.7826087,5.24093628 C27.4549553,5.24093628 28,5.78598093 28,6.45832758 L28,7.26469994 C28,8.38239374 27.0939301,9.28846359 25.9762363,9.28846359 L25.5652174,9.28846359 L25.5652174,6.45832758 C25.5652174,5.78598093 26.110262,5.24093628 26.7826087,5.24093628 Z" id="Rectangle-34"></path>
            <path d="M1.2173913,5.24093628 L1.2173913,5.24093628 C1.88973796,5.24093628 2.43478261,5.78598093 2.43478261,6.45832758 L2.43478261,7.26469994 C2.43478261,8.38239374 1.52871276,9.28846359 0.411018952,9.28846359 L0,9.28846359 L0,6.45832758 C-8.23387175e-17,5.78598093 0.545044652,5.24093628 1.2173913,5.24093628 Z" id="Rectangle-34" transform="translate(1.217391, 7.264700) scale(-1, 1) translate(-1.217391, -7.264700) "></path>
            <path d="M25.5687097,8.03775787 L25.5687097,9.28573608 L24.3265195,9.28573608 C24.6695173,9.28244273 24.9726268,9.14857229 25.2358478,8.88412476 C25.426227,8.69285853 25.5371809,8.41073623 25.5687097,8.03775787 Z" id="Path-92"></path>
            <path d="M3.65566619,8.03775787 L3.65566619,9.28573608 L2.41347603,9.28573608 C2.75647386,9.28244273 3.05958329,9.14857229 3.32280433,8.88412476 C3.51318347,8.69285853 3.62413743,8.41073623 3.65566619,8.03775787 Z" id="Path-92" transform="translate(3.034571, 8.662758) scale(-1, 1) translate(-3.034571, -8.662758) "></path>
        </g>
    </g>
</svg>