<?xml version="1.0" encoding="UTF-8"?>
<svg width="49px" height="48px" viewBox="0 0 49 48" version="1.1" xmlns="http://www.w3.org/2000/svg" xmlns:xlink="http://www.w3.org/1999/xlink">
    <!-- Generator: Sketch 51.3 (57544) - http://www.bohemiancoding.com/sketch -->
    <title>eyewear-scubagoggles</title>
    <desc>Created with Sketch.</desc>
    <defs></defs>
    <g id="SVGs" stroke="none" stroke-width="1" fill="none" fill-rule="evenodd">
        <g id="Slices" transform="translate(-830.000000, -295.000000)"></g>
        <g id="Group-40" transform="translate(8.712849, 10.636178)" fill-rule="nonzero">
            <path d="" id="Path-89" stroke="#979797"></path>
            <path d="M22.5328696,18.002151 C22.7756369,17.6100762 23.2269789,17.4809733 24.2193925,18.1622345 C24.8810016,18.6164086 25.441898,18.9790226 25.9020817,19.2500765 C26.1965524,19.7624816 26.0945272,20.0186841 25.5960064,20.0186841 C25.0974855,20.0186841 24.9869986,20.1885073 25.2645456,20.5281535 C25.7013126,21.2144918 25.7013126,21.6197947 25.2645456,21.7440623 C24.8277786,21.8683298 24.5251921,21.8683298 24.356786,21.7440623 C24.7083143,22.304337 24.7083143,22.6850834 24.356786,22.8863015 C24.0052577,23.0875197 23.478208,23.2094732 22.7756369,23.2521621 L21.1953182,21.7440623 C20.9080315,21.3649046 20.9080315,21.1083912 21.1953182,20.9745221 C21.4826049,20.8406529 21.7692354,20.7837344 22.0552097,20.8037664 C21.7041659,20.1917538 21.616405,19.8275165 21.7919268,19.7110546 C21.9674487,19.5945926 22.2144297,19.389817 22.5328696,19.0967279 C22.3710248,18.6283933 22.3710248,18.2635343 22.5328696,18.002151 Z" id="Path-93" stroke="#33333A" fill="#33333A"></path>
            <polygon id="Path-91" stroke="#9C9C9C" fill="#9C9C9C" points="25.4069268 9.03370882 23.67522 18.130949 25.4069268 18.9683976 27.3174853 9.03370882"></polygon>
            <path d="M25.1119471,9.0598218 L27.3511768,9.0598218 C28.1402984,6.60476348 28.2375497,4.84683228 27.6429307,3.78602821 C26.1141495,3.60586236 24.8663696,4.03608597 23.899591,5.07669905 C24.7078284,6.10739583 25.1119471,6.77937381 25.1119471,7.09263299 C25.1119471,7.40589217 25.1119471,8.06162177 25.1119471,9.0598218 Z" id="Path-90" stroke="#71D72E" fill="#71D72E"></path>
            <path d="M21.4578206,21.2338458 C21.8287945,21.3396104 22.1697941,21.5403124 22.4808195,21.8359518 C22.7918449,22.1315911 23.0132895,22.6023462 23.1451534,23.2482168 L21.0203449,25.1711265 C20.4348786,25.0398326 20.0177467,24.7916619 19.7689492,24.4266145 C19.5201517,24.061567 19.3383688,23.6687678 19.2236005,23.2482168 L19.7689492,22.9343421 L19.7689492,22.3707012 C18.7320459,22.0429221 18.4146381,21.6639703 18.816726,21.2338458 C19.4198577,20.588659 20.0069195,20.3004276 20.9026989,20.0602349 C21.1927537,20.0602349 21.3777942,20.4514385 21.4578206,21.2338458 Z" id="Path-92" stroke="#71D72E" fill="#71D72E" stroke-linejoin="round"></path>
            <path d="M15.1512791,8.00767428 C17.7311772,8.05910916 20.2736109,8.80071459 23.3372029,10.161153 L21.5509341,17.2488644 L16.9183875,17.2488644 L15.1512791,15.3503686 L14.5976099,15.3503686 L12.9737806,17.2488644 L8.34080502,17.2488644 L6.36035096,10.5844095 C8.14976627,8.95185754 12.5713809,7.9562394 15.1512791,8.00767428 Z" id="Combined-Shape" stroke="#A8A5A8" fill="#A8A5A8" stroke-linejoin="round"></path>
            <path d="M14.8487769,9.06868025 C16.9974388,9.10851687 19.4645787,9.64463674 22.0160838,10.6983043 L20.5283942,16.1877789 L17.2096345,16.1877789 L15.5978884,14.3960464 L14.0996654,14.3960464 L12.4879193,16.1877789 L9.16915961,16.1877789 L7.68147005,10.6983043 C10.2212664,9.644641 12.7001151,9.02884364 14.8487769,9.06868025 Z" id="Combined-Shape" stroke="#E1E4FC" fill="#E1E4FC" stroke-linejoin="round"></path>
            <path d="M6.68347415,13.5176182 L6.23198929,11.5526887 C5.36508565,11.8225077 5.03024636,12.3797336 5.22747144,13.2243662 C5.52330904,14.4913152 5.72784319,15.3183078 7.2178151,15.3183078 C7.02166842,14.7777304 6.84355477,14.1775005 6.68347415,13.5176182 Z" id="Path-85" stroke="#A8A5A8" fill="#A8A5A8"></path>
            <polygon id="Path-86" stroke="#434143" fill="#434143" stroke-linecap="round" stroke-linejoin="round" points="6.49457057 12.1888582 5.01160818 12.586244 5.58135618 15.1447181 7.14735441 14.7609919"></polygon>
            <path d="M23.4467002,11.8568244 L22.470543,15.309772 C23.1213145,15.3462268 23.4467002,15.2659138 23.4467002,15.068833 C23.4467002,14.7732118 24.2038627,12.5597289 24.2038627,12.2111103 C24.2038627,11.978698 23.9514752,11.8606027 23.4467002,11.8568244 Z" id="Path-87" stroke="#A8A5A8" fill="#A8A5A8"></path>
            <path d="M22.9095457,12.1888582 L22.470543,14.9122804 C24.2956524,14.9122804 25.3398933,14.6920919 25.603266,14.2517149 C26.0755599,14.9122804 26.3277163,15.4795156 26.7177617,15.4795156 C26.918507,15.4795156 26.8719952,15.0702487 26.5782264,14.2517149 C27.1025246,14.2212893 27.3646736,13.99705 27.3646736,13.5789971 C27.3646736,12.9519176 26.5782264,13.3510217 25.790514,13.5789971 C25.3120163,12.6522378 24.3516935,12.1888582 22.9095457,12.1888582 Z" id="Path-88" stroke="#434143" stroke-width="0.5" fill="#434143" stroke-linejoin="round"></path>
            <polygon id="Path-94" fill="#FFFEFF" opacity="0.5" points="12.8976262 8.92049919 10.5565584 16.4530694 11.6884553 16.4530694 14.0382121 8.79740518"></polygon>
            <polygon id="Path-94" fill="#FFFEFF" opacity="0.5" points="14.3629748 8.80667982 11.9657942 16.4449053 12.4840037 16.4449053 14.9077476 8.80667982"></polygon>
            <polygon id="Path-94-Copy" fill="#FFFEFF" opacity="0.5" points="19.6100333 9.55478104 17.2345953 16.444542 17.7033407 16.444542 20.0074467 9.68204268"></polygon>
        </g>
    </g>
</svg>