<?xml version="1.0" encoding="UTF-8"?>
<svg width="48px" height="48px" viewBox="0 0 48 48" version="1.1" xmlns="http://www.w3.org/2000/svg" xmlns:xlink="http://www.w3.org/1999/xlink">
    <!-- Generator: Sketch 51.3 (57544) - http://www.bohemiancoding.com/sketch -->
    <title>Eyewear-sunglassessporty</title>
    <desc>Created with Sketch.</desc>
    <defs></defs>
    <g id="SVGs" stroke="none" stroke-width="1" fill="none" fill-rule="evenodd">
        <g id="Slices" transform="translate(0.000000, -295.000000)"></g>
        <g id="Group-25" transform="translate(10.000000, 19.000000)" fill-rule="nonzero">
            <path d="M13.8411529,3.48349228 C14.0446711,3.4792877 14.1883939,3.26626973 14.255249,3.15344238 C15.5702973,0.934114538 23.4562988,0.375549316 26.7544556,0.454650879 C27.3852529,0.469779649 27.8473651,0.734256554 27.2481689,2.24206543 C26.9216309,3.06376139 26.4602254,3.86938477 25.8639526,4.65893555 C20.3105265,6.11999512 17.3532511,7.0162557 16.9921265,7.34771729 C16.4504395,7.84490967 15.802124,8.18505859 15.4110718,8.26959229 C15.0200195,8.35412598 14.9570618,7.92681885 14.9570618,7.62597656 C14.9570618,6.34444931 14.5832887,5.6832202 13.8357424,5.64228925 C13.083248,5.6832202 12.7070007,6.34444931 12.7070007,7.62597656 C12.7070007,7.92681885 12.644043,8.35412598 12.2529907,8.26959229 C11.8619385,8.18505859 11.2211914,7.84490967 10.6795044,7.34771729 C10.3183797,7.0162557 7.36110433,6.11999512 1.80767822,4.65893555 C1.21140544,3.86938477 0.75,3.06376139 0.423461914,2.24206543 C-0.175734195,0.734256554 0.286377976,0.469779649 0.917175293,0.454650879 C4.21533203,0.375549316 12.1013336,0.934114538 13.4163818,3.15344238 C13.4844,3.26823249 13.6319835,3.4867294 13.8411535,3.48352051 Z" id="Combined-Shape" fill="#3157B2"></path>
            <path d="M1.68562225,2.76572091 L1.685644,6.42500182 C1.685644,7.15428443 2.08260651,7.82575399 2.72157045,8.17729092 C4.1132727,8.94295971 5.81491302,9.52814984 7.82649139,9.93286133 C8.96028456,10.1609703 9.70906385,9.85953803 10.0728293,9.02856445 L11.9048605,5.00366211 C12.1638124,4.20385742 11.8900493,3.66918945 11.0835715,3.3996582 C8.78290263,2.63075657 5.8163575,2.25277853 2.18393608,2.26572408 L2.18393574,2.26562832 C1.90843799,2.26661016 1.68562225,2.49022141 1.68562225,2.76572091 Z" id="Path-64" fill="#000000"></path>
            <g id="Group-24" transform="translate(5.939065, 5.996273) rotate(7.000000) translate(-5.939065, -5.996273) translate(0.939065, 1.996273)" fill="#939393">
                <path d="M0.399232347,1.40603724 L7.2781345,7.6719193 C7.40125109,7.68419194 7.53062773,7.68955244 7.66626443,7.6880008 C7.80190112,7.68644916 7.93744194,7.67805809 8.07288687,7.66282758 L0.641714288,0.809118665 C0.524288792,0.878286433 0.447498571,0.964802338 0.411343626,1.06866638 C0.3705544,1.18584354 0.366517307,1.2983005 0.399232347,1.40603724 Z" id="Path-66"></path>
                <path d="M1.16517111,0.713513631 L8.6272789,7.5111253 C8.80968701,7.43806639 8.97040176,7.32636366 9.10942315,7.17601709 C9.24844453,7.02567053 9.35206219,6.85150739 9.42027613,6.65352767 L2.80354466,0.548877465 C2.56260703,0.566037868 2.30084221,0.588897486 2.01825019,0.617456319 C1.73565818,0.646015153 1.45129848,0.678034257 1.16517111,0.713513631 Z" id="Path-66"></path>
                <polygon id="Path-66" points="4.33591451 0.452344258 9.80401197 5.45007388 9.98575967 4.86862672 5.19437932 0.428181188 4.76666228 0.431067952"></polygon>
            </g>
            <path d="M15.6856223,2.76572091 L15.685644,6.42500182 C15.685644,7.15428443 16.0826065,7.82575399 16.7215704,8.17729092 C18.1132727,8.94295971 19.814913,9.52814984 21.8264914,9.93286133 C22.9602846,10.1609703 23.7090639,9.85953803 24.0728293,9.02856445 L25.9048605,5.00366211 C26.1638124,4.20385742 25.8900493,3.66918945 25.0835715,3.3996582 C22.7829026,2.63075657 19.8163575,2.25277853 16.1839361,2.26572408 L16.1839357,2.26562832 C15.908438,2.26661016 15.6856223,2.49022141 15.6856223,2.76572091 Z" id="Path-64" fill="#000000" transform="translate(20.842445, 6.135980) scale(-1, 1) translate(-20.842445, -6.135980) "></path>
            <path d="M16.53364,3.50155305 C16.4726703,3.52406558 16.4130216,3.54906146 16.3546938,3.57654072 L22.6210357,9.13828661 L23.1783024,8.91377239 L16.9906667,3.34171346 C16.8370035,3.39250996 16.6846612,3.44578982 16.53364,3.50155305 Z" id="Path-66" fill="#939393" transform="translate(19.766498, 6.240000) rotate(2.000000) translate(-19.766498, -6.240000) "></path>
            <path d="M17.5013118,3.23094428 L23.7079497,8.73918822 C23.9684612,8.61790149 24.16157,8.52547325 24.2872762,8.46190352 C24.4129825,8.39833379 24.5905845,8.30329333 24.8200822,8.17678212 L18.9118567,2.85742049 C18.5708927,2.93731851 18.3193301,2.99873833 18.1571688,3.04167996 C17.9950075,3.08462159 17.7763885,3.1477097 17.5013118,3.23094428 Z" id="Path-66" fill="#939393" transform="translate(21.160697, 5.798304) rotate(2.000000) translate(-21.160697, -5.798304) "></path>
            <path d="M20.689159,2.59600617 C20.5687609,2.6150063 20.4487437,2.63583279 20.3291072,2.65848564 L25.7381326,7.45920005 C25.7893613,7.39280437 25.8335331,7.31472292 25.8706481,7.2249557 C25.907763,7.13518848 25.9415928,7.03814896 25.9721375,6.93383714 L21.0878233,2.53875194 C20.9545544,2.55601033 20.8216663,2.57509507 20.689159,2.59600617 Z" id="Path-66" fill="#939393" transform="translate(23.150622, 4.998976) rotate(2.000000) translate(-23.150622, -4.998976) "></path>
        </g>
    </g>
</svg>