<?xml version="1.0" encoding="UTF-8"?>
<svg width="48px" height="48px" viewBox="0 0 48 48" version="1.1" xmlns="http://www.w3.org/2000/svg" xmlns:xlink="http://www.w3.org/1999/xlink">
    <!-- Generator: Sketch 51.3 (57544) - http://www.bohemiancoding.com/sketch -->
    <title>Eyewear-glassesround</title>
    <desc>Created with Sketch.</desc>
    <defs></defs>
    <g id="SVGs" stroke="none" stroke-width="1" fill="none" fill-rule="evenodd">
        <g id="Slices" transform="translate(-649.000000, -295.000000)"></g>
        <g id="Group-44" transform="translate(10.000000, 16.000000)" fill-rule="nonzero">
            <path d="M6.90366392,12.8140625 C9.48099275,12.8140625 11.5703306,10.6650293 11.5703306,8.0140625 C11.5703306,5.3630957 9.48099275,3.2140625 6.90366392,3.2140625 C4.32633509,3.2140625 2.23699725,5.3630957 2.23699725,8.0140625 C2.23699725,10.6650293 4.32633509,12.8140625 6.90366392,12.8140625 Z" id="Oval-28" stroke="#FDB854" stroke-width="1.03703704" fill="#9EB4EE"></path>
            <path d="M20.3851454,12.8140625 C22.9624742,12.8140625 25.0518121,10.6650293 25.0518121,8.0140625 C25.0518121,5.3630957 22.9624742,3.2140625 20.3851454,3.2140625 C17.8078166,3.2140625 15.7184787,5.3630957 15.7184787,8.0140625 C15.7184787,10.6650293 17.8078166,12.8140625 20.3851454,12.8140625 Z" id="Oval-28" stroke="#FDB854" stroke-width="1.03703704" fill="#9EB4EE"></path>
            <path d="M15.5974711,8.08625542 C15.1225423,7.53595818 14.429617,7.18919271 13.6579499,7.18919271 C12.8430505,7.18919271 12.1159629,7.57590143 11.6406829,8.18063741" id="Oval-31" stroke="#FDB854" stroke-width="1.03703704"></path>
            <path d="M2.25054253,6.12252604 C1.43564313,6.12252604 0.708555475,6.50923477 0.233275452,7.11397074" id="Oval-31" stroke="#FDB854" stroke-width="1.03703704" stroke-linecap="round" stroke-linejoin="round" transform="translate(1.241909, 6.655859) scale(1, -1) translate(-1.241909, -6.655859) "></path>
            <path d="M27.0048785,6.12252604 C26.1899791,6.12252604 25.4628914,6.50923477 24.9876114,7.11397074" id="Oval-31" stroke="#FDB854" stroke-width="1.03703704" stroke-linecap="round" stroke-linejoin="round" transform="translate(25.996245, 6.655859) scale(-1, -1) translate(-25.996245, -6.655859) "></path>
            <g id="Group-43" transform="translate(14.167712, 8.161602) rotate(10.000000) translate(-14.167712, -8.161602) translate(3.278824, 2.294935)" fill="#FFFFFF">
                <path d="M6.2228833,3.62353694 C5.9634549,3.42037941 5.68548482,3.25154445 5.38897304,3.11703207 L0.451283854,9.65946973 C0.639274375,9.91435002 0.86333624,10.1474932 1.12346945,10.3588993 C1.38360266,10.5703055 1.6635496,10.7467622 1.96331029,10.8882695 L6.91597119,4.31281934 C6.70348358,4.04873597 6.47245428,3.81897517 6.2228833,3.62353694 Z" id="Path-79" opacity="0.495647321"></path>
                <path d="M7.51235751,5.30860311 C7.43508127,5.1350795 7.35504754,4.97570537 7.27225632,4.83048072 L2.41071382,11.0739955 C2.58677778,11.1308307 2.76277803,11.1762301 2.93871457,11.2101937 C3.1146511,11.2441572 3.29209933,11.266989 3.47105925,11.2786892 L7.69672174,5.84091806 C7.65108849,5.65956504 7.58963375,5.48212672 7.51235751,5.30860311 Z" id="Path-79" opacity="0.499888393"></path>
                <path d="M19.4979554,1.21321238 C19.238527,1.01005485 18.9605569,0.841219896 18.6640451,0.706707515 L13.7263559,7.24914517 C13.9143465,7.50402546 14.1384083,7.73716866 14.3985415,7.94857478 C14.6586747,8.15998089 14.9386217,8.33643763 15.2383824,8.47794499 L20.1910433,1.90249479 C19.9785557,1.63841141 19.7475264,1.40865061 19.4979554,1.21321238 Z" id="Path-79" opacity="0.495647321"></path>
                <path d="M20.7843248,2.89949709 C20.7070485,2.72597348 20.6270148,2.56659935 20.5442236,2.4213747 L15.6826811,8.66488951 C15.858745,8.72172472 16.0347453,8.7671241 16.2106818,8.80108765 C16.3866184,8.83505119 16.5640666,8.85788302 16.7430265,8.86958313 L20.968689,3.43181204 C20.9230557,3.25045902 20.861601,3.0730207 20.7843248,2.89949709 Z" id="Path-79" opacity="0.499888393"></path>
            </g>
        </g>
    </g>
</svg>