<?xml version="1.0" encoding="UTF-8"?>
<svg width="48px" height="48px" viewBox="0 0 48 48" version="1.1" xmlns="http://www.w3.org/2000/svg" xmlns:xlink="http://www.w3.org/1999/xlink">
    <!-- Generator: Sketch 51.3 (57544) - http://www.bohemiancoding.com/sketch -->
    <title>Eyewear-glassesbifocals</title>
    <desc>Created with Sketch.</desc>
    <defs></defs>
    <g id="SVGs" stroke="none" stroke-width="1" fill="none" fill-rule="evenodd">
        <g id="Slices" transform="translate(-531.000000, -295.000000)"></g>
        <g id="Group-41" transform="translate(9.000000, 17.000000)" fill-rule="nonzero">
            <path d="M16.8030851,8.66334937 C16.7651947,8.58975284 16.7231678,8.51863435 16.6773115,8.45030114 C16.2927139,7.87718931 15.4745615,7.5 14.7325025,7.5 C13.9576362,7.5 13.1929911,7.9112786 12.8166308,8.52744832" id="Oval-21" stroke="#D42E2D" stroke-width="1.07142857"></path>
            <path d="M3.20991978,4.04780797 L12.4436099,4.04780797 C13.0353436,4.04780797 13.5150385,4.52750288 13.5150385,5.11923654 C13.5150385,5.19611102 13.506765,5.27276225 13.4903609,5.34786613 L12.5023193,9.87148674 C12.3948502,10.3635202 11.9592016,10.7142857 11.4555683,10.7142857 L4.66398189,10.7142857 C4.19856573,10.7142857 3.78637927,10.4138208 3.643954,9.97073254 L2.18989188,5.44711194 C2.0088113,4.88376609 2.31869853,4.28028923 2.88204438,4.09920864 C2.9880031,4.06514952 3.09862165,4.04780797 3.20991978,4.04780797 Z" id="Rectangle-27" stroke="#D42E2D" stroke-width="1.07142857" fill="#9EB4EE" stroke-linecap="round" stroke-linejoin="round"></path>
            <path d="M17.1384912,4.04780797 L26.3721813,4.04780797 C26.963915,4.04780797 27.4436099,4.52750288 27.4436099,5.11923654 C27.4436099,5.19611102 27.4353364,5.27276225 27.4189323,5.34786613 L26.4308907,9.87148674 C26.3234216,10.3635202 25.8877731,10.7142857 25.3841397,10.7142857 L18.5925533,10.7142857 C18.1271372,10.7142857 17.7149507,10.4138208 17.5725254,9.97073254 L16.1184633,5.44711194 C15.9373827,4.88376609 16.24727,4.28028923 16.8106158,4.09920864 C16.9165745,4.06514952 17.0271931,4.04780797 17.1384912,4.04780797 Z" id="Rectangle-27" stroke="#D42E2D" stroke-width="1.07142857" fill="#9EB4EE" stroke-linecap="round" stroke-linejoin="round" transform="translate(21.755192, 7.381047) scale(-1, 1) translate(-21.755192, -7.381047) "></path>
            <path d="M20.1341466,8.57142857 L22.2770037,8.57142857 C22.8687374,8.57142857 23.3484323,9.05112348 23.3484323,9.64285714 L23.3484323,10.1845551 L19.062718,10.183051 L19.062718,9.64285714 C19.062718,9.05112348 19.5424129,8.57142857 20.1341466,8.57142857 Z" id="Rectangle-28" fill="#FFFFFF" opacity="0.52265625"></path>
            <path d="M7.5,8.57142857 L9.64285714,8.57142857 C10.2345908,8.57142857 10.7142857,9.05112348 10.7142857,9.64285714 L10.7142857,10.1845551 L6.42857143,10.183051 L6.42857143,9.64285714 C6.42857143,9.05112348 6.90826634,8.57142857 7.5,8.57142857 Z" id="Rectangle-28" fill="#FFFFFF" opacity="0.52265625"></path>
            <path d="M13.3721924,6.06412615 L16.027614,6.06412615" id="Path-76" stroke="#D42E2D" stroke-width="1.07142857"></path>
            <path d="M0.515049526,6.06412615 L2.19765799,6.06412615" id="Path-76" stroke="#D42E2D" stroke-width="1.07142857" stroke-linecap="round"></path>
            <path d="M27.3007638,6.06412615 L28.9833723,6.06412615" id="Path-76" stroke="#D42E2D" stroke-width="1.07142857" stroke-linecap="round"></path>
            <g id="Group-40" transform="translate(14.924729, 7.384979) scale(-1, 1) rotate(-9.000000) translate(-14.924729, -7.384979) translate(3.139015, 2.027836)" fill="#FFFFFF" opacity="0.500892857">
                <path d="M0.915927098,0.616061826 C1.01283962,0.581252648 1.12404142,0.580477002 1.24953249,0.613734891 L5.95769779,7.55229796 L5.17886768,7.35846399 L0.693173584,0.756015881 C0.744763402,0.697522357 0.819014574,0.650871005 0.915927098,0.616061826 Z" id="Path-69" transform="translate(3.325436, 4.070829) rotate(-5.000000) translate(-3.325436, -4.070829) "></path>
                <polygon id="Path-69" transform="translate(20.767410, 5.993272) rotate(-5.000000) translate(-20.767410, -5.993272) " points="19.6594533 3.63100929 22.6598264 8.05274824 22.3499503 8.55064824 18.8749939 3.4358948"></polygon>
                <path d="M3.82986817,1.07197888 L8.36823388,7.73924429 C8.29985705,7.79751249 8.2248574,7.83681369 8.14323494,7.85714788 C8.06161249,7.87748206 7.97673496,7.87801025 7.88860235,7.85873243 L6.98099485,7.62802177 L2.27386402,0.688704656 L3.82986817,1.07197888 Z" id="Path-69" transform="translate(5.321049, 4.280755) rotate(-5.000000) translate(-5.321049, -4.280755) "></path>
                <path d="M17.9218758,3.32578765 L21.9967529,9.3121468 C21.8815955,9.50503877 21.7879975,9.65220702 21.715959,9.75365154 C21.6737986,9.78974867 21.6274227,9.82339731 21.5768312,9.85459745 C21.4462928,9.93510143 21.2783499,9.94417912 21.0730025,9.88183055 L16.3658717,2.94251343 L17.9218758,3.32578765 Z" id="Path-69" transform="translate(19.181312, 6.432581) rotate(-5.000000) translate(-19.181312, -6.432581) "></path>
            </g>
        </g>
    </g>
</svg>