<?xml version="1.0" encoding="UTF-8"?>
<svg width="48px" height="48px" viewBox="0 0 48 48" version="1.1" xmlns="http://www.w3.org/2000/svg" xmlns:xlink="http://www.w3.org/1999/xlink">
    <!-- Generator: Sketch 51.3 (57544) - http://www.bohemiancoding.com/sketch -->
    <title>Eyewear-sunglassescircular</title>
    <desc>Created with Sketch.</desc>
    <defs></defs>
    <g id="SVGs" stroke="none" stroke-width="1" fill="none" fill-rule="evenodd">
        <g id="Slices" transform="translate(-59.000000, -295.000000)"></g>
        <g id="Group-27" transform="translate(9.000000, 17.000000)" fill-rule="nonzero">
            <ellipse id="Oval-15" stroke="#E98734" fill="#FDA7A8" cx="8" cy="7" rx="5" ry="7"></ellipse>
            <ellipse id="Oval-15" stroke="#E98734" fill="#FDA7A8" cx="21" cy="7" rx="5" ry="7"></ellipse>
            <path d="M15.8386084,7.38819512 C15.4516025,7.14237062 14.9924275,7 14.5,7 C13.9361623,7 13.4159206,7.18665688 12.9976964,7.50154927" id="Oval-16" stroke="#E98734"></path>
            <path d="M27.8386084,6.38819512 C27.4516025,6.14237062 26.9924275,6 26.5,6 C26.366514,6 26.2354715,6.01046182 26.1076477,6.03061024" id="Oval-16" stroke="#E98734" stroke-linecap="round" transform="translate(26.973128, 6.500000) scale(1, -1) translate(-26.973128, -6.500000) "></path>
            <path d="M2.96392069,6.04296253 C2.81359183,6.01475359 2.65851886,6 2.5,6 C1.93616229,6 1.41592064,6.18665688 0.997696411,6.50154927" id="Oval-16" stroke="#E98734" stroke-linecap="round" transform="translate(1.980809, 6.500000) scale(1, -1) translate(-1.980809, -6.500000) "></path>
            <path d="M4.10935974,3.74913025 C4.14748229,3.6541562 4.187216,3.56061402 4.22856086,3.46850371 L10.3075977,12.5737477 C10.2462945,12.6277588 10.1819344,12.6804874 10.1145172,12.7319336 C10.0471001,12.7833798 9.97870012,12.8319607 9.90931737,12.8776764 L4.00282609,4.03087289 C4.03572598,3.93801851 4.07123719,3.8441043 4.10935974,3.74913025 Z" id="Path-69" fill="#FFFFFF" opacity="0.450558036"></path>
            <path d="M5.82113647,1.31622314 C5.88814462,1.26253745 5.95638688,1.21209678 6.02586326,1.16490116 L11.9675734,10.0644557 C11.9296798,10.1617459 11.8916606,10.2560138 11.8535156,10.3472595 C11.8153707,10.4385052 11.776226,10.5288194 11.7360816,10.6182021 L5.63417984,1.47871075 C5.6952646,1.42130318 5.75758348,1.36714064 5.82113647,1.31622314 Z" id="Path-69" fill="#FFFFFF" opacity="0.450558036"></path>
            <path d="M4.94061279,2.24565125 C5.05427819,2.09469133 5.17224148,1.95081784 5.29450265,1.81403077 L11.4986084,11.0768844 C11.4058164,11.2382895 11.3090411,11.3933356 11.2082825,11.5420227 C11.1075239,11.6907098 11.0025303,11.8334094 10.8933017,11.9701214 L4.65753327,2.65999484 C4.73258755,2.53472569 4.82694739,2.39661116 4.94061279,2.24565125 Z" id="Path-69" fill="#FFFFFF" opacity="0.450558036"></path>
            <path d="M17.1093597,3.74913025 C17.1474823,3.6541562 17.187216,3.56061402 17.2285609,3.46850371 L23.3075977,12.5737477 C23.2462945,12.6277588 23.1819344,12.6804874 23.1145172,12.7319336 C23.0471001,12.7833798 22.9787001,12.8319607 22.9093174,12.8776764 L17.0028261,4.03087289 C17.035726,3.93801851 17.0712372,3.8441043 17.1093597,3.74913025 Z" id="Path-69" fill="#FFFFFF" opacity="0.450558036"></path>
            <path d="M18.8211365,1.31622314 C18.8881446,1.26253745 18.9563869,1.21209678 19.0258633,1.16490116 L24.9675734,10.0644557 C24.9296798,10.1617459 24.8916606,10.2560138 24.8535156,10.3472595 C24.8153707,10.4385052 24.776226,10.5288194 24.7360816,10.6182021 L18.6341798,1.47871075 C18.6952646,1.42130318 18.7575835,1.36714064 18.8211365,1.31622314 Z" id="Path-69" fill="#FFFFFF" opacity="0.450558036"></path>
            <path d="M17.9406128,2.24565125 C18.0542782,2.09469133 18.1722415,1.95081784 18.2945026,1.81403077 L24.4986084,11.0768844 C24.4058164,11.2382895 24.3090411,11.3933356 24.2082825,11.5420227 C24.1075239,11.6907098 24.0025303,11.8334094 23.8933017,11.9701214 L17.6575333,2.65999484 C17.7325876,2.53472569 17.8269474,2.39661116 17.9406128,2.24565125 Z" id="Path-69" fill="#FFFFFF" opacity="0.450558036"></path>
        </g>
    </g>
</svg>