<?xml version="1.0" encoding="UTF-8"?>
<svg width="48px" height="48px" viewBox="0 0 48 48" version="1.1" xmlns="http://www.w3.org/2000/svg" xmlns:xlink="http://www.w3.org/1999/xlink">
    <!-- Generator: Sketch 51.3 (57544) - http://www.bohemiancoding.com/sketch -->
    <title>Eyewear-sunglassesraybans</title>
    <desc>Created with Sketch.</desc>
    <defs></defs>
    <g id="SVGs" stroke="none" stroke-width="1" fill="none" fill-rule="evenodd">
        <g id="Slices" transform="translate(-177.000000, -295.000000)"></g>
        <g id="Group-30" transform="translate(10.000000, 16.000000)" fill-rule="nonzero">
            <g id="Group-39" opacity="0.969252232" transform="translate(1.037037, 2.133333)" stroke="#000000" stroke-width="1.30666667">
                <path d="M18.3370487,0.393181919 L23.2918317,0.78994733 C24.6480806,0.898552011 25.6940911,2.02961182 25.69656,3.39019986 L25.700977,5.82441406 C25.7058209,8.49386803 23.5457277,10.6618148 20.8762737,10.6666587 C20.8733501,10.666664 20.8704266,10.6666667 20.867503,10.6666667 L20.6188545,10.6666667 C17.8058458,10.6666667 15.524133,8.38876944 15.519425,5.57576471 L15.5151183,3.00255034 C15.5127027,1.55924822 16.680772,0.387262437 18.1240741,0.384846835 C18.1951495,0.384727879 18.2662001,0.387508552 18.3370487,0.393181919 Z" id="Rectangle-18" fill="#000000" stroke-linecap="round" stroke-linejoin="round" transform="translate(20.608112, 5.525644) scale(-1, 1) translate(-20.608112, -5.525644) "></path>
                <path d="M3.08316729,0.391765178 L8.03794938,0.78951265 C9.39397972,0.898368625 10.439696,2.02933373 10.4421645,3.38972404 L10.4465825,5.82441406 C10.4514264,8.49386803 8.29133311,10.6618148 5.62187915,10.6666587 C5.61895559,10.666664 5.61603204,10.6666667 5.61310848,10.6666667 L5.36445996,10.6666667 C2.55145156,10.6666667 0.269739172,8.38876917 0.265032054,5.5757647 L0.260723746,3.00109163 C0.258308609,1.5577895 1.4263783,0.385804096 2.86968043,0.383388958 C2.94092714,0.383269738 3.01214893,0.386064146 3.08316729,0.391765178 Z" id="Rectangle-18" fill="#000000" stroke-linecap="round" stroke-linejoin="round"></path>
                <path d="M15.5084175,5.69257813 C15.5084175,4.07254286 14.3687787,2.75924479 12.962963,2.75924479 C11.5571472,2.75924479 10.4175084,4.07254286 10.4175084,5.69257813" id="Oval-37"></path>
            </g>
            <rect id="Rectangle-24" fill="#010101" x="24.1032624" y="1.84814453" width="2.35543936" height="1.35185547"></rect>
            <rect id="Rectangle-24" fill="#010101" x="1.58134856" y="1.84814453" width="2.35543936" height="1.35185547"></rect>
            <path d="M26.4444444,5.04401042 C27.3035541,5.04401042 28,4.32766602 28,3.44401042 C28,2.56035482 27.3035541,1.84401042 26.4444444,1.84401042 C25.5853348,1.84401042 24.8888889,2.56035482 24.8888889,3.44401042 C24.8888889,4.32766602 25.5853348,5.04401042 26.4444444,5.04401042 Z" id="Oval-18" fill="#080808"></path>
            <path d="M1.55555556,5.05029297 C2.41466517,5.05029297 3.11111111,4.33394857 3.11111111,3.45029297 C3.11111111,2.56663737 2.41466517,1.85029297 1.55555556,1.85029297 C0.696445945,1.85029297 0,2.56663737 0,3.45029297 C0,4.33394857 0.696445945,5.05029297 1.55555556,5.05029297 Z" id="Oval-18" fill="#080808"></path>
            <path d="M9.33333333,2.27382813 C10.3689827,2.36923127 11.1443071,2.46257979 11.6593067,2.5538737 C12.4490096,2.69386421 12.9383409,3.1296875 14.0195584,3.1296875 C15.1007758,3.1296875 15.5593845,2.69629006 16.3287479,2.56115125 C16.8485363,2.46985032 17.6278426,2.3764414 18.6666667,2.28092448 L18.6666667,5.33333333 L9.33333333,5.33333333 L9.33333333,2.27382813 Z" id="Rectangle-23" fill="#000000"></path>
            <path d="M26.4730541,3.69791667 C27.0457938,3.69791667 27.5100911,3.4591352 27.5100911,3.16458333 C27.5100911,2.87003147 27.0457938,2.63125 26.4730541,2.63125 C25.9003144,2.63125 25.4360171,2.87003147 25.4360171,3.16458333 C25.4360171,3.4591352 25.9003144,3.69791667 26.4730541,3.69791667 Z" id="Oval-19" fill="#9EB4EE"></path>
            <path d="M1.5268193,3.69791667 C2.09955904,3.69791667 2.56385634,3.4591352 2.56385634,3.16458333 C2.56385634,2.87003147 2.09955904,2.63125 1.5268193,2.63125 C0.954079559,2.63125 0.489782263,2.87003147 0.489782263,3.16458333 C0.489782263,3.4591352 0.954079559,3.69791667 1.5268193,3.69791667 Z" id="Oval-19" fill="#9EB4EE"></path>
            <path d="M3.19411374,3.85774933 L9.29128212,4.26488705 C10.1474943,4.32206052 10.7956838,5.06179133 10.739907,5.9180956 L10.5923526,8.18339844 C10.4525724,10.3293509 8.67123003,11.9984375 6.52072996,11.9984375 L6.49091674,11.9984375 C4.36385472,11.9984375 2.63953026,10.274113 2.63953026,8.14705102 C2.63953026,8.14653431 2.63953036,8.1460176 2.63953057,8.14550089 L2.64104818,4.374907 C2.64116344,4.08853715 2.87340551,3.85648196 3.15977536,3.85659722 C3.17123107,3.85660183 3.18268348,3.85698608 3.19411374,3.85774933 Z" id="Rectangle-25" fill="#3A3A3A"></path>
            <path d="M17.7126323,3.85774933 L23.8098006,4.26488705 C24.6660128,4.32206052 25.3142023,5.06179133 25.2584255,5.9180956 L25.1108712,8.18339844 C24.9710909,10.3293509 23.1897485,11.9984375 21.0392485,11.9984375 L21.0094353,11.9984375 C18.8823732,11.9984375 17.1580488,10.274113 17.1580488,8.14705102 C17.1580488,8.14653431 17.1580489,8.1460176 17.1580491,8.14550089 L17.1595667,4.374907 C17.159682,4.08853715 17.391924,3.85648196 17.6782939,3.85659722 C17.6897496,3.85660183 17.701202,3.85698608 17.7126323,3.85774933 Z" id="Rectangle-25" fill="#3A3A3A" transform="translate(21.225177, 7.927501) scale(-1, 1) translate(-21.225177, -7.927501) "></path>
            <g id="Group-32" transform="translate(13.868400, 7.920214) rotate(-7.000000) translate(-13.868400, -7.920214) translate(2.979511, 2.053548)" fill="#FFFFFF" opacity="0.497767857">
                <path d="M14.4669661,4.02828763 C14.4826553,3.9613198 14.5048603,3.89812085 14.5335809,3.83869078 L19.0736784,10.8331871 C18.995229,10.8478453 18.904338,10.8606816 18.8010056,10.871696 C18.6976731,10.8827105 18.5941916,10.8905927 18.4905612,10.8953428 L14.4050232,4.60114308 L14.4325002,4.25290392 C14.4397882,4.17012756 14.4512768,4.09525546 14.4669661,4.02828763 Z" id="Path-69"></path>
                <path d="M17.9388116,2.95021055 L21.7647445,8.8444614 C21.7256195,8.91514172 21.6806544,8.99361553 21.6298494,9.07988282 C21.5790444,9.16615011 21.5216283,9.25011717 21.4576013,9.331784 L17.2897184,2.91072323 L17.9388116,2.95021055 Z" id="Path-69"></path>
                <path d="M15.1272912,3.09976091 C15.2809697,2.99448198 15.4700847,2.9144691 15.6946364,2.85972227 L20.5045427,10.2461879 C20.3624835,10.3418525 20.210896,10.4290164 20.0497804,10.5076798 C19.8886648,10.5863431 19.724566,10.6533102 19.5574839,10.7085812 L14.7944008,3.39402083 C14.8626493,3.30312648 14.9736128,3.20503984 15.1272912,3.09976091 Z" id="Path-69"></path>
                <path d="M0.121603897,1.31451833 L4.99241009,8.81850612 C4.87195586,8.85842674 4.781398,8.88668263 4.7207365,8.90327381 C4.66007501,8.91986499 4.57414425,8.93987948 4.46294423,8.96331729 L0.0243794489,2.12524273 L0.121603897,1.31451833 Z" id="Path-69"></path>
                <path d="M4.04067783,1.13593446 L7.43430449,6.36417225 C7.39466707,6.46728133 7.35398896,6.56564636 7.31227016,6.65926734 C7.27055136,6.75288833 7.22663371,6.84436428 7.18051721,6.93369519 L3.3264117,0.996041418 L4.04067783,1.13593446 Z" id="Path-69"></path>
                <path d="M0.523028167,0.510342935 C0.629871302,0.482786102 0.716394881,0.479829527 0.782598904,0.501473212 L1.55018843,0.648149444 L6.34571181,8.00064547 C6.21146626,8.11799111 6.07238306,8.22672642 5.92846221,8.32685139 C5.78454136,8.42697636 5.63728803,8.51744384 5.48670223,8.59825384 L0.299064169,0.647368898 C0.367838871,0.576789637 0.442493537,0.531114316 0.523028167,0.510342935 Z" id="Path-69"></path>
            </g>
        </g>
    </g>
</svg>