<?xml version="1.0" encoding="UTF-8"?>
<svg width="49px" height="48px" viewBox="0 0 49 48" version="1.1" xmlns="http://www.w3.org/2000/svg" xmlns:xlink="http://www.w3.org/1999/xlink">
    <!-- Generator: Sketch 51.3 (57544) - http://www.bohemiancoding.com/sketch -->
    <title>footwear-scuba-flippers</title>
    <desc>Created with Sketch.</desc>
    <defs></defs>
    <g id="SVGs" stroke="none" stroke-width="1" fill="none" fill-rule="evenodd">
        <g id="Slices" transform="translate(-830.000000, -412.000000)"></g>
        <g id="Group-16" transform="translate(16.658283, 11.000000)" fill-rule="nonzero">
            <path d="M4.24010933,17.8063491 C3.19231082,13.5942687 1.84618563,7.92466929 0.201733755,0.797550813 C1.35187537,1.97762953 2.47051341,2.56766889 3.55764788,2.56766889 C4.05677572,2.56766889 6.49913499,2.13179184 8.7452948,2.13179184 C10.7615184,2.13179184 12.6008942,2.56766889 13.048927,2.56766889 C14.1360615,2.56766889 15.2546995,1.97762953 16.4048411,0.797550813 C14.7603893,7.92466929 13.4142641,13.5942687 12.3664656,17.8063491 C11.4824908,21.3598688 8.44795254,24.2135515 8.30328744,24.1834447 C8.15862234,24.2135515 5.12408406,21.3598688 4.24010933,17.8063491 Z" id="Combined-Shape" stroke="#371552" fill="#371552" stroke-linecap="round" stroke-linejoin="round"></path>
            <path d="M8.30335598,0 C9.1948125,1.00702324 10.4753316,1.60432636 11.8380228,1.60432636 C13.6100965,1.60432636 15.1996596,1.17786289 16.606712,0.32493593 L15.8837403,3.47697212 C13.3583082,3.47697212 12.3797513,4.1110707 11.8380228,6.19270263 C11.204294,4.23503514 10.3677225,3.51593877 8.30335598,3.12978471 C6.23898942,3.51593877 5.35175124,4.28770778 4.76868919,6.19270263 C4.31912252,4.3543448 3.24840375,3.47697212 0.722971695,3.47697212 L0,0.32493593 C1.40705237,1.17786289 2.99661543,1.60432636 4.76868919,1.60432636 C6.1313804,1.60432636 7.48083638,1.27939043 8.30335598,0 Z" id="Combined-Shape" stroke="#73D331" fill="#73D331" stroke-linejoin="round"></path>
            <path d="M4.27481474,12.4018541 L5.12070624,18.3933427 L5.12070624,20.7575477 C5.12070624,22.6039336 6.61749778,24.1007252 8.46388373,24.1007252 C10.3102697,24.1007252 11.8070612,22.6039336 11.8070612,20.7575477 L11.8090052,18.3492948 L12.3397536,12.4466995 L12.1874544,10.9056339 C11.9982353,8.99098848 10.3878564,7.53191379 8.46388373,7.53191379 C6.49620467,7.53191379 4.82058514,8.96259833 4.51219586,10.9059606 L4.27481474,12.4018541 Z" id="Rectangle-42" stroke="#8A888A" fill="#8A888A"></path>
            <path d="M5.1513839,11.049392 L11.4522382,11.049392 C11.9691885,18.9773131 10.9206784,22.9412736 8.30670785,22.9412736 C5.69273729,22.9412736 4.64096264,18.9773131 5.1513839,11.049392 Z" id="Path-118" stroke="#371552" fill="#371552"></path>
            <path d="M10.2462653,14.9736581 C10.735175,14.9736581 11.4291992,21.9365987 8.42596711,21.9365987 C8.38427015,21.9365987 8.34337692,21.9354975 8.30328744,21.9332951 C8.26319796,21.9354975 8.22230474,21.9365987 8.18060777,21.9365987 C5.17737564,21.9365987 5.87139987,14.9736581 6.36030963,14.9736581 C6.61284884,14.9736581 7.33179854,14.4375654 8.30328744,14.4375654 C9.27477635,14.4375654 9.99372605,14.9736581 10.2462653,14.9736581 Z" id="Combined-Shape" stroke="#170B26" fill="#170B26"></path>
            <path d="M6.59679838,11.3479705 L6.59679838,13.7267919" id="Line-36" stroke="#170B26" stroke-width="0.75" stroke-linecap="square"></path>
            <path d="M8.51162078,11.3479705 L8.51162078,13.1320865" id="Line-36-Copy" stroke="#170B26" stroke-width="0.75" stroke-linecap="square"></path>
            <path d="M10.450306,11.3479705 L10.450306,13.7267919" id="Line-36-Copy-2" stroke="#170B26" stroke-width="0.75" stroke-linecap="square"></path>
        </g>
    </g>
</svg>