<?xml version="1.0" encoding="UTF-8"?>
<svg width="49px" height="48px" viewBox="0 0 49 48" version="1.1" xmlns="http://www.w3.org/2000/svg" xmlns:xlink="http://www.w3.org/1999/xlink">
    <!-- Generator: Sketch 51.3 (57544) - http://www.bohemiancoding.com/sketch -->
    <title>footwear-snow-boots</title>
    <desc>Created with Sketch.</desc>
    <defs></defs>
    <g id="SVGs" stroke="none" stroke-width="1" fill="none" fill-rule="evenodd">
        <g id="Slices" transform="translate(-1072.000000, -412.000000)"></g>
        <g id="Group-50" transform="translate(13.308829, 10.500000)" fill-rule="nonzero">
            <path d="M0.536507953,22.1313074 L0.536507953,2.52918454 L10.1875412,2.52918454 C11.0475158,1.26269545 11.8195195,0.629450899 12.5035524,0.629450899 C13.1875853,0.629450899 13.5755086,0.968974669 13.6673223,1.64802221 L13.6673223,12.9009139 C17.5507098,12.6730414 20.1706202,13.5844275 21.5270535,15.6350721 C22.8834868,17.6857168 23.4796528,19.8511285 23.3155513,22.1313074 L0.536507953,22.1313074 Z" id="Path-126" stroke="#8E1514" fill="#8E1514"></path>
            <path d="M20.642644,24.9993346 L22.8341739,24.9993346 C22.9289422,24.9993346 23.0057672,24.9225097 23.0057672,24.8277413 L23.0057672,22.3587645 C23.0057672,22.2639961 22.9289422,22.1871711 22.8341739,22.1871711 L0.671593349,22.1871711 C0.576824959,22.1871711 0.5,22.2639961 0.5,22.3587645 L0.5,24.8277413 C0.5,24.9225097 0.576824959,24.9993346 0.671593349,24.9993346 L2.19152983,24.9993346 C2.26136637,23.8906794 3.03278774,22.9845546 4.02956009,22.9845546 C5.02633244,22.9845546 5.79775381,23.8906794 5.86759036,24.9993346 L9.57905666,24.9993346 C9.64889321,23.8906794 10.4203146,22.9845546 11.4170869,22.9845546 C12.4138593,22.9845546 13.1852806,23.8906794 13.2551172,24.9993346 L16.9665835,24.9993346 C17.03642,23.8906794 17.8078414,22.9845546 18.8046138,22.9845546 C19.8013861,22.9845546 20.5728075,23.8906794 20.642644,24.9993346 Z" id="Combined-Shape" stroke="#D8D7D8" fill="#DAD8DA"></path>
            <ellipse id="Oval-33" stroke="#888788" fill="#8A888A" cx="4.5031069" cy="9.3266466" rx="1.91090074" ry="2.63192573"></ellipse>
            <path d="M10.4096969,5.68733084 L13.7676636,5.68733084" id="Line-37" stroke="#D5201F" stroke-linecap="round"></path>
            <path d="M10.4096969,8.15453381 L13.7676636,8.15453381" id="Line-37-Copy" stroke="#D5201F" stroke-linecap="round"></path>
            <path d="M10.4096969,10.7780794 L13.7676636,10.7780794" id="Line-37-Copy-2" stroke="#D5201F" stroke-linecap="round"></path>
            <path d="M13.0595491,5.68733084 L13.7676636,5.68733084" id="Line-37" stroke="#D8D8D8" stroke-linecap="round"></path>
            <path d="M13.0595491,8.07243215 L13.7676636,8.07243215" id="Line-37-Copy" stroke="#D8D8D8" stroke-linecap="round"></path>
            <path d="M13.0595491,10.6959777 C13.0595491,10.6959777 13.2955873,10.6959777 13.7676636,10.6959777" id="Line-37-Copy-2" stroke="#D8D8D8" stroke-linecap="round"></path>
            <path d="M12.8874515,13.2146677 C11.7394329,14.3095254 10.8375974,15.5978665 10.1801217,17.0829957 C9.58058442,18.4372514 9.30368983,19.8895028 9.34990607,21.4451663 L12.3644681,21.4451663 C12.2794194,19.8653952 12.5151708,18.4403256 13.0752058,17.1752991 C13.6100596,15.9671525 14.5882546,14.5936345 16.0095425,13.0458287 C15.2339242,12.961789 14.5811771,12.9512422 14.0538041,13.0126531 C13.4188691,13.0865893 12.997436,13.1699977 12.8874515,13.2146677 Z" id="Rectangle-49" stroke="#D8D8D8" fill="#D8D8D8"></path>
        </g>
    </g>
</svg>