<?xml version="1.0" encoding="UTF-8"?>
<svg width="48px" height="48px" viewBox="0 0 48 48" version="1.1" xmlns="http://www.w3.org/2000/svg" xmlns:xlink="http://www.w3.org/1999/xlink">
    <!-- Generator: Sketch 51.3 (57544) - http://www.bohemiancoding.com/sketch -->
    <title>footwear-superheroboots</title>
    <desc>Created with Sketch.</desc>
    <defs></defs>
    <g id="SVGs" stroke="none" stroke-width="1" fill="none" fill-rule="evenodd">
        <g id="Slices" transform="translate(-177.000000, -413.000000)"></g>
        <g id="Group-88" transform="translate(15.000000, 12.000000)" fill-rule="nonzero">
            <g id="Group-87" transform="translate(0.000000, 1.000000)">
                <path d="M2.89770508,20.6465251 L18.314442,20.6465251 C18.8080755,20.0558201 18.9560691,19.443746 18.7584229,18.8103027 C18.3873291,17.6209717 17.1373901,17.3098755 16.6436768,17.2078247 C15.8101967,17.035544 14.890384,17.0298242 14.4935356,16.9997965 C13.637146,16.9349976 13.1509399,16.4115601 12.6895142,16.0411987 C12.381897,15.7942912 11.6650391,15.21698 10.5389404,14.3092651 C10.09686,13.9606069 9.91829151,13.4905752 10.0032349,12.8991699 C10.0062106,12.8784516 10.581543,8.66552734 11.112793,4.81323242 C9.59106445,3.19836426 7.04312483,0.87125168 6.14685059,0.842651367 C4.19970703,0.780517578 1.87646484,4.08129883 0.975097656,5.22497559 C0.96875847,5.32787499 1.79602051,9.81665039 2.47646197,13.4317627 C2.85207738,15.427367 2.52205523,15.8510138 2.33734131,16.2103882 C2.15262738,16.5697625 2.0357666,17.1539697 2.0357666,18.1379395 C2.0357666,18.7939193 2.32307943,19.6301145 2.89770508,20.6465251 Z" id="Path-165" fill="#3157B2"></path>
                <path d="M2.31439209,19.4419556 L2.32208572,21.1673766 C2.32387284,21.5681689 2.64928229,21.8921305 3.05007848,21.8921305 L6.58165788,21.8921305 C6.98372118,21.8921305 7.30965788,21.5661938 7.30965788,21.1641305 L7.30965788,21.0902913 C8.19778133,21.1534424 9.36798096,21.467353 10.8202568,22.0320231 C11.6236766,22.0345934 14.0926377,22.0347283 18.2271401,22.032428 L18.2271401,22.0324257 C18.6152989,22.0322098 18.9298494,21.7174843 18.9298494,21.3293254 L18.9298494,21.3279649 C18.9298494,20.9364665 18.620226,20.6150722 18.229,20.6004714 L10.0472019,20.2951204 C9.75413428,20.2841829 9.46425416,20.2303315 9.18681163,20.1352847 L7.56233387,19.5787675 C7.3373964,19.5017079 7.10138481,19.4618971 6.86361589,19.4609066 L2.31439209,19.4419556 Z" id="Path-174" fill="#193274"></path>
            </g>
            <path d="M0.985107422,6.10186768 L3.96618526,2.89473272 C5.09420786,1.68117142 6.99243666,1.6118286 8.20599796,2.73985119 C8.26250459,2.79237491 8.31696415,2.84705876 8.3692552,2.90378078 L11.25354,6.0324707" id="Path-175" stroke="#F5CD2E" stroke-linecap="round" stroke-linejoin="round"></path>
        </g>
    </g>
</svg>