<?xml version="1.0" encoding="UTF-8"?>
<svg width="48px" height="48px" viewBox="0 0 48 48" version="1.1" xmlns="http://www.w3.org/2000/svg" xmlns:xlink="http://www.w3.org/1999/xlink">
    <!-- Generator: Sketch 51.3 (57544) - http://www.bohemiancoding.com/sketch -->
    <title>footwear-converseshoes</title>
    <desc>Created with Sketch.</desc>
    <defs></defs>
    <g id="SVGs" stroke="none" stroke-width="1" fill="none" fill-rule="evenodd">
        <g id="Slices" transform="translate(-295.000000, -413.000000)"></g>
        <g id="Group-91" transform="translate(12.000000, 17.000000)" fill-rule="nonzero">
            <path d="M0.952947443,11.3774977 L23.2721058,11.3765775 L23.2720608,12.4395146 C23.2720608,13.0419895 22.7836716,13.5303988 22.1811967,13.5304237 L2.04385654,13.5313439 C1.44136408,13.5313687 0.952927308,13.0429722 0.952902467,12.4404798 C0.952902466,12.4404648 0.952902466,12.4404498 0.952902466,12.4404348 L0.952947443,11.3774977 Z" id="Rectangle-41" fill="#DDDDDD"></path>
            <path d="M0.956726074,12.4472562 L17.8975275,12.4472562 L17.8975275,12.9230769 L1.06390936,12.9230769 C1.0214872,12.8553417 0.992628666,12.7875246 0.977333762,12.7196256 C0.956900905,12.6289177 0.950031675,12.5381279 0.956726074,12.4472562 Z" id="Rectangle-44" fill="#000000"></path>
            <path d="M0.961669922,11.7250131 L0.961669922,2.04241474 C0.961669922,1.49012999 1.40938517,1.04241474 1.96166992,1.04241474 L7.78450276,1.04245573 C8.06607073,1.04245573 8.33459069,1.1611646 8.52409278,1.369418 C8.53522927,1.38165645 8.54733624,1.39340168 8.56041371,1.4046537 C8.71648615,1.53894043 8.99134411,1.33806904 9.16719194,1.18715257 C9.28442383,1.08654159 9.42704634,0.956417768 9.59505948,0.7967811 C10.0102761,0.444905599 10.3524281,0.366555238 10.6215154,0.561730018 C11.0251465,0.854492188 10.6651944,1.3449707 10.5139826,1.48602764 C10.4131747,1.5800656 9.80038175,2.28230481 8.67560369,3.59274527 L18.8134544,8.87094351 L18.8134544,11.5727163 L0.961669922,11.7250131 Z" id="Path-178" fill="#000000"></path>
            <path d="M20.0810769,8.61538462 L21.1443537,8.61538462 C22.3493386,8.61538462 23.3261719,9.59221789 23.3261719,10.7972028 L23.3261719,12.4473365 C23.3261719,13.0498289 22.8377552,13.5382456 22.2352628,13.5382456 L17.8992587,13.5382456 L17.8992587,10.7972028 C17.8992587,9.59221789 18.876092,8.61538462 20.0810769,8.61538462 Z" id="Rectangle-45" fill="#DDDDDD"></path>
            <path d="M19.2641631,10.5182073 L23.2768333,10.5182073 L23.2768333,11.2201397 L19.2641631,11.2201397 C19.0703298,11.2201397 18.9131969,11.0630068 18.9131969,10.8691735 L18.9131969,10.8691735 C18.9131969,10.6753402 19.0703298,10.5182073 19.2641631,10.5182073 Z" id="Rectangle-46" fill="#000000"></path>
            <path d="M5.78486772,10.4601675 C6.08611395,10.4601675 6.33032227,10.2190901 6.33032227,9.92170598 C6.33032227,9.62432188 6.08611395,9.38324444 5.78486772,9.38324444 C5.48362149,9.38324444 5.23941317,9.62432188 5.23941317,9.92170598 C5.23941317,10.2190901 5.48362149,10.4601675 5.78486772,10.4601675 Z" id="Oval-32" fill="#DDDDDD"></path>
            <path d="M7.9666859,10.4601675 C8.26793213,10.4601675 8.51214045,10.2190901 8.51214045,9.92170598 C8.51214045,9.62432188 8.26793213,9.38324444 7.9666859,9.38324444 C7.66543967,9.38324444 7.42123136,9.62432188 7.42123136,9.92170598 C7.42123136,10.2190901 7.66543967,10.4601675 7.9666859,10.4601675 Z" id="Oval-32" fill="#DDDDDD"></path>
            <path d="M7.48335405,2.80720403 C7.78460028,2.80720403 8.02880859,2.56612658 8.02880859,2.26874249 C8.02880859,1.97135839 7.78460028,1.73028095 7.48335405,1.73028095 C7.18210782,1.73028095 6.9378995,1.97135839 6.9378995,2.26874249 C6.9378995,2.56612658 7.18210782,2.80720403 7.48335405,2.80720403 Z" id="Oval-32" fill="#DDDDDD"></path>
            <path d="M4.03990589,6.9625338 C5.2448908,6.9625338 6.22172408,5.99822403 6.22172408,4.80868765 C6.22172408,3.61915127 5.2448908,2.6548415 4.03990589,2.6548415 C2.83492099,2.6548415 1.85808771,3.61915127 1.85808771,4.80868765 C1.85808771,5.99822403 2.83492099,6.9625338 4.03990589,6.9625338 Z" id="Oval-33" fill="#DDDDDD"></path>
            <g id="Group-90" transform="translate(2.181818, 4.307692)" stroke="#000000" stroke-width="0.545454545">
                <path d="M1.85995206,1.38093791 C1.40886483,1.38093791 1.04177024,1.01854966 1.04177024,0.569749099 C1.04177024,0.120948536 1.40886483,-0.241439713 1.85995206,-0.241439713 C2.31103929,-0.241439713 2.67813388,0.120948536 2.67813388,0.569749099 C2.67813388,1.01854966 2.31103929,1.38093791 1.85995206,1.38093791 Z" id="Oval-35"></path>
                <path d="M0.352494673,0.610041692 L0.914894798,0.610041692 M2.80091442,0.610041692 L3.3984375,0.610041692" id="Path-179" stroke-linecap="round"></path>
            </g>
            <path d="M9.43332741,3.54831167 L8.2828924,4.92325533" id="Path-170" stroke="#DDDDDD" stroke-width="1.09090909" stroke-linecap="round"></path>
            <path d="M11.0152255,4.56535457 L9.86479048,5.94029823" id="Path-170" stroke="#DDDDDD" stroke-width="1.09090909" stroke-linecap="round"></path>
            <path d="M12.5910645,5.51896785 L11.4406294,6.89391151" id="Path-170" stroke="#DDDDDD" stroke-width="1.09090909" stroke-linecap="round"></path>
            <path d="M14.3462136,6.5099816 L13.1957786,7.88492526" id="Path-170" stroke="#DDDDDD" stroke-width="1.09090909" stroke-linecap="round"></path>
            <path d="M16.1296609,7.60780687 L14.9792259,8.98275053" id="Path-170" stroke="#DDDDDD" stroke-width="1.09090909" stroke-linecap="round"></path>
        </g>
    </g>
</svg>