<?xml version="1.0" encoding="UTF-8"?>
<svg width="48px" height="48px" viewBox="0 0 48 48" version="1.1" xmlns="http://www.w3.org/2000/svg" xmlns:xlink="http://www.w3.org/1999/xlink">
    <!-- Generator: Sketch 51.3 (57544) - http://www.bohemiancoding.com/sketch -->
    <title>footwear-clogs</title>
    <desc>Created with Sketch.</desc>
    <defs></defs>
    <g id="SVGs" stroke="none" stroke-width="1" fill="none" fill-rule="evenodd">
        <g id="Slices" transform="translate(-531.000000, -413.000000)"></g>
        <g id="Group-95" transform="translate(12.000000, 19.000000)" fill-rule="nonzero">
            <path d="M21.6700439,9.19470215 C22.0513102,8.4708252 22.2419434,7.4605306 22.2419434,6.16381836 C22.2419434,4.86710612 21.8690389,3.86118571 21.12323,3.14605713 C20.8915812,2.89345296 20.5364583,2.86623128 20.0578613,3.06439209 C19.3399658,3.3616333 14.9781494,4.08630371 10.1364746,0.951660156 C9.6995673,0.668793437 9.20727539,0.392944336 8.73681641,0.722045898 C8.26635742,1.05114746 6.75292969,1.96948242 5.62756348,6.16381836 C5.44130012,6.85803779 4.97589111,7.01641846 4.71386719,7.08325195 C4.53918457,7.12780762 3.34094238,7.14648437 1.11914062,7.13928223 C0.810587565,7.18725586 0.656311035,7.36358643 0.656311035,7.66827393 C0.656311035,7.97296143 0.810587565,8.15464274 1.11914062,8.21331787 L6.23797607,8.21331787 L11.2982178,9.11083984 L21.6700439,9.19470215 Z" id="Path-196" fill="#D42E2D"></path>
            <path d="M1,8.19567871 L1,9.56414795 C1,10.1164327 1.44771525,10.5641479 2,10.5641479 L6.08435059,10.5641479 C6.63663534,10.5641479 7.08435059,10.1164327 7.08435059,9.56414795 L7.08435059,9.36138916 C8.10371908,9.52203369 9.45328776,9.90952555 11.1330566,10.5238647 C12.2350626,10.5277734 15.8687698,10.5279274 22.034178,10.5243269 L22.034178,10.5243172 C22.4603983,10.5240683 22.8057861,10.1784786 22.8057861,9.7522583 L22.8057861,9.7522583 C22.8057861,9.32604005 22.460398,8.98045318 22.0341798,8.98020801 L11.2400102,8.97399902 L6.66086104,8.21018402 C6.49268784,8.18213225 6.32242937,8.16846799 6.15193488,8.16933963 L1,8.19567871 Z" id="Path-174" fill="#FFE09E"></path>
            <path d="M6.84882311,8.57768058 L9.61301167,9.18597157 C9.88266805,9.24531841 10.1493779,9.07482884 10.2087247,8.80517246 C10.2159738,8.77223462 10.2198712,8.73864778 10.2203576,8.70492518 C10.2565622,6.19464477 11.190027,3.99376802 13.020752,2.10229492 C13.4296267,1.67985262 11.150507,0.0665062732 10.3858643,0.592407227 C8.28198261,2.03940109 6.97387354,4.51429668 6.46153706,8.01709401 L6.46162791,8.0171073 C6.42367313,8.27660066 6.59269827,8.5213118 6.84882311,8.57768058 Z" id="Path-195" fill="#951918"></path>
        </g>
    </g>
</svg>