<?xml version="1.0" encoding="UTF-8"?>
<svg width="48px" height="48px" viewBox="0 0 48 48" version="1.1" xmlns="http://www.w3.org/2000/svg" xmlns:xlink="http://www.w3.org/1999/xlink">
    <!-- Generator: Sketch 51.3 (57544) - http://www.bohemiancoding.com/sketch -->
    <title>footwear-cyclistshoes</title>
    <desc>Created with Sketch.</desc>
    <defs></defs>
    <g id="SVGs" stroke="none" stroke-width="1" fill="none" fill-rule="evenodd">
        <g id="Slices" transform="translate(-649.000000, -413.000000)"></g>
        <g id="Group-97" transform="translate(24.000000, 24.500000) rotate(3.000000) translate(-24.000000, -24.500000) translate(12.000000, 19.000000)" fill-rule="nonzero">
            <path d="M1.94268799,9.3578929 L1.94268799,9.46937361 C1.94268799,9.81305154 2.221294,10.0916575 2.56497192,10.0916575 L2.56497192,10.0916575 C2.90864985,10.0916575 3.18725586,9.81305154 3.18725586,9.46937361 L3.18725586,9.3578929 L1.94268799,9.3578929 Z" id="Path-201" fill="#D8D8D8"></path>
            <path d="M17.682373,9.07877913 L17.682373,9.07877913 C17.7340097,9.44104802 18.0672071,9.69455371 18.4301241,9.64768862 L21.1342854,9.29848824 C21.4842453,9.25329635 21.7313086,8.93296253 21.6861167,8.58300261 C21.6846893,8.57194891 21.6829729,8.56093445 21.6809692,8.54997054 L17.682373,9.07877913 Z" id="Path-202" fill="#D8D8D8"></path>
            <path d="M1.41925009,8.58929443 L7.9175415,8.58929443 L10.06604,9.19494629 L15.0076294,9.25413313 L22.5765381,8.4549388 C23.1137608,7.68699344 23.2365636,6.81079308 22.9449463,5.82633772 C22.5026037,4.33305668 20.8370038,3.73196268 19.2875043,3.77688455 C17.7380048,3.82180643 16.2103753,3.70751276 15.2265462,3.23437051 C13.7391195,2.51903848 12.810504,2.15306789 12.0359499,1.81264522 C11.6123872,1.62648608 10.7158203,1.44145003 10.2970581,1.27958479 C10.205317,1.24412389 9.34024048,1.29701033 8.91598511,0.852277664 C8.71235928,0.638823545 8.33632476,0.285732412 7.98931885,0.149091629 C7.58553456,-0.0099068192 7.26547241,0.00550642419 6.98040771,0.205396561 C6.63033772,0.450869045 6.5393364,1.04012828 6.9095459,1.43964949 C7.06123739,1.60335131 7.29221477,1.84363655 7.60247803,2.1605052 C6.9821807,2.12576139 6.5533286,2.14919019 6.31592172,2.23079163 C5.91085015,2.37002274 5.4725426,2.50826177 4.98260498,2.54075423 C3.81610107,2.61811629 2.75874353,2.52274514 2.15490723,2.01286116 C1.87206553,1.77402748 1.47372437,1.51669112 1.13775635,1.44212141 C0.80178833,1.36755171 0.526928632,1.32069201 0.271575928,1.72327986 C0.181753528,1.86489343 0.267303915,2.08720045 0.330963135,2.14967146 C0.481384277,2.29728499 0.966830447,2.58377227 0.750183105,3.38950911 C0.578735352,4.02714339 0,4.48873939 0,6.08769026 C1.59574223e-16,7.15365751 0.473083364,7.98752557 1.41925009,8.58929443 Z" id="Path-165" fill="#D42E2D"></path>
            <path d="M1.37231445,8.65427962 L1.37231445,9.01957503 C1.37231445,9.2957174 1.59617208,9.51957503 1.87231445,9.51957503 L5.20245361,9.51957503 C5.47859599,9.51957503 5.70245361,9.2957174 5.70245361,9.01957503 L5.70245361,8.65427962 L7.49468994,8.65427962 C8.91054281,9.23114322 10.0586344,9.51957503 10.9389648,9.51957503 C11.8192952,9.51957503 13.1254679,9.51957503 14.8574829,9.51957503 L22.8100434,8.57529208 C22.9121363,8.56316962 22.9850718,8.47057972 22.9729494,8.36848677 C22.9719772,8.36029939 22.9704622,8.35218565 22.9684143,8.34419913 L22.9684143,8.34419913 C22.9382241,8.22646063 22.8251684,8.14956041 22.7045717,8.16473411 L14.8602905,9.15171614 L10.9417725,9.12443343 C10.2270915,9.09908349 9.1067098,8.83769026 7.58062744,8.34025374 C6.14845785,8.34224755 4.07902018,8.34224755 1.37231445,8.34025374 L1.37231445,8.65427962 Z" id="Path-197" fill="#939393"></path>
            <path d="M9.46739978,0.265385759 L7.85597398,3.29646917 C7.72634741,3.54029608 7.81892507,3.84303995 8.06275197,3.97266653 C8.07523482,3.97930283 8.0879935,3.98540672 8.10099364,3.99096176 L9.9452198,4.77901077 C10.1824127,4.88036472 10.4577785,4.78465212 10.5809735,4.55803335 L12.1734038,1.62873759 C12.3052924,1.38612678 12.2155344,1.08253501 11.9729235,0.950646389 C11.9664336,0.947118332 11.9598663,0.943734528 11.9532265,0.940497471 L10.1279959,0.0506608019 C9.88590432,-0.067363709 9.59382802,0.0275748908 9.46739978,0.265385759 Z" id="Path-198" fill="#951918"></path>
            <path d="M2.31396484,2.77268782 C2.67272949,2.97540592 3.21903483,3.13031315 3.95288086,3.2374095 C4.39210424,3.30150908 5.09608373,3.22405547 6.06481934,3.00504866 C6.30537923,3.8996206 6.84301758,4.61188053 7.67773438,5.14182845 C7.74182129,4.94566145 7.81758626,4.73761295 7.9050293,4.51768294 C8.50614421,5.09316308 9.41802979,5.60732324 10.640686,6.06016341 C10.6830444,5.79067285 10.7194417,5.48456119 10.7498779,5.14182845 C11.785848,5.8710358 12.9776408,6.31781315 14.3252563,6.48216048 C14.6730503,6.5245754 14.7070923,6.66636458 14.7247925,6.76103011 C14.7424927,6.85569563 14.6490479,7.06693831 14.3252563,7.11271468 C14.0014648,7.15849104 12.9973145,7.38596907 12.0145264,7.11271468 C12.0790202,7.36906233 12.1897583,7.68003645 12.3467407,8.04563704 C11.3602498,7.95180566 10.2559611,7.52360335 9.03387451,6.76103011 C9.06011963,7.04097802 9.10072835,7.27466129 9.15570068,7.46207991 C7.13747152,7.07471012 5.54842122,6.48787744 4.3885498,5.70158186 C3.22867839,4.91528629 2.53715007,3.93898828 2.31396484,2.77268782 Z" id="Path-199" fill="#FFFFFF"></path>
            <path d="M8.61322021,2.976118 L15.6422725,6.14563542 C16.1211916,6.36158806 16.6855571,6.17013081 16.9342206,5.70735061 L17.9720856,3.77581101 L16.6236634,3.66703368 L16.0341307,3.61902526 L11.2452399,1.36045763 L8.61322021,2.976118 Z" id="Path-200" fill="#951918"></path>
            <path d="M15.2495492,3.32755028 L14.5434878,4.64304183 C14.4128958,4.88635304 14.5042728,5.18946147 14.747584,5.32005345 C14.759381,5.32638525 14.7714277,5.33224066 14.7836947,5.3376055 L15.8455452,5.80199275 C16.0815163,5.90519182 16.3572757,5.8122592 16.4826502,5.58728445 L17.2105196,4.28117993 C17.3449444,4.03996513 17.258374,3.73544905 17.0171592,3.60102424 C17.0031424,3.59321295 16.9887578,3.58608094 16.9740552,3.57965297 L15.8903967,3.10587867 C15.6516533,3.00150031 15.3727736,3.09796586 15.2495492,3.32755028 Z" id="Path-198" fill="#D42E2D"></path>
            <path d="M12.6796894,2.12926089 L11.973628,3.44475244 C11.843036,3.68806365 11.934413,3.99117208 12.1777242,4.12176406 C12.1895212,4.12809586 12.2015678,4.13395127 12.2138349,4.13931611 L13.2756854,4.60370336 C13.5116565,4.70690243 13.7874159,4.61396981 13.9127904,4.38899506 L14.6406597,3.08289054 C14.7750846,2.84167574 14.6885142,2.53715966 14.4472994,2.40273485 C14.4332826,2.39492356 14.418898,2.38779155 14.4041953,2.38136358 L13.3205369,1.90758928 C13.0817935,1.80321092 12.8029138,1.89967647 12.6796894,2.12926089 Z" id="Path-198" fill="#D42E2D"></path>
        </g>
    </g>
</svg>