<?xml version="1.0" encoding="UTF-8"?>
<svg width="49px" height="49px" viewBox="0 0 49 49" version="1.1" xmlns="http://www.w3.org/2000/svg" xmlns:xlink="http://www.w3.org/1999/xlink">
    <!-- Generator: Sketch 53.2 (72643) - https://sketchapp.com -->
    <title>Footwear-AdidasTracksuit</title>
    <desc>Created with Sketch.</desc>
    <g id="SVGs" stroke="none" stroke-width="1" fill="none" fill-rule="evenodd">
        <g id="Slices" transform="translate(-1200.000000, -470.000000)"></g>
        <g id="Group-86" opacity="0.995814732" transform="translate(12.000000, 15.000000)">
            <path d="M3.13333333,0.0526315789 L8.325,0.0526315789 C8.90489899,0.0526315789 9.375,0.522732592 9.375,1.10263158 L9.375,12.6842105 L2.08333333,12.6842105 L2.08333333,1.10263158 C2.08333333,0.522732592 2.55343435,0.0526315789 3.13333333,0.0526315789 Z" id="Rectangle-39" fill="#F3F3F3" fill-rule="nonzero"></path>
            <path d="M1.67808533,16.9858398 L23.4406153,16.9858398 C24.0742795,15.5687363 24.1285795,14.3895371 23.6035156,13.4482422 C23.0027644,12.3712608 21.7007834,11.6450442 20.1859131,11.4211426 C18.7662011,11.2113056 17.8004352,11.3790949 17.4234619,11.4211426 C16.8293457,11.4874104 16.5725126,11.5503159 15.7497374,11.1278639 C14.9269621,10.7054119 12.7489726,9.65159848 9.91312663,8.28871556 C9.37862962,8.03184095 8.69568573,8.14702785 8.32111491,8.80034057 C7.94654408,9.45365328 7.12388319,11.1278639 5.37234154,11.1278639 C4.2046471,11.1278639 3.4206324,10.8028668 3.02029745,10.1528727 C2.87047674,9.86795634 2.63293984,9.72549818 2.30768674,9.72549818 C1.8198071,9.72549818 1.55562948,10.1043665 1.54150876,10.3611672 C1.52738803,10.617968 1.51463936,11.0622671 1.32672509,11.3414682 C1.13881082,11.6206692 0.581985447,12.5947202 0.581985447,14.1483567 C0.581985447,15.1841143 0.947352073,16.129942 1.67808533,16.9858398 Z" id="Path-165" fill="#FEF9E9" fill-rule="nonzero"></path>
            <path d="M11.294812,10.4214355 C11.6814113,10.4214355 11.994812,10.1080349 11.994812,9.72143555 C11.994812,9.33483622 11.6814113,9.02143555 11.294812,9.02143555 C10.9082127,9.02143555 10.594812,9.33483622 10.594812,9.72143555 C10.594812,9.94078133 10.6956993,10.1365636 10.8536024,10.2649111 C10.9740053,10.3627774 11.1275585,10.4214355 11.294812,10.4214355 Z" id="Oval" fill="#C1BEB7"></path>
            <path d="M13.2057617,11.305957 C13.592361,11.305957 13.9057617,10.9925564 13.9057617,10.605957 C13.9057617,10.2193577 13.592361,9.90595703 13.2057617,9.90595703 C12.8191624,9.90595703 12.5057617,10.2193577 12.5057617,10.605957 C12.5057617,10.8253028 12.606649,11.0210851 12.7645521,11.1494326 C12.884955,11.2472989 13.0385082,11.305957 13.2057617,11.305957 Z" id="Oval" fill="#C1BEB7"></path>
            <path d="M15.1331299,12.317573 C15.5197292,12.317573 15.8331299,12.0041723 15.8331299,11.617573 C15.8331299,11.2309737 15.5197292,10.917573 15.1331299,10.917573 C14.7465306,10.917573 14.4331299,11.2309737 14.4331299,11.617573 C14.4331299,11.8369188 14.5340171,12.0327011 14.6919203,12.1610485 C14.8123231,12.2589148 14.9658763,12.317573 15.1331299,12.317573 Z" id="Oval" fill="#C1BEB7"></path>
            <path d="M11.8032227,8.61547852 L11.3047689,9.72143555" id="Path-170" stroke="#F3F3F3" stroke-width="1.05" stroke-linecap="round" fill-rule="nonzero"></path>
            <path d="M13.72229,9.5 L13.2238363,10.605957" id="Path-170" stroke="#F3F3F3" stroke-width="1.05" stroke-linecap="round" fill-rule="nonzero"></path>
            <path d="M15.6542969,10.511616 L15.1558431,11.617573" id="Path-170" stroke="#F3F3F3" stroke-width="1.05" stroke-linecap="round" fill-rule="nonzero"></path>
            <path d="M1.1522279,16.2603567 L1.15222874,17.8095394 C1.15222905,18.3894383 1.62233032,18.8595391 2.20222931,18.8595388 C2.20287636,18.8595388 2.20352342,18.8595382 2.20417048,18.859537 L23.1292366,18.8208407 C23.6556791,18.8198672 24.0819295,18.3928278 24.0819295,17.8663844 L24.0819295,17.8663844 C24.0819295,17.3402257 23.6553936,16.9136899 23.129235,16.9136899 L11.8801724,16.9136899 L7.73008464,16.2948084 C7.57627871,16.2718721 7.42098547,16.2603567 7.26547876,16.2603567 L1.1522279,16.2603567 Z" id="Path-174" fill="#FFFAEA" fill-rule="nonzero"></path>
            <polygon id="Rectangle" fill="#8D1514" points="2.06958008 1.86309814 9.375 1.86309814 9.375 2.86309814 2.06958008 2.86309814"></polygon>
            <polygon id="Rectangle" fill="#8D1514" points="2.06958008 3.86309814 9.375 3.86309814 9.375 4.86309814 2.06958008 4.86309814"></polygon>
            <path d="M0.581985447,14 C0.640772493,12.312696 0.990437826,10.9951199 1.63098145,10.0472717 C2.35503024,8.97585632 2.94979858,10.0048523 3.24267578,10.4190979 C3.39237003,10.6308255 3.86724854,10.9559166 4.50738525,11.0368042 C5.14752197,11.1176918 4.00671387,12.4845099 2.85693359,12.6842105 C2.09041341,12.8173443 1.46447754,13.2559408 0.979125977,14 C0.950663249,14.0753784 0.890401204,14.1130676 0.798339844,14.1130676 C0.706278483,14.1130676 0.634160351,14.0753784 0.581985447,14 Z" id="Path-380" fill="#8E1514"></path>
            <path d="M9.375,9.16845703 C9.17590332,8.36490029 9.10953776,7.69733844 9.17590332,7.16577148 C9.27545166,6.36842105 9.59020242,5.95446777 10.0207444,5.95446777 C10.4512864,5.95446777 10.8382568,6.69335938 10.8382568,7.65441895 C10.8382568,8.09742241 10.8382568,8.52822889 10.8382568,8.94683838 C10.8382568,9.05535653 10.4831701,8.96907316 10.4831701,9.16845703 C10.4831701,9.18808724 10.4188948,9.2573418 10.2903442,9.3762207 L9.375,9.16845703 Z" id="Path-381" fill="#FEF9E9"></path>
            <path d="M9.35909403,10.6668287 L10.630179,11.4632852 C9.67808614,12.9827543 9.2272644,14.8125545 9.2272644,16.4959717 L7.70593262,16.2603567 C7.70593262,14.2909161 8.25958171,12.4215682 9.35909403,10.6668287 Z" id="Path-385" fill="#8D1514" fill-rule="nonzero"></path>
            <path d="M13.4410805,12.7769324 C12.6762887,14.0969796 12.2684584,15.473401 12.212587,16.915523 C11.8703613,16.915523 11.2064514,16.7958679 10.7182082,16.7545506 C10.7975727,15.1263747 11.2616165,13.5686963 12.1058222,12.0899376 C12.1867536,11.9481735 13.5018581,12.6720289 13.4410805,12.7769324 Z" id="Path-385" fill="#8D1514" fill-rule="nonzero"></path>
            <polyline id="Path-386" stroke="#C1BEB7" stroke-width="0.5" stroke-linecap="round" points="1.15222931 16.2603567 7.66931152 16.2603567 12.2711954 16.9858398 23.4406153 16.9858398"></polyline>
            <path d="M16.0714111,14.5 C17.6112874,14.5766544 18.3253581,15.3818288 18.213623,16.915523" id="Path-387" stroke="#C1BEB7" stroke-width="0.5" stroke-linecap="round"></path>
            <path d="M16.5289001,12.6842105 C17.9778951,12.6313091 19.0809326,13.0699056 19.8380127,14 C20.5950928,14.9300944 20.8259277,15.9253743 20.5305176,16.9858398" id="Path-388" stroke="#C0BDB6" stroke-width="0.5"></path>
            <path d="M17.5,11.617573 C19.5425618,11.2489864 21.0948893,11.701047 22.1569824,12.9737549 C23.2190755,14.2464628 23.4644775,15.5838244 22.8931885,16.9858398" id="Path-389" stroke="#BFBCB5" stroke-width="0.5"></path>
        </g>
        <path d="M14.305542,24.5749725 C14.741984,24.5728232 15.1265055,24.8276015 15.4591064,25.3393074 C15.9427406,26.0833777 17.1569372,26.217873 17.72229,26.0645945 C18.2645642,25.917573 19.2851158,25.605957 20.3199463,24.0214355 C20.7134066,23.4189733 21.4344812,23.2766143 22.4831701,23.5943584" id="Path-382" stroke="#C1BEB7" stroke-width="0.5" stroke-linecap="round"></path>
        <path d="M29.4234619,26.617573 C27.8331299,28.5031396 27.3030192,30.2925618 27.8331299,31.9858398" id="Path-383" stroke="#C1BEB7" stroke-width="0.5" stroke-linecap="round"></path>
        <path d="M19.6693115,24.905957 L28.0714111,29" id="Path-384" stroke="#C1BEB7" stroke-width="0.5"></path>
    </g>
</svg>