<?xml version="1.0" encoding="UTF-8"?>
<svg width="49px" height="48px" viewBox="0 0 49 48" version="1.1" xmlns="http://www.w3.org/2000/svg" xmlns:xlink="http://www.w3.org/1999/xlink">
    <!-- Generator: Sketch 51.3 (57544) - http://www.bohemiancoding.com/sketch -->
    <title>footwear-pj-slippers</title>
    <desc>Created with Sketch.</desc>
    <defs></defs>
    <g id="SVGs" stroke="none" stroke-width="1" fill="none" fill-rule="evenodd">
        <g id="Slices" transform="translate(-1011.000000, -412.000000)"></g>
        <g id="Group-49" transform="translate(12.947421, 17.000000)" fill-rule="nonzero">
            <path d="M7.06223043,11.5806979 C7.05213158,10.8682371 7.06725099,10.2395017 7.06725099,9.81680029 C7.06725099,6.00398293 10.4328677,2.58242842 14.5134179,2.58242842 C18.5939681,2.58242842 21.8442303,6.00398293 21.8442303,9.81680029 C21.8442303,10.4270132 21.8713749,11.0181541 21.9002482,11.5806979 L7.06223043,11.5806979 Z" id="Combined-Shape" stroke="#E87C1E" fill="#E87C1E"></path>
            <path d="M0.235079134,12.3407934 L21.3893445,12.3407934" id="Path-124" stroke="#E87C1E" stroke-width="3" fill="#E87C1E" stroke-linecap="round"></path>
            <path d="M11.6038535,3.5802768 C12.6134611,3.5802768 13.6411011,2.9931412 13.6411011,2.46089552 C13.6411011,1.92864985 12.8226524,1.49717948 11.8130447,1.49717948 C10.8034371,1.49717948 9.97158216,1.72920771 10.0167662,2.43877568 C10.0619503,3.14834366 10.5942459,3.5802768 11.6038535,3.5802768 Z" id="Oval-30" stroke="#6F3202" fill="#6F3107" transform="translate(11.828055, 2.538728) rotate(39.000000) translate(-11.828055, -2.538728) "></path>
            <ellipse id="Oval-31" stroke="#6F3202" fill="#6F3107" transform="translate(23.071608, 7.642733) rotate(54.000000) translate(-23.071608, -7.642733) " cx="23.0716081" cy="7.64273276" rx="1" ry="1.3711455"></ellipse>
            <path d="M19.5863989,10.2206296 L20.2225616,10.1307738 C20.3189938,10.8134957 20.5804416,10.9845823 21.0880797,10.9845823 C21.4265051,10.9845823 21.7869145,10.6899692 22.1693078,10.1007428 C22.1329327,10.6577254 21.7740879,11.5303403 20.9792022,11.5303403 C20.1677546,11.5303403 19.7237844,11.1932939 19.5863989,10.2206296 Z" id="Path-125" fill="#6F3202"></path>
            <ellipse id="Oval-32" stroke="#6F3202" fill="#6F3107" cx="18.8705211" cy="6.6581039" rx="1" ry="1"></ellipse>
        </g>
    </g>
</svg>