<?xml version="1.0" encoding="UTF-8"?>
<svg width="48px" height="48px" viewBox="0 0 48 48" version="1.1" xmlns="http://www.w3.org/2000/svg" xmlns:xlink="http://www.w3.org/1999/xlink">
    <!-- Generator: Sketch 51.3 (57544) - http://www.bohemiancoding.com/sketch -->
    <title>footwear-highheels</title>
    <desc>Created with Sketch.</desc>
    <defs></defs>
    <g id="SVGs" stroke="none" stroke-width="1" fill="none" fill-rule="evenodd">
        <g id="Slices" transform="translate(0.000000, -413.000000)"></g>
        <path d="M14.9502914,32 L16.1193226,32 C16.4688603,32 16.7522166,31.7166437 16.7522166,31.367106 L16.7522166,31.0018948 C16.7522166,30.8540576 16.6323709,30.7342119 16.4845337,30.7342119 L16.4845337,27.6574144 C16.4770666,26.5610978 16.8378575,26.0129395 17.5669063,26.0129395 C17.9298096,26.0129395 18.3170234,26.5032416 18.7544895,27.0440403 C19.1919556,27.5848389 19.9822998,28.6470947 21.2488403,30.3443604 C21.9802949,31.324568 22.4014956,32 23.3425386,32 C23.9699007,32 27.6001687,32 34.2333426,32 C34.9364664,31.8934617 35.1559487,31.5866039 34.8917896,31.0794269 C34.495551,30.3186612 33.1498374,27.0526837 29.1096761,27.1219991 C28.3471116,27.1350821 27.8114708,27.5633418 27.4563222,27.9267966 C27.1011736,28.2902515 26.1717402,28.1506963 25.7834616,27.7609091 C25.395183,27.371122 20.0230571,19.72983 18.5790547,18.0223153 C17.1350522,16.3148006 16.9581701,16.295501 16.5245226,16.1440135 C16.1121623,15.9999623 15.5531811,15.9097495 15.1262351,16.1429611 C14.6992891,16.3761728 13,17.4327492 13,20.2052846 C13,21.8017596 13.853892,22.7495967 14.0992365,23.4445705 C14.344581,24.1395444 14.6131448,25.0177496 14.6131448,25.9064509 C14.6131448,26.4989184 14.6131448,28.1081721 14.6131448,30.7342119 L14.6131448,30.7342119 C14.449808,30.7342119 14.3173974,30.8666225 14.3173974,31.0299593 L14.3173974,31.367106 C14.3173974,31.7166437 14.6007537,32 14.9502914,32 Z" id="Path-164" fill="#323232" fill-rule="nonzero"></path>
    </g>
</svg>