<?xml version="1.0" encoding="UTF-8"?>
<svg width="49px" height="48px" viewBox="0 0 49 48" version="1.1" xmlns="http://www.w3.org/2000/svg" xmlns:xlink="http://www.w3.org/1999/xlink">
    <!-- Generator: Sketch 51.3 (57544) - http://www.bohemiancoding.com/sketch -->
    <title>footwear-firefighter-boots</title>
    <desc>Created with Sketch.</desc>
    <defs></defs>
    <g id="SVGs" stroke="none" stroke-width="1" fill="none" fill-rule="evenodd">
        <g id="Slices" transform="translate(-951.000000, -412.000000)"></g>
        <g id="Group-48" transform="translate(11.137871, 11.814483)" fill-rule="nonzero">
            <path d="M4.97395449,21.8686097 L7.20369973,21.8686097 C7.49857698,21.5142346 7.98318059,21.283036 8.53101716,21.283036 C9.07885374,21.283036 9.56345734,21.5142346 9.8583346,21.8686097 L12.0880798,21.8686097 C12.3829571,21.5142346 12.8675607,21.283036 13.4153973,21.283036 C13.9632339,21.283036 14.4478375,21.5142346 14.7427147,21.8686097 L16.97246,21.8686097 C17.2673372,21.5142346 17.7519408,21.283036 18.2997774,21.283036 C18.847614,21.283036 19.3322176,21.5142346 19.6270948,21.8686097 L21.485804,21.8686097 C21.7806813,21.5142346 22.2652849,21.283036 22.8131215,21.283036 C23.7117919,21.283036 24.4403082,21.9051701 24.4403082,22.6726114 C24.4403082,23.4400528 23.7117919,24.0621869 22.8131215,24.0621869 C22.1594346,24.0621869 21.5957764,23.733015 21.3370409,23.2581852 L19.775858,23.2581852 C19.5171224,23.733015 18.9534643,24.0621869 18.2997774,24.0621869 C17.6460905,24.0621869 17.0824324,23.733015 16.8236968,23.2581852 L14.8914779,23.2581852 C14.6327423,23.733015 14.0690841,24.0621869 13.4153973,24.0621869 C12.7617104,24.0621869 12.1980523,23.733015 11.9393167,23.2581852 L10.0070978,23.2581852 C9.74836219,23.733015 9.18470404,24.0621869 8.53101716,24.0621869 C7.87733029,24.0621869 7.31367214,23.733015 7.05493656,23.2581852 L5.12271765,23.2581852 C4.86398208,23.733015 4.30032392,24.0621869 3.64663705,24.0621869 C2.74796666,24.0621869 2.01945037,23.4400528 2.01945037,22.6726114 C2.01945037,21.9051701 2.74796666,21.283036 3.64663705,21.283036 C4.19447363,21.283036 4.67907723,21.5142346 4.97395449,21.8686097 Z" id="Combined-Shape" stroke="#353335" fill="#353335"></path>
            <path d="M1.63231679,3.22419275 L1.63231679,20.0336221 L24.4804233,20.0336221 C24.844718,16.4777587 23.9839192,14.2535543 21.8980271,13.3610089 C19.8121349,12.4684635 17.3380648,12.5453949 14.4758165,13.5918032 L14.4758165,3.22419275 L1.63231679,3.22419275 Z" id="Path-123" stroke="#343234" fill="#343234"></path>
            <path d="M9.12528122,8.02031059 L9.12528122,11.1890369 L14.3577345,11.1890369 L14.3577345,8.02031059 L9.12528122,8.02031059 Z" id="Rectangle-48" stroke="#A3A521" fill="#A3A521"></path>
            <rect id="Rectangle-47" stroke="#A3A521" fill="#A3A521" x="0.787828681" y="19.6452849" width="24.2559032" height="2.41259698" rx="1"></rect>
            <path d="M1.28782868,0.668491379 C1.01168631,0.668491379 0.787828681,0.892349004 0.787828681,1.16849138 L0.787828681,2.58108836 C0.787828681,2.85723073 1.01168631,3.08108836 1.28782868,3.08108836 L14.4697636,3.08108836 C14.7459059,3.08108836 14.9697636,2.85723073 14.9697636,2.58108836 L14.9697636,1.16849138 C14.9697636,0.892349004 14.7459059,0.668491379 14.4697636,0.668491379 L1.28782868,0.668491379 Z" id="Rectangle-47" stroke="#A3A521" fill="#A3A521"></path>
        </g>
    </g>
</svg>