<?xml version="1.0" encoding="utf-8"?>
<!-- Generator: Adobe Illustrator 23.0.1, SVG Export Plug-In . SVG Version: 6.00 Build 0)  -->
<svg version="1.1" id="Layer_1" xmlns="http://www.w3.org/2000/svg" xmlns:xlink="http://www.w3.org/1999/xlink" x="0px" y="0px"
	 viewBox="0 0 48 48" style="enable-background:new 0 0 48 48;" xml:space="preserve">
<style type="text/css">
	.st0{clip-path:url(#SVGID_2_);}
	.st1{fill:#939393;}
	.st2{fill:#294B13;}
	.st3{fill:#6E3B0C;}
	.st4{fill:#323232;}
	.st5{fill:#F5CD2E;}
</style>
<title>24_Footwear_Lederhosen (LED)</title>
<g>
	<g>
		<defs>
			<path id="SVGID_1_" d="M14.3,11.6h5.9c0.6,0,1,0.5,1,1v11.8c0,0.6-0.5,1-1,1h-5.9c-0.6,0-1-0.5-1-1V12.6
				C13.3,12,13.8,11.6,14.3,11.6z"/>
		</defs>
		<clipPath id="SVGID_2_">
			<use xlink:href="#SVGID_1_"  style="overflow:visible;"/>
		</clipPath>
		<g class="st0">
			<path class="st1" d="M14.3,11.6h5.9c0.6,0,1,0.5,1,1v11.8c0,0.6-0.5,1-1,1h-5.9c-0.6,0-1-0.5-1-1V12.6
				C13.3,12,13.8,11.6,14.3,11.6z"/>
			<rect x="13.2" y="11.5" class="st2" width="8.3" height="2.6"/>
			<rect x="13.2" y="15" class="st2" width="8.3" height="0.8"/>
			<rect x="13.2" y="16.6" class="st2" width="8.3" height="0.8"/>
		</g>
	</g>
	<path class="st3" d="M12.9,24c0.2-0.1,0.5-0.1,0.6,0c0.5,0.4,1.5,1,3.2,1c2.2,0,3.5-0.6,3.5-1.7c0-1.3,0.2-2.9,1.5-2.9
		c1.5,0,5.6,2.8,7.1,2.8c2.3,0,4.1-1,5.5-0.4c1.3,0.6,1.9,3.6,1.1,5.2H12.8c0,0-0.5-0.5-0.5-2.2C12.3,24.8,12.6,24.2,12.9,24z"/>
	<path class="st4" d="M12.6,27.9c0,0-0.7,2.4-0.2,3.4c0.1,0.1,0.2,0.2,0.3,0.2h6.1c0.2,0,0.3-0.1,0.3-0.3V30l4.8,1.6h11.3
		c0.2,0,0.3-0.1,0.4-0.3c0.1-0.4,0.2-2.4-0.2-3.3C35.5,28,12.6,27.8,12.6,27.9z"/>
	<path class="st4" d="M27.2,25.9c-0.2,0-0.4,0-0.6-0.1l-6.4-2.7C20,23,20,22.9,20.1,22.7s0.2-0.4,0.4-0.3l6.4,2.7c0.1,0,0.3,0,0.4,0
		c0.4-0.1,0.9-0.9,1-1.8c0-0.2,0.2-0.3,0.4-0.2s0.4,0.1,0.4,0.4c-0.2,1.2-0.9,2.3-1.7,2.4C27.4,25.9,27.3,25.9,27.2,25.9z"/>
	<circle class="st5" cx="22.3" cy="21.8" r="0.8"/>
	<circle class="st5" cx="24.4" cy="22.6" r="0.8"/>
	<circle class="st5" cx="26.5" cy="23.5" r="0.8"/>
	<path class="st3" d="M22.3,22.2c-0.1,0-0.2,0-0.2-0.1c-0.2-0.1-0.2-0.4-0.1-0.6l0.7-1.4c0.1-0.2,0.4-0.2,0.6-0.1
		c0.2,0.1,0.2,0.4,0.1,0.6l0,0L22.7,22C22.6,22.1,22.5,22.2,22.3,22.2z"/>
	<path class="st3" d="M24.4,23c-0.1,0-0.2,0-0.2-0.1c-0.2-0.1-0.2-0.4-0.1-0.5c0,0,0,0,0,0l0.7-1.3c0.1-0.2,0.4-0.2,0.5-0.1
		c0.2,0.1,0.2,0.4,0.1,0.5l0,0l-0.7,1.3C24.7,22.9,24.6,23,24.4,23z"/>
	<path class="st3" d="M26.5,23.8c-0.1,0-0.1,0-0.2-0.1c-0.2-0.1-0.3-0.3-0.1-0.5c0,0,0,0,0,0l0.7-1.2c0.1-0.2,0.4-0.2,0.5-0.1
		c0.2,0.1,0.2,0.4,0.1,0.5c0,0,0,0,0,0l-0.7,1.2C26.7,23.8,26.6,23.8,26.5,23.8z"/>
</g>
</svg>
