<?xml version="1.0" encoding="utf-8"?>
<!-- Generator: Adobe Illustrator 21.0.2, SVG Export Plug-In . SVG Version: 6.00 Build 0)  -->
<svg version="1.1" id="_x30_1_x5F_MouthExpress_x5F_HappyClosed"
	 xmlns="http://www.w3.org/2000/svg" xmlns:xlink="http://www.w3.org/1999/xlink" x="0px" y="0px" viewBox="0 0 2000 2000"
	 enable-background="new 0 0 2000 2000" xml:space="preserve">
<g>
	<path opacity="9.000000e-02" enable-background="new    " d="M1162.9,784.8c-1.7,1-19.3,1.4-26.1-2.5c-3.4-2-13-8.2-11.6-3.9
		c19.6,15.1-18.5,40.9-23.8,45.1c-5.8,4.5-14.8,12.2-59.2,20c-33.3,5.8-71.8-11.9-89.1-21.2c-3.2-1.7-5-5.4-4.3-9
		c0.1-0.7,0.3-1.3,0.5-1.7l-39.7,14.1c0,0,8.5,3.1,17.5,3.3c6.5,0.2,12.8,1.9,18.4,5.1c36.1,20.9,55.9,21.5,114.1,11.6
		s92.2-50.1,98.2-57.7C1161.2,786,1163.5,784.5,1162.9,784.8z"/>
	<path fill="#8D5548" class="face-accent-fill-color" d="M1166.3,784.8c-1.4,0-2.9,0-4.3,0l-4.3-0.1c-1.4-0.1-2.8-0.1-4.2-0.2c-1.4,0-2.8-0.2-4.2-0.3
		c-1.4-0.2-2.7-0.5-4-0.8s-2.5-0.7-4-0.9c-1.4-0.2-3-0.4-4.5-0.2c-1.6,0.1-3.1,0.5-4.5,1.1v0.5c1.4,0.8,2.7,1.3,4,1.8
		s2.5,1.1,3.8,1.6c0.4,0.1,0.8,0.3,1.2,0.4c-0.4,0.4-0.7,1-1.1,1.4c-0.3,0.5-0.7,1-1.1,1.5l-2.2,3c-0.7,1-1.5,1.9-2.3,2.9
		s-1.5,2-2.3,2.9l-2.4,2.8c-1.6,1.9-3.3,3.6-5,5.5c-6.9,7.1-14.7,13.4-23.3,18.4c-8.6,5.1-17.9,8.9-27.4,12l-7.2,2.2
		c-2.4,0.7-4.9,1.2-7.3,1.9l-3.7,0.9l-3.7,0.7l-7.4,1.4c-2.5,0.4-5,0.7-7.5,1.1l-3.7,0.5l-1.9,0.3l-1.9,0.2l-3.7,0.3l-3.8,0.2
		l-1.9,0.1h-1.9h-3.8c-5-0.1-10-0.4-15-1.1c-5-0.7-9.9-1.7-14.7-3c-9.6-2.6-18.9-6.2-27.7-10.8c-4.4-2.3-8.7-4.8-12.8-7.4
		c-2.1-1.3-4.1-2.8-6.1-4.2c-1.1-0.7-2.2-1.4-3.3-2.1l1.5-0.5c0.9-0.3,1.8-0.6,2.7-1s1.7-0.8,2.6-1.3l1.2-0.7l1.2-0.8
		c0.8-0.6,1.6-1.1,2.3-1.7c0.7-0.6,1.5-1.3,2.1-2c0.7-0.8,1.3-1.5,1.9-2.3l-0.3-0.4c-3.8,1-7.2,2.2-10.6,3.5c-1.7,0.7-3.4,1.4-5,2.3
		c-1.6,0.8-3.3,1.7-5,2.5s-3.4,1.5-5.1,2.2c-1.7,0.7-3.4,1.4-5.2,2.1c-3.4,1.4-6.9,2.8-10.4,4.1l0.1,0.5c3.7-0.6,7.4-1.4,11.1-2.2
		c1.8-0.4,3.7-0.9,5.5-1.4c1.2-0.3,2.4-0.7,3.6-1c2.9,4.7,7.5,7.2,11.7,9.9c4.4,2.7,9,5.1,13.7,7.2c9.5,4.1,19.3,7.2,29.4,9.1
		c5,0.9,10.1,1.7,15.2,2.1c5.1,0.5,10.2,0.6,15.3,0.7l3.8-0.1l1.9-0.1l1.9-0.1l3.8-0.3l3.8-0.4l1.9-0.2l1.9-0.3l3.8-0.5
		c2.5-0.4,5-0.7,7.5-1.1l7.5-1.4l3.7-0.7l3.7-0.8c2.5-0.6,5-1.1,7.4-1.7l7.3-2.1c9.7-3,19.2-6.7,28.3-11.5
		c9.1-4.7,17.7-10.6,25.3-17.6c1.8-1.8,3.8-3.5,5.5-5.5l2.6-2.9c0.8-1,1.6-2,2.5-3c1.7-2,3.1-4.1,4.7-6.2c0.7-1,1.5-2.1,2.1-3.2
		c0.4-0.8,0.6-1.6,0.7-2.5c0.8,0,1.6-0.1,2.4-0.1c1.5-0.1,3-0.2,4.4-0.4c1.5-0.2,2.9-0.4,4.3-0.7s2.8-0.6,4.3-0.9
		c1.4-0.3,2.8-0.7,4.2-1L1166.3,784.8z"/>
</g>
</svg>
