<?xml version="1.0" encoding="utf-8"?>
<!-- Generator: Adobe Illustrator 21.0.2, SVG Export Plug-In . SVG Version: 6.00 Build 0)  -->
<svg version="1.1" id="_x30_2_x5F_MouthExpress_x5F_HappyOpen"
	 xmlns="http://www.w3.org/2000/svg" xmlns:xlink="http://www.w3.org/1999/xlink" x="0px" y="0px" viewBox="0 0 2000 2000"
	 enable-background="new 0 0 2000 2000" xml:space="preserve">
<g>
	<g id="Shadow">
		<path opacity="7.000000e-02" fill="#091427" enable-background="new    " d="M906.2,816.5c25.9,11.6,57.6,98.8,112.2,98.8
			c73.3,0,107.9-119.4,120.8-129.6c-1.3-0.1-2.5-0.2-3.8-0.2c-5.4,0-10.8,0.9-16.3,0.9c-1.1,0-2.2,0-3.3-0.1
			c-12.2,28.3-78.7,40.5-99.5,40.8c-19.9,0.3-72.4-10.4-80.5-27.8C934.3,803.6,911.3,816.3,906.2,816.5z"/>
	</g>
	<g id="Mouth_1_">
		<path fill="#C47499" d="M945.3,859.4c19.8,27.6,45.8,53.4,75.8,53.4c4.2,0,9.8-1.5,16.4-4.4c-1-12.4-1.4-26.1-6.5-37.4
			C1006.2,857.3,958.5,848.5,945.3,859.4z"/>
		<path fill="#AD6585" d="M1028.8,872.1c5.1,11.3,7.6,23.9,8.6,36.3c6.1-2.7,13-6.7,20.2-12C1049.5,886.1,1039.7,878.1,1028.8,872.1
			z"/>
		<path fill="#6B3F3C" d="M1039.7,827.8c-9.1,1.1-19,1.5-29.7,1.2c-29-0.8-57.3-7.1-78-24.1c-4.6,3.3-9.6,6.1-14.7,8.4
			c6.8,12.8,16.3,29.7,27.9,46.1c33-5.2,68.8,0.3,95.2,20.2C1053,873,1055.2,836,1039.7,827.8z"/>
		<path fill="#8D5548" class="face-accent-fill-color" d="M1039.7,827.8c8.8,15.6,8.4,35.2,0.7,51.8c6.3,4.8,12,10.3,17.1,16.7c26.3-19.3,56.9-55.6,68.9-109.1
			C1111.2,802.8,1084.7,822.5,1039.7,827.8z"/>
		<path fill="#8D5548" class="face-accent-fill-color" d="M901.3,818.3c4-0.6,7.6-2.2,11.1-4.1c0.9-0.4,1.7-0.9,2.6-1.5c0.9-0.5,1.7-1,2.5-1.6c1.7-1,3.3-2.2,5-3.3
			c0.8-0.6,1.6-1.2,2.4-1.8l2.3-1.9c1.5-1.3,3.1-2.5,4.7-3.6l4.8-3.4l5-3.5l0.4,0.3c-0.6,2.1-1.6,4-2.9,5.7c-0.6,0.9-1.3,1.7-2,2.5
			s-1.4,1.6-2.2,2.3c-1.5,1.4-3.2,2.7-5,3.8l-2.7,1.6c-0.9,0.5-1.8,1-2.7,1.5c-1.8,1-3.6,2-5.5,2.8c-0.9,0.4-1.9,0.9-2.8,1.2
			c-1,0.4-1.9,0.8-2.9,1.1s-1.9,0.7-3,1c-1,0.3-2,0.6-3,0.8c-2,0.5-4.1,0.7-6.2,0.6v-0.5L901.3,818.3L901.3,818.3z"/>
		<path fill="#8D5548" class="face-accent-fill-color" d="M1111,784.7c3.4,0.3,6.7,0.7,10,0.9c1.7,0.1,3.3,0.2,4.9,0.1c1.5-0.1,3.2-0.3,4.8-0.5
			c3.2-0.4,6.3-1.7,9.5-2.1c3.2-0.5,6.4-0.8,9.9-1l0.2,0.4c-1.2,1.4-2.7,2.5-4.2,3.4s-3.2,1.6-4.8,2.1c-3.3,1.1-6.9,0.9-10.3,1
			c-1.7,0-3.4,0-5.2-0.2c-1.8-0.2-3.4-0.5-5.1-0.9c-3.3-0.8-6.5-1.7-9.8-2.7L1111,784.7z"/>
	</g>
</g>
</svg>
