<?xml version="1.0" encoding="utf-8"?>
<!-- Generator: Adobe Illustrator 21.0.2, SVG Export Plug-In . SVG Version: 6.00 Build 0)  -->
<svg version="1.1" id="Layer_1" xmlns="http://www.w3.org/2000/svg" xmlns:xlink="http://www.w3.org/1999/xlink" x="0px" y="0px"
	 viewBox="0 0 2000 2000" enable-background="new 0 0 2000 2000" xml:space="preserve">
<g>
	<path fill="#C47499" d="M1096.7,884.2c0,0,3.3-3,3.3-3.5s-24.3-31.7-24.3-31.7l-15,0.2l-1.5,8.3L1096.7,884.2z"/>
	<g id="_x30_5_x5F_MouthExpress_x5F_ExcitedOpen">
		<path fill="#6B3F3C" d="M1067.8,814.5c-10.8,2.5-25,3.9-43.9,3.5c-49,2-66.7-16.1-84.2-20c-4.3,0-8.5,1.1-12.9,3.8
			c-8.6,5.3-12,13.9-12,23.7c0.7,6.9,2.1,14.7,4.2,22.5c38.3,5,101.7-10.1,147.3,10C1076.3,840.8,1084,815.7,1067.8,814.5z"/>
		<path fill="#C47499" d="M936,880.3c24.6,24.6,67.3,33,104.7,29.9c23.3-1.9,42.5-12.9,57.1-27.2c-4.7-9.5-11-18.2-19.8-23.1
			c-14.8-8.1-30.6-14-46.8-17.8c-36.9-5.4-96.9,8.9-97.1,36.1C934.7,879,935.4,879.7,936,880.3z"/>
		<path fill="#AD6585" d="M919,848c3.1,11.1,7.9,22.2,15.1,30.3c28.7-19.1,62.3-30.1,97.1-36.1C994.2,833.6,954.9,835.8,919,848z"/>
		<path fill="#8D5548" class="face-accent-fill-color" d="M1129.9,815.9c0-14-1.9-34.1-15.9-34.1c-11.5,3-9.2,24.3-46.1,32.8c1.9,13,0.5,26.2-3.7,38.6
			c4.7,2.1,9.4,4.4,13.9,6.8c8.9,4.8,15.1,13.6,19.8,23.1C1119.4,861.9,1130.7,833.4,1129.9,815.9z"/>
		<path fill="#8D5548" class="face-accent-fill-color" d="M1129.8,821.4c0.1-2,0-3.9-0.2-5.9c-0.1-2-0.2-3.9-0.4-5.9c-0.4-3.9-0.9-7.8-1.8-11.5s-2.3-7.4-4.6-10.2
			c-1.1-1.4-2.4-2.6-3.8-3.5c-1.5-0.8-3.2-1.2-5-1.2h0.4c-3.3,0.8-5.6,3.9-7.8,7.1c-2.2,3.2-4.6,6.6-7.4,9.6s-6,5.6-9.5,7.7
			c-3.5,2.2-7.2,3.9-10.9,5.3c-3.8,1.4-7.7,2.4-11.6,3.4c-3.9,0.8-7.9,1.5-11.8,2c-7.9,1-15.9,1.3-23.9,1.4
			c-7.9-0.3-15.8,0.3-23.8-0.2s-15.9-1.5-23.7-3.4s-15.4-4.6-22.7-7.8l-10.8-4.9c-3.6-1.6-7.2-3-10.9-3.8h0.3
			c-3.2,0-6.5,0.7-9.4,2.1c-1.5,0.7-2.9,1.5-4.3,2.4c-1.4,0.9-2.6,1.9-3.8,3.1c-1.1,1.2-2.2,2.5-3,3.9c-0.9,1.4-1.6,2.9-2.2,4.5
			c-0.6,1.6-1,3.2-1.3,4.9s-0.5,3.4-0.6,5.1l0,0l0.7,8.2l-1.5-8.2l0,0l0,0c-0.1-3.5,0.2-7,1.1-10.5c0.5-1.7,1.1-3.4,1.9-5
			c0.8-1.6,1.8-3.1,3-4.5c2.4-2.8,5.2-5.2,8.6-6.6c3.3-1.5,7-2.4,10.7-2.4l0,0c0.1,0,0.2,0,0.3,0c4,0.9,7.8,2.4,11.5,4l10.8,4.9
			c7.2,3.2,14.6,5.8,22.2,7.6c7.6,1.8,15.4,2.9,23.2,3.3c7.8,0.5,15.7-0.1,23.7,0.2c7.9,0,15.7-0.4,23.5-1.4
			c3.9-0.5,7.7-1.1,11.6-1.9c3.8-0.9,7.6-1.9,11.2-3.3c3.6-1.4,7.1-3,10.4-5s6.2-4.5,8.9-7.2c2.6-2.8,4.8-6,7.1-9.2
			c1.2-1.6,2.3-3.3,3.9-4.8c1.5-1.5,3.5-2.9,5.7-3.4l0,0c0.1,0,0.2,0,0.4,0c2.2,0,4.4,0.5,6.4,1.5s3.7,2.6,4.9,4.4
			c2.4,3.6,3.4,7.6,4.1,11.6s0.9,7.9,0.9,11.9c0,2,0,4-0.1,5.9C1130.1,817.5,1130,819.4,1129.8,821.4z"/>
		<path fill="#8D5548" class="face-accent-fill-color" d="M902.7,800.9c3.9-0.6,7.9-1,11.8-1.4c3.9-0.4,7.8-0.8,11.7-1.3s7.8-1.1,11.6-1.9c3.9-0.8,7.7-1.7,11.4-2.9
			c0.2-0.1,0.3,0,0.4,0.2c0,0.1,0,0.3-0.1,0.4c-3.6,1.7-7.4,3.1-11.2,4.2c-3.8,1.1-7.7,2-11.7,2.7c-3.9,0.7-7.9,1.3-11.8,1.7
			c-4,0.4-7.9,0.7-11.9,0.8c-0.7,0-1.2-0.5-1.3-1.2C901.6,801.5,902.1,801,902.7,800.9z"/>
		<path fill="#8D5548" class="face-accent-fill-color" d="M1106.1,779.3c2.9-0.2,5.8-0.3,8.7-0.4c2.9-0.1,5.8,0,8.7-0.2c2.9-0.1,5.8-0.4,8.6-0.6
			c2.9-0.2,5.7-0.5,8.6-0.7l0,0c0.7,0,1.3,0.5,1.3,1.1s-0.4,1.1-0.9,1.3c-2.9,0.7-5.8,1.1-8.7,1.4c-2.9,0.2-5.9,0.3-8.8,0.2
			c-2.9,0-5.9-0.3-8.8-0.6s-5.8-0.6-8.7-1c-0.2,0-0.3-0.2-0.2-0.3C1105.8,779.4,1105.9,779.3,1106.1,779.3L1106.1,779.3z"/>
	</g>
</g>
</svg>
