<?xml version="1.0" encoding="utf-8"?>
<!-- Generator: Adobe Illustrator 21.0.2, SVG Export Plug-In . SVG Version: 6.00 Build 0)  -->
<svg version="1.1" id="_x30_6_x5F_MouthExpress_x5F_ExcitedClosed"
	 xmlns="http://www.w3.org/2000/svg" xmlns:xlink="http://www.w3.org/1999/xlink" x="0px" y="0px" viewBox="0 0 2000 2000"
	 enable-background="new 0 0 2000 2000" xml:space="preserve">
<g>
	<path fill="#8D5548" class="face-accent-fill-color" d="M880.3,772.9c1.2,0.1,2.3,0.4,3.4,0.7c1.1,0.3,2.2,0.5,3.3,0.8s2.1,0.6,3.2,0.8c1,0.3,2.1,0.6,3.1,0.9
		c2.1,0.6,4.1,1.3,6.1,2.1l3,1.2c1,0.3,2.1,0.7,3.1,1c2.1,0.6,4.2,1.1,6.4,1.6c2.1,0.5,4.3,0.9,6.5,1.3c4.3,0.8,8.7,1.2,13.2,1.4
		l0,0c0.2,0,0.3,0.1,0.3,0.3c0,0.1-0.1,0.3-0.3,0.3c-4.4,0.8-9,1-13.5,1c-2.3,0-4.5-0.1-6.8-0.3s-4.5-0.5-6.8-0.8
		c-1.1-0.2-2.3-0.4-3.4-0.5l-3.4-0.6c-2.3-0.5-4.5-1.2-6.6-2.2c-0.5-0.3-1-0.5-1.6-0.8L888,780c-1-0.6-2-1.2-2.9-1.9
		s-1.9-1.4-2.7-2.2s-1.7-1.6-2.4-2.6c-0.1-0.1-0.1-0.3,0.1-0.5C880.1,772.9,880.2,772.9,880.3,772.9L880.3,772.9z"/>
	<path fill="#8D5548" class="face-accent-fill-color" d="M1127.8,765.2c5-0.5,9.9-1.5,14.7-3c2.4-0.7,4.7-1.5,7.1-2.4c2.3-0.9,4.6-1.8,6.9-2.8s4.4-2.2,6.6-3.4
		c2.1-1.2,4.3-2.4,6.5-3.5c1.1-0.6,2.2-1.1,3.3-1.7c1.1-0.6,2.2-1.1,3.3-1.7c1.1-0.6,2.2-1.1,3.4-1.7c1.1-0.6,2.3-1.1,3.5-1.6l0,0
		c0.1-0.1,0.3,0,0.3,0.1s0,0.2,0,0.2c-0.8,1.1-1.6,2.1-2.4,3.1c-0.9,0.9-1.8,1.9-2.8,2.7c-1,0.9-2,1.7-3,2.5s-2.1,1.5-3.2,2.2
		s-2.2,1.3-3.3,2c-1.1,0.6-2.3,1.1-3.5,1.6c-2.4,1-4.8,1.8-7.3,2.7c-2.4,0.9-4.9,1.6-7.4,2.3s-5,1.2-7.5,1.7
		c-5.1,0.8-10.2,1.4-15.3,1.1c-0.1,0-0.2-0.1-0.2-0.3C1127.6,765.3,1127.7,765.2,1127.8,765.2z"/>
	<path fill="#8D5548" class="face-accent-fill-color" d="M924.6,784.3c10.9,19.3,31.1,31.1,51.1,39.4c16,6.6,32.4,9.1,49.6,9.1c44,0,89.2-26,106.5-67.4
		c2.4,1.2,12-3.8,14.4-2.6c-15.8,17.1-31.5,40.4-47.3,50.7c-16.3,10.6-33.9,19.6-53.2,23.6c-22.8,4.8-52-1.1-73.6-8.7
		c-11-3.9-21.5-9.1-30.9-16c-9.6-7-17.1-19-25.3-27.5C918.5,782.9,922.1,786.3,924.6,784.3z"/>
	<path opacity="3.000000e-02" enable-background="new    " d="M927.2,784.4c0,0,65,43.6,116.6,38.3c51.6-5.3,87.9-57.3,87.9-57.3
		l8.3,0.7c0,0-37.9,63.9-97.6,68.5c-59.7,4.6-86.1-14.4-96.6-22.8c-10.5-8.4-23.9-26.7-23.9-26.7L927.2,784.4z"/>
	<path opacity="3.000000e-02" enable-background="new    " d="M880.1,773.1c50.1,25.3,71.3,77.9,156.7,68.6
		c19.9-2.2,68.3-11.4,93.7-47.8c8.1-11.5,36.5-29.1,42.6-42l-30.1,12c0.2,1.6-57.2,72-107.4,70.8c-49.9-1.2-87.9-18.8-115.3-49.6
		L880.1,773.1z"/>
</g>
</svg>
