<?xml version="1.0" encoding="utf-8"?>
<!-- Generator: Adobe Illustrator 21.0.2, SVG Export Plug-In . SVG Version: 6.00 Build 0)  -->
<svg version="1.1" id="Mouth_1_" xmlns="http://www.w3.org/2000/svg" xmlns:xlink="http://www.w3.org/1999/xlink" x="0px" y="0px"
	 viewBox="0 0 2000 2000" enable-background="new 0 0 2000 2000" xml:space="preserve">
<g>
	<path fill="#8D5548" class="face-accent-fill-color" d="M937.7,806.3c-2,1.6-4.3,2.8-6.7,3.8s-4.9,1.7-7.4,2.2s-5.1,0.8-7.6,0.8c-2.6,0-5.1-0.2-7.6-0.8
		c2.5-0.6,5-1.1,7.4-1.5l7.3-1.4c2.4-0.5,4.8-1,7.2-1.5C932.7,807.4,935.1,806.8,937.7,806.3z"/>
	<path fill="#8D5548" class="face-accent-fill-color" d="M929,808.8c7.9,6.2,16.6,11.4,25.7,15.6c9.1,4.2,18.7,7.5,28.5,9.9s19.8,3.8,29.8,4.3
		c10,0.4,20.1-0.2,30-1.8c9.9-1.5,19.6-4.3,29-8c9.4-3.6,18.4-8.2,27-13.6c2.2-1.3,4.2-2.8,6.3-4.2c1.1-0.7,2.1-1.4,3.1-2.2l3.1-2.3
		c4-3,7.9-6.3,11.7-9.7c1.9-1.7,3.7-3.5,5.5-5.2l2.6-2.7l1.3-1.4l1.3-1.4c0.8-1,1.7-1.9,2.5-2.9l2.3-3c0.8-1,1.4-2.1,2.2-3.1
		c0.4-0.5,0.7-1.1,1-1.6l0.9-1.6l1.7,0.7c-2.2,4.9-5.2,9.1-8.4,13.2l-1.2,1.5l-1.3,1.5l-2.5,2.9c-1.8,1.9-3.5,3.8-5.4,5.6
		c-3.7,3.6-7.6,7.1-11.6,10.4l-3.1,2.4c-1,0.8-2,1.6-3.1,2.4c-2.1,1.5-4.2,3.1-6.4,4.5l-6.6,4.2l-6.8,3.8c-1.1,0.7-2.3,1.2-3.5,1.8
		l-3.5,1.7c-2.3,1.2-4.8,2.1-7.2,3.1c-9.7,3.9-19.7,7-30.1,8.7c-10.3,1.7-20.8,2.5-31.2,2s-20.8-2.1-30.9-4.7
		c-10.1-2.6-20-6.2-29.3-10.8c-9.3-4.7-18.3-10.2-26.2-17.1L929,808.8z"/>
	<path opacity="3.000000e-02" enable-background="new    " d="M928.2,809.8c2.5,1,4.7,2.2,7.2,3.1l3.5,1.5c1.2,0.5,2.4,0.9,3.6,1.3
		c1.2,0.4,2.3,0.9,3.5,1.3l3.6,1.2c2.3,0.8,4.7,1.5,7.1,2.2c9.5,2.7,19,4.8,28.5,6.2l3.5,0.5l3.6,0.3c1.2,0.1,2.4,0.3,3.5,0.4
		c1.2,0.2,2.4,0.2,3.5,0.3l3.5,0.2c0.6,0,1.2,0.1,1.8,0.1h1.8c2.4,0,4.7,0.1,7,0.1c2.3-0.1,4.7-0.1,7-0.2c1.2,0,2.3-0.1,3.5-0.2
		l3.5-0.3c2.3-0.1,4.6-0.4,6.9-0.7l3.5-0.4c1.2-0.1,2.3-0.4,3.4-0.6c2.3-0.4,4.6-0.7,6.9-1.2s4.5-1.1,6.8-1.6
		c1.1-0.2,2.3-0.6,3.4-0.9l3.4-1c1.1-0.3,2.2-0.6,3.4-1c1.1-0.4,2.2-0.8,3.3-1.2c8.9-3.1,17.6-6.8,26.2-11.2s17-9.5,25.2-15
		c2.1-1.4,4-2.9,6.1-4.3l3-2.3l1.5-1.1l1.5-1.2l3-2.4l2.9-2.5c1-0.8,1.9-1.7,2.8-2.6c0.5-0.4,0.9-0.9,1.3-1.4l1.3-1.4l1.4,0.6
		l-0.9,1.8c-0.3,0.6-0.6,1.2-0.9,1.7c-0.7,1.1-1.4,2.2-2.1,3.3l-2.3,3.2c-0.8,1-1.6,2-2.4,3l-1.2,1.5l-1.3,1.4l-2.6,2.9
		c-1.8,1.8-3.6,3.7-5.4,5.5c-7.5,7.1-15.6,13.5-24.2,19.2s-17.8,10.5-27.4,14.4c-9.6,3.8-19.6,6.9-29.8,8.5
		c-10.2,1.6-20.6,2.3-30.9,1.8c-10.3-0.6-20.6-2.1-30.6-4.7c-10-2.5-19.8-6-29.1-10.5c-9.3-4.6-18.1-10.1-26-16.8L928.2,809.8z"/>
	<path opacity="3.000000e-02" enable-background="new    " d="M928.5,809.4c7.7,6.5,16.5,11.8,25.7,16.2s18.8,7.8,28.7,10.3
		s20,3.9,30.1,4.4c10.2,0.4,20.4-0.3,30.4-1.9c10.1-1.6,19.8-4.5,29.3-8.3c9.4-3.8,18.5-8.4,27-14s16.6-11.9,24-18.9
		c1.9-1.7,3.6-3.6,5.4-5.4l2.6-2.8l1.3-1.4l1.2-1.5c0.8-1,1.6-1.9,2.4-2.9l2.2-3c0.7-1,1.4-2.1,2.1-3.1c0.4-0.5,0.6-1.1,0.9-1.6
		l0.9-1.6l2.3,1l-0.7,1.9c-0.2,0.6-0.5,1.3-0.8,1.9c-0.6,1.2-1.2,2.4-1.8,3.6l-2,3.4c-0.7,1.1-1.5,2.2-2.2,3.3l-1.1,1.6l-1.2,1.6
		l-2.4,3.2c-1.7,2-3.3,4.1-5.1,6c-3.6,3.9-7.3,7.7-11.2,11.3l-3,2.6c-1,0.9-2,1.7-3.1,2.5c-2.1,1.6-4.2,3.3-6.3,4.9l-6.6,4.6
		c-2.3,1.4-4.5,2.8-6.8,4.2c-1.1,0.7-2.3,1.3-3.5,2l-3.6,1.9c-2.3,1.3-4.8,2.4-7.3,3.5c-9.9,4.4-20.3,7.9-31,9.8l-2,0.4
		c-0.7,0.1-1.3,0.3-2,0.3l-4.1,0.5c-2.7,0.4-5.4,0.8-8.1,0.9l-4.1,0.3c-1.4,0.1-2.7,0.2-4.1,0.2h-8.2c-2.7-0.1-5.5-0.3-8.2-0.5
		l-2-0.2l-2-0.3l-4.1-0.5c-1.3-0.2-2.7-0.3-4-0.6l-4-0.8l-4-0.8c-1.3-0.3-2.6-0.7-4-1c-10.5-2.7-20.7-7-29.9-12.8
		c-2.3-1.5-4.6-2.9-6.7-4.7c-2.2-1.6-4.3-3.4-6.2-5.3c-1-1-2-1.8-2.9-2.9c-0.9-1-1.8-2-2.7-3.1c-0.4-0.5-0.9-1-1.3-1.6
		c-0.4-0.6-0.8-1.1-1.2-1.7c-0.8-1.1-1.6-2.2-2.3-3.4L928.5,809.4z"/>
	<path fill="#8D5548" class="face-accent-fill-color" d="M1130.3,774c2.7,0.3,5.3,0.1,7.9-0.1c2.6-0.3,5.2-0.6,7.9-0.9c2.6-0.3,5.3-0.5,8-0.6s5.5-0.1,8.2,0.6
		l-7.9,1.7c-2.6,0.5-5.3,1-8,1.3s-5.4,0.4-8.2,0.2C1135.6,776,1132.7,775.5,1130.3,774z"/>
</g>
</svg>
