<?xml version="1.0" encoding="utf-8"?>
<!-- Generator: Adobe Illustrator 21.0.2, SVG Export Plug-In . SVG Version: 6.00 Build 0)  -->
<svg version="1.1" id="_x31_0_x5F_MouthExpress_x5F_Angry"
	 xmlns="http://www.w3.org/2000/svg" xmlns:xlink="http://www.w3.org/1999/xlink" x="0px" y="0px" viewBox="0 0 2000 2000"
	 enable-background="new 0 0 2000 2000" xml:space="preserve">
<g>
	<path fill="#8D5548" class="face-accent-fill-color" d="M949.7,847c2.3-3,4.8-5.7,7.5-8.4c1.3-1.3,2.7-2.6,4.2-3.8l2.2-1.8c0.7-0.6,1.5-1.2,2.2-1.7
		c3-2.2,6.2-4.4,9.6-6.1c3.4-1.8,7-3.3,10.8-4.1s7.7-1,11.5-0.7c0.9,0,1.9,0.2,2.8,0.2c0.9,0.1,1.9,0.2,2.8,0.3
		c0.9,0.1,1.9,0.2,2.8,0.3c0.9,0.1,1.8,0.3,2.8,0.4c7.4,1.1,14.7,2.4,22,3c3.6,0.3,7.3,0.5,10.6-0.2c3.3-0.7,6.6-2.1,9.9-3.6
		c3.3-1.6,6.5-3.3,9.7-5.1s6.5-3.6,9.9-5.3c0.9-0.4,1.7-0.8,2.7-1.2c0.5-0.2,0.9-0.4,1.4-0.6l1.5-0.5c0.5-0.2,1.2-0.3,1.7-0.4
		c0.6-0.1,1.1-0.1,1.7-0.1c1.1,0,2.1,0.1,3,0.2c2,0.2,3.8,0.6,5.7,0.9c1.9,0.4,3.7,0.9,5.5,1.5c3.6,1.1,7.2,2.5,10.6,4.2
		s6.7,3.8,9.2,6.6c0.1,0.1,0.1,0.3,0,0.4c-0.1,0.1-0.2,0.1-0.3,0l0,0c-3-2.1-6.4-3.5-9.8-4.6c-3.5-1.1-7-2-10.5-2.7
		s-7.2-1.2-10.6-1.4c-0.9-0.1-1.7,0-2.5,0c-0.4,0.1-0.8,0-1.1,0.1c-0.3,0.1-0.6,0.1-1,0.3l-1.1,0.4l-1.2,0.5
		c-0.8,0.3-1.6,0.8-2.4,1.1c-6.4,3.3-13,7-20,9.9c-3.5,1.4-7.2,2.8-11.2,3.3c-1,0.1-2,0.1-3,0.1c-1-0.1-2-0.2-2.9-0.2l-2.8-0.4
		l-2.8-0.5c-7.3-1.6-14.5-3.4-21.8-4.1c-3.7-0.4-7.4-0.4-11-0.1c-3.6,0.3-7.1,1-10.5,2l-2.5,0.8l-2.5,1c-0.8,0.3-1.6,0.7-2.4,1.1
		c-0.8,0.4-1.6,0.7-2.4,1.1l-2.4,1.2c-0.8,0.4-1.6,0.9-2.4,1.3c-0.8,0.4-1.6,0.9-2.3,1.4c-0.8,0.5-1.6,0.9-2.3,1.4
		c-6.1,3.9-12,8.3-17.9,12.9l0,0c-0.1,0.1-0.3,0.1-0.4,0C949.7,847.2,949.7,847.1,949.7,847z"/>
	<path fill="#8D5548" class="face-accent-fill-color" d="M940.2,839.7c-1.6,3.4-2.7,7-2.4,10.6c0.1,1.8,0.7,3.5,1.7,4.9s2.5,2.4,4.2,2.8c1.7,0.4,3.4,0.4,5.1-0.1
		c1.7-0.4,3.3-1.2,4.8-2c3.1-1.8,5.7-4.4,8.2-7.2h0.1v0.1c-1.5,3.5-4,6.6-7.3,8.8c-3.2,2.2-7.6,3.2-11.5,1.9
		c-1.9-0.6-3.7-1.9-4.8-3.6c-1.1-1.7-1.6-3.7-1.6-5.6c0-3.9,1.4-7.5,3.2-10.8c0,0,0.1-0.1,0.1,0
		C940.2,839.6,940.2,839.6,940.2,839.7z"/>
	<path fill="#8D5548" class="face-accent-fill-color" d="M1106.9,826.6c2.3,1.5,4.7,2.8,7.2,3.9c2.5,1.1,5.1,1.9,7.7,2.1c2.6,0.2,5.2-0.4,6.6-2.2
		c0.7-0.9,1.2-2.1,1.6-3.3c0.4-1.3,0.5-2.6,0.8-4c0-0.1,0.1-0.1,0.1-0.1s0.1,0,0.1,0.1c0.4,1.4,0.5,2.8,0.4,4.2
		c-0.1,1.5-0.5,3-1.4,4.3c-0.5,0.6-1.1,1.2-1.7,1.7c-0.7,0.4-1.4,0.7-2.2,0.9c-1.5,0.3-3,0.2-4.5,0c-2.9-0.5-5.5-1.5-8-2.8
		s-4.8-2.8-6.9-4.6v-0.1C1106.8,826.6,1106.8,826.6,1106.9,826.6z"/>
</g>
</svg>
