<?xml version="1.0" encoding="utf-8"?>
<!-- Generator: Adobe Illustrator 21.0.2, SVG Export Plug-In . SVG Version: 6.00 Build 0)  -->
<svg version="1.1" id="_x31_1_x5F_MouthExpress_x5F_HeartEyes"
	 xmlns="http://www.w3.org/2000/svg" xmlns:xlink="http://www.w3.org/1999/xlink" x="0px" y="0px" viewBox="0 0 2000 2000"
	 enable-background="new 0 0 2000 2000" xml:space="preserve">
<path display="none" opacity="0.67" fill="#FFC5AF" enable-background="new    " d="M1296.5,759c-4-33.8-22.2-47.8-26.9-59.6
	c-1.2-1.2-2-2.6-2.1-4.4c-2-38,11-121-1-184s-54-71-72-70c-24,1.3-91,82-171,83s-158-65-234-40s-123,85-113,161s31,90,33,112
	c1.3,14.1-23.7,38.2-13,87c11,50,111,109,239,109c40,0,74-29,113-31c23.2-1.2,48.7,8.3,98.5-6c1.4-0.4,2.9-0.8,4.3-1.3
	c44.6-21.4,81-47.6,106.2-73.8c13.6-14.1,23.6-28.4,30.1-41.8C1294.9,784.1,1297.8,770.1,1296.5,759z"/>
<g>
	<path opacity="0.13" enable-background="new    " d="M876.4,805c0,0,31.4,39.4,37.3,37.5c9.1,4.7,35.6,24.2,45.6,26.8
		s48.1,9.4,78.8,2.4c30.7-7,47.3-16.6,62.1-28.8c14.8-12.2,27.9-37.9,27.4-50c6.3-1.8,11.5-2.9,11.5-2.9l-31.9-11.2
		c0.1,0,4.2,4.1,1.3,6.6c-21.8,18.8-39.5,43.7-96.3,44.2c-39.9,0.4-56.6-18.5-71.8-26.7c-17.8-9.7-10.6-16.9-11.7-19.7
		C921.2,786.4,906,799.9,876.4,805z"/>
	<path opacity="3.000000e-02" enable-background="new    " d="M905.2,835.8c37.5,26.8,14.2,55.7,74.4,68.2
		c35.8,7.4,72.1-18.5,66.1-32.7C1037.8,840.7,950.8,821.1,905.2,835.8z"/>
	<path fill="#6B3F3C" d="M1013.6,833.9c-44.4,2.6-81.4-38.7-103.1-41.6c-5.2-0.7-19.7,12.7-15.8,21c4.9,10.5,10.9,19.5,17.7,27
		c40.6,4.7,96.6,10.6,131.3,20.7c7-9.5,22.2-33.8,8.4-33.2C1041.8,830.7,1029.2,833,1013.6,833.9z"/>
	<path fill="#8D5548" class="face-accent-fill-color" d="M1119.1,781.7c-21.2,8.8-26.3,33.9-67.1,46c-0.8,11.1-5.9,21.5-12.9,31c3.4,2.4,6.8,5,9.9,7.7
		c67.9-22.1,73.3-63.8,75-73.4C1124.6,790.5,1124.7,782.4,1119.1,781.7z"/>
	<path fill="#AD6585" d="M958.2,862.2c26.7,9.8,67,2.8,90.8,3.5c-8.7-30.2-91.2-40.3-136.6-25.6c7.9,3.4,13.4,7,17.3,10.8
		C938,854.2,948.8,858.8,958.2,862.2z"/>
	<path fill="#C47499" d="M1049,865.8c-19.5-21.5-64.3-2.1-91-11.8c-9.5-3.5-19.1-4.3-28.4-2.9c17.9,17.4,4,37.8,53.4,48
		c35.8,7.4,72.1-18.5,66.1-32.7C1049.1,866.2,1049,866,1049,865.8z"/>
	<path fill="#8D5548" class="face-accent-fill-color" d="M876.5,804.8c1.1,0.1,2.2-0.2,3.4-0.5c1.1-0.3,2.2-0.7,3.4-1.1c2.2-0.8,4.4-1.7,6.6-2.7
		c2.2-0.9,4.3-1.9,6.5-2.9s4.3-2,6.4-3.1c2.1-1,4.2-2.2,6.2-3.4c2.1-1.2,4.2-2.2,6.3-3.1c2.2-0.9,4.4-1.7,6.6-2.5
		c1.1-0.4,2.2-0.8,3.3-1.2s2.2-0.8,3.3-1.3l0,0c0.2-0.1,0.3,0,0.4,0.1c0,0.1,0,0.2,0,0.3c-0.5,1.3-1.4,2.2-2.2,3.2
		c-0.9,0.9-1.8,1.8-2.7,2.6c-1.9,1.6-3.9,3-6,4.2c-2.1,1.3-4.3,2.3-6.5,3.1l-6.8,2.4c-2.3,0.8-4.5,1.6-6.8,2.4
		c-2.3,0.7-4.6,1.4-6.9,2.1c-2.3,0.6-4.7,1.2-7.1,1.6c-1.2,0.2-2.4,0.4-3.6,0.5c-1.2,0.1-2.5,0.2-3.7-0.2
		C876.4,805.3,876.4,805.1,876.5,804.8C876.2,804.8,876.3,804.7,876.5,804.8L876.5,804.8z"/>
	<path fill="#8D5548" class="face-accent-fill-color" d="M1107.2,778.5c3.3-0.1,6.4,0.4,9.3,1.2c1.5,0.4,2.9,0.9,4.3,1.5s2.8,1.3,4.2,1.9c1.4,0.6,2.8,1.1,4.2,1.7
		c1.4,0.6,2.8,1.1,4.3,1.6c2.9,1.1,5.7,2,8.7,2.8c0.1,0,0.2,0.2,0.2,0.3s-0.1,0.2-0.2,0.2c-3.1,0-6.2-0.4-9.3-0.9
		c-1.5-0.2-3.1-0.5-4.6-0.8s-3-0.7-4.5-1c-1.5-0.4-3-0.7-4.6-1c-1.5-0.4-3-0.9-4.4-1.5c-2.8-1.4-5.5-3-7.8-5.4
		c-0.1-0.1-0.1-0.3,0-0.4C1107.1,778.5,1107.2,778.5,1107.2,778.5z"/>
</g>
</svg>
