<?xml version="1.0" encoding="utf-8"?>
<!-- Generator: Adobe Illustrator 23.0.1, SVG Export Plug-In . SVG Version: 6.00 Build 0)  -->
<svg version="1.1" id="_x30_4_x5F_HeadGear_x5F_CyclistHelmet"
	 xmlns="http://www.w3.org/2000/svg" xmlns:xlink="http://www.w3.org/1999/xlink" x="0px" y="0px" viewBox="0 0 2000 2000"
	 enable-background="new 0 0 2000 2000" xml:space="preserve">
<g>
	<path fill="#888888" d="M1310.5,655.9c-0.6,2.4-9,30.6-10.6,31.1c-1.4,0.4-6.8,2.5-9.7,2.3c-0.6,0-1-0.1-1.4-0.4
		c-2.1-1.4-12.1-9.3-11.6-12.8c0.6-3.5,6.8-23.8,8.9-28.3s2.2-4,7.7-3.3c0,0,6.3,3.3,11.2,6.4C1308.2,653,1310.7,654.9,1310.5,655.9
		z"/>
	<path opacity="0.3" fill="#091426" enable-background="new    " d="M1305,650.9c-4.9-3.1-11.2-6.4-11.2-6.4
		c-5.5-0.6-5.5-1.1-7.7,3.4c-2.2,4.4-8.4,24.8-8.9,28.3s9.5,11.4,11.6,12.8c0.3,0.2,0.8,0.3,1.4,0.4c1.5-7.3,4-17.9,6.7-24
		C1300.4,657.2,1300.4,654.4,1305,650.9z"/>
	<path fill="#3F3F3F" d="M1311.2,464.5c-0.5-5-1-9.6-1.6-13.7c-2.2-15.3-5-24.8-6.5-29.1c-0.6-1.8-1-2.7-1-2.7l-6.3,6.5l-8.4,8.7
		c0,0,4,8.2,6,19.2s1.9,26.7,1.9,26.7s-8-28.8-9.2-38c-0.6-4.8-4.5-6.3-8.1-6.7c-3.3-0.3-6.3,0.3-6.3,0.3c0.1,0.9,0.3,1.8,0.4,2.7
		c2,12,4.7,23.5,7.5,33.6c2.9,10.4,5.9,19.4,8.4,26.2c3.1,8.4,5.2,13.4,5.2,13.4s-1.3,12.3-4.3,28.6c-3.1,16.3,2.6,26.9,7,49.2
		c4.3,22.3-3.6,56.7-3.6,56.7l6.4,7.3l2.2,2.5c0,0,9-22.3,8.2-51.1s-9.2-39.3-4.3-62.2c1.8-8.5,3.6-17.2,4.9-26.2
		c0.4-2.4,0.7-4.9,1-7.5C1312.2,495.6,1312.7,481.1,1311.2,464.5z"/>
	<path fill="#3F3F3F" d="M638.5,553.5c-2.8,23.3-8.2,57.6-37.2,90.4c0,0-2.4-0.2-6.3-2.9c-5.6-3.8-14.4-12.4-24.2-32.2
		c-3.2-6.4-6.5-14.1-9.8-23.1c-20.9-56.4-26.6,8.6-26.6,8.6c22.9,38.7,48.2,64.2,48.2,64.2s3.6,13.3,0,32.2s-9,20.9-15.8,46
		c-3.7,13.8-1.3,25.2,1.6,32.6c2.4,6.1,5.1,9.5,5.1,9.5l9-10.1c0,0-7.1-18.1,0-36.1c7-17.6,18-42.9,18.2-64.4c0-0.4,0-0.8,0-1.2
		c0,0,2.2-1,5.8-3.6c8.2-5.9,23.8-20.2,38.2-50c12.8-26.5,21.3-67,26-94.2c2.9-16.9,4.3-28.7,4.3-28.7L640.6,504
		C640.7,504.1,641.3,530.2,638.5,553.5z"/>
	<path opacity="0.3" fill="#091426" enable-background="new    " d="M1295.8,425.5l-8.4,8.7c0,0,4,8.2,6,19.2s1.9,26.7,1.9,26.7
		s-8-28.8-9.2-38c-0.6-4.8-4.5-6.3-8.1-6.7c-2,1-3.9,2-5.9,3c2,12,4.7,23.5,7.5,33.6c0.5-0.1,0.9-0.2,1.4-0.4
		c0.4-0.1,0.9-0.3,1.3-0.6c2.2-0.6,4.3-1.3,6.5-1.9c1.1-0.3,2.2-0.8,3.1-1.5c-0.1,1.1-0.1,2.2-0.2,3.2c-0.2,5.9-0.3,11.8-1.3,17.6
		c-0.5,3.3-1.5,6.5-2.5,9.7c3.1,8.4,5.2,13.4,5.2,13.4s-1.3,12.3-4.3,28.6c-3.1,16.3,2.6,26.9,7,49.2c4.3,22.3-3.6,56.7-3.6,56.7
		l6.4,7.3c0.3-0.4,0.5-1,0.6-1.6c2.7-13.2,4.5-25.8,4-39.2c-0.2-5.2-0.7-10.5-1.8-15.6c-0.3-3.3-0.8-6.6-1.5-9.8
		c-2-9.4-5.7-18.2-5.9-27.9c-0.2-9.5-0.3-19.3,0.9-28.8c0.6-4.7,1.4-9.4,2.2-14.1c0.1-0.5,0.2-1,0.3-1.4c0.1,0.1,0.3,0.1,0.4,0.2
		c1.8,0.5,3.7,0.4,5.5,0.5c2.1,0.2,4.1,0.6,6.1,0.8c0.4-2.4,0.7-4.9,1-7.5c-3,0.2-6.1,0.9-9,0.5c0.5-5.6-0.9-12.1-2.9-17.1
		c0-0.1-0.1-0.1-0.1-0.2s0-0.3,0.1-0.4c1-6,1.6-12.1,1.9-18.1c0.3-6.2,0.1-12.5-0.3-18.7c3.1-1.4,6.2-2.6,9.3-4
		c-2.2-15.3-5-24.8-6.5-29.1C1300.6,422.9,1298.2,424.2,1295.8,425.5z"/>
	<path opacity="0.3" fill="#091426" enable-background="new    " d="M640.7,504.1c0,0,0.6,26-2.3,49.4s-8.2,57.6-37.2,90.4
		c0,0-2.4-0.2-6.3-2.9c-1.6,2-3.2,4-4.8,5.9c-1.7,2-4.1,4-6,6.3c-1.8-4.3-4.9-7.9-8-11.7c-5.4-6.4-11.1-12.5-16-19.2
		c3.7-4.4,7.3-8.9,10.6-13.6c-3.2-6.4-6.5-14.1-9.8-23.1c-20.9-56.4-26.6,8.6-26.6,8.6c22.9,38.7,48.2,64.2,48.2,64.2
		s3.6,13.3,0,32.2s-9,20.9-15.8,46c-3.7,13.8-1.3,25.2,1.6,32.6c0.2-0.2,0.4-0.5,0.6-0.9c2.2-4.6,0.7-10.2,0.5-15.2
		c-0.2-5.8-0.2-11.7,0.6-17.5c1.7-11.4,7.8-20.7,11.9-31.2c3.6-9.2,4-19.4,3.7-29.2c0.6-3.6,0.7-7.4,0.4-11.1
		c4.8,1.7,9.8,2.5,14.7,3.9c0-0.4,0-0.8,0-1.2c0,0,2.2-1,5.8-3.6c-0.7-2.1-1.5-4.2-1.9-6c-1.1-4.3-1.8-8.7-2.7-13.1
		c1-0.2,1.9-0.7,2.7-1.5c15.8-17.3,27.5-38,34.4-60.4c5.3-17.3,8-36.6,6.9-55.1c4.1-1.2,8.3-2.6,12.3-3.9c4.2-1.3,8.4-2.8,12.6-4.2
		c2.9-16.9,4.3-28.7,4.3-28.7L640.7,504.1z M595.5,662.3c-3.2-0.4-6.4-0.7-9.6-1c-0.1-0.9-0.2-1.8-0.3-2.7c-0.1-0.4-0.1-0.8-0.2-1.2
		c3-2.2,5.6-5.9,7.9-8.4c1.3-1.5,3.1-3.3,4.7-5.3c0.5,0.3,1,0.5,1.5,0.6c0.3,4.9,1.3,9.8,1.9,14.6c0.2,1.4,0.3,3,0.4,4.5
		C599.7,662.9,597.6,662.5,595.5,662.3z"/>
	<path fill="#888888" d="M589.1,795.5c-0.1,0.4-0.1,0.7-0.2,0.8c-1,1.7-3.2,2.2-3.2,2.2c0.1,0.8,0.1,1.5,0.1,2.2
		c-0.1,3.6-1.6,6.2-8.2,6.3c-0.1,0-0.2,0-0.3,0c-7.5-0.1-6.9-8-6.9-8s-1.8-1.6-5.2-2.2c-3.3-0.7-4.3-8.7-3.9-28.2
		c0,0,14.4-8.5,17.4-8.1c2.5,0.3,7.5,1.6,9.4,4.2c0.4,0.5,0.6,1,0.7,1.6C589.4,769.7,589.8,790.9,589.1,795.5z"/>
	<path opacity="0.3" fill="#091426" enable-background="new    " d="M585.7,798.5c0,0,2.1-0.6,3.2-2.3c0.1-0.1,0.1-0.4,0.2-0.8
		c-3.1-0.6-8.6-1.4-8.6-1.4s-2.4-21.6-2.6-26.8c-0.2-4.7,0.9-3.1,10.3-2.7c-1.9-2.6-7-3.9-9.4-4.2c-2.9-0.4-17.4,8.1-17.4,8.1
		c-0.5,19.5,0.5,27.5,3.9,28.2c3.3,0.7,5.1,2.3,5.1,2.3s-0.6,7.9,6.9,8c-0.5-2.2-0.7-5.3,1.4-5.8c2.6-0.6,4-0.8,7.1-0.5
		C585.8,800,585.8,799.3,585.7,798.5z"/>
	<path fill="#D8D8D8" d="M1316.7,406c0-1-0.9-2.4-2.4-3.9c-3.3-3.4-9.2-7.6-13.8-10.6c-3.5-2.3-6.1-3.9-6.1-3.9s7.8-18.8,10.3-33
		c1-5.9,1.2-12.8,0.9-19.9c-0.5-9.9-2-20.2-3.5-28.5c-1.1-5.8-5.9-14.9-13.4-24.9c-9.7-12.9-24.1-27.3-40.9-37.7
		c-2.1-1.3-4.2-2.5-6.4-3.7c-33-17.8-71-9.7-71-9.7s-16.5-33.8-25-43.3s-61-37.8-130.7-49.7c-25.7-4.4-45.2-6.4-60.3-6.9
		c-25.8-1-38.2,2.2-45.1,5C898.5,139.8,886,157,886,157c-0.6-0.3-1.1-0.6-1.7-0.8c-68.3-33.8-100.3-22.1-152,4.8
		c-6.8,3.6-13.2,7.1-19.1,10.6C674,195,654.5,217,650,233.7c-5.2,19.2-4.3,36.3-4.3,36.3c-0.1-0.1-0.2-0.1-0.3-0.2
		c-4.5-2-10.1-3.8-16.5-4.6c-16.3-2.1-37.6,2.1-57.2,24.8c-0.4,0.4-0.7,0.8-1.1,1.3c-12.2,14.3-22.6,31.1-30.9,47.3
		c-10,19.7-16.9,38.5-19.8,51.1c-5.3,23.3,4.3,35.7,4.3,35.7s-7.2,3.2-18,9.7s-11.8,9.3-18.3,27s-13.2,53.3-1.7,90
		c4.1,13.1,9.2,23,14.9,30.8c10.2,14,22,20.9,32.4,26.2c16.2,8.3,23.6-7.8,41.7-34.3c6-8.8,15.7-35,21.3-42
		c5.7-7,14.3-11.7,36.4-19.7c22.1-8,92.6-37,194.6-57c13.7-2.7,29.7-5.2,47.1-7.6c31.5,4.5,67.4,8.8,108.9,13.6
		c124.7,14.2,243.2,9.9,290.8-7.9c6.6-2.5,11.8-5.2,15.5-8.1C1320.5,421.7,1316.7,411,1316.7,406z"/>
	<path fill="#FFFFFF" d="M774.6,348.2c-2.5-2-5.2-3.6-7.9-5.4c-5.5-3.7-11.3-7.1-17-10.5c-11.5-6.8-23.6-12.3-35.1-19.1
		c-10.9-6.4-21.8-12.8-32.6-19.4c-5.2-3.2-10.4-6.5-15.9-9.2c-3.6-1.8-9.7-5.7-13.5-3.2c-0.5,0.3-0.8,1-0.6,1.5
		c1.5,4.3,8,5.4,11.8,7.4c5.4,2.8,10.7,6,15.7,9.5c10.5,7.3,20.6,14.8,31.5,21.5c11.1,6.8,21.8,14.2,33.3,20.2
		c5.4,2.8,10.9,5.6,16.5,8c3.1,1.3,6.3,2.7,9.5,4c3.2,1.2,6.6,1.6,9.9,2.5c1,0.3,1.8-1,1-1.7C778.9,352.4,777,350.1,774.6,348.2z"/>
	<path fill="#FFFFFF" d="M963.8,299.1c-0.8-7.7-4.6-14.7-7.8-21.6c-3.7-8-7.9-15.7-12.3-23.3c-8.5-15-17.8-29.6-27.6-43.7
		c-16.6-23.7-36.2-51.6-67-55.9c-9.9-1.4-20.1-1.6-30.1-1.9c-5.2-0.2-10.4-0.1-15.6-0.2c-4.5-0.1-9.7-0.9-13.7,1.6
		c-1.3,0.8-1.2,2.5,0,3.3s2.5,1.3,3.8,1.6c1.2,0.5,2.5,0.8,3.9,1.2c3.9,1,7.7,2.4,11.5,3.7c7.1,2.3,14,4.9,20.7,8.1
		c13.6,6.6,26.4,14.5,38.4,23.8c25.2,19.6,45.7,44.7,64.9,70.1c5.5,7.2,11,14.5,15.8,22.2c4.8,7.8,10,16,13.7,24.3
		c1.4,3.2,7.1,0.9,5.7-2.4C966.6,306.3,965.3,302.7,963.8,299.1z"/>
	<path fill="#FFFFFF" d="M1165.1,288.2c-0.6-2.3-1.3-4.5-2.1-6.7c-0.2-1.9-0.7-3.7-1-5.6c-0.7-3.7-1.3-7.4-2.2-11
		c-1.9-7.6-4.1-15.1-6.5-22.5s-5.2-14.7-8.1-22c-2.8-6.8-5.4-14.2-9.7-20.3c-7.8-11.2-23.1-16.7-34.9-22.6c-6.9-3.4-14-6.7-21.2-9.5
		c-4.2-1.7-10.2-4.5-15.3-4.6c-2.3-0.2-4.5,0-6.5,0.9c-1.8,0.8-1.7,3.3-0.6,4.6c4,4.4,12.2,5.5,17.4,8.3c6.3,3.3,12,7.5,17.2,12.3
		c10.9,10.2,19.7,22.3,28,34.7c8.3,12.3,16,25.1,23,38.2c3.4,6.4,6.5,13.1,9.9,19.5c1.7,3.2,3.5,6.4,5.5,9.4c1.9,3,3.7,7.1,6.4,9.3
		c1.2,1,2.9,0.3,3-1.3C1167.7,295.8,1165.9,291.7,1165.1,288.2z"/>
	<path fill="#CE2828" d="M581.4,335.8c0,0,23.3-6.5,69.5,5c43,10.7,72.3,26,75.5,28c-2.4-2.6-18.6-26.5-47.2-41
		c-30.3-15.3-54.9-11.6-54.9-11.6l21.9-11c0,0-24.1-21.1-75.6-13.9c-12.2,14.3-22.6,31.1-30.9,47.3c30.1-17.7,52.6-19.4,52.6-19.4
		S582.3,327,581.4,335.8z"/>
	<path fill="#CE2828" d="M1248.9,305.8c0,0,6.6-3.7,12-9.6c0,0,0.5,14.3-2.7,29.6c-3.2,15.3-7.6,25.3-7.6,25.3s18.4-7.3,35.5-58.8
		l-6.6,0.3c0,0,5.7-2.7,9.1-11.1c-9.7-12.9-24.1-27.3-40.9-37.7C1255.4,256.7,1255.8,261.8,1248.9,305.8z"/>
	<path fill="#888888" d="M533.7,609c16.2,8.3,23.6-7.8,41.7-34.3c6-8.8,15.7-35,21.3-42c5.7-7,14.3-11.7,36.4-19.7s92.6-37,194.6-57
		c13.7-2.7,29.7-5.2,47.1-7.6c-64.9-9.3-111.3-19.7-150.5-36.8c-43.8,12.4-75.7,25.9-95.2,36.1c-34,17.7-65.8,29-77.7,48
		c-11.8,19-13,39.7-27,68.3c-9.5,19.4-14.6,22.2-23.1,18.8C511.4,596.8,523.3,603.6,533.7,609z"/>
	<path fill="#3F3F3F" d="M1305.3,447.3c-3.7,3-28.1,13.6-34.7,16c-47.6,17.8-162.3,12.9-287-1.3c-41.5-4.7-77.4-9-108.9-13.6
		c-64.9-9.4-111.3-19.7-150.5-36.8c32.3-9.1,71.2-17.6,116.4-23.6c106.7-14.2,143.3-22.7,202.7-19.9c59.3,2.8,220,5.9,251,19.6
		c0,0,22.3,13.3,22.3,18.3S1335.8,423,1305.3,447.3z"/>
	<path opacity="0.3" fill="#091426" enable-background="new    " d="M1316.7,406c0-0.9-0.8-2.1-2-3.5c-0.2-0.1-0.5-0.2-0.6-0.3
		c-0.5,2-1,4-1.5,5.8s-1,3.6-1.6,5.3c-0.2,0.6-0.4,1.1-0.6,1.6c-1.3,3.8-2.7,7.1-4.4,10c-0.2,0.4-0.5,0.8-0.7,1.2
		c-0.5,0.8-1,1.6-1.5,2.3c-0.3,0.4-0.5,0.7-0.8,1.1c-3.3,4.4-7.4,7.7-12.6,10.5c-1.8,0.9-3.6,1.8-5.7,2.6c-4.6,1.8-9.9,3.4-16.3,4.8
		c-0.7,0.2-1.4,0.3-2.1,0.5c-2.9,0.6-6,1.2-9.3,1.8c-1.6,0.3-3.3,0.6-5.1,0.9c-12.3,2.1-27.2,4.3-45.4,7c-23.2,3.5-43.3,5.4-62.7,6
		c-2.3,0.1-4.6,0.1-6.8,0.2c-22.7,0.4-44.7-0.8-70-2.9c-2.5-0.2-5.1-0.4-7.7-0.7c-5.2-0.5-10.5-1-16-1.5c-2.8-0.3-5.5-0.5-8.4-0.8
		c-7.1-0.7-14.5-1.4-22.3-2.2c-6.2-0.6-12.6-1.2-19.3-1.9c-3.3-0.3-6.8-0.6-10.2-1c-10.4-1-21.5-2-33.3-3c-17.6-1.5-34.3-3.3-50-5.2
		c-3.5-0.4-6.9-0.9-10.3-1.3c-6.7-0.9-13.3-1.8-19.6-2.7c-9.5-1.4-18.5-2.9-26.9-4.3c-1.4-0.2-2.8-0.5-4.2-0.7
		c-5.5-1-10.8-1.9-15.9-2.9c-2.5-0.5-5-1-7.4-1.4c-4.8-1-9.4-1.9-13.8-2.8c-1.1-0.2-2.2-0.5-3.2-0.7c-4.2-0.9-8.2-1.8-11.9-2.7
		c-4.7-1.1-8.9-2.1-12.8-3.1c-1.5-0.4-3-0.8-4.4-1.1c-14.1-3.6-21.6-6-21.6-6s39.8-11.5,115-19s81.8-10,174.7-16
		c29-1.9,56.9-2.2,82.8-1.5c2.6,0.1,5.1,0.1,7.7,0.2c6.4,0.2,12.6,0.5,18.6,0.8c4.9,0.2,9.6,0.5,14.3,0.8c1.2,0.1,2.3,0.1,3.5,0.2
		c4.6,0.3,9.1,0.6,13.5,1c2.2,0.2,4.3,0.3,6.5,0.5c4.3,0.4,8.4,0.7,12.4,1.1c1,0.1,2,0.2,3,0.3c5.9,0.6,11.5,1.1,16.8,1.7
		c3.5,0.4,6.9,0.8,10.2,1.1c1.6,0.2,3.2,0.4,4.7,0.6c6.9,0.8,13.1,1.6,18.4,2.3c2.9,0.4,5.7,0.7,8.2,1c1.7,0.2,3.4,0.4,5,0.6
		c0.8,0.1,1.6,0.2,2.3,0.3c3,0.4,5.8,0.7,8.4,1c1.3,0.1,2.5,0.3,3.7,0.4c4.1,0.4,7.5,0.7,10.5,0.8c0.4,0,0.8,0,1.2,0
		c0.8,0,1.6,0,2.3,0c0.4,0,0.7,0,1.1,0c0.7,0,1.4-0.1,2-0.2s1.2-0.2,1.8-0.3c0.9-0.2,1.7-0.4,2.5-0.6c0.5-0.2,1-0.4,1.5-0.6
		c-2.2-1.4-4-2.6-5.1-3.3c-0.6-0.4-1-0.6-1-0.6s0,0,0-0.1l0,0l0,0c0.5-1.2,7.9-19.2,10.3-32.9c1-5.9,1.2-12.8,0.9-19.9
		c-12.8,27.8-14.5,36.5-46.9,33.3c-36.5-3.6-195-15.6-264.7-13.1s-153.2,20-230,36.3s-144.8,49-156.3,55s-26-9.5-12.3-24.3
		s29.2-6.7,37.8-7.7s23.9-3.2,29.2-16.6c5.3-13.5-8.2-30.2-20.3-36.7s-48-15-48-15s1.2-32.2,21-61c6.4-9.4,10.8-15.6,13.8-19.8
		c-16.2-2.1-37.4,2.1-57,24.8c-0.4,0.4-0.7,0.8-1.1,1.3c-12.2,14.3-22.6,31.1-30.9,47.3c-10,19.7-16.9,38.5-19.8,51.1
		c-5.3,23.3,4.3,35.7,4.3,35.7s-7.2,3.2-18,9.7s-11.8,9.3-18.3,27s-13.2,53.3-1.7,90c4.1,13.1,9.2,23,14.9,30.8
		c10.2,14,22,20.9,32.4,26.2c16.2,8.3,23.6-7.3,41.7-33.8c6-8.8,15.7-35,21.3-42c5.7-7,14.3-11.7,36.4-19.7c22.1-8,92.6-37,194.6-57
		c13.7-2.7,29.7-5.2,47.1-7.6c31.5,4.5,67.4,8.3,108.9,13.1c7.4,0.8,14.7,1.6,22,2.3c116.1,12.3,220.3,15.7,265.1-1.1
		c6.6-2.4,31-13,34.7-16C1335.8,423,1316.7,411,1316.7,406z M666.8,489.7c-40.3,11.7-58.5,26.4-58.5,26.4
		c-9.9-11.9-10.6-21.2-9-37.6c0,0,18.9-15.1,46.5-29.8s62.3-24.4,62.3-24.4l54.3,40.2C762.4,464.5,707.1,478,666.8,489.7z"/>
	<path opacity="0.3" fill="#091426" enable-background="new    " d="M785,344.3c25.7,16.2,62.3,23.6,69.7,11.8
		c7.3-11.8,5.7-57.8-44-91.8S699.1,233,687,229.7c-12.1-3.4-12.4-8.8-6.4-19.3c3.4-6,19.5-24.3,32.6-38.7
		C674,195,654.5,217,650,233.7c-5.2,19.2-4.3,36.3-4.3,36.3c-0.1-0.1-0.2-0.1-0.3-0.2v0.1C697,288,759.3,328.2,785,344.3z"/>
	<path opacity="0.3" fill="#091426" enable-background="new    " d="M940.7,207c16.7,28.3,36.5,50.2,47.1,74.1s13.3,49.2,54.9,48.7
		c41.7-0.5,23.5-69,10.4-88.8c-13.1-19.9-31.1-65-65.1-80.7c-31-14.3-49.9-15.8-33.6-29.9c-25.8-1-38.2,2.2-45.1,5
		C898.5,139.8,886,157,886,157c-0.6-0.3-1.1-0.6-1.7-0.8v0.5C919,175,924,178.7,940.7,207z"/>
	<path fill="#888888" d="M1220.9,334.7c-5.1,6-12.4,5.4-18.7,0.7c0.4-7.8,0.7-20.1-0.6-32.2c-1.9-17.3-6.2-23-22.4-37.1
		c-2.4-11.3-5.2-23.5-8.8-35.8c1.4-0.3,3.5-0.6,4.2-0.7c0.1,0,0.2,0,0.2,0l0,0c0,0,29.7,16.1,41.9,38.7
		C1228.9,290.9,1229.7,324.4,1220.9,334.7z"/>
	<path fill="#3F3F3F" d="M1202.2,335.4c-4.5-3.3-8.5-8.6-10.9-15c-4-10.5-7.1-30.6-12.1-54.2c16.2,14.1,20.5,19.8,22.4,37.1
		C1202.9,315.2,1202.6,327.6,1202.2,335.4z"/>
	<path fill="#62656A" d="M890.3,159c14.6-11.2,18-10.8,17.4-5.7c-0.7,5.1-7,9.6-10.8,9.5C893.2,162.7,890.3,159,890.3,159z"/>
	<path fill="#62656A" d="M1045.7,251.4c-12.6-30.2-43.4-64.1-72.8-82.9s-42.7-1.5-45.5,16.4c-0.4,2.4,1.2,7.2,4.4,13.9
		c3.7-16,18.9-13.8,44-0.1c29.5,16,49.7,77.3,52.5,96.5c2.2,15.1,1.7,27.3-5.1,31.7c14.1,5.4,28.1,5.3,32.8-3.1
		C1064.2,309.3,1058.4,281.6,1045.7,251.4z"/>
	<path fill="#2F3237" d="M1028.4,295.1c-2.9-19.2-23.1-80.4-52.5-96.5c-25-13.6-40.3-15.8-44,0.1c5,10.3,14,25,26.2,42.5
		c20,28.8,21.5,47.3,38.2,67c6.9,8.2,17,14.7,27,18.5C1030.1,322.4,1030.6,310.2,1028.4,295.1z"/>
	<path fill="#62656A" d="M847.5,336.8c-3.5-16.5-29.6-55.2-69.5-73.8c-39.8-18.5-73.3-11.8-78.7,1.9c-5.4,13.6-2.4,27.6,17.7,36.2
		c-6.9-22.7-3.2-30,15.3-28.2c19.9,2,55.1,17,76.9,39.5c20.6,21.4,32.3,47.6,12.1,50.7c0.9,0.3,1.7,0.7,2.5,0.9
		C851.2,373.7,851,353.3,847.5,336.8z"/>
	<path fill="#2F3237" d="M809.2,312.5c-21.8-22.6-57-37.5-76.9-39.5c-18.4-1.9-22.2,5.5-15.3,28.2c0.1,0.1,0.3,0.1,0.4,0.2
		c33.6,14,76.3,51,103.8,61.9C841.5,360.1,829.8,333.9,809.2,312.5z"/>
	<path fill="#62656A" d="M600.7,394.7c18-3.5,45.2,3.9,53.5,6.6c0.6-9.4-8-20.9-23.6-26.8c-21.3-8.1-45.3-5.8-64.7,4.4
		c-19.5,10.1-15.4,21.6-10.9,28c4,5.7,17.4,7.4,37.6,7.3C584.8,406.9,584.3,397.8,600.7,394.7z"/>
	<path fill="#2F3237" d="M649.8,410.2c2.7-2.5,4.1-5.6,4.4-9c-8.3-2.7-35.5-10-53.5-6.6c-16.4,3.1-15.9,12.2-8.2,19.4
		c2.4,0,4.9-0.1,7.5-0.1C611.6,413.7,639.6,419.6,649.8,410.2z"/>
	<path fill="#62656A" d="M649.7,268.3c0,0-0.8-12.8,1.6-15.9s11.4-2.4,10.4,3.5C659.7,268.3,649.7,268.3,649.7,268.3z"/>
	<path fill="#62656A" d="M531.7,423c-3.7,0.8-4.7-3.4-3-12.8s8.5-8.8,9.3,0S531.7,423,531.7,423z"/>
</g>
</svg>
