<?xml version="1.0" encoding="utf-8"?>
<!-- Generator: Adobe Illustrator 23.0.1, SVG Export Plug-In . SVG Version: 6.00 Build 0)  -->
<svg version="1.1" id="_x30_5_x5F_HeadGear_x5F_PJSleepingCap"
	 xmlns="http://www.w3.org/2000/svg" xmlns:xlink="http://www.w3.org/1999/xlink" x="0px" y="0px" viewBox="0 0 2000 2000"
	 enable-background="new 0 0 2000 2000" xml:space="preserve">
<g>
	<path fill="#142A66" d="M1317,388c-0.5-7.1-1.2-13.9-2.1-19.9l-7.4-11.9l-2.3-3.7c0,0-48.2-52-86.2-103s-95.2-128.2-144-146
		s-95.8-10.5-172.5-4S764,118.8,748,120.5s-23,9.6-52.5,34.5c-55.3,46.7-82.6,70-147,118.8s-85,59.9-95.1,66.6
		c-5.6,3.7-11.8,17.4-18.9,38.8c-5.6,17-11.9,38.8-18.9,64.3c-15.8,57.6,1.3,134.6,11.8,204.6c10.6,70,41.1,154.2,47.1,174.8
		s6.1,20.4,10,19.6c12-2.5,17.8-41.6,31.2-84.3c13.5-42.7,40.7-112.2,53-104.8c0,0,7.8-13.5,29.1-33.7
		c29.2-27.8,84-68.5,179.2-104.6c164.5-62.5,278.3-55.5,369.9-49.5s169.4,29,169.4,29S1320.3,433.4,1317,388z"/>
	<path opacity="0.3" fill="#091426" enable-background="new    " d="M1307.5,356.2c-48.7-12.4-163.2-34.8-206.5-39
		c-60.5-5.8-158.8,4-225,18.2s-179.4,53.1-204.2,63.2s-108.1,76-108.1,76c-5.3-28.5,2.6-81.2,31.1-126.5s75.5-105.5,90-118.5
		s27.5-24,18.5-22s-47.6,32.4-73.5,62.2s-40.2,50.3-40.2,50.3c10.2-24.8,28.4-61.4,43.6-75.5s14.8-24,8.4-18.8s-22,24.9-35.2,41.8
		s-26.5,36.8-26.5,36.8c-0.9-13.6,16.4-33.4,21.5-41.2s-0.6-8.8-3-6.2c-2.4,2.6-7.2,16-29.2,28s-40.4,31.9-68.2,44.8
		c-24,11.2-40,20.7-66.2,49.3c-5.6,17-11.9,38.8-18.9,64.3C400.1,501,417.2,578,427.7,648c10.6,70,41.1,154.2,47.1,174.8
		s6.1,20.4,10,19.6c12-2.5,17.8-41.6,31.2-84.3c13.5-42.7,40.7-112.2,53-104.8c0,0,7.8-13.5,29.1-33.7
		C569.6,570.4,568,508.7,568,508.7c14.4-19.9,64.8-74.5,178.5-112.5S925.6,350,1023,343.8s174.2,12,213.5,20.8
		c28.6,6.4,66.3,17.8,80.5,23.5c-0.5-7.1-1.2-13.9-2.1-19.9L1307.5,356.2z"/>
	<path fill="#CABEF3" d="M591.6,1044.7c0.1-0.9,0.1-2,0.1-3.2c0.1-10.1-5.2-11.8-5.2-11.8c3.5-7.6-3.3-14-3.3-14
		c2.3-3.3,3.4-7,3.3-11c-0.1-6.8-3.8-14.4-11.6-21.5c-12.2-11.2-30.5-6.8-30.5-6.8c-4.1-8-9.2-8.5-9.2-8.5s-0.9-3.6-7-9.2
		s-16.8-4-16.8-4s-1.9-4-8.8-5.2c-6.4-1.2-13.1,0.9-13.9,1.2v-0.1c0.1-0.2,0.4-0.7,0.1-1.2c0-0.2,0-0.4,0-0.6
		c0.4-8.9,0.9-23.5,1.1-44c0.3-32.2,0.1-59.5-1.8-68.4c-0.2-1.1-0.5-1.9-0.7-2.4c-2.5-4.9-5.3-1.2-5.5,3.1
		c-0.2,4.1,0.9,52.5,0.1,110c-0.2,0-0.4-0.1-0.6-0.1c-9.9-1.2-26.2,11.2-26.2,11.2c-8.8-5.2-41.8,2.1-49,18.5s-6.2,26.8-6.2,26.8
		s-17.9,8.1-25.2,24.5c-7.3,16.4,4,23,4,23c-5.1,8.2,2,16.2,2,16.2c-5.4,10.9,4.8,16.2,4.8,16.2c-5.2,2.8-10.9,15.1,2.2,24.5
		s15.2,12.8,15.2,12.8c-7.5,13.6-7.4,30.9,7.2,37.2s22-6.8,22-6.8s2.2,2.1,8.2,1.5s7.5-3,7.5-3s22.8,30.8,40,28.8
		s20.5-16.2,20.5-16.2c5,1.9,10.4,1,15.2-0.8c8.2-3.2,14.8-9.2,14.8-9.2s28.5,3.5,41.8-12.8c2-2.5,3.6-4.8,4.7-7.1
		c6.6-12.6,1.4-22.1-1-29.4c-0.4-1.2-0.6-2.3-0.6-3.4c0-5.6,4.5-9.9,6.1-16.6c0.3-1.3,0.5-2.7,0.5-4.2c0.1-10.8-6.2-16-6.2-16
		c6-4.8,7-7.9,6.6-9.7c-0.3-1.5-1.4-2.1-1.4-2.1S591,1051.5,591.6,1044.7z"/>
	<path opacity="0.3" fill="#091426" enable-background="new    " d="M488.8,1022.9c-1.6-0.1-2.2,1.6,0,3.3
		c11.9,9.4,14.9,20.3,16.1,24.2c1.2,3.9,1.1,5.8,1.9-1.6s1.7-10.7,5.2-15c3.4-4.3,5.2-6.2,1.7-5.7c-3.4,0.6-10.2,3.2-16.2,0
		S490.4,1023,488.8,1022.9z"/>
	<path opacity="0.3" fill="#091426" enable-background="new    " d="M573.6,1084.3c-7.5-2.6-10.6-7.5-11.4-4.6s1.9,12.4,15.5,17.8
		c2,0.8,3.9,1.5,5.8,2.2c0-5.6,4.5-9.9,6.1-16.6C585.3,1084.3,578.5,1085.9,573.6,1084.3z"/>
	<path opacity="0.3" fill="#091426" enable-background="new    " d="M551.4,1140.1c-15.6-10-13-23.8-13.9-25.7s-7,4.2-6.4,19.3
		c0.7,15.1,7.4,18.5,7.4,18.5s28.5,3.5,41.8-12.8c2-2.5,3.6-4.8,4.7-7.1C575.2,1143,563.5,1147.8,551.4,1140.1z"/>
	<path opacity="0.3" fill="#091426" enable-background="new    " d="M581.1,1051.6c3.4,0.9,6.7,1.3,9.3,1.5
		c-0.3-1.5-1.4-2.1-1.4-2.1s2,0.5,2.6-6.3c-2.5,1.3-5.7,1.9-9.3,2.3C576.5,1047.6,574.3,1049.8,581.1,1051.6z"/>
	<path opacity="0.3" fill="#091426" enable-background="new    " d="M574,1002c-9.4-4.8-8.6-8-11-7.9s-3.3,7.9,2.3,12.9
		s18,8.7,18,8.7c2.3-3.3,3.4-7,3.3-11C583.3,1004.9,578.8,1004.4,574,1002z"/>
	<path opacity="0.3" fill="#091426" enable-background="new    " d="M506,1136.2c-8.5-17.2-5.8-35.2-5.8-35.2s-9.5,8-10.4,26.5
		s5.8,23.4,5.8,23.4c-10.1,7.9-17.3,7.5-33-5c-15.7-12.6-7.3-33.7-3.5-39.8c3.8-6.1,4.9-7.9,3-9.9s-3.8-2.7-8.7,0.4
		s-18.9,9.2-35-5.8c-16-15-16-52.1,0-63.7c16-11.7,22.1-1.5,34.8,6.6s1.2-4.6-2.1-19.1c-3.3-14.5,9.1-37.7,24.1-51.6
		c15.1-13.9,36.4-8.2,36.4-8.2s-1.9-4-8.8-5.2c-6.4-1.2-13.1,0.9-13.9,1.2h-0.1c0,0,0,0,0.1-0.1c0-0.4,0-0.8,0.1-1.2
		c0-0.2,0-0.4,0-0.6c-2,1.2-3.4,1.9-3.4,1.9s-1.1-99.2-1-108.3c0.1-4.9,1.6-7.2,3.7-6c-0.2-1.1-0.5-1.9-0.7-2.4
		c-2.6-5-5.4-1.3-5.6,3c-0.2,4.1,0.9,52.5,0.1,110c-0.2,0-0.4-0.1-0.6-0.1c-9.9-1.2-26.2,11.2-26.2,11.2c-8.8-5.2-41.8,2.1-49,18.5
		s-6.2,26.8-6.2,26.8s-17.9,8.1-25.2,24.5c-7.3,16.4,4,23,4,23c-5.1,8.2,2,16.2,2,16.2c-5.4,10.9,4.8,16.2,4.8,16.2
		c-5.2,2.8-10.9,15.1,2.2,24.5s15.2,12.8,15.2,12.8c-7.5,13.6-7.4,30.9,7.2,37.2c14.6,6.3,22-6.8,22-6.8s2.2,2.1,8.2,1.5
		s7.5-3,7.5-3s22.8,30.8,40,28.8s20.5-16.2,20.5-16.2c5,1.9,10.4,1,15.2-0.8C519,1156.3,511.5,1147.3,506,1136.2z M419.4,1132.4
		c-7.7-9.5-5.8-19.8-5.8-19.8c11.6,1.6,19.5-0.4,19.5-0.4s-1.4,4.7-0.8,14.3c0.6,9.6,3.7,10.6,3.7,10.6S427.1,1141.9,419.4,1132.4z"
		/>
	<g>
		<path fill="#CABEF3" d="M1323.2,489.4c0,0.4,0,0.9,0.1,1.3c0.5,8.2,3.1,11.1-11.6,6.9c-15.4-4.4-52.6-11.9-110.7-20.8
			s-137.9-9.7-203.1-3.9c-65.2,5.9-150.6,22.6-203.7,44.1c-53,21.5-83,27.4-141.5,67.8c-58.5,40.4-83.6,74.5-89.5,87.5
			c-5.9,12.9-10.7,7.1-14.8,0.1l-0.1-0.1c0,0-2.7-4.4-1.7-5.8c2.3-3,8.8-16.8,34.2-42c25.5-25.2,57.8-50.2,112.3-80.7
			s120.2-49.9,162.6-62.6s162.5-29.6,215-28.8c52.5,0.8,154.4,4.1,195.9,15.6C1307.9,479.6,1322.9,480.1,1323.2,489.4z"/>
		<path fill="#CABEF3" d="M1320.9,371.8c-0.8,3.4-2.7,4.5-4.6,3.5c-2.9-1.4-40.5-13.2-59.9-18.5c-19.5-5.3-112.4-23.8-195.7-25.6
			c-83.3-1.8-173,8.3-278.9,40.7c-106,32.4-146.8,50.8-190.8,92c-44,41.1-62.7,79.3-66.8,88.8c-4.2,9.5-6.8,6.2-8.4-1.8
			c-0.1-0.6,0-1.8,0.5-3.6c3.3-13.5,23-59.1,68.7-101.1c51.8-47.5,110.1-69.6,186.7-94s167.8-43.6,292.1-43s217,26.4,236.7,35.2
			c19.7,8.7,19.8,12.3,20.6,20.9C1321.4,368,1321.3,370.2,1320.9,371.8z"/>
	</g>
	<path opacity="0.3" fill="#091426" enable-background="new    " d="M515.8,550.8c1.6,8,4.2,11.4,8.4,1.8
		c4.2-9.5,22.9-47.7,66.9-88.8s84.7-59.5,190.6-91.9s195.6-42.6,278.9-40.7s176.3,20.2,195.7,25.6c19.5,5.4,57.1,17.1,59.9,18.5
		c1.9,1,3.8-0.1,4.6-3.5c-44.7-29.5-113-31.8-171.5-40.9c-62.4-9.7-143.5-9.1-214.4,0.6c-70.9,9.6-143.3,26.7-226.5,58
		S603.6,443.9,578,467.4c-22,20.2-41,46.7-61.8,79.8C515.9,549,515.7,550.2,515.8,550.8z"/>
	<path opacity="0.3" fill="#091426" enable-background="new    " d="M563.1,672.3c5.9-13,31-47.1,89.5-87.5s88.5-46.3,141.5-67.8
		s138.5-38.2,203.7-44.1s145-5,203.1,3.9s95.3,16.4,110.7,20.8c14.7,4.2,12.2,1.3,11.5-6.9c-32.7-9.5-92.6-18.2-147-24.9
		c-79.6-9.9-170.5-6.6-224.7,1.8S775.6,503,702,546.6s-106.2,72.6-124.5,95.8s-18.9,24.6-22.2,25.2c-2.4,0.4-3.1,0.7-6.9,5
		C552.5,679.4,557.3,685.2,563.1,672.3z"/>
</g>
</svg>
