<?xml version="1.0" encoding="utf-8"?>
<!-- Generator: Adobe Illustrator 21.0.2, SVG Export Plug-In . SVG Version: 6.00 Build 0)  -->
<svg version="1.1" id="_x30_6_x5F_HeadGear_x5F_FirefighterHardHat__x28_FIR_x29_"
	 xmlns="http://www.w3.org/2000/svg" xmlns:xlink="http://www.w3.org/1999/xlink" x="0px" y="0px" viewBox="0 0 2000 2000"
	 enable-background="new 0 0 2000 2000" xml:space="preserve">
<g>
	<g>
		<g>
			<path fill="#A3A72E" d="M962.7,109l-9,5.7l-79.9,50.7L771,166.3c9.1-13.9,26.8-33.1,47.2-53.3C867.3,64.5,932.4,10.3,932.4,10.3
				s0.8-0.1,2.3-0.3L962.7,109z"/>
		</g>
		<path fill="#5E4D15" d="M770.9,166.4l102.8-0.9l79.9-50.7l-11.5-41.3c0,0-8.7-24.3-30.8-17.9c-22,6.4-25.5,22.2-38.9,35.8
			c-11.9,12-27,18.8-54.4,21.7C797.7,133.3,780,152.4,770.9,166.4z"/>
		<path fill="#F4C628" d="M1021.9,16.7l-2.5,39l-1,15.8l-0.1,2.2l-8,5.1l-4.3,2.7l-3.4,2.2l-40,25.3l-28-99
			c4.7-0.6,16.2-1.9,27.8-2.7c0.6,0,1.1-0.1,1.7-0.1c2.9-0.2,5.9-0.3,8.7-0.4c2.7-0.1,5.3-0.1,7.7-0.1c1.2,0,2.4,0.1,3.5,0.1
			c3.7,0.2,7.5,0.8,11.3,1.6C1009,11.3,1021.9,16.7,1021.9,16.7z"/>
		<path opacity="0.3" fill="#091426" enable-background="new    " d="M964.2,7.1c-0.6,0-1.1,0.1-1.7,0.1c-11.6,0.8-23,2.1-27.8,2.7
			l28,99l39.9-25.4l3.4-2.2c-4.8-9.8-14-28.5-20-38.6C979.9,32.6,969.4,15.5,964.2,7.1z"/>
		<path fill="#F4C628" d="M976.5,2.2l1.6,0.3c0-0.1-0.1-0.2-0.1-0.3H976.5z"/>
		<path opacity="0.35" fill="#E8FFFA" enable-background="new    " d="M972.8,6.7c-3.3,0.1-6.9,0.3-10.4,0.5
			c14.3,19.3,31.8,57.4,40.2,76.4l7.7-4.9C1004,66.3,993.2,45,986,32.5C979.3,20.8,975,11.8,972.8,6.7z"/>
		<path opacity="0.35" fill="#E8FFFA" enable-background="new    " d="M1019.4,55.7c-2.2-4.2-5.9-11.2-10.3-20.4
			c-5.3-11-10.9-21.6-13.8-26.9c-3.8-0.8-7.6-1.4-11.3-1.6c-1.1-0.1-2.2-0.1-3.5-0.1c11.2,20,28.3,48.8,37.9,64.9L1019.4,55.7z"/>
	</g>
	<g>
		<path fill="#CE2928" d="M1276.6,251.1c24,33.3,34.2,60.2,34.2,60.2l-16.3,2.2L1276.6,251.1z"/>
		<path fill="#8B1718" d="M1278.1,261.5c18,27,30,52,30,52h-21.5L1278.1,261.5z"/>
	</g>
	<g>
		<path fill="#8B1718" d="M873.7,429.4L547.6,600.7l-34.3-15.8c1.9-45.1,7.7-96.9,17.5-142.8c6-28.4,13.6-54.6,22.7-75.6
			c0,0-10.3-48-8.6-68.5c0.2-2.7,0.8-5.8,1.7-9.2c5.9-22.7,25.8-59.6,44.1-89c21.1-33.8,53.6-70.4,88.6-66.3
			c3.4,0.4,6.8,0.9,10.3,1.6c32.8,5.9,69.2,21.2,69.2,21.2s20.5-4.9,32.6-3.6c0,0,50.5-30.3,113.2-42.3c8.8-1.7,17.8-3,26.9-3.8
			C1005.9,99.8,873.7,429.4,873.7,429.4z"/>
	</g>
	<path fill="#64161C" d="M649.6,477.6l21.8-28.1l-2.9-55l69.5-11.1c0,0,70.5-88.4,0-98.4s-113.4-0.5-113.4-0.5s-32.6-9.2-42.1-13.5
		c-7.2-3.2-19.8-3.6-36,17.8c-0.9,3.4-1.5,6.5-1.7,9.1c-1.6,20.6,8.6,68.5,8.6,68.5c-9.1,20.9-16.6,47.1-22.6,75.6l107.6-41.3
		C642.7,438.1,649.6,477.6,649.6,477.6z"/>
	<g>
		<path fill="#CE2928" d="M1112.2,130.2c35.3-6.4,58.1-12.9,75.7-2.2c17.6,10.8,41.9,42.8,57.7,70.2S1112.2,130.2,1112.2,130.2z"/>
		<path fill="#8B1718" d="M1113.5,135.3c25-3.3,54.2,15.6,95.7,48.7c41.5,33.2,2.2-6-23.5-24.4c-25.7-18.5-52.7-28-52.7-28
			s39.5-5.1,43-4.8s23.9,16.9,37.9,33.9c13.9,17,34.8,54.9,34.8,54.9s-64.8-27.1-94.3-46.6S1113.5,135.3,1113.5,135.3z"/>
	</g>
	<g>
		<path d="M729.1,227.1c-4.3,4-12.6,13.2-14.6,16.1c-2,2.9,0.7-1.1,1.4,31s11.3,135.5,11.3,135.5s10.1-3.6,25.1-8.8l-17.1-177.5
			C732.6,224.2,731.4,225,729.1,227.1z"/>
		<path fill="#323232" d="M1234.7,190.4c-25-8.7-68.9-27.6-99-48.7s-71.3-59.2-77.3-66.3c-6-7.1-5.3-8.8-16.8-8.7
			c-4.4,0-19.2,0.4-36.1,0.9c33.5,119.7,53.1,218.2,61.1,261.9c26.5-3.1,48.9-5.2,61.3-5.4c37.4-0.5,128.1-8,158.6-10.6
			c-5.3-16.6-19.6-61.7-34.2-116.6C1247.7,195,1241.9,192.9,1234.7,190.4z"/>
		<path fill="#091426" d="M1270.3,207.5c-1.2-3.1-6-6-17.8-10.6c14.6,55,28.8,100.1,34.2,116.6c6.4-0.6,10.2-0.9,10.2-0.9
			C1284.9,258.1,1271.9,211.8,1270.3,207.5z"/>
		<path fill="#091426" d="M943.3,69.8c-3.3,0.6-2.7,4.7-6.8,10.9c-4.1,6.1-42.8,61.9-88.9,89.5s-84,44.9-98.9,49.3
			c-7.1,2.1-10.8,3-13.3,3.8l17.1,177.5c38.1-13.3,108-37.6,126.2-42.6c18.5-5,117.8-20.4,188.1-28.7c-8-43.7-27.6-142.2-61.1-261.9
			C978.1,68.4,945.3,69.5,943.3,69.8z"/>
	</g>
	<g>
		<path fill="none" d="M1250.6,212.2C1250.5,212.5,1250.5,212.5,1250.6,212.2L1250.6,212.2z"/>
		<path fill="none" d="M1268.1,259.6C1267.8,260,1268.1,260.1,1268.1,259.6L1268.1,259.6z"/>
		<path fill="#D8D8D8" d="M912.7,273.9c1-3.6-0.4-7.6-0.9-11.3c-0.5-3.4-0.8-6.9-2.3-10.1c-0.7-1.4-2.7-0.9-3.2,0.4
			c-1.2,3.6-0.8,7.5-0.3,11.2c0.4,3.4,0.4,7.5,2.5,10.3C909.7,276,912.2,276,912.7,273.9z"/>
		<path fill="#D8D8D8" d="M914.8,290c-0.3-1.2-2.2-1.6-2.8-0.4c-1.9,4.5-1.8,9.7-1.5,14.5c0.3,4.7,0.8,10.7,3.6,14.6
			c1.3,1.8,4.3,1.3,4.4-1.2c0.2-4.4-1.7-8.9-2.3-13.2C915.5,299.5,915.8,294.6,914.8,290z"/>
		<path fill="#D8D8D8" d="M908.8,236.9c-1.3-4-2.4-8-3.3-12.1c-0.8-3.5-0.7-7.4-2.4-10.6c-0.2-0.4-0.9-0.4-1.1,0
			c-1.7,3.4-1.2,7.6-0.9,11.2c0.3,4.4,1.1,8.6,2.4,12.9C904.1,241.6,910,240.5,908.8,236.9z"/>
		<path fill="#D8D8D8" d="M903,200.9c-1.1-5.6,0.3-12-1.6-17.4c-0.3-0.8-1.3-1-1.8-0.2c-2,3-2.4,7.4-2.5,10.9
			c-0.1,3.2-0.4,6.6,1.7,9.2C900.5,205.5,903.4,203.2,903,200.9z"/>
		<path fill="#D8D8D8" d="M924,162.6c-4,0-8.2,0-12.1,0.5c-2.9,0.4-5,1.7-6,4.6c-0.8,2.3,2.1,3.3,3.7,2.1c1.8-1.4,4.7-0.9,6.7-1
			c2.6-0.1,5.1-0.1,7.7-0.3C927.7,168.1,927.8,162.6,924,162.6z"/>
		<path fill="#D8D8D8" d="M963.9,156.7c-2,0.1-3.9,0.3-5.9,0.3c-1.9,0-3.6,0-5.5,0.7c-1,0.4-1.7,1.9-0.7,2.7
			c3.4,2.8,8.6,2.7,12.8,1.9C967.9,161.7,967.1,156.6,963.9,156.7z"/>
		<path fill="#D8D8D8" d="M1004.5,152.9c-3-0.4-5.9,0.3-8.7,1.4c-2,0.8-4.7,0.7-6,2.5c-0.4,0.5-0.2,1.2,0.2,1.6
			c1.5,1.7,3.8,1.9,5.8,1.5c3-0.6,5.5-1.3,8.7-1.1C1008.3,158.9,1008.1,153.4,1004.5,152.9z"/>
		<path fill="#D8D8D8" d="M1034.6,148.3c-3.8-0.5-8.3-0.6-11.7,1.5c-1.4,0.8-1.2,3.2,0.5,3.6c3.4,0.7,7,0.3,10.5,0.8
			C1038,154.8,1038.9,148.8,1034.6,148.3z"/>
		<path fill="#D8D8D8" d="M1063.1,146.9c-2.9,0.3-7.9,0.2-9.4,3.3c-0.3,0.6-0.2,1,0.2,1.5c2.1,2.7,6.9,1.4,9.7,1.1
			c2.3-0.3,7.6-0.2,7.3-3.8C1070.6,145.5,1065.2,146.6,1063.1,146.9z"/>
		<path fill="#D8D8D8" d="M1101.5,147.3c-3.2,0.2-6.3,0-9.5,0.4c-1.6,0.2-2.7,2.5-0.9,3.4c3.3,1.6,6.8,1.9,10.4,1.9
			C1105.2,153,1105.2,147.1,1101.5,147.3z"/>
		<path fill="#D8D8D8" d="M1122.5,149.5c-2.3,0-4.9-0.8-6.9,0.6c-0.8,0.6-0.8,2,0.3,2.2l0,0c1.1,1.3,2.8,2.1,4.4,2.5
			c1,0.2,2,0.2,3,0.3c0.8,0.1,1.5,0.3,2.3,0.3c1.5-0.1,3-1.6,2.4-3.2C1127.3,149.5,1124.9,149.5,1122.5,149.5z"/>
		<path fill="#D8D8D8" d="M1137.4,154.6c-1.5-0.7-3.8,0.9-2.6,2.6c1.1,1.6,2.5,2.6,4.1,3.7c1.5,1,2.4,2.4,3.8,3.4
			c1.6,1.2,4.4-0.4,4.2-2.4C1146.4,157.3,1140.9,156.3,1137.4,154.6z"/>
		<path fill="#D8D8D8" d="M1154.4,169.1c-0.8-1.4-3.2-0.9-3.1,0.9c0.1,3.1,2.2,16.2,7.7,13.9c2.3-1,1.2-4.3,0.4-5.8
			C1157.8,174.9,1156.2,171.9,1154.4,169.1z"/>
		<path fill="#D8D8D8" d="M1166.7,197.1c-0.5-1.2-2.1-0.8-2.7,0c-2.1,3.1-1,8.8,1,11.7c0.5,0.8,1.4,1.4,2.3,1.3c0.2,0,0.5,0,0.7-0.1
			c1.2-0.5,1.9-1.3,2-2.6c0.2-1.9-0.8-3.8-1.5-5.5C1167.9,200.3,1167.3,198.6,1166.7,197.1z"/>
		<path fill="#D8D8D8" d="M1177.1,231.2c-0.8-2.2-1.2-4.6-2.4-6.7c-0.5-0.9-2.1-1-2.6,0c-1.3,2.7-0.8,5.8-0.1,8.7
			c0.6,2.7,1.4,6.2,3.2,8.5c2.6,3.4,7.4-0.2,4.7-3.6C1178.5,236.3,1177.8,233.2,1177.1,231.2z"/>
		<path fill="#D8D8D8" d="M1188.5,274.9c1.1-2.7,0.2-4.9-0.4-7.6c-0.7-3-1.6-6-2.5-8.9c-0.7-2-3.7-1.7-3.8,0.5
			c-0.1,3,0.1,5.8,0.5,8.8c0.4,2.7,0.4,5.8,2.5,7.7C1185.9,276.3,1187.9,276.4,1188.5,274.9z"/>
		<path fill="#D8D8D8" d="M1191.1,284.9c-0.7-3-4.7-2-5,0.7c-0.5,4.5,0.5,9.2,1.4,13.6c0.7,3.5,5.6,2.4,5.9-0.8
			c0.1-1.1-0.1-2.3-0.6-3.3C1192.2,291.7,1191.8,288.2,1191.1,284.9z"/>
		<path fill="#D8D8D8" d="M1189.3,177c-0.5-1.7-3.3-3.2-4.6-4.2c-2.2-1.7-4.6-3.3-7.4-3.8c-2.2-0.4-3.8,2.1-2.2,3.8
			c1.7,1.8,3.7,3.1,5.7,4.5c1.8,1.3,3.3,3.3,5.7,3.4C1188.4,180.7,1189.8,178.8,1189.3,177z"/>
		<path fill="#D8D8D8" d="M1216.9,191.4c-2.6-1.3-5.3-1.8-7.9-2.8c-0.9-0.4-1.7-1-2.7-1.4c-1.3-0.5-2.6-0.4-4-0.7
			c-1.7-0.3-3.2,1.7-1.8,3.1c0.8,0.8,1.7,1.3,2.7,1.8c1.1,0.6,1.9,1.4,2.9,2c2.3,1.4,5.3,1.9,7.7,3.1
			C1217.3,198.2,1220.3,193,1216.9,191.4z"/>
		<path fill="#D8D8D8" d="M1234.7,198.8c-1.2-0.3-2.2,0.1-2.9,0.9c-0.8,0.3-1.5,1-1.4,2c0.2,3.7,5.1,5.7,8.2,6.4
			c3,0.7,4.7-2.7,2.9-5C1239.8,200.9,1237.4,199.5,1234.7,198.8z"/>
		<path fill="#D8D8D8" d="M1255.1,211.1l-0.1-0.1c-0.3-0.7-0.7-1.4-1.2-2c-0.6-0.7-1.8-0.8-2.5-0.5c-0.9,0.4-1.3,1.2-1.4,2.1
			c-0.1,1.3,0.2,2.5,0.5,3.8c0.5,1.9,3.4,2.9,4.7,1.2c0.4-0.5,0.7-1,1-1.6c0.4-1-0.1-2-0.7-2.7
			C1255.2,211.1,1255.2,211.1,1255.1,211.1z M1250.6,212.2L1250.6,212.2C1250.5,212.5,1250.5,212.5,1250.6,212.2z"/>
		<path fill="#D8D8D8" d="M1268.4,237.3c-0.1-2.3-0.9-4.7-1.6-6.9s-1.5-3.8-3.1-5.5c-0.8-0.8-2.1-0.4-2.4,0.6
			c-0.6,2.2-0.5,4.1-0.1,6.4c0.4,2.3,0.9,4.7,1.9,6.7C1264.4,241.2,1268.4,240,1268.4,237.3z"/>
		<path fill="#D8D8D8" d="M1273.2,254.8c-0.1-0.5-0.4-1-0.8-1.3c-0.1-0.2-0.1-0.4-0.2-0.6c-0.7-1.8-3.2-2.5-4.3-0.6
			c-1.5,2.7-1.1,6.5-0.8,9.4c0.2,2.2,2.4,3.8,4.5,2.6C1275,262.3,1274,257.9,1273.2,254.8z M1268.1,259.6
			C1268.1,260.1,1267.8,260,1268.1,259.6L1268.1,259.6z"/>
		<path fill="#D8D8D8" d="M1278,278.1c-0.5-2.4-1.1-4.8-1.8-7.1c-1-3.4-5.6-2.5-5.9,0.8c0,0.3,0,0.6,0,0.9c-0.5,3.3,0.1,6.9,3.2,8.7
			C1276,282.8,1278.5,280.5,1278,278.1z"/>
		<path fill="#D8D8D8" d="M1280.6,292.3c-0.8-2-1.1-4.2-1.8-6.2c-0.6-1.6-2.4-1.8-3.4-0.4c-1.8,2.4-1.5,5.6-0.5,8.2
			c0.6,1.5,2,2.5,3.7,2.1C1280,295.5,1281.2,293.8,1280.6,292.3z"/>
		<path fill="#D8D8D8" d="M1052.8,80c-1.8,0.1-3.5,0.3-5.3,0.7c-1.9,0.5-2.1,3.1-0.5,4c2,1.3,4.2,1.5,6.6,1
			C1056.8,85.2,1056.1,79.8,1052.8,80z"/>
		<path fill="#D8D8D8" d="M1069.2,99.9c-1.1-0.9-3.8-4-5.4-2.5c-1.7,1.6,1.3,4.8,2.2,6c1.9,2.5,3.9,4.7,6.3,6.8
			c2.9,2.5,7.1-1.8,4.2-4.2C1074.1,103.9,1071.6,101.9,1069.2,99.9z"/>
		<path fill="#D8D8D8" d="M1105.7,128.7c-2.8-1.8-5.5-3.4-8.2-5.3c-2.3-1.6-4.3-3.5-7.1-3.8c-1.2-0.1-2.2,1.3-1.9,2.5
			c0.9,2.8,3.3,4.4,5.6,6.1c2.7,2.1,5.6,4.2,8.7,5.6C1106.1,135.3,1108.9,130.8,1105.7,128.7z"/>
		<path fill="#D8D8D8" d="M1133.7,144.8c-3.8-1.4-7.1-3.3-10.7-5c-1.5-0.7-3.2,0.5-2.8,2.2c1.1,5.1,7.7,6.9,12,8.6
			C1135.7,152,1137.3,146.2,1133.7,144.8z"/>
		<path fill="#D8D8D8" d="M1038.8,77.4c-1.2-0.1-2.7,0.1-4,0.7c-0.8,0.1-1.6,0.2-2.5,0.2c-0.9,0.1-1.7,0.2-2.6,0.4
			c-0.7,0.2-1.4,0.6-2,0.7c-1.3,0.2-1.3,2-0.3,2.6c0.7,0.5,1.1,1,2,1.4c1.1,0.5,2.1,0.7,3.3,0.8c0.8,0,1.5,0,2.3-0.1
			c0.3,0,0.6,0,0.9-0.1c1.3-0.2,2.5-0.4,3.7-0.7C1042.9,82.3,1042.1,77.5,1038.8,77.4z"/>
		<path fill="#D8D8D8" d="M1012.5,79.8c-1.8-0.1-14.9-0.9-12.5,3.6c1,1.8,3.3,2,5.2,2.2c2.4,0.2,4.9,0.2,7.3,0.1
			C1016.3,85.5,1016.2,80.1,1012.5,79.8z"/>
		<path fill="#D8D8D8" d="M981.9,80.2c-2-0.4-4.1-0.6-6.1-0.4c-2.1,0.2-3.8,1-5.6,2c-2.2,1.2-0.7,4.5,1.6,3.9c1.5-0.4,3.1-0.1,4.6,0
			c1.6,0.1,3.1,0.3,4.7,0.4C984.3,86.2,985.1,80.8,981.9,80.2z"/>
		<path fill="#D8D8D8" d="M955,89.4c1.6-0.4,2.5-2.2,2.1-3.7c-0.5-1.6-2.1-2.4-3.7-2.1c-2.3,0.5-4.6,1.8-6.1,3.5
			c-0.9,1-1.7,2.1-1.9,3.5s0.6,3.5,2.4,3.4c2-0.2,2.6-1.7,3.9-2.9C952.7,90.2,953.7,89.7,955,89.4z"/>
		<path fill="#D8D8D8" d="M945.2,101c-0.7-0.7-1.9-1.1-2.9-0.8c-2.3,0.9-3.9,3-5.4,4.9c-1.2,1.6-3.2,4.4-2.4,6.6
			c0.4,1,1.3,1.6,2.4,1.4c1.8-0.4,3-2.5,4-3.9c0.6-0.7,1.1-1.3,1.8-2c0.3-0.3,0.7-0.6,1-1c0.1-0.1,0.3-0.2,0.4-0.4
			c-0.3,0.1-0.3,0.1,0.1,0c2-0.5,2.8-3.3,1.2-4.7C945.3,101.1,945.3,101.1,945.2,101z"/>
		<path fill="#D8D8D8" d="M913.4,136.9c3,0.2,3.9-2.6,5.7-4.5c1-1.1,1.9-2.2,3.3-2.7c1-0.4,1.8-0.9,2.5-1.7c1.4-0.8,2.3-2.6,1.2-4.1
			c-0.1-0.1-0.2-0.3-0.3-0.4c-1.2-1.5-4.2-2.3-5.1,0c-0.4,0.9-1.5,0.9-2.4,1.6c-1.1,0.9-1.8,2.1-2.6,3.2c-0.8,1.2-1.7,2.3-2.1,3.7
			c-0.3,0.8-0.3,2.5-0.9,3C911.9,135.7,912.5,136.8,913.4,136.9z"/>
		<path fill="#D8D8D8" d="M887.2,150.7c-4.1,4.5-9.6,7.2-13.2,12.2c-0.5,0.7-0.5,1.7-0.2,2.6c-0.4,1.8,1.5,3.8,3.5,2.6
			c3.3-2,6.3-4.5,9.3-7c2.6-2.1,4.7-4.2,5.6-7.5C893,150.8,889.2,148.5,887.2,150.7z"/>
		<path fill="#D8D8D8" d="M853.2,182.4c-2.3-1.6-5,0.1-7,1.4c-2.3,1.5-4.5,3.2-6.5,5.1c-1.6,1.5-0.9,4.4,1.3,5
			c0.2,0.1,0.4,0.1,0.7,0.2c0.1,0,0.2,0.1,0.4,0.1c1.3,0.2,2.4-0.5,2.9-1.5c1.3-0.9,2.7-1.6,4.1-2.2c2.2-0.9,3.9-1.8,5.3-3.8
			C855.3,185.1,854.5,183.3,853.2,182.4z"/>
		<path fill="#D8D8D8" d="M826.9,202.8c-2.9-1-5.5,0.8-7.9,2.3c-2.7,1.6-5.2,3.5-7.4,5.8c-0.3,0.3-0.4,0.6-0.6,0.9
			c0,0-0.1,0-0.1,0.1c-0.1,0.2-0.3,0.3-0.4,0.5c-1.3,1.4-0.3,3.4,1.5,3.5c0.2,0,0.5,0,0.7,0l0.1,0.1c1.5,0.9,3,0.2,3.7-1
			c1.8-0.7,3.5-1.7,5-2.5c2.8-1.4,5.4-2.7,7.1-5.4C829.8,205.5,828.7,203.4,826.9,202.8z"/>
		<path fill="#D8D8D8" d="M788,222.2c-5,0.4-9.3,1.3-13.9,3.2c-3.6,1.5-6.6,2.4-6.9,6.6c-0.1,1.3,1.5,1.7,2.4,1
			c0.6-0.5,2.2-0.6,3-0.8c1.9-0.6,3.7-1.4,5.5-2.1c3.5-1.3,7-1.5,10.7-2.2C792,227.4,791.3,222,788,222.2z"/>
		<path fill="#D8D8D8" d="M752.3,247.7c0.9-0.3,1.9-1,2.1-2.1c0.3-1.9,0.3-3.6-0.1-5.4c-0.5-2.3-4.2-2.4-4.7,0
			c-0.3,1.2-0.6,2.4-0.8,3.7c-0.2,1.2-0.1,2.2,0.8,3.1C750.2,247.7,751.3,248,752.3,247.7z"/>
		<path fill="#D8D8D8" d="M756,275.6c-1.6-1.7-0.4-6.1-0.4-8.2c0-2.3-0.1-4.9-2.1-6.5c-0.5-0.4-1-0.4-1.5,0c-2.8,2.3-2.2,7-2.4,10.3
			s-0.1,6.2,2.2,8.7C754.5,282.6,758.7,278.4,756,275.6z"/>
		<path fill="#D8D8D8" d="M762.7,307.8c-0.6-2.4-1.6-4.7-2.2-7.1c-0.6-2.4-1-4.7-1.7-7.1c-0.5-1.7-2.8-1.6-3.4,0
			c-1.8,4.9-0.9,12,2.2,16.4C759.4,312.4,763.5,311,762.7,307.8z"/>
		<path fill="#D8D8D8" d="M769.7,343.9c-2.4-4.4-3.6-9.5-4.7-14.4c-0.4-1.8-3.4-1.9-3.7,0c-1.1,6.2,0.4,11.8,3.3,17.4
			C766.3,350.4,771.9,347,769.7,343.9z"/>
		<path fill="#D8D8D8" d="M773.5,375.1c-1-4.4-1.5-9-3.8-12.8c-0.7-1.1-2.2-0.8-2.7,0.3c-1.9,5.1-0.2,10.8,1.2,16
			c0.7,2.8,5.1,2.9,5.8,0c0.1-0.2,0.1-0.5,0.2-0.7C774.4,376.9,774.1,375.8,773.5,375.1z"/>
	</g>
	<g>
		<path fill="#8B1718" d="M1182.8,307.4c-8.1-50.4-33.4-122.9-38-131.4s-9.8-12.5-34.8-13.8s-69.1-3.6-108.8,2.2s-69.4,8.5-77,11.5
			s-9.4,1.1-8,23.2s17,131.8,17,131.8L1182.8,307.4z"/>
		<path fill="#D8D8D8" d="M973.4,329.8c-9.6-72.3-13.6-95.2-13.4-108.5c0.2-13.3,8.8-16.7,28.7-18l-5-23c0,0,40.2,13.7,72.7,34.3
			l-52.3,55.3L994,220l-14.6,2.6c-1.7,0.3-2.7,1.9-2.3,3.6l26.6,103.7h-30.3V329.8z"/>
		<g>
			<path fill="#D8D8D8" d="M1135.3,307.4l-23.7-62.8c17.2-2.5,23.3-21.1,9.9-39.7s-38.8-19.5-47-13.5s-8.6,24.8,0,37.7
				s24.5,16,24.5,16s5.2,61.9,5,62.3H1135.3z M1091.1,231.7c-10-5.7-12.7-12-12.2-23.4s15.4-16.4,28.5-4.3c13.1,12,12.5,23,5.9,26.8
				C1106.7,234.6,1097.8,235.5,1091.1,231.7z"/>
		</g>
	</g>
	<g>
		<path fill="#CE2928" d="M904.5,110.5c-7.7,3.2-18.2,7.6-30.2,12.8c-7.8,3.3-16.3,7-25.1,10.9c-48,21.1-105.5,48.2-118.5,62.2
			c-23.3,25-31.3,44.7-45.8,105.4c-14.4,60.8-11.6,74.6-5.7,148.9l-7.7,9c0,0-12.8-29.5-13.1-70.2s-2.2-86.5,6.3-121.1
			c2.2-9.1,4.6-17.4,7.1-25c7-21.4,15.1-37,23.9-47.3c11.4-13.4,24.9-22.6,25.9-23.3c-1.3,0.7-23,12-34.9,17.6
			c-12.3,5.8-18.5,15.5-22.7,27.7s-10.7,39-10.7,39s-15.5,18.2-32.7,53.4c-17.1,35.2-26.5,69.1-35.3,132.9
			c-8.9,63.8,0.3,91.3,0.3,91.3l-19.3,23.7c0,0-13.7-39-9-102.7s10.3-101.7,16.2-115c5.8-13.3,4.3-26.7,3.5-36s-8.8-23.2,2.7-42.7
			c4.7-8,15-25.6,26.9-44.8c16.9-27.3,37.2-58,49.8-69.6c9.4-8.6,21.9-11.7,33.1-12.5c32.8,5.9,69.2,21.2,69.2,21.2
			s20.5-4.9,32.6-3.6c0,0,27.4-16.4,66.8-29.8C872.2,118.1,887.9,113.6,904.5,110.5z"/>
	</g>
	<path fill="#FC9779" d="M858.1,122.9c-39.4,13.5-66.8,29.8-66.8,29.8c-12.1-1.3-32.6,3.6-32.6,3.6S722.3,141,689.5,135
		c-11.2,0.8-23.7,4-33.1,12.5c-12.6,11.6-32.9,42.2-49.8,69.6c31.9-39.2,40.9-56.2,50.1-63.5c9.2-7.3,29.1-14.8,45.6-11.4
		c16.5,3.4,52.4,18,52.4,18s-14.1,2.8-32.9,12.4c0,0-14.2,9.3-26,23.3c-8.7,10.3-16.8,25.9-23.9,47.3c6.7-11.8,15.5-27.1,19.8-33.8
		c7.5-11.6,23-23.9,38.8-31.8s54.4-19.1,75.6-27.9c10-4.2,27.5-10.4,43.2-15.7c8.8-3.9,17.2-7.5,25.1-10.9
		C870,123.2,864.3,123.1,858.1,122.9z"/>
	<path fill="#EFF476" d="M800,786.3c-2.2-27.5-8-49.8-13.2-104.2c-4.1-42.6-1.7-96.1,1.3-145.7c0.8-13.6,1.7-27,2.5-39.8
		c0,0-55.8,11.7-105.3,33.7s-107.5,69.3-124.9,100.5C543,662,537.6,745.6,537.6,745.6l21.7,14.4c1.7,24-24.6,111.6-27.1,125.3
		s-5.2,26.7,3.7,31.3c0.1,0,0.2,0.1,0.2,0.1c0.6-2.9,1.6-5.7,2.8-8.4c-0.3-1.2,0-2.8,0.8-4.9c5.5-14.5,18.1-11,51.3-8.5
		s78.1-0.2,104-8.3c0-0.1,0-0.1,0-0.1c27.7-8,64-34.2,81-47.6C793,825.6,802.2,813.8,800,786.3z"/>
	<path fill="#A3A72E" d="M685.3,530.3c-49.5,22-107.5,69.3-124.9,100.5C543,662,537.6,745.6,537.6,745.6l21.7,14.4
		c1.7,24-24.6,111.6-27.1,125.3s-5.2,26.7,3.7,31.3c0.1,0,0.2,0.1,0.2,0.1c0.3-1.5,0.8-3,1.3-4.5c-8.7-11.3,2.7-27.7,14.3-74.6
		c15.1-61.3,16.3-95.3,16.3-95.3l6-8c0,0,2.2,37,1.7,57.3s1,79.2,4.3,72.3c3.3-6.8,1.3-35.2,3.7-66.3c2.3-31.2,6.7-91.3,6.7-91.3
		l14-21.7l4.4,94.7l9-45v-65.7c25.5-34.3,67.3-61.1,67.3-61.1s56.1-45,103.1-71.1c0.8-13.6,1.7-27,2.5-39.8
		C790.7,496.7,734.8,508.3,685.3,530.3z"/>
	<path fill="#664A32" d="M679.2,527.8c16.6,57.8,18.2,103.1,20,179.2c1.9,76.1,1.6,113.8-10,119.6s-46.4-2.3-46.4-2.3l22.8-290.9
		L679.2,527.8z"/>
	<path fill="#595959" d="M692.9,827.3c-1.4,5.3-20.4,50.7-20.4,50.7s1.3,1.1,3.1,2.5c3,2.5,7.4,6,8.1,6.7c1.1,1,3.2,53.1,3.4,56.8
		c0,0.1,0,0.2,0,0.2s-41,14.8-45.2,15.2c-4.2,0.5-9.3-4.4-18.3-10.9v-0.2l-5.1-54.1l8.1-8.4c0,0-21.7-28.7-23.8-32.1
		c-2.1-3.4-2.1-4.4-2.8-19.5c-0.5-10.9-1-18.5-1.2-22c-0.1-1.2,0.7-2.4,1.8-2.8c20.7-6.8,74.4-19.6,76.6-20.2c0.4-0.1,1,0.1,1.9,0.4
		c4.4,1.8,14.1,8.5,14.1,8.5S694.3,822,692.9,827.3z"/>
	<path fill="#323232" d="M641.8,959.3c4.2-0.5,45.3-15.2,45.3-15.2s0-0.1,0-0.2l-14.3-10.1c0,0-18.9,3.5-49.3,14.5v0.2
		C632.5,954.9,637.6,959.8,641.8,959.3z"/>
	<path fill="#323232" d="M659.9,879.1c0,0,9.8,0.8,15.7,1.3c-1.7-1.4-3.1-2.5-3.1-2.5s19-45.4,20.4-50.7s0-29.3,0-29.3
		s-9.6-6.7-14.1-8.5c1.5,16.8,2.3,37.8,2.3,37.8L659.9,879.1z"/>
	<path fill="#323232" d="M615.3,837.8c-0.9,6-3.3,7.3,5.2,6.6s43-3.7,43-3.7l0.6-2.5l-37-6.3L615.3,837.8z"/>
	<path fill="#EFF476" d="M620.1,835.8c0.4,5.3-2.6,7.8,7.8,7.1s36.2-4.7,36.2-4.7l1.5-8.6L620.1,835.8z"/>
	<path fill="#C09048" d="M675.2,736.8c-2.3,8.6-4,16.3-5.3,23.4c-4.1,23.4-3.2,39.7-3.3,55.2c-0.1,20.2-1.5,18.6-1.5,18.6
		s-43.7,6.9-48.9,5.8c-4.9-1-8.9-26.7-10.5-47.3c-0.1-1.5-0.2-2.9-0.3-4.3c-1.2-17.5,1.8-55.9,16.2-82.5
		c14.3-26.7,16.8-34.3,20.5-55c1.5-8,1.8-12.8,1.7-17.2c-0.2-6.8-1.7-12.4-2.2-27.5c-0.7-24.7-6.5-32-6.5-32l44.8-27
		c0,0,3.6,24.4,6.5,52c1.6,15.2,2.9,31.4,3.2,44.9C690.4,681.8,685.2,699.8,675.2,736.8z"/>
	<path opacity="0.3" fill="#091426" enable-background="new    " d="M616.2,839.8c5.2,1.1,48.9-5.8,48.9-5.8s1.3,1.6,1.4-18.6
		c0.1-15.5-0.8-31.7,3.3-55.2c-14.2,7.1-37.7,18.9-64.2,32.3C607.3,813.1,611.3,838.8,616.2,839.8z"/>
	<path opacity="0.3" fill="#091426" enable-background="new    " d="M679.8,547L635,574c0,0,5.8,7.3,6.5,32
		c0.4,15.1,1.9,20.7,2.1,27.5c14.9-13.5,32.3-26.9,42.6-34.6C683.5,571.4,679.8,547,679.8,547z"/>
	<path fill="#EFF476" d="M1369,848.3c-4.7-13.9-29.4-57.3-38.8-78.9c-6.1-14.1-18-54.9-25.8-89.6c-4.1-18.4-7.1-35-7.5-45
		c-1.2-29-7.7-144.8-7.7-144.8l-14.8-9.8c0,0,1.6,61,1.1,97.5c1,21.2,2.5,41.2,4.3,60.1c4.3,44.9,10.7,83.3,17.7,115.5
		c14.1,65.2,27.3,95.7,27.3,95.7s8.8-2.5,27.9,0c14.1,2,17.8,5.5,15.9,15.2C1370.5,860,1370.9,854.8,1369,848.3z"/>
	<path opacity="0.3" fill="#091426" enable-background="new    " d="M1289,490l-14.8-9.8c0,0,1.5,61,1.1,97.5
		c1,21.2,2.5,41.2,4.3,60.1c4.9,8.1,13.7,22.8,24.6,41.8c-4.1-18.3-7.1-35-7.5-45C1295.5,605.8,1289,490,1289,490z"/>
	<path opacity="0.3" fill="#091426" enable-background="new    " d="M1274.2,480.2c-0.8,34.9-0.4,67.4,1.1,97.5
		C1275.8,541.2,1274.2,480.2,1274.2,480.2z"/>
	<path fill="#A3A72E" d="M1279.6,637.9c-1.8-18.9-3.3-38.9-4.3-60.1c0,1.2,0,2.3-0.1,3.5c-0.1,7.9-0.5,16.6-1,25.8l1.1,23.8
		C1275.3,630.8,1276.8,633.3,1279.6,637.9z"/>
	<path fill="#CE2928" d="M323.6,669.3l1.4-36c-11.4,5-12.4,9.7-13.8,16.2c-1.2,5.7-1.1,17.1,0.6,29
		C317.6,670.4,323.6,669.3,323.6,669.3z"/>
	<path fill="#CE2928" d="M869.4,383.3c21.8-5.5,47.5-10.8,79.9-16.8c117.3-21.5,150.5-23.8,256.9-29.5c22.3-1.2,42.7-1.3,61.5-0.5
		l-27.8-37.6c-27.2-1.1-56.2-1.3-87.2-0.3c-130.6,4-188.5,11.8-294.2,44.8l1.1,38.1C859.5,381.4,863.1,382.1,869.4,383.3z"/>
	<path fill="#CE2928" d="M1306.9,310.1l-10.1-1.4l26,33.1c3.8,0.6,7.5,1.2,11.2,1.9L1306.9,310.1z"/>
	<path fill="#CE2928" d="M1464.2,384.7l-29-45.9c-62.2-22.2-121.6-28.4-121.6-28.4s19.1,23,28.3,34.7c34.2,6.7,63.2,16.4,91.6,26.3
		C1444.9,375.4,1455.1,379.9,1464.2,384.7z"/>
	<path fill="#CE2928" d="M1499.7,408.7c15.2,13.2,24.6,26.2,30.3,35.3c6.2,9.8,8.6,19.4,9.5,26.1c3.3-7.2,3.2-20.9,2-41.8
		c-1.3-22.4-8.1-40.4-10.2-46.8l-65.3-31.2L1499.7,408.7z"/>
	<path fill="#CE2928" d="M447.8,630.9c0.5-7.5,1.5-15.3,3.1-23.4l2.4-13.6c-41.5,14.2-85.3,26.4-106.2,32.3l-0.9,32.5
		C346.2,658.7,405.2,641.7,447.8,630.9z"/>
	<path fill="#8B1718" d="M1539.5,470.1c-0.6,1.3-1.3,2.4-2.1,3.2c-5.3,5.8-32.4,46-89.4,85.4c-57.1,39.4-112.5,70.5-151.3,76
		c0,0-0.4-2.1-1.1-5.7c-0.1-0.5-0.2-1-0.3-1.6l-0.7-3.4c-3.1-16.5-8.5-48.7-8.5-71.3c0.1-31.7-1.2-48.2-2.7-54.3s-15.8-11.8-50-19.4
		c-34.2-7.5-96.6-21.1-233.3-11.6S778,512.9,720,533.4c-75.5,26.7-133.3,81.2-150.9,121.6c-17.6,40.4-8.7,105-8.7,105
		s-15.7,1.5-44.1-0.6c-11.9-0.9-26.1-2.4-42.3-4.9c-54.8-8.6-123.1-24.8-137-30.2c-13.8-5.4-16-10.5-21.3-27.4
		c-1.8-5.8-3.2-12.1-4-18.3c5.8-8.3,11.8-9.3,11.8-9.3l1.4-35.9c3.7-1.6,8.4-3.3,14.6-5.1c2-0.6,4.6-1.3,7.6-2.2l-0.9,32.5
		c0,0,59-17,101.6-27.8c2.9-0.7,5.7-1.4,8.4-2.1c17.9-4.4,38.9-11.6,60.2-21.2c10.5-4.7,21-10.1,31.2-16c2.4-1.4,4.8-2.8,7.2-4.3
		c2.2-1.4,4.5-2.8,6.7-4.2c13.5-8.8,26.1-18.6,37.1-29.3c9.1-8.9,17-17.7,24.8-26.4c4.4-5,8.8-9.9,13.3-14.9
		c1.9-2.1,3.8-4.1,5.7-6.2c20.2-21.5,44.2-43,86.5-65.5c23.9-12.7,43.1-22.8,62.4-31.3c1.4-0.6,2.9-1.3,4.3-1.9
		c1.7-0.7,3.3-1.4,5-2.1c0.7-0.3,1.4-0.6,2.1-0.9c1.7-0.7,3.4-1.4,5.1-2c18.2-7.2,37.5-13.4,61.6-19.5c21.8-5.5,47.5-10.8,79.9-16.8
		c117.3-21.5,150.5-23.8,256.9-29.5c22.3-1.2,42.7-1.3,61.4-0.5c20,0.8,38.2,2.7,55.1,5.3c3.8,0.6,7.5,1.2,11.2,1.9
		c2.7,0.5,5.3,1,7.9,1.5c34.2,6.7,63.2,16.4,91.6,26.3c11.4,4,21.6,8.5,30.7,13.3c14.4,7.6,26.1,15.8,35.5,24
		c15.2,13.2,24.6,26.2,30.3,35.3C1536.2,453.9,1538.6,463.4,1539.5,470.1z"/>
	<path fill="#CE2928" d="M795.6,407.7c1.1-11.1,3.2-32.8,4.4-43.5c-1.4,0.6-2.7,1.1-4.1,1.7l-4.7,43.7
		C792.7,409,794.2,408.4,795.6,407.7z"/>
	<path fill="#CE2928" d="M598.6,553.8c9.1-8.9,17-17.7,24.8-26.4c0.3-10.2,0.8-24.7,1.2-35c-19.7,20.2-38.1,34.7-59.6,48.6
		l-3.5,42.1C574.9,574.4,587.6,564.6,598.6,553.8z"/>
	<path fill="#CE2928" d="M447.8,630.9c2.9-0.7,5.7-1.4,8.4-2.1c17.9-4.4,38.9-11.6,60.2-21.2c3.5-11.1,9.5-29.5,15.7-46.9
		c-1.7,1-3.4,1.9-5.1,2.9c-18.3,10.2-45.4,20.7-73.6,30.4l-2.4,13.6C449.3,615.6,448.3,623.4,447.8,630.9z"/>
	<path fill="#CE2928" d="M554.8,587.3c0.9-10.8,2.6-29.6,4.4-42.6c-1.9,1.2-3.9,2.4-5.9,3.6c-1.4,11.4-4.2,32.3-5.7,43.2
		C550,590.2,552.4,588.8,554.8,587.3z"/>
	<path fill="#CE2928" d="M642.4,506.4l3.6-37.5c-0.4,0.5-0.8,1-1.3,1.4c-2.2,2.5-4.3,4.9-6.4,7.3l-1.6,35
		C638.6,510.5,640.5,508.5,642.4,506.4z"/>
	<path fill="#CE2928" d="M812.6,359.2l-4.9,43.5c18.2-7.2,37.5-13.4,61.6-19.4c-6.3-1.1-9.8-1.8-9.8-1.8l-1.1-38.1
		c-1.3,0.4-2.6,0.8-3.9,1.2C839.7,349.2,825.8,354.1,812.6,359.2z"/>
	<path fill="#CE2928" d="M802.7,404.7l4.9-43.6c-0.7,0.3-1.4,0.6-2.1,0.8l-4.9,43.6C801.3,405.3,802,405,802.7,404.7z"/>
	<path fill="#FC9779" d="M553.3,548.3c-6.7,4-13.7,8.1-21.2,12.3c-6.2,17.4-12.2,35.8-15.7,46.9c10.5-4.7,21-10.1,31.2-16
		C549.1,580.6,551.9,559.8,553.3,548.3z"/>
	<path fill="#FC9779" d="M561.4,583.1l3.5-42.1c-1.9,1.2-3.8,2.4-5.8,3.7c-1.8,13-3.5,31.8-4.4,42.6
		C557,585.9,559.3,584.5,561.4,583.1z"/>
	<path fill="#8B1718" d="M636.7,512.6l1.6-35c-4.7,5.3-9.3,10.2-13.8,14.8c-0.3,10.3-0.8,24.9-1.2,35
		C627.8,522.5,632.2,517.5,636.7,512.6z"/>
	<path fill="#8B1718" d="M692.1,425.4l50.9-33.7C723.7,402.5,706.9,413.8,692.1,425.4z"/>
	<path fill="#8B1718" d="M728.9,440.9c23.9-12.7,43.1-22.8,62.4-31.3l4.7-43.7c-19.5,8.2-37,16.8-52.9,25.7l-50.9,33.7
		c-18.2,14.3-33.4,28.9-46.1,43.5l-3.6,37.5C662.7,484.9,686.6,463.5,728.9,440.9z"/>
	<path fill="#8B1718" d="M800.6,405.6l4.9-43.6c-1.8,0.7-3.7,1.5-5.5,2.2c-1.2,10.6-3.3,32.4-4.4,43.5
		C797.3,407,798.9,406.3,800.6,405.6z"/>
	<path fill="#8B1718" d="M807.8,402.7l4.9-43.5c-1.7,0.7-3.4,1.3-5.1,2l-4.9,43.6C804.4,404.1,806.1,403.4,807.8,402.7z"/>
	<path fill="#FC9779" d="M1448.2,336.6c-51.2-20.2-119.8-34.1-208.4-37.7l27.8,37.6c20,0.9,38.2,2.7,55.1,5.3l-26-33.1l10.1,1.4
		l27.1,33.6c2.7,0.5,5.3,1,7.9,1.5c-9.3-11.7-28.3-34.7-28.3-34.7s59.4,6.1,121.6,28.4l29,45.9c14.4,7.6,26.1,15.8,35.5,24
		l-33.7-58.4l65.3,31.2c-0.2-0.6-0.4-1.1-0.5-1.5C1529.7,375.5,1515.2,363,1448.2,336.6z"/>
	<path fill="#64161C" d="M1291.7,381.4c-67.4-0.4-157.7,22.1-238.2,22.1c-66.3,0-154.8-15-184.1-20.3c-24.1,6-43.4,12.2-61.6,19.4
		c-1.7,0.7-3.4,1.4-5.1,2c-0.7,0.3-1.4,0.6-2.1,0.9c-1.7,0.7-3.3,1.4-5,2.1c-1.4,0.6-2.9,1.3-4.3,1.9c-19.2,8.5-38.5,18.6-62.4,31.3
		c-42.3,22.5-66.3,44-86.5,65.5c-1.9,2.1-3.8,4.1-5.7,6.2c-4.5,4.9-8.9,9.9-13.3,14.8c-7.8,8.7-15.7,17.5-24.8,26.4
		c-11,10.7-23.6,20.5-37.1,29.3c-2.2,1.4-4.4,2.8-6.7,4.2c-2.4,1.5-4.8,2.9-7.2,4.3c-10.2,5.9-20.7,11.2-31.2,16
		c-21.2,9.6-42.3,16.8-60.2,21.2c-2.7,0.7-5.5,1.4-8.4,2.1c-2.8,44.9,15.9,80.6,68.5,128.5c28.4,2.1,44.1,0.6,44.1,0.6
		s-8.9-64.6,8.7-105c17.6-40.4,75.4-94.9,150.9-121.6c58-20.5,143.4-56.5,280.1-66s199.2,4.1,233.3,11.6s48.5,13.2,50,19.4
		s2.8,22.7,2.7,54.3c0,22.6,5.4,54.8,8.5,71.3l1,5l1.8-54.1c0,0,47.5-26.6,72.8-91.6C1395.5,418.5,1359.1,381.8,1291.7,381.4z"/>
</g>
</svg>
