<?xml version="1.0" encoding="utf-8"?>
<!-- Generator: Adobe Illustrator 23.0.1, SVG Export Plug-In . SVG Version: 6.00 Build 0)  -->
<svg version="1.1" id="Layer_1" xmlns="http://www.w3.org/2000/svg" xmlns:xlink="http://www.w3.org/1999/xlink" x="0px" y="0px"
	 viewBox="0 0 2000 2000" enable-background="new 0 0 2000 2000" xml:space="preserve">
<g>
	<path fill="#93ABEB" d="M1636.3,489.2c-33.6,54.9-140.8,119.4-217.5,164.1c-76.7,44.8-138.6,61.1-138.6,61.1s-6.4-9.3-10.6-15
		s1.4-22.1,3.9-43.2c2.5-21.1,11.9-71.4,10.5-112.9c-0.2-6.5-0.5-12.2-0.8-17.5c-1.6-28.3-4.1-39.3-7.3-45.9
		c-3.8-7.9-24.5-13.5-58.1-14.8s-139.8-11-234.4,13.6c-94.6,24.5-186.7,60.5-232.8,80.3s-128.4,53.6-160.8,71
		c-23.6,12.7-28.2,18-27.6,22.9c0.6,4.9,5.6,41.2,17.6,76.5c6.3,18.4,15.7,38.2,23.2,53c6.9,13.5,12.2,22.7,12.2,22.7
		s-12.8-0.5-52.6,2s-112.6,1.2-183.2-9.8s-109.6-30.6-118.2-51.9c-8.6-21.3-3.2-48.7,92-102s109.1-58.5,244-91.2
		c134.9-32.8,205.4-73.9,302.1-107.7s215.4-106.9,335.9-150.6s155.8-41.8,232.1-39.3c76.2,2.5,161.9,35.4,192.5,78.9
		C1690.3,376.8,1669.9,434.3,1636.3,489.2z"/>
	<path opacity="0.3" fill="#091426" enable-background="new    " d="M1467.3,428.4c9.2-21.2-36.1-37.3-93.4-21.6
		c-57.3,15.6-85.4,12.2-243.5,24.9s-274,49.7-421.6,96.2C561.2,574.3,490.6,589.1,410,630.5c-80.5,41.4-117.1,81.5-118.3,107.2
		s26.7,40.5,89.8,48.3c54.8,6.8,145.6,2.8,221.4-3.8c-7.5-14.7-16.9-34.6-23.2-53c-12-35.3-17-71.6-17.6-76.5s4-10.2,27.6-22.9
		c32.4-17.4,114.7-51.2,160.8-71s138.2-55.8,232.8-80.3s200.8-14.9,234.4-13.6s54.3,6.9,58.1,14.8c3.2,6.6,5.8,17.6,7.3,45.9
		c17-8.3,71.9-35,95.3-44.4C1406.3,470.1,1458.1,449.6,1467.3,428.4z"/>
</g>
</svg>
