<?xml version="1.0" encoding="utf-8"?>
<!-- Generator: Adobe Illustrator 23.0.1, SVG Export Plug-In . SVG Version: 6.00 Build 0)  -->
<svg version="1.1" id="Layer_1" xmlns="http://www.w3.org/2000/svg" xmlns:xlink="http://www.w3.org/1999/xlink" x="0px" y="0px"
	 viewBox="0 0 2000 2000" enable-background="new 0 0 2000 2000" xml:space="preserve">
<g id="_x30_7_x5F_HeadGear_x5F_WizardHat_x5F_Foreground">
	<g>
		<g>
			<path fill="#BC90E7" d="M510.1,233.1c-2.6-2.1-5.1-4.6-7.2-7.5c-1.6-2.2-2.9-4.6-4.1-7.1c-2.9-6.5-4.3-14.1-3.6-22.3
				c-3.4,7.5-6.6,15-9.5,22.1c-4.4,10.8-8.9,23.4-13,35.9c2.9,3.6,6.3,6.7,10.4,9.2c9.3,5.6,22.1,7.8,40.7,4.2
				c5.4-7.8,11.6-16.3,18-24.9c-5.2-0.3-12.8-1.3-22-4.2C516.3,237.2,513.1,235.5,510.1,233.1z"/>
			<path fill="#BC90E7" d="M526.6,219.6c-3.9-2.3-7.6-5.4-10.6-9.5c-7.5-10.4-11-18-12.1-24.8c-0.2-1.3-0.3-2.7-0.4-4
				c0-1.2,0-2.4,0.1-3.5c-1.5,3.2-3,6.4-4.5,9.7c0.3,5,1.7,15.4,7.9,25.1c1.2,1.9,2.5,3.7,4.1,5.4c1.4,1.6,3,3.2,4.8,4.6
				c1.1,0.9,2.2,1.7,3.3,2.5c11.5,8.1,22.5,9.7,28.1,9.8c2.2-2.9,4.3-5.8,6.5-8.6C547.8,226.3,536.4,225.3,526.6,219.6z"/>
		</g>
		<g>
			<path fill="#2A4DA9" d="M738.9,134.9c-0.3-3.3-5.4-3.6-7.7-2.4c-1.9,1-2.3,2.6-2.3,4.3c1.2,1.8,2.8,3.4,5.2,3.2
				C736.5,139.8,739.1,137.5,738.9,134.9z"/>
			<path fill="#2A4DA9" d="M868,88.4c7.3,0.9,14.7,1.2,21.8-0.9c5.4-1.6,10.5-4.1,15.3-7.1c-17-2.1-30.5-2.1-43.8-1.8
				c-0.2,0.7-0.4,1.4-0.7,2.1c-0.5,1.3-1.1,2.7-0.6,4C861.1,87.8,865.3,88,868,88.4z"/>
			<path fill="#2A4DA9" d="M695.7,164.2c0.9,1.3,2.6,0.9,4,0.7c0.7-0.1,1.6-0.2,2.3-0.3c2.1-0.5,3.6-2.1,2.3-4.2
				c-1.1-1.9-3.8-3-5.9-3.3c-1.8-0.3-2.5-0.1-3.1,1.6c-0.1,0.3-0.2,0.7-0.3,1c0.1,0.3,0.2,0.7,0.2,1
				C695.2,161.7,695,163.3,695.7,164.2z"/>
			<path fill="#2A4DA9" d="M590.5,84c-3.9,0.7-10,3.4-9.9,8.2c0.2,5.7,8.6,5,12.1,3.3c3-1.5,8.2-6.2,5.5-9.7c-0.4-0.5-0.5-1-0.5-1.4
				C595.5,83.5,592.8,83.6,590.5,84z"/>
			<path fill="#2A4DA9" d="M548.5,146.2c0.6-0.4,1-1,1.4-1.7c0.5-0.9,0.8-2,1-3c0.4-1.8,0.5-5.5-2.3-5.6c-0.7,0-1.6,0.3-2.5,0.7
				c-0.7,0.3-1.5,0.7-2.1,0.8c-1.1,0.3-1.8,0.8-2.3,1.3c-0.2,2.2-0.2,4.3,1.5,6.3C544.7,146.6,546.7,147.6,548.5,146.2z"/>
			<path fill="#2A4DA9" d="M644.6,333.3c3.1-0.8,4.2-3.3,3.7-6.2c-0.3-1.5-1.2-3.7-2.3-4.8c-1.8-1.7-5.2-1-7.3-0.5
				c-2.8,0.6-4.1,2-4.9,4c0.5,3.7,1.5,7.5,5.8,8.3C641.1,334.4,643,333.7,644.6,333.3z"/>
			<path fill="#2A4DA9" d="M911.4,362.7c-3.9-9.7-14.8-7.5-20-0.5c-2.2,2.9-3.5,6.7-3.4,10.4c0.1,2.2,0.6,4.1,0.7,6
				c3.9,4.5,10.8,6,16.3,3.7c3.2-1.4,6.7-4.6,7.6-8C913.4,370.8,912.7,365.9,911.4,362.7z"/>
			<path fill="#2A4DA9" d="M716.9,422.9c-2.1-2.1-4.4-2.2-6.8-1.5c-0.9,2.3-2.1,4.7-3.1,6.8c-0.6,1.4-1.3,3-1.2,4.5
				c0,0.7,0.3,1.5,0.8,2.2c1.8,2.5,5,2.5,7.4,1.2c3.1-1.8,5.3-5.3,5-8.6C718.9,425.7,718.3,424.2,716.9,422.9z"/>
			<path fill="#2A4DA9" d="M510.1,233.1c3,2.4,6.3,4.1,9.7,5.2c9.2,3,16.8,3.9,22,4.2c1.9-2.5,3.8-5.1,5.7-7.6
				c-5.6-0.2-16.6-1.7-28.1-9.8c-1.1-0.8-2.2-1.6-3.3-2.5c-1.8-1.5-3.4-3-4.8-4.6c-0.1,0.5-0.3,1-0.7,1.4c-1.6,1.6-5.3,4.5-7.6,6.2
				C505,228.5,507.4,231,510.1,233.1z"/>
			<path fill="#2A4DA9" d="M953.6,384.6c1.6-2.7,1.1-7.4-3-7.2c-2.7,0.1-6.2,4.4-6.4,6.9c-0.2,2.3,1.1,3.5,2.6,4.6
				C949.5,388.3,951.9,387.3,953.6,384.6z"/>
			<path fill="#2A4DA9" d="M751.5,405.2c3.6,1.1,8,0.9,6.8-4.1c-0.7-3-4.3-7.7-7.8-6.3c-1.3,0.5-2.6,2-3.6,3.6
				c-0.2,1.2-0.2,2.4,0.1,3.2C747.5,403.6,749.6,404.7,751.5,405.2z"/>
			<path fill="#2A4DA9" d="M949.8,109.2c3.6-1.1,7.3-2,10.9-2.6c7.3-1.3,15-1.8,22.7-1.8c-7.6-3.8-15.9-7.6-24.6-11
				c0,4.3-2.7,9.5-5,11.9C952.6,106.9,951.3,108.1,949.8,109.2z"/>
			<path fill="#2A4DA9" d="M909.5,119.2c-0.2,0.4-0.5,0.6-0.9,0.6c-1.4,2.9-1.7,6,1.4,8.5c3.2,2.8,8.4,2.3,12.2,1.3
				c7.4-2,5.6-12-0.8-14C916.8,114.2,911.9,114.8,909.5,119.2z"/>
			<path fill="#2A4DA9" d="M1210,251.2c0.2,0.4,0.4,0.7,0.6,1.1c1.7,2.9,3.2,5.9,5.1,8.6c3,4.3,15.7,15.7,20.4,8.2
				c0-1-0.2-1.9-0.5-2.9c-2.8-3.4-4.6-5.9-7.5-9.9c-4.5-6.3-10.7-11.7-15.3-16.7c-0.2-0.1-0.4-0.2-0.6-0.3c-0.1,0-0.2-0.1-0.3-0.1
				c-0.1,0-0.3-0.1-0.4-0.1c-4.4-0.6-2.7,7.5-2.2,9.7C1209.6,249.5,1209.8,250.4,1210,251.2z"/>
			<path fill="#2A4DA9" d="M1240.5,271.6c-0.3,3.9-2.3,7.4-6.6,9.2c-3.4,1.4-6.8,1.1-10-0.3c-2.3,6.2-6.5,11.2-10.8,16.2
				c-2.7,3.2-5.4,6.1-8.4,8.7c10.1-4.1,20.2-7.9,30.4-11.6c6.9-2.5,13.5-4.8,19.8-7C1248.2,279.9,1243.8,275.2,1240.5,271.6z"/>
			<path fill="#2A4DA9" d="M1059,153.7c2.4,1.4,5.3,2.2,7.5,3.7c3,1.1,6,2,9.1,2.8c5.7,1.4,15.7,3.1,21.4-0.3
				c-14.7-6.2-29.8-13.1-42.6-19.1c-2.9,0.9-5,2.6-2.7,6.7C1053.2,150.2,1056.4,152.2,1059,153.7z"/>
			<path fill="#2A4DA9" d="M798.5,262.1c6.4,1.6,12.1-0.9,12.1-9.2c0-2.6-0.4-6.5-2.8-8.1c-1.9-1.2-5.2-1.2-7.3-0.7
				c-6,1.3-8.9,7.3-6.7,12.9C794.8,259.5,796.5,261,798.5,262.1z"/>
			<path fill="#2A4DA9" d="M507.1,212.5c-6.2-9.7-7.6-20.2-7.9-25.1c-1.3,2.9-2.7,5.8-4,8.8c-0.7,8.2,0.7,15.8,3.6,22.3
				C503.4,214,505.8,212.8,507.1,212.5z"/>
			<path fill="#2A4DA9" d="M1209.5,296.9c4.4-5.7,9.5-10.9,11.6-17.9c-3.4-2.2-6.3-5.3-8.5-8.3c-5.9-7.8-9.6-17.6-8.9-27.5
				c0.1-2.2,0.4-4.5,1.3-6.5c0.7-1.3,1.7-2.5,3.2-3.2c-0.4-0.6-0.7-1.2-1-1.8c-1.2-2.6-2.7-5.9-4.7-9.5c-3.6-6.6-8.5-14.4-15.1-21
				c-10.1-10.2-19.1-16.9-55.8-28.2c-8.6-2.7-18.6-6.4-28.9-10.7c-5,6.4-16,4.5-23.2,3.4c-1.2-0.2-2.5-0.4-3.7-0.7
				c-0.1,0.2-0.1,0.4-0.3,0.5c-2.9,4.1-6,4.8-10.6,3c-2.8-1.1-8.9-2.4-9.9-5.8c-0.2-0.7,0-1.7,0.6-2.2c0.7-0.6,1.5-1,2.3-1.2
				c-4.7-2.7-8.8-6.7-11.1-10.7c-2.5-4.4-1.5-8.2,1.1-10.8c-12-5.7-21.3-10.2-25.1-11.9c-5.1-2.2-16.3-9.2-31.2-17
				c-10.3,0.3-20.7-0.4-31,1.5c-5.5,1-11.1,2.2-16.4,3.8c-4.9,1.5-9.6,3.6-14.5,5.1c1.3,3.9,0.7,8.5-2.7,11.1
				c-5.6,4.4-15.9,4.9-20.7-1c-2.9-3.6-2.1-8.8,0.7-12.4c1.8-6.4,11.4-6.7,16.7-4.5c2,0.8,3.6,2.4,4.8,4.3c1.6-1.3,3.5-2,5.4-2.8
				c4-1.6,7.5-3.1,10.9-5.7c3-2.2,6.2-4.7,8.1-8.1c1.9-3.4,1.3-5.6,0.7-8.4c-9-3.3-18.5-6.2-28-8.1c-5,3.4-10.4,6.4-15.5,9.2
				c-8.8,4.9-18.2,8.9-28.3,9.6c-1.2,0.1-2.5,0.1-3.8,0.1c-2.1,2.8-4.5,4.8-8.1,4.4c-5.9-0.8-12.2-0.6-18-2.2
				c-1.7-0.4-2-2.9-0.5-3.7c0.2-0.1,0.4-0.2,0.6-0.3c0.7-1.1,1.6-1.9,2.6-2.6c-1.2-0.6-2.3-1.4-3.2-2.3c-4.5-4.3-5.7-10.8-4.7-16.8
				c-7.8,0.2-16,0.4-25,0.1c-12-0.3-26.7-0.7-42.5-1.1c-2,3.2-4.9,7.8-6.4,10c-2.4,3.5-6,1.4-7.7-2.2c-1.5-3.1-1.1-3.2,2-8.1
				c-9.4-0.2-19-0.5-28.3-0.7l-14.2,10c0,0,17.6-1.8,22.9-1.2c5.4,0.6,4.4,2.1,7.1,4.3s5.7,4.6,0.8,5.2s-36.8,3.6-44,3.6
				s-10.9,1.1-9-2.3c1.7-2.9,9.4-10,24.5-20c-13.4-0.4-26-0.7-36.6-1.1c-11.7-0.4-24.1-0.9-36.3-1.4c-3.4,0.5-6.9,1-10.3,1.6
				c4.5,4.9,7.5,10.5,2.7,16.6c-4,5.1-12,10.2-18.6,11.9c1.9,3.7,0.7,9-2.5,12c-2.5,2.4-5.7,4-9.2,3.4c-3.4-0.7-6.6-2.5-7.9-5.9
				c-0.7-2-0.6-4.4,0.3-6.5c1.5-5.4,9.3-8,14.5-6.7c1.4,0.4,2.6,1,3.4,1.9c3.4-2.7,7.7-4.5,11.3-7c3.1-2.2,6.5-4.4,6.8-8.4
				c0.3-4.2-2-6.8-4.8-9.8c-0.2-0.2-0.4-0.5-0.5-0.8c-2.8,0.5-5.5,1-8.3,1.5c-5.6,1-11.1,1.9-16.4,3.8c-3.1,1.1-6.6,3.4-10,4.3
				c2.7,12.7-25.1,22.9-28.1,6.7c-1.6-8.4,8.8-13.4,15.7-14.3c4.3-0.5,9.4,0.9,11.2,4.3c2.6-2.1,6.5-3.3,9.4-4.4
				c5.6-2.1,11.4-3.3,17.2-4.5c1-0.2,2-0.4,3-0.6c-17.4-0.6-32.5-1-41.6-0.8c-18.5,0.4-34.1,3.9-40.8,11
				c-3.6,3.9-7.9,12.1-12.6,21.9c0,3.6-0.2,7.3,0.4,10.9c0.7,4.2,2.8,7.7,4.8,11.3c0.6,1.1,1.2,2.3,1.8,3.4c1.1-0.3,2.1-0.3,3.1-0.2
				c4.7,0.5,8.2,5.1,7.2,10c-0.1,0.4-0.2,0.7-0.3,1.1c-0.7,2-1.8,4-3.2,5.6c-2.7,3-6.4,4.3-10.4,1.3c-2.4-1.8-4.3-4.6-4.1-7.7
				c0-0.5,0.1-0.9,0.2-1.4c0-0.6,0.1-1.3,0.2-1.9c0.6-2.2,2.1-4,4-5.3c-3.9-5.7-6.6-11.9-7.8-18.3c-2.7,5.9-5.5,12-8.3,17.8
				c-5.3,10.9-13.5,27.6-21.9,45.5c-0.1,1.2-0.1,2.4-0.1,3.5c7.1-6.1,11.2-7.1,13.2-7.6c2-0.6,2.3,1.3,2.5,6.4
				c0.2,5.1,0.6,16.6,0.4,17.7c-0.2,1.1-4.2,2.4-5.4,2.3c-1.2-0.1-1.1-20.4-1.1-20.4l-9.1,5.7c1.1,6.8,4.6,14.4,12.1,24.8
				c3,4.1,6.6,7.2,10.6,9.5c9.8,5.7,21.2,6.7,27.3,6.7c21.1-27.9,40.8-52.5,40.8-52.5s9.3,8.9,22,13.7c0.1-6.5,3.6-13.8,7.2-18.8
				c0.5-0.7,1-1.4,1.5-2.1c3.7-4.7,8.3-8.6,13.3-12c4.6-3.1,9.4-5.8,14.3-8.2c5.8-2.8,11.6-5.2,17.6-7.2c5.5-1.8,11.2-3.2,17.1-4.1
				c11.9-1.9,23.7-1.2,35.6-0.2c0.3-2.5,1.8-5.2,3.7-6.6c5-3.7,14-2.9,17,3c2.8,5.8-1.6,12.7-7.4,14.3c-4.8,1.3-10.8-1.4-12.4-6.1
				c-0.2-0.3-0.4-0.5-0.5-0.8c-11.1-0.8-22.4-1.4-33.5,0.1c-6.4,0.9-12.8,2.6-19,4.8c1.2,2.8,1.6,6.1,3.9,8.6
				c3.9,4.2,9.6,4.9,15.1,5.5c0.1-4.1,3.1-7,8.1-6.5c5.1,0.4,10.9,4,10.7,9.7c-0.1,5.3-5.4,8.5-10.2,9c-5.3,0.6-8.9-3.5-8.9-8.5
				c-6.1-0.3-12.5-1.8-17-6.1c-2.2-2.1-5.4-6.4-5.8-10.1c-0.2,0.1-0.4,0.2-0.6,0.2c-2.5,1-4.9,2-7.3,3.2
				c-9.3,4.5-18.9,10.3-26.4,17.4c-0.6,0.6-1.2,1.1-1.7,1.7c-0.8,0.9-1.7,1.8-2.4,2.7c-2.1,2.5-3.9,5.3-5.4,8.2
				c-1.7,3.4-2,6.8-2.5,10.3c2.6,0.7,5.4,1.3,8.2,1.5c0,0-17.4,24.5-31,60.2c-9.7,25.4-18.8,58-25.2,83.1c3.7-1.2,7.4-2.2,11.2-3.1
				c-0.2-6.9,3-13.4,6.3-19.3c3.2-5.8,6.8-8.8,12.6-9.9c-0.1-1.1,0-2.3,0.4-3.3c0.9-2.7,3.2-4.7,5.8-5.8c5.4-2.4,11.7,0.2,13,6.2
				c1.1,5.6-4,10.4-9.1,11.5c-3.8,0.8-7.7-1.8-9.1-5.2c-3.4,0.5-6.1,1.4-8.4,4.4c-1.6,2-2.7,4.3-3.9,6.6c-2.3,4.6-4.1,9.3-5.1,14.4
				c3.7-0.8,7.5-1.6,11.2-2.3c9.8-1.9,19.7-3.2,29.7-3.4c0.7,0,1.3,0,2,0c0.3-1.3,0.9-2.5,1.6-3.5c2.4-3.2,5.9-4.3,9.7-4.7
				c8.3-1,12.2,5.3,11.7,13c-0.4,6.1-9.2,11.6-14.9,9.6c-3.5-1.2-7.8-5.8-8.5-10c-1.2,0-2.4,0.1-3.6,0.2c-10.2,0.5-20.3,1.8-30.3,4
				c-5.4,1.2-10.9,2.6-16.1,4.5c-2.5,0.9-5.1,2.3-7.7,2.9c-1.9,7.6-3.5,14.4-4.7,19.7c-5.4,23.4-3.6,22.5-12,36.5
				c-6.4,10.7-15.5,24.4-21.5,44.7c11-10.2,16-14.3,18.6-14.2c2.9,0.1,3.3,6.1,2.4,8.2c-0.8,1.9-20,16-24.2,19.1
				c-0.1,0.3-0.1,0.6-0.2,0.9c2,1,8.4,4.2,13.1,6.9c5.6,3.2,10.8,4.6,10.9,9.1s-1.4,7.3-4.2,7.2c-2.4-0.1-16.5-10-21.3-13.5
				c-3.9,29.4,1.7,26.7-0.1,65.9c-0.8,17.4-0.8,30-0.5,38.7c19.3-5.1,41.9-10.6,69.6-17.4c54.2-13.2,98-27.7,137.3-42.5
				c-0.8-8.5-0.3-17.3,0.1-25.7c0.4-7.9,1-15.8,2.3-23.7c-0.9-0.2-1.9-0.4-2.9-0.7c-4.9-1.2-10.9-3-15.6-5.9
				c-4.6-2.8-7.9-6.7-7.6-12.2c-3,0.1-5.9-1.2-7.5-4.5c-0.4-0.8-0.7-1.8-0.8-2.8c-0.5-3.1,0-6.7,0.5-9.5c0.3-1.7,0.9-3.6,1.9-5.3
				c0.4-2,1.9-3.8,4-4.6c3.5-1.4,7.7,0.3,10.4,2.5c2.9,2.4,4.4,5.2,4.8,8.2c0.5,3.8-0.9,7.8-3.8,11.3c-1.4,1.7-3.5,3.1-5.6,3.9
				c1.7,4.8,3.1,8.8,8.6,11h0.1c4.5,1.8,9.6,2.7,14.5,3.7c0.6-3.3,1.1-6.7,1.7-10c0.7-4.1,1.5-8.3,2.3-12.4
				c0.9-4.2,1.9-8.3,2.7-12.5c0.2-1.3,0.4-2.6,0.5-3.9c0.2-2.5,0.4-5.1,1.2-7.5l0,0c-3.2-1.9-5.7-4.4-5.4-8.4
				c0.1-0.9,0.4-1.9,0.8-2.8c0.9-5.4,5.1-10.1,11.1-10.2c8.7-0.2,14.8,9.5,12.5,17.6c-0.3,0.9-0.6,1.8-1,2.5c-2,3.7-5.6,4.8-9.4,4.4
				c-1-0.1-1.9-0.3-2.9-0.5c0.1,0.6,0.1,1.2,0.1,1.8c0.1,5.8-2.1,12.5-3.2,17.6c-0.9,3.9-1.7,7.8-2.4,11.7c-0.9,5-1.7,10-2.3,15.1
				c0,0.1,0,0.2,0,0.3c-0.9,8.6-1.7,17.2-2.2,25.9c-0.4,7.7-0.1,15.4-0.4,23.1c55.5-21.3,102.4-43.1,158-62.6c2.8-1,5.6-2,8.4-3
				c-1.6-5-2.2-10.4-2.5-15.8c-0.3-4.1-0.4-8.1-0.9-12c-0.7-5.3-1.8-10.6-2.4-15.9c-0.1-0.8-0.2-1.6-0.3-2.4
				c-4.7,0.4-9.5-0.4-13.7-2.8c-5-2.9-8.4-7.5-8.1-12.7c-2-4-1.9-9.5-0.6-13.5c1.7-5.1,6.7-11.1,10.8-14.6
				c10.5-9.2,26.6-4.1,31.1,8.7c2.3,6.4,2.2,14.1,0.5,20.6c-1.5,5.9-6.4,10.1-11.9,12.4c0,0.7,0.1,1.3,0.1,2
				c0.3,5.2,1.7,10.3,2.5,15.4c0.5,2.9,1,5.8,1.5,8.7c2.4-0.8,5.8-0.3,7.8-0.8c4.4-1,8.5-2.8,12.5-5c3.7-2.1,8.6-4.1,10.5-8.1
				c1.4-3,1.3-6.5,1.2-9.8c-1.8-0.1-3.7-1-5-2.3c-2.4-2.5-2.7-6.9-2.4-10.2c0.7-6.9,5.5-14.3,13.3-13.8c8.4,0.5,12.9,9.4,10.1,16.8
				c-1.9,4.9-6.6,8.2-11.6,8.6c0.6,4,1.1,8.3,0,12.2c-0.9,3.3-3.3,5.6-6,7.4c-0.5,0.4-1.1,0.7-1.6,1.1c-7.3,4.6-18.1,11.8-27.5,10.6
				c0.1,0.3,0.1,0.6,0.2,0.9c0.6,3.5,1.5,7.1,2,10.8c26.3-10.1,54-22.7,82.8-36.5c62.3-29.8,129.7-65.2,198.4-93.2
				C1202.1,304.4,1206.1,301.4,1209.5,296.9z M863.1,219.8c0.4-3.8,7.7-13.4,15.5-23.9s30.4-31.4,36-36s7.1-4.9,9-3.6
				s8.1,5.2,11.6,7.8s5.1,2.7,2.4,5.8s-17.7,12.3-31.4,27.9c-5.6,6.4-12.1,12.6-12.1,12.6s6,2.3,18.5,5.1s21.9,5.8,28.4,8.6
				s6.2,2,5.2,4.6s-2.2,4.9-3.9,9.8s-1.8,5.8-4.2,5.4s-11.6-3.4-25.1-9.4s-30.2-7.7-39-9.4S862.7,223.5,863.1,219.8z M826.2,395.9
				c0,0-4.4,4.4-8.2,8.4c-1.5,1.6-3,3.2-3.9,4.3c-3.3,4-4.6,7.5-6.9,5c-0.3-0.3-0.6-0.6-1-0.9c-1.8-1.6-3.2-2-3.2-3.5
				c0-1.8,0.9-2.5,2.6-4.2c11.1-11.1,17.1-15.3,19-16c1.5-0.6,3.3-1.2,8.3,3.5c1.2,1.1,2.6,2.6,4.3,4.4c8.5,9.4,12.7,13.7,11.9,15
				s-3.4,3.8-5,4.6s-3.7-2.4-5.8-5.2c-1.7-2.3-8.6-10.9-11.2-14.1C826.6,396.3,826.2,395.9,826.2,395.9z M810,143.8
				c2.2,0.4,7.7,0.7,7.3,4.1c-0.2,1.4-1.4,2.4-2.3,3.5c-1.1,1.4-2,3-3,4.5c-1.4,2.2-4.4,0.1-3.3-1.9l0,0c0.7-1.3,1.5-2.5,2.3-3.7
				c0.4-0.6,0.9-1.2,1.3-1.8c0,0,0.1-0.1,0.2-0.2c-0.3-0.1-0.6-0.2-0.9-0.3c-1-0.4-1.9-0.8-2.9-1.2
				C806.9,145.9,808.3,143.5,810,143.8z M791.5,152c2.2-2.4,5.2-6.2,8.6-6.8c0.4-0.1,0.8,0.2,0.6,0.6c-0.8,2.5-3.1,4.7-5.2,6.7
				c2.1,0.9,4,2,6.1,3c1.7,0.4,2.3,3.1,0.2,3.6c-1.5,0.4-2.9-0.9-4.1-1.6c-2-1.1-4-2-6-2.9C790.8,154.1,790.8,152.7,791.5,152z
				 M784.4,264.2c1.9-1.9,4.3-3.3,6.6-4.5c-1.1-2.1-1.7-4.5-1.7-6.7c0.1-8.3,7.3-14.5,15.5-13.9c4.1,0.3,6.9,2.2,8.6,5
				c0.9-1.3,2.2-2.5,3.6-3.3c1.2-0.7,3.1-0.4,3.8,1v0.1c0.7,1.6,0.1,3.1-1.2,3.8c-1.7,1.1-3,2.5-4.3,3.9c0.4,2.8,0,5.9-1,8.7
				c-1.3,3.5-4.2,6.9-7.6,8.4c-2.4,1-4.7,0.9-6.9,0.2c-1.9-0.3-3.7-1.2-5.3-2.6c-0.1,0-0.2,0.1-0.2,0.2c-1.1,0.6-2.3,1.1-3.4,1.8
				c-1.1,0.7-2.2,1.5-3.4,2.1C785,269.7,782.2,266.4,784.4,264.2z M685.6,390.4c1.8,0.6,2.1,2.1,1.6,5.9s1.6,6.6-3.8,6.2
				c-4.2-0.2-13.7,0.4-17.7,0.7c-1.1,0.1-1.8,0.1-1.8,0.1c-3.6-0.1-5.3,1.6-4.6-6.5s5.1-29.1,5.5-31.9s1.1-3.5,4.8-3.2
				s6.3-0.2,6,3.2s-4.9,25.9-4.9,25.9s7.2-0.6,11.6-0.7C683.9,390.2,685.2,390.2,685.6,390.4z M699.7,250.7c0,0,2.1-25.7,1.8-28.3
				s2.8-3.9,7-3.4s4.9,0.4,5.7,2.7s-0.8,29.6-0.8,34c0,4.3,0,4.9-7.2,5.6c-7.2,0.6-28.8,4.5-35.1,3.3c-6.2-1.2-3.8-4.3-3.5-8.3
				c0.3-3.9,2.3-4.4,6.1-4.4C681.9,251.8,699.7,250.7,699.7,250.7z M656.2,199.5c0.2-0.2,0.6-0.4,1-0.5c2-0.4,23.4-4.4,32.5-3.9
				s7.7,3.4,6.5,8.5c-1.2,5-7.2,3-14.6,2.7c-7.4-0.3-15.1,2.4-15.1,2.4s-0.1,17.8,0,26.7c0,8.9-1.9,7.4-7.4,7.3s-4.9-1.8-4.8-8.1
				c0,0,0.9-23.7,1.2-28.9c0.1-1,0.1-1.9,0.1-2.7C655.7,201,655.7,200,656.2,199.5z M566,423.2c0.2-3.9,0.4-5.4,4.6-4.8
				c24.6,3.7,31.9,4.6,31.9,6.1s1.4,6.9,0,9s-14.8,15.6-22.8,22.5s-10,6.6-10.2,3.2s-0.8-8.2,1.5-10.6s13.2-12.8,13.2-12.8
				s-8.2-2.8-14.2-4.1S565.8,427.1,566,423.2z M592.1,495.6c-3.8,0.7-7.7-1.1-8.9-4.4c-2.4,1.7-4.6,3.6-6.7,5.5
				c-1.7,6.2-3.3,12.3-3.5,18.9c-0.2,6.5,2,11.6,3.7,17.3c0.7-0.5,1.5-1,2.2-1.2c3.4-1.2,8-0.8,10.7,1.8c2.6,2.6,1.8,8,0.9,11.2
				c-2.4,8.6-11.4,5.7-16.7,1.7c-2.9-2.2-5.1-6.1-2.7-9.5c0.7-1,1.8-1.9,3.1-2.4c-3.7-5.5-4.5-13.6-4.2-19.8c0.2-4.5,1-9.1,2-13.5
				c-1.9,2-3.8,4.1-5.6,6.2c-5.5,6.4-11,12.4-14.7,20.1c1.4,3.5,1.3,8.3,0.5,11.2c-1.4,5-6.5,7.2-10,2.5c-2.1-2.9-3-9.4-1.2-13.2
				c0.8-3.4,3.3-6.2,7.4-4.2c0.6,0.3,1.1,0.7,1.6,1.2c2.3-7.3,8.8-13.3,13.6-18.9c3.5-4.1,7.2-7.9,11.1-11.3
				c0.2-0.2,0.4-0.3,0.5-0.5c2.4-2.1,4.9-4,7.6-5.8c0-0.3,0.1-0.6,0.2-1c-0.2-1.1-0.4-2.1-0.4-3.2c0-3.6,1.3-7.1,4.7-9.2
				c4.2-2.5,8.7-0.5,11.4,2.9c0.8,1,1.4,2.1,1.9,3.2C603.5,487.7,598.9,494.4,592.1,495.6z M715.9,381.8c-1.5,3.6-6.5,1.7-9.2,0.8
				c-2.7-0.9-5.1-0.1-4.7-2.9c0.1-0.9,0.6-2.9,1.1-5.3c1.1-4.7,2.7-11,3.5-13.7c1.2-4.1,1.8-4.7,0.2-4.9s-12.5,1.6-18.1,2.4
				s-4.6-1.1-3.4-7.5c0.4-2.1,1.2-4.3,4.8-4.6s21.5-2.2,28.1-1.2s6.9,1.7,6.5,4.2c-0.2,1-1.4,5.9-2.9,11.7
				C719.6,369.3,716.8,379.6,715.9,381.8z M824.2,452.6c-2.1,0.8-3.1-0.8-6.6-3.1c-0.9-0.6-2.6-1.9-4.5-3.4
				c-5.3-4.2-12.9-10.6-13.6-12.1c-0.9-2-2.4-2.2,1.9-5.4c4-3,5.1-3.4,8.5,0s12.5,12.9,12.5,12.9s9.8-5.9,14.2-9.9s6.2-4.8,8.8-2.1
				s2.1,4.4-1,7.5c-0.8,0.8-2.4,2.2-4.4,3.8C834.4,445.4,825.8,452.1,824.2,452.6z M1004,324.4c-3.8,4.1-11,3.6-14.2-1
				c-1.2-1.8-1.6-4.3-1.2-6.6c-4.2-1.2-8.3-3.7-12.5-5.1c-3.9-1.3-8-1.9-11.9-3.2c-0.1,0-0.1,0.1-0.2,0.1c-0.2,0.2-0.3,0.3-0.6,0.4
				c-1.8,1.3-3.5,2.6-5.2,4.1c-1,0.9-1.9,2-3.2,2.4c-2.4,0.8-5.5-0.4-7.9-0.9c-7.4-1.6-15.3-3.9-22-7.8c-0.5,0.6-1.2,1-1.9,1.3
				c-3,2.5-6.9,4-10.7,1.6c-4-2.5-4-9.9-1.1-13.2c3.5-4,11-2.6,13.7,1.6c1,1.6,1.5,3.9,1.2,5.9c2,0.4,3.9,1.6,5.8,2.4
				c3.7,1.6,7.5,3,11.4,4.2c3.8,1.1,8,2.8,11.4,0.3c2.1-1.6,3.7-3.3,5.8-4.7c0.1-3.4,0.2-6.7,0.3-10.1c0.1-1.9,0.2-3.8,0.2-5.6
				c0.1-2,0.5-3.1-0.9-4.6c-2-2.1-6.9-2.5-9.5-3.7c-2.7-1.1-5.3-2.3-8-3.4c-1.4,1.5-3.2,2.8-5.1,3.3c-0.8,0.3-1.7,0.3-2.7,0.1
				c-2.6-0.6-4.7-2.8-6-5.1c-2.9-5.3,0.5-10.7,6.4-11c5.4-0.3,11.6,3.8,9.2,9.8c-0.1,0.3-0.3,0.6-0.4,0.9c3.2,0.3,6,2.2,9,3.3
				c2.7,1,8.3,1.3,10.2,3.6c1.8,2.1,1,6.1,1,8.5c0,4.1,0,8.3,0,12.4c4.8,0.2,9.9,2,14.3,3.6c3.7,1.3,8.1,2.6,11.4,4.9
				c0.8-0.9,2-1.6,3.4-1.8c2.4-1.8,5.5-2.6,8.1-1.3C1006.6,312.7,1007.5,320.7,1004,324.4z M1024.4,205.5
				c-12.5,9.5-31.4,22.2-38.5,26s-8.5,4.4-8.6,2s-1.1-9.7-1.4-14.1s0.5-4.1,5.6-5.6c5.9-1.8,25.1-17.9,28.4-19.8s1.9-1.6-9-11.4
				s-26.4-12.5-33.1-16s-6.9-3.6-6.6-5.2s2.1-4.9,3.5-9.2s1.2-5.1,3.1-5.4s16.6,4.4,34.6,10.9s36.8,25.1,38.1,28.6
				S1036.9,196,1024.4,205.5z M1147.9,272.2c-6.5,10.2-25.2,39.8-33.2,51.9s-7.8,6.1-15.9-0.4s-32.9-16-35-19.6s4.4-8.3,8.6-12.1
				s5.4-3.1,7.9-1.8s14.9,12.3,23,20.6c1.7,1.8,0.8-1.3,4.6-7.1s29.2-39,32.6-43.2s6.1-4.6,12.4-2.5S1154.4,262.1,1147.9,272.2z
				 M1155.8,228.6c-2.7,5.4-2.7,4.1-7.5,3.1s-28.1-6.6-35-7.1s-6.5,0.2-10.8,6.4s-18.8,24.9-35.4,44.5c-3.4,4-6,2.2-11.6,1
				s-5.4-2.1-0.5-8.2s23.2-28,32.9-39.4s16.6-19.2,19.5-19.5s6.8-1.6,15.8-1.1s22.2,4.6,31,8.5c1.8,0.8,3,1.5,3.8,2.2
				c2.4,2.1,1.3,3.9-0.3,6.5C1157.1,226.4,1156.4,227.4,1155.8,228.6z"/>
			<path fill="#2A4DA9" d="M914.2,300.1c-1.1,2.2-0.9,6.4,2,6.9c2.5,0.5,4.6-1.5,6.2-3.3c0.3-0.9,0.2-2-0.2-2.9
				C921,298,915.7,297,914.2,300.1z"/>
			<path fill="#2A4DA9" d="M939.2,270.8c-2.4-1.1-7.6-1-7,2.9c0.3,1.7,1.9,4.2,3.8,4.7c1.2-0.3,2.4-0.6,3.5-1.4
				C941.8,275.1,942.2,272.2,939.2,270.8z"/>
			<path fill="#2A4DA9" d="M619.4,105.5c-3.2,0.6-5.7,2.6-7.3,5.3c0,0.1,0,0.2,0,0.3c0.6,4.4,6.1,5,9.2,2.9c2.1-1.4,2.8-3.3,2.7-5.8
				C623.8,105.7,621.6,105.1,619.4,105.5z"/>
			<path fill="#2A4DA9" d="M998.4,313.5c-1.5,0.2-3.1,1.1-4.3,2.1c-1.6,1.7-2.6,3.7-0.6,6c1.9,2.3,6.2,2.5,8.1,0.1
				C1003.6,319.2,1002.4,312.9,998.4,313.5z"/>
			<path fill="#2A4DA9" d="M595.5,479.5c-2.4-2.4-5.9-3.2-8.2,0.4c-0.7,1.1-1,2.2-1.1,3.3c-0.2,2.6,0.6,5.3,1.2,7.8
				c1.3,1.3,3,1.3,4.9,0.8c5-1.4,7.2-6.3,4.5-10.8C596.4,480.5,596,480,595.5,479.5z"/>
			<path fill="#2A4DA9" d="M483,280.1c-2.8,0.3-4.2,5.1-4.4,7.6c-0.4,4.9,5.5,3.9,7.6,1.3c1.1-1.4,1.5-3.2,1.8-5.1
				C487.2,281.8,485.9,279.8,483,280.1z"/>
			<path fill="#2A4DA9" d="M483.1,263.3c-4.1-2.5-7.5-5.6-10.4-9.2c-4.6,14.2-8.7,28.3-11.1,39.5c-1.4,6.5-2.4,12-2.6,16.1
				c-1,17.5,1.1,28.9,9.5,27.5s22.6-12.9,37.8-42.2c1.5-3,3.7-6.6,6.2-10.6c-1.5,0.7-3.1,1.4-4.8,1.9c-4.1,1.2-11.3,2.5-15.9,0.6
				c-0.7,3.5-3.1,6.6-6.8,7.7c-4.9,1.5-9.9-1.8-9.5-7c0.4-4.9,2.6-11.4,8.5-11.1c3,0.2,6,2.2,7.1,4.9c0.2,0.2,0.4,0.4,0.5,0.7
				c0.2,0.7,0.3,1.4,0.4,2.2c1.6-0.3,3.2-0.1,5-0.2c3.8-0.3,7.6-1.4,11.1-3c3.9-1.8,7.4-4.4,11-6.7c1.5-2.2,3.1-4.5,4.7-6.8
				C505.2,271.1,492.4,268.9,483.1,263.3z"/>
			<path fill="#2A4DA9" d="M617.5,302.5c0.8-3.9-2.7-7.1-6.4-5.4c-1.5,0.7-2.6,1.9-3.1,3.5c-0.2,0.8-0.3,1.4-0.4,2
				c0.1,0.2,0.1,0.4,0.2,0.5C609.9,306.9,616.6,307.3,617.5,302.5z"/>
			<path fill="#2A4DA9" d="M577.2,544.5c3.4,2.9,9.2,4.4,9.8-1.8c0.2-1.9,0.8-5.3-0.7-6.7c-0.3-0.3-0.7-0.5-1.1-0.6
				c-2.2-0.1-4.2,0.1-6.3,1.6c-1.6,1.1-2.3,2.5-2.9,4.1c-0.1,0.8,0,1.6,0.2,2.5C576.5,543.9,576.9,544.2,577.2,544.5z"/>
			<path fill="#2A4DA9" d="M543,532.1c0,0.9,0,1.8,0.1,2.8c0.2,1.4,0.5,3.1,1.3,4.3c2.2,3.2,4.7,1.3,5.7-1.3c1-2.7,0.6-8.1-1.7-10.3
				C544.9,524.4,543.6,529.5,543,532.1z"/>
		</g>
		<path fill="#A3A72E" d="M514.2,200c1.2,0.1,5.3-1.2,5.4-2.3c0.2-1.1-0.2-12.5-0.4-17.7c-0.2-5.1-0.5-6.9-2.5-6.4
			c-2,0.6-6,1.5-13.2,7.6c0,1.3,0.2,2.6,0.4,4l9.1-5.7C513,179.6,513,199.9,514.2,200z"/>
		<path fill="#A3A72E" d="M511.2,218c-1.6-1.8-2.9-3.6-4.1-5.4c-1.3,0.2-3.7,1.5-8.3,5.9c1.1,2.6,2.5,4.9,4.1,7.1
			c2.2-1.7,6-4.6,7.6-6.2C510.9,219,511.1,218.5,511.2,218z"/>
		<path fill="#A3A72E" d="M537.6,138.1c-0.1,0.6-0.2,1.2-0.2,1.9c-0.1,0.5-0.2,0.9-0.2,1.4c-0.1,3.1,1.8,5.9,4.1,7.7
			c4,3.1,7.7,1.7,10.4-1.3c-0.6-1-1.3-2.1-1.8-3.2c-0.4,0.7-0.8,1.2-1.4,1.7c-1.8,1.4-3.8,0.3-5.2-1.2c-1.8-2-1.7-4.1-1.5-6.3
			c0.5-0.5,1.3-0.9,2.3-1.3c0.6-0.2,1.3-0.5,2.1-0.8c-1.2-2.9-2.2-5.8-3-8.8c-2-3.6-4.1-7.1-4.8-11.3c-0.6-3.7-0.4-7.3-0.4-10.9
			c-1.3,2.8-2.7,5.8-4.1,8.8c1.2,6.5,4,12.6,7.8,18.3C539.7,134.1,538.2,135.8,537.6,138.1z"/>
		<path fill="#A3A72E" d="M548,131c0.5,0.8,1,1.7,1.5,2.5c1.7,2.6,3.6,5.1,5.6,7.5C556.3,136.1,552.8,131.5,548,131z"/>
		<path fill="#A3A72E" d="M612.7,78.7c-2.8,1.1-6.8,2.3-9.4,4.4c-1.8-3.3-7-4.8-11.2-4.3c-6.9,0.9-17.3,5.9-15.7,14.3
			c3.1,16.2,30.8,6,28.1-6.7c3.4-0.9,7-3.2,10-4.3c5.4-1.9,10.9-2.7,16.4-3.8c2.7-0.5,5.5-1,8.3-1.5c0.1,0.3,0.2,0.5,0.5,0.8
			c2.8,2.9,5.1,5.5,4.8,9.8c-0.3,4-3.7,6.2-6.8,8.4c-3.6,2.5-7.9,4.3-11.3,7c-0.9-0.9-2-1.5-3.4-1.9c-5.3-1.3-13,1.3-14.5,6.7
			c-0.8,2.1-1,4.5-0.3,6.5c1.2,3.4,4.4,5.2,7.9,5.9c3.5,0.7,6.7-1,9.2-3.4c3.2-3,4.4-8.3,2.5-12c6.6-1.8,14.6-6.8,18.6-11.9
			c4.8-6.1,1.7-11.8-2.7-16.6c3.4-0.6,6.9-1.1,10.3-1.6c-7.2-0.3-14.3-0.5-21.1-0.8c-1,0.2-2,0.4-3,0.6
			C624,75.4,618.2,76.6,612.7,78.7z M592.7,95.5c-3.5,1.7-11.9,2.4-12.1-3.3c-0.2-4.9,5.9-7.5,9.9-8.2c2.3-0.4,5-0.5,7.2,0.4
			c0,0.5,0.1,0.9,0.5,1.4C600.9,89.4,595.8,94,592.7,95.5z M621.3,114c-3.1,2.1-8.5,1.6-9.2-2.9c0-0.1,0-0.2,0-0.3
			c1.5-2.7,4.1-4.8,7.3-5.3c2.2-0.4,4.5,0.2,4.6,2.7C624.1,110.6,623.4,112.6,621.3,114z"/>
		<path fill="#A3A72E" d="M638.7,154.5c-5,3.4-9.6,7.4-13.3,12c-0.5,0.6-1,1.3-1.5,2.1c0.8,0.3,1.6,0.6,2.4,0.9
			c0.8,0.3,1.6,0.5,2.5,0.8c0.8-0.9,1.6-1.8,2.4-2.7c1.3-1.8,2.5-3.7,3.6-5.6C636.2,159.5,637.5,157,638.7,154.5z"/>
		<path fill="#A3A72E" d="M672.9,155.2c4.5,4.3,10.9,5.8,17,6.1c0,5.1,3.6,9.2,8.9,8.5c4.7-0.6,10-3.8,10.2-9
			c0.1-5.7-5.7-9.3-10.7-9.7s-8,2.5-8.1,6.5c-5.4-0.6-11.1-1.3-15.1-5.5c-2.3-2.5-2.7-5.8-3.9-8.6c6.2-2.2,12.6-3.8,19-4.8
			c11.1-1.6,22.4-0.9,33.5-0.1c0.1,0.3,0.3,0.6,0.5,0.8c1.5,4.8,7.6,7.5,12.4,6.1c5.8-1.6,10.2-8.6,7.4-14.3c-3-6-12-6.7-17-3
			c-1.9,1.4-3.4,4.1-3.7,6.6c-11.9-1.1-23.7-1.7-35.6,0.2c-5.9,0.9-11.5,2.3-17.1,4.1c-1.1,1.6-2.2,3.2-3.2,4.8
			c-0.3,0.4-0.6,0.9-0.9,1.3c0.2-0.1,0.4-0.2,0.6-0.2C667.5,148.8,670.7,153.1,672.9,155.2z M695.3,158.7c0.6-1.7,1.2-1.9,3.1-1.6
			c2.1,0.3,4.7,1.4,5.9,3.3c1.3,2.2-0.2,3.7-2.3,4.2c-0.7,0.2-1.5,0.2-2.3,0.3c-1.4,0.2-3,0.6-4-0.7c-0.6-0.9-0.4-2.4-0.4-3.5
			c0-0.4-0.1-0.7-0.2-1C695.1,159.4,695.2,159,695.3,158.7z M731.2,132.6c2.3-1.2,7.4-1,7.7,2.4c0.2,2.5-2.4,4.9-4.8,5.1
			c-2.4,0.2-4-1.4-5.2-3.2C728.9,135.1,729.3,133.6,731.2,132.6z"/>
		<path fill="#A3A72E" d="M637.4,338.5c5.7,2,14.5-3.4,14.9-9.6c0.5-7.7-3.4-14-11.7-13c-3.8,0.5-7.3,1.5-9.7,4.7
			c-0.7,1-1.3,2.2-1.6,3.5c-0.7,0-1.3,0-2,0c-0.7,1.5-1.3,3-1.9,4.5c1.2-0.1,2.4-0.1,3.6-0.2C629.6,332.7,633.9,337.3,637.4,338.5z
			 M638.6,321.7c2.2-0.5,5.5-1.2,7.3,0.5c1.2,1.1,2.1,3.3,2.3,4.8c0.6,2.9-0.6,5.4-3.7,6.2c-1.6,0.4-3.5,1.1-5.1,0.8
			c-4.4-0.8-5.4-4.6-5.8-8.3C634.5,323.8,635.8,322.4,638.6,321.7z"/>
		<path fill="#A3A72E" d="M1047,148.6c2.3,4,6.5,8,11.1,10.7c-0.8,0.2-1.6,0.6-2.3,1.2c-0.6,0.5-0.8,1.5-0.6,2.2
			c1,3.3,7,4.6,9.9,5.8c4.6,1.9,7.6,1.1,10.6-3c0.1-0.2,0.2-0.3,0.3-0.5c1.2,0.3,2.5,0.5,3.7,0.7c7.2,1.1,18.1,3,23.2-3.4
			c-1.9-0.8-3.9-1.6-5.9-2.4c-5.7,3.4-15.7,1.7-21.4,0.3c-3.1-0.8-6.1-1.7-9.1-2.8c-2.2-1.5-5.1-2.3-7.5-3.7
			c-2.6-1.5-5.8-3.5-7.3-6.2c-2.3-4.1-0.2-5.7,2.7-6.7c-2.1-1-4.2-2-6.2-2.9C1045.5,140.5,1044.5,144.3,1047,148.6z"/>
		<path fill="#A3A72E" d="M1208.2,233.6c0.3,0.5,0.6,1,1,1.5C1208.8,234.5,1208.5,234,1208.2,233.6z"/>
		<path fill="#A3A72E" d="M1209.9,236c0.1,0.2,0.2,0.3,0.4,0.5C1210.1,236.3,1210,236.1,1209.9,236z"/>
		<path fill="#A3A72E" d="M1211.4,237.8l0.1,0.1C1211.5,237.9,1211.4,237.8,1211.4,237.8z"/>
		<path fill="#A3A72E" d="M1212.4,239.3c0.2,0.1,0.4,0.2,0.6,0.3c0-0.1-0.1-0.1-0.1-0.2l0,0C1212.7,239.4,1212.5,239.3,1212.4,239.3
			z"/>
		<path fill="#A3A72E" d="M1215.8,260.9c-1.9-2.7-3.5-5.7-5.1-8.6c-0.2-0.4-0.4-0.7-0.6-1.1c-0.2-0.8-0.4-1.6-0.6-2.5
			c-0.4-2.1-2.2-10.2,2.2-9.7c0.1,0,0.2,0.1,0.4,0.1c-2.4-0.8-4.7-1.6-7.1-2.4c-0.9,1.9-1.2,4.2-1.3,6.5c-0.6,9.9,3,19.7,8.9,27.5
			c2.2,2.9,5.2,6.1,8.5,8.3c-2.1,7-7.2,12.2-11.6,17.9c-3.4,4.5-7.4,7.5-11.3,11.2c2.2-0.9,4.4-1.8,6.6-2.7c3-2.6,5.7-5.5,8.4-8.7
			c4.3-5,8.5-10,10.8-16.2c3.1,1.4,6.5,1.7,10,0.3c4.3-1.8,6.3-5.3,6.6-9.2c-2-2.1-3.5-3.9-4.8-5.4c0.3,1,0.5,1.9,0.5,2.9
			C1231.5,276.6,1218.8,265.2,1215.8,260.9z"/>
		<path fill="#A3A72E" d="M953.2,100.3c-1.9,3.3-5.1,5.8-8.1,8.1c-3.5,2.6-6.9,4.2-10.9,5.7c-2,0.8-3.8,1.5-5.4,2.8
			c-1.1-1.9-2.8-3.4-4.8-4.3c-5.3-2.2-14.9-1.9-16.7,4.5c-2.7,3.6-3.6,8.9-0.7,12.4c4.8,5.9,15.1,5.4,20.7,1c3.4-2.7,4-7.2,2.7-11.1
			c4.9-1.5,9.6-3.6,14.5-5.1c5.3-1.7,10.9-2.8,16.4-3.8c10.3-1.9,20.6-1.2,31-1.5c-2.7-1.4-5.5-2.9-8.4-4.3
			c-7.6,0-15.3,0.5-22.7,1.8c-3.6,0.6-7.2,1.5-10.9,2.6c1.4-1,2.8-2.2,4-3.5c2.3-2.4,5-7.6,5-11.9c-1.6-0.6-3.2-1.2-4.9-1.9
			C954.5,94.7,955.1,96.9,953.2,100.3z M922.1,129.6c-3.8,1-9,1.5-12.2-1.3c-3-2.6-2.7-5.7-1.4-8.5c0.4-0.1,0.7-0.2,0.9-0.6
			c2.4-4.4,7.3-5,11.8-3.6C927.8,117.5,929.5,127.6,922.1,129.6z"/>
		<path fill="#A3A72E" d="M702.3,96.8c-1.9,3.3,1.8,2.3,9,2.3s39.3-3,44.3-3.6s1.9-3-0.8-5.2s-1.7-3.6-7.1-4.3
			c-5.4-0.6-22.9,1.2-22.9,1.2l14.2-10c-4.2-0.1-8.3-0.2-12.4-0.3C711.8,86.8,704,93.9,702.3,96.8z"/>
		<path fill="#A3A72E" d="M765.5,86c1.7,3.7,5.3,5.8,7.7,2.2c1.5-2.2,4.4-6.8,6.4-10c-4-0.1-8-0.2-12.1-0.3
			C764.4,82.8,764,82.9,765.5,86z"/>
		<path fill="#A3A72E" d="M851.7,95.9c1,0.9,2,1.7,3.2,2.3c-1,0.7-1.9,1.5-2.6,2.6c-0.2,0.1-0.4,0.2-0.6,0.3
			c-1.5,0.8-1.2,3.3,0.5,3.7c5.8,1.6,12.1,1.4,18,2.2c3.5,0.5,6-1.6,8.1-4.4c1.3,0,2.5,0,3.8-0.1c10.1-0.7,19.5-4.7,28.3-9.6
			c5.1-2.8,10.5-5.8,15.5-9.2c-0.8-0.2-1.6-0.3-2.4-0.5c-6.6-1.2-12.6-2.2-18.3-2.9c-4.8,3-10,5.5-15.3,7.1
			c-7.1,2.1-14.5,1.8-21.8,0.9c-2.8-0.3-6.9-0.5-7.9-3.6c-0.4-1.4,0.2-2.8,0.6-4c0.3-0.8,0.5-1.4,0.7-2.1c-4.8,0.1-9.5,0.3-14.4,0.5
			C846,85.1,847.3,91.6,851.7,95.9z"/>
		<path fill="#A3A72E" d="M813.9,148.7C813.9,148.7,814,148.7,813.9,148.7C814.2,148.7,814.2,148.7,813.9,148.7z"/>
		<path fill="#A3A72E" d="M654.4,234.6c-0.1,6.3-0.7,8,4.8,8.1s7.5,1.6,7.4-7.3c0-8.9,0-26.7,0-26.7s7.7-2.7,15.1-2.4
			c7.4,0.3,13.4,2.3,14.6-2.7c1.2-5,2.5-8-6.5-8.5s-30.4,3.4-32.5,3.9c-0.5,0.1-0.8,0.2-1,0.5c-0.2,1.2-0.4,2.4-0.6,3.6
			c0,0.7,0,1.6-0.1,2.7C655.3,210.9,654.4,234.6,654.4,234.6z"/>
		<path fill="#A3A72E" d="M708.5,218.9c-4.1-0.5-7.3,0.8-7,3.4c0.3,2.6-1.8,28.3-1.8,28.3s-17.8,1.1-26,1.2c-3.8,0-5.7,0.4-6.1,4.4
			c-0.3,3.9-2.7,7.1,3.5,8.3c6.2,1.2,27.9-2.6,35.1-3.3c7.2-0.6,7.2-1.2,7.2-5.6c0-4.3,1.6-31.6,0.8-34S712.7,219.5,708.5,218.9z"/>
		<path fill="#A3A72E" d="M587.4,475c-3.4,2-4.8,5.5-4.7,9.2c1.2-0.3,2.3-0.6,3.5-0.9c0.1-1.2,0.4-2.3,1.1-3.3
			c2.3-3.5,5.8-2.8,8.2-0.4c1.1-0.5,2.2-1.1,3.3-1.6C596.1,474.4,591.7,472.4,587.4,475z"/>
		<path fill="#A3A72E" d="M683.5,402.5c5.4,0.3,3.3-2.4,3.8-6.2s0.1-5.3-1.6-5.9c-0.5-0.1-1.7-0.2-3.3-0.2c-5.5,4.3-11,8.6-16.5,13
			C669.8,402.9,679.3,402.3,683.5,402.5z"/>
		<path fill="#A3A72E" d="M706.7,382.6c2.7,0.9,7.8,2.9,9.2-0.8c0.9-2.2,3.7-12.6,6-21.1c-6.3,4.5-12.5,9-18.8,13.6
			c-0.5,2.4-1,4.4-1.1,5.3C701.6,382.4,704,381.6,706.7,382.6z"/>
		<path fill="#A3A72E" d="M751.6,411.5c1,0.3,1.9,0.5,2.9,0.5c0.1,0,0.1-0.1,0.2-0.1c3.1-1.4,6.1-2.9,9.2-4.3c0.4-0.7,0.7-1.6,1-2.5
			c2.3-8-3.8-17.8-12.5-17.6c-6,0.1-10.1,4.9-11.1,10.2c-0.5,0.9-0.7,1.9-0.8,2.8c-0.3,4,2.2,6.5,5.4,8.4l0,0
			c-0.7,2.4-0.9,4.9-1.2,7.5c2.3-1,4.7-2.1,7-3.2C751.7,412.7,751.7,412.1,751.6,411.5z M746.9,401.7c-0.3-0.9-0.3-2.1-0.1-3.2
			c1-1.7,2.3-3.1,3.6-3.6c3.5-1.4,7,3.3,7.8,6.3c1.2,5-3.2,5.2-6.8,4.1C749.6,404.7,747.5,403.6,746.9,401.7z"/>
		<path fill="#A3A72E" d="M743.8,457.9c0-0.1,0-0.2,0-0.3c0.5-5,1.3-10.1,2.3-15.1c-2.3,0.9-4.6,1.8-6.9,2.7
			c-0.6,3.3-1.1,6.7-1.7,10c-4.9-0.9-9.9-1.8-14.5-3.7c-1.6,0.7-3.2,1.3-4.8,2c4.7,2.9,10.7,4.7,15.6,5.9c2.2-0.3,4.4-0.7,6.6-1
			C741.6,458.3,742.7,458.1,743.8,457.9z"/>
		<path fill="#A3A72E" d="M707.1,428.2c1-2.2,2.2-4.5,3.1-6.8c2.3-0.7,4.6-0.6,6.8,1.5c1.4,1.3,2,2.9,2.1,4.5c1.6-0.7,3.2-1.3,4.8-2
			c-0.4-3-1.9-5.8-4.8-8.2c-2.7-2.3-6.9-3.9-10.4-2.5c-2,0.8-3.6,2.6-4,4.6c-1,1.6-1.6,3.6-1.9,5.3c-0.4,2.7-1,6.4-0.5,9.5
			c1.2-0.5,2.3-0.9,3.5-1.4C705.7,431.2,706.4,429.6,707.1,428.2z"/>
		<path fill="#A3A72E" d="M807.2,413.6c2.3,2.4,3.6-1.1,6.9-5c1-1.1,2.4-2.7,3.9-4.3c-3.9,2.9-7.8,5.7-11.8,8.4
			C806.6,413,806.9,413.3,807.2,413.6z"/>
		<path fill="#A3A72E" d="M838.5,411.2c2.1,2.9,4.2,6.1,5.8,5.2s4.2-3.3,5-4.6s-3.4-5.6-11.9-15c-1.6-1.8-3.1-3.2-4.3-4.4
			c-1.9,1.5-3.9,3.1-5.8,4.6C829.9,400.4,836.8,408.9,838.5,411.2z"/>
		<path fill="#A3A72E" d="M844.4,437c3.1-3.1,3.5-4.8,1-7.5s-4.2-1.9-8.8,2.1s-14.2,9.9-14.2,9.9s-9.1-9.5-12.5-12.9s-4.5-3-8.5,0
			c-4.2,3.2-2.8,3.4-1.9,5.4c0.7,1.5,8.3,7.8,13.6,12.1c9-1.7,18-3.4,26.9-5.3C842,439.2,843.6,437.8,844.4,437z"/>
		<path fill="#A3A72E" d="M944,414.4c2.7-1.9,5.1-4.1,6-7.4c1.1-3.9,0.6-8.2,0-12.2c5-0.4,9.7-3.7,11.6-8.6
			c2.8-7.4-1.7-16.3-10.1-16.8c-7.8-0.5-12.6,6.9-13.3,13.8c-0.3,3.3,0,7.7,2.4,10.2c1.2,1.3,3.1,2.2,5,2.3c0.1,3.3,0.3,6.8-1.2,9.8
			c-1.9,4-6.8,6-10.5,8.1c-4,2.2-8,4-12.5,5c-1.9,0.5-5.4,0-7.8,0.8c-0.5-2.9-1-5.8-1.5-8.7c-0.8-5.1-2.2-10.2-2.5-15.4
			c0-0.7-0.1-1.3-0.1-2c5.5-2.3,10.4-6.5,11.9-12.4c1.6-6.5,1.7-14.2-0.5-20.6c-4.5-12.8-20.6-17.9-31.1-8.7
			c-4,3.5-9.1,9.5-10.8,14.6c-1.3,4.1-1.4,9.5,0.6,13.5c-0.2,5.3,3.2,9.9,8.1,12.7c4.2,2.4,9,3.3,13.7,2.8c0.1,0.8,0.2,1.6,0.3,2.4
			c0.6,5.3,1.7,10.6,2.4,15.9c0.5,3.8,0.7,7.9,0.9,12c9.9-2.6,19.8-5.4,29.6-8.4C937.8,416.2,940.9,415.3,944,414.4z M944.2,384.2
			c0.2-2.5,3.7-6.8,6.4-6.9c4-0.2,4.6,4.5,3,7.2s-4,3.8-6.8,4.2C945.3,387.7,944,386.6,944.2,384.2z M888.7,378.5
			c-0.1-1.9-0.6-3.8-0.7-6c-0.1-3.7,1.2-7.4,3.4-10.4c5.2-7,16.1-9.1,20,0.5c1.3,3.2,2,8.1,1.1,11.6c-0.8,3.4-4.4,6.6-7.6,8
			C899.5,384.5,892.6,383.1,888.7,378.5z"/>
		<path fill="#A3A72E" d="M944.9,276.1c2.4-6-3.8-10.1-9.2-9.8c-5.9,0.3-9.3,5.7-6.4,11c1.2,2.3,3.4,4.5,6,5.1
			c0.9,0.2,1.9,0.2,2.7-0.1c1.9-0.5,3.7-1.8,5.1-3.3c2.7,1,5.3,2.2,8,3.4c2.7,1.1,7.6,1.6,9.5,3.7c1.4,1.5,1,2.6,0.9,4.6
			c-0.1,1.9-0.2,3.8-0.2,5.6c-0.1,3.4-0.2,6.7-0.3,10.1c-2.1,1.4-3.7,3.1-5.8,4.7c-3.3,2.5-7.6,0.8-11.4-0.3
			c-3.9-1.2-7.7-2.6-11.4-4.2c-1.9-0.8-3.8-2-5.8-2.4c0.3-2-0.2-4.4-1.2-5.9c-2.7-4.3-10.2-5.6-13.7-1.6c-2.9,3.3-2.9,10.7,1.1,13.2
			c3.7,2.4,7.6,0.9,10.7-1.6c0.7-0.3,1.4-0.8,1.9-1.3c6.6,3.9,14.5,6.2,22,7.8c2.4,0.5,5.4,1.7,7.9,0.9c1.3-0.5,2.2-1.5,3.2-2.4
			c1.7-1.5,3.4-2.8,5.2-4.1c0.2-0.1,0.4-0.2,0.6-0.4c0.1,0,0.1-0.1,0.2-0.1c3.8,1.3,8,2,11.9,3.2c4.2,1.4,8.2,3.8,12.5,5.1
			c-0.5,2.2-0.1,4.7,1.2,6.6c3.1,4.7,10.4,5.1,14.2,1c3.5-3.7,2.6-11.7-2.2-14.1c-2.5-1.3-5.7-0.5-8.1,1.3c-1.4,0.2-2.6,0.8-3.4,1.8
			c-3.3-2.3-7.8-3.6-11.4-4.9c-4.4-1.5-9.5-3.4-14.3-3.6c0-4.1,0.1-8.3,0-12.4c0-2.5,0.8-6.4-1-8.5c-2-2.3-7.5-2.6-10.2-3.6
			c-3-1.1-5.8-3-9-3.3C944.7,276.7,944.8,276.4,944.9,276.1z M939.5,277c-1,0.9-2.3,1.1-3.5,1.4c-1.9-0.6-3.5-3.1-3.8-4.7
			c-0.7-3.9,4.6-4,7-2.9C942.2,272.2,941.8,275.1,939.5,277z M922.5,303.7c-1.6,1.8-3.7,3.8-6.2,3.3c-2.9-0.5-3.1-4.7-2-6.9
			c1.5-3,6.8-2.1,8.1,0.8C922.7,301.7,922.7,302.8,922.5,303.7z M994.1,315.7c1.2-1.1,2.8-1.9,4.3-2.1c4-0.6,5.2,5.7,3.2,8.2
			c-1.9,2.4-6.2,2.2-8.1-0.1C991.5,319.3,992.5,317.4,994.1,315.7z"/>
		<path fill="#A3A72E" d="M1098.8,323.8c8.1,6.5,7.8,12.4,15.9,0.4s26.8-41.7,33.2-51.9s11.3-12.1,5-14.2s-8.9-1.8-12.4,2.5
			s-28.8,37.4-32.6,43.2s-2.9,8.9-4.6,7.1c-8.1-8.4-20.5-19.3-23-20.6s-3.6-2.1-7.9,1.8s-10.7,8.5-8.6,12.1
			S1090.7,317.2,1098.8,323.8z"/>
		<path fill="#A3A72E" d="M1144,225c-1-0.2-0.8-1.5,0-1.8c1.9-0.6,4-1.1,6.1-1.5c2.4-1.1,5.2-2.1,7.9-2.8c-0.8-0.7-2-1.4-3.8-2.2
			c-8.8-3.9-22-8.1-31-8.5s-12.8,0.8-15.8,1.1s-9.8,8.1-19.5,19.5s-28,33.2-32.9,39.4s-5.1,7,0.5,8.2s8.2,3,11.6-1
			c16.6-19.6,31.1-38.4,35.4-44.5s3.8-6.9,10.8-6.4s30.2,6.1,35,7.1s4.8,2.3,7.5-3.1c0.6-1.2,1.3-2.2,1.9-3.2
			C1153.1,225.7,1148.4,225.9,1144,225z"/>
		<path fill="#A3A72E" d="M967.8,166.6c6.7,3.5,22.2,6.2,33.1,16s12.3,9.6,9,11.4s-22.4,18-28.4,19.8c-5.1,1.5-5.9,1.2-5.6,5.6
			s1.2,11.7,1.4,14.1s1.5,1.8,8.6-2s26-16.5,38.5-26c12.5-9.5,17.4-15.8,16.1-19.2s-20.1-22.1-38.1-28.6s-32.7-11.2-34.6-10.9
			s-1.7,1.1-3.1,5.4s-3.2,7.6-3.5,9.2S961.1,163.1,967.8,166.6z"/>
		<path fill="#A3A72E" d="M874,225c8.8,1.7,25.4,3.4,39,9.4s22.6,8.9,25.1,9.4s2.6-0.5,4.2-5.4s2.9-7.1,3.9-9.8s1.2-1.8-5.2-4.6
			s-15.9-5.8-28.4-8.6s-18.5-5.1-18.5-5.1s6.6-6.2,12.1-12.6c13.7-15.6,28.7-24.9,31.4-27.9s1.1-3.2-2.4-5.8s-9.8-6.5-11.6-7.8
			s-3.4-0.9-9,3.6s-28.2,25.5-36,36s-15.1,20.1-15.5,23.9S865.2,223.3,874,225z"/>
		<path fill="#A3A72E" d="M787.6,268.4c1.2-0.6,2.2-1.4,3.4-2.1c1.1-0.6,2.2-1.2,3.4-1.8c0.1,0,0.2-0.1,0.2-0.2
			c1.5,1.3,3.3,2.3,5.3,2.6c2.2,0.7,4.5,0.8,6.9-0.2c3.5-1.5,6.3-4.9,7.6-8.4c1-2.8,1.4-5.8,1-8.7c1.4-1.4,2.6-2.9,4.3-3.9
			c1.2-0.6,1.9-2.2,1.2-3.8v-0.1c-0.6-1.3-2.6-1.7-3.8-1c-1.4,0.8-2.6,1.9-3.6,3.3c-1.7-2.8-4.6-4.7-8.6-5
			c-8.2-0.5-15.4,5.6-15.5,13.9c0,2.2,0.6,4.5,1.7,6.7c-2.4,1.2-4.8,2.6-6.6,4.5C782.2,266.4,785,269.7,787.6,268.4z M800.6,244.1
			c2.1-0.5,5.4-0.5,7.3,0.7c2.4,1.6,2.8,5.5,2.8,8.1c-0.1,8.2-5.7,10.8-12.1,9.2c-2-1.1-3.7-2.6-4.7-5.1
			C791.7,251.4,794.6,245.4,800.6,244.1z"/>
		<path fill="#A3A72E" d="M791.8,154.6c2,0.9,4,1.8,6,2.9c1.3,0.7,2.6,2,4.1,1.6c2.1-0.5,1.5-3.2-0.2-3.6c-2.1-1-4-2.1-6.1-3
			c2.1-2,4.4-4.1,5.2-6.7c0.1-0.4-0.3-0.7-0.6-0.6c-3.5,0.6-6.4,4.4-8.6,6.8C790.8,152.7,790.8,154.1,791.8,154.6z"/>
		<path fill="#A3A72E" d="M808.7,146.7c1,0.4,1.9,0.8,2.9,1.2c0.3,0.1,0.6,0.2,0.9,0.3c-0.1,0.1-0.2,0.2-0.2,0.2
			c-0.4,0.6-0.9,1.2-1.3,1.8c-0.8,1.2-1.6,2.4-2.3,3.7l0,0c-1.1,2,1.9,4.2,3.3,1.9c1-1.5,1.9-3.1,3-4.5c0.8-1.1,2.1-2.1,2.3-3.5
			c0.4-3.4-5.1-3.7-7.3-4.1C808.3,143.5,806.9,145.9,808.7,146.7z M814,148.7C814,148.7,813.9,148.7,814,148.7
			C814.2,148.7,814.2,148.7,814,148.7z"/>
		<path opacity="0.3" fill="#091426" enable-background="new    " d="M818.1,404.3c2-1.5,4.1-3.1,6.1-4.7c1-0.8,2.1-1.7,3.1-2.5
			c-0.6-0.8-1-1.2-1-1.2S821.8,400.3,818.1,404.3z"/>
		<path opacity="0.3" fill="#091426" enable-background="new    " d="M587.4,491.1c1.3,1.3,3,1.3,4.9,0.8c5-1.4,7.2-6.3,4.5-10.8
			c-0.4-0.6-0.8-1.1-1.3-1.6c-3.1,1.5-6.2,2.8-9.3,3.7C585.9,485.8,586.8,488.5,587.4,491.1z"/>
		<path opacity="0.3" fill="#091426" enable-background="new    " d="M754.5,412c-0.9,0.4-1.9,0.9-2.8,1.3
			c0.1,5.8-2.1,12.5-3.2,17.6c-0.9,3.9-1.7,7.8-2.4,11.7c11.2-4.3,22.3-8.8,33-14c9.5-4.6,18.5-10,27.2-15.9c-1.8-1.6-3.2-2-3.2-3.5
			c0-1.8,0.9-2.5,2.6-4.2c11.1-11.1,17.1-15.3,19-16c1.5-0.6,3.3-1.2,8.3,3.5c4.3-3.4,8.6-6.9,12.9-10.4
			c7.5-6.2,15.6-11.5,23.3-17.3c0.1,0,0.1-0.1,0.2-0.2c0.4-0.2,0.7-0.3,1.1-0.5c1.9-0.8,1.2-4-0.9-3.3
			c-36.7,11.9-71,30.2-105.8,46.7C761.9,411.3,758.3,412.4,754.5,412z"/>
		<path opacity="0.3" fill="#091426" enable-background="new    " d="M590.3,311.2c3.2-5.8,6.8-8.8,12.6-9.9c-0.1-1.1,0-2.3,0.4-3.3
			c0.9-2.7,3.2-4.7,5.8-5.8c5.4-2.4,11.7,0.2,13,6.2c1.1,5.6-4,10.4-9.1,11.5c-3.8,0.8-7.7-1.8-9.1-5.2c-3.4,0.5-6.1,1.4-8.4,4.4
			c-1.6,2-2.7,4.3-3.9,6.6c-2.3,4.6-4.1,9.3-5.1,14.4c3.7-0.8,7.5-1.6,11.2-2.3c9.8-1.9,19.7-3.2,29.7-3.4
			c3.5-8.1,7.4-16.1,11.1-24.1c3.5-7.5,7-15.1,10.6-22.5c2.8-5.8,5.9-11.4,8.8-17.2c1.7-2.3,3.1-4.8,3.2-7.5c0-0.5-0.5-0.6-0.8-0.3
			c-1.4,1.2-2.6,2.8-3.7,4.4c-1.5,1.9-2.9,4-4.2,6c-2.2,2.7-4.4,5.4-6.8,7.9c-4,4.2-8.9,7.4-14.3,9.2c0.6-5.7,2-11.2,3.6-16.7
			c4-13.1,9.8-25.5,14.6-38.3c2.7-7.2,4.9-14.6,6.3-22.1c0-2.1,0-3.1,0.6-3.6c0.6-4.2,0.9-8.5,0.7-12.8c-0.2-7.8-1.4-15.2,0.7-22.9
			c1.8-6.7,5.2-12.7,8.9-18.5c-2.5,1-4.9,2-7.3,3.2c-9.3,4.5-18.9,10.3-26.4,17.4c-0.6,0.6-1.2,1.1-1.7,1.7c-0.6,0.9-1.3,1.9-2,2.8
			c-0.2,0-0.3-0.1-0.5-0.1c-2.1,2.5-3.9,5.3-5.4,8.2c-1.7,3.4-2,6.8-2.5,10.3c2.6,0.7,5.4,1.3,8.2,1.5c0,0-17.4,24.5-31,60.2
			c-9.7,25.4-18.8,58-25.2,83.1c3.7-1.2,7.4-2.2,11.2-3.1C583.8,323.6,587,317.1,590.3,311.2z"/>
		<path opacity="0.3" fill="#091426" enable-background="new    " d="M511.9,231.4c-0.6,0.6-1.2,1.1-1.8,1.7c3,2.4,6.3,4.1,9.7,5.2
			c9.2,3,16.8,3.9,22,4.2c1.9-2.5,3.8-5.1,5.7-7.6c-5.6-0.2-16.6-1.7-28.1-9.8C516.8,227.1,514.3,229.2,511.9,231.4z"/>
		<path opacity="0.3" fill="#091426" enable-background="new    " d="M483,280.1c-2.8,0.3-4.2,5.1-4.4,7.6c-0.4,4.9,5.5,3.9,7.6,1.3
			c1.1-1.4,1.5-3.2,1.8-5.1C487.2,281.8,485.9,279.8,483,280.1z"/>
		<path opacity="0.3" fill="#091426" enable-background="new    " d="M483.1,263.3c-1.4,1.5-2.9,3.1-4.4,4.6
			c-7.6,7.5-12.8,16.4-17.2,25.8c-1.4,6.5-2.4,12-2.6,16.1c-1,17.5,1.1,28.9,9.5,27.5s22.6-12.9,37.8-42.2c1.5-3,3.7-6.6,6.2-10.6
			c-1.5,0.7-3.1,1.4-4.8,1.9c-4.1,1.2-11.3,2.5-15.9,0.6c-0.7,3.5-3.1,6.6-6.8,7.7c-4.9,1.5-9.9-1.8-9.5-7
			c0.4-4.9,2.6-11.4,8.5-11.1c3,0.2,6,2.2,7.1,4.9c0.2,0.2,0.4,0.4,0.5,0.7c0.2,0.7,0.3,1.4,0.4,2.2c1.6-0.3,3.2-0.1,5-0.2
			c3.8-0.3,7.6-1.4,11.1-3c3.9-1.8,7.4-4.4,11-6.7c1.5-2.2,3.1-4.5,4.7-6.8C505.2,271.1,492.4,268.9,483.1,263.3z"/>
		<path opacity="0.3" fill="#091426" enable-background="new    " d="M617.5,302.5c0.8-3.9-2.7-7.1-6.4-5.4
			c-1.5,0.7-2.6,1.9-3.1,3.5c-0.2,0.8-0.3,1.4-0.4,2c0.1,0.2,0.1,0.4,0.2,0.5C609.9,306.9,616.6,307.3,617.5,302.5z"/>
		<path opacity="0.3" fill="#091426" enable-background="new    " d="M614.3,164.8c-4.8-2.2-9.7-4.5-14.3-7.1l0,0
			c-1.2-0.9-2.5-1.9-3.7-2.8c-2.2-2.1-4.2-4.3-6.2-6.5c-5.4-6.2-9.9-13.2-13.4-20.6c-1.9-4.1-3.5-8.2-4.9-12.4
			c-1.1-3.2-1.4-7.3-3-10.4c-0.1-0.9-0.3-1.8-1-2.7c-0.3-0.4-0.8-0.4-1.1-0.1c-4,3.2-2.9,10.8-2.9,15.4c0.1,6.3,0.9,12.3,2.6,18.4
			c1.8,6.3,4.2,12.3,6.5,18.4c0.6,1.5,1.1,3.3,1.8,5.2c-5.1-3.6-10-7.5-14.3-12.3c-1.7-1.9-3.5-3.9-5.1-6c-0.1,0.4-0.2,0.7-0.3,1.1
			c-0.7,2-1.8,4-3.2,5.6c0.8,1.4,1.7,2.7,2.6,3.9c3.3,4.5,7,9.1,11.1,13.2c-2.9,2.7-4.8,7.3-6.5,10.8c-3.7,7.9-7.8,15.6-12.3,23.1
			c-2.1,3.5-4.1,7.3-6.6,10.5c-2.3,3-5.4,4.8-8.6,6.9c-1.6,1.1-3.2,2.2-4.8,3.3c9.8,5.7,21.2,6.7,27.3,6.7
			c21.1-27.9,40.8-52.5,40.8-52.5s9.3,8.9,22,13.7c0.1-6.5,3.6-13.8,7.2-18.8C620.6,167.4,617.4,166.2,614.3,164.8z"/>
		<path opacity="0.3" fill="#091426" enable-background="new    " d="M720.1,436.7c-1.4,1.7-3.5,3.1-5.6,3.9c1.7,4.8,3.1,8.8,8.6,11
			h0.1c1.8-0.7,3.5-1.4,5.3-2.1c3.6-1.4,7.2-2.8,10.8-4.2c0.7-4.1,1.5-8.3,2.3-12.4c0.9-4.2,1.9-8.3,2.7-12.5
			c0.2-1.3,0.4-2.6,0.5-3.9c-6.9,3.1-13.9,6-20.9,8.9C724.4,429.2,723,433.2,720.1,436.7z"/>
		<path opacity="0.3" fill="#091426" enable-background="new    " d="M577.2,544.5c3.4,2.9,9.2,4.4,9.8-1.8c0.2-1.9,0.8-5.3-0.7-6.7
			c-0.3-0.3-0.7-0.5-1.1-0.6c-2.2-0.1-4.2,0.1-6.3,1.6c-1.6,1.1-2.3,2.5-2.9,4.1c-0.1,0.8,0,1.6,0.2,2.5
			C576.5,543.9,576.9,544.2,577.2,544.5z"/>
		<path opacity="0.3" fill="#091426" enable-background="new    " d="M998.9,401.4c-18.7,3.1-36.8,7.8-54.9,13.1
			c-0.5,0.4-1.1,0.7-1.6,1.1c-7.3,4.6-18.1,11.8-27.5,10.6c0.1,0.3,0.1,0.6,0.2,0.9c0.6,3.5,1.5,7.1,2,10.8
			c26.3-10.1,54-22.7,82.8-36.5C999.5,401.3,999.2,401.3,998.9,401.4z"/>
		<path opacity="0.3" fill="#091426" enable-background="new    " d="M871,434c-10.3,2.4-20.6,4.6-31,6.8
			c-5.6,4.6-14.2,11.3-15.8,11.8c-2.1,0.8-3.1-0.8-6.6-3.1c-0.9-0.6-2.6-1.9-4.5-3.4c-23,4.3-46.2,8.2-69.3,11.9
			c-0.9,8.6-1.7,17.2-2.2,25.9c-0.4,7.7-0.1,15.4-0.4,23.1c55.5-21.3,102.4-43.1,158-62.6c2.8-1,5.6-2,8.4-3
			c-1.6-5-2.2-10.4-2.5-15.8C893.8,428.5,882.4,431.4,871,434z"/>
		<path opacity="0.3" fill="#091426" enable-background="new    " d="M706.6,434.8c1.8,2.5,5,2.5,7.4,1.2c3.1-1.8,5.3-5.3,5-8.6
			c-4.4,1.8-8.8,3.6-13.2,5.3C705.9,433.4,706.1,434.1,706.6,434.8z"/>
		<path opacity="0.3" fill="#091426" enable-background="new    " d="M543,532.1c0,0.9,0,1.8,0.1,2.8c0.2,1.4,0.5,3.1,1.3,4.3
			c2.2,3.2,4.7,1.3,5.7-1.3c1-2.7,0.6-8.1-1.7-10.3C544.9,524.4,543.6,529.5,543,532.1z"/>
		<path opacity="0.3" fill="#091426" enable-background="new    " d="M548,131c-2.2-3.9-4-8-6-12.1c-0.2-0.3-0.8-0.2-0.7,0.2
			c0.4,2.9,1,5.8,1.8,8.7c0.6,1.1,1.2,2.3,1.8,3.4C546,131,547.1,130.9,548,131z"/>
		<path opacity="0.3" fill="#091426" enable-background="new    " d="M548.7,136c-0.7,0-1.6,0.3-2.5,0.7c1.1,2.7,2.4,5.4,3.7,7.9
			c0.5-0.9,0.8-2,1-3C551.3,139.8,551.4,136.1,548.7,136z"/>
		<path opacity="0.3" fill="#091426" enable-background="new    " d="M670.6,139.2c3.8-5.6,7.7-11.2,11-17.1c2-3.5,3.7-7.2,5.1-11
			c0.8-2.2,2-4.5,3-6.8l0,0c2.8-3.4,5.1-7.3,2-9.3c-0.6-0.4-1.3,0.2-1.1,0.9c0.1,0.5-0.3,1.2-1.1,2c-0.1,0-0.1,0.1-0.2,0.1
			c-0.6,0.4-1.1,0.9-1.6,1.5c-2.5,2-5.9,4-6.9,4.8c-3,2.2-6.1,4.3-8.9,6.8c-0.5,0.5-1.1,1-1.7,1.5c-3.6,2.2-7.2,6-8.7,7.5
			c-5.8,5.8-10.8,12.4-15,19.3c-3,4.9-5.3,10.2-7.9,15.3c4.6-3.1,9.4-5.8,14.3-8.2C658.8,143.6,664.6,141.1,670.6,139.2z"/>
		<path opacity="0.3" fill="#091426" enable-background="new    " d="M734.4,509.6c-0.8-8.5-0.3-17.3,0.1-25.7
			c0.4-7.9,1-15.8,2.3-23.7c-0.9-0.2-1.9-0.4-2.9-0.7c-14.2,2.1-28.5,3.9-42.8,6.2c2.8-1.3,5.6-2.7,8.5-4c6.2-2.8,12.4-5.5,18.7-8.1
			c-4.6-2.8-7.9-6.7-7.6-12.2c-3,0.1-5.9-1.2-7.5-4.5c-0.4-0.8-0.7-1.8-0.8-2.8c-21.6,8.6-43.4,16.8-64.8,25.9
			c-10.7,4.5-21.3,9.3-31.7,14.5c-2.3,1.2-4.6,2.4-6.9,3.5c0.8,1,1.4,2.1,1.9,3.2c2.7,6.6-1.8,13.3-8.6,14.6
			c-3.8,0.7-7.7-1.1-8.9-4.4c-2.4,1.7-4.6,3.6-6.7,5.5c-1.7,6.2-3.3,12.3-3.5,18.9c-0.2,6.5,2,11.6,3.7,17.3c0.7-0.5,1.5-1,2.2-1.2
			c3.4-1.2,8-0.8,10.7,1.8c2.6,2.6,1.8,8,0.9,11.2c-2.4,8.6-11.4,5.7-16.7,1.7c-2.9-2.2-5.1-6.1-2.7-9.5c0.7-1,1.8-1.9,3.1-2.4
			c-3.7-5.5-4.5-13.6-4.2-19.8c0.2-4.5,1-9.1,2-13.5c-1.9,2-3.8,4.1-5.6,6.2c-5.5,6.4-11,12.4-14.7,20.1c1.4,3.5,1.3,8.3,0.5,11.2
			c-1.4,5-6.5,7.2-10,2.5c-2.1-2.9-3-9.4-1.2-13.2c0.8-3.4,3.3-6.2,7.4-4.2c0.6,0.3,1.1,0.7,1.6,1.2c2.3-7.3,8.8-13.3,13.6-18.9
			c3.5-4.1,7.2-7.9,11.1-11.3c0.2-0.2,0.4-0.3,0.5-0.5c2.4-2.1,4.9-4,7.6-5.8c0-0.3,0.1-0.6,0.2-1c-0.2-1.1-0.4-2.1-0.4-3.2
			c-2.2,0.5-4.5,0.8-6.9,0.8c-0.5-2.7-0.4-5.4,0.2-8.2c0.1-0.3,0.1-0.6,0.2-0.9c1.2-1.5,2.6-2.9,3.9-4c4.9-4.3,10.2-8.2,15.3-12.3
			c10.8-8.6,21.6-17.3,32.4-25.9c12.7-10.2,25.3-20.3,38-30.4c-1.1,0.1-1.8,0.1-1.8,0.1c-3.6-0.1-5.3,1.6-4.6-6.5s5.1-29.1,5.5-31.9
			s1.1-3.5,4.8-3.2s6.3-0.2,6,3.2s-4.9,25.9-4.9,25.9s7.2-0.6,11.6-0.7c3.4-2.6,6.7-5.3,10.1-7.8c3.5-2.7,7.1-5.4,10.7-8.1
			c1.1-4.7,2.7-11,3.5-13.7c1.2-4.1,1.8-4.7,0.2-4.9s-12.5,1.6-18.1,2.4s-4.6-1.1-3.4-7.5c0.4-2.1,1.2-4.3,4.8-4.6
			s21.5-2.2,28.1-1.2s6.9,1.7,6.5,4.2c-0.2,1-1.4,5.9-2.9,11.7c11.9-8.5,24-16.8,36-25.2c10.7-7.5,20.9-15.4,30.8-24
			c9.7-8.5,19.4-17.1,30.1-24.4c11.5-7.8,23.7-14.2,36.6-19.3c12.8-5.1,26.2-7.8,39.5-11.3c0.4-0.1,0.6-0.4,0.7-0.8
			c2.5-0.7,4.9-1.4,7.3-2.3c0.6-0.2,0.5-1.2-0.2-1.1c-16.4,0.8-33.3,5.6-49.1,9.9c-16.1,4.4-32,10-46.7,18
			c-15.5,8.5-30.1,18.6-45.6,27.2c-15.5,8.5-31.4,16.2-47.7,23c-16,6.7-32.3,12.5-48.9,17.4c-6.7-0.6-11.3,2.2-14.9,6.5
			c-3.2,1.3-5.2,4.8-6.4,8.5c-0.5,1.8-1.1,3.6-1.6,5.5c-0.3,0.6-0.6,1.2-0.9,1.8c-3.6,7.4-10.1,14.1-19.1,10.6
			c-4.3-1.7-6.1-4.6-7.4-7.9c0-0.1,0-0.2,0-0.3c-0.9-8.3,1.9-17.2,4.3-25.1c1.9-6.3,4.3-12.5,6.8-18.6c-10.2,0.5-20.3,1.8-30.3,4
			c-5.4,1.2-10.9,2.6-16.1,4.5c-2.5,0.9-5.1,2.3-7.7,2.9c-1.9,7.6-3.5,14.4-4.7,19.7c-5.4,23.4-3.6,22.5-12,36.5
			c-6.4,10.7-15.5,24.4-21.5,44.7c11-10.2,16-14.3,18.6-14.2c2.9,0.1,3.3,6.1,2.4,8.2c-0.8,1.9-20,16-24.2,19.1
			c-0.1,0.3-0.1,0.6-0.2,0.9c2,1,8.4,4.2,13.1,6.9c5.6,3.2,10.8,4.6,10.9,9.1s-1.4,7.3-4.2,7.2c-2.4-0.1-16.5-10-21.3-13.5
			c-3.9,29.4,1.7,26.7-0.1,65.9c-0.8,17.4-0.8,30-0.5,38.7c19.3-5.1,41.9-10.6,69.6-17.4C651.3,538.9,695.1,524.4,734.4,509.6z
			 M566,423.2c0.2-3.9,0.4-5.4,4.6-4.8c24.6,3.7,31.9,4.6,31.9,6.1s1.4,6.9,0,9s-14.8,15.6-22.8,22.5s-10,6.6-10.2,3.2
			s-0.8-8.2,1.5-10.6s13.2-12.8,13.2-12.8s-8.2-2.8-14.2-4.1S565.8,427.1,566,423.2z"/>
		<path opacity="0.3" fill="#091426" enable-background="new    " d="M510.1,233.1c-9.8,9.3-17.8,20.3-26.9,30.2
			c9.3,5.6,22.1,7.8,40.7,4.2c5.4-7.8,11.6-16.3,18-24.9c-5.2-0.3-12.8-1.3-22-4.2C516.3,237.2,513.1,235.5,510.1,233.1z"/>
		<path opacity="0.3" fill="#091426" enable-background="new    " d="M519.4,225.1c11.5,8.1,22.5,9.7,28.1,9.8
			c2.2-2.9,4.3-5.8,6.5-8.6c-6.1,0-17.5-1-27.3-6.7C524.1,221.3,521.7,223.2,519.4,225.1z"/>
		<path fill="#A3A72E" d="M497,284c-1.9,0.1-3.5-0.1-5,0.2c0-0.7-0.2-1.5-0.4-2.2c-0.1-0.3-0.3-0.5-0.5-0.7
			c-1.2-2.7-4.1-4.8-7.1-4.9c-5.9-0.3-8.1,6.2-8.5,11.1c-0.4,5.2,4.6,8.5,9.5,7c3.6-1.1,6.1-4.2,6.8-7.7c4.6,1.9,11.8,0.6,15.9-0.6
			c1.7-0.5,3.3-1.1,4.8-1.9c2-3.1,4.2-6.5,6.6-10.1c-3.6,2.3-7.1,4.9-11,6.7C504.6,282.6,500.8,283.7,497,284z M486.2,289
			c-2,2.6-7.9,3.6-7.6-1.3c0.2-2.5,1.6-7.3,4.4-7.6c2.9-0.3,4.2,1.7,5,3.9C487.7,285.8,487.3,287.6,486.2,289z"/>
		<path opacity="0.3" fill="#091426" enable-background="new    " d="M497,284c-1.9,0.1-3.5-0.1-5,0.2c0-0.7-0.2-1.5-0.4-2.2
			c-0.1-0.3-0.3-0.5-0.5-0.7c-1.2-2.7-4.1-4.8-7.1-4.9c-5.9-0.3-8.1,6.2-8.5,11.1c-0.4,5.2,4.6,8.5,9.5,7c3.6-1.1,6.1-4.2,6.8-7.7
			c4.6,1.9,11.8,0.6,15.9-0.6c1.7-0.5,3.3-1.1,4.8-1.9c2-3.1,4.2-6.5,6.6-10.1c-3.6,2.3-7.1,4.9-11,6.7
			C504.6,282.6,500.8,283.7,497,284z M486.2,289c-2,2.6-7.9,3.6-7.6-1.3c0.2-2.5,1.6-7.3,4.4-7.6c2.9-0.3,4.2,1.7,5,3.9
			C487.7,285.8,487.3,287.6,486.2,289z"/>
		<path fill="#A3A72E" d="M548,131c-1-0.1-2,0-3.1,0.2c-0.6-1.2-1.2-2.3-1.8-3.4c0.8,3,1.8,5.9,3,8.8c0.9-0.4,1.8-0.7,2.5-0.7
			c2.8,0.1,2.6,3.8,2.3,5.6c-0.2,1-0.5,2-1,3c0.6,1.1,1.2,2.2,1.8,3.2c1.4-1.6,2.5-3.6,3.2-5.6c0.1-0.4,0.2-0.7,0.3-1.1
			c-2-2.4-3.9-4.9-5.6-7.5C549,132.7,548.5,131.9,548,131z"/>
		<path opacity="0.3" fill="#091426" enable-background="new    " d="M548,131c-1-0.1-2,0-3.1,0.2c-0.6-1.2-1.2-2.3-1.8-3.4
			c0.8,3,1.8,5.9,3,8.8c0.9-0.4,1.8-0.7,2.5-0.7c2.8,0.1,2.6,3.8,2.3,5.6c-0.2,1-0.5,2-1,3c0.6,1.1,1.2,2.2,1.8,3.2
			c1.4-1.6,2.5-3.6,3.2-5.6c0.1-0.4,0.2-0.7,0.3-1.1c-2-2.4-3.9-4.9-5.6-7.5C549,132.7,548.5,131.9,548,131z"/>
		<path fill="#A3A72E" d="M670.6,139.2c-6,2-11.8,4.4-17.6,7.2c-4.8,2.4-9.7,5-14.3,8.2c-1.2,2.5-2.5,5-4,7.4
			c-1.1,1.9-2.4,3.8-3.6,5.6c0.6-0.6,1.1-1.2,1.7-1.7c7.6-7.1,17.1-13,26.4-17.4c2.4-1.1,4.8-2.2,7.3-3.2c0.3-0.4,0.6-0.9,0.9-1.3
			C668.5,142.4,669.6,140.8,670.6,139.2z"/>
		<path opacity="0.3" fill="#091426" enable-background="new    " d="M670.6,139.2c-6,2-11.8,4.4-17.6,7.2c-4.8,2.4-9.7,5-14.3,8.2
			c-1.2,2.5-2.5,5-4,7.4c-1.1,1.9-2.4,3.8-3.6,5.6c0.6-0.6,1.1-1.2,1.7-1.7c7.6-7.1,17.1-13,26.4-17.4c2.4-1.1,4.8-2.2,7.3-3.2
			c0.3-0.4,0.6-0.9,0.9-1.3C668.5,142.4,669.6,140.8,670.6,139.2z"/>
		<path fill="#A3A72E" d="M628.7,170.3c-0.8-0.2-1.7-0.5-2.5-0.8s-1.6-0.6-2.4-0.9c-3.5,5-7.1,12.3-7.2,18.8c1.3,0.5,2.7,1,4.1,1.3
			c0.5-3.5,0.8-6.9,2.5-10.3C624.8,175.5,626.6,172.8,628.7,170.3z"/>
		<path opacity="0.3" fill="#091426" enable-background="new    " d="M628.7,170.3c-0.8-0.2-1.7-0.5-2.5-0.8s-1.6-0.6-2.4-0.9
			c-3.5,5-7.1,12.3-7.2,18.8c1.3,0.5,2.7,1,4.1,1.3c0.5-3.5,0.8-6.9,2.5-10.3C624.8,175.5,626.6,172.8,628.7,170.3z"/>
		<path fill="#A3A72E" d="M595.1,332.7c10-2.2,20.1-3.4,30.3-4c0.6-1.5,1.3-3,1.9-4.5c-10,0.2-19.9,1.5-29.7,3.4
			c-3.8,0.7-7.5,1.5-11.2,2.3c1-5,2.7-9.7,5.1-14.4c1.2-2.3,2.3-4.6,3.9-6.6c2.4-2.9,5.1-3.9,8.4-4.4c1.4,3.4,5.3,6,9.1,5.2
			c5.2-1.1,10.2-5.9,9.1-11.5c-1.2-6-7.6-8.6-13-6.2c-2.6,1.1-4.8,3.1-5.8,5.8c-0.3,1-0.5,2.2-0.4,3.3c-5.8,1.1-9.4,4.1-12.6,9.9
			c-3.3,6-6.5,12.5-6.3,19.3c-3.8,0.9-7.5,1.9-11.2,3.1c-0.6,2.2-1.1,4.4-1.6,6.4c2.6-0.5,5.2-2,7.7-2.9
			C584.2,335.3,589.7,333.9,595.1,332.7z M608.1,300.7c0.4-1.6,1.5-2.8,3.1-3.5c3.7-1.8,7.2,1.4,6.4,5.4c-0.9,4.7-7.6,4.4-9.7,0.7
			c-0.1-0.2-0.2-0.4-0.2-0.5C607.8,302.1,607.8,301.5,608.1,300.7z"/>
		<path opacity="0.3" fill="#091426" enable-background="new    " d="M595.1,332.7c10-2.2,20.1-3.4,30.3-4c0.6-1.5,1.3-3,1.9-4.5
			c-10,0.2-19.9,1.5-29.7,3.4c-3.8,0.7-7.5,1.5-11.2,2.3c1-5,2.7-9.7,5.1-14.4c1.2-2.3,2.3-4.6,3.9-6.6c2.4-2.9,5.1-3.9,8.4-4.4
			c1.4,3.4,5.3,6,9.1,5.2c5.2-1.1,10.2-5.9,9.1-11.5c-1.2-6-7.6-8.6-13-6.2c-2.6,1.1-4.8,3.1-5.8,5.8c-0.3,1-0.5,2.2-0.4,3.3
			c-5.8,1.1-9.4,4.1-12.6,9.9c-3.3,6-6.5,12.5-6.3,19.3c-3.8,0.9-7.5,1.9-11.2,3.1c-0.6,2.2-1.1,4.4-1.6,6.4c2.6-0.5,5.2-2,7.7-2.9
			C584.2,335.3,589.7,333.9,595.1,332.7z M608.1,300.7c0.4-1.6,1.5-2.8,3.1-3.5c3.7-1.8,7.2,1.4,6.4,5.4c-0.9,4.7-7.6,4.4-9.7,0.7
			c-0.1-0.2-0.2-0.4-0.2-0.5C607.8,302.1,607.8,301.5,608.1,300.7z"/>
		<path fill="#A3A72E" d="M554,435c0.9-2.2,0.5-8.2-2.4-8.2c-2.6-0.1-7.6,4.1-18.6,14.2c-1.2,4.1-2.3,8.5-3.2,13.1
			C534,451,553.2,436.9,554,435z"/>
		<path opacity="0.3" fill="#091426" enable-background="new    " d="M554,435c0.9-2.2,0.5-8.2-2.4-8.2c-2.6-0.1-7.6,4.1-18.6,14.2
			c-1.2,4.1-2.3,8.5-3.2,13.1C534,451,553.2,436.9,554,435z"/>
		<path fill="#A3A72E" d="M553.6,471.1c-0.1-4.6-5.2-5.9-10.9-9.1c-4.7-2.7-11.1-5.9-13.1-6.9c-0.4,2.2-0.8,4.5-1.2,6.9
			c-0.1,1-0.3,2-0.4,2.9c4.8,3.4,18.9,13.4,21.3,13.5C552.2,478.4,553.7,475.7,553.6,471.1z"/>
		<path opacity="0.3" fill="#091426" enable-background="new    " d="M553.6,471.1c-0.1-4.6-5.2-5.9-10.9-9.1
			c-4.7-2.7-11.1-5.9-13.1-6.9c-0.4,2.2-0.8,4.5-1.2,6.9c-0.1,1-0.3,2-0.4,2.9c4.8,3.4,18.9,13.4,21.3,13.5
			C552.2,478.4,553.7,475.7,553.6,471.1z"/>
		<path fill="#A3A72E" d="M655.7,203c0.2-1.2,0.4-2.4,0.6-3.6C655.7,200,655.7,201,655.7,203z"/>
		<path opacity="0.3" fill="#091426" enable-background="new    " d="M655.7,203c0.2-1.2,0.4-2.4,0.6-3.6
			C655.7,200,655.7,201,655.7,203z"/>
		<path fill="#A3A72E" d="M570,431.9c6.1,1.4,14.2,4.1,14.2,4.1s-10.9,10.4-13.2,12.8s-1.8,7.2-1.5,10.6s2.2,3.6,10.2-3.2
			s21.3-20.4,22.8-22.5s0-7.4,0-9s-7.2-2.5-31.9-6.1c-4.2-0.6-4.4,0.9-4.6,4.8S563.9,430.5,570,431.9z"/>
		<path opacity="0.3" fill="#091426" enable-background="new    " d="M570,431.9c6.1,1.4,14.2,4.1,14.2,4.1s-10.9,10.4-13.2,12.8
			s-1.8,7.2-1.5,10.6s2.2,3.6,10.2-3.2s21.3-20.4,22.8-22.5s0-7.4,0-9s-7.2-2.5-31.9-6.1c-4.2-0.6-4.4,0.9-4.6,4.8
			S563.9,430.5,570,431.9z"/>
		<path fill="#A3A72E" d="M596.8,481.1c2.7,4.5,0.5,9.4-4.5,10.8c-1.9,0.5-3.7,0.5-4.9-0.8c-0.6-2.5-1.4-5.3-1.2-7.8
			c-1.1,0.3-2.3,0.6-3.5,0.9c0,1.1,0.1,2.2,0.4,3.2c-0.1,0.3-0.2,0.6-0.2,1c-2.7,1.8-5.2,3.8-7.6,5.8c-0.2,0.2-0.4,0.3-0.5,0.5
			c-4,3.5-7.6,7.2-11.1,11.3c-4.8,5.6-11.3,11.6-13.6,18.9c-0.5-0.5-1-0.9-1.6-1.2c-4.1-1.9-6.6,0.9-7.4,4.2
			c-1.8,3.8-0.9,10.3,1.2,13.2c3.4,4.7,8.5,2.6,10-2.5c0.8-2.9,1-7.7-0.5-11.2c3.7-7.7,9.2-13.7,14.7-20.1c1.8-2.1,3.7-4.2,5.6-6.2
			c-1,4.4-1.8,9-2,13.5c-0.3,6.3,0.5,14.3,4.2,19.8c-1.2,0.5-2.4,1.3-3.1,2.4c-2.4,3.4-0.2,7.3,2.7,9.5c5.3,4,14.3,6.9,16.7-1.7
			c0.9-3.2,1.7-8.6-0.9-11.2c-2.7-2.6-7.3-3.1-10.7-1.8c-0.8,0.3-1.5,0.7-2.2,1.2c-1.7-5.7-3.9-10.8-3.7-17.3
			c0.2-6.6,1.8-12.6,3.5-18.9c2.1-1.9,4.3-3.8,6.7-5.5c1.2,3.2,5.1,5.1,8.9,4.4c6.8-1.2,11.3-8,8.6-14.6c-0.5-1.1-1.1-2.2-1.9-3.2
			c-1.1,0.6-2.2,1.1-3.3,1.6C596,480,596.4,480.5,596.8,481.1z M550,537.9c-1,2.6-3.5,4.6-5.7,1.3c-0.8-1.2-1.1-2.9-1.3-4.3
			c-0.1-1-0.2-1.9-0.1-2.8c0.6-2.6,1.9-7.7,5.3-4.5C550.6,529.8,551,535.1,550,537.9z M576,541.1c0.7-1.6,1.4-3,2.9-4.1
			c2-1.5,4-1.7,6.3-1.6c0.4,0.2,0.8,0.4,1.1,0.6c1.5,1.4,0.9,4.9,0.7,6.7c-0.6,6.2-6.4,4.7-9.8,1.8c-0.3-0.3-0.7-0.6-1-1
			C576,542.7,575.9,541.9,576,541.1z"/>
		<path opacity="0.3" fill="#091426" enable-background="new    " d="M596.8,481.1c2.7,4.5,0.5,9.4-4.5,10.8
			c-1.9,0.5-3.7,0.5-4.9-0.8c-0.6-2.5-1.4-5.3-1.2-7.8c-1.1,0.3-2.3,0.6-3.5,0.9c0,1.1,0.1,2.2,0.4,3.2c-0.1,0.3-0.2,0.6-0.2,1
			c-2.7,1.8-5.2,3.8-7.6,5.8c-0.2,0.2-0.4,0.3-0.5,0.5c-4,3.5-7.6,7.2-11.1,11.3c-4.8,5.6-11.3,11.6-13.6,18.9
			c-0.5-0.5-1-0.9-1.6-1.2c-4.1-1.9-6.6,0.9-7.4,4.2c-1.8,3.8-0.9,10.3,1.2,13.2c3.4,4.7,8.5,2.6,10-2.5c0.8-2.9,1-7.7-0.5-11.2
			c3.7-7.7,9.2-13.7,14.7-20.1c1.8-2.1,3.7-4.2,5.6-6.2c-1,4.4-1.8,9-2,13.5c-0.3,6.3,0.5,14.3,4.2,19.8c-1.2,0.5-2.4,1.3-3.1,2.4
			c-2.4,3.4-0.2,7.3,2.7,9.5c5.3,4,14.3,6.9,16.7-1.7c0.9-3.2,1.7-8.6-0.9-11.2c-2.7-2.6-7.3-3.1-10.7-1.8c-0.8,0.3-1.5,0.7-2.2,1.2
			c-1.7-5.7-3.9-10.8-3.7-17.3c0.2-6.6,1.8-12.6,3.5-18.9c2.1-1.9,4.3-3.8,6.7-5.5c1.2,3.2,5.1,5.1,8.9,4.4c6.8-1.2,11.3-8,8.6-14.6
			c-0.5-1.1-1.1-2.2-1.9-3.2c-1.1,0.6-2.2,1.1-3.3,1.6C596,480,596.4,480.5,596.8,481.1z M550,537.9c-1,2.6-3.5,4.6-5.7,1.3
			c-0.8-1.2-1.1-2.9-1.3-4.3c-0.1-1-0.2-1.9-0.1-2.8c0.6-2.6,1.9-7.7,5.3-4.5C550.6,529.8,551,535.1,550,537.9z M576,541.1
			c0.7-1.6,1.4-3,2.9-4.1c2-1.5,4-1.7,6.3-1.6c0.4,0.2,0.8,0.4,1.1,0.6c1.5,1.4,0.9,4.9,0.7,6.7c-0.6,6.2-6.4,4.7-9.8,1.8
			c-0.3-0.3-0.7-0.6-1-1C576,542.7,575.9,541.9,576,541.1z"/>
		<path fill="#A3A72E" d="M670.8,390.9c0,0,4.6-22.4,4.9-25.9s-2.4-3-6-3.2s-4.4,0.4-4.8,3.2s-4.8,23.8-5.5,31.9s1,6.4,4.6,6.5
			c0,0,0.7-0.1,1.8-0.1c5.5-4.4,11-8.7,16.5-13C677.9,390.3,670.8,390.9,670.8,390.9z"/>
		<path opacity="0.3" fill="#091426" enable-background="new    " d="M670.8,390.9c0,0,4.6-22.4,4.9-25.9s-2.4-3-6-3.2
			s-4.4,0.4-4.8,3.2s-4.8,23.8-5.5,31.9s1,6.4,4.6,6.5c0,0,0.7-0.1,1.8-0.1c5.5-4.4,11-8.7,16.5-13
			C677.9,390.3,670.8,390.9,670.8,390.9z"/>
		<path fill="#A3A72E" d="M724.8,349c0.4-2.6,0.1-3.3-6.5-4.2s-24.6,0.9-28.1,1.2s-4.4,2.5-4.8,4.6c-1.2,6.4-2.2,8.3,3.4,7.5
			s16.6-2.6,18.1-2.4s1,0.8-0.2,4.9c-0.8,2.7-2.4,9-3.5,13.7c6.2-4.6,12.5-9.1,18.8-13.6C723.4,354.9,724.6,350,724.8,349z"/>
		<path opacity="0.3" fill="#091426" enable-background="new    " d="M724.8,349c0.4-2.6,0.1-3.3-6.5-4.2s-24.6,0.9-28.1,1.2
			s-4.4,2.5-4.8,4.6c-1.2,6.4-2.2,8.3,3.4,7.5s16.6-2.6,18.1-2.4s1,0.8-0.2,4.9c-0.8,2.7-2.4,9-3.5,13.7c6.2-4.6,12.5-9.1,18.8-13.6
			C723.4,354.9,724.6,350,724.8,349z"/>
		<path fill="#A3A72E" d="M741.6,432.9c-0.9,4.1-1.6,8.3-2.3,12.4c2.3-0.9,4.6-1.8,6.9-2.7c0.7-3.9,1.6-7.8,2.4-11.7
			c1.1-5.1,3.3-11.8,3.2-17.6c-2.3,1.1-4.7,2.1-7,3.2c-0.1,1.3-0.3,2.6-0.5,3.9C743.5,424.5,742.4,428.7,741.6,432.9z"/>
		<path opacity="0.3" fill="#091426" enable-background="new    " d="M741.6,432.9c-0.9,4.1-1.6,8.3-2.3,12.4
			c2.3-0.9,4.6-1.8,6.9-2.7c0.7-3.9,1.6-7.8,2.4-11.7c1.1-5.1,3.3-11.8,3.2-17.6c-2.3,1.1-4.7,2.1-7,3.2c-0.1,1.3-0.3,2.6-0.5,3.9
			C743.5,424.5,742.4,428.7,741.6,432.9z"/>
		<path fill="#A3A72E" d="M754.5,412c3.8,0.4,7.4-0.7,9.4-4.4c-3.1,1.5-6.1,2.9-9.2,4.3C754.7,412,754.6,412,754.5,412z"/>
		<path opacity="0.3" fill="#091426" enable-background="new    " d="M754.5,412c3.8,0.4,7.4-0.7,9.4-4.4c-3.1,1.5-6.1,2.9-9.2,4.3
			C754.7,412,754.6,412,754.5,412z"/>
		<path fill="#A3A72E" d="M723,451.6c-5.4-2.2-6.9-6.1-8.6-11c2.2-0.8,4.2-2.2,5.6-3.9c2.9-3.5,4.3-7.5,3.8-11.3
			c-1.6,0.7-3.2,1.3-4.8,2c0.2,3.4-1.9,6.9-5,8.6c-2.4,1.4-5.6,1.3-7.4-1.2c-0.5-0.7-0.7-1.4-0.8-2.2c-1.2,0.5-2.3,0.9-3.5,1.4
			c0.2,1,0.4,2,0.8,2.8c1.6,3.4,4.5,4.6,7.5,4.5c-0.3,5.5,3,9.4,7.6,12.2C719.9,452.9,721.5,452.3,723,451.6L723,451.6z"/>
		<path opacity="0.3" fill="#091426" enable-background="new    " d="M723,451.6c-5.4-2.2-6.9-6.1-8.6-11c2.2-0.8,4.2-2.2,5.6-3.9
			c2.9-3.5,4.3-7.5,3.8-11.3c-1.6,0.7-3.2,1.3-4.8,2c0.2,3.4-1.9,6.9-5,8.6c-2.4,1.4-5.6,1.3-7.4-1.2c-0.5-0.7-0.7-1.4-0.8-2.2
			c-1.2,0.5-2.3,0.9-3.5,1.4c0.2,1,0.4,2,0.8,2.8c1.6,3.4,4.5,4.6,7.5,4.5c-0.3,5.5,3,9.4,7.6,12.2
			C719.9,452.9,721.5,452.3,723,451.6L723,451.6z"/>
		<path fill="#A3A72E" d="M743.8,457.9c-1.1,0.2-2.2,0.4-3.3,0.5c-2.2,0.3-4.4,0.7-6.6,1c1,0.2,2,0.5,2.9,0.7
			c-1.2,7.8-1.8,15.8-2.3,23.7c-0.5,8.5-1,17.3-0.1,25.7c2.3-0.9,4.6-1.7,6.9-2.6c0.2-7.7,0-15.4,0.4-23.1
			C742.1,475.2,742.9,466.5,743.8,457.9z"/>
		<path opacity="0.3" fill="#091426" enable-background="new    " d="M743.8,457.9c-1.1,0.2-2.2,0.4-3.3,0.5c-2.2,0.3-4.4,0.7-6.6,1
			c1,0.2,2,0.5,2.9,0.7c-1.2,7.8-1.8,15.8-2.3,23.7c-0.5,8.5-1,17.3-0.1,25.7c2.3-0.9,4.6-1.7,6.9-2.6c0.2-7.7,0-15.4,0.4-23.1
			C742.1,475.2,742.9,466.5,743.8,457.9z"/>
		<path fill="#A3A72E" d="M824.8,389c-1.9,0.7-7.9,4.9-19,16c-1.7,1.7-2.6,2.4-2.6,4.2c0,1.5,1.3,1.9,3.2,3.5
			c4-2.7,7.9-5.5,11.8-8.4c3.8-4,8.2-8.4,8.2-8.4s0.4,0.5,1,1.2c1.9-1.5,3.9-3.1,5.8-4.6C828,387.8,826.3,388.4,824.8,389z"/>
		<path opacity="0.3" fill="#091426" enable-background="new    " d="M824.8,389c-1.9,0.7-7.9,4.9-19,16c-1.7,1.7-2.6,2.4-2.6,4.2
			c0,1.5,1.3,1.9,3.2,3.5c4-2.7,7.9-5.5,11.8-8.4c3.8-4,8.2-8.4,8.2-8.4s0.4,0.5,1,1.2c1.9-1.5,3.9-3.1,5.8-4.6
			C828,387.8,826.3,388.4,824.8,389z"/>
		<path fill="#A3A72E" d="M824.2,452.6c1.6-0.6,10.2-7.2,15.8-11.8c-9,1.8-17.9,3.6-26.9,5.3c1.9,1.5,3.6,2.8,4.5,3.4
			C821.1,451.9,822.1,453.4,824.2,452.6z"/>
		<path opacity="0.3" fill="#091426" enable-background="new    " d="M824.2,452.6c1.6-0.6,10.2-7.2,15.8-11.8
			c-9,1.8-17.9,3.6-26.9,5.3c1.9,1.5,3.6,2.8,4.5,3.4C821.1,451.9,822.1,453.4,824.2,452.6z"/>
		<path fill="#A3A72E" d="M914.9,426.1c9.4,1.2,20.2-6,27.5-10.6c0.6-0.4,1.1-0.7,1.6-1.1c-3.1,0.9-6.2,1.8-9.3,2.7
			c-9.8,2.9-19.7,5.7-29.6,8.4c0.4,5.4,0.9,10.9,2.5,15.8c3.1-1.1,6.2-2.3,9.4-3.5c-0.5-3.6-1.4-7.2-2-10.8
			C915,426.7,914.9,426.4,914.9,426.1z"/>
		<path opacity="0.3" fill="#091426" enable-background="new    " d="M914.9,426.1c9.4,1.2,20.2-6,27.5-10.6
			c0.6-0.4,1.1-0.7,1.6-1.1c-3.1,0.9-6.2,1.8-9.3,2.7c-9.8,2.9-19.7,5.7-29.6,8.4c0.4,5.4,0.9,10.9,2.5,15.8
			c3.1-1.1,6.2-2.3,9.4-3.5c-0.5-3.6-1.4-7.2-2-10.8C915,426.7,914.9,426.4,914.9,426.1z"/>
		<path opacity="0.3" fill="#091426" enable-background="new    " d="M1183.1,217.7c-3.3-0.4-6.4-0.5-9.4-0.2
			c-3.7-0.2-7.4-0.1-11,0.5c-1.5,0.2-3.1,0.5-4.7,1c2.4,2.1,1.3,3.9-0.3,6.5c1.9-0.1,3.9-0.2,5.7-0.3c6.9-0.2,12.7,1.8,19.1,4
			c7.5,2.6,15,5.1,22.5,7.6c0.7-1.3,1.7-2.5,3.2-3.2c-0.4-0.6-0.7-1.2-1-1.8c-1.2-2.6-2.7-5.9-4.7-9.5c-1.5-0.4-3-0.8-4.5-1.2
			C1193.2,219.6,1188.2,218.4,1183.1,217.7z"/>
		<path opacity="0.3" fill="#091426" enable-background="new    " d="M1212.1,239.2c0.1,0,0.2,0.1,0.3,0.1
			C1212.3,239.2,1212.2,239.2,1212.1,239.2z"/>
		<path opacity="0.3" fill="#091426" enable-background="new    " d="M1209.2,235c0.2,0.3,0.5,0.6,0.7,1
			C1209.7,235.6,1209.4,235.3,1209.2,235z"/>
		<path opacity="0.3" fill="#091426" enable-background="new    " d="M1210.3,236.5c0.3,0.4,0.7,0.9,1.1,1.3
			C1211,237.3,1210.6,236.9,1210.3,236.5z"/>
		<path opacity="0.3" fill="#091426" enable-background="new    " d="M1211.5,237.9c0.4,0.5,0.9,1,1.3,1.5
			C1212.4,238.9,1211.9,238.4,1211.5,237.9z"/>
		<path fill="#A3A72E" d="M1205,236.8c2.4,0.8,4.7,1.6,7.1,2.4c0.1,0,0.2,0.1,0.3,0.1c0.2,0.1,0.3,0.1,0.5,0.2l0,0
			c-0.5-0.5-0.9-1-1.3-1.5l-0.1-0.1c-0.4-0.4-0.8-0.9-1.1-1.3c-0.1-0.2-0.2-0.3-0.4-0.5c-0.2-0.3-0.5-0.6-0.7-1
			c-0.3-0.5-0.7-1-1-1.5C1206.7,234.3,1205.7,235.4,1205,236.8z"/>
		<path opacity="0.3" fill="#091426" enable-background="new    " d="M1205,236.8c2.4,0.8,4.7,1.6,7.1,2.4c0.1,0,0.2,0.1,0.3,0.1
			c0.2,0.1,0.3,0.1,0.5,0.2l0,0c-0.5-0.5-0.9-1-1.3-1.5l-0.1-0.1c-0.4-0.4-0.8-0.9-1.1-1.3c-0.1-0.2-0.2-0.3-0.4-0.5
			c-0.2-0.3-0.5-0.6-0.7-1c-0.3-0.5-0.7-1-1-1.5C1206.7,234.3,1205.7,235.4,1205,236.8z"/>
		<path fill="#A3A72E" d="M1158,219c-2.7,0.7-5.4,1.6-7.9,2.8c-2.1,0.4-4.2,0.8-6.1,1.5c-0.8,0.3-1,1.6,0,1.8
			c4.3,0.9,9,0.7,13.6,0.4C1159.3,222.9,1160.4,221,1158,219z"/>
		<path opacity="0.3" fill="#091426" enable-background="new    " d="M1158,219c-2.7,0.7-5.4,1.6-7.9,2.8c-2.1,0.4-4.2,0.8-6.1,1.5
			c-0.8,0.3-1,1.6,0,1.8c4.3,0.9,9,0.7,13.6,0.4C1159.3,222.9,1160.4,221,1158,219z"/>
		<path opacity="0.3" fill="#091426" enable-background="new    " d="M563.4,648L563.4,648c1.8-2.7,5.7-6,13.1-10.5
			C569.1,642.1,565.2,645.3,563.4,648z"/>
		<path opacity="0.3" fill="#091426" enable-background="new    " d="M983.3,478.7c-94.6,24.5-186.7,60.5-232.8,80.3
			c-12.9,5.5-28.6,12.1-45.2,19.2c16.6-7,32.3-13.7,45.2-19.2C796.6,539.2,888.7,503.2,983.3,478.7s200.8-14.9,234.4-13.6
			c11.1,0.4,20.8,1.3,28.9,2.6l0,0c-8.1-1.3-17.8-2.2-28.9-2.6C1184.2,463.8,1077.9,454.1,983.3,478.7z"/>
		<path opacity="0.3" fill="#091426" enable-background="new    " d="M576.8,637.3L576.8,637.3L576.8,637.3z"/>
		<path fill="#93ABEB" d="M1659.7,333.4c-30.6-43.5-116.3-76.4-192.5-78.9c-71.9-2.4-107.4-4.2-212.3,32.3c-6.3,2.2-12.9,4.5-19.8,7
			c-10.1,3.7-20.3,7.6-30.4,11.6c-2.2,0.9-4.4,1.8-6.6,2.7c-68.7,28.1-136.1,63.4-198.4,93.2c-28.8,13.8-56.5,26.4-82.8,36.5
			c-3.1,1.2-6.3,2.4-9.4,3.5c-2.8,1-5.6,2.1-8.4,3c-55.6,19.4-102.5,41.3-158,62.6c-2.3,0.9-4.6,1.7-6.9,2.6
			c-39.3,14.8-83.1,29.4-137.3,42.5c-27.7,6.7-50.3,12.3-69.6,17.4c-74.4,19.6-98.8,31.6-174.4,73.9c-95.2,53.2-100.5,80.6-92,102
			c6.5,16.1,30.3,31.2,71.9,42.4c3.4-2.7,6.8-5.5,10.1-8.2c1.7-1.4,3.4-2.7,5.1-4.1c18.9-15,104.7-66.7,128.9-81.1
			c27.3-16.2,56.3-32,86.2-46.3c1.8-2.7,5.7-6,13.1-10.5c0.1-0.1,0.2-0.1,0.3-0.2c0,0,0,0,0.1,0c3.5-2.1,7.7-4.5,12.9-7.3
			c23.4-12.5,72.6-33.6,115.6-51.8c16.6-7,32.3-13.7,45.2-19.2c46.1-19.8,138.2-55.8,232.8-80.3s200.9-14.9,234.4-13.6
			c11.1,0.4,20.8,1.3,28.9,2.6c47.1,0.8,94.7,3.9,142,9.5c74.6,8.9,148.5,24.1,218.8,46.5c12.1-11.8,22.1-23.4,28.9-34.6
			C1669.9,434.3,1690.3,376.8,1659.7,333.4z"/>
		<path opacity="0.3" fill="#091426" enable-background="new    " d="M1467.3,428.4c9.2-21.2-36.1-37.3-93.4-21.6
			c-57.3,15.6-85.4,12.2-243.5,24.9s-274,49.7-421.6,96.2C561.2,574.3,490.6,589.1,410,630.5c-80.5,41.4-117.1,81.5-118.3,107.2
			c-0.9,19.8,15.4,33.1,51.5,41.7c1.7-1.4,3.4-2.7,5.1-4.1c18.9-15,104.7-66.7,128.9-81.1c27.3-16.2,56.3-32,86.2-46.3
			c1.8-2.7,5.7-6,13.1-10.5c0.1-0.1,0.2-0.1,0.3-0.2c0,0,0,0,0.1,0c3.5-2.1,7.7-4.5,12.9-7.3c23.4-12.5,72.7-33.6,115.6-51.8
			c16.6-7,32.3-13.7,45.2-19.2c46.1-19.8,138.2-55.8,232.8-80.3s200.9-14.9,234.4-13.6c11.1,0.4,20.8,1.3,28.9,2.6
			c47.1,0.8,94.7,3.9,142,9.5C1417.4,465.5,1459.1,447.2,1467.3,428.4z"/>
	</g>
</g>
</svg>
