<?xml version="1.0" encoding="utf-8"?>
<!-- Generator: Adobe Illustrator 22.1.0, SVG Export Plug-In . SVG Version: 6.00 Build 0)  -->
<svg version="1.1" xmlns="http://www.w3.org/2000/svg" xmlns:xlink="http://www.w3.org/1999/xlink" x="0px" y="0px"
	 viewBox="0 0 2000 2000" enable-background="new 0 0 2000 2000" xml:space="preserve">
	 <g id="Hijab_x5F_back">
	 	<g>
	 		<g>
	 			<path fill="#1D495A" d="M962.6,1066.5c-4.1-1.9-6.2-2.8-10.3-4.7c-10.7,12.3-19.8,21.6-30.1,34.3c2.6,0.4,4.9,3.7,7.9,5.5
	 				c0.7,0.4,1.4,0.8,2.1,1.3c1.1,0.7,2.2,0.5,2.8-0.4c1.7-2.5,2.7-3.8,4.5-6c1-1.2,2.8-0.6,4.2,1.1c2.5,3.3,3.8,4.7,6.6,7.4
	 				c1.4,1.3,1.7,3.4,0.6,4.6c-2.1,2.4-3.1,3.6-5.1,5.9c-0.7,0.8-0.8,2.1-0.3,3.3c0.2,0.5,0.4,0.9,0.5,1.4c0.1,0.2,0.1,0.3,0.2,0.5
	 				c1.9,0.9,3.9,1.6,5.9,2.3C955.8,1104.2,959.2,1085.3,962.6,1066.5z"/>
	 			<path fill="#26766F" d="M946.2,1120.7c0.7,2,1.1,3.9,1.4,5.7c2.3,1,3.6,1.6,3.6,1.6c0.3-1.7,0.7-3.4,1-5.1
	 				C950.1,1122.3,948.1,1121.6,946.2,1120.7z"/>
	 			<path fill="#26766F" d="M929.3,1113.1c-0.4-0.2-0.9-0.4-1.4-0.5c-1.9-0.5-4.2-0.2-6.1,0.5c4.3,3.5,8.9,5.2,13.8,7.5
	 				C934.2,1117.3,932,1114.4,929.3,1113.1z"/>
	 			<path fill="#6F8952" d="M946.2,1120.7c-0.1-0.2-0.1-0.3-0.2-0.5c-0.2-0.5-0.3-0.9-0.5-1.4c-0.5-1.2-0.3-2.5,0.3-3.3
	 				c1.9-2.3,3-3.5,5.1-5.9c1.1-1.2,0.8-3.3-0.6-4.6c-2.8-2.7-4.1-4.1-6.6-7.4c-1.3-1.7-3.2-2.3-4.2-1.1c-1.8,2.2-2.8,3.5-4.5,6
	 				c-0.6,0.9-1.8,1.1-2.8,0.4c-0.7-0.5-1.4-0.9-2.1-1.3c-2.7-1.8-5.3-4.7-7.5-6c-1,1.2-3.2,3.8-4,4.9c3.8,4,8.1,7.8,12.1,10.1
	 				C935.3,1114.2,940.4,1117.9,946.2,1120.7z"/>
	 			<path fill="#89AA66" d="M930.7,1110.5c-4-2.3-8.2-6-12.1-10.1c-0.8,0.9-1.9,2.3-3.3,3.8c2.1,2.6,3.5,6.5,6.5,8.9
	 				c1.9-0.7,4.2-1,6.1-0.5c0.5,0.1,0.9,0.3,1.4,0.5c2.7,1.3,4.9,4.2,6.3,7.5c4.8,2.3,9,4.5,12,5.8c-0.2-1.9-0.7-3.8-1.4-5.7
	 				C940.4,1117.9,935.3,1114.2,930.7,1110.5z"/>
	 		</g>
	 	</g>
	 	<path fill="#1D495A" d="M860.2,1024.8c5.4,10,20.5,28.6,20.5,28.6l16.5-10.9C897.2,1042.5,870.5,1031.8,860.2,1024.8z"/>
	 </g>

</svg>
