<?xml version="1.0" encoding="utf-8"?>
<!-- Generator: Adobe Illustrator 21.0.2, SVG Export Plug-In . SVG Version: 6.00 Build 0)  -->
<svg version="1.1" id="_x31_2_x5F_HeadGear_x5F_Turban"
	 xmlns="http://www.w3.org/2000/svg" xmlns:xlink="http://www.w3.org/1999/xlink" x="0px" y="0px" viewBox="0 0 2000 2000"
	 enable-background="new 0 0 2000 2000" xml:space="preserve">
<g id="_x31_2_x5F_HeadGear_x5F_Turban_1_">
	<path fill="#26174E" d="M801.3,516.4c77.7-27.2,149.5-45.6,225.2-48.5s169.9-1.9,169.9-1.9l-169.9-151.5L801.3,516.4z"/>
	<path fill="#1D1742" d="M1194.8,464.4l-168.2-150l-218,195.4l6.5,1.8c72.4-24.6,140.2-41,211.4-43.8c69.1-2.7,153.6-2.1,167.8-2
		C1194.5,465.4,1194.6,464.9,1194.8,464.4z M1008.1,461.1c-29.1,2.9-93.2,13.6-113.6,18.4c-13.2,3.1-36.9,9.9-52,14.3
		c39.3-31.8,170.3-137.4,180.2-141.5c1.6,6.3,84.2,77.1,115.4,103.6C1087.4,454.7,1035.6,458.3,1008.1,461.1z"/>
	<g>
		<g>
			<g>
				<g>
					<path fill="#213B81" d="M1333.4,413.5c-1.3-13.8-3.5-22.9-3.5-22.9c11.3-36.6,6.3-65.2-6.5-89.9c-2.6-5.1-5.6-10.6-8.9-16.2
						c-12.5-21.6-29-45.3-44.9-58c-20-16-29.6-29.7-29.6-29.7s-0.1-0.8-0.3-2.1c-0.2-1.4-0.6-3.5-1.2-6c-1.9-8.3-6.3-21.2-15.4-30.2
						c-7.9-7.8-18.8-11.4-27.1-13.2c-3-0.6-5.6-1-7.7-1.2c-2.6-0.3-4.2-0.3-4.2-0.3s-4.2-15.1-27.2-20c-9.7-2.1-18.3-2.8-25-2.9
						c-3.9-0.1-7.2,0-9.7,0.2c-1.4,0.1-2.5,0.2-3.3,0.3c-1.2,0.1-1.9,0.2-1.9,0.2c-0.3-0.3-0.7-0.7-1-1
						c-14.2-14.7-25.4-15.3-42.4-10.5c-13.4,3.7-25.1,9-29.7,11.3c-1.3,0.7-2.1,1-2.1,1c-2.4-0.3-6.9-1-13.5-1.8
						c-14.7-1.8-39.7-3.9-73.8-2.6c-49.4,1.9-61.8-4.3-123.4,8.9s-70.1,22-101.2,34c-6.9,2.6-15.3,7.1-24.4,12.7
						c-31.8,19.7-72.3,53.7-88,75c-20.1,27.4-35.9,24.8-54.1,55.2s-31.5,40.2-40.6,78.3c-9.2,38.1-4.8,64.1-4.8,64.1
						c-14.1,25.4,2.2,61,2.2,61c-8.3,20.7-2.4,36.6-2.4,36.6s-4.6,13.6,0,28.7c4.5,14.8,7.4,14.9,7.5,14.9c-3.7,17.2,6,21.5,6,21.5
						c1.6,38.6,18.8,49.4,18.8,49.4c3.3,28.4,18.8,32.3,18.8,32.3s-5.7,11.3,0.5,28.7s18.3,31.2,18.3,31.2s-5,12.1,0.9,29.8
						c5.9,17.6,26.1,23.7,26.1,23.7c-1.4-9,2.4-28.3,15.7-58.5s43.4-74,61.2-101.2s45.2-59.2,93.8-105.8
						c48.5-46.5,124.9-107.1,162.2-144s75.8-62.2,75.8-62.2c3.1,4.6,4.1,6.8,16.1,15.6c11.9,8.9,20.8,21.1,51.4,43.9
						s76.1,66.5,116,108.2s53.4,75,59.8,98s3.1,88.2,3.1,88.2c11.5-5.8,25.9-38.2,36.9-77.5c3-10.8,11.4-41.6,11.3-52.2
						c0-0.1-0.1-0.3-0.2-0.4c0.4-3.4,0.4-5,0.4-5c10.6-22.1,13.4-41.5,13.9-58.6c1.4-3.2,2.5-6.4,2-10.1c-0.4-2.5-1.1-5-1.9-7.5
						c0.2-13.3,1.6-16.6,2.2-38.8c0.1-2.2,0.1-4.4,0-6.6C1334.2,423.7,1333.8,418.3,1333.4,413.5z M816.2,182.9c0,0-0.1,0-0.1,0.1
						c0.1-0.1,0.2-0.2,0.4-0.2C816.4,182.8,816.3,182.8,816.2,182.9z"/>
					<path fill="#213B81" d="M816.5,182.8c-0.1,0-0.2,0.1-0.3,0.1c0,0-0.1,0-0.1,0.1C816.2,182.8,816.4,182.8,816.5,182.8z"/>
				</g>
				<path fill="#2B4CA9" d="M671.8,202.8c-6.4,5-12.7,10.1-18.9,15.2c-5.6,4.6-11.8,9-14.9,15.8c-3.1,6.8-4.3,14.6-5.5,21.9
					c-0.3,1.8-0.6,3.6-0.8,5.5c4.5-6.3,9.2-12.5,14.2-18.5c18.7-22.7,40.5-43,65.2-59c12.5-8.1,25.5-14.9,39.2-20.7
					c12.9-5.6,27-10.4,40.8-13c0.5-0.1,0.6,0.6,0.2,0.7c-9.2,2.8-18.6,5.1-27.4,8.8c-8.4,3.5-16.6,7.3-24.7,11.4
					c-16.4,8.5-32.2,19.1-46.5,30.8c-14.1,11.5-27.2,24.2-39.1,38c-6.2,7.2-12.1,14.7-17.6,22.4c-1.8,2.5-3.5,5.1-5.3,7.6
					c-0.3,3.6-0.6,7.3-0.7,10.9c-0.2,6-2.2,17,3.7,20.8c5.3,3.4,14.4,1.5,19.1-2.5c2-0.6,3.9-1.2,5.4-1.7c0.8-0.3,1.5-0.5,2.3-0.8
					c7.5-5.7,14.4-12.2,21.3-18.6c27.9-26,58-49.6,90.1-70.2c16-10.3,32.5-20.2,49.6-28.6c16.8-8.3,33.3-16.6,51.1-22.3
					c0.4-0.1,0.6,0.5,0.3,0.7c-11.2,5.9-22.6,11.6-33.9,17.3c3.4-0.9,6.9-1.7,10.4-2.3c1.4-0.3,2,1.9,0.6,2.2
					c-8,1.5-15.7,4.2-23.4,6.5c-4,2.1-8,4.3-12,6.5c-33.7,18.8-65.8,40.2-95.7,64.6c-15.3,12.5-29.5,26-44.1,39.2
					c-0.4,0.3-0.8,0.7-1.2,1c-1,1.3-2.1,2.5-3.2,3.7c-4.5,4.7-9.1,9.2-14.1,13.5c-4.8,4.1-10.1,7.8-14.4,12.4
					c-4.5,4.8-7.7,10.6-10.5,16.5c-5.3,11.2-9.1,23.3-10.8,35.6c-0.9,6.2-1.2,12.4-1,18.6c0.2,3.3,0.2,7.4,1.2,10.9
					c-2.3,4.4-2.9,8.8-2.2,14.1c0.5,4.4,1.6,10.3,6.6,11.6c2.9,0.7,6.2,0.4,8.8-1c6.7-0.7,13.3-5.5,19.1-10
					c11.4-8.8,22.7-17.8,33.9-26.8c3.5-2.8,6.9-5.5,10.4-8.3c7.5-8.3,16.9-15.3,25.3-22c13.1-10.4,26.2-20.9,39-31.7
					c12.8-10.9,25.5-21.9,37.6-33.6c5.5-5.4,10.4-11.1,14.8-17.4c2.7-3.9,5.5-8,9.1-11.2c4.4-5.2,9.8-9.8,14.2-14.1
					c9.3-9.1,19.1-17.6,29.6-25.4c11-8.1,22.6-15.2,34.5-21.8c7.4-4.1,15.4-7.4,23.8-9.3c10.4-11.2,21.7-21.1,34.2-30
					c3.2-2.3,6.5-4.6,9.8-6.8c-2.3,0.3-4.7,0.8-6.9,1.4c-6.6,1.8-13.1,4-19.7,5.8c-0.6,0.2-1-0.7-0.4-1c7-3.3,13.7-6.2,20.9-8.8
					c4.1-1.5,9.5-3.3,14.5-3.2c0.7-0.5,1.5-1,2.2-1.5c-1.5-0.1-3-0.1-4.5-0.1c-8.7,0.3-17.4,2.3-25.9,3.7s-16.9,3.1-25.3,4.9
					c-8.5,1.9-17.8,3.1-26,5.8c-0.6,0.2-0.8-0.7-0.2-0.9c4.9-1.7,9.3-4,14.3-5.5c4.2-1.3,8.5-2.4,12.9-3.4c9-2.1,18-3.8,27.1-5.5
					c8.2-1.6,16.7-3.5,25.1-3.6c3,0,6,0.1,9,0.4c2.7-1.8,5.4-3.6,8-5.4c-14.5-1.4-29,0.8-43.5,3.3c-9.8,1.7-19.5,3.3-29.2,5
					c-9.8,1.7-19.6,2.6-29.5,4c-0.6,0.1-0.9-0.8-0.3-1c10.3-2.1,20.5-4.7,30.9-6.5s20.8-3.6,31.1-5.5c15.6-2.9,30.6-5.2,45.9-2.9
					c0.9-0.6,1.8-1.2,2.6-1.8c2.1-1.5,4.3-2.9,6.4-4.4c-5.8-0.1-11.6,0.2-17.4,0.6c-11.6,0.9-23.2,2.4-34.7,3.9
					c-24,3.2-47.7,7.9-71.5,12.1c-0.6,0.1-0.8-0.7-0.2-0.9c23.4-8.1,48.6-11.8,73.1-15.3c1.2-0.2,2.5-0.4,3.7-0.5
					c-9.3,0.5-19.2,1.6-28-1.3c-0.5-0.2-0.4-0.9,0.1-1c11.1-0.8,22.5-1.3,33.6-1.7c5.8-0.2,11.5-0.3,17.3-0.1
					c2.7,0.1,5.8-0.1,8.6,0.4c0.3,0,0.6,0,0.9-0.1c6.2-0.4,12.3-0.6,18.5-0.4c0.8,0,1.6,0,2.4,0.1c4.3-2.9,8.7-5.6,13.2-8.3
					c-14.7-1.8-39.7-3.9-73.8-2.6c-49.4,1.9-61.8-4.3-123.4,8.9s-70.1,22-101.2,34c-6.9,2.6-15.3,7.1-24.4,12.7
					C695.7,185,683.5,193.6,671.8,202.8z M653.6,377.1c-4.8,3.8-9.6,7.4-14.3,11.2c-3.6,2.9-7.5,7.7-12,8.8
					c-0.3,0.1-0.6-0.2-0.5-0.5c1.8-4.6,7.6-7.7,11.4-10.7c4.6-3.6,9.4-7.1,14.4-10.2C653.4,375.3,654.3,376.5,653.6,377.1z"/>
				<path fill="#2B4CA9" d="M893.1,217.5c-0.9,0.8-1.8,1.7-2.6,2.6c-0.1,0.4-0.2,0.8-0.5,1.1c-0.9,1-1.9,1.9-3,2.7
					c-4.6,5.4-8.8,11.4-13,16.3c-5.3,6.3-10.8,12.4-16.5,18.3c-2.6,2.6-5.2,5.1-8,7.5c-2.7,2.5-5.2,5.5-8.4,7.4
					c-0.7,0.4-1.6-0.4-1.1-1.1c2.5-3.5,6.1-6.2,9-9.4c2.9-3.1,5.8-6.2,8.7-9.4c5.8-6.3,11.4-12.7,16.8-19.3c1.3-1.6,2.7-3.4,4.1-5.3
					c-1.5,0.7-3,1.5-4.4,2.2c-3.3,1.8-6.7,3.5-10,5.2c-8.2,6.3-15.8,13.3-23.3,20.5c-3.5,3.3-7,6.5-10.4,9.9l0,0
					c-0.1,0.2-0.2,0.3-0.4,0.5c-10.2,10.7-17.5,23.5-28.3,33.8c-11.7,11.2-23.9,21.9-36.2,32.4S740.7,354,728,364
					c-5,3.9-9.9,7.8-14.7,11.9c-8.5,11.4-18.1,21.9-28.4,31.6c-10.9,10.2-22.9,19.2-34.8,28.1c-11.8,8.9-24.1,17.6-33.8,28.9l0,0
					c-0.3,0.1-0.5,0.3-0.7,0.6c-2.1,4.3-0.5,10.1,0.5,14.6c1.2,5.7,3,11.3,5.3,16.6c1.6,3.6,3.8,7.2,8.4,6.5c5.1-0.8,9-6.3,12.1-9.8
					c8.9-9.8,18.1-19.4,26.4-29.6c4.6-5.7,8.1-12.3,11.2-19c3.3-4.4,6.2-9.2,9.3-13.5c5-6.9,10.2-13.6,15.5-20.1
					c10.8-13.2,22.3-25.8,34.5-37.7c13-12.7,27-24.4,40.1-36.9c8.3-8,17-16.1,25-24.6c4.5-3.7,9-7.4,13.6-11
					c11-8.9,22.2-17.6,33.6-26.1c10.3-7.7,20.5-15.3,29.2-24.8c6.4-7,13.3-14.7,18.8-22.9c6.5-7.2,12.6-14.7,19-22
					c-5.7,1.9-10.9,4.7-16.1,7.7C898.9,214.2,896,215.8,893.1,217.5z M702,399.1C702,399,702,399,702,399.1l0.2-0.1
					C702.1,399,702.1,399,702,399.1z"/>
				<path fill="#2B4CA9" d="M846.7,376.6c-7,5.2-14.4,9.6-21.1,15c-7.2,5.8-14.1,11.8-20.9,17.9c-13.6,12.4-26.6,25.4-39.7,38.4
					c-25.6,25.4-51.6,50.3-73.2,79.3c-11.9,16-22.6,33-32,50.6c-0.4,0.8,0.8,1.6,1.3,0.7c17-30.4,37.6-58.9,61.3-84.5
					c12.3-13.2,25.4-25.8,38.2-38.5c12.9-12.8,25.9-25.6,39.2-38c7.2-6.7,14.5-13.2,22-19.5c8.3-7,16.5-14.7,25.5-20.8
					C847.5,377,847.1,376.3,846.7,376.6z"/>
				<path fill="#2B4CA9" d="M1315.8,537.8c-0.1,0.2-0.2,0.4-0.4,0.6c0.1,0.1,0.2,0.3,0.2,0.4
					C1315.7,538.5,1315.7,538.1,1315.8,537.8z"/>
				<path fill="#2B4CA9" d="M923.8,390.5c0,0.2,0,0.3-0.1,0.5c0.1-0.2,0.3-0.4,0.4-0.5c-0.1,0-0.2,0-0.3-0.1
					C923.8,390.4,923.8,390.4,923.8,390.5z"/>
				<path fill="#2B4CA9" d="M928.2,388.7c0.5-0.5,1.1-0.9,1.7-1.2c-0.1,0-0.2-0.1-0.4-0.1C929,387.8,928.6,388.2,928.2,388.7z"/>
				<path fill="#2B4CA9" d="M975.8,164.5c-20,13.5-39.4,28.3-55.4,46.4c-16.5,18.7-30.7,39.1-48.2,56.9
					c-33.6,34.1-73.3,61.3-108.9,93.2c-18.1,16.2-34.8,33.8-49.4,53.2c-14.7,19.6-27.6,40.5-40.1,61.6c-7,11.8-14,23.6-21.2,35.2
					c-6.6,10.8-15.2,21.2-18.4,33.6c-2,7.5-2.1,15.3-0.7,22.7c0,6.9,1.1,13.8,3.6,20c1.1,2.8,2.6,5,5,6.8c2.2,1.6,5.1,2.5,7.1,4.4
					c2.7,2.5,1.3,8.4,1.5,11.9c0.2,4.5,0.8,9,1.6,13.4c1.1,6,4.1,8.9,9.8,5.5c6.4-3.8,12.5-8.2,18.3-12.9c12.2-10,21.1-21.9,29.6-35
					c2.2-3.4,4.6-6.7,7-10c6.3-6.5,12.6-13,18.6-19.7c9.5-10.5,17.9-22,27.2-32.7c18.6-21.3,39.3-40.8,61.8-58
					c0.4-0.3,0.7-0.6,0.9-1l0,0c13.5-10.1,26.6-20.7,39.3-31.7c10.9-9.5,21.9-19,31.6-29.7c8.7-9.5,15.1-21.9,26-29.2
					c0.6-0.4,1-0.9,1.3-1.5c9.4-7.4,17-17.3,25.9-25.3c-2.8,5-5.8,9.8-9,14.5c-0.5,0.7-1,1.5-1.5,2.2c-5.2,5.8-10.4,11.6-15.8,17.3
					c-12.4,13.2-25.3,26-38.4,38.5c-13.2,12.5-26.7,24.6-40.2,36.7c-3.2,2.9-6.5,5.7-9.8,8.5l0,0c-23.5,17.4-46.5,36.6-65.4,58.7
					c-11.3,13.2-22.2,27-32.9,40.7c-11.2,14.4-23.1,28.2-33.4,43.2l0,0c-2.5,3-5,6-7.5,9c-11.6,13.8-22,28.6-33.2,42.7
					c-0.7,0.8,0.5,1.8,1.2,0.9c19-25.2,41-48.1,62.4-71.3c21.1-22.8,43.5-44.4,66.1-65.7c6.9-6.5,14.1-12.8,21.3-19.1
					c2-1.4,3.8-3.1,5.5-4.4c5.7-4.4,11.3-8.9,16.8-13.6c11-9.2,21.8-18.8,32.6-28.2c10.8-9.4,21.7-18.9,32.5-28.4
					c5.1-4.5,10.3-9.1,15.4-13.6c4.7-4.1,10.4-8.2,14.7-12.9c1.6-1.4,3.2-2.7,4.8-4c10.4-8.5,20.9-17.1,31.3-25.6
					c19.3-15.7,38.5-31.5,57.7-47.3c2.9-1.7,5.8-3.5,8.7-5.2c8.7-5.1,17.3-10.1,25.4-16c13.3-9.8,25.9-20.4,36.1-33.3
					c16.2-15.4,28.8-35.4,39.2-55c5.4-10.2,7.6-20.8,10.9-31.8c1.7-5.5,4.3-10.6,4.5-16.5c0.1-3.3,0.2-7.1-0.8-10.4
					c-0.3-4.2-0.7-8.7-2-12.7c4.3,1.5,5.6,16.6,5.8,18.9c0.5,4.9,0.2,10.2,1,15.1c1.1-2.8,2.3-5.4,3.8-8.1c2.7-5.1,6.5-8.2,9.9-12.6
					c0.3-0.4,0.8-0.1,0.6,0.4c-2.1,4.3-5.4,7.9-7.7,12c-1.8,3.2-3.1,6.7-4,10.2c2.3-4.8,6.8-8.5,10.1-12.6
					c3.4-4.1,6.6-8.2,10.5-11.7c3.5-3.2,7.5-5.9,11.6-8.5c-2.6-0.3-4.2-0.3-4.2-0.3s-4.2-15.1-27.2-20c-9.7-2.1-18.3-2.8-25-2.9
					c1.7,1.7,3.4,3.4,5.2,5c3.1,3.1,6.3,6.7,8.1,10.7c0.2,0.5-0.4,0.8-0.7,0.4c-2.6-4.1-6.2-6.5-9.7-9.7c3.9,7.5,6.5,15.5,6.4,23.5
					c-0.2,7.2-1.5,15.2-3.7,22.1c-2.3,7.1-6.1,13.3-9,20.1c-0.4,1-2.2,0.3-1.8-0.8c1.3-3.3,2-6.7,3.2-10c1.2-3.2,2.6-6.2,3.6-9.4
					c2-6.4,3.1-13.5,3.6-20.1c0.8-12.4-5.7-21.7-11.5-31.6c2.7,6.5,4.8,13.3,5.6,20.6c1.1,11-1.8,22-6.9,31.7
					c-0.3,0.5-0.9,0.1-0.8-0.4c1.4-10.3,5.8-19.8,4.7-30.5c-0.7-7.3-3.2-14.5-6-21.4c-1.3,0.1-2.5,0.2-3.3,0.3
					c0.2,4.8-2.7,9.3-5.4,13.4c-4.8,7.3-9.6,14.6-15.8,20.6c-0.2,0.2-0.6-0.1-0.5-0.4c3.6-6.1,7.9-11.7,11.8-17.5
					c3.8-5.7,6.8-10.4,6.9-16.9c-14.2-14.7-25.4-15.3-42.4-10.6c-13.4,3.7-25.1,9.1-29.7,11.3c-2.2,1.3-4.3,2.6-6.5,3.9
					C1016.6,138,995.9,150.9,975.8,164.5z M847.1,377.2c-9,6.1-17.2,13.8-25.5,20.8c-7.5,6.3-14.8,12.9-22,19.5
					c-13.3,12.4-26.3,25.2-39.2,38c-12.8,12.7-25.9,25.3-38.2,38.5c-23.7,25.6-44.3,54.1-61.3,84.5c-0.5,0.8-1.7,0.1-1.3-0.7
					c9.5-17.6,20.1-34.6,32-50.6c21.6-29,47.6-53.9,73.2-79.3c13.1-13,26-26,39.7-38.4c6.8-6.2,13.8-12.2,20.9-17.9
					c6.8-5.5,14.2-9.9,21.1-15C847.1,376.3,847.5,377,847.1,377.2z M923.7,391c0-0.2,0-0.3,0.1-0.5v-0.1c0.1,0,0.2,0.1,0.3,0.1
					C924,390.6,923.9,390.8,923.7,391z M928.2,388.7c0.4-0.5,0.9-0.9,1.3-1.4c0.1,0,0.2,0.1,0.4,0.1
					C929.3,387.8,928.7,388.2,928.2,388.7z"/>
				<path fill="#2B4CA9" d="M1119.3,284.4c13.9-3.5,28.2-6,42.5-7.3c14.4-1.4,29.2-1.8,43.6-0.6c6.3,0.5,12.9,1.1,19,2.8
					c6.3,1.7,13.4,3.1,19.1,6.6c0.8,0.5,0.2,1.6-0.6,1.5c-6.7-1.1-13-3.5-19.7-4.4c-6.7-0.8-13.2-1.8-19.9-2.2
					c0.9,0.5,1.8,0.9,2.8,1.3c4,1.9,8.1,3.3,12,5.1c7.1,3.2,14.3,6.5,21.3,10c13.6,6.8,26,15.2,36.6,26
					c10.6,10.7,20.8,22.3,29.7,34.5c4.8,6.6,8.8,13.7,13.5,20.4c0.6,0.8,1.2,1.7,1.8,2.5c0-2.5,0-4.9-0.3-7.4
					c-1.2-8.7-6-17.1-9.4-25.1c-1.6-3.7-3.1-7.4-4.7-11.1c-0.8-1.9-1.5-4.2-2.5-6.1c1.9,1.4,4.6,4.3,4.9,4.7
					c1.8,2.3,3.3,4.7,4.7,7.2c2.3,4.1,4.3,8.5,6.3,12.7c-0.6,1.5,1.3,3.1,2.7,1.8c3.1-2.8,4.8-5.6,5.7-8.6c-2.8-9.1-5.9-18.2-9.7-27
					c-3.7-8.5-9.6-15.4-14.7-22.9c-0.3,0-0.5-0.2-0.7-0.5c-7.8-11.8-16.4-23.4-25.9-33.9c-9.7-10.7-20.8-18.5-33.7-24.9
					c-14.6-7.3-29.2-12.3-45.7-11.7c-14.9,0.5-28.9,4.6-43.3,7.8c-0.4,0.4-0.9,0.8-1.3,1.2c-3.9,3.7-6.9,8.2-11.1,11.8
					c-4.8,4.3-9.6,8.7-14.4,13c-4.2,3.8-8.3,7.7-13,10.9c-3.7,2.5-7.5,4.7-11.3,7.1c-0.3,0.6-0.6,1.3-0.9,1.9
					c3.2-1.1,6.4-2.3,9.5-3.6c7.8-3.4,15.2-7.3,22.8-11c0.6-0.3,1.3,0.5,0.7,1c-6.1,5.8-14,10-21.5,13.5c-5.1,2.3-10.2,5-15.4,7.2
					c-0.4,0.5-0.9,1.1-1.4,1.5c-0.3,0.3-0.7,0.6-1,0.9c0.8-0.2,1.6-0.4,2.4-0.7C1105.7,288.2,1112.5,286.1,1119.3,284.4z"/>
				<path fill="#2B4CA9" d="M1087.2,299c-0.7,0.2-1.5,0.4-2.2,0.5c-1.5,1.1-3,2.3-4.4,3.5c-0.3,0.3-0.4,0.6-0.3,0.9
					c-0.7,0.3-1.5,0.7-2.2,1.1c3.4,1.2,6.6,3.2,9.6,4.6c5.2,2.5,10.5,6.1,13.2,11.3c0.3,0.5-0.3,1.3-0.9,0.9
					c-4.2-2.7-7.9-6-12.3-8.4c-4-2.1-8.8-4.9-13.5-6.2c-2.9,1.8-5.6,3.8-7.9,5.4c-2.7,1.9-5.3,4.2-7.5,6.8c4.1,2.1,8,4.7,11.6,6.9
					c7.6,4.6,14.9,9.7,21.8,15.2c7.5,6,14.2,12.6,20.6,19.7c3,3.4,6.1,6.7,9.3,9.9c3.3,3.4,6.3,7.4,9.9,10.3c0.4,0.3-0.1,1-0.6,0.7
					c-3.6-2.5-7.3-4.5-10.5-7.5c-3.3-3.1-6.3-6.5-9.4-9.7c-6.3-6.4-13-12.4-20-18c-7.5-6-15.3-11.6-23.6-16.4
					c-4-2.3-8.1-4.5-12.3-6.3c-0.2,0.5-0.5,0.9-0.7,1.4c-3.3-0.1-6.7,0.3-9.5,0.8c-3.5,0.6-8.1,1.7-10.1,5c-0.3,0.5-0.1,1.3,0.5,1.6
					l0,0c9.9,12.5,23.5,22.3,36.1,31.9c12.8,9.7,26.1,18.7,38.9,28.3c28.4,21.2,52.3,47.3,77,72.5c0.2,0.2,0.4,0.4,0.6,0.6
					c4.5,5.1,9.1,10.2,13.6,15.4c9.9,11.3,19.6,22.9,28.6,35c8.7,11.7,16.6,23.8,24.1,36.3c1.3,2.1,2.5,4.2,3.7,6.3
					c-1.4-6.9-3.2-13.7-5.5-20.4c-1.9-5.6-3.9-11.2-6-16.8c-2.3-6.1-5.6-11.6-8.3-17.6c-0.3-0.5,0.5-1,0.8-0.5
					c3.6,5.4,6.3,11.5,9.3,17.3c2.5,4.9,4.6,9.9,6.4,15.1c3.5,10,6.2,20.4,8,30.9c0.9,1.5,1.8,3.1,2.7,4.6c1.8,3.2,3.7,6.4,5.4,9.7
					c1.1,2,1.8,4.3,2.8,6.3v0.1c0.5,1.2,1,2.4,1.5,3.6c0-0.4,0-0.7,0-1.1c-0.4-6.3-1.2-12.6-2.2-18.8c-0.9-6.1-2.1-12.2-3.3-18.2
					c-0.7-3.8-1.2-7.5-1.7-11.3l0,0c-0.8-3.8-1.5-7.5-2.5-11.2c-2.2-8.5-4.7-17-7.3-25.5c-5.1-16.6-10.7-33.1-16.8-49.3
					c-11.8-31.5-24.6-62.4-38.5-93C1170.3,332.4,1131.6,308.1,1087.2,299z"/>
				<path fill="#2B4CA9" d="M1333.9,482.4c0.5,3.7-0.6,6.9-2,10.1c-0.6,1.3-1.2,2.5-1.8,3.8c-2.8,5.9-4.5,12.2-6.1,18.5
					c-0.5,2-1.1,4.1-1.7,6.2c0-0.3,0-0.6,0.1-0.8c0.3-4.5,0.4-9,0.5-13.4c0.1-4.6-0.6-9-0.6-13.5c0-0.5-0.7-0.5-0.7,0
					c-0.5,4.5-1.6,8.9-2.1,13.5c-0.4,4.2-1,8.3-1.5,12.5c-0.8,6.2-1.5,12.4-2.2,18.6c-0.1,0.2-0.2,0.4-0.4,0.6
					c-0.2-0.3-0.3-0.6-0.5-0.9c0,0,0-0.1-0.1-0.1c0.5-3.6-0.2-7.7-0.3-11c-0.2-6-0.4-11.9-0.9-17.9c-0.8-10.1-1.3-22.5-6.4-31.5
					c-0.2-0.3-0.7-0.2-0.7,0.2c0.3,5,1.8,10,2.6,14.9c1,6.1,1.7,12.2,2,18.3c0.3,5.3,0.4,10.7,0.4,16c0,1.2-0.1,2.6-0.2,4
					c-0.8-1.8-1.5-3.6-2.2-5.3c1.5-5.2-0.3-13-1.2-17.7c-1.4-8-5.2-15.3-6.8-23.2c-0.1-0.5-0.8-0.5-0.9,0
					c-1.6,7.2,1.6,13.7,3.2,20.7c0.8,3.4,1.3,6.8,1.7,10.3c-1.5-3.7-3.1-7.4-4.9-11c-1.4-2.7-2.9-7-5.3-9.8l0,0
					c-1.9-4.1-3.8-8.2-5.8-12.2c-10.9-22.2-19.7-45.1-33.9-65.5c-13.1-18.8-28.8-35.9-45.3-51.8c-16.7-16-34.8-30.7-54.7-42.6
					c-19-11.4-39.7-20.4-61.3-25.3c1.6-0.5,3.1-1.1,4.7-1.5c6.7-2,13.4-4,20.2-5.8c8.2-2.2,16.5-4,24.9-5.4c4.6,0,9.1,0.3,13.8,0.7
					c8.3,0.8,17.5,1,24.9,5.5c0.4,0.3,0.9-0.4,0.4-0.7c-3.2-2-6.7-3.1-10.3-4.1c-4.5-1.2-9.2-2.5-13.8-3.2c-0.3-0.1-0.7-0.1-1-0.2
					c1.1-0.1,2.1-0.2,3.2-0.4c12.4-1.3,24.8-1.8,37.2-1.4c2.9,1.4,5.9,2.5,8.8,3.9c3.4,1.6,6.6,3.4,10,5c7.1,3.3,14.2,6.6,21.1,10.3
					c14,7.5,26.4,16.5,37.4,28c5.5,5.7,10.2,11.8,15,18c4.8,6.3,10.2,12.3,14.7,18.8c4.4,6.4,8.1,13.2,12.7,19.5
					c1.1,1.5,2.3,3,3.6,4.5c0.5,4.4,1.9,8.1,4.3,12.1c2.6,4.3,5.2,8.6,7.7,12.9c0.5,4.8,0.8,10.2,0.8,16c-3.3,5.8-7,12.3-5.2,18.2
					c0.5,1.6-1.8,2.1-2.4,0.7c-2.9-7.3-5.9-14.6-8.9-21.9c-1.3-3.2-6.2-15.8-10.8-15c0.9,2.3,1.5,4.7,2.5,7c1.3,2.8,2.7,5.6,3.9,8.4
					c2.7,5.9,5.1,12,7.4,18.1c2.4,6.2,4.7,12.5,6.9,18.7c1.3,3.7,3,7.5,4.3,11.4C1332.9,477.5,1333.6,480,1333.9,482.4z"/>
				<path fill="#2B4CA9" d="M1162.9,177.9c-7.3,10.6-13.1,22.1-18.3,33.8c-4.5,10.2-8.8,20.7-12.3,31.4c5.6-6.4,11.6-12.2,19-17.1
					c0.5-0.3,1.1,0.5,0.6,0.8c-4.8,3.7-8.4,8.5-12.3,13.1c-3,3.4-5.8,6.9-8.6,10.5c-0.1,0.5-0.3,0.9-0.5,1.3
					c-2.6,4.1-7.6,7.8-10.6,10.4c-2.8,2.4-5.8,4.7-8.6,7.2c5.4-3.5,10-8.1,14.8-12.3c5.2-4.6,10.6-9.1,15.7-13.8
					c4-3.6,5.9-8.7,10.1-12c9.6-7.5,17.9-16.2,27.9-23.3c5.7-4.1,11.5-7.9,17.5-11.6c2.8-1.7,5.3-3.2,8-4.2
					c3.7-2.3,9.1-3.3,12.8-3.9c6.5-0.9,13.5-0.3,20.2,0.5c-1.9-8.3-6.3-21.2-15.4-30.2c-7.9-7.8-18.8-11.4-27.1-13.2
					c-3.8,2.4-7.3,5.1-10.6,7.8C1176.7,160.1,1169.2,168.7,1162.9,177.9z"/>
				<path fill="#2B4CA9" d="M1269.6,226.4c-20-16-29.6-29.6-29.6-29.6s-0.1-0.8-0.3-2.1c-5.8-0.8-11.6-1.8-17.3-2
					c-3.7-0.2-7.5-0.5-11.1,0.2c-0.7,0.2-1.5,0.3-2.2,0.6l0,0c-10.9,4.8-21.1,12.7-30.4,19.7c-4.3,3.3-8,6.9-11.5,10.9
					c3.5-2.2,6.9-4.4,10.6-6.2c6-2.9,13-6,19.7-4.2c0.4,0.1,0.5,0.7,0.1,0.9c-6.5,3.2-13.7,4.2-20.1,8c-1.6,1-3.4,2.2-5.2,3.5
					c9.1-2.1,18.4-3.5,27.6-3.6c16.1-0.2,30.5,4.7,44.7,11.9c13.2,6.7,24.9,15.8,34.8,26.7c10.1,11,17.7,23.6,26,35.9l0.1,0.1
					c6.6,7.2,10.7,15.7,15.4,24.3c2.3,4.3,4.6,8.7,6.7,13.2c-2.2-9.5-4.8-19-7.2-28.4c-1.9-7.3-3.6-14.7-6-21.8
					C1301.9,262.9,1285.5,239.2,1269.6,226.4z"/>
				<path fill="#2B4CA9" d="M1310.8,541.9c-2.7-5.5-4.9-11.3-7.3-17s-5.2-11.4-7.1-17.2c-0.2-0.7-0.5-1.4-0.7-2.1l0,0
					c-3.8-8.7-7.8-17.3-11.9-25.8c-10.4-21.5-18.7-43.3-32.5-62.9c-5.5-7.8-11.5-15.3-17.8-22.6c7.3,10.9,12.3,23.3,18.4,35
					c0.6,1.3-1.3,2.4-1.9,1.1c-4.3-8.7-8.9-17.1-13.5-25.6c-2.6-4.8-5.8-9.1-9.1-13.5c0.1,0.3,0.3,0.7,0.4,1
					c3.3,7.7,6.2,15.6,9.4,23.4c3.5,8.6,7.8,16.9,11.3,25.5c1.9,4.7,3.6,9.4,5.1,14.3c0.7,2.4,1.4,4.9,1.9,7.3
					c0.6,2.5,0.5,5.1,1.2,7.5c0.2,0.5-0.7,0.8-0.8,0.2c-0.8-2.4-2.3-4.6-3.2-7c-0.9-2.4-1.8-4.8-2.6-7.2c-1.5-4.5-3-9-4.8-13.4
					c-3.3-8.5-7.8-16.4-11.3-24.8c-3.4-8.1-6.2-16.5-9.5-24.6c-1.7-4.1-3.6-8-5.4-11.9c-1-2.3-2.4-4.4-3.6-6.7
					c-2.6-2.6-5.1-5.1-7.7-7.6c7,11.9,12.3,24.8,17.4,37.6c6.5,16.4,12.7,32.9,18.9,49.4c6.2,16.6,12.4,33.1,17.7,50.1
					c2.7,8.7,5.3,17.5,7.5,26.4c2,8.1,4.9,17,4.9,25.4c0,0.4-0.2,0.7-0.5,0.8c1.1,5.2,2.2,10.4,3.1,15.7c2,11.1,5.1,23.7,4.3,35.1
					c0.6,3.7,0.7,7.4,0.7,11.4c-0.1,6.4,0,12.8-0.4,19.2c0,0.1,0,0.2,0,0.3c0-0.1,0-0.3,0.1-0.4c1.3-9.5,2.3-19.1,3.2-28.6
					c1.8-18.5,3.6-37.1,5.1-55.6c0.1-1,1.7-1,1.6,0c-1.3,19.8-2.1,39.7-3.8,59.5c-0.8,9.2-1.7,18.5-3,27.6c-0.4,2.8-0.7,5.6-1.1,8.4
					c1.9-3.7,3.2-7.8,4.6-11.7c2.3-6.2,4.7-12.5,7.3-18.6c4.8-11.2,9.7-22.2,15.2-33c0.9-1.7,1.8-3.5,2.7-5.2
					c2.6-11.9,3.7-20.2,4.3-24.9c-1.2-3.2-2.6-6.5-4.1-9.8C1312.5,544.9,1311.6,543.4,1310.8,541.9z"/>
				<path fill="#2B4CA9" d="M1167.4,154.5l0.1,0.1c0.1,0.1,0.2,0,0.2-0.1s0-0.1,0-0.2C1167.7,153.9,1167,154.2,1167.4,154.5z"/>
				<path fill="#2B4CA9" d="M1281.4,638.7c-0.4,3.2-0.8,6.5-1.4,9.8C1280.6,645.3,1281.1,642,1281.4,638.7z"/>
			</g>
			<path fill="#213B81" d="M660.6,577.1c10.8-15.6,21.3-31.5,32-47.2c10.4-15.3,22.6-29,35.5-42.2c24.6-25.2,49.5-50.3,76-73.5
				c7.3-6.4,14.9-12.4,22.4-18.5c7.9-6.4,17-11.8,24-19.2c0.2-0.2,0-0.7-0.3-0.6c-7.9,3.3-14.5,8.9-21.2,14
				c-6.9,5.2-13.5,10.6-20,16.3c-13.4,11.8-26.7,23.8-39.5,36.2c-13.1,12.7-25.8,25.8-38.7,38.7c-12.5,12.6-24.5,25.6-34.8,40
				c-12.8,18-24.7,36.6-36.7,55.2C658.8,577.2,660.1,577.9,660.6,577.1L660.6,577.1z"/>
		</g>
		<path fill="#2B4CA9" d="M1140.7,238.2c-12.9,13.4-28,30-32.4,34.2c-4.4,4.2,12.9-6.5,23-17.5s9.5-9.3,13.9-16.7s7.4-6.8,10.4-9.8
			s1.2-5.9,1.2-5.9l-4.2-0.7C1152.7,221.9,1151.6,226.8,1140.7,238.2z"/>
	</g>
</g>
</svg>
