<?xml version="1.0" encoding="utf-8"?>
<!-- Generator: Adobe Illustrator 21.0.2, SVG Export Plug-In . SVG Version: 6.00 Build 0)  -->
<svg version="1.1" id="_x31_6_x5F_HeadGear_x5F_Headphones"
	 xmlns="http://www.w3.org/2000/svg" xmlns:xlink="http://www.w3.org/1999/xlink" x="0px" y="0px" viewBox="0 0 2000 2000"
	 enable-background="new 0 0 2000 2000" xml:space="preserve">
<g>
	<path fill="#C4C4D4" d="M1338.9,476.3l6.2,0.6c0,0,5.1,7.1,9.6,20s8.1,28.5,9.7,54.1s-3.4,55.7-3.4,55.7l-5.6,2.2L1338.9,476.3z"/>
	<path fill="#9291A1" d="M1351.3,576.1l4.1,32.8l5.6-2.2c0,0,3.7-22.6,3.7-45.3C1361.6,565.6,1357.3,570.6,1351.3,576.1z"/>
	<path fill="#932227" d="M1324.6,466.5c9-5.4,16.6,4,23.8,19.5s11,36,13.3,59.3c2.3,23.2-0.2,48.9-5.7,68.7c0,0-12.5,10.6-21.7,16.9
		C1324.9,637.1,1324.6,466.5,1324.6,466.5z"/>
	<path fill="#CE2828" d="M1361.6,545.3c-2.3-23.2-6.1-43.8-13.3-59.3c-2.1-4.4-4.2-8.4-6.3-11.6c-0.5,1.4-1.1,2.6-1.9,3.4
		c-2.3,2.1-4,3.4-15.5-1.7c0.1,16.8,0.5,53,1.6,86.1c14.4,7.4,21.3,13.8,32.6,0c1.3-1.6,2.4-3.3,3.5-5.2
		C1362.2,553,1362,549.1,1361.6,545.3z"/>
	<path fill="#999DA2" d="M1304,399.2c2.5,15.3,6.7,40.2,6.7,40.2l20.5,38.3l6-0.8c0,0,2.2-3.2,2.7-14.5c0.4-11.3-1.6-40.3-7.7-49.7
		S1304,399.2,1304,399.2z"/>
	<path fill="#D8D8D8" d="M1333.2,477.4l4-0.6c0,0,2.2-3.2,2.7-14.5c0.3-7.3-0.5-22-2.7-34c-4.3,4.7-9.2,5.5-9.2,5.5
		S1333.2,458.9,1333.2,477.4z"/>
	<path fill="#62656A" d="M1259.3,496.7c3.1-46.4,6.7-47.8,18-55.7c11.3-7.9,21.8-11.9,26.3-11.3c4.5,0.7,17.8,15.5,27,38.7
		s16,40.3,16.3,74.7s-2.5,53.7-7.7,77.7s-8.3,36-14.3,43.7s-34.7,9-46,7.3s-17-40-19.7-55.4C1256.7,600.8,1256.1,544.7,1259.3,496.7
		z"/>
	<path fill="#888888" d="M1268.7,475.3c1.3-14.6-0.2-15.2,8.7-21.7c8.8-6.5,29.4-11.4,38.7-4.3s25.5,50.7,25.7,76.7
		s9.5,51.7-8.1,74.7s-37.5,17.6-52.2,11c-14.7-6.5-12.8-12.2-14-27C1266.2,569.8,1267.5,489.2,1268.7,475.3z"/>
</g>
</svg>
