<?xml version="1.0" encoding="utf-8"?>
<!-- Generator: Adobe Illustrator 23.0.1, SVG Export Plug-In . SVG Version: 6.00 Build 0)  -->
<svg version="1.1" id="Layer_1" xmlns="http://www.w3.org/2000/svg" xmlns:xlink="http://www.w3.org/1999/xlink" x="0px" y="0px"
	 viewBox="0 0 2000 2000" enable-background="new 0 0 2000 2000" xml:space="preserve">
<g id="_x31_7_x5F_HeadGear_x5F_DadCap_x5F_Foreground">
	<path fill="#93AAED" d="M559.6,591.1c4.5-1.5,25.7,4.5,25.7,4.5l21.9,19.5l8.2,11.9l25.3,11l36,1l35.1-6l86.7-38l110.1-43l105.2-38
		l81.8-20c0,0,118.8-2,121.7-1s127.7,24,131.7,24c2.2,0,37.9,12.1,67,29c23.7,13.8,42,33,42,33l28-3l-4-18l-86-34l-62-25l2.6-17.4
		L1325,452l-75.5-88c0,0-34.2-56.1-42.9-61c-8.6-4.9-88.6-11-88.6-11l-51.7-15.5L999.2,255l-35.1-21l-68.2,6l-81.8,117
		c0,0-113.9,36-116.9,35c-2.9-1-55.5-15-55.5-15s-43.8,15-45.8,20c-1.9,5-18.5,105-18.5,105"/>
	<path fill="#5C6E9D" d="M1205.1,467c0,0,130.1,42,127.1,37c-3.1-5-7.3-30.5-8.3-35.4S1202.1,427,1202.1,427L1205.1,467z"/>
	<path fill="#5C6E9D" d="M1015.1,258.5c1.9,3.1,5.4,5.4,6.5,6.1c2.2,1.2,29.1,4.4,44.6,11.8s39.1,16.5,57.9,19.2s36.6,1.7,50.2,5
		c8.6,2.1,20.3,0.6,27.7-0.8c-1.4-1.1-2.7-1.7-4-1.7c0,0-5.3,0.5-39.6-3.8c-34.4-4.3-68.4-12.2-83.6-20.8
		c-15.3-8.5-30.5-6.9-41.1-9.3s-20.3-4.7-17.3-15l0,0C1013,252.4,1013.4,255.8,1015.1,258.5z"/>
	<path fill="#5C6E9D" d="M934.5,229.3c5.2,0,12.5,0,22.3,0.7c5.3,0.4,10.6,0.7,15.6,1.1c-0.1-0.1-0.2-0.1-0.2-0.1
		c2.7,0.2,5.3,0.5,7.9,0.8c1.7,0.2,3.3,0.3,4.8,0.5l0,0c1.1,0.1,2.1,0.3,3.1,0.4l0,0c4.7,0.7,8.9,1.6,12.5,2.8
		c0.2,0,0.4,0.1,0.6,0.1c-10.8-3.8-27-4.6-44.3-5.7c-11.2-0.7-19.1-0.7-24.4-0.6C933,229.3,933.7,229.3,934.5,229.3
		C934.4,229.3,934.4,229.3,934.5,229.3z"/>
	<path fill="#5C6E9D" d="M1476.6,578.1c-5.4,2.3-12.1,5-27.7-12s-61.4-37.2-91.9-48c-30.6-10.9-88.5-25.6-148.4-28.7
		c-102.9-5.4-160.2,5.6-245.9,36.3C877,556.3,839.2,574.3,736.1,619S606,612.8,607,609s-2.3-7.2,13.7-15s64.9-49.6,129.5-78.3
		s112.7-51.3,155.1-63.4s61.1-21.1,126.8-26.3c65.7-5.2,122.5,9.3,166.4,26.1c44,16.6,81.7,24.6,107.3,28.4
		c10.8,2,40.7,15.9,72.6,27.4s52.1,18.2,79.2,29.5c17.3,7.3,26,15.7,29.6,23.3c-3.5-7.8-12.3-16.3-29.7-23.5
		c-27.2-11.3-47.4-18-79.2-29.5c-31.9-11.5-62.8-22.8-73.7-24.8c0,0,5.2-3.5,4.4-10c-0.5-4.5-3-10.3-6.4-16.4
		c0.6,9,0.8,11.2-0.8,15.5c-2.4,6.1-4.9,6.5-16.8,1.8l0,0c-1.3-0.5-2.8-1.1-4.4-1.8c-0.1,0-0.1,0-0.1,0s0,0,0.1,0
		c-15.9-6.4-97.8-36.6-147.4-43.3c-32.2-4.3-66.4-9.2-107.5-6.7c0,0,0,0,0,0.1c-0.6,0-1.2,0.1-1.8,0.1c0,0,0,0,0-0.1
		c-21.8,1.5-45.4,5-71.9,11.9c-77.4,20-166.1,56.8-205.8,77c-24.1,12.2-46,25.6-65.6,38.1c-0.4,0.3-0.8,0.5-1.2,0.8l0,0
		c-3.2,2-6.3,4-9.3,6c0,0,0,0,0.1,0.1c-0.8,0.5-1.7,1.1-2.5,1.6c0,0,0,0-0.1,0c-7.9,5.1-15.3,9.9-22.2,14.2c-27,17-30.1,24-45.6,6.3
		s-16.3-29.5-17.3-35s2.3-18,9.3-34s13.3-35.8,18-63.3s6.4-38.7,7.7-43.7s3.1-8,12.3-10.3c6.5-1.6,11.7-4.8,23.9-6.3l0,0
		c1.2-0.2,2.5-0.3,3.8-0.4c0,0,0,0,0,0.1c4.4-0.4,9.7-0.5,16-0.4c28,0.6,33.9-15.2,39.9-22.7s17.9-25,51.6-32.2
		c33.7-7.1,68.3-29.5,61.4-55.9l-13.8-16.4c0,0,6.1-6.9,20-10.1c8.7-2.1,16.2-3.4,20.6-4.1c-0.1,0-0.1,0-0.2,0
		c2.8-0.5,4.4-0.7,4.4-0.7s1.2-0.7,3.3-1.9c0,0,0,0,0.1,0c7-4,23.9-12.7,39-13.5c6.9-0.4,11.7-0.3,15.1-0.1c-0.1,0-0.2-0.1-0.2-0.1
		c-3.5-0.2-8.2-0.3-15,0.1c-19.8,1.1-42.4,15.5-42.4,15.5s-10.9,1.5-24.8,4.7c-14,3.3-20,10.2-20,10.2l13.8,16.4c0,0-2.3,8.4-8,17.6
		s-16.2,22.2-38.4,28c-22.3,5.8-32,8.5-46.9,19s-24.5,23.5-31.6,31.2c-7.2,7.7-10.8,9.1-16.8,10.7s-17.2-3.6-30.9-8.3
		c-13.8-4.7-42.2-8.8-54.8-6.4l2.9-10.4c0,0-1.1-1.1-13.5,11.3s-37,56.5-42.2,74.4s4.1,19.4-5.4,46.2c-9.5,26.8-20.5,48.9-24.4,73
		s-4.6,51.2,4.1,73c8.7,21.9,14.4,22.6,20.6,14.3c5.8-7.8,31.9-22.9,62.7-40.9c0,0-14.7,17.4,33.9,31.1
		c48.6,13.7,114.5-10.7,157.7-34c43.2-23.5,153.9-69.8,262.1-96.8s244.8,2,244.8,2s0,0.1,0,0.2c46.2,9,94.6,26.1,120.2,43.8
		c24.6,17,34.7,31.9,47.8,39.3c14.4-7.2,16.9-10.3,18.9-19.5c0.6-2.6,0.5-5.5-0.5-8.7C1483,576.2,1480.6,576.4,1476.6,578.1z"/>
	<path fill="#5C6E9D" d="M930.9,229.4C930.9,229.4,930.9,229.3,930.9,229.4c-1.7,0-3,0-4-0.1c0,0,0.1,0,0.1,0.1
		C928.1,229.4,929.4,229.4,930.9,229.4z"/>
	<path fill="#5C6E9D" d="M1174.3,300.6c-13.6-3.3-31.4-2.3-50.2-5s-42.4-11.8-57.9-19.2s-42.4-10.6-44.6-11.8
		c-1.1-0.6-4.5-3-6.5-6.1c1.9,3.1,5.4,5.5,6.6,6.2c1,0.5,6.7,1.4,14.1,2.9c1.1,0.2,2.2,0.4,3.3,0.7c1.1,0.2,2.3,0.5,3.4,0.7
		c1.2,0.3,2.3,0.5,3.5,0.8c2.4,0.6,4.8,1.2,7.2,1.9c3.6,1,7,2.2,10.2,3.5c1,0.4,2.1,0.9,3,1.3c15.5,7.4,39.1,16.5,57.9,19.2
		S1160.8,297.4,1174.3,300.6c8.7,2.2,20.4,0.7,27.8-0.7c0.3,0.3,0.6,0.6,1,0.9c-0.4-0.4-0.7-0.7-1.1-1l0,0
		C1194.6,301.2,1182.9,302.7,1174.3,300.6z"/>
	<path fill="#93AAED" d="M1457.6,537.4c-27.2-11.3-47.4-18-79.2-29.5c-48.8-19.4-131.3-44.5-178.8-57.9
		c-43.9-16.8-101.8-29.2-167.5-24s-84.4,14.2-126.8,26.3c-42.4,12.1-90.5,34.7-155.1,63.4c-64.6,28.7-113.5,70.5-129.5,78.3
		S608,605.2,607,609s26,54.7,129.1,10s141-62.7,226.6-93.3c85.7-30.7,143-41.7,245.9-36.3c59.9,3.1,117.7,17.8,148.4,28.7
		c30.5,10.8,76.4,31,91.9,48s22.2,14.3,27.7,12c4-1.7,6.5-1.9,11.9-14c0,0,0,0,0-0.1c-0.3-1.1-0.7-2.2-1.2-3.3
		C1483.6,553.1,1474.9,544.7,1457.6,537.4z"/>
	<path fill="#93AAED" d="M984.9,232.3c-1.6-0.2-3.2-0.4-4.8-0.5c1.7,0.2,3.3,0.4,5,0.7C985,232.4,985,232.4,984.9,232.3z"/>
	<path fill="#93AAED" d="M1242.2,398c1.9,10,23.8,18.9,28.8,27.7c4.5,7.8,9.4,15.7,12,24.3c1.2,4.1,2.1,8.4,2.2,12.7
		c0.1,3.5,0.2,7.5-0.2,11.1c11.9,4.7,14.5,4.3,16.8-1.8c1.6-4.3,1.4-6.5,0.8-15.5v-0.1c-1.3-2.5-2.8-5.1-4.3-7.7
		c-5.2-9.2-11.5-21.2-20-35c-6.7-10.7-33.5-20.1-37.3-23.7C1241.3,392.7,1241.7,395.3,1242.2,398z M1243.2,395.5
		c-0.2-1.4,1.7-1.9,2.1-0.6c0.3,0.9,0.1,1,0.1,2c0,0.7,0,1.2,0.1,1.7c-0.6,0-1.2-0.1-1.7-0.2
		C1243.7,397.4,1243.4,396.5,1243.2,395.5z M1264.2,408.9c-0.9-2-19.3-4.2-19.9-6.4h2.3c0.6,1.9,18.7,3.8,19.5,5.6
		C1266.5,409.2,1264.7,409.9,1264.2,408.9z M1266.5,414.3c-0.5-0.9-1-1.7-1.4-2.6c0.8-0.1,1.5-0.2,2.4-0.4v0.1c0.3,0.7,0.7,1.3,1,2
		C1267.8,413.6,1267.1,413.9,1266.5,414.3z M1271.9,423.3c-1-1.8-2.2-3.6-3.3-5.4c0.1-0.1,0.2-0.1,0.2-0.1c0.6-0.2,1.1-0.4,1.6-0.6
		c0.9,1.8,1.8,3.5,2.9,5.2C1272.9,422.7,1272.4,423,1271.9,423.3z M1276.9,431.7c-1-1.7-2.1-3.3-2.9-4.9c0.5-0.3,0.9-0.6,1.4-0.9
		c0.9,1.6,1.8,3.2,2.8,4.8C1277.7,431,1277.3,431.3,1276.9,431.7z M1282.9,442.8c-1.1-2.3-2.4-4.6-3.6-6.8c0.1-0.2,0.3-0.3,0.5-0.5
		s0.5-0.4,0.7-0.6c1.3,2.3,2.6,4.6,3.7,6.9C1283.8,442.1,1283.3,442.4,1282.9,442.8z M1285.7,450.2c-0.3-1.1-0.6-2.1-1-3.1
		c0.5-0.3,1-0.6,1.4-0.7c0.9,2.5,1.6,5,2.2,7.6c-0.1,0-0.2,0.1-0.3,0.1c-0.4,0.1-0.9,0.3-1.3,0.5
		C1286.4,453.1,1286.1,451.6,1285.7,450.2z M1288.6,475.1c-0.6-0.2-1.2-0.5-1.8-0.7c0.1-0.7,0.2-1.5,0.3-2.2c0.5,0.4,1.1,0.7,1.7,1
		C1288.7,473.8,1288.6,474.5,1288.6,475.1z M1289.2,466.5c-0.3-0.3-0.6-0.5-0.9-0.8c-0.3-0.2-0.5-0.3-0.8-0.5c0-2.1,0-4.1-0.2-6
		c0.3-0.1,0.5-0.1,0.8-0.1s0.6-0.1,0.9-0.1C1289.2,461.5,1289.3,464,1289.2,466.5z M1290.4,453.3c0.1-0.1,0.3-0.2,0.4-0.3
		C1290.8,453,1290.7,453.1,1290.4,453.3z"/>
	<path fill="#93AAED" d="M1000.5,235.5c-3.6-1.2-7.9-2.1-12.5-2.8c0.1,0.1,0.1,0.2,0.2,0.2C992.5,233.7,996.6,234.6,1000.5,235.5z"
		/>
	<path fill="#93AAED" d="M652.1,482.1c1.1-9.1,2.4-18.2,2.7-27.3c0.3-9.7-0.7-19.4-1.7-29c-1.4-13-3.1-27.5,0.4-40.4
		c-12.2,1.5-17.3,4.6-23.9,6.3c-9.2,2.3-12.1,5.3-13.4,10.3c-1.3,5-3,16.2-7.7,43.7s-11,47.3-18,63.3s-10.3,28.5-9.3,34
		s1.8,17.3,17.3,35s19.8,10.7,46.7-6.3c6.9-4.4,14.4-9.2,22.2-14.2C647.7,539.5,649,507.1,652.1,482.1z M649.7,475.1
		c-0.1,0.5-0.1,0.9-0.2,1.4c-0.7-0.3-1.3-0.5-1.9-0.8c-0.2-0.1-0.5-0.2-0.7-0.3c0.3-2.4,0.6-4.8,0.8-7.1c0.8,0.4,1.7,0.7,2.7,1.1
		C650.2,471.3,650,473.2,649.7,475.1z M648.7,481.6c-0.3,1.9-0.5,3.7-0.8,5.6c-0.8-0.2-1.7-0.5-2.6-0.8c0.3-2,0.6-4,0.9-6
		C647,480.8,647.9,481.3,648.7,481.6z M650.7,464.5c-0.9-0.2-1.8-0.4-2.7-0.6c0.2-2.8,0.4-5.5,0.5-8.3c0.9,0.2,1.8,0.3,2.7,0.4
		C651.1,458.8,650.9,461.7,650.7,464.5z M651.2,451.7c-0.8-0.1-1.7-0.2-2.6-0.2c0.1-1.6,0.1-3.2,0.1-4.8c0.9,0,1.7,0,2.6,0
		C651.3,448.3,651.3,450,651.2,451.7z M651.2,442.2c-0.9-0.1-1.7-0.1-2.6-0.2c0-2.7-0.2-5.5-0.4-8.2c0.8,0.1,1.6,0.2,2.5,0.2
		C650.9,436.7,651.1,439.5,651.2,442.2z M649.7,424c0.2,1.5,0.3,3,0.5,4.5c-0.9,0-1.7,0-2.5,0.1c0-0.1,0-0.3,0-0.4
		c-0.3-2.7-0.7-5.4-1.1-8.1c0.8-0.1,1.7-0.1,2.5-0.2C649.3,421.2,649.5,422.5,649.7,424z M646.1,416.2c-0.3-1.8-0.5-3.7-0.7-5.5
		c0.9-0.1,1.8-0.3,2.7-0.5c0.1,2,0.4,3.9,0.6,5.9C647.8,416.2,647,416.2,646.1,416.2z M645.7,387.5c0.9-0.1,1.9-0.3,2.8-0.6
		c-0.2,2.1-0.3,4.3-0.5,6.4c-0.9,0.1-1.8,0.1-2.7,0.1C645.4,391.4,645.5,389.4,645.7,387.5z M645.2,396.6c0.9,0,1.8-0.1,2.7-0.2
		c-0.1,0.2-0.1,0.5-0.1,0.8c-0.2,3.1-0.2,6.1,0,9.1c-0.1,0.1-0.1,0.1-0.2,0.1c-0.9,0.2-1.7,0.4-2.5,0.5c-0.2-2-0.2-4-0.2-6
		C644.9,399.4,645,398,645.2,396.6z M644.8,489.9c0.8,0.3,1.5,0.7,2.2,1c0.2,0,0.3,0.1,0.4,0.3c-0.3,2.6-0.6,5.2-0.8,7.8
		c-0.9-0.1-1.8-0.2-2.7-0.3C644.1,495.6,644.4,492.7,644.8,489.9z M643.7,503.3c0.8,0.2,1.7,0.3,2.6,0.4c-0.1,2.1-0.2,4.3-0.2,6.5
		c-0.9,0.3-1.7,0.5-2.6,0.6C643.5,508.3,643.6,505.8,643.7,503.3z M643.6,514.6c0.8-0.1,1.7-0.2,2.5-0.3c0.1,3,0.4,6.1,0.8,9.2
		c-0.9,0.1-1.7,0.2-2.6,0.3C644,520.7,643.7,517.7,643.6,514.6z M644.9,528.2c0.9-0.1,1.8-0.2,2.7-0.2c0.5,2.4,1,4.8,1.7,7.1
		c-0.9,0.2-1.8,0.5-2.6,1C645.9,533.5,645.4,530.9,644.9,528.2z M647.7,539.5c0.5-0.1,1-0.3,1.5-0.4c0.4-0.2,0.9-0.2,1.2-0.3
		c0.5,1.4,1,2.6,1.5,3.9c-0.9,0.2-1.7,0.6-2.6,1C648.7,542.3,648.2,540.9,647.7,539.5z M654.8,552.9c-0.1,0.1-0.1,0.1-0.2,0.2
		c-1.3-1.7-2.5-3.6-3.5-5.6c0.9-0.4,1.9-0.6,2.8-0.7c0.8,1.6,1.8,3.1,2.8,4.6C656.1,551.8,655.4,552.4,654.8,552.9z M662.2,560.8
		c-1.6-1.3-3.2-2.7-4.6-4.2c0.1-0.1,0.3-0.2,0.5-0.3c0.6-0.4,1.2-0.7,1.8-1c1.4,1.5,2.9,2.9,4.6,4
		C663.7,559.8,663,560.3,662.2,560.8z"/>
	<path fill="#93AAED" d="M1174.4,300.7c-13.7-3.3-31.4-2.3-50.2-5s-42.4-11.8-57.9-19.2c-1-0.5-2-0.9-3-1.3
		c-3.1-1.3-6.6-2.4-10.2-3.5c-2.4-0.7-4.8-1.3-7.2-1.9c-1.2-0.3-2.4-0.6-3.5-0.8c-1.2-0.3-2.3-0.5-3.4-0.7s-2.2-0.5-3.3-0.7
		c-7.4-1.5-13.1-2.4-14.1-2.9c-1.2-0.6-4.7-3-6.6-6.2c-1.7-2.8-2.2-6.1,1.3-9.3l-7,2.2c0,0-19.7-8-20.7-9
		c-0.9-0.9-14.9-10.2-16.4-11.3c-5-0.4-10.2-0.7-15.6-1.1c-9.8-0.7-17.1-0.7-22.3-0.7c1.3,0.7,2.6,1.4,3.8,2
		c-0.4,0.4-0.8,0.9-1.2,1.4c-2.2-1-4.2-2.2-6.2-3.3c-1.6,0-2.9,0-3.9,0c7.2,4.2,14.7,7.7,22.5,11c16,6.9,33,12.3,43.7,26.8
		c10.4,14.2,18.7,31.2,24.7,47.7c3.1,8.6,5.4,17.5,6.8,26.5c0.8,4.6,1.4,9.2,1.6,13.9c0.1,2.6,0.5,5,0.8,7.5
		c1.3,12.1,4.3,25.1,5.7,36.9c0.6,2.3,1.2,4.6,1.7,6.8c1.1,5,1.7,9.8,1.8,15c-0.8,0-1.7,0.1-2.8-0.1c0.6-3.8,0.2-7.9-0.7-11.9
		c-0.6-2.8-1.4-5.7-2.2-8.4c-2.4-18.3-3.4-36.3-7.5-54.7c-0.4-3-1-5.9-1.6-8.9c-1.8-8.9-4.3-17.7-7.6-26.2
		c-3.4-8.7-7.4-17.2-12-25.3c-4.3-7.6-9.1-15.8-15.2-22.2C974.7,251,955,246.6,939.2,240c-7.4-3.2-14.3-7-21.2-11.1
		c-1.2-0.7-2.2-1.3-3.4-1.8c-3.5-0.2-8.3-0.3-15.1,0.1c-15.2,0.8-32,9.5-39,13.5c0.5,0.1,1,0.1,1.4,0.2c8.4,1.2,16.2,3.8,24.1,6.6
		c0.4,0.2,0.2,0.8-0.2,0.7c-10.7-2.6-21.8-4-32.8-4.9c-4.4,0.7-11.9,2-20.6,4.1c-13.9,3.2-20,10.1-20,10.1l13.8,16.4
		c6.9,26.4-27.7,48.8-61.4,55.9c-33.7,7.2-45.6,24.7-51.6,32.2s-12,23.3-39.9,22.7c-6.4-0.2-11.6,0-16,0.4
		c-3,13.4-2.8,26.8-1.4,40.7c0.9,9,1.8,18,1.5,27.1c-0.3,8.2-1.2,16.4-2.2,24.5c-3.2,25.7-6.7,60.3,14.8,78.4c3-2,6.1-3.9,9.3-6
		c-0.7-0.3-1.3-0.6-1.9-0.9c0.5-0.5,1.2-0.9,1.8-1.4c0.7,0.3,1.5,0.6,2.2,0.9c-0.3,0.2-0.6,0.4-0.9,0.6
		c19.6-12.5,41.5-25.9,65.6-38.1c39.7-20.2,128.5-57,205.8-77c26.5-6.8,50.1-10.4,71.9-11.9c-0.1-0.2-0.1-0.4-0.2-0.5
		c0.5-0.1,1.1-0.3,1.7-0.4c0.1,0.3,0.2,0.5,0.3,0.8c41.1-2.6,75.4,2.3,107.5,6.7c49.6,6.7,131.5,36.9,147.4,43.3
		c1-2.5,1.8-4.5,1.9-7.6c0.1-2.8-0.3-5.7-0.8-8.5c-0.8-4.1-2.3-8-3.8-11.9c-3.6-8.7-8.8-16.6-13.2-25c-4.1-7.8-24.7-15.4-26-24
		c-0.5-3.4-0.8-6.9-1.1-10.3c0.3,0.6,0.5,1.1,0.7,1.6c-0.7-1.6-1.8-4.1-3-7.1c0,0.1,0.1,0.2,0.1,0.3c-0.1,1.3-0.3,2.6-0.4,3.9
		c-0.7-0.1-1.4,0-2.2,0c0.4-2.6,0.7-5.3,1-8c0.1,0.1,0.1,0.3,0.2,0.4c-1.4-3.7-2.8-7.9-4-12.1c-2.9-10.9-15.9-52.1-27-62.9
		c-0.3-0.3-0.6-0.6-1-0.9C1194.7,301.3,1183,302.8,1174.4,300.7z M659.5,489c0.7,0.2,1.4,0.4,2.1,0.6c-0.4,2-0.7,4.1-1,6.1
		c-0.7-0.1-1.4-0.2-2.2-0.2C658.8,493.3,659.1,491.2,659.5,489z M658.7,418.7c0.7,0,1.5,0,2.3,0c0.4,3.3,1,6.6,1.6,9.9
		c0,0.1,0.1,0.3,0.1,0.4c-0.9,0-1.7-0.1-2.5-0.1c-0.1-0.5-0.2-1-0.2-1.5C659.4,424.5,659,421.6,658.7,418.7z M660.3,484.1
		c0.3-2,0.7-4.1,1-6.1c0.7,0.4,1.4,0.7,2.1,1c-0.3,1.9-0.6,3.8-1,5.7C661.7,484.5,661,484.3,660.3,484.1z M662.1,472.5
		c0.2-1.4,0.4-2.8,0.5-4.2c0.7,0.1,1.5,0.2,2.2,0.3c-0.1,1.6-0.3,3.2-0.6,4.9C663.6,473.2,662.8,472.8,662.1,472.5z M663.1,463.1
		c0.1-1.8,0.2-3.7,0.2-5.5c0.7,0,1.4,0.1,2.1,0.1c0,1.9-0.1,3.8-0.1,5.7C664.5,463.3,663.8,463.2,663.1,463.1z M665.2,453.2
		c-0.7-0.1-1.4-0.2-2.1-0.3c0-1.8-0.1-3.7-0.3-5.5c0.8,0.1,1.5,0.3,2.2,0.5C665.1,449.6,665.2,451.4,665.2,453.2z M662.3,442.3
		c-0.3-2.6-0.8-5.3-1.2-8c0.9,0.1,1.7,0.1,2.4,0c0.5,2.8,0.8,5.5,1.1,8.2C663.8,442.4,663.1,442.4,662.3,442.3z M661.1,385.1
		c0.2,0,0.4,0,0.6,0.1c0.4,0,1,0,1.9,0.1c-0.6,2.7-1.2,5.4-1.7,8.1c-0.9-0.1-1.7-0.2-2.5-0.3C659.9,390.4,660.4,387.7,661.1,385.1z
		 M659,396.5c0.8,0.1,1.6,0.2,2.4,0.3c-0.4,2.1-0.6,4.2-0.8,6.4c0,0.1,0,0.3,0,0.4c-0.1,0-0.1,0-0.2,0c-0.7-0.1-1.4-0.2-2.1-0.3
		C658.4,401,658.6,398.7,659,396.5z M658.2,407.2c0.7,0.1,1.5,0.3,2.2,0.4c0,2.3,0,4.6,0.2,6.9c-0.8,0-1.6,0-2.3,0.1
		C658.1,412.1,658.1,409.7,658.2,407.2z M657.7,500.6c0.8,0.1,1.5,0.2,2.2,0.3c-0.2,2.3-0.4,4.5-0.5,6.8c-0.7,0.1-1.5,0.1-2.2,0.1
		C657.3,505.4,657.5,503,657.7,500.6z M657.1,512.3c0.7-0.1,1.4-0.2,2.2-0.2c0.1,3.5,0.4,7.1,1.2,10.6c-0.7,0.1-1.5,0.2-2.3,0.3
		C657.5,519.4,657.2,515.9,657.1,512.3z M663.4,536.4c-1-1.5-1.8-3.2-2.5-4.9c-0.5-1.2-0.9-2.5-1.3-3.7c0.8,0,1.6,0,2.4-0.1
		c1,2.9,2.3,5.6,3.9,8.2C665.1,536.2,664.2,536.4,663.4,536.4z M672,545.6c-2.1-1.5-4-3.2-5.7-5.3c0.8-0.2,1.5-0.5,2.2-0.9
		c1.1,1.3,2.2,2.4,3.5,3.5c0.6,0.5,1.2,1,1.8,1.4C673.1,544.8,672.6,545.2,672,545.6z M903.6,229.3c-0.3,0.3-0.6,0.6-0.8,0.9
		c-3.6-0.8-7.1-1.5-10.6-2c2.1-0.4,4.3-0.7,6.4-0.9c1.9,0.4,3.8,0.8,5.6,1.3C904,228.9,903.8,229.1,903.6,229.3z M912.9,233.1
		c-1.2-0.4-2.5-0.8-3.8-1.2c-1.2-0.4-2.4-0.7-3.6-1c0.5-0.5,1.1-1,1.6-1.5c1.8,0.6,3.6,1.1,5.4,1.7c0.6,0.1,1.1,0.3,1.6,0.5
		C913.7,232.1,913.3,232.6,912.9,233.1z M923.4,237c-2.2-0.9-4.4-1.7-6.6-2.5c0.4-0.5,0.9-0.9,1.3-1.4c2.2,0.7,4.3,1.6,6.4,2.5
		C924.1,236,923.7,236.5,923.4,237z M931.4,240.1c-0.1,0.1-0.2,0.2-0.3,0.3c-2-0.9-3.9-1.8-5.9-2.6c0.3-0.5,0.7-0.9,1.1-1.4
		c2.1,0.9,4.2,1.8,6.2,2.8C932.2,239.5,931.8,239.8,931.4,240.1z M939.5,244.5c-1.5-0.8-3-1.6-4.5-2.3c0.5-0.4,1.1-0.7,1.6-1.1
		c1.2,0.6,2.3,1.2,3.5,1.8c0.2,0.1,0.5,0.2,0.7,0.4C940.4,243.7,939.9,244.1,939.5,244.5z M946.6,248.2c-1.2-0.6-2.4-1.3-3.6-1.9
		c0.2-0.2,0.4-0.3,0.6-0.5c0.3-0.2,0.5-0.4,0.7-0.7c1.2,0.6,2.4,1.3,3.5,1.8C947.4,247.4,947,247.8,946.6,248.2z M955.2,252.8
		c-0.1,0-0.2,0.1-0.3,0.2c-1.5-0.9-3.1-1.8-4.7-2.7c0.4-0.4,0.8-0.9,1.2-1.3c1.6,1,3.2,1.9,4.8,2.8
		C955.9,252.2,955.5,252.5,955.2,252.8z M964.5,258.2c-0.1,0.1-0.2,0.2-0.4,0.2c-2.1-1.3-4.3-2.5-6.4-3.8c-0.1-0.1-0.3-0.2-0.5-0.3
		c0.5-0.3,1.1-0.7,1.6-1c1.7,1,3.4,2.1,5.1,3.1c0.6,0.3,1.1,0.7,1.7,1C965.2,257.7,964.8,257.9,964.5,258.2z M975.6,265.7
		c-2.6-1.8-5.4-3.5-8.1-5.2c0.5-0.4,1-0.7,1.5-1c2.7,1.7,5.4,3.5,8.2,5.2C976.6,265,976.1,265.3,975.6,265.7z M986.4,274.6
		c-1.9-2-3.9-3.8-6-5.4c-0.7-0.5-1.3-0.9-2-1.4c0.6-0.3,1.3-0.5,1.9-0.7c1.9,1.4,3.8,2.8,5.5,4.4c0.8,0.7,1.5,1.4,2.2,2.2
		C987.4,274,986.9,274.3,986.4,274.6z M993.3,283.5c-1.5-2.3-3.1-4.4-4.8-6.5c0.5-0.3,1-0.5,1.6-0.8c1.7,2.1,3.2,4.3,4.7,6.5
		C994.3,282.9,993.8,283.2,993.3,283.5z M998,292.1c-0.2-0.5-0.5-1.1-0.8-1.6c-0.7-1.3-1.4-2.7-2.2-4c0.2-0.1,0.3-0.1,0.4-0.2
		c0.4-0.2,0.7-0.3,1.1-0.5c1.1,1.9,2.1,3.8,3.1,5.7C999.1,291.6,998.6,291.9,998,292.1z M1002,299.7c-0.7-1.5-1.5-3-2.2-4.4
		c0.5-0.2,1-0.4,1.5-0.5c0.7,1.5,1.4,2.9,2.2,4.5C1003,299.4,1002.5,299.5,1002,299.7z M1003.7,303.4c0.5-0.1,1.1-0.2,1.6-0.2
		c0.6,1.4,1.3,2.8,1.9,4.3c-0.5,0-1.1,0.1-1.6,0.2C1005,306.3,1004.4,304.8,1003.7,303.4z M1006.9,310.7c0.5-0.1,1.1-0.1,1.6,0
		c0.6,1.4,1.2,2.9,1.8,4.4c-0.5,0.1-1,0.2-1.5,0.4C1008.2,313.9,1007.6,312.3,1006.9,310.7z M1010.2,319.3c0.5-0.2,1-0.3,1.6-0.3
		c1,2.8,2,5.8,2.8,8.7c-0.5,0.1-1,0.3-1.5,0.5C1012.2,325.2,1011.2,322.2,1010.2,319.3z M1014.1,331.7c0.3-0.1,0.7-0.3,1.1-0.4
		c0.1,0,0.2-0.1,0.3-0.1c0.6,2,1.1,4.1,1.5,6.2c-0.5,0.1-1,0.2-1.5,0.4C1015.1,335.8,1014.6,333.7,1014.1,331.7z M1016.4,343.1
		c-0.1-0.8-0.3-1.5-0.4-2.3c0.5-0.2,1-0.3,1.5-0.3c0.4,1.7,0.6,3.5,0.9,5.2c0,0.4,0.1,0.7,0.1,1.1c-0.5,0.1-1,0.3-1.5,0.5
		C1016.8,345.9,1016.6,344.5,1016.4,343.1z M1017.4,350.9c0.5-0.1,1-0.3,1.5-0.4c0.3,2.8,0.5,5.7,0.6,8.5c-0.5,0.1-1,0.2-1.5,0.3
		C1017.8,356.5,1017.7,353.7,1017.4,350.9z M1019.7,362.8c0.1,2.5,0.2,5.1,0.2,7.6c-0.6,0-1.1,0-1.6,0c-0.1-2.5-0.1-4.9-0.2-7.4
		C1018.7,362.9,1019.2,362.9,1019.7,362.8z M1018.3,374.6c0.6,0,1.1,0.1,1.6,0.2c0,0.2,0.1,0.5,0,0.8c0,1.8,0.1,3.7,0.1,5.5
		c-0.5,0-1.1,0.1-1.6,0.1C1018.4,379,1018.3,376.8,1018.3,374.6z M1018.5,384.4c0.4,0,0.8,0.1,1.1,0.2c0.2,0.1,0.4,0.2,0.5,0.2
		c0.1,3.1,0.3,6.3,0.5,9.4c-0.6-0.1-1.1-0.1-1.7,0C1018.7,391,1018.6,387.7,1018.5,384.4z M1019.3,398.3c0.6,0.1,1.2,0.3,1.8,0.7
		c0.2,2.7,0.6,5.4,1,8.1c-0.6-0.1-1.2-0.1-1.8-0.1C1019.8,404.1,1019.5,401.2,1019.3,398.3z M1022.6,418c-0.7-2.3-1.2-4.6-1.7-7
		c0.7,0.2,1.4,0.4,2,0.7c0.4,1.9,0.9,3.9,1.4,5.8C1023.8,417.7,1023.2,417.8,1022.6,418z M1045.3,406.6c-0.6,0-1.2-0.1-1.7-0.1
		c-0.1-0.4-0.1-0.7-0.1-1.1c0.2,0,0.4-0.1,0.6-0.1c0.3-0.1,0.6-0.2,1-0.2c0.1,0.2,0.1,0.3,0.1,0.5
		C1045.2,406,1045.3,406.3,1045.3,406.6z M949.7,238c-3.2-1.2-6.3-2.4-9.4-3.8c0.5-0.4,1.1-0.8,1.7-1.2c1.6,0.8,3.3,1.5,5,2.2
		c1.2,0.5,2.5,1,3.8,1.5C950.4,237.1,950,237.5,949.7,238z M959.8,240.9c-0.2,0.2-0.3,0.5-0.4,0.7c-1.9-0.7-3.8-1.4-5.7-2.2
		c0.3-0.2,0.6-0.5,0.9-0.7c0.2-0.1,0.4-0.3,0.6-0.4c1.7,0.6,3.4,1.3,5.1,1.9C960.1,240.4,959.9,240.7,959.8,240.9z M962.1,243.6
		c-0.2,0.1-0.4,0.2-0.6,0.3C961.7,243.8,962,243.6,962.1,243.6C962.1,243.6,962.1,243.7,962.1,243.6z M968.9,244.1
		c-0.3,0.2-0.7,0.5-1,0.8c-1.6-0.6-3.1-1.3-4.8-1.9c0.3-0.2,0.6-0.5,0.9-0.8c0.2-0.1,0.3-0.3,0.5-0.4c1.6,0.7,3.1,1.3,4.7,2
		C969.1,243.9,969,244,968.9,244.1z M976.2,249c-1.6-0.9-3.2-1.7-4.8-2.4c0.5-0.4,1-0.7,1.4-1.1c1.5,0.7,3,1.5,4.5,2.3
		C976.9,248.2,976.6,248.6,976.2,249z M983.2,251.9c-0.3,0.2-0.7,0.4-1,0.7c-1.2-0.8-2.4-1.6-3.7-2.3c0.2-0.2,0.3-0.4,0.6-0.6
		c0.2-0.2,0.4-0.3,0.6-0.5c1.3,0.8,2.6,1.6,3.8,2.5C983.4,251.8,983.3,251.8,983.2,251.9z M989.3,258.1c-1.6-1.4-3.3-2.7-5-4
		c0.1,0,0.2-0.1,0.3-0.2c0.3-0.2,0.6-0.5,0.8-0.7c1.8,1.3,3.5,2.7,5.2,4.2C990.2,257.6,989.7,257.9,989.3,258.1z M993.9,261.8
		c-0.2,0-0.3,0.1-0.5,0.1c-0.6-0.5-1.1-1-1.5-1.5c0.5-0.3,0.9-0.5,1.4-0.7c0.6,0.6,1.3,1.3,1.9,1.9
		C994.7,261.6,994.3,261.7,993.9,261.8z M999.9,269.5c-1-1.4-2.1-2.7-3.3-4c0.6,0,1.2-0.1,1.8-0.2c1.1,1.3,2.1,2.5,3.1,3.8
		C1001,269.2,1000.4,269.4,999.9,269.5z M1006.2,278.6c-1.2-2.1-2.6-4.1-4-6.1c0.6-0.1,1.1-0.2,1.6-0.4c0.7,1,1.4,2.1,2.1,3.1
		c0.6,0.9,1.2,1.9,1.8,2.8C1007.2,278.2,1006.7,278.4,1006.2,278.6z M1011.6,288.4c-1.1-2.2-2.3-4.4-3.5-6.5c0.5-0.2,1-0.4,1.5-0.6
		c1.3,2.1,2.4,4.2,3.5,6.4C1012.6,288,1012.2,288.2,1011.6,288.4z M1013.2,291.5c0.5-0.2,0.9-0.5,1.4-0.8c1,2.1,2,4.3,2.9,6.5
		c-0.4,0.2-0.9,0.5-1.4,0.7C1015.2,295.8,1014.2,293.6,1013.2,291.5z M1017.3,301.1c0.5-0.3,0.9-0.7,1.3-1.1
		c0.9,2.2,1.8,4.5,2.6,6.7c-0.5,0.1-1,0.3-1.5,0.4C1019,305.1,1018.2,303.1,1017.3,301.1z M1020.7,310c0.6-0.1,1.1-0.3,1.5-0.4
		c0.6,1.5,1.1,3,1.6,4.5c-0.5,0.2-1,0.4-1.5,0.5C1021.8,313.1,1021.3,311.5,1020.7,310z M1026.1,326.2c-0.8-2.5-1.6-5-2.4-7.5
		c0.5-0.2,1-0.4,1.5-0.6c0.3,0.9,0.5,1.8,0.9,2.6c0.6,1.7,1.1,3.5,1.6,5.2c-0.1,0-0.1,0-0.2,0C1027,326,1026.6,326.1,1026.1,326.2z
		 M1027.2,330c0.5-0.1,1-0.2,1.6-0.3c0.8,2.9,1.6,5.8,2.4,8.8c-0.5,0.1-1,0.3-1.5,0.4C1028.9,336,1028.1,333,1027.2,330z
		 M1032.8,351.9c-0.7-3-1.4-6.1-2.2-9.1c0.5-0.1,1-0.3,1.5-0.4c0.8,3.2,1.5,6.4,2.3,9.6C1033.9,352,1033.3,352,1032.8,351.9z
		 M1036,365.6c-0.7-3.2-1.4-6.3-2.1-9.5c0.5,0,1,0,1.6-0.1c0.7,3,1.4,6,2,9C1037,365.2,1036.5,365.4,1036,365.6z M1036.9,369.8
		c0-0.1-0.1-0.2-0.1-0.3c0.5-0.2,1-0.4,1.5-0.6c0.4,1.9,0.8,3.9,1.2,5.8c-0.5,0.1-1,0.3-1.5,0.4
		C1037.6,373.3,1037.3,371.6,1036.9,369.8z M1038.8,379.1c0.5-0.2,1-0.3,1.5-0.5c0.6,2.8,1.2,5.7,1.8,8.5c-0.6,0.1-1.1,0.2-1.6,0.3
		C1040,384.7,1039.4,381.9,1038.8,379.1z M1042.9,391c0.7,3.4,1.3,6.7,1.8,10.1h-0.1c0.1,0.4,0.2,0.8,0.2,1.2
		c-0.5-0.1-1-0.1-1.6-0.1c0-0.2-0.1-0.5-0.1-0.7c0.3-0.1,0.7-0.2,1-0.3c-0.4,0.1-0.7,0.1-1,0.2c-0.5-3.4-1.2-6.7-1.8-10.1
		C1041.8,391.2,1042.4,391.1,1042.9,391z M1043.7,421.3c-0.6,0-1.1,0-1.6,0c0.2-0.8,0.3-1.5,0.5-2.3c0.5,0.1,1,0.1,1.5,0.1
		C1043.9,419.9,1043.8,420.6,1043.7,421.3z M1044.8,415.1c-0.6,0-1.1,0-1.6,0c0.4-2.9,0.5-5.7,0.4-8.5c0.6,0,1.1,0,1.7,0.1
		C1045.4,409.6,1045.2,412.3,1044.8,415.1z M1275.9,463.9c-0.3,0.1-0.6,0.2-0.9,0.2l0,0c-0.1,0-0.1,0-0.2,0c0.1,0,0.1,0,0.2,0
		c0,0-0.7-0.1-0.8-0.1c-0.2-0.1-0.4-0.1-0.6-0.1c0-1.7,0-3.4-0.1-5.1c0.8-0.3,1.5-0.6,2.3-1.1
		C1275.9,459.8,1275.9,461.9,1275.9,463.9z M1272.9,443.6c0.3,1,0.6,1.9,1,2.8c0.4,1.7,0.8,3.5,1.1,5.2c-0.6,0.6-1.2,1.2-2.2,1.6
		c-0.3-2.9-1-5.7-1.9-8.4C1271.6,444.4,1272.3,444,1272.9,443.6z M1266.3,431.4c1.5,2.5,3.1,5,4.5,7.5c-0.6,0.5-1.1,0.9-1.7,1.4
		c-1.3-2.7-2.9-5.2-4.5-7.8C1265.1,432.1,1265.7,431.8,1266.3,431.4z M1243.8,423.2c0.9,1.7,19.4,3.5,20.6,5.2
		c-0.6,0.5-18.6,0.9-19.1,1.3c-1.7-2.7-3.5-5.4-5-8.2c0.8-0.2,1.5-0.4,2.3-0.5C1243,421.7,1243.4,422.5,1243.8,423.2z M1240.4,416.9
		c-0.8,0.2-1.5,0.4-2.2,0.6c-1.4-3-2.6-6.1-3.6-9.2c0.2,0,0.4-0.1,0.6-0.1c0.6-0.1,1.2-0.1,1.7,0.1
		C1237.9,411.2,1239.1,414.1,1240.4,416.9z M1235.8,404.7c-0.7,0-1.5,0.1-2.2,0.2c-0.5-1.8-0.8-3.7-1.1-5.6c0.8,0,1.5,0.1,2.3,0.2
		C1235,401.2,1235.4,403,1235.8,404.7z M1234.5,388.6c-0.1,2-0.2,4-0.2,6c-0.7-0.2-1.5-0.3-2.2-0.3c0-1.9,0-3.9,0.2-5.8
		C1233,388.6,1233.8,388.6,1234.5,388.6z"/>
	<path fill="#93AAED" d="M988.2,233c0.8,1.3,1.7,2.8,1.2,4.2c-0.1,0.5-0.6,0.6-1,0.4c-1.7-0.7-2.3-3.2-3.1-4.7
		c-0.1-0.1-0.2-0.3-0.3-0.4c-1.6-0.2-3.3-0.5-5-0.7c-2.6-0.3-5.2-0.6-7.9-0.8c0,0,0.1,0,0.2,0.1c1.6,1.1,15.5,10.4,16.4,11.3
		c1,1,20.7,9,20.7,9l7-2.2l0,0l0,0l7-6.7c0,0-9-3.6-22.4-6.9c-0.2,0-0.4-0.1-0.6-0.1C996.6,234.6,992.5,233.7,988.2,233z"/>
	<path fill="none" d="M1280.6,472C1280.5,472,1280.5,472,1280.6,472"/>
	<path fill="#5C6E9D" d="M1238.7,395c1.3,8.6,21.9,16.2,26,24c4.4,8.4,9.6,16.3,13.2,25c1.5,3.9,3,7.8,3.8,11.9
		c0.5,2.8,0.9,5.7,0.8,8.5c-0.1,3.1-0.9,5.1-1.9,7.6c1.6,0.7,3.1,1.3,4.4,1.8l0,0c0.4-3.6,0.3-7.6,0.2-11.1
		c-0.1-4.3-0.9-8.6-2.2-12.7c-2.6-8.6-7.5-16.5-12-24.3c-5-8.8-26.9-17.7-28.8-27.7c-0.5-2.7-0.9-5.3-1.2-8v-0.1
		c-1.1-1-1.7-1.6-1.7-1.6s-0.4-0.7-1-2c-0.2-0.5-0.5-1-0.7-1.6C1237.9,388.1,1238.2,391.6,1238.7,395z"/>
	<path fill="#5C6E9D" d="M1279.9,435.5c-0.2,0.2-0.4,0.3-0.5,0.5c1.2,2.2,2.5,4.5,3.6,6.8c0.4-0.4,0.8-0.7,1.3-1
		c-1.1-2.3-2.4-4.6-3.7-6.9C1280.4,435.1,1280.1,435.3,1279.9,435.5z"/>
	<path fill="#5C6E9D" d="M1286.7,474.4c0.6,0.2,1.2,0.5,1.8,0.7c0-0.6,0.1-1.3,0.2-1.9c-0.6-0.3-1.2-0.6-1.7-1
		C1286.9,472.9,1286.8,473.7,1286.7,474.4z"/>
	<path fill="#5C6E9D" d="M1267.5,411.3c-0.8,0.2-1.5,0.3-2.4,0.4c0.4,0.9,0.9,1.7,1.4,2.6c0.6-0.4,1.2-0.7,1.9-0.9
		C1268.2,412.7,1267.8,412.1,1267.5,411.3L1267.5,411.3z"/>
	<path fill="#5C6E9D" d="M1268.8,417.8c0,0-0.1,0-0.2,0.1c1.1,1.8,2.3,3.6,3.3,5.4c0.5-0.3,1-0.6,1.4-0.9c-1-1.7-1.9-3.4-2.9-5.2
		C1269.9,417.4,1269.4,417.6,1268.8,417.8z"/>
	<path fill="#5C6E9D" d="M1274,426.8c0.8,1.6,1.8,3.2,2.9,4.9c0.4-0.4,0.8-0.7,1.3-1c-0.9-1.6-1.8-3.2-2.8-4.8
		C1274.9,426.2,1274.5,426.5,1274,426.8z"/>
	<path fill="#5C6E9D" d="M1288.3,454c-0.5-2.6-1.2-5.1-2.2-7.6c-0.4,0.1-0.9,0.4-1.4,0.7c0.4,1,0.7,2,1,3.1c0.4,1.4,0.7,2.9,0.9,4.4
		c0.4-0.2,0.9-0.4,1.3-0.5C1288.1,454.1,1288.2,454,1288.3,454z"/>
	<path fill="#5C6E9D" d="M1288.1,459.1c-0.3,0-0.5,0-0.8,0.1c0.2,1.9,0.2,3.9,0.2,6c0.3,0.2,0.5,0.3,0.8,0.5
		c0.3,0.3,0.6,0.5,0.9,0.8c0.1-2.5,0-5-0.2-7.5C1288.7,459,1288.4,459.1,1288.1,459.1z"/>
	<path fill="#5C6E9D" d="M1232.1,394.3c0.7,0,1.5,0.1,2.2,0.3c0-2,0.1-4,0.2-6c-0.7,0-1.5,0-2.2-0.1
		C1232.1,390.4,1232.1,392.4,1232.1,394.3z"/>
	<path fill="#5C6E9D" d="M1232.8,383.4c0.8,0,1.5-0.1,2.2,0c0.1-1.3,0.3-2.6,0.4-3.9c0-0.1-0.1-0.2-0.1-0.3
		c-0.4-1.1-0.8-2.2-1.3-3.4c-0.1-0.1-0.1-0.3-0.2-0.4C1233.5,378.1,1233.2,380.8,1232.8,383.4z"/>
	<path fill="#5C6E9D" d="M1245.3,429.7c0.5-0.4,18.5-0.8,19.1-1.3c-1.1-1.7-19.7-3.5-20.6-5.2c-0.4-0.7-0.8-1.5-1.2-2.2
		c-0.8,0.1-1.5,0.3-2.3,0.5C1241.8,424.3,1243.6,427,1245.3,429.7z"/>
	<path fill="#5C6E9D" d="M1270.8,438.9c-1.4-2.5-3-5-4.5-7.5c-0.6,0.4-1.2,0.7-1.7,1.1c1.6,2.6,3.2,5.1,4.5,7.8
		C1269.7,439.8,1270.2,439.4,1270.8,438.9z"/>
	<path fill="#5C6E9D" d="M1275,451.6c-0.3-1.7-0.7-3.5-1.1-5.2c-0.4-0.9-0.7-1.8-1-2.8c-0.6,0.4-1.3,0.8-1.9,1.2
		c0.9,2.7,1.6,5.5,1.9,8.4C1273.8,452.8,1274.4,452.2,1275,451.6z"/>
	<path fill="#5C6E9D" d="M1235.2,408.2c-0.2,0-0.4,0.1-0.6,0.1c1,3.1,2.2,6.2,3.6,9.2c0.7-0.2,1.4-0.4,2.2-0.6
		c-1.3-2.8-2.5-5.7-3.5-8.6C1236.4,408.1,1235.8,408.1,1235.2,408.2z"/>
	<path fill="#5C6E9D" d="M1273.5,463.9c0.2,0,0.4,0,0.6,0.1c0.1,0,0.8,0.1,0.8,0.1l0,0l0,0l0,0c0.3,0,0.6-0.1,0.9-0.2
		c0-2,0-4.1-0.2-6.2c-0.7,0.5-1.4,0.8-2.3,1.1C1273.5,460.5,1273.5,462.2,1273.5,463.9z"/>
	<path fill="#5C6E9D" d="M1233.6,404.9c0.7-0.1,1.5-0.2,2.2-0.2c-0.4-1.7-0.8-3.5-1-5.2c-0.8-0.1-1.5-0.2-2.3-0.2
		C1232.8,401.2,1233.1,403.1,1233.6,404.9z"/>
	<path fill="#5C6E9D" d="M1290.8,453c-0.1,0.1-0.3,0.2-0.4,0.3C1290.7,453.1,1290.8,453,1290.8,453z"/>
	<line fill="none" x1="1274.9" y1="464.1" x2="1274.9" y2="464.1"/>
	<path fill="none" d="M1274.9,464.1c-0.1,0-0.1,0-0.2,0"/>
	<path fill="#5C6E9D" d="M1245.4,396.9c0-1,0.2-1.1-0.1-2c-0.4-1.3-2.3-0.8-2.1,0.6c0.2,1,0.5,1.9,0.6,2.9c0.5,0.1,1.1,0.2,1.7,0.2
		C1245.4,398.1,1245.4,397.6,1245.4,396.9z"/>
	<path fill="#5C6E9D" d="M1266.1,408.1c-0.8-1.8-18.9-3.7-19.5-5.6h-2.3c0.6,2.2,18.9,4.4,19.9,6.4
		C1264.7,409.9,1266.5,409.2,1266.1,408.1z"/>
	<path fill="#5C6E9D" d="M1338.3,493.3c0,0,6.4-4.3,5.5-10.8c-0.5-4.5-3-10.3-6.4-16.4c0.6,9,0.8,11.2-0.8,15.5
		c-2.4,6.1-4.9,6.5-16.8,1.8l0,0c-1.3-0.5-2.8-1.1-4.4-1.8c-0.1,0-0.1,0-0.1,0s0,0,0.1,0c-15.9-6.4-98.9-36.8-148.1-45.4
		c0,0-1.3,2.2-0.7,2.3C1211.3,450.7,1326.2,489.5,1338.3,493.3z"/>
	<path fill="#93AAED" d="M1294.4,407.6c1.9,10,6.5,18.9,11.5,27.7c4.5,7.8,9.4,15.7,12,24.3c1.2,4.1,2,8.4,2.2,12.7
		c0.1,3.5,0.2,7.5-0.2,11.1c11.9,4.7,14.5,4.3,16.8-1.8c1.6-4.3,1.4-6.5,0.8-15.5V466c-1.3-2.5-2.8-5.1-4.3-7.7
		c-5.2-9.2-11.5-21.2-20-35c-6.7-10.7-16.1-20.1-20-23.7C1293.5,402.3,1293.9,404.9,1294.4,407.6z M1295.4,405.1
		c-0.2-1.4,1.7-1.9,2.2-0.6c0.3,0.9,0.1,1,0.1,2c0,0.7,0,1.2,0.1,1.7c-0.6,0-1.2-0.1-1.7-0.2C1296,407,1295.6,406.1,1295.4,405.1z
		 M1299,418.5c-0.9-2-1.8-4.2-2.5-6.4h2.4c0.6,1.9,1.2,3.8,2,5.6C1301.4,418.8,1299.5,419.5,1299,418.5z M1301.4,423.9
		c-0.5-0.9-1-1.7-1.4-2.6c0.8-0.1,1.5-0.2,2.4-0.4v0.1c0.3,0.7,0.7,1.3,1,2C1302.6,423.2,1302,423.5,1301.4,423.9z M1306.7,432.9
		c-1-1.8-2.2-3.6-3.3-5.4c0.1-0.1,0.2-0.1,0.2-0.1c0.6-0.2,1.1-0.4,1.6-0.6c0.9,1.8,1.8,3.5,2.9,5.2
		C1307.7,432.3,1307.2,432.6,1306.7,432.9z M1311.7,441.3c-1-1.7-2.1-3.3-2.9-4.9c0.5-0.3,0.9-0.6,1.4-0.9c0.9,1.6,1.8,3.2,2.8,4.8
		C1312.6,440.6,1312.1,440.9,1311.7,441.3z M1317.8,452.4c-1.1-2.3-2.4-4.6-3.6-6.8c0.1-0.2,0.3-0.3,0.5-0.5s0.5-0.4,0.7-0.6
		c1.3,2.3,2.6,4.6,3.7,6.9C1318.6,451.7,1318.2,452,1317.8,452.4z M1320.6,459.8c-0.3-1.1-0.6-2.1-1-3.1c0.5-0.3,1-0.6,1.4-0.7
		c0.9,2.5,1.6,5,2.2,7.6c-0.1,0-0.2,0.1-0.3,0.1c-0.4,0.1-0.9,0.3-1.3,0.5C1321.3,462.7,1321,461.2,1320.6,459.8z M1323.4,484.7
		c-0.6-0.2-1.2-0.5-1.8-0.7c0.1-0.7,0.2-1.5,0.3-2.2c0.5,0.4,1.1,0.7,1.7,1C1323.5,483.4,1323.4,484.1,1323.4,484.7z M1324,476.1
		c-0.3-0.3-0.6-0.5-0.9-0.8c-0.3-0.2-0.5-0.3-0.8-0.5c0-2.1,0-4.1-0.2-6c0.3-0.1,0.5-0.1,0.8-0.1s0.6-0.1,0.9-0.1
		C1324,471.1,1324.1,473.6,1324,476.1z M1325.3,462.9c0.1-0.1,0.3-0.2,0.4-0.3C1325.7,462.6,1325.6,462.7,1325.3,462.9z"/>
	<path fill="#93AAED" d="M1167.3,436.2c49.2,8.8,132.1,38.9,148,45.3c1-2.5,1.8-4.5,1.9-7.6c0.1-2.8-0.3-5.7-0.8-8.5
		c-0.8-4.1-2.3-8-3.8-11.9c-3.6-8.7-8.8-16.6-13.2-25c-4.1-7.8-7.4-15.4-8.7-24c-0.5-3.4-0.8-6.9-1.1-10.3c0.3,0.6,0.5,1.1,0.7,1.6
		c-0.7-1.6-1.8-4.1-3.1-7.1c0,0.1,0.1,0.2,0.1,0.3c-0.1,1.3-0.3,2.6-0.4,3.9c-0.7-0.1-1.4,0-2.3,0c0.4-2.6,0.7-5.3,1-8
		c0.1,0.1,0.1,0.3,0.2,0.4c-1.4-3.7-2.9-7.9-4.1-12.1c-3-10.9-33.1-67.5-83.4-79.2"/>
	<path fill="#93AAED" d="M1310.7,473.5c-0.3,0.1-0.6,0.2-0.9,0.2l0,0c-0.1,0-0.1,0-0.2,0c0.1,0,0.1,0,0.2,0c0,0-0.7-0.1-0.8-0.1
		c-0.2-0.1-0.4-0.1-0.6-0.1c0-1.7,0-3.4-0.1-5.1c0.8-0.3,1.5-0.6,2.3-1.1C1310.7,469.4,1310.7,471.5,1310.7,473.5z"/>
	<path fill="#93AAED" d="M1307.7,453.2c0.3,1,0.6,1.9,1,2.8c0.4,1.7,0.8,3.5,1.1,5.2c-0.6,0.6-1.2,1.2-2.2,1.6
		c-0.3-2.9-1-5.7-1.9-8.4C1306.4,454,1307.1,453.6,1307.7,453.2z"/>
	<path fill="#93AAED" d="M1301.2,441c1.5,2.5,3.1,5,4.5,7.5c-0.6,0.5-1.1,0.9-1.7,1.4c-1.3-2.7-2.9-5.2-4.5-7.8
		C1299.9,441.7,1300.6,441.4,1301.2,441z"/>
	<path fill="#93AAED" d="M1296.1,432.8c0.9,1.7,2.1,3.5,3.2,5.2c-0.6,0.5-1.1,0.9-1.6,1.3c-1.7-2.7-3.6-5.4-5.1-8.2
		c0.8-0.2,1.5-0.4,2.4-0.5C1295.2,431.3,1295.6,432.1,1296.1,432.8z"/>
	<path fill="#93AAED" d="M1292.6,426.5c-0.8,0.2-1.5,0.4-2.3,0.6c-1.4-3-2.7-6.1-3.7-9.2c0.2,0,0.4-0.1,0.6-0.1
		c0.6-0.1,1.2-0.1,1.7,0.1C1290,420.8,1291.2,423.7,1292.6,426.5z"/>
	<path fill="#93AAED" d="M1287.9,414.3c-0.7,0-1.5,0.1-2.3,0.2c-0.5-1.8-0.8-3.7-1.1-5.6c0.8,0,1.5,0.1,2.4,0.2
		C1287,410.8,1287.4,412.6,1287.9,414.3z"/>
	<path fill="#93AAED" d="M1286.5,398.2c-0.1,2-0.2,4-0.2,6c-0.7-0.2-1.5-0.3-2.3-0.3c0-1.9,0-3.9,0.2-5.8
		C1285,398.2,1285.8,398.2,1286.5,398.2z"/>
	<path fill="none" d="M1315.4,481.6C1315.3,481.6,1315.3,481.6,1315.4,481.6"/>
	<path fill="#5C6E9D" d="M1290.8,404.6c1.3,8.6,4.6,16.2,8.7,24c4.4,8.4,9.6,16.3,13.2,25c1.5,3.9,3,7.8,3.8,11.9
		c0.5,2.8,0.9,5.7,0.8,8.5c-0.1,3.1-0.9,5.1-1.9,7.6c1.6,0.7,3.1,1.3,4.4,1.8l0,0c0.4-3.6,0.3-7.6,0.2-11.1
		c-0.1-4.3-0.9-8.6-2.2-12.7c-2.6-8.6-7.5-16.5-12-24.3c-5-8.8-9.5-17.7-11.5-27.7c-0.5-2.7-0.9-5.3-1.2-8v-0.1
		c-1.1-1-1.7-1.6-1.7-1.6s-0.4-0.7-1-2c-0.2-0.5-0.5-1-0.7-1.6C1290,397.7,1290.3,401.2,1290.8,404.6z"/>
	<path fill="#5C6E9D" d="M1314.7,445.1c-0.2,0.2-0.4,0.3-0.5,0.5c1.2,2.2,2.5,4.5,3.6,6.8c0.4-0.4,0.8-0.7,1.3-1
		c-1.1-2.3-2.4-4.6-3.7-6.9C1315.2,444.7,1314.9,444.9,1314.7,445.1z"/>
	<path fill="#5C6E9D" d="M1321.6,484c0.6,0.2,1.2,0.5,1.8,0.7c0-0.6,0.1-1.3,0.2-1.9c-0.6-0.3-1.2-0.6-1.7-1
		C1321.8,482.5,1321.7,483.3,1321.6,484z"/>
	<path fill="#5C6E9D" d="M1302.3,420.9c-0.8,0.2-1.5,0.3-2.4,0.4c0.4,0.9,0.9,1.7,1.4,2.6c0.6-0.4,1.2-0.7,1.9-0.9
		C1303,422.3,1302.6,421.7,1302.3,420.9L1302.3,420.9z"/>
	<path fill="#5C6E9D" d="M1303.6,427.4c0,0-0.1,0-0.2,0.1c1.1,1.8,2.3,3.6,3.3,5.4c0.5-0.3,1-0.6,1.4-0.9c-1-1.7-1.9-3.4-2.9-5.2
		C1304.8,427,1304.3,427.2,1303.6,427.4z"/>
	<path fill="#5C6E9D" d="M1308.9,436.4c0.8,1.6,1.8,3.2,2.9,4.9c0.4-0.4,0.8-0.7,1.3-1c-0.9-1.6-1.8-3.2-2.8-4.8
		C1309.8,435.8,1309.4,436.1,1308.9,436.4z"/>
	<path fill="#5C6E9D" d="M1323.1,463.6c-0.5-2.6-1.2-5.1-2.2-7.6c-0.4,0.1-0.9,0.4-1.4,0.7c0.4,1,0.7,2,1,3.1
		c0.4,1.4,0.7,2.9,0.9,4.4c0.4-0.2,0.9-0.4,1.3-0.5C1322.9,463.7,1323,463.6,1323.1,463.6z"/>
	<path fill="#5C6E9D" d="M1322.9,468.7c-0.3,0-0.5,0-0.8,0.1c0.2,1.9,0.2,3.9,0.2,6c0.3,0.2,0.5,0.3,0.8,0.5
		c0.3,0.3,0.6,0.5,0.9,0.8c0.1-2.5,0-5-0.2-7.5C1323.5,468.6,1323.2,468.7,1322.9,468.7z"/>
	<path fill="#5C6E9D" d="M1284.1,403.9c0.7,0,1.5,0.1,2.3,0.3c0-2,0.1-4,0.2-6c-0.7,0-1.5,0-2.3-0.1
		C1284.1,400,1284.1,402,1284.1,403.9z"/>
	<path fill="#5C6E9D" d="M1284.8,393c0.8,0,1.5-0.1,2.3,0c0.1-1.3,0.3-2.6,0.4-3.9c0-0.1-0.1-0.2-0.1-0.3c-0.4-1.1-0.8-2.2-1.3-3.4
		c-0.1-0.1-0.1-0.3-0.2-0.4C1285.5,387.7,1285.2,390.4,1284.8,393z"/>
	<path fill="#5C6E9D" d="M1297.6,439.3c0.5-0.4,1-0.8,1.6-1.3c-1.1-1.7-2.3-3.5-3.2-5.2c-0.4-0.7-0.8-1.5-1.2-2.2
		c-0.8,0.1-1.5,0.3-2.4,0.5C1294,433.9,1295.8,436.6,1297.6,439.3z"/>
	<path fill="#5C6E9D" d="M1305.7,448.5c-1.4-2.5-3-5-4.5-7.5c-0.6,0.4-1.2,0.7-1.7,1.1c1.6,2.6,3.2,5.1,4.5,7.8
		C1304.6,449.4,1305.1,449,1305.7,448.5z"/>
	<path fill="#5C6E9D" d="M1309.9,461.2c-0.3-1.7-0.7-3.5-1.1-5.2c-0.4-0.9-0.7-1.8-1-2.8c-0.6,0.4-1.3,0.8-1.9,1.2
		c0.9,2.7,1.6,5.5,1.9,8.4C1308.7,462.4,1309.3,461.8,1309.9,461.2z"/>
	<path fill="#5C6E9D" d="M1287.2,417.8c-0.2,0-0.4,0.1-0.6,0.1c1,3.1,2.3,6.2,3.7,9.2c0.7-0.2,1.4-0.4,2.3-0.6
		c-1.3-2.8-2.6-5.7-3.6-8.6C1288.5,417.7,1287.9,417.7,1287.2,417.8z"/>
	<path fill="#5C6E9D" d="M1308.4,473.5c0.2,0,0.4,0,0.6,0.1c0.1,0,0.8,0.1,0.8,0.1l0,0l0,0l0,0c0.3,0,0.6-0.1,0.9-0.2
		c0-2,0-4.1-0.2-6.2c-0.7,0.5-1.4,0.8-2.3,1.1C1308.4,470.1,1308.4,471.8,1308.4,473.5z"/>
	<path fill="#5C6E9D" d="M1285.6,414.5c0.7-0.1,1.5-0.2,2.3-0.2c-0.4-1.7-0.8-3.5-1-5.2c-0.8-0.1-1.5-0.2-2.4-0.2
		C1284.8,410.8,1285.1,412.7,1285.6,414.5z"/>
	<path fill="#5C6E9D" d="M1325.7,462.6c-0.1,0.1-0.3,0.2-0.4,0.3C1325.6,462.7,1325.7,462.6,1325.7,462.6z"/>
	<line fill="none" x1="1309.8" y1="473.7" x2="1309.8" y2="473.7"/>
	<path fill="none" d="M1309.8,473.7c-0.1,0-0.1,0-0.2,0"/>
	<path fill="#5C6E9D" d="M1297.7,406.5c0-1,0.2-1.1-0.1-2c-0.4-1.3-2.4-0.8-2.2,0.6c0.2,1,0.5,1.9,0.6,2.9c0.5,0.1,1.1,0.2,1.7,0.2
		C1297.7,407.7,1297.7,407.2,1297.7,406.5z"/>
	<path fill="#5C6E9D" d="M1301,417.7c-0.8-1.8-1.4-3.7-2-5.6h-2.4c0.6,2.2,1.5,4.4,2.5,6.4C1299.5,419.5,1301.4,418.8,1301,417.7z"
		/>
	<path fill="#5C6E9D" d="M918.1,228.9c6.9,4.1,13.8,7.9,21.2,11.1c15.8,6.6,35.4,11,47.5,23.8c6.1,6.4,10.9,14.6,15.2,22.2
		c4.6,8.1,8.6,16.6,12,25.3c3.3,8.5,5.8,17.3,7.6,26.2c0.6,3,1.2,5.9,1.6,8.9c4.1,18.4,5.1,36.4,7.5,54.7c0.8,2.7,1.6,5.6,2.2,8.4
		c0.9,4,1.3,8.1,0.7,11.9c1.1,0.2,2,0.1,2.8,0.1c-0.1-5.2-0.7-10-1.8-15c-0.5-2.2-1.1-4.5-1.7-6.8c-1.4-11.8-4.4-24.8-5.7-36.9
		c-0.3-2.5-0.7-4.9-0.8-7.5c-0.2-4.7-0.8-9.3-1.6-13.9c-1.4-9-3.7-17.9-6.8-26.5c-6-16.5-14.3-33.5-24.7-47.7
		c-10.7-14.5-27.8-19.9-43.7-26.8c-7.8-3.4-15.3-6.8-22.5-11c0,0-0.1,0-0.1-0.1c-0.1,0-0.1-0.1-0.2-0.1c-0.8,0-1.5-0.1-1.9-0.2
		c-1.8-0.4-3.7-1.7-10.6-2.1c0.1,0,0.1,0.1,0.2,0.1c0.1,0,0.2,0.1,0.2,0.1C915.9,227.6,916.9,228.2,918.1,228.9z"/>
	<path fill="#5C6E9D" d="M1018.9,350.5c-0.5,0.1-1,0.3-1.5,0.4c0.3,2.8,0.4,5.6,0.6,8.4c0.5-0.1,1-0.2,1.5-0.3
		C1019.4,356.2,1019.2,353.3,1018.9,350.5z"/>
	<path fill="#5C6E9D" d="M985.8,271.5c-1.7-1.6-3.6-3-5.5-4.4c-0.6,0.2-1.3,0.4-1.9,0.7c0.7,0.5,1.3,0.9,2,1.4
		c2.1,1.6,4.1,3.4,6,5.4c0.5-0.3,1-0.6,1.6-0.9C987.3,272.9,986.6,272.2,985.8,271.5z"/>
	<path fill="#5C6E9D" d="M995.4,286.3c-0.1,0.1-0.2,0.1-0.4,0.2c0.8,1.3,1.5,2.7,2.2,4c0.3,0.5,0.6,1.1,0.8,1.6
		c0.6-0.2,1.1-0.5,1.6-0.6c-1-1.9-2-3.8-3.1-5.7C996.1,286,995.8,286.1,995.4,286.3z"/>
	<path fill="#5C6E9D" d="M907.1,229.4c-0.5,0.5-1.1,1-1.6,1.5c1.2,0.3,2.4,0.6,3.6,1c1.3,0.4,2.6,0.8,3.8,1.2c0.4-0.5,0.8-1,1.2-1.5
		c-0.5-0.2-1-0.4-1.6-0.5C910.7,230.5,908.9,230,907.1,229.4z"/>
	<path fill="#5C6E9D" d="M988.5,277c1.7,2.1,3.3,4.2,4.8,6.5c0.5-0.3,1-0.6,1.5-0.8c-1.5-2.2-3-4.4-4.7-6.5
		C989.5,276.5,989,276.7,988.5,277z"/>
	<path fill="#5C6E9D" d="M950.2,250.3c1.6,0.9,3.2,1.8,4.7,2.7c0.1-0.1,0.2-0.2,0.3-0.2c0.3-0.3,0.7-0.6,1-1
		c-1.6-0.9-3.2-1.8-4.8-2.8C951,249.4,950.6,249.9,950.2,250.3z"/>
	<path fill="#5C6E9D" d="M943.6,245.8c-0.2,0.2-0.4,0.3-0.6,0.5c1.2,0.6,2.4,1.3,3.6,1.9c0.4-0.4,0.8-0.8,1.2-1.3
		c-1.1-0.5-2.3-1.2-3.5-1.8C944.1,245.4,943.9,245.6,943.6,245.8z"/>
	<path fill="#5C6E9D" d="M925.3,237.8c2,0.8,3.9,1.7,5.9,2.6c0.1-0.1,0.2-0.2,0.3-0.3c0.4-0.3,0.8-0.6,1.1-0.9c-2-1-4.1-1.9-6.2-2.8
		C926,236.9,925.6,237.3,925.3,237.8z"/>
	<path fill="#5C6E9D" d="M916.8,234.5c2.2,0.8,4.4,1.6,6.6,2.5c0.3-0.5,0.7-1,1.1-1.4c-2.1-0.9-4.2-1.8-6.4-2.5
		C917.7,233.6,917.2,234,916.8,234.5z"/>
	<path fill="#5C6E9D" d="M936.6,241.1c-0.5,0.4-1.1,0.7-1.6,1.1c1.5,0.7,3,1.5,4.5,2.3c0.4-0.4,0.9-0.8,1.3-1.2
		c-0.2-0.2-0.5-0.3-0.7-0.4C938.9,242.3,937.8,241.7,936.6,241.1z"/>
	<path fill="#5C6E9D" d="M892.2,228.2c3.5,0.5,7,1.2,10.6,2c0.2-0.3,0.5-0.6,0.8-0.9c0.2-0.2,0.4-0.4,0.6-0.7
		c-1.8-0.5-3.7-0.9-5.6-1.3C896.5,227.5,894.3,227.8,892.2,228.2z"/>
	<path fill="#5C6E9D" d="M1023.7,421.6c0.1,0.2,0.1,0.4,0.2,0.5c0,0,0,0,0,0.1c0.6,0,1.2-0.1,1.8-0.1c0,0,0,0,0-0.1
		c-0.1-0.4-0.2-0.6-0.3-0.8C1024.8,421.3,1024.2,421.5,1023.7,421.6z"/>
	<path fill="#5C6E9D" d="M967.5,260.5c2.7,1.7,5.5,3.4,8.1,5.2c0.5-0.4,1-0.7,1.6-1c-2.8-1.7-5.5-3.5-8.2-5.2
		C968.5,259.8,968,260.1,967.5,260.5z"/>
	<path fill="#5C6E9D" d="M1015.5,331.2c-0.1,0-0.2,0.1-0.3,0.1c-0.4,0.1-0.8,0.3-1.1,0.4c0.5,2,1,4.1,1.4,6.1c0.5-0.2,1-0.3,1.5-0.4
		C1016.6,335.3,1016.1,333.2,1015.5,331.2z"/>
	<path fill="#5C6E9D" d="M1019.9,375.6c0.1-0.3,0-0.6,0-0.8c-0.5-0.1-1-0.2-1.6-0.2c0,2.2,0.1,4.4,0.1,6.6c0.5,0,1.1-0.1,1.6-0.1
		C1020,379.3,1019.9,377.4,1019.9,375.6z"/>
	<path fill="#5C6E9D" d="M1011.8,319c-0.6,0-1.1,0.1-1.6,0.3c1,2.9,2,5.9,2.9,8.9c0.5-0.2,1-0.4,1.5-0.5
		C1013.8,324.8,1012.8,321.8,1011.8,319z"/>
	<path fill="#5C6E9D" d="M1021.1,399c-0.6-0.4-1.2-0.6-1.8-0.7c0.2,2.9,0.5,5.8,1,8.7c0.6,0,1.2,0,1.8,0.1
		C1021.7,404.4,1021.3,401.7,1021.1,399z"/>
	<path fill="#5C6E9D" d="M958.8,253.3c-0.5,0.3-1.1,0.7-1.6,1c0.2,0.1,0.4,0.2,0.5,0.3c2.1,1.3,4.3,2.5,6.4,3.8
		c0.2,0,0.3-0.1,0.4-0.2c0.3-0.3,0.7-0.5,1.1-0.8c-0.6-0.3-1.1-0.7-1.7-1C962.2,255.4,960.5,254.3,958.8,253.3z"/>
	<path fill="#5C6E9D" d="M1020.9,411c0.5,2.4,1,4.7,1.7,7c0.6-0.2,1.2-0.3,1.7-0.5c-0.5-1.9-1-3.9-1.4-5.8
		C1022.3,411.4,1021.6,411.2,1020.9,411z"/>
	<path fill="#5C6E9D" d="M1018.4,345.7c-0.3-1.7-0.5-3.5-0.9-5.2c-0.5,0-1,0.1-1.5,0.3c0.1,0.8,0.3,1.5,0.4,2.3
		c0.2,1.4,0.4,2.8,0.6,4.2c0.5-0.2,1-0.4,1.5-0.5C1018.5,346.4,1018.4,346.1,1018.4,345.7z"/>
	<path fill="#5C6E9D" d="M1005.3,303.2c-0.5,0-1.1,0.1-1.6,0.2c0.7,1.4,1.3,2.9,1.9,4.3c0.5-0.1,1.1-0.2,1.6-0.2
		C1006.6,306,1005.9,304.6,1005.3,303.2z"/>
	<path fill="#5C6E9D" d="M1008.5,310.7c-0.5-0.1-1.1-0.1-1.6,0c0.7,1.6,1.3,3.2,1.9,4.8c0.5-0.2,1-0.3,1.5-0.4
		C1009.7,313.6,1009.1,312.1,1008.5,310.7z"/>
	<path fill="#5C6E9D" d="M1020.6,394.2c-0.2-3.1-0.4-6.3-0.5-9.4c-0.1,0-0.3-0.1-0.5-0.2c-0.3-0.1-0.7-0.2-1.1-0.2
		c0.1,3.3,0.2,6.6,0.4,9.8C1019.5,394.1,1020,394.1,1020.6,394.2z"/>
	<path fill="#5C6E9D" d="M1019.9,370.4c0-2.5-0.1-5.1-0.2-7.6c-0.5,0.1-1,0.1-1.6,0.2c0.1,2.5,0.1,4.9,0.2,7.4
		C1018.8,370.4,1019.3,370.4,1019.9,370.4z"/>
	<path fill="#5C6E9D" d="M999.8,295.3c0.7,1.4,1.5,2.9,2.2,4.4c0.5-0.2,1-0.3,1.5-0.4c-0.8-1.6-1.5-3-2.2-4.5
		C1000.8,294.9,1000.3,295.1,999.8,295.3z"/>
	<path fill="#5C6E9D" d="M964,242.2c-0.3,0.3-0.6,0.6-0.9,0.8c1.7,0.6,3.2,1.3,4.8,1.9c0.3-0.3,0.7-0.6,1-0.8
		c0.1-0.1,0.2-0.2,0.3-0.3c-1.6-0.7-3.1-1.3-4.7-2C964.3,241.9,964.2,242.1,964,242.2z"/>
	<path fill="#5C6E9D" d="M971.4,246.6c1.6,0.7,3.2,1.5,4.8,2.4c0.4-0.4,0.7-0.8,1.1-1.2c-1.5-0.8-3-1.6-4.5-2.3
		C972.4,245.9,971.9,246.2,971.4,246.6z"/>
	<path fill="#5C6E9D" d="M1038.3,368.9c-0.5,0.2-1,0.4-1.5,0.6c0,0.1,0.1,0.2,0.1,0.3c0.4,1.8,0.7,3.5,1.1,5.3
		c0.5-0.1,1-0.3,1.5-0.4C1039.1,372.8,1038.7,370.8,1038.3,368.9z"/>
	<path fill="#5C6E9D" d="M1032.1,342.4c-0.5,0.1-1,0.3-1.5,0.4c0.8,3,1.5,6.1,2.2,9.1c0.5,0.1,1.1,0.1,1.6,0.1
		C1033.6,348.8,1032.9,345.6,1032.1,342.4z"/>
	<path fill="#5C6E9D" d="M1028.8,329.7c-0.6,0.1-1.1,0.2-1.6,0.3c0.9,3,1.7,6,2.5,8.9c0.5-0.1,1-0.3,1.5-0.4
		C1030.4,335.5,1029.6,332.6,1028.8,329.7z"/>
	<path fill="#5C6E9D" d="M1040.3,378.6c-0.5,0.2-1,0.3-1.5,0.5c0.6,2.8,1.2,5.6,1.7,8.3c0.5-0.1,1-0.2,1.6-0.3
		C1041.5,384.3,1040.9,381.4,1040.3,378.6z"/>
	<path fill="#5C6E9D" d="M1043.6,406.6c0.1,2.8,0,5.6-0.4,8.5c0.5,0,1,0,1.6,0c0.4-2.8,0.6-5.5,0.5-8.4
		C1044.7,406.6,1044.2,406.6,1043.6,406.6z"/>
	<path fill="#5C6E9D" d="M942,233c-0.6,0.4-1.2,0.8-1.7,1.2c3.1,1.4,6.2,2.6,9.4,3.8c0.3-0.5,0.7-0.9,1.1-1.3
		c-1.3-0.5-2.6-1-3.8-1.5C945.3,234.5,943.6,233.8,942,233z"/>
	<path fill="#5C6E9D" d="M937.1,232.7c0.4-0.5,0.8-1,1.2-1.4c-1.3-0.6-2.6-1.3-3.8-2c0,0,0,0-0.1,0c-0.7,0-1.4,0-2.1,0
		c-0.5,0-1,0-1.5,0l0,0c0,0,0.1,0,0.1,0.1C932.9,230.5,934.9,231.7,937.1,232.7z"/>
	<path fill="#5C6E9D" d="M954.6,238.7c-0.3,0.2-0.6,0.5-0.9,0.7c1.9,0.8,3.8,1.5,5.7,2.2c0.1-0.2,0.2-0.5,0.4-0.7
		c0.1-0.2,0.3-0.5,0.5-0.7c-1.7-0.6-3.4-1.3-5.1-1.9C955,238.4,954.8,238.6,954.6,238.7z"/>
	<path fill="#5C6E9D" d="M984.7,253.9c-0.1,0.1-0.2,0.2-0.3,0.2c1.7,1.3,3.4,2.6,5,4c0.4-0.2,0.9-0.5,1.3-0.7
		c-1.7-1.5-3.4-2.9-5.2-4.2C985.3,253.4,985,253.7,984.7,253.9z"/>
	<path fill="#5C6E9D" d="M1044.1,401.2c0.2,0,0.3-0.1,0.5-0.1l0,0h0.1c-0.5-3.4-1.1-6.7-1.8-10.1c-0.5,0.1-1.1,0.2-1.6,0.3
		c0.6,3.4,1.3,6.7,1.8,10.1C1043.4,401.3,1043.8,401.3,1044.1,401.2z"/>
	<path fill="#5C6E9D" d="M1035.5,356c-0.6,0.1-1.1,0.1-1.6,0.1c0.7,3.2,1.4,6.3,2.1,9.5c0.5-0.2,1-0.4,1.5-0.6
		C1036.9,362,1036.2,359,1035.5,356z"/>
	<path fill="#5C6E9D" d="M1008.1,281.9c1.2,2.1,2.4,4.3,3.5,6.5c0.6-0.2,1-0.4,1.5-0.7c-1.1-2.2-2.2-4.3-3.5-6.4
		C1009.1,281.5,1008.6,281.7,1008.1,281.9z"/>
	<path fill="#5C6E9D" d="M1014.6,290.7c-0.5,0.3-0.9,0.6-1.4,0.8c1,2.1,2,4.3,2.9,6.4c0.5-0.2,1-0.5,1.4-0.7
		C1016.6,295,1015.6,292.8,1014.6,290.7z"/>
	<path fill="#5C6E9D" d="M1003.8,272.1c-0.5,0.2-1,0.3-1.6,0.4c1.4,2,2.8,4,4,6.1c0.5-0.2,1-0.4,1.5-0.6c-0.6-0.9-1.2-1.9-1.8-2.8
		C1005.2,274.2,1004.5,273.1,1003.8,272.1z"/>
	<path fill="#5C6E9D" d="M991.9,260.4c0.4,0.5,0.9,1,1.5,1.5c0.2,0,0.3-0.1,0.5-0.1c0.4-0.1,0.8-0.2,1.3-0.2
		c-0.6-0.6-1.3-1.3-1.9-1.9C992.8,259.9,992.4,260.1,991.9,260.4z"/>
	<path fill="#5C6E9D" d="M996.6,265.5c1.2,1.3,2.3,2.6,3.3,4c0.5-0.1,1.1-0.3,1.6-0.4c-1-1.3-2-2.5-3.1-3.8
		C997.8,265.4,997.2,265.5,996.6,265.5z"/>
	<path fill="#5C6E9D" d="M1018.6,300c-0.4,0.4-0.8,0.8-1.3,1.1c0.9,2,1.7,4,2.4,6c0.5-0.1,1-0.3,1.5-0.4
		C1020.4,304.5,1019.5,302.2,1018.6,300z"/>
	<path fill="#5C6E9D" d="M1042.1,421.3c0.5,0,1,0,1.6,0c0.1-0.7,0.2-1.4,0.4-2.2c-0.5,0-1,0-1.5-0.1
		C1042.4,419.8,1042.3,420.5,1042.1,421.3z"/>
	<path fill="#5C6E9D" d="M1022.2,309.6c-0.4,0.1-0.9,0.3-1.5,0.4c0.6,1.5,1.1,3.1,1.6,4.6c0.5-0.1,1-0.3,1.5-0.5
		C1023.3,312.6,1022.8,311.1,1022.2,309.6z"/>
	<path fill="#5C6E9D" d="M1027.7,325.9c-0.5-1.7-1-3.5-1.6-5.2c-0.4-0.8-0.6-1.7-0.9-2.6c-0.5,0.2-1,0.4-1.5,0.6
		c0.8,2.5,1.6,5,2.4,7.5c0.5-0.1,0.9-0.2,1.4-0.3C1027.6,325.9,1027.6,325.9,1027.7,325.9z"/>
	<path fill="#5C6E9D" d="M979.1,249.7c-0.3,0.2-0.4,0.4-0.6,0.6c1.3,0.7,2.5,1.5,3.7,2.3c0.3-0.3,0.7-0.5,1-0.7
		c0.1-0.1,0.2-0.1,0.3-0.2c-1.2-0.9-2.5-1.7-3.8-2.5C979.5,249.4,979.3,249.5,979.1,249.7z"/>
	<path fill="#5C6E9D" d="M1044.1,405.3c-0.2,0-0.4,0.1-0.6,0.1c0,0.4,0,0.7,0.1,1.1c0.5,0,1.1,0.1,1.7,0.1c0-0.3-0.1-0.6-0.1-1
		c0-0.2,0-0.3-0.1-0.5C1044.7,405.1,1044.4,405.2,1044.1,405.3z"/>
	<path fill="#5C6E9D" d="M1044.1,401.2c-0.3,0.1-0.7,0.2-1,0.3c0,0.2,0.1,0.5,0.1,0.7c0.6,0,1.1,0,1.6,0.1c0-0.4-0.1-0.8-0.2-1.2
		l0,0C1044.4,401.1,1044.3,401.2,1044.1,401.2z"/>
	<path fill="#5C6E9D" d="M962.1,243.6c0,0.1,0,0,0.1-0.1c-0.2,0.1-0.5,0.3-0.7,0.4C961.7,243.8,961.9,243.7,962.1,243.6z"/>
	<path fill="#5C6E9D" d="M886,247.5c-7.9-2.8-15.7-5.4-24.1-6.6c-0.5-0.1-1-0.1-1.4-0.2c0,0,0,0-0.1,0c-2.1,1.2-3.3,1.9-3.3,1.9
		s-1.6,0.2-4.4,0.7c0.1,0,0.1,0,0.2,0c11.1,0.9,22.2,2.3,32.8,4.9C886.2,248.3,886.4,247.7,886,247.5z"/>
	<path fill="#5C6E9D" d="M985.3,232.9c0.8,1.5,1.4,4,3.1,4.7c0.4,0.2,0.9,0.1,1-0.4c0.5-1.4-0.4-3-1.2-4.2c-0.1-0.1-0.1-0.2-0.2-0.2
		l0,0c-1-0.1-2-0.3-3.1-0.4l0,0l0.1,0.1C985.1,232.6,985.2,232.8,985.3,232.9z"/>
	<path fill="#5C6E9D" d="M663.1,452.9c0.7,0.1,1.4,0.2,2.1,0.3c0-1.8-0.1-3.6-0.2-5.3c-0.7-0.2-1.4-0.4-2.2-0.5
		C663,449.2,663.1,451.1,663.1,452.9z"/>
	<path fill="#5C6E9D" d="M661.1,434.3c0.4,2.7,0.9,5.4,1.2,8c0.8,0.1,1.5,0.1,2.3,0.2c-0.3-2.7-0.6-5.4-1.1-8.2
		C662.8,434.4,662,434.4,661.1,434.3z"/>
	<path fill="#5C6E9D" d="M665.4,457.7c-0.7,0-1.4-0.1-2.1-0.1c0,1.8-0.1,3.7-0.2,5.5c0.7,0.1,1.4,0.2,2.2,0.3
		C665.3,461.5,665.4,459.6,665.4,457.7z"/>
	<path fill="#5C6E9D" d="M660.6,414.5c-0.2-2.3-0.2-4.6-0.2-6.9c-0.7-0.1-1.5-0.3-2.2-0.4c-0.1,2.5-0.1,4.9,0.1,7.4
		C659,414.5,659.8,414.5,660.6,414.5z"/>
	<path fill="#5C6E9D" d="M660.6,403.6c0-0.1,0-0.3,0-0.4c0.2-2.2,0.4-4.3,0.8-6.4c-0.8-0.1-1.6-0.2-2.4-0.3
		c-0.4,2.2-0.6,4.5-0.7,6.8c0.7,0.1,1.4,0.2,2.1,0.3C660.5,403.6,660.5,403.6,660.6,403.6z"/>
	<path fill="#5C6E9D" d="M660.2,428.9c0.8,0,1.6,0.1,2.5,0.1c0-0.1-0.1-0.3-0.1-0.4c-0.6-3.3-1.2-6.6-1.6-9.9c-0.8,0-1.6,0-2.3,0
		c0.3,2.9,0.7,5.8,1.3,8.7C660,427.9,660.1,428.4,660.2,428.9z"/>
	<path fill="#5C6E9D" d="M664.8,468.6c-0.7-0.1-1.5-0.2-2.2-0.3c-0.1,1.4-0.3,2.8-0.5,4.2c0.7,0.3,1.5,0.7,2.1,1
		C664.5,471.8,664.7,470.2,664.8,468.6z"/>
	<path fill="#5C6E9D" d="M659.3,512.1c-0.8,0-1.5,0.1-2.2,0.2c0.1,3.6,0.4,7.1,1.1,10.7c0.8-0.1,1.6-0.2,2.3-0.3
		C659.7,519.2,659.4,515.6,659.3,512.1z"/>
	<path fill="#5C6E9D" d="M659.6,527.8c0.4,1.2,0.8,2.5,1.3,3.7c0.7,1.7,1.5,3.4,2.5,4.9c0.8,0,1.7-0.2,2.5-0.5
		c-1.6-2.6-2.9-5.3-3.9-8.2C661.2,527.8,660.4,527.8,659.6,527.8z"/>
	<path fill="#5C6E9D" d="M663.4,479c-0.7-0.3-1.4-0.6-2.1-1c-0.3,2-0.7,4.1-1,6.1c0.7,0.2,1.4,0.4,2.1,0.6
		C662.8,482.8,663.1,480.9,663.4,479z"/>
	<path fill="#5C6E9D" d="M679.3,547.6c-0.6,0.5-1.3,0.9-1.8,1.4c0.6,0.3,1.2,0.6,1.9,0.9l0,0c0.4-0.3,0.8-0.6,1.2-0.8
		c0.3-0.2,0.6-0.4,0.9-0.6C680.8,548.2,680,547.9,679.3,547.6z"/>
	<path fill="#5C6E9D" d="M668.5,539.4c-0.7,0.4-1.4,0.7-2.2,0.9c1.7,2.1,3.6,3.8,5.7,5.3c0.6-0.4,1.1-0.8,1.8-1.3
		c-0.6-0.4-1.2-0.9-1.8-1.4C670.7,541.8,669.6,540.7,668.5,539.4z"/>
	<path fill="#5C6E9D" d="M663.6,385.3c-0.9-0.1-1.5-0.1-1.9-0.1c-0.2-0.1-0.4-0.1-0.6-0.1c-0.7,2.6-1.2,5.3-1.7,8
		c0.8,0.1,1.6,0.2,2.5,0.3C662.4,390.7,663,388,663.6,385.3z"/>
	<path fill="#5C6E9D" d="M659.9,500.9c-0.7-0.1-1.4-0.2-2.2-0.3c-0.2,2.4-0.4,4.8-0.5,7.2c0.7,0,1.5,0,2.2-0.1
		C659.5,505.4,659.7,503.2,659.9,500.9z"/>
	<path fill="#5C6E9D" d="M660.6,495.7c0.3-2,0.6-4.1,1-6.1c-0.7-0.2-1.4-0.4-2.1-0.6c-0.4,2.2-0.7,4.3-1.1,6.5
		C659.2,495.5,659.9,495.6,660.6,495.7z"/>
	<path fill="#5C6E9D" d="M651.1,547.5c1,2,2.2,3.9,3.5,5.6c0.1-0.1,0.1-0.1,0.2-0.2c0.6-0.5,1.3-1.1,1.9-1.5c-1-1.5-2-3-2.8-4.6
		C653,546.9,652,547.1,651.1,547.5z"/>
	<path fill="#5C6E9D" d="M647.6,406.4c0.1,0,0.1,0,0.2-0.1c-0.2-3-0.2-6,0-9.1c0-0.3,0-0.6,0.1-0.8c-0.9,0.1-1.8,0.2-2.7,0.2
		c-0.2,1.4-0.3,2.8-0.3,4.3c0,2,0,4,0.2,6C645.9,406.8,646.7,406.6,647.6,406.4z"/>
	<path fill="#5C6E9D" d="M647.7,428.2c0,0.1,0,0.3,0,0.4c0.8-0.1,1.6-0.1,2.5-0.1c-0.2-1.5-0.3-3-0.5-4.5s-0.4-2.8-0.6-4.1
		c-0.8,0.1-1.7,0.1-2.5,0.2C647,422.8,647.4,425.5,647.7,428.2z"/>
	<path fill="#5C6E9D" d="M647.4,491.2c-0.1-0.2-0.2-0.3-0.4-0.3c-0.7-0.3-1.4-0.7-2.2-1c-0.4,2.8-0.7,5.7-0.9,8.8
		c0.9,0.1,1.8,0.2,2.7,0.3C646.8,496.4,647.1,493.8,647.4,491.2z"/>
	<path fill="#5C6E9D" d="M648,463.9c0.9,0.2,1.8,0.4,2.7,0.6c0.2-2.8,0.4-5.7,0.5-8.5c-0.9-0.1-1.8-0.2-2.7-0.4
		C648.4,458.4,648.2,461.1,648,463.9z"/>
	<path fill="#5C6E9D" d="M648.6,442c0.9,0.1,1.7,0.1,2.6,0.2c-0.1-2.7-0.3-5.5-0.5-8.2c-0.9,0-1.7-0.1-2.5-0.2
		C648.4,436.5,648.6,439.3,648.6,442z"/>
	<path fill="#5C6E9D" d="M647.6,528c-0.9,0-1.8,0.1-2.7,0.2c0.5,2.7,1,5.3,1.8,7.9c0.8-0.5,1.7-0.8,2.6-1
		C648.6,532.8,648.1,530.4,647.6,528z"/>
	<path fill="#5C6E9D" d="M646.1,514.3c-0.8,0.1-1.7,0.2-2.5,0.3c0.1,3.1,0.4,6.1,0.7,9.2c0.9-0.1,1.7-0.2,2.6-0.3
		C646.5,520.4,646.2,517.3,646.1,514.3z"/>
	<path fill="#5C6E9D" d="M646.9,475.4c0.2,0.1,0.5,0.2,0.7,0.3c0.6,0.3,1.2,0.5,1.9,0.8c0.1-0.5,0.1-0.9,0.2-1.4
		c0.3-1.9,0.5-3.8,0.7-5.7c-1-0.4-1.9-0.7-2.7-1.1C647.5,470.6,647.2,473,646.9,475.4z"/>
	<path fill="#5C6E9D" d="M648.6,451.5c0.9,0,1.8,0.1,2.6,0.2c0.1-1.7,0.1-3.4,0.1-5c-0.9,0-1.7,0-2.6,0
		C648.7,448.3,648.7,449.9,648.6,451.5z"/>
	<path fill="#5C6E9D" d="M646.3,503.7c-0.9-0.1-1.8-0.2-2.6-0.4c-0.1,2.5-0.2,5-0.2,7.5c0.9-0.1,1.7-0.3,2.6-0.6
		C646.1,508,646.2,505.8,646.3,503.7z"/>
	<path fill="#5C6E9D" d="M659.9,555.3c-0.6,0.3-1.2,0.6-1.8,1c-0.2,0.1-0.4,0.2-0.5,0.3c1.4,1.5,3,2.9,4.6,4.2
		c0.8-0.5,1.5-1,2.3-1.5C662.8,558.2,661.3,556.8,659.9,555.3z"/>
	<path fill="#5C6E9D" d="M645.3,486.4c0.9,0.3,1.8,0.6,2.6,0.8c0.3-1.9,0.5-3.7,0.8-5.6c-0.8-0.3-1.7-0.8-2.5-1.2
		C645.9,482.4,645.6,484.4,645.3,486.4z"/>
	<path fill="#5C6E9D" d="M645.4,410.7c0.2,1.8,0.4,3.7,0.7,5.5c0.9,0,1.7,0,2.6-0.1c-0.2-2-0.5-3.9-0.6-5.9
		C647.2,410.4,646.3,410.6,645.4,410.7z"/>
	<path fill="#5C6E9D" d="M650.4,538.8c-0.3,0.1-0.8,0.1-1.2,0.3c-0.5,0.1-1,0.3-1.5,0.4c0.5,1.4,1,2.8,1.6,4.2
		c0.9-0.4,1.7-0.8,2.6-1C651.4,541.4,650.9,540.2,650.4,538.8z"/>
	<path fill="#5C6E9D" d="M648.5,386.9c-0.9,0.3-1.9,0.5-2.8,0.6c-0.2,1.9-0.3,3.9-0.4,5.9c0.9,0,1.8,0,2.7-0.1
		C648.2,391.2,648.3,389,648.5,386.9z"/>
	<path fill="#5C6E9D" d="M655.2,477.4c1-8.1,1.9-16.3,2.2-24.5c0.3-9.1-0.6-18.1-1.5-27.1c-1.4-14-1.6-27.4,1.4-40.7c0,0,0,0,0-0.1
		c-1.3,0.1-2.6,0.2-3.8,0.4l0,0c-3.5,12.9-1.8,27.4-0.4,40.4c1,9.6,2,19.3,1.7,29c-0.3,9.1-1.6,18.2-2.7,27.3
		c-3.1,25-4.4,57.4,15.4,75.4c0,0,0,0,0.1,0c0.8-0.5,1.7-1.1,2.5-1.6c0,0,0,0-0.1-0.1C648.5,537.7,652,503.1,655.2,477.4z"/>
</g>
</svg>
