<?xml version="1.0" encoding="utf-8"?>
<!-- Generator: Adobe Illustrator 23.0.1, SVG Export Plug-In . SVG Version: 6.00 Build 0)  -->
<svg version="1.1" id="_x31_8_x5F_HeadGear_x5F_Snapback"
	 xmlns="http://www.w3.org/2000/svg" xmlns:xlink="http://www.w3.org/1999/xlink" x="0px" y="0px" viewBox="0 0 2000 2000"
	 enable-background="new 0 0 2000 2000" xml:space="preserve">
<path fill="#5AB0A3" d="M567.1,586.6l-11.7-16.5l32.6-51.5l130.6-125.5l337.5-78.4l168,3.4c0,0,30,16.5,39,18s148.5,33,154.5,33
	s31.5,27,31.5,27l-4,23.3l-26,33.7c0,0-138-39-142.5-39s-432,73.5-438,75s-174,51-174,51L567.1,586.6z"/>
<g id="_x31_8_x5F_HeadGear_x5F_Snapback_x5F_Foreground">
	<path fill="#5AB0A3" d="M681.8,148.6c0.9,0.9,2.8,0.8,6.5-0.1"/>
	<path fill="#6241CE" d="M648.5,164.3L617,182.1l-32.9,36.8L563,245l-11.2,16.5l-25.3,32.2l-18,37.2v88.3c0,0-12,32.9-8.2,36.3
		c3.8,3.5,55.1,114.6,55.1,114.6l93-104.1l71.2-51.8l132.8-52.8l144.2-26.1L1152,325l80.1-2.7l-35.9-106.5l-9.9-24.3l-23.8-14.5
		l-43.1-22.2l0,0l-39.5-17.7l-45.7-14.5l-62.1-17.1l-41.7-9.8l-52.6-2.9l-15.4-3.6l-24.5,5.4l-24.4,7.4l-53.8,20.5l-45.8,15.9
		l-45.7,16L648.5,164.3L648.5,164.3"/>
	<path fill="#F6F8FA" d="M1445.6,412.1c0,2.3-0.1,4.7-0.5,7.3l0,0C1445.5,416.8,1445.6,414.4,1445.6,412.1z"/>
	<path fill="#47339B" d="M1047.3,282.3c-0.9,0.1-1.7,0.1-2.6,0.2c1.7,4.2,3.4,8.5,5,12.7c0.8-0.1,1.6-0.2,2.5-0.3
		C1050.7,290.7,1049.1,286.5,1047.3,282.3z"/>
	<path fill="#47339B" d="M1005.7,204.7c-0.6,0.1-1.3,0.1-2.1,0.1c2.1,3.1,3.9,6.3,5.9,9.4c0.7-0.1,1.3-0.2,2-0.4
		c-0.2-0.3-0.3-0.5-0.5-0.8C1009.2,210.2,1007.5,207.4,1005.7,204.7z"/>
	<path fill="#47339B" d="M994.8,191.4c2.2,3.2,4.3,6.5,6.5,9.7c0.2,0,0.5,0,0.7,0c0.4-0.1,0.9-0.1,1.3-0.2c-2.1-3.2-4.2-6.3-6.4-9.4
		C996.3,191.5,995.6,191.4,994.8,191.4z"/>
	<path fill="#47339B" d="M854,91.5c-1.7-0.6-3.4-1-5.1-1.5c-0.9,0.1-2,0.3-3,0.5c1.8,0.5,3.8,0.9,5.6,1.5
		C852.3,91.9,853.1,91.7,854,91.5z"/>
	<path fill="#47339B" d="M1051.1,299c1.3,3.9,2.6,7.7,3.8,11.5c0.8,0,1.7,0,2.6,0c-1.2-3.9-2.5-7.9-3.9-11.8
		C1052.8,298.8,1051.9,298.9,1051.1,299z"/>
	<path fill="#47339B" d="M929.2,129.5c11.6,11.5,22.9,23.7,33.3,36.3c-1,0.9-2,1.9-2.9,2.9c-1.6,1.9-3,4.1-3.9,6.3
		c-0.5,0-1.1,0-1.7,0c0.4,0.5,0.7,1.1,1.1,1.7c0,0.1,0,0.2-0.1,0.2c2.2,3.3,4.3,6.7,6.4,10.1c0.6,0,1.2,0,1.8,0
		c-2.4-4-4.9-8-7.5-11.9c0.9-2.2,2.3-4.3,3.9-6.3c0.9-1.1,1.8-2,2.8-2.9c1.3,1.7,2.7,3.3,4,5c1.8,2.3,3.6,4.7,5.3,7.1
		c-0.1,0.1-0.2,0.2-0.3,0.3c-1.7,2.2-2.6,4.8-2.4,7.4c0.2,2.7,1.4,5.3,3.8,7.2c2,1.7,4.5,2.4,7,2.4c-2.5,0-4.8-0.7-6.9-2.4
		c-2.3-1.8-3.6-4.5-3.8-7.2c-0.2-2.6,0.5-5.3,2.4-7.4c0.1-0.1,0.2-0.2,0.3-0.3c3.9,5.5,7.5,11.1,10.9,16.9h-0.1
		c2.6,4.4,5,8.9,7.3,13.3c0,0,0.1,0,0.1-0.1c1.7,3.4,3.4,6.9,5,10.4c7.2,15.5,13.5,31.4,20.8,46.8c0,0.1,0.1,0.2,0.1,0.3
		c9.4,20.4,15.1,42,20.4,63.7c1.5-0.2,3.2-0.3,4.7-0.5c-2.5-10-5.6-19.8-8.5-29.6c-2.6-8.8-5.6-17.3-9.3-25.6
		c0.1-0.3,0.1-0.7-0.1-1.1v-0.1c-6.5-12.4-12-25.1-17.7-37.9l0,0c-9.7-21.8-19.6-43.3-34.4-62.5c-11.3-14.5-23.8-28.2-36.6-41.4
		c-6.5-6.7-13.1-13.1-20.8-18.4c-8-5.5-16.8-9.8-25.5-14.3c-3.4-1.8-7-3.6-10.4-5.4c-4.5-0.5-7.3-0.8-7.3-0.8l-7-2.7c0,0-0.3,0-1,0
		c6.2,2.8,12.2,5.6,18.2,8.6C898.4,106.7,915.2,115.5,929.2,129.5z"/>
	<path fill="#47339B" d="M984.2,176.8c2.7,3.5,5.3,7.1,7.9,10.7c0.7,0.1,1.4,0.1,2.2,0.1c-2.5-3.5-5-7-7.7-10.5
		C985.7,177,985,176.9,984.2,176.8z"/>
	<path fill="#47339B" d="M904.2,102.5c-1-0.6-2.1-1.2-3.1-1.8c-0.8,0-1.5,0.1-2.3,0.1c1.1,0.6,2.2,1.2,3.3,1.8
		c1.8,1.1,3.7,2.2,5.5,3.3c2.4,1.4,4.6,2.8,6.9,4.3c0.5-0.1,1.1-0.3,1.6-0.3c-2.1-1.4-4.2-2.8-6.4-4.1
		C908,104.7,906,103.6,904.2,102.5z"/>
	<path fill="#47339B" d="M917.8,112.4c2.6,1.7,5,3.5,7.5,5.3c0.4-0.2,0.9-0.4,1.4-0.5c-2.4-1.8-4.7-3.5-7.2-5.1
		C919,112.2,918.4,112.3,917.8,112.4z"/>
	<path fill="#47339B" d="M951.1,139.6c2.5,2.3,4.9,4.8,7.3,7.2c0.8,0,1.5,0.1,2.3,0.1c-2.4-2.5-4.8-4.9-7.3-7.3
		C952.5,139.6,951.8,139.6,951.1,139.6z"/>
	<path fill="#47339B" d="M973.6,163.6c2.6,3.1,5.1,6.2,7.6,9.4c0.7,0,1.4,0.1,2.3,0.2c-2.5-3.2-5-6.3-7.6-9.4
		C975.1,163.7,974.3,163.7,973.6,163.6z"/>
	<path fill="#47339B" d="M962.6,151.2c2.6,2.8,5.1,5.7,7.7,8.6c0.7,0,1.4,0,2.3,0c-2.5-2.8-4.9-5.6-7.5-8.3
		C964.2,151.4,963.4,151.3,962.6,151.2z"/>
	<path fill="#47339B" d="M939,128.5c3,2.6,5.9,5.2,8.7,7.8c0.7,0,1.4,0,2.1-0.1c-3-2.7-6-5.4-9-8C940.2,128.3,939.6,128.4,939,128.5
		z"/>
	<path fill="#47339B" d="M945.5,160.4c-2.9-3.9-5.9-7.7-9-11.4c-0.7,0-1.3-0.1-2.1-0.1c3.2,3.8,6.4,7.7,9.3,11.7
		C944.3,160.5,944.8,160.5,945.5,160.4z"/>
	<path fill="#47339B" d="M953.8,172.1c-2.1-3-4.1-6-6.3-8.9c-0.6,0-1.2,0-1.8,0c2.2,3,4.3,6,6.4,9
		C952.5,172.2,953.2,172.1,953.8,172.1z"/>
	<path fill="#47339B" d="M911,125.2c2.1,1.8,4.1,3.7,6.2,5.6c0.5-0.2,1-0.3,1.6-0.5c-2.1-1.9-4.1-3.8-6.3-5.6
		C912.1,124.9,911.6,125,911,125.2z"/>
	<path fill="#47339B" d="M589.2,239.5c0.6,0.1,1.2,0.3,1.8,0.4c0.1-0.9,0.2-1.8,0.4-2.7l-1.7-0.9
		C589.5,237.3,589.3,238.4,589.2,239.5z"/>
	<path fill="#47339B" d="M986.7,232.1c-1.6-3.7-3.4-7.4-5.1-11.1c-0.6,0.1-1.2,0.1-1.8,0.2c1.7,3.7,3.5,7.5,5.1,11.2
		C985.5,232.3,986.1,232.2,986.7,232.1z"/>
	<path fill="#47339B" d="M926,137.5c-1.4-1.5-2.9-3-4.4-4.5c-0.5,0.2-1,0.3-1.5,0.5c1.4,1.4,2.8,2.9,4.2,4.3
		C924.9,137.7,925.4,137.6,926,137.5z"/>
	<path fill="#47339B" d="M934.1,146.2c-1.8-2-3.7-4.1-5.5-6.1c-0.6,0-1.2,0.1-1.8,0.1c1.8,2,3.7,4.1,5.5,6.2
		C932.8,146.3,933.4,146.3,934.1,146.2z"/>
	<path fill="#47339B" d="M606.8,202.1c-1.2,1.7-2.5,3.5-3.7,5.2c-0.1,0.2-0.1,0.5-0.2,0.7c0.5-0.1,1-0.1,1.5-0.2
		c1.7-2.6,3.5-5.1,5.3-7.5l0,0l0,0c-0.2,0.1-0.5,0.2-0.7,0.3C608.2,201.1,607.5,201.6,606.8,202.1z"/>
	<path fill="#47339B" d="M623.5,181.7c1-0.3,2.1-0.7,3.1-1l3-3.7h0.1l0,0l0.5,0.2c3.1-3,6.2-6,9.3-8.8c-2,1-3.8,2-5.6,3.1
		C630.3,174.7,626.8,178.2,623.5,181.7z"/>
	<path fill="#47339B" d="M621.8,186.1c-0.5,0.1-0.9,0.3-1.4,0.5c0.3,0,0.6,0.1,0.8,0.1C621.3,186.5,621.5,186.3,621.8,186.1z"/>
	<path fill="#47339B" d="M998.1,266.1c0.6-0.1,1.3-0.2,2-0.3c-1.6-4.6-3.3-9.2-5-13.7c-0.7,0-1.3,0.1-2.1,0.1
		C994.8,256.8,996.5,261.4,998.1,266.1z"/>
	<path fill="#47339B" d="M991.5,248.2c0.2,0.5,0.4,0.9,0.5,1.3c0.6-0.1,1.3-0.1,2-0.2c-1.8-4.8-3.8-9.5-5.9-14.2
		c-0.7,0.1-1.3,0.2-2,0.3C988,239.7,989.8,244,991.5,248.2z"/>
	<path fill="#47339B" d="M1003.1,281.5c0.7-0.1,1.3-0.1,2.1-0.2c-1.2-3.9-2.5-7.8-3.8-11.7c-0.6,0-1.3,0.1-2,0.2
		C1000.7,273.7,1001.9,277.6,1003.1,281.5z"/>
	<path fill="#47339B" d="M897.1,98.5c-2.4-1.2-4.6-2.4-7-3.5c-0.5,0-1,0.1-1.5,0.1c-0.2,0-0.4,0.1-0.6,0.1c2.4,1.2,4.8,2.4,7.2,3.6
		C895.7,98.7,896.5,98.7,897.1,98.5z"/>
	<path fill="#47339B" d="M590.5,327.7c-0.9-4.3-1.7-8.7-2.6-13l-2.5,1.3l-0.2-0.3c0,0.1,0,0.1,0,0.2l0,0c0.7,3.4,1.3,6.8,2.1,10.1
		c1.1,5.8,2.4,11.6,3.6,17.4l3-0.2C592.7,338.1,591.6,332.9,590.5,327.7z"/>
	<path fill="#47339B" d="M596.7,355.7c-0.4-1.7-0.8-3.4-1.2-5.1l0.3,4.7C596.1,355.3,596.4,355.5,596.7,355.7z"/>
	<path fill="#47339B" d="M582.3,267c0.8-9,1.1-18.2,2.9-27.1c0.3-1.8,0.7-3.6,1.2-5.4l-1.8-1l3.2-4c0.8-2.8,1.7-5.5,2.9-8.2
		c-0.7-1.1-1.2-2.2-1.6-3.3c-5.4,13.4-7.8,27.3-8.4,41.6c-0.6,5.4-0.8,10.8-0.7,16.2c0.9,0.5,2,1.1,2.8,1.8
		C582.4,274.1,582.3,270.5,582.3,267z"/>
	<path fill="#47339B" d="M586.5,214.1c-0.9,1.6-1.7,3.2-2.5,4.8c0.5,0,1,0,1.5,0c0.8-1.6,1.5-3.1,2.4-4.7c0-0.1,0-0.3-0.1-0.4
		C587.5,213.9,587,214,586.5,214.1z"/>
	<path fill="#47339B" d="M1194.7,211.3L1194.7,211.3c1,4.4,2.6,9.5,5.3,15.6c8.5,19.2,10.4,23.7,22.1,55.4
		c7.1,19.3,9.3,32.6,10.1,40l0,0c-0.7-7.5-2.9-20.7-9.9-39.8c-11.7-31.7-13.7-36.2-22.1-55.4c-8.2-18.8-5.8-28-12-33.9l0,0
		C1192.2,197.1,1192.4,202.5,1194.7,211.3z"/>
	<path fill="#47339B" d="M615.4,413.9c-1.8-5.3-3.2-11.1-5.5-16.4c0-0.2,0-0.4-0.1-0.7c-1.2-2.9-2.4-5.9-3.4-8.9
		c-0.4,1.5-0.8,2.9-1.4,4.3v0.1c0,0.1,0,0.1-0.1,0.1c0.7,1.8,1.3,3.6,2.2,5.4c1.3,6.5,4.1,13,6.2,19.2c2.7,7.8,5.4,15.6,8.6,23.2
		c4.9,11.7,10.9,23,18.4,33.2c0.8-0.8,1.6-1.5,2.6-2.3c-8.1-10.9-14.3-22.8-19.3-35.3C620.5,428.6,617.9,421.2,615.4,413.9z"/>
	<path fill="#47339B" d="M591,372c0.7,2.4,1.5,4.7,2.4,7c0.5-0.1,0.9-0.2,1.4-0.2c-0.8-2.3-1.6-4.7-2.4-7.1
		C592.1,371.8,591.6,371.9,591,372z"/>
	<path fill="#47339B" d="M557.2,517.5c-2.1-0.3-4.1,0.4-5.9,1.9l-0.1,0.1c-1.6,1.6-2.8,3.7-3.2,6.1c-0.3,2.4,0,4.8,1.1,6.7
		c0,0.1,0.1,0.1,0.1,0.2c1.1,1.9,2.9,3.2,4.9,3.5c2.3,0.4,4.4-0.5,6.1-2c1.5-1.5,2.7-3.6,3.1-6.1c0.4-2.4-0.1-4.8-1.1-6.7
		C561.2,519.2,559.3,517.8,557.2,517.5z"/>
	<path fill="#47339B" d="M645.2,465.4c0.4,0.8,0.9,1.5,1.4,2.3c0.6-0.5,1.2-1.1,1.8-1.6c-0.4-0.7-0.8-1.3-1.2-2
		C646.5,464.6,645.8,465,645.2,465.4z"/>
	<path fill="#47339B" d="M909.4,123.8c0.1,0,0.1,0,0.2-0.1l-0.4-0.1C909.3,123.7,909.3,123.7,909.4,123.8z"/>
	<path fill="#47339B" d="M625.2,460.6c0.5-0.3,1.1-0.7,1.6-1.2c-2.3-4.1-4.5-8.3-6.6-12.5c-0.1,0-0.1,0.1-0.2,0.1
		c-0.3,0.1-0.6,0.3-1,0.4l-0.1,1.1C620.9,452.6,623,456.7,625.2,460.6z"/>
	<path fill="#47339B" d="M603.1,406.7c0.5-0.1,1-0.1,1.5-0.2c-1-2.9-2.1-6.1-3-9c-0.3,0.4-0.7,0.8-1,1.1
		C601.4,401.3,602.2,404,603.1,406.7z"/>
	<path fill="#47339B" d="M576.5,273.3c-0.6-0.5-1.3-1.1-2.1-1.6c0,0.6,0.1,1.2,0.1,1.8c0.7,0.2,1.3,0.4,2,0.7
		C576.5,273.9,576.5,273.6,576.5,273.3z"/>
	<path fill="#47339B" d="M634.3,472.4c-0.6,0.3-1.2,0.7-1.8,1.1c0.5,0.8,1.1,1.7,1.6,2.6c0.4,0.6,0.8,1.2,1.2,1.9
		c0.5-0.5,1-1,1.5-1.5c-0.3-0.5-0.6-0.9-0.9-1.4C635.4,474.2,634.8,473.3,634.3,472.4z"/>
	<path fill="#47339B" d="M597,385.2c-0.3-0.9-0.6-1.7-0.9-2.6c-0.4,0-0.9,0-1.4,0.1c0.5,1.2,0.9,2.4,1.4,3.6
		C596.4,386,596.7,385.6,597,385.2z"/>
	<path fill="#47339B" d="M1029.3,244.6c-1.4-2.7-2.9-5.3-4.3-7.9l0,0h-0.1c-1-2-2.2-4-3.3-5.9c-0.8,0.1-1.5,0.2-2.2,0.3
		c2.7,4.7,5.1,9.2,7.5,13.9C1027.6,244.9,1028.4,244.7,1029.3,244.6z"/>
	<path fill="#47339B" d="M1017.3,227.3c0.7-0.1,1.4-0.2,2.2-0.3c-2-3.3-4-6.6-6-9.9c-0.6,0.2-1.3,0.3-2,0.5c1.3,2.3,2.7,4.5,3.9,6.6
		h0.1C1016.1,225.2,1016.7,226.3,1017.3,227.3z"/>
	<path fill="#47339B" d="M1039.6,265.1c-0.6,0.1-1.2,0.1-1.8,0.2c-0.2,0-0.5,0.1-0.7,0.1c0.5,1.1,1,2.2,1.5,3.2
		c0.1,0.3,0.3,0.5,0.4,0.8l0,0c1.4,3,2.8,6.1,4.1,9.2c0.8,0,1.6-0.1,2.6-0.1c-1.4-3.4-3-6.7-4.5-10l0,0
		C1040.7,267.4,1040.1,266.2,1039.6,265.1z"/>
	<path fill="#47339B" d="M1056.1,314.6c1.2,4.1,2.3,8.3,3.3,12.6c0.8-0.1,1.7-0.1,2.6-0.2c-1-4.1-2.1-8.3-3.3-12.4
		C1057.8,314.6,1056.9,314.6,1056.1,314.6z"/>
	<path fill="#47339B" d="M965,189.9c-0.6,0-1.2-0.1-1.8-0.1c2.7,4.4,5.1,8.8,7.5,13.3c0.5,0,1.1-0.1,1.7-0.1
		c-1.5-2.9-3.2-5.8-4.8-8.7C966.7,192.8,965.9,191.4,965,189.9z"/>
	<path fill="#47339B" d="M1028.6,248.4c2.3,4.4,4.4,8.8,6.6,13.1c0.7-0.1,1.5-0.2,2.4-0.3c-1-2.1-2-4.1-3.1-6.2l0.1-0.1
		c-1.1-2.3-2.4-4.6-3.5-6.9C1030.3,248.2,1029.5,248.3,1028.6,248.4z"/>
	<path fill="#47339B" d="M1014.3,316.1c-0.2,0-0.4,0-0.6,0c-0.5,0-1.1,0.1-1.6,0.1c0.1,0.7,0.2,1.3,0.3,1.9l2.8,2.1
		C1014.9,318.9,1014.6,317.5,1014.3,316.1z"/>
	<path fill="#47339B" d="M1014.8,332c0.6-0.1,1.3-0.2,2-0.3c-0.1-0.6-0.1-1.2-0.2-1.9L1014.8,332z"/>
	<path fill="#47339B" d="M1006.1,284.7c-0.7,0-1.3,0.1-2.1,0.1c0.6,2,1.2,4.1,1.7,6.1c1.3,1.5,2.5,3.2,3.4,4.9
		C1008.3,292.1,1007.3,288.4,1006.1,284.7z"/>
	<path fill="#47339B" d="M1012.7,312.1c0.2,0,0.4,0,0.6,0c0-0.1,0-0.1,0-0.2c-0.4-1.6-0.7-3.2-1.1-4.7c0,1.7-0.1,3.3-0.4,5
		C1012.1,312.1,1012.4,312.1,1012.7,312.1z"/>
	<path fill="#47339B" d="M982.4,194.9c-0.4,0.1-0.9,0.2-1.3,0.2C981.6,195.2,982,195.1,982.4,194.9z"/>
	<path fill="#47339B" d="M957.9,198.9l-8.3,9.8l0,0L957.9,198.9L957.9,198.9z"/>
	<path fill="#47339B" d="M973.9,205.9c-0.6,0.1-1.2,0.1-1.8,0.1c0.6,1.2,1.1,2.3,1.7,3.4c0.1,0,0.1,0,0.2,0.1c1.5,3,3.1,6,4.5,9
		c0.5-0.1,1.1-0.1,1.6-0.2c0.1,0,0.1,0,0.2,0c-1.3-2.8-2.8-5.5-4.1-8.3c-0.1,0-0.1,0-0.2,0C975.3,208.6,974.6,207.3,973.9,205.9z"/>
	<path fill="#47339B" d="M927.9,119.7c2.6,1.9,5.1,3.9,7.6,6c0.6-0.2,1.1-0.3,1.6-0.4c-2.5-2-5-4-7.6-6
		C929,119.4,928.4,119.6,927.9,119.7z"/>
	<path fill="#47339B" d="M589.8,254.8c0.2-3.6,0.3-7.2,0.7-10.7c-0.6-0.1-1.2-0.3-1.8-0.4c-0.4,3.9-0.6,7.8-0.7,11.8
		c0.6,0,1.2,0,1.8,0C589.8,255.3,589.8,255,589.8,254.8z"/>
	<path fill="#47339B" d="M593.7,321L593.7,321c0-0.1,0-0.1,0-0.2C593.7,320.9,593.7,321,593.7,321z"/>
	<path fill="#47339B" d="M528.9,567.4c-0.2-0.1-0.3-0.3-0.5-0.4c-2.1-1.6-4.3-2.9-6.3-3.4s-3.1-0.2-3.5,0.7s0,2.3,1.1,4
		s3,3.5,4.8,5.1c2.2,1.5,4.3,2.8,6.3,3.3s3.1,0.2,3.5-0.7s0-2.3-1.1-4C532.2,570.4,530.7,568.8,528.9,567.4z"/>
	<path fill="#47339B" d="M589.7,267c0-2.6,0-5.3,0-7.9c-0.6-0.1-1.2-0.2-1.8-0.3c-0.1,2.5,0,5,0,7.5
		C588.5,266.6,589.1,266.8,589.7,267z"/>
	<path fill="#47339B" d="M553.8,604.9c0,0,6.3-23.6,16.1-45.7c0.6-1.3,1.3-2.7,2-4.1c0.8,5.3,1.8,9.5,4,11.8
		c-2.2-2.3-3.1-6.4-4-11.8c2.8-5.8,6.1-11.6,9.8-17.3c-2.5-1.9-5.1-4.2-7.5-6.5c-2.1,9.3-8.6,16.4-16.3,18l-1.1,6.9
		c-3.4-10.1-9-26.8-15.1-43.5c1-1.4,2.2-2.7,3.4-3.8c2.7-2.4,5.5-3.9,8.6-4.5l1.8-11.6l5.4,0.8c-1.2-5.5-2.8-11.6-5.1-18.1
		c-7.7-21.5-22.6-57.7-27.2-79.2c-4.6-21.5-4.4-28-4.4-28s-3.9-11.7-6.2-21.7c-1.4-6.6-2.7-19.8-3.6-45.9
		c-4.3,9.4-7.3,18.5-14.2,31.1c-3.5,6.4-5.1,14.1-5.8,21.4l0.1,0.8c2.3-0.1,4.4,0.7,6.5,2.2c3.3,2.4,5.8,6.6,6.9,11.6
		s0.8,10.4-0.9,15.1c-1.1,2.9-2.6,5.4-4.4,7.2l2.3,9.7l-7.8,3.5l-2.2-9.6h-0.1c-1.3,0-2.7-0.3-3.9-0.8c-2.1,9.4-4.7,23-7.3,40.6
		C478,471.3,485.4,504,498,536c2.9,7.4,5.3,14.2,7.4,20.6c7,21.1,10.3,37.2,14.7,52.9c5.6,20.5,18.6,26.3,18.6,26.3
		s-5.9-6.8,18.8-27.1L553.8,604.9z M518.6,436c8.2,5.3,15.2,15.2,17.6,23.9l9.2,6.1l0.2,10.5l-9.2-6.1c-0.8,2.2-2.4,3.6-4.4,4.3
		c-1,0.3-2.3,0.4-3.5,0.2c-1.6-3.3-3.7-7.6-6.1-12.7c0.6,0.2,1.2,0.2,1.7,0h0.1c1.3-0.5,2.1-1.8,2.1-3.7c0-2.1-0.9-4.5-2.4-6.8
		c-0.3-0.3-0.5-0.7-0.8-1.1c-1.3-1.6-2.8-3.1-4.4-4.2c-1.6-1.1-3.2-1.6-4.4-1.5c-1.7-4-3.7-8.3-5.5-12.6
		C511.6,432.4,515,433.6,518.6,436z M498.1,510.9l-1.7-10c-1.7-0.7-3.4-2.1-4.9-4.2c-2.6-3.4-4.4-8.2-5.3-13.4
		c-0.9-5.3-0.8-10.4,0.4-14.4c0.7-2.5,1.8-4.4,3.2-5.6l-1.7-10l5.8-1l1.7,10c4.4,1.8,8.6,8.8,10.2,17.6c1.5,8.8,0,16.7-3.5,20
		l1.7,10L498.1,510.9z M537.3,592.4l-5.4-8.2c-3.7-1.8-7.6-4.3-11.2-7.2c-4.3-3.4-8.1-7.3-10.7-11.2c-4.8-7.2-4-11.9,1.3-12.1
		l-5.4-8.2l9.8,2.6l5.4,8.1c8,3.8,16.9,11.2,21.8,18.4s4,11.9-1.3,12.1l5.5,8.3L537.3,592.4z"/>
	<path fill="#47339B" d="M494.6,384.7l0.8,9h-0.1c-1.4,0-2.8-0.3-4.1-0.8c-2.1,9.4-4.9,23-7.6,40.6c-5.9,37.8,1.9,70.5,14.9,102.5
		c3,7.4,5.5,14.2,7.7,20.6c7.3,21.1,10.7,37.2,15.3,52.9c5.9,20.5,12.2,22.5,12.2,22.5s8.9-9.6,22.2-25l0.6-2.1
		c0,0,6.5-23.6,16.7-45.7c0.6-1.3,1.4-2.7,2-4.1c0.9,5.3,1.9,9.5,4.2,11.8c-2.2-2.3-3.2-6.4-4.2-11.8c2.9-5.8,15.6-16.1,19.4-21.8
		c-2.6-1.9,0.5-12.4-2-14.7c-2.1,9.3,3.4-1.6-4.6,0l-5.3-5.3c-3.5-10.1-8.3,7.4-14.6-9.3c1.1-1.4-1.9-6.2-0.7-7.3
		c2.8-2.4-3.2-2.7,0-3.3l-9.3-0.5l5.7,0.8c-1.3-5.5,33.3-25.8,30.8-32.3c-8-21.5-38.3-53.2-43.1-74.7s-1.3-32-1.3-32
		s15.6-36.7,13.3-46.7c-1.5-6.6-47,18.8-48-7.3c-4.5,9.4-7.6,18.5-14.7,31.1c-3.6,6.4-5.3,14.1-6,21.4l0.1,0.8
		c2.3-0.1-1.3,3.2,0.9,4.7c3.4,2.4-0.5,2.3,0.7,7.3"/>
	<path fill="#47339B" d="M612.6,186.7c1.5-1.6,3.1-3.1,4.6-4.7c0.8-0.8,1.7-1.6,2.7-2.3c-3.9,2.5-7.8,5.1-11.5,7.9
		c0.4-0.1,0.8-0.3,1.2-0.4C610.7,187,611.6,186.8,612.6,186.7z"/>
	<path fill="#47339B" d="M576.3,240.8c-0.8,3.5-1.4,7-1.7,10.7c0.6,0.3,1.3,0.6,2,0.9c0.3-3.8,0.8-7.5,1.5-11.2
		C577.4,241,576.9,240.9,576.3,240.8z"/>
	<path fill="#47339B" d="M596.4,325c-0.1-0.1-0.2-0.2-0.2-0.3c-0.6,0.1-1.1,0.1-1.7,0.2c0.6,3.4,1.4,6.9,2.3,10.4
		c0.6,0,1.3-0.1,2-0.1c-0.8-3.3-1.4-6.6-2.2-10C596.5,325.2,596.4,325.1,596.4,325C596.4,325.1,596.4,325.1,596.4,325z"/>
	<path fill="#47339B" d="M576.9,237.8c0.6,0,1.1,0.1,1.7,0.1c0.5-2.2,1.1-4.3,1.8-6.5c-0.5-0.1-1-0.1-1.5-0.2
		C578.2,233.4,577.6,235.6,576.9,237.8z"/>
	<path fill="#47339B" d="M576.3,254.9c-0.6-0.4-1.3-0.7-2-1.1c-0.1,1.9-0.2,3.9-0.3,5.7c0.7,0.3,1.4,0.5,2.1,0.8
		C576.1,258.5,576.2,256.7,576.3,254.9z"/>
	<path fill="#47339B" d="M602.2,357.3c0.7,2.6,1.5,5.2,2.3,7.9c0.7-0.2,1.3-0.4,2-0.6c-0.3-1-0.6-2-0.9-3c-0.5-1.6-0.9-3.3-1.4-4.9
		C603.5,357,602.9,357.2,602.2,357.3z"/>
	<path fill="#47339B" d="M612.4,383.4c-0.6,0.2-1.3,0.3-2,0.4c1.5,4.4,3.1,8.9,4.7,13.3c0.6-0.1,1.2-0.3,2-0.5
		C615.5,392.2,614,387.8,612.4,383.4z"/>
	<path fill="#47339B" d="M618.6,400.4c-0.6,0.1-1.3,0.3-2,0.5c1.4,4,3,8,4.6,12c0.6-0.3,1.2-0.5,1.8-0.7
		C621.5,408.3,620,404.4,618.6,400.4z"/>
	<path fill="#47339B" d="M582.5,222.2c-0.9,2-1.7,4.1-2.5,6.1c0.6-0.1,1.1-0.1,1.6-0.1c0.2-0.6,0.4-1.3,0.7-2c0.5-1.4,1-2.7,1.6-4
		c-0.4,0-0.7,0-1,0C582.9,222.2,582.7,222.2,582.5,222.2z"/>
	<path fill="#47339B" d="M607.6,368.5c-0.6,0.2-1.1,0.4-1.7,0.6c0.2,0.8,0.4,1.6,0.6,2.5c0.9,2.8,1.7,5.7,2.8,8.5
		c0.4,0,0.8,0,1.1-0.1c0.3,0,0.5-0.1,0.8-0.1C609.9,376.1,608.7,372.3,607.6,368.5z"/>
	<path fill="#47339B" d="M588.8,284.2c1,1.6,1.7,3.2,2.3,4.8c-0.2-1.5-0.3-3-0.4-4.6c-0.6-0.1-1.2-0.2-1.8-0.4
		C588.8,284.1,588.8,284.1,588.8,284.2z"/>
	<path fill="#47339B" d="M624.6,415.8c-0.7,0.2-1.3,0.5-2,0.7c0.8,1.9,1.5,3.9,2.4,5.8c0.7,1.9,1.5,3.8,2.4,5.8
		c0.7-0.2,1.4-0.3,2.2-0.4C627.8,423.7,626.3,419.8,624.6,415.8z"/>
	<path fill="#47339B" d="M600.5,343.2l-2.2-0.8l0,0l0,0c0.9,3.6,1.8,7.3,2.8,10.9c0.6-0.1,1.2-0.3,1.8-0.5c-0.8-3.1-1.6-6.3-2.5-9.5
		l0,0C600.5,343.3,600.5,343.3,600.5,343.2z"/>
	<path fill="#47339B" d="M637,450.1c2,4,4,8,6.3,11.9c0.7-0.4,1.3-0.8,2-1.3c-2.3-3.8-4.2-7.7-6.2-11.6
		C638.3,449.4,637.7,449.8,637,450.1z"/>
	<path fill="#47339B" d="M631.1,431.5c-0.7,0.2-1.4,0.3-2.2,0.4c2.1,5,4.2,9.9,6.5,14.7c0.6-0.4,1.3-0.7,2-1.1
		C635.2,440.8,633.2,436.2,631.1,431.5z"/>
	<path fill="#47339B" d="M592.3,301.6c0-0.1,0-0.1,0.1-0.2c-0.2-1.2-0.3-2.4-0.5-3.6c-0.2,0.1-0.5,0.2-0.8,0.3
		c-0.2,0.6-0.4,1.3-0.7,1.9c0.3,2.2,0.6,4.3,0.8,6.5c0.2-1.6,0.6-3.1,1.1-4.7C592.3,301.7,592.3,301.6,592.3,301.6z"/>
	<path fill="#47339B" d="M574.1,261.6c0,2.5,0,5,0.2,7.5c0.7,0.4,1.4,0.9,2.1,1.4c-0.1-2.6-0.2-5.1-0.2-7.7
		C575.4,262.4,574.8,262,574.1,261.6z"/>
	<path fill="#47339B" d="M563.8,312.6c0-1.9-0.3-4.5-0.7-7.6l0,0c0,0,0,0,0-0.1c-3-1.6-5.6-3.8-7.8-6.4c-3.4-4.3-4.9-9.1-4.3-13.7
		c0.3-2.8,1.5-5.3,3.4-7.3l-6.6-8.1l9.4-4.9l3.4,4.2c0.4-7.7,1.4-17.9,3.6-29.1c-3.3,6.6-4.5,10.7-4.5,10.7
		c-7.2,2.7-14.1,8-20.2,14.3c-0.1,0.1-0.2,0.2-0.2,0.3c5,14.8,12.4,34.9,17.7,44.4C565.9,325.2,564,319.6,563.8,312.6z"/>
	<path fill="#47339B" d="M497.6,475.6c-0.9-1.4-2.2-2.2-3.3-2c-1.1,0.2-2,1.2-2.5,2.8c0,0.1,0,0.1,0,0.2c-0.4,1.6-0.5,3.6-0.1,5.7
		c0.3,2,1,3.9,2.1,5.3l0.1,0.1c1,1.4,2.3,2.1,3.3,1.9c1.1-0.2,2.1-1.3,2.5-3c0.4-1.6,0.5-3.6,0-5.7
		C499.3,478.8,498.5,476.9,497.6,475.6z"/>
	<path fill="#47339B" d="M904.2,118c-0.8-0.6-1.6-1.2-2.5-1.9c-0.5,0.1-1,0.3-1.5,0.4c1.2,0.9,2.5,1.8,3.7,2.8L904.2,118z"/>
	<path fill="#47339B" d="M581.2,320.4c-0.4-3.4-0.9-6.8-1.3-10.2c-0.6-0.2-1.1-0.4-1.7-0.6c0.4,3.6,0.9,7.2,1.4,10.7
		C580.1,320.3,580.7,320.4,581.2,320.4z"/>
	<path fill="#47339B" d="M590.3,280.6c-0.2-3.1-0.3-6.2-0.4-9.3c-0.6-0.2-1.2-0.5-1.8-0.7c0,2.5,0.2,5.1,0.3,7.6
		c0,0.7,0.1,1.3,0.1,2C589.1,280.4,589.7,280.5,590.3,280.6z"/>
	<path fill="#47339B" d="M898.9,114c-3.3-2.4-6.8-4.7-10.3-6.8c-0.7,0.1-1.3,0.1-2.1,0.2c3.6,2.2,7.2,4.5,10.7,7
		C897.9,114.3,898.4,114.1,898.9,114z"/>
	<path fill="#47339B" d="M859,94.5c2.6,0.8,5,1.8,7.5,2.8c0.5-0.2,1.1-0.4,1.6-0.6c-2.3-0.9-4.6-1.8-7-2.7
		C860.4,94.2,859.7,94.3,859,94.5z"/>
	<path fill="#47339B" d="M877.8,101.2c-1.8-1-3.8-1.9-5.8-2.8c-0.5,0.2-1.1,0.3-1.7,0.5c2,0.8,3.8,1.7,5.6,2.6
		C876.5,101.4,877.2,101.3,877.8,101.2z"/>
	<path fill="#47339B" d="M882.9,103.9c-0.7-0.4-1.4-0.8-2.2-1.2c-0.7,0.1-1.3,0.2-2.1,0.3c0.7,0.3,1.4,0.7,2.2,1.1
		C881.6,104,882.2,103.9,882.9,103.9z"/>
	<path fill="#47339B" d="M496.4,381.6c1.5-0.7,2.8-2.3,3.4-4.2c0.6-1.8,0.7-3.9,0.3-6c-0.4-2-1.4-3.6-2.7-4.6c-0.9-0.6-1.8-1-2.8-1
		c-0.2,0-0.4,0.1-0.6,0.1c0.2,6.4,0.8,10.8,0.8,10.8s-0.5,1.7-1.3,5.1C494.3,382.1,495.3,382.1,496.4,381.6z"/>
	<path fill="#47339B" d="M614.8,439.5c0.6,1.5,1.3,3.1,2.1,4.6c0.1,0,0.1-0.1,0.2,0c0.4-0.2,0.9-0.4,1.5-0.7
		c-0.7-1.6-1.4-3.2-2.2-4.8c-0.5-1.2-1-2.4-1.5-3.6c-0.6,0.1-1.2,0.2-1.8,0.3C613.5,436.7,614.2,438.1,614.8,439.5z"/>
	<path fill="#47339B" d="M611.6,431.6c0.6-0.1,1.1-0.3,1.7-0.4c-1.2-3-2.4-6-3.5-9.1c-0.5,0.2-1,0.4-1.5,0.6
		C609.3,425.7,610.4,428.6,611.6,431.6z"/>
	<path fill="#47339B" d="M632.5,469.1c-1.2-2-2.5-4.1-3.6-6.1c-0.6,0.4-1.2,0.8-1.8,1.1c1.1,2.1,2.4,4.1,3.6,6.2
		C631.3,470,631.8,469.6,632.5,469.1z"/>
	<path fill="#47339B" d="M583.4,343.2c0.1,0.7,0.3,1.3,0.5,1.9c0.6,0.1,1.1,0.2,1.7,0.3c-0.5-2.5-1-5-1.5-7.5
		c-0.6,0-1.1-0.1-1.7-0.2C582.7,339.5,583,341.4,583.4,343.2z"/>
	<path fill="#47339B" d="M581.7,333.4c0.6,0.1,1.1,0.1,1.7,0.2c-0.6-3.2-1.1-6.4-1.6-9.6c-0.6-0.1-1.1-0.2-1.7-0.3
		C580.6,327,581.1,330.2,581.7,333.4z"/>
	<path fill="#47339B" d="M587,351.6c-0.1-0.5-0.2-1.1-0.4-1.6c-0.6-0.3-1.2-0.5-1.8-0.6c0.5,2.2,1,4.3,1.5,6.4
		c0.3-0.1,0.6-0.1,0.9-0.1l0,0L587,351.6z"/>
	<path fill="#47339B" d="M608.4,418.5c-0.7-2.3-1.5-4.6-2.3-6.9c-0.1-0.4-0.3-0.9-0.4-1.3c-0.5,0.1-1,0.1-1.5,0.2
		c0.9,2.9,1.8,5.8,2.8,8.7C607.5,419,607.9,418.7,608.4,418.5z"/>
	<path fill="#583688" d="M602.6,208.1c0.1,0,0.2,0,0.3,0c0.1-0.2,0.1-0.5,0.2-0.7C602.9,207.6,602.8,207.8,602.6,208.1z"/>
	<path fill="#583688" d="M593.8,223.2c-0.8,1.8-1.4,3.6-2.1,5.4c0.5,0,1.1,0,1.7,0.1c0.5-1.8,1.2-3.6,2-5.4c-0.5,0-0.9,0-1.4-0.1
		C593.9,223.2,593.9,223.2,593.8,223.2z"/>
	<path fill="#583688" d="M595.7,219.5c0,0,0.1,0,0.2,0c0.5,0.1,0.9,0.1,1.4,0.1c0.4-0.8,0.8-1.6,1.3-2.4c1-1.8,2.1-3.6,3.2-5.3
		c-0.6,0.1-1.3,0.1-2,0.2C598.2,214.5,596.9,217,595.7,219.5z"/>
	<path fill="#583688" d="M606,189.7c-5.9,7.2-10.9,15-14.9,23.4c-0.7,1.6-1.4,3.3-2.2,4.9c0,0,0,0,0-0.1c0,0,0,0,0,0.1
		c0.4,1.2,1,2.3,1.6,3.3c1-2.6,2.2-5.1,3.3-7.6c4-8.1,8.8-15.7,14.7-22.6c1.2-1.5,2.6-3,4-4.4c-0.9,0.1-1.8,0.3-2.9,0.5
		c-0.4,0.1-0.8,0.2-1.2,0.4c-0.1,0-0.3,0.1-0.4,0.1c-0.4,0.3-0.7,0.6-1.1,0.8C606.7,188.9,606.4,189.3,606,189.7z"/>
	<path fill="#583688" d="M595.2,199.7c0.6-0.3,1.2-0.5,1.8-0.6c1.2-1.8,2.5-3.6,3.7-5.2c-0.2,0.1-0.4,0.1-0.5,0.2
		c-0.9,0.7-1.7,1.5-2.6,2.3C596.7,197.5,596,198.6,595.2,199.7z"/>
	<path fill="#583688" d="M618.7,187.3c-1.8,2.1-3.8,4.4-5.5,6.6c0.8-0.2,1.5-0.5,2.4-0.7c1.8-2.2,3.8-4.4,5.8-6.5
		c-0.3,0-0.6-0.1-0.8-0.1c-0.2,0.1-0.4,0.1-0.5,0.2c0.1,0,0.3,0,0.4,0C619.7,186.9,619.2,187.1,618.7,187.3z"/>
	<path fill="#583688" d="M629.6,177l-3,3.7h0.1c0.1-0.1,0.1-0.1,0.2-0.2L629.6,177L629.6,177z"/>
	<path fill="#583688" d="M591.6,236.9c0.3-1.5,0.6-3,0.9-4.4c-0.6-0.1-1.2-0.1-1.8-0.2c-0.3,1.3-0.6,2.6-0.9,4l1.7,0.9l0,0l0,0
		C591.5,237.1,591.5,237,591.6,236.9z"/>
	<path fill="#583688" d="M586.4,234.5c0.4-1.7,0.8-3.3,1.3-5l-3.2,4L586.4,234.5z"/>
	<path fill="#583688" d="M588,213.8c0,0.1,0,0.3,0.1,0.4c0,0,0-0.1,0.1-0.1C588.1,214,588.1,213.9,588,213.8L588,213.8z"/>
	<path fill="#583688" d="M606.8,202.1c0.7-0.5,1.4-1,2.3-1.4c0.2-0.1,0.5-0.2,0.7-0.3c0.4-0.7,0.9-1.3,1.3-1.9
		c-0.7,0.2-1.4,0.4-2.2,0.6C608.2,200,607.5,201.1,606.8,202.1z"/>
	<path fill="#583688" d="M494.8,393.7l2.2,9.6l7.8-3.5l-2.3-9.7c1.8-1.8,3.3-4.3,4.4-7.2c1.7-4.7,2.1-10.1,0.9-15.1
		s-3.6-9.2-6.9-11.6c-2.1-1.5-4.2-2.3-6.5-2.2l-0.1-0.8l-0.1-0.3c-0.4,4.7-0.5,9.2-0.4,13h0.1c0.2,0,0.4-0.1,0.6-0.1
		c0.9,0,1.8,0.4,2.8,1c1.2,1,2.3,2.6,2.7,4.6c0.4,2.1,0.3,4.2-0.3,6c-0.6,1.9-1.8,3.5-3.4,4.2c-1,0.5-2.1,0.5-2.9,0.2c0,0,0,0-0.1,0
		c-0.7,2.7-1.5,6.4-2.6,11.1l0,0C492,393.4,493.4,393.7,494.8,393.7L494.8,393.7z"/>
	<path fill="#583688" d="M587.2,355.7L587.2,355.7c0.1,0,0.3,0,0.4,0c0.1,0,0.2,0,0.3,0c-0.3-1.4-0.6-2.7-0.9-4.1L587.2,355.7z"/>
	<path fill="#583688" d="M599.4,391.1c-0.8-2-1.6-4-2.4-5.9c-0.3,0.4-0.6,0.8-0.9,1.2c0,0,0,0,0,0.1l0.1-0.1c0.6,1.7,1.2,3.4,2,5.1
		h0.1c0.4-0.1,0.8-0.1,1.2-0.1l0,0C599.5,391.3,599.4,391.2,599.4,391.1z"/>
	<path fill="#583688" d="M604.9,392.2c0.6-1.3,1-2.8,1.4-4.3c-3.8-10.6-6.9-21.3-9.6-32.3c-0.3-0.2-0.6-0.3-0.9-0.5l-0.3-4.7
		c-0.6-2.4-1.1-4.8-1.6-7.3l-3,0.2c0,0,0,0,0,0.1h0.1C594.6,360,598.9,376.3,604.9,392.2z"/>
	<path fill="#583688" d="M599.4,394.6C599.1,394.5,599.5,394.8,599.4,394.6L599.4,394.6z"/>
	<path fill="#583688" d="M600.6,398.6L600.6,398.6c0.4-0.3,0.7-0.7,1.1-1.1c-0.2-0.7-0.4-1.3-0.6-1.9c-0.5-0.1-0.8-0.2-1.3-0.2
		C600,396.5,600.3,397.5,600.6,398.6L600.6,398.6z"/>
	<path fill="#583688" d="M590.5,367.8c0.2,0,0.5-0.1,0.8-0.1c-0.8-2.6-1.5-5.3-2.3-8c-0.3,0-0.7-0.1-1-0.1c-0.2,0-0.4,0-0.6,0
		c0.7,2.8,1.5,5.6,2.4,8.3C590,367.8,590.2,367.8,590.5,367.8z"/>
	<path fill="#583688" d="M560.4,273.3c0-1.4,0.1-3,0.2-4.6l-3.4-4.2l-9.4,4.9l6.6,8.1c-1.8,2-3.1,4.5-3.4,7.3
		c-0.6,4.6,0.9,9.4,4.3,13.7c2.2,2.7,4.8,4.8,7.8,6.4c-0.3-2.2-0.6-4.7-0.9-7.3C561.3,290.2,560.2,281.5,560.4,273.3z"/>
	<path fill="#583688" d="M577.9,307.3c0.5,0.1,1,0.1,1.6,0.3c-0.3-2.1-0.5-4.2-0.7-6.3c-0.6,0.1-1,0.1-1.5,0.2
		C577.5,303.4,577.7,305.4,577.9,307.3z"/>
	<path fill="#583688" d="M590.1,298.4c0.1,0.5,0.1,1,0.2,1.6c0.3-0.6,0.5-1.2,0.7-1.9C590.7,298.2,590.4,298.3,590.1,298.4z"/>
	<path fill="#583688" d="M576.9,298.3c0.6-0.1,1-0.2,1.5-0.3c-0.1-0.8-0.1-1.7-0.2-2.5c0,0,0,0,0-0.1c-0.3-3-0.6-6.1-0.8-9.1l0,0
		c0-0.1,0-0.1,0-0.1c-0.5-0.1-1.1-0.1-1.7-0.2C576.1,290.1,576.5,294.2,576.9,298.3z"/>
	<path fill="#583688" d="M580.5,286.2c0.9,9.9,2.7,19.7,4.6,29.5l0.2,0.3l2.5-1.3c-2.4-12.3-4.4-24.7-5.2-37.1
		c-0.9-0.7-1.8-1.2-2.8-1.8c0.1,2.1,0.2,4.3,0.3,6.4c0.1,1.2,0.2,2.3,0.3,3.5C580.5,285.9,580.5,286,580.5,286.2z"/>
	<path fill="#583688" d="M589.8,295c0.5-0.2,1.1-0.4,1.7-0.6c-0.1-1.5-0.3-2.9-0.4-4.4c0-0.3-0.1-0.7-0.1-1
		c-0.5-1.6-1.2-3.3-2.3-4.8C589,287.8,589.4,291.4,589.8,295z"/>
	<path fill="#583688" d="M576.9,281c-0.2-2.3-0.4-4.5-0.5-6.8c0.1,0,0.1,0,0.2,0.1c0,0,0,0,0-0.1c-0.6-0.3-1.3-0.5-2-0.7
		c0.2,3,0.4,5.9,0.7,8.9c0.6,0,1.1-0.1,1.7-0.1C577,281.9,576.9,281.4,576.9,281z"/>
	<path fill="#583688" d="M596.3,324.7c-0.1,0-0.1,0-0.2,0c0.1,0.1,0.2,0.2,0.2,0.3C596.4,324.9,596.3,324.8,596.3,324.7z"/>
	<path fill="#583688" d="M599.5,339.2c-0.6,0-1.3,0.1-2,0.1c0.3,1,0.5,2.1,0.8,3.2l2.2,0.8C600.2,341.9,599.8,340.5,599.5,339.2z"/>
	<path fill="#583688" d="M591.2,306.4c0.1,0.5,0.1,0.9,0.2,1.4c0.6-0.1,1.2-0.2,1.8-0.3c-0.4-2-0.6-3.8-0.8-5.8
		C591.8,303.3,591.4,304.9,591.2,306.4z"/>
	<path fill="#583688" d="M593.9,311.4c-0.6,0.1-1.2,0.2-1.8,0.3c0.5,3.1,1,6.2,1.6,9.1l0.1,0.1c0.6,0,1.2-0.1,1.8-0.2
		C595,317.7,594.4,314.5,593.9,311.4z"/>
	<path fill="#583688" d="M567.2,522.6c-3-6.3-3.7-16.3-6.4-29l-5.4-0.8l-1.8,11.6c-3.1,0.6-6,2.1-8.6,4.5c-1.2,1.1-2.4,2.4-3.4,3.8
		c6.1,16.7,11.7,33.4,15.1,43.5l1.1-6.9c7.7-1.6,14.3-8.7,16.3-18C571.1,528.4,568.6,525.3,567.2,522.6z M563.3,527.9
		c-0.4,2.5-1.5,4.6-3.1,6.1s-3.8,2.4-6.1,2c-2.1-0.3-3.8-1.6-4.9-3.5c0-0.1-0.1-0.1-0.1-0.2c-1.1-1.9-1.4-4.3-1.1-6.7
		c0.4-2.4,1.5-4.5,3.2-6.1l0.1-0.1c1.7-1.5,3.8-2.2,5.9-1.9c2.2,0.3,4,1.7,5,3.7C563.2,523.1,563.7,525.5,563.3,527.9z"/>
	<path fill="#6241CE" d="M606.5,188.8c-2.3,1.7-4.6,3.6-6.7,5.4c0.5-0.4,0.9-0.8,1.4-1.2C603,191.5,604.7,190.2,606.5,188.8z"/>
	<path fill="#6241CE" d="M615.6,471.9c-0.8-2.2-2.1-3.9-3.6-4.6c-0.6-0.3-1.2-0.4-1.8-0.4c-0.9,0.1-1.7,0.5-2.6,1.2l-0.1,0.1
		c-1.2,1.2-2.2,3.2-2.5,5.6c-0.4,2.4-0.1,4.9,0.6,7.1c0.1,0.1,0.1,0.1,0.1,0.2c0.4,1.1,0.9,2.1,1.5,2.9c0.6,0.7,1.3,1.3,2.1,1.7
		c1.5,0.7,3.1,0.4,4.4-0.8l0.1-0.1c1.2-1.2,2.2-3.2,2.5-5.6s0.1-4.9-0.6-7.1C615.6,472,615.6,472,615.6,471.9z"/>
	<path fill="#6241CE" d="M539,375.6c1.4,0.7,2.9,0.5,4.1-0.5c1.2-0.9,2.2-2.4,2.7-4.3c0.5-1.8,0.4-3.8-0.2-5.5c0-0.1,0-0.1,0-0.2
		c-0.5-1.8-1.5-3.2-2.9-3.8c-1.3-0.7-2.8-0.5-4,0.4l-0.1,0.1c-1.2,0.9-2.2,2.4-2.7,4.3c-0.4,1.9-0.4,3.9,0.1,5.6
		C536.5,373.5,537.5,374.9,539,375.6z"/>
	<path fill="#6241CE" d="M559.4,442.2c0.2,2,0.9,4,2.1,5.8s2.5,3,3.7,3.6c1.3,0.6,2.7,0.4,3.5-0.7s1.1-2.9,0.9-5
		c-0.2-1.9-0.9-4-2.1-5.8c-1-1.8-2.4-3-3.7-3.6c0-0.1-0.1-0.1-0.1-0.1c-0.8-0.3-1.5-0.3-2.2-0.1c-0.5,0.2-0.9,0.5-1.2,0.9
		c-0.8,1.1-1.1,2.8-0.9,4.8C559.4,442.1,559.4,442.1,559.4,442.2z"/>
	<path fill="#6241CE" d="M524.1,368.3c0,0-0.2,6.5,4.4,28c4.6,21.5,19.5,57.7,27.2,79.2c2.4,6.5,3.9,12.6,5.1,18.1
		c2.8,12.7,3.4,22.6,6.4,29c1.3,2.7,3.9,5.8,6.9,8.7c2.4,2.3,5,4.5,7.5,6.5c6.1-9.3,13.4-18.7,22.6-28.9l-2.5-1.2l1.6-11.5
		c-2.1-2-3.7-4.9-4.9-8.3c-2-5.5-2.6-11.9-1.7-17.9c0.9-6,3.2-11,6.4-14c2-1.9,4.2-2.9,6.5-2.9l1.6-11.5l8.2,3.9l-0.3,1.9
		c0.3-0.1,0.6-0.3,1-0.4c0.1,0,0.1-0.1,0.2-0.1c2.1,4.2,4.3,8.4,6.6,12.5c-0.5,0.5-1.1,0.9-1.6,1.2c-2.3-3.9-4.3-8-6.3-12.2
		l-1.2,8.6c2.1,2,3.7,4.9,4.9,8.3c2.1,5.5,2.7,11.9,1.8,17.9c-0.4,2.4-0.9,4.6-1.6,6.5c3.9-3.8,8-7.7,12.4-11.8
		c-0.4-0.6-0.8-1.2-1.2-1.9c-0.5-0.9-1.1-1.8-1.6-2.6c0.6-0.4,1.2-0.8,1.8-1.1c0.5,0.9,1.1,1.8,1.6,2.7c0.3,0.5,0.6,0.9,0.9,1.4
		c1.1-1,2.2-2,3.3-3c-7.5-10.3-13.5-21.6-18.4-33.2c-3.2-7.6-6-15.4-8.6-23.2c-2.1-6.2-4.8-12.7-6.2-19.2c-0.7-1.8-1.4-3.6-2.2-5.4
		c-0.8,1.9-2,3.7-3.1,5.1c-0.2-0.7-0.4-1.3-0.6-1.9c-0.5-0.1-0.9-0.2-1.4-0.2l0,0c0.5,0,0.8,0.1,1.3,0.2c0.2,0.6,0.4,1.3,0.6,1.9
		c0.9,2.9,2,6.1,3,9c-0.5,0.1-1,0.1-1.5,0.2c-0.8-2.7-1.6-5.4-2.5-8l0,0c-0.6,0.6-1.3,1.1-2.1,1.5l0.7,12l-8.3,0.7l-0.7-12
		c-6.1-2.7-10.9-11.4-11.5-21.9c-0.4-6.3,0.7-12.3,3.2-16.9c1.4-2.8,3.4-4.9,5.4-6.1c0.1,0,0.3,0,0.5,0c0.1,0,0.2,0,0.3,0
		c-0.3-1.5-0.7-2.9-1-4.4l-0.5-7.7l4.3-0.3c0,0,0,0,0-0.1c-1.2-5.8-2.5-11.6-3.6-17.4c-0.7-3.4-1.4-6.7-2.1-10.1l-6.4-7.9
		c-5,0.8-10.7-0.3-15.7-3c0.4,3.1,0.6,5.7,0.7,7.6c0.2,7,2.1,12.6-6.9-3.4c-5.2-9.5-12.6-29.7-17.7-44.4c-0.1-0.2-0.1-0.3-0.2-0.5
		c-8,8.1-14.8,17.8-19.4,25.6c-2.1,3.5-3.8,6.8-5.3,10c0,0.3,0,0.5,0,0.8c0.9,26.1,2.2,39.3,3.6,45.9
		C520.2,356.6,524.1,368.3,524.1,368.3z M628.9,463c1.1,2,2.4,4.1,3.6,6.1c-0.7,0.5-1.2,0.9-1.8,1.2c-1.2-2.1-2.5-4.1-3.6-6.2
		C627.7,463.8,628.3,463.4,628.9,463z M616.4,438.6c0.7,1.6,1.4,3.2,2.2,4.8c-0.6,0.3-1.1,0.5-1.5,0.7c-0.1-0.1-0.1,0-0.2,0
		c-0.7-1.5-1.4-3.1-2.1-4.6c-0.6-1.4-1.2-2.8-1.7-4.2c0.6-0.1,1.2-0.2,1.8-0.3C615.4,436.2,615.9,437.4,616.4,438.6z M613.3,431.2
		c-0.6,0.1-1.1,0.3-1.7,0.4c-1.2-3-2.3-5.9-3.3-8.9c0.5-0.2,1-0.4,1.5-0.6C611,425.2,612.1,428.2,613.3,431.2z M605.7,410.3
		c0.1,0.4,0.3,0.9,0.4,1.3c0.7,2.3,1.5,4.6,2.3,6.9c-0.5,0.2-0.9,0.5-1.4,0.7c-0.9-2.9-1.8-5.8-2.8-8.7
		C604.7,410.4,605.2,410.4,605.7,410.3z M574.4,529.6c-0.1,0.6-0.2,1.1-0.3,1.6c-2.9-2.9-5.4-5.8-6.7-8.5c-3-6.3-3.6-16.3-6.4-29
		l5.4,0.8l-1.8,11.5C571.8,510,576.1,519.5,574.4,529.6z M588,355.7c-0.1,0-0.2,0-0.3,0s-0.3,0-0.4,0c-0.3,0-0.6,0-0.9,0.1
		c-0.5-2.1-1-4.2-1.5-6.4c0.6,0.1,1.2,0.3,1.8,0.6c0.1,0.5,0.2,1.1,0.4,1.6C587.4,353,587.7,354.3,588,355.7z M585.7,345.4
		c-0.6-0.1-1.1-0.2-1.7-0.3c-0.2-0.6-0.4-1.2-0.5-1.9c-0.4-1.8-0.7-3.7-1-5.5c0.6,0.1,1.1,0.2,1.7,0.2
		C584.7,340.4,585.2,342.9,585.7,345.4z M583.4,333.6c-0.6-0.1-1.1-0.1-1.7-0.2c-0.6-3.2-1.1-6.4-1.6-9.7c0.6,0.1,1.1,0.2,1.7,0.3
		C582.3,327.2,582.8,330.4,583.4,333.6z M579.9,310.2c0.4,3.4,0.9,6.8,1.3,10.2c-0.5,0-1.1-0.1-1.6-0.1c-0.5-3.5-1-7.1-1.4-10.7
		C578.7,309.8,579.2,310,579.9,310.2z M562.4,425.4c3.4,1.4,6.7,4.5,9.4,9c4.6,7.5,6.4,16.7,4.7,22.6l5.2,8.5l-4.3,5.7l-5.2-8.5
		c-0.1,0-0.2,0.1-0.3,0.1c-4.3,1.6-10.3-1.9-14.8-9.2c-2.8-4.4-4.6-9.6-5.1-14.6c-0.3-3.1-0.1-5.8,0.5-8.1l-5.2-8.5l4.3-5.7l5.2,8.5
		C558.4,424.5,560.3,424.6,562.4,425.4z M541.7,349.9l2.4-9l7.1,3.4l-2.4,9c1.6,1.8,3,4.1,3.8,6.8c1.4,4.4,1.5,9.4,0.2,14.1
		c-1.1,4.7-3.6,8.6-6.7,10.8c-2,1.4-4,2.1-6.1,2l-2.4,9l-7.1-3.4l2.4-9c-4.2-4.6-6.1-13-4-20.9c1.1-4.7,3.6-8.6,6.7-10.8
		C537.5,350.5,539.6,349.8,541.7,349.9z"/>
	<path fill="#6241CE" d="M611.6,500.1l-0.1,1.1c0.4-0.4,0.7-0.7,1.1-1.1c-0.2,0-0.4,0.1-0.6,0.1
		C611.8,500.1,611.7,500.1,611.6,500.1z"/>
	<path fill="#6241CE" d="M600.7,193.9C600.7,193.8,600.7,193.8,600.7,193.9c-0.3,0-0.6,0.2-0.9,0.3c0.1,0,0.2-0.1,0.4-0.2
		C600.3,194,600.5,193.9,600.7,193.9z"/>
	<path fill="#6241CE" d="M590.5,367.8c-0.2,0-0.5,0.1-0.8,0.1c-0.8-2.7-1.6-5.5-2.4-8.3l0,0c0.7,2.8,1.5,5.6,2.4,8.3
		C590,367.8,590.2,367.8,590.5,367.8z"/>
	<path fill="#6241CE" d="M597.1,385.1c0.1-0.3,0.3-0.5,0.4-0.8c0.9-1.8,1.4-4.1,1.2-6.7c-0.2-2.5-0.9-4.8-2.1-6.5
		c0-0.1-0.1-0.1-0.1-0.2c-1.2-1.8-2.8-2.7-4.3-2.6s-3,1.2-4,3.1c0,0.1-0.1,0.1-0.1,0.2c-0.9,1.8-1.3,4.2-1.2,6.7
		c0.2,2.5,0.9,4.8,2.1,6.5c1.2,1.7,2.8,2.8,4.6,2.7c0.9,0,1.7-0.5,2.5-1.1c0,0,0,0,0-0.1c-0.5-1.2-0.9-2.4-1.4-3.6
		c0.5-0.1,1-0.1,1.4-0.1C596.4,383.4,596.7,384.3,597.1,385.1c0.6,2,1.4,4,2.3,6c0,0.1,0.1,0.2,0.1,0.2l0,0h0.1c0,0-0.1-0.1-0.1-0.2
		C598.6,389.1,597.8,387.1,597.1,385.1z M593.4,379c-0.8-2.3-1.6-4.6-2.4-7c0.5-0.1,1-0.2,1.4-0.3c0.7,2.4,1.5,4.8,2.4,7.1
		C594.3,378.8,593.9,378.9,593.4,379z"/>
	<path fill="#6241CE" d="M598.1,391.4L598.1,391.4C598.2,391.4,598.1,391.4,598.1,391.4L598.1,391.4z"/>
	<path fill="#6241CE" d="M579.6,292.3c0.2-1.7-0.3-3.7-1.7-5.4c-0.2-0.2-0.3-0.4-0.5-0.6c0.2,3.1,0.5,6.1,0.8,9.1
		C579,294.6,579.5,293.5,579.6,292.3z"/>
	<path fill="#6241CE" d="M579.6,307.6c-0.3-2.1-0.5-4.2-0.7-6.3h-0.1C579,303.4,579.2,305.5,579.6,307.6L579.6,307.6z"/>
	<path fill="#6241CE" d="M570.2,297.2c2.3,0.6,4.5,0.6,6.3-0.4l0.1-0.1c0.1,0.5,0.1,1.1,0.2,1.6h0.1c-0.4-4.1-0.8-8.2-1.2-12.3
		c0.6,0.1,1.2,0.1,1.7,0.2v-0.1c-0.1,0-0.1,0-0.2,0c-1.3-1.4-3-2.3-4.7-2.8c-2.2-0.6-4.5-0.6-6.4,0.4s-2.9,2.6-3.1,4.5
		c-0.2,1.7,0.3,3.7,1.7,5.4C566.2,295.4,568.1,296.6,570.2,297.2z"/>
	<path fill="#6241CE" d="M580.5,286.2c0-0.1,0-0.3,0-0.4C580.5,285.9,580.5,286,580.5,286.2z"/>
	<path fill="#6241CE" d="M562.2,297.6c-0.9-7.4-1.8-16.1-1.7-24.3C560.2,281.5,561.3,290.2,562.2,297.6z"/>
	<path fill="#6241CE" d="M560.4,273.3c0.1-1.4,0.1-3,0.2-4.6l3.1,3.9c3.1-0.5,6.4-0.3,9.8,0.6c0.3,0.1,0.6,0.2,0.9,0.3
		c0.2,3,0.4,5.9,0.7,8.9h0.1c-0.2-3-0.5-5.9-0.7-8.9c0-0.6-0.1-1.2-0.1-1.8c0.7,0.5,1.4,1.1,2.1,1.6c0,0.3,0,0.6,0.1,0.9
		c0,0,0,0,0,0.1c1.1,0.4,2.3,1,3.3,1.5c0.1,2.2,0.2,4.3,0.3,6.4c-0.1-2.1-0.2-4.3-0.3-6.4c-0.1-5.4,0.1-10.8,0.7-16.2
		c0.5-14.3,2.9-28.2,8.4-41.6c0,0,0,0,0-0.1c-0.4-1.2-0.7-2.5-0.9-3.8c0,0,0,0.1-0.1,0.1c-0.8,1.5-1.5,3.1-2.4,4.7c-0.5,0-1,0-1.5,0
		c0.7-1.6,1.5-3.2,2.5-4.8c0.5-0.1,0.9-0.2,1.4-0.3c0,0,0,0,0.1,0c-0.3-3.1,0-6.3,1.2-9.5c0.6-0.6,1.1-1.2,1.7-1.8
		c0.2-0.2,0.3-0.3,0.5-0.5c1-1.1,2.2-2.1,3.2-3.1c0.5-0.5,1.1-1,1.6-1.5s1-1,1.4-1.4c-0.9,1.3-1.8,2.5-2.7,3.8c0,0,0.1,0,0.1-0.1
		c0.8-1.1,1.5-2.3,2.4-3.4c0.1-0.1,0.2-0.3,0.3-0.4c-2.5,2.1-4.7,4.3-7,6.6c-13.7,13.9-21.8,27-26.4,35.9c-0.1,0.4-0.1,0.8-0.2,1.1
		c-2.2,11.2-3.2,21.4-3.6,29.1C560.5,270.3,560.4,271.9,560.4,273.3z M574.3,269.1c-0.2-2.5-0.2-5-0.2-7.5c0.7,0.4,1.3,0.8,2.1,1.2
		c0,2.6,0.1,5.1,0.2,7.7C575.7,270,575,269.5,574.3,269.1z M574,259.5c0.1-1.8,0.2-3.8,0.3-5.7c0.6,0.4,1.3,0.7,2,1.1
		c-0.1,1.8-0.2,3.6-0.2,5.4C575.4,260,574.7,259.8,574,259.5z M574.5,251.5c0.3-3.7,0.9-7.2,1.7-10.7c0.6,0.1,1.1,0.2,1.7,0.4
		c-0.7,3.7-1.2,7.4-1.5,11.2C575.8,252.1,575.1,251.8,574.5,251.5z M578.6,237.9c-0.6,0-1.1-0.1-1.7-0.1c0.7-2.2,1.3-4.4,2.1-6.6
		c0.5,0.1,1,0.1,1.5,0.2C579.8,233.6,579.1,235.7,578.6,237.9z M582.4,226.2c-0.3,0.7-0.5,1.4-0.7,2c-0.5,0-1,0-1.6,0.1
		c0.7-2,1.5-4.1,2.5-6.1c0.2,0,0.4,0,0.5,0c0.3,0,0.6,0,1,0C583.4,223.5,582.9,224.8,582.4,226.2z"/>
	<path fill="#7A44B3" d="M564.7,506l1.8-11.5l-5.4-0.8c2.8,12.7,3.4,22.7,6.4,29c1.2,2.7,3.8,5.6,6.7,8.5c0.1-0.5,0.2-1,0.3-1.6
		C576.1,519.5,571.8,510,564.7,506z"/>
	<path fill="#6241CE" d="M840.1,91.5c0.7-0.2,1.4-0.3,2.2-0.5C841.5,91.2,840.8,91.3,840.1,91.5z"/>
	<path fill="#6241CE" d="M845.3,90.4c-0.6,0.1-1.3,0.3-2.1,0.4C844,90.7,844.7,90.5,845.3,90.4L845.3,90.4z"/>
	<path fill="#6241CE" d="M822.4,359.5c-1.7-1.8-4.2-3.1-7.1-3.3c-0.2,0-0.5,0-0.7,0c-2.6,0-4.9,0.9-6.8,2.4
		c-2.2,1.8-3.6,4.4-3.8,7.3s0.8,5.7,2.8,7.7c0.1,0.2,0.3,0.3,0.5,0.5c5.9-2,11.7-4,17.8-5.7c0.1-0.4,0.1-0.7,0.1-1.1
		C825.4,364.3,824.3,361.5,822.4,359.5z"/>
	<path fill="#6241CE" d="M853.5,190.8c2.6,0.9,5.4,0.7,8-0.4c0.1,0,0.1-0.1,0.2-0.1c1.2-0.6,2.4-1.4,3.3-2.4c0.9-1,1.6-2.2,2.1-3.5
		c0.9-2.6,0.7-5.4-0.5-7.9c0-0.1-0.1-0.1-0.1-0.2c-1.2-2.3-3.4-4.1-6-5c-1.2-0.4-2.4-0.6-3.5-0.6c-1.5,0-3.1,0.4-4.4,1
		c-2.6,1.1-4.6,3.2-5.6,6s-0.7,5.7,0.6,8.1C848.8,188,850.9,189.9,853.5,190.8z"/>
	<path fill="#6241CE" d="M736.3,261.9c1,2.6,3.1,4.5,5.8,5.6c2.9,1.2,5.9,1,8.4-0.1c2.5-1,4.5-2.9,5.5-5.5c1-2.5,1.1-5.2,0-7.7
		c-0.1,0-0.1-0.1-0.1-0.2c-1-2.6-3.1-4.6-5.8-5.6c-1.3-0.6-2.7-0.8-4-0.8c-1.4,0-3,0.3-4.3,0.9c-2.5,1-4.4,2.9-5.5,5.5
		c-1.1,2.5-1.1,5.2-0.1,7.7C736.2,261.8,736.3,261.8,736.3,261.9z"/>
	<path fill="#6241CE" d="M884.7,271.5c-0.8-1.2-1.8-2.2-3.1-3c-1.8-1.2-3.8-1.7-5.9-1.7c-0.8,0-1.6,0.1-2.5,0.3
		c-2.6,0.6-4.9,2.1-6.5,4.4c-1.5,2.2-2.1,4.9-1.5,7.5c0,0,0,0.1,0,0.2c0.6,2.8,2.3,5.1,4.6,6.6c2.5,1.6,5.4,2,8.2,1.4
		c2.6-0.6,4.9-2.1,6.5-4.4c1.5-2.4,2.1-5.1,1.6-7.5C886,274,885.5,272.7,884.7,271.5z"/>
	<path fill="#6241CE" d="M992.7,299.3c-1.8-1.4-4.2-2.2-6.6-2.2c-0.3,0-0.7,0.1-1,0.1c0,0-0.1,0-0.2,0c-2.8,0.4-5.3,1.7-7.1,3.9
		c-1.8,2.3-2.6,5.2-2.2,7.9c0.3,2.6,1.6,5,3.9,6.7c2.2,1.6,4.9,2.4,7.5,2c0,0,0.1,0,0.2,0c1.4-0.1,2.8-0.5,4-1.2
		c1.2-0.6,2.3-1.5,3.2-2.6c1.8-2.3,2.6-5.2,2.2-7.9C996.3,303.4,995,301,992.7,299.3z"/>
	<path fill="#6241CE" d="M673.9,423.8c2.1-1.7,3.4-4.1,3.7-6.8c0.3-2.7-0.4-5.4-2.1-7.4c-0.1-0.1-0.1-0.1-0.2-0.2
		c-1.8-2.2-4.3-3.5-7.2-3.8c-3-0.3-5.9,0.6-8,2.4c-2,1.7-3.4,4-3.7,6.8c-0.3,2.7,0.5,5.4,2.2,7.4c0.9,1.1,2,2,3.2,2.7
		s2.6,1.1,4.1,1.3c2.8,0.3,5.6-0.5,7.8-2.2C673.8,423.9,673.8,423.8,673.9,423.8z"/>
	<path fill="#6241CE" d="M613.2,319.3c0.7,0.2,1.4,0.4,2.2,0.5c0.7,0.1,1.4,0.1,2.2,0.1c0.7,0,1.4-0.1,2.1-0.3s1.3-0.4,2-0.7
		c0.9-0.4,1.7-0.9,2.5-1.6c0.2-0.2,0.5-0.4,0.7-0.7c0.9-0.9,1.6-2.1,2.2-3.4c1-2.6,0.9-5.3-0.1-7.7c-1.1-2.5-3.2-4.6-6.1-5.7
		c-2.9-1.1-5.9-0.9-8.4,0.3c-1.4,0.8-2.8,1.8-3.8,3.1c-0.4,0.5-0.8,1.1-1.1,1.7c-0.2,0.3-0.3,0.6-0.4,0.9c-1,2.6-0.9,5.4,0.1,7.7
		C608.3,316.1,610.5,318.2,613.2,319.3z"/>
	<path fill="#6241CE" d="M620.9,212.9c1.6-2.1,2.4-4.4,2.1-6.7c0-0.1,0-0.1,0-0.2c-0.3-2.3-1.7-4.2-3.9-5.4s-4.8-1.5-7.6-0.8
		c0,0-0.1,0.1-0.2,0.1c-0.5,0.1-1,0.3-1.5,0.5c-1.8,2.4-3.7,4.9-5.3,7.5c-0.5,0.1-1,0.1-1.5,0.2c-0.1,0-0.2,0-0.3,0
		c0.2-0.3,0.3-0.5,0.5-0.8c1.2-1.8,2.4-3.5,3.7-5.2c0.7-1,1.5-2.1,2.3-3.1c0.7-0.2,1.4-0.4,2.2-0.6l0,0c-0.7,0.2-1.5,0.4-2.3,0.6
		c-0.7,1-1.5,2.1-2.3,3.1c-1.2,1.6-2.5,3.3-3.6,5c0.2-0.5,0.4-1,0.7-1.5c-0.3,0.5-0.6,1.1-1,1.6c-0.2,0.3-0.4,0.6-0.6,0.9
		c0.1,0,0.3,0,0.4,0c-0.2,0.9-0.2,1.8-0.1,2.7c0.3,2.3,1.6,4.4,4,5.6c2.4,1.2,5.2,1.4,7.9,0.7C616.8,216.4,619.3,215,620.9,212.9z"
		/>
	<path fill="#6241CE" d="M728.5,140.5c-1.8-1.1-4-1.6-6.2-1.6c-0.7,0-1.3,0.1-2.1,0.2c-2.7,0.4-5,1.6-6.7,3.5
		c-1.6,1.9-2.3,4.1-1.7,6.2c0.3,2.3,1.8,4.4,4.3,5.8c2.5,1.4,5.4,1.8,8.2,1.4c2.6-0.4,5-1.6,6.7-3.5c1.6-1.8,2.3-4.1,1.8-6.2
		C732.5,144,730.9,141.9,728.5,140.5z"/>
	<path fill="#6241CE" d="M612.6,186.7c-1.3,1.4-2.7,2.9-4,4.4c-5.9,6.9-10.7,14.5-14.7,22.6c-1.2,2.5-2.3,5-3.3,7.6
		c-1,2.7-2.1,5.4-2.9,8.2c-0.5,1.6-0.9,3.3-1.3,5c-0.4,1.8-0.8,3.6-1.2,5.4c-1.7,8.9-2.1,18.1-2.9,27.1c0,3.5,0.1,7.1,0.3,10.6
		c0.8,12.4,2.9,24.8,5.2,37.1c0.8,4.3,1.7,8.7,2.6,13c1,5.2,2.2,10.4,3.3,15.6c0.5,2.4,1.1,4.8,1.6,7.3c0.4,1.7,0.8,3.4,1.2,5.1
		c2.7,10.9,5.8,21.7,9.6,32.3c1.1,3,2.3,5.9,3.4,8.9c0.1,0.3,0.1,0.5,0.1,0.7c2.4,5.3,3.7,11.1,5.5,16.4c2.5,7.3,5.1,14.7,8,21.9
		c5,12.5,11.3,24.5,19.3,35.3c1.2-1.1,2.6-2.3,3.9-3.4c-0.5-0.8-0.9-1.5-1.4-2.3c0.6-0.4,1.3-0.8,2-1.3c0.4,0.7,0.8,1.3,1.2,2
		c5-4.4,10.3-8.9,15.5-13.2l-8.5-0.9l1.4-12.9c-10.2-4.3-16.8-14.7-15.6-26s10-20.1,20.8-22.2l1.4-12.9l15.3,1.6l-1.4,12.9
		c10.3,4.3,16.9,14.7,15.6,25.9c-0.7,6.8-4.1,12.8-9.6,17.1c-3.3,2.7-7.2,4.4-11.3,5.2l-0.7,6.1c16.5-13.2,33.4-25,48.2-32.5
		c20.6-10.5,45.2-23.6,72.7-34.6c-1.4-2.2-2.5-4.7-3.1-7.3l-13.2-0.9l1-15l13.2,0.9c4-10.1,14.4-17,26.1-16.2
		c11.7,0.7,21.1,8.9,23.6,19.4l12.5,0.9c44.4-10.1,111.7-22.2,154.5-28.4l-6.1-4.7c-3.4,2.3-7.4,3.8-11.7,4.3
		c-1,0.1-2.1,0.2-3.1,0.2c-5.9,0-11.5-1.9-16.1-5.5c-9.1-7-12.1-18.9-8.1-29l-10.4-8l9.6-11.8l10.5,8c3.4-2.3,7.4-3.8,11.7-4.3
		c6.9-0.8,13.8,1.1,19.2,5.3c1.3,1,2.5,2.1,3.5,3.3c-0.6-2.1-1.2-4.1-1.7-6.1c0.7,0,1.3-0.1,2.1-0.1c1.1,3.7,2.2,7.4,3.2,11.1
		c1.8,3.5,2.9,7.4,2.9,11.3c0.4,1.6,0.7,3.2,1.1,4.7c0,0.1,0,0.1,0,0.2c-0.2,0-0.4,0-0.6,0c-0.3,0-0.6,0-0.9,0.1
		c-0.3,1.5-0.7,3.1-1.3,4.5l1.8,1.4c-0.1-0.6-0.2-1.3-0.3-1.9c0.5,0,1.1-0.1,1.6-0.1c0.2,0,0.4,0,0.6,0c0.3,1.4,0.6,2.8,0.8,4.1
		l5.6,4.4l-4.2,5.3c0.1,0.6,0.1,1.2,0.2,1.9c0.5-0.1,1.1-0.1,1.6-0.2c5.3-0.7,11.4-1.4,18.1-2.1c-5.3-21.6-11-43.3-20.4-63.7
		c0-0.1-0.1-0.2-0.1-0.3c-7.4-15.4-13.7-31.3-20.8-46.8c-1.6-3.5-3.3-7-5-10.4c0,0-0.1,0-0.1,0.1l0,0c-3.3,1.3-6.8,2-10.3,2
		c-1.1,0-2.3-0.1-3.4-0.3c1.4,2.8,2.9,5.5,4.1,8.3c-0.1,0-0.1,0-0.2,0c-0.5,0.1-1.1,0.1-1.6,0.2c-1.4-3-3-6-4.5-9
		c-0.1,0-0.1,0-0.2-0.1c0,0.1,0.1,0.2,0.1,0.3c-1.3-0.3-2.8-0.8-4.1-1.3l-8.4,10l-11.9-9.5l0.1-0.2l0,0l8.3-9.8
		c-4.3-6.5-5.4-14.7-2.9-22l0,0c0-0.1,0-0.2,0.1-0.2c-0.4-0.6-0.7-1.2-1.1-1.7c0.6,0,1.2,0,1.7,0c0.9-2.2,2.3-4.4,3.9-6.3
		c0.9-1,1.8-2,2.9-2.9c-10.4-12.6-21.7-24.8-33.3-36.3c-14.1-14-30.8-22.8-48.5-31.8c-6-3-12-5.9-18.2-8.6c-0.1-0.1-0.2-0.1-0.3-0.2
		c-2.1-0.1-7,0-13.9,1c0.1,0,0.3,0.1,0.4,0.1c1.7,0.5,3.4,0.9,5.1,1.5c-0.8,0.2-1.6,0.4-2.5,0.5c-1.8-0.6-3.8-1-5.6-1.5
		c-0.2,0-0.3-0.1-0.5-0.1c0.6,0.2,1.2,0.3,1.8,0.5c-2.9,1.8-6.1,3.1-9.3,3.7l-1.5,12.9l-15.3-1.7l0.9-8c6.4-2.9,12.5-4.9,18-6.2
		c-7.7,1.9-16.8,5-26.3,10.3c-15.7,8.9-45,17.8-73.5,26.6v0.1c3.3-1,6.6-2,9.9-3.1l0.6,0.3l-7.7,8.8c6.8,7.2,7.4,17.4,0.6,25.1
		c-5.1,5.8-13.1,8.9-21.4,8.9c-2.7,0-5.3-0.3-8-1l-7.7,8.8l-12.5-7.2l7.7-8.8c-4-4.2-5.8-9.6-5.3-14.8c-3.6,1.4-6.5,2.5-7.9,2.9
		c-3.7,0.9-5.5,1-6.5,0.1c-14,5.8-28,12-41.5,19c-0.3,0.3-0.6,0.5-0.9,0.8c-3.2,2.9-6.3,5.8-9.3,8.8l0.1,0.1l-0.1,0.1l11.2,6
		l-7.8,9.8c2.4,2.5,3.9,5.7,4.4,9.2c0.8,5.7-0.9,11.7-5,16.8c-2.8,3.4-6.3,6.2-10.2,8.1c-5.9,2.9-12.5,3.9-18.6,2.7l-7.8,9.9
		l-4.9-2.7l0,0c-0.2,0.9-0.3,1.8-0.4,2.7c-0.6-0.1-1.2-0.3-1.8-0.4c0.1-1.1,0.3-2.2,0.5-3.2c0.3-1.4,0.6-2.7,0.9-4
		c-0.4,1.3-0.7,2.6-1.1,4.2l-3.1-1.7c0.4-1.9,0.9-3.8,1.5-5.6l4.3-5.4c-0.6-0.6-1.1-1.4-1.6-2.1c1-2.6,2.1-5.1,3.3-7.6
		c4-8.1,8.8-15.7,14.7-22.6c1.3-1.6,2.8-3.2,4.2-4.7c2.4-0.3,4.7-0.3,7,0c0.2-0.1,0.4-0.1,0.5-0.2c0.5-0.2,0.9-0.3,1.4-0.5
		c-0.2,0.2-0.4,0.4-0.5,0.6c-2,2.1-3.8,4.3-5.8,6.5c-0.8,0.2-1.5,0.5-2.4,0.7c-0.1,0.1-0.1,0.1-0.2,0.2c0.8-0.2,1.6-0.5,2.5-0.7
		c1.8-2.2,3.7-4.4,5.6-6.5c0.2,0,0.4,0.1,0.6,0.1l4.7-5.9c0.1-0.1,0.1-0.1,0.2-0.1l0.1-0.1c-0.1,0.1-0.1,0.1-0.2,0.1l0.4-0.5
		c-0.1,0.1-0.1,0.1-0.2,0.2h-0.1c-1,0.3-2.1,0.7-3.1,1c3.3-3.5,6.8-7,10.3-10.2c0.3-0.3,0.5-0.5,0.8-0.8c-4.1,2.3-8.1,4.6-12.1,7
		c-0.8,0.7-1.6,1.3-2.6,2c-0.9,0.8-1.8,1.5-2.7,2.3C615.6,183.5,614.1,185.1,612.6,186.7z M1005.1,281.3c-0.7,0.1-1.3,0.1-2.1,0.2
		c-1.1-3.9-2.4-7.8-3.7-11.7c0.6-0.1,1.3-0.2,2-0.2C1002.7,273.5,1003.9,277.4,1005.1,281.3z M1000.1,265.8c-0.6,0.1-1.3,0.2-2,0.3
		c-1.6-4.7-3.3-9.3-5.1-13.9c0.7,0,1.3-0.1,2.1-0.1C996.8,256.6,998.4,261.2,1000.1,265.8z M993.9,249.3c-0.6,0.1-1.3,0.1-2,0.2
		c-0.1-0.4-0.3-0.8-0.5-1.3c-1.6-4.2-3.5-8.5-5.3-12.8c0.6-0.1,1.2-0.2,2-0.3C990.1,239.8,992.1,244.5,993.9,249.3z M981.6,221
		c1.7,3.7,3.5,7.4,5.1,11.1c-0.6,0.1-1.2,0.2-1.8,0.3c-1.6-3.7-3.4-7.5-5.1-11.2C980.4,221.1,981,221.1,981.6,221z M897.4,291
		c-4.9,7.4-13.2,11.4-21.8,11.4c-2.5,0-4.8-0.3-7.2-1l-7.3,10.8l-12.8-8.2l7.3-10.8c-2.6-3.1-4.5-6.9-5.3-11
		c-1.4-6.7-0.1-13.4,3.7-19.1c6.4-9.5,18.3-13.4,29-10.4l7.3-10.8l12.8,8.2l-7.3,10.8C902.8,269.3,903.8,281.5,897.4,291z
		 M917.2,130.8c-2.1-1.9-4.1-3.8-6.2-5.6c0.5-0.2,1-0.3,1.5-0.5c2.2,1.8,4.2,3.7,6.3,5.6C918.2,130.5,917.7,130.6,917.2,130.8z
		 M947.5,163.2c2.2,2.9,4.2,5.9,6.3,8.9c-0.6,0-1.2,0.1-1.7,0.1c-2.1-3-4.2-6-6.4-9C946.3,163.2,946.9,163.2,947.5,163.2z
		 M936.4,149c3.2,3.7,6.2,7.5,9,11.4c-0.6,0.1-1.1,0.1-1.7,0.2c-3-4-6.2-7.9-9.3-11.7C935.1,148.9,935.7,149,936.4,149z
		 M928.5,140.1c1.8,2,3.7,4.1,5.5,6.1c-0.6,0.1-1.2,0.1-1.8,0.2c-1.8-2.1-3.7-4.2-5.5-6.2C927.3,140.2,927.9,140.1,928.5,140.1z
		 M921.6,133c1.5,1.5,3,3,4.4,4.5c-0.6,0.1-1.1,0.2-1.7,0.3c-1.4-1.4-2.8-2.9-4.2-4.3C920.6,133.3,921.1,133.2,921.6,133z
		 M901.7,116.1c0.8,0.6,1.6,1.2,2.5,1.9l1.4-6.7c4.7,2.9,9.2,6.1,13.7,9.5l-1,4.7l-8.6-1.8c-0.1,0-0.1,0-0.2,0.1
		c-0.1-0.1-0.1-0.1-0.2-0.2l-6.1-1.2l0.7-3.1c-1.2-0.9-2.5-1.9-3.7-2.8C900.7,116.4,901.2,116.2,901.7,116.1z M888.7,107.2
		c3.5,2.1,7,4.4,10.3,6.8c-0.5,0.1-1,0.3-1.6,0.4c-3.5-2.5-7.1-4.8-10.7-7C887.3,107.3,887.9,107.3,888.7,107.2z M880.8,102.7
		c0.7,0.4,1.4,0.8,2.2,1.2c-0.7,0-1.3,0.1-2.1,0.2c-0.7-0.4-1.4-0.8-2.2-1.1C879.4,102.9,880,102.8,880.8,102.7z M872,98.4
		c2,0.9,3.9,1.8,5.8,2.8c-0.6,0.1-1.2,0.2-1.8,0.3c-1.8-0.9-3.7-1.8-5.6-2.6C870.9,98.7,871.5,98.6,872,98.4z M868.1,96.7
		c-0.5,0.2-1.1,0.4-1.6,0.6c-2.5-1-4.9-2-7.5-2.8c0.7-0.2,1.4-0.3,2.2-0.5C863.5,94.9,865.9,95.8,868.1,96.7z M823.3,161.8l12.5,4.2
		c6.6-8.7,18.4-12.7,29.5-9c6.6,2.2,11.9,6.8,15,12.9c2,3.7,2.8,7.8,2.7,11.9l12.4,4.2l-5,14.2l-12.5-4.2c-2.4,3.3-5.6,6-9.6,7.8
		c-3.6,1.7-7.5,2.6-11.4,2.6c-2.9,0-5.8-0.5-8.5-1.4c-11-3.7-17.9-14-17.6-24.8l-12.5-4.2L823.3,161.8z M722,248.3
		c4.4-10.5,15.3-16.6,26.4-15.6l5-12l14.3,5.7l-5,12c3.3,2.6,5.9,5.9,7.5,9.8c2.8,6.3,2.8,13.1,0.1,19.3
		c-2.7,6.3-7.7,11.2-14.1,13.8c-3.3,1.3-6.7,2-10.1,2c-0.8,0-1.5,0-2.4-0.1l-5,12l-14.3-5.7l5-12c-3.3-2.6-5.9-5.9-7.5-9.8
		C719.3,261.5,719.3,254.6,722,248.3z M588.1,270.6c0.6,0.2,1.2,0.5,1.8,0.7c0.1,3.1,0.2,6.2,0.4,9.3c-0.6-0.1-1.2-0.2-1.8-0.4
		c0-0.7-0.1-1.3-0.1-2C588.3,275.7,588.1,273.1,588.1,270.6z M594,343.2l1-0.1l0.4,6.5C595,347.5,594.5,345.3,594,343.2z
		 M598.6,335.2c-0.6,0-1.3,0.1-2,0.1c-0.8-3.5-1.6-7-2.3-10.4c0.5-0.1,1.1-0.1,1.7-0.2c0.1,0,0.1,0,0.2,0v-0.1c0,0-0.1,0-0.2,0
		c-0.8-1.1-1.6-2.3-2.3-3.6c0.5,0,1.1-0.1,1.7-0.2c-0.6,0.1-1.2,0.2-1.8,0.2l0,0c0,0,0-0.1,0-0.2c-0.6-3-1.1-6-1.6-9.1
		c0.4,3,1,6,1.4,9.2c-2.2-4.4-3.1-9.5-2.4-14.5c0,0.6,0.1,1.1,0.2,1.7c0.6-0.1,1.2-0.2,1.8-0.3c0-0.1,0-0.2,0-0.3
		c-0.6,0.1-1.2,0.2-1.8,0.3c-0.1-0.5-0.1-0.9-0.2-1.4c-0.3-2.1-0.6-4.3-0.8-6.5c-0.1-0.5-0.1-1-0.2-1.6c0.3-0.1,0.6-0.2,0.9-0.3
		c0.3-0.1,0.5-0.2,0.8-0.3c0.1,1.2,0.3,2.4,0.5,3.6c0.1-0.2,0.2-0.4,0.2-0.6c2.5-6.3,7.3-11.3,13.7-14.1c3.9-1.7,8.1-2.5,12.3-2.2
		l4.7-12.1l14.4,5.3l-4.7,12.1c3.3,2.5,6,5.8,7.7,9.6c2.9,6.2,3.1,13.1,0.6,19.4c-3.6,9.3-12.4,15.3-22,16.2c-1.3,0.1-2.7,0.1-4,0
		l-4.7,12.1l-10.1-3.7c0.8,3.2,1.6,6.4,2.5,9.5c-0.6,0.2-1.2,0.4-1.8,0.5c-0.9-3.6-1.8-7.3-2.8-10.9l-2.2-0.8l4.7-12.1
		c-1.6-1.3-3.1-2.7-4.4-4.4C597.2,328.6,597.8,331.9,598.6,335.2z M606.5,364.6c-0.6,0.2-1.2,0.4-2,0.6c-0.7-2.7-1.5-5.3-2.3-7.9
		c0.6-0.1,1.2-0.3,1.8-0.6c0.5,1.6,0.9,3.3,1.4,4.9C605.8,362.6,606.1,363.6,606.5,364.6z M609.2,380c-0.9-2.8-1.8-5.7-2.8-8.5
		c0.4,1.8,0.6,3.7,0.8,5.6c0.2,3.8-0.1,7.4-0.9,10.7c-3.8-10.5-6.8-21.2-9.4-32c1.8,1,3.6,2.7,5.1,4.9c1.6,2.4,3,5.2,3.8,8.4
		c0.6-0.2,1.1-0.4,1.7-0.6c1.1,3.8,2.4,7.6,3.6,11.3c-0.3,0-0.5,0.1-0.8,0.1C610,380,609.6,380,609.2,380z M615.2,397.1
		c-1.6-4.4-3.2-8.9-4.7-13.3c0.6-0.1,1.3-0.2,2-0.4c1.5,4.4,3.1,8.8,4.7,13.2C616.4,396.8,615.8,397,615.2,397.1z M616.6,400.9
		c0.6-0.2,1.3-0.4,2-0.5c1.4,4,3,7.9,4.5,11.8c-0.6,0.2-1.2,0.4-1.8,0.7C619.6,408.9,618.1,404.9,616.6,400.9z M625,422.3
		c-0.8-1.9-1.5-3.9-2.4-5.8c0.6-0.2,1.2-0.5,2-0.7c1.6,4,3.2,7.9,4.9,11.9c-0.7,0.1-1.4,0.2-2.2,0.4
		C626.6,426.1,625.8,424.2,625,422.3z M628.9,431.9c0.7-0.1,1.4-0.2,2.2-0.4c2.1,4.7,4.1,9.3,6.3,14c-0.6,0.4-1.3,0.7-2,1.1
		C633.2,441.8,631,436.9,628.9,431.9z M645.2,460.7c-0.6,0.5-1.2,0.9-2,1.3c-2.3-3.9-4.3-7.9-6.3-11.9c0.7-0.3,1.3-0.7,2.1-1
		C641,453,642.9,456.9,645.2,460.7z M591,289c0,0.3,0.1,0.7,0.1,1c0.1,1.5,0.3,2.9,0.4,4.4c-0.6,0.2-1.2,0.4-1.7,0.6
		c-0.4-3.6-0.8-7.2-1-10.8c0-0.1,0-0.1,0-0.2c0.6,0.2,1.2,0.3,1.8,0.4C590.7,286,590.8,287.5,591,289z M588.7,243.7
		c0.6,0.1,1.2,0.3,1.8,0.4c-0.4,3.5-0.5,7.1-0.7,10.7c0,0.2,0,0.5,0,0.7c-0.6,0-1.2,0-1.8,0C588.1,251.5,588.3,247.6,588.7,243.7z
		 M587.9,258.8c0.6,0.1,1.2,0.2,1.8,0.3c0,2.6,0,5.3,0,7.9c-0.6-0.2-1.2-0.4-1.8-0.7C587.9,263.8,587.8,261.3,587.9,258.8z"/>
	<path fill="#6241CE" d="M626.8,180.8c1.1-1.1,2.2-2.2,3.3-3.3C629,178.5,627.9,179.7,626.8,180.8z"/>
	<path fill="#6241CE" d="M592.5,232.5c-0.4,1.4-0.7,2.9-0.9,4.4C591.8,235.4,592.1,234,592.5,232.5z"/>
	<path fill="#6241CE" d="M606.7,202.1c-0.6,0.6-1.3,1.2-1.8,1.9C605.4,203.3,606,202.7,606.7,202.1z"/>
	<path fill="#6241CE" d="M981.1,195.2c0.5-0.1,0.9-0.2,1.3-0.2c0.1,0,0.1,0,0.2,0l0,0h0.1c-3.4-5.8-7-11.4-10.9-16.9
		c-0.1,0.1-0.2,0.2-0.3,0.3c-1.8,2.1-2.6,4.8-2.4,7.4c0.2,2.7,1.5,5.4,3.8,7.2c2.1,1.6,4.5,2.4,6.9,2.4c0.3,0,0.7,0,1-0.1
		C981,195.2,981,195.2,981.1,195.2z"/>
	<path fill="#7A44B3" d="M982.6,194.9c-0.1,0-0.1,0-0.2,0c-0.4,0.1-0.9,0.2-1.3,0.2c-0.1,0-0.1,0-0.2,0c-0.3,0-0.7,0.1-1,0.1
		c-2.5,0-5-0.7-7-2.4c-2.4-1.9-3.6-4.5-3.8-7.2c-0.2-2.6,0.6-5.2,2.4-7.4c0.1-0.1,0.2-0.2,0.3-0.3c-1.7-2.4-3.5-4.8-5.3-7.1
		c-1.3-1.7-2.7-3.3-4-5c-0.9,0.9-1.8,1.8-2.8,2.9c-1.6,2-3,4.1-3.9,6.3c2.6,3.9,5.1,7.9,7.5,11.9c-0.6,0-1.2,0-1.8,0
		c-2.1-3.4-4.2-6.8-6.4-10.1l0,0c-2.6,7.3-1.4,15.5,2.9,22l0,0l-8.3,9.8l-0.1,0.2l11.9,9.5l8.4-10c1.3,0.5,2.8,1,4.1,1.3
		c0-0.1-0.1-0.2-0.1-0.3c-0.6-1.1-1.1-2.2-1.7-3.4c0.6,0,1.2,0,1.8-0.1c0.7,1.4,1.4,2.7,2.2,4.1c0.1,0,0.1,0,0.2,0
		c1.1,0.2,2.3,0.3,3.4,0.3c3.5,0,7-0.7,10.3-2l0,0C987.7,203.8,985.2,199.3,982.6,194.9L982.6,194.9z M970.6,203.1
		c-2.4-4.5-4.8-8.9-7.5-13.3c0.6,0,1.2,0.1,1.8,0.1c0.9,1.5,1.7,2.9,2.6,4.4c1.6,2.9,3.3,5.8,4.8,8.7
		C971.7,203,971.1,203.1,970.6,203.1z"/>
	<path fill="#6241CE" d="M1185.9,191.1c0.2,0.1,0.3,0.3,0.5,0.4C1186.2,191.4,1186,191.2,1185.9,191.1z"/>
	<path fill="#6241CE" d="M913.7,112.3c7.7,5.3,14.4,11.7,20.8,18.4c12.7,13.2,25.3,26.9,36.6,41.4c14.8,19.2,24.7,40.7,34.4,62.5
		c2.3-4.4,5.8-7.9,10-10.3c-1.3-2.2-2.6-4.4-3.9-6.6c0.6-0.2,1.3-0.3,2-0.5c2,3.3,4,6.6,6,9.9l0,0c-0.7-1.2-1.4-2.4-2.2-3.6
		c0.9-0.4,2-0.9,3-1.2c4.1-1.3,8.4-1.7,12.5-1l5.9-11.6l13.8,6.6l-5.9,11.6c3.1,2.8,5.4,6.3,6.8,10.3c2.2,6.4,1.7,13.3-1.3,19.4
		c-2.5,4.9-6.4,8.6-10.9,11c1.5,3.3,3.1,6.7,4.5,10c-0.9,0-1.7,0.1-2.6,0.1c-1.3-3-2.7-6.1-4.1-9.2c-3.2,1.4-6.8,2.1-10.4,2.1
		c-1.3,0-2.7-0.1-4-0.3l-1.3,2.5c0.1-0.3,0.1-0.7-0.1-1.1v-0.1v0.1c0.2,0.4,0.2,0.8,0.1,1.1c3.7,8.3,6.8,16.8,9.3,25.6
		c3,9.7,6.1,19.6,8.5,29.6c5.6-0.6,11.7-1.1,18.2-1.7c-1-4.2-2.1-8.4-3.3-12.6c0.8,0,1.7,0,2.6,0c1.2,4.1,2.3,8.2,3.3,12.4
		c46.4-3.9,110-6.8,170.2-4.6c-0.6-7.5-3-20.8-10.1-40c-11.7-31.7-13.6-36.2-22.1-55.4c-2.8-6.1-4.3-11.2-5.3-15.6l-6.7,6.8
		l-11.2-10.4l9.2-9.3c-1.6-2.9-2.7-6.1-3.1-9.4c0.8,0.6,1.6,1.2,2.5,1.8c-6.8-5.4-17.4-11.6-33.8-21.8
		c-18.3-11.3-75.6-36.2-122.7-47.8s-81.5-22.1-108-24.4c-17.9-1.5-34.5-3.3-43.5-4.4c0.2,0.1,0.3,0.2,0.5,0.2
		c3.5,1.7,7,3.5,10.4,5.4C896.9,102.5,905.7,106.8,913.7,112.3z M914.5,110.2c-2.3-1.5-4.5-2.9-6.9-4.3c-1.8-1.1-3.7-2.2-5.5-3.3
		c-1.1-0.6-2.2-1.2-3.3-1.8c0.7,0,1.4-0.1,2.3-0.1c1,0.6,2.1,1.2,3.1,1.8c1.8,1.1,3.8,2.2,5.6,3.3c2.2,1.3,4.3,2.7,6.4,4.1
		C915.7,109.9,915.1,110.1,914.5,110.2z M925.3,117.7c-2.5-1.8-4.9-3.6-7.5-5.3c0.6-0.1,1.1-0.2,1.7-0.3c2.5,1.6,4.8,3.3,7.2,5.1
		C926.2,117.3,925.7,117.5,925.3,117.7z M935.5,125.7c-2.5-2.1-5-4.1-7.6-6c0.5-0.1,1.1-0.3,1.6-0.4c2.6,2,5.1,4,7.6,6
		C936.6,125.4,936.1,125.5,935.5,125.7z M947.7,136.3c-2.9-2.6-5.8-5.2-8.7-7.8c0.6-0.1,1.2-0.2,1.7-0.3c3.1,2.6,6.1,5.3,9,8
		C949.2,136.3,948.4,136.3,947.7,136.3z M958.4,146.8c-2.4-2.4-4.8-4.9-7.3-7.2c0.7,0,1.4,0,2.3,0c2.5,2.4,4.9,4.8,7.3,7.3
		C959.9,146.9,959.2,146.8,958.4,146.8z M970.3,159.8c-2.6-2.9-5.1-5.8-7.7-8.6c0.8,0.1,1.6,0.2,2.5,0.3c2.6,2.7,5,5.5,7.5,8.3
		C971.7,159.8,971,159.8,970.3,159.8z M981.2,173c-2.5-3.2-5-6.3-7.6-9.4c0.7,0.1,1.5,0.1,2.3,0.2c2.6,3.1,5.1,6.2,7.6,9.4
		C982.6,173.1,981.9,173,981.2,173z M992.1,187.5c-2.6-3.6-5.2-7.2-7.9-10.7c0.8,0.1,1.5,0.2,2.4,0.3c2.7,3.5,5.2,7,7.7,10.5
		C993.5,187.6,992.8,187.6,992.1,187.5z M1002,201.1c-0.2,0-0.5,0-0.7,0c-2.2-3.2-4.3-6.5-6.5-9.7c0.7,0,1.4,0.1,2.2,0.1
		c2.2,3.1,4.3,6.2,6.4,9.4C1003,201,1002.4,201,1002,201.1z M1009.5,214.2c-2-3.1-3.8-6.3-5.9-9.4c0.7,0,1.4,0,2.1-0.1
		c1.7,2.7,3.5,5.5,5.2,8.3c0.2,0.3,0.3,0.5,0.5,0.8C1010.9,214,1010.3,214.1,1009.5,214.2z M1021.1,140l-13.1-1.6
		c-4.3,6.2-14.2,9.9-25,9.2c-0.7-0.1-1.3-0.1-2.1-0.2c-11.6-1.3-20.4-7.5-22.4-14.8l-13.1-1.6l1.8-10l13.1,1.6
		c4.5-6.5,15.3-10.4,26.9-9c11.6,1.3,20.4,7.5,22.4,14.8l13.4,1.6L1021.1,140z M1044.8,282.5c0.8-0.1,1.6-0.1,2.6-0.2
		c1.7,4.2,3.4,8.4,4.9,12.6c-0.8,0.1-1.6,0.2-2.5,0.3C1048.1,291,1046.5,286.7,1044.8,282.5z M1054.9,310.5
		c-1.2-3.8-2.5-7.6-3.8-11.5c0.8-0.1,1.6-0.2,2.5-0.3c1.4,3.9,2.7,7.9,3.9,11.8C1056.7,310.5,1055.7,310.5,1054.9,310.5z
		 M1092.7,179.3c-6.6-1.6-12.1-4.7-15.4-8.7c-2.1-2.5-3.1-5.1-3.2-7.7l-12.7-3.1l4.3-8.9l12.7,3.1c6.2-5.4,17.8-7.5,29-4.8
		c11.1,2.8,18.5,9.5,18.6,16.4l12.7,3.2l-4.3,8.9l-12.7-3.1c-5.1,4.4-14.1,6.6-23.3,5.7C1096.5,180.1,1094.6,179.8,1092.7,179.3z
		 M1179.4,279.1l-3.6,14.6l-12.9-3c-4.6,7.6-13.1,12.4-22.4,12.4c-2.1,0-4.1-0.2-6.2-0.7c-11.4-2.7-19.2-12.3-19.9-23.1l-12.9-3
		l3.6-14.6l12.9,3c2.2-3.5,5.1-6.5,8.8-8.7c6-3.5,12.9-4.6,19.7-3c11.4,2.7,19.2,12.3,19.9,23.1l-17-4c-1.4-2.2-3.8-3.8-6.5-4.5
		c-0.8-0.2-1.6-0.3-2.5-0.3c-1.8,0-3.7,0.5-5.3,1.4c-2.5,1.4-4.3,3.7-5,6.5c-0.7,2.9-0.1,5.8,1.4,8c1.4,2.2,3.7,3.8,6.5,4.5
		c2.7,0.7,5.4,0.3,7.8-1c0.1,0,0.1-0.1,0.2-0.1c2.5-1.4,4.1-3.7,4.8-6.4c0.6-2.7,0.2-5.5-1.2-7.8c0-0.1-0.1-0.1-0.1-0.2l17,4
		L1179.4,279.1z M888.6,95.1c0.5,0,1-0.1,1.5-0.1c2.4,1.1,4.6,2.3,7,3.5c-0.6,0.2-1.3,0.2-2,0.3c-2.4-1.2-4.8-2.4-7.2-3.6
		C888.1,95.2,888.4,95.1,888.6,95.1z"/>
	<path fill="#6241CE" d="M1038.6,268.6c-0.5-1.1-1-2.2-1.5-3.2C1037.6,266.5,1038.1,267.6,1038.6,268.6z"/>
	<path fill="#6241CE" d="M1188.2,193.2L1188.2,193.2c-0.2-0.2-0.4-0.4-0.6-0.6C1187.8,192.8,1188,193,1188.2,193.2z"/>
	<path fill="#6241CE" d="M1110.3,166.7c0.8-1.7,0.4-3.6-1-5.2c-1.3-1.5-3.5-2.7-6.2-3.4s-5.4-0.6-7.8,0c-2.5,0.7-4.5,2-5.3,3.7
		s-0.5,3.5,0.8,5.1l0.1,0.1c1.3,1.5,3.5,2.8,6.2,3.4c2.8,0.7,5.5,0.6,7.9,0C1107.4,169.7,1109.5,168.4,1110.3,166.7z"/>
	<path fill="#6241CE" d="M992.3,126.2c-1.6-1.4-4.1-2.5-6.9-2.8c-2.8-0.3-5.4,0.1-7.6,1.1c-2.3,1-3.8,2.6-4.2,4.6
		c-0.3,2,0.6,3.9,2.4,5.4c1.6,1.4,4.1,2.5,6.9,2.8c2.9,0.3,5.5-0.1,7.6-1.1c2.3-1,3.8-2.6,4.2-4.6C995,129.6,994,127.7,992.3,126.2z
		"/>
	<path fill="#6241CE" d="M1029.3,244.6c-0.8,0.1-1.6,0.3-2.4,0.4c-2.5-4.7-4.9-9.2-7.5-13.9c0,0,0,0-0.1,0c1.2,2.2,2.5,4.3,3.6,6.5
		c-1.6,1-3,2.4-3.8,4.1c-1.2,2.5-1.4,5.3-0.6,7.7c0.8,2.6,2.8,4.9,5.4,6.2c2.8,1.3,5.8,1.3,8.4,0.4l0,0l0,0c0.9,2,1.8,3.9,2.8,5.8
		c0.8-0.1,1.7-0.2,2.6-0.3c0-0.1-0.1-0.2-0.1-0.3c-0.7,0.1-1.5,0.2-2.4,0.3c-2.2-4.3-4.3-8.7-6.6-13.1c0.8-0.1,1.6-0.2,2.5-0.4
		c1.1,2.3,2.4,4.6,3.5,6.9c1.3-1,2.7-2.3,3.5-3.9c1.2-2.4,1.4-5.2,0.6-7.7c-0.1,0-0.1-0.1-0.1-0.2c-0.9-2.7-2.8-4.8-5.3-6
		s-5.4-1.4-8.1-0.5c0,0-0.1,0.1-0.2,0.1C1026.4,239.3,1027.8,241.9,1029.3,244.6z"/>
	<path fill="#7A44B3" d="M528.9,362.7c-2.1,7.9-0.2,16.3,4,20.9l-2.4,9l7.1,3.4l2.4-9c2.1,0.1,4.1-0.6,6.1-2
		c3.1-2.2,5.5-6.1,6.7-10.8c1.3-4.7,1.2-9.7-0.2-14.1c-0.8-2.7-2.2-5-3.8-6.8l2.4-9l-7.1-3.4l-2.4,9c-2.1-0.1-4.1,0.6-6.1,2
		C532.5,354.1,530,358,528.9,362.7z M535.9,366.1c0.5-1.9,1.4-3.4,2.7-4.3l0.1-0.1c1.2-0.9,2.7-1.1,4-0.4c1.3,0.6,2.4,2,2.9,3.8
		c0,0.1,0,0.1,0,0.2c0.6,1.7,0.7,3.7,0.2,5.5c-0.5,1.9-1.4,3.4-2.7,4.3c-1.2,1-2.7,1.2-4.1,0.5c-1.4-0.7-2.5-2.1-3-3.9
		C535.5,370,535.5,368,535.9,366.1z"/>
	<path fill="#7A44B3" d="M604.9,392.2c-6.1-15.9-10.3-32.2-13.9-48.7h-0.1l-4.3,0.3l0.5,7.7c0.3,1.5,0.7,2.9,1,4.4
		c-0.1,0-0.2,0-0.3,0c-0.2,0-0.4,0-0.5,0c-2.1,1.2-4,3.3-5.4,6.1c-2.5,4.6-3.6,10.6-3.2,16.9c0.6,10.5,5.4,19.2,11.5,21.9l0.7,12
		l8.3-0.7l-0.7-12c0.7-0.4,1.4-0.9,2.1-1.5l0,0c-0.3-1.1-0.6-2.1-0.9-3.2l0,0c0.5,0,0.9,0.1,1.4,0.2c0.2,0.6,0.4,1.2,0.6,1.9
		c1.2-1.4,2.3-3.1,3.1-5.1C604.9,392.4,604.9,392.4,604.9,392.2C604.9,392.3,604.9,392.2,604.9,392.2z M587.4,359.6
		c0.2,0,0.4,0,0.6,0c0.3,0,0.7,0.1,1,0.1c0.7,2.7,1.4,5.4,2.3,8c-0.2,0-0.5,0-0.8,0.1c-0.2,0-0.5,0.1-0.8,0.1
		C588.9,365.2,588.1,362.4,587.4,359.6L587.4,359.6z M599.4,394.6C599.5,394.8,599.1,394.5,599.4,394.6L599.4,394.6z M599.5,391.3
		c-0.4,0-0.8,0-1.2,0.1h-0.1l0,0c-0.7-1.7-1.3-3.4-2-5.1l-0.1,0.1c-0.7,0.7-1.5,1.1-2.5,1.1c-1.8,0.1-3.4-1-4.6-2.7
		c-1.1-1.7-1.8-4-2.1-6.5c-0.1-2.5,0.3-4.9,1.2-6.7c0-0.1,0.1-0.1,0.1-0.2c1-1.9,2.5-3,4-3.1s3.1,0.8,4.3,2.6c0,0.1,0.1,0.1,0.1,0.2
		c1.1,1.7,1.8,4,2.1,6.5c0.2,2.6-0.3,4.9-1.2,6.7c-0.1,0.3-0.3,0.5-0.4,0.8c0.7,2,1.5,4,2.4,6C599.5,391.2,599.6,391.3,599.5,391.3
		C599.6,391.3,599.5,391.3,599.5,391.3z"/>
	<path fill="#7A44B3" d="M729.5,277.5l-5,12l14.3,5.7l5-12c0.8,0.1,1.5,0.1,2.4,0.1c3.4,0,6.8-0.7,10.1-2
		c6.4-2.6,11.4-7.5,14.1-13.8c2.7-6.2,2.7-13-0.1-19.3c-1.6-3.9-4.2-7.2-7.5-9.8l5-12l-14.3-5.7l-5,12c-11.1-1-22,5.1-26.4,15.6
		c-2.7,6.3-2.7,13.2,0,19.4C723.6,271.6,726.2,274.9,729.5,277.5z M736.3,254c1.1-2.6,3.1-4.5,5.5-5.5c1.3-0.6,2.9-0.9,4.3-0.9
		c1.3,0,2.7,0.2,4,0.8c2.7,1,4.7,3,5.8,5.6c0,0.1,0,0.2,0.1,0.2c1.1,2.5,1,5.2,0,7.7c-1,2.6-3.1,4.5-5.5,5.5
		c-2.6,1.1-5.5,1.3-8.4,0.1c-2.7-1.1-4.7-3-5.8-5.6c0-0.1-0.1-0.1-0.1-0.2C735.1,259.2,735.1,256.5,736.3,254z"/>
	<path fill="#7A44B3" d="M830.8,180.2c-0.3,10.8,6.6,21.1,17.6,24.8c2.8,0.9,5.6,1.4,8.5,1.4c3.9,0,7.8-0.9,11.4-2.6
		c3.9-1.8,7.2-4.5,9.6-7.8l12.5,4.2l5-14.2l-12.4-4.2c0.1-4.1-0.7-8.2-2.7-11.9c-3.1-6.1-8.4-10.7-15-12.9
		c-11.1-3.7-22.9,0.3-29.5,9l-12.5-4.2l-5,14.2L830.8,180.2z M847,177.7c1-2.8,3.1-4.9,5.6-6c1.3-0.6,2.9-1,4.4-1
		c1.1,0,2.3,0.2,3.5,0.6c2.6,0.9,4.7,2.7,6,5c0,0.1,0.1,0.1,0.1,0.2c1.2,2.5,1.4,5.3,0.5,7.9c-0.4,1.3-1.1,2.5-2.1,3.5
		c-0.9,1-2.1,1.8-3.3,2.4c-0.1,0-0.1,0.1-0.2,0.1c-2.6,1.1-5.4,1.3-8,0.4c-2.7-0.9-4.7-2.8-6-5C846.2,183.4,845.9,180.5,847,177.7z"
		/>
	<path fill="#7A44B3" d="M890.2,241.9l-7.3,10.8c-10.7-3-22.6,0.9-29,10.4c-3.8,5.7-5.1,12.4-3.7,19.1c0.8,4.1,2.8,7.9,5.3,11
		l-7.3,10.8l12.8,8.2l7.3-10.8c2.4,0.7,4.7,1,7.2,1c8.5,0,16.8-4,21.8-11.4c6.4-9.5,5.4-21.7-1.6-30.1l7.3-10.8L890.2,241.9z
		 M884.6,282.8c-1.5,2.3-3.9,3.8-6.5,4.4c-2.8,0.6-5.8,0.2-8.2-1.4c-2.4-1.5-4-3.8-4.6-6.6c0-0.1,0-0.2,0-0.2
		c-0.5-2.6,0-5.3,1.5-7.5c1.5-2.3,3.9-3.8,6.5-4.4c0.8-0.2,1.6-0.3,2.5-0.3c2.1,0,4,0.5,5.9,1.7c1.2,0.8,2.3,1.8,3.1,3
		s1.3,2.5,1.5,3.8C886.6,277.7,886.1,280.4,884.6,282.8z"/>
	<path fill="#7A44B3" d="M816.3,341.2c-11.7-0.8-22.1,6.1-26.1,16.2l-13.2-0.9l-1,15l13.2,0.9c0.6,2.6,1.7,5.1,3.1,7.3
		c4.9-2,10-3.9,15-5.7c-0.2-0.2-0.3-0.3-0.5-0.5c-2-2-3-4.8-2.8-7.7c0.2-2.9,1.6-5.5,3.8-7.3c1.8-1.5,4.2-2.4,6.8-2.4
		c0.2,0,0.5,0,0.7,0c2.9,0.2,5.3,1.5,7.1,3.3c1.8,2,3,4.8,2.8,7.7c0,0.4-0.1,0.8-0.1,1.1c3.8-1.1,7.7-2.2,11.5-3.1
		c4.8-1.2,10.2-2.5,15.8-3.7l-12.5-0.9C837.3,350.1,828,341.9,816.3,341.2z"/>
	<path fill="#7A44B3" d="M683.4,435.5c5.4-4.3,8.8-10.3,9.6-17.1c1.3-11.2-5.3-21.6-15.6-25.9l1.4-12.9l-15.3-1.6l-1.4,12.9
		c-10.9,2.1-19.6,10.9-20.8,22.2s5.4,21.7,15.6,26l-1.4,12.9l8.5,0.9c2.5-2.1,5-4.1,7.5-6.1l0.7-6.1
		C676.2,439.9,680.1,438.2,683.4,435.5z M665.9,426.2c-1.5-0.2-2.9-0.6-4.1-1.3c-1.2-0.7-2.3-1.6-3.2-2.7c-1.6-2-2.5-4.7-2.2-7.4
		c0.3-2.8,1.7-5.1,3.7-6.8c2.2-1.8,5-2.7,8-2.4c2.9,0.3,5.3,1.6,7.2,3.8c0.1,0.1,0.1,0.1,0.2,0.2c1.6,2,2.4,4.7,2.1,7.4
		c-0.3,2.7-1.6,5.1-3.7,6.8c-0.1,0-0.1,0.1-0.2,0.2C671.6,425.7,668.7,426.5,665.9,426.2z"/>
	<path fill="#7A44B3" d="M585.2,315.7c-2-9.8-3.7-19.6-4.6-29.5c0-0.1,0-0.3,0-0.4c-0.1-1.2-0.2-2.3-0.3-3.5
		c-0.1-2.1-0.3-4.3-0.3-6.4c-1.1-0.6-2.2-1.1-3.3-1.5c-0.1,0-0.1,0-0.2-0.1c0.1,2.3,0.3,4.5,0.5,6.8c0,0.4,0.1,0.9,0.1,1.3
		c-0.6,0-1.1,0.1-1.7,0.1h-0.1c-0.3-3-0.5-5.9-0.7-8.9c-0.3-0.1-0.6-0.2-0.9-0.3c-3.4-0.9-6.7-1.1-9.8-0.6l-3.1-3.9
		c-0.1,1.6-0.1,3.2-0.2,4.6c-0.1,8.2,0.8,16.9,1.7,24.3c0.3,2.6,0.6,5.1,0.9,7.3c0,0,0,0,0,0.1l0,0c5,2.7,10.7,3.8,15.7,3l6.4,7.9
		l0,0C585.2,315.8,585.2,315.8,585.2,315.7z M578.8,301.3C578.8,301.3,578.9,301.3,578.8,301.3c0.3,2.1,0.5,4.2,0.8,6.3h-0.1
		c-0.6-0.2-1.1-0.2-1.6-0.3c-0.2-1.9-0.4-3.9-0.6-5.8C577.8,301.4,578.2,301.4,578.8,301.3z M563,288.2c0.2-1.9,1.2-3.5,3.1-4.5
		s4.2-1,6.4-0.4c1.7,0.5,3.4,1.4,4.7,2.8c0.1,0,0.1,0,0.2,0v0.1v0.1l0,0c0.2,0.2,0.3,0.4,0.5,0.6c1.4,1.7,2,3.7,1.7,5.4
		c-0.1,1.2-0.6,2.3-1.4,3.1c0,0,0,0,0,0.1c0.1,0.8,0.1,1.7,0.2,2.5c-0.5,0.1-1,0.2-1.5,0.3h-0.1c-0.1-0.5-0.1-1.1-0.2-1.6l-0.1,0.1
		c-1.7,1-4,1-6.3,0.4c-2.1-0.6-4-1.8-5.4-3.6C563.3,291.9,562.8,289.9,563,288.2z"/>
	<path fill="#7A44B3" d="M547.3,422.4l5.2,8.5c-0.6,2.3-0.8,5-0.5,8.1c0.5,5,2.4,10.2,5.1,14.6c4.5,7.3,10.5,10.8,14.8,9.2
		c0.1,0,0.2-0.1,0.3-0.1l5.2,8.5l4.3-5.7l-5.2-8.5c1.6-5.9-0.1-15.1-4.7-22.6c-2.8-4.5-6.1-7.6-9.4-9c-2.1-0.8-4-0.9-5.5-0.2
		l-5.2-8.5L547.3,422.4z M560.3,437.2c0.3-0.4,0.7-0.7,1.2-0.9c0.6-0.2,1.3-0.2,2.2,0.1c0,0,0.1,0,0.1,0.1c1.3,0.6,2.7,1.8,3.7,3.6
		c1.1,1.8,1.8,3.9,2.1,5.8c0.2,2.1-0.1,3.9-0.9,5c-0.8,1.1-2.2,1.3-3.5,0.7c-1.2-0.6-2.6-1.8-3.7-3.6s-1.8-3.8-2.1-5.8
		c0-0.1,0-0.1,0-0.2C559.2,440,559.5,438.3,560.3,437.2z"/>
	<path fill="#583688" d="M505.6,479.9c-1.5-8.8-5.8-15.8-10.2-17.6l-1.7-10l-5.8,1l1.7,10c-1.3,1.2-2.5,3.1-3.2,5.6
		c-1.2,4-1.3,9.1-0.4,14.4c0.9,5.2,2.8,10,5.3,13.4c1.5,2.1,3.2,3.5,4.9,4.2l1.7,10l5.8-1l-1.7-10
		C505.6,496.6,507.1,488.7,505.6,479.9z M499.6,486.6c-0.4,1.7-1.3,2.8-2.5,3c-1,0.2-2.3-0.5-3.3-1.9l-0.1-0.1
		c-1-1.4-1.7-3.3-2.1-5.3c-0.4-2.1-0.3-4.1,0.1-5.7c0-0.1,0-0.1,0-0.2c0.5-1.6,1.3-2.6,2.5-2.8c1.1-0.2,2.4,0.6,3.3,2
		c0.9,1.3,1.7,3.2,2.1,5.3C500.2,483,500.1,485,499.6,486.6z"/>
	<path fill="#583688" d="M542.9,574.6c-4.8-7.2-13.8-14.6-21.8-18.4l-5.4-8.1l-9.8-2.6l5.4,8.2c-5.3,0.2-6.2,4.9-1.3,12.1
		c2.6,3.9,6.4,7.8,10.7,11.2c3.6,2.9,7.5,5.4,11.2,7.2l5.4,8.2l9.8,2.6l-5.5-8.3C546.9,586.5,547.7,581.8,542.9,574.6z M534.4,576
		c-0.4,0.9-1.5,1.2-3.5,0.7s-4.1-1.8-6.3-3.3c-1.8-1.6-3.7-3.4-4.8-5.1c-1.1-1.7-1.5-3.1-1.1-4s1.5-1.2,3.5-0.7s4.2,1.8,6.3,3.4
		c0.2,0.1,0.3,0.3,0.5,0.4c1.7,1.4,3.3,3,4.3,4.6C534.4,573.7,534.8,575.1,534.4,576z"/>
	<path fill="#7A44B3" d="M622.7,465.3c-1.2-3.4-2.9-6.3-4.9-8.3l1.2-8.6l0.1-1.1l0.3-1.9l-8.2-3.9l-1.6,11.5c-2.3,0-4.5,1-6.5,2.9
		c-3.2,3-5.4,8-6.4,14c-0.8,6-0.2,12.4,1.7,17.9c1.2,3.4,2.9,6.3,4.9,8.3l-1.6,11.5l2.5,1.2c2.3-2.5,4.7-5.1,7.2-7.7l0.1-1.1
		c0.1,0,0.2,0,0.3,0c0.2,0,0.4,0,0.6-0.1c2.8-2.8,5.6-5.7,8.6-8.6c0.5-0.5,1.1-1.1,1.7-1.7c0.7-2,1.3-4.2,1.6-6.5
		C625.3,477.2,624.7,470.8,622.7,465.3z M616.3,479.2c-0.3,2.4-1.2,4.4-2.5,5.6l-0.1,0.1c-1.3,1.2-2.9,1.5-4.4,0.8
		c-0.7-0.4-1.4-1-2.1-1.7c-0.6-0.8-1.1-1.8-1.5-2.9c0-0.1,0-0.1-0.1-0.2c-0.7-2.2-1-4.7-0.6-7.1c0.3-2.4,1.2-4.4,2.5-5.6l0.1-0.1
		c0.8-0.7,1.6-1.1,2.6-1.2c0.6,0,1.2,0.1,1.8,0.4c1.5,0.7,2.8,2.4,3.6,4.6c0,0.1,0,0.1,0.1,0.2C616.4,474.3,616.6,476.8,616.3,479.2
		z"/>
	<path fill="#7A44B3" d="M1020.7,324.6l-5.6-4.4l-2.8-2.1l-1.8-1.4c0.6-1.5,1-3,1.3-4.5c0.3-1.7,0.5-3.3,0.4-5
		c-0.1-3.9-1-7.8-2.9-11.3c-0.9-1.7-2.1-3.4-3.4-4.9c-1-1.2-2.3-2.3-3.5-3.3c-5.4-4.2-12.3-6.1-19.2-5.3c-4.3,0.5-8.3,2-11.7,4.3
		l-10.5-8l-9.6,11.8l10.4,8c-4,10.1-1,22,8.1,29c4.6,3.6,10.3,5.5,16.1,5.5c1,0,2.1-0.1,3.1-0.2c4.3-0.5,8.3-2,11.7-4.3l6.1,4.7
		c2.8-0.4,5.3-0.8,7.9-1.1l1.7-2.1L1020.7,324.6z M994.4,313.9c-0.9,1.1-2,2-3.2,2.6c-1.2,0.7-2.6,1.1-4,1.2c-0.1,0-0.2,0-0.2,0
		c-2.6,0.4-5.3-0.4-7.5-2c-2.3-1.7-3.6-4.1-3.9-6.7c-0.4-2.7,0.3-5.6,2.2-7.9c1.7-2.2,4.3-3.5,7.1-3.9c0.1,0,0.2,0,0.2,0
		c0.3,0,0.7-0.1,1-0.1c2.4,0,4.7,0.8,6.6,2.2c2.3,1.7,3.6,4.1,3.9,6.7C997,308.7,996.3,311.6,994.4,313.9z"/>
	<path fill="#7A44B3" d="M1138,287.7c-2.8-0.7-5-2.3-6.5-4.5s-2.2-5.1-1.4-8c0.7-2.8,2.6-5.1,5-6.5c1.6-0.9,3.5-1.4,5.3-1.4
		c0.8,0,1.6,0.1,2.5,0.3c2.7,0.7,5,2.3,6.5,4.5l17,4c-0.7-10.8-8.5-20.4-19.9-23.1c-6.8-1.6-13.8-0.5-19.7,3
		c-3.7,2.2-6.7,5.2-8.8,8.7l-12.9-3l-3.6,14.6l12.9,3c0.7,10.8,8.5,20.4,19.9,23.1c2.1,0.5,4.1,0.7,6.2,0.7
		c9.2,0,17.8-4.8,22.4-12.4l-17-4C1143.5,288,1140.7,288.4,1138,287.7z"/>
	<path fill="#7A44B3" d="M1149.5,272.2c0,0.1,0.1,0.1,0.1,0.2c1.4,2.3,1.8,5.1,1.2,7.8c-0.7,2.7-2.4,5-4.8,6.4
		c-0.1,0-0.1,0.1-0.2,0.1l17,4l12.9,3l3.6-14.6l-12.8-2.9L1149.5,272.2z"/>
	<path fill="#7A44B3" d="M1121.7,174.6l12.7,3.1l4.3-8.9l-12.7-3.2c-0.1-6.9-7.5-13.6-18.6-16.4c-11.2-2.7-22.8-0.6-29,4.8
		l-12.7-3.1l-4.3,8.9l12.7,3.1c0.1,2.6,1.1,5.2,3.2,7.7c3.3,4,8.8,7.1,15.4,8.7c1.8,0.5,3.8,0.8,5.6,1
		C1107.6,181.2,1116.5,179,1121.7,174.6z M1097,170.4c-2.7-0.6-4.8-1.9-6.2-3.4l-0.1-0.1c-1.3-1.6-1.6-3.4-0.8-5.1
		c0.8-1.7,2.9-3,5.3-3.7c2.4-0.6,5.1-0.7,7.8,0c2.7,0.7,4.8,1.9,6.2,3.4c1.4,1.6,1.8,3.5,1,5.2s-2.9,3-5.3,3.7
		C1102.6,171,1099.8,171.1,1097,170.4z"/>
	<path fill="#7A44B3" d="M1183,189c0.4,3.3,1.4,6.5,3.1,9.4l-9.2,9.3l11.2,10.4l6.7-6.8l0,0c-2.3-8.8-2.5-14.2-6.5-18.1
		c-0.2-0.2-0.4-0.4-0.6-0.6c-0.4-0.4-0.8-0.7-1.2-1.1c-0.2-0.1-0.3-0.3-0.5-0.4c-0.1-0.1-0.2-0.2-0.4-0.3
		C1184.6,190.2,1183.8,189.6,1183,189z"/>
	<path fill="#7A44B3" d="M987.4,113.6c-11.6-1.4-22.4,2.5-26.9,9l-13.1-1.6l-1.8,10l13.1,1.6c2,7.3,10.8,13.5,22.4,14.8
		c0.7,0.1,1.3,0.1,2.1,0.2c10.8,0.7,20.6-3,25-9.2l13.1,1.6l2-10l-13.4-1.6C1007.8,121.1,999,114.9,987.4,113.6z M994.6,131.6
		c-0.4,2-2,3.6-4.2,4.6c-2.1,1-4.7,1.4-7.6,1.1c-2.8-0.3-5.2-1.4-6.9-2.8c-1.7-1.5-2.7-3.4-2.4-5.4c0.4-2,2-3.6,4.2-4.6
		s4.8-1.4,7.6-1.1s5.2,1.4,6.9,2.8C994,127.7,995,129.6,994.6,131.6z"/>
	<path fill="#7A44B3" d="M595.1,343.1l-1,0.1c0.5,2.1,0.9,4.3,1.4,6.4L595.1,343.1z"/>
	<path fill="#7A44B3" d="M602,360.7c-1.5-2.2-3.3-3.9-5.1-4.9c2.7,10.8,5.6,21.5,9.4,32c0.8-3.3,1.1-6.9,0.9-10.7
		c-0.1-1.9-0.4-3.8-0.8-5.6c-0.2-0.8-0.4-1.7-0.6-2.5C605,365.9,603.7,363.1,602,360.7z"/>
	<path fill="#7A44B3" d="M696.2,145.6c-0.5,5.2,1.3,10.6,5.3,14.8l-7.7,8.8l12.5,7.2l7.7-8.8c2.7,0.7,5.3,1,8,1
		c8.2,0,16.2-3.1,21.4-8.9c6.8-7.7,6.2-17.9-0.6-25.1l7.7-8.8l-0.6-0.3c-3.3,1-6.6,2-9.9,3.1l0,0
		C726.8,132.7,707.5,141.1,696.2,145.6z M731,152.5c-1.6,1.9-4.1,3.1-6.7,3.5c-2.8,0.4-5.8,0-8.2-1.4s-4-3.5-4.3-5.8
		c-0.5-2.1,0.1-4.3,1.7-6.2s4-3.1,6.7-3.5c0.7-0.1,1.3-0.2,2.1-0.2c2.2,0,4.3,0.5,6.2,1.6c2.5,1.4,4,3.5,4.4,5.8
		C733.3,148.4,732.7,150.7,731,152.5z"/>
	<path fill="none" d="M848.6,90L848.6,90"/>
	<path fill="#7A44B3" d="M848.5,90C848.5,89.9,848.4,90,848.5,90L848.5,90z"/>
	<path fill="#7A44B3" d="M821,105.8l15.3,1.7l1.5-12.9c3.3-0.6,6.5-1.9,9.3-3.7c-0.6-0.2-1.2-0.3-1.8-0.5l0,0l0,0
		c-0.6,0.1-1.3,0.3-2.1,0.4c-0.3,0.1-0.7,0.1-1,0.2c-0.7,0.2-1.4,0.3-2.2,0.5c-0.1,0-0.2,0-0.2,0.1c-5.4,1.3-11.6,3.3-18,6.2
		L821,105.8z"/>
	<path fill="#7A44B3" d="M903.1,122.4l6.1,1.2l0.4,0.1l8.6,1.8l1-4.7c-4.4-3.4-8.9-6.6-13.7-9.5l-1.4,6.7l-0.3,1.3L903.1,122.4z"/>
	<path fill="#583688" d="M518.8,446.4c1.6,1.1,3.1,2.6,4.4,4.2c0.3,0.4,0.5,0.8,0.8,1.1c1.4,2.3,2.4,4.7,2.4,6.8
		c0,1.9-0.7,3.2-2.1,3.7h-0.1c-0.5,0.2-1.1,0.2-1.7,0c2.4,5.1,4.4,9.4,6.1,12.7c1.2,0.2,2.5,0.1,3.5-0.2c2.1-0.7,3.6-2.1,4.4-4.3
		l9.2,6.1l-0.2-10.5l-9.2-6.1c-2.4-8.7-9.3-18.6-17.6-23.9c-3.7-2.4-7.1-3.6-9.9-3.7c1.8,4.3,3.8,8.6,5.5,12.6
		C515.6,444.8,517.1,445.3,518.8,446.4z"/>
	<path fill="#7A44B3" d="M600.9,329.6l-4.7,12.1l2.2,0.8l0,0l0,0c-0.3-1.1-0.5-2.2-0.8-3.2c0.6,0,1.3-0.1,2-0.1c0.3,1.3,0.7,2.7,1,4
		c0,0.1,0,0.1,0,0.2l0,0l10.1,3.7l4.7-12.1c1.3,0.1,2.7,0.1,4,0c9.6-0.9,18.4-6.9,22-16.2c2.5-6.3,2.3-13.2-0.6-19.4
		c-1.7-3.8-4.4-7.1-7.7-9.6l4.7-12.1l-14.4-5.3l-4.7,12.1c-4.2-0.3-8.4,0.5-12.3,2.2c-6.4,2.8-11.2,7.8-13.7,14.1
		c-0.1,0.2-0.2,0.4-0.2,0.6c0,0.1,0,0.1-0.1,0.2v0.1c0.3,2,0.5,3.8,0.8,5.8c0,0.1,0,0.2,0,0.3c-0.6,0.1-1.2,0.2-1.8,0.3
		c-0.1-0.6-0.2-1.1-0.2-1.7c-0.7,5,0.2,10.1,2.4,14.5c-0.4-3.2-1-6.2-1.4-9.2c0.6-0.1,1.2-0.2,1.8-0.3c0.5,3.1,1,6.3,1.6,9.4
		c-0.6,0.1-1.2,0.2-1.7,0.2c0.6,1.3,1.4,2.5,2.3,3.6c0.1,0,0.2,0,0.2,0v0.1c0,0.1,0.1,0.2,0.1,0.3c0,0,0,0,0,0.1l0.1,0.1
		C597.8,326.9,599.3,328.3,600.9,329.6z M607.1,305.9c0.1-0.3,0.3-0.6,0.4-0.9c0.3-0.6,0.7-1.2,1.1-1.7c1-1.3,2.4-2.3,3.8-3.1
		c2.6-1.2,5.5-1.4,8.4-0.3s4.9,3.2,6.1,5.7c1,2.4,1.1,5.1,0.1,7.7c-0.5,1.3-1.2,2.4-2.2,3.4c-0.2,0.2-0.5,0.5-0.7,0.7
		c-0.7,0.6-1.5,1.2-2.5,1.6c-0.6,0.3-1.3,0.5-2,0.7s-1.4,0.3-2.1,0.3c-0.7,0-1.4,0-2.2-0.1c-0.7-0.1-1.4-0.3-2.2-0.5
		c-2.8-1.1-4.9-3.2-6.1-5.7C606.1,311.3,606,308.5,607.1,305.9z"/>
	<path fill="#7A44B3" d="M600.7,193.8L600.7,193.8c-1.2,1.7-2.5,3.5-3.7,5.3c-0.6,0.2-1.2,0.4-1.8,0.6c0,0-0.1,0-0.1,0.1
		c0.8-1.3,1.7-2.5,2.7-3.8c-0.4,0.4-0.9,0.9-1.4,1.4s-1.1,1-1.6,1.5c-1,1-2.2,2-3.2,3.1c-0.2,0.2-0.3,0.3-0.5,0.5
		c-0.6,0.6-1.1,1.2-1.7,1.8c-1.2,3.2-1.5,6.4-1.2,9.5c0,0.1,0,0.2,0,0.4c0.2,1.3,0.5,2.6,0.9,3.8c0,0,0,0,0,0.1
		c0.7-1.6,1.4-3.3,2.2-4.9c4-8.4,9-16.2,14.9-23.4c0.3-0.4,0.6-0.8,0.9-1.2c0.1-0.1,0.2-0.3,0.4-0.4c-0.3,0.2-0.6,0.5-0.9,0.7
		c-1.7,1.4-3.5,2.7-5.2,4.2c-0.5,0.4-0.9,0.8-1.4,1.2C600.1,194.1,600.4,193.9,600.7,193.8z"/>
	<path fill="#7A44B3" d="M629.7,177l-2.8,3.5l-0.4,0.5c0.1,0,0.1,0,0.2-0.1c0.1-0.1,0.1-0.1,0.2-0.2c1-1.1,2.2-2.2,3.3-3.3l0,0l0,0
		l0.1-0.1l-0.1-0.1L629.7,177L629.7,177z"/>
	<path fill="#7A44B3" d="M606.7,202.1c-0.6,0.6-1.2,1.2-1.8,1.9c-0.4,0.5-0.7,1.1-1,1.6s-0.5,1-0.7,1.5
		C604.2,205.4,605.4,203.7,606.7,202.1z"/>
	<path fill="#7A44B3" d="M630.2,177.4c-1.1,1.1-2.2,2.2-3.3,3.3c-0.1,0.1-0.1,0.1-0.2,0.2l-0.1,0.1c-0.1,0-0.1,0-0.2,0.1l-4.7,5.9
		c-0.2,0-0.4-0.1-0.6-0.1c-2,2.1-3.8,4.3-5.6,6.5c-0.8,0.2-1.6,0.5-2.5,0.7c0.1-0.1,0.1-0.1,0.2-0.2c1.7-2.2,3.7-4.4,5.5-6.6
		c0.5-0.2,1-0.4,1.5-0.5c-0.1,0-0.3,0-0.4,0c-2.3-0.2-4.6-0.2-7,0c-1.4,1.5-2.9,3.1-4.2,4.7c-5.9,6.9-10.7,14.5-14.7,22.6
		c-1.2,2.5-2.3,5-3.3,7.6c0.5,0.7,1,1.5,1.6,2.1l-4.3,5.4c-0.6,1.8-1.1,3.7-1.5,5.6l3.1,1.7c0.4-1.6,0.7-2.9,1.1-4.2
		c0.6,0.1,1.2,0.1,1.8,0.2c-0.4,1.5-0.7,2.9-0.9,4.4c0,0.1,0,0.2-0.1,0.3l0,0l4.9,2.7l7.8-9.9c6.1,1.2,12.7,0.2,18.6-2.7
		c3.9-1.9,7.4-4.7,10.2-8.1c4.1-5.1,5.9-11.1,5-16.8c-0.5-3.5-2.1-6.7-4.4-9.2l7.8-9.8L630.2,177.4L630.2,177.4L630.2,177.4z
		 M593.5,228.7c-0.6-0.1-1.2-0.1-1.7-0.1c0.6-1.8,1.2-3.6,2.1-5.4c0.1,0,0.1,0,0.2,0c0.5,0.1,0.9,0.1,1.4,0.1
		C594.7,225.1,594,226.9,593.5,228.7z M598.6,217.2c-0.5,0.8-0.9,1.6-1.3,2.4c-0.5,0-0.9,0-1.4-0.1c-0.1,0-0.2,0-0.2,0
		c1.2-2.5,2.6-5,4.2-7.4c0.6-0.1,1.3-0.1,2-0.2C600.7,213.6,599.7,215.4,598.6,217.2z M606.5,216.4c-2.4-1.2-3.7-3.3-4-5.6
		c-0.1-0.9-0.1-1.8,0.1-2.7c-0.1,0-0.3,0-0.4,0c0.2-0.3,0.4-0.6,0.6-0.9c0.3-0.5,0.7-1.1,1-1.6c0.3-0.6,0.7-1.1,1-1.6
		c0.5-0.7,1.2-1.3,1.8-1.9c0.7-1,1.5-2.1,2.3-3.1c0.7-0.2,1.5-0.4,2.3-0.6l0,0c-0.5,0.6-1,1.3-1.3,1.9l0,0l0,0
		c0.5-0.2,1-0.4,1.5-0.5c0.1,0,0.2-0.1,0.2-0.1c2.8-0.7,5.4-0.4,7.6,0.8c2.2,1.2,3.6,3.1,3.9,5.4c0,0.1,0,0.1,0,0.2
		c0.3,2.3-0.4,4.6-2.1,6.7c-1.6,2.1-4.1,3.5-6.6,4.2C611.7,217.8,608.8,217.6,606.5,216.4z"/>
	<path fill="#7DF3D9" d="M1427.5,357.1c-24.2-18.2-84.2-28.6-172.7-33.7c-7.5-0.4-15-0.8-22.6-1.1l0,0
		c-60.2-2.1-123.9,0.7-170.2,4.6c-0.8,0.1-1.7,0.1-2.6,0.2c-6.4,0.5-12.5,1.1-18.2,1.7c-1.6,0.2-3.2,0.3-4.7,0.5
		c-6.7,0.7-12.7,1.4-18.1,2.1c-0.5,0.1-1.1,0.1-1.6,0.2c-0.6,0.1-1.3,0.2-2,0.3c-2.5,0.3-5.1,0.7-7.9,1.1
		c-42.8,6.2-110.2,18.3-154.5,28.4c-5.6,1.3-11,2.5-15.8,3.7c-3.9,1-7.7,2-11.5,3.1c-6.1,1.8-11.9,3.7-17.8,5.7
		c-5.1,1.8-10.1,3.7-15,5.7c-27.6,11-52.2,24.1-72.7,34.6c-14.7,7.5-31.6,19.3-48.2,32.5c-2.6,2-5,4-7.5,6.1
		c-5.2,4.4-10.5,8.8-15.5,13.2c-0.6,0.5-1.2,1.1-1.8,1.6c-1.3,1.2-2.6,2.3-3.9,3.4c-0.8,0.8-1.7,1.5-2.6,2.3c-1.1,1-2.3,2-3.3,3
		c-0.5,0.5-1,1-1.5,1.5c-4.4,4.1-8.5,8-12.4,11.8c-0.6,0.6-1.1,1.1-1.7,1.7c-3,3-5.9,5.8-8.6,8.6c-0.4,0.4-0.7,0.7-1.1,1.1
		c-2.6,2.6-4.9,5.2-7.2,7.7c-9.2,10.2-16.6,19.6-22.6,28.9c-3.7,5.8-6.9,11.5-9.8,17.3c0.8,5.3,1.8,9.5,4,11.8
		c1.6,1.8,4.1,2.4,7.8,1.6c0,0,34.8-51.8,98.6-96.6s115.8-66.8,211-85.2s147.5-32,268.2-33.5s196.4,17,234.8,23.7
		c28.4,5,48.8,13.1,49.3,35.2c0.1,2.3-0.1,4.7-0.5,7.3c-0.5,3.2-1.2,6.7-2.5,10.4c1.5-2.2,3-4.4,4.2-6.6c1.7-3.1,3.2-6.2,4.3-9.2
		C1459,392.1,1448.9,373.1,1427.5,357.1z"/>
	<path fill="none" d="M1032.3,256L1032.3,256"/>
	<path fill="#7A44B3" d="M1023.3,273.7l1.3-2.5c1.3,0.2,2.7,0.3,4,0.3c3.6,0,7.2-0.7,10.4-2.1l0,0c-0.1-0.3-0.2-0.5-0.4-0.8
		c-0.5-1.1-1-2.1-1.5-3.2c0.2,0,0.5-0.1,0.7-0.1c0.6-0.1,1.2-0.1,1.8-0.2c0.5,1.1,1,2.3,1.5,3.4l0,0c4.5-2.4,8.4-6.1,10.9-11
		c3.1-6.1,3.5-13,1.3-19.4c-1.3-4-3.7-7.5-6.8-10.3l5.9-11.6l-13.8-6.6l-5.9,11.6c-4.1-0.7-8.4-0.3-12.5,1c-1,0.3-2.1,0.8-3,1.2
		c0.7,1.2,1.4,2.4,2.2,3.6l0,0c-0.7,0.1-1.4,0.2-2.2,0.3c-0.6-1-1.2-2.1-1.7-3.1h-0.1c-4.3,2.4-7.7,6-10,10.3l0,0
		c5.6,12.8,11.2,25.5,17.7,37.9v0.1C1023.4,273,1023.4,273.4,1023.3,273.7z M1033.3,237.1c2.6,1.2,4.4,3.3,5.3,6
		c0,0.1,0,0.2,0.1,0.2c0.8,2.5,0.6,5.3-0.6,7.7c-0.8,1.6-2.1,2.9-3.5,3.9l-0.1,0.1c1.1,2.1,2.1,4.1,3.1,6.2c0,0.1,0.1,0.2,0.1,0.3
		c-0.8,0.1-1.7,0.2-2.6,0.3c-0.9-1.9-1.8-3.8-2.8-5.8c-2.7,0.9-5.6,0.9-8.4-0.4c-2.7-1.3-4.6-3.6-5.4-6.2c-0.8-2.4-0.6-5.2,0.6-7.7
		c0.8-1.7,2.2-3.1,3.8-4.1c-1.1-2.2-2.4-4.3-3.6-6.5c0,0,0,0,0.1,0c0.7-0.1,1.4-0.2,2.2-0.3c1.1,1.9,2.3,3.9,3.3,5.9h0.1l0,0
		c0.1,0,0.2-0.1,0.2-0.1C1027.8,235.7,1030.7,235.9,1033.3,237.1z"/>
	<path fill="#5AB0A3" d="M689.5,134.3c1.8-1.6,4-3.1,6.3-4C693.4,131.2,691.3,132.7,689.5,134.3z"/>
	<path fill="#5AB0A3" d="M688.3,148.5c1.5-0.4,4.3-1.4,7.9-2.9c11.3-4.5,30.6-12.9,43.9-17l0,0c0,0,0,0,0-0.1c0-0.5-0.4-2.1-7.8-3.4
		c-1-0.2-2.4-0.3-3.9-0.3c1.4,0,2.8,0.1,3.9,0.3c0.5,0.1,1,0.2,1.4,0.3c-1,2.8-8.4,0.1-17.5,3.3c-10.5,3.7-14,3.8-17.9,4.7
		c-2.8,0.6-13,9.3-12.2,4.6l-0.1,0.1c-2,2.4-5.8,5.7-5.4,7.3c0.2,1.6,0.6,2.7,1.3,3.3C682.8,149.5,684.6,149.4,688.3,148.5z"/>
	<path fill="#7DF3D9" d="M688.3,143c3.9-0.9,18-5.5,28.4-9.2c9.1-3.2,15.9-5.6,16.9-8.4c-0.4-0.1-0.9-0.2-1.4-0.3
		c-1-0.2-2.4-0.3-3.9-0.3c-10.4,0-28.9,4.1-32.6,5.5l0,0c-2.4,0.9-4.5,2.4-6.3,4c-1.3,1.2-2.6,2.4-3.5,3.5v0.1
		C685.2,142.6,685.5,143.6,688.3,143z"/>
	<path fill="#5AB0A3" d="M1445.6,412.1c-0.5-22.1-20.9-30.2-49.3-35.2c-38.4-6.7-114.1-25.2-234.8-23.7
		c-120.8,1.5-173,15.1-268.2,33.5s-147.3,40.4-211,85.2s-98.6,96.6-98.6,96.6c-3.7,0.8-6.2,0.1-7.8-1.6c-2.2-2.3-3.1-6.4-4-11.8
		c-0.6,1.4-1.3,2.8-2,4.1c-9.9,22.1-16.1,45.7-16.1,45.7l3.6,3.8l0.6,0.7c0,0,8.4-3.7,26.6-19.1c18.2-15.4,58.1-31,89.3-42.9
		s67-22.8,137.3-40.9s129.3-30.2,199.6-34.9c47.4-3.2,61.7-7.2,94.9-6.7c37.4-1.9,70.4-2.2,100-0.5h0.1c30.6,1.8,57.4,5.7,81,12.1
		l0,0c23.6,6.4,44.1,15.2,62.2,26.7c2.1-0.9,4.2-1.9,6.3-2.9c35.3-17,70.2-46.1,87.3-70.7c1.1-3.7,2-7,2.5-10.2
		C1445.5,416.8,1445.7,414.4,1445.6,412.1z"/>
</g>
</svg>
