<?xml version="1.0" encoding="utf-8"?>
<!-- Generator: Adobe Illustrator 23.0.1, SVG Export Plug-In . SVG Version: 6.00 Build 0)  -->
<svg version="1.1" id="_x31_8_x5F_HeadGear_x5F_Snapback"
	 xmlns="http://www.w3.org/2000/svg" xmlns:xlink="http://www.w3.org/1999/xlink" x="0px" y="0px" viewBox="0 0 2000 2000"
	 enable-background="new 0 0 2000 2000" xml:space="preserve">
<g id="_x31_8_x5F_HeadGear_x5F_Snapback_x5F_background">
	<path fill="#332584" d="M536.7,634c4.4,7.5,57.4-1.3,57.4-1.3L583.5,584l-45.8,34.7L536.7,634z"/>
	<g>
		<g>
			<g>
				<path fill="#5AB0A3" d="M673.9,547.4c31.2-11.9,67-22.8,137.3-40.9s129.3-30.2,199.6-34.9c70.3-4.7,67.9-11.4,162-2.2
					c94.1,9.2,106,12.3,110.3,23.4c4.3,11.2,3.6,28.7,3.6,28.7s30.1-2.6,68.6-21.2c35.3-17,70.2-46.1,87.3-70.7
					c11.4-35.8-11.3-46.8-46.3-52.8c-38.4-6.7-114.1-25.1-234.8-23.7c-120.7,1.5-173,15-268.2,33.5S746,427,682.2,471.9"/>
			</g>
		</g>
	</g>
	<path fill="#5AB0A3" d="M1189.5,471.1c66.3,6.4,92.8,25.5,97.4,50.5l21.4-17.6l-38.5-49.5l-77.5,12L1189.5,471.1z"/>
</g>
</svg>
