<?xml version="1.0" encoding="utf-8"?>
<!-- Generator: Adobe Illustrator 23.0.1, SVG Export Plug-In . SVG Version: 6.00 Build 0)  -->
<svg version="1.1" id="_x32_0_x5F_HeadGear_x5F_NewsieCap_copy_1_"
	 xmlns="http://www.w3.org/2000/svg" xmlns:xlink="http://www.w3.org/1999/xlink" x="0px" y="0px" viewBox="0 0 2000 2000"
	 enable-background="new 0 0 2000 2000" xml:space="preserve">
<g>
	<g id="ears">
		<g id="Back_x5F_Ear_1_">
			<path fill="#282828" d="M994,274c25,7,66,42,80,45s15.7-4.7,15.7-4.7c27,3,79.3,32.7,93.3,45.7c7,8,15,14,15-2s6-137-27-165
				C1131.5,159.5,1015,238,994,274z"/>
		</g>
		<g id="Back_x5F_Ear_x5F_Shadow">
			<path opacity="0.3" fill="#091426" enable-background="new    " d="M1084.6,317.8c-2.1,0.1-4.2,0.1-6.2-0.2
				c-11.1-1.7-18.8-12.1-23.1-22.5c-10.3-24.2-4.5-57.5,7.9-80.4c-31.8,19.2-59.8,43.5-69.1,59.4c25,7,66,42,80,45
				C1078.6,320,1082.1,319.2,1084.6,317.8z"/>
			<path opacity="0.3" fill="#091426" enable-background="new    " d="M1095.8,319c-2.5-0.3-3.8-3.4-2.1-5.3
				c8.5-10.4,20.1-37.9,24-47.3c4.7-11.3,20-47.3,26.7-52.7c6.7-5.3,13.3-6.7,17.3-6s9.3,7.3,12,18.7c2.7,11.3,10.7,70,11.3,82
				s7.3,37.3,3.3,39.3s-16.8-9.7-26-14.7c-8.7-4.7-32.7-14-46-15.3C1109.9,317,1101.3,319.7,1095.8,319z"/>
		</g>
		<g id="Front_x5F_Ear">
			<path fill="#282828" d="M588,462c-10-102,58-248,138-264c31-6.2,107,76,121,109c6,14-20,5-52,14s-86,48-88,57s6,46-2,56
				s-47,4.7-69.3,7C613.9,443.3,603,451,588,462z"/>
		</g>
		<g id="Front_x5F_Ear_x5F_Shadow">
			<path opacity="0.3" fill="#091426" enable-background="new    " d="M639.2,341.9c-4.8-23.3-4.2-47.3-0.8-70.9
				c-34.9,55.1-56.3,130.7-50.3,191c15-11,25.9-18.7,47.7-21c4.4-0.5,9.4-0.6,14.7-0.7c2.9-3.3,5.6-6.7,8.2-10.2
				c5.5-7.3,13-12.8,20.6-16.9C658,395.3,644.7,369.1,639.2,341.9z"/>
			<path opacity="0.3" fill="#091426" enable-background="new    " d="M847.5,312.1c-3.2,0.7-7.1-0.9-10.4-2.4
				c-8.1-3.8-16.8-6.5-25.6-8c-1.4-0.2-2.9-0.5-4-1.3c-1.1-0.7-1.7-1.9-2.4-3c-13.2-22.3-29.8-42.5-49.1-59.8
				c-9.2-8.3-20.8-16.4-33-14.1c-10.4,2-17.9,11-22.7,20.4c-6.1,11.8-9.2,24.8-11.8,37.8c-6.6,33-10.4,66.6-11.1,100.2
				c-0.1,3.1-0.1,6.3,0.9,9.2c1,2.9,3.2,5.6,6.2,6.3c8.1,1.9,16.4-5.4,22.2-10.7c-0.2-3.8-0.2-6.9,0.2-8.7c2-9,56-48,88-57
				C821.9,313.4,844.6,318.6,847.5,312.1z"/>
		</g>
	</g>
	<g id="hat">
		<path fill="#888888" d="M567,614l60-25l68-37c0,0,160-68,166-70s291-32,291-32s138,22,145,19s31.9-18.1,31.9-18.1L1301,421v-9
			l16.3-12l-6.3-23l-112-61l-175-57l-34.4-14.2L874,235l-82.7,1.3l35.9,29.4L798,300l-64.2,55.1L678,395l-35,10l-20,1l-13.5-7.5
			L582,375l-47,157l1,73L567,614z"/>
		<path fill="#646568" d="M815,263.5l13.5,14.5c0,0,11-16.5,9.5-16.5s-16-2-16-2L815,263.5z"/>
		<path fill="none" d="M1141.1,394.7c0.1-0.1,0.1-0.1,0.1-0.2C1141.2,394.6,1141.2,394.6,1141.1,394.7z"/>
		<path fill="#646568" d="M811.1,233c2-0.2,4-0.4,6-0.5C815.1,232.7,813.1,232.8,811.1,233z"/>
		<path fill="#646568" d="M820.4,232.3c2.1-0.1,4.2-0.2,6.2-0.3C824.6,232.1,822.5,232.2,820.4,232.3z"/>
		<path fill="#646568" d="M817.2,232.5c1-0.1,2-0.1,3-0.2C819.2,232.4,818.2,232.5,817.2,232.5z"/>
		<path fill="#646568" d="M808,233.4c0.8-0.1,1.7-0.2,2.6-0.3C809.7,233.2,808.8,233.3,808,233.4z"/>
		<path fill="#646568" d="M826.8,232.1c1,0,1.9-0.1,2.9-0.1C828.7,232,827.7,232,826.8,232.1z"/>
		<path fill="#646568" d="M836.5,231.9c0.5,0,1.1,0,1.6,0C837.6,231.9,837.1,231.9,836.5,231.9z"/>
		<path fill="#646568" d="M829.9,232c1.9,0,3.8-0.1,5.7-0.1C833.8,231.9,831.9,231.9,829.9,232z"/>
		<path fill="#646568" d="M804.9,233.7c0.9-0.1,1.8-0.2,2.8-0.3C806.7,233.5,805.8,233.6,804.9,233.7z"/>
		<path fill="#646568" d="M816.9,265.2c-10.8-12.9-20.4-23.3-24-27.2C796.6,241.9,806.1,252.3,816.9,265.2z"/>
		<path fill="#646568" d="M792.8,237.9c-0.1-0.1-0.3-0.3-0.4-0.4C792.6,237.6,792.7,237.8,792.8,237.9z"/>
		<path fill="#646568" d="M802.2,234.1c0.7-0.1,1.4-0.2,2.1-0.3C803.6,233.9,802.9,234,802.2,234.1z"/>
		<path fill="#646568" d="M792.4,237.5c-0.8-0.8-1.2-1.2-1.2-1.2S791.7,236.7,792.4,237.5z"/>
		<path fill="#646568" d="M791.2,236.2c0.7-0.2,1.4-0.4,2.2-0.5C792.7,235.9,791.9,236.1,791.2,236.2z"/>
		<path fill="#646568" d="M799.3,234.6c0.7-0.1,1.4-0.2,2.2-0.4C800.7,234.3,800,234.4,799.3,234.6z"/>
		<path fill="#646568" d="M839.3,231.9c1.7,0,3.3,0.1,4.9,0.1C842.7,232,841,232,839.3,231.9z"/>
		<path fill="#646568" d="M796.5,235.1c0.8-0.2,1.6-0.3,2.4-0.4C798.1,234.8,797.3,234.9,796.5,235.1z"/>
		<path fill="#646568" d="M794.1,235.6c0.6-0.1,1.1-0.2,1.7-0.4C795.2,235.3,794.7,235.4,794.1,235.6z"/>
		<path fill="#646568" d="M853.7,232.6c0.5,0,1,0.1,1.5,0.2C854.7,232.7,854.2,232.7,853.7,232.6z"/>
		<path fill="#646568" d="M1007,253.7c4.3,1.9,20.2,8.4,32.3,11.9c12.1,3.5,44,16.4,51.8,18.8c7.8,2.5,12.4,4,26.4,6
			c14.1,1.9,25.8,8.7,37.7,12.4c11.9,3.7,20.9,5.7,30.2,9.8c3.5,1.6,7.7,1.1,12.9-0.4c-0.5-0.2-1-0.3-1.5-0.5
			c-52.4-16-84.1-25.4-103.8-31.1c-31.8-9.3-12.3-9.5-81.1-27.6c-2.6-0.7-1.7-2.7-7.4-4.9C1004.4,250.4,1004.9,252.8,1007,253.7z"/>
		<path fill="#646568" d="M893.2,236.2c0,0,0.9,0.1,2.6,0.2C894.2,236.3,893.2,236.2,893.2,236.2z"/>
		<path fill="#646568" d="M922.6,238.6c23.1,1.9,53.5,4.5,66.9,6.3C976.1,243.1,945.7,240.4,922.6,238.6z"/>
		<path fill="#646568" d="M855.6,232.8c0.6,0.1,1.1,0.1,1.7,0.2C856.7,232.9,856.2,232.9,855.6,232.8z"/>
		<path fill="#646568" d="M1332.5,432.8c-0.9-6.9-15.4-11.1-29-15c0,0,10.4-5.8,13.8-17.8c1.1-3.9,1.6-7.7,1.3-11.5
			c-1.7,4.9-4.9,9.2-10.6,11.8c-20.4,9.1-87.9,3.5-130,1.1c-37.1-2.2-37.3-5.8-36.8-6.6c-0.7,0.7-3.8,3.6-12.2,3
			c-9.6-0.7-6.4-5.3-6.4-5.3c-13.5,10-32.7,4.6-59.7,10.3c-27,5.7-124,17.2-198.6,38.2s-113.5,28.4-167,60.9s-49,45.7-64.1,66.1
			s-36.8,34.1-41,28.4c-4.3-5.7-6.2-9.9-7.1-27c-0.9-17-6.2-19.9-13.5-36.6c-7.3-16.7-15.1-33.4-13.9-52.9
			c1.2-19.5,13.5-32.5,18.8-38.9s5.5-12.3,21-24.7c3-2.4,10.3-8.4,20.3-14.8c-7.5-2.6-14.3-7.1-19.7-14.4c-4.5-6-3-14.5,1.1-23.2
			c2.3-11.3,9.8-36.6,33.5-83.2c0,0-21.9,6-54,21.6s-51.5,31.5-58,41.8s-15.9,19.5-19,26s-1.9,19.9-3.2,36.2s-3.8,30-3.5,43.2
			s5.6,52.2,11.2,82.2c5.6,30,13.4,36.8,13.8,43.2s-4.9,16.9-1,34.8c3.3,15.2,20.8,26.8,32.5,28.2c3,0.3,5.7-1.5,6.8-4.3
			c1.7-4.2,7.9-11.7,28.9-23.3c35-19.3,105.6-56,254.6-100.7s190.7-38.3,266-41.3c73.2-2.9,148.1,12.1,172.7,18.1
			c1.3,0.3,2.7,0.2,3.9-0.4c5.1-2.3,19.2-9.3,32.9-21.8c5.6-5.1,9.2-9.5,11.6-13.3C1333.7,443,1333.1,437.4,1332.5,432.8z"/>
		<path fill="#646568" d="M844.3,232.1c3.3,0.1,6.4,0.3,9.1,0.5C850.7,232.3,847.7,232.2,844.3,232.1z"/>
		<path fill="#646568" d="M989.7,244.9c0.3,0,0.5,0.1,0.8,0.1C990.2,245,990,244.9,989.7,244.9z"/>
		<path fill="#646568" d="M990.8,245c0.2,0,0.4,0.1,0.6,0.1C991.2,245.1,991,245.1,990.8,245z"/>
		<path fill="#888888" d="M798.9,234.6c0.1,0,0.3,0,0.4-0.1C799.2,234.6,799,234.6,798.9,234.6z"/>
		<path fill="#888888" d="M801.5,234.2c0.2,0,0.5-0.1,0.8-0.1C802,234.1,801.7,234.2,801.5,234.2z"/>
		<path fill="#888888" d="M990.5,245c0.1,0,0.2,0,0.3,0C990.7,245,990.6,245,990.5,245z"/>
		<path fill="#888888" d="M792.4,237.5L792.4,237.5L792.4,237.5z"/>
		<path fill="#888888" d="M795.8,235.2c0.2,0,0.4-0.1,0.7-0.1C796.3,235.1,796.1,235.2,795.8,235.2z"/>
		<path fill="#888888" d="M792.9,238C792.8,238,792.8,237.9,792.9,238C792.8,237.9,792.8,238,792.9,238z"/>
		<path fill="#888888" d="M991.4,245.1c0.3,0,0.6,0.1,0.9,0.1C992,245.2,991.7,245.2,991.4,245.1z"/>
		<path fill="#888888" d="M793.4,235.7c0.2-0.1,0.5-0.1,0.7-0.2C793.9,235.6,793.6,235.7,793.4,235.7z"/>
		<path fill="#888888" d="M807.7,233.4c0.1,0,0.2,0,0.3,0C807.9,233.4,807.8,233.4,807.7,233.4z"/>
		<path fill="#888888" d="M829.7,232c0.1,0,0.2,0,0.3,0C829.8,232,829.7,232,829.7,232z"/>
		<path fill="#888888" d="M835.6,231.9c0.3,0,0.6,0,0.9,0C836.2,231.9,835.9,231.9,835.6,231.9z"/>
		<path fill="#888888" d="M804.4,233.8c0.2,0,0.3,0,0.5-0.1C804.7,233.7,804.5,233.8,804.4,233.8z"/>
		<path fill="#888888" d="M839,231.9c-0.3,0-0.5,0-0.8,0c0.4,0,0.8,0,1.2,0C839.2,231.9,839.1,231.9,839,231.9z"/>
		<path fill="#888888" d="M826.6,232.1L826.6,232.1C826.7,232.1,826.7,232.1,826.6,232.1z"/>
		<path fill="#888888" d="M853.4,232.6c0.1,0,0.2,0,0.3,0C853.6,232.6,853.5,232.6,853.4,232.6z"/>
		<path fill="#888888" d="M855.2,232.8c0.1,0,0.3,0,0.4,0C855.5,232.8,855.4,232.8,855.2,232.8z"/>
		<path fill="#888888" d="M844.2,232C844.3,232.1,844.3,232.1,844.2,232C844.3,232.1,844.3,232.1,844.2,232z"/>
		<path fill="#888888" d="M810.6,233.1c0.2,0,0.4,0,0.5-0.1C810.9,233.1,810.7,233.1,810.6,233.1z"/>
		<path fill="#888888" d="M989.6,244.9c0.1,0,0.1,0,0.2,0C989.7,244.9,989.6,244.9,989.6,244.9z"/>
		<path fill="#888888" d="M897.9,236.6c-0.8-0.1-1.5-0.1-2-0.2c4.5,0.3,14.7,1.1,26.8,2.1C912.1,237.7,903,237,897.9,236.6z"/>
		<path fill="#888888" d="M820.2,232.4c0.1,0,0.1,0,0.2,0C820.3,232.3,820.3,232.4,820.2,232.4z"/>
		<path fill="#888888" d="M817.1,232.5L817.1,232.5C817.2,232.5,817.1,232.5,817.1,232.5z"/>
		<path fill="#888888" d="M576.4,440.9c-5.3,6.4-17.6,19.3-18.8,38.9c-1.2,19.5,6.6,36.2,13.9,52.9c7.3,16.7,12.6,19.5,13.5,36.6
			s2.8,21.3,7.1,27s25.9-8,41-28.4s10.7-33.6,64.1-66.1c53.5-32.5,92.4-39.9,167-60.9s171.6-32.5,198.6-38.2s46.2-0.4,59.7-10.3
			c0,0-3.2,4.6,6.4,5.3c8.4,0.6,11.6-2.3,12.2-3c0-0.1,0.1-0.1,0.1-0.2c0,0-0.1,0.1-0.1,0.2c-0.5,0.8-0.3,4.4,36.8,6.6
			c42.1,2.5,109.6,8,130-1.1c5.7-2.5,8.9-6.8,10.6-11.8c-0.6-7.8-4.3-15.6-12-24.2c-11.4-12.6-56.5-36-108.2-52
			c-5.2,1.4-9.4,1.9-12.9,0.4c-9.2-4.1-18.2-6.1-30.2-9.8c-11.9-3.7-23.6-10.5-37.7-12.4s-18.6-3.5-26.4-6
			c-7.9-2.5-39.8-15.3-51.8-18.8c-12.1-3.6-28-10-32.3-11.9c-2-0.9-2.5-3.3-2.5-5.5c-2.5-1-6.3-1.9-12.2-2.9c-0.3,0-0.6-0.1-0.9-0.1
			c-0.2,0-0.4-0.1-0.6-0.1c-0.1,0-0.2,0-0.3,0c-0.2,0-0.5-0.1-0.8-0.1c-0.1,0-0.1,0-0.2,0c-13.4-1.8-43.9-4.4-66.9-6.3
			c-12.1-1-22.3-1.8-26.8-2.1c-1.7-0.1-2.6-0.2-2.6-0.2s-22-1.4-36-3.2c-0.5-0.1-1.1-0.1-1.7-0.2c-0.1,0-0.2,0-0.4,0
			c-0.5-0.1-1-0.1-1.5-0.2c-0.1,0-0.2,0-0.3,0c-2.7-0.2-5.7-0.4-9.1-0.5h-0.1c-1.6-0.1-3.2-0.1-4.9-0.1c-0.4,0-0.8,0-1.2,0
			c-0.5,0-1.1,0-1.6,0c-0.3,0-0.6,0-0.9,0c-1.9,0-3.8,0-5.7,0.1c-0.1,0-0.2,0-0.3,0c-1,0-1.9,0-2.9,0.1h-0.1
			c-2.1,0.1-4.1,0.2-6.2,0.3c-0.1,0-0.1,0-0.2,0c-1,0.1-2,0.1-3,0.2H817c-2,0.1-4,0.3-6,0.5c-0.2,0-0.4,0-0.5,0.1
			c-0.9,0.1-1.7,0.2-2.6,0.3c-0.1,0-0.2,0-0.3,0c-0.9,0.1-1.9,0.2-2.8,0.3c-0.2,0-0.3,0-0.5,0.1c-0.7,0.1-1.4,0.2-2.1,0.3
			c-0.3,0-0.5,0.1-0.8,0.1c-0.7,0.1-1.5,0.2-2.2,0.4c-0.1,0-0.3,0-0.4,0.1c-0.8,0.1-1.6,0.3-2.4,0.4c-0.2,0-0.4,0.1-0.7,0.1
			c-0.6,0.1-1.2,0.2-1.7,0.4c-0.2,0.1-0.5,0.1-0.7,0.2c-0.7,0.2-1.5,0.3-2.2,0.5c0,0,0.4,0.4,1.2,1.2l0,0c0.1,0.1,0.2,0.3,0.4,0.4
			c0,0,0,0,0.1,0.1c3.7,4,13.2,14.3,24,27.2l0,0c6.3-0.7,14,0.9,9.1,5.8c-40,44-83,76-133,111c-21.3,15.2-51.7,27.5-75.3,19.4
			c-10,6.4-17.3,12.4-20.3,14.8C581.9,428.6,581.8,434.5,576.4,440.9z"/>
		<path fill="#888888" d="M1332.5,432.8c-0.9-6.9-15.4-11.1-29-15c-35.3-4.4-83.5-13.4-142.3-12.6s-117.8,3.4-215.7,21.7
			s-189.4,50.4-225.2,69.6s-78.2,55.2-87.2,84.5c-0.3,1.1,24.9-33,72.7-60s106.8-51.2,203.9-72.8s213.2-35.5,310.9-27.4
			c77.1,6.4,105.2,15.3,108.3,30.1C1333.7,443,1333.1,437.4,1332.5,432.8z"/>
		<g>
			<path fill="none" d="M1141.1,394.7c0.1-0.1,0.1-0.2,0.1-0.2S1141.2,394.6,1141.1,394.7z"/>
			<path fill="none" stroke="#888888" stroke-miterlimit="10" d="M1306.5,364.2c-11.4-12.6-56.5-36-108.2-52
				c-5.2,1.4-9.4,1.9-12.9,0.4c-9.2-4.1-18.2-6.1-30.2-9.8c-11.9-3.7-23.6-10.5-37.7-12.4s-18.6-3.5-26.4-6
				c-7.9-2.5-39.8-15.3-51.8-18.8c-12.1-3.6-28-10-32.3-11.9c-2-0.9-2.5-3.3-2.5-5.5c-2.5-1-6.3-1.9-12.2-2.9
				c-16.6-2.6-77.1-7.3-94.4-8.7c-2.9-0.2-4.6-0.3-4.6-0.3s-22-1.4-36-3.2c-4.5-0.6-11-1-18.3-1.1c-15.6-0.2-35.1,1-47.7,4.3
				c0,0,11.8,12.4,25.7,29c6.3-0.7,14,0.9,9.1,5.8c-40,44-83,76-133,111c-21.3,15.2-51.7,27.5-75.3,19.4
				c-10,6.4-17.3,12.4-20.3,14.8c-15.5,12.4-15.6,18.3-21,24.7c-5.3,6.4-17.6,19.3-18.8,38.9c-1.2,19.5,6.6,36.2,13.9,52.9
				c7.3,16.7,12.6,19.5,13.5,36.6s2.8,21.3,7.1,27s25.9-8,41-28.4s10.7-33.6,64.1-66.1c53.5-32.5,92.4-39.9,167-60.9
				s171.6-32.5,198.6-38.2s46.2-0.4,59.7-10.3c0,0-3.2,4.6,6.4,5.3c8.4,0.6,11.6-2.3,12.2-3c0-0.1,0.1-0.1,0.1-0.2
				c0,0-0.1,0.1-0.1,0.2c-0.5,0.8-0.3,4.4,36.8,6.6c42.1,2.5,109.6,8,130-1.1c5.7-2.5,8.9-6.8,10.6-11.8
				C1317.9,380.6,1314.2,372.8,1306.5,364.2z"/>
			<path fill="#62656A" d="M885.5,244.8c8.4-1.8,11.3-5.5,12.4-8.2c-2.9-0.2-4.6-0.4-4.6-0.4s-22-1.4-36-3.2c-4.5-0.6-11-1-18.3-1.1
				c8.7,6.8,13.2,10.7,18.5,12.6C864.1,246.8,874.7,247.2,885.5,244.8z"/>
		</g>
		<path fill="#62656A" d="M712.6,498.5c-1.4,0.3-2.8,0.8-4.3,0.9c-0.1,0-0.2,0-0.2,0c0.2,1.6-0.1,3.2-1.6,4c-1,0.6-2.3,0.1-2.7-0.9
			c-0.1,0.2-0.3,0.4-0.6,0.5c-0.9,0.4-1.6,0.8-2.6,0.9c-0.2,0-0.5,0-0.7,0c0,1.5-0.3,2.9-1.1,4.3c-1.5,2.7-5.3-0.2-3.7-2.3
			c0.5-0.9,0.6-1.8,0.5-2.9c-0.2-1.3-0.1-2.5,1.2-3.3c1-0.6,2.2-0.5,3.3-0.3c1.1,0.3,2,1,3.1,1.3c0.2,0,0.3,0.1,0.4,0.2
			c0-0.3,0.1-0.6,0.1-1c0-0.8-0.4-1.6-0.7-2.4c-0.9-2.1,0.9-4,3.1-3.1c1.1,0.5,2.2,0.4,3.4,0.4c1.3,0,2.4,0.4,3.6,1.1
			C713.9,496.6,713.8,498.3,712.6,498.5z"/>
		<path fill="#62656A" d="M720.3,491.2c-0.2,2.2-4,1.5-5,3.2c-0.2,0.3-0.6,0.5-1,0.4c-1-0.4-1.6-1.2-1.6-2.3c-0.1-1.1,0.3-3,1.1-3.8
			c0.3-0.2,0.6-0.1,0.7,0.2c0,0.1,0.1,0.2,0.1,0.4c0.4-0.4,1.1-0.5,1.4,0.2c0.1,0.2,0.2,0.4,0.2,0.7c0.8,0.1,1.6,0,2.5-0.1
			C719.7,489.9,720.4,490.3,720.3,491.2z"/>
		<path fill="#62656A" d="M1096.2,403c2.8-0.6,5.6-1,8.5-1.4c1.4-0.2,2.8-0.5,4.2-0.8c0.6-0.1,2.7-1,3.1-0.9c1,0.2,2.4,2.2,3.6,2.6
			c1.7,0.6,2.7,0.5,4.1-0.6c1.1-0.8,1.2-2.9-0.4-3.2c-3.3-0.5-4.9-3-8.1-2.4c-5.3,1.1-10.3,3.3-15.6,4.7
			C1094.5,401.5,1095,403.3,1096.2,403L1096.2,403z"/>
		<g>
			<g>
				<path fill="#62656A" d="M895.7,235.8c0,6.8-9,9.1-22.1,9.1s-23.7-5.5-23.7-12.2c0-3.8,2.2-7.3,7-9.2c3.7-1.5,9.1-2.1,16.2-1.1
					c12,1.6,21.2,6,22.5,12C895.6,234.8,895.7,235.3,895.7,235.8z"/>
			</g>
			<path fill="#888888" d="M854.7,235.7c2.2,5.2,13.2,5.5,20.9,5.3c6.6-0.2,18.5,0.6,19.9-6.6c-1.3-6-10.5-10.4-22.5-12
				c-7.1-1-12.4-0.4-16.2,1.1C853,228.8,853,231.6,854.7,235.7z"/>
		</g>
		<path fill="#62656A" d="M594.4,594.1c0.7-0.2,1.3-0.6,2-0.9c0.7-0.3,1.3-0.8,1.8-1.3c1.1-1.1-0.3-3-1.7-2.2
			c-0.6,0.4-1.2,0.8-1.7,1.3s-1,0.9-1.4,1.4C592.8,593.2,593.3,594.4,594.4,594.1L594.4,594.1z"/>
		<path fill="#62656A" d="M600.4,589.6c0.7,0,1.4-0.4,2.1-0.7c0.7-0.3,1.4-0.6,2.1-1c1.5-0.7,0.2-3-1.3-2.2
			c-0.6,0.3-1.3,0.7-1.9,1.1c-0.6,0.3-1.3,0.6-1.7,1.1C599.1,588.5,599.5,589.5,600.4,589.6L600.4,589.6z"/>
		<path fill="#62656A" d="M609.1,585c0.6-0.1,1.2-0.5,1.8-0.8s1.2-0.6,1.8-0.8c1.4-0.6,0.2-3-1.3-2.1c-0.6,0.3-1.1,0.7-1.7,1
			c-0.5,0.3-1.2,0.7-1.6,1.2C607.5,584.2,608.1,585.2,609.1,585L609.1,585z"/>
		<path fill="#62656A" d="M617.8,581c1.1-0.3,2.1-0.7,3.1-1.2c0.7-0.4,1-1.4,0.6-2.1c-0.5-0.8-1.4-0.9-2.1-0.6
			c-0.9,0.4-1.7,1-2.6,1.6c-0.5,0.4-0.8,1-0.5,1.6C616.6,580.8,617.2,581.2,617.8,581L617.8,581z"/>
		<g>
			<path fill="none" d="M1141.1,394.7c0.1-0.1,0.1-0.1,0.1-0.2C1141.2,394.6,1141.2,394.6,1141.1,394.7z"/>
			<path fill="none" d="M866.9,244.9c0.3-0.2,0.6-0.4,0.8-0.7h-0.1c-0.3,0-0.7,0-1,0C866.8,244.4,867,244.7,866.9,244.9z"/>
			<path fill="#62656A" d="M929.7,239.6c-0.2,0-0.4,0-0.6,0c0.4,0.4,0.7,0.8,1.1,1.2c2.3,0,4.6-0.1,6.9-0.1c-0.2-0.4-0.5-0.7-0.7-1
				c-0.5,0-1.1-0.1-1.6-0.1C933.1,239.6,931.4,239.6,929.7,239.6z"/>
			<path fill="#62656A" d="M939.8,240.7c2.1,0,4.2,0,6.3,0c0-0.1,0-0.1,0-0.2c-2.3-0.2-4.5-0.4-6.8-0.6
				C939.4,240.2,939.6,240.5,939.8,240.7z"/>
			<path fill="#62656A" d="M909.9,241.4c3.1-0.1,6.3-0.2,9.5-0.3c-0.2-0.3-0.5-0.7-0.7-1.1c-3.3,0.1-6.5,0.3-9.8,0.5
				C909.2,240.8,909.6,241.1,909.9,241.4z"/>
			<path fill="#62656A" d="M922.5,241c1.8,0,3.5-0.1,5.3-0.1c-0.3-0.4-0.6-0.8-0.9-1.1c-1.8,0-3.6,0.1-5.4,0.2
				C921.8,240.3,922.1,240.6,922.5,241z"/>
			<path fill="#62656A" d="M891.5,242.3c4.8-0.3,9.6-0.6,14.4-0.8c-0.3-0.3-0.6-0.6-0.9-0.8c-4.5,0.3-9,0.5-13.4,0.8
				C891,241.6,891,242.4,891.5,242.3z"/>
			<path fill="#62656A" d="M984.6,250.6c-2-0.2-4-0.4-6-0.6c0.1,0.5,0.3,1,0.4,1.5c1.8,0.2,3.6,0.4,5.4,0.5c0.2,0,0.4,0,0.6,0.1
				C984.9,251.6,984.7,251.1,984.6,250.6z"/>
			<path fill="#62656A" d="M1007,253.7c-0.4-0.2-0.7-0.4-0.9-0.6c-1.6-0.2-3.2-0.5-4.8-0.7c0.1,0.3,0.2,0.6,0.2,0.9
				c0.1,0.4,0.2,0.7,0.3,1.1c3.1,0.4,6.1,0.7,9.2,1C1009.2,254.6,1007.8,254,1007,253.7z"/>
			<path fill="#62656A" d="M996.6,251.8c-2.2-0.2-4.5-0.5-6.7-0.7c0.2,0.5,0.4,1.1,0.6,1.6c2.2,0.3,4.3,0.6,6.5,0.9
				C996.8,253.1,996.7,252.5,996.6,251.8z"/>
			<path fill="#62656A" d="M975.3,249.7c-1.9-0.2-3.8-0.4-5.8-0.5c0.1,0.5,0.3,1,0.4,1.5c1.9,0.2,3.8,0.3,5.7,0.5
				C975.5,250.7,975.4,250.2,975.3,249.7z"/>
			<path fill="#62656A" d="M966.3,248.9c-1.5-0.1-3.1-0.2-4.6-0.3c0.1,0.5,0.3,0.9,0.4,1.4c1.5,0.1,3,0.3,4.6,0.4
				C966.5,249.9,966.4,249.4,966.3,248.9z"/>
			<path fill="#62656A" d="M932.3,246.9c-1.6-0.1-3.2-0.1-4.8-0.2c0.4,0.5,0.7,0.9,1.1,1.4c1.6,0,3.2,0.1,4.8,0.2
				C933,247.9,932.6,247.4,932.3,246.9z"/>
			<path fill="#62656A" d="M941.2,247.4c-1.9-0.1-3.8-0.2-5.6-0.3c0.4,0.5,0.7,0.9,1.1,1.4c1.8,0.1,3.5,0.1,5.3,0.2
				C941.7,248.3,941.4,247.8,941.2,247.4z"/>
			<path fill="#62656A" d="M958.8,249.8c-0.1-0.5-0.2-0.9-0.4-1.4c-0.2,0-0.4,0-0.6,0c-2.3-0.1-4.6-0.3-6.9-0.4
				c0.2,0.4,0.3,0.9,0.5,1.3c2,0.1,3.9,0.3,5.9,0.4C957.9,249.7,958.4,249.7,958.8,249.8z"/>
			<path fill="#62656A" d="M911.3,246.6c-2.9,0-5.8,0.1-8.7,0.2c-0.3,0-0.3,0.5,0,0.5c3.3,0.1,6.5,0.2,9.8,0.4
				C912.1,247.4,911.7,247,911.3,246.6z"/>
			<path fill="#62656A" d="M947.8,247.7c-1.3-0.1-2.5-0.2-3.8-0.2c0.2,0.4,0.5,0.9,0.7,1.3c1.2,0.1,2.4,0.1,3.6,0.2
				C948.1,248.6,947.9,248.2,947.8,247.7z"/>
			<path fill="#62656A" d="M924.6,248.1c-0.3-0.5-0.6-1-0.9-1.4c-2.7-0.1-5.3-0.1-8-0.1c0.4,0.4,0.9,0.8,1.3,1.3
				C919.5,248,922,248,924.6,248.1z"/>
			<path fill="#62656A" d="M972.4,274.9c-1.9-0.5-3.7-1.1-5.6-1.6c-0.7,0.3-1.3,0.5-1.9,0.8c0,0,0,0-0.1,0c2.2,0.7,4.4,1.3,6.6,2
				C971.7,275.6,972.1,275.3,972.4,274.9z"/>
			<path fill="#62656A" d="M961.7,271.7c-2.1-0.7-4.2-1.3-6.4-2c-0.5,0.3-0.9,0.7-1.4,1c2,0.6,4,1.3,5.9,1.9
				C960.4,272.2,961,271.9,961.7,271.7z"/>
			<path fill="#62656A" d="M923,259.8c0.5-0.3,1-0.5,1.6-0.8c-1.2-0.5-2.4-0.9-3.5-1.4c-0.4,0.3-0.9,0.6-1.4,0.8
				c0.3,0.1,0.6,0.2,0.9,0.3C921.4,259.2,922.2,259.5,923,259.8z"/>
			<path fill="#62656A" d="M916.6,255.8c-1.1-0.5-2.2-0.9-3.2-1.4c-0.3,0.3-0.7,0.6-1.1,0.9c0.9,0.4,1.8,0.8,2.8,1.2
				C915.6,256.3,916.1,256.1,916.6,255.8z"/>
			<path fill="#62656A" d="M907.5,253.1c0.5-0.2,1.1-0.4,1.6-0.7c-2.5-1.2-5.1-2.5-7.5-3.8c0,0.1,0,0.3,0,0.4c0,0.3-0.1,0.6-0.2,0.9
				C903.4,251.1,905.5,252.2,907.5,253.1z"/>
			<path fill="#62656A" d="M984.8,278.5c-3.1-0.9-6.1-1.7-9.2-2.6c-0.3,0.4-0.6,0.8-0.8,1.2c2.7,0.8,5.4,1.6,8.2,2.4
				C983.6,279.1,984.2,278.8,984.8,278.5z"/>
			<path fill="#62656A" d="M936.2,264c-0.3,0.1-0.5,0.3-0.8,0.4c1.2,0.4,2.4,0.8,3.6,1.3c0.5-0.3,1-0.6,1.6-0.9
				c-1.3-0.4-2.5-0.9-3.8-1.3C936.6,263.7,936.4,263.9,936.2,264z"/>
			<path fill="#62656A" d="M929,262.1c0.5,0.2,1.1,0.4,1.6,0.6c0.5-0.3,1.1-0.5,1.6-0.8c-0.4-0.2-0.8-0.3-1.3-0.5
				c-0.5,0.2-1,0.3-1.6,0.5C929.2,262,929.1,262,929,262.1z"/>
			<path fill="#62656A" d="M949.9,267.9c-1.1-0.4-2.2-0.7-3.2-1.1c-0.6,0.3-1.3,0.5-1.9,0.8c1.3,0.4,2.6,0.9,3.9,1.3
				C949.1,268.6,949.4,268.3,949.9,267.9z"/>
			<path fill="#62656A" d="M892.6,244.6c0,0.1,0.1,0.1,0.2,0.2c1.6,1.1,3.2,2.1,4.9,3.1c0.6-0.2,1.1-0.3,1.7-0.5
				c-1.6-0.9-3.1-1.8-4.6-2.7C894,244.7,893.3,244.7,892.6,244.6z"/>
			<path fill="#62656A" d="M1007.6,286.4c0.6-0.3,1.2-0.7,1.8-1c-1.7-0.5-3.3-0.9-5-1.4c-0.5,0.4-1.1,0.7-1.7,1
				C1004.3,285.5,1006,285.9,1007.6,286.4z"/>
			<path fill="#62656A" d="M997.3,283.5c0.6-0.4,1.1-0.7,1.6-1.1c-2.4-0.7-4.8-1.4-7.2-2c-0.7,0.3-1.5,0.6-2.2,0.9
				C992.1,282,994.7,282.8,997.3,283.5z"/>
			<path fill="#62656A" d="M1013.4,288c1.2,0.4,2.5,0.7,3.7,1.1c2.1,0.6,4.2,1.2,6.3,1.8c0.7-0.2,1.5-0.5,2.2-0.8
				c-3.4-1-6.8-2-10.2-2.9c-0.6,0.3-1.1,0.5-1.6,0.8C1013.6,287.9,1013.5,288,1013.4,288z"/>
			<path fill="#62656A" d="M1037.7,295c0.6-0.3,1.3-0.6,1.9-0.9c-2.7-0.8-5.3-1.6-8-2.3c-0.3,0.1-0.7,0.3-1,0.4
				c-0.4,0.1-0.7,0.3-1.1,0.4C1032.3,293.4,1035,294.2,1037.7,295z"/>
			<path fill="#62656A" d="M1045.8,295.9c-0.8,0.3-1.6,0.5-2.3,0.8l0,0c3.3,1,6.5,2.1,9.8,3.2c0.5-0.2,1-0.4,1.4-0.6
				c0-0.4-0.1-0.8-0.6-0.9C1051.3,297.6,1048.5,296.8,1045.8,295.9z"/>
			<path fill="#62656A" d="M1144.4,386.6c-0.5,0-1.1-0.1-1.6-0.2c-0.5,1.4-1,2.8-1.6,4.3c0.5,0.1,1.1,0.2,1.6,0.2
				C1143.4,389.5,1143.9,388,1144.4,386.6z"/>
			<path fill="#62656A" d="M1059.4,301.4c0,0.3,0.2,0.5,0.5,0.6c2,0.7,3.9,1.5,5.9,2.2c0.6-0.3,1.2-0.7,1.9-1
				c-2.2-0.9-4.5-1.7-6.7-2.4C1060.5,301,1060,301.2,1059.4,301.4C1059.5,301.4,1059.5,301.4,1059.4,301.4z"/>
			<path fill="#62656A" d="M1111.1,326.7c1.8,1.2,3.5,2.4,5.2,3.7c0.6-0.2,1.2-0.3,1.8-0.5c-0.3-0.2-0.5-0.4-0.8-0.6
				c-2.5-1.9-5.1-3.7-7.8-5.4c-0.7,0.2-1.3,0.4-2,0.6C1108.8,325.2,1110,325.9,1111.1,326.7z"/>
			<path fill="#62656A" d="M1143,360.2c-0.5,0-1,0.1-1.6,0.1c1,2.2,1.9,4.4,2.5,6.7c0.5-0.1,1-0.1,1.5-0.2
				C1144.9,364.5,1144.1,362.3,1143,360.2z"/>
			<path fill="#62656A" d="M1128.2,339.3c-1.8-2-3.7-3.9-5.7-5.7c-0.4,0.1-0.8,0.2-1.2,0.3c-0.2,0.1-0.4,0.1-0.6,0.2
				c2,1.8,3.9,3.6,5.7,5.5C1127,339.5,1127.6,339.4,1128.2,339.3z"/>
			<path fill="#62656A" d="M1145.8,381.7c0.6-2.8,0.9-5.6,0.7-8.5c0-0.7-0.1-1.5-0.2-2.2c-0.1,0-0.1,0-0.2,0c-0.4,0-0.9,0.1-1.3,0.1
				c0.4,3.6,0.1,7.1-0.7,10.6C1144.7,381.7,1145.3,381.7,1145.8,381.7z"/>
			<path fill="#62656A" d="M1076.6,308.6c0.7-0.3,1.3-0.5,2-0.8c-1.9-0.8-3.8-1.7-5.7-2.4c-0.6,0.3-1.3,0.6-1.9,0.9
				C1072.8,307,1074.7,307.8,1076.6,308.6z"/>
			<path fill="#62656A" d="M1087.9,313.7c0.6-0.2,1.2-0.5,1.8-0.7c-1.9-0.9-3.8-1.9-5.7-2.8c-0.6,0.3-1.3,0.5-1.9,0.8
				C1084,311.9,1086,312.8,1087.9,313.7z"/>
			<path fill="#62656A" d="M1105.2,321.3c-3.4-2-7-3.9-10.5-5.7c-0.6,0.2-1.1,0.5-1.7,0.7c3.4,1.7,6.8,3.6,10.1,5.5
				C1103.8,321.6,1104.5,321.4,1105.2,321.3z"/>
			<path fill="#62656A" d="M1131.8,343.4c-0.6,0-1.3,0.1-1.9,0.1c0.4,0.5,0.9,1,1.3,1.5c2.8,3.4,5.6,7,7.9,10.8
				c0.5-0.1,1-0.2,1.5-0.3c-1.3-2.1-2.6-4.1-4.1-6.1C1135,347.4,1133.4,345.4,1131.8,343.4z"/>
			<path fill="#62656A" d="M1140.4,395.4c-0.4-0.1-0.8-0.2-1.2-0.3c-0.2,0.5-0.5,0.9-0.7,1.4
				C1139.3,396.1,1139.9,395.7,1140.4,395.4z"/>
			<path fill="#62656A" d="M1109.5,358.9c-0.7-1.1-1.5-2.1-2.2-3.2c-0.5,0.3-1,0.5-1.4,0.8c1.2,1.6,2.3,3.2,3.3,4.9
				c0.5-0.2,1-0.5,1.5-0.7C1110.3,360.1,1109.9,359.5,1109.5,358.9z"/>
			<path fill="#62656A" d="M1071.4,325.2c-0.3,0.1-0.5,0.3-0.8,0.4c-0.2,0.1-0.5,0.3-0.7,0.4c1.2,0.7,2.3,1.5,3.5,2.2
				c0.5-0.3,1-0.6,1.5-0.9C1073.7,326.7,1072.5,326,1071.4,325.2z"/>
			<path fill="#62656A" d="M1111.3,365.6c0.9,2.1,1.7,4.4,2.2,6.7c0.3,1.2,0.5,2.3,0.6,3.5c0.5-0.1,1-0.3,1.5-0.5
				c-0.5-3.6-1.4-7.1-2.8-10.4C1112.2,365.2,1111.8,365.4,1111.3,365.6z"/>
			<path fill="#62656A" d="M1104.4,352c-1.9-2.3-3.9-4.5-6.1-6.6c-0.5,0.3-1,0.6-1.5,0.9c0.7,0.7,1.4,1.4,2.2,2.2
				c1.3,1.4,2.7,2.8,3.9,4.3C1103.4,352.5,1103.9,352.2,1104.4,352z"/>
			<path fill="#62656A" d="M1115.5,390.6c-0.1,0-0.3,0-0.4,0c-0.4,0-0.8,0-1.1,0c-0.3,2.1-0.7,4.3-1.3,6.4c0.6-0.2,1.2-0.3,1.7-0.5
				C1114.9,394.6,1115.2,392.6,1115.5,390.6z"/>
			<path fill="#62656A" d="M1079.6,330.5c-0.2,0.1-0.5,0.3-0.7,0.4c-0.3,0.2-0.6,0.3-0.9,0.5c1.6,1.1,3.2,2.2,4.8,3.3
				c0.6-0.2,1.1-0.5,1.7-0.7C1082.9,332.7,1081.3,331.6,1079.6,330.5z"/>
			<path fill="#62656A" d="M1094.7,342c-1.9-1.7-3.9-3.3-5.9-4.9c-0.5,0.3-1.1,0.5-1.7,0.8c2.1,1.6,4.1,3.3,6,5
				c0.5-0.3,0.9-0.5,1.4-0.8C1094.6,342,1094.6,342,1094.7,342z"/>
			<path fill="#62656A" d="M1114.8,386.4c0.4,0,0.8-0.1,1.2-0.1c0.1-2.3,0.2-4.5,0-6.8c-0.5,0.1-1,0.2-1.5,0.2
				c0.1,2.2,0.1,4.4-0.1,6.7C1114.5,386.4,1114.6,386.4,1114.8,386.4z"/>
			<path fill="#62656A" d="M1062,319.4c-0.4,0.2-0.8,0.4-1.2,0.6c-0.1,0.1-0.3,0.1-0.4,0.2c1.7,1,3.4,2.1,5.2,3.2
				c0.5-0.3,0.9-0.6,1.4-0.9c-1.1-0.7-2.2-1.4-3.3-2.1C1063.1,320.1,1062.6,319.8,1062,319.4z"/>
			<path fill="#62656A" d="M1057.3,316.5c-1.7-1-3.4-2-5.2-2.8c-0.6,0.3-1.2,0.5-1.8,0.7c0,0,0.1,0.1,0.2,0.1c1.7,0.9,3.4,1.9,5,2.9
				C1056.1,317.1,1056.7,316.8,1057.3,316.5z"/>
			<path fill="#62656A" d="M997.9,292.5c-0.6,0.3-1.3,0.6-2,0.8c0.8,0.3,1.6,0.6,2.4,0.9c0.6-0.3,1.2-0.6,1.8-0.9
				C999.4,293.1,998.6,292.8,997.9,292.5z"/>
			<path fill="#62656A" d="M985.8,288.3c-0.4,0.4-0.9,0.8-1.3,1.1c1.7,0.6,3.4,1.1,5.1,1.7c0.7-0.3,1.4-0.5,2.1-0.8
				C989.7,289.6,987.8,289,985.8,288.3z"/>
			<path fill="#62656A" d="M912.4,265.1c-0.5,0.3-1,0.6-1.6,0.9c1.4,0.6,2.9,1.2,4.3,1.8c0.4-0.4,0.9-0.7,1.3-1
				C915.1,266.2,913.7,265.6,912.4,265.1z"/>
			<path fill="#62656A" d="M979.3,287.1c0.4-0.2,0.8-0.4,1.3-0.6c-1-0.3-2.1-0.7-3.1-1c-2.3-0.7-4.7-1.5-7-2.1
				c-0.3,0.4-0.6,0.8-0.9,1.3c0.5,0.2,1,0.3,1.5,0.5c2.5,0.7,5,1.5,7.4,2.3C978.8,287.4,979,287.2,979.3,287.1z"/>
			<path fill="#62656A" d="M949.7,277.5c-0.5,0.4-1,0.7-1.5,1c2.1,0.6,4.2,1.2,6.2,1.8c0.4-0.4,0.8-0.8,1.2-1.1
				C953.6,278.7,951.7,278.1,949.7,277.5z"/>
			<path fill="#62656A" d="M921.4,268.7c-0.5,0.3-0.9,0.7-1.4,1c1.3,0.5,2.6,1,3.9,1.4c0.5-0.3,1-0.6,1.5-1
				C924.1,269.6,922.7,269.1,921.4,268.7z"/>
			<path fill="#62656A" d="M966.4,282.3c-1.8-0.5-3.6-1-5.4-1.5l0,0c-0.6,0.3-1.1,0.6-1.7,1c2.1,0.6,4.1,1.2,6.2,1.8
				c0.1-0.1,0.2-0.3,0.3-0.4C966,282.8,966.2,282.5,966.4,282.3z"/>
			<path fill="#62656A" d="M899,258.5c-0.4,0.3-0.9,0.7-1.3,1c3,1.7,6,3.2,9.1,4.7c0.5-0.3,0.9-0.7,1.4-1
				C905.1,261.8,902,260.2,899,258.5z"/>
			<path fill="#62656A" d="M889.4,252.8c0.1,0,0.2-0.1,0.3-0.1c-0.1-0.1-0.3-0.2-0.4-0.3c-0.1,0.1-0.2,0.2-0.4,0.3
				c-0.3,0.2-0.7,0.3-1.1,0.5c0,0,0.1,0,0.1,0.1c0,0,0,0,0.1,0C888.4,253.1,888.9,253,889.4,252.8z"/>
			<path fill="#62656A" d="M930.1,271.7c-0.4,0.4-0.9,0.7-1.4,1c1.1,0.4,2.1,0.7,3.2,1c0.5-0.3,1.1-0.7,1.6-1
				C932.3,272.4,931.2,272,930.1,271.7z"/>
			<path fill="#62656A" d="M939,274.5c-0.3,0.2-0.6,0.3-0.8,0.5c-0.3,0.2-0.6,0.3-0.8,0.5c1.8,0.6,3.7,1.1,5.5,1.6
				c0.5-0.3,1.1-0.7,1.6-1C942.6,275.5,940.8,275,939,274.5z"/>
			<path fill="#62656A" d="M1011.7,297.6c-1.8-0.7-3.6-1.3-5.4-2c-0.5,0.3-1.1,0.6-1.8,0.9c0.4,0.1,0.8,0.3,1.1,0.4
				c1.4,0.5,2.7,1,4.1,1.5C1010.5,298.2,1011.1,297.9,1011.7,297.6z"/>
			<path fill="#62656A" d="M1026.2,303.2c-0.5,0.2-1,0.5-1.4,0.7c-0.1,0.1-0.2,0.1-0.3,0.2c1.2,0.5,2.5,1,3.7,1.5
				c0.5-0.3,1-0.7,1.5-1C1028.5,304.1,1027.3,303.6,1026.2,303.2z"/>
			<path fill="#62656A" d="M1018.1,300c-0.6,0.3-1.3,0.5-2,0.8c1.1,0.4,2.2,0.8,3.2,1.3c0.5-0.3,1-0.6,1.5-0.9
				C1019.9,300.7,1019,300.4,1018.1,300z"/>
			<path fill="#62656A" d="M1043.9,310.1c-3-1.2-6-2.3-9-3.5c-0.6,0.3-1.2,0.6-1.8,0.9c3.5,1.4,6.9,2.8,10.4,4.2
				C1044.5,312,1044.9,310.4,1043.9,310.1z"/>
			<path fill="#62656A" d="M879.3,246.6c1.5,1.3,3,2.5,4.5,3.7c0.6-0.2,1.1-0.4,1.7-0.5c-1.8-1.3-3.6-2.7-5.3-4.2
				C879.6,245.1,878.7,246,879.3,246.6z"/>
			<path fill="#62656A" d="M840.5,239.2c0.4,0.4,0.8,0.9,1.1,1.3c5.4,0.3,10.9,0.5,16.3,0.2c0.8,0,0.8-1.3,0-1.3
				C852.1,239.7,846.3,239.5,840.5,239.2z"/>
			<path fill="#62656A" d="M835,238.9c-2.5-0.2-5.1-0.3-7.6-0.4c0.7,0.4,1.3,0.9,2,1.4c2.3,0.1,4.5,0.3,6.8,0.4
				C835.8,239.8,835.4,239.3,835,238.9z"/>
			<path fill="#62656A" d="M811.9,239.6c2.2-0.1,4.4-0.1,6.6-0.1c-0.3-0.4-0.5-0.8-0.8-1.2c-2.2,0-4.4,0.1-6.6,0.2
				C811.4,238.8,811.6,239.2,811.9,239.6z"/>
			<path fill="#62656A" d="M823.7,239.6c-0.5-0.4-0.9-0.9-1.4-1.3c-0.4,0-0.8,0-1.1,0c0.3,0.4,0.6,0.8,0.9,1.3
				C822.6,239.5,823.2,239.5,823.7,239.6z"/>
			<path fill="#62656A" d="M795,240.3c0.3,0.3,0.6,0.7,0.9,1c4-0.7,8.1-1.2,12.2-1.5c-0.3-0.4-0.5-0.8-0.7-1.2
				C803.1,238.9,799,239.4,795,240.3z"/>
			<path fill="#62656A" d="M840.6,245.6c-1.4,0-2.8,0-4.2,0c0.3,0.4,0.5,0.9,0.7,1.3c1.5,0,3,0,4.4,0
				C841.2,246.5,840.9,246,840.6,245.6z"/>
			<path fill="#62656A" d="M821.9,245.3c-2.2,0-4.3,0-6.5,0.1c0.2,0.4,0.5,0.9,0.7,1.3c2.2,0,4.3,0,6.5,0
				C822.4,246.2,822.1,245.7,821.9,245.3z"/>
			<path fill="#62656A" d="M832,246.7c-0.4-0.4-0.9-0.8-1.3-1.2c-1.3,0-2.6-0.1-4-0.1c-0.3,0-0.6,0-0.9,0c0.3,0.4,0.5,0.9,0.8,1.3
				c0.3,0,0.7,0,1,0c1.5,0,3,0.1,4.4,0.1C832,246.7,832,246.7,832,246.7z"/>
			<path fill="#62656A" d="M811.7,245.4c-3.8,0.1-7.7,0.4-11.5,0.7c0.3,0.4,0.7,0.7,1,1.1c3.8-0.3,7.5-0.5,11.3-0.6
				C812.2,246.3,812,245.9,811.7,245.4z"/>
			<path fill="#62656A" d="M866.6,244.3c-0.3,0-0.6,0-0.8,0c-6.6,0.8-13.1,1.1-19.7,1.2c0.3,0.4,0.6,0.9,0.9,1.3
				c6.3-0.1,12.7-0.5,19-1.2c0.3-0.2,0.6-0.5,1-0.7C867,244.7,866.8,244.4,866.6,244.3z"/>
			<path fill="#62656A" d="M848.5,274.3c1.6-1.2,3.2-2.4,4.8-3.6c-0.4-0.3-0.8-0.6-1.2-0.8c-1.6,1.3-3.3,2.5-4.9,3.7
				C847.6,273.8,848.1,274.1,848.5,274.3z"/>
			<path fill="#62656A" d="M857.3,267.5c0.3-0.3,0.6-0.5,1-0.8c0.7-0.6,1.5-1.3,2.2-2c-0.5-0.2-0.9-0.5-1.4-0.7
				c-1.1,1-2.1,1.9-3.2,2.8C856.3,267.1,856.8,267.3,857.3,267.5z"/>
			<path fill="#62656A" d="M842.7,278.4c0.6-0.4,1.3-0.9,1.9-1.3c-0.5-0.3-0.9-0.5-1.4-0.8c-0.7,0.5-1.4,1-2.1,1.4
				C841.6,278,842.1,278.2,842.7,278.4z"/>
			<path fill="#62656A" d="M793.2,313.9c0.8-0.7,1.5-1.4,2.3-2c-0.4-0.3-0.7-0.5-1.1-0.8c-0.8,0.7-1.6,1.4-2.4,2.1
				C792.4,313.4,792.8,313.6,793.2,313.9z"/>
			<path fill="#62656A" d="M799.9,308.1c1.4-1.1,2.7-2.2,4.1-3.3c-0.4-0.2-0.8-0.4-1.2-0.6c-1.4,1.1-2.7,2.2-4.1,3.3
				C799.1,307.7,799.5,307.9,799.9,308.1z"/>
			<path fill="#62656A" d="M828.2,287.9c3.1-2,6.3-4,9.4-6.1c-0.7-0.2-1.3-0.3-2-0.4c-3.2,2-6.3,4.1-9.4,6.2
				C826.9,287.7,827.5,287.8,828.2,287.9z"/>
			<path fill="#62656A" d="M875.2,244.1c-1.5,2.8-3.3,5.5-5.2,8.1c0.5,0.2,0.9,0.4,1.4,0.7c1.9-2.5,3.6-5.2,5.1-7.9
				C877,244,875.6,243.2,875.2,244.1z"/>
			<path fill="#62656A" d="M808.2,301.6c1.3-1,2.5-1.9,3.8-2.8c0.8-0.6,1.6-1.1,2.4-1.7c-0.4-0.2-0.8-0.4-1.2-0.6
				c-2.1,1.5-4.1,3-6.2,4.5C807.4,301.2,807.8,301.4,808.2,301.6z"/>
			<path fill="#62656A" d="M819.2,293.7c1-0.7,2-1.3,3-2c-0.5-0.2-1-0.3-1.5-0.5c-1.1,0.7-2.1,1.4-3.2,2.2
				C818.2,293.5,818.7,293.6,819.2,293.7z"/>
			<path fill="#62656A" d="M867.8,257.3c-0.5-0.2-0.9-0.4-1.4-0.6c-1,1.2-2.1,2.4-3.2,3.5c0.5,0.2,1,0.3,1.5,0.5
				C865.7,259.6,866.7,258.4,867.8,257.3z"/>
			<path fill="#62656A" d="M785.9,320.5c1.2-1.1,2.3-2.2,3.5-3.2c-0.3-0.3-0.7-0.6-1-1c-1.3,1.1-2.5,2.3-3.8,3.5
				C785,320,785.5,320.2,785.9,320.5z"/>
			<path fill="#62656A" d="M770.1,334.5c0.3,0.2,0.6,0.5,0.9,0.7c1.2-1.2,2.4-2.5,3.6-3.7c-0.1-0.1-0.2-0.3-0.4-0.4
				c-0.2-0.2-0.3-0.4-0.5-0.5C772.5,331.8,771.3,333.1,770.1,334.5z"/>
			<path fill="#62656A" d="M778.1,327.5c0.1,0.1,0.2,0.2,0.3,0.2c1.2-1.2,2.4-2.3,3.6-3.5c-0.3-0.4-0.6-0.7-0.9-1.1
				c-1.3,1.2-2.5,2.5-3.8,3.7C777.5,327.1,777.8,327.3,778.1,327.5z"/>
			<path fill="#62656A" d="M845.3,262.9c0.6-0.5,1.2-0.9,1.9-1.4c0.6-0.5,1.3-0.9,1.9-1.4c-0.5-0.2-1-0.4-1.5-0.6
				c-1.2,0.9-2.5,1.8-3.7,2.7C844.4,262.5,844.9,262.7,845.3,262.9z"/>
			<path fill="#62656A" d="M836.5,269.3c1.9-1.4,3.8-2.7,5.7-4.1c-0.5-0.2-0.9-0.5-1.3-0.7c-2,1.5-4,2.9-6,4.3
				C835.4,268.9,835.9,269.1,836.5,269.3z"/>
			<path fill="#62656A" d="M852.5,255.9c0.5,0.2,1,0.4,1.6,0.6c1.3-0.9,2.5-1.9,3.8-2.8c-0.2-0.1-0.3-0.1-0.5-0.2
				c-0.3-0.1-0.6-0.3-0.8-0.5C855.2,253.9,853.9,254.9,852.5,255.9z"/>
			<path fill="#62656A" d="M867.8,244.3c-0.3,0.2-0.6,0.4-0.8,0.7c0,0.3-0.2,0.7-0.6,0.7c-0.1,0-0.2,0-0.3,0c-1.5,1.2-3,2.3-4.5,3.5
				c0.6,0.1,1.1,0.3,1.7,0.4c2.5-1.9,5-3.9,7.5-5.8c0.7-0.6-0.3-1.5-1-1c-0.4,0.3-0.7,0.6-1.1,0.9
				C868.5,243.9,868.2,244.2,867.8,244.3z"/>
			<path fill="#62656A" d="M832.6,272.1c-0.5-0.2-1-0.4-1.6-0.6c-2.7,1.9-5.3,3.8-8,5.7c0.8,0,1.7-0.1,2.5-0.1
				C827.9,275.5,830.2,273.8,832.6,272.1z"/>
			<path fill="#62656A" d="M811.4,287.4c2.8-2.1,5.6-4.1,8.4-6.1c-0.6-0.1-1.2-0.2-1.8-0.4c-1.4,1-2.8,2-4.1,3c-1,1-2,2-3,3.1l0,0
				C811,287.1,811.2,287.3,811.4,287.4z"/>
			<path fill="#62656A" d="M810.9,287L810.9,287L810.9,287z"/>
			<path fill="#62656A" d="M866.9,244.9c-0.3,0.2-0.6,0.5-1,0.7c0.1,0,0.2,0,0.3,0C866.7,245.6,866.9,245.2,866.9,244.9z"/>
			<path fill="#62656A" d="M760.7,346.3c0.6-0.6,1.1-1.1,1.7-1.7c-0.4-0.3-0.9-0.6-1.3-0.9c-0.6,0.6-1.1,1.2-1.7,1.7
				C759.8,345.7,760.3,346,760.7,346.3z"/>
			<path fill="#62656A" d="M752.2,353.1c0.4,0.3,0.8,0.5,1.2,0.8c1-1.1,2.1-2.2,3.1-3.4c0.4-0.4,0.8-0.9,1.3-1.3
				c-0.4-0.3-0.7-0.6-1.1-1c-0.2,0.2-0.4,0.4-0.6,0.6C754.8,350.3,753.5,351.7,752.2,353.1z"/>
			<path fill="#62656A" d="M711.7,413c-0.9,2.2-1.7,4.5-2.5,6.7c0.2,0,0.4,0,0.6,0c0.3,0.1,0.5,0.2,0.8,0.3c0.7-2.1,1.5-4.2,2.3-6.3
				C712.5,413.5,712.1,413.3,711.7,413z"/>
			<path fill="#62656A" d="M741.1,365.4c0.4,0.3,0.8,0.6,1.2,0.8c0.6-0.8,1.3-1.5,2-2.3c-0.1-0.1-0.3-0.2-0.4-0.3
				c-0.2-0.2-0.5-0.4-0.7-0.6C742.5,363.8,741.8,364.6,741.1,365.4z"/>
			<path fill="#62656A" d="M713.5,410c0.3,0.1,0.5,0.2,0.8,0.2c0.6-1.5,1.3-3.1,2-4.6c-0.4-0.2-0.8-0.4-1.2-0.6
				c-0.7,1.6-1.4,3.2-2.1,4.8C713.1,409.9,713.3,410,713.5,410z"/>
			<path fill="#62656A" d="M724.3,390.6c1.2-1.9,2.4-3.8,3.7-5.7c-0.4-0.3-0.8-0.6-1.2-0.9c-1.3,1.9-2.5,3.8-3.7,5.8
				C723.5,390.1,723.9,390.4,724.3,390.6z"/>
			<path fill="#62656A" d="M746.1,359.7c0.2,0.1,0.4,0.3,0.5,0.4c0.2,0.2,0.5,0.3,0.7,0.5c1.1-1.2,2.2-2.4,3.2-3.6
				c-0.4-0.3-0.7-0.6-1.1-0.9c-0.8,0.9-1.7,1.8-2.5,2.8C746.6,359.1,746.4,359.4,746.1,359.7z"/>
			<path fill="#62656A" d="M718.4,401.1c1.1-2.1,2.2-4.2,3.4-6.3c-0.4-0.3-0.7-0.6-1.1-0.8c-1.2,2.2-2.4,4.4-3.5,6.7
				C717.6,400.8,718,400.9,718.4,401.1z"/>
			<path fill="#62656A" d="M729.5,380.2c0.4,0.3,0.8,0.6,1.2,0.9c3-4.2,6.2-8.2,9.4-12.2c-0.4-0.4-0.7-0.7-1-1.1
				c-3.2,3.8-6.2,7.6-9.1,11.6C729.8,379.6,729.6,379.9,729.5,380.2z"/>
			<path fill="#62656A" d="M706.4,431.5c-0.2-0.1-0.5-0.2-0.7-0.3c-0.2,0.8-0.4,1.7-0.7,2.5c0.5,0.1,1,0.2,1.4,0.4
				c0.1-0.5,0.2-0.9,0.4-1.4c0.1-0.3,0.2-0.6,0.2-0.9C706.9,431.7,706.6,431.6,706.4,431.5z"/>
			<path fill="#62656A" d="M702.2,449.3c-0.1,1-0.1,2.1-0.2,3.1c0.5-0.1,1-0.1,1.5-0.2c0-0.9,0.1-1.9,0.2-2.8
				C703.2,449.5,702.7,449.4,702.2,449.3z"/>
			<path fill="#62656A" d="M705.1,439.9c-0.5-0.1-1-0.3-1.4-0.5c-0.3,1.7-0.7,3.4-0.9,5c0.5-0.1,1-0.1,1.5-0.2
				C704.6,442.8,704.8,441.3,705.1,439.9z"/>
			<path fill="#62656A" d="M708,423.4c-0.3,0.9-0.6,1.9-0.9,2.8l0,0c0.5,0,1,0.1,1.4,0.2c0.2-0.7,0.4-1.3,0.6-2
				C708.8,424.1,708.4,423.7,708,423.4z"/>
			<path fill="#62656A" d="M702.5,461.7c0.5-0.1,0.9-0.2,1.4-0.3c-0.1-1-0.2-2-0.3-3c-0.5,0-1,0-1.5,0c0.1,1,0.2,2,0.3,3.1
				C702.4,461.6,702.4,461.7,702.5,461.7z"/>
			<path fill="#62656A" d="M765.7,339.4c-0.7,0.5-1.3,1.1-1.9,1.7c0.3,0.3,0.7,0.6,1,0.8c0.6-0.6,1.1-1.3,1.6-2
				C766.7,339.5,766,339.1,765.7,339.4z"/>
			<path fill="#62656A" d="M710.9,483.3c-0.2-0.3-0.4-0.6-0.6-0.9c-0.4-0.6-0.7-1.3-1.1-2c-0.1,0-0.3,0.1-0.4,0.1
				c-0.3,0.1-0.6,0.2-0.9,0.3c0.5,1.1,1.1,2.2,1.8,3.3C710.1,483.8,710.5,483.6,710.9,483.3z"/>
			<path fill="#62656A" d="M706.1,475.4c0.3-0.1,0.6-0.2,0.9-0.4c-1-2.9-1.6-5.8-2-8.8c-0.2,0-0.4,0.1-0.7,0.1
				c0.1,3.1,0.6,6.2,1.5,9.2C705.9,475.5,706,475.5,706.1,475.4z"/>
			<path fill="#62656A" d="M717.1,488.5c-1-0.1-1.9-0.5-2.7-1.1c-0.6,0.3-1.2,0.6-1.7,0.9c0.7,0.7,1.4,1.2,2.3,1.6
				c0.7,0.3,1.5,0.5,2.2,0.6c1.1-0.6,2.2-1.1,3.2-1.7C719.3,488.7,718.2,488.7,717.1,488.5z"/>
			<path fill="#62656A" d="M691.9,493.4c-0.5,0.3-0.9,0.5-1.3,0.7c0.4,0.5,0.7,1,1.1,1.5c0.4-0.3,0.8-0.6,1.2-0.9
				C692.6,494.2,692.2,493.8,691.9,493.4z"/>
			<path fill="#62656A" d="M680.2,444.3c-0.3,2.4-0.6,4.8-0.7,7.2c0.5,0,0.9-0.1,1.4-0.1c0.1-2.3,0.2-4.7,0.4-7
				C681.3,443.8,680.3,443.7,680.2,444.3z"/>
			<path fill="#62656A" d="M679.9,465.2c0.2,1.7,0.5,3.5,0.8,5.2c0.4-0.2,0.9-0.4,1.3-0.5c-0.3-1.6-0.5-3.3-0.7-4.9
				C680.9,465.1,680.4,465.1,679.9,465.2z"/>
			<path fill="#62656A" d="M698.7,501c-0.9-0.8-1.8-1.7-2.6-2.6c-0.1,0.1-0.2,0.2-0.3,0.2c-0.3,0.2-0.6,0.5-0.9,0.7
				c0.8,0.8,1.6,1.7,2.5,2.5C697.8,501.5,698.2,501.2,698.7,501z"/>
			<path fill="#62656A" d="M685.5,481.7c-0.4-1-0.8-2.1-1.2-3.2c-0.4-1.3-0.8-2.6-1.2-4c-0.4,0.1-0.9,0.2-1.3,0.3
				c0.7,2.5,1.5,4.9,2.4,7.3C684.6,482,685,481.8,685.5,481.7z"/>
			<path fill="#62656A" d="M689.3,489.5c-0.6-1.1-1.2-2.1-1.8-3.2c-0.5,0.1-1,0.2-1.4,0.3c0.6,1.2,1.2,2.4,1.9,3.6
				C688.5,489.9,688.9,489.7,689.3,489.5z"/>
			<path fill="#62656A" d="M680.9,460.1c-0.1-1.3-0.1-2.5-0.1-3.8c-0.5,0-1,0-1.4,0c0,1.3,0.1,2.6,0.1,3.9
				C680,460.2,680.4,460.1,680.9,460.1z"/>
			<path fill="#62656A" d="M737.3,353.4c1.6-1.7,3.3-3.4,4.9-5.1c-0.4-0.3-0.7-0.6-1.1-0.9c-1.7,1.7-3.3,3.5-5,5.2
				C736.6,352.9,736.9,353.1,737.3,353.4z"/>
			<path fill="#62656A" d="M687.1,425.5c-0.5-0.3-0.9-0.5-1.4-0.8c-0.6,1.6-1.1,3.2-1.5,4.7c0.5,0.1,1.1,0.2,1.6,0.3
				C686.2,428.4,686.6,427,687.1,425.5z"/>
			<path fill="#62656A" d="M684.1,435.3c-0.5-0.2-0.9-0.3-1.4-0.5c-0.3,1.2-0.6,2.5-0.8,3.7c0.4,0,0.8,0.1,1.2,0.1
				C683.5,437.5,683.8,436.4,684.1,435.3z"/>
			<path fill="#62656A" d="M692.8,411.2c1.5-3.1,3-6.1,4.7-9c-0.4-0.2-0.8-0.4-1.2-0.6c-1.7,3-3.3,6-4.8,9.2
				C691.9,410.9,692.4,411.1,692.8,411.2z"/>
			<path fill="#62656A" d="M749.1,341.1L749.1,341.1c-1.6,1.2-3.1,2.4-4.7,3.6c0.2,0.2,0.5,0.4,0.7,0.5
				C746.4,343.9,747.8,342.5,749.1,341.1z"/>
			<path fill="#62656A" d="M749.1,341.1L749.1,341.1L749.1,341.1z"/>
			<path fill="#62656A" d="M706.3,386.7c0.3,0.2,0.7,0.4,1,0.6c1.9-2.5,3.9-5,5.9-7.5c-0.2-0.2-0.4-0.4-0.7-0.6
				c-0.1-0.1-0.1-0.1-0.2-0.2C710.2,381.5,708.2,384.1,706.3,386.7z"/>
			<path fill="#62656A" d="M731.8,359.2c1-1.1,2-2.1,3-3.2c-0.3-0.3-0.7-0.6-1-0.9c-1,1.1-2.1,2.2-3.1,3.3
				C731,358.7,731.4,358.9,731.8,359.2z"/>
			<path fill="#62656A" d="M690.8,415.7c-0.4-0.2-0.9-0.4-1.3-0.6c-0.7,1.6-1.4,3.3-2.1,4.9c0.5,0.1,0.9,0.3,1.4,0.5
				C689.5,418.9,690.1,417.3,690.8,415.7z"/>
			<path fill="#62656A" d="M700.5,397.1c0.6-1,1.2-1.9,1.8-2.9c0.5-0.8,1.1-1.7,1.7-2.5c-0.3-0.2-0.7-0.4-1-0.6
				c-1.3,1.8-2.5,3.6-3.6,5.4C699.8,396.7,700.2,396.9,700.5,397.1z"/>
			<path fill="#62656A" d="M715.4,375.4L715.4,375.4c0.3,0.2,0.6,0.5,0.9,0.7c0.7-0.8,1.4-1.7,2.2-2.5c0,0,0,0-0.1,0
				c-0.3-0.2-0.5-0.5-0.8-0.7C716.9,373.6,716.2,374.5,715.4,375.4z"/>
			<path fill="#62656A" d="M720.7,369.9c0.2,0.2,0.4,0.4,0.6,0.5c2.3-2.6,4.7-5.1,7.1-7.7c-0.3-0.3-0.7-0.5-1-0.8
				c-2.4,2.6-4.7,5.1-7,7.7C720.5,369.8,720.6,369.8,720.7,369.9z"/>
			<path fill="#62656A" d="M769.2,335.5c-0.4,0.5,0.3,1.2,0.7,0.7c0.4-0.4,0.7-0.7,1.1-1.1c-0.3-0.2-0.6-0.5-0.9-0.7
				C769.8,334.8,769.5,335.2,769.2,335.5z"/>
			<path fill="#62656A" d="M706.1,426.2L706.1,426.2C705.8,426.1,705.8,426.1,706.1,426.2z"/>
			<path fill="none" d="M1141.1,394.7c0.1-0.1,0.1-0.1,0.1-0.2C1141.2,394.6,1141.2,394.6,1141.1,394.7z"/>
			<path fill="#62656A" d="M891.3,253.9c-0.5-0.4-1.1-0.7-1.6-1.1c-0.1,0-0.2,0-0.3,0.1c-0.5,0.2-1,0.3-1.5,0.5c0,0,0,0-0.1,0
				c1,0.7,2,1.4,3.1,2.1C891.4,255,891.5,254.4,891.3,253.9z"/>
			<path fill="#62656A" d="M892.6,244.6c0.7,0,1.4,0,2.1,0c2.3,0,4.6-0.2,6.8-0.2c5.6,0,11.2,0,16.7,0c10.8,0.1,21.7,0.2,32.5,0.3
				c15.8,0.2,31.7,1.1,47.5,1.5c-1.7-0.4-3.7-0.7-6-1.1c-0.3,0-0.6-0.1-0.9-0.1c-0.2,0-0.4-0.1-0.6-0.1c-0.1,0-0.2,0-0.3,0
				c-0.2,0-0.5-0.1-0.8-0.1c-0.1,0-0.1,0-0.2,0c-4.3-0.6-10.2-1.2-17.1-1.9c-7.3,0-14.6,0-21.8-0.1c-10.5-0.1-21-0.2-31.5-0.2
				c-5.6,0-11.2,0-16.7,0c-4.8,0-10.2-0.7-14.8,0.8c-0.1,0-0.1,0.1-0.1,0.1c0.2,0.1,0.3,0.3,0.5,0.4
				C889.5,244.4,891,244.6,892.6,244.6z"/>
			<path fill="#62656A" d="M1118.6,351c-11.6-15-27.2-26.2-43.9-35c-18.5-9.7-38.3-16.9-57.9-23.9c-22.7-8-45.7-15.1-68.8-21.7
				c-21.1-6-42.8-12.5-60-26.5c-0.2-0.1-0.3-0.3-0.5-0.4c-1.4-1.2-2.8-2.4-4.1-3.6c-0.8-0.7-2,0.4-1.2,1.2
				c13.4,12.9,30.5,20.5,48,26.3c20.6,6.8,41.6,12.2,62.2,19c20.4,6.7,40.9,13.8,60.7,22.1c17.7,7.5,35.1,16.4,49.6,29.1
				c8.1,7.1,15.6,15.3,20.7,24.8c3.3,6.2,5.2,12.9,3.5,19.9c-0.9,3.6-2.5,7-4.4,10.1c0,0,0,0,0.1-0.1c0,0-1.4,2,0.5,3.6
				c3.9-5.7,6.9-12,7-19C1130,367.3,1124.3,358.4,1118.6,351z"/>
			<path fill="#62656A" d="M798.6,244.4c10.8-0.8,21.7-1,32.6-0.9c11.5,0.1,23.1,1.2,34.6,0.9c0.3,0,0.6,0,0.8,0c0.3,0,0.7,0,1,0
				c0.1,0,0.1,0,0.1,0c0.4-0.1,0.7-0.3,0.8-0.6c0.2-0.6-0.1-1.3-0.9-1.4c-12-1.1-24.4-0.5-36.4-0.7c-11.4-0.2-22.8,0.4-34.2,1.1
				C797.5,243.2,798.1,243.7,798.6,244.4z"/>
			<path fill="#62656A" d="M722.7,379.8c13.9-18.5,30.4-34.9,47.5-50.5c17.2-15.6,35.1-30.5,53.7-44.5c10.3-7.7,20.8-15.2,31.4-22.5
				c7.6-5.2,15.3-10.7,18.5-19.7c0.5-1.4-1.7-2-2.2-0.6c-4,11.1-15.8,17.1-25,23.5c-9.5,6.7-19,13.6-28.2,20.6
				c-18.6,14.2-36.7,29.2-53.9,45.1c-16.9,15.6-33,32.2-46.4,50.9c-12.9,18-24.5,38.9-28.3,61c-3.1,18.4,0.3,41.2,15,54.2
				c0.4-0.2,0.8-0.5,1.2-0.7C675,461.1,698.1,412.5,722.7,379.8z"/>
		</g>
		<path fill="#646568" d="M826.5,267.5c-1,9.7-24.5,35-48.5,54s-84,71.5-111.5,79s-44,12.5-57-2c14,4.5,32.5,7.5,57-2
			s95.5-66.5,109-78s43-42.9,46.2-47.5S826.5,267.5,826.5,267.5z"/>
		<path fill="#646568" d="M815,263.5c4.8-2.2,11.5-0.2,12.2,2.2s-1.7,8.8-5.5,12c-1.8-2.5,0-6.7,0-6.7L815,263.5z"/>
	</g>
</g>
</svg>
