<?xml version="1.0" encoding="utf-8"?>
<!-- Generator: Adobe Illustrator 23.0.1, SVG Export Plug-In . SVG Version: 6.00 Build 0)  -->
<svg version="1.1" id="_x32_1_x5F_HeadGear_x5F_Fedora"
	 xmlns="http://www.w3.org/2000/svg" xmlns:xlink="http://www.w3.org/1999/xlink" x="0px" y="0px" viewBox="0 0 2000 2000"
	 enable-background="new 0 0 2000 2000" xml:space="preserve">
<g>
	<path fill="#62656A" d="M1245.2,426.5c68.4-24.8,118-37.8,144.8-41.5s43.2,5.6,50.2,22.2s6.1,41.1-28.2,58.5
		s-122.5,28.4-232.2,31.5s-241.4-0.5-298,4.5s-120,11.6-180.5,25.8S590.5,561.2,573,574.2s-19.8,21-19.8,21s-47.6,0-83.7-14.3
		s-62.4-37.4-70.9-54.8s-9.1-38.1,3.4-50.8s98-21.6,131-17.8s162,22.9,202.8,27.8S921,454.8,921,454.8L1245.2,426.5z"/>
	<path fill="#888888" d="M1414,399.2c-2.2-7.2-9-11.9-16.4-15c-2.4,0.1-4.9,0.4-7.6,0.7c-23.6,3.3-65,13.8-121.3,33.2
		c0.2,19.7,0.9,30.8-7.5,27.2c-4.8-2.1-74.1-4.9-148.1-7.5l-192,16.7c0,0-31.5,7.8-69.2,15.5c11.5,2.3,30.6,4.2,61.7,3.5
		c69.5-1.6,144.6,1.4,182.7,2.2s131.7,0.6,172.6-3.5s99.5-18.4,122.5-35.5S1419.5,417.2,1414,399.2z"/>
	<g>
		<g>
			<path fill="#62656A" d="M1213,316.8c-6.2-35.7-8-40.2-36.9-76.6s-34.1-55.8-37.5-90.8c-4-40.8-16.8-56.6-31.3-70.8
				s-31.8-30.3-52.3-28.3s-35.3,11.3-58.7,24C973,87,933.8,100.7,894,98.7s-73.2-7.7-111.3-5.3c-38.2,2.3-99,22.2-128.3,36.3
				c-29.3,14.2-36.5,25.3-48,35s-9.6,15.2-13.7,18.8s-1.8,64.9-7.9,111.3c-6.2,46.4,1.3,38.2-7,67.6s-11.3,35.2-7.7,52.9
				C573.7,433,1213,316.8,1213,316.8z"/>
			<g>
				<path fill="#888888" d="M782.7,93.3c-38.2,2.3-99,22.2-128.3,36.3c-7.7,3.7-13.8,7.2-19,10.5c-5.9,15.9-10.3,30-10.9,45.8
					c-0.8,21.1,3.1,34.1,11.3,49.7s20.4,33,20.4,33s36.2-9.3,43.7-11c0,0,6.3-0.8,10.5,2s3.1,7.8,4.1,13.3s0.8,7.2,0.8,7.2
					s2.7-4.2,5.2,5.1c2.5,9.3,2.4,16.9,1.5,22.3s-1.8,8-2,12c0,0,3-2.4,5.5,2.1s0.8,8.7-1.3,13s-2.8,7.8-2.3,10.9
					c0,0,29-9.1,68.7-13.6c39.8-4.4,88.4-14.2,140.6-20.2s75.8-10.4,127.5-12.5c51.7-2.1,99.3-5.3,115-13.5
					c12.4-6.5,15.2-17.1,13.7-31.8c-3.1-4.1-6.7-8.7-10.9-14c-28.9-36.4-34.1-55.8-37.5-90.8c-4-40.8-16.8-56.6-31.3-70.8
					S1075.9,48,1055.4,50s-35.3,11.3-58.7,24C984,80.9,966.6,88.1,947,92.9c3,4.4,7.3,7.9,15.3,11.1c12.7,5.1,52.9-3.3,62.7-10.1
					c0,0-4.4,12.4-43,15.2s-60.9-9-87.6-10.8C854.2,96.7,820.8,91,782.7,93.3z M874.2,268.1c6.2-4.8,7.9-7.2,16.5-17.8
					c8.7-10.6,16-36.7,23.8-54.2c7.7-17.5,6.3-39.3,8.7-40.8s3,4.6,4.1,18s1.6,36-6.6,53.1c-8.2,17.1-32.3,38.9-51.7,48.5
					C863.1,277.8,868,272.8,874.2,268.1z"/>
				<path fill="#62656A" d="M868.9,274.9c19.4-9.6,43.5-31.4,51.7-48.5s7.7-39.6,6.6-53.1s-1.7-19.5-4.1-18
					c-2.4,1.5-0.9,23.2-8.7,40.8c-7.7,17.5-15.1,43.6-23.8,54.2s-10.4,13-16.5,17.8C868,272.8,863.1,277.8,868.9,274.9z"/>
			</g>
		</g>
		<g>
			<g>
				<g>
					<path fill="#25184E" d="M715.1,322c1,1,0,2.4-1.3,2.2c-2.2-0.3-4.2,0.5-5.9,1.9c-1.1,0.9-1.5,2-1.8,3.2
						c0.7-0.5,1.3-0.9,2.1-1.2c1.7-0.7,3.9-1.5,5.5-0.4c0.2,0.1,0.2,0.3,0.1,0.5c-0.7,1.5-2.4,2.1-3.6,3.3c-1.4,1.4-2.4,2.9-3.4,4.5
						c-0.7,1.3-1.3,2.7-1.8,4.2c2.4-0.8,4.6-1.9,6.4-3.5c0.6-0.6,1.5,0.2,1.2,0.9c0,0.1-0.1,0.1-0.1,0.2c-0.7,8.1-3.8,15.2-8.3,22.1
						c-0.3,0.4-0.6,0.7-0.9,0.9l0,0c-0.3,1-1.1,1.8-2.4,1.6c-10-1.2-19.8-4-28.4-9.5c-7.9-5-10.5-12.9-13.4-21.5
						c-3.7-11-6.9-22.1-9.4-33.4c-1.1-5.1-2.7-10.6-2.4-15.9c0.3-3.6,2.4-6.3,3.7-9.3c-1.4-3.8-2.1-7.8-0.9-11.7
						c0.2-0.6,0.8-0.9,1.3-0.8c-1.5-6.1-1.4-12.6,3.1-16.6c0.3-0.2,0.8-0.2,0.9,0.2c0.3,1.2,0.3,2.5,0.2,3.8
						c1.4-3.3,3.5-6.2,6.6-8.7c5.7-4.5,14.1-7.1,21.2-5c1,0.3,1.3,1.4,1,2.2c1.3,3.5,2.8,6.6,5.2,9.5c1.3,1.6,2.7,3,4.3,4.3
						c0.2,0.2,3.6,2.8,4,3.2c0.1,0,0.1,0,0.2,0c-0.2-2.1-0.3-4.2-0.2-6.4c0-0.5,0.6-0.8,1-0.4c6,6,6.7,15.6,5.2,24
						c0.2,0,0.3,0,0.5,0c0.7,0,1.3-0.2,2.1-0.2c0.7-0.4,1.6-0.2,2,0.5v0.1c0,0.1,0.1,0.1,0.1,0.2l0,0l0.1,0.1c0.3,0.3,0.5,0.6,0.5,1
						v0.1l0,0c1.5,3.6,1.3,7.9,1.7,11.7c0.3,2.9,0,5.7-0.5,8.4c-0.1,0.7-0.2,1.3-0.4,2c0,0,0.1-0.1,0.1-0.2c0.2-0.4,0.5-0.7,0.7-1
						c0.3-0.4,0.7-1,1.1-1.4l0,0c0.4-1.2,1-2.4,1.6-3.5c0.2-0.2,0.5-0.3,0.7,0c2.8,4.6,1.2,11.8-0.1,16.7c-1.3,5-3.2,10.5-6.1,15
						C710.8,319.5,713.2,320,715.1,322z"/>
					<g>
						<path fill="#D8D8D8" d="M708.9,271.1c0,0,0-0.1-0.1-0.1l0,0c0-0.1,0-0.1-0.1-0.2C708.8,270.9,708.8,271,708.9,271.1z"/>
						<path fill="#D8D8D8" d="M678.8,248.4c0.1-0.2,0.2-0.3,0.2-0.5c0,0.1-0.1,0.2-0.1,0.3c0.1-0.3,0.1-0.6,0.2-0.9
							c0,0.1,0,0.1,0,0.2c0,0.1,0,0.2,0,0.3c0.4-1.1,0.1-2.4-1-3.1c-1.4-0.8-3.2-0.2-4,1.2c-0.6,1-0.5,2.3-0.2,3.4
							c0.2,0.6,0.5,1.1,0.8,1.6c0.4,0.5,0.8,0.9,1.2,1.3c0.5,0.7,1.6,0.6,2.3,0.3c0.1-0.1,0.3-0.2,0.4-0.3c0.5-0.4,0.7-1.3,0.5-1.8
							C678.9,249.8,678.9,249.1,678.8,248.4z M678.8,247.5L678.8,247.5C678.7,247.1,678.7,247.1,678.8,247.5z M677.5,249
							c-0.1,0-0.2,0-0.3,0C677.3,249.1,677.3,249,677.5,249C677.4,249,677.5,249,677.5,249z"/>
						<path fill="#D8D8D8" d="M677.4,249C677.4,249,677.5,249,677.4,249c0,0-0.1,0-0.2,0.1C677.3,249.1,677.3,249,677.4,249z"/>
						<path fill="#D8D8D8" d="M679.2,247.4c0,0.1,0,0.1,0,0.2c0,0.1,0,0.2,0,0.3c0,0,0,0,0,0.1l0,0c0,0.1-0.1,0.2-0.1,0.3
							C679,247.9,679.1,247.6,679.2,247.4z"/>
						<path fill="#D8D8D8" d="M665.1,255c-0.7-1.3-2.3-2-3.7-1.6c-2,0.5-4.4,2.6-3.7,4.9c0.3,1,1.3,1.9,2.3,1.8c0,0,0,0,0.1,0
							l0.1,0.1c1.7,1.3,3.9,0,4.8-1.7c-0.1,0.1-0.2,0.2-0.3,0.3c0.2-0.3,0.4-0.7,0.6-1c-0.1,0.2-0.2,0.5-0.3,0.7
							C665.8,257.5,665.6,256,665.1,255z M663.5,257L663.5,257L663.5,257L663.5,257z M661.3,256.3
							C661.2,256.3,661.2,256.3,661.3,256.3c-0.1,0-0.1,0.1-0.1,0.1l0,0l0,0c0,0,0,0,0.1,0C661.2,256.4,661.2,256.3,661.3,256.3
							L661.3,256.3L661.3,256.3z M660.7,257.1L660.7,257.1C660.7,257.3,660.7,257.3,660.7,257.1z M662.2,256.3L662.2,256.3
							L662.2,256.3L662.2,256.3z M662.9,258.5c-0.1,0-0.2,0.1-0.2,0.1S662.7,258.6,662.9,258.5L662.9,258.5L662.9,258.5z"/>
						<path fill="#D8D8D8" d="M660.7,257.1L660.7,257.1C660.7,257.3,660.7,257.3,660.7,257.1z"/>
						<path fill="#D8D8D8" d="M661.1,256.4L661.1,256.4C661.2,256.4,661.2,256.4,661.1,256.4L661.1,256.4z"/>
						<path fill="#D8D8D8" d="M661.1,256.3C661.3,256.3,661.3,256.3,661.1,256.3C661.2,256.3,661.2,256.3,661.1,256.3
							C661.2,256.4,661.2,256.4,661.1,256.3C661.2,256.4,661.2,256.3,661.1,256.3L661.1,256.3z"/>
						<path fill="#D8D8D8" d="M662.2,256.3L662.2,256.3L662.2,256.3L662.2,256.3z"/>
						<path fill="#D8D8D8" d="M662.8,258.6c0.1-0.1,0.1-0.1,0.1-0.1C662.9,258.5,662.9,258.5,662.8,258.6l-0.1,0.1
							C662.7,258.6,662.7,258.6,662.8,258.6z"/>
						<path fill="#D8D8D8" d="M663.5,257L663.5,257L663.5,257L663.5,257z"/>
						<path fill="#D8D8D8" d="M665.3,257.7c-0.1,0.2-0.2,0.5-0.3,0.7c-0.1,0.1-0.2,0.2-0.3,0.3C664.9,258.4,665.1,258.1,665.3,257.7
							z"/>
						<path fill="#D8D8D8" d="M677.8,270.1c-0.2-2.2-2.5-3.6-4.6-2.9c-1.2,0.5-2.1,1.7-1.7,3l0,0c-0.1,0.5-0.1,1.1-0.1,1.6
							c0,0.3,0,0.5,0,0.8c0,0.1,0.1,0.7,0.1,1l0,0c0.2,1.7,1.6,3.1,3.5,2.6c1-0.3,1.7-1.1,1.9-2c0,0,0,0,0,0.1
							c0.1-0.3,0.2-0.7,0.2-1C677.6,272.5,677.9,271.3,677.8,270.1z M676.6,270.1L676.6,270.1C676.7,270.2,676.7,270.2,676.6,270.1
							c0,0.1,0,0.1,0,0.1S676.6,270.2,676.6,270.1z"/>
						<path fill="#D8D8D8" d="M676.7,270.3v-0.1C676.6,270.1,676.6,270.1,676.7,270.3C676.7,270.2,676.7,270.2,676.7,270.3
							C676.7,270.2,676.7,270.2,676.7,270.3z"/>
						<path fill="#D8D8D8" d="M687.5,263.8C687.5,263.8,687.4,263.8,687.5,263.8C687.4,263.8,687.4,263.8,687.5,263.8
							C687.4,263.8,687.4,263.8,687.5,263.8z"/>
						<path fill="#D8D8D8" d="M689.9,262.4L689.9,262.4C689.8,262.4,689.8,262.4,689.9,262.4z"/>
						<path fill="#D8D8D8" d="M690.1,264.4L690.1,264.4C690.1,264.4,690.1,264.3,690.1,264.4C690.1,264.3,690.1,264.3,690.1,264.4
							C690.2,264.4,690.2,264.4,690.1,264.4z"/>
						<path fill="#D8D8D8" d="M691.3,263.7c-0.3-1.1-1.5-2.2-2.8-2c-0.2,0-0.4,0.1-0.6,0.1l0,0h-0.1c-3.4,0.7-3,5.7,0,6.6
							c1,0.3,2,0,2.8-0.7c0.7-0.7,0.8-1.5,0.9-2.4C691.5,264.8,691.5,264.2,691.3,263.7z M687.4,263.8L687.4,263.8L687.4,263.8
							C687.5,263.8,687.4,263.8,687.4,263.8z M690.1,264.4L690.1,264.4C690.1,264.4,690.1,264.3,690.1,264.4
							C690.1,264.3,690.1,264.3,690.1,264.4C690.2,264.4,690.2,264.4,690.1,264.4z M689.9,262.4L689.9,262.4
							C689.8,262.4,689.8,262.4,689.9,262.4z"/>
						<path fill="#D8D8D8" d="M699.8,266.5c-0.7-0.8-1.7-1-2.7-0.8c-1.1,0.2-2.2,1.3-2,2.5c0,0.1,0,0.2,0,0.3c0,0.1,0,0.1-0.1,0.2
							c-0.3,1.1,0.2,2.3,1.2,2.8c0.9,0.5,2,0.4,2.9-0.2C700.6,270.2,701.2,268.1,699.8,266.5z M696,268L696,268
							C696,268,696.1,268,696,268L696,268z"/>
						<path fill="#D8D8D8" d="M696.1,268C696,268,696,268,696.1,268C696,268,696,268,696.1,268C696,268,696.1,268,696.1,268z"/>
						<path fill="#D8D8D8" d="M663.2,272c0,0-0.1,0-0.1-0.1c-0.9-0.3-2-0.1-2.8,0.4c-1.6,1.1-2.2,3.4-1.6,5.2c0.4,1,1.1,1.7,2.1,1.8
							c1,0.1,1.9-0.4,2.5-1.2c0.4-0.7,1-1.3,1.3-2C665.6,274.5,665,272.6,663.2,272z M663.5,276.2V276c0,0,0,0,0-0.1v-0.1l0,0
							c0,0.1,0,0.1,0,0.1s0,0,0-0.1l0,0l0,0l0,0l0,0l0,0C663.6,275.8,663.6,276.1,663.5,276.2C663.6,276.2,663.6,276.2,663.5,276.2z
							"/>
						<path fill="#D8D8D8" d="M663.5,275.9L663.5,275.9L663.5,275.9c0,0.1,0,0.1,0,0.1S663.5,276,663.5,275.9L663.5,275.9
							L663.5,275.9L663.5,275.9L663.5,275.9z"/>
						<path fill="#D8D8D8" d="M663.5,276C663.5,275.9,663.5,275.9,663.5,276c0-0.1,0,0.1,0.1,0.2h-0.1V276L663.5,276z"/>
						<path fill="#D8D8D8" d="M694.1,278.8c-1.7,0.5-2.6,2.3-2.6,3.9c0,0.3,0,0.5,0.1,0.8c0,0.2-0.1,0.5,0,0.7
							c0.1,1.9,1.7,2.8,3.2,2.6c0.1,0,0.2,0,0.3-0.1h0.1c0.6-0.2,1.2-0.7,1.6-1.4c-0.1,0.1,0,0,0.1-0.2c0,0.1-0.1,0.1-0.1,0.2
							c0,0,0.1-0.1,0.1-0.2c0.2-0.3,0.5-0.6,0.7-0.9c0.5-0.7,0.7-1.5,0.6-2.4C698.1,279.8,696.1,278.2,694.1,278.8z M696.3,283.2
							L696.3,283.2L696.3,283.2L696.3,283.2L696.3,283.2L696.3,283.2L696.3,283.2z"/>
						<path fill="#D8D8D8" d="M696.3,283.2L696.3,283.2L696.3,283.2L696.3,283.2L696.3,283.2L696.3,283.2L696.3,283.2z"/>
						<path fill="#D8D8D8" d="M696.8,285.1c0,0.1-0.1,0.1-0.1,0.2C696.6,285.4,696.7,285.3,696.8,285.1z"/>
						<path fill="#D8D8D8" d="M674.8,288.8c-0.6-1-1.8-1.4-2.9-1.2c-2.3,0.5-2.5,3.7-1.7,5.5c0,1.8,1.9,2.6,3.3,2.1
							c0.3,0,0.6-0.2,0.8-0.5c0.3-0.3,0.6-0.6,0.7-1.1C675.5,292.2,675.6,290.2,674.8,288.8z M674.8,291.3
							C674.8,291.3,674.7,291.4,674.8,291.3v0.1C674.7,291.4,674.7,291.4,674.8,291.3C674.7,291.3,674.7,291.3,674.8,291.3
							L674.8,291.3c0-0.1,0-0.1,0-0.1C674.8,291.2,674.8,291.2,674.8,291.3z"/>
						<path fill="#D8D8D8" d="M674.8,291.2v0.1v0.1l0,0c0,0,0,0,0-0.1C674.7,291.3,674.7,291.3,674.8,291.2L674.8,291.2L674.8,291.2
							z"/>
						<path fill="#D8D8D8" d="M697.5,294.9c-1.8-0.5-3.2,1.1-3.6,2.6c-0.1,0.5-0.2,1-0.2,1.6c0,0.1-0.1,0.2-0.1,0.2
							c-0.4,1.5,1.1,3.4,2.8,2.8c1.5-0.5,2.2-1.8,2.7-3.2C699.7,297.3,699.3,295.4,697.5,294.9z M694.6,297.5L694.6,297.5
							L694.6,297.5L694.6,297.5z M698.2,299.2L698.2,299.2L698.2,299.2L698.2,299.2L698.2,299.2
							C698.2,299.1,698.2,299.1,698.2,299.2C698.2,299.1,698.2,299.1,698.2,299.2C698.2,299.1,698.2,299.2,698.2,299.2z"/>
						<path fill="#D8D8D8" d="M694.6,297.5L694.6,297.5L694.6,297.5L694.6,297.5z"/>
						<path fill="#D8D8D8" d="M698.2,299.2L698.2,299.2L698.2,299.2L698.2,299.2z"/>
						<path fill="#D8D8D8" d="M698.2,299.1L698.2,299.1C698.2,299.1,698.2,299.2,698.2,299.1C698.2,299.2,698.2,299.2,698.2,299.1
							L698.2,299.1z"/>
						<path fill="#D8D8D8" d="M701.3,311.6c-0.2-0.8-0.7-1.8-1.3-2.4c-0.2-0.4-0.5-0.7-0.9-0.9c-0.9-0.6-2-0.3-2.7,0.3
							c-0.1,0.1-0.2,0.2-0.3,0.3l0,0c-0.3,0.4-0.5,0.8-0.7,1.2c-0.3,0.9-0.3,2-0.1,3c0.2,1.3,0.8,2.7,2.1,3.3
							c1.6,0.8,3.2,0.1,3.8-1.5C701.6,313.9,701.6,312.7,701.3,311.6z M696.3,313.3v-0.1C696.3,313.4,696.3,313.5,696.3,313.3z
							 M700.2,311.4v-0.1V311.4L700.2,311.4z M696.2,312.8L696.2,312.8L696.2,312.8C696.3,312.8,696.3,312.8,696.2,312.8
							C696.3,312.8,696.3,312.8,696.2,312.8c0.1,0.1,0.1,0.1,0.1,0.1l0,0l0,0l0,0L696.2,312.8L696.2,312.8L696.2,312.8z"/>
						<path fill="#D8D8D8" d="M695.4,310.1c0.1-0.5,0.3-0.9,0.7-1.2C695.7,309.3,695.5,309.7,695.4,310.1z"/>
						<path fill="#D8D8D8" d="M696.3,312.8C696.3,312.9,696.3,312.9,696.3,312.8C696.3,312.9,696.3,312.9,696.3,312.8L696.3,312.8
							C696.3,312.9,696.3,312.9,696.3,312.8C696.3,312.9,696.2,312.8,696.3,312.8C696.2,312.8,696.2,312.8,696.3,312.8
							C696.2,312.8,696.2,312.8,696.3,312.8C696.2,312.8,696.2,312.8,696.3,312.8C696.2,312.8,696.2,312.8,696.3,312.8L696.3,312.8
							L696.3,312.8z"/>
						<path fill="#D8D8D8" d="M696.3,313.3v-0.1C696.3,313.4,696.3,313.5,696.3,313.3z"/>
						<path fill="#D8D8D8" d="M700.2,311.4L700.2,311.4c0,0,0,0,0-0.1V311.4z"/>
						<path fill="#D8D8D8" d="M684.6,321.3c-1.1-1.8-3.6-2.2-5-0.5c-0.7,1-1.3,2.2-1.5,3.4c-0.1,0.8,0,1.7,0.6,2.3c0,0,0,0,0,0.1
							l0,0c0.4,0.6,1.1,1,1.9,1C683.8,327.7,686.2,324,684.6,321.3z M679.7,322.8L679.7,322.8L679.7,322.8L679.7,322.8z
							 M680.2,323.2C680.2,323.2,680.2,323.3,680.2,323.2v-0.1l0,0V323C680.2,323.1,680.2,323.1,680.2,323.2z M680.3,322.8
							L680.3,322.8C680.3,322.8,680.3,322.9,680.3,322.8C680.3,322.9,680.3,322.8,680.3,322.8L680.3,322.8L680.3,322.8L680.3,322.8
							L680.3,322.8L680.3,322.8z M680.4,322.7L680.4,322.7L680.4,322.7L680.4,322.7z"/>
						<path fill="#D8D8D8" d="M679.7,322.7C679.7,322.8,679.7,322.8,679.7,322.7C679.7,322.8,679.7,322.8,679.7,322.7L679.7,322.7z"
							/>
						<path fill="#D8D8D8" d="M680.2,323c0,0,0,0.1,0,0.2l0,0v-0.1C680.2,323.1,680.2,323.1,680.2,323
							C680.2,323.1,680.2,323,680.2,323z"/>
						<path fill="#D8D8D8" d="M680.2,323L680.2,323C680.2,322.9,680.2,322.9,680.2,323L680.2,323z"/>
						<path fill="#D8D8D8" d="M680.3,322.8L680.3,322.8L680.3,322.8c0,0.1-0.1,0.1-0.1,0.1C680.3,322.9,680.3,322.8,680.3,322.8
							L680.3,322.8L680.3,322.8L680.3,322.8L680.3,322.8z"/>
						<path fill="#D8D8D8" d="M680.4,322.7L680.4,322.7L680.4,322.7L680.4,322.7z"/>
						<path fill="#D8D8D8" d="M683.3,324.4L683.3,324.4C683.3,324.4,683.3,324.5,683.3,324.4C683.2,324.5,683.3,324.4,683.3,324.4z"
							/>
						<path fill="#D8D8D8" d="M682.3,310.1c-0.1,2.2-3,3.7-4.6,1.9c-1.3-1.4-1.9-3.1-1.8-5c0.1-2.1,0.8-4.4,3.2-4.5
							c0.6,0,1.1,0.2,1.6,0.6l0.1,0.1c0,0,0,0,0.1,0.1C682.7,305.2,682.4,307.7,682.3,310.1z"/>
						<path fill="#D8D8D8" d="M696.3,329.5c-1.5,0.6-1.9,2.1-1.9,3.5c-0.1,0.2-0.2,0.4-0.2,0.6c-0.3,0.8,0.1,1.8,0.6,2.4l0.1,0.1
							c0.1,0.1,0.2,0.2,0.3,0.3l0,0c0.2,0.2,0.4,0.4,0.6,0.6c0.7,0.4,1.6,0.1,1.9-0.6c0.8-0.5,1-1.2,1.3-2c0.2-0.6,0.6-1.4,0.7-2.2
							C699.8,330.4,698.2,328.8,696.3,329.5z M695.5,332.2v0.1c0-0.1,0-0.2-0.1-0.2C695.4,332.2,695.5,332.2,695.5,332.2z"/>
						<path fill="#D8D8D8" d="M695.5,332.2v0.1c0-0.1,0-0.2-0.1-0.2C695.4,332.2,695.5,332.2,695.5,332.2z"/>
						<path fill="#D8D8D8" d="M703.5,348.1c-0.3-1.1-1.4-1.9-2.6-1.9c-1.6,0-2.6,1.5-3.3,2.7c-0.1,0.2-0.2,0.4-0.2,0.7
							c-0.2,0.8,0,1.7,0.5,2.3c0.2,0.2,0.4,0.4,0.6,0.5c0.6,0.3,1.4,0.4,2.1,0.2c1.3-0.2,2.3-1.3,2.7-2.5
							C703.5,349.5,703.6,348.8,703.5,348.1z M698.2,352C698.1,352,698.1,352,698.2,352c-0.1,0-0.1-0.1-0.2-0.1
							C698.1,352,698.2,352,698.2,352L698.2,352z M698.3,348.9L698.3,348.9C698.7,348.8,698.2,349,698.3,348.9z M698.6,348.8
							L698.6,348.8C698.6,348.9,698.6,348.9,698.6,348.8C698.6,348.9,698.6,348.9,698.6,348.8c-0.1,0.1-0.1,0.2-0.1,0.2v-0.1
							l-0.1,0.1C698.5,349,698.5,349,698.6,348.8C698.6,348.9,698.6,348.9,698.6,348.8L698.6,348.8c0-0.1,0-0.1,0-0.1
							C698.6,348.7,698.6,348.8,698.6,348.8L698.6,348.8C698.7,348.8,698.6,348.8,698.6,348.8z M698.9,348.6c-0.1,0-0.1,0-0.1,0.1
							C698.8,348.7,698.8,348.7,698.9,348.6L698.9,348.6L698.9,348.6z M699.2,350.5C699.2,350.5,699.3,350.5,699.2,350.5
							C699.3,350.5,699.3,350.5,699.2,350.5C699.3,350.5,699.3,350.5,699.2,350.5z M702.6,350.5
							C702.8,350.2,702.8,350.2,702.6,350.5L702.6,350.5z"/>
						<path fill="#D8D8D8" d="M697.9,351.9c-0.2-0.2-0.5-0.4-0.6-0.7c-0.3-0.5-0.3-1.2,0.1-1.7C697.2,350.4,697.4,351.3,697.9,351.9
							z"/>
						<path fill="#D8D8D8" d="M698.2,352L698.2,352C698.1,352,698.1,352,698.2,352c-0.1,0-0.1-0.1-0.2-0.1
							C698.1,352,698.2,352,698.2,352z"/>
						<path fill="#D8D8D8" d="M698.3,348.9L698.3,348.9C698.7,348.8,698.2,349,698.3,348.9z"/>
						<path fill="#D8D8D8" d="M698.7,348.8C698.7,348.8,698.6,348.8,698.7,348.8C698.6,348.8,698.6,348.8,698.7,348.8
							c0,0.1,0,0.1,0,0.1l0,0c0,0,0,0.1-0.1,0.2V349l-0.1,0.1l0.1-0.1l0,0C698.6,348.8,698.6,348.8,698.7,348.8
							C698.6,348.8,698.6,348.7,698.7,348.8C698.6,348.7,698.6,348.8,698.7,348.8L698.7,348.8z"/>
						<path fill="#D8D8D8" d="M698.9,348.6L698.9,348.6c-0.1,0-0.1,0.1-0.1,0.1C698.8,348.7,698.8,348.7,698.9,348.6L698.9,348.6z"
							/>
						<path fill="#D8D8D8" d="M699.3,350.5L699.3,350.5C699.2,350.5,699.3,350.5,699.3,350.5L699.3,350.5z"/>
						<path fill="#D8D8D8" d="M679.6,344.1c0-0.1,0.3-0.3,0.1-0.1c-0.2,0.1-0.3,0.4-0.5,0.6c-0.3,0.5-0.3,1.1-0.4,1.7
							c0,0.8,0.2,1.4,0.5,2.1s0.7,1.3,1.3,1.7c0.8,0.5,1.8,0.5,2.6,0.1c1.6-0.7,2.3-2.6,1.4-4.1c-0.4-0.6-0.7-1.2-1.1-1.7
							c-0.3-0.3-0.5-0.6-0.8-0.8c-0.2-0.1-0.5-0.2-0.7-0.3c-0.2-0.1-0.1,0,0.2,0.1C681.3,342.9,680.2,343.3,679.6,344.1L679.6,344.1
							z"/>
					</g>
					<g>
						<path fill="#1D1742" d="M702.6,350.5C702.8,350.2,702.8,350.2,702.6,350.5L702.6,350.5z"/>
						<path fill="#1D1742" d="M703.3,350.1L703.3,350.1c-0.4,1.3-1.4,2.3-2.7,2.5c-0.7,0.2-1.5,0.1-2.1-0.2
							c-0.2-0.1-0.5-0.3-0.6-0.5c-0.2-0.2-0.5-0.4-0.6-0.7c-0.3-0.5-0.3-1.2,0.1-1.7c0-0.2,0.1-0.5,0.2-0.7c0.4-0.8,1-1.7,1.8-2.3
							c-1.8-1.9-3.4-3.9-4.5-6.2c-0.4-0.8-1.3-0.3-1.4,0.4c-0.2,1.3-0.1,2.6,0.2,3.8c-2.3-6-4.2-11.3-4.6-18.1
							c-0.4-6.6-1-13.1-1.9-19.7c-1-7-2.4-13.9-4.1-20.8c-1.6-6.6-3-14-5.8-20.2c-0.1-0.3-0.6-0.2-0.6,0.1c-0.1,0.6-0.2,1.1-0.3,1.7
							c0.7,0.5,1.3,1.4,1.4,2.4c0.1,1.1-0.2,2.3-0.6,3.4c0,0.3-0.1,0.7-0.2,1c0,0,0,0,0-0.1c0,0.1-0.1,0.2-0.1,0.3
							c0.7,3.9,1.9,7.8,2.8,11.4c1.9,7.9,3.1,16,3.6,24.1c0.2,2.3,0.2,4.7,0.2,7.2c-0.9-1.8-1.5-3.6-2-5.4c-1,0.9-2.6,1.1-3.7,0
							c-1.3-1.4-1.9-3.1-1.8-5c0.1-2.1,0.8-4.4,3.2-4.5c0.1,0,0.2,0,0.2,0c-0.1-0.4-0.1-0.8-0.2-1.3c-0.7-4.1-1.9-7.6-3.8-10.8
							c0.1,1.1,0,2.3-0.3,3.2c-0.1,0.5-0.4,0.9-0.7,1.1c-0.2,0.3-0.5,0.4-0.8,0.5c-1.4,0.5-3.3-0.3-3.3-2.1c-0.8-1.9-0.6-5,1.7-5.5
							c0.5-0.1,1.1-0.1,1.5,0.1c-0.7-1-1.5-1.9-2.4-2.9c-2.5-2.6-4.6-5.4-6.5-8.3c-0.3,0.6-0.8,1.1-1.1,1.6
							c-0.6,0.9-1.5,1.4-2.5,1.2c-1.1-0.2-1.8-0.9-2.1-1.8c-0.6-1.8,0-4.1,1.6-5.2c0.4-0.3,0.9-0.5,1.4-0.5
							c-1.1-2.2-2.2-4.4-3.1-6.7c-2.5-6.2-5.2-12.9-5.5-19.7c-3,4-3,9.6-1.7,15c-0.5-0.1-1.1,0.2-1.3,0.8c-1.2,3.9-0.5,7.9,0.9,11.7
							c-1.3,3-3.4,5.8-3.7,9.3c-0.4,5.2,1.2,10.8,2.4,15.9c2.5,11.3,5.7,22.5,9.4,33.4c2.9,8.5,5.5,16.4,13.4,21.5
							c8.6,5.5,18.4,8.2,28.4,9.5c1.3,0.2,2.1-0.6,2.4-1.6l0,0c0.3-0.2,0.7-0.5,0.9-0.9c1.4-2.1,2.7-4.3,3.8-6.4
							C706.4,352.4,704.8,351.3,703.3,350.1z M683.3,350.2c-0.8,0.3-1.8,0.4-2.6-0.1c-0.7-0.4-1-1-1.3-1.7s-0.5-1.4-0.5-2.1
							c0-0.6,0.1-1.2,0.4-1.7c0.1-0.2,0.3-0.4,0.5-0.6c0.1-0.1,0.1-0.1,0,0c0.5-0.7,1.4-1,2.2-0.6l0,0c0.2,0.1,0.5,0.2,0.7,0.3
							c0.4,0.2,0.6,0.5,0.8,0.8c0.5,0.5,0.8,1.1,1.1,1.7C685.6,347.6,684.8,349.6,683.3,350.2z M680.8,327.7c-0.8,0-1.5-0.4-1.9-1
							l0,0c0,0,0,0,0-0.1c-0.5-0.6-0.7-1.5-0.6-2.3c0.2-1.2,0.7-2.5,1.5-3.4c1.3-1.8,3.9-1.3,5,0.5
							C686.2,324,683.8,327.7,680.8,327.7z"/>
						<path fill="#1D1742" d="M679.6,344.1l0.1-0.1C679.7,344,679.7,344.1,679.6,344.1z"/>
						<path fill="#B9B9B9" d="M676.9,274.5c0.1-0.3,0.2-0.7,0.2-1c0.4-1.1,0.7-2.3,0.6-3.4c-0.1-1-0.6-1.8-1.4-2.4
							c-0.2,2.3,0,4.7,0.4,7C676.8,274.7,676.9,274.6,676.9,274.5L676.9,274.5z M676.6,270.1L676.6,270.1
							C676.7,270.2,676.7,270.2,676.6,270.1c0,0.1,0,0.1,0,0.1S676.6,270.2,676.6,270.1z"/>
						<path fill="#B9B9B9" d="M676.7,270.2C676.6,270.1,676.6,270.1,676.7,270.2C676.6,270.2,676.6,270.2,676.7,270.2L676.7,270.2
							L676.7,270.2z"/>
						<path fill="#B9B9B9" d="M658.7,277.5c0.4,1,1.1,1.7,2.1,1.8c1,0.1,1.9-0.4,2.5-1.2c0.4-0.5,0.8-1.1,1.1-1.6
							c-1-1.5-1.9-3.1-2.8-4.7c-0.5,0.1-1,0.3-1.4,0.5C658.7,273.4,658.1,275.8,658.7,277.5z M663.5,276L663.5,276
							C663.5,275.9,663.5,275.9,663.5,276v-0.1C663.5,275.9,663.5,275.9,663.5,276L663.5,276c0-0.1,0.1,0.2,0.1,0.2h-0.1V276
							L663.5,276C663.5,275.9,663.5,275.9,663.5,276L663.5,276L663.5,276L663.5,276z"/>
						<path fill="#B9B9B9" d="M663.5,275.9L663.5,275.9L663.5,275.9L663.5,275.9L663.5,275.9L663.5,275.9c0,0.1,0,0.1,0,0.1
							S663.5,276,663.5,275.9L663.5,275.9z"/>
						<path fill="#B9B9B9" d="M663.5,276v0.1h0.1c0-0.1-0.1-0.4-0.1-0.3C663.5,275.9,663.5,275.9,663.5,276L663.5,276z"/>
						<path fill="#B9B9B9" d="M671.9,287.6c-2.3,0.5-2.5,3.7-1.7,5.5c0,1.8,1.9,2.6,3.3,2.1c0.3,0,0.6-0.2,0.8-0.5
							c0.3-0.3,0.6-0.6,0.7-1.1c0.3-0.9,0.4-2.1,0.3-3.2c-0.6-0.9-1.2-1.8-1.9-2.7C673,287.5,672.4,287.5,671.9,287.6z M674.7,291.3
							L674.7,291.3L674.7,291.3c0-0.1,0-0.1,0-0.2C674.8,291.2,674.8,291.2,674.7,291.3C674.8,291.3,674.7,291.4,674.7,291.3
							L674.7,291.3C674.7,291.4,674.7,291.4,674.7,291.3z"/>
						<path fill="#B9B9B9" d="M674.7,291.4C674.7,291.4,674.8,291.3,674.7,291.4c0-0.1,0-0.2,0-0.2s0,0,0,0.1l0,0
							C674.7,291.3,674.7,291.3,674.7,291.4L674.7,291.4L674.7,291.4z"/>
						<path fill="#B9B9B9" d="M679.6,320.8c-0.7,1-1.3,2.2-1.5,3.4c-0.1,0.8,0,1.7,0.6,2.3c0,0,0,0,0,0.1l0,0c0.4,0.6,1.1,1,1.9,1
							c3,0,5.4-3.6,3.9-6.3C683.6,319.5,681,319.1,679.6,320.8z M679.7,322.8L679.7,322.8L679.7,322.8L679.7,322.8z M680.2,323.2
							C680.2,323.2,680.2,323.3,680.2,323.2v-0.1l0,0V323C680.2,323.1,680.2,323.1,680.2,323.2z M680.2,323L680.2,323L680.2,323
							C680.2,322.9,680.2,322.9,680.2,323z M680.3,322.8L680.3,322.8C680.3,322.8,680.3,322.9,680.3,322.8
							C680.3,322.9,680.3,322.8,680.3,322.8L680.3,322.8L680.3,322.8L680.3,322.8L680.3,322.8L680.3,322.8z M680.4,322.7
							L680.4,322.7L680.4,322.7L680.4,322.7z M683.3,324.4C683.3,324.4,683.3,324.5,683.3,324.4
							C683.2,324.5,683.3,324.4,683.3,324.4L683.3,324.4z"/>
						<path fill="#B9B9B9" d="M679.7,322.8L679.7,322.8L679.7,322.8L679.7,322.8z"/>
						<path fill="#B9B9B9" d="M680.2,323.1v0.1l0,0c0-0.1,0-0.2,0-0.2V323.1L680.2,323.1z"/>
						<path fill="#B9B9B9" d="M680.2,323C680.2,322.9,680.2,322.9,680.2,323L680.2,323L680.2,323z"/>
						<path fill="#B9B9B9" d="M680.3,322.8L680.3,322.8L680.3,322.8C680.3,322.8,680.3,322.9,680.3,322.8
							C680.3,322.9,680.3,322.8,680.3,322.8L680.3,322.8L680.3,322.8L680.3,322.8L680.3,322.8z"/>
						<path fill="#B9B9B9" d="M680.4,322.7L680.4,322.7L680.4,322.7L680.4,322.7z"/>
						<path fill="#B9B9B9" d="M683.3,324.4L683.3,324.4C683.3,324.4,683.2,324.5,683.3,324.4C683.3,324.5,683.3,324.4,683.3,324.4z"
							/>
						<path fill="#B9B9B9" d="M675.9,307c-0.1,1.9,0.5,3.6,1.8,5c1.1,1.2,2.7,1,3.7,0c-0.9-3-1.4-6.2-2-9.5c-0.1,0-0.2,0-0.2,0
							C676.7,302.6,676,304.9,675.9,307z"/>
						<path fill="#B9B9B9" d="M697.6,348.9c-0.1,0.2-0.2,0.4-0.2,0.7c-0.2,0.8,0,1.7,0.5,2.3c0.2,0.2,0.4,0.4,0.6,0.5
							c0.6,0.3,1.4,0.4,2.1,0.2c1.3-0.2,2.3-1.3,2.7-2.5l0,0c-1.4-1.1-2.7-2.2-3.9-3.5C698.6,347.1,698,348,697.6,348.9z M698.2,352
							C698.1,352,698.1,352,698.2,352c-0.1,0-0.1-0.1-0.2-0.1C698.1,352,698.2,352,698.2,352L698.2,352z M698.3,348.9L698.3,348.9
							C698.7,348.8,698.2,349,698.3,348.9z M698.6,348.8L698.6,348.8C698.6,348.9,698.6,348.9,698.6,348.8
							C698.6,348.9,698.6,348.9,698.6,348.8c-0.1,0.1-0.1,0.2-0.1,0.2v-0.1l-0.1,0.1C698.5,349,698.5,349,698.6,348.8
							C698.6,348.9,698.6,348.9,698.6,348.8L698.6,348.8c0-0.1,0-0.1,0-0.1C698.6,348.7,698.6,348.8,698.6,348.8L698.6,348.8
							C698.7,348.8,698.6,348.8,698.6,348.8z M698.9,348.6c-0.1,0-0.1,0-0.1,0.1C698.8,348.7,698.8,348.7,698.9,348.6L698.9,348.6
							L698.9,348.6z M702.6,350.5C702.8,350.2,702.8,350.2,702.6,350.5L702.6,350.5z M699.3,350.5L699.3,350.5L699.3,350.5
							C699.2,350.5,699.3,350.5,699.3,350.5z"/>
						<path fill="#B9B9B9" d="M697.4,349.6c-0.3,0.5-0.3,1.1-0.1,1.7c0.1,0.3,0.3,0.5,0.6,0.7C697.4,351.3,697.2,350.4,697.4,349.6z
							"/>
						<path fill="#B9B9B9" d="M698.1,352L698.1,352C698.2,352,698.2,352,698.1,352c0,0,0,0-0.1-0.1C698,352,698.1,352,698.1,352z"/>
						<path fill="#B9B9B9" d="M698.4,348.9C698.3,348.9,698.3,348.9,698.4,348.9C698.2,349,698.7,348.8,698.4,348.9z"/>
						<path fill="#B9B9B9" d="M698.6,348.7C698.6,348.7,698.6,348.8,698.6,348.7c0,0.1,0,0.1,0,0.2l0,0l-0.1,0.1l0.1-0.1v0.1
							c0-0.1,0-0.1,0.1-0.2l0,0l0,0l0,0C698.6,348.8,698.7,348.8,698.6,348.7v0.1C698.6,348.8,698.6,348.7,698.6,348.7z"/>
						<path fill="#B9B9B9" d="M698.8,348.7c0,0,0.1,0,0.1-0.1l0,0C698.9,348.6,698.9,348.6,698.8,348.7L698.8,348.7z"/>
						<path fill="#B9B9B9" d="M699.3,350.5C699.3,350.5,699.2,350.5,699.3,350.5L699.3,350.5L699.3,350.5z"/>
						<path fill="#B9B9B9" d="M683.5,344.4c-0.3-0.3-0.5-0.6-0.8-0.8c-0.2-0.1-0.5-0.2-0.7-0.3l0,0c-0.8-0.4-1.7-0.1-2.2,0.6
							c0,0,0-0.1,0,0c-0.2,0.1-0.3,0.4-0.5,0.6c-0.3,0.5-0.3,1.1-0.4,1.7c0,0.8,0.2,1.4,0.5,2.1s0.7,1.3,1.3,1.7
							c0.8,0.5,1.8,0.5,2.6,0.1c1.6-0.7,2.3-2.6,1.4-4.1C684.3,345.5,684,345,683.5,344.4z M679.7,344l-0.1,0.1
							C679.7,344.1,679.7,344,679.7,344z"/>
					</g>
					<path fill="#25184E" d="M710.6,292.4c-0.1,0.6-0.2,1.2-0.3,1.8c0,0.1-0.1,0.1-0.1,0.2C710.4,293.8,710.5,293.1,710.6,292.4z"/>
				</g>
				<g>
					<g>
						<g>
							<path fill="#D8D8D8" d="M593.7,323.6c-0.4-0.1-0.7-0.2-1.1-0.3c0.1,0.2,0.2,0.4,0.4,0.6C593.2,323.8,593.4,323.7,593.7,323.6
								z"/>
							<path fill="#D8D8D8" d="M655.9,282.2c-1.2-4.5-3.1-8-5.5-11.5c-0.6-0.8-1.2-1.6-1.8-2.4c0-0.1,0-0.2,0-0.2
								c0.1-3-4.2-2.9-4.6,0c-0.1,0.4-0.1,0.8-0.2,1.2c-0.6-3.2-0.9-6.4-0.7-9.8c0.1-2-2.9-2.3-3.4-0.5c-0.3,1.2-0.6,2.4-0.8,3.5
								c-1-1.7-2.4-3.2-4-4c-1.1-0.5-2.6-0.1-3,1c-0.3-1-0.7-2-1.2-2.9c-3-4.4-8.6-5.7-13.5-6.4c-2-0.3-2.3,2.9-0.5,3.4
								c0.7,0.2,1.4,0.5,2.1,0.8c0.1,0.2,0.3,0.3,0.5,0.5c1.3,0.9,1.5,3.1,1.6,5.1c-1.1-0.8-2.2-1.6-3.2-2.6c-2-1.8-4.2-3.6-5.5-6
								c-0.7-1.3-3-0.4-2.5,1.1s1,3,1.6,4.4c-0.3-0.2-0.7-0.4-1-0.6c-2.1-1.1-4.8-1.4-7.2-1.6c-2-0.2-2.4,3-0.5,3.5
								c0.3,0.1,0.5,0.1,0.8,0.2c0.3,1.4-0.1,3.4-0.5,4.8c-0.5-0.7-1.1-1.3-1.8-1.9c-1.1-0.8-3.1,0.3-2.1,1.6
								c1.2,1.6,0.1,4.9-0.1,6.8c0,0.1,0,0.3,0,0.4c-0.3-0.6-0.7-1.2-1.4-1.6s-1.4-0.1-1.8,0.5c-1.1,1.4-1.4,3.4-1.3,5.4
								c-0.1-0.1-0.2-0.3-0.3-0.4c-1.6-2.2-1.9-4.8-3.3-7c-0.3-0.5-1.2-0.6-1.5,0c-1.6,2.8-1.5,7.1,0,9.8c0.4,0.8,0.9,1.5,1.5,2.2
								c0.1,0.1,0.1,0.2,0.2,0.2c-1.4,0.7-2.9,1.1-4.2,0.8c-0.5-0.1-0.8,0-1.1,0.2c-0.5-0.3-0.9-0.6-1.4-1.1c-1.3-1.3-3.5,0.4-2.6,2
								c1.2,2,2.4,3.8,4.3,4.7c-4.6,0.8-6.6,2.6-9.6,6.1c-0.1,0.1-0.2,0.3-0.2,0.4c-0.4-0.2-0.9-0.5-1.5-1.1
								c-0.8-0.7-2.2,0.3-1.5,1.2c0.9,1.2,1.9,2.5,3.2,3.3c1.4,0.8,3.1,0.7,4.6,1.3c0.1,0,0.1,0,0.2,0.1c-0.2,0.3-0.4,0.6-0.6,0.9
								c-0.8,1.3-1,3-2.4,3.8c-0.7,0.4-0.8,1.1-0.6,1.7c-0.2,0.4-0.2,0.9,0.2,1.4c2.1,2.2,3.7,4.8,5.4,7.3c-0.9-0.4-1.8-1-2.9-1.2
								c-0.7-0.2-1.3,0.5-1.1,1.1c0.7,2.5,3.1,4.1,5,5.6c0.7,0.6,1.5,1.1,2.4,1.6c-0.4,0-0.8,0-1.2,0.1c-0.6,0.2-0.9,0.6-1,1.2
								c-0.2,1.8,1.9,2.8,3.3,3.4c1.5,0.6,3,0.6,4.5,0.2c0.4,0,0.8-0.1,1.1-0.2c0.4,0.3,1,0.5,1.6,0.3c11.1-3.6,22-8.1,32.9-12.5
								c9.5-3.9,20.2-7.4,28.2-14.1c0.7-0.6,1-1.3,0.9-2C658.3,291.6,656.9,286.3,655.9,282.2z M593,323.9c-0.1-0.2-0.3-0.4-0.4-0.6
								c0.4,0.1,0.7,0.2,1.1,0.3C593.4,323.7,593.2,323.8,593,323.9z"/>
							<path fill="#FFFFFF" d="M596.8,274.3c1.2-1.2,2.1-2.4,3.4-3.4c1.2-0.9,3.8-0.6,3.8-3.1c0-1,1-1.8,2-1.5
								c3.4,0.9,6.2-0.5,7.9-3.5c0.7-1.2,2.2-1,2.9,0c3.4,4.5,8.7,2.5,12.6,0.2c0.7-0.4,1.9-0.2,2.2,0.6c2.1,4.8,6.8,3.6,9.6,7.1
								c2.2,2.8,3.3,7,7.7,1.9c0.6-0.6,1-1.3,1.4-1.9c-0.6-0.8-1.1-1.6-1.8-2.4c0-0.1,0-0.2,0-0.2c0.1-3-4.2-2.9-4.6,0
								c-0.1,0.4-0.1,0.8-0.2,1.2c-0.6-3.2-0.9-6.4-0.7-9.8c0.1-2-2.9-2.3-3.4-0.5c-0.3,1.2-0.6,2.4-0.8,3.5c-1-1.7-2.4-3.2-4-4
								c-1.1-0.5-2.6-0.1-3,1c-0.3-1-0.7-2-1.2-2.9c-3-4.4-8.6-5.7-13.5-6.4c-2-0.3-2.3,2.9-0.5,3.4c0.7,0.2,1.4,0.5,2.1,0.8
								c0.1,0.2,0.3,0.3,0.5,0.5c1.3,0.9,1.5,3.1,1.6,5.1c-1.1-0.8-2.2-1.6-3.2-2.6c-2-1.8-4.2-3.6-5.5-6c-0.7-1.3-3-0.4-2.5,1.1
								s1,3,1.6,4.4c-0.3-0.2-0.7-0.4-1-0.6c-2.1-1.1-4.8-1.4-7.2-1.6c-2-0.2-2.4,3-0.5,3.5c0.3,0.1,0.5,0.1,0.8,0.2
								c0.3,1.4-0.1,3.4-0.5,4.8c-0.5-0.7-1.1-1.3-1.8-1.9c-1.1-0.8-3.1,0.3-2.1,1.6c1.2,1.6,0.1,4.9-0.1,6.8c0,0.1,0,0.3,0,0.4
								c-0.3-0.6-0.7-1.2-1.4-1.6s-1.4-0.1-1.8,0.5c-1.1,1.4-1.4,3.4-1.3,5.4c-0.1-0.1-0.2-0.3-0.3-0.4c-1.6-2.2-1.9-4.8-3.3-7
								c-0.3-0.5-1.2-0.6-1.5,0c-1.6,2.8-1.5,7.1,0,9.8c0.4,0.8,0.9,1.5,1.5,2.2c0.1,0,0.2-0.1,0.3-0.1
								C593.1,278,595,276.1,596.8,274.3z"/>
						</g>
						<g>
							<path fill="#571D57" d="M678,341c-0.5,1.6-1,3-1.7,4.3c0.5,0.6,0.6,1.5,0.5,2.2c-0.4,1.9-0.6,3.8-1.1,5.7
								c-0.3,1.3-1.5,2.1-2.8,2.1c-0.3,0.5-0.8,1-1.6,1.2c-5.5,2-10.8,4.4-15.9,7.2c-3.9,2.2-7.7,5.4-11.9,7.1
								c-0.7,1.9-4,2.5-5.3,0.5c-0.6-0.9-3.3-1.5-4.4-1.9c-1.3-0.5-2.7-1.2-4.1-1.5c-2.9-0.8-6.5-1.2-9.5-1.3
								c-0.3,0-0.5-0.1-0.7-0.2c-0.8,0-1.6-0.1-2.5-0.4c-1-0.3-1.5-1.7-0.7-2.5c0.6-0.5,1.7-1.3,3.2-2.3c-0.8,0-1.5-0.1-2.3-0.2
								c-2.9-0.5-7.9-2.3-7-6.1c0.1-0.2,0.2-0.4,0.3-0.6c-2.8-1.8-4.9-5.3-4.2-8.5c-1.8-0.7-3.2-1.5-4.5-2.7
								c-0.8-0.1-1.6-0.2-2.5-0.3c-2.2-0.3-5.4-0.4-6.1-3c-0.2-0.7,0-1.7,0.6-2.2c0.7-0.6,1.4-0.9,2.2-1c0-0.1,0.1-0.2,0.2-0.3l0,0
								c-1.5-0.1-3-0.4-4-0.9c-1.9-1-3.1-3.3-2.5-5.4c0.4-1.2,1.1-2,2-2.5c-1.7-0.7-3.3-1.9-4.7-3.6c-1.1-1.4,0.3-3.8,2-2.8
								c-0.2-0.8-0.3-1.7-0.2-2.4c-0.1-0.1-0.1-0.2-0.2-0.2c-1.1-1.4,0.6-3,1.9-1.9c1.3,1,3.3,1.7,4.9,2c0.5,0.1,1,0.2,1.5,0.2
								c-1.6-3-3.2-6-5.1-8.8c-1.1-1.7,0.9-3.1,2.4-2.5c0.2,0,0.5,0,0.7,0c2,0.4,4,0.7,6,1c0.4,0,0.7,0.1,1,0.1
								c-0.3-1.1-0.4-2.2-0.4-3.3c0-0.6,0.4-1.2,1.1-1.4c0.9-0.2,1.7,0,2.3,0.5c-2-5-3.4-11.2-1.7-15.6c-0.1-1.4,1-2.8,2.6-2.3
								c3.9,1.3,7.7,2.7,11.5,4.3c0.9,0.4,1.9,0.8,2.8,1.2c-0.2-0.5-0.5-0.9-0.7-1.4c-1.3-2.5,2.2-4.5,3.8-2.2
								c0.3,0.4,0.5,0.8,0.8,1.1c-0.9-3.7-2.5-7.2-5.7-10.2c-0.6-0.5-0.1-1.6,0.7-1.6c0.9,0,1.7,0.2,2.5,0.4
								c0.4-0.4,0.9-0.5,1.5-0.2c3.5,2,6.9,3.5,9.6,6.6l0.1,0.1c0-0.1-0.1-0.2-0.1-0.3c-0.6-1.4,1.7-2.3,2.4-1
								c0.1,0.2,0.2,0.3,0.3,0.5c1.1,0.2,2,0.7,2.8,1.4c0-0.2-0.1-0.3-0.1-0.5c-0.2-1.1,1-2.5,2.2-1.7c1.6,1.2,2.8,2.8,3.8,4.5
								c0.8-2.2,0.9-4.7,1.4-7.1c0.5-2.3,3.9-2.1,4.4,0c0.3,1.1,0.5,2.2,0.6,3.4c0.4-1.2,0.9-2.3,1.4-3.5c0.2-0.5,0.5-0.7,0.9-0.8
								c0.3-0.4,1-0.5,1.3,0.1c0.1,0.1,0.1,0.2,0.2,0.3l0,0c0.2,0.3,0.4,0.7,0.6,1.1c1.2,2.3,2,4.8,3,7.2c0.4-1.8,1.3-3.6,2.5-5.2
								c0.4-0.5,1.6-0.5,1.5,0.4c-0.7,5.5,2,9.6,2.7,14.8c0.2,1.5,0.3,3.1,0.2,4.6c0.7-1.6,1.5-3.2,2.2-4.8c0.6-1.3,2.3-0.5,2.4,0.7
								c0.2,2.4-0.2,5-0.7,7.5c0.2,3.2,0.5,6.4,0.6,9.6c0.3-0.9,0.8-1.8,1.5-2.8c0.9-1.2,2.7-0.5,2.5,1c-0.7,3.8,1.2,7,0.4,10.9
								c0,0.1,0,0.2-0.1,0.3c0.3-0.8,0.7-1.5,1-2.3c0.5-1.3,2.4-0.8,2.1,0.6c-0.6,3.3,0.5,5.8,0.5,9c0,2.2-0.9,4-2,5.8
								c-0.7,1.2-1.5,2.7-2.3,4.2c0.9-0.8,1.8-1.6,2.4-2.6C676,338.2,678.5,339.1,678,341z"/>
							<path fill="#401A49" d="M672.8,355.2c1.2,0,2.5-0.8,2.8-2.1c0.5-1.8,0.7-3.8,1.1-5.7c0.2-0.8,0-1.6-0.5-2.2
								c0.7-1.3,1.2-2.6,1.7-4.1c-1.1,0.5-2.1,1.1-2.9,1.7c-2.7,2.1-4.4,4.8-7.4,6.6c-2.7,1.6-5.7,2.9-8.6,4.2
								c-0.2,0.1-0.3,0.2-0.5,0.2c-2.6-5.3-5.5-10.7-8.6-15.8c0.1-5.1,2.2-10.4,1.1-15.4c-0.1-0.3-0.5-0.3-0.6-0.1
								c-1.5,2.6-1.8,5.9-2.6,8.8c-0.2,0.7-0.5,1.4-0.7,2.1c-6.2-9.8-13.2-18.9-21.4-26.6c-0.9-0.8-2.5,0.3-1.8,1.4
								c4.4,6.5,9,12.9,13.3,19.4c-2-0.6-4.1-0.8-6.1-1.2c-3.2-0.7-6.3-1.5-9.5-2c-4.8-0.7-12.4-2.2-16.6,0.7c-0.3,0.2-0.4,0.8,0,1
								c2.3,1.2,4.2,0.8,6.8,0.9c3.9,0.1,7.8,0.6,11.6,1.3c4.8,0.9,11,4.1,15.8,2.4l0,0c1.3,2,2.5,4,3.7,6.1
								c3.7,6.3,6.7,12.9,9.9,19.5c-4.5,1.9-9.1,3.6-13.7,5.4c-3.9,1.5-7.9,3.1-11.4,5.5c0.7,0.1,1.3,0.3,2,0.5
								c1.4,0.4,2.8,1,4.1,1.5c1,0.4,3.8,1,4.4,1.9c1.4,2,4.7,1.5,5.3-0.5c4.2-1.7,7.9-4.9,11.9-7.1c5.1-2.8,10.4-5.3,15.9-7.2
								C672,356.2,672.5,355.8,672.8,355.2z"/>
							<path fill="#401A49" d="M617.7,335.4c7.3,1.6,14.6,3.8,22.1,4.1c2.2,0.1,2.2-3.4,0-3.5c-7.3-0.4-14.6-2.6-21.9-2.1
								C617.1,334,616.9,335.2,617.7,335.4L617.7,335.4z"/>
							<path fill="#401A49" d="M643.2,345.7c-7.8-1.1-16-1.8-23.5-3.9c-0.4-0.1-0.3-0.7,0.1-0.7c7.7-0.3,15.7,0.9,23.4,1.6
								C645,342,646.5,346.1,643.2,345.7z"/>
						</g>
					</g>
					<path fill="#BBFF1D" d="M593.7,323.6c-0.2,0.1-0.5,0.2-0.7,0.3c-0.1-0.2-0.3-0.4-0.4-0.6C593,323.4,593.3,323.5,593.7,323.6z"
						/>
					<path fill="#BBFF1D" d="M592.6,323.3c0.1,0.2,0.2,0.4,0.4,0.6c0.2-0.1,0.5-0.2,0.7-0.3C593.3,323.5,593,323.4,592.6,323.3z"/>
				</g>
			</g>
			<path fill="#34373C" d="M552.7,467.1c-1-31.8,1.3-44.7,2.4-50.6s13.1-11.3,44.7-25.7c0,0,0.3-12.1,15.3-15.1
				c18.7-3.7,49.4-21.7,65.5-25s22.6,7.1,22.6,7.1s42.2-14.8,146.7-28.1s188.8-23.5,259.5-27.5s122.7-1.2,136.4,5.8
				c0,0,4.9,11.2,6.7,28.3c1.7,17,0.4,40.1,4.3,57.2s8.6,45.1,7.8,49.6c-0.8,4.6-21.1,2.6-41.7,3.2c-20.6,0.5-92.1,2-165.3,6.8
				S883,472.4,853.9,477.4c-29.2,5-124.4,3.9-188.6-3.5S552.7,467.1,552.7,467.1z"/>
			<g>
				<path fill="#464646" d="M699,459c-5-12.9-1.3-27.5-2.5-41.5s-8.8-20.7-9.2-32.8c-0.3-12.2,1.8-22.8,3.5-27.2
					c1.8-4.3,4.1-2.5,2.8,3.2l9.5-2.8c0,0-6.4-10.4-22.6-7.1c-15.2,3.1-43.4,19.4-62.3,24.3c-2.8,15.8-1.6,30.1,1.5,41.3
					c3.6,12.8,7.2,15.6,9.8,24.6c2.7,9,6.7,23.3,11.8,27.2c5.2,3.9,70.8,7.2,70.8,7.2S704,471.9,699,459z"/>
				<path fill="#464646" d="M1254.5,378.4c-1.2-14.1-0.9-29.6-2.1-42c-1.2-12.1-4.1-21.2-5.6-25.5c-2.3-0.5-4.9-0.9-7.7-1.2
					c-44-5.1-73.9-8.1-87.8-7.3c-13.9,0.8-76.2,3.1-116,7.2c-39.8,4.1-116.5,12.4-155.5,18s-118.4,19.8-142,25s-41.3,14-41.3,14
					c-0.4,0.1-1.1,11.3,0.7,21.8s5.7,18.5,6.5,31.3s-2,21.6,2.2,34s11.4,19.8,22.7,21.7s77.3,6.8,121.5-3.8
					c44.2-10.6,140.9-17.2,161-18.7s122.4-11.5,149.5-10.7s80.5,0.8,90.2-1.2s8.2-7.7,6.7-16.3
					C1256,418.3,1253.8,397.5,1254.5,378.4z"/>
			</g>
		</g>
	</g>
	<path fill="none" d="M1245.2,426.5c68.4-24.8,118-37.8,144.8-41.5s43.2,5.6,50.2,22.2s6.1,41.1-28.2,58.5s-122.5,28.4-232.2,31.5
		s-241.4-0.5-298,4.5s-120,11.6-180.5,25.8S590.5,561.2,573,574.2s-19.8,21-19.8,21s-47.6,0-83.7-14.3s-62.4-37.4-70.9-54.8
		s-9.1-38.1,3.4-50.8s98-21.6,131-17.8s162,22.9,202.8,27.8S921,454.8,921,454.8L1245.2,426.5z"/>
	<g>
		<path fill="#888888" d="M1411.5,385L1411.5,385c8.2,9.6,10.7,18.3,8.5,27.7c-3,13.1-22.4,30.9-54.2,40.8s-63.5,17.6-123.5,22.9
			s-140.8,2.3-177.5,2.6s-79.8-4.1-111-2.6s-115.4,3.2-196.5-1.9s-153.8-13.6-210-21.2s-94.2-6.4-116.2,3.5s-30.8,15.1-35.5,28.5
			s14.3,18.3,14.3,18.3s4.8-13.1,21.8-22.2s62.8-16.8,93-13.5s101,14.8,164.8,20.5s104.9,8.1,168,8s28.1,2.6,141.2-2
			s195.9-1.5,242.2-3.2s116.4-3.6,167-27.5c28.9-13.6,33.5-39.1,31-59.6C1431.1,390.3,1425.6,387.1,1411.5,385z"/>
	</g>
</g>
</svg>
