<?xml version="1.0" encoding="utf-8"?>
<!-- Generator: Adobe Illustrator 22.1.0, SVG Export Plug-In . SVG Version: 6.00 Build 0)  -->
<svg version="1.1" id="_x32_6_x5F_HeadGear_x5F_SuperheroCrown"
	 xmlns="http://www.w3.org/2000/svg" xmlns:xlink="http://www.w3.org/1999/xlink" x="0px" y="0px" viewBox="0 0 2000 2000"
	 enable-background="new 0 0 2000 2000" xml:space="preserve">
<g>
	<g>
		<path fill="#FEB04B" d="M1240.3,433.5c-15.2-3.7-30.5-6.8-46-9c-15.5-2.2-31-3.8-46.6-4.8l-11.7-0.7l-11.7-0.5
			c-3.9-0.2-7.8-0.2-11.7-0.3l-5.9-0.1l-5.9,0c-31.3-0.3-62.6,1-93.7,4.2c-31.1,3.2-62,8.3-92.7,14.7c-15.3,3.2-30.6,6.8-45.8,10.5
			c-15.2,3.7-30.4,7.6-45.4,11.9c-15,4.3-29.9,9.2-44.5,14.6c-14.7,5.3-29.2,11.1-43.6,17.2l-10.8,4.6l-10.7,4.8
			c-7.1,3.2-14.3,6.4-21.4,9.7c-14.2,6.5-28.4,13.2-42.3,20.3c-14,7.1-27.7,14.5-41.1,22.5c-11.8,7.1-23.3,14.7-34.2,23.1
			c0.7,14.3,3,25.9,8.5,37.3c2.7-2.3,5.5-4.5,8.4-6.5c4.2-3,8.5-5.9,12.8-8.6c8.7-5.5,17.7-10.5,26.8-15.2
			c9.1-4.7,18.4-9.1,27.8-13.3c9.4-4.2,18.9-8.1,28.4-11.9c19.1-7.5,38.6-14.2,58.5-19.6c9.9-2.7,20-5,30.1-7
			c10.1-1.9,20.3-3.5,30.5-4.9c20.4-2.7,41-4.1,61.5-4.2c10.3-0.1,20.6,0.2,30.8,0.7c10.3,0.5,20.6,1.7,30.7,3.3
			c10.2,1.7,20.2,3.8,30.2,6.3c10,2.5,19.8,5.4,29.7,8.2l7.4,2.1c2.5,0.7,4.9,1.3,7.4,2c5,1.5,9.9,3.1,14.7,5
			c9.5,3.7,18.8,7.8,27.8,12.5c3.5-4.1,7.3-8,11.4-11.6c4.2-3.7,8.5-7.2,13-10.3c9-6.4,18.5-12.2,28.3-17.2
			c9.8-5.1,19.7-9.9,29.7-14.6c10-4.7,20.2-8.9,30.8-12.4c10.5-3.5,21.3-6.3,32.2-8.2c10.9-2,22-3.2,33-3.8
			c11.1-0.5,22.1-0.6,33.2-0.2c5.5,0.2,11.1,0.5,16.6,1c3.7,0.4,7.3,0.8,11,1.3c-0.8-8.6-2.3-19.6-4.6-29c-1.2-5-2.4-9.4-3.7-13.3
			l-14.5-4.2C1255.5,437.4,1247.9,435.3,1240.3,433.5z"/>
		<path fill="#FEB04B" d="M1045.9,564.4c0.1-0.1,0.2-0.3,0.4-0.6L1045.9,564.4z"/>
		<path fill="#FEB04B" d="M1258.2,486.6c-11-0.4-22-0.3-33,0.2c-11,0.7-21.9,1.9-32.7,3.8c-10.8,1.9-21.4,4.7-31.8,8.1
			c-3.9,1.3-7.7,2.7-11.4,4.1c0.1,0.3,0.1,0.7-0.2,0.9c-15.9,9.7-33.5,16.7-50.1,25.3c-0.9,0.5-1.9,1-2.8,1.5l-11.3,15.3l-20.6,15.5
			c4.6-7.2,10.9-15.3,14.5-19.7c-8.1,5.7-15.9,11.8-24.2,17.5c-0.6,0.4-1.3-0.5-0.7-1c6.9-6.2,13.9-12.2,21.4-17.8
			c-0.9,0.6-1.9,1.2-2.8,1.9c-9,6.2-17.6,13.1-24.9,21.3c-1.3,0.8-1.6,0.9-1.6,0.9c-0.1,0.2-0.2,0.2-0.2,0.2c-0.1,0-0.1,0-0.2-0.1
			l-0.4-0.2l-0.9-0.4l-1.8-0.7c-1.2-0.5-2.3-1-3.5-1.5c-2.3-1-4.6-2.1-7-3.1l-7-3.1l-7-3c-4.7-2-9.5-3.8-14.3-5.2
			c-2.4-0.7-4.9-1.4-7.4-2l-7.4-2.1c-9.8-2.8-19.7-5.7-29.6-8.2c-9.9-2.5-19.9-4.6-30-6.2c-10.1-1.6-20.2-2.7-30.4-3.2
			c-10.2-0.5-20.5-0.7-30.7-0.6c-20.4,0.2-40.9,1.7-61.1,4.4c-10.1,1.4-20.2,3-30.3,5c-10,1.9-20,4.1-29.9,6.7
			c-19.8,5.2-39.2,11.7-58.3,19.1c-19,7.5-37.9,15.5-56,25c-9.1,4.7-17.9,9.8-26.5,15.3c-2.2,1.4-4.2,2.8-6.4,4.2
			c-2.1,1.5-4.1,3-6.1,4.5c-3,2.3-5.9,4.6-8.7,7.1c1.2,2.2,2.5,4.4,4,6.7c0,0,24-20.9,65.5-40.8s90.9-37.6,140-42
			s110.9-3.7,179.2,13.8c0,0,60.1,17.8,75.7,23.8c0,0,34.4-35.5,68.2-51.2s54.8-28.3,96.5-29.5c35.5-1,60.7-1.4,72.6-0.1
			c0-2.1-0.1-4.9-0.3-8.1c-3.8-0.5-7.6-1-11.5-1.4C1269.1,487.2,1263.7,486.9,1258.2,486.6z"/>
		<path fill="#FEB04B" d="M1178,417.7l-7.9-0.5l3-4.7c-5.8-0.4-12.9-0.8-20.9-1.1l-2.1,3.8l-61.4-3.4l1.1-1.9
			c-15.5-0.1-28.5,0-35,0.4c-4.8,0.3-11.3,0.9-18.9,1.6l-2.3,3.9l-39.3,3.4c0,0,0.1-0.7,1.3-2.9c-15.6,1.8-32.1,3.8-47.2,5.6
			c-39.2,4.7-80.7,17.5-95.3,20.1c-14.6,2.6-28.5,5.6-66.2,17.9c-37.7,12.3-80.7,32.8-88.8,35.8c-8.1,3-38.9,18.8-60.4,29.3
			c-21.5,10.5-46.7,22.6-55.5,28.3c-2.9,1.9-5.5,3.4-7.7,4.2c-0.1,4.9-0.2,9.5-0.1,13.8c10.4-7.7,21.4-14.7,32.5-21.3
			c13.5-8,27.4-15.4,41.4-22.4c28.1-14,56.8-26.6,85.5-39.2c14.4-6.2,28.9-12.3,43.6-17.7c14.7-5.5,29.7-10.3,44.8-14.7
			c15.1-4.4,30.3-8.2,45.6-11.8c15.3-3.6,30.5-7.2,45.9-10.3c30.7-6.3,61.8-11.4,93.1-14.5c31.3-3.1,62.7-4.3,94.1-3.8
			c31.4,0.4,62.8,1.8,94,6.2c15.6,2.1,31,5.2,46.3,8.9c11.7,2.8,23.2,6,34.7,9.2c-1.3-3.1-2.8-5.8-4.5-7.9
			c-36.5-12.8-67.4-16-90-18.4L1178,417.7z"/>
		<path fill="#FEB04B" d="M1045.9,564.5L1045.9,564.5C1045.9,564.4,1045.9,564.5,1045.9,564.5z"/>
		<path fill="#FFD8A5" d="M582.2,553.1c8.8-5.7,34-17.8,55.5-28.3c21.5-10.5,52.4-26.3,60.4-29.3c8.1-3,51.1-23.5,88.8-35.8
			c37.7-12.3,51.6-15.3,66.2-17.9c14.6-2.6,56.2-15.4,95.3-20.1c15.2-1.8,31.6-3.8,47.2-5.6c-1.3,2.2-1.3,2.9-1.3,2.9l39.3-3.4
			l2.3-3.9c7.6-0.8,14.1-1.3,18.9-1.6c6.5-0.4,19.5-0.5,35-0.4l-1.1,1.9l61.4,3.4l2.1-3.8c8,0.3,15.1,0.7,20.9,1.1l-3,4.7l7.9,0.5
			l3.3-4.5c22.6,2.4,53.5,5.6,90,18.4c-2.1-2.5-4.5-4.3-7.6-5.3c-9.8-3.3-56.4-17.5-102.8-20.2c-46.3-2.7-105.5-2.8-190.7,6.5
			c-85.3,9.4-167.8,34.5-230.5,58.2c-49.1,18.6-118,52.8-165.1,83.9c0,0.9,0,1.7-0.1,2.6C576.7,556.5,579.2,555,582.2,553.1z"/>
		<path fill="#B48140" d="M1050,585c1.8-2,10.7-14.6,19.5-22.5c8.8-7.9,23.5-19,54-34s67.2-25.9,105.2-26.8
			c37.9-0.9,56.1,2.4,56.1,2.4s0.8-1.1,1.4-3.8c0.1-0.7,0.2-1.7,0.2-3.1c-11.9-1.3-37.2-1-72.6,0.1c-41.8,1.2-62.8,13.8-96.5,29.5
			s-68.2,51.2-68.2,51.2c-15.6-6-75.7-23.8-75.7-23.8c-68.3-17.5-130-18.1-179.2-13.8s-98.5,22.1-140,42s-65.5,40.8-65.5,40.8
			c-1.5-2.2-2.8-4.5-4-6.7c-1,0.9-1.9,1.7-2.8,2.6l-2.5-2.7c1.2-1.1,2.4-2.2,3.7-3.3c-5.5-11.4-7.9-22.9-8.5-37.3
			c-1.4,1.1-2.9,2.2-4.3,3.4l-2.5-3.2c2.2-1.7,4.4-3.4,6.7-5.1c-0.1-4.3-0.1-8.9,0.1-13.8c0-0.9,0-1.7,0.1-2.6
			c-12.4,8.2-23.4,16.2-32,23.6c-0.8,0.7-1.3,1.7-1.3,2.8c-0.2,5.3-0.6,21.7,1.5,34c2.6,14.8,7,35.9,11.5,38.9s6.6,0,6.6,0
			s2.4-5.9,8.6-9.7c6.2-3.8,31.4-27.6,62.2-43.5c30.8-15.9,61.7-31.8,95-39.4s69.7-20.8,127.7-17.5s70.5,4.8,111.5,14.4
			s72.7,22.7,76.8,24.8C1046.6,585.1,1048.2,587,1050,585z"/>
		<path fill="#B48140" d="M1194.8,421.4c-31.2-4.4-62.6-5.8-94-6.2c-31.4-0.5-62.8,0.8-94.1,3.8c-31.3,3.1-62.3,8.2-93.1,14.5
			c-15.4,3.2-30.7,6.7-45.9,10.3c-15.3,3.7-30.5,7.5-45.6,11.8c-15.1,4.4-30,9.2-44.8,14.7c-14.7,5.4-29.2,11.5-43.6,17.7
			c-28.7,12.6-57.4,25.2-85.5,39.2c-14,7-27.9,14.4-41.4,22.4c-11.1,6.6-22,13.6-32.5,21.3c-2.2,1.7-4.5,3.3-6.7,5.1l2.5,3.2
			c1.4-1.1,2.9-2.2,4.3-3.4c10.9-8.4,22.4-15.9,34.2-23.1c13.4-8,27.1-15.4,41.1-22.5c14-7.1,28.1-13.8,42.3-20.3
			c7.1-3.3,14.2-6.5,21.4-9.7l10.7-4.8l10.8-4.6c14.4-6.1,28.9-11.9,43.6-17.2c14.6-5.4,29.5-10.3,44.5-14.6
			c15-4.3,30.2-8.2,45.4-11.9c15.2-3.7,30.5-7.3,45.8-10.5c30.6-6.4,61.5-11.5,92.7-14.7c31.1-3.1,62.4-4.5,93.7-4.2l5.9,0l5.9,0.1
			c3.9,0.1,7.8,0.1,11.7,0.3l11.7,0.5l11.7,0.7c15.6,1,31.2,2.5,46.6,4.8c15.5,2.2,30.8,5.3,46,9c7.6,1.9,15.1,4,22.6,6.1l14.5,4.2
			c-0.5-1.5-1.1-3-1.6-4.3c-11.5-3.2-23.1-6.4-34.7-9.2C1225.8,426.5,1210.4,423.5,1194.8,421.4z"/>
		<path fill="#FFD8A5" d="M1054.6,559.2c8.2-5.7,16.1-11.8,24.2-17.5c-3.5,4.4-9.9,12.4-14.5,19.7l20.6-15.5l11.3-15.3
			c0.9-0.5,1.9-1,2.8-1.5c16.5-8.7,34.1-15.6,50.1-25.3c0.3-0.2,0.4-0.6,0.2-0.9c-16.6,6.5-32.6,14.6-48.6,22.7
			c-4.9,2.5-9.7,5.2-14.4,7.9c-1.2,0.7-2.4,1.4-3.5,2.1l-3.5,2.2c-1.2,0.7-2.3,1.5-3.4,2.2c-0.2,0.1-0.4,0.3-0.6,0.4
			c-7.4,5.5-14.5,11.5-21.4,17.8C1053.3,558.7,1054,559.6,1054.6,559.2z"/>
		<path fill="#B48140" d="M1258.3,483.9c-11.1-0.4-22.1-0.3-33.2,0.2c-11.1,0.7-22.1,1.9-33,3.8c-10.9,1.9-21.7,4.8-32.2,8.2
			c-10.5,3.5-20.8,7.8-30.8,12.4c-10,4.8-19.9,9.5-29.7,14.6c-9.8,5-19.3,10.8-28.3,17.2c-4.5,3.2-8.9,6.7-13,10.3
			c-4.1,3.6-7.9,7.5-11.4,11.6c-9-4.7-18.3-8.9-27.8-12.5c-4.8-1.9-9.7-3.5-14.7-5c-2.5-0.7-5-1.4-7.4-2l-7.4-2.1
			c-9.8-2.9-19.7-5.7-29.7-8.2c-10-2.5-20-4.7-30.2-6.3c-10.2-1.7-20.4-2.8-30.7-3.3c-10.3-0.5-20.6-0.8-30.8-0.7
			c-20.6,0.1-41.1,1.6-61.5,4.2c-10.2,1.3-20.4,3-30.5,4.9c-10.1,1.9-20.2,4.3-30.1,7c-19.9,5.4-39.3,12-58.5,19.6
			c-9.6,3.8-19,7.8-28.4,11.9c-9.4,4.2-18.7,8.6-27.8,13.3c-9.1,4.7-18.1,9.7-26.8,15.2c-4.4,2.7-8.6,5.6-12.8,8.6
			c-2.9,2.1-5.7,4.2-8.4,6.5c-1.2,1.1-2.5,2.1-3.7,3.3l2.5,2.7c0.9-0.9,1.8-1.8,2.8-2.6c2.7-2.5,5.7-4.8,8.7-7.1
			c2-1.5,4.1-3,6.1-4.5c2.1-1.4,4.2-2.8,6.4-4.2c8.5-5.5,17.4-10.6,26.5-15.3c18.1-9.5,37-17.6,56-25c19.1-7.4,38.5-13.9,58.3-19.1
			c9.9-2.6,19.8-4.9,29.9-6.7c10-1.9,20.1-3.6,30.3-5c20.3-2.7,40.7-4.2,61.1-4.4c10.2-0.1,20.5,0.1,30.7,0.6
			c10.2,0.5,20.3,1.6,30.4,3.2c10.1,1.6,20.1,3.7,30,6.2c9.9,2.5,19.8,5.3,29.6,8.2l7.4,2.1c2.5,0.7,5,1.3,7.4,2
			c4.9,1.4,9.6,3.3,14.3,5.2l7,3l7,3.1c2.3,1,4.6,2.1,7,3.1c1.2,0.5,2.3,1,3.5,1.5l1.8,0.7l0.9,0.4l0.4,0.2c0.1,0,0.1,0.1,0.2,0.1
			c0.1,0,0.1-0.1,0.2-0.2c0,0,0,0,0,0l0.4-0.6c-0.2,0.3-0.3,0.5-0.4,0.6l0,0c0.1,0,0.4-0.1,1.6-0.9c7.3-8.1,15.9-15,24.9-21.3
			c0.9-0.6,1.8-1.3,2.8-1.9c0.2-0.1,0.4-0.3,0.6-0.4c1.1-0.8,2.3-1.5,3.4-2.2l3.5-2.2c1.2-0.7,2.4-1.4,3.5-2.1
			c4.8-2.8,9.6-5.4,14.4-7.9c16-8,31.9-16.2,48.6-22.7c3.8-1.5,7.6-2.9,11.4-4.1c10.4-3.4,21-6.2,31.8-8.1
			c10.8-1.9,21.7-3.1,32.7-3.8c11-0.5,22-0.6,33-0.2c5.5,0.2,11,0.6,16.5,1c3.8,0.4,7.7,0.8,11.5,1.4c-0.1-0.9-0.1-1.9-0.2-2.9
			c-3.7-0.5-7.3-0.9-11-1.3C1269.3,484.4,1263.8,484.1,1258.3,483.9z"/>
	</g>
	<g>
		<path fill="#FFD8A5" d="M1185.1,425.1c-3.6-0.2-7.2-0.4-10.9-0.6l-69.6,94.1l-14.5,5.8l74.3-100.5c-6.3-0.4-12.6-0.8-18.9-1.2
			c-9.6,13.6-65.3,92.9-76.3,107.2c-12,15.7-17.6,25.9-22.4,27.1c-4.9,1.2-16.4-6.6-27.5-10s-23.4-8.5-23.4-8.5l85.9-117.2
			c-16.7,0.3-33.4,1-50,2.2c-7.7,14.2-57.9,107.3-60.2,107.9c-2.5,0.6-13.1-2.8-22.4-4.8c-9.3-2-12-3-13.7-7c0,0,47.9-82,51.4-87.2
			c1.7-2.5,1.1-3.9,0-4.6c-29.5,3.5-59,8.6-87.8,15.2c-0.5,0.1-0.7-0.6-0.2-0.7c21.1-4.5,42-9.8,63.2-13.4
			c36.8-6.4,74.1-10.2,111.4-11.2c37.1-1,75.1-0.8,111.8,5.2C1186.7,423,1186.3,425.2,1185.1,425.1z"/>
		<g>
			<g>
				<path fill="#FEB04B" d="M1104.5,475.1c0.7-2.2,1-4.2,0.6-4.9c-0.9-1.7-18.8-21.3-24.4-28s-5.7-4.9-13.6-5.3
					c0,0-54.8,4.9-61.4,8.8l94.7,23.7C1100.4,469.3,1101.9,471,1104.5,475.1z"/>
				<path fill="#B48141" d="M984.4,477.5c-3.1,6-2.5,6.9,0.4,10.6c2.9,3.6,5.5,7.7,16,14.9s26.8,22.8,33.9,27.1s11.4,9.2,15.2,7.5
					c3.8-1.7,6.4-6.1,18-18.3c11.6-12.3,30.2-32.4,32.8-36c1.4-2,2.9-5.3,3.8-8.1c-2.6-4.1-4.1-5.8-4.1-5.8l-94.7-23.7
					c-0.1,0.1-0.2,0.1-0.3,0.2C1000.5,449.7,987.4,471.5,984.4,477.5z"/>
			</g>
			<g>
				<g>
					<polygon fill="#4F3615" points="1048.1,536.6 1049.1,538.5 1048.1,536.6 					"/>
					<polygon fill="#4F3615" points="1046.8,534.1 1048.1,536.6 1048.1,536.6 1046.8,534.1 					"/>
				</g>
				<path fill="#7E94CF" d="M1009.2,442.1c-0.3,0.1-0.5,0.1-0.7,0.2c-3.7,1.5-5.2,4.1-12,16.6c-6.7,12.3-11.5,16.4-8.8,21.6
					c16.7-5.2,27.7-7.2,27.7-7.2L1009.2,442.1z"/>
				<path fill="#93AAED" d="M1041.7,440.9c-7.6,7.1-26.4,32.4-26.4,32.4l53.9-4L1041.7,440.9z"/>
				<path fill="#6376A8" d="M1046.6,536.3c0.5,0.4,0.9,0.5,1.5,0.3l-1.3-2.5l-31.5-60.8c0,0-11,2.1-27.7,7.2c0,0.1,0.1,0.2,0.1,0.3
					C990.8,486.2,1022.1,513.8,1046.6,536.3z"/>
				<path fill="#B6C5F3" d="M1041.7,440.9l-1.3-1.9c-3.2,0.2-26,1.7-31.3,3.1l6.2,31.2C1015.3,473.3,1034.2,448,1041.7,440.9z"/>
				<path fill="#E9EEFB" d="M1065.3,439h-24.5c0,0-0.1,0-0.4,0l1.3,1.9l27.5,28.4L1065.3,439z"/>
				<polygon fill="#7A8FC9" points="1072.8,469.3 1069.2,469.3 1015.3,473.3 1046.8,534.1 				"/>
				<path fill="#7084BB" d="M1046.8,534.1l1.3,2.5c1-0.4,2.2-1.9,4.4-3.9c3.5-3,27.7-31.9,35.9-40.8c8.2-8.8,18-17.7,15.9-20.6
					l-31.5-2.1L1046.8,534.1z"/>
				<path fill="#BECCF4" d="M1074.4,440.3c-1.9-0.5-9.1-1.3-9.1-1.3h0l3.9,30.3h3.6l31.5,2.1c0,0,0,0,0-0.1
					C1102,468.5,1076.4,440.8,1074.4,440.3z"/>
			</g>
		</g>
	</g>
	<g>
		<g>
			<path fill="#59B7FF" d="M897,442.8C897,442.8,897,442.7,897,442.8C896.9,442.7,896.9,442.8,897,442.8L897,442.8z"/>
		</g>
	</g>
	<path fill="#FFD8A5" d="M1045.9,567.6L1045.9,567.6l-1.1,1.1l-5.9,5.7c-14.8-6.7-53.7-19.2-53.7-19.2l6-8.5
		c-4.3-1.4-8.5-2.7-12.9-3.9c-3.1-0.9-6.2-1.7-9.2-2.4l-5.5,9.5c-12.7-2.5-39.5-8.1-39.5-8.1s1-1.9,4.9-9.1
		c-25.2-3.5-50.8-4.5-76.2-3.7c-21.9,0.7-43.6,2.9-65.3,5.7c-21.2,2.8-42.9,5.8-63,13.3c-1,0.4-1.5-1.3-0.5-1.6
		c22.8-8.9,47.6-12.6,71.8-16c84-11.8,173.9-6.5,249.7,34.4C1046.6,565.2,1046.5,566.6,1045.9,567.6z"/>
	<path fill="#B48140" d="M1045.9,564.4L1045.9,564.4C1045.9,564.5,1045.9,564.4,1045.9,564.4z"/>
	<path fill="#B48140" d="M1046.4,563.8c-0.2,0.3-0.3,0.5-0.4,0.6L1046.4,563.8z"/>
	<path fill="#FFECD2" d="M1045.9,567.6c-0.3,0.4-0.7,0.8-1.1,1.1L1045.9,567.6z"/>
	<path fill="#FFECD2" d="M1118.8,405.9"/>
</g>
</svg>
