<?xml version="1.0" encoding="utf-8"?>
<!-- Generator: Adobe Illustrator 23.0.1, SVG Export Plug-In . SVG Version: 6.00 Build 0)  -->
<svg version="1.1" id="Layer_1" xmlns="http://www.w3.org/2000/svg" xmlns:xlink="http://www.w3.org/1999/xlink" x="0px" y="0px"
	 viewBox="0 0 2000 2000" enable-background="new 0 0 2000 2000" xml:space="preserve">
<g id="_x33_0_x5F_HeadGear_x5F_AdidasTracksuitBuckethat_x5F_Background">
	<path fill="#D32D2D" d="M1443.4,537c-10.9-8.1-27.4-17.3-43.5-26.4c-1.6-0.9-3.1-1.8-4.7-2.6c-8.9-5-17.6-10-24.9-14.6
		c-13.7-8.6-28.9-19.8-41.6-31.5c-0.5-0.5-1-0.9-1.5-1.4c-6.9-6.5-12.9-13.1-17.4-19.5c-7.3-10.4-18.5-18.1-26.9-22.8
		c-6.5-3.6-11.3-5.5-11.3-5.5c-0.5-14.6-7.7-23.6-13.6-33.4c-1-1.7-2-3.4-2.9-5.2c-6-12-15.2-44.6-24.5-80.7
		c-9.3-36.1-13.7-49.1-30.1-62.1c-16.5-12.9-87.7-25.9-203.7-26s-181,12.4-263,37.5c-35.3,10.8-58,18.9-74.8,25.6
		c-1,0.4-2,0.8-3,1.2c-20.2,8.3-31.5,14.8-46.8,22.4c-1.6,0.8-3.2,1.8-4.6,2.8c-23.6,16.8-24.6,61.5-30.3,97.8
		c-6.1,38.6-15.3,69.8-29.6,95s-5.6,39.1-5.6,39.1c-25.4,11.7-24.2,37.2-41.4,70.5c-1.2,2.3-2.4,4.6-3.6,6.8
		c-0.3,0.6-0.6,1.2-0.9,1.7c-12.6,23.2-24.4,39.8-34.8,51.5c-0.7,0.7-1.3,1.5-1.9,2.2c-1.7,1.8-3.3,3.6-4.9,5.2
		c-13,13-28.6,20.8-27.3,38.3s29.1,18,62.3,15.1c3.3-0.3,6.8-0.8,10.4-1.4c32.2-5.8,72.2-24.1,72.2-24.1l-7.5-35.8
		c0,0,1.5,0.3,29-10.8c27.6-11.1,37.2-22.2,69.6-37.1c32.4-14.9,66.2-28.7,132.6-27.8s98,3.6,150,4.5c51.9,0.9,64.1-2.6,128.3-15
		c64.2-12.3,73.1-19.6,112.3-24.3c39.2-4.8,102.7-5.8,102.7-5.8c0.2,17.2-3,55.3-3,55.3c18.4-8.7,53.4-1.1,74.7-1.3
		c10.2-0.1,25.4-1.8,40.9-4.8c17.1-3.2,34.6-7.9,46.4-13.3c0.9-0.4,1.8-0.9,2.7-1.3C1467.2,564.7,1460.8,549.8,1443.4,537z"/>
	<path opacity="0.3" fill="#05132B" enable-background="new    " d="M510.4,636.6c4.6-2.2,9.4-4.5,14.6-6.8
		c9.7-4.3,21.1-10.3,32-16.2c6.4-3.5,12.5-6.7,18.2-9.6c5.5-2.8,11.6-6,18-9.5c11.2-6,23.8-12.7,36-18.3
		c16.3-7.5,34.9-15.5,60.7-23.8l1.1-0.4c23.9-7.7,51.1-16.4,78.7-19.9c32.7-4.1,58.6-5.8,81.5-5.4c9.8,0.2,19.6,0.5,29.2,0.8
		c15.6,0.5,31.8,1,47.5,1c22.5,0,45.9-1.6,69.5-4.5c18.3-2.3,61.9-11.3,82.9-15.6l5.9-1.2c7.8-1.6,19.1-4.3,31.1-7.2
		c16.2-3.9,32.9-8,43.2-9.8c2.4-0.4,5-0.9,7.7-1.4c17.4-3.2,39-7.1,66.6-7.4c31.7-0.3,65.8,3.9,87.1,8c17.8,3.4,40.9,8.5,77.8,21.1
		c-1.6-0.9-3.1-1.8-4.7-2.6c-34.1-11.4-55.9-16.3-72.9-19.5c-21.4-4-55.6-8.2-87.3-8c-27.7,0.2-49.4,4.2-66.8,7.4
		c-2.7,0.5-5.2,1-7.7,1.4c-10.4,1.8-27.1,5.9-43.3,9.8c-12,2.9-23.4,5.7-31.1,7.2l-5.9,1.2c-21,4.3-64.6,13.3-82.8,15.6
		c-23.6,3-46.9,4.5-69.4,4.5c-15.7,0-31.8-0.5-47.5-1c-9.6-0.3-19.4-0.6-29.2-0.8c-23-0.5-48.9,1.3-81.7,5.4
		c-27.7,3.5-54.9,12.2-78.9,20l-1.1,0.4c-25.9,8.3-44.5,16.4-60.8,23.9c-12.2,5.6-24.9,12.3-36.1,18.3c-6.4,3.4-12.5,6.7-18,9.4
		c-5.7,2.9-11.8,6.1-18.2,9.6c-10.9,5.9-22.2,11.9-31.9,16.2c-5.2,2.3-10,4.6-14.6,6.8c-8.8,4.3-17.2,8.3-26.1,10.8
		c-10.5,3-15.5,5.5-25.5,10.8c-0.6,0.7-1.3,1.5-1.9,2.2c11.6-6.2,16.6-8.8,27.8-12C493.1,645,501.5,640.9,510.4,636.6z"/>
	<path opacity="0.3" fill="#05132B" enable-background="new    " d="M514.9,594.4c10-3.8,10-3.8,25.4-11.8l3.8-2
		c9.4-4.8,20.7-11.4,32.8-18.3c12.9-7.4,26.3-15.1,38.5-21.4l3.4-1.8c23.7-12.3,53.2-27.6,86.4-37.9c35.9-11.1,54.6-15,95.6-19.9
		c40.2-4.8,82.6-8.1,119.5-9.2c11.8-0.4,22.7-0.5,33.2-0.7c21.5-0.4,43.7-0.8,76.4-2.6c38.2-2.1,63.1-8.5,76.5-11.9
		c3.7-1,6.6-1.7,8.6-2c2.2-0.4,6-1.3,10.8-2.5c15.2-3.8,43.6-10.9,70-11.6c28.2-0.8,44.1,2.1,60.9,5.1c3.7,0.7,7.6,1.4,11.6,2
		c14.2,2.3,34.8,7.4,60.5,13.8c-0.5-0.5-1-0.9-1.5-1.4c-24.9-6.2-44.9-11.1-58.8-13.4c-4-0.7-7.9-1.4-11.6-2
		c-16.8-3-32.8-5.9-61.1-5.1c-26.5,0.7-54.9,7.9-70.2,11.7c-4.8,1.2-8.6,2.1-10.7,2.5c-2,0.3-5,1.1-8.7,2
		c-13.3,3.4-38.1,9.7-76.3,11.9c-32.7,1.8-54.9,2.2-76.4,2.6c-10.5,0.2-21.4,0.4-33.3,0.7c-37,1.1-79.4,4.4-119.6,9.2
		c-41,4.9-59.8,8.8-95.8,19.9c-33.3,10.3-64.1,26.3-86.6,38l-3.4,1.8c-12.2,6.3-25.6,14-38.5,21.5c-12,6.9-23.4,13.4-32.7,18.2
		l-3.8,2c-15.4,8-15.4,8-25.3,11.7l-0.2,0.1c-6.2,2.3-14.4,7-20.2,10.5c-0.3,0.6-0.6,1.2-0.9,1.7c5.9-3.6,14.9-8.8,21.5-11.3
		L514.9,594.4z"/>
	<path opacity="0.3" fill="#05132B" enable-background="new    " d="M443,699.8c1.1,10,8,10.5,23.2,11.8c10.8,1,19.1,2.3,30.7,5
		c32.2-5.8,72.2-24.1,72.2-24.1l-7.5-35.8c0,0-57.7,19.3-78,24.5C463.1,686.4,441.9,689.7,443,699.8z"/>
	<path opacity="0.3" fill="#05132B" enable-background="new    " d="M1428.5,553.8c-11.8-3.5-47.5-10.2-81.7-12.2
		s-60.7-1.2-60.7-1.2c0.2,17.2-3,55.3-3,55.3c18.4-8.7,53.4-1.1,74.7-1.3c10.2-0.1,25.4-1.8,40.9-4.8c8.8-4,13.9-7.7,23.6-12.2
		C1441.3,569,1440.4,557.3,1428.5,553.8z"/>
	<path fill="#E9F8FF" d="M930,329.9c-10.4-34.7,5.9-60.9,22.2-76.3s54.3-28.3,85.6-5.4s33.9,51.1,32.9,66.6s-10.5,31.6-17.5,38.9
		c-9.2,9.6-20.6,15.6-25.4,14.1c-4.8-1.5-4.5-2.8-5.6-10.6c-1.1-7.8-0.8-12.9-4.3-16.8s-4.3-5.1-1.8-5.9s15.1,0.5,21.6-9.8
		c6.5-10.3,6.4-19.7,4-27.8s-6.8-11.5-7.9-12.5s-1.4-1.7-0.5-4.5c0.9-2.8,0.9-10.4-1.8-15.9c0,0-5.2-0.4-9,2.4s-7.4,6.6-7.4,6.6
		s-6.2-0.7-13.7-0.9s-16,1-20.5,3.9c0,0-5.5-3.3-11.1-4.6s-10.1-1-10.1-1s-2,3.9-1.7,9.2s2.5,8.7,2.5,8.7s-2.7,2.5-4.1,5.3
		s-3.3,14.3-0.9,22c2.4,7.7,3.2,9.8,9.7,15.1s10.6,6.9,16.2,7.2c5.6,0.3,8.9-0.6,7.3,1.8c-1.6,2.4-1.1,1.8-3,5.5s-5.2,4.8-10.8,3.3
		c-5.6-1.6-9-4.8-14.3-7.3c-5.3-2.5-11-2.9-7.2-0.9s5.1,6.7,8.4,10.9s7.4,7.6,14.3,9c6.9,1.4,8.4-0.9,9.5-1.1c1.1-0.3,1.4,0,0.6,2
		s-0.6,14-0.6,14s-20.4-2.8-33.1-12.2C939.7,353.6,934.5,344.7,930,329.9z"/>
	<path opacity="0.3" fill="#05132B" enable-background="new    " d="M1437.7,548.8c-12.2-4.6-26.2-6.1-39-8.3
		c-13.8-2.3-27.7-4.3-41.6-5.8c-57.4-6.2-115.5-5.3-172.6,2.7c-16.1,2.2-32.1,5-47.9,8.4c-4.4,1-8.9,1.9-13.3,2.9h0
		c-19,2.9-37.7,7.9-56.3,12.6c-26,6.5-52.2,10.9-79,12.7c-53.1,3.7-106.3-0.2-159.4,0.4c-17.6,0.2-35.2,0.7-52.8,2.4
		c-34.3,0.9-68.2,4.3-99.9,19.2c-26,12.2-50.3,27.5-76.5,39.3c-26.6,12-54.2,22.1-82.3,30.1c-22.8,6.5-48.7,9.9-70,21.4
		c0.4-1.8,1.3-3.5,2.3-4.9c2.7-3.8,6.7-6.5,10.1-9.5c1.9-1.7,3.6-3.4,5.3-5.2c0.4,0.3,1,0.3,1.3-0.2c0.7-1.2,1.4-2.3,2-3.4
		c0,0,0,0,0,0c2.5-2.8,4.8-5.7,7.1-8.6c4.9-6.2,9.8-12.4,14.8-18.5c0,0,0,0,0.1-0.1l0,0c5.6-5.4,11.6-10.5,17.9-15.3
		c7.4-5.7,12.2-11.9,15.1-20.8c3.1-9.7,4.7-19.8,7.1-29.6c2.4-10.1,5.5-20.2,11.3-28.9c5.3-8,12.6-14.5,20.7-19.6
		c17-10.9,36.8-17.1,55.6-23.9c12.2-4.4,24.4-8.8,36.7-13c7.4-2.5,15.1-4.7,22.7-7.2c40.7-12.3,81.1-25.8,122.8-34.6
		c29.5-6.2,59.3-10.9,88.7-17.7c0.5-0.1,0.9-0.3,1.2-0.6c32.6-5.3,65.2-10.3,97.8-15.4c23.8-3.7,47.9-5.2,71.9-7.2
		c0.4,0,0.8-0.2,1.1-0.5c0.3,0,0.6,0,0.9,0c18.9-0.9,37.9-1.9,56.9-2.3c34.5-0.7,68.8,0.5,102.9,5.4c12.5,3,25,6,37.5,9.1
		c7.4,1.8,14.9,3.6,22.4,4.1c0.6,0,1.2,0.1,1.9,0.1c-6.5-3.6-11.3-5.5-11.3-5.5c-0.5-14.6-7.7-23.6-13.6-33.4c0.4,2.8,1.5,5.6,2.6,8
		c1.7,3.7,4.2,7.1,5.2,11.1c1.1,4.5-0.7,8.3-4.4,9.8c-8.4-1.6-16.7-3.5-25-4.9c-18.1-3.1-36.5-5.4-54.8-6.6
		c-37.5-2.4-75.1-2.8-112.6,0.2c-7.4,0.6-14.8,1.4-22.2,2.1c-16.8,0.4-33.6,2.4-50.4,4.1c-20.9,2.2-41.6,5.3-62.3,8.6
		c-41.5,6.6-83.2,12.8-124.4,21.4c-18.2,3.8-36.7,7.8-54,14.8c0,0-0.1,0-0.1,0c-4.1,1.1-8.2,2.2-12.2,3.4
		c-19.2,5.6-38.3,11.6-57.5,17.5c-4.5,1.1-9,2.5-13.5,4.1c-11.5,3.4-23,6.8-34.6,9.9c-6.5,1.7-13.4,3.9-20.3,5.5
		c-5.6-14.8-1.3-30.4,4-44.9c5.3-14.5,9.6-29.1,9.4-44.7c-0.2-16.2-4.7-32-4.4-48.2c0.3-15.5,3.5-31,9.3-45.5
		c5.5-13.5,13.3-25.8,23-36.4c-1,0.4-2,0.8-3,1.2c-17.5,20.3-28.2,45.9-30.4,73c-1.4,16.9,2.7,32.7,3.8,49.4
		c1.1,17.6-2.8,33.7-8.9,50.1c-5.5,15.1-10,31.1-4.3,46.4l0,0c-4.5,1-8.9,1.6-13.3,1.8c-14.1,0.4-22.4-11.2-25.7-23.7
		c-0.5-1.9-0.9-3.8-1.1-5.8c0-0.1,0-0.2,0-0.2c0,0,0,0,0-0.1c-0.3-2-0.4-4.1-0.4-6.1c0.7-2.3,2.1-4.5,2.8-6.3c1.3-3,2.3-6,3.2-9.2
		c1.9-6.6,3-13.4,3.7-20.2c1.5-15.1,0.6-30.3,0.5-45.5c-0.1-27.7,5.6-54.1,18.7-78.3c-23.6,16.8-24.6,61.5-30.3,97.8
		c-6.1,38.6-15.3,69.8-29.6,95s-5.6,39.1-5.6,39.1c-25.4,11.7-24.2,37.2-41.4,70.5c-1.2,2.3-2.4,4.6-3.6,6.8
		c-0.3,0.6-0.6,1.2-0.9,1.7c-12.6,23.2-24.4,39.8-34.8,51.5c-0.7,0.7-1.3,1.5-1.9,2.2c-1.7,1.8-3.3,3.6-4.9,5.2
		c-13,13-28.6,20.8-27.3,38.3s29.1,18,62.3,15.1c3.3-0.3,6.8-0.8,10.4-1.4c32.2-5.8,72.2-24.1,72.2-24.1l-7.5-35.8
		c0,0,1.5,0.3,29-10.8c27.6-11.1,37.2-22.2,69.6-37.1c32.4-14.9,66.2-28.7,132.6-27.8s98,3.6,150,4.5c51.9,0.9,64.1-2.6,128.3-15
		c64.2-12.3,73.1-19.6,112.3-24.3c39.2-4.8,102.7-5.8,102.7-5.8c0.2,17.2-3,55.3-3,55.3c18.4-8.7,53.4-1.1,74.7-1.3
		c10.2-0.1,25.4-1.8,40.9-4.8c17.1-3.2,34.6-7.9,46.4-13.3c0.9-0.4,1.8-0.9,2.7-1.3c1.1-1.6,2-3.3,2.6-5.3
		C1453.6,559.6,1446.5,552.1,1437.7,548.8z"/>
</g>
</svg>
