<?xml version="1.0" encoding="UTF-8"?>
<svg width="48px" height="48px" viewBox="0 0 48 48" version="1.1" xmlns="http://www.w3.org/2000/svg" xmlns:xlink="http://www.w3.org/1999/xlink">
    <!-- Generator: Sketch 51.3 (57544) - http://www.bohemiancoding.com/sketch -->
    <title>mouthexpression-happyclosed</title>
    <desc>Created with Sketch.</desc>
    <defs></defs>
    <g id="SVGs" stroke="none" stroke-width="1" fill="none" fill-rule="evenodd">
        <g id="Slices" transform="translate(0.000000, -889.000000)"></g>
        <g id="Group-153" transform="translate(10.000000, 20.000000)" fill="#6E3A0C" fill-rule="nonzero">
            <path d="M1.42028809,3.08740234 C1.14444678,3.10029354 0.949829102,2.99716187 0.9393879,2.73440114 C0.928946698,2.47164042 1.14157812,2.34211483 1.41741943,2.32922363 C2.94373739,2.25789255 4.16836893,1.53113399 5.38653564,0.545166016 C5.60118028,0.371435498 6.04644775,0.367004395 6.26513672,0.647460937 C6.48382568,0.92791748 6.41300889,1.31308589 6.19836426,1.48681641 C4.81561951,2.60599166 3.16073445,3.00606416 1.42028809,3.08740234 Z" id="Path-310"></path>
            <path d="M22.4202881,3.08740234 C22.1444468,3.10029354 21.9498291,2.99716187 21.9393879,2.73440114 C21.9289467,2.47164042 22.1415781,2.34211483 22.4174194,2.32922363 C23.9437374,2.25789255 25.1683689,1.53113399 26.3865356,0.545166016 C26.6011803,0.371435498 27.0464478,0.367004395 27.2651367,0.647460937 C27.4838257,0.92791748 27.4130089,1.31308589 27.1983643,1.48681641 C25.8156195,2.60599166 24.1607344,3.00606416 22.4202881,3.08740234 Z" id="Path-310" transform="translate(24.668648, 1.756234) scale(-1, 1) translate(-24.668648, -1.756234) "></path>
            <path d="M3.02742618,2.60599955 C2.88389125,2.37698685 2.98508112,2.19213108 3.21337891,2.03677751 C3.4416767,1.88142395 3.69881204,1.81511673 3.85416561,2.04341451 C6.27795703,5.60526527 9.69360394,7.37475586 14.1540527,7.37475586 C18.616793,7.37475586 22.0791666,5.60298266 24.5911034,2.03677751 C24.7501225,1.81101759 25.0157562,1.87775843 25.2415161,2.03677751 C25.467276,2.1957966 25.5557511,2.38612955 25.4086524,2.61263655 C22.8978271,6.47888184 18.9090045,8.74499512 14.1230469,8.74499512 C9.33479776,8.74499512 5.39379883,6.3815918 3.02742618,2.60599955 Z" id="Path-311"></path>
        </g>
    </g>
</svg>