<?xml version="1.0" encoding="UTF-8"?>
<svg width="48px" height="48px" viewBox="0 0 48 48" version="1.1" xmlns="http://www.w3.org/2000/svg" xmlns:xlink="http://www.w3.org/1999/xlink">
    <!-- Generator: Sketch 51.3 (57544) - http://www.bohemiancoding.com/sketch -->
    <title>mouthexpression-confused</title>
    <desc>Created with Sketch.</desc>
    <defs></defs>
    <g id="SVGs" stroke="none" stroke-width="1" fill="none" fill-rule="evenodd">
        <g id="Slices" transform="translate(-177.000000, -889.000000)"></g>
        <g id="Group-156" transform="translate(15.000000, 16.000000)" fill-rule="nonzero">
            <path d="M1.64123535,12.904541 C5.33076986,14.6392415 8.77897135,15.1421305 11.9858398,14.413208 C16.5051805,13.38596 13.382782,9.68508911 11.2141876,8.96040344 C11.0782593,8.91497987 11.0001373,8.88787842 10.9752502,8.80355835 C10.9503632,8.71923828 10.9526754,8.6546744 11.0626534,8.49110371 C11.3102137,8.12290639 11.8611755,7.43936157 13.0348816,7.09997559 C12.1403503,6.89318848 8.61425781,7.7868042 6.76812744,8.50567627 C5.53737386,8.98492432 3.82840983,10.4512126 1.64123535,12.904541 Z" id="Path-318" fill="#4E2F2C"></path>
            <path d="M1.92260742,13.2937012 C1.764658,13.5202108 1.36358643,13.7712402 0.836669922,13.5643921 C0.309753418,13.3575439 0.379101701,12.800595 0.513549805,12.5620117 C2.5357666,8.97351074 7.26043701,7 14.0400546,5.94852938 C14.2945689,5.90905601 14.4933167,5.85351562 14.6377258,5.75857544 C14.782135,5.66363525 14.7809143,5.47843933 14.7570801,5.31365967 C14.6949968,4.88444251 14.5829676,4.24655097 14.1966248,3.57980347 C13.3845853,2.17839223 12.14627,1.04320558 11.3684082,0.640869141 C11.1262839,0.515634287 10.9758911,0.335418701 11.1038513,0.143463135 C11.2318115,-0.0484924316 11.4569874,-0.0106665367 11.7122803,0.0913085937 C12.8952026,0.563819564 15.669037,1.99682617 16.0328961,5.12969639 C16.1253374,5.92562707 15.669037,6.48536041 14.9205322,6.65350342 C8.09865852,8.18595899 4.23893887,9.97193348 1.92260742,13.2937012 Z" id="Path-316" fill="#6E3A0C"></path>
            <path d="M15.5442616,12.3753032 C15.3051776,12.2206032 15.0927541,12.0023784 15.1983449,11.7051982 C15.3039357,11.4080181 15.7653519,11.4161253 16.0223917,11.5055764 C16.9279093,11.8207009 17.4736815,12.9572446 17.1077881,13.9656982 C16.7189554,15.0373757 15.7761841,15.5580444 14.9650492,15.7197793 C14.6932216,15.7739799 14.1724243,15.7875671 14.136852,15.5358562 C14.1012796,15.2841453 14.2202009,15.1775117 14.4860229,15.0886841 C14.8788147,14.957428 15.6921342,14.4310429 16.0223917,13.6265248 C16.2033304,13.1857522 16.13084,12.7548503 15.5442616,12.3753032 Z" id="Path-317" fill="#6E3A0C"></path>
        </g>
    </g>
</svg>