<?xml version="1.0" encoding="UTF-8"?>
<svg width="48px" height="48px" viewBox="0 0 48 48" version="1.1" xmlns="http://www.w3.org/2000/svg" xmlns:xlink="http://www.w3.org/1999/xlink">
    <!-- Generator: Sketch 51.3 (57544) - http://www.bohemiancoding.com/sketch -->
    <title>mouthexpression-tired</title>
    <desc>Created with Sketch.</desc>
    <defs></defs>
    <g id="SVGs" stroke="none" stroke-width="1" fill="none" fill-rule="evenodd">
        <g id="Slices" transform="translate(-413.000000, -889.000000)"></g>
        <g id="Group-161" transform="translate(11.000000, 20.000000)" fill="#6E3A0C" fill-rule="nonzero">
            <g id="Group-153">
                <path d="M0.868691095,3.81655269 C0.592849785,3.82944388 0.39823211,3.72631221 0.387790908,3.46355148 C0.377349706,3.20079076 0.589981132,3.07126517 0.865822442,3.05837397 C2.3921404,2.98704289 3.61677194,2.26028433 4.83493865,1.27431636 C5.04958329,1.10058584 5.49485076,1.09615474 5.71353973,1.37661128 C5.93222869,1.65706782 5.8614119,2.04223623 5.64676727,2.21596675 C4.26402252,3.335142 2.60913746,3.7352145 0.868691095,3.81655269 Z" id="Path-310" transform="translate(3.117051, 2.485384) rotate(-20.000000) translate(-3.117051, -2.485384) "></path>
                <path d="M21.4202881,4.08740234 C21.1444468,4.10029354 20.9498291,3.99716187 20.9393879,3.73440114 C20.9289467,3.47164042 21.1415781,3.34211483 21.4174194,3.32922363 C22.9437374,3.25789255 24.1683689,2.53113399 25.3865356,1.54516602 C25.6011803,1.3714355 26.0464478,1.36700439 26.2651367,1.64746094 C26.4838257,1.92791748 26.4130089,2.31308589 26.1983643,2.48681641 C24.8156195,3.60599166 23.1607344,4.00606416 21.4202881,4.08740234 Z" id="Path-310" transform="translate(23.668648, 2.756234) scale(1, -1) rotate(-1.000000) translate(-23.668648, -2.756234) "></path>
            </g>
            <path d="M2.69605178,3.66247559 C2.49609505,3.47202371 2.5055999,3.20814045 2.69605178,3.00818372 C2.88650365,2.80822699 3.06048028,2.99619363 3.26043701,3.18664551 C5.1718389,5.00718973 8.18204435,5.68093146 11.8396606,5.50476074 C14.3773561,5.38253151 15.823379,4.82346026 17.2991333,4.30725098 C18.3336792,3.94537354 19.5171295,3.46289591 20.4240112,2.9800415 C22.0166834,2.13204911 23.4341646,2.06063566 24.0758667,2.12420654 C24.3506639,2.15142962 24.8858715,2.54610096 24.8586484,2.82089818 C24.8314253,3.09569541 24.5865895,3.29639391 24.3117922,3.26917084 C23.6885815,3.20743181 22.2111447,3.34479485 20.8377075,4.08007812 C18.5016898,5.33068848 15.4705235,6.42233738 11.8603883,6.54342018 C7.89744999,6.6763359 4.8215965,5.68698345 2.69605178,3.66247559 Z" id="Path-321"></path>
        </g>
    </g>
</svg>