<?xml version="1.0" encoding="UTF-8"?>
<svg width="48px" height="48px" viewBox="0 0 48 48" version="1.1" xmlns="http://www.w3.org/2000/svg" xmlns:xlink="http://www.w3.org/1999/xlink">
    <!-- Generator: Sketch 51.3 (57544) - http://www.bohemiancoding.com/sketch -->
    <title>mouthexpression-angry</title>
    <desc>Created with Sketch.</desc>
    <defs></defs>
    <g id="SVGs" stroke="none" stroke-width="1" fill="none" fill-rule="evenodd">
        <g id="Slices" transform="translate(-531.000000, -889.000000)"></g>
        <g id="Group-162" transform="translate(10.000000, 19.000000)" fill="#6E3A0C" fill-rule="nonzero">
            <path d="M0.205535889,6.32318115 C0.233567447,6.04846522 0.379684448,5.96777344 0.521118164,5.99295044 C0.66255188,6.01812744 0.765122623,6.13391444 0.737091064,6.40863037 C0.621933254,7.53720426 1.11538083,8.16568109 1.78741455,8.37365723 C2.50744758,8.59648784 3.04251304,8.37685853 3.47778507,7.74390561 C3.63425622,7.51637233 3.94555331,7.45876509 4.17308658,7.61523624 C4.40061986,7.77170739 4.44148398,8.0756348 4.30175595,8.31053775 C3.69030762,9.33847046 2.66138585,9.71968441 1.55203247,9.30645752 C0.526349321,8.92439725 0.046523777,7.88153761 0.205535889,6.32318115 Z" id="Path-322"></path>
            <path d="M22.0293133,6.58124574 C21.9903422,6.30401154 22.0777923,6.16923847 22.2178201,6.13715147 C22.357848,6.10506446 22.4643001,6.19065312 22.5520001,6.45220701 C22.8331399,7.29066983 23.5514426,7.54917479 24.198336,7.50194125 C24.9449327,7.44742779 25.3549111,7.01448202 25.5082667,6.26177145 C25.5633948,5.99118782 25.8274364,5.81652661 26.09802,5.87165473 C26.3686036,5.92678285 26.5752898,6.17306275 26.5384533,6.44388815 C26.3772575,7.62901709 25.5287656,8.39947801 24.3461398,8.45255956 C23.2527106,8.50163756 22.1793896,7.64886449 22.0293133,6.58124574 Z" id="Path-322" transform="translate(24.281363, 7.158034) rotate(-23.000000) translate(-24.281363, -7.158034) "></path>
            <path d="M2.80703735,5.14099121 C2.69556298,5.40508873 2.63345337,5.40593814 2.49591064,5.38821411 C2.35836792,5.37049009 2.315666,5.17504214 2.39349748,4.91009521 C3.26360432,1.94815555 4.62771653,0.424163818 7.1661377,0.424163818 C8.79449061,0.424163818 9.63094555,0.718538796 10.9351807,1.41119385 C11.3569106,1.63516678 12.4776703,2.21366817 13.5756226,2.2883782 C14.9046936,2.3788147 15.9010392,2.27556396 16.6464539,1.85913086 C17.0080261,1.65713501 17.5407198,1.38989241 17.5684814,1.37420654 C18.6624336,0.762321725 19.7443236,0.991122178 20.9731445,1.86523438 C22.2308848,2.75991813 23.0036431,4.153532 23.3736572,5.58969116 C23.4425531,5.85710091 23.3057556,6.0161438 23.1153259,6.04501343 C22.9248962,6.07388306 22.6859335,5.85381105 22.5679016,5.58761597 C22.1013184,4.53533936 21.4705505,3.8119812 20.3933105,3.10205078 C19.4454895,2.47741099 18.524093,2.24941332 17.5900879,2.9317627 C16.7831496,3.5212818 15.366103,3.76800639 13.4284668,3.55578613 C12.2256756,3.42405002 10.9275927,2.79423319 10.1603394,2.41412354 C9.04519653,1.86166382 8.50231934,1.51791382 7.21240234,1.50201416 C5.15781955,1.47668915 3.77828979,2.83996582 2.80703735,5.14099121 Z" id="Path-323"></path>
        </g>
    </g>
</svg>