<?xml version="1.0" encoding="UTF-8"?>
<svg width="48px" height="48px" viewBox="0 0 48 48" version="1.1" xmlns="http://www.w3.org/2000/svg" xmlns:xlink="http://www.w3.org/1999/xlink">
    <!-- Generator: Sketch 51.3 (57544) - http://www.bohemiancoding.com/sketch -->
    <title>mouthexpression-hearteyes</title>
    <desc>Created with Sketch.</desc>
    <defs></defs>
    <g id="SVGs" stroke="none" stroke-width="1" fill="none" fill-rule="evenodd">
        <g id="Slices" transform="translate(-590.000000, -889.000000)"></g>
        <g id="Group-157" transform="translate(10.000000, 15.000000)" fill-rule="nonzero">
            <g id="Group-154">
                <g id="Group-153" fill="#6E3A0C">
                    <path d="M1.24645996,5.08740234 C0.970618651,5.10029354 0.776000977,4.99716187 0.765559775,4.73440114 C0.755118573,4.47164042 0.967749999,4.34211483 1.24359131,4.32922363 C2.76990927,4.25789255 3.99454081,3.53113399 5.21270752,2.54516602 C5.42735215,2.3714355 5.87261963,2.36700439 6.09130859,2.64746094 C6.30999756,2.92791748 6.23918077,3.31308589 6.02453613,3.48681641 C4.64179139,4.60599166 2.98690632,5.00606416 1.24645996,5.08740234 Z" id="Path-310" transform="translate(3.494820, 3.756234) scale(1, -1) rotate(55.000000) translate(-3.494820, -3.756234) "></path>
                    <path d="M22.24646,5.08740234 C21.9706187,5.10029354 21.776001,4.99716187 21.7655598,4.73440114 C21.7551186,4.47164042 21.96775,4.34211483 22.2435913,4.32922363 C23.7699093,4.25789255 24.9945408,3.53113399 26.2127075,2.54516602 C26.4273522,2.3714355 26.8726196,2.36700439 27.0913086,2.64746094 C27.3099976,2.92791748 27.2391808,3.31308589 27.0245361,3.48681641 C25.6417914,4.60599166 23.9869063,5.00606416 22.24646,5.08740234 Z" id="Path-310" transform="translate(24.494820, 3.756234) scale(-1, -1) rotate(55.000000) translate(-24.494820, -3.756234) "></path>
                </g>
                <path d="M25.6447887,4.15124336 C25.2707317,5.50291016 24.1613618,9.38744773 21.444103,12.2076343 C19.6622317,14.0873471 17.5080482,15.1295018 14.9815525,15.3340983 C14.6818485,15.3588061 14.3741154,15.371582 14.0581485,15.371582 C14.0549796,15.371582 14.0518112,15.3715808 14.0486434,15.3715783 C14.0454788,15.3715808 14.0423105,15.371582 14.0391415,15.371582 C13.7231746,15.371582 13.4154415,15.3588061 13.1157376,15.3340983 C10.5892418,15.1295018 8.43505833,14.0873471 6.65318704,12.2076343 C3.93592826,9.38744773 2.8265583,5.50291016 2.45250138,4.15124336 C2.40989339,4.0067652 2.36790562,3.86089176 2.32653809,3.71362305 L3.2623291,3.2635498 C3.27098768,3.27038209 3.27965509,3.27720356 3.28833132,3.2840142 C3.30257751,3.27725817 3.31694071,3.27043671 3.3314209,3.2635498 C3.94840125,3.77099116 4.61711697,4.21872763 5.33756806,4.60675922 C7.73222201,5.86174043 10.6359143,6.49219626 14.0486451,6.49812671 C17.4613748,6.49219645 20.3650677,5.86174062 22.759722,4.60675922 C23.4801731,4.21872763 24.1488888,3.77099116 24.7658691,3.2635498 C24.7803493,3.27043671 24.7947125,3.27725817 24.8089587,3.2840142 C24.8176349,3.27720356 24.8263024,3.27038209 24.8349609,3.2635498 L25.770752,3.71362305 C25.7293844,3.86089176 25.6873967,4.0067652 25.6447887,4.15124336 Z" id="Combined-Shape" fill="#6E3A0C"></path>
                <path d="M21.1030316,12.5528625 C19.3600689,14.1817912 17.039101,15.3811646 14.0054932,15.3811646 C11.240648,15.3811646 8.87783279,14.4124188 6.91704741,12.4749273 C7.74416126,9.33654734 10.6018245,7.02233887 14,7.02233887 C17.4262439,7.02233887 20.3030094,9.37493511 21.1030316,12.5528625 Z" id="Combined-Shape" fill="#4E2F2C"></path>
            </g>
            <path d="M18.027832,18.8102214 C19.7644857,18.4755859 20.6416016,17.3886664 20.6416016,15.5749512 C20.6416016,13.0421143 18.4119303,10.1417643 13.9936523,10.1417643 C11.3697939,10.1417643 9.53239014,11.5207661 8.07354736,13.4721832 C9.17136637,14.3886871 11.1765137,15.0764974 12.2565104,16.4936523 C13.9368163,18.6985236 16.2911784,19.1448568 18.027832,18.8102214 Z" id="Combined-Shape" fill="#DF87AF"></path>
        </g>
    </g>
</svg>