<?xml version="1.0" encoding="UTF-8"?>
<svg width="48px" height="48px" viewBox="0 0 48 48" version="1.1" xmlns="http://www.w3.org/2000/svg" xmlns:xlink="http://www.w3.org/1999/xlink">
    <!-- Generator: Sketch 51.3 (57544) - http://www.bohemiancoding.com/sketch -->
    <title>mouthexpression-winking</title>
    <desc>Created with Sketch.</desc>
    <defs></defs>
    <g id="SVGs" stroke="none" stroke-width="1" fill="none" fill-rule="evenodd">
        <g id="Slices" transform="translate(-766.000000, -889.000000)"></g>
        <g id="Group-158" transform="translate(10.000000, 17.000000)" fill-rule="nonzero">
            <g id="Group-153" transform="translate(13.927808, 6.432679) rotate(-4.000000) translate(-13.927808, -6.432679) translate(0.927808, 0.932679)">
                <path d="M0.348095662,6.15472287 C0.0722543524,6.16761406 -0.122363322,6.06448239 -0.132804524,5.80172167 C-0.143245726,5.53896094 0.0693857,5.40943535 0.34522701,5.39654416 C1.87154497,5.32521307 3.09617651,4.59845451 4.31434322,3.61248654 C4.52898785,3.43875602 4.97425533,3.43432492 5.1929443,3.71478146 C5.41163326,3.995238 5.34081647,4.38040641 5.12617183,4.55413693 C3.74342709,5.67331218 2.08854203,6.07338468 0.348095662,6.15472287 Z" id="Path-310" fill="#6E3A0C" transform="translate(2.596455, 4.823554) scale(1, -1) rotate(60.000000) translate(-2.596455, -4.823554) "></path>
                <path d="M19.7176575,3.85510914 C19.3908455,3.8700635 19.1602659,3.75042617 19.1478953,3.44561204 C19.1355248,3.14079791 19.3874468,2.99054246 19.7142588,2.9755881 C21.5226137,2.89284086 22.9735359,2.0497686 24.4167987,0.906001885 C24.6711059,0.704466755 25.1986511,0.699326478 25.4577499,1.02466855 C25.7168488,1.35001061 25.6329463,1.7968231 25.3786391,1.99835824 C23.7403871,3.29665132 21.7797081,3.76075322 19.7176575,3.85510914 Z" id="Path-310" fill="#6E3A0C" transform="translate(22.381475, 2.310894) scale(-1, 1) rotate(7.000000) translate(-22.381475, -2.310894) "></path>
                <path d="M6.21559647,7.68367333 C5.44900525,5.50081717 5.80955362,3.97617225 7.29724159,3.10973857 C9.52877354,1.81008805 12.088348,5.07556898 11.6928379,8.81630815 C9.40152308,9.20315212 7.57577595,8.82560718 6.21559647,7.68367333 Z" id="Path-319" fill="#DF87AF"></path>
                <path d="M2.4043169,3.82807271 C4.8006482,7.03496617 7.9921303,8.37119882 12.2251867,8.37119882 C16.687927,8.37119882 19.9582906,6.51088343 22.4702274,2.94467828 C22.6292465,2.71891836 23.0868902,2.87420139 23.3126501,3.03322048 C23.53841,3.19223956 23.8312249,3.46955406 23.6645977,3.69478865 C20.1315234,8.470544 17.0588215,9.70958532 12.2728638,9.70958532 C7.75370149,9.70958532 4.32034987,7.81810789 1.73719122,4.37829663 C1.58338089,4.17347821 2.27559016,3.65580399 2.4043169,3.82807271 Z" id="Path-311" fill="#6E3A0C" transform="translate(12.714351, 6.270494) rotate(-2.000000) translate(-12.714351, -6.270494) "></path>
            </g>
        </g>
    </g>
</svg>