<svg id="Layer_1" xmlns="http://www.w3.org/2000/svg" viewBox="0 0 18 17"><style>.st0{fill-rule:evenodd;clip-rule:evenodd;fill:#fff}</style><title>arrow-right</title><g transform="translate(-1334 -102)" id="Page-1"><g id="Group-5" transform="translate(1199 96)"><path id="arrow-right" class="st0" d="M143 7.1l.9-.9c.2-.2.4-.3.7-.3.3 0 .5.1.7.3l7.6 7.6c.2.2.3.4.3.7 0 .3-.1.5-.3.7l-7.6 7.6c-.2.2-.4.3-.7.3-.3 0-.5-.1-.7-.3l-.9-.9c-.2-.2-.3-.4-.3-.7s.1-.5.3-.7l4.7-4.5h-11.2c-.3 0-.5-.1-.7-.3-.2-.2-.3-.4-.3-.7v-1.2c0-.3.1-.5.3-.7s.4-.3.7-.3h11.2L143 8.4c-.2-.2-.3-.4-.3-.7 0-.2.1-.4.3-.6z"/></g></g></svg>