<svg width="16" height="16" viewBox="0 0 16 16" xmlns="http://www.w3.org/2000/svg"><title>Group 11</title><g fill="none" fill-rule="evenodd"><path d="M15.5 7.75a7.75 7.75 0 1 1-15.5 0 7.75 7.75 0 0 1 15.5 0zm-8.646 4.104l5.75-5.75a.5.5 0 0 0 0-.708l-.708-.707a.5.5 0 0 0-.707 0L6.5 9.38 4.31 7.19a.5.5 0 0 0-.706 0l-.708.707a.5.5 0 0 0 0 .708l3.25 3.25a.5.5 0 0 0 .708 0z" fill="#28A745" fill-rule="nonzero"/><path d="M6.854 11.854l5.75-5.75a.5.5 0 0 0 0-.708l-.708-.707a.5.5 0 0 0-.707 0L6.5 9.38 4.31 7.19a.5.5 0 0 0-.706 0l-.708.707a.5.5 0 0 0 0 .708l3.25 3.25a.5.5 0 0 0 .708 0z" fill="#FFF"/></g></svg>