<svg xmlns="http://www.w3.org/2000/svg" viewBox="0 0 14 16"><title>t</title><path fill="#959DA5" d="M0 2.6v-.8c0-.2.1-.4.2-.5.2-.2.3-.3.5-.3h3.5l.3-.6.3-.3c.1-.1.3-.1.4-.1h3.6c.1 0 .3 0 .4.1l.3.3.2.6h3.5c.2 0 .4.1.5.2.2.2.3.3.3.6v.9c0 .1 0 .2-.1.3H.4c-.1 0-.2 0-.3-.1-.1-.1-.1-.2-.1-.3zm13 1.8v10.1c0 .4-.1.8-.4 1.1s-.7.4-1.1.4h-9c-.4 0-.8-.1-1.1-.4-.3-.3-.4-.7-.4-1.1V4.4c0-.1 0-.2.1-.3.1-.1.2-.1.3-.1h11.2c.1 0 .2 0 .3.1.1.1.1.2.1.3zM4.5 6.5c0-.1 0-.3-.1-.4C4.3 6 4.1 6 4 6s-.3 0-.4.1c-.1.1-.1.3-.1.4v7c0 .1 0 .3.1.4s.3.1.4.1.3 0 .4-.1.1-.2.1-.4v-7zm3 0c0-.1 0-.3-.1-.4C7.3 6 7.1 6 7 6c-.1 0-.3 0-.4.1-.1.1-.1.3-.1.4v7c0 .1 0 .3.1.4.1.1.3.1.4.1.1 0 .3 0 .4-.1s.1-.2.1-.4v-7zm3 0c0-.1 0-.3-.1-.4-.1-.1-.3-.1-.4-.1-.1 0-.3 0-.4.1-.1.1-.1.3-.1.4v7c0 .1 0 .3.1.4s.3.1.4.1c.1 0 .3 0 .4-.1s.1-.2.1-.4v-7z"/></svg>