<svg xmlns="http://www.w3.org/2000/svg" viewBox="0 0 20 17"><title>t</title><path fill="#FFF" d="M17.9 4.4v.5c0 1.9-.5 3.7-1.4 5.4-.9 1.8-2.3 3.3-3.9 4.4-1.8 1.2-4 1.8-6.4 1.8-2.2.1-4.3-.5-6.2-1.7h1c1.9 0 3.6-.6 5.1-1.8-.9 0-1.7-.3-2.4-.8s-1.2-1.2-1.4-2H3c.4 0 .7 0 1.1-.1-.9-.1-1.7-.6-2.3-1.4-.7-.7-1-1.6-1-2.5v-.1c.6.3 1.2.5 1.9.5-.5-.4-1-.9-1.3-1.5C1 4.5.8 3.9.8 3.2s.2-1.4.6-2.1c1 1.3 2.3 2.3 3.7 3 1.5.8 3 1.2 4.7 1.2v-.8c0-.7.2-1.4.5-2.1.4-.6.9-1.1 1.5-1.5.6-.4 1.3-.5 2-.5.6 0 1.2.1 1.7.4.5.2 1 .5 1.3.9.9-.2 1.8-.5 2.6-1-.3 1-.9 1.7-1.8 2.3.8-.1 1.6-.3 2.3-.7-.5.8-1.2 1.5-2 2.1z"/></svg>