<svg xmlns="http://www.w3.org/2000/svg" viewBox="0 0 16 16"><title>u</title><path fill="#959DA5" d="M6.6 7H.4c-.1 0-.2 0-.3-.1-.1-.1-.1-.2-.1-.3V.4C0 .3 0 .2.1.1.2 0 .3 0 .4 0h1.5c.1 0 .2 0 .2.1.1.1.1.2.1.3v2.4C3 2 3.8 1.4 4.9.9 5.9.5 7 .2 8.1.2c1.4 0 2.7.3 3.9 1s2.1 1.6 2.8 2.8c.7 1.2 1 2.5 1 3.9s-.3 2.7-1 3.9c-.7 1.2-1.6 2.1-2.8 2.8-1.2.7-2.5 1-3.9 1-1 0-1.9-.2-2.8-.5-.9-.4-1.7-.8-2.4-1.5-.1-.1-.1-.2-.1-.3s0-.2.1-.3L4 11.9c-.1.2 0 .1.1.1s.2 0 .3.1c.5.4 1 .8 1.7 1 .6.2 1.3.4 2 .4 1 0 1.9-.2 2.8-.7.8-.5 1.5-1.2 2-2s.6-1.8.6-2.8c0-1-.2-1.9-.7-2.8s-1.2-1.5-2-2C9.9 2.7 9 2.5 8 2.5c-.9 0-1.7.2-2.5.6-.8.4-1.4 1-1.9 1.6h3.1c.1 0 .2 0 .3.1v1.8c0 .1 0 .2-.1.3-.1.1-.2.1-.3.1z"/></svg>