<?xml version="1.0" encoding="utf-8"?>
<!-- Generator: Adobe Illustrator 23.0.1, SVG Export Plug-In . SVG Version: 6.00 Build 0)  -->
<svg version="1.1" id="Layer_1" xmlns="http://www.w3.org/2000/svg" xmlns:xlink="http://www.w3.org/1999/xlink" x="0px" y="0px"
	 viewBox="0 0 48 48" style="enable-background:new 0 0 48 48;" xml:space="preserve">
<style type="text/css">
	.st0{fill:#D42E2D;}
	.st1{fill:#F5CD2E;}
	.st2{fill:#DDDDDD;}
	.st3{clip-path:url(#SVGID_2_);}
	.st4{fill:#323232;}
</style>
<title>40_Top_NewDress</title>
<g>
	<path class="st0" d="M22.6,29.8c-0.5,1.5-0.7,3.1-0.7,4.7c0.1,1.2-0.2,2.5-0.7,3.6c0,0.3-0.2,0.5-0.5,0.5c-0.1,0-0.1,0-0.1,0
		c-0.4-0.1-0.5-1.2-1-0.6c-0.6,0.7-0.8,0.1-0.8,0.1s-0.1-5.1,0.1-9.1c0.2-3.1,1.1-5.1,1.4-5.8c0.1-0.2,0.1-0.4,0.1-0.6L20,18.6
		c-0.1-0.8,0.1-1.6,0.5-2.3l1.3-2.4c0-0.1,0.1-0.1,0.2-0.1c0,0,0,0,0,0l3,2.9c0.1,0.1,0.3,0.1,0.4,0c0,0,0,0,0,0l2.4-2.9
		c0.1-0.1,0.2-0.1,0.2,0c0,0,0,0,0,0.1l1.5,3.1c0.2,0.3,0.2,0.7,0.2,1.1l-0.4,4.7c0,0.2,0,0.3,0,0.5c0.3,1.4,0.7,3.1,1.1,5.1
		c0.1,0.3,0,6.7-0.1,8.7c0,0.4-0.2,0.8-0.6,0.9l-0.5,0.2c-0.3,0.2-0.6,0.2-0.9,0L28,38c-0.3-0.2-0.7-0.2-1.1,0
		c-0.5,0.2-1.6,0.5-2.1,0.4c-0.9-0.2-1.1-2.5-1.2-4.9c-0.1-1.3-0.3-2.5-0.6-3.8C22.9,29.7,22.8,29.4,22.6,29.8z"/>
	<path class="st0" d="M22,14.8c-0.2,0-0.4-0.2-0.5-0.4l-0.3-4.5c0-0.2,0.2-0.4,0.4-0.4s0.5,0.1,0.5,0.3l0.3,4.5
		C22.5,14.6,22.3,14.8,22,14.8C22,14.8,22,14.8,22,14.8z"/>
	<path class="st0" d="M27.9,14.8c-0.2,0-0.4-0.2-0.4-0.5c0,0,0,0,0,0l0.2-4.5c0-0.2,0.2-0.3,0.4-0.3c0.2,0,0.4,0.1,0.4,0.3l-0.2,4.5
		C28.4,14.6,28.2,14.8,27.9,14.8z"/>
	<circle class="st1" cx="27.1" cy="19.7" r="0.8"/>
	<circle class="st1" cx="26.3" cy="21.3" r="0.8"/>
	<circle class="st1" cx="25.9" cy="20.1" r="0.8"/>
	<circle class="st1" cx="27.5" cy="20.9" r="0.8"/>
	<circle class="st2" cx="26.7" cy="20.5" r="0.8"/>
	<circle class="st1" cx="27.1" cy="28.7" r="0.8"/>
	<circle class="st1" cx="28.2" cy="30.2" r="0.8"/>
	<circle class="st1" cx="27" cy="30" r="0.8"/>
	<circle class="st1" cx="28.4" cy="28.9" r="0.8"/>
	<circle class="st2" cx="27.7" cy="29.5" r="0.8"/>
	<circle class="st1" cx="24.8" cy="34.4" r="0.8"/>
	<circle class="st1" cx="25.6" cy="36" r="0.8"/>
	<circle class="st1" cx="24.4" cy="35.6" r="0.8"/>
	<circle class="st1" cx="26" cy="34.8" r="0.8"/>
	<circle class="st2" cx="25.2" cy="35.2" r="0.8"/>
	<circle class="st1" cx="26.2" cy="24.8" r="0.8"/>
	<circle class="st1" cx="26" cy="26.6" r="0.8"/>
	<circle class="st1" cx="25.2" cy="25.6" r="0.8"/>
	<circle class="st1" cx="27" cy="25.8" r="0.8"/>
	<circle class="st2" cx="26.1" cy="25.7" r="0.8"/>
	<g>
		<defs>
			<path id="SVGID_1_" d="M22.6,29.8c-0.5,1.4-0.7,2.9-0.7,4.4c0,1.3-0.2,2.6-0.7,3.9c0,0.3-0.2,0.5-0.5,0.5c-0.1,0-0.1,0-0.1,0
				c-0.4-0.1-0.5-1.2-1-0.6c-0.6,0.7-0.8,0.1-0.8,0.1s-0.1-5.1,0.1-9.1c0.2-3.1,1.1-5.1,1.4-5.8c0.1-0.2,0.1-0.4,0.1-0.6L20,18.6
				c-0.1-0.8,0.1-1.6,0.5-2.3l1.3-2.4c0-0.1,0.1-0.1,0.2-0.1c0,0,0,0,0,0l3.2,3.1l2.6-3.1c0.1-0.1,0.2-0.1,0.2,0c0,0,0,0,0,0.1
				l1.3,2.8c0.3,0.6,0.4,1.2,0.3,1.8l-0.4,4.3c0,0.2,0,0.3,0,0.5c0.3,1.4,0.7,3.1,1.1,5.1c0.1,0.3,0,6.7-0.1,8.7
				c0,0.4-0.2,0.8-0.6,0.9l-0.5,0.2c-0.3,0.2-0.6,0.2-0.9,0L28,38c-0.3-0.2-0.7-0.2-1.1,0c-0.5,0.2-1.6,0.5-2.1,0.4
				c-0.9-0.2-1.1-2.5-1.2-4.9c-0.1-1.3-0.3-2.5-0.6-3.8C22.9,29.7,22.8,29.4,22.6,29.8z"/>
		</defs>
		<clipPath id="SVGID_2_">
			<use xlink:href="#SVGID_1_"  style="overflow:visible;"/>
		</clipPath>
		<g class="st3">
			<circle class="st1" cx="21.9" cy="16.9" r="0.8"/>
			<circle class="st1" cx="22.1" cy="18.7" r="0.8"/>
			<circle class="st1" cx="21.1" cy="17.9" r="0.8"/>
			<circle class="st1" cx="22.8" cy="17.7" r="0.8"/>
			<circle class="st2" cx="22" cy="17.8" r="0.8"/>
			<circle class="st1" cx="30.7" cy="33.4" r="0.8"/>
			<circle class="st1" cx="30.4" cy="35.2" r="0.8"/>
			<circle class="st1" cx="29.7" cy="34.1" r="0.8"/>
			<circle class="st1" cx="31.5" cy="34.4" r="0.8"/>
			<circle class="st2" cx="30.6" cy="34.3" r="0.8"/>
			<circle class="st1" cx="18.7" cy="34.1" r="0.8"/>
			<circle class="st1" cx="18.7" cy="35.9" r="0.8"/>
			<circle class="st1" cx="17.8" cy="35" r="0.8"/>
			<circle class="st1" cx="19.6" cy="35" r="0.8"/>
			<circle class="st2" cx="18.7" cy="35" r="0.8"/>
			<circle class="st1" cx="21.8" cy="30.7" r="0.8"/>
			<circle class="st1" cx="22.2" cy="32.4" r="0.8"/>
			<circle class="st1" cx="21.1" cy="31.7" r="0.8"/>
			<circle class="st2" cx="22" cy="31.5" r="0.8"/>
			<circle class="st1" cx="20" cy="25.1" r="0.8"/>
			<circle class="st1" cx="20" cy="26.9" r="0.8"/>
			<circle class="st1" cx="19.1" cy="26" r="0.8"/>
			<circle class="st1" cx="20.9" cy="26" r="0.8"/>
			<circle class="st2" cx="20" cy="26" r="0.8"/>
		</g>
	</g>
	<path class="st4" d="M29.3,23.4h-8.7c-0.2,0-0.3-0.1-0.3-0.3c0-0.2,0.1-0.3,0.3-0.3c0,0,0,0,0.1,0h8.7c0.2,0,0.3,0.2,0.3,0.3
		C29.6,23.2,29.4,23.3,29.3,23.4z"/>
</g>
</svg>
