<?xml version="1.0" encoding="utf-8"?>
<!-- Generator: Adobe Illustrator 23.0.1, SVG Export Plug-In . SVG Version: 6.00 Build 0)  -->
<svg version="1.1" id="Layer_1" xmlns="http://www.w3.org/2000/svg" xmlns:xlink="http://www.w3.org/1999/xlink" x="0px" y="0px"
	 viewBox="0 0 48 48" style="enable-background:new 0 0 48 48;" xml:space="preserve">
<style type="text/css">
	.st0{fill:#323232;}
	.st1{fill-rule:evenodd;clip-rule:evenodd;fill:#939393;}
</style>
<title>38_Top_NewTshirt</title>
<g>
	<path class="st0" d="M39.7,21L32.9,14c-0.7-0.6-1.1-1-1.9-1.3c-1.1-0.5-2.3-0.7-3.5-0.7h-0.5c0,2.2-2.3,2.5-3,2.5
		c-0.6,0-3-0.3-3-2.5h-0.5c-1.2,0-2.4,0.2-3.5,0.7c-0.7,0.3-1.2,0.8-1.9,1.3L8.6,21c-0.1,0.1-0.1,0.2,0,0.3c1.6,1.4,3.3,2.7,5,3.9
		c0.1,0.1,0.2,0.1,0.3,0l2.9-3.4c0,0,0.1-0.1,0.1,0c0,0,0,0.1,0,0.1C16.8,23.6,16,32,16,35.3c0,0.2,0.1,0.3,0.3,0.4
		c0.7,0.3,2.9,1.1,7.8,1.2l0,0h0.3l0,0c4.9,0,7.1-0.8,7.8-1.2c0.2-0.1,0.3-0.2,0.3-0.4c0-3.3-0.9-11.8-1.1-13.5c0-0.1,0-0.1,0.1-0.1
		c0,0,0.1,0,0.1,0l2.8,3.4c0.1,0.1,0.2,0.1,0.3,0c1.7-1.2,3.4-2.5,5-3.9C39.7,21.2,39.7,21.1,39.7,21C39.7,21,39.7,21,39.7,21z"/>
	<path class="st1" d="M24.2,17.1c-2.8,0-5.1,2.3-5.1,5.1c0,2.2,1.4,4.2,3.5,4.9c0.3,0,0.4-0.1,0.4-0.2s0-0.5,0-1
		c-1.4,0.3-1.8-0.6-1.8-0.6c-0.1-0.3-0.3-0.6-0.6-0.7c-0.5-0.3,0-0.3,0-0.3c0.3,0,0.6,0.2,0.8,0.5c0.3,0.5,1,0.7,1.5,0.4
		c0,0,0,0,0,0c0-0.3,0.1-0.5,0.3-0.7c-1.1-0.1-2.3-0.6-2.3-2.5c0-0.5,0.2-1,0.5-1.4c-0.2-0.4-0.1-0.9,0.1-1.3c0,0,0.4-0.1,1.4,0.5
		c0.8-0.2,1.7-0.2,2.6,0c1-0.7,1.4-0.5,1.4-0.5c0.2,0.4,0.2,0.9,0.1,1.4c0.3,0.4,0.5,0.9,0.5,1.4c0,2-1.2,2.4-2.3,2.5
		c0.2,0.2,0.4,0.6,0.3,0.9c0,0.7,0,1.2,0,1.4c0,0.2,0.1,0.3,0.4,0.2c2.7-0.9,4.1-3.8,3.2-6.5C28.3,18.5,26.4,17.1,24.2,17.1
		L24.2,17.1z"/>
</g>
</svg>
