<?xml version="1.0" encoding="UTF-8"?>
<svg width="48px" height="48px" viewBox="0 0 48 48" version="1.1" xmlns="http://www.w3.org/2000/svg" xmlns:xlink="http://www.w3.org/1999/xlink">
    <!-- Generator: Sketch 53.2 (72643) - https://sketchapp.com -->
    <title>tops-NewButtonUP</title>
    <desc>Created with Sketch.</desc>
    <g id="SVGs" stroke="none" stroke-width="1" fill="none" fill-rule="evenodd">
        <g id="Slices" transform="translate(-945.000000, -118.000000)"></g>
        <g id="Top_NewBottonUp" transform="translate(9.000000, 11.000000)">
            <g id="Group-10">
                <path d="M11.104126,0.848144531 C12.835083,1.2097168 14.1555176,1.39754232 15.0654297,1.41162109 C15.9753418,1.42569987 17.0890571,1.2652181 18.4065755,0.930175781 C18.1081,4.73803711 17.9588623,6.64196777 17.9588623,6.64196777 C17.9588623,6.64196777 16.9937744,7.44962565 15.0635986,9.06494141 L11.8588867,6.64196777 L11.104126,0.848144531 Z" id="Path-18" fill="#9C7CE8" fill-rule="nonzero"></path>
                <path d="M1.94977837,8.40414429 C1.69455986,9.25665283 2.74477989,10.2857835 4.05826836,11.1959839 C4.69791585,11.6392366 5.36454281,11.9463445 6.05814922,12.1173075 L6.05814239,12.1173352 C6.26657285,12.16871 6.48453786,12.0813138 6.59973846,11.9001745 C7.10499317,11.1057213 7.53742835,10.4783773 7.89704399,10.0181427 C8.1507061,10.6780752 7.77397677,13.803538 6.766856,19.3945312 C7.74280815,22.9489746 10.5297548,24.4016927 15.1276958,23.7526855 C19.5837505,24.3780924 22.3263819,22.9149919 23.35559,19.363384 C22.3408676,14.0985043 21.9546001,10.9773763 22.1967876,10 C22.4627178,10.3215942 22.9789837,11.1339417 23.5571087,11.979126 C24.1352337,12.8243103 29.0895285,9.58772786 28.0569764,8.2796224 C27.0244244,6.97151693 26.430056,5.95879155 25.8252056,5.03694661 C24.8239191,3.51089824 24.1601946,2.46585007 23.4326275,1.95368874 C22.3507773,1.19213448 20.6309904,1.42482382 19.4371441,0.852172852 C19.4260357,2.33825684 16.8200787,4.89929199 15.1093853,4.89929199 C13.3986919,4.89929199 10.9435528,2.33129883 10.9148663,0.813842773 C9.73746924,1.38859376 7.80485371,1.16543128 6.72733574,1.91653442 C5.37209822,2.86122694 4.04712944,5.68014526 1.94977837,8.40414429 Z" id="Path-7" fill="#6C4DD8" fill-rule="nonzero" transform="translate(15.054693, 12.358419) scale(-1, 1) translate(-15.054693, -12.358419) "></path>
                <path d="M9.9276123,2 L10.4276123,2 L10.4276123,23.4990082 C10.357137,23.474411 10.2769623,23.442805 10.187088,23.4041901 C10.0972137,23.3655752 10.0107218,23.3236135 9.9276123,23.2783051 L9.9276123,2 Z" id="Path-22" fill="#DB9CE4" fill-rule="nonzero"></path>
                <path d="M19.6776123,2 L20.1776123,2 L20.1776123,23.4990082 C20.107137,23.474411 20.0269623,23.442805 19.937088,23.4041901 C19.8472137,23.3655752 19.7607218,23.3236135 19.6776123,23.2783051 L19.6776123,2 Z" id="Path-22" fill="#DB9CE4" fill-rule="nonzero"></path>
                <polygon id="Path-22" fill="#DB9CE4" fill-rule="nonzero" points="11.9975586 3 12.4975586 3.84399414 12.4975586 19.9912415 11.9975586 19.9237213"></polygon>
                <polygon id="Path-22" fill="#DB9CE4" fill-rule="nonzero" transform="translate(17.799561, 11.495621) scale(-1, 1) translate(-17.799561, -11.495621) " points="17.5495605 3 18.0495605 3.84399414 18.0495605 19.9912415 17.5495605 19.9237213"></polygon>
                <polygon id="Path-24" fill="#DB9CE4" fill-rule="nonzero" points="7.03327942 17.8548584 23.0585938 17.8548584 23.1603394 18.3548584 6.9390564 18.3548584"></polygon>
                <polygon id="Path-24" fill="#DB9CE4" fill-rule="nonzero" points="7.70300293 13.8548584 22.4213257 13.8548584 22.4949951 14.3548584 7.62310791 14.3455048"></polygon>
                <polygon id="Path-24" fill="#DB9CE4" fill-rule="nonzero" points="8.24917603 9.5 22.2390442 9.5 22.3168335 10 8.15057373 10"></polygon>
                <polygon id="Path-24" fill="#DB9CE4" fill-rule="nonzero" points="6.54931641 2.18695068 11.9633484 2.18695068 12.0411377 2.68695068 6.73168945 2.68695068"></polygon>
                <polygon id="Path-24" fill="#DB9CE4" fill-rule="nonzero" transform="translate(20.795471, 2.436951) scale(-1, 1) translate(-20.795471, -2.436951) " points="18.0495605 2.18695068 23.4635925 2.18695068 23.5413818 2.68695068 18.2319336 2.68695068"></polygon>
                <path d="M8.1155599,6.11743164 L22.0252279,6.20849609" id="Path-24" stroke="#DB9CE4" stroke-width="0.5" stroke-linecap="round" fill-rule="nonzero"></path>
                <path d="M11.0513916,0.0213623047 C11.3190511,1.24515788 11.7658285,2.2434082 12.3917236,3.01611328 C13.0176188,3.78881836 14.0134684,4.63334147 15.3792725,5.54968262 L15.3792725,6.14404297 C13.2650146,5.33365885 11.9427897,4.74601237 11.4125977,4.38110352 C10.9518665,4.0640017 11.742808,3.35421878 11.1577148,2.81469727 C10.7328532,2.42292714 9.92816267,2.87798747 9.56176758,2.46398926 C9.37646484,1.3338623 9.87300618,0.51965332 11.0513916,0.0213623047 Z" id="Path-20" stroke="#5C3ABC" fill="#5C37C1" fill-rule="nonzero" stroke-linecap="round" stroke-linejoin="round"></path>
                <path d="M16.1797778,0.0213623047 C16.4474373,1.24515788 16.8942147,2.2434082 17.5201099,3.01611328 C18.1460051,3.78881836 19.1418547,4.63334147 20.5076587,5.54968262 L20.5076587,6.14404297 C18.3934009,5.33365885 17.071176,4.74601237 16.5409839,4.38110352 C16.0802528,4.0640017 16.8711942,3.35421878 16.2861011,2.81469727 C15.8612394,2.42292714 15.0565489,2.87798747 14.6901538,2.46398926 C14.5048511,1.3338623 15.0013924,0.51965332 16.1797778,0.0213623047 Z" id="Path-20" stroke="#5C3ABC" fill="#5C37C1" fill-rule="nonzero" stroke-linecap="round" stroke-linejoin="round" transform="translate(17.580022, 3.082703) scale(-1, 1) translate(-17.580022, -3.082703) "></path>
                <path d="M7.88916016,6.17504883 C6.11118227,8.99986345 5.05422339,10.7876413 4.71828352,11.5383822" id="Path-32" stroke="#DB9CE4" stroke-width="0.5" stroke-linecap="round" fill-rule="nonzero"></path>
                <path d="M25.4108669,6.17504883 C23.632889,8.99986345 22.5759301,10.7876413 22.2399902,11.5383822" id="Path-32" stroke="#DB9CE4" stroke-width="0.5" stroke-linecap="round" fill-rule="nonzero" transform="translate(23.825429, 8.856716) scale(-1, 1) translate(-23.825429, -8.856716) "></path>
                <path d="M7.04821777,3.25927734 L3.19628906,8.98128255" id="Path-32" stroke="#DB9CE4" stroke-width="0.5" stroke-linecap="round" fill-rule="nonzero"></path>
                <path d="M26.8657837,3.25927734 L23.013855,8.98128255" id="Path-32" stroke="#DB9CE4" stroke-width="0.5" stroke-linecap="round" fill-rule="nonzero" transform="translate(24.939819, 6.120280) scale(-1, 1) translate(-24.939819, -6.120280) "></path>
                <path d="M14.0089111,5.25024414 L16.0089111,5.25024414 L16.0089111,23.7808228 C15.685099,23.8506877 15.3549395,23.8856201 15.0184326,23.8856201 C14.6819258,23.8856201 14.3454186,23.8506877 14.0089111,23.7808228 L14.0089111,5.25024414 Z" id="Rectangle-5" fill="#5C3ABC" fill-rule="nonzero"></path>
                <path d="M11.2902222,18.1484375 C11.8193156,19.0450439 12.6374715,19.9379679 13.7446899,20.8272095" id="Path-328" stroke="#5C3ABC" stroke-linecap="round"></path>
                <path d="M13.5739136,21.3733521 C13.4589233,21.3641357 12.5024414,21.364563 11.5396118,20.7070312" id="Path-329" stroke="#5C3ABC" stroke-linecap="round"></path>
                <path d="M16.2902222,18.1484375 C16.8193156,19.0450439 17.6374715,19.9379679 18.7446899,20.8272095" id="Path-328" stroke="#5C3ABC" stroke-linecap="round" transform="translate(17.517456, 19.487823) scale(-1, 1) translate(-17.517456, -19.487823) "></path>
                <path d="M18.5739136,21.3733521 C18.4589233,21.3641357 17.5024414,21.364563 16.5396118,20.7070312" id="Path-329" stroke="#5C3ABC" stroke-linecap="round" transform="translate(17.556763, 21.040192) scale(-1, 1) translate(-17.556763, -21.040192) "></path>
                <path d="M14.0266588,21.5753784 C12.5724759,22.6168416 11.8062405,23.7767741 11.7279528,25.0551758 C11.6482525,26.3566431 12.304674,26.3880005 12.4753283,26.4081421 C12.6459826,26.4282837 13.5054186,26.4741821 13.7146471,25.6034546 C13.9238756,24.7327271 14.186693,23.7503662 15.0129259,22.8676758 C15.5637479,22.2792155 15.2349922,21.8484497 14.0266588,21.5753784 Z" id="Path-327" fill="#5C3ABC"></path>
                <path d="M17.0266588,21.5753784 C15.5724759,22.6168416 14.8062405,23.7767741 14.7279528,25.0551758 C14.6482525,26.3566431 15.304674,26.3880005 15.4753283,26.4081421 C15.6459826,26.4282837 16.5054186,26.4741821 16.7146471,25.6034546 C16.9238756,24.7327271 17.186693,23.7503662 18.0129259,22.8676758 C18.5637479,22.2792155 18.2349922,21.8484497 17.0266588,21.5753784 Z" id="Path-327" fill="#5C3ABC" transform="translate(16.496453, 23.995706) scale(-1, 1) translate(-16.496453, -23.995706) "></path>
                <path d="M15.0180054,23.0753784 C15.8464325,23.0753784 16.5180054,22.4038055 16.5180054,21.5753784 C16.5180054,20.7469513 15.8464325,20.0753784 15.0180054,20.0753784 C14.1895782,20.0753784 13.5180054,20.7469513 13.5180054,21.5753784 C13.5180054,22.4038055 14.1895782,23.0753784 15.0180054,23.0753784 Z" id="Oval" fill="#6C4DD8"></path>
                <path d="M15.0089111,7.76330566 C15.2850535,7.76330566 15.5089111,7.53944804 15.5089111,7.26330566 C15.5089111,6.98716329 15.2850535,6.76330566 15.0089111,6.76330566 C14.7327688,6.76330566 14.5089111,6.98716329 14.5089111,7.26330566 C14.5089111,7.53944804 14.7327688,7.76330566 15.0089111,7.76330566 Z" id="Oval-5" fill="#FDECD7" fill-rule="nonzero"></path>
                <path d="M15.0089111,11.7733154 C15.2850535,11.7733154 15.5089111,11.5494578 15.5089111,11.2733154 C15.5089111,10.9971731 15.2850535,10.7733154 15.0089111,10.7733154 C14.7327688,10.7733154 14.5089111,10.9971731 14.5089111,11.2733154 C14.5089111,11.5494578 14.7327688,11.7733154 15.0089111,11.7733154 Z" id="Oval-5" fill="#FDECD7" fill-rule="nonzero"></path>
                <path d="M15.0169678,15.4539795 C15.2931101,15.4539795 15.5169678,15.2301219 15.5169678,14.9539795 C15.5169678,14.6778371 15.2931101,14.4539795 15.0169678,14.4539795 C14.7408254,14.4539795 14.5169678,14.6778371 14.5169678,14.9539795 C14.5169678,15.2301219 14.7408254,15.4539795 15.0169678,15.4539795 Z" id="Oval-5" fill="#FDECD7" fill-rule="nonzero"></path>
                <path d="M15.0089111,19.2922363 C15.2850535,19.2922363 15.5089111,19.0683787 15.5089111,18.7922363 C15.5089111,18.516094 15.2850535,18.2922363 15.0089111,18.2922363 C14.7327688,18.2922363 14.5089111,18.516094 14.5089111,18.7922363 C14.5089111,19.0683787 14.7327688,19.2922363 15.0089111,19.2922363 Z" id="Oval-5" fill="#FDECD7" fill-rule="nonzero"></path>
                <path d="M1.47446324,8.80522371 L6.47446324,8.80522371 C7.02674799,8.80522371 7.47446324,9.25293896 7.47446324,9.80522371 L7.47446324,10.8052237 C7.47446324,11.3575085 7.02674799,11.8052237 6.47446324,11.8052237 L1.47446324,11.8052237 C0.922178493,11.8052237 0.474463242,11.3575085 0.474463242,10.8052237 L0.474463242,9.80522371 C0.474463242,9.25293896 0.922178493,8.80522371 1.47446324,8.80522371 Z" id="9C7CE8" fill="#9C7CE8" fill-rule="nonzero" transform="translate(3.974463, 10.305224) scale(-1, 1) rotate(-34.000000) translate(-3.974463, -10.305224) "></path>
                <path d="M0.911192106,7.37188219 L1.78621438,7.37188219 C2.33849913,7.37188219 2.78621438,7.81959744 2.78621438,8.37188219 L2.78621438,9.37450029 C2.78621438,9.92576154 2.34009527,10.3730517 1.78883591,10.3744968 L0.930135552,10.376748 L0.911192106,7.37188219 Z" id="9C7CE8" fill="#5C3ABC" fill-rule="nonzero" transform="translate(1.848703, 8.874315) scale(-1, 1) rotate(-34.000000) translate(-1.848703, -8.874315) "></path>
                <path d="M23.4744632,8.80522371 L28.4744632,8.80522371 C29.026748,8.80522371 29.4744632,9.25293896 29.4744632,9.80522371 L29.4744632,10.8052237 C29.4744632,11.3575085 29.026748,11.8052237 28.4744632,11.8052237 L23.4744632,11.8052237 C22.9221785,11.8052237 22.4744632,11.3575085 22.4744632,10.8052237 L22.4744632,9.80522371 C22.4744632,9.25293896 22.9221785,8.80522371 23.4744632,8.80522371 Z" id="Rectangle-6" fill="#9C7CE8" fill-rule="nonzero" transform="translate(25.974463, 10.305224) rotate(-34.000000) translate(-25.974463, -10.305224) "></path>
                <path d="M27.1627121,7.37188219 L28.0377344,7.37188219 C28.5900191,7.37188219 29.0377344,7.81959744 29.0377344,8.37188219 L29.0377344,9.37450029 C29.0377344,9.92576154 28.5916153,10.3730517 28.0403559,10.3744968 L27.1816555,10.376748 L27.1627121,7.37188219 Z" id="9C7CE8" fill="#5C3ABC" fill-rule="nonzero" transform="translate(28.100223, 8.874315) rotate(-34.000000) translate(-28.100223, -8.874315) "></path>
            </g>
            <path d="M6.67730713,1.95426941 C8.11700512,4.29583946 8.61583688,7.06946576 8.1701742,10.2457583 C8.1664756,10.2721187 8.07717896,10.7670441 7.977005,10.9597931 C7.97877502,10.6322072 7.97288139,10.423616 7.9593241,10.3340195 C7.94876099,10.20755 7.95054626,10.1096344 7.91314697,10.0089111 C7.87577311,10.0457052 7.78742981,10.1588033 7.64811707,10.3482056 C7.64997067,10.3354168 7.66774533,10.2276319 7.66956759,10.2148576 C8.10571848,7.15738263 7.64401129,4.5156066 6.28759699,2.27971314 C6.28272429,2.27168105 6.34209754,2.21066517 6.4616394,2.11503601 C6.50027279,2.0841307 6.57216203,2.03054184 6.67730713,1.95426941 Z" id="Path-325" fill="#DB9CE4" fill-rule="nonzero"></path>
            <path d="M22.1804126,1.95426941 C23.6201106,4.29583946 24.1189423,7.06946576 23.6732797,10.2457583 C23.669581,10.2721187 23.5802844,10.7670441 23.4801105,10.9597931 C23.4818805,10.6322072 23.4759868,10.423616 23.4624296,10.3340195 C23.4518664,10.20755 23.4536517,10.1096344 23.4162524,10.0089111 C23.3788786,10.0457052 23.2905353,10.1588033 23.1512225,10.3482056 C23.1530761,10.3354168 23.1708508,10.2276319 23.172673,10.2148576 C23.6088239,7.15738263 23.1471167,4.5156066 21.7907024,2.27971314 C21.7858297,2.27168105 21.845203,2.21066517 21.9647449,2.11503601 C22.0033782,2.0841307 22.0752675,2.03054184 22.1804126,1.95426941 Z" id="Path-325" fill="#DB9CE4" fill-rule="nonzero" transform="translate(22.810734, 6.457031) scale(-1, 1) translate(-22.810734, -6.457031) "></path>
            <path d="M3.90838623,5.61859131 C5.81096033,6.85666911 7.1799382,8.2820638 8.01531982,9.89477539" id="Path-326" stroke="#DB9CE4" stroke-width="0.5"></path>
            <path d="M22.1150513,5.61859131 C24.0176254,6.85666911 25.3866032,8.2820638 26.2219849,9.89477539" id="Path-326" stroke="#DB9CE4" stroke-width="0.5" transform="translate(24.168518, 7.756683) scale(-1, 1) translate(-24.168518, -7.756683) "></path>
            <rect id="Rectangle" fill="#5C3ABC" x="9" y="9" width="4" height="4"></rect>
            <polygon id="Path-330" fill="#DB9CE4" fill-rule="nonzero" points="9 9 9.28908138 9.0004694 13.0029181 12.7143061 13.0029181 13.0019033 12.5834085 13.0019033 9.00258274 9.42107754"></polygon>
            <polygon id="Path" fill="#DB9CE4" fill-rule="nonzero" transform="translate(11.001459, 11.000952) scale(-1, 1) translate(-11.001459, -11.000952) " points="9 9 9.28908138 9.0004694 13.0029181 12.7143061 13.0029181 13.0019033 12.5834085 13.0019033 9.00258274 9.42107754"></polygon>
        </g>
    </g>
</svg>