<?xml version="1.0" encoding="UTF-8"?>
<svg width="48px" height="48px" viewBox="0 0 48 48" version="1.1" xmlns="http://www.w3.org/2000/svg" xmlns:xlink="http://www.w3.org/1999/xlink">
    <!-- Generator: Sketch 51.3 (57544) - http://www.bohemiancoding.com/sketch -->
    <title>tops-bunny-suit</title>
    <desc>Created with Sketch.</desc>
    <defs></defs>
    <g id="SVGs" stroke="none" stroke-width="1" fill="none" fill-rule="evenodd">
        <g id="Slices" transform="translate(-590.000000, -118.000000)"></g>
        <g id="13-top-bunny-suit" transform="translate(6.781398, 11.570209)" fill-rule="nonzero">
            <path d="M29.5182338,24.8730867 C29.6453691,25.0375224 29.8374983,25.1388269 30.045003,25.1508377 C31.0765296,25.0019772 32.0490722,24.5785573 32.8608242,23.924902 C33.7092649,23.4366453 34.4233637,22.7455819 34.9391683,21.9136012 C35.0113207,21.7140118 34.9902332,21.4925924 34.8817026,21.310211 L33.6461893,19.4425745 C33.5410765,19.2894706 33.3335855,19.2471255 33.1768857,19.3467983 L28.3880743,22.5265691 C28.3117555,22.5772783 28.2587601,22.6562802 28.2407901,22.7461304 C28.2228201,22.8359806 28.2413535,22.9292883 28.2922981,23.0054502 L29.5182338,24.8730867 Z" id="Shape" fill="#8F39B8"></path>
            <path d="M5.45924505,24.8730867 C5.33210978,25.0375224 5.13998053,25.1388269 4.93247579,25.1508377 C3.917759,24.9937981 2.9627357,24.570812 2.16454278,23.924902 C1.316102,23.4366453 0.60200325,22.7455819 0.0861986061,21.9136012 C0.0140462338,21.7140118 0.0351337944,21.4925924 0.143664344,21.310211 L1.3791777,19.4425745 C1.48429041,19.2894706 1.69178144,19.2471255 1.84848122,19.3467983 L6.63729267,22.5265691 C6.71361142,22.5772783 6.7666068,22.6562802 6.78457684,22.7461304 C6.80254688,22.8359806 6.78401343,22.9292883 6.7330689,23.0054502 L5.45924505,24.8730867 Z" id="Shape" fill="#8F39B8"></path>
            <path d="M12.5562636,3.93640301 C11.08839,4.10495213 9.75469957,4.87052508 8.86887881,6.05305767 C7.54716685,7.96858225 6.1488339,11.2058188 3.94598064,13.5331812 C2.09749942,15.4487057 0.201130081,15.7647673 1.01522803,19.3659535 C2.08136712,21.5322458 4.28992616,22.9005113 6.70433603,22.8905187 C6.70433603,22.8905187 9.02212077,22.9671397 9.02212077,19.7299032 C9.02212077,16.4926666 11.5123027,12.2785126 11.5123027,12.2785126 C11.1868067,14.5811206 10.6350193,16.8460156 9.86495159,19.0403143 C9.7475879,19.3286173 9.84732224,19.6597353 10.1043922,19.835257 C12.3292605,21.1663606 14.8994565,21.8064094 17.4887394,21.6741606 C20.0825993,21.7814858 22.6497486,21.1146938 24.8635091,19.758636 C25.120579,19.5831143 25.2203133,19.2519963 25.1029496,18.9636933 C24.3328819,16.7693946 23.7810945,14.5044996 23.4555985,12.2018916 C23.4555985,12.2018916 25.9457804,16.4256233 25.9457804,19.6532822 C25.9457804,22.8809411 28.2635652,22.8138978 28.2635652,22.8138978 C30.6779751,22.8238904 32.8865341,21.4556248 33.9526732,19.2893325 C34.7667711,15.6881463 32.8704018,15.4008176 31.0219206,13.4565602 C28.8190673,11.1291978 27.4207344,7.90153889 26.0990224,5.97643669 C25.2154182,4.79616855 23.8856349,4.03085053 22.4212152,3.85978203 L17.4887394,6.7330689 L12.5562636,3.93640301 Z" id="Shape" fill="#FF9AF5"></path>
            <path d="M15.4774386,11.0717321 L15.4774386,21.6071173 C16.8139299,21.7603174 18.163549,21.7603174 19.5000402,21.6071173 L19.5000402,11.0717321 L17.4887394,12.2114692 L15.4774386,11.0717321 Z" id="Shape" fill="#BBA5F7"></path>
            <path d="M17.4887394,6.44574021 L17.1343674,6.22545489 C16.8978508,5.98334416 16.772908,5.65363391 16.7895729,5.31558071 L16.7895729,3.77358342 C16.7654954,3.35971072 16.5400339,2.98394158 16.1861827,2.76793302 L12.9106357,1.03438327 C12.7896547,0.936146377 12.6203973,0.923344202 12.4860165,1.00226623 C12.3516358,1.08118826 12.2803758,1.23524669 12.3072454,1.38875532 L12.3072454,3.70654006 C12.3421963,4.10697841 12.5712306,4.46484438 12.9202133,4.66430235 L17.4887394,7.01081996" id="Shape" fill="#8F39B8"></path>
            <path d="M17.4887394,6.44574021 L17.8431115,6.22545489 C18.079628,5.98334416 18.2045709,5.65363391 18.1879059,5.31558071 L18.1879059,3.77358342 C18.2119835,3.35971072 18.437445,2.98394158 18.7912961,2.76793302 L22.0668432,1.03438327 C22.1878241,0.936146377 22.3570816,0.923344202 22.4914623,1.00226623 C22.6258431,1.08118826 22.697103,1.23524669 22.6702334,1.38875532 L22.6702334,3.70654006 C22.6352825,4.10697841 22.4062483,4.46484438 22.0572655,4.66430235 L17.4887394,7.01081996" id="Shape" fill="#8F39B8"></path>
            <path d="M16.5309771,21.7220487 L16.0233631,21.7220487 L16.0233631,20.8504851 C16.0285778,20.1491429 16.5958448,19.5818759 17.297187,19.5766612 L17.9101548,19.5766612 C18.1133663,19.5766612 18.3082548,19.4959358 18.451947,19.3522435 C18.5956392,19.2085513 18.6763647,19.0136629 18.6763647,18.8104514 L18.6763647,18.1974835 C18.6763647,17.7743175 18.3333208,17.4312737 17.9101548,17.4312737 L17.297187,17.4312737 C16.5936735,17.4312737 16.0233631,16.8609633 16.0233631,16.1574498 L16.0233631,15.6689911 C16.0233435,14.9639115 16.592127,14.3908514 17.297187,14.3855896 L17.9101548,14.3855896 C18.1124805,14.3881509 18.3074025,14.3095667 18.4513768,14.167392 C18.5953511,14.0252174 18.6763809,13.8312992 18.6763647,13.6289574 L18.6763647,12.7478161 L19.1839787,12.7478161 L19.1839787,13.6289574 C19.1839787,14.3324709 18.6136683,14.9027812 17.9101548,14.9027812 L17.297187,14.9027812 C16.874021,14.9027812 16.5309771,15.2458251 16.5309771,15.6689911 L16.5309771,16.1574498 C16.5309771,16.5806158 16.874021,16.9236597 17.297187,16.9236597 L17.9101548,16.9236597 C18.6136683,16.9236597 19.1839787,17.49397 19.1839787,18.1974835 L19.1839787,18.8008738 C19.1865313,19.1403692 19.053453,19.4668373 18.8142875,19.707801 C18.5751219,19.9487648 18.2496599,20.0842848 17.9101548,20.0842752 L17.297187,20.0842752 C17.0948613,20.0817139 16.8999393,20.1602982 16.755965,20.3024728 C16.6119907,20.4446474 16.5309609,20.6385656 16.5309771,20.8409074 L16.5309771,21.7220487 Z" id="Shape" fill="#864EBA"></path>
            <path d="M17.4887394,14.4239001 L21.4538753,14.4239001 L19.6245493,7.57589972 C19.5339842,7.24298459 19.2320851,7.01165931 18.8870724,7.01081996 L16.0904065,7.01081996 C15.7453937,7.01165931 15.4434946,7.24298459 15.3529295,7.57589972 L13.5236035,14.4239001 L17.4887394,14.4239001 Z" id="Shape" fill="#BBA5F7"></path>
            <polygon id="Shape" fill="#DDDDDD" points="15.4199729 14.4239001 20.7834417 11.9049853 20.7068207 11.6463894 14.7878498 14.4239001"></polygon>
            <polygon id="Shape" fill="#DDDDDD" points="13.6768455 13.8779756 13.9258637 14.4143225 20.6206221 11.2824398 20.4290696 10.5736957 13.715156 13.7247336"></polygon>
            <path d="M17.4887394,14.4239001 L13.5235309,14.4239001 L13.5236035,15.0943337 C13.5209938,15.2678503 13.5887721,15.4350262 13.7114808,15.5577348 C13.8341894,15.6804435 14.0013653,15.7482218 14.1748819,15.7456121 L20.8025969,15.7456121 C21.1601351,15.7404668 21.4487301,15.4518719 21.4538753,15.0943337 L21.4538753,14.4239001 L17.4887394,14.4239001 Z" id="Shape" fill="#864EBA"></path>
            <path d="M13.9258637,14.4047448 L16.0233631,7.01081996 C15.708689,7.03981601 15.4451759,7.26131974 15.3625071,7.56632209 L13.5331812,14.4047448 L13.9258637,14.4047448 Z" id="Shape" fill="#864EBA"></path>
            <path d="M17.7856457,12.6424622 L17.1918331,12.6424622 C16.8877769,12.6424622 16.5970067,12.5178465 16.3873128,12.2976678 C16.182417,12.0713115 16.0847314,11.7677882 16.1191393,11.4644146 L16.2819589,9.77875298 C16.3366138,9.2294082 16.8026493,8.81330507 17.3546527,8.82099069 L17.6228261,8.82099069 C18.1748296,8.81330507 18.6408651,9.2294082 18.6955199,9.77875298 L18.8583395,11.4644146 C18.8945768,11.7680602 18.7970926,12.0724685 18.5912061,12.2985759 C18.3853197,12.5246833 18.0913486,12.6501769 17.7856457,12.6424622 Z M17.3546527,9.30944946 C17.0584294,9.30796498 16.8096143,9.53189859 16.7799953,9.8266411 L16.6171757,11.5123027 C16.6008826,11.6743963 16.6541545,11.8357881 16.7637399,11.9563321 C16.8733252,12.076876 17.0289248,12.1452426 17.1918331,12.1444258 L17.7856457,12.1444258 C17.9485541,12.1452426 18.1041536,12.076876 18.213739,11.9563321 C18.3233244,11.8357881 18.3765962,11.6743963 18.3603031,11.5123027 L18.1974835,9.8266411 C18.1678645,9.53189859 17.9190494,9.30796498 17.6228261,9.30944946 L17.3546527,9.30944946 Z" id="Shape" fill="#864EBA"></path>
        </g>
    </g>
</svg>