<?xml version="1.0" encoding="UTF-8"?>
<svg width="48px" height="48px" viewBox="0 0 48 48" version="1.1" xmlns="http://www.w3.org/2000/svg" xmlns:xlink="http://www.w3.org/1999/xlink">
    <!-- Generator: Sketch 51.3 (57544) - http://www.bohemiancoding.com/sketch -->
    <title>tops-scuba-wetsuit</title>
    <desc>Created with Sketch.</desc>
    <defs></defs>
    <g id="SVGs" stroke="none" stroke-width="1" fill="none" fill-rule="evenodd">
        <g id="Slices" transform="translate(-822.000000, -118.000000)"></g>
        <g id="Group-61" transform="translate(9.507925, 11.293248)" fill-rule="nonzero">
            <path d="M18.8447314,1.77749296 C20.6436294,0.936548545 22.0910299,0.516076336 23.1869328,0.516076336 C24.2828358,0.516076336 25.5746372,0.831718956 27.062337,1.4630042 L26.4441288,2.53147113 C25.4972009,2.02881902 24.4775804,1.77749296 23.3852672,1.77749296 C22.292954,1.77749296 21.1910253,2.02881902 20.0794812,2.53147113 L18.8447314,2.53147113 L18.8447314,1.77749296 Z" id="Path-167" stroke="#848284" fill="#848284"></path>
            <path d="M22.1298759,23.1331221 L8.51208576,23.1331221 L8.94607272,12.604311 L6.14912734,21.8321959 L2.23025381,19.5692557 C3.84939881,15.1627839 5.00033607,11.9855012 5.68306558,10.0374075 C6.70715985,7.11526692 8.14558233,4.39178317 9.47915816,4.39178317 C10.3682087,4.39178317 11.2251078,4.40136346 12.0498555,4.42052403 L12.0498555,2.13677542 C12.0498555,1.49229041 12.4101126,1.13203333 13.1306267,1.05600418 L17.5113349,1.05600418 C18.2318491,1.13203333 18.5921062,1.49229041 18.5921062,2.13677542 L18.5921062,4.42052403 C19.4168538,4.40136346 20.273753,4.39178317 21.1628035,4.39178317 C22.4963793,4.39178317 23.9348018,7.11526692 24.9588961,10.0374075 C25.6416256,11.9855012 27.4398954,16.8297537 29.0590404,21.2362255 L25.3769916,23.1331221 L21.695889,12.604311 L22.1298759,23.1331221 Z" id="Combined-Shape" stroke="#251955" fill="#251955" stroke-linecap="round" stroke-linejoin="round"></path>
            <path d="M7.30708789,5.99179025 C7.78355441,5.15585596 11.8936412,4.38728197 13.0398168,8.2258025 C14.1859924,12.064323 14.0963099,17.2184669 11.1792848,20.2324841 C10.3208361,21.1194765 9.40113024,21.302424 8.42016723,20.7813264 L8.57167662,16.5787904 C10.3100821,15.1246636 11.1792848,13.7105665 11.1792848,12.336499 C11.1792848,10.2753978 10.329384,7.81224221 8.69094358,7.81224221 C7.59865,7.81224221 6.70508585,8.08703155 6.01025114,8.63661024 C6.55716463,7.43068645 6.98944354,6.54907978 7.30708789,5.99179025 Z" id="Path-164" stroke="#75D62C" stroke-width="0.5" fill="#75D62C" stroke-linejoin="round"></path>
            <path d="M18.3360604,5.99179025 C18.8125269,5.15585596 22.9226137,4.38728197 24.0687893,8.2258025 C25.2149649,12.064323 25.1252824,17.2184669 22.2082574,20.2324841 C21.3498086,21.1194765 20.4301028,21.302424 19.4491397,20.7813264 L19.6006491,16.5787904 C21.3390546,15.1246636 22.2082574,13.7105665 22.2082574,12.336499 C22.2082574,10.2753978 21.3583565,7.81224221 19.7199161,7.81224221 C18.6276225,7.81224221 17.7340584,8.08703155 17.0392237,8.63661024 C17.5861371,7.43068645 18.0184161,6.54907978 18.3360604,5.99179025 Z" id="Path-164" stroke="#75D62C" stroke-width="0.5" fill="#75D62C" stroke-linejoin="round" transform="translate(20.896083, 13.190459) scale(-1, 1) translate(-20.896083, -13.190459) "></path>
            <path d="M5.07349997,10.9223964 C5.25864445,12.9105223 5.71703184,14.1516339 6.44866211,14.6457311 C7.18029239,15.1398283 7.81314381,15.4609148 8.34721637,15.6089905 C6.93213914,19.8913532 6.29928772,22.0325346 6.44866211,22.0325346 C6.59803651,22.0325346 5.08755362,21.2919077 1.91721345,19.8106539 L5.07349997,10.9223964 Z" id="Path-158" stroke="#79DB34" stroke-width="0.5" fill="#79DB34" stroke-linecap="round" stroke-linejoin="round"></path>
            <path d="M26.3520567,10.9856357 C26.4492667,12.9316021 26.8636868,14.1516339 27.5953171,14.6457311 C28.3269474,15.1398283 28.9365976,15.4527689 29.4242676,15.584553 L26.6669427,23.4931095 L22.4795625,21.3355308 L26.3520567,10.9856357 Z" id="Path-158" stroke="#79DB34" stroke-width="0.5" fill="#79DB34" stroke-linecap="round" stroke-linejoin="round" transform="translate(25.951915, 17.239373) scale(-1, 1) translate(-25.951915, -17.239373) "></path>
            <path d="M1.84833148,20.5189387 C1.37451852,20.5189387 0.943804257,21.049839 0.943804257,21.7501651 C0.943804257,22.4504912 1.37451852,22.9813915 1.84833148,22.9813915 L5.35964955,22.9813915 C5.83346252,22.9813915 6.26417678,22.4504912 6.26417678,21.7501651 C6.26417678,21.049839 5.83346252,20.5189387 5.35964955,20.5189387 L1.84833148,20.5189387 Z" id="Rectangle-65" stroke="#383F35" fill="#383F35" transform="translate(3.603991, 21.750165) rotate(33.000000) translate(-3.603991, -21.750165) "></path>
            <circle id="Oval-42" stroke="#878F89" stroke-width="1.1" fill="#F6F5F6" cx="3.60399052" cy="21.6751306" r="1.68677707"></circle>
            <rect id="Rectangle-66" stroke="#474547" fill="#474547" x="10.2496657" y="3.03147113" width="1.70389037" height="17.6646958" rx="0.851945184"></rect>
            <rect id="Rectangle-66-Copy" stroke="#474547" fill="#474547" x="18.4897968" y="3.03147113" width="1.70389037" height="17.6646958" rx="0.851945184"></rect>
            <path d="M3.59275884,21.7105151 L3.59275884,22.7864735" id="Line-43" stroke="#383F35" stroke-width="0.5" stroke-linecap="square"></path>
            <path d="M3.59745266,22.0161081 C3.78576934,22.0161081 3.93843017,21.8634473 3.93843017,21.6751306 C3.93843017,21.4868139 3.78576934,21.3341531 3.59745266,21.3341531 C3.40913599,21.3341531 3.25647516,21.4868139 3.25647516,21.6751306 C3.25647516,21.8634473 3.40913599,22.0161081 3.59745266,22.0161081 Z" id="Oval-44" fill="#383F35"></path>
            <rect id="Rectangle-67" stroke="#8B898B" fill="#8B898B" x="12.9535561" y="19.1070082" width="4.95993666" height="4.05696398" rx="1"></rect>
            <path d="M8.58378226,19.1070082 L8.58378226,23.8211676 L9.92072693,23.8211676 C11.5798512,23.8211676 12.8902301,22.7420917 12.8902301,21.4640879 C12.8902301,20.1860841 11.5798512,19.1070082 9.92072693,19.1070082 L8.58378226,19.1070082 Z" id="Combined-Shape" stroke="#8B898B" fill="#8B898B"></path>
            <path d="M8.58378226,20.0761502 L8.58378226,22.8520256 L9.40863894,22.8520256 C10.9067435,22.8520256 11.5558857,22.4871056 11.5558857,21.4640879 C11.5558857,20.4410702 10.9067435,20.0761502 9.40863894,20.0761502 L8.58378226,20.0761502 Z" id="Combined-Shape" stroke="#474547" fill="#474547"></path>
            <path d="M17.5392237,18.92591 L17.5392237,23.4664239 L18.9041769,23.4664239 C20.596172,23.4664239 21.9265809,22.4201003 21.9265809,21.1961669 C21.9265809,19.9722335 20.596172,18.92591 18.9041769,18.92591 L17.5392237,18.92591 Z" id="Combined-Shape" stroke="#8B898B" fill="#8B898B" transform="translate(19.732902, 21.196167) scale(-1, 1) translate(-19.732902, -21.196167) "></path>
            <path d="M19.0994199,19.8572467 L19.0994199,22.6331221 L19.9242766,22.6331221 C21.3694267,22.6331221 21.9265809,22.2948507 21.9265809,21.2451844 C21.9265809,20.1955181 21.3694267,19.8572467 19.9242766,19.8572467 L19.0994199,19.8572467 Z" id="Combined-Shape" stroke="#474547" fill="#474547" transform="translate(20.513000, 21.245184) scale(-1, 1) translate(-20.513000, -21.245184) "></path>
            <g id="Group-60" transform="translate(12.944820, 19.696816)" stroke="#474547">
                <circle id="Oval-43" cx="2.50017917" cy="1.44759643" r="1"></circle>
                <path d="M0.928232148,1.48704401 L1.49777833,1.48704401 M3.51358059,1.48704401 L4.07212619,1.48704401" id="Line-42" stroke-linecap="round"></path>
            </g>
            <polyline id="Path-156" stroke="#979797" stroke-linecap="round" stroke-linejoin="round" points="11.9208686 6.2900533 10.2823532 6.2900533 11.9208686 8.61555622 10.616253 8.61555622"></polyline>
            <polyline id="Path-156-Copy" stroke="#979797" stroke-linecap="round" stroke-linejoin="round" points="20.1609997 6.2900533 18.5224843 6.2900533 20.1609997 8.61555622 18.8563841 8.61555622"></polyline>
            <path d="M28.1082904,4.45582316 L27.4130789,5.13792987 C27.1134965,5.31101157 26.7407748,5.08971333 26.5174412,4.92312593 C26.2941076,4.75653853 26.2079358,4.38065327 26.2079358,4.09746164 L27.0479098,3.35487427 C26.7599877,3.1589155 26.4035107,2.95692674 25.9784789,2.74890798 L27.4130789,1.05600418 C29.0723554,2.38384298 30.0140297,3.24221828 30.2381018,3.6311301 C29.8966639,4.05070211 29.4084636,4.5529687 28.773501,5.13792987 C28.6225132,4.94899815 28.2422611,4.61457629 28.1082904,4.45582316 Z" id="Combined-Shape" stroke="#474547" fill="#474547" stroke-linejoin="round"></path>
        </g>
    </g>
</svg>