<?xml version="1.0" encoding="UTF-8"?>
<svg width="48px" height="48px" viewBox="0 0 48 48" version="1.1" xmlns="http://www.w3.org/2000/svg" xmlns:xlink="http://www.w3.org/1999/xlink">
    <!-- Generator: Sketch 51.3 (57544) - http://www.bohemiancoding.com/sketch -->
    <title>tops-barbarianvest</title>
    <desc>Created with Sketch.</desc>
    <defs></defs>
    <g id="SVGs" stroke="none" stroke-width="1" fill="none" fill-rule="evenodd">
        <g id="Slices" transform="translate(-59.000000, -59.000000)"></g>
        <g id="Group-6" transform="translate(10.000000, 11.000000)" fill-rule="nonzero">
            <polygon id="Path-14" stroke="#513C1F" stroke-width="0.8402275" fill="#513C1F" stroke-linecap="round" stroke-linejoin="round" points="11.1525993 2.68463542 11.8429871 2.04711914 12.6838531 3.19265951 13.5 1.37130534 14.2915306 3.19265951 14.8342209 2.04711914 15.837513 2.68463542 17.8858109 3.54114583 20.9290581 22.2085449 17.3914261 24.4208089 16.0408287 22.7766602 15.1414604 25.3717936 13.5 23.2683919 11.8429871 25.3717936 10.9545364 22.7766602 9.60826492 24.4208089 5.85825348 22.2085449 8.91365433 3.00921224"></polygon>
            <path d="M10.904274,0.706070964 L5.10349274,0.706070964 C4.15619659,0.869981554 3.39813995,1.56293403 2.82932281,2.78492839 C3.55414581,2.66925998 4.12838745,2.5729872 4.55204773,2.49611003 C3.15884399,3.43542209 2.26112366,4.40068902 1.85888672,5.39191081 C2.62738037,5.27518446 3.31392288,5.27518446 3.91851425,5.39191081 C2.50409317,7.01613498 1.74850845,8.34226617 1.6517601,9.37030436 C2.72100449,8.94508192 3.4765892,8.74569499 3.91851425,8.77214355 C2.22078323,10.4262722 1.23098373,12.2765788 0.949115753,14.3230632 C2.07085419,13.860319 3.02326584,13.6491536 3.64176178,13.6971842 C2.81984711,14.2849772 1.76031876,15.8700928 1.17292786,17.6911296 C1.87261963,17.500982 2.52191162,17.4434652 3.12080383,17.5185791 C1.67754364,18.9265598 0.887042999,20.675198 0.74930191,22.7644938 C1.78081512,21.5889079 2.35069656,21.1088135 2.82932281,21.0718913 C2.69391632,21.5063531 2.87062454,22.1570936 3.35944748,23.024113 C4.12080021,21.7537422 4.70214863,21.2264988 5.10349274,21.4423828 C5.38541241,21.5940281 5.48732777,22.4888008 5.40923882,24.1267008 C7.19420815,22.3333469 8.35496521,19.7467122 8.89151001,16.3667969 C9.22192383,16.3644694 9.51065826,16.4200114 9.75771332,16.5334229 C9.93864441,14.7493083 9.64990997,13.2505208 8.89151001,12.0370605 C9.5072937,11.4673231 10.0883331,10.7129747 10.6346283,9.7740153 C11.0630264,8.74999729 11.0298958,7.75352105 10.5352364,6.78458659 C11.0919685,6.21146376 11.5499611,6.02568902 11.909214,6.22726237 C11.4266396,5.12262912 10.9179382,4.41370171 10.38311,4.10048014 C10.3506838,3.60637092 10.8515396,3.34574382 11.681385,3.63371582 C11.129425,2.16624349 10.4706065,2.35682361 10.2788773,1.90799967 C10.1510578,1.60878372 10.3595233,1.20814081 10.904274,0.706070964 Z" id="Path-11" stroke="#77501E" stroke-width="0.5" fill="#77501E" stroke-linecap="round" stroke-linejoin="round"></path>
            <path d="M25.248024,0.706070964 L19.4472427,0.706070964 C18.4999466,0.869981554 17.74189,1.56293403 17.1730728,2.78492839 C17.8978958,2.66925998 18.4721375,2.5729872 18.8957977,2.49611003 C17.502594,3.43542209 16.6048737,4.40068902 16.2026367,5.39191081 C16.9711304,5.27518446 17.6576729,5.27518446 18.2622643,5.39191081 C16.8478432,7.01613498 16.0922585,8.34226617 15.9955101,9.37030436 C17.0647545,8.94508192 17.8203392,8.74569499 18.2622643,8.77214355 C16.5645332,10.4262722 15.5747337,12.2765788 15.2928658,14.3230632 C16.4146042,13.860319 17.3670158,13.6491536 17.9855118,13.6971842 C17.1635971,14.2849772 16.1040688,15.8700928 15.5166779,17.6911296 C16.2163696,17.500982 16.8656616,17.4434652 17.4645538,17.5185791 C16.0212936,18.9265598 15.230793,20.675198 15.0930519,22.7644938 C16.1245651,21.5889079 16.6944466,21.1088135 17.1730728,21.0718913 C17.0376663,21.5063531 17.2143745,22.1570936 17.7031975,23.024113 C18.4645502,21.7537422 19.0458986,21.2264988 19.4472427,21.4423828 C19.7291624,21.5940281 19.8310778,22.4888008 19.7529888,24.1267008 C21.5379581,22.3333469 22.6987152,19.7467122 23.23526,16.3667969 C23.5656738,16.3644694 23.8544083,16.4200114 24.1014633,16.5334229 C24.2823944,14.7493083 23.99366,13.2505208 23.23526,12.0370605 C23.8510437,11.4673231 24.4320831,10.7129747 24.9783783,9.7740153 C25.4067764,8.74999729 25.3736458,7.75352105 24.8789864,6.78458659 C25.4357185,6.21146376 25.8937111,6.02568902 26.252964,6.22726237 C25.7703896,5.12262912 25.2616882,4.41370171 24.72686,4.10048014 C24.6944338,3.60637092 25.1952896,3.34574382 26.025135,3.63371582 C25.473175,2.16624349 24.8143565,2.35682361 24.6226273,1.90799967 C24.4948078,1.60878372 24.7032733,1.20814081 25.248024,0.706070964 Z" id="Path-11" stroke="#77501E" stroke-width="0.5" fill="#77501E" stroke-linecap="round" stroke-linejoin="round" transform="translate(20.673008, 12.416386) scale(-1, 1) translate(-20.673008, -12.416386) "></path>
            <ellipse id="Oval" fill="#F5CD2E" cx="8.4375" cy="3.46666667" rx="1.6875" ry="1.73333333"></ellipse>
            <ellipse id="Oval-Copy" fill="#F5CD2E" cx="18.5625" cy="3.46666667" rx="1.6875" ry="1.73333333"></ellipse>
            <path d="M18.1443329,7.4491862 C18.6103231,7.4491862 18.9880829,7.06116631 18.9880829,6.58251953 C18.9880829,6.10387275 18.6103231,5.71585286 18.1443329,5.71585286 C17.6783426,5.71585286 17.3005829,6.10387275 17.3005829,6.58251953 C17.3005829,7.06116631 17.6783426,7.4491862 18.1443329,7.4491862 Z" id="Oval-Copy" fill="#F5CD2E"></path>
            <path d="M17.3505363,9.53333333 C17.8165266,9.53333333 18.1942863,9.14531345 18.1942863,8.66666667 C18.1942863,8.18801988 17.8165266,7.8 17.3505363,7.8 C16.8845461,7.8 16.5067863,8.18801988 16.5067863,8.66666667 C16.5067863,9.14531345 16.8845461,9.53333333 17.3505363,9.53333333 Z" id="Oval-Copy" fill="#F5CD2E"></path>
            <path d="M15.6378021,11.2666667 C16.1037924,11.2666667 16.4815521,10.8786468 16.4815521,10.4 C16.4815521,9.92135322 16.1037924,9.53333333 15.6378021,9.53333333 C15.1718119,9.53333333 14.7940521,9.92135322 14.7940521,10.4 C14.7940521,10.8786468 15.1718119,11.2666667 15.6378021,11.2666667 Z" id="Oval-Copy" fill="#F5CD2E"></path>
            <path d="M8.86308289,7.4491862 C9.32907314,7.4491862 9.70683289,7.06116631 9.70683289,6.58251953 C9.70683289,6.10387275 9.32907314,5.71585286 8.86308289,5.71585286 C8.39709263,5.71585286 8.01933289,6.10387275 8.01933289,6.58251953 C8.01933289,7.06116631 8.39709263,7.4491862 8.86308289,7.4491862 Z" id="Oval-Copy" fill="#F5CD2E"></path>
            <path d="M9.75678635,9.53333333 C10.2227766,9.53333333 10.6005363,9.14531345 10.6005363,8.66666667 C10.6005363,8.18801988 10.2227766,7.8 9.75678635,7.8 C9.29079609,7.8 8.91303635,8.18801988 8.91303635,8.66666667 C8.91303635,9.14531345 9.29079609,9.53333333 9.75678635,9.53333333 Z" id="Oval-Copy" fill="#F5CD2E"></path>
            <path d="M11.4190521,11.2666667 C11.8850424,11.2666667 12.2628021,10.8786468 12.2628021,10.4 C12.2628021,9.92135322 11.8850424,9.53333333 11.4190521,9.53333333 C10.9530619,9.53333333 10.5753021,9.92135322 10.5753021,10.4 C10.5753021,10.8786468 10.9530619,11.2666667 11.4190521,11.2666667 Z" id="Oval-Copy" fill="#F5CD2E"></path>
            <path d="M12.4835243,13.1913818 C12.5672751,12.3638076 12.8915092,11.5823758 13.4562263,10.8470866 C14.052358,11.6672974 14.387132,12.4487292 14.4605484,13.1913818 C14.5339648,13.9340345 14.3691012,14.7237535 13.9659576,15.5605387 L16.7162476,19.2251465 C15.6168823,20.1074002 14.5302086,20.5511719 13.4562263,20.5564616 C12.3822441,20.5617513 11.3103218,20.1179796 10.2404594,19.2251465 L13.0244637,15.5460449 C12.5800866,14.8038438 12.3997735,14.0189561 12.4835243,13.1913818 Z" id="Path-10" stroke="#F5CD2E" stroke-width="0.5" fill="#F5CD2E" stroke-linecap="round" stroke-linejoin="round" transform="translate(13.478354, 15.701797) scale(-1, 1) translate(-13.478354, -15.701797) "></path>
        </g>
    </g>
</svg>