<?xml version="1.0" encoding="UTF-8"?>
<svg width="48px" height="48px" viewBox="0 0 48 48" version="1.1" xmlns="http://www.w3.org/2000/svg" xmlns:xlink="http://www.w3.org/1999/xlink">
    <!-- Generator: Sketch 51.3 (57544) - http://www.bohemiancoding.com/sketch -->
    <title>tops-buttondownshortshirt</title>
    <desc>Created with Sketch.</desc>
    <defs></defs>
    <g id="SVGs" stroke="none" stroke-width="1" fill="none" fill-rule="evenodd">
        <g id="Slices" transform="translate(-413.000000, -59.000000)"></g>
        <g id="Group-15" transform="translate(9.000000, 9.000000)" fill-rule="nonzero">
            <path d="M0.195716536,9.0950472 L6.32398547,3.84695946 C7.00401101,3.26460354 7.85457192,2.918512 8.74800513,2.86063069 L9.40430214,2.81811232 L19.8858767,2.81055841 L20.7422223,2.86385556 C21.6384458,2.91963462 22.4922035,3.26543505 23.1746307,3.84906231 L29.289707,9.07881415 C29.5031595,9.26136364 29.5319258,9.58089547 29.3545095,9.79863339 L26.4397716,13.3758083 C26.1058917,13.7855696 25.5168127,13.87773 25.0737367,13.5895221 L22.6509414,12.0135651 L23.4872462,26.3688917 C23.5180879,26.8983102 23.1435957,27.3653115 22.6201209,27.4502192 C19.7071712,27.9227 17.0789507,28.1636974 14.7354594,28.1732112 C12.3941111,28.1827164 9.76916535,27.9611748 6.86062216,27.5085865 L6.86062286,27.508582 C6.33382737,27.4266092 5.95560485,26.9577028 5.98699698,26.4254927 L6.8364132,12.0248173 L4.42141962,13.5925285 C3.97957072,13.879358 3.3927451,13.7883485 3.05852987,13.3811608 L0.132347157,9.81607624 C-0.0462192386,9.59852172 -0.0180599361,9.27811972 0.195716536,9.0950472 Z" id="Rectangle-7" fill="#3AB99D"></path>
            <path d="M13.6241834,2.82722691 L15.6931489,2.82722691 L15.6931489,28.1636026 C15.3581708,28.175192 15.0166265,28.1809867 14.668516,28.1809867 C14.3204054,28.1809867 13.9722946,28.175192 13.6241834,28.1636026 L13.6241834,2.82722691 Z" id="Rectangle-5" fill="#14473B"></path>
            <path d="M14.6586662,8.78839983 C14.9443307,8.78839983 15.1759075,8.55654729 15.1759075,8.27054269 C15.1759075,7.98453809 14.9443307,7.75268555 14.6586662,7.75268555 C14.3730016,7.75268555 14.1414248,7.98453809 14.1414248,8.27054269 C14.1414248,8.55654729 14.3730016,8.78839983 14.6586662,8.78839983 Z" id="Oval-5" fill="#D8D8D8"></path>
            <path d="M3.62068966,9.32142857 C3.90635418,9.32142857 4.13793103,9.08957603 4.13793103,8.80357143 C4.13793103,8.51756683 3.90635418,8.28571429 3.62068966,8.28571429 C3.33502513,8.28571429 3.10344828,8.51756683 3.10344828,8.80357143 C3.10344828,9.08957603 3.33502513,9.32142857 3.62068966,9.32142857 Z" id="Oval-5" fill="#88F6DD"></path>
            <path d="M7.75862069,9.32142857 C8.04428522,9.32142857 8.27586207,9.08957603 8.27586207,8.80357143 C8.27586207,8.51756683 8.04428522,8.28571429 7.75862069,8.28571429 C7.47295616,8.28571429 7.24137931,8.51756683 7.24137931,8.80357143 C7.24137931,9.08957603 7.47295616,9.32142857 7.75862069,9.32142857 Z" id="Oval-5" fill="#88F6DD"></path>
            <path d="M7.75862069,5.17857143 C8.04428522,5.17857143 8.27586207,4.94671889 8.27586207,4.66071429 C8.27586207,4.37470968 8.04428522,4.14285714 7.75862069,4.14285714 C7.47295616,4.14285714 7.24137931,4.37470968 7.24137931,4.66071429 C7.24137931,4.94671889 7.47295616,5.17857143 7.75862069,5.17857143 Z" id="Oval-5-Copy-3" fill="#88F6DD"></path>
            <path d="M9.82758621,12.4285714 C10.1132507,12.4285714 10.3448276,12.1967189 10.3448276,11.9107143 C10.3448276,11.6247097 10.1132507,11.3928571 9.82758621,11.3928571 C9.54192168,11.3928571 9.31034483,11.6247097 9.31034483,11.9107143 C9.31034483,12.1967189 9.54192168,12.4285714 9.82758621,12.4285714 Z" id="Oval-5" fill="#88F6DD"></path>
            <path d="M11.8965517,9.32142857 C12.1822162,9.32142857 12.4137931,9.08957603 12.4137931,8.80357143 C12.4137931,8.51756683 12.1822162,8.28571429 11.8965517,8.28571429 C11.6108872,8.28571429 11.3793103,8.51756683 11.3793103,8.80357143 C11.3793103,9.08957603 11.6108872,9.32142857 11.8965517,9.32142857 Z" id="Oval-5" fill="#88F6DD"></path>
            <path d="M21.2068966,5.17857143 C21.4925611,5.17857143 21.7241379,4.94671889 21.7241379,4.66071429 C21.7241379,4.37470968 21.4925611,4.14285714 21.2068966,4.14285714 C20.921232,4.14285714 20.6896552,4.37470968 20.6896552,4.66071429 C20.6896552,4.94671889 20.921232,5.17857143 21.2068966,5.17857143 Z" id="Oval-5-Copy" fill="#88F6DD"></path>
            <path d="M22.2413793,8.28571429 C22.5270438,8.28571429 22.7586207,8.05386175 22.7586207,7.76785714 C22.7586207,7.48185254 22.5270438,7.25 22.2413793,7.25 C21.9557148,7.25 21.7241379,7.48185254 21.7241379,7.76785714 C21.7241379,8.05386175 21.9557148,8.28571429 22.2413793,8.28571429 Z" id="Oval-5-Copy-2" fill="#88F6DD"></path>
            <path d="M24.3103448,11.3928571 C24.5960094,11.3928571 24.8275862,11.1610046 24.8275862,10.875 C24.8275862,10.5889954 24.5960094,10.3571429 24.3103448,10.3571429 C24.0246803,10.3571429 23.7931034,10.5889954 23.7931034,10.875 C23.7931034,11.1610046 24.0246803,11.3928571 24.3103448,11.3928571 Z" id="Oval-5-Copy" fill="#88F6DD"></path>
            <path d="M18.1034483,8.28571429 C18.3891128,8.28571429 18.6206897,8.05386175 18.6206897,7.76785714 C18.6206897,7.48185254 18.3891128,7.25 18.1034483,7.25 C17.8177838,7.25 17.5862069,7.48185254 17.5862069,7.76785714 C17.5862069,8.05386175 17.8177838,8.28571429 18.1034483,8.28571429 Z" id="Oval-5-Copy" fill="#88F6DD"></path>
            <path d="M21.2068966,16.5714286 C21.4925611,16.5714286 21.7241379,16.339576 21.7241379,16.0535714 C21.7241379,15.7675668 21.4925611,15.5357143 21.2068966,15.5357143 C20.921232,15.5357143 20.6896552,15.7675668 20.6896552,16.0535714 C20.6896552,16.339576 20.921232,16.5714286 21.2068966,16.5714286 Z" id="Oval-5-Copy" fill="#88F6DD"></path>
            <path d="M18.1034483,19.6785714 C18.3891128,19.6785714 18.6206897,19.4467189 18.6206897,19.1607143 C18.6206897,18.8747097 18.3891128,18.6428571 18.1034483,18.6428571 C17.8177838,18.6428571 17.5862069,18.8747097 17.5862069,19.1607143 C17.5862069,19.4467189 17.8177838,19.6785714 18.1034483,19.6785714 Z" id="Oval-5-Copy" fill="#88F6DD"></path>
            <path d="M22.2413793,22.7857143 C22.5270438,22.7857143 22.7586207,22.5538617 22.7586207,22.2678571 C22.7586207,21.9818525 22.5270438,21.75 22.2413793,21.75 C21.9557148,21.75 21.7241379,21.9818525 21.7241379,22.2678571 C21.7241379,22.5538617 21.9557148,22.7857143 22.2413793,22.7857143 Z" id="Oval-5-Copy" fill="#88F6DD"></path>
            <path d="M17.0689655,25.8928571 C17.35463,25.8928571 17.5862069,25.6610046 17.5862069,25.375 C17.5862069,25.0889954 17.35463,24.8571429 17.0689655,24.8571429 C16.783301,24.8571429 16.5517241,25.0889954 16.5517241,25.375 C16.5517241,25.6610046 16.783301,25.8928571 17.0689655,25.8928571 Z" id="Oval-5-Copy" fill="#88F6DD"></path>
            <path d="M21.2068966,26.9285714 C21.4925611,26.9285714 21.7241379,26.6967189 21.7241379,26.4107143 C21.7241379,26.1247097 21.4925611,25.8928571 21.2068966,25.8928571 C20.921232,25.8928571 20.6896552,26.1247097 20.6896552,26.4107143 C20.6896552,26.6967189 20.921232,26.9285714 21.2068966,26.9285714 Z" id="Oval-5-Copy" fill="#88F6DD"></path>
            <path d="M11.8965517,16.5714286 C12.1822162,16.5714286 12.4137931,16.339576 12.4137931,16.0535714 C12.4137931,15.7675668 12.1822162,15.5357143 11.8965517,15.5357143 C11.6108872,15.5357143 11.3793103,15.7675668 11.3793103,16.0535714 C11.3793103,16.339576 11.6108872,16.5714286 11.8965517,16.5714286 Z" id="Oval-5" fill="#88F6DD"></path>
            <path d="M7.75862069,17.6071429 C8.04428522,17.6071429 8.27586207,17.3752903 8.27586207,17.0892857 C8.27586207,16.8032811 8.04428522,16.5714286 7.75862069,16.5714286 C7.47295616,16.5714286 7.24137931,16.8032811 7.24137931,17.0892857 C7.24137931,17.3752903 7.47295616,17.6071429 7.75862069,17.6071429 Z" id="Oval-5" fill="#88F6DD"></path>
            <path d="M9.82758621,21.75 C10.1132507,21.75 10.3448276,21.5181475 10.3448276,21.2321429 C10.3448276,20.9461383 10.1132507,20.7142857 9.82758621,20.7142857 C9.54192168,20.7142857 9.31034483,20.9461383 9.31034483,21.2321429 C9.31034483,21.5181475 9.54192168,21.75 9.82758621,21.75 Z" id="Oval-5" fill="#88F6DD"></path>
            <path d="M11.8965517,24.8571429 C12.1822162,24.8571429 12.4137931,24.6252903 12.4137931,24.3392857 C12.4137931,24.0532811 12.1822162,23.8214286 11.8965517,23.8214286 C11.6108872,23.8214286 11.3793103,24.0532811 11.3793103,24.3392857 C11.3793103,24.6252903 11.6108872,24.8571429 11.8965517,24.8571429 Z" id="Oval-5" fill="#88F6DD"></path>
            <path d="M7.75862069,25.8928571 C8.04428522,25.8928571 8.27586207,25.6610046 8.27586207,25.375 C8.27586207,25.0889954 8.04428522,24.8571429 7.75862069,24.8571429 C7.47295616,24.8571429 7.24137931,25.0889954 7.24137931,25.375 C7.24137931,25.6610046 7.47295616,25.8928571 7.75862069,25.8928571 Z" id="Oval-5" fill="#88F6DD"></path>
            <path d="M14.6586662,13.9773385 C14.9443307,13.9773385 15.1759075,13.745486 15.1759075,13.4594814 C15.1759075,13.1734768 14.9443307,12.9416242 14.6586662,12.9416242 C14.3730016,12.9416242 14.1414248,13.1734768 14.1414248,13.4594814 C14.1414248,13.745486 14.3730016,13.9773385 14.6586662,13.9773385 Z" id="Oval-5" fill="#D8D8D8"></path>
            <path d="M14.6586662,19.1559099 C14.9443307,19.1559099 15.1759075,18.9240574 15.1759075,18.6380528 C15.1759075,18.3520482 14.9443307,18.1201957 14.6586662,18.1201957 C14.3730016,18.1201957 14.1414248,18.3520482 14.1414248,18.6380528 C14.1414248,18.9240574 14.3730016,19.1559099 14.6586662,19.1559099 Z" id="Oval-5" fill="#D8D8D8"></path>
            <path d="M14.6586662,24.8719352 C14.9443307,24.8719352 15.1759075,24.6400826 15.1759075,24.354078 C15.1759075,24.0680734 14.9443307,23.8362209 14.6586662,23.8362209 C14.3730016,23.8362209 14.1414248,24.0680734 14.1414248,24.354078 C14.1414248,24.6400826 14.3730016,24.8719352 14.6586662,24.8719352 Z" id="Oval-5" fill="#D8D8D8"></path>
            <path d="M17.0055731,11.1918335 L21.1435042,11.1918335 L21.1435042,12.2300108 C21.1435042,13.3726689 20.2171968,14.2989764 19.0745387,14.2989764 L19.0745387,14.2989764 C17.9318806,14.2989764 17.0055731,13.3726689 17.0055731,12.2300108 L17.0055731,11.1918335 Z" id="Rectangle-8" fill="#14473B"></path>
            <path d="M1.19916966,8.23340389 L5.10774531,13.1508026 L4.41777735,13.5955939 C3.97610321,13.8803213 3.39113573,13.7886753 3.05770229,13.3825129 L0.117050836,9.80044256 C-0.0634931665,9.58051806 -0.0324999947,9.25606508 0.186415286,9.07429868 L1.19916966,8.23340389 Z" id="Path-43" fill="#88F6DD"></path>
            <path d="M25.5908253,8.23340389 L29.4994009,13.1508026 L28.8094329,13.5955939 C28.3677588,13.8803213 27.7827913,13.7886753 27.4493579,13.3825129 L24.5087064,9.80044256 C24.3281624,9.58051806 24.3591556,9.25606508 24.5780709,9.07429868 L25.5908253,8.23340389 Z" id="Path-43" fill="#88F6DD" transform="translate(26.945528, 10.997172) scale(-1, 1) translate(-26.945528, -10.997172) "></path>
            <rect id="Rectangle-17" fill="#88F6DD" x="17.0055731" y="10.1561192" width="4.13793103" height="1.03571429"></rect>
            <path d="M9.49166552,3.18054229 L10.991019,1.1165702 C11.1523376,0.894503165 11.4590218,0.83711112 11.6897256,0.985816157 L14.5264441,2.8142831 C14.6206905,2.8750316 14.6493929,2.99979956 14.5911655,3.09562407 L12.6338794,6.31672096 C12.485536,6.56084894 12.1673751,6.63849772 11.9232471,6.49015437 C11.8793333,6.46347033 11.8396409,6.43039151 11.8054775,6.39200764 L9.52377383,3.82842736 C9.36215521,3.64684275 9.34879292,3.37721708 9.49166552,3.18054229 Z" id="Path-44" stroke="#88F6DD" stroke-width="0.517241379" fill="#88F6DD"></path>
            <path d="M14.6014169,3.19727623 L16.1129266,1.1165702 C16.2742452,0.894503165 16.5809294,0.83711112 16.8116332,0.985816157 L19.6394616,2.80855282 C19.7355046,2.87045936 19.7631776,2.99850276 19.7012711,3.09454574 C19.7003507,3.09597359 19.6994128,3.09739005 19.6984576,3.0987948 L17.4963949,6.33709146 C17.3357618,6.57331431 17.0140465,6.63459194 16.7778236,6.47395886 C16.7355717,6.44522724 16.6978101,6.41039361 16.6657691,6.37059275 L14.6169877,3.82562842 C14.4705383,3.64371125 14.4641576,3.38622381 14.6014169,3.19727623 Z" id="Path-44" stroke="#88F6DD" stroke-width="0.517241379" fill="#88F6DD" transform="translate(17.118533, 3.733459) scale(-1, 1) translate(-17.118533, -3.733459) "></path>
        </g>
    </g>
</svg>