<?xml version="1.0" encoding="UTF-8"?>
<svg width="48px" height="48px" viewBox="0 0 48 48" version="1.1" xmlns="http://www.w3.org/2000/svg" xmlns:xlink="http://www.w3.org/1999/xlink">
    <!-- Generator: Sketch 51.3 (57544) - http://www.bohemiancoding.com/sketch -->
    <title>tops-wizard-robe</title>
    <desc>Created with Sketch.</desc>
    <defs></defs>
    <g id="SVGs" stroke="none" stroke-width="1" fill="none" fill-rule="evenodd">
        <g id="Slices" transform="translate(-765.000000, -118.000000)"></g>
        <g id="Group-58" transform="translate(8.168137, 9.676481)" fill-rule="nonzero">
            <path d="M1.88425472,24.9784146 L11.6823288,6.41235362 L15.4211609,6.41235362 L21.1305349,6.39098342 L30.928609,24.9570444 C27.0297935,27.3581867 24.1590381,28.3655017 16.7453307,28.3709566 C9.33162331,28.3764114 5.94064383,27.4766009 1.88425472,24.9784146 Z" id="Combined-Shape" stroke="#71762A" fill="#71762A" stroke-linejoin="round"></path>
            <path d="M22.2473726,6.42324625 L30.6599345,18.3882585 C29.5301191,20.0725815 26.543311,21.5844853 25.3345156,21.8778782 C23.2764203,15.5482311 22.1126464,12.5467886 21.8431941,12.8735504 C21.5737417,13.2003123 22.4766655,17.04598 24.5519656,24.4105538 C21.9749252,25.1785419 20.4653969,26.0429928 16.3710102,26.0333404 C12.2766235,26.023688 10.7126788,25.1237526 8.19005478,24.3719812 C10.2653548,16.932516 11.1682787,13.0868482 10.8988263,12.8349778 C10.629374,12.5831074 9.35569715,15.8827026 7.07779588,22.7337636 C5.8690005,22.4403707 2.9340992,20.0725815 1.80428371,18.3882585 L10.4946478,6.38467364 L22.2473726,6.42324625 Z" id="Combined-Shape" stroke="#2949AD" fill="#2949AD" stroke-linejoin="round"></path>
            <path d="M0.859173016,20.083307 L0.846910217,21.5608057 C1.95904143,21.7363481 3.06966736,21.8240851 4.17901607,21.8240851 C5.26811718,21.8240851 6.42621799,21.6969852 7.65328232,21.4420988 L7.32316106,20.2105881 C6.34382075,20.2956573 5.30443888,20.3381337 4.20491865,20.3381337 C3.11624734,20.3381337 2.00096217,20.2531327 0.859173112,20.0833067 Z" id="Rectangle-59" stroke="#C789E4" fill="#C789E4" transform="translate(4.307525, 20.910737) rotate(37.000000) translate(-4.307525, -20.910737) "></path>
            <path d="M24.3470458,18.8960454 L24.334783,20.3735442 C25.4469142,20.5490866 26.5575402,20.6368235 27.6668889,20.6368235 C28.7439588,20.6368235 29.8885124,20.5125163 31.1005147,20.2632375 L30.6937604,19.1054484 C29.7906926,19.135742 28.7904258,19.1508722 27.6927914,19.1508722 C26.6041201,19.1508722 25.488835,19.0658712 24.3470459,18.8960452 Z" id="Rectangle-59" stroke="#C789E4" fill="#C789E4" transform="translate(27.795398, 19.723475) scale(-1, 1) rotate(37.000000) translate(-27.795398, -19.723475) "></path>
            <path d="M8.21523355,23.8105526 C11.1170517,25.0005154 13.9104646,25.5954968 16.5954722,25.5954968 C19.2804798,25.5954968 21.939833,25.0005154 24.5735318,23.8105526 L25.0258978,25.4349231 C22.1783964,26.5178368 19.3682545,27.0592936 16.5954722,27.0592936 C13.8226898,27.0592936 10.8865211,26.5178368 7.78696585,25.4349231 L8.21523355,23.8105526 Z" id="Rectangle-60" stroke="#C789E4" fill="#C789E4" stroke-linejoin="round"></path>
            <path d="M8.56396325,21.9880413 C11.1228547,23.1627116 13.8816252,23.7500467 16.8402748,23.7500467 C19.7989245,23.7500467 22.2448519,23.1627116 24.1780571,21.9880413" id="Path-155" stroke="#C789E4" stroke-linecap="round" stroke-linejoin="round"></path>
            <path d="M5.40573071,14.2777613 L5.40573071,14.5852456 L9.82683842,14.572125 L9.71792687,14.2083374 L5.40573071,14.2777613 Z" id="Rectangle-61" stroke="#C789E4" fill="#C789E4" transform="translate(7.701796, 14.394520) rotate(37.000000) translate(-7.701796, -14.394520) "></path>
            <path d="M22.7303742,14.2930259 L22.7303742,14.600517 L27.0288438,14.607363 L26.920329,14.2449005 L22.7303742,14.2930259 Z" id="Rectangle-61" stroke="#C789E4" fill="#C789E4" transform="translate(24.965578, 14.424520) scale(-1, 1) rotate(37.000000) translate(-24.965578, -14.424520) "></path>
            <path d="M8.04541118,9.20058901 C8.2224206,10.4460841 8.5418564,10.9824309 9.00371857,10.8096293 C9.31461785,10.6933092 9.41950546,9.5576088 9.3183814,7.40252824 C8.64160198,8.34313979 8.21727857,8.94249338 8.04541118,9.20058901 Z" id="Path-160" fill="#C789E4"></path>
            <path d="M15.9955311,13.3762259 L13.122114,13.3762259 C12.4602422,13.4477046 12.1293063,13.266926 12.1293063,12.8338901 C12.1293063,12.1843362 12.1818093,11.9624834 13.122114,11.9624834 C13.7489838,11.9624834 14.7067895,11.9624834 15.9955311,11.9624834 L15.9955311,13.3762259 Z" id="Path-161" fill="#C789E4"></path>
            <path d="M9.94460951,16.4922496 L12.1562409,16.7055799 C12.9013021,16.8705708 13.2065178,17.1253003 13.071888,17.4697686 C12.8699434,17.986471 12.3660889,17.8243428 11.7913873,17.8243428 C11.2166857,17.8243428 10.4605305,17.4697686 10.4605305,18.0668845 C10.4605305,18.6640005 10.9734595,18.6055771 12.3961803,18.88221 C13.818901,19.1588429 15.2058391,19.2149242 14.9095582,20.0082595 C14.7120376,20.5371497 12.7879343,20.4186826 9.13724823,19.6528582 L9.94460951,16.4922496 Z" id="Path-162" fill="#C789E4"></path>
            <path d="M22.5738637,15.6889438 C22.2250327,15.4974198 21.8033478,15.2903193 21.308809,15.0676424 C20.5670007,14.733627 19.82246,14.8543774 19.82246,15.4016578 C19.82246,15.9489381 21.3932846,16.2473009 21.5836345,16.6226941 C21.7739843,16.9980873 21.8694916,17.2879924 20.8851416,17.1430399 C19.9007916,16.9980873 18.7194415,15.9610392 18.4537386,16.8956837 C18.2766033,17.5187801 19.9261247,18.2223818 23.4023028,19.006489 L22.5738637,15.6889438 Z" id="Path-163" fill="#C789E4"></path>
            <path d="M22.9693944,6.83611965 C22.5068427,7.76367181 22.1308568,8.46375833 21.8414366,8.93637921 C21.4073063,9.64531054 21.0389023,11.0634135 22.0382552,11.0634135 C22.7044904,11.0634135 23.2743393,10.0389626 23.7478019,7.99006091 L22.9693944,6.83611965 Z" id="Path-165" fill="#C789E4"></path>
            <path d="M24.3193146,8.77716064 C23.8363716,9.99596806 23.7117336,10.6053718 23.9454006,10.6053718 C24.1790676,10.6053718 24.5200506,10.3006699 24.9683497,9.69126621 L24.3193146,8.77716064 Z" id="Path-166" fill="#C789E4"></path>
            <path d="M9.52463565,6.86273464 L11.2293555,6.86273464 L16.6950285,14.6116599 L21.7776824,6.86273464 L23.288228,6.86273464 C22.6077141,5.46735572 21.9281042,4.61137989 21.2493983,4.29480714 C21.2493983,3.55824667 21.096178,3.02242307 20.6230337,2.82784542 C21.1320692,2.45754665 21.2493983,1.94905767 21.2493983,1.55061074 C21.2493983,1.1521638 20.7122151,0.356180874 19.8936407,0.356180874 C19.3479245,0.356180874 17.0751798,0.356180874 13.0754066,0.356180874 C12.4080874,0.45792028 12.0744279,0.856063568 12.0744279,1.55061074 C12.0744279,2.59243149 12.896729,2.10338778 12.6626674,2.59102122 C12.0744279,2.82784542 12.0744279,3.60218522 12.0744279,3.60218522 C12.0744279,3.60218522 12.0265031,4.33551021 12.4264302,4.62620427 C11.2479914,4.8528067 10.2807265,5.59831682 9.52463565,6.86273464 Z" id="Path-157" stroke="#A4A721" fill="#A4A721"></path>
            <path d="M10.9801505,5.44284175 C13.5514991,6.53774827 14.3772687,8.72734428 16.6021395,12.1254566 C18.6412338,8.83614285 20.2436609,6.24155031 22.2241285,5.0956454" id="Path-159" stroke="#88859F" stroke-width="2" stroke-linecap="round"></path>
            <ellipse id="Oval-40-Copy" stroke="#E8CC0B" fill="#E8CC0B" cx="16.6021395" cy="2.50087927" rx="1.82303692" ry="1.56260307"></ellipse>
            <circle id="Oval-40" stroke="#63480D" stroke-width="0.75" cx="16.6021395" cy="2.50087927" r="1"></circle>
            <path d="M15.271774,2.50548812 L15.717368,2.50548812 M17.5064936,2.50548812 L17.8737448,2.50548812" id="Line-41" stroke="#63480D" stroke-width="0.75" stroke-linecap="round"></path>
        </g>
    </g>
</svg>