<?xml version="1.0" encoding="UTF-8"?>
<svg width="48px" height="48px" viewBox="0 0 48 48" version="1.1" xmlns="http://www.w3.org/2000/svg" xmlns:xlink="http://www.w3.org/1999/xlink">
    <!-- Generator: Sketch 51.3 (57544) - http://www.bohemiancoding.com/sketch -->
    <title>tops-overalls</title>
    <desc>Created with Sketch.</desc>
    <defs></defs>
    <g id="SVGs" stroke="none" stroke-width="1" fill="none" fill-rule="evenodd">
        <g id="Slices" transform="translate(0.000000, -59.000000)"></g>
        <g id="Group-4" transform="translate(9.000000, 11.000000)" fill-rule="nonzero">
            <path d="M0.965223798,7.06724912 L6.88894715,2.00036082 C7.5461045,1.43825779 8.36772768,1.10425907 9.23068622,1.04841855 L9.86623322,1.00729343 C12.4068001,4.56704373 14.1037749,6.35016922 14.9571576,6.3566699 C15.8105404,6.36317058 17.4909618,4.57761395 19.998422,1 L20.8273571,1.05152983 C21.6930083,1.10534208 22.5177164,1.43905902 23.1771927,2.00238747 L29.08817,7.05157833 C29.2947841,7.22806927 29.3226205,7.53726405 29.1508517,7.74782029 L26.3336164,11.2012218 C26.0109072,11.5968026 25.4420372,11.68579 25.0139401,11.4076566 L22.6713178,9.8856616 L23.0910643,17.0823471 L6.96099369,17.0584784 L7.38394058,9.89652586 L5.04886086,11.4105579 C4.62195076,11.6873603 4.05525799,11.5994848 3.73222685,11.2063911 L0.90392864,7.76466042 C0.731047167,7.55428251 0.758296152,7.24424578 0.965223798,7.06724912 Z" id="Rectangle-7" fill="#DDDDDD"></path>
            <path d="M11.3004761,1 C12.540174,1.20507813 13.7793995,1.30761719 15.0181524,1.30761719 C16.1590886,1.30761719 17.2995524,1.20507813 18.4395436,1 C19.00152,4.70817057 19.2825083,6.56225586 19.2825083,6.56225586 C19.2825083,6.56225586 17.8427851,7.36991374 14.9633387,8.98522949 L10.1825327,6.56225586 L11.3004761,1 Z" id="Path-18" fill="#DDDDDD"></path>
            <path d="M10.1973614,0.805693476 C10.8453866,0.8032563 11.212677,0.8032563 11.2992325,0.805693476 C11.7657825,2.33539034 13.2121679,3.41073336 14.8770164,3.41073336 C16.5406289,3.41073336 17.9869087,2.33690223 18.4542969,0.807319973 C18.5598186,0.807319973 18.9247431,0.805559219 19.5490704,0.802037711 C19.5461223,0.812775017 19.507108,1.00087056 19.5040857,1.01157461 C18.9343303,3.02950846 17.0501553,4.45421162 14.8770164,4.45421162 C12.6906947,4.45421162 10.7979509,3.01230921 10.2403903,0.977224373 C10.2378098,0.967805654 10.1998846,0.815137523 10.1973614,0.805693476 Z" id="Oval-34" fill="#FFFFFF"></path>
            <path d="M10.4607889,9.39525306 L19.4694915,9.39522033 C20.04974,9.39522033 20.5201242,9.86560462 20.5201242,10.4458531 C20.5201242,10.4546105 20.5200148,10.4633676 20.5197958,10.4721222 C20.4430308,13.5413674 21.2728784,15.3121836 23.0093384,15.7845709 C23.1567993,17.5388794 23.1528646,20.5555458 22.4401042,21.5962217 C22.4401042,21.5962217 22.4401042,21.5962217 22.4401042,21.5962217 L22.4401042,21.5962217 C22.40413,22.4491661 21.7021794,23.1221348 20.8484768,23.1221348 L9.17713377,23.1221104 C8.33440874,23.1221104 7.65124512,22.4389468 7.65124512,21.5962217 C7.65124512,21.5962217 7.65124512,21.5962217 7.65124512,21.5962217 C7.38665771,21.3344727 6.74188232,19.2136841 7.03118896,15.7845709 C8.61747911,15.4613367 9.41047908,13.6817978 9.41018888,10.4459542 L9.41018193,10.4459542 C9.41012989,9.86572004 9.88046046,9.3953051 10.4606947,9.39525306 C10.4607261,9.39525306 10.4607575,9.39525306 10.4607889,9.39525306 Z" id="Path-4" fill="#3157B2"></path>
            <path d="M7.62121582,21.5451342 L22.4322917,21.5451342 L22.4322917,23.5537648 C22.4322917,24.1339952 21.961922,24.6043648 21.3816917,24.6043648 L8.67181582,24.6043648 C8.09158546,24.6043648 7.62121582,24.1339952 7.62121582,23.5537648 L7.62121582,21.5451342 Z" id="Rectangle-2" fill="#132F71"></path>
            <path d="M13.0078917,12.4166525 L16.8061708,12.4166525 C17.3864012,12.4166525 17.8567708,12.8870222 17.8567708,13.4672525 L17.8567708,13.8654467 C17.8567708,14.8051777 18.1656998,15.7188495 18.7359829,16.4657575 L19.0399439,16.8638595 C19.3920613,17.3250326 19.3036541,17.9843348 18.842481,18.3364522 C18.8327231,18.3439025 18.8228354,18.3511813 18.8128224,18.3582851 L18.781901,18.3802225 C18.1844649,18.8040781 17.4700565,19.0317595 16.7375379,19.0317595 L13.0855267,19.0317595 C12.3514727,19.0317595 11.6354814,18.8041265 11.0361979,18.3802225 L11.0043683,18.3577078 C10.5306669,18.0226343 10.4182866,17.3669928 10.7533601,16.8932913 C10.7606645,16.8829648 10.7681548,16.8727711 10.7758274,16.8627151 L11.078472,16.466057 C11.6485175,15.7189327 11.9572917,14.8052055 11.9572917,13.8654467 L11.9572917,13.4672525 C11.9572917,12.8870222 12.4276613,12.4166525 13.0078917,12.4166525 Z" id="Path-5" fill="#132F71"></path>
            <path d="M8.86676348,6.66390902 L12.8106437,5.40923851 L13.2954093,7.06667737 C12.4485622,7.66500501 12.0891577,8.73989914 12.2171959,10.2913597 C11.5990535,8.93402278 10.6671385,8.22071154 9.42145098,8.15142601 L8.86676348,6.66390902 Z" id="Path-6" stroke="#F5CD2E" stroke-width="1.0506" stroke-linecap="round" stroke-linejoin="round" transform="translate(11.081086, 7.850299) rotate(6.000000) translate(-11.081086, -7.850299) "></path>
            <path d="M16.394106,6.66390902 L20.3379862,5.40923851 L20.8227518,7.06667737 C19.9759046,7.66500501 19.6165002,8.73989914 19.7445384,10.2913597 C19.126396,8.93402278 18.194481,8.22071154 16.9487935,8.15142601 L16.394106,6.66390902 Z" id="Path-6" stroke="#F5CD2E" stroke-width="1.0506" stroke-linecap="round" stroke-linejoin="round" transform="translate(18.608429, 7.850299) scale(-1, 1) rotate(6.000000) translate(-18.608429, -7.850299) "></path>
            <path d="M8.15576814,1.20547502 C8.46155256,1.06790012 8.78221169,0.947542129 9.11774554,0.844401042 C9.49973099,0.726981008 9.83510743,0.652128284 10.1238748,0.61984287 L10.1238785,0.619875423 C10.3103558,0.599026468 10.4937929,0.679234594 10.6051039,0.830291995 C11.169481,1.59619387 11.5751582,2.33959801 11.8221354,3.06050442 C12.0935344,3.85269576 12.3157585,4.72389479 12.488808,5.6741015 L12.4888104,5.67410105 C12.6256169,6.42529921 12.127554,7.14516918 11.3763558,7.28197563 C11.2946257,7.29686014 11.2117203,7.30434783 11.1286458,7.30434783 L11.1286458,7.30434783 C10.2189686,7.30434783 9.44412105,6.64335398 9.30075844,5.74504454 C9.17596418,4.96317152 9.06898846,4.43067124 8.97981771,4.14754586 C8.85755153,3.75933943 8.50088498,3.02197866 7.90981804,1.93546356 L7.9098997,1.93541914 C7.77128724,1.680618 7.86547678,1.36169327 8.12027792,1.22308081 C8.13188236,1.21676797 8.14372086,1.21089519 8.15576814,1.20547502 Z" id="Rectangle-4" fill="#3157B2"></path>
            <path d="M17.4882195,1.20547502 C17.7940039,1.06790012 18.114663,0.947542129 18.4501969,0.844401042 C18.8321823,0.726981008 19.1675587,0.652128284 19.4563262,0.61984287 L19.4563298,0.619875423 C19.6428072,0.599026468 19.8262442,0.679234594 19.9375552,0.830291995 C20.5019323,1.59619387 20.9076095,2.33959801 21.1545867,3.06050442 C21.4259857,3.85269576 21.6482099,4.72389479 21.8212593,5.6741015 L21.8212617,5.67410105 C21.9580682,6.42529921 21.4600053,7.14516918 20.7088072,7.28197563 C20.627077,7.29686014 20.5441716,7.30434783 20.4610972,7.30434783 L20.4610972,7.30434783 C19.5514199,7.30434783 18.7765724,6.64335398 18.6332098,5.74504454 C18.5084155,4.96317152 18.4014398,4.43067124 18.312269,4.14754586 C18.1900029,3.75933943 17.8333363,3.02197866 17.2422694,1.93546356 L17.242351,1.93541914 C17.1037386,1.680618 17.1979281,1.36169327 17.4527292,1.22308081 C17.4643337,1.21676797 17.4761722,1.21089519 17.4882195,1.20547502 Z" id="Rectangle-4" fill="#3157B2" transform="translate(19.511138, 3.960482) scale(-1, 1) translate(-19.511138, -3.960482) "></path>
        </g>
    </g>
</svg>