<?xml version="1.0" encoding="UTF-8"?>
<svg width="48px" height="48px" viewBox="0 0 48 48" version="1.1" xmlns="http://www.w3.org/2000/svg" xmlns:xlink="http://www.w3.org/1999/xlink">
    <!-- Generator: Sketch 51.3 (57544) - http://www.bohemiancoding.com/sketch -->
    <title>tops-flannelshirt</title>
    <desc>Created with Sketch.</desc>
    <defs></defs>
    <g id="SVGs" stroke="none" stroke-width="1" fill="none" fill-rule="evenodd">
        <g id="Slices" transform="translate(-177.000000, -59.000000)"></g>
        <g id="Group-10" transform="translate(10.000000, 10.000000)" fill-rule="nonzero">
            <path d="M1.83496094,14.6107898 L5.41573626,18.1582125 C5.49243153,18.243558 5.62379152,18.2505703 5.709137,18.1738751 C5.73819706,18.1477604 5.75930463,18.1139808 5.77003686,18.0764138 C6.85044088,14.2945728 7.52054008,11.9561539 7.78033447,11.0611572 C7.70594254,11.9899208 7.42592139,15.5385255 6.94027101,21.7069713 L6.94025235,21.7069699 C6.92001068,21.9640676 6.99987612,22.2190456 7.16317002,22.4186554 C9.71574034,25.5389083 12.3371556,27.0978899 15.0274159,27.0956004 C17.7156669,27.0933126 20.3530187,25.5320953 22.9394715,22.4119484 L22.939476,22.4119522 C23.1084999,22.2080515 23.189734,21.9454268 23.165354,21.6817032 C22.5618479,15.1534691 22.2179726,11.5929014 22.133728,11 C22.475867,11.9194937 23.0934204,14.2218955 23.9863881,17.9072052 L23.9864638,17.9071868 C24.0514825,18.1755214 24.3217188,18.3403414 24.5900533,18.2753227 C24.6786405,18.2538576 24.7596732,18.2085811 24.8243874,18.1443899 L28.2113647,14.78479 C26.5672721,8.01226467 24.9533398,4.06856423 23.3695679,2.95368874 C22.2877177,2.19213448 20.5679308,2.42482382 19.3740845,1.85217285 C19.3629761,3.33825684 16.757019,5.89929199 15.0463257,5.89929199 C13.3356323,5.89929199 10.8800659,3.36962891 10.8513794,1.85217285 C9.67398238,2.42692384 7.80829189,2.19005896 6.73077393,2.94116211 C5.11728766,4.06587153 3.48535,7.95574741 1.83496094,14.6107898 Z" id="Path-7" fill="#D42E2D" transform="translate(15.023163, 14.473888) scale(-1, 1) translate(-15.023163, -14.473888) "></path>
            <path d="M12.6082764,2.07971191 C13.4392816,2.28479004 14.2699701,2.3873291 15.1003418,2.3873291 C15.8651442,2.3873291 16.6296299,2.28479004 17.3937988,2.07971191 C17.7705078,5.78788249 17.9588623,7.64196777 17.9588623,7.64196777 C17.9588623,7.64196777 16.9937744,8.44962565 15.0635986,10.0649414 L11.8588867,7.64196777 L12.6082764,2.07971191 Z" id="Path-18" fill="#D42E2D"></path>
            <path d="M14.0089111,6.25024414 L16.0089111,6.25024414 L16.0089111,27.0118408 C15.685099,27.0817057 15.3549395,27.1166382 15.0184326,27.1166382 C14.6819258,27.1166382 14.3454186,27.0817057 14.0089111,27.0118408 L14.0089111,6.25024414 Z" id="Rectangle-5" fill="#951918"></path>
            <rect id="Rectangle-6" fill="#951918" transform="translate(26.598076, 16.366025) rotate(-25.000000) translate(-26.598076, -16.366025) " x="23.0980762" y="15.3660254" width="7" height="2" rx="1"></rect>
            <rect id="Rectangle-6" fill="#951918" transform="translate(3.598076, 16.366025) scale(-1, 1) rotate(-25.000000) translate(-3.598076, -16.366025) " x="0.0980762114" y="15.3660254" width="7" height="2" rx="1"></rect>
            <path d="M10.5688477,0.507324219 L15,5.6204834 L15,6.38830566 C14.027181,5.59427897 13.2886556,5.19726562 12.7844238,5.19726562 C12.2801921,5.19726562 11.9261882,5.33833822 11.7224121,5.6204834 C10.4624023,4.42281087 9.5435791,3.58109538 8.96594238,3.09533691 C8.78063965,1.96520996 9.31494141,1.10253906 10.5688477,0.507324219 Z" id="Path-20" stroke="#951918" fill="#951918" stroke-linecap="round" stroke-linejoin="round"></path>
            <path d="M16.5688477,0.507324219 L21,5.6204834 L21,6.38830566 C20.027181,5.59427897 19.2886556,5.19726562 18.7844238,5.19726562 C18.2801921,5.19726562 17.9261882,5.33833822 17.7224121,5.6204834 C16.4624023,4.42281087 15.5435791,3.58109538 14.9659424,3.09533691 C14.7806396,1.96520996 15.3149414,1.10253906 16.5688477,0.507324219 Z" id="Path-20" stroke="#951918" fill="#951918" stroke-linecap="round" stroke-linejoin="round" transform="translate(17.965077, 3.447815) scale(-1, 1) translate(-17.965077, -3.447815) "></path>
            <path d="M2.75021362,11.2590179 C3.72313543,11.7445343 4.55707428,12.1719072 5.06724767,12.4632841 C5.54933572,12.7386206 6.21447786,13.1481739 7.10935048,13.7219167 C7.07879639,13.8350983 6.88769531,14.5760498 6.84458722,14.7478036 C6.78851456,14.7091233 6.70102894,14.6482581 6.68656593,14.6389665 C5.7581588,14.0425263 5.05217248,13.6062787 4.57130214,13.3316378 C4.09366088,13.058841 3.40916132,12.6957619 2.48962402,12.2359467 C2.54067738,12.0343627 2.62754058,11.7087198 2.75021362,11.2590179 Z" id="Path-21" fill="#951918"></path>
            <path d="M23.3045145,11.2941742 C24.2774363,11.7796905 25.0621895,12.1719072 25.5723629,12.4632841 C26.0493839,12.7357266 26.7139865,13.1489642 27.5947876,13.7135992 C27.5403391,13.8999634 27.3709055,14.5330811 27.3132529,14.7165356 C27.2520184,14.6774578 27.1897899,14.6377505 27.1770045,14.6295392 C26.2558305,14.0379274 25.5547505,13.6048297 25.0764173,13.3316378 C24.6057116,13.0628021 23.9314889,12.705838 23.0315958,12.2553558 C23.0803445,12.0584325 23.1713174,11.7380386 23.3045145,11.2941742 Z" id="Path-21" fill="#951918" transform="translate(25.313192, 13.005355) scale(-1, 1) translate(-25.313192, -13.005355) "></path>
            <path d="M3.38409424,9.18612671 C3.51745605,8.74724325 3.62409465,8.43009949 3.70401001,8.23469543 C3.71974387,8.24254709 3.87521059,8.31438428 3.89082281,8.32218477 C4.84061079,8.79673678 5.56532468,9.17661928 6.06724767,9.46328412 C6.52752472,9.7261636 7.17509285,10.1246383 8.01206868,10.6598185 C7.95419312,10.8918457 7.78651428,11.386322 7.70178648,11.6487463 C6.76587152,11.0472928 6.05479689,10.6077776 5.57130214,10.3316378 C5.08039171,10.0512625 4.34172924,9.66401448 3.38409424,9.18612671 Z" id="Path-21" fill="#951918"></path>
            <path d="M22.5008626,8.26357879 C22.5412447,8.28360191 22.5958051,8.31064689 22.6023725,8.31392679 C23.5602867,8.79233169 24.2904978,9.17495838 24.7953288,9.46328412 C25.2399245,9.71720748 25.8821948,10.1075736 26.6781915,10.6155243 C26.649505,10.8283997 26.4669641,11.4878845 26.4215828,11.6434226 C25.4897553,11.0446987 24.7814504,10.6069622 24.2993833,10.3316378 C23.8147718,10.0548601 23.1103971,9.68058138 22.1711578,9.21129489 C22.2073206,9.09741211 22.4493402,8.39401245 22.5008626,8.26357879 Z" id="Path-21" fill="#951918" transform="translate(24.424675, 9.953501) scale(-1, 1) translate(-24.424675, -9.953501) "></path>
            <path d="M10.5220642,4 L11.5220642,4 L11.5220642,26.2151184 C11.3402369,26.1221658 11.1685145,26.0293109 11.006897,25.936554 C10.8452794,25.843797 10.6836685,25.7453422 10.5220642,25.6411896 L10.5220642,4 Z" id="Path-22" fill="#951918"></path>
            <path d="M4.20030537,4.05778455 C5.48524214,4.51905204 6.59678547,5.15027161 7.53190498,5.95186573 C8.36425591,6.66536556 9.25491333,7.91244764 10.2196133,9.70067581 C10.3711576,9.9815879 10.6434323,10.5166042 10.1977053,10.9110633 C10.1865166,10.9209651 9.79307884,10.1825482 9.72259772,10.0253095 C9.79790154,10.3183298 9.97843136,10.8600212 10.0259344,11.0245336 C9.69131389,10.8774341 9.31274794,10.1180519 9.08386956,9.7117886 C8.27424801,8.2746956 7.53613625,7.27261452 6.88108406,6.71109701 C6.07383323,6.01911324 5.11394724,5.46490981 3.99873772,5.04886152 C3.99613619,4.99527538 4.01383449,4.77262758 4.07107021,4.51737618 C4.12397531,4.28143779 4.19529197,4.05598483 4.20030537,4.05778455 Z" id="Path-21" fill="#951918" transform="translate(7.220084, 7.541154) rotate(34.000000) translate(-7.220084, -7.541154) "></path>
            <path d="M19.8989765,4.11121158 C21.1514038,4.56991497 22.2372485,5.19184587 23.1536583,5.97740189 C23.9860093,6.69090172 24.8766667,7.9379838 25.8413666,9.72621197 C25.992911,10.0071241 26.2651857,10.5421404 25.8194587,10.9365995 C25.6538625,10.6324802 25.4561413,10.2807882 25.334699,10.057356 C25.4360887,10.3682301 25.6174015,10.8739445 25.6649046,11.0384569 C25.330284,10.8913574 24.9345013,10.143588 24.7056229,9.73732476 C23.8960013,8.30023176 23.1578896,7.29815068 22.5028374,6.73663317 C21.7188595,6.06459923 20.7909206,5.52251577 19.716558,5.11072607 C19.7259278,4.86071547 19.8332563,4.20168539 19.8989765,4.11121158 Z" id="Path-21" fill="#951918" transform="translate(22.889994, 7.574834) scale(-1, 1) rotate(34.000000) translate(-22.889994, -7.574834) "></path>
            <path d="M18.5220642,4 L19.5220642,4 L19.5220642,25.6328125 C19.3854651,25.7247464 19.2288235,25.8219398 19.0521393,25.9243927 C18.8754551,26.0268456 18.6987634,26.1229404 18.5220642,26.212677 L18.5220642,4 Z" id="Path-22" fill="#951918"></path>
            <path d="M8.23371887,23.6710205 L21.7732849,23.6710205 C21.541877,23.9057873 21.3653176,24.0810701 21.2436066,24.1968689 C21.1218955,24.3126677 20.948103,24.4707183 20.722229,24.6710205 L9.30160522,24.6710205 C9.11494056,24.5130211 8.93719093,24.3549706 8.76835632,24.1968689 C8.58122881,24.0216372 8.40301632,23.8463544 8.23371887,23.6710205 Z" id="Path-24" fill="#951918"></path>
            <polygon id="Path-24" fill="#951918" points="7.14709473 18.8548584 22.8826752 18.8548584 22.9563446 19.8548584 7.05451965 19.8548584"></polygon>
            <polygon id="Path-24" fill="#951918" points="7.65565491 13.5 22.4564362 13.5 22.5342255 14.5 7.55705261 14.5"></polygon>
            <path d="M6.54003906,8.17102051 L23.4890137,8.17102051" id="Path-24" stroke="#951918" stroke-linecap="round"></path>
            <path d="M6.52661133,8.15527344 C5.60611979,9.61523438 4.94331868,10.8881429 4.53820801,11.973999 C4.13309733,13.0598551 3.6800944,14.4992676 3.17919922,16.2922363" id="Path-32" stroke="#951918" stroke-linecap="round"></path>
            <path d="M26.9995117,8.15527344 C26.0790202,9.61523437 25.4162191,10.8881429 25.0111084,11.973999 C24.6059977,13.0598551 24.1529948,14.4992676 23.6520996,16.2922363" id="Path-32" stroke="#951918" stroke-linecap="round" transform="translate(25.325806, 12.223755) scale(-1, 1) translate(-25.325806, -12.223755) "></path>
            <path d="M15.0089111,8.76330566 C15.2850535,8.76330566 15.5089111,8.53944804 15.5089111,8.26330566 C15.5089111,7.98716329 15.2850535,7.76330566 15.0089111,7.76330566 C14.7327688,7.76330566 14.5089111,7.98716329 14.5089111,8.26330566 C14.5089111,8.53944804 14.7327688,8.76330566 15.0089111,8.76330566 Z" id="Oval-5" fill="#D8D8D8"></path>
            <path d="M15.0089111,13.7733154 C15.2850535,13.7733154 15.5089111,13.5494578 15.5089111,13.2733154 C15.5089111,12.9971731 15.2850535,12.7733154 15.0089111,12.7733154 C14.7327688,12.7733154 14.5089111,12.9971731 14.5089111,13.2733154 C14.5089111,13.5494578 14.7327688,13.7733154 15.0089111,13.7733154 Z" id="Oval-5" fill="#D8D8D8"></path>
            <path d="M15.0089111,18.7733154 C15.2850535,18.7733154 15.5089111,18.5494578 15.5089111,18.2733154 C15.5089111,17.9971731 15.2850535,17.7733154 15.0089111,17.7733154 C14.7327688,17.7733154 14.5089111,17.9971731 14.5089111,18.2733154 C14.5089111,18.5494578 14.7327688,18.7733154 15.0089111,18.7733154 Z" id="Oval-5" fill="#D8D8D8"></path>
            <path d="M15.0089111,24.2922363 C15.2850535,24.2922363 15.5089111,24.0683787 15.5089111,23.7922363 C15.5089111,23.516094 15.2850535,23.2922363 15.0089111,23.2922363 C14.7327688,23.2922363 14.5089111,23.516094 14.5089111,23.7922363 C14.5089111,24.0683787 14.7327688,24.2922363 15.0089111,24.2922363 Z" id="Oval-5" fill="#D8D8D8"></path>
            <polygon id="Path-35" stroke="#951918" stroke-width="0.5" fill="#951918" stroke-linejoin="round" points="9.10632324 8.5670166 10.9779053 10.6582031 12.998291 8.57421875"></polygon>
            <path d="M11.0089111,9.76330566 C11.2850535,9.76330566 11.5089111,9.53944804 11.5089111,9.26330566 C11.5089111,8.98716329 11.2850535,8.76330566 11.0089111,8.76330566 C10.7327688,8.76330566 10.5089111,8.98716329 10.5089111,9.26330566 C10.5089111,9.53944804 10.7327688,9.76330566 11.0089111,9.76330566 Z" id="Oval-5" fill="#D8D8D8"></path>
            <polygon id="Path-35" stroke="#951918" stroke-width="0.5" fill="#951918" stroke-linejoin="round" transform="translate(19.052307, 9.612610) scale(-1, 1) translate(-19.052307, -9.612610) " points="17.1063232 8.5670166 18.9779053 10.6582031 20.998291 8.57421875"></polygon>
            <path d="M19.0089111,9.76330566 C19.2850535,9.76330566 19.5089111,9.53944804 19.5089111,9.26330566 C19.5089111,8.98716329 19.2850535,8.76330566 19.0089111,8.76330566 C18.7327688,8.76330566 18.5089111,8.98716329 18.5089111,9.26330566 C18.5089111,9.53944804 18.7327688,9.76330566 19.0089111,9.76330566 Z" id="Oval-5" fill="#D8D8D8"></path>
        </g>
    </g>
</svg>