<?xml version="1.0" encoding="UTF-8"?>
<svg width="48px" height="48px" viewBox="0 0 48 48" version="1.1" xmlns="http://www.w3.org/2000/svg" xmlns:xlink="http://www.w3.org/1999/xlink">
    <!-- Generator: Sketch 51.3 (57544) - http://www.bohemiancoding.com/sketch -->
    <title>tops-maxidress</title>
    <desc>Created with Sketch.</desc>
    <defs></defs>
    <g id="SVGs" stroke="none" stroke-width="1" fill="none" fill-rule="evenodd">
        <g id="Slices" transform="translate(-118.000000, -118.000000)"></g>
        <g id="Group-4" transform="translate(13.000000, 11.000000)" fill-rule="nonzero">
            <path d="M11.0206467,26.8596705 C9.23860564,26.7690213 8.15239874,26.5321792 7.76202598,26.1491442 C7.03788805,26.6228284 5.71030184,26.6228284 3.77926736,26.1491442 C5.16152363,17.6734455 6.12704087,11.3971297 6.67581908,7.32019685 C6.69747935,7.1592804 6.29208985,7.4811133 6.31375012,7.32019685 C5.10685356,10.6359863 4.26202598,13.0044074 3.77926736,14.42546 C3.29650874,14.42546 2.21030184,13.9517758 0.520646667,13.0044074 C2.21030184,8.74124949 3.53788805,5.54388106 4.50340529,3.41230212 C5.95168115,0.214933697 7.76202598,0.214933697 8.84823287,0.214933697 C9.16996067,1.4776548 10.0634512,1.62031081 11.0206467,1.63598633 C11.9778421,1.62031081 12.8713327,1.4776548 13.1930605,0.214933697 C14.2792674,0.214933697 16.0896122,0.214933697 17.537888,3.41230212 C18.5034053,5.54388106 19.8309915,8.74124949 21.5206467,13.0044074 C19.8309915,13.9517758 18.7447846,14.42546 18.262026,14.42546 C17.7792674,13.0044074 16.9344398,10.6359863 15.7275432,7.32019685 C15.7523648,7.50459897 15.3406527,7.13579474 15.3654743,7.32019685 C15.9121449,11.3814726 16.8776622,17.6577884 18.262026,26.1491442 C16.3309915,26.6228284 15.0034053,26.6228284 14.2792674,26.1491442 C13.8888946,26.5321792 12.8026877,26.7690213 11.0206467,26.8596705 Z" id="Combined-Shape" stroke="#78F5D8" stroke-width="0.525" fill="#78F5D8" stroke-linejoin="round"></path>
            <path d="M6.30248231,23.6712672 C7.02662024,23.6712672 7.63006852,23.4344251 8.11282714,22.9607408 C8.83696507,23.6712672 9.80248231,24.0265303 11.0093789,24.0265303 C12.2162754,24.0265303 13.1817927,23.6712672 13.9059306,22.9607408 C14.3886892,23.4344251 14.9921375,23.6712672 15.7162754,23.6712672 C16.4404133,23.6712672 17.1124573,23.4344251 17.7324073,22.9607408 C17.8981214,23.9891436 18.070905,25.0549331 18.2507582,26.1581093 C16.3197237,26.6317935 14.9921375,26.6317935 14.2679995,26.1581093 C13.8776268,26.5411442 12.7914199,26.7779863 11.0093789,26.8686356 C9.22733783,26.7779863 8.14113094,26.5411442 7.75075817,26.1581093 C7.02662024,26.6317935 5.69903403,26.6317935 3.76799955,26.1581093 C3.94788843,25.0550693 4.12071908,23.9892798 4.28649151,22.9607408 C4.90634744,23.4344251 5.57834438,23.6712672 6.30248231,23.6712672 Z" id="Combined-Shape" stroke="#00B092" stroke-width="0.525" fill="#00B092" stroke-linecap="round" stroke-linejoin="round"></path>
            <path d="M4.86547425,25.0833547 C5.26540459,25.0833547 5.58961218,24.924298 5.58961218,24.7280916 C5.58961218,24.5318852 5.26540459,24.3728284 4.86547425,24.3728284 C4.46554392,24.3728284 4.14133632,24.5318852 4.14133632,24.7280916 C4.14133632,24.924298 4.46554392,25.0833547 4.86547425,25.0833547 Z" id="Oval" fill="#00FCDA"></path>
            <path d="M7.03788805,25.0833547 C7.43781838,25.0833547 7.76202598,24.924298 7.76202598,24.7280916 C7.76202598,24.5318852 7.43781838,24.3728284 7.03788805,24.3728284 C6.63795771,24.3728284 6.31375012,24.5318852 6.31375012,24.7280916 C6.31375012,24.924298 6.63795771,25.0833547 7.03788805,25.0833547 Z" id="Oval-Copy" fill="#00FCDA"></path>
            <path d="M9.21030184,25.7938811 C9.61023218,25.7938811 9.93443977,25.6348243 9.93443977,25.4386179 C9.93443977,25.2424115 9.61023218,25.0833547 9.21030184,25.0833547 C8.8103715,25.0833547 8.48616391,25.2424115 8.48616391,25.4386179 C8.48616391,25.6348243 8.8103715,25.7938811 9.21030184,25.7938811 Z" id="Oval-Copy-2" fill="#00FCDA"></path>
            <path d="M11.3827156,25.7938811 C11.782646,25.7938811 12.1068536,25.6348243 12.1068536,25.4386179 C12.1068536,25.2424115 11.782646,25.0833547 11.3827156,25.0833547 C10.9827853,25.0833547 10.6585777,25.2424115 10.6585777,25.4386179 C10.6585777,25.6348243 10.9827853,25.7938811 11.3827156,25.7938811 Z" id="Oval-Copy-3" fill="#00FCDA"></path>
            <path d="M13.5551294,25.7938811 C13.9550598,25.7938811 14.2792674,25.6348243 14.2792674,25.4386179 C14.2792674,25.2424115 13.9550598,25.0833547 13.5551294,25.0833547 C13.1551991,25.0833547 12.8309915,25.2424115 12.8309915,25.4386179 C12.8309915,25.6348243 13.1551991,25.7938811 13.5551294,25.7938811 Z" id="Oval-Copy-4" fill="#00FCDA"></path>
            <path d="M15.7275432,25.0833547 C16.1274736,25.0833547 16.4516812,24.924298 16.4516812,24.7280916 C16.4516812,24.5318852 16.1274736,24.3728284 15.7275432,24.3728284 C15.3276129,24.3728284 15.0034053,24.5318852 15.0034053,24.7280916 C15.0034053,24.924298 15.3276129,25.0833547 15.7275432,25.0833547 Z" id="Oval-Copy-5" fill="#00FCDA"></path>
            <path d="M18.1427197,24.3932842 C18.1788833,24.6038166 18.2162434,24.8205596 18.2537617,25.0381368 C18.1491391,25.0669342 18.0284568,25.0833547 17.899957,25.0833547 C17.5000267,25.0833547 17.1758191,24.924298 17.1758191,24.7280916 C17.1758191,24.5318852 17.5000267,24.3728284 17.899957,24.3728284 C17.9851103,24.3728284 18.0668308,24.3800393 18.1427197,24.3932842 Z" id="Combined-Shape" fill="#00FCDA"></path>
            <path d="M8.74213699,0.214933697 C9.22489561,1.16230212 9.94903354,1.63598633 10.9145508,1.63598633 C11.880068,1.63598633 12.604206,1.16230212 13.0869646,0.214933697" id="Path-4" stroke="#00B092" stroke-width="0.70875" stroke-linecap="round"></path>
        </g>
    </g>
</svg>