<?xml version="1.0" encoding="UTF-8"?>
<svg width="48px" height="48px" viewBox="0 0 48 48" version="1.1" xmlns="http://www.w3.org/2000/svg" xmlns:xlink="http://www.w3.org/1999/xlink">
    <!-- Generator: Sketch 51.3 (57544) - http://www.bohemiancoding.com/sketch -->
    <title>tops-hippieshirt</title>
    <desc>Created with Sketch.</desc>
    <defs></defs>
    <g id="SVGs" stroke="none" stroke-width="1" fill="none" fill-rule="evenodd">
        <g id="Slices" transform="translate(-472.000000, -118.000000)"></g>
        <g id="Group-17" transform="translate(7.000000, 12.000000)" fill-rule="nonzero" stroke-width="0.792">
            <path d="M25.0220317,23.4092636 L10.0559366,23.4092636 L10.0559366,8.39252052 C8.41928986,11.2765314 7.48223636,15.3522126 7.24477608,16.6016979 C7.0073158,17.8511832 7.0073158,19.7312989 7.24477608,22.242045 L0.747476607,19.5862838 C2.07654282,17.987891 3.02553708,16.5820991 3.5944594,15.3689079 C4.44784287,13.549121 7.01536099,5.24357629 8.03591515,2.55369862 C9.0564693,-0.136179055 11.3752639,0.795127878 13.3188136,0.795127878 C13.6772246,1.77232254 14.5258469,3.4625032 17.5389841,3.4625032 C20.5521214,3.4625032 21.4295736,1.69371885 21.7591547,0.795127878 C23.7027044,0.795127878 26.021499,-0.136179055 27.0420531,2.55369862 C28.0626073,5.24357629 30.6301254,13.549121 31.4835089,15.3689079 C32.0524312,16.5820991 33.0014255,17.987891 34.3304917,19.5862838 L27.8331922,22.242045 C28.0706525,19.7312989 28.0706525,17.8511832 27.8331922,16.6016979 C27.5957319,15.3522126 26.6586784,11.2765314 25.0220317,8.39252052 L25.0220317,23.4092636 Z" id="Combined-Shape" stroke="#FFA76C" fill="#FFA76C" stroke-linecap="round" stroke-linejoin="round"></path>
            <path d="M10.5463353,0.63923 L13.5630294,0.63923 C13.6297622,3.42355302 14.0105963,5.30899185 14.7055318,6.29554649 C15.747935,7.77537844 16.9216866,9.11245355 16.9216866,9.898826 C16.9216866,10.6851984 15.7718165,12.124381 15.7718165,13.3049075 C15.7718165,14.0919252 15.7718165,16.2100496 15.7718165,19.6592807 L9.65230244,19.6592807 L9.65230244,10.5129224 C11.4388438,9.20455995 12.2077951,7.61520042 11.9591562,5.74484382 C11.7105174,3.87448721 11.2395771,2.17261593 10.5463353,0.63923 Z" id="Path-74" stroke="#7F3D00" fill="#7F3D00" stroke-linecap="round" stroke-linejoin="round"></path>
            <path d="M18.88998,0.63923 L21.906674,0.63923 C21.9734068,3.42355302 22.3542409,5.30899185 23.0491764,6.29554649 C24.0915796,7.77537844 25.2653312,9.11245355 25.2653312,9.898826 C25.2653312,10.6851984 24.1154611,12.124381 24.1154611,13.3049075 C24.1154611,14.0919252 24.1154611,16.2100496 24.1154611,19.6592807 L17.9959471,19.6592807 L17.9959471,10.5129224 C19.7824885,9.20455995 20.5514398,7.61520042 20.3028009,5.74484382 C20.054162,3.87448721 19.5832217,2.17261593 18.88998,0.63923 Z" id="Path-74" stroke="#7F3D00" fill="#7F3D00" stroke-linecap="round" stroke-linejoin="round" transform="translate(21.630639, 10.149255) scale(-1, 1) translate(-21.630639, -10.149255) "></path>
            <rect id="Rectangle-22" stroke="#7F3D00" x="17.1395296" y="9.85944227" width="1" height="1"></rect>
            <g id="Group-34" transform="translate(12.673647, 15.671221) rotate(11.000000) translate(-12.673647, -15.671221) translate(10.486147, 13.497308)" stroke="#FC54DF">
                <path d="M2.25992809,3.70641607 C3.25921692,3.70641607 4.06930057,2.93490783 4.06930057,1.98320418 C4.06930057,1.03150054 3.25921692,0.259992296 2.25992809,0.259992296 C1.26063927,0.259992296 0.450555614,1.03150054 0.450555614,1.98320418 C0.450555614,2.93490783 1.26063927,3.70641607 2.25992809,3.70641607 Z" id="Oval-21"></path>
                <path d="M2.25508224,0.603711653 L2.25508224,1.97858908" id="Line-32" stroke-linecap="square"></path>
                <polyline id="Path-75" points="1.01712175 3.31815267 2.23376159 1.95561287 3.52392691 3.31815267"></polyline>
            </g>
            <path d="M9.65204,20.0140842 L9.65204,24.5595387" id="Line-33" stroke="#7F3D00" stroke-linecap="round"></path>
            <path d="M11.7207623,20.0140842 L11.7207623,24.5595387" id="Line-33-Copy" stroke="#7F3D00" stroke-linecap="round"></path>
            <path d="M13.7567234,20.0140842 L13.7567234,24.5595387" id="Line-33-Copy-2" stroke="#7F3D00" stroke-linecap="round"></path>
            <path d="M15.7703876,20.0140842 L15.7703876,24.5595387" id="Line-33-Copy-3" stroke="#7F3D00" stroke-linecap="round"></path>
            <path d="M19.1474009,20.0317967 L19.1474009,24.5772512" id="Line-33-Copy-4" stroke="#7F3D00" stroke-linecap="round"></path>
            <path d="M21.1116335,20.0317967 L21.1116335,24.5772512" id="Line-33-Copy-5" stroke="#7F3D00" stroke-linecap="round"></path>
            <path d="M23.1910515,20.0317967 L23.1910515,24.5772512" id="Line-33-Copy-6" stroke="#7F3D00" stroke-linecap="round"></path>
            <path d="M25.2658319,20.0317967 L25.2658319,24.5772512" id="Line-33-Copy-7" stroke="#7F3D00" stroke-linecap="round"></path>
            <path d="M11.4053493,3.04126045 C11.4396825,3.16325722 11.4679224,3.26620381 11.4901002,3.35022599 C11.5205366,3.46553672 11.5549555,3.60353647 11.5934147,3.76441197 L13.8326766,3.76441197 C13.819631,3.68634208 13.8079694,3.6131824 13.7976903,3.54491179 C13.7786524,3.41846729 13.7556171,3.2507099 13.7285208,3.04126045 L11.4053493,3.04126045 Z" id="Rectangle-23" stroke="#FC54DF" fill="#FC54DF"></path>
            <path d="M21.1410738,3.04126045 C21.1697372,3.14213744 21.1936646,3.229018 21.2128828,3.30201347 C21.2439,3.41982476 21.281697,3.57380929 21.3264029,3.76441197 L23.5599857,3.76441197 C23.5389385,3.64589452 23.5221767,3.54497477 23.5096763,3.4614478 C23.4932388,3.35161348 23.4751667,3.21170053 23.4553777,3.04126045 L21.1410738,3.04126045 Z" id="Rectangle-23-Copy" stroke="#FC54DF" fill="#FC54DF" transform="translate(22.324668, 3.402836) scale(-1, 1) translate(-22.324668, -3.402836) "></path>
        </g>
    </g>
</svg>