<?xml version="1.0" encoding="UTF-8"?>
<svg width="48px" height="48px" viewBox="0 0 48 48" version="1.1" xmlns="http://www.w3.org/2000/svg" xmlns:xlink="http://www.w3.org/1999/xlink">
    <!-- Generator: Sketch 51.3 (57544) - http://www.bohemiancoding.com/sketch -->
    <title>tops-cowboyvest</title>
    <desc>Created with Sketch.</desc>
    <defs></defs>
    <g id="SVGs" stroke="none" stroke-width="1" fill="none" fill-rule="evenodd">
        <g id="Slices" transform="translate(-413.000000, -118.000000)"></g>
        <g id="Group-47" transform="translate(8.000000, 10.000000)" fill-rule="nonzero">
            <g id="Group-16">
                <path d="M18.8937116,3.74117816 C19.5362024,3.21418318 19.9821265,2.62757904 19.9868177,2 C21.2312024,2.10522461 23.6021916,2.32543945 24.6133,3.06835938 C26.3590443,4.35105884 28.386683,9.99738742 30.6962162,20.0073451 C30.798066,20.4487816 30.5904157,20.9035415 30.1901273,21.115694 L28.0061154,22.2732607 C27.9445545,22.305888 27.8797524,22.3319923 27.8127649,22.3511485 C27.2817576,22.5029988 26.728192,22.1956313 26.5763417,21.664624 L26.5763557,21.66462 C24.7401751,15.243657 23.6510901,11.6953348 23.3091008,11.0196533 C23.2786895,11.8408267 23.8042188,15.3329076 24.8856889,21.4958959 C24.9436466,21.8261799 24.8322012,22.1635273 24.5889038,22.3942934 C21.4877777,25.3355502 18.6914876,26.8740563 16.2000335,27.0098115 L16.2000105,27.0196533 C16.1382259,27.0197711 16.0762491,27.0190047 16.0140802,27.0173541 C15.9519113,27.0190047 15.8899345,27.0197711 15.8281499,27.0196533 L15.8281269,27.0098115 C13.336291,26.8740355 10.5395257,25.3350786 7.43783082,22.392941 C7.19531445,22.1629057 7.08377245,21.82691 7.14056657,21.4975092 C8.19047846,15.4081141 8.71664281,11.9154955 8.7190596,11.0196533 C8.37699951,11.6954747 7.32918343,15.2355621 5.57561137,21.6399154 L5.57557603,21.6399057 C5.4297292,22.1725639 4.87969217,22.4861365 4.34703394,22.3402897 C4.28282871,22.3227097 4.2205394,22.2987624 4.16109303,22.2688041 L1.85998869,21.1091164 C1.4485625,20.9017764 1.23204708,20.4401698 1.33565762,19.991253 C3.6436509,9.99133587 5.67005182,4.35037132 7.41486038,3.06835938 C8.42596878,2.32543945 10.796958,2.10522461 12.0413428,2 C12.0459973,2.62268664 12.4850323,3.19847594 13.1194588,3.71952929 L13.1194588,2.22477214 C14.2275725,2.47368707 15.1944465,2.59814453 16.0200806,2.59814453 C16.8457147,2.59814453 17.7651076,2.47368707 18.7782593,2.22477214 C18.8199515,2.77237746 18.8584356,3.27784614 18.8937116,3.74117816 Z" id="Combined-Shape" fill="#B2F1E6"></path>
                <path d="M23.371442,7.79552187 C23.3814232,7.77299637 23.3914606,7.75036325 23.4015541,7.7276225 L23.4015541,2.88738636 L23.7651905,2.88738636 L23.7555468,7.29513242 L25.8965429,4.70391255 L26.0856781,5.05062866 L23.7834602,7.82286543 L24.6994939,10.3926306 L27.4192326,8.15934353 L27.5321808,8.52415466 L24.8282122,10.7537262 L24.9847933,11.1929859 L27.6882172,8.94550536 L27.7972107,9.28842163 L25.1104957,11.545621 L25.6227048,12.98253 L28.3824556,11.152476 L28.4927673,11.4996137 L25.7466788,13.3303166 L25.925534,13.8320621 L28.6776886,12.1141052 L28.7688904,12.4175415 L26.0420182,14.1588372 L26.7722243,16.2072971 L29.4348907,14.8725459 L29.5208282,15.2040558 L26.8898042,16.5371461 L27.0530502,16.9951029 L29.6746216,15.8069153 L29.7545651,16.1267883 L27.1687374,17.3196421 L27.7423216,18.9287279 L30.1263199,17.6114433 L30.2123479,17.9712071 L27.8648524,19.2724657 L28.1161912,19.9775506 L30.3936876,18.7155949 L30.4655731,19.0474548 L28.2328404,20.3047888 L28.9895703,22.4276561 L28.6471759,22.5505341 L27.912524,20.4851708 L26.4733818,21.2956048 L26.3681151,20.9461557 L27.7952235,20.1553981 L27.5443563,19.4501224 L26.1640211,20.2152668 L26.0613973,19.857527 L27.421877,19.1057904 L26.8404154,17.4710985 L25.5393718,18.0712758 L25.4395018,17.7264194 L26.7241305,17.1441809 L26.5664794,16.7009687 L25.3229943,17.3310192 L25.2251837,16.9828033 L26.4485868,16.3695313 L25.7325362,14.3564627 L24.6496537,15.0479578 L24.5365794,14.6990788 L25.6149643,14.0259267 L25.4402086,13.5346276 L24.3964377,14.2304663 L24.2859906,13.8689358 L25.316138,13.1858215 L24.8196363,11.7899817 L23.8769405,12.5819721 L23.757201,12.2135397 L24.6934404,11.4352009 L24.5365749,10.9941973 L23.6039228,11.7632205 L23.4757318,11.397511 L24.4077962,10.6321553 L23.5615571,8.25308102 C23.0036459,9.53439067 22.6351737,10.4461671 22.4773565,10.9515737 C22.4636719,10.9953985 22.4519101,11.0369233 22.4415331,11.0744778 L22.665964,11.2590988 C22.4075225,11.5753946 22.2635622,11.6888511 22.0934482,11.4996137 C21.9884831,11.3828489 22.0156277,11.2098924 22.1303533,10.8424858 C22.2897288,10.3320887 22.6493558,9.43949574 23.2105432,8.16038673 L22.0167527,8.16038673 L22.0167527,7.79552187 L23.3714418,7.79552187 Z M8.88633704,8.16038673 L9.71575833,10.0462103 L9.38307675,10.1935203 L8.50604815,8.18494273 L7.63447415,10.6352421 L8.56355477,11.3880016 L8.43266686,11.7480976 L7.50832744,10.9898846 L7.35315035,11.4261416 L8.28610263,12.2038135 L8.16083266,12.5768741 L7.22116307,11.797204 L6.74254373,13.1427704 L7.78564182,13.8211368 L7.67332693,14.182575 L6.62087916,13.484812 L6.42389301,14.038609 L7.52013425,14.7175433 L7.42222416,15.041924 L6.3064182,14.3688718 L5.58917687,16.385288 L6.86037626,17.0069183 L6.76403665,17.3352818 L5.47526115,16.7055449 L5.28163108,17.2499068 L6.62484242,17.8586119 L6.5317303,18.1636434 L5.17396799,17.5525854 L4.61407731,19.1266339 L6.0441508,19.9079154 L5.96409494,20.2403753 L4.50524062,19.4326119 L4.24371837,20.1678424 L5.74707292,21.0020188 L5.65305136,21.3881017 L4.12294627,20.507375 L3.39619246,22.5505341 L3.05379809,22.4276561 L3.80379645,20.3236727 L1.56497007,19.0350068 L1.63204137,18.7186836 L3.92281718,19.9897818 L4.1846964,19.2551275 L1.81852487,17.9449852 L1.89565214,17.6414966 L4.29302371,18.951235 L4.84445701,17.4042896 L2.24497262,16.2343971 L2.3284582,15.911613 L4.95263528,17.1008152 L5.1501617,16.5466909 L2.49663154,15.2500913 L2.58339801,14.9154294 L5.26432342,16.2264311 L5.99371693,14.1802509 L3.24194336,12.5203857 L3.34997559,12.1348419 L6.11287156,13.8459843 L6.31411567,13.2814307 L3.54660034,11.4465942 L3.65141986,11.1324948 L6.43486944,12.9426781 L6.92946681,11.5551755 L4.22808838,9.31376648 L4.35766892,8.92922746 L7.0619801,11.1834337 L7.21634849,10.7503814 L4.50234985,8.52415466 L4.60923978,8.18413707 L7.34189361,10.3981875 L8.27674054,7.77564521 L5.98815406,4.97349953 L6.17783607,4.62228072 L8.28765509,7.2209169 L8.27817791,2.90494727 L8.64181428,2.90494727 L8.64181428,7.65713008 L8.69239649,7.71943153 L8.72586248,7.79552187 L9.50274593,7.79552187 L9.50274593,8.16038673 L8.88633704,8.16038673 Z M13.8323342,22.4756304 L18.2253286,22.4756304 L18.2253286,19.2381333 L13.8323342,19.2381333 L13.8323342,22.4756304 Z M13.8323342,22.8404953 L13.8323342,23.5220549 L18.2253286,23.5220549 L18.2253286,22.8404953 L13.8323342,22.8404953 Z M13.4686978,22.4756304 L13.4686978,19.2381333 L11.0224953,19.2381333 L11.0224953,22.4756304 L13.4686978,22.4756304 Z M13.4686978,22.8405784 C12.540039,22.8412721 11.7246382,22.8410717 11.0224953,22.8399772 L11.0224953,23.5220549 L13.4686978,23.5220549 L13.4686978,22.8405784 Z M10.658859,22.4756304 L10.658859,19.2381333 L8.24190948,19.2381333 L8.24190948,18.8732684 L23.635663,18.8732684 L23.635663,19.2381333 L21.2406923,19.2381333 L21.2406923,22.4756304 L24.5019836,22.4756304 L24.1047821,22.8404953 L21.2406923,22.8404953 L21.2406923,23.5220549 L23.3368683,23.5220549 L22.8942261,23.8869198 L21.2406923,23.8869198 L21.2406923,25.1039124 L20.8770559,25.3364716 L20.8770559,23.8869198 L18.588965,23.8869198 L18.588965,26.4861298 L18.2253286,26.6111145 L18.2253286,23.8869198 L13.8323342,23.8869198 L13.8323342,26.6254578 L13.4686978,26.4957581 L13.4686978,23.8869198 L11.0224953,23.8869198 L11.0224953,25.2549133 L10.658859,25.0174255 L10.658859,23.8869198 L9.13392639,23.8869198 L8.69667053,23.5220549 L10.658859,23.5220549 L10.658859,22.839309 C9.14965083,22.8360886 8.22928948,22.8282196 7.8977749,22.8157019 C7.75703215,22.7106092 7.63487244,22.5972521 7.53129578,22.4756304 L10.658859,22.4756304 Z M20.8770559,22.4756304 L20.8770559,19.2381333 L18.588965,19.2381333 L18.588965,22.4756304 L20.8770559,22.4756304 Z M20.8770559,22.8404953 L18.588965,22.8404953 L18.588965,23.5220549 L20.8770559,23.5220549 L20.8770559,22.8404953 Z M9.32278939,15.0549784 L9.32278939,14.6901135 L22.2062103,14.6901135 L22.2062103,15.0549784 L9.32278939,15.0549784 Z M9.98158945,9.23846859 L9.98158945,8.87360372 L21.1959688,8.87360372 L21.1959688,9.23846859 L9.98158945,9.23846859 Z M8.39805312,18.1917088 L8.39805312,17.8268439 L23.2509262,17.8268439 L23.2509262,18.1917088 L8.39805312,18.1917088 Z M10.0146257,14.0085539 L10.0146257,13.643689 L22.1737762,13.643689 L22.1737762,14.0085539 L10.0146257,14.0085539 Z M10.020026,8.32630642 L10.020026,7.96144156 L21.8059671,7.96144156 L21.8059671,8.32630642 L10.020026,8.32630642 Z" id="Combined-Shape" fill="#274AAC" opacity="0.854910714"></path>
                <path d="M9.12069702,2.76177979 L13.7986799,7.24221097 L14.1083984,8.79820267 L14.1083984,19.6664157 L10.9948247,23.4744805 L7.89013672,19.3543701 C8.52457682,15.3471273 8.93440755,12.5325724 9.11962891,10.9107056 C9.39746094,8.47790527 9.79115307,7.5005914 9.62648811,6.67246319 C9.51671148,6.12037771 9.00805707,4.92896868 8.1005249,3.09823608 C8.30352875,3.01820763 8.46423432,2.95866783 8.5826416,2.9196167 C8.70104889,2.88056557 8.88040069,2.82795326 9.12069702,2.76177979 Z" id="Path-68-Copy" stroke="#E85B2F" stroke-width="0.72" fill="#E85B2F" stroke-linecap="round" stroke-linejoin="round"></path>
                <path d="M22.8837891,2.76196289 C23.1190642,2.81924544 23.292109,2.86547957 23.4029236,2.90066528 C23.5259618,2.93973223 23.7036962,3.00487709 23.9361267,3.09609985 C23.0952676,4.8485982 22.5229558,6.12037771 22.4131792,6.67246319 C22.3034025,7.22454866 22.6425781,8.2600708 22.8214722,10.1503296 C22.9407349,11.4105021 23.3837891,14.5007528 24.1506348,19.4210815 L21.0448426,23.4744805 L17.8735352,19.6664157 L17.8735352,8.79820267 L18.2409874,7.24221097 L22.8837891,2.76196289 Z" id="Path-68-Copy-2" stroke="#E85B2F" stroke-width="0.72" fill="#E85B2F" stroke-linecap="round" stroke-linejoin="round"></path>
                <path d="M9.2141243,10.3308877 L9.09261351,11.3997308 L8.87134748,12.9335643 L14.1119543,12.9335643 L14.1119543,10.3308877 L9.2141243,10.3308877 Z" id="Rectangle-21-Copy" stroke="#902818" stroke-width="0.72" fill="#902818"></path>
                <path d="M18.2715889,10.3308877 L18.1500781,11.3997308 L17.9288121,12.9335643 L23.2340552,12.9335643 L23.2340552,10.3308877 L18.2715889,10.3308877 Z" id="Rectangle-21-Copy" stroke="#902818" stroke-width="0.72" fill="#902818" transform="translate(20.553604, 11.632226) scale(-1, 1) translate(-20.553604, -11.632226) "></path>
                <path d="M9.18103027,16 L13.1810303,16 L13.1810303,18 C13.1810303,19.1045695 12.2855998,20 11.1810303,20 L11.1810303,20 C10.0764608,20 9.18103027,19.1045695 9.18103027,18 L9.18103027,16 Z" id="Rectangle-8" fill="#902818"></path>
                <path d="M18.8776855,16 L22.8776855,16 L22.8776855,18 C22.8776855,19.1045695 21.982255,20 20.8776855,20 L20.8776855,20 C19.773116,20 18.8776855,19.1045695 18.8776855,18 L18.8776855,16 Z" id="Rectangle-8" fill="#902818"></path>
                <path d="M15,4.91366577 C15.3585612,5.68563165 15.6872457,6.07161458 15.9860535,6.07161458 C16.2848612,6.07161458 16.6228434,5.68563165 17,4.91366577 L17,26.9209747 C16.6761878,26.9889577 16.3460283,27.0229492 16.0095215,27.0229492 C15.6730146,27.0229492 15.3365075,26.9889577 15,26.9209747 L15,4.91366577 Z" id="Rectangle-5" fill="#3157B2"></path>
                <path d="M10.3104501,1.56516798 L10.9545145,1.01302064 C11.3606775,0.664822886 11.9689467,0.697969949 12.3348674,1.08824168 L14.4882919,3.38497035 C14.8832485,3.80621027 15.2022526,4.29268179 15.4311567,4.82281078 L15.9626465,6.05371094 L15.9586792,6.31018066 L14.6882302,5.0573426 C14.2949899,4.66955336 13.6618403,4.67397234 13.2740511,5.06721267 C13.253642,5.08790868 13.2341449,5.10948467 13.2156154,5.1318792 L12.8621739,5.5590443 C12.6861365,5.77180104 12.3709565,5.8015679 12.1581998,5.62553045 C12.1263805,5.59920285 12.0979458,5.56903442 12.0735451,5.53571452 L10.1545068,2.91519936 C9.84574376,2.49357246 9.91369562,1.90529995 10.3104501,1.56516798 Z" id="Path-45" fill="#8EEDDD"></path>
                <path d="M16.3104501,1.56516798 L16.9545145,1.01302064 C17.3606775,0.664822886 17.9689467,0.697969949 18.3348674,1.08824168 L20.4882919,3.38497035 C20.8832485,3.80621027 21.2022526,4.29268179 21.4311567,4.82281078 L21.9626465,6.05371094 L21.9586792,6.31018066 L20.6882302,5.0573426 C20.2949899,4.66955336 19.6618403,4.67397234 19.2740511,5.06721267 C19.253642,5.08790868 19.2341449,5.10948467 19.2156154,5.1318792 L18.8621739,5.5590443 C18.6861365,5.77180104 18.3709565,5.8015679 18.1581998,5.62553045 C18.1263805,5.59920285 18.0979458,5.56903442 18.0735451,5.53571452 L16.1545068,2.91519936 C15.8457438,2.49357246 15.9136956,1.90529995 16.3104501,1.56516798 Z" id="Path-45" fill="#8EEDDD" transform="translate(18.961959, 3.541198) scale(-1, 1) translate(-18.961959, -3.541198) "></path>
                <path d="M16,9.75561523 C16.2761424,9.75561523 16.5,9.53175761 16.5,9.25561523 C16.5,8.97947286 16.2761424,8.75561523 16,8.75561523 C15.7238576,8.75561523 15.5,8.97947286 15.5,9.25561523 C15.5,9.53175761 15.7238576,9.75561523 16,9.75561523 Z" id="Oval-5" fill="#902818"></path>
                <path d="M16,14.765625 C16.2761424,14.765625 16.5,14.5417674 16.5,14.265625 C16.5,13.9894826 16.2761424,13.765625 16,13.765625 C15.7238576,13.765625 15.5,13.9894826 15.5,14.265625 C15.5,14.5417674 15.7238576,14.765625 16,14.765625 Z" id="Oval-5" fill="#902818"></path>
                <path d="M16,19.765625 C16.2761424,19.765625 16.5,19.5417674 16.5,19.265625 C16.5,18.9894826 16.2761424,18.765625 16,18.765625 C15.7238576,18.765625 15.5,18.9894826 15.5,19.265625 C15.5,19.5417674 15.7238576,19.765625 16,19.765625 Z" id="Oval-5" fill="#902818"></path>
                <path d="M16,25.2845459 C16.2761424,25.2845459 16.5,25.0606883 16.5,24.7845459 C16.5,24.5084035 16.2761424,24.2845459 16,24.2845459 C15.7238576,24.2845459 15.5,24.5084035 15.5,24.7845459 C15.5,25.0606883 15.7238576,25.2845459 16,25.2845459 Z" id="Oval-5" fill="#902818"></path>
                <path d="M1.57070699,20.1240234 L0.718566759,23.7486981 C0.613695003,24.194782 0.825444626,24.6550658 1.23242342,24.8656771 L2.30136888,25.418856 C2.76867268,25.6606856 3.3434392,25.4990229 3.61616158,25.0490486 L5.39822164,22.1087646 L1.57070699,20.1240234 Z" id="Path-48" fill="#8EEDDD" transform="translate(3.045079, 22.827450) rotate(-5.000000) translate(-3.045079, -22.827450) "></path>
                <path d="M27.4984942,20.1240234 L26.646354,23.7486981 C26.5414822,24.194782 26.7532318,24.6550658 27.1602106,24.8656771 L28.2291561,25.418856 C28.6964599,25.6606856 29.2712264,25.4990229 29.5439488,25.0490486 L31.3260088,22.1087646 L27.4984942,20.1240234 Z" id="Path-48" fill="#8EEDDD" transform="translate(28.972866, 22.827450) scale(-1, 1) rotate(-5.000000) translate(-28.972866, -22.827450) "></path>
            </g>
            <path d="M12.3169511,3.686791 L11.6612738,2.83774316 L10.6018829,3.54490662 L10.4264679,3.30284119 L11.4774269,2.59967661 L10.5281748,1.3704735 L10.7628479,1.17753601 L11.7343574,2.42777232 L12.8777576,1.66275819 L13.0786743,1.89160156 L11.9191622,2.66559781 L12.5790608,3.51482185 L13.8284051,2.69513207 L14.0433598,2.91290689 L12.764369,3.75329511 L13.6086121,4.8397522 C13.5500979,4.85934385 13.5046979,4.87856483 13.4724121,4.89741516 C13.4401263,4.91626549 13.3933327,4.95087242 13.3320312,5.00123596 L12.5016292,3.92593391 L11.410965,4.64257813 L11.2342891,4.39712119 L12.3169511,3.686791 Z" id="Combined-Shape" fill="#3157B2"></path>
            <path d="M19.764497,3.69529015 L19.1088198,2.84624231 L18.0494289,3.55340576 L17.8740139,3.31134033 L18.9249729,2.60817576 L17.9757208,1.37897265 L18.2103939,1.18603516 L19.1819033,2.43627147 L20.3253035,1.67125734 L20.5262203,1.90010071 L19.3667082,2.67409696 L20.0266068,3.523321 L21.275951,2.70363121 L21.4909058,2.92140603 L20.211915,3.76179426 L21.056158,4.84825134 C20.9976439,4.86784299 20.9522439,4.88706398 20.9199581,4.90591431 C20.8876722,4.92476463 20.8408786,4.95937157 20.7795772,5.00973511 L19.9491752,3.93443305 L18.8585109,4.65107727 L18.6818351,4.40562033 L19.764497,3.69529015 Z" id="Combined-Shape" fill="#3157B2" transform="translate(19.682460, 3.097885) scale(-1, 1) translate(-19.682460, -3.097885) "></path>
        </g>
    </g>
</svg>