<?xml version="1.0" encoding="UTF-8"?>
<svg width="48px" height="48px" viewBox="0 0 48 48" version="1.1" xmlns="http://www.w3.org/2000/svg" xmlns:xlink="http://www.w3.org/1999/xlink">
    <!-- Generator: Sketch 51.3 (57544) - http://www.bohemiancoding.com/sketch -->
    <title>tops-buttondownlongshirt</title>
    <desc>Created with Sketch.</desc>
    <defs></defs>
    <g id="SVGs" stroke="none" stroke-width="1" fill="none" fill-rule="evenodd">
        <g id="Slices" transform="translate(-295.000000, -59.000000)"></g>
        <g id="Group-16" transform="translate(8.000000, 10.000000)" fill-rule="nonzero">
            <path d="M18.8937116,3.74117816 C19.5362024,3.21418318 19.9821265,2.62757904 19.9868177,2 C21.2312024,2.10522461 23.6021916,2.32543945 24.6133,3.06835938 C26.3590443,4.35105884 28.386683,9.99738742 30.6962162,20.0073451 C30.798066,20.4487816 30.5904157,20.9035415 30.1901273,21.115694 L28.0061154,22.2732607 C27.9445545,22.305888 27.8797524,22.3319923 27.8127649,22.3511485 C27.2817576,22.5029988 26.728192,22.1956313 26.5763417,21.664624 L26.5763557,21.66462 C24.7401751,15.243657 23.6510901,11.6953348 23.3091008,11.0196533 C23.2786895,11.8408267 23.8042188,15.3329076 24.8856889,21.4958959 C24.9436466,21.8261799 24.8322012,22.1635273 24.5889038,22.3942934 C21.4877777,25.3355502 18.6914876,26.8740563 16.2000335,27.0098115 L16.2000105,27.0196533 C16.1382259,27.0197711 16.0762491,27.0190047 16.0140802,27.0173541 C15.9519113,27.0190047 15.8899345,27.0197711 15.8281499,27.0196533 L15.8281269,27.0098115 C13.336291,26.8740355 10.5395257,25.3350786 7.43783082,22.392941 C7.19531445,22.1629057 7.08377245,21.82691 7.14056657,21.4975092 C8.19047846,15.4081141 8.71664281,11.9154955 8.7190596,11.0196533 C8.37699951,11.6954747 7.32918343,15.2355621 5.57561137,21.6399154 L5.57557603,21.6399057 C5.4297292,22.1725639 4.87969217,22.4861365 4.34703394,22.3402897 C4.28282871,22.3227097 4.2205394,22.2987624 4.16109303,22.2688041 L1.85998869,21.1091164 C1.4485625,20.9017764 1.23204708,20.4401698 1.33565762,19.991253 C3.6436509,9.99133587 5.67005182,4.35037132 7.41486038,3.06835938 C8.42596878,2.32543945 10.796958,2.10522461 12.0413428,2 C12.0459973,2.62268664 12.4850323,3.19847594 13.1194588,3.71952929 L13.1194588,2.22477214 C14.2275725,2.47368707 15.1944465,2.59814453 16.0200806,2.59814453 C16.8457147,2.59814453 17.7651076,2.47368707 18.7782593,2.22477214 C18.8199515,2.77237746 18.8584356,3.27784614 18.8937116,3.74117816 Z" id="Combined-Shape" fill="#9EB4EE"></path>
            <path d="M10,9 L14,9 L14,11 C14,12.1045695 13.1045695,13 12,13 L12,13 C10.8954305,13 10,12.1045695 10,11 L10,9 Z" id="Rectangle-8" fill="#3157B2"></path>
            <path d="M15,4.91366577 C15.3585612,5.68563165 15.6872457,6.07161458 15.9860535,6.07161458 C16.2848612,6.07161458 16.6228434,5.68563165 17,4.91366577 L17,26.9209747 C16.6761878,26.9889577 16.3460283,27.0229492 16.0095215,27.0229492 C15.6730146,27.0229492 15.3365075,26.9889577 15,26.9209747 L15,4.91366577 Z" id="Rectangle-5" fill="#3157B2"></path>
            <path d="M16,9.75561523 C16.2761424,9.75561523 16.5,9.53175761 16.5,9.25561523 C16.5,8.97947286 16.2761424,8.75561523 16,8.75561523 C15.7238576,8.75561523 15.5,8.97947286 15.5,9.25561523 C15.5,9.53175761 15.7238576,9.75561523 16,9.75561523 Z" id="Oval-5" fill="#D8D8D8"></path>
            <path d="M12.0151367,10.5560303 C12.2912791,10.5560303 12.5151367,10.3321726 12.5151367,10.0560303 C12.5151367,9.7798879 12.2912791,9.55603027 12.0151367,9.55603027 C11.7389943,9.55603027 11.5151367,9.7798879 11.5151367,10.0560303 C11.5151367,10.3321726 11.7389943,10.5560303 12.0151367,10.5560303 Z" id="Oval-5" fill="#D8D8D8"></path>
            <path d="M16,14.765625 C16.2761424,14.765625 16.5,14.5417674 16.5,14.265625 C16.5,13.9894826 16.2761424,13.765625 16,13.765625 C15.7238576,13.765625 15.5,13.9894826 15.5,14.265625 C15.5,14.5417674 15.7238576,14.765625 16,14.765625 Z" id="Oval-5" fill="#D8D8D8"></path>
            <path d="M16,19.765625 C16.2761424,19.765625 16.5,19.5417674 16.5,19.265625 C16.5,18.9894826 16.2761424,18.765625 16,18.765625 C15.7238576,18.765625 15.5,18.9894826 15.5,19.265625 C15.5,19.5417674 15.7238576,19.765625 16,19.765625 Z" id="Oval-5" fill="#D8D8D8"></path>
            <path d="M16,25.2845459 C16.2761424,25.2845459 16.5,25.0606883 16.5,24.7845459 C16.5,24.5084035 16.2761424,24.2845459 16,24.2845459 C15.7238576,24.2845459 15.5,24.5084035 15.5,24.7845459 C15.5,25.0606883 15.7238576,25.2845459 16,25.2845459 Z" id="Oval-5" fill="#D8D8D8"></path>
            <path d="M10.3104501,1.56516798 L10.9545145,1.01302064 C11.3606775,0.664822886 11.9689467,0.697969949 12.3348674,1.08824168 L14.4882919,3.38497035 C14.8832485,3.80621027 15.2022526,4.29268179 15.4311567,4.82281078 L15.9626465,6.05371094 L15.9586792,6.31018066 L14.6882302,5.0573426 C14.2949899,4.66955336 13.6618403,4.67397234 13.2740511,5.06721267 C13.253642,5.08790868 13.2341449,5.10948467 13.2156154,5.1318792 L12.8621739,5.5590443 C12.6861365,5.77180104 12.3709565,5.8015679 12.1581998,5.62553045 C12.1263805,5.59920285 12.0979458,5.56903442 12.0735451,5.53571452 L10.1545068,2.91519936 C9.84574376,2.49357246 9.91369562,1.90529995 10.3104501,1.56516798 Z" id="Path-45" fill="#3157B2"></path>
            <path d="M16.3104501,1.56516798 L16.9545145,1.01302064 C17.3606775,0.664822886 17.9689467,0.697969949 18.3348674,1.08824168 L20.4882919,3.38497035 C20.8832485,3.80621027 21.2022526,4.29268179 21.4311567,4.82281078 L21.9626465,6.05371094 L21.9586792,6.31018066 L20.6882302,5.0573426 C20.2949899,4.66955336 19.6618403,4.67397234 19.2740511,5.06721267 C19.253642,5.08790868 19.2341449,5.10948467 19.2156154,5.1318792 L18.8621739,5.5590443 C18.6861365,5.77180104 18.3709565,5.8015679 18.1581998,5.62553045 C18.1263805,5.59920285 18.0979458,5.56903442 18.0735451,5.53571452 L16.1545068,2.91519936 C15.8457438,2.49357246 15.9136956,1.90529995 16.3104501,1.56516798 Z" id="Path-45" fill="#3157B2" transform="translate(18.961959, 3.541198) scale(-1, 1) translate(-18.961959, -3.541198) "></path>
            <path d="M1.57070699,20.1240234 L0.718566759,23.7486981 C0.613695003,24.194782 0.825444626,24.6550658 1.23242342,24.8656771 L2.30136888,25.418856 C2.76867268,25.6606856 3.3434392,25.4990229 3.61616158,25.0490486 L5.39822164,22.1087646 L1.57070699,20.1240234 Z" id="Path-48" fill="#3157B2" transform="translate(3.045079, 22.827450) rotate(-5.000000) translate(-3.045079, -22.827450) "></path>
            <path d="M27.4984942,20.1240234 L26.646354,23.7486981 C26.5414822,24.194782 26.7532318,24.6550658 27.1602106,24.8656771 L28.2291561,25.418856 C28.6964599,25.6606856 29.2712264,25.4990229 29.5439488,25.0490486 L31.3260088,22.1087646 L27.4984942,20.1240234 Z" id="Path-48" fill="#3157B2" transform="translate(28.972866, 22.827450) scale(-1, 1) rotate(-5.000000) translate(-28.972866, -22.827450) "></path>
        </g>
    </g>
</svg>