<?xml version="1.0" encoding="UTF-8"?>
<svg width="48px" height="48px" viewBox="0 0 48 48" version="1.1" xmlns="http://www.w3.org/2000/svg" xmlns:xlink="http://www.w3.org/1999/xlink">
    <!-- Generator: Sketch 51.3 (57544) - http://www.bohemiancoding.com/sketch -->
    <title>tops-tunic </title>
    <desc>Created with Sketch.</desc>
    <defs></defs>
    <g id="SVGs" stroke="none" stroke-width="1" fill="none" fill-rule="evenodd">
        <g id="Slices" transform="translate(-295.000000, -118.000000)"></g>
        <g id="Group-6" transform="translate(8.000000, 10.000000)" fill-rule="nonzero">
            <path d="M16.445122,6.67763158 L16.9389088,3.24342105 C18.4511039,2.73464912 18.7134146,2.09868421 18.7134146,1.33552632 C18.7134146,0.961912114 19.3250176,0.862659691 20.5482235,1.03776905 L20.5482228,1.03777378 C21.5062997,1.17492831 22.3393574,1.76587531 22.7854386,2.62478992 L30.7135612,17.8901273 L24.8233169,19.4164431 L23.6280488,14.6907895 C22.787041,10.7035939 22.282976,8.54131317 22.1158537,8.20394737 C21.8651702,7.69789866 20.6951224,7.69789866 20.9817073,9.34868421 C21.1727639,10.4492079 22.0548777,14.5193833 23.6280488,21.5592105 L23.6280488,25.8902189 C21.6117886,27.1621487 18.7134146,28.3704821 15.7835366,28.3704821 C12.8536585,28.3704821 9.95528455,27.1621487 7.93902439,25.8902189 L7.93902439,21.5592105 C9.44662032,14.8460728 10.3287341,10.7758974 10.5853659,9.34868421 C10.9703134,7.20786441 9.6522972,7.49738986 9.45121951,8.20394737 C9.22089332,9.27992566 8.71682828,11.4422064 7.93902439,14.6907895 L6.83921403,19.4164431 L0.790433542,17.8901273 L8.78048656,2.61757983 C9.22739262,1.76334425 10.0576013,1.17593238 11.0118706,1.03877017 C12.2397292,0.862283513 12.8536585,0.96120223 12.8536585,1.33552632 C12.8536585,2.09868421 13.2266248,2.73464912 14.7388199,3.24342105 L15.1219512,6.67763158 C15.3635306,7.91897427 15.584059,9.10623254 15.7835366,10.2394064 C15.9830142,9.10623254 16.2035426,7.91897427 16.445122,6.67763158 Z" id="Combined-Shape" stroke="#A3A81E" stroke-width="0.75" fill="#A3A81E" stroke-linecap="round" stroke-linejoin="round"></path>
            <path d="M16.408266,6.69012094 L16.7727879,3.22462879 C18.284983,2.71585686 18.6973639,2.10522028 18.6973639,1.34206238 C18.6973639,0.770785991 19.3577978,0.557467599 20.6501665,0.895995851 C19.864182,2.9690134 18.8989901,4.18314499 17.7879671,4.48782024 C17.6374071,6.58338059 17.8367639,6.97967502 17.528206,7.91399259 C17.3910691,8.32924485 16.8079082,9.47084891 15.7787232,11.3388048 C14.7649478,9.45973932 14.1894917,8.31258045 14.0523548,7.89732819 C13.7437969,6.96301062 13.9431537,6.56671619 13.7925937,4.47115584 C12.6815707,4.16648059 11.7330671,2.97763419 10.9470826,0.904616643 C12.2394513,0.566088391 12.8831969,0.754121593 12.8831969,1.32539798 C12.8831969,2.08855588 13.3054888,2.71585686 14.8176839,3.22462879 L15.1722948,6.67345654 C15.3860568,7.77186084 15.4782123,8.24141539 15.7787232,8.70088212 C16.1023485,8.25807979 16.1945041,7.78852524 16.408266,6.69012094 Z" id="Combined-Shape" stroke="#EFF66D" stroke-width="0.75" fill="#EFF66D" stroke-linecap="round" stroke-linejoin="round"></path>
            <polygon id="Path" stroke="#EFF66D" stroke-width="0.75" fill="#EFF66D" stroke-linecap="round" stroke-linejoin="round" points="29.40985 15.2779652 30.8109756 17.9834088 24.7461221 19.5158208 24.061472 16.6116063"></polygon>
            <path d="M23.765858,21.9426446 L23.6280488,25.9965667 C21.6117886,27.2684965 18.7134146,28.4768298 15.7835366,28.4768298 C12.8536585,28.4768298 9.95528455,27.2684965 7.93902439,25.9965667 C7.86047521,23.1212047 7.8218375,21.6345605 7.82311128,21.5366341 C7.82438505,21.4387077 7.86302275,21.2731928 7.93902439,21.0400892 C8.23558001,21.621433 8.45799672,22.0574409 8.60627453,22.3481128 C8.79404008,22.7161933 9.07568841,23.2683141 9.45121951,24.0044751 C11.4674797,25.2764049 12.8536585,25.4241983 15.7835366,25.4241983 C18.7134146,25.4241983 20.0995935,25.2764049 22.1158537,24.0044751 L23.5962662,21.2709707 L23.765858,21.9426446 Z" id="Path" stroke="#EFF66D" stroke-width="0.75" fill="#EFF66D" stroke-linecap="round" stroke-linejoin="round"></path>
            <polygon id="Path" stroke="#EFF66D" stroke-width="0.75" fill="#EFF66D" stroke-linecap="round" stroke-linejoin="round" points="7.5273295 16.5112636 6.84359273 19.5017897 0.723257555 17.9175202 2.16342102 15.2612393"></polygon>
            <ellipse id="Oval-3" fill="#F0A4F1" cx="15.7986245" cy="27.075585" rx="1.13414634" ry="1"></ellipse>
            <path d="M19.0074836,27.075585 C19.6338553,27.075585 20.1416299,26.8193269 20.1416299,26.5032165 C20.1416299,26.1871062 19.6338553,25.9308481 19.0074836,25.9308481 C18.3811118,25.9308481 17.8733372,26.1871062 17.8733372,26.5032165 C17.8733372,26.8193269 18.3811118,27.075585 19.0074836,27.075585 Z" id="Oval-3-Copy" fill="#F0A4F1" transform="translate(19.007484, 26.503217) rotate(-9.000000) translate(-19.007484, -26.503217) "></path>
            <path d="M21.918119,26.059324 C22.5444907,26.059324 23.0522653,25.803066 23.0522653,25.4869556 C23.0522653,25.1708453 22.5444907,24.9145872 21.918119,24.9145872 C21.2917472,24.9145872 20.7839726,25.1708453 20.7839726,25.4869556 C20.7839726,25.803066 21.2917472,26.059324 21.918119,26.059324 Z" id="Oval-3-Copy-3" fill="#F0A4F1" transform="translate(21.918119, 25.486956) rotate(-26.000000) translate(-21.918119, -25.486956) "></path>
            <path d="M24.3704108,23.4570201 C23.8027321,23.488364 23.3610098,23.7311316 23.3610098,24.0259658 C23.3610098,24.2175075 23.5474418,24.3870742 23.8337248,24.4909711 C23.9553363,24.2393024 24.3138226,23.5741264 24.3704108,23.4570201 Z" id="Oval-3-Copy-6" fill="#F0A4F1" transform="translate(23.865710, 23.973996) rotate(-26.000000) translate(-23.865710, -23.973996) "></path>
            <ellipse id="Oval-3-Copy-2" fill="#F0A4F1" transform="translate(12.601739, 26.503217) rotate(9.000000) translate(-12.601739, -26.503217) " cx="12.601739" cy="26.5032165" rx="1.13414634" ry="1"></ellipse>
            <path d="M9.8094634,26.059324 C10.4358351,26.059324 10.9436097,25.803066 10.9436097,25.4869556 C10.9436097,25.1708453 10.4358351,24.9145872 9.8094634,24.9145872 C9.18309167,24.9145872 8.67531706,25.1708453 8.67531706,25.4869556 C8.67531706,25.803066 9.18309167,26.059324 9.8094634,26.059324 Z" id="Oval-3-Copy-4" fill="#F0A4F1" transform="translate(9.809463, 25.486956) rotate(23.000000) translate(-9.809463, -25.486956) "></path>
            <path d="M7.72061953,24.5118815 C8.09742561,24.4188292 8.38051884,24.2339894 8.38051884,24.0080125 C8.38051884,23.6919021 7.85851191,23.4319503 7.23214018,23.4319503 C7.3772577,23.7770182 7.60426545,24.2352088 7.72061953,24.5118815 Z" id="Oval-3-Copy-5" fill="#F0A4F1" transform="translate(7.806330, 23.971916) rotate(23.000000) translate(-7.806330, -23.971916) "></path>
            <ellipse id="Oval-3" fill="#581B56" cx="15.7986245" cy="10.027162" rx="1" ry="1"></ellipse>
            <ellipse id="Oval-4" fill="#581B56" cx="14.6644782" cy="8.00329944" rx="1" ry="1"></ellipse>
            <ellipse id="Oval-4-Copy-13" fill="#581B56" cx="8.70822722" cy="19.8587821" rx="1" ry="1"></ellipse>
            <ellipse id="Oval-4-Copy-15" fill="#581B56" cx="9.46432478" cy="21.3830505" rx="1" ry="1"></ellipse>
            <ellipse id="Oval-4-Copy-16" fill="#581B56" cx="10.142441" cy="22.4745403" rx="1" ry="1"></ellipse>
            <ellipse id="Oval-4-Copy-17" fill="#581B56" cx="11.4426859" cy="23.6289904" rx="1" ry="1"></ellipse>
            <ellipse id="Oval-4-Copy-18" fill="#581B56" cx="13.0084759" cy="24.0926068" rx="1" ry="1"></ellipse>
            <ellipse id="Oval-4-Copy-19" fill="#581B56" cx="14.4973203" cy="24.1699562" rx="1" ry="1"></ellipse>
            <ellipse id="Oval-4-Copy-20" fill="#581B56" cx="16.3080253" cy="24.2417657" rx="1" ry="1"></ellipse>
            <ellipse id="Oval-4-Copy-21" fill="#581B56" cx="18.1315682" cy="24.1699562" rx="1" ry="1"></ellipse>
            <ellipse id="Oval-4-Copy-22" fill="#581B56" cx="19.7932565" cy="23.7883773" rx="1" ry="1"></ellipse>
            <ellipse id="Oval-4-Copy-23" fill="#581B56" cx="21.1169502" cy="22.8282298" rx="1" ry="1"></ellipse>
            <ellipse id="Oval-4-Copy-24" fill="#581B56" cx="22.7629515" cy="20.2383137" rx="1" ry="1"></ellipse>
            <ellipse id="Oval-4-Copy-26" fill="#581B56" cx="22.0068539" cy="21.3830505" rx="1" ry="1"></ellipse>
            <ellipse id="Oval-4-Copy-10" fill="#581B56" cx="2.35192108" cy="16.6857846" rx="1" ry="1"></ellipse>
            <ellipse id="Oval-4-Copy-11" fill="#581B56" cx="4.40081896" cy="17.1288936" rx="1" ry="1"></ellipse>
            <ellipse id="Oval-4-Copy-12" fill="#581B56" cx="6.34427499" cy="17.5519602" rx="1" ry="1"></ellipse>
            <ellipse id="Oval-4-Copy-10" fill="#581B56" transform="translate(29.389891, 16.783571) rotate(-101.000000) translate(-29.389891, -16.783571) " cx="29.3898914" cy="16.783571" rx="1" ry="1"></ellipse>
            <ellipse id="Oval-4-Copy-11" fill="#581B56" transform="translate(27.436224, 17.350658) rotate(-101.000000) translate(-27.436224, -17.350658) " cx="27.4362238" cy="17.3506585" rx="1" ry="1"></ellipse>
            <ellipse id="Oval-4-Copy-12" fill="#581B56" transform="translate(25.492770, 17.917746) rotate(-101.000000) translate(-25.492770, -17.917746) " cx="25.4927695" cy="17.917746" rx="1" ry="1"></ellipse>
            <ellipse id="Oval-4-Copy-5" fill="#581B56" cx="16.7311453" cy="8.00329944" rx="1" ry="1"></ellipse>
            <ellipse id="Oval-4-Copy" fill="#581B56" cx="14.5423915" cy="6.03647301" rx="1" ry="1"></ellipse>
            <ellipse id="Oval-4-Copy-6" fill="#581B56" cx="17.2041051" cy="6.03647301" rx="1" ry="1"></ellipse>
            <ellipse id="Oval-4-Copy-2" fill="#581B56" cx="14.1796012" cy="4.11611136" rx="1" ry="1"></ellipse>
            <ellipse id="Oval-4-Copy-7" fill="#581B56" cx="17.2041051" cy="4.11611136" rx="1" ry="1"></ellipse>
            <ellipse id="Oval-4-Copy-3" fill="#581B56" cx="12.6754983" cy="2.82561217" rx="1" ry="1"></ellipse>
            <ellipse id="Oval-4-Copy-8" fill="#581B56" cx="18.7575564" cy="2.82561217" rx="1" ry="1"></ellipse>
            <ellipse id="Oval-4-Copy-4" fill="#581B56" cx="11.8658059" cy="1.11379738" rx="1" ry="1"></ellipse>
            <ellipse id="Oval-4-Copy-9" fill="#581B56" cx="19.7434167" cy="1.11379738" rx="1" ry="1"></ellipse>
        </g>
    </g>
</svg>