<?xml version="1.0" encoding="UTF-8"?>
<svg width="48px" height="48px" viewBox="0 0 48 48" version="1.1" xmlns="http://www.w3.org/2000/svg" xmlns:xlink="http://www.w3.org/1999/xlink">
    <!-- Generator: Sketch 53.2 (72643) - https://sketchapp.com -->
    <title>tops-adiddastracksuit</title>
    <desc>Created with Sketch.</desc>
    <g id="SVGs" stroke="none" stroke-width="1" fill="none" fill-rule="evenodd">
        <g id="Slices" transform="translate(-1010.000000, -118.000000)"></g>
        <g id="Group-16" transform="translate(8.000000, 10.000000)">
            <path d="M19.8691375,2.877417 C19.943948,2.71098132 19.9854044,2.53436602 19.9868177,2.3453064 C21.2312024,2.45053101 23.0663452,2.67034912 24.0774536,3.41326904 C25.2150512,4.2491279 26.6504471,7.02193535 28.237915,11.8557129 C29.0108243,14.2091913 29.7001953,16.2289429 30.5255737,19.5770874 C30.5915445,19.8446976 30.7018109,20.5092479 30.6877747,21.3351135 C30.6834332,21.5905588 30.6455303,21.9912444 30.5740662,22.5371704 C29.3111877,23.2590129 28.3820903,23.5115662 27.7867737,23.2948303 C27.2261956,23.0907417 26.3803763,21.7446226 26.2581177,21.4155884 C24.3218994,16.2046509 23.4273831,13.2918316 23.2304687,12.5709839 C23.259291,13.2839652 23.4585392,15.6967071 23.8282134,19.8092095 C23.9934593,21.6475152 22.8794347,23.3602098 21.1319719,23.9543881 C19.4637212,24.521637 17.8197375,24.824015 16.2000208,24.861522 L16.2000105,24.8654785 C16.1384765,24.8655958 16.0769182,24.8653203 16.0153356,24.8646519 C15.9529042,24.8653219 15.890509,24.8655974 15.8281499,24.8654785 L15.8281393,24.8614121 C14.214905,24.8230871 12.585074,24.5156055 10.9386464,23.9389671 C9.20164607,23.3306142 8.10393757,21.6155222 8.27896428,19.7834116 C8.66784658,15.7127453 8.86331063,13.2982471 8.86535645,12.539917 C8.64278158,13.5316162 7.6414388,16.4823201 5.86132812,21.3920288 C5.16810469,22.7421385 4.5149268,23.4029458 3.90179443,23.3744507 C3.28866207,23.3459556 2.50136959,23.0752036 1.53991699,22.5621948 L1.52748676,22.487379 C1.33828547,21.3483584 1.39788263,20.1818799 1.7021843,19.0680732 C4.21479312,9.87140775 6.31464485,4.65327196 8.0017395,3.41366577 C9.0128479,2.67074585 10.796958,2.45053101 12.0413428,2.3453064 C12.0428159,2.54237891 12.0877984,2.72504609 12.1687142,2.89631493 L12.059082,2.35827637 C13.8741136,2.51818848 15.1944465,2.59814453 16.0200806,2.59814453 C16.8457147,2.59814453 18.1531081,2.52441406 19.9422607,2.37695312 C19.917268,2.54800646 19.8928936,2.71482776 19.8691375,2.877417 Z" id="Combined-Shape" fill="#D42F2E" fill-rule="nonzero"></path>
            <rect id="Rectangle" fill="#951718" x="12" y="0" width="8" height="3"></rect>
            <polygon id="Rectangle" fill="#951718" points="9.49353027 23.0516357 22.4935303 23.0516357 22.4935303 25.006134 9.49353027 25.006134"></polygon>
            <path d="M15,2.91366577 L17,2.91366577 L17.0124207,25.0009766 C16.6886085,25.0689596 16.358449,25.102951 16.0219421,25.102951 C15.6854353,25.102951 15.3489281,25.0689596 15.0124207,25.0009766 L15,2.91366577 Z" id="Rectangle-5" fill="#ADADAD" fill-rule="nonzero"></path>
            <path d="M15.491272,0.0130004883 L16.491272,0.0130004883 L18.2692984,3.56573572 C18.3434505,3.71390159 18.2834505,3.89412592 18.1352846,3.96827803 C18.0936019,3.98913885 18.0476317,4 18.0010204,4 L13.9732573,4 C13.8075719,4 13.6732573,3.86568542 13.6732573,3.7 C13.6732573,3.65320018 13.6842064,3.60704941 13.7052293,3.5652372 L15.491272,0.0130004883 Z" id="Rectangle" fill="#D8D8D8"></path>
            <path d="M16.0087891,3.41366577 C16.2849314,3.41366577 16.5087891,3.18980815 16.5087891,2.91366577 C16.5087891,2.6375234 16.2849314,2.41366577 16.0087891,2.41366577 C15.7326467,2.41366577 15.5087891,2.6375234 15.5087891,2.91366577 C15.5087891,3.18980815 15.7326467,3.41366577 16.0087891,3.41366577 Z" id="Oval-5" fill="#838383" fill-rule="nonzero"></path>
            <path d="M16.0087891,7.41366577 C16.2849314,7.41366577 16.5087891,7.18980815 16.5087891,6.91366577 C16.5087891,6.6375234 16.2849314,6.41366577 16.0087891,6.41366577 C15.7326467,6.41366577 15.5087891,6.6375234 15.5087891,6.91366577 C15.5087891,7.18980815 15.7326467,7.41366577 16.0087891,7.41366577 Z" id="Oval-5" fill="#838383" fill-rule="nonzero"></path>
            <path d="M16.0087891,11.4136658 C16.2849314,11.4136658 16.5087891,11.1898081 16.5087891,10.9136658 C16.5087891,10.6375234 16.2849314,10.4136658 16.0087891,10.4136658 C15.7326467,10.4136658 15.5087891,10.6375234 15.5087891,10.9136658 C15.5087891,11.1898081 15.7326467,11.4136658 16.0087891,11.4136658 Z" id="Oval-5" fill="#838383" fill-rule="nonzero"></path>
            <path d="M16.0087891,15.4136658 C16.2849314,15.4136658 16.5087891,15.1898081 16.5087891,14.9136658 C16.5087891,14.6375234 16.2849314,14.4136658 16.0087891,14.4136658 C15.7326467,14.4136658 15.5087891,14.6375234 15.5087891,14.9136658 C15.5087891,15.1898081 15.7326467,15.4136658 16.0087891,15.4136658 Z" id="Oval-5" fill="#838383" fill-rule="nonzero"></path>
            <path d="M16.0087891,19.7004395 C16.2849314,19.7004395 16.5087891,19.4765818 16.5087891,19.2004395 C16.5087891,18.9242971 16.2849314,18.7004395 16.0087891,18.7004395 C15.7326467,18.7004395 15.5087891,18.9242971 15.5087891,19.2004395 C15.5087891,19.4765818 15.7326467,19.7004395 16.0087891,19.7004395 Z" id="Oval-5" fill="#838383" fill-rule="nonzero"></path>
            <path d="M16.0087891,23.7785645 C16.2849314,23.7785645 16.5087891,23.5547068 16.5087891,23.2785645 C16.5087891,23.0024221 16.2849314,22.7785645 16.0087891,22.7785645 C15.7326467,22.7785645 15.5087891,23.0024221 15.5087891,23.2785645 C15.5087891,23.5547068 15.7326467,23.7785645 16.0087891,23.7785645 Z" id="Oval-5" fill="#838383" fill-rule="nonzero"></path>
            <path d="M12.0205688,2.99536133 C9.89729379,3.49479265 9.18068262,4.75691826 8.63424446,5.94767574 C6.93568668,9.64904682 4.97960406,15.0612836 2.76913077,22.1792933 L1.81412118,21.8827184 C4.03626508,14.7271278 6.00563819,9.2781179 7.72537468,5.53059574 C8.38394849,4.09548057 9.82924637,3.09819843 12.0197862,2.51827275 C12.0212845,2.61548626 12.0215454,2.77451579 12.0205688,2.99536133 Z" id="Path-332" fill="#FFFFFF" fill-rule="nonzero"></path>
            <path d="M30.220612,2.99536133 C28.097337,3.49479265 27.3807258,4.75691826 26.8342876,5.94767574 C25.1357298,9.64904682 23.1796472,15.0612836 20.9691739,22.1792933 L20.0141643,21.8827184 C22.2363082,14.7271278 24.2056814,9.2781179 25.9254178,5.53059574 C26.5839917,4.09548057 28.0292895,3.09819843 30.2198293,2.51827275 C30.2213277,2.61548626 30.2215886,2.77451579 30.220612,2.99536133 Z" id="Path-332" fill="#FFFFFF" fill-rule="nonzero" transform="translate(25.117677, 12.348783) scale(-1, 1) translate(-25.117677, -12.348783) "></path>
            <rect id="Rectangle" fill="#951718" transform="translate(2.966790, 22.679184) rotate(21.000000) translate(-2.966790, -22.679184) " x="0.966790213" y="22.179184" width="4" height="1"></rect>
            <polygon id="Rectangle" fill="#951718" transform="translate(29.093639, 22.679184) scale(-1, 1) rotate(21.000000) translate(-29.093639, -22.679184) " points="27.0936393 22.179184 31.0936393 22.179184 31.0936393 23.179184 27.0936393 23.179184"></polygon>
        </g>
        <circle id="Oval" fill="#FFFFFF" cx="28.5" cy="19.5" r="1.5"></circle>
        <path d="M19.2199623,27.8912354 C19.3888262,29.3983154 18.9004636,30.5806885 17.7548744,31.4383545" id="Path-333" stroke="#951718"></path>
        <path d="M30.2199623,27.8912354 C30.3888262,29.3983154 29.9004636,30.5806885 28.7548744,31.4383545" id="Path-333" stroke="#951718" transform="translate(29.503688, 29.664795) scale(-1, 1) translate(-29.503688, -29.664795) "></path>
    </g>
</svg>