<?xml version="1.0" encoding="UTF-8"?>
<svg width="48px" height="48px" viewBox="0 0 48 48" version="1.1" xmlns="http://www.w3.org/2000/svg" xmlns:xlink="http://www.w3.org/1999/xlink">
    <!-- Generator: Sketch 51.3 (57544) - http://www.bohemiancoding.com/sketch -->
    <title>tops-croptopblouse</title>
    <desc>Created with Sketch.</desc>
    <defs></defs>
    <g id="SVGs" stroke="none" stroke-width="1" fill="none" fill-rule="evenodd">
        <g id="Slices" transform="translate(-177.000000, -118.000000)"></g>
        <g id="Group-5" transform="translate(9.000000, 15.000000)" fill-rule="nonzero">
            <path d="M0.413522226,6.28448879 L6.54179116,1.03640105 C7.2218167,0.454045133 8.07237761,0.107953594 8.96581082,0.0500722865 L9.62210783,0.00755391106 L20.1036824,0 L20.960028,0.0532971501 C21.8562515,0.109076212 22.7100092,0.454876638 23.3924364,1.0385039 L29.5075126,6.26825574 C29.7209652,6.45080523 29.7497315,6.77033707 29.5723152,6.98807498 L26.6575772,10.5652499 C26.3236974,10.9750112 25.7346184,11.0671716 25.2915424,10.7789637 L22.8687471,9.20300666 L23.2666356,16.0326724 C23.2944538,16.5101924 22.9802208,16.9405488 22.5169073,17.0594595 C19.9473948,17.7189319 17.4076665,18.0424958 14.8977225,18.0301514 C12.3902255,18.0178189 9.88783974,17.6701117 7.39056539,16.9870295 L7.39055861,16.9870543 C6.93462832,16.8623431 6.62828147,16.4354378 6.65611381,15.9635791 L7.05421889,9.21425892 L4.63922531,10.7819701 C4.19737641,11.0687996 3.61055079,10.9777901 3.27633556,10.5706024 L0.350152848,7.00551784 C0.171586452,6.78796331 0.199745754,6.46756132 0.413522226,6.28448879 Z" id="Rectangle-7" fill="#A3A81E"></path>
            <path d="M10,0.00365576507 C10.6480252,0.00121858836 11.0153155,0.00121858836 11.1018711,0.00365576507 C11.5684211,1.53335263 13.0148064,2.60869565 14.6796549,2.60869565 C16.3432674,2.60869565 17.7895473,1.53486452 18.2569355,0.00528226143 C18.3624572,0.00528226143 18.7273817,0.00352150762 19.351709,0 C19.3487609,0.0107373053 19.3097466,0.198832854 19.3067243,0.209536899 C18.7369689,2.22747075 16.8527939,3.65217391 14.6796549,3.65217391 C12.4933333,3.65217391 10.6005895,2.2102715 10.0430289,0.175186662 C10.0404484,0.165767943 10.0025232,0.0130998117 10,0.00365576507 Z" id="Oval-34" fill="#EFF66D"></path>
            <polygon id="Star" fill="#EFF66D" points="14.7754358 12.0869565 12.0785387 13.4573797 12.5936002 10.5547768 10.4117647 8.49914202 13.4269873 8.07565797 14.7754358 5.43478261 16.1238843 8.07565797 19.1391069 8.49914202 16.9572713 10.5547768 17.4723328 13.4573797"></polygon>
        </g>
    </g>
</svg>