<?xml version="1.0" encoding="utf-8"?>
<!-- Generator: Adobe Illustrator 22.1.0, SVG Export Plug-In . SVG Version: 6.00 Build 0)  -->
<svg version="1.1" id="Layer_1" xmlns="http://www.w3.org/2000/svg" xmlns:xlink="http://www.w3.org/1999/xlink" x="0px" y="0px"
	 viewBox="0 0 48 48" style="enable-background:new 0 0 48 48;" xml:space="preserve">
<style type="text/css">
	.st0{fill:#373740;}
	.st1{fill:#FFFFFF;}
	.st2{fill:#57575B;}
</style>
<title>tops-businesssuit</title>
<desc>Created with Sketch.</desc>
<g id="SVGs">
	<g id="Slices" transform="translate(-531.000000, -59.000000)">
	</g>
	<g id="Group-18" transform="translate(9.000000, 9.000000)">
		<path id="Combined-Shape" class="st0" d="M15.4,25.8c-0.4,0.9-0.7,1.5-0.9,1.9c-0.1,0.3-0.1,0.4-0.3,0.5c-0.2,0.1-0.4,0.1-0.6,0.1
			c-1.3-0.1-3.3-0.8-5.8-2.3l0,0c-0.4-0.2-0.6-0.6-0.5-1.1c1.2-5.2,1.8-8.1,1.7-8.6c-0.9-3.6-1.2-6-1.2-6.6
			c-0.2,0.8-1.5,5.7-3.8,14.6l0,0c-0.1,0.5-0.7,0.8-1.2,0.7c0,0,0,0,0,0l-1.3-0.4c-0.5-0.1-0.7-0.6-0.7-1C2.4,11.3,3.8,4.7,5.1,3.9
			C5.9,3.2,9.6,1.8,11,1.2c0.2-0.1,0.3,0,0.5,0.1s0.2,0.2,0.2,0.4c0.2,0.8,2.1,15.1,3.2,15.7c0.6,0.4,0.2,0.5,0.5,0.5
			c0.4,0,0-0.1,0.6-0.5c1.1-0.7,2.9-15,3.1-15.7c0.1-0.2,0.1-0.3,0.2-0.4c0.1-0.1,0.3-0.2,0.5-0.1c1.3,0.6,5,2,5.9,2.7
			c1.2,0.9,2.6,7.5,4.1,19.8c0.1,0.5-0.2,0.9-0.7,1L28,25.1c0,0,0,0,0,0c-0.5,0.1-1-0.2-1.2-0.7l0,0c-2.3-9-3.6-13.8-3.8-14.6
			c0,0.7-0.2,3.1-1.2,6.6c-0.1,0.5,0.4,3.4,1.7,8.6c0.1,0.4-0.1,0.9-0.5,1.1l0,0c-2.6,1.4-4.5,2.2-5.8,2.3c-0.2,0-0.4,0-0.6-0.1
			c-0.2-0.1-0.2-0.3-0.3-0.5C16.1,27.3,15.9,26.7,15.4,25.8z"/>
		<path id="Path-18" class="st1" d="M11.7,0.5c1.1,0.3,2.3,0.4,3.7,0.4S18,0.8,19,0.5c-0.3,8.2-0.5,12.5-0.6,13
			c-0.2,0.5-1.2,1.9-3,4.2L12.7,13L11.7,0.5z"/>
		<path id="Rectangle-21" d="M15,3l-1.1-1.8c-0.1-0.1,0-0.2,0.1-0.3c0,0,0.1,0,0.1,0l2.8,0C17,0.9,17,1,17,1.1c0,0,0,0.1,0,0.1L16,3
			l0.9,13.4L15.4,18L14,16.5L15,3z"/>
		<path id="Path-51" class="st2" d="M15.4,18.7c-0.2,0-0.5-0.2-0.8-0.7C12,12.8,10.4,9.9,10,9C9.6,8.2,9.6,7.5,10,7
			c0.4-0.5,0.7-0.9,0.8-1s0-0.3-0.2-0.6c-1-0.8-1.2-1.7-0.9-2.8c0.6-1.5,1.1-1.7,1.8-2.1c0.3-0.2,0.5-0.1,0.6,0
			c0.1,0.1,0.2,0.3,0.2,0.6c0.5,6.9,1.5,12.4,3,16.5C15.6,17.8,15.8,18.7,15.4,18.7z"/>
		<path id="Path-51_1_" class="st2" d="M15.4,18.7c0.2,0,0.5-0.2,0.8-0.7c2.7-5.1,4.2-8.1,4.6-8.9c0.4-0.8,0.4-1.5,0-2.1
			c-0.4-0.5-0.7-0.9-0.8-1s0-0.3,0.2-0.6c1-0.8,1.2-1.7,0.9-2.8c-0.6-1.5-1.1-1.7-1.8-2.1c-0.3-0.2-0.5-0.1-0.6,0
			c-0.1,0.1-0.2,0.3-0.2,0.6C18,8,17,13.5,15.4,17.7C15.2,17.8,15.1,18.7,15.4,18.7z"/>
	</g>
</g>
</svg>
