<?xml version="1.0" encoding="UTF-8"?>
<svg width="48px" height="48px" viewBox="0 0 48 48" version="1.1" xmlns="http://www.w3.org/2000/svg" xmlns:xlink="http://www.w3.org/1999/xlink">
    <!-- Generator: Sketch 51.3 (57544) - http://www.bohemiancoding.com/sketch -->
    <title>tops-labcoat</title>
    <desc>Created with Sketch.</desc>
    <defs></defs>
    <g id="SVGs" stroke="none" stroke-width="1" fill="none" fill-rule="evenodd">
        <g id="Slices" transform="translate(-236.000000, -59.000000)"></g>
        <g id="Group-13" transform="translate(9.000000, 10.000000)" fill-rule="nonzero">
            <path d="M15.5681194,28.000065 C14.7155419,28.0001344 12.2204659,28.0001212 8.08289135,28.0000252 L8.08289135,28.000007 C7.54966094,27.9999947 7.11740232,27.567716 7.11741469,27.0344856 C7.1174153,27.0080279 7.11850345,26.9815813 7.12067638,26.955213 C7.955893,16.8199335 8.46611564,11.3750924 8.6513443,10.6206897 C8.31830793,11.2137387 7.68485511,13.7958662 6.75098582,18.3670722 C6.6442497,18.8895191 6.13419817,19.2265225 5.61175057,19.1197897 C5.53399103,19.1039039 5.45848685,19.078491 5.38694687,19.0441263 L2.69331032,17.750222 C2.2869357,17.555017 2.06974029,17.1045708 2.17006267,16.6650474 C3.96846357,8.78605681 5.70774311,4.23136652 7.38790131,3.00097656 C8.36741257,2.28367457 10.6643084,2.01365504 11.8698061,1.91205886 C11.8797781,3.24166147 13.9478504,8.9915452 15.5698384,9.82783346 C17.1918264,8.9915452 19.2598986,3.24166147 19.2698706,1.91205886 C20.4753684,2.01365504 22.7722642,2.28367457 23.7517754,3.00097656 C25.4319336,4.23136652 27.1712132,8.78605681 28.9696141,16.6650474 C29.0699364,17.1045708 28.852741,17.555017 28.4463664,17.750222 L25.7527299,19.0441263 C25.6811899,19.078491 25.6056857,19.1039039 25.5279262,19.1197897 C25.0054786,19.2265225 24.495427,18.8895191 24.3886909,18.3670722 C23.4548216,13.7958662 22.8213688,11.2137387 22.4883324,10.6206897 C22.673598,11.3752426 23.1518879,16.8221025 23.9232021,26.9612691 C23.9250553,26.9856306 23.9259832,27.0100536 23.9259838,27.0344854 C23.9259963,27.5677338 23.4937233,28.0000271 22.960475,28.0000396 L22.960475,28.0000253 C18.8749487,28.0001212 16.4108302,28.0001344 15.5681193,28.000065 Z" id="Combined-Shape" fill="#DDDDDD"></path>
            <path d="M12.6274654,1.93103448 C13.7665058,2.17136614 14.7359425,2.29153197 15.5357755,2.29153197 C16.2724507,2.29153197 17.130335,2.17136614 18.1094284,1.93103448 C18.371877,5.5113371 18.5031013,7.30148842 18.5031013,7.30148842 C18.5031013,7.30148842 17.4686898,8.15645205 15.3998666,9.86637931 L12.6274654,7.30148842 L12.6274654,1.93103448 Z" id="Path-18" fill="#E1E1E1"></path>
            <path d="M1.99580501,16.8466439 L6.43211251,16.9222841 C6.95885937,16.9312653 7.38116982,17.3608376 7.38116982,17.887661 L7.38116982,17.903983 C7.38116982,18.4282091 6.95620063,18.8531783 6.43197457,18.8531783 C6.42658038,18.8531783 6.42118629,18.8531323 6.41579289,18.8530403 L1.97948539,18.7774001 C1.45273853,18.7684189 1.03042808,18.3388466 1.03042808,17.8120232 L1.03042808,17.7957012 C1.03042808,17.2714751 1.45539727,16.8465059 1.97962333,16.8465059 C1.98501752,16.8465059 1.99041161,16.8465519 1.99580501,16.8466439 Z" id="Rectangle-6" fill="#939393" transform="translate(4.205799, 17.849842) scale(-1, 1) rotate(-20.000000) translate(-4.205799, -17.849842) "></path>
            <path d="M24.7254025,16.8466439 L29.16171,16.9222841 C29.6884568,16.9312653 30.1107673,17.3608376 30.1107673,17.887661 L30.1107673,17.903983 C30.1107673,18.4282091 29.6857981,18.8531783 29.161572,18.8531783 C29.1561779,18.8531783 29.1507838,18.8531323 29.1453904,18.8530403 L24.7090829,18.7774001 C24.182336,18.7684189 23.7600256,18.3388466 23.7600256,17.8120232 L23.7600256,17.7957012 C23.7600256,17.2714751 24.1849947,16.8465059 24.7092208,16.8465059 C24.714615,16.8465059 24.7200091,16.8465519 24.7254025,16.8466439 Z" id="Rectangle-6" fill="#939393" transform="translate(26.935396, 17.849842) rotate(-20.000000) translate(-26.935396, -17.849842) "></path>
            <path d="M15.2816213,15.4792733 C15.5491342,15.4792733 15.7659963,15.2631349 15.7659963,14.9965147 C15.7659963,14.7298945 15.5491342,14.5137561 15.2816213,14.5137561 C15.0141084,14.5137561 14.7972463,14.7298945 14.7972463,14.9965147 C14.7972463,15.2631349 15.0141084,15.4792733 15.2816213,15.4792733 Z" id="Oval-5" fill="#FFFFFF"></path>
            <path d="M15.2816213,20.3068595 C15.5491342,20.3068595 15.7659963,20.0907211 15.7659963,19.8241009 C15.7659963,19.5574807 15.5491342,19.3413423 15.2816213,19.3413423 C15.0141084,19.3413423 14.7972463,19.5574807 14.7972463,19.8241009 C14.7972463,20.0907211 15.0141084,20.3068595 15.2816213,20.3068595 Z" id="Oval-5" fill="#FFFFFF"></path>
            <path d="M15.2816213,25.1344457 C15.5491342,25.1344457 15.7659963,24.9183073 15.7659963,24.6516871 C15.7659963,24.3850669 15.5491342,24.1689285 15.2816213,24.1689285 C15.0141084,24.1689285 14.7972463,24.3850669 14.7972463,24.6516871 C14.7972463,24.9183073 15.0141084,25.1344457 15.2816213,25.1344457 Z" id="Oval-5" fill="#FFFFFF"></path>
            <path d="M15.5,9.6679014 C14.3510284,7.64124237 13.465215,4.93519329 12.8425598,1.54975418 C12.7452491,1.02066599 12.4347887,0.831852677 11.9111786,0.983314251 C11.1621869,1.21216101 10.4956195,1.58055518 9.91147614,2.08849677 C9.26220359,2.65307144 9.84560776,2.79000539 10.3664055,2.79000539 C10.6544636,2.79000539 11.0579745,2.8316109 11.5769382,2.91482191 C11.6834852,2.93190573 11.7657242,2.93190573 11.7657242,2.97634362 C11.7657242,3.0207815 11.7346526,3.04275837 11.6515078,3.08148555 C11.1915024,3.2957468 10.835941,3.57153822 10.5848236,3.90885978 C10.1400642,4.50629714 10.3536324,4.72171261 10.5848236,5.0998451 C11.2078025,6.11877902 11.834549,7.19423491 15.5,11.6942854 C15.5,10.8547223 15.5,10.179261 15.5,9.6679014 Z" id="Path-36" fill="#939393"></path>
            <path d="M21.3125,9.6679014 C20.1635284,7.64124237 19.277715,4.93519329 18.6550598,1.54975418 C18.5577491,1.02066599 18.2472887,0.831852677 17.7236786,0.983314251 C16.9746869,1.21216101 16.3081195,1.58055518 15.7239761,2.08849677 C15.0747036,2.65307144 15.6581078,2.79000539 16.1789055,2.79000539 C16.4669636,2.79000539 16.8704745,2.8316109 17.3894382,2.91482191 C17.4959852,2.93190573 17.5782242,2.93190573 17.5782242,2.97634362 C17.5782242,3.0207815 17.5471526,3.04275837 17.4640078,3.08148555 C17.0040024,3.2957468 16.648441,3.57153822 16.3973236,3.90885978 C15.9525642,4.50629714 16.1661324,4.72171261 16.3973236,5.0998451 C17.0203025,6.11877902 17.647049,7.19423491 21.3125,11.6942854 C21.3125,10.8547223 21.3125,10.179261 21.3125,9.6679014 Z" id="Path-36" fill="#939393" transform="translate(18.374682, 6.313518) scale(-1, 1) translate(-18.374682, -6.313518) "></path>
            <path d="M11.1488241,10.0812792 L11.1488241,11.9038816" id="Path-39" stroke="#4A90E2" stroke-width="0.965517241" stroke-linecap="round"></path>
            <path d="M12.1175741,9.11576194 L12.1175741,11.9038816" id="Path-39" stroke="#F5A623" stroke-width="0.965517241" stroke-linecap="round"></path>
            <path d="M12.3303947,6.84461993 L16.4591713,12.1706403 C16.5975304,12.3262168 16.6667099,12.9746356 16.6667099,14.1158966 C16.6667099,14.7983118 16.6667099,19.4263462 16.6667099,28" id="Path-38" stroke="#939393" stroke-width="0.965517241"></path>
            <path d="M9.6875,10.6206897 L13.5625,10.6206897 L13.5625,11.5862069 C13.5625,12.6526878 12.6979464,13.5172414 11.6314655,13.5172414 L11.6185345,13.5172414 C10.5520536,13.5172414 9.6875,12.6526878 9.6875,11.5862069 L9.6875,10.6206897 Z" id="Rectangle-8" fill="#939393"></path>
            <path d="M9.6875,18.3448276 L13.5625,18.3448276 L13.5625,18.3448276 C13.5625,18.878068 13.1302232,19.3103448 12.5969828,19.3103448 L10.6530172,19.3103448 C10.1197768,19.3103448 9.6875,18.878068 9.6875,18.3448276 Z" id="Rectangle-13" fill="#939393"></path>
            <path d="M18.40625,18.3448276 L22.28125,18.3448276 L22.28125,18.3448276 C22.28125,18.878068 21.8489732,19.3103448 21.3157328,19.3103448 L19.3717672,19.3103448 C18.8385268,19.3103448 18.40625,18.878068 18.40625,18.3448276 Z" id="Rectangle-13" fill="#939393"></path>
        </g>
    </g>
</svg>