<?xml version="1.0" encoding="UTF-8"?>
<svg width="48px" height="48px" viewBox="0 0 48 48" version="1.1" xmlns="http://www.w3.org/2000/svg" xmlns:xlink="http://www.w3.org/1999/xlink">
    <!-- Generator: Sketch 51.3 (57544) - http://www.bohemiancoding.com/sketch -->
    <title>tops-hawaiianshirt</title>
    <desc>Created with Sketch.</desc>
    <defs></defs>
    <g id="SVGs" stroke="none" stroke-width="1" fill="none" fill-rule="evenodd">
        <g id="Slices" transform="translate(-118.000000, -59.000000)"></g>
        <g id="Group-7" transform="translate(10.000000, 11.000000)" fill-rule="nonzero">
            <path d="M11.5446777,2.05712891 C12.375683,2.26220703 13.2063714,2.36474609 14.0367432,2.36474609 C14.8015456,2.36474609 15.5660313,2.26220703 16.3302002,2.05712891 C16.7069092,5.76529948 16.8952637,7.61938477 16.8952637,7.61938477 C16.8952637,7.61938477 15.9301758,8.42704264 14,10.0423584 L10.7952881,7.61938477 L11.5446777,2.05712891 Z" id="Path-18" fill="#3157B2"></path>
            <path d="M0.176731719,8.17072326 L6.10045507,3.10383497 C6.75761242,2.54173193 7.5792356,2.20773322 8.44219414,2.1518927 L10.7518121,2.00244141 C10.9641621,2.95082515 11.3700052,3.66184403 11.9693414,4.13549805 C12.8419436,4.82511363 13.3093862,5.09124792 14.1534068,5.09767729 C14.9974274,5.10410666 15.4761456,4.90002753 16.459921,4.11206055 C17.0118009,3.67002558 17.3911954,2.9660054 17.5981046,2 L20.0213734,2.13882208 C20.8960108,2.18892753 21.7300113,2.52479087 22.3952678,3.09482163 L28.3007329,8.15497047 C28.5068504,8.33158401 28.5344133,8.64038896 28.3628327,8.85071456 L25.5451243,12.304696 C25.2224152,12.7002768 24.6535451,12.7892642 24.225448,12.5111307 L21.8828257,10.9891357 L22.68597,23.5862616 C22.718727,24.1000299 22.3560584,24.5547127 21.8478665,24.637004 C19.0340737,25.0926401 16.4951825,25.3250483 14.2311931,25.3342285 C11.9692946,25.3434002 9.43359201,25.1297692 6.62408544,24.6933353 L6.62408616,24.6933306 C6.11263748,24.6138813 5.74633366,24.1572937 5.77966687,23.6407854 L6.5954485,11 L4.26036878,12.5140321 C3.83345868,12.7908344 3.26676591,12.7029589 2.94373477,12.3098652 L0.115436562,8.86813456 C-0.0574449116,8.65775665 -0.0301959266,8.34771992 0.176731719,8.17072326 Z" id="Rectangle-7" fill="#3157B2"></path>
            <path d="M13.8088379,8.59912109 C12.3058268,6.10571289 11.5543213,3.80647786 11.5543213,1.70141602 C11.5543213,-0.196044922 10.163208,0.153930664 9.69848633,0.323974609 C9.23376465,0.494018555 8.28991699,0.947265625 7.21240234,1.93908691 C7.99951172,2.45214844 9.1652832,2.98730469 10.1373291,4.67993164 C9.27770996,4.67993164 8.64213053,4.96219889 8.23059082,5.5267334 C9.79073079,7.3232015 11.6501465,8.55908203 13.8088379,9.234375 C13.8088379,9.05045573 13.8088379,8.83870443 13.8088379,8.59912109 Z" id="Path-16" stroke="#132F71" stroke-width="0.5" fill="#132F71" stroke-linecap="round" stroke-linejoin="round"></path>
            <path d="M20.8088379,8.59912109 C19.3058268,6.10571289 18.5543213,3.80647786 18.5543213,1.70141602 C18.5543213,-0.196044922 17.163208,0.153930664 16.6984863,0.323974609 C16.2337646,0.494018555 15.289917,0.947265625 14.2124023,1.93908691 C14.9995117,2.45214844 16.1652832,2.98730469 17.1373291,4.67993164 C16.27771,4.67993164 15.6421305,4.96219889 15.2305908,5.5267334 C16.7907308,7.3232015 18.6501465,8.55908203 20.8088379,9.234375 C20.8088379,9.05045573 20.8088379,8.83870443 20.8088379,8.59912109 Z" id="Path-16" stroke="#132F71" stroke-width="0.5" fill="#132F71" stroke-linecap="round" stroke-linejoin="round" transform="translate(17.510620, 4.708875) scale(-1, 1) translate(-17.510620, -4.708875) "></path>
            <polygon id="Rectangle-5" fill="#132F71" points="13 8 15 8 15 25.2973633 14.0095215 25.2973633 13 25.2973633"></polygon>
            <path d="M14,9.51306152 C14.2761424,9.51306152 14.5,9.2892039 14.5,9.01306152 C14.5,8.73691915 14.2761424,8.51306152 14,8.51306152 C13.7238576,8.51306152 13.5,8.73691915 13.5,9.01306152 C13.5,9.2892039 13.7238576,9.51306152 14,9.51306152 Z" id="Oval-5" fill="#D8D8D8"></path>
            <path d="M7.68614358,10.3518122 C8.63528095,10.3381404 9.38088642,10.5546117 9.92295999,11.0012263" id="Path-19" stroke="#F5CD2E" stroke-width="0.5" stroke-linecap="round" transform="translate(8.804552, 10.851203) scale(-1, 1) rotate(99.000000) translate(-8.804552, -10.851203) "></path>
            <path d="M14,17.5230713 C14.2761424,17.5230713 14.5,17.2992137 14.5,17.0230713 C14.5,16.7469289 14.2761424,16.5230713 14,16.5230713 C13.7238576,16.5230713 13.5,16.7469289 13.5,17.0230713 C13.5,17.2992137 13.7238576,17.5230713 14,17.5230713 Z" id="Oval-5" fill="#D8D8D8"></path>
            <path d="M14,24.0419922 C14.2761424,24.0419922 14.5,23.8181346 14.5,23.5419922 C14.5,23.2658498 14.2761424,23.0419922 14,23.0419922 C13.7238576,23.0419922 13.5,23.2658498 13.5,23.5419922 C13.5,23.8181346 13.7238576,24.0419922 14,24.0419922 Z" id="Oval-5" fill="#D8D8D8"></path>
            <path d="M7.41221475,10.2944523 L7.41221475,10.2944523 C7.25968779,10.3784199 7.06797104,10.3228416 6.9840034,10.1703146 C6.94856326,10.1059377 6.93672635,10.0312024 6.95053837,9.95902474 L6.95053837,9.95902474 C7.02905522,9.54871797 6.89196084,9.12678486 6.58726711,8.84099075 L6.58726711,8.84099075 C6.46027572,8.72187642 6.4538901,8.52236831 6.57300444,8.39537692 C6.62327892,8.34177778 6.69069857,8.30742575 6.76361179,8.29825762 L6.76361179,8.29825762 C7.17809977,8.24613981 7.5370175,7.98537082 7.71466831,7.60727462 L7.71466831,7.60727462 C7.78871027,7.44969028 7.9764805,7.3819658 8.13406484,7.45600777 C8.20057633,7.48725859 8.25408086,7.54076313 8.28533169,7.60727462 L8.28533169,7.60727462 C8.4629825,7.98537082 8.82190023,8.24613981 9.23638821,8.29825762 L9.23638821,8.29825762 C9.40914005,8.31997948 9.53157404,8.47763156 9.50985219,8.6503834 C9.50068406,8.72329662 9.46633204,8.79071627 9.41273289,8.84099075 L9.41273289,8.84099075 C9.10803916,9.12678486 8.97094478,9.54871797 9.04946163,9.95902474 L9.04946163,9.95902474 C9.08218617,10.1300339 8.97008432,10.2951927 8.79907513,10.3279173 C8.72689743,10.3417293 8.65216217,10.3298924 8.58778525,10.2944523 L8.58778525,10.2944523 C8.22182336,10.0929865 7.77817664,10.0929865 7.41221475,10.2944523 Z" id="Star" fill="#DE74DD" transform="translate(8.000000, 9.000000) rotate(20.000000) translate(-8.000000, -9.000000) "></path>
            <circle id="Oval-9" fill="#E98734" cx="6.5" cy="5.5" r="1"></circle>
            <circle id="Oval-9-Copy" fill="#E98734" cx="3.5" cy="10.5" r="1"></circle>
            <circle id="Oval-9-Copy-2" fill="#E98734" cx="11.5" cy="10.5" r="1"></circle>
            <path d="M7.46911621,18.2471924 C7.74525859,18.2471924 7.96911621,18.0233348 7.96911621,17.7471924 C7.96911621,17.47105 7.74525859,17.2471924 7.46911621,17.2471924 C7.19297384,17.2471924 6.96911621,17.47105 6.96911621,17.7471924 C6.96911621,18.0233348 7.19297384,18.2471924 7.46911621,18.2471924 Z" id="Oval-9-Copy-3" fill="#E98734"></path>
            <path d="M11.5,24.5643311 C11.7761424,24.5643311 12,24.3404734 12,24.0643311 C12,23.7881887 11.7761424,23.5643311 11.5,23.5643311 C11.2238576,23.5643311 11,23.7881887 11,24.0643311 C11,24.3404734 11.2238576,24.5643311 11.5,24.5643311 Z" id="Oval-9-Copy-4" fill="#E98734"></path>
            <circle id="Oval-9-Copy-5" fill="#E98734" cx="17.5" cy="22.5" r="1"></circle>
            <circle id="Oval-9-Copy-6" fill="#E98734" cx="17.5" cy="15.5" r="1"></circle>
            <circle id="Oval-9-Copy-7" fill="#E98734" cx="19.5" cy="8.5" r="1"></circle>
            <circle id="Oval-9-Copy-8" fill="#E98734" cx="24.5" cy="6.5" r="1"></circle>
            <path d="M2.82299805,6.40393066 C3.77213542,6.39025879 4.51774089,6.60673014 5.05981445,7.05334473" id="Path-19" stroke="#F5CD2E" stroke-width="0.5" stroke-linecap="round"></path>
            <path d="M18.5142403,10.5228698 C19.4633777,10.5091979 20.2089831,10.7256693 20.7510567,11.1722838" id="Path-19" stroke="#F5CD2E" stroke-width="0.5" stroke-linecap="round" transform="translate(19.632649, 11.022261) rotate(-49.000000) translate(-19.632649, -11.022261) "></path>
            <path d="M25.5824766,8.40910802 C26.531614,8.39543614 27.2772194,8.61190749 27.819293,9.05852208" id="Path-19" stroke="#F5CD2E" stroke-width="0.5" stroke-linecap="round" transform="translate(26.700885, 8.908499) rotate(-27.000000) translate(-26.700885, -8.908499) "></path>
            <path d="M20.7977839,4.25024867 C21.7469213,4.23657679 22.4925268,4.45304814 23.0346003,4.89966273" id="Path-19" stroke="#F5CD2E" stroke-width="0.5" stroke-linecap="round" transform="translate(21.916192, 4.749640) rotate(-62.000000) translate(-21.916192, -4.749640) "></path>
            <path d="M17.0930912,18.9363655 C18.0422286,18.9226937 18.7878341,19.139165 19.3299076,19.5857796" id="Path-19" stroke="#F5CD2E" stroke-width="0.5" stroke-linecap="round" transform="translate(18.211499, 19.435756) rotate(10.000000) translate(-18.211499, -19.435756) "></path>
            <path d="M8.95205778,16.1424129 C9.90119515,16.128741 10.6468006,16.3452124 11.1888742,16.791827" id="Path-19" stroke="#F5CD2E" stroke-width="0.5" stroke-linecap="round" transform="translate(10.070466, 16.641804) rotate(115.000000) translate(-10.070466, -16.641804) "></path>
            <path d="M8.99171237,21.0553379 C9.94084974,21.041666 10.6864552,21.2581374 11.2285288,21.704752" id="Path-19" stroke="#F5CD2E" stroke-width="0.5" stroke-linecap="round" transform="translate(10.110121, 21.554729) rotate(-48.000000) translate(-10.110121, -21.554729) "></path>
            <path d="M24.4122147,10.2944523 L24.4122147,10.2944523 C24.2596878,10.3784199 24.067971,10.3228416 23.9840034,10.1703146 C23.9485633,10.1059377 23.9367264,10.0312024 23.9505384,9.95902474 L23.9505384,9.95902474 C24.0290552,9.54871797 23.8919608,9.12678486 23.5872671,8.84099075 L23.5872671,8.84099075 C23.4602757,8.72187642 23.4538901,8.52236831 23.5730044,8.39537692 C23.6232789,8.34177778 23.6906986,8.30742575 23.7636118,8.29825762 L23.7636118,8.29825762 C24.1780998,8.24613981 24.5370175,7.98537082 24.7146683,7.60727462 L24.7146683,7.60727462 C24.7887103,7.44969028 24.9764805,7.3819658 25.1340648,7.45600777 C25.2005763,7.48725859 25.2540809,7.54076313 25.2853317,7.60727462 L25.2853317,7.60727462 C25.4629825,7.98537082 25.8219002,8.24613981 26.2363882,8.29825762 L26.2363882,8.29825762 C26.40914,8.31997948 26.531574,8.47763156 26.5098522,8.6503834 C26.5006841,8.72329662 26.466332,8.79071627 26.4127329,8.84099075 L26.4127329,8.84099075 C26.1080392,9.12678486 25.9709448,9.54871797 26.0494616,9.95902474 L26.0494616,9.95902474 C26.0821862,10.1300339 25.9700843,10.2951927 25.7990751,10.3279173 C25.7268974,10.3417293 25.6521622,10.3298924 25.5877853,10.2944523 L25.5877853,10.2944523 C25.2218234,10.0929865 24.7781766,10.0929865 24.4122147,10.2944523 Z" id="Star-Copy-4" fill="#DE74DD" transform="translate(25.000000, 9.000000) rotate(-40.000000) translate(-25.000000, -9.000000) "></path>
            <path d="M22.4122147,4.29445226 C22.2596878,4.3784199 22.067971,4.32284158 21.9840034,4.17031462 C21.9485633,4.1059377 21.9367264,4.03120244 21.9505384,3.95902474 C22.0290552,3.54871797 21.8919608,3.12678486 21.5872671,2.84099075 C21.4985358,2.75776332 21.4686853,2.63528701 21.4993849,2.52572266 C21.621577,2.54336404 21.9014683,2.71423534 22.2080994,2.9493103 C22.8186571,3.41738692 23.5816803,4.11448669 23.8248476,4.3218718 C23.8164186,4.32422229 23.807824,4.3262431 23.7990751,4.32791729 C23.7268974,4.34172931 23.6521622,4.32989241 23.5877853,4.29445226 C23.2218234,4.09298654 22.7781766,4.09298654 22.4122147,4.29445226 Z" id="Star-Copy-7" fill="#DE74DD"></path>
            <path d="M2,6.97087054 L1.41221475,7.29445226 C1.33416798,7.3374178 1.24586021,7.34384625 1.16697763,7.31944461 C1.43753052,7.09161377 2.91323853,5.84072876 3.41901468,5.38715011 C3.48602581,5.4536744 3.52254336,5.54945169 3.50985219,5.6503834 C3.50068406,5.72329662 3.46633204,5.79071627 3.41273289,5.84099075 C3.10803916,6.12678486 2.97094478,6.54871797 3.04946163,6.95902474 C3.08218617,7.13003393 2.97008432,7.29519275 2.79907513,7.32791729 C2.72689743,7.34172931 2.65216217,7.32989241 2.58778525,7.29445226 L2,6.97087054 Z" id="Star-Copy-3" fill="#DE74DD"></path>
            <path d="M10.4122147,16.2944523 L10.4122147,16.2944523 C10.2596878,16.3784199 10.067971,16.3228416 9.9840034,16.1703146 C9.94856326,16.1059377 9.93672635,16.0312024 9.95053837,15.9590247 L9.95053837,15.9590247 C10.0290552,15.548718 9.89196084,15.1267849 9.58726711,14.8409908 L9.58726711,14.8409908 C9.46027572,14.7218764 9.4538901,14.5223683 9.57300444,14.3953769 C9.62327892,14.3417778 9.69069857,14.3074257 9.76361179,14.2982576 L9.76361179,14.2982576 C10.1780998,14.2461398 10.5370175,13.9853708 10.7146683,13.6072746 L10.7146683,13.6072746 C10.7887103,13.4496903 10.9764805,13.3819658 11.1340648,13.4560078 C11.2005763,13.4872586 11.2540809,13.5407631 11.2853317,13.6072746 L11.2853317,13.6072746 C11.4629825,13.9853708 11.8219002,14.2461398 12.2363882,14.2982576 L12.2363882,14.2982576 C12.40914,14.3199795 12.531574,14.4776316 12.5098522,14.6503834 C12.5006841,14.7232966 12.466332,14.7907163 12.4127329,14.8409908 L12.4127329,14.8409908 C12.1080392,15.1267849 11.9709448,15.548718 12.0494616,15.9590247 L12.0494616,15.9590247 C12.0821862,16.1300339 11.9700843,16.2951927 11.7990751,16.3279173 C11.7268974,16.3417293 11.6521622,16.3298924 11.5877853,16.2944523 L11.5877853,16.2944523 C11.2218234,16.0929865 10.7781766,16.0929865 10.4122147,16.2944523 Z" id="Star-Copy" fill="#DE74DD" transform="translate(11.000000, 15.000000) rotate(-61.000000) translate(-11.000000, -15.000000) "></path>
            <path d="M7.86170449,23.743942 L7.86170449,23.743942 C7.70917753,23.8279096 7.51746078,23.7723313 7.43349314,23.6198044 C7.398053,23.5554274 7.3862161,23.4806922 7.40002812,23.4085145 L7.40002812,23.4085145 C7.47854496,22.9982077 7.34145059,22.5762746 7.03675685,22.2904805 L7.03675685,22.2904805 C6.90976546,22.1713662 6.90337985,21.9718581 7.02249418,21.8448667 C7.07276867,21.7912675 7.14018832,21.7569155 7.21310154,21.7477474 L7.21310154,21.7477474 C7.62758951,21.6956296 7.98650724,21.4348606 8.16415805,21.0567644 L8.16415805,21.0567644 C8.23820002,20.89918 8.42597024,20.8314555 8.58355458,20.9054975 C8.65006607,20.9367483 8.70357061,20.9902529 8.73482143,21.0567644 L8.73482143,21.0567644 C8.91247224,21.4348606 9.27138998,21.6956296 9.68587795,21.7477474 L9.68587795,21.7477474 C9.85862979,21.7694692 9.98106379,21.9271213 9.95934193,22.0998731 C9.95017381,22.1727864 9.91582178,22.240206 9.86222263,22.2904805 L9.86222263,22.2904805 C9.5575289,22.5762746 9.42043452,22.9982077 9.49895137,23.4085145 L9.49895137,23.4085145 C9.53167591,23.5795237 9.41957406,23.7446825 9.24856487,23.777407 C9.17638718,23.7912191 9.10165192,23.7793822 9.037275,23.743942 L9.037275,23.743942 C8.6713131,23.5424763 8.22766638,23.5424763 7.86170449,23.743942 Z" id="Star-Copy-2" fill="#DE74DD" transform="translate(8.449490, 22.449490) rotate(15.000000) translate(-8.449490, -22.449490) "></path>
            <path d="M17.4122147,13.2944523 L17.4122147,13.2944523 C17.2596878,13.3784199 17.067971,13.3228416 16.9840034,13.1703146 C16.9485633,13.1059377 16.9367264,13.0312024 16.9505384,12.9590247 L16.9505384,12.9590247 C17.0290552,12.548718 16.8919608,12.1267849 16.5872671,11.8409908 L16.5872671,11.8409908 C16.4602757,11.7218764 16.4538901,11.5223683 16.5730044,11.3953769 C16.6232789,11.3417778 16.6906986,11.3074257 16.7636118,11.2982576 L16.7636118,11.2982576 C17.1780998,11.2461398 17.5370175,10.9853708 17.7146683,10.6072746 L17.7146683,10.6072746 C17.7887103,10.4496903 17.9764805,10.3819658 18.1340648,10.4560078 C18.2005763,10.4872586 18.2540809,10.5407631 18.2853317,10.6072746 L18.2853317,10.6072746 C18.4629825,10.9853708 18.8219002,11.2461398 19.2363882,11.2982576 L19.2363882,11.2982576 C19.40914,11.3199795 19.531574,11.4776316 19.5098522,11.6503834 C19.5006841,11.7232966 19.466332,11.7907163 19.4127329,11.8409908 L19.4127329,11.8409908 C19.1080392,12.1267849 18.9709448,12.548718 19.0494616,12.9590247 L19.0494616,12.9590247 C19.0821862,13.1300339 18.9700843,13.2951927 18.7990751,13.3279173 C18.7268974,13.3417293 18.6521622,13.3298924 18.5877853,13.2944523 L18.5877853,13.2944523 C18.2218234,13.0929865 17.7781766,13.0929865 17.4122147,13.2944523 Z" id="Star-Copy-5" fill="#DE74DD" transform="translate(18.000000, 12.000000) rotate(18.000000) translate(-18.000000, -12.000000) "></path>
            <path d="M19.4122147,21.2944523 L19.4122147,21.2944523 C19.2596878,21.3784199 19.067971,21.3228416 18.9840034,21.1703146 C18.9485633,21.1059377 18.9367264,21.0312024 18.9505384,20.9590247 L18.9505384,20.9590247 C19.0290552,20.548718 18.8919608,20.1267849 18.5872671,19.8409908 L18.5872671,19.8409908 C18.4602757,19.7218764 18.4538901,19.5223683 18.5730044,19.3953769 C18.6232789,19.3417778 18.6906986,19.3074257 18.7636118,19.2982576 L18.7636118,19.2982576 C19.1780998,19.2461398 19.5370175,18.9853708 19.7146683,18.6072746 L19.7146683,18.6072746 C19.7887103,18.4496903 19.9764805,18.3819658 20.1340648,18.4560078 C20.2005763,18.4872586 20.2540809,18.5407631 20.2853317,18.6072746 L20.2853317,18.6072746 C20.4629825,18.9853708 20.8219002,19.2461398 21.2363882,19.2982576 L21.2363882,19.2982576 C21.40914,19.3199795 21.531574,19.4776316 21.5098522,19.6503834 C21.5006841,19.7232966 21.466332,19.7907163 21.4127329,19.8409908 L21.4127329,19.8409908 C21.1080392,20.1267849 20.9709448,20.548718 21.0494616,20.9590247 L21.0494616,20.9590247 C21.0821862,21.1300339 20.9700843,21.2951927 20.7990751,21.3279173 C20.7268974,21.3417293 20.6521622,21.3298924 20.5877853,21.2944523 L20.5877853,21.2944523 C20.2218234,21.0929865 19.7781766,21.0929865 19.4122147,21.2944523 Z" id="Star-Copy-6" fill="#DE74DD" transform="translate(20.000000, 20.000000) rotate(-26.000000) translate(-20.000000, -20.000000) "></path>
        </g>
    </g>
</svg>