<?xml version="1.0" encoding="UTF-8"?>
<svg width="48px" height="48px" viewBox="0 0 48 48" version="1.1" xmlns="http://www.w3.org/2000/svg" xmlns:xlink="http://www.w3.org/1999/xlink">
    <!-- Generator: Sketch 51.3 (57544) - http://www.bohemiancoding.com/sketch -->
    <title>tops-ski-jacket</title>
    <desc>Created with Sketch.</desc>
    <defs></defs>
    <g id="SVGs" stroke="none" stroke-width="1" fill="none" fill-rule="evenodd">
        <g id="Slices" transform="translate(-822.000000, -59.000000)"></g>
        <g id="04-top-ski-jacket" transform="translate(7.983830, 11.500000)" fill-rule="nonzero">
            <path d="M30.9,16.64 C32.21,13.56 29.65,10.27 27.42,8.79 C25.7326792,7.56019271 24.5071834,5.79942295 23.94,3.79 L8.94,3.79 C8.3728166,5.79942295 7.14732085,7.56019271 5.46,8.79 C3.23,10.27 0.67,13.56 1.98,16.64 L0.98,17.91 C0.98,17.91 2.17,19.91 5.98,20.12 L6.3,18 C7.90162867,17.2633466 9.12060526,15.88837 9.66,14.21 C10.1659119,12.6926761 10.5668581,11.1423506 10.86,9.57 L10.54,15.32 C9.75657272,16.8459894 8.68322822,18.2046533 7.38,19.32 C7.38,19.32 9.86,24 16.46,24 C23.06,24 25.54,19.32 25.54,19.32 C24.2367718,18.2046533 23.1634273,16.8459894 22.38,15.32 L22.06,9.57 C22.3531419,11.1423506 22.7540881,12.6926761 23.26,14.21 C23.7993947,15.88837 25.0183713,17.2633466 26.62,18 L26.91,20.11 C30.73,19.94 31.91,17.9 31.91,17.9 L30.9,16.64 Z" id="Shape" fill="#DDDDDD"></path>
            <path d="M16.46,0.76 C15.5014824,0.856626267 14.5333198,0.764905598 13.61,0.49 C12.39,0.05 10.53,-0.25 10.01,0.31 C9.49,0.87 8.46,2.31 9.01,3.8 C9.56,5.29 14.65,5.09 16.46,5" id="Shape" fill="#DDDDDD"></path>
            <path d="M7.7,17.11 C8.62406063,16.3736222 9.31805537,15.3881497 9.7,14.27 C10.0760409,12.9346185 9.77336805,11.4997249 8.89,10.43 C8.08236215,9.5631853 7.08206521,8.89860446 5.97,8.49 L5.55,8.79 C4.31288515,9.63600036 3.28652003,10.7547383 2.55,12.06 C3.73458929,12.3440873 4.84561436,12.8757435 5.81,13.62 C6.84939162,14.5099982 7.52263101,15.7531757 7.7,17.11 Z" id="Shape" fill="#132F71"></path>
            <path d="M16.46,4.57 L13.29,5.05 C13.29,5.05 13.57,9.27 13.85,10.73 C14.0312062,11.7226744 14.1613772,12.7239898 14.24,13.73 L16.46,13.73" id="Shape" fill="#132F71"></path>
            <path d="M10.86,9.58 C10.86,9.58 11.45,9.58 11.4,4.9 L13.29,5.05 C13.29,5.05 13.19,11.57 10.74,11.75 L10.86,9.58 Z" id="Shape" fill="#939393"></path>
            <path d="M10.8,11 L10.86,10.46 C10.86,10.46 12.02,10.22 12.16,4.99 L12.7,4.99 C12.6,8.91 11.93,10.29 11.39,10.76 C11.2364458,10.9203123 11.0218584,11.0076021 10.8,11 Z" id="Shape" fill="#951918"></path>
            <path d="M19.92,19.64 C19.6388921,18.2270458 19.2236793,16.8441192 18.68,15.51 L14.23,15.51 C13.6908607,16.8457174 13.2757774,18.2282127 12.99,19.64 C12.75,20.5 12.42,22.15 12.21,23.25 C13.5681501,23.7604753 15.0091594,24.0147711 16.46,24 C17.9075612,24.0144591 19.3452358,23.7601534 20.7,23.25 C20.46,22.15 20.17,20.5 19.92,19.64 Z" id="Shape" fill="#132F71"></path>
            <path d="M6.04,18.31 C4.60826048,18.3015417 3.21950263,17.8198712 2.09,16.94 C2.03736319,16.890831 2.00748239,16.8220293 2.00748239,16.75 C2.00748239,16.6779707 2.03736319,16.609169 2.09,16.56 C2.19522793,16.4557777 2.36477207,16.4557777 2.47,16.56 C3.50894066,17.3431351 4.7691622,17.7772114 6.07,17.8 C6.21911688,17.8 6.34,17.9208831 6.34,18.07 C6.31930994,18.2168078 6.18776888,18.3220407 6.04,18.31 Z" id="Shape" fill="#939393"></path>
            <path d="M16.46,13.71 C14.5470608,13.6944605 12.6393883,13.5070401 10.76,13.15 C10.6465009,13.1267953 10.5284824,13.152689 10.4351235,13.2212792 C10.3417646,13.2898694 10.2817799,13.3947536 10.27,13.51 L10.16,14.78 C10.1314969,15.0842681 10.3187982,15.3673013 10.61,15.46 C12.5107916,16.0030418 14.4840472,16.2492771 16.46,16.19" id="Shape" fill="#939393"></path>
            <path d="M16.46,13.71 C18.3729392,13.6944605 20.2806117,13.5070401 22.16,13.15 C22.2734991,13.1267953 22.3915176,13.152689 22.4848765,13.2212792 C22.5782354,13.2898694 22.6382201,13.3947536 22.65,13.51 L22.76,14.78 C22.7885031,15.0842681 22.6012018,15.3673013 22.31,15.46 C20.4092084,16.0030418 18.4359528,16.2492771 16.46,16.19" id="Shape" fill="#939393"></path>
            <path d="M13.88,16.5 L13.79,16.5 L12.4,16.34 C12.1970099,16.3150267 12.0122946,16.2103226 11.8866013,16.048985 C11.7609081,15.8876474 11.7045646,15.6829327 11.73,15.48 L11.93,13.75 C11.9483753,13.5433304 12.0538273,13.3542441 12.22,13.23 C12.3758031,13.1001801 12.5791303,13.0420866 12.78,13.07 L14.17,13.23 C14.3766696,13.2483753 14.5657559,13.3538273 14.69,13.52 C14.8171636,13.6810852 14.8747593,13.8862698 14.85,14.09 L14.65,15.82 C14.6209696,16.0232333 14.5176497,16.2084967 14.36,16.34 C14.2202467,16.4413981 14.0526415,16.4972665 13.88,16.5 Z M13.88,15.95 C13.9388758,15.9616054 13.9999039,15.947469 14.0476806,15.9111587 C14.0954573,15.8748484 14.1254178,15.8198335 14.13,15.76 L14.31,14 C14.3151015,13.9421581 14.2971286,13.884645 14.26,13.84 C14.2231029,13.7921977 14.1695419,13.7600611 14.11,13.75 L12.72,13.59 C12.5963285,13.5782083 12.4856434,13.6667564 12.47,13.79 L12.27,15.52 C12.2620995,15.5811702 12.28024,15.6428476 12.32,15.69 C12.3534645,15.7400853 12.4097638,15.7701116 12.47,15.77 L13.88,15.95 Z" id="Shape" fill="#FFFFFF"></path>
            <path d="M14.22,0.66 C13.594054,1.53908742 13.067504,2.48486509 12.65,3.48 C12.567927,4.06576254 12.813653,4.64936167 13.29,5 L16.46,4.89 L16.46,0.76 C15.7120841,0.820171702 14.9595789,0.786577721 14.22,0.66 Z" id="Shape" fill="#132F71"></path>
            <path d="M12.69,5.32 C11.74,5.32 9.62,5.22 9,4.32 C8.95802264,4.26060406 8.9417837,4.18678453 8.95496005,4.1152558 C8.9681364,4.04372706 9.00961349,3.98053944 9.07,3.94 C9.19440252,3.8494408 9.36857031,3.87623584 9.46,4 C9.9,4.65 11.94,4.82 13.12,4.77 C13.2691169,4.77 13.39,4.89088312 13.39,5.04 C13.39,5.18911688 13.2691169,5.31 13.12,5.31 L12.69,5.32 Z" id="Shape" fill="#939393"></path>
            <path d="M16.46,0.76 C17.4185176,0.856626267 18.3866802,0.764905598 19.31,0.49 C20.53,0.05 22.39,-0.25 22.91,0.31 C23.43,0.87 24.46,2.31 23.91,3.8 C23.36,5.29 18.27,5.09 16.46,5" id="Shape" fill="#DDDDDD"></path>
            <path d="M25.22,17.11 C24.314357,16.3669267 23.6381662,15.3821155 23.27,14.27 C22.8939591,12.9346185 23.1966319,11.4997249 24.08,10.43 C24.8876379,9.5631853 25.8879348,8.89860446 27,8.49 L27.42,8.79 C28.6571148,9.63600036 29.68348,10.7547383 30.42,12.06 C29.2354107,12.3440873 28.1243856,12.8757435 27.16,13.62 C26.1020034,14.5017468 25.410375,15.7459649 25.22,17.11 Z" id="Shape" fill="#132F71"></path>
            <path d="M16.46,4.57 L19.63,5.05 C19.63,5.05 19.35,9.27 19.07,10.73 C18.8887938,11.7226744 18.7586228,12.7239898 18.68,13.73 L16.46,13.73" id="Shape" fill="#132F71"></path>
            <path d="M22.06,9.58 C22.06,9.58 21.47,9.58 21.52,4.9 L19.63,5.05 C19.63,5.05 19.73,11.57 22.18,11.75 L22.06,9.58 Z" id="Shape" fill="#939393"></path>
            <path d="M22.12,11 C21.9204056,10.9940012 21.7307131,10.9116818 21.59,10.77 C21.05,10.3 20.38,8.92 20.28,5 L20.82,5 C20.93,9.06 21.64,10.11 21.95,10.37 C21.9944823,10.4109477 22.0450936,10.4446885 22.1,10.47 L22.16,11.01 L22.12,11 Z" id="Shape" fill="#951918"></path>
            <path d="M26.88,18.31 C26.729279,18.3046137 26.6099038,18.1808172 26.61,18.03 C26.61,17.8808831 26.7308831,17.76 26.88,17.76 C28.1739668,17.7330185 29.4265637,17.2991581 30.46,16.52 C30.5652279,16.4157777 30.7347721,16.4157777 30.84,16.52 C30.8926368,16.569169 30.9225176,16.6379707 30.9225176,16.71 C30.9225176,16.7820293 30.8926368,16.850831 30.84,16.9 C29.7129756,17.7963006 28.3198703,18.2923305 26.88,18.31 Z" id="Shape" fill="#939393"></path>
            <path d="M19.04,16.5 C18.6492341,16.4982144 18.3200946,16.2075457 18.27,15.82 L18.07,14.09 C18.0229996,13.6655124 18.3261155,13.28216 18.75,13.23 L20.14,13.07 C20.3408697,13.0420866 20.5441969,13.1001801 20.7,13.23 C20.8661727,13.3542441 20.9716247,13.5433304 20.99,13.75 L21.19,15.48 C21.2183052,15.6839864 21.1603249,15.8905413 21.03,16.05 C20.9028586,16.2077632 20.7205905,16.3114059 20.52,16.34 L19.13,16.5 L19.04,16.5 Z M20.23,13.61 L18.84,13.77 C18.7193699,13.7901971 18.6332247,13.8978786 18.64,14.02 L18.84,15.76 C18.8604785,15.8835607 18.9760572,15.968022 19.1,15.95 L20.46,15.79 C20.5202362,15.7901116 20.5765355,15.7600853 20.61,15.71 C20.64976,15.6628476 20.6679005,15.6011702 20.66,15.54 L20.46,13.81 C20.452528,13.7519139 20.4240749,13.6985645 20.38,13.66 C20.337083,13.6268688 20.2842123,13.6092452 20.23,13.61 Z" id="Shape" fill="#FFFFFF"></path>
            <path d="M18.7,0.66 C19.325946,1.53908742 19.852496,2.48486509 20.27,3.48 C20.352073,4.06576254 20.106347,4.64936167 19.63,5 L16.46,4.89 L16.46,0.76 C17.2079159,0.820171702 17.9604211,0.786577721 18.7,0.66 Z" id="Shape" fill="#132F71"></path>
            <path d="M20.23,5.32 L19.79,5.32 C19.6935383,5.32000001 19.604404,5.2685383 19.5561731,5.18500001 C19.5079423,5.10146171 19.5079423,4.99853829 19.5561731,4.91499999 C19.604404,4.8314617 19.6935383,4.77999999 19.79,4.78 C20.97,4.83 23.01,4.66 23.45,4.01 C23.5376938,3.88900399 23.7049479,3.85819402 23.83,3.94 C23.8903865,3.98053944 23.9318636,4.04372706 23.9450399,4.1152558 C23.9582163,4.18678453 23.9419774,4.26060406 23.9,4.32 C23.3,5.22 21.18,5.32 20.23,5.32 Z" id="Shape" fill="#939393"></path>
            <path d="M15.54,3.45 L15.54,9 C15.5389904,9.21169317 15.6993141,9.38934918 15.91,9.41 C16.0931826,9.42051211 16.2768174,9.42051211 16.46,9.41 C16.6465201,9.42046154 16.8334799,9.42046154 17.02,9.41 C17.2306859,9.38934918 17.3910096,9.21169317 17.39,9 L17.39,3.45 C17.3911605,3.29095428 17.3002329,3.14558714 17.1567123,3.07703997 C17.0131916,3.0084928 16.842976,3.02913482 16.72,3.13 C16.5706839,3.24859606 16.3593161,3.24859606 16.21,3.13 C16.087024,3.02913482 15.9168084,3.0084928 15.7732877,3.07703997 C15.6297671,3.14558714 15.5388395,3.29095428 15.54,3.45 Z" id="Shape" fill="#DDDDDD"></path>
            <path d="M17.19,8.22 C17.19,7.87758346 16.9124165,7.6 16.57,7.6 L16.36,7.6 C16.3232981,7.59563825 16.2943618,7.56670194 16.29,7.53 L16.29,7.36 C16.29,7.32134007 16.3213401,7.29 16.36,7.29 L16.57,7.29 C16.9124165,7.29 17.19,7.01241654 17.19,6.67 L17.19,6.37 C17.19,6.20556578 17.1246788,6.04786635 17.0084062,5.9315938 C16.8921336,5.81532124 16.7344342,5.75 16.57,5.75 L16.36,5.75 C16.3213401,5.75 16.29,5.71865993 16.29,5.68 L16.29,5.47 C16.29,5.43134007 16.3213401,5.4 16.36,5.4 L16.57,5.4 C16.9124165,5.4 17.19,5.12241654 17.19,4.78 L17.19,4.6 C17.19,4.25758346 16.9124165,3.98 16.57,3.98 L16.36,3.98 C16.3213401,3.98 16.29,3.94865993 16.29,3.91 L16.29,3.62 C16.2848279,3.46755399 16.162446,3.34517207 16.01,3.34 C15.859279,3.3453863 15.7399038,3.4691828 15.74,3.62 L15.74,3.91 C15.74,4.25241654 16.0175835,4.53 16.36,4.53 L16.57,4.53 C16.6086599,4.53 16.64,4.56134007 16.64,4.6 L16.64,4.77 C16.64,4.80865993 16.6086599,4.84 16.57,4.84 L16.36,4.84 C16.0175835,4.84 15.74,5.11758346 15.74,5.46 L15.74,5.67 C15.74,6.01241654 16.0175835,6.29 16.36,6.29 L16.57,6.29 C16.6086599,6.29 16.64,6.32134007 16.64,6.36 L16.64,6.66 C16.64,6.69865993 16.6086599,6.73 16.57,6.73 L16.36,6.73 C16.0175835,6.73 15.74,7.00758346 15.74,7.35 L15.74,7.52 C15.739978,7.68352967 15.8056166,7.84022048 15.9221858,7.95490953 C16.038755,8.06959857 16.1964923,8.13268082 16.36,8.13 L16.57,8.13 C16.6102383,8.13506829 16.6403179,8.169445 16.64,8.21 L16.64,8.41 C16.6403179,8.450555 16.6102383,8.48493171 16.57,8.49 L16.36,8.49 C16.1964923,8.48731918 16.038755,8.55040143 15.9221858,8.66509047 C15.8056166,8.77977952 15.739978,8.93647033 15.74,9.1 L15.74,9.31 C15.7904554,9.34450115 15.8490663,9.36518737 15.91,9.37 L16.29,9.37 L16.29,9.08 C16.2870795,9.05977354 16.2931438,9.03928082 16.3066011,9.02390099 C16.3200585,9.00852116 16.3395648,8.99979024 16.36,9 L16.57,9 C16.9124165,9 17.19,8.72241654 17.19,8.38 L17.19,8.22 Z" id="Shape" fill="#939393"></path>
            <path d="M16.46,4.18 L18.28,4.18 L17.46,1 C17.4229246,0.842087333 17.2822063,0.730340487 17.12,0.73 L15.82,0.73 C15.6503775,0.72070875 15.4985747,0.834560865 15.46,1 L14.61,4.15 L16.46,4.18 Z" id="Shape" fill="#DDDDDD"></path>
            <path d="M16.46,4.18 L14.63,4.18 L14.63,4.49 C14.6351939,4.65348572 14.7665143,4.78480609 14.93,4.79 L17.98,4.79 C18.0613283,4.7900452 18.1391899,4.75706914 18.1957474,4.69862647 C18.2523048,4.64018381 18.282711,4.56128307 18.28,4.48 L18.28,4.18 L16.46,4.18 Z" id="Shape" fill="#939393"></path>
            <path d="M16.46,3.24 L16.6,3.24 C16.7054706,3.24061836 16.8061919,3.19619522 16.8768547,3.11789323 C16.9475174,3.03959124 16.9814042,2.93485405 16.97,2.83 L16.9,2.05 C16.8794563,1.8558906 16.7151905,1.7089159 16.52,1.71 L16.39,1.71 C16.1968192,1.70936404 16.0356623,1.85745413 16.02,2.05 L15.94,2.83 C15.9316151,2.9358711 15.9679175,3.04042021 16.0401103,3.11831242 C16.1123031,3.19620464 16.2137979,3.24033152 16.32,3.24 L16.46,3.24 Z" id="Shape" fill="#939393"></path>
            <path d="M16.6,3.38 L16.32,3.38 C16.1743617,3.3826313 16.0351025,3.3203311 15.94,3.21 C15.8397372,3.10193796 15.7890092,2.95700083 15.8,2.81 L15.88,2.04 C15.9009209,1.77406437 16.123244,1.56917836 16.39,1.57 L16.52,1.57 C16.7887435,1.56875504 17.0141619,1.77249858 17.04,2.04 L17.11,2.81 C17.1236908,2.95555652 17.076648,3.1003036 16.98,3.21 C16.8825318,3.31710883 16.7448127,3.37871998 16.6,3.38 Z M16.39,1.84 C16.2666683,1.84405227 16.1647412,1.93748541 16.15,2.06 L16.08,2.84 C16.0685304,2.9092795 16.0908228,2.97987209 16.14,3.03 C16.1849674,3.08231006 16.2510391,3.11167526 16.32,3.11 L16.6,3.11 C16.6684198,3.10909034 16.7334765,3.08017627 16.78,3.03 C16.8244368,2.97714688 16.8460238,2.90878802 16.84,2.84 L16.76,2.06 C16.7495744,1.93531927 16.6451151,1.83956488 16.52,1.84 L16.39,1.84 Z" id="Shape" fill="#939393"></path>
        </g>
    </g>
</svg>