<?xml version="1.0" encoding="UTF-8"?>
<svg width="48px" height="48px" viewBox="0 0 48 48" version="1.1" xmlns="http://www.w3.org/2000/svg" xmlns:xlink="http://www.w3.org/1999/xlink">
    <!-- Generator: Sketch 51.3 (57544) - http://www.bohemiancoding.com/sketch -->
    <title>tops-minidress</title>
    <desc>Created with Sketch.</desc>
    <defs></defs>
    <g id="SVGs" stroke="none" stroke-width="1" fill="none" fill-rule="evenodd">
        <g id="Slices" transform="translate(0.000000, -118.000000)"></g>
        <g id="blue-dress" transform="translate(11.000000, 11.000000)" fill-rule="nonzero">
            <path d="M13.2585449,3.2746582 C14.9052652,3.2746582 16.4239308,2.12291571 17.1046988,0.710555639 C17.3583723,0.902346264 17.8875744,1.14029545 18.3867501,1.35158128 C18.1268702,5.2142105 18.3758612,7.45845886 18.3867501,8.40286333 C18.3976389,9.3472678 19.0648651,10.3579001 20.309827,11.6079915 C20.2188049,13.0210908 20.0418458,14.1568573 19.6688013,14.8131197 L19.6688013,18.6592736 C23.1506607,21.6589787 25.0673622,23.2685478 25.4380321,23.7874787 C25.1823034,24.130169 24.7414338,24.4574749 24.1729899,24.6711939 C23.0309297,25.1005766 21.3739182,25.0714684 19.6688013,23.7874787 C18.7752633,25.0942391 17.048025,25.7105556 15.8856029,25.7105556 C14.6436961,25.7105556 13.6523528,24.8428973 12.9135749,23.7874787 C12.2073427,24.8428973 11.0669036,25.7105556 9.82499684,25.7105556 C8.66257473,25.7105556 7.10080087,25.0942391 6.20726287,23.7874787 C3.65344889,25.7105556 1.20754527,24.8186679 0.438032101,23.7874787 C0.80870201,23.2685478 2.72540352,21.6589787 6.20726287,18.6592736 L6.20726287,14.8131197 C5.83421844,14.1568573 5.65725935,13.0210908 5.56623723,11.6079915 C6.81119914,10.3579001 7.47842529,9.3472678 7.48931415,8.40286333 C7.50020302,7.45845886 7.74919402,5.2142105 7.48931415,1.35158128 C7.98848982,1.14029545 8.51769193,0.902346264 8.77136543,0.710555639 C9.45213341,2.12291571 10.970799,3.2746582 13.2585449,3.2746582 Z" id="Combined-Shape" stroke="#7DACF2" stroke-width="0.75" fill="#7DACF2" stroke-linecap="round" stroke-linejoin="round"></path>
            <polygon id="Rectangle" fill="#004CAC" points="5.7410624 14.7404629 20.0875477 14.7404629 20.0875477 18.553268 5.7410624 18.553268"></polygon>
            <path d="M7.6210155,16.3436147 C7.93167567,16.3436147 8.1835155,16.0928942 8.1835155,15.7836147 C8.1835155,15.4743353 7.93167567,15.2236147 7.6210155,15.2236147 C7.31035533,15.2236147 7.0585155,15.4743353 7.0585155,15.7836147 C7.0585155,16.0928942 7.31035533,16.3436147 7.6210155,16.3436147 Z" id="Oval-5" fill="#7DACF2"></path>
            <path d="M10.9550609,16.3436147 C11.2657211,16.3436147 11.5175609,16.0928942 11.5175609,15.7836147 C11.5175609,15.4743353 11.2657211,15.2236147 10.9550609,15.2236147 C10.6444007,15.2236147 10.3925609,15.4743353 10.3925609,15.7836147 C10.3925609,16.0928942 10.6444007,16.3436147 10.9550609,16.3436147 Z" id="Oval-5" fill="#7DACF2"></path>
            <path d="M14.7951488,16.3436147 C15.105809,16.3436147 15.3576488,16.0928942 15.3576488,15.7836147 C15.3576488,15.4743353 15.105809,15.2236147 14.7951488,15.2236147 C14.4844886,15.2236147 14.2326488,15.4743353 14.2326488,15.7836147 C14.2326488,16.0928942 14.4844886,16.3436147 14.7951488,16.3436147 Z" id="Oval-5" fill="#7DACF2"></path>
            <path d="M18.201826,16.3436147 C18.5124862,16.3436147 18.764326,16.0928942 18.764326,15.7836147 C18.764326,15.4743353 18.5124862,15.2236147 18.201826,15.2236147 C17.8911659,15.2236147 17.639326,15.4743353 17.639326,15.7836147 C17.639326,16.0928942 17.8911659,16.3436147 18.201826,16.3436147 Z" id="Oval-5" fill="#7DACF2"></path>
            <path d="M16.6263866,17.8305556 C16.9370468,17.8305556 17.1888866,17.5798351 17.1888866,17.2705556 C17.1888866,16.9612762 16.9370468,16.7105556 16.6263866,16.7105556 C16.3157264,16.7105556 16.0638866,16.9612762 16.0638866,17.2705556 C16.0638866,17.5798351 16.3157264,17.8305556 16.6263866,17.8305556 Z" id="Oval-5" fill="#7DACF2"></path>
            <path d="M12.969038,17.8305556 C13.2796981,17.8305556 13.531538,17.5798351 13.531538,17.2705556 C13.531538,16.9612762 13.2796981,16.7105556 12.969038,16.7105556 C12.6583778,16.7105556 12.406538,16.9612762 12.406538,17.2705556 C12.406538,17.5798351 12.6583778,17.8305556 12.969038,17.8305556 Z" id="Oval-5" fill="#7DACF2"></path>
            <path d="M9.24339099,17.8305556 C9.55405116,17.8305556 9.80589099,17.5798351 9.80589099,17.2705556 C9.80589099,16.9612762 9.55405116,16.7105556 9.24339099,16.7105556 C8.93273082,16.7105556 8.68089099,16.9612762 8.68089099,17.2705556 C8.68089099,17.5798351 8.93273082,17.8305556 9.24339099,17.8305556 Z" id="Oval-5" fill="#7DACF2"></path>
            <path d="M12.9451122,24.574192 C12.9451122,24.574192 12.9451122,23.6903536 12.9451122,21.9226769" id="Line" stroke="#004CAC" stroke-width="0.5" stroke-linecap="round"></path>
            <path d="M19.7562139,24.1954041 L18.6198503,21.1651011" id="Line" stroke="#004CAC" stroke-width="0.5" stroke-linecap="round"></path>
            <path d="M7.94285388,24.1954041 L6.23830842,21.1651011" id="Line" stroke="#004CAC" stroke-width="0.5" stroke-linecap="round" transform="translate(7.090581, 22.680253) scale(-1, 1) translate(-7.090581, -22.680253) "></path>
        </g>
    </g>
</svg>