<?xml version="1.0" standalone="no"?>
<!DOCTYPE svg PUBLIC "-//W3C//DTD SVG 1.1//EN" "http://www.w3.org/Graphics/SVG/1.1/DTD/svg11.dtd" >
<svg xmlns="http://www.w3.org/2000/svg" xmlns:xlink="http://www.w3.org/1999/xlink" version="1.1">
<metadata></metadata>
<defs>
<font id="bungee_regularregular" horiz-adv-x="1509" >
<font-face units-per-em="2048" ascent="1761" descent="-287" />
<missing-glyph horiz-adv-x="460" />
<glyph horiz-adv-x="0" />
<glyph horiz-adv-x="682" />
<glyph unicode=" "  horiz-adv-x="460" />
<glyph unicode="&#x09;" horiz-adv-x="460" />
<glyph unicode="&#xa0;" horiz-adv-x="460" />
<glyph unicode="!" horiz-adv-x="868" d="M592 537h-318q-38 0 -55.5 17.5t-19.5 55.5l-31 791q-2 38 15 56t55 18h391q38 0 54.5 -17.5t14.5 -56.5l-28 -791q-3 -73 -78 -73zM623 0h-377q-74 0 -74 74v268q0 39 17.5 56.5t56.5 17.5h377q39 0 56 -17t17 -57v-268q0 -38 -17.5 -56t-55.5 -18z" />
<glyph unicode="&#x22;" horiz-adv-x="1323" d="M1126 707h-295q-54 0 -69 15t-17 69l-16 600q-1 54 13.5 69t68.5 15h338q53 0 67 -15t13 -69l-17 -600q-3 -55 -17.5 -69.5t-68.5 -14.5zM492 707h-295q-54 0 -69 15t-17 69l-17 600q-1 54 13.5 69t68.5 15h338q53 0 67 -15t13 -69l-16 -600q-3 -55 -17.5 -69.5 t-68.5 -14.5z" />
<glyph unicode="#" horiz-adv-x="1536" d="M870 643l29 199h-231l-29 -199h231zM557 74q-5 -40 -21 -57t-53 -17h-215q-82 0 -73 74l28 202h-78q-39 0 -56 17t-17 57v219q0 38 17.5 56t55.5 18h131l29 199h-86q-39 0 -56.5 17t-17.5 56v220q0 38 18 55.5t56 17.5h139l27 193q5 40 21 57t53 17h215q83 0 74 -74 l-27 -193h231l27 193q5 40 21 57t53 17h215q82 0 73 -74l-26 -193h76q39 0 56 -17t17 -56v-220q0 -39 -17 -56t-56 -17h-129l-29 -199h84q39 0 56.5 -17.5t17.5 -56.5v-219q0 -39 -17.5 -56.5t-56.5 -17.5h-137l-29 -202q-5 -40 -21 -57t-53 -17h-215q-83 0 -74 74l29 202 h-231z" />
<glyph unicode="$" horiz-adv-x="1331" d="M829 -184h-297q-38 0 -55.5 17.5t-17.5 55.5v111h-281q-74 0 -74 74v239q0 74 74 74h551q25 0 39 16.5t14 42.5q0 64 -53 70l-307 43q-156 23 -237 100.5t-81 239.5v215q0 158 93 249.5t262 106.5v115q0 38 17.5 56t55.5 18h297q74 0 74 -74v-110h199q74 0 74 -74v-244 q0 -74 -74 -74h-477q-26 0 -41 -16.5t-15 -44.5t15 -45.5t41 -20.5l305 -41q76 -11 132 -33.5t99.5 -61t65.5 -100t22 -145.5v-215q0 -155 -90.5 -247t-255.5 -109v-115q0 -38 -18 -55.5t-56 -17.5z" />
<glyph unicode="%" horiz-adv-x="2111" d="M815 852q0 -58 -16 -100t-55 -76t-111.5 -51t-179.5 -17t-180.5 17t-113.5 51t-56.5 76t-16.5 100v389q0 58 16.5 100t56.5 76t113.5 51t180.5 17t179.5 -17t111.5 -51t55 -76t16 -100v-389zM721 74l328 1327q9 38 28 56t56 18h215q81 0 63 -74l-328 -1327 q-9 -38 -28 -56t-56 -18h-215q-81 0 -63 74zM383 915q0 -36 70 -36q39 0 53 9.5t14 26.5v263q0 34 -67 34q-70 0 -70 -34v-263zM2040 231q0 -58 -16 -100t-55 -75.5t-112 -50.5t-180 -17t-180.5 17t-113 50.5t-56 75.5t-16.5 100v390q0 58 16.5 100t56 75.5t113 50.5 t180.5 17t180 -17t112 -50.5t55 -75.5t16 -100v-390zM1608 295q0 -18 14 -27.5t55 -9.5q68 0 68 37v262q0 35 -68 35q-69 0 -69 -35v-262z" />
<glyph unicode="&#x26;" horiz-adv-x="1568" d="M606 383h291q43 0 60.5 19.5t17.5 62.5v283q0 38 18 55.5t56 17.5h397q39 0 56.5 -17t17.5 -56v-222q0 -38 -18 -55.5t-56 -17.5h-47v-93q0 -167 -95.5 -263.5t-271.5 -96.5h-569q-186 0 -286.5 96.5t-100.5 263.5v164q0 140 72 223.5t186 94.5q-121 52 -121 221v98 q0 143 96.5 228.5t296.5 85.5h432q74 0 74 -74v-236q0 -38 -18 -55.5t-56 -17.5h-299q-45 0 -61 -16.5t-16 -45.5v-43q0 -29 16 -45t61 -16h31q74 0 74 -74v-211q0 -74 -74 -74h-164q-46 0 -62 -15.5t-16 -43.5v-64q0 -29 16.5 -45t61.5 -16z" />
<glyph unicode="'" horiz-adv-x="729" d="M512 707h-295q-54 0 -69 15t-17 69l-16 600q-1 54 13.5 69t68.5 15h338q52 0 66.5 -15t12.5 -69l-16 -600q-3 -55 -17.5 -69.5t-68.5 -14.5z" />
<glyph unicode="(" horiz-adv-x="878" d="M713 -164h-111q-142 0 -241.5 29.5t-156 87t-81.5 131t-25 170.5v965q0 98 25 171.5t81.5 131t156 87t241.5 29.5h111q38 0 55.5 -17.5t17.5 -55.5v-248q0 -38 -17.5 -56t-55.5 -18h-64q-48 0 -66 -23t-18 -79v-811q0 -56 18 -79.5t66 -23.5h64q38 0 55.5 -17.5 t17.5 -55.5v-244q0 -38 -17.5 -56t-55.5 -18z" />
<glyph unicode=")" horiz-adv-x="878" d="M276 -164h-110q-74 0 -74 74v244q0 38 18 55.5t56 17.5h63q48 0 66 23.5t18 79.5v811q0 56 -18 79t-66 23h-63q-74 0 -74 74v248q0 38 18 55.5t56 17.5h110q142 0 241.5 -29.5t156 -87t81.5 -131t25 -171.5v-965q0 -97 -25 -170.5t-81.5 -131t-156 -87t-241.5 -29.5z" />
<glyph unicode="*" horiz-adv-x="1470" d="M586 338q-25 -44 -44.5 -48.5t-64.5 23.5l-192 140q-43 31 -45.5 51.5t32.5 58.5l224 236l-312 51q-53 9 -63.5 26t6.5 68l74 227q15 51 34.5 60t65.5 -14l291 -132l-47 306q-7 52 6.5 68t66.5 16h240q53 0 66 -16t4 -68l-41 -306l280 132q46 23 65 14t36 -60l75 -227 q17 -51 6.5 -68t-63.5 -26l-313 -51l225 -236q35 -38 33 -58.5t-45 -51.5l-193 -140q-45 -28 -63 -23.5t-43 48.5l-152 289z" />
<glyph unicode="+" horiz-adv-x="1503" d="M952 203q0 -39 -17 -56.5t-56 -17.5h-254q-39 0 -56.5 17.5t-17.5 56.5v344h-334q-39 0 -56.5 17.5t-17.5 56.5v233q0 74 74 74h334v344q0 39 17.5 56.5t56.5 17.5h254q38 0 55.5 -18t17.5 -56v-344h334q39 0 56.5 -17.5t17.5 -56.5v-233q0 -39 -17.5 -56.5t-56.5 -17.5 h-334v-344z" />
<glyph unicode="," horiz-adv-x="786" d="M371 -205h-158q-39 0 -56.5 17.5t-17.5 56.5v82q0 74 74 74h141q56 0 56 57v31h-224q-38 0 -55.5 17.5t-17.5 55.5v303q0 38 17.5 56t55.5 18h414q74 0 74 -74v-385q0 -153 -80.5 -231t-222.5 -78z" />
<glyph unicode="-" horiz-adv-x="860" d="M156 526q-39 0 -56.5 17.5t-17.5 56.5v274q0 74 74 74h549q39 0 56 -17t17 -57v-274q0 -40 -17 -57t-56 -17h-549z" />
<glyph unicode="." horiz-adv-x="786" d="M600 0h-414q-38 0 -55.5 18t-17.5 56v415q0 39 17.5 56.5t55.5 17.5h414q39 0 56.5 -17.5t17.5 -56.5v-415q0 -74 -74 -74z" />
<glyph unicode="/" horiz-adv-x="710" d="M10 -111l246 1696q5 40 21 57t53 17h297q82 0 73 -74l-245 -1696q-5 -39 -21 -56t-53 -17h-297q-40 0 -59 18t-15 55z" />
<glyph unicode="0" horiz-adv-x="1488" d="M1370 387q0 -79 -16.5 -140t-58.5 -115t-112 -88.5t-180 -54.5t-258 -20t-258.5 20t-180 54.5t-112 88.5t-59 115t-16.5 140v698q0 79 16.5 140t59 115.5t112 89.5t180 55t258.5 20t258 -20t180 -55t112 -89.5t58.5 -115.5t16.5 -140v-698zM582 461q0 -47 33.5 -71.5 t129.5 -24.5q98 0 131 24.5t33 71.5v551q0 46 -33.5 70t-130.5 24q-96 0 -129.5 -24t-33.5 -70v-551z" />
<glyph unicode="1" horiz-adv-x="1230" d="M1077 0h-905q-74 0 -74 74v248q0 38 18 55.5t56 17.5h229v684h-188q-74 0 -74 74v248q0 74 74 74h594q74 0 74 -74v-1006h196q38 0 56 -17.5t18 -55.5v-248q0 -74 -74 -74z" />
<glyph unicode="2" horiz-adv-x="1308" d="M1130 0h-974q-74 0 -74 74v352q0 93 16 163t42 115t70 79t86.5 53t106.5 38l275 87q32 9 43.5 24t11.5 49q0 30 -12 41.5t-43 11.5h-445q-38 0 -55.5 18t-17.5 56v240q0 38 17.5 56t55.5 18h605q175 0 267.5 -87t92.5 -253v-193q0 -148 -79.5 -230.5t-239.5 -131.5 l-279 -88q-33 -10 -43 -20t-10 -42v-43h583q74 0 74 -74v-239q0 -74 -74 -74z" />
<glyph unicode="3" horiz-adv-x="1304" d="M174 387h514q45 0 61.5 16.5t16.5 45.5v55q0 28 -16 43.5t-62 15.5h-348q-74 0 -74 74v219q0 74 74 74h215q45 0 61.5 16t16.5 45v31q0 29 -16.5 45t-61.5 16h-381q-74 0 -74 74v244q0 74 74 74h571q167 0 251.5 -77.5t84.5 -215.5v-119q0 -169 -120 -221 q142 -17 200 -87.5t58 -209.5v-205q0 -161 -102 -250.5t-296 -89.5h-647q-74 0 -74 74v239q0 74 74 74z" />
<glyph unicode="4" horiz-adv-x="1452" d="M848 342h-346q-198 0 -285.5 81.5t-87.5 258.5v719q0 74 74 74h317q74 0 74 -74v-561q0 -32 17 -51t46 -19h191v631q0 74 74 74h315q74 0 74 -74v-1327q0 -74 -74 -74h-315q-74 0 -74 74v268z" />
<glyph unicode="5" horiz-adv-x="1325" d="M838 0h-652q-38 0 -55.5 18t-17.5 56v239q0 38 17.5 56t55.5 18h529q55 0 55 47v80q0 47 -55 47h-508q-74 0 -74 74v766q0 74 74 74h883q38 0 55.5 -18t17.5 -56v-244q0 -38 -17.5 -56t-55.5 -18h-492v-133h281q169 0 263.5 -82.5t94.5 -242.5v-285q0 -157 -107.5 -248.5 t-291.5 -91.5z" />
<glyph unicode="6" horiz-adv-x="1419" d="M733 -31q-148 0 -257 19.5t-177 53.5t-109 87.5t-56 113.5t-15 140v672q0 98 25 172t81.5 131t156 87t241.5 30h471q39 0 56 -17.5t17 -56.5v-242q0 -38 -17.5 -56t-55.5 -18h-383q-76 0 -102.5 -24t-26.5 -98v-45q99 30 260 30q138 0 231.5 -22.5t148.5 -70.5t78 -114 t23 -161v-197q0 -99 -26.5 -171t-91 -129t-182.5 -85.5t-290 -28.5zM582 537v-121q0 -37 27.5 -56.5t109.5 -19.5q85 0 113 19.5t28 56.5v121q0 36 -28 54.5t-113 18.5q-82 0 -109.5 -18.5t-27.5 -54.5z" />
<glyph unicode="7" horiz-adv-x="1284" d="M1104 1475q74 0 74 -74v-518q0 -97 -18.5 -163.5t-60.5 -112.5t-97.5 -75t-143.5 -55l-151 -45v-358q0 -74 -74 -74h-332q-74 0 -74 74v370q0 97 18.5 163.5t60.5 112.5t97.5 75t143.5 55l166 45v184h-561q-74 0 -74 74v248q0 74 74 74h952z" />
<glyph unicode="8" horiz-adv-x="1456" d="M1360 524v-198q0 -84 -30 -146.5t-99.5 -111.5t-195 -74t-306.5 -25t-306.5 25t-196 74t-100.5 111.5t-30 146.5v198q0 138 59.5 218t157.5 100q-120 52 -120 221v119q0 78 26.5 135.5t87.5 101t166.5 65t257.5 21.5t257 -21.5t164.5 -65t85.5 -100.5t26 -136v-119 q0 -169 -121 -221q98 -20 157.5 -100t59.5 -218zM600 983q0 -38 25 -57t104 -19q80 0 103.5 18.5t23.5 57.5v90q0 37 -23.5 55.5t-103.5 18.5q-79 0 -104 -19t-25 -55v-90zM549 403q0 -36 38.5 -55.5t141.5 -19.5q104 0 141 19t37 56v109q0 35 -37 54.5t-141 19.5 q-102 0 -141 -19.5t-39 -54.5v-109z" />
<glyph unicode="9" horiz-adv-x="1419" d="M797 0h-471q-39 0 -56.5 17.5t-17.5 56.5v241q0 74 74 74h383q76 0 102.5 24.5t26.5 98.5v45q-102 -31 -260 -31q-182 0 -289.5 42.5t-150 121t-42.5 205.5v197q0 99 26.5 171t91 128.5t182.5 85t290 28.5q124 0 220.5 -13t163 -39t112 -60.5t71.5 -82.5t36.5 -100 t10.5 -118v-672q0 -98 -25 -172t-81 -131.5t-155.5 -87t-241.5 -29.5zM838 938v121q0 37 -28 56.5t-110 19.5q-85 0 -113 -19.5t-28 -56.5v-121q0 -36 28.5 -55t112.5 -19q82 0 110 19t28 55z" />
<glyph unicode=":" horiz-adv-x="786" d="M600 0h-414q-38 0 -55.5 18t-17.5 56v415q0 39 17.5 56.5t55.5 17.5h414q39 0 56.5 -17.5t17.5 -56.5v-415q0 -74 -74 -74zM600 727h-414q-38 0 -55.5 18t-17.5 56v416q0 39 17 56t56 17h414q39 0 56.5 -17t17.5 -56v-416q0 -74 -74 -74z" />
<glyph unicode=";" horiz-adv-x="786" d="M371 -205h-158q-39 0 -56.5 17.5t-17.5 56.5v82q0 74 74 74h141q56 0 56 57v31h-224q-38 0 -55.5 17.5t-17.5 55.5v303q0 38 17.5 56t55.5 18h414q74 0 74 -74v-385q0 -153 -80.5 -231t-222.5 -78zM600 727h-414q-38 0 -55.5 18t-17.5 56v416q0 39 17 56t56 17h414 q39 0 56.5 -17t17.5 -56v-416q0 -74 -74 -74z" />
<glyph unicode="&#x3c;" horiz-adv-x="1462" d="M1204 121l-780 223q-68 20 -113 42.5t-80 58.5t-51 89t-16 128v147q0 75 16 128t51 89t80 58t113 42l780 224q74 15 74 -64v-270q0 -39 -17.5 -58.5t-56.5 -25.5l-588 -158q-21 -4 -27.5 -12t-6.5 -27t6.5 -27t27.5 -12l588 -157q39 -6 56.5 -25.5t17.5 -58.5v-271 q0 -78 -74 -63z" />
<glyph unicode="=" horiz-adv-x="1503" d="M217 854q-39 0 -56.5 17.5t-17.5 56.5v233q0 74 74 74h1069q39 0 56.5 -17.5t17.5 -56.5v-233q0 -39 -17.5 -56.5t-56.5 -17.5h-1069zM217 240q-39 0 -56.5 17t-17.5 56v234q0 74 74 74h1069q39 0 56.5 -17.5t17.5 -56.5v-234q0 -39 -17.5 -56t-56.5 -17h-1069z" />
<glyph unicode="&#x3e;" horiz-adv-x="1462" d="M1038 344l-780 -223q-74 -15 -74 63v271q0 39 17.5 58.5t56.5 25.5l588 157q21 4 28 12t7 27t-7 27t-28 12l-588 158q-39 6 -56.5 25.5t-17.5 58.5v270q0 79 74 64l780 -224q68 -20 113 -42t80 -58t51 -89t16 -128v-147q0 -75 -16 -128t-51 -89t-80 -58.5t-113 -42.5z " />
<glyph unicode="?" horiz-adv-x="1343" d="M934 559l-555 -76q-38 -4 -56 10.5t-24 53.5l-43 270q-11 75 68 84l407 57q31 4 43 18.5t12 45.5q0 57 -55 57h-565q-39 0 -56.5 17.5t-17.5 56.5v248q0 74 74 74h661q201 0 312.5 -93.5t111.5 -267.5v-215q0 -84 -21.5 -145.5t-64.5 -100.5t-99 -61t-132 -33zM705 0 h-375q-39 0 -56.5 17.5t-17.5 56.5v268q0 40 17 57t57 17h375q39 0 56 -17t17 -57v-268q0 -38 -17.5 -56t-55.5 -18z" />
<glyph unicode="@" horiz-adv-x="1775" d="M1278 -186h-389q-181 0 -315.5 24t-220 66t-137.5 106.5t-72.5 137.5t-20.5 167v840q0 95 20.5 168.5t72.5 139t137.5 107.5t220.5 66.5t315 24.5q181 0 315.5 -24.5t219.5 -66.5t137 -107.5t72 -139t20 -168.5v-532q0 -81 -10.5 -140.5t-40.5 -114t-80 -89t-132.5 -54.5 t-195.5 -20h-387q-102 0 -173.5 21t-112 62t-58 93.5t-17.5 122.5v395q0 146 81.5 223.5t279.5 77.5h461q53 0 53 -53v-715q74 0 100.5 47t26.5 139v545q0 71 -24.5 123t-85 93.5t-172.5 63t-277 21.5t-277.5 -21.5t-173 -63t-85.5 -93.5t-25 -123v-856q0 -56 15 -99 t53 -81.5t100.5 -63t161 -39t231.5 -14.5h389q38 0 54 -15.5t16 -53.5v-58q0 -38 -16 -53.5t-54 -15.5zM850 485h137v453h-117q-53 0 -71.5 -20t-18.5 -54v-309q0 -70 70 -70z" />
<glyph unicode="A" horiz-adv-x="1495" d="M676 1044l-96 -311h321l-96 311q-14 35 -39 35h-51q-25 0 -39 -35zM559 74q0 -74 -74 -74h-301q-38 0 -55.5 18t-17.5 56v540q0 123 79 328l179 465q23 68 104 68h551q79 0 102 -68l179 -465q79 -205 79 -328v-540q0 -38 -17.5 -56t-55.5 -18h-310q-41 0 -60 18t-19 56 v286h-363v-286z" />
<glyph unicode="B" horiz-adv-x="1484" d="M1001 0h-786q-74 0 -74 74v1327q0 74 74 74h653q201 0 297.5 -76.5t96.5 -237.5v-98q0 -169 -121 -221q132 -12 195 -89.5t63 -228.5v-188q0 -172 -97 -254t-301 -82zM602 1126v-221h174q78 0 78 82v57q0 82 -78 82h-174zM602 590v-242h266q78 0 78 82v80q0 80 -78 80 h-266z" />
<glyph unicode="C" horiz-adv-x="1286" d="M1122 0h-499q-258 0 -381 102t-123 316v637q0 215 123 317.5t381 102.5h499q74 0 74 -74v-248q0 -74 -74 -74h-411q-64 0 -94.5 -24.5t-30.5 -77.5v-488q0 -51 30 -74.5t95 -23.5h411q74 0 74 -74v-243q0 -74 -74 -74z" />
<glyph unicode="D" horiz-adv-x="1527" d="M905 0h-690q-74 0 -74 74v1327q0 74 74 74h690q258 0 381 -102t123 -316v-639q0 -214 -123 -316t-381 -102zM606 1083v-696h244q50 0 73 24t23 76v498q0 51 -23 74.5t-73 23.5h-244z" />
<glyph unicode="E" horiz-adv-x="1339" d="M1165 0h-950q-74 0 -74 74v1327q0 74 74 74h950q74 0 74 -74v-240q0 -74 -74 -74h-565v-157h399q74 0 74 -74v-219q0 -74 -74 -74h-399v-176h565q74 0 74 -74v-239q0 -74 -74 -74z" />
<glyph unicode="F" horiz-adv-x="1265" d="M532 0h-317q-74 0 -74 74v1327q0 74 74 74h913q74 0 74 -74v-244q0 -74 -74 -74h-522v-213h357q38 0 55.5 -17.5t17.5 -55.5v-246q0 -38 -17.5 -56t-55.5 -18h-357v-403q0 -74 -74 -74z" />
<glyph unicode="G" horiz-adv-x="1449" d="M1268 0h-645q-258 0 -381 102t-123 316v639q0 214 123 316t381 102h512q38 0 55.5 -18t17.5 -56v-248q0 -38 -17.5 -56t-55.5 -18h-426q-64 0 -94.5 -24.5t-30.5 -77.5v-490q0 -52 23 -76t71 -24h199v320q0 38 17.5 55.5t55.5 17.5h318q38 0 55.5 -17.5t17.5 -55.5v-633 q0 -38 -17.5 -56t-55.5 -18z" />
<glyph unicode="H" horiz-adv-x="1554" d="M532 0h-317q-74 0 -74 74v1327q0 74 74 74h317q74 0 74 -74v-445h342v445q0 74 74 74h317q74 0 74 -74v-1327q0 -74 -74 -74h-317q-74 0 -74 74v454h-342v-454q0 -74 -74 -74z" />
<glyph unicode="I" horiz-adv-x="1239" d="M182 0q-38 0 -55.5 18t-17.5 56v243q0 38 17.5 56t55.5 18h203v688h-203q-38 0 -55.5 18t-17.5 56v248q0 38 17.5 56t55.5 18h873q38 0 55.5 -18t17.5 -56v-248q0 -38 -17.5 -56t-55.5 -18h-199v-688h199q38 0 55.5 -18t17.5 -56v-243q0 -38 -17.5 -56t-55.5 -18h-873z " />
<glyph unicode="J" horiz-adv-x="1409" d="M1278 387q0 -79 -16 -140t-57 -114.5t-108 -88.5t-172.5 -55t-246.5 -20q-140 0 -244.5 20t-171 54.5t-106.5 88.5t-56 115t-16 140v332q0 39 17.5 56.5t56.5 17.5h297q39 0 56 -17.5t17 -56.5v-250q0 -48 29 -72t117 -24q82 0 108.5 24t26.5 72v932q0 74 74 74h321 q74 0 74 -74v-1014z" />
<glyph unicode="K" horiz-adv-x="1527" d="M532 0h-317q-74 0 -74 74v1327q0 74 74 74h317q74 0 74 -74v-471h82l211 477q15 37 38.5 52.5t63.5 15.5h316q35 0 47 -18t-2 -50l-209 -477q116 -6 184 -81t68 -198v-577q0 -74 -74 -74h-315q-74 0 -74 74v399q0 70 -65 70h-271v-469q0 -74 -74 -74z" />
<glyph unicode="L" horiz-adv-x="1423" d="M1257 0h-1042q-74 0 -74 74v1327q0 74 74 74h317q74 0 74 -74v-1014h281v332q0 74 74 74h296q74 0 74 -74v-645q0 -74 -74 -74z" />
<glyph unicode="M" horiz-adv-x="1738" d="M520 0h-305q-74 0 -74 74v1327q0 74 74 74h330q32 0 53.5 -14t40.5 -48l184 -334q11 -20 18.5 -27.5t18.5 -7.5h19q11 0 17.5 7t18.5 28l183 334q19 34 40.5 48t53.5 14h332q38 0 55.5 -18t17.5 -56v-1327q0 -38 -17.5 -56t-55.5 -18h-316q-39 0 -56 17.5t-17 56.5v721 l-121 -224q-19 -35 -44 -50t-65 -15h-82q-40 0 -64.5 15t-43.5 50l-121 224v-721q0 -74 -74 -74z" />
<glyph unicode="N" horiz-adv-x="1542" d="M522 0h-307q-74 0 -74 74v1327q0 74 74 74h213q40 0 67.5 -12.5t53.5 -43.5l397 -454v436q0 74 74 74h307q74 0 74 -74v-1327q0 -74 -74 -74h-307q-74 0 -74 74v252l-350 424v-676q0 -74 -74 -74z" />
<glyph unicode="O" d="M1391 387q0 -79 -16.5 -140t-59.5 -115t-114 -88.5t-182.5 -54.5t-262.5 -20t-263 20t-183 54.5t-114 88.5t-60 115t-17 140v698q0 79 17 140t60 115.5t114 89.5t183.5 55t262.5 20t262 -20t183 -55t114 -89.5t59.5 -115.5t16.5 -140v-698zM584 461q0 -47 35 -71.5 t137 -24.5q103 0 137.5 24t34.5 72v551q0 30 -11 48.5t-50.5 32t-110.5 13.5q-102 0 -137 -24t-35 -70v-551z" />
<glyph unicode="P" horiz-adv-x="1396" d="M532 0h-317q-74 0 -74 74v1327q0 74 74 74h627q136 0 232 -28.5t150 -83t77.5 -124.5t23.5 -164v-262q0 -94 -23.5 -163.5t-77.5 -124.5t-150 -83t-232 -28h-236v-340q0 -74 -74 -74zM602 1092v-310h184q97 0 97 101v108q0 101 -97 101h-184z" />
<glyph unicode="Q" d="M911 -184h-315q-38 0 -56 17.5t-18 55.5v113q-116 17 -196 53t-124.5 90t-63.5 116.5t-19 144.5v679q0 79 17 140t60 115.5t114 89.5t183.5 55t262.5 20t262 -20t183 -55t114 -89.5t59.5 -115.5t16.5 -140v-679q0 -82 -18.5 -145t-63 -117t-125.5 -90t-199 -52v-113 q0 -38 -18 -55.5t-56 -17.5zM584 451q0 -47 35 -72t137 -25q103 0 137.5 24.5t34.5 72.5v559q0 30 -11 48.5t-50.5 32t-110.5 13.5q-102 0 -137 -24t-35 -70v-559z" />
<glyph unicode="R" horiz-adv-x="1521" d="M604 1106v-262h154q50 0 70 25t20 71v70q0 46 -20 71t-70 25h-154zM530 0h-315q-74 0 -74 74v1327q0 74 74 74h682q218 0 310.5 -89t92.5 -253v-95q0 -91 -26 -148.5t-88 -84.5q114 -12 181 -90.5t67 -206.5v-434q0 -74 -74 -74h-318q-38 0 -55.5 18t-17.5 56v313 q0 46 -18 67t-60 21h-287v-401q0 -74 -74 -74z" />
<glyph unicode="S" horiz-adv-x="1331" d="M825 0h-647q-74 0 -74 74v239q0 74 74 74h551q25 0 39 16.5t14 42.5q0 64 -53 70l-307 43q-156 23 -237 100.5t-81 239.5v215q0 174 111.5 267.5t312.5 93.5h574q74 0 74 -74v-244q0 -74 -74 -74h-477q-26 0 -41 -16.5t-15 -44.5t15 -45.5t41 -20.5l305 -41 q76 -11 132 -33.5t99.5 -61t65.5 -100t22 -145.5v-215q0 -173 -112 -266.5t-312 -93.5z" />
<glyph unicode="T" horiz-adv-x="1343" d="M838 0h-332q-74 0 -74 74v1005h-301q-74 0 -74 74v248q0 74 74 74h1081q74 0 74 -74v-248q0 -74 -74 -74h-301v-1005q0 -38 -17.5 -56t-55.5 -18z" />
<glyph unicode="U" horiz-adv-x="1527" d="M1397 387q0 -79 -17 -140t-60 -115t-113.5 -88.5t-182 -54.5t-260.5 -20t-260.5 20t-182 54.5t-113.5 88.5t-60 115t-17 140v1014q0 74 74 74h321q74 0 74 -74v-934q0 -47 34.5 -71.5t133.5 -24.5q100 0 135 24.5t35 71.5v934q0 39 17.5 56.5t56.5 17.5h311q74 0 74 -74 v-1014z" />
<glyph unicode="V" horiz-adv-x="1495" d="M1014 0h-533q-41 0 -65 15.5t-39 52.5l-201 501q-41 103 -53 152t-12 139v541q0 38 17.5 56t55.5 18h326q80 0 80 -74v-565q0 -34 16 -84l96 -287q6 -20 14 -27.5t25 -7.5h23q17 0 25 7.5t14 27.5l96 289q16 50 16 84v563q0 74 74 74h322q39 0 56 -17.5t17 -56.5v-541 q0 -90 -12 -139t-53 -152l-201 -501q-15 -37 -39 -52.5t-65 -15.5z" />
<glyph unicode="W" horiz-adv-x="1701" d="M1200 1475h305q74 0 74 -74v-795q0 -56 -1.5 -85.5t-10 -75.5t-25.5 -93l-102 -278q-25 -74 -82 -74h-273q-77 0 -94 61l-94 334q-10 35 -37 35h-18q-27 0 -37 -35l-96 -334q-18 -61 -86 -61h-271q-66 0 -90 74l-102 282q-17 47 -25.5 93t-10 75.5t-1.5 85.5v791 q0 74 74 74h315q74 0 74 -74v-754l119 258q17 35 42.5 49.5t65.5 14.5h86q78 0 109 -64l118 -258v754q0 39 17.5 56.5t56.5 17.5z" />
<glyph unicode="X" d="M582 74q0 -74 -74 -74h-311q-74 0 -74 74v219q0 92 15.5 139.5t62.5 112.5l166 223l-166 223q-48 64 -63 111t-15 141v158q0 74 74 74h315q74 0 74 -74v-141q0 -59 18 -86l90 -130q21 -34 49 -34h25q16 0 26 7.5t23 26.5l92 130q19 28 19 86v141q0 38 17.5 56t55.5 18 h312q38 0 55.5 -18t17.5 -56v-158q0 -93 -15 -140t-62 -112l-166 -225l166 -221q48 -64 62.5 -111t14.5 -141v-219q0 -38 -17.5 -56t-55.5 -18h-312q-38 0 -55.5 18t-17.5 56v202q0 58 -19 86l-90 130q-13 20 -22.5 27t-26.5 7h-29q-17 0 -26.5 -7t-22.5 -27l-92 -130 q-18 -26 -18 -86v-202z" />
<glyph unicode="Y" horiz-adv-x="1443" d="M889 0h-332q-39 0 -56.5 17.5t-17.5 56.5v262l-313 420q-48 64 -63 111t-15 141v393q0 74 74 74h315q74 0 74 -74v-336q0 -57 18 -86l95 -148q19 -34 49 -34h20q30 0 49 34l95 148q18 29 18 86v336q0 74 74 74h305q74 0 74 -74v-393q0 -92 -15.5 -139.5t-62.5 -112.5 l-311 -422v-260q0 -74 -74 -74z" />
<glyph unicode="Z" horiz-adv-x="1351" d="M1184 0h-1016q-74 0 -74 74v274q0 73 51 127l498 604h-438q-74 0 -74 74v248q0 74 74 74h942q74 0 74 -74v-305q0 -74 -52 -129l-475 -576h490q38 0 55.5 -18t17.5 -56v-243q0 -38 -17.5 -56t-55.5 -18z" />
<glyph unicode="[" horiz-adv-x="878" d="M565 1243v-1016h148q38 0 55.5 -17.5t17.5 -55.5v-244q0 -38 -17.5 -56t-55.5 -18h-541q-74 0 -74 74v1655q0 38 18 55.5t56 17.5h541q38 0 55.5 -17.5t17.5 -55.5v-248q0 -38 -17.5 -56t-55.5 -18h-148z" />
<glyph unicode="\" horiz-adv-x="710" d="M455 1585l245 -1696q9 -73 -73 -73h-297q-37 0 -53 17t-21 56l-246 1696q-9 74 74 74h297q37 0 53 -17t21 -57z" />
<glyph unicode="]" horiz-adv-x="878" d="M313 227v1016h-147q-74 0 -74 74v248q0 38 18 55.5t56 17.5h541q38 0 55.5 -17.5t17.5 -55.5v-1655q0 -38 -17.5 -56t-55.5 -18h-541q-74 0 -74 74v244q0 38 18 55.5t56 17.5h147z" />
<glyph unicode="^" horiz-adv-x="1462" d="M82 426l221 780q20 68 42.5 113t58.5 81t89 52t128 16h149q75 0 127.5 -16t88.5 -52t58 -80.5t43 -113.5l222 -780q15 -74 -62 -74l-270 -2q-39 -1 -59 16t-25 56l-160 592q-5 22 -12 29t-25 6q-20 1 -27 -6t-12 -29l-159 -592q-5 -39 -25 -56t-59 -16l-271 2 q-76 0 -61 74z" />
<glyph unicode="_" horiz-adv-x="1503" d="M217 -211q-39 0 -56.5 17.5t-17.5 56.5v274q0 74 74 74h1069q39 0 56.5 -17.5t17.5 -56.5v-274q0 -39 -17.5 -56.5t-56.5 -17.5h-1069z" />
<glyph unicode="`" horiz-adv-x="1024" d="M870 1542l-714 88q-40 5 -57 21t-17 53v197q0 76 70 67l714 -88q40 -5 57 -21t17 -53v-196q0 -36 -18 -54t-52 -14z" />
<glyph unicode="a" horiz-adv-x="1495" d="M676 1044l-96 -311h321l-96 311q-14 35 -39 35h-51q-25 0 -39 -35zM559 74q0 -74 -74 -74h-301q-38 0 -55.5 18t-17.5 56v540q0 123 79 328l179 465q23 68 104 68h551q79 0 102 -68l179 -465q79 -205 79 -328v-540q0 -38 -17.5 -56t-55.5 -18h-310q-41 0 -60 18t-19 56 v286h-363v-286z" />
<glyph unicode="b" horiz-adv-x="1484" d="M1001 0h-786q-74 0 -74 74v1327q0 74 74 74h653q201 0 297.5 -76.5t96.5 -237.5v-98q0 -169 -121 -221q132 -12 195 -89.5t63 -228.5v-188q0 -172 -97 -254t-301 -82zM602 1126v-221h174q78 0 78 82v57q0 82 -78 82h-174zM602 590v-242h266q78 0 78 82v80q0 80 -78 80 h-266z" />
<glyph unicode="c" horiz-adv-x="1286" d="M1122 0h-499q-258 0 -381 102t-123 316v637q0 215 123 317.5t381 102.5h499q74 0 74 -74v-248q0 -74 -74 -74h-411q-64 0 -94.5 -24.5t-30.5 -77.5v-488q0 -51 30 -74.5t95 -23.5h411q74 0 74 -74v-243q0 -74 -74 -74z" />
<glyph unicode="d" horiz-adv-x="1527" d="M905 0h-690q-74 0 -74 74v1327q0 74 74 74h690q258 0 381 -102t123 -316v-639q0 -214 -123 -316t-381 -102zM606 1083v-696h244q50 0 73 24t23 76v498q0 51 -23 74.5t-73 23.5h-244z" />
<glyph unicode="e" horiz-adv-x="1339" d="M1165 0h-950q-74 0 -74 74v1327q0 74 74 74h950q74 0 74 -74v-240q0 -74 -74 -74h-565v-157h399q74 0 74 -74v-219q0 -74 -74 -74h-399v-176h565q74 0 74 -74v-239q0 -74 -74 -74z" />
<glyph unicode="f" horiz-adv-x="1265" d="M532 0h-317q-74 0 -74 74v1327q0 74 74 74h913q74 0 74 -74v-244q0 -74 -74 -74h-522v-213h357q38 0 55.5 -17.5t17.5 -55.5v-246q0 -38 -17.5 -56t-55.5 -18h-357v-403q0 -74 -74 -74z" />
<glyph unicode="g" horiz-adv-x="1449" d="M1268 0h-645q-258 0 -381 102t-123 316v639q0 214 123 316t381 102h512q38 0 55.5 -18t17.5 -56v-248q0 -38 -17.5 -56t-55.5 -18h-426q-64 0 -94.5 -24.5t-30.5 -77.5v-490q0 -52 23 -76t71 -24h199v320q0 38 17.5 55.5t55.5 17.5h318q38 0 55.5 -17.5t17.5 -55.5v-633 q0 -38 -17.5 -56t-55.5 -18z" />
<glyph unicode="h" horiz-adv-x="1554" d="M532 0h-317q-74 0 -74 74v1327q0 74 74 74h317q74 0 74 -74v-445h342v445q0 74 74 74h317q74 0 74 -74v-1327q0 -74 -74 -74h-317q-74 0 -74 74v454h-342v-454q0 -74 -74 -74z" />
<glyph unicode="i" horiz-adv-x="1239" d="M182 0q-38 0 -55.5 18t-17.5 56v243q0 38 17.5 56t55.5 18h203v688h-203q-38 0 -55.5 18t-17.5 56v248q0 38 17.5 56t55.5 18h873q38 0 55.5 -18t17.5 -56v-248q0 -38 -17.5 -56t-55.5 -18h-199v-688h199q38 0 55.5 -18t17.5 -56v-243q0 -38 -17.5 -56t-55.5 -18h-873z " />
<glyph unicode="j" horiz-adv-x="1409" d="M1278 387q0 -79 -16 -140t-57 -114.5t-108 -88.5t-172.5 -55t-246.5 -20q-140 0 -244.5 20t-171 54.5t-106.5 88.5t-56 115t-16 140v332q0 39 17.5 56.5t56.5 17.5h297q39 0 56 -17.5t17 -56.5v-250q0 -48 29 -72t117 -24q82 0 108.5 24t26.5 72v932q0 74 74 74h321 q74 0 74 -74v-1014z" />
<glyph unicode="k" horiz-adv-x="1527" d="M532 0h-317q-74 0 -74 74v1327q0 74 74 74h317q74 0 74 -74v-471h82l211 477q15 37 38.5 52.5t63.5 15.5h316q35 0 47 -18t-2 -50l-209 -477q116 -6 184 -81t68 -198v-577q0 -74 -74 -74h-315q-74 0 -74 74v399q0 70 -65 70h-271v-469q0 -74 -74 -74z" />
<glyph unicode="l" horiz-adv-x="1423" d="M1257 0h-1042q-74 0 -74 74v1327q0 74 74 74h317q74 0 74 -74v-1014h281v332q0 74 74 74h296q74 0 74 -74v-645q0 -74 -74 -74z" />
<glyph unicode="m" horiz-adv-x="1738" d="M520 0h-305q-74 0 -74 74v1327q0 74 74 74h330q32 0 53.5 -14t40.5 -48l184 -334q11 -20 18.5 -27.5t18.5 -7.5h19q11 0 17.5 7t18.5 28l183 334q19 34 40.5 48t53.5 14h332q38 0 55.5 -18t17.5 -56v-1327q0 -38 -17.5 -56t-55.5 -18h-316q-39 0 -56 17.5t-17 56.5v721 l-121 -224q-19 -35 -44 -50t-65 -15h-82q-40 0 -64.5 15t-43.5 50l-121 224v-721q0 -74 -74 -74z" />
<glyph unicode="n" horiz-adv-x="1542" d="M522 0h-307q-74 0 -74 74v1327q0 74 74 74h213q40 0 67.5 -12.5t53.5 -43.5l397 -454v436q0 74 74 74h307q74 0 74 -74v-1327q0 -74 -74 -74h-307q-74 0 -74 74v252l-350 424v-676q0 -74 -74 -74z" />
<glyph unicode="o" d="M1391 387q0 -79 -16.5 -140t-59.5 -115t-114 -88.5t-182.5 -54.5t-262.5 -20t-263 20t-183 54.5t-114 88.5t-60 115t-17 140v698q0 79 17 140t60 115.5t114 89.5t183.5 55t262.5 20t262 -20t183 -55t114 -89.5t59.5 -115.5t16.5 -140v-698zM584 461q0 -47 35 -71.5 t137 -24.5q103 0 137.5 24t34.5 72v551q0 30 -11 48.5t-50.5 32t-110.5 13.5q-102 0 -137 -24t-35 -70v-551z" />
<glyph unicode="p" horiz-adv-x="1396" d="M532 0h-317q-74 0 -74 74v1327q0 74 74 74h627q136 0 232 -28.5t150 -83t77.5 -124.5t23.5 -164v-262q0 -94 -23.5 -163.5t-77.5 -124.5t-150 -83t-232 -28h-236v-340q0 -74 -74 -74zM602 1092v-310h184q97 0 97 101v108q0 101 -97 101h-184z" />
<glyph unicode="q" d="M911 -184h-315q-38 0 -56 17.5t-18 55.5v113q-116 17 -196 53t-124.5 90t-63.5 116.5t-19 144.5v679q0 79 17 140t60 115.5t114 89.5t183.5 55t262.5 20t262 -20t183 -55t114 -89.5t59.5 -115.5t16.5 -140v-679q0 -82 -18.5 -145t-63 -117t-125.5 -90t-199 -52v-113 q0 -38 -18 -55.5t-56 -17.5zM584 451q0 -47 35 -72t137 -25q103 0 137.5 24.5t34.5 72.5v559q0 30 -11 48.5t-50.5 32t-110.5 13.5q-102 0 -137 -24t-35 -70v-559z" />
<glyph unicode="r" horiz-adv-x="1521" d="M604 1106v-262h154q50 0 70 25t20 71v70q0 46 -20 71t-70 25h-154zM530 0h-315q-74 0 -74 74v1327q0 74 74 74h682q218 0 310.5 -89t92.5 -253v-95q0 -91 -26 -148.5t-88 -84.5q114 -12 181 -90.5t67 -206.5v-434q0 -74 -74 -74h-318q-38 0 -55.5 18t-17.5 56v313 q0 46 -18 67t-60 21h-287v-401q0 -74 -74 -74z" />
<glyph unicode="s" horiz-adv-x="1331" d="M825 0h-647q-74 0 -74 74v239q0 74 74 74h551q25 0 39 16.5t14 42.5q0 64 -53 70l-307 43q-156 23 -237 100.5t-81 239.5v215q0 174 111.5 267.5t312.5 93.5h574q74 0 74 -74v-244q0 -74 -74 -74h-477q-26 0 -41 -16.5t-15 -44.5t15 -45.5t41 -20.5l305 -41 q76 -11 132 -33.5t99.5 -61t65.5 -100t22 -145.5v-215q0 -173 -112 -266.5t-312 -93.5z" />
<glyph unicode="t" horiz-adv-x="1343" d="M838 0h-332q-74 0 -74 74v1005h-301q-74 0 -74 74v248q0 74 74 74h1081q74 0 74 -74v-248q0 -74 -74 -74h-301v-1005q0 -38 -17.5 -56t-55.5 -18z" />
<glyph unicode="u" horiz-adv-x="1527" d="M1397 387q0 -79 -17 -140t-60 -115t-113.5 -88.5t-182 -54.5t-260.5 -20t-260.5 20t-182 54.5t-113.5 88.5t-60 115t-17 140v1014q0 74 74 74h321q74 0 74 -74v-934q0 -47 34.5 -71.5t133.5 -24.5q100 0 135 24.5t35 71.5v934q0 39 17.5 56.5t56.5 17.5h311q74 0 74 -74 v-1014z" />
<glyph unicode="v" horiz-adv-x="1495" d="M1014 0h-533q-41 0 -65 15.5t-39 52.5l-201 501q-41 103 -53 152t-12 139v541q0 38 17.5 56t55.5 18h326q80 0 80 -74v-565q0 -34 16 -84l96 -287q6 -20 14 -27.5t25 -7.5h23q17 0 25 7.5t14 27.5l96 289q16 50 16 84v563q0 74 74 74h322q39 0 56 -17.5t17 -56.5v-541 q0 -90 -12 -139t-53 -152l-201 -501q-15 -37 -39 -52.5t-65 -15.5z" />
<glyph unicode="w" horiz-adv-x="1701" d="M1200 1475h305q74 0 74 -74v-795q0 -56 -1.5 -85.5t-10 -75.5t-25.5 -93l-102 -278q-25 -74 -82 -74h-273q-77 0 -94 61l-94 334q-10 35 -37 35h-18q-27 0 -37 -35l-96 -334q-18 -61 -86 -61h-271q-66 0 -90 74l-102 282q-17 47 -25.5 93t-10 75.5t-1.5 85.5v791 q0 74 74 74h315q74 0 74 -74v-754l119 258q17 35 42.5 49.5t65.5 14.5h86q78 0 109 -64l118 -258v754q0 39 17.5 56.5t56.5 17.5z" />
<glyph unicode="x" d="M582 74q0 -74 -74 -74h-311q-74 0 -74 74v219q0 92 15.5 139.5t62.5 112.5l166 223l-166 223q-48 64 -63 111t-15 141v158q0 74 74 74h315q74 0 74 -74v-141q0 -59 18 -86l90 -130q21 -34 49 -34h25q16 0 26 7.5t23 26.5l92 130q19 28 19 86v141q0 38 17.5 56t55.5 18 h312q38 0 55.5 -18t17.5 -56v-158q0 -93 -15 -140t-62 -112l-166 -225l166 -221q48 -64 62.5 -111t14.5 -141v-219q0 -38 -17.5 -56t-55.5 -18h-312q-38 0 -55.5 18t-17.5 56v202q0 58 -19 86l-90 130q-13 20 -22.5 27t-26.5 7h-29q-17 0 -26.5 -7t-22.5 -27l-92 -130 q-18 -26 -18 -86v-202z" />
<glyph unicode="y" horiz-adv-x="1443" d="M889 0h-332q-39 0 -56.5 17.5t-17.5 56.5v262l-313 420q-48 64 -63 111t-15 141v393q0 74 74 74h315q74 0 74 -74v-336q0 -57 18 -86l95 -148q19 -34 49 -34h20q30 0 49 34l95 148q18 29 18 86v336q0 74 74 74h305q74 0 74 -74v-393q0 -92 -15.5 -139.5t-62.5 -112.5 l-311 -422v-260q0 -74 -74 -74z" />
<glyph unicode="z" horiz-adv-x="1351" d="M1184 0h-1016q-74 0 -74 74v274q0 73 51 127l498 604h-438q-74 0 -74 74v248q0 74 74 74h942q74 0 74 -74v-305q0 -74 -52 -129l-475 -576h490q38 0 55.5 -18t17.5 -56v-243q0 -38 -17.5 -56t-55.5 -18z" />
<glyph unicode="{" horiz-adv-x="931" d="M639 330q0 -56 18 -79.5t66 -23.5h43q38 0 56 -17.5t18 -55.5v-244q0 -74 -74 -74h-90q-142 0 -241.5 29.5t-156 87t-81.5 131t-25 170.5v266q-67 21 -99 63.5t-32 114.5v72q0 72 32 113.5t99 62.5v273q0 98 25 171.5t81.5 131t156 87t241.5 29.5h90q38 0 56 -17.5 t18 -55.5v-248q0 -74 -74 -74h-43q-48 0 -66 -23t-18 -79v-240q0 -63 -19.5 -90.5t-72.5 -36.5l-68 -12q-26 -3 -26 -29q0 -13 5.5 -19t20.5 -9l68 -13q53 -9 72.5 -36.5t19.5 -90.5v-235z" />
<glyph unicode="|" horiz-adv-x="710" d="M578 1585v-1696q0 -38 -18 -55.5t-56 -17.5h-297q-38 0 -56 17.5t-18 55.5v1696q0 74 74 74h297q74 0 74 -74z" />
<glyph unicode="}" horiz-adv-x="931" d="M293 330v235q0 63 19.5 90.5t72.5 36.5l68 13q15 3 20.5 9t5.5 19q0 26 -26 29l-68 12q-53 9 -72.5 36.5t-19.5 90.5v240q0 56 -18 79t-66 23h-43q-74 0 -74 74v248q0 38 18 55.5t56 17.5h90q142 0 241.5 -29.5t156 -87t81.5 -131t25 -171.5v-273q67 -21 99 -62.5 t32 -113.5v-72q0 -72 -32 -114.5t-99 -63.5v-266q0 -97 -25 -170.5t-81.5 -131t-156 -87t-241.5 -29.5h-90q-74 0 -74 74v244q0 38 18 55.5t56 17.5h43q48 0 66 23.5t18 79.5z" />
<glyph unicode="~" horiz-adv-x="1503" d="M752 567l-82 11q-110 16 -177.5 17t-111.5 -8t-133 -36q-51 -13 -78 1t-27 50v217q0 49 20 73t56 36q147 51 233.5 52.5t249.5 -28.5l50 -6l63 -8q81 -12 131 -16t82 -7t74.5 6t61 14t89.5 26q107 30 107 -64v-203q0 -48 -20.5 -71.5t-55.5 -36.5q-147 -52 -235 -53.5 t-250 28.5z" />
<glyph unicode="&#xa1;" horiz-adv-x="866" d="M246 1475h377q38 0 55.5 -18t17.5 -56v-268q0 -39 -17 -56.5t-56 -17.5h-377q-39 0 -56.5 17.5t-17.5 56.5v268q0 74 74 74zM274 938h318q75 0 78 -74l28 -790q2 -39 -14.5 -56.5t-54.5 -17.5h-391q-38 0 -55 18t-15 56l31 790q2 39 19.5 56.5t55.5 17.5z" />
<glyph unicode="&#xa2;" horiz-adv-x="1286" d="M965 -29q0 -38 -18 -55.5t-56 -17.5h-297q-38 0 -56 17.5t-18 55.5v115q-217 21 -309 127t-92 287v473q0 88 20 156.5t65.5 124.5t124.5 90t191 45v114q0 74 74 74h297q74 0 74 -74v-110h157q74 0 74 -74v-248q0 -74 -74 -74h-411q-73 0 -99 -27.5t-26 -74.5v-324 q0 -48 25.5 -73t99.5 -25h411q74 0 74 -74v-243q0 -74 -74 -74h-157v-111z" />
<glyph unicode="&#xa3;" horiz-adv-x="1423" d="M1331 74q0 -74 -74 -74h-1042q-74 0 -74 74v469h-26q-39 0 -56.5 17t-17.5 56v220q0 38 18 55.5t56 17.5h26v148q0 97 25 170.5t81.5 131t156 87t241.5 29.5h389q74 0 74 -74v-248q0 -74 -74 -74h-303q-73 0 -99 -27.5t-26 -74.5v-68h99q39 0 56 -17t17 -56v-220 q0 -39 -17 -56t-56 -17h-99v-156h281v209q0 74 74 74h296q74 0 74 -74v-522z" />
<glyph unicode="&#xa4;" horiz-adv-x="1681" d="M682 592q0 -45 34 -68.5t130 -23.5q98 0 131 23.5t33 68.5v289q0 44 -33.5 67t-130.5 23q-96 0 -130 -23t-34 -67v-289zM377 16q-25 -27 -48 -27t-53 27l-155 156q-50 53 0 100l192 193q-4 40 -4 67v408q0 24 4 70l-192 192q-27 25 -27 47.5t27 50.5l155 156q53 53 101 0 l174 -174q110 37 295 37q176 0 289 -35l172 172q25 28 47.5 28.5t50.5 -28.5l156 -156q29 -28 28.5 -50.5t-28.5 -47.5l-185 -184q4 -50 4 -78v-408q0 -25 -4 -75l185 -185q28 -25 28.5 -47.5t-28.5 -52.5l-156 -156q-28 -27 -50.5 -27t-47.5 27l-172 172q-118 -32 -289 -32 q-183 0 -295 34z" />
<glyph unicode="&#xa5;" horiz-adv-x="1439" d="M950 74q0 -38 -17.5 -56t-55.5 -18h-312q-39 0 -56 17.5t-17 56.5v192h-224q-38 0 -55.5 17t-17.5 57v199q0 38 17.5 55.5t55.5 17.5h109l-227 293q-28 37 -41.5 83.5t-16 81.5t-2.5 101v230q0 74 74 74h317q74 0 74 -74v-295q0 -49 16 -84l95 -133q24 -35 53 -35h24 q32 0 54 35l88 131q16 26 16 84v297q0 39 17.5 56.5t56.5 17.5h301q74 0 74 -74v-232q0 -95 -10.5 -154t-49.5 -112l-225 -291h109q39 0 56 -17t17 -56v-199q0 -40 -17.5 -57t-55.5 -17h-224v-192z" />
<glyph unicode="&#xa6;" horiz-adv-x="710" d="M578 1585v-692q0 -74 -74 -74h-297q-74 0 -74 74v692q0 74 74 74h297q74 0 74 -74zM578 582v-693q0 -38 -18 -55.5t-56 -17.5h-297q-38 0 -56 17.5t-18 55.5v693q0 38 18 55.5t56 17.5h297q38 0 56 -17.5t18 -55.5z" />
<glyph unicode="&#xa7;" horiz-adv-x="1331" d="M745 0h-544q-74 0 -74 74v166q0 38 18 55.5t56 17.5h477q72 0 98.5 28t26.5 75v4h-193q-142 0 -241.5 29.5t-156 87t-81.5 131t-25 170.5v217q0 98 25 172t81.5 131t156 87t241.5 30h492q74 0 74 -74v-166q0 -74 -74 -74h-424q-73 0 -99 -27.5t-26 -74.5v-4h192 q142 0 241.5 -29.5t156 -87t81.5 -131t25 -170.5v-217q0 -98 -25 -172t-81.5 -131t-156 -87t-241.5 -30zM678 668h125v41q0 48 -25.5 73t-99.5 25h-125v-41q0 -48 25.5 -73t99.5 -25z" />
<glyph unicode="&#xa8;" horiz-adv-x="1024" d="M913 1556h-282q-68 0 -68 68v248q0 35 16.5 51t51.5 16h282q35 0 51.5 -16t16.5 -51v-248q0 -68 -68 -68zM385 1556h-283q-69 0 -69 68v248q0 67 69 67h283q35 0 51.5 -16t16.5 -51v-248q0 -68 -68 -68z" />
<glyph unicode="&#xa9;" horiz-adv-x="1775" d="M1653 315q0 -95 -20 -167.5t-72 -137.5t-137 -106.5t-219.5 -65.5t-315.5 -24t-315.5 24t-220 66t-137.5 106.5t-72.5 137.5t-20.5 167v840q0 95 20.5 168.5t72.5 139t137.5 107.5t220.5 66.5t315 24.5q181 0 315.5 -24.5t219.5 -66.5t137 -107.5t72 -139t20 -168.5v-840 zM1448 307v856q0 71 -24.5 123t-85 93.5t-172.5 63t-277 21.5t-277.5 -21.5t-173 -63t-85.5 -93.5t-25 -123v-856q0 -56 15 -99t53 -81.5t100.5 -63t161 -39t231.5 -14.5q132 0 231 14.5t161 39t100 63t52.5 81.5t14.5 99zM1206 225h-358q-102 0 -173.5 21t-112 62t-58 93.5 t-17.5 122.5v457q0 146 81.5 223.5t279.5 77.5h358q54 0 54 -53v-178q0 -52 -54 -52h-295q-53 0 -71.5 -19.5t-18.5 -53.5v-351q0 -35 18 -52t72 -17h295q54 0 54 -53v-174q0 -54 -54 -54z" />
<glyph unicode="&#xaa;" horiz-adv-x="1064" d="M498 1163l-72 -215h203l-70 215q-8 21 -18 21h-27q-12 0 -16 -21zM408 475q0 -61 -62 -61h-211q-61 0 -61 61v367q0 113 43 221q21 61 64 178.5t61 167.5q15 36 36.5 51t61.5 15h387q39 0 60 -15t36 -51l127 -346q41 -112 41 -221v-367q0 -32 -14 -46.5t-47 -14.5h-221 q-62 0 -62 61v195h-239v-195zM147 0q-39 0 -56 17t-17 57v137q0 38 17.5 56t55.5 18h771q38 0 55.5 -17.5t17.5 -56.5v-137q0 -40 -17.5 -57t-55.5 -17h-771z" />
<glyph unicode="&#xab;" horiz-adv-x="1662" d="M729 217l-367 105q-68 20 -113 42t-80 58t-51 89t-16 128v152q0 75 16 127.5t51 88.5t79.5 58t113.5 43l367 106q33 9 53.5 -7.5t20.5 -55.5v-240q0 -72 -74 -100l-194 -57q-22 -8 -28.5 -14.5t-6.5 -24.5t6 -24.5t29 -14.5l194 -55q74 -21 74 -101v-239q0 -38 -19 -56 t-55 -8zM1466 223l-346 99q-68 20 -113 42t-80 58t-51 89t-16 128v152q0 75 15.5 128t50.5 89t80 58t114 42l346 100q34 10 54 -8t20 -55v-234q0 -72 -74 -100l-194 -57q-21 -6 -28 -13.5t-7 -25.5q0 -19 6.5 -26t28.5 -13l194 -55q74 -21 74 -101v-233q0 -38 -19 -56 t-55 -8z" />
<glyph unicode="&#xac;" horiz-adv-x="1503" d="M1286 129h-254q-39 0 -56.5 17.5t-17.5 56.5v426h-741q-39 0 -56.5 17t-17.5 56v234q0 74 74 74h1069q39 0 56.5 -17.5t17.5 -56.5v-733q0 -39 -17.5 -56.5t-56.5 -17.5z" />
<glyph unicode="&#xad;" horiz-adv-x="860" d="M156 526q-39 0 -56.5 17.5t-17.5 56.5v274q0 74 74 74h549q39 0 56 -17t17 -57v-274q0 -40 -17 -57t-56 -17h-549z" />
<glyph unicode="&#xae;" horiz-adv-x="1146" d="M1032 707q0 -71 -20 -123t-69.5 -93.5t-142 -63t-227.5 -21.5t-227 21.5t-141 63t-69.5 93.5t-20.5 123v503q0 58 12 102t43 83.5t82 65.5t132 40.5t189 14.5q135 0 227.5 -21.5t142 -64t69.5 -95t20 -125.5v-503zM909 702v515q0 42 -15 73t-51.5 56t-104 38t-165.5 13 q-79 0 -138 -8.5t-96.5 -24t-60 -38.5t-31.5 -49t-9 -60v-515q0 -57 26.5 -94t102.5 -60.5t206 -23.5q99 0 166 12.5t103.5 37t51.5 55.5t15 73zM508 1122v-108h63q22 0 29.5 10t7.5 31v26q0 41 -37 41h-63zM479 668h-129q-31 0 -31 30v543q0 17 7 24t24 7h279 q90 0 128 -35.5t38 -103.5v-39q0 -76 -50 -95q47 -6 75 -38.5t28 -83.5v-179q0 -30 -29 -30h-131q-31 0 -31 30v136q0 19 -6.5 26.5t-23.5 7.5h-119v-170q0 -30 -29 -30z" />
<glyph unicode="&#xaf;" horiz-adv-x="1024" d="M866 1556h-710q-74 0 -74 74v191q0 38 18 55.5t56 17.5h710q38 0 56 -17.5t18 -55.5v-191q0 -74 -74 -74z" />
<glyph unicode="&#xb0;" horiz-adv-x="989" d="M897 870q0 -56 -17.5 -97t-61 -74t-124 -49.5t-198.5 -16.5t-199 16.5t-125 49.5t-62 74t-18 97v377q0 56 18 97t62 74t125 50t199 17t198.5 -17t124 -50t61 -74t17.5 -97v-377zM393 971q0 -28 21.5 -42t81.5 -14t81 14t21 42v174q0 28 -20 42.5t-82 14.5q-59 0 -81 -15 t-22 -42v-174z" />
<glyph unicode="&#xb1;" horiz-adv-x="1503" d="M952 330q0 -39 -17 -56.5t-56 -17.5h-254q-39 0 -56.5 17.5t-17.5 56.5v344h-334q-39 0 -56.5 17.5t-17.5 56.5v233q0 74 74 74h334v344q0 39 17.5 56.5t56.5 17.5h254q38 0 55.5 -18t17.5 -56v-344h334q39 0 56.5 -17.5t17.5 -56.5v-233q0 -39 -17.5 -56.5t-56.5 -17.5 h-334v-344zM217 2q-39 0 -56.5 17.5t-17.5 56.5v233q0 74 74 74h1069q39 0 56.5 -17.5t17.5 -56.5v-233q0 -39 -17.5 -56.5t-56.5 -17.5h-1069z" />
<glyph unicode="&#xb2;" horiz-adv-x="993" d="M836 414h-701q-53 0 -53 53v254q0 82 16 139t50 92t70.5 53.5t94.5 36.5l197 62q23 8 32 19t9 34t-8.5 31t-32.5 8h-320q-53 0 -53 53v172q0 54 53 54h435q126 0 193 -63t67 -181v-139q0 -107 -57.5 -166.5t-172.5 -94.5l-200 -63q-25 -8 -32 -15t-7 -30v-31h420 q53 0 53 -53v-172q0 -53 -53 -53z" />
<glyph unicode="&#xb3;" horiz-adv-x="991" d="M154 692h370q56 0 56 43v41q0 43 -56 43h-250q-53 0 -53 53v158q0 53 53 53h154q57 0 57 43v23q0 45 -57 45h-274q-54 0 -54 53v174q0 54 54 54h411q121 0 181.5 -55t60.5 -156v-86q0 -123 -86 -158q102 -12 144 -63t42 -152v-148q0 -115 -73.5 -179t-212.5 -64h-467 q-54 0 -54 53v172q0 53 54 53z" />
<glyph unicode="&#xb4;" horiz-adv-x="1024" d="M866 1630l-714 -88q-34 -4 -52 14t-18 54v196q0 37 17 53t57 21l714 88q70 9 70 -67v-197q0 -37 -17 -53t-57 -21z" />
<glyph unicode="&#xb5;" horiz-adv-x="1460" d="M590 -111q0 -38 -18 -55.5t-56 -17.5h-317q-38 0 -56 17.5t-18 55.5v1205q0 38 18 55.5t56 17.5h317q38 0 56 -17.5t18 -55.5v-648q0 -47 30 -71.5t117 -24.5q88 0 119 24.5t31 71.5v648q0 38 17.5 55.5t56.5 17.5h311q38 0 56 -17.5t18 -55.5v-707q0 -79 -15 -140 t-54 -114.5t-103 -88.5t-164.5 -55t-235.5 -20q-94 0 -184 17v-97z" />
<glyph unicode="&#xb6;" horiz-adv-x="1396" d="M694 0h-235q-74 0 -74 74v354q-170 31 -241.5 129t-71.5 256v262q0 94 23.5 164t77.5 124.5t150 83t232 28.5h627q38 0 55.5 -18t17.5 -56v-1327q0 -38 -17.5 -56t-55.5 -18h-236q-74 0 -74 74v340h-104v-340q0 -74 -74 -74z" />
<glyph unicode="&#xb7;" horiz-adv-x="745" d="M580 451h-414q-38 0 -56 17.5t-18 55.5v416q0 39 17.5 56.5t56.5 17.5h414q38 0 55.5 -17t17.5 -57v-416q0 -38 -17.5 -55.5t-55.5 -17.5z" />
<glyph unicode="&#xb8;" horiz-adv-x="1024" d="M541 -258h-258q-92 0 -62 82l174 471q12 34 32.5 44t57.5 -3l238 -88q62 -22 41 -82l-129 -363q-11 -32 -32.5 -46.5t-61.5 -14.5z" />
<glyph unicode="&#xb9;" horiz-adv-x="935" d="M803 414h-651q-54 0 -54 53v178q0 53 54 53h165v492h-137q-53 0 -53 53v178q0 54 53 54h428q54 0 54 -54v-723h141q53 0 53 -53v-178q0 -53 -53 -53z" />
<glyph unicode="&#xba;" horiz-adv-x="1075" d="M995 696q0 -57 -12 -101t-42.5 -83t-81.5 -64.5t-131.5 -40t-188.5 -14.5t-189 14.5t-132 40t-82.5 64.5t-43.5 83t-12 101v494q0 73 20.5 125.5t70 94.5t141.5 63.5t227 21.5t226.5 -21.5t140.5 -63.5t69 -94.5t20 -125.5v-494zM426 748q0 -28 23.5 -43t89.5 -15 q68 0 90 14.5t22 43.5v389q0 29 -22.5 44t-89.5 15q-66 0 -89.5 -15.5t-23.5 -43.5v-389zM154 0q-39 0 -56.5 17.5t-17.5 56.5v137q0 74 74 74h768q38 0 55.5 -17.5t17.5 -56.5v-137q0 -40 -17.5 -57t-55.5 -17h-768z" />
<glyph unicode="&#xbb;" horiz-adv-x="1662" d="M934 217q-36 -10 -55 7t-19 57v239q0 80 74 101l194 55q23 8 29 14.5t6 24.5t-6.5 24.5t-28.5 14.5l-194 57q-74 21 -74 100v240q0 84 74 63l366 -106q69 -20 113.5 -42t80 -58t51.5 -89t16 -128v-152q0 -75 -16 -128t-51.5 -89t-80 -58t-113.5 -42zM543 322l-346 -99 q-36 -10 -55 7t-19 57v233q0 80 74 101l194 55q22 6 28.5 13t6.5 26q0 18 -7 25.5t-28 13.5l-194 57q-74 28 -74 100v234q0 41 19 58t55 5l346 -100q69 -20 114 -42t80 -58t50.5 -89t15.5 -128v-152q0 -75 -16 -128t-51 -89t-80 -58t-113 -42z" />
<glyph unicode="&#xbc;" horiz-adv-x="2463" d="M803 414h-651q-54 0 -54 53v178q0 53 54 53h165v492h-137q-53 0 -53 53v178q0 54 53 54h428q54 0 54 -54v-723h141q53 0 53 -53v-178q0 -53 -53 -53zM2030 246h-250q-143 0 -206 58t-63 185v519q0 53 54 53h229q27 0 39 -12.5t12 -40.5v-404q0 -23 12.5 -37t34.5 -14h138 v455q0 53 53 53h227q27 0 39 -12.5t12 -40.5v-955q0 -28 -12 -40.5t-39 -12.5h-227q-53 0 -53 53v193zM870 74l246 1327q8 41 23 57.5t51 16.5h235q40 0 60.5 -18.5t13.5 -55.5l-246 -1327q-8 -41 -22.5 -57.5t-50.5 -16.5h-236q-40 0 -60.5 18.5t-13.5 55.5z" />
<glyph unicode="&#xbd;" horiz-adv-x="2375" d="M803 414h-651q-54 0 -54 53v178q0 53 54 53h165v492h-137q-53 0 -53 53v178q0 54 53 54h428q54 0 54 -54v-723h141q53 0 53 -53v-178q0 -53 -53 -53zM2218 0h-700q-54 0 -54 53v254q0 82 16 139.5t50.5 92.5t71 53.5t94.5 36.5l196 61q23 8 32 19t9 34t-8.5 31t-32.5 8 h-319q-53 0 -53 54v172q0 53 53 53h434q126 0 193 -63t67 -181v-139q0 -107 -57 -166t-172 -94l-201 -64q-25 -8 -32 -15t-7 -30v-30h420q53 0 53 -54v-172q0 -53 -53 -53zM870 74l246 1327q8 41 23 57.5t51 16.5h235q40 0 60.5 -18.5t13.5 -55.5l-246 -1327 q-8 -41 -22.5 -57.5t-50.5 -16.5h-236q-40 0 -60.5 18.5t-13.5 55.5z" />
<glyph unicode="&#xbe;" horiz-adv-x="2484" d="M154 692h370q56 0 56 43v41q0 43 -56 43h-250q-53 0 -53 53v158q0 53 53 53h154q57 0 57 43v23q0 45 -57 45h-274q-54 0 -54 53v174q0 54 54 54h411q121 0 181.5 -55t60.5 -156v-86q0 -123 -86 -158q102 -12 144 -63t42 -152v-148q0 -115 -73.5 -179t-212.5 -64h-467 q-54 0 -54 53v172q0 53 54 53zM2050 246h-250q-143 0 -205.5 58t-62.5 185v519q0 53 53 53h230q27 0 39 -12.5t12 -40.5v-404q0 -23 12.5 -37t34.5 -14h137v455q0 53 53 53h228q27 0 39 -12.5t12 -40.5v-955q0 -28 -12 -40.5t-39 -12.5h-228q-53 0 -53 53v193zM891 74 l246 1327q8 41 22.5 57.5t50.5 16.5h236q40 0 60.5 -18.5t13.5 -55.5l-246 -1327q-8 -41 -23 -57.5t-51 -16.5h-235q-40 0 -60.5 18.5t-13.5 55.5z" />
<glyph unicode="&#xbf;" horiz-adv-x="1343" d="M639 1475h375q39 0 56 -17.5t17 -56.5v-268q0 -40 -16.5 -57t-56.5 -17h-375q-39 0 -56.5 17.5t-17.5 56.5v268q0 74 74 74zM410 915l555 76q38 4 55.5 -10t23.5 -53l43 -271q11 -75 -67 -84l-408 -57q-31 -5 -43 -18.5t-12 -44.5q0 -58 55 -58h566q39 0 56 -17t17 -56 v-248q0 -38 -17.5 -56t-55.5 -18h-662q-201 0 -312.5 93.5t-111.5 266.5v215q0 163 80.5 240.5t237.5 99.5z" />
<glyph unicode="&#xc0;" horiz-adv-x="1495" d="M676 1044l-96 -311h321l-96 311q-14 35 -39 35h-51q-25 0 -39 -35zM559 74q0 -74 -74 -74h-301q-38 0 -55.5 18t-17.5 56v540q0 123 79 328l179 465q23 68 104 68h551q79 0 102 -68l179 -465q79 -205 79 -328v-540q0 -38 -17.5 -56t-55.5 -18h-310q-41 0 -60 18t-19 56 v286h-363v-286zM1106 1542l-715 88q-40 5 -57 21t-17 53v197q0 76 70 67l715 -88q40 -5 57 -21t17 -53v-196q0 -36 -18 -54t-52 -14z" />
<glyph unicode="&#xc1;" horiz-adv-x="1495" d="M676 1044l-96 -311h321l-96 311q-14 35 -39 35h-51q-25 0 -39 -35zM559 74q0 -74 -74 -74h-301q-38 0 -55.5 18t-17.5 56v540q0 123 79 328l179 465q23 68 104 68h551q79 0 102 -68l179 -465q79 -205 79 -328v-540q0 -38 -17.5 -56t-55.5 -18h-310q-41 0 -60 18t-19 56 v286h-363v-286zM1102 1630l-715 -88q-34 -4 -52 14t-18 54v196q0 37 17 53t57 21l715 88q70 9 70 -67v-197q0 -37 -17 -53t-57 -21z" />
<glyph unicode="&#xc2;" horiz-adv-x="1495" d="M676 1044l-96 -311h321l-96 311q-14 35 -39 35h-51q-25 0 -39 -35zM559 74q0 -74 -74 -74h-301q-38 0 -55.5 18t-17.5 56v540q0 123 79 328l179 465q23 68 104 68h551q79 0 102 -68l179 -465q79 -205 79 -328v-540q0 -38 -17.5 -56t-55.5 -18h-310q-41 0 -60 18t-19 56 v286h-363v-286zM682 1632l-281 -82q-53 -17 -68.5 -4.5t-15.5 68.5v166q0 52 15 69t69 39l263 94q40 16 79 19q41 0 66 -10l281 -103q56 -22 71 -38.5t15 -69.5v-166q0 -56 -16 -68.5t-70 4.5l-281 82q-63 16 -127 0z" />
<glyph unicode="&#xc3;" horiz-adv-x="1495" d="M676 1044l-96 -311h321l-96 311q-14 35 -39 35h-51q-25 0 -39 -35zM559 74q0 -74 -74 -74h-301q-38 0 -55.5 18t-17.5 56v540q0 123 79 328l179 465q23 68 104 68h551q79 0 102 -68l179 -465q79 -205 79 -328v-540q0 -38 -17.5 -56t-55.5 -18h-310q-41 0 -60 18t-19 56 v286h-363v-286zM745 1565l-57 8q-124 15 -166 11.5t-131 -30.5q-74 -21 -74 54v207q0 35 17 51.5t57 31.5q94 28 147 29.5t173 -18.5l34 -4l46 -7q92 -14 138.5 -15t71.5 4t99 28q74 21 74 -53v-207q0 -35 -17 -52t-57 -32q-93 -28 -148 -29t-174 19z" />
<glyph unicode="&#xc4;" horiz-adv-x="1495" d="M676 1044l-96 -311h321l-96 311q-14 35 -39 35h-51q-25 0 -39 -35zM559 74q0 -74 -74 -74h-301q-38 0 -55.5 18t-17.5 56v540q0 123 79 328l179 465q23 68 104 68h551q79 0 102 -68l179 -465q79 -205 79 -328v-540q0 -38 -17.5 -56t-55.5 -18h-310q-41 0 -60 18t-19 56 v286h-363v-286zM1149 1556h-283q-35 0 -51 16.5t-16 51.5v248q0 35 16 51t51 16h283q35 0 51.5 -16t16.5 -51v-248q0 -68 -68 -68zM621 1556h-283q-70 0 -70 68v248q0 67 70 67h283q35 0 51 -16t16 -51v-248q0 -35 -16 -51.5t-51 -16.5z" />
<glyph unicode="&#xc5;" horiz-adv-x="1495" d="M870 1565v71q0 43 -24 62.5t-96 19.5q-70 0 -93.5 -19.5t-23.5 -62.5v-71q0 -48 23 -68t94 -20q72 0 96 20t24 68zM676 1044l-96 -311h321l-96 311q-11 35 -39 35h-51q-28 0 -39 -35zM559 74q0 -74 -74 -74h-301q-38 0 -55.5 18t-17.5 56v540q0 123 79 328l172 451 q-59 67 -59 186v119q0 55 12 97.5t42.5 80.5t80 62.5t127.5 38.5t183 14t183 -14t127.5 -38.5t79.5 -62.5t42 -80.5t12 -97.5v-119q0 -119 -59 -186l172 -451q79 -205 79 -328v-540q0 -38 -17.5 -56t-55.5 -18h-310q-41 0 -60 18t-19 56v286h-363v-286z" />
<glyph unicode="&#xc6;" horiz-adv-x="2058" d="M684 1053l-106 -320h323v354h-178q-17 0 -24 -6.5t-15 -27.5zM557 74q0 -74 -74 -74h-299q-38 0 -55.5 18t-17.5 56v520q0 153 59 307l178 490q17 47 45.5 65.5t81.5 18.5h1409q74 0 74 -74v-240q0 -74 -74 -74h-518v-157h352q39 0 56.5 -17.5t17.5 -56.5v-219 q0 -74 -74 -74h-352v-176h518q74 0 74 -74v-239q0 -74 -74 -74h-909q-74 0 -74 74v286h-344v-286z" />
<glyph unicode="&#xc7;" horiz-adv-x="1286" d="M891 -197q-11 -32 -32.5 -46.5t-61.5 -14.5h-258q-92 0 -62 82l66 178q-216 15 -320 117t-104 299v637q0 215 123 317.5t381 102.5h499q74 0 74 -74v-248q0 -74 -74 -74h-411q-64 0 -94.5 -24.5t-30.5 -77.5v-488q0 -51 30 -74.5t95 -23.5h411q74 0 74 -74v-243 q0 -74 -74 -74h-161z" />
<glyph unicode="&#xc8;" horiz-adv-x="1339" d="M1165 0h-950q-74 0 -74 74v1327q0 74 74 74h950q74 0 74 -74v-240q0 -74 -74 -74h-565v-157h399q74 0 74 -74v-219q0 -74 -74 -74h-399v-176h565q74 0 74 -74v-239q0 -74 -74 -74zM1028 1542l-715 88q-39 5 -56 21t-17 53v197q0 76 69 67l715 -88q40 -5 57 -21t17 -53 v-196q0 -36 -18 -54t-52 -14z" />
<glyph unicode="&#xc9;" horiz-adv-x="1339" d="M1165 0h-950q-74 0 -74 74v1327q0 74 74 74h950q74 0 74 -74v-240q0 -74 -74 -74h-565v-157h399q74 0 74 -74v-219q0 -74 -74 -74h-399v-176h565q74 0 74 -74v-239q0 -74 -74 -74zM1085 1630l-714 -88q-34 -4 -52 14t-18 54v196q0 37 17 53t57 21l715 88q69 9 69 -67 v-197q0 -37 -17 -53t-57 -21z" />
<glyph unicode="&#xca;" horiz-adv-x="1339" d="M1165 0h-950q-74 0 -74 74v1327q0 74 74 74h950q74 0 74 -74v-240q0 -74 -74 -74h-565v-157h399q74 0 74 -74v-219q0 -74 -74 -74h-399v-176h565q74 0 74 -74v-239q0 -74 -74 -74zM625 1632l-281 -82q-52 -17 -68 -4.5t-16 68.5v166q0 52 15 69t69 39l262 94q39 16 80 19 q41 0 66 -10l280 -103q56 -22 71 -38.5t15 -69.5v-166q0 -56 -16 -68.5t-70 4.5l-280 82q-64 16 -127 0z" />
<glyph unicode="&#xcb;" horiz-adv-x="1339" d="M1165 0h-950q-74 0 -74 74v1327q0 74 74 74h950q74 0 74 -74v-240q0 -74 -74 -74h-565v-157h399q74 0 74 -74v-219q0 -74 -74 -74h-399v-176h565q74 0 74 -74v-239q0 -74 -74 -74zM1112 1556h-283q-35 0 -51 16.5t-16 51.5v248q0 35 16 51t51 16h283q35 0 51.5 -16 t16.5 -51v-248q0 -68 -68 -68zM584 1556h-283q-70 0 -70 68v248q0 67 70 67h283q35 0 51 -16t16 -51v-248q0 -35 -16 -51.5t-51 -16.5z" />
<glyph unicode="&#xcc;" horiz-adv-x="1239" d="M182 0q-38 0 -55.5 18t-17.5 56v243q0 38 17.5 56t55.5 18h203v688h-203q-38 0 -55.5 18t-17.5 56v248q0 38 17.5 56t55.5 18h873q38 0 55.5 -18t17.5 -56v-248q0 -38 -17.5 -56t-55.5 -18h-199v-688h199q38 0 55.5 -18t17.5 -56v-243q0 -38 -17.5 -56t-55.5 -18h-873z M977 1542l-715 88q-40 5 -57 21t-17 53v197q0 76 70 67l715 -88q40 -5 57 -21t17 -53v-196q0 -36 -18 -54t-52 -14z" />
<glyph unicode="&#xcd;" horiz-adv-x="1239" d="M182 0q-38 0 -55.5 18t-17.5 56v243q0 38 17.5 56t55.5 18h203v688h-203q-38 0 -55.5 18t-17.5 56v248q0 38 17.5 56t55.5 18h873q38 0 55.5 -18t17.5 -56v-248q0 -38 -17.5 -56t-55.5 -18h-199v-688h199q38 0 55.5 -18t17.5 -56v-243q0 -38 -17.5 -56t-55.5 -18h-873z M973 1630l-715 -88q-34 -4 -52 14t-18 54v196q0 37 17 53t57 21l715 88q70 9 70 -67v-197q0 -37 -17 -53t-57 -21z" />
<glyph unicode="&#xce;" horiz-adv-x="1239" d="M182 0q-38 0 -55.5 18t-17.5 56v243q0 38 17.5 56t55.5 18h203v688h-203q-38 0 -55.5 18t-17.5 56v248q0 38 17.5 56t55.5 18h873q38 0 55.5 -18t17.5 -56v-248q0 -38 -17.5 -56t-55.5 -18h-199v-688h199q38 0 55.5 -18t17.5 -56v-243q0 -38 -17.5 -56t-55.5 -18h-873z M553 1632l-281 -82q-52 -17 -68 -4.5t-16 68.5v166q0 52 15 69t69 39l263 94q40 16 79 19q41 0 66 -10l281 -103q56 -22 71 -38.5t15 -69.5v-166q0 -56 -16 -68.5t-70 4.5l-281 82q-63 16 -127 0z" />
<glyph unicode="&#xcf;" horiz-adv-x="1239" d="M182 0q-38 0 -55.5 18t-17.5 56v243q0 38 17.5 56t55.5 18h203v688h-203q-38 0 -55.5 18t-17.5 56v248q0 38 17.5 56t55.5 18h873q38 0 55.5 -18t17.5 -56v-248q0 -38 -17.5 -56t-55.5 -18h-199v-688h199q38 0 55.5 -18t17.5 -56v-243q0 -38 -17.5 -56t-55.5 -18h-873z M1020 1556h-283q-35 0 -51 16.5t-16 51.5v248q0 35 16 51t51 16h283q35 0 51 -16t16 -51v-248q0 -35 -16 -51.5t-51 -16.5zM492 1556h-283q-70 0 -70 68v248q0 67 70 67h283q35 0 51 -16t16 -51v-248q0 -35 -16 -51.5t-51 -16.5z" />
<glyph unicode="&#xd0;" horiz-adv-x="1548" d="M926 0h-690q-74 0 -74 74v469h-47q-39 0 -56.5 17t-17.5 56v220q0 38 18 55.5t56 17.5h47v492q0 74 74 74h690q142 0 241.5 -29.5t156 -87t81.5 -131t25 -170.5v-639q0 -97 -25 -170.5t-81.5 -131t-156 -87t-241.5 -29.5zM621 387h249q57 0 77 26t20 74v498 q0 46 -20.5 72t-76.5 26h-249v-174h84q39 0 56 -17t17 -56v-220q0 -39 -17 -56t-56 -17h-84v-156z" />
<glyph unicode="&#xd1;" horiz-adv-x="1542" d="M522 0h-307q-74 0 -74 74v1327q0 74 74 74h213q40 0 67.5 -12.5t53.5 -43.5l397 -454v436q0 74 74 74h307q74 0 74 -74v-1327q0 -74 -74 -74h-307q-74 0 -74 74v252l-350 424v-676q0 -74 -74 -74zM768 1565l-57 8q-124 15 -166 11.5t-131 -30.5q-74 -21 -74 54v207 q0 35 17 51.5t57 31.5q94 28 146.5 29.5t172.5 -18.5l35 -4l45 -7q92 -14 138.5 -15t71.5 4t99 28q74 21 74 -53v-207q0 -35 -17 -52t-57 -32q-93 -28 -147.5 -29t-173.5 19z" />
<glyph unicode="&#xd2;" d="M1391 387q0 -79 -16.5 -140t-59.5 -115t-114 -88.5t-182.5 -54.5t-262.5 -20t-263 20t-183 54.5t-114 88.5t-60 115t-17 140v698q0 79 17 140t60 115.5t114 89.5t183.5 55t262.5 20t262 -20t183 -55t114 -89.5t59.5 -115.5t16.5 -140v-698zM584 461q0 -47 35 -71.5 t137 -24.5q103 0 137.5 24t34.5 72v551q0 30 -11 48.5t-50.5 32t-110.5 13.5q-102 0 -137 -24t-35 -70v-551zM1112 1542l-715 88q-39 5 -56 21t-17 53v197q0 76 69 67l715 -88q40 -5 57 -21t17 -53v-196q0 -36 -18 -54t-52 -14z" />
<glyph unicode="&#xd3;" d="M1391 387q0 -79 -16.5 -140t-59.5 -115t-114 -88.5t-182.5 -54.5t-262.5 -20t-263 20t-183 54.5t-114 88.5t-60 115t-17 140v698q0 79 17 140t60 115.5t114 89.5t183.5 55t262.5 20t262 -20t183 -55t114 -89.5t59.5 -115.5t16.5 -140v-698zM584 461q0 -47 35 -71.5 t137 -24.5q103 0 137.5 24t34.5 72v551q0 30 -11 48.5t-50.5 32t-110.5 13.5q-102 0 -137 -24t-35 -70v-551zM1108 1630l-715 -88q-69 -9 -69 68v196q0 37 17 53t56 21l715 88q70 9 70 -67v-197q0 -37 -17 -53t-57 -21z" />
<glyph unicode="&#xd4;" d="M1391 387q0 -79 -16.5 -140t-59.5 -115t-114 -88.5t-182.5 -54.5t-262.5 -20t-263 20t-183 54.5t-114 88.5t-60 115t-17 140v698q0 79 17 140t60 115.5t114 89.5t183.5 55t262.5 20t262 -20t183 -55t114 -89.5t59.5 -115.5t16.5 -140v-698zM584 461q0 -47 35 -71.5 t137 -24.5q103 0 137.5 24t34.5 72v551q0 30 -11 48.5t-50.5 32t-110.5 13.5q-102 0 -137 -24t-35 -70v-551zM688 1632l-280 -82q-52 -17 -68 -4.5t-16 68.5v166q0 52 15 69t69 39l262 94q39 16 80 19q40 0 65 -10l281 -103q56 -22 71 -38.5t15 -69.5v-166q0 -56 -16 -68.5 t-70 4.5l-281 82q-63 16 -127 0z" />
<glyph unicode="&#xd5;" d="M1391 387q0 -79 -16.5 -140t-59.5 -115t-114 -88.5t-182.5 -54.5t-262.5 -20t-263 20t-183 54.5t-114 88.5t-60 115t-17 140v698q0 79 17 140t60 115.5t114 89.5t183.5 55t262.5 20t262 -20t183 -55t114 -89.5t59.5 -115.5t16.5 -140v-698zM584 461q0 -47 35 -71.5 t137 -24.5q103 0 137.5 24t34.5 72v551q0 30 -11 48.5t-50.5 32t-110.5 13.5q-102 0 -137 -24t-35 -70v-551zM752 1565l-58 8q-124 15 -166 11.5t-131 -30.5q-73 -21 -73 54v207q0 35 16.5 51.5t56.5 31.5q94 28 147 29.5t173 -18.5l35 -4l45 -7q92 -14 138.5 -15t71.5 4 t99 28q74 21 74 -53v-207q0 -35 -17 -52t-57 -32q-93 -28 -148 -29t-174 19z" />
<glyph unicode="&#xd6;" d="M1391 387q0 -79 -16.5 -140t-59.5 -115t-114 -88.5t-182.5 -54.5t-262.5 -20t-263 20t-183 54.5t-114 88.5t-60 115t-17 140v698q0 79 17 140t60 115.5t114 89.5t183.5 55t262.5 20t262 -20t183 -55t114 -89.5t59.5 -115.5t16.5 -140v-698zM584 461q0 -47 35 -71.5 t137 -24.5q103 0 137.5 24t34.5 72v551q0 30 -11 48.5t-50.5 32t-110.5 13.5q-102 0 -137 -24t-35 -70v-551zM1155 1556h-283q-35 0 -51 16.5t-16 51.5v248q0 35 16 51t51 16h283q35 0 51.5 -16t16.5 -51v-248q0 -68 -68 -68zM627 1556h-283q-70 0 -70 68v248q0 67 70 67 h283q35 0 51 -16t16 -51v-248q0 -35 -16 -51.5t-51 -16.5z" />
<glyph unicode="&#xd7;" horiz-adv-x="1503" d="M1141 184q-30 -29 -54 -28.5t-51 28.5l-284 285l-285 -285q-27 -28 -51 -28.5t-54 28.5l-163 164q-54 54 0 105l284 284l-284 285q-28 27 -28.5 50.5t28.5 53.5l163 164q54 54 105 0l285 -284l284 284q27 28 51 28.5t54 -28.5l164 -164q29 -30 28.5 -53.5t-28.5 -50.5 l-285 -285l285 -284q28 -27 28.5 -51t-28.5 -54z" />
<glyph unicode="&#xd8;" d="M543 1012v-445l237 559h-24q-67 0 -110.5 -8t-65 -24.5t-29.5 -35.5t-8 -46zM756 344q68 0 111.5 8t65 25.5t29 36.5t7.5 47v452l-242 -569h29zM604 -70q-22 -40 -40.5 -56.5t-53.5 -16.5h-236q-39 0 -55 19.5t2 53.5l55 133q-85 53 -121 133.5t-36 190.5v698 q0 79 17 140t60 115.5t114 89.5t183.5 55t262.5 20q49 0 131 -4l18 43q22 40 40.5 57t53.5 17h236q39 0 55 -20t-2 -54l-55 -133q86 -53 122 -133.5t36 -192.5v-698q0 -79 -16.5 -140t-59.5 -115t-114 -88.5t-182.5 -54.5t-262.5 -20q-51 0 -133 4z" />
<glyph unicode="&#xd9;" horiz-adv-x="1527" d="M1397 387q0 -79 -17 -140t-60 -115t-113.5 -88.5t-182 -54.5t-260.5 -20t-260.5 20t-182 54.5t-113.5 88.5t-60 115t-17 140v1014q0 74 74 74h321q74 0 74 -74v-934q0 -47 34.5 -71.5t133.5 -24.5q100 0 135 24.5t35 71.5v934q0 39 17.5 56.5t56.5 17.5h311q74 0 74 -74 v-1014zM1102 1542l-715 88q-40 5 -57 21t-17 53v197q0 76 70 67l715 -88q39 -5 56 -21t17 -53v-196q0 -77 -69 -68z" />
<glyph unicode="&#xda;" horiz-adv-x="1527" d="M1397 387q0 -79 -17 -140t-60 -115t-113.5 -88.5t-182 -54.5t-260.5 -20t-260.5 20t-182 54.5t-113.5 88.5t-60 115t-17 140v1014q0 74 74 74h321q74 0 74 -74v-934q0 -47 34.5 -71.5t133.5 -24.5q100 0 135 24.5t35 71.5v934q0 39 17.5 56.5t56.5 17.5h311q74 0 74 -74 v-1014zM1139 1630l-715 -88q-34 -4 -52 14t-18 54v196q0 37 17 53t57 21l715 88q69 9 69 -67v-197q0 -37 -17 -53t-56 -21z" />
<glyph unicode="&#xdb;" horiz-adv-x="1527" d="M1397 387q0 -79 -17 -140t-60 -115t-113.5 -88.5t-182 -54.5t-260.5 -20t-260.5 20t-182 54.5t-113.5 88.5t-60 115t-17 140v1014q0 74 74 74h321q74 0 74 -74v-934q0 -47 34.5 -71.5t133.5 -24.5q100 0 135 24.5t35 71.5v934q0 39 17.5 56.5t56.5 17.5h311q74 0 74 -74 v-1014zM698 1632l-280 -82q-52 -17 -68 -4.5t-16 68.5v166q0 52 15 69t69 39l262 94q39 16 80 19q40 0 65 -10l281 -103q56 -22 71 -38.5t15 -69.5v-166q0 -56 -16 -68.5t-70 4.5l-281 82q-63 16 -127 0z" />
<glyph unicode="&#xdc;" horiz-adv-x="1527" d="M1397 387q0 -79 -17 -140t-60 -115t-113.5 -88.5t-182 -54.5t-260.5 -20t-260.5 20t-182 54.5t-113.5 88.5t-60 115t-17 140v1014q0 74 74 74h321q74 0 74 -74v-934q0 -47 34.5 -71.5t133.5 -24.5q100 0 135 24.5t35 71.5v934q0 39 17.5 56.5t56.5 17.5h311q74 0 74 -74 v-1014zM1165 1556h-282q-68 0 -68 68v248q0 35 16.5 51t51.5 16h282q35 0 51.5 -16t16.5 -51v-248q0 -68 -68 -68zM637 1556h-283q-69 0 -69 68v248q0 67 69 67h283q35 0 51.5 -16t16.5 -51v-248q0 -68 -68 -68z" />
<glyph unicode="&#xdd;" horiz-adv-x="1443" d="M889 0h-332q-39 0 -56.5 17.5t-17.5 56.5v262l-313 420q-48 64 -63 111t-15 141v393q0 74 74 74h315q74 0 74 -74v-336q0 -57 18 -86l95 -148q19 -34 49 -34h20q30 0 49 34l95 148q18 29 18 86v336q0 74 74 74h305q74 0 74 -74v-393q0 -92 -15.5 -139.5t-62.5 -112.5 l-311 -422v-260q0 -74 -74 -74zM1096 1630l-715 -88q-34 -4 -52 14t-18 54v196q0 37 17 53t57 21l715 88q69 9 69 -67v-197q0 -37 -17 -53t-56 -21z" />
<glyph unicode="&#xde;" horiz-adv-x="1417" d="M532 0h-317q-74 0 -74 74v1327q0 74 74 74h317q74 0 74 -74v-131h236q136 0 232 -28.5t150 -83t77.5 -124.5t23.5 -164v-262q0 -94 -23.5 -163.5t-77.5 -124.5t-150 -83t-232 -28h-236v-135q0 -74 -74 -74zM602 887v-309h184q97 0 97 100v108q0 101 -97 101h-184z" />
<glyph unicode="&#xdf;" horiz-adv-x="1554" d="M606 74q0 -74 -74 -74h-317q-74 0 -74 74v1327q0 74 74 74h760q180 0 261.5 -110t33.5 -282l-47 -170q116 -22 189 -103.5t73 -217.5v-252q0 -157 -108 -248.5t-292 -91.5h-282q-74 0 -74 74v239q0 74 74 74h160q55 0 55 47v101q0 47 -55 47h-148q-100 0 -76 114l68 334 q5 25 -4.5 41t-34.5 16h-162v-1013z" />
<glyph unicode="&#xe0;" horiz-adv-x="1495" d="M676 1044l-96 -311h321l-96 311q-14 35 -39 35h-51q-25 0 -39 -35zM559 74q0 -74 -74 -74h-301q-38 0 -55.5 18t-17.5 56v540q0 123 79 328l179 465q23 68 104 68h551q79 0 102 -68l179 -465q79 -205 79 -328v-540q0 -38 -17.5 -56t-55.5 -18h-310q-41 0 -60 18t-19 56 v286h-363v-286zM1106 1542l-715 88q-40 5 -57 21t-17 53v197q0 76 70 67l715 -88q40 -5 57 -21t17 -53v-196q0 -36 -18 -54t-52 -14z" />
<glyph unicode="&#xe1;" horiz-adv-x="1495" d="M676 1044l-96 -311h321l-96 311q-14 35 -39 35h-51q-25 0 -39 -35zM559 74q0 -74 -74 -74h-301q-38 0 -55.5 18t-17.5 56v540q0 123 79 328l179 465q23 68 104 68h551q79 0 102 -68l179 -465q79 -205 79 -328v-540q0 -38 -17.5 -56t-55.5 -18h-310q-41 0 -60 18t-19 56 v286h-363v-286zM1102 1630l-715 -88q-34 -4 -52 14t-18 54v196q0 37 17 53t57 21l715 88q70 9 70 -67v-197q0 -37 -17 -53t-57 -21z" />
<glyph unicode="&#xe2;" horiz-adv-x="1495" d="M676 1044l-96 -311h321l-96 311q-14 35 -39 35h-51q-25 0 -39 -35zM559 74q0 -74 -74 -74h-301q-38 0 -55.5 18t-17.5 56v540q0 123 79 328l179 465q23 68 104 68h551q79 0 102 -68l179 -465q79 -205 79 -328v-540q0 -38 -17.5 -56t-55.5 -18h-310q-41 0 -60 18t-19 56 v286h-363v-286zM682 1632l-281 -82q-53 -17 -68.5 -4.5t-15.5 68.5v166q0 52 15 69t69 39l263 94q40 16 79 19q41 0 66 -10l281 -103q56 -22 71 -38.5t15 -69.5v-166q0 -56 -16 -68.5t-70 4.5l-281 82q-63 16 -127 0z" />
<glyph unicode="&#xe3;" horiz-adv-x="1495" d="M676 1044l-96 -311h321l-96 311q-14 35 -39 35h-51q-25 0 -39 -35zM559 74q0 -74 -74 -74h-301q-38 0 -55.5 18t-17.5 56v540q0 123 79 328l179 465q23 68 104 68h551q79 0 102 -68l179 -465q79 -205 79 -328v-540q0 -38 -17.5 -56t-55.5 -18h-310q-41 0 -60 18t-19 56 v286h-363v-286zM745 1565l-57 8q-124 15 -166 11.5t-131 -30.5q-74 -21 -74 54v207q0 35 17 51.5t57 31.5q94 28 147 29.5t173 -18.5l34 -4l46 -7q92 -14 138.5 -15t71.5 4t99 28q74 21 74 -53v-207q0 -35 -17 -52t-57 -32q-93 -28 -148 -29t-174 19z" />
<glyph unicode="&#xe4;" horiz-adv-x="1495" d="M676 1044l-96 -311h321l-96 311q-14 35 -39 35h-51q-25 0 -39 -35zM559 74q0 -74 -74 -74h-301q-38 0 -55.5 18t-17.5 56v540q0 123 79 328l179 465q23 68 104 68h551q79 0 102 -68l179 -465q79 -205 79 -328v-540q0 -38 -17.5 -56t-55.5 -18h-310q-41 0 -60 18t-19 56 v286h-363v-286zM1149 1556h-283q-35 0 -51 16.5t-16 51.5v248q0 35 16 51t51 16h283q35 0 51.5 -16t16.5 -51v-248q0 -68 -68 -68zM621 1556h-283q-70 0 -70 68v248q0 67 70 67h283q35 0 51 -16t16 -51v-248q0 -35 -16 -51.5t-51 -16.5z" />
<glyph unicode="&#xe5;" horiz-adv-x="1495" d="M870 1565v71q0 43 -24 62.5t-96 19.5q-70 0 -93.5 -19.5t-23.5 -62.5v-71q0 -48 23 -68t94 -20q72 0 96 20t24 68zM676 1044l-96 -311h321l-96 311q-11 35 -39 35h-51q-28 0 -39 -35zM559 74q0 -74 -74 -74h-301q-38 0 -55.5 18t-17.5 56v540q0 123 79 328l172 451 q-59 67 -59 186v119q0 55 12 97.5t42.5 80.5t80 62.5t127.5 38.5t183 14t183 -14t127.5 -38.5t79.5 -62.5t42 -80.5t12 -97.5v-119q0 -119 -59 -186l172 -451q79 -205 79 -328v-540q0 -38 -17.5 -56t-55.5 -18h-310q-41 0 -60 18t-19 56v286h-363v-286z" />
<glyph unicode="&#xe6;" horiz-adv-x="2058" d="M684 1053l-106 -320h323v354h-178q-17 0 -24 -6.5t-15 -27.5zM557 74q0 -74 -74 -74h-299q-38 0 -55.5 18t-17.5 56v520q0 153 59 307l178 490q17 47 45.5 65.5t81.5 18.5h1409q74 0 74 -74v-240q0 -74 -74 -74h-518v-157h352q39 0 56.5 -17.5t17.5 -56.5v-219 q0 -74 -74 -74h-352v-176h518q74 0 74 -74v-239q0 -74 -74 -74h-909q-74 0 -74 74v286h-344v-286z" />
<glyph unicode="&#xe7;" horiz-adv-x="1286" d="M891 -197q-11 -32 -32.5 -46.5t-61.5 -14.5h-258q-92 0 -62 82l66 178q-216 15 -320 117t-104 299v637q0 215 123 317.5t381 102.5h499q74 0 74 -74v-248q0 -74 -74 -74h-411q-64 0 -94.5 -24.5t-30.5 -77.5v-488q0 -51 30 -74.5t95 -23.5h411q74 0 74 -74v-243 q0 -74 -74 -74h-161z" />
<glyph unicode="&#xe8;" horiz-adv-x="1339" d="M1165 0h-950q-74 0 -74 74v1327q0 74 74 74h950q74 0 74 -74v-240q0 -74 -74 -74h-565v-157h399q74 0 74 -74v-219q0 -74 -74 -74h-399v-176h565q74 0 74 -74v-239q0 -74 -74 -74zM1028 1542l-715 88q-39 5 -56 21t-17 53v197q0 76 69 67l715 -88q40 -5 57 -21t17 -53 v-196q0 -36 -18 -54t-52 -14z" />
<glyph unicode="&#xe9;" horiz-adv-x="1339" d="M1165 0h-950q-74 0 -74 74v1327q0 74 74 74h950q74 0 74 -74v-240q0 -74 -74 -74h-565v-157h399q74 0 74 -74v-219q0 -74 -74 -74h-399v-176h565q74 0 74 -74v-239q0 -74 -74 -74zM1085 1630l-714 -88q-34 -4 -52 14t-18 54v196q0 37 17 53t57 21l715 88q69 9 69 -67 v-197q0 -37 -17 -53t-57 -21z" />
<glyph unicode="&#xea;" horiz-adv-x="1339" d="M1165 0h-950q-74 0 -74 74v1327q0 74 74 74h950q74 0 74 -74v-240q0 -74 -74 -74h-565v-157h399q74 0 74 -74v-219q0 -74 -74 -74h-399v-176h565q74 0 74 -74v-239q0 -74 -74 -74zM625 1632l-281 -82q-52 -17 -68 -4.5t-16 68.5v166q0 52 15 69t69 39l262 94q39 16 80 19 q41 0 66 -10l280 -103q56 -22 71 -38.5t15 -69.5v-166q0 -56 -16 -68.5t-70 4.5l-280 82q-64 16 -127 0z" />
<glyph unicode="&#xeb;" horiz-adv-x="1339" d="M1165 0h-950q-74 0 -74 74v1327q0 74 74 74h950q74 0 74 -74v-240q0 -74 -74 -74h-565v-157h399q74 0 74 -74v-219q0 -74 -74 -74h-399v-176h565q74 0 74 -74v-239q0 -74 -74 -74zM1112 1556h-283q-35 0 -51 16.5t-16 51.5v248q0 35 16 51t51 16h283q35 0 51.5 -16 t16.5 -51v-248q0 -68 -68 -68zM584 1556h-283q-70 0 -70 68v248q0 67 70 67h283q35 0 51 -16t16 -51v-248q0 -35 -16 -51.5t-51 -16.5z" />
<glyph unicode="&#xec;" horiz-adv-x="1239" d="M182 0q-38 0 -55.5 18t-17.5 56v243q0 38 17.5 56t55.5 18h203v688h-203q-38 0 -55.5 18t-17.5 56v248q0 38 17.5 56t55.5 18h873q38 0 55.5 -18t17.5 -56v-248q0 -38 -17.5 -56t-55.5 -18h-199v-688h199q38 0 55.5 -18t17.5 -56v-243q0 -38 -17.5 -56t-55.5 -18h-873z M977 1542l-715 88q-40 5 -57 21t-17 53v197q0 76 70 67l715 -88q40 -5 57 -21t17 -53v-196q0 -36 -18 -54t-52 -14z" />
<glyph unicode="&#xed;" horiz-adv-x="1239" d="M182 0q-38 0 -55.5 18t-17.5 56v243q0 38 17.5 56t55.5 18h203v688h-203q-38 0 -55.5 18t-17.5 56v248q0 38 17.5 56t55.5 18h873q38 0 55.5 -18t17.5 -56v-248q0 -38 -17.5 -56t-55.5 -18h-199v-688h199q38 0 55.5 -18t17.5 -56v-243q0 -38 -17.5 -56t-55.5 -18h-873z M973 1630l-715 -88q-34 -4 -52 14t-18 54v196q0 37 17 53t57 21l715 88q70 9 70 -67v-197q0 -37 -17 -53t-57 -21z" />
<glyph unicode="&#xee;" horiz-adv-x="1239" d="M182 0q-38 0 -55.5 18t-17.5 56v243q0 38 17.5 56t55.5 18h203v688h-203q-38 0 -55.5 18t-17.5 56v248q0 38 17.5 56t55.5 18h873q38 0 55.5 -18t17.5 -56v-248q0 -38 -17.5 -56t-55.5 -18h-199v-688h199q38 0 55.5 -18t17.5 -56v-243q0 -38 -17.5 -56t-55.5 -18h-873z M553 1632l-281 -82q-52 -17 -68 -4.5t-16 68.5v166q0 52 15 69t69 39l263 94q40 16 79 19q41 0 66 -10l281 -103q56 -22 71 -38.5t15 -69.5v-166q0 -56 -16 -68.5t-70 4.5l-281 82q-63 16 -127 0z" />
<glyph unicode="&#xef;" horiz-adv-x="1239" d="M182 0q-38 0 -55.5 18t-17.5 56v243q0 38 17.5 56t55.5 18h203v688h-203q-38 0 -55.5 18t-17.5 56v248q0 38 17.5 56t55.5 18h873q38 0 55.5 -18t17.5 -56v-248q0 -38 -17.5 -56t-55.5 -18h-199v-688h199q38 0 55.5 -18t17.5 -56v-243q0 -38 -17.5 -56t-55.5 -18h-873z M1020 1556h-283q-35 0 -51 16.5t-16 51.5v248q0 35 16 51t51 16h283q35 0 51 -16t16 -51v-248q0 -35 -16 -51.5t-51 -16.5zM492 1556h-283q-70 0 -70 68v248q0 67 70 67h283q35 0 51 -16t16 -51v-248q0 -35 -16 -51.5t-51 -16.5z" />
<glyph unicode="&#xf0;" horiz-adv-x="1548" d="M926 0h-690q-74 0 -74 74v469h-47q-39 0 -56.5 17t-17.5 56v220q0 38 18 55.5t56 17.5h47v492q0 74 74 74h690q142 0 241.5 -29.5t156 -87t81.5 -131t25 -170.5v-639q0 -97 -25 -170.5t-81.5 -131t-156 -87t-241.5 -29.5zM621 387h249q57 0 77 26t20 74v498 q0 46 -20.5 72t-76.5 26h-249v-174h84q39 0 56 -17t17 -56v-220q0 -39 -17 -56t-56 -17h-84v-156z" />
<glyph unicode="&#xf1;" horiz-adv-x="1542" d="M522 0h-307q-74 0 -74 74v1327q0 74 74 74h213q40 0 67.5 -12.5t53.5 -43.5l397 -454v436q0 74 74 74h307q74 0 74 -74v-1327q0 -74 -74 -74h-307q-74 0 -74 74v252l-350 424v-676q0 -74 -74 -74zM768 1565l-57 8q-124 15 -166 11.5t-131 -30.5q-74 -21 -74 54v207 q0 35 17 51.5t57 31.5q94 28 146.5 29.5t172.5 -18.5l35 -4l45 -7q92 -14 138.5 -15t71.5 4t99 28q74 21 74 -53v-207q0 -35 -17 -52t-57 -32q-93 -28 -147.5 -29t-173.5 19z" />
<glyph unicode="&#xf2;" d="M1391 387q0 -79 -16.5 -140t-59.5 -115t-114 -88.5t-182.5 -54.5t-262.5 -20t-263 20t-183 54.5t-114 88.5t-60 115t-17 140v698q0 79 17 140t60 115.5t114 89.5t183.5 55t262.5 20t262 -20t183 -55t114 -89.5t59.5 -115.5t16.5 -140v-698zM584 461q0 -47 35 -71.5 t137 -24.5q103 0 137.5 24t34.5 72v551q0 30 -11 48.5t-50.5 32t-110.5 13.5q-102 0 -137 -24t-35 -70v-551zM1112 1542l-715 88q-39 5 -56 21t-17 53v197q0 76 69 67l715 -88q40 -5 57 -21t17 -53v-196q0 -36 -18 -54t-52 -14z" />
<glyph unicode="&#xf3;" d="M1391 387q0 -79 -16.5 -140t-59.5 -115t-114 -88.5t-182.5 -54.5t-262.5 -20t-263 20t-183 54.5t-114 88.5t-60 115t-17 140v698q0 79 17 140t60 115.5t114 89.5t183.5 55t262.5 20t262 -20t183 -55t114 -89.5t59.5 -115.5t16.5 -140v-698zM584 461q0 -47 35 -71.5 t137 -24.5q103 0 137.5 24t34.5 72v551q0 30 -11 48.5t-50.5 32t-110.5 13.5q-102 0 -137 -24t-35 -70v-551zM1108 1630l-715 -88q-69 -9 -69 68v196q0 37 17 53t56 21l715 88q70 9 70 -67v-197q0 -37 -17 -53t-57 -21z" />
<glyph unicode="&#xf4;" d="M1391 387q0 -79 -16.5 -140t-59.5 -115t-114 -88.5t-182.5 -54.5t-262.5 -20t-263 20t-183 54.5t-114 88.5t-60 115t-17 140v698q0 79 17 140t60 115.5t114 89.5t183.5 55t262.5 20t262 -20t183 -55t114 -89.5t59.5 -115.5t16.5 -140v-698zM584 461q0 -47 35 -71.5 t137 -24.5q103 0 137.5 24t34.5 72v551q0 30 -11 48.5t-50.5 32t-110.5 13.5q-102 0 -137 -24t-35 -70v-551zM688 1632l-280 -82q-52 -17 -68 -4.5t-16 68.5v166q0 52 15 69t69 39l262 94q39 16 80 19q40 0 65 -10l281 -103q56 -22 71 -38.5t15 -69.5v-166q0 -56 -16 -68.5 t-70 4.5l-281 82q-63 16 -127 0z" />
<glyph unicode="&#xf5;" d="M1391 387q0 -79 -16.5 -140t-59.5 -115t-114 -88.5t-182.5 -54.5t-262.5 -20t-263 20t-183 54.5t-114 88.5t-60 115t-17 140v698q0 79 17 140t60 115.5t114 89.5t183.5 55t262.5 20t262 -20t183 -55t114 -89.5t59.5 -115.5t16.5 -140v-698zM584 461q0 -47 35 -71.5 t137 -24.5q103 0 137.5 24t34.5 72v551q0 30 -11 48.5t-50.5 32t-110.5 13.5q-102 0 -137 -24t-35 -70v-551zM752 1565l-58 8q-124 15 -166 11.5t-131 -30.5q-73 -21 -73 54v207q0 35 16.5 51.5t56.5 31.5q94 28 147 29.5t173 -18.5l35 -4l45 -7q92 -14 138.5 -15t71.5 4 t99 28q74 21 74 -53v-207q0 -35 -17 -52t-57 -32q-93 -28 -148 -29t-174 19z" />
<glyph unicode="&#xf6;" d="M1391 387q0 -79 -16.5 -140t-59.5 -115t-114 -88.5t-182.5 -54.5t-262.5 -20t-263 20t-183 54.5t-114 88.5t-60 115t-17 140v698q0 79 17 140t60 115.5t114 89.5t183.5 55t262.5 20t262 -20t183 -55t114 -89.5t59.5 -115.5t16.5 -140v-698zM584 461q0 -47 35 -71.5 t137 -24.5q103 0 137.5 24t34.5 72v551q0 30 -11 48.5t-50.5 32t-110.5 13.5q-102 0 -137 -24t-35 -70v-551zM1155 1556h-283q-35 0 -51 16.5t-16 51.5v248q0 35 16 51t51 16h283q35 0 51.5 -16t16.5 -51v-248q0 -68 -68 -68zM627 1556h-283q-70 0 -70 68v248q0 67 70 67 h283q35 0 51 -16t16 -51v-248q0 -35 -16 -51.5t-51 -16.5z" />
<glyph unicode="&#xf7;" horiz-adv-x="1503" d="M918 989h-332q-74 0 -74 74v252q0 39 17.5 56.5t56.5 17.5h332q38 0 55.5 -17.5t17.5 -56.5v-252q0 -38 -17.5 -56t-55.5 -18zM217 567q-39 0 -56.5 17.5t-17.5 56.5v193q0 38 18 55.5t56 17.5h1069q39 0 56.5 -17t17.5 -56v-193q0 -39 -17.5 -56.5t-56.5 -17.5h-1069z M918 86h-332q-74 0 -74 74v252q0 39 17.5 56t56.5 17h332q39 0 56 -17t17 -56v-252q0 -38 -17.5 -56t-55.5 -18z" />
<glyph unicode="&#xf8;" d="M543 1012v-445l237 559h-24q-67 0 -110.5 -8t-65 -24.5t-29.5 -35.5t-8 -46zM756 344q68 0 111.5 8t65 25.5t29 36.5t7.5 47v452l-242 -569h29zM604 -70q-22 -40 -40.5 -56.5t-53.5 -16.5h-236q-39 0 -55 19.5t2 53.5l55 133q-85 53 -121 133.5t-36 190.5v698 q0 79 17 140t60 115.5t114 89.5t183.5 55t262.5 20q49 0 131 -4l18 43q22 40 40.5 57t53.5 17h236q39 0 55 -20t-2 -54l-55 -133q86 -53 122 -133.5t36 -192.5v-698q0 -79 -16.5 -140t-59.5 -115t-114 -88.5t-182.5 -54.5t-262.5 -20q-51 0 -133 4z" />
<glyph unicode="&#xf9;" horiz-adv-x="1527" d="M1397 387q0 -79 -17 -140t-60 -115t-113.5 -88.5t-182 -54.5t-260.5 -20t-260.5 20t-182 54.5t-113.5 88.5t-60 115t-17 140v1014q0 74 74 74h321q74 0 74 -74v-934q0 -47 34.5 -71.5t133.5 -24.5q100 0 135 24.5t35 71.5v934q0 39 17.5 56.5t56.5 17.5h311q74 0 74 -74 v-1014zM1102 1542l-715 88q-40 5 -57 21t-17 53v197q0 76 70 67l715 -88q39 -5 56 -21t17 -53v-196q0 -77 -69 -68z" />
<glyph unicode="&#xfa;" horiz-adv-x="1527" d="M1397 387q0 -79 -17 -140t-60 -115t-113.5 -88.5t-182 -54.5t-260.5 -20t-260.5 20t-182 54.5t-113.5 88.5t-60 115t-17 140v1014q0 74 74 74h321q74 0 74 -74v-934q0 -47 34.5 -71.5t133.5 -24.5q100 0 135 24.5t35 71.5v934q0 39 17.5 56.5t56.5 17.5h311q74 0 74 -74 v-1014zM1139 1630l-715 -88q-34 -4 -52 14t-18 54v196q0 37 17 53t57 21l715 88q69 9 69 -67v-197q0 -37 -17 -53t-56 -21z" />
<glyph unicode="&#xfb;" horiz-adv-x="1527" d="M1397 387q0 -79 -17 -140t-60 -115t-113.5 -88.5t-182 -54.5t-260.5 -20t-260.5 20t-182 54.5t-113.5 88.5t-60 115t-17 140v1014q0 74 74 74h321q74 0 74 -74v-934q0 -47 34.5 -71.5t133.5 -24.5q100 0 135 24.5t35 71.5v934q0 39 17.5 56.5t56.5 17.5h311q74 0 74 -74 v-1014zM698 1632l-280 -82q-52 -17 -68 -4.5t-16 68.5v166q0 52 15 69t69 39l262 94q39 16 80 19q40 0 65 -10l281 -103q56 -22 71 -38.5t15 -69.5v-166q0 -56 -16 -68.5t-70 4.5l-281 82q-63 16 -127 0z" />
<glyph unicode="&#xfc;" horiz-adv-x="1527" d="M1397 387q0 -79 -17 -140t-60 -115t-113.5 -88.5t-182 -54.5t-260.5 -20t-260.5 20t-182 54.5t-113.5 88.5t-60 115t-17 140v1014q0 74 74 74h321q74 0 74 -74v-934q0 -47 34.5 -71.5t133.5 -24.5q100 0 135 24.5t35 71.5v934q0 39 17.5 56.5t56.5 17.5h311q74 0 74 -74 v-1014zM1165 1556h-282q-68 0 -68 68v248q0 35 16.5 51t51.5 16h282q35 0 51.5 -16t16.5 -51v-248q0 -68 -68 -68zM637 1556h-283q-69 0 -69 68v248q0 67 69 67h283q35 0 51.5 -16t16.5 -51v-248q0 -68 -68 -68z" />
<glyph unicode="&#xfd;" horiz-adv-x="1443" d="M889 0h-332q-39 0 -56.5 17.5t-17.5 56.5v262l-313 420q-48 64 -63 111t-15 141v393q0 74 74 74h315q74 0 74 -74v-336q0 -57 18 -86l95 -148q19 -34 49 -34h20q30 0 49 34l95 148q18 29 18 86v336q0 74 74 74h305q74 0 74 -74v-393q0 -92 -15.5 -139.5t-62.5 -112.5 l-311 -422v-260q0 -74 -74 -74zM1096 1630l-715 -88q-34 -4 -52 14t-18 54v196q0 37 17 53t57 21l715 88q69 9 69 -67v-197q0 -37 -17 -53t-56 -21z" />
<glyph unicode="&#xfe;" horiz-adv-x="1417" d="M532 0h-317q-74 0 -74 74v1327q0 74 74 74h317q74 0 74 -74v-131h236q136 0 232 -28.5t150 -83t77.5 -124.5t23.5 -164v-262q0 -94 -23.5 -163.5t-77.5 -124.5t-150 -83t-232 -28h-236v-135q0 -74 -74 -74zM602 887v-309h184q97 0 97 100v108q0 101 -97 101h-184z" />
<glyph unicode="&#xff;" horiz-adv-x="1443" d="M889 0h-332q-39 0 -56.5 17.5t-17.5 56.5v262l-313 420q-48 64 -63 111t-15 141v393q0 74 74 74h315q74 0 74 -74v-336q0 -57 18 -86l95 -148q19 -34 49 -34h20q30 0 49 34l95 148q18 29 18 86v336q0 74 74 74h305q74 0 74 -74v-393q0 -92 -15.5 -139.5t-62.5 -112.5 l-311 -422v-260q0 -74 -74 -74zM1122 1556h-282q-68 0 -68 68v248q0 35 16.5 51t51.5 16h282q35 0 51.5 -16t16.5 -51v-248q0 -68 -68 -68zM594 1556h-283q-69 0 -69 68v248q0 67 69 67h283q35 0 51.5 -16t16.5 -51v-248q0 -68 -68 -68z" />
<glyph unicode="&#x152;" horiz-adv-x="2078" d="M901 387v696h-223q-56 0 -76 -26t-20 -72v-498q0 -48 20 -74t76 -26h223zM623 0q-142 0 -241.5 29.5t-156 87t-81.5 131t-25 170.5v639q0 97 25 170.5t81.5 131t156 87t241.5 29.5h1282q38 0 55.5 -18t17.5 -56v-240q0 -38 -17.5 -56t-55.5 -18h-539v-157h373 q39 0 56 -17t17 -57v-219q0 -38 -17.5 -56t-55.5 -18h-373v-176h539q38 0 55.5 -18t17.5 -56v-239q0 -38 -17.5 -56t-55.5 -18h-1282z" />
<glyph unicode="&#x153;" horiz-adv-x="2078" d="M901 387v696h-223q-56 0 -76 -26t-20 -72v-498q0 -48 20 -74t76 -26h223zM623 0q-142 0 -241.5 29.5t-156 87t-81.5 131t-25 170.5v639q0 97 25 170.5t81.5 131t156 87t241.5 29.5h1282q38 0 55.5 -18t17.5 -56v-240q0 -38 -17.5 -56t-55.5 -18h-539v-157h373 q39 0 56 -17t17 -57v-219q0 -38 -17.5 -56t-55.5 -18h-373v-176h539q38 0 55.5 -18t17.5 -56v-239q0 -38 -17.5 -56t-55.5 -18h-1282z" />
<glyph unicode="&#x178;" horiz-adv-x="1443" d="M889 0h-332q-39 0 -56.5 17.5t-17.5 56.5v262l-313 420q-48 64 -63 111t-15 141v393q0 74 74 74h315q74 0 74 -74v-336q0 -57 18 -86l95 -148q19 -34 49 -34h20q30 0 49 34l95 148q18 29 18 86v336q0 74 74 74h305q74 0 74 -74v-393q0 -92 -15.5 -139.5t-62.5 -112.5 l-311 -422v-260q0 -74 -74 -74zM1122 1556h-282q-68 0 -68 68v248q0 35 16.5 51t51.5 16h282q35 0 51.5 -16t16.5 -51v-248q0 -68 -68 -68zM594 1556h-283q-69 0 -69 68v248q0 67 69 67h283q35 0 51.5 -16t16.5 -51v-248q0 -68 -68 -68z" />
<glyph unicode="&#x2c6;" horiz-adv-x="1024" d="M446 1632l-280 -82q-52 -17 -68 -4.5t-16 68.5v166q0 52 15 69t69 39l262 94q39 16 80 19q40 0 65 -10l281 -103q56 -22 71 -38.5t15 -69.5v-166q0 -56 -16 -68.5t-70 4.5l-281 82q-63 16 -127 0z" />
<glyph unicode="&#x2dc;" horiz-adv-x="1024" d="M510 1565l-57 8q-124 15 -166 11.5t-131 -30.5q-74 -21 -74 54v207q0 35 17 51.5t57 31.5q94 28 146.5 29.5t172.5 -18.5l35 -4l45 -7q92 -14 138.5 -15t71.5 4t99 28q74 21 74 -53v-207q0 -35 -17 -52t-57 -32q-93 -28 -147.5 -29t-173.5 19z" />
<glyph unicode="&#x2000;" horiz-adv-x="1000" />
<glyph unicode="&#x2001;" horiz-adv-x="2001" />
<glyph unicode="&#x2002;" horiz-adv-x="1000" />
<glyph unicode="&#x2003;" horiz-adv-x="2001" />
<glyph unicode="&#x2004;" horiz-adv-x="667" />
<glyph unicode="&#x2005;" horiz-adv-x="500" />
<glyph unicode="&#x2006;" horiz-adv-x="333" />
<glyph unicode="&#x2007;" horiz-adv-x="333" />
<glyph unicode="&#x2008;" horiz-adv-x="250" />
<glyph unicode="&#x2009;" horiz-adv-x="400" />
<glyph unicode="&#x200a;" horiz-adv-x="111" />
<glyph unicode="&#x2010;" horiz-adv-x="860" d="M156 526q-39 0 -56.5 17.5t-17.5 56.5v274q0 74 74 74h549q39 0 56 -17t17 -57v-274q0 -40 -17 -57t-56 -17h-549z" />
<glyph unicode="&#x2011;" horiz-adv-x="860" d="M156 526q-39 0 -56.5 17.5t-17.5 56.5v274q0 74 74 74h549q39 0 56 -17t17 -57v-274q0 -40 -17 -57t-56 -17h-549z" />
<glyph unicode="&#x2012;" horiz-adv-x="860" d="M156 526q-39 0 -56.5 17.5t-17.5 56.5v274q0 74 74 74h549q39 0 56 -17t17 -57v-274q0 -40 -17 -57t-56 -17h-549z" />
<glyph unicode="&#x2013;" horiz-adv-x="1503" d="M217 526q-39 0 -56.5 17.5t-17.5 56.5v274q0 74 74 74h1069q39 0 56.5 -17.5t17.5 -56.5v-274q0 -39 -17.5 -56.5t-56.5 -17.5h-1069z" />
<glyph unicode="&#x2014;" horiz-adv-x="2322" d="M217 526q-39 0 -56.5 17.5t-17.5 56.5v274q0 74 74 74h1888q39 0 56.5 -17.5t17.5 -56.5v-274q0 -39 -17.5 -56.5t-56.5 -17.5h-1888z" />
<glyph unicode="&#x2018;" horiz-adv-x="786" d="M416 1475h157q39 0 56.5 -17.5t17.5 -56.5v-82q0 -74 -74 -74h-141q-55 0 -55 -57v-31h223q74 0 74 -74v-303q0 -38 -18 -55.5t-56 -17.5h-414q-38 0 -55.5 17.5t-17.5 55.5v385q0 153 80.5 231.5t222.5 78.5z" />
<glyph unicode="&#x2019;" horiz-adv-x="786" d="M371 707h-158q-39 0 -56.5 17t-17.5 56v82q0 74 74 74h141q56 0 56 57v31h-224q-38 0 -55.5 18t-17.5 56v303q0 38 17.5 56t55.5 18h414q74 0 74 -74v-385q0 -153 -80.5 -231t-222.5 -78z" />
<glyph unicode="&#x201a;" horiz-adv-x="786" d="M371 -205h-158q-39 0 -56.5 17.5t-17.5 56.5v82q0 74 74 74h141q56 0 56 57v31h-224q-38 0 -55.5 17.5t-17.5 55.5v303q0 38 17.5 56t55.5 18h414q74 0 74 -74v-385q0 -153 -80.5 -231t-222.5 -78z" />
<glyph unicode="&#x201c;" horiz-adv-x="1400" d="M395 1475h158q39 0 56.5 -17.5t17.5 -56.5v-82q0 -74 -74 -74h-141q-56 0 -56 -57v-31h224q38 0 55.5 -18t17.5 -56v-303q0 -38 -17.5 -55.5t-55.5 -17.5h-414q-38 0 -56 17.5t-18 55.5v385q0 153 80.5 231.5t222.5 78.5zM1051 1475h157q39 0 56.5 -17.5t17.5 -56.5v-82 q0 -74 -74 -74h-141q-55 0 -55 -57v-31h223q74 0 74 -74v-303q0 -38 -18 -55.5t-56 -17.5h-414q-38 0 -55.5 17.5t-17.5 55.5v385q0 153 80.5 231.5t222.5 78.5z" />
<glyph unicode="&#x201d;" horiz-adv-x="1400" d="M1006 707h-158q-39 0 -56.5 17t-17.5 56v82q0 74 74 74h141q55 0 55 57v31h-223q-38 0 -55.5 18t-17.5 56v303q0 38 17.5 56t55.5 18h414q74 0 74 -74v-385q0 -153 -80.5 -231t-222.5 -78zM350 707h-157q-39 0 -56.5 17t-17.5 56v82q0 74 74 74h141q55 0 55 57v31h-223 q-74 0 -74 74v303q0 74 74 74h414q38 0 55.5 -18t17.5 -56v-385q0 -153 -80.5 -231t-222.5 -78z" />
<glyph unicode="&#x201e;" horiz-adv-x="1400" d="M1006 -205h-158q-39 0 -56.5 17.5t-17.5 56.5v82q0 74 74 74h141q55 0 55 57v31h-223q-38 0 -55.5 17.5t-17.5 55.5v303q0 38 17.5 56t55.5 18h414q74 0 74 -74v-385q0 -153 -80.5 -231t-222.5 -78zM350 -205h-157q-39 0 -56.5 17.5t-17.5 56.5v82q0 74 74 74h141 q55 0 55 57v31h-223q-38 0 -56 17.5t-18 55.5v303q0 74 74 74h414q38 0 55.5 -18t17.5 -56v-385q0 -153 -80.5 -231t-222.5 -78z" />
<glyph unicode="&#x2022;" horiz-adv-x="907" d="M741 379h-575q-74 0 -74 74v577q0 39 17.5 56.5t56.5 17.5h575q39 0 56.5 -17.5t17.5 -56.5v-577q0 -74 -74 -74z" />
<glyph unicode="&#x2026;" horiz-adv-x="2273" d="M2087 0h-414q-74 0 -74 74v415q0 39 17.5 56.5t56.5 17.5h414q39 0 56.5 -17.5t17.5 -56.5v-415q0 -74 -74 -74zM1343 0h-413q-74 0 -74 74v415q0 39 17.5 56.5t56.5 17.5h413q39 0 56.5 -17.5t17.5 -56.5v-415q0 -74 -74 -74zM600 0h-414q-38 0 -55.5 18t-17.5 56v415 q0 39 17.5 56.5t55.5 17.5h414q39 0 56.5 -17.5t17.5 -56.5v-415q0 -74 -74 -74z" />
<glyph unicode="&#x202f;" horiz-adv-x="400" />
<glyph unicode="&#x2039;" horiz-adv-x="1153" d="M915 213l-532 109q-136 27 -198 98.5t-62 218.5v152q0 147 62 218.5t198 98.5l532 109q74 15 74 -64v-260q0 -39 -17.5 -58.5t-56.5 -25.5l-340 -55q-21 -3 -27.5 -11t-6.5 -28t6.5 -28t27.5 -11l340 -55q39 -6 56.5 -25.5t17.5 -58.5v-261q0 -78 -74 -63z" />
<glyph unicode="&#x203a;" horiz-adv-x="1153" d="M770 322l-532 -109q-74 -15 -74 63v261q0 39 17.5 58.5t56.5 25.5l340 55q21 3 27.5 11t6.5 28t-6.5 28t-27.5 11l-340 55q-39 6 -56.5 25.5t-17.5 58.5v260q0 79 74 64l532 -109q136 -27 198 -98.5t62 -218.5v-152q0 -147 -62 -218.5t-198 -98.5z" />
<glyph unicode="&#x205f;" horiz-adv-x="500" />
<glyph unicode="&#x20ac;" horiz-adv-x="1327" d="M1237 74q0 -74 -74 -74h-499q-142 0 -241.5 29.5t-156 87t-81.5 131t-25 170.5v31h-29q-27 0 -38 9.5t-11 37.5v147q0 28 11 38.5t38 10.5h29v84h-29q-27 0 -38 9.5t-11 37.5v148q0 28 11 38.5t38 10.5h29v35q0 98 25 172t81.5 131t156 87t241.5 30h499q74 0 74 -74v-227 q0 -74 -74 -74h-432q-63 0 -90.5 -21t-32.5 -59h367q27 0 38 -10.5t11 -38.5v-148q0 -28 -11 -37.5t-38 -9.5h-369v-84h369q27 0 38 -10.5t11 -38.5v-147q0 -28 -11 -37.5t-38 -9.5h-369q5 -38 32.5 -58t92.5 -20h432q74 0 74 -74v-223z" />
<glyph unicode="&#x2122;" horiz-adv-x="1849" d="M500 588h-195q-51 0 -51 53v582h-168q-53 0 -53 53v145q0 28 12 41t41 13h635q55 0 55 -54v-145q0 -53 -55 -53h-166v-582q0 -53 -55 -53zM1108 588h-182q-54 0 -54 53v780q0 54 54 54h192q42 0 66 -41q8 -14 47 -87.5t61 -109.5q8 -14 15 -14h10q3 0 12 14q4 7 46.5 84 t60.5 113q23 41 65 41h195q53 0 53 -54v-780q0 -53 -53 -53h-195q-53 0 -53 53v389l-53 -100q-23 -45 -72 -45h-39q-50 0 -70 45l-53 100v-389q0 -53 -53 -53z" />
<glyph unicode="&#x25fc;" horiz-adv-x="1474" d="M0 1475h1475v-1475h-1475v1475z" />
<glyph unicode="&#xfb01;" horiz-adv-x="2504" d="M532 0h-317q-74 0 -74 74v1327q0 74 74 74h913q74 0 74 -74v-244q0 -74 -74 -74h-522v-213h357q38 0 55.5 -17.5t17.5 -55.5v-246q0 -38 -17.5 -56t-55.5 -18h-357v-403q0 -74 -74 -74zM1448 0q-74 0 -74 74v243q0 74 74 74h203v688h-203q-74 0 -74 74v248q0 74 74 74 h872q74 0 74 -74v-248q0 -74 -74 -74h-198v-688h198q74 0 74 -74v-243q0 -74 -74 -74h-872z" />
<glyph unicode="&#xfb02;" horiz-adv-x="2689" d="M532 0h-317q-74 0 -74 74v1327q0 74 74 74h913q74 0 74 -74v-244q0 -74 -74 -74h-522v-213h357q38 0 55.5 -17.5t17.5 -55.5v-246q0 -38 -17.5 -56t-55.5 -18h-357v-403q0 -74 -74 -74zM2523 0h-1042q-74 0 -74 74v1327q0 74 74 74h317q74 0 74 -74v-1014h280v332 q0 74 74 74h297q74 0 74 -74v-645q0 -74 -74 -74z" />
</font>
</defs>
</svg>
