<?xml version="1.0" encoding="UTF-8"?>
<svg width="48px" height="48px" viewBox="0 0 48 48" version="1.1" xmlns="http://www.w3.org/2000/svg" xmlns:xlink="http://www.w3.org/1999/xlink">
    <!-- Generator: Sketch 51.3 (57544) - http://www.bohemiancoding.com/sketch -->
    <title>props-kryptonite</title>
    <desc>Created with Sketch.</desc>
    <defs></defs>
    <g id="SVGs" stroke="none" stroke-width="1" fill="none" fill-rule="evenodd">
        <g id="Slices" transform="translate(-295.000000, -354.000000)"></g>
        <g id="Group-128" transform="translate(12.000000, 11.000000)" fill-rule="nonzero">
            <polygon id="Path-276" fill="#294B14" points="12 0.11887429 6.83096924 7.51764471 10.4495361 21.3312988 13.4890869 21.3312988 17.0384766 7.51764471"></polygon>
            <path d="M4.20454114,24.0801225 L8.95145875,24.0801225 C9.0274699,24.0801225 9.1015306,24.1041818 9.16302977,24.1488534 L11.0985376,25.5547607 C11.2409573,25.658211 11.4373004,25.6435016 11.5627165,25.5199857 L13.3234514,23.7859286 C13.4538379,23.6575177 13.659815,23.6473595 13.8022038,23.762318 L15.5813522,25.1987257 C15.7360498,25.3236218 15.9627053,25.299463 16.0876014,25.1447654 C16.1167314,25.1086847 16.1386163,25.0673158 16.1520529,25.022933 L16.4302826,24.1039046 C16.4762507,23.9520662 16.6161947,23.8482167 16.7748388,23.8482167 L21.0559048,23.8482759 C21.25476,23.8482759 21.415964,23.6870719 21.415964,23.4882167 C21.415964,23.3810412 21.368219,23.2794366 21.285712,23.211032 C20.2891381,22.3847963 19.5462629,21.8480115 19.0570862,21.6006775 C18.4518127,21.2946435 17.7004272,21.1090587 16.8029297,21.0439231 L7.25928534,21.0437903 C7.20407713,21.0437903 7.14960799,21.0564832 7.10008688,21.0808883 C6.41962085,21.4162365 5.84176799,21.7636634 5.36652832,22.1231689 C4.98849478,22.4091408 4.5133121,22.8596887 3.9409803,23.4748127 L3.94091876,23.4747554 C3.80545269,23.6203501 3.81366349,23.8481948 3.95925811,23.9836608 C4.02589033,24.0456577 4.11352763,24.0801225 4.20454114,24.0801225 Z" id="Path-284" fill="#294B14"></path>
            <polygon id="Path-279" fill="#81DA45" points="6.83093262 7.4825162 9.25004883 8.59227406 14.390625 8.59227406 17.0051514 7.4825162 12 0.0872802734"></polygon>
            <polygon id="Path-278" fill="#B0E68C" points="12 1.10550204 9.27626953 8.58231978 14.4089355 8.58231978"></polygon>
            <polygon id="Path-280" fill="#81DA45" points="9.29619141 8.57027366 12 21.4045854 14.4137695 8.57027366"></polygon>
            <g id="Group-127" transform="translate(0.000000, 7.090909)">
                <polygon id="Path-277" fill="#294B14" points="1.55800781 0.301261208 0.655664062 6.07791693 7.51992188 14.755704 10.6103027 14.3767201 6.3623291 3.70991655"></polygon>
                <polygon id="Path-281" fill="#B0E68C" points="0.668701172 6.06215598 3.24213867 6.06215598 1.58708496 0.24186013"></polygon>
                <polygon id="Path-282" fill="#81DA45" points="3.23862305 6.04946067 6.38173828 3.71337891 1.58726807 0.262381814"></polygon>
                <polygon id="Path-283" fill="#B0E68C" points="3.21584473 6.03481778 10.4995605 14.149575 6.37051392 3.72048395"></polygon>
            </g>
            <g id="Group-127" transform="translate(18.600000, 14.772727) scale(-1, 1) translate(-18.600000, -14.772727) translate(13.200000, 7.090909)">
                <polygon id="Path-277" fill="#294B14" points="1.55800781 0.301261208 0.655664062 6.07791693 7.51992188 14.755704 10.6103027 14.3767201 6.3623291 3.70991655"></polygon>
                <polygon id="Path-281" fill="#B0E68C" points="0.668701172 6.06215598 3.24213867 6.06215598 1.58708496 0.24186013"></polygon>
                <polygon id="Path-282" fill="#81DA45" points="3.23862305 6.04946067 6.38173828 3.71337891 1.58726807 0.262381814"></polygon>
                <polygon id="Path-283" fill="#B0E68C" points="3.21584473 6.03481778 10.4995605 14.149575 6.37051392 3.72048395"></polygon>
            </g>
            <polygon id="Path-285" fill="#81DA45" points="6.90454102 20.6585194 4.79512939 22.6081876 4.58858643 23.3507912 8.17734375 22.6081876 8.26673584 21.1526989"></polygon>
            <polygon id="Path-285" fill="#81DA45" transform="translate(18.648926, 21.616745) scale(-1, 1) translate(-18.648926, -21.616745) " points="19.6231567 20.2886242 16.3400391 22.9448658 20.9578125 21.616745 20.6397217 20.3823964"></polygon>
            <polygon id="Path-286" fill="#81DA45" points="9.58729248 22.5870528 11.2493774 21.2727273 12.6915894 22.5870528 11.2022461 24.9082392"></polygon>
            <polygon id="Path-287" fill="#81DA45" points="13.7494629 22.517986 15.6368774 24.2529519 15.6368774 21.8659807 14.1391113 21.5390764"></polygon>
        </g>
    </g>
</svg>