<?xml version="1.0" encoding="UTF-8"?>
<svg width="49px" height="49px" viewBox="0 0 49 49" version="1.1" xmlns="http://www.w3.org/2000/svg" xmlns:xlink="http://www.w3.org/1999/xlink">
    <!-- Generator: Sketch 51.3 (57544) - http://www.bohemiancoding.com/sketch -->
    <title>props-treasure</title>
    <desc>Created with Sketch.</desc>
    <defs></defs>
    <g id="SVGs" stroke="none" stroke-width="1" fill="none" fill-rule="evenodd">
        <g id="Slices" transform="translate(-1256.000000, -353.000000)"></g>
        <g id="Group-56" transform="translate(15.073075, 13.000000)" fill-rule="nonzero">
            <polygon id="Path-138" stroke="#64320F" fill="#64320F" points="2.91911349 10.3417457 1.82207405 0.842720812 18.9470516 0.842720812 16.6770336 10.3417457"></polygon>
            <polygon id="Path-140" stroke="#FFB048" stroke-width="2" stroke-linejoin="round" points="1.97600084 8.89312752 1.05279558 0.476567014 19.2047813 0.476567014 17.4753267 8.89312752 19.2047813 11.067299 15.699303 23.5094184 3.9123501 23.5094184 0.186113099 11.067299"></polygon>
            <path d="M15.8505609,6.28551647 C16.059464,6.21455081 16.2892649,6.17529336 16.5305272,6.17529336 C17.4921075,6.17529336 18.2716223,6.79890525 18.2716223,7.56816949 C18.2716223,8.0042945 18.0210718,8.39360415 17.6288406,8.64900258 C18.042572,9.53152635 18.2716223,10.5034068 18.2716223,11.5241328 C18.2716223,15.5627701 14.685854,18.8367324 10.2625846,18.8367324 C5.83931523,18.8367324 2.25354691,15.5627701 2.25354691,11.5241328 C2.25354691,11.2835656 2.26626979,11.0457116 2.2911347,10.8111011 C2.16068199,10.8360703 2.0245244,10.8492927 1.88450648,10.8492927 C0.922926179,10.8492927 0.143411328,10.2256808 0.143411328,9.45641657 C0.143411328,8.68715233 0.922926179,8.06354045 1.88450648,8.06354045 C2.31798126,8.06354045 2.71445754,8.19026797 3.01920399,8.39993795 C3.52468704,7.42466086 4.25948806,6.56781951 5.1600526,5.88744187 C4.99420083,5.67415973 4.89840583,5.42238769 4.89840583,5.15271636 C4.89840583,4.38345212 5.67792068,3.75984024 6.63950098,3.75984024 C7.22672014,3.75984024 7.74604131,3.99240489 8.06139993,4.34868251 C8.32381559,3.84538186 8.9447703,3.49162776 9.66900462,3.49162776 C10.308319,3.49162776 10.8671538,3.76728677 11.169924,4.17813664 C11.3801098,3.9259654 11.7388953,3.75984024 12.1461815,3.75984024 C12.7937606,3.75984024 13.3187271,4.1798135 13.3187271,4.69787677 C13.3187271,4.7193514 13.3178251,4.74065748 13.3160497,4.7617721 C14.2667321,5.12002323 15.1253666,5.6405356 15.8505609,6.28551647 Z" id="Combined-Shape" stroke="#F0CA14" fill="#F0CA14"></path>
            <polygon id="Path-139" stroke="#64320F" fill="#64320F" points="1.37060286 12.3957619 4.28703564 22.5040951 15.47179 22.5040951 18.2716223 12.3957619"></polygon>
            <path d="M0.597101884,11.483391 L18.1783693,11.483391" id="Line-40" stroke="#FFB048" stroke-width="2" stroke-linecap="square"></path>
            <rect id="Rectangle-58" stroke="#FFB048" fill="#FFB048" stroke-linejoin="round" x="8.8885966" y="11.1065535" width="2.95085042" height="4.36758066"></rect>
            <circle id="Oval-37" fill="#FFFFFF" cx="5.25083745" cy="14.9734183" r="1"></circle>
            <circle id="Oval-37-Copy-6" fill="#FFFFFF" cx="6.64371357" cy="14.9734183" r="1"></circle>
            <circle id="Oval-37-Copy-7" fill="#FFFFFF" cx="7.34015163" cy="13.7787295" r="1"></circle>
            <circle id="Oval-37-Copy-8" fill="#FFFFFF" cx="7.8934626" cy="12.5414798" r="1"></circle>
            <circle id="Oval-37-Copy-9" fill="#FFFFFF" cx="8.19215854" cy="11.1641801" r="1"></circle>
            <circle id="Oval-37-Copy-10" fill="#FFFFFF" cx="8.99900912" cy="10.0156068" r="1"></circle>
            <circle id="Oval-37-Copy-11" fill="#FFFFFF" cx="10.3640218" cy="9.39917526" r="1"></circle>
            <circle id="Oval-37-Copy" fill="#FFFFFF" cx="4.30296432" cy="13.9343559" r="1"></circle>
            <circle id="Oval-37-Copy-2" fill="#FFFFFF" cx="3.60652626" cy="12.6894308" r="1"></circle>
            <circle id="Oval-37-Copy-3" fill="#FFFFFF" cx="3.35406896" cy="11.2965546" r="1"></circle>
            <circle id="Oval-37-Copy-4" fill="#FFFFFF" cx="3.35406896" cy="9.71503285" r="1"></circle>
            <circle id="Oval-37-Copy-5" fill="#FFFFFF" cx="4.30296432" cy="8.62273064" r="1"></circle>
            <path d="M9.92502607,13.02587 C9.63632026,12.8696542 9.44022274,12.5641481 9.44022274,12.212841 C9.44022274,11.7026409 9.85382167,11.289042 10.3640218,11.289042 C10.874222,11.289042 11.2878209,11.7026409 11.2878209,12.212841 C11.2878209,12.6098075 11.0374373,12.9482937 10.6859826,13.0789873 L11.4086789,15.2916456 L9.31936473,15.2916456 L9.92502607,13.02587 Z" id="Combined-Shape" fill="#424140"></path>
            <path d="M9.66758376,8.10782631 L12.8537681,8.10782631 C12.63275,7.40332403 12.1017193,7.0510729 11.260676,7.0510729 C10.4196326,7.0510729 9.88860186,7.40332403 9.66758376,8.10782631 Z" id="Path-141" fill="#9068C7"></path>
            <path d="M19.8671489,4.13719928 C19.010601,3.48921268 18.8887845,2.44291799 19.040869,2.10179711 C19.1929534,1.76067623 20.1838723,2.33521354 21.0404202,2.98320014 C21.8969682,3.63118674 22.329103,4.19807168 22.1172417,4.6348522 C21.9053805,5.07163271 20.7236968,4.78518588 19.8671489,4.13719928 Z" id="Oval-39" fill="#EEC61F"></path>
            <path d="M19.0032943,2.53001269 C19.2293403,3.0040993 19.5589413,3.41909936 19.9920974,3.77501287 C20.4252534,4.13092638 20.9819592,4.44418247 21.6622147,4.71478113 C20.3118341,6.9553721 19.0166776,7.61221244 17.7767452,6.68530214 C16.5368128,5.75839184 16.9456625,4.37329536 19.0032943,2.53001269 Z" id="Path-151" stroke="#F4CB37" fill="#F4CB37"></path>
            <ellipse id="Oval-38" fill="#274AAC" cx="18.5536888" cy="4.49432762" rx="1" ry="1"></ellipse>
            <ellipse id="Oval-38-Copy-2" fill="#274AAC" cx="18.0037489" cy="3.65888803" rx="1" ry="1"></ellipse>
            <ellipse id="Oval-38-Copy-3" fill="#274AAC" cx="20.6166283" cy="5.54001202" rx="1" ry="1"></ellipse>
            <ellipse id="Oval-38-Copy" fill="#274AAC" cx="19.4728566" cy="5.19193716" rx="1" ry="1"></ellipse>
            <polygon id="Path-143" fill="#87DB50" points="13.1695703 6.37567807 13.1695703 3.56574397 15.1238357 2.81222695 16.9933981 3.56574397 17.5512515 5.48561997 15.3604109 7.46885373"></polygon>
            <g id="Group-55" transform="translate(0.124336, 3.967165)">
                <polygon id="Path-142" fill="#DB4F50" points="2.72575903 4.63102588 0.633418675 3.99660551 0.633418675 1.57021276 1.67958885 0.412846874 4.38746028 0.412846874 4.99340711 2.52193638"></polygon>
                <path d="M0.661652882,3.94175908 C0.661652882,3.94175908 1.34173416,3.33583809 2.70189673,2.12399612 L4.16652973,3.28113337 L4.40699576,3.07861027 L2.70189673,1.92479777 L0.661652882,1.61796336 C0.661652882,3.16716051 0.661652882,3.94175908 0.661652882,3.94175908 Z" id="Path-144" fill="#E07B77"></path>
                <polygon id="Path-145" fill="#9D252A" points="0.630384993 3.93702664 2.73851678 4.64300487 4.17289598 3.28006294 2.73851678 2.04748838"></polygon>
                <polygon id="Path-146" fill="#BB2028" points="4.37158711 3.14214602 2.82144366 1.96918607 3.99721832 1.1139478 4.37158711 0.412846874 5.00325853 2.52658193"></polygon>
            </g>
            <path d="M5.94727551,6.10098406 C6.40181962,6.49932164 6.85127221,6.58348169 7.29563325,6.3534642 C7.7399943,6.1234467 7.94385529,5.78216424 7.90721622,5.32961681 C8.48775082,5.78021748 9.01846826,5.91763895 9.49936855,5.74188123 C9.98026883,5.56612351 10.4306698,5.29592284 10.8505716,4.93127922 C9.94976955,5.19683761 9.35281226,5.32961681 9.05969969,5.32961681 C8.76658713,5.32961681 8.30585331,5.03974884 7.67749823,4.46001292 C7.5346358,5.17896733 7.32703104,5.60625677 7.05468394,5.74188123 C6.78233684,5.87750569 6.4132007,5.99720663 5.94727551,6.10098406 Z" id="Path-147" fill="#E7A913"></path>
            <polygon id="Path-148" fill="#62AD3A" points="13.1695703 3.54024191 15.2496804 4.9117128 14.4106434 6.98224845 13.1695703 6.30802764"></polygon>
            <path d="M14.6675954,7.18721712 C14.6675954,7.18721712 14.9744199,6.45163503 15.588069,4.98047084 L17.5619431,5.42059315 L15.3794774,7.46779295 C14.9048894,7.2807424 14.6675954,7.18721712 14.6675954,7.18721712 Z" id="Path-149" fill="#62AD3A"></path>
            <polygon id="Path-150" fill="#B7EAA7" points="15.4306915 3.2505863 16.3953199 3.89573684 15.2225737 4.50209575 17.5512515 5.38899336 16.9836842 3.53230499"></polygon>
            <path d="M12.1363328,8.23191641 C12.7985534,9.2299521 13.4148255,9.72896995 13.9851491,9.72896995 C14.5554726,9.72896995 14.940108,9.32380436 15.1390553,8.51347319 C15.8266942,9.01585163 16.446449,9.26704085 16.9983199,9.26704085 C17.5501907,9.26704085 17.8853337,8.82985796 18.0037489,7.95549218 C17.790015,8.32747952 17.454872,8.51347319 16.9983199,8.51347319 C16.5417677,8.51347319 15.8990081,8.32747952 15.0700409,7.95549218 C14.6078063,8.82985796 14.2461757,9.26704085 13.9851491,9.26704085 C13.7241225,9.26704085 13.1078504,8.92199937 12.1363328,8.23191641 Z" id="Path-152" fill="#E7A913"></path>
            <path d="M5.25083745,9.13046791 C5.80163975,9.38206897 6.39479816,9.38206897 7.03031268,9.13046791 C7.6658272,8.87886686 8.02421175,8.39254958 8.10546632,7.67151606 C7.837536,8.14920996 7.47915145,8.50275381 7.03031268,8.73214761 C6.5814739,8.96154141 5.98831549,9.09431484 5.25083745,9.13046791 Z" id="Path-153" fill="#E7A913"></path>
        </g>
    </g>
</svg>