<?xml version="1.0" encoding="UTF-8"?>
<svg width="48px" height="48px" viewBox="0 0 48 48" version="1.1" xmlns="http://www.w3.org/2000/svg" xmlns:xlink="http://www.w3.org/1999/xlink">
    <!-- Generator: Sketch 51.3 (57544) - http://www.bohemiancoding.com/sketch -->
    <title>props-microphone</title>
    <desc>Created with Sketch.</desc>
    <defs></defs>
    <g id="SVGs" stroke="none" stroke-width="1" fill="none" fill-rule="evenodd">
        <g id="Slices" transform="translate(-472.000000, -354.000000)"></g>
        <g id="Group-130" transform="translate(12.000000, 13.000000)" fill-rule="nonzero">
            <path d="M3.2542871,10.9921872 L18.3446937,11.9754349 C19.397137,12.0440091 20.2154602,12.9180559 20.2146546,13.9727306 L20.2142027,14.5643705 C20.2133982,15.6176982 19.3957645,16.4898647 18.3446803,16.5585822 L3.28620692,17.5430721 C1.46913431,17.6618683 -0.100197445,16.2851433 -0.218993654,14.4680707 C-0.223347785,14.4014711 -0.225678711,14.3347548 -0.22598321,14.2680138 L-0.22598321,14.2680138 C-0.234217226,12.4632586 1.2221509,10.9935405 3.02690604,10.9853065 C3.10275661,10.9849604 3.17859624,10.9872554 3.2542871,10.9921872 Z" id="Rectangle-78" fill="#2A1958" transform="translate(9.989142, 14.268232) rotate(133.000000) translate(-9.989142, -14.268232) "></path>
            <circle id="Oval-70" fill="#939393" cx="18.5" cy="5.5" r="5.5"></circle>
            <path d="M14.9846191,9.7293396 C14.7294769,9.52113342 14.3670197,9.16351318 14.2015726,8.92981836 C14.8719482,7.39501953 15.7025807,6.16324164 16.6723633,5.065979 C18.0911289,3.4607134 19.666748,2.04241943 21.7175258,1.04456489 C21.8975067,1.12689209 22.4105377,1.61135864 22.5329742,1.76063538 C20.8796997,2.36444092 18.926782,4.28563581 17.4904175,5.80938721 C16.4986048,6.86154073 15.6518555,8.18780518 14.9846191,9.7293396 Z" id="Path-294" fill="#575857" opacity="0.24296875"></path>
            <path d="M13.0043683,5.29122856 C13.3995746,4.29237293 13.9294146,3.43859104 14.5951521,2.73235082 C15.704682,1.55531823 16.9745561,0.646008624 18.4016055,0.0064563644 C18.7384186,0.00357055664 18.981283,0.0239624047 19.375885,0.0724945068 C19.6441142,0.105484009 19.9927775,0.197545369 20.421875,0.348678589 C18.4522618,0.897050258 16.7359066,1.91922306 15.3228167,3.41828395 C14.3737636,4.42507641 13.7296865,5.80120512 13.3961053,7.5574507 C13.3442383,7.4309845 12.9192352,6.35437012 13.0043683,5.29122856 Z" id="Path-294" fill="#575857" opacity="0.24296875"></path>
            <path d="M23.6139984,3.47325134 C23.7196401,3.7275238 23.7930298,3.95264689 23.8341675,4.14862061 C23.895874,4.44258118 23.9443817,4.66932678 23.960668,4.87774927 C23.0623169,6.40441895 21.9197654,7.91340207 21.0139771,8.78857422 C20.2045145,9.57067651 19.1810303,10.3286133 18.0950342,10.9834412 C17.557089,10.9369243 17.0470968,10.8238771 16.5650574,10.6442998 C18.045166,9.80737305 19.2984771,8.98608569 20.2729861,8.04451561 C21.2474712,7.10296864 22.3809204,5.56335449 23.6139984,3.47325134 Z" id="Path-295" fill="#575857" opacity="0.24296875"></path>
            <path d="M14.2644043,2.04205322 C14.6639735,3.07937847 15.5743739,4.26618674 16.9956055,5.60247803 C18.7290039,7.23227946 20.4726562,8.47757975 22.2265625,9.33837891" id="Path-293" stroke="#DDDDDD" stroke-width="2" stroke-linecap="round"></path>
            <path d="M13.0388794,5.18200684 C13.416748,5.78710938 14.3360242,6.8874957 15.1849976,7.68572998 C16.6652442,9.07750928 17.7843018,9.92956543 19.4348755,10.9545898" id="Path-293" stroke="#DDDDDD" stroke-linecap="round"></path>
        </g>
    </g>
</svg>