<?xml version="1.0" encoding="UTF-8"?>
<svg width="48px" height="48px" viewBox="0 0 48 48" version="1.1" xmlns="http://www.w3.org/2000/svg" xmlns:xlink="http://www.w3.org/1999/xlink">
    <!-- Generator: Sketch 51.3 (57544) - http://www.bohemiancoding.com/sketch -->
    <title>props-lasso</title>
    <desc>Created with Sketch.</desc>
    <defs></defs>
    <g id="SVGs" stroke="none" stroke-width="1" fill="none" fill-rule="evenodd">
        <g id="Slices" transform="translate(-177.000000, -354.000000)"></g>
        <g id="Group-75" transform="translate(11.000000, 8.000000)" fill-rule="nonzero">
            <ellipse id="Oval-65" stroke="#E98734" stroke-width="2" transform="translate(12.000000, 11.363636) rotate(-40.000000) translate(-12.000000, -11.363636) " cx="12" cy="11.3636364" rx="10" ry="6.36363636"></ellipse>
            <circle id="Oval-66" fill="#E98734" cx="16.5" cy="15.5" r="1.5"></circle>
            <path d="M17.2214355,15.9138184 C18.9799072,16.7643818 20.403654,17.9637226 21.4926758,19.5118408 C22.789917,21.355957 23.1526962,24.0167739 21.6774902,25.3271484 C20.6549072,26.2354736 19.175293,26.7421875 15.7902832,25.3271484 C12.4052734,23.9121094 9.63061523,23.342041 7.25341797,23.6330566 C4.8762207,23.9240723 3,24.8493652 3,26.7060547 C3,28.5627441 5.4786377,29.4907227 7.46887207,29.4907227 C8.79569499,29.4907227 10.0044759,29.1200358 11.0952148,28.3786621" id="Path-173" stroke="#E98734" stroke-width="1.5" stroke-linecap="round" stroke-linejoin="round"></path>
            <path d="M19.6454468,16.9442139 C19.6454468,16.8186354 19.691742,16.7038697 19.7681965,16.6160528 C19.9012146,16.7180939 20.4015961,17.1358032 20.6276936,17.3571578 C20.6117925,17.5394335 20.5851985,17.7182501 20.547866,17.8935075 C20.4832926,18.1966478 20.3830047,18.5084206 20.2475815,18.829019 C20.2194756,18.8955562 20.1786531,18.9528385 20.129137,18.9992322 C19.9520569,18.8017273 19.6148529,18.4794006 19.3976787,18.2618729 C19.4731785,18.0621294 19.5304664,17.8698643 19.5698097,17.6851668 C19.6201538,17.4488266 19.6454468,17.2020192 19.6454468,16.9442139 Z" id="Path-234" fill="#6E3A0C"></path>
            <path d="M22.5912554,20.7152917 C22.6514141,20.5970863 22.7521272,20.5130544 22.8678285,20.4715163 C22.9895172,20.7152917 23.1826019,21.3696747 23.2328644,21.6155747 C22.9045867,22.1486089 22.5375556,22.5411365 22.1247408,22.7884263 C22.0491251,22.8337227 21.9663583,22.8567149 21.884095,22.8593223 C21.884095,22.6322632 21.8080139,22.0952606 21.7448212,21.8395682 C22.0363342,21.6179266 22.3215497,21.2452342 22.5912554,20.7152917 Z" id="Path-237" fill="#6E3A0C"></path>
            <path d="M18.4720525,25.7473996 C18.3903337,25.6332069 18.3635562,25.4963222 18.3865026,25.3682207 C18.8524933,25.4329834 19.1873474,25.4540372 19.5120048,25.4540372 C19.8494384,25.8448589 20.2448553,26.1436872 20.7011562,26.3541254 C20.8333489,26.4150904 20.9262933,26.5264633 20.9676905,26.6548919 C20.7011562,26.790451 19.9597931,26.943912 19.7067973,26.943912 C19.2327064,26.6339201 18.8204426,26.2342353 18.4720525,25.7473996 Z" id="Path-238" fill="#6E3A0C"></path>
            <path d="M12.8692607,23.924524 C12.7549506,23.7934957 12.7211539,23.6197383 12.7637519,23.4636925 C13.1143188,23.5518951 13.9044037,23.8123322 14.1013277,23.8811925 C14.4600279,24.4048458 14.688205,24.9245147 14.7813834,25.4416755 C14.7987925,25.5382993 14.7871804,25.6334363 14.7527689,25.7181303 C14.5969391,25.6534882 13.9726715,25.4169006 13.7284545,25.3410545 C13.5895473,24.8973683 13.3053994,24.4244493 12.8692607,23.924524 Z" id="Path-239" fill="#6E3A0C"></path>
            <path d="M6.44682029,23.4624655 C6.26189269,23.4033521 6.13527379,23.2467089 6.10560341,23.0674855 C6.26189269,23.0305786 7.05560303,22.8812256 7.56692864,22.8470438 C8.12965332,23.1411257 8.58738788,23.5299654 8.93461903,24.0134469 C9.00245657,24.1079033 9.03263799,24.2179874 9.02809649,24.3258157 C8.78134155,24.305069 8.19921875,24.3258157 7.90178217,24.3287222 C7.5439239,23.9477936 7.06197904,23.6591054 6.44682029,23.4624655 Z" id="Path-240" fill="#6E3A0C"></path>
            <path d="M3.32593115,26.8645928 C3.4050208,26.6893276 3.57261678,26.5818142 3.75209338,26.5710258 C3.75209338,26.7925873 3.72846985,27.1862793 4.13827544,27.6162326 C4.07508072,27.9769949 4.08761705,28.4749839 4.18644614,29.1040389 C4.20580371,29.2272513 4.17839203,29.3470146 4.11737472,29.4452579 C3.72889709,29.2540283 3.26335144,28.8802948 3.13058601,28.7297703 C3.05515187,27.950204 3.11528936,27.3313816 3.32593115,26.8645928 Z" id="Path-241" fill="#6E3A0C"></path>
            <path d="M7.41918178,29.1019937 C7.31985605,29.0020994 7.27143513,28.870778 7.27382711,28.7402416 C7.47982788,28.7402416 7.94110107,28.7402416 8.42747427,28.665822 C8.85549664,29.0082118 9.35092712,29.2360864 9.91986928,29.3519804 C10.0978152,29.3882282 10.2342798,29.5148284 10.2911873,29.6742255 C10.149292,29.7479553 9.24705505,30.0578766 8.93046818,30.0993279 C8.36231458,29.8755559 7.85725169,29.542571 7.41918178,29.1019937 Z" id="Path-242" fill="#6E3A0C"></path>
            <path d="M16.8778229,15.5692679 C16.5759319,16.0726637 16.4699683,16.5159773 16.5392054,16.9076341 C16.5447792,16.9391637 16.547267,16.9705251 16.5468856,17.0014083 C16.0549927,17.0210419 15.6197052,16.749176 15.5188709,16.6329543 C15.5275878,16.0772296 15.7279883,15.5028206 16.1074981,14.9148389 C15.8915018,14.7714746 15.655845,14.6409458 15.400006,14.5225582 C15.391263,14.5185125 15.3826922,14.5142462 15.3742971,14.509769 C15.6359711,14.1895752 16.174118,13.9602051 16.5380903,14.0042417 C17.1299758,14.3782241 17.617096,14.8357177 17.9962021,15.3750859 C18.0429688,15.8884888 17.7516937,16.4261169 17.5395203,16.5810699 C17.3697202,16.2036232 17.1499527,15.8674184 16.8778229,15.5692679 Z" id="Combined-Shape" fill="#6E3A0C"></path>
            <path d="M9.82435245,3.95646765 C9.88496636,4.06245895 9.907136,4.19076927 9.87699196,4.31900496 C9.7137496,5.01345404 9.70683218,5.66705049 9.85368767,6.2856042 C9.63900757,6.42869568 9.18200684,6.76187134 9.04841736,6.85863045 C8.98165474,6.7962186 8.93119324,6.71476875 8.90643167,6.6197924 C8.73558599,5.9644909 8.70391831,5.28197581 8.80985753,4.57582382 C8.93132019,4.48995972 9.57693481,4.08119202 9.82435245,3.95646765 Z" id="Path-245" fill="#6E3A0C" opacity="0.780915179"></path>
            <path d="M14.708935,2.34639535 C14.7316899,2.45435516 14.7190333,2.57051949 14.664986,2.67645276 C14.4449486,3.10772886 14.3319092,3.64694401 14.3319092,4.29858398 C14.3319092,4.33907355 14.3270964,4.37843905 14.3180118,4.41613961 C14.0041809,4.48297119 13.5692596,4.58432007 13.4423026,4.61199136 C13.3732449,4.52625258 13.3319092,4.41724552 13.3319092,4.29858398 C13.3319092,3.62589831 13.4344742,3.02889063 13.6431826,2.51021789 C13.7481995,2.46992493 14.3180118,2.3717041 14.708935,2.34639535 Z" id="Path-246" fill="#6E3A0C" opacity="0.780915179"></path>
            <path d="M19.5253793,3.45082378 C19.4760043,3.52614381 19.4056803,3.58905304 19.3179854,3.62977037 C18.7090724,3.91249278 18.2442275,4.29237561 17.903656,4.79673767 C17.509491,4.58065796 17.1416168,4.49264526 16.9897261,4.4525139 C17.0005857,4.38172712 17.0268957,4.31216911 17.0696329,4.24887837 C17.4493292,3.68657524 17.9512536,3.2325341 18.5696427,2.88912512 C18.7307587,2.94421387 19.3179854,3.27989197 19.5253793,3.45082378 Z" id="Path-247" fill="#6E3A0C" opacity="0.780915179"></path>
            <path d="M5.91619313,6.99212609 C6.00817269,7.07143174 6.07167379,7.18425493 6.08642204,7.31444725 C6.16831517,8.03737076 6.36782988,8.64658966 6.68216517,9.1474855 C6.55279541,9.30181885 6.1627655,9.8177948 6.07376913,9.94699166 C6.00978531,9.91006059 5.9530328,9.85832068 5.9090569,9.79286057 C5.53747764,9.23974817 5.2866456,8.59170107 5.15457378,7.85253682 C5.22906494,7.73768616 5.73864746,7.15383911 5.91619313,6.99212609 Z" id="Path-248" fill="#6E3A0C" opacity="0.780915179"></path>
            <path d="M2.68996177,12.3158162 C2.79878949,12.3477446 2.89741385,12.4166819 2.96517428,12.5184808 C3.26931621,12.9754038 3.746114,13.4119171 4.39984112,13.8233402 C4.37756348,14.0012054 4.317544,14.6629333 4.317544,14.8176265 C4.20949277,14.8313196 4.09622854,14.8099668 3.99584903,14.7491291 C3.3434742,14.35374 2.81917061,13.9250438 2.42539103,13.4603543 C2.44953918,13.3014679 2.57157898,12.6277924 2.68996177,12.3158162 Z" id="Path-249" fill="#6E3A0C" opacity="0.780915179"></path>
            <path d="M3.86527594,18.7572674 C3.95766425,18.6573207 4.0902821,18.5952394 4.23710391,18.5965784 C4.99792696,18.6035173 5.68600259,18.4189946 6.31141568,18.0403407 C6.66990662,18.1968536 7.22413635,18.3235931 7.3733963,18.3550282 C7.35034401,18.4763309 7.28259271,18.5893696 7.17450961,18.6672521 C6.4872161,19.1625025 5.72801353,19.4606796 4.90443459,19.5597894 C4.67826843,19.4675751 3.9798584,18.9048767 3.86527594,18.7572674 Z" id="Path-250" fill="#6E3A0C" opacity="0.780915179"></path>
            <path d="M11.0825505,20.0478187 C11.0806759,19.9688699 11.097529,19.8883241 11.1353059,19.8127702 C11.4991488,19.0850844 11.6945843,18.3912922 11.7261489,17.7292337 C11.8555756,17.677948 12.4484711,17.4006348 12.673898,17.3068654 C12.7101867,17.3761317 12.7307129,17.4549559 12.7307129,17.5385742 C12.7307129,18.2281264 12.5868959,18.9331892 12.3021129,19.6524049 C12.0796967,19.7674408 11.3921051,19.968811 11.0825505,20.0478187 Z" id="Path-251" fill="#6E3A0C" opacity="0.780915179"></path>
            <path d="M18.6960175,11.5258548 C18.7793218,11.5631587 18.853417,11.623705 18.9076642,11.7053488 C19.3293032,12.33993 19.5944698,13.0193904 19.7011815,13.7388274 C19.5997467,13.9276276 19.019043,14.6970367 18.896284,14.8257267 C18.8088433,14.735689 18.7550049,14.6128403 18.7550049,14.477417 C18.7550049,13.7419799 18.5638017,13.0595661 18.1776959,12.4210275 C18.2493134,12.3079529 18.5353241,11.8198853 18.6960175,11.5258548 Z" id="Path-252" fill="#6E3A0C" opacity="0.780915179"></path>
            <path d="M19.6305711,7.25563821 C19.6991534,7.24641953 19.7707614,7.2513653 19.8413286,7.27265685 C20.5756043,7.49420261 21.1885651,7.88167132 21.6720852,8.42871976 C21.6720852,8.73550415 21.5422516,9.47743225 21.4829161,9.77338064 C21.400299,9.7318606 21.3282212,9.66696058 21.2776221,9.58148441 C20.8990254,8.94192814 20.3722104,8.50959912 19.6802219,8.27126176 C19.6991534,7.96548462 19.6591034,7.48764038 19.6305711,7.25563821 Z" id="Path-253" fill="#6E3A0C" opacity="0.780915179"></path>
        </g>
    </g>
</svg>