<?xml version="1.0" encoding="UTF-8"?>
<svg width="49px" height="49px" viewBox="0 0 49 49" version="1.1" xmlns="http://www.w3.org/2000/svg" xmlns:xlink="http://www.w3.org/1999/xlink">
    <!-- Generator: Sketch 51.3 (57544) - http://www.bohemiancoding.com/sketch -->
    <title>props-soccerball</title>
    <desc>Created with Sketch.</desc>
    <defs></defs>
    <g id="SVGs" stroke="none" stroke-width="1" fill="none" fill-rule="evenodd">
        <g id="Slices" transform="translate(-1072.000000, -353.000000)"></g>
        <g id="Group-38" transform="translate(13.389868, 12.792893)" fill-rule="nonzero">
            <circle id="Oval-22" fill="#CBBFF5" cx="11.5454044" cy="12.0102958" r="11.3730869"></circle>
            <polygon id="Path-76" stroke="#391755" fill="#391755" stroke-linejoin="round" points="2.27807706 11.9702995 6.79242217 13.1440172 9.56868144 9.22342814 6.79242217 5.06653615 2.27807706 6.80222298"></polygon>
            <polygon id="Path-77" stroke="#391755" fill="#391755" points="13.8589195 9.36175299 16.4470271 12.2996973 20.3387161 11.1649267 20.6697418 7.02796105 15.9413274 4.98244238"></polygon>
            <polygon id="Path-78" stroke="#391755" fill="#391755" points="7.8227705 19.3606822 9.86169309 15.992771 13.5716234 15.992771 15.9139658 19.3606822 12.6898711 22.8096868 11.5497081 22.8618473"></polygon>
            <path d="M7.84461341,1.2477938 L8.65485417,2.41534453 L14.0680397,2.41534453 L15.2799726,1.2477938 C13.9153828,0.828202209 12.6705267,0.618406412 11.5454044,0.618406412 C10.420282,0.618406412 9.18668504,0.828202209 7.84461341,1.2477938 Z" id="Path-79" fill="#391755"></path>
            <path d="M19.2361427,19.6417209 L18.9572032,18.745292 L20.3570386,15.9971683 C20.969169,15.9971683 21.397791,15.9971683 21.6429047,15.9971683 C21.0816721,17.4256446 20.2794181,18.6404954 19.2361427,19.6417209 Z" id="Path-80" stroke="#391755" fill="#391755"></path>
            <path d="M0.669049505,15.2231983 C0.669049505,15.8862606 2.00736726,18.5295401 2.63008637,19.0855655 C2.73965041,18.2121182 2.81985486,17.9334955 2.21254715,16.7730804 C1.60523943,15.6126653 1.19326888,15.3882437 0.669049505,15.2231983 Z" id="Path-81" fill="#391755"></path>
        </g>
    </g>
</svg>