<?xml version="1.0" encoding="UTF-8"?>
<svg width="48px" height="48px" viewBox="0 0 48 48" version="1.1" xmlns="http://www.w3.org/2000/svg" xmlns:xlink="http://www.w3.org/1999/xlink">
    <!-- Generator: Sketch 51.3 (57544) - http://www.bohemiancoding.com/sketch -->
    <title>props-paintbrush</title>
    <desc>Created with Sketch.</desc>
    <defs></defs>
    <g id="SVGs" stroke="none" stroke-width="1" fill="none" fill-rule="evenodd">
        <g id="Slices" transform="translate(-413.000000, -354.000000)"></g>
        <g id="Group-23" transform="translate(12.000000, 10.000000)" fill-rule="nonzero">
            <path d="M0.62127697,24.3629357 L11.0002089,11.402744 C11.4887723,10.7926739 12.3540657,10.6396658 13.0222159,11.0451965 L13.0247803,11.0467529 C13.5503064,11.3657186 13.7177568,12.0503146 13.398791,12.5758407 C13.3591645,12.6411292 13.3129237,12.7021661 13.2607996,12.7579866 L1.54005544,25.3099148 C1.31273973,25.5533508 0.931120104,25.5664188 0.687684151,25.3391031 C0.679947582,25.3318788 0.672402553,25.3244521 0.665056908,25.3168307 L0.665056908,25.3168307 C0.412768655,25.0550712 0.39402625,24.6467041 0.62127697,24.3629357 Z" id="Path-29" stroke="#6E3A0C" stroke-width="0.77805" fill="#6E3A0C"></path>
            <path d="M13.2134457,8.59467399 C13.7557622,8.68381826 14.2284717,8.8710671 14.6315739,9.15642051 C15.2362272,9.58445062 15.5562447,9.79244266 15.8878396,10.2068447 C16.5476096,10.4603456 20.7612723,10.2538018 21.0642669,6.06295597 C21.2662633,3.26905876 22.1179296,1.39694298 23.6192659,0.446608633 C21.5739978,1.0755934 19.6606225,1.34472908 17.8791399,1.25401569 C15.5708985,1.13647964 13.1175685,3.06819614 12.7671504,5.20886691 C12.5335384,6.63598076 12.6823035,7.76458312 13.2134457,8.59467399 Z" id="Path-30" stroke="#6E3A0C" stroke-width="0.62244" fill="#6E3A0C" stroke-linecap="round" stroke-linejoin="round" transform="translate(18.139686, 5.362777) rotate(4.000000) translate(-18.139686, -5.362777) "></path>
            <path d="M23.9309692,0.899719238 C23.9307505,1.89830803 23.8722381,2.63229647 23.7554321,3.10168457 C23.4552837,4.30783913 23.208876,4.54982966 23.164268,5.11894642 C23.1196599,5.68806319 23.3232363,6.58605402 24.2825412,6.58605402 C25.241846,6.58605402 25.500587,5.44755013 25.494873,4.85668945 C25.4835411,3.68490448 24.9701472,2.45465604 24.2924805,0.715909091 C24.2541711,0.617615544 24.1336674,0.678885593 23.9309692,0.899719238 Z" id="Path-31" fill="#6E49D3"></path>
            <path d="M15.491272,10.3682861 C14.8760188,10.0710919 14.4309911,9.81919978 14.156189,9.61260986 C13.8813868,9.40601994 13.5092554,9.0507343 13.0397949,8.54675293 L10.0649414,12.446167 C10.3409876,12.8327824 10.6046595,13.1259953 10.855957,13.3258057 C11.1072546,13.525616 11.5182247,13.7688208 12.0888672,14.0554199 L15.491272,10.3682861 Z" id="Path-33" stroke="#C49AEA" stroke-width="0.77805" fill="#C29AE9" stroke-linecap="round" stroke-linejoin="round"></path>
            <path d="M13.3175251,3.08746338 C14.3031887,1.84340413 15.5965169,1.13745117 17.1975098,0.969604492 C18.4397659,0.839367456 18.7203369,0.969604492 20.1272583,0.969604492 C22.4981079,0.969604492 23.4924362,0.523681641 23.9307861,0.523681641 C24.2172723,0.523681641 24.4443359,0.738220215 24.1873779,1.06121826 C24.168665,1.0847405 22.1286621,1.87823486 21.4035034,5.73748779 C21.2037976,6.80031052 20.6248872,7.06794924 20.1272583,7.01275635 C19.6296294,6.95756346 19.1068704,6.62716261 19.0974564,5.95960255 C19.0880425,5.29204249 18.9764454,4.81203335 18.5802846,4.49393113 C18.1841238,4.17582891 17.2457668,4.43570758 16.7477804,4.83522952 C16.0486204,5.39614795 13.912511,5.63065991 13.3175251,4.94398341 C12.9208678,4.48619907 12.9208678,3.86735906 13.3175251,3.08746338 Z" id="Path-34" fill="#6E49D3"></path>
        </g>
    </g>
</svg>