<?xml version="1.0" encoding="UTF-8"?>
<svg width="49px" height="48px" viewBox="0 0 49 48" version="1.1" xmlns="http://www.w3.org/2000/svg" xmlns:xlink="http://www.w3.org/1999/xlink">
    <!-- Generator: Sketch 51.3 (57544) - http://www.bohemiancoding.com/sketch -->
    <title>props-bobacup</title>
    <desc>Created with Sketch.</desc>
    <defs></defs>
    <g id="SVGs" stroke="none" stroke-width="1" fill="none" fill-rule="evenodd">
        <g id="Slices" transform="translate(-951.000000, -354.000000)"></g>
        <g id="Boba-Cup" transform="translate(15.355875, 12.000000)">
            <path d="M10.2883301,8.19219971 L7.28833008,8.19219971 L7.28833008,1.5 C7.28833008,0.94771525 7.73604533,0.5 8.28833008,0.5 L9.28833008,0.5 C9.84061483,0.5 10.2883301,0.94771525 10.2883301,1.5 L10.2883301,8.19219971 Z" id="Path-320" fill="#3AB99D" fill-rule="nonzero"></path>
            <path d="M2.93661523,9 L14.6710508,9 C15.2233355,9 15.6710508,9.44771525 15.6710508,10 C15.6710508,10.041465 15.6684718,10.0828899 15.6633287,10.1240347 L13.9133287,24.1240347 C13.8507751,24.6244636 13.4253741,25 12.9210508,25 L4.68661523,25 C4.18229196,25 3.75689095,24.6244636 3.69433735,24.1240347 L1.94433735,10.1240347 C1.87583486,9.5760148 2.26456055,9.07622462 2.81258049,9.00772212 C2.85372532,9.00257902 2.8951502,9 2.93661523,9 Z" id="Rectangle-86" fill="#E76537"></path>
            <path d="M1.6292805,6.68261719 L15.8991328,6.68261719 C16.391115,6.68261719 16.81001,7.04047301 16.8868581,7.52641624 L17.2031423,9.52641624 C17.2894097,10.0719219 16.9171236,10.5840751 16.3716179,10.6703425 C16.3199521,10.678513 16.2677249,10.6826172 16.215417,10.6826172 L1.36341136,10.6826172 C0.811126613,10.6826172 0.363411363,10.2349019 0.363411363,9.68261719 C0.363411363,9.63854791 0.366324511,9.59452683 0.372131755,9.55084186 L0.638000895,7.55084186 C0.704066678,7.05386216 1.12792882,6.68261719 1.6292805,6.68261719 Z" id="Rectangle-85" fill="#FEBB85"></path>
            <g id="Group-143" transform="translate(1.000000, 7.182617)" stroke="#E76537" stroke-linecap="round">
                <path d="M7.81096191,0.637262518 L7.81096191,2.39304051" id="Path-319"></path>
                <path d="M1.16251221,0.637262518 L1.00383301,2.39045114" id="Path-319-Copy-5"></path>
                <path d="M4.34148788,0.637262518 L4.26214828,2.42198597" id="Path-319-Copy-6"></path>
                <path d="M14.6383881,0.637262518 L14.4797089,2.39045114" id="Path-319-Copy-7" transform="translate(14.559048, 1.513857) scale(-1, 1) translate(-14.559048, -1.513857) "></path>
                <path d="M11.3206856,0.637262518 L11.241346,2.42198597" id="Path-319-Copy-8" transform="translate(11.281016, 1.529624) scale(-1, 1) translate(-11.281016, -1.529624) "></path>
            </g>
            <circle id="Oval-86" fill="#323232" cx="5.5" cy="19.5" r="1.5"></circle>
            <circle id="Oval-86-Copy" fill="#323232" cx="9" cy="21.2647705" r="1.5"></circle>
            <circle id="Oval-86-Copy-2" fill="#323232" cx="12.3275146" cy="18.9754639" r="1.5"></circle>
            <circle id="Oval-86-Copy-3" fill="#323232" cx="12" cy="23.1506348" r="1.5"></circle>
            <circle id="Oval-86-Copy-4" fill="#323232" cx="6" cy="22.949585" r="1.5"></circle>
        </g>
    </g>
</svg>