<?xml version="1.0" encoding="UTF-8"?>
<svg width="48px" height="48px" viewBox="0 0 48 48" version="1.1" xmlns="http://www.w3.org/2000/svg" xmlns:xlink="http://www.w3.org/1999/xlink">
    <!-- Generator: Sketch 51.3 (57544) - http://www.bohemiancoding.com/sketch -->
    <title>props-teacupmug</title>
    <desc>Created with Sketch.</desc>
    <defs></defs>
    <g id="SVGs" stroke="none" stroke-width="1" fill="none" fill-rule="evenodd">
        <g id="Slices" transform="translate(-354.000000, -354.000000)"></g>
        <g id="Group-129" transform="translate(11.000000, 7.000000)" fill-rule="nonzero">
            <path d="M6.90268492,9.5956819 L24.5258865,9.5956819 C25.2438567,9.5956819 25.8258865,10.1777117 25.8258865,10.8956819 C25.8258865,10.9500236 25.8224792,11.0043118 25.8156846,11.0582271 L24.145303,24.3127259 C23.7357385,27.5626255 20.971918,30 17.6963127,30 L13.7322588,30 C10.4566534,30 7.69283294,27.5626255 7.28326842,24.3127259 L5.61288685,11.0582271 C5.52311562,10.3458913 6.02780393,9.69565505 6.74013974,9.60588382 C6.79405498,9.59908922 6.84834322,9.5956819 6.90268492,9.5956819 Z" id="Rectangle-77" fill="#DDDDDD"></path>
            <ellipse id="Oval-47" fill="#9EB4EE" cx="15.7142857" cy="24.7826087" rx="3.85714286" ry="1.30434783"></ellipse>
            <path d="M15.1387591,24.4962477 L15.1387591,20.6033458" id="Path-291" stroke="#201927" stroke-width="0.91" stroke-linecap="round" stroke-linejoin="round"></path>
            <path d="M16.2275827,24.534461 L16.2275827,20.6033458" id="Path-291" stroke="#201927" stroke-width="0.91" stroke-linecap="round" stroke-linejoin="round"></path>
            <path d="M16.9496983,24.4319219 L16.9496983,24.4319219 C17.463569,24.318507 17.8294678,23.8630459 17.8294678,23.3368083 L17.8294678,21.5380654 C17.8294678,21.3003861 17.894628,21.0672552 18.0178638,20.8640204 L18.1759295,20.6033458" id="Path-291" stroke="#201927" stroke-width="0.91" stroke-linecap="round" stroke-linejoin="round" transform="translate(17.592555, 22.517634) scale(-1, 1) translate(-17.592555, -22.517634) "></path>
            <path d="M13.1306152,24.4319219 L13.1306152,24.4319219 C13.6444859,24.318507 14.0103847,23.8630459 14.0103847,23.3368083 L14.0103847,21.5380654 C14.0103847,21.3003861 14.0755449,21.0672552 14.1987807,20.8640204 L14.3568464,20.6033458" id="Path-291" stroke="#201927" stroke-width="0.91" stroke-linecap="round" stroke-linejoin="round"></path>
            <g id="Group-3" transform="translate(11.857143, 14.347826)">
                <path d="M3.85714286,6.34766721 C5.98738403,6.34766721 7.71428571,5.39808408 7.71428571,3.79185052 C7.71428571,3.3244756 7.56807438,2.85300259 7.30825899,2.41938755 C7.48978346,1.74068197 7.70713244,0.389458687 7.25942931,0.0976385178 C6.65944248,-0.293442638 5.60047134,0.603986461 5.30233146,0.793138141 C4.85599559,0.626203902 4.36817515,0.530980955 3.85714286,0.530980955 C3.3551403,0.530980955 2.87553656,0.622868527 2.43565275,0.78435645 C2.11157227,0.605234418 1.16392849,-0.194134118 0.564652423,0.0566280568 C-0.0650435467,0.320119193 0.286944954,1.91619212 0.427194915,2.38455068 C0.154166403,2.82768746 0,3.31192951 0,3.79185052 C0,5.39808408 1.72690168,6.34766721 3.85714286,6.34766721 Z" id="Oval-2" fill="#201927"></path>
                <path d="M3.85714286,6.25260715 C5.78450392,6.25260715 7.34693878,5.22670264 7.34693878,3.9611853 C7.34693878,3.16477681 6.72815706,2.459771 5.78905078,2.30788572 C5.23588857,2.21842066 4.57158755,2.55107954 3.85714286,2.55107954 C3.1470568,2.55107954 2.48650445,2.21817899 1.9353714,2.30625607 C0.990583846,2.45724346 0.367346939,3.16191491 0.367346939,3.9611853 C0.367346939,5.22670264 1.92978179,6.25260715 3.85714286,6.25260715 Z" id="Oval-2" fill="#F6D5AE"></path>
            </g>
            <path d="M7.31366839,14.4002102 C6.85035924,13.0902365 5.83244978,12.4352497 4.25994001,12.4352497 C1.90117536,12.4352497 0.749264603,14.5115593 0.531180246,16.0376507 C0.218069894,18.2287067 -0.79455848,25.6280463 5.3347168,26.3792884 C6.93650842,26.5756139 8.21751428,25.9493402 9.17773437,24.5004671" id="Path-288" stroke="#DDDDDD" stroke-width="2.6"></path>
            <path d="M9.04381888,18.6703093 C9.83091082,18.3859651 10.7998265,18.3418871 11.9505659,18.5380753 C10.8883449,18.8366168 10.0323138,19.1170867 8.99312483,20.3249459" id="Path-289" stroke="#201927" stroke-width="0.52" stroke-linecap="round" stroke-linejoin="round"></path>
            <path d="M19.5765294,18.6703093 C20.3636213,18.3859651 21.332537,18.3418871 22.4832764,18.5380753 C21.4210554,18.8366168 20.5650242,19.1170867 19.5258353,20.3249459" id="Path-289" stroke="#201927" stroke-width="0.52" stroke-linecap="round" stroke-linejoin="round" transform="translate(21.004556, 19.371437) scale(-1, 1) translate(-21.004556, -19.371437) "></path>
            <path d="M10.9594029,20.2618939 L11.1871577,20.2618939 C11.6595057,20.2618939 12.0424194,20.6448076 12.0424194,21.1171557 L12.0424194,21.1171557 C12.0424194,21.5895037 12.4253332,21.9724174 12.8976812,21.9724174 L13.991394,21.9724174" id="Path-290" stroke="#201927" stroke-width="0.91" stroke-linecap="round" stroke-linejoin="round"></path>
            <path d="M15.2141724,0.0144892154 L15.0567789,0.204542353 C14.3730383,1.03016143 14.2661039,2.19078656 14.7874773,3.12743903 L15.8526969,5.04112452 C16.0260031,5.35247087 16.1334613,5.69611772 16.1684004,6.05073138 C16.2650595,7.03177058 15.9642739,7.82391031 15.2660435,8.42715056" id="Path-292" stroke="#323232" stroke-width="1.3" stroke-linecap="round" stroke-linejoin="round"></path>
            <path d="M11.3570295,2.60869565 L11.3570295,2.60869565 C10.6400276,3.20749723 10.5348318,4.27028685 11.1205312,4.99803086 C12.5175258,7.2240576 12.2550572,7.9215395 11.4089007,8.42715056" id="Path-292" stroke="#323232" stroke-width="1.3" stroke-linecap="round" stroke-linejoin="round"></path>
            <path d="M19.0713152,2.60869565 L19.0713152,2.60869565 C18.3543133,3.20749723 18.2491176,4.27028685 18.8348169,4.99803086 C20.2318115,7.2240576 19.9693429,7.9215395 19.1231864,8.42715056" id="Path-292" stroke="#323232" stroke-width="1.3" stroke-linecap="round" stroke-linejoin="round"></path>
        </g>
    </g>
</svg>