<?xml version="1.0" encoding="utf-8"?>
<!-- Generator: Adobe Illustrator 22.1.0, SVG Export Plug-In . SVG Version: 6.00 Build 0)  -->
<svg version="1.1" id="new_x5F_layer_copy" xmlns="http://www.w3.org/2000/svg" xmlns:xlink="http://www.w3.org/1999/xlink" x="0px"
	 y="0px" viewBox="0 0 48 48" enable-background="new 0 0 48 48" xml:space="preserve">
<path fill="#971819" d="M35.6,20.1c-0.5,0.2,0.9,3-0.5,3.6c-0.3,0.8-0.5,1.6-0.4,2.5c-1.4,3-1.3,3.3-1.9,3.9
	c-1.4,0.7-1.4,0.8-1.7,0.9c-1,1.2-2.4,2.6-4.4,2.8c-0.5-1.2-4.4-1.1-7.8-1.7c-0.6-1.3-1.3-2.7-1.3-4.1c0,1.4,2.1,1.4,2,2.9
	c0.3,0.3,0.7,0.5,1.1,0.6c0.2,0.5,1.4,0.6,2.2,0.3c0.4,0,0.8,0.1,1.1,0.3c0.1,0,0.9-0.2,1.7-0.2c1.7-1.1,4.5-0.4,5.3-2.8
	c0.1-0.2,0.1-0.4,0.2-0.6c0.3-1,0.5-2.1,1.1-2.7c0.1-1.4-0.3-3.1,0.7-4c0.1-0.8,0.1-1.5-0.3-1.6c-0.4-1.1-1.1-2.1-1.2-3.1
	c-0.7-1.3-0.5-1.7-1.1-1.6c-5.6-6.6-7.8-3.4-10.2-4.2c-3.5,0.2-7.3,3.6-7.3,4.8c1.4,0,2.1-1.4,3.3-1.4c2.1-1.4,4.5-1.5,7-0.5
	c1.4,1,3.3,0.2,4.4,1c1.2,2.9,4.2-0.5,4.2,10c0-10.7-7.8-9.4-10-10c-0.7,0-1,0.1-1.7,0.2c-0.8-0.2-1.5,0-2.2,0.5
	c-0.1,1.6-2.2,0.3-1.9,1.5c-0.2,0.1-0.4,0.2-0.5,0.2c-1.2-0.8-0.5,1.3-1.8,1.5c-1.5,2.2-1.3,1.7-1.6,2.4c-0.5,1-0.9,2.1-1.3,2.9
	c-0.1,0.2-0.2,0.4-0.2,0.6c-0.2,1.5,1.4,2.7,0.9,4.3c0,0.2,0.1,0.3,0.1,0.5c0.2,0.5,0.4,1,0.6,1.5c0,0,0,0.1,0.1,0.1
	c0.4,0.5,0.8,1.1,1.2,1.6c0.1,0.1,0.1,0.2,0.2,0.2c0.6,0.3,0.6,0.3,0.9,0.7c0,0.1,0.1,0.1,0.1,0.2c0.3,0.6,1.6,1.1,1.7,0.7
	c0.1-0.6-0.7-0.7-0.7-0.7c-0.1-0.1-0.1-0.1-0.2-0.2c0.2-0.4-0.5-1.8-1.1-2.2c0-0.1,0-0.1-0.1-0.2c0,0,0-0.1-0.1-0.1
	c0-0.1,0-0.2,0-0.3c-0.1-0.6-0.4-1.1-0.7-1.6c-0.1-0.2-0.1-0.3-0.2-0.5c0.1-1.2,0.1-2.3,0.2-3c0.9-1.1,0.5-2.5,0.7-3.5
	c0.7-0.8,0.8-1.9,1.1-2.8c3.4-3.2,6.2-5.1,10.3-2.3c1.1,0.1,1.1,0.8,1.8,1.5c0.1,0.3-0.7-1.1-1.8-1c-2-0.9-3.2-0.4-4-0.5
	c-1.1,0.1-3.9,0.1-4.1,2.2c-1.4,2.2-0.8,2.9-1.8,3.3c-0.4,0.7-1.2,1.3-0.7,2.1c-2,10.3,11.1,11.5,11.5,10.4c6.1-0.2,5.9-3,8.3-4.3
	c0-0.1,1.9-4.1,2-5C37.7,24.3,37.1,19.6,35.6,20.1z M27.6,23.3c0.4,0.8,0.5,1.8,0.2,2.8c-0.1,0.2-0.2,0.4-0.3,0.5
	c-0.3,0.4-0.6,0.7-1,1.1c-0.7,0.6-1.6,1-2.6,1.1c-0.5,0.1-1,0-1.4-0.1c-0.2,0-0.3-0.1-0.5-0.1c-0.4-0.2-0.7-0.4-1.1-0.7
	c-0.4-0.3-0.7-0.7-1-1c-0.4-0.6-0.7-1.2-0.8-1.9c0-0.5,0-1.1,0.2-1.6c0-0.1,0.1-0.3,0.2-0.4s0.1-0.2,0.1-0.3
	c1.5-0.1,2.2-1.5,3.2-2.1c0.1,0,0.3,0,0.4,0c0.8,0,1.6,0.3,2.3,0.7c0.4,0.2,0.8,0.6,1.1,0.9C27.1,22.3,27.4,22.8,27.6,23.3z"/>
<path fill="#E76437" d="M33.4,21.5c-0.1,0-0.2,4.3-0.4,4.8c-0.3,0.8-0.3,1.6-0.9,2.2c-0.6,0.6-0.9,0.7-1.2,1.5
	c-0.4,1-1.6,1.5-2.5,1.9c-0.3,0.1-0.8,0.4-1.1,0.4c-0.2,0-0.5-0.3-0.8-0.4c-0.7-0.2-2,0.1-2.8,0.2c-0.8,0.1-1.6,0.2-2.4,0.2
	c0.3,0,0.9,0.1,1.2,0c0.1-0.1,0.4-0.6,0.6-0.7c0.5-0.4,1.2-0.4,1.7-0.3c0.4,0.1,0.8,0.5,1.2,0.6c0.6,0,1.3-0.5,1.7-0.8
	c2.2-1.5,2.9-3.9,3.1-6.4c0-0.7,0.1-1.6,0-2.3c-0.1-0.6-0.6-1-0.8-1.5c-0.3-0.9,0.1-1.9-1-2.5c-0.5-0.2-1.1,0-1.6-0.2
	c-0.4-0.2-0.5-0.7-0.9-0.9c-1.1-0.7-2.2-1-3.5-1.4c-0.6-0.2-1.4,0-2.1,0C20.6,16,20.3,16,20,16c-0.2,0-0.7-0.3-0.9-0.2
	c-0.5,0.2-0.3,0.6-0.6,0.9c-0.4,0.4-1.2,0.2-1.6,0.7c-0.3,0.4-0.3,0.7-0.7,1.1c-0.3,0.3-0.8,0.4-1.1,0.8c-0.4,0.5-0.3,0.8-0.3,1.4
	c0,0.8-0.2,1.6-0.5,2.5c-0.4,1.2-1.3,2.8-0.9,4.1c0.2,0.6,0.7,0.9,0.9,1.5c0.1,0.2,0.2,0.4,0.3,0.6c0.1,0.2,0.1,0.5,0,0.7
	c0.2,0.3,0.4,0.6,0.6,0.9c0.1,0.2,1.3,2.9,1.8,2c0.2-0.3-0.6-0.9-0.7-1.1c-0.3-0.5-0.3-1.2-0.5-1.8c-0.3-1.1-0.9-2-1-3.1
	c-0.1-1.5-0.1-3,0.6-4.3c0.3-0.5,0.4-1.1,0.7-1.6c0.3-0.8,0.6-0.7,1.3-1c0.9-0.4,1.8-2.5,2.3-1.9c0.1,0.2-0.9,0.5-1.1,1.5
	c0,0.2-0.3,0-0.4,0c-0.2,0.2-0.3,0.5-0.5,0.7c-0.3,0.3-0.4,0.1-0.7,0.6c-0.2,0.3-0.5,0.9-0.6,1.2c-0.2,0.5,0,1.1-0.1,1.6
	c-0.2,0.6-0.6,0.8-0.7,1.5c-0.1,0.7,0,1.5,0.2,2.2c0.3,1.2,0.9,1.9,1.6,2.9c0.7,1,1.5,2.1,2.6,2.7c0.7,0.4,1.3,0.5,2,0.7
	c0.7,0.1,0.9,0.4,1.5,0.8c0.7,0.4,1.3,0.5,2,0.1c0.2-0.1,1.6-0.4,1.1-0.1c0.7,0,1.1-0.8,1.8-1.1c0.8-0.4,1.7-0.9,2.3-1.5
	c1-0.9,1.7-1.7,2.2-3C33.1,28.2,34.5,21.4,33.4,21.5z M27.3,30.8c-0.1,0.1-0.2,0.1-0.3,0.2c-0.1,0.1-0.2,0.1-0.3,0.2
	c-0.3,0-0.6-0.1-0.9-0.1c-0.1,0-0.2,0-0.3,0c-1.5,0-2.5,0-3.2,0.4c-0.1,0-0.2,0-0.2-0.1c-0.1,0-0.2-0.1-0.2-0.1
	c-0.1-0.1-0.2-0.2-0.4-0.2c-0.3-0.1-0.5-0.3-0.7-0.4c-0.1-0.1-0.2-0.2-0.3-0.2c-1.2-1-1.9-1.7-2.2-3.3c0-0.1,0-0.2-0.1-0.3
	c-0.1-0.7-0.1-1.3,0-2c0-0.1,0-0.2,0.1-0.3c-0.1,0.7,0,1.4,0.2,2.1c0,0.1,0.1,0.3,0.1,0.4c0.7,1.7,1.4,2.4,2.5,3.1
	c0.1,0.1,0.2,0.1,0.3,0.2c0.1,0.1,0.3,0.2,0.4,0.2s0.2,0,0.3,0c1,0.4,2,0.4,3.2,0.3c0.1,0,0.2,0,0.3,0c0.4,0,0.7-0.1,0.9-0.2
	c0.1,0,0.1,0,0.2-0.1c0.1,0,0.1-0.1,0.2-0.1c0.7-0.3,1.3-0.7,1.8-1.1c0.1-0.1,0.2-0.2,0.4-0.2c-0.1,0.1-0.2,0.2-0.3,0.3
	C28.3,30.1,27.8,30.5,27.3,30.8z M26.3,22c0.1,0.1,0.2,0.2,0.3,0.3c0.3,0.4,0.6,0.9,0.7,1.5c0.2,0.6,0.2,1.2,0.1,1.8
	c-0.1,0.2-0.1,0.3-0.2,0.5c-0.4,0.8-1.1,1.4-1.9,1.8c-0.8,0.3-1.8,0.3-2.7,0c-0.9-0.4-1.5-1.1-1.9-2.1c0,0,0-0.1-0.1,0
	c0,0-0.1,0-0.1,0.1c0.2,1,0.9,1.9,1.8,2.4c0.2,0.1,0.4,0.2,0.6,0.3c0.1,0,0.2,0.1,0.3,0.1c0.6,0.1,0.6,0.1,1.3,0.1
	c0.1,0,0.2,0,0.4,0c-0.1,0.1-0.3,0.1-0.4,0.1c-0.6-0.1-1.3-0.1-2,0c-0.1,0-0.3-0.1-0.4-0.1s-0.2-0.1-0.3-0.1c-0.1,0-0.2-0.1-0.3-0.1
	c-0.5-0.4-1.9-0.4-1.5-1.7c-0.1-0.1-0.1-0.3-0.1-0.4s-0.1-0.3-0.1-0.4c-0.1-0.9,0.1-1.8,0.6-2.5s1.3-1.3,2.2-1.4
	c0.9-0.2,1.9,0.1,2.7,0.7h0.1v-0.1c-0.7-0.7-1.8-1.1-2.8-1.1c-0.6,0-1.1,0.2-1.6,0.5c0.1-0.1,0.2-0.2,0.2-0.2
	c0.7-0.5,1.5-0.8,2.3-0.9c0.3,0,0.5,0,0.8,0.1c0.1,0,0.2,0,0.3,0.1c0.7,0.1,0.7,0.1,1,0.5C25.8,21.5,26,21.6,26.3,22z M18.7,20
	c0.3-0.3,0.1-0.6,0.4-0.7c0.6-0.2,0.5-0.6,0.7-0.9c0-0.1,0.1-0.1,0.4-0.3c0.1,0,0.2,0,0.3-0.1c0.1,0,0.3,0,0.4,0
	c0.1,0.1,0.2,0.1,0.3,0.1c1.4,0.4,2.7-1.3,3.8-0.1c0.2,0.1,0.3,0.1,0.5,0.2c0.3,0,0.5,0.1,0.8,0.2c0.1,0,0.2,0.1,0.2,0.2
	C27,20,27,20,27.6,19.8c0,0.1,0.1,0.1,0.3,0.4c0,0.1,0,0.1,0.1,0.2c0.4,1.3,2.3,0.7,1.7,2.1c0,0.1,0,0.3,0,0.4s0,0.2,0,0.4
	c-0.2,0.6-0.2,2-0.1,2.5c0,0.1-0.1,0.2-0.1,0.3c0,0.1-0.1,0.2-0.1,0.3c-1.2-0.5,0.2,1.6-1.1,1.6c-0.1,0.1-0.2,0.1-0.2,0.2
	c0.1-0.1,0.2-0.2,0.2-0.3s0.1-0.2,0.2-0.4c0.4-0.2,0.4-0.2,0.3-0.8c0-0.1,0.1-0.3,0.1-0.4c0.1-0.2,0.1-0.5,0.2-0.7
	c0-0.1,0-0.2,0-0.4c-0.2-0.7-0.2-0.7,0-1.1c0-0.1,0-0.3-0.1-0.4c0-0.1-0.1-0.2-0.1-0.4c0-0.1-0.1-0.2-0.1-0.3s-0.1-0.2-0.1-0.3
	c0-0.2,0-0.3,0-0.5c0.1-0.6,0.1-0.6-0.6-1c-0.1-0.1-0.2-0.2-0.3-0.3c-0.6-0.4-1.2-0.7-1.4-1.2c-0.1-0.1-0.2-0.1-0.4-0.2
	c-0.1-0.1-0.2-0.1-0.4-0.2c-0.1,0-0.3-0.1-0.4-0.1c-1.2-1.2-3.3,0.2-4.5,0c-0.1,0.1-0.3,0.1-0.4,0.2c-0.6,0.3-1.2,0.7-1.7,1.2
	c-0.1,0.1-0.2,0.2-0.3,0.3c-0.1,0.1-0.2,0.2-0.3,0.4c-0.1,0.1-0.2,0.2-0.3,0.4c-0.1,0.1-0.2,0.3-0.2,0.4c-0.6,0.2-0.6,0.9-0.7,1.6
	c0,0.1-0.1,0.3-0.1,0.4s0,0.3-0.1,0.4c0,0.1,0,0.3,0,0.4c0.3,4.2-0.4,0-0.1,0c0-0.1,0-0.3,0-0.5c0-0.1,0-0.3,0-0.4s0-0.3,0-0.4
	c0.2-0.5,0.3-1,0.4-1.4c0-0.1,0.1-0.2,0.1-0.3c1.1,0.3,0-1.5,0.9-1.8c0.1,0,0.2-0.1,0.3-0.1C18.5,20.2,18.6,20.1,18.7,20z"/>
<path fill="#F1F6C2" d="M24.1,31.7c-1.6,0-3.3-0.7-4.4-1.9c-0.1-0.1-0.3-0.2-0.4-0.3c-2.5-2.3-3.1-5.2-1.4-8
	c0.1-0.2,0.2-0.4,0.4-0.5l0.3-0.3H19c0.2,0,0.6-0.4,0.8-0.7c0.6-0.7,1.5-1.6,2.8-1.6c0.1,0,0.1,0,0.2,0s0.3,0,0.4,0s0.2,0,0.3,0
	c1.2,0,2.4,0.3,3.6,0.9l0.5,0.3c0.8,0.5,1.4,1.2,1.6,1.9c0,0.1,0.1,0.1,0.1,0.2c0.7,0.7,1.7,1.8,1.1,3.3l-0.1,0.4l-0.1,0.1
	c0,0-0.1,0.1-0.1,0.2c-0.1,0.3-0.1,0.6-0.2,1c-0.1,1.1-0.3,2.7-1.9,3.6c-0.1,0.1-0.2,0.2-0.3,0.3C26.6,31.3,25.4,31.7,24.1,31.7z"/>
<path fill="#FEB955" d="M24.2,32.2c-0.7,0.1-3.2,0.8-3.5-0.8c-0.2-0.2-0.4-0.3-0.7-0.5c-2.6-1.6-5.8-5.1-3.4-7.8
	c0.1-0.3,0.2-0.6,0.3-0.9c0.1-0.3,0.3-0.6,0.5-0.9c0.1-0.2,0.3-0.4,0.4-0.6l0.4-0.5l0.6-0.1c0,0,0.4-0.4,0.5-0.6
	c0.7-0.7,1.7-1.8,3.3-1.7c0.1,0,0.2,0,0.4,0c0.1,0,0.2,0,0.3,0c0.9,0,1.7,0.1,2.6,0.4c0.2,0.1,0.4,0.2,0.6,0.3C28,21,33,22,30.5,26
	c-0.1,0.3-0.1,0.6-0.2,0.9c-0.3,1.8-0.9,3.5-3.2,4c-0.2,0.1-0.4,0.3-0.6,0.5C26,32,25.4,32.5,24.9,32C24.6,32.1,24.4,32.2,24.2,32.2
	z M18.7,21.1l-0.1,0.2c-0.1,0.1-0.2,0.3-0.3,0.5c-0.1,0.3-0.3,0.5-0.4,0.8s-0.2,0.5-0.3,0.8c-2,3,0.8,4.2,2.6,5.8
	c0.2,0.2,0.4,0.4,0.6,0.7c1.6,2.3,3.5,1.5,5.1,0.7c0.2-0.1,0.5-0.2,0.7-0.3c2.2-0.7,2.2-2.2,2.4-3.7c0-0.3,0.1-0.6,0.2-0.9
	c2.8-3.6-2.2-4.6-3-6.2c-0.2-0.1-0.4-0.2-0.5-0.2c-0.7-0.3-1.5-0.4-2.2-0.4c-0.1,0-0.2,0-0.3,0c-0.1,0-0.3,0-0.4,0h-0.2
	c-1.1,0-1.8,0.8-2.4,1.4s-0.8,0.8-1.2,0.9L18.7,21.1z"/>
<path fill="#FFFFFF" d="M23.6,29.6c-0.4,0-0.8-0.1-1.2-0.2c-0.1,0-0.2-0.1-0.3-0.1c-0.3-1.2-1.8-0.5-2.2-1.4
	c-0.1-0.1-0.1-0.2-0.2-0.3c-0.5-0.7-0.9-1.6-0.9-2.5c0-0.1,0-0.2,0-0.3c-0.1-1.1-0.1-1.8,0.6-2.4c0.1-0.1,0.1-0.2,0.2-0.3
	c0.5-0.7,1.2-1.3,1.9-1.7c0.1,0,0.2-0.1,0.3-0.1c1.4-0.4,2.8-0.4,4.7,0.6c0.1,0.1,0.2,0.1,0.2,0.2c0.2,1.7,2.4,1.7,1.6,3
	c0,0.1,0,0.2,0,0.3c0,0.1,0,0.2,0,0.3c0,1,0,1.7-0.6,2.4c-0.1,0.1-0.1,0.2-0.2,0.2c-1.4,0.6-2.1,2.1-3.3,2.1c-0.1,0-0.2,0-0.3,0
	C23.8,29.6,23.7,29.6,23.6,29.6z"/>
<circle cx="23.6" cy="24.9" r="3.8"/>
</svg>
