<?xml version="1.0" encoding="UTF-8"?>
<svg width="49px" height="49px" viewBox="0 0 49 49" version="1.1" xmlns="http://www.w3.org/2000/svg" xmlns:xlink="http://www.w3.org/1999/xlink">
    <!-- Generator: Sketch 51.3 (57544) - http://www.bohemiancoding.com/sketch -->
    <title>props-skatebaord</title>
    <desc>Created with Sketch.</desc>
    <defs></defs>
    <g id="SVGs" stroke="none" stroke-width="1" fill="none" fill-rule="evenodd">
        <g id="Slices" transform="translate(-1195.000000, -353.000000)"></g>
        <g id="Group-51" transform="translate(10.051123, 9.772177)" fill-rule="nonzero">
            <rect id="Rectangle-51" stroke="#901615" fill="#901615" transform="translate(14.648780, 14.068372) rotate(46.000000) translate(-14.648780, -14.068372) " x="10.4805106" y="-0.639136086" width="8.33653804" height="29.415017" rx="4.16826902"></rect>
            <path d="M10.7848371,12.0051624 L19.0563768,12.0051624 L19.3955101,9.59781014 C16.7813321,9.46473112 15.6471618,9.17878733 15.6471618,8.33945008 C15.6471618,7.70363298 16.1301558,7.59128319 17.2168086,7.56364431 C17.8122188,7.54850012 18.585147,7.57883922 19.6435718,7.64854473 C19.871747,7.66357184 20.108734,7.6800789 20.399261,7.70098431 C22.2140857,7.83157336 22.3353328,7.83945008 22.7021168,7.83945008 C23.9398688,7.83945008 24.3780524,7.51510271 24.3780524,6.65708035 C24.3780524,6.13992227 23.948321,5.7848438 22.9715856,5.59839248 L17.6464903,5.37894101 L10.7848371,12.0051624 Z M16.5613703,8.6252994 C16.5602722,8.62555102 16.5591795,8.6258033 16.5580921,8.62605623 C16.5596637,8.62569068 16.5625256,8.62438968 16.5662879,8.62179082 Z" id="Combined-Shape" stroke="#CF281F" fill="#CF281F"></path>
            <path d="M14.252211,20.2459101 L14.2525324,15.902142 C14.205068,14.610398 13.8063148,14.0839448 13.010222,14.0839448 C12.2102886,14.0839448 11.7991496,14.615599 11.7313837,15.8656916 C11.8439852,18.975819 11.8791674,21.2030044 11.8337913,22.5813509 L14.252211,20.2459101 Z M10.4030071,23.963043 C10.1530822,23.2543594 9.93616458,21.8399402 9.69695182,19.560672 C8.792471,19.7440659 8.19670266,19.9471849 7.9349299,20.1458711 C7.83044409,20.2251762 7.95370992,22.1891143 8.44617413,25.3244456 C9.00702288,25.1284217 9.52342674,24.812444 9.96300811,24.3879452 L10.4030071,23.963043 Z" id="Combined-Shape" stroke="#CF281F" fill="#CF281F"></path>
            <path d="M24.591734,10.2611488 C24.5604198,9.36068624 24.3345312,9.14538241 23.8157308,9.2856343 C23.3989108,9.39831691 23.1619595,9.78879533 22.9797052,10.5925584 C22.9593206,10.682457 22.939473,10.7771469 22.9164169,10.8930288 C22.9042804,10.9540277 22.8865684,11.0449538 22.8569578,11.196515 C22.7615821,11.679699 22.678759,12.0040342 22.5509016,12.2319577 L24.591734,10.2611488 Z M22.158881,12.6105277 C22.139264,12.6206292 22.1189963,12.6303691 22.0980415,12.6397866 C21.7042534,12.8167644 21.3082153,12.7069795 21.0834165,12.3573805 C20.9456853,12.1431858 20.8823207,11.8625517 20.8616189,11.5059624 C20.8320082,10.9959178 20.8952658,10.3145536 21.0154067,9.61327355 C21.2073102,8.49310457 20.7239949,7.58375985 19.5330421,7.3401887 C19.1140338,7.254494 18.737528,7.71155043 18.452444,8.79598999 C18.1940856,9.77876697 18.0684026,11.1278338 18.0684026,12.490146 C18.0684026,13.4843344 18.4447505,14.470293 19.2129095,15.4554192 L22.158881,12.6105277 Z" id="Combined-Shape" stroke="#DAD8DA" fill="#DAD8DA"></path>
            <path d="M7.67786322,25.5132445 C7.69828881,25.435 7.70880779,25.3536335 7.70880779,25.2704479 C7.70880779,24.7420133 7.28042694,24.3136324 6.75199237,24.3136324 C6.2235578,24.3136324 5.79517695,24.7420133 5.79517695,25.2704479 C5.79517695,25.3009582 5.79658965,25.3312218 5.79938887,25.3611815 C6.4051055,25.5539118 7.04885428,25.6057531 7.67786322,25.5132445 Z" id="Combined-Shape" stroke="#DAD8DA" fill="#DAD8DA"></path>
            <path d="M2.90687783,21.134225 L8.5172358,21.134225 L8.79383919,19.6426945 C6.6693462,19.7014911 5.94117995,19.5754745 5.94117995,18.8569057 C5.94117995,18.0900155 7.0099232,17.965648 10.9614472,17.8498015 C11.8580272,17.3998325 12.1354017,16.8502526 11.9086304,16.0829678 C11.7643755,15.5948789 9.83706399,15.3122215 7.30341166,15.3671359 L4.17196218,18.3911415 C3.40884001,19.1280801 2.96925472,20.1059709 2.90687783,21.134225 Z M6.86997699,19.1643855 C6.8674873,19.1650499 6.86502087,19.1657144 6.86257773,19.166379 C6.8668201,19.1652249 6.87145972,19.163637 6.87629576,19.1609633 Z M6.79941406,18.546028 C6.79574061,18.5443865 6.79217768,18.5429844 6.78875445,18.5418062 C6.79887428,18.5452892 6.81020809,18.5487605 6.82273172,18.5522055 Z" id="Combined-Shape" stroke="#DAD8DA" fill="#DAD8DA"></path>
            <rect id="Rectangle-52" stroke="#8C8A8C" fill="#8C8A8C" x="16.3817252" y="8.26003534" width="2.95896949" height="5.62784687" rx="1.47948474"></rect>
            <rect id="Rectangle-52-Copy" stroke="#8C8A8C" fill="#8C8A8C" transform="translate(9.973712, 18.627089) rotate(47.000000) translate(-9.973712, -18.627089) " x="8.4942271" y="15.8131651" width="2.95896949" height="5.62784687" rx="1.47948474"></rect>
            <polyline id="Path-128" stroke="#494748" stroke-width="2" stroke-linecap="round" stroke-linejoin="round" points="17.8381097 7.97332831 17.8381097 14.5268303 18.4340307 15.4519775"></polyline>
            <polyline id="Path-129" stroke="#494748" stroke-width="2" stroke-linecap="round" stroke-linejoin="round" points="7.71035442 20.9122372 12.4619566 16.1840675 13.6937911 16.1840675"></polyline>
        </g>
    </g>
</svg>