<?xml version="1.0" encoding="utf-8"?>
<!-- Generator: Adobe Illustrator 21.0.2, SVG Export Plug-In . SVG Version: 6.00 Build 0)  -->
<svg version="1.1" id="Layer_1" xmlns="http://www.w3.org/2000/svg" xmlns:xlink="http://www.w3.org/1999/xlink" x="0px" y="0px"
	 viewBox="0 0 2000 2000" enable-background="new 0 0 2000 2000" xml:space="preserve">
<g>
	<path fill="#697DB1" d="M830.5,1584.1c2.7,9.1,6.9,11.2,9.7,11s4.3-4.4,4.3-4.4L830.5,1584.1z"/>
	<path fill="none" d="M1177,1454.5c0-0.1-0.1-0.1-0.2-0.2C1176.8,1454.4,1176.9,1454.5,1177,1454.5z"/>
	<path fill="none" d="M1043,1354.6c-4.7,1.3-9.5,2.5-14.3,3.3c10.8,0.9,24.6,1,31.7-8.7c-0.1,0-0.2,0-0.2,0.1
		C1055,1351.9,1048.6,1353,1043,1354.6L1043,1354.6z"/>
	<path fill="none" d="M1172,1456.2c-0.4,0.3-0.9,0.6-1.3,0.8c0.6,0.1,1.2,0.1,1.8,0.2C1172.2,1456.9,1172,1456.6,1172,1456.2z"/>
	<path fill="none" d="M1169.9,1464.6c-1.1,0.3-2.1,0.7-3.2,1.1c0.4,0,0.8,0.1,1.2,0c0.5,0,1-0.1,1.6-0.2
		C1169.6,1465.2,1169.7,1464.9,1169.9,1464.6z"/>
	<path fill="#D8D8D8" d="M1009.2,1319.1c7,0.4,13.9,0,20.9-0.5c9.4-0.6,21.5-0.8,30.7-5.1c0.7-0.1,1.4-0.3,2.1-0.4
		c0.9-0.2,1.3-0.8,1.3-1.5c0.4-0.3,0.9-0.6,1.3-0.9c0.6-0.5,0.2-1.3-0.5-1.2c-0.5,0.1-1.1,0.2-1.6,0.3c-0.4-0.3-0.9-0.4-1.5-0.3
		c-11.7,2.6-23.5,3.8-35.5,3.9c-5.7,0.1-11.3,0-17,0.2c-5.1,0.2-11.5-1.7-16.3,0c-0.3,0.1-0.3,0.5,0,0.6c4.9,2,11.9,0.4,17.2,0.7
		c6,0.3,11.9,0.5,17.9,0.5h3.4c-1.1,0.1-2.2,0.2-3.3,0.3c-6,0.5-12.1,0.9-18.1,1.1c-3.5,0.1-6.9,0-10.3-0.4c-2.7-0.3-5-1-7.7-0.5
		c-0.2,0-0.2,0.3-0.1,0.4C996.6,1319.5,1003.9,1318.8,1009.2,1319.1L1009.2,1319.1z"/>
	<path fill="#D8D8D8" d="M1007.7,1325.2c-5.3-0.8-10.5-2.2-15.1-4.9c-0.9-0.5-1.7,0.8-0.8,1.4c9.1,5.9,22,6.5,32.5,6.9
		c4.2,0.2,8.5,0.3,12.8,0.2c-14,1-28.1,0.8-41.4-2.4c-0.5-0.1-0.9,0.6-0.4,0.9c9.5,4.4,22,3.4,32.2,3.5c12.5,0,24.9-0.4,37.4-1.4
		c2.8-0.2,2.3-4.2-0.5-3.8c-0.6,0.1-1.1,0.2-1.7,0.2c0.6-0.5,0.3-1.8-0.6-1.7c-8.9,0.6-17.6,1.7-26.5,2.1c3-0.3,5.9-0.6,8.9-1.1
		c3.7-0.5,7.3-1.1,11-1.4c2.4-0.2,5.1,0,7.3-1c0.9-0.4,1.1-1.7,0.7-2.5c-0.1-0.1-0.1-0.2-0.2-0.3c-0.3-0.5-0.9-0.9-1.5-0.8
		c-0.1,0-0.2,0-0.3,0c-0.8,0.1-1.3,0.6-1.5,1.2c-0.9-0.1-7.1,1-7.8,1.1c-2.8,0.5-5.6,0.9-8.5,1.3c-5.9,0.8-11.9,1.5-17.9,1.2
		c-5.7-0.2-11.4-1.2-17-2.1c-5.8-0.9-12-1.4-17.3-4c-0.8-0.4-1.5,0.7-0.7,1.2C995.7,1322.5,1001.6,1324.2,1007.7,1325.2
		L1007.7,1325.2z"/>
	<path fill="#D8D8D8" d="M990.6,1324.1c0.4,0.2,0.9,0.2,1.1-0.3c0.1-0.2-0.1-0.4-0.2-0.4s-0.3-0.1-0.3-0.1
		C990.6,1322.8,990,1323.8,990.6,1324.1z"/>
	<path fill="#D8D8D8" d="M1066.8,1338.4c-2.3-0.7-4.9-1.1-7.4-1.2c-8.5-4.2-19.4-3.2-28.4-3.1c-5.8,0.1-11.5,0-17.3,0.2
		c-5.9,0.2-12-0.4-17.8,0.1c-0.3,0-0.3,0.4-0.1,0.5c4.6,1.9,10.2,1.4,15.1,1.4c5.8,0,11.5-0.1,17.3-0.1c5.7,0,11.6,0.1,17.3,0.9
		c1.1,0.2,2.3,0.4,3.4,0.7c-2.7,0.4-5.4,0.8-7.9,1.2c-1.1,0.2-0.8,1.8,0.3,1.9c4.8,0.2,10.1,0.9,15.3,1c-8.9,2.7-18.4,2.9-27.8,2.4
		c-12-0.6-24.3-2.6-34.3-9.5c-0.3-0.2-0.8,0.2-0.6,0.6c2.8,3.8,7.9,5.7,12.3,7.1c6.6,2.1,13.9,3.2,20.8,3.9
		c12.6,1.2,26.9,0.6,38.5-4.9l1.5-0.3C1068.3,1341,1068.1,1338.9,1066.8,1338.4L1066.8,1338.4z"/>
	<path fill="#D8D8D8" d="M1063.9,1344.3c-6.5,2.8-13.9,3.1-20.9,3.7c-6.1,0.5-12.2,0.8-18.3,1c-5.7,0.2-11.6,0.6-17.3,0
		c-5.9-0.7-10.3-3.7-15.6-5.8c-0.3-0.1-0.5,0.3-0.4,0.5c2.5,3.5,8.6,6,12.6,7.4c5.8,2.1,12.7,1.5,18.7,1.5c7.4,0,14.8-0.4,22.2-1.2
		c0.2,0,0.4,0,0.7-0.1c-0.2,0.1-0.3,0.1-0.5,0.2c-5.3,1.8-10.8,3.2-16.4,4.2c-3.2,0.6-6.7,1.1-10.2,1.3c-2.7-0.3-5.4-0.6-8.1-1.1
		c-6-1.1-10.9-3.7-16.3-6.2c-0.4-0.2-1.1,0.2-0.7,0.7c1.5,2,3.5,3.6,5.6,4.9c-1.7-0.5-3.3-1.2-4.9-1.9c-0.6-0.3-1.3,0.5-0.7,0.9
		c3.4,2.7,9.1,3.6,13.4,4.2c0.3,0,0.5,0.1,0.8,0.1c0.3,0.1,0.7,0.2,1,0.2c7.1,1.5,14.4,2.5,21.6,3c11.8,0.9,26.1-0.3,33.6-10.8
		c0.8-1.2,0.1-2.3-0.9-2.7c0.8-0.3,1.5-0.5,2.3-0.9C1067.5,1346.5,1066.2,1343.3,1063.9,1344.3L1063.9,1344.3z M1028.7,1357.8
		c4.8-0.8,9.6-1.9,14.3-3.3c5.6-1.6,12-2.7,17.2-5.4c0.1,0,0.2,0,0.2-0.1C1053.3,1358.8,1039.6,1358.7,1028.7,1357.8z"/>
	<path fill="#D8D8D8" d="M1033.1,1496.6c-16,5.2-34.6,3.5-51,2c-1.1-0.1-1.1,1.4-0.2,1.8c8.1,2.9,18.2,2.6,26.8,2.5
		c8.6,0,17.1-0.6,25.4-3C1036.1,1499.3,1035.2,1496,1033.1,1496.6z"/>
	<path fill="#D8D8D8" d="M1031.5,1504.2c-8.1,0.1-16.2,2.5-24.4,2.9c-3.9,0.2-8,0.1-11.9-0.3c-4.5-0.5-8.1-2.2-12.4-3.5
		c-0.7-0.2-1.2,0.7-0.7,1.2c4.9,4.7,14.7,5.5,21.2,5.7c9.5,0.3,18.7-1.7,28-2.8C1033.5,1507.3,1033.6,1504.2,1031.5,1504.2
		L1031.5,1504.2z"/>
	<path fill="#D8D8D8" d="M1030.7,1510.7c-8.2,0.9-16.4,1.4-24.7,1.5c-8.4,0.1-16,0.4-23.6-3.3c-0.4-0.2-0.7,0.2-0.4,0.6
		c4.4,5.4,13,5.8,19.3,6c9.8,0.2,19.7-0.2,29.5-1.2C1033,1514.1,1033,1510.5,1030.7,1510.7z"/>
	<path fill="#D8D8D8" d="M1181.4,1459L1181.4,1459c-0.3-1-1-1.7-2.2-1.7c-0.4,0-0.7,0-1.1,0l0.1-0.1c0.5-0.4,1-0.7,1.5-1
		c0.7-0.6,0.1-1.9-0.8-1.9c-0.4,0-0.9,0.2-1.3,0.2c-0.1,0-0.3,0-0.5-0.1c0,0-0.1-0.1-0.1-0.2c-0.2-0.2-0.3-0.4-0.5-0.6
		s-0.5-0.4-0.7-0.5c1.5-1.6,2.5-3.3,3.8-5.1c1.1-0.7,1.6-2.5,0.4-3.5c-0.1-0.1-0.1-0.1-0.2-0.2c-1.2-1.1-2.7-0.7-3.6,0.5
		c-0.5,0.7-1,1.3-1.5,2c0-0.6,0-1.2-0.1-1.7c-0.1-0.9-1.2-1.1-1.9-0.8c-1.3,0.6-1.9,2.6-2.2,4c-3.4,0-6.7,0-10.1,0.1
		c-2.5,0-5,0.2-7.5-0.1c-2.2-0.2-3.8-1.1-5.9-0.9c-0.5,0.1-0.8,0.5-0.6,1c1.6,3.5,6.9,2.7,10.3,2.9c4.5,0.4,8.9,0.6,13.3,0.6
		c-1.8,1.5-3.7,2.8-6.2,4c-0.4-0.1-0.8-0.1-1.2-0.2c-5-1-10-1.3-15.1-1.8c-1.4-0.2-1.7,2.1-0.3,2.5c3.6,0.9,7.3,1.5,11.1,2
		c-1.4,0.6-2.7,1.1-4.1,1.5c-2.6,0.8-5.1,1-7.4,2.4c-0.3,0.2-0.3,0.7,0,0.8c5.5,2.5,13.6-1.1,18.6-3.3c0,0,0.1,0,0.1-0.1
		c0.7,0.2,1.4,0.3,2.1,0.5c-2.8,1.1-5.6,2.9-5.7,6.1c0,0.5,0.4,0.9,0.9,0.9c0.3,0,0.6,0,0.9-0.1c1.4,1,3.1,1.2,4.8,1.4
		c0.7,0.1,1.4,0.2,2.1,0.3c-0.5,0.6-1,1.1-1.5,1.7c-3.3-0.6-6.4-1.8-9.8-2.3c-1-0.1-1.7,0.5-1.5,1.5c0.4,2.6,4,3.4,6.1,4.2
		c0.3,0.1,0.6,0.2,0.9,0.3c-1.5,1.1-3.1,2.4-4.1,3.8c-2-0.3-4-0.7-6-0.9c-0.2,0-0.4,0.2-0.3,0.4c0.9,3.2,4.6,4.2,7.5,5
		c4.1,1.2,9.2,2,13.4,1.1c2.6-0.6,2.5-4.5,0-5.1c-2.7-0.7-5.6-0.5-8.4-0.3c0.7-0.5,1.3-1,1.8-1.4c0.4-0.3,0.9-0.7,1.3-1
		c0.6,0.3,1.3,0.6,1.9,0.9c1.3,0.7,2.2,1.2,3.8,1.3c2.3,0.1,3.2-2.4,2.4-4.2c-0.5-1.2-1.1-2.3-1.9-3.4l0.7-0.7
		c0.8-0.9,1.1-2.3,0.4-3.4c-0.3-0.5-0.7-0.8-1.1-1.1c-0.1-0.2-0.2-0.3-0.3-0.5c0.2-0.3,0.5-0.7,0.6-1.1c0.2-0.4,0.5-0.9,0.7-1.3
		c0.5-0.2,0.9-0.3,1.3-0.5h0.7c1.4,0,2.1-1.1,2.2-2.1c0.1-0.1,0.1-0.2,0.2-0.3C1181.7,1459.4,1181.6,1459.2,1181.4,1459L1181.4,1459
		z M1177,1454.5c-0.1,0-0.2-0.1-0.2-0.2C1176.9,1454.4,1176.9,1454.5,1177,1454.5z M1172,1456.2c0.1,0.4,0.2,0.7,0.5,1
		c-0.6-0.1-1.2-0.1-1.8-0.2C1171.1,1456.8,1171.5,1456.5,1172,1456.2z M1167.9,1465.8c-0.4,0-0.8,0-1.2,0c1-0.5,2.1-0.8,3.2-1.1
		c-0.2,0.3-0.3,0.6-0.4,0.9C1168.9,1465.7,1168.3,1465.8,1167.9,1465.8z"/>
	<path fill="#D8D8D8" d="M1177.6,1399c0.9-0.7,0.6-2-0.2-2.4c0-1.4-1.6-2.7-3-1.8c-4.1,2.5-10,2.5-14.6,3.2
		c-0.8,0.1-0.9,1.1-0.4,1.6c1.9,2.1,6.1,1.1,8.6,0.8c0.6-0.1,1.2-0.1,1.8-0.2c-1.1,0.4-2.3,0.8-3.4,1c-3.1,0.6-6.8,0.3-9.7,1.5
		c-0.3,0.1-0.4,0.5-0.1,0.7c0.1,0.1,0.2,0.1,0.3,0.2c-0.2,0-0.3,0-0.5,0c-1.3,0.2-0.9,1.8,0,2.2c1.1,0.5,2.4,0.8,3.6,1.2
		c-0.2,0-0.3,0-0.5,0c-1.4-0.1-2.4-0.6-3.8-0.3c-0.3,0.1-0.5,0.5-0.3,0.8c1.2,1.7,3.6,2.1,5.6,2.5c2.7,0.6,5.5,1.2,8.3,1.2
		c0.8,0,1.5-0.4,1.9-1.1c0.1-0.2,0.2-0.3,0.3-0.5c0.3-0.5,0.2-1,0-1.5c1.4,0,2.7-0.1,4-0.2c2.2-0.2,2.3-3.6,0-3.6
		c-3.1,0.1-6.3,0.2-9.4-0.2c0.3,0,0.6-0.1,0.8-0.1C1170.8,1403.4,1174.4,1401.3,1177.6,1399L1177.6,1399z"/>
	<path fill="#D8D8D8" d="M1154.3,1288.4c5.6-1.5,12.2-2.6,17.5-5.2c0.6-0.2,1.3-0.3,1.9-0.5c2.4-0.7,1.4-4.2-1-3.7
		c-5.6,1.2-11.2,2.2-16.9,2.1c-4.6,0-9.3-0.8-13.9,0.4c-1,0.3-0.8,1.6,0,1.9c2.9,1.2,6,1.8,9.3,2.1c-3.8,0.6-7.5,1-11.5,1.4
		c-0.4,0-0.6,0.6-0.2,0.8C1144.2,1290.4,1149.2,1289.7,1154.3,1288.4L1154.3,1288.4z"/>
	<path fill="#D8D8D8" d="M1168.7,1286.1c-4.4,2.3-9.6,3.5-14.4,4.4c-4.7,0.8-10-0.5-14.5,0.9c-0.4,0.1-0.4,0.5-0.1,0.7
		c3.8,2.8,9.9,1.5,14.3,0.8c5.6-0.9,10.8-2.4,15.9-4.8C1171.2,1287.5,1170.1,1285.4,1168.7,1286.1L1168.7,1286.1z"/>
	<path fill="#D8D8D8" d="M1149.4,1302c2.2-0.1,4.3-0.3,6.4-0.6c-0.8,0.6-1.6,1.1-2.5,1.5c-3.5,1.7-7.4,1.7-10.9,3.2
		c-0.4,0.2-0.5,0.8,0,0.9c3.6,1.1,8-0.5,11.2-2.1c2.8-1.3,6.1-2.9,8.4-5.3c5.6-2.2,11-5.1,15.2-9.5c0.2-0.3,0.4-0.6,0.5-0.9
		c0.3-0.2,0.6-0.5,0.9-0.7c1.4-1.1-0.6-3-1.9-1.9c-0.4,0.3-0.9,0.7-1.3,1c-0.7,0.3-1.2,0.7-1.7,1.2c-9.3,6.3-21.9,9.8-32.9,7.8
		c-0.6-0.1-0.8,0.8-0.2,0.9c4.6,0.9,9.5,1.1,14.3,0.5c-4.9,1.1-9.9,1.6-15,1.9c-1.3,0.1-1.7,1.9-0.3,2.3
		C1142.5,1303.2,1146.2,1302.2,1149.4,1302L1149.4,1302z"/>
	<path fill="#D8D8D8" d="M1157.3,1320.8c5.8-0.3,11.6,0.3,17.4-0.2c2.5-0.2,2.7-4.1,0-4.1c-3.4,0.1-6.8,0.2-10.3,0.3
		c4.6-1.9,8.7-4.6,12.7-7.6c1.4-1,0.1-3.4-1.4-2.4c-0.2,0-0.3,0.1-0.5,0.2c-3.4,1.9-8.4,2.6-12.9,3.1c5.8-3.4,11.4-7.3,17.7-9.6
		c0.9-0.3,1.6-1.1,1.6-2.1c0-0.1,0-0.1,0-0.2c0-1.2-1-2-2-2c-1.6-0.2-3.7,1-5.3,1.8c0.2-1-0.8-2.1-1.9-1.4c-2.1,1.3-4,3.1-6.2,4.3
		c-2.6,1.5-5.5,2.4-8.3,3.5c-5.2,1.9-11.1,3.6-16.6,4.5c-0.8,0.1-0.5,1.4,0.4,1.3c5.2-0.8,11.3-1.3,17-2.8c-2.4,1.4-4.8,2.6-7.3,3.7
		c-2.6,0.2-5.1,0.6-7.3,1.6c-0.3,0.1-0.2,0.6,0.1,0.7h0.1c-1.2,0.6-0.6,2.4,0.7,2.5c3.8,0.4,8-1,11.8-2.8c1.7-0.2,3.4-0.5,5-0.5
		c1.9-0.1,3.8-0.2,5.6-0.4c-4.3,2.4-8.9,4.3-13.6,5.1c-2.4,0.1-4.8,0.1-7.2,0.2c-0.1,0-0.2,0-0.3,0s-0.3,0-0.4,0c-0.4,0-0.7,0-1.1,0
		c-1.2,0-1.4,1.5-0.6,2.1C1148.1,1322.2,1152.8,1321,1157.3,1320.8L1157.3,1320.8z"/>
	<path fill="#D8D8D8" d="M1162,1328.9c2.2-0.4,1.8-4.2-0.5-4c-2.6,0.2-5.1,0.6-7.7,0.5c-2.5-0.1-4.9-0.8-7.4-0.9
		c-0.4,0-0.5,0.5-0.3,0.7C1149.9,1328.8,1157,1329.9,1162,1328.9L1162,1328.9z"/>
	<path fill="#D8D8D8" d="M1009.6,1476.3c6,0.7,12.4,1.3,18.4,0.8c2.7-0.2,3.3-3.9,0.6-4.7c-5.4-1.7-11.7-0.8-17.3-1.4
		c-3.9-0.4-8.8-2.4-13-2.3c-0.7,1.2-1.3,2.4-2,3.6C1000.3,1474.8,1004.8,1475.7,1009.6,1476.3z"/>
	<path fill="#D8D8D8" d="M1009.7,1482.4c6,1.5,13,2.4,19.1,1c1.5-0.3,1-2.4-0.3-2.5c-6.4-0.4-12.5,0-18.8-1.4
		c-3.2-0.7-6.2-1.6-9.2-3.1c-1.7-0.8-3.3-1.9-5-2.7c-0.3,0.4-0.5,0.9-0.7,1.3C998.5,1478.8,1004.8,1481.2,1009.7,1482.4
		L1009.7,1482.4z"/>
	<path fill="#D8D8D8" d="M1027.7,1489.7c1.8-0.3,1-3-0.7-2.7c-13.1,1.9-25.9-0.1-39,0.1c-0.2,0.3-0.3,0.6-0.5,0.9
		C1000.3,1491.1,1014.7,1491.8,1027.7,1489.7z"/>
	<path fill="#D8D8D8" d="M1029.3,1492.2c-7.4,2.3-15,3.3-22.8,2.7c-4-0.3-7.8-1-11.7-1.8c-3-0.6-5.8-2.1-8.9-2.4
		c0,0.1-0.1,0.1-0.1,0.2c3.3,4.9,13.5,6.2,18.9,6.8c8.6,0.9,17.1,0,25.4-2.5C1032.1,1494.7,1031.3,1491.6,1029.3,1492.2
		L1029.3,1492.2z"/>
	<path fill="none" d="M1091.8,1582.9c-0.1-0.8-0.4-1.6-0.7-2.5C1091.4,1581.3,1091.7,1582.1,1091.8,1582.9z"/>
	<path fill="#A8BCF7" d="M1053.2,1362.2c-0.5,0.1-1,0.1-1.5,0.2C1052.2,1362.3,1052.7,1362.2,1053.2,1362.2z"/>
	<path fill="#A8BCF7" d="M1060.8,1314.8c-0.2,0.3-0.4,0.7-0.4,1C1060.4,1315.5,1060.6,1315.2,1060.8,1314.8z"/>
	<path fill="#A8BCF7" d="M1051.7,1362.3c0.5-0.1,1-0.1,1.5-0.2C1052.7,1362.2,1052.2,1362.3,1051.7,1362.3z M1060.4,1315.9
		c0-0.3,0.1-0.7,0.4-1C1060.6,1315.2,1060.4,1315.5,1060.4,1315.9z"/>
	<path fill="none" d="M1091.8,1582.9c-0.1-0.8-0.4-1.6-0.7-2.5C1091.4,1581.3,1091.7,1582.1,1091.8,1582.9z"/>
	<path fill="none" d="M1062.6,1316.1c1.9-3.8,3.2-4.7-1.6-7.2c-4.8-2.4-31.9-3-44.9-1.7s-18.3,4.7-22.9,12.4c0,0,0.7,6.7,1.1,12.8
		s-2.7,6.6,0,13.4s-0.5,3.5,0,8.9s1.9,0.9,4.7,6.5s11.9,3.2,25.1,3.5c13.2,0.3,35.6-1.7,37.4-5.4c1.9-3.7,4-25.9,4.9-34.8
		C1067.3,1315.7,1060.7,1319.9,1062.6,1316.1L1062.6,1316.1z"/>
	<path fill="none" d="M1016.4,1152.4c0,0,0.1-0.3,0.4-0.8c0,0,0,0,0-0.1C1016.7,1151.8,1016.5,1152.1,1016.4,1152.4z"/>
	<path fill="#93AAED" d="M1141.9,1281.6c1.4-1,2.9-1.8,4.6-2.5c1.3-0.5,2.8-0.9,4.5-1.3c10.9-2.3,18.7-4.1,23.5-5.3s8.1-2.2,6.4-3.7
		c-0.9-0.9-2.5-0.6-4-0.4c-1.3,0.2-2.5,0.3-3.3-0.3c-0.4-0.3-0.6-0.9-0.7-1.7c-0.3-2.6,0.8-7.6,1.3-13.3c0.6-7.5,2.1-13.5-3.8-17.2
		c-5.8-3.7-6.8-2.7-6.9-7.8c-0.1-4.7,1.9-3,3.4-7.2c0.1-0.3,0.2-0.6,0.3-0.9c0.2-0.9,0.4-1.7,0.6-2.5c0.8-4,0.6-7-0.6-8.1
		c-0.1-0.1-0.1-0.1-0.2-0.2c-1.6-1.1-11.9-0.5-11.9-0.5s-0.1-0.4-0.2-1c-0.3-1.6-0.8-5-0.5-8c0.5-4.1,1.9-8.5-0.8-10.6
		c-1.9-1.4-2.8-2.3-3.2-2.8c-0.2-0.2-0.3-0.3-0.3-0.3l3.6-25.3c0,0-1.1-0.4-2.8-0.9c-3.2-1-8.6-2.7-14.2-4.2
		c-0.8-0.2-1.5-0.4-2.3-0.6c0,0,0,0-0.1-0.1c-0.6-0.8-4.3-5.9-6.4-6c-2.3-0.1-3.2,3.8-3.2,3.8s-8.5-1.1-19.3-0.7
		c-1.5,0.1-3.2,0.1-4.8,0.2c0,0,0.1-3.5-0.1-6.5c-0.1-1.7-0.3-3.3-0.7-3.8c-1-1.5-3.3-0.1-6.2,1.2c-2.8,1.2-8.4,7-23.1,7.5
		c-12.5,0.5-34.8,0.6-41.2,0.6c-1.2,0-1.8,0-1.8,0s0-0.5-0.2-1.2c0.1-1.4-1.3-2.5-4.4-2.9c-2.8-0.4-4.5,1.4-6,4.2v0.1
		c-0.2,0.5-0.4,0.8-0.4,0.8l0,0c0,0.1-0.1,0.1-0.1,0.2v-0.2c-0.3,0-0.9,0.1-1.7,0.2c-4.5,0.6-16.3,2.1-25.1,4
		c-4.7,1-9.2,2.2-12.9,3.1c-5,1.3-8.4,2.4-8.4,2.4s-0.2-3.5-2.9-3.8s-5.9,6-5.9,6s-10.3,4.6-15.2,6.1c-5,1.5-8.3,2.1-8.6,4.2
		s1.8,21.5,1.8,21.5s-5.4,8.9-5.9,15.8c0,0-11.1,0-14.5,0.4s-4.8,6.7,0,11.5c4.8,4.9-1.8,9.2-3.7,11.8s-0.6,7.9,2.2,9.3l-2.3,59.8
		c0,0,25.2,17.2,37.8,29.3c4.8,4.6,9.2,8.6,13.5,12.5c6.8,6.4,13.2,12.7,20,22c10.9,15,21.8,37.1,22.4,61.9c0.5,24.8-7.7,37-7.7,37
		s11.4-0.6,21.8-0.2s12.2,0.1,9.8,3.9s-2.4,13.9-1.9,18s2.5,4.4,4.7,8.1s1.5,2.5-1.2,9.2c-2.7,6.6,2,8.3-7.1,11.4
		c-6,2.1-15.4,1.2-23.5-0.4c-4-0.8-7.7-1.9-10.5-2.9c-8.5-3-11-0.6-10.4-7.8s1.4-10.8,1.4-10.8s-12.4,14.6-26.8,24.1
		s-33,28.6-66.6,36.6s-60.6,3-60.6,3s-0.2,0.2-0.5,0.4c-0.9,0.9-3.1,3.5-4.8,8.4c-2.2,6.4-3.1,14.1,0.7,16.6s28.5,10.8,46.6,12.7
		s27.1,0,27.1,0s-1.5,8-1.4,11.4s5.3,7.4,31.1,12.6c25.8,5.1,34.6,3.5,52.7,4.6s49.4,1.3,62.1,0c12.8-1.3,20.5-6.2,20.5-6.2
		s2.3,3.7,7.7,1.9c3.4-1.2,5.2-4.5,6.2-9.7c0.6-3,1-6.5,1.3-10.7c0.6-8-1.8-13.3-3.3-15.8c-0.6-1-1.1-1.6-1.1-1.6
		c0.4,0.1,15.1,6.1,42.5,3.3s39.8-6.8,44.5-11.4c2.1-2.1,3.2-4.1,3.8-6.4c0.4-1.4,0.6-2.8,0.7-4.5c0.1-1.6,0.2-3.4,0.4-5.5
		s0.3-3.6,0.3-4.7c0-2.7-0.8-2.8-3.5-3.5h-0.1c0,0,5.2-29.7,6.4-45.5c1.1-15.8,1.3-23.2,1.3-23.2s-4,3.3-11.2,2.6s-9.5-1.1-8-4
		s9-9.4,10.6-13.1c1.7-3.7-15.2-4.2-15.5-5.6c-0.4-1.4,0.8-1.3,3.5-6.5c2.8-5.2,2.9-7.6,2.8-8.8c0-1.2,28-7.6,28-8.1
		c0.1-0.5,0.1-29.4-0.5-32.6c-0.5-3.2-2.2,0.2-5.4,1.8s-15.2,2.9-17.1,0.8c-1.8-2.1,2.4-4.8,4.4-8.7s6.8-5.8,11-5.2
		c4.1,0.6,7,0.8,7.2-1.3s1-22.5-0.8-42.7s-2-30.8-2-30.8s-4.9,5.8-17.3,8.1c-12.4,2.4-14.4,4.7-13.4,0.7s3.2-1.1,0.8-6.4
		c-2.4-5.2-2.5-10.8-3.2-17.3s-2.9-14-3.6-17.5C1139.1,1286.1,1139.4,1283.7,1141.9,1281.6L1141.9,1281.6z M1066.4,1324.6
		c-0.9,8.9-3,31.1-4.9,34.8s-24.2,5.7-37.4,5.4s-22.3,2.1-25.1-3.5s-4.3-1.1-4.7-6.5c-0.5-5.4,2.7-2.2,0-8.9s0.4-7.3,0-13.4
		s-1.1-12.8-1.1-12.8c4.6-7.7,10-11.1,22.9-12.4c13-1.3,40.1-0.8,44.9,1.7c4.8,2.4,3.5,3.3,1.6,7.2
		C1060.7,1319.9,1067.3,1315.7,1066.4,1324.6L1066.4,1324.6z M1091.1,1580.4c0.3,0.9,0.5,1.7,0.7,2.5
		C1091.7,1582.1,1091.4,1581.3,1091.1,1580.4z"/>
	<path fill="#A8BCF7" d="M1016.4,1152.4L1016.4,1152.4l-0.1,0.2C1016.3,1152.6,1016.3,1152.5,1016.4,1152.4z"/>
	<path fill="#A8BCF7" d="M1128.5,1565.2c-20.2,4.8-57.2,0-57.2,0l-2.6,19.7c0,0-3.6,1.2-4.7,3.6s3,5.4,3,8.6c0,3.3,0.5,4.5-13.3,7.4
		c-13.8,3-75.5,7.3-100.8,2.7s-52.5-12.6-52.5-12.6s1.3-5.7,0-8.9s-3-1.3-9.4-1.1s-37.5-6.5-47.8-11.6c-6.6-3.3-12.5-9.2-15.8-13
		c-0.9,1-3.1,3.5-4.8,8.4c-2.2,6.4-3.1,14.1,0.7,16.5s28.5,10.8,46.6,12.7s27.1,0,27.1,0s-1.5,8-1.4,11.5c0.1,3.4,5.3,7.4,31.1,12.6
		s34.6,3.5,52.7,4.6s49.4,1.3,62.1,0c12.8-1.3,20.5-6.2,20.5-6.2s2.3,3.7,7.7,1.9s6.7-9.1,7.5-20.4s-4.4-17.4-4.4-17.4
		c0.4,0.1,15.1,6.1,42.5,3.3s39.8-6.8,44.5-11.4c4.7-4.5,4.4-8.8,4.9-16.3c0.6-7.5,0.6-7.2-3.3-8.2
		C1157.8,1557,1148.8,1560.4,1128.5,1565.2L1128.5,1565.2z"/>
	<g>
		<path fill="#D5DEF8" d="M975.6,1164.3L975.6,1164.3c0,0.1,0.1,0,0.1,0H975.6z"/>
		<path fill="#D5DEF8" d="M1083.5,1260.4c-0.3,0.4-0.6,0.7-0.9,1c-0.4,0.3-0.1,1.1,0.4,1c0.6,0,1.3-0.3,1.7-0.8
			C1085.5,1260.8,1084.2,1259.6,1083.5,1260.4z"/>
		<path fill="#D5DEF8" d="M1090.2,1254.9c-0.7,0.1-1.1,1.2-1.6,1.7c-0.3,0.4,0,1.2,0.6,1c0.9-0.4,2.2-1.3,1.7-2.4
			C1090.8,1254.9,1090.5,1254.8,1090.2,1254.9L1090.2,1254.9z"/>
		<path fill="#D5DEF8" d="M1093.9,1249.9c-0.6,0.7-1,1.6-1.5,2.4c-0.4,0.6,0.5,1.3,1,0.7c0.6-0.7,1.3-1.5,1.7-2.4
			C1095.4,1249.9,1094.4,1249.4,1093.9,1249.9z"/>
		<path fill="#D5DEF8" d="M1095.4,1244.8c-0.1,0.2-0.1,0.5-0.2,0.7c-0.2,0.7,0.8,1.1,1.2,0.5c0.1-0.2,0.3-0.4,0.4-0.6
			C1097.3,1244.5,1095.7,1243.8,1095.4,1244.8z"/>
		<path fill="#D5DEF8" d="M1097.1,1239.3L1097.1,1239.3c-0.3,0.7,0.6,1.2,0.9,0.6c0.1-0.1,0.1-0.2,0.1-0.4
			C1098.2,1239,1097.2,1238.7,1097.1,1239.3z"/>
		<path fill="#D5DEF8" d="M1097.2,1233.8c0,0.5,0.1,1,0.1,1.5c0,0.6,0.9,0.8,1.1,0.1c0.1-0.5,0.3-1.1,0.2-1.6
			C1098.5,1232.9,1097.2,1232.8,1097.2,1233.8L1097.2,1233.8z"/>
		<path fill="#D5DEF8" d="M1097.9,1226.5c-0.3,0.5-0.3,1.1-0.4,1.7c-0.1,0.9,1.1,1.3,1.4,0.4c0.2-0.6,0.4-1.3,0.3-1.9
			C1099.1,1226,1098.2,1226.1,1097.9,1226.5z"/>
		<path fill="#D5DEF8" d="M1097.9,1219.4c0.6-0.4,1-1.4,0.3-1.9c-0.1-0.1-0.3-0.1-0.4,0c-0.3,0.3-0.6,0.6-0.8,1
			C1096.7,1219,1097.4,1219.7,1097.9,1219.4z"/>
		<path fill="#D5DEF8" d="M1097.9,1211c0.3-0.3,0.5-0.7,0.5-1.1c0-0.7-1.1-0.9-1.3-0.2c0,0.2-0.1,0.4-0.2,0.6
			C1096.7,1210.9,1097.4,1211.5,1097.9,1211z"/>
		<path fill="#D5DEF8" d="M1097,1199.1c-0.2-0.3-0.7-0.2-0.9,0.1c-0.2,0.5-0.2,1-0.2,1.5c0.1,0.6,0.8,0.8,1.1,0.3
			C1097.4,1200.4,1097.5,1199.7,1097,1199.1z"/>
		<path fill="#D5DEF8" d="M1094.5,1191.3c0,0.4,0.2,0.9,0.4,1.3s0.5,0.6,0.9,0.8s0.8-0.1,0.7-0.5c-0.1-0.6-0.1-1.2-0.3-1.7
			C1095.8,1190.3,1094.5,1190.3,1094.5,1191.3L1094.5,1191.3z"/>
		<path fill="#D5DEF8" d="M1094.3,1186.8L1094.3,1186.8c0.5,0.1,0.9-0.3,0.7-0.7v-0.1c-0.1-0.4-0.5-0.6-0.8-0.5h-0.1
			c-0.2,0.1-0.4,0.3-0.4,0.5v0.1C1093.6,1186.5,1093.9,1186.8,1094.3,1186.8L1094.3,1186.8z"/>
		<path fill="#D5DEF8" d="M1075.5,1184.6c0.1-0.5-0.1-1.1-0.7-1.2c-0.4-0.1-0.8,0-1.1,0.2c-0.4,0.2-0.6,0.6-0.7,1
			c-0.1,0.6,0.2,1.2,0.9,1.2C1074.7,1185.9,1075.4,1185.4,1075.5,1184.6L1075.5,1184.6z"/>
		<path fill="#D5DEF8" d="M1075.5,1191.7c0.4-0.7,0.3-1.7-0.3-2.2c-0.2-0.2-0.5,0-0.7,0.2s-0.1,0.5-0.2,0.8s-0.2,0.6-0.2,0.9
			C1074.2,1192,1075.2,1192.3,1075.5,1191.7L1075.5,1191.7z"/>
		<path fill="#D5DEF8" d="M1076.3,1198.6c0.1-0.5,0.2-1.1,0-1.6c-0.2-0.6-1-0.7-1.3-0.2c-0.3,0.4-0.4,1.1-0.3,1.6
			C1074.7,1199.3,1076.1,1199.5,1076.3,1198.6L1076.3,1198.6z"/>
		<path fill="#D5DEF8" d="M1076,1206.2c0.1-0.4-0.6-0.5-0.8-0.2s-0.3,0.5-0.2,0.9c0,0.1,0.1,0.1,0.2,0.2
			C1075.7,1207.1,1076,1206.7,1076,1206.2z"/>
		<path fill="#D5DEF8" d="M1075.7,1211.5c-0.1,0.4-0.2,0.8-0.1,1.2c0.1,0.7,1.1,0.6,1.3,0c0.1-0.4,0.1-0.8,0-1.2
			C1076.8,1210.9,1075.9,1211,1075.7,1211.5L1075.7,1211.5z"/>
		<path fill="#D5DEF8" d="M1077.2,1220.7C1077.3,1220.9,1077.2,1220.7,1077.2,1220.7c0-0.2-0.1-0.4-0.1-0.5
			c-0.1-0.3-0.1-0.6-0.3-0.9c-0.2-0.5-1.1-0.5-1.4,0c-0.4,0.9-0.4,2.4,0.6,2.8C1076.9,1222.4,1077.5,1221.3,1077.2,1220.7
			L1077.2,1220.7z"/>
		<path fill="#D5DEF8" d="M1076.3,1226.6c0,0.4,0.1,0.9,0.2,1.3c0.2,0.5,1.2,0.5,1.4,0c0.3-0.7,0.1-1.5-0.6-1.9
			C1076.8,1225.7,1076.3,1226,1076.3,1226.6z"/>
		<path fill="#D5DEF8" d="M1077.9,1236.8c0-0.4-0.1-0.9-0.2-1.2s-0.3-0.5-0.7-0.5c-0.1,0-0.1,0-0.2,0c-0.2,0-0.4,0.3-0.5,0.5
			c-0.1,0.4-0.1,0.8-0.1,1.2C1076.3,1237.9,1077.8,1237.9,1077.9,1236.8L1077.9,1236.8z"/>
		<path fill="#D5DEF8" d="M1078,1249c0.3-0.1,0.7-0.4,0.7-0.7c0.1-0.4,0-0.8-0.1-1.3s-0.1-0.9-0.5-1.2c-0.3-0.2-0.7-0.3-1,0
			c-0.3,0.4-0.4,0.8-0.4,1.3c0,0.4,0,0.8,0.1,1.2C1077.1,1248.9,1077.5,1249.1,1078,1249L1078,1249z"/>
		<path fill="#D5DEF8" d="M1077.8,1254.7v0.7c0,0.7,1.1,0.7,1.2,0c0-0.2,0-0.5,0-0.7C1078.8,1254,1077.8,1254,1077.8,1254.7z"/>
		<path fill="#D5DEF8" d="M1077.4,1260.8c-0.3,0.6-0.3,1.6-0.2,2.3v0.3c0.1,0.3,0.3,0.5,0.6,0.6c0.6,0.2,1.1-0.3,1.1-0.8
			c0.1-0.7-0.2-1.9-0.8-2.4C1077.9,1260.5,1077.5,1260.5,1077.4,1260.8z"/>
		<path fill="#D5DEF8" d="M1119.3,1196.8c-0.3-0.8-0.9-2.1-1.9-2.3c-0.3-0.1-0.7,0.1-0.8,0.4c-0.1,0.9,0.4,1.9,0.9,2.6
			C1118.2,1198.5,1119.6,1197.8,1119.3,1196.8z"/>
		<path fill="#D5DEF8" d="M1121.2,1199.8c-0.2-0.1-0.4,0.1-0.5,0.3c-0.3,0.7,0.3,1.5,0.9,1.7c0.2,0.1,0.3-0.1,0.4-0.2
			C1122.2,1200.9,1121.9,1200,1121.2,1199.8z"/>
		<path fill="#D5DEF8" d="M1124.6,1204.7c-0.2,0-0.3,0.1-0.3,0.3c-0.1,0.5,0.2,1.1,0.6,1.5c0.5,0.6,1.5-0.2,1.1-0.8
			C1125.7,1205.2,1125.2,1204.6,1124.6,1204.7L1124.6,1204.7z"/>
		<path fill="#D5DEF8" d="M1130.4,1207.9c-0.4-0.2-0.8,0.2-1.2-0.1c-0.7-0.5-1.4,0.3-1.3,1c0.1,0.5,0.4,0.8,0.9,1
			c0.2,0.1,0.5,0.1,0.7,0.1h0.4h0.1c0.5,0.1,1-0.2,1.1-0.7C1131.2,1208.6,1130.9,1208.1,1130.4,1207.9z"/>
		<path fill="#D5DEF8" d="M1133.8,1209.9c-0.6,0.2-0.4,1,0.1,1.1c-0.1,0-0.1-0.1,0,0.1s0.2,0.3,0.4,0.3c0.4,0.2,1.2,0,1.1-0.6
			C1135.3,1209.9,1134.5,1209.7,1133.8,1209.9z"/>
		<path fill="#D5DEF8" d="M1140.6,1211.3c-0.8,0-2.1,0.6-2.4,1.5c-0.1,0.4,0.1,0.7,0.5,0.8s0.8,0,1.2-0.1s0.9-0.2,1.2-0.5
			C1141.8,1212.5,1141.6,1211.4,1140.6,1211.3L1140.6,1211.3z"/>
		<path fill="#D5DEF8" d="M1146.1,1213.1c-0.4-0.1-0.8,0-1.2,0.1c-0.5,0.1-0.5,0.7-0.1,1s0.8,0.4,1.3,0.3
			C1146.7,1214.3,1146.8,1213.3,1146.1,1213.1L1146.1,1213.1z"/>
		<path fill="#D5DEF8" d="M1149.6,1214.1c-0.2,0.1-0.4,0.2-0.7,0.3c-0.5,0.3-0.3,1,0.2,1.2s1,0,1.4-0.4
			C1151,1214.6,1150.3,1213.7,1149.6,1214.1z"/>
		<path fill="#D5DEF8" d="M1153.1,1213.1C1153,1213,1153,1213,1153.1,1213.1c-0.5-0.2-1.1,0.1-1.1,0.6c-0.1,0.5-0.2,0.9-0.2,1.4
			c0,0.3,0.3,0.5,0.6,0.5c0.5-0.1,0.9-0.5,1.1-1c0.1-0.1,0.2-0.2,0.2-0.3C1153.8,1213.6,1153.5,1213.2,1153.1,1213.1z"/>
		<path fill="#D5DEF8" d="M1155.7,1214.1c-0.3,0.2-0.4,0.6-0.5,0.9c0,0.2,0.2,0.4,0.4,0.4c0.4,0,0.7-0.2,0.9-0.5
			C1157,1214.3,1156.3,1213.6,1155.7,1214.1z"/>
		<path fill="#D5DEF8" d="M1161.8,1214.1c-0.5-0.1-1,0.2-1.2,0.7c-0.1,0.1-0.1,0.3-0.2,0.4c-0.4,0.4-0.1,1.1,0.5,1.1
			c0.3,0,0.5,0,0.7-0.1h0.1c0.5-0.1,0.7-0.5,0.9-0.9C1162.7,1214.8,1162.3,1214.2,1161.8,1214.1z"/>
		<path fill="#D5DEF8" d="M1149,1164.4c0.3-0.4,0.4-0.9,0-1.3c-0.3-0.3-0.7-0.3-1.1-0.2c-0.2,0-0.4-0.1-0.5-0.2
			c-0.3-0.1-0.6-0.1-0.9-0.1c-0.6,0-1.1,0.9-0.6,1.3C1146.7,1164.5,1148.3,1165.3,1149,1164.4L1149,1164.4z"/>
		<path fill="#D5DEF8" d="M1152.1,1164.7c0.1-0.4-0.1-0.9-0.6-1s-1.1,0-1.4,0.5c-0.1,0.2-0.1,0.4,0,0.6c0.2,0.3,0.5,0.5,0.9,0.6
			C1151.5,1165.3,1152,1165.1,1152.1,1164.7z"/>
		<path fill="#D5DEF8" d="M1140,1162.8c0.4,0.2,1.1,0.1,1.3-0.3c0.4-0.7,0.4-1.6-0.3-2.1c-0.6-0.4-1.7-0.2-1.9,0.7
			c0,0.2,0,0.5,0.1,0.6C1139.3,1162.2,1139.6,1162.6,1140,1162.8L1140,1162.8z"/>
		<path fill="#D5DEF8" d="M1136.7,1174.1c-0.2,0-0.4,0-0.6,0.1c-0.6,0-0.8,1-0.1,1.1c0.3,0.1,0.6,0.1,0.9,0
			C1137.4,1175,1137.4,1174.1,1136.7,1174.1L1136.7,1174.1z"/>
		<path fill="#D5DEF8" d="M1139.7,1175.2c-0.1,0-0.1,0-0.2,0c-0.3,0-0.6,0.2-0.7,0.5c-0.1,1,0.9,2.3,1.9,2c1.1-0.3,1.2-1.9,0.4-2.6
			C1140.6,1174.8,1140.1,1174.8,1139.7,1175.2L1139.7,1175.2z"/>
		<path fill="#D5DEF8" d="M1145.1,1177.9c0.7,0.1,0.7-1.2,0-1.1c-0.2,0-0.4,0-0.6,0.2c-0.3,0.2-0.3,0.6,0,0.8
			C1144.7,1177.8,1144.9,1177.9,1145.1,1177.9z"/>
		<path fill="#D5DEF8" d="M1147.2,1177.1c-0.1,0-0.2,0-0.2,0.1c-0.1,0-0.2,0.1-0.1,0c-0.6,0.2-0.8,1-0.4,1.4
			c0.3,0.3,0.6,0.3,0.9,0.3C1148.8,1179,1148.6,1176.8,1147.2,1177.1L1147.2,1177.1z"/>
		<path fill="#D5DEF8" d="M1149.3,1179.5c0.5,0.2,0.9-0.3,0.9-0.8c0-0.3-0.2-0.5-0.5-0.4C1149.1,1178.4,1148.7,1179.3,1149.3,1179.5
			L1149.3,1179.5z"/>
		<path fill="#D5DEF8" d="M1122.7,1171.2c-0.2,0-0.3-0.1-0.5-0.1c-0.3-0.1-0.5,0-0.7,0.1c-0.3,0.1-0.5,0.2-0.6,0.6
			c-0.1,0.8,0.9,1.1,1.5,1C1123.3,1172.8,1123.7,1171.4,1122.7,1171.2L1122.7,1171.2z"/>
		<path fill="#D5DEF8" d="M1117.4,1171.6c-0.3,0.2-0.3,0.7,0.1,1c0,0,0.1,0,0.1,0.1c0.2,0.1,0.5,0.1,0.7,0c0.3-0.2,0.5-0.4,0.6-0.7
			c0.2-0.5,0-1.1-0.6-1.2S1117.4,1171.1,1117.4,1171.6L1117.4,1171.6z"/>
		<path fill="#D5DEF8" d="M1111.3,1172.2c-0.4,0.5,0.2,1.1,0.7,0.8c0.3-0.2,0.5-0.7,0.2-1C1112,1171.7,1111.4,1171.7,1111.3,1172.2
			L1111.3,1172.2z"/>
		<path fill="#D5DEF8" d="M1106.5,1170.5c0-1.1-1.4-1.2-1.8-0.2c-0.1,0.2-0.1,0.4-0.2,0.6c-0.3,0.3-0.5,0.7-0.2,1.1
			c0.2,0.4,0.8,0.6,1.2,0.3c0.2-0.1,0.4-0.3,0.6-0.4c0.5-0.3,0.5-0.8,0.3-1.1C1106.4,1170.7,1106.5,1170.6,1106.5,1170.5z"/>
		<path fill="#D5DEF8" d="M1105.6,1157.4c0-0.5-0.5-1.1-1-1s-1.1,0.1-1.5,0.4c-0.3,0.2-0.8,0.7-0.5,1.1c0.4,0.7,1.3,0.6,2,0.5
			C1105.1,1158.4,1105.6,1158,1105.6,1157.4z"/>
		<path fill="#D5DEF8" d="M1111.4,1157.9c-0.3,0.1-0.7,0.4-1,0.5c-0.7,0-0.8,0.9-0.2,1.2c0.4,0.1,0.7,0.1,1.1,0
			c0.3-0.1,0.7-0.1,0.9-0.2c0.4-0.1,0.8-0.7,0.4-1.1C1112.4,1157.8,1111.9,1157.7,1111.4,1157.9L1111.4,1157.9z"/>
		<path fill="#D5DEF8" d="M1117.6,1157.6c-0.5-0.1-0.9,0-1.3,0.2c-0.4,0.1-0.8,0.2-1.2,0.2s-0.8,0.3-0.8,0.8c0,0.4,0.4,0.8,0.8,0.8
			c0.5,0,1-0.1,1.4-0.1c0.5-0.1,1.1-0.1,1.4-0.5C1118.4,1158.5,1118.2,1157.8,1117.6,1157.6z"/>
		<path fill="#D5DEF8" d="M1120.5,1158.2c-0.3-0.3-0.5-0.3-0.9-0.3c-0.7,0-0.8,1-0.2,1.2c0.4,0.1,0.6,0.1,1-0.1
			C1120.6,1158.9,1120.7,1158.4,1120.5,1158.2L1120.5,1158.2z"/>
		<path fill="#D5DEF8" d="M1125.6,1158.9c-0.4-0.1-0.8-0.1-1.3-0.1c-0.4,0-0.8,0-1.1,0.3c-0.2,0.2-0.3,0.6-0.1,0.8
			c0.2,0.4,0.6,0.5,1,0.6s0.8,0.2,1.3,0.2s0.9-0.3,0.9-0.8C1126.3,1159.5,1126,1159.1,1125.6,1158.9L1125.6,1158.9z"/>
		<path fill="#D5DEF8" d="M1094.3,1147c0,0.7,0.5,1.4,1.2,1.6s1.4-0.1,1.8-0.7c0.9-1.3-0.3-3.4-2-2.7
			C1094.6,1145.3,1093.9,1146.1,1094.3,1147C1094.3,1146.9,1094.3,1146.9,1094.3,1147L1094.3,1147z"/>
		<path fill="#D5DEF8" d="M1090,1147.4c-0.7,0.2-1,1.2-0.4,1.7c0,0,0,0,0.1,0.1c0.5,0.5,1.3,0.3,1.6-0.4v-0.1
			C1091.5,1147.9,1090.7,1147.2,1090,1147.4L1090,1147.4z"/>
		<path fill="#D5DEF8" d="M1085.3,1149.1L1085.3,1149.1c-0.9,0.2-1.2,1.2-0.7,1.9s1.5,0.5,1.9-0.1l0.1-0.1
			C1087.2,1149.9,1086.2,1148.9,1085.3,1149.1L1085.3,1149.1z"/>
		<path fill="#D5DEF8" d="M1082.3,1151.7c-0.4-0.5-1-0.5-1.5-0.1c-0.2,0.2-0.4,0.3-0.6,0.4c-0.6,0.6-0.1,1.4,0.6,1.5
			c0.4,0,0.8-0.2,1.2-0.4C1082.5,1152.8,1082.7,1152.2,1082.3,1151.7z"/>
		<path fill="#D5DEF8" d="M1074.7,1154.4c0.3-0.3,0.5-0.7,0.3-1.1c-0.1-0.2-0.4-0.4-0.6-0.3c-0.4,0.1-0.6,0.3-0.8,0.7
			C1073.3,1154.3,1074.1,1154.9,1074.7,1154.4L1074.7,1154.4z"/>
		<path fill="#D5DEF8" d="M1069.8,1153.9c-0.2,0.1-0.4,0.1-0.5,0.2c-0.5,0.2-0.8,0.7-0.6,1.2s0.8,0.7,1.3,0.4
			c0.4-0.2,0.6-0.5,0.8-0.9C1071.3,1154.3,1070.4,1153.6,1069.8,1153.9L1069.8,1153.9z"/>
		<path fill="#D5DEF8" d="M1065.3,1155.6c0-0.5-0.1-1-0.6-1.2c-0.5-0.3-1.3,0.3-0.9,0.9c0.3,0.5,0.8,0.6,1.3,0.5
			C1065.2,1155.7,1065.3,1155.7,1065.3,1155.6L1065.3,1155.6z"/>
		<path fill="#D5DEF8" d="M1058.8,1154.2c-0.2-0.4-0.6-0.7-1-0.6c-0.6,0.1-0.9,0.3-1.3,0.7c-0.3,0.1-0.4,0.4-0.3,0.6
			c0-0.1,0-0.1,0-0.1c0,0.2,0,0.3,0.1,0.5s0.3,0.4,0.5,0.5c0.4,0.2,0.9,0.2,1.3,0.1C1058.8,1155.7,1059.2,1154.8,1058.8,1154.2
			L1058.8,1154.2z"/>
		<path fill="#D5DEF8" d="M1047.6,1154.1c-0.5,0.2-0.6,1.1-0.2,1.4c0.5,0.5,1.4,0.6,1.9,0c0.3-0.3,0.3-0.6,0.1-1
			C1049.1,1153.9,1048.3,1153.8,1047.6,1154.1z"/>
		<path fill="#D5DEF8" d="M1052.7,1154.2C1052.7,1154.2,1052.6,1154.2,1052.7,1154.2c-0.8-0.4-1.4,0.7-0.8,1.1l0.1,0.1
			C1052.9,1156.2,1053.8,1154.6,1052.7,1154.2z"/>
		<path fill="#D5DEF8" d="M1043.1,1154.3c-0.4-0.2-0.8-0.2-1.1,0.1s-0.4,0.8-0.1,1.1c0.4,0.5,0.8,0.8,1.4,0.7
			c0.3-0.1,0.6-0.4,0.6-0.7C1043.9,1154.9,1043.6,1154.5,1043.1,1154.3z"/>
		<path fill="#D5DEF8" d="M1037.7,1154.9c-0.3-0.1-0.5-0.2-0.8-0.3c-0.7-0.2-1.1,0.8-0.5,1.2c0.3,0.2,0.5,0.3,0.8,0.4
			C1037.9,1156.4,1038.4,1155.2,1037.7,1154.9L1037.7,1154.9z"/>
		<path fill="#D5DEF8" d="M1035,1155.2c-0.2-0.7-1.4-0.5-1.2,0.3S1035.3,1156.1,1035,1155.2z"/>
		<path fill="#D5DEF8" d="M1031.2,1153.1c-0.4,0.3-0.9,0.5-1.2,0.9c-0.6,0.6,0,1.6,0.8,1.4c0.4-0.1,0.7-0.3,1-0.5
			c0.3-0.1,0.6-0.3,0.7-0.6v-0.1C1032.7,1153.4,1031.9,1152.6,1031.2,1153.1L1031.2,1153.1z"/>
		<path fill="#D5DEF8" d="M1030.8,1176.6c-0.3,0-0.5,0.1-0.8,0.2c-0.4,0.2-0.4,0.8,0,1.1c0.3,0.2,0.5,0.2,0.8,0.2
			c0.2,0,0.6-0.1,0.7-0.4s0.1-0.5,0-0.8C1031.3,1176.7,1031,1176.6,1030.8,1176.6L1030.8,1176.6z"/>
		<path fill="#D5DEF8" d="M1035.9,1175.8c-0.5,0-0.8,0.3-1.1,0.6c-0.5,0.5-0.2,1.2,0.4,1.4c0.9,0.3,2.1-0.5,1.6-1.5
			C1036.6,1176,1036.2,1175.8,1035.9,1175.8z"/>
		<path fill="#D5DEF8" d="M1041.8,1175c-0.6,0.1-1.4,0.2-1.6,0.9c-0.1,0.2-0.1,0.6,0.1,0.8c0.6,0.6,1.3,0.3,2,0.1
			C1043.4,1176.5,1042.9,1174.8,1041.8,1175z"/>
		<path fill="#D5DEF8" d="M1051.2,1174.9c-0.1,0-0.2,0-0.4,0c-1,0-1.2,1.6-0.2,1.8c0.1,0,0.2,0,0.3,0.1
			C1052.2,1177,1052.5,1175.1,1051.2,1174.9L1051.2,1174.9z"/>
		<path fill="#D5DEF8" d="M1058.8,1176.2c-0.4,0.1-0.5,0.5-0.4,0.7c0.1,0.1,0.1,0.2,0.2,0.3c0.4,0.4,1,0.1,1.1-0.4
			C1059.9,1176.3,1059.3,1175.9,1058.8,1176.2L1058.8,1176.2z"/>
		<path fill="#D5DEF8" d="M1066.4,1174.9c-0.5-0.1-1.1,0.2-1.2,0.8c-0.1,0.5-0.1,1.1,0.4,1.3h0.1c0.8,0.4,1.6-0.1,1.7-1v-0.1
			C1067.5,1175.4,1066.9,1174.9,1066.4,1174.9L1066.4,1174.9z"/>
		<path fill="#D5DEF8" d="M1074.1,1176.2c0.5-0.4,0.4-1.3,0-1.7c-0.5-0.5-1.2-0.4-1.7,0c-0.2,0.2-0.4,0.5-0.5,0.8
			c-0.2,0.9,0.6,1.5,1.4,1.4C1073.6,1176.6,1073.9,1176.5,1074.1,1176.2L1074.1,1176.2z"/>
		<path fill="#D5DEF8" d="M1079.8,1173.4C1079.8,1173.4,1079.8,1173.5,1079.8,1173.4c-0.4,0.7,0,1.7,0.8,1.6h0.1
			c0.8,0,1.4-0.9,0.9-1.6C1081.3,1172.7,1080.2,1172.6,1079.8,1173.4z"/>
		<path fill="#D5DEF8" d="M1089.5,1173.4c-0.1-0.8-1-1.6-1.8-1.2c0,0-0.1,0-0.1,0.1c-0.7,0.3-1.1,0.8-1,1.6c0.1,0.7,0.7,1.2,1.4,1.2
			h0.2C1088.9,1175.1,1089.6,1174.3,1089.5,1173.4z"/>
		<path fill="#D5DEF8" d="M1097.1,1171.1c-0.1-0.9-1.1-1.4-1.9-0.9c-0.1,0.1-0.3,0.2-0.4,0.3c-1,0.7-0.6,2.2,0.6,2.2
			c0.4,0,0.7-0.1,1-0.3h0.1h0.1C1096.9,1172.1,1097.2,1171.6,1097.1,1171.1L1097.1,1171.1z"/>
		<path fill="#D5DEF8" d="M1010.2,1156.8c-0.3,0.2-0.6,0.4-0.7,0.8c-0.3,0.6-0.1,1.3,0.5,1.6s1.3-0.1,1.5-0.7c0.1-0.2,0-0.1,0.1-0.2
			C1012.1,1157.4,1011,1156.2,1010.2,1156.8L1010.2,1156.8z"/>
		<path fill="#D5DEF8" d="M1001.1,1159.9c0.4,0.2,0.9,0.1,1.1-0.3c0.2-0.3,0.5-0.5,0.6-0.9c0.1-0.3-0.1-0.7-0.5-0.8
			c-0.6-0.1-1.1,0.2-1.4,0.7c0,0.1-0.1,0.1-0.1,0.2C1000.6,1159.1,1000.8,1159.7,1001.1,1159.9L1001.1,1159.9z"/>
		<path fill="#D5DEF8" d="M1000.3,1160.9c0.2-0.5,0.1-0.9-0.1-1.3c-0.3-0.7-1.2-0.6-1.7-0.2c-0.4,0.3-0.5,0.7-0.5,1.2
			c0,0.6,0.5,1.1,1,1.1C999.6,1161.8,1000.1,1161.4,1000.3,1160.9L1000.3,1160.9z"/>
		<path fill="#D5DEF8" d="M995.7,1161.6c0.5-0.5,0.7-1.2,0.4-1.9c-0.2-0.6-1-0.9-1.4-0.4c-0.4,0.4-0.6,1-0.7,1.5
			C993.9,1161.8,995.1,1162.2,995.7,1161.6z"/>
		<path fill="#D5DEF8" d="M990.7,1162c-0.1-0.5-0.6-0.7-1-0.4c-0.1,0-0.1,0.1-0.2,0.1c-0.6,0.5,0.3,1.4,0.9,0.9
			C990.7,1162.4,990.7,1162.3,990.7,1162z"/>
		<path fill="#D5DEF8" d="M986,1162.2L986,1162.2c-0.1,0.5,0.1,1,0.6,1.1h0.1c0.8,0.2,1.5-0.7,1.1-1.4
			C987.4,1161.3,986.2,1161.4,986,1162.2L986,1162.2z"/>
		<path fill="#D5DEF8" d="M981.9,1163.3c0.2-0.3,0.1-0.8-0.3-1c-0.2-0.1-0.4-0.1-0.7,0c0,0-0.1,0-0.1,0.1
			C979.9,1163,981.1,1164.4,981.9,1163.3C981.9,1163.4,981.9,1163.4,981.9,1163.3z"/>
		<path fill="#D5DEF8" d="M975,1166.3c0.3,0.3,0.8,0.4,1.1,0.3c0.6-0.2,1-0.6,1.2-1.2c0.2-0.8-0.5-1.6-1.3-1.3
			c-0.3,0.1-0.5,0.2-0.7,0.4C974.6,1164.7,974.3,1165.6,975,1166.3C974.9,1166.2,974.9,1166.3,975,1166.3L975,1166.3z M975.6,1164.3
			L975.6,1164.3c0,0-0.1,0-0.1,0.1C975.5,1164.3,975.6,1164.3,975.6,1164.3L975.6,1164.3z"/>
		<path fill="#D5DEF8" d="M971.3,1165.5c-0.4,0.1-0.8,0.4-0.9,0.8c-0.1,0.5,0.4,1.3,1,1c0.5-0.2,0.9-0.6,0.7-1.2
			C972.1,1165.7,971.8,1165.5,971.3,1165.5L971.3,1165.5z"/>
		<path fill="#D5DEF8" d="M969.7,1166.6c-0.1-1-1.5-1.5-2-0.5c-0.1,0.2-0.4,0.5-0.5,0.8c-0.4,0.9,0.9,1.9,1.7,1.3
			C969.5,1167.8,969.7,1167.3,969.7,1166.6L969.7,1166.6z"/>
		<path fill="#D5DEF8" d="M953.5,1171.1c0,0.3-0.1,0.6-0.1,0.9c0,1.1,1.7,1.4,1.9,0.3c0.1-0.3,0.1-0.6,0.1-0.9
			C955.5,1170.3,953.7,1170,953.5,1171.1z"/>
		<path fill="#D5DEF8" d="M949.7,1173.9c0.3-0.7-0.1-1.3-0.8-1.6s-1.4-0.2-1.9,0.3s-0.3,1.2,0.2,1.6c0.3,0.2,0.6,0.2,0.8,0.3
			C948.7,1174.8,949.5,1174.5,949.7,1173.9L949.7,1173.9z"/>
		<path fill="#D5DEF8" d="M946.6,1176c0.4-0.9-0.5-1.7-1.4-1.6c-0.2,0-0.1,0-0.3,0c-0.8,0-1.1,0.9-0.6,1.5c0.1,0.1,0.1,0.1,0.2,0.3
			C945,1176.9,946.3,1176.9,946.6,1176L946.6,1176z"/>
		<path fill="#D5DEF8" d="M941.3,1178.8c0.3,0.1,0.6,0.2,0.9-0.1c0.6-0.4,0.9-0.9,1.2-1.5c0.5-0.9,0-1.9-1-2.1
			c-1-0.1-1.8,0.8-1.5,1.7v0.1c0,0.1,0.1,0.1,0.1,0.2c-0.3,0.3-0.3,0.6-0.2,1c-0.1,0-0.1,0-0.1,0c-0.3,0.2-0.3,0.3-0.3,0.6
			c-0.1,0.5,0.6,0.8,0.9,0.4c0.1-0.1,0.1-0.1,0.1-0.2C941.3,1178.9,941.3,1178.8,941.3,1178.8L941.3,1178.8z"/>
		<path fill="#D5DEF8" d="M937.4,1180.6c0.9,0.1,1.7-0.5,1.7-1.4c0.1-0.7-0.9-1.3-1.6-0.9c-0.5,0.4-0.8,0.8-0.8,1.5
			C936.8,1180.1,937,1180.5,937.4,1180.6L937.4,1180.6z"/>
		<path fill="#D5DEF8" d="M939.7,1192.7c-0.2-0.1-0.4-0.1-0.6-0.1c-1,0.1-1.3,1.2-0.5,1.8c0.3,0.2,0.5,0.2,0.8,0.3
			C940.5,1194.7,940.8,1192.9,939.7,1192.7L939.7,1192.7z"/>
		<path fill="#D5DEF8" d="M944,1190.7c-0.5-0.3-1.3-0.3-1.8-0.4c-0.7-0.1-1.1,0.8-0.8,1.3c0.5,0.8,1.7,1.3,2.6,0.7
			C944.5,1192,944.7,1191,944,1190.7z"/>
		<path fill="#D5DEF8" d="M946.7,1189c-0.6-0.3-1.1-0.2-1.6,0.2c-0.3,0.2-0.4,0.7-0.3,1c0.2,0.5,0.8,1,1.3,1.2c1,0.5,2-0.5,1.5-1.5
			C947.5,1189.4,947.1,1189.2,946.7,1189L946.7,1189z"/>
		<path fill="#D5DEF8" d="M949.8,1190.3c0,0,0.4,0.2,0.3,0.1c0.2,0.1,0.3,0.2,0.4,0.3c0.4,0.2,0.8,0.2,1.2,0.2c1.4,0,1.4-2.2,0-2.1
			c-0.3,0-0.7,0-1,0.1c-0.1,0-0.2,0.1-0.4,0.2h-0.1c0,0,0,0-0.2-0.1C949.4,1188.9,949,1190,949.8,1190.3z"/>
		<path fill="#D5DEF8" d="M967.4,1185.2c-0.2,0.1-0.5,0.2-0.5,0.4s0.1,0.3,0.3,0.5c0.3,0.3,0.8,0.2,0.9-0.2
			S967.8,1185.1,967.4,1185.2L967.4,1185.2z"/>
		<path fill="#D5DEF8" d="M969.7,1185.6c-0.4,0-0.8,0.4-0.6,0.9c0.3,0.9,1.2,1.4,2.1,1.4c0.7,0,1.2-1,0.6-1.5
			S970.4,1185.5,969.7,1185.6z"/>
		<path fill="#D5DEF8" d="M976.6,1184.7c-0.2,0-0.5-0.2-0.7-0.3c-0.5-0.2-0.9-0.3-1.4-0.1c-0.6,0.3-0.5,1.1,0,1.4
			c0.9,0.6,1.7,1.4,2.9,0.8C978.5,1186.1,977.7,1184.4,976.6,1184.7z"/>
		<path fill="#D5DEF8" d="M980.2,1182.8c-0.3-0.1-0.6,0-0.9-0.1c-0.6-0.2-0.9,0.5-0.5,0.9c0.3,0.4,0.7,0.7,1.2,0.6
			C980.8,1184.2,981,1183,980.2,1182.8z"/>
		<path fill="#D5DEF8" d="M987.1,1182.4c-0.5-0.2-0.9-0.5-1.4-0.8c-0.6-0.4-1.3,0.4-1,1c0.3,0.5,0.9,1,1.5,1.3
			c0.4,0.2,0.9,0.1,1.2-0.3S987.6,1182.6,987.1,1182.4z"/>
		<path fill="#D5DEF8" d="M996.3,1182.6c1-0.3,1-1.8,0-2.1c-0.1,0-0.3-0.1-0.5-0.2c-0.3-0.1-0.5,0-0.7,0.1c-0.1,0-0.2,0.1-0.3,0.2
			c-0.2-0.3-0.5-0.5-0.9-0.6c-0.9-0.3-1.8,1.1-1,1.7c0.4,0.3,0.7,0.5,1.2,0.5c0.3,0,0.6-0.2,0.8-0.4c0.1,0.1,0.1,0.2,0.2,0.3
			C995.2,1182.6,995.8,1182.7,996.3,1182.6z"/>
		<path fill="#D5DEF8" d="M1002.3,1179.6c-0.2,0.1-0.4,0.2-0.6,0.1c-0.3-0.1-0.5-0.3-0.8-0.4c-0.6-0.2-1,0.4-0.9,0.9
			c0.2,1.2,2.1,1.5,3,1C1003.9,1180.8,1003.3,1179.2,1002.3,1179.6z"/>
		<path fill="#D5DEF8" d="M1005.8,1179c-0.4-0.1-0.9-0.1-1.3,0.1c-0.4,0.3-0.5,0.8-0.1,1.1c0.3,0.3,0.8,0.5,1.2,0.4
			C1006.5,1180.6,1006.7,1179.3,1005.8,1179L1005.8,1179z"/>
		<path fill="#D5DEF8" d="M1010.5,1178.5c-0.1,0-0.2,0-0.4,0c-0.4,0-0.7,0.5-0.5,0.8c0.1,0.2,0.2,0.3,0.3,0.4
			C1010.9,1180.6,1012,1178.7,1010.5,1178.5L1010.5,1178.5z"/>
		<path fill="#D5DEF8" d="M1004.7,1199.1c-0.2,0-0.4,0.1-0.6,0.2c-0.1,0-0.2,0.1-0.2,0.1l-0.1,0.1c-1,0.8,0.6,2.4,1.4,1.1l0.1-0.1
			c0.2-0.2,0.2-0.5,0.1-0.7C1005.4,1199.5,1005.2,1199.2,1004.7,1199.1z"/>
		<path fill="#D5DEF8" d="M1001,1203.9L1001,1203.9c-0.9,0.8,0.5,2,1.1,1c0-0.1,0.1-0.1,0.1-0.2
			C1002.6,1204,1001.6,1203.3,1001,1203.9z"/>
		<path fill="#D5DEF8" d="M995.7,1208c-0.2,0.2-0.2,0.5-0.3,0.7c-0.5,1.2,1.6,1.9,2,0.6c0.1-0.4,0.1-0.7,0-1
			C997.3,1207.3,996.1,1207.4,995.7,1208L995.7,1208z"/>
		<path fill="#D5DEF8" d="M991.4,1210.7C991.3,1210.7,991.3,1210.7,991.4,1210.7c-0.9-0.3-1.5,1.1-0.7,1.4c0.1,0.1,0.3,0.1,0.4,0.2
			c0.6,0.2,1.2,0,1.3-0.6S991.9,1210.5,991.4,1210.7z"/>
		<path fill="#D5DEF8" d="M983.4,1214c-0.4,0-0.7,0.3-1,0.3c-0.4,0-0.8,0.3-0.9,0.8c0,0.4,0.2,0.9,0.6,1c0.8,0.1,1.8,0,2.1-0.9
			C984.4,1214.6,983.9,1214,983.4,1214L983.4,1214z"/>
		<path fill="#D5DEF8" d="M974.2,1216c-0.3-0.1-0.5-0.2-0.8-0.2c-1.1-0.1-1.3,1.6-0.3,1.9c0.3,0.1,0.5,0.1,0.8,0
			C974.7,1217.5,974.8,1216.4,974.2,1216L974.2,1216z"/>
		<path fill="#D5DEF8" d="M960.4,1217.6c-0.1,0-0.2-0.1-0.4-0.1c-1-0.1-1.7,0.9-1,1.7c0.3,0.3,0.7,0.4,1.1,0.4
			C961.3,1219.7,961.5,1217.9,960.4,1217.6L960.4,1217.6z"/>
		<path fill="#D5DEF8" d="M950.1,1217.2c-0.6,0.1-0.9,0.7-0.5,1.1c0.5,0.6,1.4,1.2,2.3,1.2c0.8,0,1.3-1.1,0.7-1.6
			C951.9,1217.4,951,1217.1,950.1,1217.2z"/>
		<path fill="#D5DEF8" d="M965.3,1217.9c-0.2,0.1-0.3,0.2-0.4,0.3s-0.1,0.2-0.1,0.3c0.1,0.2,0.1,0.4,0.2,0.5
			c0.4,0.6,1.4,0.5,1.6-0.2C966.7,1218.1,965.9,1217.6,965.3,1217.9L965.3,1217.9z"/>
		<path fill="#D5DEF8" d="M937.8,1227.7c-0.4,0.6-0.4,1.3-0.5,2c-0.1,0.6,0.6,1.2,1.2,1.2c0.7,0,1.1-0.5,1.2-1.2
			c0-0.6,0.1-1.2-0.1-1.7C939.3,1227.1,938.3,1226.9,937.8,1227.7L937.8,1227.7z"/>
		<path fill="#D5DEF8" d="M936.6,1237.5c-0.2,0.5-0.3,0.9-0.4,1.4c-0.1,0.7,0.2,1.4,0.9,1.6c0.6,0.2,1.5-0.2,1.6-0.9
			s0.2-1.5-0.3-2.1C938.1,1236.9,937,1236.7,936.6,1237.5z"/>
		<path fill="#D5DEF8" d="M935.8,1245.4c-0.6,0.2-1.1,0.8-1.1,1.5c0,0.4,0,0.8,0.1,1.1c0.2,1.4,2.6,1.4,2.8,0
			c0.1-0.7,0.2-1.4,0.1-2.1C937.5,1245,936.4,1244.8,935.8,1245.4L935.8,1245.4z"/>
		<path fill="#D5DEF8" d="M935.3,1255.2c-0.2,0.3-0.4,0.5-0.5,0.9c-0.1,0.7,0.2,1.3,1,1.4c0.7,0.1,1.2-0.4,1.3-1.1
			c0-0.4-0.1-0.7-0.3-1C936.5,1254.9,935.7,1254.7,935.3,1255.2L935.3,1255.2z"/>
		<path fill="#D5DEF8" d="M935.8,1264.2c-0.1-0.6-0.5-1-1.1-1c-0.6-0.1-1.1,0.5-1.2,1c-0.3,0.8,0.5,1.6,1.3,1.5
			S936,1264.9,935.8,1264.2z"/>
		<path fill="#D5DEF8" d="M933.1,1269.2c-0.6,0.5-0.8,1.4-0.2,2c0.3,0.3,0.8,0.4,1.1,0.1c0.7-0.4,0.8-1.3,0.4-2
			C934.1,1268.9,933.5,1268.8,933.1,1269.2z"/>
		<path fill="#D5DEF8" d="M933.8,1277.6c0-0.2-0.2-0.3-0.4-0.4c0,0,0,0-0.1,0c-0.6-0.1-1.1,0.6-0.6,1
			C933.2,1278.7,933.9,1278.2,933.8,1277.6z"/>
		<path fill="#D5DEF8" d="M933.4,1282.5c-0.5-1-2.3-1.1-2.7,0c-0.3,0.7-0.4,1.5,0.1,2.1c0.3,0.3,0.8,0.4,1.2,0.4
			c0.5,0,1-0.3,1.3-0.6C933.7,1283.8,933.8,1283.2,933.4,1282.5C933.5,1282.6,933.4,1282.5,933.4,1282.5L933.4,1282.5z"/>
		<path fill="#D5DEF8" d="M928.9,1290c-0.4,0.8-0.6,2.3,0,3.1c0.6,0.9,1.6,1,2.4,0.3c0.8-0.6,0.9-2.1,0.7-3
			C931.8,1289,929.5,1288.7,928.9,1290L928.9,1290z"/>
		<path fill="#D5DEF8" d="M929,1297.4c-0.7,0.1-1.3,0.7-1.3,1.5v0.1v0.3c0,0.3,0.1,0.6,0.1,0.9c0.1,0.5,0.1,1,0.3,1.5
			c0.2,0.6,0.7,1,1.3,1s1.2-0.4,1.3-1c0.2-1,0-2.2-0.2-3.2C930.5,1297.7,929.6,1297.3,929,1297.4L929,1297.4z"/>
		<path fill="#D5DEF8" d="M928.7,1305.4c-0.7-0.3-1.5,0.1-1.7,0.8c-0.1,0.2-0.1,0.5-0.1,0.7c-0.1,1,1.4,1.6,2.1,0.9
			c0.2-0.2,0.3-0.4,0.4-0.6C929.7,1306.6,929.4,1305.7,928.7,1305.4z"/>
		<path fill="#D5DEF8" d="M929.1,1313.4c-0.1-0.2-0.4-0.4-0.7-0.4c-0.1,0-0.3,0-0.4,0.1c-0.3,0.1-0.4,0.4-0.4,0.7
			c0,0.2,0,0.4,0.1,0.6c0.3,1.1,2.1,0.6,1.7-0.5C929.3,1313.7,929.2,1313.5,929.1,1313.4L929.1,1313.4z"/>
	</g>
	<path fill="#8C8F97" d="M1070.4,1587.4c0.1,0.5,0.6,0.9,0.9,1.3c0.8,1,2.4-0.5,1.4-1.4c-0.5-0.5-0.9-0.9-1.5-1
		C1070.7,1586.2,1070.3,1586.9,1070.4,1587.4z"/>
	<path fill="#8C8F97" d="M1068.6,1592.1c0.2,0.3,0.4,0.4,0.6,0.6c0.5,0.5,1.3,0.4,1.7-0.1c0.4-0.6,0.2-1.2-0.3-1.6
		c-0.3-0.2-0.7-0.4-1.1-0.4C1068.8,1590.7,1068.2,1591.4,1068.6,1592.1L1068.6,1592.1z"/>
	<path fill="#8C8F97" d="M1072.5,1594.5c-0.8,0.5-0.6,1.6,0.1,2.1c0.3,0.2,0.8,0.1,1.1-0.1c0.4-0.4,0.4-0.8,0.2-1.4
		c-0.2-0.4-0.5-0.7-0.9-0.7C1072.8,1594.4,1072.6,1594.5,1072.5,1594.5L1072.5,1594.5z"/>
	<path fill="#8C8F97" d="M1074.8,1592.5c1.4,0,1.4-2.2,0-2.2S1073.4,1592.5,1074.8,1592.5z"/>
	<path fill="#8C8F97" d="M1073.6,1599.2c-0.3,0.3-0.4,0.6-0.5,1c-0.2,0.8,1.1,1.1,1.2,0.2c0-0.3,0.1-0.6,0.1-0.8
		C1074.3,1599.2,1073.9,1598.9,1073.6,1599.2L1073.6,1599.2z"/>
	<path fill="#8C8F97" d="M1073.8,1603.9c-0.3,0.1-0.5,0.4-0.6,0.7c-0.5,0.9,1,1.5,1.3,0.6c0.1-0.4,0.2-0.8-0.1-1.1
		C1074.3,1603.9,1074,1603.8,1073.8,1603.9L1073.8,1603.9z"/>
	<path fill="#8C8F97" d="M1072.5,1612.7c-0.1,0.2-0.2,0.4-0.3,0.6c-0.4,0.7,0.8,1.4,1.1,0.7c0.1-0.2,0.2-0.5,0.3-0.8
		C1073.7,1612.5,1072.8,1612.1,1072.5,1612.7L1072.5,1612.7z"/>
	<path fill="#8C8F97" d="M1071,1617.7c-0.2,0.1-0.4,0.2-0.6,0.4c0.2,0.1,0.5,0.3,0.7,0.4c0-0.3,0-0.5-0.1-0.7s-0.3-0.1-0.4,0
		c-0.2,0.2-0.3,0.3-0.3,0.6c-0.1,0.6,0.8,0.8,0.9,0.1c0-0.2,0.1-0.3,0.1-0.5C1071.3,1617.7,1071.1,1617.6,1071,1617.7L1071,1617.7z"
		/>
	<path fill="#8C8F97" d="M1072.7,1609.8c-0.2,0.2-0.2,0.4-0.3,0.6c-0.2,0.6,0.7,0.9,1,0.3c0.1-0.3,0.1-0.5,0-0.7
		S1072.9,1609.6,1072.7,1609.8L1072.7,1609.8z"/>
	<path opacity="0.3" fill="#091426" enable-background="new    " d="M1144.1,1577.9c-9.1,2.5-18.4,3.7-27.7,4.4
		c-8.2,0.5-16.4,0.6-24.5,0.7c-0.2-1.1-0.6-2.2-1-3.6c-0.5-1.5-1-3.1-0.9-4.8c0-1.3,1.1-5,2.6-5.2c1,0.5,2.2,0.4,3.1-0.5
		c0.1,0,0.1-0.1,0.2-0.2s0.2-0.2,0.2-0.3c1.8,0.2,3.7,0.4,5.4,0.6c7.4,0.7,14.8-0.3,22-1.8c7.8-1.6,15.3-4.1,22.8-6.5
		c6.2-2,12.7-3.6,18.9-5.5c0-2.7-0.8-2.8-3.5-3.5c-4.9,1.7-9.7,3.5-14.6,5.1c-6.9,2.2-13.8,4.5-20.9,6.2c-7.5,1.8-15.1,3-22.9,2.7
		c-2.4-0.1-4.9-0.4-7.3-0.8l-0.1-0.1c0.3-1,0.3-2.1,0.2-3.3c-0.4-4.2-1.1-8.3-1.5-12.5c-0.9-8.7-1.3-17.4-1.7-26.1
		c-1.5-34.4,1-68.9,0.4-103.4c-0.1-8.7-0.3-17.3-0.7-25.9c0-1.2,0-2.3,0-3.4c0-4.3-0.1-8.6-0.2-12.9c-0.1-2-0.1-4-0.2-6
		c0-0.9-0.2-1.7-0.3-2.4c-0.3-8.7-0.6-17.4-1.5-26c-1.1-10.5-1.4-21-2.2-31.5c-0.4-5.3-0.6-10.5-1.2-15.7c-0.5-4.7-0.1-9.5-1.1-14.1
		c-0.3-1.3-1.9-0.8-2.1,0.3c-0.7,5.1,0.1,10.6-0.1,15.7c-0.2,5.2,0,10.5,0,15.7c0,9.8,0.6,19.7,0.3,29.5s0.3,19.7,0.7,29.5
		c0.1,2.2,0.2,4.4,0.3,6.6c-0.2,3.4-0.4,6.8-0.6,10.3c-0.4,8.6-1,17.2-1.4,25.8c-0.8,17.5-1.8,35-2.7,52.4
		c-0.9,17.1-1.7,34.1-2.9,51.1c-1,13.3-3.6,26.8-4.5,40.2c-0.7,3-1.2,6.1-1.5,9.2c-1,4.5-1.6,9-2.5,13.4c-0.1,0.5-0.1,1,0.1,1.4
		c-4.4-0.9-8.8,4.3-8.7,8.6c0,1.8,0.8,3.4,1.7,4.9c-11.9,5.6-25.1,6.4-38.1,6.7c-14.3,0.2-28.6,0.2-42.9,0.3
		c-14.4,0.1-28.8,0-43.1-2.6c-6.2-1.1-12.4-2.9-18.4-4.9c1.9-0.5,3.5-1.8,4.1-3.8c2.6-8.2,4.3-16.5,3.7-24.9
		c1.9-0.1,3.8-0.2,5.7-0.3c10.8-0.7,21.9-0.8,32.1-4.9c19.8-8.1,28.2-26.1,36.7-44.3c-4-0.8-7.7-1.9-10.5-2.9
		c-8.5-3-11-0.6-10.4-7.8s1.4-10.8,1.4-10.8s-12.4,14.6-26.8,24.1s-33,28.6-66.6,36.6s-60.6,3-60.6,3s-0.2,0.2-0.5,0.4
		c-0.9,0.9-3.1,3.5-4.8,8.4c-2.2,6.4-3.1,14.1,0.7,16.6s28.5,10.8,46.6,12.7s27.1,0,27.1,0s-1.5,8-1.4,11.4s5.3,7.4,31.1,12.6
		c25.8,5.1,34.6,3.5,52.7,4.6s49.4,1.3,62.1,0c12.8-1.3,20.5-6.2,20.5-6.2s2.3,3.7,7.7,1.9c3.4-1.2,5.2-4.5,6.2-9.7
		c-1.9,1.7-4,3.2-6.2,3.9c-1,0.3-2.2,0.5-3.3,0.7c1.5-4.2,2.3-8.8,2-13c-0.2-2.7-0.8-5.2-2-7.6c-0.7-1.4-2-2.8-2.4-4.3
		c-1.2-4,2-6.1,5-7.4c1.6,0.5,3.2,0.9,4.9,1.3c-0.6-1-1.1-1.6-1.1-1.6c0.4,0.1,15.1,6.1,42.5,3.3s39.8-6.8,44.5-11.4
		c2.1-2.1,3.2-4.1,3.8-6.4c-2.3,1.1-4.4,2.4-6.7,3.4C1152.9,1575.1,1148.6,1576.7,1144.1,1577.9L1144.1,1577.9z M1064,1600.4
		c0.2,0.5,0.5,1.1,0.6,1.6c1.7,6-0.3,10.6-3.7,15.2c-0.7,0-1.3,0.1-2,0.1c-8.3,0.7-16.5,1.4-24.8,2.1c-16.3,1.4-32.6,3-49,2.6
		c-16.5-0.4-33-2.2-49.5-4c-7.2-0.8-14.2-1.9-19.1-7.8c-0.4-0.4-0.7-0.9-1-1.4c0-0.3-0.1-0.6-0.1-0.9c-0.1-1.5-0.4-4.6-0.2-7.3
		c6.5,2.4,13.3,3.8,20.1,4.9c15,2.4,30.2,2.5,45.3,2.4c15.2-0.1,30.3-0.1,45.5-0.4C1039.2,1607.3,1052.2,1605.9,1064,1600.4
		L1064,1600.4z"/>
	<path opacity="0.3" fill="#091426" enable-background="new    " d="M1154.6,1271.8c-5.8,2.6-13.9,5.4-16.7,11.6
		c-0.2,0.4,0.2,0.8,0.6,0.6c1.2-0.8,2.3-1.6,3.5-2.3c1.1-0.9,2.6-1.8,4.6-2.5c0.1,0,0.2-0.1,0.3-0.1c2.9-1.1,5.8-2.3,8.8-3.3
		c3.5-1.2,6.9-2.8,10.5-3.7c3.4-0.9,7.3,0,10.5-1.3c0.9-0.4,1.1-1.3,0.5-2c-0.1-0.1-0.2-0.2-0.2-0.3c-1.3,0.2-2.5,0.3-3.3-0.3
		c-0.4-0.3-0.6-0.9-0.7-1.7C1167.2,1265.7,1158.6,1270,1154.6,1271.8L1154.6,1271.8z"/>
	<path opacity="0.3" fill="#091426" enable-background="new    " d="M1060.2,1307.9c1.4-1.5,1.4-4.6-1.3-5.5c-6.1-2-12.1-0.5-18.3,0
		c-7,0.5-14.1,0.9-21.1,1.2c-9.6,0.5-22.4,0.4-26.6,10.9c-0.3,0.7,0.8,1.3,1.3,0.8c3.6-3.8,7.8-5,12.7-5.7c4.7-1.2,10.5-2,17.8-2.8
		C1038.1,1305.4,1053.5,1306.3,1060.2,1307.9z"/>
	<path opacity="0.3" fill="#091426" enable-background="new    " d="M963.3,1333c-0.1-8.2,0.1-16.3-0.1-24.5
		c-0.1-7.3-0.2-14.6,0.2-21.9c0.4-6.2,1.9-14.3-0.8-20.1c-0.3-0.6-1.2-0.4-1.4,0.2c-0.4,1.1-0.6,2.2-0.7,3.3c0,0.1-0.1,0.1-0.1,0.2
		c-1,5.7-1,11.5-2.3,17.1c-1.3,5.7-3.1,11.3-5,16.8c-1.8,5.3-3.5,10.6-5.3,15.8c-0.7,2-1.6,4.2-2.5,6.4c-1.3-0.8-2.5-1.5-3.7-2.1
		c-0.3-0.2-0.6-0.3-1-0.5c0.6-20.4,5.2-39.7,11.8-59c3.1-9,4.9-17.7,3-27.1c-0.8-4.2-1.4-8.1-1-12.1c5.7,0.8,12.4-0.7,17.9-1.6
		c6.8-1.2,13.4-3.3,19.5-6.6c11.1-6,19.6-16.1,22.4-28.5c0.2-1.1-1.4-1.5-1.7-0.5c-3.2,12.1-11.5,21.6-22.5,27.5
		c-5.4,2.9-11.3,4.7-17.3,5.8c-5.4,1-12.2,2.3-18,2c0.2-1,0.3-2,0.6-3c0.5-2,1.3-3.9,1.8-5.9c3.1,0.5,6.3,0.2,9.4-0.3
		c3.5-0.5,7.5-1.2,11-2.5c4.1-0.9,8-2.1,11.6-3.7c4.1-1.8,8-4.5,10.5-8.2c1.4-2.1,2.5-4.4,3.1-6.9c0.5-1.8,0.5-4.7,1.1-7
		c4-0.4,8-0.8,12-1.2c1,1.9,2.1,3.8,3.1,5.6c0.2,0.3,0.5,0.2,0.6,0c0.2,0.1,0.5,0.2,0.9,0.1c1.6-0.3,2.7-1.1,4-1.9
		c1.5-1,3-1.8,4.5-2.8c0.5-0.3,0.2-1.2-0.4-0.9c-1.4,0.5-2.8,1.2-4.3,1.7c-1.3,0.5-2.8,1.2-4.2,1.4c-0.2,0-0.4,0.1-0.5,0.2
		c-0.3-1.5-1-2.9-1.9-4.5c-2-4.1-3.7-7.6-3.9-12.2c-0.4-6.8,1.5-13.6,2.9-20.3c-0.2,0.5-0.4,0.8-0.4,0.8s-0.7,0.1-1.9,0.2
		c-0.4,2.2-0.9,4.5-1.3,6.7c-0.9,4.2-2,8.2-1.7,12.5c0.3,3.9,1.6,7.5,3.2,11c-0.3,0-0.5,0-0.8,0.1c0-0.2-0.1-0.4-0.2-0.6
		c-1.2-2-4.4-1.8-6.4-1.5c-1.4,0.2-2.9,0.8-4.1,1.6c-0.6,0.3-1.1,0.8-1.4,1.3c-0.1,0.2-0.2,0.3-0.3,0.5c-2.7,0.3-5.4,0.7-8.1,1
		c-4.8,0.7-10.4,0.9-15.4,2.1c-1.4-4.9-2.7-10-3-15.1c-0.1-2.8,0.1-5.6,0.7-8.4c0.4-1.8,0.9-2.9,0.9-4.2c-5,1.3-8.4,2.4-8.4,2.4
		s-0.2-3.5-2.9-3.8s-5.9,6-5.9,6s-10.3,4.6-15.2,6.1c-5,1.5-8.3,2.1-8.6,4.2s1.8,21.5,1.8,21.5s-5.4,8.9-5.9,15.8
		c0,0-11.1,0-14.5,0.4s-4.8,6.7,0,11.5c4.8,4.9-1.8,9.2-3.7,11.8s-0.6,7.9,2.2,9.3l-2.3,59.8c0,0,25.2,17.2,37.8,29.3
		c4.8,4.6,9.2,8.6,13.5,12.5c-0.1-0.9-0.3-1.9-0.4-3C963.4,1340.2,963.3,1336.6,963.3,1333L963.3,1333z M977.3,1192.2
		c0.7-0.5,1.2-1.2,1.3-2.1c0,0,0,0,0-0.1c5.1-0.4,10.4-1.8,15.1-2.4c2.3-0.3,4.7-0.6,7-0.8c-0.2,0.9-0.3,1.7-0.6,2.5
		c-1.4,5.3-3.6,9.7-7.8,12.9c-0.1-0.3-0.3-0.6-0.6-0.8c-1.6-1.6-6.2-0.7-8.2-0.6c-3.7,0.2-7.8,0.1-11.6,0.6
		C973.8,1198.4,975.5,1195.3,977.3,1192.2L977.3,1192.2z M969.4,1205.8c3-1.2,6.3-1.4,9.6-2c2.6-0.5,5.2-0.7,7.9-0.7
		c2,0,2.2-0.3,2.3,1.1c-6.5,3.4-14.5,5.2-22.3,5.6C967.7,1208.5,968.6,1207.2,969.4,1205.8z M965.9,1181.9c0,0.2,0,0.4,0.1,0.6
		c-0.2,0-0.3,0.1-0.5,0.2C965.7,1182.5,965.8,1182.2,965.9,1181.9L965.9,1181.9z"/>
	<path opacity="0.3" fill="#091426" enable-background="new    " d="M1027.3,1150.2c-0.1,0.4-0.3,0.7-0.5,1.1c-1,3-2.7,5.2-3.1,8.4
		c-1.1,7.4,0.9,14.9,2.8,22c-0.1,0-0.2,0-0.3,0.1c-0.5,0.1-0.4,0.8,0,0.9c0.3,0.1,0.6,0.2,0.9,0.3c0.3,0.3,0.7,0.3,1.1,0.3
		c4.7,1,10.1,0.4,14.8,0.1c6-0.4,11.9-1,17.9-1.6c2.7-0.3,5.4-0.5,8-0.8c0.5,14.8,1.8,29.6,2.7,44.3c0.9,14.8,1,29.8,2.5,44.5
		c0.1,1,1.2,1.3,1.8,0.8c0.3,0.2,0.6,0.3,1,0.2c7.7-0.3,16.9-4.1,22-10c5.5-6.3,5.3-16.3,5.6-24.1c0.4-10.7,0.1-21.7-1.1-32.3
		c-0.6-5.4-2.1-10.7-2.3-16.1c-0.1-3.1,0.3-6.3-0.3-9.3c0.7,0.1,1.5-0.3,1.9-1.2c0.2-0.4,0.3-0.8,0.4-1.3c2.3,0.5,4.7,0.5,7,0.6
		c-0.1,0.4,0.1,0.8,0.5,0.9c1.1,0.3,2.3,0.3,3.5,0.3c1.3,0.1,2.5,0.2,3.8,0.1c0.6,0,1-0.4,1.2-0.8c0.6,0.1,1.1,0.1,1.7,0.2
		c-1.7,9.5,4.2,21.1,11.5,26.7c9.8,7.4,23.4,8.6,34.8,5c-0.1-0.1-0.1-0.1-0.2-0.2c-1.6-1.1-11.9-0.5-11.9-0.5s-0.1-0.4-0.2-1
		c-7.3,0.5-14.7-1.1-20.7-5.6c-4.2-3.2-7.1-7.6-8.8-12.6c-1.3-3.8-1.3-7.6-1.9-11.4c0.6,0.1,1.1,0.1,1.7,0.2
		c-0.1,2.8,0.3,5.5,2.9,7.1c1.2,0.7,2.6-1,1.5-1.9c-1.7-1.5-0.6-5.3-0.5-7.2c0.3-2.9,0.6-5.8,0.4-8.6c-0.3-4.2-1.5-8.5-2.2-12.6
		c-0.2-1-1.4-0.7-1.7,0c-1,2.4-0.9,4.7-0.5,7.2c0.5,3.9,0.9,7.2,0.6,11.2c-0.1,0.7-0.2,1.5-0.2,2.3c-3.7-0.7-7.4-1-11.2-1.2
		c-3.5-0.2-7.2-0.6-10.7,0.2c1.8-7.1,1.5-15,1.6-22.4c-1.6,0-3.2,0.1-4.8,0.2c0,0,0.1-3.5-0.1-6.5c-0.2,3.8-0.3,7.7-0.5,11.5
		c-0.4,5.9-1.2,11.8-0.9,17.8c-12.7,1.6-25.4,3-38.2,4.2c-5.7,0.5-11.4,1.1-17.1,1.4c-4.6,0.3-9.6-0.2-14.2,0.3
		c-1.9-7.2-4.2-15.1-2.5-22.5c0.6-2.7,1.6-4.9,2.2-7.2c-1.2,0-1.8,0-1.8,0S1027.5,1150.9,1027.3,1150.2L1027.3,1150.2z
		 M1097.2,1177.8c0,7.4,1.1,14.3,2.4,21.5c1.7,9.1,1.8,18.5,1.9,27.7c0.1,8.7,0.3,18.1-2.6,26.4s-13.7,13.2-22,13.6
		c-0.3,0-0.5,0.1-0.8,0.2c-0.5-14-2.1-28-3-41.9c-0.9-14.8-1.4-29.7-2.8-44.4C1079.4,1180,1088.3,1178.9,1097.2,1177.8
		L1097.2,1177.8z"/>
	<path opacity="0.3" fill="#091426" enable-background="new    " d="M1067,1163.7c1.3,0.6,2.4,1.4,3.6,2.1v0.6
		c0,0.6,0.1,1.2,0.3,1.7c-2.2,1.1-4.4,1.5-6.9,1.9c-0.9,0.1-0.5,1.3,0.2,1.4c2.8,0.4,5.4-0.1,7.9-1.1c4,5,14.4,4.7,16.8-1.8
		c0.1-0.2,0.1-0.3,0.2-0.5c0.6-2.3-2.8-3.2-3.6-1c0,0.1-3,0.5-3.3,0.6c-1.6,0.1-1.9,0.1-2.6-0.5c-0.1-1-0.3-2-0.8-2.8
		c0-0.3,0-0.7-0.3-1.1c-0.7-0.9-1.1-1-2.1-1.1c0.2-0.6,0.4-1,0.4-1.3c-0.1-0.9-0.7-1.6-1.6-1.9c-2.3-0.7-3.6,1.5-4.2,3.8
		c-1.2-0.4-2.4-0.8-3.6-1.1c-1.8-0.5-4-1.5-5.8-0.6c-0.2,0.1-0.2,0.4-0.1,0.6C1062.9,1163,1065.3,1163,1067,1163.7L1067,1163.7z"/>
	<path opacity="0.3" fill="#091426" enable-background="new    " d="M1058.5,1266.6c-4.8-1.5-9-3.1-13.3-5.6
		c-0.2-0.1-0.4,0.1-0.4,0.3c1.2,3.2,5.5,4.3,8.4,5.6c2,1.5,4.2,3.1,5.7,5.1c0.3,0.5,0.7,1,0.9,1.6c-0.1,0.4-0.1,0.6,0,0.8
		c-0.1,0-0.2,0-0.3-0.1c-0.3-0.1-0.7-0.1-1-0.2s-0.6-0.1-0.9-0.1c-0.7,0-1.3,0-2-0.1c-0.6,0-1.2,0.4-1.5,0.9c-0.4,0.7-0.3,1.1,0,1.7
		s0.9,0.8,1.5,0.9c0.7,0,1.5,0.1,2.3,0.2c0.7,0.6,1.5,1.1,2.3,1.6c-0.5,0.7-1.6,1.1-2.2,1.3c-0.7,0.3-1.2,0.4-1.6,1.1
		c-0.2,0.5,0.4,0.9,0.8,0.8c0.9-0.3,1.8-0.6,2.7-1c1-0.5,1.8-1.3,2.8-1.8s0.8-1.9,0-2.4c-0.4-0.3-0.8-0.5-1.1-0.8
		c0.6-0.9,0.5-2.3,0.1-3.3c-0.5-1.2-1.4-2.4-2.5-3.3c2.2,1.2,4.4,2.4,6.6,3.9c0.9,0.6,2.2-0.6,1.5-1.5
		C1065.4,1269.1,1061.8,1267.7,1058.5,1266.6z"/>
	<path opacity="0.3" fill="#091426" enable-background="new    " d="M1120.6,1259.8c-4.8,0.7-9,2.8-13.3,5c-5.1,2.7-10.8,5-15.4,8.6
		c-0.8,0.6-0.4,2.1,0.8,1.8c9-2.8,16.5-8.9,25.6-11.3c-0.8,1.3-2.1,2.6-3.5,3.7c-2.5,1.8-5.2,3.4-7.8,4.6c-3,1.4-5.7,1.8-6.6,5.3
		c-0.3,1,0.7,2.2,1.8,1.8c1.4-0.5,3-1.2,4.8-2.1c-0.2,0.5-1,0.9-1.3,1.1c-1,0.7-2,2.1-2.5,3.2c-0.3,0.7-0.2,1.3,0.2,1.9
		c0,0,0,0.1,0.1,0.1c0.3,0.4,0.7,0.5,1.1,0.4c1.2,1.1,2.8,1.7,4.2,2.3s3.1,1.8,4.6,0.8c0.4-0.3,0.7-0.8,0.5-1.3
		c-0.5-1.7-2.4-1.9-3.9-2.5c-0.8-0.3-1.7-0.7-2.5-1.1c1.2-1,2.1-2,2.9-3.4c0.4-0.7,0.8-1.2,0.7-2c-0.1-0.5-0.3-1-0.7-1.4
		c4-2.3,7.9-5.3,10.2-8.7c0.4-0.4,0.8-0.7,1.1-1.1c0.5-0.5,0.5-1.1,0.3-1.6c0.3-0.8,0.5-1.6,0.6-2.4
		C1123,1260.3,1121.6,1259.7,1120.6,1259.8L1120.6,1259.8z"/>
	<path opacity="0.3" fill="#091426" enable-background="new    " d="M1143.4,1219.9c-8.7-2.1-15.8-6.5-23.3-11.1
		c-0.1-0.1-0.2,0.1-0.2,0.2c6.2,7.1,16.2,11.6,25.3,13.4c4.6,1,9.6,1.5,14.3,1.1c2.6-0.2,5.1-1.2,7.4-2.5c0.1-0.3,0.2-0.6,0.3-0.9
		c0.2-0.9,0.4-1.7,0.6-2.5c-3.6,2.1-6.9,3.9-11.7,3.9C1151.9,1221.5,1147.6,1220.9,1143.4,1219.9L1143.4,1219.9z"/>
	<path opacity="0.3" fill="#091426" enable-background="new    " d="M1110,1192.2c0.4,0.2,0.8,0,0.8-0.5c0-1.6-1.1-3-1.5-4.7
		c-0.4-2.1-0.2-4.3,0.1-6.4c0-0.3-0.3-0.4-0.4-0.2c-1.3,2-1.7,4.1-1.4,6.5C1107.9,1188.7,1108.3,1191.3,1110,1192.2L1110,1192.2z"/>
	<path opacity="0.3" fill="#091426" enable-background="new    " d="M1131.6,1181.5c-0.4,0.7,0.1,1.6,0.9,1.6h0.4
		c0.4,0,0.7-0.2,0.8-0.6c0-0.1,0.1-0.2,0.1-0.3c0-0.2,0-0.3-0.2-0.4c0.4,0.2,0.8-0.6,1.3-2c2,2.1,5.3,3.2,7.8,4.4
		c2.5,1.1,5,2.8,7.7,2.4c-0.2-0.2-0.3-0.3-0.3-0.3l3.6-25.3c0,0-1.1-0.4-2.8-0.9c-1.9,3.2-1.9,7.7-3,11.2c-1,3.3-3.2,7.2-2.8,10.8
		c-1-0.3-2-0.6-3.1-1.1c-2.1-0.9-4.3-2.4-6.6-2.7c1.3-4.3,2.6-10.9,2.6-11.7c0.1-3.3-0.2-7.3-1.4-10.6c-0.8-0.2-1.5-0.4-2.3-0.6
		c0,0,0-0.1-0.1-0.1c0.7,3.5,1.7,6.9,1.7,10.6C1135.9,1171.2,1134.3,1176.6,1131.6,1181.5L1131.6,1181.5z M1147.9,1182.4
		L1147.9,1182.4C1147.9,1182.5,1147.9,1182.5,1147.9,1182.4C1147.9,1182.5,1147.9,1182.5,1147.9,1182.4z"/>
	<path fill="#D9D9D9" d="M1088,1162.9c-1,0.6-2.3,0.5-2.9-0.8c-0.5-1-1.4-1.6-2.4-2c-0.8-0.3-2.2-1.1-3.1-0.8
		c-0.7,0.3-1.5-0.6-1.3-1.3c0.4-1.1,1.3-1.7,2.3-2c-1.9,0-3.6,0.8-4.8,2c-1.4,1.3-2.2,3.2-2.2,5.2c0,4,3.2,7.2,7.2,7.2
		c3.4,0,6.3-2.4,7-5.6c0.1-0.5,0.2-1.1,0.2-1.6C1088,1163.2,1088,1163.1,1088,1162.9L1088,1162.9z"/>
	<path fill="#D9D9D9" d="M1117.3,1184.3c-0.1,1.7-1.5,3.1-3.3,3.1c-0.5,0-1-0.1-1.5-0.4c-1.1-0.6-1.8-1.7-1.8-2.9
		c0-1.8,1.5-3.3,3.3-3.3c0.8,0,1.5,0.3,2,0.7c-0.3-0.1-0.7-0.1-1,0c-0.6,0.2-1,0.8-0.8,1.4c0.1,0.4,0.4,0.7,0.8,1
		c0.5,0.3,1.2,0.5,1.8,0.5C1117,1184.4,1117.2,1184.3,1117.3,1184.3L1117.3,1184.3z"/>
	<path fill="#FF5812" d="M1163.4,1216.9C1163.3,1216.8,1163.4,1216.9,1163.4,1216.9z"/>
	<path fill="#FF5812" d="M1164.4,1214.3c-0.1-0.1-0.1-0.2-0.2-0.2s-0.1,0-0.2-0.1C1164.1,1214.1,1164.2,1214.2,1164.4,1214.3
		L1164.4,1214.3z"/>
	<path fill="#D9D9D9" d="M1167.2,1214.7c0,0.3-0.1,0.6-0.2,0.9c-0.3,0.8-0.9,1.3-1.6,1.3c-0.9,0-1.7-1-1.7-2.2c0-0.3,0-0.6,0.1-0.8
		c0.3-0.8,0.9-1.4,1.6-1.4C1166.5,1212.5,1167.2,1213.5,1167.2,1214.7L1167.2,1214.7z"/>
	<path fill="#D9D9D9" d="M1009.3,1188.3c-0.2-0.5-0.5-0.9-0.9-1.2c0.1,0.1,0.1,0.2,0.2,0.3c0.2,0.6-0.1,1.5-0.8,1.6h-0.1
		c-0.6,0.1-1.1-0.1-1.4-0.7c-0.2-0.6,0-1.1,0.5-1.5c0,0,0.1,0,0.1-0.1c0.1-0.1,0.2-0.1,0.3-0.1h-0.1c-1,0-1.9,0.7-2.3,1.6
		c-0.1,0.3-0.2,0.7-0.2,1.1c0,1.5,1.1,2.7,2.5,2.7s2.5-1.2,2.5-2.7C1009.5,1189,1009.4,1188.7,1009.3,1188.3L1009.3,1188.3z"/>
	<path fill="#D9D9D9" d="M942.6,1217.1c-0.6,0.1-1.6,0.1-1.7,0.8c-0.1,0.6,0.8,1.4,1.1,1.5h0.4c0,0,0.1-0.1,0.2-0.2
		c0.1-0.4,0.4-0.6,0.4-1.1C943.2,1217.6,943,1217.3,942.6,1217.1L942.6,1217.1z"/>
	<path fill="#D9D9D9" d="M942.6,1219.4c-0.1,0-0.1,0-0.2,0C942.4,1219.5,942.4,1219.5,942.6,1219.4z"/>
	<path fill="#D9D9D9" d="M943.3,1216.8c-0.5-0.8-1.4-1.3-2.3-1.3c-0.1,0-0.1,0-0.2,0c-1.5,0.1-2.6,1.4-2.6,3c0,1.7,1.3,3,2.8,3
		s2.8-1.4,2.8-3C943.8,1217.9,943.6,1217.3,943.3,1216.8z M943.1,1218.2c-0.1,0.4-0.3,0.7-0.4,1.1c-0.1,0.1-0.2,0.1-0.2,0.2h0.2
		c-0.2,0.1-0.3,0.1-0.2,0c-0.1,0-0.3,0-0.4,0c-0.3-0.1-1.2-0.9-1.1-1.5c0.1-0.7,1.1-0.6,1.7-0.8
		C943,1217.3,943.2,1217.6,943.1,1218.2L943.1,1218.2z"/>
	<path opacity="0.3" fill="#D9D9D9" enable-background="new    " d="M943.3,1216.8c-0.5-0.8-1.4-1.3-2.3-1.3c-0.1,0-0.1,0-0.2,0
		c-1.5,0.1-2.6,1.4-2.6,3c0,1.7,1.3,3,2.8,3s2.8-1.4,2.8-3C943.8,1217.9,943.6,1217.3,943.3,1216.8z M943.1,1218.2
		c-0.1,0.4-0.3,0.7-0.4,1.1c-0.1,0.1-0.2,0.1-0.2,0.2h0.2c-0.2,0.1-0.3,0.1-0.2,0c-0.1,0-0.3,0-0.4,0c-0.3-0.1-1.2-0.9-1.1-1.5
		c0.1-0.7,1.1-0.6,1.7-0.8C943,1217.3,943.2,1217.6,943.1,1218.2L943.1,1218.2z"/>
	<path fill="#FEFEFE" d="M1078.3,1158.1c-0.2,0.7,0.5,1.5,1.3,1.3c0.8-0.3,2.3,0.4,3.1,0.8c1,0.4,1.9,1,2.4,2
		c0.6,1.3,1.9,1.4,2.9,0.8c-0.2-3.8-3.3-6.9-7.2-6.9h-0.1C1079.6,1156.4,1078.7,1157,1078.3,1158.1L1078.3,1158.1z"/>
	<path fill="#FEFEFE" d="M1115.1,1181.5c-0.5,0.2-1,0.8-0.8,1.4c0.1,0.4,0.4,0.7,0.8,1c0.8,0,1.1,0.3,1.9,0.1h0.4
		c0-1-0.5-1.9-1.3-2.5C1115.8,1181.4,1115.4,1181.3,1115.1,1181.5z"/>
	<path fill="#FEFEFE" d="M1117.4,1183.9c-0.1,0-0.3,0-0.4,0c-0.8,0.1-1.1-0.1-1.9-0.1c0.5,0.3,1.2,0.5,1.8,0.5c0.2,0,0.3,0,0.5-0.1
		c0-0.1,0-0.1,0-0.2C1117.4,1184,1117.4,1184,1117.4,1183.9L1117.4,1183.9z"/>
	<path fill="#FEFEFE" d="M1007.1,1186.7c0.5,0,0.9,0.2,1.3,0.4C1008.1,1186.8,1007.5,1186.6,1007.1,1186.7z"/>
	<path fill="#FEFEFE" d="M1006.7,1186.9c-0.5,0.3-0.7,0.9-0.5,1.5c0.3,0.6,0.8,0.8,1.4,0.7h0.1c0.7-0.1,1-1,0.8-1.6
		c0-0.1-0.1-0.2-0.2-0.3c-0.4-0.3-0.8-0.4-1.3-0.4C1006.9,1186.8,1006.8,1186.9,1006.7,1186.9
		C1006.8,1186.9,1006.8,1186.9,1006.7,1186.9L1006.7,1186.9z"/>
	<path opacity="0.3" fill="#091426" enable-background="new    " d="M1073.5,1163.3c0,4,3.2,7.2,7.2,7.2c3.4,0,6.3-2.4,7-5.6
		c-0.4,0-0.9,0-1.4,0.2c-1.9,0.8-5.4,1.3-7.5,0.9c-3.7-0.7-3.1-4.4-3-7.3c0-0.3-0.1-0.5-0.1-0.7
		C1074.4,1159.4,1073.5,1161.2,1073.5,1163.3z"/>
	<path opacity="0.3" fill="#091426" enable-background="new    " d="M1117.3,1184.3c-0.2,0.1-0.4,0.1-0.5,0.1
		c-0.6,0-1.2-0.2-1.8-0.5c0,0,0,0-0.1,0c-0.3,0-0.9,0.1-1.2,0.2c-0.1,0-0.2,0-0.4,0.1v0.1c0.2,0,0.3,0.1,0.5,0.2c-0.1,0-0.2,0-0.4,0
		v0.1c0,0-0.1,0-0.1-0.1c-0.2,0-0.4,0-0.6,0c-0.2,0.2-0.2,0.2,0,0c0.1,0,0.1-0.1,0.2-0.2h0.1c-0.1,0-0.1-0.1-0.2-0.1
		c0.1,0,0.2,0,0.3,0.1h0.1c0-0.1-0.1-0.1-0.1-0.2c-0.4-0.7-1.6-0.2-1.3,0.5c0.1,0.2,0.1,0.4,0.2,0.5c0-0.1,0-0.2,0-0.3
		c0,0.2,0.1,0.4,0.1,0.6c0-0.1-0.1-0.2-0.1-0.2c0,0.2,0,0.3,0.1,0.5c0-0.1,0-0.3,0.1-0.4c0,0.3,0.1,0.6,0.1,0.8
		c-0.1-0.1-0.1-0.3-0.2-0.4c-0.1,0.6,0.1,1.1,0.3,1.5c0.5,0.2,1,0.4,1.5,0.4C1115.8,1187.4,1117.2,1186,1117.3,1184.3L1117.3,1184.3
		z"/>
	<path opacity="0.3" fill="#091426" enable-background="new    " d="M1165.5,1216.9c0.7,0,1.3-0.5,1.6-1.3c-0.3-0.4-0.8-0.7-1.4-0.7
		c0.1,0.1-0.2,0-0.1,0c-0.3-0.1-0.4-0.2-0.2-0.1h0.2c-0.1-0.1-0.5-0.4-0.5-0.4c-0.2-0.1-0.3-0.2-0.5-0.2c0.1,0.1,0.3,0.2,0.5,0.3
		c-0.2-0.1-0.4-0.2-0.5-0.3h0.1c-0.1-0.1-0.3-0.1-0.4-0.2l0.2,0.2c-0.1-0.1-0.3-0.2-0.4-0.3c0.1,0,0.1,0,0.2,0.1
		c-0.1-0.1-0.2-0.2-0.3-0.2c-0.1,0.3-0.1,0.5-0.1,0.8C1163.8,1215.9,1164.6,1216.9,1165.5,1216.9L1165.5,1216.9z"/>
	<path opacity="0.3" fill="#091426" enable-background="new    " d="M1007,1192.1c1.4,0,2.5-1.2,2.5-2.7c0-0.4-0.1-0.8-0.2-1.1
		c-0.9,0.5-1.8,1.3-2.9,1.4c-0.6,0-1.2-0.1-1.6-0.7c-0.1-0.2-0.2-0.4-0.2-0.6c-0.1,0.3-0.2,0.7-0.2,1.1
		C1004.5,1190.9,1005.6,1192.1,1007,1192.1L1007,1192.1z"/>
	<path opacity="0.3" fill="#091426" enable-background="new    " d="M943.3,1216.8c-0.5-0.8-1.4-1.3-2.3-1.3c-0.1,0-0.1,0-0.2,0
		c-1.5,0.1-2.6,1.4-2.6,3c0,1.7,1.3,3,2.8,3c1.6,0,2.8-1.4,2.8-3C943.8,1217.9,943.6,1217.3,943.3,1216.8z M943.1,1218.2
		c-0.1,0.4-0.3,0.7-0.4,1.1c-0.1,0.1-0.2,0.1-0.2,0.2h0.2c-0.2,0.1-0.3,0.1-0.2,0c-0.2,0-0.3,0-0.4,0c-0.3-0.1-1.2-0.9-1.1-1.5
		c0.1-0.7,1.1-0.7,1.7-0.8C943,1217.3,943.2,1217.6,943.1,1218.2L943.1,1218.2z"/>
	<path fill="#FFFFFF" d="M1068.1,1330.9c0.2-0.3,0.3-0.5,0.4-0.8c2,0,4.2-1.9,2.6-3.9c-0.1-0.1-0.2-0.2-0.3-0.4
		c0.1-0.6,0-1.2-0.4-1.8c-0.5-0.9-1.3-1.6-1.9-2.3c-0.3-0.6-0.6-1.2-1-1.8c-0.1-0.2-0.3-0.4-0.4-0.5c-0.6-1-1.4-1.7-2.5-2.4
		c-0.2-0.1-0.3-0.2-0.5-0.3c2-1.2,4.3-3.3,4.1-5.6c0.6-1.2,0.5-2.8-1.1-3.5c-10.4-4.7-22.9-4.8-34-3.7c-11.4,1.1-22.8,2.5-34.3,3.4
		c-0.8,0.1-1.3,0.9-0.9,1.6c0.1,0.1,0.1,0.2,0.2,0.4c-0.6,0.1-1.2,0.2-1.8,0.3c-1.6,0.3-2.7,1.2-3.8,2.3c-2.3,1.2-4.6,2.7-6.1,4.8
		c-0.4,0.5-0.6,1-0.9,1.6c-0.9,0.8-1.2,2.4-0.6,3.5c0.5,1,1.3,1.6,2.3,1.9c0.1,0,0.2,0.1,0.3,0.1c0.2,0.1,0.4,0.1,0.6,0.2
		c-0.3,0.9-0.4,1.8-0.1,2.7c0.4,1.4,1.7,2.5,3.2,3.2c-0.6,0.7-1.2,1.5-1.7,2.3c-0.3,0-0.5,0.1-0.8,0.1c-2.2,0.5-2.1,3.2-0.6,4.3
		c0.5,0.4,1.1,0.7,1.8,1c-0.5,1.8-1.1,3.6-2.1,5.2c-0.6,0.9-0.5,2.2,0.2,3.1c0.6,1.9,2.5,3.1,4.4,3.7c-0.8,1.9-2,3.8-1.2,5.9
		c0.6,1.5,1.7,1.7,3,2.4c1.2,0.6,1.9,1.2,2.4,2.1c-0.7,0.2-1.4,0.5-2,0.9c-2.3-0.2-4.8-0.9-7,0.1c-0.7,0.3-1.2,1.3-1.7,1.5
		c-0.9,0.4-1.8-0.4-2.9,0.3c-0.2,0.1-0.2,0.3-0.1,0.4c0.7,1.4,3.5,2.1,4.8,1c1.6-0.1,3.2-0.1,4.8,0c-0.3,1.3-0.1,2.6,0.7,3.8
		c2.5,4.1,6.7,4.4,5.4,10.8c-0.1,0.4,0.5,0.7,0.7,0.3c1.8-3.5,0.2-6.3-1.8-9.1c-1.2-1-2-2.4-2.4-4c0.9-0.5,1.8-1.1,2.8-1.6
		c0.7,0,3.1,1.3,4.1,1.5c3.6,0.7,7.5,0.8,11.2,1c13.9,0.7,28.2,0.4,41.9-2c0.2,0.7,0.8,1.3,1.6,1.3c1.6-0.1,2.9-1.1,3.9-2.4
		c1.3,1.1,1.5,3.2,2.7,4.4c0.5,0.5,1.5,0.3,1.6-0.4c0.4-1.6-0.5-3.3-1.1-4.9c0.5-0.2,1-0.4,1.4-0.6c2.1-1.5,1.6-4.1-0.1-5
		c0-0.9-0.1-1.8,0-2.5c0-0.7,0.2-1.7,0.2-2.6c0.9-0.4,1.7-1,2.4-1.6c0.8-0.8,1.6-1.8,1.7-3c0.1-1.1-0.6-2.2-1.6-2.7
		c0.1-0.2,0.2-0.5,0.2-0.8c0-0.1,0-0.2,0.1-0.3c2.5,0.2,4.2-3.5,1.6-4.7c-0.6-0.3-1.3-0.6-1.9-0.8c0.3-0.4,0.6-0.8,0.9-1.2
		c0.1-0.2,0.2-0.3,0.2-0.5c0.8-1.3,0.5-2.9-0.7-3.8c-0.4-0.3-0.8-0.5-1.1-0.5c0-0.1,0.1-0.2,0.1-0.4
		C1067.3,1331.8,1067.8,1331.5,1068.1,1330.9L1068.1,1330.9z M1055.5,1327.3c-1.3,2.2-2.4,3.7-4,5.1c-8.2,0.4-16.4,1.1-24.6,1.5
		c-4.7,0.2-9.2,0-13.6-0.8c-0.5-0.3-1-0.5-1.5-0.7c-0.2-0.1-0.4-0.2-0.6-0.3c5.8,0.5,11.6-0.5,17.3-1.3c9.3-1.4,18.7-2.3,27.7-4.7
		C1056.1,1326.4,1055.8,1326.8,1055.5,1327.3L1055.5,1327.3z M1024.5,1336.8c7.1-0.1,14.3-0.3,21.5-0.6c-0.2,0.2-0.5,0.3-0.7,0.5
		c-4.3,1.9-9.2,3-13.1,2.8c-3.8-0.2-7.5-1.3-11-2.7L1024.5,1336.8z M1058.3,1332.2c-0.2,0-0.4,0.1-0.5,0.1c1.9-2,3.6-4.2,5-6.6
		c0.2,0.6,0.5,1.3,0.4,1.8c-0.2,0.4-0.3,0.7-0.5,1.1c-0.3,0.8-0.2,1.4,0,2c-0.4,0.2-0.7,0.4-1.1,0.6
		C1060.5,1331.4,1059.4,1332,1058.3,1332.2z M1056.6,1320.9c0.7,0.3,1.5,0.5,2.3,0.6c-8.6,3.5-17.9,4.9-27.1,6.3
		c-5.6,0.9-11.3,1.9-16.9,2c-4.1,0.1-8-0.7-11.8-2c-0.3-0.1-0.5-0.2-0.8-0.4c0-0.3,0-0.6-0.1-1c-0.4-1.6-1.5-2.2-2.7-3.1
		c-0.1-0.1-0.2-0.2-0.4-0.3c-0.7-0.9-1.6-1.7-2.4-2.4c0.3-0.8,0.6-1.6,0.8-2.5c2.9,2.7,6.9,4.8,10,6.3c5,2.4,10.6,3.2,16.1,3.5
		c7.2,0.5,13.9-1,20.8-2.9C1048.5,1323.8,1052.9,1322.9,1056.6,1320.9z M1000,1331.2c0.2,0.1,0.4,0.2,0.6,0.3
		c1.7,1.9,3.9,3.3,5.9,4.9c1.5,1.3,3.1,2.4,4.8,3.4c-1-0.2-2-0.5-3-0.7c-2.7-0.7-5.8-2.2-8.9-3.4
		C1000,1334.3,1000.1,1332.7,1000,1331.2L1000,1331.2z M1013.4,1338c-1.3-0.7-2.6-1.5-4-2.2c2.3,1.1,4.6,2.2,7,3.3
		c1.7,0.8,3.5,1.5,5.3,2.2c-0.5,0-0.9-0.1-1.4-0.1C1018,1340.3,1015.6,1339.1,1013.4,1338L1013.4,1338z M1007,1312.2
		c6.4-1.4,12.4-3.2,19-3.9c11.9-1.4,25.3-1.5,36.5,3.5c-0.7,1-1.6,1.8-2.6,2.4c-0.7,0.5-1.7,1-2.4,1.6c-0.7,0.2-1.3,0.6-1.8,1.2
		c-0.3,0.3-0.4,0.7-0.5,1.1c-9.6,3-19.8,5.3-29.8,5.3c-5,0-10.4,0.2-15.3-1c-3.4-0.8-6.5-1.9-9.3-3.9c-1-0.7-1.9-1.5-2.9-2.3
		c0-0.1,0-0.3,0-0.4c0-0.3,0-0.5-0.1-0.8c1.5-0.1,3-0.2,4.5-0.6c1.1-0.3,1.7-1.1,1.9-1.9C1005,1312.5,1006,1312.4,1007,1312.2
		L1007,1312.2z M1007.3,1360.8c-1.7-0.1-4-0.6-6.2-0.8c0.1-0.9-0.2-1.9-0.8-2.8c-0.6-0.7-4.3-2.4-5.2-3.1c2.2-1.3,4.1-3.7,3.4-6.3
		c-0.2-0.8-0.7-1.3-1.4-1.7c-0.3-0.8-0.8-1.5-1.6-1.9c0-0.1,0-0.2,0-0.4c0.1-1.5,0.1-2.9,0.2-4.4c3.4,1.8,7.6,2.8,10.6,3.6
		c6.2,1.6,12.4,2.3,18.7,2.1c2,0.4,4.1,0.5,6.1,0.4c2.2-0.2,4.3-0.8,6.4-1.7c8.7-1.6,16.9-4.5,24.8-9.1c0,0.1,0.1,0.2,0.1,0.3
		c-0.2,0.3-0.4,0.5-0.7,0.7c-0.8,0.9-1.5,1.7-1.9,2.8c-0.2,0.5-0.1,1,0.1,1.5c0,0.3,0.2,0.7,0.5,0.9c0.6,0.3,1,0.7,1.6,1
		c0.4,0.2,0.9,0.3,1.3,0.5c0.6,0.2,1.2,0.4,1.8,0.6c0,0.4-0.2,0.7-0.3,1c0,0.1-0.1,0.2-0.1,0.4c-1-0.1-2.1,0.3-2.8,1.1
		c-0.9,1.1-1.8,2.6-1.8,4c-0.6,0.4-1.1,0.8-1.6,1.8c-0.8,1.8-1,3.9-1.3,5.8c-0.2,0.3-0.3,0.7-0.3,1c-0.1,0.2-0.1,0.5-0.2,0.7
		C1040.3,1360.9,1024,1362.2,1007.3,1360.8L1007.3,1360.8z"/>
	<path fill="none" d="M1011.2,1392.1c0.5,0.2,1.1,0.5,1.6,0.6c2.6,0.8,5.7,0.3,8.5,0.1c-0.7,0-1.4-0.1-2.2-0.1
		C1017.1,1392.5,1014.1,1392.5,1011.2,1392.1L1011.2,1392.1z"/>
	<path fill="none" d="M1015.6,1382.3c-1.8,0.1-4.1-0.6-5.8-0.4c-1.5,0.2-1.8,1.1-1.6,2.3c9.2,1.8,20.1,3.2,27.9-2.8
		c0.4-0.3,0.9-0.6,1.4-0.9c-1.8,0.1-3.6,0.2-5.4,0.3C1026.5,1381.2,1021.1,1381.9,1015.6,1382.3z"/>
	<path fill="none" d="M1033.7,1388c-0.8,0.5-1.7,0.2-2.3-0.3c-7.5,0.8-15.5,0.3-22.8-1.5c0.2,0.7,0.5,1.5,0.6,2.2v0.4
		c1,0.2,2,0.4,3,0.5c2.9,0.2,5.8,0.1,8.7,0.2c5.5,0.2,10.7-0.1,15.9-1.2C1035.7,1387.9,1034.3,1387.6,1033.7,1388L1033.7,1388z"/>
	<path fill="none" d="M1020.1,1379.2c2.6-0.1,5.2-0.2,7.8-0.4c-3.9-0.6-7.8-1.4-11.8-1.7c-0.3,0.1-0.6,0.2-0.9,0.2
		c-0.5,0.4-1,0.9-1.5,1.3c-0.3,0.2-0.6,0.4-1,0.6C1015.2,1379.4,1017.6,1379.4,1020.1,1379.2L1020.1,1379.2z"/>
	<path fill="none" d="M983.9,1493c0.8,0.5,1.4,1.4,1.3,2.4c-0.2,2.5-0.1,5.4-1,7.8v0.5c0,1.2-1.5,2.8-2,4c2.5,1.5,4.1,4.2,7,5.4
		c3.7,1.6,8.9,1.1,12.9,1.3c4.6,0.3,9.2,0.5,13.8,0.8c3.4,0.2,11.5,2.3,12.9-1.6v-0.1c-0.1-1.2-0.9-2.9-0.9-3.9c0-1.7,0.5-3.5,1.4-5
		c1.2-2.1,3.3-3.2,4.7-5.1c0.1-0.1,0.2-0.2,0.2-0.3c-1.7-0.7-2.8-2-4.3-3.1c-0.9-0.6-1.6-1.3-2.4-2c-0.6-0.5-1.2-0.8-1.7-1.3
		c-0.2,0-0.4-0.1-0.6-0.1c-0.9-0.3-0.9-1.4-0.1-1.8c0.2-0.8,0.4-1.6,0.6-2.4c0.4-1.2,0.9-2.3,1.3-3.4c0.2-0.6,0.5-1.2,0.6-1.9
		c-0.1-0.2-0.2-0.4-0.3-0.6c-0.1-0.3-0.1-0.7-0.1-1l-0.1-0.1c-0.8-0.7-1.7-1.5-2-2.5c-0.3-1.1,0.3-2,1.4-2.4
		c0.5-0.2,0.9-0.2,1.3-0.1c0.1-1.7,0.3-3.4,0.7-5c0.1-0.5,0.3-0.9,0.5-1.4c-2.6-0.2-5.4,0.1-8,0c-3.4-0.1-6.6,0.2-10,0.3
		c-4.4,0.2-9.6,1.2-14.3,0.9c-4.2,7.5-11.5,19.7-11.5,19.7S984.8,1491.9,983.9,1493L983.9,1493z"/>
	<path fill="none" d="M1025.2,1375.5c2.1,0,4.1-0.2,6.2-0.4c3.5-0.3,6.9-0.7,10.3-1.2c-2.2,0.2-4.4,0.4-6.7,0.6
		C1031.9,1374.9,1028.6,1375.1,1025.2,1375.5z"/>
	<path fill="#D8D8D8" d="M1018.3,1379.9c5.2-0.6,10.3-1.2,15.5-1.7c1.8-0.2,1.8-2.7,0-2.8c-4.7-0.3-8.7,1.2-13.2,2.3
		c-3.8,0.9-7.6,0.4-11.3,1.1c-0.4,0.1-0.4,0.7,0,0.8C1012.2,1380.4,1015.3,1380.3,1018.3,1379.9L1018.3,1379.9z"/>
	<path fill="#D8D8D8" d="M1036.6,1389.8c-5.3-1.5-11.1-1-16.5-2c-1.4-0.3-2.8-0.7-4.2-1.1c0.3,0,0.7,0.1,0.9,0.1
		c4,0.4,8.2,0.5,12.2,0.5c3,0,5.4,0.4,7.8-1.6c0.5-0.4,0.2-1.1-0.2-1.4c-3.4-2.6-9.7-1.1-13.8-1c-5,0.2-11.5,0.4-16.2-1.8
		c-0.4-0.2-1.1,0-1.1,0.6c0.1,1.1,0.7,1.9,1.6,2.5c-0.3,0-0.6,0-0.9,0c-1.1,0-1.8,1.5-0.9,2.3c3.7,3.2,9.4,5,14.2,5.8
		c5.4,0.9,11.8,2.1,17.2,1C1038.6,1393.2,1038.5,1390.3,1036.6,1389.8L1036.6,1389.8z"/>
	<path fill="#FFFFFF" d="M1060,1369.7c-3.3-1.3-8.6-0.1-12.1,0.2c-4.1,0.3-8.3,0.6-12.3,1.2c-4.5,0.7-8.9,1.8-13.4,2.8
		c-3.8,0.8-7.5,1.3-11,2.9c-1.4,0.4-2.8,0.9-4,1.8c-0.6,0-1.1,0.2-1.7,0.6c-1.9,1.6-1.8,5.4-1.3,8.3c-0.4,0.1-0.9,0.2-1.3,0.2
		c-1.4,0.2-1.1,2.2,0,2.6h0.1c4.1,6.7,12.2,8.1,19.7,8.4c4.8,0.2,8.7-0.6,13.1-2.4c3.8-1.5,7.3-2,10.2-5.1c0.8-0.9,0.6-2.1-0.3-2.7
		c-2-1.4-4.4-2.4-6.8-3.2c0,0,0.1,0,0.1-0.1c2-1.2,4.2-1.9,6.4-2.9c3.6-1.6,7.8-4.3,10.7-7.2c0.5-0.2,1-0.3,1.5-0.4
		c0.4-0.1,0.6-0.2,0.9-0.4h0.1h0.2c1,0.2,2-0.1,2.5-1c0-0.1,0.1-0.1,0.1-0.2C1062.2,1371.7,1061.4,1370.2,1060,1369.7L1060,1369.7z
		 M1013.8,1378.6c0.5-0.4,1-0.9,1.5-1.3c0.3-0.1,0.6-0.2,0.9-0.2c3.9,0.3,7.8,1.1,11.8,1.7c-2.6,0.2-5.2,0.3-7.8,0.4
		c-2.5,0.1-4.9,0.1-7.4,0C1013.1,1379,1013.5,1378.8,1013.8,1378.6z M1012.8,1392.7c-0.5-0.2-1.1-0.4-1.6-0.6c2.9,0.4,5.9,0.4,8,0.6
		c0.7,0.1,1.4,0.1,2.2,0.1C1018.5,1393,1015.5,1393.5,1012.8,1392.7L1012.8,1392.7z M1021,1389.4c-2.9-0.1-5.8,0-8.7-0.2
		c-1-0.1-2-0.3-3-0.5c0-0.1,0-0.3,0-0.4c-0.1-0.7-0.4-1.4-0.6-2.2c7.3,1.7,15.3,2.3,22.8,1.5c0.6,0.6,1.5,0.8,2.3,0.3
		c0.5-0.3,2-0.1,3.2,0.2C1031.7,1389.3,1026.4,1389.6,1021,1389.4L1021,1389.4z M1036.1,1381.4c-7.9,6-18.7,4.5-27.9,2.8
		c-0.2-1.2,0.1-2.1,1.6-2.3c1.7-0.3,4,0.5,5.8,0.4c5.5-0.3,11-1.1,16.4-1.5c1.8-0.1,3.6-0.2,5.4-0.3
		C1037,1380.8,1036.5,1381.1,1036.1,1381.4L1036.1,1381.4z M1031.5,1375.1c-2.1,0.2-4.1,0.4-6.2,0.4c3.3-0.4,6.6-0.7,9.8-1
		c2.2-0.2,4.4-0.5,6.7-0.6C1038.4,1374.5,1034.9,1374.8,1031.5,1375.1z"/>
	<path fill="#FFFFFF" d="M1036.9,1493.8c-0.8-0.2-1.1-0.7-1.7-1.2c-0.9-0.8-2-1.4-3.2-1.7c-0.7-0.2-1.4-0.2-2.1-0.2
		c0.3-0.5,0.6-1,0.8-1.5c0.7-1.5,1.4-3,1.8-4.6c0.2-0.5,0.4-1.1,0.4-1.6c0.2-0.3,0.4-0.6,0.5-1c0.1-0.6,0.1-1.1,0-1.8
		c-0.2-1.1-1.5-1.8-2.5-1.7c-0.3-0.2-0.6-0.4-0.8-0.6c-0.3-0.2-0.5-0.4-0.8-0.6c0.9-1.3,1.8-2.7,2.8-3.9c1.3-1.5,2.8-2.6,3.7-4.5
		c0.7-1.6-0.1-3.1-1.3-3.7c-0.3-0.3-0.8-0.5-1.4-0.7c-3.5-0.7-7-0.3-10.5-1.3c-3.2-1-6.2-1.3-9.6-1.4c-3.3-0.1-7.2-0.6-11-0.7
		c-0.1,0.2-0.6,1.4-2.8,6c-0.5,1-1.4,2.6-2.4,4.5c4.7,0.3,9.9-0.7,14.3-0.9c3.4-0.2,6.6-0.5,10-0.3c2.6,0.1,5.4-0.2,8,0
		c-0.2,0.5-0.4,0.9-0.5,1.4c-0.5,1.5-0.7,3.3-0.7,5c-0.4-0.1-0.8-0.1-1.3,0.1c-1,0.4-1.6,1.3-1.4,2.4c0.2,1,1.2,1.8,2,2.5l0.1,0.1
		c0,0.3,0,0.7,0.1,1c0.1,0.2,0.2,0.4,0.3,0.6c-0.1,0.6-0.3,1.3-0.6,1.9c-0.4,1.1-0.9,2.3-1.3,3.4c-0.3,0.8-0.4,1.6-0.6,2.4
		c-0.8,0.4-0.7,1.5,0.1,1.8c0.2,0.1,0.4,0.1,0.6,0.1c0.5,0.5,1.1,0.8,1.7,1.3c0.8,0.7,1.6,1.3,2.4,2c1.5,1.1,2.6,2.4,4.3,3.1
		c-0.1,0.1-0.2,0.2-0.2,0.3c-1.4,1.9-3.5,3-4.7,5.1c-0.8,1.5-1.4,3.3-1.4,5c0,1,0.7,2.7,0.9,3.9v0.1c-1.4,3.8-9.5,1.8-12.9,1.6
		c-4.6-0.3-9.2-0.6-13.8-0.8c-4-0.2-9.2,0.3-12.9-1.3c-2.9-1.2-4.4-3.9-7-5.4c0.5-1.2,2.1-2.7,2-4c0-0.2,0-0.3,0-0.5
		c0.9-2.4,0.8-5.3,1-7.8c0.1-1.1-0.5-1.9-1.3-2.4c-1.4,1.9-4,5.2-7.3,8.9c0.4,1.4,1.1,2.7,1.9,3.7c0.3,0.4,0.8,0.7,1.3,0.8
		c-0.2,0.2-0.5,0.4-0.7,0.5c-1.6,0.6-2.7,2.9-1.1,4.2c2,1.6,3.4,3.5,5.7,4.7c0.3,0.2,0.6,0.3,0.9,0.4c-0.6,0.8-1.2,1.6-2.1,2.1
		c-1.2,0.7-1.5,2.5-0.4,3.5c0.5,0.4,1.6,0.7,1.9,1.1c-0.4-0.4,0,1,0,1.1c0,0.8,0.2,0.8,0,1.7s-0.4,1.5-0.4,2.4
		c0,0.2,0.2,0.4,0.4,0.3c1.8-0.7,2.4-3.1,2.9-4.8c0.3-1,0.6-2.1,0.2-3.1c0-0.1-0.1-0.2-0.2-0.3c0.6-0.8,1.1-1.6,1.4-2.6
		c1,0.3,1.9,0.5,2.9,0.7c6.2,1.4,12.6,1.5,18.9,1.9c3.3,0.2,6.6,0.4,9.9,0.6c1.8,0.1,3.9,0.5,5.9,0.5c-0.7,1.4-1.5,2.7-2.1,4.1
		c-0.5,1.2,1.4,1.9,2.1,0.9c0.4-0.7,0.8-1.4,1.5-2c0.1-0.1,0.3-0.2,0.4-0.3c-0.1,1.2-0.1,2.5,0.1,3.8c-0.2,0.1-0.4,0.1-0.5,0.2
		c-0.9,0.5-1.1,1.9-0.3,2.6c0.3,0.2,0.6,0.4,0.9,0.6c-0.6,0.7-1.3,1.4-2.1,1.9c-1.5,0.1-2.1,2.4-0.4,2.8c1.3,0.3,2.1,0.7,3.2,1.4
		c1,0.7,2,1.3,3,2c2.2,1.4,4.2-2.1,2-3.5c-1-0.8-2.3-1.5-3.6-2c0.5-0.4,0.9-0.9,1.3-1.5h0.2c1.1-0.2,1.8-1.6,1.5-2.6
		c-0.2-0.6-0.6-1-1-1.4c0.1-1,0.1-3.1,0-5c0.3,0.3,0.6,0.6,0.9,0.8l0.2,0.2c0.7,0.9,2.4,0.6,2.9-0.4c0,0-0.1,0-0.1,0.1
		c0.6-0.6,0.9-1.5,0.6-2.3c-0.5-1.3-1.4-2.6-2.3-3.7c-0.2-0.3-0.5-0.7-0.8-0.9c0.3-1.2,0.2-2.5-0.4-3.7c0.9-2.2,1.4-4.4,2.4-6.6
		c0.8-1.8,1.3-3.6,2.3-5.3c0.9-1.4,1.5-2.2,1.5-3.8C1039.3,1496.1,1038.9,1494.3,1036.9,1493.8L1036.9,1493.8z"/>
	<path fill="#FFFFFF" d="M1190.4,1508.5c-0.2-2.5-1.3-3.4-2.5-5.6c-1.4-2.7-0.3-5.6,0.1-8.5c0.4-3,0.7-6.1-2.1-7.1
		c-0.1-0.2-0.2-0.3-0.4-0.5c-0.8-0.9-5-3.2-3.5-3.8c1.3-0.5,0.8-2.5-0.6-2.2c-1.1,0.3-2,0.3-2.5,0.9c0-0.2,0.1-0.4,0.2-0.7
		c0.6-1.4,2-1.5,3.4-2.6c0.6-0.5,0.7-1.4,0.6-2.1v-0.1c-0.3-1.2-1.6-1.9-2.9-1.6c-3.1,0.8-6.6,2.6-6.9,5.9c-2.7,1.5-6.9-0.7-9.8,1.2
		c-0.6,0.4-0.8,1.1-1.5,1.4c-1.1,0.4-2.6-0.1-3.7-0.2c-1.8-0.1-6.2,0.7-7.9-0.3c2.6-0.5,4.7-2.5,6.2-4.5c1.2-1.6,3.8-3.8,4.7-6
		c2.5-0.9,4.9-2.6,4.4-5.5c-0.2-1-1.1-1.8-2.1-2.1c-0.7-0.2-1.4-0.2-2-0.1c-4.6-2.3-9.9-2.4-14.9-3.4c0-0.2,0-0.4,0-0.5
		c0.2-0.9,0-1.9-0.8-2.7c-0.3-0.3-0.6-0.6-0.9-0.9c3.2-2.6,5.3-5.2,7.8-9.2c0.3-0.4,0.4-1,0.4-1.5c4.1-0.8,8.2-1.6,12.3-2.3
		c4.9-0.9,10.2-1.2,14.7-3.6c1.3-0.7,1.2-3.1-0.4-3.4c-5-0.7-9.8,0.6-14.7,1.4c-5.8,1-11.6,1.8-17.4,2.8c-1.6,0.3-2.4,2-2.1,3.5
		c-1.8,0.7-3.7,1.7-3.4,3.9c0.1,0.7,0.5,1.3,1,1.8c-0.8,0.4-1.2,1.3-0.9,2.1c-0.7,0.6-1.5,1.1-2.4,1.5c-1.2,0.5-1.9,1.4-2,2.4
		c-0.2,0.5-0.3,1-0.2,1.7c0.4,3.1,2.4,5.1,5.1,5.9c1.8,1.3,3.8,2,6.3,2.6c1.7,0.4,3.3,0.9,4.9,1.5c-0.7,0.4-1.2,1-1.2,2
		c0,1.4,0.8,2.2,1.8,2.6c-0.2,0.6-0.4,1.2-0.7,1.7c-0.6,1.3-1.8,2.3-2.6,3.4c-0.9,1.4-1.5,2-3,2.8c-1.2,0.6-0.6,2.5,0.7,2.5h0.3
		c-1.1,2.8,1.5,4.4,4,4.7c1.3,0.2,2.9,0.3,4.4,0.3c0.1,0.2,0.1,0.4,0.3,0.5c1.4,2.1,2.5,4.1,2.5,6.7c0,1.6-0.9,3.5-0.4,5.1
		c0.2,0.7,1.1,1,1.7,0.4c1.9-1.9,3.3-3.5,3.3-6.3c0-2.5-1-4.8-2.3-6.9c1.1-0.3,2-0.9,3.1-1.1c2.6-0.4,5.1-0.1,7.7-0.7
		c1.3-0.3,3-0.4,4.1-1.1c0.3-0.2,0.5-0.4,0.7-0.7c0.2,1.1,1,2.3,1.4,3.2c0.9,1.9,0.9,2,0.8,4.3c-0.2,6.6-0.4,15.3,5.8,19.5
		C1188.1,1511.7,1190.5,1510.4,1190.4,1508.5L1190.4,1508.5z"/>
	<path fill="#FFFFFF" d="M1177,1399c-0.3,0.7-0.9,1.2-1.2,1.9s-0.2,1.4-0.5,2c0.3,0,0.2,0.1-0.2,0.3c-0.3,0.2-0.5,0.4-0.8,0.6
		c-0.5,0.4-1,0.9-1.5,1.3c-0.7,0.6-0.9,1.3-0.7,2c-2.3,0.3-4.6,1.2-6.7,1.8c-1.9,0.5-3.4,1-5.4,0.4c-1-0.3-1.8-0.7-2.7-0.8
		c0-0.1,0-0.1-0.1-0.2c-0.4-0.5-0.5-1.1-0.4-1.8c0.2-0.1,0.5-0.2,0.7-0.4c0.5-0.4,1.2-0.6,1.8-0.9c1.1-0.6,2.5-1.7,3.2-2.8
		c0.5-0.8,0.8-2.5,0.9-2.8c0-0.2,0.1-0.4,0.1-0.6c0.8-0.2,1.5-0.5,2.2-0.8c1.7-0.7,3.3-0.8,5.1-0.9c1.5-0.1,3.3-0.7,4.7-0.6
		c2.8,0.2,2.9-4.4,0-4.4c-1.6,0-3.1,0.6-4.7,0.7s-3.1,0-4.6,0.4c-1.1,0.3-2.2,1-3.3,1.5c-1.8,0.9-3.7,1.3-5.3,2.4
		c-0.7,0.5-0.5,1.4,0.2,1.7c0.2,0.1,0.5,0.1,0.7,0.2c-0.4,0.3-0.7,0.7-1.1,1.1c-1,1.2-1.8,2.3-2.5,3.7c-1.2,2.1-2,4.6,0.7,6
		c0.6,0.3,1.2,0.1,1.5-0.3c1.2,0.7,2.6,1,3.9,1.8c1.4,0.8,2.2,1.5,3.8,1.6c3.2,0.2,7.8-1.1,10.5-2.7c0.6-0.3,0.8-0.9,0.8-1.4
		c0.1-0.1,0.1-0.1,0.2-0.2c1.1-1.4,1.8-2.7,2.2-4.4c0.2-0.7,0.3-1.5,0.3-2.3c0-1-0.6-1.9-0.7-2.9
		C1177.9,1398.6,1177.2,1398.5,1177,1399L1177,1399z"/>
	<path fill="#FFFFFF" d="M1173.5,1334c0.4-0.8-0.2-1.6-1.1-1.4s-1.8,0.9-2.6,1.2c-0.9,0.4-1.8,0.8-2.6,1.5l-0.1,0.1
		c-0.9,0.1-1.8,0.1-2.7,0.6c-0.4,0.3-0.7,0.4-1.1,0.6c-0.7,0.4-0.9,1.1-1.7,0.5c-0.9-0.7-2.1,0.4-1.3,1.3c0.7,0.7,1.5,1.5,2.5,1.5
		c0.4,0,0.7-0.2,1-0.3c0.1,0,0.1-0.1,0.1-0.1c0.1,0.1,0.3,0.2,0.4,0.3c2.3,1.5,6,1.7,8.1-0.2c1.5-1.4,0.9-3.4-0.4-4.4
		C1172.7,1334.9,1173.2,1334.6,1173.5,1334L1173.5,1334z"/>
	<path fill="#FFFFFF" d="M1142.5,1312c0.1,0.3,0.1,0.6,0.2,1c-0.6,0.9-0.3,2.2,0.5,2.9c0.1,1.6-0.1,2.7-1.5,3.9
		c-0.7,0.6-1.1,0.9-1.3,1.6c-1,0.9-0.9,2.5,0.5,3c1.1,0.3,2.2,0.7,3.3,1l-0.1,0.1c-0.6,0.7-1.4,1.4-1.6,2.4c-0.2,0.5-0.1,1,0.4,1.3
		c0.3,0.4,0.8,0.6,1.3,0.6c0.1,0.4,0.2,0.8,0.3,1.3c0.2,0.7,0.9,1.2,1.6,1.2h0.7l-0.1,0.1c-1.7,2.2-2.9,4.7-3,7.5
		c0,1.5,2.5,1.9,2.7,0.4c0.3-1.9,0.5-3.7,1.9-5.1c0.5-0.5,1-1.1,1.4-1.6c0.2-0.2,0.7-1.1,1-1.4c5-0.4,9.7-1.1,14.8-2.9
		c4.3-1.4,10.5-3.3,12.1-8c0.4-1-0.6-2.3-1.7-2.2c-0.7,0-0.8,0.4-1.4,0.7c-2.9,1.5-5.3,3.1-8.6,4.2c-5.9,1.9-12.5,4.3-18.8,5v-0.1
		c1.3-1,2.3-2.3,2.7-3.9c0.2-0.5,0.1-1-0.1-1.5c0-0.5-0.2-1-0.6-1.4c-1.1-1-2.2-0.8-3.5-1c0.9-1.1,1.2-2.6,1.3-4
		c0.1-1.8-0.3-3.6-0.7-5.3c-0.1-0.4-0.1-0.8-0.2-1.2c0.2-0.4,0.3-0.9,0.4-1.4c0.2-0.1,0.3-0.3,0.5-0.5c0.7-0.9,0.5-1.5,0.7-2.5
		c0-0.2,0-0.3-0.1-0.4c0.3-0.3,0.6-0.7,0.7-1.2c0.8-2.3-0.9-4.3-1.3-6.4c-0.5-2.3-2.3-4.6-4.4-4.1c0.2-0.9,0.2-1.9,0.1-2.8
		c1-1.3,1.1-3.3-0.8-4.3c0.4-0.6,0.7-1.2,1.2-2c2.1-3.4,6-4.3,9.6-5.4c7.2-2.1,14.5-3.2,21.5-5.9c1.5-0.6,1.4-3-0.4-2.9
		c-8.3,0.4-16.9,2.3-24.9,4.4c-2.8,0.8-6.3,1.9-8.5,3.9c-1.7,1.5-1.7,3.7-2.5,5.4c-2.6-0.5-4,3.2-2.3,5c0.6,0.6,1.1,1.1,1.7,1.5
		c0,0.5-0.1,1-0.3,1.5c-0.7,2.1-3.5,4.5-5.7,4.6c-2.3,0-3.9,3.1-2,4.8c1.9,1.6,3.9,3.2,6.2,4.2c1.4,0.6,2.8,0.8,4.3,0.9
		C1140,1309.2,1140.7,1311.1,1142.5,1312L1142.5,1312z"/>
	<path fill="#FFFFFF" d="M1151,1265.4c1.7-0.5,3.3-1.2,5.2-1.3h1c0.6,0.6,1.4,0.8,2.3,0.6c0.2,0.1,0.4,0.2,0.7,0.2h0.8
		c1.6,0,3-2.2,2.3-3.7c0.4-0.6,0.5-1.4,0.4-2.1c-0.2-1.3-1.2-1.8-2.2-2.3c-0.2-0.1-0.2-0.1,0,0c-0.1-0.1-0.2-0.1-0.3-0.2
		c-0.1-0.1-0.2-0.1-0.2-0.2l-0.1-0.1c0,0,0-0.1-0.1-0.1c-0.2-0.3-0.5-0.6-0.7-0.9c-0.5-0.5-1.1-0.9-1.9-0.8
		c-0.9,0.1-1.5,0.7-1.6,1.6c-0.1,1,0,2.1,0.4,3c0.1,0.3,0.3,0.6,0.5,0.9c-0.8,0.5-1.2,1.2-1.2,1.9c-0.6,0.1-1.3,0.4-1.9,0.6
		c-1.6,0.5-3,1-3.8,2.5C1150.4,1265.1,1150.7,1265.5,1151,1265.4L1151,1265.4z"/>
	<path fill="#FFFFFF" d="M1024.3,1297.7c2-0.1,3.7-0.5,5.7-0.1c2.7,0.4,5.3,0.1,8-0.6c1.5-0.4,1.5-2.7,0-3.1s-2.6-0.2-4.1,0
		c-0.4,0-0.7,0.1-1.1,0.1c0,0,0-0.1,0.1-0.1c0.1-0.1,0.1-0.2,0.2-0.3c0.4-0.5,0.5-1.2,0.3-1.7c-0.1-0.8-0.4-1.6-1.1-2.1
		c-0.2-0.2-0.5-0.3-0.8-0.4c-0.6-0.4-1.4-0.6-2.1-0.5c-1.6,0.1-3.2,1-4,2.3c-0.5,0.7-0.8,1.6-0.5,2.4c0.1,0.4,0.3,0.7,0.5,0.9
		c-1.4,0.5-2.7,1.3-3.1,2.6c-0.1,0.1,0,0.3,0.2,0.4C1023,1297.8,1023.3,1297.8,1024.3,1297.7L1024.3,1297.7z"/>
	<path fill="#A8BCF7" d="M963.8,1169.6c-1-0.7-2.6-0.4-3.6,1.5c-0.9,1.9-0.9,7,0,12.5s1.7,6.2,2.7,7.4s1.9-3,0.2-6.8
		c-1.7-3.9-2-10.3-1.3-12.1S963.8,1169.6,963.8,1169.6L963.8,1169.6z"/>
</g>
</svg>
