<?xml version="1.0" encoding="utf-8"?>
<!-- Generator: Adobe Illustrator 21.0.2, SVG Export Plug-In . SVG Version: 6.00 Build 0)  -->
<svg version="1.1" id="Layer_1" xmlns="http://www.w3.org/2000/svg" xmlns:xlink="http://www.w3.org/1999/xlink" x="0px" y="0px"
	 viewBox="0 0 2000 2000" enable-background="new 0 0 2000 2000" xml:space="preserve">
<g>
	<path fill="#152B67" d="M1204.1,1504.1c4.5-11.7,5.3-17.5,3.7-19.9c-0.3-0.5-0.8-0.8-1.3-1.1c-3.1-1.4-9.6-2.9-15.3-7.9l-0.1-0.1
		c0,0,2.2-7.3,4.1-11.2c1.8-3.9-1.1-3.6-5.2-11.5c-4.2-7.9-6.3-31-5-47.1s-0.4-29.4-5-45.3c-2.3-8-3.2-18.5-3.3-29.6
		c-0.2-11.1,0.4-22.6,1-32.7c1.2-20.1,5.2-30,5.3-35.1c0-0.9,0-1.7-0.1-2.4c-0.4-3.1-2-3.9-4.5-3.9c-3.1,0-11.7,0-11.7,0
		s-0.2-0.2-0.4-0.5c-0.5-0.6-1.3-2-2-4.3c-1.2-3.6-2-9.5-0.8-18.8c0.8-6.2,1.6-10.4,2.2-13.4c0.1-0.6,0.2-1.1,0.3-1.5
		c0.7-4.6,0.5-5.8-2.1-7.6c-1.1-0.8-2.1-1.3-3.1-1.8c-2.8-1.4-4.9-1.7-4.9-1.7s0-0.4,0-1.1c-0.1-3.6-0.7-15.4-1.4-23.7
		c-0.4-4.2-2-7.9-3.8-10.9c-1-1.6-2-3-2.9-4.1c-1.3-1.7-2.4-2.6-2.4-2.6s2-10.1,2.9-14.6s-0.4-5.5-4.2-7.9c-3-1.9-12.9-6.4-17.3-8.3
		c-0.8-0.4-1.4-0.6-1.8-0.8c-0.2-0.1-0.4-0.2-0.4-0.2s0.1-10.4-6.4-12.5c-5.9-1.9-13.7-4-13.2,4.8c0,0.8,0.2,1.6,0.3,2.6
		c0,0-0.3-0.1-0.7-0.2c-0.6-0.1-1.6-0.4-2.6-0.5c-1.2-0.2-2.5-0.3-3.5-0.1c0,0,0-0.7,0.1-1.7c0.1-1.8,0-4.4-0.5-5.2
		c-0.8-1.2-8.5-0.9-23,0.1c-13.1,1-43.4,4.4-49.5,5.1c-0.7,0.1-1.1,0.1-1.1,0.1s-0.3-1.8-1.1-3.6c-1.3-2.8-3.9-5.9-8.8-3.2
		c-3.3,1.8-4.8,3.9-5.4,5.6c-0.9,2.5,0.1,4.4,0.1,4.4s-0.9,0.2-2.4,0.7c-6.1,1.6-22,5.9-28.9,8.1c-8.1,2.6-10.9,3.2-11.2,3.3
		s-0.2-2.2-1.6-3.8c-0.9-1.2-2.4-2.1-4.8-1.7c-4.1,0.6-6.4,2-7.7,5.7c-0.5,1.5-0.8,3.3-1,5.7c0,0-6.6,2.7-9.2,3.8s-1.7,3.6-1.7,8.7
		c-0.1,5.1,0.6,21.1,0.6,21.1s-5.8,3.6-8.2,5.9s-3.4,11.1-3.4,21.5c-0.1,10.4,1.2,24.5,1.2,24.5s-5.5,22.2-6.7,27.6
		c0,0-4.7-0.1-10.9,0.2c-0.3,0-0.7,0-1,0.1c-4.7,0.3-5.9,0.2-6.4,2c-0.2,0.7-0.3,1.8-0.5,3.4c-0.6,5.2,1.7,35.3,1.7,35.3
		s28.7,22.5,51.6,44.4c4.8,4.6,9.4,9.2,13.4,13.6c22.9,24.9,32.5,48.5,33.1,69.9c0.3,11-1.6,22.5-6.2,34.2
		c-4.3,11-11,22.1-20.4,33.2c-15.7,18.4-33.5,32.4-46.1,39.8c-3.1,1.8-5.8,3.2-8.1,4.2c-11.8,5-26.4,17.6-56.3,19.7
		s-49.4-1.6-49.4-1.6s-3.8,5.5,0,9.8s32.4,15.3,62,17c0,0-1.7,4.9,0.9,8.4c2.6,3.4,29.5,27.6,83.5,31.2s100.9-8.6,116.5-18.2
		c15.6-9.5,16.5-10.7,17-18.1s-2.2-19.6-2.2-19.6s7.7,5.7,42.9,3.6c35.2-2.2,48.4-9.7,52.3-12.9s1.5-4.8,0.9-10.7
		c-0.6-5.8-2.9-24.4-2.9-24.4S1198.7,1518.1,1204.1,1504.1L1204.1,1504.1z"/>
	<path fill="#93AAED" d="M868.4,1558.9c-29.9,2.1-49.4-1.6-49.4-1.6s-3.8,5.5,0,9.8s32.4,15.3,62,17c0,0-1.7,5,0.9,8.4
		s29.5,27.6,83.5,31.2s100.9-8.6,116.5-18.2c15.6-9.5,16.5-10.7,17-18.1s-2.2-19.6-2.2-19.6s7.7,5.7,42.9,3.6
		c35.2-2.2,48.4-9.7,52.3-12.9s1.5-4.8,0.9-10.7s-2.9-24.4-2.9-24.4s8.7-5.3,14.1-19.4s5.5-19.6,2.4-21s-9.7-2.9-15.4-8
		c-5.6,10.8-5.8,14.7-8.9,16.9c-3.1,2.1-20.9,10.1-46.4,15.8s-41.9,6.7-41.9,6.7s-6.4-5.9-11.9-8.8c-5.4-2.8-10.1-3.9-9.9-1.9
		s-1.2,6.3-6.8,16.5s-5.6,17.8-9.7,18.1s-53.4,6.5-92.7,0.9c-13.2-1.9-22.9-3.3-30.1-4.4c-3.1,1.8-5.8,3.2-8.2,4.2
		C912.8,1544.2,898.3,1556.8,868.4,1558.9z"/>
	<g>
		<path fill="#979CA6" d="M978.8,1227.2L978.8,1227.2C978.9,1227.3,978.9,1227.2,978.8,1227.2z"/>
		<path fill="#979CA6" d="M1094.1,1232.1C1094,1232.1,1094,1232.1,1094.1,1232.1z"/>
		<path fill="#979CA6" d="M957.2,1171.9C957.2,1171.8,957.2,1171.8,957.2,1171.9z"/>
		<path fill="#979CA6" d="M945.8,1221.2C945.8,1221.1,945.8,1221.1,945.8,1221.2z"/>
		<path fill="#979CA6" d="M1095.5,1152C1095.5,1151.9,1095.5,1151.9,1095.5,1152C1095.5,1152,1095.5,1152,1095.5,1152z"/>
		<path fill="#979CA6" d="M1144.8,1228.3C1144.9,1228.2,1144.9,1228.2,1144.8,1228.3z"/>
		<path fill="#979CA6" d="M1032.3,1150.4c-0.5-0.5-1.3-0.6-1.9-0.2c-0.7,0.4-1.2,1.3-0.7,2.1c0.2,0.3,0.4,0.5,0.7,0.7
			c0.6,0.3,1.4,0.3,1.9-0.2l0.1-0.1C1033,1152,1033,1151,1032.3,1150.4C1032.4,1150.4,1032.4,1150.4,1032.3,1150.4z"/>
		<path fill="#979CA6" d="M1041.9,1148.9c-0.7,0-1,0.4-1.4,0.9c-0.6,0.7,0,1.8,0.9,1.6c0.6-0.2,1.1-0.2,1.5-0.8
			C1043.2,1149.8,1042.8,1148.9,1041.9,1148.9z"/>
		<path fill="#979CA6" d="M1051.3,1147.9c-0.4-0.1-0.8-0.1-1.2,0.1c-0.2,0.1-0.2,0.1-0.4,0.2c-0.6,0.1-1,0.9-1,1.5
			c0.1,0.7,0.6,1.1,1.3,1.2c0.9,0,2-0.3,2.1-1.3C1052.3,1148.8,1052,1148,1051.3,1147.9L1051.3,1147.9z"/>
		<path fill="#979CA6" d="M1061.1,1148c-0.2,0.2-0.5,0.3-0.7,0.5c-1.1,0.7-0.4,2.4,0.9,2.1c0.3-0.1,0.6-0.2,0.8-0.2
			c1-0.1,1.7-1,1.3-1.9C1063,1147.5,1061.9,1147.3,1061.1,1148L1061.1,1148z"/>
		<path fill="#979CA6" d="M1073.2,1148.4c-0.4-0.1-0.7,0-1.1,0c-1.3,0.2-1.2,2.3,0,2.5c0.8,0.2,1.3,0,1.8-0.7
			C1074.4,1149.6,1073.9,1148.5,1073.2,1148.4L1073.2,1148.4z"/>
		<path fill="#979CA6" d="M1083.5,1150.2c-0.1-0.1-0.2-0.1-0.4-0.2c-0.1,0-0.1,0-0.2,0c-0.5-0.2-1-0.2-1.4,0.2s-0.5,1.2,0,1.7
			c0.8,0.7,2.1,0.7,2.5-0.5C1084.1,1150.9,1083.9,1150.4,1083.5,1150.2z"/>
		<path fill="#979CA6" d="M1092.9,1154.3c0.3-0.4,0.5-0.9,0.3-1.4c-0.1-0.4-0.4-0.6-0.9-0.7c-0.5,0-0.9,0.3-1.3,0.7
			c-0.5,0.5-0.5,1.3,0.1,1.7C1091.7,1155.1,1092.5,1154.9,1092.9,1154.3L1092.9,1154.3z"/>
		<path fill="#979CA6" d="M1095.3,1153.1c0.1,0.1,0.2,0.2,0.2,0.3c0,0,0.1,0.1,0.2,0.2c-0.1-0.1,0.3,0.2,0.3,0.2
			c0.1,0.1,0.3,0.1,0.5,0.2c0.8,0.2,1.7-0.3,1.9-1.1v-0.1c0.3-0.9-0.5-2-1.4-1.9h-0.1c-0.5,0-0.8,0.2-1.1,0.5
			C1095.3,1151.7,1094.9,1152.5,1095.3,1153.1L1095.3,1153.1z M1095.5,1152L1095.5,1152L1095.5,1152z"/>
		<path fill="#979CA6" d="M1093.4,1144.4c0.7,0,1.4-0.6,1.4-1.4c0-0.6,0.1-1.1-0.1-1.7c-0.3-0.8-1.2-1.1-1.9-0.5
			c-0.6,0.5-0.8,1.4-0.8,2.2S1092.7,1144.4,1093.4,1144.4z"/>
		<path fill="#979CA6" d="M1095.1,1136.4c0.1-0.2,0.2-0.3,0.2-0.4c0.4-0.7,0-1.6-0.7-1.8c-0.8-0.2-1.5,0.4-1.5,1.2v0.5
			C1092.9,1136.9,1094.6,1137.4,1095.1,1136.4L1095.1,1136.4z"/>
		<path fill="#979CA6" d="M1094.3,1129.4c-1.1,0-1.1,1.8,0,1.8S1095.4,1129.4,1094.3,1129.4z"/>
		<path fill="#979CA6" d="M1094.9,1125.6c0.1-0.2,0-0.4,0-0.6c-0.1-0.4-0.5-0.6-0.9-0.5c-0.7-0.1-1.1,0.8-0.7,1.3
			C1093.9,1126.4,1094.7,1126.3,1094.9,1125.6L1094.9,1125.6z"/>
		<path fill="#979CA6" d="M1092.6,1121.7c0.3-1-0.9-2.1-1.8-1.4c-0.4,0.3-0.6,0.6-0.8,1c-0.3,0.8,0.4,1.5,1.1,1.5
			C1091.8,1122.9,1092.4,1122.4,1092.6,1121.7L1092.6,1121.7z"/>
		<path fill="#979CA6" d="M1085.3,1122.7c0.2,0.2,0.6,0.3,0.9,0.2c0.9-0.3,1-1.7,0-1.9C1085.2,1120.7,1084.6,1121.9,1085.3,1122.7
			C1085.2,1122.6,1085.3,1122.7,1085.3,1122.7L1085.3,1122.7z"/>
		<path fill="#979CA6" d="M1077.9,1122.8c0.8,0,0.8-1.2,0-1.2C1077.1,1121.5,1077.1,1122.8,1077.9,1122.8z"/>
		<path fill="#979CA6" d="M1062.7,1122.3c-0.1,0.2-0.3,0.3-0.4,0.5c-0.4,0.8,0,1.9,1.1,1.9h-0.1c1,0.2,2-0.6,1.7-1.7
			C1064.8,1122,1063.4,1121.4,1062.7,1122.3L1062.7,1122.3z"/>
		<path fill="#979CA6" d="M1051.7,1123c-0.7,0.4-0.9,1-0.7,1.8c0.1,0.3,0.3,0.5,0.6,0.6c0.7,0.2,1.3,0,1.8-0.5s0.6-1.3,0.1-1.8
			S1052.2,1122.6,1051.7,1123z"/>
		<path fill="#979CA6" d="M1040.7,1124.6c-0.1,0.2-0.2,0.3-0.3,0.5c-0.4,0.6-0.2,1.4,0.4,1.8s1.3,0.3,1.8-0.1c0,0.1,0,0,0.1-0.1
			c0.8-0.5,1-1.6,0.3-2.3S1041.1,1123.8,1040.7,1124.6z"/>
		<path fill="#979CA6" d="M1030.1,1126.7c-0.2-0.4-0.4-0.8-0.8-0.9c-0.2-0.1-0.4-0.1-0.6-0.1c0,0,0,0-0.1,0
			c-0.6-0.2-1.4,0.1-1.7,0.7c-0.3,0.5-0.3,1.4,0.2,1.8c0.7,0.6,1.9,0.8,2.6,0C1030.1,1127.7,1030.3,1127.2,1030.1,1126.7z"/>
		<path fill="#979CA6" d="M1016.3,1123c0.3-0.3,0.4-0.6,0.6-1c0.3-0.5,0.5-0.9,0.3-1.5c-0.2-0.7-0.8-0.9-1.5-0.8
			c-1.1,0.1-1.6,1.9-1.3,2.8C1014.7,1123.3,1015.7,1123.7,1016.3,1123z"/>
		<path fill="#979CA6" d="M1014.3,1126.5c0-0.2-0.1-0.3-0.2-0.4c-0.5-0.8-1.9-0.3-1.6,0.7C1012.5,1128,1014.5,1127.8,1014.3,1126.5
			L1014.3,1126.5z"/>
		<path fill="#979CA6" d="M1015.3,1132.4c0-0.5-0.2-0.8-0.4-1.2c-0.3-0.7-1.2-0.3-1.4,0.3c0,0-0.1,0.1-0.2,0.2s-0.1,0.3-0.2,0.4
			c-0.2,0.6,0.3,1.3,0.9,1.4C1014.7,1133.6,1015.4,1133.1,1015.3,1132.4L1015.3,1132.4z"/>
		<path fill="#979CA6" d="M1015.6,1145.2c-0.1-0.3-0.2-0.6-0.3-0.9c-0.3-0.8-1.4-0.7-1.5,0.2c0,0.3-0.1,0.6-0.1,0.9
			c-0.1,0.6,0.6,1.1,1.1,1S1015.8,1145.7,1015.6,1145.2z"/>
		<path fill="#979CA6" d="M1017.1,1151.4c-0.1-0.4-0.3-0.7-0.6-0.9c-0.6-0.7-1.8,0-1.6,0.9c0.1,0.2,0,0.1,0,0.3c0,0.6,0.6,1.1,1.2,1
			C1016.8,1152.6,1017.3,1152,1017.1,1151.4L1017.1,1151.4z"/>
		<path fill="#979CA6" d="M1017.9,1155c-1.1-1-2.1,1.1-0.8,1.4c0.1,0,0.2,0.1,0.3,0.1c0.7,0.2,1.4-0.8,0.8-1.3
			C1018.1,1155.1,1018,1155.1,1017.9,1155z"/>
		<path fill="#979CA6" d="M969.7,1165.7c-0.1,0.1-0.2,0.2-0.3,0.4c0.1-0.1,0.1-0.1,0,0s-0.2,0.2-0.3,0.2c-0.4,0.4-0.5,1.1,0,1.5
			c0.9,0.9,2.4,0.3,2.7-0.8C972.3,1165.7,970.7,1164.8,969.7,1165.7L969.7,1165.7z"/>
		<path fill="#979CA6" d="M979.5,1162.6c-0.3,0.8,0.6,1.6,1.4,1.4c0.5-0.1,1-0.4,1.5-0.6c0.5-0.3,1.1-0.4,1.5-0.8
			c0.8-0.9,0.3-2.5-1-2.5c-0.8,0-1.5,0.5-2.1,1C980.1,1161.4,979.8,1162,979.5,1162.6L979.5,1162.6z"/>
		<path fill="#979CA6" d="M992.3,1157.4c-0.6,0.1-1.1,0.6-1.5,1c-0.4,0.3-0.9,0.7-1.1,1.2c-0.5,1.1,0.3,2.1,1.5,1.9
			c0.5-0.1,1-0.4,1.4-0.7s0.9-0.6,1.2-0.9c0.4-0.5,0.6-1.2,0.2-1.8C993.7,1157.5,993,1157.3,992.3,1157.4L992.3,1157.4z"/>
		<path fill="#979CA6" d="M999.8,1156.3c-0.8,0.5-0.5,1.7,0.5,1.7c0.5,0,1.1-0.2,1.5-0.5c0.3-0.3,0.5-0.9,0.3-1.3
			C1001.6,1155.3,1000.4,1156,999.8,1156.3L999.8,1156.3z"/>
		<path fill="#979CA6" d="M1008.5,1154.7c-0.1,0-0.2,0.1-0.3,0.1c-0.2,0.2-0.3,0.2-0.2,0.1c-0.2,0.1-0.1,0.1-0.3,0.1
			c-0.5,0.1-0.8,0.7-0.8,1.2c0.1,0.6,0.5,0.9,1.1,0.9c1,0.1,2-0.8,1.8-1.8C1009.6,1154.8,1009,1154.6,1008.5,1154.7L1008.5,1154.7z"
			/>
		<path fill="#979CA6" d="M1000,1133.5c-0.4-0.7-1.4-1-2-0.5c-0.4,0.3-0.7,0.6-1.1,1c-0.6,0.8,0.2,2.1,1.1,2c0.5,0,0.9-0.2,1.4-0.4
			C1000.2,1135.2,1000.4,1134.1,1000,1133.5z"/>
		<path fill="#979CA6" d="M1006.4,1130.5C1006.4,1130.5,1006.3,1130.4,1006.4,1130.5c-0.6-0.2-1.1-0.2-1.4,0.3
			c-0.3,0.4-0.1,1.1,0.3,1.3h0.1c0.5,0.2,1,0.1,1.3-0.3S1006.9,1130.7,1006.4,1130.5L1006.4,1130.5z"/>
		<path fill="#979CA6" d="M986.8,1136.1c-0.3,0.4-0.6,0.7-0.5,1.1c0,0.4,0.3,0.8,0.7,0.9c0.5,0.1,0.8,0,1.2-0.2
			c0.6-0.3,0.7-1.2,0.3-1.7C988.2,1135.7,987.3,1135.6,986.8,1136.1L986.8,1136.1z"/>
		<path fill="#979CA6" d="M980.6,1139.1c-0.2-0.8-1-1.1-1.8-1c-1.4,0.2-2.6,1.1-2.8,2.5c-0.1,0.5,0.4,0.9,0.9,0.9
			c1,0,1.7-0.4,2.6-0.6S980.8,1139.8,980.6,1139.1z"/>
		<path fill="#979CA6" d="M966.6,1146.1c0.8,0.1,1.7-0.4,2.3-0.9c0.9-0.6,1.7-1.4,2.1-2.3c0.2-0.6-0.1-1.3-0.6-1.6
			c-0.5-0.4-1.1-0.4-1.7-0.1c-0.8,0.3-1.5,1.3-1.9,2.1c-0.4,0.6-0.9,1.6-0.7,2.3C966.1,1145.7,966.4,1146,966.6,1146.1L966.6,1146.1
			z"/>
		<path fill="#979CA6" d="M1102.4,1129c-0.1,0-0.2,0-0.3,0c-0.2-0.1-0.3-0.2-0.5-0.3c-0.5-0.1-0.9,0.1-1.2,0.5
			c-0.6,0.8-0.6,2,0.2,2.7c1,0.9,2.6,0.4,2.9-0.9C1103.6,1130.1,1103.2,1129.2,1102.4,1129L1102.4,1129z"/>
		<path fill="#979CA6" d="M1113.2,1123.8c0.1-0.5-0.1-1-0.5-1.3c0-0.1-0.1-0.1-0.1-0.2c-0.2-0.3-0.5-0.5-0.9-0.6
			c-0.9-0.3-1.9,0.7-1.6,1.6v0.1c0,0.4,0.1,0.7,0.3,1c0.3,0.4,0.8,0.7,1.4,0.7C1112.5,1124.9,1113.1,1124.5,1113.2,1123.8
			L1113.2,1123.8z"/>
		<path fill="#979CA6" d="M1113.5,1130.2c-0.3-0.2-0.6,0-0.8,0.2c-0.6,0.9-0.4,2.1-0.6,3.1c-0.1,0.9,0,2.1,1.1,2.1
			c1.4,0,1.5-1.8,1.4-2.7C1114.6,1131.8,1114.4,1130.8,1113.5,1130.2z"/>
		<path fill="#979CA6" d="M1112.4,1143.5c-0.4,0.6-0.4,1.2-0.2,1.8c0.3,0.6,1.2,0.6,1.6,0.2c0.6-0.6,0.6-1.6,0-2.2
			C1113.4,1142.8,1112.8,1143,1112.4,1143.5z"/>
		<path fill="#979CA6" d="M1112.6,1147.3c-0.4,0.6,0,1.5,0.7,1.3c0.2,0,0.4-0.3,0.5-0.5c0.1-0.4,0-0.7-0.2-1
			C1113.3,1146.8,1112.8,1147,1112.6,1147.3z"/>
		<path fill="#979CA6" d="M1113.2,1154.7c-0.2-0.6-0.8-0.7-1.2-0.3c-0.2,0.2-0.4,0.4-0.5,0.6c-0.2,0.2-0.4,0.6-0.5,1
			c-0.1,0.6,0.1,1.2,0.7,1.4c0.7,0.3,1.4-0.1,1.6-0.8c0.1-0.4,0.2-0.7,0.1-1.1C1113.3,1155.2,1113.3,1154.9,1113.2,1154.7
			L1113.2,1154.7z"/>
		<path fill="#979CA6" d="M1119.2,1152.2c-0.4,0.5-0.5,0.9-0.4,1.5c0.3,1,1.7,0.9,2,0c0.2-0.4,0.1-0.9-0.2-1.3
			C1120.4,1151.9,1119.6,1151.7,1119.2,1152.2z"/>
		<path fill="#979CA6" d="M1121,1144.3c-0.5-0.3-1-0.2-1.4,0.2c-0.6,0.5-0.9,1.1-1.2,1.9c-0.2,0.7,0.3,1.5,1,1.7s1.6-0.2,1.7-1
			c0.1-0.5,0.2-1,0.4-1.5S1121.4,1144.6,1121,1144.3L1121,1144.3z"/>
		<path fill="#979CA6" d="M1121,1138.3c-0.1,0.1-0.4,0.3-0.4,0.3c-0.2,0.2-0.3,0.4-0.5,0.6c-0.8,1.2,1.1,2.3,1.9,1.1
			c0.4-0.6,0.3-1.1,0.2-1.7C1122.2,1138,1121.4,1137.8,1121,1138.3z"/>
		<path fill="#979CA6" d="M1121.9,1131.4c-0.5-0.9-2-0.5-1.9,0.5c0,0.6,0.2,1.2,0.6,1.6s1.1,0.5,1.5,0.1c0.4-0.3,0.7-1,0.3-1.5
			C1122.3,1131.9,1122,1131.7,1121.9,1131.4z"/>
		<path fill="#979CA6" d="M1121.7,1125.9c0.2-0.8-0.2-1.6-1-1.7c-0.3,0-0.7,0.1-0.9,0.2c-0.8,0-1.3,0.7-1.1,1.5
			C1119,1127.4,1121.4,1127.4,1121.7,1125.9z"/>
		<path fill="#979CA6" d="M1117,1120.8c-0.1,0-0.2,0-0.3,0h-0.1c-0.1,0-0.2,0-0.4,0c-0.1,0-0.4,0-0.5,0c-0.2,0-0.3,0-0.5,0.1
			c-0.5,0.2-0.7,0.5-0.7,1c-0.1,1.3,1.8,2.1,2.9,1.7c0.6-0.3,1.1-0.8,1-1.5C1118.3,1121.3,1117.7,1120.8,1117,1120.8L1117,1120.8z"
			/>
		<path fill="#979CA6" d="M1133.1,1139.9c0.9-0.2,1-1.3,0.5-1.9s-1.4-0.7-2.1-0.7c-0.9,0-1.2,1.1-0.7,1.7
			C1131.4,1139.6,1132.2,1140,1133.1,1139.9L1133.1,1139.9z"/>
		<path fill="#979CA6" d="M1139,1142.9c0.6-0.4,0.8-1.2,0.2-1.7c-0.4-0.4-0.9-0.5-1.5-0.6c-0.9-0.2-1.7,0.7-1.2,1.6
			C1137,1142.9,1138.2,1143.4,1139,1142.9z"/>
		<path fill="#979CA6" d="M1143.1,1146.1c0.7,0.2,1.4-0.2,1.6-0.9c0.2-0.6-0.2-1.5-0.9-1.6c-0.5-0.1-1-0.1-1.4,0.2
			c-0.5,0.3-0.7,1-0.4,1.5C1142.2,1145.7,1142.6,1145.9,1143.1,1146.1L1143.1,1146.1z"/>
		<path fill="#979CA6" d="M1146,1147.3c0.4,0,0.6-0.1,0.9-0.2c1-0.5,0.5-2.1-0.6-2.1c-0.3,0-0.6,0.1-0.9,0.2
			C1144.5,1145.8,1145,1147.2,1146,1147.3z"/>
		<path fill="#979CA6" d="M1145.6,1159c0.4-0.7,0.1-1.6-0.5-2c-0.5-0.3-1-0.2-1.5,0c-0.6,0.2-1,0.8-1,1.4c0,0.8,0.7,1.5,1.5,1.5
			C1144.7,1159.8,1145.2,1159.6,1145.6,1159z"/>
		<path fill="#979CA6" d="M1138.2,1156.1C1138.2,1156.1,1138.1,1156.2,1138.2,1156.1c-0.5,0.5-0.1,1.5,0.6,1.2h0.1
			C1140,1156.9,1139,1155.3,1138.2,1156.1z"/>
		<path fill="#979CA6" d="M1133.8,1157.5c0.8,0.2,1.7-0.2,2-1c0.1-0.4-0.1-0.9-0.5-1c-0.4-0.2-0.8,0-1.1,0.4
			c-0.1,0.1-0.1,0.2-0.2,0.2C1133.2,1156.1,1132.9,1157.3,1133.8,1157.5L1133.8,1157.5z"/>
		<path fill="#979CA6" d="M1129.6,1155.9c0.5-0.8-0.1-2.2-1.2-2c-0.4,0.1-0.8,0.2-1.3,0.3c-1.1,0.4-1.2,1.8-0.3,2.4
			C1127.8,1157.2,1129.1,1156.8,1129.6,1155.9L1129.6,1155.9z"/>
		<path fill="#979CA6" d="M959.9,1137.2c1,0,1-1.6,0-1.6S958.9,1137.2,959.9,1137.2z"/>
		<path fill="#979CA6" d="M955.9,1141.7c0.5,0,1.1-0.1,1.6-0.3c0.9-0.5,1.1-1.8,0.5-2.6s-1.9-1-2.6-0.2c-0.1,0.1-0.2,0.2-0.3,0.4
			c-0.5,0.4-0.8,1-0.6,1.6C954.6,1141.2,955.2,1141.6,955.9,1141.7L955.9,1141.7z"/>
		<path fill="#979CA6" d="M955.6,1145.5c0.1-0.1,0.3-0.3,0.4-0.4c0.5-0.6,0.4-1.5-0.2-1.9c-0.7-0.4-1.6,0-1.8,0.7
			c-0.1,0.2-0.1,0.4-0.1,0.5C953.6,1145.5,954.8,1146.3,955.6,1145.5L955.6,1145.5z"/>
		<path fill="#979CA6" d="M954.7,1153.9c0.7-0.1,1.3-0.7,1.2-1.4c-0.1-0.8-0.3-1.7-1-2.3c-0.5-0.4-1.4-0.5-1.8,0.2
			c-0.3,0.8-0.4,1.6-0.1,2.4C953.4,1153.6,954,1154.1,954.7,1153.9L954.7,1153.9z"/>
		<path fill="#979CA6" d="M955.7,1157.2L955.7,1157.2c0.1,1,1.6,0.5,1.2-0.4c0,0,0-0.1-0.1-0.1
			C956.4,1156.1,955.6,1156.6,955.7,1157.2L955.7,1157.2z"/>
		<path fill="#979CA6" d="M956.8,1165.3C956.8,1165.2,956.8,1165.2,956.8,1165.3c-0.5-0.8-1.7-0.3-1.4,0.5v0.1
			C955.9,1166.8,957.3,1166.2,956.8,1165.3z"/>
		<path fill="#979CA6" d="M958.5,1168.9c-0.1-0.7-0.8-1.6-1.6-1c-0.4,0.4-0.4,1-0.2,1.5C957.2,1170.5,958.7,1170.1,958.5,1168.9z"/>
		<path fill="#979CA6" d="M959,1172.7c0-0.2,0.1-0.3,0-0.5c0-0.4-0.3-0.8-0.7-0.9l-0.4-0.1c-0.2,0-0.3,0-0.5,0.1s-0.4,0.4-0.4,0.7
			v0.1c0,0.1,0,0.2,0.1,0.2c0,0.5,0.2,0.9,0.7,1.1S958.9,1173.3,959,1172.7L959,1172.7z M957.2,1171.9
			C957.2,1171.8,957.2,1171.8,957.2,1171.9z"/>
		<path fill="#979CA6" d="M953.9,1173.8c-0.2-0.7-1.1-0.9-1.6-0.4c-0.3,0.3-0.4,0.7-0.3,1.1c0.1,0.3,0.4,0.4,0.7,0.5
			C953.4,1175.2,954.1,1174.5,953.9,1173.8L953.9,1173.8z"/>
		<path fill="#979CA6" d="M947.1,1176.8c0.6,0,1.1-0.3,1.5-0.8c0.5-0.6,0.5-1.5-0.1-2s-1.6-0.3-2,0.4c-0.1,0.2-0.3,0.3-0.4,0.6
			C945.8,1175.8,946.1,1176.8,947.1,1176.8z"/>
		<path fill="#979CA6" d="M943.9,1153.5C944,1153.5,944,1153.5,943.9,1153.5h0.2h0.5c0.8-0.1,1.5-0.7,1.4-1.6
			c-0.1-0.8-0.9-1.4-1.7-1.2c-0.6,0.2-1,0.5-1.4,0.9C942,1152.5,942.9,1153.7,943.9,1153.5L943.9,1153.5z"/>
		<path fill="#979CA6" d="M986.1,1180.1c-0.4-0.1-0.8,0.1-1,0.4c-0.3,0.5-0.2,1.2-0.1,1.7c0.2,0.8,1.4,0.9,1.8,0.2
			C987.2,1181.6,987,1180.5,986.1,1180.1L986.1,1180.1z"/>
		<path fill="#979CA6" d="M986.3,1189.1c-0.5-1.3-2.3-0.2-1.4,0.8c0,0,0,0,0.1,0.1C985.5,1190.6,986.7,1190,986.3,1189.1
			C986.4,1189.2,986.4,1189.2,986.3,1189.1L986.3,1189.1z"/>
		<path fill="#979CA6" d="M984.9,1195.6c-0.4,0.3-0.4,0.8-0.1,1.2c0,0.1,0.1,0.1,0.1,0.2c0.1,0.2,0.3,0.4,0.5,0.4
			c0.7,0.1,1.1-0.8,0.9-1.4C986,1195.5,985.4,1195.3,984.9,1195.6L984.9,1195.6z"/>
		<path fill="#979CA6" d="M983.8,1209.5c-0.3-0.6-1.3-0.6-1.6,0c-0.3,0.5-0.5,1.1-0.5,1.7c0,0.9,0.9,1.5,1.7,1.3
			c0.7-0.2,1-0.7,0.9-1.3C984.3,1210.6,984.1,1210,983.8,1209.5L983.8,1209.5z"/>
		<path fill="#979CA6" d="M983.4,1203.1c-0.2,0.6-0.1,1.3,0.4,1.8c0.4,0.4,1.2,0.4,1.6,0c0.4-0.5,0.6-1.2,0.4-1.8
			C985.3,1202,983.8,1202,983.4,1203.1z"/>
		<path fill="#979CA6" d="M982,1217.6c-0.8,0.1-1.2,0.5-1.6,1.1c-0.5,0.7,0.1,2,1.1,1.9c0.5-0.1,0.9-0.2,1.3-0.6s0.6-1,0.4-1.5
			C983,1218.1,982.6,1217.6,982,1217.6z"/>
		<path fill="#979CA6" d="M978.7,1224.4c-0.6,0.4-0.9,1-0.9,1.7c-0.3,0.8,0.6,1.9,1.4,1.3c0.2,0,0.4-0.1,0.6-0.2
			c0.5-0.2,0.8-0.6,0.9-1.1C981.2,1224.8,979.7,1223.7,978.7,1224.4L978.7,1224.4z M978.8,1227.2h0.2
			C978.9,1227.3,978.8,1227.3,978.8,1227.2z"/>
		<path fill="#979CA6" d="M974.8,1231.7c-0.4,0.4-0.5,0.8-0.5,1.3c-0.1,0.7,0.8,1.3,1.4,1.1c0.5-0.2,0.8-0.4,1.1-0.8
			C977.5,1232,975.9,1230.8,974.8,1231.7z"/>
		<path fill="#979CA6" d="M971.3,1237.4c-0.7,0.2-0.9,0.8-1.5,1.1s-0.8,1.1-0.4,1.7s1.1,0.7,1.7,0.4c0.9-0.4,2-1.4,1.6-2.5
			C972.5,1237.6,971.9,1237.3,971.3,1237.4L971.3,1237.4z"/>
		<path fill="#979CA6" d="M966.1,1242.1c-0.6,0.1-1.2,0.2-1.6,0.8c-0.2,0.3-0.4,0.8-0.3,1.2c0,0.1-0.1,0.2-0.1,0.3
			c-0.1,0.7,0.7,1.3,1.2,0.8c0.4,0.1,0.8,0.1,1.1-0.1c0.7-0.3,1.2-0.9,1.1-1.7C967.5,1242.8,966.8,1242,966.1,1242.1L966.1,1242.1z"
			/>
		<path fill="#979CA6" d="M959.8,1248.4L959.8,1248.4c-1.3-0.1-1.5,1.5-0.7,2.1l0.1,0.1c0.6,0.4,1.5,0,1.7-0.7
			C961.1,1249.1,960.5,1248.4,959.8,1248.4L959.8,1248.4z"/>
		<path fill="#979CA6" d="M953.8,1252.5c-0.5,0.1-0.9,0.4-1.1,0.9c-0.2,0.3-0.2,0.8,0.1,1c0.5,0.4,1,0.5,1.6,0.4s1-0.9,0.8-1.5
			C955.1,1252.7,954.4,1252.4,953.8,1252.5L953.8,1252.5z"/>
		<path fill="#979CA6" d="M947.7,1256.8c-0.1,0-0.1,0-0.2,0c-0.2,0-1,0.1-0.4,0c-0.5,0-1.2,0.4-1.3,1c-0.1,0.8,0.1,1.6,0.9,2
			c0.6,0.3,1.6,0.3,2.2-0.1c0.6-0.5,1-1.2,0.6-1.9C949.2,1257,948.4,1256.5,947.7,1256.8z"/>
		<path fill="#979CA6" d="M941.8,1259.9c-0.4-0.1-0.8-0.2-1.2-0.2c-1,0.1-1.6,1.3-0.8,2.1c0.3,0.3,0.6,0.5,1,0.7
			c0.7,0.3,1.6,0.2,2-0.7C943.1,1260.9,942.6,1260.1,941.8,1259.9z"/>
		<path fill="#979CA6" d="M933.6,1261.9c-0.5,0-0.9,0.1-1.2,0.5c-0.2,0.3-0.4,0.7-0.3,1.1c0.1,0.6,0.6,0.9,1.1,1.1
			c0.8,0.3,1.6-0.4,1.7-1.1C935,1262.7,934.4,1261.8,933.6,1261.9z"/>
		<path fill="#979CA6" d="M927,1263.1c-0.4-0.2-1-0.2-1.4-0.1c-0.6,0.1-0.9,0.8-0.8,1.4c0.2,0.7,0.8,1.2,1.5,1.3s1.5-0.2,1.7-0.9
			C928.2,1263.9,927.7,1263.3,927,1263.1L927,1263.1z"/>
		<path fill="#979CA6" d="M921.2,1264.4c-0.7-0.1-1.6,0-2.3,0.2c-0.5,0.2-0.8,0.6-0.8,1s0.3,1,0.8,1c0.7,0.1,1.6,0.2,2.3-0.1
			c0.5-0.2,0.9-0.6,0.9-1.1C922,1265,921.7,1264.5,921.2,1264.4z"/>
		<path fill="#979CA6" d="M947.4,1237.7c0.5-0.4,0.6-1.1,0.4-1.7c0-0.6-0.2-1.3-0.7-1.8c-0.4-0.4-0.9-0.3-1.3,0
			c-0.6,0.6-0.8,1.7-0.8,2.5c0,0.5,0.3,1,0.8,1.3C946.5,1238.2,947,1238.1,947.4,1237.7z"/>
		<path fill="#979CA6" d="M946.6,1238.6c-0.1,0.4-0.2,0.9-0.2,1.4c0,1.3,2,1.3,2,0c0-0.6-0.1-1.1-0.4-1.6
			C947.7,1237.8,946.7,1238,946.6,1238.6L946.6,1238.6z"/>
		<path fill="#979CA6" d="M945.9,1229.6c0.8,0,1.4-0.8,1.2-1.6v-0.1c-0.3-1.1-2-1.1-2.3,0v0.1
			C944.5,1228.8,945.1,1229.6,945.9,1229.6z"/>
		<path fill="#979CA6" d="M945.3,1223.8c0.7-0.1,1.2-0.7,1.2-1.4c0-0.4,0-0.8-0.1-1.2c-0.2-0.7-1-1-1.6-0.7c-0.6,0.4-1,1.2-1,1.9
			C943.8,1223.2,944.4,1223.9,945.3,1223.8L945.3,1223.8z M945.8,1221.2C945.8,1221.1,945.8,1221.1,945.8,1221.2z"/>
		<path fill="#979CA6" d="M945.2,1216.4c0.4-0.3,0.5-0.8,0.4-1.3c0-0.1,0-0.1,0-0.2c-0.1-0.7-0.9-1-1.5-0.9c-0.7,0.2-1,0.9-0.9,1.5
			c0.1,0.4,0.3,0.7,0.7,0.9C944.4,1216.8,944.8,1216.7,945.2,1216.4z"/>
		<path fill="#979CA6" d="M949.2,1205.9c-0.5,0.3-1.1,0.9-1.2,1.5c-0.1,0.4,0,0.9,0.4,1.2c0.3,0.2,0.9,0.3,1.2,0.1
			c0.3-0.3,0.7-0.6,1-0.9C951.6,1206.8,950.3,1205.3,949.2,1205.9L949.2,1205.9z"/>
		<path fill="#979CA6" d="M953.8,1204.8c-0.5,0.4-0.8,0.8-1.1,1.4c-0.2,0.5-0.2,1.1,0.3,1.5c0.4,0.3,1.1,0.3,1.5-0.1
			c0.3-0.3,0.6-0.5,0.9-0.8c0.4-0.4,0.5-1.2,0.1-1.6C955,1204.6,954.3,1204.4,953.8,1204.8z"/>
		<path fill="#979CA6" d="M959.3,1203.9c-0.2,0.1-0.4,0.3-0.6,0.4c-0.5,0.4,0.4,1.1,0.7,0.5c0.1-0.2,0.2-0.4,0.3-0.7
			C959.7,1203.9,959.4,1203.7,959.3,1203.9L959.3,1203.9z"/>
		<path fill="#979CA6" d="M961.6,1201.2c-0.1,0.2-0.2,0.4-0.3,0.6c-0.5,0.8,0.5,1.9,1.3,1.3c0.2-0.1,0.4-0.3,0.6-0.4
			c0.7-0.3,0.7-1.3,0.2-1.8S961.9,1200.5,961.6,1201.2z"/>
		<path fill="#979CA6" d="M968.3,1204.6c-0.5,0.1-0.9,0.3-1,0.8c-0.1,0.4,0.1,1,0.5,1.2s0.7,0.2,1.1,0.1c1.2-0.3,0.9-2.1-0.3-2.1
			C968.5,1204.5,968.4,1204.6,968.3,1204.6z"/>
		<path fill="#979CA6" d="M969.8,1210.7c-0.2-0.7-1-1-1.7-0.7c-0.9,0.4-1,1.6,0.1,2c0.2,0.1,0.3,0.1,0.5,0.1
			C969.5,1212.2,970,1211.5,969.8,1210.7L969.8,1210.7z"/>
		<path fill="#979CA6" d="M969.4,1213c-0.8,0.3-0.9,1.4-0.1,1.6h0.1c0.5,0.2,1.1-0.3,1.1-0.8S969.9,1212.8,969.4,1213L969.4,1213z"
			/>
		<path fill="#979CA6" d="M971,1217.7c0.6-0.4,0.8-1.1,0.5-1.8c-0.5-1.1-2.1-0.9-2.7,0c-0.3,0.5-0.2,1.1,0.2,1.6
			C969.5,1218,970.4,1218.1,971,1217.7L971,1217.7z"/>
		<path fill="#979CA6" d="M1074.8,1164.4c0.6,0.1,1.3-0.3,1.4-0.9s0.3-1.4,0.1-1.9s-0.6-0.8-1.2-0.7c-0.9,0.3-1.4,1.3-1.4,2.2
			C1073.7,1163.8,1074.2,1164.3,1074.8,1164.4z"/>
		<path fill="#979CA6" d="M1074.8,1167.4c-0.6,0.4-0.8,1.1-0.9,1.8c-0.1,1.1,1.4,1.6,2.1,0.9c0.6-0.7,0.9-1.8,0.1-2.5
			C1075.9,1167.2,1075.3,1167.1,1074.8,1167.4L1074.8,1167.4z"/>
		<path fill="#979CA6" d="M1076.1,1175.4c0.1-0.6,0-1.1-0.1-1.6c-0.2-0.7-1.1-0.8-1.5-0.2c-0.3,0.5-0.6,1-0.6,1.5
			C1073.7,1176.4,1075.7,1176.6,1076.1,1175.4L1076.1,1175.4z"/>
		<path fill="#979CA6" d="M1076.6,1189c0.5,0,1.1-0.4,1.2-1c0.1-0.7,0.1-1.3-0.1-2c-0.1-0.6-0.2-1.3-0.9-1.6c-0.3-0.2-0.7-0.2-1.1,0
			c-0.6,0.5-0.7,1-0.7,1.8c0,0.6,0,1.3,0.2,1.8C1075.6,1188.6,1076,1189,1076.6,1189L1076.6,1189z"/>
		<path fill="#979CA6" d="M1077.6,1198.5c0.1-0.5,0.1-0.9,0.1-1.4c-0.1-1.5-2.3-1.5-2.4,0c0,0.5-0.1,0.9,0.1,1.4
			C1075.6,1199.6,1077.3,1199.6,1077.6,1198.5L1077.6,1198.5z"/>
		<path fill="#979CA6" d="M1077.3,1208.1c0.7-0.7,0.6-1.5,0.3-2.4c-0.2-0.5-0.6-0.8-1.1-0.7s-0.9,0.5-0.9,1v0.9c0,0.4,0.2,0.7,0.4,1
			C1076.2,1208.4,1076.9,1208.6,1077.3,1208.1L1077.3,1208.1z"/>
		<path fill="#979CA6" d="M1079.1,1219.4c0.2-0.9-0.1-1.8-0.3-2.6c-0.2-0.6-0.8-1.1-1.5-1c-0.6,0.1-1.2,0.7-1.2,1.3
			c0.1,0.8,0,1.9,0.5,2.6C1077.2,1220.7,1078.8,1220.7,1079.1,1219.4z"/>
		<path fill="#979CA6" d="M1078.3,1228c-0.2,0.9-0.2,2,0.6,2.6c0.1,0.1,0.3,0.1,0.4,0c0.8-0.6,0.8-1.7,0.6-2.6
			C1079.7,1227.2,1078.4,1227.2,1078.3,1228z"/>
		<path fill="#979CA6" d="M1078.1,1240.6c-0.2,0.9-0.2,1.7-0.3,2.5s-0.1,1.6,0.4,2.2c0.2,0.2,0.6,0.3,0.8,0.2c1.7-0.7,1.7-3.5,1.2-5
			C1079.9,1239.6,1078.3,1239.4,1078.1,1240.6L1078.1,1240.6z"/>
		<path fill="#979CA6" d="M1079.1,1248.1c-1.5,0-1.5,2.3,0,2.3C1080.6,1250.5,1080.6,1248.1,1079.1,1248.1z"/>
		<path fill="#979CA6" d="M1082.5,1243.8c-0.1,0-0.1,0-0.2,0c-0.7,0.1-0.9,1-0.7,1.5c0.3,0.6,1,0.9,1.6,0.5c0.1,0,0.1-0.1,0.2-0.1
			c0.5-0.3,0.6-0.9,0.4-1.3C1083.5,1243.9,1083.1,1243.8,1082.5,1243.8z"/>
		<path fill="#979CA6" d="M1087.6,1238c-0.6-0.3-1.2-0.1-1.5,0.5c-0.2,0.4-0.4,0.8-0.7,1.2c-0.6,0.8,0.6,2,1.4,1.4
			c0.7-0.5,1.3-1.2,1.4-2.1C1088.1,1238.6,1087.9,1238.2,1087.6,1238L1087.6,1238z"/>
		<path fill="#979CA6" d="M1093.3,1231.7c-0.5-0.1-0.9,0.1-1.3,0.5c-0.3,0.3-0.4,0.7-0.7,1c-0.3,0.4-0.4,0.8-0.2,1.3
			c0,0.1,0.1,0.1,0.1,0.2c0.4,0.3,0.8,0.4,1.3,0.2c0.8-0.4,1.4-0.7,1.7-1.6c0.1-0.3,0-0.7-0.2-1
			C1094.1,1231.8,1093.8,1231.6,1093.3,1231.7L1093.3,1231.7z M1094.1,1232.1C1094.1,1232.1,1094.1,1232.2,1094.1,1232.1
			C1094,1232.1,1094,1232.1,1094.1,1232.1z"/>
		<path fill="#979CA6" d="M1096.3,1227.9C1096.3,1227.9,1096.2,1227.9,1096.3,1227.9c-0.1,0.1-0.1,0.1-0.2,0.1s-0.3,0.1-0.4,0.2
			c-0.3,0.3-0.4,0.7-0.3,1.1v0.1c0.1,0.5,0.6,0.8,1.1,0.9c0.6,0,1.1-0.3,1.4-0.8C1098.5,1228.4,1097.3,1227.3,1096.3,1227.9
			L1096.3,1227.9z"/>
		<path fill="#979CA6" d="M1099,1219.9c-1.6,0-1.6,2.5,0,2.5S1100.6,1219.9,1099,1219.9z"/>
		<path fill="#979CA6" d="M1098,1213.3c-0.7,0.2-1.1,1.3-0.5,1.9c0.5,0.4,1.1,0.6,1.6,0.2c0.6-0.4,0.7-1.1,0.4-1.7
			C1099.3,1213,1098.5,1213,1098,1213.3z"/>
		<path fill="#979CA6" d="M1096.9,1207.2c0.2,0.8,1.4,0.8,1.6,0c0.1-0.5,0-0.8-0.3-1.2c-0.1-0.1-0.1-0.1,0,0
			c-0.1-0.1-0.1-0.2-0.2-0.2c-0.1-0.1-0.2-0.1-0.3-0.1s-0.2,0-0.3,0.1c-0.1,0-0.3,0.3-0.1,0.2
			C1096.9,1206.3,1096.8,1206.6,1096.9,1207.2L1096.9,1207.2z"/>
		<path fill="#979CA6" d="M1097,1196.8c-0.6,0.1-0.9,0.4-1.1,1c-0.1,0.3-0.1,0.5-0.1,0.8v0.2v0.1c-0.3,1.1,1.2,2.1,2,1.2
			c0.3-0.3,0.5-0.6,0.7-1c0.3-0.6,0.2-1.1-0.1-1.7C1098.2,1196.9,1097.5,1196.7,1097,1196.8z"/>
		<path fill="#979CA6" d="M1096.9,1190.8c0.8-0.3,1.2-0.9,1.4-1.7c0.2-0.7,0-1.6-0.7-2c-0.3-0.2-0.7-0.1-0.9,0.1
			c-0.1,0.1-0.2,0.3-0.3,0.4c-0.2,0.3-0.2,0.6-0.4,0.9c-0.1,0.3-0.3,0.6-0.4,0.9C1095.4,1190.2,1096.2,1191.1,1096.9,1190.8
			L1096.9,1190.8z"/>
		<path fill="#979CA6" d="M1095.4,1178.5c-0.1-0.5-0.6-0.9-1.1-0.9c-0.6,0-0.9,0.4-1.1,0.9c-0.2,0.4-0.2,0.8-0.2,1.2
			c-0.1,0.5-0.1,0.9-0.1,1.3c0.1,1.1,1.5,1.6,2.2,0.6C1095.5,1180.8,1095.7,1179.5,1095.4,1178.5L1095.4,1178.5z"/>
		<path fill="#979CA6" d="M1094,1174.2c0.6-1,0.1-2.4-1.1-2.6c-0.4-0.1-0.7,0.1-0.9,0.5c-0.1,0.2-0.2,0.5-0.2,0.8v0.4
			c-0.1,0.1-0.2,0.1-0.3,0.2c-0.2,0.3-0.3,0.7-0.1,1C1092.1,1175.5,1093.6,1174.9,1094,1174.2z"/>
		<path fill="#979CA6" d="M1092.1,1167.9c0.8,0,0.8-1.3,0-1.3c-0.1,0-0.1,0-0.2,0c-0.8,0-0.8,1.2,0,1.3H1092.1z"/>
		<path fill="#979CA6" d="M1132.8,1185.3C1132.7,1185.3,1132.7,1185.3,1132.8,1185.3z"/>
		<path fill="#979CA6" d="M1135.6,1183.6h0.2C1135.7,1183.6,1135.7,1183.6,1135.6,1183.6z"/>
		<path opacity="0.3" fill="#979CA6" enable-background="new    " d="M1132.3,1185.3c-0.3-0.1-0.6-0.2-0.9-0.3
			C1131.7,1185.1,1132,1185.2,1132.3,1185.3z"/>
		<path opacity="0.3" fill="#979CA6" enable-background="new    " d="M1135.8,1183.6h0.4c1,0,1.9-0.3,2.5-0.8
			c-0.6,0.5-1.5,0.8-2.5,0.8C1136.1,1183.6,1135.9,1183.6,1135.8,1183.6z"/>
		<path opacity="0.3" fill="#979CA6" enable-background="new    " d="M1132.8,1185.3C1132.8,1185.3,1132.8,1185.4,1132.8,1185.3
			c1.2,0,2.2-0.7,2.8-1.8C1135,1184.6,1133.9,1185.3,1132.8,1185.3z"/>
		<path fill="#979CA6" d="M1128.7,1185.1c-0.3-0.2-0.6-0.2-0.9,0c0,0-0.1,0-0.1,0.1c-0.2,0.4,0,0.6,0.1,0.9c0.1,0.2,0,0.5,0,0.7
			c0,0.8,1,1,1.4,0.4S1129.2,1185.6,1128.7,1185.1z"/>
		<path fill="#979CA6" d="M1130.7,1193.5c0.2-0.5,0.1-1,0.1-1.4c0-0.6-0.1-1.1-0.7-1.4c-0.3-0.2-0.7-0.2-1,0
			c-0.6,0.4-0.6,0.8-0.7,1.4c0,0.5-0.1,1,0.1,1.4C1128.9,1194.6,1130.3,1194.6,1130.7,1193.5z"/>
		<path fill="#979CA6" d="M1129.8,1198.8c-0.1-0.5-0.9-0.4-0.9,0.1c0,0.1-0.3,0.3-0.3,0.4c-0.1,0.2-0.3,0.5-0.3,0.8
			c0,0.4,0.2,0.9,0.7,1c0.3,0.1,0.6,0,0.8-0.2c0.3-0.3,0.5-0.7,0.4-1.2c0-0.2-0.1-0.3-0.1-0.5
			C1129.9,1199.1,1129.8,1199,1129.8,1198.8L1129.8,1198.8z"/>
		<path fill="#979CA6" d="M1129.5,1209.1c0.1-0.3,0.1-0.5,0.1-0.8c0.1-1.2-2-1.2-1.9,0c0,0.3,0,0.5,0.1,0.8
			C1128,1209.9,1129.3,1209.9,1129.5,1209.1L1129.5,1209.1z"/>
		<path fill="#979CA6" d="M1130.6,1219.1c0-1-0.1-2-0.5-2.9c-0.3-0.7-1.6-0.6-1.7,0.2c-0.1,0.9-0.1,1.8-0.2,2.7
			c-0.1,0.6,0.6,1.2,1.2,1.2C1130.1,1220.3,1130.6,1219.7,1130.6,1219.1L1130.6,1219.1z"/>
		<path fill="#979CA6" d="M1131,1227.1c0.7-0.1,0.9-0.8,0.9-1.4s-0.1-1.3-0.3-1.8c-0.3-1.1-1.9-0.8-1.9,0.3c0,0.5,0,1.1,0.1,1.7
			C1129.9,1226.4,1130.3,1227.2,1131,1227.1L1131,1227.1z"/>
		<path fill="#979CA6" d="M1131.9,1233.1c-0.1-0.1-0.2-0.1-0.4-0.1c-1-0.1-1.2,1-1.2,1.7s0.1,1.7,0.9,1.9c0.9,0.2,1-0.9,1.1-1.5
			c0-0.3,0.1-0.6,0.2-0.9C1132.5,1233.7,1132.3,1233.3,1131.9,1233.1z"/>
		<path fill="#979CA6" d="M1134.4,1239.9c-0.6-0.2-1.2,0.2-1.5,0.7c-0.2,0.6,0,1.1,0.5,1.5c0,0.1,0.1,0.2,0.1,0.3
			c0.7,1.1,2.2,0.6,2.3-0.6C1135.9,1240.9,1135.2,1240.1,1134.4,1239.9z"/>
		<path fill="#979CA6" d="M1140,1247.7c-1.2-0.1-1.4,1.8-0.3,2.1c0.3,0.1,0.4,0.3,0.6,0.6s0.6,0.6,1,0.6c0.2,0,0.4-0.1,0.6-0.2
			c0.4-0.2,0.6-0.8,0.5-1.3C1142.1,1248.4,1141.1,1247.7,1140,1247.7L1140,1247.7z"/>
		<path fill="#979CA6" d="M1145.6,1253.3c-0.2,0-0.4,0.1-0.6,0.2c-0.3,0.1-0.6,0.7-0.4,1c0.1,0.1,0.1,0.2,0.2,0.3
			c0,0.1,0.1,0.2,0.1,0.3s0.1,0.1,0.1,0.2c0,0,0.2,0.5,0.1,0.3c0.2,0.6,0.8,1,1.4,0.9s1.2-0.6,1.1-1.3c-0.1-0.6-0.2-1.1-0.7-1.5
			C1146.6,1253.5,1146.1,1253.2,1145.6,1253.3L1145.6,1253.3z"/>
		<path fill="#979CA6" d="M1150.8,1258.2c-0.7,0-1.1,0.5-1.1,1.1c-0.2,1.5,1.8,3.5,3.1,2.1
			C1154.2,1260.1,1152.3,1258.2,1150.8,1258.2z"/>
		<path fill="#979CA6" d="M1159.5,1263.3c-0.8-0.4-1.4-0.2-2.1,0.1c-0.5,0.2-0.6,1-0.2,1.3c0.6,0.6,1.2,0.9,2,0.7
			C1160.2,1265.3,1160.3,1263.8,1159.5,1263.3L1159.5,1263.3z"/>
		<path fill="#979CA6" d="M1168,1265.7c-0.5-0.4-1.2-0.4-1.8-0.5c-0.7-0.1-1.3-0.2-1.9,0c-1,0.2-1.1,1.4-0.5,2.1
			c0.5,0.5,1.1,0.8,1.7,1c0.7,0.2,1.4,0.4,2.1,0.2C1168.9,1268,1169,1266.4,1168,1265.7L1168,1265.7z"/>
		<path fill="#979CA6" d="M1175.2,1267.2c-0.2-0.4-0.7-0.7-1.1-0.7s-0.9,0.2-1.1,0.6c-0.3,0.5-0.2,1,0,1.5c0.4,1.1,2.2,1.3,2.5,0
			C1175.5,1268.2,1175.5,1267.7,1175.2,1267.2z"/>
		<path fill="#979CA6" d="M1145.7,1229.8c0.7-0.2,0.8-1,0.4-1.5c-0.2-0.3-0.5-0.3-0.8-0.4c-0.4-0.1-0.7,0.2-0.7,0.6
			c0,0.1-0.1,0.1-0.1,0.2C1144.3,1229.3,1145.1,1230,1145.7,1229.8L1145.7,1229.8z M1144.8,1228.3
			C1144.9,1228.2,1144.9,1228.2,1144.8,1228.3z"/>
		<path fill="#979CA6" d="M1144.9,1222.1c-0.6-0.6-1.7-0.3-1.9,0.5c-0.1,0.5,0,0.9,0,1.4c0.1,0.9,1.1,1.4,1.8,0.7
			S1145.6,1222.8,1144.9,1222.1z"/>
		<path fill="#979CA6" d="M1142.3,1219.5c-0.7,0.9,0,2.1,1.1,1.9c0.9-0.2,1.5-1.2,1.6-2.1c0-0.5-0.4-1-0.9-1.1s-1.1,0.1-1.3,0.5
			c-0.1,0.1-0.1,0.3-0.2,0.4s-0.1,0.2,0,0.1C1142.4,1219.3,1142.4,1219.3,1142.3,1219.5L1142.3,1219.5z"/>
		<path fill="#979CA6" d="M1152.3,1212.2c0,0-0.3,0.1-0.2,0.1c-0.5,0-0.9,0.6-0.6,1.1c0.4,0.6,1.2,0.7,1.8,0.1
			C1153.9,1212.8,1153.1,1211.6,1152.3,1212.2L1152.3,1212.2z"/>
		<path fill="#979CA6" d="M1157.1,1212.7c-0.5-0.8-1.8-1.1-2.4-0.3c-0.4,0.4-0.7,0.9-0.5,1.5c0.1,0.5,0.5,0.9,1,1
			c0.3,0.1,0.7,0.1,1,0C1157.1,1214.6,1157.6,1213.6,1157.1,1212.7z"/>
		<path fill="#979CA6" d="M1162.8,1223.4C1162.8,1223.4,1162.9,1223.4,1162.8,1223.4c-0.2-0.1-0.5-0.2-0.8-0.1
			c-0.5,0.1-0.8,0.5-1,0.9s-0.3,0.8,0,1.3c0.4,0.8,1.8,0.9,2.3,0C1163.6,1224.8,1163.6,1223.8,1162.8,1223.4L1162.8,1223.4z"/>
		<path fill="#979CA6" d="M1162.2,1230.3c-0.4-0.2-0.8-0.1-1.2,0.2c-0.1,0.1-0.2,0.2-0.4,0.4c-0.5,0.5-0.5,1.4,0,1.9s1.4,0.5,1.9,0
			c0,0,0.1,0,0.1-0.1c0.4-0.3,0.4-0.9,0.3-1.3C1162.9,1230.9,1162.6,1230.5,1162.2,1230.3L1162.2,1230.3z"/>
		<path fill="#979CA6" d="M1162.2,1239.4c0.3-0.5,0.2-1.2-0.2-1.6s-1.1-0.2-1.3,0.3c-0.1,0.3-0.2,0.6-0.2,0.9
			C1160.5,1239.9,1161.8,1240.2,1162.2,1239.4L1162.2,1239.4z"/>
		<path fill="#979CA6" d="M1161.2,1242.6c0.4-0.1,0.7-0.3,1-0.5c0.6-0.4,0.3-1.4-0.2-1.7c-0.6-0.4-1.3,0-1.6,0.6
			c-0.1,0.3-0.2,0.6-0.1,0.9C1160.3,1242.3,1160.7,1242.7,1161.2,1242.6L1161.2,1242.6z"/>
		<path fill="#979CA6" d="M1161.7,1248.4c-1.3,0-1.3,2,0,2C1162.9,1250.3,1162.9,1248.4,1161.7,1248.4z"/>
	</g>
	<path opacity="0.3" fill="#091426" enable-background="new    " d="M1052.4,1131.3c3.8,1.5,7.6,2.9,11.6,3.6
		c0.6,0.1,1.1,0.2,1.7,0.3c-0.1,0.1-0.1,0.3-0.2,0.4c-1.2,0.3-2.3,0.7-3.4,1.2c-1.2,0.5-2.4,1.2-3.6,1.8c-0.6,0.3-1.3,0.5-1.8,1v0.1
		c0.5,0.4,0.9,0.3,1.5,0.3c1.6,0,3.2,0,4.7-0.2c0.5-0.1,1.1-0.1,1.6-0.2c-0.1,1.2,0.1,2.3,0.6,3.3c1.5,3,5.1,5.2,8.1,6.4
		c6.2,2.5,16-1.3,13.3-9.3c-0.6-1.7-3.4-2.5-4.3-0.6c-0.5,1.2-0.7,2.8-1.6,3.7c-1.8,1.8-4.5,1.2-6.5,0.3c-1.6-0.7-4-1.9-4.3-3.8
		c-0.1-0.4-0.1-0.8,0-1.2c0.4-0.1,0.7-0.2,1.1-0.3c1.2-0.4,1.5-1.4,1.2-2.3c0.6-0.1,1.3-0.2,1.9-0.4c1.5-0.5,1.7-2.3,0.4-3.2
		c-2.7-1.8-6.5-1.8-9.8-2.2c-4-0.4-8.1-0.2-12.2,0.2C1052.1,1130.6,1052,1131.1,1052.4,1131.3L1052.4,1131.3z"/>
	<path opacity="0.3" fill="#091426" enable-background="new    " d="M1079,1258.8c9-9.1,16.9-20.1,24.4-30.4
		c0.6-0.8-0.8-1.9-1.4-1.1c-8,10.1-16.6,20.2-23.8,30.9C1077.9,1258.6,1078.6,1259.2,1079,1258.8z"/>
	<path opacity="0.3" fill="#091426" enable-background="new    " d="M1175.7,1269.3c-0.3,0.6-0.6,1.3-0.8,2
		c-7.8-0.7-15-2.4-21.8-6.5c-7-4.2-12.8-9.7-18.7-15.1c-0.2-0.2-0.6,0.1-0.4,0.3c4.5,6.6,12.4,12.3,19.2,16.5
		c6.3,3.8,13.6,6.5,21,7.1c-1.5,4.7-2,9.6-2.2,14.5c-0.3,7.7,0.4,15.3,1.4,22.9c0.9,6.3,1.3,13.2,3.5,19.2
		c-0.2-11.1,0.4-22.6,1-32.7c1.2-20.1,5.2-30,5.3-35.1c0-0.9,0-1.7-0.1-2.4C1180.2,1262.9,1177.4,1265.7,1175.7,1269.3
		L1175.7,1269.3z"/>
	<path opacity="0.3" fill="#091426" enable-background="new    " d="M1083.2,1271.6c-0.6,0.6,0.2,1.5,0.8,1.1c5-2.8,9.7-6,14.9-8.4
		c3-1.4,6.1-2.6,9.3-3.6c0.8-0.3,5.3-1.9,5.9-1.4c0.3,1.3,0.5,2.7,0.8,4c-1.7,1.8-4.7,2.9-6.7,4.2c-2.5,1.5-5,3.1-7.5,4.6
		c-1.8,1.1-3.7,2.1-5.5,3.2c-3,1.1-5.6,2.6-7.3,5.6c-0.6,1-0.3,2,0.4,2.6c-0.1,0.6,0.1,1.2,0.9,1.5c2.6,0.8,5.4,0.5,8.1,0.5
		c1.8,0,3-0.4,4.5,0.6c1.3,0.8,1,1.1,1.9,2c0.7,0.7,1.6,0.5,2.3,0c0.1-0.1,0.1-0.1,0.2-0.2c0.8-0.6,0.6-1.6,0-2.2
		c-0.1-0.3-0.4-0.8-0.5-0.9c-0.3-0.6-0.9-1.2-1.4-1.6c-1.1-0.9-2.6-1.3-4-1.6c-1.8-0.4-4.1-0.4-6.3-0.2c1.6-1.2,3.2-2.3,5-3.3
		c1.7-0.6,3.4-1,4.9-1.7c2.8-1.2,5.3-2.7,7.7-4.5c3-2.4,11.1-8.6,7.1-13.1c-3.8-4.3-11.8-0.1-15.9,1.5
		C1095.7,1262.8,1088.7,1266.3,1083.2,1271.6L1083.2,1271.6z"/>
	<path opacity="0.3" fill="#091426" enable-background="new    " d="M1024.1,1260.7c14.2,0.1,28.2,5.3,41.8,9.1
		c0.5,0.1,0.8-0.5,0.5-0.9c-4.9-5.5-14.5-7.1-21.3-8.8c-6.9-1.8-14.5-3.8-21.4-0.8C1023,1259.6,1023.4,1260.7,1024.1,1260.7
		L1024.1,1260.7z"/>
	<path opacity="0.3" fill="#091426" enable-background="new    " d="M1052.9,1276.7c-0.7-0.7-1.6-1.2-2.4-1.6
		c-0.9-0.4-2.3-1.1-3.2-0.5c-0.2,0.1-0.2,0.3-0.1,0.5c0.6,0.6,1.7,0.7,2.4,1.2c0.4,0.2,0.6,0.5,0.9,0.8c-3.4,0.6-6.9,1.7-9.9,2.8
		c-2.9,1.1-6.2,3.1-6.3,6.5c0,0.4,0.4,0.7,0.8,0.6c1.5-0.6,2.5-1.6,3.9-2.4c1.9-1.2,4.1-1.7,6.3-2.3c2.6-0.7,6.6-1,8.2-3.4
		c0.1-0.1,0.1-0.2,0.2-0.3s0,0,0-0.1c0,0,0,0,0-0.1C1053.9,1277.8,1053.6,1276.8,1052.9,1276.7z"/>
	<path opacity="0.3" fill="#091426" enable-background="new    " d="M956.1,1304.1c-1.9-7.4-4.5-14.7-6.3-22.1
		c-0.9-3.6-1.6-7.2-2.4-10.8c-0.1-0.3-0.2-0.7-0.2-1c12.9-6.2,24.8-15,34.1-26c5.7-6.7,8.4-14.7,10.3-23.1c2.1-8.9,3.1-18,3-27.2
		s-0.8-19.3-3.7-28.2c3.5-1.3,7-2.4,10.6-3.3c3.9-0.9,7.9-1.4,11.9-1.7c1.1-0.1,2.2-0.1,3.2-0.1c3.4,0.6,7.8-0.5,11-1.3
		c6.1,0.5,13-1.2,19.1-1.1c5.2,0.1,10.4,0.3,15.5,0.4c0,2.4,0.6,5,0.7,7.3c0.2,4.4,0.4,8.8,0.6,13.3c0.4,8.1,1,16.2,2.3,24.2
		c1.4,8.5,2.9,16.9,3.4,25.6c0.5,8.5,1.4,16.6,3.2,24.9c0.5,2.4,4,1.3,3.7-1c-1.2-9.1-1-18.6-1.6-27.7c-0.1-2.1-0.3-4.2-0.5-6.3
		c-0.1-3.1-0.6-6.3-0.8-8.9c-0.3-6.1-0.7-12.3-1-18.4c-0.3-6.2-0.6-12.4-0.7-18.5c-0.1-3,0.6-7.1,0.3-10.7c0.5-0.4,1-0.8,1.6-1
		c1.6-0.6,4.1-0.7,5.8-0.9c4.3-0.6,8.2-0.1,12.3,0.4c1.3,3.9,3.2,7.7,4.2,11.8c1.4,5.2,2.4,10.4,3.1,15.7
		c1.6,11.7,3.2,23.5,3.1,35.3c0,0.7,1.1,0.8,1.2,0.2c0.9-5.8,0.7-12.1,0.4-18c-0.2-6-0.7-12-1.6-17.9c-0.7-5.1-1.5-10.3-2.8-15.3
		c-0.8-3.1-1.6-6.5-2.8-9.7c0.1,0,0.2-0.1,0.3-0.1c0.5-0.4,1.1-0.8,1.6-1.3c2.4,0.3,4.8,0.6,7.1,0.9c6.2,0.7,12.8,1,19,2.3
		c2,6,0.6,13.4,0.4,19.5c-0.2,6.6-0.5,13.3-0.4,19.9c0.1,12.4,0.3,24.3,4.5,36.1c0.1,0.3,0.6,0.2,0.5-0.1c-1.7-7-3-13.8-3.4-21
		c-0.4-6.9,0.1-13.7,0.4-20.6s0.6-13.9,0.8-20.8c0.1-2.6,0.4-5.3,0.3-8c1.4-4.1,5.5-5.7,7.7-2.1c1.4,2.3,0.7,5.6,0.5,8.1
		c-0.4,4.8-0.7,9.5-0.8,14.3c-0.1,1.5-0.2,3-0.3,4.4c-0.3,4.9-0.6,9.5-0.1,14.4c0.9,8.9,1.9,17.7,5,26.1c2.9,7.6,6.4,13,13.5,17
		c4.1,2.3,8.5,3.8,13.1,4.3c-0.5-0.6-1.3-2-2-4.3c-0.3-0.1-0.7-0.1-1-0.2c-3.8-0.9-7.5-2.7-10.8-4.9c-2.3-1.6-4.2-3.6-5.7-5.9
		c2-1.2,1.1-9.5,1.1-11.2c0-4,0.5-8,0.8-12.1c3.3,0.9,7.2,1.9,11,2.2c-1.2,4.5-1.4,9.6-1.7,14.2c-0.3,5-0.7,10.6,0.2,15.6
		c0.1,0.6,0.9,0.4,0.9-0.1c0.4-5.1-0.1-10.3,0.1-15.5c0.2-4.7,1.1-9.4,1.2-14.1c1.8,0.1,3.5,0,5.1-0.2c0.1-0.6,0.2-1.1,0.3-1.5
		c-4.8-0.8-9.8-0.4-14.6-1.5c-0.8-0.2-1.6-0.4-2.4-0.6c0.2-3,0.4-5.9,0.4-8.9c0.6,0.1,1.2,0.2,1.7,0.3c2.9,0.5,6.6,1.5,9.8,1.2
		c-2.8-1.4-4.9-1.7-4.9-1.7s0-0.4,0-1.1c-1.4-0.2-2.9-0.4-4.2-0.7c-3.9-0.9-7.7-2.2-11.6-3c0-0.2-0.1-0.4-0.1-0.6
		c-0.1-0.3-0.5-0.4-0.7-0.1c-0.1,0.2-0.2,0.3-0.2,0.5c-0.4,0-0.6,0.4-0.4,0.7c-0.6,1.4-0.9,2.9-1.2,4.4c-0.1-1.2-0.3-2.4-0.4-3.6
		c-0.6-6.1,0.5-12.4,0.1-18.5c1-4.8,2.1-9.5,2.3-14.4c0.2-0.1,0.4-0.2,0.6-0.3c2.8-2.7,7-0.6,9.8,0.8c0.2,0.1,0.5,0.2,0.7,0.2
		c-1-1.6-2-3-2.9-4.1c-1.2,0-2.3,0.1-3.5,0.1c-1.1,0-2.2-0.1-3.2,0c0-0.2,0-0.4,0-0.6c0-0.6-0.3-1.1-0.8-1.4
		c0.6,0.1,1.2,0.2,1.8,0.2c1.1,0,1.5-1.3,0.8-2c-2.2-2.4-6-3.6-9-4.5c-2.7-0.8-6.1-1.8-9-1.4c0.9-3.5,1-7.6,1.3-11
		c0.4-4,1.1-8.7,0.6-12.9c-0.8-0.4-1.4-0.6-1.8-0.8c-0.6,3.8-0.4,8-0.8,11.8c-0.4,4.1-1.7,8.4-2,12.6c-2.9,2.2-6.4,3.1-10,1.8
		c0,0-0.1,0-0.1-0.1c-0.7-0.7-1.5-1.2-2.4-1.6c-0.5-0.5-0.9-1.1-1.3-1.8c1.3-6.8,1.8-14.1,1.3-21c-0.3-3.9-1.5-7.6-4.6-9.6
		c0,0.8,0.2,1.6,0.3,2.6c0,0-0.3-0.1-0.7-0.2c2.1,3.6,2.2,8,2.2,12.2c-0.1,5.5-0.4,10.9-1.4,16.3c-0.8-0.2-1.7-0.3-2.6-0.4
		c-0.1,0-0.2-0.1-0.3-0.1c-0.5-0.2-1-0.5-1.4-0.9c1.5-3.9,0.9-9.1,1-13c0.1-4.7,0.7-9.9-0.1-14.6c-1.2-0.2-2.5-0.3-3.5-0.1
		c0,0,0-0.7,0.1-1.7c-1.4,4.6-1.5,9.7-1.9,14.5c-0.4,4.5-2.3,10.9-0.8,15.5c-1,0-1.9-0.1-2.8-0.2c-7.5-0.6-15-0.8-22.5-0.5
		c-8,0.3-15.9-0.2-23.9-0.3c-5.7-0.1-13.1-1.1-18.9,0.8c-0.2,0-0.4,0-0.7,0.1c-0.2,0-0.3,0.1-0.5,0.1c-1.3-5.2-2.6-10-2.9-15.6
		c-0.1-2.7-0.3-5.4-0.4-8.1c-0.1-3.1,0.3-4.9,2.4-6.3c-0.7,0.1-1.1,0.1-1.1,0.1s-0.3-1.8-1.1-3.6c-1.4,0.6-2.6,1.4-3.3,3.2
		c-1.3,3.3-0.5,7.7-0.3,11.1c0.2,6.1,0,14.5,3.5,20.1c-1,0.3-2,0.5-3,0.5c-0.4,0.1-0.8,0.1-1.2,0.2c-1.2-0.6-2.7-0.9-4.2-1
		c-0.5-0.6-0.8-1.3-0.8-2.3c-1.5-3.8-2.1-8.3-3-12.3c-1.1-4.4-1.7-8.4-1.6-12.9c0-1.6,0.2-2.9-0.2-4.2c-0.9,2.5,0.1,4.4,0.1,4.4
		s-0.9,0.2-2.4,0.7c-0.1,7.8,2.2,15.5,4,23.2c0.3,1.1,0.5,2.3,0.8,3.5c-2.9,0.2-5.9,0.9-8,1.3c-8.1,1.7-15.8,4.8-23.4,7.8
		c-3.6,1.4-7.2,2.8-10.7,4.4c-1.2,0.5-2.2,1.1-3.2,1.7c-1.9-5.9-3.5-12-3.9-18.3c-0.2-3.6-0.1-7.8,2.4-10.6c0.6-0.6,1.2-1.2,1.9-1.6
		s-0.2-2.2-1.6-3.8c-3.5,1.9-5.9,7-6.3,10.4c-1,8.5,2.8,17.2,5.8,25c-0.9,0.7-1.8,1.4-2.9,2.1c-1.1,0.8-3,1.5-4.9,2.4
		c-2.1-6.3-4.7-12.3-4.8-19c-0.1-5.7-0.3-11.3,0.6-16.9c-0.5,1.5-0.8,3.3-1,5.7c0,0-6.6,2.7-9.2,3.8s-1.7,3.6-1.7,8.7
		c-0.1,5.1,0.6,21.1,0.6,21.1s-5.8,3.6-8.2,5.9s-3.4,11.1-3.4,21.5c-0.1,10.4,1.2,24.5,1.2,24.5s-5.5,22.2-6.7,27.6
		c0,0-4.7-0.1-10.9,0.2c12.1,2.2,24.7-1.9,35.2-8.3c-0.4,0.7-0.8,1.5-1,2.2c-0.1,0.4-0.2,0.8-0.3,1.2c0,0.2-0.1,0.6-0.2,0.8
		c-0.3,0.3-0.3,0.7-0.1,1.1c0,0.1,0.1,0.2,0.2,0.3c0,0,0.1,0,0.1,0.1c0.2,0.1,0.4,0.1,0.7-0.1c6.3-4.4,12.3-9.3,17.1-15.4
		c5.2-6.6,8.4-14.9,11.5-22.7c3.2-8.2,5.4-16.6,5.5-25.4c0.1-4.5-0.3-8.9-0.7-13.4c-0.3-3.2-0.3-7-2.5-9.6c1.1-0.4,2.1-0.8,3.2-1.2
		c2.2-0.9,4.4-1.7,6.6-2.6c1.6,7.8,3.3,15.4,3.6,23.4c0.4,8.8-0.2,17.7-1.9,26.4c-1.6,8.3-3.7,17.2-8.8,24.2
		c-4.8,6.6-11.2,12.5-17.8,17.4c-5.5,4.2-11.4,7.7-17.6,10.6c-0.8-3.3-1.6-6.8-0.7-10.2c0.2-0.9-1.1-1.6-1.6-0.7
		c-0.1,0.3-0.3,0.6-0.4,0.8c-0.5-0.3-1.2-0.3-2.1-0.2c-0.8,0.1-2.2,1.1-3,1.3c-1.2,0.4-2.2,0.4-3.4,0.6c-2.3,0.4-4.7,0.7-7.1,1.1
		c-5.3,0.9-10.6,1.3-15.9,1.1c-2.2-0.1-4.3-0.5-6.4-0.9c-0.2,0.7-0.3,1.8-0.5,3.4c-0.6,5.2,1.7,35.3,1.7,35.3s28.7,22.5,51.6,44.4
		C960.4,1330.9,959.6,1317.2,956.1,1304.1L956.1,1304.1z M1140.3,1203.4c2.4,1.5,5.2,2.4,8,3c-0.3,2.9-0.8,5.7-1.1,8.6
		c-0.9-0.3-1.8-0.6-2.6-0.9c-1.9-0.7-3.2-1.8-4.7-2.9C1140.3,1208.6,1140.6,1206,1140.3,1203.4L1140.3,1203.4z M1139.7,1213.3
		c1.8,1.8,5.1,2.7,7.3,3.4c-0.2,2.1-0.4,4.2-0.4,6.3c0,4,0,7.9-0.3,11.8c-0.1-0.1-0.1-0.2-0.2-0.3c-0.9-1.1-3-1.2-3.2-2.8
		c0-0.2-0.1-0.2-0.2-0.3c-0.6-1.9-1.1-3.7-1.6-5.5c-0.6-2.5-1.2-5-1.7-7.6C1139.4,1216.7,1139.5,1215,1139.7,1213.3L1139.7,1213.3z
		 M1138.9,1164.5c-0.1,0-0.1,0-0.2,0c0,0,0,0,0-0.1C1138.7,1164.4,1138.8,1164.4,1138.9,1164.5z M1127.1,1164.9
		C1127.1,1164.9,1127,1165,1127.1,1164.9C1127,1165,1127,1164.9,1127.1,1164.9C1127,1164.9,1127,1164.9,1127.1,1164.9z
		 M1071.6,1158.4c-0.1,0.1-0.3,0.2-0.4,0.3c0-0.1-0.1-0.2-0.1-0.3H1071.6z M939.6,1222.1c0-0.2,0-0.3,0-0.5
		C939.6,1221.8,939.7,1222,939.6,1222.1C939.7,1222.1,939.7,1222.1,939.6,1222.1z M955.1,1201.9c2.2-0.9,4.2-2.1,6.2-3.3
		c0.1,2.8,0.3,5.6,0.6,8.4c-2.4,1.3-4.8,2.8-7.2,4c-2.3,1.1-4.8,2.1-7.2,3.3c-0.1-0.7-0.1-1.4-0.2-2c-0.3-2.6-0.2-5.4-0.7-8
		C949.5,1203.4,952.3,1203.1,955.1,1201.9L955.1,1201.9z M961.6,1198.5c2.8-1.7,5.7-3.4,8.9-4.6c0.2,1,0.6,2.1,0.8,3.1
		c0.3,2,0.2,4,0.2,6c-0.1,0-0.3,0-0.4,0c-2.7,0.8-5.4,2.1-8,3.5C962.4,1203.8,962,1201.2,961.6,1198.5z M942.5,1209.4
		c-0.2-1.2-0.2-2.3-0.6-3.2c1.2-0.6,2.4-1.3,3.8-1.7c-0.1,2.6,0.4,5.3,0.5,7.7c0.1,0.9,0.1,1.7,0.2,2.6c-1,0.5-2,1-2.9,1.6
		C943.1,1214.1,942.8,1211.7,942.5,1209.4z M944.3,1221.7c-0.2-1-0.4-2-0.5-3c0.9-0.5,1.9-0.9,2.8-1.4c0.2,2,0.4,4,0.6,6
		c0.5,5,1.1,10,1.8,15C947.4,1232.9,945.5,1227.3,944.3,1221.7L944.3,1221.7z M949.4,1253.7c0.1-0.1,0.2-0.2,0.3-0.2
		C949.6,1253.5,949.5,1253.6,949.4,1253.7z M958.5,1233.6c-1.7,1.4-4.9,3-7.6,5c-0.9-5.3-1.7-10.6-2.4-15.9c-0.3-2-0.5-4-0.7-6
		c3-1.4,6-2.8,9-4.2c1.8-0.8,3.7-1.6,5.6-2.5c0.8,5.5,2.2,10.9,4.1,16.1C964.1,1229,961.3,1231.4,958.5,1233.6L958.5,1233.6z
		 M968.4,1223.7c-0.2,0.2-0.3,0.4-0.5,0.7c-1.7-4.9-3.2-9.8-4.3-14.8c2.8-1.4,5.5-2.9,7.8-4.8c0.1,3.5,0.6,7.2,1.5,10.6
		C971.2,1218,970.2,1221.1,968.4,1223.7L968.4,1223.7z M979.6,1181.1c0,3.9-0.2,7.9-0.6,11.8c-0.7,6.4-1.9,12.8-3.5,19
		c-0.6-3.3-1.2-6.5-1.2-9.9c0-3.3,0.5-7.1-1.5-10.1c-0.2-0.2-0.4-0.4-0.6-0.5c-0.2-0.2-0.5-0.4-0.9-0.4c-6.7,0.6-11.7,5.2-17.9,7.2
		c0-0.2,0.1-0.4,0.1-0.6c0.3-3.9,0.8-7.9,1.4-11.8c0.3-1.7,0.6-3.3,0.8-4.9c0.2-0.1,0.4-0.2,0.6-0.4c2.4-1.3,4.9-2.4,7.3-3.8
		c4.5-2.6,9.6-4.5,14.6-6.3c0,0.1,0,0.1,0.1,0.2c0.3,0.5,0.5,1.1,0.7,1.6C979.8,1175.1,979.6,1178.3,979.6,1181.1L979.6,1181.1z"/>
	<path opacity="0.3" fill="#091426" enable-background="new    " d="M932.8,1535c-3.1,1.8-5.8,3.2-8.1,4.2
		c-11.8,5-26.4,17.6-56.3,19.7s-49.4-1.6-49.4-1.6s-3.8,5.5,0,9.8s32.4,15.3,62,17c0,0-1.7,4.9,0.9,8.4c2.6,3.4,29.5,27.6,83.5,31.2
		s100.9-8.6,116.5-18.2c15.6-9.5,16.5-10.7,17-18.1s-2.2-19.6-2.2-19.6s7.7,5.7,42.9,3.6c35.2-2.2,48.4-9.7,52.3-12.9
		s1.5-4.8,0.9-10.7c-0.6-5.8-2.9-24.4-2.9-24.4s8.7-5.3,14.1-19.3c4.5-11.7,5.3-17.5,3.7-19.9c-0.8,1.4-1.1,3-1.7,4.8
		c-1.1,3.4-2.6,6.6-4.3,9.7c-3.5,6.3-8.2,11.7-13.3,16.8c-5.2,5.2-11.1,9-18,11.6c-6.5,2.5-15.6,4.9-20.2,10.4
		c-0.5,0.6,0,1.5,0.8,1.4c2-0.3,3.3-1.2,5.2-2c2.9-1.3,5.3-1.5,8.3-2.1c3.8-0.7,7.4-1.9,10.9-3.4c4.3,0.1,10.8,1.2,13.2,4.4
		c1.2,1.7,1.7,3.7,2.4,5.6c-0.2,1.6-0.7,3.2-1,4.8c-0.4,2.2-0.3,4.5-0.8,6.7c-5.9,4.2-15,5.9-21.4,7.5c-10.4,2.6-21,4-31.6,5.4
		c-3.9,0.5-7.7,1-11.6,1.3c-0.7,0-1.4-0.1-2-0.1c-3.9-0.2-8.3-0.4-11.7-2.5c-0.2-0.1-0.4-0.3-0.6-0.4c-0.6-1.3-1-2.8-1.5-4.2
		c-1.7-5-3.7-10-4.9-15.1c-0.4-1.7-0.7-3.6-1-5.4c-0.3-4-0.2-8,0.2-12.2c0.4-3.8,1.9-8,2.2-12c5.5,0,11.9-2,15.6-2.7
		c12.8-2.4,25.3-5.7,37.7-9.6c8.5-2.7,21.1-4.5,25-13.6c0.9-2.2,1.2-4.5,2.1-6.7c1.1-3,3-5.2,5.3-7.2l-0.1-0.1c0,0,2.2-7.3,4.1-11.2
		c-3.7,5.9-8.8,11-11.6,17.6c-2.2,5.2-3.2,8.9-9,11.2c-4.9,2-10.1,3.6-15.1,5.2c-10,3.2-20.1,5.7-30.3,8c-5.3,1.1-10.5,2.2-15.8,3.1
		c-3.7,0.6-9.4,2.6-13.4,1.3c-0.9-2.8-1-6-1.4-8.6c-0.8-5.2-1.6-10.4-2.4-15.6c-1.6-10.7-3.2-21.5-4.6-32.3
		c-2.7-20.5-4.9-41.1-7-61.7c-2-20.6-3.6-41.2-4.8-61.9c-0.6-10.5-1.4-21-1.8-31.5c-0.4-9.6,0.7-20.4-2.3-29.7
		c-0.1-0.5-0.8-0.5-0.9,0c-2.2,7.6-1.3,15.9-1.1,23.8c0.1,2.4,0.1,4.8,0.1,7.2c-0.1,2-0.1,4.1-0.2,6.1c-0.1,10-0.1,19.9-0.4,29.9
		c-0.6,20.2-0.5,40.6-0.6,60.8c-0.1,19.7-1.1,39.1-3.2,58.7c-2.1,18.8-3.4,37.8-0.2,56.6c-2.3,4-4.2,8.3-6.2,12.4
		c-1.4,2.8-4.5,6.6-5.3,10.2h-0.1c-19.9,5.8-40.4,5.1-61,4c2.4-7.4,4.9-14.8,7.3-22.2c2.4-7.3,4.8-14.6,5.4-22.3
		c0.6-7.5-1.3-14.4-4.4-21.2c-1.4-3.1-3.1-7.6-5.7-10.8c-4.3,11-11,22.1-20.4,33.2C963.2,1513.6,945.4,1527.6,932.8,1535L932.8,1535
		z M1097.5,1541.9v0.2c0,0,0,0-0.1,0C1097.5,1542.1,1097.5,1542,1097.5,1541.9z M1094,1561.4c-0.1-0.1-0.2-0.2-0.2-0.3
		c0.1-0.1,0.2-0.3,0.2-0.4V1561.4z M1027.5,1545.7c10.5-0.6,21.8-1.6,31.7-5.6c1.5-0.6,2.1-2.1,1.9-3.4c2.6-2.6,4.2-7.5,5.6-10.3
		c0.7-1.4,1.4-2.7,2.1-4.1c4.4-3.2,9.1-7.2,14.9-4.6c4.6,2,5.8,8.2,9.8,10.6c0.2,1.3,0.3,2.5,0.4,3.8c-0.5,3.8-1.5,7.6-2.5,11.4
		c-1,3.5-1.9,7.8-4.4,10.6c-2.6,2.9-7.3,4.7-10.7,6.4c-7.1,3.5-14.5,6.4-22,8.9c-3.4,1.2-6.8,2.5-10.3,3.6
		c-3.6,1.1-7.3,1.6-10.7,3.4c-1.2,0.6-0.5,2.2,0.6,2.3c4.3,0.4,8.7-1.1,13-1.9c4.8-0.9,9.4-2.1,14-3.8c8.4-3,16.8-6.6,24.5-11.1
		c0.7,0.1,1.3,0.3,1.7,0.4c2.4,0.8,3,2,3.7,4.3c1.1,3.3,1.2,7.2,1.9,10.6c0.8,3.5,1.4,7.1,1.9,10.6v1.3c-0.1,0.8-0.3,1.6-0.5,2.5
		c-4,3.4-10.7,6-13.5,7.3c-6.9,3.3-14.1,6.1-21.4,8.5c-14.5,4.6-29.6,7.4-44.7,8.5c-16.2,1.2-32.5,0.7-48.7-1
		c-15.7-1.7-31.8-3.9-46.9-8.7c-7.7-2.4-15.2-5.7-21.8-10.5c-0.9-0.7-1.8-1.4-2.6-2.1c2.2-2,4.7-3.7,7.5-5.1c3.9-2,8.1-3.2,12.1-4.6
		c2.5-0.9,5.1-1.4,7.4-2.5c1.5,0.5,3,1,4.5,1.2c3.9,0.7,10.8,1.4,14.2-1.1c0.2-0.2,0.3-0.5,0.1-0.7c-1.8-1.6-3.5-1.6-5.9-1.9
		c-1.6-0.2-3-0.5-4.3-1c0.1-0.1,0.1-0.2,0.2-0.4c3.3-1.8,6.7-3,10.5-3.4c1.1-0.1,1.8-0.7,2.3-1.7c3.1-7.8,7.5-15.7,13.4-21.7
		c3.1-3.1,6.7-5.7,10.7-7.2c0.4-0.2,0.8-0.3,1.3-0.4c8.5,0.9,17.1,1.6,25.6,2.1C1005.1,1545.9,1016.4,1546.4,1027.5,1545.7
		L1027.5,1545.7z M993.6,1483.5c0.1,0.2,0.1,0.4,0.2,0.6c-0.2,0-0.3-0.1-0.5-0.1C993.4,1483.8,993.5,1483.7,993.6,1483.5z"/>
	<path opacity="0.35" fill="#E8FFFA" enable-background="new    " d="M1151.6,1210.2c1,1.1,2.7,1.4,4,2c1.5,0.7,3,1.4,4.5,2.1
		c2.5,1.2,4.7-2.6,2.2-3.8c-2.9-1.3-7.3-3.7-10.5-2C1151.2,1208.9,1151.2,1209.7,1151.6,1210.2L1151.6,1210.2z"/>
	<path fill="#F7C82B" d="M988.6,1173.3v0.4c-0.2,2.1-1.7,3.8-3.6,3.8c-1,0-1.9-0.5-2.6-1.3c-0.3,0.1-0.7,0.1-1.1,0.1
		c-1,0-2-0.2-2.8-0.6c-1-0.5-1.7-1.1-1.7-1.9c0-1.4,2-2.5,4.4-2.5h0.5c0.6-1.3,1.8-2.2,3.2-2.2C987,1169.1,988.6,1171,988.6,1173.3
		L988.6,1173.3z"/>
	<path opacity="0.3" fill="#091426" enable-background="new    " d="M982.4,1176.2c0.7,0.8,1.6,1.3,2.6,1.3c1.9,0,3.4-1.7,3.6-3.8
		c-0.8,0-1.4-1.3-2.9-1.5c-1.9-0.2-1.6,0.8-2.4,2.3c-0.7,1.2-1.8,1.8-4.6,1.3c0.8,0.3,1.7,0.6,2.8,0.6
		C981.7,1176.3,982.1,1176.3,982.4,1176.2L982.4,1176.2z"/>
	<path fill="#F9C92B" d="M1080.4,1124c-1.2,0-2.3,0.2-3.3,0.5c-4.5,1.4-7.8,5.7-7.8,10.8c0,6.2,5,11.3,11.1,11.3
		c4.6,0,8.6-2.9,10.3-7.1c0.5-1.3,0.8-2.7,0.8-4.2C1091.4,1129,1086.5,1124,1080.4,1124L1080.4,1124z"/>
	<path opacity="0.3" fill="#091426" enable-background="new    " d="M1078.7,1142.9c-5-2.3-7-8.7-4.5-14.4c0.7-1.6,1.7-2.9,2.8-4
		c-4.5,1.4-7.8,5.7-7.8,10.8c0,6.2,5,11.3,11.1,11.3c4.6,0,8.6-2.9,10.3-7.1C1087.6,1143.3,1082.8,1144.8,1078.7,1142.9
		L1078.7,1142.9z"/>
	<path fill="#F9C92B" d="M912.9,1261.8c-1.5,0-2.8,1.1-2.9,2.6c-1.7,0-3.1,0.9-3.1,2c0,1,1.1,1.8,2.5,1.9h0.6c0.9,0,1.7-0.2,2.2-0.6
		c0.2,0.1,0.4,0.1,0.7,0.1c1.4,0,2.6-1,2.9-2.3c0.1-0.2,0.1-0.4,0.1-0.7C915.9,1263.1,914.6,1261.8,912.9,1261.8z"/>
	<path opacity="0.3" fill="#091426" enable-background="new    " d="M912.2,1267.7c0.2,0.1,0.4,0.1,0.7,0.1c1.4,0,2.6-1,2.9-2.3
		c-1,0.3-2.1-0.5-2.9-0.8c-1.1-0.4-2.1-0.1-1.9,1.1c0.1,1,0.3,1.9-1.6,2.5h0.6C910.9,1268.3,911.7,1268.1,912.2,1267.7L912.2,1267.7
		z"/>
	<path fill="#F8C92B" d="M1136.2,1178.6c-0.3,0-0.5,0-0.8,0.1c0-0.1-0.1-0.1-0.1-0.2c-0.1-0.1-0.2-0.3-0.4-0.4
		c-0.2-0.2-0.4-0.3-0.6-0.5c-0.5-0.3-1-0.4-1.5-0.4c-1.9,0-3.4,1.8-3.4,4.1c0,0.9,0.3,1.8,0.7,2.4c0.3,0.5,0.8,1,1.3,1.3
		c0.3,0.1,0.6,0.2,0.9,0.3h0.1h0.3h0.1c1.2,0,2.2-0.7,2.8-1.8h0.2h0.4c1,0,1.9-0.3,2.5-0.8c0.2-0.2,0.4-0.3,0.5-0.5
		c0.2-0.4,0.4-0.8,0.4-1.2C1139.6,1179.8,1138.1,1178.6,1136.2,1178.6z"/>
	<path opacity="0.3" fill="#091426" enable-background="new    " d="M1138.7,1182.8c0.2-0.2,0.4-0.3,0.5-0.5c-2.2,0.5-4,0.3-4.6-0.5
		c-0.6-0.7-0.5-2.3,0.7-3.3c-0.1-0.1-0.2-0.3-0.4-0.4c-0.2-0.2-0.4-0.4-0.6-0.5c-1,0.3-2,0.8-2.6,1.7c-1.3,2.1,0.5,5-1.7,4.4
		c0.3,0.6,0.8,1,1.3,1.3c0.3,0.1,0.6,0.2,0.9,0.3h0.1h0.3h0.1c1.2,0,2.2-0.7,2.8-1.8h0.2h0.4
		C1137.2,1183.6,1138.1,1183.3,1138.7,1182.8L1138.7,1182.8z"/>
	<path fill="#F9C92B" d="M1181,1260c-0.2,0-0.4,0-0.5,0c-0.6-1.1-1.8-1.9-3.1-1.9c-2,0-3.6,1.6-3.6,3.7c0,0.6,0.2,1.2,0.5,1.8
		c0.8-0.4,1.5-1.6,2.2-2.6c1.1-1.5,1.5-0.1,2.3,1.3c0.5,1,1.2,2,3.3,2.1c1.7-0.2,3-1.1,3-2.1C1185,1260.9,1183.2,1260,1181,1260
		L1181,1260z"/>
	<path fill="#F9C92B" d="M1178.8,1262.2c-0.8-1.5-1.2-2.9-2.3-1.3c-0.8,1-1.4,2.2-2.2,2.6c0.6,1.1,1.8,1.9,3.1,1.9
		c1,0,1.9-0.4,2.6-1.1c0.4,0.1,0.7,0.1,1.1,0.1s0.7,0,1-0.1C1180,1264.2,1179.3,1263.2,1178.8,1262.2L1178.8,1262.2z"/>
	<path opacity="0.3" fill="#F9C92B" enable-background="new    " d="M1178.8,1262.2c-0.8-1.5-1.2-2.9-2.3-1.3
		c-0.8,1-1.4,2.2-2.2,2.6c0.6,1.1,1.8,1.9,3.1,1.9c1,0,1.9-0.4,2.6-1.1c0.4,0.1,0.7,0.1,1.1,0.1s0.7,0,1-0.1
		C1180,1264.2,1179.3,1263.2,1178.8,1262.2L1178.8,1262.2z"/>
	<path opacity="0.3" fill="#091426" enable-background="new    " d="M1177.3,1265.4c1,0,1.9-0.4,2.6-1.1c0.4,0.1,0.7,0.1,1.1,0.1
		s0.7,0,1-0.1c-2-0.1-2.7-1.1-3.3-2.1c-0.8-1.5-1.2-2.9-2.3-1.3c-0.8,1-1.4,2.2-2.2,2.6C1174.9,1264.6,1176,1265.4,1177.3,1265.4
		L1177.3,1265.4z"/>
	<path fill="#F8C92B" d="M943,1206.8c-0.1,0-0.2,0-0.3,0c-1.5,0-2.8,1.4-2.8,3.1s1.2,3.1,2.8,3.1c1.3,0,2.3-0.9,2.6-2.2
		c0.1-0.3,0.1-0.6,0.1-0.9C945.5,1208.3,944.4,1207,943,1206.8L943,1206.8z"/>
	<path fill="#F8C92B" d="M967.1,1197.1c-1.4,0-2.5,1.3-2.5,2.8c0,0.6,0.2,1.1,0.4,1.6c0.5,0.7,1.2,1.2,2.1,1.2
		c1.3,0,2.3-1.1,2.5-2.5c0-0.1,0-0.2,0-0.3C969.6,1198.4,968.5,1197.1,967.1,1197.1L967.1,1197.1z"/>
	<path fill="#F8C92B" d="M1143.3,1207.4c-1,0-1.8,0.5-2.2,1.3c-0.2,0.4-0.3,0.8-0.3,1.2c0,1.4,1.1,2.5,2.5,2.5
		c1.2,0,2.1-0.8,2.4-1.8c0.1-0.2,0.1-0.4,0.1-0.7C1145.8,1208.5,1144.7,1207.4,1143.3,1207.4z"/>
	<path fill="#F8C92B" d="M1163.5,1211.6c-1.2,0-2.2,0.8-2.5,1.9c-0.1,0.2-0.1,0.4-0.1,0.7c0,1.4,1.2,2.6,2.6,2.6
		c0.8,0,1.5-0.4,1.9-0.9s0.6-1,0.6-1.7C1166,1212.7,1164.9,1211.6,1163.5,1211.6z"/>
	<path opacity="0.3" fill="#091426" enable-background="new    " d="M1163.5,1216.7c0.8,0,1.5-0.4,1.9-0.9c-1.5-1.3-3.3-2.6-4.4-2.4
		c-0.1,0.2-0.1,0.4-0.1,0.7C1160.9,1215.6,1162,1216.7,1163.5,1216.7L1163.5,1216.7z"/>
	<path opacity="0.3" fill="#091426" enable-background="new    " d="M1143.3,1212.4c1.2,0,2.1-0.8,2.4-1.8c-1.5-1.2-2.8-2.2-4.6-1.9
		c-0.2,0.4-0.3,0.8-0.3,1.2C1140.8,1211.3,1141.9,1212.4,1143.3,1212.4L1143.3,1212.4z"/>
	<path opacity="0.3" fill="#091426" enable-background="new    " d="M939.9,1209.8c0,1.7,1.2,3.1,2.8,3.1c1.3,0,2.3-0.9,2.6-2.2
		c-2.1-0.3-2.7-2-2.3-3.9c-0.1,0-0.2,0-0.3,0C941.1,1206.7,939.9,1208.1,939.9,1209.8z"/>
	<path opacity="0.3" fill="#091426" enable-background="new    " d="M967.1,1202.7c1.3,0,2.3-1.1,2.5-2.5c-0.9-0.5-2-0.8-2.8-0.3
		c-0.7,0.4-1.2,1.2-1.7,1.6C965.5,1202.2,966.2,1202.7,967.1,1202.7L967.1,1202.7z"/>
</g>
</svg>
