<?xml version="1.0" encoding="utf-8"?>
<!-- Generator: Adobe Illustrator 23.0.1, SVG Export Plug-In . SVG Version: 6.00 Build 0)  -->
<svg version="1.1" id="_x30_5_x5F_Bottom_x5F_BizSuit_x5F_Pants"
	 xmlns="http://www.w3.org/2000/svg" xmlns:xlink="http://www.w3.org/1999/xlink" x="0px" y="0px" viewBox="0 0 2000 2000"
	 enable-background="new 0 0 2000 2000" xml:space="preserve">
<g>
	<g>
		<path fill="#373740" d="M1149.2,1183.8c-0.1,0-0.2,0-0.2-0.1c0.1-0.1,0.1-0.2,0.2-0.2C1149.2,1183.6,1149.2,1183.7,1149.2,1183.8
			C1149.2,1183.7,1149.1,1183.8,1149.2,1183.8z"/>
		<path fill="#27272D" d="M1181.5,1523.8c-0.1,13.8-0.1,26.1,0,34.6c0,7.8,0,12.5,0,12.5s-10.4,4.3-43.8,7s-59.8-5.5-59.8-5.5v19.8
			c0,0-78.6,28.4-124,15.2s-52.8-29-52.8-29l1.5-7.7c0,0-52.8,7.4-64.2,5.6c-11.5-1.8-16-7.7-16-7.7l6.9-8.5
			c60.3,6,95.8-17.5,113.5-30.3s63.8-54.4,62.8-90s-16.2-65-35.7-83.5c-19.3-18.3-55.2-49.7-55.2-49.7c4-26.2,15.8-70,18.7-88.2
			c2.8-18.2,3.8-22.1,3.8-22.1c-1.3-14.2,0-18.3,0-18.3c4-2.9,13.5-7,20.3-9.8c2.7-1.1,5-2,6.3-2.5c0.9-0.3,1.4-0.5,1.4-0.5
			s0.8-1.2,2.1-2.4c1-0.8,2.2-1.7,3.7-2.2c0.3-0.1,0.6-0.2,0.9-0.2c2.7-0.4,3,1.8,3,1.8c1-0.3,2-0.6,3.2-0.9c11.6-3,29.5-5.5,33.4-6
			c0.5-0.1,0.8-0.1,0.8-0.1s0.2-2.6,2.9-4.1c0.7-0.4,1.5-0.7,2.6-0.9c1.8-0.3,3.1,0.1,4.1,0.6c1.7,1.1,2.2,2.9,2.2,2.9
			c1.1-0.2,2.1-0.4,3.2-0.7c20.8-4.1,45-5.1,45-5.1s2-3.2,8.2-3.8c1.2-0.1,2.2,0.1,2.9,0.5c3.2,1.5,3.2,6.1,3.2,6.2
			c0.2,0,0.3-0.1,0.5-0.1c16.2-4.3,32.1,1.3,34.6,2.3c0.2,0.1,0.4,0.1,0.4,0.1s0.3-1.4,2-2c1-0.4,2.5-0.5,4.7,0.1
			c1,0.3,1.8,0.6,2.4,0.9c2.8,1.4,1.3,2.8,1.3,2.8s0.5,0.1,1.4,0.2c3,0.5,10.1,2.1,14.1,5.2c1.7,1.3,2.8,2.9,2.8,4.8
			c0.1,7.2-1.5,17-1.7,18.5c-0.1,0.1-0.1,0.2-0.2,0.2c0.1,0,0.2,0,0.2,0.1c0.2,0.3,1,1.5,2,3.4c1.3,2.4,3,5.8,4.8,10.1
			c3.4,8.4,16.2,103.7,19.6,155.4S1181.6,1497.2,1181.5,1523.8z"/>
	</g>
	<path fill="#373740" d="M1121.8,1177.6c2.3,0.4,4.6,0.9,6.9,1.5c-0.2-0.1-0.3-0.3-0.1-0.5c3.3-3.4,4.2-10.3,4.3-14.8
		c0-4-1.1-7.8-1.7-11.7c-0.6-0.3-1.4-0.6-2.4-0.9c-2.2-0.6-3.7-0.5-4.7-0.1C1128,1159.1,1129,1171.8,1121.8,1177.6z"/>
	<path fill="#373740" d="M1016.5,1176.4c1.5-0.1,3-0.2,4.6-0.3c-2.6-3-2.4-8.5-2.1-11.9c0.4-4,1.2-9.2,2.9-13.5
		c-0.9-0.6-2.3-1-4.1-0.6c-1.1,0.2-1.9,0.5-2.6,0.9c-0.4,3.4-1.2,6.9-1.3,10.4C1013.7,1166.7,1014,1171.5,1016.5,1176.4z"/>
	<path fill="#373740" d="M977.3,1182.2c2.1-0.4,4.1-0.8,5.9-1.1c9.6-2,19.2-3.3,29-4.2c1-0.1,2.1-0.2,3.1-0.3
		c-3.1-3.4-3.4-8.1-3.7-12.5c-0.2-2.6-0.3-5.8,0-8.9c-3.9,0.5-21.8,3.1-33.4,6c-0.4,2.9-1.2,5.9-1.5,8.8
		C976.2,1174.1,976.3,1178.1,977.3,1182.2z"/>
	<path fill="#373740" d="M1081.3,1172.9c5.9-0.6,12.4,0.5,18.2,1.2c6.5,0.7,12.9,2,19.4,3c-0.1-0.3-0.1-0.6,0-1
		c1.7-4.1,2.1-8.8,2.6-13.3c0.3-3.3,1-6.8,0.1-10c-2.6-1-18.4-6.6-34.6-2.3c-0.9,3.8-1.8,7.6-2.7,11.4
		C1083.4,1165.5,1082.6,1169.3,1081.3,1172.9z"/>
	<path fill="#373740" d="M1134,1167.1c-0.4,2.8-1.5,11.4-5.1,12l0,0c3.6,0.8,7.1,1.8,10.7,2.6c1.5,0.4,3,0.7,4.6,1
		c-0.2-0.7-0.2-1.5,0.2-2.3c2.7-5.8,5-13.9,3.6-20.2c-4-3.1-11.1-4.7-14.1-5.2C1134.9,1158.9,1134.6,1163.3,1134,1167.1z"/>
	<path fill="#373740" d="M1023.6,1176c17.5-0.8,34.9,0,52.4,0.4c0.5,0,0.8,0.2,1.1,0.5c0.1-5.4,1.4-11.1,2.6-16.3
		c1.2-5.4,2.3-10.8,3.7-16.2c-0.8-0.4-1.7-0.6-2.9-0.5c-6.2,0.5-8.2,3.8-8.2,3.8s-24.2,1-45,5.1
		C1024,1160.3,1020.5,1168,1023.6,1176z"/>
	<path fill="#373740" d="M967.7,1184.6c2.8-1,5.8-1.6,8.6-2.2c-4.6-5.1-6.3-14.8-4.4-22.1c-0.3,0-0.6,0.1-0.9,0.2
		c-1.5,0.5-2.7,1.4-3.7,2.2c-0.6,2.5-1.3,4.9-1.5,7.5C965.4,1175.1,966.6,1179.8,967.7,1184.6z"/>
	<path fill="#373740" d="M960.7,1187.9c1.8-1.2,3.8-2.2,6-3c-2.6-4.7-2.9-9.6-3-14.9c0-1.5,0-3,0.1-4.5c-1.4,0.5-3.6,1.4-6.3,2.5
		c0,2,0.2,4.4,0.5,7.1C958.8,1181.5,959.9,1185.2,960.7,1187.9z"/>
	<path fill="#373740" d="M1119,1178.6c-6.9-1.4-14.2-2-21.3-2.6c-5.6-0.5-11.5-0.1-17-1.2c-0.6,1.5-1.2,3-2,4.4
		c-0.4,0.8-1.6,0.4-1.7-0.4v-0.1c-0.2,0.3-0.6,0.5-1.1,0.5c-19.7-1-39.5-1.1-59.2,0c-10.2,0.6-20.3,1.7-30.3,3.5
		c-8.4,1.5-17.4,3.4-25.3,7c0.4,1.7,0.6,3,0.1,4.5c-1.2,4.1-1.2,9.7-6.3,29.7c-5.2,20.1-8,86.1-8,86.1c1.3,1.1,4.5,3.7,8.2,6.8
		c4.7-21.2,7.5-47.3,9.3-61c2.1-15.8,5.2-33.9,7.3-31.2c2.2,2.8,1.3,10.6,0,27.1c-1,12.9-2.7,58.7-3.4,77.8c0.6,0.7,1.1,1.4,1.5,2
		c4,6.2,6.2,16.6,7.7,20s1.5,3.4,1.5,3.4s11.2,4.9,19.9,16.6c0.1-0.9,0.2-1.7,0.4-2.5c0.4-2.9,0.8-5.7,1.7-8.5
		c0.2-0.7,1.3-0.4,1.1,0.3c-0.7,3.1-1,6.2-0.8,9.4c0.1,1.8,0.4,3.6,0.4,5.4c1.2,1.9,2.4,3.7,3.6,5.5c0.2-1,0.5-2,0.7-2.9
		c0.1-0.7,1.4-0.5,1.3,0.2c-0.2,1.4,0.1,2.7,0.2,4.1c0.1,0.7,0.2,1.4,0.2,2.1c6.7,10.1,12.6,20,14,33c1.8,17.2,3.5,17.8,2.8,29.8
		c-0.7,11.7-1.3,15.8-1.7,21.7c-0.4,5.9-7.9,34-25.3,53.8c-5.4,6.2-9.1,10.2-11.8,13.2c-0.5,5.5-1.2,10.9-2.1,16.5
		c-1.5,9.3-2.5,18.7-2.4,28.1c0,1.4-2.2,1.4-2.2,0c-0.2-8.7,0.7-17.3,2-25.9c0.8-5.6,1.8-11.1,2.8-16.7c-4.7,5.1-6.8,7.4-12.6,15.4
		c-9.5,13.1-13.8,12.8-19.5,24.3S944,1599,944,1599s15.3,5.1,24.5,8.2s19.2-0.5,29,0s22-5.5,34.3-6.4c12.3-1,41.2-10.9,41.2-10.9
		s0.8-15.5,4.3-46.9s9.7-95.5,8.2-130.1s-3.2-101.5-6.5-123.7c-3.2-22.2-6-23.1-5.2-27.7s5.2,4.9,6.3,10.7
		c1.1,5.8,2.6,33.3,4.3,51.3s3.2,52.8,5.2,74.3s6,56.8,9.8,99.3c3.8,42.6,5.5,69.7,5.8,72s37.2,3.1,49.5,2.5s24.3-6.2,24.3-6.2
		s-2.2-5.6-4.5-18.2c-2.2-12.6-4.7-39.2-1.9-37.8c2.5,1.3,1.9,28.7,8.5,48.8c0-8.5,0-20.7,0-34.6c0.1-26.5-2.6-119.2-6-171
		s-16.1-147-19.6-155.4c-1.7-4.3-3.5-7.7-4.8-10.1c-4.6-1.5-9.1-3.6-13.7-4.8C1131.4,1180.9,1125.1,1179.8,1119,1178.6z"/>
	<path fill="#27272D" d="M1006.3,1245.2c-0.1,14,0.4,28,0.1,41.9c-0.2,6.8-0.4,13.7-0.7,20.5c-0.3,7-1.5,14.4-1,21.4
		c0.1,1.1,1.8,1.5,2.1,0.3c1.4-6.3,1.3-13.3,1.6-19.8c0.3-7.1,0.5-14.3,0.6-21.5c0.2-14.3,0.2-28.6-1.2-42.9
		C1007.7,1244.2,1006.3,1244.2,1006.3,1245.2L1006.3,1245.2z"/>
	<path fill="#27272D" d="M1047.4,1245.9c2.8,1.6,5.4,3.4,8.2,5c2.9,1.6,5.9,2.9,8.4,5.3c1.6,1.5,3.6-1,1.8-2.4
		c-5.4-4.1-12-6.1-18.3-8.4C1047.3,1245.3,1047.1,1245.8,1047.4,1245.9L1047.4,1245.9z"/>
	<path fill="#27272D" d="M1050.8,1266.7c2.7-0.5,5.4-1.9,8.1-2.7c3.5-1.1,7.4-1.3,10.8-2.7c0.8-0.4,0.6-1.7-0.2-1.9
		c-3.3-0.7-7,0.4-10.1,1.3c-1.5,0.5-3.1,1-4.6,1.7c-0.9,0.4-3.6,3-4.1,3.1C1049.7,1265.5,1049.9,1266.9,1050.8,1266.7L1050.8,1266.7
		z"/>
	<path fill="#27272D" d="M1084.3,1258.2c3.1,0.2,6.3-2.9,8.8-4.6c3.5-2.3,7-4.7,10.3-7.2c1.3-1,0.2-3.1-1.3-2.2
		c-3.8,2.3-7.5,4.8-11.1,7.3c-2.5,1.7-6.2,3.3-7.2,6.2C1083.8,1258,1084.1,1258.2,1084.3,1258.2L1084.3,1258.2z"/>
	<g>
		<g>
			<path fill="#27272D" d="M1101,1246.7C1101.1,1246.7,1101.1,1246.6,1101,1246.7C1100.9,1246.6,1100.9,1246.7,1101,1246.7
				L1101,1246.7z"/>
		</g>
	</g>
	<path fill="#27272D" d="M1091.9,1258.7c0.4,0.1,0.6,0.3,1,0.3c0.6,0,1.2-0.1,1.8-0.1c1.2,0,2-0.1,2.9-1c0.2-0.2,0.3-0.7,0-0.9
		c-1-0.9-1.9-0.9-3.2-0.5c-0.6,0.2-1.2,0.3-1.7,0.5c-0.6,0.3-0.6,0.5-1,0.9C1091.5,1258.2,1091.6,1258.6,1091.9,1258.7
		L1091.9,1258.7z"/>
	<path fill="#27272D" d="M1085,1262.9c1,0.5,1.6,1.2,2.7,1.4c1.4,0.3,2.9,0.1,4.2,0.2c2,0.1,4.9,1.3,6.6,0.1
		c0.2-0.1,0.2-0.3,0.1-0.5c-1.2-1.3-3.6-1.9-5.3-2.1c-1.2-0.1-2.4-0.1-3.6-0.1c-1.3,0-3,0.3-4.3,0.1
		C1084.9,1262,1084.6,1262.6,1085,1262.9L1085,1262.9z"/>
	<g>
		<g>
			<path fill="#27272D" d="M1120.9,1176.5c0.1,0,0.1-0.1,0.2-0.1c0.4-0.2-0.2-0.8-0.4-0.4c0,0.1-0.1,0.1-0.1,0.2
				C1120.5,1176.4,1120.8,1176.6,1120.9,1176.5L1120.9,1176.5z"/>
		</g>
	</g>
	<g>
		<g>
			<path fill="#27272D" d="M1143.1,1216.9C1143.2,1216.9,1143.2,1216.8,1143.1,1216.9C1143,1216.8,1143,1216.9,1143.1,1216.9
				L1143.1,1216.9z"/>
		</g>
	</g>
	<g>
		<g>
			<path fill="#27272D" d="M1143,1217.4c0.1,0.3,0.2,0.5,0.4,0.8c0.1,0.1,0.2,0.1,0.2-0.1c0-0.3-0.1-0.6-0.2-0.9
				C1143.3,1217,1142.9,1217.2,1143,1217.4L1143,1217.4z"/>
		</g>
	</g>
	<g>
		<g>
			<path fill="#27272D" d="M1143.1,1218.5c0.1,0.3,0.2,0.6,0.4,0.8c0.1,0.2,0.4,0.1,0.4-0.1c0-0.3-0.1-0.6-0.2-0.9
				C1143.6,1218,1143,1218.2,1143.1,1218.5L1143.1,1218.5z"/>
		</g>
	</g>
	<path fill="#27272D" d="M1143.1,1219.1c2.2,9.4,3.4,18.9,5.4,28.3c1.7,8.5,3.8,16.9,5,25.5c1.3,9.1,1,18.3,1.5,27.5
		c0.3,4.5,0.8,9,1.2,13.5c0.4,4.6,0.2,9.3,1.6,13.7c0.2,0.5,1,0.6,1.1,0c0.8-4.5,0.1-9.1-0.1-13.7c-0.2-4.5-0.2-9-0.5-13.5
		c-0.6-8.7-1.4-17.6-2.7-26.2c-2.9-18.6-8.5-36.7-11.9-55.2C1143.7,1218.5,1143,1218.7,1143.1,1219.1L1143.1,1219.1z"/>
	<path fill="#27272D" d="M1164.8,1363.3c0.1,10.6,1.4,21.2,2.1,31.7c0.7,10.9,1.2,21.8,1.8,32.7c1.1,21.5,2.2,43.1,2.5,64.6
		c0,0.5,0.8,0.5,0.8,0c0.1-21.9,0.1-43.7-0.8-65.6c-0.5-10.6-1.2-21.2-2-31.8c-0.8-10.6-1.1-21.4-3-31.9
		C1166.1,1362.2,1164.8,1362.4,1164.8,1363.3L1164.8,1363.3z"/>
	<g>
		<path fill="#27272D" d="M1069.5,1174.8c-7.5,0.7-7.8,2.9-7.6,12.3c0.1,9.3,7.1,56.7,7.6,61.7s2.4,5.2,4.9,1.8s9.4-11,9.5-13.9
			s-2-28.4-3-40.5S1080.1,1173.8,1069.5,1174.8z"/>
		<path fill="#373740" d="M1067.8,1178.2c-3.8,0.8-3-0.1-3.4,7.3s5.1,46.3,6.4,53.5s1.4,8.6,1.4,8.6s7.3-7.9,8.2-10.9
			c0.8-3-0.3-8.4-1-20.1s-2.4-34.7-3.2-36.8S1067.8,1178.2,1067.8,1178.2z"/>
	</g>
</g>
</svg>
