<?xml version="1.0" encoding="utf-8"?>
<!-- Generator: Adobe Illustrator 21.0.2, SVG Export Plug-In . SVG Version: 6.00 Build 0)  -->
<svg version="1.1" id="Layer_1" xmlns="http://www.w3.org/2000/svg" xmlns:xlink="http://www.w3.org/1999/xlink" x="0px" y="0px"
	 viewBox="0 0 2000 2000" enable-background="new 0 0 2000 2000" xml:space="preserve">
<g>
	<path fill="#0F1342" d="M1090.6,1449.2c-8.1-4.8-21.6-37.5-21.6-37.5l32.9,14.6l-2.2,23L1090.6,1449.2L1090.6,1449.2z"/>
	<path fill="#101535" d="M1131.8,1458.1c12.8,16,34.3,44,34.3,44s-6,49-8.7,71.1c0,0,13,2,38.7-14.1s32.8-29.5,33.9-37.8
		c1.1-8.4-55.3-62.5-55.3-62.5L1131.8,1458.1z"/>
	<path fill="#281858" d="M1006.4,1430.3c19.3-13,35.5-34.2,35.5-34.2s4.5,6.5,17.1,15.4s30.4,17.7,35.5,23.6s-3.9,14.1-3.9,14.1
		s7.6,6.1,16.6,8.3s8.8,6.2,19,5.6c10.2-0.5,33.1,0.7,49.9,8.6s14.8,19.9,6.5,25c-8.2,5.1-13.7,4.8-14.3,8
		c-0.6,3.3,5.2,6.3,16.3,5.8s39,0.5,45.2,10.7c0,0,2.7-11.9-5.8-30.6s-17-39.4-23.8-63.6c-6.8-24.1-16.6-63-19.8-82.1
		s-7.5-41.3-11.3-61s-7.8-48.8-10.6-68.9s-5.7-39.8-5.7-39.8s-101.9-15.5-136.5-5.9s-77.5,22.4-77.5,22.4s-4.2,10.9-8.1,23.5
		s-16,48.7-19.4,59c-3.3,10.2-6.9,23.5-6.9,23.5s11.4,9.5,23.2,21s33.4,31.2,45.9,44.4s22.4,25.8,27.7,43.4
		C1006.6,1423.5,1006.4,1430.3,1006.4,1430.3L1006.4,1430.3z"/>
	<path fill="#1E164B" d="M993.2,1179.8C993.2,1179.7,993.2,1179.7,993.2,1179.8C993.2,1179.7,993.2,1179.7,993.2,1179.8z"/>
	<path fill="none" d="M993.2,1179.8C993.2,1179.7,993.2,1179.7,993.2,1179.8C993.2,1179.7,993.2,1179.7,993.2,1179.8z"/>
	<path fill="#0F1342" d="M1066,1206c2.2-5-1.8-24.2-1.8-24.2l-31.8-10.6l-21.3,7.6c8.8,5.9,18.1,19.7,33.7,28.7
		S1063.8,1211,1066,1206L1066,1206z"/>
	<path fill="#0F1342" d="M1041.9,1396c-14.4-17.8-14.7-19.5-14.7-19.5s12.9-15.4,14.7-25.8s-35.4-168.5-35.4-168.5l-7.3,1.7
		c0,0,5.9,66.5,8.8,101.7c2.8,34.6,10.2,76.9,10.4,78.2c-0.3-0.7-7.4-16.6-10.6-29.6c-3.3-13.3-2.7-81-8.6-116.6
		c-3.4-20.4-4.8-29.9-5.5-34.3l0.5-7.8c-28.3,8.1-55.2,16.1-55.2,16.1s-1.7,4.6-4,11.2c7.3,22.1,24.3,20.4,31.8,15.7
		c7-4.4,15.7-16.8,23.1-23.8c-4.7,11.7-26.9,61-22.5,97.7c0,0,4.5,8.9,14.4,21.6s14.4,14.7,18.3,24.8c3.5,9,18.3,44.5,32.6,68.2
		C1038.4,1400.7,1041.9,1396,1041.9,1396L1041.9,1396z M993.2,1179.6L993.2,1179.6L993.2,1179.6z"/>
	<path fill="#1E164B" d="M993.2,1179.8C993.2,1179.7,993.2,1179.7,993.2,1179.8C993.2,1179.7,993.2,1179.7,993.2,1179.8z"/>
	<path fill="#0F1342" d="M1057.6,1352c13.1,22.1,20,42.4,29.6,64.7c3.2,7.6,9.4,16.9,8.1,25.5c11.8-15.7-3.9-37.9-10.8-52.2
		c-13-26.9-25.1-38.3-39.9-64.2C1048,1331.7,1055.1,1347.8,1057.6,1352L1057.6,1352z"/>
	<path fill="#0F1342" d="M1016.3,1180.5c8.9,8.9,13.9,22,20.6,32.5c4.7,7.4,9.5,14.7,14.4,21.9c4.1,6,7.4,18.2,15.1,20.5
		c-0.2-6.9-4.4-13.1-7.9-18.7C1046.1,1216.8,1032.3,1197.7,1016.3,1180.5L1016.3,1180.5z"/>
	<path fill="#0F1342" d="M1075.4,1273.2c3.3,7.3,9.7,16.3,10.5,17.9c13,22.9,24.2,46.1,34.5,70.3c10.4,24.5,21.2,51.6,33.3,75.3
		c4.4,8.7,14.8,25.1,19.3,33.8c4.4,8.6,9.8,11.3,15.5,19.2c-2.6-28.6-23.4-52.4-34.3-73.9c-11.9-23.5-23.3-47.2-35.1-70.8
		c-7.3-14.6-15.1-27-22.9-41.3c-6-11.2-13.3-21.9-19.5-33c-0.7-1.2-4.7-7.4-4.7-7.4C1070.8,1264.8,1074.7,1271.7,1075.4,1273.2
		L1075.4,1273.2z"/>
	<path fill="#0F1342" d="M1014.3,1181.4c3.9,6.6,7.7,13.2,11.6,19.8c4,6.8,9.5,14.7,9.1,22.9c-1.9-1.6-3.3-4.2-4.8-6.2
		c-2.7-3.6-4.3-8.5-6.2-12.6c-2.4-5.2-4.8-10.4-7.1-15.6c-1.5-3.3-3.1-6.7-4.6-10C1012.2,1179.7,1014.3,1181.4,1014.3,1181.4
		L1014.3,1181.4z"/>
	<path fill="#CBBFEF" d="M1121.6,1246.9c0,0.9-0.3,4.8-0.5,5.6c0,0.3-8.1-1.3-8.1-1c-1.2,6.9-5.9,11.5-13.8,12.1
		c-8.5,0.7-17.8-8.2-18.1-16.7c0-0.1-9.9-1.5-9.9-1.7c0-1.7,0.3-3.2,0.8-4.7c0.1-0.3,10,0.8,10.1,0.5c2.4-5.8,8.4-9.8,15.1-9.8
		c8,0,15.1,6.5,16,14.3L1121.6,1246.9z"/>
	<path fill="#CBBFEF" d="M1115.4,1196.4c0,0.9-0.1,3.5-0.3,4.4c0,0.2-8.7-0.7-8.7-0.4c-1.6,6.7-7.6,11.5-14.4,11.5
		c-7.7,0-16.6-7.4-17-15.7c0-0.2-8.4-0.7-8.4-0.8c0-1,0.3-3.1,0.5-4.1c0-0.1,8.5,0.5,8.5,0.4c1.7-6.7,8.3-11.1,15-11.1
		c7.4,0,15.2,6.7,16.2,14.5L1115.4,1196.4z"/>
	<path fill="#CBBFEF" d="M1100.2,1317.8c-2-3.7-3.6-7.9-5.4-11.3"/>
	<path fill="#907CCB" d="M1094.8,1305.6v0.8c1.8,3.5,3.4,7.6,5.4,11.3c1.6,1.5,3.6,2.6,5.7,3.3c-3.4-6.5-7.4-12.4-10.8-18.9
		C1094.9,1303.3,1094.8,1304.4,1094.8,1305.6L1094.8,1305.6z"/>
	<path fill="#CBBFEF" d="M1111,1289.4c-7.8,0-14.2,5.5-15.8,12.7c3.4,6.5,7.4,12.4,10.8,18.9c1.6,0.5,3.2,0.8,5,0.8
		c7.4,0,13.7-5,15.6-11.8c0.1-0.3,8.2,1.2,8.3,0.9c0.3-1.2,0.8-4,0.8-5.2l-8.4-1.3C1126.6,1296.1,1119.5,1289.4,1111,1289.4z"/>
	<path fill="#CBBFEF" d="M1143.1,1261.1l7.6,4c-0.2,8.4,7.5,18.9,15,18.9c1.5,0,2.3,0,3.6-0.5c-1.9-10.4-3.4-21.1-5.3-31.6
		c-5.8,0.3-9.6,2.3-11.8,7c-0.1,0.3-7-3-7.1-2.7C1144.8,1257.2,1143.3,1259.7,1143.1,1261.1L1143.1,1261.1z"/>
	<path fill="#CBBFEF" d="M1162.5,1322.5c-0.6,9,7.7,20.1,15.8,20.1c0.9,0,1.2,0.2,2,0c-1.9-11.7-4.2-23.4-6.4-35
		c-4.2,1-7.7,3.4-9.7,7.6c-0.1,0.3-8.4-3.2-8.5-2.9c-0.6,1.5-2.1,5.3-2.1,5.3L1162.5,1322.5z"/>
	<path fill="#CBBFEF" d="M1139.4,1209c0,0,6.7,3.2,6.6,3.5c-1.7,8.6,6.7,19.4,14,19.4c0.5,0,0.6,0.1,1,0c-1.5-9.9-2.7-20.7-4.3-30.3
		c-4,0.6-6.9,2.7-8.8,6c-0.1,0.2-6.9-3.2-6.8-3.4C1141.2,1204.1,1139.8,1207.8,1139.4,1209L1139.4,1209z"/>
	<path fill="#CBBFEF" d="M1169.2,1386.8c0,0,8.9,3.8,8.9,4.4c-0.4,9.5,9.2,20.5,17.3,20.5h0.7c-2.9-11.8-6.2-23.3-8.8-35.1
		c-4.1,1.2-6.4,4-7.9,8.4c-0.1,0.3-7.5-2.8-7.7-2.6C1171.1,1383.1,1169.5,1385.7,1169.2,1386.8L1169.2,1386.8z"/>
	<path fill="#CBBFEF" d="M1207.2,1448.8c-3.2,2.6-5.8,6.1-6.2,10.6c0,0-8.4-1.8-8.6-1.5c-0.5,0.8-1.9,4.2-1.6,5.2
		c0,0,10.7,1.8,10.7,1.9c2,8,10,16.4,17.9,14.9c0,0-0.9-1.9-1.1-2.6C1215.3,1467.6,1210.5,1458.1,1207.2,1448.8L1207.2,1448.8z"/>
	<path fill="#CBBFEF" d="M1109.7,1412.7c3,0,12,1.2,12,1.5c0.9,10.2,12.6,24,26.2,23.4c2.2-0.1,4.1-0.4,5.8-0.9
		c-0.6-1.3-1.2-2.6-1.8-4c-2.2-4.9-18.1-7.6-20.3-12.5c-1.8-4.1,10-10.5,8.1-14.6c-0.6-1.4-1.3-2.9-1.9-4.3
		c-7.5-0.6-12.7,0.8-15.2,6.7c-0.1,0.1-11.2-1.6-12.3-1L1109.7,1412.7z"/>
	<path fill="#CBBFEF" d="M1083.5,1344l11.8,3.1c1,9,7.7,20.2,19.4,20.9c2.8,0.2,5.7-0.8,7.9-2.2c-0.4-1-0.9-2-1.3-3
		c-2.2-4.9-15.3-5.3-17.5-10.1c-1.9-4,7-12.3,5.1-16.3c-0.5-1.1-1.1-2.2-1.6-3.4c-5-0.4-9.1,0.6-11,5.8c-0.1,0.2-7.5-3-12.2-2.8
		C1084,1336.2,1083.7,1342.5,1083.5,1344L1083.5,1344z"/>
	<path fill="#CBBFEF" d="M1057.6,1352c-2.1-1.3-4.6-2.4-7.5-3c-11-2.4-17,4-17,14.1s10.4,21.7,21.6,21.7
		c12.3,0.1,13.5-8.3,13.6-12.7C1064.7,1365.4,1061.2,1358.7,1057.6,1352z"/>
	<path fill="#CBBFEF" d="M1032.4,1233.4c1.2,0,9.7,0.1,9.7,0.2c2.4,6.8,9.6,15,16.5,15c0.3,0,0.7,0,1-0.1c-1-1.6-2-3.1-3-4.7
		c-2.1-3.3-6.6-4.3-8.7-7.6c-1.7-2.7-1.1-7.6-2.8-10.3c-0.7-1.2-1.5-2.3-2.2-3.5c-0.8,1.2-1.4,2.5-1.6,4c0,0.1-9.2,0.5-9.2,0.6
		C1031.9,1228.2,1032.4,1233.4,1032.4,1233.4L1032.4,1233.4z"/>
	<path fill="#CBBFEF" d="M1055.3,1282.9c1.6,0.2,11.8,0.9,11.8,1.1c1.1,9.9,8.9,23.3,21.6,21.7c2.1-0.3,3.4-0.9,4.2-1.8
		c-0.6-1.2-1.3-2.4-1.9-3.6c-2.1-4-10.9-4.6-13.1-8.5s2-11-0.3-14.9c-0.8-1.2-1.5-2.5-2.3-3.7c-4-0.7-6.7,0.1-7.8,4
		c0,0.1-11.8-0.7-11.9-0.6C1054.3,1278,1055.1,1282.9,1055.3,1282.9L1055.3,1282.9z"/>
	<path fill="#CBBFEF" d="M973.8,1303c-2.3,1.7-3.8,3.6-4.6,6.6c-0.1,0.3-10.1-4-10.1-3.7c-0.3,1.3-2.5,5.9-2.5,5.7
		s11.5,4.7,11.5,4.9c0.5,9.9,10.1,20.6,21.5,20c4-0.2,6.5-1.1,8.3-2.2C993.1,1322.5,982.5,1312.2,973.8,1303L973.8,1303z"/>
	<path fill="#907CCB" d="M1005.9,1319.2c0-10.1-7.7-19.7-19.4-19.7c-5.4,0-9.7,1.2-12.7,3.4c8.7,9.1,19.3,19.5,24.2,31.3
		C1002.1,1331.3,1005.9,1325.5,1005.9,1319.2L1005.9,1319.2z"/>
	<path fill="#CBBFEF" d="M981,1368.7c-0.8,0-1.5,0.1-2.2,0.2c8.5,9.5,14.6,19.6,19.7,30.9c1.3-1.8,2.3-3.9,2.9-6.1
		c0-0.1,11.3,2.2,11.3,2.1c0.3-1.3,1.1-6.1,1.1-6.1c-1-0.6-12-2.4-12.2-3.4C999.8,1377.1,989.3,1368.7,981,1368.7z"/>
	<path fill="#CBBFEF" d="M912.9,1266.8c-3.5,10.7-6.8,21.4-10,32.2c2.6,1.6,5.7,2.5,9,2.5c5,0,9.5-2.1,12.7-5.5
		c0.1-0.1,10.5,4.9,10.7,4.8c1.7-0.9,3.1-4.1,3.8-5.6c0.1-0.2-10.9-4.7-10.9-4.9c0.7-1.9,1.1-4,1.1-6.2
		C929.3,1274.8,922,1267.3,912.9,1266.8L912.9,1266.8z"/>
	<path fill="#CBBFEF" d="M930.5,1215.9c-3.5,9.5-6.9,19.1-10.2,28.7c1.7,0.8,3.6,1.3,5.6,1.3c5.5,0,10.1-3.1,12.4-8.2
		c0.1-0.1,8.6,3,8.7,2.9c1.1-1.2,2.1-3.2,2.5-4.8c0-0.2-9.7-3.7-9.7-3.9c0-0.4,0-0.8,0-1.3C939.9,1223.7,935.9,1218,930.5,1215.9z"
		/>
	<g>
		<path fill="#281858" d="M1151.4,1212c-1.7,6,3.5,14.7,8.9,14.7h0.2c-1.1-7.1-2-14.6-3-21.1
			C1154.2,1206.3,1152.5,1208.2,1151.4,1212z"/>
		<path fill="#281858" d="M1156.3,1264.8c-1.3,5.9,4.5,14,10.1,14c1,0,1.2,0,2.1-0.2c-1.3-7.1-2.2-14.5-3.4-21.6
			C1160.1,1257.3,1157.4,1259.5,1156.3,1264.8L1156.3,1264.8z"/>
		<path fill="#281858" d="M1168,1323.1c-0.5,6.7,5.5,14.8,11.5,14.8c0,0-3-16.8-4.6-25.3C1171,1314.1,1168.4,1317.3,1168,1323.1z"/>
		<path fill="#281858" d="M1184,1390c-1.3,6.8,4.9,15.8,10.9,16.6c-2-8.3-4.4-16.1-6.2-24.4C1185.8,1383.6,1184.8,1385.7,1184,1390
			L1184,1390z"/>
		<path fill="#281858" d="M1205.2,1462.8c3.2,12,8.9,12.8,12.7,13.4c-2.2-7.1-7.1-17.4-9.5-24.1
			C1205.9,1453.7,1204.5,1460,1205.2,1462.8z"/>
		<path fill="#281858" d="M1128.3,1412.9c-1.8,7.8,8.3,20.8,19.9,20.2c1.3-0.1,2.6-0.3,3.7-0.5c-4.1-9-8.1-18.1-12.1-27.1
			C1133.8,1405.1,1129.7,1406.8,1128.3,1412.9z"/>
		<path fill="#281858" d="M1100.8,1343.5c-1.2,7.5,4.3,19.9,16.1,20.6c1.6,0.1,3.4-0.2,4.5-1.2c-4.3-9.3-8-17.2-12.5-26.5
			C1104.8,1335.9,1101.7,1337.7,1100.8,1343.5z"/>
		<circle fill="#281858" cx="1111" cy="1305.6" r="11.1"/>
		<path fill="#281858" d="M1108.4,1247.3c0,6-3.5,10.9-9.9,11.3c-6,0.5-12.6-5.9-12.6-11.9s5.2-10.6,11.2-10.6
			C1103.1,1236.2,1108.4,1241.3,1108.4,1247.3z"/>
		<path fill="#281858" d="M1102.1,1196.2c0,5.9-4.9,10.7-10.4,10.7s-11.9-5.5-11.9-11.4s5.4-10.6,11-10.6
			C1096.2,1184.9,1102.1,1190.3,1102.1,1196.2z"/>
		<path fill="#281858" d="M1044.8,1229.9c0.5,5.3,6,13.4,11.8,13.9c-3.9-6-7.7-11.9-11.5-18
			C1044.8,1227.2,1044.7,1228.5,1044.8,1229.9z"/>
		<ellipse fill="#281858" cx="1023.2" cy="1267.9" rx="12.2" ry="12.7"/>
		<path fill="#281858" d="M1062.2,1369.9c0,2.8-0.6,8.7-8.9,8.6c-7.3,0-14.1-7.6-14.1-14.2s3.9-10.8,11.1-9.2
			C1058.8,1357,1062.2,1364.4,1062.2,1369.9L1062.2,1369.9z"/>
		<path fill="#281858" d="M995.4,1389.9c0-6.8-6.2-13.7-12.6-16.3c4.8,6.1,8.8,12.4,12.3,19.1
			C995.3,1391.8,995.4,1390.8,995.4,1389.9L995.4,1389.9z"/>
	</g>
	<path fill="#0F1342" d="M1000.6,1318.9c0-7.3-5.5-14.2-14-14.2c-3.9,0-7,0.9-9.2,2.5c6.4,7.3,12.9,14.1,18.1,22.2
		C998,1327.2,1000.6,1322.9,1000.6,1318.9L1000.6,1318.9z"/>
	<path fill="#281858" d="M977.5,1307.2c-2.5,1.9-3.9,4.9-3.9,8.8c0,7.3,6.9,15.7,15.3,15.3c3.4-0.2,5-0.8,6.7-1.9
		C990.3,1321.4,983.9,1314.5,977.5,1307.2L977.5,1307.2z"/>
	<path fill="#907CCB" d="M990,1243.4c-9.1,0-16.5,7.3-16.5,16.2c0,9,7.4,16.2,16.5,16.2c5.7,0,10.8-2.9,13.8-7.2
		c-0.2-6.5-0.6-12.9-1.1-19.4C999.6,1245.6,995.1,1243.4,990,1243.4L990,1243.4z"/>
	<path fill="#281858" d="M929.2,1219.3c-2.6,7.1-5.1,14.1-7.5,21.3c0.9,0.3,1.8,0.4,2.8,0.4c5.8,0,10.4-5.1,10.4-11.5
		C934.9,1225.1,932.6,1221.2,929.2,1219.3L929.2,1219.3z"/>
	<path fill="#281858" d="M911.6,1270.8c-2.7,8.4-5.3,16.9-7.8,25.3c1.8,0.9,3.7,1.4,5.8,1.4c7.4,0,13.4-6,13.4-13.4
		C923,1277.3,918.1,1271.7,911.6,1270.8z"/>
	<path fill="#281858" d="M1071.7,1283.8c0,7.6,6.1,18.9,16.4,17.7c1.4-0.2,2.3-0.6,2.9-1.1c-4.3-8-8.8-15.8-13.5-23.4
		C1073.8,1276.4,1071.7,1277.8,1071.7,1283.8z"/>
	<path fill="#907CCB" d="M1124.2,1360.5c-1.6,0-2.9,0-3.9,0.5c0.5,1.1,1.1,2.3,1.6,3.5c1.4,3.1,7.3,4.2,10.8,6.4
		c-1.7-3.4-3.5-6.7-5.2-10C1126.4,1360.6,1125.3,1360.5,1124.2,1360.5z"/>
	<path fill="#907CCB" d="M1132.8,1389.9c0.6,1.5,1.3,3,1.9,4.5c2.8-1,5-2.9,6.5-5.6c-1.9-4.3-3.9-8.6-6-12.9
		C1134.9,1380.4,1131.3,1386.3,1132.8,1389.9z"/>
	<path fill="#CBBFEF" d="M1127.5,1360.8c1.8,3.3,3.5,6.6,5.2,10c1,0.7,1.8,1.4,2.2,2.3c0.3,0.8,0.4,1.7,0.3,2.7
		c2.1,4.3,4.1,8.6,6,12.9c1.6-2.8,2.5-6.4,2.7-10.4l8,1.6c0,0.2,1.1-4.8,1.1-4.8c-0.1-0.2-9.6-2.2-9.7-2.4
		C1141.2,1366.7,1133.9,1362.1,1127.5,1360.8L1127.5,1360.8z"/>
	<path fill="#0F1342" d="M1129.7,1366.4c-2.5-1.2-5.3-1.9-7.7-2c3.9,8.7,7.1,16.9,10.9,25.8c2.3-1.7,4.1-4.2,4.9-7.4
		C1135.9,1377.1,1133,1371.6,1129.7,1366.4L1129.7,1366.4z"/>
	<path fill="#281858" d="M1138.2,1377.9c-0.3-5.4-4.1-9.3-8.6-11.5c3.4,5.1,6.2,10.7,8.1,16.4
		C1138.1,1381.3,1138.3,1379.7,1138.2,1377.9z"/>
	<path fill="#907CCB" d="M1166.3,1458.6l6.3-1.3c0.6-0.1,1.1,0.2,1.3,0.7l1,3.6c0.2,0.6-0.2,1.2-0.8,1.3l-4.8,1L1166.3,1458.6z"/>
	<path fill="#CCB9E8" d="M969.5,1246l-1.9,5.7l2.6,1.5c0.4-2.2,0.6-4.4,1.3-6.4L969.5,1246z"/>
	<path fill="#907CCB" d="M977.3,1249.4l-5.8-2.5c-0.7,2-0.9,4.1-1.3,6.4l5.8,3.3L977.3,1249.4z"/>
	<path fill="#907CCB" d="M988.7,1208.1l-3.3-2.3c-0.9,1.6-1.6,3.3-2.3,4.9l3.5,2.8L988.7,1208.1z"/>
	<path fill="#CBBFEF" d="M982.7,1203.9l-3.1,3.8l3.6,3c0.6-1.6,1.4-3.3,2.3-4.9L982.7,1203.9z"/>
	<path fill="#CBBFEF" d="M949,1267.5l2.2-6.2l3.6,1.2l-1.5,6.2l7,2.4l-1.3,3.8l-6.4-1.9l-2.4,8l-4-0.7l1.5-8.3l-5.9-1.2l0.9-4
		L949,1267.5z"/>
	<path fill="#CBBFEF" d="M938.3,1328.6l1.6-6.8l4.1,1.2l-1.7,7.7l7,2.5l-1.5,4.5l-4.4-4.3L938.3,1328.6z"/>
	<path fill="#907CCB" d="M965.5,1216l1.8-6.1l-3.6-1.4l-2.5,6l-6.3-1.1l-1.1,3.9l5.8,1.6l-0.4,1.9c3.8-0.7,7.1-1.4,10-3.3
		L965.5,1216z"/>
	<path fill="#CBBFEF" d="M959.2,1220.8l-1.5,6.3l4,0.9l2.8-7.8l6.3,2.3l1.5-3.7l-3.1-1.2C966.3,1219.4,962.9,1220.1,959.2,1220.8
		L959.2,1220.8z"/>
	<path fill="#CBBFEF" d="M1006.8,1357.4l-0.4,4l3.9,0.4c-0.7-1.5-1.3-2.9-2-4.4H1006.8z"/>
	<path fill="#CBBFEF" d="M1014.1,1370.5c-0.7-1.5-1.3-3-2-4.5l-0.3,4.4L1014.1,1370.5z"/>
	<path fill="#907CCB" d="M1015.9,1370.6l1.4-8.2l0.4,0.1c-1.5-2.8-2.7-5.7-3.8-8.7l-0.8,3.6h-5c0.7,1.5,1.4,2.9,2,4.4l2.1,0.2
		l-0.2,4c0.7,1.5,1.3,3,2,4.5L1015.9,1370.6z"/>
	<path fill="#CBBFEF" d="M1089.8,1381l7-0.2l0.2-4l-7.5,0.3l-0.5-6.8l-4.1,0.2v6.7l-4.5,0.8c0.7,1.3,1.5,2.7,2.2,4.1l2.6-0.2
		l0.5,6.4c0.2,0.4,0.4,0.8,0.6,1.3l3.3,0.1L1089.8,1381z"/>
	<path fill="#CBBFEF" d="M1086,1389.5h0.5c-0.2-0.4-0.4-0.8-0.6-1.3L1086,1389.5z"/>
	<path fill="#907CCB" d="M1079.1,1382.4l1.7-0.1c-0.5-1.1-1.1-2.3-1.9-3.3L1079.1,1382.4z"/>
	<path fill="#CBBFEF" d="M1080.5,1378l-1.8,0.3v0.6c0.8,1,1.4,2.2,1.9,3.3l2-0.2C1082,1380.7,1081.2,1379.3,1080.5,1378L1080.5,1378
		z"/>
	<path fill="#CBBFEF" d="M1059.1,1313.6l0.1-6.8l3.8-0.4l0.6,6.7l7.4-0.3l-0.1,4l-7.1,0.7l-0.3,8.3l-4,0.6l-0.3-8.4l-6,0.6l-0.6-3.7
		L1059.1,1313.6z"/>
	<path fill="#CBBFEF" d="M1099.6,1416l-2.1-5.8c0,0-1,0.5-2.4,1.1c0.8,2.1,1.6,4,2.3,5.8C1098.7,1416.5,1099.6,1416,1099.6,1416z"/>
	<path fill="#907CCB" d="M1095.1,1411.4c-2.2,1.1-5.3,2.5-5.3,2.5c0.1,0-1.6-2.8-1.9-3.1c-0.9-0.8-2.6-1.7-3.7-1.2
		c0,0,0.4,1.2,0.7,1.8c1.9,4.2,3.7,8.5,5.6,12.7c0.9,2,1.7,4,2.6,6c0.2,0.5,1.1,2.5,1.1,2.5c0.5-2.8,0.1-5.5-0.8-8.2
		c-0.1-0.3-1.6-4-1.6-4s3.3-1.8,5.6-3.1C1096.8,1415.3,1096,1413.4,1095.1,1411.4L1095.1,1411.4z"/>
	<path fill="#907CCB" d="M1053.4,1343.7l3.7,7.5l3.1-1.6c-1.6-2.3-3.2-4.5-4.9-6.7L1053.4,1343.7z"/>
	<path fill="#CBBFEF" d="M1062.2,1339.6l-7,3.2c1.7,2.2,3.4,4.4,4.9,6.7l5.2-2.7L1062.2,1339.6z"/>
	<path fill="#CBBFEF" d="M1110.8,1441.9l0.5-6.5l3.8,0.3l0.2,6.3l7.3,0.6l-0.3,4l-6.7-0.2l-0.3,8.3l-4.1,0.3l-0.6-8.4l-6,0.3
		l-0.1-4.1L1110.8,1441.9z"/>
	<path fill="#CBBFEF" d="M1157.7,1449.2l4.8,2.9l3,5.1l-7.2-3L1157.7,1449.2z"/>
	<path fill="#CBBFEF" d="M1163.6,1413.3l-0.1-7l3.7,0.8l0.4,6.4l8.2,2l-0.1,4.6l-7.7-2l0.6,9.1l-4.1-0.4l-0.9-9l-7.7-0.5l-0.3-4.5
		L1163.6,1413.3z"/>
	<path fill="#907CCB" d="M1187.2,1481.3l-2.3-0.5v4.3c1.5,3,2.4,7.1,0.6,9.8C1189,1492.3,1188.1,1485.6,1187.2,1481.3L1187.2,1481.3
		z"/>
	<path fill="#CBBFEF" d="M1197.2,1490l-8.1-2l-0.4-6.4l-1.5-0.3c0.8,4.4,1.8,11-1.6,13.6c-0.1,0.1-0.1,0.2-0.2,0.3l0.6,6l4.1,0.4
		l-0.5-9.1l7.7,1.9L1197.2,1490z"/>
	<path fill="#CBBFEF" d="M1143.2,1337.9l-0.1-6.9l3.7,0.7l0.4,6.5l8.2,2l-0.1,4.5l-7.7-1.9l0.6,9.1l-4.1-0.5l-0.8-8.9l-7.7-0.5
		l-0.4-4.6L1143.2,1337.9z"/>
	<path fill="#CBBFEF" d="M1130.7,1274.9l-0.1-7l3.7,0.8l0.4,6.4l8.1,2v4.6l-7.7-2l0.6,9.1l-4.1-0.4l-0.9-8.9l-7.7-0.6l-0.3-4.5
		L1130.7,1274.9z"/>
	<path fill="#CBBFEF" d="M1125.2,1220.6v-7l3.7,0.8l0.4,6.4l8.1,2v4.6l-7.7-1.9l0.5,9l-4-0.4l-0.9-8.9l-7.7-0.5l-0.4-4.6
		L1125.2,1220.6z"/>
	<path fill="#CBBFEF" d="M1125.5,1174.5l-0.1-7l3.8,0.8l0.4,6.4l8.1,2l-0.1,4.6l-7.6-2l0.5,9.1l-4.1-0.4l-0.8-8.9l-7.7-0.6l-0.4-4.5
		L1125.5,1174.5z"/>
	<path fill="#CBBFEF" d="M1057.6,1210.2l-0.1-7l3.7,0.7l0.4,6.5l8.1,2v4.5l-7.7-1.9l0.6,9.1l-4.1-0.5l-0.9-8.9l-7.7-0.5l-0.3-4.6
		L1057.6,1210.2z"/>
	<path fill="#CBBFEF" d="M1031.9,1280.7l6.8-2.6l2.6,6l-8,3.3L1031.9,1280.7z"/>
	<path fill="#CBBFEF" d="M1038.8,1256.8l0.1-6.4l3.6-0.3l0.5,6.3l6.9-0.4l-0.1,3.8l-6.6,0.6l-0.3,7.9l-3.8,0.5l-0.2-7.9l-5.6,0.6
		l-0.6-3.5L1038.8,1256.8z"/>
	<path fill="#CBBFEF" d="M1019,1197.5l-0.2,6.2l-5.9,1.2l0.5,3.4l5.5-0.6l0.3,7.7l3.7-0.5l0.3-7.7l1.5-0.2c-1.5-3.3-2.9-6.5-4.4-9.7
		L1019,1197.5z"/>
	<path fill="#907CCB" d="M1026.5,1202.2C1026.4,1202.2,1026.4,1202.2,1026.5,1202.2c-0.6,0.1-1,0.3-1.4,0.5s-0.8,0.5-1.2,0.7
		c-0.2,0.1-0.4,0.2-0.6,0.4l0.2,0.5c0.4,0.9,0.7,1.8,1.2,2.7c0.5-0.5,1-1,1.6-1.4s1.1-0.6,1.8-0.7
		C1027.6,1204.1,1027.1,1203.2,1026.5,1202.2C1026.5,1202.3,1026.5,1202.3,1026.5,1202.2z"/>
	<path fill="#CBBFEF" d="M1029.4,1204.9l-1.3-2.8l-1.5,0.1c0.5,1.1,1,1.9,1.6,2.8L1029.4,1204.9z"/>
	<path fill="#907CCB" d="M1023.2,1203.6c0,0-1.1-6.8-1.1-6.9c0,0.1-0.3,0.3-0.4,0.4c-0.1,0-1.3,0.5-1.4,0.3L1023.2,1203.6z"/>
	<path fill="#CBBFEF" d="M1080.4,1400.4l-6.6-3.3v5.3l9.3,4.6L1080.4,1400.4z"/>
	<path fill="none" stroke="#844DB9" stroke-miterlimit="10" d="M941.6,1179.6l-0.2,1.1c0.3-0.4,0.6-0.9,0.9-1.3
		C941.8,1179.6,941.6,1179.6,941.6,1179.6L941.6,1179.6z"/>
	<path fill="#844DB9" d="M988.5,1166.9c2.4-1,4-1.7,4-1.7c1-1.1,3.5-2,6.3-2.8c1-1.1,2.1-2,3.3-2.7c0.9-0.5,3.1-1.2,6.2-2.1
		c-9.2,1.3-16.8,2.9-22,4.6c-1.7,0.6-3.5,1.2-5.3,1.8h7.7C988.7,1165,988.6,1165.9,988.5,1166.9L988.5,1166.9z"/>
	<path fill="#844DB9" d="M1153,1175.2c-1.9-12.7-3.9-16.6-3.9-16.6s-15.5-3.8-56.3-5c-14.8-0.5-30.4-0.2-45.2,0.6l20.5,12
		c0,0,1.7,4.5,3.4,10.5c4.2-0.1,8.7,0,13.9,0c27.4,0.4,67.9,1.3,67.9,1.3L1153,1175.2z"/>
	<path fill="#633B8F" d="M1069,1198.7c-0.3,3.5-1,6.3-2.4,7.7c-5.1,4.9-10.1,2.9-22.5-6.7c-12.2-9.5-23.6-20.6-23.8-20.8l-9.9,3
		c1.4,4.8,16.1,57.3,22,81.7s16.9,71.7,16.7,74.3s-3.7,6.8-8.1,15.3s-7.8,13.5-17.9,18c0,0-0.2-1.1-0.4-3c-0.2-1.2-0.3-2.8-0.5-4.6
		c-0.4-4.3-2-8.1-4.8-27.8c-2.9-19.7-7.7-62-9.8-88.3s-5-64.2-5-64.2l-1.8-0.1c0,0,0,1.3-0.1,3.6c-0.2,12.7-0.6,55.5,0.2,75.5
		c1,23.6,3.2,59.8,2.7,60.2l-0.1,0.1c-0.6,0.5-2.3,1.6-3.4,0.5c-1.2-1.2-4.1-2.8-13.4-12.4c-9.3-9.7-14-15.7-14-15.7
		c0.4-20.5,2.3-33,6.2-54.3c2.8-15.4,8-29.1,11.4-38.4c1.3-3.5,2.4-6.4,3-8.5c1-3.4,2-6.3,2.8-8.5c0.4-1.1,0.8-2,1-2.7
		c-4,0.9-7.8,1.8-11.3,2.8c0,0-4.4,8.7-10.4,16c-5.3,6.5-14.2,16.2-20.5,17c-3-4-2.7-11-0.7-16.6c10.6-3.7,16.9-8.3,22-13.6
		c-2.4,0.7-5.2,1.4-8.2,2.1c2.4-0.8,4.6-1.6,6.5-3c1.2-0.9,3-2.5,4.8-4.5c3.9-4.2,8.2-10.2,9.2-15.8c2.4-1,4-1.7,4-1.7
		c1-1.1,3.5-2,6.3-2.8c-2.1,2.3-3.4,5.4-3.9,8.1c-0.7,4,0.7,7.5,2.8,7.9s9.1-2.4,12.6-5.3c3.6-2.9,3.2-4.8,3.2-4.8
		c3.4,2.1,9.5,4.5,16.2,7.2c1,0.9,2.1,1.8,3,2.7c8,6.8,14.1,10.3,17.7,12c2.7,1.2,7.4,0.6,10.5-0.2
		C1064.6,1192.2,1067.6,1194.8,1069,1198.7L1069,1198.7z"/>
	<path fill="#844DB9" d="M993.2,1193.7c-0.6,2.1-1.7,5-3,8.5c-0.6,3.6-1.4,7.5-2.1,11.1c-2.3,11.8-4.9,24.2-7.2,37.2
		s-5.9,43.3-5.2,44.4s8.4,9.5,17.5,17.9c7,6.4,8.3,8.7,10.2,9.7c0.1,0,0.1-0.1,0.1-0.1c0.5-0.4-1.7-36.6-2.7-60.2
		c-0.8-20-0.4-62.8-0.2-75.5l-4.6-1.5C995.2,1187.4,994.2,1190.3,993.2,1193.7z"/>
	<path fill="#844DB9" d="M1003.9,1183.6c0,0,1.7,17,3.3,27.2s3.9,37.9,5.2,48.5s4.9,43.6,6.4,63.8c1.4,20.2,6.4,38.3,5.8,41.5
		c-0.3,1.5-1.2,2.3-1.9,3.5c0.2,1.8,0.4,3,0.4,3c10.1-4.5,13.5-9.5,17.9-18s7.9-12.7,8.1-15.3s-10.8-49.9-16.7-74.3
		s-20.6-76.9-22-81.7C1008.8,1178,1003.9,1183.6,1003.9,1183.6L1003.9,1183.6z"/>
	<path fill="#844DB9" d="M1047.5,1154.1c-14.4,0.7-28,2-39.3,3.6c-3,0.9-5.3,1.6-6.2,2.1c-1.3,0.7-2.4,1.6-3.3,2.7
		c2.7-0.7,5.7-1.3,8-1.9c4.8-1.1,8.1,1.1,8.1,1.1s8.2-0.1,17,1.5c8.7,1.6,34.6,8.8,35.3,11.4c0.1,0.3,0.3,1.1,0.4,2.1
		c1.2,0,2.5,0,3.8-0.1c-1.7-6-3.4-10.5-3.4-10.5L1047.5,1154.1z"/>
	<path fill="#844DB9" d="M1069,1198.7c-1.4-3.8-4.4-6.4-8.1-8.6c-4.3-2.5-9.6-4.4-14.5-7c-3.3-1.7-6.9-3.4-10.5-4.9
		c-2.1-0.9-4.2-1.8-6.2-2.6c-6.7-2.7-12.8-5.1-16.2-7.2c0,0,0.3,1.9-3.2,4.8s-10.5,5.7-12.6,5.3s-3.5-3.9-2.8-7.9
		c0.5-2.7,1.8-5.8,3.9-8.1c2.7-0.7,5.7-1.3,8-1.9c4.8-1.1,8.1,1.1,8.1,1.1s8.2-0.1,17,1.5c8.7,1.6,34.6,8.8,35.3,11.4
		c0.1,0.3,0.2,1.1,0.4,2.1C1068.4,1181.2,1069.7,1191.3,1069,1198.7L1069,1198.7z"/>
	<path fill="#844DB9" d="M937.5,1195.9c0,0,1-0.1,2.6-0.4c2.2-6.2,9.6-10.2,15.5-13.1c7.4-3.5,17.1-8.8,24.2-11.8
		c3.4-1.5,6.4-2.8,8.7-3.7c0.2-0.9,0.3-1.9,0.2-2.8H981c-15.8,5.6-35,13.7-38.7,15.3c-0.3,0.4-0.6,0.9-0.9,1.3l-2.4,10.9
		L937.5,1195.9z"/>
	<path fill="#844DB9" d="M988.5,1166.9c-1.1,5.7-5.4,11.7-9.2,15.8c-1.8,2-3.6,3.5-4.8,4.5c-1.8,1.4-4.1,2.2-6.5,3
		c-3.2,1.1-6.6,2.4-9.8,5.1c-1.7,1.4-3,3.7-4,6.3c-2.1,5.5-2.3,12.6,0.7,16.6c-0.7,0.1-1.5,0.1-2.1-0.1c-6.1-1.8-12.5-8.6-13.2-17.7
		c-0.1-1.8,0.1-3.4,0.7-4.9c2.2-6.2,9.6-10.2,15.5-13.1c7.4-3.5,17.1-8.8,24.2-11.8C983.2,1169.1,986.2,1167.8,988.5,1166.9
		L988.5,1166.9z"/>
	<path fill="#633B8F" d="M941.7,1191c4.4-3.5,9-6.8,13.8-9.7c5.1-3,10.6-5.2,16-7.5c10.9-4.6,21.9-8.6,33.2-12.2
		c1.2-0.4,0.7-2.3-0.5-1.9c-11.5,4-22.9,8.4-34,13.2c-10.5,4.5-20.6,9.5-28.5,17.9C941.5,1191,941.6,1191.1,941.7,1191z"/>
	<path fill="#633B8F" d="M999.8,1166.4c3.1,2.7,3.7,7.3,2.3,11.1c-0.6,1.5,2.4,1.7,1.9,0c0-0.1-0.1-0.3-0.1-0.4
		c-0.1-0.3-0.5-0.6-0.8-0.4c-0.1,0-0.2,0.1-0.3,0.1l1.2,1.2c1.8-4.8,0-8.9-3.9-12C999.9,1165.9,999.6,1166.2,999.8,1166.4
		L999.8,1166.4z"/>
	<path fill="#633B8F" d="M1006.5,1164.6c0.5,1.8,1,3.3,1,5.2c0,2-0.3,3.8-1.1,5.6c0.6,0.2,1.2,0.3,1.9,0.5c0-0.1,0-0.2,0-0.3
		c0.1-1.1-1.7-1.3-1.9-0.3c0,0.1,0,0.2-0.1,0.3c-0.2,1,1.3,1.9,1.8,0.8c1.7-3.7,1.9-9-1.4-12
		C1006.6,1164.4,1006.4,1164.5,1006.5,1164.6L1006.5,1164.6z"/>
	<path fill="#633B8F" d="M1014,1168c-0.7,2.1-2.1,4.4-3.6,6.1c0.6,0.3,1.1,0.6,1.7,1c0-0.1,0.1-0.3,0.1-0.4c0.2-0.7-0.6-1.3-1.2-0.9
		c-0.1,0.1-0.2,0.2-0.4,0.2c-1.2,0.8,0.3,2.6,1.2,1.6c0.9-1.1,1.8-2.2,2.4-3.5c0.6-1.2,0.7-2.5,0.8-3.8
		C1015.1,1167.6,1014.1,1167.5,1014,1168L1014,1168z"/>
	<path fill="#633B8F" d="M1014.1,1162.1c1.7,1.3,1.8,3.3,1.9,5.3c0.1,2.1-0.9,3.4-2.1,4.9c-0.8,1,0.6,2.4,1.4,1.4
		c0.1-0.1,0.2-0.2,0.3-0.3c0.5-0.6,0.1-1.6-0.8-1.4c-0.1,0-0.3,0.1-0.4,0.1c0.3,0.6,0.6,1.1,1,1.7c1.8-2.1,3.1-4.1,2.6-6.9
		c-0.3-2.1-1.4-4.5-3.6-5.1C1014,1161.7,1013.9,1162,1014.1,1162.1L1014.1,1162.1z"/>
	<path fill="#633B8F" d="M1015.6,1160.7c0.1,0.1,0.2,0.1,0.3,0.2c0.1,0,0.1,0,0.2-0.1c0-0.1,0-0.2-0.2-0.3c-0.1,0-0.2,0.1-0.1,0.2
		v0.1c0.1,0,0.1-0.1,0.2-0.1c-0.1-0.1-0.2-0.1-0.4-0.2C1015.6,1160.5,1015.5,1160.7,1015.6,1160.7L1015.6,1160.7z"/>
	<path fill="#633B8F" d="M1014.9,1161c4.5,0.6,9.1,0.2,13.6,0.8c4.9,0.6,9.7,1.6,14.5,2.9c4.5,1.2,9,2.6,13.4,4.1
		c4.2,1.4,9.6,2.4,11.4,7c0.4,1,2,0.6,1.7-0.5c-1-3.5-4.3-5.2-7.5-6.4c-5.2-1.9-10.5-3.6-15.8-5.1c-5.1-1.5-10.4-2.7-15.7-3.4
		c-5-0.7-10.7-1.5-15.6,0C1014.7,1160.6,1014.6,1161,1014.9,1161z"/>
	<path fill="#633B8F" d="M1067.6,1176.7c-0.4-2.1-0.7-3-0.7-3l2.6,1.9l0.2,1.1H1067.6z"/>
</g>
</svg>
