<?xml version="1.0" encoding="utf-8"?>
<!-- Generator: Adobe Illustrator 21.0.2, SVG Export Plug-In . SVG Version: 6.00 Build 0)  -->
<svg version="1.1" id="_x30_9_x5F_Bottom_x5F_Snow_x5F_Pants__x28_SNO_x29_"
	 xmlns="http://www.w3.org/2000/svg" xmlns:xlink="http://www.w3.org/1999/xlink" x="0px" y="0px" viewBox="0 0 2000 2000"
	 enable-background="new 0 0 2000 2000" xml:space="preserve">
<g>
	<path fill="#D8D8D8" d="M1211.2,1460.8c0.5-2.8,0.7-5.9,0.3-9.3c-1.9-18.1-4.4-27.1-12-49c-1.3-3.9-3-7.7-4.3-11.6
		c-5.9-18.2-11-36.4-15.3-52.1c-3.1-11.2-3.1-18.1-2.8-26.5c0.2-5.9,0.9-12.6,0.4-22.1c-1.2-23-4-35.7-11.2-49s-4.4-34.4-6.2-44.7
		c-1.1-6-3.4-10.3-5.3-15.1c-1.3-3.5-3.8-4.7-7.5-5.5c-0.1,0-0.3-0.1-0.4-0.1c0,0-0.1-2.4-0.2-5.7c0-0.1,0-0.1,0-0.2
		c-0.2-5.9-1.5-13.3-1.9-17.5c-0.1-0.8-1-2.8-1.2-3.3c-0.9-4.2-2-2.4-15.4-5.7c-0.8-0.2-1.7-0.4-2.6-0.6c-1.2-0.3-2.4-0.6-3.8-1
		c-2.1-0.5-4.4-1.1-7-1.7c-2.7-0.6-5.5-1.3-8.6-2c-0.7-0.1-1.3-0.3-2-0.4c-1.1-0.2-2.3-0.5-3.5-0.7c-15.1-2.9-34.2-5.1-56.7-3.7
		c-1.3,0.1-2.6,0.2-3.9,0.3c-0.8,0.1-1.6,0.1-2.4,0.2c-16.6,1.5-29.4,3.1-39.8,4.8c-1.5,0.3-3,0.5-4.5,0.8
		c-4.3,0.8-8.2,1.6-11.8,2.5c-3.7,0.9-7.1,1.8-10.3,2.8c-0.4,0.1-0.8,0.2-1.1,0.4c-3.8,1.2-7.4,2.5-11.1,3.9
		c-18.1,7-22.6,7.5-22.5,15.4c0.2,8-2.2,41.8-7.9,50.6c-4.2,6.1-10.6,12.3-10.8,17c-0.6,7-3.8,32.7-6.5,46.1
		c-2.8,13.5-4.6,21.7-4.6,21.7s14.6,14,32.5,30.2c1,0.9,2.1,1.9,3.2,2.9c0.6,0.5,1.2,1,1.7,1.6c5.2,4.7,10.5,9.4,15.8,14
		c5,4.3,10.2,9.5,15.2,15.2c12.8,14.7,24.3,33.6,28.3,53.8c2,9.9,2.6,18.5,1.9,26.3c-0.4,4.5-1.2,8.7-2.5,12.8
		c-0.2,0.7-0.4,1.3-0.6,2c-0.7,1.3-1.7,3.1-2.6,5.6c-0.3,1-0.6,1.9-0.7,2.7c-4.7,9.9-11.9,19.7-21.1,31.2
		c-21.8,27.1-64.8,51.6-94.5,61.3c-35.2,11.4-78.6-6.8-78.6-6.8s-2,6.2-6,15.2c-0.9,2-1.9,4.2-3,6.5c-6.1,12.4-3.1,19.6,2.7,24
		c5.8,4.3,12.8,5.1,24.8,1s40.3,2.6,47.7,6.3c7.3,3.8,8.1,7,11.1,8.1c0.6,0.2,6.1,4.8,32.5,0s66-4.8,99.3,11.5
		c33.3,16.3,29.2,21.9,44.5,22.8c9.2,0.5,13.9-1,16.8-3.9c1.9-1.9,3.1-4.3,4.2-7.1c2.9-7,5.5-20.1,5.5-20.1s10,1.2,29.9-1.3
		c7.5-1,16.4-2.4,26.6-4.7c37.5-8.3,52.6-16.3,60-27.2c0.9-1.4,1.6-2.7,2-3.9c3.1-8.7-4.3-13.9-4.3-13.9s3-5.2,3.8-16
		s-3.8-17.8-3.8-17.8s4.6-6.9,6.2-18.2s-4.8-34.2-4.8-34.2S1209.1,1472.9,1211.2,1460.8z"/>
	<path opacity="0.3" fill="#091426" enable-background="new    " d="M1072.2,1157.8c-6.6-1.4-10.7-3.3-9.3-10.1s5.3-7.6,11.4-3.9
		s9,4.9,8.1,10.6S1075.5,1158.4,1072.2,1157.8z"/>
	<path fill="#152B67" d="M1080.3,1149.8c0.8,3.8,0.3,8.5-5.5,9.4c-5.4,0.9-9.1-5.4-9.3-9.3c-0.2-4.8,3.9-7.6,7.3-7.6
		C1076.1,1142.3,1079.5,1145.6,1080.3,1149.8z"/>
	<path fill="#0C1F55" d="M1055.6,1455.2c15.6,7.7,27.2,15.4,31.8,17.8c4.6,2.4,12.5-1.4,24.4-8.8s20.3-13.4,24.2-17.8
		c3.9-4.4,10.8-7.4,17.6-13s20.2-20.8,28.8-29.2c6-5.8,10.5-10,13.2-13.3c-5.9-18.2-11-36.4-15.3-52.1c-3.1-11.2-3.1-18.1-2.8-26.5
		c-4.4,1.2-13.1,3.8-21.5,6.6c-11.8,4-24.8,11.7-32.2,13.8s-27,16.2-41.2,36.6c0,0-20-18.2-38-26.6s-34.6-8.4-55.7-10.8
		c-18.6-2.1-36.2-2.1-46.4,1c5.7,5.1,11.7,10.4,17.5,15.5c17.8,15.5,37.9,40.9,43.5,69c2,9.9,2.6,18.5,1.9,26.3
		C1025.1,1442.6,1042.5,1448.7,1055.6,1455.2z"/>
	<path fill="#0C1F55" d="M1066.5,1628.8c-10.2-5.3-16.3-2.2-24.2-3.8c-7.9-1.6-36.5-14.8-42.3-17.2c-5.8-2.4-13-5.1-24.5-5.2
		s-25.3-1.1-40.2-3.6s-11.8-0.2-23.9-1.6c-12.1-1.4-13.9-10.2-13.9-10.2c-4-1.1-10.6,8.6-10.6,8.6s-13.8-5.5-24.2-8.6
		s-23.2-3-31.9-4.5s-18.6-6-23.3-12.4c-3-4.1-5.4-4.7-8.6-2.8c-0.9,2-1.9,4.2-3,6.5c-6.1,12.4-3.1,19.9,2.7,24.3
		c5.8,4.3,12.8,5.1,24.8,1s40.3,2.6,47.7,6.3c7.3,3.8,8.1,7,11.1,8.1c0.6,0.2,6.1,4.8,32.5,0s66-4.8,99.3,11.5
		c33.2,16.3,29.2,21.9,44.5,22.8c9.2,0.5,13.9-1,16.8-3.9C1074.7,1639.2,1072.8,1632.1,1066.5,1628.8z"/>
	<path fill="#0C1F55" d="M1141.5,1611c37.5-8.3,52.6-16.3,60-27.2s-2.2-18.2-2.2-18.2c-8,8.1-38.1,22.2-74,29.1
		c-36,7-49.7,2.4-49.7,2.4s9.8,12.3,9.5,19.9C1085,1617,1104,1619.3,1141.5,1611z"/>
	<path opacity="0.3" fill="#091426" enable-background="new    " d="M1096,1564.6c0,0,5.9-7.8,13.4-16.2s1.9-4.7-3.6-1.6
		s-9.7,8.2-9.7,8.2c-1.6-2.1-6.4-9.5-5.9-11.3s0.7-5.8,12.6-21.3s20.3-17.9,25.5-22.7c5.2-4.8,6.4-7-0.6-5.1s-10.1,7.8-10.9,6.4
		s-1.9-7.6-5.6-19.7s-3.8-34.4-11.5-63.5s-9.3-42.2-9.2-60.9c0.1-18.6,1-28.4-2.3-42.3c-0.4-1.7-0.8-3.2-1.2-4.5
		c4.4-1.5,8.6-4.5,12.1-7c4.6-3.3,10.2-7,12.8-12.2c0.2-0.3-0.1-0.8-0.5-0.7c-5.3,1.8-9.8,5.9-14.6,8.7c-3.5,2.1-7.8,3.8-11.4,6
		c-1.3-3.4-1.9-3-1.2-3.8c0.9-1.3,8.4-5.5,17.1-12s17.1-14.4,26.2-27.5c9.1-13.2,0.1-3.7-8.9,4.7c-9,8.4-23.8,23.7-35.5,30.7
		c-1.4,0.8-2.6,1.5-3.7,2.2c4.6-9.5,9.2-19.1,13.9-28.5c5.4-10.9,9.6-22,11.3-34.2c1.7-11.8,1.4-23.8,0.6-35.7
		c-0.7-9.8-0.7-20.7-4.6-30c2.3,0.2,4.7,0.2,7.1,0.2c-0.1,1.9-0.3,3.8-0.5,5.8c-0.2,1.2,0.8,2.2,1.7,2.9c0.2,0.2,0.5,0.4,0.7,0.5
		l0,0c0,0.2,0,0.5,0.1,0.7c1.1,2.3,3.1,2.6,5.5,2c3.8-0.9,7.2-2,11.1-2.5c0.3,0,0.5-0.1,0.7-0.3c1-0.2,1.9-0.8,2.1-2.1
		c0.2-1.8,0.3-3.7,0.4-5.5c0.8,0.4,1.7,0.5,2.8,0.6c3.5,0.5,6.9,0.9,10.3,1.8c3.2,0.8,7.6,2.8,11.4,2.8c-1.7-0.7-3.8-1.3-6.5-1.8
		c0,0-0.1-2.4-0.2-5.7c-0.1-0.2-0.2-0.3-0.4-0.5c0.1,0.2,0.2,0.3,0.4,0.3c-0.2-5.9-1.5-11.4-1.9-15.6c-0.1-0.8-1.5-4.7-1.7-5.2
		c0.6,4.1,1.9,7.2,1.1,10.5c-0.7,3.1-2.9,7.1-3.1,10.5c-3.7-0.8-8.6-1.9-12.3-1.1c0-4.1-0.2-8.2-0.5-12.1c-0.3-4.7-0.8-9.7-2.6-14.1
		c-1.2-0.3-2.4-0.6-3.8-1c0.9,5.9,2.2,11.7,2.5,17.8c0.2,5.7,0.3,11.3-0.3,17c-2,0.2-4.1,0.6-6,1.1c-1.4,0.4-5,2.3-6.6,1.9
		c2.6-2.3,2.8-6.7,3.2-10c0.6-5.4-0.2-10.9,0.1-16.4c0.2-4.2,0.4-8.6,0.3-13.1c-2.7-0.6-5.5-1.3-8.6-2c0.3,4.1,0.4,8.1,0.5,12.3
		c0.1,5.4,0.4,10.5,0.4,15.7c-2.3-0.2-4.5-0.3-6.8-0.2c1.6-9.3,3.2-18.8,3.9-28.2c-1.1-0.2-2.3-0.5-3.5-0.7c-1.3,9.7-3,19.4-4.8,29
		c-1.1,0-2.3,0.1-3.4,0.2c-6.4-0.1-12.8-0.1-19.2-0.1c-4.6,0-9.1-0.7-13.7-0.8c-0.9,0-1.9,0-2.8,0c-0.1,0-0.2,0-0.3,0
		c-3.4,0-6.8,0.2-10.2,0.3c-2-6.2-2.2-12.9-2.3-19.4c-0.1-4.2,0.3-8.7,0-13c-1.3,0.1-2.6,0.2-3.9,0.3c0,5.1,0.5,10.4,0.5,15.5
		c0,5.7,0.5,11.2,1.4,16.8c-8.1,0.3-16.2,0.8-24.3,1.7c-4.5,0.5-9.1,1.2-13.6,1.5c-3.5,0.3-7.2,0.3-10.7,0.9
		c0.1-3.9,0.6-7.8,1.3-11.7c1.2-6.3,3-13.2,3.2-19.7c-1.5,0.3-3,0.5-4.5,0.8c-0.4,3.2-0.6,6.5-1.1,9.7c-0.6,3.9-1.6,7.7-2.1,11.6
		c-0.8,5.6-1.8,13.1-0.4,19.2c-0.1,0-0.2,0-0.3,0c-2.5,0.7-5.1,0.4-7.6,1c-1.6,0.4-3.3,0.9-4.9,1.7c0-8-0.4-16.1,1.5-24
		c0.1-0.4,0.2-0.8,0.2-1.2c1.2-4.4,1.8-9.1,2.4-13.6c0.1-0.6,0.2-1.2,0.3-1.9c-3.7,0.9-7.1,1.8-10.3,2.8c0.3,5.2,0.6,10.5,0.2,15.7
		c-0.3,4.2,0.1,8.6,0.8,13.1c-1.9,0.4-3.8,0.9-5.7,1.7c0.1-5.1-0.9-17.1-0.2-20.4c0.6-2.7,1.9-4.8,3.8-9.7
		c-3.8,1.2-7.4,2.5-11.1,3.9c-18.1,7-23.1,7.6-23,15.5c0.2,8-2.2,41.3-6.9,49.1c-4.7,7.9-11.4,13-12,19.9c-0.6,7-3.1,31.2-5.8,44.6
		c-2.8,13.5-4.6,21.7-4.6,21.7s14.6,14,32.5,30.2c-0.2-7.4-0.4-21.9,0.8-37.7c1.8-22.6,4.1-49.2,5.3-63.4c1.1-14.2,8-36,12.9-41.7
		c3.5-4.1,5.7-6.2,7-8c0.7-0.2,1.4-0.4,2.1-0.6c1.9-0.5,3.7-0.9,5.6-1.2c0.5,2.8,1.1,5.5,1.6,8.1c0,0.2,0.1,0.4,0.1,0.6
		c0,0.1,0.1,0.3,0.1,0.4c0.1,0.6,0.5,0.8,1,0.8c0.2,0.1,0.4,0.2,0.6,0.2c2.5,0.4,4.4-0.6,6.8-1.3c2.6-0.7,5.3-0.6,7.9-1.3
		c0.4-0.1,0.8-0.3,1.1-0.6c0.5,0.1,1.1-0.2,1.2-0.7c0.8-3.2,0.3-6.5,0.1-9.7c3.4-0.3,6.8-1.1,10.2-1.6c5-0.8,10.1-1,15.1-1.4
		c9.1-0.6,18.2-1.2,27.3-1.5c3.2-0.1,6.3-0.1,9.5-0.2c3.1,22.6,6.1,45.1,8.2,67.8c2,21.5,3,43,4.3,64.6c-4.6-1-9.1-2.3-13.6-4.2
		c-6.1-2.6-11.9-6.7-18.2-8.9c-0.7-0.2-1.1,0.7-0.7,1.1c4.8,5.7,12.7,9.9,19.4,12.9c3.4,1.5,6.9,2.8,10.5,3.8
		c-0.3,0.1-0.5,0.2-0.8,0.3c-2.5,0.8-4.7,0.9-6.6,2.9c-0.1,0.2-0.1,0.4,0.1,0.5c2.3,1.4,4.3,0.9,6.9,0.5c1.9-0.3,3.7-0.7,5.5-1.1
		c2.2,5,5.8,13.3,6.8,18.4c1.5,7,1.3,10.2,2.6,32.6c1.4,22.5,3.1,62.1,4.5,79.9s2.9,32.5,2.9,32.5c-7.7-4.3-9.2-14.4-15.8-23.1
		c-6.6-8.7-4.4-1.4,0,8.7s5.6,13.4,11.9,19.5s8,6.3,9.3,15.6c1.3,9.2-1.3,15.4-5.3,16.6s-5.6,3.5-5.6,3.5c-3.3-3.2-11.2-5-20.7-9.5
		c-9.5-4.6-6.8-0.1-3.6,2.4s17.7,7.2,22.5,11.7s7.5,5.3,4.1,20.1c-2.7,11.8-8.1,22.9-10.2,27c-0.9-1.3-1.8-2.6-2.5-3.9
		c-2.1-3.5-4.2-7-6.5-10.3c-4.4-6.5-8.9-13-15.8-17.1c-0.7-0.4-1.4,0.4-1.1,1.1c3.9,7.1,9.4,13,13.9,19.8c2.2,3.4,4.4,6.8,6.4,10.4
		c0,0.1,0.1,0.1,0.1,0.2c-5-1.7-13-4.8-19.3-8.6c-9.9-6-13.1-9.5-13.1-7.9s1.6,7,12.6,12.8c9.5,5.1,14.5,5.3,16.9,7.6
		c-0.7-0.1-1.4-0.2-2.1-0.3c-2.1-0.2-3.7,0.4-5.8,0.5c-1.2,0.1-1.2,1.9,0,1.8c2.4,0,6.4,1,8.4,2.4c0.3,0.2,0.6,0.4,0.8,0.6
		c-0.5,4.1-2.7,9.1-2.7,9.1c-4.6-7.9-12.9-14.8-20.1-17.4s0.1,4,6.8,9.3c5.9,4.7,13,11.8,13.3,21c-0.3-0.1-0.5-0.3-0.8-0.4
		c-1.6-0.9-2.8-2.4-4.2-3.6c-0.6-0.5-1.2,0.1-1,0.8c1.1,2.5,2.5,4.9,4.1,7.1c0.4,0.6,0.8,1.2,1.2,1.9c-2.2,9.2-6.7,9.8-12.6,10.8
		c-6.3,1-3.7-1.6-14-11.8c-10.2-10.3-14.1-8.7-12.3-7.5c1.8,1.2,5.4,3.8,9.8,8.9s5.8,8.7,4.1,10.4s-5.3,3.1-5.3,3.1
		s-30.4-22-55.6-23.3c-25.2-1.4-35.3,1.1-41.6-1.2c-6.3-2.3-11.8-5.6-12-9s-1-11.2,0-13.7s3.7-5.5,14.8-10.8s22.8-6,35.2-6.1
		c12.4-0.2,10-1.2,0.8-2.4c-9.3-1.2-20,0-20,0c2.9-2.9,2.4-6.2,2.4-6.2s5.8-2.4,15.3-5.1c9.5-2.6,10.5-6.3,11.7-9.8
		c1.1-3.5,2.1-3.1,7.8-4.1c5.6-1,8-1.8,4.8-2.4s-10.2-1-10.2-1c12.7-3.3,12.2-23.3,10.7-31.8c-1.5-8.4-0.9-8.2,0.4-12.6
		c1-3.5,0.5-6.2,1.1-9.6c-4.7,9.9-11.9,19.7-21.1,31.2c-21.8,27.1-64.8,51.6-94.5,61.3c-35.2,11.4-78.6-6.8-78.6-6.8s-2,6.2-6,15.2
		c-0.9,2-1.9,4.2-3,6.5c-6.1,12.4-3.1,19.9,2.7,24.3c5.8,4.3,12.8,5.1,24.8,1s40.3,2.6,47.7,6.3c7.3,3.8,8.1,7,11.1,8.1
		c0.6,0.2,6.1,4.8,32.5,0s66-4.8,99.3,11.5s29.2,21.9,44.5,22.8c9.2,0.5,13.9-1,16.8-3.9c1.9-1.9,3.1-4.3,4.2-7.1
		c2.9-7,5.5-20,5.5-20s10,1.2,29.9-1.3c-3.9-4.7-16.2-20-18-30.4C1094.7,1573,1096,1564.6,1096,1564.6z M1072.3,1302.5
		c-0.1,0-0.2,0-0.3-0.1c-0.8-22.4-2.9-44.9-5.1-67.2c-2.2-22-4.7-44-8.1-65.9c0.5,0,0.9,0,1.4,0c4.6-0.1,9.1-0.8,13.7-0.7
		c6.5,0.2,13.1,0.7,19.6,1.2c1.4,0.3,2.9,0.4,4.2,0.5c4,10.3,4,22.2,4.5,33c0.6,11.9,0.6,23.9-1.4,35.7
		C1096.9,1262.1,1083,1282.2,1072.3,1302.5z"/>
	<path opacity="0.3" fill="#091426" enable-background="new    " d="M959.6,1293.8c-0.3-12.7-0.9-12.9-4.1-28.6
		c-3.2-15.6-4.2-21.1-4.7-17.6s-0.3,15.5-0.8,36.2c-0.4,20.7-0.5,25.8-0.5,25.8s-2.6,6-3.8,12.7c-0.7,3.9-1.1,8.6-1.3,12
		c5.2,4.7,10.5,9.4,15.8,14c5,4.3,10.2,9.5,15.2,15.2c-4.3-10.2-9-22.1-10.3-27.2C962.7,1326.5,959.9,1306.6,959.6,1293.8z"/>
	<path opacity="0.3" fill="#091426" enable-background="new    " d="M1199.2,1565.5c0,0,3-5.2,3.8-16s-3.8-17.8-3.8-17.8
		s4.6-6.9,6.2-18.2s-4.8-34.2-4.8-34.2s8.3-6.3,10.4-18.4c-1.4,2-2.7,4-4.4,5.9c-3.6,4.1-7.6,7.8-12,10.9
		c-5.4,3.9-17.4,10.3-15.4,18.6c0.1,0.5,0.8,0.8,1.2,0.5c3.6-2.4,6-6.5,9.6-9.2c2.8-2.1,5.7-4.1,8.6-6.1c0.5,3.5,1.5,7,1.6,10.6
		c0.2,4.5-0.1,9.1-0.8,13.6c-0.7,4.5-1.7,10-5.9,12.6c-2.3,1.4-5.2,1.5-8.1,1.2c-1.1-0.5-2.3-1.1-3.4-1.7c-4.6-2.5-9.1-5.4-13.4-8.4
		c-4.1-2.9-7.9-6.2-12.6-8.2c-0.8-0.3-1.5,0.8-1.1,1.4c5,8,14.4,14.8,22.6,19.5c4.5,2.6,9.2,4.5,13.8,6.7c1.4,0.7,2.9,1.6,4.5,2.6
		c2.1,4.6,4.6,8.9,5.3,14c0.4,3.2,0.4,6.8-1.2,9.8c-0.1,0.3-0.3,0.5-0.5,0.7c-0.1,0-0.2,0-0.3,0c-1.6-0.1-3-0.6-4.3-1.5
		c-1.7-0.9-3.3-2.1-4.9-3.1c-6.9-3.9-14.7-5.8-22.3-7.7c-3.5-2.7-6.7-5.9-9.3-9.2c-0.8-1-2.4,0.3-1.8,1.4
		c6,10.3,14.5,16.3,25.3,21.2c5.6,2.6,10.8,5.8,15.2,10.2c2.6,2.6,5.2,5.2,5.6,8.9c0.2,1.5,0.2,2.7,0.9,3.7
		C1206.6,1571.1,1199.2,1565.5,1199.2,1565.5z"/>
</g>
</svg>
