<?xml version="1.0" encoding="utf-8"?>
<!-- Generator: Adobe Illustrator 21.0.2, SVG Export Plug-In . SVG Version: 6.00 Build 0)  -->
<svg version="1.1" id="_x31_2_x5F_Bottom_x5F_SuperHero_x5F_Tights"
	 xmlns="http://www.w3.org/2000/svg" xmlns:xlink="http://www.w3.org/1999/xlink" x="0px" y="0px" viewBox="0 0 2000 2000"
	 enable-background="new 0 0 2000 2000" xml:space="preserve">
<g>
	<g>
		<path fill="#93AAED" d="M1086.2,1158.5c-39.5,0.5-70.3,6.4-90,11.1s-48.1,16.9-48.1,16.9l-2.6,13.4l22.6,10.5c0,0-0.4-6.3,1.9-9.2
			c2.4-2.9,3.7-1.4,4.4-7.8s3.5-7.3,4-3.9s0.8,5.3,0,10.8s77.6,25.6,88.7,35.7s5.1,0,5.1,0s-0.5-24.9-0.9-33.3s-0.5-13.6,0.9-9.2
			s2,26.4,10.1,38.1c0,0,20.4-19.6,49.5-24.4c11.3-1.9,18.8-1.5,23.8-0.5c-2.9-12.7-6.3-25.7-9.5-35.7
			C1129.7,1162.6,1118.7,1158.1,1086.2,1158.5z"/>
		<path fill="#7A44B3" d="M1141.9,1215.2c-18.7,3.2-46.7,19.6-56.7,30.3c0,0,2.3,33.7,3.5,75.4c1.3,41.7,2.8,76.5,2.4,105.9
			s-1.2,45.6-2.4,78.3c-1.2,32.7,1.9,76.6,1.9,76.6s43-2.2,73.1-24.4c13.3-89.1,12.5-138.4,9.3-220.9c-2.6-66.6-10-93.7-14-113.9
			c-0.4-2.1-0.8-4.2-1.3-6.3C1154.6,1214.7,1149.7,1213.8,1141.9,1215.2z"/>
		<g>
			<path fill="#583688" d="M1090.6,1581.6c0,0-3.1-43.9-1.9-76.6s2-48.9,2.4-78.3s-1.1-64.2-2.4-105.9c-1.3-41.7-3.5-75.4-3.5-75.4
				c10-10.7,38-27,56.7-30.3c7.9-1.4,12.8-0.5,15.8,1c-0.3-1.6-0.7-3.1-1-4.7c-11.5,0.9-45.6,4.1-59,13.3
				c-16.2,11.2-23.4,18.8-23.4,18.8s-47.1-24.2-69.6-27.7s-33.6-2.3-33.6-2.3s-18.3-4.8-35-6.7c-0.3,1.3-0.5,2.7-0.8,4.2
				c-3.3,16.4-18.4,97.2-18.4,97.2c4.6,3.3,9.6,7.3,14.8,11.8c3.2-45.1,9.8-106.4,9.8-106.4s9.9,2.3,12.7,3s3.4,1.3,2.6,30.9
				c-0.6,22.9-5.1,69.2-7.1,89c10,9.8,19.7,20.2,27.5,29.5c-1.3-36.6-0.4-56.8,1.4-78.5c2.3-27.2,5-59.6,5.1-66.1
				c0,0,20.3-3.8,46.4,9.1c26.1,12.9,42.4,29.5,47.4,32.1c0,0,1.9,23.6,3.1,54.5s-2.5,89.8-4.3,107.2s-1.9,55.2-8.1,86.5
				s-10.9,83.9-10.9,83.9s-24.2,9.2-47,10.9s-73-6.2-73-6.2l1.2-19.8c0,0,27-7.4,46.8-28.2c19-20,43.5-60.4,20.3-104.4
				c-0.6,3.7-3.4,10.7-4.7,14.2c-9.8,23.9-28.9,42.1-42.1,54.7c-13.2,12.6-48.5,34.5-73.5,42.4c-25.2,7.7-52,2.4-52,2.4
				c-2.4,3.1-7.4,21.8-7.4,21.8l55.3,8.5c0,0,19.7,6.8,53.3,19.6c33.5,12.9,106.5,0,106.5,0l51.7-16c67.1-12.4,70.2-31.1,70.2-31.1
				c0.3-2.1,0.6-4.3,1-6.4C1133.6,1579.4,1090.6,1581.6,1090.6,1581.6z"/>
			<path fill="#697DB1" d="M1004.6,1215.9c22.5,3.5,69.6,27.7,69.6,27.7s7.2-7.7,23.4-18.8c13.4-9.2,47.5-12.5,59-13.3
				c-0.4-1.6-0.7-3.2-1.1-4.8c-5-1.1-12.5-1.4-23.8,0.5c-29,4.8-49.5,24.4-49.5,24.4c-8.1-11.7-8.7-33.7-10.1-38.1s-1.4,0.8-0.9,9.2
				s0.9,33.3,0.9,33.3s5.9,10.1-5.1,0s-89.5-30.2-88.7-35.7s0.5-7.3,0-10.8c-0.5-3.4-3.2-2.6-4,3.9s-2.1,4.9-4.4,7.8
				c-2.4,2.9-1.9,9.2-1.9,9.2l-22.6-10.5l2.6-13.4c0,0,28.5-12.2,48.1-16.9s50.5-10.6,90-11.1c32.5-0.4,43.5,4.1,59.9,12.4
				c-0.8-2.7-1.6-5.2-2.4-7.4l-4.5-8.9c0,0-61.7-17.6-126.2-2.5s-73.1,29.3-73.1,29.3l-0.2,6.7c0,0-1,5.3-3.7,18.7
				c16.7,1.9,35,6.7,35,6.7S982.1,1212.4,1004.6,1215.9z"/>
		</g>
		<path fill="#7A44B3" d="M954,1216.6c-2.8-0.7-12.7-3-12.7-3s-6.6,61.4-9.8,106.4c5.9,5,11.9,10.6,17.9,16.5
			c2-19.8,6.5-66.2,7.1-89C957.4,1217.9,956.8,1217.2,954,1216.6z"/>
		<path fill="#7A44B3" d="M985.1,1551.2c-19.8,20.9-46.8,28.2-46.8,28.2l-1.2,19.8c0,0,50.2,7.9,73,6.2c22.8-1.7,47-10.9,47-10.9
			s4.8-52.6,10.9-83.9s6.2-69,8.1-86.5s5.5-76.4,4.3-107.2c-1.2-30.9-3.1-54.5-3.1-54.5c-5-2.6-21.2-19.2-47.4-32.1
			c-26.1-12.9-46.4-9.1-46.4-9.1c-0.1,6.5-2.9,39-5.1,66.1c-1.8,21.7-2.7,41.9-1.4,78.5c4.6,5.4,8.5,10.5,11.5,14.9
			c11.9,17.4,20.6,43.8,17.1,66.3C1028.8,1491.1,1004.1,1531.2,985.1,1551.2z"/>
		<path fill="#583688" d="M1103.3,1221.7c18.3-13.6,52.2-13.9,52.2-13.9s1.4,1.1,1.1,3.7s-15.8,3.1-15.8,3.1l-33.7,9.6
			L1103.3,1221.7z"/>
	</g>
	<g>
		<path fill="#FEB04B" d="M955.6,1174.8c14.9-6.6,25.9-12.8,39.8-15.5c13.8-2.7,39.2-8.2,65.3-8.2c23.7,0.1,71.3,0.8,84.6,10.6
			c0-0.1,0.1-0.2,0.1-0.3c0.2-1.6-1.6-10.5-2.7-11.3s-18.7-5.6-29.1-6.7s-45.4-3.4-72.7,0c-27.2,3.4-45.9,11.8-59.7,15.1
			s-26.8,10.5-34.4,13.9c-7.6,3.5-9.3,4.5-9.6,8.9c-0.2,2.9,0,4.2,0.8,5.2C940.2,1181.9,944.3,1179.8,955.6,1174.8z"/>
		<path fill="#B48140" d="M939.7,1188.2c0,0,0.6-2.9,1-3.6c0.5-0.7,12.2-7.7,32.1-14.4c19.9-6.7,42.7-11.7,65.3-14.3
			c22.7-2.7,50.3-2.1,74.7,1.1c24.4,3.2,30.9,6.6,30.9,6.6s1.3-0.4,1.6-1.7c-13.3-9.9-60.9-10.5-84.6-10.6
			c-26.2-0.1-51.5,5.5-65.3,8.2s-24.9,8.9-39.8,15.5c-11.3,5-15.4,7-17.5,11.7C938.4,1187.1,939,1187.6,939.7,1188.2z"/>
	</g>
	<g>
		<path fill="#B48140" d="M1153.7,1211.2c-6.9-0.9-22.6,0.3-44.9,11.9s-30.7,22.9-30.7,22.9l-0.8,10.2c-6.1,0.3-2.8-1.2-24.2-17.1
			c-21.5-15.9-36.1-19-53-22.5c-16.9-3.6-26.5-0.7-26.5-0.7s-0.6,6.1-1,9.6s-3.5,2.9-5.2,0c-1.8-2.9-4.9-9.7-16-13.5
			s-16.9,0.9-16.9,0.9c-5.5-0.4-4.1-3.9-2.3-11.7c0.2-0.8,2.4-0.9,5-1.5c0.9-0.2,1.9-0.5,2.9-0.9c3.7-1.6,12.3-2.2,21.9,2.4
			c2.7,1.3,4.7,2.7,6.3,4c4.1,3.5,4.9,6.7,4.9,6.7l0.5-10.7c1.6-0.4,3.2-0.7,4.9-0.9c13.6-1.8,27.5,3.5,50.1,10.9
			c25.4,8.3,43.7,24.8,43.7,24.8c3.3-3.3,6.7-6.3,10.1-9.1c26.9-21.9,55.2-26.4,60.4-27c3.9-0.5,9-1.4,12.3-0.8
			c1.6,0.3,2.8,0.9,3.2,2.2C1159.1,1205.1,1160.6,1212.1,1153.7,1211.2z"/>
	</g>
	<path fill="#FEB04B" d="M953,1209.8c8.6,4.8,11.5,6.7,11.5,6.7s-0.7-5.7,0.7-7.8c0.8-1.1,2-2.5,2.8-3.5c-1.6-1.4-3.6-2.7-6.3-4
		c-9.6-4.6-18.2-4-21.9-2.4c-1,0.4-2,0.7-2.9,0.9c1.1,3.2,0.5,6,1,6.7C938.7,1207.4,944.4,1205,953,1209.8z"/>
	<path fill="#FEB04B" d="M989,1211.2c7.5,0.5,21.6,4.1,36.7,9.4s42.6,22.4,47.1,29l-0.6-13.6c0,0-18.3-16.5-43.7-24.8
		c-22.7-7.4-36.5-12.6-50.1-10.9c2.3,3.4,2.7,6,2.9,7.7C981.7,1210.3,981.4,1210.6,989,1211.2z"/>
	<path fill="#FEB04B" d="M1082.1,1233.1c-0.6,3.8,1.3,4.7,4.4,1.3c3.1-3.5,15.2-11,31.2-18.2c16.1-7.2,27.6-8.3,32.1-8.2
		c4.2,0,4.8-0.4,5-9c-3.3-0.6-8.3,0.3-12.3,0.8c-5.2,0.6-33.5,5.1-60.4,27C1082.5,1229.1,1082.4,1231,1082.1,1233.1z"/>
	<g>
		<path fill="#B48140" d="M939.5,1617.8c-29.5-5.9-38-11.8-38-11.8c-0.4-2.3,1.1-6.7,4.4-11c-5.9-3.9-5.3-7.6-3.7-10
			c0,0-22.8-0.2-39-2s-34.6-8.3-34.6-8.3c-2.5-1.3-4.4-4.1-5.7,2.2s-3.6,10.7,2.7,13.3s46.8,16.5,71,9.2l-1,9.7c0,0,2,5.6,27.8,12.3
			s60.6,7.8,87.8,6s56.2-11.5,56.2-11.5l0.4-5c-9.5,2.5-36,9.4-51.4,11.7C997.5,1625.6,969,1623.6,939.5,1617.8z"/>
		<path fill="#B48140" d="M1142.5,1582.9c-13,5.8-28,10.1-40.3,13.1s-27.2,1.4-27.2,1.4c-0.7-5-4.3-4.2-4.3-4.2s-0.5-1.2,0.6-5.7
			c-2.7,0.1-4.3,0.1-4.3,0.1l-2.2,10.3c3.7,1.9,3.9,4.7,3.9,4.7s24.8,0.3,52.1-5.5s38.6-14,41.8-16.8c2.1-1.9,2.9-5.9,3.2-9.1
			C1161.6,1576.3,1153.4,1578,1142.5,1582.9z"/>
		<path fill="#FEB04B" d="M1071.4,1610.1l-2.7-7.6l-0.8,8.5C1070.1,1610.5,1071.4,1610.1,1071.4,1610.1z"/>
		<path fill="#FEB04B" d="M1064.8,1597.8c0,0-5.3-0.5-6.1,0c-0.9,0.5-1.8,4.4-19.4,7.5s-65.5,5.8-102.5-0.8
			c-16.7-2.9-26-6.3-30.8-9.5c-3.4,4.3-4.9,8.7-4.4,11c0,0,8.5,5.9,38,11.8s58,7.9,77,5c15.4-2.3,42-9.2,51.4-11.7l0.8-8.5
			C1068.7,1602.5,1068.5,1599.7,1064.8,1597.8z"/>
		<path fill="#FEB04B" d="M1162.8,1563.6c0,0-9.7,10.3-40.2,17.8c-19.2,4.8-41.9,5.8-51.2,6c-1.1,4.5-0.6,5.7-0.6,5.7
			s3.6-0.9,4.3,4.2c0,0,14.9,1.5,27.2-1.4s27.3-7.2,40.3-13.1c10.9-4.9,19.1-6.6,23.3-11.7c0.2-1.5,0.2-2.8,0.3-3.6
			C1166.1,1565.1,1166.6,1564.2,1162.8,1563.6z"/>
	</g>
</g>
</svg>
