<?xml version="1.0" encoding="utf-8"?>
<!-- Generator: Adobe Illustrator 23.0.3, SVG Export Plug-In . SVG Version: 6.00 Build 0)  -->
<svg version="1.1" id="_x31_3_x5F_Bottom_x5F_Firefighter_x5F_Pants__x28_FIR_x29__1_"
	 xmlns="http://www.w3.org/2000/svg" xmlns:xlink="http://www.w3.org/1999/xlink" x="0px" y="0px" viewBox="0 0 2000 2000"
	 enable-background="new 0 0 2000 2000" xml:space="preserve">
<g>
	<path fill="#091426" d="M1207.4,1534.4c-0.1-1.5-0.4-3.1-0.7-4.8c-0.3-1.4-0.6-3-0.9-4.7c-0.9-4.9-2.1-11-3.4-17.2
		c-0.7-3.3-1.3-6.7-2-10c-2.4-12.1-4.5-22.3-4.5-22.3s5.2,1.7,3.8-15.2c-1.4-17-3.5-72.6-5.7-88.4s-7-21.2-7-21.2s-0.6-35.8-7.3-75
		c-3.3-19.7-10.1-45.1-15.9-65.6c-3.7-12.8-7.2-23.5-9.1-29.8c-0.4-1.1-0.9-2.1-1.1-2.9c-0.6-1.8-1-2.9-1-2.9s-2.4-7.1-5.1-14.7
		c-2-5.5-3.4-9-4.3-12.3c-2.9-1.1-6.5-2.3-10.8-4c-19.2-7.5-47.5-12-86.2-9.1c-6.1,0.5-12.1,1-18.1,1.7c-19.3,2.3-37.3,5.8-51.1,9.7
		c-7.4,2.1-13.5,4.4-18.1,6.7c-0.9,0.5-1.8,0.9-2.6,1.4c-14.4,8.4-19.5,16-21,19c-1.5,2.9-1.1,20.5-1.1,20.5s-0.2,0.3-0.6,1.1
		c-0.5,0.9-1.2,2.5-2.4,5.1c-1.2,2.8-2.9,6.7-5.2,12.3c-6.5,16-6.3,30.4-6.3,30.4s-13.2,27.8-15.7,55.1c0,0,22.6,19.6,41.9,42
		c0,0.1,0.1,0.1,0.1,0.2c1.6,1.9,3.2,3.8,4.8,5.8c4.3,5.3,8.3,10.7,11.7,16c0,0.1,0.1,0.1,0.1,0.2c21.1,33.2,26.7,63.5,22,100.9
		c-1.6,12.4-6.7,23.6-13.9,33.9c-2,2.9-4.3,5.7-6.6,8.5c-3.3,3.9-6.9,7.6-10.6,11.2c-9.4,9-20,17.1-30.4,24.6
		c-3.7,2.7-7.4,5.2-11,7.8c-6.8,4.7-14.5,7.9-22.4,10c-11.5,3.1-23.4,4-33.6,3.9c-9.2-0.1-16.9-0.9-21.5-1.5
		c-2.9-0.4-4.5-0.7-4.5-0.7s3.2,2.1,9.4,4.9c8,3.6,21,8.2,38.4,10.5c0,0-0.7,4,2.1,9.2c3.5,6.7,12.6,15.4,35.9,20.6
		c22.8,5,68.9,3.8,109.2,0.5c33.1-2.7,62.4-6.8,71.4-10c4.8-1.7,8-3.4,10.3-5c7.1-5.3,3.4-9.8,3.4-9.8s10-1,23.5-3.6
		c13.2-2.5,29.7-6.4,43.6-12.3C1202.8,1554.6,1208.5,1547.1,1207.4,1534.4z"/>
	<path fill="#060E1B" d="M968.1,1219.2c3.7-12.1,5.4-24.5,10.5-36.2c1.5-3.5-3.6-6.5-5.1-3c-5.1,11.9-10.7,26.3-6.1,39.2
		C967.4,1219.6,968,1219.7,968.1,1219.2L968.1,1219.2z"/>
	<g>
		<path fill="#060E1B" d="M830.4,1560.2c0,0,3.2,2.1,9.4,4.9c-1.7-1.4-3.3-2.7-4.9-4.2C832,1560.5,830.4,1560.2,830.4,1560.2z"/>
		<path fill="#060E1B" d="M946.2,1339.5c0,0.1,0.1,0.1,0.1,0.2C946.3,1339.6,946.3,1339.5,946.2,1339.5
			C946.3,1339.4,946.3,1339.4,946.2,1339.5z"/>
		<path fill="#060E1B" d="M959.1,1152.5c6-2.3,12.1-4.4,18.1-6.7C969.9,1147.9,963.7,1150.2,959.1,1152.5z"/>
		<path fill="#060E1B" d="M1107.9,1580.1c0.3,0.4,0.5,0.7,0.8,1.1c-0.1-0.3-0.2-0.6-0.3-1
			C1108.3,1580.2,1108.1,1580.2,1107.9,1580.1z"/>
		<path fill="#060E1B" d="M1087.9,1377.3L1087.9,1377.3c0-0.1,0-0.2,0-0.3C1087.9,1377.1,1087.9,1377.2,1087.9,1377.3z"/>
		<path fill="#060E1B" d="M941.2,1599.6c0,0.2,0,0.4-0.1,0.6c0.1,0,0.3,0,0.4,0.1C941.4,1600,941.3,1599.8,941.2,1599.6z"/>
		<path fill="#060E1B" d="M953.8,1325c1.3-9,2.5-18,3.5-27c1-9.1,2-18.3,2.9-27.4c0.8-8.6,2.4-18.2,1.1-26.8
			c-0.1-0.7-0.9-0.8-1.4-0.6c-0.3,0-0.7,0.1-0.9,0.5c-1.5,3.9-4.2,7-5.7,10.9c-1.3,3.5-2.3,7-3.6,10.5c-1.6,4.1-2.9,8.4-4,12.8
			c-0.3-5.4-0.1-10.7,0.1-16.1c0.4-11.8,1.3-23.9,0.4-35.7c-0.1-0.7-0.3-1.3-0.7-1.8c0.5-3,0.6-6.1,0-9.3c-0.5-2.1-3.9-2.1-4.2,0
			c-1.3,7-5.3,12.8-7.9,19.3c-2.9,7.5-5.3,15.2-7.7,22.8c-2.1,6.8-4.5,13.5-6.8,20.2c-0.6-2.8-1.2-5.6-1.4-8.5
			c-0.2-3-0.3-6.1-0.2-9.2c2.3-6.7,4.9-13.4,5.9-20.3c0.7-5.4-0.3-11,1.4-16.2c1.8-5.2,4.9-10,7.4-14.8c1.4-2.7,2.8-5.4,4.1-8.1
			c3.5-2.3,7.2-4.3,11-6.1c11.3-5.4,23.4-8.7,35.5-11.7c2.4-0.6,4.8-1.1,7.2-1.9c-0.2,2.9-0.2,5.7-0.3,8.6c-0.2,5.3-0.6,10.5-1,15.7
			c-0.9,11.2-2.1,22.3-3.5,33.4c-1.4,10.8-3.3,21.4-5.2,32c-1.7,9.2-3.8,19.4-1.2,28.6c0.3,1.1,2.2,1.3,2.4,0
			c2.1-14.3,4.9-28.4,7.3-42.7c0.3-1.3,0.5-2.7,0.8-4c1.9-10,4.1-19.9,6.2-29.8c1.6-7.6,3.2-15.2,4.3-22.9c0.2-0.8,0.3-1.6,0.5-2.3
			c2.1-8.4,5.1-16.4,8.5-24.4c3.3-7.5,6.6-15.1,10.5-22.4c1.9-3.6,4-7.1,6.3-10.5c0.9-1.3,2-2.6,3-3.9c-19.3,2.3-37.3,5.8-51.1,9.7
			c-6,2.3-12.1,4.4-18.1,6.7c-0.9,0.5-1.8,0.9-2.6,1.4c-14.4,8.4-19.6,15.7-21.1,18.6s-1,20.9-1,20.9s-0.2,0.3-0.6,1.1
			c-0.5,0.9-1.2,2.5-2.4,5.1c-1.2,2.8-2.9,6.7-5.2,12.3c-6.5,16-6.3,30.4-6.3,30.4s-13.2,27.8-15.7,55.1c0,0,22.6,19.6,41.9,42
			c0.1,0,0.1-0.1,0.2-0.1c0,0.1,0,0.2,0,0.2c1.6,1.9,3.2,3.8,4.8,5.8c0.3-1.8,0.4-3.6,0.6-5.4C952.4,1335,953.1,1330,953.8,1325z"/>
		<path fill="#060E1B" d="M1125.5,1541.4c0.2-0.7,0.3-1.5,0.1-2.2c-5.7-26.5-10.4-53.2-14-80.1c-1.7-13.1-3.2-26.3-4.4-39.5
			c-1.1-12.4-0.9-25.7-4.6-37.7c-0.2-0.5-0.4-1-0.7-1.3c-0.9-6.2-2.1-12.4-3.4-18.6c-0.5-2.8-0.9-5.5-1.4-8.3
			c-1.6-9.9-3.2-19.8-4.3-29.7c-1.1-9.7-1.7-18.6-0.6-28.4c0.5-5,1.3-10,1.7-15c0.4-4,0.7-7.6-1.1-11.2c-0.4-0.7-1-1.1-1.6-1.1
			c-2.4-1.2-6-0.3-8.4-0.8c-3.2-0.7-4.8-2.8-6.4-5.1c-0.2-0.6-0.3-1.3-0.5-1.9c-4.3-17.4-7.1-36.2-17.9-51c-1.3-1.8-4.6-0.8-3.8,1.6
			c2.6,8.6,5.7,17,7.7,25.8c2.1,8.9,4.3,17.7,6.5,26.6s4.4,17.7,6.6,26.6c0,0.1,0,0.1,0.1,0.2c0.2,3.6,1.1,7.2,1.7,10.8
			c1.1,6.5,2,13,2.7,19.5c1.4,12.4,1,24.6,0.4,37c-0.5,9.9-0.2,19.6,0.5,29.3c-0.4,3.8-0.2,7.7,0.1,11.6c0.4,6.9,1.1,13.8,1.6,20.6
			c1.1,13.8,2.2,27.6,3.3,41.5c2.1,25.7,3.1,51.9,6.7,77.5c0.1,3,0.2,6,0.5,9.1c1.4,15.3,1.4,32.7,14.1,43.4
			c0.1,0.1,0.2,0.1,0.2,0.2c7.1-5.3,3.4-9.8,3.4-9.8s10-1,23.5-3.6c-2.1-9.7-4.3-19.3-6.4-29
			C1127,1546.1,1126.3,1543.7,1125.5,1541.4z M1087.9,1377.3c0-0.1,0-0.2,0-0.3C1087.9,1377.1,1087.9,1377.2,1087.9,1377.3
			L1087.9,1377.3z M1107.9,1580.1c0.2,0,0.4,0.1,0.5,0.1c0.1,0.3,0.2,0.6,0.3,1C1108.4,1580.9,1108.2,1580.5,1107.9,1580.1z"/>
		<path fill="#060E1B" d="M880.3,1584.7c3.5,6.7,12.6,15.4,35.9,20.6c22.8,5,68.9,3.8,109.2,0.5c-12.8-17.8-22.8-37.4-32.1-57.1
			c-5.6-11.7-11-23.5-15.8-35.5c-2.1-5.3-3.5-11.2-6.2-16.3c-0.1-0.2-0.2-0.3-0.3-0.4c-2,2.9-4.6,5.5-6.9,8.3
			c-3.3,3.9-6.9,7.6-10.6,11.2c-9.4,9-19.7,17.3-30.1,24.8c-3.7,2.7-7.4,5.2-11,7.8c-6.8,4.7-14.5,7.9-22.4,10
			c-11.5,3.1-23.7,3.8-33.9,3.7c-9.2-0.1-16.9-0.9-21.5-1.5c1.6,1.4,3.5,3,5.2,4.4c8,3.6,21,8.2,38.4,10.5
			C878.2,1575.6,877.5,1579.5,880.3,1584.7z M941.2,1599.6c0.1,0.2,0.2,0.5,0.4,0.7c-0.1,0-0.3,0-0.4-0.1
			C941.2,1600,941.2,1599.8,941.2,1599.6z"/>
		<path fill="#060E1B" d="M1116,1198.4c-1.4-8.5-3.1-23.9-13.7-26c-2-0.4-3.9,2.1-2.1,3.7c3.3,3.2,3.9,8.1,4.9,12.4
			c1.2,5.3,2.3,10.6,3.3,15.9c0.9,5,1.9,10,2.6,15.1c0.6,4.2,0,10.7,3.5,13.6c0.6,0.5,1.7,0.7,2.3,0c3.3-4,1.3-10.7,1-15.5
			C1117.5,1211.2,1117.1,1204.8,1116,1198.4z"/>
		<path fill="#060E1B" d="M1149.9,1179.5c2,6.2,4.9,11.9,7.6,17.8c1.9,4.1,3.6,8.9,6.4,12.6c-3.7-12.8-7.3-23.4-9.2-29.7
			c-0.4-1.1-0.9-2.3-1.1-3.1c-0.6-1.8-0.8-2.4-0.8-2.4s-1.4-5.9-4.6-13.3c-1.9-6.4-3.3-7.8-4.9-14c0.4,4.9,1.3,10,1.3,14.5
			C1144.5,1169.2,1147.6,1172.5,1149.9,1179.5z"/>
	</g>
	<path fill="#010102" d="M959.4,1198.7c-1.6,5-3.6,9.9-4.7,15c-0.1,0.5,0.6,0.7,0.8,0.2c2-5.1,3.6-10.3,5.7-15.4
		c1.6-3.8,3.9-7.5,5-11.5c1.8-0.5,3.5-1,5.3-1.5c1.7-0.4,3.4-0.8,5.1-1.2c-2.6,4.1-3.4,10.3-4.5,14.6c-1.8,7.3-2.6,14.9-5.1,22
		c-0.2,0.7,0.8,0.9,1,0.3c2.3-6.4,3.7-13.2,5.7-19.8c0.9-3.1,1.8-6.1,2.8-9.2c1-2.9,2.6-5.7,3.4-8.6c12.1-2.6,24.3-4.5,36.6-5.7
		c21.2-2.2,42.5-3.2,63.8-3.2l0,0c0.1,3.4,1.4,6.6,1.9,10.1s1,7,1.5,10.4c1.1,7.9,2.1,15.9,2.6,23.9c0.4,7.5,0.7,15.1,1.1,22.6
		c0.4,7.7,1.8,16,0.9,23.6c-0.1,0.7,1,0.8,1.2,0.2c1.9-7.2,1.1-14.4,0.8-21.8c-0.4-8.5-0.8-17-1.5-25.5c-0.6-7.3-1.9-14.4-3.2-21.5
		c-0.7-4-1.3-8.1-2.1-12.1c-0.7-3.2-0.8-7.1-2.4-9.9c6,0,11.9,0.1,17.9,0.3c5.8,13.3,11.1,26.8,15.8,40.6c0.2,0.5,0.9,0.3,0.8-0.2
		c-4.1-13.7-9-27.2-14.7-40.3c2.8,0.1,5.5,0.2,8.3,0.3c7.5,0.3,15,0.8,22.6,1.5c0.4,3.5,1.6,7,2.3,10.5c0.8,4.3,1.5,8.6,2.2,12.9
		c0.6,4.2,1.2,8.5,1.9,12.7c0.5,3.5,0.7,7.3,2.2,10.5c0.1,0.3,0.7,0.2,0.7-0.1c0.5-3.1-0.2-6.2-0.7-9.2c-0.7-4.5-1.3-9-2-13.5
		c-0.7-4.3-1.4-8.6-2.2-12.8c-0.7-3.2-1.2-6.7-2.3-9.9c2.8,3.9,5.7,7.7,8.4,11.7c3.1,4.6,5.8,9.4,8.8,14.1c0.2,0.3,0.6,0,0.5-0.3
		c-2.4-5.5-5.2-11.2-8.4-16.3c-2.3-3.6-5-7.2-8.3-10c6.9,0.7,12.9,1.6,19.6,3c-0.4-1.1-0.7-2.1-0.9-2.9c-12.1-1.8-23.4-3.3-35.7-4.1
		c-16.5-1-32.9-1.1-49.4-0.8c-30.7,0.5-61.4,2.1-91.5,8.8c-14.2,3.2-29.6,6.8-42.8,13.5c-0.5,0.9-1.2,2.5-2.4,5.1
		c10.7-3.9,21.2-8.3,32-11.8C961.7,1191.2,960.5,1195.2,959.4,1198.7z"/>
	<path fill="#010102" d="M1090.4,1473c-0.8-11.9-1.5-23.8-2.4-35.7c-0.9-11.6-1.7-23.2-2.6-34.7c-0.4-5.6-0.8-11.2-1.4-16.9
		c-0.2-2.4-0.4-4.9-0.6-7.4c0-0.9,0-1.9,0.1-2.8c0.2-5.2,0.4-10.4,0.5-15.7c0.2-10.1,0.3-20.2,0.8-30.3c0.4-10.1,0.7-20.2,1.9-30.3
		c1.3-10.3,3.6-20.5,2.8-30.9c0-0.1,0-0.2-0.1-0.3c0.2-0.7-0.2-1.6-1-1.6v-0.1c-0.1-0.2-4.4-0.8-4.7-1c-1.3-0.4-2.6-0.8-3.8-1.2
		c-3-1-5.8-2.3-8.6-3.8c-1.9-1-3.5-2.5-5.6-3c-0.8-0.2-1.4,0.8-0.8,1.4c2.3,2.5,6.8,3.8,9.9,5.2c4.1,1.8,8.2,3.3,12.3,5
		c0.3,10.3-1.7,20.2-3.1,30.4c-1.3,9.7-1.7,19.5-2.3,29.3c-0.6,9.8-1.3,19.6-1.8,29.4c-0.2,3.7-0.3,7.5-0.5,11.2
		c-0.3,2.1-0.3,4.2-0.2,6.3c-0.2,4-0.6,8.3,0.9,12c0.3,4.7,0.7,9.4,1.1,14.1c0.9,11.9,1.9,23.8,2.8,35.7c0.9,11.6,1.8,23.2,2.6,34.7
		c0.4,5.6,0.8,11.3,1.3,16.9c0.5,5.4,0,12.1,2.1,17.1c0.3,0.9,1.7,1,1.9,0c1.3-5,0.1-11-0.1-16.1
		C1091.2,1484.2,1090.8,1478.6,1090.4,1473z"/>
	<path fill="#292929" d="M1088.7,1367c-1.6,7.7,1.9,63.4,4.9,94.5c3.1,31.2,6.1,22.7,12.7,23.1s49.8-0.5,89.6-9.2
		c0,0,5.2,1.7,3.8-15.2c-1.4-17-3.5-72.6-5.7-88.4s-7-21.2-7-21.2s-48.7,2-71.3,4.8S1090.3,1359.3,1088.7,1367z"/>
	<path fill="#292929" d="M1062.1,1470.3c0.8-25.8,3.6-83.2,2.1-93s1.2-14.8-14.6-17.9c-14.7-2.8-67.3-2.3-87,2.1
		c0,0.1,0.2,0.2,0.2,0.3c20.6,33.8,26.4,63.7,21.7,101.1c-2,15.9-10.1,29.9-20.8,42.4c44.6-0.6,87-6,91.9-8.9
		C1061.1,1493.1,1061.3,1496.1,1062.1,1470.3z"/>
	<g>
		<g>
			<path fill="#A2A62E" d="M1089.9,1509L1089.9,1509L1089.9,1509z"/>
			<path fill="#BABA63" d="M1116,1568.7c0.1,0,0.1,0,0.2,0v0.1c-11.3,1.8-19.1,2.8-19.1,2.8l0.4,2c-4,2-8.1,3.8-12.2,5.5l0,0l0,0
				l0,0c-6.7,2.7-13.5,5.1-20.4,7.1l-0.1-0.1c-35.2,10.2-73,11.2-112.4,8.8l0,0c-1.8-0.1-3.5-0.2-5.2-0.3c-5.1-0.3-9.9-0.7-14.6-1.2
				c-22.5-2.3-40.5-6-52.5-8.9c-2.8-5.2-2.1-9.2-2.1-9.2l2.4-5c0,0-8.3-0.2-24.5-8.2c10.2,0.1,22.3-0.8,33.7-3.9l0,0
				c7.5-2.4,14.6-5.7,21.6-9.3c0.6-0.3,1.2-0.7,1.8-1.1c3.3-2.4,6.6-4.6,10-7.1l0,0c9.7-6.9,19.7-14.7,28.6-22.9l0,0l-0.1,0.1
				l0.1-0.1c0.8-0.7,1.4-1.3,2.1-2c4,0.3,9.1,0.8,15.4,1c0,0.1,0,0.1,0,0.2c12.4,0.4,29.7,0.8,53.5,0.6c9.9-0.1,18.3-0.4,25.5-0.7
				v-0.1c10.4-0.5,18.2-1.3,24.1-2.1l0.1,0.1c16-2.3,17.6-5.2,17.6-5.7c0.1,0.7,1.3,7.1,1.3,7.1c4.4,1.1,11,1.7,18.7,1.9v-0.1
				c2.9,0.1,5.9,0.1,9.1,0v0.1c19-0.4,42-3.1,57.7-7.4l0,0l0,0c3.8-1.1,7.2-2.2,10-3.5c1.8-0.8,3.5-1.6,4.8-2.4c0,0,0,0,0.1,0
				c0,0,0,0-0.1,0v-0.1c4.7-2.6,7.4-4.9,9-7c0.7,3.3,1.3,6.7,2,10l0,0c1.3,6.2,2.5,12.3,3.4,17.2l-0.1,0.1c0.3,1.7,0.6,3.2,0.9,4.6
				c0.3,1.7,0.6,3.3,0.7,4.8c-1.1,1.2-2.5,2.5-4.2,4l0,0l0.1-0.1l-0.1,0.1c-2.8,2.5-6.6,5.1-11.4,8h-0.1c-4,2.4-8.8,4.8-14.4,7.1
				c-14.4,6-35.6,10.6-52.6,13.7c-3,0.6-5.9,1.1-8.5,1.5C1116.1,1568.7,1116.1,1568.7,1116,1568.7z"/>
		</g>
		<path fill="#A2A62E" d="M1031.5,1536.7c7.2-0.9,14.1-2.1,20.6-3.3l-4-16.5c-7.2,0.3-15.6,0.6-25.5,0.7
			c-23.9,0.2-41.2-0.2-53.6-0.6c-1.1,5.2-3,14.6-5.3,25.4C989.4,1541.8,1012.7,1539.1,1031.5,1536.7z"/>
		<path fill="#A2A62E" d="M1171.7,1525c3.7-1,7-1.9,10-2.6c-1.9-4.4-3.6-8.6-5-11.7c-15.7,4.3-38.7,7-57.7,7.4l1.7,14.5
			C1138,1531,1159.3,1528.5,1171.7,1525z"/>
		<path fill="#A2A62E" d="M1202.5,1507.7c-0.7-3.3-1.3-6.7-2-10c-1.6,2.1-4.3,4.4-9,7l4.3,12.3
			C1198.9,1515,1201,1512.2,1202.5,1507.7z"/>
		<path fill="#A2A62E" d="M1091.7,1524.2l1,10.5c0,0,7.9-0.4,19.1-1.3l-1.9-15.3c-7.7-0.2-14.3-0.8-18.7-1.9c0,0-1.4-7.6-1.3-7.2
			c0.1,0.3-0.9,3.4-17.6,5.8l2.8,13.8C1085.3,1526.1,1091.7,1524.2,1091.7,1524.2z"/>
		<path fill="#A2A62E" d="M951.6,1517.8c-8.9,8.2-18.9,16-28.6,22.9c7.5,0.7,15.6,1.2,22.9,1.4L951.6,1517.8z"/>
		<path fill="#A2A62E" d="M889.7,1558.2c-11.5,3.1-23.6,4-33.8,3.9c16.2,8,24.5,8.2,24.5,8.2l-2.4,5c0,0-0.7,4,2.1,9.2
			c12,2.9,30,6.6,52.5,8.9l6.1-23.7C917.2,1566.2,899.5,1561.2,889.7,1558.2z"/>
		<path fill="#A2A62E" d="M1094.7,1559.3l-0.3-8.3c0,0-4.5,3-13.4,6.8l4.3,21.3c4.1-1.7,8.2-3.5,12.2-5.5l-0.4-2c0,0,7.8-1,19.1-2.8
			l-1.2-10.1C1102.7,1559.6,1094.7,1559.3,1094.7,1559.3z"/>
		<path fill="#A2A62E" d="M1142,1554.5c-6.5,1.4-12.7,2.4-18.4,3.1l1.1,9.6c17-3.1,38.2-7.7,52.6-13.7c5.6-2.3,10.4-4.7,14.4-7.1
			c-0.9-2.3-2.2-5.3-3.6-8.6C1177.5,1543.4,1161.5,1550.3,1142,1554.5z"/>
		<path fill="#A2A62E" d="M1207.4,1534.4c-0.1-1.5-0.4-3.1-0.7-4.8c-0.3-1.4-0.6-3-0.9-4.7c-1.1,1.5-2.8,3.4-5.4,5.5l2.8,8
			C1204.9,1536.9,1206.3,1535.6,1207.4,1534.4z"/>
		<path fill="#A2A62E" d="M999.5,1574c-14.6,0.4-28.9-0.3-42.1-1.8c-1.9,9.1-3.7,17.2-5,22.7c39.4,2.4,77.2,1.4,112.4-8.8l-5.1-21
			C1044.6,1569.5,1024.5,1573.3,999.5,1574z"/>
		<path fill="#707070" d="M1171.7,1525c-12.4,3.5-33.6,6-51,7.5l2.9,25.1c5.7-0.7,11.9-1.7,18.4-3.1c19.5-4.2,35.5-11.1,46.1-16.7
			c-2-4.8-4.3-10.3-6.5-15.5C1178.7,1523.1,1175.4,1524,1171.7,1525z"/>
		<path fill="#707070" d="M1031.5,1536.7c-18.8,2.5-42.1,5.2-67.7,5.6c-2,9.6-4.3,20.3-6.4,30c13.2,1.4,27.5,2.2,42.1,1.8
			c25-0.7,45.1-4.5,60.3-8.8l-7.7-31.8C1045.6,1534.6,1038.7,1535.7,1031.5,1536.7z"/>
		<path fill="#707070" d="M1092.7,1534.7l-1-10.5c0,0-6.4,1.9-16.6,4.4l5.9,29.2c8.9-3.8,13.4-6.8,13.4-6.8l0.3,8.3
			c0,0,8,0.3,20.2-0.8l-3.1-25.2C1100.6,1534.2,1092.7,1534.7,1092.7,1534.7z"/>
		<path fill="#707070" d="M1195.9,1517.1l4.6,13.3c2.6-2.1,4.3-4,5.4-5.5c-0.9-4.9-2.1-11-3.4-17.2
			C1201,1512.2,1198.9,1515,1195.9,1517.1z"/>
		<path fill="#707070" d="M945.6,1542.1c-7.3-0.2-15.1-0.7-22.6-1.4c-3.4,2.5-6.7,4.7-10,7.1c-0.6,0.4-1.2,0.8-1.8,1.1
			c-7,3.6-14.1,6.9-21.6,9.3c9.8,3,27.6,8,49.1,11.5L945.6,1542.1z"/>
		<path fill="#A4A657" d="M1195.9,1517.1l-4.3-12.3c-1.4,0.8-3.1,1.6-4.9,2.4c-2.8,1.3-6.2,2.4-10,3.5c1.3,3.2,3.1,7.3,5,11.7
			C1187.8,1520.7,1192.4,1519.4,1195.9,1517.1z"/>
		<path fill="#A4A657" d="M1196.7,1533c-2.3,1.4-5.1,3-8.5,4.8c1.4,3.3,2.6,6.3,3.6,8.6c4.9-2.9,8.7-5.6,11.5-8.1l-2.8-8
			C1199.4,1531.2,1198.1,1532.1,1196.7,1533z"/>
		<path fill="#7C7C7C" d="M1181.6,1522.4c2.2,5.1,4.5,10.7,6.5,15.5c3.4-1.8,6.3-3.4,8.5-4.8c1.5-0.9,2.7-1.8,3.8-2.6l-4.6-13.3
			C1192.4,1519.4,1187.8,1520.7,1181.6,1522.4z"/>
		<path fill="#BABA63" d="M1120.7,1532.5l-1.7-14.5c-3.2,0.1-6.2,0.1-9.1,0l1.9,15.3C1114.6,1533.1,1117.6,1532.8,1120.7,1532.5z"/>
		<path fill="#BABA63" d="M1114.8,1558.6l1.2,10.1c2.7-0.4,5.6-0.9,8.7-1.5l-1.1-9.6C1120.5,1558,1117.6,1558.3,1114.8,1558.6z"/>
		<path fill="#939393" d="M1111.7,1533.3l3.1,25.2c2.7-0.2,5.7-0.5,8.8-0.9l-2.9-25.1C1117.6,1532.8,1114.6,1533.1,1111.7,1533.3z"
			/>
		<path fill="#A4A657" d="M1075,1528.5l-2.8-13.8c-5.9,0.8-13.7,1.6-24.1,2.1l4,16.5C1060.8,1531.8,1068.7,1530.1,1075,1528.5z"/>
		<path fill="#A4A657" d="M1059.8,1565.2l5.1,21c6.9-2,13.7-4.4,20.4-7.1l-4.3-21.3C1075.5,1560.1,1068.4,1562.7,1059.8,1565.2z"/>
		<path fill="#7C7C7C" d="M1052.1,1533.4l7.7,31.8c8.7-2.5,15.7-5.1,21.2-7.4l-5.9-29.2C1068.7,1530.1,1060.8,1531.8,1052.1,1533.4z
			"/>
		<path fill="#BABA63" d="M963.8,1542.2c2.3-10.8,4.2-20.2,5.3-25.4c-6.3-0.2-11.4-0.7-15.4-1c-0.7,0.7-1.4,1.4-2.2,2.1l-6.1,25.2
			C951.5,1543.4,957.8,1542.3,963.8,1542.2z"/>
		<path fill="#BABA63" d="M938.6,1569.7l-6,23.7c4.7,0.5,9.5,0.9,14.6,1.2c1.7,0.1,3.4,0.2,5.2,0.3c1.3-5.5,3.1-13.7,5-22.7
			C950.9,1571.5,944.6,1570.6,938.6,1569.7z"/>
		<path fill="#939393" d="M945.6,1542.1l-7,27.6c6,1,12.3,1.8,18.8,2.5c2.1-9.7,4.3-20.4,6.4-30
			C957.8,1542.3,951.7,1542.3,945.6,1542.1z"/>
	</g>
	<g opacity="0.3">
		<path fill="#091426" d="M830.4,1560.2c0,0,3.2,2.1,9.4,4.9c-1.7-1.4-3.3-2.7-4.9-4.2C832,1560.5,830.4,1560.2,830.4,1560.2z"/>
		<path fill="#091426" d="M946.2,1339.5c0,0.1,0.1,0.1,0.1,0.2C946.3,1339.6,946.3,1339.5,946.2,1339.5
			C946.3,1339.4,946.3,1339.4,946.2,1339.5z"/>
		<path fill="#091426" d="M959.1,1152.5c6-2.3,12.1-4.4,18.1-6.7C969.9,1147.9,963.7,1150.2,959.1,1152.5z"/>
		<path fill="#091426" d="M1107.9,1580.1c0.3,0.4,0.5,0.7,0.8,1.1c-0.1-0.3-0.2-0.6-0.3-1
			C1108.3,1580.2,1108.1,1580.2,1107.9,1580.1z"/>
		<path fill="#091426" d="M1087.9,1377.3L1087.9,1377.3c0-0.1,0-0.2,0-0.3C1087.9,1377.1,1087.9,1377.2,1087.9,1377.3z"/>
		<path fill="#091426" d="M941.2,1599.6c0,0.2,0,0.4-0.1,0.6c0.1,0,0.3,0,0.4,0.1C941.4,1600,941.3,1599.8,941.2,1599.6z"/>
		<path fill="#091426" d="M953.8,1325c1.3-9,2.5-18,3.5-27c1-9.1,2-18.3,2.9-27.4c0.8-8.6,2.4-18.2,1.1-26.8
			c-0.1-0.7-0.9-0.8-1.4-0.6c-0.3,0-0.7,0.1-0.9,0.5c-1.5,3.9-4.2,7-5.7,10.9c-1.3,3.5-2.3,7-3.6,10.5c-1.6,4.1-2.9,8.4-4,12.8
			c-0.3-5.4-0.1-10.7,0.1-16.1c0.4-11.8,1.3-23.9,0.4-35.7c-0.1-0.7-0.3-1.3-0.7-1.8c0.5-3,0.6-6.1,0-9.3c-0.5-2.1-3.9-2.1-4.2,0
			c-1.3,7-5.3,12.8-7.9,19.3c-2.9,7.5-5.3,15.2-7.7,22.8c-2.1,6.8-4.5,13.5-6.8,20.2c-0.6-2.8-1.2-5.6-1.4-8.5
			c-0.2-3-0.3-6.1-0.2-9.2c2.3-6.7,4.9-13.4,5.9-20.3c0.7-5.4-0.3-11,1.4-16.2c1.8-5.2,4.9-10,7.4-14.8c1.4-2.7,2.8-5.4,4.1-8.1
			c3.5-2.3,7.2-4.3,11-6.1c11.3-5.4,23.4-8.7,35.5-11.7c2.4-0.6,4.8-1.1,7.2-1.9c-0.2,2.9-0.2,5.7-0.3,8.6c-0.2,5.3-0.6,10.5-1,15.7
			c-0.9,11.2-2.1,22.3-3.5,33.4c-1.4,10.8-3.3,21.4-5.2,32c-1.7,9.2-3.8,19.4-1.2,28.6c0.3,1.1,2.2,1.3,2.4,0
			c2.1-14.3,4.9-28.4,7.3-42.7c0.3-1.3,0.5-2.7,0.8-4c1.9-10,4.1-19.9,6.2-29.8c1.6-7.6,3.2-15.2,4.3-22.9c0.2-0.8,0.3-1.6,0.5-2.3
			c2.1-8.4,5.1-16.4,8.5-24.4c3.3-7.5,6.6-15.1,10.5-22.4c1.9-3.6,4-7.1,6.3-10.5c0.9-1.3,2-2.6,3-3.9c-19.3,2.3-37.3,5.8-51.1,9.7
			c-6,2.3-12.1,4.4-18.1,6.7c-0.9,0.5-1.8,0.9-2.6,1.4c-14.4,8.4-19.6,15.7-21.1,18.6s-1,20.9-1,20.9s-0.2,0.3-0.6,1.1
			c-0.5,0.9-1.2,2.5-2.4,5.1c-1.2,2.8-2.9,6.7-5.2,12.3c-6.5,16-6.3,30.4-6.3,30.4s-13.2,27.8-15.7,55.1c0,0,22.6,19.6,41.9,42
			c0.1,0,0.1-0.1,0.2-0.1c0,0.1,0,0.2,0,0.2c1.6,1.9,3.2,3.8,4.8,5.8c0.3-1.8,0.4-3.6,0.6-5.4C952.4,1335,953.1,1330,953.8,1325z"/>
		<path fill="#091426" d="M1125.5,1541.4c0.2-0.7,0.3-1.5,0.1-2.2c-5.7-26.5-10.4-53.2-14-80.1c-1.7-13.1-3.2-26.3-4.4-39.5
			c-1.1-12.4-0.9-25.7-4.6-37.7c-0.2-0.5-0.4-1-0.7-1.3c-0.9-6.2-2.1-12.4-3.4-18.6c-0.5-2.8-0.9-5.5-1.4-8.3
			c-1.6-9.9-3.2-19.8-4.3-29.7c-1.1-9.7-1.7-18.6-0.6-28.4c0.5-5,1.3-10,1.7-15c0.4-4,0.7-7.6-1.1-11.2c-0.4-0.7-1-1.1-1.6-1.1
			c-2.4-1.2-6-0.3-8.4-0.8c-3.2-0.7-4.8-2.8-6.4-5.1c-0.2-0.6-0.3-1.3-0.5-1.9c-4.3-17.4-7.1-36.2-17.9-51c-1.3-1.8-4.6-0.8-3.8,1.6
			c2.6,8.6,5.7,17,7.7,25.8c2.1,8.9,4.3,17.7,6.5,26.6s4.4,17.7,6.6,26.6c0,0.1,0,0.1,0.1,0.2c0.2,3.6,1.1,7.2,1.7,10.8
			c1.1,6.5,2,13,2.7,19.5c1.4,12.4,1,24.6,0.4,37c-0.5,9.9-0.2,19.6,0.5,29.3c-0.4,3.8-0.2,7.7,0.1,11.6c0.4,6.9,1.1,13.8,1.6,20.6
			c1.1,13.8,2.2,27.6,3.3,41.5c2.1,25.7,3.1,51.9,6.7,77.5c0.1,3,0.2,6,0.5,9.1c1.4,15.3,1.4,32.7,14.1,43.4
			c0.1,0.1,0.2,0.1,0.2,0.2c7.1-5.3,3.4-9.8,3.4-9.8s10-1,23.5-3.6c-2.1-9.7-4.3-19.3-6.4-29
			C1127,1546.1,1126.3,1543.7,1125.5,1541.4z M1087.9,1377.3c0-0.1,0-0.2,0-0.3C1087.9,1377.1,1087.9,1377.2,1087.9,1377.3
			L1087.9,1377.3z M1107.9,1580.1c0.2,0,0.4,0.1,0.5,0.1c0.1,0.3,0.2,0.6,0.3,1C1108.4,1580.9,1108.2,1580.5,1107.9,1580.1z"/>
		<path fill="#091426" d="M880.3,1584.7c3.5,6.7,12.6,15.4,35.9,20.6c22.8,5,68.9,3.8,109.2,0.5c-12.8-17.8-22.8-37.4-32.1-57.1
			c-5.6-11.7-11-23.5-15.8-35.5c-2.1-5.3-3.5-11.2-6.2-16.3c-0.1-0.2-0.2-0.3-0.3-0.4c-2,2.9-4.3,5.7-6.6,8.5
			c-3.3,3.9-7.2,7.4-10.9,11c-9.4,9-20.1,17.2-30.5,24.7c-3.7,2.7-7.7,5.3-11.3,7.9c-7.1,3.6-14,6.5-22,9.5
			c-11.5,3.1-23.4,4-33.6,3.9c-9.2-0.1-16.6-0.5-21.2-1.1c1.6,1.4,3.2,2.8,4.9,4.2c8,3.6,21,8.2,38.4,10.5
			C878.2,1575.6,877.5,1579.5,880.3,1584.7z M941.2,1599.6c0.1,0.2,0.2,0.5,0.4,0.7c-0.1,0-0.3,0-0.4-0.1
			C941.2,1600,941.2,1599.8,941.2,1599.6z"/>
		<path fill="#091426" d="M1116,1198.4c-1.4-8.5-3.1-23.9-13.7-26c-2-0.4-3.9,2.1-2.1,3.7c3.3,3.2,3.9,8.1,4.9,12.4
			c1.2,5.3,2.3,10.6,3.3,15.9c0.9,5,1.9,10,2.6,15.1c0.6,4.2,0,10.7,3.5,13.6c0.6,0.5,1.7,0.7,2.3,0c3.3-4,1.3-10.7,1-15.5
			C1117.5,1211.2,1117.1,1204.8,1116,1198.4z"/>
		<path fill="#091426" d="M1149.9,1179.5c2,6.2,4.9,11.9,7.6,17.8c1.9,4.1,3.6,8.9,6.4,12.6c-3.7-12.8-7.3-23.4-9.2-29.7
			c-0.4-1.1-0.9-2.3-1.1-3.1c-0.6-1.8-0.8-2.4-0.8-2.4s-2-6.4-4.8-13.7c-2-5.6-2.9-6.8-4.7-13.5c0,4.6,1,9.1,2.1,13.5
			C1147,1168.4,1147.6,1172.5,1149.9,1179.5z"/>
	</g>
	<g>
		<g>
			<path fill="#878787" d="M1073.8,1142.6c-4.5,0-8.2,3.5-9,8c-0.1,0.6-0.2,1.2-0.2,1.8c0,5.4,4.1,9.8,9.2,9.8c2.5,0,4.7-1,6.3-2.7
				c1.7-1.8,2.8-4.3,2.8-7.1C1083,1147,1078.9,1142.6,1073.8,1142.6z"/>
			<path opacity="0.3" fill="#091426" enable-background="new    " d="M1073.8,1162.3c2.5,0,4.7-1,6.3-2.7c-0.9-2.3-3.5-4.1-6.3-5.9
				c-3.1-2-5.1-3.4-9-2.9c-0.1,0.6-0.2,1.2-0.2,1.8C1064.7,1157.9,1068.8,1162.3,1073.8,1162.3z"/>
		</g>
		<g>
			<g>
				<path fill="#CD2928" d="M1108.8,1070.8c-3.5-11.8-10-40.6-13.9-57.7c-1.2-5.5-2.2-9.7-2.7-11.8c-2.1-8.6-7.5-13.3-20.3-25.9
					c-12.8-12.7-17.4-14-17.4-14s5.5,17.3,10.3,30c2.2,5.9,5.5,16.9,8.8,29.4c3.8,14.5,7.8,30.8,10.5,43.4
					c5.1,23.3,6.4,21.5,11.3,50l17.1,1C1112.6,1115.1,1113.4,1086.4,1108.8,1070.8z"/>
				<path fill="#CD2928" d="M988.6,967.1c0,0-1.5-0.1-9.6,6.7s-14.9,13.6-14.9,13.6c4.4,0.1,4.4,3.1,6.4,33.1
					c1.2,17.6,2,35.7,2.8,54.8c0.5,13.5,1,27.5,1.6,42l22.6-2.3c0,0,1.5-19.1,2.5-39.1c0.2-4.9,0.7-10.8,1.1-17.3
					c1.5-20.4,3.4-46.4,1.1-62.1C999.2,975.8,988.6,967.1,988.6,967.1z"/>
			</g>
			<path opacity="0.3" fill="#091426" enable-background="new    " d="M1002.2,996.5c-3-20.8-13.6-29.4-13.6-29.4s-1.5-0.1-9.6,6.7
				s-14.9,13.6-14.9,13.6c4.4,0.1,4.4,3.1,6.4,33.1c1.2,17.6,2,35.7,2.8,54.8c9.3-5.5,18.5-11.2,27.8-16.7
				C1002.5,1038.2,1004.4,1012.2,1002.2,996.5z"/>
			<path opacity="0.3" fill="#091426" enable-background="new    " d="M1092.2,1001.3c-2.1-8.6-7.5-13.3-20.3-25.9
				c-12.8-12.7-17.4-14-17.4-14s5.5,17.3,10.3,30c2.2,5.9,5.5,16.9,8.8,29.4c7-2.8,14.1-5.4,21.3-7.7
				C1093.6,1007.7,1092.7,1003.4,1092.2,1001.3z"/>
		</g>
		<path fill="#323232" d="M993.2,1120.3c4.2,26.8,7.7,42.9,8.1,42.9c0.4,0,10.4,1.6,10.1,1.1s-5-18.4-9.1-29.4s-5.3-17.2-5.3-17.2
			L993.2,1120.3z"/>
		<path fill="#323232" d="M982.3,1124c-11.4,22.8-23.8,47.8-23.8,47.8s-6-3-5.7-3.4s8.2-13.7,13.8-26.3
			c5.6-12.5,11.1-22.5,11.1-22.5L982.3,1124z"/>
		<path fill="#323232" d="M1101.6,1155.6c4-13.4,0-31.7,0-31.7s4.6,0.7,4.9,0.9c0.3,0.3,3,10,3.9,18.3s-1.5,15.3-1.5,15.3
			L1101.6,1155.6z"/>
		<path fill="#323232" d="M1136.1,1158.7c-10.3-7.8-14.4-15.9-17.4-22.4c-3-6.4-8.2-16.3-8.2-16.3l1.4-1.8c0,0,6,9.4,12.3,17.8
			c5.7,9.5,12.6,15.9,17,17.9C1145.7,1156,1136.1,1158.7,1136.1,1158.7z"/>
		<g>
			<path fill="#5F5F5F" d="M1106.1,1162.8c1.4,0,3.2-0.4,4.9-0.9c0.1-0.8,0.2-1.7,0.2-2.5c0-4.2-5-8-8.4-8c-1.2,0-2,0.4-2.6,1.2
				C1101.6,1159.1,1102.8,1162.9,1106.1,1162.8z"/>
			<path fill="#5F5F5F" d="M1141.6,1157.6c0.7-1.1,0.8-2.7,0.7-4.1c-0.1-0.2-0.3-0.4-0.4-0.5c-2.5-3.1-8.4-2.8-10.8-0.6
				c-0.2,0.2-0.4,0.4-0.6,0.7c1,0.5,2.1,1.3,3.3,2.4C1138.4,1159.9,1139.9,1160.2,1141.6,1157.6z"/>
			<path fill="#5F5F5F" d="M1006,1170.5c3.3,1,6.3-1,8.4-3c0-0.1,0-0.2,0-0.2c0-4.6-3.6-11.3-8.5-11.3c-2.5,0-5.5,1.7-7.8,3.9
				C999.6,1165.6,1001.5,1169.1,1006,1170.5z"/>
			<path fill="#5F5F5F" d="M961.5,1178.7c0.5-0.9,0.8-2,0.8-3.1c0-4.4-2.6-8.8-7.3-8.8c-1,0-2.1,0.3-3.1,0.9
				C951.9,1173.8,954.8,1178.1,961.5,1178.7z"/>
			<path fill="#323232" d="M945.1,1177.8c0,4.4,4,6.8,8.8,5.7c3.3-0.8,6.3-2.3,7.6-4.8c-6.7-0.6-9.5-4.9-9.6-11.1
				C948.3,1169.6,945.1,1174.4,945.1,1177.8z"/>
			<path fill="#323232" d="M1004.6,1174.6c4.8,0,9.6-2.6,9.7-7.1c-2.1,2-5.1,3.9-8.4,3c-4.5-1.4-6.4-4.8-7.9-10.6
				c-2.2,2.1-3.8,4.8-3.8,7C994.3,1171.4,999.8,1174.6,1004.6,1174.6z"/>
			<path fill="#323232" d="M1106.4,1166.9c2.7,0,4.1-2.1,4.6-5c-1.7,0.5-3.5,0.9-4.9,0.9c-3.3,0-4.5-3.7-6-10.3
				c-1.2,1.5-1.5,4.1-1.5,6.9C1098.6,1163.5,1102.9,1166.9,1106.4,1166.9z"/>
			<path fill="#323232" d="M1133.1,1161.1c2.5,3.1,7.7,2.9,10.1,0.6c2.3-2.1,1.4-5.3-0.8-8.3c0.1,1.5,0,3.1-0.7,4.1
				c-1.8,2.6-3.3,2.3-7.8-2.1c-1.1-1.1-2.2-1.9-3.3-2.4C1129,1155.2,1130.8,1158.2,1133.1,1161.1z"/>
		</g>
		<g>
			<path fill="#878787" d="M999,1109.2c-0.4-0.1-1-0.1-1.7,0c-5.7,0.3-19.4,3.3-23.3,4.5c-0.4,0.1-0.7,0.2-1,0.4
				c-3.2,1.4-2.4,3.3-2.4,3.3c4.2,5.2,10.7,13.2,12.3,13.8s3.1,0.5,8.1-5.7s9.4-11.3,11.3-13.8
				C1004.2,1109.1,1002.9,1109.7,999,1109.2z"/>
			<path fill="#878787" d="M1106.1,1110.4c-8.2-0.9-12.3-0.8-14.3,0s-2.1,1.8-0.8,3.1c6.5,6.1,12,16.1,14.7,17.2
				c2.7,1.2,4.1-1.1,6.1-5.8c1.9-4.7,5.2-8.3,5.7-10.7C1117.9,1111.8,1114.2,1111.4,1106.1,1110.4z"/>
		</g>
		<path opacity="0.3" fill="#091426" enable-background="new    " d="M999,1109.2c-0.4-0.1-1-0.1-1.7,0c0.5,0.8,0.4,2-0.7,3.6
			c-2.4,3.6-9.4,12.3-12.1,12.8c-2.7,0.5-5.2-4.4-9.6-8.3c-1.9-1.7-2.3-2.6-1.9-3.3c-3.2,1.4-2.4,3.3-2.4,3.3
			c4.2,5.2,10.7,13.2,12.3,13.8s3.1,0.5,8.1-5.7s9.4-11.3,11.3-13.8C1004.2,1109.1,1002.9,1109.7,999,1109.2z"/>
		<path opacity="0.3" fill="#091426" enable-background="new    " d="M1106.1,1110.4c-8.2-0.9-12.3-0.8-14.3,0s-2.1,1.8-0.8,3.1
			c6.5,6.1,12,16.1,14.7,17.2c2.7,1.2,4.1-1.1,6.1-5.8c1.9-4.7,5.2-8.3,5.7-10.7C1117.9,1111.8,1114.2,1111.4,1106.1,1110.4z
			 M1112.6,1115.1c-0.5,2.3-2.8,6.9-5.4,8s-3.9-4.6-7.1-6.6s-4.9-4.8-2.3-4.8C1111.2,1111.7,1113.1,1112.8,1112.6,1115.1z"/>
	</g>
</g>
</svg>
