<?xml version="1.0" encoding="utf-8"?>
<!-- Generator: Adobe Illustrator 21.0.2, SVG Export Plug-In . SVG Version: 6.00 Build 0)  -->
<svg version="1.1" id="_x31_5_x5F_Bottom_x5F_Scuba_x5F_WetSuit__x28_SCU_x29_"
	 xmlns="http://www.w3.org/2000/svg" xmlns:xlink="http://www.w3.org/1999/xlink" x="0px" y="0px" viewBox="0 0 2000 2000"
	 enable-background="new 0 0 2000 2000" xml:space="preserve">
<g>
	<path fill="#76D53D" d="M1176.4,1312.2c-2.1-35.9-4.8-62.3-8.5-84c-0.2-1.2-0.4-2.3-0.6-3.4c-4-19.2-12.4-27-12.4-27
		s1.5-4.8-0.9-15.1c-0.4-2.4-0.7-4.8-1.4-7.6c-1-3.9-1.5-6.2-3.6-7.5c-0.9-0.5-4.9-2.5-5.6-2.6c-1.3,0-0.9,1.4-3,0.4
		c-4.7-2.2-8.3,3.2-14.3,1.1c-8.8-3.1-32.6-8.8-60.4-5.5c-12.9,1.5-35.7,1.6-55.8,5.2c-0.9,0.2-2.5-5.8-2.5-5.8
		c-10,1.5-19.8,3.5-28.4,5.8c-1.5,0.4-0.5,12.7-1.9,13.1c-8.4,2.4-15.3,4.7-19.7,6.6c-0.5,0.2-2.8-10.6-3.3-10.4
		c-17.4,6.4-19.3,7.9-19.6,11.7c-0.3,7.1,0.3,27.2-2.4,37.1c-2.8,9.8-5,17.6-8.9,38.5s-7.7,44.6-7.7,44.6s19.1,15.8,34.4,28.3
		s34.1,33,45.7,58.3c16.4,35.6,13.3,52.7,0.5,77.9c-3.1,6.2-7.6,12.6-12.7,18.9c-15.7,19.2-37.9,37.2-50.4,46.2
		c-16.6,11.9-35.5,18.9-62.6,24.7c-9.8,2.1-25.1,0.7-34.7-0.6c-5.3-0.7-8.8-1.3-8.8-1.3l-6.3,18.5c14.1,6.1,35.2,16.1,52.5,17.8
		s30.6,1.1,30.6,1.1c-1.1,4.9-1.6,7.7,0.5,9.5s27.3,16.4,60.2,20.2s69.5-0.9,78.6-3s16.9-5.1,17.8-14c0.8-8.9,3-21.7,3-21.7
		s5.4,3.1,26.1,2.8s51.2-7.1,60.9-10.4s8.9-3.4,10.4-9.8c0.9-3.9,1.8-9.8,3.4-21.3c0.1-0.6,0.2-1.3,0.3-2c1-7,2.3-15.9,4-27.4
		c4.4-29.8,9.1-64.4,11.2-96.1c0.2-3.2,0.4-6.4,0.6-9.5C1182.2,1380.4,1178.4,1348.1,1176.4,1312.2z"/>
	<path fill="#25184E" d="M962,1212.3c-2.3,5.3-11.8,26-13.5,45s4.5,41.7,7.1,48.8c2.5,7.1,4.4,8.9,4.4,8.9s8.8-41.4,13.3-68.1
		c4.6-26.7,6.7-32.3,7.1-40.7c0.3-7.1-0.4-31-1.4-39.9c-8.4,2.4-13.4,4.6-17.8,6.5c-0.5,0.2-6.6,2.6-7.1,2.8
		c1,4.2,4.5,20.2,6.8,24.2C964.8,1206.8,964.3,1206.9,962,1212.3z"/>
	<path fill="#25184E" d="M1010.5,1206.9c-4.6,10.2-12.3,29-18.2,52.6c-5.8,23.5-10.2,57.6,2,87.9s30.2,54.7,43.2,67.8
		s26.6,24.8,35.5,26s10,0.7,10,0.7s1-10,2.8-21.1c0,0,12.2-3.8,28.5-16.5s33.8-31.9,41.5-61.5s9.1-69.1,2.9-97.9
		s-10.9-46.1-12.9-48.9c-2-2.7-2.8-1.7-1.3-9.5c0.8-4.1,0.1-17.6-1.1-21.5c-4.2-2.8-9-5.7-15.8-7c-9.3-2.1-30.9-5.7-61.4-3.9
		c-13.8,0.5-37.9,1.6-58.7,6.3c2.3,12.3,7.4,32.1,7.3,34.9C1014.5,1198.6,1015.1,1196.7,1010.5,1206.9z"/>
	<path fill="#25184E" d="M1179.9,1423.6c-6.7,9.7-18.9,26.1-32.8,39.5c-21.1,20.5-30.2,22.3-48.2,33.8s-23.2,23-23.2,23l-4.8,31
		c-10.8-0.5-22.7-6.4-33.7-13.7c-9.5-6.2-41.5-29.9-54.4-47.2c-15.7,19.2-37.5,36.8-50,45.8c-16.6,11.9-35.5,18.9-62.6,24.7
		c-9.8,2.1-25.1,1.4-34.7,0.1c8.9,3.1,22,6.7,37.1,7.8c27.9,2.1,40-2.8,40-2.8l-4,10.5c13.8,10.2,27.6,21.3,85.8,21.9
		c58.2,0.6,69.1-10.3,69.1-10.3l3.7-23.4c0,0,31.8,3.5,61.7-2.5c19.5-3.9,30.3-9.5,35.4-12.8c1.1-7.3,2.4-16.8,4.3-29.4
		C1173.2,1490,1177.9,1455.3,1179.9,1423.6z"/>
	<path opacity="0.3" fill="#091426" enable-background="new    " d="M957.6,1174.3c-0.5,0.2-5,1.9-5.5,2.1
		c-15.8,6-17.8,7.3-17.7,12.6c0.1,7.5,0.1,25-2.6,34.9c-2.8,9.8-5,17.6-8.9,38.5s-7.7,44.6-7.7,44.6s19.1,15.8,34.4,28.3
		s34.1,33,45.7,58.3c16.4,35.6,13.3,52.7,0.5,77.9c-3.1,6.2-7.6,12.6-12.7,18.9c-15.7,19.2-37.9,37.2-50.4,46.2
		c-16.6,11.9-35.5,18.9-62.6,24.7c-9.8,2.1-25.1,0.7-34.7-0.6c-5.3-0.7-8.8-1.3-8.8-1.3l-6.3,18.5c14.1,6.1,35.2,16.1,52.5,17.8
		s30.6,1.1,30.6,1.1c-1.1,4.9-1.6,7.7,0.5,9.5s27.3,16.4,60.2,20.2s69.5-0.9,78.6-3s16.9-5.1,17.8-14c0.8-8.9,3-21.7,3-21.7
		s5.4,3.1,26.1,2.8s51.2-7.1,60.9-10.4s8.9-3.4,10.4-9.8c0.9-3.9,1.8-9.8,3.4-21.3c0.1-0.6,0.2-1.3,0.3-2
		c-2.9,6.5-5.9,13.1-7.6,16.4c-3.9,8.1-2.8,8.8-19,13.9c-16.2,5.2-38.8,5.5-38.8,5.5s-4.8-15.8-8.2-39.2c-3.4-23.4-4.1-25.5-5-66.3
		s1-56.3,4.5-102.8c3.5-46.6,1.7-79.2,1.5-100s-2.2-18.6,0.3-32.4s-0.9-16.7-2-9.7s-4.8,14.8-4.8,14.8c0.8-5.3-1.7-18.4-1.5-10.4
		s-1.2,15.5-1.2,15.5c-5.9-21.8-6.3-11.9-3.5-0.6c2.8,11.2,6.2,19,7.2,49.3s-5.8,89.2-9.9,122s-9.2,42.4-12.8,84.5
		s-17.9,85.8-21.5,98s-9.9,12.5-36.6,15c-26.7,2.5-48.2,0-51.7-0.8s-5.7-7.1-6.8-12.1s-3.5-3.1-4.1-3.9s-0.3-3.4,0-9.2
		c0.3-5.8,0-23.9,0-23.9s15.3,0.6,34.2-10.8c18.8-11.3,27.4-36.4,31.3-46c3.9-9.6,13.4-30.9,8.3-62.2c-5.1-31.2-10.4-46.8-24.7-72.7
		s-27.3-34.7-27.3-34.7s-0.2-12.5,1.4-21.5s9.4-28.1,10.4-42s1.1-22,4.2-41.2c3-19.2,4.5-35.8,4.5-35.8s16.8-5.2,67.8-12.2
		c51.1-7,66.8,0.2,83.5,3.4s11,1.5,23.9,19c2.5,3.4,4.6,6.9,6.3,10.2c-4-19.2-12.1-26.4-12.1-26.4s1.5-3.7-0.6-13.6
		c-0.9-4.7-2.1-14.8-5-16.4l-0.5,24.7c-34.8-7.1-51-9.4-98.6-4.3c-47.6,5.2-66,11.1-66,11.1s-1-23.1-2.6-33.7
		c-1.5,0.4-6.4,2.2-7.8,2.6C965.7,1170.8,962,1172.4,957.6,1174.3z M960.5,1290c-6.1,15.7-10.5,36-10.5,36s-1.1-34.6,0-58.4
		s2.9-27.1,2.9-27.1l13.4,2.2c0,0-0.3,11.7,0.2,18.6C966.9,1268.2,966.6,1274.3,960.5,1290z"/>
	<path fill="#76D53D" d="M1008.8,1160.1"/>
</g>
</svg>
