<?xml version="1.0" encoding="utf-8"?>
<!-- Generator: Adobe Illustrator 23.0.3, SVG Export Plug-In . SVG Version: 6.00 Build 0)  -->
<svg version="1.1" id="_x31_7_x5F_Bottoms_x5F_Dancer_x5F_LegWarmersTights"
	 xmlns="http://www.w3.org/2000/svg" xmlns:xlink="http://www.w3.org/1999/xlink" x="0px" y="0px" viewBox="0 0 2000 2000"
	 enable-background="new 0 0 2000 2000" xml:space="preserve">
<g>
	<g>
		<path fill="#583687" d="M1179.8,1372.8c-2.2,0.3-4.5,0.9-6.8,1.7l-35,1.2l-72.7,2.5l-21.2,8.5l-43.4,17.4
			c4.6,18.5,4.5,33.7,1.4,46.9c-0.2,0.9-0.5,1.8-0.7,2.7c-1.5,5.3-3.5,10.3-5.9,15.1c-6.9,13.6-17.1,25.3-28.4,37.4
			c-25.5,27.3-63.2,46.3-90.5,52.5s-50.8,0.4-50.8,0.4c-4.4,5-13.6,10.4-15.2,23.6c-1.6,13.2,9,15.6,9,15.6
			c-12.6,7-8.3,14.3-8.3,14.3s17.9-3.1,45,5.3c8.7,2.7,15.3,5.8,20.3,8.8c8.1,4.8,11.9,9.3,13.2,11.2c0.4,0.6,0.6,0.9,0.6,0.9
			c1.7-0.5,3.4-0.9,5.1-1.4c1.2-0.3,2.4-0.6,3.6-0.9c1-0.3,2.1-0.5,3.1-0.8c54.2-13.3,84.4-7.1,112.6,5.2
			c19.2,8.3,26.9,18.1,29.9,24.1c1.7,3.4,2,5.6,2,5.6c4.9-3.8,10.8-6.5,13.1-18.2c2.3-11.7,2.4-12.2,2.4-12.2
			c1.4-3.2,9.4-12.1,20.2-21.7c11.1-9.9,25.2-20.6,38.1-26.4c8.6-3.9,16.4-5.9,22.8-6.8c12.4-1.8,20.1,0.4,20.1,0.4
			s8.3-8.5,13.6-30.1c1.8-7.3,1.9-13.3,1.3-18c-1.1-9-4.9-13.5-5.1-13.8l0,0c0,0,9.4-8.4,16.3-24.8c1.2-2.9,1.9-5.3,2.2-7.4
			c1.5-9.7-5-11.1-5-11.1s3.3-2.6,3.9-13.2c0-0.7,0.1-1.5,0.1-2.3c0.2-12.5-8.8-14.5-8.8-14.5s3.3-9.3,3.5-18.2v-0.1
			c0.1-8.9-3.5-12.8-3.5-12.8c10.8-19.8,11.5-28.5,12.5-37.8C1195,1374.4,1188.1,1371.7,1179.8,1372.8z M859.7,1615.1
			c-0.2,0-0.4-0.1-0.6-0.1C859.3,1615,859.5,1615.1,859.7,1615.1z"/>
		<path fill="#7A44B1" d="M1002,1451c7.8,0.2,17.2-2.2,29.2-2.5c14.2-0.3,27.9-1,41-9.2s15.5-15.1,19.5-27.7s1-17.3-3.9-23.1
			l-8.4-7.4l-35.3,5.6l-43.4,17.4C1005.2,1422.7,1005.2,1437.8,1002,1451z"/>
		<path fill="#7A44B1" d="M1063.8,1467.4c12.6-3.4,15.6-6.1,20.7-12.4c5.2-6.2,4.9-6.2,1.7-8.2s-1.4-3.8-6.3-3.2
			c-4.9,0.7-22.8,8.1-31.8,8s-33.4,1.4-42.1,2.2c-1.6,0.1-3.1,0.1-4.5-0.1c-1.5,5.3-3.5,10.3-5.9,15.1c7.4,0.9,17.5,2.1,22.3,2
			C1025.7,1470.8,1051.2,1470.8,1063.8,1467.4z"/>
		<path fill="#7A44B1" d="M1056.2,1630.4c-0.9-8.9-3.9-14.5-4.7-23.2s7.8-19,20.7-41.7s16.6-36.9,15.7-45.8s-8.5-22.5-8.5-22.5
			s-8.5,8.1-23.7,14.2s-46,8.9-55.6,5.8s-0.9-4.1,9.5-4s35.2-3.6,50.7-11.9s18.3-24,17.8-27.9c-0.6-3.9-10.4,0.9-25,4.5
			s-44.9-1.8-53,0s-8.3,2.4-16.5,17.5s-19.2,25.5-19.2,25.5c14.4,5.1,25.7,0.8,51.5,0.8c25.8,0.1,19.6,2.4,3.5,7.4
			c-16.1,5-34.4,3.8-55.7,8.3s-40.2,15-53.7,26.2c-13.4,11.2-3.8,22.8,3.3,29.8c7.2,7,18,8.8,17,13.9c-1,5-2.6,6.1-10.5,5.4
			s-10.5-3.6-15.3,7.8c-2.1,5.1-2.7,10.5-2.4,15.5c54.1-13.3,84.4-7.1,112.6,5.2c19.2,8.3,26.9,18.1,29.9,24.1
			C1054.6,1657.7,1057,1638.5,1056.2,1630.4z"/>
		<path fill="#7A44B1" d="M885.3,1574c-2.7-0.7-8.8,2.9-18,3c-9.2,0-16.8-1.9-20.2-2.1c-3.3-0.2-12.8,3.2-17.3,11.1
			c-3.6,6.4-5.9,10.4,1.9,14.9c7.8,4.5,18.7,7.1,29.2,8.5s16.6,4.6,26.3-4.5s11.2-10.9,5.5-26.4C892.8,1578.2,888,1574.7,885.3,1574
			z"/>
		<path fill="#7A44B1" d="M883.7,1617.8c-11.2,0-25.3-3-25.3-3c5.4,2,12.2,6.7,18.2,12c8.1,4.8,11.9,9.4,13.2,11.2
			c0.9-5.2,2.4-11.9,4.5-17.7C892.3,1616.5,894.7,1617.8,883.7,1617.8z"/>
		<path fill="#7A44B1" d="M1186.5,1480.5c-7.8,5.7-27.1,12.6-34,13.5s-9.1,2-6.7-1.7c2.2-3.4,35.8-6.1,44.6-25.1
			c0-0.7,0.1-1.5,0.1-2.3c0.2-12.5-8.8-14.5-8.8-14.5c-4.8,4.1-5.1,7.9-29.9,12.8s-34.2-2.2-30.8-3s29.5-0.9,42.7-6
			c10.1-3.9,17.6-15,21.6-22v-0.1c0.1-8.9-3.5-12.8-3.5-12.8c-13.2,6.1-12.1,8-14.7,4.8s3.4-2.3,13.6-20.2
			c9.5-16.7,17.2-26.7-0.9-31.3c-2.2,0.3-4.5,0.9-6.8,1.7l-35,1.2c-17,4.3-31.7,10.1-31.7,10.1c1.7,2.1,1.2,4.3-1.5,7.3
			s-3,3.9-4.7,16.3s-5.1,18.4-2.3,24.3c2.8,5.9,5.2,8.1,10.2,8.3s18.8-4.7,17.5-2.3c-1.3,2.3-2,3.1-8.8,4.8
			c-6.8,1.8-15.5,4.9-16.5,9.7s-5.1-1.1-7.5,34.5c0,0,1.8,2.5,10,3.8s13.2,1.1,10.7,3.5s-13.3,1.6-17,1.8c-3.7,0.2-4.7-0.8-5.3,4.5
			c-0.7,5.3,2.3,16.4,2.5,19.1c0.2,2.8,10.2,2.3,16.6,3.5s12.2,6.8,4.3,7.2c-7.8,0.3-19.1,1.3-21.7,4.7c-2.6,3.3-3.1,18.9-6.5,35.3
			c-3.1,15-5.7,32-4.1,46.2c11.1-9.9,25.2-20.6,38.1-26.4c8.7-3.9,16.4-5.9,22.8-6.8c6.8-6.4,10-6.3,18.7-14.2
			c7.2-6.5,13.1-23.1,16.3-33.6c-1.2-9.3-5.1-13.8-5.1-13.8s-5,2.5-11.3,3.1s-10.8-0.1-16.2,1.3s-6.2,2.8-8.8,1.3
			c-2.6-1.4,1-4.8,6.2-5.2c4.8-0.4,34.3-3.6,48.6-32.7C1193,1482,1186.5,1480.5,1186.5,1480.5z"/>
	</g>
	<g>
		<path fill="#24184E" d="M1195.9,1343.1c-1.5-6.3-8.3-20.1-14.3-41s-20.6-72.4-25.7-94.5c-3.7-16.1-8.7-33.1-11.1-41
			c-1.2,0.5-2.8,0.8-4.6,1c-7.4,0.6-47.2-2.5-64.1-2.9s-34.7-3.8-62.8,0c-28.1,3.8-23.1,3.6-6.9,5.4c16.2,1.8,36.8,10,47,21.9
			s-1.6,16.7-10.5,19.2s-28.3-0.6-38.8-9.4c-10.6-8.9-18.8-17.1-18.8-17.1s-0.1,5.4,2.5,11c2.7,5.6,11.4,17.6,13.6,21.7
			s2.6,25.6-2.3,15.2s-11-16.1-11-16.1l5.6,49.7c0,0-1.6,17.8-3.5,16.8s-10.2-6.4-10.3-10.1s-0.4-10.2,0.6-18s-0.1-22.9-1.2-43.1
			s-3.7-26.6-7.9-1.5s2.1,55,3.5,61.5c1.4,6.4-7.4,9-11,11.2c-3.7,2.2-2.9,3-3.3,12c-0.3,8.1-2.6,23.5-4,51.3
			c7.5,7.3,18.3,18.1,26.5,26.1l14,3.5l175.8-10.2l3.5-7.2C1183.8,1357.2,1197.4,1349.4,1195.9,1343.1z"/>
		<path fill="#1C1742" d="M965.2,1282.8c3.7-2.2,11.1-4.5,9.7-10.9c-1.4-6.4-7.7-36.4-3.5-61.5s6.9-18.6,7.9,1.5s2.3,35.3,1.2,43.1
			s-0.8,14.3-0.6,18s8.4,9.1,10.3,10.1c1.9,1,3.5-16.8,3.5-16.8l-5.6-49.7c0,0,6.2,5.7,11,16.1s4.5-11.1,2.3-15.2s-9.4-15-11.8-20.2
			s-2.3-10.2-2.3-10.2s7.4,7.6,17,15.8c9.6,8.2,29.6,10.9,38.5,8.4s20.7-7.3,10.5-19.2s-30.7-20.1-47-21.9
			c-16.2-1.8-21.2-1.6,6.9-5.4c28.1-3.8,45.9-0.4,62.8,0s56.6,3.5,64.1,2.9c1.8-0.2,3.3-0.5,4.6-1c-0.9-2.9-1.5-4.7-1.5-4.7
			s-102.2-8.9-136.8-4.1s-66,25.7-66,25.7s-7.2,38.1-8.6,46.7c-1.4,8.7-6.3,33-10.7,51.6s-4.5,26.3-4.5,26.3s18.6,17.7,42.7,41.2
			c1.5-27.8,2.5-45,2.8-53.1C962.7,1287.3,961.5,1285,965.2,1282.8z"/>
	</g>
	<g>
		<path fill="#BA90E6" d="M976.4,1182.6c0,0-2.4,7.8-4.1,17.1c-1.7,9.2-3.9,14.5-4.4,31.3c-0.5,16.9,2.4,32.8,3.6,37.2
			c0.6,2.4,0.4,5.3,0,7.6c0.4-0.3,0.8-0.6,1.2-0.9c3.4-2.5,4.2-1.4,3.2-5.4s-3.1-9.3-3.5-22.1c-0.4-12.8,1.9-25.2,3.5-39
			c1.1-9.6,2.7-16.9,3.5-20.4c-0.2-1.4-0.4-2.9-0.6-3.9C978.2,1181.7,976.4,1182.6,976.4,1182.6z"/>
		<path fill="#BA90E6" d="M984.6,1210.2c2.1,10.7,4.3,10.9,5,25.6s1,17-0.2,23.9c-1.2,7-1,10.6-2,13.9c-0.9,3,6,2.4,6.3,6.6
			c0.8-1.2,0.5-3.8,0.6-5.8c0.1-2.9,0.1-7.1,1.2-11.8s-1-11.6-1.2-20.7s-1.6-17.5-4.8-31.6c-2.7-11.9-4.7-25.6-5.2-29.6
			c-1,0.4-2.3,0.9-3.7,1.5C980.6,1182.2,982.5,1199.6,984.6,1210.2z"/>
		<path fill="#BA90E6" d="M945.5,1178.9c0.7,2.5,4.4,4,6.2,4.2s3.6-3.4,7.3-6.9s10-6,10-6s0.3-2.1,1-3.2c-11.8,3.2-19,6-23.6,8.5
			C945.4,1176.8,945.2,1177.9,945.5,1178.9z"/>
		<path fill="#BA90E6" d="M968.5,1179.6C968.5,1179.6,968.5,1179.7,968.5,1179.6c-0.9,3.1-3.2,9.9-7.7,17.5
			c-6.2,10.4-13.5,19.4-13.5,19.4c-2.8,3.9-10.2,11.4-14.2,15.2c3.9,4.6,11.6,2.2,15.2,1.7c4.2-0.5,5.7-3.3,10.8-12.2
			c5.2-9,8.2-15.8,8.2-15.8c1.8-8,6.3-23.1,6.3-23.1L968.5,1179.6z"/>
		<path fill="#BA90E6" d="M1142.6,1155.7c-2.5-0.8-23.4-5-63.8-5.7s-72.7,4.8-85.6,7.9c-12.9,3.1-13.1,6.5-13.1,6.5
			s-1.3-2.5-5.2-1.3c-0.4,0.1-0.8,0.3-1.2,0.5c-0.9,1.4-1.4,3.1-1.2,5.5c0.5,6.8,7,7,9.9,5.6s2.3-7.7,2.3-7.7
			c2.2-0.3,3.2-0.5,3.5,1.2s1.2,3.1,1.2,3.1s18.1,2.3,32,8.3c13.9,6,17.1,11.4,17.1,11.4s6.4,5.2,10.2,11.8c0.8-0.4,1.4-0.7,1.9-1.1
			c3.4-2.9,5.6-6.4,4-11.4s-15.1-18.5-31.2-21.9c-16.1-3.4-32.5-2.5-32.5-2.5c5.2-3.5,30.1-4.2,52.5-5c22.4-0.8,75.2,4.1,88.5,4.2
			s13.8,0.5,14.1-1C1146.2,1162.6,1145.1,1156.4,1142.6,1155.7z"/>
		<path fill="#846AAC" d="M1038.4,1191c-16.1,0.7-29.9-7.1-49.1-19.7c0,0-0.9-1.4-1.2-3.1s-1.3-1.5-3.5-1.2c0,0,0.7,6.3-2.3,7.7
			c-2.9,1.4-9.4,1.2-9.9-5.6c-0.2-2.4,0.3-4.2,1.2-5.5c-2.9,1.3-3.8,3.4-3.8,3.4c-0.7,1.1-1,3.2-1,3.2s-6.3,2.5-10,6
			s-5.5,7.1-7.3,6.9s-5.5-1.7-6.2-4.2c-0.3-1.1-0.1-2.2,0.9-3.4c-6.8,3.8-7.6,7-8.2,10c-1,4.9,1.3,5.6,3.5,4
			c2.2-1.5,8.3-5.4,8.3-5.4c-16.9,17.3-21.2,36.3-18.4,44.7c0.4,1.2,0.9,2.1,1.6,2.9c3.9-3.9,11.4-11.3,14.2-15.2
			c0,0,0-5.8,3.5-12.4s8.5-12.2,18.2-26.3c0,0-0.2,0.7-0.5,1.8l0,0l5.2,2.8c0,0-4.5,15-6.3,23.1c0,0-8.2,51.2-5.5,63.9
			c2.4,11.3,6.4,8.8,9.7,6.3c0.4-2.2,0.6-5.2,0-7.6c-1.2-4.4-4.1-20.3-3.6-37.2c0.5-16.9,2.7-22.1,4.4-31.3
			c1.7-9.2,4.1-17.1,4.1-17.1s1.8-0.9,2.3,1.4c0.2,1,0.5,2.5,0.6,3.9c0.4-1.6,0.6-2.4,0.6-2.4c-0.2,4.1,1,24.5,4.2,36.5
			s2.7,23.8,1.2,33.8s-3.3,16.2-2.3,17.7s5.8,6,8.8,7.2c1,0.4,1.6,0.2,1.9-0.4c-0.3-4.3-7.2-3.7-6.3-6.6c1-3.3,0.8-7,2-13.9
			c1.2-7,0.8-9.2,0.2-23.9c-0.7-14.7-2.9-14.9-5-25.6s-4-28-4-28c1.5-0.5,2.8-1,3.7-1.5c-0.1-0.7-0.1-1.1-0.1-1.1
			c0.9-3.4,1-4.1,1-4.1s22.1,18.5,35.3,25c11.5,5.6,23,4.6,28.1,2.3C1044.8,1196.2,1038.4,1191,1038.4,1191z"/>
	</g>
	<path fill="#AA7AB2" d="M1000.7,1335c-3.6-12.1-1.9-14.2-0.7-26.7c0.9-9.5,1.4-8.5-1.6-19.4c0.2,2.8,0.4,5.9,0.4,9.6
		c0.2,15.1-4.7,19.4-4.5,29.7c0.2,10.3,3.8,19.4-2.5,30.5s-8.8,13.8-8.8,13.8s2.3,2.6,5.3,6.8
		C1002.4,1372.9,1004,1345.9,1000.7,1335z"/>
	<path fill="#AA7AB2" d="M994.3,1328.2c0.2,10.3,3.8,19.4-2.5,30.5"/>
	<path fill="#AA7AB2" d="M1100.2,1355.4c0,0,11,5.6,27.2,10.1c12.8,3.5,38.9-0.5,49.6-2.4c-0.4-2.7-0.8-4.6-0.8-4.6s-30,2.1-43,0.8
		c-13-1.2-25.7-4.7-41-15.2c-15.2-10.4-28.5-9.2-34-14s-6.8-17.4-12.5-25.2c-5.7-7.7-16.7-9.8-21.3-20.7
		c-4.6-10.8-9.9-37.4-10.3-43.9c-0.4-6.5-6.5-10.9-9.2-15.4s-2.4-8.8-3.5-7.7c-0.6,0.6-2,5.1-3.1,10.3c6.1,12.5,8.8,20.7,10.6,32.8
		c2.2,14.4,5.9,24.8,11.2,31s15.8,13.2,19,20.8s5,14.8,15,23.2s28.5,11.3,28.5,11.3l5,41.8c2.3-1.4,2.1-2.2,2.1-2.2
		c5.2,0.6,10.2,1.1,15,1.4c-0.6-1.3-1.3-2.7-2.1-4C1099.4,1378.2,1100.2,1355.4,1100.2,1355.4z"/>
	<g>
		<path fill="#EFA6EF" d="M1100.3,1369.7L1100.3,1369.7L1100.3,1369.7C1100.4,1369.7,1100.4,1369.7,1100.3,1369.7L1100.3,1369.7z"/>
		<path fill="#EFA6EF" d="M1177.1,1363.2h-1H1177.1c-0.5-2.8-0.9-4.7-0.9-4.7s-30,2.1-43,0.8c-13-1.2-25.7-4.7-41-15.2
			c-15.2-10.4-28.5-9.2-34-14s-6.8-17.4-12.5-25.2c-5.7-7.7-16.7-9.8-21.3-20.7c-4.6-10.8-9.9-37.4-10.3-43.9
			c-0.4-6.5-6.5-10.9-9.2-15.4s-2.4-8.8-3.5-7.7c-0.6,0.6-2,5.1-3.1,10.3c0,0.1,0.1,0.1,0.1,0.2c-1,4.7-1.9,9.9-1.9,13.6
			c0.1,7.8,1.8,13.5,1,25.1c-0.6,8.7,0.3,14,0.9,22.5l0,0c0.2,2.8,0.4,5.9,0.4,9.6c0.2,15.1-4.7,19.4-4.5,29.7l-2.5,30.5
			c-6.3,11.1-8.8,13.8-8.8,13.8s2.3,2.6,5.3,6.8l2.8-0.2l-2.8,0.3c4.3,6.1,10.1,15.4,12.3,24.8c0,0,40.3-3.3,65.3-8.8
			c13.3-2.9,19.2-5.2,21.8-6.8v-0.2c2.2-1.4,2-2.2,2-2.2c5.2,0.6,10.2,1.1,15,1.4c-0.6-1.3-1.3-2.7-2.1-4c0-0.1-0.1-0.2-0.1-0.3
			c0.1,0.2,0.2,0.4,0.3,0.5c0.8,1.3,1.5,2.7,2.1,4c42.3,2.8,68.4-5.2,71.4-9.2C1178.5,1375.7,1177.8,1368.1,1177.1,1363.2z
			 M1003.2,1229.4c-1.8-8.4,0.1,8.4-4.5-1.2C1003.3,1237.8,1001.4,1220.9,1003.2,1229.4z M998.4,1288.9c3.1,10.7,2.5,9.9,1.6,19.1
			C1000.9,1298.8,1001.4,1299.7,998.4,1288.9z"/>
	</g>
	<path fill="#583687" d="M954.8,1612.6c-5.3-0.4-2.6,3.5,14.5,7.1s26.2,7.1,43.7,8.5c17.4,1.4,26.2-1.2,27.8-2.8
		c1.6-1.6-1.5-2.2-3.8-3s-2.2-3.2,4.3-4.5s7-6.3-0.4-4.1s-23.7,5.8-47,3.1C970.5,1614.2,958.2,1612.8,954.8,1612.6z"/>
	<path fill="#7A44B1" d="M1055.6,1397.5c17.2-3.5,20.5-7.8,25-9.7c3-1.3,5.6-1.7,6.9-1.6c0.7,0,1,0.1,1,0.1l-3.9,11.3l-19.8,6.9
		L1055.6,1397.5z"/>
	<path fill="#583687" d="M1089.8,1386.4c-1.2-0.2-2.3-0.2-2.3-0.2l0.3,2.4l2.3,0.6l0.2-2.3L1089.8,1386.4z"/>
</g>
</svg>
