<?xml version="1.0" encoding="utf-8"?>
<!-- Generator: Adobe Illustrator 21.0.2, SVG Export Plug-In . SVG Version: 6.00 Build 0)  -->
<svg version="1.1" id="_x31_8_x5F_Bottom_x5F_BunnySuit"
	 xmlns="http://www.w3.org/2000/svg" xmlns:xlink="http://www.w3.org/1999/xlink" x="0px" y="0px" viewBox="0 0 2000 2000"
	 enable-background="new 0 0 2000 2000" xml:space="preserve">
<g>
	<path fill="#EFA6EF" d="M1223,1425c-0.1-0.3-0.1-0.6-0.2-0.8c-8.9-45.3-16.4-82.5-26.5-118.5c-10.2-36.2-39.5-130-46.1-145.6
		c-2.8-6.7-4.7-10.5-5.9-13c-1.1-2.4-1.6-3.6-1.8-5.1c-0.1-0.6-0.1-1.2,0-1.9c0,0,1.1-3.2,0.8-5.6c-0.1-0.8-0.3-1.5-0.8-2
		c0-0.1-0.1-0.1-0.1-0.1c-1.5-1.6-3.6-3.1-6.1-4.5c-0.3-0.2-0.7-0.4-1-0.6c-8.1-4.2-19.8-7.3-29.1-9.9c-0.3-0.1-0.6-0.2-0.9-0.3
		c-0.9-0.2-1.8-0.5-2.6-0.7c-13-3.7-13.6-5.6-29.2-5.9c-7.2-0.1-13.5-0.4-19.7-0.5c-0.3,0-0.6,0-0.9,0c-6.9-0.1-13.7-0.1-21.8,0.4
		c-1.4,0.1-2.6,0.2-3.9,0.3c-0.7,0-1.3,0.1-2,0.1c-12.1,1-19.9,2.7-34,5.7c-6.1,1.3-11.1,2.4-15.6,3.7c-7.5,2.1-13.5,4.6-20.6,9.2
		c-11.4,7.4-10.5,8.6-10.7,13s1.5,6.9-0.5,13s-5.6,12.6-14.1,40.5s-15.4,47.3-19.6,63.5c-4.2,16.2-8,36.3-8,36.3
		c9.2,8.6,20.5,16.9,42.4,38.8c2.1,2.1,4.2,4.1,6.2,6.1c19,18.6,33.8,31.7,42.4,52.6c9.5,23.1,13.7,31.3,11.6,49.9
		c-2.1,18.6-15.6,40.6-26.7,53.5s-30.9,33.1-60.8,48.3c-2.6,1.3-5.1,2.6-7.5,3.8c-21.5,10.8-35.7,16.4-67.8,12.5
		c-10.7-1.3-23.1-2.8-42.3-11.2c0,0-4.3,3.5-3.9,18.4c0.4,14.9,13.4,23.2,26.1,23.4c0,0,1-7.8,9.6-10.8s18.9,0.3,33.6,7
		c14.7,6.7,25.9,16.1,30.2,20.5s5.8,4.2,9.8,1.2c4.1-2.9,13.6-9.1,42.8-11.1c29.2-1.9,43.9,0.5,64.3,8.6c20.4,8.1,28.6,14.2,33,18.5
		s9.8,8.2,9.8,8.2s6-2.3,11.3-10.3s5.7-13.2,4-18.7c0,0,11.2-10.5,53-16s71.5,9.9,71.5,9.9s6.7-4.7,8.2-15.9
		c1.5-11.2-5.7-35.7-5.7-35.7s17.3-11.5,25.7-29.7S1232,1470.7,1223,1425z"/>
	<path opacity="0.3" fill="#091426" enable-background="new    " d="M944.5,1142.4c-0.1,4.4,1.5,6.9-0.5,13s-5.6,12.6-14.1,40.5
		s-15.4,47.3-19.6,63.5c-4.2,16.2-8,36.3-8,36.3c9.2,8.6,20.5,16.9,42.4,38.8c2.1,2.1,4.2,4.1,6.2,6.1c3.6-23,11-70.9,14.3-95.8
		c4.5-33.6,10.8-79.2,13.4-93.8c1.3-7.3,1.8-11.5,1.9-14.2c11.1-2,22.3-2.3,33.6-3c10.4-0.6,20.8-1,31.3-1.2
		c0.4,10.2,2.5,61.8,3.9,93.3c1.5,35.1,4.3,79.7,9.8,108.2c4.6,23.7,8.2,34.5,13.2,42.2c-28.9-20.9-51-48-69.7-78.4
		c-0.6-0.9-1.9-0.1-1.4,0.8c6.7,15.2,15.9,29.3,26.6,42.1c2.4,4,6.3,7.5,9.3,10.9c4.2,4.8,8.7,9.2,13.3,13.6
		c5.3,5,10.5,9.7,16.3,13.7c-5.3-2.4-10.3-5.2-15.3-8.3c-5.8-3.6-11.2-7.6-16.6-11.7c-3.4-2.5-6.9-4.8-10.1-7.4
		c-2.5-2-4.6-4.4-7.5-5.7c-0.3-0.1-0.7,0.2-0.5,0.5c1.7,3,4.6,5,7.2,7.4c2.7,2.5,5.2,5.2,8.1,7.6c5.5,4.7,11.5,8.9,17.6,12.7
		c11.7,7.3,24.3,13,37.7,16.2c0,2.1-0.2,8.2-2.2,22.4c-2.6,18.7-5.8,40.7-8.8,59.2s-7.9,43.5-20.6,60.2s-25.4,20-36.6,22
		s-9.3,5.1,5.1,2.9c14.4-2.1,15.9-3.4,25,0.1s13.6,7,15.3,17.2c1.7,10.1,3.5,15.6-1,18.8c-4.5,3.2-11.6-0.3-18.7-2.8
		s-8.8-0.1-3.8,2.2c5,2.3,15.8,5.1,22.4,13.3c6.6,8.2,2.6,12.3-4.5,16s-11.4-1.6-22-8.4s-27.8-17.3-52.7-20
		c-25-2.7-40.7,0.7-52.1,3.4c-11.5,2.7-29.1,3.8-33.8-2.5c-4.7-6.2-2.1-17.4,4.7-24.7c6.8-7.2,14-8.3,31.3-8.7
		c17.3-0.4,24.1,1.3,19.7-0.3s-11.2-2.6-23.8-2.4c-12.6,0.1-17.7,0.9-18.8-2.1c-0.6-1.5-1.1-4.4-1.4-7.8
		c-21.5,10.8-35.7,16.4-67.8,12.5c-10.7-1.3-23.1-2.8-42.3-11.2c0,0-4.3,3.5-3.9,18.4c0.4,14.9,13.4,23.2,26.1,23.4
		c0,0,1-7.8,9.6-10.8s18.9,0.3,33.6,7c14.7,6.7,25.9,16.1,30.2,20.5s5.8,4.2,9.8,1.2c4.1-2.9,13.6-9.1,42.8-11.1
		c29.2-1.9,43.9,0.5,64.3,8.6s28.6,14.2,33,18.5s9.8,8.2,9.8,8.2s6-2.3,11.3-10.3s5.7-13.2,4-18.7c0,0,11.2-10.5,53-16
		s71.5,9.9,71.5,9.9s6.7-4.7,8.2-15.9c1.5-11.2-5.7-35.7-5.7-35.7s17.3-11.5,25.7-29.7s9-47,0-92.7c-0.1-0.3-0.1-0.6-0.2-0.8
		c0.4,13.8,0.7,29.4,0.1,41c-1.3,26.8-7,39.4-18.1,58.2c-11.1,18.7-35.8,17.6-43.3,19.6s-2,1.7,5.1,5.7s17.3,19.9,18.9,27.6
		s3.3,8.5-2.1,12.3s-11-0.4-31-2.4c-19.9-2-28.3-0.6-37.6,0.4c-9.3,1-20.6-3-21.6-10.5s3.4-23.8,10.6-28s8.1-5.4,6.6-5.7
		s-4.7-0.1-14-7.3s-14.1-24.5-12-52s5.5-52.3,8.3-104.3c2.6-48.7-29-224.3-33-246.3c28.4,0.1,56.5,4.1,83,14.6
		c0.6,0.2,1.1,0.2,1.5,0c-1.1-2.4-1.6-3.6-1.8-5.1c-0.8-0.3-1.6-0.6-2.3-0.9c1.3-2,2.3-4.3,3.1-6.6c-0.1-0.8-0.3-1.5-0.8-2
		c0-0.1-0.1-0.1-0.1-0.1c-1.2,2.8-3,4.9-5.3,7c-0.2,0.1-0.4,0.2-0.6,0.4c-1.3-0.5-2.7-1-4-1.4c0.7-2,1.5-3.9,2.3-5.9
		c0.6-1.5,1.3-3,1.6-4.6c-0.3-0.2-0.7-0.4-1-0.6c-1,1.6-1.6,3.4-2.4,5.1c-0.5,0.9-1,1.8-1.6,2.7c0.4-2.9,0.2-6-0.9-8.7
		c-0.2-0.5-0.9-0.4-0.9,0.1c-0.2,1.8,0.2,3.6-0.1,5.3c-0.3,1.8-1.3,3.3-2.1,4.9c-7.2-2.1-14.5-3.7-21.9-4.9c0.6-1.5,0.2-3.2,0.2-4.9
		c0-3.2,0.9-6.2,0.6-9.4c0-0.1,0-0.1,0-0.1c-0.3-0.1-0.6-0.2-0.9-0.3c-0.1,0.1-0.2,0.2-0.1,0.4c0.2,3.7-1.8,7.4-2.6,11
		c0-0.1-0.1-0.2-0.1-0.3c-0.4-1.8-0.6-4.2-1.9-5.6c-0.2-0.2-0.7-0.1-0.7,0.2c-0.3,1.3,0.1,2.7,0.2,4.1c0.1,1.2,0,2.7-0.3,4l0,0
		c0,0,0,0,0,0.1c-1.3-0.2-2.6-0.3-3.8-0.5c0-0.3,0-0.5-0.1-0.8c-0.5-1.9-0.4-4.4-0.6-6.3c-0.2-2.2-0.3-4.5-0.4-6.8
		c0-0.8-1.2-0.8-1.2,0c-0.1,2.8-0.2,5.5-0.4,8.3c-0.1,1.4-0.7,3.6-0.4,5.2c-5.2-0.6-10.4-0.9-15.7-1.2c0-0.1,0-0.2,0-0.4
		c0-0.5-0.1-1-0.2-1.5c0.1-0.2,0-0.4,0-0.6c0.6-4-0.1-7.8-0.8-11.7c-0.1-0.6-1.1-0.5-1.1,0.1c0.2,1.8,0.1,3.6-0.1,5.4
		c-1-2.2-2.1-4.3-3.2-6.5c-0.2-0.5-0.9-0.1-0.7,0.4c2,4.5,3.3,9.4,2.9,14.3c0,0.1,0,0.2,0,0.2c-5.4-0.2-10.7-0.3-16.1-0.3
		c-0.5,0-1.1,0-1.6,0c0.2-6-0.8-12.7-2.3-18.4c-0.3,0-0.6,0-0.9,0c-0.7,5.2-1,11-0.4,16.4c-0.4-0.6-0.9-1.3-1.3-1.9
		c-0.7-1.3-1.5-2.7-2.6-3.7c-0.5-0.5-1.4,0-1.2,0.7c0.4,1.3,1.1,2.4,1.7,3.7c0.5,1.1,0.6,2.3,0.9,3.4c-0.7,0-1.5,0-2.2,0.1
		c-1.8-2-4-4-5.2-6.3c-1.1-2.2-1.8-4.6-3.1-6.8c-0.2-0.2-0.6-0.1-0.6,0.1c0,2.6,0.2,6,1.4,8.4c0.8,1.7,2.3,3.2,3.9,4.6
		c-3.9,0.1-7.9,0.3-11.8,0.6c-2.8-5.6-5.6-12.3-5.1-18.6c-0.7,0-1.3,0.1-2,0.1c-0.3,2.3,0.2,4.6,0.8,6.9c1.1,3.9,2.2,8,4,11.7
		c-0.4,0-0.9,0-1.3,0.1c-0.4-0.6-1-1.5-1.1-1.7c-0.4-0.6-0.8-1.2-1.3-1.8c-1.1-1.6-2.1-3.1-2.9-5c-0.5-1.1-2.1-0.4-1.5,0.6
		c1.2,2.3,2.1,4.8,3.5,7c0.2,0.3,0.4,0.7,0.6,1c-5.3,0.3-10.7,0.7-16,1.1c-4,0.3-8.1,0.6-12.2,1c-0.8-4-1.7-8.5-1.3-12.5
		c0.1-0.5-0.9-0.7-1-0.1c-0.9,4.6-1.5,8.4-0.9,13l0,0c-0.3-1.7-1.7-2.9-2.8-4.2c-1.5-1.8-2.9-4.2-3.7-6.4c-0.3-0.9-1.8-0.5-1.5,0.4
		c0.9,2.3,1.7,4.5,2.7,6.8c0.6,1.3,1.1,2.8,2.1,3.8c-3.8,0.5-7.5,1.3-11.1,2.3c0-1.5-0.2-2.5-0.3-3.6c-0.2-2.3-1.4-5.5-4.5-11.1
		c-7.5,2.1-13.5,4.6-20.6,9.2C943.8,1136.8,944.7,1138,944.5,1142.4z M1100.4,1130.2C1100.4,1130.2,1100.5,1130.2,1100.4,1130.2
		C1100.5,1130.2,1100.4,1130.2,1100.4,1130.2L1100.4,1130.2z"/>
	<path fill="#B19EF3" d="M1110.5,1274.7c-0.6-35.9-3.2-50.2-5.5-76.2c-2.3-25.9-5.6-52.1-6.5-59.7s-2.2-7.6-13.2-10.7
		s-22.7-1.7-27.7,0c-0.2,0.1-0.3,0.1-0.5,0.2c-0.8,0.3-1.5,0.6-2.1,0.9c-3.1,1.5-4.5,3.1-4.5,3.1s1.8,14.8,2,38.2
		c0.2,23.3,2.2,76.8,5.3,117.2c3.2,40.5,8.8,52.5,15,74.1c5.9,20.7,8.1,21.7,12,21.8c0.2,0,0.3,0,0.5,0c1.7,0,3.6-1.1,5.7-5
		c1.8-3.5,5.6-12.1,9-23.8c0.4-1.5,0.9-3.1,1.3-4.7c0.5-2,1.1-4.2,1.7-6.7l0,0C1106.6,1328.6,1111,1305.5,1110.5,1274.7z"/>
	<path opacity="0.3" fill="#091426" enable-background="new    " d="M1078.9,1322.3c-0.5,2.1-0.7,4.3-0.6,6.4c0.1,2.6,0.2,5.8,3,7.2
		c0.5,0.2,1.1,0.4,1.6,0.5c2.5,0.4,5.4-0.7,7.3-2c1.8-1.2,3.4-3.1,5.8-2.7c2.5,0.4,4.2,2.4,5.4,5c1,2.1,1.5,4.6,1.7,6.9
		c-0.6,2.5-1.2,4.7-1.7,6.7c-0.4,1.6-0.9,3.2-1.3,4.7c-1.8,2.7-4.3,4.9-7.2,5.9c-0.1,0-0.2,0.1-0.3,0.1c-1.3,0.4-2.8,0.7-4.2,0.4
		c-0.9-0.2-1.8-1.2-2.7-1.3c-5.7-0.8-4,10.5-3.8,15.1c1.1,2.1,2,3.6,2.3,4.7c0.2,0.8,0.4,1.4,0.5,2.1c0.1,0.6,0.2,1.2,0.2,1.7
		c-3.9-0.1-6.1-1.1-12-21.8c-6.2-21.6-11.8-33.6-15-74.1s-5.1-93.9-5.3-117.2c-0.2-23.3-2-38.2-2-38.2s1.4-1.6,4.5-3.1
		c0,0,0.9-0.5,2.1-0.9v1c0.3,25.8,1,51,1.4,65.6c0.4,16.1,4,59.6,6.2,83.1s3.8,51.2,7.4,70.1c1.3,7.1,3.2,12.8,5.1,17.4
		c0.2-2.2,0.7-4.3,1.6-6c2.5-4.9,6.5-2.9,10.3-3.3c0.9-0.1,1.9-0.4,2.8-0.9c3-1.8,5-5.1,5.7-8.5c0.4-2.1,0.3-4.3-0.3-6.4
		c-0.1-1.8-1-2.8-2.7-3.1c-1-1.1-1.9-1.2-2.7-0.1c-4.4,1.5-8.6,4-13.2,1c-1.3-0.8-2.2-2-3-3.2c-1.5-2.6-2-5.9-2.1-8.8
		c-0.1-4.2,0.9-11.4,5.3-13.1c6-2.3,14.8,4.7,18.7-2.2v-0.1c2-3.6,2.6-7.9,2.5-12c0-0.9-1-7.7-2.9-9.9c-2.1,0.9-6.4,5.2-7.3,5.9
		c-2.6,1.9-6.1,4.1-9.4,3.9c-1.5-0.1-2.8-0.7-4-1.5c-3.5-2.6-5.3-7.9-6.3-11.6c-1.9-7-3.2-14.2-0.4-21.2c2.4-5.9,6.6-4.6,10.4-0.8
		c1.5,1.6,3.3,3.4,5.3,4.4c3.6,1.8,6.8,0.1,9.5-2.3c1.4-1.2,2.3-2.6,3-4.1c1.1-2.6,1.2-5.7,1-8.8c-0.2-2.1-1.9-13.3-5.7-12
		c-0.5,0.2-2.1,3.6-2.5,4.1c-1,1.3-2.1,2.4-3.3,3.5c-1.2,1-2.5,1.9-3.9,2.5c-3.4,1.7-7.2,1.9-10.3-1.2c-3.3-3.3-5.3-8.6-5.9-13.7
		c-2.4-7.6-0.7-19.4,7.2-21c3.6-0.7,6.8,0.2,10.3,0.5c1.7,0.1,4,0.4,5.5-0.6c1.8-1.2,2.5-4.6,3-6.5c0.1-0.5,0.2-1,0.3-1.6
		c0.7-3.7,0.8-7.6-0.1-11.2c-0.6-2.3-1.8-6.1-3.9-7.2c-4.2,2.9-7.3,7.5-12.4,9c-2.5,0.7-5.3,0.8-7.9,0.2c-2-0.5-3.9-1.4-5.3-2.9
		c-3.5-3.6-4.2-9.9-4.4-14.6c-0.1-4.5,0.2-11.5,3.5-15.1c4-4.4,10.8-0.6,15.6-1.4c0.9-0.1,1.6-0.5,2.3-1.1
		c4.4-3.7,4.6-15.2,4.2-19.7c-1.1-11.7-12-6-19.4-7.1c-0.7-0.1-1.3-0.3-1.8-0.6c-1.9-0.9-2.9-2.8-1.4-5c0.4-0.6,1.7-0.5,1.6,0.4
		c-0.3,2.7,15.6,0.8,17.5,1c3.7,0.4,5.6,3.5,6.6,6.9c1.4,4.7,0.8,9.8,0.2,14.5c-0.1,0.5-0.2,0.9-0.2,1.4c-0.6,3.7-1.6,8.1-4.1,10.8
		c-3.2,3.5-8.5,1.7-12.6,1.6c-1,0-2.8-0.3-3.7,0.1c-2.7,1-3.2,3.6-3.7,6c-0.8,3.6-0.8,7.4-0.3,11.1c0.3,2.1,0.8,4.6,1.9,6.6
		c0.6,1,1.3,1.9,2.3,2.5c1.6,1,3.6,1.3,5.5,1.1c0.9,0,1.8-0.1,2.8-0.1c0.7-0.1,1.1-0.4,1.1-0.9c0.5-0.2,1.1-0.5,1.5-0.8
		c3.9-2.6,6-6.4,10.7-7.5c0.8-0.2,1.4,0.2,1.7,0.7c1.6,0.4,3,1.7,4.3,4c3.7,7,4,15.6,1.5,23c-0.2,0.4-0.3,0.9-0.5,1.3
		c-2.3,5-6.6,7-12.4,6c-2.4-0.4-5-1.4-7.5-1c-5.1,0.8-5.5,3.9-6,8.1c-0.4,3.4,0.2,6.8,0.2,10.2c0.6,2.5,1.4,4.9,2.8,7
		c1,1.6,1.9,2.8,3.2,3.3c1,0.4,2.2,0.4,3.9-0.2c2.1-0.7,4.2-2.5,5.6-4.1c3.3-3.5,4.7-10.4,10.8-6.1c5.3,3.7,6.5,11.3,6.5,17.2
		c0,5.8-1.7,10.4-5.8,14.2c-0.5,0.5-1,0.9-1.6,1.4c-4.7,3.6-9.7,4.3-14.6,0.5c-1.5-1.1-2.7-3.1-4.3-4.1c-3.3-2-4.3,1.7-5,4.5
		c-1.2,4.2-0.1,9.7,0.9,13.9c0.9,3.6,2.5,6.9,5.1,8.3c1.8,0.9,4,1,6.8-0.5c3.3-1.7,4.6-4.9,7.4-7.1c2.7-2.2,6.4-2.2,7.8,0.3
		c0.4,0.3,0.8,0.6,1.1,1c4.3,4.4,3.7,13.7,2.6,19.2c-0.7,3.3-2,7.3-4.4,9.8c-1.4,1.5-3.2,2.5-5.5,2.7c-3.7,0.3-7.3-1.7-11-1.2
		c-0.6,0.1-1,0.2-1.4,0.3c-1.7,0.5-2.3,1.5-2.9,3.4C1079.1,1321.4,1079,1321.8,1078.9,1322.3z"/>
	<g>
		<path fill="none" d="M1089.8,1184.7c0.8-0.2,1.4,0.2,1.7,0.7c1.6,0.4,3,1.7,4.3,4c3.7,7,4,15.6,1.5,23c-0.2,0.5-0.3,0.9-0.5,1.3
			c-0.6,5-3.4,9.3-9.5,9.4c-2.2,0-4.3-0.7-6.5-1c-5-0.7-6.1,4.3-6.3,8.2c-0.2,4.5-1,12.4,3,15.5c0.7,0.5,0.3,1.4-0.3,1.7
			c1,0.4,2.2,0.4,3.9-0.2c2.1-0.7,4.2-2.5,5.6-4.1c3.3-3.5,4.7-10.4,10.7-6.1c5.3,3.7,6.6,11.3,6.5,17.3c0,5.8-1.7,10.4-5.7,14.2
			c0.3,0.6,0.2,1.4-0.1,1.9c-1.9,3.6-5.7,5.4-9.7,5c-3.1-0.3-5.4-1.9-7.6-3.7c0,0,0,0-0.1,0.1c-1.5,1.1-1.8,2.5-2.7,4
			c-0.4,0.8-0.9,1.5-1.3,2.2c0,0.9,0,1.7-0.1,2.5c-0.7,4.8-0.8,8.4,2.1,12.7c1.8,0.9,4,1,6.8-0.5c3.3-1.7,4.6-4.9,7.4-7.1
			c2.7-2.2,6.4-2.2,7.8,0.3c0.4,0.3,0.8,0.6,1.1,1c4.3,4.4,3.7,13.7,2.6,19.2c-0.7,3.3-2,7.3-4.4,9.8c-0.7,2.6-4,4.1-6.6,4.5
			c-3.6,0.5-7.4-0.6-10.2,2.3c-1.5,1.6-5.4,11.8-0.8,12.6c0.6,0.1,0.8,0.7,0.6,1.1c2.5,0.4,5.3-0.7,7.3-2c1.8-1.2,3.4-3.1,5.8-2.7
			c2.5,0.4,4.2,2.4,5.4,5c0.6-3.3,1.7-6.7,2.4-9.8c1.2-6.1,2.3-12.2,3.1-18.4c1.1-8.3,0.9-16.5,1-24.8c0-0.4,0-0.8,0-1.2
			c-0.3-8.7-0.9-17.3-1.4-26s-0.9-17.4-1.5-26c-0.3-3.7-0.7-7.4-1-11.2c0-0.3-0.1-0.6-0.1-0.9c-0.6-4.6-1.2-9.2-1.8-13.9
			c-1.2-9.2-2.4-18.5-3.5-27.7c-0.4-3-0.8-6-1.2-9c-6.1,4.4-12.3,8.8-18.6,12.9c-3.3,2.2-6.7,4.5-10.2,6.2c-0.2,0.1-0.4,0.2-0.6,0.3
			c0.2,0.5,0.4,1,0.7,1.6c7.5-4.8,14.8-10.8,22.8-14.5c0.6-0.3,1.3,0.5,0.8,1c-6.2,6.2-15,10.6-22.7,14.9c0.5,0.6,1,1,1.6,1.4
			c1,0.6,3.5,1.5,4.6,0.5s2.1,0.2,2,1.1c0.5-0.2,1.1-0.5,1.5-0.8C1083,1189.7,1085.1,1185.8,1089.8,1184.7z"/>
		<path fill="none" d="M1064.8,1278c2.2,23.5,3.8,51.2,7.4,70.1c1.3,7.1,3.2,12.8,5.1,17.4c0.2-2.2,0.7-4.3,1.6-6
			c2.5-4.9,6.5-2.9,10.3-3.3c2.9-3.2,3.8-5.9,3.3-10.4c-0.3-2.6-0.6-2.6-2.9-2.3c-1.6,0.2-3.1,0.6-4.7,0.8c-5.7,0.6-7.8-3.1-9.2-8
			c-0.2-0.5,0-0.9,0.2-1.2c-1.5-2.6-2.1-5.9-2.1-8.8c-0.1-4.2,0.9-11.4,5.3-13.1c6-2.3,14.8,4.7,18.7-2.2c0,0,0-0.1,0.1-0.1
			c0-0.9,0.2-1.7,0.2-3c-0.1-2.1-0.9-4.7-1.2-6.7c-0.3-2-0.9-3.9-1.4-5.8c-6.1,3-15.7,7.9-18.6,1.9c-3.5-2.6-5.3-7.9-6.3-11.6
			c-1.9-7-3.2-14.2-0.4-21.2c2.4-5.9,6.6-4.6,10.4-0.8c1.5,1.5,3.3,3.4,5.3,4.4c3.6,1.8,6.8,0.1,9.5-2.3c1.4-1.2,2.3-2.6,2.9-4.1
			c-0.1-2.1-0.5-5.1-1.2-7.7c-5.4,3.1-11.2,6.9-17.2,7.9c-0.5,0.1-1-0.5-0.5-0.9c4.3-4.4,11-7,16.7-9.6c-0.6-1.1-1.2-1.9-2.1-2.2
			c-9.1,4.4-18.7,9.4-28.3,12.5c-0.5,0.2-0.7-0.5-0.3-0.7c6-4,12.7-7.2,19.5-10.1c-0.4,0.2-0.7,0.3-0.9,0.3l0,0
			c-3.4,1.7-7.2,1.9-10.3-1.2c-3.3-3.3-5.3-8.6-5.9-13.7c-2.4-7.6-0.7-19.4,7.2-21c3.6-0.7,6.8,0.2,10.3,0.5c1.7,0.1,4,0.4,5.5-0.6
			c1.8-1.2,2.5-4.6,2.9-6.5c0.1-0.5,0.2-1,0.3-1.6c-0.4,0.4-0.8,0.6-1.4,0.4c-1.4-0.4-1.2-2.6-1.3-3.6c-0.2-2,0.5-5.4-0.7-7.1
			c-0.6-0.8-2.6-1.2-4.3-1.2c-2.5,1.3-4.9,3.1-7.4,3.8c-3,0.8-6.3,0.3-8.9-1.3c-0.1-0.1-0.2-0.2-0.3-0.2c-2-0.5-3.9-1.4-5.3-2.9
			c-3.5-3.6-4.2-9.9-4.4-14.6c-0.1-4.6,0.2-11.5,3.5-15.1c4-4.4,10.8-0.6,15.6-1.3c0.9-0.1,1.6-0.5,2.3-1.1
			c-0.1-0.1-0.2-0.3-0.2-0.5c-0.6-3.8,0.6-7.4,0.4-11.3c-0.1-2.5-0.3-4.9-0.5-7.4c-0.3-3.1,0.3-5-3.6-6.2c-4.4-1.4-10.6,2.1-13.1-2
			c-1.9-0.9-2.9-2.8-1.4-5c0.4-0.6,1.7-0.5,1.6,0.4c-0.4,2.7,15.6,0.8,17.5,1c3.7,0.4,5.6,3.5,6.6,6.9c1.4,4.6,0.8,9.8,0.1,14.5
			c-0.1,0.5-0.1,0.9-0.2,1.4c0,0,0,0,0,0.1c1.3,3.2-0.3,8.7-2,11.5c-1.8,2.9-4.9,3.2-8.1,3.2c-2.6,0-5.6-0.4-8.2,0.3
			c-3.5,1-3.4,4.3-3.5,7.5c1.3-1.1,2.6-2.1,4-3c1.9-1.3,4-3.1,6.3-3.4c0.7-0.1,0.8,0.8,0.5,1.2c-1.3,1.7-3.9,2.7-5.8,3.9
			c-1.7,1.1-3.3,2.2-5,3.3c0,1.3,0.1,2.7,0.2,4.1c10.2-5.6,20.2-12.6,29.6-19.3c0.1-0.1,0.1-0.1,0.2-0.1c-0.7-5.2-1.3-10.5-2-15.7
			c-0.6-4.5-1.1-9-1.9-13.4c0-0.2-0.1-0.4-0.1-0.6c-1.2-0.7-2.3-1.6-3.6-2.2c-3.9-2-8.3-3.2-12.7-3.5c-6.5-0.5-12.8,1.3-19.2,1.1
			c0.3,25.8,1,51,1.4,65.6C1059,1211,1062.5,1254.5,1064.8,1278z M1064.8,1255.7c1.1-1.1,2.8-1.7,4.1-2.3c1.3-0.7,2.9-1.8,4.4-1.8
			c0.3,0,0.4,0.4,0.2,0.6c-1,1.3-3.2,1.9-4.6,2.6c-1.2,0.6-2.5,1.7-3.9,1.7C1064.7,1256.4,1064.5,1255.9,1064.8,1255.7z"/>
		<path fill="none" d="M1082,1317.7c-1.7,0.5-2.3,1.5-2.9,3.4C1079.9,1319.8,1080.9,1318.6,1082,1317.7z"/>
		<path fill="none" d="M1068.2,1193c1.6,1,3.6,1.3,5.5,1.1c-3.2,0-5.7-0.7-7.7-3.5C1066.5,1191.5,1067.2,1192.4,1068.2,1193z"/>
		<path fill="none" d="M1092.6,1242.8L1092.6,1242.8C1093.3,1242.4,1093.3,1242.4,1092.6,1242.8z"/>
		<path fill="none" d="M1090.1,1248.4c-0.2,0.1-0.4,0.2-0.6,0.3C1089.7,1248.6,1089.9,1248.5,1090.1,1248.4L1090.1,1248.4z"/>
		<path fill="#D5D8FE" d="M1075.6,1336.4c1.5,4.9,3.6,8.7,9.2,8c1.6-0.2,3.1-0.5,4.7-0.8c2.3-0.4,2.6-0.3,2.9,2.3
			c0.5,4.5-0.4,7.2-3.3,10.4c1-0.1,1.9-0.3,2.8-0.9c3-1.8,5-5.1,5.7-8.5c0.4-2.1,0.3-4.3-0.3-6.4c-0.1-1.8-1-2.8-2.7-3.1
			c-1-1.1-1.9-1.2-2.7-0.1c-4.4,1.5-8.5,4-13.2,1c-1.3-0.8-2.2-1.9-3-3.2C1075.6,1335.4,1075.5,1335.8,1075.6,1336.4z"/>
		<path fill="#D5D8FE" d="M1088.3,1361.3c-0.9-0.2-1.8-1.1-2.6-1.3c-5.7-0.8-4,10.5-3.8,15.1c1.1,2.1,2,3.6,2.3,4.7
			c0.2,0.8,0.4,1.4,0.5,2.1c0.8-5.5,0-11.2,0.8-16.6c0.3-2.2-0.4-1.5,1.8-1.3c0.8,0.1,1.6,0.2,2.3-0.1c1.3-0.4,2.3-1.5,3-2.7
			c0.1-0.2,0.2-0.4,0.2-0.5c-0.1,0-0.2,0.1-0.3,0.1C1091.2,1361.3,1089.7,1361.5,1088.3,1361.3z"/>
		<path fill="#D5D8FE" d="M1082.3,1335.2c-4.7-0.8-0.7-11,0.8-12.6c2.8-2.9,6.6-1.8,10.2-2.3c2.7-0.4,5.9-1.8,6.6-4.5
			c-1.4,1.5-3.2,2.5-5.5,2.7c-3.7,0.3-7.3-1.7-11-1.2c-0.5,0.1-1,0.2-1.4,0.3c-1.2,0.9-2.2,2.1-2.9,3.4c-0.1,0.4-0.2,0.8-0.3,1.2
			c-0.5,2.1-0.7,4.3-0.6,6.4c0.1,2.6,0.2,5.8,3,7.2c0.5,0.2,1.1,0.4,1.6,0.5C1083.1,1335.9,1082.9,1335.3,1082.3,1335.2z"/>
		<path fill="#D5D8FE" d="M1095.4,1295.4c0.5,1.9,1.1,3.8,1.4,5.8c0.4,2.1,1.2,4.7,1.2,6.7c0,1.3-0.2,2.1-0.2,3
			c2-3.6,2.6-7.9,2.5-12c0-0.9-1-7.7-2.9-9.9c-2.1,0.9-6.4,5.2-7.3,5.9c-2.6,1.9-6.1,4.1-9.4,3.9c-1.5-0.1-2.8-0.7-4-1.5
			C1079.7,1303.3,1089.3,1298.4,1095.4,1295.4z"/>
		<path fill="#D5D8FE" d="M1076.6,1280.6c0.1-0.8,0.1-1.6,0.1-2.5c0.4-0.7,0.8-1.4,1.3-2.2c0.9-1.5,1.2-3,2.7-4c0,0,0,0,0.1-0.1
			c2.2,1.8,4.5,3.4,7.6,3.7c4,0.4,7.8-1.5,9.7-5c0.3-0.6,0.4-1.3,0.1-1.9c-0.5,0.5-1,0.9-1.6,1.4c-4.7,3.6-9.6,4.3-14.6,0.5
			c-1.5-1.1-2.7-3.1-4.3-4c-3.3-2-4.3,1.7-5,4.5c-1.2,4.2-0.1,9.7,0.9,13.9c0.9,3.6,2.5,6.9,5.1,8.3
			C1075.8,1288.9,1075.9,1285.4,1076.6,1280.6z"/>
		<path fill="#D5D8FE" d="M1065.1,1256.4c1.4,0,2.7-1.1,3.9-1.7c1.4-0.7,3.6-1.3,4.6-2.6c0.2-0.2,0.1-0.6-0.2-0.6
			c-1.5,0-3.1,1.2-4.4,1.8c-1.3,0.7-3,1.3-4.1,2.3C1064.5,1255.9,1064.7,1256.4,1065.1,1256.4z"/>
		<path fill="#D5D8FE" d="M1084.7,1250.8c-6.8,2.9-13.5,6.2-19.5,10.1c-0.4,0.2-0.1,0.9,0.3,0.7c9.7-3.1,19.2-8.1,28.3-12.5
			c0.8,0.3,1.5,1.1,2.1,2.2c-5.7,2.7-12.4,5.3-16.7,9.6c-0.4,0.4,0,1,0.5,0.9c5.9-1,11.8-4.8,17.2-7.9c0.7,2.6,1.1,5.7,1.2,7.7
			c1.1-2.6,1.2-5.6,1-8.8c-0.2-2.1-1.9-13.3-5.7-12c-0.5,0.2-2.1,3.6-2.5,4.1c-1,1.3-2.1,2.4-3.3,3.5c-1.2,1-2.5,1.9-3.9,2.5l0,0
			C1083.9,1251,1084.2,1250.9,1084.7,1250.8z M1092.6,1242.8L1092.6,1242.8C1093.3,1242.4,1093.3,1242.4,1092.6,1242.8z
			 M1090.1,1248.4L1090.1,1248.4c-0.2,0.1-0.4,0.2-0.6,0.3C1089.7,1248.6,1089.9,1248.5,1090.1,1248.4z"/>
		<path fill="#D5D8FE" d="M1077.5,1245.8c-4-3.1-3.2-11-3-15.5c0.2-3.9,1.3-9,6.3-8.2c2.2,0.3,4.3,1.1,6.5,1
			c6.1-0.1,8.9-4.3,9.5-9.4c-2.3,5.1-6.6,7-12.4,6c-2.4-0.4-5-1.4-7.5-1c-5.1,0.8-5.5,3.9-6,8.1c-0.4,3.4,0.2,6.9,0.2,10.2
			c0.6,2.5,1.4,4.9,2.8,7c1.1,1.6,1.9,2.8,3.2,3.3C1077.7,1247.2,1078.2,1246.4,1077.5,1245.8z"/>
		<path fill="#D5D8FE" d="M1078.6,1199.2c2.5-0.7,4.9-2.5,7.4-3.8c1.7,0.1,3.7,0.4,4.3,1.2c1.2,1.7,0.5,5.1,0.7,7.1
			c0.1,1,0,3.2,1.3,3.6c0.6,0.2,1,0,1.4-0.4c0.6-3.7,0.8-7.6-0.1-11.3c-0.5-2.3-1.8-6.1-3.9-7.3c-4.2,2.9-7.3,7.5-12.4,9
			c-2.4,0.7-5.3,0.8-7.9,0.2c0.1,0.1,0.1,0.2,0.3,0.2C1072.3,1199.5,1075.6,1200.1,1078.6,1199.2z"/>
		<path fill="#D5D8FE" d="M1077.2,1137.2c3.9,1.3,3.3,3.1,3.6,6.2c0.2,2.5,0.4,4.9,0.5,7.4c0.2,3.9-0.9,7.5-0.4,11.3
			c0,0.2,0.1,0.3,0.2,0.5c4.4-3.7,4.6-15.2,4.2-19.7c-1-11.7-12-6-19.4-7.1c-0.7-0.1-1.3-0.3-1.8-0.6
			C1066.6,1139.3,1072.7,1135.8,1077.2,1137.2z"/>
		<path fill="#F92B00" d="M1076.5,1194c0.7-0.1,1.1-0.5,1.1-0.9c-1.2,0.5-2.5,0.9-3.9,1C1074.6,1194.1,1075.5,1194,1076.5,1194z"/>
	</g>
	<path fill="#D5D8FE" d="M1110.5,1274.7c-0.6-35.9-3.2-50.2-5.5-76.2c-2.3-25.9-5.6-52.1-6.5-59.7s-2.2-7.6-13.2-10.7
		s-22.7-1.7-27.7,0c-0.2,0.1-0.3,0.1-0.5,0.2c0,0.3,0,0.7,0,1c6.4,0.2,12.7-1.6,19.2-1.1c4.4,0.3,8.8,1.5,12.7,3.5
		c1.3,0.7,2.5,1.5,3.6,2.2c0,0.2,0.1,0.4,0.1,0.6c0.8,4.5,1.4,9,1.9,13.4c0.7,5.2,1.3,10.5,2,15.7c-0.1,0-0.1,0.1-0.2,0.1
		c-9.4,6.7-19.4,13.7-29.6,19.3c-0.2-1.3-0.2-2.7-0.2-4.1c1.7-1,3.4-2.2,5-3.3c1.8-1.2,4.4-2.2,5.8-3.9c0.3-0.4,0.2-1.3-0.5-1.2
		c-2.3,0.3-4.4,2.1-6.3,3.4c-1.4,0.9-2.7,1.9-4,3c0.1-3.2,0-6.5,3.5-7.5c2.6-0.8,5.5-0.3,8.2-0.3c3.1,0,6.3-0.3,8.1-3.2
		c1.7-2.9,3.3-8.4,2-11.5c0,0,0,0,0-0.1c-0.6,3.7-1.6,8.1-4.1,10.8c-3.2,3.5-8.5,1.7-12.6,1.6c-1,0-2.7-0.3-3.7,0.1
		c-2.7,1-3.2,3.6-3.7,6c-0.8,3.6-0.8,7.4-0.3,11.1c0.3,2.1,0.8,4.6,1.9,6.6c2.1,2.9,4.6,3.6,7.7,3.5c1.4-0.1,2.7-0.5,3.9-1
		c0.1-0.9-0.8-2.1-2-1.1c-1.1,0.9-3.5,0-4.6-0.5c-0.6-0.3-1.1-0.8-1.6-1.4c7.7-4.3,16.5-8.7,22.7-14.9c0.5-0.5-0.1-1.3-0.8-1
		c-8,3.7-15.4,9.7-22.8,14.5c-0.3-0.5-0.5-1-0.7-1.6c0.2-0.1,0.4-0.2,0.6-0.3c3.6-1.7,6.9-4,10.2-6.2c6.3-4.1,12.5-8.5,18.6-12.9
		c0.4,3,0.8,6,1.2,9c1.2,9.2,2.4,18.5,3.5,27.7c0.6,4.6,1.2,9.2,1.8,13.9c0,0.3,0.1,0.6,0.1,0.9c0.3,3.8,0.7,7.5,1,11.2
		c0.6,8.7,1.1,17.3,1.5,26c0.5,8.7,1,17.3,1.4,26c0,0.4,0,0.8,0,1.2c0,8.2,0.1,16.5-1,24.8c-0.8,6.2-1.9,12.3-3.1,18.4
		c-0.6,3.1-1.7,6.4-2.4,9.8c1,2.1,1.5,4.6,1.7,6.9C1106.6,1328.6,1111,1305.5,1110.5,1274.7z"/>
</g>
</svg>
