<?xml version="1.0" encoding="utf-8"?>
<!-- Generator: Adobe Illustrator 21.0.2, SVG Export Plug-In . SVG Version: 6.00 Build 0)  -->
<svg version="1.1" id="_x32_0_x5F_Bottom_x5F_SwimTrunks"
	 xmlns="http://www.w3.org/2000/svg" xmlns:xlink="http://www.w3.org/1999/xlink" x="0px" y="0px" viewBox="0 0 2000 2000"
	 enable-background="new 0 0 2000 2000" xml:space="preserve">
<g>
	<g>
		<path fill="none" d="M1090,1370.2c0.1,1,0.2,2.1,0.3,3.1c0.6,3.7,1.5,7.5,2.6,11.3c-1.1-3.8-1.9-7.6-2.6-11.3
			C1090.2,1372.3,1090.1,1371.3,1090,1370.2z"/>
		<path fill="none" d="M1096.3,1310.2c-1.3-6.4-2.4-12.8-3.8-19.2c0.9-0.3,1.7-1,2.1-2C1095.3,1287.4,1095,1303.5,1096.3,1310.2z"/>
		<path fill="none" d="M1084.7,1277.9c-0.4-2.1-0.7-4.3-0.9-6.4C1084,1273.7,1084.3,1275.8,1084.7,1277.9
			c-0.3,5.1,0.4,10.3,0.7,15.4C1085.1,1288.3,1084.4,1283,1084.7,1277.9z"/>
		<path fill="none" d="M1082.7,1240.5c-0.2,0-0.5,0.2-0.6,0.3C1082.2,1240.6,1082.4,1240.5,1082.7,1240.5z"/>
		<path fill="none" d="M1081.3,1246.2c-0.1,4.7,0.6,9.8,1.2,14.4C1082,1256,1081.2,1250.9,1081.3,1246.2z"/>
		<path fill="none" d="M1086.5,1251.1c0.6,4,1,8.2,1.5,11.8c0.3,2,0.7,4,1,6c-0.4-2-0.7-4-1-6
			C1087.4,1259.3,1087.1,1255.2,1086.5,1251.1z"/>
		<path fill="none" d="M1124.1,1388.9c1.6,0,3.2-0.1,4.8-0.2c3.8-0.3,7.6-0.8,11.3-1.6c-3.7,0.7-7.5,1.3-11.3,1.6
			C1127.3,1388.7,1125.7,1388.8,1124.1,1388.9z"/>
		<path fill="none" d="M1171.9,1376.7c-4.5,2-9.1,3.8-13.8,5.4C1162.7,1380.5,1167.3,1378.7,1171.9,1376.7z"/>
		<path fill="none" d="M1116.3,1388.6L1116.3,1388.6C1116.4,1388.6,1116.4,1388.6,1116.3,1388.6
			C1116.4,1388.6,1116.4,1388.6,1116.3,1388.6L1116.3,1388.6z"/>
		<path fill="none" d="M1102.6,1339.1c0,0.2,0.1,0.4,0.1,0.6c0.6,2.6,1.3,5.2,1.9,7.8c-0.6-2.6-1.3-5.2-1.9-7.8
			C1102.7,1339.5,1102.6,1339.3,1102.6,1339.1z"/>
		<path fill="none" d="M1108.9,1364.3c0.4,1.5,0.8,3,1.1,4.4c0.4,1.4,0.7,2.8,1.1,4.1c-0.4-1.4-0.7-2.8-1.1-4.1
			C1109.6,1367.2,1109.2,1365.8,1108.9,1364.3z"/>
		<path fill="#152B67" d="M1191.6,1372.2c-1.2,1.1-5.6,4.4-13.4,8.2c0,0-0.1,0-0.1,0.1c-2.9,1.4-6.3,2.9-10.2,4.3
			c-6.2,2.3-13.6,4.6-22.3,6.5c-8.8,1.9-16.7,2.9-23.3,3.3c-1.5,0.1-3,0.2-4.4,0.2c-12.3,0.4-19.3-1-19.3-1s2,5.4,2.5,10l0,0
			c0.2,0.3,0.4,0.7,0.6,1c-0.2,0.1-0.3,0.2-0.5,0.3c0,1.4-0.1,2.7-0.7,3.6c-2.2,3.6-16.2,13.4-48.9,17.9c-32.6,4.5-45.1,0-45.1,0
			c-1.4-6.5-4.3-15.1-9-24.9c-1.7-3.5-3.6-7.1-5.7-10.9c-1.6-2.9-3.4-5.8-5.4-8.8c-3.5-5.4-7.5-11.1-12-16.7c-1-1.3-2.1-2.6-3.2-3.9
			c-0.5-0.7-1.1-1.3-1.7-2c-1.1-1.3-2.3-2.7-3.5-4c-4.7-5.3-9.8-10.6-15-15.7c-0.6-0.6-1.2-1.2-1.9-1.8c-1.5-1.4-2.9-2.8-4.3-4.2
			c-1.6-1.6-3.2-3.1-4.8-4.6c-14.2-13.3-26.2-23.2-26.2-23.2s1-5.3,1.9-17s1.7-26.8,2.4-37.7c0.7-10.8-1.2-28.6,12.6-44.1
			c1.2-1.4,2.6-2.7,4.2-3.9c-1.4-5.7,0.6-14.3,1.9-15c1.5-0.8,6.8-0.9,17.5-4.5c3.9-1.3,5.6-4.5,9.4-5.7c22.3-7.1,41.3-22.6,60.6-23
			c22.6-0.5,22.7-1.9,28-3.8s10.8-1.8,17.5-3.6c6.7-1.9,9.8-5.4,9.5-1.8c-0.2,2.5-0.3,7.1-0.3,9.6c0,1,0,1.7,0,1.7s2.1-0.2,5.6-0.5
			c7.9-0.6,23-1.1,36.1,1.3c18.8,3.5,24.1,9.3,23.3,16.9c-0.6,5.4,0.3,13.9-0.5,19.8c-0.2,1.4,7.9,1.8,7.6,2.6
			c5.3,1.8,9.7,5.3,12.9,11.4c2.7,5.1,4.6,11.9,5.4,21c1.4,15.5,6,45.1,9,68.9c0.3,2.1,0.5,4.1,0.8,6.1c0.6,4.9,1.1,9.5,1.5,13.5
			c0,0.5,0.1,0.9,0.1,1.4c0.3,3.1,0.6,6.1,1,8.9c0.6,4.8,1.3,9.2,2,13.2c1.1,6.4,2.4,11.8,3.5,15.7c0.9,3,1.6,5.2,2.3,6.4
			c0.8,1.6,1.7,2.9,2.3,4C1192.8,1369.5,1193.1,1370.8,1191.6,1372.2z"/>
	</g>
	<g>
		<path fill="#FFFFFF" d="M1092,1361.9c0,0,0.7,9.8,1.1,13.4c0,0,21.4,0.6,51.2-5c17.7-3.3,33.3-9,42.9-13
			c-1.1-3.9-2.3-9.2-3.4-15.7c-4.9,2.3-16.2,7.1-31.5,11.9C1131.4,1360.1,1092,1361.9,1092,1361.9z"/>
		<path fill="#FFFFFF" d="M1088.7,1337.4c0,0,1.5,7.1,1.5,7.4c0,0,20.5,1,51.2-5.5c23-4.9,35.5-9.1,40.4-10.9
			c-0.4-2.8-0.7-5.8-1-8.9c-7.1,2.8-20,7-42,11.6C1099.6,1339.2,1088.7,1337.4,1088.7,1337.4z"/>
		<path fill="#FFFFFF" d="M1088.7,1318.1l-1,3.6c0,0,14.4,2.9,44.8-4.4c23.3-5.6,40.2-10.7,46.8-12.9c-0.2-2-0.5-4-0.8-6.1
			c-7.8,3.8-20.6,8.8-39.4,13C1103.7,1319.1,1088.7,1318.1,1088.7,1318.1z"/>
		<path fill="#FFFFFF" d="M948.1,1329.1c0,0-2.3,0.2-8.1-0.2c1.6,1.5,3.2,3,4.8,4.6l3.3-0.3V1329.1z"/>
		<path fill="#FFFFFF" d="M1021.5,1349.4c44.5-0.7,65-12.6,65-12.6v-5.9c0,0-30.6,15.2-74.9,13.6s-61.5-11.9-61.5-11.9l-0.9,5
			c0.6,0.6,1.2,1.2,1.9,1.8C958.3,1342,984.1,1350,1021.5,1349.4z"/>
		<path fill="#FFFFFF" d="M1089.2,1358.6l-0.7-6.6c0,0-30.2,10.2-64.8,10.9c-25,0.5-47.2-4.7-57.7-7.7c1.8,2,3.5,4,5.2,6
			c1.1,1.3,2.1,2.6,3.2,3.9c10.2,1.8,26.5,3.8,48.8,3.8C1064.3,1369.1,1089.2,1358.6,1089.2,1358.6z"/>
		<path fill="#FFFFFF" d="M1093.9,1385.5c-3.1-4.9-4-15.2-4-15.2s-19.5,10.5-42.4,12.2c-20.3,1.6-39.1,2.9-61.1-0.6
			c4.5,6.9,8.1,13.6,11.1,19.7c8.1,0,30.4-0.3,52.7-2.9C1078.1,1395.6,1093.9,1385.5,1093.9,1385.5z"/>
	</g>
	<path fill="#D8D8D8" d="M1040,1190.7c29.8,0.3,49.4-3.4,74,0s33.1,9.1,36.3,7.7c3.2-1.4,1.9-18.1,2.8-25.7
		c0.8-7.6-9.5-17.2-28.4-20.7c-18.8-3.5-45.4-1-45.4-1s-0.1-1.7,0.2-5.3c0.3-3.6-2.8-0.1-9.5,1.8s-11.5-1.3-16.8,0.5
		s-4.7,3.7-28.5,6c-22.5,2.2-47.3,8.5-74,17.4c-10.8,3.6-16.7,5.7-18.2,6.5s1.8,25,2.9,26.7c0,0,4.8-0.3,31.6-7.9
		C993.9,1189.1,1040,1190.7,1040,1190.7z"/>
	<g>
		<path opacity="0.3" fill="#091426" enable-background="new    " d="M1159.7,1206c-2.7-1.2-5.4-2.3-8.2-3.3
			c0.5,0.4,1.1,0.9,1.6,1.4c1.2,1.2,3.5,3.1,3,5c-0.1,0.6-0.8,0.7-1.2,0.5c-1-0.5-1.3-1.4-2-2.2c-0.7-0.9-1.6-1.6-2.4-2.4
			c-1.3-1.2-2.3-2.3-3.1-3.6c-0.1,0-0.1-0.1-0.2-0.1c-1.5-0.4-3-0.9-4.4-1.4c0.7,0.9,1.4,1.9,1.9,2.8c1.4,2.5,3.5,7.1,1.1,9.5
			c-0.3,0.3-0.8,0.2-1-0.1c-0.9-1.4-0.7-2.7-1.1-4.2c-0.4-1.7-1.1-3.2-2-4.7c-1.2-1.9-2.9-3.4-4.3-5.1c-4.5-0.7-9.1-1.6-13.6-2.4
			c0.4,0.6,0.7,1.2,1,1.8c1.8,3.7,4.1,8.9,2.8,13c-0.2,0.7-1,0.6-1.3,0c-1.5-3.6-2.5-7.4-4.1-11c-0.9-2-2-3.4-3.5-4.7
			c-8.5-1.5-17-2.7-25.8-2.6c-4.1,0-8,1-12,1c-0.1,0-0.2,0-0.3,0c3.1,6.2,4.5,13.3,6.1,19.8c2.5,10.5,4.6,20.9,4.3,31.8
			c0,0.7-1.1,0.9-1.3,0.2c-1.7-9.9-4.4-19.5-6.8-29.2c-2-8.1-4.9-15.3-8.2-22.8c-1.9-0.1-3.9-0.3-5.8-0.4c-2.7-0.2-5.4-0.2-8.1-0.2
			c-0.9,2.8-2.8,5.4-3.8,8.2c-1.1,3.1-1.9,6.3-2.7,9.5c-2.1,8.1-3.8,16.2-4.6,24.5c-0.7,7.6-0.4,15.3,0.4,22.8
			c0.7,7,2.7,13.7,3.8,20.6c1.1,0.6,2,1.8,1.7,3.4c-0.1,0.3-0.2,0.8-0.3,1.2c0.1,0.1,0.3,0.2,0.4,0.4c1.6,1.3,3.2,2.3,3.5,4.5
			c0.6,4.5-4.2,6.8-8,6.7c-3.8-0.1-9.4-2-8.6-6.7c0.7-4,2.9-7.9,5.2-11.4c-1.6-6-2.2-12.7-2.6-18.6c-0.6-8.8-0.1-17.7,0.9-26.5
			c1.1-8.7,3.1-17.2,5.3-25.6c1-3.8,2.3-9.8,5.6-12.9c-3.9,0.1-7.8,0.3-11.7,0.4c-9.4,0.3-18.9,0.2-28.4,0.6
			c-7.2,9-9.2,21.1-12.9,31.6c-0.1,0.3-0.6,0.3-0.6-0.1c0.3-6.3,2.4-12.8,4.6-18.6c1.5-4,3-9,5.5-12.8c-5.2,0.3-10.4,0.8-15.4,1.5
			c-2.8,1.8-5,5.2-7.1,7.6c-2.5,2.9-4.4,6.3-6.9,9.1c-0.2,0.3-0.7,0-0.6-0.4c1.3-4.1,4.2-8.3,6.7-11.8c0.8-1.1,1.6-2.4,2.5-3.6
			c-1.2,0.2-2.5,0.4-3.7,0.6c-1.2,1.3-2.6,2.4-3.8,3.6c-1.8,1.6-3.4,3.2-5.1,4.9c-0.3,0.3-0.7-0.1-0.6-0.4c1-2.2,2.4-4.3,3.8-6.3
			c0.2-0.3,0.4-0.6,0.7-0.9c-3.2,0.5-6.3,1-9.5,1.4c-2.2,0.3-4.3,0.4-6.4,0.7c-4.7,8.8-9.4,17.4-12,27.1c-2.6,9.6-3.8,19.6-5.4,29.3
			c-1.8,10.7-3.5,21.3-4.9,32c-1.1,8.3-3.2,17.9-1,26.3c3.6-10.5,6.9-21,9.5-31.8c3.4-13.8,7.6-28.3,7.7-42.6c0-1.1,1.8-1.4,2-0.3
			c0.9,5,0.5,10.2-0.1,15.3c0.3,3.6-0.1,7.4-0.3,11c-0.2,4.9-0.5,9.7-0.8,14.6c-0.5,9.7-0.6,19.4-0.4,29.1
			c0.5,16.9,2.7,33.5,7.3,49.7c-1.1-1.3-2.3-2.7-3.5-4c-4.7-5.3-9.8-10.6-15-15.7c-0.6-0.6-1.2-1.2-1.9-1.8
			c-1.5-1.4-2.9-2.8-4.3-4.2c-1.6-1.6-3.2-3.1-4.8-4.6c-14.2-13.3-26.2-23.2-26.2-23.2s1-5.3,1.9-17s1.7-26.8,2.4-37.7
			c0.7-10.8-1.2-28.6,12.6-44.1c1.2-1.4,2.6-2.7,4.2-3.9c-1.4-5.7-3.7-24.5-2.4-25.2c1.5-0.8,7.4-2.9,18.1-6.5
			c3.9-1.3,7.8-2.6,11.6-3.8c-1.5,3-2.7,5.9-2.5,9.5c0.2,4.3,2.1,14,7.6,14.6c0.2,0,0.5,0.1,0.7,0.2c1.6-0.5,3.2-0.9,4.9-1.2
			c7.6-1.5,15.7-2,23.4-1.9c16.5,0.3,33.3-1.4,49.8-2.1c4.5-0.2,8.9-0.3,13.3-0.5c-1.8-0.9-4.7-2.5-6.5-4.2
			c-0.8,0.4-1.7,0.6-2.7,0.6c-3.2,0-5.7-2.3-5.7-5.2c0-2.9,2.6-5.2,5.7-5.2s5.7,2.3,5.7,5.2c0,0.9-0.2,1.7-0.7,2.4
			c2.4-0.2,5.4,1.5,7.7,2.3c2.4,0.9,5.2,2.2,7.9,2.6c1.1-5.3,3.8-10.3,5.2-15.6c1.1-4.4,2.2-8.3,3-13.8c0.4-2.8,0.1-4.3,0.1-4.3
			s3.2-0.2,6.7-0.5c-0.4,1.9-1.9,9.8-2.4,11.6c-1.1,4.4-2,8.8-3.4,13.1c-0.7,2-1.5,4.6-2.6,7c0.3-0.1,0.6-0.2,0.9-0.4
			c1.9-0.8,3.7-1.8,5.4-2.9c0.9-0.6,1.9-1.4,2.8-2.1c-0.4-0.7-0.7-1.6-0.7-2.5c0-2.9,2.6-5.2,5.7-5.2s5.7,2.3,5.7,5.2
			c0,2.3-1.7,4.3-4.1,5c-1.4,1.9-3.6,3.4-5.3,4.6c-0.3,0.2-0.6,0.5-0.9,0.7c3.1,0.2,6.3,0.4,9.4,0.4c14.6,0.2,29.9-0.1,43.5,5.8
			c3.6,0.7,7.2,1.5,10.8,2.5c0.4,0.1,0.8,0.2,1.2,0.3c-0.2,1.4-0.5,2.6-0.8,3.4c5.3,1.8,9.7,5.3,12.9,11.4
			C1162.6,1207.6,1161.2,1206.7,1159.7,1206z"/>
	</g>
	<path opacity="0.3" fill="#091426" enable-background="new    " d="M1191.6,1372.2c-1.2,1.1-5.6,4.4-13.4,8.2c-2.2,1-4.4,2-6.7,2.9
		c-1.2,0.5-2.4,1-3.7,1.5c-6.2,2.3-13.6,4.6-22.3,6.5c-8.8,1.9-16.7,2.9-23.3,3.3c-1.5,0.1-3,0.2-4.4,0.2c-12.3,0.4-19.3-1-19.3-1
		s2,5.4,2.5,10c-5.6-9-9-20.1-10.7-30.4c-0.5-3.2-0.5-6.3-0.3-9.5c-0.6-5.1-0.9-10.2-1.2-15.2c-0.8-12.2-1.5-24.5-2.2-36.7
		c-0.4-6-0.7-12-1.1-18c-0.3-5.3-1.1-10.8-0.8-16.1c-0.8-4.8-1.3-9.6-1.8-14.3c-0.7-7-2.5-15.7-1-22.5c0.2-0.8,1.4-0.9,1.7-0.2
		c3.1,6.3,3.3,15.2,4.4,22.1c0.5,3,1,6.1,1.6,9.1c2.4,2.3,2.8,5.9,3.7,9.1c0.6,2.1,2.3,5.6,1.4,7.8c-0.4,1-1.2,1.7-2.1,2
		c1.4,6.5,2.5,13.1,3.8,19.6c2,9.8,4.1,19.5,6.4,29.2s4.7,19.4,7.3,29c1.3,4.9,2.6,9.7,4,14.5c0.5,1.8,1.2,3.6,1.8,5.3
		c0.2,0,0.3,0.1,0.5,0.1c4.2,0.4,8.4,0.3,12.6,0c9-0.6,17.8-2.8,26.3-5.6c8.6-2.8,16.8-6.3,25-10.1c2.8-1.3,7.6-4.8,11.6-5.3
		C1192.8,1369.5,1193.1,1370.8,1191.6,1372.2z"/>
	<path opacity="0.3" fill="#091426" enable-background="new    " d="M1006.5,1426.5c0,0,12.5,4.5,45.1,0s46.6-14.3,48.9-17.9
		c0.5-0.8,0.7-2.1,0.7-3.6c-12.9,7.4-26.5,12.6-41.1,15.6c-7.7,1.6-15.6,2.6-23.4,3.3c-3.8,0.3-7.7,0.6-11.5,0.5
		c-2.4-0.1-4.6-0.3-6.8-0.3c-3.1-7.3-6.7-14.3-11.6-20.6c-2.6-3.3-5.5-6.4-8.8-9.1c-1.6-1.3-3.8-3-6.1-3.8c2.1,3.8,4.1,7.4,5.7,10.9
		C1002.2,1411.4,1005.1,1420,1006.5,1426.5z"/>
	<ellipse fill="#898989" cx="1051.7" cy="1173.8" rx="7" ry="6.5"/>
	<ellipse fill="#898989" cx="1092.4" cy="1172.1" rx="5.7" ry="5.2"/>
	<path fill="none" d="M1055.9,1188c-1.8,2-3.3,4.4-4.4,6.8c-0.2,0.3-1.3,3.9-1.5,6c0.1,0.1,0.1,0.2,0.2,0.3
		c-0.2-0.6,4.1-4.2,4.6-4.8c1.7-1.9,3.2-4,4.7-6.1c2.1-3.1,4.1-6.2,6.2-9.3C1061.9,1182.4,1058.7,1184.8,1055.9,1188z"/>
	<path fill="none" d="M1095,1187c-3.2-3.9-7.4-4-11.9-4.2c3.2,7,8.8,17.5,16.6,17.4C1102.2,1195.8,1097.7,1190.3,1095,1187z"/>
	<g>
		<path fill="none" d="M1065.7,1181c-0.7,0.3-1.4,0.6-2.1,0.9c-2.9,1.4-5.4,3.5-7.7,6.1c-1.8,2-3.3,4.4-4.4,6.8
			c-0.1,0.3-1,3-1.4,5.1c0.2,0.1,0.4,0.2,0.5,0.3c0.2-0.2,0.4-0.4,0.6-0.6c1.2-1.3,3.1-2.9,3.5-3.3c1.7-1.9,3.2-4,4.7-6.1
			C1061.5,1187.2,1063.5,1184.1,1065.7,1181z"/>
		<path fill="none" d="M1083.1,1182.8c3.2,7,8.8,17.4,16.6,17.4c2.6-4.3-2-9.8-4.7-13.1C1091.8,1183.1,1087.5,1182.9,1083.1,1182.8z
			"/>
		<path fill="#FFFFFF" d="M1099.5,1188.8c-3.4-4.4-7.7-7.8-12.7-8.9c-0.5-0.1-1-0.2-1.6-0.3c3.2-1,6.1-2.9,8.8-6.2
			c0.2-0.2,0.3-0.4,0.4-0.6c1-2.2-1.7-4.7-3.7-2.7c-2.8,2.8-5.3,5.3-9.3,6.2c-0.9,0.2-1.8,0.3-2.7,0.4c-0.4-0.2-0.9-0.3-1.3-0.4
			c-1.2-1.4-3-2.2-4.9-2c-0.8,0.1-1.5,0.3-2.2,0.6c-0.8-0.1-1.6,0.1-2.3,0.6c-0.4,0.1-0.7,0.2-1,0.3c-1.9-0.2-3.8-0.5-5.5-0.9
			c-3-0.8-5.4-2.9-8.4-3.5c-2.1-0.4-3.4,1.7-2.4,3.3c0.1,0.1,0.2,0.2,0.3,0.4c2.3,2.6,5.2,4,8.4,4.8c-0.5,0.4-1,0.7-1.5,1.1
			c-2.6,2.1-4.9,4.6-6.7,7.2c-2.8,4-7.8,12.4-3.2,16.8c0.5,0.4,1.1,0.6,1.7,0.5c2.1,0.6,4-1.4,5.5-2.9c0.2-0.2,0.4-0.4,0.6-0.6
			c1.5-1.5,3-3.2,4.4-4.9c-0.6,1.3-1.2,2.6-1.8,3.9c-1.1,2.6-1.9,5.3-2.5,8.1c-0.8,3.5-1.4,7.2-1.8,10.7c-1,7.5-1.8,15.1-2.1,22.7
			c-0.2,6-1.1,12.8-0.2,18.8c0.1,0.8,0.3,1.7,0.5,2.5c0.1,0.2,0.2,0.4,0.3,0.6c-0.6,1.2-1.1,2.5-1.5,3.8c-1.5,5.1-1.7,10.6-1.7,14.1
			c0,0.4,0,0.7,0,1c-0.1,4.6,6.5,3.8,10,2.2c2-0.9,2.6-2,2.5-3.6c-0.1-1.3-0.7-2.8-1.4-4.7c-0.9-2.4-2.4-6.9-3.8-10.4
			c-0.4-0.9-0.7-1.8-1-2.5c0.1-0.2,0.2-0.3,0.3-0.5c0.3-1.1,0.5-2.2,0.7-3.3c0.8-5.3,0.3-11,0.4-16.2c0.2-7.3,0.3-14.5,1.1-21.7
			c0.6-5.7,0.9-11.5,2.4-17c0.4-1.6,1-3.3,1.7-4.9c0.8-1.9,1.7-3.7,2.7-5.5c0.7-1.4,1.4-2.8,2.1-4.2c0.8-1.6,1.3-3.2,1.8-4.8
			c0.3-0.9,0.5-1.9,0.8-2.9c0.4,0.2,0.8,0.2,1.3,0.1c0.2,0,0.3-0.1,0.5-0.2h0.1c0.3-0.2,0.5-0.3,0.7-0.6l0,0c2,0.8,3.9,0.4,5.2-0.6
			c-0.1,0.5-0.2,1.1-0.4,1.7c0.1,0,0.1,0,0.2,0c0.8,0.3,1.7,0.7,2.4,1.2c0.5,1.8,1.3,3.6,2,5.4c0.1,0.2,0.2,0.4,0.3,0.6
			c1,2.4,2.1,4.8,2.8,7.1c0.4,1.5,0.8,2.9,1.1,4.5c1.2,5.8,1.5,12,2,17.8c0.7,7.1,0.9,14,1,21.1c0.1,5-0.3,10.2,0,15.2
			c0.1,1.6,0.3,3.2,0.6,4.7v0.1c0.1,0.2,0.2,0.4,0.3,0.5c-0.7,2.9-1.2,7.6-1.8,12c-0.4,2.7-0.5,4.5-0.3,5.7c0.4,2,2,2.5,5.7,3.7
			c5.7,1.8,7.1-3.4,7.1-6.2c0-0.1,0-0.2,0-0.3c-0.1-2.2-5.2-11.9-7.9-15.8c-0.2-0.3-0.4-0.5-0.5-0.8c0.6-1.4,1.1-2.9,1.4-4.4
			c0.9-4.4,0.6-9.1,0.3-13.5c-0.6-8-1.5-16-2.3-23.9c-0.4-4.1-0.7-8.4-1.2-12.6c-0.4-2.7-0.9-5.3-1.6-7.8c0-0.1,0-0.1,0-0.1l0.1,0.1
			c0.9,0.9,2,1.9,3.2,2.8c2.9,2.3,6.5,4.1,9.7,1.9c0.2-0.2,0.4-0.4,0.5-0.7c1.3-0.5,2.1-1.8,2.3-3.5
			C1104.6,1195.1,1101.6,1191.5,1099.5,1188.8z M1054.8,1196.4c-0.3,0.4-2.2,2-3.5,3.3c-0.2,0.2-0.4,0.4-0.6,0.6
			c-0.2-0.1-0.4-0.2-0.5-0.3c0.3-2.1,1.2-4.8,1.4-5.1c1.1-2.5,2.6-4.8,4.4-6.8c2.2-2.6,4.8-4.7,7.7-6.1c0.7-0.3,1.4-0.6,2.1-0.9
			c-2.1,3-4.1,6.2-6.2,9.3C1058,1192.4,1056.5,1194.5,1054.8,1196.4z M1099.7,1200.1c-7.8,0.1-13.4-10.4-16.6-17.4
			c4.4,0.2,8.7,0.3,11.9,4.2C1097.7,1190.3,1102.2,1195.8,1099.7,1200.1z"/>
	</g>
	<path opacity="0.3" fill="#091426" enable-background="new    " d="M1059.5,1181c0.9-0.4,1.4-1.5,2.4-1.8s2.2-0.3,3.2-0.3
		c0.7,0.1,1-1,0.4-1.3c-2.7-1.3-4.2-0.1-6.6,1.2c-1.1,0.6-1.7,0.3-2.9-0.3c-0.7-0.4-1.5-0.8-2.2-1.3c-1.2-0.7-2.3-1.5-3.3-2.4
		c0.1,0.1,0.2,0.2,0.3,0.4c2.3,2.6,5.2,4,8.4,4.8c-0.5,0.4-1,0.7-1.5,1.1C1058.3,1181.2,1058.9,1181.2,1059.5,1181z"/>
	<path opacity="0.3" fill="#091426" enable-background="new    " d="M1070.1,1180.6c-0.6-1.1-2-2.4-3.3-2.6c-0.1,0-0.2,0.1-0.1,0.2
		c0.3,1.2,1.4,1.9,1.8,3.1c0.3,0.8,0.3,1.7,0.2,2.5c-0.2-0.1-0.5,0-0.7,0.1c-2.3,1-2.7,5-3.7,6.9c-2.3,4.3-5.7,7.8-8.9,11.4
		c-0.1,0.1-0.2,0.3-0.3,0.4c0.2-0.2,0.4-0.4,0.6-0.6c1.5-1.5,3-3.2,4.4-4.9c-0.6,1.3-1.2,2.6-1.8,3.9c-1.1,2.6-1.9,5.3-2.5,8.1
		c0.8-0.6,1.6-1.2,2.3-1.9c0.8-0.5,1.5-1.1,2.3-1.6c0.4-1.6,1-3.3,1.7-4.9c0.8-1.9,1.7-3.7,2.7-5.5c0.7-1.4,1.4-2.8,2.1-4.2
		c0.8-1.6,1.3-3.2,1.8-4.8c0.3-0.9,0.5-1.9,0.8-2.9c0.4,0.2,0.8,0.2,1.3,0.1C1070.8,1182.6,1070.6,1181.5,1070.1,1180.6z"/>
	<path opacity="0.3" fill="#091426" enable-background="new    " d="M1055.9,1188c2.2-2.6,4.8-4.7,7.7-6.1c-0.1-0.1-0.2-0.1-0.3-0.2
		c-4-0.9-8.6,5.7-10.7,8.4c-1.6,2.1-5.4,7.6-2.5,9.8c0.3-2.1,1.2-4.8,1.4-5.1C1052.6,1192.4,1054.2,1190,1055.9,1188z"/>
	<path opacity="0.3" fill="#091426" enable-background="new    " d="M1092.9,1172.4c-2.3,0.9-3.6,3-5.6,4.4c-2.3,1.5-5.4,1.6-8,2.5
		c-0.5,0.2-0.4,0.8,0.1,0.9c2.4,0.3,5,0.4,7.3-0.2c-0.5-0.1-1-0.2-1.6-0.3c3.2-1,6.1-2.9,8.8-6.2c0.2-0.2,0.3-0.4,0.4-0.6
		C1094,1172.4,1093.5,1172.2,1092.9,1172.4z"/>
	<path opacity="0.3" fill="#091426" enable-background="new    " d="M1088.3,1198.1L1088.3,1198.1c1,1,2.1,2,3.3,2.9
		c-1.5-3.7-4.1-7.1-6.6-10.2c-1.5-1.9-3.5-4.2-5.7-5.7c0.5,1.8,1.3,3.6,2,5.4c0.1,0.2,0.2,0.4,0.3,0.6c1,2.4,2.1,4.8,2.8,7.1
		c0.4,1.5,0.8,2.9,1.1,4.5c1.2,1.3,2.9,2.4,4.4,3.3c-0.4-2.7-0.9-5.3-1.6-7.8C1088.3,1198.2,1088.3,1198.1,1088.3,1198.1z"/>
	<path opacity="0.3" fill="#091426" enable-background="new    " d="M1072,1182.9L1072,1182.9c2,0.8,4,0.4,5.2-0.6c0,0,0,0,0-0.1
		c0.3-1.6,0.6-3.8-0.5-5c-0.2-0.2-0.5,0-0.5,0.2c0.1,1,0,1.9-0.2,2.8c-0.3,0.4-0.7,0.8-1.2,1.1c-0.4,0.3-0.9,0.4-1.4,0.5
		c0.1-1,0.1-2-0.3-2.9c-0.5-1.4-2.3-2.8-3.7-2.1c-0.1,0.1-0.1,0.3,0,0.3c3.1,1,2.4,3.9,1.7,6.3h0.1
		C1071.5,1183.3,1071.8,1183.1,1072,1182.9z"/>
	<path opacity="0.3" fill="#091426" enable-background="new    " d="M1053.4,1261.5c-0.6,0-1.2-0.1-1.7-0.2c0.1,0.8,0.3,1.7,0.5,2.5
		c0.1,0.2,0.2,0.4,0.3,0.6c-0.6,1.2-1.1,2.5-1.5,3.8c0.7-0.1,1.3-0.6,1.5-1.2c0.9-0.7,2.7-0.4,4-0.2c-0.4-0.9-0.7-1.8-1-2.5
		c0.1-0.2,0.2-0.3,0.3-0.5c0.3-1.1,0.5-2.2,0.7-3.3c-0.1,0-0.1,0-0.2,0C1055.1,1260.8,1054.6,1261.5,1053.4,1261.5z"/>
	<path opacity="0.3" fill="#091426" enable-background="new    " d="M1088.6,1256.9c0.1,1.6,0.3,3.2,0.6,4.7
		c0.6-0.5,1.4-0.6,2.3-0.5c0.3,0,0.6,0.1,0.9,0.1c-0.2-0.3-0.4-0.5-0.5-0.8c0.6-1.4,1.1-2.9,1.4-4.4c-0.7,0.1-1.3,0.2-1.9,0.4
		C1090.5,1256.7,1089.5,1256.8,1088.6,1256.9z"/>
	<path opacity="0.3" fill="#091426" enable-background="new    " d="M1088.2,1279.2c-0.3,0.2-0.6,0.5-0.8,0.7c0.4,2,2,2.5,5.7,3.7
		c5.7,1.8,7.1-3.4,7.1-6.2c-0.3-0.1-0.6-0.2-0.9-0.3C1096.1,1276.5,1091,1277.4,1088.2,1279.2z"/>
	<path opacity="0.3" fill="#091426" enable-background="new    " d="M1049.2,1282.4c0,0.4,0,0.7,0,1c-0.1,4.6,6.5,3.8,10,2.2
		c2-0.9,2.6-2,2.5-3.6c-1.8-0.6-3.9-0.7-5.4-0.7C1054.3,1281.3,1051.3,1281.4,1049.2,1282.4z"/>
</g>
</svg>
