<?xml version="1.0" encoding="utf-8"?>
<!-- Generator: Adobe Illustrator 21.0.2, SVG Export Plug-In . SVG Version: 6.00 Build 0)  -->
<svg version="1.1" id="Layer_1" xmlns="http://www.w3.org/2000/svg" xmlns:xlink="http://www.w3.org/1999/xlink" x="0px" y="0px"
	 viewBox="0 0 2000 2000" enable-background="new 0 0 2000 2000" xml:space="preserve">
<g>
	<path fill="#364514" d="M987.8,1185.7c0,0.5,0,1,0.1,1.5C987.9,1186.6,987.9,1186.1,987.8,1185.7z M987.8,1185c0-0.4,0-0.7-0.1-1
		C987.8,1184.3,987.8,1184.6,987.8,1185z M987.9,1187.1c0-0.5,0-1-0.1-1.5C987.8,1186.1,987.9,1186.6,987.9,1187.1z"/>
	<path fill="#364514" d="M1198.8,1374.5c-1.6-2.8-5.1-10.9-9-20.4c-1.6-4-3.3-8.2-5-12.4c-0.1-0.3-0.2-0.6-0.4-0.9
		c-0.4-0.9-0.7-1.7-1-2.6c-1.1-2.7-2.2-5.4-3.2-7.9c-0.4-1-0.8-2-1.2-3c-1.1-2.7-2.1-5.2-2.9-7.4c-1.9-4.8-3.1-7.9-3.1-7.9
		s-25.7-104.2-25.6-126s-0.1-23.1-0.3-25.9c-0.2-2.6,0.1-3-7.3-4.6c-0.6-0.1-1.3-0.3-2.1-0.4c-0.1,0-0.2,0-0.3-0.1
		c-0.6-0.1-1.2-0.2-1.8-0.3c-1-0.2-2.2-0.4-3.3-0.6c-0.7-0.1-1.3-0.2-2-0.4c-0.9-0.2-1.9-0.3-2.9-0.5c-10.6-1.9-23.1-3.9-23.1-3.9
		s-15.5-0.8-34.6-1.1c-0.7,0-1.3,0-2,0c-2.2,0-4.4,0-6.6,0c-0.7,0-1.3,0-2,0c-7.1,0-14.4,0.1-21.4,0.4c-0.3,0-0.7,0-1,0
		c-1.9,0.1-3.8,0.2-5.6,0.3c-3.5,0.2-6.9,0.5-10.1,0.8c-0.7,0.1-1.3,0.1-1.9,0.2c-2.5,0.3-4.8,0.6-7,1c-1.9,0.3-3.8,0.7-5.7,1.1
		c-0.6,0.1-1.3,0.3-2,0.4c-1.7,0.4-3.3,0.7-5,1.1c-7.5,1.7-15.2,3.8-22.6,5.9c-2.2,0.6-4.3,1.3-6.3,1.9c-0.6,0.2-1.3,0.4-1.9,0.6
		c-0.7,0.2-1.3,0.4-1.9,0.6s-1.3,0.4-1.9,0.6c-1.7,0.5-3.3,1.1-4.8,1.6c-6.1,2-11.5,4-15.5,5.6c-1.9,0.8-3.5,1.4-4.8,2
		c-0.9,0.4-1.7,0.8-2.2,1.2c-3.6,2.1-3.5,5.3-2.4,8c1.2,3,3.5,5.5,3.5,5.5l-0.6,2.3l-3.6,12.4l-1,3.5c0,0-0.1,0.2-0.2,0.6
		c-0.2,0.9-0.8,2.6-1.5,5c-1.5,5.1-3.8,12.9-6.3,20.9c-1,3.2-2.1,6.5-3.1,9.5c-0.1,0.4-0.3,0.8-0.4,1.2c0,0.1,0,0.1-0.1,0.2
		c-1.2,3.5-2.3,6.7-3.4,9.4c-0.3,0.9-0.7,1.8-1,2.6c-2.5,6.2-5.4,13.2-8.1,19.6c-1.1,2.6-2.1,5.1-3,7.4c-0.2,0.4-0.3,0.8-0.5,1.1
		c-1.6,3.9-2.9,7.3-3.7,9.8c-0.2,0.8-0.5,1.4-0.6,2v1.4c0,0,2.5,1.9,6.8,5.2c1.2,0.9,2.6,2,4,3.2c0.5,0.4,1.1,0.8,1.6,1.3
		c-0.1,0.3-0.2,0.5-0.2,0.8h0.4h0.9c1.1,0.9,2.3,1.8,3.5,2.8c1.5,1.2,3.1,2.5,4.8,3.9c0.5,0.4,0.9,0.8,1.4,1.2
		c1,0.8,1.9,1.6,2.9,2.4c0.5,0.4,1,0.8,1.4,1.2c0.7,0.6,1.4,1.2,2.2,1.8c0.7,0.5,1.3,1.1,2,1.6c1.2,1,2.3,2,3.5,3
		c0.8,0.7,1.6,1.3,2.4,2c0.9,0.8,1.9,1.6,2.8,2.5v0.2c0.2,0.1,0.3,0.1,0.5,0.2c2.2,1.9,4.4,3.9,6.7,5.9s4.6,4.1,6.8,6.2
		c0.6,0.6,1.3,1.2,1.9,1.8c1.5,1.4,2.9,2.7,4.4,4.1c0.6,0.6,1.2,1.1,1.8,1.7c2,1.9,3.9,3.8,5.8,5.7c0,0.3-0.1,0.7-0.1,1h1.1
		c0.5,0.5,1,1,1.5,1.6c4,4.2,7.6,8.6,10.7,13c0.2,0.3,0.5,0.7,0.7,1c1.2,1.7,2.3,3.5,3.4,5.2c1.3,2.1,2.5,4.2,3.6,6.2
		c0.5,0.9,0.9,1.7,1.4,2.6c0.4,0.7,0.7,1.4,1.1,2.1c2.6,5.3,4.7,10.5,6.4,15.2c0.5,1.5,1.1,3,1.5,4.5c0.8,2.4,1.4,4.7,2,6.7
		c0.6,2.2,1,4.1,1.4,5.8c0.9,3.9,1.2,6.3,1.2,6.3l0,0c0.1,0,0.4,0.2,0.9,0.4c0.1,0.3,0.2,0.6,0.2,0.9c0.8,3.5,4.8,3.5,6.8,1.5
		c0.2,0.1,0.4,0.1,0.6,0.2c9.5,2.8,26.8,6.6,50.5,6.9h7.9h1.5h1c0.7,0,1.4,0,2-0.1c1.2,0,2.4-0.1,3.6-0.1c2.1-0.1,4.1-0.2,6.1-0.3
		c0.7,0,1.3-0.1,1.9-0.1c2.8-0.2,5.4-0.4,7.9-0.6c11-1,17.8-2.5,22.1-4.1c4.2-1.5,5.9-3.1,6.7-4.3c0,0,0-0.1,0.1-0.1
		c0.2-0.4,0.4-0.7,0.5-1.1c1-2.8-0.5-5.2-0.5-5.2s1-0.2,3-0.6c3.4-0.6,9.8-1.4,18.8-1.7c2-0.1,4.1-0.1,6.4-0.1h2.1
		c1.6,0,3.1,0,4.8,0.1c1.6,0,3.1,0.1,4.6,0.1h2.1h4.1c11.6,0,18.3-0.6,22.9-1.6c1.2-0.3,2.3-0.5,3.3-0.8c1.1-0.4,1.8-0.8,2.2-1.3
		c1.5-2.1-1.9-5.5-3.7-9.7c-2.2-5.2-4-10.5-4-10.5s4.1-2.2,7.8-4.2c2.1-1.2,4.1-2.2,5-2.8
		C1206.6,1385.4,1203.5,1382.9,1198.8,1374.5L1198.8,1374.5z"/>
	<path fill="none" d="M969.3,1355.9h1.1c-0.3-0.3-0.7-0.7-1-1C969.4,1355.2,969.4,1355.5,969.3,1355.9z"/>
	<path fill="none" d="M913.5,1306.7c0.4,0,0.9,0,1.3,0.1c-0.4-0.3-0.7-0.6-1.1-0.8C913.6,1306.2,913.6,1306.5,913.5,1306.7
		L913.5,1306.7z"/>
	<g>
		<path fill="#254214" d="M1159.7,1368.1c0.6,3.1,1.2,6.2,1.8,9.2c2.4,12.2,5.3,24.6,7.6,33.9c8.5,0,15.5,0.3,22.6,0
			c-5-12.4-11.1-28.3-15.9-40.5c-0.7-1.7-1.4-3.8-2.2-5.9c-1.4,0.6-3.2,1.2-5.4,1.8C1166.5,1366.9,1163.5,1367.5,1159.7,1368.1z"/>
		<path fill="#254214" d="M1031,1209.1c6.7,0.3,12.8,0.5,17.6,0.8c-0.6-10.5-0.9-16.8-0.9-16.8l36.4,0.6c0,0-2.4,92.7-2.6,121.5
			c3,6.9,7.6,17.8,7.2,17.9c-0.2,0-2.6,0.4-6.5,0.8c0.7,7.4,1.7,15.7,2.8,24.1c11.3-0.1,25.1-1.1,25.1-5.6c0-0.2-0.1-0.4-0.1-0.6
			c-0.7-5.5-1.7-7.7-2.4-8.6c-0.9-0.1-1.3-0.2-1.3-0.3c0.1-0.1,0.6-0.4,1.3,0.3c2.9,0.4,10.4,1,21,1.3c-1-7.3-1.6-12.9-1.6-12.9
			l25.2-4.8c0,0,1.1,6.2,2.7,15.2c4.3-0.9,7.8-1.9,9.9-2.5c-3.5-10.3-6.2-18.6-6.2-18.6l10.6-2.9c0,0,0.5,2.1,1.3,5.5l5.6-3.6
			c-1.9-4.8-3.1-7.9-3.1-7.9s-25.7-104.2-25.6-126s-0.1-23.1-0.3-25.9c-0.2-2.6,0.1-3-7.3-4.6l-6.7,15.1l-13.6-3.3
			c0,0,3.6-6.5,8-14.1c-10.6-1.9-23.1-3.9-23.1-3.9s-37.2-2-67.6-0.6c-1.7,8.4-4.5,23.6-4.6,32.3
			C1032.1,1187.5,1031.7,1197.6,1031,1209.1L1031,1209.1z"/>
		<path fill="#254214" d="M931,1290.4c-3.7,0.2-8.3,0.4-13.3,0.8c-1.3,4.7-2.6,9.7-4,14.8c0.3,0.3,0.7,0.6,1.1,0.8
			c5.6,0.2,10.3,0.6,13.7,0.9C929.2,1302.2,930.1,1296.1,931,1290.4L931,1290.4z"/>
		<path fill="#254214" d="M990.8,1355.4c0.8-4.5,1.7-12.2,2.6-21.9c-6.4-0.5-11.6-1.1-14.8-1.8c-2.5-0.5-4.2-1-5.7-1.4
			c-1.1,7.4-2.3,15.6-3.6,24.6l1,1C981.7,1356,990.8,1355.4,990.8,1355.4L990.8,1355.4z"/>
		<path fill="#254214" d="M948,1220.6c2.8-3.7,9.2-6.5,17.5-8.5c2-14.6,3-26.4,0.4-30.1c-2.9-4.1-5.4-11.2-6.1-17.1
			c-6.1,2-11.5,3.9-15.5,5.6c1.1,8.5,5.5,13.4,5.3,16.9C949.4,1189.6,948.7,1205.6,948,1220.6L948,1220.6z"/>
		<path fill="#254214" d="M931.5,1211.1c-1.5,5.1-3.8,12.9-6.3,20.9l1.8-0.7C928.9,1223.8,930.4,1216.5,931.5,1211.1L931.5,1211.1z"
			/>
		<path fill="#254214" d="M920.7,1253.7c-1.1,0.4-2.3,0.8-3.6,1.2c-2.5,6.2-5.4,13.2-8.1,19.6c2.1-0.7,4.3-1.2,6.5-1.6
			C917.3,1266.3,919.1,1259.7,920.7,1253.7L920.7,1253.7z"/>
		<path fill="#254214" d="M1035.5,1336c-4.7-0.2-9.7-0.5-14.7-0.8c-0.4,7.6-0.7,15.6-1.3,23.8c12.3,0.1,26-0.4,37.1-0.8
			c-0.6-7.9-1.1-15.7-1.4-22.4C1048.3,1336.2,1041.5,1336.3,1035.5,1336L1035.5,1336z"/>
		<path fill="#254214" d="M933,1228.7l10.1-4.1c2.3-17.6,2.8-35,2.8-35s-3.8-6.1-6-13.7c-0.3-1-0.4-2.2-0.4-3.4
			c-0.9,0.4-1.7,0.8-2.2,1.2c-7.4,4.4,1.1,13.6,1.1,13.6l-4.2,14.7l5.8,0.6C939.9,1202.4,936.2,1216.4,933,1228.7L933,1228.7z"/>
		<path fill="#254214" d="M1045.5,1282.5c-5.8,0.1-12.6,0.4-19.9,0.7c-0.7,9.1-1.5,17.8-2.2,24.6c9,0.4,20.4,0.8,30.5,1.1
			c-0.4-7.8-0.8-16.9-1.2-26.3C1050.4,1282.5,1048,1282.5,1045.5,1282.5L1045.5,1282.5z"/>
		<path fill="#254214" d="M927.7,1251.3c-1.1,4.8-2.8,12-5,20.6c4.9-0.5,9.3-0.5,12.1-0.5c1.6-7.9,3.2-16.1,4.7-24.3
			C937.1,1248,933.4,1249.3,927.7,1251.3L927.7,1251.3z"/>
		<path fill="#254214" d="M901.9,1292.8c-0.2,0.8-0.4,1.4-0.6,2v1.4c0,0,2.5,1.9,6.8,5.2c0.7-2.8,1.6-6.1,2.5-9.7
			C907.7,1292.1,904.7,1292.4,901.9,1292.8z"/>
		<path fill="#254214" d="M990.7,1355.8c0-0.2,0.1-0.3,0.1-0.5C990.8,1355.4,990.6,1355.6,990.7,1355.8z"/>
		<path fill="#254214" d="M1027.3,1260.8c7.8-1,16.7-1.6,24.1-1.9c-0.5-9.4-1-18.1-1.3-24.6c-5.5-0.3-12.7-0.7-20.7-1.1
			c-0.2,3.2-0.5,6.3-0.7,9.4C1028.2,1248,1027.8,1254.3,1027.3,1260.8z"/>
		<path fill="#254214" d="M945.2,1263.3c2.8-0.7,7.5-1.3,13-1.7c1.5-11.1,2.8-20.7,3.7-26.8c-8.2,1.9-12.8,3.1-14.9,3.8
			c-0.2,3.4-0.4,6-0.5,7.6C946.3,1249.1,945.9,1255,945.2,1263.3z"/>
		<path fill="#254214" d="M998.3,1284.4c-6.3,0.2-12.6,0.2-18.6,0c-0.4,3.6-0.7,6.6-1,8.9c-0.5,3.5-1.1,7.4-1.7,11.8
			c5.8,0.5,12.3,0.9,19,1.3c0.7-6.8,1.4-13.9,2.2-21.1C998.2,1285,998.2,1284.7,998.3,1284.4L998.3,1284.4z"/>
		<path fill="#254214" d="M943.5,1282.5c-0.6,5.9-1.2,12.4-1.9,19.3c2.2,0.1,6.4,0.2,11.3,0.6c0.8-6.3,1.6-12.9,2.5-19.4
			C949.6,1282.7,945.8,1282.6,943.5,1282.5L943.5,1282.5z"/>
		<path fill="#254214" d="M1014.9,1389.2c-1.9,9-4.4,19.1-7.9,31c20.7,3.2,40.2,4.4,56.4,3.8c-1.1-12.7-2.5-22.4-3.9-33.7
			c-2.5,0.1-5.1,0.2-7.7,0.3C1032.5,1391.1,1022.1,1390,1014.9,1389.2L1014.9,1389.2z"/>
		<path fill="#254214" d="M1000.4,1262.7c0.7-11,1.1-20.4,1.6-30.5c-6.2-0.1-12.1-0.1-17.4,0.1c-0.8,9.5-1.7,20-2.5,29.8
			C987.9,1262.4,994,1262.7,1000.4,1262.7L1000.4,1262.7z"/>
		<path fill="#254214" d="M986.9,1208.3c0,0.2,0,0.4-0.1,0.6c0.8-0.1,1.7-0.1,2.5-0.2c4.1-0.3,9.1-0.4,14.6-0.3
			c2-22.2,1.6-29.8-1.7-37.2c-2.4-5.3-2.9-13-3-17.5c-7.5,1.7-15.2,3.8-22.6,5.9c3.7,8.5,10.8,21.5,10.8,21.5
			S988.8,1189.3,986.9,1208.3z"/>
		<path fill="#254214" d="M1127,1415.7c0,0,6.1-2.2,17.9-3.4c-5-14.7-8.5-29.5-11.2-40.6c-6.9,0.7-13.7,1.1-19.2,1.1
			c-0.4,5.4-1.3,9.8-4.5,10.8c-2.2,0.6-10,2.3-20.7,3.8c0.5,3.5,1,6.9,1.4,9.8c1,7.9,2.2,16.1,3.3,23c15.6-3.2,27.9-7.4,27.9-7.4
			l3.2,6.9c0,0,1-0.2,3-0.5C1125.8,1417.4,1127,1415.7,1127,1415.7L1127,1415.7z"/>
		<path fill="#254214" d="M939,1325.1c-0.1,0.5-0.1,1.1-0.2,1.6c3.3,2.8,6.6,5.7,10,8.7c0.4-2.9,0.8-6.2,1.2-9.9
			C945.8,1325.3,941.8,1325.3,939,1325.1L939,1325.1z"/>
	</g>
	<path fill="#424815" d="M1014.9,1389.2c-2.9-0.4-5.3-0.7-7.6-0.8c-3.4-0.3-9.2-0.5-14.5-0.8c6.5,13.1,9.8,25.2,11.3,32.2
		c1,0.2,2,0.3,2.9,0.5C1010.5,1408.3,1013,1398.1,1014.9,1389.2L1014.9,1389.2z"/>
	<path fill="#424815" d="M1023.4,1307.8c0.7-6.8,1.4-15.4,2.2-24.6c-8.6,0.4-18,0.9-27.3,1.1c0,0.3-0.1,0.6-0.1,1
		c-0.8,7.2-1.5,14.3-2.2,21.1c5.8,0.3,11.9,0.6,17.9,0.9C1016.5,1307.5,1019.7,1307.7,1023.4,1307.8z"/>
	<path fill="#424815" d="M993.4,1333.5c-0.9,9.7-1.8,17.5-2.6,21.9c0,0.1-0.1,0.3-0.1,0.5c0.3,0.8,3.2,2.3,19.6,3
		c2.9,0.1,6,0.2,9.1,0.2c0.7-8.3,1-16.2,1.3-23.8C1011.1,1334.7,1001.4,1334.1,993.4,1333.5L993.4,1333.5z"/>
	<path fill="#424815" d="M1024.4,1261.2c0.9-0.1,1.9-0.3,2.9-0.4c0.5-6.5,1-12.7,1.4-18.2c0.2-3.1,0.5-6.3,0.7-9.4
		c-8.7-0.4-18.3-0.8-27.3-0.9c-0.6,10.1-1,19.5-1.8,30.5C1008.1,1262.8,1016.2,1262.5,1024.4,1261.2z"/>
	<path fill="#424815" d="M1004,1208.4c8.6,0,18.2,0.3,27,0.6c0.6-10.2,1-19.3,1.1-25.7c-7.1,0.6-16.5,1.3-26.9,2.3
		C1005.3,1191,1004.9,1198.2,1004,1208.4L1004,1208.4z"/>
	<path fill="#424815" d="M1032.1,1181c0-8.7,2.9-23.9,4.6-32.3c-9.3,0.4-17.9,1.2-24.7,2.4c-4.1,0.7-8.4,1.6-12.7,2.6
		c0.1,4.5,0.6,12.2,3,17.5c1.8,4,2.8,8,2.9,14.4c10.4-0.9,19.8-1.7,26.9-2.3C1032.1,1182.5,1032.1,1181.7,1032.1,1181L1032.1,1181z"
		/>
	<path fill="#5E4D15" d="M1060.2,1234.9c0,0-3.9-0.3-10.2-0.6c0.4,6.5,0.9,15.2,1.3,24.6c9.1-0.4,15.9-0.3,15.9-0.3l9.1,28
		c0,0-8.7-3.2-23.8-3.9c0.5,9.4,0.9,18.5,1.2,26.3c13.8,0.4,25.3,0.8,25.3,0.8s1,2.3,2.4,5.4c0.3-28.8,2.6-121.5,2.6-121.5
		l-36.4-0.6c0,0,0.3,6.2,0.9,16.8c6.2,0.3,10.1,0.6,10.1,0.6L1060.2,1234.9z"/>
	<path fill="#5E4D15" d="M1089.3,1387.3c-1.3-8.9-2.9-19.2-4.3-29.4c-4.3,0.1-28.5,0.3-28.6,0.3c0.7,9.2,1.5,18.7,2.5,27.1
		c0.2,1.7,0.4,3.4,0.6,5C1080,1388.8,1089.3,1387.3,1089.3,1387.3z"/>
	<path fill="#5E4D15" d="M1093.9,1420.2c-0.1,0-15.8,3.7-30.5,3.8c0.3,3.6,0.6,7.5,0.8,11.8h7.9c9.7-0.2,17.6-0.7,24-1.2
		C1095.6,1431,1094.8,1426,1093.9,1420.2L1093.9,1420.2z"/>
	<path fill="#424815" d="M1090.7,1397.2c-0.4-3-0.8-6.3-1.4-9.8s-9.3,1.5-29.7,3c1.4,11.3,2.8,21,3.9,33.6
		c14.7-0.1,30.4-3.8,30.5-3.8C1092.9,1413.2,1091.7,1405.1,1090.7,1397.2L1090.7,1397.2z"/>
	<path fill="#424815" d="M1085,1357.9c-1.2-8.4-2.2-16.7-2.8-24.1c-6.4,0.7-16.6,1.7-27.2,2.1c0.3,6.7,0.8,14.4,1.4,22.4
		C1056.5,1358.3,1080.7,1358,1085,1357.9z"/>
	<path fill="#5E4D15" d="M1154.9,1341.9c-1.6-9.1-2.7-15.2-2.7-15.2l-25.2,4.8c0,0,0.6,5.6,1.6,12.9c1.3,0,2.7,0.1,4.1,0.1
		C1140.3,1344.6,1148.5,1343.3,1154.9,1341.9L1154.9,1341.9z"/>
	<path fill="#424815" d="M1169.1,1411.2c-2.3-9.2-5.3-21.7-7.6-33.9c-0.6-3-1.2-6.1-1.8-9.2c-6.9,1.2-16.6,2.6-26,3.5
		c2.7,11.1,6.2,25.9,11.2,40.6c2.9-0.3,6.1-0.6,9.6-0.7C1159.9,1411.3,1164.7,1411.2,1169.1,1411.2L1169.1,1411.2z"/>
	<path fill="#254214" d="M1189,1388.7l11.2-6.9c0,0,0,0-4.3-7.9c-1.8-3.3-5.5-10.9-9.2-18.7c-3,0.8-6,1.1-8.1,1.2
		c1.4,5.5,2.6,10.3,3.3,13.3C1183.7,1376.8,1186.8,1384,1189,1388.7z"/>
	<path fill="#424815" d="M979.7,1284.4c-2.9-0.1-5.8-0.2-8.5-0.4c-6.4-0.5-11.6-0.8-15.7-1c-0.8,6.5-1.7,13.1-2.5,19.4
		c4,0.3,8.5,0.8,12.8,1.4c3.3,0.5,7.1,1,11.2,1.3c0.7-4.4,1.3-8.3,1.7-11.8C979,1291,979.3,1288,979.7,1284.4z"/>
	<path fill="#424815" d="M969.4,1354.9c1.2-9,2.4-17.2,3.6-24.6c-3.9-1.2-5.3-2.2-11.3-3.6c-3.4-0.8-7.6-1.1-11.6-1.2
		c-0.5,3.7-0.9,7-1.2,9.9C955.9,1341.7,963,1348.3,969.4,1354.9L969.4,1354.9z"/>
	<path fill="#424815" d="M977,1261.5c2.6,0.2,2.3,0.4,5,0.5c1-9.8,1.5-20.3,2.5-29.8c-8.3,0.1-11.6,0.5-15.6,1.3
		c-2.4,0.5-5,0.9-7,1.3c-1,6.1-2.1,15.7-3.7,26.8C964,1261.2,970.5,1261.1,977,1261.5L977,1261.5z"/>
	<path fill="#424815" d="M965.4,1212.1c6.3-1.5,13.6-2.5,21.4-3.1c0-0.2,0-0.4,0.1-0.6c1-9.8,1.1-16.7,1-21.1
		c-6.9,0.7-13.9,1.4-20.5,2.2C967.6,1195,966.7,1203,965.4,1212.1z"/>
	<path fill="#5E4D15" d="M987.5,1181.2c0,0-7.1-13-10.8-21.5c-6,1.7-11.7,3.5-16.9,5.2c0.7,5.9,3.2,13,6.1,17.1c1,1.4,1.5,4,1.6,7.4
		c6.6-0.8,13.6-1.5,20.5-2.2C987.8,1183.1,987.5,1181.2,987.5,1181.2L987.5,1181.2z"/>
	<path fill="#5E4D15" d="M1133,1170.7l6.7-15.1c-0.7-0.1-1.5-0.3-2.4-0.5c-2.6-0.5-6.2-1.2-10.1-1.8c-4.4,7.6-8,14.1-8,14.1
		L1133,1170.7z"/>
	<path fill="#364514" d="M1025.5,1283.2c7.3-0.4,14.2-0.7,19.9-0.7c2.5,0,4.9,0,7.1,0.1c-0.4-8-0.8-16.1-1.2-23.8
		c-7.4,0.3-16.3,0.9-24.1,1.9C1026.7,1268.1,1026.1,1275.9,1025.5,1283.2L1025.5,1283.2z"/>
	<path fill="#364514" d="M981.9,1262c-0.8,8.4-1.5,16.2-2.2,22.4c6,0.2,12.2,0.1,18.6,0c0.9-8,1.5-15.1,2-21.6
		C993.9,1262.7,987.8,1262.4,981.9,1262L981.9,1262z"/>
	<path fill="#364514" d="M915.5,1272.9c-2.2,0.4-4.4,0.9-6.5,1.6c-3.1,7.4-5.8,14.1-7.1,18.3c2.9-0.4,5.8-0.7,8.7-1
		C912.1,1286.1,913.8,1279.5,915.5,1272.9L915.5,1272.9z"/>
	<path fill="#364514" d="M945.2,1263.3c-0.4,5.5-1,11.9-1.7,19.2c2.2,0,6,0.2,11.9,0.5c1-7.4,1.9-14.7,2.8-21.4
		C952.7,1262,948.1,1262.6,945.2,1263.3L945.2,1263.3z"/>
	<path fill="#364514" d="M932.5,1282.3c0.7-3.6,1.5-7.2,2.2-10.9c-2.8,0-7.1,0-12.1,0.5c-1.5,5.8-3.2,12.3-5,19.3
		c5-0.4,9.7-0.6,13.3-0.8C931.5,1287.6,932,1284.9,932.5,1282.3z"/>
	<path fill="#5E4D15" d="M1024.4,1261.2c-8.2,1.3-16.3,1.7-24.1,1.6c-0.5,6.5-1.1,13.6-2,21.6c9.3-0.2,18.6-0.7,27.3-1.1
		c0.6-7.4,1.2-15.1,1.7-22.5C1026.3,1260.9,1025.3,1261,1024.4,1261.2z"/>
	<path fill="#364514" d="M1076.4,1286.5l-9.1-28c0,0-6.9,0-15.9,0.3c0.4,7.6,0.8,15.8,1.2,23.8
		C1067.7,1283.3,1076.4,1286.5,1076.4,1286.5L1076.4,1286.5z"/>
	<path fill="#5E4D15" d="M974.8,1261.4c-5.8-0.3-11.6-0.2-16.7,0.2c-0.8,6.8-1.7,14.1-2.6,21.4c4.1,0.2,9.3,0.5,15.7,0.9
		c2.7,0.2,5.6,0.3,8.5,0.3c0.6-6.2,1.3-14.1,2-22.4C979.4,1261.7,977.1,1261.6,974.8,1261.4z"/>
	<path fill="#364514" d="M1081.5,1320.5c0,3.8,0.3,8.4,0.7,13.3c3.9-0.4,6.4-0.7,6.5-0.8c0.4-0.1-4.2-11-7.2-17.9V1320.5z"/>
	<path fill="#364514" d="M941.6,1301.8c-0.8,7.3-1.6,15.1-2.6,23.3c2.8,0.3,6.8,0.3,11,0.4c0.8-6.7,1.8-14.7,2.9-23.1
		C948.1,1302,943.9,1301.9,941.6,1301.8L941.6,1301.8z"/>
	<path fill="#364514" d="M1022.3,1316.5c-0.8,5.9-1.2,12.2-1.6,18.7c5,0.3,10,0.5,14.7,0.8c6,0.3,12.8,0.2,19.6-0.1
		c-0.2-3-0.3-5.8-0.4-8.2c-0.2-3.8-0.4-10.5-0.8-18.8c-10.1-0.3-21.5-0.7-30.5-1.1C1023,1311.2,1022.7,1314.2,1022.3,1316.5
		L1022.3,1316.5z"/>
	<path fill="#5E4D15" d="M1053.8,1308.9c0.4,8.2,0.7,15,0.8,18.8c0.1,2.5,0.2,5.3,0.4,8.2c10.5-0.5,20.8-1.4,27.2-2.1
		c-0.4-4.9-0.7-9.4-0.7-13.3c0-1.4,0-3.2,0-5.4c-1.4-3.1-2.4-5.4-2.4-5.4S1067.7,1309.3,1053.8,1308.9L1053.8,1308.9z"/>
	<path fill="#5E4D15" d="M1023.4,1307.8c-0.3,3.4-0.7,6.4-1,8.7c-0.8,5.9-1.2,12.2-1.6,18.7c-9.6-0.5-19.4-1.1-27.3-1.8
		c-6.4-0.5-11.6-1.1-14.8-1.8c-2.5-0.5-4.2-1-5.7-1.4c-3.9-1.2-5.3-2.2-11.3-3.6c-3.4-0.8-7.6-1.1-11.6-1.2
		c0.8-6.7,1.8-14.7,2.9-23.1c4,0.3,8.5,0.8,12.8,1.4c3.3,0.5,7.1,1,11.2,1.3c5.8,0.5,12.3,0.9,19,1.3c5.8,0.3,11.9,0.6,17.9,0.9
		C1016.5,1307.5,1019.7,1307.6,1023.4,1307.8L1023.4,1307.8z"/>
	<path fill="#364514" d="M1019.4,1359.1c-0.1,1.5-0.2,3.1-0.4,4.6c-0.8,7.7-2.1,15.9-4.1,25.5c7.2,0.9,17.6,2,37,1.5
		c2.6-0.1,5.1-0.2,7.7-0.3c-0.2-1.6-0.4-3.3-0.6-5c-1-8.4-1.8-17.8-2.5-27.1C1045.4,1358.7,1031.8,1359.2,1019.4,1359.1z"/>
	<path fill="#5E4D15" d="M1019.4,1359.1c-0.1,1.5-0.2,3-0.4,4.6c-0.8,7.7-2.1,15.9-4.1,25.5c-2.9-0.3-5.3-0.7-7.6-0.8
		c-3.4-0.2-9.2-0.5-14.5-0.8c-1.8-3.6-3.8-7.2-6-10.9c-4-6.6-8.9-13.1-14.8-19.2c-0.5-0.5-1-1-1.5-1.6c11.3,0.1,20.4-0.5,20.4-0.5
		s-0.2,0.2-0.1,0.5c0.3,0.8,3.2,2.2,19.6,3C1013.2,1359,1016.3,1359,1019.4,1359.1L1019.4,1359.1z"/>
	<path fill="#364514" d="M1093.9,1420.2c0.9,5.8,1.7,10.8,2.2,14.3c22-2.1,27.4-6,28.8-8.5c1.9-3.2,0-6.2,0-6.2l-3.2-6.9
		C1121.8,1412.8,1109.6,1417,1093.9,1420.2L1093.9,1420.2z"/>
	<path fill="#424815" d="M1007.1,1420.2c-0.5,1.9-1.1,3.8-1.7,5.8c0.9,0.4,22.2,9.3,58.9,9.8c-0.2-4.2-0.5-8.1-0.8-11.8
		C1047.3,1424.6,1027.7,1423.4,1007.1,1420.2L1007.1,1420.2z"/>
	<path fill="#5E4D15" d="M1004.1,1419.7c0.9,3.9,1.2,6.3,1.2,6.3l0,0c0.6-2,1.2-3.9,1.7-5.8
		C1006.1,1420,1005.1,1419.9,1004.1,1419.7z"/>
	<path fill="#364514" d="M1168.2,1366.5c2.3-0.6,4.1-1.2,5.4-1.8c-2.7-7.5-6-17-8.8-25.3c-2.1,0.6-5.6,1.6-9.9,2.5
		c1.3,7.4,3.1,16.8,4.8,26.2C1163.5,1367.5,1166.5,1366.9,1168.2,1366.5L1168.2,1366.5z"/>
	<path fill="#364514" d="M1106.3,1342.8c-0.1,0.1,0.4,0.2,1.3,0.3C1107,1342.4,1106.4,1342.7,1106.3,1342.8z"/>
	<path fill="#364514" d="M1110,1351.7c0,0.2,0.1,0.4,0.1,0.6C1110.1,1352.1,1110.1,1351.9,1110,1351.7z"/>
	<path fill="#5E4D15" d="M1154.9,1341.9c-6.4,1.4-14.6,2.7-22.2,2.6c-1.4,0-2.7,0-4.1-0.1c1.1,7.6,2.6,17.1,4.4,24.3
		c0.2,1,0.5,2,0.7,3c9.4-0.9,19.1-2.3,26-3.5C1158,1358.7,1156.2,1349.3,1154.9,1341.9z"/>
	<path fill="#364514" d="M1176.5,1333.7l-3.1,1.7c1.6,6.7,3.5,14.4,5.1,21c2.2-0.1,5.1-0.4,8.1-1.2
		C1181.5,1344.5,1176.5,1333.7,1176.5,1333.7z"/>
	<path fill="none" d="M1186.6,1355.2c-5.1-10.7-10.1-21.5-10.1-21.5l-3.1,1.7c1.6,6.7,3.5,14.4,5.1,21c1.4,5.5,2.6,10.3,3.3,13.3
		c1.8,7.1,4.9,14.3,7.1,19l11.2-6.9c0,0,0,0-4.3-7.9C1194,1370.5,1190.3,1362.9,1186.6,1355.2z"/>
	<path fill="#5E4D15" d="M1198.8,1374.5c-1.6-2.8-5.1-10.9-9-20.4c-3.2-7.7-6.7-16.4-9.6-23.8c-1.5-3.9-3-7.5-4.1-10.4l-5.6,3.6
		c-0.8-3.4-1.3-5.5-1.3-5.5l-10.6,2.9c0,0,2.7,8.3,6.2,18.6c2.8,8.3,6.1,17.8,8.8,25.3c0.8,2.2,1.5,4.2,2.2,5.9
		c4.7,12.2,10.9,28.1,15.9,40.5c-7.1,0.3-14.1,0.1-22.6,0c-4.4,0-9.2,0-14.6,0.3c-3.5,0.2-6.7,0.4-9.6,0.7
		c-11.8,1.3-17.9,3.4-17.9,3.4s-1.2,1.8,1,3.5c3.4-0.6,9.8-1.4,18.8-1.7c3.9-0.1,8.3-0.2,13.2,0c4,0.1,7.6,0.2,10.8,0.2
		c11.6,0,18.3-0.6,22.9-1.6c1.2-0.3,2.3-0.5,3.3-0.9c1.1-0.4,1.8-0.8,2.2-1.3c1.5-2.1-1.9-5.5-3.7-9.7c-2.2-5.2-4-10.5-4-10.5
		s10.4-5.6,12.8-7S1203.5,1382.9,1198.8,1374.5L1198.8,1374.5z M1189,1388.7c-2.2-4.7-5.3-11.9-7.1-19c-0.8-3-2-7.8-3.3-13.3
		c-1.6-6.6-3.5-14.3-5.1-21l3.1-1.7c0,0,5,10.8,10.1,21.5c3.7,7.7,7.4,15.3,9.2,18.7c4.3,7.9,4.3,7.9,4.3,7.9L1189,1388.7z"/>
	<path fill="#364514" d="M1050.1,1234.3c0-0.5-0.1-1-0.1-1.4c-0.5-8.9-1-16.7-1.4-23c-4.8-0.2-11-0.5-17.6-0.8
		c-0.4,7.7-1,15.9-1.6,24.1C1037.4,1233.5,1044.6,1233.9,1050.1,1234.3L1050.1,1234.3z"/>
	<path fill="#364514" d="M1002.1,1232.2c0.4-6,0.8-12.3,1.5-19.3c0.2-1.6,0.3-3.1,0.4-4.5c-5.5,0-10.5,0.1-14.6,0.3
		c-0.9,0.1-1.7,0.1-2.5,0.2c-0.6,5.7-1.3,14-2.2,23.2C989.9,1232.1,995.9,1232.1,1002.1,1232.2L1002.1,1232.2z"/>
	<path fill="#5E4D15" d="M1002.1,1232.2c9.1,0.2,18.6,0.5,27.3,0.9c0.6-8.2,1.2-16.5,1.6-24.1c-8.8-0.3-18.4-0.6-27-0.6
		c-0.1,1.4-0.3,3-0.4,4.5C1002.9,1219.9,1002.4,1226.2,1002.1,1232.2L1002.1,1232.2z"/>
	<path fill="#5E4D15" d="M1050.1,1234.3c6.2,0.4,10.2,0.6,10.2,0.6l-1.5-24.5c0,0-4-0.2-10.1-0.6c0.3,6.3,0.8,14.1,1.4,23
		C1050,1233.3,1050,1233.8,1050.1,1234.3z"/>
	<path fill="#5E4D15" d="M986.8,1209c-0.6,5.7-1.3,14-2.2,23.2c-7.3,0.1-13.4,0.5-16.9,1.3c-2.1,0.5-4,0.9-5.8,1.3
		c-8.2,1.9-12.8,3.1-14.9,3.8c-0.2,3.4-0.3,6-0.5,7.6c-0.2,2.9-0.7,8.9-1.4,17.1c-0.4,5.4-1,11.9-1.7,19.2
		c-0.5,5.9-1.2,12.4-1.9,19.3c-0.8,7.3-1.6,15.1-2.6,23.3c-0.1,0.5-0.1,1.1-0.2,1.6c-0.8-0.7-1.6-1.4-2.4-2
		c-3.1-2.7-6.2-5.2-9.1-7.6c-4.6-3.8-8.9-7.3-12.6-10.2c5.6,0.2,10.3,0.6,13.8,0.8c0.7-5.5,1.6-11.6,2.5-17.2c0.5-2.8,1-5.5,1.5-8.1
		c0.7-3.6,1.5-7.2,2.2-10.9c1.6-7.9,3.2-16.1,4.7-24.3c-2.4,0.9-6.1,2.2-11.8,4.2c-1.1,4.8-2.8,12-5,20.6c-1.5,5.8-3.2,12.3-5,19.3
		c-1.3,4.7-2.6,9.7-4,14.8c-2.1-1.7-4-3.2-5.7-4.4c0.7-2.8,1.6-6.1,2.5-9.7c1.5-5.7,3.2-12.3,5-18.9c1.7-6.6,3.5-13.2,5.1-19.2
		c-1.1,0.4-2.3,0.8-3.6,1.2c0.4-0.9,0.7-1.8,1-2.6c2.1-5.4,4.6-12.9,7-20.3l1.8-0.7c2-7.3,3.5-14.6,4.5-20.1c1-3.5,1.6-5.7,1.6-5.7
		l1-3.5l5.8,0.6c0,0-3.7,14-6.9,26.3l10.1-4.1c2.3-17.6,2.8-35,2.8-35s-3.8-6.1-6-13.7c-0.3-1-0.4-2.2-0.4-3.4
		c1.3-0.6,2.9-1.3,4.8-2c1.1,8.5,5.5,13.4,5.3,16.9c-0.2,2.3-0.8,18.3-1.5,33.3c2.8-3.7,9.2-6.5,17.5-8.5
		C971.7,1210.6,979.1,1209.6,986.8,1209L986.8,1209z"/>
	<path fill="#364514" d="M1118.3,1372.7c4.7-0.1,10-0.5,15.4-1c-0.3-1-0.5-2-0.7-3c-1.8-7.2-3.3-16.7-4.4-24.3
		c-6.6-0.2-12-0.5-15.8-0.8c0,0.3,0.1,0.6,0.1,0.9C1113.8,1352.2,1116.4,1364.5,1118.3,1372.7L1118.3,1372.7z"/>
	<path fill="#364514" d="M1085,1357.9c1.4,10.2,3,20.6,4.3,29.4c7.9-1.1,14.2-2.3,17.9-3.1c-0.6-6.4-1.8-17.9-3.2-27.9
		C1098.9,1357.5,1091.6,1357.9,1085,1357.9L1085,1357.9z"/>
	<path fill="#5E4D15" d="M1114.5,1372.7h3.8c-1.9-8.2-4.6-20.5-5.4-28.2c0-0.3-0.1-0.6-0.1-0.9c-2.3-0.2-4.1-0.4-5.2-0.5
		c0.8,0.8,1.7,3,2.4,8.6c0.1,0.2,0.1,0.4,0.1,0.6c0,1.9-2.5,3.2-6.2,4c1.4,10,2.6,21.5,3.2,27.9c1.3-0.3,2.3-0.5,2.9-0.7
		C1113.3,1382.6,1114.2,1378.1,1114.5,1372.7L1114.5,1372.7z"/>
	<path fill="#1F4130" d="M1066.9,1345.7c-3.8-31-8.1-133.8-7.1-155.4c0.7-13.9,1.1-31.3,1.3-42.1c-0.7,0-1.3,0-2,0
		c-0.2,10.8-0.6,28.1-1.3,42c-1,21.6,3.3,124.6,7.1,155.7c1.2,9.7,1.9,19.4,2.6,29.7c1.4,18.8,2.8,38.2,7.2,60.1c0.7,0,1.4,0,2-0.1
		c-4.5-21.9-5.9-41.3-7.3-60.2C1068.8,1365.2,1068,1355.4,1066.9,1345.7L1066.9,1345.7z"/>
	<path fill="#1F4130" d="M1069.6,1148.3c-0.7,0-1.3,0-2,0c-1,21.4-3.1,77.4-1.4,125.5c1.6,47,11.9,122.6,20.1,161.5
		c0.7,0,1.3-0.1,1.9-0.1c-8.1-38.4-18.4-114.4-20.1-161.5C1066.6,1225.5,1068.7,1169.6,1069.6,1148.3z"/>
	<path fill="#1F4130" d="M1125.5,1168.5l6.7-14.4c-0.7-0.1-1.3-0.2-2-0.4l-6.7,14.3v0.2c0.1,1.2,5.6,125.2,9.4,149.5
		c3,19.3,9.6,61.8,20.3,99.7h2.1c-10.7-37.9-17.4-80.6-20.4-100C1131.1,1293.8,1125.7,1174.7,1125.5,1168.5L1125.5,1168.5z"/>
	<path fill="#1F4130" d="M1129.9,1168.5l7.8-13.4c-0.1,0-0.2,0-0.3-0.1c-0.6-0.1-1.2-0.2-1.8-0.3l-7.7,13.3v0.3
		c0.1,1.6,15,165.5,26.6,210.5c4.4,17.1,7.7,29.7,10.2,38.8h2.1c-2.4-9.1-5.8-21.9-10.3-39.3
		C1145.1,1334.5,1130.6,1176.6,1129.9,1168.5L1129.9,1168.5z"/>
	<path fill="#1F4130" d="M1022.1,1185.3c-0.1-12.2-0.5-23.9-1-32.9c-0.1-0.9-0.1-1.8-0.2-2.6c-0.7,0.1-1.3,0.1-1.9,0.2
		c1.6,24.1,2.2,80.2-1.8,108.1c-4.2,29.2-11.6,87.6-18,144.6c0.5,1.5,1.1,3,1.5,4.5c6.5-58.3,14.2-118.9,18.5-148.8
		C1022.4,1236.4,1022.3,1199.9,1022.1,1185.3L1022.1,1185.3z"/>
	<path fill="#1F4130" d="M1011,1253.9c6.2-58.7,2.5-73.9,2.3-74.5l-7.1-27.2c-0.6,0.1-1.3,0.3-2,0.4l7.1,27.3
		c0,0.2,3.8,15.7-2.4,73.8c-0.6,5.3-1.1,10.5-1.6,15.8c-4.4,42.9-8.7,83.9-17,113.4c0.5,0.9,0.9,1.7,1.4,2.6
		c8.8-29.8,13.1-71.8,17.7-115.8C1010,1264.5,1010.5,1259.2,1011,1253.9L1011,1253.9z"/>
	<path fill="#1F4130" d="M976.3,1185.2l-6-23.7c-0.6,0.2-1.3,0.4-1.9,0.6l5.9,23.4c2.3,26.5-2.6,88.9-12.4,162
		c0.6,0.6,1.2,1.1,1.8,1.7C973.8,1274.4,978.7,1212.4,976.3,1185.2L976.3,1185.2z"/>
	<path fill="#1F4130" d="M969.2,1247.6c4.3-35.5,2.4-69.5,2.3-69.8l-5.1-15.1c-0.6,0.2-1.3,0.4-1.9,0.6l5,14.7
		c0.1,2.4,1.8,35.2-2.3,69.3c-1.2,10.1-2.7,20.8-4.3,32.2c-3,21.9-6.1,44.5-7.3,62.1c0.6,0.6,1.3,1.2,1.9,1.8
		c1.1-17.7,4.3-41,7.4-63.6C966.5,1268.4,968,1257.7,969.2,1247.6L969.2,1247.6z"/>
	<path fill="#1F4130" d="M938.9,1279.6c1-9.1,1.9-18.2,2.5-27.3l1-13.7c0.4-4.6,0.6-9.1,0.2-13.7c-1.2,4.5-1.6,9-2,13.6l-1.2,13.6
		c-0.7,9.1-1.7,18.2-2.8,27.2c-1.1,9.1-2.3,18.1-3.7,27.1c-0.6,4.5-1.3,9-2,13.5c0.7,0.5,1.3,1.1,2,1.6c0.8-4.9,1.6-9.9,2.4-14.8
		C936.6,1297.8,937.9,1288.7,938.9,1279.6L938.9,1279.6z"/>
	<path fill="#1F4130" d="M920.4,1275.6l4.1-20.2l2-10.1l1-5c0.3-1.7,0.5-3.4,0.3-5.2c-0.9,1.6-1.4,3.2-1.8,4.9l-1.1,5l-2.2,10.1
		l-4.4,20.1l-4.3,20.1c-0.6,3.1-1.3,6.2-1.9,9.3c0.5,0.4,1.1,0.8,1.6,1.3c-0.1,0.3-0.2,0.5-0.2,0.8h0.4c0.8-3.7,1.6-7.3,2.4-11
		L920.4,1275.6z"/>
	<path fill="#C4562A" d="M948.3,1230.4l0.2,0.1l0.1-0.2c0.1-0.1,1.6-0.9,14.6-2.9c9.2-1.4,18.8-2.6,27.2-3.6
		c5.4-0.7,10.4-1.3,14.9-1.9c11.5-1.6,53.5-1.6,54-1.6v-1c-0.4,0-42.5,0-54.1,1.6c-4.5,0.6-9.5,1.2-14.9,1.9
		c-8.5,1-18.1,2.2-27.2,3.6c-9.6,1.4-14.7,2.5-15.2,3.3l0.4,0.3L948.3,1230.4z"/>
	<path fill="#C4562A" d="M969.3,1272.8c4.5,0.8,8.6,1.6,15.8,1.6c2.7,0,5.9-0.1,9.7-0.4c11.5-0.8,15-1.1,20.9-1.7
		c2.3-0.2,5-0.5,8.6-0.8c12.8-1.2,37-1.6,37.3-1.6v-1c-0.2,0-24.5,0.4-37.3,1.6c-3.7,0.3-6.3,0.6-8.6,0.8c-5.9,0.6-9.4,0.9-20.9,1.7
		c-13.7,0.9-19.1-0.1-25.3-1.2c-1-0.2-2-0.4-3.1-0.5c-7.7-1.3-21.7-1.9-21.8-1.9v1c0.1,0,14.1,0.6,21.7,1.8
		C967.4,1272.4,968.4,1272.6,969.3,1272.8L969.3,1272.8z"/>
	<path fill="#C4562A" d="M995.4,1321.1c-18.8-1.5-22.4-3.9-25-5.7c-0.5-0.3-0.9-0.6-1.4-0.9c-2.4-1.3-4.9-1.1-10.5-0.7
		c-2.3,0.2-5.1,0.4-8.6,0.6c-11.4,0.5-14.3-2.4-14.4-2.4l-0.7,0.7c0.1,0.1,3.1,3.3,15.1,2.8c3.5-0.2,6.4-0.4,8.6-0.6
		c5.4-0.4,7.9-0.6,10,0.6c0.5,0.3,0.9,0.5,1.3,0.9c2.7,1.9,6.4,4.4,25.5,5.9c7.2,0.6,17.2,0.8,27.6,0.8c21.9,0,46.1-1.1,52.2-2.8
		l-0.3-1C1065.9,1321.7,1017.7,1322.9,995.4,1321.1L995.4,1321.1z"/>
	<path fill="#C4562A" d="M1043.4,1373.9h3.2h14.6c17.4,0,29.9,0,37.9-2c10-2.4,13.8-6,14-6.1l-0.7-0.7c0,0-3.8,3.5-13.5,5.9
		c-7.9,1.9-20.3,1.9-37.6,1.9c-4.5,0-9.4,0-14.6,0c-17.5,0.1-35.3-0.9-51-1.7c-4.6-0.3-8.9-0.5-13-0.7c0.2,0.3,0.5,0.7,0.7,1
		c3.8,0.2,7.9,0.4,12.2,0.6C1010.4,1373,1027,1373.9,1043.4,1373.9L1043.4,1373.9z"/>
	<path fill="#C4562A" d="M1154,1356.5c-5.2-0.3-10.5-0.6-15.6-0.4c-8.7,0.4-16.4,1.5-23,3.3c-0.3,0.1-0.4,0.1-0.5,0.1l0.1,0.5v0.5
		c0.1,0,0.2,0,0.7-0.2c6.6-1.7,14.2-2.8,22.8-3.2c5.1-0.2,10.4,0.1,15.5,0.4c10.2,0.6,18.9,1.1,21.4-3l-0.9-0.5
		C1172.3,1357.5,1163.4,1357,1154,1356.5L1154,1356.5z"/>
	<path fill="#C4562A" d="M1175.1,1345.6l9.7-3.8c-0.1-0.3-0.2-0.6-0.4-0.9l-9.7,3.8L1175.1,1345.6z"/>
	<path fill="#C4562A" d="M1074.7,1435.7c0.7,0,1.4,0,2-0.1c1.2,0,2.4-0.1,3.6-0.1c19.2-3.6,38-7.9,44.6-9.4c0,0,0-0.1,0.1-0.1
		c0.2-0.4,0.4-0.7,0.5-1.1c-6.5,1.5-29.7,6.8-51.8,10.8L1074.7,1435.7z"/>
	<path fill="#C4562A" d="M930.2,1314.3l-7.2-0.8c0.5,0.4,0.9,0.8,1.4,1.2l5.6,0.6L930.2,1314.3z"/>
	<path fill="#C4562A" d="M938.6,1278.1l0.1-1c-4.7-0.6-12.9-0.3-21.6,2c-4.6,1.2-8.5,2.2-11.1,2.8c-0.2,0.4-0.3,0.8-0.5,1.1
		c2.6-0.6,6.8-1.6,11.8-3C925.9,1277.8,933.9,1277.6,938.6,1278.1z"/>
	<path fill="#C4562A" d="M945.5,1237.4v-1c-9.4,0-13.7,1.6-22.3,4.7c-0.4,0.1-0.8,0.3-1.2,0.5c-0.1,0.4-0.3,0.8-0.4,1.2
		c0.7-0.2,1.4-0.5,2-0.7C932.1,1238.9,936.3,1237.4,945.5,1237.4z"/>
	<path opacity="0.3" fill="#091426" enable-background="new    " d="M980.2,1175.8c19-3.5,38.1-6.9,57.5-7.4
		c4.7-0.1,5.1-6.9,1.1-7.8c-1-3.7-0.6-8-1.1-11.9c-0.3,0-0.7,0-1,0c-1.9,0.1-3.8,0.2-5.6,0.3c0,1.4,0.1,2.7,0.2,4
		c0.1,2.3,0.2,5.2,0.6,7.7c-18.1,1-35.9,4.2-53.7,7.5c-9.6,1.8-18.9,4.2-28,7.5c-5,1.8-10.3,3.7-15.3,6c1.2,3,3.5,5.5,3.5,5.5
		l-0.6,2.3c5.4-2.2,10.8-4.8,16.2-6.7C962.5,1179.7,971.3,1177.5,980.2,1175.8L980.2,1175.8z"/>
	<path opacity="0.3" fill="#091426" enable-background="new    " d="M1182,1364.9c-1.3-2.6-2.4-5.2-3.5-7.9
		c-0.5-2.1-0.9-4.2-1.3-6.3c-0.6-3.1-1.2-6.1-1.6-9.2c2.7-0.7,5.3-2.1,7.8-3.3c-1.1-2.7-2.2-5.4-3.2-7.9c-0.4-1-0.8-2-1.2-3
		c-1.4,0.2-2.9,0.6-4.4,0.9c0-0.3-0.1-0.6-0.1-1c-0.1-1.2-1.7-1.8-2.4-0.6c-0.4,0.7-0.7,1.3-1,2.1c-0.8,0-1.5,0-2.3,0
		c-2.4-0.2-3.9,2-3.9,4.1c-6.1,3.4-12.7,6-19.4,8.1c-1.9,0.4-3.7,0.9-5.5,1.6c-0.1,0.1-0.3,0.1-0.4,0.2c-4.9,1.3-10.4,3.1-15.5,3.7
		c-0.1-0.1-0.1-0.1-0.2-0.2c-2-1.7-4-1.6-6.6-1.9c-1.2-0.1-2.3-0.2-3.5-0.3c-0.4-2.6-0.9-4.8-3.2-6.5c-0.4-0.3-1.1-0.2-1.4,0.2
		c-0.7,0.8-1.1,1.6-1.4,2.4c-0.4-0.6-0.8-1.1-1.2-1.6c-1.3-1.4-3.7-0.7-4.2,1.1c-0.3,1.1-0.4,2.2-0.5,3.4c-0.1,0-0.3,0-0.4,0
		c-0.7-0.5-1.5-1-2.3-1.3c-0.5-0.2-1-0.4-1.5-0.6c-1.9-1.2-3.6-2.4-4-2.6c-3.4-2.1-6.6-4.3-8.9-7.6c-4.4-6.2-8.1-13.1-11.7-19.8
		c-3.8-7-7-14.2-9.4-21.8c-0.4-1.3-0.8-2.7-1.1-4.1c-0.2-5.8-0.4-11.6-1.2-17.4c-0.6-4.6-1-11.6-4.6-15.1c0.1-1.1,0.2-2.3,0.5-3.4
		c0.1-0.5,0.1-0.9,0-1.4c0-1.6-0.3-3-0.5-4.5c0-0.8,0.1-1.6,0.3-2.4c0.2-0.7,0.4-1.4,0.5-2c0.6-0.6,1-1.5,1.1-2.5c0-0.5,0-0.9,0-1.4
		c-0.2-4-5.2-5.4-7.4-2c-1.3,2-2.7,4.2-2.9,6.6c-0.5,0.5-1,1-1.4,1.5c-0.5,0.6-1.2,1.6-1.9,1.9c-0.4,0.2-0.8,0.3-1.2,0.4
		c-2.5-2.2-5.1-4.4-7.8-6.2c3.5-1,6-3.2,5.2-7.6c-0.3-1.4-1.5-2.3-2.7-2.7c-0.2-0.1-0.3-0.1-0.5-0.2c-1.3-0.4-2.9,0.1-3.8,1
		c-0.4,0.4-0.8,1-1.3,1.5c-4.4-3.8-12-6.2-16.7-2.6c-1.7,1.3-2.5,3.4-2.4,5.4c-5.4-2.7-11.1-5.1-16.7-7.3c-0.2-0.1-0.5-0.2-0.7-0.3
		c2.5-0.4,3.1-3.9,1.6-5.8c-2.7-3.2-8.1-4.3-12-4.6c-1.7-0.1-3.4,0.1-5.1,0c-0.7,0-1.3-0.1-1.8-0.1c-1.1-0.8-2.3-1.5-3.5-2.2
		c-3-1.7-7.2-2.7-9.8-4.9c4.4-0.7,8.8-1.4,13.1-2.2c16.7-2.9,33.5-5.6,50.5-7c0.6,6.6,2.9,13.9,8.7,15.9c4.5,1.6,10.1,0.7,14.8,0.4
		c6.2-0.3,12.4-0.9,18.6-1.7c2.7-0.4,4-2.9,3.7-5c0.5-0.2,0.9-0.4,1.3-0.7c1.6,0,3.2,0.1,4.8,0c4.3-0.1,4.6-5.6,1-7
		c-7.1-2.9-17.2-1.4-24.8-1.5c-3.7,0-9.1,0.9-12.6-0.1c-0.8-0.2-1.4-0.6-1.9-1.2c4.2-1.1,3.9-8-0.9-7.8c-1.9,0.1-3.8,0.2-5.7,0.3
		c-1.1-3.6-6-2.8-6.7,0.5c-17.6,1.5-35.1,4.3-52.6,7.3c-8.5,1.5-17,2.8-25.5,4.4c-1.5-1.4-4.5-1-5.5,1.1c-4.3,0.9-8.5,2.3-12.7,3.4
		c-0.2,0.9-0.8,2.6-1.5,5c-1.5,5.1-3.8,12.9-6.3,20.9c-1,3.2-2.1,6.5-3.1,9.5c-0.1,0.4-0.3,0.8-0.4,1.2c0,0.1,0,0.1-0.1,0.2
		c-1.2,3.5-2.3,6.7-3.4,9.4c-0.3,0.9-0.7,1.8-1,2.6c-2.5,6.2-5.4,13.2-8.1,19.6c-1.1,2.6-2.1,5.1-3,7.4c-0.2,0.4-0.3,0.8-0.5,1.1
		c-1.6,3.9-2.9,7.3-3.7,9.8c-0.2,0.8-0.5,1.4-0.6,2v1.4c0,0,2.5,1.9,6.8,5.2c1.2,0.9,2.6,2,4,3.2c0.5,0.4,1.1,0.8,1.6,1.3
		c-0.1,0.3-0.2,0.5-0.2,0.8h0.4h0.9c1.1,0.9,2.3,1.8,3.5,2.8c0.8-2.6,1.3-5.2,1.9-7.9c0.8-3.9,2.2-7.5,3.7-11.2
		c3.7-9.2,5.5-19.2,7.5-28.8c1.9-9,3.6-18,4.7-27.2c0.5-4.6,0.5-9.4,1.3-14c0.4-2.8,1.5-5.6,2.1-8.4c2.2-0.6,4.5-1.1,6.7-1.6
		c0.1,0.5,0.1,1,0.2,1.6c0.1,0.9,0.3,1.8,0.6,2.7c0.2,0.5,0.3,1,0.6,1.4c-0.1,0.7,0.2,1.3,0.8,1.6c-0.1,0-0.1,0-0.2,0.1
		c0,0,0,0-0.1,0.1s-0.2,0.4-0.1,0.5c0,0,0,0.1,0.1,0.1c0.2,0.3,0.6,0.3,0.9,0.1c1.3-1.1,2.2-4.3,2.6-5.9c0.2-1.1,0.4-2.3,0.4-3.4
		c0.1,0,0.2,0,0.3-0.1c-0.1,0.1-0.1,0.3-0.2,0.4c-0.2,1,0.3,2.1,1.4,2.4c0.8,0.2,1.9,0.4,2.8,0.1c-0.4,6.6,5,9.7,10.4,12.7
		c3.1,1.7,9.2,5.8,14.2,6.8c-1,6.5-2,13.4-1.4,19.9c0.1,0.6,0.8,0.7,1,0.1c2-5.7,2.9-12,4-18c2.9,2.2,6.3,3.9,9.2,5.1
		c3.6,1.5,7.4,2.5,11.2,3.3c2.6,0.5,6.2,1.8,9.1,1.3c0,2.9,1.5,6.5,3.5,7.8c3.9,2.7,11.4,2,15.9,2.4c3,0.3,6.9,1.3,10.5,1.2
		c-0.1,0.3-0.1,0.6-0.2,0.9c-0.5,3.4,0.9,6.6,1.3,9.9c0.5,3.8,0.1,7.7-0.4,11.4c-0.9,7-2.4,14-1.8,21.1c0.7,7.4,4,14,6.2,21
		c1.9,6.4,2.3,13.2,4.8,19.5c2.5,6.2,7.2,11,12.2,15.4c11.4,9.9,25.7,10.9,40.1,12.4c0.9,7.1,1.5,14.2,2.2,21.3
		c0.7,7.9,1.5,15.7,2.8,23.5c0.8,5.2,1.4,11.7,3.9,16.7c-16.7,1.2-33.4,2.7-50.3,2.3c-11.1-0.2-22.1-1.1-33.1-2.7
		c-4.7-0.7-9.3-1.4-13.6-3.6c-1.7-0.9-3.3-1.9-4.8-3.1c-2.5-9.7-5.5-19.3-10-28.2c-4.8-9.5-11.2-18.5-18.1-26.6
		c-5.4-6.4-11.1-12.5-17.4-18.1c1.2-5.1,2-10.4,2.9-15.6c1-5.8,3.4-13.6,1.9-19.4c-0.1-0.4-0.6-0.4-0.8-0.1
		c-3.1,5.5-2.9,13.5-4.5,19.6c-1,4-2.3,8-3.6,12c0,0,0,0-0.1-0.1c-6.2-5.1-13.6-11.5-21.2-14.7c2.2,1.9,4.4,3.9,6.7,5.9
		s4.6,4.1,6.8,6.2c0.6,0.6,1.3,1.2,1.9,1.8c1.5,1.4,2.9,2.7,4.4,4.1c0.6,0.6,1.2,1.1,1.8,1.7c2,1.9,3.9,3.8,5.8,5.7
		c0,0.3-0.1,0.7-0.1,1h1.1c0.5,0.5,1,1,1.5,1.6c4,4.2,7.6,8.6,10.7,13c0.2,0.3,0.5,0.7,0.7,1c1.2,1.7,2.3,3.5,3.4,5.2
		c1.3,2.1,2.5,4.2,3.6,6.2c0.5,0.9,0.9,1.7,1.4,2.6c0.4,0.7,0.7,1.4,1.1,2.1c2.6,5.3,4.7,10.5,6.4,15.2c0.5,1.5,1.1,3,1.5,4.5
		c0.8,2.4,1.4,4.7,2,6.7c1.3,4.1,2.5,8.2,3.5,12.4c1.2,0.5,3.5,1.3,7,2.4l0.1-0.1c0.2,0.1,0.3,0.2,0.5,0.3
		c9.5,2.8,26.8,6.6,50.5,6.9h7.9h1.5h1c0.7,0,1.4,0,2-0.1c1.2,0,2.4-0.1,3.6-0.1c2.1-0.1,4.1-0.2,6.1-0.3c0.7,0,1.3-0.1,1.9-0.1
		c2.8-0.2,5.4-0.4,7.9-0.6c11-1,17.8-2.5,22.1-4.1c4.2-1.5,5.9-3.1,6.7-4.3c0,0,0-0.1,0.1-0.1c0.2-0.4,0.4-0.7,0.5-1.1
		c1-2.8-0.5-5.2-0.5-5.2s1-0.2,3-0.6c3.4-0.6,9.8-1.4,18.8-1.7c2-0.1,4.1-0.1,6.4-0.1h2.1c1.6,0,3.1,0,4.8,0.1
		c1.6,0,3.1,0.1,4.6,0.1h2.1h4.1c11.6,0,18.3-0.6,22.9-1.6c1.2-0.3,2.3-0.5,3.3-0.8c1.1-0.4,1.8-0.8,2.2-1.3
		c1.5-2.1-1.9-5.5-3.7-9.7c-2.2-5.2-4-10.5-4-10.5s4.1-2.2,7.8-4.2c-6-7.7-12.2-15.6-17.1-24.1
		C1182.1,1365.2,1182.1,1365.1,1182,1364.9L1182,1364.9z M1029.2,1246c-1.2,0-8.6,0.1-8.8-0.3c-0.6-1.2,4.3-3.8,6.4-5.1
		c3.3,1.1,6.3,3.2,9.1,5.6C1033.7,1246.2,1031.4,1246.1,1029.2,1246z M1187,1409.9c-3.6,1.2-7.9,0.6-11.7,0.5
		c-5.8-0.1-11.6-0.4-17.4-0.3c-5.1,0.1-10.2,0.4-15.3,1.2c-3.3,0.5-7.4,1.6-11,1.2c-1-1.9-2-3.9-2.9-5.8c-3.5-7.3-7.6-14.8-9.6-22.7
		c-1.8-7-2.3-14.4-2.9-21.7c2.1-1.1,4.7-1.1,7.2-1.4c3.4-0.3,6.8-0.7,10.2-1.2c7.3-1,14.6-2.4,21.7-4.4c5.1-1.5,13.2-3,17.1-7.2
		c1.2,7.8,2.6,15.6,4.1,23.4c1,4.9,2.2,9.8,3.7,14.6c0.5,2.1,1.1,4.3,1.7,6.4c1.3,4.4,2.6,8.9,3.9,13.3
		C1186.3,1407.2,1186.6,1408.5,1187,1409.9L1187,1409.9z M960,1218.5c-1.5,1.6-0.9,3.5-0.7,5.6c0.2,2.6,0.8,4.9,0.7,7.6
		c0,0.9,1.3,0.9,1.4,0c0.3-2.6,1-5,1.2-7.6c0.1-2,0.6-4.1-1-5.6C961.2,1218,960.5,1218,960,1218.5L960,1218.5z M1146.3,1165.2
		c-6.1-2.1-12.1-3.7-18.5-4.5c-5.4-0.7-11.3-1.7-16.7-0.7c-1.4,0.3-1.1,2.2,0,2.6c5.2,1.9,11.3,1.7,16.8,2.5
		c5.6,0.9,10.9,2.7,16.1,4.6C1146.2,1171.8,1150.9,1166.8,1146.3,1165.2L1146.3,1165.2z"/>
	<path opacity="0.3" fill="#091426" enable-background="new    " d="M932.9,1321.7c1.2,1,2.3,2,3.5,3c0.8,0.7,1.6,1.3,2.4,2
		c0.9,0.8,1.9,1.6,2.8,2.5c2.7-14.1,3.2-28.9,4.1-43.2c0.5-8.5,1-16.9,1.7-25.4c0.6-7.3,2.4-15.6,1.4-22.9c0.2-1.6,0.3-3.3-0.1-4.9
		c-0.1-0.3-0.4-0.3-0.6-0.1c-1.9,3.2-1.9,7.2-2.5,10.8c-0.7,4.3-1.7,8.6-2.5,12.9c-1.4,8.2-2.3,16.5-4.2,24.6
		c-1.8,7.8-5.4,15-7.7,22.6c-1.1,3.5-2,7.3-2.3,10.9c-0.1,1.2-0.1,2.4-0.1,3.7c0.7,0.6,1.4,1.2,2.2,1.8
		C931.6,1320.6,932.3,1321.1,932.9,1321.7L932.9,1321.7z"/>
	<path fill="#64320F" d="M1142.4,1166.9c-8.1-1.6-26.9-4.4-37.8-5.6c-7.4-0.8-36.8,0.5-65.6,3.4c-2.9,0.3-5.8,0.6-8.7,0.9
		c-10.4,1.2-20.3,2.5-28.8,4c-31.1,5.5-60.6,16.6-65.7,18.6c-0.5,0.2-0.8,0.3-0.8,0.3s-1.9,6.2-3.2,11.5c-0.6,2.2-1.1,4.3-1.3,5.7
		c-0.6,3.5,1.7,2.3,6.7,1c1.6-0.4,3.5-0.8,5.6-1c8.4-0.9,67.8-11.2,99.3-13.6c2.2-0.2,4.2-0.3,6-0.4c14.1-0.6,38.8-0.3,60.4,0.1
		c22.8,0.5,42.2,1.2,42.2,1.2s0.3-10.6,0.6-17.3c0.1-2.6,0.2-4.6,0.2-5.2C1151.6,1168.8,1150.5,1168.5,1142.4,1166.9z"/>
	<path opacity="0.3" fill="#091426" enable-background="new    " d="M1030.3,1165.7c0.5,3.8,1.4,9.6,2.2,13.8
		c1.4,6.8,1.4,10.1,0.1,10.5c-1.3,0.5-16.8,0.4-41.2,4.7s-28,4-28,4l-11.2-3.6l-7.6,2.4l-8.8-9.2c-0.5,0.2-0.8,0.3-0.8,0.3
		s-1.9,6.2-3.2,11.5c2.1,2.7,3.9,4.9,5.4,6.7c1.6-0.4,3.5-0.8,5.6-1c8.4-0.9,67.8-11.2,99.3-13.6l-3-27.4
		C1036.1,1165.1,1033.2,1165.4,1030.3,1165.7L1030.3,1165.7z"/>
	<path opacity="0.3" fill="#091426" enable-background="new    " d="M1151.2,1175.8c-3.9,0.2-9.8,0.7-14.4,1.9
		c-7.5,1.9-15.1,4.1-30.3,4.6l1.9,9.6c22.8,0.5,42.2,1.2,42.2,1.2S1150.9,1182.5,1151.2,1175.8L1151.2,1175.8z"/>
	<path fill="#888888" d="M1113,1157c-0.2,8.9-0.5,15.6-0.8,21.5c-0.1,2.1-0.2,4.1-0.3,6.1c-0.1,3.4-0.3,6.8-0.4,10.4
		c-0.2,11.5-25.4,7.9-25.4,7.9s-24.5-1.1-31.2-1.5c-6.6-0.5-13.5,0.4-14.2-2c-0.7-2.3-7.4-42.3-8.2-56.1c0-0.6,0.2-1.1,0.6-1.6
		c0.8-0.8,2.3-2.2,3.8-3c0.3-0.2,0.7-0.4,1-0.5c0.9-0.4,7.8-1.6,16.7-3c15.6-2.5,37.4-5.4,44.5-4.9c11.1,0.8,13,2,13.7,3.5
		C1113.8,1135.2,1113.4,1139.4,1113,1157L1113,1157z"/>
	<path opacity="0.3" fill="#091426" enable-background="new    " d="M1032.6,1143.2c0.8,13.8,7.5,53.7,8.2,56.1s7.6,1.5,14.2,2
		s31.2,1.5,31.2,1.5s25.2,3.6,25.4-7.9c0.1-3.6,0.2-6.9,0.4-10.4c-15.7,1.7-21,9.9-21,9.9c-18.2,0.8-42.7,1.5-42.7,1.5
		s-0.2-5-2-13.8c-1.4-7.2-7.2-34-9.3-43.6c-1.5,0.9-3,2.2-3.8,3C1032.8,1142.1,1032.6,1142.6,1032.6,1143.2L1032.6,1143.2z"/>
	<path opacity="0.35" fill="#E8FFFA" enable-background="new    " d="M1113,1133.6c-0.8-1.5-2.6-2.8-13.7-3.5
		c-7.1-0.5-28.9,2.5-44.5,4.9c4.3-0.1,8.9-0.2,10.8-0.4c3.8-0.4,4.1,0.8,2.7,3.3s-18.3,36.3-18.3,36.3l0.7,19.5l13.6-1.3l6.9-18.2
		l4.1,2.3l-8.6,15.3l9.9,0.1c0,0,13.7-24.6,15.1-25.2s6.9,0,7.7-2s-2.1-7.9-2.1-7.9s12.5-20.5,12.9-20.7c0.3-0.2-0.3,14.3,0.4,21.5
		s1.8,20.9,1.8,20.9c0.3-5.9,0.6-12.6,0.8-21.5C1113.4,1139.4,1113.8,1135.2,1113,1133.6L1113,1133.6z M1088.3,1155.5l-5.9-5.1
		l11.3-17.7c4.1-0.1,6.3-0.3,7,0.8C1101.3,1134.7,1088.3,1155.5,1088.3,1155.5L1088.3,1155.5z"/>
	<path fill="none" d="M1082.4,1157.9c-0.9-1-2.3-1.6-3.7-1.6c-2,0-3.7,1.2-4.6,2.9c-0.4,0.7-0.6,1.5-0.6,2.3c0,1.9,1.1,3.6,2.6,4.5
		c0.8,0.4,1.6,0.7,2.5,0.7c1.5,0,2.8-0.6,3.7-1.6c0.9-0.9,1.4-2.2,1.4-3.5C1083.9,1160.1,1083.3,1158.8,1082.4,1157.9L1082.4,1157.9
		z"/>
	<path fill="#717171" d="M1097.8,1155.6l-7.9,1.2c-1.8-4.4-6.2-7.5-11.2-7.5c-6.3,0-11.5,4.8-12.1,11l-7.8,1.2l1,6.9l8.2-1.2
		c2,3.8,6.1,6.5,10.7,6.5c5.9,0,10.9-4.2,11.9-9.9l8.2-1.2L1097.8,1155.6z M1078.7,1166.6c-0.9,0-1.8-0.3-2.5-0.7
		c-1.6-0.9-2.6-2.5-2.6-4.5c0-0.8,0.2-1.6,0.6-2.3c0.9-1.7,2.6-2.9,4.6-2.9c1.5,0,2.8,0.6,3.7,1.6c0.9,0.9,1.4,2.2,1.4,3.5
		c0,1.4-0.5,2.6-1.4,3.5C1081.5,1166,1080.2,1166.6,1078.7,1166.6L1078.7,1166.6z"/>
	<g opacity="0.3">
		<path fill="#091426" d="M1083.5,1162.1c-0.9,2.3-3.4,4.6-6.1,4.2c-2.8-0.4-4.5-3.7-3.4-6.3c0.1-0.2-0.2-0.3-0.3-0.1
			c-0.8,1.8-1.4,3.2-0.5,5.1c0.7,1.6,2.1,2.8,3.9,3.2c3,0.6,8.4-2.5,6.7-6.1C1083.8,1161.9,1083.5,1162,1083.5,1162.1L1083.5,1162.1
			z"/>
		<path fill="#091426" d="M1099,1155.3c-1.6-1.3-5.7,0-8.1,0.8c-1.2-2.9-2.1-5.4-5.1-6.9c-3.6-1.7-8.6-3.2-12.4-1.6
			c-2.8,1.2-4.6,4.2-6.1,6.7c-0.9,1.5-1,2.8-1.6,4.4c0,0.5,0.1,1,0.1,1.5c-0.8-0.1-1.6-0.1-2.4,0.1c-1.5,0.2-3.1,0.7-4.5,1.2
			c-0.7,0.2-0.6,1.4,0.2,1.3c4-0.1,8,0.4,9.7-3.5c1.6-3.8,3.9-7.5,8.4-7.9c5.5-0.6,9.2,2.4,11.2,7.2c0.4,0.9,1.1,1.3,2.1,1.2
			c2.2-0.3,4.3-0.8,6.4-1.1c0.3,1.2,0.4,2.7,0.6,3.7c0.3,1.4,2.5,1.1,2.4-0.3C1099.8,1160.1,1100.8,1156.7,1099,1155.3L1099,1155.3z
			"/>
	</g>
	<path fill="#64320F" d="M1205.1,1263c-2.7-5.3-5.5-11.9-8.7-21c-1-2.8-2-5.8-3.1-9.1c-0.4-1.1-0.7-2.2-1.1-3.4l-134.3-12.1
		c0,0-0.1,1.3-0.3,3.7c-0.8,11-2.7,44.1,1.7,65.7c0.1,0.5,0.2,1,0.3,1.6c0.4,3.4,0.9,6.9,1.1,10.3c1.3,4.7,3.1,9.2,5.4,13.4
		c4.5,11.1,11.3,19.3,24.5,27.7c21.5,13.7,44.6,8.6,52.2,5.2s26.3-12.4,44.1-20.4s22.1-19.2,24.2-28.8c0-0.2,0.1-0.4,0.1-0.6
		C1213,1285.6,1208.8,1270.3,1205.1,1263L1205.1,1263z"/>
	<path opacity="0.3" fill="#091426" enable-background="new    " d="M1059.2,1286.7c0.1,0.5,0.2,1,0.3,1.6c-0.3-2.4-0.6-4.7-0.7-7
		c-0.3-5.6-0.5-11.3-0.4-17c1.5,7.2,2.9,14.3,4.1,21.6c2.7,15.4,8,29.5,19.6,40.6c10.7,10.2,24,15.7,38.6,17.2
		c5.6,0.6,11.2,0.9,16.8,1.1c-3.8,1.2-7.8,2-11.8,2.3c-10.2,0.7-20.6-1.8-29.7-6.1c-13-6.1-23.4-16.5-30-29
		c4.5,11.1,11.3,19.3,24.5,27.7c21.5,13.7,44.6,8.6,52.2,5.2s26.3-12.4,44.1-20.4s22.1-19.2,24.2-28.8c0-0.2,0.1-0.4,0.1-0.6
		c-0.3,0.4-0.6,0.8-0.9,1.4c-3.2,8.4-6.8,16.2-14.9,20.9s-16.9,8.6-25.4,12.4c-16.8,7.6-38.5,5.5-55.6-0.3
		c-28.4-9.5-35.4-35.8-39.7-62.5c0.4,0.2,0.7,0.3,1.1,0.5c1.8,0,2.7,0.9,2.9,2.4c0.3,0.7,0.5,1.5,0.6,2.2c0.5,1.9,1,3.9,1.6,5.8
		c1.1,3.8,2.3,7.7,3.6,11.5c2.4,7,5.5,13.9,9.6,20.1c8.4,12.5,20.4,16.7,34.9,18.4c15.6,1.8,32,1,46.6-5.3
		c12.8-5.5,24.9-15.9,28.6-29.7c4.4-16.4-3.5-32.9-10.4-47.4c0.5-0.6,1.1-1.3,1.6-1.9c0.4-0.5,0.8-1,1.2-1.6c-1-2.8-2-5.8-3.1-9.1
		c-1,1.4-1.9,2.8-2.9,4.1c-1.9,2.4-3.8,4.7-5.9,7c-4.1,4.6-8.4,8.9-12.9,13.2c-4.2,3.9-8.5,7.7-12.8,11.4c-0.2,0-0.4,0-0.7,0
		c-7.1,1.1-14.2,1.2-21.1,3.3c-0.7,0.2-1.2,0.8-1.5,1.4c-11.4-1.2-22.7-2.7-33.9-5.3c-5-1.1-13.2-1.8-16.4-6.3
		c-1-1.4-1.8-2.9-2.7-4.2c0-0.3-0.1-0.5-0.2-0.8c-3.7-12.6-9.7-24.1-17.8-34.4c-0.6-0.8-1.4-1.1-2.2-1.1c-0.8-1.9-3.5-2.7-4.7-0.6
		c-0.1,0.2-0.2,0.3-0.2,0.5C1056.8,1232,1054.9,1265.2,1059.2,1286.7L1059.2,1286.7z M1083.6,1271c4.6,2.7,10.9,3.6,15.9,4.8
		c14.2,3.2,28.8,4.9,43.3,6.3c6,0.6,10.4,1.3,15.3-2.5c5.2-4.1,10.2-8.7,15.2-13.1c5.2-4.7,10.3-9.6,15-14.8
		c0.6-0.6,1.1-1.3,1.7-1.9c0.4,0.5,0.8,1.1,1.2,1.6c2.3,3.7,4.1,7.7,5.6,11.8c1.9,5.2,3.5,10.5,4.9,15.8c0.5,4.9,0.2,9.8-1.1,14.8
		c-4.1,16-21.4,26-36.3,30c-15.7,4.2-34.9,3.8-50.5-0.8c-16.8-5-24.9-23.4-28.8-39.1c-1-4.2-1.8-8.4-2.5-12.7v-0.1
		C1083,1271,1083.3,1271,1083.6,1271L1083.6,1271z"/>
	<path fill="#A0592B" d="M1127.8,1288.3c-1.5-2.6-3.2-4.7-4.2-5.8c-0.5-0.6-0.8-1-0.8-1l-0.1-0.8l-0.3-3.8l-0.5-6l-4.7-0.7
		c0.2,2.1,0.4,4.3,0.5,6.2c0.2,2.2,0.3,3.9,0.3,3.9s-0.1,0.1-0.1,0.2c-0.1,0.2-0.3,0.5-0.5,0.8c-1.1,1.9-3.5,6.2-4.3,9.7
		c-1,4.4,1.2,14.4,1.6,16c0,0.1,0.1,0.2,0.1,0.2s3.3,6.2,11.1,4.2c6.2-1.6,7-4.9,7.1-7c0-0.6,0-1.1,0-1.4
		C1132.8,1301.3,1130.2,1292.2,1127.8,1288.3L1127.8,1288.3z"/>
	<path fill="#A0592B" d="M1210.8,1272.3c-0.2-0.4-0.9-1-2-1.9c-1.6-1.3-4.1-3.1-7.1-5.3c-5-3.7-6.4-6.5-9.4-7.1c0,0-0.1-0.1-0.2-0.3
		c-0.2-0.3-0.5-0.9-1-1.6c-1.1-1.6-2.8-3.9-5.1-5.9c-0.1-0.1-0.1-0.1-0.2-0.2c-3.8-3.1-5.1-4-5.1-4v4.1c1.1,1.2,2.2,2.2,3.2,3.3
		c2.1,2.2,3.9,4.1,4.6,5.7c0,0.1,0.1,0.2,0.1,0.3c0.2,0.6,0.4,1.2,0.5,1.8c0.4,1.8,0.6,3.9,1.9,8.3c1.6,5.8,1.1,9.4,1.6,10.5
		c0,0,0.1,0.1,0.1,0.2c0.8,1.3,5.6,5.4,12,1.9C1211.5,1278.4,1211.4,1273.4,1210.8,1272.3z"/>
	<path fill="#A0592B" d="M1177.1,1293.8c-0.8-1.4-2.2-3.1-4.2-5.7c-2.5-3.2-6.4-6.4-8.6-7.6c-0.5-0.3-1-0.5-1.3-0.5
		c0,0-0.1-0.4-0.3-1.1c-0.3-1.2-0.9-3-1.9-4.9c-0.7-1.4-1.5-2.7-2.6-3.7c-3.3-3.1-5.4,0.6-5.4,0.6c1.3,2,2.5,4,3.4,5.7
		c1.4,2.5,2.3,4.4,2.3,4.4l0,0c0,0.2,0.1,3.6,0.5,6.8s1.9,12.7,1.9,12.7s1.5,5.7,7.7,4.7s9.7-7.3,9.3-9.3
		C1177.8,1295.2,1177.6,1294.5,1177.1,1293.8z"/>
	<path opacity="0.3" fill="#091426" enable-background="new    " d="M1185.9,1250.1c-3.8-3.1-5.1-4-5.1-4v4.1
		c1.1,1.2,2.2,2.2,3.2,3.3c0.5-1,0.9-2,1.6-3C1185.7,1250.3,1185.8,1250.2,1185.9,1250.1z"/>
	<path opacity="0.3" fill="#091426" enable-background="new    " d="M1191,1258.9l1.2-1.2c-0.2-0.3-0.5-0.9-1-1.6
		c-0.6,0.6-1.2,1.2-1.6,1.7c-0.2,0.3-0.6,0.8-1,1.4c0,0.1,0.1,0.2,0.1,0.3c0.2,0.6,0.4,1.2,0.5,1.8c0,0,0,0,0-0.1
		C1189.8,1260.4,1190.4,1259.6,1191,1258.9L1191,1258.9z"/>
	<path opacity="0.3" fill="#091426" enable-background="new    " d="M1204.8,1282.1c6.7-3.7,6.6-8.7,6-9.7c-0.2-0.4-0.9-1-2-1.9
		c-1.1,0-2.3,0.2-3.4,0.5l-0.1-0.1c-0.7-0.6-1.3-1.1-2-1.6c-0.3-0.2-0.6,0.1-0.4,0.4c0.5,0.6,0.8,1.1,1.2,1.7
		c-0.7,0.2-1.4,0.5-2,0.8c-1.2,0.5-2.4,1.2-3.6,1.9c-0.5-0.8-1.2-1.5-1.5-2.5s-0.1-2.1-0.9-2.9c-0.1-0.1-0.2,0-0.2,0.1
		c-0.2,1.1,0.2,2.4,0.4,3.5c0.1,1,0.2,2,0.7,2.8c-0.6,0.5-1.2,1-1.8,1.5c-0.4-0.8-0.8-1.7-1.2-2.5c-1.1-2.8-1.1-5.8-0.9-8.7
		c0-0.4-0.6-0.4-0.6,0c-0.1,3,0.4,5.9,0.7,8.9c0.1,1.3,0.3,2.6,0.7,3.8c-0.5,0.7-0.9,1.4-1.1,2.2
		C1193.6,1281.5,1198.4,1285.6,1204.8,1282.1L1204.8,1282.1z"/>
	<path opacity="0.3" fill="#091426" enable-background="new    " d="M1161,1300.4c0,0,1.5,5.7,7.7,4.7s9.7-7.3,9.3-9.3
		c-0.1-0.7-0.4-1.4-0.8-2.1c-2.4,1.1-4.8,2.3-7.2,3.5c-1.1-1.3-2.3-2.6-3.1-4.1c-0.1-0.2-0.5,0-0.4,0.2c0.7,1.6,1.1,3.2,1.7,4.8
		c0,0-0.1,0-0.1,0.1c-0.5,0.3-1.1,0.6-1.6,0.9c-1-1.6-1.5-3.4-2.3-5c-1-2.2-2-4.5-2.9-6.8c-0.1-0.3-0.5-0.2-0.4,0.1
		c0.9,3,1.7,6.1,2.7,9.1c0.4,1.2,0.5,2.6,1,3.7c-0.3,0.2-0.6,0.3-0.9,0.5c-1.9-6.1-2.6-12.4-4.6-18.6c1.1-0.7,2.2-1.1,3.5-1.4
		c0.7-0.2,1.4-0.2,2.1-0.4c-0.5-0.3-1-0.5-1.3-0.5c0,0-0.1-0.4-0.3-1.1c-0.5,0.1-1,0.3-1.5,0.5c-1,0.4-1.9,1-2.7,1.6
		c0,0.2,0.1,3.6,0.5,6.8C1159.5,1291,1161,1300.4,1161,1300.4L1161,1300.4z"/>
	<path opacity="0.3" fill="#091426" enable-background="new    " d="M1160.9,1274c-0.7-1.4-1.5-2.7-2.6-3.7
		c-3.3-3.1-5.4,0.6-5.4,0.6c1.3,2,2.5,4,3.4,5.7c0.9-0.8,1.9-1.6,2.8-1.7C1159.8,1274.8,1160.4,1274.5,1160.9,1274L1160.9,1274z"/>
	<path opacity="0.3" fill="#091426" enable-background="new    " d="M1125.9,1311.6c6.2-1.6,7-4.9,7.1-7c-2.9-0.3-5.8-0.4-8.6-0.1
		c-0.3-1.1-0.5-2.1-0.8-3.2c-0.1-0.2-0.4-0.2-0.5,0c-0.2,1.1-0.3,2.2-0.3,3.3v0.2c-0.5,0.1-0.9,0.2-1.4,0.3
		c-0.3,0.1-0.6,0.1-0.9,0.2c-0.2-0.6-0.4-1.1-0.5-1.7c-0.6-2.3-0.7-4.5-0.5-6.9c0-0.4-0.6-0.4-0.7,0c-0.3,2.5-0.8,6.1-0.4,9.1
		c-0.2,0.1-0.4,0.1-0.6,0.2c-0.5-1.7-0.9-3.4-1.2-5.2c-0.4-3-0.2-6-0.6-9c0-0.2-0.3-0.2-0.3,0c-0.5,4.5-0.7,10.1,0,14.9
		c-0.3,0.2-0.6,0.3-0.9,0.5c0,0.1,0.1,0.2,0.1,0.2S1118.1,1313.6,1125.9,1311.6L1125.9,1311.6z"/>
	<path opacity="0.3" fill="#091426" enable-background="new    " d="M1122.5,1277l-0.5-6l-4.7-0.7c0.2,2.1,0.4,4.3,0.5,6.2
		C1119.3,1276.8,1120.9,1277.1,1122.5,1277z"/>
	<path opacity="0.3" fill="#091426" enable-background="new    " d="M1122.9,1281.6l-0.1-0.8c-1.6-0.2-3.3-0.3-4.8-0.2
		c-0.1,0.2-0.3,0.5-0.5,0.8c1.9,0.7,4.2,0.9,6.2,1.1C1123.2,1281.9,1122.9,1281.6,1122.9,1281.6L1122.9,1281.6z"/>
	<path fill="#64320F" d="M1199.4,1226.5c-0.3-1-0.9-2.2-1.6-3.6c-2.8-5.2-11.6-25.1-15-32.2s-4.4-9.8-5.4-11.6
		c-0.4-0.8-1.3-1.1-3.2-1.2c-2.6-0.2-7,0.1-14.2,0.2c-12.4,0.2-34.5,6.2-50.1,10.6s-29.5,12.9-41.6,18.4s-18.5,12.1-15.6,16.1
		c0,0,11.8-5.4,18.2,9.9s8.2,26.3,9.4,30s8.1,4.6,17.4,7.2s29.3,6,50.8,5.8c7.5-0.1,9.9-3.4,25.9-18.5s20.7-21.6,23.5-24.5
		C1199.8,1230.9,1200.3,1229.2,1199.4,1226.5L1199.4,1226.5z"/>
	<path opacity="0.3" fill="#091426" enable-background="new    " d="M1160,1178c-12.4,0.2-34.5,6.2-50.1,10.6s-29.5,12.9-41.6,18.4
		s-18.5,12.1-15.6,16.1c0,0,11.8-5.4,18.2,9.9s8.2,26.3,9.4,30s8.1,4.6,17.4,7.2s29.3,6,50.8,5.8c7.5-0.1,9.9-3.4,25.9-18.5
		s20.7-21.6,23.5-24.5c2.1-2.1,2.6-3.8,1.6-6.5c-1.1,1.1-1.9,2.5-3,3.7c-2.5,2.8-5.1,5.5-7.6,8.2c-5.1,5.5-10.1,11-15.1,16.5
		c-4.5,4.9-9.1,10.2-14.4,14.4c-3.6,2.9-7.5,4.1-11.7,4.8c-6.3-0.1-12.6-0.6-18.9-1.2c-7.2-0.7-14.2-2.1-21.3-3.6
		c-6.2-1.3-12.9-2.2-19-4.1c-6.8-2.2-7-11.3-8.4-17.3c-1.3-5.7-2.4-11.6-4.8-17c-2.5-5.8-7.8-11.7-14.1-13.1
		c0.2-0.5,0.3-1.1,0.5-1.6c1-1.3,2.2-2.6,3.5-3.7c5-2.9,10.6-5.2,13-6.4c9.8-5,19.8-9.7,30.1-13.6c9.6-3.7,19.5-6.8,29.7-8.7
		c5.3-1,10.7-1.7,16.1-2.1c4.7-0.3,12-1.3,16.6,0.5c2.1,6.6,5.1,12.8,8.2,19.2c3.8,8.1,7.7,16.1,11.7,24.1c0,0-0.1,0-0.1,0.1
		c-3.7,3.3-6.6,7.3-9.7,11c-3.3,4.1-6.6,8.2-10,12.2c-5.6,6.8-11.3,15.4-19.8,18.8c-5.1,2-10.2,1.4-15.5,0.4c-5.2-1-10.3-2-15.5-3.1
		s-10.4-2-15.6-3c-4.6-0.9-9.4-2.2-14.1-2.7c-1.5-8.9-4.2-17.9-8-26.1c-3.2-6.9-6.4-16-13.3-20.3c-0.4-0.2-0.9,0.3-0.5,0.7
		c6.3,5.7,10,13.6,13,21.4c3,8.1,5.4,16.3,7.2,24.7c0,0.2,0.2,0.3,0.3,0.4c0.1,0.2,0.2,0.3,0.4,0.4c4.1,1.3,8.4,1.8,12.6,2.6
		c4.4,0.8,8.8,1.7,13.1,2.5c8.2,1.6,16.4,3.5,24.6,4.5c7,0.9,13-0.5,18.6-4.9c5.8-4.6,10.2-11,14.8-16.7c3.1-3.8,6.2-7.6,9.4-11.4
		c2.9-3.5,5.7-7.2,9.2-10.2c0.1-0.1,0.1-0.1,0.2-0.2c0.5-0.2,1-0.8,0.7-1.4c-4-7.9-7.8-16-11.3-24.1c-2.9-6.5-5.4-13-8.7-19.3
		c0.3-0.5,0.4-1.1,0.3-1.7c0.1-0.1,0.2-0.4,0.2-0.5c0.2-0.5,0.2-0.8,0.6-1.1l0.5-0.5C1171.6,1177.6,1167.2,1177.9,1160,1178
		L1160,1178z"/>
	<path opacity="0.3" fill="#091426" enable-background="new    " d="M1158,1255c0,4.5-4.8,7.3-9.3,7.3s-8.1-3.7-8.1-8.2
		c0-6.7,4.9-11.9,9.4-11.9S1158,1250.5,1158,1255L1158,1255z"/>
	<path fill="#F9C92B" d="M1159,1251.9c0,4.5-2.6,7.6-7.2,7.6s-8.1-3.7-8.1-8.2s2.6-7.5,7.1-7.5S1159,1247.4,1159,1251.9z"/>
	<path opacity="0.35" fill="#E8FFFA" enable-background="new    " d="M1068.2,1216.3c-0.6-0.5-1.3,0.3-0.8,0.8
		c0.4,0.4,0.9,0.7,1.3,1c0.5,0.3,1.2,0.6,1.8,0.4c0.4-0.1,0.7-0.7,0.4-1.1C1070.2,1216.5,1069,1216.9,1068.2,1216.3L1068.2,1216.3z"
		/>
	<path opacity="0.35" fill="#E8FFFA" enable-background="new    " d="M1073.6,1222.5c-0.5-0.4-1.2,0.5-0.7,0.9
		c0.6,0.5,1,1.1,1.5,1.7c0.6,0.6,1.5-0.2,1.1-0.9S1074.3,1223,1073.6,1222.5z"/>
	<path opacity="0.35" fill="#E8FFFA" enable-background="new    " d="M1081.3,1240.6c-0.8-2.1-1.9-4-2.4-6.3c-0.5-2.2-1.1-4-2.2-5.8
		c-0.1-0.1-0.3,0-0.2,0.1c0.7,2.2,1.6,4.4,2,6.7c0.3,1.9,0.5,3.1,1.5,4.7c2.2,3.8,3.2,8.3,4.2,12.5c0.2,0.7,1.2,0.4,1.1-0.3
		c-0.3-2-1.3-3.8-2.1-5.7C1082.2,1244.7,1082,1242.6,1081.3,1240.6L1081.3,1240.6z"/>
	<path opacity="0.35" fill="#E8FFFA" enable-background="new    " d="M1106.6,1264.7c-0.9-0.1-2.1-0.5-2.9-0.8
		c-1.3-0.5-2.4-0.7-3.7-1c-1.9-0.4-4.1-1-5.9,0c-0.3,0.1-0.1,0.5,0.2,0.5c1.7-0.4,3,0.5,4.5,0.9c1.6,0.4,2.8-0.4,4.4,0.5
		c1.7,0.9,1.8,1.4,3.6,0.5C1107.1,1265.1,1106.9,1264.8,1106.6,1264.7z"/>
	<path opacity="0.35" fill="#E8FFFA" enable-background="new    " d="M1110.4,1265.4c-0.9,0.2-2-0.3-2.9,0.1c-0.1,0-0.1,0.1,0,0.2
		c0.7,0.7,1.8,0.5,2.7,0.8c0.7,0.3,1.6,0.7,2.4,0.1c0.3-0.2,0.4-0.6,0.1-0.9C1112,1265.2,1111.1,1265.3,1110.4,1265.4L1110.4,1265.4
		z"/>
	<path opacity="0.35" fill="#E8FFFA" enable-background="new    " d="M1119.5,1267.6c-0.3-0.2-0.5-0.4-0.9-0.5s-0.6-0.3-1-0.5
		c-0.3-0.1-0.6,0.3-0.3,0.5c0.6,0.3,0.4,0.6,0.6,1.1c0.2,0.4,0.5,0.6,0.8,0.8c0.4,0.2,0.8,0.1,1.3,0.1h1.8c0.1,0,0.2-0.2,0.1-0.3
		C1121.1,1268.4,1120.2,1268.1,1119.5,1267.6z"/>
	<path opacity="0.35" fill="#E8FFFA" enable-background="new    " d="M1147.7,1272c-1.2-0.1-2.3-0.1-3.5-0.2
		c-1.6-0.1-2.4-0.5-3.8-1.2c-1.6-0.8-3.5-1.1-5.3-1.2c-1.1-0.1-2.4,0.4-3.5,0.2c-0.8-0.1-1.7-0.7-2.6-0.9c-1.9-0.4-3.9-0.7-5.9-0.2
		c-0.3,0.1-0.3,0.4-0.1,0.6c1.8,0.9,3.8,1.1,5.7,1.2c1.1,0.1,2.6-0.2,3.6,0c0.9,0.2,1.7,0.6,2.6,0.7c2.2,0.4,4.4,0.5,6.6,0.9
		c2.1,0.4,4,0.2,6.1,0.4C1147.9,1272.3,1147.9,1272,1147.7,1272L1147.7,1272z"/>
	<path opacity="0.35" fill="#E8FFFA" enable-background="new    " d="M1169.6,1254.8c-2.2,3-5.9,4.7-8.1,7.8c-1.4,1.9-2.4,4-4.7,5
		c-1.9,0.8-4.1,1-6.1,1.8c-0.1,0-0.1,0.2,0,0.2c4.3,0.2,7.6-2.5,10.6-5.2c3.2-2.9,6.1-5.8,8.6-9.4
		C1170,1254.8,1169.7,1254.6,1169.6,1254.8L1169.6,1254.8z"/>
	<path opacity="0.35" fill="#E8FFFA" enable-background="new    " d="M1193,1216.8c-0.8-1.7-1.5-3.4-2.1-5.2c-0.8-2.7-1.3-5.5-2.6-8
		c-1.5-3.1-3.1-6.1-4.6-9.2c-1.5-3.2-2.8-6.5-4.5-9.6c-0.1-0.2-0.5-0.1-0.4,0.2c2.3,5.8,5.7,11.2,8.2,16.9c1.3,2.9,2.1,5.6,2.8,8.7
		c0.3,1.5,0.6,2.9,1,4.3s1.2,3,1.4,4.4c-0.1,0.4,0,0.8,0.4,1c0,0,0.1,0,0.1,0.1c0.6,0.4,1.3-0.1,1.3-0.8
		C1194.2,1218.6,1193.4,1217.6,1193,1216.8L1193,1216.8z"/>
	<path opacity="0.35" fill="#E8FFFA" enable-background="new    " d="M1126.8,1190.1c0.2,0.4,0.9,0.6,1.3,0.3
		c0.3-0.2,0.5-0.4,0.7-0.7c0.1-0.1,0.1-0.2,0.1-0.4c0.5-1.1,1.2-1.2,2.3-0.3c0.1,0.4,0.7,0.7,1,0.4c0.1-0.1,0.2-0.1,0.3-0.2
		c0.2-0.1,0.3-0.3,0.1-0.5c-1.2-1.6-3.3-0.8-4.8-0.3c-1.1,0.3-2.1,0-3.3,0.5c-1,0.4-1.6,0.7-2.7,1c-0.9,0.3-0.7,0.1-1.4,0.8v0.1
		c1,0.2,2.1,0.3,3.2,0.1C1124.7,1190.8,1126,1188.7,1126.8,1190.1L1126.8,1190.1z"/>
	<path opacity="0.35" fill="#E8FFFA" enable-background="new    " d="M1136.2,1188.9c0.4-0.4,0.8-0.7,1.3-0.8c0,0,0.1,0,0.1,0.1
		c0.2,0.1,0.5,0.1,0.7,0c0.3-0.2,0.5-0.5,0.5-0.9c0.1-0.2,0.1-0.5-0.1-0.7s-0.4-0.2-0.6-0.3c-0.7-0.2-1.3,0.7-0.9,1.3
		c-0.5,0.2-0.9,0.5-1.3,1.1C1135.7,1188.8,1136,1189,1136.2,1188.9L1136.2,1188.9z"/>
	<path opacity="0.35" fill="#E8FFFA" enable-background="new    " d="M1149,1185.2c-1.2-0.5-2.5-0.5-3.6,0c-0.6,0.3-1.3,0.4-1.9,0.6
		c-0.8,0.3-1.3,0-2,0c-0.1,0-0.2,0.1-0.3,0.2c0,0.1,0,0.1-0.1,0.2c0,0.1,0.1,0.2,0.2,0.2c0.5-0.1,0.7,0.6,1,0.8
		c0.5,0.3,1.3,0.2,1.8,0s0.9-0.3,1.2-0.8c0.1-0.2,0.2-0.4,0.3-0.6c0.6,0,1.1,0,1.7,0.1c0.3,0.1,0.6,0.6,0.9,0.8
		C1149.4,1187.4,1150.2,1185.7,1149,1185.2L1149,1185.2z"/>
	<path opacity="0.35" fill="#E8FFFA" enable-background="new    " d="M1154,1185.4c0.4,0.2,0.7,0.5,1.1,0.7c0.9,0.4,1.9-0.1,2.4-0.8
		c0.6-0.8-0.1-1.9-1.1-1.4c-0.3,0.2-0.6,0.4-0.9,0.6c-0.1,0.1-0.4,0.3-0.5,0.3s-0.4-0.1-0.5-0.2c-0.5-0.1-1.1-0.3-1.4,0.2v0.1
		C1153.3,1185.2,1153.6,1185.2,1154,1185.4L1154,1185.4z"/>
	<path opacity="0.35" fill="#E8FFFA" enable-background="new    " d="M1160.6,1184.9c0.2,0.1,0.3,0.1,0.5,0.2
		c0.3,0.2,0.4,0.5,0.7,0.6c0.6,0.4,1.4,0.6,2,0.2c0.4-0.3,0.6-0.9,0.2-1.3c-0.6-0.5-1.4-0.4-2.1-0.5c-0.4,0-1.1-0.4-1.3,0.2
		C1160.4,1184.6,1160.4,1184.8,1160.6,1184.9L1160.6,1184.9z"/>
	<path fill="#64320F" d="M1066.1,1228.9c0.5,13,0.7,15.7-0.4,18.2s-3,2.4-3,2.4s2.5,1.5,4.4-0.7s2.3-4.9,1.8-10.3
		c-0.5-5.5-0.2-6.6-0.8-7.6C1067.5,1229.8,1066.1,1228.9,1066.1,1228.9z"/>
	<path fill="#64320F" d="M1060.5,1227.7c0,5.6-0.6,8.8,0,9.7s2,1,2.2-0.6s0-9.3,0-9.3L1060.5,1227.7z"/>
	<path fill="none" d="M957.6,1205.9c-0.1-0.1-0.1-0.2-0.2-0.3c-0.6-1.3,0.1-3,1.7-3c0.7,0,1.3,0.1,2,0.2c-0.1-0.8-0.2-1.6-0.3-2.4
		c-0.1-0.4-0.1-0.9-0.2-1.3c-2.5-1.2-5.3-1.6-7.9-2.4c-0.3,0.1-0.5,0.1-0.8,0.2c-0.1,0-0.1,0-0.2,0c0,0.1,0,0.1-0.1,0.2
		c0.4,0.3,0.8,0.6,1.2,1c1,0.9,1.3,1.9,1.1,2.8c-0.2,1.1-1.1,2.1-2.1,2.6c0.4,0.2,0.8,0.5,1.3,0.7c2.9,1.8,5.4,4.4,7.8,6.9
		c0-0.2,0.1-0.5,0.1-0.7s0.1-0.5,0.1-0.7C959.6,1208.6,958.3,1207.3,957.6,1205.9L957.6,1205.9z"/>
	<path fill="none" d="M998.2,1222.4c-1.8-0.6-3.5-1.5-4.6-2.8c-0.6-0.7-0.8-1.7-0.4-2.5c0.2-0.4,0.4-0.7,0.8-0.9
		c1.9-1,3.9-1,5.9-0.6c0.1-0.7,0.3-1.6,0.4-2.4c0-0.1,0-0.2,0-0.3c-4.7-1-9.4-1.7-14-3.1c-1.6-0.5-3.2-0.8-4.6-1.4
		c-0.1,0-0.2-0.1-0.4-0.1c-0.1,0.3-0.1,0.7-0.2,1c1.2,0.4,2.4,0.9,3.4,1.6c1,0.6,1.5,1.7,1.4,2.8c-0.1,1.2-0.8,2.3-2.1,2.7
		s-2.6,0.4-4,0.3c0,0.3-0.1,0.6-0.1,0.9c0.6,0.2,1.2,0.4,1.9,0.6c2.4,0.7,5,1,7.2,1.5c1.6,0.4,3.1,0.8,4.7,1.2
		c0.2,0.1,0.5,0.2,0.8,0.3C995.6,1221.7,997.3,1222.3,998.2,1222.4L998.2,1222.4z"/>
	<path fill="none" d="M1031.6,1229.2c-0.9-0.5-1.5-1.3-1.6-2.4c0-0.1,0-0.1,0-0.1c0-0.1,0-0.3,0-0.4c-0.1-1.3,0.8-2,2.1-2.4
		c0-0.3,0-0.6-0.1-0.8v-0.1c-0.1-0.1-0.1-0.2-0.1-0.3c-0.1,0.1-0.2,0.1-0.9-0.3c-1.8-1.1-6.8-1.5-8.7-1.5c-0.7,0-1.4,0-2.1,0
		s-1.4,0-2.1,0c0.8,0.3,1.6,0.6,2.4,1c1.3,0.6,1.7,1.6,1.6,2.7c-0.2,1.5-1.5,3-3.1,3.1c-0.7,0.1-1.5,0.1-2.2,0c0,1,0.1,1.8,0.4,2.1
		s0.8,0.5,1.4,0.7c2.3,0.7,6.2,0.9,7.6,1.1c1.9,0.3,3.7,0.9,5.5,1.4v-0.1c0-1.1-0.1-2.8-0.1-2.9
		C1031.6,1229.7,1031.6,1229.4,1031.6,1229.2L1031.6,1229.2z"/>
	<path fill="#888888" d="M1065.4,1226.9c-0.2-0.5-0.4-0.9-0.6-1.4c-1.4-2.6-4.2-3.4-7.3-3.3c-2.7,0-8-0.5-9.9,2.1
		c-3.1-0.2-6.3-0.3-9.2-0.6c-0.1,0-0.2,0-0.4,0c0-1-0.1-2-0.3-2.9c-1-4.9-8.5-4.7-12.4-5.6c-4.1-0.9-11-4.3-13.5,1
		c-0.3,0.5-0.5,1.5-0.7,2.6c-1.7-0.4-3.4-0.8-5-1.3c-0.6-0.2-1.3-0.4-2-0.6c0.1-0.7,0.2-1.4,0.3-2.2c0.2-2.1,0.2-4.1-0.7-5.5
		c-0.3-0.8-1.2-1.4-1.9-1.7c-4.3-1.6-8.8-2.1-13.2-3.3c-3-0.8-6-2.5-8.9-1.7c-0.5-0.1-1,0-1.5,0.3c-1.7,1.1-2.5,3-2.9,5.1
		c-1.4-0.3-2.7-0.6-3.9-1c-1.5-0.5-3.1-1.3-4.7-2c0.3-3,1.5-7.2-0.2-9.8c-1.6-2.5-5.8-3.1-8.4-3.4c-1-0.1-2.1-0.3-3.1-0.4
		c-3.1-1.7-7.3-1.4-9.2,1.9c-0.1-0.1-0.3-0.2-0.4-0.3c-2.5-1.8-4.7-4-7.3-5.7c-2.1-1.3-4.1-0.1-4.9,1.7c-0.5,1.2-0.5,2.7,0.6,3.9
		c2,2.2,4.6,3.9,7,5.6c0.9,0.7,1.9,1.4,2.9,2.1c-0.2,0.4-0.3,0.8-0.5,1.2c-0.1,0.2-0.2,0.5-0.3,0.7c-0.2,0.5-0.3,1-0.4,1.5
		c-0.2,1.4,0.6,2.6,1.9,2.7c2.3,2.2,5,4.2,7.5,6.2c2.7,2.2,5.6,4,8.6,5.8c1.7,1,3.6-0.2,4.2-1.7c0.1-0.2,0.3-0.4,0.4-0.7
		c0.2-0.5,0.3-1.1,0.5-1.6c0-0.1,0.1-0.2,0.1-0.3c0.1-0.6,0.3-1.2,0.3-1.8c0.9,0.4,1.9,0.8,2.7,1.1c1.6,0.7,3.5,1.4,5.4,2.1
		c-0.1,0.4-0.2,0.9-0.3,1.3c-0.3,1.6-0.4,3.3,0.5,4.5c0.3,0.4,0.6,0.7,1.1,1c1.6,1,3.9,0.9,5.7,1.4c2.6,0.7,5.1,1.7,7.7,2.5
		c2.9,0.9,9.2,3.6,12,1.6c0.7-0.5,1.1-1.2,1.3-1.9c0-0.2,0.1-0.3,0.1-0.5c0.1-0.2,0.2-0.5,0.2-0.7c0.1-0.4,0.2-0.7,0.3-1.1
		c0.9,0.2,1.7,0.4,2.5,0.7c1.6,0.5,3.3,1.2,5,1.8c0.1,2.8,0.9,5.4,2.2,6.9c2,2.3,7,2.4,9.7,3.2c4,1.2,8,2,12.2,2.4
		c1.4,0.1,2.2-0.7,2.4-1.7s0-0.1,0.1-0.1c0.5-0.8,0.7-1.8,0.7-2.9c0.1-0.8,0.1-1.6,0.1-2.4c0.2,0,0.3,0.1,0.5,0.1
		c1.7,0.3,3.4,0.4,5.1,0.5c1.8,0.1,3.6,0.3,5.4,0.4c0.8,1.6,1.8,3.2,2.5,4.3c2.1,3.5,5,7.2,8.6,9.1c1.3,0.7,3.2,0.4,3.9-1
		c0.2-0.4,0.4-0.9,0.4-1.4c0-0.1,0-0.3-0.1-0.4c-0.5-2.5-4-4.4-5.6-6.2c-0.4-0.5-0.8-1-1.2-1.5c-0.8-1.1-1.7-2.2-2.5-3.5h0.1
		c2-0.5,2.6-2.3,2.2-3.8h3c1.6,0,3-0.2,4.6-0.2C1065.1,1227.9,1065.6,1227.4,1065.4,1226.9L1065.4,1226.9z M960.9,1211.1
		c-2.5-2.4-5-5-7.8-6.9c-0.4-0.3-0.8-0.5-1.3-0.7c1.1-0.5,1.9-1.5,2.1-2.6c0.2-0.9-0.1-1.9-1.1-2.8c-0.4-0.3-0.8-0.7-1.2-1
		c0-0.1,0-0.1,0.1-0.2h0.2c0.3-0.1,0.5-0.1,0.8-0.2c2.6,0.8,5.4,1.2,7.9,2.4c0.1,0.4,0.1,0.9,0.2,1.3c0.1,0.8,0.2,1.6,0.3,2.4
		c-0.7-0.1-1.3-0.2-2-0.2c-1.6,0-2.3,1.6-1.7,3c0,0.1,0.1,0.2,0.2,0.3c0.8,1.4,2.1,2.7,3.6,3.7c0,0.2-0.1,0.5-0.1,0.7
		C961,1210.6,961,1210.8,960.9,1211.1L960.9,1211.1z M993.7,1221c-1.6-0.4-3.1-0.8-4.7-1.2c-2.2-0.5-4.8-0.9-7.2-1.5
		c-0.7-0.2-1.3-0.4-1.9-0.6c0-0.3,0.1-0.6,0.1-0.9c1.4,0.1,2.7,0,4-0.3c1.4-0.4,2.1-1.5,2.1-2.7c0-1-0.4-2.1-1.4-2.8
		s-2.2-1.2-3.4-1.6c0.1-0.3,0.1-0.7,0.2-1c0.1,0.1,0.2,0.1,0.4,0.1c1.4,0.6,3,0.9,4.6,1.4c4.6,1.3,9.3,2.1,14,3.1v0.3
		c-0.1,0.8-0.3,1.7-0.4,2.4c-2-0.4-4-0.4-5.9,0.6c-0.4,0.2-0.7,0.5-0.8,0.9c-0.4,0.8-0.2,1.8,0.4,2.5c1.1,1.3,2.8,2.1,4.6,2.8v0.1
		c-0.9-0.1-2.6-0.7-3.7-1.1C994.2,1221.2,993.9,1221.1,993.7,1221L993.7,1221z M1031.6,1233c-1.8-0.5-3.6-1.1-5.5-1.4
		c-1.4-0.2-5.4-0.4-7.6-1.1c-0.6-0.2-1.1-0.4-1.4-0.7s-0.4-1.1-0.4-2.1c0.7,0.1,1.5,0.1,2.2,0c1.6-0.2,3-1.6,3.1-3.1
		c0.1-1-0.3-2.1-1.6-2.7c-0.8-0.4-1.6-0.7-2.4-1h2.1h2.1c2-0.1,6.9,0.3,8.7,1.5c0.6,0.4,0.8,0.4,0.9,0.3c0,0.1,0.1,0.1,0.1,0.3v0.1
		c0.1,0.2,0.1,0.5,0.1,0.8c-1.3,0.3-2.2,1.1-2.1,2.4v0.4v0.1c0.1,1.1,0.7,1.9,1.6,2.4v0.8C1031.5,1230.1,1031.6,1231.8,1031.6,1233
		L1031.6,1233z"/>
	<path opacity="0.3" fill="#091426" enable-background="new    " d="M951.8,1203.5c1.1-0.5,1.9-1.5,2.1-2.6
		c-0.2-0.1-0.4-0.1-0.7-0.1c-6.1,0.1-12.4-4.5-16.9-8.5c-1.1-1-2.1-2.2-3-3.5c-0.5,1.2-0.5,2.7,0.6,3.9c2,2.2,4.6,3.9,7,5.6
		c0.9,0.7,1.9,1.4,2.9,2.1c-0.2,0.4-0.3,0.8-0.5,1.2c3.1,1.4,6.3,2.4,9.7,2.5C952.7,1204,952.3,1203.7,951.8,1203.5L951.8,1203.5z"
		/>
	<path opacity="0.3" fill="#091426" enable-background="new    " d="M960.6,1199.1c0.1,0.4,0.1,0.9,0.2,1.3c0.2-0.3,0.2-0.6,0.2-1
		c-0.5-3.5-4.9-3.5-7.6-4c-1.1-0.2-1.6,0.7-1.5,1.5c0.3-0.1,0.5-0.1,0.8-0.2C955.3,1197.5,958.1,1197.9,960.6,1199.1L960.6,1199.1z"
		/>
	<path opacity="0.3" fill="#091426" enable-background="new    " d="M952.7,1208.9c-3.1-2.2-6.2-4.5-9.5-6.5c-0.2,0.5-0.3,1-0.4,1.5
		c-0.2,1.4,0.6,2.6,1.9,2.7c2.3,2.2,5,4.2,7.5,6.2c2.7,2.2,5.6,4,8.6,5.8c1.7,1,3.6-0.2,4.2-1.7c0.1-0.2,0.3-0.4,0.4-0.7
		c0.2-0.5,0.3-1.1,0.5-1.6c-0.1,0-0.2,0-0.3-0.1C960.1,1213.8,957.1,1212.1,952.7,1208.9L952.7,1208.9z"/>
	<path opacity="0.3" fill="#091426" enable-background="new    " d="M979.9,1217.7c0-0.3,0.1-0.6,0.1-0.9c1.4,0.1,2.7,0,4-0.3
		c1.4-0.4,2.1-1.5,2.1-2.7c-1.5,0-3.1,0-4.7-0.2c-2.7-0.4-5.1-1.2-7.7-1.9c-5.4-1.5-10.9-3-15.8-5.7c-0.2-0.1-0.3,0-0.4,0.1
		c0.8,1.4,2.1,2.7,3.6,3.7c0,0.2-0.1,0.5-0.1,0.7c1.5,1.5,3.1,2.8,4.9,3.8c0.1-0.6,0.3-1.2,0.3-1.8c0.9,0.4,1.9,0.8,2.7,1.1
		c1.6,0.7,3.5,1.4,5.4,2.1c-0.1,0.4-0.2,0.9-0.3,1.3c2.4,0.6,5.1,1.2,7.7,1.5C981.1,1218.1,980.5,1217.9,979.9,1217.7L979.9,1217.7z
		"/>
	<path opacity="0.3" fill="#091426" enable-background="new    " d="M1000.4,1212.9v0.3c0.3-0.5,0.4-1.1,0.2-1.7
		c-0.7-3.1-5.5-3.5-8.1-4.1c-2.8-0.6-7.6-2.1-10.2-0.5c-0.6,0.4-0.7,1-0.5,1.6c1.4,0.6,3,0.9,4.6,1.4
		C991,1211.2,995.7,1211.9,1000.4,1212.9L1000.4,1212.9z"/>
	<path opacity="0.3" fill="#091426" enable-background="new    " d="M988.2,1222.9c-2.7-0.5-5.5-0.8-8.2-1c-1.9-0.2-3.6-0.7-5.5-0.6
		c0.3,0.4,0.6,0.7,1.1,1c1.6,1,3.9,0.9,5.7,1.4c2.6,0.7,5.1,1.7,7.7,2.5c2.9,0.9,9.2,3.6,12,1.6c0.7-0.5,1.1-1.2,1.3-1.9
		c-1.4-0.4-2.8-0.3-4.7-0.7C994.4,1224.6,991.4,1223.5,988.2,1222.9L988.2,1222.9z"/>
	<path opacity="0.3" fill="#091426" enable-background="new    " d="M1012.1,1230.8c2.1-0.4,4.3-0.4,6.4-0.4
		c-0.6-0.2-1.1-0.4-1.4-0.7s-0.4-1.1-0.4-2.1c0.7,0.1,1.5,0.1,2.2,0c1.6-0.2,3-1.6,3.1-3.1c-9.7,0.7-19.7-4.7-28.8-7.4
		c-0.4,0.8-0.2,1.8,0.4,2.5c1.1,1.3,2.8,2.1,4.6,2.8v0.1c-0.9-0.1-2.6-0.7-3.7-1.1c2.4,1.6,5.3,2.6,8,3.4c0.1-0.4,0.2-0.7,0.3-1.1
		c0.9,0.2,1.7,0.4,2.5,0.7c1.6,0.5,3.3,1.2,5,1.8c0.1,2.8,0.9,5.4,2.2,6.9c2,2.3,7,2.4,9.7,3.2c4,1.2,8,2,12.2,2.4
		c1.4,0.1,2.2-0.7,2.4-1.7c-3-0.9-6.5-1.4-9.1-2.1C1022.4,1233.5,1017.2,1232.7,1012.1,1230.8L1012.1,1230.8z"/>
	<path opacity="0.3" fill="#091426" enable-background="new    " d="M1022.3,1220.8c2-0.1,6.9,0.3,8.7,1.5c0.6,0.4,0.8,0.4,0.9,0.3
		c0,0.1,0.1,0.1,0.1,0.3v0.1c1.1-0.5,1.3-2.1,0.2-2.8c-2.1-1.3-4.6-1.3-6.9-1.3c-1.8,0-4-0.2-5.1,1.4c-0.1,0.1-0.1,0.3,0,0.5H1022.3
		z"/>
	<path opacity="0.3" fill="#091426" enable-background="new    " d="M1054.9,1232c2-0.5,2.6-2.3,2.2-3.8h3c1.6,0,3-0.2,4.6-0.2
		c0.5,0,0.9-0.5,0.8-1c-0.2-0.5-0.4-0.9-0.6-1.4c-1.5,0-3,0.1-4.6,0c-0.9-0.1-1.8-0.2-2.7-0.1c-1,0-1.4,0.3-2.4,0.5
		c-0.3,0-0.4,0.3-0.2,0.6c0.6,0.7,0.7,1.2,1.4,1.7c-3.9,0.1-7.9,0.5-11.8,0.3c-4.7-0.1-9.8-1.9-14.5-1.7c0.1,1.1,0.7,1.9,1.6,2.4
		v0.8c0,0.1,0.1,1.8,0.1,2.9c1.9,0.7,4,0.7,6,1.1c0.1-0.8,0.1-1.6,0.1-2.4c0.2,0,0.3,0.1,0.5,0.1c1.7,0.3,3.4,0.4,5.1,0.5
		c1.8,0.1,3.6,0.3,5.4,0.4c0.8,1.6,1.8,3.2,2.5,4.3c2.1,3.5,5,7.2,8.6,9.1c1.3,0.7,3.2,0.4,3.9-1c0.2-0.4,0.4-0.9,0.4-1.4
		c0-0.1,0-0.3-0.1-0.4h-0.1c-1.4-0.2-1.2,0.6-3.2-0.3c-1.1-0.5-2-1.4-2.9-2.2c-2.4-2-4.5-3.9-7-5.5c2-0.5,4.2-0.1,6.4,0.3
		C1056.5,1234.4,1055.6,1233.3,1054.9,1232L1054.9,1232z"/>
	<path fill="#FFFFFF" d="M963.4,1194c-0.6-0.3-1.4-0.2-2.1-0.5c-0.3-0.2-0.9,0.2-0.6,0.6s0.5,0.7,0.9,0.9s0.8,0.4,1.1,0.8
		c0.7,0.7,0.6,1.5,0.9,2.4c0.2,0.7,1.2,0.9,1.6,0.2c0.6-1.1,0.1-2.4-0.6-3.3C964.4,1194.6,963.9,1194.2,963.4,1194L963.4,1194z"/>
	<path fill="#FFFFFF" d="M949,1198.1c-1-0.7-1.8-1.5-2.7-2.4c-0.4-0.4-1,0.1-0.7,0.6c0.6,1,1.5,2.1,2.4,2.8c0.8,0.6,1.8,1.5,2.8,1.1
		c0.1,0,0.2-0.2,0.2-0.3C950.7,1199.1,949.7,1198.7,949,1198.1L949,1198.1z"/>
	<path fill="#FFFFFF" d="M977.9,1210.1c-2.3-0.5-4.7-1.2-7.1-1.3c-0.3,0-0.3,0.4-0.1,0.5c2.1,1.3,4.4,1.9,6.7,2.6
		c2,0.5,4.4,1.6,6.3,0.9c0.3-0.1,0.5-0.5,0.2-0.7C982.3,1210.7,979.8,1210.5,977.9,1210.1L977.9,1210.1z"/>
	<path fill="#FFFFFF" d="M989,1221.6c-0.5-0.2-1-0.2-1.5-0.4s-1-0.3-1.5-0.4c-0.3-0.1-0.6,0.3-0.3,0.6c0.8,0.7,1.9,1.2,3,1.4
		C989.4,1222.9,989.7,1221.9,989,1221.6z"/>
	<path fill="#FFFFFF" d="M1003.3,1209.2c-4.1-2.9-9.9-3.7-14.8-3.8c-0.5,0-0.5,0.8,0,0.8c2.5,0.2,5.3,0.6,7.7,1.4
		c2.3,0.8,4.3,2,6.5,2.8C1003.5,1210.8,1003.9,1209.7,1003.3,1209.2L1003.3,1209.2z"/>
	<path fill="#FFFFFF" d="M1011.9,1220.4c-2.9-0.6-6.3-1.8-9.3-1.6c-0.7,0-1.1,1-0.4,1.4c2.4,1.2,5.5,1.4,8.2,2
		c1.3,0.3,2.5,0.5,3.8,0.8c1.2,0.3,2.3,1,3.6,0.9c0.4,0,0.5-0.4,0.4-0.7C1017.2,1221,1013.9,1220.8,1011.9,1220.4L1011.9,1220.4z"/>
	<path fill="#FFFFFF" d="M1033.1,1217.6c-0.8-0.4-1.6-0.4-2.5-0.4c-1,0-2.1-0.2-3.1,0.1c-0.2,0.1-0.2,0.3-0.1,0.5
		c1.1,0.7,2.5,0.7,3.7,1c1.3,0.4,2.8,1.4,3.1,2.8c0.3,1.2,2.2,0.7,1.9-0.5C1035.9,1219.7,1034.5,1218.2,1033.1,1217.6z"/>
	<path fill="#FFFFFF" d="M1052.5,1226.2c-2.6,0-5.3,0.3-7.9,0c-2.2-0.2-4.5-1.1-6.7-0.3c-0.5,0.2-0.6,0.9,0,1
		c4.9,1.2,9.6,1.3,14.5,1.1C1053.7,1228.1,1053.7,1226.2,1052.5,1226.2L1052.5,1226.2z"/>
	<path fill="#FFFFFF" d="M1060.9,1224.8c0.9,0.2,1.2-1,0.4-1.3c-1-0.4-2.2-0.5-3.3-0.4c-1.3,0.1-2.4,0.1-3.7,0
		c-0.3,0-0.4,0.4-0.2,0.6c0.8,0.6,1.7,0.5,2.7,0.5C1058.2,1224.2,1059.5,1224.4,1060.9,1224.8L1060.9,1224.8z"/>
	<path fill="#FFFFFF" d="M1061.9,1241.7c0-0.3-0.1-0.4-0.3-0.6c-0.1-0.1-0.3-0.1-0.4-0.1c-0.8-0.5-1.6-1.1-2.4-1.7
		c-0.6-0.5-1.2-1.5-2-1.6c-0.1,0-0.1,0.1-0.1,0.1c0,0.9,1.2,1.6,1.7,2.2c0.8,0.9,1.6,1.6,2.6,2.3
		C1061.5,1242.8,1062,1242.2,1061.9,1241.7L1061.9,1241.7z"/>
	<path fill="#B97935" d="M1195,1262.2c-0.5-0.4-1-1-1.6-1.3s-1.3,0.3-0.9,0.9s1,1,1.4,1.5c0.5,0.5,1,1,1.4,1.5
		c0.8,0.9,2.2-0.5,1.3-1.3C1196,1263.1,1195.5,1262.6,1195,1262.2L1195,1262.2z"/>
	<path fill="#B97935" d="M1200,1264.4c-0.7-0.6-1.5-1.2-2.2-1.8s-1.3-1.3-2-1.8c-0.2-0.1-0.4-0.1-0.6,0c-0.1,0-0.1,0.1-0.2,0.1
		c0,0,0,0-0.1,0.1c-0.1,0.2-0.1,0.4,0,0.6c0.5,0.7,1.2,1.4,1.8,2c0.7,0.7,1.3,1.4,2.1,2c0.3,0.2,0.7,0.3,1,0.1
		c0.2-0.1,0.3-0.3,0.4-0.5C1200.3,1264.9,1200.2,1264.6,1200,1264.4L1200,1264.4z"/>
	<path fill="#B97935" d="M1164.9,1284.9c-0.8-0.6-0.9-1.8-1.9-2.2c-0.3-0.1-0.5,0.2-0.5,0.4c-0.1,1,0.9,1.9,1.3,2.8s0.8,2.2,1.9,2.4
		c0.6,0.1,1.3-0.3,1.3-1C1166.9,1286.1,1165.8,1285.7,1164.9,1284.9L1164.9,1284.9z"/>
	<path fill="#B97935" d="M1167.4,1283.7c-0.3-0.2-0.6-0.5-1-0.8c-0.1-0.1-0.3-0.2-0.5-0.3c-0.1-0.1-0.3,0-0.4-0.1
		c-0.2-0.2-0.5,0-0.4,0.3c0.1,0.2,0,0.5,0.1,0.7c0.1,0.4,0.4,0.7,0.5,1c0.4,0.7,0.8,1.3,1.4,1.8c0.3,0.3,0.7,0.4,1.1,0.3h0.1
		c0.3-0.1,0.6-0.4,0.7-0.7C1169.2,1284.9,1168.1,1284.2,1167.4,1283.7L1167.4,1283.7z"/>
	<path fill="#B97935" d="M1128.1,1291.8c-0.2,0.7-1,1-1.6,0.7c-0.3-0.2-0.6-0.4-0.8-0.7c-0.1,0.1-0.2,0.1-0.2,0.2
		c-1.5,0.9-2.4-1-2.9-2.1c-0.2-0.6-0.4-1.2-0.5-1.9c-0.2-0.8-0.7-1.3-1.2-1.9c-0.4-0.5,0.3-1.1,0.8-0.8c0.7,0.3,1.2,0.8,1.7,1.3
		c0,0,0,0,0.1,0.1c-0.2-0.4-0.4-0.9-0.6-1.3c-0.3-0.6,0.5-1,0.8-0.5c0.9,1.3,1.9,2.5,2.9,3.7
		C1127.5,1289.3,1128.4,1290.4,1128.1,1291.8L1128.1,1291.8z"/>
</g>
</svg>
