<?xml version="1.0" encoding="utf-8"?>
<!-- Generator: Adobe Illustrator 23.0.1, SVG Export Plug-In . SVG Version: 6.00 Build 0)  -->
<svg version="1.1" id="_x32_4_x5F_Bottom_x5F_Lederhosen_1_"
	 xmlns="http://www.w3.org/2000/svg" xmlns:xlink="http://www.w3.org/1999/xlink" x="0px" y="0px" viewBox="0 0 2000 2000"
	 enable-background="new 0 0 2000 2000" xml:space="preserve">
<g>
	<path fill="#254214" d="M1225.5,1369.9c-1.9-2.8-7.1-5.3-18.7-4.8l0.1-3.9l6.6-6.6c0,0,0.2-1.7-0.2-7.2c-0.2-2.9-0.6-6.9-1.2-12.2
		c-1.8-15.6-2.3-25.9-11.8-28c0,0-9.8-28.4-15.2-46.6c-5.4-18.2-6.1-19-8.1-27.8c0,0,0-0.1,0-0.1c-1-4.3-1-6.8-1.3-9.9
		c-0.3-3.2-0.8-7.2-2.9-14.8c-4.1-15-9.2-23.1-11.1-25.4c0,0,0.1-10.9-0.6-13.2c-0.4-1.4-6.4-4.1-13.6-6.8c-3.7-1.4-7.7-2.8-11.5-4
		c-0.6-0.2-1.2-0.4-1.8-0.6c0,0-0.1,0-0.1,0c-11.7-3.8-20.7-7.8-36.7-11c-16-3.2-23.6-5.6-38.9-3.9c-15.3,1.7-18.2,1.2-36.4,6.6
		c-18.2,5.4-32.1,8.3-46.7,11.5c-2.9,0.6-5.8,1.2-8.6,1.8c-11.5,2.3-22,4.1-25.9,5.7c-4.8,1.9-4.3,3.7-3.9,13.6
		c0.4,9.9-3.5,35.9-3.5,35.9s-2-0.1-3.7,2.1c-1.7,2.2,0.5,5.3-0.1,7.2c-0.7,1.9-0.5,2.2-6.3,20.1c-5.8,17.9-6,23.1-9,31.6
		c-2.9,8.5-9.3,19.4-9.3,19.4s14.1,13.5,35.9,30.9c32.7,26,51.5,57.8,51.5,57.8c19.4,1.9,31,3.9,43.6,2.9c2.4-0.2,4.8-0.5,7.4-0.9
		c15.9-2.7,14.2-3.3,26.2-5.3c6.1-1,9.7-1.2,12.7-2.4c1.7-0.6,3.2-1.6,4.8-3.1c1.2-1.2,2.5-2.7,4-4.7c0,0,11.9,5.8,37.1,7
		c25.2,1.2,38.1-0.2,52.5-7c14.9-7.1,16-8.1,17-5.4c0.1,0.2,0.1,0.4,0.2,0.6c1.8,1.6,3.2,2.8,4.2,3.8L1225.5,1369.9z"/>
	<path fill="#364242" d="M1198.2,1369.9c-0.3,0.6-1.4,0.5-1.7,2.5c-0.4,2.8-2,23.8-2.3,27.2c2.1,0.2,4,0.3,5.8,0.3l0.3-27l2-0.2
		c-1-1-2.3-2.2-4.2-3.8C1198.3,1369.4,1198.3,1369.7,1198.2,1369.9z"/>
	<path fill="#153F35" d="M1204.7,1375.3l-1.7,24.7c2.2,0,4.4-0.1,6.7-0.1c4.1-0.1,10.5-2.3,14.6-3.8c0.2-4.6,0.7-11.7,1.8-15.4
		c0.6-2.1,1-3.6,1.1-4.8c0.2-2.2-0.4-3.4-1.4-5.4c-0.1-0.2-0.2-0.4-0.3-0.6l-23.2,2.9C1204.1,1374.5,1204.7,1375.3,1204.7,1375.3z"
		/>
	<path fill="#153F35" d="M1203.1,1400l1.7-24.7c0,0-0.6-0.8-2.4-2.6l-2,0.2l-0.3,27C1201,1400,1202.1,1400,1203.1,1400z"/>
	<path fill="#28343A" d="M1247.7,1447.7l15.6-11.7c0,0-3-2.2-12.9-9.2c-9.9-7.1-13.3-13.8-18.3-18.9c-2.6-2.7-4.7-4.7-6-6
		c-1.2-1.2-1.8-1.7-1.8-1.7s0-1.7,0.1-4.2c-4.1,1.5-10.5,3.7-14.6,3.8c-2.3,0.1-4.5,0.1-6.7,0.1c-1,0-2.1,0-3.1,0
		c-1.8-0.1-3.7-0.2-5.8-0.3c0,0.3,0,0.5,0,0.5l3.4,0.6c0,0-0.2,0.6-0.4,1.6c-1.4,5.7-5.9,24.3-7.3,31.7c-1.7,8.8-3.4,13.9,5.8,21.2
		c0,0,1.8-4.1,5.9-34.9c0,0,0.4,22.4,0.9,31.6c0.5,9.3,1.2,10.1,4.8,10.9c3.6,0.8,10.1-0.1,10.8-0.9c0.7-0.8-0.6-4.9-1.1-19.1
		c-0.6-14.2,0-19.4-2-26.7c0,0,2,2.1,5.8,19.7s8.3,22.6,9.6,22.4c1.3-0.1,7.8-4.5,7.8-4.5l-6.3-15.3l5.6-2.9L1247.7,1447.7z"/>
	<path fill="#153F35" d="M1213.3,1348.1c-19.3-1-43.2-5.5-58-17.6c-14.9-12.1-47.7-4.6-47.7-4.6l-5.1,36.9c0,0,17.4,10.7,55.8,7.4
		s53.5-17.2,53.5-17.2L1213.3,1348.1z"/>
	<path fill="#153F35" d="M1057.9,1358.4c-15.2-2.1-30.9-9.2-34-10l2.6-9.7c0,0,17.2,1.6,36,2.5s24.3-2.5,24.3-2.5l-1.5-9.1
		c0,0-51.6,2.1-56.4,1.8c0,0,0.5-5.9,2.9-14.9s11.8-52.2,16.5-71c4.7-18.7,5.7-25.4,5.7-25.4h19.5l12.9,81l58.2,18.2l-9-24
		c0,0,14.3,9.4,27.6,5.8s17.5-12.1,18.5-22.3c1-10.2-4.4-16.5-4.4-16.5s3.1,16.1-7.8,21.6s-30.9,4.3-42.6-17s-20.1-51.2-20.1-51.2
		l35.7-9.9l5.1-43.5c-4.3-1.6-9.1-3.2-13.4-4.7c-11.7-3.8-20.7-7.8-36.7-11s-23.6-5.6-38.9-3.9c-15.3,1.7-18.2,1.2-36.4,6.6
		c-18.2,5.5-32.1,8.3-46.7,11.5c-2.9,0.6-5.8,1.2-8.6,1.8c-11.5,2.3-22,4.1-25.9,5.7c-4.8,1.9-4.3,3.7-3.9,13.6
		c0.4,9.9-3.5,35.9-3.5,35.9s-2-0.1-3.7,2.1c-1.7,2.2,0.5,5.3-0.1,7.2c-0.7,1.9-0.5,2.2-6.3,20.1c-5.8,17.9-6,23.1-9,31.6
		c-2.9,8.5-9.3,19.4-9.3,19.4s14.1,13.5,35.9,30.9c32.7,26,51.5,57.8,51.5,57.8c19.4,1.9,31,3.9,43.6,2.9c2.4-0.2,4.8-0.5,7.4-0.9
		c15.9-2.7,14.2-3.3,26.2-5.3c6.1-1,9.7-1.2,12.7-2.4c1.7-0.6,3.2-1.6,4.8-3.1l-0.6-17.3C1086.8,1361.2,1073.2,1360.5,1057.9,1358.4
		z"/>
	<path fill="#113230" d="M1129.8,1193.4l8.1,9.9c0,0,3.9,3.8,10.7,7.3s9.3,4.3,22.6,7.6l0.7,3.4l4,1.2c-0.3-3.2-0.8-7.2-2.9-14.8
		c-4.1-15-9.2-23.1-11.1-25.4c0,0,0.1-10.9-0.6-13.2c-0.4-1.4-6.4-4.1-13.6-6.8c-3.7-1.4-7.7-2.8-11.5-4c-0.6-0.2-1.2-0.4-1.8-0.6
		l-0.9,20.2L1129.8,1193.4z"/>
	<path fill="#113230" d="M1225.9,1370.5c-1.5-3.1-6.6-5.9-19-5.4l0.1-3.9l6.6-6.6c0,0,0.2-1.7-0.2-7.2c-7.2,3.5-24.8,11.8-37.3,14.8
		c-16.1,3.8-29.4,3.4-46.7,0.9s-22.3-9.6-22.3-9.6l5.5-18.5c0,0,23.7,1.4,43-0.7c19.3-2.2,34.3-6.4,34.3-6.4s0.6-5,2.7-5.6
		s6.7-2.1,4.3-2.1c-2.4-0.1-19.8,2.3-26.9-0.8c-7.1-3.1-18.8-4.1-35-9.7c-16.2-5.6-22.9-12.1-23.9-13.9c-0.9-1.8-0.7-3.5-3.3-3.7
		c-2.5-0.2-1.8,0.4-6.5-2.6s-3.4-3.2-7.4-12c-3.9-8.8-6.7-6.9-7.6-12.4c-0.7-4.4-4.8-30.4-6.3-40.2c5.3-1.3,10.9-3,16.1-4.8
		c3.3,9.4,15.2,42.5,21.7,54.1c7.6,13.7,15.9,19.1,28.8,22.2s23.5-0.5,28.6-8.3c5.1-7.8,4.7-16.5,3.1-24.9c0,0-2.9,11-4.8,17
		c-1.9,6-12.5,12.1-28.6,7c-16.1-5-25.7-26.2-32.8-43.7c-6.6-16.1-7.7-25.1-7.8-26.4c12-4.5,35.2-13.8,35.2-13.8l2.8-7.7l-13.5-5.3
		l2.7,8.1c0,0-20.5,6.1-31.2,10.3s-17.5,5.2-24.9,5c-7.4-0.2-34.3-4.1-51.7-5.6c-17.4-1.5-25.9-3.4-27.6-3.8
		c-1.8-0.4,0.1-2.8-0.3-8.4c-0.4-5.7-1.5-7.8-1.5-7.8l-9.1,13.9l-1.2,7.3c2.7-0.4,4.1-0.4,5.9,1.4c1.8,1.8,0.8,3.6,11.3,4.5
		c10.6,0.9,20.7,2.4,29.4,3.2c0.8,0.1,1.5,0.1,2.2,0.2c-0.7,8.6-2.8,32.2-5.6,43.2c-3.5,13.5-8.4,18.2-18.6,26.8
		c-10.2,8.5-29.1,11.7-43.4,8.5c-14.3-3.3-8.6-17.5-8.6-17.5s-2-14-2.8-13.8c-0.8,0.3-3,5-3.2,3.8c-0.1-1.2,0.7-10.3,0.8-13.6
		c0.2-3.3,1-2.3,2.2-4.8c1.2-2.5-1.5-1.3-2.6-2.5c-1.2-1.2-0.9-3.9-0.9-3.9s3-2.2,8.4-5.7c5.4-3.5,6.4-7.5,3.2-7.9
		c-3.2-0.4-14.2,3.4-14.2,3.4s-1.2-9.6-1.9-10.9c-0.8-1.3-2.8-1.7-2.8-1.7s12.2-5.3,22.9-11.3c10.7-6,13.3-10.5,11.1-10
		c-2.2,0.5-14.1,4.6-14.1,4.6s5.7-6.6,10.7-11.5s3.4-6.3,1.6-6.5c-1.8-0.3-12.3,2.5-12.3,2.5s-0.2-1.2,1.2-7.7
		c1.3-6,2.2-9.6,3.3-19.1c-11.5,2.3-22,4.1-25.9,5.7c-4.8,1.9-4.3,3.7-3.9,13.6c0.4,9.9-3.5,35.9-3.5,35.9s-2-0.1-3.7,2.1
		c-1.7,2.2,0.5,5.3-0.1,7.2c-0.7,1.9-0.5,2.2-6.3,20.1c-5.8,17.9-6,23.1-9,31.6c-2.9,8.5-9.3,19.4-9.3,19.4s14.1,13.5,35.9,30.9
		c32.7,26,51.5,57.8,51.5,57.8c19.4,1.9,31,3.9,43.6,2.9c-2.2-4.4-5.8-11.3-10.7-19.9c-8.9-15.6-7.9-28.9-7.9-28.9
		s10.1-0.9,27.3-1.3s36.7-4.7,36.7-4.7s0.6,37.7,0.5,43.5c0,0.8,0.1,1.7,0.3,2.7c2.9-1.1,5.3-3.2,8.8-7.8c0,0,11.9,5.8,37.1,7
		c25.2,1.2,38.1-0.2,52.5-7c14.9-7.1,16-8.1,17-5.4c0.3,0.8,0.3,1.2,0.2,1.5c2.1,2.3,5.4,5.6,7.2,6.1c2.7,0.6,4.8,0.7,20.9,0
		c0.4,0,0.7,0,1-0.1C1227.5,1373.7,1226.9,1372.4,1225.9,1370.5z M1074.9,1291.5c-2-1.7-2.5-2.4-4.1,2.7s-1.9,3.5,0.3,11.8
		c2.2,8.1,3.7,16.4,3.8,16.6c-0.5-0.2-15.9-7.6-20.4-12.1c-4.6-4.5-6.9-2.8-6.4,0.6c0.5,3.4,4.6,5.8,10,10.2c5.4,4.4,0.7,3-3.7,2.9
		s-3.3,0.6-6.9,2.5c-3.7,1.9-7.3,0.7-12.1-0.7c-4.8-1.4-3.6,1.9-11.6,1.6c-8-0.4-15.2-3.5-30.6-10.6c-15.4-7.2-18.3-8.8-18.3-8.8
		c20.5-0.6,37.9-7.2,46.2-15.7c8.2-8.6,14.7-24.4,18.6-51.9c1.6-11.2,2.2-17.2,2.3-20.4c2.6,0.6,5.5,1.2,9.9,1.6
		c6,0.6,7.8,2.4,10,3.7c-0.1,1.1-0.1,2.3,0,3.6c0.2,4.2,0.2,3.4,3.6,4.2c3.4,0.8,4.6,1.3,5.3,4.8c0.7,3.6,1.6,14.7,1.5,24.5
		c-0.1,9.8,2.4,8.6,3.9,20.4C1077.6,1295,1076.9,1293.2,1074.9,1291.5z"/>
	<g>
		<path fill="none" d="M1077.8,1215.4c-0.2,0-0.5-0.1-0.7-0.1c-0.3,0.3-0.8,0.4-1.4,0.3c-0.2,0-0.4,0-0.7-0.1c0.1,0.3,0.2,0.7,0.3,1
			c1,0.1,1.9,0.2,2.8,0.3c-0.1-0.5-0.1-1-0.1-1.5C1078,1215.4,1077.9,1215.4,1077.8,1215.4z"/>
		<path fill="none" d="M1086,1215.6c0,0.1,0.1,0.2,0.1,0.4c0.4-0.2,0.9-0.4,1.4-0.7c0.7-0.4,1.8-0.9,3-1.3c-1.4,0.4-2.8,0.8-4.2,1.1
			C1086.2,1215.2,1086.1,1215.4,1086,1215.6z"/>
		<path fill="none" d="M1081.7,1215.6c0.2,0.4,0.3,0.9,0.5,1.4c0.6,0,1.1-0.1,1.6-0.2c0-0.4-0.1-0.9-0.1-1.3
			C1083.1,1215.5,1082.4,1215.6,1081.7,1215.6z"/>
		<path fill="none" d="M1111.9,1206.4c6.1-1.5,13.3-3.2,16.2-5.1C1122.6,1202.6,1117.2,1204.4,1111.9,1206.4z"/>
		<path fill="none" d="M1197.1,1311.7c-6.9,3.4-14.7,5.6-21.7,9.1c1.3,0.2,2.6,0.4,3.8,0.7
			C1186.3,1319.6,1193.5,1316.8,1197.1,1311.7z"/>
		<path fill="none" d="M1083.9,1180.2c0.7,0.7,1.8,1.3,2.5,0.8c0.4-0.3,0.4-1.5,0.4-1.9c0-0.7-0.3-1.4-0.9-1.9c-0.4-0.4-1.4-1-2-0.7
			c-0.5,0.2-0.7,1.1-0.6,1.6C1083.3,1178.9,1083.9,1179.5,1083.9,1180.2z"/>
		<path fill="none" d="M1045.6,1212.8l23.9,2.8c0,0,1.6,0.3,3.6,0.6c-0.1-0.3-0.1-0.6-0.1-0.9
			C1063.9,1214.6,1054.8,1213.7,1045.6,1212.8z"/>
		<path fill="none" d="M1117.7,1224.7c-0.2,0.3-0.7,0.3-1,0.1c-1.1-0.7-0.9-2.6-0.9-3.8c0-0.9,1.2-1,1.5-0.2
			c0.2,0.6,0.5,1.3,0.6,1.9C1118.1,1223.5,1118.2,1224.1,1117.7,1224.7z M1119.6,1234.9c-0.2-1.1-0.2-2.2-0.3-3.3
			c-0.1-0.6,0.5-1,1-1c0.6,0,0.9,0.5,1,1c0.1,1,0.3,2,0.3,3C1121.7,1235.8,1119.8,1236.1,1119.6,1234.9z M1125.4,1243.6
			C1125.4,1243.7,1125.4,1243.7,1125.4,1243.6c-0.4,0.5-0.7,0.6-1.2,0.5c0,0-0.1,0-0.1,0c-0.4-0.1-0.7-0.5-0.8-0.8
			c-0.2-0.6-0.5-1.3-0.6-2c-0.1-0.1-0.2-0.2-0.2-0.3c0,0,0,0,0,0c-0.2-0.6,0.1-1.4,0.8-1.3c0.3,0,0.6,0.1,0.7,0.4
			c0.3,0.2,0.5,0.5,0.7,0.8c0.3,0.5,0.5,1.1,0.8,1.6C1125.6,1242.8,1125.7,1243.3,1125.4,1243.6z M1128.3,1254.6
			c-1.1-0.1-1.5-0.8-1.8-1.7c-0.2-0.7-0.3-1.4-0.5-2.2c-0.4-1.6,1.9-2.2,2.4-0.7c0.3,0.7,0.5,1.6,0.8,2.2c0.1,0.2,0.2,0.3,0.3,0.5
			C1129.9,1253.6,1129.3,1254.7,1128.3,1254.6z M1134.6,1264.3c-0.7,0.4-1.6,0.2-2-0.5c-0.5-0.8-0.9-1.7-1.2-2.6
			c-0.4-1.1,1.1-1.7,1.8-1.1c0.7,0.7,1.3,1.4,1.9,2.2C1135.6,1263,1135.2,1263.9,1134.6,1264.3z M1168.8,1276.2
			c-0.3,0.3-0.6,0.6-0.9,0.7c-0.1,0.1-0.1,0.2-0.2,0.3c-0.5,1.2-2.2,0.3-1.4-0.8c0.1-0.1,0.1-0.1,0.1-0.2c-0.1-0.3-0.1-0.6-0.1-1
			c0-0.7,0.3-1.5,0.8-2c0.7-0.7,1.9-0.3,2.2,0.6C1169.5,1274.6,1169.3,1275.5,1168.8,1276.2z M1169.8,1271.1
			c-0.5,1.4-2.7,0.8-2.2-0.6c0.2-0.5,0.3-1,0.4-1.5c0.1-0.5,0-1.1,0-1.6c0.1-1.6,2.4-1.6,2.5,0
			C1170.5,1268.6,1170.1,1270,1169.8,1271.1z M1170,1258.6c0.2,0.7,0.4,1.5,0.3,2.2c0,0.4-0.1,0.9-0.4,1.2c-0.1,0.1-0.2,0.2-0.3,0.3
			c-0.1,0.1-0.2,0.2-0.3,0.2c0.1,0,0.1,0,0.1-0.1c-0.3,0.4-1.1,0.2-1.2-0.3c0,0,0-0.1,0-0.1c-0.5-0.8-0.2-1.9-0.4-2.9
			C1167.4,1257.7,1169.5,1257.2,1170,1258.6z M1165.8,1248.1c1.5,0,1.6,2.6,1.7,3.6c0.1,0.6-0.6,1.1-1.1,1.1c-0.7,0-1.1-0.5-1.1-1.1
			C1165.2,1250.8,1164.1,1248.2,1165.8,1248.1z M1164.2,1281.6c-0.8,0.7-1.7,1.3-2.8,1.2c-1.1-0.1-1.2-1.5-0.2-1.8
			c0.4-0.2,0.9-0.4,1.2-0.8c0.1-1,1.1-1.8,2.2-1.2C1165.6,1279.6,1165.3,1281.2,1164.2,1281.6z M1162.1,1239.4
			c0.4,0.4,0.6,0.9,0.8,1.4c0.2,0.5,0.4,0.9,0.6,1.4c0.3,0.7,0.2,1.5-0.5,2c-0.6,0.4-1.6,0.2-2-0.5c-0.2-0.5-0.4-1-0.7-1.5
			c-0.3-0.6-0.6-1.2-0.6-1.8C1159.8,1239.1,1161.3,1238.6,1162.1,1239.4z M1141.7,1273.7c-0.2,0.8-1.2,1.1-1.8,0.7
			c-0.6-0.3-1.1-1.1-1.4-1.6c-0.2-0.3-0.2-0.6-0.4-0.9c-0.1-0.2-0.3-0.5-0.5-0.7c-0.4-0.5-0.1-1.2,0.3-1.5c0.5-0.4,1.1-0.3,1.6,0.1
			C1140.6,1270.8,1142.1,1272.1,1141.7,1273.7z M1147.4,1279.3c-0.3,0.7-1.2,1-1.9,0.6c-1-0.5-1.8-1.4-2.3-2.4
			c-0.3-0.6-0.2-1.3,0.4-1.7c0.6-0.3,1.3-0.1,1.7,0.4c0.2,0.3,0.3,0.5,0.6,0.8c0.2,0.2,0.5,0.4,0.6,0.4
			C1147.3,1277.8,1147.7,1278.5,1147.4,1279.3z M1154.3,1227.5c0.7-0.2,1.2,0.2,1.7,0.7c0.4,0.5,0.5,1.1,0.7,1.7
			c0.2,0.5,0.3,1,0.5,1.6c0.2,0.7-0.2,1.4-0.8,1.6c-0.6,0.2-1.4,0.1-1.7-0.6c-0.5-1.1-1.3-2.3-1.4-3.6
			C1153.1,1228.3,1153.7,1227.7,1154.3,1227.5z M1152.1,1281.2c0.6-0.2,1.2-0.1,1.8-0.1c0.6,0,1.3,0,1.9,0.2
			c0.4,0.2,0.7,0.5,0.7,0.9c0,0.4-0.3,0.9-0.7,0.9c-0.7,0.1-1.3-0.1-2-0.2c-0.6-0.1-1.3-0.2-1.8-0.5
			C1151.4,1282.2,1151.6,1281.4,1152.1,1281.2z M1148.5,1216.8c0.8,0.2,1.3,1,1.8,1.7c0.4,0.7,0.7,1.5,1,2.3c0.5,1.3-1.7,2.2-2.3,1
			c-0.3-0.7-0.7-1.4-1.1-2.1c-0.3-0.7-0.7-1.4-0.6-2.2C1147.5,1216.9,1148.1,1216.7,1148.5,1216.8z"/>
		<path fill="none" d="M1120.1,1169.9c-3.4-7.1-3.8-11.7-3.5-14.2c0,0,0,0-0.1,0c-5.3-1.8-10.6-3.5-16-4.9
			c-11.2-3-22.5-4.7-34.1-4.5c-11.9,0.3-23.7,2.1-35.2,5c-4,1-8,2.2-12,3.3c-1.6,0.6-3.2,1.1-4.9,1.7c-3.6,1.2-7.2,2.3-10.9,3.4
			c-2.9,0.8-7.1,1.4-9.5,3.4c-4.3,3.5-0.8,8.7,0.8,12.7c1.4,3.3,2.2,6.7,2.8,10.2c0.9,5.4,0.6,10.7-0.2,16c12.2-0.6,24,4.1,36.2,5.3
			c14.1,1.4,28.2,2.6,42.3,3.9c0.1,0,0.2,0,0.2,0.1c0.2,0,0.4,0,0.6,0c6.4,0.3,12.1-1.3,18.1-3.1c11.8-3.6,23.3-7.5,35.4-10.2
			c-1.6-1.1-3.3-2.1-4-4c-1.1-2.6,0.2-5.3,1.3-7.7c0.7-1.3,1.4-2.6,2.2-3.8C1127.4,1180.8,1123.7,1177.2,1120.1,1169.9z
			 M1097.4,1197c-1.9,2.1-5.1,1.6-7.1,0c-1.3-1.1-1.5-2.9-0.8-4.3c-5.7-0.5-10.8-2.2-14.5-7.1c-3.1-4.1-4.7-10.9-4.4-16.5
			c-1,0.6-2.2,1-3.3,1.2c2.5,8,2.4,17,3,25.3c2.2,0.3,3.9,2.8,3.9,4.9c0,2.7-1.9,4.8-4.6,4.6c-2.7-0.2-5.5-1.9-5.7-4.9
			c-0.2-2.6,2.1-4.1,4.4-4.4c-0.7-8.5-1.3-17-2.4-25.4c-1.4,0.1-2.8,0-4-0.4c-0.3,4-0.5,8-0.7,12c-0.1,2.2,0.1,4.7-1.2,6.5
			c-2.5,3.8-10,5.7-14.7,7.2c0.4,0.5,0.7,1.1,0.9,1.6c1.3,3.3-2.3,4.7-5,4.6c-1.4-0.1-3-0.3-3.9-1.5c-0.8-1.1-1.1-2.6-0.8-3.8
			c0.6-2.6,3.8-4.1,6.2-2.9c0.1,0,0.2,0.1,0.2,0.2c0.1,0,0.2,0.1,0.3,0.1c0,0,0,0,0,0c4.8-1.6,13.7-3.7,15.3-9
			c0.7-2.5,0.3-6,0.4-8.7c0-0.6,0-1.1,0-1.7c-2.5,2.5-6.5,4.1-10,4.2c0.3,0.8,0.3,1.7,0,2.5c0,0.7-0.2,1.3-0.7,2
			c-1,1.3-2.5,2.5-4.2,2.6c-3,0.2-6.2-1.8-5.4-5.2c0.7-2.9,3.8-5.3,6.8-4.8c0.8,0.1,1.6,0.5,2.3,1c2-0.5,4-0.7,5.9-1.5
			c2.9-1.1,5.9-4,5-7.5c0-0.1,0-0.2,0-0.2c-0.3-0.4-0.6-0.9-0.8-1.4c0-0.1,0-0.1,0-0.2c0,0-0.1-0.1-0.1-0.1c-0.8-0.9-1.3-2-1.7-3.1
			c-1.1,0.2-2.2,0.2-3.3,0.2c-1.4,0.1-2.7,0.4-4,0.6c-1.1,0.2-1.5-1.3-0.5-1.7c1.4-0.5,2.9-1,4.3-1.6c1-0.3,2-0.5,3.1-0.5
			c0-0.8,0.1-1.5,0.3-2.3c1.7-6.2,8.6-10.1,14.5-7.3c3.6,1.7,5.3,5,5.4,8.5c1.1-0.2,2.2-0.1,3.2-0.1c1.5,0,3.1-0.2,4.3,0.8
			c0.4,0.4,0.5,1.3,0,1.7c-1.2,1-2.5,0.7-4,0.7c-1.2,0-2.6,0.1-3.8-0.1c-0.4,1.6-1.1,3.2-2.1,4.5c-0.2,0.3-0.5,0.6-0.8,0.9
			c1.1,4.4,4.4,6.9,7.8,9.5c0.1-0.7,0.4-1.4,0.9-1.9c1.9-2,5.1-1.1,6.7,0.8c1.4,1.7,1.8,5.6-0.2,7.1c-2.1,1.6-5.1-0.3-6.1-2.3
			c-0.3-0.3-0.6-0.8-0.8-1.2c-2.2-1.6-4.8-2.7-6.7-4.7c-0.2-0.2-0.4-0.5-0.6-0.7c0.4,2.9,0.7,5.8,2.2,8.4c3.2,5.9,9,7.8,15.3,8
			c0,0,0,0,0.1,0c1.9-1.3,4.2-1.8,6.1,0.2C1099,1192.4,1099,1195.2,1097.4,1197z"/>
		<path fill="none" d="M994.8,1206.4c-1.4,0.1-2.3-1.4-2-2.7c0.8-3.3,1-6.6,0.8-9.9c-1.4,2.4-2.8,4.7-4.4,7c0.2-0.1,0.4-0.1,0.6,0
			c1-1.4,1.9-1,1.9,0.9c0,2.8-1.6,5.9,4.5,6.7c5.2,0.7,24.7,1.9,30.7,2.3C1016.2,1208.9,1005.8,1205.7,994.8,1206.4z"/>
		<path fill="none" d="M1083.1,1263.1c0,0,0.6,0.5,1.5,1.4c-0.9-8-1.9-16-3-24c-0.6-4.5-1.2-9-1.8-13.5c-0.1-0.5-0.1-1-0.2-1.4
			c-0.9,0.2-1.4,0.2-1.4,0.2L1083.1,1263.1z"/>
		<path fill="none" d="M1068.7,1152.9c-4.5-1.6-9.7,1.6-10.6,6.3c-0.7,3.8,1.5,6.1,4.4,7.6c3.2,0.9,6.5,1.3,9-1.9
			C1074.6,1160.9,1073.8,1154.7,1068.7,1152.9z"/>
		<path fill="none" d="M1095.3,1192c-1.1-0.8-2.1-0.4-3.1,0.2c-0.1,0.2-0.2,0.3-0.3,0.4c-0.8,1.2-1.1,2.2,0.4,3.2
			c1.2,0.7,2.8,0.8,3.6-0.5C1096.6,1194.1,1096.4,1192.7,1095.3,1192z"/>
		<path fill="none" d="M988,1205.3c0.1-1.1,0.2-2.3,0.3-3.4c-0.9,1.3-1.9,2.5-2.9,3.7c-3.6,17.2-9.3,33.3-17,49.2
			c-4,8.4-8.1,16.6-9.1,26c-0.6,6.1,0.2,11.6,6.7,13.6c4.2,1.3,9.2,0.8,13.5,0.7c17.7-0.7,36.1-9.2,42.5-26.8
			c3.2-8.8,3.9-18.4,5.2-27.6c1-7.4,1.9-14.8,2.8-22.3c-13.5-1.8-40.7-5.6-41.9-7.3C986.8,1209.4,987.2,1208.1,988,1205.3z
			 M963.2,1283.3c-0.1,0.7-0.1,1.5,0,2.3c0.1,1-1.3,1.4-1.5,0.4c-0.1-0.9-0.2-1.7-0.1-2.6c0.1-0.8,0.1-1.7,0.7-2.2
			c0.3-0.3,1-0.2,1.2,0.3C963.5,1282.1,963.3,1282.7,963.2,1283.3z M962.7,1277c-0.3-0.8,0-1.7,0.2-2.5c0.2-0.8,0.5-1.7,1-2.3
			c0.7-0.9,2.4-0.4,1.9,0.8c-0.3,0.7-0.6,1.4-0.8,2.1s-0.2,1.5-0.5,2.2C964.2,1278.1,963,1277.7,962.7,1277z M967.1,1292.3
			c-0.6,0.2-1.2-0.3-1.7-0.7c-0.5-0.4-0.9-0.8-1.3-1.3c-0.5-0.7,0.3-1.6,1-0.9c0.4,0.4,0.8,0.8,1.3,1.1c0.5,0.3,1.1,0.5,1.3,1.1
			C967.7,1291.9,967.4,1292.2,967.1,1292.3z M969,1262.7c-0.3,0.6-0.6,1.2-0.7,1.8c-0.2,0.9-1.6,0.5-1.4-0.4
			c0.2-0.8,0.4-1.5,0.8-2.2c0.3-0.6,0.8-1.5,1.5-1.6c0.5-0.1,0.9,0.3,0.8,0.8C970,1261.7,969.3,1262.2,969,1262.7z M974.8,1293.4
			c-0.6,0.1-1.2,0-1.7-0.1c-0.6-0.2-1-0.5-1.5-0.9c-0.5-0.3-0.2-1.3,0.4-1c0.4,0.2,0.9,0.2,1.4,0.3c0.5,0.1,1,0.1,1.4,0.2
			C975.5,1292.1,975.6,1293.3,974.8,1293.4z M974.7,1251.2c-0.4,0.8-0.8,1.5-1.4,2.1c-0.4,0.4-1.2,0-1-0.6c0.2-0.8,0.5-1.5,0.9-2.3
			c0.3-0.7,0.5-1.5,1-2.1c0.4-0.5,1.3-0.1,1.3,0.5C975.5,1249.7,975,1250.5,974.7,1251.2z M979.5,1240.6c-0.3,1.2-0.8,2.3-1.3,3.4
			c-0.4,0.9-2,0.2-1.6-0.7c0.4-1.2,0.8-2.3,1.4-3.4C978.4,1239.1,979.7,1239.7,979.5,1240.6z M983.3,1293.2c-0.5,0.3-1,0.4-1.5,0.4
			c-0.7-0.1-1.1-0.2-1.5-0.7c-0.4-0.5,0.1-1.3,0.6-1.4c0.4-0.1,0.7,0,1,0c0.3,0,0.6,0,1,0C983.8,1291.2,984.1,1292.7,983.3,1293.2z
			 M983.8,1231c-0.7,1.2-1.3,2.4-1.8,3.6c-0.4,0.9-1.9,0.3-1.6-0.7c0.4-1.4,1-2.7,1.7-3.9C982.7,1228.9,984.5,1229.9,983.8,1231z
			 M987.4,1219.8C987.4,1219.9,987.4,1219.9,987.4,1219.8c-0.1,0.2-0.2,0.3-0.3,0.4c0,0.1,0,0.1-0.1,0.2c-0.1,0.2-0.2,0.4-0.2,0.6
			c-0.1,0.3-0.2,0.6-0.3,0.9c-0.3,0.7-0.5,1.4-0.8,2.1c-0.5,1.2-2.4,0.7-2-0.5c0.5-1.2,0.9-2.4,1.3-3.6c0.3-0.9,0.9-1.9,2-1.3
			C987.5,1218.8,987.6,1219.4,987.4,1219.8z M1023.7,1223.8c0-0.3,0.3-0.5,0.6-0.6c0.2-0.1,0.4,0,0.6,0.1c0.2,0.1,0.4,0.4,0.4,0.7
			c-0.1,0.7-0.1,1.5-0.3,2.2c-0.2,0.9-1.6,0.7-1.6-0.2C1023.4,1225.3,1023.6,1224.5,1023.7,1223.8z M1023.1,1234.1
			c0.3-1,1.8-0.8,1.8,0.2c0,0.8-0.3,1.7-0.5,2.5c-0.2,0.9-1.7,0.7-1.6-0.2C1022.9,1235.8,1022.9,1234.9,1023.1,1234.1z
			 M1020.9,1245.5c0.3-1.1,1.9-0.8,1.9,0.3c0,1-0.3,1.9-0.3,2.9c0,0.9-1.4,1.1-1.5,0.2C1020.8,1247.7,1020.6,1246.6,1020.9,1245.5z
			 M1018.3,1257.2c0.2-0.6,0.5-1.4,1.2-1.6c0.4-0.1,0.8,0.1,1,0.4c0.4,0.6,0.1,1.2-0.1,1.8c-0.2,0.5-0.3,1.1-0.6,1.6
			c-0.4,0.7-1.5,0.6-1.7-0.2C1018.1,1258.5,1018.1,1257.8,1018.3,1257.2z M1014.2,1270.9c0.3-0.9,0.7-1.7,1.2-2.5
			c0.5-0.7,1-1.7,2-1.7c0.3,0,0.7,0.3,0.8,0.6c0.2,0.9-0.5,1.6-1,2.3c-0.5,0.7-1.1,1.4-1.7,2
			C1015,1272.2,1013.9,1271.7,1014.2,1270.9z M1009.1,1279.5c0.4-0.7,0.7-1.3,1.2-1.9c0.5-0.6,1.1-1.3,1.9-1.2c0.5,0,0.9,0.6,0.7,1
			c-0.1,0.6-0.7,1.1-1.1,1.6c-0.5,0.5-1,0.9-1.5,1.5C1009.7,1281.1,1008.7,1280.2,1009.1,1279.5z M1002.6,1285.8
			c0.3-0.5,0.6-1,1-1.5c0.4-0.5,0.8-0.9,1.3-1.3c0.8-0.6,2,0.6,1.4,1.4c-0.4,0.5-0.8,0.9-1.3,1.3c-0.5,0.4-1,0.7-1.5,1
			C1003,1287.1,1002.2,1286.3,1002.6,1285.8z M996.1,1287.1c0.7,0,1.2-0.6,1.9-0.4c0.3,0.1,0.6,0.4,0.6,0.8
			c-0.1,1.3-1.8,1.5-2.8,1.3C994.9,1288.6,995.1,1287.1,996.1,1287.1z M989.7,1289.2c0.4-0.1,0.7-0.1,1,0c0.8,0.3,1.1,1.4,0.2,1.8
			c-0.3,0.2-0.6,0.2-1,0.2c-0.5,0-1-0.4-1-0.9C988.8,1289.9,989.2,1289.3,989.7,1289.2z"/>
		<path fill="none" d="M1180.4,1316.9c4.4-1.9,8.7-4.2,13.2-6c-4.3-0.3-8.4,0.1-12.7,2c-3.3,1.5-7.2,3.9-9.9,7
			c0.6,0.1,1.2,0.2,1.7,0.3C1175.1,1319,1177.7,1318.1,1180.4,1316.9z"/>
		<path fill="none" d="M1198.2,1323.6c0-0.8-0.1-1.6-0.2-2.4c-2.9,5.7-6,11.3-8.3,17.3c-0.8,2.1-3.9,9.4-2.9,11.6
			c2.5,5.5,8-5.8,8.5-7.3c1-3.5,1.9-6.9,2.4-10.4c-1.9,4-3.9,7.9-5.7,11.9c-0.4,0.9-1.6,0.1-1.2-0.7
			C1193.5,1337.3,1196.4,1330.5,1198.2,1323.6z"/>
		<path fill="none" d="M1066.2,1201.1c0.6,1.3,2.2,2.1,3.6,2c1.6-0.1,2.7-1.6,2.4-3.2c-0.3-1.2-1.2-1.8-2.3-2.2
			c-0.2,0.1-0.4,0.1-0.6,0.1C1067.5,1198,1065.2,1199,1066.2,1201.1z"/>
		<path fill="none" d="M1181.6,1298c-0.5-1-2-1-3-0.8c-1.9,0.5-1.9,2.2-1.7,3.9c0.2,1.8,1.2,3,3,2c1.7-0.9,1.8-3.1,1.7-4.8
			C1181.6,1298.3,1181.6,1298.2,1181.6,1298C1181.6,1298.1,1181.6,1298,1181.6,1298z"/>
		<path fill="none" d="M1019.1,1305.9c-2,1.1-2.5,3.8-1.1,5.8c0.6,0.5,1.4,0.6,2.3,0.5c1-0.1,2.4-0.1,3.2-0.9
			c0.9-0.9,0.6-2.2,0.2-3.2C1023,1305.9,1021.4,1304.7,1019.1,1305.9z"/>
		<path fill="none" d="M1043,1196.3c-0.1-0.1-0.2-0.2-0.3-0.3c-0.2-0.2-0.4-0.4-0.7-0.6c-1.4-0.1-2.6,0.2-3.1,1.7
			c-0.6,1.8,0.7,2.7,2.4,2.8c0.7,0,1.8,0,2.4-0.4c0.8-0.5,0.5-1.6,0-2.3C1043.5,1196.9,1043.3,1196.6,1043,1196.3z"/>
		<path fill="none" d="M1196.4,1309.5c-0.2-0.1-0.4-0.1-0.7-0.2l0,0C1196,1309.3,1196.2,1309.4,1196.4,1309.5
			C1196.4,1309.5,1196.4,1309.4,1196.4,1309.5C1196.4,1309.4,1196.4,1309.4,1196.4,1309.5z"/>
		<path fill="none" d="M1045,1178.9c-1.6-0.5-3.2,0.3-3.9,1.7c-0.4,0.8-0.6,2.1,0.3,2.7c0.6,0.4,1.8,0.5,2.5,0.4
			c0.9-0.1,1.8-0.8,2.5-1.4c0.4-0.3,0.6-0.8,0.7-1.3c-0.1-0.2-0.2-0.5-0.3-0.7C1046.4,1179.7,1045.8,1179.1,1045,1178.9z"/>
		<path fill="none" d="M996.4,1320c1.5,0.5,2.6,0.9,3.7,1.2c-2.9-1.9-6-3.3-9.3-4.3C992.8,1318.3,994.8,1319.4,996.4,1320z"/>
		<path fill="none" d="M1196.2,1309C1196.2,1309,1196.2,1309,1196.2,1309C1196.2,1309,1196.2,1309,1196.2,1309L1196.2,1309z"/>
		<path fill="#113230" d="M1157.5,1213.9c0.2,0.1,0.4,0.2,0.7,0.3c6.5,2.9,8.1,2,9.8,4.2c1.5,1.8,4.1,5.5,9.2,14.1
			c-1.5-6.7-0.8-8.8-2.2-16l-14.5-1.8C1160.5,1214.7,1159.3,1214.4,1157.5,1213.9z"/>
		<path fill="#113230" d="M1137.6,1158.9c0.1,0.2,0.2,0.3,0.2,0.5c0.9,4.2,0.6,8.9-0.2,13.3c0.7-1.5,1.6-3.2,2.5-5.1l0-0.5
			c0,0-0.1,0-0.1,0c-1-0.3-0.7-1.7,0.2-1.7l0.3-5.5c-1.4-0.5-2.8-1-4.2-1.4l0,0l0,0C1136.7,1158.6,1137.1,1158.8,1137.6,1158.9z"/>
		<path fill="#E2B625" d="M1196.4,1309.4c-0.1-0.1-0.1-0.3-0.2-0.4c0,0,0,0-0.1,0c-0.1,0.1-0.2,0.2-0.4,0.2
			C1196,1309.4,1196.2,1309.4,1196.4,1309.4C1196.4,1309.4,1196.4,1309.4,1196.4,1309.4z"/>
		<path fill="#E2B625" d="M973.8,1168.1c2.7,0.6,5.3-0.8,7.8-1.4c0.8-0.2,0.8-1.4,0-1.6c-1.3-0.5-2.6-0.1-4,0.2
			c-1.4,0.4-2.8,0.8-4,1.7C973.3,1167.2,973.3,1168,973.8,1168.1z"/>
		<path fill="#113230" d="M1133.8,1161.8c-0.2-0.1-0.4-0.1-0.7-0.2c-5.3-2.6-11-4-16.6-5.9c-0.2,2.5,0.1,7.1,3.5,14.2
			c3.6,7.3,7.3,10.9,9.5,12.6c1.6-2.5,3.3-5,4.1-8C1134.9,1170.1,1134.3,1166.1,1133.8,1161.8z"/>
		<path fill="#E2B625" d="M1079.8,1226.9c0.6,4.5,1.2,9,1.8,13.5c1,8,2.1,16,3,24c1,1,2.4,2.4,3.8,4c-0.1-0.5-0.1-1-0.2-1.4
			c-1.1-9.8-2.2-19.7-3.4-29.5c-0.5-3.9-0.6-8.5-1.2-13c-1.8,0.5-3.2,0.8-4.1,1C1079.6,1226,1079.7,1226.4,1079.8,1226.9z"/>
		<path fill="#E2B625" d="M1027.3,1240.8c-1.3,9.2-2,18.8-5.2,27.6c-6.4,17.6-24.8,26.1-42.5,26.8c-4.4,0.2-9.3,0.7-13.5-0.7
			c-6.5-2.1-7.3-7.5-6.7-13.6c1-9.4,5-17.6,9.1-26c7.6-15.9,13.3-32,17-49.2c1-1.2,2-2.5,2.9-3.7c-0.1,1.1-0.2,2.2-0.3,3.4
			c0.2-0.5,0.3-1.1,0.5-1.8c0.4-1.2,0.8-2.1,1.2-2.7c-0.2-0.1-0.4-0.1-0.6,0c1.6-2.3,3-4.6,4.4-7c0.2,3.3,0,6.6-0.8,9.9
			c-0.3,1.2,0.6,2.7,2,2.7c11-0.7,21.4,2.6,32.1,4.4c1.1,0.1,1.8,0.1,1.8,0.1l17,2c9.1,0.9,18.2,1.7,27.3,2.6c0,0.3,0.1,0.6,0.1,0.9
			c0.7,0.1,1.5,0.2,2.3,0.3c-0.1-0.3-0.2-0.7-0.3-1c0.2,0,0.4,0,0.7,0.1c0.6,0.1,2.3-0.1,2.3-0.1c0,0.5,0.1,0.8,0.1,1.3
			c0.4,0,0.8,0.1,1.2,0.1c1.1,0,2,0,2.8,0c-0.2-0.5-0.3-0.9-0.5-1.4c0.7,0,1.3-0.1,2-0.2c0,0.4,0.1,0.9,0.1,1.3
			c0.7-0.2,1.4-0.4,2.2-0.8c0-0.2,0-0.3-0.1-0.4c0.1-0.2,0.2-0.3,0.3-0.6c1.4-0.3,2.8-0.7,4.2-1.1c4-1.5,9.8-3.1,12.5-4.8
			c1.3-0.8,4.8-1.8,8.9-2.8c5.3-1.9,10.7-3.7,16.2-5.1c0.4-0.2,0.7-0.5,0.9-0.8c1.3-1.6,1.9-1.8,2.1-1.9c-0.3-0.7-0.7-1.5-1-2.4
			c-2-5.7-1.9-3.4,0-9.1c0.7-2,1.4-2.9,2.2-3.7c0.5-1,1.1-2.3,2.1-4.1c0.2-0.9,0.3-2.1,0.5-3.6c-1.5,4.4-3.2,8.1-3.2,8.1
			s-0.8-0.3-2-1.2c-0.8,1.2-1.6,2.5-2.2,3.8c-1.2,2.4-2.4,5-1.3,7.7c0.8,1.9,2.4,2.9,4,4c-12,2.7-23.5,6.6-35.4,10.2
			c-6.1,1.8-11.8,3.3-18.1,3.1c-0.2,0-0.4,0-0.6,0c-0.1,0-0.2,0-0.2-0.1c-14.1-1.3-28.2-2.5-42.3-3.9c-12.2-1.2-23.9-5.9-36.2-5.3
			c0.8-5.3,1.1-10.6,0.2-16c-0.6-3.5-1.5-6.9-2.8-10.2c-1.7-4-5.1-9.1-0.8-12.7c2.4-2,6.6-2.6,9.5-3.4c3.7-1,7.3-2.2,10.9-3.4
			c1.6-0.6,3.2-1.1,4.9-1.7c4-1.2,8-2.3,12-3.3c11.6-2.9,23.3-4.7,35.2-5c11.6-0.3,22.9,1.5,34.1,4.5c5.4,1.4,10.7,3.1,16,4.9
			c0,0,0,0,0.1,0c0.1-1.5,0.5-2.2,0.5-2.2c0.4,0.1,18.6,6.9,18.6,6.9s0.1,0.1,0.2,0.2c0.1-0.8,0.2-1.6,0.3-2.3
			c-0.7-0.2-1.3-0.4-1.9-0.6c-11.7-3.8-20.7-7.8-36.7-11c-16-3.2-23.6-5.6-38.9-3.9c-15.3,1.7-18.2,1.2-36.4,6.6
			c-11.1,3.3-20.6,5.7-29.6,7.7c-1.3,0.7-2.5,1.6-3.5,2.7c-4.5,4.8-2.5,11.2-0.2,16.5c1.3,3,2.5,6.1,3.3,9.3
			c-6.4,11.5-13.8,22.8-25.6,29.4c-5.2,2.9-11,4.5-17,4.8c-6.2,2.2-7.5,3-6.7,4.9c7.7,0.9,15.7-0.3,22.8-3.5
			c5.8-2.6,10.9-6.3,15.4-10.7c-4.2,14.5-9.4,28.9-15.8,42.5c-3.4,7.2-7.2,14.2-8.9,22c-1.2,5.6-2.5,13.1,1.1,18.1
			c3.7,5.1,10.2,6.1,16.1,6.1c7.4,0,15.3-0.2,22.5-2.5c13-4.2,24.7-13.7,29.5-26.6c3.4-9,4.2-18.8,5.5-28.3
			c1.1-7.6,2.2-15.2,3.5-22.7c-1.2-0.2-2.7-0.3-4.4-0.6C1029.3,1226,1028.4,1233.4,1027.3,1240.8z"/>
		<path fill="#E2B625" d="M1175.3,1278c4.7-11.5,3.7-22.2-1.3-33.2c-3.2-7-8.1-13.2-12.1-19.7c-2.4-3.8-4.6-7.7-6.4-11.8
			c-2-0.6-4.3-1.4-6.1-2.3c1.8,4.5,4,8.8,6.6,12.9c4.2,6.7,9.2,12.9,13,19.9c2.9,5.3,5.1,11.1,5.5,17.2c0.4,6.7-0.7,15.8-5.3,21.1
			c-6.6,7.5-20.7,3.2-27.6-1.5c-7.1-4.9-12-12.4-15.6-20.1c-4-8.6-6.9-17.7-10.1-26.6c-1.7-4.8-3.3-9.7-4.9-14.6
			c-0.5-1.4-0.9-2.8-1.4-4.3c-1.2,0.5-2.5,1-3.8,1.5c1.7,5.3,4,10.6,5.6,15.7c2.6,8.2,4.8,16.5,7.9,24.5c5,12.8,12.9,25.9,26.1,31.3
			c6.4,2.6,14.2,3.3,20.7,0.8C1171.2,1286.8,1173.3,1282.9,1175.3,1278z"/>
		<path fill="#E2B625" d="M1136.7,1169.2c-0.5,2.1-1.2,4.4-1.9,6.5c-0.1,1.5-0.3,2.6-0.5,3.6c0.8-1.6,1.9-3.7,3.2-6.4
			c0.8-4.5,1.1-9.1,0.2-13.3c0-0.2-0.1-0.3-0.2-0.5c-0.5-0.2-0.9-0.3-1.4-0.5l0,0c-0.1,0.7-0.2,1.4-0.3,2.3
			C1136.4,1161.4,1138,1163.7,1136.7,1169.2z"/>
		<path fill="#E2B625" d="M1131.2,1196.2c0-3.9-0.8-3.6-0.2-8.3c0.2-1.8,0.5-2.9,1.2-4.5c-0.7,0.8-1.5,1.7-2.2,3.7
			c-1.9,5.8-2,3.4,0,9.1c0.3,0.9,0.7,1.8,1,2.4C1131.4,1198.4,1131.2,1198.2,1131.2,1196.2z"/>
		<path fill="#E2B625" d="M1135.8,1160.7c-0.1-0.2-0.2-0.2-0.2-0.2s-18.2-6.9-18.6-6.9c0,0-0.3,0.7-0.5,2.2
			c5.6,1.9,11.3,3.3,16.6,5.9c0.2,0.1,0.4,0.2,0.7,0.2c0.6,4.3,1.2,8.3,0,12.6c-0.8,3-2.5,5.5-4.1,8c1.2,0.9,2,1.2,2,1.2
			s1.6-3.6,3.2-8.1c0.1-0.8,0.1-1.6,0.1-2.6C1135.1,1167.7,1135.4,1163.6,1135.8,1160.7z"/>
		<path fill="#E2B625" d="M1135.8,1160.7c-0.4,2.9-0.8,7-0.9,12.3c0,1-0.1,1.8-0.1,2.6c0.7-2.1,1.4-4.3,1.9-6.5
			C1138,1163.7,1136.4,1161.4,1135.8,1160.7z"/>
		<path fill="#E2B625" d="M1085.7,1233.7c-0.2,1.5,2.3,1.6,2.4,0c0.1-1.8-0.6-3.4-1-5.1c-0.1-0.6-1.1-0.5-1,0.1
			c0.1,0.9,0.1,1.7-0.1,2.7C1085.9,1232.2,1085.8,1232.9,1085.7,1233.7z"/>
		<path fill="#E2B625" d="M1089.7,1245.9c0.1-1.9,0.1-3.7,0-5.6c-0.1-1.3-2-1.3-2,0c0,1.9-0.1,3.7-0.2,5.6c0,0,0,0,0,0
			C1087.5,1247.3,1089.6,1247.5,1089.7,1245.9z"/>
		<path fill="#E2B625" d="M1089.4,1256.3c0.1,0,0.2,0,0.3,0c0.6,0,1.1-0.4,1.1-1.1c0-1.3-0.1-2.7-0.7-3.9c-0.2-0.4-0.9-0.3-1,0.1
			c-0.4,1.2-0.3,2.5-0.4,3.8C1088.6,1255.8,1089,1256.3,1089.4,1256.3z"/>
		<path fill="#E2B625" d="M1091.5,1266.9c0.2-1.4,0.1-2.8,0.1-4.2c0-1.1-1.7-1.1-1.7,0c-0.1,1.3-0.2,2.6-0.2,3.9
			C1089.9,1267.6,1091.4,1268,1091.5,1266.9z"/>
		<path fill="#E2B625" d="M1113.8,1214.9c0.3,0.2,0.7,0.1,0.9-0.1c0.5-0.5,0.6-1.2,0.5-1.9c-0.6,0.2-1.3,0.5-2.1,0.8
			C1113.2,1214.2,1113.4,1214.6,1113.8,1214.9z"/>
		<path fill="#E2B625" d="M1117.4,1220.9c-0.3-0.8-1.5-0.7-1.5,0.2c0,1.2-0.2,3.1,0.9,3.8c0.3,0.2,0.8,0.2,1-0.1
			c0.5-0.6,0.4-1.2,0.3-1.9C1117.9,1222.1,1117.6,1221.5,1117.4,1220.9z"/>
		<path fill="#E2B625" d="M1120.3,1230.6c-0.5,0-1.1,0.5-1,1c0.1,1.1,0.1,2.2,0.3,3.3c0.2,1.2,2.1,0.9,2.1-0.3c0-1-0.2-2-0.3-3
			C1121.2,1231.1,1120.9,1230.6,1120.3,1230.6z"/>
		<path fill="#E2B625" d="M1124.6,1240.9c-0.2-0.3-0.4-0.6-0.7-0.8c-0.2-0.2-0.4-0.4-0.7-0.4c-0.7-0.1-1,0.8-0.8,1.3c0,0,0,0,0,0
			c0.1,0.1,0.1,0.2,0.2,0.3c0.1,0.7,0.4,1.3,0.6,2c0.1,0.3,0.4,0.7,0.8,0.8c0,0,0.1,0,0.1,0c0.5,0.1,0.8-0.1,1.1-0.4
			c0,0,0.1-0.1,0.1-0.1c0.3-0.3,0.2-0.8,0-1.2C1125.2,1241.9,1125,1241.3,1124.6,1240.9z"/>
		<path fill="#E2B625" d="M1129.4,1252.3c-0.3-0.7-0.6-1.5-0.8-2.2c-0.6-1.5-2.8-0.9-2.4,0.7c0.2,0.7,0.3,1.4,0.5,2.2
			c0.2,1,0.7,1.6,1.8,1.7c1,0.1,1.5-0.9,1.3-1.8C1129.7,1252.6,1129.5,1252.4,1129.4,1252.3z"/>
		<path fill="#E2B625" d="M1133.2,1260.1c-0.7-0.7-2.2,0-1.8,1.1c0.3,0.9,0.7,1.8,1.2,2.6c0.4,0.7,1.3,0.9,2,0.5
			c0.6-0.4,1-1.3,0.5-2C1134.5,1261.5,1133.9,1260.8,1133.2,1260.1z"/>
		<path fill="#E2B625" d="M1139.5,1269.8c-0.4-0.4-1.1-0.5-1.6-0.1c-0.4,0.3-0.7,1.1-0.3,1.5c0.2,0.2,0.4,0.5,0.5,0.7
			c0.2,0.3,0.2,0.6,0.4,0.9c0.3,0.5,0.8,1.3,1.4,1.6c0.7,0.3,1.7,0.1,1.8-0.7C1142.1,1272.1,1140.6,1270.8,1139.5,1269.8z"/>
		<path fill="#E2B625" d="M1146.6,1277.5c-0.1-0.1-0.5-0.3-0.6-0.4c-0.2-0.2-0.4-0.4-0.6-0.8c-0.3-0.6-1.1-0.8-1.7-0.4
			c-0.6,0.3-0.7,1.1-0.4,1.7c0.5,1,1.3,1.8,2.3,2.4c0.7,0.4,1.6,0.1,1.9-0.6C1147.7,1278.5,1147.3,1277.8,1146.6,1277.5z"/>
		<path fill="#E2B625" d="M1152,1282.5c0.6,0.3,1.2,0.4,1.8,0.5c0.7,0.1,1.3,0.3,2,0.2c0.4-0.1,0.7-0.6,0.7-0.9
			c0-0.5-0.3-0.8-0.7-0.9c-0.6-0.2-1.3-0.2-1.9-0.2c-0.6,0-1.2-0.1-1.8,0.1C1151.6,1281.4,1151.4,1282.2,1152,1282.5z"/>
		<path fill="#E2B625" d="M1162.3,1280.1c-0.3,0.4-0.8,0.6-1.2,0.8c-1,0.4-0.8,1.8,0.2,1.8c1.2,0.1,2-0.5,2.8-1.2
			c1.1-0.3,1.5-2,0.3-2.7C1163.5,1278.3,1162.4,1279.1,1162.3,1280.1z"/>
		<path fill="#E2B625" d="M1167.1,1273.2c-0.5,0.5-0.8,1.3-0.8,2c0,0.4,0,0.7,0.1,1c0,0.1,0,0-0.1,0.2c-0.8,1.1,0.9,2.1,1.4,0.8
			c0.1-0.1,0.1-0.2,0.2-0.3c0.3-0.2,0.6-0.4,0.9-0.7c0.6-0.6,0.7-1.6,0.5-2.3C1169,1272.9,1167.8,1272.5,1167.1,1273.2z"/>
		<path fill="#E2B625" d="M1167.9,1267.4c0,0.5,0,1.1,0,1.6c-0.1,0.5-0.2,1-0.4,1.5c-0.5,1.4,1.8,2,2.2,0.6c0.4-1.1,0.7-2.5,0.7-3.7
			C1170.4,1265.8,1168,1265.8,1167.9,1267.4z"/>
		<path fill="#E2B625" d="M1168.1,1262.1C1168.1,1262.1,1168.1,1262.1,1168.1,1262.1c0.1,0.6,0.9,0.8,1.2,0.4c-0.1,0-0.1,0-0.1,0.1
			c0.1,0,0.2-0.1,0.3-0.2c0.1-0.1,0.2-0.2,0.3-0.3c0.2-0.3,0.3-0.8,0.4-1.2c0.1-0.7-0.1-1.5-0.3-2.2c-0.5-1.4-2.6-0.9-2.2,0.6
			C1167.9,1260.1,1167.6,1261.3,1168.1,1262.1z"/>
		<path fill="#E2B625" d="M1166.4,1252.8c0.6,0,1.2-0.5,1.1-1.1c-0.1-1-0.2-3.6-1.7-3.6c-1.7,0-0.7,2.7-0.5,3.6
			C1165.4,1252.3,1165.8,1252.8,1166.4,1252.8z"/>
		<path fill="#E2B625" d="M1161.1,1243.6c0.3,0.7,1.3,0.9,2,0.5c0.7-0.4,0.8-1.2,0.5-2c-0.2-0.5-0.4-0.9-0.6-1.4
			c-0.2-0.5-0.4-1.1-0.8-1.4c-0.8-0.8-2.3-0.3-2.3,0.9c0,0.7,0.3,1.2,0.6,1.8C1160.7,1242.6,1160.9,1243.1,1161.1,1243.6z"/>
		<path fill="#E2B625" d="M1156.3,1233.1c0.6-0.3,1-1,0.8-1.6c-0.2-0.5-0.4-1-0.5-1.6c-0.2-0.6-0.3-1.2-0.7-1.7
			c-0.4-0.5-1-0.9-1.7-0.7c-0.6,0.2-1.1,0.8-1.1,1.4c0.1,1.2,0.9,2.4,1.4,3.6C1154.8,1233.1,1155.7,1233.3,1156.3,1233.1z"/>
		<path fill="#E2B625" d="M1147.4,1217.4c-0.1,0.8,0.2,1.4,0.6,2.2c0.3,0.7,0.7,1.4,1.1,2.1c0.6,1.3,2.8,0.3,2.3-1
			c-0.3-0.8-0.6-1.6-1-2.3c-0.4-0.7-1-1.5-1.8-1.7C1148.1,1216.7,1147.5,1216.9,1147.4,1217.4z"/>
		<path fill="#E2B625" d="M1143.8,1210.1c0.4,0.8,1.4,1,2.2,0.7c0.4-0.2,0.8-0.6,1-1.1c-1.2-0.8-2.5-1.6-3.7-2.3
			C1143.1,1208.3,1143.4,1209.2,1143.8,1210.1z"/>
		<path fill="#E2B625" d="M1025,1226.2c0.2-0.7,0.2-1.5,0.3-2.2c0-0.3-0.2-0.6-0.4-0.7c-0.2-0.1-0.4-0.1-0.6-0.1
			c-0.2,0.1-0.5,0.3-0.6,0.6c-0.1,0.7-0.3,1.5-0.3,2.2C1023.4,1226.9,1024.7,1227.1,1025,1226.2z"/>
		<path fill="#E2B625" d="M1024.4,1236.8c0.2-0.8,0.5-1.7,0.5-2.5c0-1-1.5-1.2-1.8-0.2c-0.2,0.8-0.2,1.7-0.3,2.5
			C1022.7,1237.5,1024.2,1237.7,1024.4,1236.8z"/>
		<path fill="#E2B625" d="M1022.6,1248.7c0-1,0.3-1.9,0.3-2.9c0-1.1-1.6-1.3-1.9-0.3c-0.3,1.1-0.1,2.2,0.1,3.4
			C1021.2,1249.8,1022.6,1249.5,1022.6,1248.7z"/>
		<path fill="#E2B625" d="M1019.9,1259.4c0.3-0.5,0.4-1,0.6-1.6c0.2-0.6,0.4-1.2,0.1-1.8c-0.2-0.4-0.6-0.5-1-0.4
			c-0.7,0.1-1,1-1.2,1.6c-0.2,0.6-0.3,1.3-0.1,1.9C1018.4,1259.9,1019.5,1260.1,1019.9,1259.4z"/>
		<path fill="#E2B625" d="M1015.5,1271.7c0.6-0.7,1.2-1.3,1.7-2c0.5-0.7,1.2-1.4,1-2.3c-0.1-0.3-0.4-0.6-0.8-0.6c-1,0-1.5,0.9-2,1.7
			c-0.5,0.8-0.9,1.6-1.2,2.5C1013.9,1271.7,1015,1272.2,1015.5,1271.7z"/>
		<path fill="#E2B625" d="M1010.3,1280.4c0.5-0.5,1-1,1.5-1.5c0.5-0.4,1-0.9,1.1-1.6c0.2-0.4-0.2-1-0.7-1c-0.8-0.1-1.4,0.7-1.9,1.2
			c-0.5,0.6-0.8,1.3-1.2,1.9C1008.7,1280.2,1009.7,1281.1,1010.3,1280.4z"/>
		<path fill="#E2B625" d="M1003.6,1286.7c0.5-0.4,1-0.6,1.5-1c0.5-0.4,0.9-0.8,1.3-1.3c0.6-0.8-0.6-2-1.4-1.4
			c-0.5,0.4-0.9,0.8-1.3,1.3c-0.4,0.5-0.7,1-1,1.5C1002.2,1286.3,1003,1287.1,1003.6,1286.7z"/>
		<path fill="#E2B625" d="M995.8,1288.8c1,0.2,2.7,0,2.8-1.3c0-0.3-0.3-0.7-0.6-0.8c-0.7-0.2-1.2,0.4-1.9,0.4
			C995.1,1287.1,994.9,1288.6,995.8,1288.8z"/>
		<path fill="#E2B625" d="M989.9,1291.3c0.4,0,0.7,0,1-0.2c0.8-0.4,0.5-1.6-0.2-1.8c-0.4-0.1-0.7-0.1-1,0c-0.5,0.1-0.8,0.7-0.8,1.2
			C989,1290.9,989.4,1291.2,989.9,1291.3z"/>
		<path fill="#E2B625" d="M982.8,1291.3c-0.3,0-0.6,0.1-1,0c-0.4,0-0.7-0.1-1,0c-0.5,0.2-1,0.9-0.6,1.4c0.4,0.5,0.9,0.7,1.5,0.7
			c0.6,0,1.1-0.1,1.5-0.4C984.1,1292.7,983.8,1291.2,982.8,1291.3z"/>
		<path fill="#E2B625" d="M974.8,1291.9c-0.4-0.1-0.9-0.2-1.4-0.2s-1-0.1-1.4-0.3c-0.6-0.2-0.9,0.7-0.4,1c0.5,0.3,0.9,0.7,1.5,0.9
			c0.5,0.2,1.2,0.3,1.7,0.1C975.6,1293.3,975.5,1292.1,974.8,1291.9z"/>
		<path fill="#E2B625" d="M966.3,1290.5c-0.5-0.3-0.9-0.7-1.3-1.1c-0.6-0.7-1.5,0.3-1,0.9c0.4,0.5,0.8,0.9,1.3,1.3
			c0.5,0.3,1.1,0.9,1.7,0.7c0.3-0.1,0.5-0.4,0.4-0.8C967.4,1290.9,966.8,1290.8,966.3,1290.5z"/>
		<path fill="#E2B625" d="M962.2,1281.2c-0.6,0.6-0.6,1.5-0.7,2.2c-0.1,0.9,0,1.7,0.1,2.6c0.2,1,1.6,0.6,1.5-0.4
			c-0.1-0.7-0.1-1.5,0-2.3c0.1-0.7,0.4-1.2,0.2-1.8C963.3,1280.9,962.6,1280.8,962.2,1281.2z"/>
		<path fill="#E2B625" d="M964.5,1277.2c0.3-0.7,0.3-1.4,0.5-2.2c0.2-0.7,0.5-1.4,0.8-2.1c0.4-1.2-1.3-1.7-1.9-0.8
			c-0.5,0.7-0.8,1.5-1,2.3c-0.2,0.8-0.4,1.7-0.2,2.5C963,1277.7,964.2,1278.1,964.5,1277.2z"/>
		<path fill="#E2B625" d="M969.2,1260.3c-0.7,0.1-1.2,1-1.5,1.6c-0.4,0.7-0.7,1.4-0.8,2.2c-0.2,0.9,1.2,1.3,1.4,0.4
			c0.2-0.6,0.4-1.2,0.7-1.8c0.3-0.5,0.9-1,1-1.6C970.1,1260.6,969.8,1260.2,969.2,1260.3z"/>
		<path fill="#E2B625" d="M974.2,1248.3c-0.5,0.6-0.7,1.4-1,2.1c-0.3,0.8-0.6,1.5-0.9,2.3c-0.2,0.6,0.6,1,1,0.6
			c0.6-0.6,1-1.3,1.4-2.1c0.3-0.7,0.8-1.5,0.7-2.4C975.4,1248.3,974.6,1247.8,974.2,1248.3z"/>
		<path fill="#E2B625" d="M978,1239.9c-0.6,1.1-1,2.2-1.4,3.4c-0.4,0.9,1.2,1.6,1.6,0.7c0.5-1.1,1-2.2,1.3-3.4
			C979.7,1239.7,978.4,1239.1,978,1239.9z"/>
		<path fill="#E2B625" d="M982.1,1230c-0.7,1.3-1.3,2.6-1.7,3.9c-0.3,0.9,1.2,1.6,1.6,0.7c0.5-1.2,1.1-2.4,1.8-3.6
			C984.5,1229.9,982.7,1228.9,982.1,1230z"/>
		<path fill="#E2B625" d="M987,1218.5c-1.1-0.6-1.7,0.4-2,1.3c-0.5,1.2-0.9,2.4-1.3,3.6c-0.5,1.2,1.5,1.8,2,0.5
			c0.3-0.7,0.5-1.4,0.8-2.1c0.1-0.3,0.2-0.6,0.3-0.9c0.1-0.2,0.2-0.4,0.2-0.6c0-0.1,0.1-0.1,0.1-0.2c0.1-0.1,0.2-0.2,0.2-0.3
			c0,0,0,0,0-0.1C987.6,1219.4,987.5,1218.8,987,1218.5z"/>
		<path fill="#E2B625" d="M1017.5,1303.1c-1.9,0.9-3,2.3-3,4.5c0,0.5,0.1,1,0.2,1.5c0,0-0.1,0-0.1,0c-6.9,3.3-14.3,2.5-21.7,1.3
			c-4.3-0.7-8.6-1.3-12.9-1.6c0.7,0.6,1.6,1.4,2.7,2.2c3,0.2,5.9,0.6,8.8,1.1c7.8,1.3,15.6,2.4,23.1-0.7c0.2,0.9,0.7,1.7,1.4,2.3
			c1.5,1.3,3.3,1,5.1,0.8c1.9-0.3,3.7-0.8,4.7-2.6c0.8-1.6,1.2-3.6,0.7-5.3C1025.3,1302.4,1021.1,1301.3,1017.5,1303.1z
			 M1023.5,1311.3c-0.8,0.8-2.2,0.8-3.2,0.9c-1,0-1.7,0-2.3-0.5c-1.3-1.9-0.9-4.7,1.1-5.8c2.3-1.2,3.8,0,4.6,2.2
			C1024.1,1309.2,1024.4,1310.4,1023.5,1311.3z"/>
		<path fill="#E2B625" d="M1000,1321.3c1.8,0.6,3.3,0.9,5.7,1.6c-3.3-3.2-7.8-5.6-11.8-7.1c-2.5-1-5.1-1.6-7.8-2.1
			c1.5,1.1,3,2.3,4.6,3.3C994,1317.9,997.2,1319.3,1000,1321.3z"/>
		<path fill="#E2B625" d="M1205.6,1324.9c-0.9-4.6-2.4-9.2-3.5-13.8c0.1-1.3,0-2.6-0.6-3.8c-0.3-0.1-0.6-0.2-1-0.3
			c0,0-1.8-5.4-4.4-12.9c-0.1-0.4-0.3-0.8-0.4-1.2c-0.6-1.6-1.1-3.3-1.7-5.1c-1.1,0.5-2.1,0.7-3.3,0c-1.8-1-2.8-2.8-3.1-4.7
			c-0.2-1.6-0.2-2.3,1.2-3.2c1.5-1,1.2-0.7,2.4,0.1c0.1,0.1,0.2,0.1,0.3,0.2c-0.4-1.1-0.7-2.2-1.1-3.3c-0.9-0.3-1.9-0.3-2.8,0
			c-2.6,1-3.2,4.3-2.7,6.8c0.5,2.9,2.4,5.4,5,6.8c0.8,0.4,1.7,0.7,2.6,0.8c-0.2,0.3-0.2,0.7-0.2,1.1c0.6,3.4,1.4,6.7,2.1,10.1
			c0.2,0.6,0.3,1.3,0.4,1.9c-1.6-2-4-3.4-6.6-4c-1.4-0.4-3.2-0.6-4.7-0.2c0.2-0.4,0.2-1.2,0.2-1.5c0.2-3.4-3.8-4.3-6.4-3.5
			c-3.3,1-3.7,4.3-3.2,7.3c0.5,2.8,3.1,4.9,5.9,3.5c1.5-0.7,2.2-2,2.6-3.4c4.5-1.4,10.4,2.1,11.6,6.2c0.1,0.2,0.2,0.4,0.3,0.5
			c-5.2-1-10.8,0.4-15.4,2.6c-3.5,1.7-8.1,4.3-10.8,7.8c0.8,0.2,1.6,0.3,2.4,0.5c2.7-3.1,6.6-5.5,9.9-7c4.3-1.9,8.4-2.3,12.7-2
			c-4.4,1.9-8.8,4.2-13.2,6c-2.7,1.1-5.3,2.1-7.8,3.3c0.9,0.2,1.8,0.3,2.7,0.5c7-3.5,14.8-5.6,21.7-9.1c-3.6,5.2-10.8,7.9-17.9,9.7
			c1.9,0.3,3.6,0.6,5,0.8c0.9-0.4,1.9-0.7,2.8-1.2c3.6-1.6,9.4-4.1,11.7-7.9c0.1,0.5,0.3,1.1,0.4,1.6c-0.3,0.7-0.6,1.4-0.9,2.1
			c-0.4,0.3-0.6,0.7-0.6,1.2c-0.7,1.4-1.5,2.7-2.2,3.9c-1.8,3.5-3.7,6.9-5.3,10.4c-2.9,6.2-5.1,12.6-5.7,19.4
			c-0.1,0.6,0.4,1,0.9,1.2c5.7,2.2,10-2.2,11.7-7.3c1.5-4.4,1.5-9.1,2.2-13.7c0.1-1,0.3-2.1,0.4-3.1c0.7-1.4,1.6-2.9,2.2-4.3
			c2,8.7,3,17.7,4.2,26.6c1.1-0.5,2.3-1.1,3.5-1.8C1208.3,1341.2,1207.1,1333,1205.6,1324.9z M1179.9,1303.1c-1.8,1-2.8-0.2-3-2
			c-0.2-1.7-0.2-3.4,1.7-3.9c1.1-0.3,2.5-0.2,3,0.8c0,0,0,0.1,0,0.1c0,0.1-0.1,0.2-0.1,0.3
			C1181.7,1300.1,1181.6,1302.2,1179.9,1303.1z M1195.8,1309.3L1195.8,1309.3L1195.8,1309.3c0.2-0.1,0.3-0.1,0.4-0.2c0,0,0,0,0.1,0
			l0,0l0,0c0.1,0.1,0.1,0.3,0.2,0.4c0,0,0,0.1,0,0.1C1196.2,1309.4,1196,1309.3,1195.8,1309.3z M1192,1344.4c1.9-4,3.8-8,5.7-11.9
			c-0.5,3.5-1.4,6.9-2.4,10.4c-0.4,1.4-5.9,12.8-8.5,7.3c-1-2.2,2.1-9.5,2.9-11.6c2.3-6,5.3-11.6,8.3-17.3c0.1,0.8,0.2,1.6,0.2,2.4
			c-1.8,6.9-4.7,13.6-7.4,20.1C1190.4,1344.5,1191.6,1345.3,1192,1344.4z"/>
		<path fill="#E2B625" d="M1196.2,1309L1196.2,1309c0.1,0.1,0.1,0.3,0.2,0.4C1196.4,1309.3,1196.3,1309.1,1196.2,1309z"/>
		<path fill="#E2B625" d="M1195.8,1309.3L1195.8,1309.3c0.2-0.1,0.3-0.1,0.4-0.2C1196.1,1309.2,1195.9,1309.2,1195.8,1309.3z"/>
		<path fill="#E2B625" d="M1091.3,1190.4C1091.3,1190.4,1091.2,1190.4,1091.3,1190.4c-6.4-0.2-12.1-2.1-15.4-8
			c-1.4-2.6-1.8-5.5-2.2-8.4c0.2,0.2,0.4,0.5,0.6,0.7c1.9,2,4.5,3.1,6.7,4.7c0.2,0.4,0.5,0.9,0.8,1.2c0.9,2,4,4,6.1,2.3
			c1.9-1.5,1.6-5.4,0.2-7.1c-1.6-1.9-4.8-2.7-6.7-0.8c-0.5,0.6-0.8,1.2-0.9,1.9c-3.4-2.5-6.7-5.1-7.8-9.5c0.3-0.3,0.5-0.6,0.8-0.9
			c1-1.4,1.7-2.9,2.1-4.5c1.2,0.3,2.6,0.1,3.8,0.1c1.5,0,2.8,0.3,4-0.7c0.5-0.4,0.4-1.2,0-1.7c-1.1-1.1-2.8-0.8-4.3-0.8
			c-1.1,0-2.2-0.1-3.2,0.1c-0.1-3.5-1.9-6.8-5.4-8.5c-5.9-2.8-12.8,1.1-14.5,7.3c-0.2,0.8-0.3,1.5-0.3,2.3c-1-0.1-2.1,0.1-3.1,0.5
			c-1.4,0.5-2.9,1.1-4.3,1.6c-1.1,0.4-0.6,1.8,0.5,1.7c1.4-0.2,2.6-0.6,4-0.6c1.1-0.1,2.2-0.1,3.3-0.2c0.3,1.1,0.9,2.2,1.7,3.1
			c0,0,0.1,0.1,0.1,0.1c0,0.1,0,0.1,0,0.2c0.2,0.5,0.5,1,0.8,1.4c0,0.1,0,0.2,0,0.2c0.9,3.5-2.1,6.4-5,7.5c-1.9,0.7-3.9,1-5.9,1.5
			c-0.6-0.5-1.4-0.9-2.3-1c-3-0.5-6.1,1.9-6.8,4.8c-0.8,3.3,2.4,5.4,5.4,5.2c1.7-0.1,3.2-1.3,4.2-2.6c0.5-0.7,0.7-1.4,0.7-2
			c0.3-0.8,0.3-1.7,0-2.5c3.5-0.2,7.5-1.7,10-4.2c0,0.6,0,1.1,0,1.7c-0.1,2.6,0.3,6.1-0.4,8.7c-1.6,5.3-10.5,7.4-15.3,9c0,0,0,0,0,0
			c-0.1,0-0.2-0.1-0.3-0.1c-0.1-0.1-0.1-0.1-0.2-0.2c-2.4-1.2-5.5,0.3-6.2,2.9c-0.3,1.3-0.1,2.8,0.8,3.8c0.9,1.1,2.5,1.4,3.9,1.5
			c2.6,0.1,6.3-1.3,5-4.6c-0.2-0.5-0.5-1.1-0.9-1.6c4.7-1.5,12.1-3.4,14.7-7.2c1.3-1.9,1.1-4.4,1.2-6.5c0.2-4,0.3-8,0.7-12
			c1.2,0.4,2.6,0.5,4,0.4c1.1,8.4,1.7,16.9,2.4,25.4c-2.3,0.2-4.6,1.7-4.4,4.4c0.3,2.9,3,4.7,5.7,4.9c2.7,0.2,4.6-2,4.6-4.6
			c0-2.2-1.6-4.6-3.9-4.9c-0.6-8.3-0.5-17.4-3-25.3c1.2-0.3,2.3-0.7,3.3-1.2c-0.2,5.6,1.3,12.4,4.4,16.5c3.7,4.9,8.8,6.6,14.5,7.1
			c-0.7,1.4-0.6,3.2,0.8,4.3c2,1.7,5.2,2.1,7.1,0c1.6-1.8,1.6-4.6-0.1-6.4C1095.5,1188.6,1093.2,1189.1,1091.3,1190.4z
			 M1083.9,1176.5c0.6-0.3,1.6,0.3,2,0.7c0.5,0.5,0.8,1.2,0.9,1.9c0,0.4,0,1.6-0.4,1.9c-0.7,0.5-1.8-0.1-2.5-0.8
			c0-0.7-0.6-1.3-0.6-2.2C1083.3,1177.6,1083.4,1176.7,1083.9,1176.5z M1046.4,1182.3c-0.7,0.6-1.5,1.3-2.5,1.4
			c-0.7,0.1-1.9-0.1-2.5-0.4c-1-0.6-0.8-1.8-0.3-2.7c0.8-1.4,2.3-2.2,3.9-1.7c0.8,0.2,1.4,0.8,1.8,1.5c0.1,0.2,0.2,0.4,0.3,0.7
			C1047,1181.5,1046.8,1182,1046.4,1182.3z M1043.7,1199.5c-0.6,0.4-1.8,0.4-2.4,0.4c-1.7-0.1-3-0.9-2.4-2.8
			c0.5-1.5,1.7-1.8,3.1-1.7c0.2,0.2,0.5,0.4,0.7,0.6c0.1,0.1,0.2,0.2,0.3,0.3c0.3,0.3,0.6,0.7,0.7,0.9
			C1044.2,1197.9,1044.5,1198.9,1043.7,1199.5z M1069.9,1197.7c1.1,0.4,2,0.9,2.3,2.2c0.4,1.6-0.8,3.2-2.4,3.2c-1.4,0.1-3-0.7-3.6-2
			c-1-2.1,1.3-3.1,3.1-3.2C1069.5,1197.9,1069.7,1197.8,1069.9,1197.7z M1062.4,1166.8c-2.9-1.5-5.1-3.9-4.4-7.6
			c0.9-4.7,6.2-7.9,10.6-6.3c5.2,1.9,5.9,8,2.8,12.1C1068.9,1168.1,1065.6,1167.7,1062.4,1166.8z M1096,1195.2
			c-0.8,1.3-2.4,1.2-3.6,0.5c-1.6-0.9-1.2-2-0.4-3.2c0.1-0.1,0.2-0.2,0.3-0.4c1-0.6,2-1,3.1-0.2
			C1096.4,1192.7,1096.6,1194.1,1096,1195.2z"/>
		<path fill="#E2B625" d="M1140,1167.1C1140,1167.1,1140,1167.1,1140,1167.1l0.2-1.7C1139.3,1165.4,1139,1166.8,1140,1167.1z"/>
		<path fill="#FF4100" d="M1161.5,1170.3c0,0.2,0.1,0.5,0.1,0.7C1161.6,1170.8,1161.5,1170.5,1161.5,1170.3z"/>
		<path fill="#FF4100" d="M1161.7,1173.1c0,0.2,0,0.3,0,0.5C1161.7,1173.4,1161.7,1173.2,1161.7,1173.1z"/>
		<path fill="#FF4100" d="M1161.7,1172c0,0.2,0,0.4,0,0.7C1161.7,1172.4,1161.7,1172.2,1161.7,1172z"/>
		<path fill="#FF4100" d="M1172.2,1205.1c0,0.1,0.1,0.3,0.1,0.4C1172.3,1205.3,1172.2,1205.2,1172.2,1205.1z"/>
		<path fill="#FF4100" d="M1161.6,1171.1c0,0.2,0,0.5,0.1,0.8C1161.6,1171.6,1161.6,1171.3,1161.6,1171.1z"/>
		<path fill="#FF4100" d="M1173.6,1210.3C1173.6,1210.3,1173.6,1210.3,1173.6,1210.3c-0.2-0.8-0.4-1.6-0.7-2.5
			c-0.2-0.8-0.4-1.6-0.7-2.4c0.2,0.8,0.4,1.6,0.7,2.4C1173.2,1208.7,1173.4,1209.6,1173.6,1210.3z"/>
		<path fill="#A08525" d="M989.2,1209.7c0.5-2.7,0.9-5.4,1.1-8c0-0.4-0.2-0.7-0.5-0.8c-0.4,0.6-0.8,1.5-1.2,2.7
			c-0.2,0.7-0.4,1.2-0.5,1.8c-0.1,1.4-0.2,2.8-0.3,4.2C987.7,1210.3,989,1210.5,989.2,1209.7z"/>
		<path fill="#A08525" d="M1045.6,1212.8l-17-2c0,0-0.6,0-1.8-0.1c1.3,0.2,2.6,0.4,3.9,0.6c-0.2,2.4-0.5,4.8-0.8,7.2
			c1.7,0.2,3.2,0.4,4.4,0.6c0.4-2.4,0.8-4.8,1.2-7.2C1039.1,1212.2,1042.3,1212.5,1045.6,1212.8z"/>
		<path fill="#A08525" d="M1086.3,1215c0,0-0.1,2-0.4,4.2c0,0.8-0.1,1.5-0.3,2.2c-0.2,0.6-1.1,0.6-1.3,0c-0.3-0.9-0.4-1.8-0.4-2.8
			v-0.1l-0.2-3.1L1086.3,1215z"/>
		<path fill="#A08525" d="M1084.6,1264.4c0.2,1.5,0.3,3,0.5,4.5c1.9,17.9,3.7,36.2,3.8,54.2c-0.2-0.4-0.3-0.9-0.4-1.4
			c-0.3-1.1-2-0.9-2,0.3c0,1.5,0.7,3.1,1.8,4.1c0.2,0.2,0.5,0.4,0.8,0.6c0.3,1.1,2,1.2,2.5,0.1c0.4-0.1,0.9-0.2,1.3-0.4
			c1.6-0.4,0.9-3-0.7-2.5c-0.1,0-0.2,0.1-0.4,0.1c1-18.5-1.2-37.3-3.2-55.7C1087,1266.8,1085.6,1265.4,1084.6,1264.4z"/>
		<path fill="#A08525" d="M1106.8,1208.2c1.7-0.6,3.4-1.2,5.1-1.9c-4.1,1-7.6,2-8.9,2.8c-2.7,1.7-8.5,3.3-12.5,4.8
			c1.2-0.4,2.4-0.8,3.7-1.2c3.3-1.1,6.5-2.3,9.8-3.5c0.4,2.4,1,4.8,1.8,7.2c1.3-0.5,2.6-1,3.8-1.5
			C1108.7,1212.7,1107.9,1210.4,1106.8,1208.2z"/>
		<path fill="#A08525" d="M1083.7,1224.5c-1.9,0.5-3.2,0.8-4.2,1c-0.4-2.3-0.9-4.8-1.2-7.2l0-0.3l-0.4-2.4l3.8,0
			c0,0,0.5,1.1,0.7,2.2c0,0,0,0.1,0,0.1C1083,1219.9,1083.4,1222.2,1083.7,1224.5z"/>
		<path fill="#FF4100" d="M1172.1,1204.9C1172.1,1204.9,1172.1,1204.9,1172.1,1204.9c0,0.1,0,0.1,0.1,0.2
			C1172.2,1205,1172.2,1205,1172.1,1204.9z"/>
		<path fill="#A08525" d="M1076.4,1220.8c0,0.1,0,0.5,0,0.2l0,0c0,0.4-0.2,0.8-0.7,0.9c-1.3,0.4-1.6-1.3-1.9-2.2
			c-0.2-0.7-0.3-1.3-0.5-2c0,0,0-0.1,0-0.1c-0.1-0.3-0.1-0.5-0.1-0.7c0,0,0-0.1,0-0.1c-0.2-0.8-0.3-1.3-0.3-1.3l2.2,0.2
			c0,0,0.2,0.4,0.3,1c0,0,0,0,0,0.1c0.1,0.2,0.1,0.5,0.2,0.7c0,0,0,0,0,0c0,0.1,0.1,0.3,0.1,0.4c0.2,0.7,0.4,1.4,0.5,2.1
			C1076.3,1220.2,1076.4,1220.5,1076.4,1220.8z"/>
		<path fill="#A08525" d="M1153.4,1204.1c-0.7-0.3-1.3-0.7-2-1.1c1.1,3.4,2.4,6.6,3.8,9.8c0.1,0.2,0.2,0.3,0.2,0.5
			c-2-0.6-4.3-1.4-6.1-2.2c-0.2-0.5-0.4-1.1-0.6-1.6c-1-2.7-1.9-5.4-2.5-8.3c-0.1-0.3-0.1-0.7,0-0.9c-1.8-1-3.6-2-5.4-3
			c-3.2-1.7-6.6-3.3-9.6-5.4c-0.2,2.4,1.8,3.6,3.3,6.2c0.5,0.7,0.1,2-0.9,2.1c-0.5,0.1-0.9,0.2-1.4,0.3c-1.4,0.3-2.8,0.6-4.1,0.9
			c0.4-0.2,0.7-0.5,0.9-0.8c1.3-1.6,1.9-1.8,2.1-1.9c0.3-0.2,0.1-0.4,0.1-2.4c0-3.9-0.8-3.6-0.2-8.3c0.2-1.8,0.5-2.9,1.2-4.5
			c0.5-1,1.1-2.3,2.1-4.1c0.8-1.6,1.9-3.7,3.2-6.4c-0.5,2.6-1.1,5.1-1.7,7.5c-0.7,2.4-1.6,4.5-2.6,6.6c6.9,2.5,13.6,7.1,19.9,10.6
			c6.2,3.4,12.3,5.8,19,7.5c0,0.1,0,0.1,0.1,0.2c0,0.1,0.1,0.3,0.1,0.4c0.2,0.8,0.5,1.6,0.7,2.4c0.2,0.9,0.4,1.7,0.7,2.5
			C1166.5,1210.6,1159.7,1207.4,1153.4,1204.1z"/>
		<path fill="#A08525" d="M1078.5,1236.2c0.4-2.4-0.8-4.7-1.5-7c-0.3-0.9-1.7-0.6-1.5,0.4c0.4,2.2,0.1,4.7,1,6.8
			C1076.9,1237.3,1078.3,1237.1,1078.5,1236.2z"/>
		<path fill="#A08525" d="M1079.6,1246.1c0.6-0.9,0.2-1.9-0.2-2.8c-0.4-1.1-0.5-2.3-0.9-3.5c-0.2-0.6-1-0.5-1.1,0.1
			c-0.1,1.2,0.2,2.5,0.2,3.8c0,1,0,2,0.9,2.6C1079,1246.6,1079.3,1246.4,1079.6,1246.1z"/>
		<path fill="#A08525" d="M1081.2,1260.8c0.2-0.3,0.2-0.8-0.1-1.1c-0.2-1.9-0.4-3.7-0.7-5.6c-0.1-0.8-1.3-0.9-1.3,0
			c-0.1,1.3-0.2,2.7-0.2,4c0,0.9-0.3,2.4,0.5,3c0.6,0.5,1.3,0.4,1.7-0.2C1081.1,1260.9,1081.2,1260.9,1081.2,1260.8z"/>
		<path fill="#A08525" d="M1082.5,1274.9c0.3-0.7,0.1-1.2-0.1-1.9c-0.1-0.7-0.3-1.3-0.4-2c-0.2-1.1-1.8-0.6-1.6,0.4
			c0.1,0.6,0.2,1.3,0.3,1.9c0.1,0.6,0,1.2,0.5,1.7C1081.6,1275.4,1082.2,1275.4,1082.5,1274.9z"/>
		<path fill="#A08525" d="M1083.8,1287c0-0.8-0.2-1.5-0.3-2.3c-0.1-0.7-0.2-1.3-0.9-1.5c-0.2-0.1-0.4,0-0.5,0.1
			c-0.4,0.5-0.3,1-0.1,1.6c0.2,0.7,0.1,1.4,0.1,2.1C1082,1288.2,1083.8,1288.2,1083.8,1287z"/>
		<path fill="#A08525" d="M1083.7,1299.1c0,0.6,0.3,1.1,0.6,1.6c0.1,0.1,0.3,0.1,0.4,0c0.2-0.5,0.4-0.9,0.4-1.5
			c-0.1-0.6-0.4-1.2-0.4-1.8c0.1-0.2,0.2-0.3,0.3-0.6c0.2-0.7-0.5-1.3-1.1-1.1c-0.7,0.2-0.9,1-0.4,1.6c0.4,0.5,0.6,0.2,0.5,1
			C1083.7,1298.6,1083.7,1298.8,1083.7,1299.1z"/>
		<path fill="#A08525" d="M1086.1,1307.9c0.1-0.8,0.1-1.5-0.4-2.2c-0.4-0.4-1.1-0.3-1.3,0.2c-0.4,0.6-0.3,1.2-0.2,1.9
			c0,0.6,0.2,1.2,0.6,1.6c0.2,0.2,0.4,0.2,0.6,0.1C1085.8,1309.2,1086,1308.5,1086.1,1307.9z"/>
		<path fill="#A08525" d="M1086.9,1317.4c0.2-0.2,0.2-0.3,0.3-0.6c0.1-0.2,0-0.1,0,0c0,0,0,0,0-0.1c0.1-0.1,0.2-0.2,0.2-0.4
			c0.1-0.5,0-1.1-0.2-1.6c-0.5-1.2-2.3-0.5-1.7,0.7c0.2,0.4,0.2,0.8,0.4,1.1c0,0,0.2,0.3,0.2,0.3c0.1,0.2,0.1,0.4,0.2,0.6
			C1086.4,1317.6,1086.7,1317.6,1086.9,1317.4z"/>
		<path fill="#A08525" d="M1093.3,1278.3c0-0.7-0.1-1.4-0.2-2.1c-0.1-0.3-0.1-0.6-0.2-0.9c-0.1-0.4-0.3-0.8-0.4-1.2
			c-0.1-0.6-1.1-0.4-1.1,0.1c0,0.4-0.2,0.8-0.2,1.3c0,0.3,0,0.6,0,0.9c-0.1,0.7-0.1,1.4,0.1,2.2
			C1091.4,1279.8,1093.2,1279.4,1093.3,1278.3z"/>
		<path fill="#A08525" d="M1093.9,1290.4c0-0.7,0-1.4-0.1-2.1c-0.1-0.6-0.1-1.3-0.7-1.6c-0.2-0.1-0.4-0.1-0.6,0
			c-0.6,0.4-0.6,0.9-0.6,1.6c0,0.7,0,1.4-0.1,2.1C1091.8,1291.8,1093.9,1291.8,1093.9,1290.4z"/>
		<path fill="#A08525" d="M1093.4,1297.7c-0.6,0.6-0.6,1.4-0.6,2.2c0,0.8-0.1,1.8,0.8,2.3c0.4,0.2,0.8,0.2,1.1-0.1
			c0.7-0.6,0.3-1.4,0.3-2.2c-0.1-0.8,0-1.5-0.6-2.1C1094.2,1297.4,1093.7,1297.4,1093.4,1297.7z"/>
		<path fill="#A08525" d="M1093.7,1308.8c-0.2,0.4-0.1,0.8,0.2,1.1c0.1,0.3,0.4,0.6,0.7,0.5c0.9,0,1.3-1.2,0.6-1.8
			C1094.6,1308.3,1094,1308.3,1093.7,1308.8z M1093.8,1309.8C1093.8,1309.8,1093.8,1309.8,1093.8,1309.8
			C1093.8,1309.8,1093.8,1309.8,1093.8,1309.8z"/>
		<path fill="#A08525" d="M1093.6,1316.7c-1.4,0-1.4,2.2,0,2.2C1095,1318.9,1095,1316.7,1093.6,1316.7z"/>
		<path fill="#A08525" d="M1113.5,1208.9c-0.8,0.5-0.5,2-0.5,2.8c0,0.6-0.1,1.3,0.1,2c0.8-0.3,1.5-0.6,2.1-0.8
			c-0.1-0.7-0.3-1.4-0.4-2C1114.7,1210.6,1114.4,1208.3,1113.5,1208.9z"/>
		<path fill="#A08525" d="M1147,1209.7c-1.2-0.8-2.5-1.6-3.7-2.3c0-0.3,0.1-0.5,0.2-0.8c1.1,0.6,2.3,1.2,3.5,1.9
			c0,0.1,0,0.2,0.1,0.2C1147.1,1209.1,1147.1,1209.4,1147,1209.7z"/>
		<path fill="#A08525" d="M1146.7,1207.7c0-0.1,0-0.3-0.1-0.4c0,0-0.1-0.7-0.1-0.5c-0.1-0.8-0.5-1.4-1.4-1.6
			c-0.8-0.1-1.4,0.4-1.7,1.1c0,0.1-0.1,0.2-0.1,0.2c1.1,0.6,2.3,1.2,3.5,1.9C1146.8,1208.2,1146.8,1207.9,1146.7,1207.7
			C1146.7,1207.5,1146.7,1207.5,1146.7,1207.7z"/>
		<path fill="#A08525" d="M1025,1215.9c0.5,0.1,0.9-0.2,1-0.6c0.1-0.2,0.1-0.3,0.2-0.4c0.2-0.1,0.4-0.4,0.4-0.6c0-0.2,0-0.3-0.1-0.5
			c-0.3-0.8-1.3-0.8-1.6,0c-0.2,0.4-0.3,0.8-0.4,1.2C1024.2,1215.3,1024.6,1215.8,1025,1215.9z"/>
		<path fill="#A08525" d="M1144.2,1166.5c-0.9-1-2.5-0.8-3.7-1.1c-0.1,0-0.2,0-0.3,0l-0.1,1.8c1.1,0.4,2.1,1.4,3.3,1.3
			C1144.3,1168.3,1144.8,1167.3,1144.2,1166.5z"/>
		<path fill="#A08525" d="M1149.5,1169.2c1.1,0.5,2.1,1.5,3.2,1.8c1,0.2,2-1.1,1.1-1.8c-1-0.8-2.3-0.9-3.5-1.3
			C1149.4,1167.4,1148.5,1168.8,1149.5,1169.2z"/>
		<path fill="#FF4100" d="M1161.7,1172.7c0,0.1,0,0.3,0,0.4C1161.7,1172.9,1161.7,1172.8,1161.7,1172.7z"/>
		<path fill="#FF4100" d="M1161.6,1171C1161.6,1171.1,1161.6,1171.1,1161.6,1171C1161.6,1171.1,1161.6,1171.1,1161.6,1171z"/>
		<path fill="#FF4100" d="M1161.7,1171.8c0,0.1,0,0.1,0,0.2C1161.7,1172,1161.7,1171.9,1161.7,1171.8z"/>
		<path fill="#FF4100" d="M1161.5,1170.3L1161.5,1170.3L1161.5,1170.3z"/>
		<path fill="#FF4100" d="M1161.8,1173.5c0,0.1,0,0.2,0,0.3l0,0C1161.8,1173.7,1161.8,1173.6,1161.8,1173.5z"/>
		<path fill="#A08525" d="M1161.7,1173.1c0-0.1,0-0.3,0-0.4c0-0.2,0-0.4,0-0.7c0-0.1,0-0.1,0-0.2c0-0.3,0-0.5-0.1-0.8c0,0,0,0,0-0.1
			c0-0.2-0.1-0.5-0.1-0.7c0,0,0,0,0,0c-0.5-0.2-1-0.3-1.5-0.4c-1.1-0.2-1.8,0.8-1.4,1.8c0.2,0.5,0.7,0.8,1.1,1.1
			c0.2,0.1,0.3,0.2,0.5,0.3c0.1,0.1,0.2,0.1,0.2,0.2c0,0,0,0,0,0s0,0,0,0c0.4,0.3,0.8,0.5,1.3,0.5c0-0.1,0-0.2,0-0.3
			C1161.7,1173.4,1161.7,1173.2,1161.7,1173.1z"/>
		<path fill="#A08525" d="M1170.7,1323.4c1.5-1,3.1-1.8,4.7-2.6c-0.9-0.2-1.8-0.3-2.7-0.5c-1.1,0.6-2.2,1.2-3.3,1.8
			c0.5-0.8,1-1.5,1.6-2.2c-0.8-0.2-1.6-0.3-2.4-0.5c-1.2,1.6-2.1,3.4-2.2,5.4c0,0.1,0,0.2,0,0.3c0,0.5,0.5,1.1,1.2,1
			c5.7-0.9,11.3-2,16.7-4c-1.4-0.2-3.1-0.4-5-0.8C1176.3,1322.2,1173.3,1322.8,1170.7,1323.4z"/>
		<path fill="#A08525" d="M1206.2,1358.3c-1,0.4-2,0.9-3.1,1.2c-1.7,0.4-1.2,2.8,0.4,2.9c0.8,0.1,1.7-0.1,2.5-0.1
			c0.3,0,0.6,0.1,0.8,0.1l0-1.3l3.5-3.5c-0.4-2.8-0.7-5.5-1.1-8.3c-1.2,0.6-2.4,1.2-3.5,1.8c0.3,2.4,0.7,4.8,1,7.1
			C1206.7,1358.2,1206.5,1358.2,1206.2,1358.3z"/>
		<path fill="#A08525" d="M974.4,1308.6c-3.1,0-18.1,0.7-19.4,5.6c0,0,0,0-0.1,0c-0.6-7-3.7-11.7-8.6-16.5c-2.9-2.9-6-5.7-7.4-9.7
			c-1.5-4.3-0.8-9-0.6-13.5c2.9-0.9,5.7-3.4,6.3-6.1c0.8-3.6-1.5-7.1-5.2-7.5c-6.7-0.8-8.5,8.4-5.7,12.1c0,0.3,0,0.6,0.3,0.9
			c0.2,0.6,0.7,0.8,1.2,0.9c0.4,0.1,0.8,0.1,1.2,0c-1.4,6.6-1.1,13.4,3.1,19.1c2,2.8,4.7,5,7,7.5c3.2,3.4,4.5,6.9,5.8,11
			c-1.8-1.6-3.5-3.7-5.1-5.1c-4.5-3.8-10.9-9.9-17.1-10.1c-1.7-0.1-6,0.1-7.1,1.7c-0.1,0.2-0.2,0.4-0.3,0.6c-0.2-0.1-0.4,0-0.3,0.2
			c0.4,5.7,2.6,11.6,7.2,15.1c5.2,3.9,12.9,6.6,19.5,6.1c0.1,0,0.2-0.1,0.3-0.1c-1.1,3.6-2,7.3-2.5,11c-0.1,0.7-0.2,1.4-0.2,2.2
			c2,1.7,3.9,3.4,5.8,5.2c0.2-1.7,0.2-3.3,0.3-5c1.9,3,4.4,5.7,6.5,8.1c5.7,6.2,12.8,11.5,21.5,11.8c1.4,0.1,2.2-1.5,1.5-2.7
			c-0.1-0.2-0.2-0.3-0.2-0.5c-0.1-0.5-0.2-1-0.3-1.5c0.3-6.8-5.2-14.5-9.4-19.3c-1.6-1.8-3.4-3.7-5.2-5.4
			c11.4,4.5,23.8,6.4,35.9,7.2c3.8,0.2,8.5-0.7,5.5-5.5c-0.8-1.3-1.8-2.5-2.9-3.6c-2.3-0.7-3.8-1-5.7-1.6c1.2,0.8,2.3,1.6,3.3,2.5
			c0.8,0.7,2.2,1.7,2.6,2.8c1.7,4.3-0.8,3.1-2.9,2.8c-3-0.4-6.1-0.7-9.2-1.1c-10.5-1.3-21.1-3.4-30.7-8c4.1,0.8,8.2,1.6,12.3,2.4
			c6,1.2,12.2,2,18.1,3.9c1.2,0.4,1.7-1.5,0.5-1.8c-11.6-3.7-24-5.4-36-8c3-0.3,6-1,9-1.3c6.7-0.6,13.5-0.8,20.1,0.6
			c1.1,0.2,2.2,0.6,3.3,0.9c-1.5-1-3.1-2.2-4.6-3.3c-5-0.9-10.1-0.9-15.2-0.6c-2.5,0.2-4.9,0.4-7.4,0.7c-1.6,0.2-4.1,0.9-6,1
			c1-1.2,3.1-2.1,4-2.4c1.3-0.4,2.6-0.8,4-1c2.7-0.5,5.3-0.6,8-0.7c3.1-0.1,6.1,0,9.2,0.3c-1-0.8-1.9-1.6-2.7-2.2
			C978.2,1308.7,976.3,1308.6,974.4,1308.6z M936.2,1272.6c-0.7-0.4-1.2-1-1.4-1.9c-0.4-1.3-0.2-2.8,0.2-4.1c0.9-2.6,3.2-4.5,6-3
			c2.9,1.6,2.2,5.2-0.1,6.9c-1,0.7-2,1.2-3.1,1.7C937.3,1272.3,936.6,1272.6,936.2,1272.6z M958,1320.4c3.7,3.2,7.6,6.3,11,9.9
			c2.9,3,5.4,6.4,7.3,10.1c1.2,2.3,1.8,4.9,2.6,7.3c0,0.3,0,0.5,0.1,0.8c-0.8-0.2-1.7-0.1-2.5-0.2c-1.7-0.1-3.2-0.7-4.8-1.3
			c-0.1-0.1-0.2,0-0.3,0c-8.3-4.6-15-12.9-18.2-21.6c0-1.5,0-3,0.1-4.5l0,0c5.3,4.6,9,11.8,13.8,16.8c0.3,0.3,0.9-0.1,0.6-0.5
			c-2.2-3.7-4.8-7-7.2-10.6c-2-3-3.6-6-6.5-8.3c-2.9-2.3-6.5-3.8-9.6-5.8c-3.8-2.4-7.5-4.9-11.4-7.2c-0.2-0.1-0.5,0.2-0.3,0.4
			c5,5.8,11.3,8.9,17.6,13c0,0.1-0.1,0.2-0.1,0.4c-0.2-0.2-0.5-0.4-0.9-0.5c-6.2-0.7-11.6-1.5-17-4.8c-3.4-2.1-5.5-4.5-6.8-8.3
			c-0.3-1-0.6-1.9-0.9-2.8c0-0.8-0.1-2.1-0.2-1.7c0.7-1.7,4.5-2.4,6-2.2c3.7,0.3,7.2,3.1,10.1,5.2c2.7,1.9,5.3,4,7.7,6.3
			c1,0.9,2,2.3,3.1,3.6c0,0.1,0.1,0.2,0.1,0.2c1,1.1,2.1,2.1,3.2,3.2c-0.1,0.5,0,1,0.6,1.4C956,1319.3,957,1319.8,958,1320.4z"/>
		<path fill="#A08525" d="M949.7,1219.8c-1.1,0.1-2.2,0.1-3.3,0.1c-3.8-0.1-7.6-0.8-11.2-2c-0.5-0.2-0.9-0.3-1.3-0.5
			c-0.1,0.4-0.1,0.6-0.1,0.6s-2-0.1-3.7,2.1c-0.3,0.4-0.4,0.7-0.5,1.1c4.1,2.1,9.1,3,13.4,3.5c0,0,0,0,0,0
			C942.1,1222.8,943.5,1222.1,949.7,1219.8z"/>
		<path fill="#A08525" d="M943.2,1175.7c1-0.3,0.9-1.9-0.2-1.9c-2.2,0.1-4.2,1.1-6,2.2c0,0.5,0,1,0,1.6
			C939.1,1177,941.2,1176.3,943.2,1175.7z"/>
		<path fill="#A08525" d="M949.1,1173.7c0.8,0.1,1.5-0.2,2.3-0.3c0.8-0.2,1.6-0.4,2.4-0.8c1-0.5,0.3-2-0.7-1.8
			c-0.8,0.2-1.5,0.5-2.2,0.8c-0.7,0.3-1.5,0.5-2,1C948.5,1172.9,948.6,1173.6,949.1,1173.7z"/>
		<path fill="#A08525" d="M963.5,1170.4c0.8-0.2,1.7-0.2,2.4-0.7c0.8-0.6,0.4-1.6-0.5-1.8c-0.6-0.1-1.2,0.2-1.7,0.3
			c-0.2,0.1-0.5,0.1-0.7,0.2c-0.2,0.1-0.3,0.1-0.5,0.1c-0.2,0-0.3,0.1-0.2,0.1c-0.8-0.2-1.7,0.8-0.9,1.5
			C962,1170.7,962.7,1170.5,963.5,1170.4z"/>
		<path fill="#A08525" d="M937.2,1185.3c0,0.7,0,1.4-0.1,2.1c5.3-2.4,11-3.3,16.5-5.5c0.8,0.7,2.4,0.9,3.2,0.8
			c1.9-0.4,2.7-2.6,2.5-4.4c-0.2-2.1-2.2-2.7-3.9-1.7c-1.3,0.8-2.2,2-2.4,3.4C947.6,1180.5,942,1182.5,937.2,1185.3z M955.5,1179.2
			c0.3-0.3,1-1.2,1.5-1.1c0.7,0.1,0.4,1.6,0.2,2c-0.3,0.5-0.5,0.6-1.1,0.6c-0.2,0-0.9-0.1-1-0.3c0-0.1-0.1-0.2-0.2-0.3
			C955.1,1179.8,955.2,1179.5,955.5,1179.2z"/>
		<path fill="#A08525" d="M1075.6,1217.4c-0.1-0.2-0.1-0.5-0.2-0.7C1075.5,1216.9,1075.5,1217.1,1075.6,1217.4
			C1075.6,1217.4,1075.6,1217.4,1075.6,1217.4z"/>
		<path fill="#E2B625" d="M1113.6,1205.7c-7.2,2.7-21.9,8.5-25.6,8.9s16.5-8.3,16.5-8.3L1113.6,1205.7z"/>
	</g>
</g>
</svg>
