<?xml version="1.0" encoding="utf-8"?>
<!-- Generator: Adobe Illustrator 23.0.1, SVG Export Plug-In . SVG Version: 6.00 Build 0)  -->
<svg version="1.1" id="_x32_5_x5F_Bottom_x5F_Dirndl"
	 xmlns="http://www.w3.org/2000/svg" xmlns:xlink="http://www.w3.org/1999/xlink" x="0px" y="0px" viewBox="0 0 2000 2000"
	 enable-background="new 0 0 2000 2000" xml:space="preserve">
<g>
	<path fill="#153F35" d="M1228.1,1472.7c-2.2-9.1-7.3-70.8-15.3-97.9c-8-27.1-10.4-31.2-15.8-53.8c-5.4-22.6-16.4-48.2-23.9-70
		c-5.7-16.3-10.3-28.6-13.9-39.7c-1.2-3.7-2.2-7.3-3.2-10.9c-0.3-1.3-0.7-2.7-1-4.2c-3.2-13.4-5.8-28.7-5.8-28.7l-9.5-5.4
		c0,0,0.3-1,0.7-5.3c0.3-4.3-2.7-7.1-4.6-5.3c0.1-0.1,0.6-0.8-0.9-3c-1.6-2.3-3-2.1-4.6-1.1s-2.9,1.3-2.9,1.3s0.8-2-2.2-2.6
		c-3-0.5-3.1-0.3-11.4-0.7c-8.4-0.3-12.6,0-12.6,0s1.3-2.8,1.4-4.7c0.1-2-4.8-2.7-7.9,0.3c-3.1,3-5.2,3.7-10.7,3.8
		c-5.6,0.1-6-0.1-6-0.1s0.9-2.9-3.1-4.5c-3.9-1.5-11.8-2-16.7,3.8c0,0-1.4-2.6-4.1-2.2c-2.7,0.4-3.9,2.2-3.6,6.5
		c0.3,4.2,0.5,6.7-1.3,7.7c0,0-2.1-4.6-5-6.8c-2.9-2.3-6.3-3.6-7.5-3.1c-1.2,0.5-3.7,0.6-5.4,0.4c-1.7-0.2-7.5-0.2-9.1,0.4
		c0,0-5.3-2.8-8.2-4.5c-2.9-1.7-5.5-2.4-10.1,0.1c-4.6,2.5-6.4,7.8-6.2,10.7c0,0-2.3-0.4-2,7.1c0,0-8.3-3.4-10.8-4.9
		c-2.6-1.4-2.7-0.4-4.3-0.7c-1.5-0.3-3.9-0.6-4.7,2.6c0,0-4.7-0.8-8.1,0.3c-3.3,1.1-4.6,2-6.9,4c-2.2,1.9-3.1,4.1-0.7,10.6
		c0,0-2.4-0.1-8.3,2.3c-5.9,2.4-4.6,1.7-8,3.1c-3.4,1.3-4.1,0.5-7,9.2c-0.3,0.9-0.6,1.7-0.8,2.5c-2,6.2-2,6.5-3.6,10
		c-1.7,3.6-2,3.8-1.8,5.4c0,0.1,0,0.3,0.1,0.4c0,0-2,0.6-4.4,3.7c0,0-7.1,10.4-10.6,19.9c-6.5,17.5-21.4,60.2-21.4,60.2
		s5.6,5.1,13.6,12c1.9,1.7,4,3.4,6.2,5.3c1.4,1.2,2.8,2.4,4.3,3.6c2.9,2.4,5.8,4.8,8.8,7.2c1.3,1,2.5,2,3.6,2.9
		c5.3,4.3,9.8,8.1,14.3,12.2c1.3,1.1,2.5,2.3,3.8,3.5c6.6,6.1,13.8,13.1,24.2,23c21.2,20.4,28.9,50.9,30,55.5
		c0.9,3.8,7.4,17.5,0.4,41.2c-1.6,5.4-3.8,11.3-7,17.7c-5,10.2-12.3,19.6-20.2,28c-5,5.4-10.3,10.3-15.3,14.6
		c-13.8,11.8-25.6,19.1-25.6,19.1s25.9,12.7,62.7,15.2c36.8,2.6,27.8,2.5,52.1,0c24.3-2.5,31.9-4.2,42-6.7
		c10.1-2.4,10.6-3.4,10.9-19.4c0,0,0.4-0.1,1-0.2c2.8-0.4,11.5-1.7,21.8-3.4c9.1-1.5,19.5-3.4,28.4-5.4
		c21.4-4.8,34.4-10.8,37.8-13.1c3.4-2.3,2.4-7.5,2.4-7.5s0.2,0,0.4,0.1c2.1,0.6,12.2,3.2,22.4,1.4c11.5-2,13.9-2.8,14.6-6.5
		C1232.7,1485.8,1230.3,1481.8,1228.1,1472.7z"/>
	<path opacity="0.3" fill="#05132B" enable-background="new    " d="M948.1,1218.5c6.1-14.5,7.5-18.1,7.5-18.1s-3,1.1-6.5,0.8
		c-3.6-0.2-6.3-1.9-6.3-1.9l10.5-6.8l-17.3-3.1c-2,6.2-2,6.5-3.6,10c-1.7,3.6-2,3.8-1.8,5.4c0,0.1,0,0.3,0.1,0.4c0,0-2,0.6-4.4,3.7
		c0,0-7.1,10.4-10.6,19.9c-6.5,17.5-21.4,60.2-21.4,60.2s5.6,5.1,13.6,12c1.1-3.8,2.4-8.4,3.8-13.1c3.5-11.5,5.2-16.3,5.5-13.2
		s0.8,0.8-0.4,12.6c-0.6,6.1-1.8,13.4-2.8,19c1.4,1.2,2.8,2.4,4.3,3.6c3.1-11,8.3-29.2,10.6-35.9
		C932.2,1264.3,942,1233,948.1,1218.5z"/>
	<path opacity="0.3" fill="#05132B" enable-background="new    " d="M966.1,1198.8c0,0-21.6,68.6-35.3,121.3
		c5.3,4.3,9.8,8.1,14.3,12.2c1.3,1.1,2.5,2.3,3.8,3.5l17.9-113.1L966.1,1198.8z"/>
	<path opacity="0.3" fill="#05132B" enable-background="new    " d="M1217.3,1496c11.5-2,13.9-2.8,14.6-6.5
		c0.8-3.7-1.7-7.7-3.9-16.8c-2.2-9.1-7.3-70.8-15.3-97.9c-8-27.1-10.4-31.2-15.8-53.8c-5.4-22.6-16.4-48.2-23.9-70
		c-5.7-16.3-10.3-28.6-13.9-39.7c-1.2-3.7-2.2-7.3-3.2-10.9c-0.3-1.3-0.7-2.7-1-4.2c-15.8-15.9-27-37.3-23.2-6.5
		c4.7,38.3,26.4,87.1,26.4,87.1s-5.8-28.1-7.4-41s-2.1-19.6,2.6,1.1s10.1,24,9.8,21.3s-4-13.7-3.4-19.2c0,0,7.2,15.6,13.3,33.9
		s11.6,33.4,14.5,47.8c2.9,14.3,6,31.6,9.6,45.8c0,0-8-18.8-13.9-34.3c-6-15.4-16.6-54.1-23.5-61.2l27.3,174.2l-136.7,2.2l-46.6,8
		c-1.6,5.4-3.8,11.3-7,17.7c-5,10.2-12.3,19.6-20.2,28c-5,5.4-10.3,10.3-15.3,14.6c34.8,5.3,62.1,3.3,90.9,1.5
		c35.2-2.2,48.4-6.6,50.2-6.2c1.4,0.3,1.8,9.3,2,12.9c2.8-0.4,11.5-1.7,21.8-3.4c-0.8-6.3-1.8-15.2-1.8-23.6
		c-0.1-15.2-0.6-20.3-0.6-20.3s30.5-7.6,45.5-7.9c15-0.3,21.2,1.4,21.2,1.4l4.7,24.6C1197,1495.2,1207.1,1497.7,1217.3,1496z"/>
	<path fill="none" d="M1142.7,1182.1c-0.1-0.2-0.2-0.3-0.4-0.5c0.1,0.1,0.2,0.3,0.2,0.4C1142.5,1182.1,1142.6,1182.1,1142.7,1182.1z
		"/>
	<path fill="none" d="M1033,1162.7c-0.5,0-1,0.1-1.4,0.2c0.4,0.1,0.7,0.4,0.9,0.7c0.9-0.1,1.8-0.1,2.8,0c0.6-0.4,1.2-0.6,1.8-0.8
		C1036.3,1162.5,1035.1,1162.5,1033,1162.7z"/>
	<path fill="none" d="M1115.3,1170.3c-0.2-0.5-0.3-1.1,0-1.7c0.1-0.2,0.2-0.4,0.2-0.7c-0.7-0.7-1.2-1.3-1.8-1.9
		c-1.2-1.4-3.7-1.8-6.1-1.3c0.3,0.1,0.6,0.2,0.9,0.3c1.5,0.6,0.6,2.8-0.8,2.9c-4.1,0.1-8.1-0.3-12.2-0.1c0.1,0.6,0.3,1.1,0.4,1.7
		c0.3-0.1,0.6-0.2,0.9-0.3c2.7-1,2.5-0.6,4.5,0s3.2,1.2,5.8,0.7c2.7-0.4,2-0.6,4.6,0.8c0.6,0.3,1,0.6,1.4,0.9
		c0.5-0.4,1.1-0.7,1.7-0.8C1115.1,1170.8,1115.2,1170.5,1115.3,1170.3z"/>
	<path fill="none" d="M1139.8,1179.6c1.1,0.6,1.9,1.4,2.4,2.1c-0.6-1.1-1.2-2.7-1-4.1c0.4-2.7-1.1-2-3.8-3.2
		c-0.1-0.1-0.2-0.1-0.3-0.1c-0.5,0.3-1.1,0.4-1.7,0.4c-0.2,0.3-0.6,0.5-0.9,0.6c-0.1,0-0.1,0-0.2,0c0.2,0.9,0.3,1.8,0.4,2.8
		c0.8,0.2,1.6,0.3,2.4,0.5C1138.1,1177.9,1139.6,1178.4,1139.8,1179.6z"/>
	<path fill="none" d="M1126.8,1173.9c-0.9-0.2-1.8-0.6-2.6-1.3c-0.3-0.2-0.6-0.5-0.8-0.8c-0.8,1-1.9,1.6-3.2,1.5
		c-0.2,0.5-0.3,1-0.4,1.5c0.6,0.2,1.3,0.4,2.1,0.6c1.1,0.3,2.1,0.5,3.1,0.7C1125.3,1175.3,1125.9,1174.5,1126.8,1173.9z"/>
	<path fill="none" d="M1020.2,1167.3c-0.2,0.4-0.3,0.8-0.7,1.2c-1.1,1.2-2.6,0.7-3.3-0.4c-0.1,0.2-0.2,0.4-0.3,0.6
		c-0.3,0.6-0.8,1-1.3,1.2c0.2,0.1,0.3,0.2,0.4,0.4c0.2-0.1,0.4-0.2,0.7-0.3c1.8-0.5,3.4-0.3,5.1-0.9c-0.4-0.2-0.2-0.9,0.3-0.9
		c1-0.1,1.8-0.4,2.4-1C1022.5,1167.4,1021.4,1167.4,1020.2,1167.3z"/>
	<path fill="none" d="M1037.1,1166.1c-0.1,0.1-0.2,0.1-0.3,0.2c0.5,0.3,1.2,0.7,2.2,0.8c0.1-0.2,0.1-0.3,0.2-0.5
		C1038.5,1166.3,1037.8,1166.1,1037.1,1166.1z"/>
	<path fill="none" d="M1007.5,1172.8c-0.1,0-0.2,0-0.3-0.1c0,0,0,0-0.1,0c-3.2,0-5.6,0.5-7.3,1.2c2-0.2,4.1-0.2,5.5,0.2
		c1.2,0.3,2.1,0.5,3.1,0.4C1007.8,1174.1,1007.5,1173.5,1007.5,1172.8z"/>
	<path fill="none" d="M1062,1162.8c-0.4-0.1-0.7-0.3-1-0.6c-0.2,0-0.3,0-0.5,0c-1.1,0.6-2.3,1.1-3.6,1.5c0.1,0.6,0.1,1.2,0,1.8
		c1.6-0.1,3.2-0.1,4.5,0.3c0.5-0.9,1.1-1.8,1.8-2.5C1062.8,1163.1,1062.4,1162.9,1062,1162.8z"/>
	<path fill="none" d="M1092.1,1164.8c-0.4,0.1-0.9,0.1-1.3-0.1c-1.3-0.4-2.3-0.9-3-1.5c-0.6,0.3-1.3,0.5-2.2,0.3
		c-5.3-1.2-10.6,0.5-16,0.5c0.2,1,0.1,2.2-0.2,3.2c1.2-0.6,2.8-1.6,7.5-2.3c5.8-0.8,13.1,0.9,13.8,1.9s0.5,3.1,0.5,3.1s0.4,0,1,0
		C1092.1,1168.2,1092,1166.6,1092.1,1164.8z"/>
	<path fill="none" d="M1097.5,1164.9c0.8,0,1.7,0.1,2.6,0.1c0,0-0.1,0-0.1,0C1098.9,1164.7,1098.1,1164.7,1097.5,1164.9z"/>
	<path fill="#34AF93" d="M1139.8,1179.6c0.1,0.3,0.1,0.6-0.1,0.9c0,0.1,0,0.1-0.1,0.2c0,0,0,0.1,0.1,0.1c0.4,0,0.9,0,1.3,0.3
		c0.5,0.3,0.9,0.6,1.4,0.9c-0.1-0.1-0.2-0.3-0.2-0.4C1141.7,1180.9,1140.9,1180.2,1139.8,1179.6z"/>
	<path fill="#34AF93" d="M1210,1461c0,0-63.9-12.7-102.6,0.3c-38.7,12.9-44.8,24.8-44.8,24.8s-0.4,3.4-2.3,7.7
		c-0.3,0.7-0.6,1.3-0.9,1.7c-1.2,1.9-2.4,0.8-9.5,2.4c-8.6,1.9-21.6,0.9-25.3,1.8c-3.6,0.9-9.2,5-27.5,4.3
		c-9.3-0.4-16.2-1.6-20.7-2.7c7.8-8.3,15.2-17.8,20.2-28c17.2-34.7,7.6-54.2,6.6-58.9c-0.4-1.8-1.9-7.7-4.8-15.4
		c-4.5-11.8-12.4-27.8-25.2-40.1c-5.5-5.2-10-9.7-14.1-13.6c-0.2-0.1-0.3-0.3-0.5-0.4c-5-4.8-9.3-8.7-13.5-12.5
		c6.3-23.6,16.5-93.1,18-108.4c1.7-16.8,1.8-26.3,3.1-28.3c0,0,1.3-1,2.7-2.2c0.8-0.7,1.7-1.5,2.2-2.2c1.4-1.7,0.4-2,0.3-4.2
		c-0.1-2.2,0.8-1.6,3.5-2.6c2.6-1,2.5-0.4,6.6-1.9c4.1-1.4,6.1-3.1,6.1-3.1s-0.1-1,0.7-1.9c0.8-0.9,4.3-1.9,6.7-2.7
		c1.2-0.3,3-0.7,4.9-0.9c2-0.2,4.1-0.2,5.5,0.2c1.2,0.3,2.1,0.5,3.1,0.4c1.2,0,2.5-0.3,4.5-0.8c3.7-0.9,1.9-1.2,3.2-1.8
		c1.3-0.5,3.2-0.9,5.5-1c2.3-0.1,1-0.8,1.9-1.5c0.9-0.7,0.9-0.9,4.6-1.7c3.6-0.8,2.2-1,3.7-1.6c1.5-0.5,3.4-0.7,4.1-0.5
		c0.3,0.1,0.5,0.3,0.9,0.5c0.5,0.3,1.2,0.7,2.2,0.8c0.1,0,0.2,0,0.3,0c1.9,0,11.7-1,14.6-1.3c0.9-0.1,2-0.2,3-0.3
		c1.6-0.1,3.2-0.1,4.5,0.3c0.4,0.1,0.7,0.3,1,0.5c2.1,1.4,4.8,1.9,6.1,1.4c0.3-0.1,0.5-0.2,0.8-0.4c1.2-0.6,2.8-1.6,7.5-2.2
		c5.8-0.8,13.1,0.9,13.8,1.9c0.7,1,0.5,3.1,0.5,3.1s0.4,0,1,0c0.9,0,2.4-0.1,3.9-0.5c0.3-0.1,0.6-0.2,0.9-0.3c2.7-1,2.5-0.6,4.5,0
		c2,0.6,3.2,1.2,5.8,0.8c2.7-0.4,2-0.6,4.6,0.8c0.6,0.3,1,0.6,1.5,0.9c1.3,1,2.6,1.9,6.4,3.1c0.6,0.2,1.3,0.4,2.1,0.6
		c1.1,0.3,2.1,0.5,3.1,0.7c4,0.8,7,1.2,9.8,1.7c0.8,0.2,1.6,0.3,2.4,0.5c0.2,0.1,0.4,0.1,0.6,0.2c0.8,0.2,1.5,0.6,2.1,0.9
		c0.1,0.3,0.1,0.6-0.1,0.9c0,0.1,0,0.1-0.1,0.2c0,0,0.1,0.1,0.1,0.1c0.4,0,0.9,0,1.3,0.3c0.5,0.3,0.9,0.6,1.4,0.9
		c0.5,0.8,0.9,1.3,0.9,1.3s-0.2-0.5-0.7-1.2c-0.1-0.2-0.2-0.3-0.4-0.5c-0.6-1.1-1.2-2.7-1-4.1c0.4-2.7-1.1-2-3.8-3.2
		c-0.1,0-0.2-0.1-0.3-0.1c-2.6-1.2-5.2-1.7-12.6-2.8c-5.1-0.8-7.5-2.1-9-3.4c-0.7-0.7-1.2-1.3-1.7-1.9c-1.2-1.4-3.7-1.8-6.1-1.2
		c-0.7,0.1-1.3,0.3-1.9,0.6c-2.8,1.2-2.6,0.6-5.8-0.4c0,0-0.1,0-0.1,0c-1.1-0.3-1.9-0.3-2.5-0.1c-1.2,0.4-1.6,1.3-2.2,1.2
		c-0.9-0.2-0.5-2.2-3.8-4.2s-8.9-2.1-18.5-0.8c-9.6,1.2-6.5,2.3-7.4,2c-0.9-0.3-0.1-1.9-1.4-3.1s-4.1,0.3-6.9,1.7
		c-2.8,1.3-9,1-13.6,1c-4.6-0.1-4.8,1.8-5.4,0.9c-0.2-0.4-0.6-0.7-1.2-0.8c-0.8-0.2-2-0.2-4.1,0c-0.5,0-1,0.1-1.4,0.2
		c-0.2-0.1-0.4-0.1-0.6-0.1c-1.4-0.2-3.6,0.5-4.7,1.5c-1.1,1-1.8,2.2-2.9,3c-1,0.2-2.1,0.1-3.3,0.1c-1.1,0-2.3,0-3.7,0.1
		c-4.6,0.3-5.1,1.5-5.8,3c-0.8,1.5-1.3,1.7-4.1,1.2c-2.7-0.5-2.8-0.5-8,0s-9.2,3.6-12.4,4.6c-3.2,1-2.3,1.5-2.7,2.7
		c-0.4,1.2-1.6,2.8-6.9,3.3c-5.3,0.5-4.9,0.3-8.1,3.6c-3.2,3.2-4,5.3-4.7,4.8c-0.7-0.5-0.5-1.9-1.2-5.2c-0.7-3.3-2-8.8-2.7-10.4
		c-0.7-1.6-3.2,1-1.8,7.2s2.2,8.2,1.7,9.4c-0.5,1.2-1.8,3.4-6.3,4.5c-4.5,1.2-15.1,3.1-18.3,6.2c-1.9,1.8-3.1,2.4-4.7,2.3
		c-0.3-1.6,0-1.8,1.8-5.4c1.8-3.9,1.6-3.8,4.4-12.5c2.8-8.7,3.6-7.9,7-9.2c3.4-1.3,2.1-0.7,8-3.1c5.9-2.4,8.3-2.3,8.3-2.3
		c-2.4-6.5-1.5-8.6,0.7-10.6c1.7-1.4,2.8-2.3,4.7-3.1c0.6-0.3,1.4-0.6,2.2-0.9c3.3-1.1,8.1-0.3,8.1-0.3c0.8-3.2,3.2-2.9,4.7-2.6
		c1.5,0.3,1.7-0.8,4.3,0.7c2.6,1.4,10.8,4.9,10.8,4.9c-0.2-7.5,2-7.1,2-7.1c-0.2-2.4,1.1-6.5,4.1-9.2c0.6-0.6,1.3-1.1,2.1-1.5
		c0.4-0.2,0.8-0.4,1.1-0.6c3.9-1.8,6.3-1.1,9,0.5c2.9,1.7,8.2,4.5,8.2,4.5c1.7-0.6,7.4-0.6,9.1-0.4c1.3,0.1,2.9,0.1,4.2-0.1
		c0.5-0.1,0.9-0.2,1.2-0.3c1.2-0.5,4.6,0.8,7.5,3.1c2.9,2.3,5,6.8,5,6.8c1.8-1.1,1.7-3.5,1.3-7.7c-0.3-4.2,0.9-6.1,3.6-6.5
		c2.3-0.4,3.7,1.4,4,2c0.1,0.1,0.1,0.2,0.1,0.2c4.9-5.8,12.8-5.3,16.7-3.8c3.9,1.6,3.1,4.5,3.1,4.5s0.1,0,0.4,0.1c0.6,0,2,0.1,5.6,0
		c5.6-0.1,7.6-0.8,10.7-3.8c1.9-1.8,4.5-2.3,6.2-1.9c1,0.2,1.8,0.8,1.7,1.6c-0.1,2-1.4,4.7-1.4,4.7s2.2-0.2,6.6-0.1
		c1.7,0,3.6,0.1,5.9,0.1c8.4,0.3,8.5,0.1,11.4,0.7c0.4,0.1,0.7,0.2,1,0.3c1.8,0.8,1.2,2.2,1.2,2.2s1.4-0.3,2.9-1.3s3-1.2,4.6,1.1
		c1.5,2.1,1,2.9,0.9,3c1.9-1.8,4.9,1.1,4.6,5.3c-0.3,4.3-0.7,5.3-0.7,5.3l9.5,5.4c0,0,1.7,9.9,4,20.7c0.9,4.1,1.8,8.3,2.8,12.2
		c0.9,3.6,2,7.2,3.2,10.9c-13.7-15.3-14.9-15.4-15.3-12.4c-0.2,1.1-0.1,3.6,0.3,6.8c0.6,6.1,1.9,14.9,3.3,22.3
		c2.1,11.4,5.2,25.6,9.8,36.5c4.6,10.9,7.2,18.8,12,40s13.5,50.2,17.4,61.3c3.9,11.1,13.8,47.9,16.3,62.8
		C1205.4,1443.4,1210,1461,1210,1461z"/>
	<path fill="#FF7031" d="M1004.8,1142.2c-1.4,0.2-2.4,1-3.2,2c0.6-0.6,1.3-1.1,2.1-1.5C1004.1,1142.6,1004.5,1142.4,1004.8,1142.2z"
		/>
	<path fill="#FF7031" d="M1143.4,1183.4c0,0-0.2-0.5-0.7-1.2c-0.1,0-0.1-0.1-0.2-0.1C1142.9,1182.8,1143.4,1183.4,1143.4,1183.4z"/>
	<g>
		<path fill="#34AF93" d="M1031.6,1162.9c-2.3,0.5-2.3,1.8-5,3.3c-1.1,0.6-2.1,0.9-3.1,1.1c1-0.8,1.8-2.1,2.9-3
			c1.1-0.9,3.2-1.6,4.7-1.5C1031.2,1162.7,1031.4,1162.8,1031.6,1162.9z"/>
	</g>
	<path opacity="0.3" fill="#05132B" enable-background="new    " d="M1024.8,1160.3c0,0.3,0.1,0.5,0.2,0.7c0.2,0.4,0.6,0.7,1.1,0.7
		c0.6,0.1,1.2-0.1,1.5-0.6c2-1.3,3.2-3.4,3.6-5.8c0.3-1.9,0.3-6.6-2.2-7.1c-0.8-0.2-1.6,0.1-2,0.8c0.2-0.4-1.1,0.5-1.3,0.9
		c-0.5,0.8-0.4,1.8-0.4,2.7c0.1,1.4,0.1,2.8,0.1,4.2C1025.2,1157.9,1024.8,1159.1,1024.8,1160.3z"/>
	<path opacity="0.3" fill="#05132B" enable-background="new    " d="M1124.9,1187.3c0.3,3.2,0.8,6.3,0.7,9.5
		c-0.1,3.1-0.6,6.2-0.8,9.2c-0.1,0.4-0.2,0.8-0.3,1.3c-0.2,0.9,0.1,1.6,0.6,2.1c1,1.4,3.6,1,3.8-1.2c0-0.2,0-0.3,0.1-0.5
		c2-6.3,3.5-12.5,4.4-19.1c0.4-3,1.5-7.1,1.4-10.7c-2.8-0.5-5.9-0.9-9.8-1.7C1123.4,1179.4,1124.6,1184.1,1124.9,1187.3z"/>
	<path opacity="0.3" fill="#05132B" enable-background="new    " d="M1112.7,1172.7c-3.3,9.2-9.2,21.5-1.1,29.9
		c0.9,1,2.1,0.7,2.8-0.1c0.8-0.2,1.5-0.8,1.7-1.8c1.9-8.3,1.5-17.5,3.6-25.8c-3.9-1.2-5.1-2.2-6.4-3.1
		C1113,1172,1112.8,1172.3,1112.7,1172.7z"/>
	<path opacity="0.3" fill="#05132B" enable-background="new    " d="M1112.1,1156.4c1.1,2.8,4.5,8.1,3.5,11.6c1.5,1.3,3.8,2.7,9,3.4
		c7.3,1.1,10,1.6,12.6,2.8c0.5-0.3,0.8-0.9,0.9-1.6c0-0.7,0.9-1.1,1.2-1.8c0.5-1.1,0.3-2.3-0.3-3.3c-0.5-0.8-1.3-1.6-2.3-1.5
		c-0.3,0-2.3,0.9-2.1,1.2c-0.3-0.3-0.6-0.3-0.9-0.2c-0.8-0.6-2-0.9-2.9-0.3c-0.3-0.8-0.9-1.5-1.8-1.9c-1-1.5-1.4-3.1-1.3-4.9
		c-0.2-2.2-0.2-4.4-0.4-6.6c-0.2-2.4-0.4-4.5-1.2-6.6c-0.3-0.1-0.6-0.2-1-0.3c-3-0.5-3.1-0.3-11.4-0.7c-2.3-0.1-4.3-0.1-5.9-0.1
		c0.3,1.8,1,3.3,2.1,4.9C1110.5,1152.5,1111.3,1154.4,1112.1,1156.4z"/>
	<path opacity="0.3" fill="#05132B" enable-background="new    " d="M1092.3,1171.6c0.1,3.6-1.5,6.6-1.9,10.1
		c-0.8,6.8,0.8,14.5,2.4,21c1.2,4.8,2.4,13.1,6.6,16.3c1.3,1,2.5,1.2,3.5,0.8c2.1,0.6,3.1-0.3,3.5-1.9c0.6-1,0.6-2.2,0.1-3.3
		c-0.4-4.8-2.8-11.3-3.2-12.8c-1.4-4.7-3.6-9.1-4.8-13.8c-1-4.1-0.6-9.3-1.9-13.3c0.2-1.8-0.1-3.5-0.5-5.2c-1.5,0.4-3,0.5-3.9,0.5
		C1092.2,1170.5,1092.2,1171,1092.3,1171.6z"/>
	<path opacity="0.3" fill="#05132B" enable-background="new    " d="M1031.8,1166.2c-1.5,0.5-0.1,0.8-3.7,1.6s-3.7,1.1-4.6,1.7
		c-0.9,0.7,0.4,1.4-1.9,1.5s-4.2,0.5-5.5,1s0.6,0.9-3.2,1.7c-2,0.5-3.3,0.8-4.5,0.8c0.2,0.1,0.3,0.2,0.5,0.3
		c0.3,0.1,0.5,0.3,0.7,0.6c-0.2,1.3-1.7,4.6-1.8,5c-0.8,2.2-1.7,4.4-2.4,6.6c-1.2,3.9-2.2,7.9-2.1,12c0.1,5.5,2.6,15.8,9.1,16.7
		c2.1,0.3,3.7-1.2,3.7-2.9c1.9-6,1.2-13.1,0.8-19.2c-0.4-6.4-0.4-12.9-1-19.3c1-1.2,2.3-0.8,4-1c1.4-0.2,2.7-0.6,3.9-1.1
		c-1.7,4.3-3,8.9-3.4,13.4c-0.2,2.8,3.9,3,4.6,0.6c0,0,0,0,0,0c0.3-1.2,0.7-2.5,1-3.7c1.1-2,1.8-4.3,2.7-6.3
		c1.2-2.7,2.3-5.4,3.4-8.1c1.4-1,3-1.2,4.5-2c-0.3-0.2-0.6-0.4-0.9-0.5C1035.2,1165.6,1033.3,1165.7,1031.8,1166.2z"/>
	<path opacity="0.3" fill="#05132B" enable-background="new    " d="M959.9,1172.5c0,0-2.4-0.1-8.3,2.3c-5.9,2.4-4.6,1.7-8,3.1
		c-3.4,1.3-4.1,0.5-7,9.2c-2.8,8.7-2.6,8.6-4.4,12.5c-1.7,3.6-2,3.7-1.8,5.4c1.6,0.1,2.8-0.6,4.7-2.3c3.3-3.2,13.8-5.1,18.3-6.2
		c4.5-1.2,5.8-3.3,6.3-4.5c0.5-1.2-0.3-3.2-1.7-9.4c-1.3-6.2,1.1-8.8,1.8-7.2s2.1,7.1,2.7,10.4s0.5,4.7,1.2,5.2
		c0.7,0.5,1.4-1.6,4.7-4.8s2.9-3.1,8.1-3.6c5.3-0.5,6.5-2.1,6.9-3.3c0.4-1.2-0.5-1.8,2.7-2.7s7.2-4.1,12.4-4.6s5.2-0.5,8,0
		s3.3,0.2,4.1-1.2s1.2-2.7,5.8-3c1.4-0.1,2.6-0.1,3.7-0.1c0.1-0.2,0.2-0.5,0.3-0.8c0.5-1.8,1.2-4.2,1.3-6.1c0.2-2.6-1.2-5.5-2.2-7.8
		c-1.3-2.9-3.5-4.8-6.2-6.3c-2.1-1.2-4.5-3.8-7-4.1c-0.6-0.1-1.1,0-1.6,0.1c-0.4,0.2-0.7,0.3-1.1,0.6c-0.8,0.4-1.5,0.9-2.1,1.5
		c-1.9,2.6-2.2,7.1-1.7,9.8c0.8,3.7,3,6.7,4.8,9.9c1,1.7,1.6,4.1,2.7,6c-1.2-0.1-2.4-0.4-3.6-0.5c-1.5-0.2-2.1,0.2-3.4,0.5
		c-2.8,0.4-4.8-1.8-7.4-1.2c-1.8-3-5.3-5.7-7.6-7.8c-1.8-1.7-5-5.3-7.8-3.8c-2.9,1.5-1.6,5.2-1.1,7.7c0.9,4.7,2,9.4,3.4,14
		c-2.2,0.5-4.3,1.2-6.3,2.2c-2.4-3.9-4-8.3-5.2-12.7c-0.4-1.4-0.9-3-0.9-4.5c0-1,0.5-2.2,0.4-3.2c-0.1-0.8,0-1-0.6-1.7
		c-0.3-0.3-0.8-0.4-1.2-0.3c-0.2,0.1-0.4,0.1-0.7,0.2c0-0.1-0.1-0.1-0.1-0.1c-1.8,0.8-3,1.7-4.7,3.1
		C958.4,1163.8,957.5,1165.9,959.9,1172.5z"/>
	<path opacity="0.3" fill="#05132B" enable-background="new    " d="M1037.2,1162.7C1037.1,1162.7,1037.1,1162.7,1037.2,1162.7
		c0.6,0.2,0.9,0.4,1.1,0.8c0.5,0.9,0.8-1,5.4-0.9s10.8,0.3,13.6-1c2.8-1.3,5.6-2.8,6.9-1.7s0.5,2.8,1.4,3.1c0.9,0.3-2.2-0.8,7.4-2
		c9.6-1.2,15.2-1.2,18.5,0.8c3.3,2,2.9,4.1,3.8,4.2c0.6,0.1,1-0.8,2.2-1.2c-0.6,0-1.2,0-1.8,0c-0.2-1.4-0.3-2.9-0.7-4.2
		c1.8-5.9,3.4-12.3,6.4-17.6c0.7-1.3,0.4-2.8-0.7-3.7c-1.7-0.4-4.3,0-6.2,1.9c-3.1,3-5.2,3.7-10.7,3.8c-3.6,0.1-5.1,0-5.6,0
		c0,2,0.1,4,0.4,6.2c0.2,1.5,0.1,3.2,0.4,4.8c-2.3,0.3-4.6,0.7-6.9,0.7c-2.2,0-4.5-0.1-6.8-0.3c2.3-4,4.9-7.7,8-11.3
		c1.1-1.2,0.9-3.7-1.1-4c-7.6-1-14.2,2.1-17.1,8.9c0.3-2.2,1.6-4.6,2.8-5.9c-0.4-0.6-1.7-2.3-4-2c-2.7,0.4-3.9,2.2-3.6,6.5
		c0.3,4.2,0.5,6.7-1.3,7.7c0,0-2.1-4.6-5-6.8s-6.3-3.6-7.5-3.1c-0.3,0.1-0.7,0.2-1.2,0.3c0.2,3.6,0.5,7.1,1,10.7
		C1036.6,1159,1036.6,1161.1,1037.2,1162.7z"/>
	<path opacity="0.3" fill="#05132B" enable-background="new    " d="M1039.3,1167.1c-0.1,0-0.2,0-0.3,0c-0.9,2.1-1.7,4.1-2.4,6.3
		c-1.4,2.7-2.6,5.6-3.5,8.2c-1.5,4.3-2.7,12,0.7,15.7c0.4,0.5,1,0.7,1.6,0.7c0.8,0.2,1.4-0.1,1.9-0.5c6.4-2.8,6.5-12.2,9-17.9
		c1.1-2.5,2.3-5,4.4-6.8c1.3-1.2,2.8-1.5,4.1-2.7c1.4-1.3,2-2.9,2.2-4.6c-1,0.1-2,0.2-3,0.3C1051,1166,1041.2,1167.1,1039.3,1167.1z
		"/>
	<path opacity="0.3" fill="#05132B" enable-background="new    " d="M1062.5,1166.2c-0.3-0.2-0.7-0.4-1-0.5
		c-0.9,1.5-1.6,3.2-2.4,4.4c-2.3,3.8-4.6,7.6-5.7,11.9c-0.4,1.9,1.4,3.6,3.1,3.1c0.4,0,0.9-0.2,1.3-0.5c3.4-2.6,5.7-6.7,7.8-10.4
		c1.1-1.9,3-4.4,3.7-6.9c-0.3,0.1-0.5,0.3-0.8,0.4C1067.2,1168.2,1064.6,1167.7,1062.5,1166.2z"/>
	<path opacity="0.3" fill="#05132B" enable-background="new    " d="M1026.4,1164.2c-1.1,1-1.8,2.2-2.9,3c1-0.2,2-0.4,3.1-1.1
		c2.7-1.5,2.7-2.8,5-3.3c-0.2-0.1-0.4-0.1-0.6-0.1C1029.6,1162.6,1027.5,1163.2,1026.4,1164.2z"/>
	<path opacity="0.3" fill="#05132B" enable-background="new    " d="M979.8,1195.8c0,0,2.3,16.4,3.1,31c0.8,14.6,3.1,23.7,4.3,51.3
		c1.2,27.6,0,43.7,0,43.7s7.3-24.3,9.4-38.8c2.1-14.5,2-29.1,1.3-51.5s-2.3-53.3-2.1-54.1c0.1-0.5,1.1-2.2,4.1-3.4
		c-1.9,0.2-3.7,0.6-4.9,0.9c-2.4,0.7-5.9,1.8-6.7,2.7s-0.7,1.9-0.7,1.9s-2,1.7-6.1,3.1c-4.1,1.4-4,0.8-6.6,1.9s-3.5,0.4-3.5,2.6
		s1,2.6-0.3,4.2c-0.5,0.6-1.4,1.4-2.2,2.2c0.5-0.2,0.9-0.2,1.1-0.3c1.1-0.2,1.5,0.3,1.3,5.2c-0.2,4.8-2.4,36.8-2.5,43.9
		c-0.1,7.1-3.5,39.4-4.3,49.9c-0.6,8.7-4.5,41.6-5.8,52.8c0.2,0.1,0.3,0.3,0.5,0.4c6.7-24.6,11-45.2,15.9-85.4
		C980,1217.9,979.8,1195.8,979.8,1195.8z"/>
	<path opacity="0.3" fill="#05132B" enable-background="new    " d="M1106.9,1164.6c1-0.1,2-0.7,2.2-1.9c0.4-2,0.1-3.7-1.3-4.9
		c-0.2-0.5-0.4-1-0.5-1.6c-0.4-2.4-0.3-4.7-1.2-6.9c-0.4-1.1-1.5-1.9-2.8-1.6c-3.3,1-4,5.5-3.9,8.6c0,1.8,0.4,3.6,1.3,5.1
		c0.3,0.5,0.8,1,1.3,1.4c0.3,0.3,0.7,0.5,1.1,0.6c0.2,0.2,0.4,0.2,0.5,0.3c0,0.6,0.2,1,0.6,1.3c-0.5,0.1-0.9,0.1-1.5,0.2
		c-0.9,0-1.7,0-2.6,0c3.2,0.9,3.1,1.6,5.8,0.4c0.6-0.3,1.2-0.5,1.9-0.6c-0.3-0.1-0.7-0.1-1-0.2
		C1106.8,1164.7,1106.9,1164.6,1106.9,1164.6z"/>
	<path opacity="0.3" fill="#05132B" enable-background="new    " d="M1027.3,1196.1c-0.2-1.5-2.8-1.5-3.1,0
		c-0.1,0.8-0.2,1.7-0.3,2.5c-0.3,0.2-0.5,0.6-0.5,1c-0.6,7.8-0.7,15.7-1.5,23.5c-0.8,8.2-3.3,16-4.8,24.1c-1.3,6.8-2.8,13.9-3,20.8
		c-0.2,7.4,2.8,13.9,6.1,20.3c1.1,2.2,4.2,1.4,4.9-0.6c2.5-7.1,2.8-13.9,1.8-21.3c-1.1-8.8-1.2-17.4,0.8-26.1c1.8-7.6,4-13.9,3-21.8
		C1029.9,1210.9,1028.4,1203.5,1027.3,1196.1z"/>
	<path opacity="0.3" fill="#05132B" enable-background="new    " d="M1128.8,1276.9c-1.4-8.1-2.3-16.2-3.2-24.4
		c-1-9.3-2.9-18.5-4-27.8c-0.1-1.5-0.1-3.1-0.2-4.6c-0.1-1.5-0.3-2.9-0.5-4.4c-0.1-2.7-0.1-5.3,0-8c0.1-1.3-1.9-1.3-2.1,0
		c-0.3,2.8-0.4,5.5-0.5,8.2c-0.1,0.8-0.2,1.5-0.3,2.2c-0.4,3.2-0.3,6.4-0.3,9.6c0.1,6.4,0.4,12.8,0.9,19.2
		c0.5,5.7,1.4,11.3,2.4,16.9c0.8,4.5,1.9,8.6,3.2,12.7c0.6,3.6,1.3,7.2,2.5,10.6c1,2.9,1.9,6.7,4.2,8.7c0.2,0.2,0.6,0.1,0.6-0.2
		c0.8-3-0.4-6-0.9-9.1C1130.1,1283.3,1129.3,1280.1,1128.8,1276.9z"/>
	<path opacity="0.3" fill="#05132B" enable-background="new    " d="M1150.5,1185.2c-0.5-1.3-2-1.9-3.2-1.5
		c-0.3-0.4-0.8-0.8-1.3-1.2c-0.9-0.6-1.9-0.4-2.6,0.2c-0.3-0.2-0.5-0.4-0.8-0.6c0.5,0.7,0.7,1.2,0.7,1.2s-0.4-0.5-0.9-1.3
		c-0.5-0.3-0.9-0.6-1.4-0.9c-0.4-0.3-0.9-0.4-1.3-0.3c0,0,0-0.1-0.1-0.1c0-0.1,0-0.1,0.1-0.2c0.1-0.3,0.1-0.7,0.1-0.9
		c-0.6-0.4-1.3-0.7-2.1-0.9c-0.2-0.1-0.4-0.1-0.6-0.2c-0.4,0.2-0.7,0.5-0.9,1c-0.2,0.5-0.4,1-0.6,1.5c-0.1,0.2-0.1,0.3-0.1,0.5
		c-1.4,5.3-0.6,11.2-0.4,16.8c0,1.6-0.1,3.2-0.1,4.8c0,0.1,0,0.1,0,0.2c-0.8,8.1-2,15.9-1.8,24c0.2,7.7,1.1,15.3,2.6,22.9
		c0.8,3.8,1.4,9.1,3.3,12.6c0.7,1.3,1.2,2.2,3,2.2c1.5,0,2.4-1.3,2.3-2.6c0.1-0.3,0.2-0.6,0.2-0.9c0.3-6.3-1.4-12.5-2.5-18.7
		c-1.3-7-1.7-13.9-2-21c-0.3-9.8,0-19.5-0.2-29.3c1.4,4.4,2.8,8.8,4,13.2c-0.3-3.2-0.4-5.7-0.3-6.8c0.5-2.9,1.7-2.9,15.3,12.4
		c-1.2-3.7-2.2-7.3-3.2-10.9c-1-3.9-2-8.1-2.8-12.2c-0.7-0.5-1.7-1.2-2.2-1.6C1150.8,1186.2,1150.7,1185.7,1150.5,1185.2z"/>
	<g opacity="0.3">
		<path fill="#05132B" d="M1085.3,1234.9c-2.4-23.6-4.5-37.2-5-46.5s-0.9-13.8-0.8-16.2s-2.2-4.6-3.9-1.3c-1.7,3.3-2.1,7.3-8.5,11.9
			c-6.4,4.6-6.6,4.2-11.9,7.9c-5.3,3.7-6.6,7.8-10.5,30.6c-3.9,22.8-9.2,55.7-14.8,83.4c-5.4,27-14.8,60.3-31.6,94.4
			c2.9,7.7,4.4,13.6,4.8,15.4c1.1,4.6,10.6,24.2-6.6,58.9c-5,10.2-12.3,19.6-20.2,28c4.5,1.1,11.4,2.3,20.7,2.7
			c18.3,0.7,23.9-3.4,27.5-4.3s16.7,0.1,25.3-1.8c7.1-1.6,8.3-0.5,9.5-2.4c8-25.1,15.3-58.5,22.8-109.3
			C1090.4,1330.4,1087.9,1259.8,1085.3,1234.9z"/>
	</g>
</g>
</svg>
