<?xml version="1.0" encoding="utf-8"?>
<!-- Generator: Adobe Illustrator 23.0.1, SVG Export Plug-In . SVG Version: 6.00 Build 0)  -->
<svg version="1.1" id="_x33_6_x5F_Bottom_x5F_AdidasTracksuit"
	 xmlns="http://www.w3.org/2000/svg" xmlns:xlink="http://www.w3.org/1999/xlink" x="0px" y="0px" viewBox="0 0 2000 2000"
	 enable-background="new 0 0 2000 2000" xml:space="preserve">
<g>
	<path fill="#D42E2D" d="M1212.3,1528.5c-4.3,5-10,8.1-12.4,13.7c-2.4,5.6,0.1,7.3,2.2,12c2,4.7,2.6,17.5-13.4,19.3
		c0,0,1.3,4.3-1.2,10.7s-0.9,4.6-12.2,5s-29.2-2.7-44.9-2.8c-15.8-0.1-34.5,0-46.3,5.4c0,0,2.8,6.1,2.7,15.1s-3.4,7.6-6.8,17.2
		c-3.4,9.6-5.1,13-14.8,17.1s-25.4-2.9-32.9-5.6c-7.5-2.7-21.2-9.6-49-13.5c-27.8-4-50.5-1.8-61.5-0.5c-11,1.3-21.6,5.6-29,4.7
		c-7.3-0.8-7.7-7-7.2-17c0,0-6.1-6.2-26.3-9.3c-20.2-3.1-31.3-2.5-40.3-4c-9.1-1.5-11.2-5.6-10.1-10.9c0,0-9.6-4.3-10.2-12.9
		c-0.6-8.6,0.1-8.6,2.4-12.5s3.3-7.8,3.3-7.8s15.9,7.4,44.2,10.8c28.3,3.3,58.2-7.8,79.7-23c21.5-15.2,55.2-40.7,66.6-63.4
		c11.4-22.7,16.4-48.6,2.3-82.3c-14.1-33.7-41.7-54.5-56.9-65.6c-15.3-11.1-28.8-24.9-28.8-24.9s-2-17.9,2.9-30.2
		c5-12.3,8.2-20.1,11.3-34.9c3-14.8,3.4-30.9,6.5-36.9c3.1-5.9,3.5-9.2,3.5-9.2s-0.8-4.2,1.8-9.1c0,0-1.9-2.4-1.8-5.1
		c0.2-2.8,3.5-5.4,3.5-5.4s-1.7-1,0-4.8s-0.1-3,14.7-9.8c14.8-6.8,53-17.7,97.9-18.2c44.8-0.4,71.3,3.4,82.9,5.8
		c11.6,2.4,13.2,6,10.4,10.2v0.5c0,0,1.5-0.4,2.4,2.1c0.9,2.4,1.1,4.6-0.6,5.4c0,0,2.2,1.5,2.5,4.3s-0.5,5-0.5,5s-0.1,0.3,2.1,6.6
		c2.2,6.3,1.6,6,2.6,11.3c0.9,5.3,4.3,11.7,4.3,11.7s0.8-0.3,2,1.7s3.6,4.2,6.4,9.6c2.8,5.4,5.3,9.3,4.9,16.5
		c-0.4,7.2-1,6.5-1.2,13.1s-0.1,9.2,2.4,16.3c2.5,7.1,5,18.4,7.9,32.1c2.8,13.7,3.7,24.2,5.6,39.8c1.5,12.1,2.8,24.5,3.5,37.8
		c0.2,3.9,0.3,7.9,0.4,12c0.5,28.3,0.4,50.3,3.8,64.5c0.7,3,1.6,5.6,2.6,7.9c6,13.2,15,30.3,20.2,44.8
		C1221.2,1513.2,1216.6,1523.6,1212.3,1528.5z"/>
	<path fill="#971A1C" d="M1158.2,1217.3c-1,9.1,2.5,19.8,6.5,29s7.4,13.4,7.4,13.4c-2.5-7.1-2.7-9.7-2.4-16.3s0.8-5.9,1.2-13.1
		s-2-11.1-4.9-16.5s-5.2-7.6-6.4-9.6s-2-1.7-2-1.7C1158.4,1208.8,1159.1,1208.2,1158.2,1217.3z"/>
	<g>
		<path fill="#E9F8FF" d="M920.7,1283.5c2.6-11.8,7.1-23.1,10-34.8c2.9-11.7,2.5-23.8,5.2-35.5c1.4-6,3.8-11.5,7.1-16.7
			c2.5-3.9,7.4-8.2,8-13c0-0.2-0.2-0.3-0.4-0.3c-4.2,1.4-7.2,6.6-9.7,10.1c-3.3,4.7-6.1,9.9-7.7,15.5c-3.7,12.6-2.4,26.2-5.8,38.9
			c-3.3,12.6-8.9,24.3-11.5,37.2c-1.3,6.8-2,13.9-1.8,21.1c1.4,1.4,3.4,3.2,5.7,5.3C919.4,1302.1,918.6,1292.9,920.7,1283.5z"/>
		<path fill="#E9F8FF" d="M969.3,1206.1c0.6-16,7.2-30.2,17.8-42c1.6-1.8-0.9-4.4-2.7-2.7c-10.4,10.1-17.5,24.2-19.9,38.5
			c-2.7,16.4,1.6,33.1,0.8,49.6c-1.4,29-13,56.4-16.8,85c2.4,1.9,5,3.9,7.6,6.2c3.7-28.9,13.9-56.7,16-85.8
			C973.5,1238.3,968.7,1222.4,969.3,1206.1z"/>
		<path fill="#E9F8FF" d="M985.8,1263.7c0.2-16.5-0.9-32.9-1.6-49.4c-0.7-16,0.5-30.8,9.7-44.4c2.3-3.4-2.8-7.2-5.6-4.3
			c-10.4,10.8-12.4,26.9-12.2,41.2c0.2,16.7,1.6,33.4,1.9,50.1c0.4,30.6-8.8,59.8-15.1,89.4c2.3,2.2,4.7,4.4,7,6.8
			c3.2-13.5,5.7-27.2,8.7-40.7C982.1,1296.4,985.7,1280.4,985.8,1263.7z"/>
		<path fill="#E9F8FF" d="M925.3,1548.7c-3.2,6.2-7.6,11.6-10.4,18c-2.4,5.6-4.7,12.2-3.5,18.4c1.5,7.3,7,12.3,13,16.1
			c4.4,2.7,8.4-4.2,4-6.9c-7.6-4.7-10.9-10.4-8.4-19.2c2-6.9,5.8-12.5,9.3-18.6c3-5.2,5.1-11,4.7-17c-0.1-1.4-0.3-2.7-0.6-3.9
			c-1.9,1.3-3.7,2.6-5.4,3.8c-0.3,0.2-0.7,0.5-1,0.7C927.2,1543.2,926.6,1546.1,925.3,1548.7z"/>
		<path fill="#E9F8FF" d="M898.8,1572.9c-3.4,5.6-4.6,11.5-3.3,18c1.2,5.8,4.2,12.7,10.2,14.7c1.9,0.6,4.1-1.4,3.4-3.4
			c-2.1-6-6.4-9.9-6.7-16.8c-0.3-6.4,1.7-13.6,5.2-19c3.4-5.2,7.6-9,8.9-15.4c0.3-1.5,0.5-3,0.6-4.5c-2.2,1.2-4.5,2.4-6.8,3.6
			c-0.3,1.3-0.6,2.5-1,3.8C907,1561.2,902.7,1566.5,898.8,1572.9z"/>
		<path fill="#E9F8FF" d="M807,1569.1c0.8,5.8,4.1,15.5,10.9,16.4c0.7,0.1,1.6-0.4,1.3-1.3c-0.9-2.2-2.4-3.6-3.9-5.5
			c-2.2-2.7-3.7-5.7-4.2-9.2c-0.9-5.5,1.1-9.7,2.8-14.3c-1.9-0.6-3.5-1.2-4.9-1.7C806.7,1558.3,806.3,1564.5,807,1569.1z"/>
		<path fill="#E9F8FF" d="M806.5,1583.7c0.7,0.9,1.3,1.8,2,2.7c0-0.5,0.1-1,0.2-1.5C808.8,1585,807.8,1584.5,806.5,1583.7z"/>
		<path fill="#E9F8FF" d="M810.5,1586.2c-4.3-5.8-8.8-12.2-7.9-19.8c0.5-4.6,2.5-9.1,4.2-13.5c-1.1-0.4-1.9-0.8-2.2-0.9
			c-2.1,5.4-4.1,11.4-4,16.7c0.1,5.6,2.8,10.6,6,15.1c1.3,0.8,2.2,1.2,2.2,1.2c-0.1,0.5-0.2,1-0.2,1.5c0.2,0.2,0.3,0.4,0.5,0.6
			C809.7,1587.9,811.1,1587.1,810.5,1586.2z"/>
		<path fill="#E9F8FF" d="M1183.5,1383.6c-1.1,17.8-4.6,35.7-4.9,53.6c-0.2,10.8,2.7,20.9,6.8,30.5c0,0.2-0.1,0.5,0,0.7
			c0.8,5.2,3.8,9.2,6.8,13.1c2.2,4.1,4.9,8.4,6.9,12.9c2,8.2,0.9,17.7-3.1,24.9c-4.3,7.9-14,12.4-13,22.6c0.5,4.7,3.2,8.9,4,13.6
			c1.2,7.2-3.5,10.7-8.3,15c-2.2,1.9,0.6,5,2.9,3.8c9.6-4.9,14.4-13.2,10.7-23.9c-0.9-2.7-3-5.5-3-8.4c0-3.3,3-6.6,5-8.9
			c3.3-3.8,6.5-7.6,8.6-12.1c4-8.6,4.5-18.1,1.6-27c-1.5-4.6-3.9-8.7-6.8-12.5c-1.2-1.6-2.4-3-3.6-4.6c-1.6-3.1-3.2-6.3-4.7-9.5
			c0,0,0,0,0-0.1c-0.1-0.4-0.2-0.7-0.4-0.9c-1.7-3.8-3.2-7.8-4.4-11.8c-2.7-9.6-2.4-19.3-1.3-29.1c1.1-9.7,2.1-19.4,2.7-29.2
			c1.1-16,1.6-32.1,1.4-48.1c-0.6-5.6-1.2-11.1-1.8-16.4c-1.1-8.7-1.8-15.8-2.7-22.8c0.5,6.7,0.9,13.3,1.2,20
			C1184.8,1347.1,1184.6,1365.3,1183.5,1383.6z"/>
		<path fill="#E9F8FF" d="M1189.1,1576.2c2.6-1.2,5.1-2.8,7.2-4.8c-2,1-4.4,1.8-7.5,2.1C1188.7,1573.5,1189,1574.4,1189.1,1576.2z"
			/>
		<path fill="#E9F8FF" d="M1200.7,1553.6c-1.7-4.3-5-7-3.3-12.1c2.5-7.6,10.6-12.1,13.7-19.6c2.7-6.5,2.9-13.7,1.7-20.5
			c-3.1-17.3-17.3-30-20.4-47.1c-1.1-6.3-1.2-12.8-1-19.2c-0.7-6.4-1.1-13.7-1.3-21.9c-2,9.8-2.4,20-2.3,30c0.1,7.5,1.1,15,4.2,21.8
			c3.6,7.9,9,14.8,12.7,22.7c3.8,8,6.3,17,5.2,25.9c-0.5,4.3-1.8,8.4-4.2,12c-2.2,3.3-5.3,5.9-7.7,9c-3.5,4.5-5.8,10.3-3.1,15.8
			c2.3,4.6,4.3,8.2,2.1,13.4c-1.9,4.5-5.9,7.2-10.3,9.2c-2.3,1-0.3,4.4,2,3.4c0.1-0.1,0.2-0.1,0.3-0.2c-0.1-1.7-0.3-2.7-0.3-2.7
			c3.1-0.3,5.5-1.1,7.5-2.1c2.6-2.5,4.4-5.6,5.2-9.3C1201.9,1559.2,1201.8,1556.2,1200.7,1553.6z"/>
	</g>
	<path opacity="0.3" fill="#05132B" enable-background="new    " d="M1193.3,1445.9c-3.3-14.2-3.3-36.2-3.8-64.5
		c-0.1-4.1-0.2-8.1-0.4-12c-0.8,11.4-2.1,28.6-3,40.6C1184.9,1426.2,1184.9,1433.1,1193.3,1445.9z"/>
	<path fill="#971A1C" d="M1186.2,1568.5c-3.1-2.2-23.5-9.3-50.1-11.5s-49.9,7.1-52.1,9.1c-2.2,2-6.4,9.7-6.2,10.9
		c0.1,1.3,2.3,4.4,6.2,14.7c11.8-5.4,30.6-5.4,46.3-5.4s33.6,3.2,44.9,2.8c11.3-0.4,9.8,1.5,12.3-5s1.2-10.7,1.2-10.7
		S1189.3,1570.8,1186.2,1568.5z"/>
	<path fill="#971A1C" d="M940.9,1193.1c3-2.1,15.4-6.8,40.6-12.6s41.1-11.1,67.7-12.7c26.6-1.6,46.2-2.4,68.5-0.1s18,1.2,23.5,4.1
		s5.4,3.9,7.4,1.2c0,0,0.8-2.2,0.5-5c-0.3-2.8-2.5-4.3-2.5-4.3c1.8-0.8,1.5-2.9,0.6-5.4s-2.4-2.1-2.4-2.1v-0.5
		c2.8-4.3,1.2-7.8-10.4-10.2s-38-6.2-82.9-5.8s-83.1,11.4-97.9,18.2s-13,5.9-14.7,9.7s0,4.8,0,4.8s-3.3,2.6-3.5,5.4s1.7,5.1,1.7,5.1
		c-2.5,4.8-1.7,9.1-1.7,9.1C936.1,1194.1,938,1195.2,940.9,1193.1z"/>
	<path fill="#971A1C" d="M1062.1,1628.6c-7.6-8.3-18.5-16.2-41.2-23.2c-22.7-7-43.6-12.7-67.5-13c-23.9-0.2-42,1.9-64.4,11.4
		c0,0-4.8-3.2-5.5-9.2c-0.7-5.9,3.2-15.6,3.2-15.6s-7.9-6.9-36.9-6s-41.1,11.9-41.1,11.9c-1.2,5.3,1,9.4,10.1,10.9
		c9.1,1.5,20.1,0.9,40.3,4s26.3,9.3,26.3,9.3c-0.5,10-0.2,16.2,7.2,17s18-3.4,29-4.7c11-1.3,33.8-3.4,61.5,0.5
		c27.8,4,41.5,10.8,49,13.5s23.2,9.8,32.9,5.6c0.8-0.3,1.5-0.7,2.1-1C1068.1,1636.6,1066.7,1633.6,1062.1,1628.6z"/>
	<path fill="none" d="M1202.1,1554.3c0-0.1,0.1-0.1,0.1-0.2c-0.5-1.7-1.3-3-2.3-4.2C1200.6,1551.2,1201.4,1552.5,1202.1,1554.3
		C1202.1,1554.2,1202.1,1554.2,1202.1,1554.3z"/>
	<path fill="#D42E2D" d="M933.9,1232.8c0.2-1.4,0.3-2.9,0.3-4.3C934.1,1229.8,934,1231.3,933.9,1232.8z"/>
	<path fill="#D42E2D" d="M958.5,1294.2c0-0.4,0.1-0.8,0.1-1.3c-0.1,0.3-0.2,0.6-0.3,0.9C958.4,1294,958.5,1294.1,958.5,1294.2z"/>
	<path fill="#D42E2D" d="M957.8,1165.1c0.1,0,0.1-0.1,0.2-0.1c-0.2,0-0.3-0.1-0.5-0.2c0,0,0,0,0.1,0.1
		C957.7,1164.9,957.7,1165,957.8,1165.1z"/>
	<path fill="#D42E2D" d="M936.1,1202.9C936.1,1203,936.1,1203,936.1,1202.9C936.1,1203,936.1,1203,936.1,1202.9
		C936.1,1202.9,936.1,1202.9,936.1,1202.9z"/>
	<path fill="none" d="M1146.6,1155.3C1146.6,1155.3,1146.5,1155.3,1146.6,1155.3c0,0.1,0,0.1,0.1,0.1
		C1146.7,1155.3,1146.6,1155.3,1146.6,1155.3z"/>
	<path fill="none" d="M1146.2,1156.7c0.3,0.3,0.7,0.8,1,1.6c0.1,0.2,0.1,0.3,0.2,0.4c0.1-0.6,0.2-1.2,0.5-1.6
		C1147.3,1157,1146.8,1156.8,1146.2,1156.7z"/>
	<path fill="#D42E2D" d="M1155,1559.4L1155,1559.4c0.1,0.1,0.2,0.1,0.3,0.1C1155.2,1559.5,1155.1,1559.5,1155,1559.4z"/>
	<path opacity="0.3" fill="#05132B" enable-background="new    " d="M917.9,1280.8c0.3-2.8,0.7-5.7,1.1-8.5c1-1.8,2-3.6,2.9-5.4
		c4.6-8.2,10.8-15.5,14.8-24.1c1.7-3.7,2.9-7.5,3.1-11.6c0.2-5.4-1.2-10.8-0.9-16.2c0.4-8.8,5-15,9.9-21.4c2.5-1,5-2.2,7.5-3.2
		c3.9-1.6,7.7-3,11.8-4c9.1-2.3,18.3-4.2,27.5-6.1c18.6-3.8,37.5-7,56.4-9.1c32.7-3.6,69.1-7.5,99,8.8c-0.1-0.1-0.1-0.2-0.1-0.4
		c-2.2-6.3-2.1-6.6-2.1-6.6s0.8-2.2,0.5-5c0-0.2-0.1-0.3-0.1-0.4c-0.1,0.1-0.1,0.2-0.2,0.2c-2.8,4.3-8.4,1.5-12.3,0.7
		c-2.8-0.6-5.6-1.1-8.4-1.5c-6.7-1.4-13.6-2.2-20.4-2.7c-18.5-1.2-37.5,0.1-55.8,2.1c-19.5,2.1-38.6,5-57.7,9.1
		c-9.7,2.1-19.5,4.3-29,7.1c-2.8,0.8-5.9,1.5-9,2.4c-1.2-0.4-2.2-0.8-2.9-2.1c-0.9-1.5-0.4-2.4,0.2-3.5c1.6-0.5,3.2-1,4.7-1.5
		c4.3-1.3,8.6-2.5,12.9-3.7c8-2.2,16.1-4.2,24.1-6.1c17.2-4.2,34.8-7.4,52.4-9.3c33-3.5,68.1-2.6,100.3,6.2
		c-0.7-0.9-1.3-1.4-1.3-1.4c1.7-0.7,1.6-2.7,0.8-4.9c0,0.4-0.1,0.8-0.2,1.1c-0.3,1.1-1.1,2.5-2.4,2.6c-0.1,0-0.1,0-0.2,0
		c-32.1-7.2-64.2-8.8-97.1-5.5c-17.2,1.7-34.3,4.7-51.2,8.4c-8.7,1.9-17.4,4.2-26,6.6c-4,1.1-8,2.3-12,3.5c-0.1,0-0.2,0-0.2,0.1
		c-0.8-0.3-1.9-0.9-2.5-1.4c-1.4-1.3-0.6-3.1,0-4.5c0.4-0.9,0.8-2,1.3-2.8c0.3-0.5,0.6-0.7,0.8-1.2c0,0,0-0.1,0-0.1
		c0.4-0.1,0.8-0.3,1.2-0.4c0.1,0,0.2-0.1,0.4-0.1c0,0,0.1-0.1,0.1-0.1c46.3-16,96.5-21.5,145.1-15.9c14,1.6,27.9,4.2,41.6,7.7
		c-0.7-0.7-1.4-0.5-1.4-0.5v-0.5c1.2-1.7,1.6-3.4,0.8-4.8c-0.1,0.1-0.2,0.3-0.1,0.5c0.2,1.1-0.6,2-1.6,2.5c-0.6,0.3-1.2,0.3-1.8,0.3
		c-0.1,0-0.2,0-0.3,0c-49.6-11.8-101.7-11.3-151.3,0.6c-10.6,2.6-20.9,5.8-31.1,9.6c0,0,0,0,0-0.1c-1.3-0.9-2.7-1.2-3.4-2.8
		c-0.8-1.7-0.3-3.4,0.6-4.9c-1.1,0.4-2.1,0.9-3,1.3c-14.8,6.8-13,5.9-14.7,9.7s0,4.8,0,4.8s-3.3,2.6-3.5,5.4s1.7,5.1,1.7,5.1
		c-2.5,4.8-1.7,9.1-1.7,9.1s-0.3,3.2-3.5,9.2c-3.1,5.9-3.5,22.1-6.5,36.9c-3,14.8-6.3,22.6-11.3,34.9s-2.9,30.2-2.9,30.2
		s2.8,2.9,7.4,7.1C918.9,1300.4,916.7,1290.8,917.9,1280.8z M958,1165c-0.1,0-0.1,0.1-0.2,0.1c0-0.1-0.1-0.2-0.2-0.2
		c0,0,0,0-0.1-0.1C957.7,1164.9,957.8,1164.9,958,1165z M936.1,1202.9C936.1,1202.9,936.1,1202.9,936.1,1202.9
		C936.1,1203,936.1,1203,936.1,1202.9C936.1,1203,936.1,1203,936.1,1202.9z M934.2,1228.4c0,1.5-0.1,2.9-0.3,4.3
		C934,1231.3,934.1,1229.8,934.2,1228.4z"/>
	<path opacity="0.3" fill="#05132B" enable-background="new    " d="M962.5,1300.2c0.1-9.7,1.3-19.3,2.3-29c0.3-3,0.6-6,0.8-9
		c0.2-1.9,0.3-3.8,0.3-5.7c0-0.3,0-0.5,0-0.8c0.2-5.4-0.5-10.2-0.9-15.4c-0.1-0.8-1.3-0.9-1.3,0c0.1,2.7,0,5.4-0.1,8.2
		c-1.5,7-2,14.1-3.6,21.1c-1.6,7.1-4.2,13.7-6.9,20.5c-4.8,12.3-8.8,24.7-16,35.8c1,0.8,2,1.5,3,2.3c7.5,5.4,17.9,13.2,28.2,23.7
		C965.3,1334.7,962.2,1317.7,962.5,1300.2z M958.5,1294.2c0-0.1-0.1-0.2-0.2-0.3c0.1-0.3,0.2-0.6,0.3-0.9
		C958.6,1293.3,958.6,1293.8,958.5,1294.2z"/>
	<g>
		<path fill="#971A1C" d="M927,1277.3c1.7,5,7,6.7,11.8,5.1c3.8-1.3,6.3-4.6,8.2-7.9c3.2-5.6,5.8-11.9,7.8-18.1
			c4.2-12.4,5.5-25.1,5.5-38.1c-0.3-3.5-0.7-5.6-0.7-5.6c-0.8-3.7-0.3-4.7-2.5-4.6c-2.1,0.1-4.2,0.6-5.5,1.4c-1.2,0.8-0.8,1.5-0.9,7
			s0,17-6.6,30.4s-11.9,21.8-15.3,26c-1.3,1.7-2.1,2.7-2.6,3.4C926.6,1276.6,926.9,1277,927,1277.3z"/>
		<path fill="#971A1C" d="M924.5,1278.1c-1.4,0.7-2.2,1.2,1,5.3s8.6,9.7,9.6,10.6c1,0.9,0.8,1.3,8.2-8.5s11.9-15.8,15.6-35.9
			c2.4-13.1,2-24.8,1.4-31.4c0,13-1.3,25.7-5.5,38.1c-2.1,6.2-4.6,12.4-7.8,18.1c-1.9,3.3-4.5,6.7-8.2,7.9
			c-4.7,1.6-10.1-0.1-11.8-5.1c-0.1-0.4-0.4-0.7-0.7-0.9C925.5,1277.4,925.3,1277.7,924.5,1278.1z"/>
		<path opacity="0.3" fill="#05132B" enable-background="new    " d="M924.5,1278.1c-1.4,0.7-2.2,1.2,1,5.3s8.6,9.7,9.6,10.6
			c1,0.9,0.8,1.3,8.2-8.5s11.9-15.8,15.6-35.9c2.4-13.1,2-24.8,1.4-31.4c0,13-1.3,25.7-5.5,38.1c-2.1,6.2-4.6,12.4-7.8,18.1
			c-1.9,3.3-4.5,6.7-8.2,7.9c-4.7,1.6-10.1-0.1-11.8-5.1c-0.1-0.4-0.4-0.7-0.7-0.9C925.5,1277.4,925.3,1277.7,924.5,1278.1z"/>
	</g>
	<path opacity="0.3" fill="#05132B" enable-background="new    " d="M937.3,1261.7c0.8-1,1.5-2.1,2.1-3.2c0.2,0,0.4-0.2,0.5-0.4
		c1.6-3.4,4.2-6.1,5.7-9.6c1.6-3.7,2.5-7.7,3.2-11.6c1.5-8,3.1-15.7,2.5-23.8c0-0.9,0-1.9,0-2.8c0-0.3-0.5-0.5-0.6-0.2
		c-0.2,0-0.4,0.1-0.3,0.4c0,0.3,0,0.6,0,0.9c-2,9-3.5,17.7-6.9,26.4c-1.2,3.2-2.6,6.2-3.2,9.6c-0.5,2.9-0.7,5.7-1.3,8.4
		c-0.2,0.5-0.4,1.1-0.6,1.6c-0.1,0.2-0.1,0.4,0,0.6c-0.4,1.1-0.9,2.2-1.6,3.3C936.5,1261.6,937.1,1262,937.3,1261.7z"/>
	<path opacity="0.3" fill="#05132B" enable-background="new    " d="M1166.6,1244.7c-3.1-3.1-5.1-7.4-6.4-12
		c-0.3-1.3-0.6-2.6-0.9-3.9c0,0,0,0-0.1-0.1c-0.7-3.4-0.9-6.9-0.8-9.9c0-0.2-0.3-0.2-0.3,0c-0.4,7.1-0.3,15.1,2.6,21.8
		c1.8,6.9,5.1,13.2,11.1,18c-2.1-6.2-2.2-8.9-2-15.2c0.2-5.9,0.7-6,1.1-11.2c-1,2.2-2.1,4.3-3.3,6.6
		C1166.5,1241,1166.5,1242.8,1166.6,1244.7z"/>
	<path opacity="0.3" fill="#05132B" enable-background="new    " d="M1202.1,1554.3c-0.4,0.9-0.7,1.8-0.8,2.1
		c-1.2,2.5-2.4,4.9-4.8,6.4c-0.3,0.2-0.6,0.4-1,0.5c-5.6,1-11.2-0.3-17.3-1.8c-7.7-1.9-15-4.7-22.7-6.8c-10-2.8-20.2-1.5-30.5-0.6
		c-0.5,0-1,0-1.4,0c-6.1-0.2-10.8-2.3-14.8-6.8c-2.3-2.7-3.1-5.5,0.1-7.9c2.6-2,7.6-2.5,10.7-2.8c1.6-0.1,2.3-1.9,1.3-3.1
		c-3.2-3.7-8.2-5.8-11.9-8.9c-3.9-3.3-7.5-7-10.6-11.1c-3.5-4.6-6.8-9.9-9-15.5c-1.4-6.5,1.1-13.4,3.8-19.6
		c3.3-7.4,6.1-14.6,6.6-22.8c0.6-9.5-1.1-19.1-2.2-28.5c-1.2-9.7-2.1-19.4-2.9-29.1c-3.3-39.2-2.8-78.7-5-118
		c-1-18.1-2.6-36-5.3-53.9c-0.1-2.8-0.2-5.7-0.3-8.5c0-0.6-0.9-0.6-0.9,0c0,0.2,0,0.4,0,0.7c-0.1-0.8,0.2,0.8,0,0
		c-0.1-0.5-0.1-0.5,0,0c0.5,3.6-0.5,5-0.1,8.6c-0.3,33.4,0.3,66.7,0.2,100.1c-0.1,36.4-1.9,72.9-10.4,108.4
		c-2.9,12-7.9,27.4-6.1,40.8c0.3,10.3,2.7,20.8,6.3,29.7c3.3,8.3,8,15.8,11.8,23.9c3.6,7.6,8.2,17.8,3.4,25.1
		c-0.3,0.1-0.5,0.2-0.8,0.5c-8.1,8.8-20.8,8.6-31.8,9.5c-2.5,0.2-5.2,0.8-6.9,2.7c-1.6,0.9-2.5,2.4-1.9,4.9c0.6,2.7,3.6,4.7,5.5,6.4
		c3.3,3,6.8,5.8,9.8,9.2c5.4,6.2,8.2,14.2,4.1,20.5c-0.3,0-0.7,0.2-1,0.4c-11,9.4-27.2-7.8-35.6-13.8c-10.7-7.8-23.2-11.5-36.1-13.6
		c-13.8-2.2-26.8-3-40.6-0.3c-7.5,1.5-15.3,3.2-22.9,1.6c-3.8-0.8-8-2.3-10-5.8c-2.2-3.9-0.6-8.2,1.5-11.9c3.8-1.6,8.9-2.2,11.4-2.7
		c6.1-1,12.2-2.2,18.2-3.7c6.4-1.7,19.8-4.1,19.7-13c0-1.4-0.4-2.6-1.2-3.7c-0.4-0.6-1.2-1-1.6-1.6c-1.4-2.2-0.6-3.9,1-5.6
		c3.3-3.7,6.9-7.1,9.9-11.1c2.7-3.6,5.1-7.4,7.2-11.4c13.1-18,22.8-37.8,23-61.2c0.1-17.2-0.9-35.4-7.2-51.6c-2.7-7.1-7-15-12.8-21
		c2.8,4.7,5.4,9.7,7.6,15c14.1,33.7,9.1,59.6-2.3,82.3c-11.4,22.7-45.1,48.3-66.6,63.4s-51.4,26.4-79.7,23s-44.2-10.8-44.2-10.8
		s-1,4-3.3,7.8c-2.4,3.8-3,3.8-2.4,12.5s10.2,12.9,10.2,12.9c-1.2,5.3,1,9.4,10.1,10.9c9.1,1.5,20.1,0.9,40.3,4s26.3,9.3,26.3,9.3
		c-0.5,10-0.2,16.2,7.2,17s18-3.4,29-4.7c11-1.3,33.8-3.4,61.5,0.5c27.8,4,41.5,10.8,49,13.5s23.2,9.8,32.9,5.6s11.4-7.5,14.8-17.1
		s6.6-8.2,6.8-17.2s-2.7-15.1-2.7-15.1c11.8-5.4,30.6-5.4,46.3-5.4s33.6,3.2,44.9,2.8c10.2-0.3,9.9,1.1,11.6-3.3c-0.4,0-0.8,0-1.1,0
		c0.3-3.7,0.2-7.5,0.6-11.2c0.8,0.2,1.7,0.5,2.7,0.7c-0.1-1.2-0.3-1.9-0.3-1.9C1204.6,1571.7,1204.2,1559,1202.1,1554.3z
		 M923.8,1615.8c-3.8-1.9-5.2-6.6-4.8-10.7c0.5-5.6,6.4-6,10.8-6.6c1-0.1,2-0.2,3.1-0.3c-1.4,5.9-3.6,11.7-3.3,17.8
		C927.7,1616.2,925.7,1616.2,923.8,1615.8z M936,1615.4c-1.7,0.2-3.5,0.4-5.3,0.6c0-6.1,2.6-11.6,3.7-17.6c0-0.1,0-0.2,0-0.3
		c4.9-0.4,9.8-0.6,14.6-0.6c1.3,0,2.6,0,3.9,0c0,0,0,0-0.1,0.1c-1.5,2.7-2.1,5.9-3.1,8.8c-0.8,2.5-1.4,4.9-1.5,7.5
		C944.1,1614.4,940.1,1615,936,1615.4z M952.5,1613.6c-1.2,0.1-2.4,0.2-3.6,0.3c0.5-2.6,1.2-5.2,2-7.8c0.9-2.8,2.3-5.4,2.6-8.3
		c0-0.1,0-0.2-0.1-0.2c9.3,0.2,18.7,1.1,27.9,2.6c-0.8,1.9-1,4.1-1.4,6.2c-0.5,2.5-0.4,6.1-1.2,8.6
		C970,1613.5,961.2,1612.9,952.5,1613.6z M985.6,1616.3c-2.2-0.5-4.4-0.9-6.6-1.3c0.9-2.2,1.3-4.9,1.8-7.1c0.5-2.5,1.3-5,1.7-7.5
		c1.9,0.3,3.8,0.7,5.7,1.1c5.5,1.1,11,2.5,16.4,4.1c-0.3,4.9,1,10.9-1.4,15.4C997.4,1619.2,991.6,1617.6,985.6,1616.3z
		 M1020.1,1626.5c-5.4-1.8-10.8-3.6-16.2-5.2c1-1.9,1.2-4.2,1.4-6.3c0.3-2.9,0.8-6,0.5-8.9c6.8,2.1,13.5,4.5,20,7.3
		c0.4,0.2,0.8,0.3,1.2,0.5c2.6,4.4,1.7,10.3-0.6,14.7C1024.3,1627.9,1022.2,1627.2,1020.1,1626.5z M1027.5,1628.9
		c2.4-4.3,3.5-10.1,1.1-14.4c4.7,2.1,9.2,4.4,13.7,6.8c0.9,0.5,1.8,1,2.7,1.5c0.1,0.8,0.4,1.6,0.4,2.1c0.1,0.8,0.1,1.6,0,2.4
		c-0.1,1.3-0.6,5-1.5,6.3C1038.3,1632.4,1032.9,1630.7,1027.5,1628.9z M1053.8,1635.5c-3.1-0.3-6.1-0.9-9.2-1.6
		c1.3-1.6,1.5-4.6,1.7-6.4c0.1-1.1,0.2-2.5-0.1-3.8C1050.9,1626.5,1054.5,1629.8,1053.8,1635.5z M1155,1559.4c0.1,0,0.2,0.1,0.3,0.1
		C1155.2,1559.5,1155.1,1559.5,1155,1559.4L1155,1559.4z M1095.5,1584.3c-0.2,0-0.5-0.1-0.7-0.1c-0.1-0.1-0.2-0.2-0.3-0.3
		c-2.7-2.9-4.7-6.2-6.5-9.6c-0.1-0.5-0.2-1-0.3-1.4c0,0,0-0.1,0-0.1c0.9-1.3,2.7-1.9,4.8-2.4c1.8-0.5,3.7-0.9,5.5-1.3
		c-0.6,1.9-0.5,4.3-0.4,5.7c0.1,3.3,0.5,6.4,2.9,8.7C1098.8,1583.8,1097.2,1584.4,1095.5,1584.3z M1113.7,1581.9
		c-2,0.1-3.9,0.2-5.9,0.4c-1.9,0.2-3.8,0.2-5.7,0.6c-0.4,0.1-0.8,0.2-1.2,0.3c-2.3-2.9-3.7-10.9-1.5-14.6c0.3-0.1,0.7-0.2,1-0.2
		c5.3-1.1,10.6-2,16-2.5c0,1.5-0.1,3.1-0.5,4.6c-0.4,1.8-1.5,3.3-2,5.1C1113.3,1577.7,1113.3,1579.8,1113.7,1581.9z M1135.3,1582.1
		c-7-0.5-14-0.6-20.9-0.2c-0.2-2.1,0-4.1,0.7-6.1c0.5-1.2,1.4-2.4,1.8-3.6c0.7-1.9,1-4.3,1-6.5c6.6-0.6,13.2-0.8,19.8-0.5
		c-0.5,3.4-0.6,6.8-0.8,10.2c-0.1,1.9-0.9,4.9,0.1,6.8C1136.4,1582.2,1135.9,1582.2,1135.3,1582.1z M1137.6,1582.3
		c-0.8-2.1,0.6-8.5,0.8-10c0.2-2.3,0.6-4.7,0.7-7c3.8,0.2,7.5,0.5,11.3,1c3.8,0.5,7.5,1.1,11.2,1.9c-0.5,2.2-0.6,4.4-0.5,6.9
		c0.1,2.2,0.2,3.9-0.7,6c-0.5,1.2-1.2,2.4-1.9,3.5C1151.5,1583.8,1144.6,1582.9,1137.6,1582.3z M1172.2,1585.7
		c-3-0.1-6.1-0.3-9.1-0.6c-1.2-0.1-2.3-0.2-3.5-0.4c1.5-1.8,2.9-3.9,3.3-6c0.3-1.7-0.4-3.4-0.6-5.1c-0.1-1.8-0.1-3.5,0.1-5.2
		c3.6,0.8,7.1,1.7,10.6,2.6C1171.2,1575.7,1173.7,1580.8,1172.2,1585.7z M1179.3,1585.8c-2.1,0-4.3-0.1-6.4-0.1
		c0.7-1.8,0.7-3.8,0.6-5.8c-0.1-2.1-0.5-4.2-0.1-6.2c0.2-0.8,0.4-1.6,0.8-2.3c2.1,0.6,4.2,1.1,6.3,1.7c0,2.6-0.5,5.1-0.9,7.7
		C1179.2,1582.5,1179.2,1584.1,1179.3,1585.8z M1185.2,1585.9c-1.8,0-3.6,0-5.3,0c0.5-4.1,1.8-8.3,1.8-12.5c0.1,0,0.2,0.1,0.3,0.1
		c0.8,0.2,1.8,0.5,3,0.9C1184.7,1578.2,1185.4,1582,1185.2,1585.9z"/>
	<path opacity="0.3" fill="#05132B" enable-background="new    " d="M1203.5,1523.1c-2.6,1.5-5.4,2.6-8.3,3.7
		c-1.8,0.3-3.6,0.5-5.4,0.5c-3.2,0.1-6.6-0.4-9,2.2c-3.9,4.2-0.9,10.2,3.4,12.6c5.1,2.7,11.9,3.5,15.7,7.8c-1.1-2.2-1.5-4.2,0-7.7
		c2.4-5.6,8.1-8.7,12.4-13.7c3.6-4.1,7.3-12,5.5-22.9C1214.9,1513.2,1210.7,1518.9,1203.5,1523.1z"/>
	<path fill="#E9F8FF" d="M1124.7,1234.4c1.6,0.1,2.5,0.1,2.2,1.5s-0.1,3.3-1.1,3.6s-6.8-2.1-8.8-5.6c-2.1-3.4-5.1-11.8-2.2-20.9
		s12.4-12.7,21.8-11c9.4,1.8,13.8,13.8,13.6,19.2c-0.2,5.3-1.8,12.2-5.8,14.6s-4.8,3.4-5.1,1.1s0.5-3.3-0.9-5.5
		c-1.4-2.2-1.9-2.7,0.3-3.6s3.8-1.9,5.1-6.4c1.3-4.5,0.5-6-0.9-7.3c-1.4-1.3-1.8-1.2-1.5-3.1s-0.3-3.7-1.5-3.5
		c-1.2,0.2-2.6,1.4-3.8,2.1c-1.3,0.7-2.1-0.2-4.8,0.1s-3.6,1.1-4.5,1s-1.8-1.7-3.4-1.9c-1.6-0.2-2-0.5-1.5,1.9s0.7,2.3,0.2,3.2
		s-1.8,3-1.3,6.4s1.6,5.4,3.5,6.5s4.2,0.6,4,1.9c-0.2,1.3-1.1,2.3-3.2,2.5c-2.1,0.2-3.3-2.1-4.9-2.8s-2.5-0.5-1.3,1.2
		c1.2,1.6,1,2.3,2.7,3.6S1123.7,1234.3,1124.7,1234.4z"/>
</g>
</svg>
