<?xml version="1.0" encoding="utf-8"?>
<!-- Generator: Adobe Illustrator 23.0.3, SVG Export Plug-In . SVG Version: 6.00 Build 0)  -->
<svg version="1.1" id="_x33_7_x5F_Bottom_x5F_Astronaut"
	 xmlns="http://www.w3.org/2000/svg" xmlns:xlink="http://www.w3.org/1999/xlink" x="0px" y="0px" viewBox="0 0 2000 2000"
	 style="enable-background:new 0 0 2000 2000;" xml:space="preserve">
<style type="text/css">
	.st0{fill:#31789E;}
	.st1{fill:#2B4CA9;}
	.st2{fill:#363740;}
	.st3{fill:#221648;}
	.st4{opacity:0.3;}
	.st5{fill:#05132B;}
	.st6{fill:#8B1718;}
	.st7{fill:#5D151B;}
	.st8{fill:none;}
	.st9{fill:#CE2828;}
</style>
<g>
	<path class="st0" d="M1111,1156c27.1,2.7,24.6,7.3,29.1,8.3s4.4,2.6,9,11c4.6,8.5,13.6,53.6,13.9,61.7s5.2,8.7,5,12.8
		c-0.2,4.1,0.7,6.3,0.7,6.3s3.7,2.9,5.6,13.4c1.8,10.5,2.9,8.9,3.9,16.7s2.5,14.7,1.1,25.2s-7.3,19.5-7.3,19.5l1.1,5.4
		c0,0,6.1,3.3,7.9,13.9c1.8,10.5,1.2,15.3,0,27.3s-1,19,3.3,27.8s6.5,10.3,6.7,16.2c0.2,5.9-1.1,8.4-4.7,11.2c0,0,1.5,3.9,0.1,11.8
		s-1.5,10.4-6.4,13c0,0-0.5,6.7,1.2,14.7c1.7,7.9,5.7,9.8,6.6,11.7s-8.7,5.3-23.2,7.3s-16.7,1.7-29.5,0s-14.9-1.2-28.2-3
		c-13.3-1.8-20.2-3.6-20.2-3.6s-4.3,4.4-28.1,8.6c-23.8,4.1-39.9,2.2-51,1.3c-11-0.8-23.1-3.4-23.1-3.4s13.6-20.8,17.9-39.4
		c4.3-18.7-3.4-56.1-11.8-68.4c-8.3-12.3-28.9-37.9-46.4-50.7c-17.5-12.9-36.8-32.2-36.8-32.2s-1-5.9,2.9-9.2c0,0-2.7-1.4-4.2-12.1
		s-0.8-9.9,2.8-18.5s24.5-60.2,26.1-68.1s1.4-13,5-14.6c1.8-0.7,0.7-5.2,39.2-10.1s57.5-12.9,72.4-13.6S1085,1153.4,1111,1156z"/>
	<path class="st0" d="M951.6,1227.9c0,0,8.9-2.2,16.7-3.6s36.9-5.7,46.8-6.9c10-1.1,27.8-2.4,47.1-3.3s23.1-0.3,40.2,0.8
		c17,1.1,27.7,3.4,37.3,4.7c9.6,1.3,13,3.9,16.3,3.7c2.9-0.2-5.1-37.7-6.5-47.1c-0.2-0.3-0.3-0.6-0.5-1c-4.6-8.5-4.5-10-9-11
		s-2-5.5-29.1-8.3c-26-2.6-44.8-2.7-59.7-2c-14.9,0.7-33.3,1.5-70.3,10.3c-8.8,2.1-19,4.8-25.5,6.2c-0.2,4.1-0.9,16.8-1.2,20.5
		C953.9,1196.1,951.6,1227.9,951.6,1227.9z"/>
	<path class="st1" d="M934.7,1192.3c-1,5.1-20,49-22.3,56.9c1-0.2,2-0.4,3.2-0.7c2.6-0.6,5.7-0.9,9.1-1.1c2.4-1.1,5-2.4,7.6-3.8
		c13.4-7.3,21.1-12.8,54.2-16.8c33.1-4,58.5-5.8,100.7-4.3s41.6,1.2,43.9,3.4c2.3,2.2,3.8,2.5,6.3,1.8s5.3-1.4,10.9,6.6
		c5,7.1,15.1,18.4,20.7,22.3c-0.3-0.3-0.5-0.5-0.5-0.5s-0.8-2.2-0.7-6.3c0.2-4.1-4.8-4.8-5-12.8c-0.2-7.8-9.2-52.5-13.4-60.7
		c1.5,9.4,9.4,46.9,6.5,47.1c-3.3,0.2-6.7-2.4-16.3-3.7c-9.6-1.3-20.3-3.6-37.3-4.7s-20.8-1.7-40.2-0.8s-37.1,2.2-47.1,3.3
		c-10,1.1-39.1,5.5-46.8,6.9c-7.8,1.4-16.7,3.6-16.7,3.6s2.2-31.7,2.6-36.9c0.3-3.8,0.9-16.4,1.2-20.5c-18.7,4.8-12.9,6-15.7,7.3
		C936.1,1179.4,936.3,1184.4,934.7,1192.3z"/>
	<path class="st1" d="M1088.7,1415.8c-0.5-4.8,0.2-6.7,2.8-8.9c2.6-2.2,6.5-3.8,11.4-8.6c4.9-4.8,4.8-7.1,5.9-11.6s2.5-3.2,7.9-9.2
		s10.3-12.4,12-18.7c1.7-6.3-0.5-8.7-0.5-8.7l7-5.4h-11.9c-0.3,7.4-0.8,14.2-1.8,17.5c-2.8,8.9-13.5,16-16.9,20.1s-5.3,8.3-10,11.9
		s-7.7,4.9-9.6,7.4c-1.8,2.5-1.6,2.4-3.8,0.6c-2.1-1.8-4.9-5.7-8.1-8.1c-3.1-2.4-6.8-2-8.2-3.4s-3.1-2.1-3.5-5.8s-2.3-6.3-4.7-8.2
		s-6-1.8-6.9-3.5s-2.9-2.7-3.7-1.7c-0.8,1-0.9,3.8,1.7,6c2.6,2.3,7.1,3.2,8.8,6.3c1.7,3.2,1.2,7.1,3.1,8.6s1.1,2.9,7.8,6.6
		s15.3,10.4,15.3,10.4s-1.5,9,0,21.7c0.8,6.6,1.2,11.4,1.4,14.4c1.9,0.4,3.5,0.6,5.3,0.5C1090.4,1435.5,1089.2,1420.2,1088.7,1415.8
		z"/>
	<path class="st1" d="M1135.2,1344.6c8.8,1.7,14.6-3.4,24-7.6c9.4-4.1,12.6-6.1,12.6-6.1s2.9-4.4,5.1-10.6
		C1162,1322.5,1149.8,1332.4,1135.2,1344.6z"/>
	<path class="st2" d="M1176.9,1320.4c1-2.7,1.8-5.8,2.2-9c1.4-10.5-0.1-17.4-1.1-25.2s-2.1-6.2-3.9-16.7c-0.4-2.1-0.8-3.8-1.3-5.3
		c-13-3-33.2,12-41,19.2c-8.6,7.8-8.3,9.7-8.5,12.8c-0.2,3.1-0.1,8.8,0,20.8c0,0,0.4,14.6-0.1,27.6h11.9
		C1149.8,1332.4,1162,1322.5,1176.9,1320.4z"/>
	<path class="st2" d="M964.5,1320.2c8.2,3.8,13.3,6,19.9,11.4c6.6,5.4,7.2,6.8,18.1,7c10.9,0.2,16.1-4.4,23.4-14.4
		s10.8-14.6,7.9-26.3s-8.9-16.8-20.8-23.9c-11.9-7.1-22.7-15.6-43.1-20.7c-15.9-4-32.9-6.3-45.2-5.9c-5.5,2.5-10.2,4.3-13.4,5.3
		c-0.9,2.9-1.8,5.5-2.7,7.7c-3.6,8.6-4.3,7.8-2.8,18.5s4.2,12.1,4.2,12.1c8.9,5.8,12,7,22.1,13.8
		C942.4,1311.6,956.4,1316.4,964.5,1320.2z"/>
	<path class="st2" d="M912.4,1249.2c-0.4,1.2-0.7,2.4-1.1,3.6c3.2-1.1,7.9-2.8,13.4-5.3c-3.4,0.1-6.5,0.5-9.1,1.1
		C914.5,1248.7,913.4,1249,912.4,1249.2z"/>
	<path class="st3" d="M1186.2,1432.8c0,0,1.5,3.9,0.1,11.8s-1.5,10.4-6.4,13c0,0-0.5,6.7,1.2,14.7c1.7,7.9,5.7,9.8,6.6,11.7
		c0.8,1.8-8.7,5.3-23.2,7.3c-14.5,2.1-16.7,1.7-29.5,0s-14.9-1.2-28.2-3c-13.3-1.8-20.2-3.6-20.2-3.6s-4.3,4.5-28.1,8.6
		c-23.8,4.1-39.9,2.2-51,1.3c-11-0.8-23.1-3.4-23.1-3.4s13.6-20.8,17.9-39.4c1.4-6.2,1.5-14.5,0.7-23.3c12,3.3,13.7,4.7,32.8,7.8
		c22,3.6,24.3,4.8,36.5,6.7c5.7,0.8,9.3,2,12.3,2.6c1.9,0.4,3.6,0.7,5.3,0.5c1.4-0.1,2.8-0.5,4.6-1.2c7.2-3,27.9-9.2,50.9-12.3
		c20.2-2.8,36.4-3.8,44.1-3C1188.6,1430.7,1187.5,1431.7,1186.2,1432.8z"/>
	<g class="st4">
		<path class="st5" d="M1162.5,1230.8c0.1,0.2,0.1,0.3,0.2,0.4c-0.2-5.1-9.3-43.1-11.6-48.4c1.1,4,10.2,40.5,10.8,44.2
			C1162.1,1228.2,1162,1229.6,1162.5,1230.8z"/>
		<path class="st5" d="M1172.2,1332.5l-0.1-0.6c-0.1,0.1-0.1,0.2-0.2,0.2C1171.9,1332.3,1172.1,1332.4,1172.2,1332.5z"/>
		<path class="st5" d="M1088,1405.8c0.1,0.1,0.1,0.1,0.2,0.2c0-0.1,0-0.2,0-0.2l0,0C1088.1,1405.8,1088,1405.8,1088,1405.8z"/>
		<path class="st5" d="M1139.2,1328.2C1139.2,1328.2,1139.2,1328.3,1139.2,1328.2C1139.2,1328.3,1139.3,1328.2,1139.2,1328.2
			C1139.2,1328.2,1139.2,1328.2,1139.2,1328.2z"/>
		<path class="st5" d="M1032.2,1291C1032.1,1291,1032.1,1291.1,1032.2,1291c0.1,0.2,0.4,0.3,0.6,0.5
			C1032.6,1291.3,1032.4,1291.2,1032.2,1291z"/>
		<path class="st5" d="M1186.2,1432.8c3.6-2.8,4.8-5.3,4.7-11.2c-0.2-5.9-2.3-7.4-6.7-16.2c-4.3-8.8-4.6-15.7-3.3-27.8
			c1.2-12,1.8-16.8,0-27.3s-7.9-13.9-7.9-13.9l-0.8-3.9c-0.1-0.1-0.2-0.3-0.3-0.4c0.1-0.1,0.1-0.2,0.2-0.2l-0.2-0.9
			c0,0,5.9-9,7.3-19.5s-0.1-17.4-1.1-25.2c-0.8-5.9-1.5-6.4-2.7-10.9c-1.1,3.1-1.4,6.6-1.8,9.8c-0.7,6.2-1.3,10.7-5.5,15.7
			c-1,1.3-2.1,2.5-3.2,3.7c-0.9,0.9-1.8,1.7-2.7,2.5c-7,6.2-15,10.9-23.6,14.5c-0.4-1.5-1-3-1.6-4.3c-1.3-3-3.6-5.2-5.8-7.5
			c-0.6-1.1-1.1-2.3-1.6-3.5c-0.2-0.6-0.4-1.2-0.6-1.8c0.1-0.5,0.1-1,0.2-1.5c1.9-3.9,1.6-8.8,1.2-13c-0.2-1.5-0.2-4.2-0.4-6.9
			c1.2-2.5,2.1-5.1,2.7-7.9c1.7-7.8,3.5-23-5.1-27.7c-3.5-1.9-7.4,2.8-4.4,5.6c4.8,4.5,3,14.9,1.7,20.7c-0.2,1-0.5,1.9-0.8,2.8
			c-1-0.1-2.1,0.5-2.2,1.8c-0.2,4.1-1.8,5.8-4.7,8.3c-0.2,0.1-0.3,0.3-0.4,0.4c-0.2,0.1-0.5,0.3-0.8,0.4c-1.1-1.2-2.8-1.6-4.6-0.5
			c-2.9,1.9-11-4.2-13-6c-3.7-3.3-6.5-8.1-6.9-13.2c-0.1-1.4-0.9-2.3-1.9-2.7c0.1-1,0.2-1.9,0.3-2.9c0.5-5.1,1.2-10,3.6-14.6
			c2.1-4,5.3-6.7,7.8-10.2c0.4-0.6-0.4-1.3-0.9-0.9c-4.2,2.8-8.4,4.1-11.3,8.5c-2.4,3.5-3.8,7.7-4.8,11.9
			c-2.8,8.5-3.6,18.2-0.9,26.2c4.2,12.1,16.9,14.4,28.4,13.3c3.1-0.3,5.6-0.8,7.9-1.8c1.2,0.2,2.5,0.3,3.4,1.3
			c0.3,0.3,0.4,0.7,0.6,1.1c0.1,1,0.2,1.9,0.3,2.9c-0.1,1.1-0.1,2.1,0,3.1c0,0.1,0,0.1,0,0.2c0.2,4.9,0,9.7-0.1,14.6
			c0,2.7,3.1,3.5,4.8,2.1c1,3.3,0.9,6.6,1.5,10c0.2,1.2,0.6,2.1,1.3,2.8c-1.1,3.1-1.9,6.3-2.5,9.5c-0.3,1-0.4,2-0.4,2.9
			c-0.1,0.6-0.1,1.2-0.2,1.9c0,0.7,0.2,1.2,0.6,1.5c-3.6,4-7,8.1-10.3,12.3c-1,0.5-2,1-3,1.4c-1.7-0.9-4.1-0.8-5.3,1.2
			c-0.2,0.3-0.4,0.6-0.6,1c-2.3-3.2-4.6-6.3-7-9.4c-2.1-2.7-8.2-7.8-7.9-11.5c1.3-1,2-2.9,1.1-4.8c-0.6-1.3-1.6-2-3-2.3
			c-0.6-0.1-1.2-0.2-1.9,0c0.3-2.4,1-4.8,2.1-7.1c0.4-0.3,0.8-0.6,1.1-1.1c1.5-2.3,3.1-4.5,4.8-6.7c1.1-1.1,2.2-2.1,3.4-3.1
			c0.9-0.8,1.2-1.8,1-2.8c1.3-1.8,2.7-3.7,3.9-5.6c1-1.6-1.1-3.8-2.7-2.7c-2.3,1.6-4.4,3.4-6.4,5.3c-0.1,0.1-0.2,0.1-0.3,0.2
			c-10.6,7.4-16.3,19.6-14.4,32.5c1.6,10.6,8.9,22.5,19.3,26.6c-2.3,2.8-4.4,5.8-6.5,8.6c-1.9,2.6-3.8,5.3-5.4,8.2
			c-12.5-4.5-24.3-10.5-35.9-16.8c4.4-0.7,8.5-2.8,12.2-5.8c3.3-2.7,5.9-6.1,7.9-9.9c0-0.1,0.1-0.2,0.1-0.3c0.7-0.5,1.3-1.1,1.9-1.6
			c3.5-3.3,4.2-8.7,4.8-13.3c0.3-2-2.1-3.3-3.8-2.9c-2.4,0.6-3,2.4-3.8,4.5c-1.1,3-2.2,6-3.6,8.8c-0.3,0.3-0.7,0.5-1.1,0.8
			c-1.2,0.8-2.5,1.6-3.8,2.3c-1.3-1.5-4.5-1.6-5.4,0.9c-0.3,0.8-0.6,1.5-1,2.3c-4.9,1.9-9.8,2.4-14.8,1.6c-4.5-2-11.7-4.7-13.1-9.7
			c-1.5-5.5-1.7-12.2-1.8-17.8c-0.1-5.5,1.5-11,1.5-16.4c1-0.1,2-0.7,2.5-1.9c1.8-4.4,0.8-10.2,0.4-15c4.7,1.8,9.6,3.2,14.4,3.9
			c6.2,0.9,11.6-2.4,16.4-6c3.1-2.3,20-19,8.6-20.3c-1.5-0.2-1.5,2-0.3,2.4c0.4,0.2-0.3,1.2-1.3,2.6c-0.2-3.2-4.1-4.8-6.8-2.6
			c-4.8,4-8.9,5.2-15,5.8c-3.3,0.3-6.4,0.8-9.5,1.9c-0.7-0.2-1.4-0.1-2,0.2c-1-0.6-1.8-1.2-2.5-1.9c-3.8-3.5-6.1-10.2-7.6-14.9
			c-1.9-5.8-3-11.4-2.8-17.5c0-1.7-1.1-2.6-2.3-2.8c1.1-2,2.3-4,2.1-6.1c0-0.2-0.2-0.4-0.4-0.4c-8.2-0.2-9.6,16.1-9.2,21.5
			c0.7,9.3,3.2,16.7,9.2,23c-0.7,1.7-1,3.4-0.8,5.3c0.2,1.3,0.7,2.1,1,3.3c0.7,3.5,0.5,5.6-0.9,9c-1.3,3.2-2.6,6.7-4.3,9.6
			c-2,3.5-5.1,4.7-8.6,5.6c-5.6-4.6-15.2-5.9-21.6-7.5c-11.6-2.8-21.3-8.4-31.4-14.6c-9.6-5.9-19-12.1-26.9-20
			c-2.4-2.4-4-3.8-3.9-7.3c0.1-3.4,1-6.9,1.7-10.2c0.8-4,1.9-7.8,2.6-11.8c7.6-5.8,16.5-7.7,25.6-10.1c10.8-2.8,21.4-5.8,32.1-8.8
			c10.1-2.8,20.3-6.5,30.8-7.2c5.5-0.3,11.1-0.4,16.6-1c4.4-0.5,9-0.6,13.4-1.6c5.3,0,10.7-0.1,16-0.1c7,0,14-0.2,20.9-0.1
			c2,0,4,0,6.1,0c5.7,0.6,11.3,1.5,17,2.6c5.1,1,10.2,1.8,15.4,2.2c2.8,0.2,6,0.8,9.2,1c1.3,0.2,2.6,0.4,3.9,0.6
			c4.4,0.9,6.1,2.3,10.4,3.1c1.1,0.4,2.1,1,2.9,1.6c1.5,1.1,1.6,1.2,1.9,3.2c0.1,0.9,0.2,1.8,0.5,2.6c1.4,2.8,5.6,3,8,1.1
			c0-0.4,0-0.8-0.1-1.2c-0.1-1.9-0.1-3.8-0.2-5.8c-0.1-0.1-0.2-0.3-0.2-0.4c-0.5-1.1-0.4-2.6-0.6-3.8c-0.6-3.7-9.7-40.2-10.8-44.2
			c-0.6-1.3-1.4-6.2-2.1-7.5c-4.4-8.2-4.4-9.9-8.6-10.9c1.2,2.8,2.9,5.7,3.8,8.6c0.3,1.4,0.5,6.9,0.4,9c-0.3,1.4-0.8,2.9-0.9,4.3
			c-0.2,2.4,7.8,36.2,6.9,38.3c-1.5-0.1-3.1-0.1-4.6-0.4s-0.5-0.7-1.9-1c0.7-1.5-0.1-0.6,0.4-2.4c0.5-2.1-7-38.1-8.2-40.1
			c-0.6-0.9-2-1.1-2.5,0c-0.8,1.8,7.3,37.2,6.8,39.1s0.7,0.7-0.1,2.4c-0.9-0.2-1.7-0.4-2.6-0.5c-1.8-0.3-3.5-0.4-5.2-0.5
			c-1.2-0.1-2.4-0.3-3.6-0.4c-6.3-0.8-12.6-1.6-18.9-2.5c-8.8-1.3-17.8-2-26.7-1.9c-3.6-0.1-7.3-0.1-10.9-0.1
			c-14.1-0.1-28.2,0-42.3,0.5c-8.1,0.3-16.2,0.7-24.2,1.4c-3.1-0.3-6.3-0.4-9.3-1.6c-4.3-1.8-6.1-38.8-9.5-41.8
			c-0.3-0.2-0.8-0.1-0.8,0.3c0.5,4.4,1.1,41.9,4.3,44.7c-0.9,0.1-1.7,0.2-2.5,0.3c-3.3,0.4-6.7,1.1-10,1.7
			c-2.2-1.3-3.9-32.3-5.4-34.7c-1.9-2.9-1.4-9.5-2.1-12.6c6.1-1.4,12.2-2.6,18.4-3.9c9.8-2,20.4-6.5,30.2-8.4
			c4.9-0.9,9.4-4.7,14.3-5.6c3.9-0.7,8-1.2,11.9-2.1c-14,0.8-30.8,2-64.2,10c-37.8,9-37.6,11.8-41.3,13.4s-3.5,6.6-5,14.6
			c-1.6,7.9-22.5,59.5-26.1,68.1s-4.3,7.8-2.8,18.5s4.2,12.1,4.2,12.1c-3.9,3.3-2.9,9.2-2.9,9.2s11.8,11.8,25.3,23.1
			c4.8,0.5,9.7,0.5,13.9,1.3c1.6,0.3,6.1,0.6,7.2,1.7c1.5,1.6,0.9,4.9,0.8,6.9c0,2.5-0.1,5.1-0.3,7.6c14.7,13.6,29.5,32.3,36.3,42.3
			c8.3,12.3,16,49.7,11.8,68.4c-4.3,18.7-17.9,39.4-17.9,39.4s12,2.6,23.1,3.4c11,0.8,27.2,2.8,51-1.3s28.1-8.6,28.1-8.6
			s6.9,1.8,20.2,3.6s15.3,1.3,28.2,3c12.9,1.7,15,2.1,29.5,0c13.4-1.9,22.5-5,23.2-6.9c-5.8,0.8-11.6,1.8-17.3,2.6
			c-2.3-0.1-4.6-0.5-6.9-1.3c-8-2.8-15.9-4.5-24.4-5c-8.6-0.5-17.1-0.2-25.7-0.9c-5-1.2-10.1-2.4-15.1-3.7c-1.7-0.4-3.3-1.2-4.9-1.9
			c1-0.1,1.9-0.1,2.5-0.2l10.7-1.5c7.1-1,14.2-2,21.4-3c7.1-1,14.2-1.9,21.4-3c3.6-0.5,9.7-0.3,10.6-5c0.3-1.9-0.8-3.6-2.8-3.7
			c-10.8-0.6-21.6,1.2-32.3,2.8c-8.2,1.1-16.4,2.3-24.6,3.5c4.5-2.7,8.9-5.5,13.7-7.7c7.9-3.8,16.2-6.7,24.7-8.9
			c8.5-2.3,17.2-3.9,25.9-4.9c7.3-0.8,15.3-0.2,22.5-2C1187.1,1435.3,1186.2,1432.8,1186.2,1432.8z M1032.2,1291
			c0.2,0.2,0.4,0.3,0.6,0.4C1032.6,1291.3,1032.3,1291.2,1032.2,1291C1032.1,1291.1,1032.2,1291,1032.2,1291z M952.5,1179
			c2.1-0.6,4.2-1.1,5.8-1.6c2.3-0.7,4.7-1.3,7-1.9c-0.4,4.9-0.5,44.1,2,48.3c-5.1,0.9-10.1,1.6-15.1,1.4c-0.5-1.4-0.2-33.1-0.2-34.7
			C951.9,1187.8,952.6,1181.7,952.5,1179z M943.7,1183.5c1.3-1.4,3.1-2.4,5.2-3.2c-0.7,5.4-0.9,43.8,1.6,48.4
			c-1.8,0.5-3.7,0.9-5.5,1.5c-1.2,0.3-4.4,1.9-6.4,2.3C938.4,1227.9,941.3,1186.1,943.7,1183.5z M1083.2,1460.6
			c-1,3.5-3.1,6.5-4.8,9.7c-1.2,2.2-2.2,4.5-2.5,7c-0.2,1.9,0.1,4,0.1,6c-5.9,2.2-11.9,4.4-18.2,4.7c-8.4,0.4-17-0.3-25.3-1
			c-4.9-0.5-9.8-1-14.7-1.3c4.8-1,9.5-2.2,14.3-3.4c6.5-1.7,12.9-3.3,19.4-4.8c3.6-0.8,9.4-1.2,10.7-5.3c0.3-1-0.5-2.2-1.6-2.1
			c-0.2,0-0.4,0-0.5,0c-1.5-0.6-3.1-0.7-4.7-0.8c-0.5,0-2,0.1-3.5,0.1c1.4-0.8,2.7-1.6,3.9-2.8c0.3-0.3,0.6-0.6,1-1
			c2.1-1.3,3.9-3.1,5.3-5.2c2.7-0.6,5.5-1.2,8.2-1.8c4.6-1,9.2-1.6,13.7-2.1C1083.8,1457.9,1083.6,1459.3,1083.2,1460.6z
			 M1082.5,1413c-1.5,3.7-0.7,8.5-0.5,12.3c0.2,4.1,0.5,8.2,0.8,12.3c-5-2.7-10.2-4.8-15.7-5.9c-6.6-1.4-12.2-2.4-18-6.1
			c-11.3-7-22.7-14.3-32.2-23.5c-5-4.8-9.2-10.2-12.9-16.1c-3.5-5.5-7.4-11.4-9.7-17.6c-1.1-3-1.1-6.2-2.4-9.1
			c-1.1-2.6-2.6-5-3.7-7.7c-2-4.9-3.1-10.1-4.3-15.3c3.6,1,7.2,1.5,10.2,2c7.4,1.1,13.1,0.6,19-2.2c1.7,7.5,5,15.1,9.7,20.8
			c3.1,3.8,7.6,6.7,12.3,9.1c-0.2,0.3-0.4,0.7-0.4,1.2h-0.1c0,0.1,0.1,0.3,0.1,0.5c0,0.1,0,0.1,0,0.2c0.1,0.5,0.1,1,0.2,1.6
			c0.1,0.5,0.3,0.8,0.5,1.1c2.4,6.1,8.9,12.2,13.3,16c6.2,5.3,13.2,9.4,20.2,13.4c3.5,2,7.1,4.1,10.6,6.3c0.9,0.6,5.1,2.6,5.2,3.8
			C1084.7,1410.4,1082.7,1412.5,1082.5,1413z M1088.1,1406c0-0.1-0.1-0.1-0.2-0.2c0.1,0,0.1-0.1,0.2-0.1l0,0
			C1088.1,1405.8,1088.1,1405.9,1088.1,1406z M1139.2,1328.2L1139.2,1328.2C1139.2,1328.2,1139.2,1328.2,1139.2,1328.2
			C1139.2,1328.3,1139.2,1328.2,1139.2,1328.2z M1177.9,1419.3c-1.1,1.2-2.3,2.4-3.4,3.7c-3.4,1-6.9,2-10.4,2.7
			c-4.6,0.9-7.8,0.2-12.4-0.3c-1.3-0.1-2.4,0.1-3.7,0.2c-2.5,0.2-4.5-0.3-6.9-0.3c-3.3,0.1-6.2,1.7-9.3,2.7c-4.1,1.3-8.5,2.1-12.7,3
			c-8.8,1.8-17.5,2.8-26.4,1.6c6.7-4.3,13.3-8.7,20.1-12.7c3.7-2.2,7.8-3.8,11.3-6.2c3.5-2.3,6-5.5,8.9-8.5c0-0.1,0.1-0.1,0.1-0.2
			c0.6-0.5,1.2-1,1.8-1.6c0.6-0.6-0.2-1.5-0.9-1.2c-7.5,3.3-15.3,5.8-22.8,9.2c-5.5,2.5-10.6,5.9-15.7,9.2c0.1-0.5,0.1-0.9,0.2-1.4
			c10.3-8.4,20.8-17.7,28.7-28.4c3.8-5.1,4.7-11.3,9.6-15.5c5-4.3,9.2-8.8,13.1-14.1c4-5.4,7.6-11.2,12.1-16.2
			c1.3-1.4,2.6-2.8,4-4.1c2.6,4.8,7.3,8.6,9.2,13.8c4.7,12.9-8.2,24-13.3,34.4c-1.6,3.4,2.4,6.8,5.3,4.1c2.3-2.2,4.9-3.7,7.9-4.8
			c1.4-0.5,2.8-0.9,4.1-1.5c-0.3,4.5-0.5,9,0.2,13.5c0.7,4.8,2.8,9.1,3.6,13.8C1180.7,1417.1,1179.8,1417.3,1177.9,1419.3z"/>
	</g>
	<g>
		<g>
			<path class="st6" d="M1062.9,1305.2c-13.7-4.8-30.4-0.3-35.9,16.5c-2.4,7.4-2.9,14.6-1.8,20.9c1.4,8,5.5,14.6,11.5,18.3
				c8.6,5.4,24.9,4.3,34.6-1.7c7.9-4.9,10.5-12.8,10.7-21.2c0-2,0-4-0.2-5.9C1080.8,1321.8,1076.6,1310,1062.9,1305.2z"/>
			<path class="st6" d="M1132.5,1326.1c-1.6-5-12.6-24.7-23.7-20.4c-1,0.4-1.9,0.8-2.8,1.2c-8.4,4-13.8,10.3-14.1,26.7
				c0,2.1,0,4.3,0.2,6.7c0.3,4.3,1,7.9,2.1,11c3.8,10.6,11.7,15,18.6,15.7c6.1,0.6,9.4-2.5,12.5-7.8c1.4-2.4,2.7-5.2,4.3-8.4
				C1134.6,1340.9,1134.1,1331.1,1132.5,1326.1z"/>
			<path class="st6" d="M1038.1,1286c9.1,4.7,17.3,4.7,23.9,1.8c0,0.5,0,0.8,0,0.8s1.5,0.8,3.5-2.7c3.6-2.3,6.6-5.6,8.7-9.4
				c2.1-3.7,3.5-7.9,4-12.3c2-18.1-4.3-27.9-19.8-34.6c-11.7-5.1-27.1,1.9-33.6,12.1c-2,3.2-3.2,6.7-3.1,10.3
				C1022.1,1267,1024.7,1279.1,1038.1,1286z"/>
			<path class="st6" d="M1103.7,1287.8c11.1,5,14.2,1.1,19.6-5.4c5-5.9,6.8-12.2,7.5-22.4c0.1-1,0.1-2,0.2-3.1
				c0.6-12.1-1.3-19.8-7.3-23.5c-5.8-3.6-16.3-2.9-23,1.1c-0.3,0.1-0.5,0.3-0.7,0.4c-6.7,4.4-17.4,21.2-9.8,39.2
				C1090.1,1274.1,1092.6,1282.8,1103.7,1287.8z"/>
		</g>
		<path class="st7" d="M1038.1,1286c9.1,4.7,17.3,4.7,23.9,1.8c0-2.1,0-7.6-0.6-8.9c-0.8-1.6-2.6-3.1-6.2-3.3
			c-3.7-0.2-7.9-1.3-7.9-1.3s-6.3,7.3-8,8.9s-5.8,0-8.7-5.9c-2.9-5.9-5.4-9.2-4.9-20.3c0.6-11,1.7-10.7,1.7-13.6
			c0-2.1-1-2.6-2.6-1.7c-2,3.2-3.2,6.7-3.1,10.3C1022.1,1267,1024.7,1279.1,1038.1,1286z"/>
		<path class="st7" d="M1066.6,1283.7c-0.4,0.9-0.7,1.6-1.1,2.2c3.6-2.3,6.6-5.6,8.7-9.4C1072.3,1276.1,1068.7,1278.8,1066.6,1283.7
			z"/>
		<path class="st7" d="M1051.5,1270.7c8.6,0,12.4-5.1,12.6-10.8s-1-8-6.2-13.7s-12.1-6.3-17.4-1.1c0,0-1.4,1.2-2.9,5.8
			c-1.5,4.6,0,12.3,0,12.3S1042.8,1270.7,1051.5,1270.7z"/>
		<path class="st7" d="M1090.1,1274.1c0,0,2.5,8.7,13.6,13.7s14.2,1.1,19.6-5.4c5-5.9,6.8-12.2,7.5-22.4c-1.4-1.1-3.2-0.4-4.2,6.1
			c-1.7,11.4-1.8,9.8-7,13.2s-6.3,3.9-6.6,3c-0.3-0.9,0.1-4.3,0.1-4.3s-3.2-3.3-6-4.9s-2,0.5-3.7,2.4c-1.6,1.9-1.1,2.8-3.2,2.4
			c-2.2-0.4-4.7-2.5-5.9-7.1c-1.2-4.7-2.5-13.4,0.7-21.1c3.1-7.7,6.4-9.2,7.6-12.3c0.7-1.8-0.2-2.9-2.1-2.8
			c-0.3,0.1-0.5,0.3-0.7,0.4C1093.2,1239.3,1082.5,1256.1,1090.1,1274.1z"/>
		<path class="st7" d="M1113.9,1267.2c5.4-2.2,7-4.3,7.5-13.1c0.5-8.8-4.6-12.6-9.5-11.9s-9.1,8.4-9.2,18.4
			C1102.6,1267.5,1108.6,1269.4,1113.9,1267.2z"/>
		<path class="st7" d="M1036.7,1361c8.6,5.4,24.9,4.3,34.6-1.7c7.9-4.9,10.5-12.8,10.7-21.2c-1.4-3.4-3.8-0.8-5.8,3
			c-2.3,4.6-3.3,5.1-12.6,11.8s-19,1.8-19,1.8s-0.8,4.3-2,3.5c-1.2-0.9-4.9-1.6-8.8-6.7c-3-4-4.9-5.2-8.6-8.9
			C1026.7,1350.7,1030.7,1357.2,1036.7,1361z"/>
		<path class="st7" d="M1061,1346c4-4,5.4-14.7,0.6-22.8c-4.8-8.1-13.3-5.3-19.3,0.9s-4.6,13.2,0.9,20.1
			C1047.3,1349.3,1057,1350,1061,1346z"/>
		<path class="st7" d="M1103.5,1315.9c5.3-4.4,7.3-5,8.3-6.6c0.8-1.3-0.7-3.1-5.7-2.3c-8.4,4-13.8,10.3-14.1,26.7
			C1094.5,1326.2,1098.9,1319.7,1103.5,1315.9z"/>
		<path class="st7" d="M1110.9,1356.2c-3.7,2.2-4.5,4.2-8.1,2.8c-3.1-1.2-4-0.8-8.6-7.7c3.8,10.6,11.7,15,18.6,15.7
			c6.1,0.6,9.4-2.5,12.5-7.8C1117,1359.7,1114.4,1354.1,1110.9,1356.2z"/>
		<path class="st7" d="M1108.8,1327.6c-5.3,5.9-3.1,13.3,0,17.8c1.3,1.9,5.3,1.8,10.1-1.4s6-10.9,3.8-15.3
			S1114.1,1321.6,1108.8,1327.6z"/>
		<g>
			<path class="st8" d="M1050.1,1273.4c8.5,1.6,17.9-0.9,20.4-10.3c2.6-10,1-24.2-11.3-25.9c-10.6-1.5-18,4-19.8,14.5
				c-0.8,4.3-1.2,9.8,1.1,13.7C1042.7,1269.4,1046,1272,1050.1,1273.4z"/>
			<path class="st8" d="M1047.5,1315.7c-6.1,1.5-9.4,5.6-10.7,11.6c-1.1,4.9-2.4,12.4,1.5,16.4c3.4,3.5,9,5.9,13.7,6.7
				c2.4,0.4,5,0.9,7.5,0.8c7.3-4.5,11.7-12.4,11.3-21.5C1070.3,1317.9,1057.8,1313.2,1047.5,1315.7z"/>
			<path class="st8" d="M1112.4,1272.1c2.5,0.3,4.8-0.1,6.9-1.1c1.2-1,2-2.3,3-3.6c2.8-3.8,4.5-7.2,4.5-12.1c0-3.9-0.2-7.2-2.1-10.8
				c-2.8-5.1-8-7.7-13.5-4.8c-8.1,4.3-10.3,15.3-7.7,23.3C1105,1267.4,1107.3,1271.5,1112.4,1272.1z"/>
			<path class="st8" d="M1113.2,1351.7c2.1,0,3.9,0.5,6-0.4c2-0.8,3.7-2.3,4.7-4.2c1-1.9,1.4-4,1.9-6c-1-6.3-1.4-14.8-6.6-19
				c-8.7-7.1-15.2,4.9-15.7,12.4c-0.5,6.6,3.9,11.5,7.9,16.3C1112.1,1351.1,1112.7,1351.4,1113.2,1351.7z"/>
			<path class="st9" d="M1044.4,1273.5c3.9,2.9,9.4,3.4,14.1,2.7c7.6-1.2,11.4-4.3,14.9-10.9s3.3-12.4,0.4-19.3
				c-2.3-5.4-6.4-11.1-12.3-12.8c-11.9-3.4-24.2,5.7-26,17.5c-0.9,5.9-0.9,12.6,2.7,17.5C1040,1270.5,1042.1,1272.3,1044.4,1273.5z
				 M1039.3,1251.6c1.9-10.5,9.2-16.1,19.8-14.5c12.3,1.8,13.9,15.9,11.3,25.9c-2.4,9.4-11.9,11.9-20.4,10.3c-4.1-1.4-7.3-4-9.7-8.1
				C1038.1,1261.5,1038.5,1255.9,1039.3,1251.6z"/>
			<path class="st9" d="M1109,1276.6c1.6,0.7,3,0.9,4.3,0.8c2.7,0.6,5.8-0.1,7.8-1.9c4.4-3.9,5.4-10.4,6.3-15.8
				c1-6.4,2.1-11.1-1.2-17c-2.4-4.4-7.1-7.5-12.3-6.6c-5.6,1-9.3,6.1-11.9,10.8c-3.1,5.8-2.6,10.6-1.3,16.9
				C1101.8,1268.8,1104,1274.3,1109,1276.6z M1111.2,1239.7c5.5-2.9,10.7-0.3,13.5,4.8c1.9,3.5,2.1,6.8,2.1,10.8
				c0,4.8-1.7,8.3-4.5,12.1c-1,1.3-1.8,2.6-3,3.6c-2.1,1-4.4,1.4-6.9,1.1c-5.1-0.6-7.4-4.6-8.9-9.1
				C1100.9,1255,1103.2,1244,1111.2,1239.7z"/>
			<path class="st9" d="M1124.4,1316c-4-3.3-10.3-4.6-15.3-2.7c-5.2,2-8.3,8.1-10.1,13.1c-2.1,5.8-3.1,12.1-0.4,17.8
				c2.6,5.4,7,10,12.7,11.9c6.5,3,14.9,1.6,18.4-5.8C1134.8,1339.8,1134,1323.8,1124.4,1316z M1103.6,1334.5
				c0.6-7.5,7-19.6,15.7-12.4c5.2,4.2,5.6,12.7,6.6,19c-0.5,2.1-0.9,4.1-1.9,6s-2.7,3.4-4.7,4.2c-2.1,0.9-4,0.4-6,0.4
				c-0.6-0.3-1.1-0.6-1.7-0.9C1107.6,1345.9,1103.2,1341,1103.6,1334.5z"/>
			<path class="st9" d="M1064.3,1311.1c-6.2-3.9-14.4-4.1-21-1.2c-6.5,2.9-10.6,8.9-12.1,15.8c-0.9,4-0.6,8.1-0.8,12.2
				c-0.2,3.3-0.3,6.4,1.7,9.2c4.4,6,12.6,8.5,19.6,9.4c0.4,0.1,0.9,0.1,1.4,0.1c0.4,0.3,0.9,0.5,1.5,0.4c0.8-0.1,1.6-0.3,2.4-0.4
				c3-0.3,6.1-1.1,8.3-2.9c3.2-1.6,6.1-3.8,8.3-6.5c4.4-5.5,5.1-14.4,3.1-21C1074.8,1320.4,1069.5,1314.4,1064.3,1311.1z
				 M1059.6,1351.3c-2.5,0.1-5.1-0.4-7.5-0.8c-4.7-0.8-10.3-3.2-13.7-6.7c-3.9-4-2.6-11.5-1.5-16.4c1.3-6,4.6-10.1,10.7-11.6
				c10.3-2.5,22.7,2.2,23.3,14C1071.2,1338.8,1066.9,1346.8,1059.6,1351.3z"/>
		</g>
	</g>
</g>
</svg>
