<?xml version="1.0" encoding="utf-8"?>
<!-- Generator: Adobe Illustrator 23.0.1, SVG Export Plug-In . SVG Version: 6.00 Build 0)  -->
<svg version="1.1" id="_x30_1_x5F_Eyewear_x5F_ScubaGoggles__x28_SCU_x29_"
	 xmlns="http://www.w3.org/2000/svg" xmlns:xlink="http://www.w3.org/1999/xlink" x="0px" y="0px" viewBox="0 0 2000 2000"
	 enable-background="new 0 0 2000 2000" xml:space="preserve">
<g id="_x30_1_x5F_Eyewear_x5F_ScubaGoggles_x5F_BackGround">
	<g>
		<g>
			<path fill="#434343" d="M751.1,650.4l-0.2-0.6l0,0l-0.5-1.3l-13.4,2.9l-8.6,1c-0.3,2.8-0.8,4.8-0.8,4.8s-1.2-0.1-2.8,0.4
				c-1.5,0.5-1.2,2.2-1.2,2.2l-1.3,0.1l-10.1-4.2l-7.6,4.3c0,0-22.1-0.1-40.3-1.7c-12.9-1.1-37.1-3.9-55.5-6.5
				c-7.5-1.1-14.1-2.1-18.5-3c-15.5-3.1-31.9-11.2-33-14.8c0,0,1.7-0.3-0.8,0.7s-4.9,4.4-2.3,12.8c0,0-2.9-0.7-5.5,0.5
				s-5.7,1.9-2.4,18.7s7.7,33.6,9.2,38.1s4.9,5.1,8.5,5.6c3.5,0.5,2.5-0.7,2.5-0.7s0.3,4,0.5,5.6s7.7,3.1,7.7,3.1l1.4,6.1
				c0,0-1.8,2,4.2,3.5s7.8-3.2,7.8-3.2s4.4,1.2,10,2.4c1,0.2,1.9,0.4,3,0.6c2.7,0.6,5.5,1.1,8.2,1.6c0,0,0.2,3.2,0.2,4.6
				s3.6,2,9.8,2.6c6.2,0.5,8.2-3.5,8.2-3.5s0.1,0,0.3,0.1c1.2,0.3,6,1.4,13.7,2.6c3.1,0.5,6.7,1,10.7,1.5c0,0-0.4,1,1.4,2.3
				c0.5,0.3,1.1,0.7,2,1c2.2,0.9,4.1,1.3,5.8,1.5c1.4,0.1,2.5,0,3.4-0.2c1.9-0.5,2.8-2.6,2.8-2.6h0.1c1.1,0.2,10,1.4,18,2.2
				c2.9,0.3,5.7,0.5,8,0.6c0,0,0.5,2,2.2,3.4s6.7,1.5,10.6-3.4c0,0,0.1,0,0.3,0c0.3,0,0.8,0,1.5,0.1c3.7,0.2,12.8,0.5,21.9-0.1
				c0,0-1,3.3,5.7,3.4l7.8,3.5l17.2-3.6l9.8-2l4.5-0.9l0.5-3.2l2.4-16.5L751.1,650.4z"/>
			<path opacity="0.3" fill="#091426" enable-background="new    " d="M628.2,661.1c-0.9-1.5-7,2.4-7,2.4s0.3,65.6-0.3,68.2
				c-0.6,2.6,0.7,3-6.2,2.1c-6.9-1-4,0.3-4.8-14.7s-4.2-57-3.8-57.1c0.3-0.1,12.6,0.1,12.6,0.1l7.7-3.2l-15.9-2.5
				c-6.8,1.7-8.2,5-9.5,6.9c-1.1,1.6-0.3,51.8-0.1,64.4c2.7,0.6,5.5,1.1,8.2,1.6c0,0,0.2,3.2,0.2,4.6s3.6,2,9.8,2.6
				c6.2,0.5,8.2-3.5,8.2-3.5s0.1,0,0.3,0.1c0.2-7.1,0.6-19.7,0.6-33C628.2,680.2,629.1,662.7,628.2,661.1z"/>
			<path opacity="0.3" fill="#091426" enable-background="new    " d="M557.3,633.9c0,0,1.7-0.3-0.8,0.7s-4.9,4.4-2.3,12.8
				c0,0-2.9-0.7-5.5,0.5c-2.6,1.1-5.7,1.9-2.4,18.7s7.7,33.6,9.2,38.1s4.9,5.1,8.5,5.6c3.5,0.5,2.5-0.7,2.5-0.7s0.3,4,0.5,5.6
				s7.7,3.1,7.7,3.1l1.4,6.1c0,0,2.1,3.6,4.2,3.5c6.2-0.3,7.8-3.2,7.8-3.2s4.4,1.2,10,2.4c-0.7-4.5-1.7-14.3-2.4-33.6
				c-1-30.4-1.2-36.4,4.8-39.3c2.3-1.1,5.4-1.9,8.4-2.5c-7.5-1.1-14.1-2.1-18.5-3C574.9,645.7,558.4,637.5,557.3,633.9z"/>
			<path opacity="0.3" fill="#091426" enable-background="new    " d="M668.6,674.1c-0.2-12.5-1.7-10.6-1.7-10.6
				c-5.6,3.7-5.8,3.7-6.1,6.7s0.2,48.6,0.6,61.5c0.1,5.1-0.1,8.4-0.3,10.4c1.4,0.1,2.5,0,3.4-0.2c1.9-0.5,2.8-2.6,2.8-2.6h0.1
				C667.8,724.4,668.7,684.2,668.6,674.1z"/>
			<path opacity="0.3" fill="#091426" enable-background="new    " d="M653.4,739.5c-0.8-7.8-2.5-25.9-2.9-39.5
				c-0.5-17.8-0.8-34.5-0.8-34.5l9.2,0.8l6-3.4c0,0-14.2-0.7-15.1-0.6s-2.1,1.3-4.3,3.6s-1.9,3-2.6,13.1c-0.6,9.3-1.4,33.6-1.6,56.7
				c3.1,0.5,6.7,1,10.7,1.5C652,737.2,651.6,738.3,653.4,739.5z"/>
			<path opacity="0.3" fill="#091426" enable-background="new    " d="M705.9,667.8l-4.2,4.5c0,0-0.5,3.4-0.6,23s0.3,46.8,0.3,46.8
				s-3.2,0.5-5.3,0s-2.7-1.8-2.8-6.6s-1.6-29.7-1.7-44c0-14.3-2.5-21.9-2.2-22.3s2-1.1,7-0.5s4.8,1.2,4.8,1.2s5.1-3.8,2.4-4.1
				c-2.7-0.3-13.4-0.8-14.1-0.3s-1,1.7-2.2,4.1c-1.2,2.4-1.8,3.5-1.5,11.1c0.3,7.1-0.2,37.3-0.5,60.7c2.9,0.3,5.7,0.5,8,0.6
				c0,0,0.5,2,2.2,3.4s6.7,1.5,10.6-3.4c0,0,0.1,0,0.3,0c0-4.5,0.2-14.8,0.4-30.4C707.1,690.2,705.9,667.8,705.9,667.8z"/>
			<polygon fill="#494949" points="610.5,656.5 608.4,660.2 619.6,661 625.2,658.8 			"/>
			<path fill="#494949" d="M626.6,659.9l-5.4,3.6c0,0,1.3,1.3,0.9,8.9c-0.4,7.6,0.3,54.2,0,57.5s-0.9,4.2-0.9,4.2s4-0.7,5.2-1.7
				c0,0,0.4-12.6,0.4-25.1C626.8,694.9,626.6,659.9,626.6,659.9z"/>
			<path fill="#494949" d="M650.1,664.4c7.2,0.9,9.8,1.1,11,1.5c1.1,0.4,1.7,3.3,1.6,7.9s-0.1,45.4-0.2,54.4s-0.1,11.2,0.2,11.8
				s2.3-0.4,3.3-1s0.8-7.9,0.9-16.2c0.1-8.3,0.1-47.2,0-52.7s-0.7-6.4-3.7-6.7s-9.3-0.6-9.3-0.6L650.1,664.4z"/>
			<path fill="#494949" d="M690.7,666.7c0,0.8,0.5,1.1,3.1,0.9s6.6,0,7.9,0.6s1.1,2.1,1,5.2s0.9,63.2,0.7,66.8s0.1,2.8,0.8,2.4
				s1.6-0.4,1.5-2.1s0-34.1,0-44.8s-0.6-26.8-0.9-28s-2.6-1.8-5.3-2.2S690.7,664.7,690.7,666.7z"/>
		</g>
	</g>
	<path fill="#434343" d="M1095.3,705c-23.7-21.5-35.7-29.7-72.2-21.3c-36.5,8.3-51.8,72-85.5,90.2s-93.6,25.2-108,10.8
		s-40-83.8-51.3-118.1c-5.1-15.4-9.2-30.3-10.5-43.1c-1.5-15.6,1.3-28.4,11.8-35.8c19.2-13.5,98.9-29.5,98.9-29.5l247.8-35.5
		c-70.5-22.7-168.5-9.8-223.7,11s-131.7,44-131.7,44L735.8,627c-0.5,0.6-0.9,1.3-1.3,2c-2.7,4.5-4.5,11.1-5.5,18.6
		c-0.8,5.7-1.1,11.9-1,18c0.2,15.4,22,80.6,24.9,91.7S770,791.8,785,800c1.5,0.8,3,1.6,4.5,2.4c14.4,7.6,32.5,15.1,49.1,15.4
		c18.4,0.3,18.6-1.7,51.9-9.8s50.2-8.4,64.9-16.2c0.5-0.3,1-0.6,1.5-0.8c13.9-8,23.5-22.5,35.3-38.1c12.3-16.1,31.7-28.2,45.2-27.4
		c13.4,0.8,27.2,14.3,37.3,26.5c7.1,8.6,16.2,13.6,27.2,15.8c4.7,1,9.7,1.4,15.1,1.4c18,0,28.6-3.3,45-12.5
		C1162,756.6,1119,726.5,1095.3,705z"/>
	<path fill="#31353A" d="M1162,756.6c-16.4,9.2-27,12.5-45,12.5c-5.4,0-10.4-0.5-15.1-1.4c-14-9.6-22-22.1-30.3-30.5
		c-11.2-11.3-22.1-19.8-41.2-20.3s-28.9,14.5-40.3,29.7c-7.5,9.9-23.2,31-33.1,44.3c-0.5,0.3-1,0.6-1.5,0.8
		c-14.7,7.8-31.6,8-64.9,16.2c-33.3,8.2-33.5,10.2-51.9,9.8c-16.6-0.3-34.7-7.9-49.1-15.4c-3.2-5.6-7.1-12.5-11.3-19.9
		c-7.3-13.1-11.7-22.8-17-37.2c-0.3-0.7-0.5-1.5-0.8-2.2c-2.5-7-5.3-15.1-8.7-25.3c-3.5-10.3-7.5-22.8-11.5-35.1L745,745l-2.5,0.5
		l-0.6-3.1c0,0-0.4-0.2-1.5-15.2c-1.1-15.3-3.2-43.8-3.5-51.2s-1.9-7.8-3.9-7.5s-7.2,0.4-7.2,0.4s-0.2,2.2,0.6,3.8
		c0.8,1.5,1.7,2.8,2.3,20.8c0.6,18.1,1.2,48.5,1.2,48.5c-9.1,0.6-18.2,0.3-21.9,0.1c0.2-1.2,1.3-2,4.3-1.8c4.6,0.3,8.7,0,8.7,0
		s0.2-24-0.2-41.6s0.4-23.3,1-26.4c0.6-3.1,1.6-5.3,4.9-5.4c2.5-0.1,6.6-0.5,8.3-0.7c-2.2-6.9-4.2-13.3-5.9-18.7
		c1-7.4,2.8-14,5.5-18.6l33.3-5.5c1.2,12.9,5.3,27.7,10.5,43.1c11.3,34.2,36.9,103.7,51.3,118.1c14.4,14.4,74.3,7.3,108-10.8
		c33.7-18.2,49-81.9,85.5-90.2c36.5-8.3,48.5-0.1,72.2,21.4C1119,726.5,1162,756.6,1162,756.6z"/>
	<g>
		<path fill="#888888" d="M781,744c0,0-3.4,7.2-10.2,12.1c-6.8,4.9-13.2,5.6-22.4,3.1c-3.3-0.9-5.9-3-7.9-5.2
			c-0.7-0.8-1.3-1.6-1.8-2.4c-2.2-3.2-3.1-6.1-3.1-6.1s3.5-0.3,5.2-0.4c1.6-0.1,1.2-2.7,1.2-2.7l7.7-0.3c0,0,1.2,2.9,4.4,3.4
			c0.6,0.1,1.2,0.2,1.8,0.2c2.8,0,6-1.1,9.1-6c0.6-1,1.2-2.1,1.8-3.2c2.8-5.5,4.7-11.4,4.7-11.4L781,744z"/>
		<path opacity="0.3" fill="#091426" enable-background="new    " d="M758.2,756.1c-5.8,1-13.4-0.8-17.8-2.1c2,2.2,4.6,4.3,7.9,5.2
			c9.2,2.5,15.6,1.8,22.4-3.1S781,744,781,744l-9.6-19c0,0-1.9,6-4.7,11.4c3.4,4.8,4.7,9.5,4.6,11.4
			C771.2,750.2,766.9,754.6,758.2,756.1z"/>
		<path opacity="0.3" fill="#091426" enable-background="new    " d="M749.6,742.1l-7.7,0.3c0,0,0.4,2.6-1.2,2.7s-5.2,0.4-5.2,0.4
			s1,2.9,3.1,6.1c2.4,0.3,6.4,0.4,10.7-1.2c3.2-1.2,5.3-3.1,6.5-4.7c-0.6,0-1.3-0.1-1.9-0.2C750.8,745,749.6,742.1,749.6,742.1z"/>
	</g>
	<path fill="#888888" d="M749.7,663.5c-16.4-8.4-25.8-14.3-27.3-3.7h-2.9l-14.7,0.1c0,0-3.2-3.2,2.1-14.2c3.6-7.4,12.1-9,20.3-8.1
		c3.9,0.5,7.7,1.5,10.9,2.8C747.8,644.5,749.7,663.5,749.7,663.5z"/>
	<path opacity="0.3" fill="#091426" enable-background="new    " d="M749.7,663.5c0,0-1.9-19-11.8-23c-3.2-1.3-7-2.4-10.9-2.8
		c-2,2-1.2,3.6,6.9,12.8c0,0-3.7-0.7-9.9,1.1c-3.7,1.1-4.5,5.2-4.6,8.3h2.9C723.9,649.2,733.3,655.1,749.7,663.5z"/>
	<path fill="#31353A" d="M760.5,745.4c0-0.7,0-1.5,0-2.4c0.3,0.8,0.5,1.5,0.8,2.2L760.5,745.4z"/>
</g>
</svg>
