<?xml version="1.0" encoding="utf-8"?>
<!-- Generator: Adobe Illustrator 23.0.1, SVG Export Plug-In . SVG Version: 6.00 Build 0)  -->
<svg version="1.1" id="_x30_7_x5F_Eyewear_x5F_GlassesBifocals"
	 xmlns="http://www.w3.org/2000/svg" xmlns:xlink="http://www.w3.org/1999/xlink" x="0px" y="0px" viewBox="0 0 2000 2000"
	 enable-background="new 0 0 2000 2000" xml:space="preserve">
<g>
	<path fill="#932227" d="M805.2,650.2c54.5-10.6,103.7-9.8,133.9-2.5c30.2,7.3,37.7,10.8,41.9,25s2.2,24.7,1.2,38
		c-1.1,13.2,1.2,22.4-3,32s-7.8,19.6-7.8,19.6h9.5c0,0,10.4-22.6,9.2-41.8c-1.1-19.2,7.8-43.9-4.1-59.2
		c-11.9-15.2-32.9-16.9-49.7-19.1c-16.8-2.2-48.2-8.7-78.7-4.4c-30.5,4.4-54.8,8.5-54.8,8.5L805.2,650.2z"/>
	<path opacity="0.3" fill="#A9DFFF" enable-background="new    " d="M953.5,721.8l-119.1,0.6c-1.1,2.7-5,16,9.6,41.6
		c29.6,2.6,68.7,3.8,96.9,2.8C951.6,745.5,953.8,730.8,953.5,721.8z M883,758.2l-38.2-3.2c0,0,10.9-15.8,11.1-32l31.9,0.2
		C887.8,723.1,889.8,741,883,758.2z M908.3,759.2h-12.4c0,0,7.3-16.1,7.3-36l12.3-0.1C915.5,723.1,917.7,742.8,908.3,759.2z"/>
	<path opacity="0.3" fill="#A9DFFF" enable-background="new    " d="M839.5,763.6L839.5,763.6L839.5,763.6c0-0.1-0.1-0.2-0.2-0.3
		C839.4,763.5,839.5,763.6,839.5,763.6z"/>
	<path opacity="0.3" fill="#A9DFFF" enable-background="new    " d="M833.1,720.4l122.2-0.6l0.1,1c0.1,1.8,0.1,3.8,0,6.1
		c0.2-2.4,0.2-4.5,0.1-6.4l-0.1-0.9l-122.2,0.6l-0.3,0.5c-0.1,0.2-1.5,2.8-1.8,7.9c0.3-4.9,1.6-7.4,1.8-7.7L833.1,720.4z"/>
	<path opacity="0.3" fill="#A9DFFF" enable-background="new    " d="M988.9,701.3c0.4-10.8,5.8-33.2-11.3-45.8
		s-63.9-18.8-116.5-17.9c-52.6,0.9-86.4,13.9-92,24.4s-6.9,41.8,8.5,82c0,0,0.7,5.5,19.4,11.7c30.9-35.8,93-103.7,93-103.7
		s29.3-0.2,51.5,3.5l-52.1,62.4l-57.5,0.3l84.5-0.4l0,0l39.4-58.4c9.2,1.8,13.5,7.1,13.5,7.1L936,717.7l21.1-0.1l0.1,0.9
		c0.6,10.3-2.5,27.9-12.2,48.1c12-0.5,21.7-1.5,27.3-2.9C996.8,757.3,988.5,712.1,988.9,701.3z"/>
	<path opacity="0.3" fill="#A9DFFF" enable-background="new    " d="M831.9,718.3L831.9,718.3L831.9,718.3z"/>
	<path opacity="0.3" fill="#A9DFFF" enable-background="new    " d="M839.3,763.3c-4.7-8.7-7.3-16.2-8.6-22.5
		c-0.4-1.8-0.7-3.6-0.9-5.3c0,0,0,0,0-0.1c-1.2-10.6,1.6-16.3,1.8-16.7l0.2-0.4c0-0.1,0.1-0.1,0.1-0.1l57.5-0.3l52.1-62.4
		c-22.2-3.8-51.5-3.5-51.5-3.5s-62.1,67.9-92.9,103.7c3.6,1.2,7.8,2.4,12.8,3.6c6.8,1.6,17.3,3.1,29.6,4.3l0,0
		C839.5,763.6,839.4,763.5,839.3,763.3z"/>
	<path opacity="0.4" fill="#FFFFFF" enable-background="new    " d="M839.3,763.3c-4.7-8.7-7.3-16.2-8.6-22.5
		c-0.4-1.8-0.7-3.6-0.9-5.3c0,0,0,0,0-0.1c-1.2-10.6,1.6-16.3,1.8-16.7l0.2-0.4c0-0.1,0.1-0.1,0.1-0.1l57.5-0.3l52.1-62.4
		c-22.2-3.8-51.5-3.5-51.5-3.5s-62.1,67.9-92.9,103.7c3.6,1.2,7.8,2.4,12.8,3.6c6.8,1.6,17.3,3.1,29.6,4.3l0,0
		C839.5,763.6,839.4,763.5,839.3,763.3z"/>
	<path opacity="0.3" fill="#A9DFFF" enable-background="new    " d="M855.9,723c-0.2,16.2-11.1,32-11.1,32l38.2,3.2
		c6.8-17.2,4.8-35,4.8-35L855.9,723z"/>
	<path opacity="0.4" fill="#FFFFFF" enable-background="new    " d="M855.9,723c-0.2,16.2-11.1,32-11.1,32l38.2,3.2
		c6.8-17.2,4.8-35,4.8-35L855.9,723z"/>
	<path opacity="0.3" fill="#A9DFFF" enable-background="new    " d="M903.2,723.2c0,19.9-7.3,36-7.3,36h12.4
		c9.3-16.3,7.1-36.1,7.1-36.1L903.2,723.2z"/>
	<path opacity="0.4" fill="#FFFFFF" enable-background="new    " d="M903.2,723.2c0,19.9-7.3,36-7.3,36h12.4
		c9.3-16.3,7.1-36.1,7.1-36.1L903.2,723.2z"/>
	<path opacity="0.3" fill="#A9DFFF" enable-background="new    " d="M969.3,666.5c0,0-4.3-5.3-13.5-7.1l-39.4,58.4l0,0l19.7-0.1
		L969.3,666.5z"/>
	<path opacity="0.4" fill="#FFFFFF" enable-background="new    " d="M969.3,666.5c0,0-4.3-5.3-13.5-7.1l-39.4,58.4l0,0l19.7-0.1
		L969.3,666.5z"/>
	<path opacity="0.3" fill="#A9DFFF" enable-background="new    " d="M955.4,720.8l-0.1-1l-122.2,0.6l-0.3,0.5
		c-0.1,0.2-1.5,2.7-1.8,7.7c-0.4,6.9,1.3,18.5,10.7,35.2c0.7,0.1,1.5,0.1,2.2,0.2c-14.6-25.5-10.7-38.9-9.6-41.6l119.1-0.6
		c0.3,9-1.8,23.7-12.6,45c0.7,0,1.4-0.1,2.2-0.1c8.8-17.6,11.8-30.7,12.4-39.9C955.5,724.6,955.5,722.6,955.4,720.8z"/>
	<path opacity="0.5" fill="#C1B4B0" enable-background="new    " d="M955.4,720.8l-0.1-1l-122.2,0.6l-0.3,0.5
		c-0.1,0.2-1.5,2.7-1.8,7.7c-0.4,6.9,1.3,18.5,10.7,35.2c0.7,0.1,1.5,0.1,2.2,0.2c-14.6-25.5-10.7-38.9-9.6-41.6l119.1-0.6
		c0.3,9-1.8,23.7-12.6,45c0.7,0,1.4-0.1,2.2-0.1c8.8-17.6,11.8-30.7,12.4-39.9C955.5,724.6,955.5,722.6,955.4,720.8z"/>
	<path opacity="0.3" fill="#A9DFFF" enable-background="new    " d="M957.2,718.5l-0.1-0.9l-21.1,0.1l-0.1,0.1h-19.6l-84.5,0.4
		l-0.1,0.1c-0.4,0.8-2.8,6.2-2,17.1c0.2,1.7,0.5,3.5,0.9,5.4c2.2,9.7,7.7,20.6,8.6,22.5c0.1,0.1,0.1,0.2,0.2,0.3
		c0.7,0.1,1.3,0.1,2,0.2c-9.4-16.8-10.9-28.3-10.5-35.2c0.3-5.1,1.7-7.7,1.8-7.9l0.3-0.5l122.2-0.6l0.1,0.9c0.1,1.9,0.1,4-0.1,6.4
		c-0.6,9.1-3.5,22.3-12.3,39.9c0.6,0,1.3-0.1,1.9-0.1C954.8,746.5,957.8,728.8,957.2,718.5z"/>
	<path opacity="0.5" fill="#FFFDFD" enable-background="new    " d="M957.2,718.5l-0.1-0.9l-21.1,0.1l-0.1,0.1h-19.6l-84.5,0.4
		l-0.1,0.1c-0.4,0.8-2.8,6.2-2,17.1c0.2,1.7,0.5,3.5,0.9,5.4c2.2,9.7,7.7,20.6,8.6,22.5c0.1,0.1,0.1,0.2,0.2,0.3
		c0.7,0.1,1.3,0.1,2,0.2c-9.4-16.8-10.9-28.3-10.5-35.2c0.3-5.1,1.7-7.7,1.8-7.9l0.3-0.5l122.2-0.6l0.1,0.9c0.1,1.9,0.1,4-0.1,6.4
		c-0.6,9.1-3.5,22.3-12.3,39.9c0.6,0,1.3-0.1,1.9-0.1C954.8,746.5,957.8,728.8,957.2,718.5z"/>
	<path opacity="0.3" fill="#A9DFFF" enable-background="new    " d="M830.7,740.8c1.3,6.2,3.9,13.7,8.6,22.5
		C838.4,761.4,832.9,750.5,830.7,740.8z"/>
	<path opacity="0.3" fill="#A9DFFF" enable-background="new    " d="M829.9,735.5c-0.8-10.9,1.6-16.3,2-17.1l-0.2,0.4
		C831.4,719.2,828.7,724.9,829.9,735.5z"/>
	<polygon opacity="0.3" fill="#A9DFFF" enable-background="new    " points="936.1,717.7 916.4,717.8 936,717.8 	"/>
	<path opacity="0.3" fill="#A9DFFF" enable-background="new    " d="M831,728.6c-0.4,6.8,1.1,18.4,10.5,35.2c0.1,0,0.1,0,0.2,0
		C832.3,747.1,830.7,735.5,831,728.6z"/>
	<path opacity="0.5" fill="#C1B4B0" enable-background="new    " d="M831,728.6c-0.4,6.8,1.1,18.4,10.5,35.2c0.1,0,0.1,0,0.2,0
		C832.3,747.1,830.7,735.5,831,728.6z"/>
	<path opacity="0.5" fill="#FFFDFD" enable-background="new    " d="M831,728.6c-0.4,6.8,1.1,18.4,10.5,35.2c0.1,0,0.1,0,0.2,0
		C832.3,747.1,830.7,735.5,831,728.6z"/>
	<path fill="#932227" d="M1146.2,635.4c45.1-5.8,59.3-4.4,73.2-4.7c13.9-0.3,25.2,0,28,3.7s4.2,5.5,3,13.8s-3.8,44.4-9,61.1
		s-7.9,19.4-13.5,22.1l8.5,1.3c0,0,8.7,3.6,12.4-13.7c3.7-17.3,16.5-56.1,12.1-71.8s-0.5-22-22-21.6s-89.3,4.5-89.3,4.5
		L1146.2,635.4z"/>
	<path opacity="0.3" fill="#A9DFFF" enable-background="new    " d="M1117.9,749.5L1117.9,749.5c-0.1-0.1-0.3-0.3-0.4-0.4
		C1117.6,749.2,1117.8,749.4,1117.9,749.5z"/>
	<path opacity="0.3" fill="#A9DFFF" enable-background="new    " d="M1188.4,741.6L1188.4,741.6c0.2-0.5,0.4-0.9,0.6-1.4
		C1188.8,740.6,1188.6,741.1,1188.4,741.6z"/>
	<path opacity="0.3" fill="#A9DFFF" enable-background="new    " d="M1193.9,707.2l-90,3.8c0.7,13.7,6.8,26.3,18.4,38.2
		c17.6-1.5,41.4-3.4,63.7-7.2C1194,726.1,1194.1,711,1193.9,707.2z M1150,740.8h-34.4c0,0,10.1-16.9,8.5-30.1l28.9-0.6
		C1153,710,1155.6,727.7,1150,740.8z M1172,739.8h-13.2c0,0,7.9-16.9,7.4-30.5h11.6C1177.8,709.2,1179.7,727.1,1172,739.8z"/>
	<path opacity="0.3" fill="#A9DFFF" enable-background="new    " d="M1101.8,709L1101.8,709v1c0.5,14.2,6.4,27.1,17.9,39.3l0,0
		c-11.5-12.2-17.4-25.2-17.9-39.3V709z"/>
	<path opacity="0.3" fill="#A9DFFF" enable-background="new    " d="M1116,747.3c0.3,0.3,0.5,0.6,0.8,1
		C1116.5,747.9,1116.3,747.6,1116,747.3z"/>
	<path opacity="0.3" fill="#A9DFFF" enable-background="new    " d="M1195.8,705.2c0-0.1,0-0.1,0-0.2l0,0
		C1195.8,705,1195.8,705.1,1195.8,705.2L1195.8,705.2z"/>
	<path opacity="0.3" fill="#A9DFFF" enable-background="new    " d="M1260.5,640.5c-5.3-15.7-8.2-14.7-35.2-15.4
		s-84.2,3.1-111.1,12.5s-36.6,14.7-36.6,14.7c-6.6,11.1-2.2,45.2,5.1,68.2c2.3,7.4,3.6,13.4,4.9,18c11.3-14.1,14-17.7,14.2-18.1
		c-1.1-4.1-1.7-8.2-1.9-12.4v-1l13.7-0.6h-0.1l55.7-67.2c0,0,31.8-4.8,45.6-3.9l-48.7,68.8l15.1-0.7l44.7-67.4
		c0,0,10.8-1.3,14.6-0.9c3.8,0.4,5.3,1.7,2.1,5.6s-45,72.8-45,72.8l0,0c-0.6,7.1-2.2,17.3-6.7,27.4c6.2-1.1,12.1-2.4,17.8-3.9
		c33.5-8.7,37.7-3,41.8-25.6C1254.5,689.1,1265.9,656.2,1260.5,640.5z"/>
	<path opacity="0.3" fill="#A9DFFF" enable-background="new    " d="M1116.8,748.2c-0.3-0.3-0.5-0.6-0.8-1
		c-6.9-8.4-11.8-17.4-14.3-26.8c-0.2,0.3-2.9,4-14.2,18.1c2.8,9.7,5.9,13.4,20.4,11.8c2.9-0.3,6.3-0.6,10-0.9
		c-0.1-0.1-0.3-0.3-0.4-0.4C1117.3,748.8,1117,748.5,1116.8,748.2z"/>
	<path opacity="0.4" fill="#FFFFFF" enable-background="new    " d="M1116.8,748.2c-0.3-0.3-0.5-0.6-0.8-1
		c-6.9-8.4-11.8-17.4-14.3-26.8c-0.2,0.3-2.9,4-14.2,18.1c2.8,9.7,5.9,13.4,20.4,11.8c2.9-0.3,6.3-0.6,10-0.9
		c-0.1-0.1-0.3-0.3-0.4-0.4C1117.3,748.8,1117,748.5,1116.8,748.2z"/>
	<path opacity="0.3" fill="#A9DFFF" enable-background="new    " d="M1214.8,635.5c-13.9-0.9-45.6,3.9-45.6,3.9l-55.7,67.2h0.1
		l52.5-2.3L1214.8,635.5z"/>
	<path opacity="0.4" fill="#FFFFFF" enable-background="new    " d="M1214.8,635.5c-13.9-0.9-45.6,3.9-45.6,3.9l-55.7,67.2h0.1
		l52.5-2.3L1214.8,635.5z"/>
	<path opacity="0.3" fill="#A9DFFF" enable-background="new    " d="M1197.7,703.9c0,0.1,0.3,3.9-0.2,9.8l0,0c0,0,41.8-68.8,45-72.8
		s1.7-5.2-2.1-5.6c-3.8-0.4-14.6,0.9-14.6,0.9l-44.7,67.4l16.6-0.7L1197.7,703.9z"/>
	<path opacity="0.4" fill="#FFFFFF" enable-background="new    " d="M1197.7,703.9c0,0.1,0.3,3.9-0.2,9.8l0,0c0,0,41.8-68.8,45-72.8
		s1.7-5.2-2.1-5.6c-3.8-0.4-14.6,0.9-14.6,0.9l-44.7,67.4l16.6-0.7L1197.7,703.9z"/>
	<path opacity="0.3" fill="#A9DFFF" enable-background="new    " d="M1124.1,710.6c1.6,13.2-8.5,30.1-8.5,30.1h34.4
		c5.6-13.1,3-30.8,3-30.8L1124.1,710.6z"/>
	<path opacity="0.4" fill="#FFFFFF" enable-background="new    " d="M1124.1,710.6c1.6,13.2-8.5,30.1-8.5,30.1h34.4
		c5.6-13.1,3-30.8,3-30.8L1124.1,710.6z"/>
	<path opacity="0.3" fill="#A9DFFF" enable-background="new    " d="M1166.2,709.2c0.5,13.6-7.4,30.5-7.4,30.5h13.2
		c7.7-12.6,5.8-30.5,5.8-30.5H1166.2z"/>
	<path opacity="0.4" fill="#FFFFFF" enable-background="new    " d="M1166.2,709.2c0.5,13.6-7.4,30.5-7.4,30.5h13.2
		c7.7-12.6,5.8-30.5,5.8-30.5H1166.2z"/>
	<path opacity="0.3" fill="#A9DFFF" enable-background="new    " d="M1195.8,705.1C1195.8,705.1,1195.8,705,1195.8,705.1l-41.4,1.7
		l-15.4,0.7L1195.8,705.1z"/>
	<path opacity="0.5" fill="#C1B4B0" enable-background="new    " d="M1195.8,705.1C1195.8,705.1,1195.8,705,1195.8,705.1l-41.4,1.7
		l-15.4,0.7L1195.8,705.1z"/>
	<path opacity="0.3" fill="#A9DFFF" enable-background="new    " d="M1189.1,740c1.5-3.3,2.7-6.6,3.6-9.6c4-13.4,3.2-23.8,3.1-24.4
		v-0.4v-0.4l0,0v-0.1l-56.8,2.4l-10.6,0.4l-26.5,1.1v1c0.5,14.2,6.4,27.1,17.9,39.3c0.8-0.1,1.7-0.1,2.5-0.2
		c-11.6-11.9-17.6-24.5-18.4-38.2l90-3.8c0.1,3.9,0.1,19-8,34.8c0.8-0.1,1.6-0.3,2.4-0.4c0.2-0.5,0.4-0.9,0.6-1.4
		C1189.1,740.1,1189.1,740.1,1189.1,740z"/>
	<path opacity="0.5" fill="#C1B4B0" enable-background="new    " d="M1189.1,740c1.5-3.3,2.7-6.6,3.6-9.6c4-13.4,3.2-23.8,3.1-24.4
		v-0.4v-0.4l0,0v-0.1l-56.8,2.4l-10.6,0.4l-26.5,1.1v1c0.5,14.2,6.4,27.1,17.9,39.3c0.8-0.1,1.7-0.1,2.5-0.2
		c-11.6-11.9-17.6-24.5-18.4-38.2l90-3.8c0.1,3.9,0.1,19-8,34.8c0.8-0.1,1.6-0.3,2.4-0.4c0.2-0.5,0.4-0.9,0.6-1.4
		C1189.1,740.1,1189.1,740.1,1189.1,740z"/>
	<path opacity="0.3" fill="#A9DFFF" enable-background="new    " d="M1197.7,702.9l-16.6,0.7l0,0l-15.1,0.7l0,0l-52.5,2.2l-13.7,0.6
		v1c0.1,4.1,0.8,8.3,1.9,12.4l0,0c0,0,3,13,14.2,26.8c0.3,0.3,0.5,0.6,0.8,1c0.2,0.3,0.5,0.6,0.7,0.8c0.1,0.1,0.3,0.3,0.4,0.4
		c0.6-0.1,1.2-0.1,1.8-0.2c-11.5-12.2-17.4-25.2-17.9-39.3v-1l0,0l0,0l26.5-1.1l10.6-0.4l15.4-0.7l41.4-1.8l0,0l0,0c0,0,0,0.1,0,0.2
		l0,0v0.4v0.4c0,0.6,0.9,11-3.1,24.4c-0.9,3.1-2.1,6.3-3.6,9.6c0,0,0,0.1-0.1,0.1c-0.2,0.5-0.4,0.9-0.6,1.4c0.8-0.1,1.6-0.3,2.4-0.4
		c4.5-10.1,6.1-20.3,6.7-27.4L1197.7,702.9z"/>
	<path opacity="0.5" fill="#FFFDFD" enable-background="new    " d="M1197.7,702.9l-16.6,0.7l0,0l-15.1,0.7l0,0l-52.5,2.2l-13.7,0.6
		v1c0.1,4.1,0.8,8.3,1.9,12.4l0,0c0,0,3,13,14.2,26.8c0.3,0.3,0.5,0.6,0.8,1c0.2,0.3,0.5,0.6,0.7,0.8c0.1,0.1,0.3,0.3,0.4,0.4
		c0.6-0.1,1.2-0.1,1.8-0.2c-11.5-12.2-17.4-25.2-17.9-39.3v-1l0,0l0,0l26.5-1.1l10.6-0.4l15.4-0.7l41.4-1.8l0,0l0,0c0,0,0,0.1,0,0.2
		l0,0v0.4v0.4c0,0.6,0.9,11-3.1,24.4c-0.9,3.1-2.1,6.3-3.6,9.6c0,0,0,0.1-0.1,0.1c-0.2,0.5-0.4,0.9-0.6,1.4c0.8-0.1,1.6-0.3,2.4-0.4
		c4.5-10.1,6.1-20.3,6.7-27.4L1197.7,702.9z"/>
	<path opacity="0.3" fill="#A9DFFF" enable-background="new    " d="M1101.7,720.5L1101.7,720.5c2.4,9.3,7.3,18.4,14.2,26.8
		C1104.7,733.5,1101.7,720.5,1101.7,720.5z"/>
	<path opacity="0.3" fill="#A9DFFF" enable-background="new    " d="M1116.8,748.2c0.2,0.3,0.5,0.6,0.7,0.8
		C1117.3,748.8,1117,748.5,1116.8,748.2z"/>
	<path opacity="0.4" fill="#FFFFFF" enable-background="new    " d="M1116.8,748.2c0.2,0.3,0.5,0.6,0.7,0.8
		C1117.3,748.8,1117,748.5,1116.8,748.2z"/>
	<path opacity="0.5" fill="#FFFDFD" enable-background="new    " d="M1116.8,748.2c0.2,0.3,0.5,0.6,0.7,0.8
		C1117.3,748.8,1117,748.5,1116.8,748.2z"/>
	<path opacity="0.3" fill="#A9DFFF" enable-background="new    " d="M1195.8,705.6v-0.4l0,0l0,0V705.6z"/>
	<path opacity="0.5" fill="#C1B4B0" enable-background="new    " d="M1195.8,705.6v-0.4l0,0l0,0V705.6z"/>
	<path opacity="0.3" fill="#A9DFFF" enable-background="new    " d="M1189.1,740.2C1189.1,740.2,1189.1,740.1,1189.1,740.2
		c1.6-3.4,2.8-6.7,3.7-9.7C1191.9,733.6,1190.7,736.8,1189.1,740.2C1189.1,740.1,1189.1,740.1,1189.1,740.2z"/>
	<path opacity="0.5" fill="#C1B4B0" enable-background="new    " d="M1189.1,740.2C1189.1,740.2,1189.1,740.1,1189.1,740.2
		c1.6-3.4,2.8-6.7,3.7-9.7C1191.9,733.6,1190.7,736.8,1189.1,740.2C1189.1,740.1,1189.1,740.1,1189.1,740.2z"/>
	<g>
		<path fill="#932227" d="M1283.1,647.8c-6.9,4.3-13,5-13,5s-0.6-5.7-0.6-12.3c-2.8,0.7-5.3,1.3-6.9,1.3c-5.5,0-1.9,19.9-1.9,19.9
			c18.4-7.6,24.4-7.7,27.8-12.3c1.7-2.4,1.9-5,1.3-7.3C1288.3,643.7,1286.2,645.9,1283.1,647.8z"/>
		<path fill="#CE2828" d="M1283.1,647.8c3.1-1.9,5.2-4,6.6-5.8c-0.6-2.2-2-4-3.6-4.9c-2.2-1.2-10.2,1.5-16.6,3.3
			c0.1,6.6,0.6,12.3,0.6,12.3S1276.2,652,1283.1,647.8z"/>
	</g>
	<g>
		<path fill="#932227" d="M1067,654.8c-3,6.5-6.7,15-3,33.5c6.1,30.1,11,52.2,18.5,60.7s10.1,9.5,44.2,7.3s83-9.6,104-16.8
			c7.5-2.5,12.5-5,16-7.8l-3.9-1.5c-15.3,7.3-36.5,12.3-51.5,15.1c-21.7,4-87.8,13.5-97.1,6.7c-9.4-6.8-14.9-28.7-19.5-45
			s-4.5-31.2-3.2-43.8c0.8-7.8,1.8-11.8,7.9-17.4C1072.4,648.7,1068.7,651.3,1067,654.8z"/>
		<path fill="#CE2828" d="M1265.5,642.5c-0.5-17.4-7.4-20.9-35.2-21.4c-1.8,0-3.6-0.1-5.5-0.1c-32.4-0.2-93,6.9-118.8,15.5
			c-11.9,4-20.5,6.8-26.6,9.3c-6.1,5.6-7.1,9.6-7.9,17.4c-1.2,12.5-1.4,27.5,3.2,43.8s10.1,38.2,19.5,45s75.4-2.7,97.1-6.7
			c15-2.8,36.1-7.8,51.5-15.1c3.5-1.7,6.7-3.4,9.4-5.3c2-3.9,3.2-8.7,4.7-14.8C1260.9,694.1,1266,661,1265.5,642.5z M1257.5,662
			c-2.4,14.2-6.8,45.1-9.5,52.2c-1.7,4.5-2.7,7.5-6.2,10.1c-2,1.5-4.8,2.8-9.1,4.1c-11.8,3.7-48.6,12.8-89.3,15.8
			c-40.8,3.1-42.9,7-47.3-1.8s-12.2-24.2-17.7-59.7c-2.6-16.9-2.8-29,21.5-36.7c24.2-7.7,69.8-14.7,94.2-16.8
			c18.8-1.7,39.6-1.8,51.2,0.5c3.4,0.7,6.1,1.5,7.6,2.6C1259.8,637.2,1259.9,647.8,1257.5,662z"/>
		<path fill="#932227" d="M1246.7,731.7c2.5-2,4.2-4.2,5.6-6.8c-2.8,1.9-5.9,3.7-9.4,5.3L1246.7,731.7z"/>
		<path fill="#932227" d="M1248,714.2c2.7-7.1,7.1-37.9,9.5-52.2s2.3-24.8-4.7-29.7c-1.6-1.1-4.2-2-7.6-2.6c8,3.5,8.9,7.5,8.8,14.6
			c-0.1,10.5-1.1,27.3-3.8,43.5c-2.3,13.5-3.8,28.1-8.4,36.4C1245.3,721.7,1246.3,718.7,1248,714.2z"/>
	</g>
	<g>
		<path fill="#932227" d="M1000.7,685.9c0,0,0,0-0.5-4.2c-2.5,0-3.9,0-3.9,0l-1.1,7.1c0,0,67.9-0.8,69.6-0.9c1.4-0.1,1.9-1.4,1.8-3
			L1000.7,685.9z"/>
		<path fill="#CE2828" d="M1066.5,684.9c0-0.3-0.1-0.7-0.2-1.1c-0.6-2.1-0.9-2.1-6.1-2.1c-4.4,0-46.9,0-60.1,0
			c0.5,4.1,0.5,4.2,0.5,4.2L1066.5,684.9z"/>
	</g>
	<g>
		<path fill="#932227" d="M1072.7,709.9c-0.4-3.5-0.6-5-6.1-8.2c1.7,3,2.9,4.7,4.3,6.5c1.8,2.3,3,5.2-2.5,2.1
			c-5.5-3.1-20.2-12.1-40.7-9.7s-28.4,11.3-28.4,11.3s0-2.7,0-8.1c-1.8,1.3-3.3,2.8-4.6,4.4l-0.7,13.7c9.2-16.3,32.9-17.5,43.7-17.5
			s29,8.6,31.9,12.4S1073.1,713.7,1072.7,709.9z"/>
		<path fill="#CE2828" d="M1027.6,700.6c20.5-2.4,35.2,6.7,40.7,9.7c5.5,3.1,4.4,0.2,2.5-2.1c-1.4-1.8-2.6-3.5-4.3-6.5
			c-0.6-0.3-1.1-0.7-1.8-1c-7.3-3.9-17.5-7.8-30.5-7.8c-10.9,0-25.9,4-35,10.9c0,5.5,0,8.1,0,8.1S1007.2,703,1027.6,700.6z"/>
	</g>
	<g>
		<path fill="#932227" d="M957.5,647.7c19.7,10.5,21.4,9.5,25.4,21.5s3.3,23.8,2.2,42.1s-0.4,36.9-12.2,51l7-0.9
			c0,0,11.8-17,11.5-43.2s7.2-45.4-3.3-57.2S957.5,647.7,957.5,647.7z"/>
		<g>
			<path fill="none" d="M787.6,744.6c6.6,7.3,38.6,10.7,75.6,15.9s101,2.8,109.5,0s11.3-16.1,13.3-29.3s2.7-37.7,1.5-53.6
				s-10.6-22.1-29.6-28s-62.7-11.1-99.3-8.2s-72.8,16.3-79.7,20.1c-6.8,3.8-6.9,5.6-6.6,23.4C772.6,712.3,781,737.3,787.6,744.6z"/>
			<path fill="#CE2828" d="M764.4,668.4c-0.6,8,0.4,43.1,6,61.7c5.6,18.6,10.7,24.6,36.4,30.3s70.3,10.6,98.4,10.6
				c20.8,0,59.2-4.4,77.6-6.6c2.5-2,4-4.6,5.4-8.2c4.5-11.6,8.8-53.6,8.8-72s-3.6-27.4-17.2-34.2s-45.5-15.1-100.8-16.8
				c-48.2-1.4-91.4,12.9-106.7,18.3C765.1,658.1,764.8,663.5,764.4,668.4z M778.8,661.4c6.8-3.8,43-17.1,79.7-20.1
				s80.3,2.2,99.3,8.2s28.3,12.2,29.6,28s0.6,40.3-1.5,53.6c-2,13.2-4.9,26.5-13.3,29.3c-8.5,2.8-72.5,5.2-109.5,0
				s-69-8.6-75.6-15.9c-6.6-7.3-15-32.2-15.4-59.8C772,667,772,665.2,778.8,661.4z"/>
			<path fill="#932227" d="M755.5,689.5c0.9,25.4,5.4,47.4,13.3,57.4s40.8,18.1,69.5,21.8s68.4,6,104,3.3
				c24.7-1.9,35.1-3.1,40.6-7.6c-18.4,2.3-56.8,6.6-77.6,6.6c-28,0-72.7-4.9-98.4-10.6c-25.7-5.7-30.8-11.7-36.4-30.3
				c-5.6-18.6-6.6-53.8-6-61.7c0.4-4.9,0.7-10.3,7.9-16.9c-2.2,0.8-3.9,1.4-4.8,1.7C759.9,655.9,754.6,665.4,755.5,689.5z"/>
		</g>
	</g>
	<g>
		<path fill="#932227" d="M760.1,694.3c-0.2,3.5-1.1,8.1-1.1,8.1c-12.7-0.5-25.9-3.1-25.9-3.1v-3.8l-95.4-14.4c0,0-0.6,1.7-2.5,2.1
			c-1.8,0.4-6.6-1.9-15.1-2s-11.9-0.3-15.6,5.8c-3.7,6.1-7.3,16.8-11.7,21.7s-8.1,7-12.2,2.2c-4-4.8-3.8-11.5-0.6-22.7
			c0-0.2,0.1-0.4,0.1-0.6c3.3-11.6,12-20.5,25.2-21.6c8.1-0.7,18.1,1.1,29.4,3.3c0.4,0.1,0.7,0.1,1.1,0.2c6.7,1.3,13.9,2.6,21.4,3.6
			c17.3,2.2,56.1,7.6,70.4,10.3c2.9,0.5,4.5,0.9,4.5,0.9s0.8,0,2.1,0h20.1c3.1,0,4.7,3,5.4,6C760,691.7,760.1,693.2,760.1,694.3z"/>
	</g>
	<path fill="#CE2828" d="M738.3,696.3c6.1,1.1,19.8,1.6,19.8,1.6s1.3-3.4,1.6-7.8c-0.7-3-2.2-6-5.4-6c-3.7,0-15.4,0-20.1,0
		C733.5,690.9,733.6,695.5,738.3,696.3z"/>
	<path fill="#CE2828" d="M635.1,678.2c2.1,0.7,41.8,6.1,59,8.2s34.6,5.6,34.6,5.6l-1.1-8.7c0,0-53-8.1-70.3-10.3
		c-7.6-0.9-14.7-2.3-21.5-3.6C633.9,673,633.3,677.6,635.1,678.2z"/>
	<path fill="#CE2828" d="M585.6,708c5.5,1.8,9.7-9.9,12.9-17s8.4-13.1,17.4-13.2c9-0.2,17.7,2.4,17.7,2.4c-1.1-2.1-1.2-5.7,1.1-11
		c-11.3-2.2-21.3-4-29.4-3.3c-13.2,1.2-21.9,10.1-25.2,21.6c0,0.2-0.1,0.4-0.1,0.6C578.5,702.6,581.4,706.7,585.6,708z"/>
	<g>
		<path opacity="0.5" fill="#FFFDFD" enable-background="new    " d="M632.4,676.1c0.5-1.6,0.3-3.4,1-4.8c0.1-0.2-0.2-0.5-0.3-0.2
			c-0.6,1.5-1.5,3.3-0.9,5.1C632.2,676.2,632.4,676.1,632.4,676.1L632.4,676.1z"/>
		<path opacity="0.5" fill="#FFFDFD" enable-background="new    " d="M641.9,672.6c13.1,3.5,26.7,4.2,40.1,5.8
			c13.6,1.7,27.1,4.4,40.6,6.8c-6-1.9-12.1-3-18.3-4.3c-6.7-1.4-13.6-2.6-20.3-3.3C670,676.4,655.9,674.2,641.9,672.6L641.9,672.6z"
			/>
		<path opacity="0.5" fill="#FFFDFD" enable-background="new    " d="M743.1,688.3c2.6,0.7,4.6,0,7.2-0.2c2.7-0.2,3.9,0.9,6.1,2.2
			c0.5,0.3,1-0.2,0.9-0.7c-1.1-5.2-11.1-1.8-14.1-1.8C742.9,687.9,742.9,688.2,743.1,688.3L743.1,688.3z"/>
		<path opacity="0.5" fill="#FFFDFD" enable-background="new    " d="M867,635.6c26.2-0.9,52.3,2.1,78,7.3
			c11.8,2.4,24.4,4.7,35.1,10.5c6.7,3.7,10.5,7.9,11.4,15.7c0.7,5.6,0.8,11.4,1.9,17c0.1,0.5,0.9,0.4,0.9-0.1
			c0-6.3-0.7-13.1-1.9-19.2c-0.9-4.4-2.7-8-6.3-10.7c-9.6-7.5-22.4-10.5-34-13.1c-27.9-6.3-56.5-9.7-85-7.7
			C866.7,635.2,866.7,635.7,867,635.6L867,635.6z"/>
		<path opacity="0.5" fill="#FFFDFD" enable-background="new    " d="M1014.9,684.2c13.6,0.8,27.2,0.6,40.8,0.1c0.6,0,0.6-0.9,0-0.9
			c-13.6-0.2-27.2-0.3-40.8,0.4C1014.6,683.8,1014.6,684.2,1014.9,684.2L1014.9,684.2z"/>
		<path opacity="0.5" fill="#FFFDFD" enable-background="new    " d="M1014.4,700c7.1-2.6,15.9-2.7,23.4-2.8
			c7.6,0,14.2,2.6,21.4,4.6c0.3,0.1,0.6-0.4,0.2-0.6c-6.6-3.3-13.4-5.6-20.7-5.7c-8.7-0.2-16.2,2.1-24.6,3.6
			C1013.5,699.2,1013.8,700.3,1014.4,700L1014.4,700z"/>
		<path opacity="0.5" fill="#FFFDFD" enable-background="new    " d="M1163.8,627.6c10.4-0.1,20.9-1.6,31.3-2.3
			c10.1-0.6,20.3-1,30.4-0.8c4.9,0.1,9.8,0.4,14.7,0.8c4.9,0.4,10.8,0.4,15.1,3.2c4.7,3.1,5.9,10.1,6.8,15.3
			c1,5.4,1.5,11.4,0.1,16.7c-0.1,0.4,0.5,0.6,0.6,0.2c3.1-9.4,2.6-19.4-1.6-28.5c-4.1-8.6-14.7-8.5-22.9-9.1
			c-12.4-0.8-24.8-0.6-37.2,0.2c-12.3,0.7-25.2,1.4-37.3,3.8C1163.5,627.2,1163.5,627.6,1163.8,627.6L1163.8,627.6z"/>
		<path opacity="0.5" fill="#FFFDFD" enable-background="new    " d="M1275.1,641.6c1.8-0.5,3.4-1.2,5.2-1.6c1.2-0.3,2.2-0.4,3.4,0
			c1.2,0.4,1.7,1.2,2.6,2c0.7,0.6,2.1,0.1,1.7-1c-2.2-5.7-9.5-2-13.4-0.3C1274.1,640.8,1274.5,641.7,1275.1,641.6L1275.1,641.6z"/>
	</g>
</g>
</svg>
