<?xml version="1.0" encoding="utf-8"?>
<!-- Generator: Adobe Illustrator 22.1.0, SVG Export Plug-In . SVG Version: 6.00 Build 0)  -->
<svg version="1.1" id="_x30_8_x5F_Eyewear_x5F_Monocle"
	 xmlns="http://www.w3.org/2000/svg" xmlns:xlink="http://www.w3.org/1999/xlink" x="0px" y="0px" viewBox="0 0 2000 2000"
	 enable-background="new 0 0 2000 2000" xml:space="preserve">
<g>
	<g>
		<path fill="#494C51" d="M843.5,589.8c-29.8,37.4-31.4,57.1-31.8,81.7s8.5,56.1,30.2,70.8s36.5,22.3,70.8,23.9l-2.5,7.9
			c0,0-26.2,3.6-48-6.5c-21.8-10.1-51.6-31.4-57.5-65.2s-10.8-68.3,3.4-84.7C822.2,601.1,843.5,589.8,843.5,589.8z"/>
		<g>
			<path fill="#494C51" d="M1005.8,670.1c-5.8-77.2-47.4-109.3-105.2-109.3c-0.6,0-1.1,0-1.7,0c-54.4,0.7-112.7,33.5-111.9,112.4
				c0.8,75.1,58.5,104.5,106,107.5c2.3,0.2,4.6,0.2,6.9,0.3h0.2C981.9,781.8,1010.3,731.2,1005.8,670.1z M902.7,766.1
				c-0.8,0-1.6,0-2.5-0.1c-45.5-1.6-90.5-27.4-91.2-93.9c-0.7-67.3,46.9-95.6,91.5-96.5c0.8,0,1.5,0,2.3,0c47.8,0,82.2,27.6,87,93.9
				C993.5,722.1,970.3,767.2,902.7,766.1z"/>
		</g>
		<path fill="#494C51" d="M899.6,573.8c46.2,10.5,55.5,23,65.3,37.4c9.8,14.4,20.2,42,19.1,71.8s-9.6,43.8-15.3,51.8
			c-5.7,8-17.6,31.2-77.9,31.4l0.7,5.9c0,0,48,12.4,73.9-18.6c25.9-31,41.9-38.9,30.4-106.6c-11.5-67.7-81.6-77.7-81.6-77.7
			L899.6,573.8z"/>
		<path opacity="0.3" fill="#A9DFFF" d="M988,668.3c-3.7-29.9-8.3-45.1-18.7-59.5c-10.4-14.4-26.3-30.5-75.4-35.2
			c-49.1-4.7-71.6,36.2-71.6,36.2s-24.5,17.6-18.8,64.8s17.5,71,46.3,85.1c28.8,14.1,68.5,16.2,89.3,8.3s36.5-29.7,41.9-47.9
			C986.4,702,990.2,685.8,988,668.3z"/>
		<path fill="#646464" d="M1005.8,670.1c-5.8-77.2-47.4-109.3-105.2-109.3c-0.6,0-1.1,0-1.7,0c-48.6,6.2-103,33.5-102.3,112.4
			c0.7,73.7,60.1,103.2,96.4,107.5c2.3,0.2,4.6,0.2,6.9,0.3h0.2C981.9,781.8,1010.3,731.2,1005.8,670.1z M902.7,766.1
			c-0.8,0-1.6,0-2.5-0.1c-45.5-1.6-90.5-27.4-91.2-93.9c-0.7-67.3,46.9-95.6,91.5-96.5c0.8,0,1.5,0,2.3,0c47.8,0,82.2,27.6,87,93.9
			C993.5,722.1,970.3,767.2,902.7,766.1z"/>
		<path opacity="0.4" fill="#FFFFFF" d="M937.7,604.2c0,0-87.6,95.8-106.8,127.8c0,0,10.8,13.3,26.1,19.2l104.5-121.8
			C961.5,629.5,957.8,612,937.7,604.2z"/>
		<path opacity="0.4" fill="#FFFFFF" d="M963.5,635.8c0,0-66.6,76.2-94.5,117.7l8.3,2l91.2-111.9L963.5,635.8z"/>
		<polygon opacity="0.4" fill="#FFFFFF" points="912.8,592.9 822.9,720.1 820.6,715.4 908.3,591.8 		"/>
	</g>
	<g>
		<g>
			<g>
				<g>
					<g>
						<path fill="#B48140" d="M770.8,656.6c0-0.2,0-0.4,0-0.4S770.8,656.4,770.8,656.6s0,0.4,0,0.4S770.8,656.8,770.8,656.6z"/>
						<g>
							<path fill="#494C51" d="M772.4,656.2c-6.1,0-10.7,3.2-13.5,8c-1.9,3.1-2.9,6.9-3.2,10.8c-0.6,12.1,7,18,15.7,18
								c8.6,0,15.1-8.1,15.7-18c0-0.3,0-0.6,0-0.9C787.4,662.5,780.8,656.2,772.4,656.2z M774.1,664.7c4.5,0,7.6,4.1,7.6,9.9
								s-4.2,10.5-8.8,10.5c-4.5,0-7.3-3.7-7.3-9.4S768.8,664.7,774.1,664.7z"/>
						</g>
						<g>
							<path fill="#646464" d="M787.1,673.2c0-3.6-0.7-6.7-1.9-9.2c-2.5-5.1-7.2-7.8-12.7-7.8c-6.1,0-10.7,3.2-13.5,8
								c-0.8,2.3-1.2,4.7-1.4,7.2c-0.6,12.1,6.7,18,14.9,18c7.5,0,13.2-6.7,14.6-15.3C787.1,673.8,787.1,673.5,787.1,673.2z
								 M772.9,685.1c-4.5,0-7.3-3.7-7.3-9.4c0-1.3,0.2-2.5,0.5-3.7c1.1-4.1,3.9-7.3,8-7.3c4.1,0,7,3.4,7.5,8.3
								c0.1,0.5,0.1,1.1,0.1,1.6C781.7,680.4,777.4,685.1,772.9,685.1z"/>
						</g>
						<path fill="#494C51" d="M782.9,666c-3.1,1.6-0.6-4.7-7.2-4.4s-8.8,2-9.6,10.4l0,0c1.1-4.1,3.9-7.3,8-7.3c4.1,0,7,3.4,7.5,8.3
							l5.5,0.2c0-3.6-0.7-6.7-1.9-9.2C784.7,664.8,784,665.5,782.9,666z"/>
					</g>
					<path fill="#949494" d="M763.1,676.9c-0.2,3.2,1.6,8.9,5.6,9.1c0.5,0,0.6-0.6,0.2-0.9c-1.4-1-2.6-1.6-3.6-3.1
						c-1-1.6-1.2-3.4-1.8-5.2C763.5,676.6,763.1,676.6,763.1,676.9L763.1,676.9z"/>
					<g>
						<path fill="#FEB04B" d="M960,1012.3c0.4,0.6,0.9,1.2,1.2,1.7C961,1013.3,960.6,1012.7,960,1012.3z"/>
						<path fill="#FEB04B" d="M949.6,1025.5c1.5-0.8,2.9-1.8,4.2-3.1c2.5-2.5,5.5-6.5,3.8-10.2c-0.1-0.2-0.1-0.3-0.1-0.5
							c-0.4,0.1-0.7,0.2-1,0.3c-2.6,1.5-4.6,4-6.8,5.9c-2.4,2.1-4.7,4.3-5.7,7.4c-0.3,1.1,0.4,2.2,1.4,2.5
							C946.6,1026.7,948.2,1026.3,949.6,1025.5z"/>
						<path fill="#B48140" d="M960,1012.3c-0.2-0.3-0.5-0.6-0.7-1c-0.6-0.9-1.7-0.4-1.7,0.5C958.4,1011.6,959.3,1011.8,960,1012.3z"
							/>
						<path fill="#B48140" d="M955.7,1023.3c2.7-2.4,5.2-4.8,5.5-8.6c0-0.3,0-0.5,0-0.8c-0.3-0.6-0.8-1.1-1.2-1.7
							c-0.7-0.5-1.6-0.7-2.4-0.5c0,0.1,0,0.3,0.1,0.5c1.7,3.7-1.3,7.8-3.8,10.2c-1.3,1.2-2.7,2.2-4.2,3.1c-1.5,0.8-3,1.2-4.2,2.4
							c0.2,0.1,0.4,0.1,0.6,0.1C949.8,1028.1,953,1025.7,955.7,1023.3z"/>
						<path fill="#FEB04B" d="M961.3,1012.2c0.8-0.9,1.2-2,1.9-3c0.4-0.5,0.8-1,1.2-1.5c0.8-1.2,1.8-2.4,2.6-3.6
							c0.5-0.8,1.4-1,2-0.8c-0.1-0.8-1.1-1.5-1.9-1.2c-0.9,0.3-1.3,0.7-1.9,1.4c-0.7,0.8-1.5,1.5-2.3,2.3c-1.4,1.5-2.5,3.1-3.6,4.8
							c-0.8,1.2,0.6,2.8,1.9,2.4C961,1012.7,961,1012.4,961.3,1012.2z"/>
						<path fill="#B48140" d="M966.1,1008.6c1.1-1.4,2.7-3.2,2.9-5c0-0.1,0-0.2,0-0.2c-0.7-0.2-1.5-0.1-2,0.8
							c-0.8,1.2-1.7,2.4-2.6,3.6c-0.4,0.5-0.8,1-1.2,1.5c-0.7,1-1,2.1-1.9,3c-0.2,0.3-0.3,0.5-0.2,0.8c0.1,0,0.2-0.1,0.3-0.2
							C963.2,1011.5,964.7,1010.3,966.1,1008.6z"/>
						<path fill="#FEB04B" d="M974.1,996.3c1.8-2.4,4.8-8.1,2.3-11c-0.2-0.2-0.3-0.5-0.3-0.7c-0.4,0.1-0.8,0.3-1.1,0.6
							c-2.2,1.9-3.7,5-5.2,7.5c-1.5,2.5-3.5,5.1-4.2,8c-0.4,1.6,0.6,3.1,2,3.6c0-0.3,0.1-0.5,0.2-0.8
							C969.1,1000.5,972.2,998.8,974.1,996.3z"/>
						<path fill="#B48140" d="M970.1,1004c2.7-1.8,4.7-4.8,6.4-7.5c1.8-2.7,3.6-5.8,3.9-9.1c0.2-2.4-2.3-3.4-4.2-2.8
							c0,0.2,0.1,0.5,0.3,0.7c2.5,2.9-0.5,8.7-2.3,11c-1.9,2.5-5,4.2-6.3,7.1c-0.1,0.2-0.2,0.5-0.2,0.8
							C968.4,1004.5,969.3,1004.5,970.1,1004z"/>
						<path fill="#FEB04B" d="M982.6,973.2c1.9,1.9,3-2.9,3.3-4.3c0.3-1.5,0.3-3,0.7-4.5c0.4-1.9,1.6-3.5,3.3-4.5
							c-1.1-2-4.1-2.8-5.5-0.3c-1.4,2.6-1.4,5.9-2.3,8.8c-0.4,1.3-1,2.7-1.4,4.1C981.3,972.4,982,972.6,982.6,973.2z"/>
						<path fill="#B48140" d="M980.4,976.4c0.4,1.3,1.7,1.6,2.8,1.1c2.5-1.1,3.6-4.7,4.5-7.1c1-2.7,2.8-6.4,2.5-9.3
							c0-0.5-0.2-0.9-0.4-1.3c-1.7,1-2.8,2.5-3.3,4.5c-0.3,1.5-0.3,3-0.7,4.5c-0.3,1.4-1.4,6.2-3.3,4.3c-0.6-0.6-1.3-0.8-1.9-0.6
							C980.3,973.9,980.1,975.2,980.4,976.4z"/>
						<path fill="#B48140" d="M980.7,985.1c0,0.1,0,0.1,0,0.2c0,0.2,0.3,0.3,0.4,0.1c0,0,0-0.1,0.1-0.1
							C981.3,984.9,980.7,984.7,980.7,985.1L980.7,985.1z"/>
						<path fill="#FEB04B" d="M980,981.9c0.7-1.4,1.3-3.3,2.5-4.3c0,0,0,0,0.1,0c0,0,0-0.1-0.1-0.1c-0.3-0.4-0.8-0.7-1.3-0.5
							c-0.1,0-0.2,0.1-0.2,0.1c-0.6,0.2-1.2,0.8-1.1,1.5c0.1,1-0.7,2.1-1.2,2.9c-0.5,0.8-1,1.7-1.2,2.6c-0.3,1.1,0.9,1.9,1.8,1.4
							C978.9,984.2,979.3,983,980,981.9z"/>
						<path fill="#B48140" d="M981.2,982.5c0.3-0.8,0.6-2.3,1.2-2.9c0.5-0.4,0.6-1.3,0.2-1.9c0-0.1-0.1-0.1-0.1-0.2c0,0,0,0-0.1,0
							c-1.2,1-1.7,3-2.5,4.3c-0.6,1.1-1.1,2.3-0.8,3.5c0.1-0.1,0.2-0.1,0.3-0.2C980.2,984.5,980.8,983.4,981.2,982.5z"/>
						<path fill="#FEB04B" d="M769.2,693.9c0.6,1.3,1.8,1,2.8,0.5c0.3-0.1,0.5-0.3,0.7-0.5c1.2-4.1,2.9-10.1-1.3-12.3
							c-1.4-0.7-3.1,0.5-2.7,2.1c0.3,1,0.1,2.3,0,3.4c0.3,1.3,0.3,2.7,0.3,3.9C769,691.8,768.8,693.1,769.2,693.9z"/>
						<path fill="#B48140" d="M767.7,694.3c-0.7,2.9,3.6,4.1,4.4,1.2c0.1-0.5,0.3-1,0.5-1.6c-0.2,0.2-0.5,0.3-0.7,0.5
							c-1,0.5-2.2,0.8-2.8-0.5c-0.3-0.8-0.1-2-0.2-2.9c0-1.2-0.1-2.6-0.3-3.9c0,0.4-0.1,0.8-0.1,1.2
							C768.5,690.4,768.2,692.3,767.7,694.3z"/>
						<path fill="#FEB04B" d="M766.3,701.9c-0.4,1.8-3.7,11.8,3.1,9c0.1,0,0.1-0.1,0.2-0.1c0.2-1.7,0.2-3.5,0.6-5.2
							c0.4-2.4,1-4.7,1.3-7.1c0.1-1-0.7-2.2-1.5-2.6c-0.2-0.1-0.4-0.2-0.6-0.3c0,0-0.1,0-0.1,0c-1.1-0.4-2.2,0.1-2.9,0.8
							C767,698,766.8,699.9,766.3,701.9z"/>
						<path fill="#B48140" d="M765.9,697c-3,4.2-4.3,10.9-3.3,15.9c0.7,3.3,5.9,3.3,6.6,0c0.2-0.7,0.3-1.4,0.3-2.1
							c-0.1,0-0.1,0.1-0.2,0.1c-6.8,2.8-3.6-7.2-3.1-9c0.5-2,0.6-3.8,0-5.4C766.2,696.6,766,696.8,765.9,697z"/>
						<path fill="#FEB04B" d="M764.9,719.8c0,1.5-0.1,2.9,1.7,2.3c0.1-0.7,0.2-1.4,0.4-2.1c0.2-1.4,0.2-2.6,0.2-4
							c0-1.1-1.2-1.5-2-1.1C765.2,716.5,764.9,718.1,764.9,719.8z"/>
						<path fill="#B48140" d="M764.6,715.6c-0.3,1.2-0.8,2.4-1.1,3.7c-0.3,1.3-0.5,2.6-0.7,3.9c-0.3,2.2,3,3.2,3.4,0.9
							c0.1-0.7,0.2-1.4,0.4-2.1c-1.8,0.6-1.8-0.8-1.7-2.3c0-1.6,0.4-3.3,0.3-4.9C764.9,715,764.7,715.3,764.6,715.6z"/>
						<path fill="#FEB04B" d="M761.8,738.2c0.8,2.4,3,2.9,4.6,1.3c0-2,0-4.1-0.1-6.1c0-2-0.7-4.6-0.4-6.4c0.4-2.3-2.3-4.2-4.1-2.4
							c-0.5,0.5-0.8,1-1.1,1.5c0.9,1.6,1.2,3.4,1.2,5.6C761.9,733.5,761.2,736.4,761.8,738.2z"/>
						<path fill="#B48140" d="M759.8,741.1c0,4.3,6.7,4.3,6.7,0c0-0.5,0-1.1,0-1.6c-1.6,1.6-3.8,1-4.6-1.3c-0.6-1.8,0.1-4.6,0.1-6.5
							c0-2.1-0.2-4-1.2-5.6c-0.9,1.7-1,3.5-1,5.6C759.7,734.8,759.8,738,759.8,741.1z"/>
						<path fill="#FEB04B" d="M762.8,748.5c-0.1,0.9-0.5,2.3-0.3,3.2c0.1,0.2,0.1,0.4,0,0.5c0.1,0,0.2,0,0.3,0
							c0.8,0.1,1.3-0.2,1.7-0.6c0.1-1,0.2-2,0.2-3c0.1-1.5,0.3-3.2-0.6-4.4c-0.4-0.6-1.4-0.9-1.9-0.2c-0.2,0.2-0.3,0.4-0.4,0.7
							C762.7,745.5,762.9,746.9,762.8,748.5z"/>
						<path fill="#B48140" d="M760.9,753.7c-0.1,2.3,3.5,2.3,3.6,0c0-0.7,0.1-1.5,0.1-2.2c-0.4,0.4-1,0.8-1.7,0.6
							c-0.2,0-0.2,0-0.3,0c-0.1,0.2-0.2,0,0,0c0-0.1,0-0.2,0-0.5c-0.2-0.9,0.2-2.3,0.3-3.2c0.1-1.6-0.2-3-0.9-4
							C760.5,747,761,751,760.9,753.7z"/>
						<path fill="#B48140" d="M762.6,752.1C762.3,752.2,762.5,752.3,762.6,752.1L762.6,752.1z"/>
						<path fill="#FEB04B" d="M760.2,759.7c-0.1,2-0.7,5.5,0,7.4c0.7,1.9,3.2,3.4,5.1,2c0.2-0.1,0.3-0.3,0.5-0.5
							c0-2.5-0.3-5-0.6-7.5c-0.3-2.3-0.3-4.6-2-6.4c-0.8-0.9-2.2-0.8-3.1,0c-0.2,0.2-0.4,0.4-0.6,0.6
							C760.2,756.4,760.3,757.6,760.2,759.7z"/>
						<path fill="#B48140" d="M758.6,769c-0.2,4.7,7.2,4.7,7.3,0c0-0.1,0-0.2,0-0.4c-0.2,0.2-0.3,0.4-0.5,0.5c-2,1.4-4.5-0.1-5.1-2
							c-0.7-1.9-0.1-5.4,0-7.4c0.1-2.2-0.1-3.4-0.7-4.3C756.7,758.8,758.7,765,758.6,769z"/>
						<path fill="#FEB04B" d="M762.6,778.5c0.5,0.2,0.9,0,1.4-0.2c0-2-0.3-3.8-0.7-5.8c-0.2-1.3-2.2-1.5-2.9-0.5
							c0.6,0.8,1,1.8,1.2,2.7C761.7,775.8,761.4,778.1,762.6,778.5z"/>
						<path fill="#B48140" d="M760.1,772.5c-0.4,2.1-0.7,4.2-0.7,6.4c0.1,2.9,4.4,2.9,4.5,0c0-0.2,0-0.4,0-0.6
							c-0.4,0.3-0.9,0.4-1.4,0.2c-1.2-0.4-0.8-2.7-1.1-3.8c-0.2-0.9-0.6-1.9-1.2-2.7C760.2,772.1,760.2,772.3,760.1,772.5z"/>
						<path fill="#FEB04B" d="M765.5,796.8c0.5-2.5,0.5-5,0.3-7.6c-0.2-3.2,0.1-6.9-2.8-8.7c-0.6-0.4-1.7-0.5-2.4,0
							c-0.8,0.6-1.4,1.3-1.7,2.1c1.8,2.7,1.2,6.4,1.5,9.9C760.8,796.1,762.3,797.8,765.5,796.8z"/>
						<path fill="#B48140" d="M758.3,789.2c0.1,3.5,0.4,7.3,2.4,10.3c0.8,1.3,3.2,1.7,4,0c0.4-0.9,0.7-1.8,0.9-2.7
							c-3.2,1-4.7-0.7-5-4.3c-0.3-3.5,0.3-7.2-1.5-9.9C758,784.5,758.2,786.9,758.3,789.2z"/>
						<path fill="#FEB04B" d="M761.6,805.7c0.4,0.3,0.5,0.3,1,0.4c0.1,0,1.6-0.2,0.9,0.3c0.2-0.2,0.4-0.4,0.6-0.6
							c-0.1-0.6-0.2-1.1-0.3-1.7c-0.1-1.2-0.2-2.8-1.2-3.6c-0.3-0.2-0.6-0.3-0.9-0.1c-1,0.5-1.4,1.6-1.6,2.8
							c0.1,0.1,0.1,0.2,0.2,0.3C760.7,804.2,761,805.1,761.6,805.7z"/>
						<path fill="#B48140" d="M761.4,809.4c0.9,0.9,2.6,0.5,2.9-0.8c0.2-0.9,0.1-1.9-0.1-2.8c-0.2,0.2-0.3,0.4-0.6,0.6
							c0.7-0.5-0.8-0.3-0.9-0.3c-0.5-0.1-0.6,0-1-0.4c-0.7-0.6-0.9-1.5-1.3-2.3c-0.1-0.1-0.1-0.2-0.2-0.3c-0.1,0.4-0.1,0.9-0.1,1.3
							C760.1,806,760.1,808.1,761.4,809.4z"/>
						<path fill="#FEB04B" d="M763.1,823.9c1.3,0.9,2.6,0.5,3.6-0.3c-0.3-2.6-0.6-5.2-0.8-7.8c-0.2-2.4,0.2-5.2-1.9-6.8
							c-0.7-0.5-1.8-1-2.6-0.3c-0.9,0.7-1.4,1.4-1.7,2.1c1.4,2,1.8,3.8,2,6.6C761.9,819.2,761.4,822.7,763.1,823.9z"/>
						<path fill="#B48140" d="M759.2,815.8c0,3.3,0.2,6.5,0.7,9.7c0.2,1.7,2,2.4,3.4,2.6c0.7,0.1,1.2-0.2,1.8-0.5
							c1-0.4,1.9-2,1.8-3.1c0-0.3-0.1-0.6-0.1-1c-1,0.8-2.3,1.2-3.6,0.3c-1.7-1.2-1.2-4.7-1.4-6.5c-0.2-2.8-0.6-4.6-2-6.6
							C759.1,812.2,759.2,813.9,759.2,815.8z"/>
						<path fill="#FEB04B" d="M763,833.2c0,1.5-0.8,3.8,0.9,4.5c0.6,0.3,1.1,0.2,1.5,0.1c0.5-3,0.6-7.1-0.9-9.7c-0.6-1-2-0.9-2.6,0
							c-0.1,0.1-0.1,0.3-0.2,0.4C762.8,829.6,763,831.6,763,833.2z"/>
						<path fill="#B48140" d="M759.4,830.9c-0.3-0.2-0.6-0.5-0.9-0.7c0,0.1,0.1,0.2,0.1,0.3c0.1,0.1,0.3,0.2,0.4,0.2
							C759.1,830.8,759.3,830.9,759.4,830.9z"/>
						<path fill="#B48140" d="M761.4,838.8c0.5,1.8,3.5,2,3.8,0c0.1-0.3,0.1-0.6,0.2-1c-0.4,0.2-0.9,0.2-1.5-0.1
							c-1.6-0.7-0.9-3-0.9-4.5c0-1.7-0.2-3.7-1.3-4.7C760.3,831.4,760.7,835.9,761.4,838.8z"/>
						<path fill="#FEB04B" d="M763.5,858.6c1.3,1.5,3,1.7,4.7,1.4c0.1-0.4,0.1-0.9-0.1-1.4c-1.1-3.3-0.8-6.9-0.9-10.3
							c-0.1-3.1,0.2-6.5-2.2-8.7c-0.9-0.9-2.5-1-3.4,0c-0.4,0.5-0.8,1-1,1.5c1.5,2,1.4,5.1,1.5,7.6
							C762,851.6,761.5,856.2,763.5,858.6z"/>
						<path fill="#B48140" d="M760,850.4c0.2,3.8,0.6,7.2,2.1,10.7c1.2,2.9,5.6,1.5,6.1-1.2c-1.7,0.3-3.4,0.1-4.7-1.4
							c-2-2.4-1.5-7-1.5-9.9c-0.1-2.5,0-5.6-1.5-7.6C759.2,843.9,759.9,847.4,760,850.4z"/>
						<path fill="#FEB04B" d="M764.7,866.4c0.4,0.9,0.4,2.5,1,3.2c0.5,0.6,1.1,0.6,1.7,0.3c0,0,0-0.1,0-0.1c0-2.3-0.5-4.5-0.4-6.9
							c0.1-2-3.3-2.5-3.6-0.5c-0.1,0.6-0.2,1.2-0.2,1.9C763.8,864.9,764.3,865.6,764.7,866.4z"/>
						<path fill="#B48140" d="M764,870.8c0.7,1.7,3.3,0.8,3.4-0.8c-0.6,0.3-1.2,0.3-1.7-0.3c-0.6-0.7-0.6-2.3-1-3.2
							c-0.4-0.8-0.9-1.5-1.5-2C763,866.6,763.2,868.8,764,870.8z"/>
						<path fill="#FEB04B" d="M766.2,886.5c1.5,2.5,3.3,2.3,5.2,1.4c-0.4-2.4-0.8-4.8-1.1-7.3c-0.3-2.9-0.1-6.1-1.8-8.6
							c-1.2-1.8-3.9-2-5,0c-0.3,0.5-0.5,1.1-0.7,1.7c1,1.6,1.5,3.4,1.9,5.7C765,881.7,765.1,884.5,766.2,886.5z"/>
						<path fill="#B48140" d="M762.6,881.8c0.4,3.3,1,6.8,2.8,9.7c1.6,2.6,6.6,1.8,6.2-1.7c-0.1-0.6-0.2-1.3-0.3-1.9
							c-1.9,0.9-3.6,1.1-5.2-1.4c-1.2-2-1.3-4.8-1.6-7c-0.4-2.3-0.9-4.1-1.9-5.7C762,876.3,762.3,879.2,762.6,881.8z"/>
						<path fill="#FEB04B" d="M768.7,897.2c0.8,0,1.6-0.6,2.3-1c-0.3-1.1-0.7-2.1-0.8-3.2c-0.3-2-3.8-1.6-3.6,0.5
							c0.1,0.6,0.1,1.2,0.2,1.8c0,0,0,0,0,0C767.3,896.2,767.6,897.2,768.7,897.2z"/>
						<path fill="#B48140" d="M768.7,900.5c0.1,0,0.1,0,0.2,0.1c0.6,0.2,1.4,0,1.9-0.5c0.1-0.1,0.1-0.1,0.2-0.2
							c0.5-0.6,0.8-1.4,0.6-2.2c-0.2-0.5-0.3-1-0.5-1.5c-0.8,0.4-1.5,1-2.3,1c-1.2,0-1.5-1-1.9-1.9c0,0,0,0,0,0c0.1,1,0.1,2,0.3,3
							C767.2,899.4,767.7,900.1,768.7,900.5z"/>
						<path fill="#FEB04B" d="M769.9,905.6c0.3,2.2,0.5,4.5,1.1,6.7c0.4,1.5,2.6,7,4.5,4.2c0.3-0.5,0.8-0.9,1.2-1.1
							c-1.1-5-0.9-11.2-4-15.2c-1.4-1.8-4.1-1.9-5.1,0.2C768.9,901.7,769.6,903.7,769.9,905.6z"/>
						<path fill="#B48140" d="M767.9,909.6c0.5,3.1,1.1,6.2,2.1,9.1c0.5,1.6,1.9,2.7,3.6,2.7c1.1,0,1.8-0.3,2.6-1.1
							c0.9-0.9,1.3-2.3,0.9-3.6c-0.1-0.5-0.3-0.9-0.4-1.4c-0.5,0.2-0.9,0.6-1.2,1.1c-1.9,2.8-4.1-2.7-4.5-4.2
							c-0.6-2.2-0.8-4.5-1.1-6.7c-0.3-1.9-1-3.9-2.2-5.2c-0.1,0.1-0.1,0.3-0.2,0.4C766.6,903.8,767.4,906.7,767.9,909.6z"/>
						<path fill="#FEB04B" d="M775.6,925.1c0,0.7-0.2,3.4,0.5,3.8c0.6,0.3,1.5-0.2,2.3-0.8c-0.7-3.1-2-9-4.3-7.2
							c-0.2,0.2-0.3,0.4-0.5,0.6C774.7,922.2,775.5,923.4,775.6,925.1z"/>
						<path fill="#B48140" d="M773.5,925.1c0.3,1.9,0.7,3.8,1.1,5.7c0.5,2.6,4.9,1.5,4.1-1.1c-0.1-0.3-0.2-0.8-0.4-1.6
							c-0.7,0.5-1.7,1.1-2.3,0.8c-0.7-0.4-0.4-3.1-0.5-3.8c-0.1-1.7-0.9-2.9-2-3.6C773,922.5,773.3,924,773.5,925.1z"/>
						<path fill="#FEB04B" d="M785.9,948.9c-0.9-2.9-2.2-5.8-2.9-8.9c-0.7-3.4-1.2-6.9-3.9-9.2c-2-1.7-4.7-0.6-5,2
							c1.7,1.7,2.5,4.2,3.5,6.8C778.8,943,781.9,954.6,785.9,948.9z"/>
						<path fill="#B48140" d="M781.7,953.5c2.2,1.7,5.3,0.2,4.7-2.7c-0.1-0.6-0.3-1.2-0.5-1.8c-4,5.7-7.1-5.9-8.3-9.3
							c-1-2.6-1.7-5.1-3.5-6.8c0,0,0,0,0,0.1C773.6,939.4,776.4,949.2,781.7,953.5z"/>
						<path fill="#FEB04B" d="M786.6,958.3c0.4,0.5,0.2,0.5,0.9,0.3c0.5-0.1,1-0.6,1.4-0.9c0.1,0,0.1-0.1,0.2-0.1
							c-0.9-1.3-1.7-2.7-2.3-4.1c-0.3-0.5-1-1-1.6-0.9c-0.3,0-0.6,0.1-0.9,0.2c0,0-0.1,0-0.1,0c-0.5,0.2-1,1.1-0.9,1.6c0,0,0,0,0,0
							c0.4,0.3,0.8,0.6,1.2,0.9C785.2,956.4,785.8,957.4,786.6,958.3z"/>
						<path fill="#B48140" d="M785.1,960.4c1.6,2.6,5.8,0.1,4.1-2.4c-0.1-0.1-0.1-0.2-0.2-0.3c-0.1,0-0.1,0.1-0.2,0.1
							c-0.4,0.3-0.9,0.7-1.4,0.9c-0.7,0.2-0.4,0.1-0.9-0.3c-0.8-0.9-1.3-2-2.3-2.8c-0.4-0.3-0.8-0.6-1.2-0.9c0.1,1,0.2,2,0.6,3
							C784.1,958.6,784.6,959.5,785.1,960.4z"/>
						<path fill="#FEB04B" d="M790.6,968.5c1,2.6,2.8,7.9,5.6,9.4c2,1,3.4,0.1,4.7-1c-0.1-0.5-0.3-1.1-0.7-1.6
							c-1.7-2.4-3.5-4.8-5-7.3c-1.4-2.4-2.5-5-4.3-7.1c-1.1-1.3-3.5-0.8-4.3,0.6C788.6,963,789.6,965.7,790.6,968.5z"/>
						<path fill="#B48140" d="M786.4,962.7c0.6,5.6,4.3,11.7,7.2,16.5c2.3,3.7,7.7,1.1,7.3-2.3c-1.3,1.1-2.7,2-4.7,1
							c-2.8-1.4-4.7-6.8-5.6-9.4c-1-2.8-2-5.5-4-7C786.4,961.8,786.3,962.2,786.4,962.7z"/>
						<path fill="#FEB04B" d="M801.4,986.2c0.4-0.2,0.8-0.6,1.1-0.9c0,0,0,0,0-0.1c-0.4-0.9-1.3-1.7-1.8-2.6c-0.5-1-1.2-1.7-1.7-2.7
							c-0.8-1.8-3.4-0.5-3.1,1.3c0.1,0.5,0.1,0.9,0.1,1.3c0.5,0.3,1,0.6,1.5,1.2C798.6,984.8,799.5,987.2,801.4,986.2z"/>
						<path fill="#B48140" d="M796.9,985.3c0.7,1.4,1.6,2.6,3.1,3.2c0.8,0.3,1.8-0.2,2.3-0.8c0.6-0.7,0.6-1.6,0.2-2.4
							c-0.3,0.4-0.7,0.7-1.1,0.9c-2,1-2.8-1.5-3.8-2.6c-0.5-0.5-1-0.9-1.5-1.2c0,0.2,0,0.4,0,0.6
							C796.2,983.8,796.6,984.6,796.9,985.3z"/>
						<path fill="#FEB04B" d="M812.3,999.7c-4-3.6-4.7-9.3-8.4-13.2c-1.9-2-5.3-0.4-5.3,2.2c0,0.4,0,0.8,0.1,1.2
							c0.8,1,1.6,2.1,2.3,3.2C802.5,995.4,809.8,1006,812.3,999.7z"/>
						<path fill="#B48140" d="M807.4,1004.7c3.4,2.9,8.3-1.9,4.9-4.9c0,0,0,0-0.1-0.1c-2.5,6.4-9.8-4.3-11.4-6.6
							c-0.7-1-1.4-2.2-2.3-3.2C799.1,995.7,803,1001,807.4,1004.7z"/>
						<path fill="#FEB04B" d="M815.1,1008.1c0.5-0.1,1-0.3,1.3-0.6c-0.1-0.4-0.4-0.8-0.8-1c-0.7-0.3-1.2-0.6-1.6-1
							c-0.5-0.4-1-0.9-1.4-1.4c-0.9-1.3-2.7-0.5-2.5,1c0,0.1,0.1,0.3,0.1,0.4c0.4,0.2,0.8,0.4,1.1,0.6
							C812.5,1007,813.8,1008.4,815.1,1008.1z"/>
						<path fill="#B48140" d="M813.6,1010c0.9,0.5,2.2,0.2,2.7-0.7c0.3-0.5,0.3-1.2,0.1-1.7c-0.4,0.3-0.8,0.5-1.3,0.6
							c-1.4,0.3-2.7-1.1-3.7-1.8c-0.4-0.2-0.7-0.4-1.1-0.6c0.2,0.9,0.5,1.7,1.1,2.5C812,1008.8,812.8,1009.5,813.6,1010z"/>
						<path fill="#FEB04B" d="M819.3,1017.9c1.2,1.5,2.5,3.5,4.2,4.5c1.1,1.2,2.5,1.3,4.2,0.2c0.5-0.5,0.7-1,0.6-1.6
							c0.2-0.2,0.3-0.4,0.4-0.5c-2.1-2.1-4-4.2-5.8-6.6c-1.8-2.4-3-5.4-6-6.4c-1.3-0.5-3.2,0.5-3.4,1.9c-0.1,0.9-0.1,1.7,0.1,2.5
							C815.7,1013.3,817.6,1015.7,819.3,1017.9z"/>
						<path fill="#B48140" d="M824.2,1025.9c1.1,1,3,1.4,4.3,0.6c0.5-0.4,0.9-0.7,1.3-1.3c0.8-1.4,0.6-3.2-0.6-4.3
							c-0.2-0.2-0.4-0.4-0.5-0.5c-0.1,0.2-0.3,0.3-0.4,0.5c0,0.6-0.2,1.2-0.6,1.6c-1.7,1.1-3.1,1.1-4.2-0.2c-1.7-1-3-3-4.2-4.5
							c-1.8-2.2-3.6-4.6-5.7-6.1c0.5,2.3,2.2,4.4,3.7,6.4C819.4,1021,821.7,1023.5,824.2,1025.9z"/>
						<path fill="#FEB04B" d="M831.8,1028.7c1.2,0.5,2.2,0,2.7-0.8c0-0.1,0.1-0.1,0.1-0.2c-0.6-0.5-1.2-1-1.8-1.5
							c-0.7-0.6-1.3-1.2-2.1-1.5c0,0,0.1,0,0.1,0.1c-0.3-0.1-0.6-0.2-1-0.3c0.3,0,0.6,0.1,0.9,0.2c0,0-0.1-0.1-0.1-0.1
							c-0.6-0.5-1.7-0.2-2.2,0.3c-0.4,0.4-0.5,0.9-0.5,1.4c0.2,0.1,0.5,0.1,0.7,0.2C829.9,1026.9,830.6,1028.2,831.8,1028.7z"/>
						<path fill="#FEB04B" d="M830.8,1024.7C830.8,1024.6,830.8,1024.6,830.8,1024.7c-0.3-0.2-0.6-0.2-1-0.3
							C830.2,1024.5,830.5,1024.6,830.8,1024.7z"/>
						<path fill="#B48140" d="M828,1026.3c0.1,0.3,0.2,0.6,0.3,1c0-0.1-0.1-0.2-0.1-0.2c0-0.1,0-0.1-0.1-0.2c0.2,1,0.9,1.8,1.6,2.5
							c0.6,0.7,1.3,1.3,2,1.9c1,0.8,2.3,0.9,3.3,0c0.8-0.8,1-2.5,0-3.3c-0.1-0.1-0.2-0.2-0.3-0.3c0,0.1-0.1,0.2-0.1,0.2
							c-0.5,0.9-1.5,1.4-2.7,0.8c-1.2-0.5-1.8-1.8-3.2-2.3C828.4,1026.3,828.1,1026.3,828,1026.3c-0.1,0.1,0,0.3,0,0.5
							C828,1026.6,828,1026.5,828,1026.3z"/>
						<path fill="#B48140" d="M828.2,1027.2c-0.1-0.3-0.2-0.6-0.3-1c0,0.2,0,0.3,0,0.5c0,0.1,0,0.1,0.1,0.2
							C828.1,1027.1,828.2,1027.2,828.2,1027.2z"/>
						<path fill="#FEB04B" d="M844,1038.5c1.1,1,2.5,1.2,4.1,0.4c0.3-0.3,0.7-0.5,1.1-0.6c1,0,1.6,0,2.2,0.5
							c0.2-1.2-0.3-2.5-1.8-3.3c-2.4-1.4-4.9-2.7-7.4-4c-1.8-1-3.7-2.4-5.6-3c-2.1-0.7-4,1.1-4.1,3.1c0,0,0,0.1,0,0.1
							c2.7,0.4,5.2,2.1,7.9,4C841.5,1036.6,842.7,1037.8,844,1038.5z"/>
						<path fill="#B48140" d="M837,1037.5c2.9,1.6,5.9,2.9,8.9,4.3c2.7,1.3,5.2-0.8,5.4-3c-0.6-0.5-1.2-0.6-2.2-0.5
							c-0.4,0.1-0.8,0.3-1.1,0.6c-1.6,0.8-3,0.6-4.1-0.4c-1.3-0.7-2.5-1.9-3.6-2.8c-2.6-1.9-5.2-3.6-7.9-4
							C832.4,1034.5,834.7,1036.2,837,1037.5z"/>
						<path fill="#FEB04B" d="M855.9,1043.1c0.9,0.3,1.8,0.6,2.4,1.2c0.5-1,0.2-2.4-1.3-2.8c-0.8-0.3-1.8-0.4-2.6-0.7
							c-0.8-0.3-1.5-0.8-2.4-1.1c-1.3-0.4-2.2,0.7-2.2,1.9C851.9,1041.5,854.1,1042.6,855.9,1043.1z"/>
						<path fill="#B48140" d="M856.5,1045.6c0.9-0.1,1.5-0.6,1.8-1.3c-0.6-0.6-1.5-0.9-2.4-1.2c-1.7-0.6-4-1.6-5.9-1.5
							c0,0.2,0.1,0.5,0.2,0.7C851.1,1044.4,854.4,1045.8,856.5,1045.6z"/>
						<path fill="#FEB04B" d="M861.2,1045.4c2.3,1.8,9.6,6.4,12.4,3.1c1.1-1.3,2.5-0.9,3.4,0.2c0.3-1.9-0.8-4.2-3.3-4.4
							c-2.6-0.2-4.9-0.7-7.4-1.4c-1.9-0.5-3.5-1.3-5.3-0.9c0.3,0.1,0.5,0.1,0.8,0.2c-0.6,0.1-1.3,0.2-1.9,0.2
							c0.4-0.2,0.8-0.3,1.1-0.4c-0.1,0-0.1,0-0.2,0c-1.7-0.3-2.8,1-2.6,2.5C859.1,1044.1,860.2,1044.6,861.2,1045.4z"/>
						<path fill="#FEB04B" d="M861.7,1042.1c-0.3-0.1-0.5-0.1-0.8-0.2c-0.4,0.1-0.7,0.2-1.1,0.4
							C860.5,1042.3,861.1,1042.2,861.7,1042.1z"/>
						<path fill="#B48140" d="M860.8,1048c1.3,0.7,2.7,1.2,4.1,1.6c2.9,0.9,5.8,1.2,8.8,1.5c1.9,0.2,3-1,3.3-2.5
							c-0.8-1-2.3-1.4-3.4-0.2c-2.8,3.3-10.1-1.3-12.4-3.1c-1-0.8-2.1-1.3-3-1c0.1,0.4,0.2,0.8,0.5,1.1
							C859.5,1046.4,859.5,1047.3,860.8,1048z"/>
						<path fill="#FEB04B" d="M885.1,1048.4c0.8-0.3,1.4-0.1,1.8,0.4c0.2-1.1-0.5-2.3-1.9-2.3c-2.3,0-4.5-0.4-6.8-0.4
							c-1.2,0-2.1,1.1-2.1,2.2C879.2,1048.2,882,1049.4,885.1,1048.4z"/>
						<path fill="#B48140" d="M877.2,1050c2.6,1.2,5.6,1.2,8.4,0.4c0.8-0.3,1.3-0.9,1.4-1.6c-0.5-0.4-1.1-0.6-1.8-0.4
							c-3,1.1-5.9-0.2-8.9-0.1C876.1,1049,876.4,1049.6,877.2,1050z"/>
						<path fill="#FEB04B" d="M895,1049.1c2.4-0.3,4.4-1.8,6.6-2.7c2.4-1,5.7-2,8.3-2.2c0.1,0,0.2,0,0.3,0c0.4-2.6-2-5.9-5-3.9
							c-2.9,2-7.6,2.7-11,3.3c-2.5,0.5-5.3,0.3-7.3,1.9C889,1047.9,891.7,1049.5,895,1049.1z"/>
						<path fill="#B48140" d="M886.4,1046.1c-0.7,0.8-0.8,2,0,2.8c2.1,2.2,5.8,2.2,8.6,1.7c4.1-0.6,7.8-3.9,12-4
							c2.1,0,3-1.2,3.2-2.5c-0.1,0-0.2,0-0.3,0c-2.6,0.3-5.9,1.2-8.3,2.2c-2.2,0.9-4.2,2.4-6.6,2.7c-3.3,0.4-6-1.2-8-3.6
							C886.8,1045.7,886.6,1045.9,886.4,1046.1z"/>
						<path fill="#FEB04B" d="M911.2,1041.9c0.1-0.2,0.3-0.5,0.4-0.7c0.1-0.1,0.1-0.1,0-0.1C911.4,1041.3,911.3,1041.6,911.2,1041.9
							C911.1,1041.9,911.1,1041.9,911.2,1041.9z"/>
						<path fill="#FEB04B" d="M911.1,1041.9C911.1,1041.9,911.1,1041.9,911.1,1041.9C911.1,1041.9,911.1,1041.9,911.1,1041.9
							C911.1,1041.9,911.1,1041.9,911.1,1041.9C911.1,1041.9,911.1,1041.9,911.1,1041.9z"/>
						<path fill="#FEB04B" d="M909.2,1044.6c-0.1-0.2-0.2-0.3-0.3-0.5C909,1044.3,909.1,1044.4,909.2,1044.6z"/>
						<path fill="#FEB04B" d="M911.2,1041.9C911.2,1041.9,911.2,1041.9,911.2,1041.9C911.1,1041.9,911.1,1041.9,911.2,1041.9
							C911.2,1041.9,911.2,1041.9,911.2,1041.9z"/>
						<path fill="#FEB04B" d="M911,1042.1c0-0.1,0.1-0.1,0.1-0.2c0,0,0,0,0,0C911.1,1042,911.1,1042,911,1042.1z"/>
						<path fill="#FEB04B" d="M911.1,1041.9C911.1,1041.9,911.1,1041.9,911.1,1041.9c0.2-0.3,0.4-0.5,0.5-0.8c0,0-0.1,0-0.2,0.1
							c-0.2,0.1-0.4,0.1-0.6,0.2c-0.3,0.1-0.6,0.2-0.9,0.3c0,0,0,0,0,0C910.3,1041.7,910.7,1041.7,911.1,1041.9z"/>
						<path fill="#FEB04B" d="M911.1,1041.9C911.1,1041.9,911.1,1041.9,911.1,1041.9c-0.4-0.2-0.8-0.2-1.2-0.1
							C910.3,1041.8,910.7,1041.9,911.1,1041.9C911.1,1041.9,911.1,1041.9,911.1,1041.9z"/>
						<path fill="#FEB04B" d="M909.7,1043.1c0.2,0.2,0.3,0.3,0.4,0.5c0.6,0,1.2,0,1.8,0c0.9-0.1,1.1,0.1,1.4-0.8
							c0.4-1.1,1.4-1.8,2.6-1.5c0.1,0,0.3,0.1,0.4,0.2c0-0.1,0-0.2-0.1-0.3c-0.6-1.3-2.1-1.8-3.3-1.1c-0.6,0.3-1,0.6-1.3,1
							c0.1,0,0.1,0,0,0.1c-0.1,0.2-0.3,0.5-0.4,0.7c0,0,0,0,0.1,0c0,0,0,0-0.1,0c0,0.1-0.1,0.1-0.1,0.2c0-0.1,0-0.1,0.1-0.2
							c-0.4-0.1-0.8-0.1-1.2-0.2c-0.8,0.2-1.5,0.8-1.3,1.7C908.8,1043.1,909.3,1042.8,909.7,1043.1z"/>
						<path fill="#B48140" d="M908.7,1043.5c0,0.2,0,0.4,0.2,0.6c0,0,0,0.1,0.1,0.1c-0.1-0.1-0.1-0.3-0.2-0.4
							C908.7,1043.6,908.7,1043.5,908.7,1043.5z"/>
						<path fill="#B48140" d="M912.8,1044.6c-0.3,0-0.6-0.1-0.8-0.3c0.3,0.1,0.7,0.2,1,0.3C912.9,1044.6,912.9,1044.6,912.8,1044.6
							c0.6,0.1,1.2,0,1.9-0.2c1.3-0.3,1.9-1.7,1.6-2.9c-0.1-0.1-0.3-0.1-0.4-0.2c-1.2-0.3-2.2,0.4-2.6,1.5c-0.4,0.9-0.5,0.7-1.4,0.8
							c-0.6,0.1-1.2,0-1.8,0c0.1,0.1,0.1,0.1,0.2,0.2c-0.2-0.1-0.4-0.1-0.6-0.2c0.1,0,0.3,0,0.4-0.1c-0.1-0.2-0.3-0.3-0.4-0.5
							c-0.4-0.4-0.9-0.1-1,0.3c0,0.1,0,0.1,0,0.2c0.1,0.1,0.1,0.3,0.2,0.4c0.1,0.2,0.2,0.3,0.3,0.5c0.4,0.4,0.9,0.6,1.5,0.6
							C911.4,1045.1,912.1,1044.7,912.8,1044.6z"/>
						<path fill="#B48140" d="M910.3,1043.8c-0.1-0.1-0.1-0.1-0.2-0.2c-0.1,0-0.3,0-0.4,0.1C909.9,1043.7,910.1,1043.8,910.3,1043.8
							z"/>
						<path fill="#B48140" d="M912,1044.3c0.3,0.2,0.6,0.2,0.8,0.3c0.1,0,0.1,0,0.2,0C912.7,1044.5,912.3,1044.4,912,1044.3z"/>
						<path fill="#FEB04B" d="M921.9,1040.3c2.1-1,4.7-1,6.9-1.6c3.7-0.9,7-3.9,10.6-4.5c0.2-2.7-2.4-5.5-5.2-3.6
							c-3.2,2.2-6.5,3.7-10.2,5c-2.8,0.9-6.7,1.4-8.1,4.2c-0.4,0.8-0.3,1.5,0,2.1c0.1,0,0.2-0.1,0.3,0
							C919,1042.2,919.7,1041.4,921.9,1040.3z"/>
						<path fill="#B48140" d="M916.7,1042.8c2.7,2,7.4,0.2,10.4-0.7c3.8-1.2,7.5-2.8,10.7-5.2c1-0.7,1.5-1.7,1.5-2.7
							c-3.6,0.6-7,3.6-10.6,4.5c-2.2,0.6-4.8,0.6-6.9,1.6c-2.2,1-2.9,1.9-5.6,1.6c-0.1,0-0.2,0-0.3,0
							C916.2,1042.3,916.4,1042.6,916.7,1042.8z"/>
						<path fill="#B48140" d="M939.7,1032.9c0.7,0,0.7-1.1,0-1.1C939,1031.8,939,1032.9,939.7,1032.9L939.7,1032.9z"/>
						<path fill="#FEB04B" d="M938.9,1028.6C938.9,1028.6,938.9,1028.6,938.9,1028.6C938.9,1028.6,938.9,1028.6,938.9,1028.6z"/>
						<path fill="#FEB04B" d="M939.5,1031.1c0.4-0.1,0.9-0.4,1.2-0.8c0.9-1.9,2.9-3.4,4.9-3.5c0.2,0,0.4,0,0.5,0.1
							c-0.3-1-1-1.7-2.1-1.7c-1.3-0.1-2.2,1-3.2,1.7c-0.5,0.3-1,0.6-1.4,1c-0.2,0.2-0.3,0.5-0.5,0.7c0,0,0,0-0.1,0.1
							c0,0,0.1-0.1,0.1-0.1c0,0-0.5,0.3-0.5,0.3c-1.2,0.7-1,2.6,0.2,3.1C938.7,1031.5,939,1031.2,939.5,1031.1z"/>
						<path fill="#B48140" d="M940.9,1030.1c-0.1,0.1-0.2,0.2-0.3,0.2c-0.1,0.2-0.2,0.4-0.3,0.7
							C940.6,1030.7,940.7,1030.4,940.9,1030.1z"/>
						<path fill="#B48140" d="M941,1032c0.9,0,1.6-0.4,2.3-0.9c1.3-0.8,3-2.1,2.9-3.8c0-0.2,0-0.3-0.1-0.5c-0.2,0-0.4-0.1-0.5-0.1
							c-2.1,0.1-4,1.6-4.9,3.5c0.1-0.1,0.2-0.2,0.3-0.2c-0.2,0.3-0.4,0.6-0.5,0.9c0.1-0.2,0.2-0.4,0.3-0.7c-0.4,0.3-0.8,0.7-1.2,0.8
							c-0.5,0.1-0.8,0.4-0.9,0.8c0.2,0.1,0.4,0.1,0.7,0.1C940,1032,940.4,1032,941,1032z"/>
					</g>
				</g>
				<g>
					<path fill="#FFFEFD" d="M771.9,684.4c0,0-0.1,0-0.1,0c-0.8,0.3-1.1,1.2-0.5,1.9c0.6,0.6,1.6,0.3,1.9-0.5c0,0,0-0.1,0-0.1
						C773.4,685,772.6,684.2,771.9,684.4L771.9,684.4z"/>
					<path fill="#FFFEFD" d="M768.7,699.1c-0.8,0.3-0.8,1.2-0.9,1.9c-0.1,1-0.3,2-0.5,2.9c-0.4,1.9,2.4,2.3,2.7,0.4
						C770.2,703.4,770.9,698.1,768.7,699.1L768.7,699.1z"/>
					<g>
						<g>
							<path fill="#FFFEFD" d="M766.6,718c0.9,0,0.9-1.4,0-1.4C765.7,716.5,765.7,718,766.6,718L766.6,718z"/>
						</g>
					</g>
					<path fill="#FFFEFD" d="M764.3,726.9c-0.2,0.8,0,1.7,0,2.5c0.1,1,0.1,1.9,0,2.9c-0.1,1.4,2.4,1.4,2.2,0
						c-0.2-1.7-0.2-4.4-1.7-5.6C764.7,726.6,764.4,726.6,764.3,726.9L764.3,726.9z"/>
					<path fill="#FFFEFD" d="M762.9,745c0,0.2-0.1,0.4-0.1,0.6c-0.1,0.7,0.7,1.2,1.3,1.1c0.7-0.1,1.1-0.7,0.9-1.4
						c-0.1-0.2-0.1-0.4-0.3-0.6c-0.2-0.3-0.6-0.6-1-0.5C763.4,744.3,763,744.6,762.9,745L762.9,745z"/>
					<path fill="#FFFEFD" d="M762.6,758.3c-0.3,0.3-0.4,0.5-0.4,0.9c0,0.8,0,1.5,0,2.3c0,1.2-0.3,2.8,0.7,3.6c0.3,0.3,0.9,0.4,1.3,0
						c1.1-1.2,0.4-3.4-0.1-4.8C764,760.1,763.5,757.6,762.6,758.3L762.6,758.3z"/>
					<path fill="#FFFEFD" d="M762.3,774c0,0.1,0,0.2,0,0.3c0,0.4,0.2,0.6,0.6,0.7c0.1,0.1,0.3,0,0.4,0c0.3-0.1,0.6-0.4,0.6-0.7
						c0-0.2-0.1-0.4-0.1-0.6C763.4,772.7,762.1,773.1,762.3,774L762.3,774z"/>
					<path fill="#FFFEFD" d="M761.9,785c0.3,1,0.8,1.9,1,3c0.2,1.1,0,2.3,0.6,3.3c0.3,0.5,1,0.4,1.2,0c0.7-1.1,0.4-2.8,0.1-4
						c-0.3-1.2-0.8-2.5-1.8-3.1C762.5,783.8,761.7,784.4,761.9,785L761.9,785z"/>
					<path fill="#FFFEFD" d="M763.2,814.2c0.5,1.5,0.3,3.3,0.6,4.8c0.2,1.4,2.4,0.8,2.1-0.6c-0.3-1.6-0.8-3.3-1.5-4.7
						C764.1,813,762.9,813.5,763.2,814.2L763.2,814.2z"/>
					<path fill="#FFFEFD" d="M764,830.7c0,0.1,0,0.2-0.1,0.3c-0.1,0.2,0,0.5,0.2,0.6c0,0,0.1,0,0.1,0.1c0.2,0.1,0.4,0.2,0.6,0.1
						c0,0,0.1,0,0.1,0c0.2-0.1,0.4-0.5,0.3-0.7c-0.1-0.2-0.1-0.4-0.2-0.6C764.7,829.9,764.1,830.2,764,830.7L764,830.7z"/>
					<path fill="#FFFEFD" d="M763.7,842.5c0.7,1.9-0.1,4,0.5,5.8c0.1,0.4,0.6,0.9,1.1,0.9c1.4-0.2,1.2-1.6,1.1-2.7
						c-0.2-1.7-0.8-3-1.5-4.5C764.5,841.4,763.4,841.8,763.7,842.5L763.7,842.5z"/>
					<path fill="#FFFEFD" d="M765.4,864.4c0.1,0.2,0.1,0.4,0.1,0.7c0,0.5,0.5,1,1,0.9c0.5-0.1,0.9-0.6,0.8-1.1
						c-0.1-0.4-0.3-0.7-0.4-1.1C766.5,862.9,765.1,863.5,765.4,864.4L765.4,864.4z"/>
					<path fill="#FFFEFD" d="M766.6,876.2c0.3,0.9,0.6,1.8,0.8,2.7c0.2,1-0.1,2.1,0.4,3c0.3,0.5,1.1,0.6,1.4,0
						c0.5-1.1,0.2-2.6-0.2-3.7c-0.3-1.1-0.8-1.9-1.8-2.6C766.9,875.5,766.5,875.8,766.6,876.2L766.6,876.2z"/>
					<path fill="#FFFEFD" d="M771.7,904.5c0.3,0.5,0.3,1.2,0.5,1.8c0.2,0.6,0.2,1.4,0.7,1.9c0.4,0.4,1.2,0.2,1.3-0.3
						c0.1-0.8-0.3-1.6-0.7-2.3c-0.3-0.7-0.8-1.1-1.3-1.5C771.9,903.8,771.5,904.2,771.7,904.5L771.7,904.5z"/>
					<path fill="#FFFEFD" d="M777.5,933c0.1,0.9,0.6,1.6,1,2.3c0.4,0.8,0.1,1.7,0.5,2.5c0.4,0.8,1.9,0.5,1.8-0.5
						c-0.2-1.8-1-3.7-2.5-4.8C777.9,932.2,777.4,932.4,777.5,933L777.5,933z"/>
					<path fill="#FFFEFD" d="M790.7,963.5c0.7,1.4,1.1,3.1,1.8,4.6c0.5,1.2,0.8,2.2,2.1,2.6c0.2,0.1,0.4-0.1,0.4-0.3
						c0.1-1.4-0.8-2.7-1.3-4c-0.6-1.4-1.2-2.3-2.1-3.4C791.1,962.4,790.5,963,790.7,963.5L790.7,963.5z"/>
					<path fill="#FFFEFD" d="M802.1,989.5c0.4,0.8,1,1.5,1.4,2.3c0.4,0.9,0.7,1.8,1.1,2.7c0.6,1.4,1.2,3.4,2.9,3.6
						c0.2,0,0.4-0.1,0.4-0.3c0.9-1.7-1-3.9-1.9-5.2c-0.9-1.3-2-3.3-3.5-3.7C802.2,988.9,801.9,989.2,802.1,989.5L802.1,989.5z"/>
					<path fill="#FFFEFD" d="M817.3,1012.8c1.3,0.8,2.1,1.8,2.8,3.2c0.6,1.1,1.1,2.5,2.3,3c0.5,0.3,1.2,0,1.2-0.7
						c-0.1-1.4-1.2-2.9-2.1-4c-1-1.2-1.9-2.3-3.3-3C817.2,1010.7,816.3,1012.1,817.3,1012.8L817.3,1012.8z"/>
					<path fill="#FFFEFD" d="M838,1032.5c1.5,0.5,2.9,1.2,4.2,2.2c1,0.7,1.9,1.8,3.2,1.9c0.2,0,0.4-0.2,0.3-0.4
						c-0.3-1.4-1.8-2.3-2.9-3.1c-1.4-1-2.8-1.8-4.5-2C837.5,1030.9,837.1,1032.2,838,1032.5L838,1032.5z"/>
					<path fill="#FFFEFD" d="M863,1045.8c0.9,0.5,1.8,0.7,2.8,0.8c0.4,0.1,0.8,0.2,1.3,0.2c0.4,0,0.8-0.2,1.3-0.2
						c0.3,0,0.4-0.4,0.2-0.6c-0.6-0.7-1.1-0.7-2-0.9c-1-0.2-1.9-0.7-2.9-0.9C862.8,1044.1,862.1,1045.3,863,1045.8L863,1045.8z"/>
					<path fill="#FFFEFD" d="M897.3,1044.4c1.3-0.1,2.5-0.5,3.8-0.7c1.2-0.2,2.7-0.5,3.8-1.1c0.7-0.4,0.5-1.4-0.2-1.6
						c-1.1-0.4-2.4,0.1-3.4,0.7c-1.4,0.7-2.5,1.6-4.1,1.9C896.7,1043.7,896.8,1044.4,897.3,1044.4L897.3,1044.4z"/>
					<path fill="#FFFEFD" d="M927,1036c0.9,1,3-0.7,3.9-1c1.3-0.5,3.4-0.4,3.3-2.3c0-0.3-0.2-0.4-0.5-0.5c-1.4-0.2-2.2,0.2-3.3,1
						c-0.6,0.5-1.2,0.8-1.9,1.2c-0.3,0.2-0.6,0.3-0.9,0.5c-0.3,0.2-0.6,0.2-0.2,0.3C927,1035.2,926.7,1035.7,927,1036L927,1036z"/>
					<path fill="#FFFEFD" d="M952.7,1017.7c0.7-0.3,1.2-0.7,1.8-1.1c0.6-0.4,1.3-0.7,1.5-1.5c0.1-0.5-0.2-1-0.8-1
						c-0.8,0-1.2,0.7-1.8,1.1c-0.5,0.5-1.1,0.9-1.6,1.5C951.5,1017.3,952.1,1018,952.7,1017.7L952.7,1017.7z"/>
					<path fill="#FFFEFD" d="M972.6,991.4c0.1-0.2,0.4-0.3,0.5-0.4c0.2-0.2,0.3-0.3,0.5-0.4c0.4-0.3,0.7-0.3,1.2-0.2
						c1.6,0,1.4-2.6-0.3-2.3c-0.7,0.1-1.4,0.5-1.9,0.9c-0.3,0.2-0.6,0.5-0.8,0.8c-0.2,0.3-0.3,0.6-0.4,1
						C971.3,991.4,972.2,991.9,972.6,991.4L972.6,991.4z"/>
					<path fill="#FFFEFD" d="M983.6,966.7c0.4-0.7,0.8-1.4,1.2-2.1c0.3-0.6,1-0.8,1.1-1.4c0.1-0.4-0.1-0.8-0.5-0.9
						c-2.1-0.6-2.8,2.5-3.4,3.9C981.7,966.9,983.1,967.5,983.6,966.7L983.6,966.7z"/>
				</g>
				<path fill="#949494" d="M770.7,659.7c1.4,0.6,3.1-0.2,4.7-0.1c0.9,0,1.8,0.2,2.6,0.7c0.6,0.4,1,0.9,1.5,1.3
					c0.4,0.3,0.9-0.1,0.9-0.5c0-1.8-2.1-2.8-3.7-3c-1.7-0.3-4.9-0.6-6.2,0.9C770.2,659.2,770.4,659.5,770.7,659.7L770.7,659.7z"/>
			</g>
			<g>
				<path fill="#646464" d="M790.2,673.5c0.8-0.2,1.6,0.3,2.3,0.9c0.2-0.6,0.4-1.2,0.4-1.9c0-3.2-3-5.8-6.7-5.8
					c-3.6,0-6.5,2.5-6.7,5.6c1.4,0.1,3,1.4,4.7,2.4C786.5,675.9,788.6,674,790.2,673.5z"/>
				<path fill="#494C51" d="M786.2,678.2c2.9,0,5.4-1.6,6.3-3.9c-0.7-0.6-1.5-1.1-2.3-0.9c-1.7,0.5-3.8,2.5-5.9,1.2
					c-1.7-1-3.4-2.3-4.7-2.4c0,0.1,0,0.1,0,0.2C779.6,675.7,782.6,678.2,786.2,678.2z"/>
			</g>
		</g>
		<path fill="#969696" d="M785.8,669.3c0.8-0.1,1.6-0.3,2.2,0.2c0.5,0.4,1.1,1.2,1.3,1.7c0.2,0.4,0.9,0.3,1-0.1
			c0.2-1.3-0.3-2.3-1.4-3c-1.1-0.7-2.5-0.6-3.5,0C784.9,668.4,785.1,669.4,785.8,669.3L785.8,669.3z"/>
	</g>
	<path fill="#949494" d="M923.9,567.3c19.7,4,38.9,16.2,52.8,30.4c7.2,7.3,12.3,16.4,15.8,26c3.2,8.9,6,18.7,7.5,28
		c0.1,0.3,0.6,0.3,0.6-0.1c-1.4-10.4-2.6-20.1-6.4-30c-3.5-9.2-8.4-17.8-15.3-24.9c-14.8-15.4-33.7-26.6-54.9-30.1
		C923.7,566.6,923.4,567.3,923.9,567.3L923.9,567.3z"/>
</g>
</svg>
