<?xml version="1.0" encoding="utf-8"?>
<!-- Generator: Adobe Illustrator 22.1.0, SVG Export Plug-In . SVG Version: 6.00 Build 0)  -->
<svg version="1.1" id="_x30_9_x5F_Eyewear_x5F_Eyepatch"
	 xmlns="http://www.w3.org/2000/svg" xmlns:xlink="http://www.w3.org/1999/xlink" x="0px" y="0px" viewBox="0 0 2000 2000"
	 enable-background="new 0 0 2000 2000" xml:space="preserve">
<g>
	<g>
		<path fill="#383C41" d="M1277.1,465.9c-19.5,13.8-38.8,26.5-59.2,39c-72.2,44-147.2,83.4-225.5,115.5c-7.2,2.9-10.2-8.7-3.2-11.6
			c7.9-3.2,15.7-6.5,23.5-9.9c12.1-5.2,24.1-10.6,36.1-16.2c77.7-36,154.3-75.4,224.3-124.9c3.1-2.2,5.6-1.4,6.7,0.5
			C1280.8,460.3,1280.3,463.6,1277.1,465.9z"/>
	</g>
	<path fill="#4D4D4D" d="M1118.2,557c34.9-17.6,105.4-56.9,126.5-71.8c14.3-10.1,27.7-21,34.9-26.9c-1.1-1.9-3.6-2.7-6.7-0.5
		c-70,49.6-146.6,88.9-224.3,124.9c-12,5.5-24,10.9-36.1,16.2c0.5,5,1,7.9,1,7.9S1083.4,574.6,1118.2,557z"/>
	<g>
		<path fill="#383C41" d="M947.7,733.9c-0.2,0.5-0.9,1.3-1.9,2.2C947,734.3,947.9,733.3,947.7,733.9z"/>
		<path fill="#383C41" d="M1006,619.7c-0.4-31-2.2-46.6-7.7-58.8c-1-2.2-2-4.2-3.3-6.3c-8-13.3-13.9-23.1-69.7-14.6
			c-34.4,5.2-81.3,17.1-120.1,38.5C781,591.8,759.9,608.7,747,630c-7.3,12.1-1.8,30,16.7,70.3c18.5,40.3,55.8,66.7,102.3,80.1
			c46.5,13.4,80.3,3.6,107.4-44.9C1000.5,687,1006.5,656.2,1006,619.7z M947.7,733.9c-0.2,0.5-0.9,1.3-1.9,2.2
			C947,734.3,947.9,733.3,947.7,733.9z"/>
	</g>
	<path fill="#4D4D4D" d="M998.5,640.3c-3.2,42.7-12,54.7-23.5,68.3c-11.5,13.7-15.2,12.8-20.4,24c-5.2,11.2-17.9,21.4-15.5,15.2
		c1.5-3.8,4.6-8.9,6.7-11.8c-2.1,1.9-5.6,4.4-8.1,6.2c-3.7,2.7-23,4-39.7,0s-63-20.5-84.3-33c-21-12.3-33.9-22.6-34.3-23
		c0.4,0.7,15.2,26.1,8.3,18.7c-7-7.5-14.3-22.7-14.3-22.7c-14.3-9.3-29.4-26.4-22.3-44.7c6-15.3,3.2-19.7,54.2-59.2
		C844,557.1,891,545.2,925.3,540c55.8-8.5,61.7,1.3,69.7,14.6c1.2,2,2.3,4.1,3.3,6.3C999.4,581.5,1000.5,613.8,998.5,640.3z"/>
	<path fill="#383C41" d="M946.4,752.7l-2.6-1.4c42.3-78.4,38.7-128.9,37.3-147.9c-0.1-1.7-0.2-3.1-0.3-4.3
		c-1.9-41.1-6.8-44.1-7.7-44.3c-4.5-0.9-47.9-2.5-106.5,16.2C808,589.7,778,620,772.2,629.2c-0.9,1.4-1.7,2.6-2.5,3.8
		c-5.4,8-8.1,12-1.5,25.8l1,2.1c7.3,15.2,12.6,26.1,36.9,59.1l-2.4,1.8c-24.5-33.2-29.8-44.3-37.2-59.6l-1-2.1
		c-7.4-15.3-4-20.4,1.7-28.7c0.8-1.2,1.6-2.4,2.5-3.8c6-9.4,36.6-40.5,96-59.4c55.4-17.7,100.3-17.8,108-16.3
		c3.7,0.7,8.2,6.7,10.1,47.1c0.1,1.2,0.2,2.6,0.3,4.2C985.5,622.4,989.2,673.5,946.4,752.7z"/>
	<g>
		<g>
			<path fill="#383C41" d="M773.5,692.3c-11.3,3.3-22.9,5.9-34.4,8.5c-29.2,6.5-58.7,12.1-88.2,17c-25.5,4.2-51.4,8.5-77.3,9.4
				c-2.8,0.1-4.3-2-4.3-4.2c-0.1-2.3,1.4-4.7,4.3-4.8c13-0.5,26-2,38.9-3.7c29.5-3.9,58.9-9.1,88.1-14.8c16-3.1,32.1-6.3,48-10.1
				c7.5-1.8,15-3.7,22.4-5.9C776.7,682,779.1,690.7,773.5,692.3z"/>
		</g>
		<path fill="#4D4D4D" d="M589.9,723.4c15-1.4,50.8-8.4,88.3-12.7c37.5-4.3,72.4-15.1,72.4-15.1s-0.7-1.6-1.9-6.1
			c-15.9,3.8-32,7-48,10.1c-29.2,5.7-58.6,11-88.1,14.8c-12.9,1.7-25.9,3.2-38.9,3.7c-3,0.1-4.4,2.5-4.3,4.8
			C573.3,723.6,580.4,724.3,589.9,723.4z"/>
	</g>
</g>
</svg>
