<?xml version="1.0" encoding="utf-8"?>
<!-- Generator: Adobe Illustrator 23.0.1, SVG Export Plug-In . SVG Version: 6.00 Build 0)  -->
<svg version="1.1" id="_x31_3_x5F_Eyewear_x5F_Sunglasses_x5F_AlienEyes"
	 xmlns="http://www.w3.org/2000/svg" xmlns:xlink="http://www.w3.org/1999/xlink" x="0px" y="0px" viewBox="0 0 2000 2000"
	 enable-background="new 0 0 2000 2000" xml:space="preserve">
<g>
	<path fill="#75D53C" d="M591.6,748.1c9.5-1.1,13.2-3.7,17.3-15.5c6.2-17.6,16.5-39.6,16.6-39.6l1.6-1c0.5-1.5,0.9-3,1.4-4.6
		c0.2-0.6,0.6-1.1,1.1-1.3l0.2-0.1c13.3-6.6,73-32.7,102.5-44.8c-0.2-2.8-0.5-4.7-1.4-8.2c-2.1-8.6-2.2-11.6-0.6-9.4
		c1.2,1.7,5.1,11.6,6.9,16.4c0.2,0.1,0.4,0.1,0.6,0.2l7.3,4.5c4.3,1,31.9,15,31.9,15s2.6-1.1,0.6-6.2c-1.7-4.3-6.2-14.1-7.3-16.8
		c-3.4-7.6-5.6-15.7-8.5-23.5c-1.7-4.6-4.6-7.8-6-12.5c-3.2,2-13.6,8.6-21,11.6c-9,3.7-14.6,1.1-86,38c0,0-12.5,6.3-23.1,11.9
		s-11.6,3.5-18,17.2c-6.4,13.7-16.3,51.2-16.5,61.2c-0.2,9.2,0.2,12.4,7.2,12.9C594,753.2,592.2,751.7,591.6,748.1z"/>
	<path fill="#549B35" d="M777,659.7c0,0-27.6-14-31.9-15l-7.3-4.5c-0.2-0.1-0.4-0.2-0.6-0.2c-1.8-4.8-5.7-14.7-6.9-16.4
		c-1.6-2.2-1.5,0.8,0.6,9.4c0.9,3.5,1.2,5.4,1.4,8.2c-29.5,12.1-89.2,38.2-102.5,44.8l-0.2,0.1c-0.5,0.2-0.9,0.7-1.1,1.3
		c-0.5,1.5-0.9,3-1.4,4.6l-1.6,1c-0.1,0-10.4,22-16.6,39.6c-4.1,11.8-7.8,14.4-17.3,15.5c0.6,3.6,2.4,5.1,6.8,5.4c0,0,0,0,0.1,0
		c0.2,0,0.5,0,0.8,0c0.3,0,0.6,0,1,0c0.1,0,0.1,0,0.2,0c0,0,0,0,0,0c0,0,0,0,0.1,0c8.9,0,14.5-12.2,20.8-28.8
		c5-13.1,10.6-29.1,12.8-35.3c17.7-7,75.4-30.3,102.2-43.2l10.8,5.4c4,2,8.1,4,12.2,6s8.2,4,12.3,5.9c2.7,1.3,5.5,2.5,8.2,3.8
		c1.1,0.5,2.1,1,3.2,1.5c0,0,0.2,0.1,0.3,0.2c0.1,0,0,0-0.2-0.4c-2.2-4.3-4.3-8.6-6.4-12.9"/>
</g>
</svg>
