<?xml version="1.0" encoding="utf-8"?>
<!-- Generator: Adobe Illustrator 23.0.1, SVG Export Plug-In . SVG Version: 6.00 Build 0)  -->
<svg version="1.1" id="_x31_4_x5F_Eyewear_x5F_SunglassesAviators"
	 xmlns="http://www.w3.org/2000/svg" xmlns:xlink="http://www.w3.org/1999/xlink" x="0px" y="0px" viewBox="0 0 2000 2000"
	 enable-background="new 0 0 2000 2000" xml:space="preserve">
<g>
	<path fill="#E57C2E" d="M700.2,595.9l8.1,3l3.2-6.5c-1.5-0.7-4.4-2-9.1-4.1C701.4,592.5,700.2,595.9,700.2,595.9z"/>
	<path fill="#F1B27A" d="M711.6,592.4l1.8-3.7c-3.1-1.4-7.4-3.2-10-3.8c-0.3,1.2-0.6,2.3-0.9,3.4
		C707.1,590.4,710.1,591.7,711.6,592.4z"/>
	<g>
		<path fill="#A45D2C" d="M713.4,588.8l-1.8,3.7l-3.2,6.5l-8.1-3c0,0,1.1-3.3,2.3-7.5c0.3-1.1,0.6-2.2,0.9-3.4
			c-0.2,0-0.4-0.1-0.5-0.1c-4.1-0.7-5.6,2.4-5.6,2.4l-2.1,3.9c0,0-11.1,0.7-21.8,3.2c-9.7,2.3-36.8,7.4-56.5,11.4l0.8,1.6
			c0,0,32.2-5.4,40.9-6.9s36.3-5.8,36.3-5.8s-0.6,1.9,1.9,3.5s12.9,5.6,12.9,5.6l7.6-13.4C717.1,590.5,715.5,589.7,713.4,588.8z"/>
		<path fill="#E57C2E" d="M695.5,592l1.7-4.8l-81.9,14.3l1.5,4.2C636.5,601.8,695.5,592,695.5,592z"/>
		<path fill="#5E2316" d="M616,609.3c-4.5,2.2-4.7,1.7-11.8,4.8s-14.4,10-22.5,23.4c-8.2,13.4-14.4,18.3-18.3,13.1
			c-0.1-0.1-0.2-0.2-0.2-0.4c-3.5-5.4,3-14.7,8.1-21.4c5.2-6.9,12.9-16.5,19-21.1s9-3.8,16-5.5c7-1.8,11.2-3,11.8-2
			c0.5,1,1,3.1,1.4,5c0,0.2,0.1,0.4,0.1,0.6C620,607.9,620.5,607.1,616,609.3z"/>
		<path fill="#832A0F" d="M578.1,635.3c6.7-11,12.6-20.1,21.3-23.4c7.7-3,9.7-7.2,20.1-6.6c-0.4-1.9-0.8-4.1-1.4-5
			c-0.6-1.1-4.8,0.3-11.8,2c-7,1.8-9.9,1-16,5.5c-6.1,4.6-13.8,14.2-19,21.1c-5,6.8-11.6,16.1-8.1,21.4
			C570.1,646.6,572.9,643.7,578.1,635.3z"/>
	</g>
</g>
</svg>
