<?xml version="1.0" encoding="utf-8"?>
<!-- Generator: Adobe Illustrator 23.0.1, SVG Export Plug-In . SVG Version: 6.00 Build 0)  -->
<svg version="1.1" id="_x31_5_x5F_Eyewear_x5F_SunglassesCircular"
	 xmlns="http://www.w3.org/2000/svg" xmlns:xlink="http://www.w3.org/1999/xlink" x="0px" y="0px" viewBox="0 0 2000 2000"
	 enable-background="new 0 0 2000 2000" xml:space="preserve">
<g>
	<path fill="#E57C2E" d="M740.8,660.6c0.3,0,0.5,0,0.8,0.1v-6.2l-77.6,7.6l-2.9,5l4-0.4C731,661.7,728.6,660.3,740.8,660.6z"/>
	<path fill="#A35D2C" d="M741.5,663.7v-3c-0.2,0-0.5,0-0.8-0.1c-12.1-0.3-9.7,1.1-75.7,6.1l-4,0.4l-2.3,4
		C716.2,666.7,741.5,663.7,741.5,663.7z"/>
	<path fill="#5F2316" d="M666.7,661.3l-1.7,5.4l-2.6,8.1c0,0-20.2-0.4-33,1.7c-12.8,2.1-19.7,1.8-23.7,6.2c-4,4.3-8.8,11.2-14.3,19
		c-5.6,7.8-12.1,7.7-15.2,4c0,0,0-0.1,0-0.4c0-0.9,0.3-3.2,2.8-6.5c3.2-4.2,11.9-17.8,18-23.3c6.1-5.6,6.8-8.8,13-9.5
		s32.8-4.2,44.8-4.7C667,660.9,666.7,661.3,666.7,661.3z"/>
	<path fill="#842A0F" d="M654.9,661.3c-12.1,0.4-38.6,3.9-44.8,4.7s-6.9,3.9-13,9.5s-14.8,19.2-18,23.3c-2.5,3.3-2.8,5.6-2.8,6.5
		c12.2-10.7,16-16.4,20.9-22.8c5.6-7.2,7.9-8.3,19.4-10c9.5-1.4,38.7-4.7,48.5-5.8l1.7-5.4C666.7,661.3,667,660.9,654.9,661.3z"/>
</g>
</svg>
