<?xml version="1.0" encoding="utf-8"?>
<!-- Generator: Adobe Illustrator 23.0.1, SVG Export Plug-In . SVG Version: 6.00 Build 0)  -->
<svg version="1.1" id="_x31_6_x5F_Eyewear_x5F_SunglassesSporty"
	 xmlns="http://www.w3.org/2000/svg" xmlns:xlink="http://www.w3.org/1999/xlink" x="0px" y="0px" viewBox="0 0 2000 2000"
	 enable-background="new 0 0 2000 2000" xml:space="preserve">
<g>
	<path fill="#203B81" d="M637,668.6c-13.7,6.2-14.1,8.1-18.7,15.6c-3.9,6.6-22.9,47.7-30.7,52.8l0,0c0,0,0,0.1-0.1,0.1
		c0.5,0.2,1,0.5,1.5,0.8c6.8,2.5,14.2-9.6,20.3-27.6s13.9-31.3,13.9-31.3l51.9-25.7l10.3-0.9l-0.1-0.2l-11.9-0.5
		C673.4,651.7,650.6,662.4,637,668.6z"/>
	<path fill="#203B81" d="M633.6,664.8c-13.6,6.2-13.2,6.5-17.7,14.1c-4,6.6-12.9,24.9-28.3,58.1l0,0c7.8-5.1,26.8-46.2,30.7-52.8
		c4.6-7.5,5-9.4,18.7-15.6c13.6-6.2,36.4-16.9,36.4-16.9l11.9,0.5l-3.9-6.3C681.3,645.9,647.2,658.6,633.6,664.8z"/>
	<path fill="#2A4CA9" d="M706,592.7l-0.9,0.7v0c-1.6,0.9-2.8,2-4.2,3.3l0,0h0c-2.5,2.3-5.2,5-9.9,6.9
		c-31.9,12.2-62.5,33.4-68.9,36.7s-6.8,7.9-12.3,19.7c-5.5,11.8-19.1,45.4-22.9,57c-3.4,10.7-4.4,17,0.7,20
		c15.5-33.2,24.3-51.5,28.3-58.1c4.5-7.6,4.1-7.9,17.7-14.1c13.6-6.2,47.7-18.9,47.8-18.9l3.9,6.3h0.2c0,0,10.3,15.2,28,20.3
		c4.4,1.3,8.2,1.9,11.5,2.2L706,592.7z"/>
</g>
</svg>
