<?xml version="1.0" encoding="UTF-8"?>
<svg width="48px" height="48px" viewBox="0 0 48 48" version="1.1" xmlns="http://www.w3.org/2000/svg" xmlns:xlink="http://www.w3.org/1999/xlink">
    <!-- Generator: Sketch 51.3 (57544) - http://www.bohemiancoding.com/sketch -->
    <title>hair-mohawk</title>
    <desc>Created with Sketch.</desc>
    <defs></defs>
    <g id="SVGs" stroke="none" stroke-width="1" fill="none" fill-rule="evenodd">
        <g id="Slices" transform="translate(-118.000000, -650.000000)"></g>
        <g id="Group-65" transform="translate(13.000000, 12.000000)" fill-rule="nonzero">
            <g id="Group-3" transform="translate(0.000000, 5.333333)">
                <path d="M11.0123901,18.1684341 C16.9900604,18.1684341 21.8359195,15.4505162 21.8359195,10.8531188 C21.8359195,9.51538794 21.4256359,8.16592742 20.6965679,6.92482482 C21.2059437,4.98221863 21.8158468,1.11471731 20.5595469,0.279463135 C18.8759237,-0.839898038 15.9043446,1.72874347 15.0677342,2.27013761 C13.815271,1.79233472 12.446398,1.51978549 11.0123901,1.51978549 C9.60372066,1.51978549 8.2579045,1.78278814 7.02354644,2.24500246 C6.11414412,1.7323154 3.45496071,-0.555654987 1.77333201,0.162082083 C0.00634201434,0.916252268 0.994057022,5.48456765 1.38761247,6.82511394 C0.621467103,8.09346988 0.188860725,9.47947826 0.188860725,10.8531188 C0.188860725,15.4505162 5.0347199,18.1684341 11.0123901,18.1684341 Z" id="Oval-2" fill="#000000"></path>
                <path d="M11.0123901,17.8963511 C16.4207584,17.8963511 20.8051072,14.9599845 20.8051072,11.3377926 C20.8051072,9.05829451 19.0687437,7.04041123 16.4335174,6.60568179 C14.8812888,6.34961292 13.0171935,7.30175655 11.0123901,7.30175655 C9.01981749,7.30175655 7.1662414,6.34892119 5.61970685,6.60101739 C2.96853827,7.03317683 1.21967305,9.05010311 1.21967305,11.3377926 C1.21967305,14.9599845 5.60402183,17.8963511 11.0123901,17.8963511 Z" id="Oval-2" fill="#9B9B9B"></path>
            </g>
            <path d="M10.0276561,0.883059527 L11.9492666,0.224208925 C12.3019072,0.103301258 12.6857939,0.291157885 12.8067015,0.643798446 C12.833924,0.723195706 12.8460995,0.806973734 12.8426036,0.890835316 L12.5857626,7.05204145 C12.5542683,7.80754003 11.9326253,8.40380859 11.1764706,8.40380859 L11.1764706,8.40380859 C10.4213724,8.40380859 9.80161839,7.8063673 9.77394395,7.05177638 L9.57203229,1.54631058 C9.56112744,1.24897117 9.74620057,0.979560427 10.0276561,0.883059527 Z" id="Rectangle-37" fill="#F6D5AE"></path>
        </g>
    </g>
</svg>