<?xml version="1.0" encoding="UTF-8"?>
<svg width="48px" height="48px" viewBox="0 0 48 48" version="1.1" xmlns="http://www.w3.org/2000/svg" xmlns:xlink="http://www.w3.org/1999/xlink">
    <!-- Generator: Sketch 51.3 (57544) - http://www.bohemiancoding.com/sketch -->
    <title>hair-bob</title>
    <desc>Created with Sketch.</desc>
    <defs></defs>
    <g id="SVGs" stroke="none" stroke-width="1" fill="none" fill-rule="evenodd">
        <g id="Slices" transform="translate(-354.000000, -650.000000)"></g>
        <g id="Group-81" transform="translate(13.000000, 15.000000)" fill-rule="nonzero">
            <g id="Group-3" transform="translate(0.333333, 0.000000)">
                <path d="M10.9208984,18.4928705 C16.8119358,18.4928705 21.5875651,15.7264183 21.5875651,11.0469245 C21.5875651,9.68530558 21.1832276,8.31174756 20.4647258,7.04848241 C20.9667194,5.07118682 21.5677832,1.13462298 20.3296906,0.284453549 C18.6704678,-0.854896218 15.741955,1.75961389 14.9174694,2.31067579 C13.6831579,1.8243407 12.3341236,1.54692452 10.9208984,1.54692452 C9.53264446,1.54692452 8.20633288,1.81462364 6.98986407,2.28509179 C6.09364149,1.76324961 3.47299697,-0.565577397 1.81573971,0.164976405 C0.0743582589,0.932613916 1.04775856,5.58250636 1.4356103,6.94699097 C0.680568491,8.23799612 0.254231771,9.64875465 0.254231771,11.0469245 C0.254231771,15.7264183 5.02986111,18.4928705 10.9208984,18.4928705 Z" id="Oval-2" fill="#000000"></path>
                <path d="M10.9208984,18.2159288 C16.2508846,18.2159288 20.5716921,15.227127 20.5716921,11.5402532 C20.5716921,9.22004977 18.8604933,7.16613286 16.2634586,6.7236404 C14.7337261,6.46299886 12.8966467,7.43214506 10.9208984,7.43214506 C8.95720365,7.43214506 7.13049098,6.46229478 5.60636998,6.7188927 C2.99362413,7.15876928 1.27010479,9.21171209 1.27010479,11.5402532 C1.27010479,15.227127 5.59091228,18.2159288 10.9208984,18.2159288 Z" id="Oval-2" fill="#9B9B9B"></path>
            </g>
            <path d="M3.77986654,7.6317749 L4.70186361,8.83782959 C4.94234212,9.18904332 5.24045139,9.36465018 5.59619141,9.36465018 C6.12980143,9.36465018 11.4475098,9.35139683 16.7299805,9.36465018 C17.2834312,9.36603875 17.4104818,9.19658116 17.6746419,8.82975333 C17.8507487,8.58520145 18.1595052,8.18125044 18.6009115,7.6179003 L18.4908854,15.3554949 C18.3461372,16.6313506 18.06977,17.4432286 17.6617839,17.791129 C17.0498047,18.3129796 17.7265625,18.6169782 18.2766927,18.514679 C18.8268229,18.4123797 21.524821,18.1614772 22.2547201,11.8704442 C22.3732295,10.8490059 22.3656982,9.74353688 22.2208659,8.76261684 C21.9814453,7.14106968 20.4863281,0.441667829 11.2351074,0.441667829 C2.15714518,0.441667829 0.438645511,6.82573829 0.198974609,8.62312535 C0.0401204427,9.81443569 0.066265231,10.4706039 0.120442708,11.556257 C0.186279297,12.875545 0.630615234,16.0227182 2.33976237,17.60289 C2.72502694,17.9590818 3.49296061,18.5950067 4.52337646,18.5302516 C4.89967096,18.5066039 4.99220842,18.233034 4.93404134,18.0568172 C4.87908717,17.8903338 4.73137694,17.7989654 4.58984375,17.6540397 C4.389493,17.4488865 4.17041539,17.0242765 4.02209473,16.3257228 C3.95473408,16.0084708 3.86254883,15.3232735 3.86254883,14.8861193 C3.86254883,13.7142472 3.83498806,11.2961324 3.77986654,7.6317749 Z" id="Path-145" fill="#F6D5AE"></path>
        </g>
    </g>
</svg>