<?xml version="1.0" encoding="UTF-8"?>
<svg width="48px" height="48px" viewBox="0 0 48 48" version="1.1" xmlns="http://www.w3.org/2000/svg" xmlns:xlink="http://www.w3.org/1999/xlink">
    <!-- Generator: Sketch 51.3 (57544) - http://www.bohemiancoding.com/sketch -->
    <title>hair-dreadlocksmedium</title>
    <desc>Created with Sketch.</desc>
    <defs></defs>
    <g id="SVGs" stroke="none" stroke-width="1" fill="none" fill-rule="evenodd">
        <g id="Slices" transform="translate(-531.000000, -650.000000)"></g>
        <g id="Group-73" transform="translate(9.000000, 11.000000)" fill-rule="nonzero">
            <path d="M5.23502604,16.0113782 L2.63614909,19.6390638 C2.326199,20.2638625 2.33108181,20.6892668 2.65079753,20.9152768 C3.13037109,21.2542917 3.67856852,21.0236881 3.90958659,20.3036467 C3.97320557,20.7961747 4.19925189,21.791569 4.87972005,22.0378097 C5.51736111,22.2685525 6.09312609,21.945713 6.60701497,21.069291 C6.47604709,21.9847455 6.60126411,22.548963 6.98266602,22.7619436 C7.55476888,23.0814145 8.11787609,22.8220101 8.26513672,22.4352064 C8.36002604,22.7889212 8.44360352,23.297903 9.29541016,23.5167301 C9.86328125,23.6626148 10.3173014,23.5564029 10.6574707,23.1980944 C10.8486599,23.7808538 11.1403537,24.0892719 11.5325521,24.1233488 C11.9247504,24.1574257 12.2610677,23.9552195 12.5415039,23.5167301 C12.8631727,24.0657466 13.2167155,24.3400879 13.6021322,24.3397538 C13.9875488,24.3394197 14.2840441,24.0650785 14.4916178,23.5167301 C14.6207954,24.1344016 14.9734972,24.4989463 15.5497233,24.6103644 C16.1259494,24.7217825 16.4823947,24.559444 16.6190592,24.1233488 C16.7112901,24.4467452 16.9092882,24.6090837 17.2130534,24.6103644 C17.5168186,24.6116451 17.7263997,24.3536741 17.8417969,23.8364515 C18.2076823,24.4186541 18.6167535,24.6335278 19.0690104,24.4810727 C19.5212674,24.3286176 19.7815755,24.00717 19.8499349,23.5167301 C20.0910373,23.8536013 20.3365885,23.9727312 20.5865885,23.8741198 C20.8365885,23.7755084 20.9651421,23.5501666 20.9722493,23.1980944 C21.4041612,23.6427644 21.8917914,23.7508416 22.43514,23.522326 C22.9784885,23.2938104 23.1063639,22.7559022 22.8187663,21.9086015 C23.5298983,22.6478575 24.2354104,22.9323049 24.9353027,22.7619436 C25.3845757,22.6525857 25.6625977,22.2369535 25.7693685,21.5150468 C26.0931532,21.6294159 26.3535428,21.6492941 26.5505371,21.5746813 C26.8460286,21.4627621 26.7985026,20.5678261 26.729248,20.3036467 C27.0388997,20.6906867 27.1310221,20.8239875 27.3013509,21.069291 C27.4339207,21.2602149 27.7118734,21.5976498 28.3454997,21.2812693 C28.979126,20.9648887 28.8129883,20.0909167 28.6187337,19.8084042 C28.4781209,19.6039052 28.0274663,19.0171363 27.6627647,18.6094832 C27.5236363,18.4539694 27.4590461,18.4249246 27.5036214,18.3987234 C27.5641886,18.3631222 27.6029407,18.403018 27.7738977,18.4868331 C28.2080901,18.6997047 28.7076638,18.9486432 29.0521647,19.2312269 C29.5323079,19.6250739 30.1522217,19.6747694 30.4832764,19.3843223 C30.8143311,19.0938753 30.9798177,18.2659655 30.6062012,17.8163677 C30.2325846,17.3667699 28.5314941,15.5632003 27.8127441,15.293926 C27.3335775,15.1144099 26.4988878,14.9865102 25.3086751,14.9102269 L5.23502604,16.0113782 Z" id="Path-140" fill="#D0A573"></path>
            <g id="Group-3" transform="translate(4.333333, 4.105263)">
                <path d="M11.3885091,18.6465508 C17.2795464,18.6465508 22.0551758,15.8571087 22.0551758,11.1387272 C22.0551758,9.76579288 21.6508383,8.38082025 20.9323364,7.10705705 C21.43433,5.11332964 22.0353939,1.14405198 20.7973013,0.286817428 C19.1380784,-0.862000618 16.2095657,1.77423672 15.3850801,2.32987808 C14.1507685,1.83950143 12.8017342,1.55977984 11.3885091,1.55977984 C10.0002551,1.55977984 8.67394356,1.82970362 7.45747475,2.30408147 C6.56125217,1.77790265 3.94060765,-0.570277486 2.28335038,0.1663474 C0.541968936,0.94036417 1.51536923,5.62889838 1.90322098,7.0047222 C1.14817917,8.30645593 0.721842448,9.72893821 0.721842448,11.1387272 C0.721842448,15.8571087 5.49747178,18.6465508 11.3885091,18.6465508 Z" id="Oval-2" fill="#000000"></path>
                <path d="M11.3885091,18.3673078 C16.7184953,18.3673078 21.0393028,15.3536683 21.0393028,11.6361555 C21.0393028,9.29667069 19.3281039,7.22568521 16.7310693,6.77951553 C15.2013368,6.51670799 13.3642574,7.49390804 11.3885091,7.49390804 C9.42481433,7.49390804 7.59810166,6.51599807 6.07398065,6.77472837 C3.46123481,7.21826043 1.73771546,9.28826372 1.73771546,11.6361555 C1.73771546,15.3536683 6.05852296,18.3673078 11.3885091,18.3673078 Z" id="Oval-2" fill="#9B9B9B"></path>
            </g>
            <path d="M11.0756836,5.94061279 L11.9073079,7.22137772 C12.279541,6.31204813 12.9459093,5.9382881 13.9064128,6.10009766 C15.347168,6.34281199 18.4911296,10.4461541 19.6755371,11.5713597 C20.8599447,12.6965653 22.9331055,15.2028873 28.6427409,16.7086182 C29.930718,17.0482803 30.6870117,16.6409655 30.8662923,15.8279644 C31.0455729,15.0149633 30.3486735,14.491741 30.0390625,14.3973196 C29.7294515,14.3028982 28.3789063,13.9471371 28.1658529,13.6912264 C29.2660726,13.9345671 30.1663411,13.5267719 30.2594401,12.8085681 C30.3525391,12.0903642 29.5970866,11.8377107 29.2058105,11.7219495 C28.9449599,11.6447754 28.5061035,11.4819736 27.8892415,11.233544 C28.5410428,11.26916 28.9798991,11.1732113 29.2058105,10.945698 C29.5446777,10.6044279 29.8079427,10.1154914 28.9874674,9.57017758 C28.1669922,9.0248638 24.406901,7.24902344 22.1632487,3.44326943 C19.9195964,-0.362484581 17.6338704,0.924001593 16.586263,1.45770585 C15.7773438,1.3885498 14.7774251,1.08352822 13.5099284,1.95415939 C12.6649306,2.53458016 11.8535156,3.86339797 11.0756836,5.94061279 Z" id="Path-138" fill="#F6D5AE"></path>
            <path d="M11.1306966,5.93021433 C9.71077474,6.33412572 7.94883898,7.49207185 5.84488932,9.40405273 C5.75976562,8.80762361 5.69742839,8.43039744 5.68225098,8.20655903 C5.50752767,8.35305626 3.47713216,9.03939659 2.77587891,12.666748 C2.07462565,16.2940995 1.88606771,16.6935842 0.6796875,17.7377737 C0.328758363,18.0415225 0.21476237,18.1157098 0.276204427,18.3674445 C0.337646484,18.6191792 0.129557292,18.8586362 1.29150391,18.6570145 C2.06613498,18.5226001 2.54516602,18.2363153 2.72859701,17.79816 C2.71242947,18.3472322 2.54966905,18.9185491 2.24031576,19.5121107 C1.94815554,20.0726835 2.47867839,20.2571251 2.65144857,20.1276663 C2.82421875,19.9982075 5.83355648,18.8294944 7.23331706,13.8075722 C8.26364475,10.1110647 9.81602648,7.89890651 11.8904622,7.1710976 L11.1306966,5.93021433 Z" id="Path-139" fill="#F6D5AE"></path>
        </g>
    </g>
</svg>