<?xml version="1.0" encoding="UTF-8"?>
<svg width="48px" height="48px" viewBox="0 0 48 48" version="1.1" xmlns="http://www.w3.org/2000/svg" xmlns:xlink="http://www.w3.org/1999/xlink">
    <!-- Generator: Sketch 51.3 (57544) - http://www.bohemiancoding.com/sketch -->
    <title>hair-frontbangs</title>
    <desc>Created with Sketch.</desc>
    <defs></defs>
    <g id="SVGs" stroke="none" stroke-width="1" fill="none" fill-rule="evenodd">
        <g id="Slices" transform="translate(-177.000000, -650.000000)"></g>
        <g id="Group-78" transform="translate(12.000000, 12.000000)" fill-rule="nonzero">
            <path d="M19.714675,24.4601237 C16.9247018,23.1741536 14.1785907,22.5311686 11.4763417,22.5311686 C8.77409273,22.5311686 6.0173292,23.1741536 3.2060511,24.4601237 L2.52132281,14.7014974 L20.4313606,14.7014974 L19.714675,24.4601237 Z" id="Path-146" fill="#D0A573"></path>
            <g id="Group-3">
                <path d="M11.5559872,18.1684341 C17.5336574,18.1684341 22.3795166,15.4505162 22.3795166,10.8531188 C22.3795166,9.51538794 21.969233,8.16592742 21.2401649,6.92482482 C21.7495408,4.98221863 22.3594438,1.11471731 21.1031439,0.279463135 C19.4195208,-0.839898038 16.4479416,1.72874347 15.6113312,2.27013761 C14.3588681,1.79233472 12.989995,1.51978549 11.5559872,1.51978549 C10.1473177,1.51978549 8.80150155,1.78278814 7.5671435,2.24500246 C6.65774117,1.7323154 3.99855776,-0.555654987 2.31692907,0.162082083 C0.549939067,0.916252268 1.53765408,5.48456765 1.93120952,6.82511394 C1.16506416,8.09346988 0.732457778,9.47947826 0.732457778,10.8531188 C0.732457778,15.4505162 5.57831696,18.1684341 11.5559872,18.1684341 Z" id="Oval-2" fill="#000000"></path>
                <path d="M11.5559872,17.8963511 C16.9643555,17.8963511 21.3487043,14.9599845 21.3487043,11.3377926 C21.3487043,9.05829451 19.6123408,7.04041123 16.9771144,6.60568179 C15.4248858,6.34961292 13.5607906,7.30175655 11.5559872,7.30175655 C9.56341454,7.30175655 7.70983845,6.34892119 6.1633039,6.60101739 C3.51213532,7.03317683 1.7632701,9.05010311 1.7632701,11.3377926 C1.7632701,14.9599845 6.14761888,17.8963511 11.5559872,17.8963511 Z" id="Oval-2" fill="#9B9B9B"></path>
            </g>
            <path d="M4.06551226,6.56815592 L5.09842637,9.40250651 C5.28061871,9.80365668 5.58159802,10.0042318 6.00136432,10.0042318 C6.42113061,10.0042318 10.2016697,10.0042318 17.3429817,10.0042318 C17.7530039,9.88140191 18.0006247,9.68082682 18.0858442,9.40250651 C18.1710636,9.1241862 18.5106201,8.17485894 19.1045137,6.55452474 L18.9928697,23.6582031 C18.8459927,24.9116753 18.5655613,25.7093099 18.1515754,26.0511068 C17.5305966,26.5638021 18.2173067,26.8624674 18.7755271,26.7619629 C19.3337474,26.6614583 22.4252642,26.136556 22.4252642,19.9256185 C22.4252642,13.714681 22.4297956,11.5862498 22.4252642,9.65364583 C22.421592,8.08744227 21.0106381,1.48323568 11.62337,1.48323568 C2.23610194,1.48323568 0.731771376,7.55153679 0.741376091,9.65364583 C0.754670985,12.5633952 0.738898782,16.4056803 0.741376091,19.9256185 C0.742459716,21.4653103 0.869948443,24.3137207 2.6042301,25.8661702 C2.99516032,26.2161131 3.77438714,26.8408813 4.81995616,26.7772624 C5.2017844,26.7540295 5.2956827,26.4852591 5.23666023,26.3121338 C5.18089791,26.1485712 5.03101546,26.0588057 4.88740091,25.9164225 C4.68410383,25.7148686 4.46180448,25.2977078 4.31130263,24.6114095 C4.24295139,24.2997233 4.14941047,23.626547 4.14941047,23.1970622 C4.14941047,22.0457492 4.1214444,16.5027805 4.06551226,6.56815592 Z" id="Path-145" fill="#F6D5AE"></path>
        </g>
    </g>
</svg>