<?xml version="1.0" encoding="UTF-8"?>
<svg width="48px" height="48px" viewBox="0 0 48 48" version="1.1" xmlns="http://www.w3.org/2000/svg" xmlns:xlink="http://www.w3.org/1999/xlink">
    <!-- Generator: Sketch 51.3 (57544) - http://www.bohemiancoding.com/sketch -->
    <title>hair-dipdyed</title>
    <desc>Created with Sketch.</desc>
    <defs></defs>
    <g id="SVGs" stroke="none" stroke-width="1" fill="none" fill-rule="evenodd">
        <g id="Slices" transform="translate(-590.000000, -591.000000)"></g>
        <g id="Group-77" transform="translate(11.000000, 12.000000)" fill-rule="nonzero">
            <path d="M3.33669562,6.73861417 C0.525240714,8.91457298 0.0849138226,12.6085871 2.01571495,17.8206565 C3.26145781,21.1834567 2.6500212,22.614649 2.0866136,23.4481534 C1.78445858,23.8951611 1.52443976,24.1615989 1.71119449,24.4798695 C1.89794922,24.7981401 2.53371711,24.777832 2.93679328,24.5496993 C3.33986945,24.3215665 4.04095138,23.5981334 4.24908769,22.7295477 C4.40569105,23.2591386 4.8301488,24.2596436 6.17543431,25.1613548 C7.52071983,26.063066 9.37991494,26.3203291 9.85131193,26.4715576 C10.3227089,26.6227861 11.6345022,27.0232045 12.2973312,28.1540472 C12.9601601,29.2848899 12.9813746,29.4675376 13.4337287,29.521304 C13.8860827,29.5750705 13.9177375,29.0492665 13.9605841,28.7771884 C14.0034308,28.5051103 13.9334396,27.7263711 14.6392822,26.8268655 C15.6338582,25.5594065 16.9537129,24.7169495 18.2325568,24.1329679 C19.5114007,23.5489863 20.7961747,23.440746 21.1245824,23.8060414 C21.4529901,24.1713368 21.674824,24.6357588 21.5355931,25.1613548 C21.3963623,25.6869507 21.1772429,25.7577792 21.3834999,25.9992287 C21.589757,26.2406783 21.9825182,26.191323 22.3882671,25.6768799 C22.794016,25.1624367 23.0507202,23.4786571 22.4132819,22.0997897 C21.7758436,20.7209223 22.4209659,20.2106823 22.7342561,19.7410583 C23.0475464,19.2714344 26.1568539,15.4148171 24.9887181,10.6089644 C24.2099609,7.40506259 19.617376,5.24186568 11.2109632,4.11937367 L3.33669562,6.73861417 Z" id="Path-144" fill="#14473B"></path>
            <g id="Group-3" transform="translate(1.368421, 0.000000)">
                <path d="M11.6882067,18.5813531 C17.7342714,18.5813531 22.6355751,15.8016643 22.6355751,11.0997806 C22.6355751,9.73164675 22.2205972,8.35151668 21.4831874,7.0822072 C21.9983914,5.09545087 22.6152727,1.14005179 21.3445987,0.28581457 C19.6417121,-0.85898663 16.6361332,1.76803309 15.7899506,2.32173165 C14.5231572,1.8330696 13.138622,1.55432607 11.6882067,1.55432607 C10.2634197,1.55432607 8.90220523,1.82330605 7.65372409,2.29602525 C6.7339167,1.77168621 4.04430785,-0.568283509 2.34343855,0.165765766 C0.556231276,0.937076184 1.55524737,5.60921692 1.95330574,6.98023016 C1.17839441,8.27741237 0.740838302,9.69492094 0.740838302,11.0997806 C0.740838302,15.8016643 5.64214209,18.5813531 11.6882067,18.5813531 Z" id="Oval-2" fill="#000000"></path>
                <path d="M11.6882067,18.3030864 C17.1584557,18.3030864 21.5929686,15.2999841 21.5929686,11.5954697 C21.5929686,9.26416484 19.8367383,7.20042057 17.1713606,6.75581093 C15.6013719,6.4939223 13.7159484,7.46770556 11.6882067,7.46770556 C9.67283576,7.46770556 7.7980517,6.49321486 6.23382225,6.75104051 C3.55231994,7.19302176 1.78344482,9.25578727 1.78344482,11.5954697 C1.78344482,15.2999841 6.21795777,18.3030864 11.6882067,18.3030864 Z" id="Oval-2" fill="#9B9B9B"></path>
            </g>
            <path d="M25.2791448,1.40059038 C24.911983,3.95308061 23.5666139,6.07865767 21.2430377,7.77732156 C19.5330077,9.02744883 16.0358503,9.24216531 15.9179175,13.7028642 C15.8852084,14.9400586 14.5811512,12.2015658 15.012646,10.6953569 C14.184945,11.5657737 13.7593803,13.3197576 13.8121661,15.2881414 C13.828817,15.9090537 13.2844754,16.033131 13.0516166,15.2881414 C12.8187579,14.5431519 12.0035229,11.2834584 13.7913904,7.83375133 C14.6886851,6.1024127 16.5121963,5.1615767 17.3283712,4.5624889 C20.5184952,2.22087776 23.1687531,1.16691159 25.2791448,1.40059038 Z" id="Path-143" fill="#F6D5AE" transform="translate(18.971307, 8.585096) scale(-1, 1) translate(-18.971307, -8.585096) "></path>
            <path d="M13.4493472,1.40059038 C13.0821854,3.95308061 11.7368164,6.07865767 9.41324013,7.77732156 C7.7032102,9.02744883 4.20605277,9.24216531 4.08811999,13.7028642 C4.05541082,14.9400586 2.7513537,12.2015658 3.18284848,10.6953569 C2.35514751,11.5657737 1.92958278,13.3197576 1.98236855,15.2881414 C1.99901944,15.9090537 1.45467787,16.033131 1.22181911,15.2881414 C0.988960351,14.5431519 0.173725329,11.2834584 1.96159282,7.83375133 C2.85888759,6.1024127 4.68239875,5.1615767 5.4985737,4.5624889 C8.68869771,2.22087776 11.3389556,1.16691159 13.4493472,1.40059038 Z" id="Path-143" fill="#F6D5AE"></path>
        </g>
    </g>
</svg>