<?xml version="1.0" encoding="UTF-8"?>
<svg width="48px" height="48px" viewBox="0 0 48 48" version="1.1" xmlns="http://www.w3.org/2000/svg" xmlns:xlink="http://www.w3.org/1999/xlink">
    <!-- Generator: Sketch 51.3 (57544) - http://www.bohemiancoding.com/sketch -->
    <title>hair-pompadour</title>
    <desc>Created with Sketch.</desc>
    <defs></defs>
    <g id="SVGs" stroke="none" stroke-width="1" fill="none" fill-rule="evenodd">
        <g id="Slices" transform="translate(-707.000000, -650.000000)"></g>
        <g id="Group-49" transform="translate(13.000000, 13.000000)" fill-rule="nonzero">
            <g id="Group-3" transform="translate(0.000000, 2.750000)">
                <path d="M10.8349609,18.7361977 C16.8126312,18.7361977 21.6584903,15.9333448 21.6584903,11.1922788 C21.6584903,9.81274381 21.2482067,8.42111265 20.5191387,7.1412256 C21.0285145,5.13791296 21.6384176,1.14955223 20.3821177,0.288196358 C18.6984945,-0.866144852 15.7269154,1.7827667 14.890305,2.34107941 C13.6378418,1.84834518 12.2689688,1.56727879 10.8349609,1.56727879 C9.42629146,1.56727879 8.0804753,1.83850027 6.84611725,2.31515879 C5.93671492,1.78645026 3.27753151,-0.573019205 1.59590281,0.167147148 C-0.171087185,0.944885152 0.816627823,5.65596039 1.21018327,7.03839875 C0.444037904,8.34639081 0.0114315257,9.77571195 0.0114315257,11.1922788 C0.0114315257,15.9333448 4.8572907,18.7361977 10.8349609,18.7361977 Z" id="Oval-2" fill="#000000"></path>
                <path d="M10.8349609,18.4556121 C16.2433292,18.4556121 20.627678,15.427484 20.627678,11.6920986 C20.627678,9.34136622 18.8913145,7.26042408 16.2560882,6.81210935 C14.7038596,6.54803832 12.8397643,7.52993644 10.8349609,7.52993644 C8.84238829,7.52993644 6.9888122,6.54732498 5.44227765,6.80729918 C2.79110907,7.25296361 1.04224385,9.33291883 1.04224385,11.6920986 C1.04224385,15.427484 5.42659263,18.4556121 10.8349609,18.4556121 Z" id="Oval-2" fill="#9B9B9B"></path>
            </g>
            <path d="M8.57694926,-1.37215038e-14 L13.2791192,1.13081959e-05 C14.5809863,1.13081959e-05 15.7342687,0.839668777 16.1341111,2.07861347 C16.3308365,2.68818332 16.4291992,3.25426399 16.4291992,3.77685547 C16.4291992,4.36002067 16.3870929,4.94301957 16.3028803,5.52585219 L16.3028829,5.52585257 C16.1749316,6.41139951 15.4743801,7.10422264 14.5874683,7.22234305 C13.3515865,7.38693987 12.1361511,7.46923828 10.9411621,7.46923828 C9.73283529,7.46923828 8.52470524,7.38509248 7.31677196,7.21680088 L7.31677203,7.21680039 C6.46180225,7.09768435 5.77973352,6.44346406 5.62510099,5.59419924 C5.5138683,4.98329278 5.45825195,4.33926283 5.45825195,3.66210937 C5.45825195,3.11606853 5.55225598,2.56992294 5.74026403,2.0236726 L5.74026319,2.02367231 C6.15701109,0.812826908 7.29639258,-1.35315311e-14 8.57694926,-1.37667655e-14 Z" id="Rectangle-36" fill="#F6D5AE"></path>
        </g>
    </g>
</svg>