<?xml version="1.0" encoding="UTF-8"?>
<svg width="48px" height="48px" viewBox="0 0 48 48" version="1.1" xmlns="http://www.w3.org/2000/svg" xmlns:xlink="http://www.w3.org/1999/xlink">
    <!-- Generator: Sketch 51.3 (57544) - http://www.bohemiancoding.com/sketch -->
    <title>hair-sidepartsbangsstraightmed</title>
    <desc>Created with Sketch.</desc>
    <defs></defs>
    <g id="SVGs" stroke="none" stroke-width="1" fill="none" fill-rule="evenodd">
        <g id="Slices" transform="translate(-118.000000, -591.000000)"></g>
        <g id="Group-60" transform="translate(12.000000, 10.000000)" fill-rule="nonzero">
            <path d="M4.18854081,28.3043478 C4.18854081,28.1880254 3.2767334,25.5681391 3.5806692,23.6531797 C3.96378367,24.8488982 4.3184172,27.4798902 8.14229544,29.2193789 C8.81334191,29.5246391 9.46720163,29.3686895 9.3470973,28.6198332 C9.22699296,27.870977 9.0286287,25.6780449 9.91563014,23.8205885 C9.91563014,24.7055107 9.68506045,27.1849605 12.7035041,29.8300304 C13.0730045,30.1538245 13.3874362,30.1538245 13.6467992,29.8300304 C14.8765184,27.9565324 15.7827298,26.3109078 16.3654335,24.8931566 C16.3654335,25.6694893 16.3469752,27.1180075 16.1901213,28.1686932 C16.0332674,29.2193789 17.1416016,28.7444644 17.9234491,27.99495 C18.7052966,27.2454356 19.8571456,26.6797008 21.3495965,23.6531797 C22.3445638,21.6354989 22.4521677,18.0971264 21.6724083,13.0380621 L1.8820865,13.0380621 L1.8820865,23.9329622 L2.98641165,27.2467519 C3.78783109,28.0293641 4.18854081,28.3818961 4.18854081,28.3043478 Z" id="Path-115" fill="#D0A573"></path>
            <g id="Group-3" transform="translate(0.368421, 0.000000)">
                <path d="M11.6882067,18.3659171 C17.7342714,18.3659171 22.6355751,15.6184566 22.6355751,10.9710875 C22.6355751,9.61881607 22.2205972,8.2546875 21.4831874,7.00009466 C21.9983914,5.03637318 22.6152727,1.1268338 21.3445987,0.282500778 C19.6417121,-0.849027365 16.6361332,1.74753416 15.7899506,2.29481302 C14.5231572,1.81181662 13.138622,1.5363049 11.6882067,1.5363049 C10.2634197,1.5363049 8.90220523,1.80216627 7.65372409,2.26940466 C6.7339167,1.75114492 4.04430785,-0.561694715 2.34343855,0.163843844 C0.556231276,0.926211532 1.55524737,5.54418252 1.95330574,6.89929996 C1.17839441,8.18144238 0.740838302,9.58251606 0.740838302,10.9710875 C0.740838302,15.6184566 5.64214209,18.3659171 11.6882067,18.3659171 Z" id="Oval-2" fill="#000000"></path>
                <path d="M11.6882067,18.0908767 C17.1584557,18.0908767 21.5929686,15.122593 21.5929686,11.4610295 C21.5929686,9.15675424 19.8367383,7.11693744 17.1713606,6.67748268 C15.6013719,6.41863045 13.7159484,7.38112347 11.6882067,7.38112347 C9.67283576,7.38112347 7.7980517,6.4179312 6.23382225,6.67276758 C3.55231994,7.10962441 1.78344482,9.1484738 1.78344482,11.4610295 C1.78344482,15.122593 6.21795777,18.0908767 11.6882067,18.0908767 Z" id="Oval-2" fill="#9B9B9B"></path>
            </g>
            <path d="M8.49492444,4.32696268 C8.5489352,4.10879649 8.65188973,3.99261121 8.80378803,3.97840682 C8.95568633,3.96420244 9.09848076,4.08038772 9.23217131,4.32696268 C11.130566,8.2126571 13.8250347,10.4135963 17.3155775,10.9297804 C17.8083112,11.0026462 18.0798406,10.8660593 18.1301655,10.5200195 C18.0533255,10.3899863 17.8825791,10.2922009 17.6179263,10.2266633 C17.2209473,10.1283569 16.9527588,9.67326819 16.7584871,9.39529552 C16.5642154,9.11732284 16.8574604,9.12357496 16.9950208,9.23438561 C17.1325812,9.34519627 19.5240607,11.0224105 23.5621723,11.1938503 C24.42154,11.2303351 24.5032124,10.6725384 24.388704,10.4820132 C24.2741956,10.291488 21.9124499,7.64930791 20.2811022,4.72750987 C18.6497546,1.80571183 14.3139713,1.22335948 13.3933105,1.18889054 C12.4726498,1.1544216 5.99662058,1.22969387 2.57590204,5.56718644 C1.08787726,7.45401119 0.29820655,9.10495555 0.206889905,10.5200195 L0.206889905,21.4995701 C0.230554413,24.1712558 1.32382684,26.6013573 3.48670719,28.7898745 C3.79470418,29.1015223 4.076204,28.9073486 4.17116828,28.7898745 C4.26613256,28.6724004 4.37387567,28.2999055 4.17116828,27.9999682 C3.96846089,27.7000308 2.71580104,25.5254437 2.57590204,24.0845762 C2.48263603,23.1239978 2.48263603,18.9803759 2.57590204,11.6537104 C4.23694865,10.4101097 5.53242734,9.21277333 6.4623381,8.06170124 C7.39224885,6.91062914 8.06977764,5.66571629 8.49492444,4.32696268 Z" id="Path-113" fill="#F6D5AE"></path>
            <path d="M20.9910375,11.2319389 C21.6918611,11.4077113 22.3672841,11.5036595 23.0173063,11.5197834 C23.0104576,12.0304282 23.0276352,15.6480218 23.0688393,22.3725639 C23.1677291,24.8057914 22.5785385,26.6722969 21.3012676,27.9720804 C19.3853612,29.9217556 19.2506405,28.4351488 19.7172768,27.9720804 C20.183913,27.509012 20.8443732,25.5225644 20.8443732,24.2301848 C20.8443732,23.3685984 20.8932613,19.0358498 20.9910375,11.2319389 Z" id="Path-114" fill="#F6D5AE"></path>
        </g>
    </g>
</svg>