<?xml version="1.0" encoding="UTF-8"?>
<svg width="48px" height="48px" viewBox="0 0 48 48" version="1.1" xmlns="http://www.w3.org/2000/svg" xmlns:xlink="http://www.w3.org/1999/xlink">
    <!-- Generator: Sketch 51.3 (57544) - http://www.bohemiancoding.com/sketch -->
    <title>hair-pigtails</title>
    <desc>Created with Sketch.</desc>
    <defs></defs>
    <g id="SVGs" stroke="none" stroke-width="1" fill="none" fill-rule="evenodd">
        <g id="Slices" transform="translate(-413.000000, -650.000000)"></g>
        <g id="Group-82" transform="translate(11.000000, 14.000000)" fill-rule="nonzero">
            <path d="M15.7817261,17.9158714 C16.3749329,19.1397372 17.3540619,19.9945901 18.7191132,20.4804299 C18.9824041,20.5741386 19.2154516,20.567508 19.4182556,20.460538 C23.5576843,18.0507591 25.620752,15.7650479 25.6074585,13.6034047 C25.594165,11.4417614 24.5517822,10.0069913 22.4803101,9.29909446 L15.7817261,17.9158714 Z" id="Path-157" fill="#F6D5AE"></path>
            <g id="Group-3" transform="translate(1.700000, 0.000000)">
                <path d="M11.5308655,18.5813531 C17.4955408,18.5813531 22.3308655,15.8016643 22.3308655,11.0997806 C22.3308655,9.73164675 21.9214737,8.35151668 21.1939907,7.0822072 C21.7022592,5.09545087 22.3108363,1.14005179 21.0572675,0.28581457 C19.3773044,-0.85898663 16.4121852,1.76803309 15.5773936,2.32173165 C14.3276531,1.8330696 12.9617559,1.55432607 11.5308655,1.55432607 C10.1252583,1.55432607 8.78236785,1.82330605 7.55069319,2.29602525 C6.64326782,1.77168621 3.98986524,-0.568283509 2.31189226,0.165765766 C0.548743548,0.937076184 1.53431135,5.60921692 1.92701124,6.98023016 C1.16253141,8.27741237 0.730865479,9.69492094 0.730865479,11.0997806 C0.730865479,15.8016643 5.56619018,18.5813531 11.5308655,18.5813531 Z" id="Oval-2" fill="#000000"></path>
                <path d="M11.5308655,18.3030864 C16.9274765,18.3030864 21.302294,15.2999841 21.302294,11.5954697 C21.302294,9.26416484 19.5697052,7.20042057 16.9402077,6.75581093 C15.3913535,6.4939223 13.5313106,7.46770556 11.5308655,7.46770556 C9.54262451,7.46770556 7.69307793,6.49321486 6.14990541,6.75104051 C3.50450025,7.19302176 1.75943691,9.25578727 1.75943691,11.5954697 C1.75943691,15.2999841 6.13425449,18.3030864 11.5308655,18.3030864 Z" id="Oval-2" fill="#9B9B9B"></path>
            </g>
            <path d="M2.56088867,12.3907055 C3.20928848,11.8530697 3.63253677,11.2891742 3.83063354,10.699019 C4.19897461,9.60168457 5.4708252,8.80224609 6.63725586,8.25056596 C10.1959354,6.56743738 13.4622559,7.55529785 14.2853882,8.04016113 C15.1085205,8.52502441 15.3413086,8.78759766 16.3127441,8.92028809 C17.2841797,9.05297852 17.7086731,8.49126642 18.0420532,8.39904785 C18.3754333,8.30682928 20.9029328,5.49698177 22.0518433,10.6983532 C22.2728012,11.6986784 22.8358505,12.4565686 23.7409912,12.9720237 C24.5003662,12.1153121 24.7905701,11.4873713 24.6116028,11.0882013 C24.4326355,10.6890314 24.2831116,10.3686523 24.163031,10.1270641 C24.1273417,7.57148881 23.3743896,5.55094401 21.9041748,4.06542969 C19.6988525,1.8371582 18.1514771,1.63163619 16.7227051,1.56089089 C15.2939331,1.4901456 14.298217,1.64878152 13.8908691,1.25593706 C13.4835213,0.863092596 10.768335,-0.546819513 7.13295898,1.04053844 C4.709375,2.09877708 3.34619141,4.01250666 3.0434082,6.78172718 C2.15462646,7.26593942 1.50946045,7.89822665 1.10791016,8.67858887 C0.505584717,9.84913219 0.105834961,11.4188232 0.344067383,13.2180509 C0.582299805,15.0172785 1.49334717,17.0544434 5.42749634,20.3203791 C5.68140402,20.5311607 6.15436545,20.564841 6.84638062,20.42142 C8.01203003,20.0238592 9.01741638,19.3063909 9.86253967,18.2690152 C9.25263367,18.1281072 6.61204224,17.616702 4.35501099,15.5909729 C3.5168613,14.8387174 2.91882052,13.7719616 2.56088867,12.3907055 Z" id="Path-156" fill="#F6D5AE"></path>
            <path d="M18.787915,20.3929554 L19.3066071,20.3929554 C20.5940948,21.6721413 21.3793701,22.5243586 21.6624329,22.9496072 C22.087027,23.58748 23.0765793,25.178292 22.2527283,26.3478782 C21.4288773,27.5174644 20.9759796,27.7266624 20.8189713,27.2812167 C20.7518721,27.0908508 20.9241516,26.5179998 20.8541962,26.3478782 C20.7842407,26.1777566 20.5118347,25.9394698 20.242807,26.0810436 C19.9737793,26.2226174 20.086499,27.3850458 20.2665375,27.8789728 C20.4465759,28.3728998 20.314122,29.0921298 19.9100449,29.408611 C19.5059677,29.7250921 18.7713531,29.5731146 18.5529175,29.258839 C18.3344818,28.9445634 18.4820557,28.7762729 18.787915,28.769448 C19.0937744,28.7626232 19.2660992,28.3910308 18.8528854,28.1031938 C18.7092667,28.0031516 16.5646667,27.4378598 16.3721039,25.0320157 C16.2833634,23.9233089 16.7668049,23.2077285 17.5703278,22.1540139 C17.809583,21.8402621 18.2154454,21.2532426 18.787915,20.3929554 Z" id="Path-158" fill="#D0A573"></path>
            <path d="M5.59558716,20.2845903 L6.652005,20.2845903 C7.01004944,20.9072599 7.64692688,21.6367132 8.56263733,22.4729503 C9.35967644,23.2008154 9.36370544,23.8410811 9.3489563,24.2499889 C9.32923519,24.7967403 9.31270142,25.1693448 8.45230713,26.2236994 C8.21017762,26.5204126 8.05560455,26.8543729 8.02062683,27.1512951 C7.98564911,27.4482172 8.12893829,28.0569181 8.59761505,28.1237516 C9.06629181,28.190585 9.15198517,28.3785178 9.22255859,28.5533003 C9.29313202,28.7280828 9.06946411,28.9420665 8.53330383,29.0034069 C7.99714355,29.0647472 7.25107574,28.8499312 6.90636597,28.0563354 C6.67655945,27.5272716 6.59177246,27.0038258 6.652005,26.485998 C6.67807007,26.2570052 6.65892639,26.1216042 6.59457397,26.0797951 C6.49804535,26.0170815 6.45449829,26.1656883 6.44386902,26.2679776 C6.43323975,26.370267 6.56149759,28.0699217 4.61897125,28.2145968 C4.03283691,28.2582508 3.69438934,28.045682 3.70365906,27.9066467 C3.71292877,27.7676114 3.92683258,27.7022344 4.07782593,27.7190469 C4.22881927,27.7358593 4.9809433,27.647927 4.84824219,26.9718517 C4.80229073,26.7377418 4.65407257,26.5864979 4.54345398,26.485998 C4.43283539,26.385498 3.17100067,25.693942 3.26472778,24.1906461 C3.34170185,22.9560535 4.89240723,22.2654585 5.22051392,21.5343683 C5.43925171,21.0469749 5.56427612,20.6303822 5.59558716,20.2845903 Z" id="Path-159" fill="#D0A573"></path>
        </g>
    </g>
</svg>