<?xml version="1.0" encoding="UTF-8"?>
<svg width="48px" height="48px" viewBox="0 0 48 48" version="1.1" xmlns="http://www.w3.org/2000/svg" xmlns:xlink="http://www.w3.org/1999/xlink">
    <!-- Generator: Sketch 51.3 (57544) - http://www.bohemiancoding.com/sketch -->
    <title>hair-milkmaidbraids</title>
    <desc>Created with Sketch.</desc>
    <defs></defs>
    <g id="SVGs" stroke="none" stroke-width="1" fill="none" fill-rule="evenodd">
        <g id="Slices" transform="translate(-531.000000, -591.000000)"></g>
        <g id="Group-71" transform="translate(11.000000, 14.000000)" fill-rule="nonzero">
            <g id="Group-3" transform="translate(1.700000, 0.000000)">
                <path d="M11.5308655,18.435617 C17.4955408,18.435617 22.3308655,15.6777297 22.3308655,11.0127235 C22.3308655,9.65532011 21.9214737,8.28601459 21.1939907,7.02666048 C21.7022592,5.05548655 22.3108363,1.13111021 21.0572675,0.283572887 C19.3773044,-0.85224948 16.4121852,1.75416617 15.5773936,2.30352199 C14.3276531,1.81869259 12.9617559,1.54213528 11.5308655,1.54213528 C10.1252583,1.54213528 8.78236785,1.80900561 7.55069319,2.2780172 C6.64326782,1.75779063 3.98986524,-0.563826384 2.31189226,0.164465643 C0.548743548,0.929726566 1.53431135,5.56522306 1.92701124,6.92548326 C1.16253141,8.21249149 0.730865479,9.61888235 0.730865479,11.0127235 C0.730865479,15.6777297 5.56619018,18.435617 11.5308655,18.435617 Z" id="Oval-2" fill="#000000"></path>
                <path d="M11.5308655,18.1595328 C16.9274765,18.1595328 21.302294,15.1799842 21.302294,11.5045248 C21.302294,9.19150473 19.5697052,7.14394669 16.9402077,6.70282417 C15.3913535,6.44298958 13.5313106,7.40913532 11.5308655,7.40913532 C9.54262451,7.40913532 7.69307793,6.44228768 6.14990541,6.69809117 C3.50450025,7.1366059 1.75943691,9.18319286 1.75943691,11.5045248 C1.75943691,15.1799842 6.13425449,18.1595328 11.5308655,18.1595328 Z" id="Oval-2" fill="#9B9B9B"></path>
            </g>
            <path d="M12.5617157,6.21226591 C12.4036224,7.33162435 12.9453033,8.68687768 14.1867584,10.2780259 C14.5151896,10.6989696 14.9517365,11.1068097 15.2196106,10.9490877 C15.4874847,10.7913657 15.4155518,10.4000747 15.2196106,10.1394205 C15.0236694,9.87876623 14.4093815,9.21047076 13.9647516,8.30773926 C14.3344559,8.7749185 15.1527039,10.1069677 17.0346619,10.6537099 C17.4241431,10.7668611 17.9216178,10.6861008 18.5270859,10.411429 C18.6502151,10.2774892 18.6502151,10.1452834 18.5270859,10.0148118 C18.342392,9.81910436 18.2150055,9.77806361 17.9547119,9.78210988 C17.6944183,9.78615615 15.6239761,9.7239344 13.7761307,6.53485287 C13.6933212,6.36889379 13.7233773,6.33112367 13.7939903,6.28109382 C13.8610069,6.23361206 13.9519119,6.26472982 14.0667053,6.37444709 C15.1084839,7.57313448 16.4044861,8.2175652 17.9547119,8.30773926 C20.2800507,8.44300034 21.8020554,10.2231122 21.9383408,10.5187378 C22.0746262,10.8143634 22.6998581,12.5301891 21.7175156,13.9156656 C20.735173,15.3011421 20.7192003,16.5008293 20.7291168,17.2012796 C20.7334015,17.5039242 20.7834991,18.1715178 21.5803238,19.1301539 C22.3771484,20.08879 22.3452194,20.5906516 22.2617096,20.9102658 C22.1233678,21.4397364 21.8693741,21.7851275 22.0018692,22.0985072 C22.1343643,22.4118868 22.488385,22.096773 22.6605133,21.8878946 C22.8326416,21.6790161 23.2569885,20.9031228 23.2694717,20.2838781 C23.281955,19.6646334 22.4726883,18.2993469 22.3300171,18.0262649 C22.1873459,17.7531828 22.0472702,16.3056084 22.3300171,15.8481733 C22.612764,15.3907381 23.0898865,14.9478778 23.7186615,14.546884 C24.3474365,14.1458902 24.7866562,12.7416274 24.7908585,11.9801851 C24.79366,11.4725569 24.5701431,10.9496382 24.1203079,10.411429 C24.6199936,9.61615768 24.7397034,8.84918273 24.4794373,8.11050415 C24.2191711,7.37182557 23.6373077,6.79313989 22.733847,6.37444709 C22.8443695,5.7293007 22.6003769,5.0220289 22.0018692,4.25263169 C21.4033615,3.48323448 20.6127991,3.12253825 19.6301819,3.170543 C18.9726501,2.28124402 18.4141602,1.62205954 17.9547119,1.19298957 C17.2655396,0.549384622 15.6280548,-0.0266723633 14.1867584,1.31883689 C13.643512,0.972591625 11.8564758,-0.248474121 10.6092255,0.0751450483 C9.3619751,0.398764218 8.7453125,2.04320212 8.56107178,2.64155489 C8.17545166,2.49795353 6.79941406,2.06434183 5.92113953,2.53982005 C5.04286499,3.01529828 4.83258667,3.93165499 4.73585205,4.49780273 C4.27178955,4.47914034 3.46701355,4.39474667 2.56987,5.17592486 C1.97177429,5.69671032 1.81120911,6.59649658 2.08817444,7.87528363 C0.902529907,8.20476577 0.235083008,8.84037452 0.0858337402,9.78210988 C-0.0634155273,10.7238452 0.19616394,11.5410958 0.864572144,12.2338616 C0.695053101,12.9278385 0.735922241,13.4884398 0.987179565,13.9156656 C1.36406555,14.5565042 2.38101501,15.1341301 2.85298767,15.5144797 C3.32496033,15.8948292 3.63032532,16.4916956 3.55130615,16.9589987 C3.47228699,17.4263018 3.31111755,17.9949269 2.92253113,18.4694142 C2.5339447,18.9439015 2.17971802,20.0593513 2.69247742,21.1105562 C3.20523682,22.1617611 4.75323792,22.1431813 4.94810791,22.0985072 C5.14297791,22.053833 5.27670898,21.8781092 4.94810791,21.7724933 C4.61950684,21.6668773 3.59555359,21.1169146 3.55130615,20.2838781 C3.50705872,19.4508416 3.99015503,18.9650412 4.1890625,18.7669391 C4.38796997,18.5688369 5.82325134,16.7708884 4.94810791,15.5144797 C4.07296448,14.258071 3.00525818,12.5150362 3.43545532,10.9490877 C3.86565247,9.38313922 4.87337341,8.43746769 6.52313538,8.30773926 C8.17289734,8.17801083 8.24598389,8.55480957 8.76105042,8.69469497 C9.27611694,8.83458037 10.4225952,8.86245009 11.3437164,8.21104162 C11.9577972,7.7767693 12.363797,7.11051073 12.5617157,6.21226591 Z" id="Path-136" fill="#F6D5AE"></path>
        </g>
    </g>
</svg>