<?xml version="1.0" encoding="UTF-8"?>
<svg width="48px" height="48px" viewBox="0 0 48 48" version="1.1" xmlns="http://www.w3.org/2000/svg" xmlns:xlink="http://www.w3.org/1999/xlink">
    <!-- Generator: Sketch 51.3 (57544) - http://www.bohemiancoding.com/sketch -->
    <title>hair-softwaveslong</title>
    <desc>Created with Sketch.</desc>
    <defs></defs>
    <g id="SVGs" stroke="none" stroke-width="1" fill="none" fill-rule="evenodd">
        <g id="Slices" transform="translate(-472.000000, -591.000000)"></g>
        <g id="Group-70" transform="translate(10.000000, 12.000000)" fill-rule="nonzero">
            <path d="M3.7718099,24.8017578 C4.40657552,24.5761719 7.02644857,24.0237223 7.39754232,23.9937744 C7.29700691,23.4673271 7.37223491,22.014969 7.45712972,20.9523433 C7.47483334,20.7307478 7.51113753,20.5659826 7.59216309,20.6577148 C7.63989258,20.7117513 7.64833733,20.7249065 7.6697998,20.9320475 C7.76621949,21.8626235 7.84467671,22.9407493 8.16691081,23.7717285 C9.25382487,23.8352051 11.0637207,23.5260417 11.222819,23.3039551 C10.9966634,22.5625 10.7087402,21.3154297 11.2434896,19.3094076 C11.3356514,18.9636782 11.4278158,18.8565674 11.5124512,18.9075928 C11.5970866,18.9586182 11.6073405,19.1099447 11.5441081,19.3194987 C11.4808757,19.5290527 11.2823079,20.7502441 11.5216471,21.4450684 C11.7609863,22.1398926 12.2657064,22.7538249 12.256429,23.2544759 C12.7674967,23.3404134 14.0314128,23.374349 14.3350423,23.3039551 C14.3235677,22.8793945 14.1371257,21.4098307 14.1540527,20.7029622 C14.1709798,19.9960937 14.479248,20.2902425 14.5013021,20.4595133 C14.6564821,21.650563 15.0524902,22.6709798 15.3378906,23.2770182 C15.8042806,23.3765462 17.3604329,23.445109 17.7919922,23.4041748 C17.7152174,23.0672531 17.3491952,22.3745661 17.3515218,21.1870117 C17.3528649,20.5014854 17.411377,19.8195394 17.7032878,19.1011556 C17.8333386,18.7811045 17.9000244,18.6899007 18.0195312,18.7239176 C18.1390381,18.7579346 18.0854492,19.0150553 18.0125326,19.3664144 C17.9396159,19.7177734 17.8891602,20.6975098 18.0559082,21.3864746 C18.2226562,22.0754395 18.7388916,23.0790609 18.7088623,23.428182 C19.352417,23.7176514 21.5183919,23.567627 22.8781738,24.6473796 C23.7846951,25.3672146 23.9089627,23.7993164 23.2509766,19.9436849 L21.7457682,15.7212728 L7.0238444,15.5833333 L5.14469401,17.0966797 L3.58658854,22.7272949 C3.28689236,24.2606608 3.34863281,24.9521484 3.7718099,24.8017578 Z" id="Path-135" fill="#D0A573"></path>
            <g id="Group-3" transform="translate(2.666667, 0.000000)">
                <path d="M11.3885091,18.1684341 C17.2795464,18.1684341 22.0551758,15.4505162 22.0551758,10.8531188 C22.0551758,9.51538794 21.6508383,8.16592742 20.9323364,6.92482482 C21.43433,4.98221863 22.0353939,1.11471731 20.7973013,0.279463135 C19.1380784,-0.839898038 16.2095657,1.72874347 15.3850801,2.27013761 C14.1507685,1.79233472 12.8017342,1.51978549 11.3885091,1.51978549 C10.0002551,1.51978549 8.67394356,1.78278814 7.45747475,2.24500246 C6.56125217,1.7323154 3.94060765,-0.555654987 2.28335038,0.162082083 C0.541968936,0.916252268 1.51536923,5.48456765 1.90322098,6.82511394 C1.14817917,8.09346988 0.721842448,9.47947826 0.721842448,10.8531188 C0.721842448,15.4505162 5.49747178,18.1684341 11.3885091,18.1684341 Z" id="Oval-2" fill="#000000"></path>
                <path d="M11.3885091,17.8963511 C16.7184953,17.8963511 21.0393028,14.9599845 21.0393028,11.3377926 C21.0393028,9.05829451 19.3281039,7.04041123 16.7310693,6.60568179 C15.2013368,6.34961292 13.3642574,7.30175655 11.3885091,7.30175655 C9.42481433,7.30175655 7.59810166,6.34892119 6.07398065,6.60101739 C3.46123481,7.03317683 1.73771546,9.05010311 1.73771546,11.3377926 C1.73771546,14.9599845 6.05852296,17.8963511 11.3885091,17.8963511 Z" id="Oval-2" fill="#9B9B9B"></path>
            </g>
            <path d="M4.60563151,9.92333984 C9.72455512,9.01578776 12.8221571,6.60432943 13.8984375,2.68896484 C13.9658386,2.44376849 14.0608907,1.73125764 14.1835938,0.551432292 C10.3988715,0.210828993 7.12027995,1.86957465 4.34781901,5.52766927 C3.51497396,5.96875 1.26595052,7.50830078 1.20670573,10.8256836 C1.14746094,14.1430664 2.25056966,13.8520508 3.15641276,15.6847331 C3.681144,16.746358 3.58121745,18.2407227 3.15641276,18.7789714 C2.73160807,19.3172201 0.355957031,20.9169922 0.555338542,23.2666016 C0.754720052,25.6162109 3.0851237,26.8802083 4.34781901,26.7661133 C5.61051432,26.6520182 4.52661133,25.7919108 4.24584961,25.477946 C3.96508789,25.1639811 3.89298503,24.0595703 4.3034668,23.1935221 C4.57712131,22.6161567 4.8344184,22.2395562 5.07535807,22.0637207 C4.73934551,23.3134054 4.85740106,24.3063253 5.42952474,25.0424805 C5.79505386,25.5128091 6.52482096,25.6109212 6.80883789,26.0441081 C7.09285482,26.4772949 6.85837237,26.7986618 6.95141602,26.9504395 C7.16144528,27.2930501 7.88142904,26.4873047 7.54158529,25.7107747 C7.20174154,24.9342448 6.56274414,24.212972 6.41967773,23.8158366 C6.27661133,23.4187012 6.60107422,20.8966471 7.08186849,19.7189128 C7.56266276,18.5411784 7.80843099,16.6687012 6.7952474,14.5355632 C6.11979167,13.1134711 5.3899197,11.5760634 4.60563151,9.92333984 Z" id="Path-134" fill="#F6D5AE"></path>
            <path d="M17.4645431,9.92333984 C22.5834667,9.01578776 25.6810687,6.60432943 26.7573491,2.68896484 C26.8247502,2.44376849 26.9198023,1.73125764 27.0425053,0.551432292 C23.2577831,0.210828993 19.9791915,1.86957465 17.2067306,5.52766927 C16.5990757,6.32943313 15.3398947,7.69075521 15.0107932,10.2324219 C14.6816916,12.7740885 15.4189149,14.6863607 16.0153243,15.6847331 C17.2943359,17.8257619 16.4927267,18.9082031 15.9453635,19.5958659 C15.3980002,20.2835286 13.7456342,21.6636688 13.8851421,23.3076986 C14.0845236,25.6573079 17.7185568,27.4418132 19.037079,27.2316895 C20.3556011,27.0215658 18.9527691,25.041748 18.4380392,24.4101562 C17.9233094,23.7785645 18.3429058,21.9243978 18.8767599,21.1350911 C19.4106141,20.3457845 19.7719422,18.0423177 19.6829123,17.2191569 C20.7831727,19.2179362 18.4602971,22.4027685 19.4523622,24.4158529 C20.0019427,25.5310539 20.6023328,25.9407552 20.9542339,26.1268717 C21.306135,26.3129883 21.3741558,25.8649089 20.9658582,25.313151 C20.5575607,24.7613932 20.3756206,23.9053548 20.3610536,23.4933268 C20.3464865,23.0812988 20.8411154,21.0782064 21.3219097,19.900472 C21.802704,18.7227376 21.4992372,16.0750326 20.4342958,14.3120117 C19.6287326,12.9783941 18.638815,11.5155034 17.4645431,9.92333984 Z" id="Path-134" fill="#F6D5AE" transform="translate(20.459661, 13.878210) scale(-1, 1) translate(-20.459661, -13.878210) "></path>
        </g>
    </g>
</svg>