<?xml version="1.0" encoding="UTF-8"?>
<svg width="48px" height="48px" viewBox="0 0 48 48" version="1.1" xmlns="http://www.w3.org/2000/svg" xmlns:xlink="http://www.w3.org/1999/xlink">
    <!-- Generator: Sketch 51.3 (57544) - http://www.bohemiancoding.com/sketch -->
    <title>hair-curlyshort</title>
    <desc>Created with Sketch.</desc>
    <defs></defs>
    <g id="SVGs" stroke="none" stroke-width="1" fill="none" fill-rule="evenodd">
        <g id="Slices" transform="translate(-354.000000, -591.000000)"></g>
        <g id="Group-64" transform="translate(11.000000, 15.000000)" fill-rule="nonzero">
            <g id="Group-3" transform="translate(1.368421, 0.333333)">
                <path d="M11.6882067,18.1684341 C17.7342714,18.1684341 22.6355751,15.4505162 22.6355751,10.8531188 C22.6355751,9.51538794 22.2205972,8.16592742 21.4831874,6.92482482 C21.9983914,4.98221863 22.6152727,1.11471731 21.3445987,0.279463135 C19.6417121,-0.839898038 16.6361332,1.72874347 15.7899506,2.27013761 C14.5231572,1.79233472 13.138622,1.51978549 11.6882067,1.51978549 C10.2634197,1.51978549 8.90220523,1.78278814 7.65372409,2.24500246 C6.7339167,1.7323154 4.04430785,-0.555654987 2.34343855,0.162082083 C0.556231276,0.916252268 1.55524737,5.48456765 1.95330574,6.82511394 C1.17839441,8.09346988 0.740838302,9.47947826 0.740838302,10.8531188 C0.740838302,15.4505162 5.64214209,18.1684341 11.6882067,18.1684341 Z" id="Oval-2" fill="#000000"></path>
                <path d="M11.6882067,17.8963511 C17.1584557,17.8963511 21.5929686,14.9599845 21.5929686,11.3377926 C21.5929686,9.05829451 19.8367383,7.04041123 17.1713606,6.60568179 C15.6013719,6.34961292 13.7159484,7.30175655 11.6882067,7.30175655 C9.67283576,7.30175655 7.7980517,6.34892119 6.23382225,6.60101739 C3.55231994,7.03317683 1.78344482,9.05010311 1.78344482,11.3377926 C1.78344482,14.9599845 6.21795777,17.8963511 11.6882067,17.8963511 Z" id="Oval-2" fill="#9B9B9B"></path>
            </g>
            <path d="M22.5118794,10.0791829 C22.0221739,9.85424912 21.960552,9.75512695 21.671149,9.52319336 C21.4782137,9.36857096 21.4079718,8.99397786 21.4604235,8.39941406 C20.9443145,8.22178819 20.5431872,8.03715007 20.2570415,7.84549967 C19.827823,7.55802409 19.4516826,7.028361 19.2300158,6.60083008 C19.2843467,7.27217611 18.7794575,8.21712653 18.3369173,8.39941406 C17.8943771,8.58170159 17.784003,8.4292806 17.7248696,8.32511393 C17.6854473,8.25566949 17.7395277,8.15192329 17.8871107,8.01387533 C18.1008986,7.7099745 18.1275142,7.28042263 17.9669575,6.72521973 C17.8064008,6.17001682 17.1366952,5.77956814 15.9578408,5.5538737 C15.622807,6.08843316 15.0432771,6.33610026 14.2192511,6.296875 C13.3952251,6.25764974 12.7269812,5.83231608 12.2145193,5.02087402 C12.0645705,4.94744195 12.0007042,5.01798503 12.0229203,5.23250326 C12.1100445,6.07377116 12.8357544,6.30415853 13.3688322,6.4773763 C13.9019101,6.65059408 14.2192511,7.03971354 14.2192511,7.35502116 C14.2192511,7.67032878 14.0827348,8.01387533 13.8135858,8.32511393 C13.6341531,8.53260634 13.4859019,8.59620497 13.3688322,8.51590983 C13.224785,8.40260145 13.224785,8.23525662 13.3688322,8.01387533 C13.5849031,7.68180339 13.1357647,7.35502116 13.1357647,7.35502116 C12.826734,7.10782878 12.3054748,7.37810027 11.6923828,7.028361 C11.0792908,6.67862173 10.9195139,5.93135579 10.9195139,5.62194824 C10.7755223,5.79467773 9.9263145,6.57714844 9.01646986,6.72521973 C8.10662521,6.87329102 7.21214857,6.4773763 6.74275609,6.07377116 C6.90211567,6.69832357 6.33550383,7.55802409 6.41639469,7.55802409 C6.49728554,7.55802409 6.99824925,8.14986165 7.12077572,8.51590983 C7.24330219,8.88195801 6.80865479,9.43395996 6.58339651,9.52319336 C6.35813823,9.61242676 6.04037957,9.75512695 5.83454012,9.52319336 C5.62870066,9.29125977 5.93952701,9.20511882 6.04037957,9.20511882 C6.14123214,9.20511882 6.19012566,8.872617 6.04037957,8.58166504 C5.71481163,7.94909668 4.92152939,7.85117795 4.43717876,8.14986165 C4.11854312,8.34635417 3.04127904,8.80997721 2.56979852,10.4286296 C2.25547817,11.5077311 2.35756964,12.7296821 2.87607293,14.0944824 C2.36714681,14.1389703 2.04814924,14.310574 1.91908023,14.6092936 C1.79001122,14.9080132 1.79001122,15.2744954 1.91908023,15.7087402 C2.14247319,16.096327 2.14247319,16.2553168 1.91908023,16.1857096 C1.5839908,16.0812988 0.9270919,15.4459635 1.06907895,14.6092936 C1.16373698,14.0515137 1.46160307,13.5546332 1.96267722,13.1186523 C2.07515416,12.9766439 2.06062183,12.8729384 1.91908023,12.8075358 C1.70676784,12.709432 0.0946301912,12.1827799 0.0946301912,10.7443441 C0.0946301912,9.78538683 0.528873912,9.17914497 1.39736135,8.92561849 C1.48589445,8.84120009 1.48589445,8.74801975 1.39736135,8.64607747 C1.2645617,8.49316406 0.692145097,7.20463053 1.61886115,5.93135579 C2.17704181,5.16443551 2.91602871,4.82422555 3.83582185,4.91072591 C4.47835501,3.63110352 5.60379724,2.92199707 7.21214857,2.78340658 C7.38850483,2.36055501 7.60674728,1.85835775 8.28026701,1.73124186 C8.72928017,1.64649794 9.16948178,1.8101671 9.60087184,2.22224935 C9.70201673,1.08927409 10.2833841,0.474053277 11.3449739,0.376586914 C11.8620692,0.329111518 12.3559892,0.587154595 12.826734,1.15071615 C13.7351072,0.296323414 14.6868102,0.0382803371 15.681843,0.376586914 C16.6768758,0.714893491 17.1021967,1.35530148 16.9578054,2.29781087 C17.7814417,2.07697211 18.5388451,2.21605089 19.2300158,2.7150472 C19.9211865,3.21404351 20.0719851,3.98265245 19.6824116,5.02087402 C20.7783567,4.83890788 21.6317963,4.98168945 22.2427304,5.44921875 C22.5677137,5.6979186 22.7302053,6.04063778 22.7302053,6.4773763 C23.7378679,6.75908746 24.196333,7.57516819 24.1056005,8.92561849 C24.816538,8.92561849 25.405826,9.0069987 25.6806127,9.40250651 C25.8638038,9.66617839 25.8638038,9.83926053 25.6806127,9.92175293 C25.5320552,9.85781521 25.3665568,9.80227322 25.1841174,9.75512695 C24.9104582,9.68440755 24.2746068,9.88574219 24.1056005,10.0791829 C23.9365941,10.2726237 24.176594,10.4852295 24.2681339,10.5621745 C24.3596738,10.6391195 24.6837383,11.167806 24.608694,11.9476725 C24.5586644,12.4675836 24.2089865,13.0432129 23.5596603,13.6745605 C23.7890668,14.3054742 23.8464184,14.8368056 23.7317152,15.2685547 C23.6170119,15.7003038 23.2831753,15.8880615 22.7302053,15.8318278 C22.9240873,15.5889079 22.9725577,15.4011502 22.8756168,15.2685547 C22.7786758,15.1359592 22.65743,15.0800374 22.5118794,15.1007894 C22.7581851,14.8374159 22.9436035,14.6038547 23.0681345,14.4001058 C22.7302053,14.323527 22.5118794,14.1173503 22.5118794,13.6180013 C22.5118794,13.1186523 22.8756168,12.7503662 23.0681345,12.1670736 C23.2764371,11.5359558 23.3275887,11.2575603 23.2085764,10.8765869 C23.0895641,10.4956135 22.8756168,10.2462565 22.5118794,10.0791829 Z" id="Path-123" fill="#F6D5AE"></path>
        </g>
    </g>
</svg>