<?xml version="1.0" encoding="UTF-8"?>
<svg width="48px" height="48px" viewBox="0 0 48 48" version="1.1" xmlns="http://www.w3.org/2000/svg" xmlns:xlink="http://www.w3.org/1999/xlink">
    <!-- Generator: Sketch 51.3 (57544) - http://www.bohemiancoding.com/sketch -->
    <title>hair-ponytail</title>
    <desc>Created with Sketch.</desc>
    <defs></defs>
    <g id="SVGs" stroke="none" stroke-width="1" fill="none" fill-rule="evenodd">
        <g id="Slices" transform="translate(0.000000, -591.000000)"></g>
        <g id="Group-58" transform="translate(9.000000, 11.000000)" fill-rule="nonzero">
            <g id="Group-3" transform="translate(4.090909, 0.000000)">
                <path d="M10.9090909,18.5813531 C16.9340155,18.5813531 21.8181818,15.8016643 21.8181818,11.0997806 C21.8181818,9.73164675 21.4046548,8.35151668 20.6698234,7.0822072 C21.183226,5.09545087 21.7979503,1.14005179 20.5317193,0.28581457 C18.8347868,-0.85898663 15.8397169,1.76803309 14.996493,2.32173165 C13.7341289,1.8330696 12.3544348,1.55432607 10.9090909,1.55432607 C9.4892857,1.55432607 8.13283068,1.82330605 6.88871486,2.29602525 C5.97212358,1.77168621 3.29191895,-0.568283509 1.59699675,0.165765766 C-0.183961546,0.937076184 0.811561485,5.60921692 1.20822804,6.98023016 C0.436026192,8.27741237 0,9.69492094 0,11.0997806 C0,15.8016643 4.88416637,18.5813531 10.9090909,18.5813531 Z" id="Oval-2" fill="#000000"></path>
                <path d="M10.9090909,18.3030864 C16.3602131,18.3030864 20.7792208,15.2999841 20.7792208,11.5954697 C20.7792208,9.26416484 19.0291311,7.20042057 16.3730729,6.75581093 C14.8085737,6.4939223 12.9297426,7.46770556 10.9090909,7.46770556 C8.9007667,7.46770556 7.03253783,6.49321486 5.47377771,6.75104051 C2.80165128,7.19302176 1.03896104,9.25578727 1.03896104,11.5954697 C1.03896104,15.2999841 5.4579687,18.3030864 10.9090909,18.3030864 Z" id="Oval-2" fill="#9B9B9B"></path>
            </g>
            <path d="M13.6187189,20.2698586 C11.3535378,21.9645275 10.1899303,23.4843306 10.1278964,24.829268 C10.0348455,26.8466741 11.6946966,28.5127674 13.3199241,29.1637074 C13.5203462,29.2439809 13.7485344,29.2439809 14.0044889,29.1637074 C14.1074996,28.8966786 14.085305,28.6756481 13.9379051,28.5006159 C13.7168052,28.2380676 12.2912875,26.5786327 12.8422269,25.8443798 C13.1600506,25.4208069 13.7093145,25.918163 13.836448,26.068143 C13.9635814,26.218123 15.0101956,27.5666116 14.8443604,29.2704079 C14.7829766,29.9010667 15.160675,30.0250938 15.3957159,29.85801 C15.6307567,29.6909263 17.8759627,28.4720681 19.0789656,26.9485057 C20.2819686,25.4249434 19.5289036,24.6743301 19.0789656,24.22502 C17.7966031,22.9444469 16.3396246,21.5905068 16.030218,20.3831343 C15.8239469,19.5782193 15.0201139,19.5404608 13.6187189,20.2698586 Z" id="Path-110" fill="#DAB487"></path>
            <path d="M14.9146063,1.61632191 L14.9146063,3.09598056 C12.9766846,6.30487615 9.69726563,9.03897372 5.07634943,11.2982733 C5.31605114,13.4900457 7.76367188,18.3053866 14.9146063,18.3053866 C14.9161599,18.9442583 14.9161599,19.7156317 14.9146063,20.6195068 C5.10645774,20.2897372 0.184638225,17.3908447 0.149147727,11.9228294 C0.119852499,7.40931823 3.77926542,3.83754045 10.7125022,2.06343217 C12.0456328,1.72230464 13.4463341,1.57326789 14.9146063,1.61632191 Z" id="Path-109" fill="#F6D5AE"></path>
            <path d="M29.6401226,1.61632191 L29.6401226,3.09598056 C27.7022009,6.30487615 24.4227819,9.03897372 19.8018657,11.2982733 C20.0415675,13.4900457 22.4891882,18.3053866 29.6401226,18.3053866 C29.6416762,18.9442583 29.6416762,19.7156317 29.6401226,20.6195068 C19.8319741,20.2897372 14.9101545,17.3908447 14.874664,11.9228294 C14.8453688,7.40931823 18.5047817,3.83754045 25.4380185,2.06343217 C26.7711491,1.72230464 28.1718504,1.57326789 29.6401226,1.61632191 Z" id="Path-109" fill="#F6D5AE" transform="translate(22.257889, 11.114296) scale(-1, 1) translate(-22.257889, -11.114296) "></path>
        </g>
    </g>
</svg>