<?xml version="1.0" encoding="UTF-8"?>
<svg width="48px" height="48px" viewBox="0 0 48 48" version="1.1" xmlns="http://www.w3.org/2000/svg" xmlns:xlink="http://www.w3.org/1999/xlink">
    <!-- Generator: Sketch 51.3 (57544) - http://www.bohemiancoding.com/sketch -->
    <title>hair-bun</title>
    <desc>Created with Sketch.</desc>
    <defs></defs>
    <g id="SVGs" stroke="none" stroke-width="1" fill="none" fill-rule="evenodd">
        <g id="Slices" transform="translate(-295.000000, -650.000000)"></g>
        <g id="Group-80" transform="translate(11.000000, 11.000000)" fill-rule="nonzero">
            <path d="M1.6153891,19.2075806 C1.141041,19.8118287 0.85818053,20.4994904 0.766807689,21.2705659 C0.675434847,22.0416413 0.742892615,22.6366059 0.969180993,23.0554597 C1.18823081,23.3812592 1.36512997,23.4922486 1.49987846,23.3884278 C1.7020012,23.2326966 1.5157476,22.8906647 1.49720577,22.3989991 C1.47866393,21.9073334 1.75821137,20.9266389 2.13080209,20.5382172 C2.81971407,19.8200342 3.89182631,19.7521654 3.71938658,19.460376 C3.65336089,19.3486524 3.59789613,17.981551 2.7164569,17.9041352 C2.54940264,17.889463 2.18238004,18.3239448 1.6153891,19.2075806 Z" id="Path-154" fill="#D0A573" transform="translate(2.232636, 20.664919) rotate(-6.000000) translate(-2.232636, -20.664919) "></path>
            <g id="Group-3" transform="translate(1.368421, 5.400000)">
                <path d="M11.6882067,18.3955396 C17.7342714,18.3955396 22.6355751,15.6436477 22.6355751,10.9887828 C22.6355751,9.63433028 22.2205972,8.26800152 21.4831874,7.01138513 C21.9983914,5.04449636 22.6152727,1.12865128 21.3445987,0.282956425 C19.6417121,-0.850396764 16.6361332,1.75035276 15.7899506,2.29851433 C14.5231572,1.81473891 13.138622,1.53878281 11.6882067,1.53878281 C10.2634197,1.53878281 8.90220523,1.80507299 7.65372409,2.27306499 C6.7339167,1.75396934 4.04430785,-0.562600674 2.34343855,0.164108109 C0.556231276,0.927705422 1.55524737,5.55312475 1.95330574,6.91042786 C1.17839441,8.19463825 0.740838302,9.59797173 0.740838302,10.9887828 C0.740838302,15.6436477 5.64214209,18.3955396 11.6882067,18.3955396 Z" id="Oval-2" fill="#000000"></path>
                <path d="M11.6882067,18.1200555 C17.1584557,18.1200555 21.5929686,15.1469843 21.5929686,11.479515 C21.5929686,9.1715232 19.8367383,7.12841637 17.1713606,6.68825282 C15.6013719,6.42898308 13.7159484,7.39302851 11.6882067,7.39302851 C9.67283576,7.39302851 7.7980517,6.42828271 6.23382225,6.6835301 C3.55231994,7.12109154 1.78344482,9.1632294 1.78344482,11.479515 C1.78344482,15.1469843 6.21795777,18.1200555 11.6882067,18.1200555 Z" id="Oval-2" fill="#9B9B9B"></path>
            </g>
            <path d="M13.2440906,6.4414388 C16.3830493,6.1848116 19.3061317,7.03089043 22.0133378,8.97967529 C23.5377775,10.0770447 24.6439402,11.5832703 24.9639957,13.1211365 C25.2840512,14.6590027 24.5238358,17.3562012 24.2126336,18.2278015 C23.9014314,19.0994019 23.3845151,20.121048 23.8982576,21.3341034 C24.4120002,22.5471588 24.76204,24.137677 24.4377249,25.8878815 C24.3423467,26.402601 24.3207108,26.422641 24.1787238,26.4055847 C24.0367367,26.3885284 24.0100098,26.1959656 24.0486804,25.8878815 C24.0873509,25.5797974 24.0820056,24.3653412 23.7505911,23.728244 C23.4191766,23.0911469 22.7127493,22.3831055 22.3001516,20.4204803 C21.7055561,17.5921365 22.5268298,16.192337 22.2645713,14.5660583 C22.0023129,12.9397797 20.850774,10.5443585 17.6661955,10.8982178 C16.7788387,10.9968178 14.3122574,11.527112 13.3345165,11.572733 C13.3176965,11.576839 13.3003062,11.5792253 13.2823454,11.579892 C12.4376895,11.6112442 10.9565558,11.2832611 9.33698473,11.0019562 C7.71741365,10.7206512 6.71298057,10.9022552 5.8833586,11.5294647 C4.10827475,12.8714608 3.88225997,14.3202667 3.96786981,15.1481964 C4.05347965,15.9761261 3.48052015,16.9615997 3.01672363,17.6867798 C2.55292712,18.4119598 2.47525185,19.8331512 2.84091026,20.5055145 C3.68764218,22.0624634 4.02291067,22.5331512 4.0000257,23.2370728 C3.97714073,23.9409943 3.84943591,24.5562561 3.16940147,25.0377045 C2.48936703,25.5191528 2.32015188,25.4709503 2.28624203,25.2237579 C2.25233219,24.9765656 2.56316231,24.7799092 2.7617316,24.5325256 C3.17675139,24.0154816 3.1653089,23.2494324 2.69174034,22.5959381 C1.45744969,20.8926961 0.736912778,18.8719025 1.16036827,17.48367 C1.58382376,16.0954376 1.49306568,15.5851781 1.34403269,14.83797 C1.19452868,14.0884003 0.857351203,11.0214844 4.87207674,8.49995728 C7.53470845,6.82763921 10.3253797,6.14146639 13.2440906,6.4414388 Z" id="Combined-Shape" fill="#F6D5AE"></path>
            <path d="M9.18823242,6.8246521 C8.27639717,6.40750122 7.80633652,5.52579346 7.77805047,4.17952881 C7.7356214,2.16013184 9.46251799,1.22722778 10.4462377,1.21503296 C11.4299573,1.20283813 11.9760228,1.6486084 12.2230803,1.73677368 C12.4701377,1.82493896 13.256913,2.08135986 13.6392758,1.73677368 C14.0216386,1.3921875 15.4592157,0.324316406 17.1463559,1.20119019 C18.8334961,2.07806396 18.863731,3.44273071 18.7102179,4.30773926 C18.5567049,5.1727478 18.1050969,6.99264411 17.1022564,6.8246521 C16.7648283,6.76812744 15.3500708,6.56611513 12.9892257,6.4935791 C12.2686657,6.47144018 11.001668,6.58179785 9.18823242,6.8246521 Z" id="Path-155" fill="#D0A573"></path>
        </g>
    </g>
</svg>