<?xml version="1.0" encoding="UTF-8"?>
<svg width="48px" height="48px" viewBox="0 0 48 48" version="1.1" xmlns="http://www.w3.org/2000/svg" xmlns:xlink="http://www.w3.org/1999/xlink">
    <!-- Generator: Sketch 51.3 (57544) - http://www.bohemiancoding.com/sketch -->
    <title>hair-sidepartbangcurlymed</title>
    <desc>Created with Sketch.</desc>
    <defs></defs>
    <g id="SVGs" stroke="none" stroke-width="1" fill="none" fill-rule="evenodd">
        <g id="Slices" transform="translate(-59.000000, -591.000000)"></g>
        <g id="Group-59" transform="translate(9.000000, 11.000000)" fill-rule="nonzero">
            <path d="M4.74984464,11.2959428 L24.8882835,11.9083474 L26.3759322,17.4909002 L27.5090221,21.503074 C26.0916748,22.1178089 25.3882724,22.6773904 25.3988148,23.1818182 C25.4093572,23.686246 25.8333296,23.8569502 26.670732,23.6939309 C26.917425,23.654258 27.0574452,23.7555209 27.0907926,23.9977195 C27.1408137,24.3610174 26.8133462,24.8311823 26.2857527,24.9637673 C25.7581593,25.0963523 24.5595239,25.0675571 23.8340953,23.6939309 C23.2313454,22.5526012 22.4021274,23.7615134 22.246238,24.1475331 C22.0903487,24.5335527 21.7060769,26.1672696 22.2615107,26.1939864 C22.8169445,26.2207031 23.1104126,26.5606135 22.6346713,27.0490889 C22.15893,27.5375644 20.9326227,27.1602423 20.3380293,26.8095953 C19.7434359,26.4589483 18.3335655,25.0665977 18.0114247,24.3055864 C17.6892839,23.5445751 17.2549078,24.2563144 17.1233215,24.7080439 C16.9917353,25.1597734 16.3920233,26.5542048 15.6667591,27.0490889 C14.941495,27.5439731 15.6123269,27.7839244 16.0194869,27.6555842 C16.4266468,27.5272439 16.676669,27.9725231 16.4641002,28.2674061 C16.2515314,28.5622892 14.7664511,29.0885979 14.1364968,28.0659901 C13.5552369,27.1224281 14.0588841,26.5530811 14.1850614,26.1489591 C14.3112387,25.744837 13.7743641,25.1958119 13.1683683,25.2104603 C12.5623724,25.2251088 11.3133434,25.290028 10.9679399,25.9169145 C10.6225364,26.543801 10.2972329,27.106351 9.82756736,27.2945751 C9.35790183,27.4827992 8.86331182,27.8759849 9.41499745,28.0707342 C9.8189947,28.2133484 10.1495417,28.6724021 9.66614324,28.6442705 C9.18274481,28.6161388 8.61844704,28.493042 8.18074174,27.3207508 C7.74303644,26.1484597 6.47136896,26.190241 5.98522394,24.2762895 C5.80668995,23.5734017 5.28042819,23.2901708 4.40643865,23.4265969 L3.52678334,15.6077437 L4.74984464,11.2959428 Z" id="Path-112" fill="#D0A573"></path>
            <g id="Group-3" transform="translate(3.090909, 0.000000)">
                <path d="M11.6473389,18.5813531 C17.6722634,18.5813531 22.5564298,15.8016643 22.5564298,11.0997806 C22.5564298,9.73164675 22.1429028,8.35151668 21.4080714,7.0822072 C21.9214739,5.09545087 22.5361983,1.14005179 21.2699672,0.28581457 C19.5730348,-0.85898663 16.5779649,1.76803309 15.734741,2.32173165 C14.4723769,1.8330696 13.0926827,1.55432607 11.6473389,1.55432607 C10.2275337,1.55432607 8.87107864,1.82330605 7.62696281,2.29602525 C6.71037154,1.77168621 4.03016691,-0.568283509 2.33524471,0.165765766 C0.554286412,0.937076184 1.54980944,5.60921692 1.946476,6.98023016 C1.17427415,8.27741237 0.738247958,9.69492094 0.738247958,11.0997806 C0.738247958,15.8016643 5.62241432,18.5813531 11.6473389,18.5813531 Z" id="Oval-2" fill="#000000"></path>
                <path d="M11.6473389,18.3030864 C17.0984611,18.3030864 21.5174687,15.2999841 21.5174687,11.5954697 C21.5174687,9.26416484 19.767379,7.20042057 17.1113209,6.75581093 C15.5468217,6.4939223 13.6679905,7.46770556 11.6473389,7.46770556 C9.63901465,7.46770556 7.77078579,6.49321486 6.21202567,6.75104051 C3.53989924,7.19302176 1.777209,9.25578727 1.777209,11.5954697 C1.777209,15.2999841 6.19621666,18.3030864 11.6473389,18.3030864 Z" id="Oval-2" fill="#9B9B9B"></path>
            </g>
            <path d="M14.7384144,1.34232955 C8.29143732,1.5472967 4.57872425,4.48858088 3.60027521,10.1661821 C1.96198065,9.94512385 0.537420099,11.4258645 0.537420099,12.6038153 C0.537420099,13.781766 1.44384338,14.5836679 1.86609996,14.537409 C1.261519,14.666748 0.166381836,15.7550604 0.166381836,17.1486594 C0.166381836,18.0777255 0.732954545,18.8105913 1.86609996,19.3472567 C1.37615412,20.0305176 1.18988592,20.6520774 1.30729537,21.2119363 C1.42470481,21.7717951 1.7631725,22.2099165 2.32269842,22.5263006 C2.09986461,23.3046653 2.19030762,23.8893821 2.59402743,24.280451 C2.99774725,24.6715199 3.47154652,24.8294345 4.01542525,24.7541948 C4.09510387,25.3117232 3.95672053,25.6572377 3.60027521,25.7907382 C3.06560724,25.990989 3.82449618,26.8167947 4.50281871,26.1131703 C5.18114125,25.4095459 5.22242321,23.3690851 4.98039107,22.1925493 C5.50790128,21.6873446 6.13512074,20.9940407 6.02725497,20.0205855 C5.95534446,19.3716153 5.44719904,18.8169167 4.50281871,18.3564897 C5.34998668,17.565918 5.75376199,16.7917148 5.71414462,16.0338801 C5.67921446,15.3657062 5.36119743,14.7252053 4.76009352,14.1123774 C4.67943263,14.0301433 4.64744101,13.964694 4.67443848,13.8781045 C4.71350952,13.7527912 4.76368525,13.7483029 4.89223054,13.6885718 C11.4563531,10.6384197 14.7384144,7.07076838 14.7384144,2.9856179 C14.7384144,2.32055664 14.7384144,1.77279386 14.7384144,1.34232955 Z" id="Path-111" fill="#F6D5AE"></path>
            <path d="M28.7345601,1.34232955 C23.5071903,1.38932966 20.0814155,3.32362583 18.4572357,7.14521808 C18.3830977,7.31965991 18.1509482,7.36214305 17.7440958,7.4832982 C17.3372434,7.60445335 16.9907946,8.24101734 17.3032024,8.63042658 C17.6516854,9.06480269 17.9348935,9.17035202 17.8465263,9.68311657 C16.5668271,9.5856129 15.6036924,10.9654791 15.6004048,11.8486717 C15.5970159,12.7590769 15.9850095,13.9403187 17.1597143,14.3592973 C16.6069023,14.3220104 15.9940816,14.6645841 15.6750203,15.4175221 C15.4007759,16.0646988 15.5362347,16.9375055 16.1235871,17.4816617 C15.6268719,17.644792 14.8406003,18.4836648 15.4018186,19.7602428 C14.9629481,19.9068104 14.568178,20.2668597 14.7387271,21.1093972 C14.7957395,21.3910467 15.0134686,21.7011608 15.2978879,21.9561423 C14.8103047,22.61519 15.8220457,23.5589322 16.0871324,23.8216886 C16.3522192,24.0844449 17.2479379,24.3758323 17.464252,24.1367964 C17.8144553,23.7498076 16.8089932,23.7452292 16.7554674,23.0871027 C16.7202612,22.6542247 16.7978016,22.4074955 17.1275044,22.3810647 C17.6902208,22.3359541 18.9462411,22.0796897 19.3161141,20.6689453 C19.5626962,19.728449 19.2796595,18.8036555 18.4670042,17.8945645 C19.7130646,17.6069225 20.4427122,17.0425692 20.6559468,16.2015048 C20.9757988,14.9399081 20.32927,14.0962913 19.8761908,13.7277537 C19.7046013,13.5881817 19.622053,13.3393943 19.800824,13.2507813 C25.7566481,10.2986026 28.7345601,6.87688145 28.7345601,2.9856179 C28.7345601,2.32055664 28.7345601,1.77279386 28.7345601,1.34232955 Z" id="Path-111" fill="#F6D5AE" transform="translate(21.716346, 12.783916) scale(-1, 1) translate(-21.716346, -12.783916) "></path>
        </g>
    </g>
</svg>