<?xml version="1.0" encoding="utf-8"?>
<!-- Generator: Adobe Illustrator 21.0.2, SVG Export Plug-In . SVG Version: 6.00 Build 0)  -->
<svg version="1.1" id="_x30_1_x5F_Footwear_x5F_Cowboy_x5F_Boots"
	 xmlns="http://www.w3.org/2000/svg" xmlns:xlink="http://www.w3.org/1999/xlink" x="0px" y="0px" viewBox="0 0 2000 2000"
	 enable-background="new 0 0 2000 2000" xml:space="preserve">
<g>
	<g id="Layer_22">
		<polygon fill="#5CDFF2" points="951.2,1810.4 1015.5,1811.8 1037,1754 965.2,1762.9 		"/>
		<polygon fill="#5CDFF2" points="1076.8,1729 1137.8,1694.6 1166.3,1761 		"/>
	</g>
	<path opacity="0.3" fill="#091426" enable-background="new    " d="M1317.2,1737.1c-2.6,14.1-5.7,20.8-26.8,32.7
		c-21.2,11.9-75.1,21.2-121.3,21c-46.2-0.2-87.5-9.3-99.3-16s-36.9-17.8-36.9-17.8s-15.2,15.8-28.3,29.8s-30.3,33.8-45.5,42
		s-101.2,37.5-162.7,24s-66.4-27.3-65.8-36.7c0,0-50.1-11.3-89-26.7c-38.9-15.4-46.6-41.1-27.2-63.7c19.4-22.5,44.5-33.6,68.8-40
		c24.3-6.3,48.2-8.5,48.2-8.5L1317.2,1737.1z"/>
	<g>
		<g>
			<path fill="#E3592F" d="M1316.7,1743.1c-4.1,6.1-16.4,11-33.6,13.6c-10.5,1.6-23.4,2.5-38.7,2.4c-9.8,0-20.6-0.5-32.5-1.5
				c-30.5-2.5-50.2-7.4-63.5-10.6c-13.3-3.3-14-3.7-19.8-9.9c-5.9-6.2-15.6-14.4-15.6-14.4s-9.9,6.3-18.5,6.6
				c-2.2,0.1-4.4,0-6.7-0.1c-6.8-0.5-14.1-2.1-20.4-3.8c-1.3-0.3-2.5-0.7-3.6-0.9c-6.4-1.6-10.8-2.2-10.8-2.2s-1.4,16.6-7.4,31.1
				c-1.5,3.5-3.5,6.4-5.9,8.8c-7.4,7.5-18,10.4-23.6,13.6h-19.7l-8.8,17.8c-4.5,9.1-10,17.7-16.5,25.5l-3.1,3.7
				c-4.9,4.8-9.5,8.4-12.7,10.4c-6.5,4.1-37,18.8-68.3,22.1c-35.8,3.7-55.6,4.6-77.8-2.3s-26.8-10.6-30.2-13.7
				c-3.3-3.1-2.9-2.2-2.9-6.4c0-4-0.5-5.4-0.1-7.4c0-0.1,0.1-0.3,0.1-0.4c0.6-2.3,2.7-3.2,6.7-4.2c1.9-0.5,7-6.7,11.8-13
				c4.7-6.2,9.2-12.7,10.3-14.2c-1,0.9-6.2,3.8-33,8.7c-33.5,6-57.5,1.1-79.3-4.2c-21.8-5.3-24.9-10.6-25.7-12.4
				c-0.1-0.3-0.3-0.6-0.4-1c-1-2.5-2.7-7.5-3.1-11.3c-0.2-2,0-3.7,0.7-4.8c3.7,3,7.9,8.8,7.9,8.8l-0.8-10.6l392.7-87.9l243.8,35.4
				c10.6,6.5,12.2,7.1,13.3,9.9C1321.9,1726.7,1320.9,1737,1316.7,1743.1z"/>
			<path fill="#E3592F" d="M671.9,1777.3c0,0-4.2-5.8-7.9-8.8c0.8-1.4,2.3-1.9,4.3-1.2l2.8-0.6L671.9,1777.3z"/>
			<path opacity="0.3" fill="#E3592F" enable-background="new    " d="M671.9,1777.3c0,0-4.2-5.8-7.9-8.8c0.8-1.4,2.3-1.9,4.3-1.2
				l2.8-0.6L671.9,1777.3z"/>
		</g>
		<path opacity="0.3" fill="#091426" enable-background="new    " d="M1015.5,1765.7c0.1-13.6,0.1-19.6-3.1-13.8
			c-3.1,5.9-14.5,14.1-16,23.8h18.9C1015.4,1772.4,1015.5,1768.9,1015.5,1765.7z"/>
		<path opacity="0.3" fill="#091426" enable-background="new    " d="M1132.6,1728.6c-15.7-10.9-28.5-20.9-46.3-28.7
			S1051,1687,1051,1687s1.5,19.9-1.3,37.2c-2.2,13.3-7.6,30.6-10,37.9c2.4-2.4,4.5-5.3,5.9-8.8c6.1-14.5,7.4-31.1,7.4-31.1
			s4.3,0.6,10.8,2.2c0-2.5-0.2-5.1-0.7-9.2c-1.2-11.2-4.1-22.9-4.1-22.9s19.8,3.6,31.6,13.4l-2.9,23.5c2.3,0.2,4.5,0.2,6.7,0.1
			c8.6-0.4,18.5-6.6,18.5-6.6s9.7,8.2,15.6,14.4c5.9,6.2,6.5,6.6,19.8,9.9s33,8.1,63.5,10.6c11.9,1,22.7,1.4,32.5,1.5
			c-13.3-7.9-32.5-5.4-56.3-11.2C1163.1,1741.8,1148.3,1739.5,1132.6,1728.6z"/>
		<path opacity="0.3" fill="#091426" enable-background="new    " d="M663.9,1768.5c3.7,3,7.9,8.8,7.9,8.8l-0.8-10.6l-2.8,0.6
			C666.3,1766.6,664.8,1767.2,663.9,1768.5z"/>
		<path opacity="0.3" fill="#091426" enable-background="new    " d="M692.5,1798c21.8,5.3,45.8,10.2,79.3,4.2
			c26.9-4.8,32-7.7,33-8.7c0.2-0.2,0.2-0.4,0.2-0.4s0,0.1-0.2,0.4c-1.1,1.5-5.6,8-10.3,14.2l17.1-12.8l9.2-23.9
			c0,0-20.7,3.3-23.2,8.6c-2.5,5.3-2.1,4.7-11,11.3c-8.9,6.6-14,6.7-28.1,8.2s-34.5,1.8-60.2-4.2c-15.5-3.6-26-7.7-32-10.4
			c0.2,0.4,0.3,0.8,0.4,1C667.7,1787.4,670.8,1792.8,692.5,1798z"/>
		<path opacity="0.3" fill="#091426" enable-background="new    " d="M776.1,1832.9c0,4.2-0.5,3.3,2.9,6.4c3.3,3.1,8,6.7,30.2,13.7
			s42.1,6,77.8,2.3c31.4-3.2,61.8-18,68.3-22.1c3.2-2,7.9-5.6,12.7-10.4c-3.9,2.3-8.2,4.5-13.1,6.5c-36.9,15.3-74,23.4-101.2,22.4
			c-26.6-1-42.3,0-77.7-26.2C775.6,1827.5,776.1,1828.9,776.1,1832.9z"/>
	</g>
	<path fill="#63320E" d="M1310.4,1711.4c-3.6-8.3-11.8-16.3-25.6-26.8c-20.3-15.3-30.5-24.9-36.9-37.2s-20.3-28-41.9-45.8
		c-21.7-17.8-40.7-22.3-40.7-22.3s3.2-30.3,3.9-35.1c0-0.2,0-0.3,0.1-0.4c0.6-3.1-0.9-2.9-0.9-2.9l-3-3.6l-0.6-0.7l4.6-5.1l1.3-0.1
		c0,0,0.6-12.4,1.6-29.7c0.9-17.4,3.6-41.6,3.6-41.6c-28.5-62.4-42-69.1-57-70.7c-1.2-0.1-2.4-0.2-3.5-0.2
		c-13.8,0-26.9,8.1-26.9,8.1c-2.6,24.5-6.1,33-6.1,33c-8.6-22.1-25.4-32.1-39.5-35.5c-2.6-0.6-5.2-1-7.6-1.2c-3-0.3-6.1,0.3-9.2,1.4
		c-12,4.4-22.6,17.2-22.6,17.2c3.5,19.4,3.8,47.1-15.7,73.8s-45.8,44.3-45.8,44.3s-14.2,18.4-39.5,32.1c-17.1,9.2-37,10.7-48.2,10.7
		c-1.8,0-3.5,0-4.8-0.1c-2.6-0.1-4-0.3-4-0.3s-10.5,13.3-27,27.3c-1,0.9-2.1,1.8-3.2,2.7c-18.3,15-51.6,27.5-76.4,54.3
		c-24.9,26.8-27.7,43.9-32.8,59.6s-15.9,21.3-25.7,30.5s-11.7,7.5-12.5,17s1.2,14.4,19.9,20.6c4.7,1.6,10.4,2.8,16.8,3.8
		c18.7,2.9,43.2,3,66.9-0.2c11.4-1.6,20.6-3.7,27.7-5.9c12.6-3.8,18.6-7.5,18.6-7.5s-21.5,24.7-27,30.3s-10.6,12.4-9.3,17.3
		s7.6,12.5,32.2,20.3s49.3,3.3,77.6-3.3c2.7-0.6,5.5-1.3,8.1-1.9c25.1-6,48-12.8,64-33.4c17.7-22.9,28.4-44.2,33.8-49.6
		c5.5-5.4,8.7-11.6,8.7-11.6s8.2-4.5,16.8-9.2c1.3-0.7,2.6-1.4,3.9-2.1c5.6-3,10.8-5.7,13.5-6.9c7.2-3.3,9.4-5.4,10.5-9.8
		c0.4-1.5,0.7-5.4,0.9-10.1c0.5-9.2,0.7-20.9,0.7-20.9c31.2,7.2,55.7,20,68.3,32.5s31,19.1,81.4,26.2s84.9,0.3,96.3-2.3
		c11.4-2.6,14-3.7,14.5-17.1C1312.8,1719.2,1312.1,1715.3,1310.4,1711.4z"/>
	<path opacity="0.3" fill="#091426" enable-background="new    " d="M895,1834.8c-4.9,2.2-9.8,1.8-14.9,2.7
		c-4.7,0.8-9.5,1.4-14.3,1.8c-9.8,0.7-19.5-0.2-29-2.5c-9.1-2.2-18.2-5.6-26.7-9.6c-7-3.4-12.1-7.6-16.9-13.2
		c0.6-1.5,1.4-2.9,2.3-4.3c2.8-4.4,6.6-8.2,10.4-11.8c4-3.8,8.1-7.6,12.3-11.3c2.2-2,4.4-3.9,6.8-5.5c0.9-0.6,1.8-1,2.6-1.5
		c2.4-0.8,4.9-1.5,7.2-2.5c2.8-0.2,4.5-4.3,2.2-6.4c-1.9-1.8-2.6-4-2.7-6.4c1.3-4.8,2.7-9.6,4.5-14.4c2.3-6.2,5.8-12.3,6.7-18.9
		c0.6-1.7,1.2-3.5,1.7-5.2c0.6-1.5,1.2-3.1,1.7-4.6c0.5-1.4,1-2.9,1.5-4.3c2.2-5.7,4.6-11.3,7.3-16.7c2.5-2.9,4.2-7.2,5.9-10
		c3.8-6.3,7.8-12.5,12.1-18.5c4.1-5.6,8.4-11.4,13.1-16.5c4.3-4.6,10.5-7.5,16.2-10.4c0.1,0,0.3,0,0.4-0.1c0.7-0.3,1.4-0.7,2-1.1
		c0.1-0.1,0.2-0.1,0.3-0.2c1.5-0.8,2.3-2,2.6-3.3c2.1-3.5,3.5-8.1,5.1-11.2c1.7-3.2,3.4-6.4,5.3-9.4c1.9-2.9,3.7-4.3,2.7-7.8
		c-0.3-1-1.3-1.9-2.4-1.9c-3.4,0.3-4.1,1.5-5.8,4.4c-1.4,2.3-2.7,4.6-4,6.9c-0.4-0.1-0.8-0.1-1.1,0c-3.9,0.5-7,2.6-10.5,4.2
		c-3.3,1.5-6.9,2.3-10.2,3.6c-2.7,1-6,2.2-8.2,4.2c-2.5-0.6-5.3,0-8-0.7c-3-0.9-5.6-2.6-7.8-4.9c-5.1-5.4-5.8-12.4-5.7-19.4
		c0.1-6.6,0-13.2,1.4-19.6c0.2-0.7,0.2-1.3,0.3-2c0.2-0.2,0.4-0.4,0.5-0.7c3.3-0.6,5.2-5.2,1.6-6.8c-1.9-0.8-3.7-1.3-5.5-1.5
		c-1.2-1.4-2.5-2.6-3.8-4c-0.1-0.1-0.2-0.2-0.3-0.2c-1.8,0-3.5,0-4.8-0.1c-0.7,0.5-1.3,1.2-1.5,2.1c-0.1,0.1-0.3,0.4-0.6,0.8
		c-0.5,0.5-0.9,1.1-1.5,1.6c-1,1-2.1,2-3.3,2.8c-1.2,0.9-1.8,2.1-1.8,3.3c-5.2,3.9-9.8,9-14.1,13c-2.3,2.1-4.7,4.3-7,6.5
		c0.3-1.1-0.3-2.4-1.3-3c-1,0.9-2.1,1.8-3.2,2.7c-18.3,15-51.6,27.5-76.4,54.3c-24.9,26.8-27.7,43.9-32.8,59.6s-15.9,21.3-25.7,30.5
		s-11.7,7.5-12.5,17s1.2,14.4,19.9,20.6c4.7,1.6,10.4,2.8,16.8,3.8c0-0.3-0.1-0.6-0.4-0.9c-4.7-3.9-12.3-5.1-18-7.1
		c-3.3-1.2-6.5-2.4-9.3-4.6c-1.3-1-2.4-2.3-3.4-3.5c0.3-0.7,0.6-1.5,0.9-2.2c0.8-1.9,1.7-3.7,2.7-5.4c2.5,1.7,5.4,3.2,7.7,4.5
		c5.3,3,11,5.1,16.8,6.8c6,1.8,12.2,2.8,18.4,3.4c7.6,0.8,14.7-0.1,22.2-0.1c1.4,0,1.4-2.2,0-2.2c-6.2,0.1-12.4-1-18.6-1.5
		c-6.8-0.7-13.5-1.7-20.2-3.3c-5.9-1.4-11.6-3.5-17-6c-2.6-1.2-5-3-7.4-4.6c0.7-1,1.5-1.9,2.3-2.8c5.2-5.6,11.8-9.3,18.9-12
		c1,0.7,2.1,1.4,3.4,1.9c2.7,1,7.2,3.1,9.7,1.2c0.7-0.5,1.3-1.5,1-2.4c-0.4-1.3-1.4-2.2-2.5-2.8c-0.4-3.7-0.9-7,0.2-11
		c1.1-4.3,2.9-8.6,4.8-12.6c4-8.3,7.7-16.8,11.6-25.2c3.6-7.8,7.5-15.6,12.3-22.8c3.1-3.9,6.3-7.7,9.8-11.3c2.3,1.3,4.8,2.4,6.9,3.7
		c4.6,2.9,8.3,6.7,12.4,10.2c1.4,1.2,3.2-0.6,2-2c-3.4-4.2-7.2-8.1-11.7-11.1c-0.7-0.5-1.5-1-2.2-1.5c2,0.3,3.9,0.6,5.7,1.1
		c6.2,1.6,12.3,4.6,16.8,9.3c0.1,0.2,0.4-0.1,0.3-0.2c-3.6-4.7-7.9-7.5-13.4-9.6c-3.5-1.3-7.1-2.2-10.8-3c-0.8-0.1-1.6-0.3-2.3-0.5
		c9.5-9.1,20.2-16.6,31.8-23.1c12.7-7.2,25-14.4,36-24.1c5.8-5.1,11.3-10.4,17-15.6c4-3.7,9.4-9.6,15.3-10.7c-0.2,1.9-1,3.7-1.3,5.9
		c-0.5,3.3-0.5,6.8-0.6,10.1c-0.2,6.9-1,14.1,1.1,20.8c1.8,5.6,5.1,10.7,9.7,14.2c2.4,1.8,5.1,3.2,8,4.1c0.8,0.2,1.6,0.4,2.5,0.6
		c-4.1,7.6-8.2,15.1-12.9,22.3c-5.3,8-10.7,15.7-14.8,24.5c-4,8.5-7.7,17.2-11.5,25.8c-2,4.4-3.9,8.9-5.9,13.3
		c-1.2,2.7-2.8,5.5-3,8.4c-0.2,0.5-0.5,1-0.7,1.5c-2.7,5.6-4.9,11.4-7.5,17c-2.5,5.4-5.2,10.6-8.4,15.6c-3.1,4.8-6.9,9-10.1,13.6
		c12.6-3.8,18.6-7.5,18.6-7.5s-21.5,24.7-27,30.3s-10.6,12.4-9.3,17.3s7.6,12.5,32.2,20.3s49.3,3.3,77.6-3.3
		c2.7-0.6,5.5-1.3,8.1-1.9C899.5,1835.8,897.7,1833.7,895,1834.8z"/>
	<path opacity="0.3" fill="#091426" enable-background="new    " d="M1120.5,1716.7c12.6,12.5,31,19.1,81.4,26.2s84.9,0.3,96.3-2.3
		c11.4-2.6,14-3.7,14.5-17.1c0.1-4.3-0.6-8.2-2.3-12c-1,0.8-1.7,2-1.8,3.7c-0.1,3.6-0.4,7.4-1.5,11c-4.7,6-12.8,9.5-19.9,10.9
		c-5.1,1-10.3,1.9-15.4,3c-19.3,1.3-38.7,1.1-57.9-0.4c-19.4-1.6-39.5-3.9-58-10c-17.1-5.6-31.5-16.6-46.1-26.8
		c-8.1-5.6-16.3-11.1-25.1-15.4c-2.3-1.1-4.8-2.3-7.3-3.4c1.5-12.5,2.2-24.6-0.6-37c-1.5-6.9-2-13.8-0.9-20.8
		c1-6.3,3.6-11.9,5.5-17.9c0.2-0.8-0.9-1.5-1.4-0.8c-7.1,8.9-8.7,22.8-7.4,33.7c0.8,6.8,2.8,13.3,2.9,20.3c0.1,7.1-1,14-2.2,21
		c-0.4-0.1-0.8-0.3-1.2-0.4c-2.6-4.9-4.7-10-5.8-15.4c-1-5.1-0.3-10.1,0.2-15.2s0.4-10.2,0.6-15.3c0.4-10,2.8-19.6,4.5-29.4
		c0.7-4.3,0.4-8.6,0.9-12.9c0.4-4,1.8-6.9,0.7-10.9c-0.7-2.8-5.5-3.2-6,0c-0.1,0.8-0.4,1.5-0.8,2.2c-0.8,0.1-1.5,0.6-1.9,1.6
		c-4.5,10.6-5.9,22.7-7.9,33.9c-1,5.9-1.4,11.7-1.7,17.6c-0.4,0-0.8,0.2-1.3,0.4c-4.7,2.7-9.1,5.3-14.1,7.1c-0.4-0.1-0.8-0.1-1.3,0
		c-0.8,0.2-1.6,0.4-2.3,0.7c-0.2-0.1-0.4-0.1-0.6-0.1c-2.4,0-3.7,1.5-3.9,3.8c-0.1,0.9,0.5,1.8,1.3,2.3c0.2,0.1,0.4,0.2,0.5,0.3
		c0.6,0.4,1.3,0.4,1.8,0.2c0.4,0.1,0.9,0.1,1.4,0c6.6-1.2,12.3-4.1,18-7.3c-0.2,2.7-0.5,5.4-0.9,8.1c-1.5,10.7-4,21.4-4.3,32.2
		c-0.1,4.4-0.3,13.6,2.3,19.4c0.5-9.2,0.7-20.9,0.7-20.9C1083.4,1691.5,1107.9,1704.2,1120.5,1716.7z"/>
	<path opacity="0.3" fill="#091426" enable-background="new    " d="M903.2,1686.1c-6.2-1.4-13.8-2.8-20-1.1c-0.8,0.2-0.8,1.4,0,1.6
		c6,1.4,12.4,0.8,18.4,2c6.6,1.4,12.4,3.8,18.1,7.3c0.9,0.5,1.9-0.8,1.1-1.5C915.9,1690.3,909.6,1687.5,903.2,1686.1z"/>
	<path opacity="0.3" fill="#091426" enable-background="new    " d="M885.4,1689.9c-0.3,0-0.4,0.4-0.1,0.5c5.3,1.5,10.9,2,16.2,3.3
		c5.9,1.5,10.9,4.1,16.2,7.1c0.9,0.5,2-0.8,1.1-1.5C910.3,1692.6,896.2,1689.2,885.4,1689.9z"/>
	<path opacity="0.3" fill="#091426" enable-background="new    " d="M837.3,1824.5c-6.4-2.9-12.9-6.4-19.8-8.1
		c-6.3-1.5-13-3.8-19.4-4.6c-0.6-0.1-0.7,0.8-0.3,1.1c5.3,3.4,12.2,4.2,18.2,5.5c7,1.5,13.8,5.1,20.5,7.8
		C837.6,1826.6,838.3,1825,837.3,1824.5z"/>
	<path opacity="0.3" fill="#091426" enable-background="new    " d="M821,1823c-3.3-0.8-6.8-1.9-10.2-2.1c-0.4,0-0.4,0.6-0.1,0.7
		c3.2,1.3,6.7,1.8,10,2.6c2.5,0.6,4.9,1.9,7.5,2.2c0.2,0,0.3-0.2,0.2-0.4C826.6,1824,823.5,1823.6,821,1823z"/>
	<path opacity="0.3" fill="#091426" enable-background="new    " d="M1030.4,1701c-2.8-13.4-7.6-26.1-5.9-40
		c0.1-1.1-1.7-1.3-1.9-0.3c-2,12.1,0,23.2,3.3,34.9c2,7.1,2.8,13.3,1.1,20.5c-1.3,5.9-3.2,11.8-4.4,17.8c1.3-0.7,2.6-1.4,3.9-2.1
		C1029.6,1722,1032.5,1711,1030.4,1701z"/>
	<path opacity="0.3" fill="#091426" enable-background="new    " d="M1012.9,1649.4c0.7,1.3-10.3,1.3-11.6,1.2
		c-4.2-0.3-9.8-0.3-13.6-2.4c-3.3-1.7-5.3-5.7-7.2-8.8c-2.1-3.6-4-7.3-5.8-11c-3.7-7.6-7.4-15.3-10.4-23.2
		c-1.4-3.8-2.7-7.8-3.6-11.8c-0.8-3.6-0.7-7.8-2.9-10.8c-1.3-1.8-4-2.1-5.2,0c-2.6,4.5-0.8,10.9,0.4,15.6c1.5,5.8,3.6,11.4,6,16.9
		c4.8,11.2,9.6,23,16.5,33c2.7,3.9,5.8,7.2,10.3,8.9c5.6,2,12.6,2.4,18.5,2.6c4.8,0.2,10.7,0.2,14.5-3.3c3.3-3,4-7.6,1.8-11.5
		C1017.8,1639.9,1010.1,1644.4,1012.9,1649.4z"/>
	<path opacity="0.3" fill="#091426" enable-background="new    " d="M1155.6,1547.8c-3.2,9.9-9.6,19.5-15.6,27.9
		s-14.3,14.4-23.9,18.1c-4.6,1.8-9.5,3-14.4,4c-2.3,0.4-12.1,3.2-14,1.1c-1.1-1.2-3.7-0.3-3.5,1.4c1.1,8.8,15.9,4.3,21.5,3.2
		c10.2-2.1,20-6,28.4-12.2c8.8-6.5,14.4-15.7,20-24.8c2.8-4.6,5.4-9.3,7.3-14.3c1.2-3.2,1.1-6.7,4.9-7.5c1-0.2,1.9-0.2,2.9-0.2
		c0-0.2,0-0.3,0.1-0.4c0.6-3.1-0.9-2.9-0.9-2.9l-3-3.6c-1.3,0.1-2.6,0.3-3.8,0.8C1157.4,1540,1156.8,1544,1155.6,1547.8z"/>
	<path opacity="0.3" fill="#091426" enable-background="new    " d="M1186.7,1624.3c4.1-2.1,7.8-4.3,12.3-5.6
		c1.9-0.6,12.2-4.1,13.6-2.5c0.9,0.9,2.3-0.5,1.4-1.4c-2.4-2.5-10.7,0.7-13.3,1.4c-5.2,1.3-11.1,3.2-14.4,7.8
		C1186.1,1624.2,1186.5,1624.4,1186.7,1624.3z"/>
	<path opacity="0.3" fill="#091426" enable-background="new    " d="M1212.5,1618.5c-6.9,0.3-13.3,2.1-19,6
		c-0.3,0.2-0.1,0.9,0.3,0.7c6-2.5,12.3-4.3,18.7-4.6C1213.9,1620.6,1213.9,1618.4,1212.5,1618.5z"/>
	<path opacity="0.3" fill="#091426" enable-background="new    " d="M1026,1414.2c0.4,13.6-2.1,34.8-6.9,60l20-2.9l3.4-76.4
		c-2.6-0.6-5.2-1-7.6-1.2c-3-0.3-6.1,0.3-9.2,1.4C1025.8,1399.8,1025.8,1406.7,1026,1414.2z"/>
	<path opacity="0.3" fill="#091426" enable-background="new    " d="M1108.8,1442.8l6.4-53.4c-13.8,0-26.9,8.1-26.9,8.1
		c-2.6,24.5-6.1,33-6.1,33s-0.2,3.9-2.1,19L1108.8,1442.8z"/>
	<g>
		<path fill="#93ABEC" d="M1051.1,1465.4c-0.8-0.3-1.5-0.5-2.3-0.7C1049.6,1464.9,1050.4,1465.1,1051.1,1465.4z"/>
		<path fill="#93ABEC" d="M1075.4,1600.3c-1.4-0.3-2.8-0.6-4.1-0.9C1072.6,1599.7,1074,1600,1075.4,1600.3z"/>
		<path opacity="0.3" fill="#93ABEC" enable-background="new    " d="M1055.6,1637c-0.2,0.7-0.3,1.4-0.5,2.1
			C1055.3,1638.4,1055.5,1637.7,1055.6,1637z"/>
		<path opacity="0.3" fill="#93ABEC" enable-background="new    " d="M1009.1,1477.8c0.1-0.1,0.2-0.2,0.3-0.2
			c-0.4,0.3-0.8,0.6-1.3,1C1008.5,1478.3,1008.8,1478.1,1009.1,1477.8z"/>
		<path opacity="0.3" fill="#93ABEC" enable-background="new    " d="M1023.1,1469.4c-1.3,0.6-2.6,1.2-3.9,2
			C1020.5,1470.6,1021.8,1470,1023.1,1469.4z"/>
		<path fill="#93ABEC" d="M1164.9,1531.6c0.1-4.2-0.1-8.7-0.7-13.4c-1.3-12.2-4.6-25.6-8.7-37.6c-1.9-5.6-4-10.8-6.2-15.5
			c-3-6.4-6.2-11.4-9.7-15.4c-0.5-0.6-1.1-1.2-1.7-1.8c-4.8-4.9-10.2-8.1-16.8-10.3c-2.2-0.8-4.5-1.4-6.9-1.9
			c-16.1-3.6-34.3,13.8-34.3,13.8l-5.4,36.9c-0.1-0.1-0.8-1.1-2-2.7c-0.1-0.1-0.2-0.2-0.3-0.4c-1.6-2.1-4-5-7-7.9
			c-1.1-1.1-2.4-2.3-3.7-3.4c-3.2-2.8-6.9-5.2-10.7-6.7c-0.8-0.3-1.5-0.5-2.3-0.7c-1.4-0.3-2.8-0.5-4.2-0.5
			c-2.5,0.1-5.3,0.3-8.4,0.9c-1.7,0.3-3.5,0.8-5.3,1.3c-0.5,0.2-1,0.3-1.6,0.5c-0.8,0.3-1.6,0.6-2.5,0.9c-0.8,0.3-1.7,0.7-2.5,1
			c-0.4,0.2-0.8,0.4-1.3,0.6c-1.3,0.6-2.6,1.2-3.9,2c-1.8,1-3.6,2-5.4,3.2l0,0c-0.9,0.6-1.8,1.2-2.6,1.8c-0.1,0.1-0.2,0.2-0.4,0.3
			c-0.1,0.1-0.1,0.1-0.2,0.2c-0.3,0.2-0.6,0.5-0.9,0.7l-0.1,0.1c-0.4,0.3-0.8,0.6-1.3,1c-0.6,0.5-1.2,1-1.9,1.5
			c-0.6,0.5-1.3,1.1-1.9,1.6c-0.6,0.6-1.2,1.1-1.9,1.7c-0.3,0.3-0.6,0.6-1,0.9c-0.3,0.3-0.6,0.6-1,0.9c-0.3,0.3-0.6,0.6-0.9,0.9
			c-7,7.1-14,16.3-20.6,28.4c-23.3,42-24.9,61.7-24.9,61.7l-10.3-0.7c-0.1-9-0.4-17.5-0.7-24.6s-0.7-12.8-1-16.4
			c-0.2-2.6-0.3-4-0.3-4.1c-2.3,1.9-4.6,3.6-7,5.3c-0.1,0.1-0.1,0.1-0.2,0.2c-2.8,2-5.6,3.8-8.5,5.4c-19.8,11.7-40.2,16.8-57.1,18.9
			c-4.8,0.6-9.4,0.9-13.5,1.1c-15,0.6-24.9-1.1-24.9-1.1l-18.6,46.9c13.8,6.6,39.3-33.1,39.3-33.1l9,4.3
			c-4.6,14.8-10.9,43.9,1.3,53.5c12.3,9.7,27.3,5.5,49.4-6.3c22.1-11.8,30.7-38.9,30.7-38.9l12.4,0.2c1.4,8.9,6.4,33.3,18.8,53.2
			c12.4,19.9,22.5,16.5,43.1,14.9c0.1,0,0.2,0,0.3,0c20.5-1.6,38.4-13.9,38.4-13.9c0.1-0.6,0.3-1.2,0.4-1.9c0.2-0.7,0.3-1.4,0.5-2.1
			c0-0.2,0.1-0.5,0.2-0.7c0.6-2.7,1.2-5.8,1.8-9c0.2-1.2,0.5-2.5,0.7-3.8c2.4-13.2,4.7-27.2,4.7-27.2c1.3,0.7,2.9,1.4,4.8,2
			c0.7,0.2,1.5,0.5,2.4,0.7c0.4,0.1,0.8,0.2,1.3,0.3c1.3,0.3,2.7,0.6,4.1,0.9c2.4,0.4,5,0.8,7.7,1.1c2.8,0.2,5.8,0.4,8.9,0.3
			c0.8,0,1.6,0,2.4-0.1c0.4,0,0.8,0,1.2-0.1c0.8-0.1,1.7-0.1,2.5-0.2s1.7-0.2,2.5-0.3c0.8-0.1,1.7-0.2,2.5-0.3
			c0.8-0.1,1.7-0.3,2.5-0.4c0.8-0.2,1.7-0.3,2.5-0.5s1.7-0.4,2.5-0.6c0.7-0.2,1.5-0.4,2.2-0.6c0.2-0.1,0.4-0.1,0.6-0.2
			c1.1-0.4,2.3-0.8,3.4-1.2c0.5-0.2,1.1-0.4,1.6-0.6c0.4-0.2,0.7-0.3,1.1-0.5c0.7-0.3,1.5-0.7,2.2-1c0.4-0.2,0.7-0.4,1.1-0.6
			c2.3-1.2,4.6-2.6,6.7-4.3l0,0l0,0c2.4-1.8,4.6-3.9,6.7-6.2c20.8-23.8,26.6-42.9,26.6-42.9h5.4l0.5-5l0.4-4.4L1164.9,1531.6
			L1164.9,1531.6z"/>
		<path fill="#63320E" d="M864,1570.6c0,0,2.5-6.3,5-10.3c-4.8,0.6-9.4,0.9-13.5,1.1c-0.6,3-1.7,5.8-1.7,5.8L864,1570.6z"/>
		<g>
			<path fill="none" d="M860.8,1583.9c0,0-3.3,17.2-3.1,27.7s6.2,19.6,17.8,22.2l3.2-10.8c0,0-5.9,1.4-9.4-5.3
				c-3.5-6.7,0.4-23.3,10.5-23.6c10.1-0.3-1.6,3.7-3.9,8.1c-2.4,4.5-3.3,10.7,0.9,12.2c4.1,1.5,5.9-4.8,6.3-7.2s-1.8-3.7-3.3-3.1
				s-2.9,1.8-3.9,3.5s-0.8-6.3,6.5-9c0,0,1.8,2,4-6.8s3.1-14.9,3.1-14.9s-3.2,2.9-13.1,5.2C866.6,1584.5,860.8,1583.9,860.8,1583.9z
				"/>
			<path fill="none" d="M1069.2,1522.1c-0.1,1.4-0.3,2.6-0.4,3.4c-0.7,4.6-5.5,32.5-5.8,36.6c-0.2,4.2-5,11.7-8.3,12.1
				c-3.3,0.3-1.7-5.6-0.3-10.7c1.4-5.1,3.6-3.1,5.2-0.5s1.4-8.7-0.5-9.9c-1.9-1.2-4.9-3.1-8.2,6.8c-3.3,9.9-7.9,15.9-10.3,17
				c-2.4,1-1.9-9-0.7-17.2c1.2-8.2,3-31.2,3.6-41.7c0.6-10.4,0.6-12.5,0.6-12.5s2.1,2,4,3.4c1.8,1.4,2.2,0.6,2.7,4.3
				c0.4,3.7,2.3,9.1,7.3,11.4C1061.9,1526.3,1066.6,1524.5,1069.2,1522.1z"/>
			<path opacity="0.3" fill="#091426" enable-background="new    " d="M1164.9,1531.6c0.6-20-6.9-48-15.5-66.5s-19-25.9-35-29.5
				c-16.1-3.6-34.3,13.8-34.3,13.8l-5.4,37c0,0-12.5-18.4-25.8-21.7c0.1,1.5,0.7,3.2,2.4,4.2c4.1,2.2,8.5,4.6,11.5,8.7
				s9.5,13.8,9.9,15.5c0.5,1.7-2.4,13.5-2.4,13.5s-0.1,2.1-0.3,5c-0.7-0.8-1.6-0.7-2.9,1.1c-3.5,4.9-6,9.8-8.5,4.8
				s-0.7-10.7,2.2-11.4c2.9-0.7,4.8,1.4,5.8,1.3c0.9-0.1,0.2-7.6-2-8s-3,2.7-7.1,3.5c-4,0.8-9.4-3.8-12.9-9.7
				c-3.5-5.8-4.6-10.6-1.9-10.6s4.6,0.3,6-2.3c1.4-2.7,0.5-5.1,0.5-5.1l-13-10c-15.5,3-37.8,14.4-57.1,49.4
				c-23.3,42-24.9,61.7-24.9,61.7l-10.3-0.7c-0.2-24.6-2.1-45.1-2.1-45.1c-2.4,1.9-4.8,3.7-7.2,5.4c1.4,3,3.2,7.9,3.6,14.4
				c0.8,11.8,0.4,17.7,0.2,23.2s-0.1,5.9,4.3,6.5c4.4,0.6,8.8,1.2,11.7,1c2.8-0.2,2.2-1.2,3.8-6.1s8.4-26.1,19.7-47.8
				c11.2-21.7,30.5-41.9,40-49.3c0,0,0.1,3.2,3.5,4.8c3.4,1.7,4.7,0.8,4.7,0.8s-0.4,12.1-1.5,29.3c-1.1,17.2-1.5,36.3-1.5,36.3
				s-8.9-7.1-11.7-9c-4.5-3-4.1,7.5-10.9,6.9c-6.9-0.6-7.1-2.8-6.2-5.2c1-2.5,2.3-4.9,4.5-5.3s5.3,3.8,6.8,3.5s0.7-9.4-2.6-10.3
				s-11.2-0.1-14.6,3.5c-3.4,3.7-4.3,9.3-1.3,16.7c3,7.4,10.9,8.7,14.7,7.9c3.8-0.8,7.1-4.9,8.3-5.4s4.2,1.1,5.4,4.7
				s5.9,8.2,4.9,20.9c-1,12.7-1.2,29.8-1.4,33.7c-0.2,3.9-6.1,6.8-12.2,11.9c-6,5.1-2.7,10.7-11.3,9.6c-8.7-1-9.8-3-9.3-5.6
				s3.7-3,5.1-4.8c1.4-1.8,3.8-1.7,6.2,1.6c1,1.3,1.3,1.7,1.4,1.8c-0.1-0.1-0.4-0.5-0.4-0.5s4.7-7,1.1-9c-3.6-2-10.3-2.2-13.8-1.2
				c-3.5,0.9-6.5,4.2-7,8.6s0.6,13.4,8.3,17.1c7.7,3.6,14.9,1.6,17.9-2.1s3-5.7,3.8-6.6s6-2.8,7.6-3.9c1.2-0.8,0.6,17.2,0.2,26.2
				c20.5-1.6,38.4-13.9,38.4-13.9c0.3-1.4,0.7-2.9,1-4.7c-2.9,1.5-9.4,6.8-19.9,11.3c0,0,0.1-24.3,0.4-35
				c0.4-10.7,0.5-13.4,0.7-14.2c0.2-0.8,11.5-17.2,11.7-17.2c0,0.1,2.1,2,5.8,1.5s6.1-2.4,6.1-2.4s-0.6,7.9-1.4,18.2
				c-0.5,7.1-1.2,20.8-1.6,28.9c2.7-14.1,5.4-31,5.4-31c11,5.9,44.9,10.4,66.7-6.2c-4.5,2-10.6,4.5-16.5,6.3
				c-10.9,3.4-24.3,3.4-24.3,3.4s3.9-21.2,5.6-28.3c1.7-7,3.9-10.2,10.1-15.8s8.9-7.2,9.8-7.3c0.9-0.1,3,3.6,7.7,4
				s11.8-3.9,14.7-8.1c2.9-4.3,0-12-1.7-12.6c-1.6-0.6-0.9,11.3-8.5,10.8s-9.5-2.6-7.9-4.6c1.5-2,5.5-6.8,7.3-5.6
				c1.8,1.2,4.6,6.7,5.6,3s1.4-9-3.3-9.1c-4.7-0.1-8.3,1.9-10.3,6.5s-2.2,4.4-7.8,9.4c-5.6,4.9-10.9,12.3-13.3,11.8
				c-2.3-0.5,1.4-7,2.6-13.1s7.7-38.8,9-44.2c1.3-5.5,2.4-11,2.4-11s1.6,3.3,4.4,5.4s5.2,2.7,5.3,4.3c0.1,1.6,0.4,6.6,8.7,8
				c8.3,1.4,12.9-1.9,14.9-5.8c2.1-3.9-0.9-9.1-1.5-10.5s-0.2,4.9-5.8,7.2c-5.6,2.3-9.3,3.3-10.2-1c-0.9-4.4,5.2-9.9,6.8-7.5
				c1.6,2.4,3.4,6,5.1,4.4s4.3-9.7-2.2-10.2c-6.6-0.5-9,3.2-13,2.9c-4.1-0.2-8.9-8.9-10.8-15.4c-1.9-6.4-0.4-11.1,4.8-10.7
				c5.2,0.4,7.3-3,6.5-7.3s-3.1-10.9,3-4.7c6.1,6.3,13.6,12,17.4,23.1s8.1,18.4,11.5,32.4c3.3,14,3.2,17.3,3.5,22.9
				c0.4,5.5-1.4,9.7,3.4,11.8c2.6,1.1,4.8,1.2,6.3,1.1l0.4-4.4L1164.9,1531.6L1164.9,1531.6z M1068.9,1525.5
				c-0.7,4.6-5.5,32.5-5.8,36.6c-0.2,4.2-5,11.7-8.3,12.1c-3.3,0.3-1.7-5.6-0.3-10.7c1.4-5.1,3.6-3.1,5.2-0.5s1.4-8.7-0.5-9.9
				c-1.9-1.2-4.9-3.1-8.2,6.8c-3.3,9.9-7.9,15.9-10.3,17c-2.4,1-1.9-9-0.7-17.2c1.2-8.2,3-31.2,3.6-41.7c0.6-10.4,0.6-12.5,0.6-12.5
				s2.1,2,4,3.4c1.8,1.4,2.2,0.6,2.7,4.3c0.4,3.7,2.3,9.1,7.3,11.4c3.6,1.6,8.3-0.2,10.9-2.6
				C1069.1,1523.4,1069,1524.6,1068.9,1525.5z"/>
			<path opacity="0.3" fill="#091426" enable-background="new    " d="M931.7,1599.8c-6,8.5-3.5,0.7-19,17.7l13.5-76.2
				c-46.1,27.2-95.5,18.9-95.5,18.9l-18.6,46.9c13.8,6.6,39.3-33.1,39.3-33.1l9,4.3c-4.6,14.8-10.9,43.9,1.3,53.5s27.3,5.5,49.4-6.3
				c22.1-11.8,30.6-38.9,30.6-38.9C939.5,1587.5,937.7,1591.3,931.7,1599.8z M886.4,1591.9c-2.2,8.8-4,6.8-4,6.8
				c-7.3,2.7-7.6,10.7-6.5,9c1-1.7,2.4-2.9,3.9-3.5s3.8,0.8,3.3,3.1s-2.2,8.7-6.3,7.2s-3.2-7.8-0.9-12.2c2.4-4.5,14-8.4,3.9-8.1
				s-14,16.9-10.5,23.6s9.4,5.3,9.4,5.3l-3.2,10.8c-11.6-2.6-17.6-11.7-17.8-22.2s3.1-27.7,3.1-27.7s5.8,0.5,15.6-1.8
				s13.1-5.2,13.1-5.2S888.6,1583.1,886.4,1591.9z"/>
		</g>
	</g>
	<path fill="#93ABEC" d="M1098.1,1443l-5.6,3.6l-7.3,55.4l5.6,6.1l11.5-53.7C1102.3,1454.5,1096.8,1451.9,1098.1,1443z"/>
	<path fill="#93ABEC" d="M1085.3,1514.9c0,0-0.4,2.9-2.5,4l-5.9,43.7l2.9-3.3l8.2-41.4L1085.3,1514.9z"/>
	<g>
		<path fill="#142A66" d="M1057.5,1440c-1.5,16.4-4.3,29.5-6,34.4c-0.3,0.8-0.8,1.5-1.5,2c-3.5,2.7-11.3,2.4-15.7,2.3
			c-5.2-0.1-9.1,0.7-6.9-8.4c2.1-9,5.3-25.9,5.4-50.7c0.1-15.7-0.6-18.9-1.2-23.9c-0.2-1.8,0.1-3.2,1-4.3c1.6-1.9,5-2.6,10.8-1.5
			c9,1.7,15.2,7.5,15.8,10.8C1059.7,1404.1,1059,1423.6,1057.5,1440z"/>
	</g>
	<path opacity="0.3" fill="#091426" enable-background="new    " d="M1032.7,1475.3c-2.4-1.8,0.6-3.8,3-18.7
		c2.3-14.8,3.5-44.2,1.7-53.8c-1.1-5.7-3.2-9.3-4.8-11.3c-0.9,1.1-1.2,2.5-1,4.3c0.5,5,1.2,8.2,1.2,23.9
		c-0.1,24.8-3.3,41.7-5.4,50.7c-2.1,9.1,1.7,8.3,6.9,8.3c4.3,0.1,12.2,0.4,15.7-2.3C1038.5,1477.1,1034.8,1476.9,1032.7,1475.3z"/>
	<g>
		<path fill="#142A66" d="M1130.7,1398.4c-1.9,6.2-5.9,20.1-6,31.9c-0.1,9.4-0.1,15.6-0.2,18.7c0,0.8-0.1,1.4-0.2,1.8
			c-0.4,1.9-9,1.9-14.8,1.2c-5.7-0.7-9-4.7-8.5-23.1c0.5-18.3,3.8-35.5,7.8-42.2c2.6-4.3,4.9-5.8,7.3-6.1c1.3-0.1,2.7,0.1,4.1,0.4
			c4.2,0.9,11.3,2.6,13.4,5.3C1135.8,1389.1,1132.6,1392.2,1130.7,1398.4z"/>
	</g>
	<path opacity="0.3" fill="#091426" enable-background="new    " d="M1106,1439.8c-0.6-13.4,2.1-36.1,5.5-44.6
		c1.9-4.6,3.5-10.2,4.6-14.5c-2.4,0.3-4.7,1.8-7.3,6.1c-4,6.7-7.3,23.8-7.8,42.2c-0.5,18.3,2.8,22.4,8.5,23.1
		c5.8,0.7,14.4,0.6,14.8-1.2c0.1-0.4,0.1-1,0.2-1.8C1112.5,1449.7,1106.5,1451.8,1106,1439.8z"/>
	<g>
		<path fill="none" d="M881.9,1599.8c-1.8-0.6-4.3,1.8-5.4,5.3c-1.2,3.5-0.6,6.9,1.2,7.5c0.8,0.3,1.8-0.1,2.7-0.9
			c1.1-1,2-2.5,2.7-4.4c0.8-2.3,0.8-4.6,0.2-6C883,1600.6,882.6,1600.1,881.9,1599.8z"/>
		<path fill="none" d="M1061.4,1515.8c1.8,0.2,3.5-2.8,3.9-6.7c0.1-0.8,0.1-1.7,0.1-2.4c-0.2-2.7-1.1-4.8-2.5-4.9
			c-1.5-0.2-3,2-3.7,5c-0.1,0.5-0.2,1.1-0.3,1.6C1058.6,1512.4,1059.7,1515.6,1061.4,1515.8z"/>
		<path fill="none" d="M1059.1,1563.6c0.6-4.2-0.3-7.8-2.1-8s-3.7,2.9-4.3,7.1c-0.1,0.6-0.2,1.3-0.2,1.9c-0.1,3.3,0.7,6,2.2,6.2
			c1.6,0.2,3.4-2.5,4.2-6.3C1059,1564.1,1059.1,1563.9,1059.1,1563.6z"/>
		<path fill="none" d="M998.7,1624.9c0.1-0.4,0.1-0.8,0.1-1.2c0-3.4-2.4-6.2-5.3-6.2s-5.3,2.8-5.3,6.2c0,0.1,0,0.1,0,0.2
			c0.1,3.3,2.4,6,5.3,6C996,1629.9,998.2,1627.7,998.7,1624.9z"/>
		<path fill="none" d="M1080.2,1496.4c-1.3-0.1-2.6,2.7-2.9,6.2s0.5,6.5,1.9,6.6c1.3,0.1,2.6-2.7,2.9-6.2
			S1081.5,1496.5,1080.2,1496.4z"/>
		<path fill="none" d="M1004.7,1538.6c0-0.3,0.1-0.6,0.1-0.9c0-3.4-2.4-6.2-5.3-6.2s-5.3,2.8-5.3,6.2c0,0.7,0.1,1.3,0.3,1.9
			c0.7,2.5,2.7,4.3,5,4.3C1002.2,1543.9,1004.3,1541.6,1004.7,1538.6z"/>
		<path fill="none" d="M1137.1,1489.8c0.4-0.8,0.7-1.7,0.7-2.6c0-2.7-2.1-4.9-4.6-4.9s-4.6,2.2-4.6,4.9c0,0.2,0,0.4,0.1,0.6
			c0.3,2.5,2.2,4.4,4.6,4.4C1134.8,1492.1,1136.2,1491.2,1137.1,1489.8z"/>
		<path fill="none" d="M1125.3,1539.5c2.5,0.4,4.9-1.6,5.4-4.5c0-0.3,0.1-0.6,0.1-0.9c0-2.5-1.6-4.7-3.8-5c-2.5-0.4-4.9,1.6-5.4,4.5
			c-0.1,0.6-0.1,1.2,0,1.8C1121.9,1537.5,1123.3,1539.2,1125.3,1539.5z M1125.8,1530.1C1125.6,1529.9,1125.7,1529.7,1125.8,1530.1
			L1125.8,1530.1z"/>
		<path fill="#63320E" d="M1064.3,1561.5c0.7-9.6-5.8-13.8-10-11.7c-4.2,2-6.8,9.7-7.1,15.6c0,0-2.6,2.3-5.3,5.5
			c-2.8,3.2-5.6,7.6-6,5.4s0.3-9.6,1.4-23.6s2.5-36.2,3.1-43.3c0.2-1.7,0.3-3.4,0.5-4.9c0.6-4.6,1.3-7.6,1.8-7.4
			c0.7,0.3,1.2,1.5,4.1,6.2s6,5,6.4,6.2s-0.6,10.1,7.2,12.7c4.4,1.5,7.4-2.8,9-7.7c1.2-3.6,1.7-7.6,1.4-9.8
			c-0.5-5.1-2.2-8.7-5.5-9.7s-8,1.6-9.8,6.1c0,0-4.3-3.5-7.8-11c-1.1-2.4-1.9-5.1-2.5-7.5c-0.5-2.2-0.8-4.2-1-5.7
			c-1.2,0.3-2.5,0.5-3.9,0.4c-2.6-0.1-5.3-0.3-7.9-0.2c-1.2,15.3-4.9,64.7-5.1,68.8c-0.1,2.8-0.4,4.2-0.8,4.8
			c-1.1,1.5-3.2-4.6-5.5-7.5c-3.2-3.9-7.2-5.1-8.5-5.8c-1.3-0.7-0.5-4.8-6.7-10.2c-4.3-3.7-9.8-2.6-13.6,0.7c-1.8,1.5-3.2,3.4-4,5.5
			c-2.5,6.7-0.2,16,8.9,18.3c9.1,2.4,12.9-7.3,12.9-7.3s10.2,7.6,12.8,19.3s0,41.3,0,41.3c0,0.2,0,0.4-0.1,0.7
			c-0.8,2.9-6.8,7.1-16,13.1c0,0-3.8-8.8-13.2-8.1c-4.3,0.4-7.6,2-9.7,4.4c-2.4,2.7-3.4,6.5-2.6,10.4c1.5,7.3,5.1,12,13.2,12.3
			c8.1,0.3,11.3-8,11.3-8s3,0,8.6-4.6c5.6-4.7,7.1-7.3,7.4-5.6c0.3,1.7,0,21.3-0.6,27.5s-5.2,8-5.2,8l4.1,1.7l9,3.6l4.3-9
			c0,0-2.7,1.6-2.3-3.5c0.3-4.7,1.9-37.9,2.3-46c0-0.6,0.1-1.1,0.1-1.4c0.2-4-0.5-2.3,3.9-9.2c4.4-6.9,10.6-16.2,10.6-16.2
			s1.8,2.5,4.3,3.3c0.8,0.3,1.8,0.3,2.7,0c0.2-0.1,0.4-0.1,0.6-0.2c3.7-1.8,7.4-6.1,8.5-14.2
			C1064.2,1563,1064.3,1562.3,1064.3,1561.5z M994.5,1539.6c-0.2-0.6-0.3-1.3-0.3-1.9c0-3.4,2.4-6.2,5.3-6.2s5.3,2.8,5.3,6.2
			c0,0.3,0,0.6-0.1,0.9c-0.4,3-2.6,5.2-5.2,5.2C997.2,1543.9,995.2,1542.1,994.5,1539.6z M988.2,1623.9c0-0.1,0-0.1,0-0.2
			c0-3.4,2.4-6.2,5.3-6.2s5.3,2.8,5.3,6.2c0,0.4,0,0.8-0.1,1.2c-0.5,2.8-2.6,5-5.2,5C990.6,1629.9,988.3,1627.2,988.2,1623.9z
			 M1054.8,1570.7c-1.5-0.2-2.4-2.8-2.2-6.2c0-0.6,0.1-1.2,0.2-1.9c0.6-4.2,2.6-7.3,4.3-7.1s2.7,3.9,2.1,8c0,0.3-0.1,0.6-0.1,0.8
			C1058.2,1568.2,1056.4,1570.9,1054.8,1570.7z M1059,1508.5c0.1-0.6,0.2-1.1,0.3-1.6c0.7-3,2.2-5.2,3.7-5c1.4,0.1,2.4,2.2,2.5,4.9
			c0,0.8,0,1.6-0.1,2.4c-0.4,3.9-2.2,6.9-3.9,6.7C1059.7,1515.6,1058.6,1512.4,1059,1508.5z"/>
		<path fill="#63320E" d="M1125.8,1530.1C1125.7,1529.7,1125.6,1529.9,1125.8,1530.1L1125.8,1530.1z"/>
		<path fill="#63320E" d="M1143.5,1486.1c-0.4-2.3-1.4-4.6-2.6-6.7c-3.2-5.7-11.9-4.5-14.3-1.2s-2.7,2.6-3.8,1.8
			c-1.1-0.8-4-4.8-5.3-9.5c-0.8-2.9-1.6-8.4-1.9-13.8c-0.1-2-0.1-4.1-0.1-6c-0.3,0-0.6-0.1-0.9-0.1l0,0c-2.3-0.2-4.8-0.2-7.1,0.3
			c-0.4,1.8-0.8,3.9-1.3,6.2c-3.2,15.2-8.8,41.1-11.9,52.7c-2.1-3.1-4.1-5.2-5.1-5.9c-1.2-0.9-0.8-0.6-1.1-4.5
			c-0.1-1.5-0.6-3.1-1.4-4.4c-1.2-2.1-3.1-3.7-5.5-3.8c-3.9-0.2-5.8,3.1-5.8,3.1l-0.6,19.2c0,0,1.4,1.8,4.8,2s4.8-4.3,5.6-5
			c0.8-0.8,5,3.5,5.2,6.6c0,0.6,0,1.4-0.2,2.5c-0.6,4.5-2.6,12.8-2.8,20.1l0,0c-0.3,1.8-0.6,3.8-0.9,6c-0.2,1.2-0.4,2.7-0.7,4.3
			c-2.8,11.2-2.2,11.2-5.9,15.3c-0.4,0.5-0.9,1-1.3,1.5c-3.1,3.3-5.8,5.6-7.4,5.4c-1.8-0.2-1.7-0.9-2-2.7c-0.3-1.9-1.6-2.8-2.7-3.1
			l-0.6,4.6c1,0.3,1.5,2.8,1.2,5.6c-0.4,2.9-1.5,5.1-2.6,5.2l-0.9,6.5c0,0,3.5-0.7,6-4.5c2.6-3.8,2.7-3.1,5.6-4.8
			c2.9-1.7,5.5-4.4,5.4-1c-0.1,0.7-0.3,1.3-0.4,2c-2.8,14.5-5.4,27.4-5.4,27.4h8.9c0.3-1.5,0.7-3.1,1-4.6
			c2.3-10.9,4.7-22.6,7.2-34.6l0,0c3.1-10.2,14.6-17.9,19.7-21.7c5-3.8,5.2-3.4,5.8-3.1c0.6,0.3,6.2,6.9,12.8,2.4
			c4.7-3.1,6.4-8,5.8-12.9c-0.2-2.1-0.9-4.1-1.9-6.1c-3.4-6.5-9.9-6-14.6-1.7s-3.9,8.8-4.3,9.8s-3.5,1.6-7.9,3.8
			c-4.4,2.2-7.7,7.1-9,9.5c-1.2,2.4-3,3.5-2.6,1.5l0,0c5.1-25.6,9.9-50.9,13.6-70.3c0.3-1.5,0.6-2.9,0.8-4.4c1.4-2.9,1.9,1.5,3,5
			s5,7.3,7.1,8.8s2.7,1.2,2.9,3.1c0.2,1.9,7.3,10.9,15.1,5.5C1143.2,1494,1144.2,1490,1143.5,1486.1z M1082.1,1503.1
			c-0.3,3.5-1.6,6.3-2.9,6.2c-1.3-0.1-2.2-3.1-1.9-6.6c0.3-3.5,1.6-6.3,2.9-6.2S1082.4,1499.5,1082.1,1503.1z M1121.5,1533.6
			c0.5-2.9,2.9-4.9,5.4-4.5c2.3,0.4,3.8,2.5,3.8,5c0,0.3,0,0.6-0.1,0.9c-0.5,2.9-2.9,4.9-5.4,4.5c-2-0.3-3.4-2-3.7-4.1
			C1121.5,1534.9,1121.4,1534.3,1121.5,1533.6z M1128.6,1487.7c0-0.2-0.1-0.4-0.1-0.6c0-2.7,2.1-4.9,4.6-4.9s4.6,2.2,4.6,4.9
			c0,1-0.3,1.9-0.7,2.6c-0.8,1.4-2.3,2.3-3.9,2.3C1130.8,1492.1,1128.8,1490.2,1128.6,1487.7z"/>
		<path fill="#63320E" d="M914.7,1552.5c0,0-6.7,28.1-10.2,35.1s-3.6,6.4-7,9s-8.6,5.5-8.6,5.5s-0.2-5.3-3.4-7.4
			c-0.9-0.6-2.1-1-3.6-0.9c-0.1,0-0.2,0-0.3,0c-6.4,0.7-8.9,7.3-10.3,13.2c-1.4,5.9,2.9,9.7,7,11.2s8.4-6.4,8.4-6.4
			s10.3-3.3,12.2-5.4c0,0-3.5,14.6-5.4,20.5s-3.6,7.7-8.3,9.2l2.7,4.7l4.1-1.8l1.5-0.7l7.3-3.2l0.2-4.7c-4,0.1-5.7,1-2.9-7.6
			S908.7,1590.8,914.7,1552.5z M883.2,1607.3c-0.6,1.9-1.6,3.5-2.7,4.4c-0.9,0.8-1.9,1.2-2.7,0.9c-1.8-0.6-2.4-3.9-1.2-7.5
			c1.2-3.5,3.6-5.9,5.4-5.3c0.6,0.2,1.1,0.7,1.4,1.5C883.9,1602.7,883.9,1605,883.2,1607.3z"/>
	</g>
	<path opacity="0.3" fill="#091426" enable-background="new    " d="M1066.1,1515.3c-2.6,3.8-6.3,2.8-9-0.3
		c-2.3-2.6-1.7-3.8-1.9-6.8c0-0.5,0.1-0.9-0.1-1.4c-0.8-1.8-3.4-3.2-4.7-4.5c-2.2-2.1-4.1-4.4-6.1-6.7c-0.9-1.1-2.9-0.5-3.1,0.8
		c-0.5,2.8-0.9,5.5-0.1,8.1c0.6-4.6,1.3-7.6,1.8-7.4c0.7,0.3,1.2,1.5,4.1,6.2s6,5,6.4,6.2s-0.6,10.1,7.2,12.7c4.4,1.5,7.4-2.8,9-7.7
		C1068.4,1513.8,1067,1514,1066.1,1515.3z"/>
	<path opacity="0.3" fill="#091426" enable-background="new    " d="M1062.9,1501.8c1.4,0.1,2.4,2.2,2.5,4.9c1-2.6,0.9-7-2.5-7
		c-1.7,0-2.5,1.2-3.1,2.6c-0.3,0.7-0.4,1.3-0.6,2c-0.2,0.8-0.1,1.5-0.1,2.4v0.1C1059.9,1503.8,1061.4,1501.7,1062.9,1501.8z"/>
	<path opacity="0.3" fill="#091426" enable-background="new    " d="M1091.1,1513.7c-0.7-2.7-2.9-4.6-5.1-6.3
		c-0.3-0.5-0.9-1-1.6-1.3c0-0.1,0-0.1,0-0.2c0.9-3.6,1.8-7.2,2.4-10.8c-1.2-2.1-3.1-3.7-5.5-3.8c-3.9-0.2-5.8,3.1-5.8,3.1l-0.6,19.2
		c0,0,1.4,1.8,4.8,2s4.8-4.3,5.6-5c0.8-0.8,5,3.5,5.2,6.6c0,0.6,0,1.4-0.2,2.5C1091.1,1517.6,1091.6,1515.5,1091.1,1513.7z
		 M1082.1,1503.1c-0.3,3.5-1.6,6.3-2.9,6.2c-1.3-0.1-2.2-3.1-1.9-6.6c0.3-3.5,1.6-6.3,2.9-6.2S1082.4,1499.5,1082.1,1503.1z"/>
	<path opacity="0.3" fill="#091426" enable-background="new    " d="M1064.1,1563.7c-1.3,3.5-3.4,7.2-6.4,9c-1.5,1-3.1,1.3-4.9,1.2
		c-0.9-0.1-1.8-0.3-2.7-0.4c-0.8-0.5-1.8-0.5-2.7,0.3c-4.2,3.9-7.5,9.3-10.5,14.2c-2.4,3.9-4.8,8.3-3.9,13c0.1,0.3,0.2,0.5,0.3,0.7
		c0-0.6,0.1-1.1,0.1-1.4c0.2-4-0.5-2.3,3.9-9.2c4.4-6.9,10.6-16.2,10.6-16.2s1.8,2.5,4.3,3.3c0.9,0.1,1.8,0.1,2.7,0
		c0.2-0.1,0.4-0.1,0.6-0.2C1059.2,1576.2,1063,1571.9,1064.1,1563.7z"/>
	<path opacity="0.3" fill="#091426" enable-background="new    " d="M1078.8,1573.2c-1.6,0.5-2.8,1.7-3.9,2.8
		c0.2-1.6,0.5-3.1,0.7-4.7c0.3-0.3,0.5-0.6,0.8-1c0.8-1.2,1.7-2.4,2.4-3.6c-3.1,3.3-5.8,5.6-7.4,5.4c-1.8-0.2-1.7-0.9-2-2.7
		c-0.3-1.9-1.6-2.8-2.7-3.1l-0.6,4.6c1,0.3,1.5,2.8,1.2,5.6c-0.4,2.9-1.5,5.1-2.6,5.2l-0.9,6.5c0,0,3.5-0.7,6-4.5
		c2.6-3.8,2.7-3.1,5.6-4.8c2.9-1.7,5.5-4.4,5.4-1c-0.1,0.7-0.3,1.3-0.4,2c0.7-1.4,1.4-2.9,1.5-4.4
		C1082.1,1574,1080.3,1572.7,1078.8,1573.2z"/>
	<path opacity="0.3" fill="#091426" enable-background="new    " d="M1127.8,1542.5c-2.3,0.7-4.5,0.9-6.9,0.1
		c-1-0.3-1.8-0.8-2.6-0.9c-0.5-1-1.8-1.7-3-1.1c-8.8,4.3-20.5,12.8-23.4,22.7c-0.9,3.1-0.9,6.8-1.4,10c-0.6,3.4-1.4,6.8-2.2,10.2
		c-1.5,5.9-4.5,12.6-4.1,18.7c0,0.4,0.4,0.6,0.7,0.6c2.3-10.9,4.7-22.6,7.2-34.6l0,0c3.1-10.2,14.6-17.9,19.7-21.7
		c5-3.8,5.2-3.4,5.8-3.1c0.6,0.3,6.2,6.9,12.8,2.4c4.7-3.1,6.4-8,5.8-12.9c-0.9,1.6-1.1,3.3-2,4.9
		C1132.6,1540,1130.4,1541.7,1127.8,1542.5z"/>
	<path opacity="0.3" fill="#091426" enable-background="new    " d="M1121.5,1535.4L1121.5,1535.4c-0.1-0.5-0.1-1.1,0-1.8
		c0.5-2.9,2.9-4.9,5.4-4.5c2.3,0.4,3.8,2.5,3.8,5c2-3.8-0.6-11.6-5.8-8.8c-1.9,1-3.3,3.2-3.8,5.2c-0.3,1.1-0.4,2.4-0.1,3.5
		C1121.1,1534.5,1121.3,1535,1121.5,1535.4z"/>
	<path opacity="0.3" fill="#091426" enable-background="new    " d="M1141.2,1491.7c-1.7,2.6-4.5,3.7-7.5,3.5
		c-2.1-0.1-4.4-0.9-6.3-1.9c-1.1-0.6-1.7-1.5-2.4-2.3c0.2-0.5,0.1-1.1-0.2-1.7c-1.7-2.9-5.1-4.8-7.3-7.5c-2.2-2.8-2.6-6.4-4.9-9.1
		c-1.1-1.3-3.3-0.2-3.3,1.4c0,1.7-0.1,3.5-0.1,5.2c0.3-1.5,0.6-2.9,0.8-4.4c1.4-2.9,1.9,1.5,3,5s5,7.3,7.1,8.8s2.7,1.2,2.9,3.1
		c0.2,1.9,7.3,10.9,15.1,5.5c4.9-3.4,5.9-7.4,5.2-11.3l-0.1,0.1C1142.5,1488,1142.4,1490,1141.2,1491.7z"/>
	<path opacity="0.3" fill="#091426" enable-background="new    " d="M1128.5,1487.2c0-2.7,2.1-4.9,4.6-4.9s4.6,2.2,4.6,4.9
		c0,1-0.3,1.9-0.7,2.6c1.7-1.2,2.2-3.7,1.8-5.8c-0.6-2.7-2.3-4.2-5.1-4.1c-2.5,0.1-4.2,1.5-5,3.8c-0.4,1.1-0.5,2.7-0.1,4.1
		C1128.6,1487.5,1128.5,1487.4,1128.5,1487.2z"/>
	<path opacity="0.3" fill="#091426" enable-background="new    " d="M1115.6,1456.7c-0.1-2-0.1-4.1-0.1-6c-0.3,0-0.6-0.1-0.9-0.1
		v0.1v-0.1c-2.3-0.2-4.8-0.2-7.1,0.3c-0.4,1.8-0.8,3.9-1.3,6.2c0,0,0,0,0.1,0C1109,1456.2,1112.6,1456.3,1115.6,1456.7z"/>
	<path opacity="0.3" fill="#091426" enable-background="new    " d="M1028.7,1549c2-12.3,2.3-25,3.1-37.4c0.4-5.9,0.8-11.8,1.1-17.7
		c0.2-3.5,1-7.5,0.7-11.1c3.7,0.5,8,0.7,11.6-0.4c-0.5-2.2-0.8-4.2-1-5.7c-1.2,0.3-2.5,0.5-3.9,0.4c-2.6-0.1-5.3-0.3-7.9-0.2
		c-1.2,15.3-4.9,64.7-5.1,68.8c-0.1,2.8-0.4,4.2-0.8,4.8C1027.6,1550.6,1028.6,1550.2,1028.7,1549z"/>
	<path opacity="0.3" fill="#091426" enable-background="new    " d="M1002.6,1531.3c-1.7-1.1-3.8-1.2-5.6-0.2
		c-2.8,1.5-5.2,6.1-2.5,8.5c-0.2-0.6-0.3-1.3-0.3-1.9c0-3.4,2.4-6.2,5.3-6.2s5.3,2.8,5.3,6.2c0,0.3,0,0.6-0.1,0.9
		c0.4-0.5,0.7-1.1,0.7-1.8C1005.2,1534.7,1004.5,1532.5,1002.6,1531.3z"/>
	<path opacity="0.3" fill="#091426" enable-background="new    " d="M1023.9,1604.3c2.5-12.2,3.4-25.8,2.1-38.1
		c-0.9-8.7-5.5-18-13-23c-0.3-0.3-0.7-0.6-1.1-0.7l0,0c-0.4-0.2-0.7-0.3-1.1-0.2c-0.4,0-0.7,0.1-1.1,0.2c-3.1,1.4-3.9,4.9-7.6,5.4
		c-3.5,0.5-8,0.1-10.6-2.4c-3.3-3.4-2.6-8.5-1.2-12.6c0.7-2,1.8-3.4,1.9-5c-1.8,1.5-3.2,3.4-4,5.5c-2.5,6.7-0.2,16,8.9,18.3
		c9.1,2.4,12.9-7.3,12.9-7.3s10.2,7.6,12.8,19.3s0,41.3,0,41.3c0,0.2,0,0.4-0.1,0.7C1023.3,1605.3,1023.7,1604.9,1023.9,1604.3z"/>
	<path opacity="0.3" fill="#091426" enable-background="new    " d="M1052.7,1562.6c0.6-4.2,2.6-7.3,4.3-7.1s2.7,3.9,2.1,8
		c0,0.3-0.1,0.6-0.1,0.8c0.2-0.2,0.4-0.4,0.5-0.6c1.1-2.1,1.6-4.9,0.9-7.3c-0.6-2.1-2.9-4-5.1-2.8c-1.9,1-2.5,4.3-2.8,6.2
		c-0.2,1.7-0.2,3.1,0.1,4.5C1052.6,1563.9,1052.7,1563.3,1052.7,1562.6z"/>
	<path opacity="0.3" fill="#091426" enable-background="new    " d="M1023.1,1643.6c-0.3-8.5,1.8-16.9,0-25.3
		c-0.2-1.1-1.7-1.7-2.6-1.1c-0.1,0.1-0.2,0.1-0.2,0.2c-0.3,0-0.6,0.1-0.8,0.2c-2.3,1.2-4.1,2.9-6,4.7c-2.2,2.1-4.4,3.3-7.1,4.5
		c-0.2,0.1-0.3,0.2-0.5,0.3c-0.6,0.1-1.1,0.5-1.5,1.1c-3.1,2.7-5.6,6.3-10.1,6.7c-0.1,0-0.3,0-0.5,0c-2.4-0.6-4.7-1.9-6.6-3.2
		c-3.9-2.5-6-5.4-5.2-10.3c0.4-2.3,1.5-4.3,1.9-6.5c-2.4,2.7-3.4,6.5-2.6,10.4c1.5,7.3,5.1,12,13.2,12.3c8.1,0.3,11.3-8,11.3-8
		s3,0,8.6-4.6c5.6-4.7,7.1-7.3,7.4-5.6c0.3,1.7,0,21.3-0.6,27.5s-5.2,8-5.2,8l4.1,1.7C1023.7,1654.2,1023.3,1647.4,1023.1,1643.6z"
		/>
	<path opacity="0.3" fill="#091426" enable-background="new    " d="M1000.1,1620.3c-0.6-2.9-3.4-4.3-6.1-4.4
		c-2.6-0.2-5.4,1.2-6.2,3.9c-0.4,1.2-0.2,2.8,0.4,4.2c0-0.1,0-0.1,0-0.2c0-3.4,2.4-6.2,5.3-6.2s5.3,2.8,5.3,6.2c0,0.4,0,0.8-0.1,1.2
		C999.8,1623.7,1000.5,1622,1000.1,1620.3z"/>
	<path opacity="0.3" fill="#091426" enable-background="new    " d="M901.1,1630.5c-4,0.1-5.7,1-2.9-7.6s10.4-32.1,16.5-70.4
		c0,0-6.7,28.1-10.2,35.1s-3.6,6.4-7,9s-8.6,5.5-8.6,5.5s-0.2-5.3-3.4-7.4c-0.7,2.2-1.4,4.4-2.1,6.6c0.6,1.4,0.6,3.7-0.2,6
		c-0.6,1.9-1.6,3.5-2.7,4.4c-0.3,1.4-0.5,2.8-0.7,4.2c-0.4,0.1-0.8,0.1-1.1,0.1c-2.9-0.2-3.9-2.2-4.6-4.5c-1-3.4,0.1-7.4,1.9-10.5
		c1.2-2.1,4.6-4.5,5.6-7.2c-6.4,0.7-8.9,7.3-10.3,13.2c-1.4,5.9,2.9,9.7,7,11.2s8.4-6.4,8.4-6.4s10.3-3.3,12.2-5.4
		c0,0-3.5,14.6-5.4,20.5s-3.6,7.7-8.3,9.2l2.7,4.7l4.1-1.8v-0.1c0.4-0.2,0.9-0.5,1.4-0.7l0.1,0.1l7.3-3.2L901.1,1630.5z"/>
	<path opacity="0.3" fill="#091426" enable-background="new    " d="M1306,1711.9c-3.5-0.6-0.4,2.1-19.7,5.5s-31.6,5.1-22.2,7.1
		s23.5-0.7,31.7-4.9C1304.1,1715.4,1307.8,1712.2,1306,1711.9z"/>
</g>
</svg>
