<?xml version="1.0" encoding="utf-8"?>
<!-- Generator: Adobe Illustrator 21.0.2, SVG Export Plug-In . SVG Version: 6.00 Build 0)  -->
<svg version="1.1" id="_x30_5_x5F_Footwear_x5F_Snow_x5F_Boots__x28_SNO_x29_"
	 xmlns="http://www.w3.org/2000/svg" xmlns:xlink="http://www.w3.org/1999/xlink" x="0px" y="0px" viewBox="0 0 2000 2000"
	 enable-background="new 0 0 2000 2000" xml:space="preserve">
<g>
	<g id="Layer_23" opacity="0.3">
		<path fill="#091426" d="M788.2,1678.9c-16.5,2.9-33,5.8-49.5,8.7c-43.6,7.6-83.5,14.9-113.5,50.6c-5.2,6.2-10,13.7-8.9,21.6
			c1,7,6.5,12.6,12,17.1c19.5,15.9,42.7,24.6,67.1,29.9c28.5,6.1,59.4,11.4,88.5,8.5c6.8-0.7,16.7-2.1,23.2-4.8
			c-21.3,10.4-21.7,31.2,5.7,40.1c12,3.9,24.9,6.6,37.3,7.6c15,1.2,34.1,2.9,49.1,1.6c40.9-3.4,73-22.4,103.2-49.3
			c8.3-7.4,33.2-32.4,40.4-40.8c0,0-2-6.4-0.7-6l-195.5-69.1L788.2,1678.9z"/>
		<path fill="#091426" d="M1296.1,1734.7c4.2,0.9-7,16.4-8.8,18c-10.5,9.4-23.7,15.4-36.9,19.9c-35.8,12.2-74.2,14.7-112,13.6
			c-39.7-1.2-79.5-5.2-119.1-8c-1.1-0.1-13.3-1.5-13.5-0.4c3.5-13.4,22-27.8,29.4-39.1c6.1-9.2,12.3-18.4,18.3-27.7
			C1053.5,1711,1294.5,1734.4,1296.1,1734.7z"/>
	</g>
	<g>
		<path fill="#8B1718" d="M1292.8,1686.2l-3.5-1.2c0,0,0-8.7-3.1-23c-2.4-11.4-8.6-17.2-11-19.1c-0.6-0.5-1-0.8-1-0.8s0.1-0.6,0-1.7
			s-0.3-2.7-1-4.6c-0.7-1.8-2-4-4-6.1c-5.9-6.2-10.6-11.2-17.8-16.1c-4.6-3.1-8.5-4.9-10.8-5.8c-1.3-0.5-2.1-0.7-2.1-0.7l-4.9,1.3
			c0,0-0.3-0.3-1-0.8c-2.7-2.1-10.7-7.9-21.3-12.2c-1.5-0.6-3.2-1.3-5-2c-12.1-6.3-27.5-13.6-30.9-14.2c-1-0.2-1.7-0.5-2.3-0.9
			c0.6-3.6,2.1-12.9,3.7-23.3c1.7-10.3,3.5-21.7,4.9-29.3c2.7-15.4,4.4-18.2,0.9-22.1c-0.4-0.5-1-1-1.6-1.6c0,0,0.1-0.7-0.4-1.7
			c-0.4-0.9-1.1-2-2.5-3.2s-3.4-2.6-6.4-3.9c-4.8-2.1-11.6-3-18.2-2.8c-3.3,0.1-6.5,0.5-9.4,1.1s-5.4,1.5-7.2,2.7
			c-7.4,4.5-18.2,15-18.2,15s-4.6-9.6-11.5-10s-16.8,6.8-20.2,18.3c0,0-4.7-1.8-15,1.8c0,0-6.2-3.8-20.7,0.7s-28.4,10.5-33.1,17.5
			c0,0-0.9-4-5-9.3c-1-1.3-2.2-2.6-3.6-4c-1.4-1.4-3-2.8-4.9-4.2c-3.4-2.5-8-4.6-12.9-6.2c-11.9-3.9-25.3-5.2-25.3-5.2
			s-15.3,17.3-36.6,31.2l-2.3,2.9l-5.2,1.7c0,0-9.5,6.5-38.6,15.2c-29.2,8.7-54.1,0-54.1,0s-7.7,25.3-12.7,36.9
			c-2.8,6.5-4.6,10-6.2,12.3c-1.3,1.8-2.4,2.8-3.6,3.7c-2.1,1.6-15.6,5.1-33.5,11c-1.4,0.5-2.8,0.9-4.3,1.4
			c-5,1.7-10.3,3.6-15.7,5.6c-14.9,5.6-26.1,11.5-34.7,18.5c-7.1,5.8-12.5,12.3-16.8,20.1c-9.6,17.4-9,23.1-9,23.1s-1.4-2.6-5,7
			c-0.8,2.2-1.8,5.1-2.7,8.4c-3.1,11-6.4,31.6-7.3,45.8c0,0,4.5,8,20.2,14.5s115.3,4.7,115.3,4.7l10.1,10.6l2.6,8.6l-3.1,7.3
			c0,0,10.1,14,19.5,21.5s63.9,21.1,113.5-6c14.2-7.7,26.3-15.8,36.3-23.3c5.8-4.4,11-8.5,15.4-12.4c4.5-3.9,8.2-7.4,11.3-10.5l0,0
			c1.5-1.5,2.9-2.9,4.1-4.2c4.5-4.7,6.7-7.5,6.7-7.5l16.9-31.5l1.5-2.9c0,0,64.5,14.7,83.1,14.8c14.5,0.1,77.1-4.9,114-10.6
			c8.9-1.9,17.6-3.8,25.3-5.6c20.2-7.9,27.4-25,27.4-25l1.2-7.4L1292.8,1686.2z M1116.8,1543c0.3-1.1,0.6-2.1,0.9-3.3
			C1117.4,1540.8,1117.1,1541.9,1116.8,1543z M1172,1574.5c0,1.1,0,2,0.3,2.7C1172.1,1576.5,1172,1575.5,1172,1574.5z"/>
	</g>
	<path fill="#D8D8D8" d="M818.1,1635.9c21-7.4,36.7-13.9,36.7-13.9l24.2,12.7c0,0-1.5,10.6-3.4,21.2c0,0-19.7,1.5-32.1,13.6
		c0,0-3.6-12.6-10.6-21.4S818.1,1635.9,818.1,1635.9z"/>
	<path opacity="0.3" fill="#091426" enable-background="new    " d="M1292.8,1686.2c-3.9,3.6-14.1,10.5-39.1,16.9
		c-36.1,9.2-79.1,12-99,10.1s-23.4-1.2-13-8c10.4-6.9,31.2-22.7,39.3-32.1c8.1-9.4,6.8-8.3,10.1-8.8c3.2-0.5,9.6-0.3,29.4-1.9
		s38.3-9.9,50.5-16.9c1.4-0.8,2.8-1.7,4.2-2.4c-0.6-0.5-1-0.8-1-0.8s0.1-0.6,0-1.7c-36.2,22.2-64.3,21.1-75.2,21.3
		c-11.2,0.1-10.2,0.2-14.2,4.5s-12,15.5-38.5,32.2c-26.5,16.8-25.8,16.6-45.3,13.8c-19.6-2.8-29.7-11.8-30.3-27.6l-17.4,4.5
		l5.1-31.1l13.7,3c5.9-20.9,12.4-46,11.5-53.8c-1.5-14.1-0.1-27.4,0-32.4s-0.4-8.2,1.3-12.9c1.7-4.7,4.2-12.4,8.3-33
		c4.2-20.5,2.5-20.8,2.5-20.8s4.9-4,9.9-4.1c5,0,10.3,3.3,11.8,11.6c1.5,8.2-4.5,24.5-7.7,40.6c-3.2,16-4.1,23,0.6,31.6
		s16.2,13.6,23.3,17.1c7.1,3.5,37.8,19.2,66.1,20.8c28.3,1.7,36.2-8.8,39.3-13.3c1.1-1.6,1.6-3.2,1.7-4.6c-1.3-0.5-2.1-0.7-2.1-0.7
		l-4.9,1.3c0,0-0.3-0.3-1-0.8l-1.2,1.4c0,0-3.3-3-11.4-8.1c-2.6-1.7-7.8-4.5-13.6-7.5c-12.1-6.3-27.5-13.6-30.9-14.2
		c-1-0.2-1.7-0.5-2.3-0.9c-2.2-1.8-1.1-6,0.1-12.4c1.5-8.1,2.5-15.5,5.2-29.2c2.8-13.8,2.8-22.2,3.5-28.7c0.2-1.8,0.4-3.3,0.7-4.4
		c-0.4-0.5-1-1-1.6-1.6c0,0,0.1-0.7-0.4-1.7c-1,2-2.3,5-3.4,8.6c-1.7,5.3-2.1,9.1-2.5,14.9c-9,0.3-39.2,1.4-53.4,1.1
		c0.6-2.7,1.1-5.3,1.5-7.5c1.1-5.8-0.3-8.9-0.3-8.9s11.5-9.6,24.3-15.5c2.2-1,4.5-1.8,6.8-2.5c-6.6,0.2-12.9,1.5-16.7,3.8
		c-7.4,4.5-18.2,15-18.2,15s-4.6-9.6-11.5-10s-16.8,6.8-20.2,18.3c0,0-4.7-1.8-15,1.8c0,0-6.2-3.8-20.7,0.7s-28.4,10.5-33.1,17.5
		c0,0-0.9-4-5-9.3c-0.6,2.6-1.4,6.1-2.7,10.2c-2.8,8.8-5.1,10-5.1,10l-36-4.9l-1-3.7c0.1-5.4,5.4-18.4,15.5-23
		c2.7-1.2,5.5-2.2,8-2.9c-11.9-3.9-25.3-5.2-25.3-5.2s-15.3,17.3-36.6,31.2l-2.3,2.9l-5.2,1.7c0,0-9.5,6.5-38.6,15.2
		c-29.2,8.7-54.1,0-54.1,0s-7.7,25.3-12.7,36.9c-2.8,6.5-4.6,10-6.2,12.3c1,1.3,2.5,2.7,4.8,3.7c5.1,2.3,10.3,0.7,24.5,2.3
		c14.2,1.6,10.4,2.4,3.6,2c-6.8-0.3-29-0.7-31.4-1.7c-2.5-1.1-1.8-2.6-1.8-2.6c-2.5,2.5-9.4,4.6-19,6.7c-9.6,2.2-19.5,5.9-19.5,5.9
		l1.7-1.6c-1.4,0.5-2.8,0.9-4.3,1.4c-2,2.4-4.1,5.7-4.1,8.7c0.2,5.9,1.6,6.4,14.5,9.8s25.2-2.6,34.4-6.2
		c9.2-3.7,33.3-12.8,33.3-12.8c5.2,6.1,5.3,8.8,5.3,8.8c-7.2,3.1-28.5,20.2-46.1,47.8c-10.4,16.3-12.7,28.9-12.7,28.9
		s-10.7,7.3-36.8,7.2c-26.2-0.1-45.2-10.7-50.2-13.4c-5-2.8-10.8-16.6,3.5-40.6c3.6-6.1,6.4-10.7,8.5-14.2
		c-7.1,5.8-12.5,12.3-16.8,20.1c-9.6,17.4-9,23.1-9,23.1c3.1,5.2,10.8,16,35.5,22.7s51.8,3.1,51.8,3.1s-7.9,6.5-9.5,18.8
		s0.7,23.9,0.7,23.9s-23.8,1.9-30.3,1s-23.6-3.9-39-16c-11.1-8.7-16.3-23.1-16.8-38.1c-3.1,11-6.4,31.6-7.3,45.8
		c0,0,4.5,8,20.2,14.5s115.3,4.7,115.3,4.7l10.1,10.6l2.6,8.6l-3.1,7.3c0,0,10.1,14,19.5,21.5s63.9,21.1,113.5-6
		c14.2-7.7,26.3-15.8,36.3-23.3c-0.5-1.2-0.9-2.4-1.4-3.6l28.2-19.3c1.5-1.5,2.9-2.9,4.1-4.2c1.4-2.9,3.8-8.4,3.8-11.4
		c0-4.2-3.1-8.4-3.1-8.4s-15.2,14.8-26.6,21.5c-3.2,1.9-5.9,2.9-8.1,3.3c-1.3-0.6-3.2-1.5-5.9-2.7c-0.3-0.1-0.6-0.3-0.8-0.4
		c-6.1-2.9-17.3-9.9-20.3-14.4c-3.1-4.7-6.6-8.1-12.6-8.1s-19.6,2.1-40.1,3.3c-20.5,1.1-44.2-2.3-62.5-5.8s-18.3-13.9-18.1-29
		s10.4-40.6,24.5-58.4c14.1-17.7,28-28,28-28l11,0.6c0,0-9.9,10.8-12.6,18.1c-2.7,7.3-1.7,18.2,9.5,22.6c11.3,4.4,27.7,1.9,27.7,1.9
		c10.9-1.2,18.9-1.9,25.7-3.1c10.4-1.8,17.7-4.6,27-11.3c8.3-6,12.2-8.7,14.6-12.9c2-3.5,2.9-8.1,4.6-16.4
		c3.6-18.2,7.3-40.8,13.1-54.9c5.8-14.2,15.3-29.3,22.3-34.3c7-5,17.9-8.8,17.9-8.8s0.6,6.2-2.4,18.5s-8,29.1-10.2,56
		c-1.8,21.6,1.1,39.8,7,51.4c1.5,2.8,3.1,5.3,4.9,7.2l4.8,12.9c0,0-1.8,13.2-2.8,24c-0.1,0.6,1.7,5.4,3.2,9.5l-2.9,16
		c0,0,0.7,0.9,3.2,2.4l1.5-2.9c0,0,64.5,14.7,83.1,14.8c14.5,0.1,77.1-4.9,114-10.6c8.9-1.9,17.6-3.8,25.3-5.6
		c20.2-7.9,27.4-25,27.4-25l1.2-7.4L1292.8,1686.2z M1228,1612.6c0,0-15.1,5.3-26,5.6c-3.9,0.1-8.9-0.2-14.2-1
		c2.6-1,7.5-2.7,13.7-4.2c7.1-1.8,13.9-5.5,16.7-7.2C1224.4,1609.5,1228,1612.6,1228,1612.6z M1215.6,1604.1
		c-6,1.9-22.1,6.9-38.4,10.8c-6.2-1.7-12.4-4-17.8-7c-1.8-1-3.6-1.9-5.5-2.8c8-1.8,28.9-6.4,35.6-8.6c2.7-0.9,4-1.8,4.5-2.6
		c1.8,0.7,3.7,1.5,5.7,2.3C1205.7,1598.6,1211.2,1601.4,1215.6,1604.1z M1188.8,1591.7c-8.9,1.9-31.6,6.6-45.1,8.6
		c-9.1-4-17.8-7.8-23.5-12.5c-2.8-2.4-4.7-4.7-5.9-7.1c7.8,0.6,22-0.5,22-0.5s0.1,1.6,3.5,2.6s17.9-1.1,23.6-2.6
		c5.7-1.6,3.1-3.3,3.1-3.3l2.4-0.4c-0.2,3.4,0.2,5.8,1.5,6.7C1172.3,1584.5,1178.6,1587.4,1188.8,1591.7z M1169.8,1566.3
		c-0.3,2.8-0.6,5.3-0.8,7.5c-8,0.7-40.8,3.6-55.8,3.6c-1-4.5-0.4-9.5,0.5-16.2c0.7-4.8,1.1-8.2,1.6-11l24.6,0.4c0,0-0.8,2.3,1.8,3.3
		c2.7,1,12.8-0.5,17-0.6c4.1-0.1,3.2-2.5,3.2-2.5c3.4,0.1,7.4-1,10.1-1.8C1171.2,1555.6,1170.3,1562,1169.8,1566.3z M1120.3,1529.9
		c4.3,1.3,16,2.6,16,2.6c2.1,2.8,13.1,3.3,18.8,2c5.8-1.4,3.5-3.4,3.5-3.4l15.8-2.3c0,0.4-0.1,0.9-0.1,1.4c-0.3,3.8-0.9,8.8-1.6,14
		l-53.1,1.6c0,0-1.5-1.1-3-2c0.4-1.7,0.9-3.4,1.5-5.5C1119,1535.4,1119.7,1532.6,1120.3,1529.9z M783.2,1641.1
		c-14.4-1.2-15-5.2-15.6-7.4c0,0,11.5-0.8,21.7-1s24.4,1,24.4,1S797.5,1642.3,783.2,1641.1z M828,1628l-53.3,1
		c0.1-0.7,33.2-11.9,33.2-11.9s1.4,3,10.2,4.3c8.8,1.2,26-0.3,26-0.3L828,1628z M829.2,1740c11.4,7.7,31.3,9.1,58.5,10
		s49-1.8,57.2-2.9c8.2-1.2,11.2,0.1,14.8,4.9c3.5,4.8,5.9,8,15,13.1c4.2,2.4,7.4,4.3,9.6,5.7c1.6,2.5,1.2,5.1-1.9,7.8
		c-4.3,3.6-36.5,18-36.5,18s0,0-20.8,3.9s-48.1,5.7-70.1-3.1c-22-8.8-30.1-26.9-29.5-42.7C826.3,1738.8,829.2,1740,829.2,1740z
		 M941.2,1661.8c-7,1.8-15.4,3.4-24.6,4c-15.8,1.8-31.7-2.1-33.7-9.7c-0.5-1.9-0.7-3.7-0.7-5.5l15.1-1.6c0,0-3.2,1.9,4.9,3
		c8.1,1.1,21.2,0.9,25.5,0.1c4.4-0.7,5.3-2.9,5.3-2.9s6.4,0,13.4,0.9c1.6,0.2,3.2,0.4,4.7,0.7c8.5,1.6,12.1,3,12.1,3
		S954.8,1658.3,941.2,1661.8z M979.8,1641.1c-0.2,0.2-0.3,0.4-0.5,0.7c-4.3,5.7-11.6,9.4-11.6,9.4s-5.7-3-15.1-5.8
		c-3.4-1-7.2-1.9-11.5-2.7c-14.6-2.6-50.7,1.3-57.7,2.1c1.3-3.3,3.5-6.6,6.9-10.1c4.4-4.6,7.4-8.8,11-12.3l13.4-1.2
		c0,0-2.1,2.5,4.5,3.5c6.7,1,26.8,0,29.5-1c2.7-0.9,3.8-3,3.8-3s8.9,1.2,19.5,3.6c10.5,2.4,12.9,3.8,12.9,3.8
		S983.7,1635.5,979.8,1641.1z M986.9,1621.1c0,0-17-2.9-39.4-4.7c-12.6-1.1-26.1-1.2-35.5-1.1c5.9-3.8,9.7-10.3,10.9-12.5
		c6.6,0.2,22.3,0.6,26.2,0.4c5-0.2,5-1.2,6-3.4c0,0,11.5-1.1,20,0.4s13.9,4.4,13.9,4.4L986.9,1621.1z M990.9,1594.2l-32.9-2.3
		l-19,1.9c0.9-0.7,1.7-1.3,2.3-1.9c3-3.3,10.6-10.9,16.3-19l37.6,4.6L990.9,1594.2z M997.3,1569.9l-34.6-5.8c4-8.7,4-16.3,4-16.3
		c17.3,1.9,37.7,6.5,37.7,6.5L997.3,1569.9z M1046.6,1587.6c-9,14.3-6.6,39.3-5.8,50.3c0.5,7.3,0.4,13.3,0.2,16.5
		c-0.1,1.6-0.2,2.5-0.2,2.5s-0.7-1-1.6-2.9c-2.3-4.5-6.2-14.1-6.6-27.5c-0.5-19,0-42.5,6.6-65s7.6-28,6.2-35.2
		c0,0,20.9-5.1,35.8-4.4c-0.6,4.9-3.5,24.2-11.1,49C1061.4,1599.7,1055.6,1573.4,1046.6,1587.6z"/>
	<g>
		<g>
			<g>
				<path fill="#CE2828" d="M991.4,1543c-7.9-1.1-15.9-2-23.8-2.8c-0.3,0-0.7-0.1-1-0.1c-12.2-1.2-24.4-1.5-36.5-0.1
					c-2.7,2-5.3,3.5-7.4,4.6c6.3-0.2,12.7-0.8,19-1c8-0.2,16,0.2,24,1c7.7,0.7,15.4,1.6,23.1,2.7c6.7,0.9,14.6,1.7,20.9,4.7
					c0.7-1.1,1.5-2.6,2.5-4.1c-1.8-0.5-3.6-1-5.4-1.5C1001.8,1545.1,996.8,1543.8,991.4,1543z"/>
				<path fill="#CE2828" d="M963.5,1562.9c-2.8-0.3-5.6-0.5-8.5-0.7c-8.1-0.6-16.3-0.8-24.5-0.6c-7.5,0.2-16.2-0.3-23.6,1.7
					l-0.5,4.3c7.8,0.6,16.2-1.1,24.1-1.3c7.8-0.2,15.7,0,23.5,0.5c15.1,1,30.1,3.5,44.8,7.1c0.5-1.5,1-3.3,1.7-4.8
					c-0.9-0.2-1.8-0.4-2.6-0.6C986.6,1565.9,975,1564,963.5,1562.9z"/>
				<path fill="#CE2828" d="M953.2,1588.6c-1.5,0-3.1,0-4.6,0c-7.3,0.1-14.5,0.7-21.7,1.3c-6.7,0.6-14,0.6-20.6,2.2l-0.4,4.6
					c7.2,0.3,14.7-1.2,21.9-1.8c7.2-0.6,14.5-1.2,21.7-1.3c15-0.2,29.9,1.4,44.7,3.1l0.8-4.5c-1.6-0.2-3.1-0.4-4.7-0.6
					C978.1,1590,965.7,1588.7,953.2,1588.6z"/>
				<path fill="#CE2828" d="M949.7,1613.9c-0.1,0-0.2,0-0.3,0c-11.2-0.5-22.8-1.1-34.2-0.7c-2,0.1-4,0.2-5.9,0.3
					c-1.9,0.1-3.7,0.3-5.5,0.5l-0.4,3.2c0.1,0,0.1,0,0.2,0c14.3,0.9,28.8,0.1,43.2,0.7c13.8,0.5,28.6,1.1,41.5,6.3l1-4.2
					c-1.7-0.5-3.4-1-5.1-1.4C972.7,1615.7,961.4,1614.4,949.7,1613.9z"/>
				<path fill="#CE2828" d="M967.8,1643.3c-13.8-2.9-28-3.5-42.1-3.5c-6.9,0-13.8,0.2-20.6,0.7c-0.3,0-0.5,0-0.8,0
					c-1.3,0.1-2.9,0.1-4.5,0.1c-2,0-4,0.1-6,0.3c-2.9,0.4-5.6,1.2-7.5,2.9c-0.3,0.3-0.2,0.9,0.1,1.1c4.8,2.8,12.5,0.4,17.8,0.1
					c0.1,0,0.2,0,0.4,0c6.7-0.4,13.4-0.7,20.1-0.7c13.7,0,28.5-0.2,41.8,3.5C969.5,1648.6,970.8,1643.9,967.8,1643.3z"/>
				<path fill="#CE2828" d="M861.3,1572.2c-7.3-0.7-15.7-2.1-22.9-0.7l-1,3c0.2,0.2,0.4,0.3,0.7,0.4c6.9,1.3,14.3,0.5,21.3,1.3
					c8,0.8,15.9,2.4,23.7,4.3c0.1,0,0.1,0,0.2,0c0.6-1.1,1.2-2.5,1.9-4c-0.2-0.2-0.5-0.3-0.9-0.4
					C876.7,1574.3,869,1573,861.3,1572.2z"/>
				<path fill="#CE2828" d="M850.8,1593.8c-3.8,0.5-7.6,1.2-11.4,1.8c-3.7,0.6-7.6,0.7-11.2,1.8l-1.2,3c7,1.1,15.1-1.1,22.1-2
					c8.5-1,16.5-1.3,24.9,0.1l0,0l1.6-4.6c-0.1,0-0.2-0.1-0.3-0.1C867.2,1592.3,858.9,1592.8,850.8,1593.8z"/>
				<path fill="#CE2828" d="M836.2,1610.4c-6.6,0.2-14,0.3-20.7,1.8l-5.7,3.7c0.1,0.1,0.3,0.2,0.5,0.2c8.2,1.1,16.8-0.7,25-1
					c9.1-0.3,18.7-0.2,27.6,2c0.1,0,0.2,0,0.2,0l1.9-4.7c-0.4-0.3-0.8-0.5-1.4-0.5C854.4,1610.9,845.5,1610.1,836.2,1610.4z"/>
				<path opacity="0.3" fill="#091426" enable-background="new    " d="M861.3,1572.2c-7.3-0.7-15.7-2.1-22.9-0.7l-1,3
					c0.2,0.2,0.4,0.3,0.7,0.4c6.9,1.3,14.3,0.5,21.3,1.3c8,0.8,15.9,2.4,23.7,4.3c0.1,0,0.1,0,0.2,0c0.6-1.1,1.2-2.5,1.9-4
					c-0.2-0.2-0.5-0.3-0.9-0.4C876.7,1574.3,869,1573,861.3,1572.2z"/>
				<path opacity="0.3" fill="#091426" enable-background="new    " d="M850.8,1593.8c-3.8,0.5-7.6,1.2-11.4,1.8
					c-3.7,0.6-7.6,0.7-11.2,1.8l-1.2,3c7,1.1,15.1-1.1,22.1-2c8.5-1,16.5-1.3,24.9,0.1l0,0l1.6-4.6c-0.1,0-0.2-0.1-0.3-0.1
					C867.2,1592.3,858.9,1592.8,850.8,1593.8z"/>
				<path opacity="0.3" fill="#091426" enable-background="new    " d="M836.2,1610.4c-6.6,0.2-14,0.3-20.7,1.8l-5.7,3.7
					c0.1,0.1,0.3,0.2,0.5,0.2c8.2,1.1,16.8-0.7,25-1c9.1-0.3,18.7-0.2,27.6,2c0.1,0,0.2,0,0.2,0l1.9-4.7c-0.4-0.3-0.8-0.5-1.4-0.5
					C854.4,1610.9,845.5,1610.1,836.2,1610.4z"/>
				<path fill="#CE2828" d="M1134.7,1527.8c5.5,0,11-0.1,16.5-0.3c9.2-0.2,18.7,0,27.8-1.4c0.3-1.5,0.5-3.3,0.7-5
					c-0.2,0-0.4,0-0.6,0c-1.2,0.2-2.4,0.4-3.7,0.6c-7.1,0.9-14.4,0.8-21.6,0.9c-1.6,0-3.1,0-4.6,0.1c-3.9,0.1-7.9,0.1-11.8,0.2
					c-0.9,0-1.9,0-2.8,0c-4.5,0-9.2-0.4-13.7,0.4c-0.1,0.9-0.3,1.9-0.5,2.8c-0.1,0.4-0.1,0.7-0.2,1.1c0.1,0,0.1,0,0.2,0.1
					C1125.2,1528.3,1130.1,1527.8,1134.7,1527.8z"/>
				<path fill="#CE2828" d="M1117.8,1547.5c1.9,1.2,4.7,1,7,1c6,0,11.9-0.2,17.9-0.3c10.5-0.2,21.1,0,31.5-1.4
					c0.1-2,0.1-3.6,0.1-4.8c-0.3-0.1-0.6-0.1-0.9,0c-1.6,0.2-3.2,0.4-4.9,0.6c-5.9,0.5-11.9,0.6-17.9,0.7c-2.7,0-5.3,0-7.9,0.1
					c-1.4,0-2.8,0.1-4.2,0.1c-3.6,0.1-7.2,0.1-10.7,0.2c-3.1,0.1-7-0.3-10.1,0.8c0,0.9,0,1.8,0,2.6
					C1117.8,1547,1117.8,1547.3,1117.8,1547.5z"/>
				<path fill="#CE2828" d="M1169.7,1575.6C1169.8,1575.6,1169.8,1575.6,1169.7,1575.6c0.1-1.8,0.1-3.6,0.1-5
					c-0.4-0.1-0.9-0.2-1.4,0c-0.2,0.1-0.5,0.1-0.7,0.2c-1.7,0.5-3.5,0.9-5.2,1.2c-8,1.6-16.2,1.9-24.4,2.2c-0.2,0-0.5,0-0.7,0
					c-4.9,0.2-9.8,0.3-14.7,0.3c-4.2,0-8.4-0.5-12.6-0.1c-0.1,1,0,1.9,0,2.8c0,0.5,0.1,1,0.2,1.4c4.3,0.9,9,0.7,13.3,0.7
					c5.5,0,10.9-0.2,16.3-0.3C1150,1578.8,1160,1578.2,1169.7,1575.6z"/>
				<path fill="#CE2828" d="M1191.8,1593c0.3-0.1,0.5-0.3,0.7-0.5c-2.5-1.2-5-2.1-7-2.8c-0.5,0.1-1.1,0.2-1.6,0.4
					c-2.3,0.5-4.5,1.3-6.7,1.8c-1.5,0.4-2.9,0.7-4.4,1.1c-3.2,0.8-6.5,1.4-9.8,1.9c-2.5,0.3-4.9,0.6-7.4,0.9s-4.9,0.5-7.4,0.7
					c-3.9,0.3-7.6,0.3-11.2,1.6c2.6,0.9,5.3,1.9,7.7,2.7c0.7,0.3,1.3,0.5,1.9,0.7c1.2-0.1,2.4-0.2,3.5-0.3c4.6-0.4,9.2-0.9,13.8-1.5
					c4.9-0.7,9.7-1.8,14.5-3.1C1182.9,1595.4,1187.7,1594.9,1191.8,1593z"/>
				<path fill="#CE2828" d="M1213.5,1599.8c-0.7,0.3-1.4,0.6-2.1,0.9c-0.5,0.2-0.9,0.4-1.3,0.5c-4.8,1.5-9.6,3-14.4,4.5
					c-0.1,0-0.3,0.1-0.4,0.1c-2.5,0.8-4.9,1.6-7.4,2.5c-2.1,0.7-4.3,1.5-6.4,2.2c-3.2,1.1-6.6,1.1-9.4,2.9c1.8,0.6,3.8,1.2,5.6,1.8
					c0.9,0.2,1.7,0.5,2.5,0.7c0.8-0.3,1.6-0.5,2.4-0.8c4.1-1.4,8.3-2.9,12.5-4.3s8.4-2.7,12.6-3.9c0.6-0.2,1.2-0.3,1.8-0.5
					c2.4,0.3,5.2,0.5,6.7-0.2c1.3-0.5,1.6-1.2,1.3-1.9c0.7-0.2,1.4-0.5,2.1-0.8c0.4-0.2,0.7-0.5,0.9-0.9
					C1218.3,1601.4,1215.7,1600.5,1213.5,1599.8z"/>
				<path fill="#CE2828" d="M825.1,1626.7c-4.9-0.4-9.7-0.6-14.6-0.5c-3.3,0-6.6,0.1-9.9,0.2c-4.3,0.2-8.8,0.1-13.3,0.2
					c-5.1,0.2-10.1,0.6-14.8,2c-0.6,0.2-1,0.8-0.9,1.4c0,0.5,0.3,0.9,0.9,1c8.8,1.7,18.3,0.2,27.2-0.2c9.1-0.4,18.2-0.7,27.1,0.5
					l5.2-3.3c-0.4-0.4-0.9-0.7-1.6-0.8C828.7,1627,826.9,1626.8,825.1,1626.7z"/>
			</g>
			<g opacity="0.3">
				<path fill="#091426" d="M1120.6,1527.3c4.6,1,9.5,0.6,14.1,0.5c5.5,0,11-0.1,16.5-0.3c9.2-0.2,18.7,0,27.8-1.4
					c0.3-1.5,0.5-3.3,0.7-5c-0.2,0-0.4,0-0.6,0c-1.2,0.2-2.4,0.4-3.7,0.6l-0.1,2l-13,0.8l-8.5-1.9c-1.6,0-3.1,0-4.6,0.1
					c-3.9,0.1-7.9,0.1-11.8,0.2c0.1,1.5,0.1,2.8,0.1,3.9c-3.1,0.1-9.9,0.1-17-0.7c-0.1,0.4-0.1,0.7-0.2,1.1
					C1120.5,1527.2,1120.6,1527.2,1120.6,1527.3z"/>
				<path fill="#091426" d="M1124.8,1548.4c6,0,11.9-0.2,17.9-0.3c10.5-0.2,21.1,0,31.5-1.4c0.1-2,0.1-3.6,0.1-4.8
					c-0.3-0.1-0.6-0.1-0.9,0c-1.6,0.2-3.2,0.4-4.9,0.6l-0.2,3.3l-9,0.2l-8.7-2.9c-2.7,0-5.3,0-7.9,0.1c-1.4,0-2.8,0.1-4.2,0.1
					c0,1.2,0,2.6,0,3.9c-10.6,0.4-18.1-0.1-20.8-0.3c0,0.2,0,0.4,0,0.6C1119.7,1548.7,1122.4,1548.4,1124.8,1548.4z"/>
				<path fill="#091426" d="M1123.6,1579.4c5.5,0,10.9-0.2,16.3-0.3c10.1-0.3,20-0.8,29.8-3.5c0,0,0,0,0.1,0c0-1.8,0-3.6,0-5
					c-0.4-0.1-0.9-0.2-1.4,0c-0.2,0.1-0.5,0.1-0.7,0.2v4.2h-4.6l-0.7-2.9c-8,1.6-16.2,1.9-24.4,2.2c-0.2,0-0.5,0-0.7,0l0.2,1.9
					c0,0-3.7,0-12.6,0c-7,0-11,0.7-14.9,1.1c0,0.5,0.1,1,0.2,1.4C1114.6,1579.6,1119.3,1579.3,1123.6,1579.4z"/>
				<path fill="#091426" d="M1150.2,1601.1c4.6-0.4,9.2-0.9,13.8-1.5c4.9-0.7,9.7-1.8,14.5-3.1c4.4-1.1,9.1-1.7,13.3-3.6
					c0.3-0.1,0.5-0.3,0.7-0.5c-2.5-1.2-5-2.1-7-2.8c-0.5,0.1-1.1,0.2-1.6,0.4c1.1,1.2,2.2,2.6,1,2.8c-1.1,0.2-7,0.1-12.1,0.1
					c-3.2,0.8-6.5,1.4-9.8,1.9c-2.5,0.3-4.9,0.6-7.4,0.9l1.5,3c0,0-4.2,0.9-12.4,2c0.7,0.3,1.3,0.5,1.9,0.7
					C1147.8,1601.3,1149,1601.2,1150.2,1601.1z"/>
				<path fill="#091426" d="M1182.7,1615.1c4.1-1.4,8.3-2.9,12.5-4.3s8.4-2.7,12.6-3.9c0.6-0.2,1.2-0.3,1.8-0.5
					c-2.2-0.3-4-0.7-4-0.7s-5.4-0.1-10.2,0.1c-2.5,0.8-4.9,1.6-7.4,2.5c0.5,1.4,2,2.7,2,2.7s-4.8,1.4-12.1,4.1
					c0.9,0.2,1.7,0.5,2.5,0.7C1181.1,1615.6,1181.9,1615.4,1182.7,1615.1z"/>
				<path fill="#091426" d="M1217.5,1604.4c0.7-0.2,1.4-0.5,2.1-0.8c0.4-0.2,0.7-0.5,0.9-0.9c-2.2-1.3-4.8-2.2-7.1-2.9
					c-0.7,0.3-1.4,0.6-2.1,0.9c1,0.4,2,0.8,2.9,1.2C1215.8,1602.6,1217.2,1603.5,1217.5,1604.4z"/>
				<path fill="#091426" d="M930.1,1540c-2.7,2-5.3,3.5-7.4,4.6c6.3-0.2,12.7-0.8,19-1c8-0.2,16,0.2,24,1c7.7,0.7,15.4,1.6,23.1,2.7
					c6.7,0.9,14.6,1.7,20.9,4.7c0.7-1.1,1.5-2.6,2.5-4.1c-1.8-0.5-3.6-1-5.4-1.5c0,1.9-0.3,2.9-0.3,2.9s-6-1.6-14.4-2.8
					c-8.4-1.2-26.7-3.5-26.7-3.5l1.2-3C954.4,1539,942.2,1538.6,930.1,1540z"/>
				<path fill="#091426" d="M930.5,1561.5c-7.5,0.2-16.2-0.3-23.6,1.7l-0.5,4.3c7.8,0.6,16.2-1.1,24.1-1.3c7.8-0.2,15.7,0,23.5,0.5
					c15.1,1,30.1,3.5,44.8,7.1c0.5-1.5,1-3.3,1.7-4.8c-0.9-0.2-1.8-0.4-2.6-0.6c-0.9,2.1-1.5,3.7-1.5,3.7s-8.3-2.2-15.1-3.6
					s-17.8-2.7-17.8-2.7v-3c-2.8-0.3-5.6-0.5-8.5-0.7C946.9,1561.6,938.7,1561.4,930.5,1561.5z"/>
				<path fill="#091426" d="M926.8,1589.9c-6.7,0.6-14,0.6-20.6,2.2l-0.4,4.6c7.2,0.3,14.7-1.2,21.9-1.8c7.2-0.6,14.5-1.2,21.7-1.3
					c15-0.2,29.9,1.4,44.7,3.1l0.8-4.5c-1.6-0.2-3.1-0.4-4.7-0.6c-0.7,2.2-0.8,3.5-0.8,3.5s-10.3-1.2-18.4-2c-8-0.8-17-0.5-17-0.5
					l-1.1-4.1c-1.5,0-3.1,0-4.6,0C941.3,1588.7,934.1,1589.3,926.8,1589.9z"/>
				<path fill="#091426" d="M903.2,1617.2c0.1,0,0.1,0,0.2,0c14.3,0.9,28.8,0.1,43.2,0.7c13.8,0.5,28.6,1.1,41.5,6.3l1-4.2
					c-1.7-0.5-3.4-1-5.1-1.4c-0.5,1.8-0.7,3-0.7,3s-7.2-1.8-13.9-3s-20-1.7-20-1.7l0.4-2.9c-0.1,0-0.2,0-0.3,0
					c-11.2-0.5-22.8-1.1-34.2-0.7l-0.4,3l-7.5,0.5l1.9-3.2c-1.9,0.1-3.7,0.3-5.5,0.5L903.2,1617.2z"/>
				<path fill="#091426" d="M904.3,1640.5c-1.3,0.1-2.9,0.1-4.5,0.1l-0.4,3.9l-8.1,0.3l2.5-3.9c-2.9,0.4-5.6,1.2-7.5,2.9
					c-0.3,0.3-0.2,0.9,0.1,1.1c4.8,2.8,12.5,0.4,17.8,0.1c0.1,0,0.2,0,0.4,0l0.4-4.5C904.8,1640.5,904.6,1640.5,904.3,1640.5z"/>
				<path fill="#091426" d="M772.5,1631.1c8.8,1.7,18.3,0.2,27.2-0.2c9.1-0.4,18.2-0.7,27.1,0.5l5.2-3.3c-0.4-0.4-0.9-0.7-1.6-0.8
					c-1.8-0.2-3.5-0.4-5.3-0.6l-4.7,3.2l-7.3-0.2l-2.6-3.5c-3.3,0-6.6,0.1-9.9,0.2c-4.3,0.2-8.8,0.1-13.3,0.2
					c-0.7,1.6-0.4,3.7-0.4,3.7s-0.8,0.4-4.5,0.5c-3.2,0.1-8.4,0.7-10.8-0.8C771.6,1630.5,771.9,1631,772.5,1631.1z"/>
			</g>
		</g>
		<g>
			<path fill="#FFFFFF" d="M1145.4,1542.8c-2.5,0.1-3.7,2.4-3.1,4.2c0.1,0.2,0.1,0.3,0.2,0.5c1.2,2.1,3.4,1.7,10.1,1.8
				c6.7,0.1,9.8-0.3,10.5-1.8c0.1-0.3,0.2-0.6,0.3-0.9c0.3-1.6-0.3-3.8-3.8-3.8C1155.3,1542.9,1148.1,1542.7,1145.4,1542.8z"/>
			<path fill="#FFFFFF" d="M1180.4,1590.7c-2-0.9-2.2-1.2-9.3,0c-7.1,1.2-8.2,1.7-9.8,2.7c-1.6,1,0.4,2.5,0.4,2.5
				c0.5,1,0.9,1.7,1.3,2.2c0.9,1.2,1.7,1.4,3.4,0.9c2.5-0.7,10.9-2,14.7-2.7c1.5-0.3,2-1,2-1.9
				C1183.1,1593,1181.6,1591.3,1180.4,1590.7z"/>
			<path fill="#FFFFFF" d="M1212.4,1603c-0.7-1.7-1.4-2.9-7-0.7c-5.6,2.2-12.1,3.4-14.3,5.3s0,2.7,0,2.7c3.2,2.5,4.4,3.3,5.7,3.1
				c1.3-0.2,8-2.2,12.6-4.9S1213.2,1604.7,1212.4,1603z"/>
			<path fill="#FFFFFF" d="M938.7,1638.7c-1.7-1.4-4.9-1-13.8-1c-9,0-17-0.6-18.1-0.1c-1,0.6-2.9,4.8-3.8,7s-0.4,2.2-0.4,2.2
				c0.6,0.5,3.4,0.6,11.5,0.5c8-0.1,17,0.9,19.4,0.7c2.4-0.2,2.6,0.1,4.2-3.1C939.2,1641.8,940.4,1640.1,938.7,1638.7z"/>
			<path fill="#FFFFFF" d="M948.1,1609.8c-6.4-0.8-18.9-0.6-23.6,0c-0.2,0-0.4,0.1-0.6,0.1c-4.1,0.5-4,0.7-4.9,4.2
				c-1,3.7-2.5,5.7-1,6s6,0.3,6,0.3c11.7-0.5,16,1.3,21.1,0.6c4.2-0.5,5.6,0.2,6.3-2c0.2-0.5,0.3-1.1,0.4-1.9
				C952.3,1612.6,954.5,1610.6,948.1,1609.8z"/>
			<path fill="#FFFFFF" d="M956.1,1589.5c-3.3-0.2-16.6-0.2-24.4-0.1c-3,0-5.2,0.1-5.7,0.1c-1.7,0.2-1.8,6.6-1.8,6.6
				c0,2-0.7,2.5,3.3,2.8c4,0.4,15.8,0,23,0s8.4-0.8,8.9-2.8c0.1-0.3,0.1-0.6,0.2-0.9C960,1593,960.1,1589.7,956.1,1589.5z"/>
			<path fill="#FFFFFF" d="M810.3,1625.4c-4.7-0.4-9.7-1-14.1-0.4c-3.9,0.6-6.2,0.4-6.6,3c0,0.3-0.1,0.5-0.1,0.9
				c0,2.1,2.7,2.6,6.3,2.3s6.8-0.6,10.6,0.1s6.7,1.5,7.6-0.8c0.2-0.4,0.3-0.8,0.4-1.3C814.9,1627.4,814.1,1625.8,810.3,1625.4z"/>
			<path fill="#FFFFFF" d="M837.1,1613c-5.3-0.4-15.8,0-17.4,0.4s-1.8,1.9-1.7,3.1c0,0.1,0,0.2,0.1,0.3c0.6,1.7,4.8,1.8,9.9,2.2
				c5.4,0.4,10.5,0.6,11.9-1.2c0.2-0.2,0.3-0.4,0.4-0.6C841.6,1615.5,841.9,1613.4,837.1,1613z"/>
			<path fill="#FFFFFF" d="M857.4,1593.8c-1.4-0.8-13.4-0.5-16.3,0c-2.9,0.5-3.3,2-3.5,3.3c0,0.1,0,0.1,0,0.2
				c-0.3,2.1,0.8,2.2,5.1,2.3c4.4,0.1,11.8,1.3,14.1,0c0.8-0.5,1.3-1.2,1.5-2C858.8,1596.1,858.3,1594.3,857.4,1593.8z"/>
			<path fill="#FFFFFF" d="M862.5,1570.4c-5.8-0.3-10.9-0.2-13.4,1c-2.5,1.1-2.2,2.5-2.4,3.4l0,0c-0.5,1.9,1.5,2.4,7.4,2.1
				s11.7,1.5,14.9,0.7c0.9-0.2,1.5-0.6,2-1.1c1.2-1.3,1.3-3.2,1.5-4.2C872.6,1571,868.3,1570.7,862.5,1570.4z"/>
			<path fill="#FFFFFF" d="M964.2,1560.4c-2.8-0.5-6.5-0.6-10.2-0.6c-5.7,0.1-11.5,0.5-14.3,0.6c-4.6,0.1-7-0.3-7.9,6.8
				c-0.3,2.5-0.8,2.5,1.8,2.7s21.2,1.2,27.1,0.8c5.9-0.4,5.1,1,6-2.4v-0.1C967.6,1564.8,971.2,1561.6,964.2,1560.4z"/>
			<path fill="#FFFFFF" d="M967.1,1536.9c-0.1,0-0.2,0-0.2,0c-6-1.1-21.7,0.2-23.6,0.9c-2,0.7-2.6,3.1-2.6,3.1
				c-0.2,2.8,1.2,2.9,4.7,2.8s16.4,0.2,21.1,1.2s5,0.8,5.8-1.2c0-0.1,0-0.1,0.1-0.2C973,1541.6,972.7,1538,967.1,1536.9z"/>
			<path fill="#FFFFFF" d="M1165.9,1525.8c0-0.2,0-0.4,0-0.6c-0.1-2.3-0.7-2.8-4.6-2.7s-9.2,0.5-15.5,0.6c-4.8,0.1-6.1,2-5.7,3.7
				c0.1,0.5,0.3,1,0.7,1.3c1.4,1.6,3.1,1.6,11.2,1.9C1163.1,1530.5,1165.6,1528,1165.9,1525.8z"/>
			<path fill="#FFFFFF" d="M1164.3,1572.6c-0.3-1.7-1.4-3.4-2.2-3.9c-1.5-0.9-3.5,0.8-8.8,1s-9.2-0.4-10.6,1
				c-1.5,1.4-0.5,3.1-0.5,3.1c0.1,0.4,0.2,0.7,0.4,1c1,1.9,3.4,2.6,7.6,2.6c4.8,0,11.4-0.3,13.5-1.8
				C1164.4,1574.9,1164.5,1573.8,1164.3,1572.6z"/>
		</g>
		<g opacity="0.3">
			<path fill="#091426" d="M943.2,1537.8c-2,0.7-2.6,3.1-2.6,3.1c-0.2,2.8,1.2,2.9,4.7,2.8s16.4,0.2,21.1,1.2s5,0.8,5.8-1.2
				c0-0.1,0-0.1,0.1-0.2l-8-2.1c0,0,0.6-1.7,2.6-4.6C960.8,1535.8,945.1,1537.1,943.2,1537.8z"/>
			<path fill="#091426" d="M931.8,1567.2c-0.3,2.5-0.8,2.5,1.8,2.7s21.2,1.2,27.1,0.8c5.9-0.4,5.1,1,6-2.4v-0.1l-15.1-0.5
				c0,0,1-4,2.5-7.9c-5.7,0.1-11.5,0.5-14.3,0.6C935.2,1560.6,932.8,1560.2,931.8,1567.2z"/>
			<path fill="#091426" d="M924.2,1596.1c0,2-0.7,2.5,3.3,2.8c4,0.4,15.8,0,23,0s8.4-0.8,8.9-2.8c0.1-0.3,0.1-0.6,0.2-0.9
				c-2.2,0.1-5.5,0.2-10,0.4c-10,0.4-23,0.9-23,0.9s1.7-3.2,5.1-7.1c-3,0-5.2,0.1-5.7,0.1C924.3,1589.7,924.2,1596.1,924.2,1596.1z"
				/>
			<path fill="#091426" d="M918.9,1614.1c-1,3.7-2.5,5.7-1,6s6,0.3,6,0.3c11.7-0.5,16,1.3,21.1,0.6c4.2-0.5,5.6,0.2,6.3-2
				c-4.5-0.3-12-0.8-16-0.8c-6-0.1-11.6,1.2-12.4-0.8c-0.7-1.6-0.1-3.2,1-7.5C919.8,1610.4,919.9,1610.6,918.9,1614.1z"/>
			<path fill="#091426" d="M842.7,1599.6c4.4,0.1,11.8,1.3,14.1,0c0.8-0.5,1.3-1.2,1.5-2c-2.9-0.2-7.9-0.5-13.6-0.3
				c-3.4,0.1-5.7,0.2-7.1,0C837.3,1599.4,838.4,1599.5,842.7,1599.6z"/>
			<path fill="#091426" d="M854.1,1576.9c5.9-0.3,11.7,1.5,14.9,0.7c0.9-0.2,1.5-0.6,2-1.1c-5.1-0.2-11.5-1.1-17.8-1.3
				c-2.6-0.1-4.8-0.2-6.5-0.5l0,0C846.1,1576.7,848.1,1577.2,854.1,1576.9z"/>
			<path fill="#091426" d="M828.1,1619.1c5.4,0.4,10.5,0.6,11.9-1.2c0.2-0.2,0.3-0.4,0.4-0.6c-2,0.2-4.9,0.1-9.8,0.2
				c-4.9,0.1-9.7,0.5-12.5-0.6C818.7,1618.6,822.9,1618.7,828.1,1619.1z"/>
			<path fill="#091426" d="M795.9,1631.2c3.6-0.3,6.8-0.6,10.6,0.1s6.7,1.5,7.6-0.8c0.2-0.4,0.3-0.8,0.4-1.3c-0.5,0-1.1,0.1-1.7,0.1
				c-3.4-0.1-7.8-1.7-14.5-0.9c-4.7,0.6-7.1,0.6-8.6-0.4c0,0.3-0.1,0.5-0.1,0.9C789.6,1630.9,792.3,1631.5,795.9,1631.2z"/>
			<path fill="#091426" d="M1151.9,1530c11.2,0.5,13.7-2,14-4.1c-1.2,0.1-2.7,0.2-4.6,0.4c-4.7,0.5-12,0.9-21.3,0.5
				c0.1,0.5,0.3,1,0.7,1.3C1142.2,1529.7,1143.8,1529.6,1151.9,1530z"/>
			<path fill="#091426" d="M1152.6,1549.4c6.7,0.1,9.8-0.3,10.5-1.8c0.1-0.3,0.2-0.6,0.3-0.9c-1,0.2-2.2,0.4-3.6,0.4
				c-4.2,0.1-11.7,0.8-17.6,0c0.1,0.2,0.1,0.3,0.2,0.5C1143.7,1549.7,1145.9,1549.3,1152.6,1549.4z"/>
			<path fill="#091426" d="M1150.1,1577.3c4.8,0,11.4-0.3,13.5-1.8c0.9-0.6,1-1.8,0.8-2.9c-1.7,0.4-3.9,0.9-6.5,1.3
				c-4.4,0.6-9,0.9-15.3,0.9C1143.5,1576.6,1145.9,1577.3,1150.1,1577.3z"/>
			<path fill="#091426" d="M1166.4,1599c2.5-0.7,10.9-2,14.7-2.7c1.5-0.3,2-1,2-1.9c-1.5,0.4-3.5,0.3-7.2,1.2
				c-4.3,1-9.3,2.5-12.9,2.5C1163.9,1599.3,1164.7,1599.5,1166.4,1599z"/>
		</g>
	</g>
	<path fill="#D8D8D8" d="M1299.9,1688.7c0,0-5.5,8.9-14.3,14.5c-0.2,0.1-0.4,0.2-0.7,0.2c-9.4,3.4-18.8,6.5-28.4,9.2
		c-4.3,1.2-8.6,2.4-13,3.5c-5.7,1.1-11.6,2.1-17.4,2.8c-22.3,2.9-74.9,7.6-108,6.4s-53.7-6.8-53.7-6.8s1.5-9.1,7.4-23.8
		c0.5-1.1,0.9-2.3,1.4-3.4c7.1-16.7,16.7-32.6,31.2-50.8c14.5-18.2,37.4-29.7,37.4-29.7s-10.5-5.3-19.1-9.7
		c-8.6-4.4-10.5-9.2-10.5-9.2s-16,7.3-28.7,15.5c-2,1.3-3.9,2.6-5.6,3.9c-0.1,0.1-0.3,0.2-0.4,0.3c-2.5,1.9-5,4.3-7.3,7
		c-1.4,1.6-2.8,3.2-4.1,4.9c-3,3.7-5.7,7.6-8,11.1c-3.9,5.9-6.4,10.4-6.4,10.4s-0.6,10.2-3.6,29.5c-3,19.4-1.5,27.3-1.5,27.3
		s-1.1-1.6-2.8-4.1c-6.4-9.2-22.1-31.2-30.6-37c-10.8-7.4-29.8-17.9-29.8-17.9s-2.7,3.9-13.3,12.3c-10.5,8.4-23.4,9.5-24,9.7
		c0,0,14.9,6.3,29.5,16.4s25.2,25.1,38.5,47.6c4.5,7.7,7.3,13.5,9,17.7c3.3,8.2,2.6,10.9,2.6,10.9s-1.7,1.1-4.6,3
		c-5.2,3.4-14.4,9.3-25.7,16.3c-17.6,10.9-47.4,28.9-76.7,34.9s-64.4,0.4-78.1-6.3c-6.6-3.3-10.8-4.8-13.4-5.4
		c-2.7-0.7-3.6-0.5-3.6-0.5c-2.8,6-1.7,15.8,1.3,25.7s4.9,17.6,7.5,19.8s25.6,10.9,40.7,12.4c15.1,1.5,42,1.2,42.5,0
		c0.4-1.2,6.6-16.5,6.6-16.5s16.2,8.6,18.9,7.8c2.7-0.7,16.6-6,17.3-8.7s3.4-16.4,3.4-16.4s3,1.8,7.8,2.5c2.1,0.3,4.5,0.6,6.8,0.3
		c0,1.2,0,2.3,0,3.5c2.9-1.4,5.7-3,8.2-5c1.4-1.1,2.7-2.3,4-3.5c-0.4-0.3-0.8-0.7-1-1.3c-0.8-2.2-0.9-4.5-0.6-6.9
		c0.6-1.5,1-2.6,1-2.6s4.4,0.7,9.1,0c4.7-0.7,9.1-3.6,9.7-5.5s0.9-8.1,0.9-8.1s4.7-0.3,7.4-1.9s13.9-13.4,20.3-19s5.9-6.7,6.7-12.2
		c0.8-5.5-0.8-14.2-0.8-14.2l8.2,0.8l2.3,0.2c1.8-6.3,5.9-16.3,8.1-17.8c0.2,0,0.3,0,0.5,0.1c0.6,0.3,1.1,0.8,1.6,1.4
		c1.5,2.5,3,7.5,3.9,12.6c1.2,6.7,1.6,7.7,5,9s26.2,3.1,26.2,3.1s5.4-14.4,9.6-16.7s6.6,3.8,9.6,10.8c3,6.9,1.3,11.3,3.8,12.8
		s23.4,0,26.9,0c2.8,0,3-1,3-4.5c0.3-1.4,0.2-3.6,0.4-4.5c0.3-1.8,0.5-3.5,0.8-5.3c0.2-0.9,0.4-1.8,0.6-2.5c0.4-0.8,1-1.4,1.7-1.8
		c0.2-0.1,0.4-0.1,0.5-0.1c1.2,0.6,3.2,1.9,6.8,4.5c7.2,5.3,10,14.2,10,14.2h25.7c0,0,7.5-18.3,10.5-18.6c2.9-0.3,6.3,3.2,9,9.9
		c2.7,6.7,8.5,5.3,21.1,4s30.6-5.7,41.3-11.8c10.7-6.1,16-11.5,17.5-13.7c0.1-0.1,0.2-0.3,0.3-0.6v-0.1c1.7-5.3,4.8-33.9,5.4-39.5
		v-0.1C1302.3,1689.2,1299.9,1688.7,1299.9,1688.7z"/>
	<g>
		<path fill="#D8D8D8" d="M825.6,1787.2c0.1,0.6-7.5,5.6-11.1,5.4c-3.7-0.2-4.2-4.3-4.2-4.3l-10.9,2.7c0,0,1.4,3.9,0.8,6.3
			c-0.6,2.4-7.9,4.3-12.7,4.7c-4.8,0.4-6.4-7.8-6.4-7.8l-9.1,1.8c0,0,1.8,3.5-1.8,6.7c-3.7,3.2-48-3.5-63-8.9
			c-15-5.5-23.5-8.3-26.9-10c-3.3-1.7-3.7-14.5-1.6-33.3c0,0,2.5,0.8,4.1,1.5c6,2.8,23,8.6,38.3,11c14.2,2.2,28.5,4.1,43.7,4.2
			c5.6,0,11.1-0.3,16.7-0.7c20.4-1.2,40.3-7.8,40.3-7.8S823.1,1776.5,825.6,1787.2z"/>
	</g>
	<path opacity="0.3" fill="#091426" enable-background="new    " d="M680.3,1783.7c3.3,1.7,11.8,4.6,26.9,10
		c15,5.5,59.3,12.1,63,8.9s1.8-6.7,1.8-6.7l9.1-1.8c0,0,1.6,8.1,6.4,7.8c4.8-0.4,12.1-2.2,12.7-4.7c0.6-2.4-0.8-6.3-0.8-6.3
		l10.9-2.7c0,0,0.6,4.1,4.2,4.3s11.3-4.8,11.1-5.4c-2.6-10.7-3.9-28.7-3.9-28.7s-21.5,6.8-41.9,7.9c-5.5,0.3-11.6,0.6-17.2,0.5
		c-5.3,7.8-7.7,20.7-7.6,30.2c-15.3-1.7-30.4-4.8-45.1-9.2c-7.4-2.2-15.5-4.3-22.3-8c-3.6-2-5.1-4.5-6.8-8.1
		c-0.1-0.3-0.2-0.5-0.4-0.8c-0.1-3.1,0-6.2,0.2-9.2c0.1-2.3,0.2-8.6,0.2-10.9c-1.6-0.7-2.3-0.6-2.3-0.6
		C676.7,1769.2,677,1782,680.3,1783.7z"/>
	<path opacity="0.3" fill="#091426" enable-background="new    " d="M823.5,1799.3c-2.8,6-1.7,15.8,1.3,25.7s4.9,17.6,7.5,19.8
		s25.6,10.9,40.7,12.4c15.1,1.5,42,1.2,42.5,0c0.4-1.2,6.6-16.5,6.6-16.5s16.2,8.6,18.9,7.8c2.7-0.7,16.6-6,17.3-8.7
		s3.4-16.4,3.4-16.4s3,1.8,7.8,2.5c2.1,0.3,4.5,0.6,6.8,0.3c0-2.1-0.2-4.2-0.3-6.3c-0.2-2.5,0.1-5.5-0.9-7.8c-2-4.5-6.7-3.2-9.3-0.2
		c-3.4,3.9-4.8,9.1-5.8,14.1c-0.8,3.7-2.2,7.8-2.9,11.8c-5.6,2.2-11.2,4.6-16.3,7.6c-2-6.8-5.4-14.2-12.8-10.8
		c-3.9,1.8-6.3,6.2-8.2,9.8c-1.5,2.8-2.8,5.5-4,8.3c-2.7,0.2-5.4,0.3-8.2,0.3c-10,0.2-19.9-0.2-29.8-1.2c-14.6-1.5-31.6-2.9-45-10.3
		c-3.2-6.8-5.2-13.9-6.4-21.6c-0.9-5.6-2-11.5-0.5-17.1c0.3-1.1,0.7-2.1,1.1-3C824.4,1799.1,823.5,1799.3,823.5,1799.3z"/>
	<path opacity="0.3" fill="#091426" enable-background="new    " d="M1299.9,1688.7c0,0-5.5,8.9-14.3,14.5c5.6-2.1,11.3-4.4,16-8.1
		C1302.3,1689.2,1299.9,1688.7,1299.9,1688.7z"/>
	<path opacity="0.3" fill="#091426" enable-background="new    " d="M1149.5,1762.4c0.2-0.2,0.4-0.6,0.4-1.2c-0.1,3.4-0.2,4.5-3,4.5
		c-3.5,0-24.4,1.5-26.9,0c-2.5-1.6-0.8-5.9-3.8-12.8s-5.3-13-9.6-10.8c-4.3,2.2-9.6,16.7-9.6,16.7s-22.7-1.8-26.2-3.1
		c-3.4-1.3-3.8-2.3-5-9c-1-5.2-2.4-10.1-3.9-12.6c1,1.3,1.8,3,2.4,4.5c1.7,4.2,3.3,8.6,4.6,13c1.5,0.9,4.9,1,6.5,1.3
		c2.5,0.5,5,0.9,7.5,1.3c2.9,0.4,5.8,0.8,8.7,1.1c1.3,0.1,2.5,0.3,3.8,0.4c0.8,0.2,1-0.2,0.8-1.2c0.9-1.2,1-4.2,1.7-5.7
		c0.7-1.6,1.5-3.1,2.7-4.5c3.3-4,10.6-7.6,15-3.1c2.6,2.6,3.1,7.6,4.1,11c1.2,3.9,2.3,7.8,3.5,11.7c1.1,0.2,2.3,0.2,3.4,0.3
		c4,0.2,7.9,0.2,11.9,0C1141.3,1763.9,1147.6,1764.2,1149.5,1762.4z"/>
	<path opacity="0.3" fill="#091426" enable-background="new    " d="M1243.5,1716.1c-30.2,7.6-61.2,11.9-92.3,12.9
		c-17.8,0.6-35.6,0-53.3-1.7c-8.9-0.8-17.8-1.9-26.8-3.1c-5.1-0.7-10.6-1-15.8-2.2c-0.3,1.9-0.5,3.8-0.6,5.7c-0.1,1.9,0,3.8,0.2,5.8
		c0,0.3,0,0.6,0.1,1c1.2-1.2,2.8-1.9,4.9-1.8c-2.2,1.5-6.3,11.5-8.1,17.9l-2.3-0.2l-8.2-0.8c0,0,1.6,8.7,0.8,14.2
		c-0.8,5.5-0.3,6.6-6.7,12.2s-17.7,17.4-20.3,19c-2.7,1.6-7.4,1.9-7.4,1.9s-0.3,6.2-0.9,8.1c-0.6,1.9-5,4.8-9.7,5.5s-9.1,0-9.1,0
		s-0.4,1-1,2.6c0.9-5.7,4.3-11.6,6.7-16.2c1.4-2.6,5-2.8,7-0.9c1.7,1.6,2.5,3.7,2.7,6.1c1.3-1.1,2.6-2.2,3.8-3.4
		c0.2-1.3,0.4-2.5,0.7-3.8c1-5.1,2.9-10.1,5.3-14.8c1.9-3.9,9-2.2,8.5,2.3c-0.1,1.1-0.2,2.4-0.3,3.7c0.5-0.5,1-1,1.4-1.5
		c3.4-3.5,7.5-7.1,9.9-11.4c2.9-4.9,3.2-11.3,3.5-16.9c0.1-1.2,0.1-2.3,0.1-3.5c-4.4,3.9-10,7.1-15.2,7.6c3-1.9,4.6-3,4.6-3
		s0.7-2.7-2.6-10.9c7.8-5,12.9-14.8,15.8-23.1c2.9-8.3,4-17,4.9-25.7c1.7,2.4,2.7,3.9,2.8,4.1c-0.1-0.5-1.4-8.5,1.5-27.3
		c3-19.4,3.6-29.5,3.6-29.5s2.5-4.5,6.4-10.4c0,0.2,0.1,0.3,0.1,0.5c0,0.8,0,1.7,0,2.5c0.9-1.5,2.1-2.9,3.8-4.2
		c1.1-0.9,2.6-0.9,4-0.4c0.2-3.2,0.3-6.3,0.1-9.5c1.3-1.7,2.7-3.3,4.1-4.9c1.9,6.3,1.6,12.8,1.4,19.4c2.5-5.7,4.5-11.5,5.6-17.5
		c0.6-3,0.7-6,0.8-9.1c1.7-1.3,3.6-2.6,5.6-3.9c0.1,4.3,0.1,8.6-0.6,12.8c-1.8,11-6.5,22-12,31.8c-0.1,2.5-0.2,5-0.3,7.4
		c-0.3,7.4-0.4,14.8-0.2,22.2c0.2,4.4,0.8,8.7,1.3,13c-5.9,14.7-7.4,23.8-7.4,23.8s20.5,5.6,53.7,6.8c33.1,1.2,85.7-3.4,108.1-6.4
		C1231.8,1718.2,1237.7,1717.2,1243.5,1716.1z"/>
	<path opacity="0.3" fill="#091426" enable-background="new    " d="M1282.2,1742.6c-8.1,3.8-16.8,6.4-25.4,8.6
		c-8.7,2.2-17.6,4.1-26.4,5.9c-2.7,0.5-5.5,1-8.2,1.3c-2.8-5.9-7.3-13.2-13.5-13.5c-6.8-0.4-10.7,10.4-12.5,16.7
		c-5.3,0.5-10.7,0.8-16.1,0.7c-2.4,0-4.5-0.3-6.6-1.2c-1.6-2.3-3.7-4.3-5.4-6c-3.7-3.8-8-6.5-13.1-8.1c-0.3-0.1-0.7-0.1-1.1-0.1
		c1.2,0.6,3.2,1.9,6.8,4.5c7.2,5.3,10,14.2,10,14.2h25.7c0,0,7.5-18.3,10.5-18.6c2.9-0.3,6.3,3.2,9,9.9c2.7,6.7,8.5,5.3,21.1,4
		s30.6-5.7,41.3-11.8c10.7-6.1,16-11.5,17.5-13.7c0.1-0.1,0.2-0.3,0.3-0.6c-1,0.6-2,1.3-3.1,2
		C1289.5,1739,1285.9,1740.9,1282.2,1742.6z"/>
	<g>
		<g>
			<path fill="#888888" d="M1079.8,1617.5c-1.6,9.2-4.6,16.8-6.9,21c-4,7.2-8.4,10.1-10.8,10c-12.5-0.3-14.6-0.6-14.6-0.6
				s-3.6-1.4-4.1-23c-0.6-21.6,5.2-36.3,8.1-43.5c0.8-2.1,1.8-4.1,2.7-5.9c2.3-4.5,4.4-7.8,4.4-7.8s8.8-0.1,11.8,1.9
				s7.9,7.3,10.1,25.9C1081.4,1603.3,1081,1610.8,1079.8,1617.5z"/>
		</g>
		<path opacity="0.3" fill="#091426" enable-background="new    " d="M1043.4,1624.9c0.6,21.6,4.1,23,4.1,23s2.1,0.4,14.6,0.6
			c2.4,0.1,6.8-2.8,10.8-10c2.3-4.2,5.3-11.8,6.9-21c-9,25.9-14.4,26.3-16.7,27.4c-2.4,1.2-7.7-0.7-8.4-15s3-31,6.4-39.6
			s4.8-9,3.6-9.9s-5,4.8-9.2,21.1s-3.6,22.8-3.6,22.8l-5.8-0.5c0,0-2-8.8,1.8-23.8c2.4-9.7,4.7-17.3,6.2-24.5
			c-0.9,1.8-1.9,3.8-2.7,5.9C1048.6,1588.6,1042.8,1603.2,1043.4,1624.9z"/>
	</g>
</g>
</svg>
