<?xml version="1.0" encoding="utf-8"?>
<!-- Generator: Adobe Illustrator 21.0.2, SVG Export Plug-In . SVG Version: 6.00 Build 0)  -->
<svg version="1.1" id="_x30_7_x5F_Footwear_x5F_PJ_x5F_Slippers"
	 xmlns="http://www.w3.org/2000/svg" xmlns:xlink="http://www.w3.org/1999/xlink" x="0px" y="0px" viewBox="0 0 2000 2000"
	 enable-background="new 0 0 2000 2000" xml:space="preserve">
<g>
	<path opacity="0.3" fill="#091426" enable-background="new    " d="M1286.2,1729.7c-38.1,33.5-71.5,36.9-107,43.5
		s-58.2,16.7-95.4,14.7s-49.7-11.3-49.7-11.3s-52.9,44.5-93.6,60.8c-40.7,16.3-109.1,15.5-144.2,11.4s-68.8-34.7-77.8-40.4
		c-9-5.7-8.3-6.3-39.1-11.1c-30.9-4.9-53.9-15.1-65.4-39.5s12.8-71.6,82.7-75.2s357.3,57.1,357.3,57.1l10.3-20.7L1286.2,1729.7z"/>
	<g>
		<path fill="#63330F" d="M724.2,1637.3c-0.2,0.2-0.5,0.4-0.7,0.7c0,0.3-0.1,0.6-0.2,0.8c-0.3,0.4-0.6,0.9-0.9,1.3l-8.1,5.8
			c-8.8-7.1-10.1-11.1-12.4-22.1c-1.5-7.4-0.6-10.8,1.7-11.7c1.2-0.5,2.7-0.3,4.5,0.3c5.4,1.9,9.8,9.9,11.7,15.2
			c0.4,1.2,1,2.5,1.5,3.7C722.2,1633.8,723.5,1636.1,724.2,1637.3z"/>
		<path opacity="0.3" fill="#091426" enable-background="new    " d="M714.7,1635.9c-0.9,0.8-1.8,1.7-2.7,2.7
			c-3.4-3.9-5.4-8.3-6.8-14.2c-0.9-3.9-2-8-1.8-11.9c0-0.1,0-0.3,0-0.4c-2.3,0.9-3.2,4.4-1.7,11.7c2.2,11,3.6,15,12.4,22.2l8.1-5.8
			c0.3-0.4,0.6-0.8,0.9-1.3c0.2-0.3,0.2-0.5,0.2-0.8c0.2-0.2,0.5-0.4,0.7-0.7c-0.7-1.2-1.9-3.5-3.1-6.1
			C718.8,1632.6,716.7,1634.1,714.7,1635.9z"/>
	</g>
	<path fill="#E35A30" d="M1310.5,1698.7c-0.3-2.5-0.7-5-1.2-7.3c-0.2-1.3-0.6-2.8-1.1-4.7c-3.3-13.2-12.2-39.5-25.3-54.2
		c-14.9-16.8-33.6-32.9-64-45.5c-25.2-10.4-41.5-8.6-59.1-2.4c-3.7,1.3-7.4,2.8-11.2,4.4c-22.5,9.3-47.1,22.6-66.2,57.5
		c-17.2,31.5-21.1,50.9-21.7,54.4c-0.1,0.4-0.1,0.6-0.1,0.6c-8.4-5.9-17.9-8.2-17.9-8.2l-1.3,12.4l-1.5,14l-0.1,1
		c0,0-16.1-29.1-37.5-48.5s-47.6-37.8-92.3-40.8c-35.2-2.4-53.8,6.8-60.1,10.8c-1.7,1.1-2.6,1.8-2.6,1.8c-1.8-2.2-3.8-4.2-5.8-6.1
		c-18.6-16.8-48.1-23.2-74.2-18.9c-17.1,2.8-33,8.5-46.7,18.5c-9.6,6.9-18.1,15.8-25.4,27.2c-17.8,27.8-19.8,33.7-22,69.5
		s3.5,39.2,9.8,49c4.4,6.7,18.7,13.6,36.3,17.7c8,1.8,16.6,3.1,25.4,3.5c5.7,0.2,10.4,0.3,14.5,0.1c15.9-0.6,20-3.4,20-3.4
		s1.6,13.6,6.5,16.9c4.9,3.2,36.8,23,51.5,25.7s56,12.4,108.5-3.8s76.2-45.1,96.1-64.2c19.9-19.1,25.2-42.1,25.2-42.1
		c51.3,12.9,97.5,12.4,151,15.1c0.9,0,1.8,0.1,2.7,0.1c51.5,1.9,71.5-16.3,81.8-25.6c1.3-1.2,2.4-2.4,3.4-3.7c2-2.6,3.3-5.4,4-8.2
		C1311,1707,1311,1702.8,1310.5,1698.7z"/>
	<path fill="#FFDB93" d="M687.5,1755.4c4,0.1,10-6.8,10-6.8s1.5,3.9,4.7,7.9s5.1,4,5.1,4s-0.9,9.2-1.4,11.3c-0.5,2.1-4.6,3.3-10,1.3
		c0,0-1.2,0.2-5.3-1.4s-4.8-2.7-4.8-2.7L687.5,1755.4z"/>
	<path fill="#FFDB93" d="M833,1782c0.1,0.3,2.8,4.2,6.7,8c3.8,3.8,9.9,4.2,9.9,4.2s-0.4,16.1-1,20.4c-0.6,4.2-0.8,6.1-2.8,6.3
		c-2,0.1-13.4,1.1-14.6-1.2c0,0-1.9,0.8-5.5,0s-7-2-8.1-3s-1.8,0.1,0.6-21.1c0,0,2.3-2,7.5-4.6C830.9,1788.4,833,1782,833,1782z"/>
	<path opacity="0.3" fill="#091426" enable-background="new    " d="M711.7,1789.5c-2.3-4.9-4.6-9.9-6-15.2c-0.4-1.6-2-2.8-3.7-2.8
		c-1.6,0-3.1,0-4.7-0.1c0.8-4.7,1.7-9.6,2.1-14.5c2.3,3.8,5.7,6.6,10.3,6.6c4.4,0,8.4-4.9,9.6-8.8c1.4-4.6,0.1-8.4-4-10.7
		c-0.5-0.3-0.9,0.4-0.6,0.8c2.1,2.6,0.4,6-1.2,8.2c-2.3,3.3-4.2,5.5-8,2.3c-5.3-4.7-3.7-11.6-7.1-16.9c0-0.2,0-0.3,0-0.5
		c0-0.5-0.7-0.6-0.9-0.1c0,0.1-0.1,0.2-0.2,0.3l-0.1,0.1l0,0c-0.5,0.9-1.7,2.4-2,3c-0.5,1-0.7,2-1.3,3c-1.1,1.8-2.9,4-4.5,5.4
		c-1.3,1.2-2.8,1.6-4.3,1.8c0.2-2.5,0.5-5.1,0.6-7.6c6.6-2.6,12.3-8.1,11.9-15.2c-0.1-1.5-1.2-3-2.9-2.9c-0.4,0-0.8,0-1.2,0.3
		c-0.1,0-0.2,0.1-0.2,0.1c-0.9,0.5-1.4,1.5-1.4,2.5c0,0.7-0.1,1.3-0.2,2c-1-0.6-2.5-0.6-3.3,0.8c-0.8,1.3-1.6,2.4-2.7,3
		c-1-1.2-3-1.4-4.2-0.4c-0.4-0.1-0.8-0.1-1.2,0c0-0.6,0-1.2,0-1.8c-0.1-1.3-1-2.2-2.1-2.6c0-0.3,0-0.6-0.1-1
		c-0.2-3.2-0.4-6.4-0.5-9.6c0.2,0,0.4,0.1,0.5,0.1c0,0.5,0.1,1,0.2,1.5c0.2,1,1.6,1.3,2.3,0.6c2.9-2.8,3.7-7.2,4.8-11
		c1.4-4.8,2.7-9.6,4.1-14.3c2.7-9.4,5.6-18.9,9.7-27.9c5.1-11.5,12.1-22.4,21.5-30.6c-9.6,6.9-18.1,15.8-25.4,27.2
		c-17.8,27.8-19.8,33.7-22,69.5s3.5,39.2,9.8,49c4.4,6.7,18.7,13.6,36.3,17.7C715.7,1797.9,713.6,1793.7,711.7,1789.5z
		 M693.3,1770.5c-0.8-0.3-1.6-0.6-2.3-1c-1.1-0.6-2-1.4-2.9-2.2c0.1-2.2,0.1-4.5,0.1-6.6c1.6-0.6,3.2-0.9,4.7-1.8
		c0.5-0.3,1-0.7,1.4-1.1C693.6,1762,693.3,1766.4,693.3,1770.5z"/>
	<path opacity="0.3" fill="#091426" enable-background="new    " d="M745.1,1702c0.6-1,0.6-2.4-0.4-3.5c-1.9-2.1-3.6-3.5-6.6-2.6
		c-2.6,0.7-4.8,2.6-6.4,4.7c-3.8,4.8-4.3,11.8-0.7,16.9c3.9,5.6,9.7,5.5,14,2.7c3.2-1.9,5.4-5.1,5.9-8.8c0.4-2.5,0-5.2-1.7-7.7
		C748,1702.2,746.5,1701.8,745.1,1702z"/>
	<path opacity="0.3" fill="#091426" enable-background="new    " d="M883.5,1739.6c5.7,2.7,11.3,1.9,16.7-1c5.6-3,7.7-9.4,6.2-15.5
		c-0.6-2.4-2-4.8-4.4-5.9c-3.1-1.4-5.4,0-8.2,1.3c-0.9,0.4-1.8,0.7-2.7,1c0.6-1.7-0.2-3.7-2.2-4.6c-6-2.4-10.7,5-11.7,10
		C876,1730.7,878.1,1737,883.5,1739.6z"/>
	<path opacity="0.3" fill="#091426" enable-background="new    " d="M953.2,1681.4c8,1,19.8,1.1,26.6-3.8c8.1-5.9,1-12.5-6-14.4
		c-10.3-2.8-20.2,1.6-30.4,2.6c-1,0.1-1.8,0.5-2.5,1.1c-1-1-2.1-2-3.2-3.1c-2.2-2.2-5.6,0.6-4.2,3.2
		C937.7,1675.2,943.9,1680.2,953.2,1681.4z"/>
	<path opacity="0.3" fill="#091426" enable-background="new    " d="M1161.7,1740.3c-11.2-3.2-22-7.8-32.4-12.9
		c-10.5-5.1-21.3-10.4-31-16.8c-17.8-11.6-16.6-36.1-10.3-53.9c6.9-19.7,21.5-36.1,37.6-49c10.8-8.6,22.5-16,34.4-23.1
		c-3.7,1.3-7.4,2.8-11.2,4.4c-22.5,9.3-47.1,22.6-66.2,57.5c-17.2,31.5-21.1,50.9-21.7,54.4c1.6,2.1,2.8,4.5,3.6,7
		c-0.2,0-0.4,0.1-0.6,0.2c-2,0.7-3.6,3.2-5.1,4.6c-2.3,2.2-4.4,4.7-6.6,7c-0.3,0.3-1.6,1.6-2.9,3.1c-1.9-5.9-4.4-11.9-7.8-17.1
		l-1.5,14c1.7,3.1,3.4,6.1,5.6,9c1.3,1.8,4.2,1.4,4.8-0.5c1.4-0.8,2.6-2.4,3.6-3.4c2.9-3,5.8-6,8.6-9.2c0.4-0.5,0.9-1,1.3-1.5
		c0.1,1.7,0.4,4.2,0.4,4.8c0,1.5-0.3,3.2-0.5,4.8c-2.5,7.3-7.4,14.4-10.8,20.5c-9.9,17.9-22,33.8-37.3,47.3
		c-31.3,27.7-72.2,43.2-113.4,48c-23.7,2.8-47.2-0.2-70.8-1.7c-1.8-0.6-3.6-1.4-5.4-2.2c-8.5-4-19.3-9.7-25.3-17.2
		c-5.9-7.4-9.3-18.3-10.9-27.5c-1.1-6.2-0.8-12.5-0.7-18.7c4.6,3.6,10.4,5.6,16.6,4.6c-1.1,7.4,0.9,14.7,8.9,17.5
		c0.3,0.1,0.6,0.2,1,0.3c-0.5,3-1.6,6-2.2,9c-0.6,2.9-0.6,5.9-0.7,8.9c-0.2,5-1.2,9.3,4.2,11.3c2.4,0.8,4.9,1.5,7.5,1.8
		c2.6,0.2,4-0.7,6.3-1.2c5.1-1,10.3,1.7,15.3-0.8c1.3-0.6,1-2.4,0-3.1c-3.8-2.7-8.5-2.7-13.2-2.6c0.4-5.8,0.6-11.7,0.7-17.5
		c0-3.2,0.2-6.6,0-9.9c1.5,2.1,3.7,3.8,6.7,5c5.6,2.3,15.6,2,17.3-4.9c1.4-2.5,2.3-5.4,2.4-7.8c0.1-3.7-1.5-9.9-5.3-11.2
		c-0.4-0.2-1,0.3-1,0.7c0.2,1.7,0.7,1.7,1.2,3.6c0.4,1.7,0,3.9-0.5,5.6c-0.5,1.8-1.3,4-2.5,5.8c-3.4,2.1-7,2.1-10.8-0.2
		c-3.7-2.3-4.5-7-5.8-10.8c-0.2-0.7-0.8-1-1.3-1c-0.3-0.1-0.7,0-1,0.3c-2.2,2.3-3.1,5.6-5.2,8c-2.6,2.9-9,5.6-12.9,4.4
		c-5.3-1.6-2.9-8.9-1.8-12.5c0.1-0.3,0.2-0.5,0.2-0.8c0.5-0.2,1.1-0.4,1.6-0.6c6-1.6,11.9-4.7,16.3-8.6c5.7-5,8.8-13.7,3.1-19.9
		c-1.3-1.4-3.5-0.5-4,1.1c-0.7,2-0.6,3.7-0.7,5.6c-0.2,0.1-0.4,0.1-0.5,0.2c-2,1.1-3.4,3-4.7,4.8c-5.2,0.6-9.3,3.3-15,1.3
		c-5.5-2-10-6.8-13.1-11.7c-2.8-4.5-3.1-10.6-2.4-15.7c0.5-3.4,1.8-6.1,3.3-8.8c0.6,1.1,1.4,2.1,2.3,2.9c5.2,4.3,15-1.9,17.4-6.9
		c2.9-5.9-1.2-13.6-8.3-12.4c-1.1,0.2-2.1,0.6-3.1,1.1c-0.1-0.1-0.3-0.1-0.4-0.2c0.2-0.4,0.4-0.8,0.5-1.3
		c3.1-13.3,10.4-27,18.2-38.1c4.1-5.8,9-10.9,14.4-15.5c3.8-3.3,8-6.3,11.6-9.8c-1.7,1.1-2.6,1.8-2.6,1.8c-1.8-2.2-3.8-4.2-5.8-6.1
		c-1.1,0.7-2.2,1.5-3.3,2.1c-3.4,1.9-6.5,3.8-9.3,6.6c-6.6,6.3-11.2,13.2-15.4,21.2c-0.3,0.6-0.4,1.2-0.4,1.7
		c-2.5,4.2-4.8,8.5-6.9,12.9c-6.1-0.8-12.1-4.7-13-11c0,0,0,0-0.1,0c-0.8-2.5-4.7-3.8-6.2-0.8c-2.3,4.7,0.4,9.5,3.9,12.8
		c-0.2,0.1-0.3,0.3-0.5,0.4c-6.7,6.7-12,15.9-16.4,24.2c-4.6,8.5-8.3,17.4-11,26.6c-1.9,6.3-3.5,12.7-3.9,19.2
		c-1.3,8.4-2,16.6-2,25.3c0,8.7-0.7,17.3,2,25.3c15.9-0.6,20-3.4,20-3.4s1.6,13.6,6.5,16.9c4.9,3.2,36.8,23,51.5,25.7
		s56,12.4,108.5-3.8s76.2-45.1,96.1-64.2c19.9-19.1,25.2-42.1,25.2-42.1c51.3,12.9,97.5,12.4,151,15.1c0.9,0,1.8,0.1,2.7,0.1
		c-8-2.3-17-2.6-24.8-3.1C1184.3,1744.7,1173,1743.6,1161.7,1740.3z M830.1,1790.2c-0.1,3.4,0.1,6.8,0.1,10.2
		c0,5.9-0.2,11.7-0.5,17.6c-3.3,0-6.5-0.1-9.4-1.2c-0.3-3.6,0.8-7.7,0.6-11.1c-0.2-3.5-1-7.2-1.1-10.8
		C823.6,1794.4,827.3,1792.5,830.1,1790.2z"/>
	<path opacity="0.3" fill="#091426" enable-background="new    " d="M1200.1,1622c-0.2-0.1-0.3-0.2-0.5-0.3c-4.4-2.3-8.5,0.3-10,3.9
		c-0.1,0.1-0.2,0.1-0.3,0.2c-0.9,0.3-1.9,0.7-2.8,1c-2.2,0.7-4.4,1.4-6.7,1.9c0.4-2.3-0.5-4.8-2.9-6.5c-2.7-1.9-5-3.8-6.3-6.5
		c0.2-0.4,0.3-0.8,0.5-1.3c0.6-2.1-0.5-3.9-2.1-5.1c-0.3-0.2-0.5-0.4-0.8-0.6c-1.7-1.3-4.1-0.8-5.8,0c-0.5,0.2-0.9,0.4-1.4,0.6
		c-1.8,0.8-3,3.2-3,5.2c0.1,4.8,2,8.5,4.8,11.7c-1.1,0.9-2.2,1.9-3.1,3c-2.6,3.3-2.6,7.7,1.3,10.1c7.8,4.8,16.4,4.4,24.9,2.1
		c6.8-1.9,17.8-4.6,17.7-13.5C1203.5,1625.6,1202.2,1623.1,1200.1,1622z"/>
	<path opacity="0.3" fill="#091426" enable-background="new    " d="M1253.4,1643c-0.8-0.6-1.7-0.9-2.7-0.9c-0.1,0-0.3,0-0.4,0
		c-2.4,0.1-3.9,1.8-4.1,4.1c-0.4,4.1-0.7,8.7,0.1,13.2c0.8,5,5.2,8.9,10.4,7.5c4.5-1.1,8.5-4.4,9.5-9c1.1-5.2-1.7-10.1-4.8-13.9
		C1259.2,1641.4,1255.9,1641.5,1253.4,1643z M1253.4,1654.5L1253.4,1654.5C1253.4,1654.4,1253.4,1654.4,1253.4,1654.5L1253.4,1654.5
		z M1257,1655.3L1257,1655.3C1257.3,1655.7,1257.3,1655.6,1257,1655.3z"/>
	<path fill="#FFDB93" d="M1300.2,1700c0,0.1,1,10.8,1.2,12.3c0.1,1.5,1.3,1.8,5.3,1.5s6.6-3.5,6.6-3.5s-0.8-12.6-4-19.6
		c0,0-0.7,3.9-3.9,6.6S1300.2,1700,1300.2,1700z"/>
	<path opacity="0.3" fill="#091426" enable-background="new    " d="M1303.8,1713c-0.9-1.5-1-4.4-1.3-5.8c-0.3-1.1-0.5-2.2-0.7-3.4
		c3.3-0.4,7.4-2.8,9.8-5.6c-0.3-2.5-1.6-6.2-2.3-7.5c-0.6-1.1-0.5-2.3-1-4.1c-0.1,0.3-0.2,0.6-0.2,0.9c-0.3,3.4-1.7,6.5-4.7,8.3
		c-3.5,2-7.5,1.3-9.1-2.8c-1.3-3.5,0.3-8.6,1.8-11.8c1-2,2.5-3.2,2.7-5.4c0-0.2-0.2-0.4-0.4-0.4c-4.4,0.5-7.5,7.5-8.4,11.3
		c-1.4,5.3-0.8,10.6,3.4,14.4c1.9,1.7,3.9,2.6,6,2.8c0,1.3,0.1,2.5,0.2,3.8c0.2,2.4,1.3,5.5,0.6,7.8c-0.4,1.2,0.2,2.6,1.3,3.2
		c1.3,0.7,2.8,0.9,4.4,0.8c2.4-3.1,3.4-6.1,3.4-6.1C1307.3,1713.9,1305.9,1712.4,1303.8,1713z"/>
	<path fill="#63330F" d="M1204.9,1626.4c-0.9,2.5-4.8,5.2-14.6,6.2c-10,1.1-15.6-0.7-22.8-6.3c-7.2-5.7-10.4-10.7-8.8-17.9
		c0.5-2.2,1.8-3.5,3.8-3.9c4.5-1.1,12.2,1.8,20.6,6.2c12.2,6.4,17.8,9.4,20.7,12C1204.9,1623.6,1205.4,1624.9,1204.9,1626.4z"/>
	<path fill="#63330F" d="M1264.1,1654.9c-1.4,5.6-5.5,7.4-10.3,5.5c-6.2-2.6-8.3-8.8-7.7-15.5c0,0,0.9-2.4,2.5-4.2
		c0.9-1.1,2.1-2,3.6-2.3c4-0.7,11.8,0.8,12.4,10.8C1264.7,1651.4,1264.5,1653.3,1264.1,1654.9z"/>
	<path fill="#63330F" d="M1330,1669.9c-5.6,2.7-23.4,7.4-25.9,4.8c-1.7-1.8-2.3-3.4-1.6-5.8c0.4-1.6,1.4-3.6,2.9-6.3
		c3.7-6.8,8.3-14.6,18.2-19c6.5-2.8,12.3-2,15.9,1.3c1.9,1.8,3.1,4.3,3.4,7.3C1343.6,1661,1335.7,1667.2,1330,1669.9z"/>
	<path fill="#63330F" d="M981.8,1651.1c-2.3,10.2-12.1,16.7-28.5,19.2c-13,1.9-17.5,0.2-19.8-2.1c-0.6-0.6-1-1.2-1.4-1.8
		c-0.8-1.2,0.8-3.5,8.4-9.1c7.7-5.6,19.5-12.3,27.3-15.1c6.1-2.2,12.6-1.7,14,3.4C982.3,1647.1,982.3,1648.9,981.8,1651.1z"/>
	<path fill="#63330F" d="M829,1659.7c-11.3,12.1-20.1,26.5-20.2,26.8c0,0-23.3-11.8-23-15.1c0.1-0.6,0.2-1.1,0.5-1.5
		c1.2-2.3,4.9-3.5,12.6-3.3c3.8,0.1,6.3-0.2,8-0.6c2.4-0.6,3.1-1.3,3.1-1.3c-11.7-8.9-13-20-10.7-26.6c1.1-3.2,3-5.4,5-5.9
		c6.2-1.3,7.6,2.9,13.6,10.8c3.4,4.5,6.6,9.3,8.6,12.6C828,1658.1,829,1659.7,829,1659.7z"/>
	<path fill="#63330F" d="M815.2,1713.1c0,1.2-0.3,2.4-1,3.3c-1.5,2.2-3.8,6.2-8,5.7c-4.2-0.4-8.1-2.8-8.4-7.9c-0.2-4.6,1.9-9,7.4-10
		c0.5-0.1,1.1-0.2,1.7-0.2C812.2,1703.9,815.3,1708.9,815.2,1713.1z"/>
	<path fill="#63330F" d="M836.2,1751.3c0.1,2.1-0.5,4-1.7,5.5c-4.7,5.7-20.5,10.9-30.7,4.7s-15.2-17.5-14.2-21
		c1-3.3,2.5-5.8,4.3-7.7c6.7-6.7,18.1-5.1,27.8,0C830.9,1737.6,836.1,1745.2,836.2,1751.3z"/>
	<path fill="#63330F" d="M898.9,1732.5c-5.8,4-12.7,0.3-12.7,0.3c-4.3-4-5.5-9.9-2.5-15c0.8-1.3,2-2.4,3.3-3.2
		c3.9-2.2,9.6-2.1,13.2,1.5c0.4,0.4,0.8,0.9,1.1,1.3C904.9,1722.3,904.2,1728.8,898.9,1732.5z"/>
	<path fill="#63330F" d="M750,1707.5c-1.5,6.4-7.8,12.4-16.5,4.5c-5.7-5.1-3.4-11.2,2.7-14.2c2.3-1.1,4.7-1.7,6.9-1.5
		c3.7,0.3,6.8,2.5,7.3,7.1C750.4,1704.7,750.3,1706.1,750,1707.5z"/>
	<path fill="#63330F" d="M686.8,1692.1c-1.9,6-3.4,6-5.7,6.8c-4.3,1.5-6.1-0.9-5.7-9.3c0.1-2.7,0.7-4.8,1.6-6.3
		c1.8-3.4,4.9-4.4,7.4-3.7h0.1C688,1680.6,688.7,1686.1,686.8,1692.1z"/>
	<path fill="#63330F" d="M698.5,1729c-1,1.8-13.4,12.3-28.2,4c-11.5-6.4-14.7-11.6-12.8-18.8c0.9-3.4,4.3-5.7,9-6.2
		c5.1-0.6,11.8,1.1,18.5,5.7c8.1,5.6,11.8,9.6,13.2,12.2C698.8,1727.3,698.8,1728.3,698.5,1729z"/>
	<path opacity="0.3" fill="#091426" enable-background="new    " d="M1158.6,1608.4c-1.6,7.3,1.6,12.2,8.8,17.9
		c7.3,5.7,12.8,7.4,22.8,6.3c9.8-1.1,13.8-3.8,14.6-6.2c-0.3-0.4-0.8-0.6-1.4-0.8c-7.9-1.6-14.4-7.8-21.6-11.3
		c-4.6-2.2-9.3-4.1-14.1-5.8c-1.5-1.6-3.4-3.1-5.3-4.1C1160.5,1604.9,1159.1,1606.2,1158.6,1608.4z"/>
	<path opacity="0.3" fill="#091426" enable-background="new    " d="M1253.8,1660.4c4.8,2,9,0.1,10.3-5.5c-1,0.9-2.3,1.5-4.1,1.7
		c-4.2,0.5-7.4-1.9-9.4-5.5c-1.7-3.1-2.3-6.4-2.2-9.9c0-0.2,0-0.5,0.1-0.7c-1.6,1.9-2.5,4.3-2.5,4.3
		C1245.5,1651.6,1247.6,1657.8,1253.8,1660.4z"/>
	<path opacity="0.3" fill="#091426" enable-background="new    " d="M1304.2,1674.7c2.4,2.6,20.3-2.1,25.9-4.8s13.5-8.9,12.8-17.6
		c-0.2-3.1-1.5-5.5-3.4-7.3c-4.2,8.3-12.3,16.1-20.6,19.5c-5.4,2.2-11,2.9-16.4,4.5C1301.9,1671.4,1302.4,1672.9,1304.2,1674.7z"/>
	<path opacity="0.3" fill="#091426" enable-background="new    " d="M953.4,1670.3c16.4-2.4,26.1-9,28.5-19.1c0.5-2.2,0.5-4,0.1-5.5
		c-1.1-1.1-2.5-2-3.9-2.6c-4.8-1.9-11.1,1.8-15.2,4c-5.9,3.2-10.9,7.7-16.1,12c-3,2.5-6.1,4.9-9.4,7c-1.3,0.8-2.6,1.4-3.7,2.2
		C935.8,1670.5,940.4,1672.2,953.4,1670.3z"/>
	<path opacity="0.3" fill="#091426" enable-background="new    " d="M808.8,1686.5c0.1-0.2,8.8-14.7,20.2-26.8c0,0-1-1.6-2.5-4.1
		c-3.6,2.7-6.5,6.1-8.6,10c-4.2-3.5-7.5-7.6-10.8-12.8c-2.2-3.6-4.5-7.2-6.2-11c-0.6-1.3-1.1-2.5-1.7-3.7
		c-2.3,6.7-0.9,17.7,10.7,26.6c0,0-0.7,0.7-3.1,1.3c-0.6,1.8-1.1,3.6-1.4,5.5c-6.3,0.5-13.5,1-19.1-1.7c-0.2,0.5-0.4,1-0.5,1.5
		C785.5,1674.7,808.8,1686.5,808.8,1686.5z"/>
	<path opacity="0.3" fill="#091426" enable-background="new    " d="M797.9,1714.2c0.2,5.1,4.1,7.5,8.4,7.9s6.5-3.6,8-5.7
		c0.6-0.9,0.9-2.1,1-3.3c-0.6,0.9-1.3,1.8-1.9,2.4c-2.6,2.6-6.4,4.2-9.9,2.4c-6.8-3.5-2.4-9.3,1.9-13.6
		C799.8,1705.2,797.7,1709.6,797.9,1714.2z"/>
	<path opacity="0.3" fill="#091426" enable-background="new    " d="M789.7,1740.5c-1,3.5,4,14.7,14.2,21s25.9,1.1,30.6-4.7
		c1.2-1.5,1.8-3.4,1.7-5.5c-7.9,10-25.9,6.2-35.4,0.1c-5.3-3.4-8-9.8-7.4-16.1c0-0.5,0.3-1.4,0.6-2.6
		C792.1,1734.6,790.6,1737.2,789.7,1740.5z"/>
	<path opacity="0.3" fill="#091426" enable-background="new    " d="M883.8,1717.8c-3,5-1.8,11,2.5,15c0,0,6.9,3.7,12.7-0.3
		c5.3-3.7,6-10.2,2.4-15c0.6,3.1,1.3,6.2-0.2,9.3c-1.2,2.4-3.4,3.1-5.3,4.2c-1.6,0.2-3.1,0.1-4.3-0.3c-4.2-1.2-7.1-5.3-6.7-9.7
		c0.2-2.3,1.2-4.3,2.3-6.3C885.7,1715.4,884.5,1716.5,883.8,1717.8z"/>
	<path opacity="0.3" fill="#091426" enable-background="new    " d="M736.1,1697.9c-6.1,3-8.4,9-2.7,14.2c8.7,7.9,15,1.9,16.6-4.5
		c-4.2,4.1-10.8,8.7-13.8,0.9c-1.4-3.5-1.6-6.8,1.7-9.3c1.7-1.2,3.4-2.1,5.1-2.8C740.8,1696.2,738.4,1696.7,736.1,1697.9z"/>
	<path opacity="0.3" fill="#091426" enable-background="new    " d="M681.1,1698.9c2.4-0.9,3.9-0.8,5.7-6.8c1.9-6,1.2-11.5-2.4-12.5
		c0.1,2.3,0.2,4.6-0.1,6.8c-0.4,4-2.1,7-4.6,9.5c-0.8-2.6-1.9-5.1-2.3-8c-0.2-1.6-0.3-3.2-0.6-4.7c-0.8,1.6-1.4,3.7-1.6,6.3
		C674.9,1698,676.8,1700.5,681.1,1698.9z"/>
	<path opacity="0.3" fill="#091426" enable-background="new    " d="M657.4,1714.2c-1.9,7.2,1.3,12.4,12.8,18.8
		c14.9,8.3,27.3-2.2,28.2-4c0.4-0.7,0.3-1.7-0.5-3.2c-7.8,4.3-16.9,2.3-24.9-0.8c-4.8-1.8-11.2-4.3-10.2-10.6c0.4-2.6,2-4.5,3.5-6.4
		C661.7,1708.5,658.3,1710.8,657.4,1714.2z"/>
	<circle fill="#A87747" cx="896.6" cy="1719" r="2.3"/>
	<circle fill="#A87747" cx="811.4" cy="1709.1" r="1.4"/>
	
		<ellipse transform="matrix(0.9522 -0.3056 0.3056 0.9522 -483.8515 309.4232)" fill="#A87747" cx="746.4" cy="1700.2" rx="1.4" ry="1.9"/>
	<circle fill="#A87747" cx="1256.7" cy="1642.3" r="1.7"/>
</g>
</svg>
