<?xml version="1.0" encoding="utf-8"?>
<!-- Generator: Adobe Illustrator 21.0.2, SVG Export Plug-In . SVG Version: 6.00 Build 0)  -->
<svg version="1.1" id="_x30_8_x5F_Footwear_x5F_Superhero_x5F_Boots_x5F_Main_Asset"
	 xmlns="http://www.w3.org/2000/svg" xmlns:xlink="http://www.w3.org/1999/xlink" x="0px" y="0px" viewBox="0 0 2000 2000"
	 enable-background="new 0 0 2000 2000" xml:space="preserve">
<g>
	<g id="Layer_22">
		<polyline fill="#5CDFF2" points="706.7,1775.1 739.6,1797.3 784,1804.3 830.8,1776 707.2,1769.3 		"/>
	</g>
	<path opacity="0.3" fill="#091426" enable-background="new    " d="M710.8,1689.8c-37.8,6.9-63,20.4-76.5,29.2
		c-13.5,8.8-13.2,16.7-5.7,28.2s26.7,28.5,51.2,37.8c24.6,9.3,51.2,7.6,51.2,7.6s14.4,16,53.3,34.6s94.5,21.7,140.5,10.8
		c46-10.9,73.8-20.2,93.7-36.1s37.6-22.5,72.7-67.6c0,0,41.5,10.6,113,12.4c71.4,1.8,74.4-3,87.3-13.7c13-10.6,11.5-16.1-14.9-16.9
		C1250.4,1715.4,710.8,1689.8,710.8,1689.8z"/>
	<path fill="#2B4CA9" d="M1088.5,1386.4v33.8c0,0-24.5,30.3-38.7,43.8c-14.3,13.5-59.4,48.3-59.4,48.3l-13-13.7
		c0,0-25.9,26.2-53.4,40.6s-49.1,26.3-101.3,19.2l-3.9,31.1c0,0-2.8-1-5.5,2.3c-2.6,3.3-2,4.8-2,4.8s-20.3,3.6-44.4,17.2
		c-16.9,9.6-38.4,28-59.8,60.2c-21.4,32.2-28.3,55.1-31,67.3l-7,1.5c0,0-1.3,4.9-2.5,11.1s5.3,12.2,19.6,21.2
		c14.4,8.9,33,11.5,68.9,13.7s53.5-3.2,53.5-3.2l-0.3,10.3c0,0-7.1,0.9-10,5.9s-0.4,11.4,1.3,18.6c1.8,7.2,19.5,14.5,34.3,18.3
		s32.9,8.9,73.7-0.7s69.2-31.6,69.2-31.6l50.6-36l15.7,2.8c0,0,10.8-11.6,16-15.8s5.8-5,5.7-12.3c-0.1-7.3-1.1-20-1.1-20
		s4.1-1.2,5.4-1.5s0-6.5,0-6.5s35.9,11.7,72.5,16c36.6,4.4,76.3,6.3,103.1,1.9c26.8-4.4,43.9-16.9,47.3-20.6
		c3.3-3.7,1.8-8.2,0.8-12.3s-2.2-3-5.2-3.3c0,0-0.8-12.5-8.8-29.7c-8.1-17.2-32.4-71.2-107-90.2c0,0,1.7-9.2-7.7-9.8
		c0,0,6.6-47.3,15.3-90.2c8.8-42.8,22-100.3,21-109.7c-1-9.3-4.3-5.8-7.3,1s-14.1,19.3-20.4,23.2l-0.8,27l-12.7,16.4
		c0,0-32.3-16.7-47.8-27.3c0,0,2.1-6,0.2-10.2s-4.8-4.4-9.2,3L1088.5,1386.4z"/>
	<g opacity="0.3">
		<path fill="none" d="M891.3,1579.1c0,0-9.2-5.3-27.1-6.3s-35.2,6.7-35.2,6.7l0.2,13c21-1.4,31.7,2.1,33.6,4.3
			c1.9,2.1-2.9,0.9-16.4-0.8s-16.8,1-16.8,1s18.9,0.4,29.3,8.3c10.4,7.9,3.8,4.5-4,1c-7.9-3.4-6-4.7-25.9-4.5s-26.4,4.4-51.4,25
			s-42,49.4-45.3,71.6s-8.4,53.7,8.2,58.4c16.6,4.8,42.4-1.1,42.4-1.1c2.4-18.8,19.7-54.3,42.8-76.7c23.1-22.4,59-41.4,59-41.4
			L891.3,1579.1z"/>
		<path opacity="0.3" fill="#091426" enable-background="new    " d="M1159.5,1568.5c0,0-5.7,3-15,10.2c-9.3,7.3-10.6,12.9-6.6,9.6
			c4-3.2,18.1-15.3,29.5-15.8c0,0,0.4,4.2-6.1,10.4c-6.5,6.2-20.3,19.9-22.6,30.8c-2.3,10.9,2.2,1.8,7.2-7.1s20.9-22,30.1-24.5
			c1.4-0.4,3.2-0.6,5.3-0.7c-3-0.9-6.2-1.8-9.4-2.6c0,0,1.7-9.2-7.7-9.8c0,0,5.1-36.7,12.3-74.7
			C1168.3,1521.5,1164.3,1540.9,1159.5,1568.5z"/>
		<path fill="#091426" d="M1244.7,1734.9c26.8-4.4,43.9-16.9,47.3-20.6c3.3-3.7,1.8-8.2,0.8-12.3c-1-4.1-2.2-3-5.2-3.3
			c0,0-0.8-12.5-8.8-29.7c-1.3-2.7-3-6.4-5.3-10.8l1.3,36.3c0,0-8.2,3.8-37.8,6.2s-61.2,5.4-87,3.4s-59.7-12.4-62.4-14.9
			s-3.5-4.6-5.6-19.7s-5.7-28.1-2.4-66.8c3.3-38.8,7.9-57.2,12.5-79.8c4.6-22.7,11.9-64.2,21.7-108.2l-0.4-3.9
			c-0.7-0.4-1.3-0.9-2-1.3c0,0,2.1-6,0.2-10.2c-0.5-1-1-1.8-1.6-2.3c-5.3,18.2-24.4,84.8-28.1,102.9c-4.3,21-20.8,83.7-23.7,111.7
			c-2.9,28-5.2,41.6-5.2,41.6c1.6,26.7,1.1,35.6-2.1,54.6c-3.2,19.1-4.8,14.9-20.6,28.1c-15.7,13.2-59,42-90.3,52.8
			s-62.4,18.5-83.7,12.3s-19.2-9.9-25.5-25c-6.4-15.1-2.3-34.3,7.1-56.6c9.4-22.3,21.6-47.1,38.3-63.5
			c16.8-16.4,39.8-21.1,65.8-20.2s36.8,10.5,35.1,6.6s-13.4-7.4-34.1-10.8c-20.7-3.5-40.4,2.1-40.4,2.1l1.2-3
			c31.9-10.8,63.7-5.8,66.8-6.1c3.1-0.3-5.9-4-29-4.2s-32.9,3.9-32.9,3.9s0.2-13.3,0.9-26.3c0.7-12.9,6.2-28.2,6.2-28.2
			c18-0.1,36.6-11.8,47.4-20.4c10.7-8.6,17.5-17.9,22-27.7c1.8-4,2.6-8.3,2.9-12l-10.5-11.1c0,0-25.9,26.2-53.4,40.6
			s-49.1,26.3-101.3,19.2l-3.9,31.1c0,0-2.8-1-5.5,2.3c-2.6,3.3-2,4.8-2,4.8s-20.3,3.6-44.4,17.2c-16.9,9.6-38.4,28-59.8,60.2
			c-21.4,32.2-28.3,55.1-31,67.3l-7,1.5c0,0-1.3,4.9-2.5,11.1s5.3,12.2,19.6,21.2c14.4,8.9,33,11.5,68.9,13.7s53.5-3.2,53.5-3.2
			l-0.3,10.3c0,0-7.1,0.9-10,5.9s-0.4,11.4,1.3,18.6c1.8,7.2,19.5,14.5,34.3,18.3s32.9,8.9,73.7-0.7s69.2-31.6,69.2-31.6l50.6-36
			l15.7,2.8c0,0,10.8-11.6,16-15.8c5.1-4.3,5.8-5,5.7-12.3c-0.1-7.3-1.1-20-1.1-20s4.1-1.2,5.4-1.5s0-6.5,0-6.5s35.9,11.7,72.5,16
			C1178.2,1737.4,1218,1739.4,1244.7,1734.9z M782.9,1755.6c0,0-25.8,5.9-42.4,1.1c-16.6-4.8-11.5-36.2-8.2-58.4
			c3.3-22.2,20.2-51,45.3-71.6c25-20.6,31.5-24.8,51.4-25s18,1,25.9,4.5c7.9,3.4,14.5,6.9,4-1c-10.4-7.9-29.3-8.3-29.3-8.3
			s3.3-2.7,16.8-1s18.3,2.9,16.4,0.8c-1.9-2.1-12.6-5.7-33.6-4.3l-0.2-13c0,0,17.4-7.7,35.2-6.7s27.1,6.3,27.1,6.3l-6.7,58.5
			c0,0-35.8,19-59,41.4C802.6,1701.3,785.3,1736.8,782.9,1755.6z"/>
	</g>
	<g>
		<path fill="#FEB04B" d="M1049.8,1464c-14.3,13.5-59.4,48.3-59.4,48.3l-2.8-3c-2.2,7.2-8.9,18.6-8.9,18.6l3.4,5
			c0,0,20.8-15.7,49.5-38.3c28.6-22.6,47.8-45.1,54-51.6s12.3-20.3,13.7-20.5c1.3-0.1,1.9,2.2-0.8,8.6c-2.7,6.4-3.3,12.2-2.6,24.7
			c0,0-0.4,0.4-1.2,1c1.5,1.7,3.5,0.2,5-5.4c1.8-6.8,8.1-23.2,10.2-35c0,0,0.1,0.1,0.4,0.4l1.5-7.2c-0.1-0.1-0.2-0.1-0.3-0.2
			c0,0,2.1-6,0.2-10.2s-4.8-4.4-9.2,3l-11.1-12.7c0,4.4,0,7.9,0,10.1c4.8,5.1,8.2,8,8.2,8l-11,12.5
			C1088.5,1420.2,1064.1,1450.5,1049.8,1464z"/>
		<path fill="#FEB04B" d="M1135.9,1431.9c5.3,3.6,28,13.6,29.2,12s7.3-10.9,12.5-19.1c3.9-6.3,11.2-20.5,19.6-39.2
			c0.9-2.5,1.7-5,2.6-7.5c0.6-4.2,0.8-7.2,0.7-8.8c-1-9.3-4.3-5.8-7.3,1c-0.4,0.9-0.9,1.9-1.6,3c-1.5,9-4.2,18.2-9,27
			c-6.3,11.8-10.7,19.3-10.7,19.3l0,0v0.9l-12.7,16.4c0,0-21.5-11.1-37.8-20.9l-2,3.6C1123.1,1421.5,1130.6,1428.3,1135.9,1431.9z"
			/>
		<path fill="#FEB04B" d="M1182.6,1400.2c4.7-8.9,7.4-18,9-27c-4.3,7-13.3,16.9-18.8,20.2l-0.8,26.1l0,0
			C1172,1419.4,1176.3,1412,1182.6,1400.2z"/>
		<path opacity="0.3" fill="#091426" enable-background="new    " d="M1182.6,1400.2c4.7-8.9,7.4-18,9-27
			c-4.3,7-13.3,16.9-18.8,20.2l-0.8,26.1l0,0C1172,1419.4,1176.3,1412,1182.6,1400.2z"/>
		<path fill="#FEB04B" d="M1139.3,1438c14.8,7.4,20.2,12.6,22.2,12.7s6.1-3.3,16-20.8c6.8-12.1,13.8-27.5,19.8-44.4
			c-8.5,18.7-15.7,33-19.6,39.2c-5.2,8.2-11.2,17.4-12.5,19.1s-23.9-8.4-29.2-12s-12.8-10.4-16.5-12.5l2-3.6
			c-3.6-2.2-6.9-4.3-9.7-6.2l-1.5,7.2C1112.7,1419.2,1126,1431.3,1139.3,1438z"/>
		<path opacity="0.3" fill="#091426" enable-background="new    " d="M1139.3,1438c14.8,7.4,20.2,12.6,22.2,12.7s6.1-3.3,16-20.8
			c6.8-12.1,13.8-27.5,19.8-44.4c-8.5,18.7-15.7,33-19.6,39.2c-5.2,8.2-11.2,17.4-12.5,19.1s-23.9-8.4-29.2-12s-12.8-10.4-16.5-12.5
			l2-3.6c-3.6-2.2-6.9-4.3-9.7-6.2l-1.5,7.2C1112.7,1419.2,1126,1431.3,1139.3,1438z"/>
		<path fill="#FEB04B" d="M1091.3,1389.6l-2.8-3.2v10.2c1,1.1,1.9,2.1,2.8,3C1091.3,1397.5,1091.3,1394,1091.3,1389.6z"/>
		<path opacity="0.3" fill="#091426" enable-background="new    " d="M1091.3,1389.6l-2.8-3.2v10.2c1,1.1,1.9,2.1,2.8,3
			C1091.3,1397.5,1091.3,1394,1091.3,1389.6z"/>
		<path fill="#FEB04B" d="M1098.4,1431.2c2.7-6.4,2.1-8.7,0.8-8.6c-1.3,0.1-7.5,13.9-13.7,20.5c-6.2,6.5-25.4,29-54,51.6
			S982,1533,982,1533l-3.4-5c0,0,6.7-11.4,8.9-18.6l-10.1-10.7c0,0-5.8,5.9-14.8,13.6c12.5,16.5,17,20.9,18.6,22.3
			c1.8,1.5,3.6,1.3,17.3-9.8s60-37.8,92.3-84.8c0,0,1.3,12.2,2.8,15.7c0.3,0.6,0.5,1,0.8,1.4c0.8-0.6,1.2-1,1.2-1
			C1095.1,1443.4,1095.7,1437.6,1098.4,1431.2z"/>
		<path opacity="0.3" fill="#091426" enable-background="new    " d="M1098.4,1431.2c2.7-6.4,2.1-8.7,0.8-8.6
			c-1.3,0.1-7.5,13.9-13.7,20.5c-6.2,6.5-25.4,29-54,51.6S982,1533,982,1533l-3.4-5c0,0,6.7-11.4,8.9-18.6l-10.1-10.7
			c0,0-5.8,5.9-14.8,13.6c12.5,16.5,17,20.9,18.6,22.3c1.8,1.5,3.6,1.3,17.3-9.8s60-37.8,92.3-84.8c0,0,1.3,12.2,2.8,15.7
			c0.3,0.6,0.5,1,0.8,1.4c0.8-0.6,1.2-1,1.2-1C1095.1,1443.4,1095.7,1437.6,1098.4,1431.2z"/>
		<path fill="#152B67" d="M1080.8,1705.5c24.6,8.6,42.4,13.9,107.3,14.1c61.3,0.2,94-3.9,104.8-16.9c-0.1-0.2-0.1-0.5-0.2-0.7
			c-1-4.1-2.2-3-5.2-3.3l0,0c-5.9,7.5-20.2,10.4-52.2,14.9c-32,4.4-54,4-72.6,1.9s-49.9-8.9-73.4-13.8c-14.5-3-22-6.3-25.7-8.3
			C1062.4,1695.8,1060.6,1698.5,1080.8,1705.5z"/>
		<path fill="#152B67" d="M844,1821.9c-32.6-6.6-35.6-15.6-35.6-15.6v-10.5c0,0-7.1,0.9-10,5.9c-0.6,1-0.9,2-1.1,3
			c0.8,1.2,1.7,2.5,2.6,3.8c3.8,5.4,7.9,10.9,27.9,16.9c20,6.1,49.5,2.9,60.4,1.6s51.6-15.1,70-26.6s49.5-28.7,65.7-40.4
			s37.4-38.6,38.9-41.3l-1-7.4l-0.1-0.1l0.1,1.5c0,0-4.8,7.8-13.2,15.1c-8.5,7.3-21,19.4-42.3,33.8c-21.3,14.5-49.9,33.3-68.8,43.4
			C918.5,1815.1,876.6,1828.6,844,1821.9z"/>
		<path fill="#152B67" d="M684,1751.5c-3.3-0.3-9.8-6.5-12.5-9.3l-2.3,0.5c0,0-0.2,0.7-0.5,1.9c1.3,2.3,9.7,7.8,21.8,15.8
			c13.1,8.7,14.9,9.7,36.3,12.4c21.4,2.8,46.6,3.4,46.6,3.4l6.7-6.1c-19.2,0.6-42.8-0.8-58.9-4.7c-18.2-4.4-28.4-8-36-14.2
			C684.9,1751.4,684.5,1751.5,684,1751.5z"/>
		<path fill="#152B67" d="M684,1751.5c0.5,0,0.9,0,1.2-0.3c-3.4-2.7-6.2-6-9-10l0,0l-4.7,1C674.2,1745,680.7,1751.2,684,1751.5z"/>
		<path opacity="0.3" fill="#091426" enable-background="new    " d="M684,1751.5c0.5,0,0.9,0,1.2-0.3c-3.4-2.7-6.2-6-9-10l0,0
			l-4.7,1C674.2,1745,680.7,1751.2,684,1751.5z"/>
		<path fill="#152B67" d="M726.8,1772.8c-21.4-2.8-23.2-3.8-36.3-12.4c-12.1-8-20.5-13.5-21.8-15.8c-0.5,2-1.3,5.4-2,9.3
			c-1.2,6.2,5.3,12.2,19.6,21.2c14.4,8.9,33,11.5,68.9,13.7s53.5-3.2,53.5-3.2l0,0l0,0l-0.5-18.6c-5.7,1.8-16.1,2.9-28.1,3.3
			l-6.7,6.1C773.4,1776.2,748.1,1775.6,726.8,1772.8z"/>
		<path opacity="0.3" fill="#091426" enable-background="new    " d="M726.8,1772.8c-21.4-2.8-23.2-3.8-36.3-12.4
			c-12.1-8-20.5-13.5-21.8-15.8c-0.5,2-1.3,5.4-2,9.3c-1.2,6.2,5.3,12.2,19.6,21.2c14.4,8.9,33,11.5,68.9,13.7s53.5-3.2,53.5-3.2
			l0,0l0,0l-0.5-18.6c-5.7,1.8-16.1,2.9-28.1,3.3l-6.7,6.1C773.4,1776.2,748.1,1775.6,726.8,1772.8z"/>
		<path fill="#152B67" d="M1062.7,1718.7c-1.5,2.7-22.7,29.5-38.9,41.3s-47.3,28.9-65.7,40.4s-59.2,25.3-70,26.6
			c-10.9,1.3-40.4,4.5-60.4-1.6s-24.2-11.5-27.9-16.9c-0.9-1.3-1.8-2.5-2.6-3.8c-0.9,4.5,1,9.8,2.5,15.6
			c1.8,7.2,19.5,14.5,34.3,18.3s32.9,8.9,73.7-0.7s69.2-31.6,69.2-31.6l50.6-36l15.7,2.8c0,0,10.8-11.6,16-15.8
			c5.1-4.3,5.8-5,5.7-12.3c-0.1-7.3-1.1-20-1.1-20s4.1-1.2,5.4-1.5s0-6.5,0-6.5s35.9,11.7,72.5,16c36.6,4.4,76.3,6.3,103.1,1.9
			c26.8-4.4,43.9-16.9,47.3-20.6c3.1-3.5,2-7.7,1-11.6c-10.9,13-43.6,17.1-104.8,16.9c-64.9-0.2-82.7-5.5-107.3-14.1
			c-20.2-7-18.4-9.8-17.1-12.1c-2.3-1.3-3.1-2.1-3.1-2.1l1,20l0.1,0.1L1062.7,1718.7z"/>
		<path opacity="0.3" fill="#091426" enable-background="new    " d="M1062.7,1718.7c-1.5,2.7-22.7,29.5-38.9,41.3
			s-47.3,28.9-65.7,40.4s-59.2,25.3-70,26.6c-10.9,1.3-40.4,4.5-60.4-1.6s-24.2-11.5-27.9-16.9c-0.9-1.3-1.8-2.5-2.6-3.8
			c-0.9,4.5,1,9.8,2.5,15.6c1.8,7.2,19.5,14.5,34.3,18.3s32.9,8.9,73.7-0.7s69.2-31.6,69.2-31.6l50.6-36l15.7,2.8
			c0,0,10.8-11.6,16-15.8c5.1-4.3,5.8-5,5.7-12.3c-0.1-7.3-1.1-20-1.1-20s4.1-1.2,5.4-1.5s0-6.5,0-6.5s35.9,11.7,72.5,16
			c36.6,4.4,76.3,6.3,103.1,1.9c26.8-4.4,43.9-16.9,47.3-20.6c3.1-3.5,2-7.7,1-11.6c-10.9,13-43.6,17.1-104.8,16.9
			c-64.9-0.2-82.7-5.5-107.3-14.1c-20.2-7-18.4-9.8-17.1-12.1c-2.3-1.3-3.1-2.1-3.1-2.1l1,20l0.1,0.1L1062.7,1718.7z"/>
	</g>
</g>
</svg>
