<?xml version="1.0" encoding="utf-8"?>
<!-- Generator: Adobe Illustrator 23.0.3, SVG Export Plug-In . SVG Version: 6.00 Build 0)  -->
<svg version="1.1" id="Layer_1" xmlns="http://www.w3.org/2000/svg" xmlns:xlink="http://www.w3.org/1999/xlink" x="0px" y="0px"
	 viewBox="0 0 2000 2000" enable-background="new 0 0 2000 2000" xml:space="preserve">
<g>
	<g id="Layer_22" opacity="0.3">
		<path fill="#091426" d="M788.2,1662.4c-51.8,13.5-104.9,24.7-154.7,44.9c-9.7,3.9-19.2,7.4-25.5,16.4c-5.5,7.9-7.3,18.6-3.6,27.6
			c3.9,9.4,13.2,15.5,21.6,20.5c20.5,12.3,42.7,22,66.1,26.9c15.5,3.3,33.6,5.3,49.4,4.5c19.2-0.9,14.9-2.3,21.6-4.5
			c6.4-2.1,14.6-1.7,21-3.7c-7.3,2.3-34.1,0.6-39.4,18.6c-4.3,14.6,20.7,21.1,28.9,23c40.2,9.3,80.6,11.7,121.9,12.3
			c19,0.2,76.4-11.4,84.8-14.7c12-4.7,18-8.6,26.5-13.6L788.1,1666C788.2,1666.1,788.2,1662.4,788.2,1662.4z"/>
		<path fill="#091426" d="M1026.8,1763.6c1.7,2.6,7.5-0.8,11.8,0.5c24.3,7.4,48.1,12,73.3,14.9c25.8,3,49.5,5.5,74.8,4.8
			c35-0.9,64.6-6.9,97.8-23.8c20.8-10.6,22.2-31.9,14-33.5c-6.5-1.3-24.3-1.1-29.6-1.7c-17.7-1.9-35.5-3.9-53.2-5.8
			c-41.5-4.5-82.9-9.1-124.4-13.6c-13-1.4-25.9-2.8-38.9-4.3c-4.9-0.5-10.5-2-15.4-1.7c-2.2,10.8-5.1,21.5-7.5,32.3
			C1027.3,1741.7,1021.5,1755.3,1026.8,1763.6z"/>
	</g>
	<g>
		<polygon fill="#333333" points="1275.2,1668.3 1275.2,1668.3 1273.8,1672.5 		"/>
		<g>
			<path fill="#333333" d="M1298.5,1728c0,0-3.2-2.9-3.5,5c-0.2,7.9-5.6,12.9-12.2,9.9c0,0,1.2,6.9-10.2,12.6
				c-11.5,5.7-16.8,0-16.8,0s-2,5.6-18.2,9.1s-21.8-5-21.8-5s-2.5,8-21.2,8s-22.7-10.2-22.7-10.2s-2.8,7-20.4,4.2
				c-15.3-2.4-17.1-8.6-17.3-10.1c-0.1,1.1-1.8,4.1-18.5,2.9c-20.1-1.5-23.5-10-23.5-10s-0.6,4.7-20,3.5
				c-14.9-0.9-18.8-5.3-19.8-7.3c-0.2-0.5-0.3-0.8-0.4-0.9c0,0.6-0.2,5.2-7.6,28c0,0,0.4,9.5-7.2,21.3s-12,12.6-16.3,12.4
				c0,0,1,6-8.7,15.5s-35,11-35,11s2.2,6.8-17.5,10.5s-30.5-3.8-30.5-3.8s-7.1,7.8-17,10s-32.2-9.2-32.2-9.2s-4.6,7-25.5,4.2
				s-30.5-19.2-30.5-19.2s-5.2,5-21.8,0.5s-17.2-28.4-17.2-28.4s-2.1,6.8-20.8,8.3s-29.8-3.3-33-6.8c-3.2-3.4-7.1-7.9-7.1-7.9
				s-3.6,4.4-15.5,5.8c-11.8,1.3-13-10-13-10s-2.2,3.1-15-1.8s-8.5-9.1-10.2-21.9l0,0c-1-7.2-1.4-10.4-1.6-11.8
				c-0.2-1.1-0.2-1.1-0.2-1.1s-2-22.3-2.5-28.6c0-0.2,0-0.3,0-0.5c0-6,8.8-8.9,22.8-10.1c0,0,6-23.1,13.2-41.8
				c7.2-18.7,25.4-26.3,48.7-37.4c19.6-9.3,37.2-19.7,47.9-28.8c2-1.7,3.8-3.4,5.3-5c5.4-5.9,8.9-17.5,10.7-26.1
				c1.3-6,1.9-10.6,1.9-10.6s1.4,0.5,4,1.1c2,0.5,4.8,1.1,8.2,1.7c8.7,1.4,24.7,6,37.3,4c4.3-0.6,8.7-0.6,13.4-1.9
				c2.5-0.7,5-1.4,7.5-2.2c1.2-0.4,3.4-1.2,4.6-1.6c11.9-4.1,21.5-9.6,31.7-15.6c12.1-7.2,23.8-14.5,33.4-22.9c1.4-1.2,5.6-4.8,7-6
				c1.7-1.6,4.3-2.2,5.9-3.7c1.3-1.3,3.9-2.9,5.1-4c9.6-9.4,13-18.8,16.7-23.1c3.3-3.8,3-5.9,3-5.9c35.4,0.4,77.3,8.4,81.3,10.7
				s2.8,6.2,2.8,6.2s1.3-0.2,3.7-0.6c8.4-1.3,30-4.3,55.8-5.7c32.7-1.7,41.6-4.3,43.2,0.9c0,0.1,0,0.1,0.1,0.2
				c1.4,5.5-5.2,21.1-5.2,21.1s-5.2,27.9-6.5,38.5s-0.5,14.5-0.5,14.5s3.3,3.1,4.5,10.2s1.6,16.4,1.6,16.4s28.1,2.7,59.1,17.1
				s39.6,49.4,40.1,66.5c0,0,8.1,1.1,12.5,2.2c1.6,0.4,2.6,0.8,3.5,1.7c1.5,1.6,2.2,4.5,3.3,11.1c0.9,5.3,2.4,13.1,3.6,20.8
				c0.3,2.2,0.6,4.3,0.9,6.4C1298.1,1719.7,1298.5,1724.4,1298.5,1728z"/>
		</g>
	</g>
	<path fill="#091426" d="M784.8,1774.1l16.1-54.5c0,0-0.4-15.9,11.5-38.4s40.1-31.6,50.5-36.4c10.5-4.8,17.8-3.8,19.9-18.1
		c1.6-10.7,2.8-47.5,3.4-67.4c-2.5,0.8-4.8,1.3-7.3,2c-4.7,1.2-9.9,1.5-14.3,2.1c-0.5,3.7-0.3,4.2-0.3,9.2
		c-0.1,13.2,1,34.9-1.7,44.1s-11,18.9-23.5,25.4s-37.9,15.9-48,31.4s-9.3,31.1-11.6,34.7s1.7,11.6-20.1,13.8
		c-21.8,2.2-26.8-4.2-24.2-15.4c2.7-11.3,9.5-40.3,25.7-55.5s33.7-21.2,44.7-27.4s11-15.1,13.1-21.1c1.4-4.2,6.9-28.9,10.1-43.4
		c-3.4-0.6-6.1-1.2-8.2-1.7c-2.5,8.5-6.2,21.2-7.8,28.1c-2.7,11.1-23.8,22.7-38.7,32.3s-38.9,18.9-56.2,34.6s-31.6,65.9-31.6,65.9
		l-17.7,28.1c0.2,1.4,0.6,4.6,1.6,11.8l0,0c1.8,12.9-2.5,17,10.2,21.9s15,1.8,15,1.8s1.1,11.3,13,10c11.8-1.3,15.5-5.8,15.5-5.8
		s3.9,4.5,7.1,7.9c3.2,3.4,14.3,8.3,33,6.8s20.8-8.3,20.8-8.3C784.9,1784.8,784.8,1774.1,784.8,1774.1z"/>
	<path fill="#091426" d="M1072,1748c19.5,1.2,20-3.5,20-3.5s3.4,8.5,23.5,10c16.7,1.2,18.4-1.8,18.5-2.9c0.2,1.5,2,7.7,17.3,10.1
		c17.6,2.8,20.4-4.2,20.4-4.2s4,10.2,22.7,10.2s21.2-8,21.2-8s5.5,8.5,21.8,5s18.2-9.1,18.2-9.1s5.2,5.7,16.8,0s10.2-12.6,10.2-12.6
		c6.6,3,12-2,12.2-10c0.2-7.9,3.5-5,3.5-5c0-3.6-0.4-8.3-1-13.3c-0.3-2.1-0.6-4.3-0.9-6.4l-29.9-21.4c0,0,4.2-3.3,3.8-18.7
		s-7-25.5-20.5-25.7s-14.3,5.4-17.5,6.4s-20.2,2.4-44.7-9.4s-36.8-17.7-41.1-16.7c-4.3,0.9-5.3,4.9-5.3,4.9s-1.6,0.7-9-1.9
		c-7.4-2.5-8.2-3.5-16.5-12.1c-8.4-8.7-17.3-18-21.8-20.5s-9.6-3.4-9.6-13.7s2.6-25.9,6.7-43.9s9.5-31.7,9.5-31.7l-27.4,3l-1,13.1
		c0,0-11.9,51.1-20.4,85.3c-8.5,34.3-6.8,39.5-6.9,45.6s1.5,9.8,4,23.7c2.5,13.9,1.6,31.5,1.6,31.5s0,0,0.4,5.9s-0.9,12.6-0.9,12.6
		s1.1,8.6,1.7,14.9l0.4,1C1053.2,1742.7,1057.1,1747,1072,1748z"/>
	<path fill="#091426" d="M1037.1,1620.6c-5.5,32-9.7,50.4-9.7,50.4s7.4,13.8,9.6,28.4s-3.9,20.9-3.9,20.9c19.9,7.1,11.1,17.9-2.6,38
		L914,1785.9c0,0-108.9-22.4-109.9-38.6c-0.9-16.2,4.8-44.3,10.2-57.5s8.5-13.9,11.5-15.8s9-8.1,17.9-14.8c8.9-6.7,34-13.8,39.9-17
		s4.8-1.7,5-6.1s0.9-20.9,1.6-48.3c0.5-18.6,0.3-24.9,0-29.9c11.9-4.1,22.8-10,33-16c0.2,8,0.5,17.1,0.8,30.2
		c0.6,21.3-1.7,47.2-1.7,47.2s-0.1,0.7-0.4,1.9c-0.3,1.5-0.8,3.9-1.6,6.7c-2,7.6-5.4,18.8-10.3,27.5c-8.3,14.6-21.4,17.1-21.4,17.1
		s31.2,15.4,48,31.6c16.8,16.3,16.9,29.3,16.9,29.3c5.1,1.6,7.6,5.2,7.6,5.2c31.4-3.7,39.5-38.3,40.5-44.1c1-5.7,0.9-11.5-4.1-19.7
		c-5-8.3-5-14.6,1.2-20.3c6.3-5.6,12.5-9.5,12.5-9.5l2.4-14.3l2.3-13.8l3.3-20.4c0,0,3.7-29.6,8.3-60c3.4-22.4,3.7-26.5,3.6-27.1
		l22.2,0.4c0,0,0,12.6-1.1,26.4S1042.6,1588.6,1037.1,1620.6z"/>
	<path fill="#2E2E2E" d="M962.7,1638.4c14.8,3,26.6-1.6,36.8-3.5c5.5-1,10.6-2.7,14-4.1l2.3-13.8l-94,4.2c-0.3,1.5-0.8,3.9-1.6,6.7
		C941.2,1631.1,948.9,1635.6,962.7,1638.4z"/>
	<path fill="#2E2E2E" d="M1024.8,1512.3c12.8-3.9-23.1-6.8-49.7-8.8c-1.2,1.2-5.2,3.9-6.5,5.1c-1.6,1.5-1.6,1-3.3,2.5
		c-1.3,1.2-2.5,2.5-3.9,3.7C985.9,1516.4,1008.9,1517.1,1024.8,1512.3z"/>
	<path fill="#A3A72E" d="M1180.7,1488.1C1180.7,1488.1,1180.7,1488,1180.7,1488.1C1180.7,1488,1180.7,1488,1180.7,1488.1
		c-1.6-5.4-10.5-2.8-43.2-1.1c-25.7,1.4-47.4,4.4-55.8,5.7c0,0.3,0.2,0.7,0.5,1c-0.3-0.3-0.5-0.7-0.6-1.1c-2,0.3-3.3,0.5-3.6,0.6
		l0.1-0.2c-0.1,0.2,1.1-3.8-2.9-6s-45.6-10.4-81-10.8c0,0-1,2.1-3.7,5.8c2,0.1,4,0.2,6,0.4c-2-0.1-4.1-0.3-6.1-0.4
		c-4.1,4.8-8.6,12.8-20.3,24.2c-1.6,1.5-3.1,3.3-4.8,4.8c46.3,0.5,66.6,1.3,82.6,2.6c18,1.5,22.4,3.6,24.3,6.5c0,0,1.9-1.6,3.5-7.8
		l99.8-3.1C1175.5,1509.2,1182.1,1493.6,1180.7,1488.1z"/>
	<path fill="#F4C628" d="M1137.5,1487c-25.7,1.4-47.4,4.4-55.8,5.7c0.2,1.4,2,2.6,7,2.8c14.3,0.6,62.2-1,75.9-3.6
		c7.5-1.4,12.8-2.9,16.1-3.9C1179.1,1482.7,1170.2,1485.3,1137.5,1487z"/>
	<path fill="#F4C628" d="M1075.2,1487c-4-2.2-45.6-10.4-81-10.8c0,0-1,2.1-3.7,5.8c51.9,2.8,86.4,13.2,86.4,13.2l1.2-2.2
		C1078,1493.2,1079.2,1489.2,1075.2,1487z"/>
	<path fill="#A3A72E" d="M1102.3,1571.2c-9.6-0.2-6.9,3.1-8,10c-1.7,10.1-4.3,24-4.3,24s7.1,2.2,24.3,0.9
		c17.2-1.3,42.2-5.5,51.8-9.3c9.6-3.8,8.3-7.7,8.3-7.7s-0.4-9.3-1.5-16.4s-4.5-10.2-4.5-10.2
		C1150.6,1572.7,1111.9,1571.3,1102.3,1571.2z"/>
	<path fill="#A3A72E" d="M1293,1687.6c-1.1-6.7-1.8-9.6-3.3-11.1c0,0,0,0-0.1,0.1c-0.8-0.8-1.8-1.2-3.3-1.6
		c-4.4-1.1-12.5-2.2-12.5-2.2l-0.1,5.4c0-0.3-17.6,9.9-56.5,14.5c-3.7,0.4-7.5,0.8-11.5,1.1c-35.3,2.8-47.8-0.1-56.1-1.6
		c-2.7-0.5-5-0.9-7.5-0.9c-1.2,0-2.3,0.1-3.3,0.2c-7.1,0.7-8.9,4-17.5,14.8c-9.7,12.3-10.3,8-34.3,6.1c-23.9-1.9-36.4-6.1-36.5-6.1
		c-0.9,9.1-1.2,7-12.2,22.6c-1.5,2.1-2.8,4-4.1,5.7c-8.4,11.2-12.9,15-12.9,15s-0.5-0.2-1.3-0.4c-0.1,0-0.2,0-0.3-0.1
		c-2.8-0.7-9.3-2-17.5-0.8c-0.7,0.1-1.4,0.2-2.2,0.4c-12.4,2.4-24.6,4.8-68.4,11.5c-0.9,0.1-1.8,0.3-2.7,0.4s-1.9,0.3-2.8,0.4
		c-0.1-0.1-0.2-0.1-0.3-0.2c-43.5,4.7-102.5-9.1-116-13.6c-14.1-4.7-8.9-27.5-8.9-27.5c-21.2,8.3-82.2,12.9-99,4.2
		c-16.8-8.7-15.1-9-13.1-17.6c-14.4,1.2-23.2,4.3-22.7,10.6s2.5,28.6,2.5,28.6s0,0,1.7,12.8c11.5,5.9,30.1,13.6,52.7,16.9
		c38.8,5.5,58.4-4,58.4-4c0.1,5.2-0.6,8.7,3.6,13.7c4.2,4.9,40.9,22.8,54.8,26.6c13.9,3.8,95.5,23.5,140.4-3s66.2-61.7,68.8-65.3
		c2.6-3.6,3.3-22.9,3.3-22.9c77.7,26.7,171.5,21.4,217.5,6.7c10.7-3.4,19.9-7.7,27.7-12.2C1296.3,1705.2,1294.2,1694.3,1293,1687.6z
		"/>
	<path fill="#A3A72E" d="M907.3,1623.7c4.6,1.8,16.2,3.4,45.8,6.5s56-2.3,63.2-6.7c7.2-4.3,5.9-14.3,7-22.8c1.1-8.4,2-10.6-1.7-9.7
		c-3.7,0.8-16.2,2.9-43.2,3.6c-26.9,0.7-61.2-6.6-68.5-6.8c-7.3-0.2-5.8,2.3-6.7,16.8C902.5,1618.5,902.8,1621.9,907.3,1623.7z"/>
	<path fill="#A3A72E" d="M820.4,1604.7c17.2,1.9,27.9,4.6,30.6-0.3c2.7-4.9,2.3-28.7,1.8-33s-0.9-3-8.8-3.5
		c-6.1-0.4-22.4-0.6-29.4-0.7c-1.9,8.6-5.3,20.2-10.7,26.1c-1.5,1.6-3.3,3.3-5.3,5C803.1,1603.4,805.9,1603.1,820.4,1604.7z"/>
	<path fill="#F4C628" d="M1217.2,1692.7c-3.7,0.4-7.5,0.8-11.5,1.1c-35.3,2.8-47.8-0.1-56.1-1.6c-2.7-0.5-5-0.9-7.5-0.9
		c-1.2,0-2.3,0.1-3.3,0.2c-7.1,0.7-8.9,4-17.5,14.8c-9.7,12.3-10.3,8-34.3,6.1c-23.9-1.9-36.4-6.1-36.5-6.1
		c-0.9,9.1-1.2,7-12.2,22.6c-1.5,2.1-2.8,4-4.1,5.7c-8.4,11.2-12.9,15-12.9,15s-0.5-0.2-1.3-0.4c-0.1,0-0.2,0-0.3-0.1l0,0
		c-2.8-0.7-9.3-2-17.5-0.8c-0.7,0.1-1.4,0.2-2.2,0.4c-12.4,2.4-24.6,4.8-68.4,11.5c-0.9,0.1-1.8,0.3-2.7,0.4c-1,0.1-2,0.3-3,0.4
		c12.9,8,17,11.5,17,11.5s37.3-5.2,52.9-11.2c15.6-6,18.8-8.3,26.4-8c7.6,0.3,31.4-39.7,31.4-39.7s36.7,9,51.9,7.5
		c15.2-1.5,16.2-9,23.2-16.7s6.7-7.6,17.3-6c10.6,1.6,46.9,8.7,96-2c33.1-7.2,44.1-15.3,47.8-19.7c-0.8-0.9-1.9-1.3-3.5-1.7
		c-4.4-1.1-12.5-2.2-12.5-2.2l-0.1,5.4C1273.7,1677.9,1256.1,1688.1,1217.2,1692.7z"/>
</g>
</svg>
