<?xml version="1.0" encoding="utf-8"?>
<!-- Generator: Adobe Illustrator 21.0.2, SVG Export Plug-In . SVG Version: 6.00 Build 0)  -->
<svg version="1.1" id="_x31_0_x5F_Footwear_x5F_Wizard_x5F_Sandals__x28_WIZ_x29_"
	 xmlns="http://www.w3.org/2000/svg" xmlns:xlink="http://www.w3.org/1999/xlink" x="0px" y="0px" viewBox="0 0 2000 2000"
	 enable-background="new 0 0 2000 2000" xml:space="preserve">
<g>
	<g id="Layer_22" opacity="0.3">
		<path fill="#091426" d="M823.9,1645.6c-17.5,7-35.1,14.1-52.6,21.1c-14.5,5.8-5.4,29-20.6,32.8c-37.2,9.4-75.7,14.9-116.7,37.9
			c-18.1,10.2-35.6,39-27.3,59.8c14.1,35.5,63,41.1,96.9,47.5c18.5,3.5,36.9,6.5,55.7,7.8c11.9,0.8,24.1-3,35.9-8.1
			c-10,0.8-9.6-2.7-19.4-0.3c-9.9,2.4-23.9,4.6-33.6,10.9c-12.2,8-6.7,27.3,3.5,33.8c4.7,3,24.6,8.3,30.1,9
			c49.9,6.4,75.9,5.6,124.4-1.8c29.2-4.5,62.8-12.6,88.6-28.3c13.7-8.3,44.2-47.1,44.2-47.1C1033,1820.8,823.9,1645.6,823.9,1645.6z
			"/>
		<path fill="#091426" d="M1029.9,1782c1.9,2.3,8.3,3.8,11,5c34.9,16.1,72.3,30,111.1,31.9c27.6,1.3,55.1-3.5,82-9.6
			c23.3-5.3,46.7-11.9,64.5-28.9c5.5-5.2,10.4-11.1,14.6-17.4c1.3-1.9,9.3-17.5,9.7-17.5l-248-42.9l-67.5,52.5
			C1007.4,1755.2,1029.8,1781.9,1029.9,1782z"/>
	</g>
	<g>
		<path fill="#070301" d="M1323.9,1719.4c-1.1-5.8-2.3-10.7-3.6-14.7c-6.4,11.9-20.2,33.2-44.6,50c-36,24.7-101.5,25.2-147.1,18.1
			s-78.8-33.3-78.8-33.3s-8.4,54.1-46.9,86.6s-90.9,44.9-147.5,37c-56.6-7.8-61.2-32.8-61.2-32.8s-37.1,1.6-62.9-2.7
			c-22.7-3.8-46.3-15.6-70.8-37.7c0,0.4-0.1,0.6-0.1,0.6s-0.5,6.4,0,14.9c0.5,8.4,11.7,18.4,18.2,16.7c0,0,2.8,8.9,9.9,12.7
			s13.2,0,13.2,0s6.6,7.7,14.7,9.5s11.8-1.9,11.8-1.9s8.4,6.1,18.4,6.2s10.5-4.3,10.5-4.3s6.9,5.4,18.1,4.7
			c11.3-0.7,15.3-6.1,15.3-6.1l-4.3,18.9c0,0,5.6,14.9,15.7,17.1c10.1,2.2,16.4,0,16.4,0s4.2,6.7,15.9,8.1c11.8,1.3,15.9,0,15.9,0
			s17.5,7.3,28.7,6.1c11.2-1.2,16.7-7.6,16.7-7.6s13.9,7.7,29.5,3.2c15.7-4.5,16.8-12.7,16.8-12.7s12.9,6.1,24.4-1.7
			c11.5-7.8,12.4-15.2,12.4-15.2s11.9,3.1,17.7-6.4c5.9-9.4,5.9-9.4,5.9-9.4s5.5,5.2,9.8,1.1s14.2-22.5,14.2-22.5s6.4,3.1,14.3-8.7
			c7.8-11.8,8.4-14.6,8.4-14.6l-1.8-2.2l12-21.7c0,0,2.2,5.9,14.6,9.2c12.4,3.3,18.3,1.5,18.3,1.5s6,9.6,19.2,10.3s19.8-2,19.8-2
			s4.9,6.1,20.4,7.3s20.4-3.7,20.4-3.7s8.8,10.4,23.7,6.1s17.4-7.8,17.4-7.8s5,5.3,18.4,2.7c13.4-2.6,16.7-7.8,16.7-7.8
			s13.5,1.2,22.8-3.9s9.3-5.1,9.3-5.1l1.5-3.2c0,0,10.3,0.9,20.1-7.1c9.8-8,8.3-13.7,8.3-13.7s8.2-2.9,13-11.7
			C1327.7,1736.8,1326.4,1732.8,1323.9,1719.4z"/>
		<path fill="#6B450E" d="M794.1,1830.3c0,0,4.7,25,61.2,32.8c56.6,7.8,108.9-4.5,147.5-37c38.5-32.5,46.9-86.6,46.9-86.6
			s33.2,26.1,78.8,33.3c45.6,7.1,111.1,6.6,147.1-18.1c24.5-16.8,38.3-38.1,44.6-50c-1.7-5.3-3.5-9.1-5.5-11.4
			c-3.4-4-25.7-4.5-25.7-4.5l-16.3,1.2c6.7,1.3,11.5,2,13.5,1.9c12.7-0.2,28.5,1.3,25.6,11s-11.6,23.4-48.2,45
			s-61.3,20.4-121.3,14.4c-60-5.9-44.6-16.6-44.6-16.6l-54.2-13.3l-32.6,73.8c0,0-17,12.2-40.9,27.4c-23.9,15.2-51.1,21.1-90,20.3
			c-38.9-0.7-60.2-13-73.1-23.9s-5-21.8-5-21.8s-17.9,5.4-62.5,2s-63.3-26.9-68.8-41.1c-4.1-10.6-1.3-15.6,11.7-26.6
			c-8.3,3.9-14.4,7.6-15.6,8.5c-2.3,1.7-5.8,34-6.3,38.7c24.4,22.2,48.1,34,70.8,37.7C757,1831.9,794.1,1830.3,794.1,1830.3z"/>
		<path fill="#E67D2E" d="M682.4,1742.7c-13,11-15.8,16-11.7,26.6c5.5,14.2,24.1,37.7,68.8,41.1c44.6,3.4,62.5-2,62.5-2
			s-7.8,10.9,5,21.8s34.1,23.1,73.1,23.9c38.9,0.7,66.2-5.1,90-20.3c23.9-15.2,40.9-27.4,40.9-27.4l32.6-73.8l54.2,13.3
			c0,0-15.4,10.7,44.6,16.6s84.7,7.2,121.3-14.4s45.3-35.3,48.2-45c2.9-9.7-12.9-11.2-25.6-11c-1.9,0-6.7-0.7-13.5-1.9l-564.3,43
			C699.3,1735.3,689.9,1739.1,682.4,1742.7z"/>
	</g>
	<path fill="#D8D8D8" d="M1295.9,1692c-0.3-3.5-1.7-6.3-3.9-8.5c-3.8-3.7-9.9-5.2-16.6-4c-6.4,1.1-10.4,1.1-13,0.6
		c-4.1-0.8-4.2-2.8-4.2-2.8s-14-20.6-24.9-43.6c-0.7-1.5-1.4-2.9-2-4.4c-1.9-4.2-3.7-7.9-5.6-11.2c-6.2-10.8-12.5-16.9-20.3-21.9
		c-3.6-2.3-7.6-4.5-12-6.7c-0.5-0.2-1-0.5-1.4-0.7c-15.9-7.9-24.9-8.6-28.1-10.7c-1.3-0.8-1.8-2.2-2-3.5c-0.1-1.1,0-2.2,0.1-2.9
		c0.1-0.7,0.3-1.2,0.3-1.2s-4.2-0.5-4.1-1.3c0-0.7,3.1-14.3,4.8-25.1c0.9-5.9,0.7-10.9,1.2-12.5c0.1-0.3,0.7-2.1-0.4-2.2
		c0.1-0.4,0.2-0.8,0.2-1.1c0.8-4.1-6-2.5-6-2.5s2.6-1.1,4.5-4.4c0.6-1,3.1-1.6,3.4-3.1c0.1-0.3,0.1-0.5,0.2-0.8
		c1.2-5.7-3.4-9.1-0.9-13.4c2.1-3.6-5.2-3.4-4.2-4.5c0.2-0.3,2.8-3.9,2.8-3.9s2-2.2,1.8-2.8c-0.8-4.3,3.6,2.6,2.4-13.5
		c0,0-2.6,14.9-23.2,10.9c-6,3.2-10.5-5.8-23.4-8c-13-2.3-35.7-3.8-35.7-3.8s4-6.7-2.5-7.8s-49,2.1-86.2,1.2c0,0-1.9,3-5.3,7.7
		c-5.8,8.1-16.2,21.6-30,34.6c-1.1,1.1-2.2,2.1-3.4,3.2c-1.6,1.4-3.2,2.8-4.8,4.2c-2.8,2.4-5.7,4.7-8.7,7c-0.5,0.4-1.1,0.8-1.6,1.2
		c-0.8,0.6-1.7,1.2-2.6,1.8c-2.2,1.6-4.5,3.1-6.8,4.5c-2.9,1.8-5.8,3.5-8.8,5c-0.8,0.4-1.5,0.8-2.2,1.2c-1.5,0.8-2.9,1.5-4.4,2.2
		c-0.3,0.1-0.6,0.3-0.8,0.4c-1.4,0.7-2.8,1.4-4.2,2.1c-27.3,13.2-45.7,18.4-64.1,16.9c-1.4-0.1-2.7-0.3-4.1-0.4
		c-3.8-0.5-7.7-1.3-11.6-2.4c0,0-0.9,3-2.2,7.1c-1.1,3.4-2.5,7.6-4,11.5c-0.3,0.9-0.7,1.9-1,2.8c-1.4,3.8-2.9,7.1-4,8.9
		c0,0,0,0.1-0.1,0.1c-2.8,4.4-6.1,6.6-6.4,9.1c-0.1,1.1,0.4,2.3,1.9,3.7c0,0-3.2-0.5-8.7,2.5c-1.3,0.7-2.7,1.6-4.2,2.7
		c-2.8,2.1-4.7,3.9-5.9,5.3c-2.1,2.5-2.2,3.8-2.2,3.9c0,0-1.1,0.3-20.9,7.1c-11.6,4-20.2,10.8-25.8,16.2c-4.8,4.7-7.2,8.3-7.2,8.3
		s-0.7,0.7-2,2c-1.1,1.2-2.6,2.8-4.4,4.7c-6.4,7.1-16.3,18.5-22.7,29c-2.8,4.6-4.9,9-5.8,12.7c-0.7,3.1-1.4,6.2-2.1,9.4
		c-3,14.4-5.2,28.1-5.2,28.1s-5.7,6.4-14.6,17c-8.9,10.6-7.2,27.2,28.9,40.4c36.1,13.2,67.5,10.6,81.4,10.5s15.9-3.7,17.2,4.7
		c1.3,8.4,1.3,16.5,18.3,21.6s17.4,4.3,37.5,9.3s44.9,7.6,66.8,0.7c21.9-6.9,66.5-37.7,66.5-37.7l4.3-6.1l0.2-0.3l44.4-63.5
		l54.9,10.8c0.3,0.1,0.6,0.1,0.9,0.2c0.9,0.2,1.8,0.3,2.7,0.5c54.5,9.9,67.7,18.7,109.6,9.6c42.8-9.3,55.9-25.5,68.9-42.2
		C1294.3,1703.9,1296.3,1697.3,1295.9,1692z"/>
	<path fill="#888888" d="M1219.5,1753.6c42.8-9.3,55.9-25.5,68.9-42.2c16.2-20.9,3.7-34.9-13.1-31.9s-17.2-2.2-17.2-2.2
		s-14-20.6-24.9-43.6c-53,13.7-109.3,55.8-126,109.9C1164,1753.6,1177,1762.8,1219.5,1753.6z"/>
	<path fill="#888888" d="M878.9,1715c-25.1,0.1-61.8,20-61.8,20s-18.9-18.2-66.4-28.3c-14.7-3.2-30.3-2-44.9,1
		c-3,14.4-5.2,28.1-5.2,28.1s-5.7,6.4-14.6,17c-8.9,10.6-7.2,27.2,28.9,40.4c36.1,13.2,67.5,10.6,81.4,10.5s15.9-3.7,17.2,4.7
		c1.3,8.4,1.3,16.5,18.3,21.6s17.4,4.3,37.5,9.3s44.9,7.6,66.8,0.7c21.9-6.9,66.5-37.7,66.5-37.7l4.5-6.4l-35.9-44.1
		C914.6,1711.8,904,1714.9,878.9,1715z"/>
	<path fill="#FC9779" d="M1016,1676.3c-17.5-12.2-26.7-21.4-74.1-33.3s-65.1,3.1-74.6,15.9c-5.6,7.5,56.4,25.2,108.2,38.5
		l-84.8-39.8c34.8-23.2,92,24.1,108.8,27.1c14.1,2.5,23.7,5,32.6,26.6c6.5,1.5,10.3,2.4,10.3,2.4
		C1038.5,1688.3,1033.5,1688.5,1016,1676.3z"/>
	<path fill="#E35A30" d="M1032.1,1711.3c-8.9-21.6-18.5-24.1-32.6-26.6c-16.8-3-74-50.3-108.8-27.1l84.8,39.8l61.8,29
		C1035.5,1720.5,1033.8,1715.5,1032.1,1711.3z"/>
	<path fill="#FC9779" d="M1101.5,1628.9c-31,29.6-37,41.9-42.4,87.6l25.4-1.7l86.7-63.6c0,0,35.8-17.9,54.4-33.2
		c-6.2-10.8-12.5-16.9-20.3-21.9C1159.3,1595.3,1129.6,1602.1,1101.5,1628.9z"/>
	<path fill="#FC9779" d="M857.5,1684.1c0,0-8-12.2-37.1-30.8c-24.5-15.7-39.4-19.3-70.4-11.6c-4.8,4.7-7.2,8.3-7.2,8.3s-0.7,0.7-2,2
		l89.5,44.5L857.5,1684.1z"/>
	<path fill="#888888" d="M899.8,1598.3c8.9-4.8,7.6-8.4-1.3-8.5c-8.9-0.1-30.5,4.2-51.9-0.5c-10.5-2.3-16.7-5-20.4-7.2
		c-1.4,3.8-2.9,7.1-4,8.9c11.5,9.3,14.4,10,31.2,12.2C873.1,1606,890.9,1603.2,899.8,1598.3z"/>
	<path fill="#888888" d="M911.5,1576.9c0,0,5.7,8,44.8,16.3c39.2,8.2,82.7,0.2,95.1-5s13-13,4.1-12c-8.8,1-16.5,8.9-52.1,10
		c-35.6,1.2-67.2-8-77.2-12.8s-15.2-8.7-15.2-8.7s-5.7,6.9-26.8,7c-10.6,0-24.2-4-35.2-8.1c-5.2-0.4-10.4-1.4-15.7-2.8
		c0,0-0.9,3-2.2,7.1c14.7,7.8,23.6,10.9,38.1,14.1C886.2,1585.8,911.5,1576.9,911.5,1576.9z"/>
	<path fill="#888888" d="M1021.5,1606.7c-28.8-4.5-82.8-14.8-101.7-11.3c-15.7,2.8-22.4,9.1-23.4,13.7c-0.3,1.3,0.8,2.6,2.1,2.6h3.3
		c5.3,0,8.5-6.2,60.4-2.4c51.9,3.8,75.6,16,90.8,11.5C1068.1,1616.2,1050.2,1611.2,1021.5,1606.7z"/>
	<path fill="#888888" d="M1111.5,1599.8c27.8-11.3,49.4-12.4,54.9-13.5c31.1-6.1-16.8-11.8-49.1,0c-29.5,10.8-42.5,19.9-53.8,28.6
		c-11.3,8.8-11,13.6-9,15.7s4.6,0.8,4.6,0.8C1077,1618.5,1083.8,1611.2,1111.5,1599.8z"/>
	<path fill="#7DF3D8" d="M916.3,1557.7c2.2,2.1,28,15.9,75.2,13.8c47.2-2.1,70.1-10,70.1-10c23.8,18.6,73,18.3,100.7,9
		c0,0-4.4-0.8-1.2-16.1c-8.6,6.6-29.4,12-58.9,9.1c-29.5-2.8-40.1-13.1-40.1-13.1c-13.5,6.5-61,8.8-95.4,8.2
		c-34.4-0.7-46.8-7.2-47.8-10.2c-0.4-1.2-0.5-2.8-0.5-4.3c-0.3,0.1-0.6,0.3-0.8,0.4C916.3,1549.3,914.9,1556.3,916.3,1557.7z"/>
	<path fill="#7DF3D8" d="M1063.7,1544.7c6.8,6.8,20,7.7,46.4,8c24.5,0.3,14.8-3.5,42.4-7.8c5.6-1.9,10.5-0.8,10.5-0.8
		s2-7.3,0.9-11.4c-10.8,3.4-16.6,7.2-38.8,8.6c-34.2,2.2-48.1-1.2-56.5-3.2s-9.2-0.9-33,2.8s-44.1,2.2-78.2-2
		c-10.6-1.3-18.1-2.4-23.6-3.2c-2.9,1.8-5.8,3.5-8.8,5c-0.8,0.4-1.5,0.8-2.2,1.2c8.2,5.1,37.2,9,74.8,10.7
		C1042.1,1554.7,1063.7,1544.7,1063.7,1544.7z"/>
	<path fill="#7DF3D8" d="M1017.5,1534c47.5-2.1,53.2-10.3,53.2-10.3c8.5,5.8,30.8,9.5,50.5,10.8c17.6,1.2,19.2-1.5,35.8-4.9l6.5-3
		c0,0,3.7-1.8,5.4-8s-3.4-12.5-2.9-13.6c1.1-2.5,2.3-5,3.1-6.8c1-2.2,1.7-4.4,2.1-6.7c0.1-0.6,0.2-1.3,0.3-2
		c0.7-5.5,0.9-13.2-3-16.2c0,0-2.1,8.1-19.5,11.5c-7.9,0-14.8-0.5-27.7-2.7c-13-2.3-35.7-3.8-35.7-3.8s4-6.7-2.5-7.8
		s-49,2.1-86.2,1.2c0,0-21.3,34.2-53.7,58C954.9,1531.6,982.3,1535.5,1017.5,1534z"/>
	<path opacity="0.3" fill="#091426" enable-background="new    " d="M824,1590.3c1.7-3.3,2.5-7.1,3.2-10.9c-0.3,0.9-0.7,1.9-1,2.8
		c-1.4,3.8-2.9,7.1-4,8.9c0,0,0,0.1-0.1,0.1c-2.8,4.4-6.1,6.6-6.4,9.1C818.9,1597.3,822,1594.2,824,1590.3z"/>
	<path opacity="0.3" fill="#091426" enable-background="new    " d="M805.5,1610c1.1-1.3,2.2-2.4,3.4-3.5c-1.3,0.7-2.7,1.6-4.2,2.7
		c-2.8,2.1-4.7,3.9-5.9,5.3C801.7,1613.7,803.3,1612.5,805.5,1610z"/>
	<path opacity="0.3" fill="#091426" enable-background="new    " d="M961.6,1529.7c4.8-0.1,9.5-0.8,14-2.2c4.5-1.4,9.7-2.2,13.7-4.7
		c0.9-0.5,0.8-2.2-0.3-2.3c-3.8-0.6-7.7,0.2-11.5,0.3c-3.7,0.1-7.4,0.2-11.2,0.3c-0.1-0.5-0.4-1-0.9-1.5c-1.3-1.6-2.7-3-3.6-4.9
		c-0.1-0.3-0.2-0.5-0.3-0.8c-1.1,1.1-2.2,2.1-3.4,3.2c0.4,1.4,0.7,2.9,1.1,4.3c-2,0.1-3.9,0-5.9-0.1c-2.8,2.4-5.7,4.7-8.7,7
		C950.4,1529.6,956.6,1529.8,961.6,1529.7z"/>
	<path opacity="0.3" fill="#091426" enable-background="new    " d="M908.7,1577.7c-0.2,1.8-0.7,3.8-0.9,5.8
		c-3.4,2.1-6.4,5.2-7.5,8.9c-0.6,2.1-0.6,4.4-0.5,6.6c0,1,0,2,0,3.1c-0.2,0.2-0.5,0.4-0.7,0.6c-6.6,6.6-10.3,18.7-6.3,27.4
		c-3.3,4-8,7-10.2,11.8c-0.5,0.7-0.9,1.7-1,2.7c0,0.1,0,0.3,0,0.4c-7.9,4.7-13.9,10.4-16.5,20c-0.7,2.6,1.9,6,4.8,4.8
		c2.4-1,3.9-2.6,5.1-4.3c0.3,2.2,3,3.7,5.1,2.5c7.3-4.2,13.1-11.2,18.5-18.2c1.2-1.4,2.3-3,3.6-4.3c4.4-4.6,9.6-6.8,15.8-7.9
		c6.6-1.2,13.1-1.9,19.8-1.8c3.2,0,6.4,0.2,9.6,0.4c4.2,0.2,7.9-0.8,12.1,0.4c1.2,0.3,1.5-1.6,0.2-1.7c-4.5-0.5-8.3-2.6-12.7-3.1
		c-3.4-0.4-6.8-0.6-10.2-0.6c-6.8,0-13.6,0.1-20.3,1.1c-0.2,0-0.4,0.1-0.6,0.1c1.4-1.5,2.8-2.9,4.3-4.2c5.4-1.1,10.9-1.4,16.4-1.2
		c0.9,0.2,1.7,0.3,2.6,0.6c3.1,0.9,5.8,1.2,9.1,1.3c3.9,0.2,7.7,1.3,11.6,2.1c7.7,1.5,14.7,1.3,22.5,0.9c1.5-0.1,1.5-2.1,0-2.3
		c-7.2-0.8-15.3-1.6-22-4.4c-5.5-2.3-10.9-4.8-17-4.5c-1.4,0.1-2.7,0.5-4.2,0.4c-2.3-0.2-3.3-1.4-5-2.6c-2.5-1.8-5.2-3.4-7.8-5.1
		c-3.6-2.4-7.1-4.9-10.3-7.7c0.4-3.9,0.7-7.9,1.1-11.8c0.3-3.4,1.2-7.5,1.5-11.4c1.4,0.9,2.8,1.6,4.3,2.1c4.3,1.6,8.9,2.3,13.4,3.1
		c1,0.2,2.1,0.4,3.2,0.5c4.6,1.2,9.8,1.6,14.2,1.4c6.4-0.3,11.5,0.8,17.4-2.3c0.8-0.4,0.7-1.9-0.3-2c-9.5-1.6-20-3.5-28.3-8.7
		c-6.7-4.2-13.6-10.7-16.8-18c0.7-2.9,1.7-5.7,3.3-8.5c1.6-2.7,3.2-5.3,3.6-8.4c2.8,1.4,5.6,2.4,8.2,3.1c5.7,1.7,11.3,1.6,17.1,2.5
		c4.9,0.7,11.3,1.3,15.9-0.6c0.2-0.1,0.3-0.3,0.1-0.4c-2.6-2.5-6.5-3.7-9.8-4.9c-2.3-0.8-4.5-1.3-6.9-1.9c-2.9-0.7-5.1-2-7.8-3.1
		c-3.4-1.4-6.1-2.9-8.9-4.9c-2.2,1.6-4.5,3.1-6.8,4.5c-2.9,1.8-5.8,3.5-8.8,5c-0.8,0.4-1.5,0.8-2.2,1.2c-1.5,0.8-2.9,1.5-4.4,2.2
		c-0.3,0.1-0.6,0.3-0.8,0.4c-1.4,0.7-2.8,1.4-4.2,2.1c-0.8,4.6-1.5,9.1-2.1,13.7C910.4,1566.2,909.5,1571.9,908.7,1577.7z"/>
	<path opacity="0.3" fill="#091426" enable-background="new    " d="M1001.1,1795.1c-7.8,3.2-15.1,7.7-22.6,11.6
		c-7.3,3.8-14.7,7.5-22,11.4c-6.9,3.7-13.7,7.7-21.2,10.1c-7.7,2.5-15.6,3.2-23.7,3.1c-15.3-0.2-31.3-1.6-46.1-5.5
		c-7.7-2-15.3-4.6-22.8-7.4c-3.5-1.3-6.9-2.7-10.4-3.9c-2.7-0.9-7.7-1.7-9.9-4.2c0.2-3.6,0.8-7.4,2.7-9.8c2.8-3.6,10.6-4.1,14.7-4.3
		c8.8-0.3,19.2,4.5,27.7,1.9c0.9-0.3,1.4-1.6,0.6-2.2c-4.6-3.6-11.8-4.6-17.5-5.6c-3.3-0.6-6.7-0.9-10-0.9c1.1-0.5,2.2-1,3.4-1.3
		c1.9-0.5,3.7-1.2,5.7-1.5c6.3-1.2,12.6-0.9,18.9,0.5c4.8,1,8.7,3.5,13.2,5c2.4,0.8,4.8,1,6.7-0.4c4.1,1,8,2.2,11.9,4.2
		c2.1,1.1,3.7-1.8,1.8-3.1c-4.8-3.3-9.3-6.6-14.5-9.1c-2.8-4.2-9.1-6.6-13.6-8c-0.5-0.2-1-0.3-1.6-0.4l-0.1-0.1
		c-1.1-1.9-1.7-4-2.9-5.9c-1.1-1.8-2.3-2.9-2.4-5.1c-0.6-9.6,2.7-19.6,5.2-28.7s4-18.7,0-27.5c-3.1-6.7-11.9-14.3-19.6-10.2
		c-3.1,1.7-3,5.6-1,8c0.1,0.1,0.2,0.3,0.4,0.4c-0.5,0.2-1.1,0.5-1.5,0.8c-5.8,3.3-9.4,9-12.1,15c-3.1,6.8-5.4,13.3-5.1,20.9
		c0.3,8.1,1.1,15.9,0.1,24c-0.9,7.1-2.2,15.4-5.5,21.7c-2.5,0.5-5.1,1.2-7.5,1.5c-6.6,0.9-13.5,1-20.2,1.1
		c-14.2,0.1-28.1-2.4-41.8-5.9c-13.4-3.4-26.7-7.5-39.9-11.9c-6.2-2.1-12.2-4.4-17.8-7.7c-2.4-1.4-4.7-3.1-7-4.8
		c0.9-2,2.1-4,3.4-5.9c0.3-0.4,0.6-0.8,0.9-1.2c0,0,0,0,0.1-0.1c2.2-2.4,4.6-3.8,7.1-5.1c0.2,0,0.4,0,0.7,0c2,0,4.1-0.4,6.2-0.3
		c5,0.1,9.5,1,14.3,2c4.4,0.9,8.8,2.1,13,3.8c2.3,1,4.8,2.4,7.2,3.3c1.4,0.9,2.9,1.5,4.6,0.9c0.1,0,0.2-0.1,0.3-0.2
		c0.8-0.4,1.4-1.3,1.1-2.3c-1.4-4.4-6.5-7.3-10.4-9.5c-1.4-0.8-2.8-1.5-4.2-2.2c-5.1-3.6-10.8-7.4-13.2-13.4
		c-2.8-6.9-2.3-14.8-1.4-22c0.9-7.4,2.5-14.5,6.3-21c4.4-7.5-7.6-14.4-11.5-6.7c-0.8,1.6-1.6,3.3-2.3,5c-0.7-0.3-1.5-0.4-2.2-0.4
		c-2.8,4.6-4.9,9-5.8,12.7c-0.7,3.1-1.4,6.2-2.1,9.4c-3,14.4-5.2,28.1-5.2,28.1s-5.7,6.4-14.6,17c-8.9,10.6-7.2,27.2,28.9,40.4
		c36.1,13.2,67.5,10.6,81.4,10.5s15.9-3.7,17.2,4.7c1.3,8.4,1.3,16.5,18.3,21.6s17.4,4.3,37.5,9.3s44.9,7.6,66.8,0.7
		c21.9-6.9,66.5-37.7,66.5-37.7l4.3-6.1C1005.5,1794.8,1003.5,1794.1,1001.1,1795.1z"/>
	<path opacity="0.3" fill="#091426" enable-background="new    " d="M744.5,1659.5c11-6.4,20.5-14.9,31.7-21.1
		c5.7-3.1,11.6-5.8,17.6-8.3c1.4-0.6,2.8-1.2,4.2-1.7c3,0.1,6.5-1.1,8.8-1.8c7.1-2.1,13.2-5.3,20.6-6.2c7.2-0.8,14.5-1,21.7-0.1
		c3.4,0.5,8.1,0.5,11.2,1.7c3,1.1,5.3,3.7,8.4,4.2c0.8,0.2,1.5-0.5,1.3-1.3c-0.6-3-3.2-4.2-5.8-5.4c-3.6-1.6-7-3.8-10.7-5
		c-7.7-2.4-16.2-3.4-24.3-2.9c-2.6,0.2-5.3,0.5-7.9,1.1c5.8-4.6,11.1-9.7,14.5-16.4c3-6,3.8-12.6,5.3-19c1.1-4.8,2.5-9.5,3.9-14.1
		c-3.8-0.5-7.7-1.3-11.6-2.4c0,0-0.9,3-2.2,7.1c-1.1,3.4-2.5,7.6-4,11.5c-0.7,3.8-1.5,7.6-3.2,10.9c-2,3.9-5.1,7-8.3,10
		c-0.1,1.1,0.4,2.3,1.9,3.7c0,0-3.2-0.5-8.7,2.5c-1.2,1.1-2.3,2.3-3.4,3.5c-2.1,2.5-3.8,3.7-6.7,4.4c-2.1,2.5-2.2,3.8-2.2,3.9
		c0,0-1.1,0.3-20.9,7.1c-11.6,4-20.2,10.8-25.8,16.2c-4.8,4.7-7.2,8.3-7.2,8.3s-0.7,0.7-2,2c-1.1,1.2-2.6,2.8-4.4,4.7
		C737.8,1659.5,741.5,1661.2,744.5,1659.5z"/>
	<path opacity="0.3" fill="#091426" enable-background="new    " d="M1163.9,1578c-1.3-0.8-1.8-2.2-2-3.5c-10.5,0.9-21,2.4-31.2,5.1
		c-8.9,2.3-17.5,5.7-26.2,8.9c-3.3,1.2-6.6,2.4-10,3.6c0.8-0.9,1.5-1.8,2.3-2.6c3.8-4.2,8.9-7.5,13.5-10.9
		c6.1-0.2,12.1-1.7,18.2-1.6c4.7,0.1,9.4-0.8,14.1-1.5c5.4-0.8,10.7-2,16.1-3.3c1-0.2,2.2-0.3,3.3-0.5c0.1-0.7,0.3-1.2,0.3-1.2
		s-3.1-0.2-2.1-10.9c-2.4,2-2.3,2.1-5.1,3.6c-5.2,2.7-8,3.4-13.5,5.3c-4.5,1.5-9.1,2.7-13.7,4.1c-5.3,1.7-11.3,1-16.9,0.7
		c-0.7-0.4-1.5-0.5-2.5,0.1c-11,6.6-22,14.6-31,23.7c-1,1-1.9,2-2.9,3.1c0.7-3.7,1.7-7.4,2.5-11.2c0.2-0.7,0.3-1.4,0.5-2
		c2.4-4.6,4.7-9.3,7.1-13.9s5.3-8.9,8.3-13.1c3-4.3,6.1-7.9,7.7-12.9c0.6-1.9-1.6-3.3-3.2-2.5c-6.8,3.6-11.6,11-15.8,18
		c1.2-8.7,2.4-17.3,4.3-25.9c3.8-1.7,7.4-3.9,11.2-5.7c4.4-2,9.1-5.4,14-5.3c1,0,1.9-0.7,2.2-1.6c0.1-0.3,0.1-0.5,0.1-0.7
		c0-0.1-0.1-0.3-0.1-0.4c-0.2-0.9-1.2-1.7-2.2-1.6c-0.1,0-0.2,0-0.4,0c0.2-0.3,0.3-0.6,0.5-0.9c0.7-1.6,1.7-3.6,1.2-5.3
		c-0.2-0.8-1.4-1.4-2.2-0.9c-1.3,0.9-1.8,2.5-2.7,3.8c-0.8,1.2-1.7,2.4-2.5,3.6c-1.1,0.1-2.3,0.2-3.4,0.4c0.9-2.7,1.3-5.8,0.5-8.4
		c-0.5-1.8-2.7-1.5-3.3,0c-0.9,2.3-1.4,4.7-2.5,7c-0.5,1-1,1.9-1.5,2.9c-2,0.5-4,0.9-6,1.4c1.4-4.6,3-9.2,4.7-13.8
		c2.5-7,5.9-14.8,6.3-22.4c0.2-0.2,0.4-0.5,0.6-0.8c0.1,0,0.1,0.1,0.2,0.1c0.7,0.3,1.5,0.5,2.2,0.7c0.1,1.3,0.3,2.7,0.1,4.1
		c-0.2,2.6-1.4,5.9,0.4,8.1c0.3,0.4,0.9,0.4,1.3,0.2c2.8-1.3,2.8-5.8,4.1-8.4c0.4-0.7,0.8-1.3,1.2-1.9c1.6,0.4,3.2,0.8,4.8,1.1
		c0.2,1.3,0.8,2.6,0.8,3.8c0,0.8,1,1,1.5,0.4c0.8-1,1.7-2.1,2.3-3.3c5.9,1.1,11.8,1.7,17.6,2.2c5.2,0.4,10.5,0.3,15.7-0.4
		c0,0.9-0.1,1.8-0.1,2.7c0,0.9-0.2,3.1,1.1,3.2c0.1,0,0.1,0,0.2,0c0.4,0,0.8-0.3,1-0.6c1.2-1.9,1.8-4,2.2-6.1c3.6-0.9,7-2.1,10.2-4
		c0.1,0.2,0.2,0.4,0.2,0.7c2,5.5-2.6,7.4-3.9,12.7c-0.2,1,1.4,1.1,1.7,0.2c1.5-1.8,3.7-5.5,4.1-7.4c2.5-6.3,1.9-7.4,2.5-11.2
		c0.3-1.7,0-9.8-3.4-11.6c0,0-1.4,7.8-18.4,11.2c-5.6,0.6-17-0.4-29.9-2.6c-13-2.3-34.6-3.3-34.6-3.3s4-7-2.5-8.1s-49,2.1-86.2,1.2
		c0,0-2.5,3.5-5.9,8.2c11.2,0.6,22.4-0.3,32.8-0.5c8.8-0.1,17.2-2.6,25.7-4.1c0.4,1.1,0.7,2.3,0.7,3.6c0,1.4,0.3,2.5,1.5,3.4
		c0.2,0.2,0.6,0.3,0.9,0c1.2-1.3,1.1-2.7,0.4-4.2c-0.5-1.1-1.1-2.1-1.8-3.1c3.5-0.6,7-1,10.7-1c0.4,0,0.9,0,1.4,0
		c0.4,1.2,0.8,2.5,1.1,3.7c0.9,3.9,2.1,10.9,0.8,14.9c-0.3,0.8,0.9,1.3,1.3,0.5c2.6-4.8,3.4-8.2,2.6-13.8c-0.2-1.6-0.6-3.3-1-4.9
		c3.5,0.5,7,1.6,9.1,3.6c1.7,1.5,2.8,3.3,4,5c-1.3,5.6-1.6,11.5-3.6,16.9s-5.1,11.7-9.8,15.2c-1.2,0.9-2.5,1.6-3.9,2.3
		c0.2-0.7,0.3-1.5,0.3-2.2c0.1-1.9-0.3-4.8-1.5-6.4c-0.4-0.5-1.4-0.4-1.4,0.4c0,1.7-2.3,3.4-3.2,4.8c-1.2,1.7-2.2,3.5-3.3,5.3
		c-0.3,0.4-0.4,0.8-0.5,1.2c-0.6,0.1-1.3,0.3-1.9,0.4c0.2-0.9,0.3-1.8,0.4-2.7c0.1-2.3,0.8-5.2-0.9-7.1c-0.4-0.4-1.2-0.2-1.3,0.3
		c-0.4,2.4-0.1,4-1.6,6.1c-0.9,1.3-1.8,2.5-2.9,3.7c-0.6,0.2-1.2,0.5-1.6,1c-5.8,0.6-11.4,0-17.2,0.6c-1.8,0.2-2.8,2.2-1.5,3.7
		c5.6,6.1,15.2,5.7,22.8,4.6c7.6-1.2,15.7-3.1,22.6-6.6c-0.9,2.4-1.4,4.8-1.6,7.4c-0.9,8.2-1.3,16.4-2.4,24.6
		c-2.2,16.6-5.7,33-9,49.5c-3.3,16.3-5.8,32.2-6.1,48.8c-0.2,8.4-0.2,16.8-1.7,25.1c-1.3,7.1-4.8,14.2-3.3,21.5
		c3.8,19.3,27.8,10.2,40.5,7.2c6-1.4,5.7-8.7,1.9-11.6c1-1.7,1.3-4,0.1-6.6c-3.7-7.8-7.9-15-10.5-23.4c-2.5-8.1-4-16.5-4.7-25
		c-0.4-5-0.7-10.1-1-15.2c2.2-3.5,4.1-7.2,6-11c4.7-3.1,9.8-5.8,14.9-8.2c10.9-5.3,22.4-9.2,34.2-11.8c12.5-2.8,25.2-3.6,38-4.7
		c8.5-0.8,16.9-1.5,25.4-2.3C1176.1,1580.8,1167.1,1580.1,1163.9,1578z"/>
	<path opacity="0.3" fill="#091426" enable-background="new    " d="M1165.7,1519.9c0-0.1,0-0.3-0.1-0.4c0-1,1-2.4,1.9-4.3
		c0.3-1.6-0.7-1.3-1.4-0.7c-0.5,0.4-0.9,0.9-1.3,1.4c-1.1,0.7-2,1.6-3,2.6c-0.6,0.6-1,1.4-1.1,2.2c-2.7,0.7-5.5,1.2-8.3,1.8
		c0.2-2.1,0.2-4.4-0.7-6.1c-0.5-0.9-1.9-0.7-2.2,0.3c-0.3,1-0.2,2.1-0.4,3.1c-0.2,1.1-0.6,2.2-1.2,3.2c-0.1,0.2-0.1,0.3-0.2,0.5
		c-5.1,1.1-10.3,1.1-16.1,1.7c-2.5,0.3-2,2.7,0.4,3c6.6,0.7,15,3.6,21.2,2.2c6.1-1.4,5.6-1.5,11.1-4.3
		C1166.2,1525.1,1171.1,1517.4,1165.7,1519.9z"/>
	<path opacity="0.3" fill="#091426" enable-background="new    " d="M1235.5,1703.9c-0.5,1,0.5,2,1.5,1.5
		c11.2-5.3,21.4-12.2,33.1-16.5c5.6-2,11.2-3.7,17-4.9c1.5-0.3,3.2-0.5,4.9-0.6c-3.8-3.7-9.9-5.2-16.6-4c-6.4,1.1-10.4,1.1-13,0.6
		C1251.6,1685.5,1241.1,1693.1,1235.5,1703.9z"/>
	<path opacity="0.3" fill="#091426" enable-background="new    " d="M1219.5,1753.6c42.8-9.3,55.9-25.5,68.9-42.2
		c5.8-7.5,7.9-14.1,7.5-19.4c-1.9,3.1-3.8,6.2-6.3,8.9c-5.2,5.8-11,10.9-17.5,15.2c-6.5,4.3-13.5,8.2-20.6,11.5
		c-8,3.7-16.4,5.2-25,6.6c-17.5,2.8-35.1,4.6-52.6,1.3c-17.2-3.2-33.3-10.1-50.6-12c-2.4-0.3-3.6,2.3-3,4.3
		c-1.2-0.1-2.3-0.2-3.5-0.2c-5.3-0.1-7.2,7.2-2.7,9.8l0,0c-1.1,0.7-2.2,1.6-3.2,2.8c-0.9,1.1-1.2,2.5-1,3.7
		C1164.5,1753.8,1177.7,1762.7,1219.5,1753.6z"/>
	<g>
		<g>
			<path fill="#6B450E" d="M693.5,1717.9c0,0-9,2.7-14.9,4.3c0.1-1.2,0.5-2.3,1.3-3.3c0.6-0.8,1.5-1.8,2.5-2.9
				c3.2-3.5,7.6-7.9,7.6-7.9c-0.1-0.6-0.2-1.3-0.3-2c0.5,2,1.1,3.8,1.6,5.3C692.4,1715.4,693.5,1717.9,693.5,1717.9z"/>
			<polygon fill="#6B450E" points="709.6,1698.4 709.1,1698.2 709.2,1698.4 			"/>
			<path fill="#42350E" d="M707.2,1694.4l3-7.1c-1.7-1.1-3.5-1.9-5.3-2.2c-0.2,0-0.4,0-0.6-0.1c-7.3-0.8-11.5,1.3-15.1,3.4
				c-1.1,4.2-0.6,11.4,0.4,17.5c0.5,2,1.1,3.8,1.6,5.3c3.6-1.9,7-3.7,8.9-4.8v-9.6l9.2,1.4l-0.1-0.2L707.2,1694.4z"/>
			<path fill="#42350E" d="M679.6,1728.9c0.5,1.9,6,2.4,14.8-0.6c0,0,0.7,9.2,0.6,9.2s5.7-1.7,5.7-1.7l9.6-35.3l-1.1-2.1l-9.2-1.4
				v9.6c-1.9,1.1-5.2,2.9-8.9,4.8c1.3,4,2.4,6.5,2.4,6.5s-9,2.7-14.9,4.3C678.3,1724.8,679.2,1727.6,679.6,1728.9z"/>
			<path fill="#6B450E" d="M725.8,1649.8l-15.7,37.5c-1.7-1.1-3.5-1.9-5.3-2.2c-0.2,0-0.4,0-0.6,0c-7.3-0.8-11.6,1.3-15.1,3.4
				c0.2-0.7,0.4-1.2,0.6-1.7c0.7-1.4,2.8-4.5,5.4-8.1c4.7-6.5,11.1-14.9,14.7-20C715.6,1650.9,720.4,1645.6,725.8,1649.8z"/>
			<path opacity="0.3" fill="#091426" enable-background="new    " d="M710.3,1700.5l-9.6,35.3c0,0-5.7,1.6-5.7,1.7
				c0.1,0-0.6-9.2-0.6-9.2c-8.7,3-14.2,2.6-14.8,0.6c-0.4-1.3-1.3-4.1-1-6.7c0.1-1.2,0.5-2.3,1.3-3.3c0.6-0.8,1.5-1.8,2.5-2.9
				c3.2-3.5,7.6-7.9,7.6-7.9c-0.1-0.6-0.2-1.3-0.3-2c0.5,2,1.1,3.8,1.6,5.3c3.6-1.9,7-3.7,8.9-4.8v-9.6l9.2,1.4L710.3,1700.5z"/>
		</g>
		<path fill="#DFB224" d="M741.8,1642.6c-0.6,2.9-2.4,7-2.4,7l-31.5,48.8c-4,14.4-3.3,19.3-6.3,19.5c-2.9,0.2-5-0.6-6.3-1
			c-1.2-0.4,0.4-16.7,1.6-24.3c0.6-3.7,1.1-6.4,2.3-9.5c1.3-3.3,3.3-7,7.1-12.8c7.3-11.4,24.7-30.4,27.4-32s6.2,0.7,7.8,1.8
			C742.1,1640.4,742,1641.4,741.8,1642.6z"/>
		<g>
			<path fill="#A2A62E" d="M741.8,1642.6c-3.1-0.7-6.6-0.5-10.8,4.5c-5.4,6.5-17.5,24.4-21.7,34.6c-2.8,7-7.4,4-10,1.5
				c-1,2.6-1.5,4.9-2,7.7c4.1,0.2,10,0.6,14.9,0.9l27.2-42.1C739.4,1649.6,741.2,1645.5,741.8,1642.6z"/>
			<path fill="#747822" d="M697,1692.7c-1.2,7.6-2.9,23.9-1.6,24.3c1.2,0.4,3.3,1.2,6.3,1c2.9-0.2,2.3-5,6.3-19.5l4.3-6.7
				c-4.9-0.3-10.8-0.7-14.9-0.9C697.2,1691.4,697.1,1692,697,1692.7z"/>
		</g>
	</g>
	<path fill="#6B450E" d="M1240.8,1631.3c-0.5-0.6-1.1-1.2-1.6-1.8c-12.9-14.6-21.1-24-21.1-24s-9.3-1.5-22.7-0.8
		c-10,0.5-22.1,2.2-34.3,6.7c-28.5,10.4-51.6,26.2-64.4,40.9c-6.8,7.8-12.3,17.3-17.4,26.1c-4.4,7.7-8.5,14.8-12.9,19.8
		c-9.3,10.7-19.2,1.5-19.4,1.3l0,0c0,0,0.8,4.7-1.1,8.2s-2.1-0.2-10.1-5.1c-5.8-3.5-14.1-5.2-18.2-5.9c-1.5-0.3-2.5-0.4-2.5-0.4
		s0.1-1-0.5-3.1c-0.4-1.5-1.1-3.5-2.4-6.1c-3.1-6.1-8.3-8.1-23-12.2c0,0-5.2,18.6-14.5,28.8c-4.2,4.6-9.9,6.9-14.8,8
		c-5.9,1.3-10.7,1-10.7,1s-0.3,2-0.6,4.9c-0.8,6.2-1.8,16.5-1.2,20.6c0.9,6.1,3.2,14.4,13,23.4s14,16.4,25.5,32.9
		s16.8,31.6,16.8,31.6l7.2-0.7c0,0,0.3-0.4,1-1.1c1.4-1.6,4.4-5,7.9-9.7c5.2-6.9,11.8-16.7,17.5-28.6c11.3-23.5,15.4-36.2,15.5-36.4
		c0,0,17.6,8.1,38.2,15.2c11.4,3.9,21.9,5.9,29,6.9c5.8,0.8,9.4,0.9,9.4,0.9c-0.6-7.1,5.2-27.1,10.1-41.9c1.9-5.6,4-10.6,6.9-15.8
		c4.7-8.7,11.3-17.9,21.5-30.7c16.3-20.5,44.1-29.8,61.8-29.8c5.4,0,9.5,0.7,12.7,1.9c5.8,2.1,8.6,5.5,10.5,9.1c0.5,1,1,1.9,1.4,2.9
		c2.8,6.4,4.7,8.8,4.7,8.8l1.3-5.3l0.3-1.3c0,0,2.9,2.9,4.6,3c0.6,0,1.6-0.2,2.7-0.4c1.8-0.4,3.7-1.1,3.7-1.1
		S1253.6,1646.2,1240.8,1631.3z"/>
	<path opacity="0.3" fill="#091426" enable-background="new    " d="M1264.4,1673.6c0.6,0,1.6-0.2,2.7-0.4c-0.2-2.2-1.2-5.4-3.6-9
		s-12.6-18.4-22.7-32.9c-0.5-0.6-1.1-1.2-1.6-1.8c-12.9-14.6-21.1-24-21.1-24s-9.3-1.5-22.7-0.8c13.7,17.9,39.7,46.3,39.7,46.3
		s2.7,2.3,6.4,5.6c5.8,2.1,8.6,5.5,10.5,9.1c2.7,2.3,5.3,4.5,7.4,6.3l0.3-1.3C1259.8,1670.6,1262.7,1673.6,1264.4,1673.6z"/>
	<path fill="#42350E" d="M968.4,1740.8c6.8,9.2,9.2,15.4,18.5,18.9s20,4.7,31.9-4.4s14.9-14.1,17.2-19.5s0.6-15.8,0.6-15.8
		s0.2,9-6.9,19s-15.7,15.4-22.4,16.2s-20.8-3.4-28.5-16.4L968.4,1740.8z"/>
	<path fill="#42350E" d="M997.9,1796c-11.9-13.8-18.7-26.4-25.8-35.5s-10.6-8.6-13.1-17s-1.8-15.4,0.6-25.1l0.3-6.6
		c-5.9,1.3-10.7,1-10.7,1s-2.7,19.4-1.8,25.5s3.2,14.4,13,23.4s14,16.4,25.5,32.9s16.8,31.6,16.8,31.6l7.2-0.7l0,0l0,0
		C1010,1825.4,1009.8,1809.8,997.9,1796z"/>
	<path opacity="0.3" fill="#091426" enable-background="new    " d="M1037,1731.5c-1,10-2.4,22.3-13.7,32.5s-23.8,11.7-23.8,11.7
		s4.3,9.7,5.8,24.3c0.4,3.9,0.5,6.6,0.5,8.7c1.2,2.6,2,5,2.6,7.2c0.7,2.4,1,4.5,1.3,6.1c0.3,2.1,0.3,3.4,0.3,3.4l-7.2,0.7
		c0,0-5.3-15.2-16.8-31.6s-15.8-23.9-25.5-32.9s-12.1-17.3-13-23.4c-0.3-1.8-0.2-4.8,0-8.1c0-0.2,0-0.4,0-0.5s0-0.4,0-0.6
		s0-0.4,0-0.6c0-0.3,0-0.6,0.1-0.9c0.1-0.9,0.2-1.8,0.2-2.8c0-0.3,0.1-0.6,0.1-0.9l0,0c0-0.3,0.1-0.6,0.1-0.9c0-0.1,0-0.2,0-0.2
		c0-0.2,0-0.5,0.1-0.7c0-0.2,0-0.3,0.1-0.4c0-0.3,0.1-0.6,0.1-0.9c0-0.2,0-0.4,0.1-0.6c0-0.2,0.1-0.4,0.1-0.7c0-0.1,0-0.3,0-0.4
		c0.1-0.5,0.1-1,0.2-1.5c2.4,0.8,5.9,2.4,9.8,5.6c0,0,0,0,0.1,0c6.5,5.5,4.2,6.7,7.7,10.6s7.2-2.2,12.3,4.8
		c5.2,7.1,14.1,14.8,23.5,16.7c9.5,1.9,17.4-3.9,24.2-11.2c6.8-7.3,8.3-11.7,7.5-16.2s-3.3-11.2-9-16.5c-5.7-5.2-8.2-6.8-14.2-17
		l4-1.4l0,0c0.5,2.1,0.5,3.1,0.5,3.1s1,0.1,2.5,0.4c2.9,3.2,7.5,8.2,12.8,12.9C1039.1,1717.3,1038,1721.4,1037,1731.5z"/>
	<path opacity="0.3" fill="#091426" enable-background="new    " d="M960,1711.8l-0.3,6.6c-0.4,1.7-0.8,3.4-1.1,4.9c0,0,0,0-0.1,0
		c-3.8-3.2-7.4-4.8-9.8-5.6c0.4-2.9,0.6-4.9,0.6-4.9S954.1,1713.1,960,1711.8z"/>
	<path fill="#42350E" d="M1254.4,1657.4c-7.7-7.8-36.4-22.3-67-3.1c-30.6,19.2-33.1,31.2-48.7,56.3c-15.1,24.3-18,34-19.6,61.2
		c5.8,0.8,9.4,0.9,9.4,0.9c-0.6-7.1,5.2-27.1,10.1-41.9s12.1-26,28.4-46.5s44.1-29.8,61.8-29.8s21.8,7.5,24.6,13.9s4.8,8.8,4.8,8.8
		l1.6-6.6C1259.8,1670.6,1262.1,1665.1,1254.4,1657.4z"/>
	<path opacity="0.3" fill="#091426" enable-background="new    " d="M1113.7,1701c-6.3-3.2-27.2-17.7-34.3-22.6
		c-4.4,7.7-8.5,14.8-12.9,19.8c-9.3,10.7-19.2,1.5-19.4,1.3c4.8,17.4,4.7,50.1,4.7,50.1l0,0l0,0c0,0,17.6,8.1,38.2,15.3
		c11.4,3.9,21.9,5.9,29,6.9c5.8,0.8,9.4,0.9,9.4,0.9c-0.6-7.1,5.2-27.1,10.1-41.9c1.9-5.6,4-10.6,6.9-15.8l-6.8-4.5
		C1138.7,1710.6,1121.2,1704.8,1113.7,1701z"/>
	<g>
		<path fill="#6B450E" d="M823.5,1736.3c0.5,3.5,1.1,6.6,1.8,9.5c-5.9-7.9-19.3-25.5-24.1-30.7c-6.2-6.7-10.1-9-37-21
			c-4.7-2.1-9.1-3.7-13.5-4.9c-8-2.2-15.6-2.9-22.6-2.2c-4.1,0.4-8,1.3-11.8,2.6c-4.7,1.6-9,3.9-13.2,6.9c-0.1-3.5,0.2-7.5,1.7-11.4
			c3.6-9.2,29.5-40.2,29.5-40.2s14.4-4.5,41.5,0.3c2.3,0.4,4.6,0.9,7,1.4c31.6,7,56.5,31.3,56.5,31.3
			C831.2,1690.8,821.7,1722.4,823.5,1736.3z"/>
		<path fill="#42350E" d="M829.4,1766.6c0-1.2-0.4-2.3-1.1-3.2c-5-6.6-24.3-31.7-35.8-42.6c-13.3-12.5-40.3-23.2-57.5-23.8
			c-9-0.3-16.9,1.9-22.5,4.1c-5.1,2-8.2,3.9-8.2,3.9s-1-3.6-1.2-8.5c4.1-2.9,8.5-5.2,13.2-6.9c3.8-1.3,7.7-2.2,11.8-2.6
			c7-0.7,14.5,0,22.6,2.2c4.4,1.2,8.8,2.8,13.5,4.9c26.9,12,30.8,14.3,37,21c4.8,5.1,18.2,22.8,24.1,30.7
			C827.3,1754.4,829.8,1760.8,829.4,1766.6z"/>
		<path fill="#6B450E" d="M823.5,1736.3c0.5,3.4,1.1,6.6,1.8,9.5c1.8,2.3,2.9,3.8,2.9,3.8s-0.2-16.6,5-29.3s15.2-20.2,25.5-22.2
			s19.2,3.1,29,3.5c5.7,0.2,13.6-0.6,19.2-1.3l27.6-40.2c0,0-17.8-6.1-41.8-5.8s-40.4,1.5-53.3,23.7
			C831.2,1690.8,821.7,1722.4,823.5,1736.3z"/>
		<path fill="#42350E" d="M887.7,1701.7c-9.8-0.4-18.7-5.5-29-3.5s-20.2,9.4-25.5,22.2s-5,29.3-5,29.3s-1.1-1.5-2.9-3.8
			c2.1,8.8,4.7,15.5,4,21.4c-0.2,2-0.9,5.2-2.3,10.1c-2.7,8.7-3.7,12.7-3.7,12.7c5.2,0.2,7.6-3.2,12.3-11.3s5-11.2,3.8-22.3
			c-1.2-11.2-2.2-34.2,6-40.7s40.6-5.9,54-4.7l7.4-10.7C901.3,1701.1,893.4,1701.9,887.7,1701.7z"/>
		<path opacity="0.3" fill="#091426" enable-background="new    " d="M775.8,1645.3c-7.4,13.6-20.5,36.1-25.1,44
			c-8-2.2-15.6-2.9-22.6-2.2c-4.1,0.4-8,1.3-11.8,2.6c-1,3-2.4,7.1-3.8,11.4c-5.1,2-8.2,3.9-8.2,3.9s-1-3.6-1.2-8.5
			c-0.1-3.5,0.2-7.5,1.7-11.4c3.6-9.2,29.5-40.2,29.5-40.2S748.7,1640.5,775.8,1645.3z"/>
		<path opacity="0.3" fill="#091426" enable-background="new    " d="M934.5,1660.2l-27.7,40.2l-7.3,10.7c-13.4-1.2-45.8-1.8-54,4.7
			s-7.2,29.5-6,40.7s0.9,14.2-3.8,22.3c-4.8,8.1-7.1,11.6-12.3,11.3c0,0,1-4,3.7-12.7c1.5-4.8,2.1-8.1,2.3-10.1
			c0.7-6-1.9-12.6-4.1-21.4c-0.7-2.9-1.3-6-1.8-9.5c-1.8-13.9,7.8-45.5,15.8-58.3c12.9-22.2,29.3-23.4,53.3-23.7
			S934.5,1660.2,934.5,1660.2z"/>
	</g>
	<g>
		<g>
			<path fill="#DFB224" d="M1005.8,1709.6c-4.2,9.4-18.8,27.2-25.1,32c-6.4,4.8-16.7,5.5-27.5,3.3c-10.7-2.3-37.7-18.8-47-24.4
				s-12.2-14.9-9.6-26.4c2.6-11.6,15.4-27,22.1-32.8c1.8-1.5,3.7-2.8,5.6-3.6c5.2-2.5,10.4-2.4,12.2,0.5
				c2.4,3.9-29.9,44.4-29.9,44.4s-2.7,2.7,0.4,4.8c3.1,2.1,14.6,8.5,29.4,15.1c14.8,6.6,20.3,11.9,27.8,10l11.3-24.2l1.8-3.9
				l13.6-28.9c11.5,6.4,16.3,9.1,18.8,13.5c0.2,0.4,0.4,0.8,0.6,1.2C1012.4,1695.1,1009.9,1700.2,1005.8,1709.6z"/>
		</g>
		<path fill="#A2A62E" d="M896.5,1694.1c-2.6,11.6,0.3,20.8,9.6,26.4s36.2,22.1,47,24.4s21.1,1.6,27.5-3.2s20.9-22.6,25.1-32
			s6.6-14.5,4.4-19.6c-0.2-0.4-0.4-0.8-0.6-1.2c-0.2,4.2-2.3,9-5.9,14.9c-5.8,9.6-17.2,27.9-25.1,32.4s-24.5,0.9-35.6-4.2
			s-39.8-19.8-42.9-23s-0.9-14.3,6.4-27.2c4.9-8.7,13-18.5,17.8-24.1c-1.9,0.9-3.8,2.1-5.6,3.6
			C911.9,1667.1,899.1,1682.5,896.5,1694.1z"/>
		<path fill="#A2A62E" d="M994,1711.1c0.1-2.4,0.3-1.1-5-4s-5-1.6,4.3-11.8l-5.9-3.9l-10.2,12.9l-1.8,3.9l13.6,4.8
			C992.1,1715,993.9,1713.6,994,1711.1z"/>
		<g>
			<g>
				<path fill="#4C320A" d="M997.7,1699.1c0,0-4.1-2-5.8-2.9c-1.8-0.8-2.4,1-5.4,4.8c-3.1,3.7-5.4,5.8-3.5,7.6
					c1.9,1.8,6.1,4.5,6.1,4.5s-5.2,8.1-10.2,13.2c-0.9,0.9-1.9,1.6-3,2.3c-5.1,3.1-11.8,3.9-11.8,3.9s2.6-4.9-12.9-14
					c-15.5-9-36.9-15.9-41.1-14.8c-4,1-3.2,3.5-3.1,3.7c-2.1-1.6-4.8-1.4-1.5-9.8c0.6-1.6,1.4-3.4,2.5-5.7
					c6.8-14.2,20.1-31.6,27.8-34.9s21.7-6.2,33.7-0.7c1.5,0.7,3.1,1.6,4.7,2.6c7.7,5,15.7,13.1,20.8,19.4c2.1,2.6,3.8,4.8,4.7,6.4
					C1003,1690.6,997.7,1699.1,997.7,1699.1z"/>
			</g>
			<path fill="#6B450E" d="M953,1705.2c4.3,2.8,9.7,8.1,14.2,13.2c4.4-4.9,15.1-17.4,20.1-26.9c2.7-5.2,5.4-9.7,7.5-13.2
				c-5.1-6.2-13.2-14.4-20.8-19.4c-12.6,15.7-27,34.4-32.1,41C946.4,1701.5,950.1,1703.3,953,1705.2z"/>
			<path fill="#42350E" d="M964,1732.4c0,0,2.6-4.9-12.9-14c-15.5-9-36.9-15.9-41.1-14.8c-4,1-3.2,3.5-3.1,3.7
				c-2.1-1.6-4.8-1.4-1.5-9.8c14.9-2.3,27.3-0.6,36.6,2.5c4.5,1.5,8.2,3.3,11.1,5.2c4.3,2.8,9.7,8.1,14.2,13.2
				c3.6,4,6.8,7.8,8.6,10.1C970.7,1731.6,964,1732.4,964,1732.4z"/>
			<path fill="#42350E" d="M980,1690.9c0,5-3.4,8.6-8.5,8.6s-9.3-4-9.3-9s2.4-9,7.6-9S980,1685.9,980,1690.9z"/>
			<path fill="#888888" d="M976.1,1692.1c0-3.4-3.1-6.1-6.8-6.1c-2,0-3.9,0.8-5.1,2.1c5.3,2.7,9,4.7,11.6,6
				C975.9,1693.4,976.1,1692.8,976.1,1692.1z"/>
			<path fill="#F7977A" d="M962.4,1692.1c0,3.4,3.1,6.1,6.8,6.1c3,0,5.5-1.7,6.4-4.1c-2.5-1.3-6.3-3.3-11.6-6
				C963.1,1689.2,962.4,1690.6,962.4,1692.1z"/>
			<path fill="#2F260A" d="M948.1,1677.1c1.7-4.2,2-8.2-2.4-10.1s-7.1-1.1-10.5,1.4s-5.6,4.2-4.7,7.7s3.7,5.7,9.9,5.6
				C946.6,1681.5,948.1,1677.1,948.1,1677.1z"/>
			<g>
				<path fill="#606265" d="M946.8,1677.1c0-2.5-3.1-4.6-7-4.6c-3.5,0-6.4,1.7-6.9,3.9c5,1.5,9.4,2.8,12.1,3.7
					C946.1,1679.3,946.8,1678.3,946.8,1677.1z"/>
				<path fill="#AF6D5B" d="M939.8,1681.7c2.1,0,3.9-0.6,5.2-1.5c-2.7-0.8-7.1-2.2-12.1-3.7c0,0.2-0.1,0.4-0.1,0.6
					C932.9,1679.6,936,1681.7,939.8,1681.7z"/>
			</g>
		</g>
	</g>
	<g>
		<g>
			<path fill="#A3A72E" d="M1266.5,1647.6c-3.4-4.9-9-11.4-17.2-18.4l10.6,18.8C1262.6,1647.6,1264.8,1647.5,1266.5,1647.6z"/>
			<path fill="#42350E" d="M1270.8,1655.9c-0.2-1.5-1.6-4.4-4.3-8.3c-1.8-0.1-4,0-6.5,0.4l6.4,11.2
				C1266.4,1659.2,1271.2,1659.3,1270.8,1655.9z"/>
		</g>
		<g>
			<path fill="#F4C628" d="M1257.7,1651.6c4.6,5,4.4,14.4,11,11.7c-0.2-2.3-1.8-6.1-5.3-13.6c-5.7-12.1-14.6-27.6-23.8-37.8
				c-6.9-7.6-10.1-11.2-12.2-12.6c0.2,2.5,1.6,3.8,9.4,20.3C1246.6,1640.4,1252.7,1646.3,1257.7,1651.6z"/>
			<path fill="#A3A72E" d="M1213.3,1602.6c-0.4,1.4-0.4,1.4-0.4,1.4c14,12.2,14.7,13,24.4,29.5c9.7,16.5,15.7,23.4,20.5,29.2
				c4.8,5.9,8,5.3,9.9,3.5c0.8-0.7,1.1-1.5,1-2.9c-6.6,2.7-6.4-6.7-11-11.7c-4.9-5.3-11-11.2-20.9-31.9c-7.9-16.5-9.2-17.8-9.4-20.3
				c-0.7-0.5-1.2-0.7-1.8-0.8C1223.4,1598.1,1213.7,1601.2,1213.3,1602.6z"/>
		</g>
	</g>
</g>
</svg>
