<?xml version="1.0" encoding="utf-8"?>
<!-- Generator: Adobe Illustrator 21.0.2, SVG Export Plug-In . SVG Version: 6.00 Build 0)  -->
<svg version="1.1" id="_x31_2_x5F_Footwear_x5F_Scuba_x5F_Flippers__x28_SCU_x29_"
	 xmlns="http://www.w3.org/2000/svg" xmlns:xlink="http://www.w3.org/1999/xlink" x="0px" y="0px" viewBox="0 0 2000 2000"
	 enable-background="new 0 0 2000 2000" xml:space="preserve">
<g>
	<g id="Layer_22">
		<polygon fill="#5CDFF2" points="693.7,1792.6 686.3,1755 853.2,1708 861.9,1771.1 739.6,1810.4 		"/>
	</g>
	<g id="Layer_23" opacity="0.3">
		<path fill="#091426" d="M864.7,1730.1c-3.6,0.2-14.3-2.1-17.3-0.7c-23.1,10.9-47.4,19.7-71,30.6c-22.6,10.4-47.6,20.3-70.2,30.7
			c-19.2,8.8-37.8,19.7-52.5,35c-5.3,5.6-10.7,15-7.5,22.8c2.9,7.2,11.3,10.9,17.9,13.8c78.6,33.3,161.7,48.1,245.6,61.2
			c17.4,2.7,35,5.3,52.7,4.5c13.4-51.3,27.1-102.4,40.7-153.7c1.3-4.8,2.6-9.7,3.9-14.5C1006.8,1759.9,884.6,1728.8,864.7,1730.1z"
			/>
		<path fill="#091426" d="M561.6,1713c-4.2-1.9-8.3,30.7-8.3,33.3c-0.3,38.1,25,63.9,51.6,87.7c11.9-22.5,23.2-45.3,34-68.3
			c-12.7-8.7-25.5-17.5-38.2-26.2C588.3,1730.9,575.3,1719.2,561.6,1713z"/>
		<path fill="#091426" d="M1038.3,1735.5c1.9,3.2,10,5.1,13.4,6.5c73.9,30.6,151.1,49,228.5,67.9c10.9,2.7,22,5.3,33.1,4.4
			c16.3-1.3,27.4-12.2,37.4-24c13.3-15.8,25.5-30.2,27.7-51.3l-22.2-40.7l-291.5-15.2c-4.8,9.1-9.6,18.3-14.4,27.4
			c-3.2,6.1-6.5,12.1-9.6,18.3c-0.5,1.1-3,4.3-2.9,5.4C1037.9,1734.7,1038.1,1735.1,1038.3,1735.5z"/>
	</g>
	<g>
		<path fill="#371A54" d="M1408.4,1661.1c0,0-5,22.2-5.6,22s-4.5-2-14,9.7c-9.5,11.6-3.3,11.5-6.8,26.4
			c-3.6,14.9-0.3,26.5-17.4,37.4s-27.6,17.4-32.9,31.2c-5.3,13.9-1.9,22.4-6.8,23.8c-3.7,1-6.7-1.2-25.8-10.7
			c-0.3-0.2-0.7-0.3-1-0.5c-6.7-3.3-15.4-7.5-26.6-12.7c-44.7-20.6-119.4-45.3-210.3-71.2c0,0-4.5,0.9-8.9-0.3
			c-4.4-1.3-5.6-6.5-5.6-6.5l6.9-44.1l19.1-11.8l224,15.2c0,0,27.8,1.6,59.3-2.2c5.6-0.7,10.9-1.3,15.8-1.9c0.2,0,0.4-0.1,0.6-0.1
			C1394.5,1662.6,1408.4,1661.1,1408.4,1661.1z"/>
	</g>
	<path fill="#76D53D" d="M1324.9,1811.7c5-1.4,1.5-9.9,6.8-23.8s15.8-20.3,32.9-31.2c17.1-10.9,13.8-22.5,17.4-37.4
		s-2.6-14.8,6.8-26.4c9.5-11.7,13.3-9.8,14-9.7c0.6,0.2,5.6-22,5.6-22s-13.9,1.4-36,4c-5.3,8.4-35.2,12.2-35.2,12.2
		c4.6,2.4,3.9,8.9,3.9,8.9c8.3,2.8,15.6,10,6.1,22s-30.9,11.9-30.9,11.9c-13.4,10.6-35.7,10.1-35.7,10.1s17.2,16.7,21.3,29.3
		c4.1,12.6-2.8,20.5-2.8,20.5s0,13,0,21C1318.2,1810.5,1321.2,1812.8,1324.9,1811.7z"/>
	<g>
		<g>
			<path fill="#371A54" d="M885.7,1673.9l-23.6,56.2c-52.5,10.4-85.4,17.5-121.5,33.5s-81.3,33.8-100,46.8c-0.2,0.2-0.4,0.3-0.7,0.4
				c-18.4,12.8-32.1,22.6-34.8,23.2c-2.8,0.7-3.1-5-4.8-21.3s-7.7-37.3-18.2-47s-22.4-14.2-22.4-14.2l-6.9-23.6c0,0,3.2-7.5,0-12.8
				c-3.2-5.2-7.2-8.8-7.2-8.8s-4.1-20.7,0-20.9c3.1-0.1,15,2,36.4,2.4c7.5,0.2,16.1,0.1,25.9-0.3c38-1.6,58.4-0.5,83.5-14
				c0,0,16.6,43.6,51.6,47.8c35,4.2,54.8,2.2,90.2-19.1C868,1681.4,885.1,1674.1,885.7,1673.9z"/>
		</g>
		<path fill="#76D53D" d="M662.2,1753.9c0,0-9,1.2-23.2-2.7c-14.2-3.8-15-10.6-15-10.6s-12.3,1.2-18.8-1.7s-12.3-8.7-7.1-20
			c5.2-11.2,9.6-8.5,9.6-8.5c-0.8-4.5,4.8-8.2,4.8-8.2s-7.7,2.6-19-1.2c-8.5-2.8-13.2-6.7-11.5-13.2c-21.5-0.4-33.3-2.6-36.4-2.4
			c-0.5,0-0.9,0.4-1.2,0.9c-2,4,1.2,20,1.2,20s4,3.5,7.2,8.8c0.3,0.4,0.4,0.8,0.6,1.3c2.1,5.1-0.6,11.5-0.6,11.5l1.6,5.3l5.4,18.2
			c0,0,11.9,4.5,22.4,14.2c1.3,1.2,2.6,2.6,3.8,4.2c8.2,10.8,13,28.6,14.5,42.9c1.7,16.3,2.1,22,4.8,21.3s16.4-10.4,34.8-23.2
			c-7.6-4-10.6-14.2-0.7-30.5C650,1762.6,662.2,1753.9,662.2,1753.9z"/>
	</g>
	<g>
		<path fill="#371A54" d="M1046.9,1745.2c-7.9,7.9-12.9,6.3-18.5,17.9c-5.6,11.7-27.7,54.6-42.7,98.1c-5.5,16-9.8,29.1-13.1,39.3
			c-5.7,17.5-8.5,26.6-10.4,27.4c-3,1.4-16.8-14.5-37.2-23.5s-46.6-25.1-75.5-20.5s-45.8,4.5-58.9-0.5c-13.2-5-21.4-17.5-37.3-22.5
			s-33-7.6-58-6.8s-34.8,4.5-37.8,4.8s-1.7-30.7-1.7-30.7s9.5-1.5,62.4-23.7c5.3-2.2,11.1-4.7,17.3-7.3
			c68.2-29.2,95.2-45.3,95.2-45.3l199.7-45l21.8,9.4C1054.9,1729.8,1054.9,1737.4,1046.9,1745.2z"/>
	</g>
	<path fill="#76D53D" d="M949.2,1802.4c0,0-11.4,8.8-27.1,15.1s-34.1,6.6-34.1,6.6c-4.7,6.1-21.1,18.8-48.4,16.4
		s-40.5-14.8-43.4-25.8s5.7-19.8,5.7-19.8c-5.9-3-4.5-10.9-4.5-10.9c-6.1,7.1-39.7,22.3-59.3,23.3c-13,0.7-18.5,0.3-19.9-2.8
		c-53,22.2-62.4,23.7-62.4,23.7s-1.3,30.9,1.7,30.7s12.8-3.9,37.8-4.8s42.1,1.8,58,6.8s24.1,17.5,37.3,22.5s30.1,5.1,58.9,0.5
		s55,11.5,75.5,20.5s34.2,24.9,37.2,23.5c1.9-0.9,4.8-9.9,10.4-27.4l-2.4-43.1C943.6,1836,949.2,1802.4,949.2,1802.4z"/>
	<g>
		<path fill="#888888" d="M1308,1678.9c-4.5,14.5-3.1,24.1-39.2,34.6c-36.1,10.4-69.2-4.3-112.2-16.7s-80-37.4-80-37.4
			c-7.9,4.1-16.9,7.4-16.9,7.4s0.5,1.3,0.9,3.6c0.4,2.5,0.7,6.2,0.1,10.9c-1.1,9.1-1.3,9.9-4.9,15.5c-3.6,5.5-1.3,15.2,0,17.2
			s5.3,2.7,5.3,2.7s-0.4,2.6-9.4,5.4s-21.9-8.3-21.9-8.3c-0.8,1.1-1.6,2.3-2.5,3.4c-15,20.7-37.5,45.4-70.8,67.6
			c-35.1,23.5-74.5,22.5-102.2,19.2c-27.8-3.3-39.3-18.3-37.3-31.8s8.1-30.4,39-42.8l157.5-42.5c0,0,12.4,16.7,24.6,1.5
			c12.2-15.3,8.4-23.6,8.5-30.8c0-7.2,3.5-11.3,3.5-11.3l7.6,4.8c14.2-7.6,18.9-16.6,18.9-16.6s147.6,9.7,177.6,8.6
			c30.1-1.1,37.4,14.1,41.4,17.4C1299.6,1663.9,1312.5,1664.4,1308,1678.9z"/>
	</g>
	<path fill="#888888" d="M738.6,1647.2c-40.4,9.8-52.6,27.2-60.1,36.9c-7.5,9.7-10.9,34.9,22.8,46.1s80.9,8,113.8-8.7
		s54.2-31.1,54.2-31.1l16.4-28.6l-10.4-5.4L738.6,1647.2z"/>
	<path fill="#371A54" d="M1221.5,1683.2c0,0,18.1-12.4,25.7-19.6s11.3-16.8,11.3-16.8l2-13l-22-7.5l2.5-8l-86.1-39
		c-4-0.2-5.1,0.7-6,5.4l-14,7.6c0,0-6-3.4-9.9-4.2c-3.9-0.8-6.3,2.7-6,9.5c0,0-17.9,3.2-26.1,3.7s-8.7-0.4-10.1,6s-7,30.4-7,30.4
		s57.6,17.4,81.9,24s49.9,13.7,54.7,15.5S1221.5,1683.2,1221.5,1683.2z"/>
	<path fill="#371A54" d="M935,1765.7c39.7-32.4,83.5-70.8,83.5-70.8l-4.1-45.4c0,0-18.5-2-47.9-4.6s-64.6-16.6-66.3-16.8
		s-0.2-2.9-17.8,28.4c-17.5,31.3-40.4,70.9-43.1,75.2c-2.6,4.3-0.8,14.6-0.9,15.7c-0.1,1.1,27.7,8.8,44.7,14.1
		S935,1765.7,935,1765.7z"/>
	<path fill="#371A54" d="M708,1676.2c-0.2-6.1-0.8-11.1,0.8-12.9c1.5-1.8,93.4-69.1,101.1-73.7s7.7-3.4,10.6-2.5
		c2.9,0.8,5,1.9,5.3,4.8s0,6.7,0,6.7l12.3,8.4c0,0,2.7-4.2,5.6-4.7c2.9-0.5,4.3,0.1,9.2,2.8c4.9,2.8,6.2,2.2,5.9,5.5
		s0.1,5.6,0.1,5.6s18.5,4.1,22.2,5.3c3.7,1.2,2.8,3.6,2.3,14.4c-0.4,10.8-0.7,24.5-0.7,24.5s-27.5,21.9-59.4,34.5
		c-31.9,12.5-34.8,15.7-41.8,16.6s-25-5.1-42.8-13C720.9,1690.5,708,1676.2,708,1676.2z"/>
	<g opacity="0.3">
		<path fill="#091426" d="M684.4,1676.7c-0.1,0.1-0.1,0.3-0.2,0.5c-0.1,0-0.2,0.1-0.4,0.2C684.1,1677.1,684.3,1676.9,684.4,1676.7z"
			/>
		<path fill="#091426" d="M926.4,1730.9c0.7,1.1,4.5,1.5,6.2,1.8c1.8,0.3,4-3.2,7.5-9.1s20.2-29.8,29-41.9
			c8.8-12.2,9.6-13.6,10.3-15.7s-0.2-6.7-0.6-8.2c-0.3-1.5-5-2.2-7.8-2.9c-4.8-1.2-6.1-1.8-7.5-1.2s-6.2,11.6-11.4,19.2
			s-12,25.1-19.8,36.3s-7.4,12.6-7.8,14.4C924.2,1725.6,925.7,1729.8,926.4,1730.9z M936,1706.8c5.6-9.8,16.9-30.6,21.7-39.2
			s6.8-11.7,6.8-11.7c5.7,1,10,2,9.9,3.1s-3.8,9.7-11.8,19.5s-14.7,22.1-22.2,32.2c-7.6,10.1-6.9,12.8-8.8,12.8
			c-1.9,0-3.6,0-4.1-0.8S930.4,1716.6,936,1706.8z"/>
		<path fill="#091426" d="M885.2,1724.9c0.2,0.7,8.1,1.3,10.2,1.7c2,0.4,2.8-3.1,9.9-20.9c7.1-17.8,18.6-44.2,19.5-48
			s1.6-2.2,0.9-3.8c-1.9-4-1.3-5.8-2.8-6.3s-10.6-0.8-10.6-0.8c-1.8,0-1.2,2-9.3,20.1s-10.4,24.3-13.9,34.2
			c-3.5,9.9-5.2,16-5.5,17.2C883.3,1719.5,885,1724.2,885.2,1724.9z M895.3,1690.6c3.9-10.6,14.4-35.4,15.7-37.8
			c1.2-2.3,0.7-3.7,1.7-3.7c2.7,0.1,7.5,0.3,8.6,0.6c1.1,0.3-1.2,6.1-5.4,14.9s-11.8,29.4-15.8,39.4c-4.1,10-5.2,13.9-6.1,14.7
			c-0.9,0.8-6.9-1.3-7.6-1.5C885.6,1717.1,891.4,1701.2,895.3,1690.6z"/>
		<path fill="#091426" d="M1396.4,1671.2c-8.8,9.4-12.7,21-11.9,28.2c0.8-1.8,2.2-3.8,4.4-6.5c9.5-11.7,13.3-9.8,14-9.7
			c0.6,0.2,4.7-18.1,5.5-21.5C1405.5,1663.1,1401.3,1665.9,1396.4,1671.2z"/>
		<path fill="#091426" d="M960.4,1875.1c0.6,18.7-1.7,37.5-1.7,37.5l-2.1-34.3c0,0-10-11.2-53.6-19.6c-43.6-8.3-54.2-1.8-81.2-0.2
			c-27,1.7-48.7-10.3-70.2-23.5c-17.8-11-49.8-17.7-81.3-11.3c-11.6,4.2-14.5,4.6-14.5,4.6s-1.3,30.9,1.7,30.7s12.8-3.9,37.8-4.8
			s42.1,1.8,58,6.8s24.1,17.5,37.3,22.5s30.1,5.1,58.9,0.5s55,11.5,75.5,20.5s34.2,24.9,37.2,23.5c1.9-0.9,4.8-9.9,10.4-27.4
			c3.3-10.2,7.5-23.3,13.1-39.3c12.9-37.5,31.2-74.6,39.5-91.5c-10.6,11-24.8,32.9-36.6,55.2
			C974.2,1852.2,960.4,1875.1,960.4,1875.1z"/>
		<path fill="#091426" d="M739.5,1662.4c3.4,1.2,11.8,2,11.8,2s20.2-19.9,37.5-33.9s35.6-27.8,35.6-27.8l10.9,6.5
			c0,0-10.8,9.6-31.2,29.2s-31.9,28.8-31.8,30.8s1.5,9.2,2.9,9.8c1.4,0.6,6.2,1.9,7.4,1.3s12.2-10.4,25.4-20.6
			c11.8-9.2,30.3-23.8,54.1-42.7c-2-0.4-3.2-0.7-3.2-0.7s-0.4-2.3-0.1-5.6c0.3-2.9-0.6-2.9-4.1-4.6c-0.4,3.3-2.6,5.9-11.1,12.9
			c-10,8.1-33.6,25.4-45.6,36.1s-14.3,14.1-16.3,14s-2.8-0.8-5.5-1.3c-2.6-0.5-0.3-1.3,4.2-5.3s44.8-39.9,55.8-51
			c3.8-3.9,6.5-6.9,8.5-9.3c-0.3,0-0.6,0.1-0.9,0.1c-2.9,0.5-5.6,4.7-5.6,4.7l-12.3-8.3c0,0,0.3-3.8,0-6.7c-0.1-1.5-0.8-2.5-1.8-3.3
			c-2.9,3.7-8.3,10.1-13.9,14.1c-8.4,6.1-27.2,18.8-38.8,29.8s-18.1,19.4-19.8,19.3s-8.1-1.1-9.8-1.9c-1.8-0.7-0.1-1.1,11.1-15.3
			c3-3.8,6.7-7.8,10.5-11.7c-2.5,1.8-4.9,3.6-7.4,5.4c-9,10.4-18.7,21.9-19,23.6C736.3,1654.9,736.1,1661.2,739.5,1662.4z"/>
		<path fill="#091426" d="M1336.8,1761.4c-10.4,15-9.7,20.9-9.8,26.9c-0.1,5.9,0.7,3.7,1.2,8.8c0.6,5.1-1.2,9.4-1.2,9.4l-2.4-15.1
			c0,0-13.3-7.5-31.9-13.9s-32.8-12.6-60.6-20.8c-27.9-8.1-59.6-21.5-98.8-28.3c-39.1-6.8-51.5-7.2-68.9-12.1
			c-4.4-1.3-7.4-2.6-9.4-4c0.2,0.8,0.5,1.4,0.7,1.8c1.3,2,5.3,2.7,5.3,2.7c91,25.9,165.6,50.6,210.3,71.2
			c11.2,5.2,19.9,9.3,26.6,12.7c0.3,0.2,0.7,0.3,1,0.5c19.1,9.5,22.1,11.7,25.8,10.7c5-1.4,1.5-9.9,6.8-23.8s15.8-20.3,32.9-31.2
			c13.5-8.6,14.3-17.7,15.8-28.5C1353.6,1737.6,1346.9,1746.7,1336.8,1761.4z"/>
		<path fill="#091426" d="M1311.2,1673.7c-0.1-1.6-0.2-2.9-0.5-4.1c-0.9,0-1.8,0-2.6,0c-0.8-2-2.3-3.4-4.1-4.6
			c-0.6-0.4-1.3-0.8-2-1.1c-1.2-0.6-2.5-1.1-3.6-1.6c-0.3-0.1-0.5-0.2-0.8-0.4c-0.8-0.4-1.6-0.8-2.1-1.3
			c-3.8-3.2-10.6-16.9-36.6-17.5l1.4-9.3l-1-0.3c-5.6,4.3-17.5,13.6-25.1,21c-10.2,9.9-10.1,11.5-11.7,10.9
			c-1.7-0.6-18.2-6.7-30-12.5s-35.3-16-49.4-23.8s-41.2-22.2-41.2-22.2s20.7-4.2,22.2-3.6s17.6,10.5,37.4,20.1s45.1,22.9,46.1,21.9
			s5.5-3.1,6.2-6c0.8-2.9,0.4-5.9-2.6-7.5s-26.2-15.9-42.4-23.5c-16.1-7.6-29-13.4-29-13.4s10.6-3.4,12.2-3c1.7,0.4,8.4,3.9,19.5,10
			s45.6,24.4,52.1,26.6s6.9,3.1,10.5,1.4c1.5-0.7,3.4-2,5.1-3.2l-1-0.3l2.1-6.7c-9.8,5.8-8.6,4.1-10.3,3.1
			c-1.9-1.1-54.4-26.1-65.9-31.5c-8.1-3.8-12.8-6.7-14.7-9.4c-0.3,0.8-0.5,1.7-0.8,2.9l-14,7.6c0,0-6-3.4-9.9-4.2
			c-1.4-0.3-2.6,0-3.5,0.8c6.9,3.3,19.8,9.4,33.8,15.5c20.5,9,43.4,22.2,49.9,26.6c6.4,4.4,6.6,3,4.8,4.9c-1.8,1.9-4,0.3-12.6-3.8
			c-8.6-4.1-36.7-19.4-53.9-26.9c-10.4-4.5-18.1-8.9-24.2-11.5c-0.2,1.1-0.2,2.4-0.2,3.8c0,0-17.9,3.2-26.1,3.7s-8.7-0.4-10.1,6
			c-1.1,4.9-4.6,20.4-6.2,27.2l0,0c-0.3,0.6-5.1,9.2-18.9,16.6l-7.6-4.8c0,0-3.4,4.2-3.5,11.3c-0.1,7.2,3.8,15.5-8.5,30.8
			c-7.6,9.5-15.2,6.6-19.9,3.1l0,0l-3.8-42c0,0-18.5-2-47.9-4.6s-64.6-16.6-66.3-16.8c-1.7-0.2-0.2-2.9-17.7,28.2
			c0.1-4.9,0.3-13.2,0.6-20.3c0.4-10.8,1.3-13.2-2.3-14.4c-0.2-0.1-0.4-0.1-0.7-0.2c-6.6,5.6-17.9,15.4-25.1,22.3
			c-10.6,10.2-24.2,22.4-42.8,38c-18.5,15.6-27.9,20.4-27.9,20.4c-7.6-5.3-25.8-11-43.2-17.7c-14.1-5.4-26.9-15.6-31.3-19.3
			c0.4-1.8,1.5-3.4,2.9-4.5l11.7-9.1c-0.5,0.1-7.8,2.4-12,4.8c-14.3,6.6-22.6,14.2-28.2,20.7c-0.1,0.1-0.1,0.3-0.2,0.5
			c-0.1,0-0.2,0.1-0.4,0.2c-2.1,2.5-3.9,4.8-5.4,6.8c-7.5,9.6-10.9,34.9,22.8,46.1c30,10,70.9,8.5,102.7-3.8c4.4-1.2,6-1.9,6-1.9
			l-4.5,10.2c0,0-14.9,3.7-71,20.6s-74,31.1-96.5,39.4c-22.5,8.2-32.2,17.3-32.2,17.3s-0.4-1.5-3.6-9c-2.2-5.2-5.9-12.7-8-16.7
			c3.2,8.7,5.2,18.3,6.1,26.7c1.7,16.3,2.1,22,4.8,21.3s16.4-10.4,34.8-23.2c0.2-0.1,0.4-0.3,0.7-0.4c18.7-13,64-30.8,100-46.8
			c30.3-13.4,58.4-20.6,97.8-28.7c-0.2,1.2-0.3,2.6-0.3,4l0,0c-8.4,5.8-13.3,12-16.4,18.2c-3,1.6-6.8,3.6-11.4,5.9
			c5,15.2,7.6,42.8,52.8,46.5c48.7,4,69.8-7.1,101.2-25c31.5-17.9,39-35,50.4-47.4c8.7-9.5,13.7-18.8,16.4-22.2
			c3.2,2.5,12.5,9.1,19.8,7.6c0.4,0.3,0.9,0.6,1.3,0.8c0.5,0.3,1,0.7,1.4,1c-0.1-0.8-0.2-1.6-0.3-2.5c0.1,0,0.1-0.1,0.2-0.1
			c0.2-0.1,0.5-0.2,0.7-0.3c0.4-0.1,0.7-0.3,1-0.4s0.6-0.2,0.8-0.3c0.4-0.2,0.7-0.3,1.1-0.5s0.7-0.4,1-0.5c0.1-0.1,0.2-0.1,0.3-0.2
			c0.1-0.1,0.2-0.2,0.4-0.2c2.3-1.4,2.5-2.4,2.5-2.4s-4.1-0.6-5.3-2.7c-0.2-0.4-0.5-1-0.7-1.8l0,0c-1.2-3.6-2.2-10.9,0.8-15.4
			c3.6-5.5,3.7-6.4,4.9-15.5c0.5-3.5,0.4-6.5,0.2-8.9l16.5-6c0,0,26.2,15.2,46.4,23.1c20.2,7.9,52.6,26.4,102.2,32.2
			c49.6,5.8,61.8-4.2,73.4-15.2C1311,1695.6,1311.6,1685,1311.2,1673.7z M849,1732.7c3.2-4.8,10.5-15.9,15.8-26.9
			c2.7-5.6,8.2-16.8,13.9-28.7c9.5-19.4,19.7-40.4,19.7-40.4c3.2-6.1,6.1-5.3,9.9-4.1c3.8,1.2,19.6,9.2,37,12.9
			c17.4,3.6,56.7,8,59.9,8.4s1.4,3.6-3.5,9.1c-4.8,5.6-15.7,21-31.9,41.6s-30.3,41.9-32.6,44.6c-2.3,2.6-3.2,3-13.8,1
			c-10.6-1.9-40.3-6.2-55.1-10.4c-14.8-4.1-21-4.6-21-4.6S848,1734.3,849,1732.7z M794,1725.4c-25,5.5-76.2,3.3-90.1-2.6
			c-13.9-5.8-20.3-17-21.2-26.7c-0.7-8.1,3.5-12.9,10.2-18.8c1.4-1.2,2.8-2.4,4.4-3.8c0,0,4.6,7.5,20.8,17.4s36.5,16.4,46.7,20.5
			s15.5,6.5,23.1,3.4c7.6-3.2,33.4-12.4,44.7-18.7c11.4-6.2,14.4-8.8,14.4-8.8c-0.8,2.7-1.9,5.8-3.1,8.7c-2,4.6-4.1,8.7-5.5,9.8
			C836.2,1707.6,819,1719.9,794,1725.4z M1045.6,1706.9c-4.6,4.8-5.8,3.2-9.2,2.3c-3.4-0.9-7.1,0.4-10.1,0.5s-1.9,0.4-7.8,9.2
			c-5.9,8.9-21.6,26.8-45.4,44.8c-23.8,18-29.5,24.8-50.3,30.3c-20.8,5.6-47.5,4.4-69.8,0.4c-22.2-4.1-27.1-9.9-27.4-21.4
			s10.1-19,10.1-19s14.3,3.8,34.9,7.6c20.6,3.8,50.8,6.1,59.2,7.6s9.9,0.2,24-13.1c14.1-13.3,33.8-27.1,49.1-41.2
			c15.2-14,18-18.6,18-18.6s6.2,5.4,18.5-2.5c12.4-7.9,12.1-19.8,12.1-19.8s2.4,6.7-0.9,16.5
			C1047.6,1700.6,1050.2,1702.1,1045.6,1706.9z M1303.6,1676c-1.5,5.1-4.9,13.5-16.6,21.6s-36.2,15.5-57.5,11.1s-56.5-13-97.1-28.8
			s-52.8-24.4-58.6-25.8c-5.8-1.4-6.7,2.3-8,2.8c-1.3,0.4-2.4-2.8-0.9-5c1.6-2.2,10.6-10.9,12.6-10.8c2.1,0.1,11.4,4.1,22.6,8.1
			c11.2,4.1,46.4,14.8,74.6,23.1c28.2,8.3,40.9,12.6,43.8,13.1s12.1-1.5,26-12.1s21.4-22.8,21.4-22.8s3.6,0.5,14.2,3.5
			s18,9.2,18,9.2c1.5,1.2,3.9,1.1,5.1,3.9c0,0,0,0,0,0.1C1304.1,1669.4,1304.6,1672.6,1303.6,1676z"/>
	</g>
	<path opacity="0.3" fill="#091426" enable-background="new    " d="M545.6,1706.5c0,0,4,3.5,7.2,8.8c0.3,0.4,0.4,0.8,0.6,1.3
		c0.2-3.5,0.4-6.9,0.2-8.8c-0.4-4.3-2.2-11.6-9.2-21.3C542.4,1690.5,545.6,1706.5,545.6,1706.5z"/>
	<path opacity="0.3" fill="#091426" enable-background="new    " d="M560.5,1739c-3-2.2-4.9-4.1-6.2-5.6l5.4,18.2
		c0,0,11.9,4.5,22.4,14.2c1.3,1.2,2.6,2.6,3.8,4.2c-1.8-4.2-3.6-7.9-5-10.2C575.9,1751.9,571,1746.7,560.5,1739z"/>
</g>
</svg>
