<?xml version="1.0" encoding="utf-8"?>
<!-- Generator: Adobe Illustrator 21.0.2, SVG Export Plug-In . SVG Version: 6.00 Build 0)  -->
<svg version="1.1" id="_x31_6_x5F_Footwear_x5F_Combat_x5F_Boots_x5F_Main_Asset"
	 xmlns="http://www.w3.org/2000/svg" xmlns:xlink="http://www.w3.org/1999/xlink" x="0px" y="0px" viewBox="0 0 2000 2000"
	 enable-background="new 0 0 2000 2000" xml:space="preserve">
<g>
	<path opacity="0.3" fill="#091426" enable-background="new    " d="M694.5,1721.8c-33.8,9.5-51,29.3-54.3,40.2
		c-3.3,10.9,7.9,36.7,41.5,48.4s100,5.1,100,5.1s9.6,10.4,29.5,16c0,0,19.3,19.3,57.8,22s80-2.4,115.4-23.3s54.8-46.9,65.7-64.5
		c10.9-17.6,17.4-24.4,32.5-22.8c15.2,1.6,59.1,10,130.3,13c71.2,3,91.7-0.6,107.3-12.1c15.6-11.4-1.1-18.7-1.1-18.7L694.5,1721.8z"
		/>
	<polygon fill="none" points="813.5,1803.4 813.8,1812.5 816.7,1800.4 816.7,1800.4 816.6,1795.6 	"/>
	<g>
		<path fill="#2C2F37" d="M686.2,1756.9c-10.5,6.4-14.1,12.1-14.9,16c-0.8,3.9,7.4,26.8,7.4,26.8s8.9,10.2,43.7,11.6
			s55.7,1.7,73.5-5.9s23.7-12.4,23.7-12.4l-3.1-19.2L686.2,1756.9z"/>
		<path opacity="0.3" fill="#091426" enable-background="new    " d="M686.2,1756.9c-3.3,2-6,4-8,5.9c2.6,7.8,7.4,16.4,18.7,19.9
			c14.8,4.5,53.7,7.8,53.7,7.8v18.1c0,0-38.5-3-55.2-5.9c-16.6-3-12.5,0.6-16.3-11.6c-2.4-7.8-4.7-16.8-6.1-22.2
			c-0.9,1.5-1.4,2.9-1.6,4c-0.8,3.9,7.4,26.8,7.4,26.8s8.9,10.2,43.7,11.6s55.7,1.7,73.5-5.9c17.7-7.6,23.7-12.4,23.7-12.4
			l-3.1-19.2L686.2,1756.9z"/>
	</g>
	<path fill="#50321D" d="M1321.8,1716.6c-2.1-4.1-10.8-5.1-10.9-5.1l0,0c0,0,2.4-12.4,1.1-24.9c-1.4-12.4-5.7-30.1-19.7-42.8
		c-14.1-12.7-27.4-22.8-39.3-29.4c-12-6.6-28.8-13-28.8-13s-4.1,2.5-6,3.9c0,0-33.8-13.3-46.8-18.3c0,0-1.3-10.2,1.2-27.9
		c2.5-17.6,5.4-39.9,9.2-50.5c3.8-10.6,7.2-16.1,15.8-17c8.6-0.9,8.9-1.6,10.5-5.7c1.7-4.1,1.1-6.6-5.4-10.5
		c-6.5-4-17.3,1.2-22.6,4.1s-12.2,13-14.6,21.1c0,0,0.3-7.5-5.1-11s-20.7,7.8-47.2,11.6s-24.7,7.9-24.7,7.9s1.7-4.5,0-12.8
		s-4.1-10.2-7-10.5c0,0-1.6,18.1-9.3,23.4c-7.6,5.3-26.7,10.3-38.4,12.4c-11.7,2-20.7-0.5-27.9,15.5c0,0-1-22.5-5.9-31.3
		c-4.9-8.9-15.5-15.3-15.5-15.3s-22.4,27-42.5,40s-67.8,32.8-107.9,30.4l-19.4,50c0,0-24.4,8.6-51.7,26c0,0-17.4-1.5-29.6,9.8
		c-12.2,11.3-19.9,19.3-37.2,44.7c-17.3,25.4-12.2,68.6-12.2,68.6l0,0l0,0c2.5,14.9,16.9,26.8,60.3,26.8
		c43.4,0.1,68.2-11.5,68.2-11.5s1,5,4.1,20.5l0,0l0.1,4.8l0.4,28.9c0,0,4.2,7.8,29.2,13.9c25,6,63.4,6.8,79.3,4.2
		c15.9-2.6,32.9-10.2,48.5-21.1s29.8-27.7,39.8-40.4c10-12.7,14.6-20.9,14.6-20.9l5.7-0.6l26.1-26.4V1728c0,0,15.7,3.8,26.8,5.6
		c11.1,1.8,13.5,2.2,15.2-5.2c0,0,28.6,9.5,74.3,16.1c45.7,6.6,67.8,9.2,98.3,7.7s45.8-12.5,45.8-12.5
		C1324.9,1729.6,1323.9,1720.7,1321.8,1716.6z"/>
	<path fill="#7B7470" d="M1163.8,1719.5c-0.2,1,0,2.1,0,3.1c0,0.5,0.3,0.8,0.7,0.9c0.2,0.1,0.3,0.1,0.5,0c0.4-0.1,0.7-0.5,0.7-0.9
		c0-1.1,0-2.4-0.5-3.3C1164.9,1718.7,1164,1718.8,1163.8,1719.5L1163.8,1719.5z"/>
	<path fill="#7B7470" d="M1165.1,1712.3c0-1.5-0.1-3-0.2-4.5c-0.1-0.8-1.3-0.8-1.2,0c0.1,1.5,0.3,3.1,0.5,4.6
		C1164.3,1713,1165.1,1712.8,1165.1,1712.3L1165.1,1712.3z"/>
	<path fill="#7B7470" d="M1165.9,1703c0.2-1.3,0.4-2.5,0.5-3.8c0-0.6-1-0.8-1.1-0.2c-0.2,1.3-0.3,2.6-0.4,3.8
		C1164.8,1703.4,1165.8,1703.6,1165.9,1703L1165.9,1703z"/>
	<path fill="#7B7470" d="M1168.5,1690.2c0.3-1.1,0.5-2.2,0.8-3.4c0.2-0.9,0.7-1.9,0.3-2.8c-0.1-0.3-0.4-0.4-0.7-0.2
		c-0.7,0.6-0.7,1.7-0.9,2.6c-0.3,1.1-0.5,2.2-0.8,3.4C1167.1,1690.6,1168.3,1691,1168.5,1690.2L1168.5,1690.2z"/>
	<path fill="#7B7470" d="M1172.9,1679.3c0.2-0.9,0.4-1.7,0.7-2.6c0.2-0.7,0.7-1.4,0.5-2.2c-0.1-0.3-0.5-0.5-0.8-0.3
		c-0.7,0.5-0.8,1.2-1.1,2c-0.3,0.9-0.5,1.9-0.6,2.8C1171.6,1679.8,1172.8,1680.1,1172.9,1679.3L1172.9,1679.3z"/>
	<path fill="#7B7470" d="M1175.3,1668.3c0.7-1,1.3-2.1,1.8-3.2c0.5-0.9,1.1-1.8,1-2.9c0-0.3-0.4-0.6-0.7-0.4
		c-0.9,0.6-1.3,1.7-1.8,2.7c-0.5,1.1-1,2.2-1.4,3.3C1174,1668.5,1174.9,1668.8,1175.3,1668.3L1175.3,1668.3z"/>
	<path fill="#7B7470" d="M1180.8,1657.9c0.6-0.6,1-1.3,1.5-2.1c0.4-0.7,0.8-1.4,0.7-2.2c-0.1-0.4-0.6-0.5-0.9-0.3
		c-0.6,0.4-0.8,1.1-1.1,1.8c-0.4,0.7-0.8,1.4-1.1,2.1C1179.6,1657.8,1180.3,1658.5,1180.8,1657.9L1180.8,1657.9z"/>
	<path fill="#7B7470" d="M1187.8,1647.7c0.6-1.4,1.4-2.6,2.5-3.7c0.7-0.7,1.3-1.5,0.9-2.5c-0.2-0.3-0.7-0.4-0.9-0.1
		c-0.4,0.4-0.5,0.8-0.9,1.2c-0.4,0.5-0.8,0.9-1.2,1.4c-0.8,1-1.3,2.2-1.7,3.4C1186.2,1648.2,1187.5,1648.5,1187.8,1647.7
		L1187.8,1647.7z"/>
	<path fill="#7B7470" d="M1193.9,1637.5c0.6-0.7,1.1-1.3,1.6-2.1c0.5-0.6,1.1-1.3,1.2-2.1c0-0.3-0.3-0.5-0.6-0.4
		c-0.8,0.2-1.2,1-1.6,1.6c-0.5,0.8-1,1.5-1.3,2.4C1192.9,1637.4,1193.5,1638,1193.9,1637.5L1193.9,1637.5z"/>
	<path fill="#7B7470" d="M1201,1628.7c1.1-1,2.4-1.9,3.5-3c0.2-0.2,0.3-0.6,0.1-0.9c0-0.1-0.1-0.1-0.1-0.1c-0.2-0.2-0.6-0.3-0.9-0.1
		c-1.3,0.9-2.3,2.1-3.4,3.4C1199.8,1628.4,1200.5,1629.1,1201,1628.7L1201,1628.7z"/>
	<path fill="#7B7470" d="M1208.1,1621.4c0.6-0.5,1.2-0.9,1.8-1.3c0.6-0.4,1.2-0.7,1.7-1.2s0-1.3-0.6-1.1c-0.7,0.2-1.3,0.8-1.9,1.2
		c-0.6,0.5-1.2,1-1.8,1.6C1206.8,1621.2,1207.5,1621.9,1208.1,1621.4L1208.1,1621.4z"/>
	<path fill="#7B7470" d="M1216.8,1614c1.3-0.3,2.7-1,3.7-1.7c0.6-0.5,0.3-1.6-0.6-1.3c-1.3,0.5-2.7,1.3-3.7,2.2
		C1215.9,1613.5,1216.3,1614.1,1216.8,1614L1216.8,1614z"/>
	<path fill="#7B7470" d="M1224.6,1608.8c0.9-0.2,1.8-0.5,2.6-0.9c0.8-0.4,0.1-1.6-0.7-1.2c-0.8,0.4-1.5,0.9-2.2,1.4
		C1224,1608.3,1224.2,1608.9,1224.6,1608.8L1224.6,1608.8z"/>
	<path fill="#7B7470" d="M1232.2,1606.1c0.6,0.3,1.2,0.1,1.9-0.1c0.7-0.2,1.4-0.3,2-0.7c0.6-0.4,0.4-1.4-0.4-1.4
		c-0.7,0-1.4,0.3-2.1,0.5c-0.6,0.2-1.3,0.4-1.6,0.9C1231.9,1605.6,1231.9,1606,1232.2,1606.1L1232.2,1606.1z"/>
	<path fill="#7B7470" d="M1057.2,1657.6c0.6,0.6,1.6,0.6,2.5,0.7c0.8,0.1,1.9,0.5,2.5-0.2c0.1-0.2,0.2-0.4,0.1-0.6
		c-0.4-0.8-1.5-0.6-2.2-0.7c-0.8-0.1-1.9-0.3-2.7,0.1C1057.1,1657.1,1057,1657.4,1057.2,1657.6L1057.2,1657.6z"/>
	<path fill="#7B7470" d="M1068.8,1661.7c0.5,0.3,1.1,0.7,1.7,1c0.9,0.4,1.5-0.7,0.7-1.3c-0.6-0.4-1.3-0.7-1.9-0.8
		C1068.6,1660.4,1068.2,1661.3,1068.8,1661.7L1068.8,1661.7z"/>
	<path fill="#7B7470" d="M1075.8,1665.1c0.5,0.2,0.8,0.5,1.2,0.9c0.3,0.3,0.7,0.9,1.3,0.8c0.3,0,0.4-0.2,0.5-0.4
		c0.3-0.6-0.4-1.3-0.9-1.6c-0.5-0.4-1.1-0.6-1.6-0.8C1075.6,1663.8,1075.2,1664.8,1075.8,1665.1L1075.8,1665.1z"/>
	<path fill="#7B7470" d="M1081.2,1670.2c0.7,0.4,1.2,1,1.9,1.5c0.8,0.5,1.5-0.6,0.9-1.2c-0.6-0.7-1.5-1-2.4-1.3
		C1081,1668.9,1080.6,1669.9,1081.2,1670.2L1081.2,1670.2z"/>
	<path fill="#7B7470" d="M1086.2,1675.6c0.2,0.3,0.5,0.6,0.7,0.9s0.3,0.7,0.5,1.1c0.5,0.7,1.5,0.3,1.4-0.6c-0.2-1-1.2-1.9-2.1-2.2
		C1086.2,1674.7,1086,1675.3,1086.2,1675.6L1086.2,1675.6z"/>
	<path fill="#7B7470" d="M1090.6,1686c0.2,0.5,0.1,1.1,0.5,1.5c0.2,0.2,0.5,0.2,0.7,0c0.6-0.6,0.2-1.5-0.2-2.2
		C1091.3,1684.6,1090.3,1685.3,1090.6,1686L1090.6,1686z"/>
	<path fill="#7B7470" d="M1092.2,1692c0,0.5,0,0.9,0,1.4s0,0.9,0.4,1.2c0.3,0.3,0.7,0.2,0.9-0.1c0.3-0.4,0.2-0.9,0.1-1.3
		c-0.1-0.5-0.2-0.9-0.2-1.4C1093.4,1691.1,1092.2,1691.3,1092.2,1692L1092.2,1692z"/>
	<g>
		<g>
			<path fill="#7B7470" d="M1094.2,1702.2C1094.2,1702.2,1094.2,1702.1,1094.2,1702.2C1094.1,1702.1,1094.1,1702.2,1094.2,1702.2
				L1094.2,1702.2z"/>
		</g>
	</g>
	<path fill="#7B7470" d="M1093.4,1703.2C1093.4,1703.2,1093.4,1703.4,1093.4,1703.2c0,0.3-0.2,0.5-0.1,0.8c0.1,0.4,0.5,0.7,0.9,0.7
		s0.8-0.3,0.9-0.7c0.3-0.7,0.1-1.6-0.5-2.1C1093.9,1701.2,1092.6,1702.4,1093.4,1703.2L1093.4,1703.2z"/>
	<path fill="#7B7470" d="M1073.6,1650.1c0.3-0.4,0.5-0.9,0.8-1.4c0.2-0.4,0.5-0.9,0.7-1.4c0.2-0.8-0.8-1.1-1.2-0.5
		c-0.3,0.4-0.5,0.9-0.7,1.4s-0.4,1-0.6,1.5C1072.4,1650.3,1073.2,1650.6,1073.6,1650.1L1073.6,1650.1z"/>
	<path fill="#7B7470" d="M1077.7,1641.1c0.5-0.5,1-1,1.5-1.4c0.2-0.2,0.5-0.4,0.7-0.7c0.1-0.1,0.2-0.2,0.4-0.3
		c0.2-0.2,0.2-0.1,0-0.2c-0.1-0.1-0.3-0.3-0.4-0.4c0,0,0,0,0,0.1c0.1,0.5,0.7,0.5,1,0.3c0,0,0,0,0.1,0c0.2-0.2,0.2-0.5,0.1-0.7
		c-0.5-0.9-1.4-0.2-1.9,0.3c-0.8,0.8-1.5,1.6-2.2,2.4C1076.4,1640.8,1077.2,1641.6,1077.7,1641.1L1077.7,1641.1z"/>
	<path fill="#7B7470" d="M1085.6,1634c1.1-0.6,2.3-1.1,3.5-1.5c0.4-0.1,0.6-0.4,0.6-0.8c0-0.2-0.1-0.4-0.2-0.6
		c-0.2-0.2-0.5-0.3-0.8-0.2c-1.4,0.5-2.6,1.2-3.7,2.2C1084.5,1633.6,1085.1,1634.3,1085.6,1634L1085.6,1634z"/>
	<path fill="#7B7470" d="M1095.3,1628.5c1-0.1,2.1-0.3,2.9-0.9c0.6-0.4,0-1.4-0.7-1.2c-0.4,0.1-0.8,0.4-1.2,0.6
		c-0.4,0.2-0.8,0.3-1.2,0.4C1094.6,1627.5,1094.7,1628.5,1095.3,1628.5L1095.3,1628.5z"/>
	<path fill="#7B7470" d="M1106.3,1625.1c0.7,0,1.4,0.1,2.1,0.1s1.3,0.2,2,0c0.5-0.1,0.7-1,0.2-1.2c-1.2-0.6-3-0.4-4.3-0.3
		C1105.4,1623.8,1105.4,1625.1,1106.3,1625.1L1106.3,1625.1z"/>
	<path fill="#7B7470" d="M1106,1618.6c0.9,0,1.7,0.2,2.6,0.3c0.7,0.1,1.4,0.4,2.1,0.1c0.4-0.2,0.6-0.6,0.2-0.9
		c-1.2-1.1-3.6-0.5-5-0.2C1105.4,1617.8,1105.6,1618.6,1106,1618.6L1106,1618.6z"/>
	<path fill="#7B7470" d="M1115,1620c0.6,0.5,1.2,0.9,1.8,1.2c0.6,0.3,1.2,0.7,1.7,0.2s0-1.5-0.7-1.2c0.4,0.1,0.4,0.1,0.1-0.1
		c-0.1-0.1-0.3-0.1-0.4-0.2c-0.2-0.1-0.4-0.2-0.7-0.3c-0.5-0.2-1-0.4-1.5-0.5C1115.1,1619.1,1114.6,1619.7,1115,1620L1115,1620z"/>
	<path fill="#7B7470" d="M1122,1622.9c0.2,0.4,0.6,0.7,0.9,1c0.4,0.3,0.7,0.6,1.2,0.5c0.3-0.1,0.4-0.3,0.5-0.6
		c0-0.5-0.3-0.8-0.8-1.1c-0.4-0.2-0.8-0.6-1.2-0.7C1122.1,1621.9,1121.8,1622.4,1122,1622.9L1122,1622.9z"/>
	<path fill="#7B7470" d="M1136.4,1501c0.2,0.5,0,1.1,0,1.6c0.1,0.7,0.9,0.9,1.3,0.4c0.6-0.8,0.1-1.8-0.3-2.5
		C1137.1,1499.7,1136.1,1500.4,1136.4,1501L1136.4,1501z"/>
	<path fill="#7B7470" d="M1137,1505.1c-0.1,0.6-0.3,1.3-0.2,1.9c0.1,0.8,1.2,1,1.5,0.2c0.2-0.6,0.2-1.3,0.2-1.9
		C1138.5,1504.5,1137.1,1504.3,1137,1505.1L1137,1505.1z"/>
	<path fill="#7B7470" d="M1135.5,1513.6c0.1,0.6-0.2,1.1,0.1,1.6c0.1,0.3,0.6,0.4,0.9,0.2c0.7-0.4,0.6-1.5,0.4-2.2
		C1136.7,1512.4,1135.4,1512.8,1135.5,1513.6L1135.5,1513.6z"/>
	<path fill="#7B7470" d="M1134.1,1525.4c-0.3,0.4-0.3,0.8-0.3,1.3s-0.1,1,0,1.5c0.5-0.1,1-0.3,1.4-0.4c0-0.1-0.1-0.1-0.2-0.2
		c-0.3-0.4-0.7-0.4-1,0c-0.1,0.1-0.1,0.1-0.2,0.2c-0.7,0.9,1.3,1.8,1.4,0.4c0-0.5,0-1,0-1.5s0-1-0.4-1.3
		C1134.6,1525.3,1134.3,1525.2,1134.1,1525.4L1134.1,1525.4z"/>
	<path fill="#7B7470" d="M1133.6,1537c-0.1,0.7-0.3,1.5-0.5,2.2c-0.1,0.6-0.4,1.4-0.2,2c0.1,0.4,0.7,0.7,1,0.3
		c0.4-0.6,0.5-1.2,0.6-1.9c0.1-0.8,0.2-1.6,0.3-2.4C1134.9,1536.4,1133.7,1536.3,1133.6,1537L1133.6,1537z"/>
	<path fill="#7B7470" d="M1132.1,1547.5c-0.1,0.7-0.2,1.4-0.4,2.1c-0.1,0.6-0.3,1.2-0.2,1.8c0.1,0.4,0.8,0.6,1,0.3
		c0.9-1,0.8-3,0.7-4.3C1133.2,1546.7,1132.2,1546.7,1132.1,1547.5L1132.1,1547.5z"/>
	<path fill="#7B7470" d="M1131,1560.1c0,0.7-0.1,1.5-0.1,2.2s-0.1,1.3,0.2,1.9c0.2,0.4,0.8,0.4,1,0c0.3-0.6,0.2-1.3,0.2-1.9
		c0-0.7,0-1.5-0.1-2.2C1132.3,1559.3,1131,1559.3,1131,1560.1L1131,1560.1z"/>
	<path fill="#7B7470" d="M1130.4,1570.8c0.1,0.7,0.1,1.5,0.2,2.2s0,1.4,0.4,2c0.3,0.5,1,0.4,1.2-0.2s0.1-1.3,0-1.9
		c-0.1-0.7-0.2-1.4-0.2-2.1C1131.8,1569.8,1130.3,1569.8,1130.4,1570.8L1130.4,1570.8z"/>
	<path fill="#7B7470" d="M1132.7,1582.6c0,0.8-0.1,1.7,0.2,2.5c0.3,0.8,1.3,0.6,1.4-0.2c0.1-0.8-0.3-1.7-0.4-2.5
		C1133.7,1581.8,1132.6,1582,1132.7,1582.6L1132.7,1582.6z"/>
	<path fill="#7B7470" d="M1134.1,1591.5c0.1,0.5,0.2,1,0.3,1.5c0.1,0.5,0,1,0.4,1.4c0.3,0.3,0.8,0.2,1-0.1c0.3-0.5,0.2-1.1,0.1-1.6
		s-0.2-1.1-0.4-1.6C1135.3,1590.2,1133.9,1590.6,1134.1,1591.5L1134.1,1591.5z"/>
	<path fill="#7B7470" d="M1136,1600.5c0.2,1,0.5,2,0.9,2.9s1.7,0.1,1.3-0.8c-0.4-0.8-0.7-1.6-0.9-2.5
		C1137.1,1599.3,1135.8,1599.6,1136,1600.5L1136,1600.5z"/>
	<path fill="#7B7470" d="M1140,1609.6c0.2,0.7,0.7,1.7,1.4,1.9c0.4,0.1,0.7-0.2,0.8-0.6c0-0.7-0.9-1.5-1.4-1.9
		C1140.4,1608.8,1139.8,1609.2,1140,1609.6L1140,1609.6z"/>
	<path fill="#7B7470" d="M1078.7,1533.2c0.5,0.2,1.1,0.4,1.7,0.4s0.9-0.9,0.3-1.2c-0.5-0.3-1.1-0.3-1.7-0.4
		C1078.2,1531.9,1077.9,1533,1078.7,1533.2L1078.7,1533.2z"/>
	<path fill="#7B7470" d="M1085.3,1534.1c0.9,0.2,1.8,0.4,2.8,0.6s1.4-1.3,0.4-1.5c-0.9-0.2-1.9-0.4-2.8-0.5
		C1084.8,1532.5,1084.3,1533.9,1085.3,1534.1L1085.3,1534.1z"/>
	<path fill="#7B7470" d="M1098,1535.8c1.1,0,2.1,0.2,3.2,0.4c0.3,0.1,0.7,0,0.9-0.4c0.1-0.1,0.1-0.2,0.1-0.4c0-0.3-0.3-0.7-0.6-0.8
		c-1.2-0.3-2.4-0.3-3.6-0.3C1097.1,1534.4,1097.1,1535.8,1098,1535.8L1098,1535.8z"/>
	<path fill="#7B7470" d="M1101.2,1529.6c1.5,0.6,3.8,1.5,5.3,0.6c0.5-0.3,0.3-1-0.2-1.2c-0.7-0.2-1.5-0.1-2.3-0.1
		c-0.9-0.1-1.7-0.2-2.6-0.4C1100.8,1528.4,1100.6,1529.4,1101.2,1529.6L1101.2,1529.6z"/>
	<path fill="#7B7470" d="M1116.5,1528.2c0.8,0.1,1.8,0.2,2.6-0.1c0.6-0.2,1.1-1,0.5-1.5c-0.2-0.2-0.6-0.2-0.8,0
		c-0.1,0.1-0.3,0.4,0,0.1s0-0.1-0.1,0c-0.1,0-0.2,0.1-0.3,0.1c-0.6,0.1-1.2,0.2-1.8,0.2C1116,1527,1115.8,1528.1,1116.5,1528.2
		L1116.5,1528.2z"/>
	<path fill="#7B7470" d="M1129.2,1526c0.9-0.1,1.7-0.2,2.5-0.3c0.7-0.1,1.6-0.2,2-0.9c0.1-0.3,0.1-0.6-0.2-0.7
		c-0.6-0.4-1.4-0.1-2,0.1c-0.8,0.2-1.6,0.4-2.5,0.5C1128.2,1524.7,1128.4,1526,1129.2,1526L1129.2,1526z"/>
	<path fill="#7B7470" d="M1140,1524.1c0.7,0,1.3-0.1,2-0.1c0.6,0,1.3,0,1.8-0.4c0.3-0.2,0.4-0.8,0-1c-0.6-0.3-1.2-0.2-1.8-0.1
		c-0.7,0.1-1.3,0.1-2,0.2C1139,1522.7,1139,1524.1,1140,1524.1L1140,1524.1z"/>
	<path fill="#7B7470" d="M1151.5,1522.4c0.6,0.1,1.5,0.4,2,0c0.4-0.3,0.4-0.7,0.1-1.1c-0.5-0.5-1.3-0.4-2-0.4
		C1150.8,1520.9,1150.6,1522.2,1151.5,1522.4L1151.5,1522.4z"/>
	<path fill="#7B7470" d="M1012.8,1553.1c0.9,0.5,2.1,0.7,3,0c0.6-0.4,0.3-1.5-0.5-1.3c-0.7,0.2-1.3,0.4-2,0.1
		C1012.6,1551.8,1012.3,1552.7,1012.8,1553.1L1012.8,1553.1z"/>
	<path fill="#7B7470" d="M1017.9,1552.8c0.6,0.3,1.2,0.5,1.8,0.5c0.5,0,1.3-0.1,1.4-0.7c0-0.1,0-0.3-0.1-0.4
		c-0.4-0.3-0.7-0.2-1.2-0.2s-0.9-0.1-1.3-0.3C1017.8,1551.4,1017.2,1552.4,1017.9,1552.8L1017.9,1552.8z"/>
	<path fill="#7B7470" d="M1026.7,1551.8c0.5-0.1,0.9-0.2,1.4-0.3c0.4-0.1,0.9-0.2,1.2-0.5c0.2-0.2,0.2-0.7-0.1-0.8
		c-0.5-0.2-0.8-0.1-1.3,0s-1,0.2-1.5,0.3C1025.5,1550.7,1025.8,1552,1026.7,1551.8L1026.7,1551.8z"/>
	<path fill="#7B7470" d="M1036.5,1549.1c0.4-0.1,0.7-0.2,1.1-0.3c0.4-0.1,0.6-0.3,1-0.5s0.2-0.8-0.2-0.8c-0.4,0-0.7,0-1.1,0.1
		s-0.7,0.2-1.1,0.3C1035.4,1548.1,1035.7,1549.3,1036.5,1549.1L1036.5,1549.1z"/>
	<path fill="#7B7470" d="M1048.4,1546.1c0.5-0.2,1.1-0.3,1.6-0.5s1-0.3,1.3-0.8c0.2-0.3,0-0.7-0.3-0.8c-0.5-0.2-1,0-1.5,0.1
		c-0.5,0.2-1,0.3-1.5,0.5C1047.1,1544.9,1047.4,1546.3,1048.4,1546.1L1048.4,1546.1z"/>
	<path fill="#7B7470" d="M1056.9,1543c1-0.2,3-0.5,3.3-1.7c0.1-0.3-0.1-0.6-0.4-0.6c-0.6-0.1-1.1,0.2-1.6,0.4
		c-0.5,0.3-1.1,0.5-1.7,0.6C1055.6,1541.9,1056,1543.2,1056.9,1543L1056.9,1543z"/>
	<path fill="#7B7470" d="M1063.7,1539.1c0.8,0.4,2.4,0.3,2.2-0.9c0-0.2-0.2-0.4-0.4-0.4c-0.3,0-0.4,0-0.7,0.1
		c-0.2,0.1-0.3,0.1-0.4,0C1063.6,1537.4,1062.9,1538.6,1063.7,1539.1L1063.7,1539.1z"/>
	<path fill="#7B7470" d="M1069.7,1537.4c0.7-0.3,1.5-0.5,1.9-1.1c0.1-0.2,0-0.6-0.3-0.7c-0.8-0.2-1.6,0.4-2.3,0.7
		C1068.2,1536.6,1068.9,1537.7,1069.7,1537.4L1069.7,1537.4z"/>
	<path fill="#7B7470" d="M1028.9,1524.8c0.1,0.6,0.2,1.2,0.3,1.7c0.1,0.5,0.1,1.1,0.5,1.4c0.2,0.2,0.6,0.2,0.8-0.1
		c0.3-0.5,0.1-1,0-1.6s-0.2-1.2-0.3-1.8C1030,1523.7,1028.7,1524,1028.9,1524.8L1028.9,1524.8z"/>
	<path fill="#7B7470" d="M1030.3,1535.5c0.1,0.4,0.2,0.9,0.2,1.3s-0.2,0.9,0,1.3s0.6,0.6,1,0.3c0.4-0.3,0.5-1,0.5-1.6
		s-0.1-1.2-0.2-1.7C1031.5,1534.2,1030,1534.6,1030.3,1535.5L1030.3,1535.5z"/>
	<path fill="#7B7470" d="M1032.5,1545.5c-0.1,0.4-0.1,0.9-0.2,1.4c0,0.5,0,0.9,0.3,1.3c0.2,0.2,0.6,0.2,0.7,0
		c0.3-0.4,0.3-0.8,0.3-1.3s0-1-0.2-1.4C1033.3,1545.1,1032.7,1545.1,1032.5,1545.5L1032.5,1545.5z"/>
	<path fill="#7B7470" d="M1033,1555.2c0,0.6-0.1,1.4,0.1,2c0.1,0.3,0.6,0.4,0.8,0.1c0.3-0.5,0.4-1.3,0.5-1.9
		C1034.5,1554.3,1033,1554.2,1033,1555.2L1033,1555.2z"/>
	<path fill="#7B7470" d="M1032.5,1569.7c0,0.9-0.1,1.9,0,2.8c0.1,0.5,0.8,0.4,0.9,0c0.2-0.9,0.3-1.9,0.4-2.8
		C1033.9,1568.9,1032.6,1568.8,1032.5,1569.7L1032.5,1569.7z"/>
	<path fill="#7B7470" d="M1031.2,1579.3c0,0.4,0,0.8-0.1,1.1c-0.1,0.4-0.2,0.6-0.2,1s0.5,0.6,0.8,0.3c0.7-0.6,0.6-1.8,0.5-2.6
		C1032.1,1578.7,1031.1,1578.8,1031.2,1579.3L1031.2,1579.3z"/>
	<path fill="#7B7470" d="M1030.9,1589.3c0,0.3,0,0.5,0,0.8s-0.1,0.5-0.1,0.7c0,0.5,0.7,0.7,1,0.3c0.3-0.5,0.2-1.3,0.1-1.9
		C1031.7,1588.7,1030.8,1588.8,1030.9,1589.3L1030.9,1589.3z"/>
	<path fill="#7B7470" d="M1030.2,1597.8c0,0.4,0.1,0.8,0,1.3c-0.1,0.4-0.2,0.7,0,1.1c0.1,0.2,0.3,0.2,0.4,0.2c1-0.2,0.9-2,0.7-2.7
		C1031,1597.2,1030.1,1597.2,1030.2,1597.8L1030.2,1597.8z"/>
	<path fill="#7B7470" d="M1028.6,1606.8c0,0.2,0.1,0.3,0.1,0.5c0.1,0.5,0.9,0.5,1,0c0-0.2,0.1-0.3,0.1-0.5
		C1030,1605.8,1028.4,1605.8,1028.6,1606.8L1028.6,1606.8z"/>
	<path fill="#7B7470" d="M1027,1616c0.1,0.7,0,1.3-0.3,2c-0.3,0.8,1,1.2,1.3,0.4c0.3-0.8,0.3-1.5,0.3-2.3
		C1028.2,1615.2,1026.9,1615.2,1027,1616L1027,1616z"/>
	<path fill="#7B7470" d="M1024.8,1626c0.2,0.4,0.1,0.8,0,1.2c-0.1,0.5,0.5,0.8,0.8,0.5c0.6-0.6,0.6-1.5,0.1-2.2
		C1025.4,1624.8,1024.5,1625.3,1024.8,1626L1024.8,1626z"/>
	<path fill="#7B7470" d="M1022.1,1634.5c-0.2,0.7-0.5,1.3-0.8,2s0.9,1.3,1.3,0.5c0.4-0.8,0.5-1.5,0.6-2.4
		C1023.3,1634,1022.2,1633.9,1022.1,1634.5L1022.1,1634.5z"/>
	<path fill="#7B7470" d="M1019.9,1645c-0.1,0.5-0.5,1-0.5,1.5c0,0.4,0.5,0.7,0.8,0.5c0.5-0.4,0.8-1.1,1-1.6
		C1021.5,1644.5,1020.1,1644.1,1019.9,1645L1019.9,1645z"/>
	<path fill="#7B7470" d="M1016.7,1652.8c-0.2,0.6-0.8,1.1-0.7,1.8c0,0.2,0.2,0.3,0.4,0.3c0.8,0,1.2-1.1,1.5-1.8
		S1017,1652,1016.7,1652.8L1016.7,1652.8z"/>
	<path fill="#7B7470" d="M1011.2,1660.2c0,0.2,0,0.4,0,0.7c0,0.4,0.6,0.6,0.8,0.2c0.1-0.2,0.2-0.4,0.3-0.6
		C1012.9,1659.5,1011.2,1659.1,1011.2,1660.2L1011.2,1660.2z"/>
	<path fill="#7B7470" d="M1024.9,1687.6c0.4,0.2,0.9,0.2,1.3,0.2c0.5,0,0.9,0,1.3-0.2c0.5-0.2,0.3-1-0.1-1.1s-0.9,0-1.3,0.1
		s-0.8,0.1-1.2,0.4C1024.5,1687.1,1024.6,1687.5,1024.9,1687.6L1024.9,1687.6z"/>
	<path fill="#7B7470" d="M1031.2,1686.3c0.6,0.2,1.2,0.4,1.9,0.2c0.8-0.1,0.6-1.4-0.2-1.4c-0.5,0-0.9,0.1-1.3,0
		C1030.7,1685,1030.4,1686,1031.2,1686.3L1031.2,1686.3z"/>
	<path fill="#7B7470" d="M1036.5,1687.2c0.6,0.3,1.1,0.6,1.8,0.5c0.4-0.1,0.5-0.7,0.2-0.9c-0.4-0.5-1.1-0.5-1.7-0.7
		C1036.1,1685.9,1035.8,1686.9,1036.5,1687.2L1036.5,1687.2z"/>
	<path fill="#7B7470" d="M1040.9,1690.9c0.4,0.2,0.8,0.5,1.1,0.9c0.3,0.4,0.5,0.8,1,0.8c0.2,0,0.3-0.1,0.4-0.2
		c0.4-0.5-0.1-1.2-0.5-1.6c-0.4-0.5-0.9-0.8-1.5-1C1040.7,1689.4,1040.2,1690.5,1040.9,1690.9L1040.9,1690.9z"/>
	<path fill="#7B7470" d="M1045,1696.2c0,0.3,0,0.5,0,0.8s0,0.5,0.1,0.8c0.2,0.5,0.9,0.5,1.1,0c0.3-0.8-0.1-1.4-0.6-1.9
		C1045.4,1695.6,1044.9,1695.8,1045,1696.2L1045,1696.2z"/>
	<path fill="#7B7470" d="M1045.6,1702.8c0.1,0.8-0.1,1.9,0.6,2.5c0.2,0.1,0.5,0.1,0.7-0.1c0.6-0.6,0.3-1.7,0.2-2.4
		C1047.1,1701.9,1045.5,1701.9,1045.6,1702.8L1045.6,1702.8z"/>
	<path fill="#7B7470" d="M1046.1,1709c-0.1,0.4-0.2,0.9-0.1,1.3c0,0.4,0.5,0.6,0.8,0.2s0.4-0.8,0.6-1.2
		C1047.6,1708.6,1046.2,1708.2,1046.1,1709L1046.1,1709z"/>
	<path fill="#7B7470" d="M854.8,1682c0,0.2,0,0.3,0,0.5c0,0.1,0.1,0.1,0.1,0C854.9,1682.3,854.9,1682.2,854.8,1682
		C854.9,1681.9,854.8,1681.9,854.8,1682L854.8,1682z"/>
	<path fill="#7B7470" d="M870.5,1680.9c1.3-0.3,2.6-0.3,4-0.3c0.7,0,0.9-1.1,0.2-1.3c-1.5-0.3-3-0.2-4.5,0.2
		C869.2,1679.7,869.6,1681.1,870.5,1680.9L870.5,1680.9z"/>
	<path fill="#7B7470" d="M886.8,1679.7c0.6,0,1.2,0.1,1.7,0.1c0.6,0,1,0.2,1.5-0.1c0.4-0.2,0.3-0.7,0-0.9c-0.4-0.3-1-0.2-1.5-0.3
		c-0.6,0-1.2-0.1-1.7-0.1C886,1678.3,886,1679.6,886.8,1679.7L886.8,1679.7z"/>
	<path fill="#7B7470" d="M899.9,1679c1-0.4,2.1-0.6,3.1-0.8c0.8-0.2,1.8-0.5,2.7-0.4c0.4,0.1,0.8-0.5,0.7-0.9
		c-0.4-1-1.4-0.8-2.3-0.7c-1.6,0.3-3,1-4.5,1.6C898.8,1678.1,899.1,1679.3,899.9,1679L899.9,1679z"/>
	<path fill="#7B7470" d="M915.3,1678.8c0.9,0.1,1.7,0.3,2.6,0.4c0.7,0.1,1.5,0.3,2.2,0.2c0.3-0.1,0.5-0.4,0.5-0.7
		c0.1-0.8-0.9-0.7-1.4-0.8c-1.2-0.1-2.4-0.3-3.7-0.4C914.8,1677.4,914.6,1678.7,915.3,1678.8L915.3,1678.8z"/>
	<path fill="#7B7470" d="M931.5,1681.8c0.8,0.3,1.6,0.7,2.4,0.9c0.6,0.2,1-0.7,0.5-1.1c-0.7-0.4-1.4-0.8-2.1-1.1
		C931.3,1680.1,930.6,1681.4,931.5,1681.8L931.5,1681.8z"/>
	<path fill="#7B7470" d="M943.8,1687.1c0.9,0.2,1.9,0.6,2.8,1c0.6,0.3,0.9-0.4,0.5-0.8c-0.4-0.3-0.9-0.7-1.4-0.9
		c-0.5-0.2-1-0.4-1.5-0.5C943.4,1685.8,943.1,1686.9,943.8,1687.1L943.8,1687.1z"/>
	<path fill="#7B7470" d="M955.5,1692.5c0.5,0.4,1,0.8,1.5,1.1c0.2,0.2,0.5,0.4,0.7,0.5c0.3,0.1,0.6,0.1,0.9,0.1
		c0.3,0,0.5-0.4,0.4-0.7c-0.1-0.2-0.3-0.5-0.4-0.7c-0.2-0.2-0.6-0.4-0.8-0.5c-0.5-0.3-1.1-0.6-1.7-0.9
		C955.4,1691.1,954.9,1692.1,955.5,1692.5L955.5,1692.5z"/>
	<path fill="#7B7470" d="M964.4,1699.5c0.6,0.4,1.2,0.8,1.7,1.3c0.5,0.4,0.9,1,1.6,1.2c0.5,0.2,0.9-0.3,0.8-0.8
		c-0.1-0.7-1-1.3-1.5-1.7c-0.6-0.5-1.3-0.8-2.1-1C964.2,1698.3,963.9,1699.1,964.4,1699.5L964.4,1699.5z"/>
	<path fill="#7B7470" d="M974.2,1709.1c0.4,0.4,0.7,0.8,0.9,1.3c0.2,0.4,0.4,1,0.9,1.3c0.4,0.2,0.7,0,0.9-0.4
		c0.2-0.6-0.2-1.3-0.6-1.7c-0.4-0.5-0.8-0.9-1.3-1.3C974.5,1707.8,973.7,1708.5,974.2,1709.1L974.2,1709.1z"/>
	<path fill="#7B7470" d="M979.8,1720c0.3,0.4,0.6,0.8,0.9,1.3c0.2,0.4,0.4,1.1,0.8,1.3c0.3,0.1,0.7,0.1,0.9-0.2
		c0.3-0.6,0-1.3-0.4-1.8c-0.3-0.5-0.8-1-1.2-1.5C980.1,1718.4,979.2,1719.3,979.8,1720L979.8,1720z"/>
	<path fill="#7B7470" d="M986.2,1731c0.3,0.5,0.5,1.1,0.7,1.7s0.2,1.1,0.7,1.4c0.3,0.2,0.7,0,0.8-0.2c0.4-0.6,0.1-1.3-0.2-1.8
		c-0.2-0.6-0.5-1.2-0.8-1.8C987,1729.5,985.8,1730.2,986.2,1731L986.2,1731z"/>
	<path fill="#7B7470" d="M989.3,1742.5c0.4,0.8,0.6,1.6,0.7,2.5c0.1,0.6,0,1.3,0.3,1.9c0.1,0.2,0.4,0.2,0.5,0.1
		c1.2-1.2,0.2-3.8-0.5-5C990,1741.2,988.9,1741.8,989.3,1742.5L989.3,1742.5z"/>
	<path fill="#7B7470" d="M990.9,1752.3c-0.1,0.6,0,1.2,0.2,1.8c0.1,0.2,0.2,0.4,0.4,0.4c0.1,0,0.2,0,0.3,0c0.3-0.1,0.4-0.3,0.5-0.6
		c0.1-0.6,0-1.2-0.2-1.8C991.8,1751.5,991,1751.7,990.9,1752.3L990.9,1752.3z"/>
	<path fill="#7B7470" d="M990.4,1763.1c0.1,0.6,0.1,1.3,0.2,1.9c0,0.8,1.3,1,1.4,0.2c0.2-0.9,0.1-1.7-0.1-2.6
		C991.7,1761.6,990.2,1762,990.4,1763.1L990.4,1763.1z"/>
	<path fill="#7B7470" d="M989.8,1774.5c0,1.4-0.2,2.9,0.3,4.3c0.1,0.4,0.6,0.4,0.7,0c0.5-1.3,0.3-2.9,0.3-4.3
		C991.2,1773.6,989.8,1773.6,989.8,1774.5L989.8,1774.5z"/>
	<path fill="#7B7470" d="M988.1,1784.1c0.2,0.4-0.2,0.7-0.1,1.2c0.1,0.3,0.4,0.4,0.6,0.4h0.1c0.2-0.1,0.4-0.2,0.4-0.4
		c0.1-0.5,0-1.1-0.4-1.5C988.5,1783.4,988,1783.7,988.1,1784.1L988.1,1784.1z"/>
	<path fill="#7B7470" d="M750.8,1643.8c0.5-0.1,1.1,0,1.5-0.4c0.2-0.2,0.2-0.7-0.1-0.8c-0.5-0.3-1.2,0-1.8,0c-0.3,0-0.5,0.5-0.4,0.8
		C750.2,1643.7,750.5,1643.8,750.8,1643.8L750.8,1643.8z"/>
	<path fill="#7B7470" d="M758.2,1640.8c-0.1,0.5,0.2,1,0.8,1.2c0.3,0.1,0.6,0,0.8,0c0.2-0.1,0.4-0.2,0.7-0.1
		c0.7,0.2,1.1-0.7,0.7-1.1c-0.3-0.4-0.8-0.4-1.3-0.2c-0.2,0.1-0.3,0.2-0.5,0.2c-0.1,0-0.1,0-0.1,0c-0.1,0-0.1,0-0.2,0
		c-0.2,0-0.1,0.1,0.2,0.2C759.3,1640.4,758.4,1640.2,758.2,1640.8L758.2,1640.8z"/>
	<path fill="#7B7470" d="M773.2,1642.9c0.9,0.2,1.8,0.4,2.7,0.6c0.7,0.1,1.6,0.5,2.3,0.2c0.3-0.1,0.6-0.6,0.2-0.9
		c-0.6-0.6-1.5-0.6-2.3-0.7c-0.9-0.1-1.8-0.2-2.7-0.3C772.7,1641.7,772.5,1642.8,773.2,1642.9L773.2,1642.9z"/>
	<path fill="#7B7470" d="M791.7,1646.7c0.5,0.2,1,0.5,1.4,0.8c0.5,0.3,0.9,0.5,1.4,0.6s0.8-0.4,0.6-0.8c-0.3-0.6-0.7-0.9-1.3-1.2
		c-0.6-0.3-1.2-0.4-1.8-0.5C791.3,1645.5,791,1646.5,791.7,1646.7L791.7,1646.7z"/>
	<path fill="#7B7470" d="M807.4,1653.3c1,0.7,2,1.4,3.1,1.9c0.2,0.1,0.6,0.2,0.8,0c0.2-0.1,0.3-0.2,0.4-0.5c0.1-0.4-0.1-0.7-0.4-0.9
		c-1-0.7-2.3-1.2-3.4-1.6C807.2,1652,806.9,1653,807.4,1653.3L807.4,1653.3z"/>
	<path fill="#7B7470" d="M817.3,1660.8c0.5,0.4,1,0.8,1.4,1.3c0.3,0.4,1,1.1,1.5,0.4c0.4-0.6-0.2-1.3-0.5-1.7c-0.4-0.5-1-1-1.6-1.4
		C817.2,1659,816.5,1660.3,817.3,1660.8L817.3,1660.8z"/>
	<path fill="#7B7470" d="M826,1668c0.4,0.6,0.8,1.3,1.3,1.9c0.4,0.6,0.7,1.3,1.5,1.4c0.3,0,0.5-0.2,0.6-0.5c0.2-0.7-0.4-1.3-0.9-1.9
		s-0.9-1.2-1.4-1.8C826.6,1666.6,825.6,1667.4,826,1668L826,1668z"/>
	<path fill="#7B7470" d="M831.4,1676.8c0.4,0.6,0.8,1.2,1.2,1.8c0.4,0.6,0.6,1.2,1.3,1.6c0.4,0.2,0.8-0.1,0.9-0.5
		c0.1-0.7-0.3-1.3-0.6-1.9c-0.4-0.6-0.8-1.2-1.2-1.8C832.3,1675,830.8,1675.9,831.4,1676.8L831.4,1676.8z"/>
	<path fill="#7B7470" d="M833.9,1687.2c0.1,0.7,0.1,1.6,0.8,1.9c0.2,0.1,0.4,0,0.6-0.1c0.5-0.6,0.1-1.4-0.2-2.1
		C834.8,1686.3,833.8,1686.5,833.9,1687.2L833.9,1687.2z"/>
	<path fill="#7B7470" d="M877.2,1645.4c0.8-0.3,1.5-0.6,2.2-0.9s1.3-0.6,1.6-1.4c0.1-0.2-0.1-0.5-0.3-0.5c-0.7-0.1-1.3,0.2-1.9,0.5
		c-0.7,0.4-1.4,0.7-2.1,1.1C876,1644.6,876.5,1645.7,877.2,1645.4L877.2,1645.4z"/>
	<path fill="#7B7470" d="M887.8,1641.2c0.8-0.6,1.4-1.1,2-1.9c0.5-0.6-0.6-1.4-1.1-0.9c-0.6,0.6-1.1,1.2-1.7,1.7
		C886.4,1640.7,887.2,1641.7,887.8,1641.2L887.8,1641.2z"/>
	<path fill="#7B7470" d="M892.8,1634.6c1.1-0.7,2.4-2,2.1-3.4c-0.1-0.6-1-0.6-1.3-0.2s-0.3,0.9-0.6,1.3s-0.6,0.8-1,1.1
		C891.5,1633.9,892.1,1635,892.8,1634.6L892.8,1634.6z"/>
	<path fill="#7B7470" d="M899.2,1623.7c0.2-0.4,0.5-0.9,0.5-1.4c0.1-0.5-0.4-0.7-0.8-0.4c-0.4,0.3-0.6,0.8-0.9,1.2
		C897.6,1623.7,898.9,1624.4,899.2,1623.7L899.2,1623.7z"/>
	<path fill="#7B7470" d="M903.5,1615.8c0.5-0.6,0.8-1.5,0.6-2.3c-0.1-0.3-0.4-0.4-0.7-0.3c-0.7,0.5-1,1.4-1.1,2.2
		C902.4,1616.2,903.2,1616.3,903.5,1615.8L903.5,1615.8z"/>
	<path fill="#7B7470" d="M905.8,1607.3c0.9-1,2.3-2.9,1.7-4.4c-0.1-0.3-0.6-0.3-0.8-0.1c-0.4,0.4-0.6,1.1-0.8,1.7
		c-0.2,0.7-0.6,1.3-1.1,1.9C904.3,1607,905.2,1607.9,905.8,1607.3L905.8,1607.3z"/>
	<path fill="#7B7470" d="M909.4,1598.7c0.4-0.8,0.9-1.7,0.9-2.6c0-0.7-0.8-0.8-1.1-0.3c-0.5,0.7-0.7,1.6-0.9,2.5
		C908.1,1598.8,909.1,1599.3,909.4,1598.7L909.4,1598.7z"/>
	<path fill="#7B7470" d="M911.6,1589c0.2-0.5,0.4-1,0.5-1.6c0.1-0.5,0.3-1.1,0-1.6c-0.2-0.4-0.7-0.4-1-0.1c-0.4,0.4-0.4,0.9-0.5,1.4
		s-0.3,1-0.5,1.5C909.8,1589.6,911.2,1589.9,911.6,1589L911.6,1589z"/>
	<path fill="#7B7470" d="M912.9,1579.2c0.3-0.8,0.7-2.3-0.1-2.9c-0.2-0.1-0.5-0.1-0.6,0.1c-0.3,0.3-0.3,0.7-0.4,1.2
		c-0.1,0.5-0.2,0.9-0.3,1.3C911.1,1579.7,912.5,1580.1,912.9,1579.2L912.9,1579.2z"/>
	<path fill="#7B7470" d="M913.1,1570.2c0.5-1.2,1-2.7,0.9-4c-0.1-0.7-1.2-1-1.4-0.2c-0.2,1.3-0.3,2.5-0.8,3.7
		C911.5,1570.4,912.8,1570.9,913.1,1570.2L913.1,1570.2z"/>
	<path fill="#7B7470" d="M914.9,1558.2c0.3-0.9,0.7-2.2,0.3-3.1c-0.2-0.5-0.9-0.6-1.1,0c-0.3,0.9-0.3,1.9-0.6,2.8
		C913.1,1558.7,914.6,1559.1,914.9,1558.2L914.9,1558.2z"/>
	<path fill="#7B7470" d="M915.2,1552.6c0.4-0.1,0.8-0.1,1-0.6c0.2-0.4,0.3-0.8,0.2-1.3c-0.2-1.1-2-0.6-1.6,0.4c0,0.1,0,0.1,0,0.2
		c-0.1,0.1-0.1,0.2-0.1,0.3c0,0.2,0,0.3,0,0C914.4,1552,914.7,1552.6,915.2,1552.6L915.2,1552.6z"/>
	<path fill="#7B7470" d="M854.5,1682.9c0.8,0,1.6-0.1,2.4-0.1c0.7-0.1,1.5-0.1,1.7-0.9c0.1-0.3,0-0.6-0.2-0.8
		c-0.3-0.3-0.6-0.3-0.9-0.2c-0.7,0.1-0.8,1.2-0.2,1.5c0,0,0,0,0.1,0c-0.1-0.2-0.3-0.3-0.4-0.5c0,0,0,0,0,0.1c0.1-0.3,0.3-0.6,0.4-1
		c-0.3,0.2-1,0.3-1.4,0.4c-0.6,0.2-1.1,0.4-1.6,0.6C853.9,1682.1,853.9,1682.9,854.5,1682.9L854.5,1682.9z"/>
	<g opacity="0.3">
		<path fill="#091426" d="M1321.8,1716.6c-2.1-4.1-10.8-5.1-10.9-5.1l0,0c0,0,0.8-3.9,1.2-9.5c-12.9,17-29.8,17.5-77.6,19.9
			c-51.2,2.6-74.5-10.3-74.5-10.3s0.8-22.7,4.7-35c0,0,3.9-15.7,14.8-32.5s25.8-29.7,37.8-38.5c0.2-0.1,0.3-0.2,0.5-0.4
			c-0.4-0.2-1.2-0.5-2.4-1c-20,15.7-38,33.5-50.2,60.2c-12.2,26.8-10.2,50.8-10.2,50.8l-51.5-11.2c-0.3-30.6-19-42.2-19-42.2l6.5-25
			c17.9-13.6,20.7-13.2,27.8-9.4c7.2,3.8,6.6,4.3,9.8,0.7s21.2-20.6,33.8-29.4c5.1-3.6,10.7-6.7,15.6-9.2c-2.4-0.9-4.6-1.8-6.7-2.6
			c0,0-0.1-0.8-0.2-2.4l-6.3-0.8c0,0-1.5-0.9,6.2-2.3c0-2.2,0-5,0.1-8.3l-5.9-0.6c0,0,3.4-2,6.3-4.3c0.2-2.7,0.5-5.6,1-8.7
			l-11.2,4.3l-0.4-4.3c0,0,3.7-1.1,12-2.9c1.7-12.4,3.7-26.5,6-37.3c-1.2,1.3-8.3,1.1-11.3-1.7c-3-2.9,0.9-11.6,2.2-14.8
			c1.3-3.1-0.4-5.4-3.6-4.6c-0.3,0.8-0.5,1.5-0.8,2.2c0,0,0.3-7.5-5.1-11s-20.7,7.8-47.2,11.6s-24.7,7.9-24.7,7.9s1.7-4.5,0-12.8
			s-4.1-10.2-7-10.5c0,0-1.6,18.1-9.3,23.4c-7.6,5.3-26.7,10.3-38.4,12.4c-11.7,2-20.7-0.5-27.9,15.5c0,0-1-22.5-5.9-31.3
			c-4.9-8.9-15.5-15.3-15.5-15.3s-22.4,27-42.5,40s-67.8,32.8-107.9,30.4l-19.4,50c0,0-22.8,8.1-48.9,24.3
			c6.5,1.2,15.9,3.4,28.6,7.5c27.9,9.1,35.3,29.5,35.3,29.5s-42.1,11.6-59.3,46.4s-13.3,58.5-13.3,58.5s-28.8,2-40.7-1.8
			c-9.7-3.1-22.3-9.7-32.7-19.7c0.2,2.8,0.4,4.4,0.4,4.4l0,0l0,0c2.5,14.9,16.9,26.8,60.3,26.8c43.4,0.1,68.2-11.5,68.2-11.5
			s1,5,4.1,20.5l0,0l0.1,4.8l0.4,28.9c0,0,4.2,7.8,29.2,13.9c25,6,63.4,6.8,79.3,4.2c15.9-2.6,32.9-10.2,48.5-21.1
			s29.8-27.7,39.8-40.4c10-12.7,14.6-20.9,14.6-20.9l5.7-0.6l26.1-26.4v-10.2c0,0,15.7,3.8,26.8,5.6c11.1,1.8,13.5,2.2,15.2-5.2
			c0,0,28.6,9.5,74.3,16.1c45.7,6.6,67.8,9.2,98.3,7.7s45.8-12.5,45.8-12.5C1324.9,1729.6,1323.9,1720.7,1321.8,1716.6z
			 M1099.2,1559c0.3-25.2,3.8-42.8,3.8-42.8s-0.2-4.7,17.9-9.9c18.1-5.2,37.4-16.1,39.8-13.5s1.7,8.7,1.7,19.8c0,11.2-6,27.1-6,38.8
			s-0.8,49.7-0.8,49.7s-7.5,4.9-18,13.3s-11.2,14.3-13,13.8s-7.6-7.3-22.2-7.8s-10,12.5-10,12.5s8.5-20.1,9.8-23.8
			C1103.5,1605.5,1098.8,1584.2,1099.2,1559z M1000,1554.2c0,5.6-0.1,11.3-0.3,16.4c-5.1-5-10.9-9.6-16.7-13.9c3-0.1,5.9-0.2,9-0.8
			C994.6,1555.3,997.4,1554.9,1000,1554.2z M985,1614.2c-3,0.3-6,0.6-8.9,0.9c2.5-1.1,3.5-4.1,3.6-6.9c0-0.8,0.1-1.7,0.1-2.5
			c1.9-0.2,3.8-0.4,5.7-0.6c3-0.3,6-0.9,9-1.4c-0.8,3.2-1.7,6.4-2.5,9.5C989.4,1613.4,986.8,1614,985,1614.2z M989.6,1621.6
			c-2.1,7.3-3.7,12.6-3.7,12.6l-31.6-9.7c3.9-0.2,7.7-0.6,11.3-0.9c2-0.2,4.1-0.3,6.2-0.5c0.6,0.2,1.2,0.1,1.8-0.1
			C978.9,1622.6,984.3,1622.2,989.6,1621.6z M980.3,1597.6c0.1-1.8,0.1-3.6,0-5.4c-0.6-9.3,0.4-19.5-1.5-28.9
			c7.2,5.7,14.4,11.2,20.3,18.2c-0.1,0.8-0.2,1.6-0.3,2.3c-0.4,3.1-1.3,7.2-2.4,11.8C991.1,1596.6,985.8,1597.2,980.3,1597.6z
			 M984.1,1533.9l1,7.1l14.6-17.8c0,0,0.3,10.4,0.3,22.9c-2.5,0.2-4.9,0.9-7.4,1.5c-4.4,1-8.4,0.9-12.8,1.3c-4.7,0.4-9.4,0.9-14,1.5
			L984.1,1533.9z M964.4,1558.4c0.6,0,1.2,0,1.9-0.1c0.3,5.1,0.7,9.9,0.2,15.1c-0.5,6-1.3,12.1-1.2,18.1c0,1.4,0,3.8,0.2,6.5
			c-2.1,0-4.1,0.2-6.1,0.4c-1,0.1-2.1,0.2-3.1,0.3c-0.1-0.2-0.2-0.4-0.4-0.6c2.1-3.1,3.1-8.3,4.1-10.7
			C963.5,1578.8,964,1567.8,964.4,1558.4z M952.8,1571.8c1.8-5,4.1-8.7,4.5-13.7c0.1,0,0.1,0,0.2,0c-0.4,6.7-1.1,13.4-2.4,20
			c-0.6,3.1-1.4,5.7-2.5,8.6c-0.4,1-0.6,1.9-0.8,3c-0.5,2.3,0.1,4.1-1.4,2C947.2,1587,951.2,1576.6,952.8,1571.8z M944.2,1567
			l4.9-3.7c-2.1,4.4-3.7,9-4.7,13.8c-1.3,6.3-2.8,17.1,3.2,21.8c-2.5-0.1-5-0.4-7.5-0.8C941,1588.1,942.4,1576.3,944.2,1567z
			 M939.5,1605c1.7,0.6,3.4,1.1,5.2,1.5c0.1,2.9,2.5,6.1,5.8,5.2c2.2-0.6,3.7-2.6,4.6-4.6c3.1-0.2,6.2-0.5,9.2-0.6
			c0,0.2,0,0.4,0,0.5c0.1,2.2,0.5,4.5,1.1,6.6c0.2,0.8,0.5,1.7,0.7,2.5c-5,0.4-10.1,0.7-15.1,0.8c-4.2,0.1-8.3-0.2-12.3,0.1
			C938.8,1614.4,939.1,1610.2,939.5,1605z M931.6,1571.5l2,0.9l-4.2,36.8C929.4,1609.2,930.7,1580.3,931.6,1571.5z M922,1563.9
			l6.5,10.5l-2.1,42.2c0,0-2.9-0.1-3,2.2c-0.1,2.3,3.3,5.7,3.3,5.7s1.6,9.6,0,10.2s-5.8,0.3-7-1.5c-1.3-1.8,0.6-2.2,1.6-5.7
			C922.3,1624.2,920.2,1594.1,922,1563.9z M890.3,1612.5l-4.3,17l-14.3-9.8l-2.4-9.8C883.1,1609.5,890.3,1612.5,890.3,1612.5z
			 M884.5,1634.2l-15.2,12.2c-7.2-8.9-16.8-8.2-16.8-8.2l11.2-12.9C869,1638.8,884.5,1634.2,884.5,1634.2z M781.5,1633.4l41.2-22.4
			l15-0.4c15.3,2.1,22,13,22,13c-10.4,12.6-14.3,17.2-13,18.3c1.3,1.1,3.8-0.2,10.5,0.8c6.7,1.1,8.3,6.1,8.3,6.1
			c-25.1,20.8-29.2,18.8-29.2,18.8C820.6,1644.5,794.2,1634.2,781.5,1633.4z M997.8,1760.8c0,0-4.8,24.8-56.2,40.1
			c-51.3,15.4-99.2,1-113.2-11.9c-13.9-12.9-19-46.1-10.8-66.6s31.6-44.5,52.9-47.8c21.3-3.2,54.2-5.8,76.5,6.5s36,19.4,42.3,36
			S999,1753.8,997.8,1760.8z M1039.6,1709.7c-0.2,8.1-1,8.9-9.2,18.2c-8.2,9.2-28.1,34.6-28.1,34.6c1.2-4.2,0.7-22.9-5.9-41.4
			c-6.6-18.5-22.2-34.3-52.9-46.5s-77.2-2.5-77.2-2.5s11.6-10.8,25.2-19.8c13.5-9,18.3-13.9,25.4-13.5c7.1,0.4,11.6,2.9,12.9,1.3
			c1.3-1.6,1.2-4.5,1.2-4.5l55.7,17.3c-2.7,5.3-1.5,7.2,9.7,8.9c11.2,1.6,18.9,14.5,20.3,23.1c1.3,8.6-0.8,14.2,2.4,11.7
			c3.2-2.6,9.1-5.2,15-2.5C1040,1696.7,1039.8,1701.6,1039.6,1709.7z M1051.5,1696.2c0,0-0.4-11.5,0.7-24.2
			c1.1-12.6,3.4-14.6,3.4-14.6C1058.1,1663.2,1051.5,1696.2,1051.5,1696.2z M1054,1643.2l1.6,9.7c0,0-3,1.1-5.5,11.3
			s-1.6,41.8-1.6,41.8l-5.7,11.3c0,0,3.6-22.8-8.7-26.8c-12.3-3.9-13.4,0.8-13.4,0.8s2.9-18.1-11-26.9s-20.1-8.5-20.1-8.5
			s9.9-15.4,13.6-32.8c3.7-17.4,3.5-65.3,4.3-78.2s9.4-15.7,16.5-17.7c7.1-2,28.2-1.2,42.5-9s15.5-18.7,15.5-18.7
			c1.8,2.8,1.9,3.1,0,13.2s-4.3,25.7-13,61.3C1060.3,1609.6,1054,1643.2,1054,1643.2z M1077.2,1694c0,0-1.6-17.4,7.9-27.3
			c0.4-0.4,12.1,10.1,14.4,32.3L1077.2,1694z"/>
	</g>
	<g>
		<path fill="none" d="M684,1759.7L684,1759.7c2.5,14.9,16.9,26.8,60.3,26.8c43.4,0.1,68.2-11.5,68.2-11.5s1,5,4.1,20.5l0,0"/>
		<path fill="#2C2F37" d="M1057,1701.4c0,0-11.4,19.3-19.6,34.4c-8.3,15.1-40.6,50.3-51.3,61.6s-42.8,28.8-78.7,30.1
			c-36,1.4-62.2-4.5-79.5-13.6c-5-2.6-8.5-4.8-11-6.4l0.2,15.5c0.3,0.3,0.7,0.6,1.1,1.1c3.9,4.4,17.3,11.6,30.7,13.8
			c13.4,2.2,56,5.2,88.7,0s54.6-30,69-46.5c14.4-16.4,22.7-33.4,22.7-33.4s2.3,0.8,3.3,1.4s2,0.1,6-4.3c3.4-3.7,17.5-18,21.7-22.3
			v-3.2l-1.3-2.1L1057,1701.4z"/>
		<path fill="#2C2F37" d="M1314.6,1712.3c-0.6,7.5-2.2,16-31.7,19.7c-32.4,4.1-62.3,0.7-103.8-4.6c-41.5-5.3-76.7-12.4-86.7-14.8
			s-12.9-3.8-14.2,0c-1.3,3.8-5.2,16.2-2.1,16.5s20.2,2.5,20.2,2.5c1.6-8.7,3.2-6.5,5.8-7.4c2.6-0.9,6,1.3,16.9,4.3
			s61.8,12.2,96,14.8s72,1.2,90-2.7c13.2-2.9,15.8-5.8,18.5-12.1c0.4-5.1-0.4-9.3-1.7-11.8C1320.6,1714.3,1317.2,1713,1314.6,1712.3
			z"/>
		<path fill="#2C2F37" d="M1032.5,1759.4c-1-0.6-3.3-1.4-3.3-1.4s-8.4,17-22.7,33.4c-14.4,16.4-36.4,41.2-69,46.5
			c-32.7,5.2-75.2,2.2-88.7,0c-13.4-2.2-26.8-9.4-30.7-13.8c-0.4-0.4-0.7-0.8-1.1-1.1l0.1,6.3c0,0,4.2,7.8,29.2,13.9
			c25,6,63.4,6.8,79.3,4.2c15.9-2.6,32.9-10.2,48.5-21.1s29.8-27.7,39.8-40.4c10-12.7,14.6-20.9,14.6-20.9l5.7-0.6l26.1-26.4v-5.3
			c-4.2,4.3-18.3,18.6-21.7,22.3C1034.5,1759.5,1033.4,1759.9,1032.5,1759.4z"/>
		<path opacity="0.3" fill="#091426" enable-background="new    " d="M1032.5,1759.4c-1-0.6-3.3-1.4-3.3-1.4s-8.4,17-22.7,33.4
			c-14.4,16.4-36.4,41.2-69,46.5c-32.7,5.2-75.2,2.2-88.7,0c-13.4-2.2-26.8-9.4-30.7-13.8c-0.4-0.4-0.7-0.8-1.1-1.1l0.1,6.3
			c0,0,4.2,7.8,29.2,13.9c25,6,63.4,6.8,79.3,4.2c15.9-2.6,32.9-10.2,48.5-21.1s29.8-27.7,39.8-40.4c10-12.7,14.6-20.9,14.6-20.9
			l5.7-0.6l26.1-26.4v-5.3c-4.2,4.3-18.3,18.6-21.7,22.3C1034.5,1759.5,1033.4,1759.9,1032.5,1759.4z"/>
		<path fill="#2C2F37" d="M1305,1740.5c-18,3.9-55.8,5.2-90,2.7s-85.2-11.8-96-14.8c-10.9-3-14.3-5.2-16.9-4.3
			c-2.6,0.9-4.3-1.4-5.8,7.4c0,0-17.1-2.2-20.2-2.5s0.9-12.7,2.1-16.5c1.3-3.8,4.2-2.4,14.2,0s45.2,9.5,86.7,14.8
			s71.4,8.7,103.8,4.6c29.5-3.7,31.2-12.2,31.7-19.7c-2-0.6-3.7-0.7-3.7-0.8c0,0-1.6,12.2-22.3,15c-20.6,2.8-46.8,4.3-87,0
			s-63.8-7.8-96.3-16.6c-32.5-8.7-47.1-13.1-47.7-13.1c0,0-18.2,26.1-23.6,37.5c-5.4,11.3-32.8,41.4-42.8,51.9s-27.3,22.1-47.5,29.2
			c-20.2,7.2-47.2,9.7-82.2,3.5c-34.9-6.2-45-18.6-45-18.6l0.1,7.1c2.5,1.7,6,3.8,11,6.4c17.3,9.1,43.5,15,79.5,13.6
			s68-18.8,78.7-30.1s43.1-46.6,51.3-61.6c8.3-15.1,19.6-34.4,19.6-34.4l1.9,26.1l1.3,2.1v-1.8c0,0,15.7,3.8,26.8,5.6
			c11.1,1.8,13.5,2.2,15.2-5.2c0,0,28.6,9.5,74.3,16.1c45.7,6.6,67.8,9.2,98.3,7.7s45.8-12.5,45.8-12.5c1.7-4,2.6-7.7,2.9-11.1
			C1320.9,1734.7,1318.3,1737.6,1305,1740.5z"/>
		<path opacity="0.3" fill="#091426" enable-background="new    " d="M1305,1740.5c-18,3.9-55.8,5.2-90,2.7s-85.2-11.8-96-14.8
			c-10.9-3-14.3-5.2-16.9-4.3c-2.6,0.9-4.3-1.4-5.8,7.4c0,0-17.1-2.2-20.2-2.5s0.9-12.7,2.1-16.5c1.3-3.8,4.2-2.4,14.2,0
			s45.2,9.5,86.7,14.8s71.4,8.7,103.8,4.6c29.5-3.7,31.2-12.2,31.7-19.7c-2-0.6-3.7-0.7-3.7-0.8c0,0-1.6,12.2-22.3,15
			c-20.6,2.8-46.8,4.3-87,0s-63.8-7.8-96.3-16.6c-32.5-8.7-47.1-13.1-47.7-13.1c0,0-18.2,26.1-23.6,37.5
			c-5.4,11.3-32.8,41.4-42.8,51.9s-27.3,22.1-47.5,29.2c-20.2,7.2-47.2,9.7-82.2,3.5c-34.9-6.2-45-18.6-45-18.6l0.1,7.1
			c2.5,1.7,6,3.8,11,6.4c17.3,9.1,43.5,15,79.5,13.6s68-18.8,78.7-30.1s43.1-46.6,51.3-61.6c8.3-15.1,19.6-34.4,19.6-34.4l1.9,26.1
			l1.3,2.1v-1.8c0,0,15.7,3.8,26.8,5.6c11.1,1.8,13.5,2.2,15.2-5.2c0,0,28.6,9.5,74.3,16.1c45.7,6.6,67.8,9.2,98.3,7.7
			s45.8-12.5,45.8-12.5c1.7-4,2.6-7.7,2.9-11.1C1320.9,1734.7,1318.3,1737.6,1305,1740.5z"/>
	</g>
	<path fill="#888888" d="M987.3,1548.6c-0.4-4.4-1.6-10.7-2.9-15.5c-0.6-2.4-1.3-4.5-1.8-5.8c-2.3-5.4-3.5-6.1-8.9-5.4
		s-20.4,4-20.4,4c2.1,4.3,7.4,33.3,7.4,33.3s24.1-3.9,26.1-5.4C987.5,1553.4,987.6,1551.4,987.3,1548.6z"/>
	<path opacity="0.3" fill="#091426" enable-background="new    " d="M969.8,1548c0,0,6.5-5.7,14.6-15c-0.6-2.4-1.3-4.5-1.8-5.8
		c-2.3-5.4-3.5-6.1-8.9-5.4s-20.4,4-20.4,4c2.1,4.3,7.4,33.3,7.4,33.3s24.1-3.9,26.1-5.4c0.6-0.4,0.7-2.5,0.4-5.3L969.8,1548z"/>
	<g>
		<path fill="#694F3D" d="M776.8,1697.4c0.1,0,0.1-0.1,0.2-0.1C776.8,1697.3,776.8,1697.3,776.8,1697.4
			C776.7,1697.3,776.7,1697.4,776.8,1697.4z"/>
		<path fill="#694F3D" d="M1283.5,1649.4L1283.5,1649.4c0.1-0.1,0-0.1,0-0.2C1283.5,1649.3,1283.5,1649.3,1283.5,1649.4z"/>
		<path fill="#694F3D" d="M1267,1632.6c-0.1-0.1-0.3-0.2-0.4-0.3c0,0.1,0.1,0.2,0.1,0.3C1266.8,1632.6,1266.9,1632.6,1267,1632.6z"
			/>
		<path fill="#694F3D" d="M961.7,1732.4c-5.3-2.3-10.8-4.1-16.7-4.1c-6.4,0-12.4,2.3-18.5,4.3c-12.1,4-23.9,5.3-36.6,6.1
			c-1.8,0.1-3.4,1.2-4,3c-0.4,1.2-0.7,2.4-0.9,3.7l0,0c-1.2,1.4-1.2,3.2,0,4.6c3.9,4.6,13.6,2.6,19,3.2c7.6,0.8,14.6,1.6,22.2,0.5
			c8-1.2,15.9-3,23.8-4.7c4.9-1,9.8-2.6,12-6.7C965.3,1740.1,965.7,1734.2,961.7,1732.4z"/>
		<path fill="#694F3D" d="M975.7,1698c-12.4-11.6-28-17.3-44.3-21c-0.5-0.1-0.9,0.6-0.4,0.9c6.7,3.4,14.5,4.7,21.4,7.9
			c7.1,3.3,13.4,7.8,19.2,13c12.2,10.8,22.4,24.8,23,41.7c0.1,1.8,2.8,1.8,2.8,0C997.1,1724.2,987.3,1708.9,975.7,1698z"/>
		<path fill="#694F3D" d="M925.1,1655.2c3.3,0.7,6.5,1.7,9.9,2.1c2.5,0.3,4.4,0.9,6.5,2.1c1.3,0.8,2.1,1.4,3.6,1.7
			c0.3,0.1,0.6-0.2,0.5-0.5c-1-3.2-4.7-4.6-7.6-5.8c0.3,0,0.6,0,0.9-0.1c4.3-0.3,8.5-1,12.8-1.9c0.5-0.1,0.9-0.4,1.2-0.7
			c2.2,0.4,4.3,0.8,6.5,1c2.7,0.3,2.7-4,0-4.3c-5.5-0.7-11-1.6-16.4-2.9c-4.7-1.1-8.6-3.1-12.9-5c-1-0.4-2.4,0.5-1.7,1.7
			c2.4,3.9,7.6,5.2,11.8,6.4c1.2,0.4,2.5,0.7,3.7,1c-2.2,0.5-4.4,0.8-6.6,1.1c-3.2,0.3-6.4,0.1-9.3,1.5c-0.3,0.2-0.3,0.7,0,0.8l0,0
			c-0.9,0-1.9,0-2.8,0C924.4,1653.5,924.1,1655,925.1,1655.2z"/>
		<path fill="#694F3D" d="M782.9,1693.5c-9.7,0.8-28.9,9.1-21.7,22.2c2.2,3.9,4.8,4.7,6.6,0.6c3.3-7.4,7.4-13.3,12.8-19
			c0.9-0.6,1.8-1.1,2.7-1.4C784.4,1695.5,784.4,1693.4,782.9,1693.5z M776.8,1697.4C776.7,1697.4,776.7,1697.3,776.8,1697.4
			c0-0.1,0.1-0.1,0.2-0.1C776.9,1697.3,776.8,1697.3,776.8,1697.4z"/>
		<path fill="#694F3D" d="M1076.5,1514c-5.1,5.1-14.6,7.1-21.5,8.9c-7,1.8-14.3,2.1-21.3,3.6c-0.5,0.1-0.6,0.9-0.1,1.1
			c3.3,1.5,7,0.7,10.5,0.3c4.5-0.6,9-1.5,13.4-2.7c4.6-1.2,9.1-2.7,13.5-4.4c3-1.2,6.1-2.2,7.9-5
			C1079.7,1514.4,1077.7,1512.9,1076.5,1514z"/>
		<path fill="#694F3D" d="M1155.5,1493.3c-3.4,0.8-6.9,2.7-10.1,3.9c-3.3,1.2-6.5,2.6-9.8,4c-0.6,0.3-0.2,1.1,0.4,1
			c4.2-1.1,8.3-2.3,12.4-3.6c1.7-0.5,4-1.7,5.8-1.7c1.2-1,2-0.7,2.3,0.7c-0.1,1-0.1,2-0.1,3.1c-0.1,2.4,3.6,2.4,3.7,0
			C1160.1,1497.2,1160.3,1492.3,1155.5,1493.3z"/>
		<path fill="#694F3D" d="M1205,1479.4c-2.3-0.7-4.9-0.2-7.2-1.1c-1.8-0.7-3.1,2.3-1.3,3.2c1.4,0.7,2.7,1.1,4.3,1.3
			c0.8,0.1,1.6,0.1,2.4,0.3c0.8,0.1,1.1,0.1,1.2,0.9c0.4,1.9,3.1,1.6,3.6,0C1208.8,1481.8,1207,1480,1205,1479.4z"/>
		<path fill="#694F3D" d="M1181,1593.8c-2.7,0.1-5,2.5-7,4.2c-2.6,2.3-5.1,4.6-7.5,7.1c-1.9,1.9,1,4.5,2.8,2.8l0,0
			c2.3-2.3,4.7-4.6,7.1-6.8c1.9-1.8,4.7-3.6,5.4-6.3C1182,1594.3,1181.6,1593.8,1181,1593.8z"/>
		<path fill="#694F3D" d="M1187.3,1598.6c-2.2,0.4-5.3,2.4-6,4.5c-0.2,0.5,0.3,1.1,0.8,1.1c1.1-0.1,2.1-0.7,3.1-1.1
			c0.9-0.4,1.9-0.7,2.8-1c0.7,0,1.3-0.3,1.4-1.2c0-0.1,0-0.1,0-0.2C1189.6,1599.4,1188.7,1598.4,1187.3,1598.6z"/>
		<path fill="#694F3D" d="M1293.4,1656.7c-4.3-6.7-9.3-13.1-14.9-18.8c-5.5-5.6-11.5-10.6-17.9-15.1c-3.5-2.5-7.2-4.9-10.9-7.1
			c-3-1.7-6.2-4.2-9.8-4.2c-0.9,0-1.7,1.1-1.1,1.9c2,2.6,5.3,3.8,8.2,5.4c3.1,1.8,6.1,3.7,9.1,5.7c2.4,1.6,4.8,3.4,7.1,5.2
			c0.7,1.8,1,3.8,1,5.9c0,0.3-0.1,0.5-0.1,0.8c-0.2,2.1-0.7,4.2-1.6,5.8c-1.7,3.1-5,4.3-7,7c-1.9,2.8-0.6,6.2,2.3,7.7
			c4.4,2.4,10.9,0.7,15.2-0.9c4.6-1.7,9.8,0.5,13.9-2.4c1.2,1.6,2.4,3.2,3.5,4.9c2.1,3.1,4.2,6.3,6,9.7c1.7,3.1,2.9,6.7,5.1,9.5
			c0.3,0.4,1.1,0.1,1.1-0.5C1302.2,1670.2,1297.1,1662.4,1293.4,1656.7z M1283.5,1649.4L1283.5,1649.4
			C1283.5,1649.4,1283.6,1649.4,1283.5,1649.4C1283.6,1649.4,1283.6,1649.4,1283.5,1649.4z M1267,1632.6c-0.1,0-0.2,0-0.3,0
			c0-0.1-0.1-0.2-0.1-0.3C1266.7,1632.4,1266.8,1632.5,1267,1632.6z"/>
	</g>
	<path opacity="0.3" fill="#091426" enable-background="new    " d="M1193.7,1488.9c4.7-3.3,9-3.6,10.6-2s2,2.6,2,2.6
		s-1.6,1.6-6.5,2.1s-5.4,0.8-5.4,0.8L1193.7,1488.9z"/>
	<path fill="#D8D8D8" d="M1177,1508.8c-0.1-9,2.2-12.9,6.4-18.1c4.2-5.2,10-5,10.9-3s0.6,4.5,0.6,4.5s-3.6,0.4-7.1,4.4
		s-4.9,9.8-4.9,9.8L1177,1508.8z"/>
	<g>
		<g>
			<ellipse fill="#888888" cx="1150" cy="1513.4" rx="6.1" ry="6.5"/>
			<ellipse fill="#888888" cx="1146.5" cy="1533.4" rx="6.5" ry="7.9"/>
			<ellipse fill="#888888" cx="1144.8" cy="1555.6" rx="6.2" ry="6.1"/>
			<ellipse fill="#888888" cx="1146" cy="1576" rx="6.9" ry="7.5"/>
			<ellipse fill="#888888" cx="1148.2" cy="1596.7" rx="6" ry="6.5"/>
			<path fill="#62656A" d="M1156.1,1513.4c0-0.4,0-0.9-0.1-1.3c-1.6,0.4-3.8,0.7-4.4-0.6c-0.8-1.6-3-1.3-3.8,0
				c-1.4,2.1-0.2,4.4,1.7,5.6h-0.1c-3.6-0.4-3.4-3.9-4.7-6.7c0-0.1-0.1-0.1-0.1-0.1c-0.5,0.9-0.7,2-0.7,3.1c0,3.6,2.7,6.5,6.1,6.5
				S1156.1,1517,1156.1,1513.4z"/>
			<g>
				<path fill="#62656A" d="M1141.4,1534.7c0.4,2.7,3.5,2.9,5.7,3.3c1.5,0.2,2.9,0.4,4.4,0.4c0.9-1.4,1.5-3.1,1.5-5
					c0-0.4,0-0.8-0.1-1.2c-0.4,0.1-0.8,0.1-1.2,0.2c-0.1-0.5-0.4-1-0.9-1.4c-1.7-1.3-3.9-2-6-1.3
					C1142.7,1530.5,1141.1,1532.6,1141.4,1534.7z"/>
				<path fill="#62656A" d="M1140.1,1535c0.6,3.6,3.2,6.3,6.3,6.3c1.6,0,3-0.7,4.1-1.8C1146.6,1539.7,1142.1,1538.2,1140.1,1535z"/>
			</g>
			<path fill="#62656A" d="M1139.1,1557.7L1139.1,1557.7c0.8,2.3,3.1,4,5.8,4c2.4,0,4.5-1.3,5.5-3.2c-0.1-0.3-0.2-0.6-0.3-1
				c-0.5-1.1-1.4-1.9-2.5-2.4c-0.6-0.3-1.2-0.4-1.9-0.6l0,0c-0.9-1.1-2.4-1.5-3.7-0.6c-1.9,1.3-1.5,3.6,0.1,4.8c-0.1,0-0.1,0-0.2,0
				C1140.5,1559,1140.1,1558.3,1139.1,1557.7z"/>
			<path fill="#62656A" d="M1152,1579.7c-0.8-0.8-2-1-3.2-0.1c-1,0.7-2.9,1.1-4.1,1c-2-0.1-2.5-1-3.4-2.6c-0.9-1.7-1.1-3.6-1.5-5.4
				c-0.5,1-0.8,2.2-0.8,3.4c0,4.1,3.1,7.5,6.9,7.5C1148.6,1583.5,1150.8,1582,1152,1579.7z"/>
			<path fill="#62656A" d="M1148.2,1603.2c3.3,0,6-2.9,6-6.5c0-1.2-0.3-2.4-0.9-3.4c-3.3,0.7-6.3,1.9-8.2,4.8
				c-0.3,0.5-0.5,1-0.5,1.5c-0.8-0.5-1.5-1.1-2.3-1.5C1142.9,1601,1145.3,1603.2,1148.2,1603.2z"/>
			<path fill="#EEEEEE" d="M1145,1594.7c0.1-0.1,0.2-0.1,0.2-0.2c0.2-0.3-0.2,0,0.2-0.2c0.3-0.1,0.5-0.3,0.7-0.5
				c0.5-0.4,1.3-0.6,1.7-1.1c0.4-0.5,0.2-1.5-0.6-1.4c-0.8,0.1-1.7,0.7-2.2,1.3c-0.3,0.3-0.5,0.6-0.5,1.1c0,0.3-0.1,0.6,0.1,0.9
				C1144.7,1594.7,1144.9,1594.8,1145,1594.7L1145,1594.7z"/>
			<path fill="#EEEEEE" d="M1143.3,1572.4c0.6,0,1.2-0.6,1.7-0.9c1.1-0.8-0.1-2.4-1.2-1.5c-0.5,0.4-1.3,1-1.2,1.7
				C1142.6,1572.1,1142.9,1572.4,1143.3,1572.4L1143.3,1572.4z"/>
			<path fill="#EEEEEE" d="M1143.2,1552.7c0.3-0.2,0.7-0.3,1-0.4c1-0.4,0.1-2-0.9-1.5c-0.5,0.2-0.7,0.6-1,1
				C1142.1,1552.4,1142.7,1553,1143.2,1552.7L1143.2,1552.7z"/>
			<path fill="#EEEEEE" d="M1143.8,1529.3c0.2-0.1,0.3-0.2,0.5-0.3c0.2-0.1,0.4-0.2,0.5-0.3c0.4-0.2,0.6-0.7,0.5-1.1v-0.1
				c-0.2-0.7-1.3-1-1.7-0.2v0.1c0.1-0.1,0.2-0.2,0.4-0.4c-0.6,0.4-0.9,0.8-1.2,1.4C1142.1,1529.2,1143.1,1529.9,1143.8,1529.3
				L1143.8,1529.3z"/>
			<path fill="#EEEEEE" d="M1148.7,1509.2c0.2,0,0.4,0.1,0.5,0.1c0.5,0.2,1-0.2,1.1-0.7c0.1-0.6-0.3-0.9-0.9-1
				c-0.5-0.1-0.9,0.1-1.3,0.3C1147.4,1508.3,1148,1509.4,1148.7,1509.2L1148.7,1509.2z"/>
		</g>
		<g>
			<path fill="#888888" d="M1021.4,1620.4c-1,4.8-3.9,8.3-6.5,7.8s-4-4.9-3.1-9.7c1-4.8,2.5-8.8,6.5-7.8
				C1022.2,1611.7,1022.3,1615.6,1021.4,1620.4z"/>
			
				<ellipse transform="matrix(0.3057 -0.9521 0.9521 0.3057 -865.0728 2104.979)" fill="#888888" cx="1010.8" cy="1645.7" rx="7" ry="4.5"/>
			
				<ellipse transform="matrix(0.1713 -0.9852 0.9852 0.1713 -722.8319 2327.218)" fill="#888888" cx="1022" cy="1593.3" rx="7.3" ry="5"/>
			<path fill="#888888" d="M1028.4,1565.4c0.7,6.1-0.9,9.5-4.9,9.9c-3.1,0.3-6.1-3.7-6.5-8.9c-0.5-5.2,1.7-9.6,4.9-9.9
				C1026.2,1556,1027.8,1560.2,1028.4,1565.4z"/>
			
				<ellipse transform="matrix(0.9803 -0.1974 0.1974 0.9803 -284.4587 231.7037)" fill="#888888" cx="1020" cy="1542.7" rx="4.9" ry="7"/>
			<path fill="#62656A" d="M1014.8,1617.8L1014.8,1617.8c-0.1,0-0.2,0.1-0.2,0.1C1014.7,1617.9,1014.7,1617.9,1014.8,1617.8z"/>
			<path fill="#62656A" d="M1014.9,1617.8C1014.9,1617.8,1015,1617.8,1014.9,1617.8C1015,1617.7,1014.9,1617.8,1014.9,1617.8
				L1014.9,1617.8z"/>
			<path fill="#62656A" d="M1017.4,1543.3C1017.4,1543.4,1017.4,1543.4,1017.4,1543.3C1017.4,1543.4,1017.4,1543.3,1017.4,1543.3
				L1017.4,1543.3z"/>
			<path fill="#62656A" d="M1026,1570c-2.3,1.6-4.5,1.5-6.7,1.3c0.8-0.2,1.7-0.5,2.5-0.9c2-0.8,3.5-1.9,3-4.3
				c-0.2-0.8-0.9-1.5-1.6-1.6c-0.4-0.1-0.7-0.1-1.1-0.1c-0.2,0-0.4,0-0.5,0.1c-0.3,0.2-0.3,0.2-0.2-0.1c-0.9-0.1-1.4,0.7-1.4,1.4
				c-0.5,0.2-1.1,0.4-1.6,0.5c-0.4,0.2-0.8,0.3-1.2,0.5c0.6,4.9,3.4,8.6,6.4,8.3c3.7-0.3,5.3-3.3,5-8.5
				C1027.9,1568,1027.2,1569.1,1026,1570z"/>
			<path fill="#62656A" d="M1023.3,1592.9c0-0.2,0-0.5-0.1-0.7c0-0.2-0.2-0.8-0.4-1.2c-0.7-1.2-2.4-0.7-2.7,0.4
				c-1-0.3-2.3,0.2-2.8,1.1c-0.7,1.3-0.3,2.8,0.7,3.8c1.2,1,3,1.1,4.1-0.1c0.4-0.4,0.6-0.9,0.8-1.4c0.1-0.2,0.2-0.3,0.2-0.5
				C1023.4,1593.7,1023.2,1593.4,1023.3,1592.9C1023.3,1593.2,1023.3,1593.1,1023.3,1592.9z"/>
			<path fill="#62656A" d="M1026.2,1596.5c-1,0.7-2.1,1.3-3.3,1.6c-1.8,0.5-3.4,0.2-5-0.1c0.7,1.3,1.7,2.1,2.9,2.4
				C1022.9,1600.8,1025,1599.1,1026.2,1596.5z"/>
			<path fill="#62656A" d="M1017.1,1622.5c0.8-0.6,1.6-1.4,1.9-2.4c0.2-1,0.1-2-0.5-2.7c-0.3-0.5-0.6-1-1.2-1.3
				c-0.9-0.5-1.9,0-2.3,0.9c-0.1,0.2-0.1,0.3-0.1,0.5c-0.1,0.1-0.2,0.2-0.2,0.3c-0.1,0.1-0.1,0.2-0.1,0.2l0,0c0,0,0,0,0,0.1
				c-0.4,0.2-0.8,0.5-1,0.9c-0.5,0.7-0.4,1.6-0.1,2.3C1013.9,1622.7,1015.7,1623.4,1017.1,1622.5z M1014.9,1617.8L1014.9,1617.8
				C1015,1617.8,1015,1617.7,1014.9,1617.8C1015,1617.8,1014.9,1617.8,1014.9,1617.8z M1014.8,1617.8c-0.1,0-0.2,0.1-0.2,0.1
				C1014.7,1617.9,1014.7,1617.9,1014.8,1617.8L1014.8,1617.8z"/>
			<g>
				<path fill="none" d="M1017.4,1543.4C1017.4,1543.4,1017.4,1543.3,1017.4,1543.4C1017.4,1543.3,1017.4,1543.3,1017.4,1543.4
					L1017.4,1543.4z"/>
				<path fill="#62656A" d="M1023.8,1539c-0.5,1.7,0.2,3.6-0.9,5.4c-0.8,1.2-1.7,2.3-3.1,2.6c-0.9,0.2-1.8,0.3-2.8,0.3
					c1.6-1.2,3.4-2.7,3.6-4.7c0.1-0.6-0.4-1.4-1-1.7c-0.3-0.2-0.6-0.2-1-0.3l0,0c0,0,0,0-0.1,0c-0.3,0-0.5,0-0.8,0.1
					c-0.4,0.1-0.7,0.4-0.8,0.7c-0.2,0.1-0.6,0.4-0.9,0.5c-0.3,0.2-0.7,0.4-1,0.6c0,0.4,0.1,0.8,0.2,1.2c0.8,3.8,3.5,6.4,6.2,5.9
					c2.7-0.5,4.2-4,3.4-7.8C1024.6,1540.7,1024.3,1539.8,1023.8,1539z M1017.4,1543.4L1017.4,1543.4
					C1017.4,1543.3,1017.4,1543.3,1017.4,1543.4C1017.4,1543.3,1017.4,1543.4,1017.4,1543.4z"/>
			</g>
			
				<ellipse transform="matrix(0.3057 -0.9521 0.9521 0.3057 -865.0728 2104.979)" fill="#888888" cx="1010.8" cy="1645.7" rx="7" ry="4.5"/>
			<path fill="#62656A" d="M1014.5,1648.6c-0.8,0.6-1.6,1.1-2.6,1.4c-1.3,0.4-2.9,0.8-4.1,0.1c-0.2-0.1-0.9-0.8-1.4-1.4
				c2,0.1,4.3,1.7,5.8-0.5c1.2-1.8,0.2-3.7-1.7-4.4c-0.8-0.3-1.5,0.1-2,0.6c-0.6-0.1-1.3-0.2-1.9-0.3c0,0.1-0.1,0.1-0.1,0.2
				c-1.2,3.7-0.2,7.3,2.2,8C1010.7,1652.9,1013.1,1651.3,1014.5,1648.6z"/>
			<path fill="#62656A" d="M1020.8,1622.4c-1,0.4-2.4,1-4.4,1.9c-1.6,0.7-3.2,0.7-4.4,0.6c0.6,1.8,1.6,3,2.9,3.3
				C1017.1,1628.6,1019.6,1626.1,1020.8,1622.4z"/>
			<path fill="#EEEEEE" d="M1020.1,1538.8c0.2,0.1,0.4,0.3,0.5,0.5c-0.1-0.3-0.2-0.6-0.2-0.9c0,0.1,0,0.1-0.1,0.2
				c-0.2,0.6,0.3,1,0.8,1.1c0.3,0,0.6-0.1,0.8-0.3c0.4-0.3,0.4-1,0-1.3c-0.3-0.3-0.6-0.5-1-0.7
				C1020,1536.7,1019.1,1538.2,1020.1,1538.8L1020.1,1538.8z"/>
			<path fill="#EEEEEE" d="M1020.3,1561.3c0.3,0.6,0.9,1.3,1.6,1.5c0.8,0.2,1.7-0.5,1.5-1.3c-0.1-0.7-0.8-1.3-1.4-1.6
				c-0.8-0.5-1.7,0-1.8,1s1.4,1.3,1.8,0.5v-0.1c-0.1,0.1-0.2,0.2-0.4,0.4c0,0,0,0-0.1,0c-0.2,0-0.4,0-0.5,0s0.2,0.2,0.2,0.2
				c0.1,0.1,0.2,0.1,0.2,0.3c0-0.2-0.1-0.3-0.1-0.5v0.1c0-0.2,0.1-0.3,0.1-0.5c0,0,0,0.1-0.1,0.1c0.1-0.1,0.2-0.2,0.4-0.4
				c0,0-0.1,0-0.1,0.1c0.2,0,0.3-0.1,0.5-0.1h-0.1c0.2,0,0.3,0.1,0.5,0.1c-0.2-0.1-0.4-0.3-0.6-0.4c-0.3-0.2-0.5-0.3-0.9-0.4
				C1020.5,1560.1,1020,1560.8,1020.3,1561.3L1020.3,1561.3z"/>
			<path fill="#EEEEEE" d="M1022.6,1588.9c0.3,0.1,0.5,0.3,0.7,0.6c0.1,0.3,0.2,0.6,0.5,0.8c0.3,0.1,0.6,0.1,0.7-0.2
				c0.6-0.9-0.9-1.9-1.6-2.1C1022.3,1587.9,1022,1588.7,1022.6,1588.9L1022.6,1588.9z"/>
			<path fill="#EEEEEE" d="M1017.3,1612.7c-0.5,1,0,2.1,0.9,2.7c0.4,0.3,1.1,0.1,1.3-0.4c0.4-0.9,0.2-2.2-0.7-2.7
				c-1-0.5-2.4,0.4-1.9,1.5c0.2,0.5,0.7,0.8,1.2,0.7c0.5-0.1,0.9-0.7,0.7-1.2v-0.1c0,0.2,0,0.4,0,0.5c-0.2,0.1-0.3,0.3-0.5,0.4
				c-0.2,0-0.3-0.1-0.5-0.1c0.1,0-0.2-0.2,0,0c0,0,0,0.2,0.1,0.1c0.4-0.1,0.9-0.2,1.3-0.4c-0.2-0.1-0.2-0.5-0.3-0.8
				C1018.8,1612.2,1017.7,1612.1,1017.3,1612.7L1017.3,1612.7z"/>
			<path fill="#EEEEEE" d="M1013.3,1642.9c0.1,0.5,0,1,0.1,1.4c0.1,0.7,1.4,0.9,1.7,0.2c0.4-0.9,0-1.9-0.8-2.4
				C1013.7,1641.8,1013.1,1642.3,1013.3,1642.9L1013.3,1642.9z"/>
		</g>
		<g>
			<ellipse fill="#888888" cx="923.6" cy="1549.4" rx="3.1" ry="4.8"/>
			<ellipse fill="#888888" cx="922.6" cy="1568.4" rx="3.8" ry="6.5"/>
			<path fill="#888888" d="M925.8,1595.3c-0.6,3.7-2.5,6.4-4.2,6.1c-1.8-0.3-2.7-3.5-2.2-7.1c0.6-3.7,0.8-7.7,4.2-6.1
				C925.7,1589.2,926.3,1591.7,925.8,1595.3z"/>
			<ellipse fill="#888888" cx="920.1" cy="1618.8" rx="3.2" ry="6.1"/>
			<path fill="#62656A" d="M921.9,1623.9c-0.4,0-0.8-0.1-1-0.2c-0.7-0.3-0.4-0.6-0.2-1.2c0.1-0.4,0.2-0.8,0.3-1.1
				c0.5-0.2,0.9-0.6,1.1-1.2c0.7-1.9-0.8-4.1-2.2-5.3c-0.5-0.4-1.2-0.7-1.9-0.8c-0.7,1.1-1.1,2.8-1.1,4.6c0,3.4,1.4,6.1,3.2,6.1
				C920.8,1624.9,921.4,1624.5,921.9,1623.9z"/>
			<path fill="#62656A" d="M925.9,1594.4c0-0.5-0.2-0.9-0.6-1.3c-0.9-1-2.4-1.1-3.5-0.4c-1.4,0.8-1.7,2.4-1.4,3.9
				c0.1,0.8,0.5,1.5,0.9,2.2c-0.9-0.3-1.4-0.8-2-1.5c0.2,2.3,1,4,2.3,4.1c1.8,0.3,3.6-2.5,4.2-6.1
				C925.8,1595,925.9,1594.7,925.9,1594.4z"/>
			<path fill="#62656A" d="M922.9,1570.8c-0.3-0.6-0.9-1.5-1-1.6c-0.5-0.8-1-1.6-1.6-2.3c-0.4-0.4-0.8-0.7-1.1-0.9
				c-0.2,0.7-0.3,1.5-0.3,2.3c0,3.6,1.7,6.5,3.8,6.5c1.6,0,3-1.7,3.5-4.2C925.1,1570.2,923.9,1570.1,922.9,1570.8z"/>
			<path fill="#62656A" d="M921.8,1545.6c-0.7,0.9-1.2,2.2-1.2,3.8c0,2.6,1.4,4.8,3.1,4.8s3.1-2.1,3.1-4.8c0-1.6-0.5-3-1.2-3.8
				C924.2,1545.4,922.9,1545.4,921.8,1545.6z"/>
			<path fill="#EEEEEE" d="M921.9,1589.9c-0.1,0.9,0.3,1.6,0.8,2.2c0.4,0.4,1,0.3,1.4,0c0.5-0.5,0.6-1.3,0.2-1.9
				c-0.4-0.6-1.1-0.8-1.8-0.9c0.3,0.5,0.6,1,0.9,1.5c0.1-0.1,0.1-0.1,0.2-0.2c0.5-0.8-0.5-1.9-1.3-1.3c-0.1,0.1-0.3,0.2-0.4,0.3
				c-0.3,0.2-0.4,0.8-0.2,1.1c0.2,0.4,0.5,0.6,0.9,0.6l0.3,0.1c-0.1,0.1-0.3-0.4-0.1-0.6c0.5,0,0.9,0,1.4,0
				c-0.3-0.3-0.6-0.8-0.7-1.3c-0.1-0.3-0.6-0.4-0.9-0.4C922.1,1589.3,921.9,1589.6,921.9,1589.9L921.9,1589.9z"/>
			<path fill="#EEEEEE" d="M922.2,1566c0.6,0.2,1.2,0.2,1.7-0.1c0.7-0.3,1-1.3,0.2-1.8c-0.7-0.4-1.4-0.5-2.1-0.3
				c-0.5,0.1-0.8,0.7-0.7,1.2c0.2,0.6,0.7,0.8,1.2,0.7c0.2,0,0.4,0,0.6,0.1c0-0.6,0-1.1,0-1.7c-0.2,0.1-0.5,0.1-0.7,0.1
				C921.4,1564.1,921.2,1565.7,922.2,1566L922.2,1566z"/>
		</g>
		<g>
			<ellipse fill="#888888" cx="878.7" cy="1627.6" rx="7.5" ry="8.7"/>
			<ellipse fill="#888888" cx="890.4" cy="1601.8" rx="6" ry="7.6"/>
			<circle fill="#888888" cx="901.4" cy="1581" r="7.5"/>
			<path fill="#62656A" d="M908.7,1582.5c-2.2,0.4-4.1,1.3-6.3,1.3c1.9-0.7,1.9-4.1-0.3-4.7c-2.3-0.7-4.8-1.8-7.3-1.5
				c-0.5,1-0.8,2.2-0.8,3.4c0,4.1,3.3,7.5,7.5,7.5C905,1588.5,908,1585.9,908.7,1582.5z"/>
			<path fill="#62656A" d="M890.4,1609.3c3.1,0,5.6-3,5.9-6.8c-0.7,1-1.2,2-2.4,2.7c-0.7,0.3-1.4,0.6-2.1,0.7c-0.2,0-0.5,0-0.7,0
				c0.3-0.3,0.6-0.6,0.8-0.9c0.9-1.5,0.3-2.3-0.2-3.8c-0.5-1.4-2.3-1.2-2.7,0.1c-0.1,0-0.2,0-0.4,0s-0.5,0.1-0.7,0.1
				c-0.6,0.2-1.3,0.5-1.8,0.9s-1,0.8-1.4,1.4C885.4,1607,887.7,1609.3,890.4,1609.3z"/>
			<path fill="#62656A" d="M878.7,1636.3c4.1,0,7.5-3.9,7.5-8.7c0-0.5,0-1-0.1-1.5c-0.8,1.2-1.8,2.1-2.9,3.1c-1.1,1-1.9,2.3-3,3.3
				c-1.7,1.5-4,1.1-5.1-0.7c1.4-1.3,3-1.9,3.4-4.4c0.2-1.5-1.1-2.8-2.6-2c-1.4,0.8-3.1,1.4-4.6,2.3
				C871.3,1632.4,874.6,1636.3,878.7,1636.3z"/>
			<path fill="#EEEEEE" d="M881.6,1622.5c0.3,0.1,0.5,0.4,0.7,0.6c0.3-0.6,0.6-1.1,1-1.7h-0.1c-0.5-0.1-1.1,0.1-1.2,0.7
				c-0.1,0.5,0.2,1.2,0.7,1.2h0.1c1,0.1,1.6-0.9,1-1.7c-0.4-0.5-1-0.9-1.6-1.1c-0.5-0.2-1.1,0.2-1.2,0.7
				C880.8,1621.8,881.1,1622.3,881.6,1622.5L881.6,1622.5z"/>
		</g>
		<path fill="#272727" d="M920.5,1550c6.7,3.7,16.9,3.5,24.4,4.1c8.8,0.7,17.7,1,26.6,0.5c15.8-0.9,33-3.6,47.2-10.8
			c2.6-1.3,0.8-5.3-1.9-4.6c-15.7,4.2-30.7,8.8-47.2,9.5c-8.2,0.4-16.4,0.1-24.6-0.6c-7.5-0.6-16.7-3.2-24-1.3
			C919.5,1547.2,919.2,1549.3,920.5,1550z"/>
		<path fill="#272727" d="M1022.3,1568.2c2.3-1.6,0.1-5.4-2.2-3.7c-5.9,4.2-14,5.8-21,7.6c-7.4,1.9-15,3.4-22.6,4.1
			c-4.1,0.4-8.3,0.6-12.4,0.8c-14.5-5-27.9-11.3-39.5-21.8c-1.5-1.4-4.4,0.5-3,2.3c6.6,9.2,17,15.4,27.7,20
			c-4.2,0.1-8.5,0.2-12.4,0.9c-4.3-3.3-8.1-6.8-12.1-10.9c-2.1-2.1-5,0.6-3.9,3c3.4,7.1,11.5,12,17.8,16c6.2,4,12.8,7.5,19.4,11
			c-3.8,0-7.7-0.1-11.5-0.2c-6.7-0.3-13.2-1.6-19.7-2.5c-1.1-0.5-2.2-0.9-3.4-1.4c-1.9-0.7-3.7,2.2-2.1,3.5
			c6.6,5.2,14.3,8.9,21.6,13.2c5.4,3.2,10.7,6.5,15.9,9.8c-10.4,0.5-20.9,0.9-31.3,0.1c-2.6-1.5-5.1-3.1-7.8-4.7
			c-2.2-1.3-4.4,1.7-2.7,3.5c0.4,0.4,0.9,0.8,1.3,1.2c-1.1,1.1-1.1,3.1,0.9,3.5c1.5,0.3,3,0.5,4.5,0.8c10.7,7.3,24.8,11,36.5,14.6
			c8.5,2.6,17.2,5.1,25.8,7.1c8.4,2,17,3.7,25.6,1.9c1.7-0.4,2.1-2.5,1.3-3.8c0-0.9-0.4-1.8-1.4-2.3c-7.3-3.7-15.3-5.5-22.6-9.5
			c-4.6-2.5-9.1-5.3-13.6-8.1c11.5-0.4,23-1,34.4-2.3c0.9,0.2,1.9,0.4,2.8,0.5c3.6,0.5,5.3-5,1.5-5.6c-12.5-1.9-24.2-8.2-35.5-14.5
			c13.1,0,26.8-0.3,38.4-6.3c1,0,2,0,3,0c2.1-0.1,2.9-2,2.6-3.6c1.5-2-0.7-5.3-3-3.7c-0.8,0.6-1.7,1.2-2.6,1.7c-8-0.3-16-3.1-23.7-5
			c-5.5-1.4-11.1-2.8-16.5-4.4c1.2-0.1,2.3-0.2,3.5-0.3C994.3,1579.4,1010.7,1576.4,1022.3,1568.2z M986.3,1636.7
			c4.7,2.6,9.7,4.4,14.6,6.5c-5.1-0.5-10.2-1.7-15.3-2.8c-8.1-1.8-16.1-4-24-6.5c-7.3-2.2-14.6-4.5-21.6-7.4
			c-0.9-0.4-1.8-0.8-2.7-1.2c9.5,0.2,19-0.4,28.3-0.8c0.2,0,0.4,0,0.6,0C972.8,1628.7,979.5,1632.9,986.3,1636.7z M997.6,1617.9
			c-9.9,0.6-19.7,1.3-29.6,1.7c-0.2-0.1-0.4-0.2-0.6-0.4c-7.3-4.5-14.6-9-21.9-13.5c-2.2-1.4-4.4-2.8-6.7-4.2
			c2.3,0.2,4.5,0.4,6.7,0.5c7.1,0.4,14.3,0.4,21.5,0.4c6.9,3.6,13.9,7.3,20.8,10.9C991.1,1614.8,994.3,1616.4,997.6,1617.9z
			 M964.2,1583.1c9.1,3.1,18.4,5.6,27.7,8c4.9,1.2,10,2.7,15.2,3.8c-11.5,3.4-24.4,2.7-36.2,2.7c-0.3,0-0.6,0-0.9,0
			c-1-0.6-2.1-1.1-3.1-1.6c-7.8-4-15.6-8.1-23-12.7c-0.1,0-0.1-0.1-0.2-0.1c4.3-0.1,8.7-0.6,12.8-0.9c1.5-0.1,3-0.2,4.6-0.2
			C962.1,1582.4,963.1,1582.7,964.2,1583.1z"/>
		<g>
			<path fill="#888888" d="M908.4,1552.2c0.4,1-0.1,2-0.9,2.6c-0.4,1.2-2,1.9-3.2,0.8c-0.1-0.1-1.3-0.2-1.4-0.2
				c-0.5-0.1-1.1-0.2-1.6-0.3c-0.4-0.1-0.7-0.1-1.1-0.2c0.1,0.8,0.3,1.5,0.5,2.1c3.8,1.4,9,0.8,10.7-3.1c0.1-0.3,0.3-0.5,0.4-0.7
				c-0.3-3.1-2.3-5.6-5-6.1c-0.4,0.2-0.9,0.3-1.3,0.5C906.9,1549,907.8,1550.4,908.4,1552.2z"/>
			<path fill="#62656A" d="M900.8,1557.2c0.9,2.3,2.9,3.9,5.3,3.9c3.2,0,5.9-3.1,5.9-6.9c0-0.3,0-0.5,0-0.8
				c-0.2,0.2-0.3,0.4-0.4,0.7C909.8,1558,904.6,1558.6,900.8,1557.2z"/>
			<path fill="#62656A" d="M903,1555.5c0.1,0,1.3,0.1,1.4,0.2c1.2,1,2.8,0.4,3.2-0.8c-1,0.8-2.6,1.1-3.5-0.1s-2.1-2.4-3.4-3.3
				c-0.3,0.8-0.5,1.8-0.5,2.7c0,0.3,0,0.6,0.1,0.9c0.4,0.1,0.7,0.1,1.1,0.2C901.9,1555.3,902.5,1555.4,903,1555.5z"/>
			<path fill="#212327" d="M904.1,1554.7c0.9,1.2,2.5,0.9,3.5,0.1c0.8-0.6,1.2-1.6,0.9-2.6c-0.6-1.8-1.5-3.2-2.8-4.4
				c-2.2,0.8-4.5,1.6-6.7,2.3c0.5,0.3,1,0.7,1.5,1c0.1,0.1,0.2,0.1,0.3,0.2C901.9,1552.3,903.1,1553.5,904.1,1554.7z"/>
		</g>
		<path fill="#272727" d="M1189.2,1508.5c0.4-0.2,0.8-0.3,1.2-0.5c3.5-1.4,2-7-1.6-5.7c-0.3,0.1-0.6,0.2-1,0.4
			c-0.1,0-0.2,0.1-0.3,0.2c-5.2,2.1-10.3,4.5-15.6,6c-7.3,2.1-13.7,1.2-21.1,1c-2.8-0.1-2.9,3.7-0.6,4.5c5.2,2,10.7,2.1,16.3,1.2
			c-3.1,2-6.2,4.3-8,7.3c-0.6,1,0.8,2,1.6,1.2c3.7-3.5,10.1-4.8,14.7-7.1c1.1-0.6,2.3-1.1,3.5-1.6c-3.3,1.8-6.4,3.9-9.8,5.5
			c-7.1,3.4-15.9,5.5-21.8,10.8c-0.6,0.5-0.5,1.5,0,2c-0.6,0.7-0.2,1.9,0.5,2.5c4.5,3.4,12.2,2,17.4,1.4c3.8-0.5,8.4-0.7,12.4-1.8
			c-4.9,3.8-11.3,5.9-16.9,8.3c-6,2.6-13.7,5.5-17.5,11c-0.6,0.8-0.3,1.7,0.3,2.3c0,0.5,0.1,0.9,0.5,1.3c3.7,3.5,11.6,1.1,16.1,0.2
			c6.8-1.3,13.5-3.5,19.5-7.1c1.7-1.1,1.7-3,0.8-4.2c0.3-0.3,0.5-0.7,0.8-1c2.2-2.8,3.6-6,3.9-9.5c0.1-0.1,0.1-0.1,0.2-0.2
			c1.4-1.6,0.8-4.6-1.4-5c0.1-1.1-0.4-2.2-1.6-2.4c-5.8-0.9-12.2,1.7-18,2.3c-1.9,0.2-3.9,0.2-6,0.2c5-1.8,10-4.4,14.5-6.5
			c4.1-1.9,7.9-4.2,11.8-6.3c2.8-1.5,5.3-3.2,6.3-6.2c0.5-1.5-0.8-3-2.3-3c0.1-0.1,0.2-0.1,0.3-0.2
			C1188.9,1509.5,1189.1,1509,1189.2,1508.5z M1153,1554.3c-0.3,0-0.6,0.1-0.9,0.2c0.9-0.6,1.9-1.1,2.8-1.6
			c3.7-1.9,7.6-3.5,11.5-5.2c2.9-1.2,5.9-2.4,8.8-3.9c-0.1,0.1-0.2,0.2-0.3,0.3c-0.4,0.4-0.9,0.9-1.3,1.2c-0.8,0.6-1.1,0.5-0.3,0.7
			c-0.9,0-1.9,0.4-2.6,1.4l-0.1,0.1c-0.5,0.6-0.5,1.4-0.4,2.1c-3.1,1.3-6.4,2.4-9.8,3.2C1158,1553.4,1155.5,1553.9,1153,1554.3z"/>
		<path fill="#272727" d="M1177.1,1555.3c-5.7,3.2-11.7,5.9-17.6,8.7c-5,2.4-11.1,4.9-14.3,9.7c-0.8,1.2,0.2,2.7,1.4,2.9
			c-1.6,0.1-2.6,1.8-1.4,3.3c3.3,4,9.7,6,14.6,7.5c0.2,0.1,0.4,0.1,0.7,0.2c-5.4,1.8-10.5,4.4-15,8.2c-2.4,2.1,0.7,6.1,3.4,4.4
			c4.2-2.7,8.3-5.3,13.1-7c4.4-1.6,9-2.4,13.6-3.4c3.5-0.7,2.4-5.7-0.8-5.8c-0.6-0.3-1.2-0.3-2,0c-3.2,1.2-10-1.7-13.1-2.8
			c-4.2-1.4-8.2-4.1-12.5-4.7c0,0,0,0-0.1,0c0.1,0,0.2,0,0.3-0.1c0.4-0.1,0.7-0.3,1.1-0.4c4.4,1.8,7.8,1.9,12.9,1.7
			c5.6-0.2,11.9,0.4,17.2-1.2c2.3-0.7,2.5-4.3,0-4.9c-5.2-1.1-11-0.2-16.3,0c-1.6,0.1-3.3,0-5.1,0c2-1.1,4-2.2,6-3.1
			c5.7-2.7,11.5-5.1,16.7-8.6C1182.9,1558.1,1180.3,1553.5,1177.1,1555.3z"/>
		<path fill="none" d="M901,1553.4L901,1553.4C901.6,1553.5,901.3,1553.4,901,1553.4L901,1553.4z"/>
		<path fill="#212327" d="M944.9,1554.1c8.8,0.7,17.7,1,26.6,0.5c15.8-0.9,33-3.6,47.2-10.8c1.8-0.9,1.4-3.2,0.1-4.2
			c-0.1,0-0.1,0.1-0.2,0.1c-0.5,0.2-0.8,0.6-0.9,1c-2.7,2-5,4-8.5,5.2c-3.4,1.2-7,2.3-10.5,3.2c-8.1,2-16.6,2.9-25,3.3
			c-8.5,0.4-16.9,0.3-25.4-0.2c-8.6-0.4-17.2-1.8-25.8-1.2c0,0,0,0-0.1,0C929.1,1553.7,938.1,1553.6,944.9,1554.1z"/>
		<g>
			<path fill="#212327" d="M964.2,1600.3c-8.1-4.4-16.1-9-23.8-14.2c-7.5-5-13.1-10.7-18.7-17.7c-0.2-0.3-0.6-0.3-0.9-0.2
				c-0.3,0.7-0.4,1.5,0,2.3c3.4,7.1,11.5,12,17.8,16c6.2,4,12.8,7.5,19.4,11c-1.6,0-3.2,0-4.9-0.1c1.5,0.9,3,1.7,4.5,2.6
				c-2.3-0.2-4.7-0.3-6.9-0.4c-5-0.4-10.1-0.9-15.2-0.9c-0.7,0-0.9,1.1-0.2,1.3c4.4,1,9,1.4,13.5,1.9c0.8,0.1,1.6,0.2,2.4,0.3
				c5.3,0.2,10.5,0.1,15.8,0.1c6.9,3.6,13.9,7.3,20.8,10.9c3.2,1.6,6.4,3.2,9.7,4.7c-1.5,0.1-2.9,0.2-4.4,0.3
				c3.2,1.2,6.4,2.3,9.7,3.2c-9.7,0.3-19.3,0.9-28.9,2.1c-0.5,0.1-0.6,0.7-0.1,0.9c0.9,0.2,1.7,0.4,2.6,0.6
				c-0.4-0.2-0.8-0.5-1.2-0.7c11.5-0.4,23-1,34.4-2.3c0.9,0.2,1.9,0.4,2.8,0.5c1.7,0.2,2.9-0.8,3.4-2.1
				C997.4,1618.7,980.4,1609,964.2,1600.3z"/>
			<path fill="#212327" d="M976.9,1580.9c1.2-0.1,2.3-0.2,3.5-0.3c13.9-1.3,30.3-4.2,41.9-12.5c0.6-0.4,0.9-1,0.9-1.6
				c-0.2,0-0.4,0.1-0.6,0.2c-11.6,6.6-24.6,9.6-37.8,11.2c-6.6,0.8-13.2,1.7-19.8,2.4c-4-1.4-7.9-2.8-11.8-4.4
				c-4.9-1.9-11.6-3.7-16.7-6.6c-0.5-1-1.3-1.4-2.2-2c-1.6-1.1-3.1-2.2-4.5-3.5c-2.3-2-4.7-4.4-6.2-7.1c-0.5-0.8-2-0.3-1.6,0.7
				c0.2,0.5,0.4,1,0.6,1.4c6.1,7.7,14.8,13.1,24,17.4c0.2,0.1,0.4,0.1,0.5,0.2c3.8,1.5,7.6,3,11.4,4.5c-4.7,0.4-9.4,0.6-14.1,0.6
				c-0.8,0-1.1,1-0.7,1.5c4.2-0.2,8.5-0.6,12.5-0.8c1.5-0.1,3-0.2,4.6-0.2c0.9,0.3,1.8,0.6,2.6,0.9h0.1c0.4,0.2,0.9,0.3,1.3,0.5
				c8.8,3,17.8,5.4,26.8,7.7c4.9,1.2,10,2.7,15.2,3.8c-0.4,0.1-0.9,0.2-1.3,0.4c1.2,0.3,2.5,0.5,3.7,0.8
				c-10.2,2.5-20.2,4.5-31.1,4.5c-0.9,0-0.9,1.3,0,1.4c3.2,0.3,6.4,0.4,9.5,0.3c1.7-0.1,3.5-0.1,5.2-0.3c4.3-0.3,8.5-1,12.6-1.8
				c3.9-0.9,7.7-2.2,11.3-4.1c1,0,2,0,3,0c1-0.1,1.8-0.6,2.2-1.2c0.1-0.8-0.4-1.6-1.4-1.6c-0.1,0-0.3,0-0.4,0
				c-0.2,0-0.5,0.1-0.7,0.2c-1.2,0.3-2.3,0.6-3.5,0.9c-14.2-2.2-28.1-6-41.7-10.5c-1.1-0.4-2.3-0.8-3.4-1.2c3-0.2,6-0.4,9-0.7
				C979.1,1581.5,978,1581.3,976.9,1580.9z"/>
			<path fill="#212327" d="M958.7,1623.3c-7.3-0.9-14.6-0.2-22.1-0.4c-1.1,0-1,1.6,0,1.6c3,0.2,6.1,0.4,9.1,0.7
				c6.7-0.1,13.3-0.5,19.8-0.8c0.2,0,0.4,0,0.6,0c6.7,4.2,13.3,8.4,20.2,12.2c4.7,2.6,9.7,4.4,14.6,6.5c-0.5-0.1-1-0.1-1.5-0.2
				c3,0.6,6,0.9,8.8,0.8c0.6,0,0.7-0.9,0.1-1.1c-3.9-1.2-7.9-1.8-11.7-3.1c-4.2-1.5-8.4-3.5-12.4-5.4c-7.8-3.8-15.2-8.4-22.6-12.9
				c-7.6-4.6-15-9.5-22.1-14.8c-3.6-2.6-7-5.5-10.6-8.1c-2.4-1.9-4.7-4-7.7-4.2c-0.7,0.8-1,2.1,0,2.9c6.6,5.2,14.3,8.9,21.6,13.2
				c5.4,3.2,10.7,6.5,15.9,9.8c-1.7,0.1-3.3,0.1-5,0.2C955.5,1621.2,957.1,1622.3,958.7,1623.3z"/>
			<path fill="#212327" d="M960.7,1637c-7.8-2.5-15.6-5-23.2-8.2c-7.4-3-13.7-7.2-20.4-11.5c-0.2-0.1-0.4-0.1-0.6-0.1
				c0,0.5,0.2,1.1,0.6,1.6c0.4,0.4,0.9,0.8,1.3,1.2c-0.3,0.3-0.5,0.6-0.6,0.9c0.9,1,1.9,2,3,2.9c1,0.2,2,0.3,3,0.5
				c10.7,7.3,24.8,11,36.5,14.6c8.5,2.6,17.2,5.1,25.8,7.1c8.4,2,17,3.7,25.6,1.9c1.2-0.3,1.7-1.3,1.7-2.4
				C995.4,1646.5,977.7,1642.4,960.7,1637z"/>
		</g>
		<g>
			<path fill="#272727" d="M865.3,1608.9c-3-2-5.9-4-9-5.9c1.9,1.7,3.9,3.5,5.7,5.5c-4.1-2.6-8.5-4.5-13.2-5.6
				c-6.5-1.5-13.3-2.1-19.9-2.5c-4-0.2-9.5-0.9-14.1-0.1c10.2,0.5,20.3,2.8,30.2,5.1c13.8,3.3,23.9,10.3,32.9,21.2
				c0.5,0.6,0.9,1.3,1,2c1.2-0.8,2-2.2,1.5-4c-1.7-6-4.9-11.7-9-16.9C870,1609.6,867.5,1610.5,865.3,1608.9z"/>
			<path fill="#272727" d="M892.1,1603.2c0.8-0.8,1.2-1.9,0.6-3.3c-0.3-0.8-0.7-1.6-1.1-2.4c-0.4,0.4-0.8,0.7-1.4,1
				c-5.2,2.3-9.3,1.2-14.3-1.2c-2.2-1.1-4.5-1.9-6.8-2.6c6.1,3,11.9,6.6,18,10.5C889.4,1606.7,891.5,1605.2,892.1,1603.2z"/>
			<path fill="#212327" d="M845,1605.5c-9.9-2.3-20-4.6-30.2-5.1c-2,0.4-3.9,1-5.3,2.1c-1.6,1.2-1.9,4.5,0.6,4.9
				c5.8,0.8,12-0.3,17.8,0c6.6,0.3,13.3,1.1,19.7,2.8c5.5,1.4,10.6,4.2,14.8,8c3.8,3.5,6.9,8.8,11.5,11.3c1.5,0.8,3,0.5,4.1-0.3
				c0.3-0.1,0.6-0.3,0.9-0.4c-0.2-0.7-0.5-1.4-1-2C869,1615.9,858.8,1608.8,845,1605.5z"/>
			<path fill="#212327" d="M890.2,1598.5c0.6-0.2,1-0.6,1.4-1c-5-9.7-15.3-17.5-24-23.4c-5.4-3.6-11.1-6.3-17.1-8.1
				c4.8-0.5,9.7-0.6,14.5-0.2c11.2,0.9,23.6,5.7,31.3,14.2c0.6,0.6,1.2,0.9,1.9,0.9c0.7,2.1,3.4,2.4,4.9,1.1
				c0.1-0.1,0.2-0.1,0.2-0.2c0.7-0.7,1.1-1.9,0.8-2.9c0-0.1-0.1-0.2-0.1-0.3c-0.1-0.3-0.3-0.7-0.5-0.9c-3.2-10.8-13.9-18.7-25-21.7
				c-4.5,1.1-7.9,1.8-9.7,2.1c0.1,0.2,0.2,0.3,0.4,0.5c1.2,1,2.5,1.8,3.9,2.4c-1.4-0.3-2.7-0.5-4.1-0.7c-6.3-0.9-12.7-0.8-19-0.2
				c-6.4,0.6-13.7,1.2-19.8,3.5c-0.1,0-0.3,0-0.4,0c-4,0.2-4,6.5,0,6.2c11.7-0.8,22.7,3.9,32.4,10.1c4.3,2.7,8.4,5.9,12.3,9.1
				c-6.4-3.1-13.1-5.5-20.2-6.8c-12.4-2.3-24.7-4.2-36.1,2.1c-0.7,0.4-1.2,1.3-1.2,2.1c0,0.3,0,0.6,0,0.8c0,0.4,0.2,0.7,0.5,0.9
				c0.9,0.5,1.4,0.6,2,0.5c0.2,0.2,0.4,0.3,0.7,0.4c2.5,0.7,4.8,0.2,7.4,0.3c3.3,0.1,6.2,0.8,9.3,1.8c5.8,1.9,11.2,5.1,15.9,8.9
				c1.2,0.9,2.3,1.9,3.5,3c3,1.9,6,3.8,9,5.9c2.2,1.5,4.7,0.6,6.1-1.1c-4.3-5.5-9.4-10.4-14.6-14.3c-2.8-2.2-5.9-4-9.2-5.6
				c1.3,0.3,2.6,0.5,3.9,0.8c6.4,1.2,12.1,3.3,17.5,5.9c2.3,0.7,4.6,1.6,6.8,2.6C880.9,1599.7,885,1600.8,890.2,1598.5z"/>
		</g>
		<g>
			<path fill="#212327" d="M1189.2,1508.5c0.4-0.2,0.8-0.3,1.2-0.5c1.3-0.5,1.9-1.6,2-2.7c-0.2,0-0.4,0.1-0.6,0.2
				c-13.7,6.8-28.3,9.2-43.1,6.7c0.1,0.9,0.6,1.8,1.6,2.2c5.2,2,10.7,2.1,16.3,1.2c-2.1,1.3-4.1,2.8-5.8,4.5c2.6,0.1,5.4-0.2,8-0.6
				c2.1-0.8,4.2-1.5,6.1-2.4c1.1-0.6,2.3-1.1,3.5-1.6c-1.9,1-3.7,2.2-5.6,3.3c0.5-0.1,1.1-0.3,1.6-0.4c5.4-1.6,11.2-3.1,16.1-6
				c0-1.2-1.1-2.3-2.4-2.3c0.1-0.1,0.2-0.1,0.3-0.2C1188.9,1509.5,1189.1,1509,1189.2,1508.5z"/>
			<path fill="#212327" d="M1186.2,1518c0.9-0.6,1.7-1.3,2.4-2.1C1187.4,1515.5,1185.8,1516.5,1186.2,1518z"/>
			<path fill="#212327" d="M1185.1,1536.3c-0.3-0.6-0.9-1.1-1.5-1.3c-0.1-0.1-0.2-0.2-0.5-0.2c-3.5,0-6.8,0.5-10.3,0.3
				s-7-0.5-10.4-0.6c-1.8-0.1-4-0.4-6.2-0.6c1.6-0.6,3.2-1.2,4.9-1.8c-1.1,0-2.2,0-3.3,0c5-1.8,10-4.4,14.5-6.5
				c4.1-1.9,7.9-4.2,11.8-6.3c0.7-0.4,1.5-0.8,2.1-1.3c-0.5-1.4-7.7,2.7-8.9,3.3c-3.3,1.5-6.6,3-9.9,4.4c-6.5,2.8-12.8,5.8-19,9.3
				c-0.1,0.1-0.2,0.2-0.3,0.3c-0.1,0.1-0.2,0.1-0.3,0.2c-0.3,0.3-0.4,0.6-0.4,0.9c0.7,0.5,1.5,0.9,2.3,1.2c2.4-0.5,5.4,0.1,7.7,0.2
				c1.5,0.1,3.1,0.1,4.6,0.2c0.9-0.1,1.8-0.2,2.6-0.3c3.8-0.4,8.4-0.7,12.4-1.8c-1.2,0.9-2.5,1.8-3.9,2.5c2.1,0,4.2-0.2,6.1-0.7
				c-4.2,3.1-9.3,5.1-13.7,7.6c-6,3.5-12.1,6.9-18.2,10.3c-0.7,0.4-0.1,1.5,0.7,1.1c1.9-0.9,3.8-1.7,5.6-2.6c-0.2,0-0.5,0.1-0.7,0.1
				c-0.3,0-0.6,0.1-0.9,0.2c0.9-0.6,1.9-1.1,2.8-1.6c3.7-1.9,7.6-3.5,11.5-5.2c2.9-1.2,5.9-2.4,8.8-3.9c-0.1,0.1-0.2,0.2-0.3,0.3
				c-0.2,0.2-0.4,0.4-0.6,0.6c3.6-1.7,7.1-3.5,9.9-6.2c0.1-0.5,0.1-0.9,0.2-1.4c0.1-0.1,0.1-0.1,0.2-0.2
				C1184.9,1536.8,1185,1536.5,1185.1,1536.3z"/>
			<path fill="#212327" d="M1180.4,1549c-0.1,0-0.1,0-0.2,0c-3.1,0.6-5.8,2.5-8.7,3.7c-3,1.1-6.1,2.1-9.1,2.9
				c-3.5,1-7.1,1.4-10.8,1.4c-2.6,0-4.5-0.1-6.8,0.9c-0.4,0.2-0.3,0.8,0.1,0.9c4.3,1,8.4,1.1,12.6,0.7c0.8-0.2,1.5-0.3,2.1-0.5
				c6.8-1.3,13.5-3.5,19.5-7.1C1180.2,1551.1,1180.6,1550,1180.4,1549z"/>
		</g>
		<path fill="#212327" d="M1145.1,1580.7c1.5,2,4.2,3.1,6.4,4.3c2.7,1.4,5.7,2.8,8.6,3.4c1.5,0.3,2.7-1.9,1.1-2.7
			c-2.3-1.1-4.8-1.8-7.3-2.7c-2.8-1-5.3-2-7.9-3.4C1145.5,1579.3,1144.6,1580,1145.1,1580.7z"/>
		<g>
			<path fill="#212327" d="M1165.5,1566.1c-6.4,3.3-12.7,6.9-19.1,10.1c-0.1,0.1-0.2,0.2-0.2,0.3c0.1,0.1,0.3,0.1,0.4,0.1
				c-0.2,0-0.3,0-0.5,0.1c0,0.3,0.4,0.7,0.8,0.5c0.3-0.1,0.6-0.2,0.9-0.4c-0.4,0.2-0.4,0.9,0.1,1c1.8,0.3,3.6,0.6,5.4,0.9
				c-2-0.9-4.1-1.7-6.2-2c0,0,0,0-0.1,0c0.1,0,0.2,0,0.3-0.1c0.4-0.1,0.7-0.3,1.1-0.4c0.1,0.1,0.3,0.1,0.4,0.2
				c3.4-1.5,6.9-3,10.3-4.4c-0.7,0-1.3,0-2,0c2-1.1,4-2.2,6-3.1c5.7-2.7,11.5-5.1,16.7-8.6c1.6-1.1,1.6-2.9,0.7-4.1
				c-0.3,0.4-0.5,0.8-0.5,1.3C1176,1561.1,1170.2,1563.6,1165.5,1566.1z"/>
			<path fill="#212327" d="M1180.1,1575.1c-10.1,2.1-20,1.5-30.2,1.5c3.7,1.3,7,1.4,11.4,1.2c5.6-0.2,11.9,0.4,17.2-1.2
				C1179.3,1576.4,1179.8,1575.8,1180.1,1575.1z"/>
			<path fill="#212327" d="M1148.8,1600.3c4.2-2.7,8.3-5.3,13.1-7c4.4-1.6,9-2.4,13.6-3.4c1.8-0.4,2.4-1.9,2.1-3.3
				c-5.2,2.5-10.5,4.5-15.9,6.2c-2.4,0.7-4.9,1.4-7.3,2.1c-2.3,0.6-6.5,2.6-8.8,1.5c-0.2-0.1-0.4-0.1-0.6-0.2
				c-1.1,1.4-0.2,3.3,1.2,4.1c0.6,0.1,1.3,0.2,2,0.2C1148.4,1600.5,1148.6,1600.4,1148.8,1600.3z"/>
		</g>
		<path fill="#272727" d="M1215.5,1511.5L1215.5,1511.5c-3.9-4.8-8.3-8.2-14.6-8.6c-3.6-0.2-6.8,0.5-9.4,2.2
			c-0.3-0.4-0.7-0.8-1.1-1.2c-0.9-0.9-2.1-0.8-2.9-0.1c-0.9-0.1-1.8,0.1-2.6,0.7c-0.9-0.2-1.8,0.2-2.4,1c-2.6,1.8-4.1,5.8-5.4,8.5
			c-1.7,3.4-3.2,6.9-4.1,10.7c-1.9,8.2-2.3,16.6-1.9,24.9c0.1,2.3,3.4,4.3,5.1,2.1c3.9-4.9,7-10.2,9.3-15.9
			c-1.1,12.7-1.3,25.4,5.5,23.3c0.2-0.1,0.4-0.1,0.5-0.2c1.2-0.1,2.4-0.8,3.4-2c3.4-4,2.7-11.5,2.9-16.3c0.4-9.1,0.9-22-3.5-31.1
			c6.3-2.9,12.3-0.5,18,5.1C1214.6,1516.9,1217.3,1513.3,1215.5,1511.5z M1191.9,1540.7c-0.1,1.7-1.8,11.8-0.8,12.7
			c-0.1-0.1-0.3-0.2-0.4-0.3c-0.1-1.3-0.7-3.3-0.7-4.2c-0.1-1.7,0-3.5,0.1-5.2c0.2-4.4,0.4-8.8,0.7-13.2c0.2-2.6,0.4-5.1,0.7-7.7
			c0.2,2.1,0.4,4.3,0.5,6.5C1192.1,1533.1,1192.1,1536.9,1191.9,1540.7z M1181.5,1528.9c-1.1,3.8-2.6,7.5-4.5,11
			c0.2-3.7,0.5-7.4,1.2-11s1.7-6.9,3.3-10.2c0.4-0.9,0.9-2.1,1.4-3.3C1183.2,1519.8,1182.8,1524.2,1181.5,1528.9z"/>
		<g>
			<path fill="#272727" d="M993.3,1560c-6.7-5.3-14.4-12.4-23-14.4c0,0,0,0-0.1,0c-0.1-0.4-0.3-0.8-0.4-1.1
				c-0.4-1.1-1.3-1.8-2.2-1.9c-0.5-0.6-1.2-1-1.9-1.1c-0.4-0.1-0.9,0-1.2,0.1c-0.3-0.4-0.7-0.7-1.4-0.7c-1.5,0-2.5,1.2-3.4,2.6
				c-7.5,0.3-15,3.8-20.8,8.4c-6,4.7-12.7,10.5-15,18c-0.3,1,0.9,1.6,1.6,1c5.1-4.5,9.5-9.5,14.8-13.9c4.8-4,9.8-6.1,15.5-7.4
				c-2.6,4.2-4.2,9.3-5.8,13.9c-2.2,6.4-4.1,13-5.3,19.6c-0.9,4.8-1.6,9.9,1.6,14c2,2.6,5.2,4.2,8,1.8c5.8-2,5.6-12.4,6.1-17.7
				c0.5-5.4,0.7-10.9,1.4-16.4c0.5-3.6,1-7.3,1.2-11c0.2-0.1,0.4-0.3,0.6-0.5c0.9,0.7,2.1,1,3.4,0.7c0.1,0,0.2-0.1,0.4-0.1
				c1.3,13.2,1.1,26.6,1.2,39.7c0,4.8,0.3,22.7,7.8,23.5c2,1.1,4.4,1.1,6-1.4c1.5-2.3,1.3-5.6,1.5-8.1c0.3-4.5,0.3-8.9,0-13.4
				c-0.6-8.4-2.1-16.7-3.8-25c-1.1-5.3-2.4-10.5-4.4-15.5c4.1,2.5,8.4,4.8,12.2,7.4c6.9,4.7,13.5,10.2,16.7,18
				c0.9,2.3,4.2,1.5,3.8-1C1006.9,1570.3,999.2,1564.6,993.3,1560z M951.4,1596.4c-8-2.7,0.5-25.4,5.8-38.5
				c-0.3,4.1-0.1,8.4-0.4,12.3C956.5,1574.5,956.9,1595.5,951.4,1596.4z M979.4,1599c0.2,2.9,0.3,5.7,0.3,8.6c0,1.6,0.2,3.8-0.7,5.2
				c0,0.1,0,0.1,0,0.2c-8.5,0.4-6.3-26.3-6.3-31.4c0-6-0.1-12,0-18c0-1.1,0-2.1,0.1-3.2c2.1,6.9,3.5,14,4.7,21.1
				C978.4,1587.3,979.1,1593.2,979.4,1599z"/>
			<g>
				<path fill="#212327" d="M997,1567.3c-6.3-5.8-12.6-11.9-20.5-15.5c-1.1-0.5-2.5,0.9-1.4,1.8c0.2,0.2,0.4,0.4,0.7,0.5
					c0-0.1-0.1-0.2-0.1-0.3c4.1,2.5,8.4,4.8,12.2,7.4c6.9,4.7,13.5,10.2,16.7,18c0.9,2.2,4,1.5,3.8-0.8c-0.7-0.7-1.3-1.4-1.8-2
					C1003.6,1573.2,1000.2,1570.3,997,1567.3z"/>
				<path fill="#212327" d="M974,1609.3c0.2,0.4,0.5,0.6,0.9,0.7c-3.5-7.1-2.2-24.3-2.2-28.4c0-6-0.1-12,0-18c0-0.9,0-1.9,0.1-2.9
					c-0.1-0.6-0.3-1.3-0.4-1.9c-0.2-0.6-1.2-0.7-1.3,0c-0.7,3.9-0.4,8-0.5,11.9c-0.2,4.9-0.1,9.8,0,14.7
					C970.7,1593.1,970.2,1602.4,974,1609.3z"/>
				<path fill="#212327" d="M980,1569.3c-0.4-2-0.9-4.1-1.4-6.1c0.1,4.2,1,8.3,1.4,12.5c0.4,4.7,0.7,9.3,0.9,14
					c0.2,4.3,0.6,8.7,0.5,13c-0.1,2.3,0,5.1-0.8,7.2c-0.4,1-0.8,1.7-1.3,2.3c-0.1,0.2-0.2,0.4-0.3,0.6c0,0.1,0,0.1,0,0.2
					c-0.2,0-0.4,0-0.6,0c-1.5,1.1-3.4,1.2-5.6,1.3c-0.2,0-0.3,0-0.5,0.1c1,1.6,2.3,2.6,4,2.7c2,1.1,4.4,1.1,6-1.4
					c1.5-2.3,1.3-5.6,1.5-8.1c0.3-4.5,0.3-8.9,0-13.4C983.2,1585.9,981.7,1577.5,980,1569.3z"/>
				<path fill="#212327" d="M961.8,1564.8c0.4-3.3,0.9-6.8,1.1-10.2c-0.4,0-0.7,0.2-0.9,0.6c-2.6,7-3.5,14.8-4.3,22.2
					c-0.9,7.4-0.3,16.7-5.4,22.5c0.7-0.2,1.4-0.5,2-1c5.8-2,5.6-12.4,6.1-17.7C960.9,1575.7,961.2,1570.2,961.8,1564.8z"/>
				<path fill="#212327" d="M949.4,1596.8c0.8,0.5,1.6,0.2,2.1-0.5c0,0,0,0-0.1,0c-7.3-2.4-0.9-21.4,4.3-34.7c0.1-1,0.1-2,0.1-3
					c0-0.4-0.7-0.7-0.9-0.2c-3.5,7.2-6.2,15-7.8,22.9C946.1,1586.4,944,1593.3,949.4,1596.8z"/>
				<path fill="#212327" d="M955.7,1550.6c1.8-1,0.6-4-1.4-3.4c-6,1.8-10.4,4.8-14.9,8.9c-4.9,4.6-8.9,10.5-14.2,14.8
					c0.2,0,0.3-0.1,0.5-0.2c5.1-4.5,9.5-9.5,14.8-13.9c4.8-4,9.8-6.1,15.5-7.4c-0.3,0.5-0.6,1-0.9,1.6
					C955.2,1550.9,955.4,1550.8,955.7,1550.6z"/>
			</g>
		</g>
		<g>
			<path fill="#212327" d="M1215.5,1511.5L1215.5,1511.5c-1.8-2.2-3.7-4.1-5.9-5.6c-1.8-0.9-3.8-1.5-6.1-1.4
				c-2.8,0.1-7.3,1.8-8.4,4.7c6-2.3,11.7,0.1,17.2,5.4C1214.6,1516.9,1217.3,1513.3,1215.5,1511.5z"/>
			<path fill="#212327" d="M1190.7,1521.1c1.3-1.7,4.2-2.4,4.8-4.9c0.8-2.8-1.8-6.7-2.8-9.3c-0.8-2-2.7-2.4-4.1-1.5
				c-0.4,0-0.8,0.2-1.1,0.4c-1,0.7-1.1,1.4-1.4,2.1c-2.3,1.9-5.6,2.5-8.1,4.1c-0.3,0.7-0.7,1.4-1,2.1c-1.7,3.4-3.2,6.9-4.1,10.7
				c-0.1,0.6-0.3,1.2-0.4,1.8c0.7,0.1,1.5-0.1,2.1-0.8c1.2-1.3,3.7-4.4,6.2-5.7c0.2-0.5,0.4-1,0.6-1.4c0.4-0.9,0.9-2.1,1.4-3.3
				c0.1,1.4,0.1,2.8,0,4.2c0.7,0,1.3,0.3,1.9,0.9c0.2,1.5,1.2,2.8,2.9,2.7c0.1,0,0.1,0,0.2,0
				C1189.3,1523,1190.3,1522.2,1190.7,1521.1z"/>
			<path fill="#212327" d="M1197.8,1540.7c0.3-7.7,0.7-18.2-1.8-26.9c-0.1,0.2-0.2,0.4-0.2,0.7c0.3,7-2.2,14-2,21.1
				c0.2,5.4,0.2,11.7,3.3,16.3C1197.9,1548.3,1197.6,1543.9,1197.8,1540.7z"/>
			<path fill="#212327" d="M1187.4,1524.3c-0.3-0.8-1.7-1.1-1.9,0c-0.6,3.9-0.7,7.9-1.2,11.8c-0.1,1.1-0.3,2.3-0.4,3.5
				c0.6-1.2,1.1-2.4,1.6-3.6c-0.4,4.7-0.7,9.4-0.6,13.3c0.9,0.8,2.5,0.4,3-0.9c1.5-3.7,1.1-8.4,0.9-12.3
				C1188.5,1532.2,1188.8,1527.9,1187.4,1524.3z"/>
		</g>
	</g>
</g>
</svg>
