<?xml version="1.0" encoding="utf-8"?>
<!-- Generator: Adobe Illustrator 21.0.2, SVG Export Plug-In . SVG Version: 6.00 Build 0)  -->
<svg version="1.1" id="_x31_8_x5F_Footwear_x5F_Cleats_x5F_Main_Asset"
	 xmlns="http://www.w3.org/2000/svg" xmlns:xlink="http://www.w3.org/1999/xlink" x="0px" y="0px" viewBox="0 0 2000 2000"
	 enable-background="new 0 0 2000 2000" xml:space="preserve">
<g>
	<path opacity="0.3" fill="#091426" enable-background="new    " d="M708.8,1701.8c-41,16.1-56,32.8-63.5,40.5s-6.9,27.2,10.2,45.5
		c12.4,13.3,17.3,14.2,26.1,18.7s9.5,7.9,22.1,12.4s20.5,4,24.9-0.4s-0.4-4.1,9.9-3.8c10.4,0.2,26.1,1.5,29.8,2.1s0.2,3.2,11.9,5.4
		s16.1,0.9,18.7,1.7s3.7,3.7,12.7,7.9s11,4.5,13.9,8c2.8,3.5,6.2,13,18.1,13.5c11.9,0.6,13.8-4.5,13.8-4.5s25.3,3.2,43.5,3
		s19.6-2.1,26.8-1.8c7.2,0.3,14.2,3.4,20.8,1.8s9.2-3.8,10.5-8.5c1.4-4.7,9.7-6,21-13.3s29.5-16.7,44-29.9
		c14.5-13.3,24.9-19.8,37.7-32.5c12.8-12.7,11.5-13.8,11.5-13.8s4.2,2.5,17.5,0.8c13.3-1.8,14.9-4.3,14.9-4.3s11.9,1.6,20.6,2.4
		s8.7,0.8,8.7,0.8l2.1-0.2c0,0,9.8,7,18.4,11.5c8.6,4.4,19.2,7,28.4,2.3c9.2-4.7,9.3-9.5,9.3-9.5s21.1-2.7,35.1-2.2
		s12.5-0.5,22.8,2.1s14.8,2.3,22.6,0.9c7.8-1.4,8-6.2,8-6.2s17.3,2.6,24.6-4.6c7.2-7.2,5.4-23.7-11.7-25.4L708.8,1701.8z"/>
	<g>
		<path fill="#CE2828" d="M1171.1,1437.1c-2.4,1-6,5.7-35.2,14.8c-29.2,9.1-51.1,0-51.1,0l-2.1,22.2l-0.4,4.6c-0.4,0.5-1,1-1.7,1.5
			c-4.8,3.7-16.7,9.2-47.5,19.2c-35.3,11.5-61,5.1-61,5.1c-5.5,8.7-12.6,15.4-19.7,21.2c-2.4,2-5.6,4.7-8.1,6.6
			c-4,3.1-7.1,4.3-11.3,7.1c-2.7,1.8-6.3,3.7-9.1,5.4c-11.7,7.2-24,10.7-36.7,14.1c-31.6,8.5-59.6,0.6-59.6,0.6l-9.9,44.3
			c0,0-8.1,28,18,42.7s171.3,35.4,210.3,28.6s81.7-47.2,95.1-65.9c13.4-18.8,26-56.4,26-56.4s3.4-33.2,6.1-61.2
			c0.5-5,0.9-9.8,1.4-14.3c0.4-3.8,0.7-7.3,1-10.4c0.4-4,0.6-7.3,0.8-9.6c0.1-0.7,0.1-1.5,0.1-2.1
			C1177.2,1438.8,1173.4,1436.2,1171.1,1437.1z"/>
		<g>
			<path fill="none" d="M987.1,1531.1c-2,4-4.4,8.5-7.2,13c7.1,0.1,14.7,0,22.9-0.3c29.6-1.1,43.7-6.1,53.5-10
				c5.3-2.1,9.8-4.8,12.9-6.9c0.3-2.3,0.7-4.5,1.2-6.7c0.3-1.3,0.6-2.5,0.9-3.6c-6.8,3.8-22.9,10.7-54.2,12.9
				C1005.9,1530.3,995.9,1530.8,987.1,1531.1z"/>
			<path fill="none" d="M975.3,1551.4c-5.3,7.9-11.2,15.3-17.2,20.3c-15.4,12.7-27.5,13-38.6,17.2s-12,5.8-16.3,17.3
				s-10,18.2-10,18.2l8.1-0.2c0,0,1.8-12,10.4-19.7c8.6-7.7,36.8-3.9,51.6-3.1s20.2,4.7,26,15.6c5.7,10.9,2,27.4,2,27.4
				c13.6-10.6,18.3-11.3,22.9-5.4s6.9,13.1,16.4,17c9.5,3.8,17.7-4.3,19.9-6.9c2.1-2.6,5.3-10.7,1.2-14.1s-4.3-3-3.1-10.8
				c1.3-7.7,5.9-19.3,9.5-33.8c3.7-14.5,7.8-24.3,9.3-37.4c0.7-6.2,1-11.7,1.3-16.8c-5.4,3.4-16,8.5-33.9,11.1
				C1011.8,1550.4,992.9,1551.8,975.3,1551.4z"/>
			<path fill="#D8D8D8" d="M1150.1,1469.5c-17.6,5.2-29.7,6.6-45.3,6.1c0.1,2.5,0.1,5,0.1,7.5c18.1,0.4,34.1-3,48.6-6.5
				c12.4-3,18.8-7,21.9-9.6c0.4-4,0.6-7.3,0.8-9.6c0.1-0.7,0.1-1.5,0.1-2.1C1173,1459.1,1165.8,1464.8,1150.1,1469.5z"/>
			<path fill="#D8D8D8" d="M1080.5,1480.3c0.5,0.1,1,0.2,1.5,0.3h0.1c0.1-1.1,0.1-1.8,0.1-1.8
				C1081.8,1479.2,1081.2,1479.7,1080.5,1480.3z"/>
			<path fill="#D8D8D8" d="M1017.1,1529.5c31.4-2.2,47.5-9,54.2-12.9c0.9-3.3,1.6-5.6,2.6-8.1c-5.9,3-22.4,10.1-49.4,12.4
				c-14,1.2-24.9,2.1-33.9,2.5c-0.9,2.2-2.1,4.8-3.5,7.5C995.9,1530.8,1005.9,1530.3,1017.1,1529.5z"/>
			<path fill="#D8D8D8" d="M1002.9,1543.8c-8.3,0.3-15.8,0.5-22.9,0.3c-1.5,2.4-3,4.9-4.6,7.3c17.6,0.4,36.5-1,59.3-4.3
				c17.9-2.6,28.5-7.7,33.9-11.1c0.2-3.2,0.4-6.3,0.8-9.2c-3.1,2.1-7.6,4.8-12.9,6.9C1046.6,1537.7,1032.5,1542.6,1002.9,1543.8z"/>
			<path fill="#D8D8D8" d="M1112.9,1507.9c22.9-1.5,48.9-8.2,60.2-16.2c0.5-5,0.9-9.8,1.4-14.3c-2.1,3-6.2,7-14.6,11.4
				c-17.3,8.9-26.6,9.2-43.6,11.4c-4.1,0.4-8,0.6-11.7,0.6c-0.1,2.6-0.2,5.1-0.4,7.6C1106.8,1508.2,1109.7,1508.1,1112.9,1507.9z"/>
			<path opacity="0.3" fill="#091426" enable-background="new    " d="M1077.9,1499.8c-1.8,3.8-3,6.3-4,8.8c1.6-0.8,2.4-1.3,2.4-1.3
				l-1,6.8c0,0-1.2,1.1-4,2.6c-0.3,1.1-0.6,2.2-0.9,3.6c-0.5,2.1-0.9,4.4-1.2,6.7c2.7-1.8,4.2-3.1,4.2-3.1l-0.6,9
				c0,0-1.4,1.4-4.4,3.3c-0.3,5.1-0.6,10.7-1.3,16.8c-1.5,13.1-5.7,22.8-9.3,37.4c-3.7,14.5-8.3,26.1-9.5,33.8
				c-1.3,7.7-1,7.4,3.1,10.8s0.9,11.5-1.2,14.1s-10.3,10.8-19.9,6.9c-9.5-3.8-11.8-11.1-16.4-17s-9.4-5.1-22.9,5.4
				c0,0,3.7-16.5-2-27.4s-11.1-14.8-26-15.6c-14.8-0.8-43-4.6-51.6,3.1s-10.4,19.7-10.4,19.7l-8.1,0.2c0,0,5.7-6.7,10-18.2
				s5.2-13.1,16.3-17.3c11.1-4.2,23.2-4.4,38.6-17.2c6-5,12-12.4,17.2-20.3c-3.9-0.1-7.8-0.3-11.7-0.5c-16.4-1.2-30.9-4.2-37.7-7.3
				c-0.8,0.4-1.5,0.9-2.2,1.3c-11.7,7.2-24,10.7-36.7,14.1c-31.6,8.5-59.6,0.6-59.6,0.6l-9.9,44.3c0,0-8.1,28,18,42.7
				s171.3,35.4,210.3,28.6c7.6-1.3,15.3-3.9,22.9-7.4l24.2-28c-1.3-32-0.2-51,4.1-76.1c2.6-15.2,5.6-33.4,7-55.3
				c-19.1,0.5-25-2.4-25-2.4l1.7-7.1c0,0,10.1,2.1,23.7,2c0.2-5.6,0.4-11.5,0.4-17.6c-7.2-0.2-14.8-0.9-22.7-2.5
				C1082,1484.3,1081.2,1493,1077.9,1499.8z"/>
			<path opacity="0.3" fill="#091426" enable-background="new    " d="M987.1,1531.1c-18.4,0.6-31.5,0-39.2-1.7
				c-1.3,1.1-2.6,2.1-3.8,3c-3.2,2.5-5.9,3.8-9,5.7c15.8,4.2,29.4,5.8,44.8,6.1C982.7,1539.6,985.1,1535.1,987.1,1531.1z"/>
			<path opacity="0.3" fill="#091426" enable-background="new    " d="M1104.1,1460.3c0,0,15,3.2,41.2-5.7
				c15.8-5.4,24.5-11.9,28.9-16.2c-1-1.4-2.2-1.6-3.1-1.2c-2.4,1-6,5.7-35.2,14.8c-29.2,9.1-51.1,0-51.1,0l-2.1,22.2
				c8.4,0.7,15.6,1.3,22.1,1.5C1104.7,1470.7,1104.5,1465.6,1104.1,1460.3z"/>
			<path opacity="0.3" fill="#091426" enable-background="new    " d="M990.6,1523.5c0.7-1.6,1.3-3.1,1.7-4.3
				c3.7-10.7,6.1-8.7,13.6-9.3c7.5-0.6,31.5-1.8,52.6-12.9c12.1-6.3,17.1-11.6,19.2-14.9c-6.2,3.6-18.7,8.9-44.6,17.3
				c-35.3,11.5-61,5.1-61,5.1c-4.6,7.3-10.3,13.1-16.2,18.2c1,0.1,2.1,0.2,3.2,0.3C968.2,1524.1,977.4,1524.2,990.6,1523.5z"/>
			<path fill="#D8D8D8" d="M1082.6,1474.1l-0.4,4.6c0,0,0,0.7-0.1,1.8c7.9,1.6,15.5,2.4,22.7,2.5c0-2.5,0-5-0.1-7.5
				C1098.2,1475.4,1091.1,1474.9,1082.6,1474.1z"/>
			<path opacity="0.3" fill="#091426" enable-background="new    " d="M1082.6,1474.1l-0.4,4.6c0,0,0,0.7-0.1,1.8
				c7.9,1.6,15.5,2.4,22.7,2.5c0-2.5,0-5-0.1-7.5C1098.2,1475.4,1091.1,1474.9,1082.6,1474.1z"/>
			<path fill="#D8D8D8" d="M987.1,1531.1c1.4-2.8,2.6-5.3,3.5-7.5c-13.2,0.7-22.4,0.6-31.6-0.4c-1.1-0.1-2.2-0.2-3.2-0.3
				c-1.2,1-2.3,2-3.5,3c-1.3,1.1-2.8,2.3-4.4,3.6C955.7,1531.1,968.7,1531.6,987.1,1531.1z"/>
			<path opacity="0.3" fill="#091426" enable-background="new    " d="M987.1,1531.1c1.4-2.8,2.6-5.3,3.5-7.5
				c-13.2,0.7-22.4,0.6-31.6-0.4c-1.1-0.1-2.2-0.2-3.2-0.3c-1.2,1-2.3,2-3.5,3c-1.3,1.1-2.8,2.3-4.4,3.6
				C955.7,1531.1,968.7,1531.6,987.1,1531.1z"/>
			<path fill="#D8D8D8" d="M1075.4,1514l1-6.8c0,0-0.8,0.5-2.4,1.3c-1,2.5-1.7,4.8-2.6,8.1C1074.2,1515.1,1075.4,1514,1075.4,1514z"
				/>
			<path opacity="0.3" fill="#091426" enable-background="new    " d="M1075.4,1514l1-6.8c0,0-0.8,0.5-2.4,1.3
				c-1,2.5-1.7,4.8-2.6,8.1C1074.2,1515.1,1075.4,1514,1075.4,1514z"/>
			<path fill="#D8D8D8" d="M975.3,1551.4c1.6-2.4,3.2-4.9,4.6-7.3c-15.4-0.3-29.1-1.9-44.8-6.1c-0.7,0.4-1.5,0.9-2.2,1.4
				c-2,1.4-4.6,2.8-6.9,4.1c6.8,3.1,21.3,6.1,37.7,7.3C967.5,1551.1,971.4,1551.3,975.3,1551.4z"/>
			<path opacity="0.3" fill="#091426" enable-background="new    " d="M975.3,1551.4c1.6-2.4,3.2-4.9,4.6-7.3
				c-15.4-0.3-29.1-1.9-44.8-6.1c-0.7,0.4-1.5,0.9-2.2,1.4c-2,1.4-4.6,2.8-6.9,4.1c6.8,3.1,21.3,6.1,37.7,7.3
				C967.5,1551.1,971.4,1551.3,975.3,1551.4z"/>
			<path fill="#D8D8D8" d="M1072.9,1532.8l0.6-9c0,0-1.6,1.3-4.2,3.1c-0.4,2.9-0.6,6-0.8,9.2
				C1071.5,1534.1,1072.9,1532.8,1072.9,1532.8z"/>
			<path opacity="0.3" fill="#091426" enable-background="new    " d="M1072.9,1532.8l0.6-9c0,0-1.6,1.3-4.2,3.1
				c-0.4,2.9-0.6,6-0.8,9.2C1071.5,1534.1,1072.9,1532.8,1072.9,1532.8z"/>
			<path fill="#D8D8D8" d="M1080.8,1498.7l-1.7,7.1c0,0,5.9,2.9,25,2.4c0.2-2.5,0.3-5,0.4-7.6
				C1090.9,1500.8,1080.8,1498.7,1080.8,1498.7z"/>
			<path opacity="0.3" fill="#091426" enable-background="new    " d="M1080.8,1498.7l-1.7,7.1c0,0,5.9,2.9,25,2.4
				c0.2-2.5,0.3-5,0.4-7.6C1090.9,1500.8,1080.8,1498.7,1080.8,1498.7z"/>
		</g>
	</g>
	<g>
		<path fill="#707070" d="M835.4,1590.6c0,0,3.7,0.3,8.5,2l1.4-0.8l10.3,0.4l-0.5,6.7c3.1,2.7,6,6.2,7.9,10.8l2.1-1.1
			c0.8-6.3,0.9-14-0.9-22c-0.1-0.6-0.3-1.1-0.4-1.7c-2.8,1.1-7.2,2.4-12.2,3C842.6,1589.1,835.4,1590.6,835.4,1590.6z"/>
		<path fill="#707070" d="M799.5,1624.7c22.8,3.4,36.8,5.7,36.8,5.7l6.6-4.9c0,0-12.7-6.3-24.8-9.3s9.6-2.4,9.6-2.4l-1.9-3.4
			c-0.2,1.3-1.1,1.3-2.7-1.2c-5.4-8.4-9.1-6.4-10.1-4.4s2.6,1.6,2,5s-10.5,6.7-29,13.7c-0.6,0.2-1.3,0.5-1.9,0.7
			C787.9,1623.7,792.8,1623.7,799.5,1624.7z"/>
		<path fill="#707070" d="M773.2,1664.2c0,0-13.9-6.1-34.1-5.9c-0.3,0-0.6,0-0.9,0c-1.2,1.3-2.4,2.6-3.6,3.9
			c17.4,5.8,22.7,7.4,24.9,8.8C761.8,1672.5,773.2,1664.2,773.2,1664.2z"/>
		<path fill="#707070" d="M812.2,1641c7.3,2.2,13.5-2.3,13.5-2.3s-11.3-6.3-25.5-8.4s-25.9-0.9-25.9-0.9s0.1-0.3,0.3-0.7
			c-0.8,0.4-1.5,0.8-2.3,1.3c-3.5,2.2-7.1,4.6-10.8,7.3C770,1634.9,805.5,1638.9,812.2,1641z"/>
		<path fill="#707070" d="M765.4,1653.2c16.1,4.6,22.8,6.9,29.1,2.6s7.7-5,7.7-5s-2-5-16.6-5.8c-13.7-0.7-27-2.9-25.9-6.3
			c-5.4,4.1-10.8,8.8-16.4,14.3C750.1,1651.8,759,1651.3,765.4,1653.2z"/>
		<path fill="#D8D8D8" d="M845.3,1591.8l-1.4,0.8c3.5,1.2,7.5,3.2,11.2,6.3l0.5-6.7L845.3,1591.8z"/>
		<path opacity="0.3" fill="#091426" enable-background="new    " d="M761.2,1637.4c-0.5,0.3-0.9,0.7-1.4,1.1
			c-0.1,0.1-0.1,0.2-0.1,0.3c0.7-0.5,1.3-1,2-1.5C761.5,1637.3,761.4,1637.3,761.2,1637.4z"/>
		<path opacity="0.3" fill="#091426" enable-background="new    " d="M743.2,1653.1L743.2,1653.1L743.2,1653.1L743.2,1653.1z"/>
		<path fill="#707070" d="M863,1609.8c-1.9-4.6-4.8-8.2-7.9-10.8l-1.4,19.8l-17.1-5c-2.7-9.5-3.9-14.7-3.9-14.7l11.2-6.4
			c-4.8-1.7-8.5-2-8.5-2s7.2-1.5,16.2-2.6c5.1-0.6,9.4-2,12.2-3c-5-18.2-23.3-20.3-33.9-18.5c-11,1.8-22.9,12.7-13.4,22.3
			c6.7,6.8,9.9,18.4,9.3,21.6l1.9,3.4c0,0-21.7-0.7-9.6,2.4s24.8,9.3,24.8,9.3l-6.6,4.9c0,0-14-2.3-36.8-5.7c-6.7-1-11.6-1-15.3-0.5
			c-3.2,1.3-6.3,2.8-9.5,4.5c-0.3,0.4-0.3,0.7-0.3,0.7s11.7-1.2,25.9,0.9s25.5,8.4,25.5,8.4s-6.2,4.6-13.5,2.3
			c-6.7-2-42.3-6-50.6-3.7c-0.7,0.5-1.3,1-2,1.5c-1.1,3.4,12.3,5.6,25.9,6.3c14.6,0.8,16.6,5.8,16.6,5.8s-1.4,0.6-7.7,5
			c-6.3,4.3-13,2-29.1-2.6c-6.5-1.9-15.3-1.4-22.2-0.1l0,0c-1.7,1.7-3.4,3.4-5.1,5.2c0.3,0,0.6,0,0.9,0c20.2-0.2,34.1,5.9,34.1,5.9
			s-11.4,8.3-13.8,6.8c-2.2-1.4-7.5-3-24.9-8.8c-2.5,2.8-5,5.7-7.6,8.8c0,0,22.4,13,38.4,9.2s42.7-17.8,58.2-25.3
			s37.9-31.2,37.9-31.2s2.5-6.1,3.6-15.1L863,1609.8z"/>
		<path opacity="0.3" fill="#091426" enable-background="new    " d="M863,1609.8c-1.9-4.6-4.8-8.2-7.9-10.8l-1.4,19.8l-17.1-5
			c-2.7-9.5-3.9-14.7-3.9-14.7l11.2-6.4c-4.8-1.7-8.5-2-8.5-2s7.2-1.5,16.2-2.6c5.1-0.6,9.4-2,12.2-3c-5-18.2-23.3-20.3-33.9-18.5
			c-11,1.8-22.9,12.7-13.4,22.3c6.7,6.8,9.9,18.4,9.3,21.6l1.9,3.4c0,0-21.7-0.7-9.6,2.4s24.8,9.3,24.8,9.3l-6.6,4.9
			c0,0-14-2.3-36.8-5.7c-6.7-1-11.6-1-15.3-0.5c-3.2,1.3-6.3,2.8-9.5,4.5c-0.3,0.4-0.3,0.7-0.3,0.7s11.7-1.2,25.9,0.9
			s25.5,8.4,25.5,8.4s-6.2,4.6-13.5,2.3c-6.7-2-42.3-6-50.6-3.7c-0.7,0.5-1.3,1-2,1.5c-1.1,3.4,12.3,5.6,25.9,6.3
			c14.6,0.8,16.6,5.8,16.6,5.8s-1.4,0.6-7.7,5c-6.3,4.3-13,2-29.1-2.6c-6.5-1.9-15.3-1.4-22.2-0.1l0,0c-1.7,1.7-3.4,3.4-5.1,5.2
			c0.3,0,0.6,0,0.9,0c20.2-0.2,34.1,5.9,34.1,5.9s-11.4,8.3-13.8,6.8c-2.2-1.4-7.5-3-24.9-8.8c-2.5,2.8-5,5.7-7.6,8.8
			c0,0,22.4,13,38.4,9.2s42.7-17.8,58.2-25.3s37.9-31.2,37.9-31.2s2.5-6.1,3.6-15.1L863,1609.8z"/>
		<path fill="#D8D8D8" d="M832.7,1599c0,0,1.3,5.2,3.9,14.7l17.1,5l1.4-19.8c-3.7-3.1-7.7-5.1-11.2-6.3L832.7,1599z"/>
		<path opacity="0.3" fill="#091426" enable-background="new    " d="M832.7,1599c0,0,1.3,5.2,3.9,14.7l17.1,5l1.4-19.8
			c-3.7-3.1-7.7-5.1-11.2-6.3L832.7,1599z"/>
	</g>
	<g>
		<path fill="#707070" d="M1310.2,1719.5c0,0-9.1,7.4-21.7,9.6l-0.3,4.6c0,0-1.1,3.1-8.3,4c0,0-0.7,11.7-0.8,14.6
			c-0.2,2.9-4.8,5.4-11.4,6c-6.7,0.6-10.5-3.6-13.2-15.7l-6.7,0.1l-2-4.7l-5.7,0.8v1.4l-12.9,0.2l-25.9,0.4c0,0,0.1,2.4-0.6,4.4
			s-8.9,2.3-8.9,2.3s-0.9,9.9-3.1,16s-14.3,4.8-16,4.6c-1.7-0.2-4.5-0.2-2.8-19.8c0,0-3.2-0.3-8.8-1.4c-5.6-1.1-4.3-6.4-4.3-6.4
			s-34.6-1.3-52.3-5.2c0,0-0.5,1.4-2.7,2.6c-2.2,1.3-4.3,0.8-4.3,0.8s-1.8,10.5-3.8,12.6c-1.9,2.1-9.4,0.2-12-0.8
			s-2.5-14.2-2.5-14.2s-2.4-1.3-5.5-3.8s-1.8-5.6-1.8-5.6l-7.4-2.3c0,0-1,3.9-3.3,6c0,0-0.5,11.2-0.5,13.1s3.1,3.8,0.8,7.5
			c-2.3,3.8-12,2.2-12,2.2s-2.1,13.7-2.4,15.3c-0.3,1.5,3.2,4.3-2.9,7.4s-21,0.7-21,0.7s-0.1,0.1-0.2,0.2c-0.3,0.3-0.9,0.8-1.8,1.5
			c-0.2,0.2-0.4,0.4-0.7,0.6c-0.1,0.1-0.2,0.2-0.4,0.3c-0.1,0.1-0.3,0.2-0.4,0.4c-2.7,2.4-6.9,6.2-11.8,10.8
			c-8.7,8.2-12.8,10.2-12.8,10.2s-0.1,6.8-0.7,9.7c-0.5,2.9-9.2,4-17.3,2.8l-11.5,6.6v3.3l-3.4,2.7c0,0-0.8,6.5-0.8,12.6
			c-0.1,6.1-0.3,7.4-7.3,7.9s-13.2,1-15.5,0.6c-2.4-0.4-2.2-13.9-2.2-13.9s-6.7,4.8-31.7,8.1c-25,3.2-46.8-2.9-46.8-2.9
			s0.5,6.3-2.2,10.2c-2.7,3.9-12.6,3.7-14.3,0s-2.9-12.9-2.9-12.9s-2.2-0.9-4.3-2.5s-1.2-6-1.2-6s-3.9-1-6.6-9.9
			c-2.8-8.9-5-22.9-5-22.9s-2.4,1.8-13.8,2.2c0,0,0.7,1.4,0,4.3s-3.8,2.2-3.8,2.2s-0.4,10.9-0.8,14.6c-0.4,3.7-4.5,3.6-10.2,3.8
			c-5.7,0.3-9.9-3.2-11.5-7.5s-2.1-8.5-2.1-8.5s-1.5,0.5-2.3-3.9l-40.1,0.6c0,0-0.5,4.6-4,4.5c0,0,1.1,12-5.2,12.7
			c-6.2,0.8-13.2,0.4-15.3-0.6s-3.1-12.7-3.1-12.7s-4.3,0.3-6.7-0.1c-2.3-0.4-2.6-5.9,0-8.2c0,0-7.5-1.7-15.6-5.4
			c-8-3.8-9.7-14.7-9.5-27.7c0.3-13,3.6-26.9,5.4-30.6c1.9-3.7,6.8-4.2,6.8-4.2s2.6-18.6,9.1-27.6s14.7-21.7,28.3-34
			c0,0,8.6,1.6,17.5,5c8.8,3.4,16.2,5.6,25.4,3s28.8-9.6,42.5-18.1s38.4-27.7,43.4-31.2s3.2-6.5,3.2-6.5c7.6-0.4,11.2,0,11.2,0
			s-0.2-3,2.8-4.8c3-1.7,10.1-1.6,14.6,0.9c4.5,2.4,6.3,5.9,6.3,5.9s12.7-4.3,16.3,8.6l70.1,27.4l41.5-2.8c0,0,4.5,4.2,14.2,5.6
			c9.7,1.3,20-9.2,20.9-15.1c0.8-5.8,1.4-8.1-0.6-14.3s1.6-6.6,6.3-5.1c4.7,1.5,19.8,2.3,39.2-4.7c19.4-7,32.1-23.8,32.1-23.8
			s75.8,28.5,91.8,30.2c16.1,1.7,17.4,0,17.4,0c22.2,2.1,34.8,9.4,43.6,16.6s9.8,21.1,9.8,21.1s1.8,0.5,4,1.4c0.9,0.4,2,0.8,3,1.3
			C1316.2,1675.6,1310.2,1719.5,1310.2,1719.5z"/>
		<path opacity="0.3" fill="#091426" enable-background="new    " d="M906.1,1624.4c0.9,12.8,1.4,7.5-4,13.9s-10.1,17.2-13.9,34.1
			c-3.8,16.8-2.1,38.2-1,46.6s-16,7.7-15.9,12c0.1,4.4,5.1,11.2,11.2,8.6c6.1-2.6,8.6-7.9,8.6-7.9s6.2,5.7,19.2,6.2
			s24.8-9.2,24.8-9.2l-21-96l-3.9-1.5C909.2,1627.9,907.7,1625.8,906.1,1624.4z"/>
		<path fill="#D8D8D8" d="M1154.3,1729.5c0.7-20.6,0.7-31.4,6.2-49.2s12.2-29,12.2-29l19.5,4.7c0,0-4.7,13-9.8,31.8
			c-5.2,18.8-9.1,44.6-3.3,49.2c0,0-3,0.1-10.7-2S1154.3,1729.5,1154.3,1729.5z"/>
		<path fill="#D8D8D8" d="M1136.5,1713c1.1-22.9,1.9-21.5,21.7-67.8l-9-5.5c0,0-7.8,9.2-17.5,23.5c-9.7,14.2-15,29.2-10.3,37.8
			L1136.5,1713z"/>
		<path fill="#D8D8D8" d="M986.6,1691.4l-0.9,1.1c0,0,7.9,7.1,13,28s6.3,42.7,6.3,42.7l3.5-3.7c0,0,2.7-40-1.7-58.2
			c-3.4-14.3-8.7-18.6-10.8-19.8C992.7,1684.7,989.5,1688,986.6,1691.4z"/>
		<path opacity="0.3" fill="#091426" enable-background="new    " d="M1008.3,1668.2c3.3-1.9,7.7-4.2,7.7-4.2
			c0.1,0.1,0.3,0.2,0.4,0.4c5.3-4,8.8-6.4,8.8-6.4l-3.6-2.3c0,0-29.2,8.8-45.4,24c-16.3,15.2-49.4,53.8-49.4,53.8
			c-2.4,4-3.4,6,1.5,6.8s28.1-5.9,32.2-7.8s5.5,1.2,14.3-22.7c2.2-6,6.5-12.3,11.7-18.3l8.5-10.2c0,0,0.3,0.1,0.9,0.4
			c2.3-2.2,4.7-4.4,7-6.4c-0.8-1.1-1.2-1.5-1.2-1.5S1005,1670.1,1008.3,1668.2z"/>
		<path opacity="0.3" fill="#091426" enable-background="new    " d="M996,1681.6c-3.3,3.1-6.5,6.4-9.4,9.8l8.5-10.2
			C995.1,1681.2,995.5,1681.3,996,1681.6z"/>
		<path fill="#D8D8D8" d="M1016.4,1664.4c-3.8,2.9-8.5,6.6-13.4,10.8c1.7,2.4,4.9,7.9,8.8,18.8c5.7,16,6.3,53.3,6.3,53.3l8.2-9.8
			c0,0,1.2-20,2.3-36.2C1029.8,1685.4,1025.9,1672.5,1016.4,1664.4z"/>
		<path opacity="0.3" fill="#091426" enable-background="new    " d="M1016,1664c0,0-4.5,2.3-7.7,4.2c-3.3,1.9-6.4,5.5-6.4,5.5
			s0.4,0.4,1.2,1.5c4.9-4.2,9.6-7.9,13.4-10.8C1016.3,1664.2,1016.1,1664.1,1016,1664z"/>
		<path fill="#707070" d="M1022.8,1777.2c-1,0.9-1.9,1.7-2.8,2.5c0.1-0.1,0.2-0.2,0.4-0.3c0.2-0.2,0.5-0.4,0.7-0.6
			C1021.9,1778,1022.5,1777.5,1022.8,1777.2z"/>
		<path fill="#D8D8D8" d="M840,1698.8c5.9-7.5,11.3-10.4,19.1-14.6s15.6-6.8,15.6-6.8l1.3-8c0,0-13.2,3.5-22,6.8
			S840,1698.8,840,1698.8z"/>
		<g opacity="0.3">
			<path fill="#091426" d="M686.8,1792.6c8,3.8,15.6,5.4,15.6,5.4c-2.6,2.3-2.3,7.8,0,8.2c2.3,0.4,6.7,0.1,6.7,0.1s1,11.8,3.1,12.7
				s9,1.3,15.3,0.6c6.2-0.8,5.2-12.7,5.2-12.7c3.6,0.1,4-4.5,4-4.5l40.1-0.6c0.9,4.4,2.3,3.9,2.3,3.9s0.4,4.2,2.1,8.5
				c1.6,4.3,5.8,7.8,11.5,7.5s9.8-0.1,10.2-3.8c0.4-3.7,0.8-14.6,0.8-14.6s3.2,0.7,3.8-2.2c0.7-2.9,0-4.3,0-4.3
				c11.3-0.5,13.8-2.2,13.8-2.2s2.2,14,5,22.9s6.6,9.9,6.6,9.9s-0.8,4.4,1.2,6s4.3,2.5,4.3,2.5s1.2,9.3,2.9,12.9
				c1.7,3.7,11.6,3.9,14.3,0s2.2-10.2,2.2-10.2s21.9,6.1,46.8,2.9c25-3.2,31.7-8.1,31.7-8.1s-0.2,13.4,2.2,13.9
				c2.4,0.4,8.5-0.1,15.5-0.6s7.2-1.8,7.3-7.9s0.8-12.6,0.8-12.6l3.4-2.7v-3.3l11.5-6.6c8.2,1.2,16.8,0.1,17.3-2.8s0.7-9.7,0.7-9.7
				s4-2,12.8-10.2c4.9-4.6,9-8.4,11.8-10.8c0.1-0.1,0.3-0.2,0.4-0.4c0.1-0.1,0.2-0.2,0.4-0.3c0.2-0.2,0.5-0.4,0.7-0.6
				c0.8-0.8,1.4-1.3,1.8-1.5c0.1-0.1,0.2-0.2,0.2-0.2s14.9,2.5,21-0.7c6.1-3.1,2.6-5.9,2.9-7.4s2.4-15.3,2.4-15.3s9.7,1.5,12-2.2
				c2.3-3.8-0.8-5.6-0.8-7.5s0.5-13.1,0.5-13.1c2.2-2.1,3.3-6,3.3-6l7.4,2.3c0,0-1.3,3.1,1.8,5.6c3.1,2.5,5.5,3.8,5.5,3.8
				s-0.1,13.2,2.5,14.2s10.1,2.8,12,0.8c1.9-2.1,3.8-12.6,3.8-12.6s2.1,0.4,4.3-0.8c2.2-1.3,2.7-2.6,2.7-2.6
				c17.7,3.9,52.3,5.2,52.3,5.2s-1.3,5.3,4.3,6.4c5.6,1.1,8.8,1.4,8.8,1.4c-1.6,19.6,1.1,19.6,2.8,19.8c1.7,0.2,13.9,1.5,16-4.6
				c2.2-6.1,3.1-16,3.1-16s8.2-0.4,8.9-2.3c0.7-2,0.6-4.4,0.6-4.4l25.9-0.4l12.9-0.2v-1.4l5.7-0.8l2,4.7l6.7-0.1
				c2.7,12.1,6.6,16.3,13.2,15.7c6.7-0.6,11.2-3.1,11.4-6c0.2-2.9,0.8-14.6,0.8-14.6c7.3-0.9,8.3-4,8.3-4l0.3-4.6
				c12.7-2.2,21.7-9.6,21.7-9.6s6-43.9-6.9-50.5c-1-0.5-2-0.9-3-1.3c-2.2-0.9-4-1.4-4-1.4s-7.8,0.4-14.8,11.7s-13.2,18.4-18.8,27.3
				c-5.6,9-7.7,7.7-19.3,14.3c-11.7,6.6-13.5,10.4-13.5,10.4s-20.3,2.2-35.1,0.6c-14.8-1.6-18.6-2-31.3-8.7s-27.9-18.9-41.8-28.1
				s-24.8-3.1-27.2-5.2c-2.5-2.2-5.5-5.5-5.5-5.5c-3.4-19.2-4.7-38.7-3.1-46.5s6.7-11.7,6.7-11.7l0,0c-15,3.9-26.3,3.2-30.2,1.9
				c-3.6-1.2-6.6-1.2-6.9,1.7c2.2,1.9,5,5.5,6.7,12.5c2.9,12.4,0,20.1,0,20.1c-5.2,0.8-5.6,5.5-8.5,15.5s-7,22.5-14,33.8
				s-17.4,18.2-25.6,30.7s-13.2,17.3-19,31.4s-5.4,12.9-14.2,20.3s-18.9,8.7-18.9,8.7c-6.5-11.7-14.1-18.2-30.2-28.6
				c-16.1-10.5-57.7-1.5-71.1-2.4s-23.7,12.8-23.7,12.8s-1.4,1-1.8-7.8s-2.6-20.5,0-34.9s3.7-21.1,7.9-31.8
				c4.2-10.7,10.1-24.6,12-31.1c1.8-6.5,5.5-13.7,11.4-20c5.8-6.3,9.5-9.1,11.7-12.8s5-12.3,9.8-17.9s5.7-4.5,5.7-4.5
				s-1.8-3.4-6.3-5.9c-1.9-1.1-4.4-1.7-6.8-1.9c-19.9,14.2-93.6,66.5-99.1,65c-6.4-1.7-12.6-0.6-11,1.9c1.5,2.5,5.1,3.6,20.2,7.9
				s14.2,6.2,17.9,4.9S837,1679,837,1679s-14.3,21-25.6,33.8c-11.4,12.8-15.6,18.6-21.7,40.5c-6.1,21.9-1.1,30.7-1.1,30.7h-15.7
				c0,0-7.8-16.3-20.1-28.9s-30.7-26-58-22c0,0-7.6,6.9-15.6,14.2c-1,5.3-1.8,11.6-1.9,17.6C677,1777.8,678.8,1788.8,686.8,1792.6z"
				/>
			<path fill="#091426" d="M1020.4,1779.3c-0.1,0.1-0.2,0.2-0.4,0.3c0.9-0.8,1.8-1.6,2.8-2.5c-0.3,0.3-0.9,0.8-1.8,1.5
				C1020.9,1778.9,1020.6,1779.1,1020.4,1779.3z"/>
		</g>
	</g>
	<path fill="#D8D8D8" d="M864.6,1661.3c10.6-1.4,15.6-0.6,15.6-0.6l1.2-5.6l-8.4-1.2L864.6,1661.3z"/>
	<polygon fill="#D8D8D8" points="846.5,1674.1 838,1680.7 842.9,1685.4 848.2,1678.2 	"/>
	<g>
		<path fill="#7F7F7F" d="M1240,1738.8l5.7-0.7l2,4.7l6.7-0.1c2.7,12.1,6.6,16.3,13.2,15.7c6.7-0.6,11.2-3.1,11.4-6
			c0.2-2.9,0.8-14.6,0.8-14.6c7.3-0.9,8.3-4,8.3-4l0.3-4.6c12.7-2.2,21.7-9.6,21.7-9.6s6-43.9-6.9-50.5c-1-0.5-2-1-3-1.3
			c-13.9,3.3-23.3,24.9-30.4,35.7c-8.1,12.2-10.5,17.7-23.4,24.9c-10.6,6-12.4,7.1-19.4,12.1l12.9-0.2v-1.5H1240z"/>
		<path opacity="0.3" fill="#091426" enable-background="new    " d="M1311.1,1710.1c-24.7,16.6-48.4,20.9-70.3,21.4
			c-5.9,3.4-8.2,5-13.7,8.9l12.9-0.2v-1.4l5.7-0.7l2,4.7l6.7-0.1c0.4,1.9,0.9,3.7,1.4,5.2c7.3-4.2,14.6-5.1,23.8-4.9
			c0.2-2.9,0.3-5.3,0.3-5.3c7.3-0.9,8.3-4,8.3-4l0.3-4.6c12.7-2.2,21.7-9.6,21.7-9.6S1310.7,1715.6,1311.1,1710.1z"/>
	</g>
	<g>
		<path fill="#7F7F7F" d="M749.6,1759.6c-10.3-14-37.8-29-60.1-29.5c0,0-4.9,0.6-6.7,4.2c-1.9,3.7-5.2,17.5-5.4,30.6
			c-0.3,13,1.5,24,9.5,27.7s15.6,5.4,15.6,5.4c-2.6,2.3-2.3,7.8,0,8.2c2.3,0.4,6.7,0.1,6.7,0.1s1,11.8,3.1,12.7
			c2.1,1,9,1.3,15.3,0.6c6.2-0.7,5.2-12.7,5.2-12.7c3.6,0.1,4-4.5,4-4.5l40.1-0.6c0.9,4.4,2.3,3.9,2.3,3.9s0.4,4.2,2.1,8.5
			c1.6,4.3,5.8,7.8,11.5,7.5s9.8-0.1,10.2-3.8c0.4-3.7,0.7-14.6,0.7-14.6s3.2,0.7,3.8-2.2c0.7-2.9,0-4.3,0-4.3
			c-11.6-5.4-37.3-8.2-37.3-8.2S759.8,1773.5,749.6,1759.6z"/>
		<path opacity="0.3" fill="#091426" enable-background="new    " d="M800.5,1794.2c-12.9,2.3-44.8,7.4-62,4.7
			c-18.7-2.9-41.8-8.4-59.7-17.2c1.4,5.1,3.8,9,8,10.9c8,3.7,15.6,5.4,15.6,5.4c-2.6,2.3-2.3,7.8,0,8.2c2.3,0.4,6.7,0.1,6.7,0.1
			s0.2,2.3,0.6,4.9c4.2-0.5,10.4-0.9,19.2-0.9c1.2,0,2.5,0,3.8,0.1c0.1-2,0-3.6,0-3.6c3.6,0.1,4-4.5,4-4.5l40.1-0.6
			c0.9,4.4,2.3,3.9,2.3,3.9s0.4,4.2,2.1,8.5c0.1,0.4,0.3,0.7,0.5,1c3-1,7.5-1.9,13.3-1.9c3.4,0,6.1,0.5,8.2,1.1
			c0.3-4.7,0.5-11.2,0.5-11.2s3.2,0.7,3.8-2.2c0.7-2.9,0-4.3,0-4.3C805.5,1795.8,803.1,1794.9,800.5,1794.2z"/>
	</g>
	<g>
		<path fill="#7F7F7F" d="M957.6,1807.1c0,0-6-11.3-18.5-24.8s-23.1-18.6-43.5-20.7s-32.7,4.4-46.3,14.4
			c-13.5,10-14.6,14.4-14.6,14.4s-2.5,1-6.7-2.1s-4.6-6.7-6-6.1c-1.4,0.5-1.6,3.6-0.8,12.3c0,0,2.2,14,5,22.9s6.7,9.9,6.7,9.9
			s-0.8,4.4,1.2,6c2.1,1.6,4.3,2.5,4.3,2.5s1.2,9.3,2.9,12.9s11.6,3.9,14.3,0s2.2-10.2,2.2-10.2s21.9,6.1,46.9,2.9
			s31.7-8.1,31.7-8.1s-0.2,13.4,2.2,13.9c2.4,0.4,8.5-0.1,15.6-0.6c7-0.5,7.2-1.8,7.3-7.9s0.8-12.6,0.8-12.6l3.4-2.7v-3.3l11.5-6.7
			c8.2,1.2,16.8,0.1,17.3-2.8s0.7-9.7,0.7-9.7s-7.5,4.7-15.2,5.3C972.2,1807,957.6,1807.1,957.6,1807.1z"/>
		<g>
			<path opacity="0.3" fill="#091426" enable-background="new    " d="M841.1,1788.2c5.6-6,18.5-16.9,25.4-22.5
				c-6,2.6-11.4,6.1-17.1,10.3c-13.5,10-14.6,14.4-14.6,14.4s-1.9,0.8-5.1-1c-0.3,1.2-0.5,2.4,0.1,3.2
				C831.3,1794.7,833.4,1796.4,841.1,1788.2z"/>
			<path opacity="0.3" fill="#091426" enable-background="new    " d="M952.8,1804.4c0.9,0.3,2.1,0.3,3.3,0.2
				c-2.5-4-8.1-12.6-17-22.3c-6.8-7.3-13-12.2-20.6-15.4C935.9,1782.6,949.3,1803.3,952.8,1804.4z"/>
			<path opacity="0.3" fill="#091426" enable-background="new    " d="M995.1,1801.1c0,0-7.5,4.7-15.2,5.3
				c-4.6,0.4-11.8,0.5-16.8,0.6c-1.9,3.1-5.2,7-21.4,12.9c-19.5,7.1-53.5,10.8-78.9,9s-28.9-6.1-29.8-9.3
				c-0.8-3.1-7.8-22.2-7.6-25.8c0.1-2.3,0.8-4.5,1.9-6c-3.6-3-4-6.1-5.4-5.6s-1.6,3.6-0.8,12.3c0,0,2.2,14,5,22.9s6.7,9.9,6.7,9.9
				s-0.8,4.4,1.2,6c2.1,1.6,4.3,2.5,4.3,2.5s0.4,3.5,1.2,7c1.3,0.1,2.6,0.2,4,0.2c6.2,0.1,10.8,0.4,14,0.6c0.5-2.7,0.3-5.1,0.3-5.1
				s21.9,6.1,46.9,2.9s31.7-8.1,31.7-8.1s-0.1,3.5,0.2,7c2.6-1.4,6.4-2.8,11.7-4c6-1.3,10.4-2.1,13.3-2.5c0.3-4.2,0.6-7.6,0.6-7.6
				l3.4-2.7v-3.3l11.5-6.7c2.2,0.3,4.4,0.5,6.4,0.5c4.5-3.9,8.6-6.9,11.4-8.9C995.1,1802.9,995.1,1801.1,995.1,1801.1z"/>
		</g>
	</g>
	<g>
		<path fill="#7F7F7F" d="M1145.5,1718.9c-12.9-11.4-31.5-27.1-49.4-33.5s-36.8-8.2-36.8-8.2c0.1,10.3-8.7,24.7-19,39.6
			c-10.3,14.8-40.8,47.8-41.5,53.5s-1.1,22.6-1.1,22.6s6.8,0.2,21.9-12.8c2.2-1.9,3.4-3,3.4-3s14.9,2.5,21-0.7
			c6.1-3.1,2.6-5.9,2.9-7.4s2.4-15.3,2.4-15.3s9.7,1.5,12-2.2s-0.8-5.6-0.8-7.5s0.5-13.1,0.5-13.1c2.2-2.1,3.3-6,3.3-6l7.4,2.3
			c0,0-1.3,3.1,1.8,5.6c3.1,2.5,5.5,3.8,5.5,3.8s-0.1,13.2,2.5,14.2s10.1,2.8,12,0.7s3.7-12.6,3.7-12.6s2.1,0.4,4.3-0.8
			c2.2-1.3,2.7-2.6,2.7-2.6c17.7,3.9,52.3,5.2,52.3,5.2s-1.3,5.3,4.3,6.4c5.6,1.1,8.8,1.4,8.8,1.4c-1.6,19.6,1.1,19.6,2.8,19.8
			c1.7,0.2,13.9,1.5,16-4.6c2.2-6.1,3.1-16,3.1-16s8.2-0.4,8.9-2.3c0.7-2,0.7-4.4,0.7-4.4s-10.9-3.3-20.3-4.5
			C1171.6,1735.2,1158.4,1730.4,1145.5,1718.9z"/>
		<path opacity="0.3" fill="#091426" enable-background="new    " d="M1200.5,1745.2c0.7-2,0.7-4.4,0.7-4.4s-10.9-3.3-20.3-4.5
			c-2-0.2-4.2-0.7-6.5-1.3c-24.6-1.5-62.6-3.9-69.9-4.7c-11-1.2-13.2,2.5-13.2,2.5l-15.2-2.3c0,0-1.3-8.9-0.3-17.5
			s2.6-16.4,6.8-24.1c1.7-3,3.7-4.9,5.5-6c-15.2-4.4-28.9-5.7-28.9-5.7c0,1.2-0.1,2.5-0.3,3.9c2.1,4.1,4.5,10.4,4.1,17.7
			c-0.7,12.6-0.1,19.2-6.9,29.9c-6.8,10.8-23.5,26.3-34.7,38.3c-10.5,11.2-17.2,15.1-20.9,25.3c3.3-1,9.5-4,19.2-12.2
			c2.2-1.9,3.4-3,3.4-3s1.5,0.2,3.7,0.5c1.6-1.9,4.8-5,10.8-9.3c4.9-3.6,8.3-4.9,10.5-5.3c0.7-4.3,1.4-9.2,1.4-9.2
			s3.8-8.4,11.2-10.3c0.1-2.9,0.5-12.6,0.5-12.6c2.2-2.1,3.3-6,3.3-6l7.4,2.3c0,0-1.3,3.1,1.8,5.6c3.1,2.5,5.5,3.8,5.5,3.8
			s0,4.8,0.5,8.8c2.9-1,9.4-2.8,16.9-2c0.6-2.4,0.9-4.4,0.9-4.4s2.1,0.4,4.3-0.8c2.2-1.3,2.7-2.6,2.7-2.6
			c17.7,3.9,52.3,5.2,52.3,5.2s-1.3,5.3,4.3,6.4c5.6,1.1,8.8,1.4,8.8,1.4c-0.2,2.8-0.4,5.1-0.4,7.2c2.7-0.7,6.5-1.1,11.4-0.4
			c4,0.5,7.2,1.1,9.6,1.6c0.9-4.7,1.3-9.2,1.3-9.2S1199.8,1747.2,1200.5,1745.2z"/>
	</g>
	<g>
		<path fill="#707070" d="M1170.9,1580.5L1170.9,1580.5L1170.9,1580.5L1170.9,1580.5L1170.9,1580.5z"/>
		<path fill="#707070" d="M1136.2,1590.8c0,0,12.8,2.9,19.6,7.1l2.6-0.8l0,0c-0.2-0.2-0.5-0.6-0.8-1.3c-0.4-0.9-0.6-2-0.8-3
			c-0.1-0.7-0.2-1.4-0.3-2.1l0,0c0-0.2,0-0.5-0.1-0.7c0-0.2,0-0.3,0-0.3l0,0c-0.2-4.4,0.4-9.1,1.1-11.4c1.1-3.6,1.9-3.6,1.9-3.6
			l6.2,3.2c0.3-0.7,1.7-3.6,8.9-11.2c4.1-4.3,7.2-6.3,9.3-7.3c0.6-5.1-1.9-10.6-8.5-11c-9.9-0.7-28.5,4.8-38.2,21.4
			c-0.9,1.5-1.7,3.1-2.3,4.5C1137.4,1582,1136.2,1590.8,1136.2,1590.8z"/>
		<path fill="#707070" d="M1195.3,1619.3l15-13.8c-2.4-1.6-5.1-3.2-8-4.6c-2.7,3.2-9,10.6-12.8,14.7L1195.3,1619.3z"/>
		<path fill="#707070" d="M1180.8,1607.8l12.4-11.1c-3.7-1.7-7.4-3.2-10.7-4.6c-2.7,5.6-7.5,11.7-7.5,11.7L1180.8,1607.8z"/>
		<path fill="#707070" d="M1232.2,1634.8l3.5-6.7c-1.3-0.3-2.8-0.7-5.2-2.1l-4.4,7.2L1232.2,1634.8z"/>
		<path fill="#707070" d="M1223.1,1628.9l4.7-5.1c-1-1.6-2.2-4.5-2.2-4.5s-3.2-4.4-9.6-9.6l-8.6,14.8L1223.1,1628.9z"/>
		<path fill="#D8D8D8" d="M1156.7,1590.6c0-0.3,0-0.5-0.1-0.7C1156.6,1590.2,1156.6,1590.4,1156.7,1590.6z"/>
		<path fill="#D8D8D8" d="M1156.9,1592.7c-0.1-0.8-0.2-1.5-0.3-2.1C1156.7,1591.3,1156.8,1592,1156.9,1592.7z"/>
		<path fill="#D8D8D8" d="M1170.8,1580.5l-5.1-2.5c0,0,0-0.1,0.1-0.2l-6.2-3.2c0,0-0.8,0-1.9,3.6c-0.7,2.4-1.3,7.1-1.1,11.4
			l11.8-4.8C1169,1583.8,1169.8,1582.3,1170.8,1580.5L1170.8,1580.5L1170.8,1580.5z"/>
		<path fill="#707070" d="M1174.8,1566.7c-7.3,7.6-8.7,10.5-8.9,11.2l5,2.6l0,0c2.8-4.9,7-11.6,10.1-14.6c1.7-1.6,2.7-4,3-6.5
			C1181.9,1560.4,1178.8,1562.4,1174.8,1566.7z"/>
		<path opacity="0.3" fill="#091426" enable-background="new    " d="M1174.8,1566.7c-7.3,7.6-8.7,10.5-8.9,11.2l5,2.6l0,0
			c2.8-4.9,7-11.6,10.1-14.6c1.7-1.6,2.7-4,3-6.5C1181.9,1560.4,1178.8,1562.4,1174.8,1566.7z"/>
		<path fill="#707070" d="M1157.7,1595.8c-0.4-0.9-0.6-1.9-0.8-3C1157.1,1593.8,1157.3,1594.9,1157.7,1595.8
			c0.3,0.7,0.6,1.1,0.8,1.3l0,0l-2.6,0.8c-6.9-4.2-19.6-7.1-19.6-7.1s1.1-8.8-1.2-16.5c-6.3,14.2-1.3,24-1.3,24s12,8.3,23.6,17.3
			s74.9,26.1,74.9,26.1s5.3-6.2,10.8-13.2c0,0-2.9,0.5-5.4,0c-0.7-0.1-1.3-0.2-1.9-0.4l-3.5,6.7l-6.2-1.7l4.4-7.2
			c-0.6-0.4-1.3-0.8-2-1.3c-0.2-0.2-0.5-0.5-0.8-0.9l-4.7,5.1l-15.7-4.4l8.6-14.8c-1.6-1.3-3.5-2.7-5.5-4.1l-15,13.8l-5.8-3.7
			c3.7-4.1,10-11.5,12.8-14.7c-0.2-0.1-0.5-0.2-0.7-0.4c-2.8-1.3-5.7-2.6-8.5-3.9l-12.4,11.1l-5.8-4.1c0,0,4.8-6.1,7.5-11.7
			c-8.4-3.5-14.7-6-14.7-6l-0.5,2.7L1157.7,1595.8z"/>
		<path opacity="0.3" fill="#091426" enable-background="new    " d="M1157.7,1595.8c-0.4-0.9-0.6-1.9-0.8-3
			C1157.1,1593.8,1157.3,1594.9,1157.7,1595.8c0.3,0.7,0.6,1.1,0.8,1.3l0,0l-2.6,0.8c-6.9-4.2-19.6-7.1-19.6-7.1s1.1-8.8-1.2-16.5
			c-6.3,14.2-1.3,24-1.3,24s12,8.3,23.6,17.3s74.9,26.1,74.9,26.1s5.3-6.2,10.8-13.2c0,0-2.9,0.5-5.4,0c-0.7-0.1-1.3-0.2-1.9-0.4
			l-3.5,6.7l-6.2-1.7l4.4-7.2c-0.6-0.4-1.3-0.8-2-1.3c-0.2-0.2-0.5-0.5-0.8-0.9l-4.7,5.1l-15.7-4.4l8.6-14.8
			c-1.6-1.3-3.5-2.7-5.5-4.1l-15,13.8l-5.8-3.7c3.7-4.1,10-11.5,12.8-14.7c-0.2-0.1-0.5-0.2-0.7-0.4c-2.8-1.3-5.7-2.6-8.5-3.9
			l-12.4,11.1l-5.8-4.1c0,0,4.8-6.1,7.5-11.7c-8.4-3.5-14.7-6-14.7-6l-0.5,2.7L1157.7,1595.8z"/>
		<path fill="#707070" d="M1156.7,1590.6L1156.7,1590.6L1156.7,1590.6z"/>
		<path opacity="0.3" fill="#091426" enable-background="new    " d="M1156.7,1590.6L1156.7,1590.6L1156.7,1590.6z"/>
		<path fill="#707070" d="M1156.6,1589.6c0,0,0,0.1,0,0.3C1156.6,1589.8,1156.6,1589.7,1156.6,1589.6L1156.6,1589.6z"/>
		<path opacity="0.3" fill="#091426" enable-background="new    " d="M1156.6,1589.6c0,0,0,0.1,0,0.3
			C1156.6,1589.8,1156.6,1589.7,1156.6,1589.6L1156.6,1589.6z"/>
		<path fill="#D8D8D8" d="M1170.8,1580.5l-5-2.6c0,0.1-0.1,0.2-0.1,0.2L1170.8,1580.5z"/>
		<path opacity="0.3" fill="#091426" enable-background="new    " d="M1170.8,1580.5l-5-2.6c0,0.1-0.1,0.2-0.1,0.2L1170.8,1580.5z"
			/>
		<path fill="#D8D8D8" d="M1156.6,1589.9c0,0.2,0,0.4,0.1,0.7l0,0c0,0.6,0.1,1.3,0.3,2.1c0.2,1.1,0.4,2.1,0.8,3l9.5-7l0.5-2.7
			c0,0,0.3-0.5,0.7-1.3l-11.8,4.8C1156.6,1589.7,1156.6,1589.8,1156.6,1589.9z"/>
		<path opacity="0.3" fill="#091426" enable-background="new    " d="M1156.6,1589.9c0,0.2,0,0.4,0.1,0.7l0,0c0,0.6,0.1,1.3,0.3,2.1
			c0.2,1.1,0.4,2.1,0.8,3l9.5-7l0.5-2.7c0,0,0.3-0.5,0.7-1.3l-11.8,4.8C1156.6,1589.7,1156.6,1589.8,1156.6,1589.9z"/>
	</g>
	<g>
		<path fill="#707070" d="M906.2,1730.1c-10.4-0.8-14.3-4-14.8-7.8c-0.6-3.8-0.3-6.6,0-12.4s-0.3-13.1-0.3-16.9
			c0-3.9,1.3-17.2,2-21.8c0.7-4.6,5-15,6.5-19.5s4.2-8.3,7-12.9s3.1-5.8,3-16.8s11.1-24.8,36.3-23.3c25.2,1.4,37.6,7.3,38.5,26
			s-5.2,31.1-5.2,31.1s-3.8,13.3-10.9,19.2s-33.5,48.5-38.6,51.4S914,1730.7,906.2,1730.1z"/>
		<path opacity="0.3" fill="#091426" enable-background="new    " d="M968.2,1675c7.2-5.8,10.9-19.2,10.9-19.2s3.6-7.4,4.9-19.4
			c-0.6,1.3-1.3,2.8-2.1,4.6c-3,6.4-6.1,11.4-8.9,15.1c-6.6-3-26.5-11.2-42.2-9.3c-13.9,1.7-26.1,4.5-31.7,5.9
			c-0.9,2.6-2.4,6.4-3.7,10c21.5-7.9,42.6-8.2,54-5.5c8,1.9,13.3,5.4,15.9,7.5c-2.1,1.8-4.9,4.1-8.3,7.3c-6.6-3-21.3-8.5-35.9-6.4
			c-14.3,2.1-24,5.1-28.3,6.6c-0.4,3-1,8.2-1.4,12.7c20.2-6.6,46.9-4.6,56.8-3.5c-0.1,0.2-0.3,0.3-0.4,0.5c-3,3.8-6.5,9-10,14.8
			c-9.3-1.8-31-5.5-46.9-3c0,1.9,0.2,4.5,0.3,7.3c15.2-2.9,36-0.1,43.5,1.1c-2.3,4-4.5,8.2-6.6,12.4l-36.9-3.5
			c-0.2,3.6-0.4,6-0.2,8.3c14.5-0.9,29.4-0.5,34.9-0.3c-1.7,3.5-3.3,6.9-4.6,10.1c3.3-0.6,6.3-1.6,8.3-2.7
			C934.8,1723.5,961.1,1680.8,968.2,1675z"/>
	</g>
	<path fill="#7F7F7F" d="M889.2,1631.1c2.7-4.9,2.5-7,6.4-4s3.7,6.3,1.8,10.5s-10.9,26.9-12.2,39.4s-2.2,30.3-1.1,35.6
		s7.8,19.6,0.7,23.8s-9.4,2.7-12.4-11.8s-0.9-40.3,1.8-50.4S885.8,1637.4,889.2,1631.1z"/>
	<path fill="#D8D8D8" d="M895.9,1653.5c0,5.6-3.1,9.9-6.9,10.1c-4.4,0.3-6.9-3.6-6.9-10.1c0-5.6,3.1-9.6,6.9-10.1
		C893.6,1642.9,895.9,1648,895.9,1653.5z"/>
	<path fill="#D8D8D8" d="M887.2,1677.9c0,4.4-2.7,8.4-6.8,8.4s-6.8-3.9-6.8-8.2c0-4.4,2.9-8.5,7.1-8.5
		C886,1669.6,887.2,1673.6,887.2,1677.9z"/>
	<ellipse fill="#D8D8D8" cx="877.3" cy="1698.3" rx="6.2" ry="8.5"/>
	<path fill="#D8D8D8" d="M884.1,1717.1c0,3.9-2.3,6.9-5.7,6.9s-6.8-3.2-6.8-7.1s2.6-7.8,6-7.8
		C881.7,1709.1,884.1,1713.2,884.1,1717.1z"/>
	<path fill="#7F7F7F" d="M929,1738.7c-5.3,0.9-4-5.2,1-15.8s16.5-29.7,28-42.1c11.5-12.3,20.3-19.9,31.7-27.7
		c11.4-7.7,11.7-11.2,16.2-12.2c4.5-0.9,9.2,8.7,15.8,14.7c0,0-11.4,5.1-22.7,13.7s-21.6,25.2-26.8,33.8s-10.4,22.4-10.4,22.4
		S939.4,1737,929,1738.7z"/>
	
		<ellipse transform="matrix(0.6063 -0.7952 0.7952 0.6063 -994.4147 1429.7321)" fill="#D8D8D8" cx="946.8" cy="1719.2" rx="8" ry="7"/>
	
		<ellipse transform="matrix(0.6063 -0.7952 0.7952 0.6063 -977.7347 1429.0312)" fill="#D8D8D8" cx="954.4" cy="1702" rx="9" ry="7.3"/>
	<path fill="#D8D8D8" d="M991.4,1655.7c3.7,3.1,4,6.9,0.3,11.6c-3.1,3.9-8,5.2-11.2,2.8c-3.2-2.4-3.3-7.6-0.3-11.6
		S988.3,1653.1,991.4,1655.7z"/>
	
		<ellipse transform="matrix(0.6461 -0.7633 0.7633 0.6461 -937.8663 1333.2684)" fill="#D8D8D8" cx="968.7" cy="1677.9" rx="10.7" ry="7.3"/>
	<path fill="#7F7F7F" d="M775,1677.8c-2.8,1.8-1.8,2.8,2.6,4.9s26.2,8.7,26.2,8.7s21.8-9.4,35.8-18.4s36.7-31.8,41-38.4
		s7.5-10.5,4.6-16.2s-8.2-3.6-13.8,0.9s-27.8,23.9-51.1,37.2C797.1,1669.5,775,1677.8,775,1677.8z"/>
	<ellipse fill="#D8D8D8" cx="870" cy="1635.9" rx="7" ry="6.9"/>
	<circle fill="#D8D8D8" cx="853.5" cy="1650.9" r="7"/>
	<path fill="#D8D8D8" d="M837.8,1666.3c-3.3,3.3-8.1,4.4-10.9,1.7c-2.6-2.5-0.4-7.7,2.8-11.1s6.1-3.7,8.7-1.2
		C842,1659.4,841.7,1662.4,837.8,1666.3z"/>
	<path fill="#D8D8D8" d="M814.5,1682.1c-2.9,3.6-7.6,6.4-10.7,4.6c-3.1-1.8-4-6.3-0.9-11c2.5-3.8,6.6-5.6,9.7-4
		C816.3,1673.7,818.3,1677.4,814.5,1682.1z"/>
	<g>
		<path opacity="0.3" fill="#091426" enable-background="new    " d="M1132,1613.2c-6.6,2.6-8,3-6.3,7.1s16.5,15.8,31.4,22.2
			c14.9,6.4,23.7,9.3,39.8,12.8c16.2,3.5,34-6.6,36.2-12.2c2.3-5.5-57.3-11.2-57.3-11.2L1132,1613.2z"/>
		<path fill="#7F7F7F" d="M1129.5,1619c-1.9-2.4-2.5-2.9,2.3-9s10.8-10.7,10.8-10.7s7.6,0.7,20.7,9.4s12.4,10.8,28.1,16.3
			c15.7,5.4,24.5,10.5,33.1,12.8s9.4,1.6,6.5,6.6c-3,5-11.8,9.8-26.4,8.3s-39.8-8.8-53.3-16.9
			C1137.8,1627.8,1129.5,1619,1129.5,1619z"/>
	</g>
	<path fill="#D8D8D8" d="M1155.9,1615.9c0,4.2-3.3,7-9.8,6.3c-4.8-0.5-8.7-3.4-8.7-7.5c0-4.2,3.6-8.1,8.4-8.1
		C1150.5,1606.6,1155.9,1611.7,1155.9,1615.9z"/>
	<path fill="#D8D8D8" d="M1178.8,1623.7c0,3.8-4,6.3-8.3,6.3s-8.9-4.9-8.9-8.8s4-6.8,8.4-6.8S1178.8,1619.8,1178.8,1623.7z"/>
	<path fill="#D8D8D8" d="M1192.5,1630.3c2.9,2.7,4.1,7.9,1.6,10.6s-7.7,1.8-10.6-0.9c-2.9-2.7-4.1-7.7-1.6-10.4
		S1189.6,1627.6,1192.5,1630.3z"/>
	<ellipse fill="#D8D8D8" cx="1213.7" cy="1643.1" rx="9.4" ry="6"/>
	<path fill="#4D4D4D" d="M1216.4,1642.9c2.6-4.1,4.9-8.3,7.6-12.3c2.8-4.1,6.2-7.8,8.9-11.9c3-4.7-3.6-9.2-7.5-5.8
		c-7.4,6.6-12.9,16.5-17.5,25.1C1205,1643.5,1213.1,1648.3,1216.4,1642.9L1216.4,1642.9z"/>
	<path fill="#4D4D4D" d="M1209.7,1602.3c-6.1,2.4-11,7.8-14.9,12.9c-3.9,5.2-8,10.6-11,16.4c-2.3,1.9-2.3,6,0.5,7.8
		c0.1,0.1,0.3,0.2,0.4,0.3c1.6,1.1,4.6,0.9,5.9-0.8c3.9-4.9,6.8-10.7,10.5-15.8c4-5.5,8.2-11,11.6-16.8
		C1213.9,1604.5,1212,1601.4,1209.7,1602.3z"/>
	<path fill="#4D4D4D" d="M1170,1625.4c3.6,0.4,5.3-1.9,7.6-4.4c2.7-2.8,5.2-5.7,7.6-8.7c2-2.5,3.8-5.1,5.6-7.8
		c1.9-2.7,4.8-5.2,5.5-8.4c0.5-1.9-0.9-3.8-2.9-3.9c-6.6,0-11.5,8.5-15.2,13.1c-2.6,3.2-5.2,6.5-7.9,9.6c-2.4,2.8-3.9,4.2-3.4,8
		C1167.1,1624.6,1168.7,1625.3,1170,1625.4L1170,1625.4z"/>
	<path fill="#4D4D4D" d="M1155,1616c3.6-3.5,6.4-7.6,9.7-11.4c3.7-4.3,8.9-7.5,13.4-10.7c5.1-3.6,0.8-10.8-4.8-8.3
		c-11.3,5.1-21.7,11.9-28.9,22.1C1139.7,1614.2,1149.6,1621.2,1155,1616L1155,1616z"/>
	<g>
		<path fill="#D8D8D8" d="M932.1,1627.5c1.7,7.4,2.7,17.4,2.7,17.4l21.9,2.9c0,0,1.7-3.9,1.5-12.8s-0.6-10.5-0.6-10.5L932.1,1627.5z
			"/>
		<path fill="#999DA2" d="M934.2,1639.5c0.4,3.2,0.6,5.4,0.6,5.4l21.9,2.9c0,0,1.4-3.3,1.5-10.8
			C953.1,1636.9,944.2,1637.1,934.2,1639.5z"/>
	</g>
	<path fill="#4D4D4D" d="M891.5,1660c15.1-5.2,29.4-8,45.5-6.7c7.6,0.6,15,1.7,22.3,3.7c7.8,2.1,14.7,6.2,22.3,8.5
		c4.1,1.2,8-4.7,4.4-7.5c-6.7-5.3-16-8.2-24.1-10.5s-16.5-3.8-24.9-4.2c-8.4-0.4-16.9,0.4-25.1,1.7c-8.4,1.3-17.8,2.8-23.6,9.4
		C886.3,1656.7,888.2,1661.2,891.5,1660L891.5,1660z"/>
	<path fill="#4D4D4D" d="M883.8,1681.5c3.1,0.4,5.8-1.4,8.7-2.3c3.2-1.1,6.5-2,9.8-2.8c7.1-1.7,14.3-2.7,21.6-3.2
		c14-0.9,28.2,1.4,40.8,7.5c5.9,2.9,11.1-6,5.2-8.9c-14.4-7-30.1-9.5-46-9.1c-7.9,0.2-15.8,1.4-23.6,2.9c-6.3,1.2-17.7,2-20.8,8.5
		C877.9,1677.7,880,1681,883.8,1681.5L883.8,1681.5z"/>
	<path fill="#4D4D4D" d="M879.3,1702.7c2.6,0.3,4.5-1.2,6.8-1.9c3-0.9,6.2-1.6,9.3-2.1c6.6-1.2,13.2-1.8,19.9-1.8
		c11.9-0.1,25.3,0.7,34.7,8.9c4.4,3.9,10.9-2.7,6.5-6.5c-11.5-9.7-26.5-12.3-41.1-12.4c-8.2-0.1-16.4,0.7-24.5,2.3
		c-5.5,1.1-15.6,2.4-15.5,9.7C875.6,1701.1,877.3,1702.4,879.3,1702.7L879.3,1702.7z"/>
	<path fill="#4D4D4D" d="M881.4,1718c10.7-2.9,21.2-4.6,32.3-3.7c5.4,0.4,10.8,1.2,16.1,2.5c5.4,1.3,10.3,3.9,15.5,5.3
		c4.5,1.2,6.4-4.6,3-7.1c-4.7-3.5-11.5-5.2-17.1-6.5c-6-1.4-12.2-2.2-18.4-2.2s-12.3,0.3-18.5,1.2c-5.5,0.8-11.9,1.3-16,5.4
		C876.2,1715,878.4,1718.8,881.4,1718L881.4,1718z"/>
	<path fill="#4D4D4D" d="M741,1654.8c4.9,3.9,11.2,2.2,17,2.3c6.2,0.2,12.7,2.2,18.5,4.2c5.9,2.1,11.5,5.5,16.9,8.8
		c2.4,1.4,4.8,2.9,7,4.5c2.4,1.8,4.5,4.2,7.1,5.6c2.1,1.1,4.4,0.1,5.2-2.1c2-5.7-5.4-12.1-9.4-15.4c-5.7-4.7-12-7-19.1-8.9
		s-14.2-4.4-21.5-5.4c-6.2-0.8-15.4-1.4-21.1,1.4C739.9,1650.7,739.5,1653.6,741,1654.8L741,1654.8z"/>
	<path fill="#4D4D4D" d="M766.9,1640.6c5.3,0.4,11.2,0.3,16.1,0.2c6.1-0.1,12.2,0.5,18.1,2c5.5,1.4,10.9,3.5,15.7,6.6
		s8.3,7.2,12.5,10.9c3.3,3,8.9-0.8,6.4-4.9c-6.4-10.5-20.1-17.2-31.5-20.3c-6.8-1.9-14.1-2.8-21.1-2.7c-5.5,0-13.6-0.6-17.2,4.2
		C764.9,1637.9,765.7,1639.8,766.9,1640.6L766.9,1640.6z"/>
	<path fill="#4D4D4D" d="M760.9,1639.1c4.3,2.8,17.2,1.7,22.2,1.7c6.1-0.1,12.2,0.5,18.1,2c5.5,1.4,10.9,3.5,15.7,6.6
		s8.3,7.2,12.5,10.9c3.3,3,8.9-0.8,6.4-4.9c-6.4-10.5-20.1-17.2-31.5-20.3c-6.8-1.9-14.1-2.8-21.1-2.7c-5.5,0-17.6-0.6-22.2,3.5
		C759.7,1637,759.7,1638.3,760.9,1639.1L760.9,1639.1z"/>
	<path fill="#4D4D4D" d="M776.8,1626.5c3,1.3,4.9,0.9,8.2,0.8c3.5-0.1,7.1-0.2,10.6-0.1c6.8,0.1,13.5,0.6,20.1,2.5
		c13.2,3.7,22.5,12.2,32.7,20.8c4.6,3.9,10.7-2.1,6.6-6.6c-9.7-11-21.5-19.9-35.9-23.4c-7-1.7-14.4-2.6-21.6-2.5
		c-6.4,0.1-16.2-0.2-21.3,4.1C774.9,1623.1,775.2,1625.8,776.8,1626.5L776.8,1626.5z"/>
	<path fill="#4D4D4D" d="M799.8,1617.2c4.7,2.6,11.4,0.3,16.6,0.2c6.2-0.1,12.4,0.5,18.5,1.8c5.6,1.2,11.1,3.1,16.1,6.1
		c2.5,1.5,4.8,3.2,6.9,5.2c1.2,1.2,4.2,3.9,4.2,5.6c-0.1,7.7,12.5,5.5,10-1.4c-4.5-12-18.8-19.8-30.4-23.1c-6.9-2-14.2-3-21.3-3.1
		c-6-0.2-16.8-1-21.1,4C798,1613.9,798,1616.2,799.8,1617.2L799.8,1617.2z"/>
	<g>
		<path fill="#383C41" d="M872.1,1634.8c-0.7-1.8-1.5-3.4-2.6-5c-0.6,1.3-1.5,2.5-2.9,3.3c-2.8,1.6-5.2,0.5-7.4-1.2
			c1.3,1.3,2.8,3.1,2.8,4.3C862,1643.8,874.6,1641.6,872.1,1634.8z"/>
		<path fill="#383C41" d="M851.1,1625.3c0.9,0.5,1.7,1.1,2.5,1.6c-4.3-3.9-8.4-7.8-13.6-10.6c-6.6-3.5-13.8-5.3-21.1-6.2
			c-4.1-0.5-9.1-1.1-13.9-0.9c-2.4,0.6-4.5,1.6-5.8,3.2c-1.2,1.4-1.2,3.7,0.6,4.7c4.7,2.6,11.4,0.3,16.6,0.2
			c6.2-0.1,12.4,0.5,18.5,1.8C840.6,1620.5,846.1,1622.4,851.1,1625.3z"/>
	</g>
	<path fill="#383C41" d="M852.5,1641c-0.1,0.1-0.2,0.1-0.2,0.2c-3.8,3.6-6.3,0.8-9.9-2.1c-2.6-2-5.2-4.1-7.9-6
		c-6-4-12.8-6.7-19.8-8.2c-7.4-1.6-15-2-22.5-2.1c-3.9,0-7.7,0-11.6,0.1c-1.7,0.1-3.6,0.1-5.2,0.5c-0.1,1.2,0.3,2.4,1.4,2.9
		c3,1.3,4.9,0.9,8.2,0.8c3.5-0.1,7.1-0.2,10.6-0.1c6.8,0.1,13.5,0.6,20.1,2.5c13.2,3.7,22.5,12.2,32.7,20.8
		c4.6,3.9,10.7-2.1,6.6-6.6C854.2,1642.9,853.3,1641.9,852.5,1641z"/>
	<path fill="#383C41" d="M835.7,1655.4c-0.4-0.7-0.9-1.4-1.4-2.1c0,0.1,0,0.1,0,0.2c-0.6,2.7-1,2.7-3,0.8c-1.9-1.8-3.3-4-5.5-5.6
		c-5.7-4.2-12.6-7.1-19.4-9.1c-7-2.1-14.7-3.4-22.1-3.2c-7.6,0.3-14.9,2-22.5,0.8c-0.9-0.1-1.7,0.3-2.2,0.9c0.1,0.1,0.4,0.3,0.8,0.6
		l0.5,0.4c4.3,2.8,17.2,1.7,22.2,1.7c6.1-0.1,12.2,0.5,18.1,2c5.5,1.4,10.9,3.5,15.7,6.6s8.3,7.2,12.5,10.9
		C832.6,1663.4,838.2,1659.5,835.7,1655.4z"/>
	<path fill="#383C41" d="M811,1670.6c-3.7,0.9-5.8-0.6-8.8-3c-2.4-1.9-4.7-3.8-7.3-5.4c-5.3-3.5-11.2-5.9-17.3-7.3
		c-12.4-2.8-24.9-1.5-37.4-1.3c0.1,0.5,0.4,0.9,0.8,1.2c4.9,3.9,11.2,2.2,17,2.3c6.2,0.2,12.7,2.2,18.5,4.2
		c5.9,2.1,11.5,5.5,16.9,8.8c2.4,1.4,4.8,2.9,7,4.5c2.4,1.8,4.5,4.2,7.1,5.6c2.1,1.1,4.4,0.1,5.2-2.1
		C813.6,1675.7,812.7,1673,811,1670.6z"/>
	<path fill="#383C41" d="M986,1658c-0.5-0.4-1-0.8-1.5-1.1c-0.4,5.8-9.1,1.1-11.9,0c-4-1.6-8-3-12.2-3.8c-8-1.5-16.2-1.8-24.2-1.9
		c-8.8-0.1-17.7,0.3-26.5,1.3c-7.3,0.8-15.2,1.7-22.2,4.3c0,2.1,1.6,4.1,4.1,3.3c15.1-5.2,29.4-8,45.5-6.7c7.6,0.6,15,1.7,22.3,3.7
		c7.8,2.1,14.7,6.2,22.3,8.5C985.7,1666.7,989.7,1660.8,986,1658z"/>
	<path fill="#383C41" d="M970.8,1672.3c-1.3,4.4-8.7,1.1-12,0.5c-4-0.7-7.9-1.6-12-2.1c-8.7-1.1-17.5-1-26.2-0.3
		c-8.4,0.7-16.7,2-25.1,3.3c-4.9,0.8-12.1,1.5-15.8,5.5c0.8,1.2,2.2,2,4,2.2c3.1,0.4,5.8-1.4,8.7-2.3c3.2-1.1,6.5-2,9.8-2.8
		c7.1-1.7,14.3-2.7,21.6-3.2c14-0.9,28.2,1.4,40.8,7.5C970.4,1683.4,975.3,1675.6,970.8,1672.3z"/>
	<path fill="#383C41" d="M950.1,1705.8c0.4,0.4,0.8,0.6,1.2,0.8c0.8,0.2,1.7,0.3,2.6,0.3c3.3-0.6,5.9-4.8,2.7-7.6
		c-0.2-0.1-0.4-0.3-0.5-0.4c-2.7,2.3-18.9-4-21.6-4.6c-7-1.4-14.2-1.9-21.3-1.6c-7.2,0.3-14.3,1.3-21.3,2.9
		c-3.5,0.8-6.9,1.8-10.3,2.7c-2,0.5-4,0.8-5.9,1.5c0.4,1.7,1.9,2.7,3.7,2.9c2.6,0.3,4.5-1.2,6.8-1.9c3-0.9,6.2-1.6,9.3-2.1
		c6.6-1.2,13.2-1.8,19.9-1.8C927.3,1696.7,940.8,1697.6,950.1,1705.8z"/>
	<path fill="#383C41" d="M945.3,1722.1c4.5,1.2,6.4-4.6,3-7.1c-0.3-0.2-0.6-0.4-0.8-0.6c-0.1,0.2-0.2,0.3-0.2,0.5
		c-0.8,2.4-17-2.3-19.1-2.8c-6-1.3-12.2-2.3-18.4-2.6c-5.8-0.2-11.7,0.4-17.4,1.9c-4.8,1.3-10.1,2.2-14.9,4c0.3,1.7,1.9,3.2,3.9,2.6
		c10.7-2.9,21.2-4.6,32.3-3.7c5.4,0.4,10.8,1.2,16.1,2.5C935.2,1718.1,940.1,1720.7,945.3,1722.1z"/>
	<path fill="#383C41" d="M1179.8,1587.7c-5.8,1.6-12,7-16,10.1c-3.5,2.8-6.5,6-9.9,8.9c-1.7,1.5-3.6,3.1-5.9,3.5
		c-1.8,0.3-3.2-0.2-4.8,0.3c-0.6,5.4,7.2,9.9,11.8,5.4c3.6-3.5,6.4-7.6,9.7-11.4c3.7-4.3,8.9-7.5,13.4-10.7
		C1180.5,1592.2,1180.8,1589.6,1179.8,1587.7z"/>
	<path fill="#383C41" d="M1190.9,1604.6c1.7-2.4,4.1-4.6,5.2-7.3c-4.2,4.4-9.5,8.1-13.6,12.3c-2.7,2.8-5.4,5.9-8.6,8.2
		c-2.2,1.6-4.6,2.4-7,3.3c0,0.6,0,1.2,0.1,1.9c0.2,1.5,1.8,2.2,3.1,2.3c3.6,0.4,5.3-1.9,7.6-4.4c2.7-2.8,5.2-5.7,7.6-8.7
		C1187.2,1609.8,1189,1607.2,1190.9,1604.6z"/>
	<path fill="#383C41" d="M1210.6,1610c-4.7,3.4-8.9,7.7-12.5,11.9c-2.4,2.8-4.6,6.5-7.6,8.7c-2.4,1.8-5,1.7-7.6,2.2
		c-1.2,2.1-0.8,5.1,1.5,6.6c0.1,0.1,0.3,0.2,0.4,0.3c1.6,1.1,4.6,0.9,5.9-0.8c3.9-4.9,6.8-10.7,10.5-15.8
		C1204.3,1618.8,1207.6,1614.5,1210.6,1610z"/>
	<path fill="#383C41" d="M1223,1632.2c-4.5,4-9.6,9.8-15.5,6.9c-1.5,5.1,5.8,8.9,8.9,3.9C1218.7,1639.3,1220.7,1635.7,1223,1632.2z"
		/>
</g>
</svg>
