<?xml version="1.0" encoding="utf-8"?>
<!-- Generator: Adobe Illustrator 23.0.1, SVG Export Plug-In . SVG Version: 6.00 Build 0)  -->
<svg version="1.1" id="_x32_6_x5F_Footwear_x5F_GermanFootballCleats"
	 xmlns="http://www.w3.org/2000/svg" xmlns:xlink="http://www.w3.org/1999/xlink" x="0px" y="0px" viewBox="0 0 2000 2000"
	 enable-background="new 0 0 2000 2000" xml:space="preserve">
<g>
	<path opacity="0.3" fill="#05132B" enable-background="new    " d="M1285.8,1721.3c30.6,1.5,29.1,33.7,10.7,36.8
		c-18.4,3.1-94.1,11.8-119.8,12.8s-87-8.2-102.3-5.2c-15.3,3.1-15.3-9.2-26,3.1s-61.3,50.6-76.6,62.8
		c-15.3,12.3-29.1,33.7-52.1,27.6c-23-6.1-84.3,6.1-99.6-6.1c-15.3-12.3-27.6-23-46-27.6c-18.4-4.6-67.4-1.5-88.8-6.1
		c-21.5-4.6-75.1-36.8-55.2-59.7c19.9-23,136.3-36.8,136.3-36.8"/>
	<g>
		<path fill="none" d="M988.5,1632.8c0.1-1.4,0.1-2.8,0.2-4.2c0-4.2-1.4-6.8-6.9-11.9c5.5,5.2,6.9,7.7,6.9,11.9
			C988.7,1630,988.6,1631.4,988.5,1632.8z"/>
		<path fill="none" d="M1095.6,1574.5c2.7-21.2,7.1-41.2,9-57.1l0,0C1102.7,1533.3,1098.4,1553.2,1095.6,1574.5
			c-1,8-1.8,15.5-2.4,22.1C1093.8,1590,1094.6,1582.5,1095.6,1574.5z"/>
		<path fill="none" d="M1018.2,1649.1c1.9,2.2,3.8,4,6.5,4.6C1022,1653,1020.1,1651.3,1018.2,1649.1z"/>
		<path fill="none" d="M1077.9,1515.3L1077.9,1515.3c0,0,2,0.4,5.5,0.9C1079.9,1515.7,1077.9,1515.3,1077.9,1515.3z"/>
		<path fill="none" d="M987.8,1640.6c0,0.2,0,0.4,0,0.4l0,0C987.8,1641,987.8,1640.9,987.8,1640.6z"/>
		<path fill="none" d="M1091.4,1619.6L1091.4,1619.6c0,0,2.4,0.1,6.2-1.1C1093.9,1619.6,1091.5,1619.6,1091.4,1619.6z"/>
		<path fill="none" d="M1070,1544.7c-4.6,16.9-9.8,32.7-14.4,48.1c-9.7,32.5-13.7,33.8-13.7,36.9c0,2.2,2,2.1,3.1,5.2
			c-1.1-3.1-3.1-3-3.1-5.2c0-3.1,4-4.4,13.7-36.9C1060.2,1577.4,1065.4,1561.6,1070,1544.7c0.3-1.2,0.6-2.4,1-3.6
			C1070.7,1542.3,1070.3,1543.5,1070,1544.7z"/>
		<path fill="none" d="M1045.1,1635C1045.1,1635,1045.1,1635.1,1045.1,1635C1045.1,1635.1,1045.1,1635,1045.1,1635z"/>
		<path fill="none" d="M1075.8,1521.3c-0.7,3.3-1.5,6.5-2.2,9.7c-0.4,1.5-0.8,3-1.1,4.6c0.4-1.5,0.8-3,1.1-4.6
			C1074.3,1527.9,1075.1,1524.6,1075.8,1521.3l1.2-3.6L1075.8,1521.3z"/>
		<path fill="#FBFBFB" d="M1170.8,1442.7c0,0-5.2,6.5-36.1,14.3c-11.5,2.9-21.5,3.6-29.4,3.4c-13.3-0.4-21-3.4-21-3.4l-1.9,18.6
			l-0.8,8.2c0,0-34.9,19-62.8,24.5c-6.5,1.3-12.9,2.1-18.8,2.6c-19.3,1.5-33.9-0.5-33.9-0.5c-6.3,5.7-12.7,10.9-19,15.6
			c-3.2,2.4-6.4,4.8-9.6,6.9c-3.7,2.6-7.4,5-11.1,7.2c-5.9,3.6-11.8,6.9-17.4,9.7c-10.8,5.3-21.1,9.2-30.3,11.5
			c-24.7,6.1-45.9-0.7-45.9-0.7s-0.8,4.1-1.2,5.3l9.2,66l64.2,26.6l30.5,12.6l10.3-65.9l0,0l-10.3,65.9l18.7,7.7l81.7,6.6l24.4-41.7
			c0,0,84.9-28.2,85.5-28.8c0.2-0.2,3.4-10,7.2-22.2l-12-1.4l0,0l12,1.4c6.4-20.4,14.7-47.4,14.7-47.4s2.4-23.2,4.9-46.8
			c0.4-4,0.8-8,1.2-11.9c0.4-4.2,0.8-8.3,1.2-12.2c0.5-4.7,0.9-9,1.2-12.7c0.6-6,1-10.3,1-11.7
			C1177.7,1442.7,1170.8,1442.7,1170.8,1442.7z M1077.9,1515.3c0,0,2,0.4,5.5,0.9C1079.9,1515.7,1077.9,1515.3,1077.9,1515.3
			L1077.9,1515.3z M1104.6,1517.3L1104.6,1517.3c-1.9,16-6.2,35.9-9,57.1c-1,8-1.8,15.5-2.4,22.1c0.6-6.5,1.4-14.1,2.4-22.1
			C1098.4,1553.2,1102.7,1533.3,1104.6,1517.3z M981.8,1616.7c5.5,5.2,6.9,7.7,6.9,11.9c0,1.4-0.1,2.8-0.2,4.2
			c0.1-1.4,0.1-2.8,0.2-4.2C988.7,1624.4,987.3,1621.9,981.8,1616.7z M987.8,1640.6c0,0.2,0,0.3,0,0.4l0,0
			C987.8,1641,987.8,1640.9,987.8,1640.6z M1018.2,1649.1c1.9,2.2,3.8,4,6.5,4.6C1022,1653,1020.1,1651.3,1018.2,1649.1z
			 M1055.6,1592.9c-9.7,32.5-13.7,33.8-13.7,36.9c0,2.2,2,2.1,3.1,5.2c-1.1-3.1-3.1-3-3.1-5.2
			C1041.9,1626.6,1045.9,1625.4,1055.6,1592.9c4.6-15.5,9.8-31.2,14.4-48.1c0.3-1.2,0.6-2.4,1-3.6c-0.3,1.2-0.6,2.4-1,3.6
			C1065.4,1561.6,1060.2,1577.4,1055.6,1592.9z M1045.1,1635.1C1045.1,1635.1,1045.1,1635,1045.1,1635.1
			C1045.1,1635,1045.1,1635.1,1045.1,1635.1z M1073.6,1531.1c-0.4,1.5-0.8,3-1.1,4.6C1072.8,1534.1,1073.2,1532.6,1073.6,1531.1
			c0.8-3.2,1.5-6.4,2.2-9.7l1.2-3.6l-1.2,3.6C1075.1,1524.6,1074.3,1527.9,1073.6,1531.1z M1091.4,1619.6L1091.4,1619.6
			c0.1,0,2.5,0.1,6.2-1.1C1093.9,1619.7,1091.4,1619.6,1091.4,1619.6z"/>
	</g>
	<g>
		<path fill="#3C3F44" d="M978.8,1549c-2.8,4.2-5.7,8.4-8.7,12.7c15.1,1.1,30.1,0.7,45.1-1.6c38.6-5.9,54.6-15.2,54.6-15.2l0.2-0.1
			c1.2-4.5,2.4-9,3.5-13.7c-3.6,1.5-8,3.6-13.4,6.6C1040.6,1548.3,1009.3,1551.1,978.8,1549z"/>
		<path fill="#3C3F44" d="M1078,1507.9c0,0-9.2,10.7-46.3,18c-13.2,2.6-27.6,3.5-41,3.4c-1.4,2.8-3,5.8-5.2,9.1
			c-0.5,0.7-1,1.5-1.5,2.2c10.1,0.4,20.8,0.1,33-0.9c34.7-2.9,58.3-17.2,58.3-17.2l0.4-1.3c1.4-6.3,2.6-12.9,3.6-19.6L1078,1507.9z"
			/>
		<path fill="#3C3F44" d="M1105.7,1500.9c-0.1,2.9-0.2,5.8-0.4,8.6c-0.2,2.5-0.4,5.1-0.8,7.8c9.6-0.1,21.2-0.9,34-3.6
			c18.3-3.7,28.5-10.1,34-15.2c0.4-4,0.8-8,1.2-11.9c-3.6,2.6-10.8,6.3-25.1,10.1C1136,1500.1,1119.4,1500.9,1105.7,1500.9z"/>
		<path fill="#3C3F44" d="M1105.5,1477.6c0.1,4.4,0.2,8.6,0.2,12.7c6.2,0.1,13.3-0.2,21.4-1.3c21.5-3,40.3-10.9,48-14.5
			c0.5-4.7,0.9-9,1.2-12.7c-3.4,2.2-11.4,6-30.4,11.4C1132.3,1477.1,1117.7,1477.9,1105.5,1477.6z"/>
		<path fill="#B3B7BE" d="M1082.5,1475.6c4.4,0.7,12.8,1.7,23.1,2c-0.1-5.4-0.2-11-0.2-17.2c-13.3-0.4-21-3.4-21-3.4L1082.5,1475.6z
			"/>
		<path fill="#B3B7BE" d="M998.4,1513.3c0.4-0.7,1-1.5,1.7-2.4c-19.3,1.5-33.9-0.5-33.9-0.5c-6.3,5.7-12.7,10.9-19,15.6
			c10,1.5,26,3.2,43.6,3.3C993.8,1523.4,995.5,1518.4,998.4,1513.3z"/>
		<path fill="#B3B7BE" d="M1079.4,1501.8l0.4-1.9c0,0,11.3,1,25.9,1.1c0.1-3.5,0.1-7,0-10.6c-15.3-0.3-24.3-3.2-24.5-3.2
			C1080.8,1492.1,1080.1,1497,1079.4,1501.8z"/>
		<path fill="#B3B7BE" d="M962.2,1572.3c2.7-3.5,5.3-7,7.9-10.6c-20.3-1.5-40.7-5.7-61.1-11.9c-10.8,5.3-21.1,9.2-30.3,11.5
			c-24.7,6.1-45.9-0.7-45.9-0.7s-0.8,4.1-1.2,5.3l9.2,66l64.2,26.6l29.1-53.7C934.1,1604.8,953.3,1583.6,962.2,1572.3z"/>
		<path fill="#B3B7BE" d="M1153.1,1592.7c-3.8,12.2-6.9,22-7.2,22.2c-0.7,0.6-85.5,28.8-85.5,28.8l-24.4,41.7l-81.7-6.6l-18.7-7.7
			l10.3-65.9c0,0,16.8-5.3,28.5,4.8c11.7,10.2,14.4,12.9,14.4,18.6c0,5.7-0.9,12.4-0.9,12.4s4.6,0.8,8.6-1.8s8.9-4.6,15.7,2.4
			c6.8,7.1,8.3,14.5,19.2,11.5c10.9-3,14.1-3.4,14.4-12.6c0.2-9.2-3.8-7.7-3.8-10.8c0-3.1,4-4.4,13.7-36.9
			c4.6-15.5,9.8-31.2,14.4-48.1c1.2-4.5,2.4-9,3.5-13.7c0.8-3.2,1.5-6.4,2.2-9.7l2.1-6.1c0,0,10.4,2.2,26.7,2.1
			c-1.9,16-6.2,35.9-9,57.2c-3.2,24.9-4.2,45.1-4.2,45.1s9.9,0.3,21.4-10.4s28.3-17.9,28.3-17.9L1153.1,1592.7z"/>
		<path fill="#B3B7BE" d="M984.1,1540.7c-16.2-0.7-30.8-3.3-46.6-7.8c-3.7,2.6-7.4,5-11.1,7.2c15.3,4.3,33.7,7.5,52.3,8.8
			C980.6,1546.2,982.4,1543.4,984.1,1540.7z"/>
		<path fill="#2E343F" d="M926.4,1540.2c-5.9,3.6-11.8,6.9-17.4,9.7c20.3,6.2,40.7,10.4,61.1,11.9c3-4.3,5.9-8.6,8.7-12.7
			C960.1,1547.7,941.7,1544.5,926.4,1540.2z"/>
		<path fill="#2E343F" d="M985.6,1538.5c2.2-3.3,3.8-6.3,5.2-9.1c-17.6-0.1-33.7-1.8-43.6-3.3c-3.2,2.4-6.4,4.8-9.6,6.9
			c15.9,4.5,30.4,7.1,46.6,7.8C984.6,1540,985.1,1539.2,985.6,1538.5z"/>
		<path fill="#2E343F" d="M1079.4,1501.8c-1,6.7-2.2,13.3-3.6,19.6l2.1-6.1c0,0,10.4,2.2,26.7,2.1c0.3-2.7,0.6-5.3,0.8-7.8
			c0.2-2.9,0.3-5.7,0.4-8.6c-14.6,0-25.9-1.1-25.9-1.1L1079.4,1501.8z"/>
		<path fill="#2E343F" d="M1082.5,1475.6l-0.8,8.2c-0.1,1.1-0.2,2.2-0.4,3.3c0.1,0,9.2,2.9,24.5,3.2c0-4.1-0.1-8.3-0.2-12.7
			C1095.3,1477.3,1086.9,1476.3,1082.5,1475.6z"/>
	</g>
	<path fill="#8C1718" d="M849.6,1619.6c0,0,6.4-27.3,1.1-39.3c-5.2-12-25.6-20.8-39-15c-11.5,5-12.9,12.5-8,20.5
		c0.8,1.3,1.7,2.6,2.8,3.9c7.9,9.3,6.3,10.5,6,21.4c-0.1-0.3-0.5-0.5-1.7-0.5c-1.2,0-3.2,0.3-6.5,1.2c-0.2,0.1-0.3,0.1-0.5,0.2
		c-4,1.1-9,2.4-15.3,4.8c-5.3,2-11.7,4.9-19.2,9.2c-1.1,0.7-2.3,1.3-3.5,2.1c-4.9,3-10.3,6.5-16.3,10.8c-0.2,0.2-0.5,0.3-0.7,0.5
		c-0.8,0.6-1.7,1.2-2.5,1.8c-8.6,6.4-14.5,11.6-18.4,15.7c-1.2,1.2-2.2,2.3-3,3.4c-4.8,5.8-5.1,8.9-4.7,10.6
		c0.7,3.1,14.3,7.2,54.8,9.5c40.4,2.3,38.2-6.7,60-30.2C857,1626.4,849.6,1619.6,849.6,1619.6z"/>
	<path fill="#64161E" d="M792.1,1630.1c5.5,0.3,10.7,1.9,15.9,3.5c2.7,0.8,5.4,1.5,7.9,2.7c0.3,0.2,1.8,1,3.2,1.8
		c-3.3,1.6-5.4,3-6.9,5.7c-0.2,0.2-0.4,0.5-0.5,0.8s-0.2,0.6-0.3,0.9c-0.3,0.8-0.6,1.6-0.8,2.5c-0.6,2.2,2.9,3.9,3.9,1.6
		c0.1-0.2,0.2-0.4,0.3-0.5c0.1,0,0.2-0.1,0.4-0.1c3.5-1.4,6.4-4,9.4-6.5c0.4,0.1,0.7,0.1,1.1-0.1c0.1,0,0.2-0.1,0.3-0.1
		c1.1-0.4,1.9-1.3,2-2.4c0.1-0.1,0.3-0.2,0.4-0.3c2.5-1.7,5-3.3,7.8-4.2c2.3-0.7,4.2-0.8,6.2-2.2c0.9-0.7,1.3-1.5,1.3-2.3
		c1.2-1.4,1.7-3.1,0.9-5.1c-0.4-0.9-0.9-1.8-1.6-2.5c0.9,0.4,1.8,0.8,2.7,1c1.9,0.5,3.4-0.9,3.6-2.7c0.8-10.4,1.9-21.7,0.2-32.1
		c-1.2-7.4-6.5-12.5-13.5-14.8c-7-2.3-17.2-3.1-24.1-0.6c-5.7,2.1-7.6,6.6-8.1,11.6c0.8,1.3,1.7,2.6,2.8,3.9
		c7.9,9.3,6.3,10.5,6,21.4c-0.1-0.3-0.5-0.5-1.7-0.5c1.7,0.8,3.4,1.4,4.8,2.1c-3.8-0.5-7.6-0.7-11.3-0.8c-0.2,0.1-0.3,0.1-0.5,0.2
		c-4,1.1-9,2.4-15.3,4.8c2.8,0.1,5.7,0.3,8.5,0.4c6,0.3,12.1,0.5,18.1,1.3c5.4,0.7,10.8,1.9,15.8,4.3c2,1,5.3,2.2,6.7,4
		c1.1,1.3,0.9,0.4,0,1.5c-0.6,0.7-1.8,1.1-2.9,1.4c0,0-0.1,0-0.1,0c-0.2,0.1-0.3,0.1-0.5,0.1c-0.1,0-0.2,0.1-0.3,0.1
		c-0.1,0-0.1,0-0.2,0.1c-0.3,0.1-0.5,0.1-0.7,0.2c-0.4,0.1-0.7,0.2-1,0.4c0,0,0,0,0,0c-1.8,0.8-3.6,1.9-5.3,2.9
		c-0.7,0.4-1.3,0.9-2,1.4c-1.9-1.4-4.3-2.6-6-3.4c-5.1-2.4-10.8-3.7-16.2-4.9c-5.5-1.2-11-2-16.7-1.4c-5.8,0.6-10.8,1.2-16.4,0.6
		c-1.1,0.7-2.3,1.3-3.5,2.1C773,1634,783.8,1629.6,792.1,1630.1z"/>
	<path fill="#64161E" d="M748,1661.9c7.2,0.6,14,2.2,20.7,4.5c-5.4,2.7-11.1,4.9-17.2,4.6c-5.2-0.2-10.4-1.4-15.6-2.3
		c-4.1-0.7-8.1-1.8-12,0c-0.7,0.3-0.5,1.2,0,1.6c4.1,3,10.2,3.4,15.1,4.5c4.9,1.2,10.2,2.3,15.4,2.2c7.8-0.2,15.1-4,21.9-7.8
		c1.2,0.2,2.3-0.5,2.8-1.5c0.4-0.2,0.9-0.5,1.3-0.7c1.1-0.6,1.5-1.5,1.5-2.4c2.2-0.2,4.4-0.8,6.5-1.6c3-1.3,5.9-2.9,8.8-4.6
		c0.9-0.5,7.6-4.9,7.5-5c1,0.4,1.9,0.1,2.6-0.6c2.4-0.2,3.6-3.3,1.2-5.1c-8.2-6.2-19.7-8.5-29.6-9.6c-5.4-0.6-10.9-0.7-16.3-0.5
		c-4,0.2-9.6,2.8-13.7,1.7c-0.8,0.6-1.7,1.2-2.5,1.8c1,2.2,3.4,3.3,6,3.2c2.6-0.1,5-1.2,7.5-1.5c3.1-0.3,6.4-0.1,9.5,0
		c6,0.3,12.1,1,18,2.4c4.2,1.1,8.1,2.7,11.9,4.4c-3.1,1.8-6.1,4.2-8.8,5.6c-5.6,3-11.4,5.9-17.8,6.2c-6.8-2.6-13.9-4.2-21.2-4.9
		c-7.9-0.8-15.7-0.1-23.6,0.2c-1.2,1.2-2.2,2.3-3,3.4c3.2,0.9,6.3,1.7,9.8,1.7C739.2,1661.8,743.6,1661.5,748,1661.9z"/>
	<path fill="#8C1718" d="M893.1,1747.3c-24.8-3.9-30.6-12.3-25.9-49.3c4.7-37,25.9-67,25.9-67l5.6-2.1c0,0,2.7-16.5,6.8-22.7
		c4-6.2,22-13.4,41.7-7.4c19.7,6,24.8,7.9,27.4,23.2s-4.8,36.3-4.8,36.3l-39,75.8C930.8,1734.2,914.3,1750.6,893.1,1747.3z"/>
	<g>
		<path fill="#64161E" d="M885.7,1648.1c12.6,2.5,25.1-1.5,37.8-2c6.6-0.2,13.6-0.2,20,1.1c6.2,1.3,12,3.8,18,5.8
			c3.4,1.1,4.6-4,1.5-5.2c-2.7-1-5.3-2.2-8.1-3.2c0.2-5.3,0.4-21.8-6.3-20.1c-0.3,0.1-0.6,0.3-0.6,0.6c-0.6,2.6,0.8,5.8,1,8.4
			c0.3,3.1,0.3,6.1,0.2,9.1c-1.4-0.4-2.7-0.8-4.1-1.1c-6.1-1.3-12.5-1.5-18.7-1.4c-6.4,0.1-12.7,0.7-19,1.7
			c-6.9,1.1-14.2,2.7-21.2,2.4C884.1,1644.1,883.6,1647.6,885.7,1648.1z"/>
		<path fill="#64161E" d="M963.8,1659.4c0,0-0.1-0.1-0.1-0.1c-3.2-2.3-7.7-2.6-11.5-3.3c-3.4-0.6-6.8-1.1-10.2-1.5
			c-8.5-1-17.1-1.5-25.7-1.2c-7.2,0.3-15.3,0.4-22.2,2.6c-6.3,2-9.2,5.7-12.4,11.1c-0.9,1.6,1.5,2.9,2.4,1.4
			c3.7-5.9,11.5-7.8,17.9-8.5c7-0.7,14-0.9,21-0.8c7.4,0.1,14.7,0.6,22,1.6c3.6,0.5,7.5,1.7,11.4,2.3c-0.6,0.6-1.1,1.2-1.6,1.8
			c-2,2.1-3.1,4.3-4,7.1c-0.6,1.8,2.1,2.9,3.1,1.3c1.2-2,3.3-3.7,5-5.2c1.8-1.6,4-2.8,5.7-4.4C966,1662.1,965.3,1660.2,963.8,1659.4
			z"/>
		<path fill="#64161E" d="M943.4,1673.4c-4-0.7-8-1.2-12-1.5c-8.8-0.7-17.6-0.5-26.3,0.5c-7.2,0.9-15.9,1.5-22.4,4.9
			c-5.9,3.1-6.4,8.3-6.6,14.3c-0.1,2.5,4.1,3.2,4.5,0.6c0.3-2.2,1-5.2,2.2-7c1.9-2.9,5.2-3.6,8.4-4.3c6.4-1.6,13-2.6,19.6-3.1
			c5.9-0.5,11.9-0.5,17.8-0.2c3.3,0.2,6.6,0.5,9.9,0.9c0.9,0.1,1.9,0.3,2.8,0.4c-1.5,1.8-2.9,3.7-4.3,5.4c-2.4,3-3.6,5.9-4.4,9.7
			c-0.5,2.5,2.8,3.3,3.8,1c2.3-5.8,8.7-9.4,11.7-14.7c1,0.2,2.1-0.2,2.7-1.2c0.1-0.1,0.1-0.2,0.2-0.3c0.5-0.8,0.6-2.1,0-2.8
			C949.2,1673.8,946.2,1673.8,943.4,1673.4z"/>
		<path fill="#64161E" d="M921,1696.5c-7.6-0.5-15.3-0.5-22.9,0.1c-5.3,0.4-14.3-0.1-18.8,3.2c-4.1,3.1-3,8.1-2.1,12.4
			c0.5,2.2,3.4,1.4,3.6-0.5c0.3-2.6,0.6-6.2,3.3-7.6c1.6-0.8,4.6-0.7,6.3-0.9c4.4-0.5,8.9-0.8,13.3-1s8.9-0.2,13.3,0
			c2.5,0.1,5.7,0,8.6,0.3c-0.8,1.1-1.6,2.2-2.2,3.4c-1.3,2.3-1.5,4.6-1.6,7.1c-0.1,1.6,2.4,2.4,3.2,0.9c0.9-1.8,2.3-3.3,3.5-5
			c1.2-1.7,2.4-3.4,3.7-5c0.2-0.2,0.3-0.4,0.4-0.7c0.9-0.6,1.4-1.7,1.1-3.1C932.7,1695.8,924.3,1696.8,921,1696.5z"/>
		<path fill="#64161E" d="M924.4,1715.6c-4.5-1-9.2-0.9-13.8-1.2c-5.3-0.3-10.6-0.8-15.8-0.6c-5.8,0.2-16,1.1-17.4,8.1
			c-1.1,0.6-1.9,1.7-1.4,3.1c0.9,2.7,2.2,5.2,4.1,7.2c1.8,1.9,4.2,3,6.3,4.6c1.1,0.8,2.2-0.9,1.4-1.8c-1.5-1.6-2.5-3.6-3.7-5.4
			c-1.3-2-2.2-3.8-2.7-6.1c0-0.2-0.1-0.4-0.2-0.6c5.8-4,14-3.6,20.6-3.2c5.5,0.2,11,0.4,16.5,0.9c-1.6,2.9-3.2,5.7-5.5,8.2
			c-3.1,3.3-6.8,5.7-10.8,7.9c-1.3,0.7-0.4,2.9,1,2.4c9.1-3.1,18.4-8.3,21.6-18C926.9,1720.3,927.1,1716.2,924.4,1715.6z"/>
	</g>
	<path fill="#8C1718" d="M1247,1630.3c-1.5-0.5-2.8-1-4.1-1.6c-1-0.4-2-0.8-2.9-1.2c-9.2-4.1-12.8-7.8-12.8-7.8s-1.7-4.5-6.6-9.7
		c-1.2-1.3-2.4-2.3-3.6-3.2c-1.4-1.1-2.6-1.8-3.7-2.4c-1.6-0.8-2.6-1.2-2.6-1.2s-1.6-2.4-8.4-6.3c-1.2-0.7-2.5-1.2-3.6-1.6
		c-1.3-0.4-2.6-0.6-3.7-0.7c-3.3-0.3-5.5,0.5-5.5,0.5c-1.5-4.2-3.8-5.9-5.8-6.6c-2.5-0.9-4.7-0.1-4.7-0.1l-0.7-1.2l-5.7-9.6
		l-0.9-1.4c0,0,6.1-9.2,10.4-15.8c1-1.5,1.9-2.9,2.6-4c3.9-6,2.2-14.8-6.8-14.5c-9,0.3-24.7,3.5-34.5,18.5
		c-7.3,11.2-9.8,20.6-8.5,31.5c0.2,2,0.7,4.2,1.2,6.3c0.4,1.6,0.8,3.3,1.4,5.1c0,0,81.3,58.9,96,57.8S1261.3,1635.4,1247,1630.3z"/>
	<path fill="#64161E" d="M1164,1607.1c9.3,5.4,18.2,11.4,27.9,16.2c9.4,4.7,19.1,8.3,29.2,11.5c4.1,1.3,9.9,4.7,14.2,3.5
		c3.9-1,5.5-6.1,7.4-9.1c0.1-0.2,0.2-0.3,0.2-0.5c-1-0.4-2-0.8-2.9-1.2c-1.4,1.4-3,3.4-4.7,4.3c-2.3,1.2-5.3,0.1-7.7-0.5
		c-4.9-1.2-9.8-3.1-14.5-5c-2.9-1.2-5.8-2.4-8.7-3.7c0.1-0.1,0.3-0.2,0.4-0.3c0.7-0.6,1-1,1.4-1.8c0-0.1,0.1-0.2,0.1-0.3
		c2-2.8,4.8-5.1,6.9-7.8c1.4-1.8,2.6-3.7,3.8-5.6c-1.4-1.1-2.6-1.8-3.7-2.4c-1.7,1.8-3.4,3.5-5.1,5.3c-2.8,2.8-6.1,5.4-8.1,8.9
		c-0.4,0.6-0.5,1.3-0.4,1.8c-4.3-2-8.5-4.1-12.6-6.4c4.1-6.1,7.8-12.5,11.7-18.7c-1.3-0.4-2.6-0.6-3.7-0.7
		c-4.3,5.5-8.9,10.8-13.1,16.4c-4.2-2.5-8.2-5.2-12.4-7.7c4.3-5.2,8.8-10.6,14.2-14.9c-2.5-0.9-4.7-0.1-4.7-0.1l-0.7-1.2
		c-1.7,1-3.3,2.1-4.9,3.5c-3.3,2.9-6.5,6.1-8.9,9.7c-0.9-0.5-1.8-1-2.7-1.4c-0.9-0.5-1.8-0.9-2.7-1.3c0-0.1,0.1-0.1,0.1-0.2
		c0.2-0.8,0.3-1.6,0.4-2.3c0.1-0.7,0-1.4-0.2-1.9c0.9-3.7,1.8-8,1.9-11.6c0-0.7,0-1.2,0-1.6c0-0.1,0-0.2,0.1-0.3
		c0.1,0.3,0.4,1,1.2,1.1c1.2,0.2,2.1,0.7,3.3,0.5c2.1-0.3,4.6-1.8,6.6-3.7l-0.9-1.4c0,0,6.1-9.2,10.4-15.8c-0.2-0.1-0.3-0.2-0.5-0.3
		c-3.5-1.7-7.7-0.2-11.1,1.1c-1.8,0.8-3.5,1.7-5.3,2.6c-2.5,1.3-4.6,1.2-7.2,2c-3.3,1.1-4.6,4.6-5.7,7.6c-1.6,4.2-2.6,8.8-2.9,13.3
		c-0.1,1.1,0.2,2.4,0,3.4c0.1,0.5,0.2,0.9,0.3,1.4c-0.9,0.4-1.8,0.8-2.6,1.2c-0.6,0.2-1.1,0.5-1.7,0.7c-3.1-0.3-6.3-0.5-9.1-1.5
		c-0.5-0.2-1-0.2-1.4-0.2c0.2,2,0.7,4.2,1.2,6.3c4.1,1.1,8.5,0.8,12.6,2C1154.3,1601.7,1159.2,1604.3,1164,1607.1z"/>
	<g>
		<path fill="#51FF1D" d="M1182.8,1742.7c1.4,0.2,2.7,0.4,4.1,0.6c13.9,1.9,29.5,1.8,42.7-3.7
			C1213.4,1741.8,1197.7,1743,1182.8,1742.7z"/>
		<path fill="#3C3F44" d="M1299.5,1666c-2.4-20.7-16.7-29.4-38.3-36.1c-8.5-2.7-13.8-3.4-17.1-3c-2.5,0.3-3.9,1.2-4.8,2.4
			c-1.2,1.6-1.5,3.6-2.2,5.3c-2.1,4.8-2.3,2.4-13.4-0.8c-11.1-3.2-35.6-13.1-53.1-24.7s-30.2-14.9-33.9-14.5s-11.3,9.5-21.8,17.9
			c-8.3,6.7-14.2,9.7-25.4,11.6c-2.8,0.5-6,0.9-9.7,1.2c-18.1,1.8-27.5-2.8-27.3,2s0.7,11.7-3,23.4c-1,3.3-2.5,5.9-4.3,7.7
			c-4.7,4.7-11.9,5.2-21.7,3.8c-2.9-0.4-5.2-1.1-7-2c-2-1-3.5-2.2-4.7-3.6c-2.9-3.4-4.2-7.7-7.3-11.6c-5.6-6.9-12.3-1.1-26.6,8.2
			s-29.5,18.4-45.3,46.1c-3.6,6.3-6.3,11.7-8.5,16.1c-7.6,15-10.1,20.1-25.5,21.3c-10.8,0.9-17.6-4.2-20.3-15.3
			c-2.3-9.3-1.7-22.9,1.5-40.9c7.2-39.6,18.8-51.7,18.8-51.7s-1.7-3.5-6-6.9c-4.3-3.4-11.7-0.9-11.7-0.9s0,0,0,0
			c-0.2-0.2-1.6-1.7-3.9-3.2c-3.6-2.4-9.4-4.8-15.3-1.3c-5.3,3-10.1,6.8-15.2,10.8c-1.2,1-2.5,1.9-3.8,2.9
			c-3.3,2.6-6.8,5.1-10.7,7.6c-0.8,0.5-1.8,1.1-2.8,1.7c-1.3,0.7-2.7,1.5-4.3,2.4c-4.6,2.5-10.4,5.5-16.6,8.7
			c-1.6,0.8-3.2,1.7-4.9,2.5c-9,4.6-18.2,9.4-25.4,13.3c-2.4,1.3-4.5,2.5-6.4,3.5c-2,1.2-3.7,2.2-4.8,2.9c-8.9,6.3-28.3,1.5-38-2.1
			s-9.3-5.8-19.6,4.7c-8.9,9.1-25.9,26.5-30.8,53.9c-0.5,2.9-0.9,5.9-1.1,9c-0.1,1.5-0.2,2.9-0.2,4.4c0,0,59.6,43.7,92.6,54.1
			c4,1.3,7.6,2,10.7,2.2c7.3,0.3,12.7,0.2,16.8-0.1c5.3-0.4,8.6-1.3,11.4-2.3c3.4-1.2,6.1-2.5,10.9-3.3c5.6-0.9,4.5-0.3,4.9,1.9
			c0.4,2.4,2.6,6.8,17.6,13.3c28.7,12.3,62,30.2,103.4,15.5s35.7-27.4,59.9-47.8s29.6-41.6,44.5-55.9c14.9-14.2,5.5-2.1,35.1,3.5
			c29.6,5.6,43.6,11.7,70.4,16.5c8.6,1.5,17.8,2.3,27.2,2.5c14.9,0.3,30.7-0.9,46.8-3.1c5.4-0.7,10.9-1.6,16.4-2.5
			c30.7-5.2,52.4-38.2,53.9-62.5c0.1-1.1,0.1-2.2,0.1-3.3C1299.9,1669.4,1299.7,1667.7,1299.5,1666z"/>
	</g>
	<path opacity="0.3" fill="#05132B" enable-background="new    " d="M791.1,1676.9c1.2,0,2.1-1.4,1.4-2.4c-2.3-3.4-7.1-5.4-10.8-7
		c-1.2-0.5-2.4-0.9-3.6-1.1c-2.4,1.3-4.5,2.5-6.4,3.5c3,0.9,6,2.4,8.8,3.4C784,1674.5,787.4,1676.9,791.1,1676.9z"/>
	<path opacity="0.3" fill="#05132B" enable-background="new    " d="M816.7,1657c-2.6-2.4-5.5-4.4-8.4-6.4c-1.6,0.8-3.2,1.7-4.9,2.5
		c3.1,2.9,6.3,5.8,9.8,8.3C816,1663.1,819.1,1659.1,816.7,1657z"/>
	<path opacity="0.3" fill="#05132B" enable-background="new    " d="M834,1649.6c3.2,1.8,5.9-2.9,2.9-4.9c-2.6-1.7-5.1-3.4-7.5-5.3
		c-1.3,0.7-2.7,1.5-4.3,2.4C827.5,1644.9,830.5,1647.6,834,1649.6z"/>
	<path opacity="0.3" fill="#05132B" enable-background="new    " d="M851.8,1637.7c2.7,1.1,4.5-2.8,2.7-4.7
		c-1.4-1.4-3.3-2.4-4.9-3.5c-1-0.7-2-1.4-3-2.2c-1.2,1-2.5,1.9-3.8,2.9C845.4,1633.1,848.3,1636.2,851.8,1637.7z"/>
	<path opacity="0.3" fill="#05132B" enable-background="new    " d="M830.7,1791.7c0.5-0.3,1-0.6,1.6-0.9c3.7-2.3,7.3-4.8,11.3-6.7
		c4.2-2,8.7-3.4,13.2-4.6c4.2-1.2,8.2-1.9,11.5-5c1.9-1.7,0.8-4.8-1.5-5.5c-8-2.4-18.5,2.3-25.8,5.4c-5,2.2-9.5,5-13.9,8.1
		c-6.6-11-3.8-26.3-2.2-38.4c1.9-14.2,5.1-28.4,9.8-41.9c0.9-2.5,1.8-4.9,2.8-7.3c2.7-6.7,5.9-13.2,9.4-19.5c2.2-4,4.5-7.9,6.9-11.8
		c0.2-0.4,0.5-0.8,0.7-1.2c1.9-3.1,3.9-6.1,5.8-9.2c1.7-2.6,3.4-5.3,5.2-7.9c1.5-2.2,2.8-4.4,4.2-6.6c1.7-2.3,3.4-4.6,5-6.9
		c2-3,3.9-6,5.5-9.2c0.3-0.5,0.5-1,0.7-1.5c-0.2-0.2-1.6-1.7-3.9-3.2c-0.1,0.2-0.3,0.4-0.4,0.6c-1.7,2.5-3.3,5-5,7.5
		c-3.6,5.3-7.4,10.4-11.3,15.3c-8,10.1-16.1,19.6-27,26.7c-10.2,6.7-21,13.1-32,18.5c-7.1,3.5-13.4,2.9-20.8,0.6
		c-6.2-2-12.2-5.9-18.7-7c-0.9-0.2-1.7,0.9-1,1.7c4.6,4.5,11.8,6.5,17.7,8.9c5.6,2.2,11.3,4.4,17.4,3.6c6.9-0.9,12.9-5,18.8-8.4
		c6.2-3.5,12.4-7,18.4-10.7c0.7-0.4,1.4-0.9,2.1-1.3c-0.8,0.9-1.5,1.8-2.3,2.7c-4.7,5.7-9.3,11.5-14.3,16.9
		c-9.3,10.2-18.8,20.3-26.9,31.4c-7.7,10.5-14,22.7-16.3,35.6c-1.1,6.1-1.3,12.2-0.4,18.4c0.4,2.9,1,5.8,2.1,8.6
		c0.5,1.4,1.2,2.6,1.9,3.7c-0.2,0-0.4-0.1-0.6-0.1c-3.2-0.7-6-2-8.6-3.9c-5.2-3.7-9.2-8.9-13.2-13.7c-8.2-9.7-16.8-19-26.6-26.9
		c-9.3-7.5-19.9-14.7-31.5-18.2c-5.1-1.5-10.7-2-15.9-0.6c-1.4,0.4-2.9,0.9-4.2,1.7c-0.5,2.9-0.9,5.9-1.1,9c1.6-0.9,4.2-1.6,5.5-2.1
		c2.6-0.9,5.3-1.3,8.1-1c6.4,0.7,12.5,4,17.9,7.2c10.6,6.2,19.8,14.2,28.4,23c8.2,8.4,15.1,18.7,24,26.4c2.1,1.8,5.1,3.7,8.5,5.1
		c4,1.3,7.6,2,10.7,2.2c7.3,0.3,12.7,0.2,16.8-0.1c1.4-0.3,2.8-0.6,4.2-0.9c2.4-0.6,4.8-1,7.2-1.4c3.4-1.2,6.1-2.5,10.9-3.3
		c5.6-0.9,4.5-0.3,4.9,1.9c0.5,0,1.1-0.1,1.6-0.1C828.6,1795,830.1,1793.5,830.7,1791.7z"/>
	<path opacity="0.3" fill="#05132B" enable-background="new    " d="M877,1722.8C877,1722.8,877,1722.8,877,1722.8
		c-0.1,0.8-0.3,1.5-0.4,2.2c0.1,0.9,0,1.8-0.2,2.6c-0.2,0.3-0.4,0.6-0.6,0.9c-0.9,2.2-1.2,4.9-2.6,6.9c-2.5,3.7-4.6,1.2-6.7-1
		c-1.7-1.7-2.6-3.5-3.6-5.6c-0.7-1.4-2.8-0.6-2.8,0.8c-0.1,3.4,2.5,6.3,4.8,8.6c2.1,2.2,4.8,4.6,8.1,3.5c3.3-1.1,5-5.1,5.9-8.2
		c0.3-0.9,0.5-1.9,0.6-2.9c1.6,2.5,3.9,4.6,6.3,6.3c5.3,3.8,11.1,5.4,17.6,4.3c3.6-0.6,7-1.9,10-3.8c0,0,0.1,0.1,0.2,0.1
		c10.7,6.6,22.8,3.9,33.7-0.6c11.3-4.6,14.2-15.5,19.7-25.4c2.8-5.1,6-10,9.4-14.7c3.8-5.1,7.9-9.9,12.3-14.5
		c2.1-2.1,4.2-4.2,6.4-6.1c4.2-3.8,8.7-7.3,13.3-10.6c2.7-1.9,5.4-3.7,8.2-5.4c-2-1-3.5-2.2-4.7-3.6c-17.5,10-32.8,24-43.9,40.9
		c-2.9,4.4-5.5,9-7.9,13.7c-2.4,4.8-4.2,10.2-7.5,14.6c-4,5.2-11,7.2-17,9c-6.9,2-13.2,3.6-20.1,0.8c1.4-1.2,2.7-2.5,3.8-3.9
		c2.7-3.5,7.6-11.6,4.7-16.2c-7.6,15-10.1,20.1-25.5,21.3c-10.8,0.9-17.6-4.2-20.3-15.3C877.8,1721,876.5,1721.7,877,1722.8z"/>
	<path opacity="0.3" fill="#05132B" enable-background="new    " d="M1299.5,1666c-14.1,1.8-21.9,18.1-29.7,28.1
		c-9.3,11.9-20.1,22.9-32.1,32c-6.5,4.9-13.3,9.3-21.4,11.2c-7.8,1.8-16.3,1.6-24.3,0.9c-5.9-0.5-11.6-1.6-17.1-3
		c-6.1-1.6-12-3.7-17.9-5.9c-2-1.2-3.8-2.5-5.7-3.8c-2.8-2.1-5.6-4.4-8.3-6.7c-2.5-2.1-4.9-4.2-7.3-6.3c-4.1-3.6-8.2-7.2-12.6-10.4
		c-2.2-1.6-4.5-3-6.9-4.3c-5.3-2.9-11-5.3-16.5-7.9c-4.1-1.9-8.2-3.8-12.4-5.8c0.9-12.8,1.8-25.6,2.7-38.4
		c0.4-5.3,2.2-15.3-0.3-21.8c-2.8,0.5-6,0.9-9.7,1.2c-18.1,1.8-27.5-2.8-27.3,2s0.7,11.7-3,23.4c-1,3.3-2.5,5.9-4.3,7.7
		c-0.4,3.3-0.7,6.6-1,10c-0.4,4.9-0.8,9.8-1.2,14.7c-0.3,4.1-0.1,8.2-0.2,12.3c-5.1,6.3-10.7,12.1-15.6,18.5
		c-1.7,2.1-3.2,4.3-4.8,6.4c-3.6,5-7.2,10.1-10.6,15.2c-1.1,1.6-2.2,3.3-3.2,4.9c-2,3.1-4.1,6.3-6.1,9.4c-2.5,3.8-4.9,7.6-7.4,11.4
		c-4.3,6.6-8.8,13.1-13.6,19.4c-5.4,7.2-11.3,14.9-18.2,20.7c-9.5,8-15.1-5.4-20.3-11.7c-5.2-6.2-11.5-11.2-18.7-14.8
		c-7.1-3.5-14.1-4.5-21.9-5.3c-2.4-0.2-2.5,3.7,0,3.8c14.2,0.5,28.2,11.6,36.1,22.8c3.7,5.2,6.6,11.4,12.5,14.6
		c5.9,3.2,11.9,1.7,17-2.3c11.2-8.9,20-22.1,28.1-33.8c8.5-12.4,16.4-25.2,24.8-37.7c4.7-7,9.6-13.9,14.8-20.4
		c4.4-5.4,9.2-10.6,13.5-16c2.2,1,5.2,0.3,6.4-2.9c1.9-5,3.1-10.2,3.8-15.5c1-0.3,1.9-0.9,2.6-1.8c0.7,2.9,1.8,5.7,3.4,8.3
		c1.4,2.4,4.4,2.9,6.6,1.8c1.6,1.1,3.9,0.9,5.6-0.2c1.2,2.1,3.5,2.9,5.6,2.4c0,0,0.1,0,0.1,0c4.7,2.2,9.4,4.4,14.2,6.6
		c8.4,3.9,16.7,7.5,23.9,13.3c6.7,5.3,12.7,11.6,19.7,16.6c5.5,3.9,12.5,6.3,19.3,7.2c7.1,3.1,14.8,5.1,22.3,6.3
		c14.9,0.3,30.7-0.9,46.8-3.1c1.3-0.5,2.5-1.1,3.7-1.7c13.6-7.1,26-18.3,36.1-29.7c5.2-5.9,9.9-12.1,14.4-18.5
		c4.7-6.7,9-11.6,16.1-15c0.1-1.1,0.1-2.2,0.1-3.3C1299.9,1669.4,1299.7,1667.7,1299.5,1666z"/>
	<path opacity="0.3" fill="#05132B" enable-background="new    " d="M1230.6,1646.6c-9.5,10.5-26,6.6-37.8,3.2
		c-13-3.7-25.4-9.8-37.5-15.7c-5.3-2.6-10.6-5.4-15.6-8.6c-5.2-3.3-9.3-7.9-14.4-11c-1.3-0.8-2.4,0.7-1.9,1.9
		c2.4,5.4,8.3,9.7,13.1,13.1c4.3,3.1,9.1,5.7,13.9,8.1c1,0.5,2,1,3,1.5c2.1,1,4.2,2.1,6.3,3.1c5,2.5,10,4.9,15.2,7.1
		c5.5,2.4,11.2,4.5,16.9,6.1c1,0.3,2.1,0.6,3.1,0.8c5.8,1.4,12.8,2.8,18.8,1.8c5-0.8,11.3-2.1,15-5.8c4-3.9,6.2-9.1,8.4-14.1
		c1.2-2.6,2.4-4.9,4-7.2c0.9-1.3,2.1-2.6,3.1-3.9c-2.5,0.3-3.9,1.2-4.8,2.4c-0.3,0.7-0.5,1.4-0.7,2
		C1236.8,1636.7,1234.4,1642.3,1230.6,1646.6z"/>
	<path fill="#E8E8E8" d="M856.3,1681.7c5.9-3.9,7.3-2.4,7.1-5.2c-0.2-2.9,0.4-6.2-7.1-4.2c-3.5,0.9-6.8,2.1-9.4,3.1
		c-3.5,6.3-6.6,12.8-9.4,19.5C847,1687.4,850.6,1685.5,856.3,1681.7z"/>
	<path fill="#E8E8E8" d="M867.2,1660.6c1.7-0.9,3.1-2.5-0.1-5.2c-3.1-2.6-3.8-2.9-6.8-2.2c-2,3.1-3.9,6.1-5.8,9.2
		C861.5,1661.5,865.7,1661.4,867.2,1660.6z"/>
	<path fill="#E8E8E8" d="M1001.3,1724.8c-2.2-18-6.9-35.6-9.5-39.2c-1-1.5-2.2-2.5-3.2-3.2c-4.4,4.5-8.6,9.4-12.3,14.5
		c1.9,2.2,5.5,6.7,9.8,14.2c6.3,11,6.5,21.6,7.8,34.9c0.7,7.5,0.9,12.2,1.2,15.4c2.5-3.8,5-7.6,7.4-11.4
		C1002.7,1743.6,1002.5,1734.4,1001.3,1724.8z"/>
	<path fill="#E8E8E8" d="M997.8,1681.7c3.2,6.9,6.5,18.7,7.8,35.6c1,13.6,1.3,20,3.1,23.3c1.1-1.7,2.2-3.3,3.2-4.9
		c3.4-5.1,6.9-10.2,10.6-15.2c0.2-10.2,0-25.6-1.2-33c-1.8-11.3-8.5-21-10.9-22c-0.4-0.2-1.1-0.1-2,0.2c-4.7,3.3-9.1,6.8-13.3,10.6
		C995.6,1677.4,996.6,1679,997.8,1681.7z"/>
	<path fill="#E8E8E8" d="M1135.7,1712.5c-0.1-1.3,0-4.2,0.9-10.4c1.5-10.9,7.3-30.7,13.5-41.8c5.4-9.6,8.8-16.6,9.5-18.2
		c-2.1-1-4.2-2.1-6.3-3.1c-1-0.5-2-1-3-1.5c-1.1,0.1-2.2,0.7-3.2,1.8c-3.3,3.3-14,16.3-21.7,30.4c-7.2,13.1-9.7,20.4-9.2,28.2
		c2.4,1.3,4.7,2.7,6.9,4.3C1127.5,1705.3,1131.6,1708.9,1135.7,1712.5z"/>
	<path fill="#E8E8E8" d="M1162.5,1671.8c-7.5,19.6-9.7,31.8-10.5,41.5c-0.6,6.7-0.7,10.5-0.6,12.2c1.8,1.4,3.7,2.7,5.7,3.8
		c5.9,2.2,11.9,4.3,17.9,5.9c0.9-5.6,3.5-22.7,5.1-35.1c1.9-15.1,5.5-23.8,8.7-31.9c3.1-8,4.3-10.7,3-13c-5.8-1.6-11.4-3.7-16.9-6.1
		C1171.4,1651.7,1169.1,1654.5,1162.5,1671.8z"/>
	<path fill="#8C1718" d="M1310.5,1672.5c-7.3-11.1-13.4-4-20.6,4.8c-4.8,5.9-12.9,18.2-22.5,30c-4.8,5.9-9.9,11.7-15.1,16.6
		c-15.7,14.7-41.4,16.3-67.9,14.3c-26.5-1.9-24.9-7.9-44.4-19.6c-10.6-6.3-22.2-14-33.1-20.6c-8.1-4.9-15.8-9.3-22.5-12.2
		c-0.8-0.3-1.6-0.7-2.4-1c-16.1-6.2-28.9-8.3-29.4-7.3s-1.2,4.2-2.6,9.6c-0.6,2.4-3.1,6.3-6.9,12.1c-4.7,7.2-11.5,17.5-19.5,31.7
		c-14.4,25.7-41.1,58.4-51,69.4s-12.4,11.2-18.5,8.8c-6-2.4-13.5-13.5-18.5-20.2s-24.8-26.9-56.3-26.1s-45.5,21.7-49.4,25
		c-0.2,0.2-0.4,0.3-0.5,0.4c-3.9,2.4-9.5-2.6-11.8-4c-2.5-1.4-4.5,5.5-4.5,5.5s-12.5,7.2-31.3,3.4c-0.7-0.1-1.4-0.3-2-0.5
		c-17.5-4.2-27.2-15.2-42.1-32.6c-15.5-18-31.8-22.6-48.7-27.6s-22.7,11.1-23.5,27.7c-0.5,9.5,0.3,16.6,2.4,21.7
		c1.5,3.8,3.8,6.5,6.7,8.3c6.8,4.2,18.1,6.9,18.1,6.9s-1.3,7.1,0.9,8.4c2.2,1.4,6.9,2.6,6.9,2.6s0,0.5,0.2,1.3
		c0.3,2.1,1.2,6.2,3.2,7.8c2.7,2.3,9.3,3.8,10.9,2.5s3.2-6.6,3.2-6.6s3.1,0.2,4.9-1.1c0.3-0.2,0.5-0.4,0.7-0.6
		c1.6-1.9,4.4-7.6,4.4-7.6c12,2.4,41,0.8,41,0.8s0.8,5.6,1.8,7.3c0,0.1,0.1,0.2,0.2,0.2c0.7,0.9,2.2,1.2,3.1,1.4
		c0.2,0.1,0.5,0.2,0.7,0.3c1.5,4.9,3.1,8.2,9.3,8.7c6.3,0.5,8.4-2.2,9.1-5.3c0.4-1.6,0.4-4.3,0.3-6.6c-0.1-2.1-0.3-3.9-0.3-3.9
		s2.3-0.5,3-2.2s0.8-3.1,0.8-3.1c5.9-0.5,14.1-3.4,16.1-4.2c-0.5,2.9-0.7,5.3-0.7,5.3l-0.2,12.2c0,0,0.7-7.2,1.7-11.9
		c0.3,2.8,0.8,6.5,2,10.9c2.6,10.3,9.2,15.4,9.2,15.4s-0.9,3,0.5,5.2c1.5,2.2,5.8,2.3,6.6,8.2c0,0.2,0.1,0.4,0.1,0.6
		c0.8,5.5,2.2,9.5,6.5,10.3c4.5,0.8,6.8-2.1,8.1-6.6l0,0c1.2-4.6,0.7-4.7,4.8-4c4.1,0.7,10.2,2.9,34.7,1.2
		c24.6-1.8,42.5-8.6,42.5-8.6c0.1,1.7,0.2,3.2,0.4,4.5c1.1,10.3,3.4,9.9,8.2,10.3c5.5,0.5,11.5-2.2,12.8-4.4c0.5-1,0.9-3.8,1.2-6.7
		c0.4-4,0.5-8.3,0.5-8.3s3.4-1.5,4.5-2.9c1.2-1.4,0.7-4.2,0.7-4.2l12.2-7.3c0,0,15.1,0.1,16.1-1.9c1-2,0.9-8.5,0.9-8.5l32.4-27.1
		c0.3,0,0.7,0,1,0.1c13.7,0.8,19.5-2.5,21-8.5c0.3-1.1,0.5-2.3,0.7-3.5c0.7-5.4,0.4-11.2,0.4-11.2c4.7,0.5,10.9,0.4,12-3.1
		s0.6-16.2,1.8-20s1.4-8.1,1.4-8.1l10.9,7.6c0,0-0.6,1.8,1.1,3.3l5.7,3.4c0,0,0,0.1,0,0.1c0.8,10,0.2,13.6,4.7,15.7
		c4.5,2.1,8.5,0.3,9.2-2.4c0.2-1,0.6-2.7,0.9-4.5c0.5-3,1-6.1,1-6.1s5,0.2,5.7-0.9s1.4-3.2,1.4-3.2l55.2,3.8c0,0,2.7,7.2,6.4,8.3
		s8.5,0,8.5,0s0.1,1.4,0.2,3.4c0.2,3.1,0.5,7.4,0.8,10.1c0.6,4.4,2.3,7.3,7.9,7.4s10.3-1.1,11.8-6.9c0.8-3.1,0.8-6.6,1-9.3
		c0.1-2.3,0.3-4,1.1-4.4c1.8-0.9,4.8,0.2,7.2-1.3c2.3-1.5,3-4.2,3-4.2c16.9,1.5,48.1-3.5,48.1-3.5l1,4.3l5.5-0.8
		c0,0,0.1,1.3,0.3,2.7c0.2,1.2,0.5,2.5,1,2.8c1.1,0.8,3.1,0.7,3.1,0.7c1.3,7.6,2.8,10.5,9.9,10.2s9.4-2.6,10.5-7
		c0.2-0.7,0.3-1.6,0.5-2.4c0.7-4.4,0.6-10,0.6-10s8.3-3.2,8.6-4.5s0.5-4.1,0.5-4.1c26.3-9.5,23.9-10.2,25.5-18.9
		c0.1-0.7,0.3-1.6,0.4-2.5C1317.4,1701.8,1317.2,1682.7,1310.5,1672.5z"/>
	<path fill="#FBFBFB" d="M843,1597.5c0-3.1,0-5.6-0.1-6.6c-0.1-4-1.8-2.7-8.2-0.3c-0.4,0.2-0.9,0.4-1.3,0.6c2.2,0.1,4.1,0.8,5.5,2.1
		C840.4,1594.6,841.8,1596.1,843,1597.5z"/>
	<path fill="#B3B7BE" d="M825,1612.5l17.9,6.3c0,0,0.1-12.9,0.1-21.4c-1.1-1.4-2.5-2.9-4-4.3c-1.4-1.3-3.3-2-5.5-2.1
		c-5.8,2.7-11,7.8-11,7.8S824.3,1606.2,825,1612.5z"/>
	<path fill="#FBFBFB" d="M950,1623l-27,3.2c0,0,0.7,4.9,1.4,14.3c9-3,20.6-3.6,26.2-3.7L950,1623z"/>
	<path fill="#B3B7BE" d="M950.6,1636.8c-5.6,0.1-17.2,0.8-26.2,3.7c0.2,2.5,0.4,5.2,0.5,8.3l16.2,0.6h10L950.6,1636.8z"/>
	<path fill="#FBFBFB" d="M1173.8,1573.2c0,0-2.8,2.3-6.4,0.2s-6.3-3.7-7.4-2.7c-1.1,0.9-2.7,3.7-4,9.5c-0.6,2.9-0.5,5.3,0.4,7.6
		c6.5-4.8,16.3-6.9,20.9-7.6L1173.8,1573.2z"/>
	<path fill="#B3B7BE" d="M1177.2,1580.1c-4.6,0.8-14.4,2.8-20.9,7.6c0.9,2.1,2.5,4.1,5,6.3l16.6-9.9l0.6-1.4L1177.2,1580.1z"/>
	<g>
		<g>
			<path fill="#E8E8E8" d="M1149,1603.7c-4.7-2.3-11.9,1.3-13.7,6c-0.4,1.2-0.5,2.4-0.3,3.6c-0.1,1.7,0.5,3.4,1.8,4.7
				c4.7,4.9,14.7,5.6,18.8-0.6C1159.2,1612,1154.8,1604.8,1149,1603.7z"/>
			<path fill="#E8E8E8" d="M1177.4,1614c-0.1-0.5-0.3-1-0.8-1.5c-1.9-1.7-3.3-3-6.1-2.8c-2.4,0.2-5,1.2-6.7,2.9
				c-3.6,3.5-4.6,9.3-1.1,13.2c3.5,3.9,10.2,3.2,13.8,0C1180.2,1622.6,1181,1617.3,1177.4,1614z"/>
			<path fill="#E8E8E8" d="M1194.9,1629.4c-0.1-0.4-0.3-0.8-0.7-1.2c-1.5-1.3-2.9-2.6-5-2.6c-2.3-0.1-4.4,1.1-6,2.7
				c-2.7,2.6-5.2,6.8-2.2,10.1c2.9,3.2,8.2,4.5,12.1,2.8c4.2-1.9,6.8-6.3,3.6-10.2C1196.1,1630.3,1195.5,1629.8,1194.9,1629.4z"/>
			<path fill="#E8E8E8" d="M1222.7,1635.8c-1.8-1.2-4.4-1.3-6.9-0.7c-3.9-0.6-8.3-0.3-10.5,3.4c-2.7,4.6,1.2,8.7,5.2,10.6
				c4.1,1.9,9.1,0.7,12.5-2C1226.5,1644.2,1226.6,1638.4,1222.7,1635.8z"/>
			<path fill="#E8E8E8" d="M967.1,1670.7c-3.5-2.1-7.3-0.1-9.8,2.8c-1.9,0.9-3.7,2.3-5,4c-0.5,0.6-1,1.3-1.3,2.1
				c-0.6,1.2-0.9,2.5-0.9,3.9c0.1,6,6.8,7.2,11.3,5.1c4.1-1.9,9.2-7.4,8.3-12.3C970,1674.2,969.1,1671.9,967.1,1670.7z"/>
			<path fill="#E8E8E8" d="M983.2,1656.6c-1.5-1.2-3.3-1.8-5.1-0.8c-1.5,0.8-3,2.1-4.1,3.4c-0.7-0.3-1.6-0.2-2.3,0.4
				c-3.2,2.9-0.3,8.4,2.5,10.6c3.1,2.4,8.4,0.7,10.4-2.5C986.6,1664.3,986.5,1659.2,983.2,1656.6z"/>
			<path fill="#E8E8E8" d="M950.4,1696.7c-1.4-1.1-3.5-2.2-5.3-1.9c-2.1,0.4-3.3,2.5-4.4,4.1c-0.2,0.3-0.3,0.7-0.4,1
				c-3.6,2.2-6.3,6.2-3.1,9.8c3.8,4.3,12.5,3.4,15.5-1.4c1.5-2.5,1.3-5.9-0.1-8.5C952.3,1698.7,951.6,1697.6,950.4,1696.7z"/>
			<path fill="#E8E8E8" d="M943.9,1718.5c-0.9-1.5-2.3-2.6-3.9-3.2c-3.6-1.2-7.9,0-8.2,4.2c0,0,0,0,0,0.1c-1.5,2-2.2,4.9-1.4,7
				c1.1,2.9,4.4,4.4,7.3,4.4C943.7,1730.8,949.2,1722.7,943.9,1718.5z"/>
			<path fill="#E8E8E8" d="M871.2,1713c-2.7-1-5.5-1.1-7.8,0.8c-3.9,3.3-3.7,13.2,3,12.6c2.6-0.3,6.2-1.9,7-4.6c0.3-1,0.2-2.1-0.2-3
				C874.4,1716.6,873.9,1714.1,871.2,1713z"/>
			<path fill="#E8E8E8" d="M871.9,1691.9c-1.1-0.6-2.2-0.8-3.4-0.8c0,0-0.1,0-0.2,0c-3.1-0.7-6.9,1.3-8,4.3
				c-0.2,0.7-0.4,1.4-0.5,2.3c-0.1,0.4-0.2,0.9-0.3,1.4c-0.1,1,0,1.9,0.2,2.8c0.1,1,0.3,2,0.5,2.8c1.1,3.3,4.5,4.5,7.7,4.2
				c3.3-0.3,5.7-2.9,6.9-5.9c1.1-2.8,1.2-6.5-0.8-8.9C873.5,1693.1,872.8,1692.4,871.9,1691.9z"/>
			<path fill="#E8E8E8" d="M875.7,1678.1c-0.2-1.1-0.6-2.2-1.3-3.2c1.3-2.2,0.1-5.3-3.1-5.6c-1.5-0.2-2.8,0.4-3.8,1.2
				c-2.9,1.1-4.3,4.7-4.5,7.6c-0.1,0.5-0.1,1-0.1,1.6c-0.4,2.6,0,5,3,6.1c0.6,0.2,1.3,0.4,2,0.5c1.3,0.4,2.7,0.4,3.9,0
				c0.1,0,0.2,0,0.3,0c2.4-0.4,3.1-2,3.4-4.2c0.1-0.4,0.1-0.8,0-1.2C875.8,1679.9,875.8,1679,875.7,1678.1z"/>
			<path fill="#E8E8E8" d="M883.3,1645.4c-1.2-1-2.6-1.3-3.9-1.2c-3.2-0.5-6.3,1.8-7.3,5.4c-1.1,4-0.5,10.7,3.5,13
				c0.9,0.5,1.7,0.7,2.5,0.7C885.6,1664.1,888.4,1649.7,883.3,1645.4z"/>
			<path fill="#E8E8E8" d="M803.3,1674.7c-0.5-0.3-1-0.6-1.5-0.8c-0.3-0.2-0.6-0.4-0.9-0.6c-2.3-1.3-4.6-0.6-6.5,0.8
				c-3-0.6-6.4,2.5-7.1,5.3c-1.2,4.7,2.7,8,7.1,8.1c1.5,0,3.1-0.2,4.6-0.8c3-0.6,5.7-2.4,6.7-5.4
				C806.5,1678.7,805.4,1676.2,803.3,1674.7z"/>
			<path fill="#E8E8E8" d="M825.2,1654c-2.7-0.9-5.2,0.4-7,2.4c-0.3,0.1-0.6,0.3-1,0.5c-2.5,2-4.9,4.5-4.8,7.9
				c0.1,3.2,2.7,5.9,5.7,6.9c6.1,2,13.2-4.6,12.4-10.7C830,1658.1,828.1,1655,825.2,1654z"/>
			<path fill="#E8E8E8" d="M846.2,1643.7c-1.5,0.2-2.9,0.7-3.9,1.7c-0.4-0.2-1-0.3-1.6-0.1c-2.7,1-4,3.5-4.3,6.3
				c-0.3,3.3,1.8,5.1,4.6,6.2c2.7,1,5.5,1.1,7.9-0.6c2.5-1.8,3.5-4.8,3-7.8C851.5,1646.4,849.5,1643.3,846.2,1643.7z"/>
			<path fill="#E8E8E8" d="M865.2,1640.2c0.3-0.3,0.5-0.7,0.7-1c1.5-2.4,1.3-4.6-0.3-6.9c-0.7-1.1-1.6-2.1-2.7-2.9
				c-0.3-0.2-0.7-0.4-1.1-0.5c-0.8-0.8-1.8-1.3-2.8-1.7c-1.2-0.4-2.7,0.3-3.4,1.4c-0.4,0.7-0.5,1.3-0.3,2c-0.5,0.7-0.6,1.5-0.3,2.3
				c-1.1,0.6-1.6,1.9-1.3,3.1c-0.5,0.9-0.6,2,0.3,2.9c1.9,1.8,2.5,4,5.4,4.5C861.7,1643.6,864.4,1642.5,865.2,1640.2z"/>
		</g>
		<g>
			<polygon fill="none" points="958,1676 958,1676 958,1676 			"/>
			<path fill="none" d="M882,1656.9C882,1657.2,882,1657.1,882,1656.9L882,1656.9z"/>
			<path fill="none" d="M858.8,1635.3c0,0,0-0.1,0-0.1C858.8,1635.3,858.8,1635.3,858.8,1635.3
				C858.8,1635.3,858.8,1635.3,858.8,1635.3z"/>
			<path fill="none" d="M859,1634.5C859.2,1634.7,859.2,1634.6,859,1634.5L859,1634.5z"/>
			<path fill="#202429" d="M1148.4,1606.5c-2.2-0.2-5.4,0.1-6.7,2.2c-1.4,2.3-0.2,5.6,2.4,6.5c1.7,0.6,3.7,0.3,5.4-0.5
				c1.6-0.5,2.9-1.6,3.3-3.1C1153.6,1608.6,1150.9,1606.7,1148.4,1606.5z"/>
			<path fill="#202429" d="M1172.2,1614c-1,0-2,0.3-2.9,0.7c-0.7,0.2-1.4,0.5-1.9,1.1c-0.3,0.3-0.5,0.7-0.7,1.1
				c-1.1,1.5-1.1,3.6,0.3,4.9c0,0,0,0,0,0.1c2.9,3.1,8.5,1.1,9.2-2.9C1176.7,1616.1,1174.9,1614,1172.2,1614z"/>
			<path fill="#202429" d="M1188.9,1629.6c-1.5,0-3,0.8-4.1,1.8c-0.5,0.5-0.8,1.2-1,1.9c0,0.1-0.1,0.2-0.1,0.2
				c-0.6,1.8,0,3.9,1.7,4.8c3.3,1.9,7.3-1.1,7.3-4.7C1192.8,1631.6,1191.2,1629.6,1188.9,1629.6z"/>
			<path fill="#202429" d="M1219.1,1638.4c-0.1-0.2-0.1-0.5-0.2-0.7c-0.5-1.3-1.7-2.1-3.2-2.1c-0.5,0-1.1,0.2-1.6,0.4
				c-1.1,0.1-2.1,0.8-2.9,1.7c-1,0.9-1.6,2.2-1.4,3.7c0,0,0,0,0,0c0,0.3,0.1,0.5,0.2,0.8c0.7,2,3,3,5,2.4c1.8-0.6,3.5-2.3,4.1-4
				C1219.6,1639.7,1219.5,1639,1219.1,1638.4z"/>
			<path fill="#202429" d="M934.8,1717.5c-0.1,0-0.2,0-0.3,0.1c-1.2,0.4-2,1.5-2,2.7c0,1.6,0.9,2.8,2.2,3.7c1.2,0.8,2.7,1.2,4.1,0.8
				c1.9-0.5,2.9-2.3,2.7-4.2C941,1717.6,937.1,1715.8,934.8,1717.5z"/>
			<path fill="#202429" d="M946.4,1701.1c-0.9-0.4-1.9-0.6-2.9-0.4c-0.5,0.1-1,0.4-1.4,0.8c-1.2,0.4-2,1.7-2,2.9
				c-0.1,3.1,4.1,6.2,7,4.4C949.9,1707.1,949.2,1702.5,946.4,1701.1z"/>
			<path fill="#202429" d="M954.8,1675.9c-1.3,2-0.9,4.6,1.3,5.7c0.9,0.4,2.1,0.5,3.2,0.2c3.5-0.3,7.5-2.7,5.7-6.4
				C963.2,1671.6,956.9,1672.8,954.8,1675.9z M958,1676C958,1676,958,1676,958,1676C958,1676,958,1676,958,1676
				C958,1676,958,1676,958,1676z"/>
			<path fill="#202429" d="M978.4,1658c-1.1-0.7-2.3-0.6-3.4,0.2c-0.7,0.6-1.5,1.3-2,2.2c-0.5,0.7-0.9,1.3-0.9,2.2
				c0,1.4,1,2.6,2.3,3c0.4,0.1,0.8,0.1,1.3,0.1c1.4,0.3,2.9,0,4-1c1.1-1.1,1.5-2.8,1.1-4.3C980.5,1659.2,979.5,1658.4,978.4,1658z"
				/>
			<path fill="#202429" d="M881.6,1651.9c-1.3,0.1-2.4,0.7-3.2,1.6c-0.1,0.1-0.2,0.2-0.3,0.3c-0.8,0.9-1.6,2.2-1.6,3.5
				c0,2,1.8,3.4,3.7,3.4c1.4-0.1,2.7-0.9,3.7-1.8c1.1-1.1,1.9-2.7,1.5-4.3C884.9,1653,883.2,1651.8,881.6,1651.9z M882,1656.9
				C882,1657.1,882,1657.2,882,1656.9L882,1656.9z"/>
			<path fill="#202429" d="M872.7,1672.5c-4.2-0.6-6.7,4.8-4,7.9c1.3,1.4,3.5,1.9,5.2,0.9c1.3-0.8,2-2.3,2-3.8
				c0-0.1,0.1-0.2,0.1-0.4C876.5,1674.8,874.9,1672.8,872.7,1672.5z"/>
			<path fill="#202429" d="M869.2,1694.9c-1.9,0.1-3.8,0.9-4.7,2.6c-0.9,1.7-0.5,3.7,0.9,4.8c0.3,0.3,0.6,0.5,0.9,0.8
				c3.4,1.8,9-1.2,7.9-5.4C873.6,1695.4,871.3,1694.8,869.2,1694.9z"/>
			<path fill="#202429" d="M872.4,1714.6c-0.8-0.5-1.9-0.6-2.8-0.4c-0.2,0.1-0.5,0.2-0.8,0.3c-0.1,0-0.2,0-0.2,0.1
				c-0.4,0.2-0.8,0.4-1.1,0.8c-0.1,0.2-0.3,0.4-0.4,0.5c0.1-0.1,0.2-0.2,0.2-0.3c-0.4,0.5-0.5,0.6-0.7,1.2c-0.4,1.3,0.1,2.8,1.3,3.5
				c0.9,0.5,2.3,0.5,3.3,0.2c1.1-0.3,2-1.1,2.4-2.2C874.3,1717,873.7,1715.4,872.4,1714.6z"/>
			<path fill="#202429" d="M799,1674.7c-1.3-0.8-3.4-1.6-4.9-0.8c-0.8,0.4-1.2,1.2-1.5,2c0,0,0,0,0,0.1c-0.3,1-0.2,2.2,0.2,3
				c0.3,0.6,0.8,1.1,1.3,1.5c0.8,0.9,2,1.5,3.2,1.5c1.8,0,3.6-1.3,3.8-3.1C801.5,1677.1,800.5,1675.6,799,1674.7z"/>
			<path fill="#202429" d="M822.8,1656.9c-0.1,0-0.1-0.1-0.2-0.1c0,0,0-0.1,0-0.1c-0.8-1.2-2.1-1.4-3.3-0.9
				c-0.8,0.4-1.6,0.9-2.1,1.6c-0.3,0.4-0.4,0.9-0.4,1.3c-0.1,1,0.2,2,1,2.7c0.5,0.4,1.1,0.6,1.7,0.6c0.3,0.1,0.6,0.2,0.9,0.2
				c1,0.1,2.2,0,3-0.6c0.9-0.7,1.6-1.8,1.2-3C824.3,1657.8,823.7,1657.2,822.8,1656.9z"/>
			<path fill="#202429" d="M841.8,1645c-0.2,0-0.3,0-0.5,0.1c0,0-0.1,0-0.1,0c-0.1,0-0.3,0-0.4,0.1c0.1,0-0.1,0-0.2,0
				c-0.5,0-0.8,0.2-1.2,0.4c-0.7,0.4-1.4,1-1.8,1.7c-0.7,1.4-0.3,3.1,1.1,3.9c0.9,0.5,1.9,0.6,2.9,0.4c2-0.4,3.5-2.3,3-4.4
				C844.4,1645.9,843.2,1645,841.8,1645z"/>
			<path fill="#202429" d="M859.6,1632.3c-1.2-0.8-2.7-0.8-4-0.2c-0.8,0.3-1.6,0.9-1.8,1.8c-0.2,0.7-0.1,1.4,0.3,2
				c0.1,0.1,0.2,0.2,0.2,0.3c0.6,1.1,1.5,2.4,2.7,2.8c1.8,0.6,3.3-0.6,4-2.2C861.6,1635.1,861.1,1633.3,859.6,1632.3z M858.8,1635.3
				C858.8,1635.3,858.8,1635.3,858.8,1635.3c0-0.1,0-0.1,0-0.1C858.8,1635.3,858.8,1635.3,858.8,1635.3z M859,1634.5
				C859.2,1634.6,859.2,1634.7,859,1634.5L859,1634.5z"/>
		</g>
		<g>
			<path fill="#4D4C4C" d="M1152.3,1605.6c3.1-2.6,5.6-5.7,8.7-8.3s6.3-4.9,9.7-7.1c1.2-0.8,7-4.1,9.4-6.7c-0.5-1.1-1.6-1.9-3.1-1.8
				c-7,0.6-13.5,5.8-18.7,10.2c-4.7,3.9-10.8,9.1-13.2,15.1C1147.6,1608.9,1149.9,1607.6,1152.3,1605.6z"/>
			<path fill="#4D4C4C" d="M1184.9,1605.2c2.3-2.9,4.9-5.4,7.8-7.6c2.6-2.1,5.6-3.7,7-6.6c-1.1-1.8-3.8-3-5.8-1.9
				c-5.8,3-10.9,9.1-15.3,13.8c-2.3,2.4-4.5,5-6.4,7.8c-0.8,1.2-1.7,2.3-2.2,3.6c-0.1,0.1-0.1,0.2-0.1,0.3
				C1175.2,1621.1,1181.5,1609.5,1184.9,1605.2z"/>
			<path fill="#4D4C4C" d="M1193,1628.3c2.3-3,4.2-6.1,7.2-8.6c3.6-3,7.3-5.6,10.7-8.8c2.2-2.1,4.1-4.4,6.1-6.7
				c0-0.1,0.1-0.1,0.1-0.2c1.5-3.9-3.5-7-6.7-5.2c-2.3,1.3-4,4.8-5.9,6.8c-2.7,2.9-5.2,5.8-7.6,8.9c-4,5.3-7.4,10.5-9.8,16.4
				c0.1,0.2,0.2,0.3,0.4,0.4C1189.4,1633.2,1191.7,1630.1,1193,1628.3z"/>
			<path fill="#4D4C4C" d="M1235.2,1617.3c4.1-4.2-2.4-10.6-6.4-6.4c-4.2,4.5-7.7,9.4-10.9,14.6c-2,3.2-6.7,8.3-6.6,12.5
				c2.2,1.6,6.6-1.6,9-3.9c1-0.9,1.9-1.9,2.9-2.8c0.1-0.1,0.2-0.3,0.3-0.4C1227.2,1626.2,1231,1621.6,1235.2,1617.3z"/>
			<path fill="#4D4C4C" d="M898.8,1652.4c9.4-1.2,18.9-1.7,28.3-1.2c9.1,0.4,18.2,1.7,27,3.8c4.7,1.2,9.3,2.7,13.9,4.2
				c2.5,0.8,5.7,2.2,8.4,1.4c1.2-0.3,2.2-1,2.9-2.1c0-0.2,0-0.3,0.1-0.4c-0.1-0.1-0.1-0.2-0.2-0.2c-5.5-5.8-15.1-8.4-22.7-10.4
				c-8.5-2.2-17.3-3.1-26-3.4c-16.9-0.6-36.2-0.2-50.5,9.6c-0.1,0.1-0.2,0.2-0.3,0.2C885.9,1654.7,892.4,1653.2,898.8,1652.4z"/>
			<path fill="#4D4C4C" d="M880.8,1675.4c3.9-1,7.9-1.6,11.9-2.1c8-1,16-1.3,24-1.2c8.1,0.2,16.1,0.9,24.1,1.9c4,0.5,8,1.1,12.1,1.7
				c3,0.4,6.1,1.2,8.5-0.1c-3.1-5.3-12.2-7.4-17.8-8.7c-8.9-2-17.4-3-26.5-3c-8.8-0.1-17.5,0-26.1,1.4c-4,0.7-7.6,1.9-11.3,3.6
				c-3.3,1.5-7.5,2.8-9,6.4c-0.3,0.8-0.4,1.8-0.1,2.6C873.6,1678.1,879.1,1675.8,880.8,1675.4z"/>
			<path fill="#4D4C4C" d="M875.4,1698.6c3.5-0.6,7.1-1.2,10.7-1.6c7.3-1,14.7-1.7,22.1-1.7c6.8,0,13.7,0.6,20.3,2
				c3.5,0.7,6.8,1.7,10.2,2.9c0.5,0.2,9.2,3.6,10.1,1.6c-0.2-0.5-0.6-1.1-0.9-1.5c-8.9-10.8-24.2-12.5-37.4-12.9
				c-7.5-0.2-14.7,0.4-22,2.2c-3.5,0.9-7.1,1.8-10.5,3.2c-3.4,1.4-6.6,3.6-10,4.9c-1.1,0.4-1.6,1.4-1.6,2.4
				C869.5,1700.1,873.2,1698.9,875.4,1698.6z"/>
			<path fill="#4D4C4C" d="M881.3,1715.4c5.9-0.5,11.9-0.9,17.8-0.8s11.8,0.6,17.7,1.5c1.9,0.3,18,4.2,18.4,1.1
				c0.1-0.7,0.3-1.3,0.7-1.8c-2.5-1.7-6.2-2.6-8.7-3.2c-6.5-1.7-13.4-3.1-20.1-3.6c-6.9-0.6-13.6-0.1-20.4,0.8
				c-6.2,0.8-12.8,1.5-17.1,6.1C873.3,1716.3,877.3,1715.8,881.3,1715.4z"/>
			<path fill="#4D4C4C" d="M733,1652.6c3.9,0,7.8,0,11.6,0.2c7.7,0.3,15.3,1.3,22.6,3.7c6.5,2.1,12.8,5,18.5,8.8
				c2.5,1.7,4.9,3.6,7.2,5.5c1.6,1.3,3.3,3.6,5.4,2.6c1.1-0.5,1.4-1.4,2.1-2.3c-4.7-11.2-18.6-16.4-29.8-19.4
				c-7-1.9-14.1-3-21.3-3.1c-7-0.1-15.5-0.2-21.8,3.2c-0.4,0.2-0.7,0.5-0.9,0.9C728.9,1652.8,731.3,1652.6,733,1652.6z"/>
			<path fill="#4D4C4C" d="M802.8,1645.8c2.7,1.5,17,11.8,19.7,8.8c0.1-0.1,0.2-0.2,0.3-0.3c-2.4-4.5-6.8-7.9-11-10.8
				c-5.6-4-12-7-18.6-9c-7.1-2.2-14.6-3.1-22-3c-4.2,0-8.5,0.1-12.6,0.9c-2.8,0.5-5.5,1.7-8.1,3.1c10.5,3.2,23.1,0.7,33.6,2.8
				C790.8,1639.5,797,1642.5,802.8,1645.8z"/>
			<path fill="#4D4C4C" d="M785.7,1623.1c7.4,0.3,14.5,1.2,21.6,3.3c6.6,2,13.1,4.1,19,7.7c1.3,0.8,15.3,10.5,15.8,9.8
				c0.5-0.7,1.1-1.1,1.8-1.4c-1.4-1.4-3.2-2.7-4.7-3.9c-2.5-2.2-5-4.3-7.7-6.4c-5.9-4.5-12.1-8.4-19-10.9
				c-7.2-2.5-15.1-2.6-22.6-2.7c-4.2-0.1-8.5-0.1-12.7,0.2c-4,0.3-7.6,1.4-11.4,2.2c2.9,1.3,7.1,1.3,9.5,1.5
				C778.6,1622.9,782.1,1622.9,785.7,1623.1z"/>
			<path fill="#4D4C4C" d="M797.1,1610.8c3.7-0.2,7.3-0.3,11-0.2c7.3,0.3,14,1.8,21.1,3.7c6.2,1.7,12,3.8,17.2,7.8
				c1.6,1.2,11.7,11.7,14.5,12.6c0-0.2,0-0.4,0-0.6c-1.3-16.1-20.5-21.9-33.8-24.9c-8-1.8-15.8-1.6-24-1.3
				c-3.6,0.1-7.4,0.1-10.9,1.1c-1.5,0.4-2.5,0.9-3.3,1.5C791.5,1611.3,794.9,1610.9,797.1,1610.8z"/>
			<path fill="#2B323C" d="M1149.3,1613.5c5.8-2.8,9.7-9.4,14.4-13.6c4.8-4.2,11.5-7.1,15.7-11.8c1.1-1.2,1.2-3.1,0.5-4.5
				c-2.3,2.5-8.1,5.8-9.4,6.7c-3.3,2.2-6.7,4.5-9.7,7.1s-5.6,5.8-8.7,8.3c-2.4,2-4.7,3.3-7.4,1.4c-0.3,0.8-0.6,1.6-0.8,2.4
				C1143.4,1612.6,1146.5,1614.8,1149.3,1613.5z"/>
			<path fill="#2B323C" d="M1171.2,1621.6c3.1-1.2,4.7-1.4,7.1-4c2.4-2.6,4.4-5.5,6.8-8.1c4.5-5.1,10.4-9.3,14.4-14.7
				c0.9-1.3,0.9-2.6,0.3-3.7c-1.5,2.9-4.4,4.5-7,6.6c-2.9,2.3-5.5,4.8-7.8,7.6c-3.4,4.3-9.8,15.9-15.2,9.4c-0.6,1.5-0.6,2.9-1.2,4.4
				C1168,1620.4,1169.8,1622.2,1171.2,1621.6z"/>
			<path fill="#2B323C" d="M1189.6,1637.2c4.5-5.6,8.9-11.3,13.7-16.6c2.4-2.6,4.7-5.2,7.1-7.8c1.2-1.2,2.4-2.4,3.5-3.7
				c0.3-0.3,3.1-3.6,1.2-2.4c0,0,0,0,0,0c0.9-0.5,1.6-1.3,2-2.5c0,0,0,0,0-0.1c-2,2.2-4,4.6-6.1,6.7c-3.4,3.2-7.2,5.8-10.7,8.8
				c-2.9,2.5-4.9,5.6-7.2,8.6c-1.4,1.8-3.6,5-5.5,3.2c-0.1-0.1-0.2-0.3-0.4-0.4c-0.5,1.3-1,2.6-1.4,3.9
				C1185.1,1637,1188.1,1639,1189.6,1637.2z"/>
			<path fill="#2B323C" d="M1220.3,1634.2c-2.4,2.2-6.8,5.5-9,3.9c0,0.6,0.1,1.1,0.3,1.7c0.2,0.6,0.7,1,1.3,1
				c4.6,0.2,7.7-6.1,10.2-9.4C1222.2,1632.3,1221.3,1633.3,1220.3,1634.2z"/>
			<path fill="#2B323C" d="M881.1,1658.1c15.9-0.6,31.4-4.2,47.5-3.7c8.1,0.3,16.5,0.8,24.4,2.3c7.9,1.5,14.6,6,22.2,7.8
				c3.7,0.9,6.5-3.5,4.1-6.4c0,0.1,0,0.2-0.1,0.4c-0.7,1.1-1.6,1.8-2.9,2.1c-2.7,0.8-5.8-0.6-8.4-1.4c-4.6-1.5-9.2-3.1-13.9-4.2
				c-8.8-2.2-17.9-3.4-27-3.8c-9.5-0.5-18.9,0-28.3,1.2c-6.3,0.8-12.9,2.3-19.1,1.6C878.2,1655.3,878.8,1658.1,881.1,1658.1z"/>
			<path fill="#2B323C" d="M872.3,1679.5c3.5,0.8,5.8-0.9,9.2-1.7c3.5-0.8,7-1.2,10.5-1.8c7.9-1.3,16.1-1.3,24.1-1.3
				c7.7,0,15.4,0.1,23,1.2c3.2,0.5,6.3,1.1,9.4,1.6c3.5,0.6,6.6,2.5,10.1,2.8c2.5,0.2,3.9-2.8,2.7-4.8c0,0,0,0,0,0
				c-2.4,1.3-5.5,0.5-8.5,0.1c-4-0.6-8-1.2-12.1-1.7c-8-1-16.1-1.8-24.1-1.9c-8-0.2-16,0.1-24,1.2c-4,0.5-8,1.1-11.9,2.1
				c-1.7,0.4-7.1,2.7-10.3,2.5C870.7,1678.7,871.3,1679.3,872.3,1679.5z"/>
			<path fill="#2B323C" d="M869.3,1702.3c3.9-1.2,8.7-1.4,12.7-2c3.8-0.6,7.5-1.3,11.3-1.7c7.9-0.9,15.6-0.7,23.6-0.4
				c7.4,0.3,14.7,1.4,21.2,5.1c3.6,2.1,8.2,7.1,10.8,1c0.4-0.8,0.2-1.8-0.2-2.6c-0.9,1.9-9.5-1.4-10.1-1.6
				c-3.3-1.2-6.7-2.1-10.2-2.9c-6.7-1.4-13.5-2-20.3-2c-7.4,0-14.8,0.7-22.1,1.7c-3.6,0.5-7.1,1-10.7,1.6c-2.1,0.4-5.8,1.5-9,1.5
				C866.4,1701.5,867.5,1702.9,869.3,1702.3z"/>
			<path fill="#2B323C" d="M869.3,1718.8c5.4,1.8,10.2,0.2,15.8-0.6c6.3-0.9,12.8-1,19.1-0.8c6.1,0.2,12.1,0.6,18.1,1.9
				c2.8,0.6,5.6,1.3,8.3,2.3c2.3,0.8,4.1,1.8,6.4,0.9c0.9-0.3,1.5-1,1.5-2c0.1-2.2-1-3.7-2.7-4.9c-0.3,0.5-0.6,1.1-0.7,1.8
				c-0.4,3.1-16.4-0.8-18.4-1.1c-5.9-0.9-11.8-1.5-17.7-1.5c-5.9-0.1-11.9,0.3-17.8,0.8c-3.9,0.3-8,0.8-11.8,0.2
				c-0.3,0.3-0.5,0.6-0.8,0.9C868.1,1717.3,868.3,1718.4,869.3,1718.8z"/>
			<path fill="#2B323C" d="M728.2,1657.2c5.8,1.2,11.8,0.2,17.7,0.5c6.3,0.3,12.7,1.2,18.8,2.8c6.1,1.6,11.9,4.1,17.2,7.4
				c4.3,2.7,9.5,6.6,12.3,10.8c2.6,4,8.3,1.4,7.5-3.1c-0.3-1.6-0.7-3-1.3-4.4c-0.7,0.9-1,1.7-2.1,2.3c-2.1,1-3.8-1.2-5.4-2.6
				c-2.3-1.9-4.7-3.8-7.2-5.5c-5.7-3.8-12-6.7-18.5-8.8c-7.3-2.4-15-3.3-22.6-3.7c-3.9-0.2-7.8-0.2-11.6-0.2c-1.7,0-4.1,0.2-6.3,0
				C725.6,1654.2,726.2,1656.7,728.2,1657.2z"/>
			<path fill="#2B323C" d="M748.5,1639.7c3.8,0,7.5,0.7,11.2,0.6c3.8-0.1,7.7-0.4,11.5-0.5c6.8-0.1,13.3,0.7,19.8,2.7
				c6,1.8,11.5,4.7,16.7,8.2c4.9,3.3,8.7,7.8,14.3,9.9c1.5,0.6,2.6-1.1,2.3-2.3c-0.3-1.4-0.8-2.7-1.4-3.9c-0.1,0.1-0.2,0.2-0.3,0.3
				c-2.8,3-17-7.3-19.7-8.8c-5.9-3.3-12.1-6.3-18.7-7.6c-10.5-2.1-23.1,0.4-33.6-2.8c-0.9,0.5-1.9,1-2.8,1.5
				C746.5,1637.6,747,1639.7,748.5,1639.7z"/>
			<path fill="#2B323C" d="M765.4,1626.9c3.5-0.2,7.1,0.4,10.7,0.2c3.6-0.1,7.1-0.3,10.7-0.3c6.7,0,13.6,0.2,20.1,2
				c12.3,3.4,22,12.4,31.8,20.2c1.8,1.5,4,1.6,5.8,0c0.1-0.1,0.2-0.1,0.2-0.2c0.9-0.8,1.4-2.4,0.9-3.6c-0.4-1-1.1-1.9-1.9-2.8
				c-0.7,0.2-1.3,0.7-1.8,1.4c-0.5,0.7-14.4-9-15.8-9.8c-5.9-3.6-12.4-5.7-19-7.7c-7.1-2.2-14.2-3-21.6-3.3c-3.5-0.2-7-0.2-10.5-0.5
				c-2.3-0.2-6.6-0.2-9.5-1.5c-0.3,0.1-0.6,0.1-1,0.2C761.5,1621.9,762.2,1627.1,765.4,1626.9z"/>
			<path fill="#2B323C" d="M786.3,1614.5c-0.2,0.4,0.2,0.9,0.6,1c1.1,0.2,2,0.8,3.1,0.8c1.4,0.1,3.3-0.5,4.7-0.6
				c2.8-0.3,5.6-0.3,8.4-0.4c7.1-0.2,14.2-0.7,21.2,1.2c6.4,1.7,12.7,4.3,18.1,8.1c4.7,3.3,8.1,8.2,12.2,12.2c2,2,6.1,0.8,6.3-2.1
				c-2.7-0.9-12.9-11.3-14.5-12.6c-5.1-4-11-6.1-17.2-7.8c-7-2-13.7-3.4-21.1-3.7c-3.7-0.2-7.3,0-11,0.2c-2.2,0.1-5.6,0.5-8.3-0.2
				C787.7,1611.5,787,1612.6,786.3,1614.5z"/>
		</g>
	</g>
	<path fill="#64161E" d="M1281.2,1741.6c0,0,8.3-3.2,8.6-4.5s0.5-4.1,0.5-4.1c26.3-9.5,23.9-10.2,25.5-18.9c0.1-0.7,0.3-1.6,0.4-2.5
		c-2.7,1.2-6.6,4.5-10.8,8.6c-7.1,6.8-13.4,10.4-39.1,15.2s-54.5,5.1-54.5,5.1c35.9-0.3,57.1-33.3,57.1-33.3l-1.4,0.1
		c-4.8,5.9-9.9,11.7-15.1,16.6c-15.7,14.7-41.4,16.3-67.9,14.3c-26.5-1.9-24.9-7.9-44.4-19.6c-10.6-6.3-22.2-14-33.1-20.6
		c13.4,9.7,33.1,24.1,38.9,29.3c9.1,8.2,29.9,13.5,29.9,13.5s-29.9-3.3-46.3-6.6c-16.4-3.3-46.2-7.9-46.2-7.9s-2.5-15.7-1.2-26.2
		c0.7-5.7,1.1-10.1,2.4-14.3c-0.8-0.3-1.6-0.7-2.4-1c-16.1-6.2-28.9-8.3-29.4-7.3s-1.2,4.2-2.6,9.6c-0.6,2.4-3.1,6.3-6.9,12.1
		c2.6,12.3,6,29.1,0.4,40.4c-6.3,12.5-16,21.5-29.1,34.7c-13.1,13.2-24,20.3-31.3,28c-7.3,7.7-9.9,10-22.4,14
		c-12.5,4-25.2,7-40,11.3c-14.8,4.3-45.3,11.3-73.7,5.8s-29.1-30.6-31.1-34c-0.8-1.3-1.5,0.7-2.1,3.6c0.3,2.8,0.8,6.5,2,10.9
		c2.6,10.3,9.2,15.4,9.2,15.4s-0.9,3,0.5,5.2c1.5,2.2,5.8,2.3,6.6,8.2c0,0.2,0.1,0.4,0.1,0.6c2,1.2,5,2.4,9.3,3.1
		c2.3,0.4,4,0.5,5.3,0.6c1.2-4.6,0.7-4.7,4.8-4c4.1,0.7,10.2,2.9,34.7,1.2c24.6-1.8,42.5-8.6,42.5-8.6c0.1,1.7,0.2,3.2,0.4,4.5
		c2.8,1.9,8.3,3.6,14.1,2.3c3-0.7,5.7-1.8,8.1-3.1c0.4-4,0.5-8.3,0.5-8.3s3.4-1.5,4.5-2.9c1.2-1.4,0.7-4.2,0.7-4.2l12.2-7.3
		c0,0,15.1,0.1,16.1-1.9c1-2,0.9-8.5,0.9-8.5l32.4-27.1c0.3,0,0.7,0,1,0.1v0c0,0,12.3-8,21.7-12c0.7-5.4,0.4-11.2,0.4-11.2
		c4.7,0.5,10.9,0.4,12-3.1s0.6-16.2,1.8-20s1.4-8.1,1.4-8.1l10.9,7.6c0,0-0.6,1.8,1.1,3.3l5.7,3.4c0,0,0,0.1,0,0.1l1.2-0.1
		c0,0,4.2,7.4,9.1,9.2c2,0.7,3.3,0.3,4.5-0.4c0.5-3,1-6.1,1-6.1s5,0.2,5.7-0.9s1.4-3.2,1.4-3.2l55.2,3.8c0,0,2.7,7.2,6.4,8.3
		s8.5,0,8.5,0s0.1,1.4,0.2,3.4c2.2,0.8,7.3,2.4,15,2.3c3.1,0,5.2-0.4,6.6-0.9c0.1-2.3,0.3-4,1.1-4.4c1.8-0.9,4.8,0.2,7.2-1.3
		c2.3-1.5,3-4.2,3-4.2c16.9,1.5,48.1-3.5,48.1-3.5l1,4.3l5.5-0.8c0,0,0.1,1.3,0.3,2.7c3.1,1.1,14.9,4.9,22.8,4.3
		c0.8-0.1,1.5-0.1,2.1-0.2C1281.3,1747.2,1281.2,1741.6,1281.2,1741.6z"/>
	<path fill="#64161E" d="M796.3,1804.8c0.7-1.8,0.8-3.1,0.8-3.1c5.9-0.5,14.1-3.4,16.1-4.2c0.7-3.7,1.8-8.1,3.7-9
		c3.3-1.7,1.1-0.1,8.8,0.6c3.3,0.3,4.3,0.2,3.9-0.8c-3.9,2.4-9.5-2.6-11.8-4c-2.5-1.4-4.5,5.5-4.5,5.5s-12.5,7.2-31.3,3.4
		c-0.7-0.1-1.4-0.3-2-0.5c3.4,3.3,6.9,4.5,6.9,4.5c-36.8,1.5-87.3-5.9-101.2-11.1c-10.4-3.9-14.5-5.7-17.5-4.2
		c1.5,3.8,3.8,6.5,6.7,8.3c6.8,4.2,18.1,6.9,18.1,6.9s-1.3,7.1,0.9,8.4c2.2,1.4,6.9,2.6,6.9,2.6s0,0.5,0.2,1.3
		c6.2,0.8,14.8,1.9,22.3,2.6c0.3-0.2,0.5-0.4,0.7-0.6c1.6-1.9,4.4-7.6,4.4-7.6c12,2.4,41,0.8,41,0.8s0.8,5.6,1.8,7.3
		c0.9,0.5,2,1.1,3.3,1.6c0.4,0.1,0.7,0.1,0.7,0.1c0,0.1,0,0.2,0.1,0.2c3,1.2,6.7,2.3,9.9,1.9c5.7-0.7,7-2.4,8.8-5
		c-0.1-2.1-0.3-3.9-0.3-3.9S795.5,1806.6,796.3,1804.8z"/>
</g>
</svg>
