<?xml version="1.0" encoding="utf-8"?>
<!-- Generator: Adobe Illustrator 23.0.1, SVG Export Plug-In . SVG Version: 6.00 Build 0)  -->
<svg version="1.1" id="_x32_7_x5F_Footwear_x5F_KraftwerkShoes"
	 xmlns="http://www.w3.org/2000/svg" xmlns:xlink="http://www.w3.org/1999/xlink" x="0px" y="0px" viewBox="0 0 2000 2000"
	 enable-background="new 0 0 2000 2000" xml:space="preserve">
<g>
	<path opacity="0.3" fill="#05132B" enable-background="new    " d="M1313,1722c-21,12-103,31-122,30s-120-14-130-12s-22,9-28,20
		s-59,64-75,70s-43,27-65,23s-61-1-68-15s-38-34-48-35s-70,8-80,5s-46-17-51-25s-27-33-13-50s94-22,94-22l405-18L1313,1722z"/>
	<g>
		<path fill="none" d="M1029.9,1519.5c3.7-0.2,7.4-0.5,11.2-0.9l-6.2-0.8L1029.9,1519.5z"/>
		<path fill="#31323C" d="M1165.6,1597.8c-0.1-0.4-0.2-0.8-0.3-1.2l-0.1-1.8c-0.4-1-0.9-1.9-1.3-2.8c-3.7-8.1-4.8-10.2-5.2-13.9
			c-0.2-1.4-0.1-2.6,0.1-4.6c0.4-3.7,1.5-10.1,3.6-25.9c3.1-24.2,5.7-44.1,5.9-48.4c0-0.3,0-0.7-0.1-0.9c-0.5-2.9-4.8-0.5-11.7,1.6
			c-7.6,2.3-27,2.8-43.2,2.7s-33.1-5.4-33.1-5.4l-1.4,11.9c0,0-7.3,4.4-28.1,8c-0.8,0.1-1.6,0.2-2.3,0.4c-2.1,0.3-4.2,0.6-6.3,0.9
			l-0.8,0.1c-3.7,0.4-7.5,0.7-11.2,0.9l-0.7,0c-14,0.7-27.6,0.1-37.5-0.5c-1-0.1-2-0.2-3-0.3c-13.5-1.6-23.5-7.5-23.5-7.5
			s-16.9,16-34.9,26.9c-18,10.9-43.6,25.8-63,25.4s-33.9-2.8-33.9-2.8l-17.4,40.1c0,0-9.8,10.9,28.7,29.9
			c6.7,3.3,14.7,6.8,24.6,10.5c66.8,25.4,217.7,9.7,217.7,9.7l78.9-40.6l-0.5-10.1C1165.7,1599.6,1165.8,1598.7,1165.6,1597.8z"/>
		<path opacity="0.3" fill="#05132B" enable-background="new    " d="M1156.4,1500c-7.6,2.3-27,2.8-43.2,2.7s-33.1-5.4-33.1-5.4
			l-1.4,11.9c0,0-7.3,4.4-28.1,8c-0.8,0.1-1.6,0.2-2.3,0.4c2.5,7.1,1.7,14.9,0.9,22.5c-1.2,11.4-3.1,22.7-4.3,34.1
			c-1.2,11-1.8,22.1-0.6,33.1c0.1,1.2,0.3,2.3,0.5,3.4c0,0,0,0,0,0c0,0.2,0,0.5,0,0.7c0.4,2.8-0.6,6-1.9,9.1
			c-3.7-7.2-5.2-15.1-4.6-23.2c0.7-9.3,1.9-18.6,2.9-27.9c1-9.3,2.2-18.7,2.7-28c0.4-7.4,0.8-15.8-1.9-22.9c-0.3,0-0.5,0.1-0.8,0.1
			c3.3,8.2,2.2,18.3,1.4,26.8c-0.8,9.3-1.9,18.7-2.9,28c-0.5,4.8-1,9.5-1.5,14.2c-0.5,4.5-1.1,9-1.1,13.5c0,7.2,1.9,14.3,5.2,20.6
			c-1.2,2.6-2.7,5.1-3.8,7c-1.6,2.8-4,5.5-6.6,7.9c-2.2-7.2-4.5-14.3-5.1-21.8c-0.6-7.9-0.2-15.9,0.3-23.9c1-16.4,2.8-32.8,3.6-49.3
			c0.2-4.5,0.4-9,0.3-13.5c-0.1-2.9-0.2-5.9-1.1-8.7c-0.2,0-0.5,0-0.7,0c1,4.2,0.9,8.5,0.8,12.9c-0.1,5.2-0.4,10.4-0.7,15.6
			c-0.7,10.4-1.6,20.8-2.4,31.2c-0.8,10.3-1.6,20.6-1.4,30.9c0.2,9.6,2.8,18.4,5.4,27.5c-1.3,1.1-2.6,2.2-3.9,3.2
			c-4.5,3.3-10.6,6.4-16.3,6.2c-0.9,0-1.8-0.1-2.7-0.3c-1.5-7.3-3.2-14.6-4.3-22c-1.2-8.4-0.5-16.8,0.3-25.2
			c1.6-16.7,3.8-33.4,4.8-50.2c0.6-9.6,0.6-19,0-28.6c0-0.3-0.5-0.3-0.5,0c0.7,17.1-0.7,34.3-2.5,51.2c-0.9,8.4-1.9,16.7-2.7,25.1
			c-0.8,8.3-1.8,16.7-1,24.9c0.9,8.2,2.7,16.3,4.4,24.4c-4.4-0.8-8.9-2.5-13.2-3.4c-1.1-0.2-1.9,1.4-0.8,1.9c6,3,13.1,7,19.9,6.9
			c6.8-0.1,13.9-3,19.5-6.8c5.9-4.1,11-9,14.2-15.5c1.9-3.9,3.9-7.6,5-11.6c0,0,0,0,0,0c4.4,2.5,9.3,4.5,13.8,6.7
			c1.4,0.7,2.8,0.5,3.9-0.1c1.6,0.9,3.3,1.8,4.7,2.7c4.1,2.6,8.3,4.3,13.2,4.8c11.2,1.1,23.5-1,34.5-3.3c9.5-2,17.4-5.6,23.4-13.5
			c3.4-4.5,6.4-9.4,9.5-14.2c1.1-1.7,2.1-3.5,3.3-5.2c0.3,1.4,0.7,2.7,0.9,3.8c0.9,3.8,5.9,3.2,7.2,0.5l-0.2-3.7
			c-0.4-1.3-0.9-2.8-1.3-4.5c-3.7-8.1-4.8-10.2-5.2-13.9c-0.2-1.4-0.1-2.6,0.1-4.6c-3,2.9-3.6,7.9-3.1,13.1l0,0
			c-0.3,0.3-0.6,0.5-0.9,0.8c0.1-14.6,0.3-29.2,2.4-43.7c1.1-7.5,2.5-15,3.2-22.6c0.4-4.2,0.7-8.4,0.9-12.6c0.2-2.7,0.4-5.5,0.4-8.2
			c2.2-0.6,4.4-1.2,6.5-1.9C1167.6,1495.5,1163.4,1497.9,1156.4,1500z M1092.1,1624.5c-2.5,0-4.7-0.2-6.9-0.6
			c-0.2-0.7-0.4-1.5-0.7-2.2c-0.6-1.8-1-3.8-1.6-5.6c4.6-7.1,8.2-14.3,8.9-23c0.8-10.4,0.5-20.8,1.2-31.2
			c0.7-10.7,1.9-21.3,3.4-31.9c1-7,1.6-15,3.5-22.2c0.4-0.4,0.8-0.7,1.2-1c2-1.5,4.2-1.7,6.6-1.5c-2.8,5.8-2.3,13.1-2.6,19.3
			c-0.4,8.5-0.7,17-1.2,25.5c-0.9,16.9-4,33.7-3.8,50.7c0.1,7.6,0.3,15.7,1.7,23.3C1098.6,1624.2,1095.3,1624.4,1092.1,1624.5z
			 M1124.4,1619.9c-6.8,1.9-13.9,3.2-21.1,3.9c-0.8-6.6-1.8-13.1-2-19.8c-0.3-8.1,0.1-16.2,1-24.2c1.8-16.3,2.9-32.6,3.7-49
			c0.2-4.6,0.4-9.2,0.7-13.7c0.2-4.1,0.5-8.1,2-11.9c1.1,0.1,2.2,0.3,3.3,0.3c6,0.5,12,0.8,18,0.7c-0.4,19.7-2.1,39.3-3.9,58.9
			c-0.9,10-2.3,20.2-2.3,30.2c0,7.8,2.4,15.4,4.7,22.9C1127.2,1619,1125.8,1619.5,1124.4,1619.9z M1129.8,1617.7
			c-0.8-2.7-1.6-5.5-2.3-8.2c-1.4-5-2.6-9.8-2.5-15c0.1-10.1,1.3-20.2,2.2-30.2c1.6-19.3,4.1-38.6,3.9-58c0.8,0,1.5-0.1,2.3-0.1
			c5.3-0.3,10.4-1,15.6-2.3c-1.5,16.3-2.3,32.7-3.5,48.9c-1,15.1-2.7,31,0.8,45.9C1141.3,1606.1,1137.2,1613.5,1129.8,1617.7z
			 M1160.4,1507.6c-0.2,4.2-0.5,8.4-0.9,12.6c-0.8,8.3-2.4,16.5-3.5,24.7c-2.1,14.4-2.4,29.1-2.3,43.6c-2.5,2.6-4.5,5.8-6.5,8.7
			c-2.6-15-1.6-30.1-0.6-45.4c1.1-16,2.5-32.1,3.2-48.2c1.2-0.3,2.4-0.6,3.6-1c2.4-0.7,4.8-1.4,7.3-2.1
			C1160.6,1503,1160.5,1505.3,1160.4,1507.6z"/>
		<path opacity="0.3" fill="#05132B" enable-background="new    " d="M903.6,1643.8c0.3,0.4,0.8,0.8,1.5,0.9
			c10.7,2.2,21.5,3.6,32.5,4.5c10.5,0.8,21.9,1.8,32.4,0.8c2.5-0.2,4.5-2.7,3.4-5.1c1-0.4,1.6-1.4,1.1-2.6
			c-3.6-8.8-11.7-15.1-20.6-18.4c-1.2-0.5-2.5-0.8-3.8-1.2c0.5-9,3-17.8,4.4-26.8c1.3-8.5,2-17.1,2.3-25.7
			c4.2-2.8,7.2-6.3,10.3-10.9c4.4-6.6,8-13.6,10.8-21c0.7-1.8,1.3-4.5,2.1-7.4c1-2.6,2.2-5.1,4.3-7.4c0-0.1,0.1-0.1,0.2-0.2
			c-1.5,8.3-2.3,16.9-3,25.3c-0.9,10.1-1.5,20.3-1.6,30.4c-0.1,4.9,0,9.9-0.3,14.8c-0.3,5.2-1.1,10.4-1.5,15.7
			c-0.8,9.7-1.1,19.9,0.3,29.6c0.1,0.6,1,0.4,1-0.1c-0.4-10.2-1-20.2,0-30.4c0.4-4.9,1.1-9.8,1.4-14.7c0.3-4.9,0.3-9.9,0.3-14.8
			c0.2-9.8,0.6-19.7,1.5-29.5c0.8-9.2,2.1-18.4,3.2-27.6c1-1.1,2.2-2.2,3.3-3.2c-13.5-1.6-23.5-7.5-23.5-7.5s-16.9,16-34.9,26.9
			c-18,10.9-43.6,25.8-63,25.4s-33.9-2.8-33.9-2.8l-17.4,40.1c0,0-9.8,10.9,28.7,29.9c1.7,0.5,3.4,0.9,5.1,1.3
			C867.7,1636.2,885.6,1640.2,903.6,1643.8z M930.3,1603.2c0.6-7.6,1.2-15.2,1.8-22.8c6.7-1,14.1-4.9,19.6-7.5
			c1.4-0.7,2.7-1.4,3.9-2.1c-0.3,9.1-1.2,18.2-2.8,27.1c-1.4,8-3.9,16.2-4.3,24.4c-3.1-0.6-6.3-0.8-9.5-0.4c-2.2,0.3-4.9,1.7-7,1.5
			c-1.1-0.1-2.3-0.9-3.5-1.5C929.9,1615.9,929.8,1609.1,930.3,1603.2z"/>
	</g>
	<path fill="#3E3F49" d="M898.6,1612c-0.2-0.2-0.5-0.4-0.9-0.5c0,0.2-0.1,0.5-0.2,0.7C897.8,1612.2,898.2,1612.1,898.6,1612z"/>
	<path fill="#44FF53" d="M848.5,1614.4c-3.2-1.8-6.9-4.2-10.4-5.5c2.2-0.1,5,0.5,7.6,2.8C846.8,1612.7,847.6,1613.6,848.5,1614.4z"
		/>
	<path fill="#3E3F49" d="M1159.8,1588.8C1159.8,1588.8,1159.8,1588.7,1159.8,1588.8c-0.4,0.1-0.8,0.3-1.2,0.6
		c0.4-0.1,0.8-0.2,1.2-0.3C1159.8,1589,1159.8,1588.9,1159.8,1588.8z"/>
	<path fill="#3E3F49" d="M1315,1695.9C1315,1695.9,1315,1695.8,1315,1695.9C1315,1695.9,1315,1695.9,1315,1695.9
		C1314.9,1695.9,1314.9,1695.9,1315,1695.9z"/>
	<path fill="#3E3F49" d="M1181.2,1626c-0.1,0-0.1,0-0.2,0C1181,1626,1181.1,1626,1181.2,1626C1181.1,1626,1181.2,1626,1181.2,1626z"
		/>
	<path fill="#3E3F49" d="M973.6,1666.8c0-0.1,0.1-0.1,0.1-0.2c0,0,0,0,0,0C973.6,1666.8,973.6,1666.8,973.6,1666.8z"/>
	<path fill="#3E3F49" d="M973.9,1666.4c0,0.1-0.1,0.1-0.2,0.2c0,0,0,0.1,0,0.1C974,1666.4,974,1666.3,973.9,1666.4z"/>
	<path fill="#3E3F49" d="M973.8,1666.5c0,0-0.1,0.1-0.1,0.2C973.7,1666.6,973.7,1666.6,973.8,1666.5
		C973.7,1666.6,973.8,1666.5,973.8,1666.5z"/>
	<path fill="#3E3F49" d="M973.7,1666.7c-0.1,0.1-0.1,0.1-0.2,0.2C973.5,1666.8,973.6,1666.7,973.7,1666.7
		C973.7,1666.7,973.7,1666.7,973.7,1666.7z"/>
	<path fill="#3E3F49" d="M1167.2,1714.7c1.1-0.6,1.9-1.2,2.6-1.9c-0.8,0.8-1.8,1.4-2.8,1.9
		C1167.1,1714.8,1167.1,1714.7,1167.2,1714.7z"/>
	<path fill="#3E3F49" d="M781.8,1678.8L781.8,1678.8C781.8,1678.8,781.8,1678.8,781.8,1678.8
		C781.8,1678.8,781.8,1678.8,781.8,1678.8z"/>
	<path fill="none" d="M804.9,1607.1c-0.6,0.6-1.2,1.1-1.8,1.7c0.6-0.2,1.1-0.2,1.6-0.3c0-0.1,0-0.1,0-0.2
		C804.8,1607.9,804.8,1607.5,804.9,1607.1z"/>
	<path fill="#44FF53" d="M802.8,1685.6c-0.4-0.8-1.5-1.1-2.2-0.6c-0.8,0.5-1,1.4-0.6,2.2c0,0.1,0,0.1,0.1,0.2c0.3,0.8,1.6,1,2.3,0.6
		c0.8-0.5,1-1.4,0.6-2.3C802.8,1685.7,802.8,1685.7,802.8,1685.6z"/>
	<path fill="#44FF53" d="M825.2,1664.2c-0.8,0-1.5,0.7-1.5,1.5s0.7,1.5,1.5,1.5c0.8,0,1.5-0.7,1.5-1.5S826,1664.2,825.2,1664.2z"/>
	<path fill="#44FF53" d="M841.7,1641.2c-0.9,0-1.8,0.8-1.7,1.7c0,0.9,0.8,1.7,1.7,1.7c0.9,0,1.8-0.8,1.7-1.7
		C843.3,1641.9,842.6,1641.2,841.7,1641.2z"/>
	<path fill="#44FF53" d="M973.7,1666.7C973.7,1666.7,973.7,1666.6,973.7,1666.7C973.7,1666.6,973.7,1666.6,973.7,1666.7
		C973.6,1666.7,973.6,1666.7,973.7,1666.7C973.7,1666.7,973.7,1666.7,973.7,1666.7z"/>
	<path fill="#44FF53" d="M983.1,1717.2C983.1,1717.2,983.1,1717.2,983.1,1717.2c-1.2,0.4-1.7,1.8-0.8,2.7s2.3,0.4,2.7-0.7
		c0,0,0-0.1,0-0.1C985.4,1718,984.2,1716.9,983.1,1717.2z"/>
	<path fill="#44FF53" d="M994.5,1695.6C994.5,1695.6,994.5,1695.6,994.5,1695.6c-1,0.6-1.1,1.8-0.4,2.5s2,0.6,2.5-0.3
		c0,0,0-0.1,0.1-0.1C997.4,1696.3,995.9,1694.8,994.5,1695.6z"/>
	<path fill="#44FF53" d="M1005.4,1673.6c-1.7,0-1.7,2.6,0,2.6C1007.1,1676.2,1007.1,1673.6,1005.4,1673.6z"/>
	<circle fill="#44FF53" cx="1143.5" cy="1634" r="1.4"/>
	<path fill="#44FF53" d="M1154.9,1647.2c0.1,0.1,0.2,0.1,0.4,0.2c1,0.5,2-0.7,1.2-1.6c-0.1-0.1-0.2-0.2-0.2-0.3
		c-0.4-0.5-1.3-0.4-1.6,0.1C1154.2,1646,1154.3,1646.9,1154.9,1647.2z"/>
	<circle fill="#44FF53" cx="1169.4" cy="1656.1" r="1.5"/>
	<path fill="#44FF53" d="M1236.9,1626.5c0.2,0.3,0.4,0.5,0.6,0.7C1237.4,1626.9,1237.2,1626.7,1236.9,1626.5z"/>
	<path fill="#3E3F49" d="M1039.5,1632.7c5.2-12.1,3.7-17.9,6-21.5s6.1-2.9,7.7-0.6c1.6,2.3,0.3,2.8,3.6,5.1s14.6,9.6,25.4,11.7
		c10.9,2.1,31.9-0.4,44-5.1c12.1-4.7,19.1-11.1,24-20.3c4.9-9.1,7.3-13.7,11.8-13.9c0,0,0.8-9.5,9-10.7s14.4,5.1,18.9,10.5
		c0,0,8.3-0.8,16.4,7.6s16.9,19.5,23.9,25c6.9,5.5,8.2,7,8.2,8.6c0,0,10.8,2.9,29.2,13.2s21.1,10.1,32.2,20.1s16.9,14.9,16.8,20.2
		c-0.2,5.3-0.3,12.6-4.2,20.2c0,0,5.2,0.5,6.9,3.9s0,15.8,0,15.8s-6.9,3.8-21.5,7.3s-35.8,8.6-69.7,10.8s-51.7,3.5-79.2,1.4
		s-38.5-5.4-51.7-8.6s-26.8-8-26.8-8s-0.8,3.8-1.6,6.3s-7.1,0.8-13.4,0.5l-12,14.3l-9.2,0.4c0,0-3.4,7.8-11.4,20
		c-8,12.2-12.6,15.7-30.6,30.3s-35.7,27.6-45.7,32c-10,4.4-24.5,13.2-46.2,16.7s-49.5-2.1-62.3-8.4c-12.8-6.3-15.7-11.5-16.2-18.2
		s-4-20.1,3.2-22.7c0,0,0.5-11.3,2.3-13.1c0,0-15.3,6.6-33.5,11.2c-18.2,4.6-47.5,10.7-72.5,10.8c-25,0.2-43.5-4.2-51.2-11.8
		c-7.6-7.6-8.9-7.3-9.4-9.5c-0.5-2.2-1-16.4,0-19s3-3.6,3-3.6s-2.1-5.4-4.1-16.2s3.5-17.5,14-26.8c10.5-9.2,19.6-16.8,25.9-24.3
		s10.9-13.4,13-15.8s8.1-2.7,8.1-2.7s18.7-19.1,32.1-31.7c13.5-12.6,31.2-26.2,40-31.2c8.8-4.9,12.6-5.6,14.8-4.6c0,0-1.5-7,7.6-9.6
		c9.1-2.6,15,2.6,18.6,10.6c0,0,6.5-3.1,12,1.9c5.5,5,6.1,8.7,22.4,8.8s25.2-7.3,28-8.7s3.3,1.9,3.3,1.9s4-1.9,6.1,0.5
		c2.1,2.3,1.2,4,0.4,6.5s0.3,5.5,0.3,5.5s6.3,1.3,10.9,7.4c0,0,15-12.5,29.8-9.2s22,14.7,22,14.7s3.9-7.5,13.5-5.7
		s11.1,11.5,27,14.4C1025.2,1650.8,1038,1636.3,1039.5,1632.7z"/>
	<path opacity="0.3" fill="#05132B" enable-background="new    " d="M1068.7,1731.9c0.8-2.6,1.6-6.3,1.6-6.3s13.6,4.8,26.8,8
		s24.1,6.5,51.7,8.6s45.2,0.8,79.2-1.4s55.2-7.4,69.7-10.8c13.6-3.2,20.5-6.8,21.4-7.2c-33.1,11.9-68.4,13.6-103.3,15.6
		c-36.1,2.1-72.6,2.3-108.1-4.9c-9.8-2-19.5-4.5-29.1-7.6c-2.2-0.7-5.6-1.8-8.3-1.5c-0.1,0-0.1,0-0.2-0.1c-1.2-0.3-2.8,0.4-3.2,1.7
		c-0.5,0.7-0.8,1.5-0.9,2.7c0,0.4,0.1,0.7,0.4,0.9c-0.1,0.7-0.2,1.4-0.2,2.2c-1.4,0-2.7-0.2-3.4-0.9c-1.7-1.9-0.8-8.3-0.9-10.9
		c-0.1-3.3-0.2-6.9-0.5-10.4c6.7,1.6,13.7,2.4,20.3,3.6c9,1.6,18,3.1,27.1,4.5c18,2.8,36,4.9,54.2,6.4c35.3,2.9,71.3,3.6,106.2-2.9
		c3.6-0.7,7.2-1.4,10.7-2.3c1.7-0.2,3.5-0.5,5.2-0.8c5.1-0.9,10.2-1.8,15.2-2.8c4.6-1,7.9-2.9,12-4.7c0.6-0.3,0-1.4-0.6-0.8
		c-2.4,1.9-6.3,2.8-10,3.3c1.4-0.5,2.8-1.2,4.1-2.2c2.6-1.8,5.2-4,7.2-6.5c0.3-0.2,0.7-0.5,1-0.8c-1-0.2-1.7-0.3-1.7-0.3
		c1.2-2.4,2.1-4.7,2.7-7c0,0,0,0,0,0c0,0,0-0.1,0.1-0.1c0.7-2.7,1.1-5.3,1.2-7.7c0,0,0,0,0,0c-2,1.1-2.8,2.5-3.8,4.5
		c-1.6,3.1-3.1,5-6,6.9c-5.7,3.7-11.8,7.1-18,9.9c-10.9,4.9-23,7.2-34.9,9.4c-11.8,1.1-23.6,1.5-35.3,1.8c-6.5,0.2-12.9,0.2-19.4,0
		c-2.8-0.5-5.6-1.2-8.2-2.2c-3.9-1.5-7.4-4.1-10.2-7.3c-2.3-2.6-4.7-5.9-5.8-9.3c0.9-4.2,1.6-8.3,2.5-12.5
		c1.3-5.8,4.2-11.3,7.1-16.4c6.1-10.6,14.5-17.9,23.5-25.9c2.8-2.5,5.8-5.2,8.9-7.7c1.2,0.4,1.9-0.5,1.9-1.5
		c4.8-3.7,10-6.9,15.7-8.6c0.2,0,0.4-0.1,0.5-0.2c0.6-0.2,1.2-0.3,1.9-0.5c0.8-0.2,0.9-0.8,0.8-1.4c-0.2-0.2-0.4-0.5-0.6-0.7
		c-0.2-0.1-0.5-0.1-0.7-0.1c0,0-0.1,0-0.1,0c-0.2-0.3-0.4-0.7-0.8-0.9c-3.1-1.8-6.1-3.7-9-5.7c-0.5-1-0.8-1.1,0.7-1.4
		c0.2,0,0.3-0.1,0.4-0.2c-0.8-0.8-1.7-1.6-2.6-2.5c-1.1,0.4-1.6,1-1.7,1.8c-4-3-7.9-6.2-11.7-9.5c0.9-1.1,2.2-1.7,3.9-1.9
		c0.3,0.1,0.5,0.1,0.7,0c-0.8-0.9-1.7-1.8-2.5-2.8c-1.2,0.3-2.2,1.3-3.5,2.2c-0.3,0.2-0.5,0.4-0.7,0.6c-0.1-0.1-0.2-0.2-0.3-0.3
		c-3-2.7-5.9-5.4-8.8-8.2c1.2-1.8,3.7-2.3,5.7-2.6c-0.9-0.9-1.9-1.8-2.8-2.5c-2,0.4-3.7,1.5-4.7,3.2c-2.6-2.6-5.1-5.2-7.4-8
		c-0.6,0-1,0-1,0c-1.9-2.2-4-4.6-6.4-6.5c-0.1,0.3-0.1,0.6,0.1,0.9c3.1,4.8,5.6,9.8,9.5,14.1c-4.4,0.1-8.7,1.9-12,5.3
		c-1.2,1.2-1.9,2.6-3,3.8c-0.3,0.4-0.6,0.6-0.9,0.8c-2.7-3.3-5.2-6.8-7.8-10.4c-1.2-1.6-2.3-3.7-3.9-5.2c0-0.7,0-1.5,0-2.2
		c0.7-2.2,1.8-4.3,2.8-6.4c0.4-0.8,0.9-1.9,1.4-2.7c0.8-0.7,1.7-1.3,2.8-1.8c0.5-0.2,1.1-0.3,1.6-0.4c-1-0.1-2.1-0.1-3.2,0.1
		c-8.2,1.2-9,10.7-9,10.7c-0.7,0-1.4,0.2-2.1,0.5c0,0,0,0.1,0,0.1c0,0.1,0,0.2,0,0.3c-0.4,0.1-0.8,0.2-1.2,0.3
		c-2.7,1.9-4.9,6.1-8.5,12.7c-4.9,9.1-11.9,15.6-24,20.3c-12.1,4.7-33.1,7.2-44,5.1s-22.2-9.5-25.4-11.7c-3.2-2.2-1.9-2.7-3.6-5.1
		s-5.4-3-7.7,0.6c-2.3,3.6-0.8,9.4-6,21.5c-1.5,3.6-14.4,18.1-30.2,15.2c-12.8-2.3-16.2-9.2-22.2-12.7c-1.9-0.5-3.8-0.8-5.9-0.7
		c-1,0.1-1,1.7,0,1.6c5.6-0.2,9.5,4.8,13.5,8c1.2,0.9,2.4,1.8,3.7,2.6c-1.5,8.1-2.9,15.8-5.5,23.7c-2.8,8.5-6,16.7-9.8,24.8
		c-3.5,7.2-6.5,14.2-10.9,20.9c-4.2,6.4-9.3,11.6-14.7,16.9c-6.5-3.9-13.6-7.1-20.7-9.7c5-2.6,8.7-8.1,11.6-12.7
		c1.2,0.6,2.3,1.3,3.4,2c-0.1,0.7,0,1.3,0.3,1.8c0.8,1.2,2.2,1.1,3.2,0.4c0.8-0.6,1.3-1.4,1.3-2.5c-0.1-1.2-0.9-1.9-2.1-2.1
		c-0.1,0-0.2,0-0.2,0c-0.1-0.1-0.3-0.1-0.5-0.2c-0.5-0.1-1.1,0.1-1.5,0.6c-1-0.5-2.1-1-3.1-1.4c4.1-6.5,7.4-13.5,10.3-20.7
		c0-0.1,0.1-0.2,0.1-0.3c0,0,0.1,0,0.1,0c0.1,0.6,0.3,1.1,0.8,1.6c0.8,0.9,2.2,1,3.3,0.6c1.2-0.5,2-1.8,1.7-3.2
		c-0.3-1.2-1.4-2.1-2.6-2.1c-0.4,0-0.8,0.1-1.1,0.4c0,0-0.1,0-0.1,0c-0.3,0-0.7,0-1,0.2c2.6-6.7,4.8-13.6,6.9-20.5
		c0.8,0.4,1.4,1,2.1,1.7c0.2,0.2,0.4,0.3,0.7,0.3c1,1.5,3.5,1.7,4.3-0.1c0.2-0.6,0.4-1.4,0-1.9c-0.1-0.2-0.3-0.3-0.4-0.5
		c-0.1-0.4-0.3-0.8-0.8-1c-1-0.4-2-0.4-2.8,0.4c-0.2,0.2-0.4,0.5-0.5,0.8c-0.6-0.6-1.3-1-2-1.4c2.2-7.8,4-15.8,6.7-23.4
		c0-0.1-0.2-0.2-0.2-0.1c-2.7,7.5-5.5,15-7.9,22.6c0,0.1,0,0.2-0.1,0.2c-0.7-0.2-1.3-0.4-2.1-0.6c0.5-2.2,1-4.5,1.5-6.8
		c0.9-4.8,1.5-9.8,3.8-14.2c2.1-4.1,5-6.3,8.7-8.1c-6.8,0.5-9.7,5.9-9.7,5.9s-7.3-11.4-22-14.7s-29.8,9.2-29.8,9.2
		c-4.6-6.1-10.9-7.4-10.9-7.4s-1.2-3-0.3-5.5s1.7-4.2-0.4-6.5s-6.1-0.5-6.1-0.5s-0.2-1.1-0.8-1.7c-0.4,0.1-0.7,0.1-1.1,0.2
		c0.1-0.2,0.2-0.4,0.2-0.7c-0.4-0.1-1,0-1.6,0.3c-2.8,1.4-11.7,8.8-28,8.7c-13.2-0.1-16.1-2.5-19.6-6.1c-3.2-1.8-6.9-4.3-10.4-5.5
		c-2.5,0.1-4.4,0.9-4.4,0.9c-2.2-4.8-5.2-8.7-9.3-10.3c0.1,0.2,0.2,0.3,0.3,0.5c2,2.8,4.5,7.3,2.7,10.5c-3.2,3.7-6,7.9-8.9,11.7
		c-0.7,0.9-1.3,1.7-2,2.6c-3.4-3-7.9-5.8-12.4-6.9c1.9-1.7,3.8-3.4,4.8-5.4c0.9-1.8,0.5-3.8,0.9-5.7c0.5-3,2.1-5.3,4.3-7.2
		c-7.9,2.8-6.5,9.3-6.5,9.3c-0.7-0.3-1.7-0.5-2.9-0.3c-0.5,2.6-2.4,3.9-4.3,5.7c-7.8,7.6-15.7,15.2-23.9,22.4
		c-1.3,1.1-2.5,2.2-3.8,3.3c0-0.1,0-0.1-0.1-0.2c-0.3-0.7-0.8-1.4-1.4-2c1.1-0.8,2.2-1.7,3.3-2.6c3.4-2.8,6.6-5.8,9.8-8.8
		c6.3-5.8,12.6-11.6,18.8-17.5c-1.3,0.3-2.9,0.9-4.8,1.8c-4.9,4.6-9.7,9.2-14.6,13.8c-4.5,4.3-9.2,8.3-14,12.2
		c-0.6-0.5-1.3-0.9-1.9-1.2c-0.7-0.4-1.6-0.8-2.5-1c4.6-3.6,9.3-7.1,13.3-11.3c-8.3,6.2-17.9,14.1-25.9,21.6
		c-13.5,12.6-32.1,31.7-32.1,31.7s-5.8,0.3-8,2.5c18.7,0.1,37.8,2.2,53.8,12.7c8.3,5.4,15.3,13.7,22.3,20.7
		c3.6,3.7,6.6,7.4,8.8,12.1c1.6,3.4,2.8,7.1,4.4,10.6c-0.7,0.9-1.4,1.8-2.2,2.6c-2.7,2.7-5.8,4.9-8.4,7.8c-4.4,4.9-7.7,11-8.8,17.5
		c-0.9,5.1-1,11.3,3.1,14.9c-3.1,0.7-6.2,1.2-9.3,2c-3.7,0.9-7.7,0.6-11.5,1.4c-4.9,1-9.6,1.8-14.6,2.2c-17.1,1.6-34.1,2.9-50.7-2.8
		c-7.5-2.6-14.7-5.6-20.3-11.5c-2.8-2.9-4.9-6.7-8.2-8c-1-5.1-1.7-10.5-2.2-15.6c-0.6-6.2,0-12.2,2.7-17.8c2.4-5,5.6-9.4,9.1-13.7
		c1.4-1.7,3.4-3.6,5-5.7c-3.8,3.4-7.9,6.9-12.2,10.7c-10.5,9.2-16.1,16-14,26.8s4.1,16.2,4.1,16.2s-2,1-3,3.6c-1,2.6-0.5,16.8,0,19
		c0.5,2.2,1.7,1.9,9.4,9.5c7.6,7.6,26.2,11.9,51.2,11.8c25-0.2,54.3-6.3,72.5-10.8c18.2-4.6,33.5-11.2,33.5-11.2
		c-1.7,1.7-2.3,13.1-2.3,13.1c-7.1,2.5-3.6,16-3.2,22.7s3.4,11.9,16.2,18.2c12.8,6.3,40.6,11.9,62.3,8.4
		c21.7-3.5,36.2-12.3,46.2-16.7c10-4.4,27.7-17.3,45.7-32s22.6-18.2,30.6-30.3s11.4-20,11.4-20l9-0.4c-0.4-3-1.4-6-1.5-9.1
		c-0.1-2-2.9-3-3.9-1.1c-1.4,2.7-2.8,5.5-4.1,8.3c0,0,0,0,0,0c-3,3.4-4.9,7.6-7.3,11.4c-2.4,3.9-4.9,7.8-7.5,11.7
		c-0.9,1.4-1.8,2.7-2.8,4.1c-0.3,0.2-0.5,0.4-0.8,0.7c-11.7,14.3-26.2,25.7-41.5,35.9c-15.4,10.2-31.4,21.3-48.9,27.7
		c-16.2,5.9-33.7,8.1-50.9,6.5c-8.7-0.8-17.3-2.6-25.6-5.4c-4.3-1.4-8.4-3.2-12.5-5.2c-2.2-1.1-4.4-2.4-6.7-3.5
		c-2.4-3.3-2.6-10.2-3.1-13.2c-0.4-2.7-1-5.8-0.1-8.5c0.2-0.5,0.4-0.9,0.6-1.3c1.4,4.9,3.3,9.6,6.9,13.5c5.9,6.4,14.3,10.3,22.1,14
		c8,3.7,15.8,5.8,24.6,5.4c5.2-0.2,10.5-0.8,15.8-1.3c3.5-0.4,7.8-0.7,10.9-2.3c8.7-2,17-5.2,24.7-9.8c17.2-10.2,33.2-22.6,49.6-34
		c7.7-5.3,15.2-11.1,22.2-17.3c7-6.2,11.7-13.7,17-21.3c5.8-8.4,11.7-16.8,17.4-25.4c3.8-5.7,7.8-11.4,11.6-17.2
		c0.1,0,0.2-0.1,0.3-0.1c0.4,1.2,0.6,2.4,0.6,3.7c0.2,1.6,0.2,3.2,0.2,4.7c0.1,3.1,0.3,6.2,0.4,9.3c0.1,3,0.4,5.8,1.3,8.5l3.1-3.7
		C1061.5,1732.7,1067.8,1734.5,1068.7,1731.9z M973.7,1666.7c0-0.1,0.1-0.1,0.1-0.2C973.8,1666.5,973.7,1666.6,973.7,1666.7
		c0.1-0.1,0.2-0.2,0.2-0.2C974,1666.4,974,1666.4,973.7,1666.7c0,0.1-0.1,0.1-0.1,0.2C973.6,1666.8,973.6,1666.8,973.7,1666.7
		c-0.1,0.1-0.1,0.1-0.2,0.2C973.5,1666.8,973.6,1666.7,973.7,1666.7z M792.7,1791.2c-2,0.6-4,1.2-5.9,1.7c-6.8,1.7-13.6,3-20.5,4.2
		c-14,2.6-28,4.3-42.2,5c-13.3,0.7-27,0.3-39.7-4.3c-5.1-1.9-10.1-4.5-14.5-7.8c-1.5-1.2-2.9-2.5-4.2-3.9c-0.4-4-0.2-8.2,0.5-12
		c0.2-1.3,0.5-4.4,2.3-4.7c0.7-0.1,3.6,1.6,4,1.9c2.3,1.6,4.4,3.7,6.7,5.4c10.1,7.4,20.8,12,33.3,13.7c15,2,29.5-0.6,44-3.7
		c3.7-0.8,7.5-1.5,11.2-2.5c1.3-0.4,2.5-0.6,3.8-1.2c2.9-1.2,4.8-1.5,7.8-2.2c2.8-0.7,5.3-1.5,8.1-2c2.1,0.9,4.8,0.6,5.6,2.3
		c0.7,1.5-0.4,5.3-0.4,6.9C792.7,1789.2,792.7,1790.2,792.7,1791.2z M1081.6,1698.3c-1.8,1.1-3.7,1.7-5.7,1.9
		c-2.8-0.2-5.6-0.3-8.3-0.7c-2.2-0.6-4.3-1.5-6.3-2.6c-1.3-4.2-2.6-8.1-2.8-12.7c-0.3-5.3,1.4-10,1.9-15.1c0.3-2.9-0.6-5.4-2.1-7.7
		c0.1,0.1,0.2,0.1,0.3,0.2c5,3.2,9.5,7.1,13.2,11.8c5.7,7.3,9.2,15.7,10.4,24.6C1082,1698.1,1081.8,1698.1,1081.6,1698.3z
		 M1167.2,1714.7c-0.1,0-0.1,0.1-0.2,0.1c1-0.6,1.9-1.2,2.8-1.9C1169.1,1713.6,1168.3,1714.2,1167.2,1714.7z M1231.1,1627.8
		c-5.3,1.8-9.7,4.8-14.1,8.3c-3.1-1.3-6.2-2.7-9.1-4.2c0.9-5,9-8.7,14.4-9.8C1225.2,1624.1,1228.1,1626,1231.1,1627.8z
		 M1219.5,1619.9c-5.2,1.4-10.6,4.6-12.9,8.8c-0.3,0.6-0.4,1.5-0.7,2.1c-4.6-2.5-9-5.4-13.2-8.7c0.4-6.3,9.2-11.5,15.1-11.8
		C1211.6,1613.7,1215.5,1616.9,1219.5,1619.9z M1179.2,1608.2c2.6-2.4,3.4-5.4,6.7-7.4c2.9-1.7,6.1-2.3,9.3-2c3.1,3.1,6.4,6.1,9.7,9
		c-1,0.2-1.9,0.4-2.8,0.8c-4.4,1.8-10.7,6.2-12,11.4c-4.2-3.5-7.9-7.4-11.3-11.5C1178.9,1608.5,1179,1608.3,1179.2,1608.2z
		 M943.4,1715.2c-2.3,3.1-5,5.3-8,7.6c-1-0.4-2.1-0.7-3.1-1.1c-0.2-0.1-0.4-0.1-0.6-0.2c4.1-3.6,7.2-8.4,10.1-13
		c0.9,0.2,1.9,0.3,2.8,0.6c0.9,0.2,1.7,0.6,2.5,0.9C945.9,1711.8,944.7,1713.5,943.4,1715.2z M899.3,1716.1c-1.4,0-2.8,0-4.2,0.1
		c0.2-5,0.9-10,1.7-15c0.8,0.2,1.7,0.3,2.5,0.3C898.8,1706.3,898.8,1711.2,899.3,1716.1z M897.2,1698.9c0.2-1.4,0.5-2.9,0.7-4.3
		c1-5.8,2.1-11.4,3.8-17c0.7,0,1.4,0,2.1-0.1c-1.8,6.9-3.4,14.2-4.2,21.4C898.8,1698.9,898,1698.9,897.2,1698.9z M905.1,1672.2
		c-0.2,0.7-0.4,1.4-0.6,2.1c-0.7,0.2-1.4,0.4-2.1,0.6c0.3-0.8,0.6-1.7,0.9-2.5c1.7-4.4,3.7-8.5,5.7-12.8
		C907.7,1663.8,906.3,1668,905.1,1672.2z M908.1,1676.4c1.9-0.7,3.8-1.5,6-1.8c6.7-0.9,14.1-0.8,20.8,0.6c5.7,1.2,11.5,3.7,15.9,7.6
		c0.6,0.5,1.1,1.1,1.7,1.7c-2.2,4.1-4.6,8.1-7.1,12.1c-1.7,2.7-3.4,5.3-5.2,8c-0.6-0.4-1.2-0.9-1.7-1.4c-3.7-3.5-8.2-5.8-13.1-7
		c-5.4-1.3-11-1.1-16.3,0c-1.7,0.3-3.3,1-4.9,1.6c0.6-6,1.6-11.9,3.1-17.8C907.4,1678.7,907.8,1677.5,908.1,1676.4z M903.8,1700.1
		c0.2-0.1,0.4-0.1,0.6-0.2c6.6-1.9,14.2-2.7,20.9-1c2.8,0.7,5.6,1.8,8,3.4c1.9,1.3,3.3,3.4,5.2,4.8c-0.3,0.5-0.7,1-1,1.5
		c-2.7,4.1-5.9,7.9-8.3,12.2c-8.4-2.6-17.1-4.1-25.9-4.5C903.2,1710.7,903.3,1705.4,903.8,1700.1z M949.4,1706.1
		c-0.5,0.9-1,1.7-1.6,2.6c-1.7-0.7-3.3-1.4-4.8-2.3c0.4-0.7,0.9-1.4,1.3-2c3.8-5.7,8-11.4,11.3-17.5c0.9,0.4,1.8,0.7,2.7,0.9
		C955.8,1694.1,952.9,1700.2,949.4,1706.1z M965,1664.3c0.4,0.1,0.8,0.2,1.2,0.3c-2.2,6.9-4.3,13.9-6.9,20.7c0,0,0,0,0,0
		c-0.5-0.2-1-0.4-1.5-0.6c-0.3-0.1-0.6-0.2-0.8-0.4c0.6-1.2,1.1-2.4,1.6-3.6c2.2-5.4,4.1-10.9,5.6-16.6
		C964.4,1664.2,964.7,1664.2,965,1664.3z M918,1644.8c1.8-5.5,3.2-11.2,8.5-14.3c4.4-2.6,10.7-3.9,15.8-4.1c5-0.2,9.7,1.2,14.2,3.4
		c2.5,1.2,4.8,2.8,6.6,4.8c0.3,0.3,0.6,0.7,0.9,1c0.2,0.4,0.4,0.9,0.5,1.3c0.5,1.7,0.5,3.9,1.1,5.6c-2,6-2.5,12.4-3.8,18.6
		c-0.1-0.1-0.1-0.1-0.2-0.2c-0.6-0.5-1.2-1.1-1.9-1.6c-0.9-0.8-1.9-1.5-2.8-2.2c-4.9-3.5-10.5-6-16.3-7.5c-5.8-1.4-12-1.8-18-0.9
		c-2.2,0.3-4.3,0.8-6.3,1.4C916.8,1648.4,917.4,1646.6,918,1644.8z M915.5,1652.3c1.5-0.4,3-0.9,4.5-1.2c6.3-1.2,12.9-1.2,19.2,0.3
		c5.7,1.3,11.2,3.7,16,7c2.1,1.5,3.9,3.5,6.1,4.9c-0.5,2.1-1.1,4.1-1.9,6.1c-1.7,4.4-3.7,8.6-5.8,12.7c-0.8-0.7-1.7-1.5-2.6-2.2
		c-4.4-3.5-9.3-5.8-14.7-7.1c-6.3-1.6-12.5-1.7-19-1.1c-2.8,0.3-5.6,0.6-8.3,1.3C911,1666,913.2,1659.2,915.5,1652.3z M890.8,1647.8
		c6.5-10.2,14.9-18.9,23.6-13.2c-0.9,2.2-1.2,4.6-1.7,6.8c-0.6,2.6-1.3,5.1-2.1,7.6c-0.3,1-0.6,2.1-1,3.1c-0.6,0.1-1.2,0.1-1.9,0.1
		c-0.8,0-1.6-0.1-2.5,0c-0.3-0.6-0.8-1.1-1.5-1.2c-0.6-0.1-1.3,0-1.7,0.4c-0.4,0.4-0.6,1.2-0.7,1.8c0,0.3,0.1,0.7,0.3,1
		c0.3,0.8,0.9,1.4,1.8,1.4c1.2,0.1,2-1,2-2.1c1.2,0.1,2.5,0.2,3.7,0.1c-1.2,3.8-2.6,7.5-4.2,11.2c-0.1,0.1,0,0.3,0,0.4
		c-1.5,3.3-2.9,6.7-4.1,10.1c-1,0.2-2.1,0.2-3.2,0.2c-0.2,0-0.3,0-0.4,0.1c-0.2-0.3-0.5-0.5-0.8-0.6c-0.1,0-0.3,0-0.4-0.1
		c0.3,0,0.2,0-0.1,0c-0.3,0-0.6,0.1-0.8,0.1c-0.6,0.1-1,0.9-0.8,1.5c0,0,0,0.1,0,0.1c-0.2,0.4-0.2,0.8-0.2,1.2
		c0,0.7,0.5,1.3,1.1,1.5c0.7,0.2,1.3-0.1,1.7-0.7c0.2-0.3,0.4-0.7,0.6-1.1c0.1,0,0.1,0,0.2,0.1c0.8,0.1,1.6,0.1,2.5,0.2
		c-1.9,6.4-2.9,13-3.9,19.6c-0.1,0.5-0.2,1.1-0.2,1.6c-1-0.1-2-0.2-3-0.2c0-0.1-0.1-0.2-0.1-0.3c-0.4-0.7-1.2-1.1-2-0.9
		c-0.5,0.1-0.9,0.5-1.1,0.9c-0.2,0.1-0.3,0.2-0.4,0.4c-0.6,1.2-0.3,2.3,0.5,3.3c0.6,0.7,1.8,0.6,2.4,0c0.4-0.4,0.7-1,0.8-1.5
		c0.8,0.1,1.7,0.3,2.5,0.5c-0.4,2.7-0.8,5.3-1.2,8c-0.3,2.4-0.7,4.9-0.6,7.3c-3,0.1-6,0.4-9,0.8c-3.5,0.5-7,1.2-10.4,2
		c-0.7-15.1,2.6-30.3,7.2-44.6c2.3-7.1,4.7-14.2,7.2-21.2C889.5,1651.4,890.1,1649.6,890.8,1647.8z M873.8,1719.2
		c-1.9,0.5-3.8,1-5.7,1.6c0-0.9-0.1-1.9-0.1-2.8c0-0.2,0.1-0.3,0.1-0.4c0.1-1.3,0.1-3,0-4.7c0.2-5.3,0.8-10.5,1.8-15.6
		c0.1-0.3,0.2-0.6,0.2-0.9c2-9.8,5.5-19.3,10.2-28.7c0.8-1.7,1.9-4,3.3-6.8c-1.5,4.6-3,9.2-4.4,13.9
		C874.8,1689.4,871.7,1703.9,873.8,1719.2z M799.9,1621.5c0.5-0.5,1-0.9,1.5-1.4c4.9,1,9.4,3.9,13.1,7.3c-5,6.6-10.1,13.1-15.2,19.7
		c-0.7,0.9-1.4,1.7-2,2.6c-1.1-2.6-4.3-4.5-6.7-5.6c-3.8-1.7-8.1-2.5-12.3-2.5C785.7,1635.1,792.8,1628.4,799.9,1621.5z
		 M775.4,1644.1c4.1-0.1,8.2,0.5,12.1,1.8c2.3,0.8,4.4,1.8,6.1,3.6c1.1,1.2,1.2,1.7,1.9,2.2c-6.2,7.4-13.4,14.1-21.3,19.7
		c-2-3.5-4.8-6.6-8.2-8.9c-1.9-1.3-3.9-2.4-6.1-3.1c-1.5-0.5-2.3-0.7-3.2-0.7C763.2,1654.2,769.4,1649.3,775.4,1644.1z
		 M768.9,1639.4c0.5,0.6,1.1,1.2,1.7,1.8c0.1,0.1,0.2,0.2,0.3,0.2c-6.2,5.3-12.5,10.3-19.2,15c-0.4-0.5-0.9-0.9-1.5-1.2
		c4.4-4.2,8.9-8.2,13.6-11.9C765.4,1642,767.1,1640.7,768.9,1639.4z M746.8,1651.3c4.8-5.1,10-9.9,15.4-14.4
		c0.2-0.2,0.5-0.4,0.7-0.6c1.1,0.5,2.5,0.6,3.6,1.2c0.4,0.2,0.8,0.5,1.1,0.8c-1.2,1-2.4,1.9-3.6,2.9c-5.3,4.2-10.4,8.8-15.2,13.5
		c-0.2-0.1-0.4-0.1-0.6-0.2c-1.1-0.4-2.3-0.7-3.5-0.8C745.3,1652.9,746.1,1652.1,746.8,1651.3z M748.9,1658.4c-2,1.4-4.1,2.7-6,4.2
		c0.7-0.8,1.4-1.6,2.2-2.3c0.9-0.9,1.8-1.8,2.7-2.7C748.2,1657.8,748.6,1658.1,748.9,1658.4z M732.2,1673c-1,1.1-2,2.1-3.1,3.1
		c0,0-0.1,0.1-0.1,0.1l0,0c-1.2-0.1-2.5-0.2-3.7-0.2c2.9-2.1,5-5.8,7-8.3c3.3-4.1,6.7-8.1,10.2-11.9c1,0.3,2.1,0.6,3.2,1
		c0.2,0.1,0.4,0.2,0.6,0.2c-0.1,0.1-0.2,0.2-0.4,0.4c-2.9,2.9-5.7,5.9-8.5,9c-1.4,1.6-2.7,3.1-4,4.7
		C733.2,1671.6,732.8,1672.3,732.2,1673z M734.2,1676.8c2.1-1.5,3.9-3.4,5.8-5.4c3.5-3.6,7.4-6.3,11.5-9.1c1.1-0.7,2.2-1.5,3.2-2.2
		c1.1,0.6,1.9,1,3.3,1.6c2.1,0.7,4.2,1.8,6,3c3.3,2.2,5.7,5.1,7.6,8.5c-5.4,3.6-11.2,6.6-17.3,9
		C748.1,1679.5,741.2,1677.7,734.2,1676.8z M767.6,1689.4c-3.1-2.3-6.6-4.3-10.2-6.1c6.6-2.1,13-5.1,18.9-8.9c1.1,0.5,2.2,1.7,3,2.7
		c-0.2,1.7,1.2,3.1,2.8,3.1c1.5,0,3-1.1,2.9-2.7c0-0.9-0.5-1.7-1.2-2.1c-0.5-0.3-1.1-0.4-1.7-0.3c-0.1,0-0.1,0-0.2,0
		c-0.3-0.1-0.7,0-1,0.1c-0.4,0.1-0.8,0.4-1,0.7c-0.3-0.2-0.6-0.5-0.9-0.8c-0.5-0.5-1-1-1.5-1.5c7.8-5.1,14.8-11.4,20.5-18.5
		c0.3-0.4,0.7-0.8,1-1.2c0.3,0.1,0.5,0.2,0.8,0.3c0.4,0.2,1.5,0.7,2.2,1.2c-0.2,0.6-0.2,1.2-0.1,1.8c0,0.2,0.1,0.4,0.3,0.6
		c0,0.1,0,0.2,0,0.3c0.2,1.3,1.9,1.7,2.9,1.2c1.9-1,2.7-3.7,0.7-5.1c-0.6-0.4-1.3-0.6-2.1-0.4c-0.9-0.8-2.1-1.3-3.3-1.8
		c5.2-6.6,10.2-13.5,15.3-20.2c0.6-0.8,1.3-1.7,1.9-2.5c0.4,0.1,0.7,0,1-0.5c0-0.1,0.1-0.2,0.2-0.3c1,0.1,1.7,0.8,2.4,1.6
		c-0.4,1-0.4,2.2-0.4,3.3c-0.1,1.9,2,2.8,3.5,2c1.8-0.9,3.1-3.8,1.6-5.4c-0.3-0.7-0.8-1.2-1.5-1.5c-0.3-0.1-0.6-0.2-0.8-0.2
		c-0.5-0.5-1-1-1.6-1.4c-0.6-0.3-1.2-0.6-1.8-0.7c2.3-2.9,4.5-5.8,6.8-8.8c1.2-1.6,2.5-3.2,3.8-4.6c3.9-1.8,8.2,1.2,11.8,3.8
		c-3.1,8.3-8.4,15.3-13.5,22.4c-5.1,7-10.2,14.1-15.7,20.7c-5.2,6.2-11.2,11.9-17.4,17.1c-7.5,6.2-15.5,11-23.7,16.2
		C770.7,1691.8,769.2,1690.6,767.6,1689.4z M781.8,1678.8C781.8,1678.8,781.8,1678.8,781.8,1678.8
		C781.8,1678.8,781.8,1678.8,781.8,1678.8L781.8,1678.8z M825.3,1716.3c-6.4,2.9-13.5,5.2-18.1,10.8c-1.2,1.5-2.2,3.1-3.2,4.7
		c-1.4-3-3.1-5.9-4.5-8.7c-2.1-4.3-4.7-7.9-8-11.4c-5.7-6-11.5-12.1-17.8-17.6c7.8-4.1,15.7-9,22.5-14.6c7.3-5.9,13.3-12.9,19.4-20
		c10.8-12.5,23-25.8,29.2-41.4c0.5,0.3,0.9,0.6,1.4,0.9c4.7,2.7,10.1,3.5,15.5,3.4c6-0.1,12.2-1.1,18-2.6c0.5-0.1,1-0.3,1.5-0.4
		c4.2,1.1,5.9,5.4,7,9.3c1.2,4.5,0.7,8.1-0.6,12.5c-1.6,5.6-5.1,10.8-6.5,16.5c-0.1,0.2-0.2,0.4-0.3,0.7c-1.4,2.7-2.8,5.4-4.1,8.3
		c-0.3,0-0.6,0.2-0.8,0.4c-4.1,6.7-5.9,14.6-10.2,21.2c-4.6,7-10.2,12.1-17.4,16.3C840.8,1709.1,833.1,1712.8,825.3,1716.3z
		 M985.5,1781.2c-0.2,1-0.5,2.2-1.1,3.2c-1.3,1-2.5,2-3.8,3c-14.7,12.2-30.9,23.9-47.6,33.2c-8.2,4.6-17,8.3-26.1,10.7
		c-0.8,0.2-1.6,0.4-2.5,0.6c-2.2-0.3-4.4-0.2-6.5-0.2c-3.9-0.1-7.9,0.1-11.8-0.1c-8.6-0.3-16.8-0.6-24.8-4.1
		c-7.2-3.1-14.9-6.7-20.8-11.9c-0.8-0.7-1.5-1.4-2.2-2.2c-7.8-14.7-5.4-31.6,0.3-46.7c3.2-8.6,7.4-16.7,11.2-25
		c1.5-3.3,2.6-8.2,4.8-11.1c0,0,0,0,0,0c2.3-1.3,4.6-2.6,7-3.6c6.6-2.9,13.5-5.2,20.6-6.6c14.7-2.7,29.7-1.4,44.1,2.5
		c10.5,2.8,20.9,6.7,30.2,12.5c0.2,0.4,0.6,0.6,1,0.6c2.6,1.7,5.1,3.5,7.4,5.5c5.8,5,10.3,11.2,14.4,17.6c3.1,4.8,6.2,10.5,7,16.4
		c-0.1,0.2,0,0.4,0.1,0.7c0,0.2,0,0.4,0.1,0.5C986.1,1778.2,985.8,1779.7,985.5,1781.2z M1028.6,1718.9c-0.5,2.4-1,4.9-1.4,7.4
		c-0.1,0.5-0.2,0.9-0.2,1.3c-0.7,3.2-1.4,6.5-2.4,9.8c-0.4,1.4-0.9,2.8-1.4,4.2c-0.1,0.2-0.1,0.3-0.1,0.5c-0.2,0.6-0.5,1.3-0.7,1.9
		c-0.9,1.2-1.8,2.5-2.7,3.7c-5,6.8-10.2,13.8-15.9,20c-2.6,1.9-6.9,5-10.3,6.6c-1,0.2-1.9,0.4-3,0.3c-0.2,0-0.3,0-0.5,0
		c-0.5-3.9-2.1-7.5-4.3-11.3c-4-6.8-8.4-13.7-13.9-19.3c-3.5-3.6-7.5-6.8-11.8-9.5c11.8-8.5,19.5-23.6,24.7-36.7
		c3.3-8.3,6.8-16.7,9.9-25c2.8-7.6,5.5-16.6,5.9-24.9c1.4,0.8,2.9,1.4,4.5,1.9c7.2,2.4,14.7,1.5,21.6-1.6c6.9-3.1,13.6-8,17.4-14.6
		c1.8-3.2,3.1-6.8,3.5-10.4c0.3-2.5-0.2-14.7,4.6-10c4.5,7.8,1.3,17.1-2.9,24.9c-1.5,2.8-4.8,5.2-5.7,8.1c-0.5,1.5,0.3,4.8,0.4,6
		c0.2,2.5,0.3,4.9,0.1,7.3c-0.1,0.3-0.2,0.6-0.4,1c-1.3,2.9-3,5.6-4.5,8.3c-2.5,4.7-4.1,9.6-5.2,14.8c-1.2,5.6-2.5,11.2-3.2,16.9
		c-0.8,6.1-1,12.2-2,18.2C1028.6,1718.9,1028.6,1718.9,1028.6,1718.9z M1036.4,1724.2c-2.4,3.4-4.8,6.8-7.2,10.2
		c0.4-2.5,0.7-5,1.1-7.2c0.2-0.9,0.3-1.8,0.4-2.7c3.2-0.9,6-2.5,8.5-4.5C1038.3,1721.4,1037.4,1722.8,1036.4,1724.2z M1045.1,1704.3
		c-1.8,3.6-3.8,7.6-6.7,10.4c-2.5,2.5-5.2,4.2-7.5,6.7c0.2-3.5,0.1-6.9,0.1-10.5c0.6-6.1,1.2-12.3,2-18.4c1.1-8.1,4.1-15.5,8.2-22.5
		c1.7-2.8,4.6-6.5,6-10.2c1.1,3.8,2.1,7.7,2.5,11.7c0.6,5.2,0.9,10.5,1.3,15.7C1049.6,1693.1,1047.9,1698.8,1045.1,1704.3z
		 M1052.6,1654.6c-1.8-2.7-2.3-6.1-3.2-9.2c0-0.1-0.1-0.1-0.1-0.2c0.7-0.7,1.4-1.3,2-2.2c2.9-3.8,5.2-8.5,7-12.8
		c1.3-3.2,1.7-6.4,1.2-9.4c3.9,3.1,8.7,5.1,14,6.1c12.3,2.4,26.1,3.9,38.6,3.3c10.6-0.5,22-4.8,29.9-11.8c3.9-3.4,7.1-7.6,9.7-12
		c2.3-3.8,5-8.5,6.3-13c1.5-0.9,3.2-1.2,5,0.1c1.5,1.1,3,3.9,4.2,5.3c2.2,2.8,4.3,5.7,6.5,8.4c-0.2,0-0.3,0.1-0.5,0.1
		c-1.9,0.5-3.5,1.6-4.7,3c0,0-0.1,0-0.1,0c0-0.1-0.1-0.1-0.1-0.2c-0.2-0.3-0.5-0.6-0.8-0.8c-0.3-0.3-0.5-0.6-0.9-0.8
		c-0.8-0.3-1.4,0-1.8,0.5c-0.2,0.1-0.3,0.3-0.3,0.5c-0.1,0.7-0.1,1.4,0.2,2.1c0.1,0.6,0.2,1.2,0.5,1.8c0.8,1.2,2.5,1.3,3.5,0.3
		c0.7-0.6,0.9-1.5,0.7-2.2c1.4-1.4,3-2.3,5.4-2.3c0.2,0,0.3,0,0.5,0.1c0.2,0.3,0.5,0.6,0.7,0.9c3.3,3.9,6.9,7.6,10.7,11
		c-1.6,0.4-3.1,1.2-4.4,2.3c-0.5-0.3-1.1-0.4-1.8-0.3h0c-0.5,0-0.8,0.2-1.1,0.6c-0.2,0.2-0.5,0.4-0.6,0.7c-0.4,0.7-0.3,1.6,0.1,2.2
		c0,0.1,0.1,0.2,0.1,0.3c0.4,1,1.2,1.6,2.3,1.6c1.1,0,2.1-0.8,2.3-1.9c0.2-0.5,0.1-1.1-0.1-1.7c1.6-1.4,3.8-2,5.9-1.6
		c4.1,3.4,8.5,6.4,13.1,9.1c-1.1,0.7-1.9,1.5-2.5,2.6c-1.1-0.5-2.6-0.2-3.1,0.9c-0.2,0.4-0.2,0.9-0.1,1.3c-0.3,0.8-0.3,1.8,0.4,2.5
		c1.2,1.2,3.2,0.8,4.1-0.7c0.5-0.9,0.5-2,0-2.9c0.8-1.3,1.9-2.2,3.3-2.6c3.1,1.7,6.2,3.2,9.5,4.6c-0.7,0.6-1.5,1.3-2.2,1.9
		c-6,5.3-12.6,10.5-18.2,16.4c-0.1-0.1-0.2-0.2-0.3-0.2c-8.9-4.6-17-11.4-24-18.4c-7.6-7.6-14.7-16.7-18.1-27.1
		c-0.5-1.5-2.9-0.9-2.4,0.7c3.3,9.9,11,19,17.8,26.7c7.4,8.3,15.8,14.5,25,20.5c-1.2,1.4-2.4,2.8-3.4,4.3
		c-6.1,8.5-9.9,18.5-13.6,28.2c-1.9,5-2.2,10.2-3.7,15.2c-1.8,6.1-8,7.9-13.6,9.9c-0.8,0-1.5,0-2.3,0c-8.7-0.1-17.2-1.6-25.6-3.2
		c-15-2.8-31-6.8-44.4-14.3c-1.3-8.8-4.7-17.2-9.7-24.5c-2.9-4.2-6.4-8.1-10.4-11.4c-3.8-3.1-8-5.3-12-8.1
		C1052.9,1655,1052.8,1654.8,1052.6,1654.6z M1181.2,1626C1181.2,1626,1181.1,1626,1181.2,1626c-0.1,0-0.2,0-0.2,0
		C1181.1,1626,1181.1,1626,1181.2,1626z"/>
	<path fill="none" d="M801.5,1687.3C801.5,1687.3,801.5,1687.3,801.5,1687.3C801.5,1687.3,801.5,1687.3,801.5,1687.3
		C801.5,1687.3,801.5,1687.3,801.5,1687.3z"/>
	<path fill="none" d="M775,1712.7c0.1,0,0.1,0,0.2,0c-0.1-0.2-0.2-0.4-0.3-0.6C774.9,1712.3,774.9,1712.5,775,1712.7z"/>
	<path fill="none" d="M842.3,1642.1c0,0.1,0,0.1,0,0.2C842.4,1642.2,842.4,1642.2,842.3,1642.1
		C842.3,1642.1,842.3,1642.1,842.3,1642.1C842.3,1642.1,842.3,1642.1,842.3,1642.1z"/>
	<path fill="none" d="M1156.2,1646.4C1156.2,1646.4,1156.2,1646.5,1156.2,1646.4C1156.1,1646.5,1156.1,1646.5,1156.2,1646.4
		C1156.2,1646.5,1156.2,1646.4,1156.2,1646.4z"/>
	<path opacity="0.3" fill="#05132B" enable-background="new    " d="M800.8,1687.4c0.1,0.1,0.3,0.2,0.4,0.2c0.6,0.2,1.1-0.3,1.1-0.9
		c0-0.7-0.6-1.2-1.3-1.2c0,0-0.1,0-0.2,0c0,0-0.1,0-0.1,0s-0.1,0-0.1,0s-0.1,0-0.1,0.1C799.8,1686.2,800.2,1687.2,800.8,1687.4z
		 M801.5,1687.3C801.5,1687.3,801.5,1687.3,801.5,1687.3C801.5,1687.3,801.5,1687.3,801.5,1687.3
		C801.5,1687.3,801.5,1687.3,801.5,1687.3z"/>
	<path opacity="0.3" fill="#05132B" enable-background="new    " d="M825.4,1665.2c-0.4,0-0.7,0.3-0.9,0.7c-0.1,0.2-0.1,0.4-0.1,0.7
		c0,0.4,0.2,0.8,0.7,0.9c0.9,0.2,1.6-0.6,1.3-1.3C826.3,1665.7,825.9,1665.2,825.4,1665.2z"/>
	<path opacity="0.3" fill="#05132B" enable-background="new    " d="M842.7,1641.4c-0.3-0.2-0.6-0.3-1-0.2c-0.4,0.1-0.7,0.3-0.8,0.7
		c0,0.1-0.1,0.1-0.1,0.2c-0.1,0.2-0.1,0.4-0.1,0.6c0,0.8,0.8,1.4,1.6,1.2c0.8-0.2,1.2-1,0.9-1.7
		C843.2,1641.7,842.9,1641.5,842.7,1641.4z M842.4,1642.3c0-0.1,0-0.1,0-0.2l0,0c0,0,0,0,0,0.1
		C842.4,1642.2,842.4,1642.2,842.4,1642.3z"/>
	<path opacity="0.3" fill="#05132B" enable-background="new    " d="M1004.1,1676.2c0.3,0.5,1,0.5,1.3,0.1c0.2,0,0.4-0.2,0.6-0.3
		c0.4-0.4,0.6-1,0-1.6C1004.9,1673.4,1003.4,1675.1,1004.1,1676.2z"/>
	<path opacity="0.3" fill="#05132B" enable-background="new    " d="M994.8,1695.9c-0.4,0.7-0.4,1.7,0.4,2.1c0.3,0.2,0.7,0.2,1,0.1
		c0.3,0,0.6-0.2,0.8-0.4c0.6-0.6,0.6-1.6,0-2.2C996.3,1695,995.3,1695.1,994.8,1695.9z"/>
	<path opacity="0.3" fill="#05132B" enable-background="new    " d="M984,1720.5C984,1720.5,984,1720.5,984,1720.5
		c0.4-0.2,0.6-0.3,0.7-0.6c0.1-0.2,0.2-0.4,0.2-0.7c0,0,0-0.1,0-0.1c0-0.2,0-0.3,0-0.4c-0.2-0.7-0.8-1.1-1.4-0.8
		c-0.2,0.1-0.5,0.2-0.7,0.4c-0.3,0.4-0.3,1.2-0.2,1.7C982.9,1720.5,983.5,1720.8,984,1720.5z"/>
	<path opacity="0.3" fill="#05132B" enable-background="new    " d="M1144.8,1633.3c-0.2-0.2-0.5-0.4-0.8-0.4
		c-0.7-0.1-1.4,0.5-1.5,1.2c-0.1,0.8,0.5,1.5,1.3,1.6c0.8,0.1,1.6-0.5,1.6-1.3C1145.2,1633.9,1145.1,1633.6,1144.8,1633.3z"/>
	<path opacity="0.3" fill="#05132B" enable-background="new    " d="M1154.9,1645.7c0,0,0,0.1-0.1,0.1c-0.3,0.4-0.4,0.9-0.1,1.4
		c0.6,0.9,2.2,0.4,2.3-0.7C1157.2,1645.4,1155.6,1644.7,1154.9,1645.7z M1156.2,1646.5C1156.2,1646.5,1156.2,1646.5,1156.2,1646.5
		C1156.2,1646.4,1156.2,1646.5,1156.2,1646.5L1156.2,1646.5z"/>
	<path opacity="0.3" fill="#05132B" enable-background="new    " d="M1171.1,1656.3c-0.1-0.6-0.6-1.1-1.3-0.9c0,0,0,0,0,0
		c-0.1,0-0.2,0-0.2,0.1c-1.3,0.6-0.6,2.6,0.8,2.2c0.5-0.2,0.8-0.6,0.8-1C1171.1,1656.6,1171.1,1656.4,1171.1,1656.3z"/>
	<path fill="#61646B" d="M1194.7,1629.4c-1.5-1-3.2-1.8-4.6-2.8c-0.3-0.2-0.6,0.2-0.3,0.4c2.5,2.3,5,5.5,8.3,6.7
		c0.8,0.3,1.3-0.8,0.8-1.4C1197.7,1631.1,1196.1,1630.2,1194.7,1629.4z"/>
	<path fill="#61646B" d="M1209.6,1639.2c-0.1-0.1-0.2-0.2-0.3-0.2c-1-0.9-2.2-1.8-3.5-2.1c-0.7-0.2-1.2,0.7-0.7,1.3
		c0.9,1,1.9,1.9,2.6,3.2c0.8,1.7,3.4,0.2,2.5-1.5C1209.9,1639.6,1209.8,1639.3,1209.6,1639.2z"/>
	<path fill="#61646B" d="M1301.2,1673.5C1301.2,1673.5,1301.2,1673.5,1301.2,1673.5c0-0.2-0.1-0.5-0.2-0.7c-1.2-2.4-2.9-4.6-4.8-6.6
		c-2.1-2.7-4.5-5.3-7.2-7c-0.2-0.1-0.4-0.2-0.7-0.3c-0.2-0.2-0.4-0.3-0.5-0.5c-0.8-0.8-2.4-0.5-2.6,0.7c-0.9,5.1-0.5,11.5-5.1,14.8
		c-3.5,2.5-8.3,2.5-11.8,4.9c-2.4,1.6-4.1,5.6-1.5,6.9c0,0,0,0,0,0c0.3,0.2,0.6,0.4,0.9,0.4c5.7,0.6,11.6-0.4,17.1-1.9
		c4.7-1.3,11.6-3.2,15.3-6.5C1301.7,1676.4,1301.8,1675,1301.2,1673.5z"/>
	<path fill="#61646B" d="M996.6,1714.5c-3.4,7.3-9.4,13.6-15.7,18.5c-1.4,1.1,0.2,3.2,1.7,2.9c0.1,0,0.2,0,0.2-0.1
		c0.3-0.1,0.5-0.2,0.7-0.5c3.3-2.2,6.3-5.2,8.6-8.4c2.9-4,3.9-7.6,4.9-12.3C997.1,1714.5,996.7,1714.2,996.6,1714.5z"/>
	<path fill="#61646B" d="M947.1,1757.5c-0.7,0.5-1.3,1-2,1.5c-0.2,0.2-0.4,0.3-0.6,0.5c-3.2,2.6-6.1,5.6-9,8.5
		c-2.8,2.2-5.8,4-8.8,5.8c-8.2,5.1-16.1,10.3-26,11.2c-4.2,0.4-8.5,0-12.7,0.3c-1.6,0.1-3.3,0.2-4.5,1.6c-0.7,0.8-0.9,1.7-0.8,2.5
		c-0.9,1-0.4,2.7,0.9,3.2c6.2,2.4,11.1,3.9,17.6,2.2c6.2-1.6,12.2-4.3,17.7-7.5c5.7-3.4,10.8-7.6,15.4-12.4c4.7-5,10-10.5,13.5-16.4
		C948.5,1757.9,947.7,1757.1,947.1,1757.5z"/>
	<path fill="#61646B" d="M783.2,1723.3c0.2-0.2,0.2-0.6,0.1-0.9c-1.7-4.1-3.5-8.3-6.3-11.7c-1.8-2.2-4.8-5-7.8-5.4
		c-0.6-0.4-1.4,0.4-1,1.1c0.1,0.2,0.2,0.4,0.3,0.6c-2.2,7.2-6.6,11.5-13.1,15.5c-1.4,0.9-2.9,1.6-4.4,2.3c-2,0.7-3.8,1.3-5,1.7
		c-4.9,1.4-10.5,2.1-15.8,3.5c-3.3,0.4-6.4,0.8-9.3,2.8c0,0,0,0,0,0c-0.5,0.2-0.9,0.4-1.4,0.8c-0.4,0.3-0.5,1-0.4,1.5
		c2,7,21.8-1.4,25.5-2.6c5.7-1.8,11.3-4.1,17.2-5.2c2.9-0.6,5.9-1,8.8-1.4c3.6-0.6,8.5-2.3,12-0.8c0.9,0.4,1.7-0.6,1-1.4
		C783.5,1723.6,783.4,1723.5,783.2,1723.3z M775,1712.7c0-0.2-0.1-0.4-0.1-0.5c0.1,0.2,0.2,0.4,0.3,0.6
		C775.1,1712.7,775,1712.7,775,1712.7z"/>
	<path fill="#61646B" d="M820.9,1688.5c-3.9,1.2-7.2,4.1-10.7,6.1c-4.4,2.5-9.1,4.4-14,5.9c-0.6,0.2-1.1,0.8-1.1,1.4
		c1,13.4,22.3-7.6,24.9-10.6c0.2-0.2,0.2-0.5,0.2-0.8c0.4-0.5,0.7-1,1-1.6C821.4,1688.8,821.2,1688.5,820.9,1688.5z"/>
</g>
</svg>
