<?xml version="1.0" encoding="utf-8"?>
<!-- Generator: Adobe Illustrator 23.0.1, SVG Export Plug-In . SVG Version: 6.00 Build 0)  -->
<svg version="1.1" id="_x32_8_x5F_Footwear_x5F_AdidasTracksuit"
	 xmlns="http://www.w3.org/2000/svg" xmlns:xlink="http://www.w3.org/1999/xlink" x="0px" y="0px" viewBox="0 0 2000 2000"
	 enable-background="new 0 0 2000 2000" xml:space="preserve">
<g>
	<path opacity="0.3" fill="#05132B" enable-background="new    " d="M678.4,1745.8c-22.4,5.7-28.3,11.4-29.8,20.9
		c-1.4,9.4,14.4,24.3,41.7,29.3s68.5,7,68.5,7s-5.5,6.3,14.6,12.4c20.1,6.1,60.9,16.9,102.2,19.8s79.2,0.9,102-17.2
		c22.8-18.1,32.7-28.1,50.7-54.2c18-26.1,20.8-23,31.3-27.7s10.7-5.1,14.9-4.9s21.9,1.8,37.1,5.5s52.5,12.5,99.6,11.5
		c47.1-1,53.4-3.3,68.5-11.1s16.1-9.3,2.2-15s-291.2-32.2-291.2-32.2L678.4,1745.8z"/>
	<g>
		<path fill="#E9F8FF" d="M1173.7,1439.2c-0.5-4.7-3.7-0.8-11.2,2.6c-7.5,3.4-14.9,6.6-44.2,7.1c-29.3,0.5-32.7-6.2-32.7-6.2
			l-0.8,9.4c0,0-17.6,5.6-44.6,10.5c-24.3,4.4-39.8,0-39.8,0s-4.5,9.7-12.9,22.2c-3.7,5.5-8.2,11.5-13.4,17.4
			c-2.7,3.1-5.6,6.1-8.7,9.1c-1.5,1.4-3.1,2.9-4.7,4.3c-4.8,4.2-9.6,8.2-14.6,12c-21.5,16.5-45.2,29-77.7,33.8
			c-16.1,2.4-36.1-0.7-36.1-0.7s-0.3,6.6-0.5,6.8l4.2,24.6l45.5,24.6l65.2,35.2l154.9-6.4l54.8-81.8l4.7-7c0,0,3.7-17.3,6.3-34.9
			c0.8-5.4,1.5-11.1,2.1-16.8c0.6-5.4,1.1-10.8,1.6-16c0.3-3.5,0.7-6.9,1-10.2c0.3-3.6,0.7-6.9,1-9.8c0.4-3.5,0.7-6.8,0.8-9.9
			C1174.3,1449.8,1174.1,1442.7,1173.7,1439.2z"/>
		<path fill="#D42E2D" d="M1085.2,1495.6l-1.8,7.9c0,0-13.2,14.1-56.2,15.9c-31.5,1.3-52.8-4.8-62-8.3c-1.5,1.4-3.1,2.9-4.7,4.3
			c-4.8,4.2-9.6,8.2-14.6,12c28.2,14.7,55,15.7,80.4,14.1c27.3-1.8,47.7-10.2,52.9-14.9l3.7-16.4c0,0,11.8,5.5,43.2,4.2
			c22.7-0.9,37-6.5,43.2-9.6c0.6-5.4,1.1-10.8,1.6-16c-5.6,3.2-18.4,9.4-34.4,10.2C1114.8,1500.2,1085.2,1495.6,1085.2,1495.6z"/>
		<path fill="#D42E2D" d="M1048.6,1506.4c28.3-3.3,36.8-12.9,36.8-12.9l1.5-10.8c0,0,3.7,7.6,46.6,5.3c19.6-1.1,31.4-5.1,38.5-9.3
			c0.3-3.6,0.7-6.9,1-9.8c0.4-3.5,0.7-6.8,0.8-9.9c-4.4,3.9-12.9,8.9-28.9,10.9c-28.1,3.5-46.8,1.5-58.2-6l-0.9,10.8
			c0,0-3.4,8.1-31,10.4c-22.9,1.9-56.7,0.2-67.4-0.4c-3.7,5.5-8.2,11.5-13.4,17.4C992,1507.4,1023.7,1509.2,1048.6,1506.4z"/>
		<path opacity="0.3" fill="#05132B" enable-background="new    " d="M1167.3,1521.6c0.8-5.4,1.5-11.1,2.1-16.8
			c0.6-5.4,1.1-10.8,1.6-16c0.3-3.5,0.7-6.9,1-10.2c0.3-3.6,0.7-6.9,1-9.8c0.4-3.5,0.7-6.8,0.8-9.9c0.5-9.1,0.3-16.2-0.1-19.7
			c-0.5-4.7-3.7-0.8-11.2,2.6c-7.5,3.4-14.9,6.6-44.2,7.1c-29.3,0.5-32.7-6.2-32.7-6.2l-0.8,9.4c0,0-17.6,5.6-44.6,10.5
			c-24.3,4.4-39.8,0-39.8,0s-4.5,9.7-12.9,22.2c-3.7,5.5-8.2,11.5-13.4,17.4c-2.7,3.1-5.6,6.1-8.7,9.1c-1.5,1.4-3.1,2.9-4.7,4.3
			c-4.8,4.2-9.6,8.2-14.6,12c-21.5,16.5-45.2,29-77.7,33.8c-16.1,2.4-36.1-0.7-36.1-0.7s-0.3,6.6-0.5,6.8l4.2,24.6l45.5,24.6
			c4,1.3,7.9,2.9,11.8,4.5c10.9,4.3,27.6,8.5,36.6-1.9c4-4.6,6.5-13.5,6.5-19.5c0-4.2-1.3-8.1-3.4-11.6c7-0.4,13.8-1.6,21,0
			c3.8,0.8,7.4,2.1,10.7,4.2c3.2,2,5.5,4.9,8.6,7.2c1.8,1.3,4-0.8,3.6-2.7c-1.9-7.3-10.4-12-17.4-14.4c0.2-4.2,0.1-8.4,0.2-12.6
			c0.1-4.2,0.2-8.3,0.2-12.5c7.1-5.3,13.9-11.2,19.5-18c4.6-5.6,8-12.8,10.4-20.2c0,0.8,0,1.7-0.1,2.5c-0.2,10.4-0.4,20.9-0.5,31.3
			c-0.1,10.4-0.2,20.9-0.2,31.3c0,8.4-0.3,16.9,0,25.4c-2.9-0.8-5.9-1.2-9-1.1c-5.1,0.1-5.1,7.9,0,7.9c8.9-0.1,16.6,4.3,21.1,11.9
			c4.3,7.3,9.1,9.8,17.7,9.2c7.6-0.6,15.8-0.6,22.2-5.2c4.2-3,7.7-11.8,12.5-15.5c0.5,2.1,1.8,3.8,4.2,4.6c1,2.5,2.8,4.7,5.5,6.3
			c7.4,4.4,17.9,2.3,25.3-1.1c9-4.2,14.2-11.7,19.3-19.9c3.2-5.1,6.8-10.1,9.5-15.4c1.2-2.4,1.8-5.1,3-7.5c0.6-1.3,1.4-2.4,2.2-3.6
			c2.4-1.7,5-3.2,7.6-4.7c4.1-2.4,8.5-4.3,12-7.6c2.3-2.2-0.1-5.6-2.9-5c-4.8,0.9-9.5,3.3-14,6.1c0.1-0.3,0.1-0.6,0.2-0.9
			c1.1-3.4,3-6.5,5.8-8.2c2.6,0,5.7,1.7,8,2.5c4,1.4,5.6-4.8,1.7-6.3c-0.2-0.1-0.5-0.2-0.7-0.3c0.1-0.5,0-1.1-0.1-1.6
			c0.9-2.4,1.1-5.1,1.5-7.6c0.4-2.3,0.7-4.6,1.1-6.8c0.7-4.6,1.3-9.2,1.9-13.9c1.3-9.9,2.4-19.9,3.4-29.9c0.9-9.9,1.9-19.8,3.5-29.6
			c0.7-4.5,1.3-9,1-13.5c-0.1-1.8-0.3-3.7-1.2-5.2h0c3.3-0.7,6.5-1.6,9.7-2.8c1.4-0.6,3-1.2,4.5-1.8c1.5,1.8,1.4,5.3,1.5,7.3
			c0.1,2.3,0,4.6-0.2,6.9c-0.4,4.9-1.2,9.7-1.9,14.6c-1.4,9.5-2.9,18.9-4.6,28.3c-1.6,9.4-3.3,18.8-5.1,28.2
			c-0.9,4.5-1.7,9.1-2.6,13.6c-0.4,2.3-0.9,4.5-1.3,6.8c-0.4,2.3-1.2,4.7-1.1,7c0,0.5,0.8,0.8,1,0.3c0.9-2.2,1.1-4.6,1.6-6.9
			c0.5-2.6,0.9-5.2,1.4-7.8c0.9-5.2,1.9-10.4,2.9-15.6c1.9-10.4,3.8-20.8,5.5-31.2c1.7-10.1,3.2-20.3,4.6-30.5
			c0.7-5.2,1.3-10.5,0.8-15.7c-0.2-1.9-0.4-4.2-1.8-5.6l0,0c1.1-0.5,2.1-1,3.1-1.5c0.9,6.3,1.6,12.6,1.2,18.9
			c-0.7,11.7-2.1,23.4-3.5,35c-1.4,11.8-3,23.7-4.9,35.4c-0.9,6.1-1.9,12.1-3,18.2c-0.8,4.9-2.1,9.9-2.7,14.8l4.7-7
			C1161.1,1556.5,1164.8,1539.2,1167.3,1521.6z M939.6,1579.3c-3.2,0-6.4,0.3-9.4,0.9c-0.1-1.5-0.2-3.1-0.3-4.6
			c3.4-1.7,6.7-3.5,10-5.4C939.7,1573.3,939.5,1576.3,939.6,1579.3z M958.3,1569.6c-0.1,4-0.4,8.1-0.5,12.1
			c-0.2-0.1-0.3-0.1-0.5-0.2c-4.9-1.4-10.5-2.2-16.1-2.2c0.2-3.2-0.1-6.5-0.4-9.7c4.5-2.7,8.9-5.5,13.1-8.4c1.6-1.1,3.2-2.2,4.8-3.4
			C958.6,1561.8,958.4,1565.7,958.3,1569.6z M1013.4,1629.4C1013.4,1629.4,1013.4,1629.4,1013.4,1629.4c-1.5-0.4-2.9-1.2-4-2.8
			c-2.3-3.3-3.9-6.7-6.9-9.5c-3.4-3.2-7.4-5.6-11.8-7c0.2-8.6-0.2-17.3-0.2-25.9c0-10.3,0-20.6,0-30.8c0.1-10.3,0.2-20.6,0.4-30.8
			c0-2.6,0.1-5.2,0.2-7.8c0.7-2.5,1.4-4.9,1.9-7.3c1.3-5.6,1.6-11.3,1.9-17.1c0.3-5.7,1.2-11.3,2.3-16.8c0.7-1.1,1.4-2.3,2-3.5
			c0.6-1.1,1.3-2.4,2-3.7c6.7,1.6,13.7,2.1,20.6,1.8c1.4,10.6-0.3,21.6-1.2,32.2c-0.9,11.1-1.7,22.1-2.5,33.2
			c-1.5,21.8-2.7,43.6-3.7,65.4C1014.1,1609.1,1013.6,1619.2,1013.4,1629.4z M1032,1628.3c-3.5,0.8-7.3,0.8-10.8,1
			c-2.2,0.2-4.3,0.5-6.3,0.3c0.8-20,1.4-39.9,2.5-59.9c1.2-22.3,2.7-44.6,4.5-66.9c0.9-11.5,2.6-23.2,0.9-34.7l0,0
			c4.1-0.2,8.1-0.6,12.1-1.2c5.4-0.8,10.8-1.8,16.1-3.1c2.5,4.2,2.2,9.3,1.8,14.1c-0.5,5.7-1.1,11.3-1.8,17
			c-1.4,11.6-3.2,23.1-5,34.6c-3.5,22-7.2,43.9-9.4,66.1c-0.6,6.4-1.3,12.7-2.2,19.1C1033.8,1619.1,1032.9,1623.7,1032,1628.3
			L1032,1628.3z M1059.7,1571.5c-1.5,10.1-3.1,20.2-4.6,30.3c-0.3,2.1-1.1,4.9-1.6,7.9c-3.4,1.1-6.5,3.8-8.8,6.9
			c-2.9,4.1-4.9,8.9-10,10.8c-0.3,0.1-0.7,0.2-1,0.3h0c2.1-8.9,2.9-18.2,3.8-27.2c1.2-11.8,2.4-23.5,4.1-35.2
			c3.4-22.9,7.8-45.7,10.6-68.7c0.8-6.4,1.4-12.9,1.7-19.4c0.3-4.8,0.3-9.6-2.2-13.8c4.6-1.2,9.1-2.6,13.4-4.3
			c6.6,3.8,6.7,13.3,6.3,20.8c-0.4,10.1-1.5,20.1-2.8,30.1C1066.2,1530.7,1062.8,1551.1,1059.7,1571.5z M1093.6,1613.2
			c-5.2,5.5-12.8,8.9-20.4,8.9c-1.4,0-2.8-0.1-4.1-0.4c4-0.7,7.9-1.9,11.1-3.1c7.4-2.8,13.6-7.1,18.8-13.1c0.6-0.7,1.1-1.3,1.7-2
			C1098.6,1607.1,1096.3,1610.4,1093.6,1613.2z M1103.8,1565.9c-0.1,2-0.3,4-0.6,6c-2.1,0.6-4.3,1.3-6.3,2.3
			c0.9-6.8,1.4-13.7,2-20.5c1.2-12.7,2.3-25.3,3.1-38c0.8-12.4,1.5-24.7,2.1-37.1c0.2-6,0-12.2,0.5-18.2c0.3-3.2,0.6-6.4,1.7-9.3
			c0.9-0.3,1.8-0.1,2.9,0c1.6,16.1-0.4,32.6-1.4,48.6c-1.1,17.3-2.2,34.6-3.2,51.9C1104.4,1556.3,1104.1,1561.1,1103.8,1565.9z
			 M1125.1,1554.2c-0.2,0.2-0.5,0.3-0.8,0.6c-0.9,0.8-1.7,1.7-2.3,2.8c-3.1,3.9-4.9,9.2-4.8,14.1c-3-0.3-5.7-1-8.9-0.6
			c-1.1,0.1-2.2,0.3-3.4,0.6l0,0c0.1-1,0.1-1.9,0.2-2.8c0.3-4.4,0.5-8.8,0.8-13.2c0.5-8.6,1.1-17.1,1.6-25.7
			c1.1-17.3,2.1-34.5,3.1-51.8c0.5-9,0.7-17.9-0.2-26.8c0,0,0,0,0,0c0.1,0,0.1,0,0.2,0c3.2,0.1,6.4-0.3,9.6-0.5
			c3.6-0.2,7.1-0.4,10.7-0.7h0c-1.6,18-1.8,36.2-2.5,54.3c-0.4,9.2-0.8,18.3-1.3,27.4c-0.3,4.6-0.6,9.1-1,13.7
			C1125.8,1548.3,1125.4,1551.2,1125.1,1554.2z M1151.1,1459c-0.4,4.7-1.4,9.4-2.2,14.1c-1.5,8.7-2,17.5-2.8,26.3
			c-0.9,9.4-2,18.8-3.3,28.2c-0.6,4.6-1.3,9.1-2.1,13.7c-0.6,3.5-1.7,7.4-1.9,11.1c-0.3-0.2-0.7-0.4-1.1-0.6
			c-4.1-1.2-7.8-0.5-11,1.5c0.2-2.3,0.4-4.6,0.6-6.8c0.4-4.6,0.7-9.1,1-13.7c0.6-9.3,1-18.6,1.4-27.9c0.8-18.2,2.1-36.6,1.9-54.8h0
			c3.5-0.2,7-0.5,10.5-0.9c2.7-0.3,5.4-0.7,8-1.2C1152.1,1450.7,1151.3,1456.1,1151.1,1459z"/>
	</g>
	<g>
		<path fill="#FFFBE9" d="M1294.5,1721.3c-1.9,1.8-2.1,2.8-18.4,9.2c-16.3,6.4-35.3,12.7-58.6,11.7c-23.3-1.1-64.7-0.4-96.2-7.8
			c-31.5-7.5-52.6-12.5-52.6-12.5c-0.6,7.9-3.6,9.9-14.2,15.6c-10.6,5.7-9.8,4.9-14.2,10.6c-4.4,5.6-11.5,17.5-32.2,38.9
			c-20.7,21.4-36.9,31.7-60.1,40.4c-23.2,8.7-51.4,5.9-89.7-1.2c-38.3-7.1-51.9-18.8-56.2-22.5c-4.4-3.6-3-5.1-2.8-6.7
			c0.2-1.6-1.3-1.4-1.3-1.4c-12.6,2.8-45.7,8.2-85.3-2.6c-39.6-10.8-43.2-26.4-43.2-26.4v-28.5l6.4-5.9c2-14.9,0.4-25.3,8.6-40.1
			s14.2-24.8,28.1-30.5c13.8-5.7,29.2-9.4,29.2-9.4s6.9-8.9,16-13.9c9.1-5,22.3-12.1,22.3-12.1s3.9-9.2,15-15.6
			c11.2-6.5,20.1-9,20.1-9l9.6-18.6c-5.2-15.3,7-22.1,23.6-17.4s24.1,23,24.1,23s4.7-3,11.8,1.6s7.4,7.6,10.5,10.3
			c3.1,2.7,5.8,2.2,9.8,2c4-0.1,6.1,3,6.1,3s6-12.5,16.9-19.4c10.9-6.9,36.9-3.2,45.6,4.8c8.7,8,12.8,21.5,12.8,21.5
			c7.1-0.5,16.7,3.6,18.8,11.8c2.2,8.1,10.3,8.2,20.5,8.3c0.7,0,1.4,0,2.1-0.1c9-0.7,15-6,17.3-11.4c2.6-5.8,6.1-9.2,10.7-10.9
			c4-1.5,4.8,1.4,4.9,2.2l0,0.2c0.5-5.9,1.8-8.4,4.9-8.3s10-0.7,18.8-6.9c8.9-6.2,13.9-10,18.5-15.8c4.6-5.9,7.6-7.4,12.4-7.7
			c4.7-0.4,8.9,2.4,8.9,2.4s-2.1-9.8,5-19.7s20.6-11.5,28.5-8.2c7.9,3.3,10.7,11.7,7.9,19.8s-6.2,6.7-6.2,6.7s2.2,4,11.4,5.8
			c9.1,1.8,23.1,9.8,23.1,9.8s27.7,12.3,32.2,16.3c4.5,3.9,6.2,9.3,6.2,9.3c22.1,4.5,37.4,7.9,49.6,20.9
			c12.2,13,12.2,27.8,12.8,38.8c0.5,11-2.1,18.9-2.1,18.9s3-0.3,3.6,1.3c0.6,1.6,1,5.6,1.3,11.4
			C1297.3,1713,1296.4,1719.5,1294.5,1721.3z"/>
		<path fill="#971A1C" d="M986.8,1666.2c13,7,20.2,10.6,27.4,22.5c7.2,11.9,12.7,29.8,12.7,29.8s2.8-7.9,13.7-18.1
			c0,0-5.1-22.2-21.3-36.1c-16.3-13.9-24.4-14.2-24.4-14.2L986.8,1666.2z"/>
		<path fill="#971A1C" d="M968.2,1691.1c0,0,8.7,2.5,16.3,15.7c7.6,13.2,16.6,48.9,16.6,48.9l16.4-21.4c0,0-3.3-12.6-15.1-33.1
			c-11.8-20.5-24.3-22.1-24.3-22.1L968.2,1691.1z"/>
		<path fill="#971A1C" d="M876.5,1658.7c-0.2,0.2-3.5,11.4-3.5,11.4s-4.6,0.8-9,4.5c-4.4,3.7-7.4,11.2-7.4,11.2s-2,0.3-2.2-1.4
			s-0.1-7-6.3-14.9c-6.2-7.9-11.1-9.5-11.1-9.5l11.2-15c0,0,3.3-1.4,8.5,4.7c5.3,6.1,9.4,10.8,9.8,16.9c0,0,1.3-3.4,4.7-5.6
			C874.5,1658.5,876.5,1658.7,876.5,1658.7z"/>
		<path fill="#971A1C" d="M888.5,1635.1c-3.4,4.6-6,12.7-6,12.7l-5.2,3.9c0,0,1.3-1.7-2.5-10s-13-10.5-13-10.5l12.6-14.1
			c0,0,4.4-0.4,8.1,5.2S888.5,1635.1,888.5,1635.1z"/>
		<path fill="#971A1C" d="M1147.4,1616.1c0,0-8.7-0.2-21.8,13.6c-13.1,13.7-16.9,18.8-25.1,36.5c-7.8,16.8-11.1,27.3-11.4,28.4
			c11,2.8,31.6,9.8,36.9,11.7c0.9-7.7,5.1-21.3,11.8-39.1c10.5-27.5,35.5-40.4,35.5-40.4L1147.4,1616.1z"/>
		<path fill="#971A1C" d="M1046.5,1647.1c5.4-0.8,7.5-3.2,10.7-3.5s5.2,0.1,6.5,1.2s2,0,2,0s0.7,5,1.4,10.8c0.7,5.9-0.1,14-0.8,20.7
			s-0.2,7.8,1.8,6.2s4.1-8.5,8.8-19.9s13.9-25,23-34.6c9.1-9.6,21.6-17.4,23.9-18.9c2.3-1.5,1.6-1.5-3.8-3.7s-19.5-5.3-19.5-5.3
			s-9,3.6-20.3,16s-15.2,20.1-15.2,20.1s-0.5-1.9-2.1-4.8c-1.6-2.8-1-4.9-1.1-11.2c-0.1-6.2-1.4-7.8-1.4-7.8l0-0.2
			c-0.1-0.8-0.9-3.7-4.9-2.2c-4.6,1.7-8.2,5.2-10.7,10.9c-2.4,5.4-8.3,10.7-17.3,11.4c2.8,3.1,3.3,3.9,5.8,7.7
			C1036.2,1644.7,1041.1,1647.9,1046.5,1647.1z"/>
		<g opacity="0.3">
			<path fill="#05132B" d="M910.5,1621.2c-0.1,0.2-0.1,0.4-0.2,0.6c0,0,0.1,0,0.1,0C910.5,1621.6,910.5,1621.4,910.5,1621.2z"/>
			<path fill="#05132B" d="M964.1,1774.6C964.1,1774.5,964.1,1774.5,964.1,1774.6c0.1-0.1,0.1-0.1,0-0.2
				C964.1,1774.4,964.1,1774.5,964.1,1774.6z"/>
			<path fill="#05132B" d="M868.5,1679.4c0.1-0.2,0.2-0.3,0.3-0.5c-0.1,0-0.1,0-0.2,0C868.6,1679,868.5,1679.2,868.5,1679.4z"/>
			<path fill="#05132B" d="M1075,1691.7c0.2-0.2,0.3-0.3,0.5-0.4c-0.2,0-0.4,0-0.6,0C1075,1691.4,1075,1691.6,1075,1691.7z"/>
			<path fill="#05132B" d="M818.7,1724.5c0,0.1,0,0.2,0.1,0.4c0.1-0.3,0.2-0.6,0.3-0.8c-0.1,0.1-0.2,0.2-0.3,0.3
				C818.8,1724.4,818.7,1724.4,818.7,1724.5z"/>
			<path fill="#05132B" d="M768.2,1795.3c0.1,0,0.1,0,0.2,0c-0.1-0.1-0.1-0.2-0.2-0.3C768.2,1795.1,768.2,1795.2,768.2,1795.3z"/>
			<path fill="#05132B" d="M792.2,1667.3c0.1,0,0.1,0.1,0.2,0.1c0-0.1,0.1-0.2,0.1-0.2C792.4,1667.2,792.3,1667.3,792.2,1667.3
				C792.2,1667.3,792.2,1667.3,792.2,1667.3z"/>
			<path fill="#05132B" d="M814.3,1787.1c0-0.6,0.1-1.1,0.2-1.7c0,0-0.1,0-0.1-0.1C814.3,1785.9,814.3,1786.5,814.3,1787.1z"/>
			<path fill="#05132B" d="M788.2,1794.7c0.8-0.1,1.7-0.2,2.5-0.3c-0.6-0.3-1.2-0.5-1.7-0.8C788.7,1793.9,788.4,1794.3,788.2,1794.7
				z"/>
			<path fill="#05132B" d="M779.6,1629.5c3.2-2.4,6-5.3,9.1-7.8c4.6-2.6,10-4,15.3-4.3c6.7-0.3,19.9-0.1,23.3,7.1
				c-1.1,1.1-2.2,2.3-3.3,3.4c-3.5,3.7-7.7,7.7-9.3,12.6c-0.3,0.9,0.9,1.8,1.7,1.3c4.2-2.8,7.2-7.3,10.7-10.9
				c2.6-2.7,5.3-5.2,8.2-7.6c0.2,0.1,0.3,0.2,0.4,0.3c0.2,0.1,0.3,0.2,0.5,0.3c-0.1,4.3,2.1,9.1,6.1,9.8c5.4,1,13.2-1.9,13.3-8.2
				c0-0.9-1-1.7-1.8-1.4c-1.2,0.4-1.8,1-2.6,2c-1.5,1.7-3.3,2-5.5,2.3c-5.4,0.6-3.5-5.2-3.5-8.5c0-0.9-0.4-1.5-0.9-1.9
				c0.4-0.9,0.2-1.9-0.4-2.6c2.4-2.3,4.9-4.5,7.1-7c1.6-1.7,3.6-3.5,5.2-5.4c1.4,0.7,2.8,1.2,4.3,1.7c-0.5,2.9,0.2,5.8,3.6,7.2
				c4.5,1.9,9.5,0,12.3-3.8c1.2-1.5-0.8-3.7-2.5-3.2c-2.2,0.7-3.8,3-6.2,2.9c-2.5-0.1-3.2-1.6-3.3-3.4c2.3-1.5,3-5.5,0-7.3
				c-0.3-0.2-0.5-0.3-0.8-0.4c3.2-2.6,6.5-4.8,9.9-7.2c0.7-0.4,1.3-0.9,2-1.4c-0.7-1.7-8.2-18.4-24-22.9c-16.6-4.7-28.8,2-23.6,17.4
				l-2.3,4.4c1.7,1.7,4.2,0.6,4.4-1.7c1.3,0.8,3.2-0.1,2.9-2c-1-5.2-3.7-9.8,2.9-12.2c4.7-1.7,10.5-1,15.3,0.2
				c8.1,2.1,14.2,8.2,19.9,14.3c-3.7,2.9-7.1,6-9.8,9.7c-2.9-1.3-5.9-2.4-8.7-4.1c-1.8-1.1-4.1,0.1-4.9,1.8
				c-6.3-1.6-12.6-2.5-19.4-2c-1.6,0.1-3.3,0.3-5,0.5l-5,9.6c0,0-2.7,0.8-7,2.5c1,1.3,3.4,1.7,4.7-0.1c1.3-1.8,6.3-3.1,8.4-3.5
				c3-0.6,6.2-0.6,9.2-0.6c5.8,0,11.5,1.7,17.1,3.3c-0.9,1.1-1.8,2.2-2.6,3.1c-2.3,2.6-4.2,5.5-6.2,8.3c-0.5,0.1-0.9,0.3-1.4,0.7
				c-0.4,0.4-0.8,0.7-1.2,1.1c-3.3-2.7-9.6-3-13.2-3.9c-6-1.4-12.2-2.5-18.4-2.2c-5,0.3-10.1,1.5-14.5,4c-0.2,0.1-0.4,0.3-0.7,0.4
				c-6.7,5.6-9.2,11.5-9.2,11.5s-1.3,0.7-3.3,1.8C776.9,1629.4,778.3,1630.5,779.6,1629.5z"/>
			<path fill="#05132B" d="M741.6,1652.3c0,0-15.3,3.7-29.2,9.4c-13.8,5.7-19.8,15.7-28.1,30.5s-6.6,25.2-8.6,40.1l-6.4,5.9v28.5
				c0,0,3.6,15.6,43.2,26.4c39.6,10.8,72.7,5.4,85.3,2.6c0,0,1.5-0.1,1.3,1.4c-0.2,1.6-1.6,3,2.8,6.7c4.4,3.6,18,15.4,56.2,22.5
				c38.3,7.1,66.5,9.9,89.7,1.2c23.2-8.7,39.4-19,60.1-40.4c20.7-21.4,27.8-33.3,32.2-38.9s3.6-4.9,14.2-10.6s13.6-7.7,14.2-15.6
				c0,0,21.1,5,52.6,12.5c31.5,7.5,72.9,6.7,96.2,7.8c23.3,1.1,42.3-5.2,58.6-11.7c16.3-6.4,16.5-7.4,18.4-9.2
				c0.7-0.6,1.2-1.8,1.6-3.2c-1,0.7-2.1,1.4-3.2,1.9c-3.8,1.9-8,3.3-12.1,4.4c-9,2.6-18.2,4.7-27.3,6.8c-20.6,5-40.6,7.9-61.8,7
				c-20.1-0.8-40.2-3.1-60.1-5.7c-9.9-1.3-19.7-2.9-29.4-5.2c-8.6-2-16.7-5-25-7.7c-1-6.7-1.7-13.4-1.6-20.3c0.2-1,0.4-2,0.8-2.7
				c1.3-2.3,2.9-3,5.5-3.3c8.2-0.8,17.9,3.5,25.5,6.3c15.9,5.9,31.9,10.6,48.7,13c15.6,2.2,31.3,2.9,47,2.3c6,0.2,12.1-0.2,18-0.6
				c10.8-0.8,21.5-2.5,32.2-4.6c14.1-2.7,30.5-5.3,41.5-15.1c-1.1-0.5-2.6-0.3-2.6-0.3s2.6-7.9,2.1-18.9c0-0.3,0-0.6,0-0.9
				c-0.5,1.4-1.1,2.7-1.8,4c-0.1-11.6-3.8-23.3-10.8-32.4c-9.2-12.1-22.8-17.6-37.1-21.5c-8.8-2.4-17.7-3.8-26.7-4.5
				c-0.8-1.7-1.8-3.3-2.8-4.8c2.9,0.4,6.2,0.1,9.1,0.2c2.6,0,5.2,0.1,7.7,0c-0.4-1.2-2.2-5.6-6.1-9c-0.5-0.4-1.3-1-2.2-1.6
				c-3.2-0.4-6.4-0.9-9.5-2.1c-0.6-0.2-1.2-0.2-1.9-0.1c-2.1-1.8-5.3,0.3-4.7,3c0,0,0,0.1,0,0.1c-0.6-0.7-1.3-1.3-1.9-1.9
				c-1.3-1.3-3.3,0.7-2,2c5.3,5.8,11,11.5,13.8,19c2.9,7.9,0.8,14.7-4,21.1c0,0,0,0-0.1,0c-0.1-0.5-0.6-0.9-1.2-0.6
				c-12.6-7.1-25.4-13.7-38.5-19.7c-6.4-3-12.8-6-19.4-8.6c-4.1-1.6-8.7-4-13.3-5.4c-3.4-1.8-7.3-2.8-11.2-3.1
				c-2.9-2.2-7.2-2.8-10.6-3.9c-5.4-1.7-10.9-3.6-16.2-5.4c-4.5-1.6-9-2.7-13.8-3.4c2-1.4,3.8-3.2,5.5-4.9c2.1-2.1,5.2-5.1,6.8-8.3
				c-4.3,5.1-9.2,8.7-17.4,14.5c-8.9,6.2-15.7,7-18.8,6.9s-4.4,2.4-4.9,8.3l0-0.2c-0.1-0.8-0.9-3.7-4.9-2.2
				c-4.6,1.8-8.2,5.2-10.7,10.9c-2.4,5.4-8.3,10.7-17.3,11.4c-0.7,0.1-1.3,0.1-2.1,0.1c-10.2-0.1-18.3-0.1-20.5-8.3c0,0,0,0,0,0
				c-0.1,0.2-0.1,0.3,0,0.5c0.9,2.2,1.7,4.2,3.2,5.8c-11.1,11.2-16.2,26.9-24.3,40.1c-4.9,7.9-10.9,14.9-17.8,21.2
				c-6.6,6-10.3,13.4-14.8,20.9c0,0-0.1,0.1-0.1,0.1c-5.3-1.7-10.3-4.7-12.5-10c-0.5-1.2-1-2.4-1.3-3.6c-0.4-3.3,0.2-6.9,2.1-9.4
				c1.1-1.5,2.9-2.4,4.2-3.7c0.8-0.8,1.6-1.7,2.2-2.7c0.3,0.5-0.2,0.5-0.1,1.3c0.2,1.7,0.2,2.4,1.2,4c1.7,2.6,4.2,4.3,7.3,4
				c7.1-0.7,15.4-5.8,12.5-13.9c-0.6-1.8-3.2-2-3.8,0c-0.7,2.6-0.5,4.7-3.1,6.5c-1.1,0.8-3.4,1.5-4.6,1.7c-4.5,0.8-3.2-2.3-5.1-5.2
				c-0.8-1.2-2-1.9-3.4-2.3c1.6-2.2-0.7-5.4-3.6-4.1c-1.6,0.7-2.9,1.7-4.1,2.8c-4.3-5.1-14-5.9-19.8-6.4c-5.7-0.4-17.7-1.6-22.7,3.2
				c-0.2,0.1-0.4,0.2-0.5,0.3c0.6-1.4,1.2-2.8,1.7-4.2c2.6-6.9,4.1-14.1,6.3-21.1c0.3,0,0.7,0.1,0.9,0.3c-0.2,0.9-0.6,1.9-0.7,2.2
				c-0.3,1.2-0.7,2.5-1,3.7c-0.7,2.5-1.2,5-1.8,7.5c-0.4,1.6,1.8,2.1,2.3,0.7c1.1-2.8,2.1-5.7,3.1-8.6c0.8-1.2,1.8-2.3,2.8-3.2
				c2.2-1.7,5-2.4,8.2-3.2c4.4-1,8.9-1.6,13.4-1.4c7.2,0.2,13.6,2.3,19.7,5.7c-0.1,0.2-0.2,0.3-0.3,0.6c-1.6,4.2-3.1,8.4-5.6,12.1
				c-1.1,1.6,0.2,3.3,1.8,3.6c1.1,0.8,2.8,0.8,3.9-0.7c2.9-4.4,5.6-8.9,8-13.6c0.4,0,0.8-0.1,1.3-0.4c0.3-0.2,0.7-0.3,1-0.4
				c-3.3,5-6.4,10.2-9.9,15c-0.1,0.1-0.2,0.2-0.3,0.3c0,0.1-0.1,0.2-0.1,0.3c-0.3,0.9,0.9,1.2,1.4,0.6c3.7-5.1,7.5-10.6,10.1-16.3
				c0,0,0-0.1,0-0.1c0.8,0,1.7,0.2,2.5,0.4c0.8,7.3,9.3,9.2,15.5,6.7c3-1.2,5.3-3.4,6.4-6.5c1.2-3.5-0.1-5.8-2.5-8.2
				c-1-0.9-2.8,0.3-2,1.5c2.2,2.9-0.5,6.7-3.2,7.8c-2.8,1.2-8.4,2.1-9.4-1.4c1.2-1.2,1.5-3.5-0.5-4.4c-2.3-1.1-4.5-1.7-6.8-1.6
				c0,0-0.1-0.1-0.1-0.1c-2.1-1.5-4.2-2.4-6.7-3c-1.1-0.2-1.9,0.1-2.5,0.6c-11.9-7.6-31.6-8.8-42.2-0.2c1.3-5,2.5-10,3.6-15
				c0.2-0.6,0.5-1.2,0.7-1.8c1.3-2.9,3-3.6,6-4.5c5.6-1.7,10.7-2.6,16.6-2.5c5.2,0.1,10.5,0.3,15.6,1.6c1.9,0.5,5,1.3,6.4,2.9
				c2.8,3,0.1,7.7-1.1,10.8c-0.3,0.7-0.2,1.3,0.1,1.9c-0.2,2.2,2.8,2.8,4.1,1.1c0.1-0.1,0.2-0.2,0.2-0.3c0.3-0.2,0.5-0.6,0.6-1
				c1.6-2.8,2.4-6.6,2.8-10c1.4-1.1,2.7-2,4.5-2.7c-0.9,2.4-1.5,4.9-2.4,7.3c-1,3.1-2.6,5.9-3.6,9c-0.2,0.5,0.6,0.8,0.8,0.3
				c2.9-5.1,5.2-11.1,6.5-16.8c1.9,0.3,3.8,0.5,5.3,1.8c1.7,1.5,2,3.8,3.4,5.6c2,2.5,5.8,4.1,8.9,3.4c6.7-1.5,11.5-12.6,4.1-16.4
				c-1.9-0.9-3.6,1.3-2.2,2.8c3.7,4.3-4.2,10.9-8.1,5.8c-1.1-1.5-1.7-2.2-3.2-3.3c-1.3-0.9-2.6-1.8-4-2.3c0.1-0.1,0.2-0.2,0.3-0.4
				c0.7-1.1,0-2.4-1.2-2.8c-2.5-0.8-5.7,1.1-8,2.1c-0.2,0.1-0.3,0.1-0.5,0.2c-0.2-0.9-1.3-1.4-2.1-1c-0.8-0.8-1.9-1.3-3.1-1.9
				c0.4-1,0.2-2.3-1-3.1c-3.7-2.2-8.1-1.7-12.2-1.6c-5.2,0.2-10.2-0.9-15.3-0.9c-6.1,0-13.5,0.3-18.2,4.3c0,0,0,0,0,0
				c-0.2-0.7-0.9-1.3-1.7-1.2c0.7-2,1-4.5,1-7c1.6,1.3,4.2-0.2,4.4-2.3c0.1-0.7,0.1-1.3,0.1-2c0.9,0.6,2.1,1.1,3.7,1.2
				c4.8,0.3,8.8-1.7,13.5-2.3c5.7-0.8,11.8-0.6,17.5,0.3c5.5,0.8,10.8,2.4,15.8,5c2.3,1.2,6.1,3.9,9,2.8c1,0.9,2.2,1.4,3.6,1.1
				c0.7-0.2,1.2-0.6,1.6-1c0.6,0.1,1.2,0,1.7-0.1c-1.1,1.2-2.5,2.4-3.6,3.5c-0.3,0.3,0.1,0.7,0.4,0.6c1.2-0.6,2.1-1.7,3-2.7
				c0.7-0.7,1.7-1.4,2.3-2.2c-0.4,0-0.7,0-1.1,0c0,0-2.6-8.7-8.1-16.2c0.9,2.7,1.2,5.4-0.3,8.4c-0.9,1.8-0.9,3-3.1,2.8
				c-1.2-0.1-3.2-1.8-4.3-2.3c-5.5-2.7-11.5-4.3-17.6-5.1c-5.9-0.8-12-0.9-17.9,0c-3.1,0.5-6,1.7-9,2.2c-1.9,0.3-3.4,0.7-4.6-0.6
				c-1-1.1-1-3.5-0.8-5.5c1.2-2.1,2.8-4,4.3-5.6c1.9-2.1,3.9-4,6.3-5.5c0.7-0.4,1.5-0.8,2.2-1.2c-2,0.6-3.8,1.3-5.3,2.3
				c-10.9,6.9-16.9,19.4-16.9,19.4s-2.1-3.1-6.1-3s-6.7,0.7-9.8-2c-1.3-1.2-2.2-2.4-3.2-3.8c-7.7,6.6-13.8,14.9-20.5,22.4
				c-3.5,3.9-7,7.8-10.6,11.7c-0.3,0.2-0.7,0.4-1,0.7c-0.2,0.2-0.3,0.5-0.4,0.8c-4.8,5.1-9.5,10.3-14.2,15.4
				c-3.2,3.5-6.4,7-9.6,10.5c-0.8,0.1,0,0,0,0l-3.4,3.7c-10.4,11.5-20.5,23.6-27.3,37.5c-1.2-0.9-2.3-1.8-3.3-2.7
				c-3.5-3.2-6.6-8.2-8.3-12.6c-1.8-4.6-0.9-8.8,0.7-13.1c3.5-3.2,6.2-7.4,9.2-11c0.2-0.3,0.5-0.5,0.7-0.8c1.1-0.6,1.9-1.5,2.4-2.6
				c1.5-1.5,3-2.9,4.6-4.2c0,2,0.9,3.9,2.6,5.5c2.7,2.5,6,2.3,9.4,1.7c3.3-0.6,6.3-2.4,8.1-5.4c1.8-3.1,0.9-6.3,0.1-9.5
				c-0.2-0.9-1.6-0.9-1.8,0c-0.6,3.1-0.7,6.7-3.7,8.5c-1.5,0.8-3.3,1.3-4.9,1.4c-1.6,0.2-5.7-0.2-4.4-3c0.6-1.3,0-2.6-0.9-3.3
				c0.7-2-2.2-4.4-4.3-2.6c-2-1.1-3.9-2.3-6.1-3.2c-1.7-0.7-3.2,0.8-3.5,2.4c-10.8-4.8-23.1-6.6-34.8-6.1c-5.5,0.2-11,1.1-15.6,4.2
				C745.3,1647.6,741.6,1652.3,741.6,1652.3z M910.5,1621.2c0,0.2,0,0.4,0,0.6c0,0-0.1,0-0.1,0
				C910.4,1621.6,910.5,1621.4,910.5,1621.2z M697.6,1690.3c4-7.4,9.6-13.9,16.4-18.9c3.7-2.7,7.7-5,11.9-6.7
				c2.2-0.9,4.8-1.5,7.2-2.3c2.6,1.1,5.4,2.1,8.1,2.9c1.9,1,4.1,1.6,6.2,2.2c0.1,0.1,0.2,0.1,0.4,0.2c-7.1,2.6-13.9,5.9-20.2,9.8
				c-3.4,2.1-6.5,4.5-8.8,7.8c-2.1,3.1-3.5,6.7-4.6,10.3c-2.7,8.9-4,18.4-5.3,27.6c-1.2,8.8-1.8,17.6-1.2,26.4
				c-4.6-2.2-9.1-4.7-12.8-7.9C686.4,1726.4,689.8,1704.7,697.6,1690.3z M753.5,1713.6c0.2,16.8,1.9,33.5,4.7,50
				c-2.3-0.1-4.5-0.3-6.8-0.6c-1.6-0.2-3.2-0.5-4.9-0.8c-8-1.5-15.9-4-23.6-6.7c-4.7-1.7-9.8-3.4-14.6-5.6c-0.6-8.3-0.1-16.6,1-24.8
				c1.2-9.1,2.9-18.3,5.3-27.1c2.3-8.4,6.4-15,13.9-19.6c6.8-4.2,14-7.5,21.6-9.9c3.8,1.2,7.8,1.7,11.7,2.1c1.5,0.3,3,0.7,4.5,0.9
				c-3.1,6.4-6.1,12.8-8.9,19.4c-1.4,3.3-2.9,6.5-3.4,10.1C753.3,1705.1,753.5,1709.4,753.5,1713.6z M762.4,1795.6
				c-6,0-12-0.7-17.9-1.2c-9.2-0.8-18.4-1.8-27.4-3.8c-8.5-1.8-16.8-4.5-24.6-8.3c-3.5-1.7-6.9-3.6-10.1-5.7
				c-0.2-4.6-0.3-9.2-0.1-13.8c0.1-2.4,0.3-4.9,0.4-7.3c3.2-1.5,6.9-2.8,9.6-1.9c3,1,5.8,3.1,8.7,4.3c6.7,2.9,13.8,5,20.9,6.4
				c6.9,1.3,14.1,2.3,21.1,2.7c0.5,0,1.1,0.1,1.7,0.1c5.6,0.9,12.4,2,18.7,1.5c-1.2,4.6-1.4,9.4-1.4,14.2
				C761.8,1786.4,761.1,1791.7,762.4,1795.6z M768.1,1795.3c0-0.1,0-0.2,0-0.3c0.1,0.1,0.1,0.2,0.2,0.3
				C768.2,1795.2,768.2,1795.3,768.1,1795.3z M772.6,1729.2c-5.7,10.6-8.8,22.4-9.6,34.4c-1.1,0-2.2,0-3.3,0c0-0.1,0-0.2,0-0.3
				c-3-16.1-4.5-32.4-5-48.8c-0.1-3.9-0.3-7.9,0-11.9c0.3-4.2,1.9-7.8,3.7-11.5c3.2-6.5,6.1-13.1,9-19.7c2.7,0.4,5.4,0.4,7.8,0
				c1,0.1,1.9,0.1,2.9,0.2c0.1,0,0.3,0,0.4,0c0.5,0.8,1,1.6,1.5,2.4c1.5,2.4,2.2,5,3,7.7c1.6,5.6,2.8,11.2,4,16.9
				c1.1,5.3,1.9,10.7,2.6,16C782.4,1717.3,776.7,1721.5,772.6,1729.2z M788.1,1794.7c0.3-0.3,0.5-0.7,0.8-1.1
				c0.6,0.3,1.2,0.6,1.7,0.8C789.8,1794.4,789,1794.6,788.1,1794.7z M814.2,1787.1c0-0.6,0-1.2,0.1-1.8c0,0,0.1,0,0.1,0.1
				C814.4,1785.9,814.3,1786.5,814.2,1787.1z M818.7,1724.8c0-0.1,0-0.2-0.1-0.4c0-0.1,0.1-0.1,0.1-0.2c0.1-0.1,0.2-0.2,0.3-0.3
				C819,1724.3,818.8,1724.6,818.7,1724.8z M1075,1691.7c0-0.2,0-0.3-0.1-0.5c0.2,0,0.4,0,0.6,0
				C1075.3,1691.4,1075.1,1691.6,1075,1691.7z M1218.3,1621.4c9.5,1.1,18.9,2.9,28.1,5.5c9.3,2.7,18.6,5.9,26,12.3
				c6.5,5.6,11.5,12.8,14.5,20.8c2.7,7.1,3.6,14.4,3.4,21.8c-5.7,7.4-15.2,11.9-24.8,14.6c0-2.2,0.1-4.3,0.1-6.5
				c0-4.4,0-8.9-0.6-13.3c-1-8.1-4.7-15-9.3-21.6c-4.6-6.6-9.2-12.8-15.9-17.3c-3.3-2.2-6.8-4.1-10.3-5.9c-2.6-1.3-5.8-3.4-8.8-4.2
				C1220,1625.5,1219.2,1623.4,1218.3,1621.4z M1212.2,1649.1c0.4,0.2,0.7,0.2,1,0.2c0.8,0.8,2.2,1.1,3,0.1c5.3-6.1,6.3-13,4.8-19.9
				c5.7,2.5,11.3,5.1,16.5,8.5c6.6,4.4,11.2,10.1,15.6,16.5c4.2,6,8.1,12.3,9.5,19.6c0.8,4,0.9,8.1,1,12.1c0,1.9,0.1,3.8,0,5.7
				c0,0.6,0.2,3.3,0.2,5c-4.1,1.1-8.3,1.9-12,2.5c-9.8,1.5-19.7,1.4-29.6,0.7c-4.6-0.4-14.4,0.4-16.8-4.4c-0.4-0.9-0.7-1.9-0.8-3
				c0.7-5.9,0.3-12.2,0.9-18c0.8-8.3,1.5-18.4,6.1-25.7C1211.9,1648.9,1212,1649,1212.2,1649.1z M1143.6,1617.7c0.2,0,0.3,0,0.5,0
				c2.9,1.1,5.9,2.2,8.5,3.3c6.6,2.8,13.3,5.5,19.9,8.5c12.6,5.7,25,11.9,37.3,18.4c-2.9,3.9-4,9.2-4.9,13.9
				c-1.5,7.7-2,15.3-2.7,23.1c-0.7,8-1.2,18.4-10.3,21.3c-7.8,2.4-16.3,1.6-24.4,2.3c-7.7-1-15.4-2.5-23-4.4
				c-4.9-1.2-9.7-2.7-14.4-4.2c1.1-5.3,1.2-10.7,2.7-16c1.5-5.4,2.6-10.9,4.1-16.2c0-0.1-0.2-0.2-0.2-0.1
				c-2.2,5.2-4.8,10.1-6.5,15.6c-1.5,4.9-3.7,10.2-4.1,15.4c-6.1-2.1-12.2-4.2-18.4-6.1c-5.6-1.7-11.6-3.4-17.6-4.3
				c3.5-6.3,6.1-13.2,9-19.8c3.2-7.3,8-13,12.3-19.5c4.3-6.6,8.9-13.5,14.7-19c2.7-2.7,5.5-5.2,8.6-7.4
				C1137.5,1620.3,1140.6,1619.1,1143.6,1617.7z M1101.8,1604.5c4.9,0.3,11,1.5,15.7,2.9c1.6,0.5,3.3,1.3,4.9,2
				c-1.6,1.3-1.2,4.3,1.4,4.3c5.8,0,11.3,3.2,17.1,3.9c-5.5,2.2-11.1,5.2-15,9.3c-5.6,5.8-9.8,12.9-15.1,18.9
				c-5.2,5.8-9.2,12.6-13.3,19.2c-4.3,7-8.4,14.6-11.1,22.4c-3.8-0.4-7.6-0.5-11.3,0c0.4-5.6,1-11.1,1.8-16.7
				c0.5-1.9,0.8-3.9,1.3-5.8c1.3-5.2,3.3-10.5,5.8-15.1c0.1-0.2-0.2-0.4-0.3-0.2c-1.7,2.7-3.8,5.7-5.6,8.8c0-1-0.1-2-0.2-3
				c-0.5-4.4-2.7-8.1-4.3-12.2c-1.6-4-2.8-8.2-3.9-12.5c3-4.8,6-9.1,10.2-13.2c4.6-4.5,9.7-8.8,13.9-13.6
				C1096.4,1604.2,1099.1,1604.3,1101.8,1604.5z M1069.4,1616.1c1.2-4.2,3.3-7.9,6.5-10.8c0.9-0.9,1.9-1.7,3-2.4
				c2.7,0.6,5.7,0.5,8.3,0.7c1.1,0.1,2.3,0.2,3.4,0.2c-5.2,3.9-10.3,8.5-15,13c-2.6,2.5-5.3,5.3-7.2,8.5
				C1068.4,1622.3,1068.5,1619.2,1069.4,1616.1z M1065.6,1692c0.5,3.2,0.8,6.4,0.9,9.6c0.3,5.2,0,10.5,0.7,15.7
				c0.1,0.6,0.4,1.1,0.9,1.3c0,0.1,0,0.2,0,0.3c-0.6,2.5-1.4,4.9-2.6,7c-0.5,0.9-1,1.7-1.6,2.4c-2.7,2.3-6,3.8-9.2,5.2
				c-6.4,2.9-11.8,6.1-16.2,11.7c-4.4,5.5-8,11.7-12.4,17.3c-4.7,5.9-9.7,11.5-15.1,16.8c-10.7,10.6-22.6,20-35,28.6
				c-5.1,3.5-10.2,7.1-15.5,10.3c-22.2,9.3-46.6,10.6-71,8.6c-16.6-1.4-33-4.5-49-9.2c-7.3-2.2-16.1-4.5-19.1-12.4
				c-2.6-6.8-2.4-14.7-2-22c1.8-1.1,4.1-1.5,6.2-2c8.2,6.2,17.5,10.8,27.9,13.2c9.7,2.2,20.1,3.7,30.1,4.1
				c5.8,0.2,11.7,0.2,17.5-0.1c5.9-0.2,11.6-1.5,17.5-2.2c0.1,0,0.2-0.1,0.3-0.2c3.9-0.5,7.8-1.1,11.7-1.8
				c7.7-1.5,15.3-3.1,22.7-5.7c4.8-1.6,9.1-3.9,13.4-6.3c5.8-1.7,11.7-5.6,16.5-8.6c6-3.7,11.6-8,16.4-13.1c5-5.3,9.2-11.1,13-17.4
				c3.6-6.1,7.4-12.4,10.4-18.8c0.6-0.8,1.1-1.5,1.7-2.3c0.6-0.8,1.2-1.7,1.8-2.5c1-0.1,2-1,1.6-2.3c0,0,0,0,0-0.1
				c2.1-3.1,4.2-6.1,6.5-8.9c5.8-6.7,16-8.1,23.3-12.9c2.6-1.7,4.7-3.6,6.4-5.7C1064.9,1689.9,1065.4,1690.5,1065.6,1692z
				 M874,1680.1c0.9,3.3,2.1,6.5,6.2,6.4c2.7-0.1,7-2.7,8.2-5.7c0.2,0,0.4-0.1,0.5-0.3c0.5-0.6,1.2-0.9,2-1.2
				c0.2-0.1,0.5-0.2,0.8-0.3c-1.3,3.9-2.8,9.1-5.1,12.3c-6.9,1.1-16,2.6-20.7-1.5c0.2-0.1,0.4-0.2,0.6-0.3
				C870,1687.5,872.2,1683.7,874,1680.1z M868.5,1679.4c0-0.2,0.1-0.4,0.1-0.6c0,0,0.1,0,0.2,0
				C868.7,1679.1,868.6,1679.2,868.5,1679.4z M894,1679.8c0,0,0.1,0,0.1,0c0.1,0.1,0.1,0.1,0.2,0.2c-0.1,0.3-0.1,0.6-0.2,0.9
				c-0.5,2.3-1.5,4.4-2.3,6.7c-0.3,0.9-0.9,2-1.3,3.1c-0.6,0-1.1,0-1.6,0.1c0.9-1.4,1.5-2.9,2.2-4.7c0.8-2.1,1.7-4.2,2.7-6.3
				C893.8,1679.8,893.9,1679.8,894,1679.8z M894,1679.6c0,0.1,0.1,0.1,0.2,0.2C894,1679.7,894,1679.6,894,1679.6z M866.8,1693.9
				c2.9,1.2,6.3,1.7,9.7,1.6c-4.5,1.9-8.8,4.4-12.9,7.6c-7.4,5.8-14.5,11.9-18.5,20.7c-7.5,16.6-13.7,35.5-11.3,54
				c-4.7-3.1-9-6.6-12.8-10.6c-3.2-16.3-1.5-35.3,7.2-49.6c3.9-6.4,9-12.1,14.8-16.8c5.6-4.4,12.1-7.7,18.3-11.2
				C862.7,1691.5,864.8,1693.1,866.8,1693.9z M912.7,1785.5c-0.9-4.2-1.5-8.4-1.9-12.7c-1-8.2-0.8-16.3-0.3-24.5
				c1-16.2,4.8-31.8,8.6-47.5c1.5-0.2,2.9-0.5,4.3-0.9c1.3-0.1,2.6-0.2,3.9-0.3c3.5,5.3,7.3,10.4,10.1,16.2c3.8,7.7,5.3,15,5.8,23.5
				c1,16.4-0.3,32.9-1,49.3c-3.5,1-7.1,2-10.6,2.7c-5.9,1.2-11.7,1.9-17.5,2.4C914.4,1790.9,913.3,1788.3,912.7,1785.5z
				 M908.6,1745.4c-0.9,8.2-0.9,16.3-0.5,24.5c0.2,3.6,0.6,7.1,1.2,10.6c0.7,4.4,2.4,8.8,3.1,13.2c-8,0.6-16.1,0.6-24.3,0.4
				c-3.9-0.1-7.8-0.4-11.8-1c-0.9-17.4-6.6-34.4-2.4-51.8c3.9-16.5,14.5-29.8,26.9-40.9c1.9,0.4,3.9,0.6,5.7,0.8
				c3.4,0.3,6.9,0.2,10.3-0.2C913.1,1715.7,910.2,1730.5,908.6,1745.4z M964,1774.6c0-0.1,0-0.1,0-0.2
				C964.1,1774.4,964.1,1774.5,964,1774.6C964.1,1774.5,964.1,1774.5,964,1774.6z M1041.5,1628.6c2.8-2.1,5.1-4.6,6.9-7.5
				c1.2-1.9,2-4,3.1-6c0.6-1.1,1.3-2.8,2.2-3.6c3.6-2.8,5.2,0.7,6.3,3.3c2.4,5.4,0.9,10.1,1.3,15.6c0.2,3.3,1.7,6.2,2.7,9.3
				c-0.1,1.4-0.2,2.9-0.4,4.5c0,0.3-0.1,0.7-0.1,1c-3.8-3.2-10.5-0.7-14.8,0.2c-4.8,0.9-11-0.9-14.6-4.5c-1.9-1.9-2.5-4.6-3.7-7
				C1034.5,1632.8,1038.3,1631,1041.5,1628.6z M997.5,1652.4c1.8-3.6,3.2-7.5,5.3-11c2-3.4,4.4-6.4,7-9.3c2.8,1.8,6.2,2.6,9.5,2.8
				c3,0.2,6,0,9-0.6c0.9,2.6,0.8,5.6,2.6,8c2,2.7,5.6,4,8.7,5c3.3,1.1,6.5,1.3,10,0.6c2.2-0.4,4.4-1.3,6.7-1.6
				c2.8-0.3,4.7,0.7,7.2,1.5c-0.1,3.1-0.1,6.2-0.2,9.3c-0.2,7.4-0.7,14.8-1.6,22.1c-2.6,7.2-7.9,10.6-15.1,14.6
				c-6.6,3.6-12.7,7.5-17,13.8c-1,1.5-2,3.1-2.9,4.6c-2.9-8.9-6.6-17.8-11.8-25.5c-6.1-9-15.2-14.6-24.8-19.3
				C992.6,1662.5,995,1657.4,997.5,1652.4z M986,1674.1c0.8-1.2,1.5-2.5,2.3-3.8c4,2.8,8.4,5.1,12.5,7.6c5,3.1,8.5,7.2,11.6,12.1
				c5.3,8.3,8.4,17.4,11.5,26.7c-1.3,2.3-2.5,4.6-3.8,6.9c-7.5,9.1-11.7,20.7-19,30.1c-1.9-12.9-4.5-25.7-9.7-37.7
				c-4-9.5-10.3-19.8-20.1-24.1C976.9,1686.6,981.8,1680.6,986,1674.1z M968.4,1694.7c5.1,3,9.6,6.1,13.2,11.1
				c3.6,5,6.1,10.8,8.2,16.5c4.1,11.3,6.3,23.2,8.1,35c0,0.1,0,0.1,0,0.2c0,0.1-0.1,0.1-0.2,0.2c-5.2,5.4-11.4,9.9-17.9,13.7
				c-3.5,2-7.5,3.6-11.2,5.4c-1.1-1.4-2.2-2.7-2.8-4.6c-0.7-2.2-0.8-4.4-1.1-6.6c0.6-8.1,0.8-16.2,0.3-24.1
				c-0.6-9.6-3.4-22.7-12.5-28.1C957.5,1706.7,962.5,1700.3,968.4,1694.7z M950.6,1714.4c0.2,0.2,0.5,0.3,0.8,0.3
				c9.5,7.2,11.5,21.6,11.7,32.9c0.2,11.9-1.7,23.6-3,35.4c-2.8,0.9-5.7,1.8-8.5,2.7c-2.2,0.7-4.3,1.4-6.5,2.1
				c-0.1-8.7-0.3-17.5-0.4-26.2c0-9,1.1-18.1,0.5-27.1c-0.8-12.1-6.6-25.8-14.7-35.4c0.8-0.1,1.7,0,2.7,0.6c0.4,0.2,0.7,0.4,1,0.7
				C936.9,1707.4,943.2,1713.2,950.6,1714.4z M936.5,1688.1c0.8-1.3,1.8-2.4,3-3.4c0.1-0.1,0.3-0.2,0.4-0.3c0.8-0.6,1.6-1.2,2.4-1.8
				c0.4,0,0.9,0.1,1.3,0.2c-1.1,1.6-2.2,3.1-3.5,4.5c-1.5,1.6-2.4,2.9-3.1,5c-0.4,1.3-0.7,2.6-0.9,3.9
				C935.8,1693.5,935.8,1690.8,936.5,1688.1z M896.4,1685.8c0.6-2,1.4-4.1,1.7-6.2c5.6-1.4,11.5-1.8,17.3-1.6
				c5.8,0.2,15.4,0.6,19.2,5.7c-1.5,2.7-2.7,5.8-3.9,8.6c-8.8,2.7-17.7,5.5-27,3.4c-2.6-0.6-4.8-1.8-7.1-2.9
				c-0.3-1.4-0.6-2.8-0.5-4.3C896.1,1687.6,896.2,1686.7,896.4,1685.8z M897.6,1699.9c-11.6,11.1-20.7,24.8-25.2,40.3
				c-2.5,8.6-3,17.2-2.1,26.1c0.9,8.8,1.8,17.9,3.6,26.6c-13.2-2.1-26.5-6.7-38-13.8c0.5-17.9,1.4-35.8,9.1-52.4
				c3.8-8.2,9.8-14,16.6-19.7c7.7-6.4,15.9-11.3,25.9-12.6C890.2,1697.2,893.8,1698.8,897.6,1699.9z M910.1,1629.2
				c-0.3,2.1-1.3,3.9-1.8,5.9c0,0.1,0,0.3,0,0.4c0,0.2-0.1,0.3-0.2,0.5c-0.9,3.3-1.4,6.5-1.7,9.8c-0.1,0-0.2-0.1-0.3-0.1
				c-0.3-0.1-0.7-0.1-1.1,0c0.5-1.3,1-2.6,1.6-3.8c0.7-1.6-1.6-2.6-2.2-0.9c-0.5,1.4-0.9,2.7-1.3,4.1c-0.3,0-0.6,0.1-0.9,0.2
				c-1,0.6-1.6,1.5-2.3,2.5c-0.7,1-1.5,1.9-2.3,2.8c-1,1,0.4,2.9,1.5,2c0.8-0.6,1.5-1.1,2.3-1.7c-1.4,5.3-2.7,10.5-4.9,15.7
				c-1.3,2.9-2.4,5.8-3.4,8.8c-1,0-2.1,0.5-2.8,0.9c-0.7,0.4-1.2,0.8-1.7,1.3c-0.7-1.4-2.8-1.5-3.4,0.2c-1,3.2-5.2,6.2-7.2,1.8
				c-0.6-1.4-0.8-2.9-1.4-4.4c2.4-4.7,4.5-9.6,6.4-14.6c1.4-3.7,2.6-7.4,3.8-11.2c1,1.1,2.2,1.8,3.7,1.3c1.2-0.3,1.6-1.4,1.4-2.5
				c0-0.1,0-0.1,0-0.2c0.1-0.2,0.1-0.4,0.1-0.7c0-2.6-0.5-6.2,2.3-7.8c2.8-1.5,0.3-5.9-2.5-4.3c-0.4,0.2-0.8,0.5-1.1,0.8
				c0.8-2.9,1.5-5.9,1.8-8.9c1.3,2,3.3,3.8,5.2,4.6c3.6,1.7,7.8-1,9.8-4.5c-0.8,3.4-1.7,6.8-2.6,10.1c-0.1,0.3,0.4,0.4,0.5,0.1
				c1.4-4,2.8-8,4.1-12c0.1-0.1,0.2-0.2,0.2-0.4c0-0.1,0-0.1,0-0.2c0,0,0-0.1,0-0.1c0,0.1,0.1,0.3,0.2,0.5c0.1,0.2,0.1,0.5,0.2,0.7
				C910,1627.2,910.2,1628.1,910.1,1629.2z M901.6,1606.8c1.2-1.2,2.5-2.2,3.6-3.4c4.9,1.3,4.6,10.2,4.7,14.4
				c-0.2,0.1-0.4,0.3-0.5,0.6c-0.3,1.3-0.7,2.7-1,4c0,0-0.1,0.1-0.1,0.1c0-0.2-0.1-0.5-0.2-0.8c-0.8-2.8-4.9-2.2-5.1,0.7
				c-0.1,1.4-0.8,3.2-2,4.1c-1,0.7-1.6,0.8-2.8,0c-0.6-0.4-1.2-1.1-1.7-1.6c-2.2-2.4-2.1-5.5-2.3-8.6c0.3-0.6,0.6-1.2,1-1.7
				C897.1,1611.7,899.3,1609.2,901.6,1606.8z M871.4,1623.8c6.6-7.4,13.7-15.7,21.6-22c1,0.7,2.2,1.2,3.4,1.6
				c-2.7,2.9-4.9,6.2-6.5,8.9c-2.9,5-5.4,12.7-5.3,19.2c-2.9,2.8-5.5,5.8-8,8.9c-1-1.9-2.2-3.6-3.2-4.7c-1.7-1.7-5-4.2-8.3-5.1
				C867.2,1628.4,869.3,1626.1,871.4,1623.8z M847.3,1650.3c4.6-5.1,9.2-10.1,13.8-15.2c2.6,1.8,6.3,2.7,8.5,5.2
				c1.9,2.2,2,5.2,2.9,7.8c-1,2.2-1.9,4.3-3.1,6.4c-2.3,4-6.4,6.5-8.7,10.6c-1.7,3-3.1,6.1-4.4,9.3c-1.1-3-2.8-5.7-4.7-7.9
				c-2.8-3.2-7.3-6.6-12-7.8C842.2,1655.9,844.7,1653.1,847.3,1650.3z M835.2,1663.7c4,1.5,8,2.3,11.4,5.8c2.9,3,4.1,6.1,4.8,9.5
				c-3,0.8-5.8,2.2-8.4,3.6c-5,2.6-9.7,5.9-14,9.7c-4.8,4.1-9.1,8.7-13.2,13.5c-1,1.2-2,2.6-3,3.8c-0.6-3.4-3.4-6.1-6.3-8.5
				C814.6,1687.5,824.7,1675.4,835.2,1663.7z M792.9,1690.5c2.2,3.6,4.5,6.7,7.7,9.6c2.7,2.4,4.6,4.3,6,7.6c0.7,1.6,1,2.9,1.6,4.3
				c-2.7,0.4-5.5,0.3-8.1,0.7c-3.1,0.4-6,1-8.8,1.8c-1-5.5-2.1-10.9-3.3-16.3c-1.3-5.8-2.8-11.6-4.2-17.4c-0.6-2.2-1.1-4.4-2.3-6.5
				c-0.4-0.8-0.9-1.5-1.4-2.3c3.3,0.3,6.9,0.8,10.1,0.2C787.8,1678.1,789,1684.1,792.9,1690.5z M792.3,1667.4
				c-0.1,0-0.1-0.1-0.2-0.1c0,0,0,0,0,0c0.1-0.1,0.2-0.1,0.3-0.2C792.4,1667.3,792.4,1667.3,792.3,1667.4z M767.9,1644.2
				c8.5,0.3,17,1.2,25.1,3.7c0.6,0.2,1.3,0.5,1.9,0.7c0.5,0.2,1.2,0.4,1.8,0.6c0.8,0.3,1.5,0.6,2.3,0.9c0.2,0.1,0.4,0.3,0.6,0.5
				c0.5,0.6,0.9,1.7,1,2.7c-2.3,2.7-4.5,5.4-7.4,7.4c-5.6,4.1-12.2,4.2-18.9,4.2c-4.3,0-9,0.1-13.7-0.1c-2.2-0.4-4.3-0.9-6.4-1.5
				c-2.1-0.5-4.3-1.2-6.4-1.8c3.1-6.3,6.5-11.8,11.4-17.2C762.2,1644,765.3,1644.1,767.9,1644.2z M752.1,1646
				c-3.2,4.3-5.8,9.5-7.1,14.6c-1.8-0.6-3.5-1.2-5.3-1.7c3.6-2.6,5.2-7,8.4-10.3C749.3,1647.5,750.6,1646.7,752.1,1646z"/>
			<path fill="#05132B" d="M1122.9,1578.5c2.8,2.3,6.5,4.3,9.8,5.9c0.8,0.4,1.7,0.8,2.5,1.1c-0.3,0.2-0.6,0.5-0.8,0.8
				c-2.9,3.2-1.8,9.2-4.8,11.8c-2.1-0.7-3.4-2.2-4.8-4.2c-1.9-2.8-1.8-4.9-1.2-8.2c0.2-0.8-0.9-1.8-1.6-0.9
				c-3.4,4.1-4.1,10.9-0.8,15.3c3.4,4.6,9.5,7.1,14,2.6c2.5-2.5,2.8-5.4,3.7-8.7c1.2-4.6,6.7-4.4,10.7-4.5c4.1-0.1,8.2,0.3,12.4,0.4
				c3.6,0.1,7.1,0.6,10.3-1.2c1.9-1.1,1.6-3.6,0-4.7c-3.5-2.4-8.8-1.9-13-2c-3.6-0.2-7.3-0.4-11-0.2c-0.7-0.3-1.4-0.7-2.1-0.9
				c-2.7-0.7-5.2-0.8-7.8-1.9c-0.7-0.3-1.3-0.6-2-0.9c1.8-0.4,3.7-1,5.6-1.2c2.8-0.3,5.6-0.5,8.3-0.7c3-0.2,6.5,0.2,9.7-0.2
				c-0.7-0.7-0.9-1.1-0.9-1.1s3.5,1.3,6.2-6.7c1.7-5.1,1.2-10.3-1.3-14.3c0.6,4-0.1,8.4-2,11.7c-1.5,2.6-3.2,2.5-6,2.5
				c-3.1,0-6.2,0.2-9.3,0.4c-2.7,0.2-5.4,0.4-8,0.8c-1.1,0.2-2.2,0.4-3.3,0.6c-1.6,0.3-0.9,0.6-2.4,0c-3.2-1.3-3.9-5-3.6-8.7
				c0.5-2.5,1.3-5.1,2.6-6.9c0.3-0.5,0.5-1.1,0.6-1.6c-1.3,1.1-2.5,2.4-3.6,3.9c-7.1,9.9-5,19.7-5,19.7s-1.2-0.8-3.1-1.5
				C1120.8,1576.2,1121.5,1577.3,1122.9,1578.5z"/>
			<path fill="#05132B" d="M1175.5,1590.4c-0.4,0.4-0.3,1.3,0.2,1.5c3.8,1.7,8,0.5,11.6,2.3c3.4,1.6,5.5,4.2,9.3,4.7
				c2.5,0.3,4.4-3.2,3-5.2c-0.2-0.3-0.5-0.6-0.8-0.9c-3.2-1.5-5.3-2.4-5.3-2.4s-3-1.7-7.2-3.7
				C1182.4,1586.3,1178.3,1588,1175.5,1590.4z"/>
			<path fill="#05132B" d="M1193.9,1627.6c2.3,0,4.7-0.5,6-2.6c1.3-2.1,1.2-4.8,0.8-7.1c-0.5-2.3-1.1-5.7-3.2-7
				c-2.8-1.8-6.4,1.8-4.6,4.6c0.6,0.9,0.8,2.8,1.1,3.8c0.1,0.5,0.4,1.4,0.2,1.9c0,0.1-0.1,0.2-0.1,0.2c-0.1,0.1-0.2,0.2-0.4,0.4
				c-1,1-4.3,1.9-3.9,3.7C1190.1,1627.6,1192.3,1627.6,1193.9,1627.6z"/>
		</g>
		<path fill="#E5F4FB" d="M1060.3,1612.6l0-0.2C1060.3,1612.5,1060.3,1612.6,1060.3,1612.6z"/>
		<g>
			<g>
				<g>
					<path fill="#B6C1C6" d="M885.3,1667.4c0.1,0.2,0.1,0.3,0.2,0.3C885.4,1667.6,885.4,1667.5,885.3,1667.4z"/>
					<path fill="#B6C1C6" d="M1192.4,1622.8L1192.4,1622.8C1192.4,1622.8,1192.4,1622.8,1192.4,1622.8L1192.4,1622.8z"/>
					<path fill="#B6C1C6" d="M817.2,1647.5c0.8,0.3,2.6,2,3.3,2.1c1.5,0.2,5.1-4.6,3.3-5.3c-1.2-0.5-0.8-2.1,0.5-1.9
						c7.4,1.2,1.6,12.1-4.3,11.8c-1.5-0.1-5.3-3.2-6.2-2.7c-2.9,1.9,1.8,5.6,3.3,5.9c1.6,0.4,3.8,0.2,5.4-0.2c2.8-0.8,4.7-3,6.5-5.1
						c1.6-2,2.3-4,3-6.1c0-0.1,0-0.3,0-0.4c-0.2-2.8-1.9-4.9-4.3-6.3c-3.2-1.9-6.5-0.8-8.6,2c-0.1,0.2-0.2,0.4-0.3,0.6
						c-2.4,0.6-4.2,1.8-5.7,3.9c-0.3,0.4-0.5,0.8-0.7,1.2C814,1646.7,815.7,1647,817.2,1647.5z"/>
					<path fill="#B6C1C6" d="M845,1620.9c1.3,0.9,2.5,2,4.2,1.2c2-0.9,3.1-4.2,1.2-5.9c-1.3-1.2,0.4-3,1.8-2.3
						c3.7,1.9,3.8,7.6,1.1,10.4c-4.7,4.8-8.4,1.7-12.8-0.7c0,1.9,0.3,3.8,1.8,5.1c2,1.7,6,1.3,8.4,0.9c5.9-1.1,6.5-5.9,9.1-9.8
						c0.1-1.4-0.1-2.8-0.5-4.2c-0.5-1.7-1.7-3.4-3.2-4.3c-0.7-0.4-1.4-0.7-2.2-0.9c-0.2-0.1-2.3-0.5-1.5-0.3
						c-2.5-0.8-5.9-1.7-8.5,1.1c-0.8,0.9-1.3,1.9-1.5,3c-1.4,0.7-2.6,1.7-3.5,3c0,0,0,0,0.1,0C841.2,1618.2,843,1619.5,845,1620.9z"
						/>
					<path fill="#B6C1C6" d="M861.9,1600.4c1.4,0.2,2.3,1.2,3.4,1.9c1.5,1.3,3,1.1,4.5-0.7c-0.5-1.3-0.4-2.3,0.3-3
						c-1,0.3-2.2-1-1.5-2c2.2-2.9,4.6-0.1,5.1,2.5c0.7,4-0.5,8.4-5,9.1c-1,0.2-2.1,0.1-3.1-0.2c-0.9-0.2-3.1-2-3.7-1.9
						c-2.6,0.2,1.5,3.6,2.2,3.8c1.8,0.6,3.7,0.3,5.4-0.2c3.7-1.1,5.8-4.3,7.1-7.7c1.1-3.1-0.2-6.2-0.3-9.4c-2.7-1.9-6.6-2.2-9.8-0.4
						c-1.9,1.1-2.9,3.3-2.7,5.5c-1.6,0.6-3,1.6-4,2.9C860.4,1600.4,861.2,1600.3,861.9,1600.4z"/>
					<path fill="#B6C1C6" d="M908.4,1610.4c-3.3-3.9-8.1-1-11.1,1.5c-0.3,0.2-0.5,0.5-0.8,0.8c-2.3,3.5-3.1,7.9-1.4,11.9
						c1.5,3.7,5.8,4.2,9.4,3.7c2.7-2.2,4.3-6.1,3.2-9.4c-0.1-0.4-0.3-0.7-0.5-1C909.8,1616.5,910.6,1612.9,908.4,1610.4z
						 M902.6,1626.8c-1.9,0.7-4.3-0.3-5.5-1.9c-1.5-1.9-1-4.3-0.2-6.4c0.6-1.5,2-3.8,3.9-3.1c0.6,0.2,0.8,0.7,0.8,1.3
						c-0.1,0.7-0.5,1.1-0.8,1.6c-0.4,0.7-0.5,1.5-0.5,2.3c0,0.3,0,0.6,0.1,0.9c0.2-2.4,3.6-3.1,4.5-0.5
						C905.7,1623.2,904.8,1625.9,902.6,1626.8z"/>
					<path fill="#B6C1C6" d="M890.6,1650.1c1.4,3.5,4.6,4.1,7.5,1.6c1.3-1.2,2-3.1,3.1-4.6c0.2-0.3,0.5-0.4,0.8-0.5
						c0.3-2.3,0.4-4.9-0.3-7.1c1.3-2.7,0.8-6-3-6.6c-3-0.5-5.5,0.8-7.3,2.9v0C889.7,1639.6,889.1,1646.3,890.6,1650.1z
						 M892.5,1643.3c0.9-1.6,2.3-3.5,4.3-3.9c0.6-0.1,1.3,0.4,1,1.1c-0.5,1.6-1.8,2.9-2.3,4.5c0.1-0.2,0.3-0.5,0.4-0.7
						c1-1.9,4.2-1.5,4.7,0.6c0.4,2.2-1,5.1-3,6c-2,0.9-4.8,0.2-6-1.7C890.3,1647.3,891.5,1645,892.5,1643.3z"/>
					<path fill="#B6C1C6" d="M877.7,1678.3c0.7,3.2,2.9,6,6.4,5.2c1.8-0.4,3-1.6,3.7-3.2c-2.9,2.6-7.2,3.8-9.4-0.4
						c-1-2.1-0.8-4.6,0-6.7c0.7-1.6,1.7-3.8,3.5-4.2c0.6-0.1,1.2,0.1,1.5,0.5c0.5-0.5,1.1-0.9,1.6-1.5c0.3-0.3,0.4-0.3,0.5-0.3
						c0.5,0.8,1.4,1.1,2.3,0.6c1.4-0.8,2-2.4,1.3-3.9c-1-2.1-3.6-2.3-5.5-1.7c-0.7,0.2-1.3,0.5-1.8,0.8c0,0.1,0,0.1-0.1,0.2
						C878.7,1668.1,876.5,1673,877.7,1678.3z M885.5,1667.8C885.5,1667.8,885.5,1667.8,885.5,1667.8
						C885.5,1667.8,885.5,1667.8,885.5,1667.8z M885.5,1667.7c0-0.1-0.1-0.2-0.2-0.3C885.4,1667.5,885.4,1667.6,885.5,1667.7z"/>
					<path fill="#B6C1C6" d="M884.3,1675.8c1.3-1.8,3.3-1.5,4.4-0.4c0.4-0.4,1-0.6,1.6-0.6c0-0.1,0-0.2,0-0.2
						c-0.1-3.1-3.8-3.8-5.6-1.5c-0.9,1.2-1.5,2.6-2.3,3.8c0,0.2,0.1,0.4,0.2,0.5C883.3,1677.4,884.1,1676.2,884.3,1675.8z"/>
					<path fill="#B6C1C6" d="M952.7,1680.5c1.2,0.5,2.4,1.2,3.5,0.3c0.7-0.6,1.9-2.2,1-2.9c-1.2-0.9-1.5-2.8,0-3.6
						c2.2-1.1,4.5,0,5.5,2.2c1,2.5-0.2,5-1.7,7c-1.6,2.1-3.7,3.4-6.3,3c-1.2-0.2-2.3-0.7-3.4-1.4c-0.3-0.2-1.6-1.3-2.3-1.7
						c-0.9,4.4,7.8,6.4,11.5,4.5c4.4-2.4,4.5-7.3,5.6-11.5c-0.3-1.1-0.8-2.1-1.7-2.9c-1.7-1.8-4-3.2-6.5-3c-2.7,0.2-4.9,2.7-6.2,4.8
						c-0.4,0.7-0.3,1.5,0.2,2.1c-0.5,0.5-1,1.1-1.3,1.7c-0.1,0.1-0.2,0.1-0.2,0.2c0.1,0.2,0.2,0.3,0.2,0.5
						C951.2,1679.9,952,1680.2,952.7,1680.5z"/>
					<path fill="#B6C1C6" d="M969.3,1650.7c1.4,0.4,2.6,1.2,3.9,1.8c0.5,0.2,1,0.5,1.6,0.5c1.2-0.1,1.2-1.5,2.4-1.3
						c-1.4-0.2-2.3-2.2-0.8-3c1.6-0.8,3.3-0.3,4,1.3c0.8,1.8,0.2,4-0.8,5.5c-1.3,1.9-3.6,2.9-5.9,2.7c-2-0.2-3.7-1.4-5.5-2.1
						c-0.4,0.3-0.8,0.5-1.3,0.7c0.9,2.5,5.8,3.4,8,3.2c2.9-0.2,5.5-1.7,7.1-4.2c1.6-2.6,1.6-5.9,0.8-8.8c-0.6-2.2-2.1-3.6-2.9-5.6
						c-3.8-1-8.6-0.1-10.5,3.5c-0.7,1.2-1,2.6-1.1,4c-0.2,0.1-0.4,0.3-0.5,0.5c-0.5,0.6-0.9,1.1-1.2,1.6
						C967.3,1650.5,968.3,1650.4,969.3,1650.7z"/>
					<path fill="#B6C1C6" d="M984,1626.3c0.9,0.1,1.8,0.3,2.6,0.4c1.8,0.8,2.2,0,1.2-2.3c-1.6-1.1-0.2-3.5,1.5-2.6
						c6.2,3.1,3.8,10.8-3,10.4c-0.9-0.1-1.7-0.2-2.6-0.4c-2.3-0.4-1.3,0,0,1.1c2,1.6,3.9,1.6,6.4,0.8c5-1.6,4.4-8.7,2.7-12.7
						c-1.1-1-2.5-1.6-4.2-1.6c-3.3,0-5,2.8-5.5,5.8c-0.5,0.2-0.9,0.6-1.2,0.9C982.7,1626.1,983.3,1626.2,984,1626.3z"/>
					<path fill="#B6C1C6" d="M1135.8,1602.4c2-0.8,4.8-2.9,4.8-5.4c0-5.9-2.7-2.1-3.6-0.9c-1.2,1.6-1.9,3-3.9,3.6
						c-7.9,2.4-13.3-10.7-5.3-11.3c0.9-0.1,1.3,1,1,1.7c-0.4,0.8-0.4,1.6-0.2,2.5c2.4,1.9,3.9,1.7,4.5-0.4c1-0.7,1.5-2,2.6-2.7
						c1.4-0.9,3-1.3,4.5-1c-0.2-0.2-0.3-0.3-0.6-0.5c-1.7-1.2-3.9-1.7-6.2-1.6c-0.1-0.4-0.2-0.7-0.5-1.1c-3.8-4-10.3-1.2-12.2,3.4
						c-1.1,2.5-0.9,5.2,0.1,7.7C1124.1,1601.2,1130.5,1604.4,1135.8,1602.4z"/>
					<path fill="#B6C1C6" d="M1162.3,1613.8c5.3,1.3,7.8-2,8.9-6.6c0.3-1.1,1.2-2.7,0.1-1.2c-0.6,0.8-0.9,1.7-1.7,2.3
						c-2.9,2.6-8.8,2.1-11.6-0.4c-2.3-2.1-3.2-6.5-0.2-8.4c2-1.3,4.3,0.4,4.5,2.6c0,0,0,0.1,0,0.1c0.1,0.9-0.4,1.7-1.1,2.2
						c1.7-0.8,2.9,0.2,4.6-0.6c0.9-0.4,1.1-0.9,1.8-1.6c0.7-0.6,1.2-1.2,1.9-1.5c-1.1-0.8-2.4-1.6-3.8-2.1c0.8-0.7,1.2-1.8,0.4-3
						c-3.8-5.5-11.6-0.9-14.5,3.7C1149.9,1606.2,1155.6,1612.2,1162.3,1613.8z"/>
					<path fill="#B6C1C6" d="M1182.3,1607.1c-2,3.2-4.2,5.6-3.9,9.7c0.2,3.4,2.2,5.6,5,7.4c5.5,3.5,10.3,3.2,15.3,0.4c0,0,0,0,0,0
						c1.2-1.9,1.5-4.6,1.3-6.9c-0.3,0-0.6-0.1-0.9-0.3c-1.7-0.9-5.9,3.2-7.7,3.9c-1.9,0.7-4.2,1.2-6.2,0.3c-4.2-1.9-3.3-6.8-0.6-9.4
						c1.1-1.1,2.7,0.3,2.1,1.6c-1.8,3.6,1.7,3.8,4,2.6c1.4-0.7,2.4-1.9,3.7-2.7c1-0.7,2.2-1.2,3.3-1.3c-0.9-0.8-2-1.4-3.4-1.9
						c-2-0.7-3.9-1.5-5.8-1.7c-0.7-1.7-2.6-2.6-4.4-2.4c-0.6,0.1-1.2,0.2-1.7,0.4C1182.5,1606.8,1182.4,1606.9,1182.3,1607.1z
						 M1192.4,1622.8L1192.4,1622.8L1192.4,1622.8C1192.4,1622.8,1192.4,1622.8,1192.4,1622.8z"/>
					<path fill="#818D97" d="M837.4,1626.3c2.1,6.6,10.2,8.3,15.8,4.7c3.9-2.5,6.4-6.7,6.6-11.2c-2.5,3.9-3.2,8.7-9.1,9.8
						c-2.5,0.5-6.4,0.9-8.4-0.9c-1.5-1.3-1.8-3.2-1.8-5.1c4.3,2.4,8.1,5.5,12.8,0.7c2.7-2.8,2.7-8.5-1.1-10.4
						c-1.4-0.7-3.1,1.1-1.8,2.3c1.9,1.7,0.8,4.9-1.2,5.9c-1.7,0.8-2.9-0.2-4.2-1.2c-2-1.4-3.8-2.7-6-3.6c0,0,0,0-0.1,0
						C837.1,1619.8,836.5,1623.2,837.4,1626.3z"/>
					<path fill="#818D97" d="M811.2,1653.6c0.6,2.9,2.9,5.2,5.7,6c2.8,0.8,6-0.2,8.4-1.5c4.6-2.5,6.9-7,6.7-12.1
						c-0.6,2.1-1.4,4.2-3,6.1c-1.8,2.2-3.7,4.3-6.5,5.1c-1.6,0.4-3.8,0.6-5.4,0.2c-1.5-0.3-6.2-4-3.3-5.9c0.9-0.6,4.6,2.6,6.2,2.7
						c5.9,0.3,11.7-10.7,4.3-11.8c-1.3-0.2-1.7,1.4-0.5,1.9c1.8,0.7-1.8,5.5-3.3,5.3c-0.7-0.1-2.5-1.8-3.3-2.1
						c-1.5-0.6-3.2-0.9-4.8-0.5C811.4,1649,810.8,1651.4,811.2,1653.6z"/>
					<path fill="#818D97" d="M858.1,1606.2c0.7,6.3,8.8,6.9,13.5,5.2c4.8-1.8,8-7.3,8-12.4c0-2.9-1.3-5.1-3.3-6.4
						c0,3.2,1.4,6.2,0.3,9.4c-1.3,3.5-3.4,6.6-7.1,7.7c-1.7,0.5-3.7,0.8-5.4,0.2c-0.7-0.2-4.8-3.7-2.2-3.8c0.6-0.1,2.8,1.7,3.7,1.9
						c1,0.3,2.1,0.3,3.1,0.2c4.5-0.7,5.7-5.1,5-9.1c-0.5-2.6-2.9-5.3-5.1-2.5c-0.7,0.9,0.5,2.3,1.5,2c-0.8,0.8-0.8,1.8-0.3,3
						c-1.5,1.8-3,2.1-4.5,0.7c-1.2-0.7-2-1.6-3.4-1.9c-0.8-0.1-1.5-0.1-2.2,0.1C858.6,1602.1,857.9,1604.1,858.1,1606.2z"/>
					<path fill="#818D97" d="M895.2,1624.6c-1.7-4.1-1-8.4,1.4-11.9c-2.4,2.4-4,5.6-3.9,9c0,2.2,0.5,4.5,2,6.2
						c1.7,1.9,4.3,2.6,6.8,2c1.1-0.3,2.2-0.8,3.1-1.6C900.9,1628.8,896.7,1628.3,895.2,1624.6z"/>
					<path fill="#818D97" d="M900.4,1621.6c-0.1-0.3-0.1-0.6-0.1-0.9c0-0.8,0.1-1.6,0.5-2.3c0.3-0.6,0.7-1,0.8-1.6
						c0.1-0.6-0.2-1.1-0.8-1.3c-1.9-0.8-3.3,1.6-3.9,3.1c-0.8,2.1-1.3,4.5,0.2,6.4c1.2,1.5,3.6,2.6,5.5,1.9c2.2-0.8,3-3.6,2.3-5.7
						C904,1618.4,900.5,1619.2,900.4,1621.6z"/>
					<path fill="#818D97" d="M890.9,1654.3c3.5,2.8,8.8-0.1,10.2-3.9c0.4-1,0.7-2.3,0.9-3.8c-0.3,0.1-0.6,0.2-0.8,0.5
						c-1.1,1.4-1.8,3.4-3.1,4.6c-2.8,2.5-6.1,1.9-7.5-1.6c-1.5-3.8-0.9-10.5,0.8-14.2v0c-1.1,1.3-1.9,2.8-2.4,4.4
						C887.9,1644.1,887.3,1651.4,890.9,1654.3z"/>
					<path fill="#818D97" d="M891.5,1649.2c1.2,1.9,4,2.6,6,1.7c2-0.9,3.5-3.9,3-6c-0.4-2.1-3.7-2.5-4.7-0.6
						c-0.1,0.2-0.2,0.4-0.4,0.7c0.5-1.6,1.8-2.9,2.3-4.5c0.2-0.7-0.5-1.2-1-1.1c-1.9,0.4-3.3,2.3-4.3,3.9
						C891.5,1645,890.3,1647.3,891.5,1649.2z"/>
					<path fill="#3109FF" d="M882.9,1670c-1.1,1.5-1.3,3.7-1.5,5.5c-0.1,0.5-0.3,1.9-0.2,3c0.1-0.2,0.3-0.4,0.4-0.6
						c0.3-0.3,0.5-0.7,0.8-1c0-0.1-0.1-0.2-0.1-0.3c-0.2-1.2,0-4.2,0.9-5.2c0.5-0.6,0.5-1.4,0.1-1.9
						C883.2,1669.6,883,1669.8,882.9,1670z"/>
					<path fill="#818D97" d="M875.6,1675.1c-0.7,5.4,0.3,11,6.9,10.6c5.3-0.3,8-6.2,7.9-10.9c-0.6,0-1.2,0.2-1.6,0.6
						c-1.1-1.1-3.1-1.4-4.4,0.4c-0.3,0.4-1.1,1.6-1.7,1.7c-0.1-0.2-0.2-0.3-0.2-0.5c-0.2,0.4-0.5,0.7-0.8,1
						c-0.2,0.2-0.3,0.4-0.4,0.6c-0.1-1.1,0.1-2.5,0.2-3c0.2-1.8,0.4-3.9,1.5-5.5c0.2-0.2,0.3-0.4,0.5-0.6c-0.3-0.4-0.8-0.7-1.5-0.5
						c-1.9,0.4-2.9,2.6-3.5,4.2c-0.8,2.1-1.1,4.6,0,6.7c2.2,4.2,6.5,3,9.4,0.4c-0.7,1.5-1.9,2.7-3.7,3.2c-3.5,0.8-5.7-2-6.4-5.2
						c-1.2-5.3,1-10.2,4-14.5c0-0.1,0.1-0.1,0.1-0.2C877.8,1666,876.2,1670.7,875.6,1675.1z"/>
					<path fill="#818D97" d="M948.1,1688.4c0.6,0.9,1.5,1.4,2.4,1.8c1.7,1.4,4.4,1.8,6.4,1.4c3.5-0.6,7-3,8.5-6.4
						c0.5-1.3,0.9-2.9,0.7-4.5c0.3-1.4,0.3-2.9-0.1-4.2c-1.2,4.2-1.2,9.1-5.6,11.5c-3.7,2-12.4-0.1-11.5-4.5c0.7,0.4,2,1.5,2.3,1.7
						c1.1,0.7,2.2,1.2,3.4,1.4c2.7,0.4,4.8-0.9,6.3-3c1.5-2,2.8-4.5,1.7-7c-1-2.3-3.2-3.4-5.5-2.2c-1.5,0.8-1.2,2.7,0,3.6
						c0.9,0.7-0.2,2.3-1,2.9c-1.1,0.9-2.3,0.2-3.5-0.3c-0.7-0.3-1.5-0.6-2.2-0.8c0-0.2-0.1-0.4-0.2-0.5
						C947.5,1681.2,946,1685.5,948.1,1688.4z"/>
					<path fill="#818D97" d="M967.3,1659.8c2.9,2.7,7.9,2.9,11.4,1.4c4.3-1.9,6.5-5.5,6.8-10.1c0.3-4.1-0.5-8-4.8-9.5
						c-0.3-0.1-0.5-0.2-0.8-0.2c0.8,2,2.3,3.5,2.9,5.6c0.8,2.9,0.8,6.2-0.8,8.8c-1.6,2.6-4.2,4-7.1,4.2c-2.1,0.2-7.1-0.7-8-3.2
						c0.5-0.1,0.9-0.4,1.3-0.7c1.8,0.7,3.5,1.9,5.5,2.1c2.3,0.2,4.5-0.8,5.9-2.7c1.1-1.6,1.6-3.7,0.8-5.5c-0.8-1.7-2.4-2.2-4-1.3
						c-1.5,0.8-0.6,2.8,0.8,3c-1.1-0.1-1.2,1.2-2.4,1.3c-0.6,0.1-1.1-0.3-1.6-0.5c-1.3-0.6-2.5-1.3-3.9-1.8c-1-0.3-2-0.2-2.9,0.2
						c-0.6,0.9-1.1,1.8-1.2,3.2C965.1,1656.2,965.7,1658.3,967.3,1659.8z"/>
					<path fill="#818D97" d="M981,1633.6c2.2,3.1,5.6,3.8,8.9,1.9c3.1-1.7,5.3-5.1,5.4-8.7c0-2.2-0.8-4.3-2.3-5.7
						c1.7,4.1,2.3,11.1-2.7,12.7c-2.4,0.8-4.3,0.8-6.4-0.8c-1.3-1.1-2.3-1.5,0-1.1c0.9,0.2,1.7,0.3,2.6,0.4c6.8,0.4,9.2-7.3,3-10.4
						c-1.8-0.9-3.1,1.5-1.5,2.6c1,2.3,0.6,3.1-1.2,2.3c-0.9-0.1-1.8-0.3-2.6-0.4c-0.7-0.1-1.3-0.2-2-0.2
						C979.9,1628,979.1,1631,981,1633.6z"/>
					<path fill="#818D97" d="M1178,1611.2c-2.3,5.5,0,12.8,5.1,15.8c5.1,3,12.2,3,15.6-2.5c-5,2.9-9.8,3.1-15.3-0.4
						c-2.9-1.8-4.8-4-5-7.4c-0.3-4.1,2-6.4,3.9-9.7c0.1-0.1,0.1-0.3,0.2-0.4C1180.5,1607.4,1178.9,1609.3,1178,1611.2z"/>
					<path fill="#818D97" d="M1190.7,1616.3c-2.3,1.2-5.8,1-4-2.6c0.7-1.3-1-2.7-2.1-1.6c-2.8,2.7-3.7,7.5,0.6,9.4
						c2,0.9,4.3,0.4,6.2-0.3c1.8-0.7,6-4.8,7.7-3.9c0.3,0.2,0.6,0.2,0.9,0.3c0-0.5-0.1-0.9-0.2-1.3c-0.3-1.8-1-3.1-2.1-4.1
						c-1.2,0.2-2.3,0.6-3.3,1.3C1193.2,1614.4,1192.1,1615.5,1190.7,1616.3z"/>
					<path fill="#818D97" d="M1160.3,1615.8c6.7,1.4,15.3-4.4,12.1-11.7c-0.5-1.2-1.5-2.3-2.8-3.3c-0.7,0.3-1.2,0.9-1.9,1.5
						c-0.7,0.7-0.9,1.2-1.8,1.6c-1.7,0.7-2.8-0.3-4.6,0.6c0.7-0.5,1.1-1.3,1.1-2.2c0,0,0-0.1,0-0.1c-0.2-2.1-2.4-3.9-4.5-2.6
						c-3,1.9-2.1,6.3,0.2,8.4c2.8,2.5,8.7,3.1,11.6,0.4c0.7-0.7,1.1-1.6,1.7-2.3c1.1-1.5,0.2,0.1-0.1,1.2c-1.1,4.6-3.6,7.8-8.9,6.6
						c-6.7-1.6-12.4-7.7-10.6-14.4c-0.3,0.5-0.6,1-0.8,1.4C1148.3,1607.2,1154.1,1614.5,1160.3,1615.8z"/>
					<path fill="#818D97" d="M1125.6,1603c4.1,3.3,11.1,3.6,14.7-0.7c2.9-3.4,3.6-10.6-0.1-13.9c-1.5-0.3-3.1,0.1-4.5,1
						c-1.1,0.7-1.6,2-2.6,2.7c-0.6,2.1-2.1,2.3-4.5,0.4c-0.3-0.9-0.2-1.7,0.2-2.5c0.4-0.7-0.1-1.8-1-1.7c-8,0.6-2.6,13.7,5.3,11.3
						c2-0.6,2.8-1.9,3.9-3.6c0.8-1.2,3.6-5,3.6,0.9c0,2.5-2.8,4.6-4.8,5.4c-5.3,2-11.7-1.2-15.1-6
						C1121.7,1598.9,1123.5,1601.3,1125.6,1603z"/>
				</g>
				<path fill="#E5F4FB" d="M873.5,1594.4c0.4,0.6,0.6,1.1,0.8,1.8c0.2,0.6,0.2,1.1,0.7,1.5c0.2,0.1,0.5,0.1,0.6-0.1
					c0.9-1.2-0.5-2.9-1.2-3.8C873.9,1593.2,873.1,1593.9,873.5,1594.4L873.5,1594.4z"/>
				<path fill="#E5F4FB" d="M855.2,1613.8c0.5,0.3,0.6,0.8,0.8,1.2c0.1,0.3,0.2,0.5,0.3,0.8c0,0.1,0.1,0.5,0.2,0.3
					c-0.3,0.6,0.3,1.2,0.9,0.9c1.8-0.8-0.6-3.7-1.7-4.2C855.2,1612.6,854.7,1613.5,855.2,1613.8L855.2,1613.8z"/>
				<path fill="#E5F4FB" d="M827.9,1642.3c0.4,0.6,0.3,1.2,0.5,1.8c0.2,0.7,1.2,0.7,1.4,0c0.3-0.9-0.3-1.9-0.9-2.6
					C828.4,1641,827.5,1641.7,827.9,1642.3L827.9,1642.3z"/>
				<path fill="#E5F4FB" d="M897.7,1634.7C897.8,1634.8,897.9,1634.7,897.7,1634.7c0.4,0.7,1.4,0.5,1.5-0.3c0.1-0.8-0.6-1.1-1.3-1.2
					C897,1633.2,896.8,1634.5,897.7,1634.7L897.7,1634.7z"/>
				<path fill="#E5F4FB" d="M900.6,1612.3c0.4-0.2,0.7-0.2,1-0.6c0.2-0.3,0-0.7-0.3-0.8c-0.4-0.1-0.7,0.1-1.1,0.2
					C899.4,1611.3,899.9,1612.6,900.6,1612.3L900.6,1612.3z"/>
				<path fill="#E5F4FB" d="M885.6,1664.3c0.2,0.1,0.2,0.3,0.4,0.5c0.6,0.9,1.9-0.5,0.7-0.9c-0.3-0.1-0.5-0.1-0.8-0.2
					C885.5,1663.4,885.2,1664.1,885.6,1664.3L885.6,1664.3z"/>
				<path fill="#E5F4FB" d="M977.6,1643.7c2.7,0.7,3.9,4.4,4.5,6.7c0.2,0.5,1,0.6,1.1,0c0.3-1.7-0.7-3.4-1.6-4.8
					c-1-1.4-2.2-2.4-3.8-2.7C977.3,1642.8,977.1,1643.6,977.6,1643.7L977.6,1643.7z"/>
				<path fill="#E5F4FB" d="M990.3,1620.6c0.6,0.3,1.2,0.7,1.7,1.3c0.2,0.3,0.3,0.6,0.5,0.9c0.1,0.3,0.5,0.6,0.5,0.9
					c0.1,0.8,1.4,0.8,1.3,0c-0.1-0.9-0.8-1.6-1.3-2.3c-0.6-0.8-1.3-1.2-2.2-1.6C990.2,1619.6,989.8,1620.3,990.3,1620.6
					L990.3,1620.6z"/>
				<path fill="#E5F4FB" d="M961.9,1673.3c0.5,0.4,0.9,0.9,1.2,1.5c0.1,0.2,0.2,0.5,0.2,0.8c0,0.3,0,0.6,0.2,0.8
					c0.4,0.3,0.9,0.2,1.1-0.3c0.2-0.6-0.3-1.6-0.6-2c-0.4-0.6-1-1.1-1.6-1.5C961.8,1672.3,961.5,1673,961.9,1673.3L961.9,1673.3z"/>
				<path fill="#E5F4FB" d="M1126.9,1585.8c0.1,0,0.1-0.1,0.1-0.1c0.3-0.1,0.3-0.6,0-0.7c-0.1,0-0.1,0-0.1-0.1
					C1126,1584.5,1126,1586.2,1126.9,1585.8L1126.9,1585.8z"/>
				<path fill="#E5F4FB" d="M1138.3,1595c0.1,0.3,0.1,0.5,0.1,0.8c0,0.3,0,0.4,0.2,0.7c0.1,0.2,0.3,0.2,0.4,0.2
					c0.9-0.2,0.8-1.3,0.6-1.9C1139.3,1593.8,1138.1,1594.2,1138.3,1595L1138.3,1595z"/>
				<path fill="#E5F4FB" d="M1159.2,1596.9c0.3,0,0.5,0.1,0.7,0.2c0.8,0.7,1.7-0.5,0.9-1.1c-0.5-0.4-1.1-0.5-1.8-0.3
					C1158.4,1595.8,1158.5,1596.9,1159.2,1596.9L1159.2,1596.9z"/>
				<path fill="#E5F4FB" d="M1169,1608.9c0,0.1,0,0.1,0,0.2c0,0.3,0.4,0.4,0.6,0.2c0.1,0,0.1-0.1,0.1-0.1
					C1170.2,1608.7,1169.1,1608,1169,1608.9L1169,1608.9z"/>
				<path fill="#E5F4FB" d="M1197.1,1618.1c0.2,0.3,0.1,0.7-0.1,1c-0.1,0.3-0.1,0.6,0.1,0.8c0.2,0.2,0.6,0.3,0.8,0.1
					c0.5-0.3,0.7-0.8,0.8-1.4c0-0.6-0.2-1-0.5-1.4C1197.7,1616.7,1196.7,1617.5,1197.1,1618.1L1197.1,1618.1z"/>
			</g>
			<g>
				<path fill="#E9F8FF" d="M1128.1,1592.3c0.9-2.5,2.8-4.9,4.4-6.5c0.2-0.2,0.5,0.1,0.4,0.3c-0.8,1.5-1.7,2.8-2.5,4.3
					c-0.6,1.2-0.9,2.4-1.3,3.7c0.2,0.2,0.4,0.4,0.6,0.6c1.8-2.5,4.3-5,7.2-6.1c0.5-0.6,1.1-1.2,1.6-1.8c3.3-3.2,7.9-4.2,12.3-4.7
					c3.1-0.3,6.2-0.4,9.3-0.1c1,0.1,1.9,0.3,2.7,0.6c1.1,0.2,2.2,0.4,3.4,0.7c1.8,0.4,3.3,0.4,4.8,0.1c0.3-0.4,0.5-0.9,0.7-1.4
					c0,0,0,0,0-0.1c-0.1-0.8-3-2.5-3.5-2.9c-1.9-1.5-3.7-3.1-5.5-4.6c-2.3-0.9-4.7-1.6-7.1-2.2c-7.6-1.8-15.1-1.6-20.8,4.4
					c-2.8,2.9-4.9,6.5-7.1,9.9C1127.3,1588.5,1127.3,1590.6,1128.1,1592.3z"/>
				<path fill="#E9F8FF" d="M1159.8,1599.2c-0.1,1.1,0.7,1.4,1.1,2.2c0.1-0.2,0.2-0.3,0.4-0.5c1.2-1.6,2.5-3.2,3.4-5
					c0.2-0.5,1-0.1,0.8,0.3c-0.7,1.7-1.8,3.2-2.8,4.8c-0.6,1-1.1,2-1.3,3.1c0.1,0.5,0.2,1,0.3,1.5c0.1,0.2,0.3,0.3,0.5,0.4
					c0.5-1.1,1.1-2.2,1.9-3.1c1.3-1.6,3-3,4.5-4.6c0.4-0.4,1.1,0.2,0.7,0.7c-1.3,1.5-2.7,2.9-3.7,4.6c-0.4,0.7-0.7,1.4-1,2.1
					c2.3-1.2,5.2-4.3,5.7-4.9c1.7-2.1,3.6-4,5.7-5.8c2.1-1.7,6.7-5.8,9.9-5.6c1.2-0.3,2.6-0.3,4-0.1c1.8,0.2,2.7,0.3,4-0.2
					c0-0.1-0.1-0.2-0.1-0.4c-0.2-1.6-3.9-3-5.1-3.6c-1-0.6-2-1.1-3.1-1.5c-0.2-0.1-0.4-0.2-0.7-0.3c-1.2-0.1-2.3-0.2-3.5-0.2
					c-2.4-0.1-4.5,0.3-6.4,1c0,0,0-0.1-0.1-0.1c-0.3,0.7-0.8,1.3-1.2,2c-0.5,0.8-1,1.6-1.8,2.2c-1.4,1-3.3,1.4-5.1,1.5
					c-0.3,0.3-0.6,0.6-0.8,0.8c-2,2.1-4.7,4.8-6.5,7.9C1159.7,1598.6,1159.8,1598.9,1159.8,1599.2z"/>
				<path fill="#E9F8FF" d="M1188.6,1610.4c1.4-3.2,3.4-6.1,5.8-8.6c0.2-0.2,0.6,0.1,0.4,0.3c-1.8,3.1-3.3,6.2-4.6,9.6
					c-0.7,1.9-1.1,3.8-1.7,5.7c0.1,0,0.2,0,0.3,0c0.3-1.5,1.6-3,2.3-4.3c1.2-2,2.4-4.4,4.2-5.9c0.2-0.2,0.6,0,0.5,0.3
					c-0.6,2.1-2,4.2-2.9,6.2c-0.3,0.7-0.6,1.6-0.8,2.4c2.9-1.9,4.5-4.9,6.7-7.7c2.8-3.6,6.8-8.1,11.8-7.7c0.8,0.1,1.3,1.3,0.4,1.7
					c-0.9,0.4-1.7,0.9-2.5,1.5c0.3-0.1,0.7-0.1,1.1-0.2c2.5-0.3,5.1,0.2,7.6,0.7c0.7,0.1,2.7,0.7,4.7,1.1c0,0,0.1,0,0.1,0
					c2.2-1.2,2.3-2.7,1.2-4.6c-0.9-1.6-2.3-3.1-3.7-4.3c-2.3-2.1-4.9-3.9-7.6-5.6c-1.2-0.4-2.5-0.7-3.7-0.9
					c-2.9-1.3-6.4-1.5-9.4-0.6c-1.3,1.4-3.4,2.5-4.9,3.4c0,0,0,0,0.1,0c-3,3.8-5.9,8.6-8,12.8c-1.1,2.2-1.9,4.5-2,6.8
					c0.7,1.5,1.4,2.9,2.3,3.9C1186.8,1614.4,1187.8,1612.3,1188.6,1610.4z"/>
				<path fill="#E9F8FF" d="M883,1669.4c0.2-0.1,0.4,0.2,0.2,0.4c-0.8,0.7-1.5,1.4-2.2,2.2c-0.2,0.3-0.4,0.6-0.6,0.8
					c0.1,0.9,0.4,1.8,0.8,2.5c1.7-1.7,3.5-3.4,5.6-4.5c0.1-0.1,0.2,0.1,0.2,0.2c-1.4,1.4-2.8,2.5-3.8,4.2c-0.3,0.4-0.5,0.9-0.8,1.4
					c0.5,0.3,1,0.5,1.6,0.5c0.8,0.1,2.9-1.4,3.8-1.8c3.2-1.4,6.7-2.1,10.2-2.4c7.8-0.8,15.8,0,23.6,0.7c7.3,0.6,14.7,1.6,21.7,4.1
					c3.1,1.1,6.4,3.6,9.4,4.3c1,0.2,1.9,0.2,2.6,0.1c-0.9-1.3-1.5-2.7-2.8-3.7c-0.4-0.3-1.9-1-1.7-1.7c0-0.2,0.2-0.3,0.3-0.3
					c0,0,0.1,0,0.1,0c0.2,0,0.3,0.2,0.3,0.3v0c0,0,0,0,0,0c0.2,0.1,0.4,0.3,0.6,0.5c0.5,0.4,1,1,1.5,1.4c1,0.9,2.1,1.7,3,2.7
					c0.2-0.2,0.4-0.3,0.6-0.5c-0.4-1.5-1.5-3.2-2.4-4.2c-0.4-0.5,0.2-1.1,0.7-0.7c0.7,0.6,1.5,1.2,2,2c0.3,0.4,0.5,0.8,0.7,1.2
					c0.5-1.6,0.5-3.5,0.1-5.4c-1.5-1.6-3.6-3.1-5.7-4.3c-8.8-5.1-18.3-7.1-28.3-8.3c-10.5-1.2-21.2-1-31.6,1.4
					c-3.6,0.9-9,1.9-11.7,4.7c-0.3,0.3-0.5,0.6-0.8,1c-0.1,0.8-0.2,1.8-0.2,2.8C881.1,1670.3,882,1669.8,883,1669.4z"/>
				<path fill="#E9F8FF" d="M897.8,1640c-1.3,0.9-2.4,2-3.4,3.2c1.6-0.8,3.5-1.1,5.1-1.3c0.1,0,0.1,0.2,0.1,0.2
					c-1.3,0.9-2.5,1.8-3.7,2.8c-0.7,0.7-1.3,1.4-1.9,2.2c0.1,0.1,0.2,0.2,0.3,0.4c0,0,0.2,0.2,0.3,0.4l0,0c0.5-0.3,0.8-0.7,1.3-0.8
					c0.1,0,0.2,0,0.3,0c0.2-0.4,0.5-0.8,0.9-1c1-0.7,3.3-0.9,4.5-1.2c4.1-0.8,8.3-1.3,12.5-1.7c8.3-0.8,16.7-0.9,25-0.2
					c7,0.7,14.1,1.9,20.6,4.8c4.3,1.9,8.2,4.8,12,7.9c0.9-0.1,1.8-0.1,2.6-0.2c-0.6-0.6-1.2-1.3-1.9-1.9c-1.3-1.2-2.3-2.7-3.7-3.9
					c-0.1-0.1,0-0.2,0.1-0.1c2.3,1.6,5.6,2.7,7.3,5.1c0.1-0.1,0.2-0.2,0.3-0.2c-3.2-4.8-7.6-8.3-12.6-11.4c-0.1,0,0-0.2,0.1-0.1
					c5.1,2.1,10.1,5.1,13.5,9.4c0.1-0.9-0.2-1.8-0.2-2.7c0-0.5-0.1-1-0.2-1.5c-1.4-1.6-3-3.2-4.3-4.2c-1.2-1.8-3.3-3.2-5.4-4.1
					c-12.1-7.9-26.5-9.6-41-8.8c-8.2,0.5-17.9,1.4-25.5,4.5c-2.8,1.2-5.4,3.3-6.8,5.9c1.1-0.8,2.3-1.5,3.6-2.1
					C897.8,1639.2,898.2,1639.7,897.8,1640z"/>
				<path fill="#E9F8FF" d="M909.3,1614.2c0.5,0,0.5,0.8,0,0.8c-2.6,0.2-5.3,2.6-7.4,3.9c-0.9,0.5-1.7,1.1-2.5,1.7
					c0,0.1,0,0.1,0,0.2c1.5,2.2,3.2,2.8,5.2,1.8c1.1-0.3,2.2-0.7,3.3-1.1c1.7-0.6,3.3-1.3,4.9-1.9c3.5-1.3,7-2.4,10.7-3
					c6.3-1,12.6-0.8,18.8,0c6.3,0.4,12.6,1.2,18.9,2.6c4.5,1,9,2.2,13.2,4.3c2.1,1.1,4,2.5,5.8,3.9c1,0.6,2,1.2,2.8,1.9
					c1.2,0.5,2.6,0.9,3.7,0.8c-0.1-1.8-1.8-3.8-2.8-5.1c-0.3-0.4,0.3-1.1,0.6-0.6c0.9,1.1,3,3.1,4,5.1c0.1-0.6,0.3-1.2,0.2-1.8
					c-0.2-1.3-1.7-2.2-2.6-3.1c-1.8-1.8-3.5-4-4.9-6.1c-0.3-0.4,0.3-0.9,0.7-0.5c2.3,2.5,5.1,4.4,7.6,6.7c-0.1-0.5-0.2-1-0.4-1.5
					c0,0-0.1,0-0.1,0c-5-6.9-10.8-12.4-19-15.9c-10.3-4.3-21.5-4.9-32.5-4.3c-9.7,0.6-23.1,0.5-31.2,6.6c-1.5,1.1-4.9,5.1-6.7,8.9
					c0.8-0.4,1.5-0.8,2.2-1.2C904.2,1615.9,906.6,1614.2,909.3,1614.2z"/>
				<path fill="#E9F8FF" d="M760.1,1638.7c1,0.6,3.6-0.1,4.7-0.2c1.8-0.1,3.6-0.1,5.3-0.1c6.7,0,13.4,0.9,20,1.7
					c10.7,1.4,20.7,4.6,29.4,10.7c-0.3-0.4-0.7-0.8-1.1-1.3c-1.9-2.3-3.6-4-6.4-5.1c-0.7-0.3-0.4-1.4,0.3-1.1
					c2.5,0.9,4.8,2.5,6.9,4.1c1.2,1,2.1,2.2,3.2,3.3c0.5-0.6,0.9-1.1,1.5-1.6c-0.1-0.1-0.1-0.2-0.2-0.4c-0.6-0.9-1.4-1.7-2.1-2.5
					c-1.6-1.9-3.3-3.5-5.4-4.9c-0.7-0.5,0-1.5,0.7-1c2.4,1.9,4.8,3.8,7.1,5.7c0.2,0.2,0.4,0.4,0.7,0.6c-0.2-0.7-0.5-1.4-0.7-2.1
					c-0.5-1.6-0.6-3.3-0.6-4.9c-1.4-1.8-3.1-3.5-4.5-4.7c-3.4-3-7.8-4.8-12.1-6.1c-0.8-0.3-1.7-0.5-2.6-0.7c-1.7-0.7-3.5-1.4-5.2-2
					c-6.9-2.4-14.2-3.4-21.5-3.2c-0.9-0.1-1.8-0.2-2.8-0.2c-6.9-0.2-12.5,4.1-16.9,9.3c0,0.1-0.1,0.2-0.1,0.3
					C757.2,1634.3,758,1637.5,760.1,1638.7z"/>
				<path fill="#E9F8FF" d="M816,1596c3,0,5.9-1.7,8.8-2.1c5-0.8,10.5-0.3,15.5,0.5c5.6,0.8,11.2,2.4,16.3,4.9
					c1.5,0.7,2.9,1.6,4.3,2.4c2.2,1.3,2.2,1.6,4.8,1c-2.2-3.2-4.5-6.3-7.5-8.8c-0.2-0.2,0.1-0.6,0.3-0.4c3.9,2.1,7.6,5,9.8,8.9
					c0.4-0.1,0.7-0.3,1-0.6c0-0.1-0.1-0.2-0.1-0.3c-0.6-3.2-2.8-5.9-5.2-7.9c-0.4-0.3,0.1-1.1,0.6-0.8c1.4,1,2.8,2.2,4,3.5
					c0.5,0.6,1.1,1.1,1.6,1.7c0-0.4,0-0.9,0-1.3c0-0.8,0-1.7,0-2.5c-3.2-4.8-9.3-8.4-14-10.4c-2.7-1.2-5.3-2-8-2.5
					c-3.8-1.2-7.7-1.8-11.7-1.8c-6.6,0-13.2,2.7-18.6,6.6c-1.7,1.2-3,2.7-3.9,4.3c-0.1,1.2-0.2,2.3-0.2,3.4
					C813.8,1596.1,813.3,1596,816,1596z"/>
				<path fill="#E9F8FF" d="M811.5,1599.5c0,0.2,0,0.3,0,0.5c-5.9-0.1-12.7,0.2-17.3,3.7c-0.9,0.7-1.9,1.5-2.8,2.3
					c-0.4,0.6-0.7,1.2-1,1.9c-0.1,0.2-0.2,0.4-0.4,0.7c-0.2,0.5-0.4,1.1-0.6,1.7c-0.3,1-1.1,2.6-1.5,4.1c7.2-5.2,18.7-5.6,26.9-4
					c4.3,0.2,8.7,0.9,12.5,2.3c3.1,1.2,6.5,2.5,9.6,4.3c0.1,0,0.2,0.1,0.3,0.1c2.6,0.9,5.2,1.9,7.4,3.6c0.3,0.2,0.6,0.5,0.9,0.8
					c-0.2-0.3-0.4-0.7-0.6-1c-1.7-2.5-4-4.8-5.3-7.5c-0.1-0.2,0.2-0.6,0.4-0.4c2.7,1.9,5.1,4.8,7.2,7.3c0.7,0.8,1.4,1.6,2,2.6
					c0.2-1.1-0.2-2.3-0.6-3.3c-0.7-2-1.7-3.8-2.9-5.6c-0.3-0.4,0.3-1,0.7-0.7c1.5,1.1,3.4,3.4,4.6,5.8c0.3-1.6,0.5-3.2,0.5-4.8
					c0,0,0-0.1-0.1-0.1c-7.7-9.9-22.1-12.8-34.3-13.6c0.3-0.3,0.7-0.6,1-0.9C816,1599.8,813.5,1600,811.5,1599.5z"/>
				<path fill="#E9F8FF" d="M1130.9,1595.5c0.4,0.2,0.9,0.4,1.4,0.5c0.6-1.6,1.4-3.2,2.3-4.6c-0.3,0.2-0.6,0.5-0.9,0.7
					C1132.7,1593.2,1131.8,1594.3,1130.9,1595.5z"/>
				<path fill="#4EFF50" d="M951.2,1677.1C951.2,1677.1,951.2,1677.1,951.2,1677.1C951.2,1677.1,951.2,1677.1,951.2,1677.1
					C951.2,1677.1,951.2,1677.1,951.2,1677.1z"/>
				<path fill="#A4B3BF" d="M756.4,1641.5c3.3-1.4,8.1-0.4,11.6-0.2c3.3,0.2,6.5,0.5,9.8,0.7c7.1,0.6,14.3,1.4,21.2,3.1
					c3.5,0.8,6.8,1.8,10.1,3.1c2.7,1.1,5.6,2.8,8.5,3.4c1.2,1.2,2.5,2.2,4.7,1.3c2.5-1.1,4.1-5.3,3.8-7.8c-0.2-1.9-1.4-3.8-2.8-5.6
					c0,1.7,0.1,3.3,0.6,4.9c0.2,0.7,0.5,1.4,0.7,2.1c-0.2-0.2-0.4-0.4-0.7-0.6c-2.3-1.9-4.7-3.8-7.1-5.7c-0.7-0.6-1.5,0.5-0.7,1
					c2.1,1.4,3.8,3,5.4,4.9c0.7,0.8,1.5,1.6,2.1,2.5c0.1,0.1,0.1,0.2,0.2,0.4c-0.5,0.5-1,1.1-1.5,1.6c-1.1-1.1-2-2.4-3.2-3.3
					c-2.1-1.6-4.4-3.2-6.9-4.1c-0.7-0.3-1,0.8-0.3,1.1c2.8,1.1,4.5,2.8,6.4,5.1c0.3,0.4,0.7,0.9,1.1,1.3
					c-8.7-6.1-18.7-9.3-29.4-10.7c-6.6-0.9-13.3-1.7-20-1.7c-1.8,0-3.6,0-5.3,0.1c-1.2,0.1-3.8,0.7-4.7,0.2
					c-2.1-1.2-2.9-4.4-2.2-6.4c0-0.1,0.1-0.2,0.1-0.3c-1.7,2.1-3.3,4.2-4.7,6.3C751.9,1640.5,754.5,1642.3,756.4,1641.5z"/>
				<path fill="#A4B3BF" d="M851.1,1618.6c-1.2-2.5-3.1-4.8-4.6-5.8c-0.4-0.3-1,0.3-0.7,0.7c1.2,1.8,2.2,3.5,2.9,5.6
					c0.4,1,0.8,2.2,0.6,3.3c-0.7-0.9-1.4-1.8-2-2.6c-2.1-2.6-4.5-5.4-7.2-7.3c-0.2-0.2-0.5,0.2-0.4,0.4c1.4,2.7,3.6,5,5.3,7.5
					c0.2,0.3,0.4,0.7,0.6,1c-0.3-0.3-0.6-0.5-0.9-0.8c-2.2-1.8-4.8-2.7-7.4-3.6c-0.1,0-0.2-0.1-0.3-0.1c-3.1-1.8-6.5-3.1-9.6-4.3
					c-3.8-1.5-8.2-2.2-12.5-2.3c-8.2-1.5-19.7-1.2-26.9,4c0.4-1.5,1.2-3.1,1.5-4.1c0.2-0.6,0.4-1.1,0.6-1.7c0.1-0.2,0.2-0.5,0.4-0.7
					c0.3-0.7,0.7-1.3,1-1.9c-3.3,3-6.2,6.7-6.7,11.2c-0.2,1.5,2.1,1.9,2.7,0.7c0,0,0-0.1,0.1-0.1c0.4-0.1,0.8-0.4,1-0.9
					c13.4-8.7,31.6-4.9,45.3,0.7c3.9,1.6,7,3.5,10.5,5.7c1.9,1.2,3.7,2.1,5.9,1.3c4.8-1.9,3.7-7.6,1.2-10.8
					C851.6,1615.4,851.4,1617,851.1,1618.6z"/>
				<path fill="#A4B3BF" d="M839.3,1595.3c7.3,1.2,14.4,3.2,20.2,7.9c3.3,2.7,7.7,5.8,11.8,2.6c3.7-2.8,2.3-7.3-0.3-10.2
					c-0.2-0.5-0.5-0.9-0.8-1.4c0,0.8,0,1.7,0,2.5c0,0.4,0,0.9,0,1.3c-0.5-0.6-1.1-1.1-1.6-1.7c-1.2-1.3-2.5-2.5-4-3.5
					c-0.5-0.3-1,0.4-0.6,0.8c2.5,2,4.6,4.7,5.2,7.9c0,0.1,0,0.2,0.1,0.3c-0.3,0.3-0.6,0.5-1,0.6c-2.3-3.9-5.9-6.8-9.8-8.9
					c-0.2-0.1-0.6,0.2-0.3,0.4c3,2.5,5.3,5.7,7.5,8.8c-2.6,0.6-2.7,0.3-4.8-1c-1.4-0.9-2.8-1.7-4.3-2.4c-5.1-2.5-10.6-4.1-16.3-4.9
					c-5-0.7-10.5-1.3-15.5-0.5c-2.9,0.5-5.8,2.1-8.8,2.1c-2.7,0-2.2,0.1-2.1-2.3c0-1.1,0.1-2.3,0.2-3.4c-1.3,2.4-1.9,5.1-2.2,8.1
					c-0.2,0.4-0.2,0.8-0.2,1.1c2,0.6,4.4,0.3,6.6-0.2c2.7-2.3,5.6-4.2,9.4-4.7C831.4,1594.2,835.5,1594.7,839.3,1595.3z"/>
				<path fill="#A4B3BF" d="M901.7,1625.8c0.8,0.1,1.9,0.1,2.5-0.7c0.1-0.2,0.2-0.3,0.4-0.5c8.2-2.3,15.4-6.4,24.2-7.2
					c9-0.8,18,0.5,26.7,2.9c8.7,2.3,17,5.8,25.3,9.1c2.3,0.9,5.3,2.7,7.7,1.2c1.3,0.2,2.7-0.6,3.3-2c1.2-2.9-0.5-5-2.6-5.7
					c0.1,0.5,0.3,1,0.4,1.5c-2.5-2.3-5.3-4.2-7.6-6.7c-0.3-0.3-0.9,0.1-0.7,0.5c1.4,2.2,3,4.3,4.9,6.1c0.9,0.9,2.4,1.8,2.6,3.1
					c0.1,0.7-0.1,1.2-0.2,1.8c-0.9-1.9-3-3.9-4-5.1c-0.4-0.5-1,0.2-0.6,0.6c1,1.3,2.7,3.3,2.8,5.1c-1.2,0-2.5-0.3-3.7-0.8
					c-0.9-0.7-1.8-1.3-2.8-1.9c-1.9-1.4-3.7-2.8-5.8-3.9c-4.1-2.1-8.7-3.3-13.2-4.3c-6.3-1.4-12.5-2.2-18.9-2.6
					c-6.2-0.9-12.5-1.1-18.8,0c-3.7,0.6-7.2,1.7-10.7,3c-1.6,0.6-3.3,1.3-4.9,1.9c-1.1,0.4-2.2,0.8-3.3,1.1c-2,1-3.7,0.4-5.2-1.8
					c0-0.1,0-0.1,0-0.2c0.8-0.6,1.6-1.2,2.5-1.7c2.2-1.3,4.8-3.7,7.4-3.9c0.5,0,0.5-0.8,0-0.8c-2.7,0-5.1,1.7-7.4,2.9
					c-0.7,0.4-1.5,0.7-2.2,1.2C898,1621.8,897.7,1625.2,901.7,1625.8z"/>
				<path fill="#A4B3BF" d="M892.5,1648.1c0.5,2,2.6,2.5,4.3,1.8c9.2-4.2,19.2-4.6,29.2-4.7c9.8-0.1,19.7,0.5,29.1,3.3
					c5,1.5,9.4,3.7,14,6.1c2.3,1.2,5.2,3,7.8,1.7c3.7-1.9,2.3-5.2-0.2-8.2c0.1,0.5,0.2,1,0.2,1.5c0.1,0.9,0.3,1.8,0.2,2.7
					c-3.4-4.4-8.4-7.4-13.5-9.4c-0.1,0-0.1,0.1-0.1,0.1c5,3.1,9.5,6.6,12.6,11.4c-0.1,0.1-0.2,0.2-0.3,0.2c-1.7-2.3-5-3.5-7.3-5.1
					c-0.1-0.1-0.1,0.1-0.1,0.1c1.3,1.2,2.3,2.7,3.7,3.9c0.7,0.6,1.3,1.2,1.9,1.9c-0.8,0.1-1.7,0.1-2.6,0.2c-3.7-3.1-7.6-6-12-7.9
					c-6.5-2.8-13.5-4.2-20.6-4.8c-8.3-0.8-16.7-0.7-25,0.2c-4.2,0.4-8.4,0.9-12.5,1.7c-1.2,0.2-3.5,0.4-4.5,1.2
					c-0.3,0.2-0.6,0.6-0.9,1c-0.1,0-0.2,0-0.3,0c-0.6,0.2-0.9,0.6-1.3,0.8l0,0c-0.1-0.1-0.3-0.3-0.3-0.4c-0.1-0.1-0.2-0.2-0.3-0.4
					c0.6-0.8,1.2-1.5,1.9-2.2c1.2-1.1,2.4-1.9,3.7-2.8c0.1-0.1,0.1-0.2-0.1-0.2c-1.6,0.2-3.5,0.5-5.1,1.3c1-1.2,2.1-2.3,3.4-3.2
					c0.4-0.3,0.1-0.8-0.4-0.6c-1.3,0.6-2.5,1.3-3.6,2.1c-0.3,0.5-0.5,1-0.7,1.6C892.3,1644.3,892,1646,892.5,1648.1z"/>
				<path fill="#A4B3BF" d="M879.5,1678.5c0,0.3,0.1,0.6,0.2,0.9c-0.2,1.6,1.5,3.4,3.2,2.2c10.6-7.4,23-7.7,35.4-6.5
					c6.2,0.6,12.2,1.6,18.3,3.1c5.7,1.4,12.8,2.6,17.2,6.8c1.2,1.1,2.9,1,4.1,0c4.9-4.2,3.8-8,0.8-11.2c0.4,1.8,0.4,3.8-0.1,5.4
					c-0.2-0.4-0.4-0.8-0.7-1.2c-0.6-0.8-1.3-1.4-2-2c-0.5-0.4-1.1,0.2-0.7,0.7c1,1,2,2.8,2.4,4.2c-0.2,0.2-0.4,0.4-0.6,0.5
					c-0.8-1-2-1.8-3-2.7c-0.5-0.5-1-1-1.5-1.4c-0.2-0.2-0.4-0.4-0.6-0.5c0,0,0,0,0,0v0c0-0.2-0.2-0.3-0.3-0.3c0,0-0.1,0-0.1,0
					c-0.2,0-0.3,0.1-0.3,0.3c-0.2,0.7,1.2,1.3,1.7,1.7c1.3,1.1,2,2.4,2.8,3.7c-0.7,0.2-1.6,0.2-2.6-0.1c-3-0.7-6.3-3.2-9.4-4.3
					c-7-2.4-14.4-3.4-21.7-4.1c-7.8-0.7-15.8-1.4-23.6-0.7c-3.5,0.3-7,1.1-10.2,2.4c-0.9,0.4-2.9,1.9-3.8,1.8
					c-0.7-0.1-1.2-0.2-1.6-0.5c0.3-0.5,0.5-1,0.8-1.4c1-1.8,2.4-2.8,3.8-4.2c0.1-0.1,0-0.3-0.2-0.2c-2.1,1.2-3.9,2.8-5.6,4.5
					c-0.4-0.7-0.7-1.6-0.8-2.5c0.2-0.3,0.4-0.6,0.6-0.8c0.7-0.8,1.4-1.5,2.2-2.2c0.2-0.1,0-0.4-0.2-0.4c-1.1,0.3-2,0.9-2.7,1.8
					c0-1,0.1-2,0.2-2.8C878.8,1671.2,879.5,1675.6,879.5,1678.5z M951.2,1677.1C951.2,1677.1,951.2,1677.1,951.2,1677.1
					C951.2,1677.1,951.2,1677.1,951.2,1677.1C951.2,1677.1,951.2,1677.1,951.2,1677.1z"/>
				<path fill="#A4B3BF" d="M1173.7,1586c0.4-0.7,0.9-1.3,1.2-2c-0.1-0.2-0.2-0.3-0.3-0.5c-3.1-4.4-7.3-7.2-12-9.1
					c1.8,1.5,3.7,3.1,5.5,4.6c0.6,0.5,3.4,2.1,3.5,2.9c0,0,0,0,0,0.1c-0.2,0.5-0.4,1-0.7,1.4c-1.5,0.3-3.1,0.2-4.8-0.1
					c-1.3-0.3-2.3-0.5-3.4-0.7c-0.8-0.3-1.7-0.5-2.7-0.6c-3.1-0.3-6.2-0.2-9.3,0.1c-4.4,0.5-9,1.4-12.3,4.7
					c-0.6,0.5-1.1,1.1-1.6,1.8c-2.8,1.1-5.3,3.6-7.2,6.1c-0.2-0.2-0.4-0.4-0.6-0.6c0.3-1.2,0.6-2.4,1.3-3.7c0.8-1.5,1.7-2.8,2.5-4.3
					c0.1-0.2-0.2-0.5-0.4-0.3c-1.6,1.7-3.5,4.1-4.4,6.5c-0.7-1.7-0.8-3.8-0.5-5.8c-0.1,0.2-0.2,0.4-0.4,0.6
					c-1.6,2.4-2.8,4.9-1.6,7.8c1.9,4.8,9,5.2,10.6,0.4c0.2-0.2,0.3-0.3,0.5-0.5c1.1-1.3,1.8-2.8,2.9-4.1c1.7-1.8,3.7-2.6,6.1-3.3
					c6.5-1.9,17.4-3.3,24-0.3c-1,0.8-2,1.7-2.9,2.6c1.8-0.1,3.6-0.5,5.1-1.5C1172.7,1587.6,1173.2,1586.8,1173.7,1586z
					 M1132.3,1596.1c-0.5-0.1-0.9-0.3-1.4-0.5c0.9-1.2,1.7-2.3,2.8-3.4c0.3-0.3,0.6-0.5,0.9-0.7
					C1133.7,1592.9,1132.9,1594.4,1132.3,1596.1z"/>
				<path fill="#A4B3BF" d="M1198.9,1589.5c-0.3,0.1-0.7,0.2-1,0.3c-0.1-0.1-0.2-0.3-0.3-0.4c-0.1-0.2-0.3-0.3-0.4-0.5c0,0,0,0,0,0
					c0,0-0.1,0-0.1-0.1c-3.1-3.7-7.6-5.1-12.3-5.6c0.3,0.1,0.5,0.3,0.7,0.3c1.1,0.5,2.1,1,3.1,1.5c1.2,0.7,5,2.1,5.1,3.6
					c0,0.1,0,0.3,0.1,0.4c-1.3,0.6-2.2,0.5-4,0.2c-1.5-0.2-2.8-0.2-4,0.1c-3.2-0.2-7.8,3.8-9.9,5.6c-2.1,1.7-3.9,3.7-5.7,5.8
					c-0.5,0.6-3.4,3.7-5.7,4.9c0.3-0.7,0.6-1.4,1-2.1c1-1.7,2.3-3.2,3.7-4.6c0.4-0.5-0.2-1.1-0.7-0.7c-1.4,1.6-3.1,3-4.5,4.6
					c-0.8,0.9-1.4,2-1.9,3.1c-0.2-0.1-0.3-0.2-0.5-0.4c-0.1-0.5-0.2-1-0.3-1.5c0.2-1.2,0.7-2.1,1.3-3.1c1-1.6,2.1-3,2.8-4.8
					c0.2-0.5-0.6-0.8-0.8-0.3c-0.9,1.9-2.2,3.4-3.4,5c-0.1,0.2-0.2,0.3-0.4,0.5c-0.4-0.7-1.2-1.1-1.1-2.2c0.1-0.4-0.1-0.7-0.2-0.9
					c-1.2,2.1-2,4.4-1.7,6.7c0.7,5,5.8,5.2,8.8,2.3c2-1.3,3.9-3.2,4.9-4.1c3.1-2.6,6.1-5.5,9.5-7.8c2.5-1.7,9.5-5.2,12.3-2.8
					c0.1,0.1,0.3,0.2,0.5,0.3C1195.4,1592.1,1197.5,1591,1198.9,1589.5z"/>
				<path fill="#A4B3BF" d="M1184.1,1614.6c0,0.4,0,0.8,0,1.2c0,2.8,1.3,4.4,2.9,4.9c1.1,1.1,3,1.3,4.2,0c4.6-4.8,11-13.9,18.1-13.8
					c3.2,0,7.2-0.4,10.3,0.7c2.7,0.9,4.2,2.7,7.2,2.4c1.7-0.1,3.5-1.8,2.8-3.7c-2.4-6.6-9.7-12.6-17.5-15.2c2.7,1.6,5.3,3.5,7.6,5.6
					c1.4,1.2,2.8,2.7,3.7,4.3c1.1,1.8,0.9,3.4-1.2,4.6c0,0-0.1,0-0.1,0c-2-0.4-4-1-4.7-1.1c-2.5-0.5-5.1-1-7.6-0.7
					c-0.4,0-0.7,0.1-1.1,0.2c0.8-0.5,1.6-1,2.5-1.5c0.9-0.4,0.3-1.6-0.4-1.7c-5-0.4-9,4.2-11.8,7.7c-2.2,2.8-3.8,5.8-6.7,7.7
					c0.3-0.8,0.5-1.7,0.8-2.4c0.9-2,2.3-4.1,2.9-6.2c0.1-0.3-0.3-0.4-0.5-0.3c-1.8,1.4-3.1,3.9-4.2,5.9c-0.8,1.3-2,2.8-2.3,4.3
					c-0.1,0-0.2,0-0.3,0c0.6-1.9,1-3.9,1.7-5.7c1.2-3.4,2.8-6.5,4.6-9.6c0.2-0.3-0.2-0.6-0.4-0.3c-2.4,2.5-4.4,5.4-5.8,8.6
					c-0.8,1.8-1.8,4-2.3,6.1c-1-0.9-1.7-2.4-2.3-3.9C1183.9,1613.3,1184,1613.9,1184.1,1614.6z"/>
			</g>
		</g>
	</g>
</g>
</svg>
