<?xml version="1.0" encoding="utf-8"?>
<!-- Generator: Adobe Illustrator 23.0.3, SVG Export Plug-In . SVG Version: 6.00 Build 0)  -->
<svg version="1.1" id="_x32_9_x5F_Footwear_x5F_Astronaut"
	 xmlns="http://www.w3.org/2000/svg" xmlns:xlink="http://www.w3.org/1999/xlink" x="0px" y="0px" viewBox="0 0 2000 2000"
	 enable-background="new 0 0 2000 2000" xml:space="preserve">
<g>
	<path opacity="0.3" fill="#05132B" enable-background="new    " d="M1295.7,1730.3c-9.3,12.7-68.7,43.3-81.3,44
		c-12.7,0.7-90.7,0-116-6s-43.3-8-43.3-8c-8,9.3-52.7,66-76,70.7s-71.3,29.3-96,24s-66.7-10.7-78-18s-72.7-25.3-84.7-32.7
		c-12-7.3-45.3-26.7-46.7-29.3c-1.3-2.7-43.3-24-34-42s34-57.3,106.7-41.3S1295.7,1730.3,1295.7,1730.3z"/>
	<path fill="#2B4CA9" d="M1301,1689.2c-6.7-8.9-11.2-14-19.3-16c-0.8-0.2-1.6-0.3-2.5-0.5c-3.7-0.6-8.1-0.6-13.6-0.2
		c0,0,0-0.1,0-0.2c0-1.8,0-17.8-6.3-35.1c-2.8-7.6-6.1-14.4-10.2-20.3c-5.8-8.4-12.9-15.2-22-20.7c-11.9-7.3-27.3-12.7-37.4-15.7
		c-3-0.9-5.6-1.6-7.4-2.1c-7.5-1.9-6.2-0.4-7.5-4.2c-0.1-0.2-0.2-0.4-0.3-0.7c-1.8-4.6-3.2-6.6-3.2-6.6s-0.2-2.8-0.1-6.8
		c0-0.6,0-1.1,0.1-1.7c0.2-5.2,0.8-11.7,2.6-16.9c2.7-8,4.4-9.9,6.9-14.8c0.7-1.4,1.4-3,2.3-5c3.1-7.3,3-7,2.5-9.9
		c-0.2-0.8-0.4-1.8-0.6-3.2c-0.9-6.8,1.3-4.3,2.6-11.5c0-0.2,0.1-0.3,0.1-0.5c1.1-6.7,0.6-8.5,0.1-9.5s-12.8,2.2-29,2.8
		s-42.5-0.7-53.7-2.7c-7.9-1.4-11.4-3.3-15.8-3c-1.9,0.1-4,0.6-6.7,1.6c-0.8,0.3-1.8,0.7-2.7,1c-9.7,3.1-26.7,5.7-49,6.1
		c-3.1,0.1-6,0-8.9-0.2c-20.1-1-34.8-5.8-34.8-5.8s-14.3,20.5-38.5,38.5c-23.9,17.8-35.7,25.4-58,31.4c-0.2,0.1-0.5,0.1-0.8,0.2
		c-22.8,6.1-61.2,2.9-70.9,0.1c0,0-4.5,4.4-5.9,8s1.3,5.7,1.2,8.3c-0.1,1-0.7,1.9,1.1,4.3s2.7,1.9,2.1,6.6s-0.1,9.6-0.1,9.6
		s-4.6,3.6-6.4,8.6c0,0-19.7,2.5-49.8,24.1c-30.2,21.6-43.7,37.1-60.3,67.9c0,0-0.3,0.2-0.8,0.7c-2.5,2.1-10.3,8.7-14.2,16.2
		c-4.7,9.1-5.2,15.5-6.6,35.7c-1.4,20.2,0.5,35.9,19.8,43.3s22.7,10.8,57.1,18.5s41.7,4.5,45.2,7s13.9,19.9,47,28.8s56.7,9.6,92.6-2
		s52.7-20.8,72.3-41.4c19.7-20.5,15.5-16.6,28.4-31.2s19-23.2,19-23.2s1.9,0.8,23.6,6.5s39.6,12.5,74.7,15.3
		c35.2,2.8,48.3,0.1,78.3-7.9c29.9-8,42.7-14.7,53.2-25.3s12.2-12.6,13.5-24.8C1304.9,1698.8,1301,1689.2,1301,1689.2z"/>
	<path fill="#B5A9A1" d="M1062.8,1701.4l15.8-4.7l66.8,8l58.7,2l40-20l38.6-6.5c0,0,12.1,11.2,12.1,17.2s1,33,1,33
		s-24.3,15.7-28.3,17s-69.3,20.7-69.3,20.7s-70.7-6.7-74-6s-60-17.3-60-17.3l-18,17.3l-38.7,42c0,0-20,16.7-20.4,19
		s-51.6,21.7-54.9,22.3c-3.3,0.7-39.3,4-43.3,4.7s-36.7-7.3-40.8-5.1s-23.2-10.9-23.2-10.9l-16-17.3l-25.3-6l-84.7-20.2l-19.3-23.3
		c0,0,6.7-48.5,6.7-51.2s8-6,8-6l20,25c0,0,53,18.3,55,19s52,0,52,0s43.1,18.1,90,15c45.3-3,94.4-27.3,97-28c5.3-1.3,22-11,22-11
		l27-26L1062.8,1701.4z"/>
	<path fill="#2F789F" d="M786.6,1702.4l4.4,1.8c0,0,0.1-7.1,5.2-31.7c5.1-24.6,2.2-38.5-8-37.7s-18.4,8.2-24.2,20.3
		c0,0,5,3.7,13.2,15.7C785.5,1682.7,789.2,1690.7,786.6,1702.4z"/>
	<path fill="#2F789F" d="M814.3,1700.6c0,0-1.8-10.4,4.4-32.7c6.2-22.2,21.6-44.5,37.1-48.4s42.8-5.8,49.7-7.1
		c6.8-1.3,2.4-4.2,17.5-3.3c15.1,0.9,21.9,0.3,27.9-2.6s5.9-13.3-59.8-10.3c0,0,3.2-5.6,5.7-6.7s3,2.5,17.9-5.6s30.8-19.1,53.1-24
		s21.8-4.3,21.3-9.4s-3.7-7.8-3.7-7.8s6.5,3.7,27,1.9c20.4-1.8,30.5-1.9,30.5-1.9s5.8,25.8,8.6,53.3s2.9,36.7,4.1,50.2
		s5.1,13.2-0.3,29.6s-3.3,13.4-12.8,22.9s-15.8,16.8-21.9,18s-18.8,0.2-27.6,3.7c-8.9,3.5-9.8,6.1-33.4,8.7
		c-23.6,2.6-47-0.3-70.2-4.5s-38.7-16.2-41.2-20.9c-2.5-4.8-4.3-3.9-8.6-5.3s-4-1.3-11.7-1.7
		C820.3,1696.7,814.3,1700.6,814.3,1700.6z"/>
	<path fill="#2F789F" d="M851.1,1600.7c-2.7,3.3-13.6-2.2-25.6-1.4c0,0,7.6,2.9,15.5,6.8c7.8,3.9,7.1,6.2,7.1,6.2s4,2,13.9-9.7
		c10-11.7,11.2-9.3,14-18.3c2.4-7.4,5.7-18.5,14.5-27.4c-0.2,0.1-0.5,0.1-0.8,0.2c-22.8,6.1-61.2,2.9-70.9,0.1c0,0-4.5,4.4-5.9,8
		s1.3,5.7,1.2,8.3c-0.1,1-0.7,1.9,1.1,4.3s2.7,1.9,2.1,6.6s-0.1,9.6-0.1,9.6C835.3,1590.2,853.7,1597.4,851.1,1600.7z"/>
	<path fill="#2F789F" d="M1101.3,1537.5c-0.3,0.1-2.4,1.8-1.3,5.5s3.9,6.5,0.8,13.2c-3,6.7-9.2,13.1-7.6,17.6s4,17.7,4,17.7
		s3-2.8,7.2-5.8c4.3-3,6.7,0.2,6.7,0.2l29.7-15.8c0,0-8.6,1.8-19.2,0.5c-10.7-1.4-3.2-7.3,9-10.8c11.1-3.2,29.8-7.2,40.6-1.2
		c0.2-5.2,0.8-11.7,2.6-16.9c2.7-8,4.4-9.9,6.9-14.8c-17,8.6-29,9.5-44.9,10C1118.6,1537.3,1101.7,1537.4,1101.3,1537.5z"/>
	<path fill="#2F789F" d="M1187.9,1583.6c-6.3-1.4-21.3-6.9-45,1s-31.1,14.3-35.3,20.1c-4.3,5.8-12.1,20.4-12.1,20.4
		s20.3,3.3,31.7,9.4c11.3,6,23.7,20.1,29.3,28.4c5.6,8.3,9.9,17.1,12.4,20.9c2.6,3.8,2.7,3.2,16.6,2s23.2-1.1,27.3-2.8
		c4.2-1.7,6.1-3.6,12.1-10.8c6-7.2,20.3-17.8,25.7-25c5.4-7.2,7.1-7.5,2.6-15.8s-10.1-14.6-11.6-16.9c-1.1-1.8,0.7-4.6,7.6,2.4
		c-5.8-8.4-12.9-15.2-22-20.7c-11.9-7.3-27.3-12.7-37.4-15.7C1193.4,1583.4,1192.3,1584.6,1187.9,1583.6z"/>
	<path opacity="0.3" fill="#05132B" enable-background="new    " d="M707.7,1743.1c6.3,8.3,15,13.8,24.7,17.4
		c12.5,4.6,26.4,4.8,39.6,4.5c13.7-0.3,27.4-0.4,41.1-2.1c0.9,2.7,2.6,4.8,5.9,6.1c2.4,0.9,4.6-0.6,5.6-2.6c1.8,0.3,3.8-0.3,5-1.7
		c1,3.1,2,6.1,3.2,9.1c1.2,3.1,5.1,4.1,7.7,2.9c2.2,3,7.5,1.3,8.6-2.1c0.8-2.6,0.5-5,0-7.5c0.2,0.2,0.4,0.4,0.6,0.6
		c0.3,0.3,0.6,0.6,0.9,0.8c1.3,1.7,2.8,3.3,4.3,4.7c1.6,1.4,4,1.6,5.9,0.8c2.3,0.1,4.4-1.7,5-4c0.8-1.2,1.2-2.6,0.9-4
		c1.8,0.5,3.5,1,5.3,1.4c16.5,3.8,33.6,2.3,50.1-0.3c18.1-2.8,36.3-6.5,53.8-11.9c18.6-5.8,35-14.6,50.9-25.8
		c14.2-10.1,29.7-22.7,39.1-37.7c0.4,0.9,1.3,1.7,2.7,2.1c3.4,0.8,6.7,2,10.1,3.1c0.4,0.5,0.9,1,1.6,1.2c3.8,1.3,8.2,1.1,12.2,1.5
		c4.7,0.4,9.3,1,14,1.7c8.8,1.3,17.5,3,26.2,4.4c16.4,2.7,32.8,4.2,49.3,2.4c16.1-1.8,31.9-5.8,47-11.7c15.7-6,30.5-14.2,46.8-18.4
		c2.7,0,3.8-2.8,3.4-5.1c-3.7-0.6-8.1-0.6-13.6-0.2c0,0,0-0.1,0-0.2c-12.7,4.3-24.6,10.4-37.1,15.4c-15.5,6.1-31.8,10.6-48.4,12.3
		c-17.2,1.7-34.1-0.3-51-3.2c-8.1-1.4-16.2-2.9-24.4-4c-5.4-0.8-12-2.2-18-2c0-0.1-0.1-0.1-0.1-0.2c-4.9-8.2-9.1-17-12.4-26.1
		c-0.3-1.3-0.5-2.7-0.7-4.1c-1.1-10.2-0.3-20.8-0.1-31.1c0.2-10.4,0.3-20.8,0.8-31.2c0.3-6.1,1.2-12,2.3-17.9
		c1.7-3.7,3.8-7.2,6.3-10.5c2.6-3.5,6.2-6.5,8.4-10.3c0.6-0.9,0.2-2-0.5-2.5c1.7-1.3,3.4-2.6,4.9-4.1c1.9-1.8-0.1-4.9-2.5-4.3
		c-1.4,0.3-2.8,0.8-4.1,1.4c-0.5-3.2-1.7-6.8-2.8-9.9c0.5-0.2,0.9-0.3,1.4-0.5c6.8-2.1,13.7-4,20.5-5.8c6.9-1.8,13.9-3.4,21-4.4
		c7.5-1.1,14.6-1,22.2-0.8c2,0.1,2.5-3.1,0.5-3.6c-8.1-1.8-16.7-1.5-25.2-0.3c-0.1-0.3-0.3-0.5-0.6-0.6c-5.1-1.1-11.8,2.2-16.9,3.2
		c-7.2,1.5-13.9,3.9-20.8,6.2c-1.2,0.4-2.4,0.8-3.6,1.3c0-0.2-0.1-0.3-0.1-0.5c-1.7-10.2,5.9-14.8,12.8-19.9
		c4.3,0.6,10.4,1.6,12.9-1.7c1.1-1.4,1.2-3.1,0.4-4.3c1.7,0.2,3.4,0.4,5.2,0.5c6.7,0.6,13.4,1.2,20,0.1c6-1,14-2,19-5.6
		c1-0.7,0.6-2.1-0.6-2.2c-5.9-0.5-12.2,2.2-18.1,3c-6.8,0.8-13.5,0.9-20.3,0.3c-6.6-0.6-13-1.8-19.4-3.1c-3-0.7-6-1.4-9-2.1
		c-1.9-0.5-3.3-1.1-4.8-1.2c0.6-1.2,1.1-2.5,1.7-3.7c1.3-2.8,3.9-6.4,4.9-9.9c-1.9,0.1-4,0.6-6.7,1.6c-0.8,0.3-1.8,0.7-2.7,1
		c-0.7,1.7-1.3,3.4-1.9,4.7c-1.4,3-3,6.3-4.2,9.7c-2.1,0.2-4.1,1-6.3,1.5c-4.1,1.1-8.3,2.1-12.4,3c-8,1.9-15.9,3.8-23.9,5.6
		c-7.8,1.7-15.7,3-23.4,5.2c-1.8,0.5-3.7,1.1-5.5,1.7c3.6-4.1,7.1-8.4,10.5-12.8c6.1,0,12.1-0.3,18.1-0.7c3.1-0.2,6.1-0.5,9.2-1
		c4.3-0.7,8.4-2.5,12.8-2.6c0.7,0,0.6-1.1-0.1-1c-4.1,0.7-8.2-0.3-12.3-0.4c-3.5-0.1-7,0-10.5,0c-4.3,0.1-8.6,0-12.8-0.1
		c1.7-2.3,3.2-4.6,4.8-6.9c-20.1-1-34.8-5.8-34.8-5.8s-14.3,20.5-38.5,38.5c-23.9,17.8-35.7,25.4-58,31.4c-0.2,0.1-0.5,0.1-0.8,0.2
		c-22.8,6.1-61.2,2.9-70.9,0.1c0,0-4.5,4.4-5.9,8s1.3,5.7,1.2,8.3c-0.1,1-0.7,1.9,1.1,4.3s2.7,1.9,2.1,6.6s-0.1,9.6-0.1,9.6
		s-4.6,3.6-6.4,8.6c0,0-19.7,2.5-49.8,24.1c-30.2,21.6-43.7,37.1-60.3,67.9c0,0-0.3,0.2-0.8,0.7c-0.6,5.2-0.9,10.5-1,15.6
		C698.4,1722.3,700.7,1733.8,707.7,1743.1z M866.2,1633.5c8.2-6.7,17.8-11.7,27.7-15.3c4.3-0.8,8.7-1.4,13.1-2
		c9.9-1.2,19.9-2.4,29.9-1.7c10.4,0.8,19.2,4.8,28.4,9.2c4.9,2.4,10.1,3.9,15.2,5.9c5,1.9,9.3,4.7,14.5,6.2c0.4,0.1,0.7-0.4,0.4-0.7
		c-4.5-3.8-9.9-6-14.5-9.6c-0.6-0.4-1.2-0.9-1.7-1.3l0,0c4.1-1,7-3.4,11.4-2.5c2.8,0.6,5-1.7,5-4c3.5,2.4,6.8,5.1,10,7.8
		c4.4,3.6,8.4,7.6,12.8,11.1c4,3.2,8,6.9,13.3,7.5c1.6,0.2,2-1.9,1.2-2.9c-3.7-4.6-9.4-7.7-13.7-11.9c-4.4-4.3-8.4-9.1-13-13.2
		c-10.1-9.1-22.4-13.4-35.5-16.3c-14.4-3.1-29.2-4-43.9-4.1c-4.6,0-9.3-0.1-13.9,0c6.7-4.3,12.9-9.8,19-14.4
		c11.6-8.9,23-18.1,34.1-27.7c8.2-7.1,16.2-14.5,23.9-22.3c3.6,0,7.1-0.3,10.7-0.7c8-0.8,15.9-2,23.9-3.2c8.5-1.2,17.1-2.5,25.6-3.7
		c4.6-0.7,9.2-1.3,13.8-2c2.5-0.4,4.8-0.5,7-1.2c0,3.7,0.1,7.3-0.1,11c-0.1,3.2-0.5,6.3-1,9.4c-6.9,3-13.9,5.5-21.2,5.7
		c-2.2,0-2.2,3.5,0,3.4c7.1-0.4,13.8-2.2,20.3-4.4c-0.6,2.8-1.4,5.5-2.2,8.3c-2.1,6.9-4.6,13.7-5.9,20.7c-1.4,7.3-1.9,14.7-1.8,22.1
		c0.1,15.4,1,30.8,1.8,46.1c0.4,7.8,0.9,15.6,1.3,23.3c0.4,6.8-0.2,15.1,1.8,21.7c-11.6,8.9-21.6,19.9-32.9,29.3
		c-11.9,9.8-24.2,18.7-38.5,24.9c-15,6.5-31.5,9.7-47.5,12.9c-16.1,3.2-32.6,6.1-49,6.3c-4.6,0.1-9.9-0.1-15.2-0.8
		c-1.5-1.4-3.3-1.5-5.7-1.9c-3.4-0.6-6.8-1.3-9.9-2.9c-6.2-3.2-11-10-14.5-15.9c-2.8-4.7-4.9-9.6-6.8-14.7
		c-1.6-5.9-2.9-11.8-3.7-17.9C836.4,1679.6,843.8,1651.6,866.2,1633.5z M727.2,1711.8c1.4-18.9,5.8-36,18.8-50.3
		c6.2-6.9,12.9-13.5,20.7-18.6s16.5-8.2,25.4-10.6c10.7-2.9,21.6-5.4,32.5-7.7c4.4-0.9,8.9-1.7,13.4-2.5c-4.6,3.1-8.8,6.8-12,11.4
		c-7.2,10.2-7.6,24.4-10.5,36.2c-3.2,13.3-6.8,26.6-9.1,40.1c-1.1,6.4-2,13-2.2,19.5c-0.2,4.3,0.1,10.2-1.9,14.3
		c-2.5,1.8-5.2,2.2-9,2c-9.5-0.6-19.1-1.4-28.6-2.5c-8.8-1-17.6-2.9-24.9-8.3c-3.3-2.4-6.5-5.3-9-8.5
		C727.1,1721.9,726.8,1717.4,727.2,1711.8z"/>
	<path opacity="0.3" fill="#05132B" enable-background="new    " d="M1151.9,1559.2c-7.2,0.2-14.2,1.6-21.2,3.5
		c-2.3,0.6-1.9,4.4,0.6,4.3c6.8-0.3,13.7-0.3,20.6-0.4c0.7,0,1.5,0,2.2,0c-0.9,0.5-1.8,1.1-2.6,1.6c-2.7,1.8-5.3,3.8-7.9,5.8
		c-7.5,3.6-14.9,7.3-22.2,11.5c-8.8,5.1-17.2,10.7-25.6,16.4c-6.4,4.3-15.9,9.2-17.9,17.4c-0.3,1.2,1.2,2.2,2.2,1.3
		c6.1-6.2,13.5-10.6,20.9-15.1c7.8-4.8,15.7-9.8,23.7-14.3c7.4-4.2,15.2-8.3,23.2-11.3c0.3,0.3,0.8,0.5,1.3,0.5
		c3.3-0.3,6.1-0.3,9.4-1.4c2.9-1,5.7-2.4,8.7-3c2.2-0.4,5-0.7,7.5-1.4c-0.1-0.2-0.2-0.4-0.3-0.7c-1.8-4.6-3.2-6.6-3.2-6.6
		s-0.2-2.8-0.1-6.8C1165.1,1558.9,1158.1,1559.1,1151.9,1559.2z"/>
	<path opacity="0.3" fill="#05132B" enable-background="new    " d="M1184.5,1496.8c-5.1,2.3-9.4,5.6-14.8,7.6
		c-5.5,2-11.2,3.3-16.8,4.7c-6.3,1.5-12.5,2.2-18.9,2.8c-5.3,0.5-12.2,0.3-16.9,2.9c-0.8,0.5-0.8,1.7,0,2.1
		c5.1,3.1,13.1,2.5,18.9,2.1c7-0.4,14.1-1.4,21.1-2.6c4.9-0.8,10.7-1.8,16.2-3.6c4.1-0.4,8.3-0.4,12.4-1c-0.2-0.8-0.4-1.8-0.6-3.2
		c-0.9-6.8,1.3-4.3,2.6-11.5c0-0.2,0.1-0.3,0.1-0.5C1186.6,1496.3,1185.5,1496.3,1184.5,1496.8z"/>
	<g>
		<path fill="none" d="M1031.7,1731.8c12-8.3,23.1-18.3,31.1-30.4c0.1,1.8,0,3.7,0.1,5c0,0.9,0.1,1.8,0.1,2.7l-0.1-5.1l1.7-6
			C1056.5,1710.2,1043.7,1723.6,1031.7,1731.8z"/>
		<path fill="none" d="M1062.1,1738.3c-0.3,1.1-0.7,2.2-1.1,3.3c1.6-1.4,2.4-2.6,2.7-3.7l-0.2-9.6
			C1063.3,1731.7,1062.9,1735,1062.1,1738.3z"/>
		<path fill="#FFE9D6" d="M1124.5,1710.5c4.8,5.9,9,12.7,15.2,17.3c2.2,1.6,4.7,2.9,7.3,4.1c3.9-3.7,8-7.1,11.7-10.9
			c2.7-2.8,5-5.9,7.1-9.2c0.1-0.2,0.2-0.3,0.3-0.5c-4.2-0.1-8.4-0.8-11.6-2.7c-4.8-0.1-9.5-0.5-14.5-1.2c-7.3-1.1-14.7-2.4-22-3.7
			C1120.3,1705.7,1122.4,1708,1124.5,1710.5z"/>
		<path fill="#FFE9D6" d="M1227.9,1697.8c-9.8,3.6-19.9,6.2-30,8.5c-7.5,1.7-15,3.6-22.6,4.4c-1.4,0.2-3,0.3-4.6,0.4
			c-0.1,0.3-0.2,0.7-0.3,1.1c-0.2,4.8-0.4,9.4-1.9,14.1c-1.2,3.7-2.8,7.2-4.8,10.6c0.4,0.1,0.9,0.2,1.3,0.4
			c9.2,2.6,18.6,4.9,27.9,6.9c9.2,2,18.5,3.2,27.6,5.7c3.9,1,9.6,2.3,12.9,5.3c1.1-0.3,2.2-0.7,3.3-1.1c1-1.8,2-3.5,2.7-5.4
			c1.4-3.8,2.1-7.6,2.4-11.7c0.2-3.3,0.3-6.5,0.2-9.8c-0.3-2.4-0.8-4.8-1.5-7.2C1238.2,1711.9,1233.3,1704.6,1227.9,1697.8z"/>
		<path fill="#FFE9D6" d="M1278,1713.7c0.3-6.7,0.5-13.8-1.5-20.3c-1.5-5-5.2-9.3-9.7-12.3c-1.4,0.3-2.9,0.7-4.2,1.1
			c-7.6,2.2-13.8,6.3-20.9,9.8c-1.2,0.6-2.4,1.2-3.7,1.7c5,4.5,9.4,10.6,12.3,16.5c3.7,7.5,6,15.6,7.1,23.8c0.5,3.2,1,7,1.3,10.8
			c0.8-0.4,1.7-0.9,2.6-1.3c1.6-7.2,2.4-14.6,2.3-22c-0.1-5.1-0.3-10.4-0.9-15.5c-0.5-4.4-2.5-9.6-1-13.9c0.4-1.1,1.9-2.1,3-1.2
			c4,2.9,4.9,8.5,6,13.1c1.3,5.5,2.1,10.9,2.2,16.6c0.1,5.5-0.2,11.2-0.8,16.9c0.7-0.4,1.4-0.8,2.1-1.2c0.3-0.8,0.5-1.6,0.7-2.4
			C1276.7,1727.2,1277.7,1720.6,1278,1713.7z"/>
		<path fill="#FFE9D6" d="M1302.1,1701.4c-1.1-3.3-2.1-6.6-3.7-9.8c-3.2-6.2-8.9-10.5-15.9-11.5c-1.1-0.2-2.3-0.2-3.5-0.3
			c0.5,0.3,1,0.6,1.3,0.8c5.5,3.5,8.3,10,9,16.3c0.9,8.2-0.6,16.8-1.3,25c-0.2,2.3-0.3,4.6-0.5,6.8c2.7-1.5,5.4-3,8.1-4.6
			c2-1.1,4.1-2.4,6.2-3.6c0.9-2.5,1.4-5.5,1.8-9.7c0.2-1.4,0.2-2.8,0.3-4.2c0-0.1,0-0.1,0-0.2
			C1303.4,1704.8,1302.7,1703.2,1302.1,1701.4z"/>
		<path fill="#BFBBAD" d="M1266.9,1681.1c4.4,3,8.2,7.3,9.7,12.3c1.9,6.5,1.8,13.6,1.5,20.3c-0.3,6.8-1.3,13.5-3,20.2
			c-0.2,0.8-0.4,1.6-0.7,2.4c3.3-1.9,6.6-3.7,9.8-5.6c1.1-0.6,2.3-1.3,3.4-1.9c0.2-2.3,0.4-4.6,0.5-6.8c0.7-8.2,2.2-16.8,1.3-25
			c-0.7-6.3-3.5-12.7-9-16.3c-0.4-0.2-0.8-0.5-1.3-0.8C1275,1679.7,1270.8,1680.2,1266.9,1681.1z"/>
		<path fill="#BFBBAD" d="M1273,1720.5c-0.1-5.6-0.9-11.1-2.2-16.6c-1.1-4.6-2-10.2-6-13.1c-1.2-0.9-2.6,0.1-3,1.2
			c-1.5,4.3,0.5,9.5,1,13.9c0.6,5.1,0.9,10.3,0.9,15.5c0.1,7.4-0.7,14.8-2.3,22c0.5-0.3,1-0.5,1.5-0.8c3.1-1.7,6.2-3.4,9.3-5.2
			C1272.9,1731.7,1273.2,1726,1273,1720.5z"/>
		<path fill="#BFBBAD" d="M1250.4,1710.1c-2.9-5.9-7.3-12.1-12.3-16.5c-3.3,1.5-6.8,2.9-10.2,4.2c5.3,6.8,10.3,14.1,12.7,22.1
			c0.7,2.4,1.2,4.8,1.5,7.2c0-1.2,0-2.3,0-3.5c0-3.8-0.4-7.9,0.4-11.7c0.2-1,1.8-1.5,2.4-0.6c5.7,7.3,4.7,19.3,4,28
			c-0.3,3.2-0.5,6.9-1.1,10.5c3.7-1.5,7.3-3.2,10.9-5.1c-0.2-3.8-0.8-7.6-1.3-10.8C1256.4,1725.7,1254.1,1717.6,1250.4,1710.1z"/>
		<path fill="#BFBBAD" d="M1193,1744.1c-9.4-2-18.7-4.3-27.9-6.9c-0.4-0.1-0.9-0.2-1.3-0.4c1.9-3.4,3.6-6.9,4.8-10.6
			c1.5-4.7,1.7-9.4,1.9-14.1c0.1-0.4,0.2-0.7,0.3-1.1c-1.5,0.1-3.1,0.1-4.7,0.1c-0.1,0.2-0.2,0.3-0.3,0.5c-2,3.3-4.3,6.4-7.1,9.2
			c-3.7,3.8-7.8,7.3-11.7,10.9c-2.6-1.1-5.1-2.4-7.3-4.1c-6.2-4.6-10.4-11.4-15.2-17.3c-2-2.5-4.2-4.8-6.5-6.9
			c-1.3-0.2-2.7-0.5-4-0.7c-7.2-1.3-14.4-2-21.6-2.7c3.5,4.1,6.4,8.7,9.8,13c5.9,7.5,12.5,14.6,19.3,21.2
			c7.1,6.9,14.6,13.4,22.3,19.6c3.3,2.7,6.6,5.5,10.2,8.1c3.2,0.7,6.5,1.2,9.7,1.6c17.3,2,34.7,0,51.7-3.7
			c6.2-1.3,12.3-2.9,18.2-4.8c-3.3-3-9-4.3-12.9-5.3C1211.5,1747.4,1202.1,1746.1,1193,1744.1z"/>
		<path fill="#BFBBAD" d="M992.9,1790c-0.8-3.5-1.5-7.7-3.4-10.9c-0.5-0.9-1.8-0.4-1.9,0.5c-0.3,3.6,0.6,7.3,0.7,11
			c0.1,4,0,8-0.2,12.1c-0.2,4.6-0.6,9.2-0.9,13.7c3-1.7,5.9-3.5,8.8-5.5c-0.2-3.1-0.6-6.1-1-9.1
			C994.5,1797.8,993.8,1793.8,992.9,1790z"/>
		<path fill="#BFBBAD" d="M1043.5,1741c0.1-0.7-0.8-1-1.1-0.3c-1.6,4.3-3.7,8.5-5.3,12.9c-1.4,4.1-2.8,8.1-4.2,12.2
			c-1.6,4.6-4.3,9.9-5.8,15.2c1.2-1.4,2.4-2.9,3.7-4.3c3-3.6,5.9-7.3,8.8-11c0.7-3.6,1.4-7.2,2-10.8
			C1042.4,1750.3,1042.7,1745.6,1043.5,1741z"/>
		<path fill="#B5A9A1" d="M1061,1741.6c-8,7.1-14.8,15.6-21.5,24.1c-0.1,0.6-0.2,1.2-0.3,1.8c-0.3,1.8-0.6,3.8-0.8,5.9
			c0.8-0.9,1.8-2,2.8-3.2c12.9-14.6,19-23.2,19-23.2c2.2-3,3.5-9.2,3.5-9.2C1063.4,1739.1,1062.7,1740.2,1061,1741.6z"/>
		<path fill="#B5A9A1" d="M1238.2,1693.6c1.2-0.6,2.4-1.1,3.7-1.7c7-3.5,13.2-7.6,20.9-9.8c1.3-0.4,2.8-0.7,4.2-1.1
			c-1.2-0.8-2.6-1.6-3.9-2.2c-0.9-0.4-1.1-1.3-0.8-2.1c-5.9,1.7-11.2,3.9-16.8,6.4c-3.9,1.7-8.4,3.8-13.3,5.9
			c1.8,1.1,3.6,2.4,5.2,3.7C1237.5,1693,1237.8,1693.3,1238.2,1693.6z"/>
		<path fill="#B5A9A1" d="M997.2,1810.1c-0.4,0.3-0.8,0.5-1.2,0.8c0.2,1.8,0.3,3.7,0.4,5.5c5.5-4.3,10.8-9.1,16.3-14.9
			c6.7-7,10.6-11.1,13.4-14.1c0-2.1,0.4-4.2,1-6.3C1018.1,1791.6,1008.5,1801.9,997.2,1810.1z"/>
		<path fill="#B5A9A1" d="M1117.9,1703.6c7.3,1.3,14.6,2.5,22,3.7c5,0.8,9.7,1.2,14.5,1.2c3.2,1.8,7.5,2.5,11.6,2.7
			c0.8-1.3,1.3-2.7,2.2-3.7c0.1-0.2,0.3-0.4,0.5-0.5c0.3-0.3,0.7-0.5,1.1-0.7c0.2-0.1,0.7-0.1,0.8,0.2c0.6,1.4,0.5,3,0.1,4.7
			c1.6-0.1,3.2-0.2,4.6-0.4c7.6-0.9,15.2-2.7,22.6-4.4c10.1-2.3,20.2-5,30-8.5c-1.4-1.8-2.8-3.6-4.2-5.3
			c-15.7,6.2-34.7,12.1-54,11.6c-29.5-0.8-41.7-5-60.9-8.2c-0.8-0.1-1.7-0.3-2.6-0.4c0.4,0.2,0.8,0.4,1.2,0.6
			C1111.2,1698.2,1114.7,1700.7,1117.9,1703.6z"/>
		<path fill="#B5A9A1" d="M1301,1689.2c-6.7-8.9-11.2-14-19.3-16c-5.1,0.4-9.5,1.2-13.6,2.1c3.7,0.6,8.2,2.9,11,4.5
			c1.2,0,2.4,0.1,3.5,0.3c6.9,1,12.6,5.4,15.9,11.5c1.6,3.1,2.5,6.5,3.7,9.8c0.6,1.8,1.3,3.3,1.7,5.2c0,0.1,0,0.1,0,0.2
			C1304.1,1696.7,1301,1689.2,1301,1689.2z"/>
		<path fill="#BFBBAD" d="M1287.6,1728.7c-0.3,3.6-0.7,7.2-1.5,10.7c1.4-1.2,2.7-2.4,4-3.7c6.9-6.9,10-10.2,11.7-15.1
			c-2.1,1.1-4.1,2.4-6.2,3.6C1292.9,1725.7,1290.2,1727.2,1287.6,1728.7z"/>
		<path fill="#BFBBAD" d="M1272.2,1737.4c-0.5,4.2-1.2,8.3-2.2,12.2c0.1-0.1,0.2-0.1,0.3-0.2c0.7-4.4,2.6-9,4-13.2
			C1273.6,1736.7,1272.9,1737.1,1272.2,1737.4z"/>
		<path fill="#5C5856" d="M1062.9,1709.2c0.2,4.7,0.4,9.4,0.5,14.1c0.1,1.7,0,3.5,0,5.2l0.2,9.6c1.2-5,1.8-7.1,1.7-12.3
			c-0.2-5.6,0-12.8-0.2-18.4c-0.1-1.4-0.7-7.3-0.7-9.2l-1.7,6L1062.9,1709.2z"/>
		<path fill="#5C5856" d="M1063.5,1723.2c-0.1-4.7-0.3-9.4-0.5-14.1l0.5,19.2C1063.5,1726.7,1063.5,1724.9,1063.5,1723.2z"/>
		<path fill="#5C5856" d="M1158.6,1768.9c0.3,0,0.5,0,0.8,0.1c-5-1.7-9.6-4-14-6.9c-6.3-1.3-12.1-2.9-19.2-4.8
			c-17.4-4.8-57.5-14.1-57.5-14.1s4.3-2.1,4.5-20.7c0.2-13.4-0.5-23-3.9-29.2c-1.7-0.4-3.4-0.9-5.1-1.4c-0.3,0.5-0.7,1-1.1,1.5
			c1.2,2.5,1.4,4.7,1.4,4.7c0.1,1.8,0.7,7.8,0.7,9.2c0.2,5.6,0.1,12.8,0.2,18.4c0.1,5.1-0.5,7.3-1.7,12.3c0,0-1.2,6.1-3.5,9.2
			c0,0,1.9,0.8,23.6,6.5S1123.4,1766.1,1158.6,1768.9z"/>
		<path fill="#5C5856" d="M1069.3,1693.3c-0.9-1.6-2-3-3.2-4.2c-0.4,0.6-1,1.5-1.9,2.8C1065.9,1692.4,1067.6,1692.8,1069.3,1693.3z"
			/>
		<path fill="#5C5856" d="M1145.4,1762.1c4.3,2.9,9,5.2,14,6.9c18.8,1.5,31.2,1.3,43.5-0.4c-6.1-0.5-12.9-1-20.2-1.6
			C1164.9,1765.5,1154.5,1764,1145.4,1762.1z"/>
		<path fill="none" d="M726.3,1792.8c-0.2,0.2-0.4,0.4-0.6,0.6C725.8,1793.2,726.1,1793,726.3,1792.8z"/>
		<path fill="none" d="M686.5,1782.1c0-0.3,0-0.7,0-1.1c-0.1-1.3-0.2-2.6-0.4-3.9c0.1,1.3,0.3,2.6,0.4,3.9
			C686.4,1781.4,686.4,1781.7,686.5,1782.1z"/>
		<path fill="none" d="M725.2,1776.5c0,0.2,0,0.4-0.1,0.6C725.1,1776.9,725.1,1776.7,725.2,1776.5c0.6-3.7,1.3-7.4,2.3-11.1
			c0.4-1.6,1-3.1,1.6-4.6c-0.6,1.5-1.2,3-1.6,4.6C726.5,1769.1,725.8,1772.8,725.2,1776.5z"/>
		<path fill="none" d="M726.5,1792.6c0,0.4,0,0.8,0,1.2l0,0C726.6,1793.4,726.5,1793,726.5,1792.6z"/>
		<path fill="none" d="M785.4,1762.9c0.6-1.1,1.2-2.2,1.9-3.3c1.5,0.2,3,0.3,4.6,0.4c-1.5-0.1-3-0.2-4.6-0.4
			C786.6,1760.7,786,1761.8,785.4,1762.9z"/>
		<path fill="none" d="M751.4,1760.2c-0.1-0.7,0.2-1.3,0.8-1.6l0,0l0,0C751.6,1758.9,751.2,1759.6,751.4,1760.2z"/>
		<path fill="none" d="M723.7,1744.3L723.7,1744.3c-1.6,4-2.9,8.2-3.8,12.4C720.8,1752.4,722.1,1748.3,723.7,1744.3L723.7,1744.3z"
			/>
		<path fill="none" d="M801,1816.1c1.5,6.2,2.9,10.2,2.9,10.2l1.3-5.8C803.2,1818.3,801.9,1816.8,801,1816.1z"/>
		<path fill="none" d="M715,1741.1c0.4,0.1,0.7,0.1,1.1,0.1l0,0C715.7,1741.2,715.3,1741.1,715,1741.1z"/>
		<path fill="none" d="M718.5,1768.9c-0.1,2.7,0,5.4,0.3,8.1C718.5,1774.2,718.4,1771.6,718.5,1768.9z"/>
		<path fill="none" d="M778.2,1796.6C778.2,1796.7,778.2,1796.7,778.2,1796.6C778.2,1796.7,778.2,1796.7,778.2,1796.6L778.2,1796.6z
			"/>
		<path fill="none" d="M736.1,1748.3c0.4,0.1,0.9,0.1,1.3,0.2c0.1,0,0.3,0.1,0.4,0.1c-0.1,0-0.3-0.1-0.4-0.1
			C736.9,1748.4,736.5,1748.4,736.1,1748.3z"/>
		<path fill="none" d="M778,1796.8c0,0,0.1,0.1,0.2,0.1l0,0C778.1,1796.8,778.1,1796.8,778,1796.8L778,1796.8z"/>
		<path fill="none" d="M772,1788.3c-0.6-0.8-0.4-2.1-0.5-3.6C771.5,1786.3,771.4,1787.5,772,1788.3z"/>
		<path fill="none" d="M739.9,1792.9c-0.1-0.2-0.2-0.3-0.3-0.5C739.7,1792.5,739.8,1792.7,739.9,1792.9c0.8,1.1,1.5,1.8,2.1,2.2
			C741.4,1794.7,740.7,1794,739.9,1792.9z"/>
		<path fill="none" d="M740.2,1749.3c-0.3,1.3-0.5,2.6-0.8,3.8C739.6,1751.9,739.9,1750.6,740.2,1749.3L740.2,1749.3z"/>
		<path fill="none" d="M777.3,1784.7c0.3-1.1,0.6-2.3,0.9-3.4c1-3.5,2.1-6.9,3.5-10.3c-1.4,3.4-2.5,6.8-3.5,10.3
			C777.9,1782.4,777.6,1783.6,777.3,1784.7z"/>
		<path fill="none" d="M751.4,1760.5L751.4,1760.5C751.4,1760.5,751.4,1760.6,751.4,1760.5C751.4,1760.6,751.4,1760.5,751.4,1760.5z
			"/>
		<path fill="none" d="M786.3,1812.8c0.6-0.2,1.2-0.6,1.6-1.2l0,0C787.5,1812.2,786.9,1812.6,786.3,1812.8z"/>
		<path fill="none" d="M773.1,1769.7c-1.2-7.4-13.5-10.2-19.3-11.8c-0.3-0.1-0.5-0.1-0.8,0c0.2-0.1,0.5-0.1,0.8,0
			C759.7,1759.5,771.9,1762.3,773.1,1769.7c0.8,4.7-1.8,9.9-1.7,14.7C771.3,1779.6,773.9,1774.4,773.1,1769.7z"/>
		<path fill="none" d="M772.5,1788.9c0.4,0.2,0.9,0.5,1.5,0.6s1,0.2,1.3,0.2c-0.3,0-0.7-0.1-1.3-0.2
			C773.3,1789.3,772.8,1789.1,772.5,1788.9z"/>
		<path fill="none" d="M745.3,1793.3c0.1-0.2,0.2-0.3,0.3-0.5c1.5-2.9,1.9-6.8,2.4-10c-0.5,3.2-0.9,7.1-2.4,10
			C745.5,1792.9,745.4,1793.1,745.3,1793.3z"/>
		<path fill="none" d="M737,1770.7c0,4.9,0.3,9.8,1,14.6C737.3,1780.4,737,1775.5,737,1770.7z"/>
		<path fill="none" d="M714.9,1741c-0.3-0.1-0.6-0.1-1-0.2C714.2,1740.9,714.6,1741,714.9,1741z"/>
		<path fill="none" d="M713.5,1740.8c-0.2-0.1-0.4-0.1-0.6-0.1C713,1740.7,713.2,1740.7,713.5,1740.8z"/>
		<path fill="none" d="M723.8,1744.1c0-0.1,0.1-0.2,0.1-0.3C723.8,1743.9,723.8,1744,723.8,1744.1z"/>
		<path fill="none" d="M750.2,1772.1c-0.8,3.1-1.4,6.2-2,9.3C748.8,1778.3,749.5,1775.2,750.2,1772.1z"/>
		<path fill="#FFE9D6" d="M778,1796.8c0,0,0.1,0.1,0.2,0.1c0-0.1,0-0.1,0-0.2l0,0C778.2,1796.7,778.1,1796.7,778,1796.8z"/>
		<path fill="#FFE9D6" d="M726.1,1745c-0.8-0.2-1.6-0.5-2.4-0.7c-1.6,4-2.8,8.1-3.8,12.3c-0.7,3.4-1.2,6.8-1.4,10.2
			c0,0.7,0,1.3-0.1,2c-0.1,2.7,0,5.4,0.3,8.1c0.1,1,0.2,2,0.4,2.9c0.2,1.6,1.2,11.1,4.4,7.6c1.2-1.3,1.3-7.8,1.6-10.3
			c0-0.2,0-0.4,0.1-0.6c0.6-3.7,1.3-7.4,2.3-11.1c0.4-1.6,1-3.1,1.6-4.6c1.9-4.4,4.5-8.4,6.9-12.6C732.6,1747.7,729,1746,726.1,1745
			z"/>
		<path fill="#BFBBAD" d="M786.3,1812.8c-0.1,0-0.1,0.1-0.2,0.1c0,0.4,0,0.8,0,1.2c0.6,0.1,1.2,0.1,1.8,0.2c0-0.9,0-1.8,0.1-2.6
			C787.5,1812.2,786.9,1812.6,786.3,1812.8z"/>
		<path fill="#FFE9D6" d="M781.2,1758.7c-13.7-2.2-27.7-5.3-41-9.4c-0.3,1.3-0.6,2.6-0.8,3.8c-1,4.3-1.9,8.7-2.2,13.3
			c-0.1,1.4-0.1,2.8-0.1,4.2c0,4.9,0.3,9.8,1,14.6c0.1,0.8,0.3,1.7,0.4,2.5c0.2,1.3,0.5,3.2,1.1,4.6c0.1,0.2,0.2,0.4,0.3,0.5
			c0.8,1.1,1.5,1.8,2.1,2.2c1.5,0.8,2.5-0.3,3.3-1.7c0.1-0.2,0.2-0.3,0.3-0.5c1.5-2.9,1.8-6.8,2.4-10c0-0.1,0-0.3,0.1-0.4
			c0-0.3,0.1-0.6,0.2-0.9c0.6-3.1,1.2-6.2,2-9.3c0.2-0.9,0.4-1.8,0.7-2.6c0-2.6,0-5.2,0.1-7.8c0-0.5,0.2-0.8,0.4-1.2v-0.1
			c0-0.1,0-0.1,0-0.2v-0.1c-0.2-0.7,0.2-1.3,0.8-1.6l0,0h0.1c0.1-0.3,0.4-0.7,0.7-0.8c0.2-0.1,0.5-0.1,0.8,0
			c5.9,1.6,18.1,4.4,19.3,11.8c0.8,4.7-1.8,9.9-1.7,14.7c0,0.1,0,0.1,0,0.1v0.1c0.1,1.6-0.1,2.8,0.5,3.6c0.1,0.2,0.3,0.4,0.5,0.5
			c0.4,0.2,0.9,0.4,1.5,0.6c0.6,0.1,1,0.2,1.3,0.2c1.2,0.1,0.9-0.5,1.3-2.2c0.2-0.9,0.4-1.8,0.7-2.8c0.3-1.2,0.6-2.3,0.9-3.4
			c1-3.5,2.1-6.9,3.5-10.3c1.1-2.8,2.4-5.5,3.8-8.1c0.6-1.1,1.2-2.2,1.9-3.3C785.2,1759.3,783.2,1759.1,781.2,1758.7z"/>
		<path fill="#BFBBAD" d="M726.5,1792.6L726.5,1792.6c-0.1,0-0.2,0.1-0.3,0.2C726.3,1792.7,726.4,1792.6,726.5,1792.6L726.5,1792.6z
			"/>
		<path fill="#BFBBAD" d="M725.6,1793.4C725.6,1793.4,725.6,1793.5,725.6,1793.4c0.3,0.2,0.6,0.3,0.9,0.4l0,0
			C726.2,1793.7,725.9,1793.6,725.6,1793.4L725.6,1793.4z"/>
		<path fill="#BFBBAD" d="M778.2,1796.9c0-0.1,0-0.1,0-0.2C778.2,1796.7,778.2,1796.8,778.2,1796.9L778.2,1796.9z"/>
		<path fill="#BFBBAD" d="M778.2,1796.6c-0.1,0.1-0.1,0.1-0.2,0.1l0,0C778.1,1796.7,778.2,1796.7,778.2,1796.6L778.2,1796.6z"/>
		<path fill="#BFBBAD" d="M719.1,1779.9c-0.2-1-0.3-2-0.4-2.9C718.8,1777.9,719,1778.9,719.1,1779.9c0.2,1.6,1.2,11.1,4.4,7.6
			c1.2-1.3,1.3-7.8,1.6-10.4c-0.2,2.5-0.4,9-1.6,10.3C720.3,1790.9,719.4,1781.5,719.1,1779.9z"/>
		<path fill="#BFBBAD" d="M719.9,1756.6c-0.7,3.4-1.2,6.8-1.4,10.2c0,0.7,0,1.3-0.1,2c0-0.7,0-1.3,0.1-2
			C718.7,1763.4,719.2,1760,719.9,1756.6z"/>
		<path fill="#BFBBAD" d="M729.1,1760.9c1.9-4.4,4.5-8.4,6.9-12.6l0,0C733.6,1752.5,731,1756.5,729.1,1760.9z"/>
		<path fill="#BFBBAD" d="M711.1,1740.1c-0.4-0.2-0.7-0.3-1-0.5C710.4,1739.8,710.7,1739.9,711.1,1740.1c0.2,0.1,0.4,0.2,0.6,0.2
			l0,0C711.5,1740.2,711.3,1740.2,711.1,1740.1z"/>
		<path fill="#BFBBAD" d="M786.3,1812.8c-0.1,0-0.1,0.1-0.2,0.1c0,0.4,0,0.8,0,1.2l0,0c0-0.4,0-0.8,0-1.2
			C786.2,1812.9,786.2,1812.9,786.3,1812.8z"/>
		<path fill="#BFBBAD" d="M751.4,1760.5L751.4,1760.5c0-0.1,0-0.1,0-0.2v-0.1v0.1C751.4,1760.4,751.4,1760.5,751.4,1760.5z"/>
		<path fill="#BFBBAD" d="M750.9,1769.5c-0.2,0.9-0.5,1.8-0.7,2.6C750.5,1771.2,750.7,1770.4,750.9,1769.5c0-2.6,0-5.2,0.1-7.8
			c0-0.5,0.2-0.8,0.4-1.2c-0.2,0.3-0.4,0.7-0.4,1.2C751,1764.3,750.9,1766.9,750.9,1769.5z"/>
		<path fill="#BFBBAD" d="M739.3,1753.2c-1,4.3-1.9,8.7-2.2,13.3c-0.1,1.4-0.1,2.8-0.1,4.2c0-1.4,0-2.8,0.1-4.2
			C737.4,1761.9,738.4,1757.5,739.3,1753.2z"/>
		<path fill="#BFBBAD" d="M742,1795c1.5,0.8,2.5-0.3,3.3-1.7C744.5,1794.7,743.5,1795.8,742,1795z"/>
		<path fill="#BFBBAD" d="M738.1,1785.2c0.1,0.8,0.3,1.7,0.4,2.5c0.2,1.3,0.5,3.2,1.1,4.6c-0.7-1.3-0.9-3.2-1.1-4.6
			C738.3,1786.9,738.2,1786.1,738.1,1785.2z"/>
		<path fill="#BFBBAD" d="M748,1782.8c0-0.1,0-0.3,0.1-0.4c0-0.3,0.1-0.6,0.2-0.9c-0.1,0.3-0.1,0.6-0.2,0.9
			C748,1782.5,748,1782.6,748,1782.8z"/>
		<path fill="#BFBBAD" d="M785.4,1762.9c-1.4,2.6-2.7,5.3-3.8,8.1C782.8,1768.2,784,1765.5,785.4,1762.9z"/>
		<path fill="#BFBBAD" d="M775.3,1789.7c1.2,0.1,0.9-0.5,1.3-2.2c0.2-0.9,0.4-1.8,0.7-2.8c-0.2,0.9-0.5,1.8-0.7,2.8
			C776.2,1789.2,776.5,1789.8,775.3,1789.7z"/>
		<path fill="#BFBBAD" d="M752.3,1758.6C752.3,1758.7,752.2,1758.7,752.3,1758.6C752.2,1758.7,752.3,1758.7,752.3,1758.6
			c0.1-0.3,0.4-0.6,0.7-0.8C752.7,1758,752.4,1758.3,752.3,1758.6z"/>
		<path fill="#BFBBAD" d="M772,1788.3c0.1,0.2,0.3,0.4,0.5,0.5C772.3,1788.7,772.1,1788.5,772,1788.3z"/>
		<path fill="#BFBBAD" d="M771.5,1784.4C771.5,1784.5,771.5,1784.5,771.5,1784.4v0.2V1784.4C771.5,1784.5,771.5,1784.5,771.5,1784.4
			z"/>
		<path fill="none" d="M857.5,1847.3c1.8,0.5,3.7,1,5.5,1.4c0.4,0.1,0.8,0.2,1.2,0.2c0-0.1-0.1-0.2-0.1-0.2
			c-0.2-0.1-0.5-0.1-0.7-0.1C861.4,1848.2,859.5,1847.7,857.5,1847.3z"/>
		<path fill="#FFE9D6" d="M1062.8,1706.4c-0.1-1.4,0-3.2-0.1-5c-8,12.2-19.1,22.1-31.1,30.4c-31.9,22.1-70.9,30.8-108.6,37.1
			c-24.5,4.1-50.3,5.9-74.5,0.8c1,14.1-0.1,28.3,0,42.5c0.1,7.2,0.5,14.5,1.9,21.6c0.7,3.3,1.5,6.7,2.7,9.9c0.3,0.9,0.6,1.8,1,2.6
			c1.1,0.3,2.3,0.7,3.4,1c2,0.5,4,0.9,5.9,1.3c-4.5-11.6-6.8-24.8-8.8-37c-1.1-6.6-4.5-22.1,5.2-24.1c11.2-2.3,13,16.3,14.6,23.2
			c3.1,13.4,5.6,26.9,7.9,40.4c4.1,0.1,8.1,0,12.2-0.4c7.3-0.7,14.3-2.3,21.2-4.4c-0.5-1.7-0.7-3.5-1.3-5.3s-1.2-3.7-1.8-5.5
			c-0.3-0.7-0.5-1.4-0.7-2.1c-0.5-1.5-1-3-1.4-4.5c-1.4-4.8-2.5-9.6-3.9-14.3c-1.1-3.9-2.7-7.6-3.2-11.6c-0.1-0.8,0.9-0.8,1.3-0.3
			c3.1,4.2,5,9.3,7.5,13.9c2.2,4,4.5,8,6.5,12.1s5.3,9.4,6.3,14.6c7.6-2.8,15.1-6.1,22.7-9.1c13.3-5.4,27.2-10.3,39.7-17.5
			c0.3-4.6,0.6-9.2,0.9-13.7c0.2-4,0.3-8,0.2-12.1c-0.1-3.7-1-7.3-0.7-11c0.1-1,1.4-1.4,1.9-0.5c1.8,3.1,2.5,7.3,3.4,10.9
			c0.9,3.8,1.6,7.8,2.2,11.8c0.4,3,0.8,6.1,1,9.1c0.4-0.3,0.8-0.5,1.2-0.8c11.3-8.2,20.9-18.5,29.9-29.1c1.4-5.2,4.1-10.6,5.8-15.2
			c1.4-4.1,2.8-8.1,4.2-12.2c1.6-4.4,3.6-8.6,5.3-12.9c0.3-0.7,1.2-0.4,1.1,0.3c-0.8,4.6-1.1,9.2-1.9,13.8c-0.7,3.6-1.4,7.2-2,10.8
			c6.7-8.5,13.4-17,21.5-24.1c0.4-1.1,0.8-2.2,1.1-3.3c0.8-3.3,1.2-6.6,1.3-9.9l-0.5-19.2
			C1062.9,1708.2,1062.9,1707.3,1062.8,1706.4z"/>
		<path fill="#BFBBAD" d="M865.2,1833.2c0.3-0.1,0.7-0.2,1-0.1c-1.8-7.2-3.6-14.5-4.2-21.9c0-0.5,0.8-0.7,1-0.3
			c2.9,6.8,5.2,13.9,8.1,20.7c1.7,3.9,3.7,7.8,5.5,11.7c1.2,2.7,2.7,4.8,2,7.5c1.2,0.1,2.5,0.1,3.7,0.2c-2.3-13.5-4.8-27-7.9-40.4
			c-1.6-6.9-3.4-25.5-14.6-23.2c-9.8,2-6.3,17.6-5.2,24.1c2,12.2,4.3,25.4,8.8,37c0.2,0.1,0.5,0.1,0.7,0.1
			C861.8,1843,859.6,1835.4,865.2,1833.2z"/>
		<path fill="#BFBBAD" d="M912.3,1829.8c2.5,1.5,3.9,4.7,5.4,7.1c1.5,2.3,2.8,4.8,4.3,7.1c0.9-0.3,1.9-0.7,2.8-1
			c-1.1-5.2-4.3-10.5-6.3-14.6c-2.1-4.1-4.3-8.1-6.5-12.1c-2.5-4.5-4.4-9.7-7.5-13.9c-0.3-0.5-1.4-0.4-1.3,0.3
			c0.5,4,2.1,7.7,3.2,11.6c1.3,4.8,2.5,9.6,3.9,14.3c0.5,1.5,0.9,3,1.4,4.5c-0.2-0.9-0.4-1.9-0.4-2.8
			C911.5,1829.9,911.9,1829.6,912.3,1829.8z"/>
		<path fill="#BFBBAD" d="M914,1839.3c-0.4-1.3-1-2.6-1.5-4c0.6,1.8,1.2,3.7,1.8,5.5c0.5,1.8,0.8,3.6,1.3,5.3c0.1,0,0.3-0.1,0.4-0.1
			C915.5,1843.8,914.7,1841.5,914,1839.3z"/>
		<path fill="#B5A9A1" d="M894.4,1850.6c-4,0.4-8.1,0.5-12.2,0.4v0.1v0.1c11.2,0.8,22.3,0.2,34.4-2.1c-0.5-0.9-0.8-1.9-1-2.9
			C908.7,1848.3,901.7,1849.9,894.4,1850.6z"/>
		<path fill="#B5A9A1" d="M781.2,1758.7c2,0.3,4.1,0.6,6.1,0.8c0.6-1,1.2-1.9,1.8-2.8c1.2-1.8,2.5-3.6,3.9-5.5
			c-5,0.6-10.2,0.9-15.2,0.5c-11.1-1.1-23.5-1.5-36.9-5.6c-0.2,1.1-0.4,2.1-0.6,3.2C753.5,1753.4,767.5,1756.5,781.2,1758.7z"/>
		<path fill="#B5A9A1" d="M1064.4,1698.1c-8,12.2-20.8,25.5-32.8,33.8c-31.9,22.1-70.9,30.8-108.6,37.1c-24.5,4.1-50.3,5.9-74.5,0.7
			c1,14.2-0.1,28.3,0,42.5c0.1,7.2,0.5,14.5,1.9,21.6c0.7,3.4,1.5,6.7,2.7,9.9c0.3,0.9,0.6,1.8,1,2.6c1.1,0.3,2.3,0.7,3.4,1
			c-3.1-0.7-6.3-1.5-9.6-2.4c-4.6-1.2-8.8-2.7-12.5-4.2c0.5-4.7,1.2-13.6,2-26.8c1.2-20.7-2.5-26.9-2.5-26.9s-0.7,7.4-2.4,25.4
			c-0.7,7.5-1.8,18-3.4,25.5c-3.4-1.6-6.4-3.3-9-5.1c-5.1-27.8-4.3-64.2,2.7-80.5c6.2,3.6,15.1,8.2,25.5,10.7
			c17.6,4.2,37.5,9.1,78.2,2.6s82.5-30.4,107.8-47c16-10.5,24.7-19.9,28.9-25.3C1064.2,1695.9,1064.4,1698.1,1064.4,1698.1z"/>
		<path fill="#B5A9A1" d="M787.9,1811.7L787.9,1811.7L787.9,1811.7z"/>
		<path fill="#62F2FF" d="M912.5,1835.3c-0.2-0.7-0.5-1.4-0.7-2.1C912,1833.9,912.2,1834.6,912.5,1835.3z"/>
		<path fill="#B5A9A1" d="M924.9,1843c0.3,1.4,0.4,2.8,0.3,4.2c4.8-1.2,9.9-2.7,15.2-4.4c20.3-6.6,34.4-12.4,46.5-19.8
			c0.1-2.2,0.2-4.4,0.4-6.6c-12.6,7.1-26.4,12-39.7,17.5C940,1836.9,932.5,1840.2,924.9,1843z"/>
		<path fill="none" d="M708,1737.7L708,1737.7L708,1737.7z"/>
		<path fill="none" d="M721.8,1741.6c0.1,0,0.2,0,0.3,0.1C722,1741.6,721.9,1741.6,721.8,1741.6z"/>
		<path fill="none" d="M719.7,1741.5c-0.1,0-0.2,0-0.2,0l0,0C719.5,1741.5,719.6,1741.5,719.7,1741.5z"/>
		<path fill="none" d="M723.1,1742.2L723.1,1742.2L723.1,1742.2z"/>
		<path fill="none" d="M722.3,1741.7c0.1,0,0.1,0.1,0.2,0.1C722.5,1741.8,722.4,1741.8,722.3,1741.7z"/>
		<path fill="none" d="M722.8,1741.9L722.8,1741.9C722.8,1742,722.8,1741.9,722.8,1741.9z"/>
		<path fill="#BFBBAD" d="M723.8,1743.5c0-0.5-0.3-1-0.7-1.3l0,0c-0.1-0.1-0.2-0.1-0.2-0.2l-0.1-0.1c-0.1,0-0.2-0.1-0.2-0.1
			c-0.1,0-0.1-0.1-0.2-0.1c-0.1,0-0.1-0.1-0.2-0.1c-0.1,0-0.2-0.1-0.3-0.1h-0.1c-0.7-0.1-1.3-0.1-2-0.1c-0.1,0-0.2,0-0.2,0
			C721,1742.2,722.5,1742.9,723.8,1743.5z"/>
		<path fill="#5C5856" d="M713.9,1740.9c-0.2,0-0.3-0.1-0.5-0.1C713.6,1740.8,713.8,1740.8,713.9,1740.9z"/>
		<path fill="#5C5856" d="M715,1741.1C714.9,1741.1,714.9,1741.1,715,1741.1C714.9,1741.1,714.9,1741.1,715,1741.1z"/>
		<path fill="#5C5856" d="M711.7,1740.3L711.7,1740.3c0.4,0.1,0.8,0.2,1.1,0.3C712.5,1740.5,712.1,1740.4,711.7,1740.3L711.7,1740.3
			z"/>
		<path fill="#B4A9A1" d="M708.2,1733.9c1.4,2.2,6.5,5.2,11.3,7.5c0.1,0,0.2,0,0.2,0c0.7,0,1.4,0.1,2,0.1c0,0,0,0,0.1,0
			s0.2,0,0.3,0.1c0.1,0,0.1,0,0.2,0.1c0.1,0,0.1,0.1,0.2,0.1c0.1,0,0.2,0.1,0.2,0.1l0.1,0.1c0.1,0.1,0.2,0.1,0.2,0.2l0,0
			c0.4,0.3,0.7,0.8,0.7,1.3c0.2,0.1,0.3,0.1,0.5,0.2c3.4,1.2,4.6,2,4.6,2s-1.9-0.8-4.6-2c-0.1-0.1-0.3-0.1-0.5-0.2
			c0,0.1,0,0.2,0,0.3c0,0.1,0,0.2-0.1,0.3v0.1c0,0,0,0,0,0.1s0,0,0,0.1c0.8,0.2,1.6,0.5,2.4,0.7c3,0.9,6.5,2.7,9.9,3.2l0,0l0,0
			c0.3-0.6,0.7-1.2,1-1.8c0.2-0.4,0.5-0.6,0.9-0.6c0.1-0.2,0.3-0.4,0.4-0.6c-4.3-1.4-8.7-3.2-13.2-5.6c-6.6-3.4-12.2-7.6-16.5-12.3
			C707.5,1729.4,706.9,1731.8,708.2,1733.9z"/>
		<path fill="#B4A9A1" d="M723.8,1744.1C723.7,1744.2,723.7,1744.2,723.8,1744.1C723.8,1744.2,723.8,1744.2,723.8,1744.1
			C723.7,1744.2,723.7,1744.2,723.8,1744.1C723.7,1744.2,723.7,1744.2,723.8,1744.1z"/>
		<path fill="#B4A9A1" d="M722.5,1741.8c0.1,0,0.2,0.1,0.2,0.1S722.6,1741.8,722.5,1741.8z"/>
		<path fill="#B4A9A1" d="M722.1,1741.7c0.1,0,0.1,0,0.2,0.1C722.3,1741.7,722.2,1741.7,722.1,1741.7z"/>
		<path fill="#B4A9A1" d="M736,1748.3L736,1748.3L736,1748.3z"/>
		<path fill="#B4A9A1" d="M723.8,1743.6L723.8,1743.6c0,0.1,0,0.2,0,0.3C723.8,1743.7,723.8,1743.7,723.8,1743.6z"/>
		<path fill="#B4A9A1" d="M721.8,1741.6L721.8,1741.6c-0.8-0.1-1.4-0.1-2.1-0.1C720.4,1741.5,721.1,1741.5,721.8,1741.6
			L721.8,1741.6z"/>
		<path fill="#B4A9A1" d="M723.8,1743.5c0-0.5-0.3-1-0.7-1.3C723.5,1742.5,723.8,1743,723.8,1743.5L723.8,1743.5z"/>
		<path fill="#B4A9A1" d="M722.9,1742c0.1,0.1,0.2,0.1,0.2,0.2C723,1742.1,723,1742.1,722.9,1742z"/>
		<path fill="#BFBBAD" d="M724.3,1743.7c2.7,1.2,4.6,2,4.6,2S727.7,1744.9,724.3,1743.7z"/>
		<path fill="#BFBBAD" d="M719.5,1741.4c-1.1-0.1-2.3-0.1-3.4-0.3l0,0C717.2,1741.3,718.3,1741.4,719.5,1741.4L719.5,1741.4z"/>
		<path fill="#BFBBAD" d="M719.5,1741.4c-1.1-0.1-2.3-0.1-3.4-0.3c0.6,0.2,1.2,0.3,1.8,0.5c2.5,0.7,4.4,1.3,6,1.8c0,0,0,0,0-0.1
			C722.5,1742.9,721,1742.2,719.5,1741.4z"/>
		<path fill="#BFBBAD" d="M708,1737.7L708,1737.7L708,1737.7z"/>
		<path fill="#BFBBAD" d="M724.3,1743.7c-0.2-0.1-0.3-0.1-0.5-0.2c0,0,0,0,0,0.1C724,1743.6,724.1,1743.7,724.3,1743.7z"/>
		<path fill="#BFBBAD" d="M723.8,1743.5L723.8,1743.5L723.8,1743.5L723.8,1743.5L723.8,1743.5z"/>
		<path fill="#80756B" d="M685.7,1773.7c0.1,1.2,0.2,2.3,0.3,3.5C685.9,1776,685.8,1774.8,685.7,1773.7z"/>
		<path fill="#80756B" d="M686.5,1782.7L686.5,1782.7c0-0.2,0-0.4,0-0.6C686.5,1782.3,686.5,1782.5,686.5,1782.7z"/>
		<path fill="#62F2FF" d="M737.8,1748.6c0.8,0.2,1.6,0.5,2.4,0.8l0,0C739.4,1749.1,738.6,1748.8,737.8,1748.6z"/>
		<path fill="#62F2FF" d="M736,1748.3L736,1748.3C736,1748.3,736,1748.3,736,1748.3L736,1748.3z"/>
		<path fill="#80756B" d="M798.4,1760.6c-5.8,12.3-8.3,28.3-9.4,41.9c1.2-6.7,3.1-13.4,4.7-20.1
			C795.5,1775.2,795.8,1767.6,798.4,1760.6z"/>
		<path fill="#5C5856" d="M801,1816.1c-2.4-10-5-25.9-2.1-40.1c0.7-3.4,1.4-6.4,2-8.9c-1.7,3.5-3.3,6.9-4.9,10.5
			c-4.5,10-5.3,21.7-7.2,32.4c0,0.3-0.1,0.5-0.2,0.8c-0.1,1.3-0.1,2.5-0.1,3.7C796,1815,799,1814.7,801,1816.1
			C800.9,1816.1,800.9,1816.1,801,1816.1z"/>
		<path fill="#5C5856" d="M810.1,1748.2c-0.6,1.2-1.1,2.4-1.7,3.6c1.3-0.9,2.8-1.6,4.5-2.3c0.7-0.3,1.4-0.8,2.2-1.3
			c-0.4-0.2-0.7-0.3-0.9-0.3C813.4,1747.6,812,1747.8,810.1,1748.2z"/>
		<path fill="#5C5856" d="M793.7,1782.4c-1.6,6.7-3.6,13.4-4.7,20.2c-0.2,2.8-0.4,5.5-0.5,8.1c0.1-0.2,0.2-0.5,0.2-0.8
			c2-10.7,2.8-22.4,7.2-32.4c1.6-3.5,3.2-7,4.9-10.5c2.5-9.8,4.6-13.3,7.5-15.3c0.6-1.2,1.1-2.4,1.7-3.6c-1.2,0.2-2.6,0.5-4.1,0.8
			c-3,3.2-5.5,7.2-7.6,11.6C795.8,1767.5,795.5,1775.2,793.7,1782.4z"/>
		<path fill="none" d="M711.1,1740.1c-0.4-0.2-0.7-0.3-1-0.5C710.4,1739.8,710.7,1739.9,711.1,1740.1z"/>
		<path fill="none" d="M692.7,1713.8c0-0.1,0-0.1,0-0.2C692.8,1713.7,692.8,1713.7,692.7,1713.8z"/>
		<path fill="none" d="M692.7,1714c0,0.1,0,0.1,0,0.2C692.7,1714.2,692.7,1714.2,692.7,1714C692.6,1714.1,692.7,1714.1,692.7,1714z"
			/>
		<path fill="none" d="M692.8,1713.4C692.8,1713.5,692.8,1713.5,692.8,1713.4C692.8,1713.5,692.8,1713.5,692.8,1713.4L692.8,1713.4z
			"/>
		<path fill="none" d="M711.1,1740.1c0.2,0.1,0.4,0.2,0.6,0.2l0,0C711.5,1740.2,711.3,1740.2,711.1,1740.1z"/>
		<path fill="none" d="M778.2,1796.9c0-0.1,0-0.1,0-0.2l0,0c-0.1,0-0.1,0.1-0.2,0.1C778.1,1796.8,778.1,1796.8,778.2,1796.9z"/>
		<path fill="#BFBBAD" d="M703.8,1734.9c-0.5-0.4-0.9-0.9-1.4-1.3C702.9,1734,703.3,1734.5,703.8,1734.9c0.7,0.6,1.3,1.2,2,1.7
			C705.1,1736.1,704.5,1735.5,703.8,1734.9z"/>
		<path fill="#BFBBAD" d="M703.8,1734.9c0.8,0.8,1.7,1.5,2.6,2.2c-0.2-0.2-0.4-0.3-0.6-0.5C705.1,1736.1,704.5,1735.5,703.8,1734.9z
			"/>
		<path fill="#BFBBAD" d="M791.9,1759.9c-1.5-0.1-3-0.2-4.6-0.4c-0.7,1.1-1.3,2.2-1.9,3.3c-1.4,2.6-2.7,5.3-3.8,8.1
			c-1.4,3.4-2.5,6.8-3.5,10.3c-0.3,1.1-0.6,2.3-0.9,3.4c-0.2,0.9-0.5,1.8-0.7,2.8c-0.4,1.7-0.1,2.3-1.3,2.2c-0.3,0-0.7-0.1-1.3-0.2
			c-0.7-0.1-1.2-0.3-1.5-0.6c-0.2-0.2-0.4-0.3-0.5-0.5c-0.6-0.8-0.4-2.1-0.5-3.6v-0.3c-0.2-4.8,2.4-10,1.7-14.7
			c-1.2-7.4-13.5-10.2-19.3-11.8c-0.3-0.1-0.6-0.1-0.8,0c-0.4,0.1-0.6,0.4-0.7,0.8h-0.1l0,0c-0.6,0.3-1,0.9-0.8,1.6v0.1
			c0,0.1,0,0.1,0,0.2v0.1c-0.2,0.3-0.4,0.7-0.4,1.2c0,2.6,0,5.2-0.1,7.8c-0.2,0.9-0.5,1.8-0.7,2.6c-0.8,3.1-1.4,6.2-2,9.3
			c-0.1,0.3-0.1,0.6-0.2,0.9c0,0.1,0,0.3-0.1,0.4c-0.5,3.2-0.9,7.1-2.4,10c-0.1,0.2-0.2,0.3-0.3,0.5c-0.8,1.5-1.8,2.6-3.3,1.7
			c-0.6-0.3-1.3-1-2.1-2.2c-0.1-0.2-0.2-0.3-0.3-0.5c-0.7-1.3-0.9-3.3-1.1-4.6c-0.2-0.8-0.3-1.7-0.4-2.5c-0.7-4.8-1.1-9.7-1-14.6
			c0-1.4,0-2.8,0.1-4.2c0.2-4.6,1.2-8.9,2.2-13.3c0.3-1.3,0.6-2.6,0.8-3.8c-0.8-0.2-1.6-0.5-2.4-0.8c-0.1,0-0.3-0.1-0.4-0.1
			c-0.4,0-0.9-0.1-1.3-0.2h-0.1c-2.4,4.2-5,8.2-6.9,12.6c-0.6,1.5-1.2,3-1.6,4.6c-1,3.7-1.7,7.3-2.3,11.1c0,0.2,0,0.4-0.1,0.6
			c-0.2,2.5-0.4,9-1.6,10.3c-3.2,3.5-4.1-6-4.4-7.6c-0.2-1-0.3-2-0.4-2.9c-0.3-2.7-0.4-5.4-0.3-8c0-0.7,0-1.4,0.1-2
			c0.2-3.4,0.7-6.8,1.4-10.2c0.9-4.2,2.2-8.3,3.8-12.3l0,0c0,0,0,0,0-0.1v-0.1c0-0.1,0-0.2,0.1-0.3c0-0.1,0-0.2,0-0.3
			c-1.5-0.5-3.5-1.2-6-1.8c-0.5-0.1-1-0.3-1.5-0.4c0.8,0.4,1.3,0.7,1.4,0.7c-1-0.3-1.9-0.6-2.8-1l0,0c-5.7-2.1-10-5.2-16.2-13.2
			c-0.3-0.4-0.6-0.8-0.9-1.2l-0.5,0.9l-0.5,0.9l0,0l-0.2,0.3l-1,49.4l-1.8,10.1c1.4,0.8,3,1.5,4.6,2.1c19.3,7.4,22.7,10.8,57.1,18.5
			c14.2,3.2,23.8,4.5,30.4,5.2c0-0.4,0-0.8,0-1.2c0.1,0,0.1,0,0.2-0.1c0.6-0.2,1.2-0.6,1.6-1.2c0.1-3.1,0.5-6.1,1.1-9.1
			c1.1-13.6,3.7-29.6,9.4-41.9c0.1-0.2,0.1-0.3,0.2-0.5c0-0.1,0-0.1,0.1-0.2C796.4,1760.1,794.1,1760.1,791.9,1759.9z M706.4,1737.1
			c-0.1-0.1-0.2-0.2-0.4-0.3c0.2,0.2,0.4,0.3,0.6,0.5C706.6,1737.2,706.5,1737.2,706.4,1737.1z M778.2,1796.7c0,0.1,0,0.1,0,0.2
			c0,0-0.1-0.1-0.2-0.1C778.1,1796.7,778.1,1796.7,778.2,1796.7L778.2,1796.7z"/>
		<path fill="#5C5856" d="M685.2,1736.4c3.3-12.2,7.2-23.6,7.2-23.6s-0.1,0.6,0.1,1.8c0-0.2,0.1-0.3,0.1-0.4s0-0.1,0-0.2
			s0-0.2,0.1-0.2c0-0.1,0-0.1,0-0.2s0-0.1,0-0.1v-0.1l0,0v-0.1c0,0-0.1,0.3-0.3,0.8c0,0,0,0,0-0.1c0,0,0,0,0,0.1
			c0,0.2-0.1,0.4-0.1,0.6c0.3,2.3,1.5,6.4,5.4,11.8l4.4-8.1c-3.7-7.3-4.6-15.4-1.8-24c0,0-10.3,7.8-15.1,16.8
			c-3.3,6.4-4.6,11.5-5.5,21.1c-0.4,4-0.7,8.7-1.1,14.7c-0.5,6.9-0.6,13.2,0.3,18.9c0.4-2,0.8-3.9,1.3-5.8
			C682,1749.9,683,1744.6,685.2,1736.4z"/>
		<path fill="#5C5856" d="M715,1741.1L715,1741.1L715,1741.1z"/>
		<path fill="#5C5856" d="M679.1,1766.1c0.1,0.4,0.1,0.7,0.2,1.1c0.4-2.5,0.8-4.8,1.1-6.9C680,1762.2,679.5,1764.1,679.1,1766.1z"/>
		<path fill="#5C5856" d="M692.5,1714.7c0,0.1,0,0.1,0,0.2c0-0.2,0.1-0.5,0.1-0.6C692.6,1714.3,692.5,1714.5,692.5,1714.7z"/>
		<path fill="#80756B" d="M697.6,1727.9L697.6,1727.9L697.6,1727.9z"/>
		<path fill="#80756B" d="M692.8,1713.4C692.8,1713.5,692.8,1713.5,692.8,1713.4c0,0.1-0.1,0.1-0.1,0.2c0,0,0,0.1,0,0.2
			s0,0.2-0.1,0.2v0.1C692.7,1713.8,692.8,1713.6,692.8,1713.4z"/>
		<path fill="#80756B" d="M692.8,1713.6C692.8,1713.5,692.8,1713.5,692.8,1713.6L692.8,1713.6z"/>
		<path fill="#80756B" d="M692.6,1714.2c0.2-0.5,0.3-0.8,0.3-0.8s0,0,0,0.1C692.8,1713.6,692.7,1713.8,692.6,1714.2L692.6,1714.2z"
			/>
		<path fill="#80756B" d="M692.7,1714c0-0.1,0-0.2,0.1-0.2C692.7,1713.8,692.7,1713.9,692.7,1714z"/>
		<path fill="#BFBBAD" d="M716.4,1741.3L716.4,1741.3c-0.2-0.1-0.2-0.1-0.3-0.1C716.2,1741.2,716.3,1741.3,716.4,1741.3z"/>
		<path fill="#BFBBAD" d="M692.2,1733.3c0.3-0.4,0.7-0.9,1.1-1.3C692.9,1732.5,692.5,1732.9,692.2,1733.3z"/>
		<path fill="#BFBBAD" d="M692.2,1733.4c0.3-0.4,0.7-0.8,1-1.2C692.8,1732.5,692.5,1732.9,692.2,1733.4
			C692.2,1733.3,692.2,1733.4,692.2,1733.4z"/>
		<path fill="#BFBBAD" d="M696.7,1728.9l0.2-0.3c-0.3,0.3-0.7,0.6-1.1,0.9c-0.8,0.8-1.7,1.6-2.5,2.4l-0.1,0.1l0,0l-0.1,0.1
			c-0.4,0.4-0.7,0.8-1,1.2l-0.1,0.1c-1,1.4-1.9,2.8-2.6,4.3c-0.8,1.7-1.4,3.4-1.8,5.2c0,0.1-0.1,0.2-0.1,0.3l0,0
			c0,0.1-0.1,0.3-0.1,0.4c-0.6,2.5-0.9,5.2-1.1,7.8c-0.2,2.7-0.3,5.4-0.5,8.1c-0.3,4.5-0.5,9.1-0.2,13.6c0,0.1,0,0.3,0,0.4v-0.1
			c0,0,0,0,0,0.1c0.1,1.2,0.2,2.3,0.3,3.5c0.1,1.3,0.3,2.6,0.4,3.9c0,0.3,0,0.7,0,1.1c0,0.2,0,0.4,0,0.6c2,2.1,4.5,4,7.5,5.7
			l1.8-10.1L696.7,1728.9z"/>
		<path fill="#BFBBAD" d="M693.3,1732L693.3,1732L693.3,1732z"/>
		<path fill="#BFBBAD" d="M687.7,1743c0,0.1-0.1,0.2-0.1,0.3l0,0l0,0C687.6,1743.2,687.7,1743.1,687.7,1743c0.3-1.2,0.7-2.4,1.1-3.5
			C688.4,1740.6,688,1741.8,687.7,1743z"/>
		<path fill="#BFBBAD" d="M716,1741.2c-0.4,0-0.7-0.1-1.1-0.1c0.9,0.3,1.9,0.7,2.9,1c0,0-0.6-0.3-1.5-0.7
			C716.3,1741.3,716.2,1741.2,716,1741.2C716.1,1741.2,716,1741.2,716,1741.2z"/>
		<path fill="#BFBBAD" d="M686.4,1751.6c-0.2,2.7-0.3,5.4-0.5,8.1C686.1,1757,686.2,1754.3,686.4,1751.6z"/>
		<path fill="#BFBBAD" d="M685.7,1773.7c0-0.1,0-0.3,0-0.4C685.7,1773.4,685.7,1773.5,685.7,1773.7L685.7,1773.7z"/>
		<path fill="#BFBBAD" d="M693.3,1732L693.3,1732L693.3,1732z"/>
		<path fill="#80756B" d="M697.9,1726.7l-0.5,0.9l-0.5,0.9c-0.4,0.3-0.7,0.6-1.1,1c-0.8,0.8-1.7,1.6-2.5,2.4l-0.1,0.1
			c-0.4,0.4-0.7,0.9-1.1,1.3l0,0l-0.1,0.1c-1.4,1.9-2.5,3.8-3.3,5.9c-0.4,1.2-0.8,2.3-1.1,3.5c0,0.1-0.1,0.2-0.1,0.3l0,0
			c0,0.1-0.1,0.3-0.1,0.4c-1.2,5.1-1.3,10.6-1.6,15.9c-0.3,4.5-0.5,9.1-0.2,13.6c0,0.1,0,0.2,0,0.3c0,0,0,0,0,0.1
			c0.1,1.2,0.2,2.3,0.3,3.5c0.1,1.3,0.3,2.6,0.4,3.9c0,0.3,0,0.7,0,1.1c0,0.2,0,0.4,0,0.6c-4-4.3-6.2-9.5-7.2-15.5
			c0.4-2.5,0.8-4.8,1.1-6.9c1.6-10.4,2.6-15.8,4.8-23.9c3.3-12.2,7.2-23.6,7.2-23.6s-0.1,0.6,0.1,1.8c0,0.1,0,0.1,0,0.2
			C692.8,1717.1,694,1721.2,697.9,1726.7z"/>
		<g>
			<path fill="#888984" d="M1284.1,1730.7c-3.3,1.8-6.6,3.7-9.8,5.6c-1.4,4.3-3.3,8.9-4,13.2c6.4-3.1,11.4-6.3,15.8-10.1
				c0.8-3.5,1.2-7.1,1.5-10.7C1286.4,1729.4,1285.3,1730,1284.1,1730.7z"/>
			<path fill="#888984" d="M1263,1678.8c1.3,0.6,2.6,1.4,3.9,2.2c3.9-0.8,8.2-1.4,12.2-1.2c-2.8-1.6-7.3-3.9-11-4.5
				c-2,0.4-4,0.9-5.8,1.5C1261.9,1677.5,1262.1,1678.4,1263,1678.8z"/>
			<path fill="#888984" d="M1238.2,1693.6c-0.3-0.3-0.6-0.6-0.9-0.8c-1.6-1.3-3.3-2.6-5.2-3.7c-2.7,1.1-5.4,2.3-8.3,3.5
				c1.4,1.7,2.8,3.5,4.2,5.3C1231.4,1696.5,1234.8,1695.1,1238.2,1693.6z"/>
			<path fill="#888984" d="M1262.9,1742.6c-0.5,0.3-1,0.5-1.5,0.8c-0.9,0.5-1.7,0.9-2.6,1.3c-3.6,1.8-7.3,3.5-10.9,5.1
				c0.6-3.6,0.8-7.3,1.1-10.5c0.7-8.7,1.7-20.7-4-28c-0.7-0.9-2.2-0.3-2.4,0.6c-0.8,3.7-0.4,7.8-0.4,11.7c0,1.2,0,2.3,0,3.5
				c0,3.3,0,6.5-0.2,9.8c-0.3,4.1-1,7.8-2.4,11.7c-0.7,1.9-1.8,3.7-2.7,5.4c-1.1,0.4-2.2,0.7-3.3,1.1c-5.9,1.9-11.9,3.5-18.2,4.8
				c-16.9,3.6-34.4,5.7-51.7,3.7c-3.3-0.4-6.5-0.9-9.7-1.6c-3.5-2.6-6.9-5.4-10.2-8.1c-7.7-6.2-15.2-12.7-22.3-19.6
				c-6.9-6.7-13.4-13.7-19.3-21.2c-3.4-4.3-6.4-8.8-9.8-13c7.2,0.7,14.4,1.4,21.6,2.7c1.3,0.2,2.7,0.5,4,0.7
				c-3.2-2.9-6.7-5.5-10.5-7.6c-0.4-0.2-0.8-0.4-1.2-0.6c-18.6-3.1-39.8-7.1-39.8-7.1s-0.1,0.3-0.4,0.7c1.3,1.2,2.4,2.6,3.2,4.2
				c3.4,6.2,4.1,15.8,3.9,29.2c-0.2,18.5-4.5,20.7-4.5,20.7s40.1,9.3,57.5,14.1c7.1,1.9,12.8,3.5,19.2,4.8
				c9.1,1.9,19.6,3.4,37.3,4.9c7.3,0.6,14.1,1.1,20.2,1.6c10.1-1.4,20-3.9,33.2-7.4c0.3-0.1,0.5-0.1,0.8-0.2c1.8-0.5,3.6-1,5.3-1.4
				c6.2-1.7,11.6-3.4,16.3-5.1c0.4-0.1,0.7-0.3,1.1-0.4c3.9-1.4,7.4-2.9,10.5-4.4c1-3.9,1.7-8.1,2.2-12.2
				C1269.1,1739.2,1266,1740.9,1262.9,1742.6z"/>
			<path fill="#888984" d="M1170.7,1711.1c0.4-1.7,0.5-3.3-0.1-4.7c-0.1-0.3-0.6-0.3-0.8-0.2c-0.4,0.2-0.8,0.5-1.1,0.7
				c-0.2,0.1-0.4,0.3-0.5,0.5c-0.9,1.1-1.5,2.4-2.2,3.7C1167.6,1711.2,1169.2,1711.2,1170.7,1711.1z"/>
			<path fill="#888984" d="M987.3,1816.4c-0.1,2.2-0.3,4.4-0.4,6.6c3.3-2.1,6.5-4.2,9.5-6.6c-0.1-1.8-0.2-3.7-0.4-5.5
				C993.2,1812.9,990.3,1814.7,987.3,1816.4z"/>
			<path fill="#888984" d="M1027.1,1781c-0.6,2.1-1,4.2-1,6.3c4.8-5.1,6.2-7,12.2-13.8c0.2-2.1,0.5-4.1,0.8-5.9
				c0.1-0.6,0.2-1.2,0.4-1.9c-2.9,3.7-5.8,7.4-8.8,11C1029.6,1778.1,1028.4,1779.6,1027.1,1781z"/>
			<path fill="#888984" d="M882.2,1851c-1.2,0-2.5-0.1-3.7-0.2c0.7-2.7-0.8-4.8-2-7.5c-1.8-3.9-3.8-7.7-5.5-11.7
				c-2.9-6.8-5.2-13.9-8.1-20.7c-0.2-0.5-1-0.2-1,0.3c0.6,7.4,2.5,14.7,4.2,21.9c-0.3-0.1-0.6,0-1,0.1c-5.6,2.2-3.4,9.8-1.1,15.5
				c6.2,1.2,12.2,2.1,18.1,2.5C882.2,1851.2,882.2,1851.1,882.2,1851C882.2,1851.1,882.2,1851.1,882.2,1851z"/>
			<path fill="#888984" d="M922.1,1844c-1.5-2.3-2.8-4.8-4.3-7.1c-1.5-2.4-3-5.6-5.4-7.1c-0.4-0.2-0.9,0.1-0.9,0.5
				c0,0.9,0.1,1.9,0.4,2.8c0.2,0.7,0.5,1.4,0.7,2.1c0.5,1.3,1.1,2.7,1.5,4c0.7,2.2,1.4,4.5,1.9,6.8c-0.1,0-0.3,0.1-0.4,0.1
				c0.3,1,0.6,2,1,2.9c2.8-0.5,5.7-1.2,8.6-1.9c0.1-1.4,0-2.8-0.3-4.2C924,1843.4,923,1843.7,922.1,1844z"/>
			<path fill="#888984" d="M737.8,1745.9c-0.3,0-0.6,0.2-0.9,0.6c-0.3,0.6-0.7,1.2-1,1.8h0.1c0.4,0.1,0.9,0.1,1.3,0.2
				c0.1,0,0.3,0.1,0.4,0.1c0.8,0.2,1.6,0.5,2.4,0.8c0.2-1.1,0.4-2.1,0.6-3.2c-0.8-0.3-1.7-0.5-2.6-0.8
				C738.1,1745.5,738,1745.7,737.8,1745.9z"/>
			<path fill="#888984" d="M808.4,1751.8c-2.9,2-5,5.5-7.5,15.3C803.3,1762,805.9,1756.9,808.4,1751.8z"/>
			<path fill="#888984" d="M798.6,1760L798.6,1760c0,0.1-0.1,0.1-0.1,0.2c-0.1,0.1-0.1,0.3-0.2,0.4c2.1-4.4,4.6-8.4,7.6-11.6
				c-3.7,0.7-8.2,1.6-13,2.2c-1.4,1.8-2.7,3.7-3.9,5.5c-0.6,0.9-1.2,1.8-1.8,2.8c1.5,0.2,3,0.3,4.6,0.4
				C794.1,1760,796.4,1760.1,798.6,1760c0,0.1-0.1,0.1-0.1,0.2C798.6,1760.1,798.6,1760,798.6,1760z"/>
			<path fill="#888984" d="M787.9,1811.7c0,0.9-0.1,1.8-0.1,2.6c0.2,0,0.3,0,0.5,0c0-1.2,0.1-2.4,0.1-3.7c-0.1,0.2-0.2,0.4-0.2,0.6
				c0.1-0.2,0.2-0.4,0.2-0.6c0.1-2.5,0.3-5.2,0.5-8.1l0,0c1.2-6.8,3.1-13.5,4.7-20.2c-1.6,6.7-3.6,13.4-4.7,20.1
				C788.4,1805.6,788,1808.6,787.9,1811.7z"/>
			<path fill="#888984" d="M796.2,1768.6c0.5-2.7,1.2-5.4,2.2-8c0-0.2,0.1-0.3,0.2-0.4c-0.1,0.2-0.1,0.3-0.2,0.5
				C797.4,1763.2,796.7,1765.9,796.2,1768.6z"/>
			<path fill="#888984" d="M820.5,1751.1c-2.4-1.4-4.2-2.5-5.4-3c-0.8,0.6-1.5,1-2.2,1.3c-1.7,0.8-3.2,1.4-4.5,2.4
				c-2.5,5.1-5,10.2-7.5,15.3c-0.6,2.5-1.3,5.5-2,8.9c-2.9,14.2-0.3,30.1,2.1,40.1c0.9,0.7,2.2,2.2,4.2,4.3
				c3.1,3.3,7.7,7.9,14.9,12.4c-5.1-27.8-4.3-64.2,2.7-80.5C821.9,1751.9,821.2,1751.5,820.5,1751.1z"/>
			<path fill="#888984" d="M832.4,1812.4c-0.7,7.5-1.8,18-3.4,25.5c2,0.9,4.1,1.9,6.3,2.8c0.5-4.7,1.2-13.6,2-26.8
				c1.2-20.7-2.5-26.9-2.5-26.9S834.1,1794.4,832.4,1812.4z"/>
			<path fill="#888984" d="M796,1769.9c-0.8,4.2-1.3,8.4-2.3,12.5C794.7,1778.3,795.2,1774.1,796,1769.9z"/>
			<path fill="#888984" d="M708.2,1733.9c1.4,3.3,5.7,6,8.1,7.3c1.1,0.1,2.2,0.2,3.2,0.2C714.7,1739.1,709.6,1736.2,708.2,1733.9z"
				/>
			<path fill="#888984" d="M708.2,1733.9c-0.2-0.5-0.4-1-0.4-1.6c-0.1-0.9-0.1-1.9,0-2.7l0,0l0,0c0.2-0.7,0.5-1.5,0.9-2.1
				c-0.2-0.2-0.3-0.4-0.5-0.6l0,0c-2.3-2.6-4.2-5.3-5.7-8.2l-4.4,8.1c0.3,0.4,0.6,0.8,0.9,1.2c6.2,8,10.5,11.1,16.2,13.2
				c0.4,0.1,0.7,0.1,1.1,0.1l0,0c0.1,0,0.1,0,0.2,0C713.9,1739.9,709.6,1737.2,708.2,1733.9z M707.7,1732.9
				c-0.2-0.5-0.2-1.1-0.2-1.6C707.4,1731.8,707.5,1732.3,707.7,1732.9z"/>
		</g>
		<path fill="#BFBBAD" d="M716.1,1741.2L716.1,1741.2c-0.4,0-0.7-0.1-1.1-0.1l0,0C715.3,1741.1,715.7,1741.2,716.1,1741.2
			C716,1741.2,716.1,1741.2,716.1,1741.2z"/>
		<path fill="#BFBBAD" d="M695.8,1729.5c-0.8,0.8-1.7,1.6-2.5,2.4l-0.1,0.1l0.1-0.1C694.2,1731.1,695,1730.3,695.8,1729.5
			c0.3-0.3,0.7-0.6,1.1-0.9l0,0C696.5,1728.9,696.2,1729.2,695.8,1729.5z"/>
		<path fill="#BFBBAD" d="M686.4,1751.6c0.2-2.7,0.5-5.3,1.1-7.8c0-0.1,0.1-0.3,0.1-0.4c0,0.1-0.1,0.3-0.1,0.4
			C686.9,1746.3,686.6,1748.9,686.4,1751.6z"/>
		<path fill="#BFBBAD" d="M692.2,1733.4L692.2,1733.4c-1.1,1.5-2,2.9-2.6,4.4C690.3,1736.3,691.1,1734.9,692.2,1733.4
			C692.1,1733.5,692.1,1733.4,692.2,1733.4C692.2,1733.4,692.2,1733.3,692.2,1733.4C692.2,1733.3,692.2,1733.4,692.2,1733.4z"/>
		<path fill="#BFBBAD" d="M685.9,1759.7c-0.3,4.5-0.5,9.1-0.2,13.6c0,0.1,0,0.2,0,0.3c0-0.1,0-0.2,0-0.3
			C685.4,1768.8,685.6,1764.2,685.9,1759.7c0.2-2.7,0.3-5.4,0.5-8.1s0.5-5.3,1.1-7.8C686.3,1748.9,686.2,1754.4,685.9,1759.7z"/>
		<path fill="#BFBBAD" d="M693.3,1732L693.3,1732L693.3,1732L693.3,1732C693.3,1732,693.3,1732,693.3,1732z"/>
		<path fill="#BFBBAD" d="M696.9,1728.6c-0.4,0.3-0.7,0.6-1.1,1C696.2,1729.2,696.5,1728.9,696.9,1728.6L696.9,1728.6z"/>
		<path fill="#BFBBAD" d="M695.8,1729.5c-0.8,0.8-1.7,1.6-2.5,2.4C694.2,1731.1,695,1730.3,695.8,1729.5z"/>
		<path fill="#BFBBAD" d="M692.2,1733.3L692.2,1733.3c0.3-0.4,0.6-0.8,1-1.2l0.1-0.1C692.9,1732.5,692.5,1732.9,692.2,1733.3z"/>
		<path fill="#BFBBAD" d="M693.2,1732.1L693.2,1732.1L693.2,1732.1L693.2,1732.1z"/>
		<path fill="#BFBBAD" d="M692.2,1733.3C692.2,1733.4,692.2,1733.4,692.2,1733.3C692.2,1733.4,692.2,1733.3,692.2,1733.3
			L692.2,1733.3z"/>
		<path fill="#BFBBAD" d="M687.7,1743c0.5-1.8,1-3.5,1.8-5.2c-0.2,0.6-0.5,1.1-0.7,1.7C688.4,1740.6,688,1741.8,687.7,1743z"/>
		<path fill="#BFBBAD" d="M688.8,1739.4c0.2-0.6,0.5-1.1,0.7-1.7c0.7-1.5,1.5-2.9,2.5-4.3C690.6,1735.4,689.6,1737.3,688.8,1739.4z"
			/>
	</g>
</g>
</svg>
