<?xml version="1.0" encoding="utf-8"?>
<!-- Generator: Adobe Illustrator 21.0.2, SVG Export Plug-In . SVG Version: 6.00 Build 0)  -->
<svg version="1.1" id="Layer_1" xmlns="http://www.w3.org/2000/svg" xmlns:xlink="http://www.w3.org/1999/xlink" x="0px" y="0px"
	 viewBox="0 0 2000 2000" enable-background="new 0 0 2000 2000" xml:space="preserve">
<g>
	<path fill="#9F592A" d="M622.1,300.1c22.1-34.7,24.9-46.7,48.4-66.3c21.4-17.9,39.4-36.3,62.1-35.6c20.1,0.7,74.9,50.1,90.4,75.3
		c14.1,22.9,49,42,66.5,54.5s31.2,14.6,36,14.5c0,0,44.4,31.4,70.8,41.5s46.5,19.8,56.2,13.7s25-28.5,33.8-53.7s11.1-87.3-23.8-146
		s-49-75.2-58.2-101.2s-9-48.6-4.2-64s6.8-19.2,7.2-23.2s-4.4-0.4-7.2,10.5s-5.5,29-5.5,29s0.3-26,3.6-37.5s4.9-14.5-2.6-3.6
		s-11.2,50.8-11.2,50.8S982,36,976.9,21.6s-6.4-16.2-7.5-18.2s-1.6-3.2,3.5,22s-3.5,59.5-3.5,59.5s0-23.1-5.5-48s-7.2-26.4-10.2-28
		s-0.9,10-4,22s-7.6,47-30.2,64.8c0,0,8.2-10.4,7-35.2S917.6,13.9,913.8,8s-7.1-7.8-5.2,0.8s4,39.6,0.5,52.8c0,0,0.5-16.5-7-35.8
		S892.6,1,890.2,1.1s-0.2,10-1,20.9S888,46.2,888,46.2s-0.6-20.6-2.5-27s-1,3.5-4.5,17s-9.8,39.2-9.8,39.2s1.8-14.8-9-37.5
		S847.8,12,843.7,9.1s0.9,4.2,1.2,11.2s1,42.8-3.8,52c0,0,1.9-20.8-4-35.2s-7.8-19.8-10.2-21.5s2.5,5.5,1.8,16.2s-2.2,34-2.2,34
		s-3.6-16.4-12.5-35.2s-9.4-22.1-12.2-23.2s1.8,6.9,2.5,18s1.5,34.2,1.5,34.2s-2.4-23.2-6.2-32.2s-8-14.4-5.8-3.2s2,27.5,2,27.5
		s-3.1-14.1-8-26s-6.2-12.9-9-14.8S777,13,779,21.1s9.9,54.6-2.2,73c0,0,2.1-21-2-40.2s-6.2-33.1-9.2-37s-3.8-0.4-3,8
		s2.5,40.1-8.2,58.8c0,0,0.6-12-7.8-31.2S730,18.1,728.8,21s5,17.4,5.8,32.8c0,0-12.2-20.8-20.2-26.8s-6.9-2.6-4,7
		s6.8,49.5-6.2,97.8c0,0-5.5-22-13.8-40.5s-9.6-20.5-12.8-19.2c-3.2,1.2,4.2,37.4,0,72c0,0-8.8-26.8-12.2-35.8s-6.9-5-7.5,5.8
		s-0.8,39.2-0.8,39.2s-5.5-17.2-10.8-23s-8.8-2.1-3.8,17.8c0,0-2.9-7.2-7.2-16.2s-4-7.8-2,2.8s10.9,49.8,14,77.5s1.8,39.2,1.8,39.2
		s-6-18.8-14-35.2s-14.4-32.9-17.8-37s-5.2-4.8-1.8,7.8s8.6,35.1,12.2,58s3.8,26.4,1,34c0,0-7.6-20.2-18.5-34.2s-10.9-9.9-9.2-3
		s8.9,16.2,13.2,31.8S622.1,300.1,622.1,300.1z"/>
	<g>
		<path fill="none" d="M782.6,167.3c0.7-8.9,2-17.7,3.2-26.4c1.1-7.9,2.5-15.8,3.7-23.8c-1.2,4.1-2.5,8.3-3.6,12.5
			C782.7,142,781.6,154.7,782.6,167.3z"/>
		<path opacity="0.31" fill="#091426" enable-background="new    " d="M625,293.6c-0.4-1-0.9-2-1.3-3"/>
		<path opacity="0.31" fill="#091426" enable-background="new    " d="M622.1,300.1c4-6.3,7.4-11.8,10.3-16.8
			c-0.8-2.7-1.7-5.4-2.6-8.1c-0.3,1.1-0.7,2.3-1.1,3.5c0,0-7.6-20.2-18.5-34.2s-10.9-9.9-9.2-3s8.9,16.2,13.2,31.8
			S622.1,300.1,622.1,300.1z"/>
		<path opacity="0.31" fill="#091426" enable-background="new    " d="M635,234.9c-1.7-4.3-3.7-8.4-5.8-12.4
			c-3.6-10.6-7.4-21.1-12.4-31.1c3.4,13,7.8,33.1,11,53.3c2.5,15.7,3.3,22.3,2.7,27.3c0.8,3.3,1.7,6.5,2.9,9.7
			c4.1-6.9,7.5-12.7,10.8-17.9C641.5,254.1,638.7,244.2,635,234.9z"/>
		<path opacity="0.31" fill="#091426" enable-background="new    " d="M1028.5,192.7c0-0.1-0.2,0-0.1,0.1
			c11.7,27.5,22.8,56.1,30.1,85.3c-0.1,0.1-0.2,0.3-0.1,0.5s0.2,0.4,0.4,0.6l0,0c0.2,1,0.5,2,0.7,3c-0.2,0.2-0.3,0.4-0.1,0.8
			c0.2,0.4,0.3,1,0.4,1.4c0.1,0.5,0.3,0.9,0.4,1.4c0,0.1,0,0.1,0.1,0.1c0.1,0.6,0.3,1.1,0.4,1.7c0,0.1-0.1,0.3-0.1,0.4
			c1.3,8.8,1.7,17.3,2,26.2c0.4,8.6,1.3,17,0.5,25.6c-0.8,8.3-2.4,16.5-4.9,24.5c-0.6-2.1-1.3-4.2-1.8-6.4
			c-2.5-10.4-3.1-21.6-4.9-32.1s-3.6-21-5.6-31.4c-2.2-10.9-5.4-21-8.9-31.5c-0.4-1.1-2-0.6-1.7,0.5c2.6,9.9,4.1,20.3,5.9,30.3
			c1.9,10.5,3.6,21,5.3,31.5c1.7,10.6,4.1,21.4,4.9,32.2c0.2,3.1-0.1,6.2-0.4,9.4c-2.1-6.1-4.3-12.2-6.5-18.3
			c-5.8-16.1-12.6-31.8-20.7-46.8c-16.5-30.6-27.1-63.3-31-97.9c-2.2-19.1-2.3-38.2-3-57.4c0-1-1.4-1-1.5,0c-1.8,17-1.4,34,0.1,51
			c1.4,16.5,3.7,32.9,8.2,48.9c4.5,16.2,9.9,31.8,17.2,47c7.7,16.1,14.9,32.4,20.6,49.3c3.6,10.5,6.3,21.2,8.6,31.9
			c-0.5-0.6-0.9-1.3-1.4-1.9c-5.8-7.9-11.7-15.7-17.2-23.9c-10.8-16.4-19.4-32.9-25.9-51.5c-6.4-18.2-11.5-36.6-14.9-55.6
			c-1.8-9.7-3.4-19.4-4.4-29.2c-0.5-4.5-0.9-9-1.3-13.5c-0.3-7.3-0.4-14.7-0.3-22c0.3-12.9,0.2-25.6,2.4-38.3
			c1.8-10.7,4.6-22.5,2.7-33.4c-0.2-1-1.8-0.7-1.7,0.2c1.4,12.3-2.8,24.4-3.9,36.5c-1.2,12.7-3.6,25-3.9,37.7
			c-0.3,12.3,0.2,24.5,1.5,36.8c0.9,8,1.9,16.2,3.5,24.1c0.1,0.8,0.3,1.6,0.4,2.4c3.4,19.8,8.1,39.6,14.6,58.6
			c6.4,18.8,15.4,35.7,26.2,52.4c3.9,6.1,7.5,12.2,11,18.5c-1.6-1.2-3.2-2.5-4.7-3.8c-3.4-3-6.8-6-10.1-9.1
			c-0.9-0.8-1.8-1.6-2.8-2.4c-2.5-3.3-4.9-6.7-7.2-10.1c-7.4-10.7-14.6-21.4-19.8-33.3c-2.3-5.4-4.6-10.7-6.9-16.1
			c0-0.2-0.1-0.4-0.2-0.6c-12.8-37.5-17.8-76.7-14.4-116.2c3.5-39.9,15.9-78.5,17.6-118.7c0.3-6.9,0.2-13.9-0.3-20.8
			c-1.2-6.5-2.8-13.8-4.9-19.7c-5.1-14.5-6.4-16.2-7.5-18.2s-1.6-3.2,3.5,22s-3.5,59.5-3.5,59.5s0-2.5-0.2-6.7
			c-1.5,14.1-4.1,28.1-6.8,42.1c-3.7,19.4-7.5,38.9-9,58.6c-1.5,19.1-0.7,38.6,1.5,57.7c2.5,21.5,7.2,42.6,14.2,63
			c0.3,1,0.9,1.7,1.5,2.3c1.5,5.3,3.3,10.3,5.6,15.3c5.8,13,13.8,24.7,21.9,36.3c4.2,6.1,8.4,12.3,12.9,18.2
			c-20.1-15.2-33.9-37.4-43.4-60.8c-12.4-30.4-22.1-63.5-20.7-96.6c0.4-9.6,0.9-19.6,2.5-29.1c1.1-6.5,3.1-13.5,3.8-20.4
			c0.9-6.3,1.5-12.7,2.1-19.1c0.4-4.2,0.6-8.4,0.8-12.6c0.2-3.6,0.9-7.1,0.3-10.7c0-0.1-0.2-0.1-0.2,0c0,8.2-2.9,16.6-4.2,24.8
			c-0.9,5.6-1.9,11.3-2.5,17.1c-1.7,5.5-2.5,11.5-3.5,17c-1.7,8.8-3.8,17.5-4.8,26.4c-2,17.3-1.5,34.6,2.2,51.6
			c-0.5-1.2-0.9-2.3-1.4-3.5c-1.9-5-2.9-10.3-4.4-15.3c-0.9-8.2-1.6-16.5-1.6-24.8c0.1-14.4,1.9-28.6,4-42.8c0.2-1.4-1.7-2-2.1-0.6
			c-8.9,27.1-8.1,56.7-6.1,84.8c0.7,9.7,1.7,19.6,3.5,29.3c-0.1-0.4-0.2-0.7-0.3-1.1c-5-15.8-8.6-32.4-10.9-48.8
			c-4.7-33.6,1-65.9,11.1-97.9c0.2-0.7-0.9-1.2-1.2-0.5c-16.5,30.1-19.9,67-17.9,100.7c0.4,6.4,1.1,12.8,2.1,19.1h-0.1
			c0-0.4-0.1-0.8-0.3-1.1c-6-16.1-6.8-33.2-6.1-50.2c0.7-17.5,1.4-35.5,5.6-52.5c8.2-33.6,27.6-63.3,35.9-96.9
			c2.2-8.9,3.6-18.1,3.8-27.2c0.1-4.7-0.1-9.3-0.7-14c-0.3-2.3-0.8-4.3-1.4-6.3c-0.3-0.2-0.7-0.4-1-0.6c-3-1.6-0.9,10-4,22
			s-7.6,47-30.2,64.8c0,0,2.8-3.5,4.9-11.3c-0.4,0.9-0.7,1.8-1.1,2.6c-3.3,7.7-7.2,15.1-11.2,22.5c-4.1,7.5-8.7,14.9-12.3,22.7
			c-1.3,3-2.5,6.1-3.5,9.2c-7.7,18.5-11.7,38.8-14.8,58.4c-2.9,18-3.1,36-0.9,54.1c0.5,4.1,1.1,8.3,1.7,12.6
			c-3.4-12.8-4.6-26.4-5.4-39.1c-0.7-11.9-0.6-23.8,0.6-35.7c1.2-12.5,4.8-24.7,8.8-36.6c0.1-0.4-0.5-0.7-0.7-0.3
			c-11.6,22-14,48.9-13.1,73.4c0.4,11.2,1.1,22.9,3.3,34.2c-7-17.2-10.1-35.7-9-54.8c1.6-26.6,10.6-51.6,16.7-77.2
			c1.1-3.9,2.2-7.8,3.1-11.7c0.7-2.2,1.4-4.4,2.1-6.6c5.4-17.6,7.7-35.3,7.3-53.6c-0.2-9.6-0.9-19.3-1.5-28.9
			c-0.5-8.5,0.2-17.9-1.6-26.3c-0.9-1.5-1.6-2-2.4-2c-2.4,0.1-0.2,10-1,20.9S888,46.2,888,46.2s-0.3-10.8-1.2-19.2
			c0.1,0.8,0.1,1.6,0.2,2.3c0.6,9.6,1.3,19.3,1.5,28.9c0.2,10.5-0.6,20.7-2.3,30.7c-1.1,4.2-2,8.5-2.8,12.8c-1,3.9-2.1,7.7-3.4,11.5
			c-10.1,30.7-25.5,60.9-26.8,93.5c-0.6,5.7-1,11.5-1.4,17.2c-0.3,5.1-0.6,10.4-0.8,15.9c-0.5-3-1-6-1.5-9
			c-2.9-18.1-4.5-36.4-6.6-54.6c-0.2-13.6-0.1-27.1,1.3-40.6c1.8-17.4,5.9-34.4,8-51.8c2.1-17.2,1.5-34.5-0.8-51.7
			c-0.8-6.1-1.5-12.4-2.8-18.5c-1.9-2.3-3.4-3.5-5-4.6c-4.1-2.9,0.9,4.2,1.2,11.2c0.3,6,0.8,32.7-2,46.3c-0.3,11.7-1.7,23.5-3.7,35
			c-5.6,31.4-16.1,62.4-14.6,94.5c-0.3-0.7-0.6-1.4-0.8-2.1c-0.4-1.3-0.8-2.7-1-4c-1-5.3-1.4-10.8-1.7-16.3
			c-0.7-11.8-1.2-23.6-0.2-35.4c1.2-13.5,4.1-26.8,6.1-40.2c2-9,3.2-18.3,4-27.4c0.9-10.7,1-21.6,0.3-32.3
			c-0.4-6.1-0.7-12.8-1.7-19.2c-1-1.8-1.8-2.9-2.7-3.6c-2.5-1.8,2.5,5.5,1.8,16.2s-2.2,34-2.2,34s-0.5-2.4-1.7-6.3
			c-0.3,4.1-0.6,8.1-1.1,12.2c-1.2,10.6-2.9,21.2-6.1,31.4c-0.6,2-1.4,4.1-2.3,6.3c-0.2-18.9-3.1-37.6-4.9-56.3
			c-0.8-8.7-1.8-17.4-3.9-25.8c-1.4-5.9-2.6-13.6-5.7-19.6c-0.4,1.7,2.8,8.7,3.4,17.7c0.5,7.9,1.1,21.7,1.3,29.1
			c0.1,1.3,0.3,2.7,0.4,4c0.9,9.6,0.9,19.2,1.3,28.9c0.5,9.5,1.2,19.1,0.9,28.6c-0.4,9.8-2.7,18.8-5,28.3
			c-2.2,8.8-3.3,17.6-3.8,26.6c-0.7,13.8-1.6,28-0.3,42c-3.7-11.5-6.1-23.3-6.6-35.7c-0.4-10.5-0.1-21,0.4-31.5
			c0.3-6.7,1.5-14,1.6-21c2.1-12.3,4.1-24.6,5.2-37.1c1.4-16.2,1-32.6-1.1-48.8c-0.9-6.7-1.8-13.6-3.7-20.1c-1.6-1.8-2.3-0.8-1,5.4
			c2.2,11.1,2,27.5,2,27.5s-3.1-14.1-8-26c-2.2-5.4-3.7-8.6-5-10.6c0.7,3.5,2.2,7.2,3,10.1c1.9,7.1,3.7,14.1,4.6,21.4
			c1.9,14.9,1.8,30-0.8,44.8c-2.6,14.9-8.7,28.8-11.7,43.6c-0.6,2.8-1,5.7-1.4,8.6c0-0.7,0.1-1.4,0.1-2.1c0.3-6.4,0.9-12.8,1.9-19.1
			c0.5-3.5,1.3-7.2,1.8-10.8c3.1-10.5,5.3-21.1,6.6-32c1.4-12.1,1.5-24.4,0.3-36.6c-0.6-5.8-1.3-11.6-2.3-17.4
			c-0.7-4.1-1-9.6-3.8-12.9c-0.7-0.7-1.4-1.2-2.2-1.7c-0.1-0.1-0.2-0.1-0.3-0.2c-0.4-0.1-0.8-0.1-1.2,0c-0.6,0.9,0.3,4.6,1.7,10.5
			c2,8.1,9.9,54.6-2.2,73c-1.7,7.6-3.8,15.2-6.2,22.7c-3.6,11.4-6.9,22.9-6.4,34.9c0,0.2,0,0.4,0.1,0.5c-0.5,4.6-0.8,9.2-1.1,13.8
			c-0.5,7-0.7,14.1-0.4,21.2c-0.8-2.6-1.4-5.2-2-7.9c-2.2-11-3.5-21.8-3.2-33.1c0.4-11.3,2.3-22.3,3.9-33.4
			c0.6-4.4,1.2-8.8,1.5-13.3c0.8-4.2,1.4-8.4,1.9-12.7c1.4-12.5,2-25.1,2-37.7c0-10,0.2-22.9-4.4-32.4c-0.3,1.6-0.3,4.3,0,8.1
			c0.6,7.2,2,31.4-4.3,50c-0.3,4.3-0.7,8.6-1.3,12.9c-1.6,12.3-4.9,24.2-8.2,36.1c-1.7,6-3.3,12-4.7,18c-0.2,0.9-0.5,1.8-0.7,2.6
			c-2.9-21-6.3-41.8-11.6-62.3c-3.1-12-6.6-23.9-10.2-35.8c-1.8-6.1-3.6-12.1-5.5-18.2c-0.5-0.5-1.1-1-1.6-1.3c-8-6-6.9-2.6-4,7
			s6.8,49.5-6.2,97.8c0,0-0.7-2.9-2-7.4c0.2,5.2,0.5,10.3,0.2,15.5c-0.1,1.1-0.1,2.3-0.2,3.4c-1.2-5.5-2.5-10.9-3.8-16.3
			c-2.6-11.3-4.8-23.4-10.7-33.5c-0.6-1-2.2-0.1-1.6,0.9c5.3,10.7,7.7,22.6,10.2,34.2c1.2,5.8,2.2,11.6,3,17.4
			c0.5,3.3,0.8,6.8,1.3,10.2c-0.4,2.5-0.7,5-1,7.5c-4.1-16.3-4.9-33.3-9.4-49.5c-2.4-8.7-6.6-16.7-8-25.7
			c-0.9-5.2-1.8-11.5-4.5-16.4c-2.4,2,2.4,28.3,1.3,57.1c0.3,4.3,0.5,8.6,0.7,13c0.4,12.7,0.3,25.5,1,38.2c-0.7-1.3-1.3-2.6-1.8-3.8
			c-0.6-1.3-1.1-2.6-1.7-3.9c-2-5.8-4.1-11.5-5.9-17.3c-4-13.2-5.7-27-9.8-40.1c0-0.1,0-0.1,0-0.2c-0.5-2.3-0.7-4.9-1.5-7.1
			c-0.2-0.4-0.4-0.9-0.6-1.3c-0.6,1.8-1,4.3-1.1,7.3c-0.4,6.6-0.6,20-0.7,29.3c0.7,2.8,1.4,5.7,2.2,8.5c0.1,2.2,0.1,4.4,0.1,6.6
			c0.1,4.1-0.1,8.3-0.2,12.5c-0.6-0.1-1.2-0.1-1.9-0.1c-1.6-5.4-3.4-10.8-5.6-15.9c-2.4-5.6-4.6-11-6.4-16.8
			c-0.8-2.7-1.4-5.5-2.6-8.1c-0.3-0.7-0.5-1.3-0.8-2c-2.2,0.5-2.9,5.6-0.3,17.2c1,3,2.1,5.9,3.3,8.8c2.8,6.6,4.7,13.4,6.1,20.3
			c-2.9-6.4-5.6-12.8-8.2-19.3c-3.8-9.3-8.7-19-11.1-29c-0.2,0.5,0.4,3.5,1.4,8.7c2,10.5,10.9,49.8,14,77.5s1.8,39.2,1.8,39.2
			s-1.6-5-4.2-12.1c-0.2,7.3-0.4,14.6,1.3,21.7c6.3-9.6,12.9-17.5,24.5-27.2c21.4-17.9,39.4-36.3,62.1-35.6
			c20.1,0.7,74.9,50.1,90.4,75.3c14.1,22.9,49,42,66.5,54.5s31.2,14.6,36,14.5c0,0,44.4,31.4,70.8,41.5s46.5,19.8,56.2,13.7
			c1.9-1.2,4-3,6.2-5.3c0.1-5.3,0.2-10.2,0.8-12c2.7-8.3,5.4-17.2,5.8-23.9c1.8-15.7,4.4-39.1,1.8-53.8
			C1060.2,263.9,1045.4,228.1,1028.5,192.7z M785.9,140.9c-1.2,8.6-2.6,17.5-3.2,26.4c-1.1-12.6,0-25.3,3.4-37.6
			c1.1-4.2,2.4-8.4,3.6-12.5C788.3,125.1,787,133,785.9,140.9z"/>
		<path opacity="0.35" fill="#E8FFFA" enable-background="new    " d="M733.4,57.2c-0.3-3.7-1.9-7.5-3.7-11.1
			c-3.8-5.8-9.2-13.4-13.7-17.6c2.7,4.1,4.9,8.4,7.5,12.7c3.2,5.3,4.7,11.2,7.7,16.5C731.8,58.7,733.5,58.3,733.4,57.2z"/>
		<path opacity="0.35" fill="#E8FFFA" enable-background="new    " d="M739.3,70.9c0.3,1.5,2.7,1.1,2.6-0.4
			c-0.8-9.8-2.5-20.2-5.2-30.1c6.6,14.6,11.9,29.9,13.1,45.6c0.2,2,3.4,2,3.2,0c-1.1-12.4-4.7-24.7-8.7-36.5
			c-0.9-2.8-1.9-5.6-2.9-8.5c-4.3-9.1-8.1-16.2-10.4-19.1c-0.3-0.4-0.7-0.8-1.1-1.1c-0.5-0.4-0.9-0.4-1.1,0c-0.8,1.9,1.7,9,3.6,18
			c0.6,2.3,1.3,4.6,1.9,6.9C736.5,54.2,737.8,62.6,739.3,70.9z"/>
		<path opacity="0.35" fill="#E8FFFA" enable-background="new    " d="M765.5,26.1c1,3.7,1.1,9.6,1.2,13.4c0.5,4.5,0.2,8.5,0.3,13
			c0.2,9.1-1.2,18-1.3,27c0,1.6,2.3,1.9,2.8,0.4c1.8-6.1,2.2-13.1,2-19.7c0.6,3.4,1.2,6.9,2.8,9.9c0.4,0.8,1.9,0.7,2-0.3
			c0.6-4.3-0.7-8.7-1.4-13c-0.9-5.3-1.8-10.7-2.8-16c-1.5-8-2.7-18.4-7.5-25.4c-0.5-0.1-0.9,0.2-1.2,1
			C763.7,19.6,764.7,23.2,765.5,26.1z"/>
		<path opacity="0.35" fill="#E8FFFA" enable-background="new    " d="M784.7,24.8c-0.2-0.5,0.2,3.1,0.4,3.7c0,0.1,0.1,0.2,0.1,0.3
			c0,0.2,0.1,0.4,0.2,0.8c0.9,3.2,1.2,5.9,2.1,9.1c1.9,6.8,1.7,14.3,3.5,21.1c0.4,1.5,0.5,0.7,0.4-0.6c-0.6-7.2-0.7-13.9-2.4-20.2
			c-1-3.5-1.2-6.7-2.6-10.1C785.1,25.4,785.3,26.2,784.7,24.8z"/>
		<path opacity="0.35" fill="#E8FFFA" enable-background="new    " d="M802.4,64.5c0.3,1.1,2.2,1.3,2.4,0c1.1-8.3-0.8-17.6-2.2-25.9
			c-0.9-4.3-1.9-8.3-3.1-11.1c-1.7-3.9-3.4-7.2-4.7-8.6c1.7,6.7,2.6,13.4,4,20.2C800.6,47.2,799.8,56.6,802.4,64.5z"/>
		<path opacity="0.35" fill="#E8FFFA" enable-background="new    " d="M813.8,33.9c-1.9-4.6-4.1-9.2-6.4-13.7
			c-1.9-3.9-3.7-8.7-6.6-12.1c0,1.3,1.1,4.5,2.1,8.8c0.5,1,1.1,2,1.5,3c2.4,5,4.3,10.1,6.2,15.3c3.5,9.5,6.4,19.1,8.9,28.9
			c0.5,2.1,3.7,1.2,3.2-0.9C820.7,53.3,817.8,43.3,813.8,33.9z"/>
		<path opacity="0.35" fill="#E8FFFA" enable-background="new    " d="M838,67.8c0,1.8,2.5,1.7,2.8,0c0.9-6.7-0.8-14.1-1.9-20.7
			c-0.6-3.1-1-7.3-2.1-11.1c-0.6-1.6-1.2-3-1.8-4.4c-0.6-1-1.2-1.9-2.1-2.6c-0.2-0.2-0.6-0.1-0.6,0.3c-0.1,2.9,1.2,5.6,1.9,8.5
			c0.8,3.3,1.3,6.6,1.7,10C836.8,54.4,838,61,838,67.8z"/>
		<path opacity="0.35" fill="#E8FFFA" enable-background="new    " d="M858.7,38.8c3.5,7.7,5.3,15.2,7.6,23.4s2.1,16.6,2.2,25
			c0.1,8.1-2.8,15.7-3.4,23.6c-0.1,0.9,1.3,1.2,1.6,0.4c3.8-7.5,5.1-17,6.4-25.3c0.9-5.5,0.7-11.3-0.3-17c-0.9,3.9-1.6,6.4-1.6,6.4
			s0.9-7.6-2.6-20.4c-1.8-5.1-3.9-10.1-6-15.1c-1.7-4-3.7-7.7-5.5-11.7c-1-2.1-2.4-5.1-3.9-7.9c-1.6-2.8-3-4.8-4.2-6.4
			c-0.6-0.5-0.2,0.9,0.2,1.9C851.9,22.7,855.7,32.3,858.7,38.8z"/>
		<path opacity="0.35" fill="#E8FFFA" enable-background="new    " d="M875.9,76c-0.3,2.1,2.8,3.1,3.3,0.9
			c1.7-7.2,2.5-14.8,2.9-22.3c0.2,6.4,0.3,12.9,1.3,19.2c0.3,1.8,2.8,1.1,2.9-0.4c1.1-9.6,0-19.8-0.5-29.4
			c-0.4-7.3-0.7-14.5-2.2-21.6c-0.5,3.4-1.2,8.4-2.6,13.9c-0.6,2.2-1.2,4.6-1.8,7.2c-0.1,2.6-0.3,5.2-0.4,7.9
			C878.3,59.7,877,67.8,875.9,76z"/>
		<path opacity="0.35" fill="#E8FFFA" enable-background="new    " d="M900.8,31.2c1.6,5.1,3,10.2,4,15.4c1,5.5,1,11.1,2.5,16.5
			c0.3,1,1.9,1.1,2.1,0c0.5-2.4,0.7-5,0.7-7.7c-0.3,2.3-0.6,4.3-1.1,6.1c0,0,0.5-16.5-7-35.8c-5-12.9-7.5-19.6-9.3-22.6
			C895.7,14.1,897.3,20.6,900.8,31.2z"/>
		<path opacity="0.35" fill="#E8FFFA" enable-background="new    " d="M924.1,84.2c-1.7,6.3-3.8,9.8-4.6,10.9
			C920.3,94,922.4,90.5,924.1,84.2z"/>
		<path opacity="0.35" fill="#E8FFFA" enable-background="new    " d="M919.3,95.5C919.3,95.5,919.2,95.5,919.3,95.5
			C919.2,95.5,919.3,95.5,919.3,95.5z"/>
		<path opacity="0.35" fill="#E8FFFA" enable-background="new    " d="M922.6,92.6L922.6,92.6c-0.5,0.5-1,1-1.6,1.4
			C921.5,93.6,922.1,93.1,922.6,92.6z"/>
		<path opacity="0.35" fill="#E8FFFA" enable-background="new    " d="M919.4,95.3L919.4,95.3C919.3,95.4,919.3,95.4,919.4,95.3z"/>
		<path opacity="0.35" fill="#E8FFFA" enable-background="new    " d="M919.5,95.1c-0.1,0.1-0.1,0.1-0.1,0.2
			C919.4,95.3,919.5,95.2,919.5,95.1z"/>
		<path opacity="0.35" fill="#E8FFFA" enable-background="new    " d="M908.8,114.8c1-1.8,2.1-3.6,3.1-5.5c4-7.3,7.9-14.8,11.2-22.5
			c0.4-0.9,0.7-1.7,1.1-2.6c1.5-5.6,2.7-13.5,2.1-24C925,35.4,917.6,13.9,913.8,8s-7.1-7.8-5.2,0.8c0.2,0.7,0.3,1.5,0.5,2.5
			c0.4,0.7,0.8,1.3,1.2,2c1.7,7.7,3.4,15.4,4.3,23.3c1,9.2,0.5,18.4,1.2,27.6c0.1,1.9,2.9,1.9,3,0c0.4-5.6,0.3-11.5-0.1-17.3
			c0.5,3,1,6,1.3,9.1c-0.6,7.6-1.2,15.1-2.8,22.7c-2,9.3-6.3,18-7.9,27.4c-0.9,2-1.6,4-2,6.1C906.7,113.4,907.7,114.6,908.8,114.8z"
			/>
		<path opacity="0.35" fill="#E8FFFA" enable-background="new    " d="M955.3,11.9c1.8,11.7,3.1,25,3.7,37.6
			c0.3,6.2,0.3,12.4-0.1,18.6c-0.4,6.5-2.1,12.8-2.5,19.2c-0.1,1.5,1.9,1.5,2.4,0.3c2.3-5.8,2.7-12.5,3.2-18.6
			c0.1-1.7,0.2-3.3,0.3-5c0.2,8.3,0.3,16.6,1.8,24.7c0.3,1.7,3.1,1.7,3.4,0c0.9-5.2,1.3-10.6,1.3-15.9c-0.6-9.1-2-22.3-5-36.1
			c-2.6-11.9-4.4-18.4-5.9-22.2c-0.2-0.1-0.3-0.2-0.5-0.3c-0.4-0.9-0.9-1.7-1.4-2.5C955.7,11.5,955.2,11.4,955.3,11.9z"/>
		<path opacity="0.35" fill="#E8FFFA" enable-background="new    " d="M1057.5,189.5c-5.9-9.1-11.8-18.2-17.5-27.2
			c-4.5-7.2-8.8-14.4-12.9-21.9c-11-17.6-17.7-29.2-22.8-43.7c-9.2-26-9-48.6-4.2-64c3.3-10.7,5.3-15.8,6.3-19.3
			c0.2-1.7,0.1-3.4-0.3-4.9c0-0.1-0.1-0.2-0.1-0.3c-1.6,1.1-4.1,5-5.9,11.8c-2.9,10.9-5.5,29-5.5,29s0.1-10,1-20.3
			c-0.1,0.1-0.3,0.2-0.4,0.4c0.3-1.7,0.5-3.4,0.8-5.1c0.5-4.7,1.2-9.2,2.2-12.5c0.1-0.4,0.2-0.8,0.4-1.2c0.2-2.1,0.3-4.3,0-6.4
			c0,0,0,0,0-0.1c-0.8,1-1.7,2.4-2.9,4.1c-1.5,2.1-2.8,5.4-3.9,9.2c-0.4,2.2-0.7,4.5-1,6.6c-1.2,7-2.2,14-2.7,21
			c-1.2,14.6-1.8,29.2-1.5,43.8c0.3,14.2,1.4,28.3,3.3,42.4c2,14.4,4,30.2,9.2,43.8c0.9,2.3,4,1.4,3.6-1c-1.2-7-3.4-13.9-4.8-20.9
			c-1.5-7-2.7-14.1-3.7-21.1c-2.1-14.6-3.2-29.3-3.5-44.1c-0.1-7.2,0-14.4,0.4-21.5c0.4,6.4,1,12.7,1.6,18.9
			c1,9.1,2.8,17.9,5.5,26.6c2.8,8.8,5.3,18.1,9.2,26.4c0.8,1.7,3.4,0.5,3-1.3c-2-8.9-5.9-17.5-8.7-26.2c-2.5-8-4.3-16.2-5.3-24.5
			h0.1c0.1,0,0.3,0,0.4,0c2.5,12.8,7,25.2,12.8,37c0.5,1,1,2,1.5,3c5.6,12.4,12.2,24.3,19.3,35.9c2,3.3,4.1,6.6,6.2,9.9
			c1.3,4.1,3.6,7.9,5.8,11.5c3.7,6,7.3,12,10.6,18.3c6.9,13,12.6,26.5,17.3,40.4c7.1,21.3,11.6,43.4,13.4,65.8
			c-3.3-22.5-7.4-45-14.9-66.5c-8.7-25-21.1-49.2-37.7-69.9c-0.6-0.7-1.7,0.2-1.2,1c13.1,19,24.5,38.8,33,60.2
			c-3.2-6.4-7-12.6-11.6-18.4c-0.5-0.6-1.6,0.2-1.2,0.9c17.9,24.8,22.9,56.5,26.4,86.1c1,8.6,2,17.3,2.2,25.9
			c-0.9,7.2-2.7,14.4-4.8,21.1c-1,3.3-2,6.6-3.1,9.9c0.9-4.6,1.7-9.2,2.2-13.9c1.2-10.4,2.4-21.6,1.5-32c0-0.5-0.7-0.5-0.8,0
			c-1,9.7-1.5,19.2-3.1,28.8c0.4-4.9,0.7-9.8,1.1-14.7c1.2-18.8-1-38.1-5.2-56.4c-0.1-0.5-0.9-0.3-0.8,0.2
			c1.7,9.4,1.6,19.3,2.2,28.8c0.6,9.2,1,18.1,0.4,27.4c-1.1,17.3-2.3,34.8-7.7,51.4c-0.3,0.2-0.9,2.2-1,2.8
			c-0.4,2.2-0.3,2.5-0.5,5.9c0,2-0.1,4.4-0.2,6c9.2-9.6,20.5-28.1,27.5-48.4c8.7-25.2,11.1-87.3-23.8-146
			C1060.8,195,1059.1,192.2,1057.5,189.5z"/>
		<path opacity="0.35" fill="#E8FFFA" enable-background="new    " d="M1059.2,360.3c1.1-7.5,0.2-15.2,0.7-22.7
			c1.1-14.6,2.7-29.1-0.8-43.5c-0.1-0.6-1.1-0.5-1,0.1c0.7,13.5-0.7,27.1-1.9,40.6c-0.5,6.6-0.7,16.5-0.6,19.5
			c0.4,1.9,1.2,5.4,1.6,6.6l1,3.5C1058.4,363.4,1058.9,362.5,1059.2,360.3z"/>
		<path opacity="0.35" fill="#E8FFFA" enable-background="new    " d="M1049.8,359.7c-3.6-19.7-7.4-39.3-12.1-58.8
			c-0.1-0.5-1-0.4-0.9,0.1c1.9,15.1,4.3,30.2,7,45.2c-1.7-4.8-3.3-9.6-4.9-14.4c-3-9.4-4.9-19-6.7-28.7
			c-3.8-20.8-8.5-41.6-10.8-62.7c-0.1-1-1.8-1.1-1.7,0c2,20.6,6.3,41,9.8,61.4c3.6,20.6,10.5,36.2,18.5,55.6
			c0.2,0.5,2.8,9.2,2.6,7.2C1050.5,363.3,1050.3,359.8,1049.8,359.7z"/>
	</g>
</g>
</svg>
