<?xml version="1.0" encoding="utf-8"?>
<!-- Generator: Adobe Illustrator 21.0.2, SVG Export Plug-In . SVG Version: 6.00 Build 0)  -->
<svg version="1.1" id="Layer_1" xmlns="http://www.w3.org/2000/svg" xmlns:xlink="http://www.w3.org/1999/xlink" x="0px" y="0px"
	 viewBox="0 0 2000 2000" enable-background="new 0 0 2000 2000" xml:space="preserve">
<g>
	<path opacity="0.5" fill="#9F592A" enable-background="new    " d="M1275.1,468.2c-9.3,0.7-8.7,2.6-5.1,10.2s10.6,18.9,11.8,33.1
		c1.2,14.2,2.9,17.3,4.1,16.3c1.3-1-0.9-29.1-2-42.9C1282.9,471,1282.9,467.6,1275.1,468.2z"/>
	<path opacity="0.5" fill="#9F592A" enable-background="new    " d="M661,505.5c-12.7-3.7-30.8-9.8-46.5-15.5
		c-15-5.5-27.8-10.6-31.3-13c-7.1-4.9-14.9-6.6-21,6.8s-13,43.3-14,60c-2.6,45,3.1,80.5,6.8,96.5s3.2,33.8,7,33.8
		c3,0,23.4-22.4,42.5-40.4c4.7-4.4,9.3-8.6,13.5-12.1c21.5-17.8,38.6-22.9,52.2-46s17.9-53,19-59.5S685.9,512.8,661,505.5z"/>
	<path fill="#9F592A" d="M568.5,410.9c1.3-8.4,8.9-12.5,8.9-12.5s-6.4-6.8-1.2-19.8s10.9-13.4,10.9-13.4s-11.5-15.4-5.4-31.8
		s14.4-20.4,14.4-20.4c-7.4-4.9-3.4-31.9,8.1-49s23.5-16.6,23.5-16.6c3.8-11.6,17.9-23.4,31.9-26.8s21.3,0.4,21.3,0.4
		s-32,37.3-46.6,59.9s-22.5,45-22.5,45s2.4-0.4,13.6,7.8s12.2,18,12.2,18c14.1-6.4,25.5,1.9,25.5,1.9c-1.8-6.7,4.6-20.2,25.9-23.8
		c21.2-3.5,33.5,4.5,33.5,4.5c4.8-14.6,20.8-13.8,20.8-13.8c-4.4-10.2,0.6-22.9,19.3-27.1s29,3.2,29,3.2s-4.4-9.5-0.1-23.8
		s17.4-15.6,17.4-15.6s-5.1-6.2-24.2-25.4s-48.8-33.6-48.8-33.6c1.7-7.1,9.1-17.3,30.8-16.8s35.8,14.4,35.8,14.4s4.5-10.7,21.6-11.8
		s20.1,8.4,20.1,8.4s0.7-20.2,33.5-26.6s48.5,11.9,48.5,11.9c17.8-12.8,35.1,3.8,35.1,3.8s6.4-15.7,34.6-13.2
		c28.2,2.5,39,24.7,39,24.7c5.8-10.6,15.9-16.4,40.1-13.6s31.7,13.6,31.7,13.6c-25.3,11.2-45.2,22.5-45.2,22.5s10.7,4.3,20.9,21.2
		s6.9,27.4,6.9,27.4s14.1,0.3,25.5,10.9s8.9,22.5,8.9,22.5s11.3-4.1,21.2,4.6s11,15.9,11,15.9s7.9-10.1,19.8-13.8s18.9-1,18.9-1
		s0.8-12.6-1.6-34.4s-5-45.3-5-45.3c29.3-5.6,42.7,15.9,45.1,35.7c2.3,19.7-4.7,29.4-4.7,29.4s4.5,2.7,5.3,8.5s-2.4,10.8-2.4,10.8
		s5.8,3.1,8.9,11.6s1.3,13.6,1.3,13.6s16.4,9,17.6,29.8s-6.5,31.1-6.5,31.1c7.3,12.1,17.1,41.6,18.9,49s1.8,7-2,8.1
		s-12.8,2.4-12.8,2.4s-3.8-12.1-10.2-27.4s-9.2-18.7-11.4-18c-2.2,0.6-9,3.8-42.2,11.5s-122,18.8-233.9,28.8s-119.7,9.4-161.2,11.1
		c-41.5,1.6-91.7-3.4-91.7-3.4s-1.1,20.4-4.5,21.4c-3.5,1-50.3,0.6-85.8,0.9c-35.5,0.2-51.2,1.1-51.2,1.1s-5.9-4.7-8.5-12.3
		c-2.6-7.7-1.6-17.8,2.7-27.5c0,0,3.9-9.9,13.2-13.7C571.9,426.1,566.9,421.4,568.5,410.9z"/>
	<g>
		<path opacity="0.3" fill="#091426" enable-background="new    " d="M614.5,490c-15-5.5-27.8-10.6-31.3-13
			c-7.1-4.9-14.9-6.6-21,6.8s-13,43.3-14,60c-2.6,45,3.1,80.5,6.8,96.5s3.2,33.8,7,33.8c3,0,23.4-22.4,42.5-40.4
			C601.9,599.2,603.9,538.3,614.5,490z"/>
		<path fill="none" d="M597.8,314.9L597.8,314.9L597.8,314.9L597.8,314.9L597.8,314.9z"/>
		<path fill="none" d="M784.2,355.8L784.2,355.8L784.2,355.8L784.2,355.8L784.2,355.8z"/>
		<path fill="none" d="M602,370.9c3.4,4.2,6.8,7.3,12.2,8.6c1.3,0.3,2.7,0.5,4,0.6c1.9-0.2,3.7-0.6,5.5-1.1c-0.5-1-0.9-2-1.1-3
			c-2.5-9.7-0.8-25.2,9.3-29.5c-2.6-8-11.5-13.7-19.2-15.6c-4.9-1.2-10.1-1.1-15,0.2c-6.7,1.9-8.9,6.1-8.1,12.8
			C590.7,353.8,595.8,363.3,602,370.9z"/>
		<path fill="none" d="M784.2,355.8L784.2,355.8L784.2,355.8z"/>
		<path fill="none" d="M618.8,403.2c0.1,0,0.2,0,0.3,0c0.3-0.6,0.6-1.2,1-1.8c2.4-3.9,6.1-7.1,10.4-9c1.1-0.5,2.4-1,3.8-1.3
			c-2.1-1.8-4.2-3.8-6.2-6c-2.8,0.6-5.7,1-8.6,0.9c-6.4,0.8-13,0.1-18.9-2.1c-4.1-1.5-8-3.6-11.4-6.5c-0.4-0.3-0.9-0.7-1.4-1.1
			c-2.1,3.2-3.8,6.5-3.5,10.6c0.3,4.9,2.8,9.4,6.6,12.5c3.9,3.2,8.9,5,13.9,5.2C609.6,405.1,614,403.6,618.8,403.2z"/>
		<path opacity="0.3" fill="#091426" enable-background="new    " d="M784.2,355.8L784.2,355.8L784.2,355.8L784.2,355.8L784.2,355.8
			z"/>
		<path opacity="0.3" fill="#091426" enable-background="new    " d="M597.8,314.9L597.8,314.9L597.8,314.9L597.8,314.9z"/>
		<path opacity="0.3" fill="#091426" enable-background="new    " d="M1048.9,205.1c0.3,0.1,0.5,0.2,0.8,0.3
			c-0.2-0.1-0.4-0.3-0.6-0.4C1049,205.1,1048.9,205.1,1048.9,205.1z"/>
		<path opacity="0.3" fill="#091426" enable-background="new    " d="M689,329.8c-21.2,3.5-27.7,17.1-25.9,23.8c0,0-5.7-4.1-14-4.3
			c4.5,1.9,8.3,4.7,12.2,8.3c4.7,4.3,6.8,11.4,10.1,16.8c6.6,10.5,18.8,16.4,30.6,19.1c2.7,0.6,3.6-3.1,1.1-4.1
			c-5.6-2.2-11-4.9-16.1-8.2c-4.2-4.8-7.3-10.7-8.4-16.9c-0.9-5.2-0.4-10.6,1.2-15.6c1.5-4.3,4-11.4,8.4-13.6
			c19.8-9.9,37.4,17.8,42.8,32.8c0.8,2.3,4.4,1.4,3.7-1c-0.7-2.3-1.5-4.5-2.4-6.8c-0.9-5.7-2.9-11.4-2.6-17.2
			c0.1-3.9,1.5-7.9,4.3-10.7c2.6-2.6,6.8-4.7,10.5-4c1.3,3.3,2.9,6.5,5,9.4c2.6,3.7,5.9,6.2,9.7,8.6c4.2,2.6,8.2,5.7,12.9,7.4
			c2.4,0.9,4.9,1.4,7.5,1.7c-4.1,10.7-14,15.4-24.6,17.3c-0.8,0.1-0.5,1.1,0,1.3c3.7,1.6,8.1,1.2,12.2-0.4c1.8-0.4,3.5-0.9,5.5-1.3
			c6.2-1.3,8.9,0.8,11.2,6.4c2.2,5.4,5.4,10.4,10.7,13.2c-1.1,1.5-2.2,3.1-3,4.9c-1.5,3.1-2.5,6.4-3,9.8c-0.5,3.9-1.6,9.7,0.8,13.1
			c0.2,0.3,0.7,0.4,0.9,0.1c4.2-4,2.9-12.4,4.8-17.7c2.2-6.2,6.9-11.7,12.6-15c6.4-3.8,14-4.9,21.3-5.2c7.5-0.3,12.5,3.3,19.1,5.9
			c0.5,0.2,1-0.4,0.8-0.8c-1.9-5.4-10.8-8.8-16-9.5c-8.1-1.1-18.6,0.5-26,4.2c-3.4,1.7-6.5,4-9.2,6.7c-0.5-0.7-1.2-1.4-2-2.3
			c-2.7-3.3-4.2-6.7-4.9-10.9c-0.7-4-1.1-8.4-0.1-12.4c0.9-3.3,2.7-5.5,4.7-8c1.2-0.9,2.6-1.7,3.8-2.7c0,0,0,0,0.1,0
			c7-3.1,13.7-9.9,12.4-18.2c-0.3-1.6-2.5-1-2.6,0.4c-1,8-6.9,12.8-14.2,15.1c-0.3,0-0.7,0-1,0.1s-0.6,0.3-0.9,0.4
			c-4.9,1.2-10.3,1.2-15.2,0.3c-9.1-4.3-14.8-12.9-16.3-22.9c-1.7-11.2,3-22.6,15.2-24.4c5.4-0.8,12,0.2,16.4,3.6
			c3.2,2.6,5.2,6.4,7.9,9.4c4.7,5.2,11.4,9.8,18.5,10c0.1,0,0.3,0.1,0.4,0.1c0.3,0.1,0.5,0,0.7-0.2c0.1,0,0.2,0,0.3,0
			c0.9,0,1.2-1.2,0.5-1.7c-0.7-0.4-1.5-0.8-2.2-1.2c-4.3-4.8-9.3-9.1-12.7-14.6c-4.2-6.8-6-14.1-5.7-22.1c0.3-7.3,1.5-15.2,5.8-21.3
			c5.4-7.7,12.6-8.2,21.2-7.9c0.9,0,0.9-1.2,0.2-1.4c-6.1-2.3-12-2.1-17.3,0.8c-0.7,0.1-1.5,0.2-2.2,0.4c0.2,0.2,0.3,0.4,0.3,0.4
			s-13.1,1.4-17.4,15.6s0.1,23.8,0.1,23.8s-10.4-7.4-29-3.2s-23.7,16.9-19.3,27.1c0,0-15.9-0.8-20.8,13.8
			C722.5,334.4,710.2,326.3,689,329.8z M784.2,355.8L784.2,355.8L784.2,355.8L784.2,355.8L784.2,355.8L784.2,355.8L784.2,355.8
			L784.2,355.8z"/>
		<path opacity="0.3" fill="#091426" enable-background="new    " d="M1059.3,438.7c-0.6-0.9-1.6-1.5-3-1.5c-22,0.7-44,3.7-65.9,5.6
			c-22.1,1.9-44.2,3.5-66.4,4.8c-44.6,2.6-89.3,3.6-134,3.7c-12.2,0-24.5-0.1-36.8,0c-6.3,0-12.6,0-18.9,0c-2.8,0-5.7-0.1-8.5,0.1
			c-6.5-0.5-12.8-1.8-18.7-4.8c-7.4-3.8-12.4-9.4-12.4-18c0-4,0.2-8.2,1.3-12.1c0.6-2.2,1.8-4.2,2.9-6.1c0.4-0.4,0.8-0.8,1.3-1.2
			c5-4.2,11.5-6.3,17.9-7.1c1-0.1,1.1-1.6,0-1.6c-7.2,0-13.9,2.1-20.1,5.9c-3.3,2-5.5,4.5-7.1,7.3c-4.7-5.7-13.2-8.2-20.1-4.8
			c-9.3,4.6-12.8,16.8-12.6,26.4c0,0.7,1.1,0.9,1.2,0.2c1.5-7.8,2.9-15.7,9.9-20.5c7.5-5.1,14.8-2.3,19.4,4.4
			c-0.4,1.5-0.7,3-0.9,4.6c-1,7-1,14.8,3.9,20.4c0.1,0.1,0.2,0.2,0.3,0.3c1.4,1.9,3.2,3.7,4.3,4.7c1.3,1.2,2.8,2.5,4.4,3.7
			c-0.2,0.9,0.1,2,1,2.8c-1.7,5.2-2.4,11-3.1,16.5c-11.5,0.7-23,0.9-34.6,0.3c-12.6-0.7-26.8-1.7-38.5-7
			c-10.1-4.6-18.4-13.2-25.9-21.2c-4.4-4.7-8.2-10.1-8.5-16.7c-0.2-4.1,1-7.8,2.3-11.5c1.5-1.3,3.4-2.3,5.7-2.9
			c3-0.9,6.1-1.6,9.2-2.1c2-0.1,4-0.3,5.9-0.8c1-0.1,2.1-0.2,3.1-0.3c-0.3,6,2.3,11.9,6.3,16.8c0.7,0.9,2.3-0.3,1.6-1.2
			c-4.4-6-4-14.1-0.4-20.5c1.7-3,4.2-5.3,7.2-6.8c1.5-0.8,3.1-1.2,4.7-1.7c0.2,0,0.4-0.1,0.5-0.1c1.7,1.3,3.8,2.2,6.3,2.6
			c4.1,0.8,10.3,1.6,14-0.3c0.5-0.3,0.6-1.1,0.2-1.5c-1.2-1.1-2.7-1.6-4.2-1.8c-2.2-2-4.9-3.6-6.9-5.8c-4.1-4.4-6.4-9.4-8.4-15
			c-1.8-5.2-3.1-10.7-0.5-15.9c1.7-3.5,4.9-6,7-9.2c-2.3,0.3-4.7,1-7.2,2.1c0,0-1.1-9.9-12.2-18s-13.6-7.8-13.6-7.8s3.8-10.8,11-25
			c-9.7-2.1-21.3-7.8-21-18.6c0.1-5,2.1-11.6,4.9-15.8c0.3-0.4,0.6-0.8,0.9-1.2c4-4.5,8.9-7.9,15-9.8c1.9-0.6,4.1-0.6,6-1.2
			c0.2,0,0.4,0.1,0.6,0.1c0,0.1,0,0.2,0,0.3c0,3.2,0.9,6.3,2.4,9.1c2,3.7,5.1,6.4,8.7,8.3c3.6-5.1,7.7-10.6,11.9-16
			c-1.9-2.1-3.7-4.2-4.8-7.1c-1.5-4.4-1-8.9,0.2-13.3c1.1-4.3,2.9-8.5,6.1-11.7c1.1-1.1,2.5-2,3.9-3c-13.3,3.9-26.2,15.1-29.8,26.2
			c0,0-12-0.5-23.5,16.6s-15.5,44.1-8.1,49c0,0-8.3,4.1-14.4,20.4s5.4,31.8,5.4,31.8s-5.7,0.4-10.9,13.4s1.2,19.8,1.2,19.8
			s-7.6,4.1-8.9,12.5c-1.6,10.5,3.4,15.3,3.4,15.3c-9.3,3.8-13.2,13.7-13.2,13.7c-4.3,9.7-5.3,19.9-2.7,27.5
			c0.4,1.3,0.9,2.4,1.5,3.5l0,0l0,0c2.8,5.5,7,8.8,7,8.8s15.7-0.9,51.2-1.1s82.3,0.1,85.8-0.9s4.5-21.4,4.5-21.4s50.3,5,91.7,3.4
			c41.5-1.6,49.3-1.1,161.2-11.1C995.1,445.4,1028.9,442,1059.3,438.7z M597.8,314.9L597.8,314.9L597.8,314.9L597.8,314.9
			L597.8,314.9L597.8,314.9z M597.7,331.1c4.9-1.3,10.1-1.4,15-0.2c7.8,2,16.6,7.6,19.2,15.6c-10.1,4.3-11.8,19.9-9.3,29.5
			c0.3,1,0.7,2.1,1.1,3c-1.8,0.5-3.7,0.8-5.5,1.1c-1.3-0.1-2.7-0.3-4-0.6c-5.4-1.3-8.8-4.4-12.2-8.6c-6.2-7.6-11.3-17.1-12.4-27
			C588.8,337.2,591,332.9,597.7,331.1z M584.2,387.1c-0.2-4.1,1.4-7.4,3.5-10.6c0.5,0.4,1,0.8,1.4,1.1c3.4,2.8,7.2,4.9,11.4,6.5
			c6,2.2,12.6,2.9,18.9,2.1c2.9,0.1,5.8-0.2,8.6-0.9c2,2.2,4.2,4.2,6.2,6c-1.4,0.3-2.7,0.8-3.8,1.3c-4.3,1.8-7.9,5-10.4,9
			c-0.4,0.6-0.7,1.2-1,1.8c-0.1,0-0.2,0-0.3,0c-4.8,0.4-9.3,1.9-14.1,1.6c-5-0.3-10-2-13.9-5.2C587,396.5,584.5,392,584.2,387.1z"/>
		<path opacity="0.3" fill="#091426" enable-background="new    " d="M779.1,226.9c-0.4-1.4-1-2.7-1.4-4.2c-1.3-4.6-1.7-9.6,0-14.2
			c3.2-8.6,12.6-13.1,20.3-9.4c-0.7,4-0.7,8,1.4,11.3c0.6,2.4,1.8,4.7,4.1,6.5c2.2,1.8,5.1,2.8,7.7,3.8c2,0.8,3.7,1.6,5.6,1.6
			c2.3,0.9,4.9,1.1,7.6,0.5c1-0.2,1.1-1.6,0.3-2.1c-7.3-4.7-14.2-8.8-15-18.4c-0.4-4.3,0.6-8.9,2.9-12.6c1.6-2.4,3.7-3.6,6-4.9
			c-12.8,2.6-16.3,11-16.3,11s-14.1-13.9-35.8-14.4s-29.1,9.7-30.8,16.8C735.7,198.4,760.3,210.4,779.1,226.9z"/>
		<path opacity="0.3" fill="#091426" enable-background="new    " d="M966.7,337.8v-0.1c1.1-1.4,1.9-3,2.5-4.6
			c3-5,6.6-12.4,6.3-18.2c0-0.4-0.6-0.6-0.8-0.2c-1.3,2.6-1.9,5.6-3.2,8.3c-1.5,3-3.7,5.7-6,8s-4.8,4.5-7.3,6.5
			c-0.5,0.4-1,0.7-1.5,1.1c-4,1.8-7.7,3.5-12.7,2.3c-7.5-1.7-10.9-7.2-12.9-14.1c-0.5-1.6-2.8-0.9-2.5,0.7
			c1.8,8.3,4.4,15.6,13.2,18.5c1.9,0.6,4.1,0.9,6.3,1c-2.1,4-2.7,9.1-2.4,13.3c0.3,5.9,1.3,13.5,4.3,18.7c0.3,0.6,1.3,0.2,1.1-0.5
			c-0.5-1.6-0.8-3.2-1-4.9c0.9-6.2,2-12.2,4.8-18C958,349.1,963,344,966.7,337.8z"/>
		<path opacity="0.3" fill="#091426" enable-background="new    " d="M1072.5,288.5c1.7,0.1,3.5,0.1,5.3,0.2
			c3.7,0.2,7.2,1.1,10.7,2.3c6,2.1,10.4,6.4,14.4,11.3c0.3,0.3,0.6,0.5,1,0.6c0.7,1.2,1.4,2.4,2.3,3.5c0.5,0.7,1.5,0.1,1.6-0.7
			c0.6-8.6-8.7-17.3-15.8-20.5c-1.4-0.6-2.8-1.2-4.3-1.6c-4-1.9-8-2.1-11.8-1.2c-1.7,0.1-3.3,0.2-5,0.5c-2.3,0.4-4.1,1.4-6.1,2.3
			c-6.2-9.1-17.3-12.3-28.1-13c-12-0.8-26.1,0.3-34.6,10.1c-2.1,2.4-3.6,5.3-4.8,8.5c-7.6-4.1-19.6-5.1-26.5-0.9
			c-4.8-8-15.4-11.7-24.3-12.6c-10.1-1-27.6-0.4-33.1,10.1c-1.2-0.8-2.5-1.4-3.8-1.8c-7.3-2.4-16.2-0.7-22.1,4.1
			c-2.7-4.2-6.4-7.7-11.4-10c-5.4-2.5-11.3-4.2-17.2-4.6c-3.5-0.2-8.8-0.4-12,1.8c-1.1-5.1-3.6-9.1-7.7-12.8
			c-0.3-0.3-0.9,0.1-0.6,0.5c2.9,4,4.5,7.2,4.3,12.4c-0.1,3.5,0.6,10-2.8,12.2c-2.4,1.5-0.8,4.8,1.8,4.4c4.3-0.7,5.3-6.2,5.4-10.4
			c4.2,0.8,8.4,1,12.5,2.2c4.4,1.2,8.7,2.8,12.8,5c3.6,1.9,7.1,4.3,9.6,7.7c2.2,3,3.7,6.7,5.3,10.2v0.1c0.1,0.4,0.3,0.8,0.5,1
			c0.2,0.5,0.4,0.9,0.7,1.4c0.9,1.9,4.1,0.6,3.4-1.4c-0.1-0.2-0.1-0.4-0.2-0.6c0.1-0.3,0.2-0.6,0.2-1c0.1-6.2-1.4-12.1-4.3-17.1
			c6.1-4.5,14.8-5.3,21.5-2.1c7.4,3.5,8.9,10.8,13,17.1c0.4,0.6,1.6,0.4,1.5-0.4c-0.5-5.1-2.9-10.5-6.6-14.4c4-3.3,7.4-5.6,12.6-6.7
			c4.8-1,9.8-1.2,14.7-0.9c9.6,0.6,19,4.8,24.6,12.9c1.2,1.8,4.1,0.7,3.5-1.5c-0.2-0.7-0.4-1.4-0.7-2.1c4.2-0.5,8.2-1.6,12.5-1.3
			c4.4,0.3,7.8,2,11.6,3.7c-1.8,7.5-1.8,15.8-1.2,22.6c0.4,5.4,1.8,10.7,5.2,14.9c3.9,4.8,9.5,6.9,14.8,9.8c0.5,0.3,1-0.5,0.5-0.8
			c-9.3-6-14.4-14.5-14.7-25.6c-0.2-5.7-0.3-12.8,1.1-19.1c4.2-10,15.8-14.7,26.5-14.9c12.8-0.2,22.7,4.7,33.3,11.4
			c-0.2,0.3-0.4,0.7-0.6,1c-4.5,8.2-7.4,25.8,1.1,32.5c0.5,0.4,1.3,0.1,1.1-0.6c-2.7-8.7-3.7-17.3-0.4-26.1
			C1064.5,295,1068.1,290.8,1072.5,288.5z"/>
		<path opacity="0.3" fill="#091426" enable-background="new    " d="M842.1,213.7c0.3,2.7,0.8,5.6,1.4,8.5c0.2,1.7,0.7,3.4,1.3,4.9
			c0.7,2.2,1.6,4.3,2.8,6.2c0.4,0.6,1.1,0.3,1.2-0.3c0.5-3.6,0.1-7.2-0.3-10.8c0.4-1.9,0.7-3.8,1.3-5.6c1.4-4.9,3.4-9.1,6-13.4
			c4.8-7.9,9.8-14.8,16.6-21.1c9.2-8.5,20.5-12.1,31.8-11.3c1.4,0.2,2.8,0.5,4.1,0.8c2.3,0.5,4.8,0.9,7.3,1.5c1.5,0.5,2.9,1,4.4,1.7
			c0.8,0.4,1.5,0.9,2.1,1.4c0.1,0,0.1,0.1,0.2,0.1c0.3,0.5,0.6,1.1,0.8,1.6c-6.4,4.9-12.8,12.8-11.2,20.8c0.1,0.4,0.6,0.5,0.8,0.2
			c2.8-3.5,3.1-7.7,6.6-11c3.1-2.9,6.5-5.4,10.2-7.4c4-2.1,8.4-3.7,12.9-4.3c4.3-0.5,8.2,0.5,12.3,1c-6.6-3.7-17.5-7.1-28.6,0.9
			c0,0-15.7-18.2-48.5-11.9S844,192.6,844,192.6s-0.2-0.8-1-1.8c-0.3,1.5-0.6,3-0.8,4.6C841.5,201.5,841.3,207.7,842.1,213.7z"/>
		<path opacity="0.3" fill="#091426" enable-background="new    " d="M1069.5,179c-20.4-1.4-29.4,4.3-34.8,14.1c0,0-0.9-1.9-2.9-4.7
			c1.6,4.1,2.1,8.6,1.1,13.5c-0.2,0.8,0.1,2,1,2.4c6.7,3,13.5,5.2,20,8.4c-0.1,0.3-0.1,0.6,0.1,0.8c0.7,1,1.5,1.8,2.4,2.6
			c3,4.8,7.6,8.9,11.3,12.8c5.7,6.1,9.8,13.3,12.2,21.3c1.2,4.1,2,8.2,2.2,12.5c0.2,3.1-0.6,6.4-0.5,9.4c-0.4,0.5-0.6,1.1-0.6,1.7
			c0,0.1,0,0.2,0,0.2c0.1,1.3,1,2.5,2.3,2.8c2.1,1.8,5.5,1.2,6.8-2.2c0.3-0.8,0-1.6-0.4-2.2c1.4-2.1,2.3-4.7,2.9-7.1
			c1.5,1.4,3.4,2.2,5.3,3.3c3.8,2.1,7.5,4.5,10.3,7.8c2.7,3.3,4.8,7.5,6.7,11.3c1.9,4,2.1,8.3,3.6,12.3c-0.2,0.6-0.5,1.1-0.7,1.7
			c-0.2,0.5,0.5,0.9,0.9,0.7c2.2-1.1,4.1-2.9,5.5-5c-0.4,0.1-0.6,0.2-0.6,0.2s2.5-11.9-8.9-22.5s-25.5-10.9-25.5-10.9
			s3.4-10.4-6.9-27.4s-20.9-21.2-20.9-21.2s4.2-2.4,11.3-6.1C1063.6,202.3,1061,187.5,1069.5,179z M1048.9,205.1
			c0.1,0,0.1,0,0.2-0.1c0.2,0.1,0.4,0.3,0.6,0.4C1049.4,205.3,1049.1,205.2,1048.9,205.1z"/>
		<path opacity="0.3" fill="#091426" enable-background="new    " d="M961.1,181.6c0,0-0.1-0.1-0.4-0.3c-5.6,10.8-5.8,25-0.8,35.4
			c0.4,0.8,1.4,0.2,1.3-0.5c-0.7-4.7-2.1-9.1-1.8-14c0.3-3.8,1.4-7.8,2.6-11.4c0.3-0.8,0.6-1.6,0.9-2.4c1.6-2.7,3.4-5.2,6.1-7.5
			c4.6-4,10.4-6.5,16.4-7.5c12.9-2.2,25.4,0.4,37.1,5.7c0.2,0.1,0.4,0.1,0.6,0.2c-6.2-5.1-15.2-9.8-27.3-10.9
			C967.6,165.9,961.1,181.6,961.1,181.6z"/>
		<path opacity="0.3" fill="#091426" enable-background="new    " d="M1201.7,312c3.1,3.9,5.4,8.9,5.7,13.5
			c0.5,5.8-1.4,11.2-1.7,16.8c-1.2,1.1-2.5,2.2-3.8,2.8c-0.4,0.2-0.2,0.9,0.2,0.9c4.2-0.1,7.6-0.9,10.5-4.3c0.2-0.2,0.3-0.4,0.5-0.6
			c3-1.4,4-5.2,4.9-8.3c1.4-4.6,1.9-9.6,0.1-14.2c-3.4-8.5-14.7-14-22.6-17.4c-0.3-0.1-0.6-0.2-0.9-0.3c0,1.5-0.1,2.3-0.1,2.3
			s-7.1-2.7-18.9,1s-19.8,13.8-19.8,13.8s-0.1-0.4-0.2-1c-0.1,0.2-0.3,0.3-0.4,0.5c-0.2-0.9-0.3-1.8-0.6-2.7c-0.1-0.3-0.2-0.7-0.3-1
			c-1.4-2.9-4.2-7.1-9.5-11.7c-2.7-2.4-5.6-3.8-8.2-4.6c5.8,6,11.2,11.4,13.1,20.3c2.2,10.4-3.1,19.7-3.2,29.9c0,0.1,0,0.2,0,0.2
			c-1.8-0.7-3.8-1.3-5.7-1.7c-9.4-1.9-20.1-0.2-26.1,8c-0.2,0.3,0.2,0.8,0.6,0.6c10-6.8,20.3-8.5,31.4-3c8,4,11.7,12.7,20.6,14.8
			c0.2,0.1,0.4-0.3,0.2-0.4c-2.8-1.5-4.9-3.8-6.9-6.3c-0.3-0.9-0.9-1.7-1.2-2.5c-0.6-1.5-1.2-2.9-1.8-4.4c-0.6-3.2-0.4-6.4-0.4-9.6
			c0-4.3,0-8.5,0.9-12.7c1.2-5.3,4.3-10.4,7.5-15.2c0.7-0.8,1.4-1.6,2.1-2.3c5.7-5.6,13.6-9.3,21.7-7.6c2.7,0.6,5.8,1.8,8.8,3.3
			C1199.5,309.9,1200.5,311,1201.7,312z"/>
		<path opacity="0.3" fill="#091426" enable-background="new    " d="M1187.8,223.7c0,0,1.1,9.5,2.4,22c2.4-4.4,5.3-8.5,9-11.9
			c3-2.8,6.4-5.7,10.7-5.7c2.3,0,4.6,0.4,6.9,0.9C1209.8,223.8,1200.2,221.3,1187.8,223.7z"/>
		<path opacity="0.3" fill="#091426" enable-background="new    " d="M1271.2,443.2c-1.8-7.4-11.6-36.9-18.9-49
			c0,0,7.7-10.3,6.5-31.1c-0.7-12.2-6.6-20.3-11.4-25c1.9,3.9,3,8.2,3.8,12.6c1.5,8.4,2.2,16.6-2.2,24.4
			c-3.6,6.2-9.2,11.5-15.4,14.9c-3.8,2.1-8.1,3.6-12.5,3.9c-4.2,0.4-8-0.8-12.2-1.2c-0.9-0.1-1.1,1.2-0.4,1.7
			c7.4,4.6,17.9,2.1,25.2-1.2c1-0.4,2-0.9,2.9-1.4c2.7,4.5,6.4,8.4,9.1,12.9c2.9,4.8,5.4,9.9,7.6,15c4.5,10.2,8.3,20.7,13.3,30.7
			c0.2,0.5,0.3,1,0.5,1.5c0.8-0.2,1.5-0.4,2.1-0.5C1273.1,450.2,1273,450.6,1271.2,443.2z"/>
		<path opacity="0.3" fill="#091426" enable-background="new    " d="M1225.6,338.7c-0.8,1.3,0.2,2.8,1.7,2.9
			c5.2,0.3,11.2-4.1,14.4-8c-0.3-0.2-0.5-0.3-0.5-0.3s1.9-5-1.3-13.6s-8.9-11.6-8.9-11.6s1.2-1.9,2-4.7c-4.8,3.2-9.3,8-15.2,7.7
			c-1.2-0.1-1.5,1.8-0.3,2.1c2.4,0.6,4.9,0.4,7.5-0.1c0.2,0.1,0.5,0.1,0.7,0.1c1.4-0.4,3-1,4.5-1c2.5,0.1,6.1,2.5,5.9,5.2
			c-0.2,2.3-1.6,5-2.3,7.2C1231.9,329.6,1228.3,334,1225.6,338.7z"/>
		<path opacity="0.3" fill="#091426" enable-background="new    " d="M1224.6,281.4c-6.7,5.8-15.6,9.9-24.4,10.7
			c-1,0.1-1.1,1.3-0.2,1.6c5.8,2.4,14-0.2,20.6-3.5c3.3-0.2,6.7,1.1,9.8,0.4c-1.1-1.3-2.1-1.9-2.1-1.9s4.7-6.4,5.1-19.5
			c-0.8,1.1-1.6,2.2-2.2,3.3C1229.2,275.9,1227.6,278.9,1224.6,281.4z"/>
		<path fill="#F13200" d="M953.8,347.9"/>
		<path fill="none" d="M568.5,410.9c1.3-8.4,8.9-12.5,8.9-12.5s-6.4-6.8-1.2-19.8s10.9-13.4,10.9-13.4s-11.5-15.4-5.4-31.8
			s14.4-20.4,14.4-20.4c-7.4-4.9-3.4-31.9,8.1-49s23.5-16.6,23.5-16.6c3.8-11.6,17.9-23.4,31.9-26.8s21.3,0.4,21.3,0.4
			s-32,37.3-46.6,59.9s-22.5,45-22.5,45s2.4-0.4,13.6,7.8s12.2,18,12.2,18c14.1-6.4,25.5,1.9,25.5,1.9c-1.8-6.7,4.6-20.2,25.9-23.8
			c21.2-3.5,33.5,4.5,33.5,4.5c4.8-14.6,20.8-13.8,20.8-13.8c-4.4-10.2,0.6-22.9,19.3-27.1s29,3.2,29,3.2s-4.4-9.5-0.1-23.8
			s17.4-15.6,17.4-15.6s-5.1-6.2-24.2-25.4s-48.8-33.6-48.8-33.6c1.7-7.1,9.1-17.3,30.8-16.8s35.8,14.4,35.8,14.4
			s4.5-10.7,21.6-11.8s20.1,8.4,20.1,8.4s0.7-20.2,33.5-26.6s48.5,11.9,48.5,11.9c17.8-12.8,35.1,3.8,35.1,3.8s6.4-15.7,34.6-13.2
			c28.2,2.5,39,24.7,39,24.7c5.8-10.6,15.9-16.4,40.1-13.6s31.7,13.6,31.7,13.6c-25.3,11.2-45.2,22.5-45.2,22.5s10.7,4.3,20.9,21.2
			s6.9,27.4,6.9,27.4s14.1,0.3,25.5,10.9s8.9,22.5,8.9,22.5s11.3-4.1,21.2,4.6s11,15.9,11,15.9s7.9-10.1,19.8-13.8s18.9-1,18.9-1
			s0.8-12.6-1.6-34.4s-5-45.3-5-45.3c29.3-5.6,42.7,15.9,45.1,35.7c2.3,19.7-4.7,29.4-4.7,29.4s4.5,2.7,5.3,8.5s-2.4,10.8-2.4,10.8
			s5.8,3.1,8.9,11.6s1.3,13.6,1.3,13.6s16.4,9,17.6,29.8s-6.5,31.1-6.5,31.1c7.3,12.1,17.1,41.6,18.9,49s1.8,7-2,8.1
			s-12.8,2.4-12.8,2.4s-3.8-12.1-10.2-27.4s-9.2-18.7-11.4-18c-2.2,0.6-9,3.8-42.2,11.5s-122,18.8-233.9,28.8s-119.7,9.4-161.2,11.1
			c-41.5,1.6-91.7-3.4-91.7-3.4s-1.1,20.4-4.5,21.4c-3.5,1-50.3,0.6-85.8,0.9c-35.5,0.2-51.2,1.1-51.2,1.1s-5.9-4.7-8.5-12.3
			c-2.6-7.7-1.6-17.8,2.7-27.5c0,0,3.9-9.9,13.2-13.7C571.9,426.1,566.9,421.4,568.5,410.9z"/>
		<path opacity="0.35" fill="#E8FFFA" enable-background="new    " d="M942.2,188c0,0.1,0.1,0.2,0.1,0.3
			C942.5,188.4,942.4,188.4,942.2,188z"/>
		<path opacity="0.35" fill="#E8FFFA" enable-background="new    " d="M813.9,194.8c-0.7,4-1.5,9,1.4,12.3c0.6,0.6,1.4,0.9,2.2,0.9
			c0.2,0.7,0.4,1.3,0.7,2c0.5,1.1,1.4,1.7,2.4,2c-0.6,1.7,0.4,3.6,2,4.4c0.1,0.3,0.2,0.6,0.4,0.9c1.4,2.9,5,1.8,6.2-0.6
			c1.6,2.4,5.7,2.5,6.5-0.8c0.1-0.2,0.1-0.6,0.2-1c2.3,1,5.5-0.1,5.4-3.3c0-1.5,0.1-4-0.1-6.4c0.2-2.6,0.5-5.2,1.1-7.8
			c1.7-1.1,2.5-3.5,1.7-5.4c0,0.3,0,0.5,0,0.5s-0.3-1-1.3-2.2c-3.9-3.2-9.6-5.9-15.1-6.2c-0.6,0-1.3,0-2,0c-2,0.1-4,0.6-5.8,1.6
			C816.5,187.7,814.6,191.1,813.9,194.8z"/>
		<path opacity="0.35" fill="#E8FFFA" enable-background="new    " d="M855.1,214.2c0.2,1.9,3.2,2.7,3.6,0.5
			c0.1-0.5,0.2-1.1,0.3-1.6c0.4,0,0.9-0.2,1.2-0.7c0.7-1.2,1.4-2.5,2.1-3.7c0.5-0.5,0.8-1.1,1-1.7c0.5-0.9,1.1-1.8,1.6-2.8
			c0.6,0.1,1.2,0.1,1.7,0c1.5-0.3,2.6-1.5,3.3-2.8c0.6-1.2,1.1-2.5,1.5-3.7c0.2-0.7,0.4-1.4,0.4-2.1c0.8-0.1,1.5-0.5,2.1-1
			c0.5-0.4,1-0.9,1.3-1.4c0.2-0.4,0.4-0.9,0.6-1.3c0.6,0.3,1.3,0.5,1.9,0.6c0.6,0.1,1.3,0,1.9-0.2c0.4-0.1,0.8-0.3,1.1-0.5
			s1.4-1,0.8-0.6c0.2-0.2,0.5-0.4,0.6-0.5c0.3-0.3,0.8-0.9,0.8-1.1c0.6-1.1,0.7-2.4,0.4-3.6c10.4-4.9,23.1-5.4,34.4-4.6
			c0.9,0.1,1.5-0.3,1.9-0.7c3.3-0.3,4.6-5.1,0.7-6.8c-14.8-6.2-31.7-7.1-45.1,2.8C864.2,185,854,199.5,855.1,214.2z"/>
		<path opacity="0.35" fill="#E8FFFA" enable-background="new    " d="M871.3,205.7c-0.2,0.3-0.3,0.6-0.4,0.9
			c-0.3,0.6-0.6,1.2-0.8,1.8c-0.3,1.1,1.2,1.7,1.8,0.8c0.4-0.6,0.6-1.2,0.8-1.8c0.2-0.7,0.3-1.1,0.2-1.8c-0.1-0.3-0.4-0.5-0.6-0.5
			l0,0c-0.1,0-0.2,0-0.3,0.1l0,0C871.7,205.3,871.5,205.4,871.3,205.7z"/>
		<path opacity="0.35" fill="#E8FFFA" enable-background="new    " d="M911.7,182.9c-0.8-0.4-1.9-0.4-2.6,0.3
			c-0.2,0.2-0.3,0.4-0.5,0.6c-0.1,0.1-0.1,0.1-0.1,0.1c-0.1,0.1-0.2,0.2-0.3,0.3s-0.3,0.3-0.4,0.4c-1.7-1-3.2-1.9-5.4-1.7
			c-2,0.2-3.9,1.3-4.8,3.1c-2.1-0.2-4.1-0.6-5.7,1.1c-0.3,0.3-0.5,0.8-0.5,1.3c-0.8,0.3-1.5,0.7-2.1,1.1c-2.1,1.6-4,3.8-6.2,5.2
			c-1.6,1-3.2,1.3-4.4,2.9c-1.1,1.6-2.7,3.8-3.3,5.6c-0.2,0.8,0.5,1.5,1.3,1.3c2.2-0.5,2.6-2,3.5-3.8c1.4-2.6,3.8-1.9,5.7-3.7
			c1-1,1.5-2.4,2.8-3.1c1.3-0.6,2.5-0.2,3.8-0.5c1.4-0.3,2.4-1.1,2.8-2.2c1.5,0.3,3,0.4,4.4,0.5c2.1,0.1,4.1-0.2,5.5-1.5
			c0.6,0.1,1.1,0.2,1.8,0.2c1-0.1,1.8-0.6,2.3-1.4c0.3,0,0.7-0.1,1-0.3c0.7-0.4,1.2-1.1,1.6-1.7c0.3-0.5,0.7-1.1,0.8-1.7
			C912.9,184.4,912.6,183.3,911.7,182.9z"/>
		<path opacity="0.35" fill="#E8FFFA" enable-background="new    " d="M911.1,230.7c0.4,1.7,2.7,1.8,4,1.4c1.5-0.5,3-1.6,3-3.3
			c0-0.6-0.5-1.4-1.2-1.6c-0.6-0.1-1.2,0-1.8,0.1c-1.3-2.8-5-4.4-7.8-2.8c-0.4,0.2-0.7,0.7-0.7,1.2c0,0.3,0,0.6,0.2,0.8
			c1.1,1,2.1,0.2,3.4,0.5c1,0.3,1.4,0.9,1.7,1.7C911.4,229.2,910.9,229.8,911.1,230.7z"/>
		<path opacity="0.35" fill="#E8FFFA" enable-background="new    " d="M952,243.1c-1.1,1.6,1.5,3.6,2.7,2.1c0.8-1,2.1-1.8,3.4-1.6
			c2.9,0.4,3.4-3.8,0.5-3.9C956,239.5,953.5,240.8,952,243.1z"/>
		<path opacity="0.35" fill="#E8FFFA" enable-background="new    " d="M962,245.8c-0.3,0.7-0.9,1.4-1.1,2.2
			c-0.1,0.6,0.1,1.3,0.7,1.6c0,0,0.1,0,0.1,0.1c0.5,0.3,1.1,0.2,1.6-0.2s0.9-0.9,1.3-1.5c0.5,0.1,1,0.1,1.4,0.1s0.7-0.1,1.1,0
			c0.1,0,0.1,0,0-0.1c0.2,0.1,0.4,0.2,0.6,0.3c0.8,0.3,1.8-0.2,2.2-0.9s0.3-1.7-0.3-2.3c-1-1.1-2.7-1.1-4-0.4c-0.3-1.2-2-2.6-3-1.3
			c-0.3,0.4-0.3,1,0.1,1.3c0,0,0,0.1-0.1,0.1C962.3,245,962.1,245.4,962,245.8z"/>
		<path opacity="0.35" fill="#E8FFFA" enable-background="new    " d="M967.4,270.3c-1.4,0.2-2.6,1.7-3.3,2.9
			c-0.4,0.6-0.7,1.3-0.7,2c0,1.2,1,1.9,2.1,1.8c1-0.2,1.3-1.2,1.9-1.9c0.5-0.7,1.3-0.9,1.8-1.6C970.5,272,969.4,270,967.4,270.3z"/>
		<path opacity="0.35" fill="#E8FFFA" enable-background="new    " d="M1000.3,258.6c1.4,0.2,2.6-0.4,3.9-0.2c1,0.1,2.1,0.3,3,0.7
			c0.4,0.7,0.8,1.5,1.3,2.1c0.4,0.5,1.1,0.6,1.7,0.3c-0.2,0.6-0.3,1.2-0.5,1.8c-0.3,1.2,1.1,1.9,2,1.2c0.4-0.4,1-0.6,1.4-1
			c0.6-0.6,1.1-1.2,1.7-1.7c1.2-1.1,2.8-1,4.1-1.9c1.6-1.2,1.2-4-1.1-3.9c-2.1,0-4,1-5.4,2.5c-0.5,0.4-0.9,1-1.3,1.5
			c-0.3-2.7-1.6-5-4.4-5.7c-2.3-0.5-6.3-0.1-7.4,2.3C999.1,257.2,999.3,258.5,1000.3,258.6z"/>
		<path opacity="0.35" fill="#E8FFFA" enable-background="new    " d="M999.9,233.3c0.2,0,0.3-0.1,0.4-0.1c0.1,0.1,0.3,0.3,0.4,0.3
			c0.5,0.3,1,0.3,1.5,0.2c0.7,0.9,1.8,1.4,3.1,1.1c1.1-0.2,1.9-1,2.4-1.9c0.9-0.5,1.5-1.3,1.6-2.5c0.2-3.6-3.4-5.8-6.7-5.1
			c-2.8,0.6-6.6,3.9-5.1,7C998,233.2,999,233.4,999.9,233.3z"/>
		<path opacity="0.35" fill="#E8FFFA" enable-background="new    " d="M965.3,195.2c-0.4,0.3-0.7,0.6-0.9,1c-0.4,0.7-0.3,1.3,0,2
			s1.4,1,2,0.5c0.3-0.2,0.5-0.4,0.6-0.6l0,0c0.9,0.3,1.9-0.4,2.1-1.2c0.2-0.9-0.3-1.9-1.2-2.1C967,194.5,966.1,194.6,965.3,195.2z"
			/>
		<path opacity="0.35" fill="#E8FFFA" enable-background="new    " d="M965.5,191.3c1.4,0.5,2.5-0.3,3.8-0.4
			c1.8-0.2,3.2-0.7,3.9-2.5c0,0,0,0,0-0.1c0.4,0.2,0.8,0.4,1.3,0.4c0.9,0,1.8-1.2,1.1-2c-0.5-0.7-1.2-0.9-2-1.2
			c-0.7-0.2-1.4-0.1-2.1,0.1c0,0-0.1,0-0.1,0.1c-0.3-0.1-0.6-0.1-0.9,0c-1,0.2-1.9,1-2.5,1.9c-0.1,0.2-0.2,0.3-0.3,0.5l0,0
			c-0.4,0.3-1,0.8-1.5,0.7C964.5,188.5,963.9,190.7,965.5,191.3z"/>
		<path opacity="0.35" fill="#E8FFFA" enable-background="new    " d="M981.5,186c-1.2,0.3-2,1.6-1.4,2.7c0.3,0.5,0.8,0.9,1.4,1
			c1.2,0.3,2.4-0.6,2.4-1.9C983.9,186.5,982.7,185.7,981.5,186z"/>
		<path opacity="0.35" fill="#E8FFFA" enable-background="new    " d="M918,194.3c-0.3,1.1,1.2,1.7,1.8,0.8c0.7-1.1,1.7-2.2,2.7-3.3
			c0.4,1.9,3,3.4,5,1.7c0.1-0.1,0.2-0.2,0.4-0.4c0.2,1.4,2.1,2.1,3.2,1.1c1.1-1,2.4-1.7,3.7-2.6c0.1,0,0.2,0.1,0.3,0.1
			c0.7,0.2,1.5,0.3,2.2,0.3c1.7-0.1,3.3-1.2,4.2-2.6c0.2,1,0.9,1.9,1.8,2.4c2,1.1,4.5,0.3,5.6-1.7c0-0.1,0.1-0.2,0.1-0.3
			c0,0,0,0,0.1,0.1c2.9,1.3,6.3-0.4,7.2-3.2c1.8,0.6,3.7-1.8,2.6-3.4c-5.5-7.6-14.9-7.7-23.3-5.5C927.4,180,920.2,186,918,194.3z
			 M942.3,188.3c-0.1-0.1-0.1-0.2-0.1-0.3C942.4,188.4,942.5,188.4,942.3,188.3z"/>
		<path opacity="0.35" fill="#E8FFFA" enable-background="new    " d="M971,181.5c2.5-0.8,5-1.6,7.5-2.3c0,0.1,0.1,0.2,0.1,0.3
			c0.2,0.3,0.4,0.5,0.7,0.7h-0.1c-0.6,0.3-1.1,0.8-1,1.5c0.1,0.6,0.7,1.3,1.4,1.2c0.6-0.1,1.3-0.3,2-0.3c0.9,0,1.5,0.1,2.4-0.2
			c0.8-0.3,1.6-0.6,2.3-1c0.1,0,0.2,0,0.3,0c1.4,0.2,2.8,0.4,4.3,0.2c1,0.1,1.9,0.1,2.9,0.2c0.1,0.4,0.2,0.8,0.2,1.3
			c0.1,0.8,0.4,1.5,1.2,1.8c0.7,0.3,1.7,0.2,2.2-0.4c0.3-0.4,0.6-0.9,0.9-1.3c1.5,0.7,3.2,0.9,5.1,1.6c2.8,0.9,5.3,2.4,7.6,4.2
			c-1,0.3-1.9,0.7-2.8,1.3c-1.5,1.1-0.9,3.2,0.9,3.4c2.5,0.3,5.1,0.9,7.5,0.6c1.5,1.6,2.9,3.3,4,5.1c1.9,2.8,1.4,6.2,3.4,8.9
			c1.1,1.4,2.9,2.2,4.6,1.2c5.8-3.5,4.7-12.7,2.3-18c-2.6-5.8-8.5-12.7-14.2-15.5c-13.8-7-33.8-5.1-46.6,3.1
			C968.7,179.9,969.5,182,971,181.5z"/>
		<path opacity="0.35" fill="#E8FFFA" enable-background="new    " d="M1020.4,228.2c1.5-0.5,2.8-1.5,4.3-1.8
			c1.5-0.3,3.5-0.1,4.9,0.7c0.6,0.3,1.2,0.2,1.7-0.2c0.2-0.2,0.3-0.4,0.4-0.6c0.2-0.6-0.1-1.3-0.6-1.6c-1.9-1.2-3.4-1.8-5.7-1.6
			c-2.1,0.2-4.5,0.7-6.2,1.9C1017.5,226.1,1018.4,228.8,1020.4,228.2z"/>
		<path opacity="0.35" fill="#E8FFFA" enable-background="new    " d="M1018.3,219.4c-0.4,0.4-0.3,1.3,0.4,1.4
			c1.8,0.3,3.6,0,5.4-0.3c6.5,0.9,12.5,2.5,18,5.2c0.2,0.6,0.5,1.1,0.9,1.6c0.3,1,1,1.9,2.2,2.2c1.1,0.2,2.2,0.3,3.3,0.1
			c1.4,1,2.7,2.1,4,3.2c-0.6,1.4,0.2,3.2,1.5,4.1c1,0.7,2,1.2,3.1,1.6c0,1.4,0.4,2.9,1.1,4c1.2,1.8,3.1,3.3,5.3,3.6
			c5,7.2,8.7,14.8,10.7,23.6c-0.3,1.3-0.5,2.6-0.7,4.1c-0.1,0.5,0,1,0.2,1.4c0,0.1-0.1,0.2-0.1,0.3c-0.6,1.7,2,3.3,3.2,1.8
			c0.5-0.7,1-1.4,1.5-2.1c3-2.5,4.3-6.4,4.3-10.4c0-0.5,0-1,0-1.6c1.2-12.3-6.2-24.9-14.8-34.5c-6.1-6.8-14.5-12-23.5-13.7
			C1037.6,213.7,1023,213.6,1018.3,219.4z"/>
		<path opacity="0.35" fill="#E8FFFA" enable-background="new    " d="M1042.3,254.9c0.6,1,1.6,1.3,2.7,1.1c0.8-0.1,1.5-0.5,2.3-0.9
			c0.7-0.4,1.5-0.7,2.1-1.3c0.7-0.7,0.9-1.8,0.5-2.7c-0.3-0.8-1.3-1.6-2.2-1.5c-0.9,0.1-1.9,0.4-2.8,0.9l0,0
			c-0.3-1.1-1.6-1.9-2.7-1.5c-0.5,0.2-1,0.3-1.4,0.4c-0.4,0.1-0.8,0.4-1.1,0.6c-0.6,0.1-1.2,0.1-1.7,0.5c-0.6,0.4-0.8,1.3-0.2,1.8
			c0.7,0.6,1.5,0.5,2.2,0.8s1.4,0.3,2.1,0.3C1041.9,254,1042,254.5,1042.3,254.9z"/>
		<path opacity="0.35" fill="#E8FFFA" enable-background="new    " d="M1074,202.9c0-0.8-0.2-1.5-0.5-2.3c0.1,0,0.2,0,0.2-0.1
			c1.3-0.4,2.4-1.3,3.5-2s2.3-1.4,3.2-2.4c0.9-1,1.5-2.4,1.7-3.7c0,0,0.1,0,0.1,0.1c2.5,1.1,5.9,1.1,7.9-0.9
			c0.4-0.4,0.7-0.8,0.9-1.3c3.3,1.3,6.1-3.8,2.7-5.8c-0.7-0.4-1.5-0.9-2.3-1.2c-4.1-1.5-9.2-2.9-15.5-3.7c-3.2,0-6.5,0.6-8.5,2.6
			c-6.1,6.6-1.4,16.3,3.7,21.7C1072.3,205,1074.1,204.3,1074,202.9z"/>
		<path opacity="0.35" fill="#E8FFFA" enable-background="new    " d="M1092.2,192c-1,0.4-2.1,1-2.8,1.8c-0.9,0.9-1.1,1.1-2.3,1.5
			c-1.2,0.4-2.7,1.3-3.6,2.2c-0.4,0.4-0.1,1,0.4,1c0.7,0.1,1.1-0.2,1.7-0.6c1-0.6,1.6-0.7,2.7-0.8c2.1-0.2,4.1-0.7,5.8-1.8
			C1096.2,194,1094.4,191.1,1092.2,192z"/>
		<path opacity="0.35" fill="#E8FFFA" enable-background="new    " d="M1113.8,284.1c-2.8-4.4-6.2-8.7-9.8-12.4
			c-2.3-2.3-6.1-6.4-9.7-5.8c-0.2-0.1-0.4-0.1-0.6,0c-0.1,0.1-0.2,0.2-0.3,0.2l0,0c-0.3,0.1-0.5,0.3-0.6,0.5
			c-1.8,1.8-2.5,4.8-2.9,7.2c-0.6,3.4,2.1,7.2,4.5,9.4c3,2.7,6.4,4.3,9.1,7.4c3.9,4.5,7.5,9.2,5.8,15.4c-0.3,1,0,1.9,0.6,2.6
			c0,0.2-0.1,0.4,0,0.6c-0.1,0.3-0.3,0.5-0.4,0.8c-9.5-14.2-25.7-29.4-43.2-17.8c-0.9,0.6-1,2,0,2.6c3.1,1.8,6.3,0,9.7-0.1
			c2.8-0.1,5.5,0.2,8.1,1.1c0.5,0.5,0.9,1,1.4,1.5c-1.4-0.2-2.1,2-0.8,2.7c1.1,0.6,1.8,1.9,2.7,2.9c0.9,1,1.9,1.7,3.1,2.4
			c1.5,0.9,1.9,1.3,2.4,2.9c0,0.2-0.1,0.4-0.1,0.6c-0.3,1.4-0.4,2.7,0.6,3.8c0.5,0.6,1.4,0.6,2.1,0.2c0,0.3,0.1,0.5,0.1,0.8
			c0.4,1.8,3.1,1.7,3.5,0c0.1-0.6,0.2-1.1,0.3-1.7c0.2,0.3,0.3,0.7,0.4,1.1c-0.4,1-0.4,1.9-0.2,3c0,0.2,0.1,0.5,0.2,0.7
			c-0.2,0.6-0.4,1.2-0.7,1.7c-0.8,1.3,0.5,2.8,1.8,2.7c0,0.3-0.1,0.5-0.1,0.8c-0.4,1.1-1.2,1.4-1.3,2.7c0,1.2,0.3,2.7,0.7,3.9
			c-0.3,0.5-0.5,0.9-0.8,1.4c-0.5,1,0.4,2.7,1.7,2.2c4.2-1.7,6.9-5.6,9.3-9.3c1.2-1.9,2.6-3.9,3.8-6c4.5-0.7,8.8-2,13.5-1.4
			c6.3,0.8,12,3.9,15.8,9c0.1,0.2,0.2,0.3,0.4,0.4c0.9,2.7,2.1,5.1,4,5.6c0.9,0.3,2,0,2.6-0.7c0.1-0.1,0.1-0.1,0.2-0.2
			c0.7-0.8,0.9-2.2,0.4-3.1c-0.1-1.4,0.4-3.3,0.2-4.7c-0.3-2.1-1.1-4.3-1.8-6.4c-1.3-3.4-2.8-6.7-4.8-9.8c-2.1-3.3-4.3-6-7.1-7.8
			c-6.5-2.2-12.2-0.6-13.3-0.2c-0.1,0.2-0.1,0.3-0.1,0.5c-0.2,1.8-2.7,3.5-4.4,4.9C1119.8,296.4,1116.7,288.7,1113.8,284.1z"/>
		<path opacity="0.35" fill="#E8FFFA" enable-background="new    " d="M1117.7,320.4c-0.2,0.1-0.4,0.2-0.6,0.3
			c-0.4,0.2-0.6,0.4-0.9,0.7c-0.6,0.5-1,1-1.1,1.9c-0.1,0.6,0.5,1.3,1.1,1.5c0.8,0.2,1.4-0.1,2.1-0.4c-0.3,0.1,0.6-0.3,0.7-0.4
			c0.2-0.1,0.4-0.3,0.5-0.4c0.3-0.4,0.4-0.5,0.2-0.3c0.6-0.5,0.6-1.4,0.3-2.1c-0.4-0.7-1.2-0.9-1.9-0.8
			C1118.4,320.3,1117.7,320.4,1117.7,320.4z"/>
		<path opacity="0.35" fill="#E8FFFA" enable-background="new    " d="M1135.6,321.9c-1-0.2-1.9-0.2-2.9-0.3c-0.6-0.2-1.3-0.3-2-0.3
			c-0.5-0.8-1.5-1.1-2.6-1.1c-1.2,0-2.7-0.3-3.6,0.7c-0.4,0.5-0.3,1.2,0.2,1.6c0.8,0.5,1.7,0.3,2.6,0.3h0.1c-0.6,0.6-1,1.4-1,2.3
			c-0.1,0.9,0.6,1.7,1.4,2c0,0.1,0.1,0.2,0.3,0.3c0.5,0.3,0.7,0.8,1.3,1.1c1.2,0.6,2.4,0.1,3.7,0.2c1.2,0.2,2,1.2,3.1,1.8
			c1.1,0.7,1.9,1.1,2.9,1.9s2.8,0.7,3-0.8c0.3-1.7-0.3-2.8-1.9-3.6c-0.6-0.3-1.3-0.4-1.8-0.7c-0.8-0.4-1.4-1.3-2.1-1.7
			c-0.1,0-0.1-0.1-0.2-0.1C1137.3,324.7,1137.3,322.3,1135.6,321.9z"/>
		<path opacity="0.35" fill="#E8FFFA" enable-background="new    " d="M1143.3,337.7c1.7,0,1.7-2.7,0-2.7
			C1141.6,335,1141.6,337.7,1143.3,337.7z"/>
		<path opacity="0.35" fill="#E8FFFA" enable-background="new    " d="M1197.4,332.5c1.4,2.6,1.4,4.9,1.1,7.7c0,0.2,0,0.5,0,0.7
			c-1.4,2.8,2.2,6.1,4.5,3.5c4.9-5.5,5.8-13.3,5.2-20.4c-0.7-8-5.1-13-12.1-16.6c-6.6-3.4-13.9-3.9-20.7-0.7
			c-3.2,1.5-6.2,3.8-8.6,6.4c-2.4,2.5-3.7,5.2-5.1,8c-1.8,2.7-3.3,5.6-4.4,8.6c-2.1,6.1-4.1,14-0.8,19.9c0.6,1,2.2,0.6,2.2-0.6
			c0-6.3-0.5-12.2,2-18.1c1.2-2.8,2.8-5.3,4.6-7.7c0.1,0,0.2,0.1,0.3,0.1c2.6,0.9,5.7,0.4,8.2-0.6c1.2-0.5,2.5-1,3.7-1.7
			c0.5-0.3,2-1.4,3-2c1.7,2.1,3.3,4.3,4.5,6.8c0.9,1.7,3.3,1.5,4.2,0.1c0.6,0.4,1.1,0.9,1.7,1.1c0.9,0.4,2.3,0.3,3.1,0.7
			C1195.1,328.4,1196.9,331.4,1197.4,332.5z"/>
		<path opacity="0.35" fill="#E8FFFA" enable-background="new    " d="M1161.6,339.4c-0.5,0.8-0.2,1.7,0,2.5
			c0.2,0.7,0.2,1.5,0.8,2.1c0.5,0.5,1.1,0.4,1.7,0c0.7-0.6,0.5-1.6,0.4-2.3c-0.1-0.8,0-2-0.8-2.5
			C1163,338.6,1162.1,338.6,1161.6,339.4z"/>
		<path opacity="0.35" fill="#E8FFFA" enable-background="new    " d="M1163.4,334.9c0.6-0.5,0.9-1.2,1.3-1.8
			c0.2-0.3,0.4-0.6,0.5-0.9c0.2-0.5,0.2-0.8,0.3-1.3c0.1-0.6-0.7-1.1-1.2-0.9c-0.4,0.2-0.8,0.2-1.1,0.6c-0.4,0.4-0.6,0.8-0.8,1.3
			c-0.4,0.9-0.6,1.7-0.4,2.7C1162.1,335.2,1163,335.3,1163.4,334.9z"/>
		<path opacity="0.35" fill="#E8FFFA" enable-background="new    " d="M1170,331.5c0.1-0.1,0.2-0.2,0.4-0.3c0.2-0.2,0.3-0.3,0.3-0.5
			c0.3-0.5,0.6-0.9,1-1.4c0.4-0.4,0.8-0.7,1.2-1c0.6-0.4,0.1-0.1,0.6,0c1.9,0.3,4.3,0.8,5.5-1.6c0.6-1.3,0.1-2.8-1.3-3.2
			c-1.7-0.5-3.3,0.3-4.1,1.7c-0.4,0-0.7,0-1,0.1c-0.8,0.3-1.7,0.8-2.3,1.4c-1.2,1.1-2.3,2.7-1.9,4.4
			C1168.5,331.8,1169.4,331.9,1170,331.5z"/>
		<path opacity="0.35" fill="#E8FFFA" enable-background="new    " d="M1191.2,253.8c0.2-0.1,0.4-0.3,0.6-0.6c0-0.1,0.1-0.2,0.1-0.3
			c0.2-0.1,0.4-0.1,0.6-0.3c1.1-0.6,2.1-1.3,3.1-1.9c1.8-0.2,4.2,0.4,5.6-0.1c1.2-0.4,2.2-1.3,3-2.2c0.4,1.5,2,2.8,3.6,1.6
			c0.3-0.2,0.5-0.5,0.8-0.7c1.8,2.4,3.9,4.5,5.9,6.8c0.7,0.8,1.7,0.9,2.6,0.6c0.4,2.3,0.7,4.6,1.2,6.8c0.3,1.5,0.9,3,1.8,4.1
			c-0.1,5-0.3,10.1-2.9,13.8c-2.5,3.6-6.8,5.5-10.5,7.5c-0.9,0.5-3.2,1.1-3.5,2.2c0,0.1-0.1,0.2-0.1,0.3c-0.3,0.8,0.3,1.6,1.1,1.9
			c0.5,0.2,1.1,0.3,1.7,0.3c0.4,0.2,0.8,0.2,1.3,0.1c8.6-2,15.4-7.5,20.7-14.5c1.8-2.4,3.9-5.3,5.6-8.4c0.2-3.4,0.2-7.3-0.4-11.7
			c-1.5-12.5-7.4-25.7-19-32.3c-5.3-0.4-10.3,1.6-14.5,5.9c-3.5,3.5-7.2,8-9,12.9C1190.6,248.4,1190.9,251.1,1191.2,253.8z"/>
		<path opacity="0.35" fill="#E8FFFA" enable-background="new    " d="M1201.3,254.1L1201.3,254.1c-0.6-0.4-1.5-0.6-2,0
			c-0.2,0.2-0.4,0.3-0.5,0.5c-0.1,0.1-0.1,0.2-0.2,0.2c0,0,0-0.1-0.2-0.1c-0.7,0-1.3,0.1-1.9,0.3c-1.3,0.4-2.3,0.8-3.3,1.7
			c-0.8,0.7-0.3,1.8,0.6,2.1c1.6,0.6,3.3,0.5,4.9-0.2c0.6-0.3,1.1-1,1.4-1.3c0.5-0.6,1.1-1,1.6-1.6c0.2-0.3,0.3-0.6,0.2-0.8
			C1202,254.7,1201.8,254.1,1201.3,254.1z"/>
		<path opacity="0.35" fill="#E8FFFA" enable-background="new    " d="M1202.3,255.4c0.7,0.3,1.7,1.1,2.5,0.5c0.4-0.2,0.5-0.6,0.4-1
			c-0.2-0.9-1.4-1.1-2.1-1.4C1202,253.2,1201.3,254.9,1202.3,255.4z"/>
		<path opacity="0.35" fill="#E8FFFA" enable-background="new    " d="M1211.9,261.4c0.4-0.6,0.3-1.4,0-2c-0.4-0.7-1-1.4-1.8-1.6
			c-0.7-0.2-1.9-0.2-2.1,0.7c-0.4,1.1-0.1,2,0.5,2.9C1209.2,262.7,1211,262.8,1211.9,261.4z"/>
		<path opacity="0.35" fill="#E8FFFA" enable-background="new    " d="M1225.2,337.7c6.7-1,10.6-9,11.2-15
			c0.5-4.5-0.8-13.6-6.3-14.1c0.3-0.2,0.6-0.4,0.9-0.6c0,0,3.2-5,2.4-10.8c-0.8-5.8-5.3-8.5-5.3-8.5s0,0,0.1-0.1
			c-1.1-0.6-2.5-1-4.1-0.8c-2.1,0.3-4.1,1.2-6,2.2c-1.5,0.7-6.1,4.2-7.1,4.1c-0.4,0-1,0.3-1.2,0.7c0,0,0,0.1-0.1,0.1
			c-0.4,1-0.1,2.1,1,2.4c2.3,0.7,4.6-0.8,6.6-1.8c2.4-1.2,8.3-5.5,9-0.8c0.1,1,0.6,1.8,1.3,2.3c0.6,1.5,0.8,3,0.7,4.4
			c-0.4,0.6-0.9,1.2-1.3,1.8c-0.8,1-1.3,2.2-2.1,3.1c-1,1-2.8,1.5-4,2.3c-0.5,0.3-0.4,0.9,0,1.2c0.6,0.4,1.1,0.7,1.7,0.8
			c-0.1,0.1-0.1,0.1-0.2,0.2c-1.5,1.5-3.1,2.3-4.9,3.4c-1,0.6-0.3,2,0.7,1.7c1.5-0.3,2.8-1,4.2-1.8c0.1,0,1.3-0.9,1.5-0.9
			c0.5,0,0.5,0.4,0.6,0.7c0.4,1.2,0.2,2.3,0.9,3.4c0.6,1,1.5,1.6,2.5,1.8c0,1.4,0.2,2.8,0.2,4.2c0,4.8-1.5,7.5-5,10.6
			C1221.3,335.7,1223.3,338,1225.2,337.7z"/>
		<path opacity="0.35" fill="#E8FFFA" enable-background="new    " d="M1223.7,327.9L1223.7,327.9
			C1223.8,327.9,1223.8,327.9,1223.7,327.9c0.6-0.1,1-0.6,0.9-1.1c0-0.5-0.1-1-0.5-1.4c-0.3-0.3-1-0.5-1.4-0.1
			c-0.3,0.4-0.4,0.7-0.5,1.2c-0.1,0.4,0,0.9,0.3,1.1c0,0,0,0,0.1,0.1C1223,327.9,1223.4,327.9,1223.7,327.9z"/>
		<path opacity="0.35" fill="#E8FFFA" enable-background="new    " d="M1146.6,351.3c-6.2-3.3-13.6-5-20.6-3.2
			c-6.2,1.6-13.7,7-16.4,12.7c-0.2,0.4-0.2,0.8-0.2,1.1c-0.4,0.5-0.6,1.2-0.2,1.7c1.8,2.4,4.1,2.3,6.6,0.8c1.2-0.7,2.3-1.7,3.4-2.5
			c1-0.8,1.9-1,2.9-1.3c0.5,0.5,1.1,1,1.9,1.2c1.6,0.3,2.6-0.6,4-1.1c0.8-0.3,1.7-0.5,2.5-0.6c0.3,0.5,0.7,0.8,1.2,0.9
			c1.5,0.4,3.2,0,4.7-0.2c0.2,0,0.6-0.1,1-0.1c0,1.2,0.5,2.6,1.7,2.8c1,0.2,1.8,0,2.5-0.4c4.1,2.3,7.8,5,10.8,8.7
			c2.8,3.4,4.8,7.4,7.4,10.9c0.4,1.9,0.4,3.1,2.2,4.4c1.8,1.4,4.6-0.9,3.9-3V384l0,0c0.3,0.3,0.4-0.1,0.2-1.4c-0.1-1-0.1-2-0.2-2.9
			c-0.2-1.8-0.4-3.6-0.8-5.3c-0.8-3.2-2.2-6.3-3.9-9C1157.7,359.6,1152.7,354.6,1146.6,351.3z"/>
		<path opacity="0.35" fill="#E8FFFA" enable-background="new    " d="M1116.9,365.3c-0.7-0.3-1.4,0.1-2,0.6
			c-0.1,0.1-0.2,0.3-0.3,0.3c-0.2,0.1-0.4,0.2-0.6,0.3c-1.3,0.7-0.4,2.8,1,2.4c0.3-0.1,0.7-0.3,1-0.4c0.4-0.1,0.8-0.2,1.1-0.5
			c0.4-0.3,0.8-0.8,0.8-1.4v-0.1C1117.9,366,1117.5,365.6,1116.9,365.3z"/>
		<path opacity="0.35" fill="#E8FFFA" enable-background="new    " d="M1103.1,371.5c-0.7,1-1.1,2.2-1.5,3.4
			c-0.6,1.6,2.1,2.8,2.8,1.2c0.5-1.1,1.2-2.2,1.3-3.5C1105.9,371,1104.1,370.2,1103.1,371.5z"/>
		<path opacity="0.35" fill="#E8FFFA" enable-background="new    " d="M1108.8,368.3c-0.7-0.2-1.6,0.2-1.8,0.9
			c-0.2,0.9,0.4,1.8,1.3,1.8c0.8,0,1.7-0.9,1.3-1.8C1109.5,368.8,1109.2,368.5,1108.8,368.3z"/>
		<path opacity="0.35" fill="#E8FFFA" enable-background="new    " d="M1250.9,341.9c-3.5-4.4-7.2-7.1-8.8-8.1c-0.7,0-1.3,0.2-2,0.7
			c-4.2,3.5-8.3,5.4-13.4,7.1c-4,1.3-7.6,2.8-11,5.3c-5.4,4.1-11.1,10.9-8.8,18.1c0.4,1.1,2,1.1,2.3,0c1-3.4,2.6-6.4,4.8-8.9
			c0,0.1,0.1,0.3,0.1,0.4c0.3,0.7,1.1,1.2,1.8,0.7c1.9-1.3,3.9-2.6,6-3.7c0.3,0.1,0.5,0.1,0.8,0c1.4-0.5,2.9-1.1,4.3-1.8
			c0,0.3,0.1,0.7,0.2,1c0.2,1.1,1.4,1.6,2.4,1.6c1,0.2,2,0.1,2.9-0.3c0.1,1.9,2.2,3.3,4,2.8c0,1,0.1,1.9,0.3,2.8
			c0.5,2.4,3.6,3,5.3,1.6c-0.1,2.4-0.1,4.8,0.5,7c0.9,3.2-0.5,6-1.1,9c-0.6,0.6-1.3,1.1-2.1,1.6c-4.4,2.7,1.3,8.9,4.4,4.4
			c5.9-8.5,9.2-17.1,9.3-27.7C1253,353,1252.5,347,1250.9,341.9z"/>
		<path opacity="0.35" fill="#E8FFFA" enable-background="new    " d="M1215.6,364.4c-0.1,0.2-0.2,0.4-0.1,0.6c-0.4,0-0.9,0-1.3,0.2
			c-1,0.4-1.7,1.5-2.3,2.3c-0.7,0.9-1.1,1.9-1.6,2.9c-0.2,0.5-0.5,1-0.7,1.5c-0.2,0.4-0.1,0.9-0.2,1.3c-0.2,0.7,0.4,1.5,1.1,1.6
			c0,0.3,0,0.6,0.1,1c0.1,1.7,1.3,4.1,3.4,3c1.4-0.7,1.5-2.5,1.6-3.9c0-1.6-0.1-2.9-0.8-4.3c0-0.1-0.1-0.1-0.1-0.2
			c0.1-0.2,0.2-0.3,0.3-0.5c0.5-0.8,1.3-1.6,1.7-2.4c0.2-0.4,0.1-0.8,0.2-1.3c0-0.1,0.1-0.3,0.1-0.4l0,0c0.2-0.1,0.5-0.2,0.7-0.2
			s0.3,0,0.5,0s0.5-0.1,0.7-0.2c0.6-0.3,0.7-1.2,0.2-1.7C1217.8,362.9,1216.3,363.5,1215.6,364.4z"/>
		<path opacity="0.35" fill="#E8FFFA" enable-background="new    " d="M1221.1,357.9c-0.8,0-1.6,0.3-2.2,0.9c-0.7,0.8-1.5,2-1.2,3.2
			c0.2,0.9,1.5,1.3,2.1,0.6c0.3-0.4,0.5-0.7,0.8-1.1l0,0c0.1-0.1,0.3-0.1,0.4-0.2s0.2-0.1,0.3-0.1h0.1c0.3-0.1,0.5-0.3,0.7-0.4
			c0.3,0.1,0.7,0,1-0.1c0.9-0.4,1.5-1.3,1.1-2.3s-1.5-1.2-2.4-0.8c-0.2,0.1-0.2,0.1-0.1,0c0.2-0.1,0.1,0-0.3,0.1
			C1221.3,357.7,1221.2,357.8,1221.1,357.9z"/>
		<path opacity="0.35" fill="#E8FFFA" enable-background="new    " d="M1222.7,363.2c-0.4,0.3-0.5,1-0.3,1.5s0.7,0.8,1.2,0.8
			c0.1,0,0.2,0,0.3,0c1,0,1.7-1.1,1.3-2c-0.4-1-1.6-1.1-2.4-0.5C1222.9,363.1,1222.8,363.2,1222.7,363.2z"/>
		<path opacity="0.35" fill="#E8FFFA" enable-background="new    " d="M1227.4,360.3c0.3,0.3,0.7,0.5,1,0.6c0.9,0.2,1.8-0.3,1.9-1.3
			s-0.6-1.7-1.5-1.8h-0.3c-0.2,0-0.4,0-0.6,0c-0.7-0.1-1.3,0.6-1.1,1.3c0.1,0.2,0,0.4,0.1,0.6
			C1227.1,359.9,1227.2,360.1,1227.4,360.3z"/>
		<path opacity="0.35" fill="#E8FFFA" enable-background="new    " d="M1237.1,363.9c0.1-0.8-0.5-1.5-1-2c-0.6-0.5-1.3-0.7-2.1-0.5
			c-0.1,0-0.2-0.1-0.3-0.1c-1.1-0.2-1.6,1-0.8,1.7c0,0.4,0.1,0.8,0.4,1.1c0.3,0.5,0.5,1,1.1,1.3
			C1235.7,366.1,1237,365.2,1237.1,363.9z"/>
		<path opacity="0.35" fill="#E8FFFA" enable-background="new    " d="M1093.9,321.4c0.3,1,1.4,1.7,2.5,1.4c1-0.3,1.7-1.4,1.4-2.5
			c-0.2-0.5-0.5-0.9-0.8-1.3c-0.2-0.3-0.4-0.7-0.6-1c-0.4-0.7-1-1.3-1.8-1.3c-0.1,0-0.1,0-0.2,0c-0.5-0.2-1,0.3-1,0.8l0,0
			c-0.3,0.6-0.1,1.2,0.1,1.9c0.1,0.3,0.2,0.7,0.3,1v0.1C1093.7,320.8,1093.8,321.1,1093.9,321.4z"/>
		<path opacity="0.35" fill="#E8FFFA" enable-background="new    " d="M1084.8,309.7c0.4,0.7,1.1,1,1.9,1.2c0,0.2,0,0.5,0.1,0.7
			c0,0.2,0.1,0.4,0.2,0.5c0.3,0.8,0.6,1.4,1.3,1.9c0.5,0.4,1.3,0.3,1.8,0.1c0.6-0.3,1-0.7,1.2-1.3c0.3-0.6,0.1-1.3-0.1-2
			c0-0.2-0.1-0.4-0.1-0.5c-0.1-0.5-0.4-0.8-0.7-1.2c-0.3-0.4-0.8-0.6-1.3-0.6c-0.3-0.5-0.9-0.8-1.5-0.9l0,0c0-0.3-0.1-0.5-0.4-0.7
			c-1.2-1.2-3.9-2.2-5.4-1c-0.5,0.4-0.7,1-0.2,1.5c0.6,0.6,1.3,0.8,2.1,1c0.3,0.1,0.6,0.2,1,0.3
			C1084.6,309,1084.6,309.4,1084.8,309.7z"/>
		<path opacity="0.35" fill="#E8FFFA" enable-background="new    " d="M1078.8,300.6c0.3,0.6,1.1,0.9,1.7,0.7
			c1.4-0.4,1.4-2.4,0.1-2.9c-0.4-0.4-0.7-0.6-1.3-0.8c-0.5-0.2-0.9,0.1-1.1,0.6c-0.1-0.1-0.2-0.2-0.3-0.3c-0.2-0.1-0.4-0.1-0.6-0.1
			c-0.6-0.1-0.8,0.3-0.9,0.6c-0.6-0.5-1.8-0.4-2.4-0.4c-0.8-0.1-1.2-0.1-1.9-0.5c-0.5-0.3-0.9-0.7-1.5-0.9c-2.7-0.8-6.3,0.2-6.4,3.4
			c0,1,1,1.6,1.8,1.4c1.5-0.3,2.9,0,4.3-0.3c0.1,0,0.1,0,0.1,0c0.2,0.1,0.4,0.3,0.6,0.4c0.5,0.2,1,0.3,1.5,0.3
			c1.1,0,4.5-1.1,4.2-2.7c0.1,0,0.3,0.1,0.4,0.1c0.2,0,0.4-0.1,0.6-0.1c0.1,0,0.2-0.1,0.3-0.2c0,0.1,0.1,0.2,0.2,0.3
			c0.1,0.1,0.2,0.2,0.2,0.3C1078.6,299.8,1078.6,300.2,1078.8,300.6z"/>
		<path opacity="0.35" fill="#E8FFFA" enable-background="new    " d="M1042,302.2c4.9,1,9.6-1,11.3-5.2c3.9,1,7-5.3,2.9-8.1
			c-9.6-6.6-21.7-7.6-32.9-6.1c-5.7,0.8-11,2.4-15.6,6c-3.4,2.6-8.1,6.9-7.7,11.6c0.2,2.2,2.3,3.5,4.3,2.5c0.2-0.1,0.4-0.3,0.7-0.4
			c0.1,0.9,0.6,1.9,1.6,2.1c6.2,1.2,11-6.3,16.9-7.8C1028.5,301.8,1035.2,300.7,1042,302.2z"/>
		<path opacity="0.35" fill="#E8FFFA" enable-background="new    " d="M1007.3,316c-1.3-2.3-1.3-5-1.4-7.5c-0.1-1.9-3.2-2.6-3.5-0.5
			c-0.4,2.6-0.4,5.5,0.5,8c0.9,2.6,2.8,4.5,4.2,6.7c1.3,2,4.1,0.7,3.7-1.6C1010.3,318.9,1008.4,318,1007.3,316z"/>
		<path opacity="0.35" fill="#E8FFFA" enable-background="new    " d="M1012.2,310.1c0.5-0.7,0.7-1.3,0.6-2.1
			c-0.1-0.7-0.9-1.3-1.6-1.2c-1.2,0-1.7,0.8-2.4,1.7c-0.3,0.3-0.6,0.7-0.8,1c-0.3,0.5-0.4,1-0.4,1.6c-0.1,1,1,1.7,1.9,1.5
			c0.5-0.2,0.9-0.4,1.3-0.7c0.3-0.3,0.5-0.6,0.8-0.8C1011.8,310.6,1012,310.4,1012.2,310.1z"/>
		<path opacity="0.35" fill="#E8FFFA" enable-background="new    " d="M1017.3,303.8c-1,0.2-2,0.4-2.9,0.8c-1,0.4-1.9,1.5-1,2.5
			c0.7,0.8,1.6,0.4,2.4,0.1c0.8-0.3,1.5-0.5,2.3-0.6s1.2-1.1,1-1.8C1018.9,304,1018.1,303.7,1017.3,303.8z"/>
		<path opacity="0.35" fill="#E8FFFA" enable-background="new    " d="M967,305.5c0.2,0.2,0.5,0.3,0.7,0.5c0.2,0.1,0.3,0.2,0.5,0.2
			c0.4,1.2,0.8,2.4,1.4,3.4c1.1,1.7,4.5,1.8,4.9-0.6c0.2-1.5,0-3-0.3-4.4l0.1-0.1c2.2-0.1,4.1-1.4,6.2-2.1c-0.1,0.6-0.1,1.2,0,1.8
			c0.3,1,1.2,1.7,2.3,1.7c2.6,0.1,3.4-2.3,5.2-3.6c1.4-1,3.4-1.5,4.8-2.6c1,0,2,0.2,3,0.3c2.4,0.4,4.6-2.5,2.6-4.4
			c-4.6-4.3-10.9-4.1-16.8-3.5c-4.6,0.5-7.8,1.9-11.1,4c-0.8-1.1-1.5-2.4-2.2-3.2c-1.4-1.6-3-3-4.7-4.2c-3.8-2.6-8.3-4.2-12.8-5.1
			c-8.8-1.8-21.2-3.6-29.1,1.8c-1.5,1-2.2,3-1.2,4.7c0.2,0.3,0.3,0.5,0.5,0.8s0.3,0.5,0.5,0.7c0.1,0.3,0.3,0.5,0.5,0.8
			c4.7,4.5,9.4,4.3,15.7,4.1c1.4-0.1,2.8,0,4.3,0c0.5,1.1,1.4,2,2.7,2c0.9,0,1.7-0.5,2.2-1.3c0.1-0.1,0.1-0.2,0.2-0.3
			c1.9,0.2,3.7,0.3,5.5,0.4c2.3,1.8,4.9,3.2,7.4,4.5C962,303,964.4,304.6,967,305.5z"/>
		<path opacity="0.35" fill="#E8FFFA" enable-background="new    " d="M956.9,303c-0.7-0.8-2.1-0.8-2.8,0s-0.8,2.1,0,2.8l0.1,0.1
			c0.8,0.7,2.1,0.8,2.8,0c0.8-0.8,0.7-2,0-2.8C957,303.1,957,303,956.9,303z"/>
		<path opacity="0.35" fill="#E8FFFA" enable-background="new    " d="M965.5,309.2c-0.9-0.5-1.6-0.5-2-1.4
			c-0.5-1.2-2.6-0.9-2.8,0.4c-0.2,1,0,2,0.8,2.8c0.4,0.4,0.9,0.5,1.3,0.7c0.2,0.1,0.4,0.1,0.6,0.1c0,0.1,0,0.2,0.1,0.5
			c0.8,1.1,1.1,2.5,1.5,3.8c0.3,1.3,0.4,2.5,1.8,3.2c0.7,0.3,1.4,0.3,2-0.3c1.8-1.8,0.4-5.5-0.6-7.4
			C967.5,310.4,966.8,309.9,965.5,309.2z"/>
		<path opacity="0.35" fill="#E8FFFA" enable-background="new    " d="M921.5,309.5c-1-6.3-1.8-12-6.1-17c-2.9-3.5-7.3-6.9-12-6
			c-4.8-1-10,0-13.7,3.1c-1.2,1-0.9,2.7,0.1,3.7c-0.1,0.5,0,1.1,0.4,1.6c1.5,1.7,3.3,2.6,5.3,3c-0.3,1.2,0.2,2.5,1.6,2.9
			c1.5,0.4,3,0.1,4.4-0.5c0.3,1,1.4,1.7,2.4,1.1c0.4-0.2,0.8-0.6,1.2-0.8c1.8,1.3,3.4,2.8,5.4,3.8c0.6,0.3,1.3,0.4,2,0.3
			c1.4,2.4,2.7,4.9,4.1,7C918.3,314.2,921.9,312.5,921.5,309.5z"/>
		<path opacity="0.35" fill="#E8FFFA" enable-background="new    " d="M912,311.6c1.4-1.4-0.2-3.5-1.3-4.4c-1.6-1.3-3.3-1.1-5.3-0.9
			c-1,0.1-1.3,1.5-0.2,1.8c1,0.2,2,0.1,2.9,0.7c0.3,0.2,0.7,0.5,0.9,0.8c0.1,0.2,0.4,0.9,0.5,0.6C909.1,311.6,910.9,312.7,912,311.6
			z"/>
		<path opacity="0.35" fill="#E8FFFA" enable-background="new    " d="M834,286.6c1.2,1.7,4.3,2.3,5.4,0c3.3-6.9,4.4-15.2-0.1-22
			c-3.9-5.8-11.5-9.3-18.3-7c-0.1,0-0.2,0-0.3,0c-0.3,0.1-0.6,0.1-0.9,0.2c-2.8,0.7-3.3,4.8-0.8,6.2c4.4,2.5,7.6,5.6,10,10.1
			c1.2,2.3,2.4,4.5,3.1,7C832.7,283.1,832.9,285,834,286.6z"/>
		<path opacity="0.35" fill="#E8FFFA" enable-background="new    " d="M808.8,273.2c0.5-0.1,1,0,1.5,0.1c1.3,0.2,2.5,0.1,3.7-0.3
			c2.6-0.9,2-4.3-0.6-4.6c-2.4-0.3-4.7-1.1-7,0.1c-1.2,0.7-2.1,2.1-1.6,3.5c0.4,1.2,1.8,2,3,1.4
			C807.5,273.5,808.6,273.2,808.8,273.2z"/>
		<path opacity="0.35" fill="#E8FFFA" enable-background="new    " d="M826.4,274.9c-0.2-1.1-1.1-2-1.7-2.9
			c-0.6-0.9-1.2-2.1-2.3-2.6c-1.3-0.6-2.6,0.4-2.3,1.8c0.2,1.1,1.2,2,1.9,2.8c0.7,0.9,1.3,1.9,2.2,2.5
			C825.4,277.2,826.6,276,826.4,274.9z"/>
		<path opacity="0.35" fill="#E8FFFA" enable-background="new    " d="M829.7,284.2c0.4-1.3-0.5-2.4-0.6-3.7
			c-0.1-0.7-0.1-1.1-0.5-1.7s-0.8-0.9-1.4-1.2c-0.9-0.4-2.3,0.6-1.5,1.5c0.6,0.7,1.1,1.3,1.7,1.9c0.8,0.8,0.1,1.8,0.1,2.8
			C827.4,285.2,829.3,285.4,829.7,284.2z"/>
		<path opacity="0.35" fill="#E8FFFA" enable-background="new    " d="M833.8,316c0.9,0.5,2.5,0.1,2.7-1.1c0.2-0.9,1.5-1.5,2-2.3
			c0.3-0.4,0.4-1.2,0.6-1.7c0.2-0.7,0.1-1.2-0.2-1.7c0-0.1,0-0.3,0-0.4c-0.1-1-1.4-1.2-1.8-0.2v0.1c-0.2,0.1-0.4,0.2-0.6,0.3
			c-0.2,0.2-0.3,0.4-0.4,0.5c-1.3,0.3-2.5,1.1-3.2,2.2C832,313.2,832.3,315.1,833.8,316z"/>
		<path opacity="0.35" fill="#E8FFFA" enable-background="new    " d="M839.4,302.9c0.8-1,2-2,2.7-3.1c0.8-1.3-0.2-3.1-1.7-3
			c-2.2,0.1-4.6,2.3-5,4.4c-0.2,1,0.3,2,0.3,3c-0.1,1,0.1,1.9,0.6,2.8c0.4,0.8,1.5,0.4,1.6-0.4c0-0.6,0-1.4,0.1-2
			C838,303.7,838.8,303.5,839.4,302.9z"/>
		<path opacity="0.35" fill="#E8FFFA" enable-background="new    " d="M846,288.8c-1.3,1.6-1.2,3.6,0.6,4.9
			c6.7,4.6,13.8,8.5,20.9,12.5c3.1,1.8,7.6,3.4,10.2,5.9c2.3,2.2,5.1,7.7,6.4,10.6c1.4,3.3,6.2,0.4,4.8-2.8c-0.2-0.5-0.4-1-0.6-1.5
			c0.5-1.6,0.4-3.6,0.2-5c-0.9-5.3-2.2-10.6-5.8-14.8c-4-4.8-10-7.5-15.6-10c-4.4-1.9-10-4.7-15-3.9c-0.8,0.1-1.7,0.6-2.6,1.3
			C848.2,286.6,846.9,287.7,846,288.8z"/>
		<path opacity="0.35" fill="#E8FFFA" enable-background="new    " d="M874.2,370.1c0.1,1.5,1.5,2.7,3,2.3c1.8-0.5,2.9-1.1,4.2-2.5
			c0.3-0.3,0.5-0.7,0.6-1.2c9.6-8.1,6-24-1.8-33.3c-4.7-5.6-11.5-9.5-18.7-10.8c-4.6-0.8-12.9-0.8-13.1,5.6c-0.1,2,2.6,3.1,4,1.7
			c0.8-0.9,2.4-1,4.2-0.8c1.5,1.3,3.5,2.3,5.1,3.2c0.7,0.4,1.4,0.6,2.2,0.6c0.3,0.6,0.6,1.2,1.2,1.5c0.6,0.3,1.4,0.5,2.3,0.7
			c0.1,0.6,0.3,1.2,0.5,1.8c0.5,1.2,1.7,2.1,3,1.7c0.1,0,0.1-0.1,0.2-0.1c0.4,0.5,0.9,1.1,1.3,1.7c1.7,2.5,2.7,5.3,3.2,8.3
			c0.7,3.6,0.9,7.3,0.2,11C875.3,364.5,874.1,367.1,874.2,370.1z"/>
		<path opacity="0.35" fill="#E8FFFA" enable-background="new    " d="M841.9,336.4c0.1,0,0.1,0.1,0.1,0.1c1.5,0.8,3.1-0.3,3.8-1.5
			c0.3-0.5,0.6-1.1,0.7-1.7c0.1-0.6,0.3-1.3,0.2-1.9c-0.1-0.9-0.8-1.6-1.8-1.4c-0.7,0.1-1.2,0.6-1.6,1.2c-1.1-0.1-2.1,0.7-2.8,1.5
			s-1.7,2-1.5,3.1c0.2,1.3,1.4,1.9,2.5,1C841.6,336.7,841.8,336.6,841.9,336.4z"/>
		<path opacity="0.35" fill="#E8FFFA" enable-background="new    " d="M836.9,345.6c0.3-0.7,0.4-1.4,0.7-2.1
			c0.2-0.6,0.5-1.2,0.9-1.7c0.9-0.2,1.6-1.1,2-2c1.1-2.4-1.9-4.1-3.4-2c-0.6,0.8-1,1.8-0.8,2.7c-0.8,1.5-1.7,3.2-1.2,4.9
			C835.2,346.1,836.5,346.4,836.9,345.6z"/>
		<path opacity="0.35" fill="#E8FFFA" enable-background="new    " d="M799.6,362.6c1.1,0.2,2.3-0.2,2.9-1.2c0.5-0.3,1-0.5,1.6-0.6
			c0.9,0.1,1.8,0.3,2.7,0.6c0.9,0,1.3-0.1,2.2-0.6c0.1,0,0.1-0.1,0.2-0.1c0,0.2,0,0.4,0.1,0.5c0,0.1,0.1,0.2,0.1,0.2
			c0.3,0.6,1.1,0.8,1.7,0.4c0.4-0.2,0.6-0.6,0.6-1.1c0.1-0.7-0.6-1.2-1.2-1.2c-0.1,0-0.2,0-0.2,0c-0.3,0-0.5,0.1-0.6,0.2
			c0-0.4-0.3-0.9-0.6-1.1c-2-1.5-3.9-1.4-6-0.6c-0.3,0.1-0.5,0.2-0.8,0.3c-0.3-0.4-0.7-0.7-1.3-0.8c-1-0.2-2-0.5-2.9-0.7
			c9.9-3.1,23.8-0.8,28.5,8.8c1.7,3.4,7.6,1,6.2-2.6c-2.8-7.2-9.7-11.9-17.1-13.6c-8.3-2-15.9,0.9-22.7,5.8c-1.4,1-0.8,2.9,0.6,3.1
			c-0.9,1-1.5,2.4-1.4,3.8c-0.8,0.3-1.5,0.3-2.4,0.9c-1.5,1-1.1,2.9-0.5,4.3c0.4,0.8,1.7,0.8,2,0c0.2-0.3,0.8-1.2,0.5-1.2
			c0.7-0.2,1.9,0,2.6-0.4c1.6-0.8,1.5-2.3,2.5-3.4c0.2-0.3,0.5-0.4,0.9-0.5c0.1,0,0.2,0.1,0.3,0.1
			C798.5,362.3,799,362.5,799.6,362.6z"/>
		<path opacity="0.35" fill="#E8FFFA" enable-background="new    " d="M816.1,365.6C816.2,365.6,816.2,365.6,816.1,365.6h0.2
			c0.3,0,0.6,0,0.9-0.1c0.6-0.2,1.1-0.7,1.2-1.4c0.1-0.7-0.2-1.2-0.8-1.6c-0.5-0.4-1.4-0.5-2-0.4c-1.1,0.1-1.9,0.9-1.8,2
			C814,365.2,815.1,365.8,816.1,365.6z"/>
		<path opacity="0.35" fill="#E8FFFA" enable-background="new    " d="M815.4,369.9c0.7,1.4,2.8,1.4,3.7,0.2c1-1.3,0.3-3-1.2-3.5
			c-0.1,0-0.2-0.1-0.3-0.1c-0.8-0.3-1.7,0.1-2.2,0.7c-0.5,0.7-0.5,1.5-0.2,2.3C815.3,369.7,815.4,369.8,815.4,369.9z"/>
	</g>
</g>
</svg>
