<?xml version="1.0" encoding="utf-8"?>
<!-- Generator: Adobe Illustrator 21.0.2, SVG Export Plug-In . SVG Version: 6.00 Build 0)  -->
<svg version="1.1" id="Layer_1" xmlns="http://www.w3.org/2000/svg" xmlns:xlink="http://www.w3.org/1999/xlink" x="0px" y="0px"
	 viewBox="0 0 2000 2000" enable-background="new 0 0 2000 2000" xml:space="preserve">
<g>
	<path fill="#9F592A" d="M636,1023c3.3,1.8,11.5,2.5,23.3-48.7s13-104.2,4-149s-30.7-91.8-38.9-121c-8.1-29.2-12.5-63-12.5-63
		s3.2-13.8-2.3-48.3S596,547.3,596,547.3s19.1-6,36.6-17.3s18.7-20,18.7-20s20.5,0.7,50.7-23.7c30.2-24.3,31.7-33,31.7-33
		s32.7-0.3,67.7-15.3c0,0,32,11.3,71.7,4.3c0,0,16.5,10.7,54,13s48-7,48-7s28.7,13.2,53,18.3l10,10c0,0,33.3-1.8,70-33.7
		c0,0,24.3,2.3,62.3-21s49.3-45.6,49.3-45.6s22.4,18.3,43.1,58.9c20.7,40.7,23.4,112.3,23.4,112.3s14.6-22.3,26.6-69.7
		s11.8-65.3-5-94s-49.5-62.8-66-76.7c-16.5-13.8-25-41.6-47.2-50.7c0,0,0,29.7-17.2,69.7c0,0-11.7-41.8-43.3-71.3s-86.8-69-114.3-52
		c0,0-42.4-27.7-100.2-17c0,0,13.1-15,10.2-41.7c-2.8-26.7-18.2-55.3-66-65s-83,11.7-109.3,44.3c0,0-1.8-19.5-11.3-36
		S722,59.5,719,59s-2.8,4.3,9.3,21c12.2,16.7,13.3,26.3,13.3,26.3s-6.1-12.8-24.2-19.7c-18.1-6.8-18.9-0.3-14.4-0.3
		s19.7,2.3,31.3,17c11.7,14.7,10.7,19,10.7,19s-22.2-9.2-55-1.3s-51.5,30.4-56.9,52.7c-12,49.1,11,63.3,23.4,72.2
		c0,0,25.4-27,39.6-35.3c13.3-7.9,31.2-19,50.7-5.8s33.5,23.6,37,27.5s6.5,15.1,4.8,45.5s-5.5,37.8-5.5,37.8s-5,0.3-14.7,16.8
		s-15.3,44.9-4.6,65.4c0,0-20.1-13.7-49-25.2s-45.8-10-66.5-19s-24-24.2-25.2-38.5s14.3-42.4,14.3-42.4s-3.5-2.5-33.3,24.4
		s-41.9,53.1-52.5,68.5s-41,65.1-57.8,91.2s-23.6,42.5-28.2,58s-4,46.8,3.5,75s18.2,50.6,35.8,84.8s29.1,49.5,50.5,70.8
		s54.4,50.7,54.4,50.7s8.2,8.8,11.3,51.6s6.8,55.8,1,75.5s-13.9,21.1-17.8,22s-4.8,4.5,3.2,3.4s16.9-4.2,23-35.9s3.6-74.1-0.8-105.5
		c0,0,11.1,26.6,17.4,57c6.3,30.4,11.8,55,8.3,89s-10.9,52.1-14.5,59S636,1023,636,1023z"/>
	<path fill="#9F592A" d="M1251.9,846.7c0.3-0.3,11.8-12.3,11.8-12.3s-1,10.9-4.4,33.5c-3.4,22.5,1.3,42.4,4.4,47.9s8.6,5.4,12.7,0.7
		s2.6-8.7,1.3-11.9c-1.3-3.2-3.7-6.3-1.3-6c2.4,0.4,5.8,3.6,4.9,13.9s-8.1,11.4-14.6,9.8s-7.4-6.3-12.9-25.9
		S1251.9,846.7,1251.9,846.7z"/>
	<path fill="#9F592A" d="M1274.3,821.1l11.1-17.6c0,0,10.7,6.8,19,35.9c8.4,29.2,9.8,42.2,8.7,64.4s-6.1,39.6-9.6,49.9
		c-3.6,10.3-6.4,14.7-9.2,15.8c-2.8,1.1-1.3-1.6,4.7-15.5s5.4-53,2.5-69C1298.6,869.1,1289.7,834.9,1274.3,821.1z"/>
	<g>
		<path opacity="0.35" fill="#E8FFFA" enable-background="new    " d="M930.3,409.1c12.2,8.3,22.3,16.4,36,22
			c-2.9-2.9-7.7-5.9-10.8-8.7c-27.6-13.4-46.2-33.5-66.7-56.6c-24.2-27.3-38.4-62.1-44.6-97.7c-0.3-1.9-3.2-1.1-2.9,0.8
			C850.6,324.7,883.4,377.2,930.3,409.1z"/>
		<path opacity="0.35" fill="#E8FFFA" enable-background="new    " d="M984.2,440.2c1.6,1,3.4-1.3,2-2.6
			c-7.2-6.6-15.1-12.4-22.3-18.9c-7.5-6.7-14.6-13.8-21.5-21.1c-6.7-7.1-13.1-14.4-19.4-21.9c-6.5-7.7-12-16-18.2-23.9
			c-0.8-1-2.3,0.3-1.7,1.3c5,8.5,11.5,16.6,17.5,24.5s12.5,15.4,19.3,22.6c6.7,7.1,13.8,14,21,20.6c7.1,6.4,14.2,13.2,22.2,18.5
			C983.3,439.6,983.8,439.9,984.2,440.2z"/>
		<path opacity="0.35" fill="#E8FFFA" enable-background="new    " d="M1048.3,336.9c4,14.1,7.4,28.3,9.2,42.9
			c1.7,13.6,1.9,27.3,0.9,40.9c-0.8,11-2.7,19.9-6.8,29.9c-0.3,0.4-2.3,4.4-2.3,4.8c-1.2,2.8,12.1-16.3,15.5-22.6
			c8.8-22.7,18.4-37.3,21.1-60.2c1.9-16,5.5-31.5,4.2-47.6c-0.6-7.4-1.6-14.8-3.3-22c-1.7-7.5-4.1-15.6-7.8-22.4
			c-0.2-0.4-0.8-0.1-0.7,0.3c1.5,7.4,3.7,14.6,5,22.1c1.3,7.6,2.3,15.2,2.9,22.9c1.1,14.9,0.6,29.9-1.1,44.6
			c-1.5,13.5-9.9,28.6-14.2,41.6c0.6-4.4,0.9-12.5,1-17c0.4-11.6,0.5-23.2,0.2-34.9c-0.1-5.8-0.9-11.6-0.9-17.4
			c0-2.8,0.5-5.9-2.2-7.4c-0.5-0.3-0.9,0.3-0.7,0.7c2.2,5.1,2,9,1.5,14.5c-0.4,5.2-0.4,10.3-0.6,15.5c-0.2,10.3,0.5,20.6-0.6,30.9
			c-1,10-0.1,17.4-3.6,26.8c-0.2,0.6-2.1,6.9-2.3,7.5c-3,5.4-2.4,6.7-6.5,11.5c1.9-6.5,4.3-9.8,4.9-16.7c1.3-15.1,1.5-30.2-0.4-45.3
			c-1.7-14.5-4.8-28.8-8.7-42.9c-2-7.3-4.2-14.6-6.7-21.8c-2.4-6.8-4.3-14.2-7.7-20.6c-0.4-0.8-1.5-0.2-1.3,0.6c1.1,7.1,4,14,6,20.9
			C1044.3,323.6,1046.4,330.2,1048.3,336.9z"/>
		<path opacity="0.35" fill="#E8FFFA" enable-background="new    " d="M1093.8,400.9c-4,13.1-9,26-16.1,37.7
			c-3.7,6-10.9,18.6-15.6,23.9c2.4-2.8,4.1-4.3,6.3-7.1c3.8-4.8,7.6-10,10.8-15.2c7.3-11.9,13.7-25,17.8-38.3
			c4-13.3,6.9-26.9,8.3-40.7c0.7-7.1,1.1-14.3,1-21.4c-0.1-5.7,0.9-14-2.3-18.9c-0.2-0.3-0.6-0.3-0.8-0.1c-0.3-0.1-0.8,0.1-0.7,0.6
			c0,0.1,0.1,0.2,0.1,0.2c0,0.1,0.1,0.2,0.2,0.2c-0.7,2.5-0.2,5.1-0.1,7.7c0.2,3.4,0.3,6.8,0.3,10.3c0,6.8-0.3,13.7-1,20.5
			C1100.6,373.9,1097.8,387.6,1093.8,400.9z"/>
		<path opacity="0.35" fill="#E8FFFA" enable-background="new    " d="M1151.4,309.5c-0.5-1.2-2.1-0.7-1.9,0.5
			c2.3,15.9,4,31.3,1.6,47.4c-2.3,15.1-7.5,29.6-15.3,42.7c-8.3,14.1-20.1,25.8-31.8,37c-4.1,3.9-8,8-12.1,11.9
			c5.6-3.1,10.6-7.5,13.9-11c11.9-13.2,25.7-26.3,34.6-41C1155.8,371.2,1162.9,338.2,1151.4,309.5z"/>
		<path opacity="0.35" fill="#E8FFFA" enable-background="new    " d="M1122.9,377.6c2.3-6.2,4.5-12.6,5.9-19.1
			c1.4-6.2,1.8-11.9,1.9-18.3c0-0.5-0.7-0.6-0.8-0.1c-4.1,25.2-15.7,48.8-25.5,72.2c-5.6,13.3-12.1,23.8-20.6,33.8
			c-2.4,2.5-4.4,5.8-6.9,8.2c-1.6,1.6-6.2,6.3-7,7.2c3.7-2.7,8.6-8.3,13.3-12.2c0.7-0.8,3.6-3.7,4.3-4.5c0.9-1,7.5-7.5,8.4-8.5
			c6.3-6.6,4.7-5.1,10.8-12c5.6-6.3,10.7-12.9,14.9-20.2c3.6-6.4,9-16,8.3-23.6c0-0.5-0.6-0.6-0.9-0.2c-2.4,3.2-3.4,7.4-5,11.1
			c-1.7,3.7-3.4,7.5-5.4,11c-4.5,7.9-10.1,14.8-16.2,21.4c-0.9,0.9-1.7,1.8-2.6,2.8c2.8-4.7,5.4-9.5,7.7-14.4
			C1113,400.9,1118.5,389.5,1122.9,377.6z"/>
		<path opacity="0.35" fill="#E8FFFA" enable-background="new    " d="M1170.1,397.9c-8.5,6.7-16.7,13.8-24.5,21.3
			c-3.5,3.4-6.7,7.4-10.6,10.3c-3.8,2.9-8.5,4.1-12.3,6.8c-0.7,0.5-0.3,1.7,0.6,1.5c8.7-2.3,15.9-8.4,22.4-14.3
			c8.7-7.9,17-16.4,24.8-25.2C1170.8,398,1170.4,397.6,1170.1,397.9z"/>
		<path opacity="0.35" fill="#E8FFFA" enable-background="new    " d="M1061.9,212.5c1.2,0.6,2.3,1.1,3.4,1.7
			c2.9,2.8,6.5,4.9,9.7,7.3c4.5,3.4,8.6,7.1,12.8,11c3.6,3.3,7.2,6.6,10.5,10.1c3.7,3.8,7,8.5,11.1,11.9c0.5,0.4,1.2-0.1,0.9-0.7
			c-2.3-4.5-6.3-8.5-9.7-12.2c-3.7-4-7.4-8-11.4-11.6c-3.1-2.7-6.3-5.3-9.5-7.9c7,4.2,13.6,8.9,19.8,14.3
			c6.8,5.9,13.4,12.2,18.9,19.4c6.1,7.8,10.7,15.6,15.1,24.4c0.7,1.4,2.8,0.2,2.1-1.2c-8-16.6-20.1-32.7-33.8-44.9
			c-6.8-6-14.2-11.4-22-16c-4.7-2.8-9.6-5.2-14.5-7.5c-4.6-2.2-9.7-4.9-14.7-5.6c-0.4-0.1-0.9,0.5-0.5,0.9
			C1053.4,208.8,1057.8,210.5,1061.9,212.5z"/>
		<path opacity="0.35" fill="#E8FFFA" enable-background="new    " d="M924.1,186c-0.6,0.1-0.4,1,0.1,1.1c6,0.5,12.1,0.2,18.2,0.5
			c6.5,0.4,13,1.5,19.3,2.8c11.9,2.6,23.8,6.3,34.8,11.5s21.2,11.8,31.1,18.8c11.5,8.2,23.2,16.2,34.2,24.9c0.4,0.3,1-0.2,0.6-0.6
			c-20.4-18.1-40.9-36.8-66.1-47.9c-11.4-5-23.1-8.5-35.4-10.4C949.3,184.9,935.8,183.4,924.1,186z"/>
		<path opacity="0.35" fill="#E8FFFA" enable-background="new    " d="M1030.6,254.8c-3.4-5.3-7.8-9.9-12.2-14.2
			c-4.3-4.3-8.4-8.7-13.3-12.5c-10.2-7.9-21.4-14.1-33.3-19.1c-11.7-4.9-23.8-8.1-36.3-9.7c-7.9-1-15.9-1.4-23.8-1.7
			c-7.5-0.3-15.7,2.6-23,5.9c-0.8,0.3-1.7,1.5-1,1.4c8.1-1.9,15.2-3.9,22-3.6c1.6,0.1,3.2,0.1,4.8,0.2c1.7,0.2,3.4,0.4,5,0.7
			c6.9,1.1,13.7,2.9,20.2,5.4c6.1,2.4,12.1,5.1,17.5,9c5.5,4,9.9,8.9,14.7,13.6c0.6,0.6,1.8-0.2,1.3-1
			c-6.7-10.1-18.9-18.5-30.1-23.1c-4.1-1.7-8.3-2.9-12.7-3.9c0.6,0,1.2,0.1,1.8,0.1c12.4,1.1,24.8,4.4,36.4,8.9
			c11.7,4.5,22.7,10.9,32.8,18.3c5.3,3.9,10.9,7.7,15.6,12.3c4.5,4.3,8.4,9.2,12.7,13.7C1030.3,255.7,1030.9,255.2,1030.6,254.8z"/>
		<path opacity="0.35" fill="#E8FFFA" enable-background="new    " d="M1201.2,266.1c-0.5-3-1.3-3.1-3.1-5.8
			c-0.7-1.1-1.1,0.3-0.6,1.4c2.2,5,2.3,10.6,2.7,16c0.4,5.3,0.6,11,0.8,16.3c0.2,4.1-0.6,7.6-0.5,11.8c-1,3.4-1.2,7-2.2,10.4
			c-0.8,3-1.8,5.9-2.8,8.8c-2.1,6.5-4.2,13.1-6.5,19.5c-2.4,6.6-5,13.2-7.8,19.6c-2.8,6.2-6.7,12-9.4,18.2c-0.2,0.5,0.4,1.1,0.8,0.6
			c4.6-4.9,7.7-11.6,10.8-17.6c3.2-6.2,5.8-12.7,8.3-19.2c2.5-6.7,4.9-13.5,7.2-20.3c0.5-1.5,1.1-3.2,1.7-4.8c0,1.4-0.1,2.8-0.1,4.2
			c-0.5,10.8-2.3,21-6.1,31.1c-2,5.3-4,10.7-6.5,15.8c-2.5,5-4.2,10.2-6.6,15.2c-0.3,0.5,0.5,1,0.8,0.5c2.4-4.7,5.4-9,7.5-13.9
			c2.3-5.3,4.8-10.6,6.7-16c3.7-10.4,6.5-21.5,7.3-32.6c0.8-11.5,0.2-23.3-0.5-34.8c-0.4-6-0.8-14.6-1.4-20.5c0-0.2-0.1-0.5-0.1-0.7
			c7.5,12.9,11.9,29,10.9,44.4c-1,16.1-6,31.7-10.5,47c-0.2,0.5,0.6,1,1,0.6c4.9-6.1,6.2-14.3,8.1-21.7c2.1-8.5,4-17.1,4.6-25.9
			s-0.1-17.6-3.3-25.8C1209.6,280.7,1205.5,272.1,1201.2,266.1z"/>
		<path opacity="0.35" fill="#E8FFFA" enable-background="new    " d="M1271.3,425.5c-4.3-16.4-8.6-32.7-12.5-49.1
			c-1.9-8-3.6-16-6.8-23.6c-2.3-5.6-4.7-13.2-8.8-17.8c-0.4-0.4-1.2-0.1-1.2,0.5c0.7,6.6,5.2,13.5,7.7,19.8
			c2.9,7.4,4.5,15.2,6.3,22.9c3.8,16.1,8.6,32.1,13.3,47.9C1269.7,427.3,1271.7,426.8,1271.3,425.5z"/>
		<path opacity="0.35" fill="#E8FFFA" enable-background="new    " d="M1290.5,499.2c0.1,0.5,0.6,0.5,0.8,0.1
			c2.9-7.2,2.5-12.6,3-20.3c0.5-8.1,0.6-16.2,0.3-24.3c-0.7-16.4-3.4-32.7-8.8-48.2c-5.5-15.7-11.8-31.3-18.6-46.6
			c-2.2-4.9-4.4-9.8-6.8-14.7c2.2,3.4,4.3,6.8,6.3,10.3c6.7,11.5,13.8,23.3,18.1,35.9c0.2,0.6,1.2,0.3,0.9-0.3
			c-5-12.4-9.1-24.8-15.7-36.6c-3.3-5.9-6.9-11.6-10.7-17.2c-0.6-0.9-1.2-1.9-1.9-3c4,4.5,7.9,9.2,11.4,14.1
			c7.3,10.1,13.3,21.4,18.9,32.5c3.2,6.5,6.6,13,9,19.8c2.3,6.5,3.4,13.3,4.4,20.1c2.1,14.5,4.4,29.6,3.5,44.3
			c0,0.5,0.7,0.6,0.8,0.1c2.1-6.8,1.4-13.9,0.8-20.8c-0.7-7.7-1.3-15.4-2.1-23.1c-1.6-14.3-6-27.9-12.3-40.9
			c-5.9-12.1-12.6-23.6-20.5-34.5c-7.1-9.9-15.9-20.9-26.5-27.2h-0.1c-0.1-0.1-0.2-0.1-0.3-0.2c-0.3-0.2-0.6,0-0.7,0.3
			c-0.6,0.4-0.8,1.2-0.3,1.8c0.2,0.2,0.4,0.4,0.6,0.6c0.7,2.3,2.3,4.3,3.5,6.5c1.8,3.2,3.5,6.5,5.2,9.8c3.7,7.3,7.2,14.7,10.5,22.3
			c6.6,15.3,13,30.9,18.6,46.5s9.1,31.5,9.7,48.2c0.3,8.1,0,16.2-0.5,24.3C1290.5,486.8,1289.7,491.5,1290.5,499.2z"/>
		<path opacity="0.35" fill="#E8FFFA" enable-background="new    " d="M828.4,98.5c15.4,6.2,26.5,20.1,33.4,34.7
			c6.5,13.8,8.4,29.9,1.8,43.4c-0.1,0.1-0.3,0.2-0.4,0.3c-1.1,0.7-1.4,1.7-1.2,2.6c-0.9,1.5-4,0.9-5.1,2.3c-2,2.4-0.1,2.4,3,1.9
			s4.6-0.4,5.6-2.1c0.3-0.1,0.7-0.3,1-0.6s0.6-0.6,0.9-0.9c0.7,0.4,1.6,0.6,2.3,0.3c2.4-0.9,4.6-2.8,6.7-5c0.7,1.5,2.4,2.4,4,1.3
			c11.9-8.6,17.8-22.4,17.6-36.9c-0.1-7.6-2-15-5.1-21.8c-1.8-4-4.3-7.5-6.8-11.1c-1.9-2.7-3.7-6-6.6-7.6c-0.4-0.2-0.9,0.1-0.7,0.6
			c1,2.9,3.2,5,4.9,7.6c1.8,2.7,3.2,5.7,4.5,8.7c3.1,6.8,5.3,14,5.6,21.5c0.5,11.1-3.6,22.4-11.7,30.1c1.4-2.2,2.6-4.3,3.6-6.1
			c4.5-8,5.4-17.9,4.6-26.9c-0.1-1.4-2-1.4-2.2,0c-0.8,8.3-0.4,15.9-5,23.2c-2,3.2-4.5,6.2-7,9c1.2-3,2.1-6.1,2.7-9.4
			c1.6-8.7,3-19.6-1.3-27.8c-0.7-1.4-2.7-0.2-2.1,1.2c3.5,7.2,2.4,19.2,0.4,26.7c-1.3,4.6-3.3,9.2-6.2,13c2.9-12.1,1-25.4-3.9-36.9
			c-6.9-16.2-19.6-31.7-37-36.5C828,97.1,827.7,98.2,828.4,98.5z"/>
		<path opacity="0.35" fill="#E8FFFA" enable-background="new    " d="M831,186.8c-0.3,0-0.6,0.1-0.8,0.3c-0.1,0.3-0.7,0.6-0.9,0.9
			c-1.3,1.9,0.8,4,2.7,3.6c0.1,0,0.2,0,0.4,0c6.5-1.4,9.9-9.9,12.3-15.3c3-6.6,5.1-13.5,6.1-20.7c1-7.3,0.7-14.8-1.1-22
			c-0.8-3.4-2.1-6.6-3.5-9.8c-0.9-2-1.8-4.1-3-5.9c-1.3-2-2.9-3.3-4.3-5.2c-0.2-0.3-0.8,0-0.6,0.3c1.8,2.9,3.3,7.1,4.6,10.3
			c1.3,3.1,2.1,6.3,2.9,9.5c1.5,6.8,2,13.8,1.2,20.7c-0.8,7.1-3.3,13.4-6.3,19.5c1.1-5.2,1.3-10.3,1.6-15.7c0.1-1.1-1.7-1.1-1.7,0
			c-0.2,7.2-3.4,14.2-6.3,20.6c-1.2,2.6-2.5,5.2-3.7,7.9C831.4,186.5,831.6,186.8,831,186.8z"/>
		<path opacity="0.35" fill="#E8FFFA" enable-background="new    " d="M910.2,141.7c-0.2-6.1-1-12.2-1.6-17.2
			c-0.1-0.6-0.9-0.6-0.9,0c0.2,6.7,0.2,13.6-0.9,20.3c-0.2-6.5-1.5-13-2.8-18.3c-1.6-6.4-4.2-12.7-7.6-18.4
			c-2.4-4.1-6.9-12.2-11.9-13.1c-0.4-0.1-0.7,0.2-0.6,0.6c0.4,2.4,2.1,3.7,3.6,5.6c1.9,2.3,3.5,4.8,5.1,7.4
			c3.3,5.5,5.9,11.2,7.7,17.4c3.5,11.9,3.3,23.6-0.3,37.2c-0.3,1.2-0.8,3-0.8,3s2.1-1.9,3.4-3c8.2-6.9,12.3-17.5,13.7-27.9
			c1-7.8-1.5-17.7-4.5-24.9c-0.1-0.3-0.8-0.4-0.7,0.1c1.1,8.4,3.3,15.6,1.5,24.3C911.9,137.1,911.1,139.4,910.2,141.7z"/>
		<path opacity="0.35" fill="#E8FFFA" enable-background="new    " d="M743,87.7c-6-10.5-12.9-19-17.8-24c1.3,3.2,3.8,6,5.6,9
			c2.3,3.7,4.3,7.5,6.2,11.4c4,8.5,6.5,17.4,9.9,26.1c1,2.6,4.4,2.2,4.9-0.1C750.1,103.5,747.4,95.3,743,87.7z"/>
		<path opacity="0.3" fill="#091426" enable-background="new    " d="M1305.6,875.7c-3-22.7-10.2-41.9-22.9-68.1l-8.5,13.4
			c15.4,13.9,24.4,48,27.3,63.9s3.5,55.1-2.5,69s-7.5,16.6-4.7,15.5s5.6-5.5,9.2-15.8c1.6-4.6,3.5-10.7,5.2-18
			C1308.4,917.4,1307.7,891.2,1305.6,875.7z"/>
		<path opacity="0.3" fill="#091426" enable-background="new    " d="M1268.7,919.7c-1.9-0.4-3.7-1.7-5.1-4.1
			c-2.3-4-5.4-15.9-5.6-30.9c-1.6-12.5-2.8-27.9-2.9-41.6c-1.8,1.9-3.2,3.4-3.3,3.5c0,0-3.5,30.1,1.9,49.7
			c5.4,19.6,6.3,24.3,12.9,25.9c1.3,0.3,2.7,0.5,4,0.6C1270,921.9,1269.4,920.8,1268.7,919.7z"/>
		<path fill="none" d="M611.8,521.8c-14.9-0.1-30-3.6-43.7-9.5c-12.5-5.4-24.6-13.2-33.1-24.1c-6.4-8.3-11.5-19.3-13.1-30.3
			c-2,7.5-3.9,15.8-5,24.2c-0.1,0.8-0.2,1.7-0.3,2.5c1.2,3,2.4,6,3.7,8.8c2.9,6.2,6.3,12.3,10.9,17.5c9.4,10.6,23,16,36.3,19.9
			c8.3,2.4,16.7,4,25.2,4.1c6.7-1,13.2-2.4,19.7-4.2c7.7-2.1,14.6-5.6,20.5-10.7c-1.4,0-2.7-0.1-4-0.2
			C623.3,521.3,617.4,521.8,611.8,521.8z"/>
		<path fill="none" d="M621.3,808.3c-0.6,2.3-1,5.7-1.3,10.3c-0.4,7,2,17.6,4.4,29.9c-0.3-3.9-0.5-7.8-0.9-11.6
			C622.6,827.3,621.9,817.8,621.3,808.3z"/>
		<path fill="none" d="M567.6,509.5c13.3,5.9,28,9.5,42.6,9.5c1.8,0,3.7-0.1,5.4-0.2c-11.5-1.6-21.3-4.7-31.4-9.8
			c-20.7-10.5-31.1-26.2-42-47s-10-33.8-10-33.8s-4.8,10.8-9.2,26c2.1,12,5.7,22.8,13.8,32.7C545,497,555.9,504.3,567.6,509.5z"/>
		<path fill="none" d="M635.2,804c6.1,16.9,13.9,45.4,19.4,71.5c-0.2-1.6-0.3-3.1-0.5-4.7c-3.9-36-15.9-70.9-25.8-105.6
			c-4.8-16.7-9.6-33.3-13.3-50.3c-1.2-5.5-2.4-11.1-3.4-16.7c0.7,5.2,1.4,10.3,2.3,15.5c1.1,6.6,2.4,13.1,3.8,19.6
			c1.3,5.9,3.4,11.9,4,18c0.1,1.2-1.8,1.7-2.2,0.6c-2.6-5.8-3.6-12.5-5-18.7c-1.4-6.5-2.7-13.1-3.8-19.6c-1-6.1-1.9-12.2-2.6-18.3
			c-0.2-1.8-0.5-3.6-0.7-5.4c0.2,7.8,0.8,17,2.2,27.2C614.9,753.8,626.8,780.6,635.2,804z"/>
		<path fill="none" d="M849.8,340.3c-20.9-30.4-30.1-58.1-37.5-70.3c-1.9-3.2-3.9-5.5-5.8-7c5.3,18.5,11.7,36.7,20,54.1
			c16.8,35.2,38.9,68.4,71.8,90.3c14.4,9.6,29.6,17.8,45.3,24.9c-3.6-2.3-7.3-4.9-11-7.7C911.5,408.4,870.7,370.6,849.8,340.3z"/>
		<path fill="none" d="M1071.6,441.7c-0.1,0.3-0.2,0.5-0.3,0.8c0.5-0.9,1.1-1.9,1.6-2.8C1072.5,440.3,1072.1,441,1071.6,441.7z"/>
		<path fill="none" d="M632.9,355.6c-2.2-1-4.2-2.1-5.9-3.1c-6.9-4.1-12.1-9.1-18.2-10.1c3.4,4.1,6.8,8.2,10.5,12
			c6,6.1,12.3,11.9,19,17.2c14.5,11.5,30.7,21.1,47.5,29c16.9,7.9,34.3,14.2,52.6,18.2c15.6,3.4,30.8,4.1,46.3,3.3
			c-0.3-0.3-0.7-0.6-1-0.9c-29.6-11.4-61.9-13.7-91.4-25.5C669.7,386.6,649.7,372.8,632.9,355.6z"/>
		<path fill="none" d="M970,395.5c3.5,5.1,6,11.1,9.3,16.4s6.9,10.5,10.7,15.5c4,5.4,8.4,10.5,12.9,15.5c0.8,0.9,1.7,1.8,2.6,2.7
			c-8.7-13.5-16.7-27.4-24.5-41.3c-20.1-35.8-38.1-72.8-59.7-107.7c-10.9-17.6-22.7-34.7-36-50.6c-7.3-8.8-15-17.6-24.4-24.3
			c-4.4-3.1-9-5.5-13.8-7.8c-10-2.9-20.5-5.3-30.6-6.7c-27.8-3.8-45.2,6.2-45.2,6.2c24.3,4.3,50,28.5,59.9,53.7s19.2,59.4,30.1,74.3
			c10.9,14.9,47.4,52.8,75.5,75.5c15.8,12.7,33.1,23.2,45.2,29.9c3.3,1,6.6,2,9.8,2.9c-15.4-9.5-29.6-21.3-42.7-33.4
			c-10.5-9.8-20.4-20.3-29.8-31.2c-8.6-10-18.7-20.5-25-32.1c-0.1-0.1,0.1-0.3,0.2-0.2c5.3,5,9.6,11.3,14.2,16.9
			c4.3,5.2,8.7,10.4,13.2,15.4c9,10,18.4,19.7,28.4,28.8c16,14.6,33.4,26.5,52.1,36.9l0.8-0.8c-10.9-8.3-20.9-18.3-30.3-27.9
			c-11.9-12.2-23.1-25.1-33.7-38.5c-10.5-13.3-20.4-27.1-30.1-41.1c-4.9-7-9.7-14.1-14.5-21.3c-5-7.4-10.6-14.7-14.7-22.6
			c-0.3-0.5,0.5-1.2,0.9-0.7c10.4,13.5,19.4,28.2,29.1,42.2c10,14.2,20.3,28.2,31.1,41.8c10.4,13.1,21.5,25.8,33.3,37.7
			c6,6,12.3,11.5,18.8,16.8c-1.7-2.4-3.3-4.7-4.8-7c-3.7-5.4-7.1-11-10.4-16.7c-3-5.4-6.7-11-8.5-16.9
			C969.5,395.4,969.8,395.3,970,395.5z"/>
		<path fill="none" d="M582,358.9c-5,5.3-10.1,11.2-14.7,17.1c0.4,5,1,10.1,2.1,15.1c1.8,8.2,4.8,16.1,8.5,23.6
			c6.9,13.8,16.8,26.5,29.5,35.5c12.1,8.6,27.2,13.4,41.7,16.1c15.4,2.9,31.6,3.1,47,0.3c7.3-1.3,14.5-3.2,21.5-5.8
			c-16.1,3.2-33,4.4-49.1,2.1c-9.7-1.4-19.2-4.3-28-8.5c-8.1-3.9-17.4-9.1-23.3-16.1c-0.2-0.2,0.1-0.6,0.3-0.4
			c8.1,5.1,15.1,10.9,23.9,14.8c8.9,4,18.5,6.7,28.2,7.8c15.2,1.8,30.8,0.3,46-2.6c-12.2,0-24.4-0.6-36.4-3
			c-17.5-3.5-34.5-11.4-49.6-20.7c-13.7-8.5-26.4-19.5-35.1-33.2C587,389.4,580.7,373.5,582,358.9z"/>
		<path fill="none" d="M725.4,381.9c-8.4-4.5-17-8.5-25.8-12.2c-4.8-0.7-10.3-1.3-16.1-1.4c-14.8-0.3-34.5-5.6-47.9-11.4
			c17.7,16.9,38.8,30.5,61.8,38.8c25.1,9.1,51.9,11.5,77.3,19c-6.9-4.8-13.4-10.3-20.3-15.2C745.2,392.9,735.4,387.2,725.4,381.9z"
			/>
		<path fill="none" d="M678.5,471.7c-29.1,1-62.7-6.7-83.5-28.3c-10.1-10.5-18-23.1-23-36.8c-3.2-8.8-5.8-18.6-6.5-28.3
			c-7.6,9.8-13.7,19.3-16,24.7c-4.8,11.4-7.1,12.9-3.8,32.5s18.8,62.1,60.5,66c32.2,3,63.2-3.5,94.1-24.4c-2.3,0.9-4.7,1.7-7.1,2.4
			c-10.4,3.1-21.1,5.8-31.9,7.2c-10.9,1.4-22.2,0.9-32.9-2c-9.4-2.6-20-6.7-27.4-13.2c-0.3-0.3,0.1-0.7,0.4-0.5
			c9.4,4.8,17.9,9.7,28.4,11.9c10.4,2.2,20.8,2.5,31.3,1c17.9-2.4,38.5-7.2,53.4-18.1c-3.6,1.1-7.3,2.1-11.1,2.9
			C695.4,470.3,686.9,471.4,678.5,471.7z"/>
		<path fill="none" d="M998.1,455l0.2-0.2c-0.3-0.1-0.7-0.2-1-0.3C997.8,454.8,998.1,455,998.1,455z"/>
		<path fill="none" d="M622.3,805.9c1,10,2.1,20,3.1,30c0.1,1.3,0.3,2.7,0.5,4.1c-0.6-11.2-0.8-22.5,0-33.6
			C624.4,804.6,623.2,804.5,622.3,805.9z"/>
		<path fill="none" d="M1245.7,381.3c-0.2-4-0.6-8-1.3-12c-1.8-9.9-5.5-18.5-10.2-27c-1.1,5-1.8,10.1-1.8,15
			c5.9,7.1,10.5,14.9,13.3,23.8C1245.7,381.2,1245.7,381.3,1245.7,381.3z"/>
		<path fill="none" d="M1046.1,471.5L1046.1,471.5c0.5-0.8,1-1.5,1.5-2.3l0,0C1047.1,470,1046.6,470.7,1046.1,471.5z"/>
		<path fill="none" d="M1170.9,367.2c8-15,16.2-30.4,20.4-47c2.2-8.6,3.5-17.5,4.1-26.3c0.3-4.9,0-9.9-0.1-14.8
			c-2,14-5.2,31.1-10.3,46.9c-9.8,30.6-17.7,49-36,76C1157.3,391.2,1164.4,379.3,1170.9,367.2z"/>
		<path opacity="0.3" fill="#091426" enable-background="new    " d="M1013,450.5c-20.9-31.4-39-64.5-57.1-97.7
			c-19.9-36.4-40.3-72.9-66.5-105.3c-8.1-10-16.9-19.6-27.1-27.4c6.2,3.3,12.4,6.7,18.3,10.5c9.2,5.9,17.6,12.8,25.8,20
			c8,7,16.1,14,23.9,21.3c8.3,7.7,15.8,16.1,24,23.9c0.9,0.9,2.1-0.4,1.4-1.4c-6.8-8.8-15.6-16.5-23.7-24.1
			c-8.5-7.9-17.2-15.6-25.9-23.2c-10-8.8-20.7-17-32.3-23.6c6.7,2.9,12.8,5.9,17.8,8.9c17.7,10.4,51.5,34.9,63.5,46.3
			c11.9,11.4,29.8,27.4,29.8,27.4s-19.5-25.2-50.1-47.5s-52.6-33.6-56.8-42c-1-1.9-1.6-3.5-2-5c0.1-0.1,0.2-0.1,0.3-0.2
			c1-0.7,2-1.4,3-2.1c24.8-1.4,49.1,9.6,70.1,22.1c11.3,6.7,20.6,15.8,29.4,25.5c9.2,10.1,17.9,21,26.5,31.6
			c0.4,0.6,1.2-0.2,0.8-0.8c-17.7-21.8-33.6-45.9-58.8-59.7c-12.2-6.7-25.1-12.9-38.5-16.7c-9.4-2.7-18.5-3.6-27.8-3.2
			c3.9-2.8,7.9-5.6,12.6-7.3c6.5-2.3,13.6-3.2,20.4-4c7.3-0.9,14.7-1.4,22.1-0.9c28.7,1.9,54.6,16.5,77.3,33.2
			c0.7,0.5,1.4-0.7,0.7-1.2c-21.8-16.3-45.5-31-73.1-34.5c-13.2-1.7-26.9-0.1-39.9,2.3c-5.7,1-11.4,2.6-16.4,5.6
			c-1,0.6-4.7,3.6-8.4,6.3c0.1-0.3,0.3-0.7,0.5-1c0.3,0.1,0.6,0,0.9-0.2c6.6-5.2,13.2-10,21.2-13.1c8.4-3.2,17.3-4.6,26.3-4.9
			c18-0.5,36.2,3.3,52.8,10c15,6,29,14.5,42,24c6.8,4.9,13.3,10.2,19.8,15.5c5.9,4.8,11.7,10.5,18.1,14.7c0.8,0.5,1.6-0.6,1-1.3
			c-5.7-6.8-13.2-12.7-20-18.4c-6.2-5.2-12.6-10.2-19.2-14.9c-14.1-10-29.2-18.7-45.5-24.7c-9.1-3.3-18.7-5.8-28.5-7.2
			c13.3,0.8,26.5,3,39.6,7.3c22.6,7.5,44.6,20,61.7,36.7c0.6,0.6,1.5-0.3,0.9-0.9c-17.5-17.2-37.5-30.8-60.9-38.7
			c-6.1-2.1-12.5-3.8-18.9-5.2c-14.2-2.1-30.8-2.5-48.8,0.8c0,0,13.1-15,10.2-41.7c-1.2-11-4.4-22.3-11.2-32.4
			c1,5.4,1.5,11.6,1,18.2c-1.2,15.8-10.4,27.6-20.2,35.9c0.2-0.8,0.4-1.6,0.6-2.3c1.4-5.6,2.1-11.3,2.3-17c0.2-5.6-0.4-11.4-1.5-17
			c-0.9-4.7-2-11.9-5.7-15.2c-0.4-0.3-1-0.1-1,0.4c0,4.5,3,9.4,4,13.9c1.3,5.7,1.6,11.3,1.2,17.1c-0.4,5.4-1.5,10.8-3.4,15.9
			c-1.4,3.9-3.7,7.4-5.6,11c-0.6,0.4-1.1,0.8-1.7,1.1c-7.9,5.1-25.2,10.4-43.4,14.7c0.7-1.8,1.4-3.5,2-5.1
			c2.9-7.5,5.4-15.3,7.1-23.2c3.3-15.1-0.3-31.1-8.6-44c-0.4-0.7-1.6-0.3-1.4,0.6c2,6.9,5.2,13.4,6.8,20.4c2,8.2,1.5,15.8-1,23.8
			c-2.1,6.6-4.6,13.1-7.3,19.5c-1.3,3.1-2.7,6.2-4.3,9.2c-0.1,0.2-0.2,0.3-0.3,0.5c-4.7,1-9.3,2-13.8,2.8c3.6-7.4,5.4-15.7,6.1-24
			c0.9-12.1,2.9-27.2-3.2-38.2c-0.2-0.4-0.8-0.1-0.6,0.4c2.5,5.8,2.5,12.2,2.4,18.5c-0.1,6.1-0.2,12.3-1.1,18.3
			c-1.2,9.1-3.7,18.1-8.3,26c-2.1,0.4-4.2,0.7-6.3,1.1c-13,2.1-26.6,3.5-38.7,5.9c0.4-0.5,0.7-1,1-1.5c5.3-7.9,8.8-17.1,10.4-26.4
			c1.7-9.7,1.2-19.7-0.8-29.2c-1.3-6.2-3.8-15.7-10.8-17.6c-0.4-0.1-0.6,0.4-0.4,0.6c5.9,5.9,8.1,12,9.3,20.3
			c1.4,9.5,1.1,19.2-1.1,28.6c-1.8,7.6-5,14.8-9.4,21.2c-1.3,1.9-2.7,3.6-4.2,5.3c-6.4,1.5-12.3,3.5-17.1,6.1
			c16.8,11.6,28.7,20.5,31.9,24c3.5,3.9,6.5,15.1,4.8,45.5c-1.8,30.4-5.5,37.8-5.5,37.8s-2.1,0.1-6.2,4.7c0.1,5.2,1.7,15.2,7.7,34.9
			c4.1,13.3,13.7,27.6,25.1,40.9c2,3.6,4.3,7,6.8,10.3c2.3,2.9,4.8,5.6,7.5,8.2c-13.7-7.5-25-19-33.2-32.6
			c-10.6-17.6-15.2-37.3-17.3-57.4c-0.3,0.4-0.6,0.8-0.8,1.2c3.5,39.6,21.7,80.9,60.1,96.5c2.2,1.8,4.4,3.6,6.5,5.4
			c5.6,4.6,11.5,9.3,17.7,13.2c-25-7.1-49.6-21.5-64.2-43.1c-14-20.7-20.9-44.5-21.3-69.3c0-0.4,0.1-0.7,0.1-1.1
			c-1,1.5-2.1,3.2-3.2,5.1c-9.7,16.5-15.3,44.9-4.6,65.4c2.7,4.1,5.5,7.9,8.3,11.3c-5.6-3.7-11-7.7-16.6-11.4
			c-9.9-6.6-20-12.8-30.6-18.3c-5.8-3-11.7-5.8-17.7-8.4c6.3,1.3,10.3,2.6,10.3,2.6c-0.9-0.4-1.8-0.7-2.7-1.1
			c-28.9-11.5-45.8-10-66.5-19s-24-24.2-25.2-38.5s14.3-42.4,14.3-42.4s-3.5-2.5-33.3,24.4s-41.9,53.1-52.5,68.5s-41,65.1-57.8,91.2
			s-23.6,42.5-28.2,58s-4,46.8,3.5,75s18.2,50.6,35.8,84.8s29.1,49.5,50.5,70.8s54.4,50.7,54.4,50.7s8.2,8.8,11.3,51.6
			s6.8,55.8,1,75.5s-13.9,21.1-17.8,22s-4.8,4.5,3.2,3.4s16.9-4.2,23-35.9c0.4-1.9,0.7-3.8,1-5.8c0.7-11.7,0.2-23.4-0.4-35.1
			c-1.2-20.9-2.9-41.6-3.3-62.5c0.9,1.7,2,4.2,3.2,7.7c-0.4-3.4-0.8-6.7-1.3-9.9c0,0,11.1,26.6,17.4,57c6.3,30.4,11.8,55,8.3,89
			s-10.9,52.1-14.5,59s-5,11-5,11c3.3,1.8,11.2,2.5,22.7-45.8c2.5-25.3,3.6-53.9,1.3-72.2c0-8.1-0.4-16.2-1.5-24.2
			c-2.3-17.8-5.6-35.4-9.9-52.8c-8.5-34.5-20.4-68.1-28.7-102.7c-2.8-12-4.9-23.9-6.6-35.9c1.7,7.7,3.9,15.2,6.5,22.7
			c3.1,8.9,6.9,17.6,10.5,26.4c3.5,8.5,6.3,17.9,10.9,25.9c0.5,0.9,1.9,0.3,1.6-0.7c-2.4-9.1-7.1-18-10.7-26.7
			c-3.3-8.2-6.8-16.3-9.8-24.6c-2.9-8.3-5.3-16.7-7.2-25.3c-0.9-4.3-1.8-8.6-2.6-12.9c-0.8-4.9-0.7-10.1-2.2-14.8
			c-0.1-0.4-0.8-0.5-0.9,0c-0.2,1.2-0.3,2.5-0.3,3.7c-0.1,0-0.2,0-0.3,0c0.5-3.4,0.9-5.2,0.9-5.2s-4.1,11.8-15.3,12.3
			S555.6,667,537,655c-0.9-0.6-1.9-1.2-2.8-1.9c11.7,4.9,24.1,7.9,36.5,9.1c10.8,1,20.6-1.6,29.4-8c3.9-2.8,8.4-6.4,12.2-10.5
			c-0.2-1.6-0.3-2.5-0.3-2.5s0.2-0.9,0.4-2.8c-0.6,0.7-1.2,1.4-1.8,2.1c-3.6,4.1-7.5,8-11.9,11.2c-9.3,6.7-19.5,8.8-30.8,7.6
			c-14.7-1.5-28.5-6.2-41.5-12.7c-8.6-8-16.6-18.7-22.9-31.5c2.4,2.6,4.8,5.1,7.3,7.4c10.1,9.4,22.3,16.7,35.5,20.7
			c14.1,4.3,29.3,4.5,43.2-0.2c7.6-2.6,16.7-7.2,23.3-13.4c0-1.5,0-3.2,0-5.1c-2.6,2.9-5.2,5.7-8.5,8c-4.9,3.5-10.4,6.2-16.2,8
			c-13.8,4.4-29,3.4-42.7-0.7c-12.6-3.8-24-10.4-33.6-19.4c-4.9-4.6-8.9-9.6-12.4-14.9c-2.4-6-4.4-12.4-5.9-19.2
			c-1.2-5.3-2.3-10.8-3.2-16.1c3.3,7.5,7.6,14.5,12.7,20.7c5.4,6.6,11.8,12.4,18.1,18.2c3.2,2.9,6.5,5.8,9.7,8.7
			c2.9,2.6,5.6,5.7,9.2,7.1c0.6,0.3,1.2-0.6,0.8-1.1c-1.9-3.2-5.3-5.4-8.2-7.9c-3.3-2.8-6.6-5.7-9.8-8.6
			c-5.8-5.1-11.5-10.3-16.6-16.1c-5.5-6.2-10.1-12.8-13.6-20.4c-1.6-3.4-2.8-7-4-10.5c-1-6.9-1.8-13.4-2.4-19.1
			c1,4.1,2.2,8.1,4,11.9c4.6,10.1,11.4,19.4,19.5,26.9c16.6,15.5,38.7,23.4,61.3,19.2c1.8-0.3,1-3.1-0.8-2.8
			c-22.6,3.5-45.6-5.1-61.5-21.2c-7.1-7.2-13.1-15.6-17.2-24.8c-3.6-8-3.5-18-6.8-26.2c-0.1-1.1-0.1-2.1-0.2-2.8
			c4.4,8.9,9.9,17.4,15.8,25c8.3,10.8,17.9,21.2,30.3,27.2c23.5,11.4,51.4,9.4,74.7-1.8c-0.5-2.1-1.1-4.1-1.6-6
			c-10.1,4.7-20.5,8.8-31.8,10c-13.3,1.4-29.1-1.6-41.1-7.5c-9.8-4.8-17.9-12.8-24.9-21.2c11,6.8,37.4,21.1,62.2,19.6
			c15-0.9,26.1-4.8,33.1-8.2c-2.8-7.7-5-11-5.3-11.4c-15.4,5.9-39.5,9.6-55.8-0.6c-15.4-9.7-25.2-32.5-23.8-57.9
			c1.1,2.4,2.3,4.8,3.3,7.1c2.9,6.1,6.3,12.1,10.6,17.3c9.3,11,24,16.4,37.5,20.3c3.9,1.1,7.9,2.1,11.9,2.8h-0.1
			c-0.4,0-0.4,0.6,0,0.5c1,0,2-0.1,3-0.1c9.7,1.4,19.5,1.4,29-0.9c10.7-2.7,19.2-8.7,27.3-15.6c1.9,0,3.9,0,6,0
			c5.9-6.2,6.5-10.2,6.5-10.2s20.5,0.7,50.7-23.7c27.8-22.4,31.3-31.5,31.6-32.8l-5.6,1c0,0-0.1,0-0.1,0.1
			c-14.8,0.5-29.6,0.6-44.2-1.8c-17.4-2.9-33.9-9.8-49.1-18.6c-14.1-8.2-27.3-18.5-36.8-31.9c-4.8-6.8-8.7-14-11.2-21.9
			c-2.4-7.6-3-14.9-3.4-22.7c3-3.1,6-6,8.8-8.4c5.4-4.6,9.7-6.6,13.6-6.9c6.6,8.7,15,16.5,22.8,23.5c10.6,9.5,22,18,34.3,25.2
			c25.6,15.2,54.1,27.6,83.6,32.6c13.8,2.3,28.4,3.4,42.5,1.8c9.7,7.6,20.2,12.9,31.5,17.1c6.7,1.1,14.9,2,24.1,2.1
			c-11.1-3.8-23.8-9.9-35.2-17.9c-14.9-10.5-34.6-40.2-38.7-55.8c-2-7.8-1.4-21.6-0.2-33.5c1.3,22.2,8.9,44.4,21.6,62.4
			c16,22.8,41.8,36.8,68.2,44.2c4.1-0.4,8.2-0.9,12.5-1.6c-5.7-2.3-30-13.5-49.2-40.4c-16.9-23.7-26-46.6-31-65.9
			c1.6,4.8,3.5,9.5,5.4,14.1c11.1,26.3,28.4,49.4,49.8,68.2c11.4,9.9,24.9,20.3,39.3,25.3c0.7,0.2,1.1-0.8,0.5-1.1
			c-12.2-7.2-24.2-13.3-35.2-22.4c-10.8-8.9-20.2-19.2-28.4-30.5c-7.9-10.8-14.7-22.3-20.3-34.4c-6.3-13.8-12.1-28.7-13.7-43.9
			c-1-9.8-0.1-19.7,1.7-29.3c1.1-6.1,3.3-12.3,4.6-18.5c1.2-1.5,2.8-2.5,4.5-2.7c-8.4,22.8-5.1,49.8,0.5,72.7
			c2.8,11.6,6.8,23,12.1,33.8c4.9,10,11.3,21.3,20.3,28.1c0.4,0.3,0.9-0.3,0.7-0.7c-6.2-9.5-13.4-17.8-18.5-27.9
			c-5.3-10.5-9.1-21.7-12-33.1c-3-12-5.2-24.2-5.8-36.6c-0.7-12.4,1-24.3,4-36.2c0.8,0.1,1.7,0.4,2.6,0.8
			c9.2,35.9,25.4,71,46.5,101.2c10.7,15.3,23.1,29.3,37.9,40.8c16,12.4,34.1,22.4,52.4,30.9c9.2,4.3,18.6,8.1,28.2,11.5
			c3.5,1.5,5.6,2.3,5.6,2.3s28.7,13.2,53,18.3L1013,450.5z M620.1,818.5c0.2-4.6,0.7-8,1.3-10.3c0.6,9.5,1.2,19,2.2,28.6
			c0.4,3.8,0.6,7.7,0.9,11.6C622.1,836.1,619.7,825.6,620.1,818.5z M625.8,839.9c-0.2-1.4-0.3-2.7-0.5-4.1c-1-10-2.1-20-3.1-30
			c0.9-1.4,2.1-1.3,3.6,0.4C625,817.4,625.3,828.7,625.8,839.9z M608.2,695.2c0.7,6.1,1.6,12.2,2.6,18.3c1.1,6.6,2.3,13.1,3.8,19.6
			c1.3,6.2,2.3,12.9,5,18.7c0.5,1.1,2.4,0.6,2.2-0.6c-0.6-6-2.7-12.1-4-18c-1.4-6.5-2.7-13.1-3.8-19.6c-0.9-5.1-1.6-10.3-2.3-15.5
			c1,5.6,2.2,11.2,3.4,16.7c3.7,17,8.6,33.6,13.3,50.3c9.9,34.7,21.9,69.6,25.8,105.6c0.2,1.6,0.3,3.1,0.5,4.7
			c-5.5-26.1-13.3-54.6-19.4-71.5c-8.5-23.4-20.4-50.3-25.5-87c-1.4-10.3-2.1-19.4-2.2-27.2C607.8,691.6,608,693.4,608.2,695.2z
			 M532.2,428.2c0,0-0.9,13,10,33.8s21.2,36.5,42,47c10.1,5.1,19.9,8.2,31.4,9.8c-1.8,0.1-3.6,0.2-5.4,0.2
			c-14.6,0-29.3-3.6-42.6-9.5c-11.8-5.2-22.7-12.6-30.8-22.6c-8.1-9.9-11.7-20.7-13.8-32.7C527.4,439,532.2,428.2,532.2,428.2z
			 M612.5,530.9c-6.5,1.8-13.1,3.2-19.7,4.2c-8.5-0.1-17-1.6-25.2-4.1c-13.3-3.9-26.9-9.3-36.3-19.9c-4.6-5.2-7.9-11.3-10.9-17.5
			c-1.4-2.9-2.5-5.9-3.7-8.8c0.1-0.8,0.2-1.7,0.3-2.5c1.1-8.5,2.9-16.8,5-24.2c1.5,10.9,6.6,22,13.1,30.3
			c8.4,10.9,20.5,18.7,33.1,24.1c13.7,5.9,28.8,9.4,43.7,9.5c5.6,0,11.5-0.5,17.2-1.8c1.3,0.1,2.6,0.1,4,0.2
			C627.1,525.3,620.2,528.8,612.5,530.9z M661.3,483.9c-10.5,1.4-20.9,1.2-31.3-1c-10.5-2.2-19-7.1-28.4-11.9
			c-0.3-0.2-0.7,0.3-0.4,0.5c7.4,6.5,18,10.7,27.4,13.2c10.7,2.9,21.9,3.4,32.9,2c10.8-1.4,21.5-4,31.9-7.2c2.4-0.7,4.7-1.5,7.1-2.4
			c-30.9,20.9-61.9,27.4-94.1,24.4c-41.8-3.9-57.1-46.4-60.5-66s-1-21.1,3.8-32.5c2.3-5.5,8.4-14.9,16-24.7
			c0.7,9.7,3.3,19.5,6.5,28.3c5,13.7,12.9,26.3,23,36.8c20.8,21.6,54.4,29.3,83.5,28.3c8.4-0.3,16.9-1.3,25.1-3.1
			c3.7-0.8,7.4-1.7,11.1-2.9C699.8,476.7,679.2,481.5,661.3,483.9z M594.6,401.2c8.7,13.7,21.4,24.7,35.1,33.2
			c15.1,9.4,32.1,17.2,49.6,20.7c12,2.4,24.2,3,36.4,3c-15.1,2.9-30.8,4.4-46,2.6c-9.7-1.2-19.3-3.8-28.2-7.8
			c-8.8-4-15.9-9.7-23.9-14.8c-0.3-0.2-0.5,0.2-0.3,0.4c5.8,7,15.2,12.2,23.3,16.1c8.9,4.2,18.3,7.1,28,8.5
			c16,2.2,32.9,1.1,49.1-2.1c-7,2.5-14.2,4.5-21.5,5.8c-15.5,2.8-31.6,2.6-47-0.3c-14.5-2.7-29.5-7.5-41.7-16.1
			c-12.7-9-22.5-21.7-29.5-35.5c-3.7-7.5-6.7-15.4-8.5-23.6c-1.1-5-1.7-10-2.1-15.1c4.6-5.9,9.7-11.9,14.7-17.1
			C580.7,373.5,587,389.4,594.6,401.2z M784.7,422c-15.6,0.8-30.8,0.1-46.3-3.3c-18.3-3.9-35.6-10.2-52.6-18.2
			c-16.8-7.9-32.9-17.5-47.5-29c-6.7-5.3-13-11.1-19-17.2c-3.7-3.8-7.1-7.9-10.5-12c6.1,0.9,11.3,5.9,18.2,10.1
			c1.7,1,3.7,2.1,5.9,3.1c16.8,17.2,36.8,31,59.4,40c29.5,11.8,61.8,14.1,91.4,25.5C784,421.4,784.4,421.7,784.7,422z M697.3,395.6
			c-23-8.3-44-21.9-61.8-38.8c13.4,5.8,33.1,11.2,47.9,11.4c5.8,0.1,11.3,0.7,16.1,1.4c8.8,3.7,17.4,7.8,25.8,12.2
			c10,5.3,19.8,11.1,29,17.6c6.9,4.9,13.4,10.3,20.3,15.2C749.2,407.1,722.4,404.7,697.3,395.6z M898.4,407.4
			c-33-21.9-55-55.1-71.8-90.3c-8.3-17.5-14.7-35.6-20-54.1c1.9,1.5,3.8,3.7,5.8,7c7.4,12.2,16.6,40,37.5,70.3
			c20.9,30.4,61.6,68.1,82.9,84.3c3.7,2.8,7.4,5.4,11,7.7C928,425.3,912.8,417,898.4,407.4z M998.1,455c0,0-0.3-0.1-0.9-0.4
			c0.3,0.1,0.7,0.2,1,0.3L998.1,455z M978,412.6c3.2,5.7,6.7,11.3,10.4,16.7c1.6,2.3,3.2,4.6,4.8,7c-6.4-5.3-12.8-10.8-18.8-16.8
			c-11.9-11.9-22.9-24.5-33.3-37.7C930.3,368.2,920,354.2,910,340c-9.8-13.9-18.7-28.7-29.1-42.2c-0.4-0.5-1.2,0.1-0.9,0.7
			c4.2,7.9,9.8,15.2,14.7,22.6c4.8,7.1,9.6,14.2,14.5,21.3c9.7,13.9,19.6,27.8,30.1,41.1c10.6,13.4,21.7,26.3,33.7,38.5
			c9.4,9.6,19.4,19.6,30.3,27.9l-0.8,0.8c-18.7-10.4-36.1-22.4-52.1-36.9c-10-9.1-19.3-18.8-28.4-28.8c-4.5-5-8.9-10.2-13.2-15.4
			c-4.6-5.6-9-11.9-14.2-16.9c-0.1-0.1-0.3,0-0.2,0.2c6.4,11.7,16.5,22.1,25,32.1c9.4,10.9,19.2,21.4,29.8,31.2
			c13,12.1,27.3,23.9,42.7,33.4c-3.3-0.9-6.6-1.9-9.8-2.9c-12.2-6.7-29.5-17.2-45.2-29.9c-28.2-22.7-64.6-60.6-75.5-75.5
			s-20.1-49.2-30.1-74.3s-35.7-49.4-59.9-53.7c0,0,17.4-10,45.2-6.2c10.2,1.4,20.6,3.7,30.6,6.7c4.7,2.3,9.4,4.7,13.8,7.8
			c9.4,6.7,17.1,15.4,24.4,24.3c13.3,15.9,25.1,33,36,50.6c21.6,34.9,39.6,71.9,59.7,107.7c7.8,13.9,15.8,27.9,24.5,41.3
			c-0.9-0.9-1.7-1.8-2.6-2.7c-4.5-5-8.9-10.1-12.9-15.5c-3.8-5-7.4-10.2-10.7-15.5s-5.8-11.3-9.3-16.4c-0.2-0.2-0.5-0.1-0.5,0.2
			C971.3,401.6,975,407.2,978,412.6z"/>
		<path opacity="0.3" fill="#091426" enable-background="new    " d="M656.5,245.9c0,0,23.8-25.2,38.1-34.5c-1.9-4.2-4-8.2-5.2-12.8
			c-1.4-5.4-1.8-11-1.6-16.6c0.4-11.9,5.2-22.3,12.3-31.6c0.5-0.6-0.6-1.4-1.1-0.8c-14.7,15.5-19.8,44.6-8.2,63.5
			c-0.7-0.3-1.4-0.6-2-0.9c-4.6-7.6-7.9-15.6-8.9-24.8c-1.2-11.2,0.9-23,6.2-32.9c5.2-9.8,13.4-18.1,23-23.5
			c10.4-5.9,21.1-7.8,32.9-7.8c0.7,0,1-1.2,0.2-1.4c-23-3.2-48,11.2-58.7,31.2c-8.1,15.1-9.4,35.4-3,52.1
			c-7.3-10.3-8.6-28.6-2.9-48.8c5.5-19.6,23.7-32.6,39.8-38.4c-7.8-0.1-17,0.7-27.3,3.2c-32.8,7.8-51.5,30.4-56.9,52.7
			C621.1,222.8,644.1,237,656.5,245.9z"/>
		<path opacity="0.3" fill="#091426" enable-background="new    " d="M754.5,123.5c0,0.2,0,0.3,0,0.3s-11.3,11.9-16.6,18.2
			c-5.3,6.2-20.4,20.2-20.4,20.2s12-1,43.8-30.1s43.9-53.2,80.2-50.1c0,0,4.1-4.4-11.4-4.4C798.8,81.1,774.1,99.1,754.5,123.5z"/>
		<path opacity="0.3" fill="#091426" enable-background="new    " d="M1086.4,272.5c20.2,37.4,24.4,85.4,21.8,103.8
			c-2.4,16.9-26.8,66-46.2,86.5c9.7-13,17.9-27.1,24-42.1c2.4-6,4.4-12,6-18.2c1.5-5,2.6-10.2,3.2-15.5c0.1-0.7,0.2-1.3,0.3-2
			c1.6-12.1,2.8-25.8-0.3-37.7c-0.1-0.3-0.6-0.3-0.6,0.1c-0.4,12.6,0.3,24.7-1.9,37.2c-1.4,8.2-3.5,16.4-6.1,24.4
			c-5.7,12.5-13.4,24.1-21.5,35.5c1.3-3.1,2.4-6.2,3-9.4c0.9-2.8,1.7-5.6,0.6-8.6c-0.2-0.5-1.1-0.5-1.1,0.1c0,0.3,0,0.6,0,1
			c-0.3,1.3-0.7,2.5-1,3.7l0,0c-2.8,8.4-8.7,15.3-13.6,22.5c-1.7,2.5-3.4,5-5.1,7.5c2.4-13.3,3.6-26.8,3.3-40.3
			c-0.4-19.2-4.2-37.8-9.6-56.2c-2.8-9.4-5.7-18.8-8.7-28.2c-1.4-4.4-3-8.8-4.8-13.1c-1.3-3.2-2.4-7.1-5.2-9.4
			c-0.1-0.1-0.4,0-0.3,0.1c0.3,2.5,1.6,4.4,2.6,6.7c1.7,3.6,3,7.4,4.3,11.2c2.1,6.3,3.8,12.6,5.6,18.9c4.1,14.1,7.7,28.4,9.9,42.9
			c2.2,14.4,2.8,29.1,1.9,43.6c-0.5,7.5-1.4,14.9-2.7,22.3c-0.3,1.8-0.7,3.6-1,5.4c-1.2-2.3-2.3-4.6-3.4-7
			c-3.1-6.8-5.2-13.8-6.8-21.1c-2.7-12.4-5.6-26.3-12.8-37c-0.1-0.2-0.5-0.1-0.4,0.2c1.9,6.5,4.8,12.7,6.8,19.2
			c2,6.6,3.4,13.2,4.8,19.9c2.3,10.4,5.7,21.2,10.4,31c-0.5,0.8-1.1,1.7-1.6,2.5c-11.6-14.3-21.6-29.6-30.2-45.9
			c-10.2-19.4-18.7-39.8-29-59.1c-0.3-0.5-1.2-0.2-1,0.4c8.4,20.6,18.3,40.9,28.7,60.6c8.7,16.4,17.9,32.9,29.4,47.5v0.1l0,0
			c0,0,12.2-0.7,29.9-8.2c19.6-17.6,38.6-36.4,53.7-57.9c15-21.5,28.2-49.5,27.1-76.3c0-1.1-1.6-1.1-1.7,0
			c-1.5,13.9-3.6,27-8.8,40.1c-5.1,12.8-12.1,24.9-20.1,36.1c-13.9,19.5-31.2,35.8-48.7,51.8c16.4-17.6,29.2-30.9,39.5-61.2
			c12-35.2,14.6-73.1,4-103c-10.5-29.7-35.1-68.7-58.6-86c1.8,0.9,3.7,1.9,5.5,2.8c10.2,5.5,19.2,12.5,27.3,20.8
			c8,8.1,15.1,17.1,21.9,26.3c3.2,4.4,6.4,9,9.4,13.5c3.1,4.6,5.6,9.8,9.1,14c0.6,0.7,1.9-0.1,1.6-0.9c-2-5.1-5.4-9.8-8.4-14.4
			c-3.3-5.1-6.8-10.1-10.4-15.1c-6.5-8.9-13.4-17.6-21-25.6c-7.5-7.9-15.9-14.8-25.3-20.3c-2.9-1.7-5.9-3.3-8.9-4.8
			c0.8,0.2,1.6,0.5,2.3,0.7c8.2,2.7,16.2,6.5,23.5,11.1c14.2,9,26.9,20.4,39.2,31.6c12.4,11.3,22.6,24,29.4,39.4
			c6.8,15.6,9.9,32.8,9.4,49.8c-0.3,10.1-1.9,20.1-4.6,29.8c-1.7,6-3.9,11.7-6.4,17.3c-14.3,18.9-39,47.9-55.4,66.8
			c5-3.4,10.1-7.3,15.4-11.8c0,0,24.3,2.3,62.3-21s49.3-45.6,49.3-45.6s8.7,7.1,20.3,22.3c-3-9.3-6.6-23-7.4-37.4
			c-0.1-0.9-0.1-1.9-0.1-2.9c5.4,7.1,9.3,15.4,11.5,24c1,4,1.7,8,2,12.1c-0.1,3.4-0.4,6.8-0.4,10.1c-0.1,0.5-0.1,1.1-0.2,1.6
			c0.9,1.2,1.7,2.6,2.6,3.9c1.2-4.5,1.3-9.8,0.7-14.9c0-2-0.1-4-0.2-5.9c-0.2-6.9-1.2-13.7-2.5-20.4c-2-9.9-5.2-20.6-11.1-29.1
			c2.8-11.7,7.5-22.4,10.7-29c-1.4-1.2-2.7-2.4-3.9-3.4c-10.5-8.8-17.8-23.3-27.4-35c12.5,30,8.9,56.3,5.3,73.2
			c-4.3,20.1-10.4,40.9-27,52.2c-9,6.1-21.4,14.5-32.7,21.8c2.6-2.8,5.2-5.7,7.7-8.7c5.1-6,10-12.2,14.9-18.4
			c4-5.1,8.6-10.3,11.1-16.4c0.2-0.4-0.4-0.6-0.6-0.3c-8,12.3-19.1,23-28.8,34.1c-4.6,5.2-9.3,10.4-14.3,15.3
			c-0.7,0.7-1.5,1.4-2.3,2.1c-4.6,2.8-8.7,5.1-11.7,6.6c-5.3,2.6-11.2,4.3-16.3,5.4c4.2-4.2,8.3-8.7,12.3-13.5
			c17.4-16.2,30.5-37.2,41.6-57.9c8.3-15.5,17.1-31.2,20.9-48.5c1.8-8.3,2.7-16.8,2.9-25.3c0.2-7.3,0.4-15.3-0.9-22.6
			c0.6-5.1,1.1-9.6,1.4-13.2c-1-0.5-2.1-1.1-3.2-1.5c0,0,0,29.7-17.2,69.7c0,0-0.3-1.1-0.9-3c-4.4,20.8-10.8,36.7-18.7,50.7
			c-1,1.7-2.3,3.8-4.1,6.3c3.6-10.2,5.7-21.1,6.7-31.3c1.7-17.2-0.1-34.6-5.9-50.9c-5.6-15.7-14.5-29.8-26.3-41.6
			c-12.3-12.4-25.7-24.1-39.6-34.5c-7.7-5.7-15.9-10.9-24.7-14.5c-7.6-3.1-16.9-6.4-25.5-6.7c-0.6-0.3-1.2-0.5-1.8-0.8
			c-0.6-0.4-1.2-0.7-1.8-1.1c-5.6,0.1-10.7,1.4-15.2,4.1C1057.4,227.1,1066.1,235.2,1086.4,272.5z M1071.6,441.7
			c0.5-0.7,0.9-1.3,1.4-2c-0.5,0.9-1.1,1.9-1.6,2.8C1071.5,442.2,1071.6,441.9,1071.6,441.7z M1046.1,471.5L1046.1,471.5
			c0.5-0.8,1-1.5,1.5-2.3l0,0C1047.1,470,1046.6,470.7,1046.1,471.5z M1234.3,342.3c4.6,8.5,8.3,17.2,10.2,27c0.7,4,1.1,8,1.3,12
			c0-0.1,0-0.1-0.1-0.2c-2.8-8.9-7.4-16.7-13.3-23.8C1232.5,352.3,1233.2,347.3,1234.3,342.3z M1185,326
			c5.1-15.8,8.3-32.9,10.3-46.9c0.1,4.9,0.4,9.9,0.1,14.8c-0.5,8.9-1.9,17.7-4.1,26.3c-4.3,16.6-12.4,32-20.4,47
			c-6.5,12.1-13.6,23.9-21.9,34.8C1167.2,375,1175.2,356.6,1185,326z"/>
		<path opacity="0.3" fill="#091426" enable-background="new    " d="M1265.5,380.9c5.6,15.3,11.9,30.5,16.1,46.3
			c4.1,15.4,5.8,31.4,5.7,47.4c-0.1,7.5-0.5,14.9-1.4,22.3c-0.5,4.4-1.4,8.8-2.2,13.2c-0.4,0.4-0.8,0.9-1.1,1.2
			c2.7,20.8,3.3,36.3,3.3,36.3s14.6-22.3,26.6-69.7c8.3-32.8,10.8-51.5,5.9-69.5c-3.1,26-5.5,40.8-8.6,52.3c0.1-1.1,0.2-2.2,0.3-3.3
			c1.1-14.2,0.3-28.4-1.4-42.5c-1.6-12.6-4.7-24.5-10.3-36c-3-6.1-6.4-12-10.2-17.7c-3.4-5-6.9-11-11.7-14.8c-0.1-0.1-0.2,0-0.2,0.1
			c2.5,5.6,7,10.4,10.4,15.6c3.2,5,6.4,10.1,9.1,15.4c6.3,12.4,9.2,25.4,10.5,39.2c1.2,12.6,1.6,25.4,0.5,38
			c-0.8,9.6-2.8,18.6-5.2,27.6c-0.1,0.2-0.2,0.3-0.2,0.5c-0.9,1.9-1.8,3.6-2.7,5.3c1.8-12.6,1.7-25.5,1.1-37.9
			c-0.4-9.8-1.5-19.6-2.7-29.3c-0.8-6.1-2-11.9-7.2-15.7c-0.5-0.4-1.1,0.4-0.6,0.8c6,5.7,5.7,15.3,6.2,23c0.6,8.6,1.2,17.3,1.4,25.9
			c0.3,14.8-1.4,29.2-4.4,43.5c-1.5,2.2-2.9,4.2-4.2,5.9c0.2-1.9,0.4-3.9,0.6-5.7c1-8,1.5-16.1,1.6-24.2c0.1-15.9-1.6-31.9-5.8-47.3
			c-4.4-16.3-11.4-32.1-17.5-47.9c-5.6-14.4-11-29-19.8-41.8c-0.2-0.3-0.7,0-0.5,0.3C1254.5,351.6,1260.2,366.2,1265.5,380.9z"/>
		<path opacity="0.3" fill="#091426" enable-background="new    " d="M1205.3,315.2c0,0.7,1,0.8,1.2,0.2c2.9-7.2,3.1-16.8,2.5-24.4
			c-0.6-7.1-2.7-14.1-6.6-20.1c-0.2-0.4-0.8-0.1-0.6,0.3c3.2,7.2,4.7,14.6,4.9,22.5C1206.9,300.8,1205,308,1205.3,315.2z"/>
		<path opacity="0.3" fill="#091426" enable-background="new    " d="M737.8,180.4c-0.3-9.7,1.5-18.4,5.5-27.2
			c0.3-0.7-0.6-1.2-1-0.6c-4.7,7.5-6.6,16.6-7.3,25.3c-0.5,6.7-0.3,14.6,1.1,21.9c1.6,0.4,3.2,1,4.8,1.7
			C739.8,194.5,738.1,187.6,737.8,180.4z"/>
		<path opacity="0.3" fill="#091426" enable-background="new    " d="M724.1,190.5c-1.3-6.8,0.1-14.2,2-20.7
			c0.2-0.7-0.8-1.1-1.1-0.5c-2.4,5-2.9,11.4-3.3,16.9c-0.3,4.4,0.6,8.6,1.3,12.8c1.1-0.2,2.2-0.3,3.3-0.3
			C725.5,195.9,724.6,193.3,724.1,190.5z"/>
		<path opacity="0.3" fill="#091426" enable-background="new    " d="M698.1,190.3c0.8-8.4,3.9-15.5,7.7-22.9
			c0.4-0.8-0.7-1.4-1.2-0.7c-5.5,7.3-8.5,16.9-9.7,25.8c-0.6,4.6-0.6,9.3,0,13.9c0.2,1.5,0.3,3,0.6,4.5c0.2-0.1,0.3-0.2,0.5-0.3
			c0.9-0.5,1.8-1.1,2.8-1.6c-0.7-2.8-0.8-6.3-0.9-8.1C697.7,197.3,697.7,193.8,698.1,190.3z"/>
		<path opacity="0.3" fill="#091426" enable-background="new    " d="M734.3,103.3c4.4,5.5,7,9.6,8.5,12.5c1.1,1.8,2.3,3.6,3.4,5.5
			c0.1,0.3,0.2,0.5,0.3,0.8c0.2,0.4,0.5,0.7,0.9,0.8c1.4,0.8,3.5-0.7,2.5-2.5c-0.3-0.6-0.7-1.2-1-1.8c-3.2-11-7.7-22.8-13.7-32.5
			c-5.7-9.2-12.1-17.5-16.9-27.2c-2.3,0.3-1.4,5.6,9.9,21c12.2,16.7,13.3,26.3,13.3,26.3s-0.9-1.8-2.9-4.4c0.6,1.5,1.1,3,1.7,4.4
			c-1.2-1.4-2.4-2.7-3.7-3.9c-3-2.7-6.2-4.8-9.6-6.5C729.6,98,732,100.4,734.3,103.3z"/>
	</g>
</g>
</svg>
