<?xml version="1.0" encoding="utf-8"?>
<!-- Generator: Adobe Illustrator 21.0.2, SVG Export Plug-In . SVG Version: 6.00 Build 0)  -->
<svg version="1.1" id="Layer_1" xmlns="http://www.w3.org/2000/svg" xmlns:xlink="http://www.w3.org/1999/xlink" x="0px" y="0px"
	 viewBox="0 0 2000 2000" enable-background="new 0 0 2000 2000" xml:space="preserve">
<g>
	<path fill="#9F592A" d="M637.4,892.2c0,0,26.3,32.9,51.8,54.3c25.5,21.4,65,40.7,87.3,53.8s43,19.9,47.3,19.8
		c4.3-0.2,4.2-1.7-8.3-20s-41.2-75.2-61-147.8s-22.3-94.7-25-149.6s-5.5-104-1.7-142s6.7-43.7,6.7-43.7s0.7,24.2,21.3,48.7
		c20.7,24.5,29.5,30.3,42,32.3s9.2-2.7,19-12.7s41.2-18.8,63-21.3s57.3,0.8,74.6-0.7c17.4-1.5,12.9-2.8,5.4-8.7s-25.5-16-29-59.3
		s12-67,12-67s-2.8,36.8,5,65.7c7.8,28.8,26.5,59.2,44.7,65.1s58.2,7.9,85.3,7.2c27.2-0.7,54.3-12.3,54.3-12.3s32.5,10.5,61.3,3
		c0,0,24.1,8.1,54.1,5.3s38.1-9.2,38.1-9.2s-0.6,29.6-6.1,69.4c-5.5,39.2-11.6,73.9-11.6,73.9c-0.3,0.5,11.5,14,19.5,31
		c8.6,18.2,9.7,46.1,0.1,67.3s-45.4,62-73.6,83.1c0,0,16.4,11.9,23.7,37.4c7.3,25.6,3.1,45.7-0.4,57.1c-3.5,11.3,2.5,14,9,4.7
		s36.5-47,49.5-113s19.4-131.9,18.5-184.2c-0.8-52.3-5.7-107.6-12.7-157.8s-22.5-83.5-46.7-138.7s-57-83.4-57-83.4s1.8,27.5-9.3,31
		s-19.3-17.9-60.3-36.6S1046,258,1013.8,251l6.6-5.9c0,0-21.8-5.8-69.6-9.8s-111.3,9.4-131,31.7l22,29.4c0,0-23.5,3.4-84.3,35.9
		S625.8,416.2,597.2,466c0,0-8.1-15.6-9.3-47c0,0-25.9,40.3-35.3,81s-18.9,96.3-12.1,147.7s12.8,78.6,24.6,112.8
		c11.7,34.2,24.1,53.7,24.1,53.7s16-4.2,27.5-6.4s20.6-4.6,23.1-1.2s3.5,9.2,1.8,11.4c-1.8,2.2-12.3,3.5-21.3,5.4
		c-9.1,1.9-23.1,9.4-23.1,9.4s7.2,14.8,13.1,23.9c5.9,9.2,14.8,19.3,15,19.2s12.1-6,20.3-8.6s10.8-3.8,13.2-1.1
		c2.3,2.7,3.2,6.3,2,8.1C659.6,875.9,637.4,892.2,637.4,892.2z"/>
	<g>
		<path fill="none" d="M984.6,392.4c-2.1,8.4-3.8,16.9-5.3,25.5c1.4-3.7,3-7.3,4.5-10.9c5.7-13.4,11.4-26.6,15.5-40.6
			c2.2-7.6,4.2-15.3,3.9-23.3c-0.3-7.5-2.3-15-4.4-22.2c0-0.1-0.1-0.2-0.1-0.4c0.4,5.6,0,11.4-1,17.3
			C994.5,356.2,989,374.3,984.6,392.4z"/>
		<path fill="none" d="M995.2,320.7c-0.5-8.9-3.6-16.9-7.6-24.8c-1.4-2.7-2.9-5.3-4.6-7.9c-1.2-1.7-2.5-3.3-3.9-4.9
			c-0.2-0.2-0.2-0.5-0.1-0.7c-0.3-0.4-0.6-0.8-0.9-1.2H978c-0.2-0.1-0.3-0.1-0.5-0.2c-0.3-0.1-0.2-0.5,0-0.6
			c-3.3-4-6.9-7.7-10.7-11.1c2.5,3,4.6,6.3,6.6,9.7c4.6,7.8,10.1,17.7,11.6,26.7c0.2,1.5-1.7,2.5-2.5,1.1c-2.3-4.1-3.5-8.9-5.4-13.3
			c-1.8-4.2-3.8-8.2-6-12.2c-2.4-4.2-5.3-8.1-8.3-12c3.5,4.9,6,10.7,7.8,16.1c2.3,6.7,3.6,13.7,4,20.7c1.7,11.7,1.2,23.2-3.4,34.9
			c-3.2,8.2-5.5,16.3-7.6,24.9c-0.4,1.6-0.8,3.2-1.2,4.9c1.5-4.2,3-8.4,4.5-12.7c6.7-19.2,14.1-41,7.6-61.2
			c-0.1-0.4,0.3-0.5,0.5-0.4c-0.8-2.5-1.7-4.9-2.6-7.4c-0.2-0.5,0.5-0.7,0.8-0.3c11.3,17.7,9.5,41.5,5.6,61.1
			c-4.1,20.4-10.7,40.3-14.5,60.8c-0.3,1.7-0.6,3.3-0.9,5c6.9-19.3,17.4-37.1,23.8-56.6c6.6-20.2,9.4-43.8-1.3-63.2
			c-0.2-0.3,0.3-0.6,0.5-0.3c6.3,10.9,8.8,23,8.6,35.3C995.3,327.6,995.4,324.2,995.2,320.7z M981.8,291c-1.2-2.4-2.9-4.5-5-6.2
			c-0.3-0.2,0.1-0.8,0.4-0.5c2.3,1.7,4,3.9,5,6.5C982.3,291,981.9,291.2,981.8,291z"/>
		<path fill="none" d="M993.6,300.3c10.5,17.6,16.2,38.7,11.6,58.4c-3.5,14.8-9.1,29-14.6,43.2c-3,7.8-5.6,15.6-7.5,23.6
			c-1.1,9.8-3,19.6-3.8,29.4c-0.5,6.2-0.6,12.5-0.3,18.7c0.2,4.1,1.1,8.2,1.5,12.4c1,5.3,2.2,10.5,4.1,15.6c1.5,4,3.4,7.9,5.5,11.6
			c1.1,1.9,2.4,3.8,3.5,5.7c3.3,4.3,6.9,8.5,10.7,12.5c3.3,3.4,6.7,6.7,10.3,9.9c-2.3-2.7-4.4-5.4-6.4-8.2
			c-12.6-17.6-20-38.7-24.3-59.8c-4.5-22,7.5-44.6,17.3-63.6c5.6-10.9,11.1-21.8,16.5-32.8c5.4-11.1,11.5-21.9,6.8-34.5
			c-3.9-10.7-11.4-20.6-18.1-29.7c-4.1-5.6-8.2-11.4-12.9-16.5c-3.7-4-7.4-8.1-10.8-12.4c2.2,2.8,4.2,5.6,6.2,8.5
			C990.8,294.9,992.3,297.6,993.6,300.3z"/>
		<path fill="none" d="M1201.6,388.6c-1.2-2.1-2.5-4.3-3.8-6.4c3.1,6.4,5.9,13,8.5,19.7c3.9,10.1,7.4,20.4,10,30.9
			c1.5,6.2,3.5,12.6,5,18.9c3.1,11.5,6,23.2,9.9,34.4c3.8,10.8,9.3,20.9,15.7,30.4c3.1,4.5,6.4,9.1,10.1,13.3
			c-16.3-26.7-24.3-57.7-33.5-87.4C1217.8,424,1211.2,405.6,1201.6,388.6z"/>
		<path fill="none" d="M1173,344.3c1.3,1.5,2.6,3,3.8,4.5c1.8,2.1,3.4,4.3,5,6.5c7.3,6.3,13.4,14.5,18.4,21.9
			c25,36.8,31.3,82.3,48.6,122.6c-0.3-2-0.5-4-0.2-6c-1.6-7.3-1.6-15.4-2.5-22.8c-1-8.8-2.5-17.5-4.6-26
			c-7.3-29.2-24.9-53.9-44.8-76C1189.1,360.6,1181.3,352.2,1173,344.3z"/>
		<path fill="none" d="M1114.2,316.7c15,9.3,29.5,19.4,41.8,32.2c7.4,7.7,14.1,16.3,18.6,25.9c0.9,2,1.9,4.2,2.7,6.4
			c1.7,3.5,2.9,7.4,3.7,10.5c2.3,8.3,2.7,17,2.8,25.5c0.1,18.7,0.6,36.4,5.9,54.5c2.6,8.9,5.9,17.6,9.8,26
			c-6.9-20-9.2-41.6-10.7-62.6c-1.2-16.1-2.2-32.3-7.2-47.8c-4.1-12.6-10.5-24.3-18.3-34.9c-16.8-22.8-40-40.1-65-53
			c-21.6-11.2-44.5-19.1-67.5-27c9,3.8,17.8,7.9,26.6,12.2C1076.8,294.3,1096.3,304.4,1114.2,316.7z"/>
		<path fill="none" d="M1146.9,329.2c13.4,14.8,27,29.6,35.3,48.1c14.2,31.6,13.6,67.5,26.7,99.5c6.2,15.2,14.9,29.2,26.1,41.2
			c5.5,5.9,11.5,11.2,18.3,15.7c0.4,0.3,0.8,0.5,1.2,0.8c-3.3-3.8-6.4-7.8-9.4-11.8c-6.9-9.3-12.7-19.4-17.1-30.2
			c-5.1-12.6-7.9-26.1-11.4-39.2c-1.7-6.3-3.4-12.6-4.9-18.9c-0.1-0.3-0.1-0.6-0.2-0.9c-0.2-0.6-0.4-1.2-0.5-1.9
			c-3.4-11.2-6.9-22.4-11.3-33.2c-15.4-37.4-43.9-66.9-77.9-88.1c-1.3-0.8-2.7-1.6-4-2.4c10.2,6.4,19.8,13.7,28.6,21.9
			C1145.9,329.4,1146.6,328.7,1146.9,329.2z"/>
		<path opacity="0.35" fill="#E8FFFA" enable-background="new    " d="M735.1,513.4c-0.1-0.1-0.1-0.1-0.2-0.2
			c0.1-0.3,0.2-0.6,0.2-0.8c0-1.2,0.1-2.3,0.2-3.4c-0.8-0.9-2.4-1-3.2,0.2c-0.2,0.3-0.4,0.7-0.6,1c-0.2,0.3-0.2,0.5-0.2,0.8
			c-4.6,9.6-7.4,20.7-9.9,30.9c-2.6,10.8-5.6,22.7-5.3,33.8c0,0.7,1,0.8,1.2,0.2c3.3-10.7,4.7-22.1,7.7-33c0.4-1.5,0.9-3.1,1.4-4.6
			c-1,7.3-1.6,14.7-2.4,21.8c-1.6,15.4-2.8,30.9-3.5,46.4c-0.5,10.6-0.7,21.2-0.7,31.8c-0.5,0.2-0.8,0.6-0.8,1.3
			c1.2,17.8,1.3,35.4,0.6,53.2c-0.6,17.8-1.3,35.5,0.2,53.3c3,34.7,11.4,69,18,103.1c1.6,8.3,3.3,16.7,5.1,24.9
			c3.5,11.1,7.4,22,11.7,32.8c0.4-0.4,0.6-1,0.4-1.7c-11-32.8-16.1-67.7-22.7-101.6c-3.5-17.8-7-35.7-8.8-53.8
			c-1.4-14.6-1.4-29.3-0.9-43.9c0.5,5.7,1,11.3,1.6,16.9c0.7,9.3,1.8,18.6,2.8,27.7c2.1,18.3,4.9,36.5,8.5,54.6
			c6.1,18.9,9.3,38.9,14.2,58.2c0.3,1.2,0.6,2.4,0.9,3.5c7.9,26.8,17.7,53.1,29.3,78.5c10.7,23.4,23,46,36.9,67.6
			c1.7,2.6,6,0.2,4.2-2.5c-9.1-14.1-17.5-28.6-25.1-43.5c1.4,1.9,2.9,3.7,4.5,5.5c-13.9-27.6-31.8-70.2-45.5-120.4
			c-18-65.9-21.7-90.3-24.3-135.3c-2.8-28.2-4.1-56.5-3.8-84.8c-0.8-26.6-0.7-50.7,1.4-71.5c3.8-38,6.7-43.7,6.7-43.7s0,0.5,0.1,1.4
			C735.1,516.7,735.1,515,735.1,513.4z"/>
		<path opacity="0.35" fill="#E8FFFA" enable-background="new    " d="M819.3,560.7c-5.4-6.4-10-14.2-14-21.6
			c-8.5-15.8-7.9-34.1-5.1-51.3c2.6-16.2,9.6-30.8,20.2-43.3c5.1-6,10.8-11.5,16.7-16.7c6.4-5.6,13.7-9.9,20.7-14.7
			c0.4-0.2,0.1-0.7-0.3-0.6c-12.3,5.6-24.2,14.1-34.1,23.3c-9.4,8.9-17,19.9-21.9,31.9c-3,7.3-5,15.2-6.3,23.2c-0.2-0.9-1.7-1-1.9,0
			c-4,16.9-3.7,38.3,3.1,54.5c5.7,13.4,18.2,24.9,31.7,30.1c0.6,0.2,1.2,0.2,1.7-0.1c0.6,0.3,1.3,0.7,2,1c2.2-0.9,4.5-1.9,6.9-2.7
			C831.3,571,824.6,567,819.3,560.7z M798.8,541.7c-2.7-7.4-3.9-15.2-4.2-23.2c1.4,11.1,5.5,21.2,11.4,31.1
			c2.3,3.8,4.7,7.5,7.3,10.9C807,555.7,801.8,549.8,798.8,541.7z"/>
		<path opacity="0.35" fill="#E8FFFA" enable-background="new    " d="M869.6,554.9c-2.6-5.3-4.3-10.8-5.7-16.7
			c-2.3-9.6-4-19.4-3.8-29.3c0.2-9.8,2.4-19.4,4.9-28.8c2.5-9.5,6.7-18.7,8.9-28.2c0.2-0.7-0.7-1.1-1.1-0.5
			c-5.4,8.4-8.3,19.3-10.9,28.8c-2.8,10-4.6,20.2-5.3,30.5c0,0.5-0.1,1-0.1,1.5c-0.3-2.5-0.6-5.1-0.9-7.6c-0.3-3.4-0.6-6.9-0.5-10.3
			c0.1-3.9,1.5-7.7,1.4-11.6c0-0.5-0.7-0.8-1-0.4c-4.5,4.8-3.7,14.5-3.2,20.6c0.6,8.5,1.6,17.1,3.2,25.5c1.5,8,3.4,15.9,6.8,23.3
			c2,4.4,4.7,9.7,8.3,13.7c1.6-0.3,3.2-0.5,4.8-0.8c-1-1.9-1.9-3.8-2.8-5.7C871.5,557.6,870.5,556.3,869.6,554.9z"/>
		<path opacity="0.35" fill="#E8FFFA" enable-background="new    " d="M927.2,320.3c4.3-5.9,8.1-12.1,11.2-18.6
			c5.1-14.3,8-30.5,8-30.5s0.1,0.9,0.2,2.5c0.2-3.8,0-8-1.9-10.9c-0.4-0.6-1.5-0.6-1.7,0.2c-0.4,2.2,0,4.1,0,6.4
			c0.1,3.1-0.4,6.2-1,9.2c-1.1,5.4-3.1,10.6-5.5,15.6c-4.7,9.5-10.6,18.5-17.3,26.7c-6.4,7.8-13.8,14.5-21.4,21.1
			c-7.3,6.4-15.9,12.7-21,21.1c-0.2,0.4-0.3,0.8-0.3,1.1c14.9-11.1,30.4-22.6,41.8-33.1C921.5,327.5,924.5,324,927.2,320.3z"/>
		<path opacity="0.35" fill="#E8FFFA" enable-background="new    " d="M933.9,343.1c-0.5,0.9,0.8,2,1.5,1.1c10-12,17.5-27.7,20-43.2
			c1.1-6.8,1.1-13.6,0.1-20.4c-1-7-2.4-15-7.3-20.4c-0.8-0.9-2.6,0-2.2,1.3c0.4,1.3,1,2.5,1.5,3.7c0.6,4.5,0.4,9.1,0.2,13.6
			c-0.3,5.6-1.6,11.5-1.1,17c0.1,1.1,1.6,1.3,2,0.3c2.1-5.8,1.8-13.1,1.8-19.2c0-1.6,0-3.3,0-5c1,2.5,1.9,5,2.3,7.8
			c1.2,7.5,0.7,15.5-0.9,22.9C948.6,317.5,940.8,329.9,933.9,343.1z"/>
		<path opacity="0.35" fill="#E8FFFA" enable-background="new    " d="M933.7,530.6c-1.4-3.6-2.6-7.4-3.6-11.1
			c-0.5-0.9-1.1-1.8-1.6-2.7c-4-14.1-6.8-29.3-4.8-43.7c1.1-8.1,3.5-15.9,6.4-23.6c0.5-2.1,1.1-4.2,1.8-6.3
			c3-9.2,7.5-17.9,11.7-26.6c7.1-14.9,13.1-30.2,18.7-45.7c0.4-1.6,0.8-3.3,1.2-4.9c2-8.6,4.3-16.7,7.6-24.9
			c4.6-11.8,5.1-23.3,3.4-34.9c-0.3-7-1.7-14-4-20.7c-1.8-5.3-4.3-11.1-7.8-16.1c3,3.9,5.9,7.7,8.3,12c2.2,3.9,4.2,8,6,12.2
			c1.9,4.4,3.1,9.2,5.4,13.3c0.8,1.4,2.7,0.4,2.5-1.1c-1.4-9-7-18.9-11.6-26.7c-2-3.4-4.1-6.7-6.6-9.7c3.8,3.4,7.4,7.1,10.7,11.1
			c-0.2,0.1-0.3,0.5,0,0.6c0.2,0.1,0.3,0.1,0.5,0.2h0.1c0.3,0.4,0.6,0.8,0.9,1.2c-0.1,0.2-0.1,0.5,0.1,0.7c1.4,1.5,2.7,3.2,3.9,4.9
			c1.7,2.6,3.2,5.2,4.6,7.9c4,7.9,7,15.9,7.6,24.8c0.2,3.5,0.1,6.9-0.3,10.3c-0.1,8.3-1.5,16.6-3.9,24.7c-1.6,5.6-3.6,11-5.8,16.4
			c-2.3,8.2-4.7,16.3-6.6,24.6c-1.9,8-3.9,16-5.4,24.1s-3.5,16.9-2.8,25.2c0,0.5,0.3,1,0.5,1.3c0,2.2,0.1,4.4,0.2,6.6
			c0.4,9,1.6,17.9,3.1,26.8c0.4,2.3,0.8,4.6,1.2,6.9c-2.3-5.7-4.2-11.5-5.5-17.5c-1.4-6.3-2.2-12.5-2.3-19
			c-0.1-6.3,1.1-12.9-0.3-19.1c-0.2-0.7-1.1-0.6-1.3,0c-2.3,6.1-2,13.6-2.1,20.1c-0.1,6.1,0.4,12.4,1.4,18.4c0.4,2.8,1,5.5,1.7,8.3
			c7.3,19.7,19.6,39.1,33.3,55c8.4,9.7,18.6,16.6,29.7,22.3c-5.6-4.4-10.7-9.4-15.3-14.8c-3.5-3.2-7-6.5-10.3-9.9
			c-3.8-4-7.4-8.2-10.7-12.5c-1.1-1.9-2.4-3.8-3.5-5.7c-2.1-3.7-4-7.6-5.5-11.6c-1.9-5-3.1-10.3-4.1-15.6c-0.5-4.1-1.3-8.3-1.5-12.4
			c-0.3-6.2-0.2-12.5,0.3-18.7c0.7-9.8,2.7-19.6,3.8-29.4c1.9-8,4.5-15.8,7.5-23.6c5.5-14.2,11.1-28.3,14.6-43.2
			c4.6-19.6-1.1-40.8-11.6-58.4c-1.3-2.8-2.8-5.5-4.6-8.1c-2-2.9-4-5.7-6.2-8.5c-0.2-0.3-0.4-0.5-0.6-0.8v-0.1
			c-2.3-2.9-4.8-5.7-7.4-8.3c-4.7-4.8-9.6-8.7-15-12.5c-1.5-1.3-3.1-2.4-4.7-3c-0.5-0.2-1.2,0.3-0.8,0.8c0.8,1.1,1.6,2.1,2.5,3
			c-0.9-0.7-1.8-1.4-2.7-2c-0.6-0.4-1.4,0.4-1,1c5.5,8.9,12,16.4,15.2,26.6c3.3,10.5,3.3,21.2,0.8,31.9
			c-2.6,11.4-6.6,22.6-10.7,33.5c-2.6,6.8-5.7,13.4-8.6,20.1c-10.5,14-19,29.8-27.8,44.8c-9.8,16.9-18.2,34.6-22,53.9
			c-6,30.6-1.3,66.8,20.2,90.7c2.5,0.1,4.9,0.1,7.4,0.2c-10.1-12-17.5-25.2-21.3-40.7c-4.3-17.4-3.5-35.7,0.8-53
			c4.4-18,12.5-34.4,21.9-50.3c1.2-2,2.5-4.1,3.7-6.1c-1.1,2.6-2.3,5.2-3.4,7.8c-7.2,17-13.8,34.6-16.1,53
			c-3.7,30.3,0.9,66.1,22,89.4c1.5,0,3,0,4.5,0.1c-2.5-2.5-4.7-5-6.3-8.3c-1.4-3-2.9-6-4.3-9c-3.4-7.6-6.2-15.4-7.5-23.6
			c-0.7-4.2-1.3-8.4-1.7-12.6c1.9,8.5,4,17,7.2,25c4.5,11.5,11.6,21.9,21.8,28.5c2.2-0.1,4.3-0.2,6.1-0.3c1.4-0.1,2.7-0.2,3.8-0.4
			C947.3,555.2,938.8,543.7,933.7,530.6z M974.3,282.1c0.3,0.1,0.5,0.3,0.8,0.4c0.1,0.1,0,0.2-0.1,0.2c-0.3-0.1-0.5-0.3-0.8-0.4
			C974.1,282.2,974.2,282,974.3,282.1z M998.6,320.5c0,0.1,0.1,0.2,0.1,0.4c2.1,7.2,4.1,14.7,4.4,22.2c0.4,8-1.7,15.7-3.9,23.3
			c-4,14-9.8,27.2-15.5,40.6c-1.5,3.6-3.1,7.2-4.5,10.9c1.5-8.6,3.3-17.1,5.3-25.5c4.4-18.1,9.9-36.1,13-54.5
			C998.5,332,998.9,326.2,998.6,320.5z"/>
		<path opacity="0.35" fill="#E8FFFA" enable-background="new    " d="M1007.1,497.9c-3.3-15-1.8-30.6,3-45.2
			c2.3-7.2,5.4-14.1,8.9-20.8c3.7-6.9,7.1-14.1,11.2-20.8c0.5-0.7-0.8-1.4-1.1-0.7c-3.5,7.6-9.5,14.2-13.9,21.3
			c-4.2,6.7-7.6,13.9-10,21.4c-4.8,15.1-5.8,31.3-2.4,46.7c3.3,15.1,11,28,21.2,39.5c9.5,10.6,21.3,22.1,35.2,26.5
			c1.7,0.5,3.1-1,3.1-2.5c-2.5-1.6-4.9-3.4-7.2-5.2C1032.5,545.2,1012.7,523.6,1007.1,497.9z"/>
		<path opacity="0.35" fill="#E8FFFA" enable-background="new    " d="M1047.6,514.9c2.2,4.4,4.7,8.6,7.6,12.5
			c13.6,18.7,34.1,31.8,57.8,30.7c1.2-0.1,2.7-0.4,2.7-1.6c0.1-0.9-0.7-1.4-1.6-1.7c-0.3-0.1-0.7-0.2-1-0.2
			c-15.5-2.5-31.9-4-43.8-15.4c-7.4-7.1-12.8-15.9-18.2-24.6c-2.5-4.1-5-8.2-7.6-12.2c0.9,1.4,0.7,5,1.4,6.8
			C1045.7,511,1046.7,513,1047.6,514.9z"/>
		<path opacity="0.35" fill="#E8FFFA" enable-background="new    " d="M1128.9,555c-2.3-1.1-7.5-3.3-8-3.5
			c-3.8-1.4-7.7-2.9-11.5-4.3c-10.8-4.1-22.3-7.4-32.2-13.4c-13.5-8.2-19.4-22-23.6-36.6c-1.7-5.8-2.9-11.9-3.6-17.9
			c-0.7-5.9,0.2-11.8-0.4-17.6c-0.1-1.1-1.5-1.3-1.8-0.2c-4,10.2-0.3,24.5,2.3,34.7c2.8,11,5.9,21.4,13.2,30.3
			c6,7.3,13.5,12.8,22.1,16.5c12,5.1,24.7,8.5,37.1,12.3c1.4,0.4,2.9,0.8,4.3,0.9c1-0.4,1.8-0.7,2.6-1
			C1129.3,555.2,1129.1,555.1,1128.9,555z"/>
		<path opacity="0.35" fill="#E8FFFA" enable-background="new    " d="M1144.8,521c-24.4-42.1-28.6-92.3-43.5-137.9
			c-2.8-8.5-5.9-17.3-9.7-26c-11.1-21.6-26.1-40.5-44.2-56.4c-6.5-5.5-13.3-10.6-20.2-15.5c-13.2-8.9-27.9-16.4-43-21.1
			c-1.7-0.5-2.2,1.9-0.7,2.6c28.5,11.7,55.6,28.5,75.7,52.3c9.8,11.6,19.1,24.1,26.3,37.4c8.6,15.9,14.2,33.2,18.6,50.7
			c2.6,10.2,4.7,20.5,7.2,30.6c1.2,4.9,2.4,9.8,3.6,14.7c0.2,0.9,0.4,1.8,0.6,2.7c0.4,2,0.9,4,1.5,5.9c0.6,2.6,1.3,5.1,1.9,7.7
			c3.2,13.7,7.5,27.2,13.2,40c8.4,18.9,22,40.8,41.2,50.8c1.4,0,2.8-0.1,4.2-0.2C1164.3,549.1,1153.3,535.7,1144.8,521z"/>
		<path opacity="0.35" fill="#E8FFFA" enable-background="new    " d="M1230,546.6c-1-0.9-2.1-1.8-3.1-2.9
			c-3.1-3.2-5.8-6.8-8.3-10.5c-3.8-4.7-7.3-9.8-10.3-15.1c-3.7-6.5-6.6-13.2-9-20.2c-3.8-8.4-7.2-17.1-9.8-26
			c-5.3-18.1-5.8-35.8-5.9-54.5c0-8.6-0.5-17.2-2.8-25.5c-0.9-3.2-2-7.1-3.7-10.5c-0.9-2.3-1.8-4.4-2.7-6.4
			c-4.5-9.7-11.2-18.3-18.6-25.9c-12.2-12.7-26.8-22.8-41.8-32.2c-17.9-12.3-37.3-22.4-56.9-31.9c-8.8-4.3-17.6-8.4-26.6-12.2
			c-6.2-2.1-12.3-4.2-18.5-6.4c-0.4-0.1-0.2-0.7,0.2-0.6c0.2,0,0.3,0.1,0.5,0.1c-3.8-1.3-7.6-2.6-11.5-3.7c-0.6-0.2-1.1,0.8-0.5,1.1
			c15.2,7.9,31.1,14.1,46.6,21.4c15.3,7.1,29.8,15.4,44.1,24.3c14.6,9.2,28.4,19.8,40.9,31.7c12.8,12.1,24.2,25,30.2,41.8
			c3.3,9.3,5.2,19,6.2,28.7c0,0.5,0.1,1,0.1,1.5c0.1,3.6,0.2,7.2,0.2,10.8c0.1,15,0.8,29.7,4.1,44.4c3,13.5,7.6,26.9,13.8,39.4
			c-3.1-5-6.2-10-8.8-15.2c-2.5-4.9-4.6-9.9-6.4-15.1c-1.4-3.9-2.1-8.5-4.7-11.9c-0.2-0.3-0.8-0.1-0.8,0.2
			c-1.1,4.4,0.9,9.3,2.3,13.5c1.7,4.9,3.8,9.7,6.1,14.4c5,10.2,10.7,20,16.8,29.6c5.5,8.6,11.2,16.6,19.4,22.8
			c4.9,3.7,10.4,6.9,16.1,9.7c-10.7-3-19.7-9.6-28.6-16.8c-4.8-3.9-9.6-7.9-13.6-12.6c-2.4-2.9-5-5.8-6.7-9.2
			c-1.6-3-2.3-6.3-3.9-9.2c-0.3-0.5-1.1-0.3-1.1,0.3c-0.4,6.2,4.1,14.3,7.5,19.2c4.4,6.4,10.2,11.9,16.2,16.8
			c11.4,9.4,25.4,18.8,41,16.5c0.3,0,0.5-0.1,0.6-0.2c0.1,0,0.1,0.1,0.2,0.1h0.1c2.3,0.8,4.7,1.4,7.2,1.6c1.4,0.1,2.4-1,2.7-2.2
			c-4.5-2.7-8.8-5.8-12.9-9.1C1233.8,549.2,1231.9,547.9,1230,546.6z M1167.2,373.5c-1.6-3.6-3.5-7-5.5-10.4
			c2.2,3.2,4.2,6.6,5.9,10.1C1167.4,373.3,1167.3,373.4,1167.2,373.5z"/>
		<path opacity="0.35" fill="#E8FFFA" enable-background="new    " d="M1172.8,337.7c-10.5-9.5-22-18.5-34.9-24.5
			c-18.6-13.1-39.3-23.4-60.3-31.5c-24.4-9.4-49.6-17.7-74.9-24.4c-1.4-0.4-2,1.7-0.6,2.2c21,7.6,42.3,13.8,62.9,22.3
			c5.7,2.3,11.3,4.8,16.9,7.3c8.7,3.8,17.1,7.9,25.4,12.5c3.5,2,7,4,10.4,6.2c1.4,0.8,2.7,1.6,4,2.4c34,21.2,62.5,50.7,77.9,88.1
			c4.5,10.9,7.9,22,11.3,33.2c0.2,0.6,0.4,1.2,0.5,1.9c0.1,0.3,0.1,0.6,0.2,0.9c1.6,6.3,3.3,12.6,4.9,18.9
			c3.5,13.1,6.3,26.6,11.4,39.2c4.4,10.8,10.2,20.8,17.1,30.2c3,4,6,8.1,9.4,11.8c6.1,3.8,12.6,6.8,18.8,10.4
			c1.6,0.9,0.5,3.4-1.2,2.9c-10.5-2.9-20.5-9.9-29-17.8c-9.8-8.3-18-18.6-24.4-29.4c-4.5-7.1-8.3-14.5-11.6-22.2
			c-6.6-15.7-10.2-32.1-13.5-48.7c-0.8-3.9-1.5-7.8-2.3-11.7c-0.5-1.8-1.1-3.5-1.7-5.1c0.6,5.3,1.1,10.6,1.5,15.9
			c0.2,3.2,0.5,6.3,0.7,9.5c1.4,5.9,2.9,11.7,4.5,17.5c4.4,16,10,31.9,18,46.4c13.5,24.6,34.3,43.7,61.6,51.1c1.7,0.5,3-0.6,3.5-1.9
			c1.5-1,2.4-2.9,1.1-4.8c-10.3-15.5-17.7-32.3-22.3-50.3c-2.1-8.2-3.4-16.5-4.8-24.9c-0.9-7.3-1.9-14.7-3.5-21.9
			c-2.3-10.8-5.7-21.2-10.4-31.1c-6.8-13.2-15.8-26.3-25.5-38.9C1201.5,364.4,1187.1,350.6,1172.8,337.7z M1257.1,530
			c-3.7-4.3-7-8.8-10.1-13.3c-6.5-9.4-11.9-19.6-15.7-30.4c-4-11.2-6.8-22.9-9.9-34.4c-1.5-6.4-3.5-12.7-5-18.9
			c-2.5-10.5-6.1-20.9-10-30.9c-2.6-6.7-5.4-13.3-8.5-19.7c1.3,2.1,2.6,4.2,3.8,6.4c9.5,17,16.2,35.4,22,53.9
			C1232.8,472.3,1240.8,503.3,1257.1,530z M1241.6,445.1c2.1,8.6,3.6,17.3,4.6,26c0.9,7.3,0.8,15.4,2.5,22.8c-0.2,2-0.1,4,0.2,6
			c-17.3-40.3-23.6-85.8-48.6-122.6c-5-7.4-11.2-15.6-18.4-21.9c-1.6-2.2-3.3-4.4-5-6.5c-1.2-1.5-2.5-3-3.8-4.5
			c8.3,7.9,16.2,16.3,23.9,24.8C1216.7,391.2,1234.3,415.9,1241.6,445.1z"/>
		<path opacity="0.35" fill="#E8FFFA" enable-background="new    " d="M1300.8,550.8c0.2,0.7,0.6,1.2,1.1,1.5
			c1,5.1,1.9,10.3,2.8,15.5c1.4,8.2,2.5,16.4,3.5,24.7c1,7.8,1.1,15.8,3.2,23.4c0.1,0.4,0.3,0.6,0.4,0.9
			c-2.2-32.3-5.7-64.4-9.9-94.7c-4.3-31-11.9-55.6-22.8-82.9c-6.2-13.1-13.2-25.7-20.6-38.2c-9-15.1-18.4-30.2-28.2-44.8
			c-5.1-7.6-10.5-14.9-16.1-22.1c-5-6.3-10.3-13.7-16.6-19.1c-0.2,1.4-0.4,2.7-0.7,4.1c3.6,4.6,7.8,8.9,11.4,13.4
			c5.4,6.9,10.4,14.1,15.3,21.4c9.6,14.2,18,28.8,25.8,44.1c0.3,0.6,0.6,1.3,1,1.9c-6.8-11.3-14-22.4-21.5-33.3
			c-5.3-7.7-10.6-15.3-16-22.9c-5.3-7.4-10.3-15.4-16.7-22c-0.4,1.3-0.9,2.5-1.4,3.6c14.2,18,27.1,37.1,39.1,56.5
			c24,38.6,43.9,80.2,55.7,124.2c0.9,3.4,1.8,6.8,2.6,10.3c0.6,2.3,1.2,4.6,1.8,6.9C1296.4,532.3,1298,541.7,1300.8,550.8z"/>
		<path opacity="0.35" fill="#E8FFFA" enable-background="new    " d="M1289.6,521c-5-15-10.2-29.9-15.4-44.9
			c-5-14.4-9.4-28.4-18.7-40.5c-0.3-0.4-1.1-0.1-0.8,0.5c8.1,12.8,11.7,28.7,16.2,43c5,15.6,9.9,31.2,14.8,46.8
			c3.1,9.8,5.3,19.6,7,29.6c2.5,9.4,3.6,19.4,4.9,29c1.4,10.8,2.3,21.7,3,32.6c0.2,3.2,0.4,6.3,0.6,9.5c0.3,3.1,0.6,6.3,0.9,9.4
			c1.6,17.6,3,35.2,3.6,52.9c0.8,25.1,0.3,50.3-1.6,75.4c-1,9.5-1.8,19.1-3.2,28.6c-2.6,17.5-5.8,35-9.6,52.3
			c-2.1,9.5-4.4,19-6.9,28.4c-3,13.9-7.2,27.4-11.7,40.9c-3.4,10.3-7,20.6-10.9,30.8c-0.3,1-0.6,1.9-0.9,2.9
			c-0.5,1.8,0.7,3.2,2.1,3.8c4.7-8.1,9.9-18,14.9-29.6c2.4-7.2,4.5-14.5,6.7-21.8c4.6-15.4,8.5-30.9,12-46.5
			c0.8-1.6,1.5-3.2,2.1-4.9c5-27.7,8.9-55.2,11.5-81.4c0.4-5.4,0.8-10.7,1.1-16.1c2.1-35.9,2.1-71.9-1.2-107.8
			c-0.1-1.2-0.2-2.5-0.4-3.7c-6.5-22.1-9.3-44.9-12.2-67.9C1295.8,554.9,1293.3,537.9,1289.6,521z"/>
		<path opacity="0.3" fill="#091426" enable-background="new    " d="M1304.2,764.3c1.9-25.1,2.4-50.2,1.6-75.4
			c-0.6-17.6-2-35.3-3.6-52.9c-0.3-3.1-0.6-6.3-0.9-9.4c1.9,36.3,1.4,72.8,0.8,109.2c-0.4,18.8-1.9,37.4-4.8,56.1
			c-1.3,8.1-2.6,16.2-3.9,24.3c-0.2,1.3-0.4,2.6-0.5,3.8c-2.1,16-4,32.1-7.1,48c-0.4,1.8-0.7,3.7-1.1,5.5c2.5-9.4,4.8-18.9,6.9-28.4
			c3.8-17.3,7-34.8,9.6-52.3C1302.5,783.4,1303.2,773.8,1304.2,764.3z"/>
		<path opacity="0.3" fill="#091426" enable-background="new    " d="M1189.6,412.7c0.6,1.7,1.2,3.4,1.7,5.1
			c-0.8-4.1-1.7-8.1-2.7-12.2C1189,408,1189.4,410.4,1189.6,412.7z"/>
		<path opacity="0.3" fill="#091426" enable-background="new    " d="M734.9,513.2c0.1,0.1,0.1,0.1,0.2,0.2c0-0.3,0-0.7,0-1
			C735.1,512.6,735,512.9,734.9,513.2z"/>
		<path opacity="0.3" fill="#091426" enable-background="new    " d="M933,314c2-3.6,3.8-7.9,5.5-12.3c-3.2,6.5-6.9,12.8-11.2,18.6
			c-2.7,3.7-5.7,7.3-8.8,10.6C924.9,324.9,930.1,319.2,933,314z"/>
		<path opacity="0.3" fill="#091426" enable-background="new    " d="M1218.7,533.2c2.5,3.7,5.2,7.3,8.3,10.5c1,1,2,2,3.1,2.9
			c1.9,1.3,3.8,2.6,5.8,3.8C1229.5,545.3,1223.7,539.5,1218.7,533.2z"/>
		<path opacity="0.3" fill="#091426" enable-background="new    " d="M768.6,937.5c1.2,2.4,2.5,4.7,3.8,7c-0.1-0.2-0.1-0.4-0.2-0.5
			c-5.6-15.2-11.5-30.2-16.3-45.7c-4.9-15.8-9-31.8-12.7-47.9c-3.5-15.1-7.3-30.7-8.7-46.1c0-0.4,0.6-0.5,0.7-0.1
			c0.1,0.4,0.2,0.7,0.3,1.1c-3.5-18.1-6.4-36.3-8.5-54.6c-1-9.1-2.1-18.4-2.8-27.7c-0.6-5.6-1.1-11.3-1.6-16.9
			c-0.4,14.6-0.5,29.3,0.9,43.9c1.8,18.1,5.3,36,8.8,53.8c6.7,33.9,11.8,68.7,22.7,101.6c0.2,0.7,0,1.3-0.4,1.7
			c0.3,0.6,0.5,1.3,0.8,1.9C759.5,918.6,763.9,928.1,768.6,937.5z"/>
		<path opacity="0.3" fill="#091426" enable-background="new    " d="M1231.3,517.6c-4.6-5.3-8.7-11.1-12.5-17
			c6.3,10.8,14.6,21.1,24.4,29.4C1238.8,525.9,1234.8,521.7,1231.3,517.6z"/>
		<path opacity="0.3" fill="#091426" enable-background="new    " d="M1047.4,300.8c18.1,15.8,33.1,34.7,44.2,56.4
			c-6.1-14-13.9-27.4-24.3-38C1061,312.8,1054.3,306.6,1047.4,300.8z"/>
		<path opacity="0.3" fill="#091426" enable-background="new    " d="M926.7,472.4c0.5-7.7,1.5-15.4,3.4-22.9
			c-2.9,7.6-5.3,15.5-6.4,23.6c-2,14.4,0.8,29.5,4.8,43.7c0.5,0.9,1.1,1.8,1.6,2.7C926.2,504.2,925.7,488,926.7,472.4z"/>
		<path opacity="0.3" fill="#091426" enable-background="new    " d="M966.9,478.4c0,0.1,0.1,0.2,0.1,0.4c-0.7-2.7-1.3-5.5-1.7-8.3
			c-1-6-1.4-12.3-1.4-18.4c0.1-6.5-0.2-13.9,2.1-20.1c0.2-0.6,1.1-0.7,1.3,0c1.4,6.1,0.1,12.8,0.3,19.1c0.1,6.5,0.9,12.7,2.3,19
			c1.4,6,3.2,11.8,5.5,17.5c-0.5-2.3-0.9-4.6-1.2-6.9c-1.5-8.8-2.6-17.8-3.1-26.8c-0.1-2.2-0.2-4.4-0.2-6.6
			c-0.3-0.4-0.5-0.8-0.5-1.3c-0.7-8.3,1.3-17.1,2.8-25.2s3.4-16.1,5.4-24.1c2-8.2,4.3-16.4,6.6-24.6c-5.8,14.1-12.9,27.7-18.4,41.9
			C958.5,435.3,959,457,966.9,478.4z"/>
		<path opacity="0.3" fill="#091426" enable-background="new    " d="M1167.2,373.5c0.1-0.1,0.3-0.2,0.4-0.3
			c-1.8-3.5-3.8-6.9-5.9-10.1C1163.7,366.5,1165.5,369.9,1167.2,373.5z"/>
		<path opacity="0.3" fill="#091426" enable-background="new    " d="M798.8,541.7c3,8.1,8.2,14,14.5,18.8c-2.6-3.4-5-7.1-7.3-10.9
			c-5.9-9.9-10-20-11.4-31.1C794.9,526.5,796.1,534.3,798.8,541.7z"/>
		<path opacity="0.3" fill="#091426" enable-background="new    " d="M955.5,485.3c0.1,0.3,0.2,0.6,0.3,0.9c-0.1-0.3-0.1-0.7-0.2-1
			C955.5,485.2,955.5,485.2,955.5,485.3z"/>
		<path opacity="0.3" fill="#091426" enable-background="new    " d="M1277.7,822.5c-0.1,0.2-0.3,0.5-0.4,0.7c0.1,0,0.1,0.1,0.2,0.1
			C1277.6,823.1,1277.6,822.8,1277.7,822.5z"/>
		<path opacity="0.3" fill="#091426" enable-background="new    " d="M959.2,409.5c0.2,0.1,0.3,0.2,0.4,0.3c0.1-0.3,0.1-0.6,0.2-0.9
			c-0.1,0-0.3,0-0.4,0C959.4,409.1,959.3,409.3,959.2,409.5z"/>
		<path opacity="0.3" fill="#091426" enable-background="new    " d="M1287.7,621.7L1287.7,621.7c0.1-0.1,0.1-0.2,0.1-0.4
			C1287.7,621.4,1287.7,621.5,1287.7,621.7z"/>
		<path opacity="0.3" fill="#091426" enable-background="new    " d="M760.9,520.3c-0.2-12,1.9-23.2,6.2-33.9c0.2-1,0.5-2,0.8-3.1
			c-1.4,1.9-2.6,3.8-3.9,5.7c-0.4,0.8-0.8,1.6-1.2,2.4c-8.3,17.7-10.3,62.8,9.9,92.1c1.2,1.2,2.4,2.2,3.5,3.2
			c-3.8-7-6.5-14.8-8.6-21.8C763.5,550.7,761.1,535.3,760.9,520.3z"/>
		<path opacity="0.3" fill="#091426" enable-background="new    " d="M885.2,297.1l-20.4,13.5l-20.3,13.6
			c-13.5,9.2-27,18.4-39.8,28.6s-24.9,21.4-36.1,33.2c-11.2,11.9-21.7,24.5-31.7,37.5c-9.9,13-19.3,26.4-27.8,40.5
			c-8.5,14-16.1,28.5-22.9,43.4c-3.4,7.5-6.6,15-9.3,22.7c-0.7,1.9-1.3,3.9-2,5.8c-0.6,2-1.2,3.9-1.7,5.9c-1.2,3.9-2,7.9-2.8,11.9
			c3.5-7.4,6.6-15,9.7-22.4c3.1-7.5,6.1-15,9.5-22.4c6.8-14.7,14.4-29.1,22.9-42.9c8.4-13.9,17.8-27.1,27.7-40s20.1-25.5,31.2-37.3
			c11.1-11.8,22.9-22.9,35.6-33.1c6.3-5.1,12.8-9.9,19.4-14.7c6.6-4.8,13.3-9.4,20-14l20.2-13.8l20.1-13.9
			c13.4-9.3,26.8-18.5,40-28.1c-7.4,3.5-14.3,7.9-21.1,12.5L885.2,297.1z"/>
		<path opacity="0.3" fill="#091426" enable-background="new    " d="M897.4,322L883,337.8c5.7-4.3,11-9.1,16-14.3
			c5-5.2,9.7-10.6,14.2-16.1c4.5-5.6,8.8-11.3,12.8-17.2c3.9-6,7.9-12,10.2-18.9c-4,5.9-8.1,11.8-12.1,17.6
			c-4.1,5.8-8.4,11.5-12.8,17.1C906.8,311.4,902.1,316.7,897.4,322z"/>
		<path opacity="0.3" fill="#091426" enable-background="new    " d="M592.7,621.9l-0.7,6.4c-0.2,2.1-0.3,4.3-0.4,6.4
			c-0.2,4.3-0.4,8.6-0.4,12.8c-0.1,8.6,0,17.1,0.2,25.6c0.1,4.3,0.3,8.5,0.5,12.8s0.4,8.5,0.7,12.8l0.4-25.6
			c0.1-8.5,0.3-17.1,0.5-25.6c0.2-4.3,0.3-8.5,0.5-12.7s0.6-8.4,1-12.7c0.7-8.5,1.4-17,2-25.5C595,605,593.7,613.4,592.7,621.9z"/>
		<path opacity="0.3" fill="#091426" enable-background="new    " d="M641,865.9c-0.6-1.2-1.4-2.3-2-3.5l-3.7-7.1
			c-4.8-9.6-9.2-19.6-13-29.9c-0.3-0.7-0.5-1.5-0.8-2.2c-0.3,0.1-0.5,0.1-0.8,0.2c-3.4,0.7-7.5,2.2-11.3,3.8
			c0.1,0.7,0.2,1.4,0.3,2.2c0.4,2.8,1.1,5.6,1.9,8.4c0.8,2.7,1.8,5.3,2.6,8l0,0c-2.6-5.7-5.1-11.5-7.5-17.3c-1.1,0.5-2.2,1-3.2,1.5
			c2.4,5.8,4.9,11.6,7.4,17.3c3.1,6.7,6.3,13.3,9.7,19.9c1.3,2.6,2.7,5.2,4.1,7.8c0.6,0.7,1,1.1,1.1,1c0.2-0.1,9-4.5,16.6-7.3
			L641,865.9z"/>
		<path opacity="0.3" fill="#091426" enable-background="new    " d="M641.9,494c1.5-2.4,2.9-4.7,4.4-7.1c1.5-2.3,3.1-4.7,4.7-6.9
			c1.6-2.3,3.3-4.5,5-6.7c-1.3,0.7-2.5,1.6-3.5,2.6c-0.5,0.5-1.1,1-1.6,1.5s-1,1-1.4,1.6c-1.9,2.1-3.4,4.5-5,6.8
			c-1.5,2.3-3.1,4.7-4.6,7.1c-1.4,2.4-2.9,4.8-4.2,7.3c-5.5,9.8-10.2,20-14.3,30.4l-1.6,3.9c-0.5,1.3-0.9,2.6-1.4,4l-2.8,7.9
			c-1.6,5.4-3.5,10.6-4.8,16.1l-1.2,4l-0.6,2l-0.5,2l-1.8,8.2c-0.1,0.7-0.3,1.4-0.4,2.1l-0.3,2.1l-0.7,4.1c-0.5,2.8-1,5.5-1.4,8.3
			c-1.6,11.1-3.2,22.1-4.4,33.2l-0.9,8.3c-0.3,2.8-0.5,5.6-0.7,8.4c-0.2,2.8-0.4,5.6-0.7,8.4c-0.2,2.8-0.4,5.6-0.6,8.4
			c-0.6,11.2-1,22.4-1.1,33.6c-0.1,11.2,0.2,22.4,0.7,33.6l0.5,8.4l0.6,8.4l0.7,8.4c0.3,2.8,0.6,5.6,0.9,8.4
			c0.3,2.8,0.7,5.6,1.1,8.4c0.3,2.8,0.8,5.6,1.2,8.3c0.7,5.6,1.8,11.1,2.7,16.6c0.6,2.8,1,5.5,1.5,8.3c0.2,1.4,0.5,2.8,0.8,4.1
			l0.3,1.8c3.3-0.8,6.7-1.5,9.9-2.1c-1.4-4.6-2.8-9.2-4-13.9c-2.8-10.6-5.2-21.4-7.1-32.3c-0.4-2.7-0.9-5.4-1.3-8.2l-1.1-8.2
			L602,737c-0.3-2.8-0.5-5.5-0.7-8.3c-3.3-44.3-0.5-89.1,6.2-133.2c0.3-2.8,0.9-5.5,1.3-8.2l0.7-4.1l0.3-2c0.1-0.7,0.3-1.3,0.4-2
			c0.6-2.7,1.2-5.4,1.8-8.1l0.4-2l0.5-2l1.1-4c1.2-5.4,3.1-10.6,4.5-15.9c0.9-2.6,1.8-5.2,2.7-7.8c0.4-1.3,0.8-2.6,1.3-3.9l1.5-3.9
			c3.9-10.4,8.4-20.6,13.7-30.4C639.1,498.8,640.5,496.4,641.9,494z"/>
		<path opacity="0.3" fill="#091426" enable-background="new    " d="M689.7,946.5c16.5,13.9,39,26.9,58.8,37.9
			c-2.9-4.7-5.8-9.3-8.9-13.9c-3.6-5.3-7.7-10.4-12.1-15.2c-2.4-3.1-4.7-6.2-6.9-9.4c-3.6-5.6-7.3-11.1-11-16.6
			c-0.7-1.1-1.4-2.1-2.1-3.2c-0.3-0.5-0.6-0.9-0.9-1.4c-3.5-6.3-6.9-12.5-10.6-18.7c-29.5-56.3-43.8-119.9-49.5-183.4
			c-1.1-12.2-2.1-24.4-2.8-36.7c-0.4-6.4-0.7-12.9-0.9-19.3c-0.3-6.4-1.2-12.9-1.2-19.3c0-0.8-1.2-0.8-1.2,0
			c0,5.8-0.8,11.6-0.9,17.4c-0.1,5.8-0.1,11.6,0,17.4c0.1,11.6,0.4,23.2,1.1,34.8c1.5,22.4,4,44.8,8,66.9c7.3,41,19,81.3,37.5,118.8
			c7.4,15.1,15.9,29.7,25.4,43.6c0,0.5,0.2,1,0.7,1.3c0.2,0.2,0.4,0.3,0.5,0.5c3,6.3,5.9,12.6,9,18.8c-14.1-19-27.1-38.8-38.9-59.2
			c-6.7-11.7-12.9-23.6-18.9-35.7c-2.9-5.9-5.7-11.8-8.4-17.9c-0.3-0.6-0.5-1.2-0.8-1.8c-10.3-29.7-16.4-60.7-19.8-91.9
			c-2.5-22.9-3-45.7-3-68.7c0-2.7-4-2.6-4.1,0c-2.3,37.5,0.4,76.2,7.1,113.2c2.7-0.1,4.6,0.4,5.5,1.7c2.5,3.4,3.5,9.2,1.8,11.4
			c-0.6,0.7-2.2,1.4-4.3,2c3.4,15.6,8,30.8,13.4,45.6c4.4-1.3,6.3-1.5,8.1,0.5c2.3,2.7,3.2,6.3,2,8.1c-0.3,0.5-2.4,2.2-5.1,4.3
			c3.5,8.6,7.3,17.1,11.2,25.6c-0.5-0.7-1-1.5-1.6-2.2c-0.8-1.2-1.7-2.3-2.5-3.4l-2.4-3.2c-0.8-1-1.5-2.1-2.4-3.1
			c-0.8-1-1.6-2-2.5-3l-4.6-6.3l-0.3-0.5c-6.3,4.8-13.2,9.9-13.2,9.9S664.2,925.1,689.7,946.5z"/>
		<path opacity="0.3" fill="#091426" enable-background="new    " d="M585.9,762.6c-6.4-28.6-10.5-57.8-10.7-87.1
			c-0.2-14.7,0.8-29.3,1.6-44c0.4-7.1,0.8-14.2,1.3-21.2c0.3,2.8,0.8,5.5,2.4,8.2c1.1-6,0.6-11.8,0.8-17.8
			c0.1-5.9,0.4-11.8,0.9-17.7c0.9-11.8,2.4-23.5,5-35c5.2-22.9,13.6-45.1,23.9-66.4c2.6-5.3,5.3-10.5,8.1-15.7
			c0.7-1.3,1.4-2.6,2.2-3.8l2.3-3.7c0.8-1.2,1.7-2.4,2.5-3.6s1.6-2.4,2.5-3.6c7-9.5,14.4-18.7,22-27.8c9.8-11.6,20-23,30.8-33.7
			c13.1-11.5,28.2-24.5,45.2-39.7c-52.2,31.8-105.2,74.3-129,115.8c0,0-8.1-15.6-9.3-47c0,0-25.9,40.3-35.3,81
			c-9.4,40.7-18.9,96.3-12.1,147.7c6.8,51.3,12.8,78.6,24.6,112.8c6.3,18.3,12.7,32.3,17.3,41.5c-3.6-13.6-10.7-42.9-15.7-74
			c-6.7-42.8-5.3-94.5-5.3-94.5c-3.8,27.2-1,70.9-1,70.9S556.1,680,558,639s9.7-75.2,21.9-109.6c8-22.8,24.3-51.4,40.7-74.8
			c-0.3,0.5-0.5,0.9-0.8,1.4l-1.1,2l-1.2,2c-0.8,1.3-1.5,2.6-2.2,3.9c-2.9,5.2-5.6,10.6-8.1,15.9c-10.1,21.6-18.9,43.9-24.1,67.3
			c-1.3,5.9-2.3,11.8-3.1,17.7s-1.3,11.9-1.6,17.8c-0.2,4-0.4,8-0.5,12c-1.1,12.2-2.1,24.4-3.1,36.6c-0.5,7.3-1.1,14.6-1.6,22
			c-0.4,7.4-0.7,14.7-0.7,22.1c-0.1,29.5,3.7,59,10,87.8c1.5,7.2,3.2,14.4,5.2,21.5c0.4,1.8,1,3.6,1.5,5.3l1.6,5.3
			c1.1,3.5,2.3,7,3.5,10.5c0.7,2.1,1.5,4.3,2.3,6.4c1-0.3,2.1-0.5,3.3-0.8C594.2,795.6,589.3,779.3,585.9,762.6z"/>
		<path opacity="0.3" fill="#091426" enable-background="new    " d="M786.2,1005.3C736.3,947,721,870.5,710.5,796.6
			c-0.3-2.4-0.7-4.8-1-7.3c-0.1-0.8-0.1-1.7-0.2-2.5c-0.6-7.1-1.4-14.2-1.9-21.4c-1.1-14.6-2.5-29.3-3.4-43.9
			c-0.9-14.3-1.7-28.7-2-43.1c-0.1-7.2-0.6-14.4-0.6-21.5c0-3.6,0-7.2,0.1-10.8c0-3,0.4-5.5-1.1-8.2c-0.3-0.4-0.8-0.4-1.1,0
			c-3.2,4.7-2,13.4-2.2,18.9c-0.3,7.2-0.8,14.4-0.8,21.5c0,14.7,0.2,29.4,1,44c0.8,13.6,1.8,27.1,3.9,40.6
			c0.9,8.8,1.9,17.6,2.8,26.4c2.2,20.3,4.8,40.6,8.4,60.7c5.9,32.4,14.2,64.9,27.3,95.2c-2.9-5.3-5.8-10.7-8.5-16.2
			c-4.5-9.1-8.9-18.3-12.9-27.7c-1.4-8.9-6.7-17.5-9.8-25.7c-3.6-9.5-6.8-19.2-9.8-28.9c-6.2-20.1-10.5-41.1-12.2-62.1
			c-3.5-43.8-10.7-87.7-6.6-131.7c1.2-12.5,3.1-24.9,5.4-37.3c1.1-5.7,2.2-11.3,3.4-16.9c1.2-6.3,1.6-12.7,2.9-19.1
			c0.1-0.6-0.7-0.8-0.9-0.2c-3.1,10.8-6.7,21.2-9,32.3c-2,10.2-3.8,20.5-5.1,30.8c-2.8,22.4-3.3,45.1-2.8,67.7
			c1,44.1,5.2,87.6,15.4,130.5c2.7,11.4,6.1,22.6,10.1,33.6c2,5.5,4.1,11.1,6.4,16.5c1.3,3,2.5,6,4,8.8c4.1,11.5,8.5,22.8,13.8,33.8
			c9.5,19.6,20.9,38.4,34.1,55.7c7.2,3.9,13.7,7.6,19.3,10.8C780.1,1002.1,783.2,1003.8,786.2,1005.3z"/>
		<path opacity="0.3" fill="#091426" enable-background="new    " d="M790.2,975.9c-9-17.7-16.1-36.3-22.9-54.9
			c-6.5-17.7-11.9-35.8-16.7-54.1c-4.8-16.3-9-32.9-12.6-49.5c-0.9-4.1-1.7-8.1-2.5-12.2c-0.1-0.4-0.2-0.7-0.3-1.1
			c-0.1-0.4-0.8-0.3-0.7,0.1c1.5,15.5,5.2,31,8.7,46.1c3.7,16.1,7.8,32.1,12.7,47.9c4.8,15.5,10.7,30.5,16.3,45.7
			c0.1,0.2,0.1,0.4,0.2,0.5c-1.3-2.3-2.6-4.7-3.8-7c-4.8-9.3-9.2-18.9-13.1-28.6c-0.3-0.6-0.5-1.3-0.8-1.9c-0.9,0.8-2.6,0.7-3-0.7
			c-3.5-10.5-6.3-21.3-8.7-32.1c-2.4-7.6-4.6-15.2-6.6-22.9c-10.5-39.8-16.9-80.8-22-121.6c-1.6-12.8-2.9-25.6-3.8-38.4
			c-0.9-13.2-0.1-26.4-1.1-39.5c0-0.4-0.7-0.6-0.8-0.1c-2.2,10.9-1.4,22.6-1.1,33.7c0.3,11.9,1.5,23.7,2.8,35.5
			c2.3,21,5.1,42,8.3,62.9c6.3,41.2,15.7,82.5,31,121.4c4.1,10.4,8.6,20.5,13.5,30.5c4.9,9.8,9.9,20.5,17.1,28.9
			c3,7.1,6.2,14.1,9.9,20.9c5.9,10.8,12.9,21.2,20.7,30.9c3.4,1.3,6.4,2.2,8.7,2.8C808.4,1005.6,798.3,991.6,790.2,975.9z"/>
		<path opacity="0.3" fill="#091426" enable-background="new    " d="M750.7,866.9c-0.3-1.2-0.6-2.4-0.9-3.5
			c-4.9-19.3-8.1-39.3-14.2-58.2c0.8,4.1,1.6,8.1,2.5,12.2C741.6,834.1,745.8,850.6,750.7,866.9z"/>
		<path opacity="0.3" fill="#091426" enable-background="new    " d="M754.7,907c-4.3-10.8-8.2-21.7-11.7-32.8
			c2.4,10.8,5.2,21.6,8.7,32.1C752.2,907.7,753.9,907.7,754.7,907z"/>
		<path opacity="0.3" fill="#091426" enable-background="new    " d="M787.1,553.6c-4.4-7.1-7.6-14.9-9.7-23
			c-1.1-4.1-1.9-8.2-2.4-12.4c-0.3-1.9-0.4-3.9-0.6-5.9c0.2-4,0.5-8,1-12c0.8-7.1,2-14.2,3.4-21.3c0.3-1.3,0.6-2.7,0.9-4l0,0
			c5.1-11.8,11.5-22.8,19.2-32.9c0.8-0.9,1.5-1.8,2.3-2.8c2.6-2.4,5.2-4.7,7.8-7.1c11.1-7.6,27.7-19.3,50.5-33.4
			c26.5-16.4,32.1-22.5,49.9-41.6c17.8-19.1,27.4-41.2,27.4-41.2s-29.4,40.6-52.5,59.8c-23.1,19.2-63,43-63,43s29.6-25,43.8-37.2
			s47.8-38.7,66.5-62.2c15.2-19.1,15.5-39,15.1-45.8c-0.1,1.3-0.2,2.5-0.3,3.6c-0.6,5.3-2.1,10.4-4,15.3c-1.2,3.1-2.5,6.1-4,9.1
			c-1.6,4.5-3.4,8.8-5.5,12.3c-2.9,5.2-8.1,10.9-14.6,16.9c-4.2,4.6-8.7,8.9-13.5,12.9c-8.3,7.1-16.2,14.7-24.6,21.6
			c-1.4,1.2-3.6,0.2-3.6-1.4c-1.3,1-2.7,2-4,3c-24.5,18.2-46.5,30.7-76,47.5s-42.8,37.1-50.2,51.5c-5.4,10.5-10,25.1-11.1,42.9
			c0.4,0.4,0.5,1,0.4,1.7c-0.2,0.6-0.3,1.2-0.5,1.7c0,0.3,0,0.7,0,1c0.4,0.3,0.6,0.8,0.6,1.5c0,2.3-0.1,4.6-0.3,6.9
			c1.3,8.2,5.7,26,20.8,43.9c6.5,7.7,11.8,13.5,16.4,18c-20.2-29.3-18.2-74.5-9.9-92.1c0.4-0.8,0.8-1.6,1.2-2.4
			c1.2-2,2.5-3.9,3.9-5.7c-0.3,1-0.6,2-0.8,3.1c-4.3,10.8-6.4,22-6.2,33.9c0.3,15,2.6,30.4,6.8,44.7c2.1,7,4.8,14.8,8.6,21.8
			c3.2,2.8,6.1,5,8.9,6.6c-2.6-3.5-5-6.9-7.1-10.9c-3.3-6.4-5.8-13.1-7.8-20c-3.9-13.9-6.2-28.8-6.4-43.2
			c-0.2-15.1,3.7-28.6,10.7-41.7c0.1,0,0.2,0,0.2,0c-0.1,0.7-0.3,1.4-0.4,2.1c-1.3,6.8-2.4,13.6-3.2,20.5
			c-1.6,14.1-1.9,28.3,0.3,42.3c2.1,13.4,6.7,24.3,15.2,34.9c5.9,7.3,11.7,14.7,18.9,20.7c2-0.5,3.1-1.6,4.4-3.4
			c-7.4-5.6-13.5-12.8-19.4-19.9c-4-4.8-7.8-9.9-10.2-15.7c-2.5-6.2-3.9-12.9-4.8-19.5c-0.5-3.6-0.9-7.1-1.1-10.7
			c0.1,0.5,0.2,1,0.4,1.6c1.9,8.4,5,16.5,9.5,23.8c4.5,7.4,10.3,13.8,16.7,19.6c4.7,4.3,9.8,8.9,15.2,12.8c0.4-0.4,0.8-0.9,1.2-1.3
			c0.6-0.6,1.2-1.2,1.9-1.7c-4.9-3.6-10.2-6.9-14.9-10.8C797.7,567.2,791.7,560.9,787.1,553.6z"/>
		<path opacity="0.3" fill="#091426" enable-background="new    " d="M735.1,513.4c0,1.7-0.1,3.3,0,5.1c0.1,0.8,0.2,1.9,0.4,3.4
			c0.2-2.3,0.3-4.6,0.3-6.9C735.8,514.2,735.5,513.7,735.1,513.4z"/>
		<path opacity="0.3" fill="#091426" enable-background="new    " d="M735.3,508.9c-0.1,1.1-0.1,2.3-0.2,3.4
			c0.2-0.6,0.4-1.2,0.5-1.7C735.9,509.9,735.7,509.3,735.3,508.9z"/>
		<path opacity="0.3" fill="#091426" enable-background="new    " d="M880.3,365.5c8.4-6.9,16.3-14.6,24.6-21.6
			c4.8-4.1,9.3-8.3,13.5-12.9c-11.4,10.6-26.9,22-41.8,33.1C876.7,365.6,878.8,366.6,880.3,365.5z"/>
		<path opacity="0.3" fill="#091426" enable-background="new    " d="M946.4,277.3c0.1-1.1,0.3-2.3,0.3-3.6
			c-0.1-1.6-0.2-2.5-0.2-2.5s-2.9,16.2-8,30.5c1.4-3,2.8-6,4-9.1C944.3,287.6,945.8,282.5,946.4,277.3z"/>
		<path opacity="0.3" fill="#091426" enable-background="new    " d="M818.2,525.9c-2.9-10.5-3-21.3-1.4-32c0.8-5.3,1.8-10.8,3.3-16
			s4.9-10,5.7-15.3c0.1-0.3-0.4-0.7-0.6-0.4c-3.1,3.7-4.3,9.1-6,13.5c-2.2,6-4.4,11.9-5.5,18.2c-2,10.8-2.1,22.3,0.4,33.1
			c4.3,18.6,17,32.9,31.6,44.4c2.1-0.6,4.2-1.3,6.3-1.8C836.7,558.5,823.3,544.6,818.2,525.9z"/>
		<path opacity="0.3" fill="#091426" enable-background="new    " d="M862.1,448.3c11-19.9,27.3-35.9,42.9-52.1
			c15.5-16.2,30-33,40.3-53.2c5.4-10.7,9.7-21.9,12.7-33.5c3-11.4,5.7-23.9,2.1-35.4c-0.1-0.4-0.8-0.3-0.7,0.2
			c3.7,11.6-1.1,25.8-4.4,37.1c-3.4,11.5-8,22.8-13.7,33.3c-11,20.5-26.6,37.1-42.9,53.4c-15.7,15.7-31.4,31.9-41.3,52
			c-8.9,18.2-13.8,38.3-14,58.6c-0.2,20.7,4.4,41.2,13.2,59.8c1.3-0.3,2.5-0.6,3.8-0.9C841.4,531,842.2,484.2,862.1,448.3z"/>
		<path opacity="0.3" fill="#091426" enable-background="new    " d="M888.6,536.7c-4.6-15.2-4.8-31.9-3.2-47.6
			c1.6-15.9,5.5-31.5,10.9-46.5c2.8-7.8,6-15.5,9.5-23c3-6.6,6.7-13,9.3-19.7c0-0.1,0-0.1,0-0.2c10.6-14,21.7-27.7,32.1-41.9
			c12.5-17,21.9-36.1,18.1-57.7c-0.1-0.5-0.8-0.3-0.7,0.2c3.4,21.9-9.3,42.2-22,58.9c-12.5,16.4-25.8,32.2-37.7,49
			c-22.4,31.4-42,67.7-41.7,107.4c0.1,14.9,3.1,29.9,9.2,43.5c1.3,1.8,2.7,3.6,3.9,5.5c1.3-0.2,2.6-0.3,3.8-0.5
			c-18.4-32.2-14.6-71.9-0.7-105.4c6.8-16.4,15.9-31.4,26-45.7c-5.3,10.4-9.4,21.7-13,32.3c-5.1,15.3-8.8,31.3-10,47.4
			c-1.8,24.5,1.9,51.2,17.5,70.4c1.2,0,2.3,0,3.5,0C896.8,555.5,891.7,546.9,888.6,536.7z"/>
		<path opacity="0.3" fill="#091426" enable-background="new    " d="M875.3,564.7c0.4-0.1,0.8-0.1,1.1-0.2
			c-1.2-1.9-2.6-3.7-3.9-5.5C873.3,560.9,874.3,562.8,875.3,564.7z"/>
		<path opacity="0.3" fill="#091426" enable-background="new    " d="M1033.8,554.4c-8.9-6.2-16.9-13.9-23.3-22.7
			c-6.6-9.1-11.8-19.2-15.7-29.7c-4-10.7-7.6-22.4-8.2-33.9c-0.6-12.3,3.8-24.1,8.3-35.3c4.5-11.2,9.4-22.2,14.8-33
			c5.1-10.3,10.6-20.5,15.2-31.1c3.9-8.9,5.8-17.7,2.3-27c-4.1-10.9-12.6-20.5-19.4-29.8c-7.6-10.2-15.5-21-24.7-29.8
			c-0.5-0.5-1.2,0.2-0.9,0.7c0.2,0.3,0.4,0.6,0.7,0.8c3.4,4.3,7.1,8.4,10.8,12.4c4.7,5.1,8.7,10.9,12.9,16.5
			c6.7,9.1,14.2,19,18.1,29.7c4.6,12.5-1.4,23.4-6.8,34.5c-5.4,11-11,21.9-16.5,32.8c-9.7,19.1-21.7,41.7-17.3,63.6
			c4.3,21.1,11.7,42.1,24.3,59.8c2,2.8,4.1,5.5,6.4,8.2c0.7,0.6,1.4,1.3,2.1,1.9c4.2,3.8,9.2,6.9,13.1,11c2.1,2.2-0.6,5.4-3.1,4.1
			c-5.4-2.8-10.1-7.6-14.7-11.5c-4.6-3.9-8.9-8.1-12.9-12.4c-8.3-8.9-16-18.7-21.7-29.4c-4.4-8.2-8-17.1-10.3-26.2
			c0-0.1-0.1-0.2-0.1-0.4c-7.9-21.4-8.4-43.1-0.2-64.4c5.5-14.2,12.6-27.8,18.4-41.9c2.4-8.3,4.8-16.6,6.8-25
			c1.3-5.3,2.4-10.6,2.9-16c0.2-12.2-2.3-24.3-8.6-35.3c-0.2-0.3-0.7,0-0.5,0.3c10.7,19.3,7.9,42.9,1.3,63.2
			c-6.4,19.5-16.9,37.3-23.8,56.6c0.3-1.7,0.6-3.3,0.9-5c3.8-20.5,10.4-40.3,14.5-60.8c3.9-19.6,5.7-43.4-5.6-61.1
			c-0.3-0.4-1-0.1-0.8,0.3c0.9,2.5,1.8,4.9,2.6,7.4c-0.3-0.1-0.7,0-0.5,0.4c6.5,20.2-0.9,42-7.6,61.2c-1.5,4.2-3,8.4-4.5,12.7
			c-1.7,7.2-3.7,14.5-6.6,21.2c-0.2,0.5-0.5,0.9-0.9,1.1c-3.4,10.7-8.7,21-13.2,30.5c-4,8.4-8.2,17-11.5,25.8
			c-1.9,7.5-2.9,15.2-3.4,22.9c-1,15.5-0.6,31.8,3.3,47c3.2,5.5,6.3,11,9.7,16.4c2.7,4.4,5.6,8.7,9.1,12.5c3.1,3.4,7.3,5.6,10.3,8.9
			c1,1.1,1,2.5,0.3,3.6c0.3,0.1,0.7,0.2,1,0.4c0.8,0.3,1.4,0.7,1.8,1.3c8.2-1.3,4.1-3.1-2.1-7.8c-7.5-5.8-25.5-16-29-59.3
			s12-67,12-67s-2.8,36.8,5,65.7c7.5,27.7,25.1,56.9,42.6,64.3c-0.8-0.9-1.5-1.8-2.3-2.8c0.7-0.8,0.9-1.9,0.1-3.1
			c-5.8-8.5-11-17.3-15.8-26.3c0.9,1.3,1.7,2.5,2.6,3.8c8.7,12,19,22.5,30.2,32.2c3.3,0.6,6.8,1.1,10.5,1.5
			c-28-22.6-53.1-51.2-57.2-88.2c-0.8-6.9-0.9-13.9-0.6-20.9c3,28.9,19.2,57,37.2,79.1c7,8.7,15.2,16.7,24.8,22.6
			c5.8,3.6,12,6.6,18.3,9.5c6.9,0.4,13.9,0.7,20.7,0.8C1050.2,563.4,1041.8,560,1033.8,554.4z M955.5,485.3c0,0,0.1,0,0.1-0.1
			c0.1,0.3,0.1,0.7,0.2,1C955.7,485.9,955.6,485.6,955.5,485.3z M959.6,409.8c-0.1-0.1-0.3-0.2-0.4-0.3c0.1-0.2,0.2-0.4,0.2-0.6
			c0.1,0,0.3,0,0.4,0C959.8,409.2,959.7,409.5,959.6,409.8z"/>
		<path opacity="0.3" fill="#091426" enable-background="new    " d="M960.6,561.2c-0.3-0.1-0.7-0.2-1-0.4c0.6-1,0.6-2.5-0.3-3.6
			c-3-3.4-7.2-5.6-10.3-8.9c-3.5-3.8-6.4-8.1-9.1-12.5c-3.3-5.4-6.4-10.9-9.7-16.4c1,3.8,2.1,7.5,3.6,11.1
			c5.2,13.1,13.7,24.6,25.2,32.4c1.4-0.2,2.6-0.3,3.6-0.5C962,561.9,961.4,561.5,960.6,561.2z"/>
		<path opacity="0.3" fill="#091426" enable-background="new    " d="M982.2,282.9c0.2,0.3,0.4,0.5,0.6,0.8
			C982.6,283.4,982.3,283.1,982.2,282.9C982.1,282.9,982.1,282.9,982.2,282.9z"/>
		<path opacity="0.3" fill="#091426" enable-background="new    " d="M954.9,393.2c0.3-0.2,0.7-0.5,0.9-1.1c2.9-6.7,4.8-14,6.6-21.2
			c-5.6,15.5-11.6,30.8-18.7,45.7c-4.2,8.7-8.6,17.4-11.7,26.6c-0.7,2.1-1.3,4.1-1.8,6.3c3.4-8.8,7.5-17.3,11.5-25.8
			C946.2,414.2,951.4,403.9,954.9,393.2z"/>
		<path opacity="0.3" fill="#091426" enable-background="new    " d="M999,534.3c4.1,4.4,8.4,8.6,12.9,12.4
			c4.6,3.9,9.4,8.7,14.7,11.5c2.6,1.4,5.2-1.9,3.1-4.1c-3.9-4.1-8.9-7.2-13.1-11c-0.7-0.6-1.4-1.3-2.1-1.9
			c4.6,5.3,9.7,10.4,15.3,14.8c-11.1-5.6-21.3-12.6-29.7-22.3c-13.7-15.9-25.9-35.3-33.3-55c2.3,9.1,5.9,18,10.3,26.2
			C983,515.6,990.7,525.5,999,534.3z"/>
		<path opacity="0.3" fill="#091426" enable-background="new    " d="M985.2,372.1c2.2-5.4,4.2-10.8,5.8-16.4
			c2.4-8,3.8-16.4,3.9-24.7c-0.5,5.4-1.7,10.7-2.9,16C990,355.5,987.6,363.8,985.2,372.1z"/>
		<path opacity="0.3" fill="#091426" enable-background="new    " d="M1047.1,541.1c-6.4-6.1-12-13.3-16-21.3
			c-4.1-8.1-5.9-16.7-7.3-25.6c0.1-8.4,2.1-16.9,5-24.7c4.1-11,10.2-21,16.2-31c5.7-9.5,11-19.3,15.5-29.5c4-9,7.1-20,5-29.8
			c-2.1-10-9.8-19.2-15.6-27.3c-7-9.7-14.5-19-22.3-28.1c-8.2-9.6-16.7-19.5-26.4-27.7c-0.4-0.3-0.9,0.2-0.6,0.6
			c7.8,8.6,16,16.6,23.6,25.5c7.7,9,14.7,18.4,21.3,28.2c6.7,9.9,15.6,20.7,16.1,33.1c0.4,11.7-4.4,24.5-9.5,34.8
			c-9.6,19.7-22.7,37.7-29.1,58.8c-3.1,10.1-4.8,20.6-3,31.1c1.7,10.3,7.3,19.8,13.4,28.1c6.2,8.3,13.5,15.6,21.6,21.9
			c2,1.1,4,2.2,6.1,3.2c0.8,0.4,1.2,1.2,1.2,1.9c1.6,1.1,3.3,2.1,4.9,3.1c3.8,0,7.5,0,11-0.1c4-0.1,8.1-0.4,12-1
			C1074.6,559.6,1059.6,553,1047.1,541.1z"/>
		<path opacity="0.3" fill="#091426" enable-background="new    " d="M1061.2,561.5c-2-1-4.1-2.1-6.1-3.2c2.3,1.8,4.8,3.5,7.2,5.2
			C1062.4,562.6,1062,561.9,1061.2,561.5z"/>
		<path opacity="0.3" fill="#091426" enable-background="new    " d="M975.1,282.5c-0.3-0.1-0.5-0.3-0.8-0.4
			c-0.1-0.1-0.2,0.1-0.1,0.2c0.3,0.1,0.5,0.3,0.8,0.4C975.1,282.7,975.2,282.6,975.1,282.5z"/>
		<path opacity="0.3" fill="#091426" enable-background="new    " d="M981.8,291c0.1,0.2,0.5,0.1,0.4-0.2c-1-2.7-2.7-4.8-5-6.5
			c-0.3-0.2-0.7,0.3-0.4,0.5C978.9,286.4,980.5,288.6,981.8,291z"/>
		<path opacity="0.3" fill="#091426" enable-background="new    " d="M1035.7,310.4c7.2,6,14.4,12,21,18.7
			c7,6.9,14.4,13.9,20.7,21.4c0.2,0.3,0.6-0.1,0.4-0.4c-6.3-7.9-12.2-15.6-19.3-22.8c-7-7-14.1-14.1-21.8-20.3
			c-15.1-12.4-31.7-22.5-48.9-31.6c-0.5-0.2-0.8,0.4-0.4,0.7C1004.6,285.9,1020.5,297.8,1035.7,310.4z"/>
		<path opacity="0.3" fill="#091426" enable-background="new    " d="M1196.3,552.1c-10.3-6.3-20-13.5-29-21.6
			c-9.1-8.2-17-17.3-23.4-27.8c-6.3-10.3-11.2-21.4-16.1-32.4c-0.1-0.2-0.3-0.2-0.4-0.2c-1.8-5.7-3.4-11.5-4.9-17.1
			c-11.9-45.3-20.2-93.8-50.4-131.3c-16.7-20.7-38-34-60.6-47.6c-0.3-0.2-0.6,0.3-0.3,0.5c5.5,3.4,10.8,6.9,16.1,10.6
			c1.4,0.9,2.7,1.8,4,2.8c5.6,4,11,8.3,16.2,12.7c6.9,5.8,13.6,11.9,19.9,18.4c10.4,10.6,18.1,24,24.3,38c0.1,0.2,0.3,0.5,0.4,0.7
			c8.3,16.4,13.8,33.8,18.7,51.4c2.8,9.8,5.3,19.6,7.7,29.5c1.2,5,2.4,9.9,3.7,14.9c0.8,3.3,1.9,6.6,1.8,10c0.2,0.6,0.3,1.2,0.5,1.7
			c3.8,12.8,7.5,25.6,12.7,37.9c4.7,11,10.6,21.7,18.1,31c7.3,9.1,16.2,15.9,25.2,23.1c0.6,0.5,0.8,1.1,0.7,1.7c1-0.1,2-0.2,3-0.3
			c-28.2-19.9-44.6-51.9-55.3-84.6c9.2,21.6,19.3,41.7,36.7,58.1c8.8,8.3,18.3,15.8,28.3,22.4c1.9,1.3,3.9,2.6,5.9,3.8
			c3.5,0.9,8.6,2,14.8,2.8C1208.3,558.5,1202.1,555.6,1196.3,552.1z"/>
		<path opacity="0.3" fill="#091426" enable-background="new    " d="M1027.2,285.3c7,4.9,13.7,10.1,20.2,15.5
			c-5.2-4.5-10.5-8.8-16.2-12.7C1029.9,287.2,1028.5,286.2,1027.2,285.3z"/>
		<path opacity="0.3" fill="#091426" enable-background="new    " d="M1180.3,557.5c-9-7.3-17.9-14-25.2-23.1
			c-7.5-9.4-13.4-20-18.1-31c-5.2-12.3-9-25.1-12.7-37.9c-0.2-0.6-0.3-1.1-0.5-1.7c0.1-3.4-1-6.7-1.8-10c-1.2-5-2.4-9.9-3.7-14.9
			c-2.4-9.9-5-19.7-7.7-29.5c-5-17.6-10.4-35-18.7-51.4c-0.1-0.2-0.3-0.5-0.4-0.7c3.8,8.6,6.9,17.4,9.7,26
			c14.8,45.5,19.1,95.8,43.5,137.9c8.5,14.7,19.5,28.1,32.9,38.5c1.1-0.1,2.3-0.2,3.4-0.3C1181.1,558.6,1180.9,558,1180.3,557.5z"/>
		<path opacity="0.3" fill="#091426" enable-background="new    " d="M1164.3,559.5c-1.9-0.8-3.8-1.5-5.7-2.3
			c-7.1-2.8-14.3-5.6-21.4-8.4c-13.9-5.5-28.6-10.1-41.9-17.1c-23-12.2-38.9-37.1-37.6-63.5c0-0.5-0.7-0.5-0.8,0
			c-1.7,25.4,9.3,50.1,31,63.9c12.7,8.1,27.5,13.2,41.4,18.7c5.2,2.1,10.5,4.2,15.7,6.3C1150.4,558.1,1157,559.1,1164.3,559.5z"/>
		<path opacity="0.3" fill="#091426" enable-background="new    " d="M1081.9,289.2c-22.3-9.7-45.7-17.1-69-23.5
			c6,2.1,11.9,4.4,17.8,6.9c22.9,7.9,45.8,15.8,67.5,27c25,12.9,48.1,30.2,65,53c7.8,10.6,14.3,22.4,18.3,34.9
			c5,15.5,6.1,31.7,7.2,47.8c1.5,21,3.8,42.6,10.7,62.6c3.5,7.8,7.5,15.4,11.8,22.9c2.4,4.2,4.8,8.4,7.5,12.4
			c5.1,6.3,10.8,12,17.1,17.1c2,1.2,4.1,2.4,6.2,3.5c1.8,0.8,3.6,1.6,5.4,2.4c1.3,0.6,1.6,1.9,1.3,3.2c1.3,0.8,2.7,1.6,4.1,2.4
			c2.3-0.3,4.5-0.6,6.6-0.9c-19.8-9.2-36.6-23.9-47.8-43c-14.2-24.3-17.7-52.3-19.8-79.8c-0.6-2.3-1.1-4.7-1.6-7.1
			c-0.9-4.2-1.8-8.3-2.7-12.5c-0.8-3.8-0.8-7.5-1.2-11.4c-0.1-0.7,0.9-0.7,1.1-0.1c0.7,2,1.5,3.8,2.2,5.7c-0.3-2.4-0.6-4.7-1-7
			c1,4,1.8,8.1,2.7,12.2c0.1,0.5,0.3,1,0.4,1.5c0.9,3.5,1.7,7.1,2.6,10.6c1.9,7.6,3.6,15.3,5.6,22.8c4.2,15.4,9.4,30.7,17.1,44.7
			c0.6,1,1.1,2,1.7,3c3.8,6,7.9,11.7,12.5,17c3.5,4.1,7.5,8.3,11.9,12.4c6,5.1,12.6,9.4,19.6,12.6c-3-2.4-5.7-5.2-8.2-8.1
			c-0.4-0.3-0.8-0.5-1.2-0.8c-6.8-4.4-12.7-9.8-18.3-15.7c-11.2-12-19.9-26.1-26.1-41.2c-13.1-32-12.6-67.9-26.7-99.5
			c-8.3-18.4-21.9-33.3-35.3-48.1c-0.4-0.4-1,0.2-0.7,0.6c-8.8-8.2-18.4-15.5-28.6-21.9C1106.2,301,1094.2,294.8,1081.9,289.2z"/>
		<path opacity="0.3" fill="#091426" enable-background="new    " d="M1012.4,265.6c-0.4-0.1-0.5,0.5-0.2,0.6
			c6.1,2.2,12.3,4.3,18.5,6.4c-5.9-2.5-11.8-4.8-17.8-6.9C1012.7,265.7,1012.5,265.6,1012.4,265.6z"/>
		<path opacity="0.3" fill="#091426" enable-background="new    " d="M1247.4,556.3c-1.9-0.8-3.7-1.6-5.4-2.4
			c-2.1-1.1-4.2-2.3-6.2-3.5c4.1,3.3,8.4,6.4,12.9,9.1C1249,558.3,1248.7,556.9,1247.4,556.3z"/>
		<path opacity="0.3" fill="#091426" enable-background="new    " d="M1199.4,497.9c2.4,7,5.3,13.7,9,20.2c3,5.3,6.4,10.4,10.3,15.1
			c-2.7-4-5.1-8.2-7.5-12.4C1206.9,513.4,1202.9,505.8,1199.4,497.9z"/>
		<path opacity="0.3" fill="#091426" enable-background="new    " d="M1262.8,542.6c-7.1-3.2-13.6-7.5-19.6-12.6
			c8.6,7.9,18.6,14.9,29,17.8c1.7,0.5,2.8-2,1.2-2.9c-6.2-3.6-12.7-6.6-18.8-10.4C1257.1,537.4,1259.8,540.1,1262.8,542.6z"/>
		<path opacity="0.3" fill="#091426" enable-background="new    " d="M1186.4,407.2c0.3,3.9,0.4,7.5,1.2,11.4
			c0.9,4.2,1.8,8.3,2.7,12.5c0.5,2.4,1,4.7,1.6,7.1c-0.2-3.2-0.5-6.4-0.7-9.5c-0.4-5.3-0.8-10.6-1.5-15.9c-0.7-1.9-1.4-3.7-2.2-5.7
			C1187.3,406.5,1186.3,406.6,1186.4,407.2z"/>
		<path opacity="0.3" fill="#091426" enable-background="new    " d="M1107.3,301.7c-8.2-4.6-16.7-8.7-25.4-12.5
			c12.3,5.6,24.3,11.8,35.8,18.7C1114.3,305.7,1110.8,303.7,1107.3,301.7z"/>
		<path opacity="0.3" fill="#091426" enable-background="new    " d="M1199.9,452.8c-2-7.6-3.8-15.2-5.6-22.8
			c-0.9-3.5-1.7-7.1-2.6-10.6c-0.1-0.5-0.3-1-0.4-1.5c0.8,3.9,1.6,7.8,2.3,11.7c3.3,16.6,6.9,33.1,13.5,48.7
			c3.3,7.7,7.1,15.1,11.6,22.2c-0.6-1-1.2-2-1.7-3C1209.3,483.5,1204.1,468.2,1199.9,452.8z"/>
		<path opacity="0.3" fill="#091426" enable-background="new    " d="M1204.8,318.7c4.7,4,8.6,8.6,12.1,13.7
			c7.2,10.4,13.8,21.1,20.7,31.7c6.8,10.4,13.5,20.9,20.3,31.3c2.9,4.4,5.7,8.9,8.6,13.4c-2.6-6-5.3-12.2-8.2-18.7
			c-7-10.5-14.2-21-21.1-31.5c-7.1-10.7-13.8-21.7-21.6-31.8c-4.4-5.8-10.7-12.2-17.4-16.3c-0.1,1-0.2,2.1-0.3,3.2
			C1200.2,315.2,1202.6,316.8,1204.8,318.7z"/>
		<path opacity="0.3" fill="#091426" enable-background="new    " d="M1284.5,500.2c1.9,6.9,3.6,13.8,5.1,20.8
			c0.3,0.9,0.6,1.8,0.9,2.6c5,15.2,8.3,30.7,10.5,46.6c1.1,8,2.2,16,3.2,23.9c0.8,6.1,2.7,13.1,2.4,19.6c0,0.1,0,0.3,0.1,0.4
			c1.3,8.6,2.5,17.2,3.3,25.9c1.1,3.9,2.4,7.8,3.8,11.6c-0.1-1.5-0.1-3-0.2-4.5c-8.6-43.4-11.2-87.9-21.4-130.9
			c-1.8-6.6-3.7-13.1-5.7-19.6c-9.7-31.5-22.2-62-38.7-90.6c-8.4-14.5-17.4-28.6-26.8-42.4c-4.6-6.6-9.2-13.2-13.9-19.8
			c-4.2-5.9-8.9-11.8-12.5-18.1c-0.3,0.6-0.6,1.1-1,1.6c25.5,34.4,49.6,69.5,67.2,108.7C1270.2,456.9,1278.4,478.2,1284.5,500.2z"/>
		<path opacity="0.3" fill="#091426" enable-background="new    " d="M1221,363.6c9.4,13.8,18.5,27.9,26.8,42.4
			c16.5,28.5,29,59.1,38.7,90.6c2,6.5,3.9,13.1,5.7,19.6c-0.8-3.4-1.7-6.9-2.6-10.3c-11.8-44-31.7-85.6-55.7-124.2
			c-12.1-19.4-24.9-38.6-39.1-56.5c-0.1,0.2-0.2,0.3-0.2,0.5c3.6,6.3,8.3,12.2,12.5,18.1C1211.8,350.4,1216.5,357,1221,363.6z"/>
		<path opacity="0.3" fill="#091426" enable-background="new    " d="M1306.7,613.7c0.3-6.4-1.6-13.4-2.4-19.6
			c-1.1-8-2.1-16-3.2-23.9c-2.3-15.9-5.5-31.4-10.5-46.6c-0.3-0.9-0.6-1.8-0.9-2.6c3.6,16.9,6.2,33.9,8.3,51.1
			c2.9,23,5.7,45.8,12.2,67.9c-0.9-8.7-2-17.3-3.3-25.9C1306.7,614,1306.7,613.8,1306.7,613.7z"/>
		<path opacity="0.3" fill="#091426" enable-background="new    " d="M1292.8,820c0.2-1.3,0.4-2.6,0.5-3.8
			c1.3-8.1,2.7-16.2,3.9-24.3c2.9-18.6,4.5-37.2,4.8-56.1c0.7-36.4,1.2-72.9-0.8-109.2c-0.6-5.8-1.2-11.6-1.8-17.3
			c-0.5-4.6-1-9.2-1.4-13.7c-0.2-1.9-0.3-3.7-0.2-5.4c-0.8-6.1-1.7-12.2-2.5-18.3c-0.7-5.5-1.6-10.9-2.5-16.3
			c-0.3-1.2-0.6-2.4-1-3.5c-0.1-0.4-0.8-0.4-0.9,0c-0.1-0.4-0.2-0.8-0.3-1.2c-0.3-0.9-1.6-1.2-2.2-0.5c-0.5-1.2-1.2-2.6-2.4-4.2
			c-6-8.4-18.1-32.4-21.6-53s-9-63.5-24-84.8s-34.4-54.5-67.5-79.5c0,0,4.5,3.3,8.4,1c-9-5-21.1-21-52.7-35.4
			c-41-18.7-82.2-36.3-114.4-43.3l6.6-5.9c0,0-21.8-5.8-69.6-9.8s-111.3,9.4-131,31.7l22,29.4c0,0,7.8,1.5-14.8,10.8
			s-64.2,36-82.5,46.5s-37.9,34.4-55.5,59.2s-17.2,37.2-14.3,32.2s11-22.2,30.3-46.5s46.5-44.5,46.5-44.5s-26,28.2-38.2,43.5
			s-28.5,36-40.8,58.5s-23.5,59.5-23.5,59.5c5.2-11.5,18.6-50,41.8-81s36.5-56.3,73-85.8s85.6-47.8,102.2-56.8s59.9-23.8,67.5-29.2
			s-5.4,1.1-18.2,5.8S873,286.9,859,289s-16.2,3.2,2.6-4.5c18.9-7.7,48.9-14.3,59.4-21.2s15.8-9.9,3.2-5.5s-12.1,6.2-45.9,15.6
			c-33.8,9.3-26.8,10.2-23.6,1.9s14.8-9.9,31.2-13.5s37.9-3.5,40.7-7.5s-44,1.5-44,1.5s2.8-5,16.8-8.7s20.7-2.1,27.2,1
			s14.3,8.7,18,7.7c3.8-1,1.8-5.1,0-8.7s-2.8-5.2,5.5-4.2s14.2,6,14.2,6s-9.5,1.5-12,3.8s3.2,2.4,11,0s20-2.9,21.8-2.8
			s-0.5,2-7.2,3.2s-6.6,4.8,2,2.8s32.4-1.4,69.9,11.3c37.5,12.7,75.7,33.2,91.4,44.7c15.6,11.5,46.6,34.6,66.2,59.2
			c2.2,2.8,4.4,5.6,6.6,8.4c7.1,8.5,13.6,17.4,19.2,26.9c2.3,3.9,4.4,8,6.3,12.1c5.1,10,9,20.1,10.9,30.2c5,26.4,6,42.1,13.5,62.5
			c7.4,20.1,19.6,38,21.6,42.2c-0.3,0.2-0.5,0.4-0.7,0.7c0.5-0.3,0.7-0.5,0.7-0.5s-0.6,29.6-6.2,69.2c-5.5,39.1-11.6,73.8-11.6,73.8
			c-0.3,0.5,11,14.9,19.6,31.3c2.2,4.3,4,9.2,5.2,14.4c4.2-30.4,3.9-61.4,3.2-91.9c-0.4-16.5-0.9-33-1.7-49.6
			c-0.4-8.6-0.8-17.2-1.3-25.8c-0.2-3-0.2-6.1-0.3-9.2c0.7,5,1.5,10,2.1,15c1.2,9.9,2.2,19.8,2.9,29.7c1.5,19.6,2,39.2,2.2,58.9
			c0.2,31.2,0.9,63-1.8,94.2c-4.7,23-7.2,46.5-10.5,69.8c-0.8,4.4-1.5,8.8-1.9,13.1c-2.1,13.4-4.6,26.7-8,39.9
			c-5,19-11.1,37.9-17.8,56.4c-3.4,9.2-7,18.2-11.4,26.9c-2.2,4.4-5,8.6-7.7,12.8c1.7-0.6,3.8-2.3,6-5.4c1-1.4,2.5-3.5,4.5-6.3
			c2.2-4.4,4.2-8.9,6.1-13.4c1.7-4,3.3-8,4.8-12.1c4.8-16.3,11.1-32.2,16-48.5c2.3-7.7,4.5-15.4,6.5-23.1c0.4-1.8,0.8-3.7,1.1-5.5
			C1288.8,852.1,1290.7,836,1292.8,820z M1287.7,621.7c0-0.1,0-0.2,0.1-0.4C1287.8,621.4,1287.8,621.6,1287.7,621.7L1287.7,621.7z"
			/>
		<path opacity="0.3" fill="#091426" enable-background="new    " d="M1214.1,379.4c9.7,12.6,18.7,25.7,25.5,38.9
			c-1.9-4.1-4-8.1-6.3-12.1C1227.7,396.9,1221.2,387.9,1214.1,379.4z"/>
		<path opacity="0.3" fill="#091426" enable-background="new    " d="M1297.9,590.1c-0.1,1.7,0.1,3.5,0.2,5.4
			c0.4,4.6,0.9,9.2,1.4,13.7c0.6,5.8,1.2,11.6,1.8,17.3c-0.2-3.2-0.3-6.3-0.6-9.5c-0.7-10.9-1.6-21.8-3-32.6
			c-1.2-9.6-2.4-19.6-4.9-29c1,5.4,1.8,10.8,2.5,16.3C1296.2,577.9,1297,584,1297.9,590.1z"/>
		<path opacity="0.3" fill="#091426" enable-background="new    " d="M1262.1,945.2c3.9-10.2,7.4-20.5,10.9-30.8
			c4.5-13.5,8.7-27,11.7-40.9c-2,7.8-4.2,15.5-6.5,23.1C1273.2,913,1266.9,928.9,1262.1,945.2z"/>
		<path opacity="0.3" fill="#091426" enable-background="new    " d="M1241.7,934.9c5.4-8.2,9.1-17.5,12.9-26.6
			c5.6-13.2,10.6-26.6,15-40.3c6.1-18.7,11.5-38.1,15-57.6c0.6-1,1.2-2,1.8-3.1c1.4-2.3,1-4.6-0.2-6.2c0.2-1.4,0.4-2.9,0.6-4.3
			c-10.9,21.7-45.3,60.6-72.5,81c0,0,16.4,11.9,23.7,37.4C1240,922.2,1241.1,928.8,1241.7,934.9z M1277.7,822.5
			c-0.1,0.3-0.1,0.6-0.2,0.9c-0.1,0-0.1-0.1-0.2-0.1C1277.4,823,1277.6,822.7,1277.7,822.5z"/>
	</g>
</g>
</svg>
