<?xml version="1.0" encoding="utf-8"?>
<!-- Generator: Adobe Illustrator 23.0.3, SVG Export Plug-In . SVG Version: 6.00 Build 0)  -->
<svg version="1.1" id="Layer_1" xmlns="http://www.w3.org/2000/svg" xmlns:xlink="http://www.w3.org/1999/xlink" x="0px" y="0px"
	 viewBox="0 0 2000 2000" enable-background="new 0 0 2000 2000" xml:space="preserve">
<g>
	<g id="Masked">
		<g id="_x31_3_x5F_Hair_x5F_DipDyed_x5F_back_x5F_flat_x5F_Main_Asset">
			<path fill="#9F592A" d="M1296.8,683.1c-7.5-15-20.2-38.6-20.2-38.6s-0.9,5.6-5,22.8s-3.9,23.4-2.4,28.8
				c1,3.7,11.3,19.2,16.1,26.6c9.6-4.3,15.6-8.1,25.8-11C1305.6,700.6,1300.2,689.9,1296.8,683.1z"/>
			<path fill="#9F592A" d="M1333.6,756c-5.6-10.9-11.1-21.9-16-31.5c-10.2,2.1-18,4.5-27.6,8.9c3.3,6.9,6.9,16.7,7.3,31.2
				c14.2-1.9,25.8-1.2,39.9-1.5C1336,760.7,1334.8,758.3,1333.6,756z"/>
			<path fill="#9F592A" d="M1399.6,927.3c-3.6-25.9-15-50.9-25.8-83c-7.2-21.6-17.6-43.5-27.2-62.7c-16.3-3.1-32.1-6.4-50.9-5.2
				c-0.3,1-2.6,9-3,10c-10.5,26.2-16.3,34.4-47.8,65s-58.9,41.6-90.6,59.1c-31.6,17.5-80,30.9-93.5,36s-10.5,15.3-4.3,18.4
				s22.1,17.6,36.1,34s49.6,53,74.1,74.5s71.4,56.1,98.5,72.5c27.1,16.5,44.9,19.3,44.9,19.3s19.8-24.2,34.4-37
				c14.7-12.7,8.6-17.2,14.3-39.3c5.7-22.1,7.5-70.5,18.9-93.6c11.4-23,24.4-30,24.4-30S1403.2,953.2,1399.6,927.3z"/>
			<path fill="#9F592A" d="M649.9,883.3c-3,16-3.1,39.6-7.5,57.7c-4.4,18.1-12.9,46-22.8,71.7s-16.2,42.3-19,70.7
				s-8.3,59.1,0.9,92.3c9.1,33.2,38.6,77.3,44,83.5c5.3,6.2,7.8,3.3,7.8,3.3s4.6-12.5,12.8-34.5s17.7-31,55.9-61.9
				c38.2-31,63.3-49.8,99.4-70.6s72.1-44.5,92.9-62c20.8-17.6,55.9-47.1,67.3-56.4c11.4-9.3,14-12.2,10.5-18.2c0,0-46.3,3.1-74,3
				s-100.1-6-141.4-25.5c-41.3-19.6-82.5-39.9-106.2-65.2c0,0-6.8,2.7-12.5,6.7C652.3,881.7,649.9,883.3,649.9,883.3z"/>
			<path fill="#9F592A" d="M815,1237.1c21.4,10.5,46.9,30,62.2,41s39.7,33.6,39.7,33.6s5.7-0.8,9.3-26.1s17-106.7,20.5-122.8
				c3.5-16.1,12.9-64.6,16-84.6s4.8-31.4,4.4-32.1c-0.3-0.7-2.9-2-9.5,6s-30,32.5-44.3,50.5s-38.9,48.6-55.8,71.1
				s-31.4,44.1-36.5,51.1S815,1237.1,815,1237.1z"/>
			<path fill="#9F592A" d="M1141.4,1155.3c26.9,29.8,49.1,52.8,65.1,67.8s26.2,25.3,26.2,25.3s-13.9,18.5-20.4,46.1
				s-6.5,48.4-5.1,60.9s3.8,19.2-4.2,16.1c-8-3.2-21.6-14.9-30.7-39.5c0,0-6-43-10.4-78.1S1141.4,1155.3,1141.4,1155.3z"/>
		</g>
		<g id="_x31_3_x5F_Hair_x5F_DipDyed_x5F_back_x5F_flat_x5F_Shadows">
			<path opacity="0.3" fill="#091426" enable-background="new    " d="M918,961.8c-27.7-0.1-100.1-6-141.4-25.5
				c-41.3-19.6-82.5-39.9-106.2-65.2c0,0-6.8,2.7-12.5,6.7s-8.1,5.6-8.1,5.6c-3,16-3.1,39.6-7.5,57.7c-4.4,18.1-12.9,46-22.8,71.7
				c-9.8,25.8-16.2,42.3-19,70.7c-1.5,15.7-3.9,32-4.2,49.1c6.2,17.6,13.9,31.6,13.9,31.6s-8.6-33.2-8.8-56.6s6.5-22,8.8-0.4
				c2.2,20.7,14.2,101.7,49.6,136.8c0.4-1.1,0.9-2.3,1.3-3.6c-0.6-0.7-8.4-9.9-17.9-33c-9.9-24.1-9.9-31-8.1-33.4
				c1.6-2.3,13.8,43.3,28.3,60.3c0.5-1.4,1-2.8,1.6-4.2c-2-4.1-11.1-23.7-20-57.7c-10-38.5-4.9-57.5-3.5-65.6s6-9,4.9,8.4
				c-1,16.2,3.1,64.8,25.8,98.8c7.2-12.4,18.1-22.4,41.9-41.9c-1.4-7.7-4.1-24.8-4.7-41.8c-0.9-22.9,4.5-34.3,5.5-38
				s-1.5,15.4-2,31.5c-0.4,12.9,3.6,36.2,5.2,45c1.2-1,2.4-1.9,3.6-2.9c38.2-31,63.3-49.8,99.4-70.6c36-20.7,72.1-44.5,92.9-62
				c20.8-17.6,55.9-47.1,67.3-56.4c11.4-9.3,14-12.2,10.5-18.2C992,958.8,945.7,961.9,918,961.8z"/>
			<path opacity="0.3" fill="#091426" enable-background="new    " d="M1197.6,1368.6l-3-16.7c-5.5-11.1-11.1-30-12.9-52.7
				c-1.6-20,6.1-59,14.8-85.7c-14.8-14.6-33.4-34.1-55.1-58.2c0,0,15.9,63.4,20.3,98.5s10.4,78.1,10.4,78.1
				C1179.4,1351.8,1189.7,1363.3,1197.6,1368.6z"/>
			<path opacity="0.3" fill="#091426" enable-background="new    " d="M1208.9,1225.5c-0.8-0.8-1.6-1.6-2.5-2.3
				c-2.4-2.3-5-4.8-7.7-7.4c-2.9,8.7-9.4,30.4-11.3,60.3c-2.5,39.1,6.7,52.7,6.7,52.7c-2.4-11.7-0.3-49.9,6.1-73.7
				C1204.6,1238.7,1207.5,1229.5,1208.9,1225.5z"/>
			<path opacity="0.3" fill="#091426" enable-background="new    " d="M1227.2,1243.1c-3.2-3.2-7.8-7.6-13.4-13
				c-1.3,4.3-3.6,11.8-7.2,23.8c-6.3,21.1-6.9,59.8-6.9,59.8s13.3-48.3,20.8-59.8C1223.3,1249.5,1225.5,1245.9,1227.2,1243.1z"/>
			<path opacity="0.3" fill="#091426" enable-background="new    " d="M1296.8,683.1c-7.5-15-20.2-38.6-20.2-38.6s-0.9,5.6-5,22.8
				s-4,23.9-2.5,29.3c1.1,4.2,9.6,17.1,15.2,26.5c9-4,17.9-7.8,26.9-11.2C1305.4,700.2,1300.4,690.2,1296.8,683.1z"/>
			<path opacity="0.3" fill="#091426" enable-background="new    " d="M1297.2,764.3c13.5-0.7,27.1-0.7,40.6-0.2
				c-1.4-2.7-2.8-5.4-4.2-8.2c-5.7-11.1-11.1-21.8-16-31.5c-9.6,2.2-19.1,4.6-28.5,7.3C1292.3,738,1297.7,748.8,1297.2,764.3z"/>
			<path opacity="0.3" fill="#091426" enable-background="new    " d="M1351.3,826.3c0.8-12.7-5-19.2,0.3-21c2.6-0.9,8,6.6,13,14.5
				c-5.5-13.2-11.6-25.8-18.2-38.7c-16.4-3.8-33.5-5.3-50.7-5.2c-0.5,2.6-1.2,5.2-2.1,8c-8.9,27.9-19,38.7-50.5,69.3
				c-31.4,30.6-57,39.8-88.7,57.3c-31.6,17.5-80,30.9-93.5,36s-10.5,15.3-4.3,18.4s22.1,17.6,36.1,34s49.6,53,74.1,74.5
				c21.9,19.2,61.8,48.9,89.3,66.8c20-38.3,34-63.6,47.1-89.5c14.2-28,22.3-50.7,22.3-50.7s-1.5,21.8-18.3,54.3
				c-14.9,28.8-36.9,69.3-44,90.3c0.7,0.4,1.4,0.9,2.1,1.3c1.2,0.7,2.4,1.4,3.6,2.1c4.4-7,13.7-21.7,27.8-43.7
				c20.5-32,45.9-81.2,52.5-131.7c6.7-50.5,1-80.7-3.7-99c-4.8-18.3-5.3-19.2-3.9-23.7c1.3-4.5,14.8,33.5,16.3,59s4.7,56.2-6.3,95.7
				c-11,39.5-15.5,51.4-35.4,86.2c-15.4,27.1-32.3,52.1-39,61.8c5.6,2.9,10.5,5.1,14.8,6.9c8.2-9,24.3-28,38.6-49.7
				c19.9-30.2,31.6-59.3,35.6-79.8s15.2-60.7,1.3-129.3S1350.5,839,1351.3,826.3z"/>
			<path opacity="0.3" fill="#091426" enable-background="new    " d="M815,1237.1c21.4,10.5,46.9,30,62.2,41s39.7,33.6,39.7,33.6
				s5.7-0.8,9.3-26.1s17-106.7,20.5-122.8c3.5-16.1,12.9-64.6,16-84.6s4.8-31.4,4.4-32.1c-0.3-0.7-2.9-2-9.5,6s-30,32.5-44.3,50.5
				s-38.9,48.6-55.8,71.1s-31.4,44.1-36.5,51.1S815,1237.1,815,1237.1z"/>
		</g>
		<g id="_x31_3_x5F_Hair_x5F_DipDyed_x5F_back_x5F_color_x5F_Main_Asset">
			<path opacity="0.3" fill="#143E34" enable-background="new    " d="M1296.8,683.1c-7.5-15-20.2-38.6-20.2-38.6s-0.9,5.6-5,22.8
				s-4.1,23.1-2.7,28.6c1.1,4.2,11.3,18.8,16.3,26.9c9.4-5.2,16-7.9,25.9-11C1305.3,700.1,1300.4,690.2,1296.8,683.1z"/>
			<path opacity="0.3" fill="#143E34" enable-background="new    " d="M1337.6,763.8c-1.3-2.6-2.7-5.2-4-7.9
				c-5.7-11.2-11.1-21.8-16-31.5c-10.2,1.3-17.9,4.6-27.5,9c3.3,6.7,7.8,16.7,7.3,31.1C1311.2,763.2,1323.5,762,1337.6,763.8z"/>
			<path opacity="0.3" fill="#143E34" enable-background="new    " d="M1399.6,927.3c-3.6-25.9-15-50.9-25.8-83
				c-7.4-22-16.3-42.9-26.2-62.5c-17.2-4.2-33.4-5.8-51.9-5.4c-0.5,2.6-1.6,6.7-2.7,9.5c-9.9,26.2-18.5,36.7-50,67.3
				c-31.4,30.6-57,39.8-88.7,57.3c-31.6,17.5-80,30.9-93.5,36s-10.5,15.3-4.3,18.4s22.1,17.6,36.1,34s49.6,53,74.1,74.5
				s71.4,56.1,98.5,72.5c27.1,16.5,44.9,19.3,44.9,19.3s19.8-24.2,34.4-37c14.7-12.7,8.6-17.2,14.3-39.3
				c5.7-22.1,7.5-70.5,18.9-93.6c11.4-23,24.4-30,24.4-30S1403.2,953.2,1399.6,927.3z"/>
			<path opacity="0.8" fill="#143E34" enable-background="new    " d="M1402.2,965.4c0,0,1-12.2-2.6-38.2c-3-21.3-11.2-42-20-66.6
				c-11.1,0.7-18.5,4.9-15.6,37.8c3.5,39-8.7,89-8.7,89s4.7-35,5.2-65.5s-13-58.8-12.6-81s-11.6-22-23.4-21s-20.2,7.8-22,24.6
				s7.2,69.2,0,115.9s-29,91.7-29,91.7c6-41.3,8.8-122.7,2.4-151.9c-6.3-29.2-38.2-22.6-43.3,0s-11.6,88.2-11.6,88.2
				c2.5-27-10.8-47.2-13.5-35.5s-6,52.5-6,52.5c-23-17-37.5,6.5-37.5,6.5s1.5-37.8-14.5-46.6s-29.4-2.8-29.4-2.8
				c-16.4-8.6-28.1,5.9-28.1,5.9c-5.9-7.9-18-7.4-31.4-1.1c7.6,5.5,20.5,17.9,32.2,31.6c14,16.4,49.6,53,74.1,74.5
				s71.4,56.1,98.5,72.5c27.1,16.5,44.9,19.3,44.9,19.3s19.8-24.2,34.4-37c14.7-12.7,8.6-17.2,14.3-39.3
				c5.7-22.1,7.5-70.5,18.9-93.6C1389.3,972.4,1402.2,965.4,1402.2,965.4z"/>
			<path opacity="0.3" fill="#143E34" enable-background="new    " d="M649.9,883.3c-3,16-3.1,39.6-7.5,57.7
				c-4.4,18.1-12.9,46-22.8,71.7s-16.2,42.3-19,70.7s-8.3,59.1,0.9,92.3c9.1,33.2,38.6,77.3,44,83.5c5.3,6.2,7.8,3.3,7.8,3.3
				s4.6-12.5,12.8-34.5s17.7-31,55.9-61.9c38.2-31,63.3-49.8,99.4-70.6s72.1-44.5,92.9-62c20.8-17.6,55.9-47.1,67.3-56.4
				c11.4-9.3,14-12.2,10.5-18.2c0,0-46.3,3.1-74,3s-100.1-6-141.4-25.5c-41.3-19.6-82.5-39.9-106.2-65.2c0,0-6.8,2.7-12.5,6.7
				C652.3,881.7,649.9,883.3,649.9,883.3z"/>
			<path opacity="0.3" fill="#143E34" enable-background="new    " d="M815,1237.1c21.4,10.5,46.9,30,62.2,41s39.7,33.6,39.7,33.6
				s5.7-0.8,9.3-26.1s17-106.7,20.5-122.8c3.5-16.1,12.9-64.6,16-84.6s4.8-31.4,4.4-32.1c-0.3-0.7-2.9-2-9.5,6s-30,32.5-44.3,50.5
				s-38.9,48.6-55.8,71.1s-31.4,44.1-36.5,51.1S815,1237.1,815,1237.1z"/>
			<path opacity="0.3" fill="#143E34" enable-background="new    " d="M1141.4,1155.3c26.9,29.8,49.1,52.8,65.1,67.8
				s26.2,25.3,26.2,25.3s-13.9,18.5-20.4,46.1s-6.5,48.4-5.1,60.9s3.8,19.2-4.2,16.1c-8-3.2-21.6-14.9-30.7-39.5c0,0-6-43-10.4-78.1
				S1141.4,1155.3,1141.4,1155.3z"/>
			<path opacity="0.8" fill="#143E34" enable-background="new    " d="M891.1,1012c-8.1,18.3-11.6,38-13,48.1
				c14.2-9.6,26.7-18.8,36.1-26.7c5.7-4.8,12.4-10.5,19.5-16.5c-0.7-8.5-3-17.6-9.1-21.5C911.8,987.2,902.8,985.8,891.1,1012z"/>
			<path opacity="0.8" fill="#143E34" enable-background="new    " d="M721.9,1166c38.2-31,63.3-49.8,99.4-70.6
				c17.3-10,34.6-20.6,50.2-30.9c-0.6-14.1-2.7-54.3-7-69.1c-5.2-18-26-19.2-34.5-5.5s-23,75.9-23,75.9s2.2-51.4-16.5-53.9
				s-28.5,19-28.5,19s1-47-20.5-49s-28.5,22-28.5,18.2s5.2-29-16.5-33.7s-33.8,16-45.6,59.5c-11.9,43.5-15.4,89.1-15.4,89.1
				c-5.2-16.2-1-73.8,1-94.6c1.7-18,4-31.7-6.3-37.4c-3.2,9.7-6.8,19.8-10.5,29.6c-9.8,25.8-16.2,42.3-19,70.7
				c-2.8,28.4-8.3,59.1,0.9,92.3c9.1,33.2,38.6,77.3,44,83.5c5.3,6.2,7.8,3.3,7.8,3.3s4.6-12.5,12.8-34.5
				C674.2,1206,683.7,1197,721.9,1166z"/>
			<path opacity="0.8" fill="#143E34" enable-background="new    " d="M1141.4,1155.3c26.9,29.8,49.1,52.8,65.1,67.8
				s26.2,25.3,26.2,25.3s-13.9,18.5-20.4,46.1s-6.5,48.4-5.1,60.9s3.8,19.2-4.2,16.1c-8-3.2-21.6-14.9-30.7-39.5c0,0-6-43-10.4-78.1
				S1141.4,1155.3,1141.4,1155.3z"/>
			<path opacity="0.8" fill="#143E34" enable-background="new    " d="M815,1237.1c21.4,10.5,46.9,30,62.2,41s39.7,33.6,39.7,33.6
				s5.7-0.8,9.3-26.1s17-106.7,20.5-122.8c3.5-16.1,12.9-64.6,16-84.6s4.8-31.4,4.4-32.1c-0.3-0.7-2.9-2-9.5,6s-30,32.5-44.3,50.5
				s-38.9,48.6-55.8,71.1s-31.4,44.1-36.5,51.1S815,1237.1,815,1237.1z"/>
		</g>
		<g id="_x31_3_x5F_Hair_x5F_DipDyed_x5F_back_x5F_color_x5F_Shadows">
			<path opacity="0.3" fill="#091426" enable-background="new    " d="M918,961.8c-27.7-0.1-100.1-6-141.4-25.5
				c-41.3-19.6-82.5-39.9-106.2-65.2c0,0-6.8,2.7-12.5,6.7s-8.1,5.6-8.1,5.6c-3,16-3.1,39.6-7.5,57.7c-4.4,18.1-12.9,46-22.8,71.7
				c-9.8,25.8-16.2,42.3-19,70.7c-1.5,15.7-3.9,32-4.2,49.1c6.2,17.6,13.9,31.6,13.9,31.6s-8.6-33.2-8.8-56.6s6.5-22,8.8-0.4
				c2.2,20.7,14.2,101.7,49.6,136.8c0.4-1.1,0.9-2.3,1.3-3.6c-0.6-0.7-8.4-9.9-17.9-33c-9.9-24.1-9.9-31-8.1-33.4
				c1.6-2.3,13.8,43.3,28.3,60.3c0.5-1.4,1-2.8,1.6-4.2c-2-4.1-11.1-23.7-20-57.7c-10-38.5-4.9-57.5-3.5-65.6s6-9,4.9,8.4
				c-1,16.2,3.1,64.8,25.8,98.8c7.2-12.4,18.1-22.4,41.9-41.9c-1.4-7.7-4.1-24.8-4.7-41.8c-0.9-22.9,4.5-34.3,5.5-38
				s-1.5,15.4-2,31.5c-0.4,12.9,3.6,36.2,5.2,45c1.2-1,2.4-1.9,3.6-2.9c38.2-31,63.3-49.8,99.4-70.6c36-20.7,72.1-44.5,92.9-62
				c20.8-17.6,55.9-47.1,67.3-56.4c11.4-9.3,14-12.2,10.5-18.2C992,958.8,945.7,961.9,918,961.8z"/>
			<path opacity="0.3" fill="#091426" enable-background="new    " d="M1227.2,1243.1c-3.2-3.2-7.8-7.6-13.4-13
				c-1.3,4.3-3.6,11.8-7.2,23.8c-6.3,21.1-6.9,59.8-6.9,59.8s13.3-48.3,20.8-59.8C1223.3,1249.5,1225.5,1245.9,1227.2,1243.1z"/>
			<path opacity="0.3" fill="#091426" enable-background="new    " d="M1197.6,1368.6l-3-16.7c-5.5-11.1-11.1-30-12.9-52.7
				c-1.6-20,6.1-59,14.8-85.7c-14.8-14.6-33.4-34.1-55.1-58.2c0,0,15.9,63.4,20.3,98.5s10.4,78.1,10.4,78.1
				C1179.4,1351.8,1189.7,1363.3,1197.6,1368.6z"/>
			<path opacity="0.3" fill="#091426" enable-background="new    " d="M1208.9,1225.5c-0.8-0.8-1.6-1.6-2.5-2.3
				c-2.4-2.3-5-4.8-7.7-7.4c-2.9,8.7-9.4,30.4-11.3,60.3c-2.5,39.1,6.7,52.7,6.7,52.7c-2.4-11.7-0.3-49.9,6.1-73.7
				C1204.6,1238.7,1207.5,1229.5,1208.9,1225.5z"/>
			<path opacity="0.3" fill="#091426" enable-background="new    " d="M1296.8,683.1c-7.5-15-20.2-38.6-20.2-38.6s-0.9,5.6-5,22.8
				s-4.3,22.9-2.8,28.3c1.2,4.3,10,18,15.7,27.7c8.6-4.6,17.4-8.8,26.4-12.1C1305.1,699.7,1300.3,690.1,1296.8,683.1z"/>
			<path opacity="0.3" fill="#091426" enable-background="new    " d="M1351.3,826.3c0.8-12.7-5-19.2,0.3-21c2.6-0.9,8,6.6,13,14.5
				c-5.5-13.1-11.5-25.5-18-38.3c-16.8-3.6-33.9-5.1-51.2-5.6c-0.6,2.9-1.3,5.9-2.3,8.9c-8.9,27.9-18.5,37.7-50,68.3
				c-31.4,30.6-57,39.8-88.7,57.3c-31.6,17.5-80,30.9-93.5,36s-10.5,15.3-4.3,18.4s22.1,17.6,36.1,34s49.6,53,74.1,74.5
				c21.9,19.2,61.8,48.9,89.3,66.8c20-38.3,34-63.6,47.1-89.5c14.2-28,22.3-50.7,22.3-50.7s-1.5,21.8-18.3,54.3
				c-14.9,28.8-36.9,69.3-44,90.3c0.7,0.4,1.4,0.9,2.1,1.3c1.2,0.7,2.4,1.4,3.6,2.1c4.4-7,13.7-21.7,27.8-43.7
				c20.5-32,45.9-81.2,52.5-131.7c6.7-50.5,1-80.7-3.7-99c-4.8-18.3-5.3-19.2-3.9-23.7c1.3-4.5,14.8,33.5,16.3,59s4.7,56.2-6.3,95.7
				c-11,39.5-15.5,51.4-35.4,86.2c-15.4,27.1-32.3,52.1-39,61.8c5.6,2.9,10.5,5.1,14.8,6.9c8.2-9,24.3-28,38.6-49.7
				c19.9-30.2,31.6-59.3,35.6-79.8s15.2-60.7,1.3-129.3S1350.5,839,1351.3,826.3z"/>
			<path opacity="0.3" fill="#091426" enable-background="new    " d="M1296.7,764.3c13.6-1,27.2-1.3,40.9-0.5
				c-1.3-2.6-2.7-5.2-4-7.9c-5.8-11.3-11.3-22.1-16.2-32c-9.3,2.3-18.4,5.5-27.6,9.2C1292.9,739.6,1297.1,750.2,1296.7,764.3z"/>
			<path opacity="0.3" fill="#091426" enable-background="new    " d="M815,1237.1c21.4,10.5,46.9,30,62.2,41s39.7,33.6,39.7,33.6
				s5.7-0.8,9.3-26.1s17-106.7,20.5-122.8c3.5-16.1,12.9-64.6,16-84.6s4.8-31.4,4.4-32.1c-0.3-0.7-2.9-2-9.5,6s-30,32.5-44.3,50.5
				s-38.9,48.6-55.8,71.1s-31.4,44.1-36.5,51.1S815,1237.1,815,1237.1z"/>
		</g>
	</g>
	<g id="Original">
		<g id="_x31_3_x5F_Hair_x5F_DipDyed_x5F_back_x5F_flat_x5F_Main_Asset_1_">
			<path fill="#9F592A" d="M1296.8,683.1c-7.5-15-20.2-38.6-20.2-38.6s-0.9,5.6-5,22.8s-3.9,23.4-2.4,28.8
				c1,3.7,11.3,19.2,16.1,26.6c9.6-4.3,15.6-8.1,25.8-11C1305.6,700.6,1300.2,689.9,1296.8,683.1z"/>
			<path fill="#9F592A" d="M1333.6,756c-5.6-10.9-11.1-21.9-16-31.5c-10.2,2.1-18,4.5-27.6,8.9c3.3,6.9,6.9,16.7,7.3,31.2
				c14.2-1.9,25.8-1.2,39.9-1.5C1336,760.7,1334.8,758.3,1333.6,756z"/>
			<path fill="#9F592A" d="M1399.6,927.3c-3.6-25.9-15-50.9-25.8-83c-7.2-21.6-17.6-43.5-27.2-62.7c-16.3-3.1-32.1-6.4-50.9-5.2
				c-0.3,1-2.6,9-3,10c-10.5,26.2-16.3,34.4-47.8,65s-58.9,41.6-90.6,59.1c-31.6,17.5-80,30.9-93.5,36s-10.5,15.3-4.3,18.4
				s22.1,17.6,36.1,34s49.6,53,74.1,74.5s71.4,56.1,98.5,72.5c27.1,16.5,44.9,19.3,44.9,19.3s19.8-24.2,34.4-37
				c14.7-12.7,8.6-17.2,14.3-39.3c5.7-22.1,7.5-70.5,18.9-93.6c11.4-23,24.4-30,24.4-30S1403.2,953.2,1399.6,927.3z"/>
			<path fill="#9F592A" d="M649.9,883.3c-3,16-3.1,39.6-7.5,57.7c-4.4,18.1-12.9,46-22.8,71.7s-16.2,42.3-19,70.7
				s-8.3,59.1,0.9,92.3c9.1,33.2,38.6,77.3,44,83.5c5.3,6.2,7.8,3.3,7.8,3.3s4.6-12.5,12.8-34.5s17.7-31,55.9-61.9
				c38.2-31,63.3-49.8,99.4-70.6s72.1-44.5,92.9-62c20.8-17.6,55.9-47.1,67.3-56.4c11.4-9.3,14-12.2,10.5-18.2c0,0-46.3,3.1-74,3
				s-100.1-6-141.4-25.5c-41.3-19.6-82.5-39.9-106.2-65.2c0,0-6.8,2.7-12.5,6.7C652.3,881.7,649.9,883.3,649.9,883.3z"/>
			<path fill="#9F592A" d="M815,1237.1c21.4,10.5,46.9,30,62.2,41s39.7,33.6,39.7,33.6s5.7-0.8,9.3-26.1s17-106.7,20.5-122.8
				c3.5-16.1,12.9-64.6,16-84.6s4.8-31.4,4.4-32.1c-0.3-0.7-2.9-2-9.5,6s-30,32.5-44.3,50.5s-38.9,48.6-55.8,71.1
				s-31.4,44.1-36.5,51.1S815,1237.1,815,1237.1z"/>
			<path fill="#9F592A" d="M1141.4,1155.3c26.9,29.8,49.1,52.8,65.1,67.8s26.2,25.3,26.2,25.3s-13.9,18.5-20.4,46.1
				s-6.5,48.4-5.1,60.9s3.8,19.2-4.2,16.1c-8-3.2-21.6-14.9-30.7-39.5c0,0-6-43-10.4-78.1S1141.4,1155.3,1141.4,1155.3z"/>
		</g>
		<g id="_x31_3_x5F_Hair_x5F_DipDyed_x5F_back_x5F_flat_x5F_Shadows_1_">
			<path opacity="0.3" fill="#091426" enable-background="new    " d="M918,961.8c-27.7-0.1-100.1-6-141.4-25.5
				c-41.3-19.6-82.5-39.9-106.2-65.2c0,0-6.8,2.7-12.5,6.7s-8.1,5.6-8.1,5.6c-3,16-3.1,39.6-7.5,57.7c-4.4,18.1-12.9,46-22.8,71.7
				c-9.8,25.8-16.2,42.3-19,70.7c-1.5,15.7-3.9,32-4.2,49.1c6.2,17.6,13.9,31.6,13.9,31.6s-8.6-33.2-8.8-56.6s6.5-22,8.8-0.4
				c2.2,20.7,14.2,101.7,49.6,136.8c0.4-1.1,0.9-2.3,1.3-3.6c-0.6-0.7-8.4-9.9-17.9-33c-9.9-24.1-9.9-31-8.1-33.4
				c1.6-2.3,13.8,43.3,28.3,60.3c0.5-1.4,1-2.8,1.6-4.2c-2-4.1-11.1-23.7-20-57.7c-10-38.5-4.9-57.5-3.5-65.6s6-9,4.9,8.4
				c-1,16.2,3.1,64.8,25.8,98.8c7.2-12.4,18.1-22.4,41.9-41.9c-1.4-7.7-4.1-24.8-4.7-41.8c-0.9-22.9,4.5-34.3,5.5-38
				s-1.5,15.4-2,31.5c-0.4,12.9,3.6,36.2,5.2,45c1.2-1,2.4-1.9,3.6-2.9c38.2-31,63.3-49.8,99.4-70.6c36-20.7,72.1-44.5,92.9-62
				c20.8-17.6,55.9-47.1,67.3-56.4c11.4-9.3,14-12.2,10.5-18.2C992,958.8,945.7,961.9,918,961.8z"/>
			<path opacity="0.3" fill="#091426" enable-background="new    " d="M1197.6,1368.6l-3-16.7c-5.5-11.1-11.1-30-12.9-52.7
				c-1.6-20,6.1-59,14.8-85.7c-14.8-14.6-33.4-34.1-55.1-58.2c0,0,15.9,63.4,20.3,98.5s10.4,78.1,10.4,78.1
				C1179.4,1351.8,1189.7,1363.3,1197.6,1368.6z"/>
			<path opacity="0.3" fill="#091426" enable-background="new    " d="M1208.9,1225.5c-0.8-0.8-1.6-1.6-2.5-2.3
				c-2.4-2.3-5-4.8-7.7-7.4c-2.9,8.7-9.4,30.4-11.3,60.3c-2.5,39.1,6.7,52.7,6.7,52.7c-2.4-11.7-0.3-49.9,6.1-73.7
				C1204.6,1238.7,1207.5,1229.5,1208.9,1225.5z"/>
			<path opacity="0.3" fill="#091426" enable-background="new    " d="M1227.2,1243.1c-3.2-3.2-7.8-7.6-13.4-13
				c-1.3,4.3-3.6,11.8-7.2,23.8c-6.3,21.1-6.9,59.8-6.9,59.8s13.3-48.3,20.8-59.8C1223.3,1249.5,1225.5,1245.9,1227.2,1243.1z"/>
			<path opacity="0.3" fill="#091426" enable-background="new    " d="M1296.8,683.1c-7.5-15-20.2-38.6-20.2-38.6s-0.9,5.6-5,22.8
				s-4,23.9-2.5,29.3c1.1,4.2,9.6,17.1,15.2,26.5c9-4,17.9-7.8,26.9-11.2C1305.4,700.2,1300.4,690.2,1296.8,683.1z"/>
			<path opacity="0.3" fill="#091426" enable-background="new    " d="M1297.2,764.3c13.5-0.7,27.1-0.7,40.6-0.2
				c-1.4-2.7-2.8-5.4-4.2-8.2c-5.7-11.1-11.1-21.8-16-31.5c-9.6,2.2-19.1,4.6-28.5,7.3C1292.3,738,1297.7,748.8,1297.2,764.3z"/>
			<path opacity="0.3" fill="#091426" enable-background="new    " d="M1351.3,826.3c0.8-12.7-5-19.2,0.3-21c2.6-0.9,8,6.6,13,14.5
				c-5.5-13.2-11.6-25.8-18.2-38.7c-16.4-3.8-33.5-5.3-50.7-5.2c-0.5,2.6-1.2,5.2-2.1,8c-8.9,27.9-19,38.7-50.5,69.3
				c-31.4,30.6-57,39.8-88.7,57.3c-31.6,17.5-80,30.9-93.5,36s-10.5,15.3-4.3,18.4s22.1,17.6,36.1,34s49.6,53,74.1,74.5
				c21.9,19.2,61.8,48.9,89.3,66.8c20-38.3,34-63.6,47.1-89.5c14.2-28,22.3-50.7,22.3-50.7s-1.5,21.8-18.3,54.3
				c-14.9,28.8-36.9,69.3-44,90.3c0.7,0.4,1.4,0.9,2.1,1.3c1.2,0.7,2.4,1.4,3.6,2.1c4.4-7,13.7-21.7,27.8-43.7
				c20.5-32,45.9-81.2,52.5-131.7c6.7-50.5,1-80.7-3.7-99c-4.8-18.3-5.3-19.2-3.9-23.7c1.3-4.5,14.8,33.5,16.3,59s4.7,56.2-6.3,95.7
				c-11,39.5-15.5,51.4-35.4,86.2c-15.4,27.1-32.3,52.1-39,61.8c5.6,2.9,10.5,5.1,14.8,6.9c8.2-9,24.3-28,38.6-49.7
				c19.9-30.2,31.6-59.3,35.6-79.8s15.2-60.7,1.3-129.3S1350.5,839,1351.3,826.3z"/>
			<path opacity="0.3" fill="#091426" enable-background="new    " d="M815,1237.1c21.4,10.5,46.9,30,62.2,41s39.7,33.6,39.7,33.6
				s5.7-0.8,9.3-26.1s17-106.7,20.5-122.8c3.5-16.1,12.9-64.6,16-84.6s4.8-31.4,4.4-32.1c-0.3-0.7-2.9-2-9.5,6s-30,32.5-44.3,50.5
				s-38.9,48.6-55.8,71.1s-31.4,44.1-36.5,51.1S815,1237.1,815,1237.1z"/>
		</g>
		<g id="_x31_3_x5F_Hair_x5F_DipDyed_x5F_back_x5F_color_x5F_Main_Asset_1_">
			<path opacity="0.3" fill="#143E34" enable-background="new    " d="M1296.8,683.1c-7.5-15-20.2-38.6-20.2-38.6s-0.9,5.6-5,22.8
				s-4.1,23.1-2.7,28.6c1.1,4.2,11.3,18.8,16.3,26.9c9.4-5.2,16-7.9,25.9-11C1305.3,700.1,1300.4,690.2,1296.8,683.1z"/>
			<path opacity="0.3" fill="#143E34" enable-background="new    " d="M1337.6,763.8c-1.3-2.6-2.7-5.2-4-7.9
				c-5.7-11.2-11.1-21.8-16-31.5c-10.2,1.3-17.9,4.6-27.5,9c3.3,6.7,7.8,16.7,7.3,31.1C1311.2,763.2,1323.5,762,1337.6,763.8z"/>
			<path opacity="0.3" fill="#143E34" enable-background="new    " d="M1399.6,927.3c-3.6-25.9-15-50.9-25.8-83
				c-7.4-22-16.3-42.9-26.2-62.5c-17.2-4.2-33.4-5.8-51.9-5.4c-0.5,2.6-1.6,6.7-2.7,9.5c-9.9,26.2-18.5,36.7-50,67.3
				c-31.4,30.6-57,39.8-88.7,57.3c-31.6,17.5-80,30.9-93.5,36s-10.5,15.3-4.3,18.4s22.1,17.6,36.1,34s49.6,53,74.1,74.5
				s71.4,56.1,98.5,72.5c27.1,16.5,44.9,19.3,44.9,19.3s19.8-24.2,34.4-37c14.7-12.7,8.6-17.2,14.3-39.3
				c5.7-22.1,7.5-70.5,18.9-93.6c11.4-23,24.4-30,24.4-30S1403.2,953.2,1399.6,927.3z"/>
			<path opacity="0.8" fill="#143E34" enable-background="new    " d="M1402.2,965.4c0,0,1-12.2-2.6-38.2c-3-21.3-11.2-42-20-66.6
				c-11.1,0.7-18.5,4.9-15.6,37.8c3.5,39-8.7,89-8.7,89s4.7-35,5.2-65.5s-13-58.8-12.6-81s-11.6-22-23.4-21s-20.2,7.8-22,24.6
				s7.2,69.2,0,115.9s-29,91.7-29,91.7c6-41.3,8.8-122.7,2.4-151.9c-6.3-29.2-38.2-22.6-43.3,0s-11.6,88.2-11.6,88.2
				c2.5-27-10.8-47.2-13.5-35.5s-6,52.5-6,52.5c-23-17-37.5,6.5-37.5,6.5s1.5-37.8-14.5-46.6s-29.4-2.8-29.4-2.8
				c-16.4-8.6-28.1,5.9-28.1,5.9c-5.9-7.9-18-7.4-31.4-1.1c7.6,5.5,20.5,17.9,32.2,31.6c14,16.4,49.6,53,74.1,74.5
				s71.4,56.1,98.5,72.5c27.1,16.5,44.9,19.3,44.9,19.3s19.8-24.2,34.4-37c14.7-12.7,8.6-17.2,14.3-39.3
				c5.7-22.1,7.5-70.5,18.9-93.6C1389.3,972.4,1402.2,965.4,1402.2,965.4z"/>
			<path opacity="0.3" fill="#143E34" enable-background="new    " d="M649.9,883.3c-3,16-3.1,39.6-7.5,57.7
				c-4.4,18.1-12.9,46-22.8,71.7s-16.2,42.3-19,70.7s-8.3,59.1,0.9,92.3c9.1,33.2,38.6,77.3,44,83.5c5.3,6.2,7.8,3.3,7.8,3.3
				s4.6-12.5,12.8-34.5s17.7-31,55.9-61.9c38.2-31,63.3-49.8,99.4-70.6s72.1-44.5,92.9-62c20.8-17.6,55.9-47.1,67.3-56.4
				c11.4-9.3,14-12.2,10.5-18.2c0,0-46.3,3.1-74,3s-100.1-6-141.4-25.5c-41.3-19.6-82.5-39.9-106.2-65.2c0,0-6.8,2.7-12.5,6.7
				C652.3,881.7,649.9,883.3,649.9,883.3z"/>
			<path opacity="0.3" fill="#143E34" enable-background="new    " d="M815,1237.1c21.4,10.5,46.9,30,62.2,41s39.7,33.6,39.7,33.6
				s5.7-0.8,9.3-26.1s17-106.7,20.5-122.8c3.5-16.1,12.9-64.6,16-84.6s4.8-31.4,4.4-32.1c-0.3-0.7-2.9-2-9.5,6s-30,32.5-44.3,50.5
				s-38.9,48.6-55.8,71.1s-31.4,44.1-36.5,51.1S815,1237.1,815,1237.1z"/>
			<path opacity="0.3" fill="#143E34" enable-background="new    " d="M1141.4,1155.3c26.9,29.8,49.1,52.8,65.1,67.8
				s26.2,25.3,26.2,25.3s-13.9,18.5-20.4,46.1s-6.5,48.4-5.1,60.9s3.8,19.2-4.2,16.1c-8-3.2-21.6-14.9-30.7-39.5c0,0-6-43-10.4-78.1
				S1141.4,1155.3,1141.4,1155.3z"/>
			<path opacity="0.8" fill="#143E34" enable-background="new    " d="M891.1,1012c-8.1,18.3-11.6,38-13,48.1
				c14.2-9.6,26.7-18.8,36.1-26.7c5.7-4.8,12.4-10.5,19.5-16.5c-0.7-8.5-3-17.6-9.1-21.5C911.8,987.2,902.8,985.8,891.1,1012z"/>
			<path opacity="0.8" fill="#143E34" enable-background="new    " d="M721.9,1166c38.2-31,63.3-49.8,99.4-70.6
				c17.3-10,34.6-20.6,50.2-30.9c-0.6-14.1-2.7-54.3-7-69.1c-5.2-18-26-19.2-34.5-5.5s-23,75.9-23,75.9s2.2-51.4-16.5-53.9
				s-28.5,19-28.5,19s1-47-20.5-49s-28.5,22-28.5,18.2s5.2-29-16.5-33.7s-33.8,16-45.6,59.5c-11.9,43.5-15.4,89.1-15.4,89.1
				c-5.2-16.2-1-73.8,1-94.6c1.7-18,4-31.7-6.3-37.4c-3.2,9.7-6.8,19.8-10.5,29.6c-9.8,25.8-16.2,42.3-19,70.7
				c-2.8,28.4-8.3,59.1,0.9,92.3c9.1,33.2,38.6,77.3,44,83.5c5.3,6.2,7.8,3.3,7.8,3.3s4.6-12.5,12.8-34.5
				C674.2,1206,683.7,1197,721.9,1166z"/>
			<path opacity="0.8" fill="#143E34" enable-background="new    " d="M1141.4,1155.3c26.9,29.8,49.1,52.8,65.1,67.8
				s26.2,25.3,26.2,25.3s-13.9,18.5-20.4,46.1s-6.5,48.4-5.1,60.9s3.8,19.2-4.2,16.1c-8-3.2-21.6-14.9-30.7-39.5c0,0-6-43-10.4-78.1
				S1141.4,1155.3,1141.4,1155.3z"/>
			<path opacity="0.8" fill="#143E34" enable-background="new    " d="M815,1237.1c21.4,10.5,46.9,30,62.2,41s39.7,33.6,39.7,33.6
				s5.7-0.8,9.3-26.1s17-106.7,20.5-122.8c3.5-16.1,12.9-64.6,16-84.6s4.8-31.4,4.4-32.1c-0.3-0.7-2.9-2-9.5,6s-30,32.5-44.3,50.5
				s-38.9,48.6-55.8,71.1s-31.4,44.1-36.5,51.1S815,1237.1,815,1237.1z"/>
		</g>
		<g id="_x31_3_x5F_Hair_x5F_DipDyed_x5F_back_x5F_color_x5F_Shadows_1_">
			<path opacity="0.3" fill="#091426" enable-background="new    " d="M918,961.8c-27.7-0.1-100.1-6-141.4-25.5
				c-41.3-19.6-82.5-39.9-106.2-65.2c0,0-6.8,2.7-12.5,6.7s-8.1,5.6-8.1,5.6c-3,16-3.1,39.6-7.5,57.7c-4.4,18.1-12.9,46-22.8,71.7
				c-9.8,25.8-16.2,42.3-19,70.7c-1.5,15.7-3.9,32-4.2,49.1c6.2,17.6,13.9,31.6,13.9,31.6s-8.6-33.2-8.8-56.6s6.5-22,8.8-0.4
				c2.2,20.7,14.2,101.7,49.6,136.8c0.4-1.1,0.9-2.3,1.3-3.6c-0.6-0.7-8.4-9.9-17.9-33c-9.9-24.1-9.9-31-8.1-33.4
				c1.6-2.3,13.8,43.3,28.3,60.3c0.5-1.4,1-2.8,1.6-4.2c-2-4.1-11.1-23.7-20-57.7c-10-38.5-4.9-57.5-3.5-65.6s6-9,4.9,8.4
				c-1,16.2,3.1,64.8,25.8,98.8c7.2-12.4,18.1-22.4,41.9-41.9c-1.4-7.7-4.1-24.8-4.7-41.8c-0.9-22.9,4.5-34.3,5.5-38
				s-1.5,15.4-2,31.5c-0.4,12.9,3.6,36.2,5.2,45c1.2-1,2.4-1.9,3.6-2.9c38.2-31,63.3-49.8,99.4-70.6c36-20.7,72.1-44.5,92.9-62
				c20.8-17.6,55.9-47.1,67.3-56.4c11.4-9.3,14-12.2,10.5-18.2C992,958.8,945.7,961.9,918,961.8z"/>
			<path opacity="0.3" fill="#091426" enable-background="new    " d="M1227.2,1243.1c-3.2-3.2-7.8-7.6-13.4-13
				c-1.3,4.3-3.6,11.8-7.2,23.8c-6.3,21.1-6.9,59.8-6.9,59.8s13.3-48.3,20.8-59.8C1223.3,1249.5,1225.5,1245.9,1227.2,1243.1z"/>
			<path opacity="0.3" fill="#091426" enable-background="new    " d="M1197.6,1368.6l-3-16.7c-5.5-11.1-11.1-30-12.9-52.7
				c-1.6-20,6.1-59,14.8-85.7c-14.8-14.6-33.4-34.1-55.1-58.2c0,0,15.9,63.4,20.3,98.5s10.4,78.1,10.4,78.1
				C1179.4,1351.8,1189.7,1363.3,1197.6,1368.6z"/>
			<path opacity="0.3" fill="#091426" enable-background="new    " d="M1208.9,1225.5c-0.8-0.8-1.6-1.6-2.5-2.3
				c-2.4-2.3-5-4.8-7.7-7.4c-2.9,8.7-9.4,30.4-11.3,60.3c-2.5,39.1,6.7,52.7,6.7,52.7c-2.4-11.7-0.3-49.9,6.1-73.7
				C1204.6,1238.7,1207.5,1229.5,1208.9,1225.5z"/>
			<path opacity="0.3" fill="#091426" enable-background="new    " d="M1296.8,683.1c-7.5-15-20.2-38.6-20.2-38.6s-0.9,5.6-5,22.8
				s-4.3,22.9-2.8,28.3c1.2,4.3,10,18,15.7,27.7c8.6-4.6,17.4-8.8,26.4-12.1C1305.1,699.7,1300.3,690.1,1296.8,683.1z"/>
			<path opacity="0.3" fill="#091426" enable-background="new    " d="M1351.3,826.3c0.8-12.7-5-19.2,0.3-21c2.6-0.9,8,6.6,13,14.5
				c-5.5-13.1-11.5-25.5-18-38.3c-16.8-3.6-33.9-5.1-51.2-5.6c-0.6,2.9-1.3,5.9-2.3,8.9c-8.9,27.9-18.5,37.7-50,68.3
				c-31.4,30.6-57,39.8-88.7,57.3c-31.6,17.5-80,30.9-93.5,36s-10.5,15.3-4.3,18.4s22.1,17.6,36.1,34s49.6,53,74.1,74.5
				c21.9,19.2,61.8,48.9,89.3,66.8c20-38.3,34-63.6,47.1-89.5c14.2-28,22.3-50.7,22.3-50.7s-1.5,21.8-18.3,54.3
				c-14.9,28.8-36.9,69.3-44,90.3c0.7,0.4,1.4,0.9,2.1,1.3c1.2,0.7,2.4,1.4,3.6,2.1c4.4-7,13.7-21.7,27.8-43.7
				c20.5-32,45.9-81.2,52.5-131.7c6.7-50.5,1-80.7-3.7-99c-4.8-18.3-5.3-19.2-3.9-23.7c1.3-4.5,14.8,33.5,16.3,59s4.7,56.2-6.3,95.7
				c-11,39.5-15.5,51.4-35.4,86.2c-15.4,27.1-32.3,52.1-39,61.8c5.6,2.9,10.5,5.1,14.8,6.9c8.2-9,24.3-28,38.6-49.7
				c19.9-30.2,31.6-59.3,35.6-79.8s15.2-60.7,1.3-129.3S1350.5,839,1351.3,826.3z"/>
			<path opacity="0.3" fill="#091426" enable-background="new    " d="M1296.7,764.3c13.6-1,27.2-1.3,40.9-0.5
				c-1.3-2.6-2.7-5.2-4-7.9c-5.8-11.3-11.3-22.1-16.2-32c-9.3,2.3-18.4,5.5-27.6,9.2C1292.9,739.6,1297.1,750.2,1296.7,764.3z"/>
			<path opacity="0.3" fill="#091426" enable-background="new    " d="M815,1237.1c21.4,10.5,46.9,30,62.2,41s39.7,33.6,39.7,33.6
				s5.7-0.8,9.3-26.1s17-106.7,20.5-122.8c3.5-16.1,12.9-64.6,16-84.6s4.8-31.4,4.4-32.1c-0.3-0.7-2.9-2-9.5,6s-30,32.5-44.3,50.5
				s-38.9,48.6-55.8,71.1s-31.4,44.1-36.5,51.1S815,1237.1,815,1237.1z"/>
		</g>
	</g>
</g>
</svg>
