<?xml version="1.0" encoding="utf-8"?>
<!-- Generator: Adobe Illustrator 23.0.3, SVG Export Plug-In . SVG Version: 6.00 Build 0)  -->
<svg version="1.1" id="Layer_1" xmlns="http://www.w3.org/2000/svg" xmlns:xlink="http://www.w3.org/1999/xlink" x="0px" y="0px"
	 viewBox="0 0 2000 2000" enable-background="new 0 0 2000 2000" xml:space="preserve">
<g>
	<g id="Masked">
		<g id="_x31_4_x5F_Hair_x5F_Pigtails_x5F_back_x5F_Main_Asset">
			<path fill="#9F592A" d="M1333.6,705.7c-8.2-15.3-15.6-31.7-21.2-47c-9.8-26.5-19.9-59.8-27.7-81.7c0,0-3.7,25.2-6.9,48.5
				c-3.2,23.3-7.2,54-9.4,70.1c-0.7,5,11.1,16.2,17.1,27.2C1302.9,715,1315.7,710.5,1333.6,705.7z"/>
			<path fill="#9F592A" d="M1359.3,766.1c-1-10.4-3.6-19.1-8.2-28.9c-2.5-5.3-6.7-11.5-9.7-17.1c-19.7,2.6-33.6,5.2-51.5,12.6
				c0.6,1.6,2.2,5.5,2.7,7.4c2.4,8.1,4.2,15.1,4.5,24.3C1320,762.9,1337.5,761.8,1359.3,766.1z"/>
			<path fill="#9F592A" d="M1295.8,776.4c-4.5,14.1-15.1,39.8-34,59.9c-37.6,40.1-69,52.7-111.1,74.1c-42,21.4-86.9,35.3-86.9,35.3
				s9,6.9,27.6,14.2c18.6,7.2,25.3,16.4,25.3,16.4s8.9-8,23.7-9.8c17.1-2.1,19.5,4.2,19.5,4.2s61-21.6,115.2-58.3
				s74.6-71.1,80.4-98.3c2.2-10.2,3.7-20.1,4.1-29.9C1337.1,779.9,1318.8,774.8,1295.8,776.4z"/>
			<path fill="#9F592A" d="M1102.2,1007.1c0,0,0.3-2.4,7.2-7.1s11.1-7.9,12.4-10.2c0,0,1.5,3.5,15.4,0.7s17.3-2.8,20.8-5
				c0,0,13.2,4.6,32.4,16.1s45.8,23,66.9,48.6s21.4,40.6,23.6,52.4s2.2,35.7-4.6,48.2c0,0-51.4-27-74.8-47.6s-60.2-51.6-74.9-68.6
				S1102.2,1007.1,1102.2,1007.1z"/>
			<path fill="#9F592A" d="M1140.6,1152.8c0,0,26.3,35.5,49.1,58.6c22.8,23,93.5,66.8,93.5,66.8s8.2,17.4,0,37.1s-28,33.6-57.2,33.5
				s-36-10.1-40.2-17.8s0.1-11.6,2-12.5s-0.6,2.5,1.2,6.5s7.6,10.1,16.8,5.8s6.5-32.6-2.8-51.5s-26.8-40.4-42.8-45.8
				c0,0-10.2-47-14.3-61.7C1141.9,1157,1140.6,1152.8,1140.6,1152.8z"/>
			<path fill="#9F592A" d="M917.7,1101.4c0,0,11.6,2,14.8,34.4s-2.3,59.4-10,77.8s-33.5,47-55.8,54.5c0,0-17-11.9-26.2-17.9
				c0,0,2.8-17.8-9-37.5c0,0,11.4-20.1,33.7-50.4S917.7,1101.4,917.7,1101.4z"/>
			<path fill="#9F592A" d="M690,1189.5c0,0,60.5-46.7,111.9-81.5s72.4-46.2,72.7-48.5c0.2-2.3-1.2-5.9-9.6-12.1s-32.5-20.9-40-25.6
				s-7.6-0.5-18.6-1.5s-21.2-2.2-21.2-2.2s-3.8,6.6-14.8,13s-45.6,19.6-67.8,34.3s-37.6,29.7-47,53.9s4.8,48,12,56.2
				S690,1189.5,690,1189.5z"/>
			<path fill="#9F592A" d="M675.2,868.7"/>
			<path fill="#9F592A" d="M663.2,856.9c-7.7-7.1-20.2-16.5-20.2-16.5s-8.2,14.8-26,26.7c-17.8,11.8-33.2,33.3-33.2,33.3
				s0.9,1.6,3.5,4C607.2,883.5,640.7,867.8,663.2,856.9z"/>
			<path fill="#9F592A" d="M841.8,954.2c-48.1-8.9-80.2-24.1-103.7-34.8c-14.2-6.5-41.4-29.8-64.3-50.6
				c-24.5,13.1-49.4,31.6-68.4,52.3c11.9,10.2,27.8,22.8,42.2,30.8c27.6,15.3,72.7,32.6,88.2,37.4c15.5,4.8,31.3,11.1,31.3,11.1
				s10-10.2,29-6.6c21,4,28.5,7.8,31.8,14.8c0,0,25.5,3.2,55.5-8.2c30.1-11.4,48.3-24.5,67-38.3
				C950.5,961.9,889.9,963.1,841.8,954.2z"/>
		</g>
		<g id="_x31_4_x5F_Hair_x5F_Pigtails_x5F_back_x5F_Highlights">
			<path opacity="0.3" fill="#091426" enable-background="new    " d="M873.6,1226.7c0-0.2,0-0.3,0-0.5
				C873.6,1226.4,873.6,1226.5,873.6,1226.7L873.6,1226.7z"/>
			<path opacity="0.35" fill="#E8FFFA" enable-background="new    " d="M870.6,1063c1.9-1.3,3.1-2.2,3.6-2.9
				c-6.3-7-14.8-12.7-22.4-17.9c-4-2.7-8.1-5.3-12-8.1c-2.2-1.5-4.3-3.1-6.2-4.9c-1.8-1.6-2.2-2.7-4.5-3c-0.3,0-0.7,0.1-0.7,0.5
				c-0.1,1.8,0.9,3.4,2.1,4.8c-2.4-2.1-3.6-2.3-6.3-4.1c-0.6-0.4-2.1-1.2-2.2-0.6c-0.2-0.4-0.2,1.4-0.4,1c-0.8-1.3-1.8-0.7-1.1,0.7
				c3.6,7.8,7,13.1,11.6,20.3c2.7,4.2,8,13.2,13.7,13.1c0.8,0,1.2-0.7,1.1-1.5c-0.5-2.9-3-4.4-4.9-6.5c-2.5-2.6-4.7-5.5-7-8.4
				c-4.4-5.5-8.5-11.3-12.2-17.4c6.7,6.8,14.1,12.9,20.7,20c3.3,3.5,6.4,7,9.3,10.8c2.6,3.4,4.9,7.4,7.8,10.7
				c1.3-0.8,2.5-1.6,3.6-2.3c-2.1-3.4-5.3-6.4-7.9-9.3c-3.6-4-7.1-7.9-10.8-11.8c-3.3-3.5-6.6-7-10.2-10.3c3.6,3.1,7.4,5.8,11.3,8.5
				C855,1050.1,862.5,1056.9,870.6,1063z"/>
			<path opacity="0.35" fill="#E8FFFA" enable-background="new    " d="M924,1116c-0.9-2.7-2.6-5.1-3.9-7.6c-1-1.9-2.2-4-3.9-5.4
				c-0.6,0.6-1.3,1.3-2.1,2.2c0.7,1.7,2,3.4,3.1,4.8c1.8,2.2,3.7,4.7,5.9,6.5C923.5,1116.7,924.2,1116.5,924,1116z"/>
			<path opacity="0.35" fill="#E8FFFA" enable-background="new    " d="M910,1162.8c3-5.3-0.1-15-1.3-20.5c-1.8-8-4.6-15.7-7.5-23.3
				c-1.1,1.2-2.1,2.4-3.3,3.6c2.1,6.7,3.7,13.4,5.2,20.3c0.8,3.7,1.5,7.3,2.3,11c0.7,3.2,1,6.7,3.3,9.1
				C909.1,1163.4,909.8,1163.3,910,1162.8z"/>
			<path opacity="0.35" fill="#E8FFFA" enable-background="new    " d="M915.9,1126.9c1.8,13.6,2.8,27,1.1,40.6c0-0.8,0-1.7,0-2.5
				c-0.2-8.3-1.4-16.5-2.7-24.7c-0.7-4.3-1.8-8.5-2.9-12.7c-1.1-4.1-1.8-8.7-3.4-12.6c-0.1-0.3-0.8-0.4-0.7,0.1
				c0.6,4.3,2,8.4,2.6,12.7c0.5,3.7,0.7,7.4,1,11.1c0.8,8.4,0.8,16.7,0.6,25.1c-0.2,8.1-0.6,16.2-1.6,24.2c-0.5,4.4-1.2,8.8-2,13.1
				c-0.6,3.8-2.3,7.8-1.9,11.6c0.2,1.9,1.4,2.1,2.5,0.6c0.7-0.9,1.2-2,1.6-3.1c0.9-1.8,1.8-4.3,2.5-6.2c1.4-4,3.3-7,4.5-11
				c2.1-7,3.6-14.2,4.2-21.5c1.3-14.9,0.7-30.7-3.6-45.1C917.4,1125.7,915.7,1125.8,915.9,1126.9z"/>
			<path opacity="0.35" fill="#E8FFFA" enable-background="new    " d="M1256.4,1294.7c-0.9,5.5-1.9,11-3.3,16.5
				c-1.1,4.3-4.2,8.9-4.1,13.3c0,1,1,1.5,1.9,1.1c4.1-2,5.7-8.1,6.8-12.2c1.8-6.6,3.1-13.4,4.1-20.1c1.4-10.2,1.1-20.4-2.1-30.1
				c-1.4-0.9-2.9-1.9-4.3-2.8C1258.8,1271.4,1258.2,1283.3,1256.4,1294.7z"/>
			<path opacity="0.35" fill="#E8FFFA" enable-background="new    " d="M1273,1276.3c-2,7-3.5,14-6.1,20.9c-1.3,3.5-2.6,6.9-4,10.4
				c-1.1,2.7-2.5,4.8-1.6,7.7c0.2,0.7,0.9,0.9,1.5,0.6c2.9-1.3,3.5-4.2,4.6-7.1c1.5-4.1,2.8-8.1,3.8-12.3c0.9-3.7,1.5-7.4,2.2-11.2
				c0.6-3.3,1.7-5.8,0.3-9C1273.5,1276,1273.1,1276.1,1273,1276.3z"/>
			<path opacity="0.35" fill="#E8FFFA" enable-background="new    " d="M1278.6,1141.7c-1.1-5.2-2.8-10.2-4.7-15.2
				c-0.5-1.3-1-2.6-1.5-3.9c-1-2.8-2.2-5.4-3.7-8s-3.3-5-5-7.4c-0.5-0.7-1.1-1.4-1.6-2.1c-5.8-7.7-13-13.7-20.7-19.5
				c-8.4-6.3-17.6-10.9-27-15.6c-7.8-3.9-15.2-9.3-23-13.4c-5.5-3.9-10.5-7.2-15.9-12.3c-0.9-0.9-1.5-0.7-0.7,0.3
				c7.4,9.1,16.2,17.2,26.3,23.2c10.3,6.2,20.6,12.3,30.3,19.3c19.7,14.3,35.4,32.4,43.7,55.5
				C1275.9,1144.9,1279.1,1144,1278.6,1141.7z"/>
			<path opacity="0.35" fill="#E8FFFA" enable-background="new    " d="M1279,1113.9c-3.2-8.2-7.6-15.5-13.7-21.9
				c-6.4-6.6-13.9-12-21.8-16.6c-8.9-5.2-17.5-10.5-26.9-14.9c-0.8-0.3-1.4,0.7-0.7,1.1c16.3,9,32.6,17.9,45.5,31.7
				c6.1,6.5,11.1,14.8,14.1,23.2c1.5,4.2,4.3,9.5,5.4,13.8c0.2,0.6,0.3,1.2,0.4,1.7c0.4-3,0.6-6.1,0.7-9.2
				C1281.2,1120,1280.2,1116.9,1279,1113.9z"/>
			<path opacity="0.35" fill="#E8FFFA" enable-background="new    " d="M1180.6,1017.4c7.7,6.3,17.2,14.9,27.3,16.3
				c0.4,0.1,0.9-0.3,0.6-0.8c-5.8-7.9-16.5-13.1-24.6-18.3c-9.9-6.4-19-13.8-27.9-21.6c-0.9-0.8-2.3,0.5-1.4,1.4
				C1162.8,1002.5,1171.7,1010.1,1180.6,1017.4z"/>
			<path opacity="0.35" fill="#E8FFFA" enable-background="new    " d="M1176.4,1004.4c5.8,4,11.5,8.1,17.1,12.4
				c11.8,9,23.7,18.1,35.1,27.6c1.2,1,2.8-0.7,1.7-1.7c-11.2-9.4-21.9-19.1-33.5-28c-5.8-4.5-11.7-8.8-17.8-13
				c-1.3-0.9-2.5-1.8-3.8-2.8c6.1,3.1,12.4,6,18.3,9.1c9.8,5.2,19.2,10.9,28.3,17.3c8.4,5.9,16.6,12.1,24,19.3
				c3.4,3.3,6.6,6.8,9.8,10.3c3.1,3.4,5.5,8.1,9.4,10.7c0.7,0.5,1.3-0.3,1.2-1c-0.3-1.9-1.1-3.8-2.2-5.6c-2-2.8-4.2-5.7-6.7-8.8
				c-11.1-13.5-23.8-23.1-36.1-30.8c-8.2-5-16.7-9.4-25.2-13.8c-10-5.2-20.2-11.5-30.9-15.3c-0.9-0.3-1.5,0.6-1.3,1.3
				c-1-0.4-2-0.8-3-1.1c-1.3-0.4-2.2,1.3-1.3,2.2C1164.1,997.5,1170.9,1000.7,1176.4,1004.4z"/>
			<path opacity="0.35" fill="#E8FFFA" enable-background="new    " d="M1251.6,1057.2c-2.7-3.1-5.6-8.7-9.8-9.5
				c-0.3-0.1-0.6,0.2-0.5,0.5c0.9,3.7,5.2,6.6,7.7,9.4c3.7,4.1,7.1,8.5,10.4,13c2.8,3.9,6,8.2,9.3,11.7c2.4,2.5,1.8,2.8,3.1,4.2
				c0,0,0.1-0.4-2.3-4.4c-2.8-4.6-6.4-9.5-9.7-13.8C1256.9,1064.5,1254.7,1060.7,1251.6,1057.2z"/>
			<path opacity="0.35" fill="#E8FFFA" enable-background="new    " d="M1290.5,639c0.1,0.9,0.3,1.8,0.5,2.8
				c1.3,5.8,2.7,11.5,5,16.9c2.3,5.2,5.4,9.9,8.8,14.4c1.6,2.2,3.9,4.4,5.6,6.8c-1.2-2-2.4-3.9-3.5-5.9c-4.6-7.9-8.6-16-12.2-24.4
				C1293.2,646.2,1291.7,642.7,1290.5,639z"/>
			<path opacity="0.35" fill="#E8FFFA" enable-background="new    " d="M1324.7,762.9c0.9,0.2,1.5,0.1,2.1,0.1
				c-0.6-2.4-1.4-5.3-2.1-7.7c-2.9-10.3-6.6-20.4-10.8-30.3c-0.7,0.2-1.4,0.5-2.1,0.6c3.8,8.2,7.3,16.6,9.9,25.1
				C1322.8,754.6,1323.8,758.8,1324.7,762.9z"/>
			<path opacity="0.35" fill="#E8FFFA" enable-background="new    " d="M1328,802.9c0.2,1.2,0.9-1,1.2-2c2-6.9,1-15.5,0.1-22.7
				c-0.7-0.2-1.4-0.3-2.1-0.4C1328.1,785.7,1326.9,795.1,1328,802.9z"/>
			<path opacity="0.35" fill="#E8FFFA" enable-background="new    " d="M1300,702c2.1,4.2,4.3,8.4,6.4,12.7c0.8-0.3,1.6-0.5,2.4-0.7
				c-0.7-1.4-1.4-2.9-2.1-4.3c-7.4-15.3-15.7-30.5-20.6-46.9c-4.5-15.1-7.7-34.6-0.2-48.9c0.4-0.8-1-1.4-1.4-0.6
				c-3.2,6.7-5.7,12.7-6.4,20.1c-0.8,7.7-0.1,15.4,1.6,22.9C1283.3,672.8,1292.4,687.1,1300,702z"/>
			<path opacity="0.35" fill="#E8FFFA" enable-background="new    " d="M1289.6,625c-0.1-0.7-0.7-1-1.3-0.9c0,0,0,0,0-0.1
				c-0.1-0.5-1-0.6-1.1,0c-0.9,5.9,0.5,12.3,1.2,18.2c0.7,6,1.8,12.1,4.2,17.8c2,4.9,4.8,9.4,8,13.7c2.9,4,6.4,9.7,11,11.8
				c0.6,0.3,1.4-0.2,1.2-0.9c-0.2-0.7-0.5-1.4-0.8-2.1c5.2,8.5,10.6,16.8,15.8,25.3c1.3-0.5,2.7-0.9,4.1-1.3
				c-5.2-9.1-10.7-18.1-16.1-27c-5-8.3-10-16.6-14.7-25.1C1296.1,645.4,1290.5,635.2,1289.6,625z M1310.4,679.9
				c-1.7-2.4-4-4.6-5.6-6.8c-3.4-4.5-6.5-9.2-8.8-14.4c-2.4-5.4-3.8-11.1-5-16.9c-0.2-0.9-0.4-1.8-0.5-2.8c1.2,3.6,2.7,7.1,4.2,10.6
				c3.6,8.4,7.6,16.5,12.2,24.4C1308.1,676,1309.2,678,1310.4,679.9z"/>
			<path opacity="0.35" fill="#E8FFFA" enable-background="new    " d="M1335.8,722.1c7,13.6,12.7,27.9,15.2,42.9
				c1.6,0,3.1,0.1,4.6,0.3c-2.3-12.9-6.9-25.4-12.5-37.2c-1.3-2.7-2.6-5.3-3.9-8c-1.3,0.3-2.6,0.6-3.9,1
				C1335.5,721.5,1335.7,721.8,1335.8,722.1z"/>
			<path opacity="0.35" fill="#E8FFFA" enable-background="new    " d="M1352.5,782.8c0,7.9-0.9,15.4-2.3,23.2
				c-1.6,9.1-2.2,19.5-4.9,28.3c-0.2,0.6,0.8,0.9,1.2,0.3c5.1-7.6,6.4-18.6,8-27.4c1.5-7.9,2.4-15.5,2.5-23.5
				C1355.6,783.5,1354,783.1,1352.5,782.8z"/>
		</g>
		<g id="_x31_4_x5F_Hair_x5F_Pigtails_x5F_back_x5F_Shadows">
			<path opacity="0.3" fill="#091426" enable-background="new    " d="M754.9,1069.6c-11.1,11.4-19,25.4-21.4,41.2
				c-2.5,16.4,0.3,33,5.8,48.5c0.4,1.2,2.3,0.7,1.9-0.5c-5.4-15.3-8.2-31.7-5.7-47.9c1.2-7.4,3.4-14.7,6.8-21.5
				c1.8-3.5,3.8-6.8,6-10.1c2.2-3.3,4.8-6.2,7-9.4C755.5,1069.6,755.1,1069.3,754.9,1069.6z"/>
			<path fill="none" d="M789.2,1031.4c-3.9,5.2-10.2,8.4-16.1,11c-7.5,3.4-15.3,6.4-23,9.4c-16.2,6.3-32.5,12.8-46.9,22.5
				c-13.5,9.1-25.6,21.3-31.6,36.7c-3.1,8-4.5,16.6-4.7,25.2c-0.1,6.4,0.7,12.6,1.4,18.8c7.4,11,14.7,10.5,18.7,9.8
				c0,0-8.9-23.9,4.2-51.5s29.4-39.9,45.2-46.8s50.6-23,56.2-28.7C796.8,1033.7,794.2,1031.8,789.2,1031.4z"/>
			<path opacity="0.3" fill="#091426" enable-background="new    " d="M831.9,1052.8c6,7.9,12.7,15.4,19.6,22.5
				c0.5-0.3,1.1-0.7,1.6-1c-6.6-7.3-13.5-14.4-19.5-22.2c-3.2-4.2-6.3-8.5-9.1-13c-2.4-3.8-4.3-7.9-6.3-11.9
				c4.6-0.6,8.6-1.5,11.9-2.3c-2-1.3-3.8-2.3-5-3.1c-7.5-4.8-6.6-0.5-17.6-1.5s-22.2-2.3-22.2-2.3s-3.8,6.6-14.8,13
				c-6.1,3.5-19.5,9.2-34,16.1c17.2-6.6,40-15.1,45.5-15.6c1.3-0.1,2.5-0.2,3.7-0.2c-14.2,10.1-31.3,15.2-47.4,21.7
				c-15.3,6.2-30.3,13.1-43.4,23.4c-11.8,9.2-21.8,21-26.9,35.2c-2.9,7.9-4.1,16.3-4.3,24.6c-0.1,3.4-0.1,7,0.1,10.6
				c-6.4-13.9-8-21.6-2.7-39.1c-1.9,3.6-3.7,7.4-5.3,11.5c-9.4,24.2,4.8,48,12,56.2s22.2,14,22.2,14s5.3-4.1,14-10.7
				c-20.7-37-3.6-81,16.8-96.1c21.4-15.9,42.9-22,42.9-22c-0.3,0.5-0.6,1-0.9,1.5c-3.5,1.8-7,3.9-10.4,5.8
				c-3.7,2.1-7.2,4.3-10.5,6.9c-6.5,5.1-12.2,11.3-16.7,18.2c-9.5,14.3-13.5,31.6-10.8,48.6c1.3,8.1,4.1,15.9,8.2,23
				c0.5-0.4,1.1-0.8,1.6-1.2c-7.6-13.2-10.4-29-7.8-44.1c2.7-15.9,11.3-30.5,23.5-41.1c3.7-3.2,7.8-6,12-8.5
				c3.1-1.9,6.5-3.5,9.7-5.4c-3.6,4.5-6.9,9.2-8.6,14.7c-2,6.6-2.9,14-3.1,20.9c-0.2,6.8,1.1,13.5,3.5,19.9c1.2,3.1,2.6,6.2,4.1,9.2
				c1.2,2.4,2.4,4.9,3.8,7.2c0.6-0.4,1.2-0.9,1.8-1.3c-2.3-4.8-5.2-9.4-7.2-14.4c-2.5-6.3-4-12.9-3.9-19.7c0-6.7,0.8-13.6,2.4-20.1
				c1.2-4.6,3.2-8.5,5.7-12.4c-5,14.4-6.4,36.7-1.2,50.6c2.4,6.4,4.6,11.1,6.5,14.4c3-2.1,5.9-4.2,8.9-6.4
				c-6.6-11.3-9.9-27.2-10.6-38.8c-0.7-13.2,7.1-32,7.1-32s1.3-0.7,4.2-2.4c-2.3,5.1-3.6,11-4.7,16.4c-1.3,6.4-2,12.9-1.7,19.4
				c0.3,6.4,1.5,12.7,3.6,18.7c1.8,5.1,3.8,10.6,6.5,15.4c0.6-0.4,1.2-0.9,1.8-1.3c-2.1-4.7-4.7-9.2-6.5-14.2
				c-2.2-6-3.6-12.3-3.9-18.7c-0.4-6.4,0-12.9,1.2-19.2c0.6-3,1.3-5.9,2.1-8.8s2-5.7,2.9-8.6c0.5-0.3,0.9-0.5,1.5-0.8
				c-0.6,2.4-0.7,4.9-1,7.2c-0.4,3.3-0.6,6.5-0.6,9.8c0,6.1,1,11.9,2.3,17.9c2.3,10.1,6.1,19.9,11.3,28.9c0.5-0.4,1.1-0.8,1.6-1.1
				c-5-8.7-8.4-18.1-11.2-27.8c-1.7-5.8-2.9-11.7-2.8-17.8c0-2.9,0.2-5.9,0.5-8.8s1-5.9,1-8.9c3-1.7,6.9-4,11.9-6.9
				c5.7-3.3,9.2-6.7,11.4-9.5c-1.6,7.6-2.7,15.3-2.7,23.3c0,5.5,0.6,11,1.7,16.4c1.1,5.4,2.2,11.8,5.3,16.4c0.1,0.2,0.4,0.1,0.4-0.2
				c-0.7-5.5-3-10.8-4-16.2c-1.1-5.7-1.6-11.5-1.7-17.3c-0.1-5.7,0.3-11.3,1.2-16.9c0.5-2.9,1.3-5.7,2-8.6c0.2-0.3,0.3-0.6,0.4-0.8
				c0,3-0.1,6.1,0,9.1c0.3,5,0.9,9.9,1.8,14.8c0.9,5,2,10,3.4,14.9c0.7,2.5,1.4,4.9,2.1,7.3c0.7,2.3,1.2,4.8,2.4,6.9
				c0.2,0.4,1.1,0.3,1-0.3c-0.5-4.7-2.6-9.4-3.8-13.9c-1.3-4.9-2.5-9.9-3.4-14.9c-0.9-5.2-1.6-10.5-1.8-15.8
				c-0.2-3.8,0.2-7.7-0.2-11.5c0.8,0,1.5-0.1,2.3-0.1c5.3,20.8,14.3,40.3,24.7,59.1c0.5-0.4,1.1-0.7,1.6-1.1c-4.9-9-9.8-18-14-27.3
				c-2.4-5.4-4.6-10.9-6.4-16.5c-1.5-4.7-2.9-9.6-4.5-14.3c2.6-0.2,5.1-0.4,7.5-0.7C820.4,1036.6,826.1,1045.2,831.9,1052.8z
				 M792.8,1037.8c-5.6,5.8-40.4,21.9-56.2,28.7s-32.1,19.2-45.2,46.8s-4.2,51.5-4.2,51.5c-4,0.7-11.3,1.2-18.7-9.8
				c-0.6-6.3-1.5-12.5-1.4-18.8c0.2-8.6,1.6-17.2,4.7-25.2c6-15.3,18.1-27.5,31.6-36.7c14.4-9.8,30.8-16.2,46.9-22.5
				c7.7-3,15.4-6,23-9.4c5.9-2.6,12.1-5.7,16.1-11C794.2,1031.8,796.8,1033.7,792.8,1037.8z"/>
			<path fill="none" d="M873.6,1226.7c0-0.2,0-0.3,0-0.5C873.6,1226.4,873.6,1226.5,873.6,1226.7L873.6,1226.7z"/>
			<path opacity="0.3" fill="#091426" enable-background="new    " d="M922.5,1213.6c5.4-13,9.8-30.4,10.7-50.9
				c-1.6,5.2-3.9,12.6-7,20.9c0.6-10.4,0.6-21,0-31.4c-0.5-9.5-1.8-19.3-4.6-28.4c-1.7-5.5-4.1-13.1-8-18.2c-0.5,0.5-1,1-1.5,1.6
				c1.2,2,2.6,4,3.6,6c2,4,3.4,8.4,4.6,12.8c2.3,8.2,3.2,16.6,3.5,25c0,1.4,0,2.9,0.1,4.4c0.1,5.4-0.1,10.7-0.4,16.1
				c-1.1,5.3-2.9,10.5-4.5,15.7c-1.9,6.1-3.8,12.2-6.2,18.1c-1.3,3.1-2.7,6.1-4.3,9c-0.7,1.3-5.2,8.9-7.5,7.2c0.4-1.7,0.9-3.3,1.2-5
				c2.2-9.6,4.2-19.9,4.8-29.7c0.7-10.5-1.2-21.1-3.9-31.2c-2.5-9.5-5.7-18.9-9.8-27.9c-0.5,0.6-1,1.1-1.5,1.7
				c7.5,17.7,14,38.3,12.6,57.4c-0.5,7.4-2.2,14.7-4.1,22c-0.7,1.9-1.3,3.8-2,5.7c0.9-4.3,1.3-8.8,0.9-13.3
				c-1.5-21-6.7-43.1-15.7-62.1c-0.3,0.4-0.6,0.8-1,1.1c6.8,17.6,12.4,35.5,13.6,54.4c0.7,10.3-0.7,19.6-4,29.3
				c-2.3,6.9-4.2,15.9-10,20.6c-0.7,0.4-1.3,0.7-2,1c-5.4-0.9-4.7-9.9-4.5-14.6c0.2-4.9,0.3-9.7,0.3-14.6c0-2.5-0.1-4.9-0.3-7.4
				c0.2-8.6-0.7-17.3-1.8-25.8s-3.5-16.4-6.1-24.4c-0.2,0.2-0.3,0.4-0.5,0.7c3.5,13.1,5.1,26.6,5.7,40.2c0.3,8.1-0.3,16-2.2,23.9
				c-0.8,3.6-1.8,7.1-3,10.5c-0.7,2.2-1,4.9-3.2,6.2c-1.5,1.7-2.8,1.3-3.9-1.4c-0.1-0.2-0.2-0.3-0.3-0.5c-0.4-4.9-2-10.2-2.6-12.2
				c-2.2-6.7-4.5-13.4-7.3-19.8c-1.4-3.1-2.9-6.1-4.4-9.1c-0.8-1.5-1.5-3.1-2.1-4.7c-0.5,0.7-0.9,1.4-1.3,2c0.4,1,0.9,1.9,1.3,2.9
				c2.3,5,4.7,9.9,6.7,15c1.8,4.7,3.5,9.5,4.9,14.3c0.6,1.8,4.8,17.3-0.2,18.1c-0.4-2.3-4.8-25-17.4-43.1
				c-4.5,7.1-6.8,11.2-6.8,11.2c11.8,19.8,9,37.5,9,37.5c9.2,6,26.2,17.9,26.2,17.9C889.1,1260.6,914.9,1232,922.5,1213.6z
				 M873.6,1226.7L873.6,1226.7c-0.1-0.2,0-0.3,0-0.5C873.7,1226.4,873.6,1226.6,873.6,1226.7z"/>
			<path fill="none" d="M1239.8,1287.2c3.4,13.9,1.6,29.3-3.2,37.4c8.4-6.6,13.2-16.7,13.1-27.9c-0.2-16.1-8.7-30-20.1-40.9
				c-11.1-10.7-24.8-18-37.6-26.5c-2.6-1.7-5.1-3.6-7.5-5.5c2.3,2.3,4.8,4.8,7.7,7.5C1218.8,1256,1235.8,1270.9,1239.8,1287.2z"/>
			<path opacity="0.3" fill="#091426" enable-background="new    " d="M1238.8,1329.6c0.1,0,0.2,0,0.4,0c0-0.1,0-0.2,0-0.3
				C1239,1329.5,1238.9,1329.6,1238.8,1329.6z"/>
			<path opacity="0.3" fill="#091426" enable-background="new    " d="M1226,1348.8c29.2,0.1,49-13.9,57.2-33.5
				c4.2-10.1,4.1-19.6,3-26.4c-1.2,2.6-2.8,6.2-5,10.2c-0.9-1.1-1.7-2.4-1.9-3.8c1.2-6,1.8-12.2,1.9-18.3c-0.6-0.4-1.4-0.9-2.3-1.5
				l0,0c-2,9.6-3.9,19.2-7.1,28.5c-1.5,4.3-3.3,8.5-5.5,12.5c-1.3,2.3-2.9,4.4-4.4,6.5c-0.4,0.2-0.7,0.5-1.1,0.7
				c-1.5,1-3,1.8-4.4,2.5c0.2-0.4,0.4-0.8,0.6-1.2c2.8-6.7,4.9-14,6.5-21c2.5-11.3,4.6-24.4,3.1-36.4c-1-0.6-2-1.3-3-1.9
				c0.3,4.4,0.6,8.7,0.5,13.1c-0.2,7-0.9,14.1-2.6,21c-1.6,6.8-3.8,13.6-7.1,19.8c-1.5,2.7-3,5.7-5,8.1c-0.5,0.6-1.1,1.2-1.7,1.7
				c-1.6,0.3-3,0.5-4.4,0.6c-0.4-0.6-0.8-1.2-0.9-2.1c0-0.2,0-0.4,0-0.6c0-0.3,0.1-0.6,0.1-0.9c5.7-6.2,9.2-14.5,10.2-22.9
				c1.7-14.1-4.4-28.6-12.9-39.5c-10.1-12.9-23.9-22.2-37.6-31c-7.3-4.7-14.7-9.4-21.3-15.1c-3.1-2.6-5.8-5.5-8.4-8.6
				c-1.2-2-2.2-3.9-3-5.7c2.5,2.8,5.4,5.4,8.1,7.7c6.8,5.7,13.6,11.1,21.2,15.9c1.4,0.9,2.6-1.3,1.3-2.2c-12.7-8.9-24-19.5-33.1-32
				c-0.1-2.1-0.1-4.3,0.1-6.7c-14.6-17.4-26.3-33.3-26.3-33.3s1.3,4.2,5.3,18.9c4.1,14.8,14.3,61.7,14.3,61.7
				c16,5.4,33.5,26.9,42.8,45.8s11.9,47.1,2.8,51.5s-14.9-1.8-16.8-5.8s0.6-7.4-1.2-6.5s-6.2,4.9-2,12.5S1196.8,1348.6,1226,1348.8z
				 M1238.8,1329.6c0.1-0.1,0.2-0.2,0.3-0.3c0,0.1,0,0.2,0,0.3C1239,1329.7,1238.9,1329.7,1238.8,1329.6z M1192.2,1231.2
				c-2.9-2.7-5.4-5.1-7.7-7.5c2.4,1.9,4.9,3.8,7.5,5.5c12.7,8.6,26.4,15.8,37.6,26.5c11.4,10.9,19.9,24.8,20.1,40.9
				c0.2,11.2-4.6,21.4-13.1,27.9c4.8-8.1,6.6-23.5,3.2-37.4C1235.8,1270.9,1218.8,1256,1192.2,1231.2z"/>
			<path opacity="0.3" fill="#091426" enable-background="new    " d="M1281.4,1132.5c-0.4-1.1-0.8-2.3-1.2-3.4
				c-2.2-6.4-4.9-12.8-8.2-18.8c-1.9-3.5-4.1-6.7-6.5-9.7c-2.1-6.3-9.7-11.5-14.6-15.3c-6.8-5.3-14.2-9.7-21.7-13.9
				c-10.5-5.7-21.3-10.8-31.6-16.7c-9.6-6.1-18.5-13-26.5-21.4c-10.5-11-18.2-23.6-25.9-36.5c1-0.2,2-0.5,3-0.9
				c5.2,6.6,11.7,12.5,17.7,18.3c3.4,3.3,6.8,6.7,10.4,9.9c2.7,2.4,5.5,5.4,9.1,6.5c0.4,0.1,0.9-0.4,0.6-0.8
				c-2.1-3.5-6.4-5.8-9.5-8.3c-3.3-2.6-6.5-5.3-9.6-8.1c-6.1-5.6-11.3-12-17-17.9c4.8-1.9,9.3-4.8,12.7-8.2
				c-2.9-1.2-4.5-1.8-4.5-1.8c-3.5,2.1-6.5,2.1-20.5,4.9s-15.8-0.6-15.8-0.6c-1.2,2.3-5.4,5.5-12.4,10.2s-7.2,7.1-7.2,7.1
				s8.3,8.9,21.1,23.6c-0.3-22.9,11.7-33.3,11.7-33.3c0.6,0.1,1.2,0.2,1.8,0.2c-1.1,9.4-1.1,18.9-0.1,28.4
				c0.8,7.6,1.9,15.7,4.2,23.1c1.2,1.1,2.4,2.3,3.6,3.4c-2.1-9.5-4.7-18.6-5.7-28.4c-0.8-8.2-0.8-16.4-0.5-24.6
				c1,11.4,2.8,22.8,5.6,33.9c1.6,6.4,3.5,12.8,5.8,19c0.8,2.3,1.6,4.7,2.5,7.1c2.4,2.2,5,4.5,7.5,6.8c-1.8-5-4.4-9.9-6.2-15
				c-2.1-6-4-12-5.6-18.1c-3.1-11.7-5.3-23.7-6.4-35.8c0.2,0,0.4,0,0.6-0.1c5.4,14,11.3,27.7,19.3,40.5
				c8.2,13.2,18.6,24.3,30.7,33.9c23.4,18.5,53.1,34.9,60.6,65.7c1.1,0.7,2.2,1.3,3.3,1.9c-5.8-29.5-33.5-47.3-55.9-64
				c-13.7-10.2-25.8-21.4-35.2-35.8c-5.2-8-9.6-16.6-13.6-25.3c10,16,24.5,29.7,39.4,40.4c23.8,17.1,55.2,26.3,73.1,50.7
				c4.8,6.6,8.6,13.8,11.5,21.4c1.8,4.8,3,9.9,4.5,14.8C1280.4,1138.9,1281,1135.7,1281.4,1132.5z"/>
			<path opacity="0.3" fill="#091426" enable-background="new    " d="M1279.1,1092.6c-1.9-4.2-4.1-8.3-6.5-12.2
				c-2.3-3.7-4.8-7.3-7.6-10.7c-2.5-3-5.6-7.5-9.5-8.7c-0.2-0.1-0.5,0.2-0.4,0.4c1.4,3.5,5.2,6.1,7.4,9.2c2.8,3.8,5.3,7.9,7.5,12.2
				c0.7,1.4,1.4,2.8,2.1,4.2c-2.8-3.5-5.7-6.8-8.7-9.8c-7-7.2-14.5-13.7-22.7-19.5c-8.1-5.7-17.6-13.2-27.3-15.7
				c-0.3-0.1-0.6,0.3-0.3,0.5c6.7,6,15.6,9.6,22.9,14.9c8.3,6,16.4,12.8,23.3,20.4c6.6,7.2,12.3,15.1,16.9,23.8
				c2.4,4.6,4.3,9.2,6,13.9c-0.1-5-0.6-9.5-1.2-13C1280.3,1099.5,1279.9,1096.2,1279.1,1092.6z"/>
			<path opacity="0.3" fill="#091426" enable-background="new    " d="M1165.5,1023c11.7,11.6,24.8,21.6,39.2,29.6
				c15.1,8.4,32,13.5,46.3,23.4c7.6,5.3,14.2,11.6,18.7,19.8c0.1,0.1,0.3,0,0.2-0.1c-6.5-14.8-21.1-23.8-35.1-30.5
				c-8-3.8-16.1-7.1-23.9-11.1c-7.6-3.9-14.9-8.1-22-12.8c-8.3-5.4-16.1-11.5-23.2-18.4C1165.5,1022.8,1165.4,1022.9,1165.5,1023z"
				/>
			<path opacity="0.3" fill="#091426" enable-background="new    " d="M1329,763.7c0.8-0.1,1.6-0.1,2.4-0.1
				c-0.1-0.4-0.2-0.7-0.3-1.1c-3.3-13.2-8.3-26-13.6-38.5c-0.4,0.1-0.9,0.2-1.3,0.4c4.7,10.8,8.6,21.8,11.5,33.2
				C1328.2,759.7,1328.6,761.7,1329,763.7z"/>
			<path opacity="0.3" fill="#091426" enable-background="new    " d="M1185.2,936.1c32.3-17.3,61.8-40.8,86.6-67.8
				c12.1-13.1,22.8-27.5,31.2-43.3c7.5-14.1,15.6-31.6,16-48.1c-7.8-0.7-15.5-1.2-23.7-0.5c-3.4,16.9-13.5,36.2-33.7,60
				c-30.3,35.7-68.9,52.7-110.9,74.1c-42,21.4-86.9,35.3-86.9,35.3s6.1,4.7,18.6,10.4c-3.4-2.6-6.4-5.6-9-9
				c-0.6-0.8,0.7-1.8,1.4-1.1c6,6.8,13.7,10.8,21.6,15c4.6,2.4,9.2,4.9,13.9,6.9c1.7,0.7,3.5,1.2,5.3,1.8c0.2-0.1,0.5-0.1,0.7,0
				c2.5,1.1,2-1.7,1.2-2.9c-0.1-0.2-0.3-0.4-0.4-0.7c-0.7-0.5-1.3-0.9-1.8-1.2c-9.2-6.2-18.9-11.5-28.4-17.2
				c-0.6-0.4-0.2-1.4,0.5-1.2c6.7,2,13.9,5.3,20,8.7c3.4,1.9,6.7,4,9.9,6.2c0.5,0.4,3.5,2.6,6.3,4.2c0.1,0,0.1,0,0.2,0
				c0.2-1.2,0.5-2.3,0.8-3.4c-3.2-5.2-5.7-10.5-10.7-14.5c-0.7-0.5,0.3-1.5,1-1c5.6,4.4,9.2,10.3,13.5,15.7c1.5-0.1,2.3-0.7,2.3-1.7
				c-1-2.8-1.7-5.8-2.5-8.1c-1.2-3.5-2.7-6.9-4.8-10.1c-1.3-2.1-3-3.5-3-6c0-0.2,0.2-0.5,0.4-0.5c4.8,0.3,8,8,9.6,11.8
				c1.3,3.1,2.2,6.4,3.4,9.6c0.4,1.1,0.9,2.2,1.4,3.2c0.7,0.4,1.5,0.3,2-0.2c0.1-0.8,0.1-1.9,0.1-2.2c0.1-0.6,0.2-1.2,0.4-1.8
				c-0.1-1-0.1-2-0.1-3c0.1-3.2,0.3-6.4,0.8-9.5c0.3-1.7,0.6-3.4,1.2-4.9c0.3-1,2-3.3,1.7-4.2c-0.1-0.2,0.1-0.3,0.3-0.2
				c2.5,1.3,0,7.3-0.4,9.3c-0.8,5.3-2.3,12-0.4,17.2c0.4,0.2,0.5,0.2,0.9,0c0.6-0.3,0.9-0.9,0.8-1.6c0-0.3,0.1-0.5,0.4-0.6
				c0.2-1.1,0.5-2.2,0.8-3.2c2.5-7.2,8.5-13.2,14-18.2c24.8-22.5,54.2-39,78.5-62.3c11.8-11.4,23-23.5,33-36.6
				c9.6-12.6,17-26.3,25.8-39.4c0.4-0.6,1.5-0.2,1.2,0.5c-6.1,14.5-16.1,28.2-25.4,40.8c-17.1,23.1-37.3,43.5-60.3,60.8
				c-13.2,9.9-26.9,19.1-39.7,29.4c-5.8,4.7-11.8,9.4-16.8,14.9c-3.5,3.8-9.9,11-9.1,16.9c1.2,0.6,2.9,0.5,4.1-0.1
				c3.3-4.8,8.2-8.8,12.6-12.1C1169,944.7,1177.2,940.4,1185.2,936.1z"/>
			<path opacity="0.3" fill="#091426" enable-background="new    " d="M1326.2,839.5c8.8-23.2,9.7-39.3,8.9-49
				c0-3.7-0.3-7.4-0.7-11.2c-1.2-0.3-2.4-0.5-3.6-0.9c0.3,5.5,0.4,11,0.2,16.6c-1.9,9.6-5,16.5-5,16.5s1.4-8.9,1.2-29.8
				c0-1.2-0.1-2.5-0.1-3.8c-1.9,0-3.8-0.7-5.6-0.8c0.5,17.4-5.6,35.4-13.6,50.6c-16.6,31.6-42.5,57.6-69.8,79.9
				c-15.2,12.4-31.2,23.5-48.5,32.8c-7.4,4-14.9,7.9-21.8,12.6c-2.9,2-5.4,4.2-7.8,6.5c5.3-3.1,11.4-5.5,16.2-7.8
				c4.6-2.2,9.3-4.4,13.8-6.8c4.5-2.5,8.4-5.6,12.8-8.1c0.6-0.3,1.4,0.4,0.9,1c-5.4,7.5-15.6,12-23.8,15.8
				c-4.9,2.3-9.8,4.5-14.5,7.1c-3.3,1.8-6.2,4.1-9.3,6.1c0.4,0.5,0.8,1,1.2,1.5c2.2,1.2,2.7,2.4,2.7,2.4
				c20.6-10.7,96.9-49.5,113-60.3C1291.9,897.8,1310.5,881.2,1326.2,839.5z"/>
			<path opacity="0.3" fill="#091426" enable-background="new    " d="M1310.7,712.5c0.5-0.2,1-0.3,1.6-0.5
				c-5.2-11.6-10.6-23.1-16-34.7c3.2,4.2,6.9,8.1,9.7,11.4c5.7,6.6,10.8,13.6,15.1,20.9c0.8-0.2,1.5-0.5,2.3-0.7
				c-3.1-5.7-6.5-11.2-10.6-16.1c-4.3-5.2-8.9-10.1-13.1-15.4c-2.5-3.1-4.8-6.3-6.7-9.7c-1.7-3.1-2.5-6.5-4.2-9.6
				c-0.2-0.3-0.5-0.3-0.7-0.2c-3-8.7-5.1-17.6-5.3-26.8c0-0.9-1.5-1-1.5,0c0.4,29.5,16.5,55.2,29.2,80.9
				C1310.6,712.2,1310.7,712.4,1310.7,712.5z"/>
			<path opacity="0.3" fill="#091426" enable-background="new    " d="M1343,763.9c-2.3-11.5-5.7-22.6-10-33.6
				c-1.2-3-2.4-5.9-3.7-8.9c-0.6,0.1-1.2,0.2-1.9,0.3c1,2.2,2,4.3,2.9,6.6c4.6,11.5,7.9,23.4,10.6,35.5
				C1341.6,763.9,1342.3,763.9,1343,763.9z"/>
			<path opacity="0.3" fill="#091426" enable-background="new    " d="M1326.4,868.4c4.7-5.4,8.8-10.7,12.2-15.9
				c2.5-6.6,4.7-13.4,6.3-20.3c3.9-16.7,4.6-34.2,1.1-51c-0.6-0.1-1.2-0.2-1.8-0.3c0.7,5.3,1.1,10.8,1.2,16c0,4.4-0.2,8.7-0.3,13.1
				c-0.6,7.4-1.8,14.8-3.6,22.1c-2.3,9-5.4,17.9-9.5,26.2C1330.3,861.9,1328.4,865.2,1326.4,868.4z"/>
			<path opacity="0.3" fill="#091426" enable-background="new    " d="M590.7,900.9c19.8-18.9,50.3-33.3,71.6-43.6
				c-2.2-2.3-4.3-4.6-6.3-6.7c-6.5-5.4-13-10.3-13-10.3s-8.2,14.8-26,26.7c-13.1,8.7-24.8,22.5-30.1,29.3L590.7,900.9z"/>
			<path opacity="0.3" fill="#091426" enable-background="new    " d="M773.2,984.6c-4.1-2.6-8.7-4.7-13-7c-9.4-5-18.8-10-28.7-13.9
				c-1-0.4-0.5-2,0.4-1.6c10.3,4.3,20.6,8.5,30.3,14c5.2,2.9,10.1,6.3,15.2,9.2c0.3,0.1,0.5,0.3,0.8,0.5c-3.3-4-6.8-7.9-10.8-11.3
				c-7.3-6.2-16.4-10-24.9-14.2c-17.1-8.3-36.6-12.3-52.4-23.4c-1-0.7-0.1-2.3,1-1.7c9.7,5.2,19.6,9.3,30,13
				c8.7,3.1,17.6,5.6,26,9.3c15.3,6.7,27,18.2,35.9,31.9c0.1,0,0.2,0,0.3,0.1c0.6,0.3,1.3,0.6,2,0.6c-2.1-4.4-4.1-8.9-6.4-13.2
				c-3.4-6.2-6.3-12.7-9.8-18.8c-3.9-6.9-8.5-12.9-13.6-18.9c-2.5-3-5.2-5.7-7.9-8.6c-3.1-3.4-5.8-7.4-8.9-10.8
				c-0.1-0.1-0.1-0.2-0.1-0.3c-0.1-0.1-0.2-0.1-0.4-0.2c-9.3-4.3-24.2-15.8-39.8-29c-6.3-5.3-12.8-10.8-19.2-16.6
				c-1.8-1.7-3.6-3.3-5.4-4.9c-24.1,12.9-48.5,31-67.4,51.2l5.1,6.1c2.2,1.8,4.2,3.5,6.2,5.1c6,4.8,12.4,9.5,18.8,13.8
				c21.6,14,30.4,12.2,46.3,19.2c20.9,9.3,38.1,13.8,53.7,18.5c15.1,4.5,27.5,8.6,35.4,14.3c0.4-0.2,0.8-0.4,1.2-0.6
				c-5.1-2.9-12.7-7-21.6-11.1c-16.4-7.6-46.2-10.5-69.7-23.3s-45.7-29.8-53.2-37.5s-7.7-11.2,1.8-2.3s30.3,24.5,48.7,31
				c18.3,6.5,48,14.4,67.2,22.8c17,7.5,29.4,12.1,36.5,17.5c0.4-0.1,0.9-0.1,1.3-0.2c-0.1-0.2-0.3-0.4-0.4-0.5
				C780.4,989.8,776.8,986.9,773.2,984.6z"/>
			<path opacity="0.3" fill="#091426" enable-background="new    " d="M937.4,962.3c-2.2,1.9-11.9,10.1-26.4,18.3
				c0,0,16.5-4.1,29.4-11.4c3.3-2.3,6.5-4.7,9.7-7.1C949.2,962.2,944.7,962.4,937.4,962.3z"/>
			<path opacity="0.3" fill="#091426" enable-background="new    " d="M762.6,930.3c0,0.1,0.1,0.1,0.1,0.2c1.5,0.7,3.1,1.4,4.6,2.1
				c-0.1-0.1-0.2-0.3-0.3-0.4C765.6,931.5,764.1,930.9,762.6,930.3z"/>
			<path opacity="0.3" fill="#091426" enable-background="new    " d="M738.6,919.5c0.8,0.5,1.6,0.9,2.4,1.4h0.1
				c-0.2-0.2-0.4-0.4-0.6-0.6C739.8,920.1,739.2,919.8,738.6,919.5z"/>
			<path opacity="0.3" fill="#091426" enable-background="new    " d="M755.6,927.3c-3.9-1.5-9-3.2-14.6-6.3
				c2.9,2.5,5.9,4.8,8.7,7.5c3.2,3.1,6.5,6.1,9.7,9.2c5.1,4.9,9.3,10.6,12.8,16.7c3.5,6,6.6,12.3,9.3,18.8c0.1,0.1,0.1,0.3,0.2,0.4
				c-0.8-4.8-2-9.5-3.7-14.1c-3.9-10.3-9.7-19.6-15.3-29c-0.9-0.4-1.7-0.8-2.6-1.2C758.6,928.6,757.1,927.9,755.6,927.3z"/>
			<path opacity="0.3" fill="#091426" enable-background="new    " d="M937.9,961.9c-1.8,0-3.8,0-6-0.1l0,0c0,0-0.2,0.1-0.6,0.4
				c2.2,0,4.3,0,6.2,0.1C937.7,962.1,937.9,961.9,937.9,961.9L937.9,961.9z"/>
			<path opacity="0.3" fill="#091426" enable-background="new    " d="M841.8,954.2c-6.4-1.2-12.5-2.5-18.4-3.9
				c-19-4.3-38.3-10-56.1-17.8c5.4,7.6,10.4,15.7,13.9,24.3c2.1,5.1,3.6,10.5,4.4,16c0.5,3.6,1.4,7.9,0.8,11.7
				c0,0.1,0.1,0.2,0.1,0.2c1.4,2.5,3.1,4.8,4.7,7.1c-0.1-7.5-0.2-14.9-0.3-22.4s-0.9-15.8,0.4-23.2c0.2-1.2,2-1.1,2.3,0
				c1.9,7.3,1.6,15.7,2,23.2c0.2,5.3,0.4,10.6,0.6,15.8c6,11.6,20.3,3.2,27.4-3.6c6.8-6.5,13-15,15.9-24c0.8-2.4,4.3-1.4,3.8,1
				c-1.3,6.8-4.8,11.4-9.3,16.4c-4.7,5.2-8.7,11.1-14.4,15.3c-0.8,0.6-1.7,1.2-2.6,1.7c-0.5,1.2-1,2.4-1.5,3.5
				c5.7-4.2,10.9-9,16.9-12.9c7.5-4.9,13.8-10.9,18.6-18.3c0.7-1.1,2.8-0.4,2.3,1c-3.2,8.2-8.5,14.8-16,19.5
				c-4.3,2.7-8.6,5.2-12.6,8.3c-0.7,0.9-1.4,1.8-1.9,2.8c-0.4,0.7-1.2,2.2-0.4,3c0.5,0.5,1.3,0.5,2.1,0.5c4.1-1.4,8.2-3.8,11.5-5.1
				c6.7-2.7,13.6-5.1,20.2-8.1c5.8-2.6,11.4-5.6,16.6-9.3c5.1-3.7,9.3-8.1,14-12.2c0.7-0.6,2,0,1.7,1c-4.3,13.2-19.4,21-31.2,26.1
				c-4,1.7-8,3.2-12,4.7c-3,1.5-6,3.1-8.9,4.8c-0.2,0.1-0.4,0.3-0.7,0.4c-0.7,0.9-1.1,1.9-0.3,2.7c0.9,0.9,3.3,1.1,4.5,1.2
				c1.7,0.1,3.6-0.1,5.4,0.2c18.2-5.1,41.5-15.8,57.1-25.3c18.7-11.3,26.6-16.7,28.7-18.2c-14.1-0.2-35-1-58.7-3.8
				C862.2,957.4,851.7,956,841.8,954.2z"/>
			<path opacity="0.3" fill="#091426" enable-background="new    " d="M1274.7,648.7c-2.4,17.8-4.8,35.8-6.3,46.8l0,0
				c0.3,1.5,0.7,3,1.4,4.5c3.2,5.8,11.1,14.3,15.7,22.7c7.5-3.3,14.1-6,20.6-8.4c-1.8-3.4-3.7-6.6-5.6-9.8
				C1289.5,686.4,1280.2,671.1,1274.7,648.7z"/>
			<path opacity="0.3" fill="#091426" enable-background="new    " d="M1292.7,740.2c0.3,1.2,0.7,2.4,1,3.5c0.8,2.5,1.4,5,1.9,7.5
				c0.9,4.1,1.5,8.4,1.7,13.2c10-0.7,18.9-1.2,27.6-1.3c-2.7-11.8-7.3-25-13.2-37.6c-7,1.8-14,4.1-21.7,7.3
				C1290.5,734.4,1292.1,738.3,1292.7,740.2z"/>
		</g>
		<g id="_x31_4_x5F_Hair_x5F_Pigtails_x5F_elastics_x5F_Main_Asset">
			<path fill="#143E34" d="M775.5,1012c0,0-4-1-7.4-6.1c-3.4-5,0-8.9,7.4-11.2c7.4-2.4,23.6-4.2,34.1,1.1
				c10.4,5.3,16.2,6.7,17.8,10.1c1.6,3.4-1,6.6-2.6,6.7c0,0,2.8,0.8,2,4.6c-0.8,3.7-1.9,4.6-9.5,4.1s-21.1-2.5-30.2-1.5
				s-8.7,0.7-11.1-2.1C773.7,1014.9,775.5,1012,775.5,1012z"/>
			<path fill="#143E34" d="M1123.8,983.2c0.2-0.1-5.2,1.5-7.2-2.8s3.4-8.4,8.7-10.2c5.3-1.8,17.7-5,23.1-4.6s10,1.8,12,5.9
				c1.9,4.1-3.5,7.1-3.5,7.1s3.4,1.9,2.8,4.8s-7.3,5.3-18.6,6.6s-13.5,2.9-17.6,0.9C1119.3,989,1120.5,985.1,1123.8,983.2z"/>
			<path opacity="0.3" fill="#091426" enable-background="new    " d="M1160.4,974.9c-13-5.5-29-2.5-43.2,6.5c1.5,1.9,3.9,2.1,5.3,2
				c3.8-2,9.9-4.1,18.8-4.2c9.8-0.1,15,0.8,17.7,1.6c-0.8-1.4-2.3-2.2-2.3-2.2S1159.5,977.1,1160.4,974.9z"/>
			<path opacity="0.3" fill="#091426" enable-background="new    " d="M1153.6,984.1c-7.3,0.4-21.5-0.3-32.7,4.1c0.2,1,1,2,2.5,2.7
				c4.1,2,6.4,0.4,17.6-0.9c10.8-1.2,17.3-3.4,18.4-6.2C1157.9,983.9,1155.9,984,1153.6,984.1z"/>
			<path opacity="0.3" fill="#091426" enable-background="new    " d="M809.9,1006.8c-13.8-3.5-20.3-1.6-29.3,0
				c-6.9,1.3-11.9-2.1-13.3-6.8c-0.9,1.7-0.7,3.7,0.8,5.9c3.4,5,7.4,6.1,7.4,6.1s-1.8,2.9,0.5,5.6c2.3,2.7,2,3,11.1,2.1
				c0.4,0,0.7-0.1,1.1-0.1c-5.5-1.7-6.7-4.6-5.6-5.9c1.5-1.7,7.4-4.5,22.7-3c10.6,1.1,18,4,21.6,5.8c0.4-3.2-2.1-3.9-2.1-3.9
				c0.4,0,0.8-0.2,1.2-0.5C822.3,1010.5,816.9,1008.6,809.9,1006.8z"/>
			<path opacity="0.3" fill="#091426" enable-background="new    " d="M810.6,1020.6c2.5,0.2,4.7,0.5,6.7,0.6c5.8,0.4,7.8,0,8.8-1.9
				C823.1,1019.6,817.1,1020.2,810.6,1020.6z"/>
		</g>
	</g>
	<g id="Original">
		<g id="_x31_4_x5F_Hair_x5F_Pigtails_x5F_back_x5F_Main_Asset_1_">
			<path fill="#9F592A" d="M1333.6,705.7c-8.2-15.3-15.6-31.7-21.2-47c-9.8-26.5-19.9-59.8-27.7-81.7c0,0-3.7,25.2-6.9,48.5
				c-3.2,23.3-7.2,54-9.4,70.1c-0.7,5,11.1,16.2,17.1,27.2C1302.9,715,1315.7,710.5,1333.6,705.7z"/>
			<path fill="#9F592A" d="M1359.3,766.1c-1-10.4-3.6-19.1-8.2-28.9c-2.5-5.3-6.7-11.5-9.7-17.1c-19.7,2.6-33.6,5.2-51.5,12.6
				c0.6,1.6,2.2,5.5,2.7,7.4c2.4,8.1,4.2,15.1,4.5,24.3C1320,762.9,1337.5,761.8,1359.3,766.1z"/>
			<path fill="#9F592A" d="M1295.8,776.4c-4.5,14.1-15.1,39.8-34,59.9c-37.6,40.1-69,52.7-111.1,74.1c-42,21.4-86.9,35.3-86.9,35.3
				s9,6.9,27.6,14.2c18.6,7.2,25.3,16.4,25.3,16.4s8.9-8,23.7-9.8c17.1-2.1,19.5,4.2,19.5,4.2s61-21.6,115.2-58.3
				s74.6-71.1,80.4-98.3c2.2-10.2,3.7-20.1,4.1-29.9C1337.1,779.9,1318.8,774.8,1295.8,776.4z"/>
			<path fill="#9F592A" d="M1102.2,1007.1c0,0,0.3-2.4,7.2-7.1s11.1-7.9,12.4-10.2c0,0,1.5,3.5,15.4,0.7s17.3-2.8,20.8-5
				c0,0,13.2,4.6,32.4,16.1s45.8,23,66.9,48.6s21.4,40.6,23.6,52.4s2.2,35.7-4.6,48.2c0,0-51.4-27-74.8-47.6s-60.2-51.6-74.9-68.6
				S1102.2,1007.1,1102.2,1007.1z"/>
			<path fill="#9F592A" d="M1140.6,1152.8c0,0,26.3,35.5,49.1,58.6c22.8,23,93.5,66.8,93.5,66.8s8.2,17.4,0,37.1s-28,33.6-57.2,33.5
				s-36-10.1-40.2-17.8s0.1-11.6,2-12.5s-0.6,2.5,1.2,6.5s7.6,10.1,16.8,5.8s6.5-32.6-2.8-51.5s-26.8-40.4-42.8-45.8
				c0,0-10.2-47-14.3-61.7C1141.9,1157,1140.6,1152.8,1140.6,1152.8z"/>
			<path fill="#9F592A" d="M917.7,1101.4c0,0,11.6,2,14.8,34.4s-2.3,59.4-10,77.8s-33.5,47-55.8,54.5c0,0-17-11.9-26.2-17.9
				c0,0,2.8-17.8-9-37.5c0,0,11.4-20.1,33.7-50.4S917.7,1101.4,917.7,1101.4z"/>
			<path fill="#9F592A" d="M690,1189.5c0,0,60.5-46.7,111.9-81.5s72.4-46.2,72.7-48.5c0.2-2.3-1.2-5.9-9.6-12.1s-32.5-20.9-40-25.6
				s-7.6-0.5-18.6-1.5s-21.2-2.2-21.2-2.2s-3.8,6.6-14.8,13s-45.6,19.6-67.8,34.3s-37.6,29.7-47,53.9s4.8,48,12,56.2
				S690,1189.5,690,1189.5z"/>
			<path fill="#9F592A" d="M675.2,868.7"/>
			<path fill="#9F592A" d="M663.2,856.9c-7.7-7.1-20.2-16.5-20.2-16.5s-8.2,14.8-26,26.7c-17.8,11.8-33.2,33.3-33.2,33.3
				s0.9,1.6,3.5,4C607.2,883.5,640.7,867.8,663.2,856.9z"/>
			<path fill="#9F592A" d="M841.8,954.2c-48.1-8.9-80.2-24.1-103.7-34.8c-14.2-6.5-41.4-29.8-64.3-50.6
				c-24.5,13.1-49.4,31.6-68.4,52.3c11.9,10.2,27.8,22.8,42.2,30.8c27.6,15.3,72.7,32.6,88.2,37.4c15.5,4.8,31.3,11.1,31.3,11.1
				s10-10.2,29-6.6c21,4,28.5,7.8,31.8,14.8c0,0,25.5,3.2,55.5-8.2c30.1-11.4,48.3-24.5,67-38.3
				C950.5,961.9,889.9,963.1,841.8,954.2z"/>
		</g>
		<g id="_x31_4_x5F_Hair_x5F_Pigtails_x5F_back_x5F_Highlights_1_">
			<path opacity="0.3" fill="#091426" enable-background="new    " d="M873.6,1226.7c0-0.2,0-0.3,0-0.5
				C873.6,1226.4,873.6,1226.5,873.6,1226.7L873.6,1226.7z"/>
			<path opacity="0.35" fill="#E8FFFA" enable-background="new    " d="M870.6,1063c1.9-1.3,3.1-2.2,3.6-2.9
				c-6.3-7-14.8-12.7-22.4-17.9c-4-2.7-8.1-5.3-12-8.1c-2.2-1.5-4.3-3.1-6.2-4.9c-1.8-1.6-2.2-2.7-4.5-3c-0.3,0-0.7,0.1-0.7,0.5
				c-0.1,1.8,0.9,3.4,2.1,4.8c-2.4-2.1-3.6-2.3-6.3-4.1c-0.6-0.4-2.1-1.2-2.2-0.6c-0.2-0.4-0.2,1.4-0.4,1c-0.8-1.3-1.8-0.7-1.1,0.7
				c3.6,7.8,7,13.1,11.6,20.3c2.7,4.2,8,13.2,13.7,13.1c0.8,0,1.2-0.7,1.1-1.5c-0.5-2.9-3-4.4-4.9-6.5c-2.5-2.6-4.7-5.5-7-8.4
				c-4.4-5.5-8.5-11.3-12.2-17.4c6.7,6.8,14.1,12.9,20.7,20c3.3,3.5,6.4,7,9.3,10.8c2.6,3.4,4.9,7.4,7.8,10.7
				c1.3-0.8,2.5-1.6,3.6-2.3c-2.1-3.4-5.3-6.4-7.9-9.3c-3.6-4-7.1-7.9-10.8-11.8c-3.3-3.5-6.6-7-10.2-10.3c3.6,3.1,7.4,5.8,11.3,8.5
				C855,1050.1,862.5,1056.9,870.6,1063z"/>
			<path opacity="0.35" fill="#E8FFFA" enable-background="new    " d="M924,1116c-0.9-2.7-2.6-5.1-3.9-7.6c-1-1.9-2.2-4-3.9-5.4
				c-0.6,0.6-1.3,1.3-2.1,2.2c0.7,1.7,2,3.4,3.1,4.8c1.8,2.2,3.7,4.7,5.9,6.5C923.5,1116.7,924.2,1116.5,924,1116z"/>
			<path opacity="0.35" fill="#E8FFFA" enable-background="new    " d="M910,1162.8c3-5.3-0.1-15-1.3-20.5c-1.8-8-4.6-15.7-7.5-23.3
				c-1.1,1.2-2.1,2.4-3.3,3.6c2.1,6.7,3.7,13.4,5.2,20.3c0.8,3.7,1.5,7.3,2.3,11c0.7,3.2,1,6.7,3.3,9.1
				C909.1,1163.4,909.8,1163.3,910,1162.8z"/>
			<path opacity="0.35" fill="#E8FFFA" enable-background="new    " d="M915.9,1126.9c1.8,13.6,2.8,27,1.1,40.6c0-0.8,0-1.7,0-2.5
				c-0.2-8.3-1.4-16.5-2.7-24.7c-0.7-4.3-1.8-8.5-2.9-12.7c-1.1-4.1-1.8-8.7-3.4-12.6c-0.1-0.3-0.8-0.4-0.7,0.1
				c0.6,4.3,2,8.4,2.6,12.7c0.5,3.7,0.7,7.4,1,11.1c0.8,8.4,0.8,16.7,0.6,25.1c-0.2,8.1-0.6,16.2-1.6,24.2c-0.5,4.4-1.2,8.8-2,13.1
				c-0.6,3.8-2.3,7.8-1.9,11.6c0.2,1.9,1.4,2.1,2.5,0.6c0.7-0.9,1.2-2,1.6-3.1c0.9-1.8,1.8-4.3,2.5-6.2c1.4-4,3.3-7,4.5-11
				c2.1-7,3.6-14.2,4.2-21.5c1.3-14.9,0.7-30.7-3.6-45.1C917.4,1125.7,915.7,1125.8,915.9,1126.9z"/>
			<path opacity="0.35" fill="#E8FFFA" enable-background="new    " d="M1256.4,1294.7c-0.9,5.5-1.9,11-3.3,16.5
				c-1.1,4.3-4.2,8.9-4.1,13.3c0,1,1,1.5,1.9,1.1c4.1-2,5.7-8.1,6.8-12.2c1.8-6.6,3.1-13.4,4.1-20.1c1.4-10.2,1.1-20.4-2.1-30.1
				c-1.4-0.9-2.9-1.9-4.3-2.8C1258.8,1271.4,1258.2,1283.3,1256.4,1294.7z"/>
			<path opacity="0.35" fill="#E8FFFA" enable-background="new    " d="M1273,1276.3c-2,7-3.5,14-6.1,20.9c-1.3,3.5-2.6,6.9-4,10.4
				c-1.1,2.7-2.5,4.8-1.6,7.7c0.2,0.7,0.9,0.9,1.5,0.6c2.9-1.3,3.5-4.2,4.6-7.1c1.5-4.1,2.8-8.1,3.8-12.3c0.9-3.7,1.5-7.4,2.2-11.2
				c0.6-3.3,1.7-5.8,0.3-9C1273.5,1276,1273.1,1276.1,1273,1276.3z"/>
			<path opacity="0.35" fill="#E8FFFA" enable-background="new    " d="M1278.6,1141.7c-1.1-5.2-2.8-10.2-4.7-15.2
				c-0.5-1.3-1-2.6-1.5-3.9c-1-2.8-2.2-5.4-3.7-8s-3.3-5-5-7.4c-0.5-0.7-1.1-1.4-1.6-2.1c-5.8-7.7-13-13.7-20.7-19.5
				c-8.4-6.3-17.6-10.9-27-15.6c-7.8-3.9-15.2-9.3-23-13.4c-5.5-3.9-10.5-7.2-15.9-12.3c-0.9-0.9-1.5-0.7-0.7,0.3
				c7.4,9.1,16.2,17.2,26.3,23.2c10.3,6.2,20.6,12.3,30.3,19.3c19.7,14.3,35.4,32.4,43.7,55.5
				C1275.9,1144.9,1279.1,1144,1278.6,1141.7z"/>
			<path opacity="0.35" fill="#E8FFFA" enable-background="new    " d="M1279,1113.9c-3.2-8.2-7.6-15.5-13.7-21.9
				c-6.4-6.6-13.9-12-21.8-16.6c-8.9-5.2-17.5-10.5-26.9-14.9c-0.8-0.3-1.4,0.7-0.7,1.1c16.3,9,32.6,17.9,45.5,31.7
				c6.1,6.5,11.1,14.8,14.1,23.2c1.5,4.2,4.3,9.5,5.4,13.8c0.2,0.6,0.3,1.2,0.4,1.7c0.4-3,0.6-6.1,0.7-9.2
				C1281.2,1120,1280.2,1116.9,1279,1113.9z"/>
			<path opacity="0.35" fill="#E8FFFA" enable-background="new    " d="M1180.6,1017.4c7.7,6.3,17.2,14.9,27.3,16.3
				c0.4,0.1,0.9-0.3,0.6-0.8c-5.8-7.9-16.5-13.1-24.6-18.3c-9.9-6.4-19-13.8-27.9-21.6c-0.9-0.8-2.3,0.5-1.4,1.4
				C1162.8,1002.5,1171.7,1010.1,1180.6,1017.4z"/>
			<path opacity="0.35" fill="#E8FFFA" enable-background="new    " d="M1176.4,1004.4c5.8,4,11.5,8.1,17.1,12.4
				c11.8,9,23.7,18.1,35.1,27.6c1.2,1,2.8-0.7,1.7-1.7c-11.2-9.4-21.9-19.1-33.5-28c-5.8-4.5-11.7-8.8-17.8-13
				c-1.3-0.9-2.5-1.8-3.8-2.8c6.1,3.1,12.4,6,18.3,9.1c9.8,5.2,19.2,10.9,28.3,17.3c8.4,5.9,16.6,12.1,24,19.3
				c3.4,3.3,6.6,6.8,9.8,10.3c3.1,3.4,5.5,8.1,9.4,10.7c0.7,0.5,1.3-0.3,1.2-1c-0.3-1.9-1.1-3.8-2.2-5.6c-2-2.8-4.2-5.7-6.7-8.8
				c-11.1-13.5-23.8-23.1-36.1-30.8c-8.2-5-16.7-9.4-25.2-13.8c-10-5.2-20.2-11.5-30.9-15.3c-0.9-0.3-1.5,0.6-1.3,1.3
				c-1-0.4-2-0.8-3-1.1c-1.3-0.4-2.2,1.3-1.3,2.2C1164.1,997.5,1170.9,1000.7,1176.4,1004.4z"/>
			<path opacity="0.35" fill="#E8FFFA" enable-background="new    " d="M1251.6,1057.2c-2.7-3.1-5.6-8.7-9.8-9.5
				c-0.3-0.1-0.6,0.2-0.5,0.5c0.9,3.7,5.2,6.6,7.7,9.4c3.7,4.1,7.1,8.5,10.4,13c2.8,3.9,6,8.2,9.3,11.7c2.4,2.5,1.8,2.8,3.1,4.2
				c0,0,0.1-0.4-2.3-4.4c-2.8-4.6-6.4-9.5-9.7-13.8C1256.9,1064.5,1254.7,1060.7,1251.6,1057.2z"/>
			<path opacity="0.35" fill="#E8FFFA" enable-background="new    " d="M1290.5,639c0.1,0.9,0.3,1.8,0.5,2.8
				c1.3,5.8,2.7,11.5,5,16.9c2.3,5.2,5.4,9.9,8.8,14.4c1.6,2.2,3.9,4.4,5.6,6.8c-1.2-2-2.4-3.9-3.5-5.9c-4.6-7.9-8.6-16-12.2-24.4
				C1293.2,646.2,1291.7,642.7,1290.5,639z"/>
			<path opacity="0.35" fill="#E8FFFA" enable-background="new    " d="M1324.7,762.9c0.9,0.2,1.5,0.1,2.1,0.1
				c-0.6-2.4-1.4-5.3-2.1-7.7c-2.9-10.3-6.6-20.4-10.8-30.3c-0.7,0.2-1.4,0.5-2.1,0.6c3.8,8.2,7.3,16.6,9.9,25.1
				C1322.8,754.6,1323.8,758.8,1324.7,762.9z"/>
			<path opacity="0.35" fill="#E8FFFA" enable-background="new    " d="M1328,802.9c0.2,1.2,0.9-1,1.2-2c2-6.9,1-15.5,0.1-22.7
				c-0.7-0.2-1.4-0.3-2.1-0.4C1328.1,785.7,1326.9,795.1,1328,802.9z"/>
			<path opacity="0.35" fill="#E8FFFA" enable-background="new    " d="M1300,702c2.1,4.2,4.3,8.4,6.4,12.7c0.8-0.3,1.6-0.5,2.4-0.7
				c-0.7-1.4-1.4-2.9-2.1-4.3c-7.4-15.3-15.7-30.5-20.6-46.9c-4.5-15.1-7.7-34.6-0.2-48.9c0.4-0.8-1-1.4-1.4-0.6
				c-3.2,6.7-5.7,12.7-6.4,20.1c-0.8,7.7-0.1,15.4,1.6,22.9C1283.3,672.8,1292.4,687.1,1300,702z"/>
			<path opacity="0.35" fill="#E8FFFA" enable-background="new    " d="M1289.6,625c-0.1-0.7-0.7-1-1.3-0.9c0,0,0,0,0-0.1
				c-0.1-0.5-1-0.6-1.1,0c-0.9,5.9,0.5,12.3,1.2,18.2c0.7,6,1.8,12.1,4.2,17.8c2,4.9,4.8,9.4,8,13.7c2.9,4,6.4,9.7,11,11.8
				c0.6,0.3,1.4-0.2,1.2-0.9c-0.2-0.7-0.5-1.4-0.8-2.1c5.2,8.5,10.6,16.8,15.8,25.3c1.3-0.5,2.7-0.9,4.1-1.3
				c-5.2-9.1-10.7-18.1-16.1-27c-5-8.3-10-16.6-14.7-25.1C1296.1,645.4,1290.5,635.2,1289.6,625z M1310.4,679.9
				c-1.7-2.4-4-4.6-5.6-6.8c-3.4-4.5-6.5-9.2-8.8-14.4c-2.4-5.4-3.8-11.1-5-16.9c-0.2-0.9-0.4-1.8-0.5-2.8c1.2,3.6,2.7,7.1,4.2,10.6
				c3.6,8.4,7.6,16.5,12.2,24.4C1308.1,676,1309.2,678,1310.4,679.9z"/>
			<path opacity="0.35" fill="#E8FFFA" enable-background="new    " d="M1335.8,722.1c7,13.6,12.7,27.9,15.2,42.9
				c1.6,0,3.1,0.1,4.6,0.3c-2.3-12.9-6.9-25.4-12.5-37.2c-1.3-2.7-2.6-5.3-3.9-8c-1.3,0.3-2.6,0.6-3.9,1
				C1335.5,721.5,1335.7,721.8,1335.8,722.1z"/>
			<path opacity="0.35" fill="#E8FFFA" enable-background="new    " d="M1352.5,782.8c0,7.9-0.9,15.4-2.3,23.2
				c-1.6,9.1-2.2,19.5-4.9,28.3c-0.2,0.6,0.8,0.9,1.2,0.3c5.1-7.6,6.4-18.6,8-27.4c1.5-7.9,2.4-15.5,2.5-23.5
				C1355.6,783.5,1354,783.1,1352.5,782.8z"/>
		</g>
		<g id="_x31_4_x5F_Hair_x5F_Pigtails_x5F_back_x5F_Shadows_1_">
			<path opacity="0.3" fill="#091426" enable-background="new    " d="M754.9,1069.6c-11.1,11.4-19,25.4-21.4,41.2
				c-2.5,16.4,0.3,33,5.8,48.5c0.4,1.2,2.3,0.7,1.9-0.5c-5.4-15.3-8.2-31.7-5.7-47.9c1.2-7.4,3.4-14.7,6.8-21.5
				c1.8-3.5,3.8-6.8,6-10.1c2.2-3.3,4.8-6.2,7-9.4C755.5,1069.6,755.1,1069.3,754.9,1069.6z"/>
			<path fill="none" d="M789.2,1031.4c-3.9,5.2-10.2,8.4-16.1,11c-7.5,3.4-15.3,6.4-23,9.4c-16.2,6.3-32.5,12.8-46.9,22.5
				c-13.5,9.1-25.6,21.3-31.6,36.7c-3.1,8-4.5,16.6-4.7,25.2c-0.1,6.4,0.7,12.6,1.4,18.8c7.4,11,14.7,10.5,18.7,9.8
				c0,0-8.9-23.9,4.2-51.5s29.4-39.9,45.2-46.8s50.6-23,56.2-28.7C796.8,1033.7,794.2,1031.8,789.2,1031.4z"/>
			<path opacity="0.3" fill="#091426" enable-background="new    " d="M831.9,1052.8c6,7.9,12.7,15.4,19.6,22.5
				c0.5-0.3,1.1-0.7,1.6-1c-6.6-7.3-13.5-14.4-19.5-22.2c-3.2-4.2-6.3-8.5-9.1-13c-2.4-3.8-4.3-7.9-6.3-11.9
				c4.6-0.6,8.6-1.5,11.9-2.3c-2-1.3-3.8-2.3-5-3.1c-7.5-4.8-6.6-0.5-17.6-1.5s-22.2-2.3-22.2-2.3s-3.8,6.6-14.8,13
				c-6.1,3.5-19.5,9.2-34,16.1c17.2-6.6,40-15.1,45.5-15.6c1.3-0.1,2.5-0.2,3.7-0.2c-14.2,10.1-31.3,15.2-47.4,21.7
				c-15.3,6.2-30.3,13.1-43.4,23.4c-11.8,9.2-21.8,21-26.9,35.2c-2.9,7.9-4.1,16.3-4.3,24.6c-0.1,3.4-0.1,7,0.1,10.6
				c-6.4-13.9-8-21.6-2.7-39.1c-1.9,3.6-3.7,7.4-5.3,11.5c-9.4,24.2,4.8,48,12,56.2s22.2,14,22.2,14s5.3-4.1,14-10.7
				c-20.7-37-3.6-81,16.8-96.1c21.4-15.9,42.9-22,42.9-22c-0.3,0.5-0.6,1-0.9,1.5c-3.5,1.8-7,3.9-10.4,5.8
				c-3.7,2.1-7.2,4.3-10.5,6.9c-6.5,5.1-12.2,11.3-16.7,18.2c-9.5,14.3-13.5,31.6-10.8,48.6c1.3,8.1,4.1,15.9,8.2,23
				c0.5-0.4,1.1-0.8,1.6-1.2c-7.6-13.2-10.4-29-7.8-44.1c2.7-15.9,11.3-30.5,23.5-41.1c3.7-3.2,7.8-6,12-8.5
				c3.1-1.9,6.5-3.5,9.7-5.4c-3.6,4.5-6.9,9.2-8.6,14.7c-2,6.6-2.9,14-3.1,20.9c-0.2,6.8,1.1,13.5,3.5,19.9c1.2,3.1,2.6,6.2,4.1,9.2
				c1.2,2.4,2.4,4.9,3.8,7.2c0.6-0.4,1.2-0.9,1.8-1.3c-2.3-4.8-5.2-9.4-7.2-14.4c-2.5-6.3-4-12.9-3.9-19.7c0-6.7,0.8-13.6,2.4-20.1
				c1.2-4.6,3.2-8.5,5.7-12.4c-5,14.4-6.4,36.7-1.2,50.6c2.4,6.4,4.6,11.1,6.5,14.4c3-2.1,5.9-4.2,8.9-6.4
				c-6.6-11.3-9.9-27.2-10.6-38.8c-0.7-13.2,7.1-32,7.1-32s1.3-0.7,4.2-2.4c-2.3,5.1-3.6,11-4.7,16.4c-1.3,6.4-2,12.9-1.7,19.4
				c0.3,6.4,1.5,12.7,3.6,18.7c1.8,5.1,3.8,10.6,6.5,15.4c0.6-0.4,1.2-0.9,1.8-1.3c-2.1-4.7-4.7-9.2-6.5-14.2
				c-2.2-6-3.6-12.3-3.9-18.7c-0.4-6.4,0-12.9,1.2-19.2c0.6-3,1.3-5.9,2.1-8.8s2-5.7,2.9-8.6c0.5-0.3,0.9-0.5,1.5-0.8
				c-0.6,2.4-0.7,4.9-1,7.2c-0.4,3.3-0.6,6.5-0.6,9.8c0,6.1,1,11.9,2.3,17.9c2.3,10.1,6.1,19.9,11.3,28.9c0.5-0.4,1.1-0.8,1.6-1.1
				c-5-8.7-8.4-18.1-11.2-27.8c-1.7-5.8-2.9-11.7-2.8-17.8c0-2.9,0.2-5.9,0.5-8.8s1-5.9,1-8.9c3-1.7,6.9-4,11.9-6.9
				c5.7-3.3,9.2-6.7,11.4-9.5c-1.6,7.6-2.7,15.3-2.7,23.3c0,5.5,0.6,11,1.7,16.4c1.1,5.4,2.2,11.8,5.3,16.4c0.1,0.2,0.4,0.1,0.4-0.2
				c-0.7-5.5-3-10.8-4-16.2c-1.1-5.7-1.6-11.5-1.7-17.3c-0.1-5.7,0.3-11.3,1.2-16.9c0.5-2.9,1.3-5.7,2-8.6c0.2-0.3,0.3-0.6,0.4-0.8
				c0,3-0.1,6.1,0,9.1c0.3,5,0.9,9.9,1.8,14.8c0.9,5,2,10,3.4,14.9c0.7,2.5,1.4,4.9,2.1,7.3c0.7,2.3,1.2,4.8,2.4,6.9
				c0.2,0.4,1.1,0.3,1-0.3c-0.5-4.7-2.6-9.4-3.8-13.9c-1.3-4.9-2.5-9.9-3.4-14.9c-0.9-5.2-1.6-10.5-1.8-15.8
				c-0.2-3.8,0.2-7.7-0.2-11.5c0.8,0,1.5-0.1,2.3-0.1c5.3,20.8,14.3,40.3,24.7,59.1c0.5-0.4,1.1-0.7,1.6-1.1c-4.9-9-9.8-18-14-27.3
				c-2.4-5.4-4.6-10.9-6.4-16.5c-1.5-4.7-2.9-9.6-4.5-14.3c2.6-0.2,5.1-0.4,7.5-0.7C820.4,1036.6,826.1,1045.2,831.9,1052.8z
				 M792.8,1037.8c-5.6,5.8-40.4,21.9-56.2,28.7s-32.1,19.2-45.2,46.8s-4.2,51.5-4.2,51.5c-4,0.7-11.3,1.2-18.7-9.8
				c-0.6-6.3-1.5-12.5-1.4-18.8c0.2-8.6,1.6-17.2,4.7-25.2c6-15.3,18.1-27.5,31.6-36.7c14.4-9.8,30.8-16.2,46.9-22.5
				c7.7-3,15.4-6,23-9.4c5.9-2.6,12.1-5.7,16.1-11C794.2,1031.8,796.8,1033.7,792.8,1037.8z"/>
			<path fill="none" d="M873.6,1226.7c0-0.2,0-0.3,0-0.5C873.6,1226.4,873.6,1226.5,873.6,1226.7L873.6,1226.7z"/>
			<path opacity="0.3" fill="#091426" enable-background="new    " d="M922.5,1213.6c5.4-13,9.8-30.4,10.7-50.9
				c-1.6,5.2-3.9,12.6-7,20.9c0.6-10.4,0.6-21,0-31.4c-0.5-9.5-1.8-19.3-4.6-28.4c-1.7-5.5-4.1-13.1-8-18.2c-0.5,0.5-1,1-1.5,1.6
				c1.2,2,2.6,4,3.6,6c2,4,3.4,8.4,4.6,12.8c2.3,8.2,3.2,16.6,3.5,25c0,1.4,0,2.9,0.1,4.4c0.1,5.4-0.1,10.7-0.4,16.1
				c-1.1,5.3-2.9,10.5-4.5,15.7c-1.9,6.1-3.8,12.2-6.2,18.1c-1.3,3.1-2.7,6.1-4.3,9c-0.7,1.3-5.2,8.9-7.5,7.2c0.4-1.7,0.9-3.3,1.2-5
				c2.2-9.6,4.2-19.9,4.8-29.7c0.7-10.5-1.2-21.1-3.9-31.2c-2.5-9.5-5.7-18.9-9.8-27.9c-0.5,0.6-1,1.1-1.5,1.7
				c7.5,17.7,14,38.3,12.6,57.4c-0.5,7.4-2.2,14.7-4.1,22c-0.7,1.9-1.3,3.8-2,5.7c0.9-4.3,1.3-8.8,0.9-13.3
				c-1.5-21-6.7-43.1-15.7-62.1c-0.3,0.4-0.6,0.8-1,1.1c6.8,17.6,12.4,35.5,13.6,54.4c0.7,10.3-0.7,19.6-4,29.3
				c-2.3,6.9-4.2,15.9-10,20.6c-0.7,0.4-1.3,0.7-2,1c-5.4-0.9-4.7-9.9-4.5-14.6c0.2-4.9,0.3-9.7,0.3-14.6c0-2.5-0.1-4.9-0.3-7.4
				c0.2-8.6-0.7-17.3-1.8-25.8s-3.5-16.4-6.1-24.4c-0.2,0.2-0.3,0.4-0.5,0.7c3.5,13.1,5.1,26.6,5.7,40.2c0.3,8.1-0.3,16-2.2,23.9
				c-0.8,3.6-1.8,7.1-3,10.5c-0.7,2.2-1,4.9-3.2,6.2c-1.5,1.7-2.8,1.3-3.9-1.4c-0.1-0.2-0.2-0.3-0.3-0.5c-0.4-4.9-2-10.2-2.6-12.2
				c-2.2-6.7-4.5-13.4-7.3-19.8c-1.4-3.1-2.9-6.1-4.4-9.1c-0.8-1.5-1.5-3.1-2.1-4.7c-0.5,0.7-0.9,1.4-1.3,2c0.4,1,0.9,1.9,1.3,2.9
				c2.3,5,4.7,9.9,6.7,15c1.8,4.7,3.5,9.5,4.9,14.3c0.6,1.8,4.8,17.3-0.2,18.1c-0.4-2.3-4.8-25-17.4-43.1
				c-4.5,7.1-6.8,11.2-6.8,11.2c11.8,19.8,9,37.5,9,37.5c9.2,6,26.2,17.9,26.2,17.9C889.1,1260.6,914.9,1232,922.5,1213.6z
				 M873.6,1226.7L873.6,1226.7c-0.1-0.2,0-0.3,0-0.5C873.7,1226.4,873.6,1226.6,873.6,1226.7z"/>
			<path fill="none" d="M1239.8,1287.2c3.4,13.9,1.6,29.3-3.2,37.4c8.4-6.6,13.2-16.7,13.1-27.9c-0.2-16.1-8.7-30-20.1-40.9
				c-11.1-10.7-24.8-18-37.6-26.5c-2.6-1.7-5.1-3.6-7.5-5.5c2.3,2.3,4.8,4.8,7.7,7.5C1218.8,1256,1235.8,1270.9,1239.8,1287.2z"/>
			<path opacity="0.3" fill="#091426" enable-background="new    " d="M1238.8,1329.6c0.1,0,0.2,0,0.4,0c0-0.1,0-0.2,0-0.3
				C1239,1329.5,1238.9,1329.6,1238.8,1329.6z"/>
			<path opacity="0.3" fill="#091426" enable-background="new    " d="M1226,1348.8c29.2,0.1,49-13.9,57.2-33.5
				c4.2-10.1,4.1-19.6,3-26.4c-1.2,2.6-2.8,6.2-5,10.2c-0.9-1.1-1.7-2.4-1.9-3.8c1.2-6,1.8-12.2,1.9-18.3c-0.6-0.4-1.4-0.9-2.3-1.5
				l0,0c-2,9.6-3.9,19.2-7.1,28.5c-1.5,4.3-3.3,8.5-5.5,12.5c-1.3,2.3-2.9,4.4-4.4,6.5c-0.4,0.2-0.7,0.5-1.1,0.7
				c-1.5,1-3,1.8-4.4,2.5c0.2-0.4,0.4-0.8,0.6-1.2c2.8-6.7,4.9-14,6.5-21c2.5-11.3,4.6-24.4,3.1-36.4c-1-0.6-2-1.3-3-1.9
				c0.3,4.4,0.6,8.7,0.5,13.1c-0.2,7-0.9,14.1-2.6,21c-1.6,6.8-3.8,13.6-7.1,19.8c-1.5,2.7-3,5.7-5,8.1c-0.5,0.6-1.1,1.2-1.7,1.7
				c-1.6,0.3-3,0.5-4.4,0.6c-0.4-0.6-0.8-1.2-0.9-2.1c0-0.2,0-0.4,0-0.6c0-0.3,0.1-0.6,0.1-0.9c5.7-6.2,9.2-14.5,10.2-22.9
				c1.7-14.1-4.4-28.6-12.9-39.5c-10.1-12.9-23.9-22.2-37.6-31c-7.3-4.7-14.7-9.4-21.3-15.1c-3.1-2.6-5.8-5.5-8.4-8.6
				c-1.2-2-2.2-3.9-3-5.7c2.5,2.8,5.4,5.4,8.1,7.7c6.8,5.7,13.6,11.1,21.2,15.9c1.4,0.9,2.6-1.3,1.3-2.2c-12.7-8.9-24-19.5-33.1-32
				c-0.1-2.1-0.1-4.3,0.1-6.7c-14.6-17.4-26.3-33.3-26.3-33.3s1.3,4.2,5.3,18.9c4.1,14.8,14.3,61.7,14.3,61.7
				c16,5.4,33.5,26.9,42.8,45.8s11.9,47.1,2.8,51.5s-14.9-1.8-16.8-5.8s0.6-7.4-1.2-6.5s-6.2,4.9-2,12.5S1196.8,1348.6,1226,1348.8z
				 M1238.8,1329.6c0.1-0.1,0.2-0.2,0.3-0.3c0,0.1,0,0.2,0,0.3C1239,1329.7,1238.9,1329.7,1238.8,1329.6z M1192.2,1231.2
				c-2.9-2.7-5.4-5.1-7.7-7.5c2.4,1.9,4.9,3.8,7.5,5.5c12.7,8.6,26.4,15.8,37.6,26.5c11.4,10.9,19.9,24.8,20.1,40.9
				c0.2,11.2-4.6,21.4-13.1,27.9c4.8-8.1,6.6-23.5,3.2-37.4C1235.8,1270.9,1218.8,1256,1192.2,1231.2z"/>
			<path opacity="0.3" fill="#091426" enable-background="new    " d="M1281.4,1132.5c-0.4-1.1-0.8-2.3-1.2-3.4
				c-2.2-6.4-4.9-12.8-8.2-18.8c-1.9-3.5-4.1-6.7-6.5-9.7c-2.1-6.3-9.7-11.5-14.6-15.3c-6.8-5.3-14.2-9.7-21.7-13.9
				c-10.5-5.7-21.3-10.8-31.6-16.7c-9.6-6.1-18.5-13-26.5-21.4c-10.5-11-18.2-23.6-25.9-36.5c1-0.2,2-0.5,3-0.9
				c5.2,6.6,11.7,12.5,17.7,18.3c3.4,3.3,6.8,6.7,10.4,9.9c2.7,2.4,5.5,5.4,9.1,6.5c0.4,0.1,0.9-0.4,0.6-0.8
				c-2.1-3.5-6.4-5.8-9.5-8.3c-3.3-2.6-6.5-5.3-9.6-8.1c-6.1-5.6-11.3-12-17-17.9c4.8-1.9,9.3-4.8,12.7-8.2
				c-2.9-1.2-4.5-1.8-4.5-1.8c-3.5,2.1-6.5,2.1-20.5,4.9s-15.8-0.6-15.8-0.6c-1.2,2.3-5.4,5.5-12.4,10.2s-7.2,7.1-7.2,7.1
				s8.3,8.9,21.1,23.6c-0.3-22.9,11.7-33.3,11.7-33.3c0.6,0.1,1.2,0.2,1.8,0.2c-1.1,9.4-1.1,18.9-0.1,28.4
				c0.8,7.6,1.9,15.7,4.2,23.1c1.2,1.1,2.4,2.3,3.6,3.4c-2.1-9.5-4.7-18.6-5.7-28.4c-0.8-8.2-0.8-16.4-0.5-24.6
				c1,11.4,2.8,22.8,5.6,33.9c1.6,6.4,3.5,12.8,5.8,19c0.8,2.3,1.6,4.7,2.5,7.1c2.4,2.2,5,4.5,7.5,6.8c-1.8-5-4.4-9.9-6.2-15
				c-2.1-6-4-12-5.6-18.1c-3.1-11.7-5.3-23.7-6.4-35.8c0.2,0,0.4,0,0.6-0.1c5.4,14,11.3,27.7,19.3,40.5
				c8.2,13.2,18.6,24.3,30.7,33.9c23.4,18.5,53.1,34.9,60.6,65.7c1.1,0.7,2.2,1.3,3.3,1.9c-5.8-29.5-33.5-47.3-55.9-64
				c-13.7-10.2-25.8-21.4-35.2-35.8c-5.2-8-9.6-16.6-13.6-25.3c10,16,24.5,29.7,39.4,40.4c23.8,17.1,55.2,26.3,73.1,50.7
				c4.8,6.6,8.6,13.8,11.5,21.4c1.8,4.8,3,9.9,4.5,14.8C1280.4,1138.9,1281,1135.7,1281.4,1132.5z"/>
			<path opacity="0.3" fill="#091426" enable-background="new    " d="M1279.1,1092.6c-1.9-4.2-4.1-8.3-6.5-12.2
				c-2.3-3.7-4.8-7.3-7.6-10.7c-2.5-3-5.6-7.5-9.5-8.7c-0.2-0.1-0.5,0.2-0.4,0.4c1.4,3.5,5.2,6.1,7.4,9.2c2.8,3.8,5.3,7.9,7.5,12.2
				c0.7,1.4,1.4,2.8,2.1,4.2c-2.8-3.5-5.7-6.8-8.7-9.8c-7-7.2-14.5-13.7-22.7-19.5c-8.1-5.7-17.6-13.2-27.3-15.7
				c-0.3-0.1-0.6,0.3-0.3,0.5c6.7,6,15.6,9.6,22.9,14.9c8.3,6,16.4,12.8,23.3,20.4c6.6,7.2,12.3,15.1,16.9,23.8
				c2.4,4.6,4.3,9.2,6,13.9c-0.1-5-0.6-9.5-1.2-13C1280.3,1099.5,1279.9,1096.2,1279.1,1092.6z"/>
			<path opacity="0.3" fill="#091426" enable-background="new    " d="M1165.5,1023c11.7,11.6,24.8,21.6,39.2,29.6
				c15.1,8.4,32,13.5,46.3,23.4c7.6,5.3,14.2,11.6,18.7,19.8c0.1,0.1,0.3,0,0.2-0.1c-6.5-14.8-21.1-23.8-35.1-30.5
				c-8-3.8-16.1-7.1-23.9-11.1c-7.6-3.9-14.9-8.1-22-12.8c-8.3-5.4-16.1-11.5-23.2-18.4C1165.5,1022.8,1165.4,1022.9,1165.5,1023z"
				/>
			<path opacity="0.3" fill="#091426" enable-background="new    " d="M1329,763.7c0.8-0.1,1.6-0.1,2.4-0.1
				c-0.1-0.4-0.2-0.7-0.3-1.1c-3.3-13.2-8.3-26-13.6-38.5c-0.4,0.1-0.9,0.2-1.3,0.4c4.7,10.8,8.6,21.8,11.5,33.2
				C1328.2,759.7,1328.6,761.7,1329,763.7z"/>
			<path opacity="0.3" fill="#091426" enable-background="new    " d="M1185.2,936.1c32.3-17.3,61.8-40.8,86.6-67.8
				c12.1-13.1,22.8-27.5,31.2-43.3c7.5-14.1,15.6-31.6,16-48.1c-7.8-0.7-15.5-1.2-23.7-0.5c-3.4,16.9-13.5,36.2-33.7,60
				c-30.3,35.7-68.9,52.7-110.9,74.1c-42,21.4-86.9,35.3-86.9,35.3s6.1,4.7,18.6,10.4c-3.4-2.6-6.4-5.6-9-9
				c-0.6-0.8,0.7-1.8,1.4-1.1c6,6.8,13.7,10.8,21.6,15c4.6,2.4,9.2,4.9,13.9,6.9c1.7,0.7,3.5,1.2,5.3,1.8c0.2-0.1,0.5-0.1,0.7,0
				c2.5,1.1,2-1.7,1.2-2.9c-0.1-0.2-0.3-0.4-0.4-0.7c-0.7-0.5-1.3-0.9-1.8-1.2c-9.2-6.2-18.9-11.5-28.4-17.2
				c-0.6-0.4-0.2-1.4,0.5-1.2c6.7,2,13.9,5.3,20,8.7c3.4,1.9,6.7,4,9.9,6.2c0.5,0.4,3.5,2.6,6.3,4.2c0.1,0,0.1,0,0.2,0
				c0.2-1.2,0.5-2.3,0.8-3.4c-3.2-5.2-5.7-10.5-10.7-14.5c-0.7-0.5,0.3-1.5,1-1c5.6,4.4,9.2,10.3,13.5,15.7c1.5-0.1,2.3-0.7,2.3-1.7
				c-1-2.8-1.7-5.8-2.5-8.1c-1.2-3.5-2.7-6.9-4.8-10.1c-1.3-2.1-3-3.5-3-6c0-0.2,0.2-0.5,0.4-0.5c4.8,0.3,8,8,9.6,11.8
				c1.3,3.1,2.2,6.4,3.4,9.6c0.4,1.1,0.9,2.2,1.4,3.2c0.7,0.4,1.5,0.3,2-0.2c0.1-0.8,0.1-1.9,0.1-2.2c0.1-0.6,0.2-1.2,0.4-1.8
				c-0.1-1-0.1-2-0.1-3c0.1-3.2,0.3-6.4,0.8-9.5c0.3-1.7,0.6-3.4,1.2-4.9c0.3-1,2-3.3,1.7-4.2c-0.1-0.2,0.1-0.3,0.3-0.2
				c2.5,1.3,0,7.3-0.4,9.3c-0.8,5.3-2.3,12-0.4,17.2c0.4,0.2,0.5,0.2,0.9,0c0.6-0.3,0.9-0.9,0.8-1.6c0-0.3,0.1-0.5,0.4-0.6
				c0.2-1.1,0.5-2.2,0.8-3.2c2.5-7.2,8.5-13.2,14-18.2c24.8-22.5,54.2-39,78.5-62.3c11.8-11.4,23-23.5,33-36.6
				c9.6-12.6,17-26.3,25.8-39.4c0.4-0.6,1.5-0.2,1.2,0.5c-6.1,14.5-16.1,28.2-25.4,40.8c-17.1,23.1-37.3,43.5-60.3,60.8
				c-13.2,9.9-26.9,19.1-39.7,29.4c-5.8,4.7-11.8,9.4-16.8,14.9c-3.5,3.8-9.9,11-9.1,16.9c1.2,0.6,2.9,0.5,4.1-0.1
				c3.3-4.8,8.2-8.8,12.6-12.1C1169,944.7,1177.2,940.4,1185.2,936.1z"/>
			<path opacity="0.3" fill="#091426" enable-background="new    " d="M1326.2,839.5c8.8-23.2,9.7-39.3,8.9-49
				c0-3.7-0.3-7.4-0.7-11.2c-1.2-0.3-2.4-0.5-3.6-0.9c0.3,5.5,0.4,11,0.2,16.6c-1.9,9.6-5,16.5-5,16.5s1.4-8.9,1.2-29.8
				c0-1.2-0.1-2.5-0.1-3.8c-1.9,0-3.8-0.7-5.6-0.8c0.5,17.4-5.6,35.4-13.6,50.6c-16.6,31.6-42.5,57.6-69.8,79.9
				c-15.2,12.4-31.2,23.5-48.5,32.8c-7.4,4-14.9,7.9-21.8,12.6c-2.9,2-5.4,4.2-7.8,6.5c5.3-3.1,11.4-5.5,16.2-7.8
				c4.6-2.2,9.3-4.4,13.8-6.8c4.5-2.5,8.4-5.6,12.8-8.1c0.6-0.3,1.4,0.4,0.9,1c-5.4,7.5-15.6,12-23.8,15.8
				c-4.9,2.3-9.8,4.5-14.5,7.1c-3.3,1.8-6.2,4.1-9.3,6.1c0.4,0.5,0.8,1,1.2,1.5c2.2,1.2,2.7,2.4,2.7,2.4
				c20.6-10.7,96.9-49.5,113-60.3C1291.9,897.8,1310.5,881.2,1326.2,839.5z"/>
			<path opacity="0.3" fill="#091426" enable-background="new    " d="M1310.7,712.5c0.5-0.2,1-0.3,1.6-0.5
				c-5.2-11.6-10.6-23.1-16-34.7c3.2,4.2,6.9,8.1,9.7,11.4c5.7,6.6,10.8,13.6,15.1,20.9c0.8-0.2,1.5-0.5,2.3-0.7
				c-3.1-5.7-6.5-11.2-10.6-16.1c-4.3-5.2-8.9-10.1-13.1-15.4c-2.5-3.1-4.8-6.3-6.7-9.7c-1.7-3.1-2.5-6.5-4.2-9.6
				c-0.2-0.3-0.5-0.3-0.7-0.2c-3-8.7-5.1-17.6-5.3-26.8c0-0.9-1.5-1-1.5,0c0.4,29.5,16.5,55.2,29.2,80.9
				C1310.6,712.2,1310.7,712.4,1310.7,712.5z"/>
			<path opacity="0.3" fill="#091426" enable-background="new    " d="M1343,763.9c-2.3-11.5-5.7-22.6-10-33.6
				c-1.2-3-2.4-5.9-3.7-8.9c-0.6,0.1-1.2,0.2-1.9,0.3c1,2.2,2,4.3,2.9,6.6c4.6,11.5,7.9,23.4,10.6,35.5
				C1341.6,763.9,1342.3,763.9,1343,763.9z"/>
			<path opacity="0.3" fill="#091426" enable-background="new    " d="M1326.4,868.4c4.7-5.4,8.8-10.7,12.2-15.9
				c2.5-6.6,4.7-13.4,6.3-20.3c3.9-16.7,4.6-34.2,1.1-51c-0.6-0.1-1.2-0.2-1.8-0.3c0.7,5.3,1.1,10.8,1.2,16c0,4.4-0.2,8.7-0.3,13.1
				c-0.6,7.4-1.8,14.8-3.6,22.1c-2.3,9-5.4,17.9-9.5,26.2C1330.3,861.9,1328.4,865.2,1326.4,868.4z"/>
			<path opacity="0.3" fill="#091426" enable-background="new    " d="M590.7,900.9c19.8-18.9,50.3-33.3,71.6-43.6
				c-2.2-2.3-4.3-4.6-6.3-6.7c-6.5-5.4-13-10.3-13-10.3s-8.2,14.8-26,26.7c-13.1,8.7-24.8,22.5-30.1,29.3L590.7,900.9z"/>
			<path opacity="0.3" fill="#091426" enable-background="new    " d="M773.2,984.6c-4.1-2.6-8.7-4.7-13-7c-9.4-5-18.8-10-28.7-13.9
				c-1-0.4-0.5-2,0.4-1.6c10.3,4.3,20.6,8.5,30.3,14c5.2,2.9,10.1,6.3,15.2,9.2c0.3,0.1,0.5,0.3,0.8,0.5c-3.3-4-6.8-7.9-10.8-11.3
				c-7.3-6.2-16.4-10-24.9-14.2c-17.1-8.3-36.6-12.3-52.4-23.4c-1-0.7-0.1-2.3,1-1.7c9.7,5.2,19.6,9.3,30,13
				c8.7,3.1,17.6,5.6,26,9.3c15.3,6.7,27,18.2,35.9,31.9c0.1,0,0.2,0,0.3,0.1c0.6,0.3,1.3,0.6,2,0.6c-2.1-4.4-4.1-8.9-6.4-13.2
				c-3.4-6.2-6.3-12.7-9.8-18.8c-3.9-6.9-8.5-12.9-13.6-18.9c-2.5-3-5.2-5.7-7.9-8.6c-3.1-3.4-5.8-7.4-8.9-10.8
				c-0.1-0.1-0.1-0.2-0.1-0.3c-0.1-0.1-0.2-0.1-0.4-0.2c-9.3-4.3-24.2-15.8-39.8-29c-6.3-5.3-12.8-10.8-19.2-16.6
				c-1.8-1.7-3.6-3.3-5.4-4.9c-24.1,12.9-48.5,31-67.4,51.2l5.1,6.1c2.2,1.8,4.2,3.5,6.2,5.1c6,4.8,12.4,9.5,18.8,13.8
				c21.6,14,30.4,12.2,46.3,19.2c20.9,9.3,38.1,13.8,53.7,18.5c15.1,4.5,27.5,8.6,35.4,14.3c0.4-0.2,0.8-0.4,1.2-0.6
				c-5.1-2.9-12.7-7-21.6-11.1c-16.4-7.6-46.2-10.5-69.7-23.3s-45.7-29.8-53.2-37.5s-7.7-11.2,1.8-2.3s30.3,24.5,48.7,31
				c18.3,6.5,48,14.4,67.2,22.8c17,7.5,29.4,12.1,36.5,17.5c0.4-0.1,0.9-0.1,1.3-0.2c-0.1-0.2-0.3-0.4-0.4-0.5
				C780.4,989.8,776.8,986.9,773.2,984.6z"/>
			<path opacity="0.3" fill="#091426" enable-background="new    " d="M937.4,962.3c-2.2,1.9-11.9,10.1-26.4,18.3
				c0,0,16.5-4.1,29.4-11.4c3.3-2.3,6.5-4.7,9.7-7.1C949.2,962.2,944.7,962.4,937.4,962.3z"/>
			<path opacity="0.3" fill="#091426" enable-background="new    " d="M762.6,930.3c0,0.1,0.1,0.1,0.1,0.2c1.5,0.7,3.1,1.4,4.6,2.1
				c-0.1-0.1-0.2-0.3-0.3-0.4C765.6,931.5,764.1,930.9,762.6,930.3z"/>
			<path opacity="0.3" fill="#091426" enable-background="new    " d="M738.6,919.5c0.8,0.5,1.6,0.9,2.4,1.4h0.1
				c-0.2-0.2-0.4-0.4-0.6-0.6C739.8,920.1,739.2,919.8,738.6,919.5z"/>
			<path opacity="0.3" fill="#091426" enable-background="new    " d="M755.6,927.3c-3.9-1.5-9-3.2-14.6-6.3
				c2.9,2.5,5.9,4.8,8.7,7.5c3.2,3.1,6.5,6.1,9.7,9.2c5.1,4.9,9.3,10.6,12.8,16.7c3.5,6,6.6,12.3,9.3,18.8c0.1,0.1,0.1,0.3,0.2,0.4
				c-0.8-4.8-2-9.5-3.7-14.1c-3.9-10.3-9.7-19.6-15.3-29c-0.9-0.4-1.7-0.8-2.6-1.2C758.6,928.6,757.1,927.9,755.6,927.3z"/>
			<path opacity="0.3" fill="#091426" enable-background="new    " d="M937.9,961.9c-1.8,0-3.8,0-6-0.1l0,0c0,0-0.2,0.1-0.6,0.4
				c2.2,0,4.3,0,6.2,0.1C937.7,962.1,937.9,961.9,937.9,961.9L937.9,961.9z"/>
			<path opacity="0.3" fill="#091426" enable-background="new    " d="M841.8,954.2c-6.4-1.2-12.5-2.5-18.4-3.9
				c-19-4.3-38.3-10-56.1-17.8c5.4,7.6,10.4,15.7,13.9,24.3c2.1,5.1,3.6,10.5,4.4,16c0.5,3.6,1.4,7.9,0.8,11.7
				c0,0.1,0.1,0.2,0.1,0.2c1.4,2.5,3.1,4.8,4.7,7.1c-0.1-7.5-0.2-14.9-0.3-22.4s-0.9-15.8,0.4-23.2c0.2-1.2,2-1.1,2.3,0
				c1.9,7.3,1.6,15.7,2,23.2c0.2,5.3,0.4,10.6,0.6,15.8c6,11.6,20.3,3.2,27.4-3.6c6.8-6.5,13-15,15.9-24c0.8-2.4,4.3-1.4,3.8,1
				c-1.3,6.8-4.8,11.4-9.3,16.4c-4.7,5.2-8.7,11.1-14.4,15.3c-0.8,0.6-1.7,1.2-2.6,1.7c-0.5,1.2-1,2.4-1.5,3.5
				c5.7-4.2,10.9-9,16.9-12.9c7.5-4.9,13.8-10.9,18.6-18.3c0.7-1.1,2.8-0.4,2.3,1c-3.2,8.2-8.5,14.8-16,19.5
				c-4.3,2.7-8.6,5.2-12.6,8.3c-0.7,0.9-1.4,1.8-1.9,2.8c-0.4,0.7-1.2,2.2-0.4,3c0.5,0.5,1.3,0.5,2.1,0.5c4.1-1.4,8.2-3.8,11.5-5.1
				c6.7-2.7,13.6-5.1,20.2-8.1c5.8-2.6,11.4-5.6,16.6-9.3c5.1-3.7,9.3-8.1,14-12.2c0.7-0.6,2,0,1.7,1c-4.3,13.2-19.4,21-31.2,26.1
				c-4,1.7-8,3.2-12,4.7c-3,1.5-6,3.1-8.9,4.8c-0.2,0.1-0.4,0.3-0.7,0.4c-0.7,0.9-1.1,1.9-0.3,2.7c0.9,0.9,3.3,1.1,4.5,1.2
				c1.7,0.1,3.6-0.1,5.4,0.2c18.2-5.1,41.5-15.8,57.1-25.3c18.7-11.3,26.6-16.7,28.7-18.2c-14.1-0.2-35-1-58.7-3.8
				C862.2,957.4,851.7,956,841.8,954.2z"/>
			<path opacity="0.3" fill="#091426" enable-background="new    " d="M1274.7,648.7c-2.4,17.8-4.8,35.8-6.3,46.8l0,0
				c0.3,1.5,0.7,3,1.4,4.5c3.2,5.8,11.1,14.3,15.7,22.7c7.5-3.3,14.1-6,20.6-8.4c-1.8-3.4-3.7-6.6-5.6-9.8
				C1289.5,686.4,1280.2,671.1,1274.7,648.7z"/>
			<path opacity="0.3" fill="#091426" enable-background="new    " d="M1292.7,740.2c0.3,1.2,0.7,2.4,1,3.5c0.8,2.5,1.4,5,1.9,7.5
				c0.9,4.1,1.5,8.4,1.7,13.2c10-0.7,18.9-1.2,27.6-1.3c-2.7-11.8-7.3-25-13.2-37.6c-7,1.8-14,4.1-21.7,7.3
				C1290.5,734.4,1292.1,738.3,1292.7,740.2z"/>
		</g>
		<g id="_x31_4_x5F_Hair_x5F_Pigtails_x5F_elastics_x5F_Main_Asset_1_">
			<path fill="#143E34" d="M775.5,1012c0,0-4-1-7.4-6.1c-3.4-5,0-8.9,7.4-11.2c7.4-2.4,23.6-4.2,34.1,1.1
				c10.4,5.3,16.2,6.7,17.8,10.1c1.6,3.4-1,6.6-2.6,6.7c0,0,2.8,0.8,2,4.6c-0.8,3.7-1.9,4.6-9.5,4.1s-21.1-2.5-30.2-1.5
				s-8.7,0.7-11.1-2.1C773.7,1014.9,775.5,1012,775.5,1012z"/>
			<path fill="#143E34" d="M1123.8,983.2c0.2-0.1-5.2,1.5-7.2-2.8s3.4-8.4,8.7-10.2c5.3-1.8,17.7-5,23.1-4.6s10,1.8,12,5.9
				c1.9,4.1-3.5,7.1-3.5,7.1s3.4,1.9,2.8,4.8s-7.3,5.3-18.6,6.6s-13.5,2.9-17.6,0.9C1119.3,989,1120.5,985.1,1123.8,983.2z"/>
			<path opacity="0.3" fill="#091426" enable-background="new    " d="M1160.4,974.9c-13-5.5-29-2.5-43.2,6.5c1.5,1.9,3.9,2.1,5.3,2
				c3.8-2,9.9-4.1,18.8-4.2c9.8-0.1,15,0.8,17.7,1.6c-0.8-1.4-2.3-2.2-2.3-2.2S1159.5,977.1,1160.4,974.9z"/>
			<path opacity="0.3" fill="#091426" enable-background="new    " d="M1153.6,984.1c-7.3,0.4-21.5-0.3-32.7,4.1c0.2,1,1,2,2.5,2.7
				c4.1,2,6.4,0.4,17.6-0.9c10.8-1.2,17.3-3.4,18.4-6.2C1157.9,983.9,1155.9,984,1153.6,984.1z"/>
			<path opacity="0.3" fill="#091426" enable-background="new    " d="M809.9,1006.8c-13.8-3.5-20.3-1.6-29.3,0
				c-6.9,1.3-11.9-2.1-13.3-6.8c-0.9,1.7-0.7,3.7,0.8,5.9c3.4,5,7.4,6.1,7.4,6.1s-1.8,2.9,0.5,5.6c2.3,2.7,2,3,11.1,2.1
				c0.4,0,0.7-0.1,1.1-0.1c-5.5-1.7-6.7-4.6-5.6-5.9c1.5-1.7,7.4-4.5,22.7-3c10.6,1.1,18,4,21.6,5.8c0.4-3.2-2.1-3.9-2.1-3.9
				c0.4,0,0.8-0.2,1.2-0.5C822.3,1010.5,816.9,1008.6,809.9,1006.8z"/>
			<path opacity="0.3" fill="#091426" enable-background="new    " d="M810.6,1020.6c2.5,0.2,4.7,0.5,6.7,0.6c5.8,0.4,7.8,0,8.8-1.9
				C823.1,1019.6,817.1,1020.2,810.6,1020.6z"/>
		</g>
	</g>
</g>
</svg>
