<?xml version="1.0" encoding="utf-8"?>
<!-- Generator: Adobe Illustrator 22.1.0, SVG Export Plug-In . SVG Version: 6.00 Build 0)  -->
<svg version="1.1" xmlns="http://www.w3.org/2000/svg" xmlns:xlink="http://www.w3.org/1999/xlink" x="0px" y="0px"
	 viewBox="0 0 2000 2000" style="enable-background:new 0 0 2000 2000;" xml:space="preserve">
<style type="text/css">
	.st0{fill:#9F592A;}
	.st1{opacity:0.3;fill:#091426;enable-background:new    ;}
	.st2{opacity:0.35;fill:#E8FFFA;enable-background:new    ;}
	.st3{fill:none;}
	.st4{fill:#143E34;}
</style>
<g id="Masked">
	<g id="_x31_4_x5F_Hair_x5F_Pigtails_x5F_back_x5F_Main_Asset">
		<path class="st0" d="M1333.6,705.7c-8.2-15.3-15.6-31.7-21.2-47c-9.8-26.5-19.9-59.8-27.7-81.7c0,0-3.7,25.2-6.9,48.5
			c-3.2,23.3-7.2,54-9.4,70.1c-0.7,5,11.1,16.2,17.1,27.2C1302.9,715,1315.7,710.5,1333.6,705.7z"/>
		<path class="st0" d="M1359.3,766.1c-1-10.4-3.6-19.1-8.2-28.9c-2.5-5.3-6.7-11.5-9.7-17.1c-19.7,2.6-33.6,5.2-51.5,12.6
			c0.6,1.6,2.2,5.5,2.7,7.4c2.4,8.1,4.2,15.1,4.5,24.3C1320,762.9,1337.5,761.8,1359.3,766.1z"/>
		<path class="st0" d="M1295.8,776.4c-4.5,14.1-15.1,39.8-34,59.9c-37.6,40.1-69,52.7-111.1,74.1c-42,21.4-86.9,35.3-86.9,35.3
			s9,6.9,27.6,14.2c18.6,7.2,25.3,16.4,25.3,16.4s8.9-8,23.7-9.8c17.1-2.1,19.5,4.2,19.5,4.2s61-21.6,115.2-58.3
			s74.6-71.1,80.4-98.3c2.2-10.2,3.7-20.1,4.1-29.9C1337.1,779.9,1318.8,774.8,1295.8,776.4z"/>
		<path class="st0" d="M1102.2,1007.1c0,0,0.3-2.4,7.2-7.1s11.1-7.9,12.4-10.2c0,0,1.5,3.5,15.4,0.7s17.3-2.8,20.8-5
			c0,0,13.2,4.6,32.4,16.1s45.8,23,66.9,48.6s21.4,40.6,23.6,52.4s2.2,35.7-4.6,48.2c0,0-51.4-27-74.8-47.6s-60.2-51.6-74.9-68.6
			S1102.2,1007.1,1102.2,1007.1z"/>
		<path class="st0" d="M1140.6,1152.8c0,0,26.3,35.5,49.1,58.6c22.8,23,93.5,66.8,93.5,66.8s8.2,17.4,0,37.1s-28,33.6-57.2,33.5
			s-36-10.1-40.2-17.8s0.1-11.6,2-12.5s-0.6,2.5,1.2,6.5s7.6,10.1,16.8,5.8s6.5-32.6-2.8-51.5s-26.8-40.4-42.8-45.8
			c0,0-10.2-47-14.3-61.7C1141.9,1157,1140.6,1152.8,1140.6,1152.8z"/>
		<path class="st0" d="M917.7,1101.4c0,0,11.6,2,14.8,34.4s-2.3,59.4-10,77.8s-33.5,47-55.8,54.5c0,0-17-11.9-26.2-17.9
			c0,0,2.8-17.8-9-37.5c0,0,11.4-20.1,33.7-50.4S917.7,1101.4,917.7,1101.4z"/>
		<path class="st0" d="M690,1189.5c0,0,60.5-46.7,111.9-81.5s72.4-46.2,72.7-48.5c0.2-2.3-1.2-5.9-9.6-12.1s-32.5-20.9-40-25.6
			s-7.6-0.5-18.6-1.5s-21.2-2.2-21.2-2.2s-3.8,6.6-14.8,13s-45.6,19.6-67.8,34.3s-37.6,29.7-47,53.9s4.8,48,12,56.2
			S690,1189.5,690,1189.5z"/>
		<path class="st0" d="M675.2,868.7"/>
		<path class="st0" d="M663.2,856.9c-7.7-7.1-20.2-16.5-20.2-16.5s-8.2,14.8-26,26.7c-17.8,11.8-33.2,33.3-33.2,33.3s0.9,1.6,3.5,4
			C607.2,883.5,640.7,867.8,663.2,856.9z"/>
		<path class="st0" d="M841.8,954.2c-48.1-8.9-80.2-24.1-103.7-34.8c-14.2-6.5-41.4-29.8-64.3-50.6c-24.5,13.1-49.4,31.6-68.4,52.3
			c11.9,10.2,27.8,22.8,42.2,30.8c27.6,15.3,72.7,32.6,88.2,37.4c15.5,4.8,31.3,11.1,31.3,11.1s10-10.2,29-6.6
			c21,4,28.5,7.8,31.8,14.8c0,0,25.5,3.2,55.5-8.2c30.1-11.4,48.3-24.5,67-38.3C950.5,961.9,889.9,963.1,841.8,954.2z"/>
	</g>
	<g id="_x31_4_x5F_Hair_x5F_Pigtails_x5F_back_x5F_Highlights">
		<path class="st1" d="M873.6,1226.7c0-0.2,0-0.3,0-0.5C873.6,1226.4,873.6,1226.5,873.6,1226.7L873.6,1226.7z"/>
		<path class="st2" d="M870.6,1063c1.9-1.3,3.1-2.2,3.6-2.9c-6.3-7-14.8-12.7-22.4-17.9c-4-2.7-8.1-5.3-12-8.1
			c-2.2-1.5-4.3-3.1-6.2-4.9c-1.8-1.6-2.2-2.7-4.5-3c-0.3,0-0.7,0.1-0.7,0.5c-0.1,1.8,0.9,3.4,2.1,4.8c-2.4-2.1-3.6-2.3-6.3-4.1
			c-0.6-0.4-2.1-1.2-2.2-0.6c-0.2-0.4-0.2,1.4-0.4,1c-0.8-1.3-1.8-0.7-1.1,0.7c3.6,7.8,7,13.1,11.6,20.3c2.7,4.2,8,13.2,13.7,13.1
			c0.8,0,1.2-0.7,1.1-1.5c-0.5-2.9-3-4.4-4.9-6.5c-2.5-2.6-4.7-5.5-7-8.4c-4.4-5.5-8.5-11.3-12.2-17.4c6.7,6.8,14.1,12.9,20.7,20
			c3.3,3.5,6.4,7,9.3,10.8c2.6,3.4,4.9,7.4,7.8,10.7c1.3-0.8,2.5-1.6,3.6-2.3c-2.1-3.4-5.3-6.4-7.9-9.3c-3.6-4-7.1-7.9-10.8-11.8
			c-3.3-3.5-6.6-7-10.2-10.3c3.6,3.1,7.4,5.8,11.3,8.5C855,1050.1,862.5,1056.9,870.6,1063z"/>
		<path class="st2" d="M924,1116c-0.9-2.7-2.6-5.1-3.9-7.6c-1-1.9-2.2-4-3.9-5.4c-0.6,0.6-1.3,1.3-2.1,2.2c0.7,1.7,2,3.4,3.1,4.8
			c1.8,2.2,3.7,4.7,5.9,6.5C923.5,1116.7,924.2,1116.5,924,1116z"/>
		<path class="st2" d="M910,1162.8c3-5.3-0.1-15-1.3-20.5c-1.8-8-4.6-15.7-7.5-23.3c-1.1,1.2-2.1,2.4-3.3,3.6
			c2.1,6.7,3.7,13.4,5.2,20.3c0.8,3.7,1.5,7.3,2.3,11c0.7,3.2,1,6.7,3.3,9.1C909.1,1163.4,909.8,1163.3,910,1162.8z"/>
		<path class="st2" d="M915.9,1126.9c1.8,13.6,2.8,27,1.1,40.6c0-0.8,0-1.7,0-2.5c-0.2-8.3-1.4-16.5-2.7-24.7
			c-0.7-4.3-1.8-8.5-2.9-12.7c-1.1-4.1-1.8-8.7-3.4-12.6c-0.1-0.3-0.8-0.4-0.7,0.1c0.6,4.3,2,8.4,2.6,12.7c0.5,3.7,0.7,7.4,1,11.1
			c0.8,8.4,0.8,16.7,0.6,25.1c-0.2,8.1-0.6,16.2-1.6,24.2c-0.5,4.4-1.2,8.8-2,13.1c-0.6,3.8-2.3,7.8-1.9,11.6
			c0.2,1.9,1.4,2.1,2.5,0.6c0.7-0.9,1.2-2,1.6-3.1c0.9-1.8,1.8-4.3,2.5-6.2c1.4-4,3.3-7,4.5-11c2.1-7,3.6-14.2,4.2-21.5
			c1.3-14.9,0.7-30.7-3.6-45.1C917.4,1125.7,915.7,1125.8,915.9,1126.9z"/>
		<path class="st2" d="M1256.4,1294.7c-0.9,5.5-1.9,11-3.3,16.5c-1.1,4.3-4.2,8.9-4.1,13.3c0,1,1,1.5,1.9,1.1
			c4.1-2,5.7-8.1,6.8-12.2c1.8-6.6,3.1-13.4,4.1-20.1c1.4-10.2,1.1-20.4-2.1-30.1c-1.4-0.9-2.9-1.9-4.3-2.8
			C1258.8,1271.4,1258.2,1283.3,1256.4,1294.7z"/>
		<path class="st2" d="M1273,1276.3c-2,7-3.5,14-6.1,20.9c-1.3,3.5-2.6,6.9-4,10.4c-1.1,2.7-2.5,4.8-1.6,7.7
			c0.2,0.7,0.9,0.9,1.5,0.6c2.9-1.3,3.5-4.2,4.6-7.1c1.5-4.1,2.8-8.1,3.8-12.3c0.9-3.7,1.5-7.4,2.2-11.2c0.6-3.3,1.7-5.8,0.3-9
			C1273.5,1276,1273.1,1276.1,1273,1276.3z"/>
		<path class="st2" d="M1278.6,1141.7c-1.1-5.2-2.8-10.2-4.7-15.2c-0.5-1.3-1-2.6-1.5-3.9c-1-2.8-2.2-5.4-3.7-8s-3.3-5-5-7.4
			c-0.5-0.7-1.1-1.4-1.6-2.1c-5.8-7.7-13-13.7-20.7-19.5c-8.4-6.3-17.6-10.9-27-15.6c-7.8-3.9-15.2-9.3-23-13.4
			c-5.5-3.9-10.5-7.2-15.9-12.3c-0.9-0.9-1.5-0.7-0.7,0.3c7.4,9.1,16.2,17.2,26.3,23.2c10.3,6.2,20.6,12.3,30.3,19.3
			c19.7,14.3,35.4,32.4,43.7,55.5C1275.9,1144.9,1279.1,1144,1278.6,1141.7z"/>
		<path class="st2" d="M1279,1113.9c-3.2-8.2-7.6-15.5-13.7-21.9c-6.4-6.6-13.9-12-21.8-16.6c-8.9-5.2-17.5-10.5-26.9-14.9
			c-0.8-0.3-1.4,0.7-0.7,1.1c16.3,9,32.6,17.9,45.5,31.7c6.1,6.5,11.1,14.8,14.1,23.2c1.5,4.2,4.3,9.5,5.4,13.8
			c0.2,0.6,0.3,1.2,0.4,1.7c0.4-3,0.6-6.1,0.7-9.2C1281.2,1120,1280.2,1116.9,1279,1113.9z"/>
		<path class="st2" d="M1180.6,1017.4c7.7,6.3,17.2,14.9,27.3,16.3c0.4,0.1,0.9-0.3,0.6-0.8c-5.8-7.9-16.5-13.1-24.6-18.3
			c-9.9-6.4-19-13.8-27.9-21.6c-0.9-0.8-2.3,0.5-1.4,1.4C1162.8,1002.5,1171.7,1010.1,1180.6,1017.4z"/>
		<path class="st2" d="M1176.4,1004.4c5.8,4,11.5,8.1,17.1,12.4c11.8,9,23.7,18.1,35.1,27.6c1.2,1,2.8-0.7,1.7-1.7
			c-11.2-9.4-21.9-19.1-33.5-28c-5.8-4.5-11.7-8.8-17.8-13c-1.3-0.9-2.5-1.8-3.8-2.8c6.1,3.1,12.4,6,18.3,9.1
			c9.8,5.2,19.2,10.9,28.3,17.3c8.4,5.9,16.6,12.1,24,19.3c3.4,3.3,6.6,6.8,9.8,10.3c3.1,3.4,5.5,8.1,9.4,10.7
			c0.7,0.5,1.3-0.3,1.2-1c-0.3-1.9-1.1-3.8-2.2-5.6c-2-2.8-4.2-5.7-6.7-8.8c-11.1-13.5-23.8-23.1-36.1-30.8
			c-8.2-5-16.7-9.4-25.2-13.8c-10-5.2-20.2-11.5-30.9-15.3c-0.9-0.3-1.5,0.6-1.3,1.3c-1-0.4-2-0.8-3-1.1c-1.3-0.4-2.2,1.3-1.3,2.2
			C1164.1,997.5,1170.9,1000.7,1176.4,1004.4z"/>
		<path class="st2" d="M1251.6,1057.2c-2.7-3.1-5.6-8.7-9.8-9.5c-0.3-0.1-0.6,0.2-0.5,0.5c0.9,3.7,5.2,6.6,7.7,9.4
			c3.7,4.1,7.1,8.5,10.4,13c2.8,3.9,6,8.2,9.3,11.7c2.4,2.5,1.8,2.8,3.1,4.2c0,0,0.1-0.4-2.3-4.4c-2.8-4.6-6.4-9.5-9.7-13.8
			C1256.9,1064.5,1254.7,1060.7,1251.6,1057.2z"/>
		<path class="st2" d="M1290.5,639c0.1,0.9,0.3,1.8,0.5,2.8c1.3,5.8,2.7,11.5,5,16.9c2.3,5.2,5.4,9.9,8.8,14.4
			c1.6,2.2,3.9,4.4,5.6,6.8c-1.2-2-2.4-3.9-3.5-5.9c-4.6-7.9-8.6-16-12.2-24.4C1293.2,646.2,1291.7,642.7,1290.5,639z"/>
		<path class="st2" d="M1324.7,762.9c0.9,0.2,1.5,0.1,2.1,0.1c-0.6-2.4-1.4-5.3-2.1-7.7c-2.9-10.3-6.6-20.4-10.8-30.3
			c-0.7,0.2-1.4,0.5-2.1,0.6c3.8,8.2,7.3,16.6,9.9,25.1C1322.8,754.6,1323.8,758.8,1324.7,762.9z"/>
		<path class="st2" d="M1328,802.9c0.2,1.2,0.9-1,1.2-2c2-6.9,1-15.5,0.1-22.7c-0.7-0.2-1.4-0.3-2.1-0.4
			C1328.1,785.7,1326.9,795.1,1328,802.9z"/>
		<path class="st2" d="M1300,702c2.1,4.2,4.3,8.4,6.4,12.7c0.8-0.3,1.6-0.5,2.4-0.7c-0.7-1.4-1.4-2.9-2.1-4.3
			c-7.4-15.3-15.7-30.5-20.6-46.9c-4.5-15.1-7.7-34.6-0.2-48.9c0.4-0.8-1-1.4-1.4-0.6c-3.2,6.7-5.7,12.7-6.4,20.1
			c-0.8,7.7-0.1,15.4,1.6,22.9C1283.3,672.8,1292.4,687.1,1300,702z"/>
		<path class="st2" d="M1289.6,625c-0.1-0.7-0.7-1-1.3-0.9c0,0,0,0,0-0.1c-0.1-0.5-1-0.6-1.1,0c-0.9,5.9,0.5,12.3,1.2,18.2
			c0.7,6,1.8,12.1,4.2,17.8c2,4.9,4.8,9.4,8,13.7c2.9,4,6.4,9.7,11,11.8c0.6,0.3,1.4-0.2,1.2-0.9c-0.2-0.7-0.5-1.4-0.8-2.1
			c5.2,8.5,10.6,16.8,15.8,25.3c1.3-0.5,2.7-0.9,4.1-1.3c-5.2-9.1-10.7-18.1-16.1-27c-5-8.3-10-16.6-14.7-25.1
			C1296.1,645.4,1290.5,635.2,1289.6,625z M1310.4,679.9c-1.7-2.4-4-4.6-5.6-6.8c-3.4-4.5-6.5-9.2-8.8-14.4
			c-2.4-5.4-3.8-11.1-5-16.9c-0.2-0.9-0.4-1.8-0.5-2.8c1.2,3.6,2.7,7.1,4.2,10.6c3.6,8.4,7.6,16.5,12.2,24.4
			C1308.1,676,1309.2,678,1310.4,679.9z"/>
		<path class="st2" d="M1335.8,722.1c7,13.6,12.7,27.9,15.2,42.9c1.6,0,3.1,0.1,4.6,0.3c-2.3-12.9-6.9-25.4-12.5-37.2
			c-1.3-2.7-2.6-5.3-3.9-8c-1.3,0.3-2.6,0.6-3.9,1C1335.5,721.5,1335.7,721.8,1335.8,722.1z"/>
		<path class="st2" d="M1352.5,782.8c0,7.9-0.9,15.4-2.3,23.2c-1.6,9.1-2.2,19.5-4.9,28.3c-0.2,0.6,0.8,0.9,1.2,0.3
			c5.1-7.6,6.4-18.6,8-27.4c1.5-7.9,2.4-15.5,2.5-23.5C1355.6,783.5,1354,783.1,1352.5,782.8z"/>
	</g>
	<g id="_x31_4_x5F_Hair_x5F_Pigtails_x5F_back_x5F_Shadows">
		<path class="st1" d="M754.9,1069.6c-11.1,11.4-19,25.4-21.4,41.2c-2.5,16.4,0.3,33,5.8,48.5c0.4,1.2,2.3,0.7,1.9-0.5
			c-5.4-15.3-8.2-31.7-5.7-47.9c1.2-7.4,3.4-14.7,6.8-21.5c1.8-3.5,3.8-6.8,6-10.1c2.2-3.3,4.8-6.2,7-9.4
			C755.5,1069.6,755.1,1069.3,754.9,1069.6z"/>
		<path class="st3" d="M789.2,1031.4c-3.9,5.2-10.2,8.4-16.1,11c-7.5,3.4-15.3,6.4-23,9.4c-16.2,6.3-32.5,12.8-46.9,22.5
			c-13.5,9.1-25.6,21.3-31.6,36.7c-3.1,8-4.5,16.6-4.7,25.2c-0.1,6.4,0.7,12.6,1.4,18.8c7.4,11,14.7,10.5,18.7,9.8
			c0,0-8.9-23.9,4.2-51.5s29.4-39.9,45.2-46.8s50.6-23,56.2-28.7C796.8,1033.7,794.2,1031.8,789.2,1031.4z"/>
		<path class="st1" d="M831.9,1052.8c6,7.9,12.7,15.4,19.6,22.5c0.5-0.3,1.1-0.7,1.6-1c-6.6-7.3-13.5-14.4-19.5-22.2
			c-3.2-4.2-6.3-8.5-9.1-13c-2.4-3.8-4.3-7.9-6.3-11.9c4.6-0.6,8.6-1.5,11.9-2.3c-2-1.3-3.8-2.3-5-3.1c-7.5-4.8-6.6-0.5-17.6-1.5
			s-22.2-2.3-22.2-2.3s-3.8,6.6-14.8,13c-6.1,3.5-19.5,9.2-34,16.1c17.2-6.6,40-15.1,45.5-15.6c1.3-0.1,2.5-0.2,3.7-0.2
			c-14.2,10.1-31.3,15.2-47.4,21.7c-15.3,6.2-30.3,13.1-43.4,23.4c-11.8,9.2-21.8,21-26.9,35.2c-2.9,7.9-4.1,16.3-4.3,24.6
			c-0.1,3.4-0.1,7,0.1,10.6c-6.4-13.9-8-21.6-2.7-39.1c-1.9,3.6-3.7,7.4-5.3,11.5c-9.4,24.2,4.8,48,12,56.2s22.2,14,22.2,14
			s5.3-4.1,14-10.7c-20.7-37-3.6-81,16.8-96.1c21.4-15.9,42.9-22,42.9-22c-0.3,0.5-0.6,1-0.9,1.5c-3.5,1.8-7,3.9-10.4,5.8
			c-3.7,2.1-7.2,4.3-10.5,6.9c-6.5,5.1-12.2,11.3-16.7,18.2c-9.5,14.3-13.5,31.6-10.8,48.6c1.3,8.1,4.1,15.9,8.2,23
			c0.5-0.4,1.1-0.8,1.6-1.2c-7.6-13.2-10.4-29-7.8-44.1c2.7-15.9,11.3-30.5,23.5-41.1c3.7-3.2,7.8-6,12-8.5c3.1-1.9,6.5-3.5,9.7-5.4
			c-3.6,4.5-6.9,9.2-8.6,14.7c-2,6.6-2.9,14-3.1,20.9c-0.2,6.8,1.1,13.5,3.5,19.9c1.2,3.1,2.6,6.2,4.1,9.2c1.2,2.4,2.4,4.9,3.8,7.2
			c0.6-0.4,1.2-0.9,1.8-1.3c-2.3-4.8-5.2-9.4-7.2-14.4c-2.5-6.3-4-12.9-3.9-19.7c0-6.7,0.8-13.6,2.4-20.1c1.2-4.6,3.2-8.5,5.7-12.4
			c-5,14.4-6.4,36.7-1.2,50.6c2.4,6.4,4.6,11.1,6.5,14.4c3-2.1,5.9-4.2,8.9-6.4c-6.6-11.3-9.9-27.2-10.6-38.8
			c-0.7-13.2,7.1-32,7.1-32s1.3-0.7,4.2-2.4c-2.3,5.1-3.6,11-4.7,16.4c-1.3,6.4-2,12.9-1.7,19.4c0.3,6.4,1.5,12.7,3.6,18.7
			c1.8,5.1,3.8,10.6,6.5,15.4c0.6-0.4,1.2-0.9,1.8-1.3c-2.1-4.7-4.7-9.2-6.5-14.2c-2.2-6-3.6-12.3-3.9-18.7
			c-0.4-6.4,0-12.9,1.2-19.2c0.6-3,1.3-5.9,2.1-8.8s2-5.7,2.9-8.6c0.5-0.3,0.9-0.5,1.5-0.8c-0.6,2.4-0.7,4.9-1,7.2
			c-0.4,3.3-0.6,6.5-0.6,9.8c0,6.1,1,11.9,2.3,17.9c2.3,10.1,6.1,19.9,11.3,28.9c0.5-0.4,1.1-0.8,1.6-1.1c-5-8.7-8.4-18.1-11.2-27.8
			c-1.7-5.8-2.9-11.7-2.8-17.8c0-2.9,0.2-5.9,0.5-8.8s1-5.9,1-8.9c3-1.7,6.9-4,11.9-6.9c5.7-3.3,9.2-6.7,11.4-9.5
			c-1.6,7.6-2.7,15.3-2.7,23.3c0,5.5,0.6,11,1.7,16.4c1.1,5.4,2.2,11.8,5.3,16.4c0.1,0.2,0.4,0.1,0.4-0.2c-0.7-5.5-3-10.8-4-16.2
			c-1.1-5.7-1.6-11.5-1.7-17.3c-0.1-5.7,0.3-11.3,1.2-16.9c0.5-2.9,1.3-5.7,2-8.6c0.2-0.3,0.3-0.6,0.4-0.8c0,3-0.1,6.1,0,9.1
			c0.3,5,0.9,9.9,1.8,14.8c0.9,5,2,10,3.4,14.9c0.7,2.5,1.4,4.9,2.1,7.3c0.7,2.3,1.2,4.8,2.4,6.9c0.2,0.4,1.1,0.3,1-0.3
			c-0.5-4.7-2.6-9.4-3.8-13.9c-1.3-4.9-2.5-9.9-3.4-14.9c-0.9-5.2-1.6-10.5-1.8-15.8c-0.2-3.8,0.2-7.7-0.2-11.5
			c0.8,0,1.5-0.1,2.3-0.1c5.3,20.8,14.3,40.3,24.7,59.1c0.5-0.4,1.1-0.7,1.6-1.1c-4.9-9-9.8-18-14-27.3c-2.4-5.4-4.6-10.9-6.4-16.5
			c-1.5-4.7-2.9-9.6-4.5-14.3c2.6-0.2,5.1-0.4,7.5-0.7C820.4,1036.6,826.1,1045.2,831.9,1052.8z M792.8,1037.8
			c-5.6,5.8-40.4,21.9-56.2,28.7s-32.1,19.2-45.2,46.8s-4.2,51.5-4.2,51.5c-4,0.7-11.3,1.2-18.7-9.8c-0.6-6.3-1.5-12.5-1.4-18.8
			c0.2-8.6,1.6-17.2,4.7-25.2c6-15.3,18.1-27.5,31.6-36.7c14.4-9.8,30.8-16.2,46.9-22.5c7.7-3,15.4-6,23-9.4
			c5.9-2.6,12.1-5.7,16.1-11C794.2,1031.8,796.8,1033.7,792.8,1037.8z"/>
		<path class="st3" d="M873.6,1226.7c0-0.2,0-0.3,0-0.5C873.6,1226.4,873.6,1226.5,873.6,1226.7L873.6,1226.7z"/>
		<path class="st1" d="M922.5,1213.6c5.4-13,9.8-30.4,10.7-50.9c-1.6,5.2-3.9,12.6-7,20.9c0.6-10.4,0.6-21,0-31.4
			c-0.5-9.5-1.8-19.3-4.6-28.4c-1.7-5.5-4.1-13.1-8-18.2c-0.5,0.5-1,1-1.5,1.6c1.2,2,2.6,4,3.6,6c2,4,3.4,8.4,4.6,12.8
			c2.3,8.2,3.2,16.6,3.5,25c0,1.4,0,2.9,0.1,4.4c0.1,5.4-0.1,10.7-0.4,16.1c-1.1,5.3-2.9,10.5-4.5,15.7c-1.9,6.1-3.8,12.2-6.2,18.1
			c-1.3,3.1-2.7,6.1-4.3,9c-0.7,1.3-5.2,8.9-7.5,7.2c0.4-1.7,0.9-3.3,1.2-5c2.2-9.6,4.2-19.9,4.8-29.7c0.7-10.5-1.2-21.1-3.9-31.2
			c-2.5-9.5-5.7-18.9-9.8-27.9c-0.5,0.6-1,1.1-1.5,1.7c7.5,17.7,14,38.3,12.6,57.4c-0.5,7.4-2.2,14.7-4.1,22c-0.7,1.9-1.3,3.8-2,5.7
			c0.9-4.3,1.3-8.8,0.9-13.3c-1.5-21-6.7-43.1-15.7-62.1c-0.3,0.4-0.6,0.8-1,1.1c6.8,17.6,12.4,35.5,13.6,54.4
			c0.7,10.3-0.7,19.6-4,29.3c-2.3,6.9-4.2,15.9-10,20.6c-0.7,0.4-1.3,0.7-2,1c-5.4-0.9-4.7-9.9-4.5-14.6c0.2-4.9,0.3-9.7,0.3-14.6
			c0-2.5-0.1-4.9-0.3-7.4c0.2-8.6-0.7-17.3-1.8-25.8s-3.5-16.4-6.1-24.4c-0.2,0.2-0.3,0.4-0.5,0.7c3.5,13.1,5.1,26.6,5.7,40.2
			c0.3,8.1-0.3,16-2.2,23.9c-0.8,3.6-1.8,7.1-3,10.5c-0.7,2.2-1,4.9-3.2,6.2c-1.5,1.7-2.8,1.3-3.9-1.4c-0.1-0.2-0.2-0.3-0.3-0.5
			c-0.4-4.9-2-10.2-2.6-12.2c-2.2-6.7-4.5-13.4-7.3-19.8c-1.4-3.1-2.9-6.1-4.4-9.1c-0.8-1.5-1.5-3.1-2.1-4.7c-0.5,0.7-0.9,1.4-1.3,2
			c0.4,1,0.9,1.9,1.3,2.9c2.3,5,4.7,9.9,6.7,15c1.8,4.7,3.5,9.5,4.9,14.3c0.6,1.8,4.8,17.3-0.2,18.1c-0.4-2.3-4.8-25-17.4-43.1
			c-4.5,7.1-6.8,11.2-6.8,11.2c11.8,19.8,9,37.5,9,37.5c9.2,6,26.2,17.9,26.2,17.9C889.1,1260.6,914.9,1232,922.5,1213.6z
			 M873.6,1226.7L873.6,1226.7c-0.1-0.2,0-0.3,0-0.5C873.7,1226.4,873.6,1226.6,873.6,1226.7z"/>
		<path class="st3" d="M1239.8,1287.2c3.4,13.9,1.6,29.3-3.2,37.4c8.4-6.6,13.2-16.7,13.1-27.9c-0.2-16.1-8.7-30-20.1-40.9
			c-11.1-10.7-24.8-18-37.6-26.5c-2.6-1.7-5.1-3.6-7.5-5.5c2.3,2.3,4.8,4.8,7.7,7.5C1218.8,1256,1235.8,1270.9,1239.8,1287.2z"/>
		<path class="st1" d="M1238.8,1329.6c0.1,0,0.2,0,0.4,0c0-0.1,0-0.2,0-0.3C1239,1329.5,1238.9,1329.6,1238.8,1329.6z"/>
		<path class="st1" d="M1226,1348.8c29.2,0.1,49-13.9,57.2-33.5c4.2-10.1,4.1-19.6,3-26.4c-1.2,2.6-2.8,6.2-5,10.2
			c-0.9-1.1-1.7-2.4-1.9-3.8c1.2-6,1.8-12.2,1.9-18.3c-0.6-0.4-1.4-0.9-2.3-1.5l0,0c-2,9.6-3.9,19.2-7.1,28.5
			c-1.5,4.3-3.3,8.5-5.5,12.5c-1.3,2.3-2.9,4.4-4.4,6.5c-0.4,0.2-0.7,0.5-1.1,0.7c-1.5,1-3,1.8-4.4,2.5c0.2-0.4,0.4-0.8,0.6-1.2
			c2.8-6.7,4.9-14,6.5-21c2.5-11.3,4.6-24.4,3.1-36.4c-1-0.6-2-1.3-3-1.9c0.3,4.4,0.6,8.7,0.5,13.1c-0.2,7-0.9,14.1-2.6,21
			c-1.6,6.8-3.8,13.6-7.1,19.8c-1.5,2.7-3,5.7-5,8.1c-0.5,0.6-1.1,1.2-1.7,1.7c-1.6,0.3-3,0.5-4.4,0.6c-0.4-0.6-0.8-1.2-0.9-2.1
			c0-0.2,0-0.4,0-0.6c0-0.3,0.1-0.6,0.1-0.9c5.7-6.2,9.2-14.5,10.2-22.9c1.7-14.1-4.4-28.6-12.9-39.5c-10.1-12.9-23.9-22.2-37.6-31
			c-7.3-4.7-14.7-9.4-21.3-15.1c-3.1-2.6-5.8-5.5-8.4-8.6c-1.2-2-2.2-3.9-3-5.7c2.5,2.8,5.4,5.4,8.1,7.7
			c6.8,5.7,13.6,11.1,21.2,15.9c1.4,0.9,2.6-1.3,1.3-2.2c-12.7-8.9-24-19.5-33.1-32c-0.1-2.1-0.1-4.3,0.1-6.7
			c-14.6-17.4-26.3-33.3-26.3-33.3s1.3,4.2,5.3,18.9c4.1,14.8,14.3,61.7,14.3,61.7c16,5.4,33.5,26.9,42.8,45.8s11.9,47.1,2.8,51.5
			s-14.9-1.8-16.8-5.8s0.6-7.4-1.2-6.5s-6.2,4.9-2,12.5S1196.8,1348.6,1226,1348.8z M1238.8,1329.6c0.1-0.1,0.2-0.2,0.3-0.3
			c0,0.1,0,0.2,0,0.3C1239,1329.7,1238.9,1329.7,1238.8,1329.6z M1192.2,1231.2c-2.9-2.7-5.4-5.1-7.7-7.5c2.4,1.9,4.9,3.8,7.5,5.5
			c12.7,8.6,26.4,15.8,37.6,26.5c11.4,10.9,19.9,24.8,20.1,40.9c0.2,11.2-4.6,21.4-13.1,27.9c4.8-8.1,6.6-23.5,3.2-37.4
			C1235.8,1270.9,1218.8,1256,1192.2,1231.2z"/>
		<path class="st1" d="M1281.4,1132.5c-0.4-1.1-0.8-2.3-1.2-3.4c-2.2-6.4-4.9-12.8-8.2-18.8c-1.9-3.5-4.1-6.7-6.5-9.7
			c-2.1-6.3-9.7-11.5-14.6-15.3c-6.8-5.3-14.2-9.7-21.7-13.9c-10.5-5.7-21.3-10.8-31.6-16.7c-9.6-6.1-18.5-13-26.5-21.4
			c-10.5-11-18.2-23.6-25.9-36.5c1-0.2,2-0.5,3-0.9c5.2,6.6,11.7,12.5,17.7,18.3c3.4,3.3,6.8,6.7,10.4,9.9c2.7,2.4,5.5,5.4,9.1,6.5
			c0.4,0.1,0.9-0.4,0.6-0.8c-2.1-3.5-6.4-5.8-9.5-8.3c-3.3-2.6-6.5-5.3-9.6-8.1c-6.1-5.6-11.3-12-17-17.9c4.8-1.9,9.3-4.8,12.7-8.2
			c-2.9-1.2-4.5-1.8-4.5-1.8c-3.5,2.1-6.5,2.1-20.5,4.9s-15.8-0.6-15.8-0.6c-1.2,2.3-5.4,5.5-12.4,10.2s-7.2,7.1-7.2,7.1
			s8.3,8.9,21.1,23.6c-0.3-22.9,11.7-33.3,11.7-33.3c0.6,0.1,1.2,0.2,1.8,0.2c-1.1,9.4-1.1,18.9-0.1,28.4c0.8,7.6,1.9,15.7,4.2,23.1
			c1.2,1.1,2.4,2.3,3.6,3.4c-2.1-9.5-4.7-18.6-5.7-28.4c-0.8-8.2-0.8-16.4-0.5-24.6c1,11.4,2.8,22.8,5.6,33.9
			c1.6,6.4,3.5,12.8,5.8,19c0.8,2.3,1.6,4.7,2.5,7.1c2.4,2.2,5,4.5,7.5,6.8c-1.8-5-4.4-9.9-6.2-15c-2.1-6-4-12-5.6-18.1
			c-3.1-11.7-5.3-23.7-6.4-35.8c0.2,0,0.4,0,0.6-0.1c5.4,14,11.3,27.7,19.3,40.5c8.2,13.2,18.6,24.3,30.7,33.9
			c23.4,18.5,53.1,34.9,60.6,65.7c1.1,0.7,2.2,1.3,3.3,1.9c-5.8-29.5-33.5-47.3-55.9-64c-13.7-10.2-25.8-21.4-35.2-35.8
			c-5.2-8-9.6-16.6-13.6-25.3c10,16,24.5,29.7,39.4,40.4c23.8,17.1,55.2,26.3,73.1,50.7c4.8,6.6,8.6,13.8,11.5,21.4
			c1.8,4.8,3,9.9,4.5,14.8C1280.4,1138.9,1281,1135.7,1281.4,1132.5z"/>
		<path class="st1" d="M1279.1,1092.6c-1.9-4.2-4.1-8.3-6.5-12.2c-2.3-3.7-4.8-7.3-7.6-10.7c-2.5-3-5.6-7.5-9.5-8.7
			c-0.2-0.1-0.5,0.2-0.4,0.4c1.4,3.5,5.2,6.1,7.4,9.2c2.8,3.8,5.3,7.9,7.5,12.2c0.7,1.4,1.4,2.8,2.1,4.2c-2.8-3.5-5.7-6.8-8.7-9.8
			c-7-7.2-14.5-13.7-22.7-19.5c-8.1-5.7-17.6-13.2-27.3-15.7c-0.3-0.1-0.6,0.3-0.3,0.5c6.7,6,15.6,9.6,22.9,14.9
			c8.3,6,16.4,12.8,23.3,20.4c6.6,7.2,12.3,15.1,16.9,23.8c2.4,4.6,4.3,9.2,6,13.9c-0.1-5-0.6-9.5-1.2-13
			C1280.3,1099.5,1279.9,1096.2,1279.1,1092.6z"/>
		<path class="st1" d="M1165.5,1023c11.7,11.6,24.8,21.6,39.2,29.6c15.1,8.4,32,13.5,46.3,23.4c7.6,5.3,14.2,11.6,18.7,19.8
			c0.1,0.1,0.3,0,0.2-0.1c-6.5-14.8-21.1-23.8-35.1-30.5c-8-3.8-16.1-7.1-23.9-11.1c-7.6-3.9-14.9-8.1-22-12.8
			c-8.3-5.4-16.1-11.5-23.2-18.4C1165.5,1022.8,1165.4,1022.9,1165.5,1023z"/>
		<path class="st1" d="M1329,763.7c0.8-0.1,1.6-0.1,2.4-0.1c-0.1-0.4-0.2-0.7-0.3-1.1c-3.3-13.2-8.3-26-13.6-38.5
			c-0.4,0.1-0.9,0.2-1.3,0.4c4.7,10.8,8.6,21.8,11.5,33.2C1328.2,759.7,1328.6,761.7,1329,763.7z"/>
		<path class="st1" d="M1185.2,936.1c32.3-17.3,61.8-40.8,86.6-67.8c12.1-13.1,22.8-27.5,31.2-43.3c7.5-14.1,15.6-31.6,16-48.1
			c-7.8-0.7-15.5-1.2-23.7-0.5c-3.4,16.9-13.5,36.2-33.7,60c-30.3,35.7-68.9,52.7-110.9,74.1c-42,21.4-86.9,35.3-86.9,35.3
			s6.1,4.7,18.6,10.4c-3.4-2.6-6.4-5.6-9-9c-0.6-0.8,0.7-1.8,1.4-1.1c6,6.8,13.7,10.8,21.6,15c4.6,2.4,9.2,4.9,13.9,6.9
			c1.7,0.7,3.5,1.2,5.3,1.8c0.2-0.1,0.5-0.1,0.7,0c2.5,1.1,2-1.7,1.2-2.9c-0.1-0.2-0.3-0.4-0.4-0.7c-0.7-0.5-1.3-0.9-1.8-1.2
			c-9.2-6.2-18.9-11.5-28.4-17.2c-0.6-0.4-0.2-1.4,0.5-1.2c6.7,2,13.9,5.3,20,8.7c3.4,1.9,6.7,4,9.9,6.2c0.5,0.4,3.5,2.6,6.3,4.2
			c0.1,0,0.1,0,0.2,0c0.2-1.2,0.5-2.3,0.8-3.4c-3.2-5.2-5.7-10.5-10.7-14.5c-0.7-0.5,0.3-1.5,1-1c5.6,4.4,9.2,10.3,13.5,15.7
			c1.5-0.1,2.3-0.7,2.3-1.7c-1-2.8-1.7-5.8-2.5-8.1c-1.2-3.5-2.7-6.9-4.8-10.1c-1.3-2.1-3-3.5-3-6c0-0.2,0.2-0.5,0.4-0.5
			c4.8,0.3,8,8,9.6,11.8c1.3,3.1,2.2,6.4,3.4,9.6c0.4,1.1,0.9,2.2,1.4,3.2c0.7,0.4,1.5,0.3,2-0.2c0.1-0.8,0.1-1.9,0.1-2.2
			c0.1-0.6,0.2-1.2,0.4-1.8c-0.1-1-0.1-2-0.1-3c0.1-3.2,0.3-6.4,0.8-9.5c0.3-1.7,0.6-3.4,1.2-4.9c0.3-1,2-3.3,1.7-4.2
			c-0.1-0.2,0.1-0.3,0.3-0.2c2.5,1.3,0,7.3-0.4,9.3c-0.8,5.3-2.3,12-0.4,17.2c0.4,0.2,0.5,0.2,0.9,0c0.6-0.3,0.9-0.9,0.8-1.6
			c0-0.3,0.1-0.5,0.4-0.6c0.2-1.1,0.5-2.2,0.8-3.2c2.5-7.2,8.5-13.2,14-18.2c24.8-22.5,54.2-39,78.5-62.3c11.8-11.4,23-23.5,33-36.6
			c9.6-12.6,17-26.3,25.8-39.4c0.4-0.6,1.5-0.2,1.2,0.5c-6.1,14.5-16.1,28.2-25.4,40.8c-17.1,23.1-37.3,43.5-60.3,60.8
			c-13.2,9.9-26.9,19.1-39.7,29.4c-5.8,4.7-11.8,9.4-16.8,14.9c-3.5,3.8-9.9,11-9.1,16.9c1.2,0.6,2.9,0.5,4.1-0.1
			c3.3-4.8,8.2-8.8,12.6-12.1C1169,944.7,1177.2,940.4,1185.2,936.1z"/>
		<path class="st1" d="M1326.2,839.5c8.8-23.2,9.7-39.3,8.9-49c0-3.7-0.3-7.4-0.7-11.2c-1.2-0.3-2.4-0.5-3.6-0.9
			c0.3,5.5,0.4,11,0.2,16.6c-1.9,9.6-5,16.5-5,16.5s1.4-8.9,1.2-29.8c0-1.2-0.1-2.5-0.1-3.8c-1.9,0-3.8-0.7-5.6-0.8
			c0.5,17.4-5.6,35.4-13.6,50.6c-16.6,31.6-42.5,57.6-69.8,79.9c-15.2,12.4-31.2,23.5-48.5,32.8c-7.4,4-14.9,7.9-21.8,12.6
			c-2.9,2-5.4,4.2-7.8,6.5c5.3-3.1,11.4-5.5,16.2-7.8c4.6-2.2,9.3-4.4,13.8-6.8c4.5-2.5,8.4-5.6,12.8-8.1c0.6-0.3,1.4,0.4,0.9,1
			c-5.4,7.5-15.6,12-23.8,15.8c-4.9,2.3-9.8,4.5-14.5,7.1c-3.3,1.8-6.2,4.1-9.3,6.1c0.4,0.5,0.8,1,1.2,1.5c2.2,1.2,2.7,2.4,2.7,2.4
			c20.6-10.7,96.9-49.5,113-60.3C1291.9,897.8,1310.5,881.2,1326.2,839.5z"/>
		<path class="st1" d="M1310.7,712.5c0.5-0.2,1-0.3,1.6-0.5c-5.2-11.6-10.6-23.1-16-34.7c3.2,4.2,6.9,8.1,9.7,11.4
			c5.7,6.6,10.8,13.6,15.1,20.9c0.8-0.2,1.5-0.5,2.3-0.7c-3.1-5.7-6.5-11.2-10.6-16.1c-4.3-5.2-8.9-10.1-13.1-15.4
			c-2.5-3.1-4.8-6.3-6.7-9.7c-1.7-3.1-2.5-6.5-4.2-9.6c-0.2-0.3-0.5-0.3-0.7-0.2c-3-8.7-5.1-17.6-5.3-26.8c0-0.9-1.5-1-1.5,0
			c0.4,29.5,16.5,55.2,29.2,80.9C1310.6,712.2,1310.7,712.4,1310.7,712.5z"/>
		<path class="st1" d="M1343,763.9c-2.3-11.5-5.7-22.6-10-33.6c-1.2-3-2.4-5.9-3.7-8.9c-0.6,0.1-1.2,0.2-1.9,0.3
			c1,2.2,2,4.3,2.9,6.6c4.6,11.5,7.9,23.4,10.6,35.5C1341.6,763.9,1342.3,763.9,1343,763.9z"/>
		<path class="st1" d="M1326.4,868.4c4.7-5.4,8.8-10.7,12.2-15.9c2.5-6.6,4.7-13.4,6.3-20.3c3.9-16.7,4.6-34.2,1.1-51
			c-0.6-0.1-1.2-0.2-1.8-0.3c0.7,5.3,1.1,10.8,1.2,16c0,4.4-0.2,8.7-0.3,13.1c-0.6,7.4-1.8,14.8-3.6,22.1c-2.3,9-5.4,17.9-9.5,26.2
			C1330.3,861.9,1328.4,865.2,1326.4,868.4z"/>
		<path class="st1" d="M590.7,900.9c19.8-18.9,50.3-33.3,71.6-43.6c-2.2-2.3-4.3-4.6-6.3-6.7c-6.5-5.4-13-10.3-13-10.3
			s-8.2,14.8-26,26.7c-13.1,8.7-24.8,22.5-30.1,29.3L590.7,900.9z"/>
		<path class="st1" d="M773.2,984.6c-4.1-2.6-8.7-4.7-13-7c-9.4-5-18.8-10-28.7-13.9c-1-0.4-0.5-2,0.4-1.6
			c10.3,4.3,20.6,8.5,30.3,14c5.2,2.9,10.1,6.3,15.2,9.2c0.3,0.1,0.5,0.3,0.8,0.5c-3.3-4-6.8-7.9-10.8-11.3
			c-7.3-6.2-16.4-10-24.9-14.2c-17.1-8.3-36.6-12.3-52.4-23.4c-1-0.7-0.1-2.3,1-1.7c9.7,5.2,19.6,9.3,30,13c8.7,3.1,17.6,5.6,26,9.3
			c15.3,6.7,27,18.2,35.9,31.9c0.1,0,0.2,0,0.3,0.1c0.6,0.3,1.3,0.6,2,0.6c-2.1-4.4-4.1-8.9-6.4-13.2c-3.4-6.2-6.3-12.7-9.8-18.8
			c-3.9-6.9-8.5-12.9-13.6-18.9c-2.5-3-5.2-5.7-7.9-8.6c-3.1-3.4-5.8-7.4-8.9-10.8c-0.1-0.1-0.1-0.2-0.1-0.3
			c-0.1-0.1-0.2-0.1-0.4-0.2c-9.3-4.3-24.2-15.8-39.8-29c-6.3-5.3-12.8-10.8-19.2-16.6c-1.8-1.7-3.6-3.3-5.4-4.9
			c-24.1,12.9-48.5,31-67.4,51.2l5.1,6.1c2.2,1.8,4.2,3.5,6.2,5.1c6,4.8,12.4,9.5,18.8,13.8c21.6,14,30.4,12.2,46.3,19.2
			c20.9,9.3,38.1,13.8,53.7,18.5c15.1,4.5,27.5,8.6,35.4,14.3c0.4-0.2,0.8-0.4,1.2-0.6c-5.1-2.9-12.7-7-21.6-11.1
			c-16.4-7.6-46.2-10.5-69.7-23.3s-45.7-29.8-53.2-37.5s-7.7-11.2,1.8-2.3s30.3,24.5,48.7,31c18.3,6.5,48,14.4,67.2,22.8
			c17,7.5,29.4,12.1,36.5,17.5c0.4-0.1,0.9-0.1,1.3-0.2c-0.1-0.2-0.3-0.4-0.4-0.5C780.4,989.8,776.8,986.9,773.2,984.6z"/>
		<path class="st1" d="M937.4,962.3c-2.2,1.9-11.9,10.1-26.4,18.3c0,0,16.5-4.1,29.4-11.4c3.3-2.3,6.5-4.7,9.7-7.1
			C949.2,962.2,944.7,962.4,937.4,962.3z"/>
		<path class="st1" d="M762.6,930.3c0,0.1,0.1,0.1,0.1,0.2c1.5,0.7,3.1,1.4,4.6,2.1c-0.1-0.1-0.2-0.3-0.3-0.4
			C765.6,931.5,764.1,930.9,762.6,930.3z"/>
		<path class="st1" d="M738.6,919.5c0.8,0.5,1.6,0.9,2.4,1.4h0.1c-0.2-0.2-0.4-0.4-0.6-0.6C739.8,920.1,739.2,919.8,738.6,919.5z"/>
		<path class="st1" d="M755.6,927.3c-3.9-1.5-9-3.2-14.6-6.3c2.9,2.5,5.9,4.8,8.7,7.5c3.2,3.1,6.5,6.1,9.7,9.2
			c5.1,4.9,9.3,10.6,12.8,16.7c3.5,6,6.6,12.3,9.3,18.8c0.1,0.1,0.1,0.3,0.2,0.4c-0.8-4.8-2-9.5-3.7-14.1
			c-3.9-10.3-9.7-19.6-15.3-29c-0.9-0.4-1.7-0.8-2.6-1.2C758.6,928.6,757.1,927.9,755.6,927.3z"/>
		<path class="st1" d="M937.9,961.9c-1.8,0-3.8,0-6-0.1l0,0c0,0-0.2,0.1-0.6,0.4c2.2,0,4.3,0,6.2,0.1
			C937.7,962.1,937.9,961.9,937.9,961.9L937.9,961.9z"/>
		<path class="st1" d="M841.8,954.2c-6.4-1.2-12.5-2.5-18.4-3.9c-19-4.3-38.3-10-56.1-17.8c5.4,7.6,10.4,15.7,13.9,24.3
			c2.1,5.1,3.6,10.5,4.4,16c0.5,3.6,1.4,7.9,0.8,11.7c0,0.1,0.1,0.2,0.1,0.2c1.4,2.5,3.1,4.8,4.7,7.1c-0.1-7.5-0.2-14.9-0.3-22.4
			s-0.9-15.8,0.4-23.2c0.2-1.2,2-1.1,2.3,0c1.9,7.3,1.6,15.7,2,23.2c0.2,5.3,0.4,10.6,0.6,15.8c6,11.6,20.3,3.2,27.4-3.6
			c6.8-6.5,13-15,15.9-24c0.8-2.4,4.3-1.4,3.8,1c-1.3,6.8-4.8,11.4-9.3,16.4c-4.7,5.2-8.7,11.1-14.4,15.3c-0.8,0.6-1.7,1.2-2.6,1.7
			c-0.5,1.2-1,2.4-1.5,3.5c5.7-4.2,10.9-9,16.9-12.9c7.5-4.9,13.8-10.9,18.6-18.3c0.7-1.1,2.8-0.4,2.3,1c-3.2,8.2-8.5,14.8-16,19.5
			c-4.3,2.7-8.6,5.2-12.6,8.3c-0.7,0.9-1.4,1.8-1.9,2.8c-0.4,0.7-1.2,2.2-0.4,3c0.5,0.5,1.3,0.5,2.1,0.5c4.1-1.4,8.2-3.8,11.5-5.1
			c6.7-2.7,13.6-5.1,20.2-8.1c5.8-2.6,11.4-5.6,16.6-9.3c5.1-3.7,9.3-8.1,14-12.2c0.7-0.6,2,0,1.7,1c-4.3,13.2-19.4,21-31.2,26.1
			c-4,1.7-8,3.2-12,4.7c-3,1.5-6,3.1-8.9,4.8c-0.2,0.1-0.4,0.3-0.7,0.4c-0.7,0.9-1.1,1.9-0.3,2.7c0.9,0.9,3.3,1.1,4.5,1.2
			c1.7,0.1,3.6-0.1,5.4,0.2c18.2-5.1,41.5-15.8,57.1-25.3c18.7-11.3,26.6-16.7,28.7-18.2c-14.1-0.2-35-1-58.7-3.8
			C862.2,957.4,851.7,956,841.8,954.2z"/>
		<path class="st1" d="M1274.7,648.7c-2.4,17.8-4.8,35.8-6.3,46.8l0,0c0.3,1.5,0.7,3,1.4,4.5c3.2,5.8,11.1,14.3,15.7,22.7
			c7.5-3.3,14.1-6,20.6-8.4c-1.8-3.4-3.7-6.6-5.6-9.8C1289.5,686.4,1280.2,671.1,1274.7,648.7z"/>
		<path class="st1" d="M1292.7,740.2c0.3,1.2,0.7,2.4,1,3.5c0.8,2.5,1.4,5,1.9,7.5c0.9,4.1,1.5,8.4,1.7,13.2
			c10-0.7,18.9-1.2,27.6-1.3c-2.7-11.8-7.3-25-13.2-37.6c-7,1.8-14,4.1-21.7,7.3C1290.5,734.4,1292.1,738.3,1292.7,740.2z"/>
	</g>
	<g id="_x31_4_x5F_Hair_x5F_Pigtails_x5F_front_x5F_Main_Asset_x5F_Masked">
		<path class="st0" d="M1218.7,422.5c28.8,11.8,37.5,25.2,49.6,49c5.3,10.4,8.1,24.1,9.4,38c4.4,47.8,0,127.6,0,127.6
			s13.2-27.7,28.3-67.1c9-23.5,13.8-47.6-15.6-92.5c0,0,0-22.1-4.6-50.4c-30.8-5.8-62-10.2-93.5-13.1
			C1201,416.1,1209.8,418.9,1218.7,422.5z"/>
		<path class="st0" d="M1065.7,409.9c10.8,6.3,16.5,11.3,18.8,12.2c5.1,2,13-4.6,32.5-10.6c2-0.6,4.4-1.2,7.2-1.7
			C1104.8,409.3,1085.3,409.3,1065.7,409.9z"/>
		<path class="st0" d="M540.7,563c-2.7,53.2,9.3,166.2,30.7,209c0,0-16.5,20.8-20,39s-1.6,23.5-1.6,23.5s16.9-10.9,35.5-17.1
			s28.8-7.2,29.8-5.5s1,5.8-0.6,10.2c-1.7,4.3-13.7,7.1-25.4,13c-11.7,5.8-31.2,20.5-31.2,20.5s1.7,12.4,10.8,25.7
			s18.6,23.2,18.6,23.2l11.8-10.5c39.9-44,40.9-50,91.6-84.3c50.7-34.3,80-65.9,97.3-112.7s17.8-90.3,14-141s-14.5-82.3-14.7-91
			c-0.1-4.2-0.4-9.5,4.6-17.1c-89.6,23.2-176.1,59.2-251.1,114.4C540.7,562.5,540.7,562.7,540.7,563z"/>
	</g>
	<g id="_x31_4_x5F_Hair_x5F_Pigtails_x5F_front_x5F_Highlights_x5F_Masked">
		<path class="st2" d="M1096.4,409.4c-1.1,1.5-2.2,3.1-3.2,4.8c0,0-1.6,3-1.9,3.7c-0.1,0.7,0.7-0.5,1.4-1c1.5-1.1,2.8-2.2,4.2-3.4
			c3.3-1.1,6.6-2.5,9.8-4C1103.3,409.5,1099.9,409.4,1096.4,409.4z"/>
		<path class="st2" d="M767.6,464.5c1,2.5,5,1.5,4.1-1.1c-1.1-3-2.1-6.1-3-9.2c-1.4,0.4-2.9,0.8-4.3,1.2
			C765.4,458.5,766.4,461.5,767.6,464.5z"/>
		<path class="st2" d="M774.9,452.6c1.7,7.3,3.3,15.2,6.2,22.2c0.4,1.8,0.8,3.6,1.2,5.3c1.8,7.4,3.6,14.7,5.2,22.1
			c3.4,15.8,5.9,31.7,7.5,47.8c1.5,15.5,3.3,31.7,2.2,47.3c-1,14.3-4.7,27.6-10,40.8c-0.7,1.4-1.4,2.8-2.2,4.2
			c-4.3,7.4-9.7,14.1-15.5,20.4c-12.2,13.5-29.9,17.8-46.4,24c-15.8,5.9-31.5,11.7-46.8,19c-7.8,3.7-15.1,7.8-22.2,12.8
			c-6.4,4.5-13.9,8.6-19.3,14.5c-0.4,0.5,0.1,1.2,0.7,0.9c8-4.3,15-10.3,23.3-14.1s16.2-8.4,24.5-12.2c16.8-7.7,34.1-14.3,51.3-21
			c1.6-0.6,3.3-1.3,4.9-1.9c-13.7,7-28.4,12.9-41.5,19.7c-30.4,15.9-58.4,35-83,59.1c-13.5,13.2-27,27.6-34.6,45.1
			c-0.6,1.4,1.4,2.6,2,1.2c7.4-16.3,20-29.1,32.8-41.2c12.9-12.3,26.6-23.6,41.1-34c13.9-9.9,28.3-19.5,43.4-27.4
			c10.3-5.3,21-9.8,31.5-14.6c-8.7,5.2-17.5,10.1-26.3,15.2c-27.8,16.2-54.5,34.7-77.5,57.4c-6.6,6.5-12.8,13.3-18.7,20.5
			c-5.2,6.4-10.7,13.1-13.6,20.9c-0.2,0.5,0.5,0.8,0.8,0.5c5.7-5.7,10.1-12.7,15.2-19c5-6.1,10.3-11.9,15.9-17.5
			c11.7-11.6,24.4-22.2,37.9-31.7c13.5-9.4,27.3-18.4,41.5-26.7c13.8-8.1,27.4-17.4,40.8-26.3c7.1-4.7,12.8-10.8,19.2-16.5
			c3.9-3.4,16-17.2,19.9-20.7c0.6,3.2-4.9,15-6.4,17.7c-4.6,8-12.9,19.8-18,27.5c-5.9,8.9-14,17.1-22.2,25.1
			c-0.6,0.5,1.2-0.7,1.8-1.2c15.8-13.1,26.6-29.4,36.8-47c5.2-8.9,9.1-18.8,12.7-28.5c2-5.3,3.7-10.3,5.1-15.8c0.9-3.6,3-7.1,3-10.9
			c3.1-13,4.1-26.4,3.9-39.9c-0.3-6.5-0.8-13.1-1.3-19.8c-0.7-8.9-1.6-17.3-2.6-25c-1.3-8.9-2.8-17.8-4.6-26.6
			c-1.6-8-3.5-16.1-5.7-24c-0.3-1.1-0.6-2.1-1-3.2c0-0.3,0-0.6,0-0.9c-1.8-8.5-4.8-16.8-7-25.4c-2,0.5-4,1.1-6,1.6
			C774.9,452.5,774.9,452.6,774.9,452.6z"/>
		<path class="st2" d="M774.7,693.2c-8.2,14.2-18.4,27.2-28.6,40.1c-9.7,12.1-19.3,24.3-31.3,34.2c-0.9,0.8,0.3,2.1,1.2,1.6
			c14.4-7.9,24.1-21.8,34.1-34.4c10.2-12.9,20.2-26.1,28.4-40.4c8.6-15.1,13.9-31.4,19-48c2.1-6.8,4-13.7,5.6-20.7
			c0.6-8,0.8-16.1,0.8-24.3c-1.2,15.1-5.4,29.5-10,44.1C788.8,661.9,783.4,678.1,774.7,693.2z"/>
	</g>
	<g id="_x31_4_x5F_Hair_x5F_Pigtails_x5F_front_x5F_Shadows_x5F_Maskedv">
		<path class="st3" d="M645.6,522.1c-1,8.3-1.8,16.5-2.1,24.8c-0.8,20.5,2.7,40.7,10.1,59.7c-0.3-13.8-1.6-30.4-4.8-49.8
			C646.6,544.2,645.7,532.8,645.6,522.1z"/>
		<path class="st3" d="M565.4,669.3c1.9,21.1,6.1,41.6,9.7,62.4c3,8.8,6.2,17.7,9.1,26.6c3.7-2.3,7.1-4.5,10.3-6.8
			c8.2-21.4,12.8-44,10.3-66.9c-2.6-23-9.6-45.2-11.5-68.4c-1.8-21,0.7-41.9,6.8-62.1c4.1-13.7,9.7-26.7,16.2-39.2
			c-14,7.4-27.7,15.4-41.1,23.9c-5.6,22-9.4,44.3-10.8,67.3C563.1,627.1,563.5,648.3,565.4,669.3z"/>
		<path class="st3" d="M597.8,634.2c3.7,22.1,11.1,43.8,10.5,66.5c-0.4,16.5-4.4,32.8-10.1,48.5c24.7-18.2,36.1-36,40.4-48.2
			c3-8.5,6.4-19.8,9.1-30.8c0.6-9,0.5-17.9-0.5-26.8c-3.5-31.9-15.4-62.4-16.6-94.6c-0.6-15.5,2.2-30.5,7.1-44.9
			c-6,2.9-12,6-17.9,9.1c-8.8,16.8-16.1,34.5-20.5,53.1C593.9,588.7,594,611.4,597.8,634.2z"/>
		<path class="st3" d="M643.5,610.9c3.2,14.3,6.5,29.7,7.3,44.9c1.1-5.5,1.8-10.6,2-14.7c0.3-6.7,0.9-16.1,0.8-27.8
			c-8.4-20-12.8-41.7-12.3-63.4c0.3-12.2,2-24.4,3.6-36.5c0.6-4.6,1.3-9.2,1.9-13.8c-2.2,1.1-4.5,2.1-6.7,3.2
			c-1.3,3.4-2.4,6.8-3.4,10.4C627.6,545.8,636.3,578.8,643.5,610.9z"/>
		<path class="st3" d="M553.8,607.7c0.4,17.7,1.8,35.4,4.3,52.9c2.2,15.8,5.6,31.4,9.5,46.9c-2.5-15.2-4-30.6-5.1-45.7
			c-2.9-40.6-0.2-81.6,9.5-121.1c-4.2,2.7-8.4,5.5-12.5,8.3c-2.5,13.7-4.4,29.4-5.7,45.6C553.7,599,553.7,603.3,553.8,607.7z"/>
		<path class="st3" d="M1087.6,409.5c-0.1,0-0.1,0-0.2,0c0,0.1,0.1,0.2,0.1,0.3C1087.5,409.7,1087.6,409.6,1087.6,409.5z"/>
		<path class="st3" d="M1091.4,409.5C1091.4,409.5,1091.3,409.5,1091.4,409.5c-0.1,0.1-0.2,0.2-0.2,0.3
			C1091.3,409.7,1091.3,409.6,1091.4,409.5z"/>
		<path class="st1" d="M678.1,490.1c1.4,9,3,18.7,6.5,27.2c0.4,1,1.8,0.6,1.6-0.4c-1.6-8.5-4.3-16.8-5.7-25.5
			c-0.4-2.1-0.7-4.2-1-6.3c-0.7,0.3-1.4,0.6-2,0.8C677.7,487.3,677.9,488.7,678.1,490.1z"/>
		<path class="st1" d="M673.6,515.2c5.7,36.3,18.9,70.9,24.9,107.1c1.8,10.7,2.9,21.6,3,32.5c0.1,10.3-1.2,20.5-2.2,30.7
			c-0.1,0.6,0.9,0.7,1.1,0.1c4.8-16.4,3.9-34.7,2-51.5c-2-17.4-5.9-34.5-10.3-51.4c-4.5-17.4-9.5-34.6-13.2-52.2
			c-3-14.1-4.8-28.4-5.6-42.8c-0.8,0.3-1.6,0.7-2.4,1C671.3,497.6,672.2,506.4,673.6,515.2z"/>
		<path class="st1" d="M644.9,513.4c-1.6,12.1-3.3,24.3-3.6,36.5c-0.5,21.7,3.9,43.4,12.3,63.4c0.1,11.7-0.5,21.1-0.8,27.8
			c-0.2,4.1-0.9,9.2-2,14.7c-0.8-15.2-4.1-30.6-7.3-44.9c-7.2-32.1-15.9-65.1-6.8-97.8c1-3.5,2.1-7,3.4-10.4
			c-0.8,0.4-1.6,0.8-2.4,1.2c-4.9,14.4-7.6,29.4-7.1,44.9c1.2,32.2,13.1,62.7,16.6,94.6c1,8.9,1.1,17.8,0.5,26.8
			c-2.7,11-6.1,22.3-9.1,30.8c-4.3,12.2-15.7,30-40.4,48.2c5.7-15.7,9.7-32,10.1-48.5c0.6-22.7-6.8-44.4-10.5-66.5
			c-3.8-22.8-3.9-45.5,1.4-68.1c4.4-18.5,11.7-36.2,20.5-53.1c-1.2,0.6-2.3,1.2-3.5,1.8c-6.5,12.6-12,25.6-16.2,39.2
			c-6.1,20.2-8.6,41.1-6.8,62.1c1.9,23.2,8.9,45.4,11.5,68.4c2.5,22.9-2.1,45.5-10.3,66.9c-3.2,2.3-6.6,4.5-10.3,6.8
			c-2.9-8.9-6.1-17.8-9.1-26.6c-3.6-20.8-7.8-41.3-9.7-62.4c-1.9-21-2.3-42.2-1-63.3c1.4-22.9,5.2-45.3,10.8-67.3
			c-1.1,0.7-2.1,1.3-3.2,2c-9.7,39.5-12.4,80.4-9.5,121.1c1.1,15.1,2.6,30.5,5.1,45.7c-3.9-15.5-7.3-31.1-9.5-46.9
			c-2.5-17.5-3.9-35.2-4.3-52.9c-0.1-4.4-0.1-8.7,0-13.1c1.3-16.1,3.2-31.9,5.7-45.6c-6.4,4.3-12.7,8.8-19,13.4c0,0.2,0,0.4,0,0.6
			c-1.6,31.9,2.1,85.3,9.9,132.2c-0.1-16.9,0.1-43.9,1.6-72.3c0.7,12.2,1.9,24.4,3.5,36.6c2.4,17.7,5.6,35.2,10,52.5
			c4.2,16.2,8.6,33.1,15.3,48.5c-3.7,2.2-7.7,4.4-11.9,6.6c0.7,1.7,1.5,3.4,2.3,4.9c0,0-3.1,4-7,9.9c5.2-2.6,10.8-6,16.6-10.2
			c38.1-27.2,69.9-51.2,88.3-82.3c18.3-31.1,14-77.6,3-110.9c-9.5-28.9-18.3-53.1-16.1-83.2c-3.1,1.4-6.2,2.8-9.3,4.3
			C646.2,504.2,645.5,508.8,644.9,513.4z M643.5,546.9c0.3-8.3,1.1-16.5,2.1-24.8c0.1,10.7,1,22.1,3.2,34.7
			c3.2,19.4,4.5,36,4.8,49.8C646.2,587.6,642.7,567.4,643.5,546.9z"/>
		<path class="st1" d="M690.9,500c7.3,27.8,15.2,55.6,17.7,84.3c0,0.2,0.3,0.2,0.3,0c0.2-27.6-7.9-54-15-80.4
			c-2-7.4-3.9-14.9-5.5-22.4c-0.6,0.3-1.3,0.5-1.9,0.8C687.9,488.3,689.4,494.2,690.9,500z"/>
		<path class="st1" d="M724.2,561.1c9.8,37.2,15.8,74.1,15.2,110.7c0,0,3.7-36.9-1.1-66.7c-4.8-29.7-11.3-66.6-30.1-111.3
			c-2.6-6.1-4.9-11.9-6.9-17.3c-2.7,1-5.4,2.1-8.1,3.1C704.1,512.1,715,526.1,724.2,561.1z"/>
		<path class="st1" d="M568.3,824.2c0.6-0.3,1.2-0.6,1.9-0.9c0.4-4.9,1-9.7,2-14.5c1.2-6.3,3-12.6,6.1-18.2
			c3-5.5,6.9-10.1,10.6-15.1c0.3-0.4-0.5-1-0.9-0.6c-8.4,9.2-14.6,19.5-17.2,31.8C569.6,812.5,568.8,818.3,568.3,824.2z"/>
		<path class="st1" d="M803.3,599.4c-5,22.2-10.9,43.6-20.7,64.2c-9.7,20.3-22.1,39.4-36.9,56.4c-15.9,18.2-34.7,33.2-54.1,47.5
			c-11.1,8.2-22.3,16.2-33.5,24.2c-9.3,6.7-19,13.4-27.2,21.5c-16,15.8-26.4,38.1-26.4,60.8c-3.2,4.5-6.2,9.2-8.8,14.2
			c0.5-5.9,1.2-11.7,2.3-17.6c2.2-11.4,5.7-22.5,10.6-33.1c8.8-19.1,22-35.7,37-50.4c14.4-14.2,30.3-26.7,46.1-39.2
			c17.5-13.9,34.5-28.3,50.9-43.5c8.8-8.1,17.9-16.1,26-25c7.1-7.8,15.2-17.4,17.9-27.8c0.2-0.8-0.9-1.3-1.4-0.6
			c-0.1,0.2-0.2,0.3-0.3,0.5c-0.2-0.2-0.5-0.2-0.7,0c-14.5,16.7-31,31.5-49.1,44.3c-17.6,12.5-36,23.6-53.8,35.8
			c-18.6,12.7-36.1,26.6-51.1,43.5c-10.2,11.5-20.6,24.1-28.7,37.7c1.5-0.3,2.9-0.6,4.1-0.9c1.4-2.2,2.9-4.3,4.4-6.5
			c7.3-10.2,15.1-20.2,23.5-29.6c29.2-32.4,68-52.6,103-77.6c16.6-11.8,32.8-24.8,45-41.1c-1.4,2.4-2.8,4.8-4.4,7
			c-3.4,4.8-7.2,9.3-11.3,13.6c-7.4,7.9-15.4,15.1-23.3,22.4c-17,15.6-34.4,30.6-52.4,44.9c-27.2,21.6-55.7,43.9-74.6,73.4
			c-0.2,1.2-0.5,2.4-1,3.7c-0.4,1.1-1.5,2.1-3,3c-1.5,2.7-3,5.5-4.4,8.3c-9.2,19-15.9,41.8-15.4,63.5c-0.1,0.3-0.2,0.5-0.3,0.8
			c-1.9-8.3-3.6-16.5-3.7-25.2c-0.2-11.5,1.3-23,4.8-34c0.7-2,1.4-4,2.2-6c-1.2,0.5-2.3,1-3.5,1.6c-0.1,0.2-0.1,0.4-0.2,0.5
			c-4.3,12.1-6.6,25-6.4,37.9c0.2,9.6,1.2,20.2,4.7,29.5c-1.6-2.4-3.3-4.9-4.7-7.5c-2.9-5.3-5.7-10.7-7.6-16.4
			c-3.5-10.2-5.6-20.7-6.5-31.4c-0.6,0.4-1.2,0.8-1.8,1.3c0.9,10.4,2.9,20.8,6.2,30.8c1.5,4.5,3.1,9.4,5,14.1
			c-3.8-4.4-7.5-9-10.5-14.3c-4.3-7.5-7.8-15.8-9.4-24.4c-1.3,0.9-2,1.5-2,1.5s1.7,12.4,10.8,25.7c9.1,13.3,18.6,23.2,18.6,23.2
			l12-10.5c39.9-44,40.9-50,91.6-84.3c50.7-34.3,80-65.9,97.3-112.7c6-16.9,10.1-33.2,12.5-49.6c-8,27.8-21.1,58.6-40.5,85
			c-29.4,40-78.1,72.5-101,89.8c-11.7,8.8-28,21-42.3,36.4c2.8-8.8,7.5-16.8,14.1-24.1c9.3-10.4,20.3-19.3,31.8-27.1
			c0.8-0.6,0.3-2-0.7-1.7c-6.5,1.8-12,7.8-17,12c-6.4,5.5-12.7,11.1-18.2,17.6c-6.7,7.9-12.7,17.8-14.3,28.3
			c-1.3,1.5-2.6,3.1-3.9,4.7c2.4-20.5,10.7-39.3,25.9-54c9.1-8.8,19.6-16.2,29.8-23.7c10.5-7.8,21-15.5,31.5-23.3
			c19-14.1,37.1-29,52.5-47c13.8-16,25.5-33.8,34.8-52.8c9.4-19.2,17.2-40.2,20.7-61.5c0-2.4,0-4.9,0-7.3
			C803.6,598.8,803.3,599,803.3,599.4z"/>
		<path class="st1" d="M574.3,779.3c-6.1,11-9.4,23.2-12.7,35.3c-1.4,5-2.6,10-3.6,15.1c0.7-0.4,1.5-0.8,2.2-1.2
			c0.9-4.9,2.2-9.6,3.4-14.3c3.1-11.7,6.4-23.3,12-34.1C576,779.2,574.8,778.5,574.3,779.3z"/>
		<path class="st1" d="M1222.8,424.2c18.8,7.8,33.2,22.8,41.5,39.3c9.4,18.5,12.3,31.8,13.6,46c2.6,29.8,1.7,75.7,0.9,105
			c20.9-34.3,21-49.1,21-76c-2.5-34.5-32.6-104-92.8-123.1c-5.4-0.6-10.9-1.1-16.4-1.6C1199.5,416,1211.1,419.3,1222.8,424.2z"/>
		<path class="st1" d="M735.6,521.6c4.1,11.1,8,22.2,12.3,33.3c2.3,5.8,4.6,11.6,6.8,17.5c2,5.2,3.6,10.7,6.2,15.6
			c0.1,0.2,0.4,0.1,0.3-0.1c-2.1-9.8-6.4-19.4-9.7-28.9c-3.3-9.6-6.8-19.2-10.2-28.7c-6.9-19.1-13.9-38.2-20.8-57.2
			c-0.4-1.1-0.8-2.1-1.1-3.2c-0.8,0.3-1.6,0.6-2.4,0.9C722.5,487.9,729.4,504.8,735.6,521.6z"/>
		<path class="st1" d="M787.5,464.1c-0.1-4,0-9,4.4-15.8c0-0.1-0.1-0.3-0.1-0.4c-2.9,0.7-5.7,1.5-8.6,2.3
			C784.7,455.2,786.2,460,787.5,464.1z"/>
		<path class="st1" d="M1091.2,409.8c0-0.1,0.1-0.2,0.1-0.3c-1.2,0-2.5,0-3.7,0c0,0.1-0.1,0.2-0.1,0.3c0-0.1-0.1-0.2-0.1-0.3
			c-6.9,0.1-13.8,0.2-20.7,0.4c10.5,6.2,16.1,11.1,18.3,11.9c1.9,0.8,3.9-0.1,6.6-1.8c-0.2-0.5-0.4-0.9-0.5-1.4
			c1.7-3.1,3.4-6.2,5.4-9.2c-1.7,0-3.3,0-5,0C1091.3,409.6,1091.3,409.7,1091.2,409.8z"/>
		<path class="st1" d="M1291.9,606.9c-4.3,8.3-8.5,11-14.1,18.6c-0.2,1.9-2.1,15.6-2.1,15.6s3.5-8.5,5-10.2
			c3.9-7.4,7.3-11.6,10.6-18c1.3-2.5,2.1-4.1,3.4-6.4c-0.4-1.1-1-1.5-1.3-2.6C1292.7,605.4,1292.7,605.4,1291.9,606.9z"/>
		<path class="st1" d="M1266.5,443.9c1.7,1.5,3,3.6,4.3,5.6c4.9,7.3,19.3,27.5,19.6,28.4c0,0-0.7-16.4-1.3-24.3
			c0,0-5.9-8.1-15.6-20.2c-2.2-2.7-12.3-7.5-21.5-12.1c-5.1-0.8-10.1-1.5-15.2-2.2C1247.9,424.9,1252.7,430.3,1266.5,443.9z"/>
	</g>
	<g id="_x31_4_x5F_Hair_x5F_Pigtails_x5F_elastics_x5F_Main_Asset">
		<path class="st4" d="M775.5,1012c0,0-4-1-7.4-6.1c-3.4-5,0-8.9,7.4-11.2c7.4-2.4,23.6-4.2,34.1,1.1c10.4,5.3,16.2,6.7,17.8,10.1
			c1.6,3.4-1,6.6-2.6,6.7c0,0,2.8,0.8,2,4.6c-0.8,3.7-1.9,4.6-9.5,4.1s-21.1-2.5-30.2-1.5s-8.7,0.7-11.1-2.1
			C773.7,1014.9,775.5,1012,775.5,1012z"/>
		<path class="st4" d="M1123.8,983.2c0.2-0.1-5.2,1.5-7.2-2.8s3.4-8.4,8.7-10.2c5.3-1.8,17.7-5,23.1-4.6s10,1.8,12,5.9
			c1.9,4.1-3.5,7.1-3.5,7.1s3.4,1.9,2.8,4.8s-7.3,5.3-18.6,6.6s-13.5,2.9-17.6,0.9C1119.3,989,1120.5,985.1,1123.8,983.2z"/>
		<path class="st1" d="M1160.4,974.9c-13-5.5-29-2.5-43.2,6.5c1.5,1.9,3.9,2.1,5.3,2c3.8-2,9.9-4.1,18.8-4.2
			c9.8-0.1,15,0.8,17.7,1.6c-0.8-1.4-2.3-2.2-2.3-2.2S1159.5,977.1,1160.4,974.9z"/>
		<path class="st1" d="M1153.6,984.1c-7.3,0.4-21.5-0.3-32.7,4.1c0.2,1,1,2,2.5,2.7c4.1,2,6.4,0.4,17.6-0.9
			c10.8-1.2,17.3-3.4,18.4-6.2C1157.9,983.9,1155.9,984,1153.6,984.1z"/>
		<path class="st1" d="M809.9,1006.8c-13.8-3.5-20.3-1.6-29.3,0c-6.9,1.3-11.9-2.1-13.3-6.8c-0.9,1.7-0.7,3.7,0.8,5.9
			c3.4,5,7.4,6.1,7.4,6.1s-1.8,2.9,0.5,5.6c2.3,2.7,2,3,11.1,2.1c0.4,0,0.7-0.1,1.1-0.1c-5.5-1.7-6.7-4.6-5.6-5.9
			c1.5-1.7,7.4-4.5,22.7-3c10.6,1.1,18,4,21.6,5.8c0.4-3.2-2.1-3.9-2.1-3.9c0.4,0,0.8-0.2,1.2-0.5
			C822.3,1010.5,816.9,1008.6,809.9,1006.8z"/>
		<path class="st1" d="M810.6,1020.6c2.5,0.2,4.7,0.5,6.7,0.6c5.8,0.4,7.8,0,8.8-1.9C823.1,1019.6,817.1,1020.2,810.6,1020.6z"/>
	</g>
</g>
<g id="Original_1_">
	<g id="_x31_4_x5F_Hair_x5F_Pigtails_x5F_back_x5F_Main_Asset_1_">
		<path class="st0" d="M1333.6,705.7c-8.2-15.3-15.6-31.7-21.2-47c-9.8-26.5-19.9-59.8-27.7-81.7c0,0-3.7,25.2-6.9,48.5
			c-3.2,23.3-7.2,54-9.4,70.1c-0.7,5,11.1,16.2,17.1,27.2C1302.9,715,1315.7,710.5,1333.6,705.7z"/>
		<path class="st0" d="M1359.3,766.1c-1-10.4-3.6-19.1-8.2-28.9c-2.5-5.3-6.7-11.5-9.7-17.1c-19.7,2.6-33.6,5.2-51.5,12.6
			c0.6,1.6,2.2,5.5,2.7,7.4c2.4,8.1,4.2,15.1,4.5,24.3C1320,762.9,1337.5,761.8,1359.3,766.1z"/>
		<path class="st0" d="M1295.8,776.4c-4.5,14.1-15.1,39.8-34,59.9c-37.6,40.1-69,52.7-111.1,74.1c-42,21.4-86.9,35.3-86.9,35.3
			s9,6.9,27.6,14.2c18.6,7.2,25.3,16.4,25.3,16.4s8.9-8,23.7-9.8c17.1-2.1,19.5,4.2,19.5,4.2s61-21.6,115.2-58.3
			s74.6-71.1,80.4-98.3c2.2-10.2,3.7-20.1,4.1-29.9C1337.1,779.9,1318.8,774.8,1295.8,776.4z"/>
		<path class="st0" d="M1102.2,1007.1c0,0,0.3-2.4,7.2-7.1s11.1-7.9,12.4-10.2c0,0,1.5,3.5,15.4,0.7s17.3-2.8,20.8-5
			c0,0,13.2,4.6,32.4,16.1s45.8,23,66.9,48.6s21.4,40.6,23.6,52.4s2.2,35.7-4.6,48.2c0,0-51.4-27-74.8-47.6s-60.2-51.6-74.9-68.6
			S1102.2,1007.1,1102.2,1007.1z"/>
		<path class="st0" d="M1140.6,1152.8c0,0,26.3,35.5,49.1,58.6c22.8,23,93.5,66.8,93.5,66.8s8.2,17.4,0,37.1s-28,33.6-57.2,33.5
			s-36-10.1-40.2-17.8s0.1-11.6,2-12.5s-0.6,2.5,1.2,6.5s7.6,10.1,16.8,5.8s6.5-32.6-2.8-51.5s-26.8-40.4-42.8-45.8
			c0,0-10.2-47-14.3-61.7C1141.9,1157,1140.6,1152.8,1140.6,1152.8z"/>
		<path class="st0" d="M917.7,1101.4c0,0,11.6,2,14.8,34.4s-2.3,59.4-10,77.8s-33.5,47-55.8,54.5c0,0-17-11.9-26.2-17.9
			c0,0,2.8-17.8-9-37.5c0,0,11.4-20.1,33.7-50.4S917.7,1101.4,917.7,1101.4z"/>
		<path class="st0" d="M690,1189.5c0,0,60.5-46.7,111.9-81.5s72.4-46.2,72.7-48.5c0.2-2.3-1.2-5.9-9.6-12.1s-32.5-20.9-40-25.6
			s-7.6-0.5-18.6-1.5s-21.2-2.2-21.2-2.2s-3.8,6.6-14.8,13s-45.6,19.6-67.8,34.3s-37.6,29.7-47,53.9s4.8,48,12,56.2
			S690,1189.5,690,1189.5z"/>
		<path class="st0" d="M675.2,868.7"/>
		<path class="st0" d="M663.2,856.9c-7.7-7.1-20.2-16.5-20.2-16.5s-8.2,14.8-26,26.7c-17.8,11.8-33.2,33.3-33.2,33.3s0.9,1.6,3.5,4
			C607.2,883.5,640.7,867.8,663.2,856.9z"/>
		<path class="st0" d="M841.8,954.2c-48.1-8.9-80.2-24.1-103.7-34.8c-14.2-6.5-41.4-29.8-64.3-50.6c-24.5,13.1-49.4,31.6-68.4,52.3
			c11.9,10.2,27.8,22.8,42.2,30.8c27.6,15.3,72.7,32.6,88.2,37.4c15.5,4.8,31.3,11.1,31.3,11.1s10-10.2,29-6.6
			c21,4,28.5,7.8,31.8,14.8c0,0,25.5,3.2,55.5-8.2c30.1-11.4,48.3-24.5,67-38.3C950.5,961.9,889.9,963.1,841.8,954.2z"/>
	</g>
	<g id="_x31_4_x5F_Hair_x5F_Pigtails_x5F_back_x5F_Highlights_1_">
		<path class="st1" d="M873.6,1226.7c0-0.2,0-0.3,0-0.5C873.6,1226.4,873.6,1226.5,873.6,1226.7L873.6,1226.7z"/>
		<path class="st2" d="M870.6,1063c1.9-1.3,3.1-2.2,3.6-2.9c-6.3-7-14.8-12.7-22.4-17.9c-4-2.7-8.1-5.3-12-8.1
			c-2.2-1.5-4.3-3.1-6.2-4.9c-1.8-1.6-2.2-2.7-4.5-3c-0.3,0-0.7,0.1-0.7,0.5c-0.1,1.8,0.9,3.4,2.1,4.8c-2.4-2.1-3.6-2.3-6.3-4.1
			c-0.6-0.4-2.1-1.2-2.2-0.6c-0.2-0.4-0.2,1.4-0.4,1c-0.8-1.3-1.8-0.7-1.1,0.7c3.6,7.8,7,13.1,11.6,20.3c2.7,4.2,8,13.2,13.7,13.1
			c0.8,0,1.2-0.7,1.1-1.5c-0.5-2.9-3-4.4-4.9-6.5c-2.5-2.6-4.7-5.5-7-8.4c-4.4-5.5-8.5-11.3-12.2-17.4c6.7,6.8,14.1,12.9,20.7,20
			c3.3,3.5,6.4,7,9.3,10.8c2.6,3.4,4.9,7.4,7.8,10.7c1.3-0.8,2.5-1.6,3.6-2.3c-2.1-3.4-5.3-6.4-7.9-9.3c-3.6-4-7.1-7.9-10.8-11.8
			c-3.3-3.5-6.6-7-10.2-10.3c3.6,3.1,7.4,5.8,11.3,8.5C855,1050.1,862.5,1056.9,870.6,1063z"/>
		<path class="st2" d="M924,1116c-0.9-2.7-2.6-5.1-3.9-7.6c-1-1.9-2.2-4-3.9-5.4c-0.6,0.6-1.3,1.3-2.1,2.2c0.7,1.7,2,3.4,3.1,4.8
			c1.8,2.2,3.7,4.7,5.9,6.5C923.5,1116.7,924.2,1116.5,924,1116z"/>
		<path class="st2" d="M910,1162.8c3-5.3-0.1-15-1.3-20.5c-1.8-8-4.6-15.7-7.5-23.3c-1.1,1.2-2.1,2.4-3.3,3.6
			c2.1,6.7,3.7,13.4,5.2,20.3c0.8,3.7,1.5,7.3,2.3,11c0.7,3.2,1,6.7,3.3,9.1C909.1,1163.4,909.8,1163.3,910,1162.8z"/>
		<path class="st2" d="M915.9,1126.9c1.8,13.6,2.8,27,1.1,40.6c0-0.8,0-1.7,0-2.5c-0.2-8.3-1.4-16.5-2.7-24.7
			c-0.7-4.3-1.8-8.5-2.9-12.7c-1.1-4.1-1.8-8.7-3.4-12.6c-0.1-0.3-0.8-0.4-0.7,0.1c0.6,4.3,2,8.4,2.6,12.7c0.5,3.7,0.7,7.4,1,11.1
			c0.8,8.4,0.8,16.7,0.6,25.1c-0.2,8.1-0.6,16.2-1.6,24.2c-0.5,4.4-1.2,8.8-2,13.1c-0.6,3.8-2.3,7.8-1.9,11.6
			c0.2,1.9,1.4,2.1,2.5,0.6c0.7-0.9,1.2-2,1.6-3.1c0.9-1.8,1.8-4.3,2.5-6.2c1.4-4,3.3-7,4.5-11c2.1-7,3.6-14.2,4.2-21.5
			c1.3-14.9,0.7-30.7-3.6-45.1C917.4,1125.7,915.7,1125.8,915.9,1126.9z"/>
		<path class="st2" d="M1256.4,1294.7c-0.9,5.5-1.9,11-3.3,16.5c-1.1,4.3-4.2,8.9-4.1,13.3c0,1,1,1.5,1.9,1.1
			c4.1-2,5.7-8.1,6.8-12.2c1.8-6.6,3.1-13.4,4.1-20.1c1.4-10.2,1.1-20.4-2.1-30.1c-1.4-0.9-2.9-1.9-4.3-2.8
			C1258.8,1271.4,1258.2,1283.3,1256.4,1294.7z"/>
		<path class="st2" d="M1273,1276.3c-2,7-3.5,14-6.1,20.9c-1.3,3.5-2.6,6.9-4,10.4c-1.1,2.7-2.5,4.8-1.6,7.7
			c0.2,0.7,0.9,0.9,1.5,0.6c2.9-1.3,3.5-4.2,4.6-7.1c1.5-4.1,2.8-8.1,3.8-12.3c0.9-3.7,1.5-7.4,2.2-11.2c0.6-3.3,1.7-5.8,0.3-9
			C1273.5,1276,1273.1,1276.1,1273,1276.3z"/>
		<path class="st2" d="M1278.6,1141.7c-1.1-5.2-2.8-10.2-4.7-15.2c-0.5-1.3-1-2.6-1.5-3.9c-1-2.8-2.2-5.4-3.7-8s-3.3-5-5-7.4
			c-0.5-0.7-1.1-1.4-1.6-2.1c-5.8-7.7-13-13.7-20.7-19.5c-8.4-6.3-17.6-10.9-27-15.6c-7.8-3.9-15.2-9.3-23-13.4
			c-5.5-3.9-10.5-7.2-15.9-12.3c-0.9-0.9-1.5-0.7-0.7,0.3c7.4,9.1,16.2,17.2,26.3,23.2c10.3,6.2,20.6,12.3,30.3,19.3
			c19.7,14.3,35.4,32.4,43.7,55.5C1275.9,1144.9,1279.1,1144,1278.6,1141.7z"/>
		<path class="st2" d="M1279,1113.9c-3.2-8.2-7.6-15.5-13.7-21.9c-6.4-6.6-13.9-12-21.8-16.6c-8.9-5.2-17.5-10.5-26.9-14.9
			c-0.8-0.3-1.4,0.7-0.7,1.1c16.3,9,32.6,17.9,45.5,31.7c6.1,6.5,11.1,14.8,14.1,23.2c1.5,4.2,4.3,9.5,5.4,13.8
			c0.2,0.6,0.3,1.2,0.4,1.7c0.4-3,0.6-6.1,0.7-9.2C1281.2,1120,1280.2,1116.9,1279,1113.9z"/>
		<path class="st2" d="M1180.6,1017.4c7.7,6.3,17.2,14.9,27.3,16.3c0.4,0.1,0.9-0.3,0.6-0.8c-5.8-7.9-16.5-13.1-24.6-18.3
			c-9.9-6.4-19-13.8-27.9-21.6c-0.9-0.8-2.3,0.5-1.4,1.4C1162.8,1002.5,1171.7,1010.1,1180.6,1017.4z"/>
		<path class="st2" d="M1176.4,1004.4c5.8,4,11.5,8.1,17.1,12.4c11.8,9,23.7,18.1,35.1,27.6c1.2,1,2.8-0.7,1.7-1.7
			c-11.2-9.4-21.9-19.1-33.5-28c-5.8-4.5-11.7-8.8-17.8-13c-1.3-0.9-2.5-1.8-3.8-2.8c6.1,3.1,12.4,6,18.3,9.1
			c9.8,5.2,19.2,10.9,28.3,17.3c8.4,5.9,16.6,12.1,24,19.3c3.4,3.3,6.6,6.8,9.8,10.3c3.1,3.4,5.5,8.1,9.4,10.7
			c0.7,0.5,1.3-0.3,1.2-1c-0.3-1.9-1.1-3.8-2.2-5.6c-2-2.8-4.2-5.7-6.7-8.8c-11.1-13.5-23.8-23.1-36.1-30.8
			c-8.2-5-16.7-9.4-25.2-13.8c-10-5.2-20.2-11.5-30.9-15.3c-0.9-0.3-1.5,0.6-1.3,1.3c-1-0.4-2-0.8-3-1.1c-1.3-0.4-2.2,1.3-1.3,2.2
			C1164.1,997.5,1170.9,1000.7,1176.4,1004.4z"/>
		<path class="st2" d="M1251.6,1057.2c-2.7-3.1-5.6-8.7-9.8-9.5c-0.3-0.1-0.6,0.2-0.5,0.5c0.9,3.7,5.2,6.6,7.7,9.4
			c3.7,4.1,7.1,8.5,10.4,13c2.8,3.9,6,8.2,9.3,11.7c2.4,2.5,1.8,2.8,3.1,4.2c0,0,0.1-0.4-2.3-4.4c-2.8-4.6-6.4-9.5-9.7-13.8
			C1256.9,1064.5,1254.7,1060.7,1251.6,1057.2z"/>
		<path class="st2" d="M1290.5,639c0.1,0.9,0.3,1.8,0.5,2.8c1.3,5.8,2.7,11.5,5,16.9c2.3,5.2,5.4,9.9,8.8,14.4
			c1.6,2.2,3.9,4.4,5.6,6.8c-1.2-2-2.4-3.9-3.5-5.9c-4.6-7.9-8.6-16-12.2-24.4C1293.2,646.2,1291.7,642.7,1290.5,639z"/>
		<path class="st2" d="M1324.7,762.9c0.9,0.2,1.5,0.1,2.1,0.1c-0.6-2.4-1.4-5.3-2.1-7.7c-2.9-10.3-6.6-20.4-10.8-30.3
			c-0.7,0.2-1.4,0.5-2.1,0.6c3.8,8.2,7.3,16.6,9.9,25.1C1322.8,754.6,1323.8,758.8,1324.7,762.9z"/>
		<path class="st2" d="M1328,802.9c0.2,1.2,0.9-1,1.2-2c2-6.9,1-15.5,0.1-22.7c-0.7-0.2-1.4-0.3-2.1-0.4
			C1328.1,785.7,1326.9,795.1,1328,802.9z"/>
		<path class="st2" d="M1300,702c2.1,4.2,4.3,8.4,6.4,12.7c0.8-0.3,1.6-0.5,2.4-0.7c-0.7-1.4-1.4-2.9-2.1-4.3
			c-7.4-15.3-15.7-30.5-20.6-46.9c-4.5-15.1-7.7-34.6-0.2-48.9c0.4-0.8-1-1.4-1.4-0.6c-3.2,6.7-5.7,12.7-6.4,20.1
			c-0.8,7.7-0.1,15.4,1.6,22.9C1283.3,672.8,1292.4,687.1,1300,702z"/>
		<path class="st2" d="M1289.6,625c-0.1-0.7-0.7-1-1.3-0.9c0,0,0,0,0-0.1c-0.1-0.5-1-0.6-1.1,0c-0.9,5.9,0.5,12.3,1.2,18.2
			c0.7,6,1.8,12.1,4.2,17.8c2,4.9,4.8,9.4,8,13.7c2.9,4,6.4,9.7,11,11.8c0.6,0.3,1.4-0.2,1.2-0.9c-0.2-0.7-0.5-1.4-0.8-2.1
			c5.2,8.5,10.6,16.8,15.8,25.3c1.3-0.5,2.7-0.9,4.1-1.3c-5.2-9.1-10.7-18.1-16.1-27c-5-8.3-10-16.6-14.7-25.1
			C1296.1,645.4,1290.5,635.2,1289.6,625z M1310.4,679.9c-1.7-2.4-4-4.6-5.6-6.8c-3.4-4.5-6.5-9.2-8.8-14.4
			c-2.4-5.4-3.8-11.1-5-16.9c-0.2-0.9-0.4-1.8-0.5-2.8c1.2,3.6,2.7,7.1,4.2,10.6c3.6,8.4,7.6,16.5,12.2,24.4
			C1308.1,676,1309.2,678,1310.4,679.9z"/>
		<path class="st2" d="M1335.8,722.1c7,13.6,12.7,27.9,15.2,42.9c1.6,0,3.1,0.1,4.6,0.3c-2.3-12.9-6.9-25.4-12.5-37.2
			c-1.3-2.7-2.6-5.3-3.9-8c-1.3,0.3-2.6,0.6-3.9,1C1335.5,721.5,1335.7,721.8,1335.8,722.1z"/>
		<path class="st2" d="M1352.5,782.8c0,7.9-0.9,15.4-2.3,23.2c-1.6,9.1-2.2,19.5-4.9,28.3c-0.2,0.6,0.8,0.9,1.2,0.3
			c5.1-7.6,6.4-18.6,8-27.4c1.5-7.9,2.4-15.5,2.5-23.5C1355.6,783.5,1354,783.1,1352.5,782.8z"/>
	</g>
	<g id="_x31_4_x5F_Hair_x5F_Pigtails_x5F_back_x5F_Shadows_1_">
		<path class="st1" d="M754.9,1069.6c-11.1,11.4-19,25.4-21.4,41.2c-2.5,16.4,0.3,33,5.8,48.5c0.4,1.2,2.3,0.7,1.9-0.5
			c-5.4-15.3-8.2-31.7-5.7-47.9c1.2-7.4,3.4-14.7,6.8-21.5c1.8-3.5,3.8-6.8,6-10.1c2.2-3.3,4.8-6.2,7-9.4
			C755.5,1069.6,755.1,1069.3,754.9,1069.6z"/>
		<path class="st3" d="M789.2,1031.4c-3.9,5.2-10.2,8.4-16.1,11c-7.5,3.4-15.3,6.4-23,9.4c-16.2,6.3-32.5,12.8-46.9,22.5
			c-13.5,9.1-25.6,21.3-31.6,36.7c-3.1,8-4.5,16.6-4.7,25.2c-0.1,6.4,0.7,12.6,1.4,18.8c7.4,11,14.7,10.5,18.7,9.8
			c0,0-8.9-23.9,4.2-51.5s29.4-39.9,45.2-46.8s50.6-23,56.2-28.7C796.8,1033.7,794.2,1031.8,789.2,1031.4z"/>
		<path class="st1" d="M831.9,1052.8c6,7.9,12.7,15.4,19.6,22.5c0.5-0.3,1.1-0.7,1.6-1c-6.6-7.3-13.5-14.4-19.5-22.2
			c-3.2-4.2-6.3-8.5-9.1-13c-2.4-3.8-4.3-7.9-6.3-11.9c4.6-0.6,8.6-1.5,11.9-2.3c-2-1.3-3.8-2.3-5-3.1c-7.5-4.8-6.6-0.5-17.6-1.5
			s-22.2-2.3-22.2-2.3s-3.8,6.6-14.8,13c-6.1,3.5-19.5,9.2-34,16.1c17.2-6.6,40-15.1,45.5-15.6c1.3-0.1,2.5-0.2,3.7-0.2
			c-14.2,10.1-31.3,15.2-47.4,21.7c-15.3,6.2-30.3,13.1-43.4,23.4c-11.8,9.2-21.8,21-26.9,35.2c-2.9,7.9-4.1,16.3-4.3,24.6
			c-0.1,3.4-0.1,7,0.1,10.6c-6.4-13.9-8-21.6-2.7-39.1c-1.9,3.6-3.7,7.4-5.3,11.5c-9.4,24.2,4.8,48,12,56.2s22.2,14,22.2,14
			s5.3-4.1,14-10.7c-20.7-37-3.6-81,16.8-96.1c21.4-15.9,42.9-22,42.9-22c-0.3,0.5-0.6,1-0.9,1.5c-3.5,1.8-7,3.9-10.4,5.8
			c-3.7,2.1-7.2,4.3-10.5,6.9c-6.5,5.1-12.2,11.3-16.7,18.2c-9.5,14.3-13.5,31.6-10.8,48.6c1.3,8.1,4.1,15.9,8.2,23
			c0.5-0.4,1.1-0.8,1.6-1.2c-7.6-13.2-10.4-29-7.8-44.1c2.7-15.9,11.3-30.5,23.5-41.1c3.7-3.2,7.8-6,12-8.5c3.1-1.9,6.5-3.5,9.7-5.4
			c-3.6,4.5-6.9,9.2-8.6,14.7c-2,6.6-2.9,14-3.1,20.9c-0.2,6.8,1.1,13.5,3.5,19.9c1.2,3.1,2.6,6.2,4.1,9.2c1.2,2.4,2.4,4.9,3.8,7.2
			c0.6-0.4,1.2-0.9,1.8-1.3c-2.3-4.8-5.2-9.4-7.2-14.4c-2.5-6.3-4-12.9-3.9-19.7c0-6.7,0.8-13.6,2.4-20.1c1.2-4.6,3.2-8.5,5.7-12.4
			c-5,14.4-6.4,36.7-1.2,50.6c2.4,6.4,4.6,11.1,6.5,14.4c3-2.1,5.9-4.2,8.9-6.4c-6.6-11.3-9.9-27.2-10.6-38.8
			c-0.7-13.2,7.1-32,7.1-32s1.3-0.7,4.2-2.4c-2.3,5.1-3.6,11-4.7,16.4c-1.3,6.4-2,12.9-1.7,19.4c0.3,6.4,1.5,12.7,3.6,18.7
			c1.8,5.1,3.8,10.6,6.5,15.4c0.6-0.4,1.2-0.9,1.8-1.3c-2.1-4.7-4.7-9.2-6.5-14.2c-2.2-6-3.6-12.3-3.9-18.7
			c-0.4-6.4,0-12.9,1.2-19.2c0.6-3,1.3-5.9,2.1-8.8s2-5.7,2.9-8.6c0.5-0.3,0.9-0.5,1.5-0.8c-0.6,2.4-0.7,4.9-1,7.2
			c-0.4,3.3-0.6,6.5-0.6,9.8c0,6.1,1,11.9,2.3,17.9c2.3,10.1,6.1,19.9,11.3,28.9c0.5-0.4,1.1-0.8,1.6-1.1c-5-8.7-8.4-18.1-11.2-27.8
			c-1.7-5.8-2.9-11.7-2.8-17.8c0-2.9,0.2-5.9,0.5-8.8s1-5.9,1-8.9c3-1.7,6.9-4,11.9-6.9c5.7-3.3,9.2-6.7,11.4-9.5
			c-1.6,7.6-2.7,15.3-2.7,23.3c0,5.5,0.6,11,1.7,16.4c1.1,5.4,2.2,11.8,5.3,16.4c0.1,0.2,0.4,0.1,0.4-0.2c-0.7-5.5-3-10.8-4-16.2
			c-1.1-5.7-1.6-11.5-1.7-17.3c-0.1-5.7,0.3-11.3,1.2-16.9c0.5-2.9,1.3-5.7,2-8.6c0.2-0.3,0.3-0.6,0.4-0.8c0,3-0.1,6.1,0,9.1
			c0.3,5,0.9,9.9,1.8,14.8c0.9,5,2,10,3.4,14.9c0.7,2.5,1.4,4.9,2.1,7.3c0.7,2.3,1.2,4.8,2.4,6.9c0.2,0.4,1.1,0.3,1-0.3
			c-0.5-4.7-2.6-9.4-3.8-13.9c-1.3-4.9-2.5-9.9-3.4-14.9c-0.9-5.2-1.6-10.5-1.8-15.8c-0.2-3.8,0.2-7.7-0.2-11.5
			c0.8,0,1.5-0.1,2.3-0.1c5.3,20.8,14.3,40.3,24.7,59.1c0.5-0.4,1.1-0.7,1.6-1.1c-4.9-9-9.8-18-14-27.3c-2.4-5.4-4.6-10.9-6.4-16.5
			c-1.5-4.7-2.9-9.6-4.5-14.3c2.6-0.2,5.1-0.4,7.5-0.7C820.4,1036.6,826.1,1045.2,831.9,1052.8z M792.8,1037.8
			c-5.6,5.8-40.4,21.9-56.2,28.7s-32.1,19.2-45.2,46.8s-4.2,51.5-4.2,51.5c-4,0.7-11.3,1.2-18.7-9.8c-0.6-6.3-1.5-12.5-1.4-18.8
			c0.2-8.6,1.6-17.2,4.7-25.2c6-15.3,18.1-27.5,31.6-36.7c14.4-9.8,30.8-16.2,46.9-22.5c7.7-3,15.4-6,23-9.4
			c5.9-2.6,12.1-5.7,16.1-11C794.2,1031.8,796.8,1033.7,792.8,1037.8z"/>
		<path class="st3" d="M873.6,1226.7c0-0.2,0-0.3,0-0.5C873.6,1226.4,873.6,1226.5,873.6,1226.7L873.6,1226.7z"/>
		<path class="st1" d="M922.5,1213.6c5.4-13,9.8-30.4,10.7-50.9c-1.6,5.2-3.9,12.6-7,20.9c0.6-10.4,0.6-21,0-31.4
			c-0.5-9.5-1.8-19.3-4.6-28.4c-1.7-5.5-4.1-13.1-8-18.2c-0.5,0.5-1,1-1.5,1.6c1.2,2,2.6,4,3.6,6c2,4,3.4,8.4,4.6,12.8
			c2.3,8.2,3.2,16.6,3.5,25c0,1.4,0,2.9,0.1,4.4c0.1,5.4-0.1,10.7-0.4,16.1c-1.1,5.3-2.9,10.5-4.5,15.7c-1.9,6.1-3.8,12.2-6.2,18.1
			c-1.3,3.1-2.7,6.1-4.3,9c-0.7,1.3-5.2,8.9-7.5,7.2c0.4-1.7,0.9-3.3,1.2-5c2.2-9.6,4.2-19.9,4.8-29.7c0.7-10.5-1.2-21.1-3.9-31.2
			c-2.5-9.5-5.7-18.9-9.8-27.9c-0.5,0.6-1,1.1-1.5,1.7c7.5,17.7,14,38.3,12.6,57.4c-0.5,7.4-2.2,14.7-4.1,22c-0.7,1.9-1.3,3.8-2,5.7
			c0.9-4.3,1.3-8.8,0.9-13.3c-1.5-21-6.7-43.1-15.7-62.1c-0.3,0.4-0.6,0.8-1,1.1c6.8,17.6,12.4,35.5,13.6,54.4
			c0.7,10.3-0.7,19.6-4,29.3c-2.3,6.9-4.2,15.9-10,20.6c-0.7,0.4-1.3,0.7-2,1c-5.4-0.9-4.7-9.9-4.5-14.6c0.2-4.9,0.3-9.7,0.3-14.6
			c0-2.5-0.1-4.9-0.3-7.4c0.2-8.6-0.7-17.3-1.8-25.8s-3.5-16.4-6.1-24.4c-0.2,0.2-0.3,0.4-0.5,0.7c3.5,13.1,5.1,26.6,5.7,40.2
			c0.3,8.1-0.3,16-2.2,23.9c-0.8,3.6-1.8,7.1-3,10.5c-0.7,2.2-1,4.9-3.2,6.2c-1.5,1.7-2.8,1.3-3.9-1.4c-0.1-0.2-0.2-0.3-0.3-0.5
			c-0.4-4.9-2-10.2-2.6-12.2c-2.2-6.7-4.5-13.4-7.3-19.8c-1.4-3.1-2.9-6.1-4.4-9.1c-0.8-1.5-1.5-3.1-2.1-4.7c-0.5,0.7-0.9,1.4-1.3,2
			c0.4,1,0.9,1.9,1.3,2.9c2.3,5,4.7,9.9,6.7,15c1.8,4.7,3.5,9.5,4.9,14.3c0.6,1.8,4.8,17.3-0.2,18.1c-0.4-2.3-4.8-25-17.4-43.1
			c-4.5,7.1-6.8,11.2-6.8,11.2c11.8,19.8,9,37.5,9,37.5c9.2,6,26.2,17.9,26.2,17.9C889.1,1260.6,914.9,1232,922.5,1213.6z
			 M873.6,1226.7L873.6,1226.7c-0.1-0.2,0-0.3,0-0.5C873.7,1226.4,873.6,1226.6,873.6,1226.7z"/>
		<path class="st3" d="M1239.8,1287.2c3.4,13.9,1.6,29.3-3.2,37.4c8.4-6.6,13.2-16.7,13.1-27.9c-0.2-16.1-8.7-30-20.1-40.9
			c-11.1-10.7-24.8-18-37.6-26.5c-2.6-1.7-5.1-3.6-7.5-5.5c2.3,2.3,4.8,4.8,7.7,7.5C1218.8,1256,1235.8,1270.9,1239.8,1287.2z"/>
		<path class="st1" d="M1238.8,1329.6c0.1,0,0.2,0,0.4,0c0-0.1,0-0.2,0-0.3C1239,1329.5,1238.9,1329.6,1238.8,1329.6z"/>
		<path class="st1" d="M1226,1348.8c29.2,0.1,49-13.9,57.2-33.5c4.2-10.1,4.1-19.6,3-26.4c-1.2,2.6-2.8,6.2-5,10.2
			c-0.9-1.1-1.7-2.4-1.9-3.8c1.2-6,1.8-12.2,1.9-18.3c-0.6-0.4-1.4-0.9-2.3-1.5l0,0c-2,9.6-3.9,19.2-7.1,28.5
			c-1.5,4.3-3.3,8.5-5.5,12.5c-1.3,2.3-2.9,4.4-4.4,6.5c-0.4,0.2-0.7,0.5-1.1,0.7c-1.5,1-3,1.8-4.4,2.5c0.2-0.4,0.4-0.8,0.6-1.2
			c2.8-6.7,4.9-14,6.5-21c2.5-11.3,4.6-24.4,3.1-36.4c-1-0.6-2-1.3-3-1.9c0.3,4.4,0.6,8.7,0.5,13.1c-0.2,7-0.9,14.1-2.6,21
			c-1.6,6.8-3.8,13.6-7.1,19.8c-1.5,2.7-3,5.7-5,8.1c-0.5,0.6-1.1,1.2-1.7,1.7c-1.6,0.3-3,0.5-4.4,0.6c-0.4-0.6-0.8-1.2-0.9-2.1
			c0-0.2,0-0.4,0-0.6c0-0.3,0.1-0.6,0.1-0.9c5.7-6.2,9.2-14.5,10.2-22.9c1.7-14.1-4.4-28.6-12.9-39.5c-10.1-12.9-23.9-22.2-37.6-31
			c-7.3-4.7-14.7-9.4-21.3-15.1c-3.1-2.6-5.8-5.5-8.4-8.6c-1.2-2-2.2-3.9-3-5.7c2.5,2.8,5.4,5.4,8.1,7.7
			c6.8,5.7,13.6,11.1,21.2,15.9c1.4,0.9,2.6-1.3,1.3-2.2c-12.7-8.9-24-19.5-33.1-32c-0.1-2.1-0.1-4.3,0.1-6.7
			c-14.6-17.4-26.3-33.3-26.3-33.3s1.3,4.2,5.3,18.9c4.1,14.8,14.3,61.7,14.3,61.7c16,5.4,33.5,26.9,42.8,45.8s11.9,47.1,2.8,51.5
			s-14.9-1.8-16.8-5.8s0.6-7.4-1.2-6.5s-6.2,4.9-2,12.5S1196.8,1348.6,1226,1348.8z M1238.8,1329.6c0.1-0.1,0.2-0.2,0.3-0.3
			c0,0.1,0,0.2,0,0.3C1239,1329.7,1238.9,1329.7,1238.8,1329.6z M1192.2,1231.2c-2.9-2.7-5.4-5.1-7.7-7.5c2.4,1.9,4.9,3.8,7.5,5.5
			c12.7,8.6,26.4,15.8,37.6,26.5c11.4,10.9,19.9,24.8,20.1,40.9c0.2,11.2-4.6,21.4-13.1,27.9c4.8-8.1,6.6-23.5,3.2-37.4
			C1235.8,1270.9,1218.8,1256,1192.2,1231.2z"/>
		<path class="st1" d="M1281.4,1132.5c-0.4-1.1-0.8-2.3-1.2-3.4c-2.2-6.4-4.9-12.8-8.2-18.8c-1.9-3.5-4.1-6.7-6.5-9.7
			c-2.1-6.3-9.7-11.5-14.6-15.3c-6.8-5.3-14.2-9.7-21.7-13.9c-10.5-5.7-21.3-10.8-31.6-16.7c-9.6-6.1-18.5-13-26.5-21.4
			c-10.5-11-18.2-23.6-25.9-36.5c1-0.2,2-0.5,3-0.9c5.2,6.6,11.7,12.5,17.7,18.3c3.4,3.3,6.8,6.7,10.4,9.9c2.7,2.4,5.5,5.4,9.1,6.5
			c0.4,0.1,0.9-0.4,0.6-0.8c-2.1-3.5-6.4-5.8-9.5-8.3c-3.3-2.6-6.5-5.3-9.6-8.1c-6.1-5.6-11.3-12-17-17.9c4.8-1.9,9.3-4.8,12.7-8.2
			c-2.9-1.2-4.5-1.8-4.5-1.8c-3.5,2.1-6.5,2.1-20.5,4.9s-15.8-0.6-15.8-0.6c-1.2,2.3-5.4,5.5-12.4,10.2s-7.2,7.1-7.2,7.1
			s8.3,8.9,21.1,23.6c-0.3-22.9,11.7-33.3,11.7-33.3c0.6,0.1,1.2,0.2,1.8,0.2c-1.1,9.4-1.1,18.9-0.1,28.4c0.8,7.6,1.9,15.7,4.2,23.1
			c1.2,1.1,2.4,2.3,3.6,3.4c-2.1-9.5-4.7-18.6-5.7-28.4c-0.8-8.2-0.8-16.4-0.5-24.6c1,11.4,2.8,22.8,5.6,33.9
			c1.6,6.4,3.5,12.8,5.8,19c0.8,2.3,1.6,4.7,2.5,7.1c2.4,2.2,5,4.5,7.5,6.8c-1.8-5-4.4-9.9-6.2-15c-2.1-6-4-12-5.6-18.1
			c-3.1-11.7-5.3-23.7-6.4-35.8c0.2,0,0.4,0,0.6-0.1c5.4,14,11.3,27.7,19.3,40.5c8.2,13.2,18.6,24.3,30.7,33.9
			c23.4,18.5,53.1,34.9,60.6,65.7c1.1,0.7,2.2,1.3,3.3,1.9c-5.8-29.5-33.5-47.3-55.9-64c-13.7-10.2-25.8-21.4-35.2-35.8
			c-5.2-8-9.6-16.6-13.6-25.3c10,16,24.5,29.7,39.4,40.4c23.8,17.1,55.2,26.3,73.1,50.7c4.8,6.6,8.6,13.8,11.5,21.4
			c1.8,4.8,3,9.9,4.5,14.8C1280.4,1138.9,1281,1135.7,1281.4,1132.5z"/>
		<path class="st1" d="M1279.1,1092.6c-1.9-4.2-4.1-8.3-6.5-12.2c-2.3-3.7-4.8-7.3-7.6-10.7c-2.5-3-5.6-7.5-9.5-8.7
			c-0.2-0.1-0.5,0.2-0.4,0.4c1.4,3.5,5.2,6.1,7.4,9.2c2.8,3.8,5.3,7.9,7.5,12.2c0.7,1.4,1.4,2.8,2.1,4.2c-2.8-3.5-5.7-6.8-8.7-9.8
			c-7-7.2-14.5-13.7-22.7-19.5c-8.1-5.7-17.6-13.2-27.3-15.7c-0.3-0.1-0.6,0.3-0.3,0.5c6.7,6,15.6,9.6,22.9,14.9
			c8.3,6,16.4,12.8,23.3,20.4c6.6,7.2,12.3,15.1,16.9,23.8c2.4,4.6,4.3,9.2,6,13.9c-0.1-5-0.6-9.5-1.2-13
			C1280.3,1099.5,1279.9,1096.2,1279.1,1092.6z"/>
		<path class="st1" d="M1165.5,1023c11.7,11.6,24.8,21.6,39.2,29.6c15.1,8.4,32,13.5,46.3,23.4c7.6,5.3,14.2,11.6,18.7,19.8
			c0.1,0.1,0.3,0,0.2-0.1c-6.5-14.8-21.1-23.8-35.1-30.5c-8-3.8-16.1-7.1-23.9-11.1c-7.6-3.9-14.9-8.1-22-12.8
			c-8.3-5.4-16.1-11.5-23.2-18.4C1165.5,1022.8,1165.4,1022.9,1165.5,1023z"/>
		<path class="st1" d="M1329,763.7c0.8-0.1,1.6-0.1,2.4-0.1c-0.1-0.4-0.2-0.7-0.3-1.1c-3.3-13.2-8.3-26-13.6-38.5
			c-0.4,0.1-0.9,0.2-1.3,0.4c4.7,10.8,8.6,21.8,11.5,33.2C1328.2,759.7,1328.6,761.7,1329,763.7z"/>
		<path class="st1" d="M1185.2,936.1c32.3-17.3,61.8-40.8,86.6-67.8c12.1-13.1,22.8-27.5,31.2-43.3c7.5-14.1,15.6-31.6,16-48.1
			c-7.8-0.7-15.5-1.2-23.7-0.5c-3.4,16.9-13.5,36.2-33.7,60c-30.3,35.7-68.9,52.7-110.9,74.1c-42,21.4-86.9,35.3-86.9,35.3
			s6.1,4.7,18.6,10.4c-3.4-2.6-6.4-5.6-9-9c-0.6-0.8,0.7-1.8,1.4-1.1c6,6.8,13.7,10.8,21.6,15c4.6,2.4,9.2,4.9,13.9,6.9
			c1.7,0.7,3.5,1.2,5.3,1.8c0.2-0.1,0.5-0.1,0.7,0c2.5,1.1,2-1.7,1.2-2.9c-0.1-0.2-0.3-0.4-0.4-0.7c-0.7-0.5-1.3-0.9-1.8-1.2
			c-9.2-6.2-18.9-11.5-28.4-17.2c-0.6-0.4-0.2-1.4,0.5-1.2c6.7,2,13.9,5.3,20,8.7c3.4,1.9,6.7,4,9.9,6.2c0.5,0.4,3.5,2.6,6.3,4.2
			c0.1,0,0.1,0,0.2,0c0.2-1.2,0.5-2.3,0.8-3.4c-3.2-5.2-5.7-10.5-10.7-14.5c-0.7-0.5,0.3-1.5,1-1c5.6,4.4,9.2,10.3,13.5,15.7
			c1.5-0.1,2.3-0.7,2.3-1.7c-1-2.8-1.7-5.8-2.5-8.1c-1.2-3.5-2.7-6.9-4.8-10.1c-1.3-2.1-3-3.5-3-6c0-0.2,0.2-0.5,0.4-0.5
			c4.8,0.3,8,8,9.6,11.8c1.3,3.1,2.2,6.4,3.4,9.6c0.4,1.1,0.9,2.2,1.4,3.2c0.7,0.4,1.5,0.3,2-0.2c0.1-0.8,0.1-1.9,0.1-2.2
			c0.1-0.6,0.2-1.2,0.4-1.8c-0.1-1-0.1-2-0.1-3c0.1-3.2,0.3-6.4,0.8-9.5c0.3-1.7,0.6-3.4,1.2-4.9c0.3-1,2-3.3,1.7-4.2
			c-0.1-0.2,0.1-0.3,0.3-0.2c2.5,1.3,0,7.3-0.4,9.3c-0.8,5.3-2.3,12-0.4,17.2c0.4,0.2,0.5,0.2,0.9,0c0.6-0.3,0.9-0.9,0.8-1.6
			c0-0.3,0.1-0.5,0.4-0.6c0.2-1.1,0.5-2.2,0.8-3.2c2.5-7.2,8.5-13.2,14-18.2c24.8-22.5,54.2-39,78.5-62.3c11.8-11.4,23-23.5,33-36.6
			c9.6-12.6,17-26.3,25.8-39.4c0.4-0.6,1.5-0.2,1.2,0.5c-6.1,14.5-16.1,28.2-25.4,40.8c-17.1,23.1-37.3,43.5-60.3,60.8
			c-13.2,9.9-26.9,19.1-39.7,29.4c-5.8,4.7-11.8,9.4-16.8,14.9c-3.5,3.8-9.9,11-9.1,16.9c1.2,0.6,2.9,0.5,4.1-0.1
			c3.3-4.8,8.2-8.8,12.6-12.1C1169,944.7,1177.2,940.4,1185.2,936.1z"/>
		<path class="st1" d="M1326.2,839.5c8.8-23.2,9.7-39.3,8.9-49c0-3.7-0.3-7.4-0.7-11.2c-1.2-0.3-2.4-0.5-3.6-0.9
			c0.3,5.5,0.4,11,0.2,16.6c-1.9,9.6-5,16.5-5,16.5s1.4-8.9,1.2-29.8c0-1.2-0.1-2.5-0.1-3.8c-1.9,0-3.8-0.7-5.6-0.8
			c0.5,17.4-5.6,35.4-13.6,50.6c-16.6,31.6-42.5,57.6-69.8,79.9c-15.2,12.4-31.2,23.5-48.5,32.8c-7.4,4-14.9,7.9-21.8,12.6
			c-2.9,2-5.4,4.2-7.8,6.5c5.3-3.1,11.4-5.5,16.2-7.8c4.6-2.2,9.3-4.4,13.8-6.8c4.5-2.5,8.4-5.6,12.8-8.1c0.6-0.3,1.4,0.4,0.9,1
			c-5.4,7.5-15.6,12-23.8,15.8c-4.9,2.3-9.8,4.5-14.5,7.1c-3.3,1.8-6.2,4.1-9.3,6.1c0.4,0.5,0.8,1,1.2,1.5c2.2,1.2,2.7,2.4,2.7,2.4
			c20.6-10.7,96.9-49.5,113-60.3C1291.9,897.8,1310.5,881.2,1326.2,839.5z"/>
		<path class="st1" d="M1310.7,712.5c0.5-0.2,1-0.3,1.6-0.5c-5.2-11.6-10.6-23.1-16-34.7c3.2,4.2,6.9,8.1,9.7,11.4
			c5.7,6.6,10.8,13.6,15.1,20.9c0.8-0.2,1.5-0.5,2.3-0.7c-3.1-5.7-6.5-11.2-10.6-16.1c-4.3-5.2-8.9-10.1-13.1-15.4
			c-2.5-3.1-4.8-6.3-6.7-9.7c-1.7-3.1-2.5-6.5-4.2-9.6c-0.2-0.3-0.5-0.3-0.7-0.2c-3-8.7-5.1-17.6-5.3-26.8c0-0.9-1.5-1-1.5,0
			c0.4,29.5,16.5,55.2,29.2,80.9C1310.6,712.2,1310.7,712.4,1310.7,712.5z"/>
		<path class="st1" d="M1343,763.9c-2.3-11.5-5.7-22.6-10-33.6c-1.2-3-2.4-5.9-3.7-8.9c-0.6,0.1-1.2,0.2-1.9,0.3
			c1,2.2,2,4.3,2.9,6.6c4.6,11.5,7.9,23.4,10.6,35.5C1341.6,763.9,1342.3,763.9,1343,763.9z"/>
		<path class="st1" d="M1326.4,868.4c4.7-5.4,8.8-10.7,12.2-15.9c2.5-6.6,4.7-13.4,6.3-20.3c3.9-16.7,4.6-34.2,1.1-51
			c-0.6-0.1-1.2-0.2-1.8-0.3c0.7,5.3,1.1,10.8,1.2,16c0,4.4-0.2,8.7-0.3,13.1c-0.6,7.4-1.8,14.8-3.6,22.1c-2.3,9-5.4,17.9-9.5,26.2
			C1330.3,861.9,1328.4,865.2,1326.4,868.4z"/>
		<path class="st1" d="M590.7,900.9c19.8-18.9,50.3-33.3,71.6-43.6c-2.2-2.3-4.3-4.6-6.3-6.7c-6.5-5.4-13-10.3-13-10.3
			s-8.2,14.8-26,26.7c-13.1,8.7-24.8,22.5-30.1,29.3L590.7,900.9z"/>
		<path class="st1" d="M773.2,984.6c-4.1-2.6-8.7-4.7-13-7c-9.4-5-18.8-10-28.7-13.9c-1-0.4-0.5-2,0.4-1.6
			c10.3,4.3,20.6,8.5,30.3,14c5.2,2.9,10.1,6.3,15.2,9.2c0.3,0.1,0.5,0.3,0.8,0.5c-3.3-4-6.8-7.9-10.8-11.3
			c-7.3-6.2-16.4-10-24.9-14.2c-17.1-8.3-36.6-12.3-52.4-23.4c-1-0.7-0.1-2.3,1-1.7c9.7,5.2,19.6,9.3,30,13c8.7,3.1,17.6,5.6,26,9.3
			c15.3,6.7,27,18.2,35.9,31.9c0.1,0,0.2,0,0.3,0.1c0.6,0.3,1.3,0.6,2,0.6c-2.1-4.4-4.1-8.9-6.4-13.2c-3.4-6.2-6.3-12.7-9.8-18.8
			c-3.9-6.9-8.5-12.9-13.6-18.9c-2.5-3-5.2-5.7-7.9-8.6c-3.1-3.4-5.8-7.4-8.9-10.8c-0.1-0.1-0.1-0.2-0.1-0.3
			c-0.1-0.1-0.2-0.1-0.4-0.2c-9.3-4.3-24.2-15.8-39.8-29c-6.3-5.3-12.8-10.8-19.2-16.6c-1.8-1.7-3.6-3.3-5.4-4.9
			c-24.1,12.9-48.5,31-67.4,51.2l5.1,6.1c2.2,1.8,4.2,3.5,6.2,5.1c6,4.8,12.4,9.5,18.8,13.8c21.6,14,30.4,12.2,46.3,19.2
			c20.9,9.3,38.1,13.8,53.7,18.5c15.1,4.5,27.5,8.6,35.4,14.3c0.4-0.2,0.8-0.4,1.2-0.6c-5.1-2.9-12.7-7-21.6-11.1
			c-16.4-7.6-46.2-10.5-69.7-23.3s-45.7-29.8-53.2-37.5s-7.7-11.2,1.8-2.3s30.3,24.5,48.7,31c18.3,6.5,48,14.4,67.2,22.8
			c17,7.5,29.4,12.1,36.5,17.5c0.4-0.1,0.9-0.1,1.3-0.2c-0.1-0.2-0.3-0.4-0.4-0.5C780.4,989.8,776.8,986.9,773.2,984.6z"/>
		<path class="st1" d="M937.4,962.3c-2.2,1.9-11.9,10.1-26.4,18.3c0,0,16.5-4.1,29.4-11.4c3.3-2.3,6.5-4.7,9.7-7.1
			C949.2,962.2,944.7,962.4,937.4,962.3z"/>
		<path class="st1" d="M762.6,930.3c0,0.1,0.1,0.1,0.1,0.2c1.5,0.7,3.1,1.4,4.6,2.1c-0.1-0.1-0.2-0.3-0.3-0.4
			C765.6,931.5,764.1,930.9,762.6,930.3z"/>
		<path class="st1" d="M738.6,919.5c0.8,0.5,1.6,0.9,2.4,1.4h0.1c-0.2-0.2-0.4-0.4-0.6-0.6C739.8,920.1,739.2,919.8,738.6,919.5z"/>
		<path class="st1" d="M755.6,927.3c-3.9-1.5-9-3.2-14.6-6.3c2.9,2.5,5.9,4.8,8.7,7.5c3.2,3.1,6.5,6.1,9.7,9.2
			c5.1,4.9,9.3,10.6,12.8,16.7c3.5,6,6.6,12.3,9.3,18.8c0.1,0.1,0.1,0.3,0.2,0.4c-0.8-4.8-2-9.5-3.7-14.1
			c-3.9-10.3-9.7-19.6-15.3-29c-0.9-0.4-1.7-0.8-2.6-1.2C758.6,928.6,757.1,927.9,755.6,927.3z"/>
		<path class="st1" d="M937.9,961.9c-1.8,0-3.8,0-6-0.1l0,0c0,0-0.2,0.1-0.6,0.4c2.2,0,4.3,0,6.2,0.1
			C937.7,962.1,937.9,961.9,937.9,961.9L937.9,961.9z"/>
		<path class="st1" d="M841.8,954.2c-6.4-1.2-12.5-2.5-18.4-3.9c-19-4.3-38.3-10-56.1-17.8c5.4,7.6,10.4,15.7,13.9,24.3
			c2.1,5.1,3.6,10.5,4.4,16c0.5,3.6,1.4,7.9,0.8,11.7c0,0.1,0.1,0.2,0.1,0.2c1.4,2.5,3.1,4.8,4.7,7.1c-0.1-7.5-0.2-14.9-0.3-22.4
			s-0.9-15.8,0.4-23.2c0.2-1.2,2-1.1,2.3,0c1.9,7.3,1.6,15.7,2,23.2c0.2,5.3,0.4,10.6,0.6,15.8c6,11.6,20.3,3.2,27.4-3.6
			c6.8-6.5,13-15,15.9-24c0.8-2.4,4.3-1.4,3.8,1c-1.3,6.8-4.8,11.4-9.3,16.4c-4.7,5.2-8.7,11.1-14.4,15.3c-0.8,0.6-1.7,1.2-2.6,1.7
			c-0.5,1.2-1,2.4-1.5,3.5c5.7-4.2,10.9-9,16.9-12.9c7.5-4.9,13.8-10.9,18.6-18.3c0.7-1.1,2.8-0.4,2.3,1c-3.2,8.2-8.5,14.8-16,19.5
			c-4.3,2.7-8.6,5.2-12.6,8.3c-0.7,0.9-1.4,1.8-1.9,2.8c-0.4,0.7-1.2,2.2-0.4,3c0.5,0.5,1.3,0.5,2.1,0.5c4.1-1.4,8.2-3.8,11.5-5.1
			c6.7-2.7,13.6-5.1,20.2-8.1c5.8-2.6,11.4-5.6,16.6-9.3c5.1-3.7,9.3-8.1,14-12.2c0.7-0.6,2,0,1.7,1c-4.3,13.2-19.4,21-31.2,26.1
			c-4,1.7-8,3.2-12,4.7c-3,1.5-6,3.1-8.9,4.8c-0.2,0.1-0.4,0.3-0.7,0.4c-0.7,0.9-1.1,1.9-0.3,2.7c0.9,0.9,3.3,1.1,4.5,1.2
			c1.7,0.1,3.6-0.1,5.4,0.2c18.2-5.1,41.5-15.8,57.1-25.3c18.7-11.3,26.6-16.7,28.7-18.2c-14.1-0.2-35-1-58.7-3.8
			C862.2,957.4,851.7,956,841.8,954.2z"/>
		<path class="st1" d="M1274.7,648.7c-2.4,17.8-4.8,35.8-6.3,46.8l0,0c0.3,1.5,0.7,3,1.4,4.5c3.2,5.8,11.1,14.3,15.7,22.7
			c7.5-3.3,14.1-6,20.6-8.4c-1.8-3.4-3.7-6.6-5.6-9.8C1289.5,686.4,1280.2,671.1,1274.7,648.7z"/>
		<path class="st1" d="M1292.7,740.2c0.3,1.2,0.7,2.4,1,3.5c0.8,2.5,1.4,5,1.9,7.5c0.9,4.1,1.5,8.4,1.7,13.2
			c10-0.7,18.9-1.2,27.6-1.3c-2.7-11.8-7.3-25-13.2-37.6c-7,1.8-14,4.1-21.7,7.3C1290.5,734.4,1292.1,738.3,1292.7,740.2z"/>
	</g>
	<g id="_x31_4_x5F_Hair_x5F_Pigtails_x5F_front_x5F_Main_Asset_1_">
		<path class="st0" d="M599.1,894c39.9-44,40.9-50,91.6-84.3c50.7-34.3,80-65.9,97.3-112.7s17.8-90.3,14-141s-14.5-82.3-14.7-91
			s-1.2-22,44.3-50.3s100.2-42.3,162.3-30.3s85.5,35.7,90.6,37.7s13-4.6,32.5-10.6c16.2-5,59.2-6.4,101.7,11
			c28.8,11.8,37.5,25.2,49.6,49c5.3,10.4,8.1,24.1,9.4,38c4.4,47.8,0,127.6,0,127.6s13.2-27.7,28.3-67.1c9-23.5,13.8-47.6-15.6-92.5
			c0,0-0.2-125.8-61.7-160.7c-60.7-34.4-169.5-19.9-180.8,9.9c0,0-29.7-47-79.3-69c-49.7-22-90.7-38-159.7,3.7S706.8,354.7,693,384
			c0,0-34.2,32-68,38s-31.7-21.4-29.8-46.7c0,0-15.5,18.9-29.8,49.4s-22,85.2-24.7,138.3c-2.7,53.2,9.3,166.2,30.7,209
			c0,0-16.5,20.8-20,39s-1.6,23.5-1.6,23.5s16.9-10.9,35.5-17.1s28.8-7.2,29.8-5.5s1,5.8-0.6,10.2c-1.7,4.3-13.7,7.1-25.4,13
			c-11.7,5.8-31.2,20.5-31.2,20.5s1.7,12.4,10.8,25.7s18.6,23.2,18.6,23.2L599.1,894z"/>
	</g>
	<g id="_x31_4_x5F_Hair_x5F_Pigtails_x5F_front_x5F_Highlights_1_">
		<path class="st2" d="M869.1,243.1c17.3,0.8,34.3-2.3,51.9,0c16.7,2.2,11.2-1.9,44.5,19.8c26.6,17.3,49.3,41.5,65.8,67.6
			c1.3,2,4.4,0.2,3.2-1.9c-8.1-14-18.6-26.4-30.2-37.7c-9-8.7-18.7-17.4-28.9-24.9c14.7,8.5,27.6,20.3,38.9,33
			c11.9,13.3,22.9,27.1,33,41.8c4.8,6.9,9.3,15.9,13,23.4c2.1,4.3,1.8-2-1.7-7.9c-7.2-12.4-17.6-25.9-26.4-37.2
			c-9-11.4-20.5-22-28.8-34c-5-7.2-9.3-12.1-13.5-15.9c-6.6-4.3-13.7-8.2-21.2-11.5c-13.6-6-26.5-11.6-39.6-15.7
			c-0.1,0-0.2-0.1-0.3-0.1c-0.6-0.2-1.1-0.4-1.7-0.5c-0.3-0.1-0.6-0.2-0.9-0.3c-1.9-0.6-3.9-1-5.8-1.4c-8.3-1.6-16.6-1.4-25.1-1
			c-8.8,0.4-17.8,0.4-26.5,1.6C867.1,240.5,867.6,243,869.1,243.1z"/>
		<path class="st2" d="M1014.2,320.9c-13.6-14.6-29.1-27.1-44.2-40c-0.6-0.5-1.4,0.3-0.8,0.8c14.3,12.5,26.9,26.6,40.2,40.2
			c6.4,6.6,12.4,13.5,18.8,20.1c3.5,3.7,6.9,7.3,9.8,11.5c2.6,3.8,2.5,2.8,4.9,6.7c0.6,0.9-3.5-7.2-4-8.2c-1.2-2.4-0.8-2.8-5.8-9.5
			C1027.3,334.9,1020.7,327.9,1014.2,320.9z"/>
		<path class="st2" d="M1040.4,370.6c0.1,0,0.1,0.1,0.1,0.1c0.4,0.3,0.9,0.3,1.3,0.3c1.3,0.3,2.6-2.3,1.5-3l0,0
			c-2.8-4.4-7.6-7.8-11.7-11.1c-4.4-3.5-9-6.7-13.5-10c-4.7-3.4-9.1-7.1-14-10.3c-4.3-2.8-8.3-6-13.5-6.6c-0.5-0.1-0.6,0.6-0.4,0.9
			c3.2,3.9,8,5.8,12.3,8.5c5.1,3.2,10.2,6.1,14.9,9.8c4,3.2,7.8,6.8,11.5,10.4c0.3,0.3,0.6,0.6,0.9,0.9c-3.7-1.7-7.5-3.3-10.9-5.1
			c-10.2-5.1-20.3-10-30.3-15.4c-9.4-5.1-18.8-8.6-28.8-12.2c-10.6-3.9-20.8-8.7-31.2-13.1c-1.2-0.5-1.9,1.4-0.9,2.1
			c9,5.2,18.9,9.2,28.7,12.9c5.8,2.2,11.7,4.2,17.3,6.8c5,2.3,9.7,5.2,14.5,7.9c9.6,5.3,19.3,10.7,29.1,15.6
			C1024.5,363.6,1032.3,368.3,1040.4,370.6z"/>
		<path class="st2" d="M1077.7,381.1c0.8,0.7,2.3,0.3,2.3-1c0-2.5-1.7-4.6-2-7.1c-0.2-2.3-0.1-4.5-0.6-6.8c-0.1-0.6-1.2-0.5-1.1,0.1
			c0.3,2.7-0.8,5.6-0.6,8.4C1075.8,377.1,1075.9,379.5,1077.7,381.1z"/>
		<path class="st2" d="M1100.6,358.1c8.1-12.6,19.5-22,29.9-32.5c1.6-1.6-0.7-3.8-2.5-2.5c-11.9,9.5-23.4,20.6-31.5,33.5
			c-4,6.3-6.9,13.1-8.5,20.4c-0.9,4.1-1.6,8.2-2.3,12.3c-0.2,1.5-0.6,3.1-0.9,4.7c-1.1-8.3-1-17.9,0.2-26.1
			c0.6-3.7,1.5-7.3,2.6-10.9c1.4-4.2,3.7-7.4,5.7-11.2c0.3-0.7-0.4-1.2-1-0.8c-6.2,5.1-9.5,14.5-10.7,22.2
			c-0.7,4.4-0.7,8.8-0.5,13.2c0.3,5.2,1.6,9.9,2.5,15c0.1,0.4,0.4,0.5,0.8,0.4c-0.5,2.5,0.1,3.6,0.2,6.1c0,0.8,0.9-5.5,1.1-6.2
			c2.4-8.1,1.9-8.2,4.2-15.9C1092.2,372.3,1096.3,364.7,1100.6,358.1z"/>
		<path class="st2" d="M1088.2,404.4c3.8-13.9,7.2-20.5,14.4-31.8c6.9-10.9,15.6-21.5,25.1-30.2c8.8-8.1,18.9-14.8,29.7-19.9
			c5.5-2.6,11.2-4.9,17.1-6.6c6-1.8,12.6-2.4,18.4-4.7c2.1-0.8,1.7-3.6-0.5-3.8c-6.3-0.7-13.3,1.5-19.4,3.2
			c-5.8,1.7-11.5,3.8-17.1,6.4c-12,5.5-23.1,13-32.8,22.1c-10.2,9.6-18.2,20.9-25.1,33c-3.3,5.8-6,12.6-7.9,19s-3.1,11.1-3.2,17.7
			C1087,409.6,1088,405.3,1088.2,404.4z"/>
		<path class="st2" d="M1239.1,337.5c-6.4-2.5-13.2-2.6-20-2.7c-0.4,0-0.6,0.9,0,1c6.6,0.9,12.8,3.2,19.4,4.3
			c6.9,1.1,13.5,2.9,20,5.7c-0.2-0.4-0.5-0.7-0.8-1.1C1251.3,342.6,1245.2,339.9,1239.1,337.5z"/>
		<path class="st2" d="M1228.5,331.4c-0.7-0.1-2.4,0.1-1.8,0.3c4.2,1.7,10.3,0.9,14.6,2.5c2.2,0.8,4.4,1.2,6.5,1.9
			c1.6,0.5,3.2,1.4,4.8,2.3c-0.3-0.5-0.6-1-0.9-1.5C1244.2,334.2,1236.6,332.3,1228.5,331.4z"/>
		<path class="st2" d="M1166.6,336.5c-12.5,3.6-24.6,9.6-35,17.6c-9.9,7.6-18.7,16.5-26.5,26.2c-3.9,4.8-5.6,8.9-8.2,14.6
			c-1.2,2.7-3.7,8-4.4,10.9c-0.8,3.4,1.3-0.2,2.3-2.7c1.9-4.5,4-7.5,5.5-10.3c2.8-5.4,5-7.1,9.1-11.7c7.8-8.8,16.4-16.9,26.2-23.4
			c9.8-6.6,20.2-12.2,31.6-15.6c6.3-1.9,12.7-3.1,19.3-3.7c6.2-0.6,12.4,0.2,18.5-0.2c2.1-0.2,2.5-2.9,0.5-3.7
			C1193.7,330.3,1178.2,333.1,1166.6,336.5z"/>
		<path class="st2" d="M1216,394.3c-9.7-2.9-20.9-3.4-31-4.1c-10.7-0.8-21.4-0.2-32,1.3c-9.6,1.3-19.6,2-28.5,6
			c-7.1,3.3-14.8,6.3-21.9,10c0.2-0.2,0.3-0.3,0.5-0.5c7.9-5.3,16.4-9.6,25.1-13.4c10.4-4.5,26.3-9.5,37.9-8.4
			c1.5,0.1-2.1-1.4-5.9-1.3c-11.5,0.5-22.9,3.3-33.8,7c-5.2,1.8-10.1,4.2-14.7,7c4.6-4.6,9.3-9.1,14.4-13.2
			c12.4-10,26.2-17.2,41.7-20.9c2.2-0.5,1.9-2.2-0.3-1.9c-15.2,2.6-29.8,8.9-41.8,18.3c-6.5,5-12.6,10.5-18.3,16.4
			c-5.3,5.4-10.1,11.1-14.2,17.6c0,0-1.6,3-1.9,3.7c-0.1,0.7,0.7-0.5,1.4-1c1.5-1.1,2.8-2.2,4.2-3.4c8.8-3,17.4-7.8,25.8-11.7
			c5.5-2.6,10.3-4.3,16.4-5c4.9-0.6,9.7-1.2,14.6-1.7c10.2-1.1,20.3-1.2,30.6-0.5c10.5,0.7,21.1,3.4,31.5,3.4
			C1217.6,397.9,1218,394.9,1216,394.3z"/>
		<path class="st2" d="M1206.9,351.7c-0.7,0.1,1.1,0.9,1.8,0.9c20.6,0.5,42.1,3.3,60.2,13.2c-0.6-1.2-1.2-2.5-1.7-4
			C1248.5,353,1226,347.5,1206.9,351.7z"/>
		<path class="st2" d="M1259.5,404.8c6.8,5.7,25.1,15.7,26.2,21.2c0.1,0.3,0.3,0.6,0.6,1c-0.8-4.2-1.7-8.4-2.3-12.5
			C1282.7,413.4,1259.3,404,1259.5,404.8z"/>
		<path class="st2" d="M711.4,439.3c0.8,3.3,1.1,4.8,1.6,7.8c0.4,2.3,0.7,4.4,1.5,6.6c0.1,0.3,0.5,0.2,0.4-0.1
			c-0.7-5.1-2.3-9.4-2-14.6c0.2-3.5-0.4-7-0.5-10.5c-0.3-7.9-0.4-15.9,0-23.8c1-16.4,4.6-33,11-48.1c6.5-15.1,15.4-28.3,26.5-40.5
			c10.7-11.7,22.8-22,34.1-33c0.6-0.6-0.3-1.4-0.9-0.9c-25.2,20.2-50.9,46-63.7,76.2c-6.4,15-9.4,30-10.3,46.2
			c-0.5,8.5-0.5,17.4,0.8,25.8C710.3,433.7,710.4,435.1,711.4,439.3z"/>
		<path class="st2" d="M777.3,290.2c-10.7,10.9-20.5,22.9-28.1,36.2c-8.2,14.3-15,30.5-19.9,46.2c-2.4,7.7-3.7,15.8-3.9,23.9
			c-0.2,7.2-0.4,17.6,3.9,23.8c0.3,0.4,1.2,0.5,1.3-0.2c0.6-3.8-0.3-7.1-0.7-10.9c-0.4-3.9-0.6-7.9-0.5-11.8
			c0.2-8.7,1.7-17.3,4.4-25.5c5-15.3,11.8-30.9,20-44.8c7.6-12.9,16.5-25.5,27-36.2c1.2-1.2,8.9-11.6,16.2-19.5
			C790.1,277.5,783.5,283.8,777.3,290.2z"/>
		<path class="st2" d="M824.3,255c-2.4,1.9-4.7,3.7-7.1,5.6c0-0.2,0-0.3-0.1-0.5c-0.2-1-1.2-1.8-2.2-1.5c-0.2-0.2-0.4-0.4-0.6-0.5
			c-1.5,0.9-3,1.8-4.6,2.7c-0.8,0.6-1.7,1.3-2.5,1.9c-9.7,16.7-45.1,55.5-53.1,74.7c-5.9,14-9.5,28.4-11.1,43.5
			c-1.6,14.6-3.2,30.6,1.1,44.8c0.6,1.9,3.9,1.7,3.7-0.5c-1.4-14.5-3.1-28.4-1.7-43.1c1.5-15.1,5.3-30.1,11.2-44
			c3.6-8.5,8-16.6,13.1-24.3c-2.5,5.9-4.4,12-6.1,18c-3.8,14.2-6.3,28.9-7.6,43.6c-2.5,30.2-0.1,60.7,10.9,89.1c1,2.5,5,1.5,4.1-1.1
			c-9.6-27.2-13.8-56.4-11.8-85.2c2-28.1,8.3-55.4,22.4-79.9c2.9-3.3,5.8-6.5,8.7-9.6c-1,1.6-2,3.3-3,4.9
			c-7.6,12.6-14.5,25.7-19.1,39.8c-9.7,30.1-3.8,62,1,92.5c1.4,9,2.9,17.9,5,26.7c1.7,7.3,3.3,15.2,6.2,22.2
			c0.4,1.8,0.8,3.6,1.2,5.3c1.8,7.4,3.6,14.7,5.2,22.1c3.4,15.8,5.9,31.7,7.5,47.8c1.5,15.5,3.3,31.7,2.2,47.3
			c-1,14.3-4.7,27.6-10,40.8c-0.7,1.4-1.4,2.8-2.2,4.2c-4.3,7.4-9.7,14.1-15.5,20.4c-12.2,13.5-29.9,17.8-46.4,24
			c-15.8,5.9-31.5,11.7-46.8,19c-7.8,3.7-15.1,7.8-22.2,12.8c-6.4,4.5-13.9,8.6-19.3,14.5c-0.4,0.5,0.1,1.2,0.7,0.9
			c8-4.3,15-10.3,23.3-14.1s16.2-8.4,24.5-12.2c16.8-7.7,34.1-14.3,51.3-21c1.6-0.6,3.3-1.3,4.9-1.9c-13.7,7-28.4,12.9-41.5,19.7
			c-30.4,15.9-58.4,35-83,59.1c-13.5,13.2-27,27.6-34.6,45.1c-0.6,1.4,1.4,2.6,2,1.2c7.4-16.3,20-29.1,32.8-41.2
			c12.9-12.3,26.6-23.6,41.1-34c13.9-9.9,28.3-19.5,43.4-27.4c10.3-5.3,21-9.8,31.5-14.6c-8.7,5.2-17.5,10.1-26.3,15.2
			c-27.8,16.2-54.5,34.7-77.5,57.4c-6.6,6.5-12.8,13.3-18.7,20.5c-5.2,6.4-10.7,13.1-13.6,20.9c-0.2,0.5,0.5,0.8,0.8,0.5
			c5.7-5.7,10.1-12.7,15.2-19c5-6.1,10.3-11.9,15.9-17.5c11.7-11.6,24.4-22.2,37.9-31.7c13.5-9.4,27.3-18.4,41.5-26.7
			c13.8-8.1,27.4-17.4,40.8-26.3c7.1-4.7,12.8-10.8,19.2-16.5c3.9-3.4,16-17.2,19.9-20.7c0.6,3.2-4.9,15-6.4,17.7
			c-4.6,8-12.9,19.8-18,27.5c-5.9,8.9-14,17.1-22.2,25.1c-0.6,0.5,1.2-0.7,1.8-1.2c15.8-13.1,26.6-29.4,36.8-47
			c5.2-8.9,9.1-18.8,12.7-28.5c2-5.3,3.7-10.3,5.1-15.8c0.9-3.6,3-7.1,3-10.9c3.1-13,4.1-26.4,3.9-39.9c-0.3-6.5-0.8-13.1-1.3-19.8
			c-0.7-8.9-1.6-17.3-2.6-25c-1.3-8.9-2.8-17.8-4.6-26.6c-1.6-8-3.5-16.1-5.7-24c-0.3-1.1-0.6-2.1-1-3.2c0-0.3,0-0.6,0-0.9
			c-2-9.7-5.7-19.1-7.8-28.9c-2-9.2-3.5-18.4-4.9-27.7c-2.9-19.4-6.4-39.3-5.2-59c1.1-18.7,7.1-37.1,14.8-54
			c3.8-8.4,7.3-13.1,11.9-20.5c0.8-1.2,2-2.4,2.8-3.7c0.8-1,2.6-3.2,3.4-4.2c3-3.7,6.7-7.4,9.9-10.9c3.1-3.3,5.5-5.9,8.7-9.2
			c3.3-3.4,6.5-5,9.5-8.8C828.8,251.1,826.6,253.2,824.3,255z"/>
		<path class="st2" d="M796.9,271.5c3.4-3,6.9-5.9,10.4-8.7l0,0C804.8,263.6,800.9,267.2,796.9,271.5z"/>
		<path class="st2" d="M831.5,249.3c-0.1,0.1-0.2,0.1-0.2,0.2l0,0c0.1-0.1,0.3-0.2,0.4-0.3C831.6,249.2,831.5,249.3,831.5,249.3z"/>
		<path class="st2" d="M803.9,601.3c-1.2,15.1-5.4,29.5-10,44.1c-5.1,16.5-10.5,32.7-19.2,47.8c-8.2,14.2-18.4,27.2-28.6,40.1
			c-9.7,12.1-19.3,24.3-31.3,34.2c-0.9,0.8,0.3,2.1,1.2,1.6c14.4-7.9,24.1-21.8,34.1-34.4c10.2-12.9,20.2-26.1,28.4-40.4
			c8.6-15.1,13.9-31.4,19-48c2.1-6.8,4-13.7,5.6-20.7C803.7,617.6,803.9,609.5,803.9,601.3z"/>
	</g>
	<g id="_x31_4_x5F_Hair_x5F_Pigtails_x5F_front_x5F_Shadows_1_">
		<path class="st3" d="M641.4,549.8c0.3-12.2,2-24.4,3.6-36.5c0.7-5.2,1.4-10.3,2.1-15.5c0.3-2,0.5-4,0.9-6
			c0.5-3.6,1.1-7.2,1.7-10.8c-5,10.4-9.8,20.8-12.9,32c-9.1,32.7-0.5,65.6,6.8,97.8c3.2,14.3,6.5,29.7,7.3,44.9
			c1-5.5,1.7-10.5,2-14.7c0.4-6.7,1-16.1,0.9-28C645.3,593.2,640.9,571.5,641.4,549.8z"/>
		<path class="st3" d="M638.6,700.8c3-8.5,6.4-19.7,9.1-30.8c0.7-8.9,0.5-17.9-0.5-26.8c-3.5-31.9-15.4-62.4-16.6-94.6
			c-1-27.4,8.5-53.3,21.5-77.1c1-4,2.1-8,3.2-12.1c0.4-1.4,0.8-2.7,1.2-4.1c-11.5,16.1-22.6,32.3-32.4,49.5
			c-10.9,19.2-19.9,39.6-24.9,61.1c-5.3,22.6-5.2,45.3-1.4,68.1c3.7,22.2,11.1,43.8,10.5,66.5c-0.4,16.6-4.4,32.8-10.2,48.4
			C622.8,730.8,634.3,713,638.6,700.8z"/>
		<path class="st3" d="M643.5,546.9c-0.8,20.5,2.7,40.7,10.1,59.7c-0.3-13.8-1.6-30.5-4.9-49.8c-2.2-12.6-3.1-24.1-3.2-34.7
			C644.6,530.4,643.8,538.6,643.5,546.9z"/>
		<path class="st1" d="M1045.4,356.6L1045.4,356.6c-0.1-0.2-0.2-0.4-0.4-0.6C1045.2,356.2,1045.3,356.4,1045.4,356.6z"/>
		<path class="st1" d="M1045.1,366.9c0.1,0.1,0.2,0.3,0.3,0.4c0-0.1,0-0.1,0-0.2C1045.2,367,1045.1,367,1045.1,366.9z"/>
		<path class="st1" d="M1030.9,369.5C1031,369.5,1031,369.5,1030.9,369.5c-0.1-0.1-0.2-0.2-0.3-0.2
			C1030.7,369.3,1030.8,369.4,1030.9,369.5z"/>
		<path class="st1" d="M580.8,771.7c38.1-27.2,69.9-51.2,88.3-82.3c18.3-31.1,14-77.6,3-110.9c-11-33.3-21-60.5-14.2-97.6
			c3.4-18.4,8.9-34.3,13.6-45.8c-1.3,8.9-1.2,18.2-1.3,26.5c-0.1,17.9,0.6,35.9,3.4,53.6c5.7,36.3,18.9,70.9,24.9,107.1
			c1.8,10.7,2.9,21.6,3,32.5c0.1,10.3-1.2,20.5-2.2,30.7c-0.1,0.6,0.9,0.7,1.1,0.1c4.8-16.4,3.9-34.7,2-51.5
			c-2-17.4-5.9-34.5-10.3-51.4c-4.5-17.4-9.5-34.6-13.2-52.2c-3.9-18.6-5.8-37.4-6.2-56.4c-0.2-9.8-0.2-19.7,0.5-29.6
			c0.6-7.8,2.2-15.1,4.2-22.4c0.5-1,1-1.9,1.4-2.7c-1.6,6-1.9,12.6-2.5,18.4c-0.8,9-1.1,18-0.7,27c0.3,8.5,1.2,16.9,2.5,25.3
			c1.4,9,3,18.7,6.5,27.2c0.4,1,1.8,0.6,1.6-0.4c-1.6-8.5-4.3-16.8-5.7-25.5c-1.5-8.8-2.3-17.7-2.6-26.6c-0.3-8.4-0.1-16.8,0.7-25.1
			c0.4-4,1.1-8.1,1.8-12.3c-1.4,24.4,4.4,49.4,10.5,72.6c7.3,27.8,15.2,55.6,17.7,84.3c0,0.2,0.3,0.2,0.3,0c0.2-27.6-7.9-54-15-80.4
			c-3.6-13.5-6.9-27.2-8.9-41c-1-6.7-1.5-13.3-1.7-19.9c1.6,8.3,4,18.4,7.8,30.4c11.7,37.1,23.3,50.5,33.1,87.7
			s15.8,74.1,15.2,110.7c0,0,3.7-36.9-1.1-66.7c-4.8-29.7-11.3-66.6-30.1-111.3c-18.7-44.8-24.3-67.4-15.2-110c0,0-4.2,3.9-11.1,9.3
			c-1,9.2-0.5,15.6-0.5,15.6s-13.6,16.7-22.5,40c-23.7,32.6-47,66.4-58.8,105.4c-6.1,20.2-8.6,41.1-6.8,62.1
			c1.9,23.2,8.9,45.4,11.5,68.4c2.5,22.9-2.1,45.5-10.3,66.9c-3.2,2.3-6.6,4.5-10.3,6.8c-2.9-8.9-6.1-17.8-9.1-26.6
			c-3.6-20.8-7.8-41.3-9.7-62.4c-1.9-21-2.3-42.2-1-63.3c2.7-43.6,14-85.1,29.6-125.7c4.2-11,8.7-21.9,13.1-32.8
			c3.6-8.7,7-17.1,11.9-25c-0.9,0.1-1.7,0.1-2.5,0.1c-3.1,4.8-5.5,10-7.7,15.3c-4.3,10-8.3,20.1-12.4,30.3
			c-8.2,20.6-15.9,41.5-21.9,63c-11.7,42.4-15.1,86.7-12,130.6c1.1,15.1,2.6,30.5,5.1,45.7c-3.9-15.5-7.3-31.1-9.5-46.9
			c-2.5-17.5-3.9-35.2-4.3-52.9c-0.1-4.4-0.1-8.7,0-13.1c1.7-21.1,4.4-41.5,8.2-57.6c11.9-49.6,24.7-89.6,42.1-117
			c-11.9-7.1-10.5-26.5-9.1-44.7c0,0-15.5,18.9-29.8,49.4s-22,85.2-24.7,138.3c-1.6,31.9,2.1,85.3,9.9,132.2
			c-0.1-16.9,0.1-43.9,1.6-72.3c0.7,12.2,1.9,24.4,3.5,36.6c2.4,17.7,5.6,35.2,10,52.5c4.2,16.2,8.6,33.1,15.3,48.5
			c-3.7,2.2-7.7,4.4-11.9,6.6c0.7,1.7,1.5,3.4,2.3,4.9c0,0-3.1,4-7,9.9C569.4,779.3,575,775.9,580.8,771.7z M652.8,641.1
			c-0.2,4.1-0.9,9.2-2,14.7c-0.8-15.2-4.1-30.6-7.3-44.9c-7.2-32.1-15.9-65.1-6.8-97.8c3.1-11.2,7.9-21.7,12.9-32
			c-0.6,3.6-1.2,7.2-1.7,10.8c-0.3,2-0.6,4-0.9,6c-0.7,5.2-1.4,10.3-2.1,15.5c-1.6,12.1-3.3,24.3-3.6,36.5
			c-0.5,21.7,3.9,43.4,12.3,63.4C653.7,625,653.1,634.4,652.8,641.1z M653.6,606.6c-7.4-19-10.9-39.2-10.1-59.7
			c0.3-8.3,1.1-16.5,2.1-24.8c0.1,10.7,1,22.1,3.2,34.7C652,576.2,653.3,592.8,653.6,606.6z M608.3,700.7
			c0.6-22.7-6.8-44.4-10.5-66.5c-3.8-22.8-3.9-45.5,1.4-68.1c5.1-21.5,14.1-41.9,24.9-61.1c9.7-17.2,20.9-33.5,32.4-49.5
			c-0.4,1.3-0.9,2.7-1.2,4.1c-1.1,4-2.2,8-3.2,12.1c-13,23.7-22.5,49.7-21.5,77.1c1.2,32.2,13.1,62.7,16.6,94.6
			c1,8.9,1.1,17.8,0.5,26.8c-2.7,11-6.1,22.3-9.1,30.8c-4.3,12.2-15.7,30-40.4,48.2C603.9,733.5,607.9,717.2,608.3,700.7z"/>
		<path class="st1" d="M588,774.9c-8.4,9.2-14.6,19.5-17.2,31.8c-1.2,5.8-2,11.6-2.5,17.5c0.6-0.3,1.2-0.6,1.9-0.9
			c0.4-4.9,1-9.7,2-14.5c1.2-6.3,3-12.6,6.1-18.2c3-5.5,6.9-10.1,10.6-15.1C589.2,775.1,588.4,774.5,588,774.9z"/>
		<path class="st1" d="M800.7,647.5c-8,27.8-21.1,58.6-40.5,85c-29.4,40-78.1,72.5-101,89.8c-11.7,8.8-28,21-42.3,36.4
			c2.8-8.8,7.5-16.8,14.1-24.1c9.3-10.4,20.3-19.3,31.8-27.1c0.8-0.6,0.3-2-0.7-1.7c-6.5,1.8-12,7.8-17,12
			c-6.4,5.5-12.7,11.1-18.2,17.6c-6.7,7.9-12.7,17.8-14.3,28.3c-1.3,1.5-2.6,3.1-3.9,4.7c2.4-20.5,10.7-39.3,25.9-54
			c9.1-8.8,19.6-16.2,29.8-23.7c10.5-7.8,21-15.5,31.5-23.3c19-14.1,37.1-29,52.5-47c13.8-16,25.5-33.8,34.8-52.8
			c9.4-19.2,17.2-40.2,20.7-61.5c0-2.4,0-4.9,0-7.3c-0.3,0-0.6,0.2-0.6,0.6c-5,22.2-10.9,43.6-20.7,64.2
			c-9.7,20.3-22.1,39.4-36.9,56.4c-15.9,18.2-34.7,33.2-54.1,47.5c-11.1,8.2-22.3,16.2-33.5,24.2c-9.3,6.7-19,13.4-27.2,21.5
			c-16,15.8-26.4,38.1-26.4,60.8c-3.2,4.5-6.2,9.2-8.8,14.2c0.5-5.9,1.2-11.7,2.3-17.6c2.2-11.4,5.7-22.5,10.6-33.1
			c8.8-19.1,22-35.7,37-50.4c14.4-14.2,30.3-26.7,46.1-39.2c17.5-13.9,34.5-28.3,50.9-43.5c8.8-8.1,17.9-16.1,26-25
			c7.1-7.8,15.2-17.4,17.9-27.8c0.2-0.8-0.9-1.3-1.4-0.6c-0.1,0.2-0.2,0.3-0.3,0.5c-0.2-0.2-0.5-0.2-0.7,0
			c-14.5,16.7-31,31.5-49.1,44.3c-17.6,12.5-36,23.6-53.8,35.8c-18.6,12.7-36.1,26.6-51.1,43.5c-10.2,11.5-20.6,24.1-28.7,37.7
			c1.5-0.3,2.9-0.6,4.1-0.9c1.4-2.2,2.9-4.3,4.4-6.5c7.3-10.2,15.1-20.2,23.5-29.6c29.2-32.4,68-52.6,103-77.6
			c16.6-11.8,32.8-24.8,45-41.1c-1.4,2.4-2.8,4.8-4.4,7c-3.4,4.8-7.2,9.3-11.3,13.6c-7.4,7.9-15.4,15.1-23.3,22.4
			c-17,15.6-34.4,30.6-52.4,44.9c-27.2,21.6-55.7,43.9-74.6,73.4c-0.2,1.2-0.5,2.4-1,3.7c-0.4,1.1-1.5,2.1-3,3
			c-1.5,2.7-3,5.5-4.4,8.3c-9.2,19-15.9,41.8-15.4,63.5c-0.1,0.3-0.2,0.5-0.3,0.8c-1.9-8.3-3.6-16.5-3.7-25.2
			c-0.2-11.5,1.3-23,4.8-34c0.7-2,1.4-4,2.2-6c-1.2,0.5-2.3,1-3.5,1.6c-0.1,0.2-0.1,0.4-0.2,0.5c-4.3,12.1-6.6,25-6.4,37.9
			c0.2,9.6,1.2,20.2,4.7,29.5c-1.6-2.4-3.3-4.9-4.7-7.5c-2.9-5.3-5.7-10.7-7.6-16.4c-3.5-10.2-5.6-20.7-6.5-31.4
			c-0.6,0.4-1.2,0.8-1.8,1.3c0.9,10.4,2.9,20.8,6.2,30.8c1.5,4.5,3.1,9.4,5,14.1c-3.8-4.4-7.5-9-10.5-14.3
			c-4.3-7.5-7.8-15.8-9.4-24.4c-1.3,0.9-2,1.5-2,1.5s1.7,12.4,10.8,25.7s18.6,23.2,18.6,23.2l12-10.5c39.9-44,40.9-50,91.6-84.3
			c50.7-34.3,80-65.9,97.3-112.7C794.2,680.2,798.3,663.9,800.7,647.5z"/>
		<path class="st1" d="M563.6,814.2c3.1-11.7,6.4-23.3,12-34.1c0.4-0.9-0.8-1.6-1.3-0.8c-6.1,11-9.4,23.2-12.7,35.3
			c-1.4,5-2.6,10-3.6,15.1c0.7-0.4,1.5-0.8,2.2-1.2C561.1,823.6,562.4,818.9,563.6,814.2z"/>
		<path class="st1" d="M1278.8,614.5c20.9-34.3,21-49.1,21-76c-2.9-40.2-43.2-127.8-124.9-128c0,0,23.6,3.6,47.9,13.7
			c18.8,7.8,33.2,22.8,41.5,39.3c9.4,18.5,12.3,31.8,13.6,46C1280.5,539.3,1279.6,585.2,1278.8,614.5z"/>
		<path class="st1" d="M693.7,400.4c-3.4,23.9,1.5,47.8,10.7,70c0.4,1,1.9,0.6,1.6-0.4c-3.2-11.2-7.3-22-9.5-33.4
			c-2.4-12.6-2.3-25.5-0.3-38.2c1.8-11.4,5.1-22.6,9-33.5c0.9-2.5,1.8-5.1,2.8-7.6c-2,3.1-3.9,6.1-5.6,9.1
			C698.5,377.4,695.3,388.7,693.7,400.4z"/>
		<path class="st1" d="M740,316.9c-21,25.4-32.3,61.4-33.2,94.1c-1.1,38.9,15.7,74.8,28.8,110.6c4.1,11.1,8,22.2,12.3,33.3
			c2.3,5.8,4.6,11.6,6.8,17.5c2,5.2,3.6,10.7,6.2,15.6c0.1,0.2,0.4,0.1,0.3-0.1c-2.1-9.8-6.4-19.4-9.7-28.9
			c-3.3-9.6-6.8-19.2-10.2-28.7c-6.9-19.1-13.9-38.2-20.8-57.2c-6.2-17.1-11.1-33.9-11.8-52.2c-0.7-17.2,1.5-34.6,6.3-51.1
			c5.6-19.1,14.8-35.7,25.4-52.4C740.6,317,740.2,316.7,740,316.9z"/>
		<path class="st1" d="M739.9,422.1c0.1,1.1,1.9,1.2,1.8,0c-2.1-30.8,1.8-63.1,15.3-91.2c7.2-15.1,17.3-27.8,28-40.5
			c8.5-10.2,16.9-20.8,26.3-30.4c-0.7,0.4-1.5,0.9-2.2,1.3c-1.6,1-3.2,2-4.8,3c-7.5,7.6-14.1,16.2-20.9,24.4
			c-11,13.1-22,25.8-29.3,41.4C740.4,358.8,737.3,390.7,739.9,422.1z"/>
		<path class="st1" d="M848,277.6c4.9-0.9,9.6-3.1,14.5-4.3c5.8-1.4,11.7-2.1,17.7-2.1c11.4,0,22.7,2.4,33.6,5.5
			c20,5.8,41.6,12.3,58.7,24.6c1.1,0.8,2.2-1.1,1.1-1.8c-8.8-6.3-18.7-10.8-28.9-14.6c-11.2-4.2-22.5-8.1-34-11.2
			c-10.8-2.9-22.1-5-33.4-4.6c-9.5,0.3-22.1,1.8-29.6,8.1C847.5,277.4,847.8,277.7,848,277.6z"/>
		<path class="st1" d="M1247.2,353.5c-0.3-0.1-0.3,0.4,0,0.5c6.1,0.6,12.1,2.3,18,4.2c-0.2-0.5-0.8-1.4-1-1.9
			C1258.6,355,1253.1,354.2,1247.2,353.5z"/>
		<path class="st1" d="M1259.4,366.2c-16.9-6.3-35.1-8.3-53-6.3c-9.5,1-18.9,2.9-28.1,5.2c-4.3,1.1-8.6,2.3-12.7,3.8
			c-4.6,1.7-9.7,2.7-14.1,4.8c-0.5,0.2-0.1,1,0.4,0.8c4.6-1.1,8.7-3.3,13.4-4.3c4.3-0.9,8.5-2,12.8-3c9.4-2.3,18.9-4.1,28.5-4.8
			c16.9-1.3,33.7,0.7,49.7,6.3c5.8,2.1,11.4,4.8,16.8,7.8c-0.6-1.6-1.3-3.6-2-5.1C1267.2,369.4,1263.5,367.7,1259.4,366.2z"/>
		<path class="st1" d="M1175.4,359.9c6.7-1.6,13.4-2.8,20.3-3.5s13.8-0.1,20.8-0.5c0.5,0,0.6-0.8,0.1-0.9c-12.6-3.7-27.5-0.4-40,1.9
			c-13.4,2.5-27.6,5.8-39.9,11.6c-11.7,5.4-21.6,13.7-30.4,23c-5,5.3-11,11.4-15.1,18.3c3.9-11.6,8.6-22.6,15.6-32.9
			c9.1-13.3,21.1-24.6,34.9-32.9c29.2-17.6,75.5-16.8,108.2-9.1l-3.7-4.1c-16.9-4.7-35.1-6.8-52.6-5.7c-33.6,2-65.6,18.2-86.3,44.9
			c-9,11.6-16.3,25.3-19.8,39.8c-0.1-0.4-0.3-0.8-0.4-1.2c3.2-33.6,23.5-62,50.3-82c13.9-10.4,29.7-17.5,47-19.8
			c12.7-1.7,14-0.5,26.5,1.7c-3.5-1.7-8.4-3-12.8-4.2c-18.3-2.3-25.1,0.7-41.9,7.9c-24.8,10.7-47.4,32.7-60.4,56.2
			c-5.7,10.5-9.7,21.9-11.1,33.6c-5-13.9-10.1-27.9-16.3-41.2c2-8.1,5.1-15.8,10-22.8c6.2-9,14.3-16.5,22.9-23.1
			c7.8-6,16.1-11.1,25-15.3c7.3-3.4,14.8-5.5,22.4-7.9c-2.6-0.1-5.3-0.1-7.9-0.1c-5.1,1.8-10,3.9-14.7,6.1
			c-9.7,4.5-19,10.1-27.4,16.6c-13.6,10.6-28.2,25.9-31.7,43.6c-0.8-1.6-1.5-3.2-2.3-4.8c2.7-13,5.9-25.3,13.8-36.4
			c4-5.7,8.9-10.9,14.6-15c4-2.9,8.3-4.9,12.6-7c-2.3,0.4-4.5,0.9-6.7,1.4c-8.6,4.6-16.4,11.9-21.9,18.8c-4.1,5.2-7.3,10.9-9.6,17.1
			c-1.9,5.2-4.1,11.1-5,17c-0.9-1.6-1.8-3.2-2.7-4.8c0.4-4.2,0.5-8.5,1.9-12.5c2-5.7,5.9-11,9.6-15.7c3.6-4.6,7.6-8.7,12-12.4
			c0.1,0,0.1-0.1,0.2-0.1c0.6-0.3,1.1-0.7,1.4-1.2c2.1-1.6,4.3-3.1,6.6-4.4c-22.4,6.2-38.9,16.4-43.5,28.5c0,0-0.8-1.3-2.4-3.5
			c0,0.3-0.1,0.5-0.1,0.8c-5.9-7.3-12.3-14.2-18.6-21.3c-4.8-5.5-9.7-11-14.6-16.4c-6.1-5.4-12.9-10.7-20.3-15.6
			c9.4,12,19,23.7,29.1,35.2c10.2,11.6,20.9,23,29.3,36c5.4,8.5,10,17.5,14.2,26.7c0,0.1,0,0.2,0,0.3c-0.1,0.4-0.1,0.8-0.1,1.3
			c-0.4,0.4-0.6,1-0.6,1.7c0,0.3,0,0.6,0,1c-0.2,0.2-0.3,0.4-0.5,0.5c-8.7-12.7-18.6-24.9-28-37.2c-9.7-12.8-19.8-25.3-30.5-37.2
			c-9.8-10.9-20.5-21-31.9-30.2c-10.6-8.5-22.6-16.8-35.1-22.1c-0.3-0.1-0.4,0.3-0.2,0.5c12.5,7.7,24.3,15.4,35.5,25
			c10.5,9,20.1,19.1,29.4,29.4c9,10.7,18,21.3,25.8,32.9c5.7,8.5,10.4,17.3,15.1,26.2c-5.5-5-11.3-9.7-16.8-14.6
			c-7.4-6.6-14.8-14.3-23-19.8c-0.3-0.2-0.5,0.2-0.3,0.4c4.7,5.8,10.6,11.1,16.3,16.3c3.4,3.6,6.7,7.2,10.1,10.8
			c1.2,1.3,10.7,10.5,14,16c-1,1.6-2.4,1.8-4.3,0.6c-1.5-0.4-2.9-1-4.3-1.6c-3.3-1.3-6.5-2.7-9.8-4c-4.4-1.8-8.7-3.6-13-5.5
			c-1.7-0.9-3.5-1.8-5.2-2.6c-20.4-10-41.8-17.8-63.8-23.6c-22.8-6-46.6-10-70.2-6.1c-21.2,3.5-39.9,13.5-54.7,29
			c-13.4,14.1-28.3,30.6-33.5,49.9c-1.2-10.7-1.7-18.9-2-24.7c0-0.7-0.1-1.5-0.1-2.3c2.9-11.8,6.7-23.5,12.3-34.4
			c3.2-6.2,6.7-12.2,10.6-17.9c4-5.9,9.4-11.1,13-17.2c0.2-0.3-0.2-0.8-0.5-0.5c-5.2,3.9-9.3,10.3-13,15.5
			c-4.3,6.1-8.2,12.6-11.6,19.3c-3.8,7.4-7.2,15-10,22.9c2-18.3,8.6-45.9,25.6-66.8c0,0-16.7,8.8-29,33.3c0,0,12.5-53.2,63.5-88.6
			c-4.1,1.5-8.3,3.3-12.6,5.3c-7.9,6.8-17.8,16.7-29.9,31.4c-40.7,49.5-27.4,119.8-24.8,140.1c1.7,12.7,7.1,31,11,43.1
			c-0.1-4,0-9,4.4-15.8c-1-4.6-1.8-9.1-2.6-13.3c0.4-0.9,0.6-1.5,1-2.7c0.2-0.5,0-0.9-0.4-1.2c3.2-12.6,11.1-23,20.8-31.6
			c5.3-4.7,11.6-11.1,18.4-13.5c2.2-0.8,6.2-1,5.7-4.2c0-0.2-0.2-0.2-0.3-0.1c-2.3,2.5-4.8,2.3-7.6,3.6c-2.4,1.1-4.5,2.9-6.6,4.5
			c-5.6,4.2-11.1,8.3-16.2,13c-6.9,6.3-13,13.7-16.3,22.3c-0.5-3.4-1-6.6-1.4-9.7c1.8-10,5.1-19.4,10.8-27.9c6-9,13-17.7,20.1-25.9
			c14.2-16.6,30.8-28.2,52.4-32.6c22.5-4.6,45.8-1.6,67.9,4.1c21,5.4,41.5,13.3,60.9,22.8c10.7,5.2,21.1,11,31.2,17.2
			c4.9,3,10.5,6.1,15.7,9.7c1.4,1.9,2.6,3.8,3.5,6c-17-1.5-33-10.1-49-15.4c-15.9-5.3-32.1-8.7-48.7-10.9c-16.9-2.2-34-2.8-51-1.4
			c-15.8,1.3-33.8,3.5-48.1,10.9c-0.2,0.1-0.1,0.4,0.1,0.3c8.6-1.7,17-4.6,25.6-6.4c8.5-1.7,17.2-2.9,25.8-3.5
			c17.1-1.2,34.7-0.3,51.6,2.6c16.5,2.9,33,7.3,48.8,13.1c3.6,1.3,7.2,2.8,10.7,4.2c-1.9-0.2-3.8-0.4-5.6-0.6c-8-1-16-1.7-24-2
			c-9.4-0.3-18.8-0.2-28.1,0.2c12.1,0.4,24.5,1.7,37.3,4.2c62.2,12,85.5,35.7,90.6,37.7c1.9,0.8,3.9-0.1,6.6-1.8
			c-0.2-0.5-0.4-0.9-0.5-1.4c2-3.6,3.9-7.2,6.3-10.5c3.7-5.2,8-10,12.5-14.7c8.4-8.8,17.9-16.8,28.9-22
			C1150.2,365.9,1162.8,363,1175.4,359.9z M1030.9,369.5c-0.1-0.1-0.2-0.1-0.3-0.2C1030.7,369.3,1030.9,369.4,1030.9,369.5
			C1031,369.5,1031,369.5,1030.9,369.5z M1045.1,366.9c0.1,0.1,0.2,0.2,0.3,0.2c0,0.1,0,0.1,0,0.2
			C1045.3,367.2,1045.2,367,1045.1,366.9z M1045.4,356.6c-0.1-0.2-0.2-0.4-0.4-0.6C1045.2,356.2,1045.3,356.4,1045.4,356.6
			L1045.4,356.6z"/>
		<path class="st1" d="M1291.9,606.9c-4.3,8.3-8.5,11-14.1,18.6c-0.2,1.9-2.1,15.6-2.1,15.6s3.5-8.5,5-10.2
			c3.9-7.4,7.3-11.6,10.6-18c1.3-2.5,2.1-4.1,3.4-6.4c-0.4-1.1-1-1.5-1.3-2.6C1292.7,605.4,1292.7,605.4,1291.9,606.9z"/>
		<path class="st1" d="M1270.8,449.5c4.9,7.3,19.3,27.5,19.6,28.4c0,0-0.7-16.4-1.3-24.3c0,0-5.9-8.1-15.6-20.2
			c-2.3-2.9-13.7-8.1-23.3-13c-6.8-3.5-13.5-6.5-22.4-9.1c-6.5-1.9-13.7-3.9-17.9-3.9c35.4,14.2,35.2,15.3,56.6,36.5
			C1268.2,445.4,1269.5,447.5,1270.8,449.5z"/>
	</g>
	<g id="_x31_4_x5F_Hair_x5F_Pigtails_x5F_elastics_x5F_Main_Asset_1_">
		<path class="st4" d="M775.5,1012c0,0-4-1-7.4-6.1c-3.4-5,0-8.9,7.4-11.2c7.4-2.4,23.6-4.2,34.1,1.1c10.4,5.3,16.2,6.7,17.8,10.1
			c1.6,3.4-1,6.6-2.6,6.7c0,0,2.8,0.8,2,4.6c-0.8,3.7-1.9,4.6-9.5,4.1s-21.1-2.5-30.2-1.5s-8.7,0.7-11.1-2.1
			C773.7,1014.9,775.5,1012,775.5,1012z"/>
		<path class="st4" d="M1123.8,983.2c0.2-0.1-5.2,1.5-7.2-2.8s3.4-8.4,8.7-10.2c5.3-1.8,17.7-5,23.1-4.6s10,1.8,12,5.9
			c1.9,4.1-3.5,7.1-3.5,7.1s3.4,1.9,2.8,4.8s-7.3,5.3-18.6,6.6s-13.5,2.9-17.6,0.9C1119.3,989,1120.5,985.1,1123.8,983.2z"/>
		<path class="st1" d="M1160.4,974.9c-13-5.5-29-2.5-43.2,6.5c1.5,1.9,3.9,2.1,5.3,2c3.8-2,9.9-4.1,18.8-4.2
			c9.8-0.1,15,0.8,17.7,1.6c-0.8-1.4-2.3-2.2-2.3-2.2S1159.5,977.1,1160.4,974.9z"/>
		<path class="st1" d="M1153.6,984.1c-7.3,0.4-21.5-0.3-32.7,4.1c0.2,1,1,2,2.5,2.7c4.1,2,6.4,0.4,17.6-0.9
			c10.8-1.2,17.3-3.4,18.4-6.2C1157.9,983.9,1155.9,984,1153.6,984.1z"/>
		<path class="st1" d="M809.9,1006.8c-13.8-3.5-20.3-1.6-29.3,0c-6.9,1.3-11.9-2.1-13.3-6.8c-0.9,1.7-0.7,3.7,0.8,5.9
			c3.4,5,7.4,6.1,7.4,6.1s-1.8,2.9,0.5,5.6c2.3,2.7,2,3,11.1,2.1c0.4,0,0.7-0.1,1.1-0.1c-5.5-1.7-6.7-4.6-5.6-5.9
			c1.5-1.7,7.4-4.5,22.7-3c10.6,1.1,18,4,21.6,5.8c0.4-3.2-2.1-3.9-2.1-3.9c0.4,0,0.8-0.2,1.2-0.5
			C822.3,1010.5,816.9,1008.6,809.9,1006.8z"/>
		<path class="st1" d="M810.6,1020.6c2.5,0.2,4.7,0.5,6.7,0.6c5.8,0.4,7.8,0,8.8-1.9C823.1,1019.6,817.1,1020.2,810.6,1020.6z"/>
	</g>
</g>
</svg>
