<?xml version="1.0" encoding="utf-8"?>
<!-- Generator: Adobe Illustrator 21.0.2, SVG Export Plug-In . SVG Version: 6.00 Build 0)  -->
<svg version="1.1" id="Layer_1" xmlns="http://www.w3.org/2000/svg" xmlns:xlink="http://www.w3.org/1999/xlink" x="0px" y="0px"
	 viewBox="0 0 2000 2000" enable-background="new 0 0 2000 2000" xml:space="preserve">
<g>
	<path fill="#9F592A" d="M885.9,344.7c-2.8,2.7-6.6,5.4-7.2,9.6c-0.3,1.8,2.2,2.6,2.8,0.8c1.1-3.4,3.5-6.2,5.7-9.1
		C887.9,345.1,886.8,343.9,885.9,344.7L885.9,344.7z"/>
	<path fill="#9F592A" d="M893.2,345c-3.2,2.4-6.3,5.4-8.3,8.9c-1.2,2.1,2.3,3.7,3.1,1.3c0-0.1,0.1-0.2,0.1-0.3
		c0.3-1-0.5-1.7-1.4-1.8c-0.1,0-0.3,0-0.4,0c0.5,0.9,1,1.7,1.5,2.6c1.8-3.4,4.1-6.2,6.5-9.2C894.9,345.8,894.1,344.3,893.2,345
		L893.2,345z"/>
	<path fill="#9F592A" d="M859.2,267.8c0.3,5.1,0.2,11,2.2,15.8c0.5,1.2,2.5,1.2,2.5-0.3c-0.1-5.3-1.9-10.6-2.7-15.8
		C861,266.4,859.2,266.7,859.2,267.8L859.2,267.8z"/>
	<path fill="#9F592A" d="M869.5,267.8c-1.7,2.5-2.4,5.7-3,8.6c-0.5,2.5-1.4,5.8,0.1,8c0.3,0.5,1,0.5,1.3,0c1.3-2,0.8-4.8,1.1-7.1
		c0.3-3,0.9-6,1.9-8.9C871.2,267.5,869.9,267.1,869.5,267.8L869.5,267.8z"/>
	<path fill="#9F592A" d="M965.5,263.5c0.2,4.8,0.9,10.7,2.9,15.1c0.4,0.8,1.5,0.3,1.6-0.4c0.2-4.8-1.7-10.6-3.7-14.9
		C966,262.9,965.5,263.1,965.5,263.5L965.5,263.5z"/>
	<path fill="#9F592A" d="M979,260.9c-3.5,3.9-6.5,11-5.7,16.2c0.1,0.9,1.4,0.9,1.8,0.2c1.5-2.2,1.5-5.2,2.2-7.8
		c0.8-2.7,2.1-5.2,2.7-8C980.1,261,979.4,260.4,979,260.9L979,260.9z"/>
	<path fill="#9F592A" d="M1110.4,340.6c-1.2,1.7-2.3,3.3-3.5,5c-0.7,0.9-2.5,2.6-1.6,3.9c0.5,0.8,2.1,0.9,2.3-0.3
		c-0.1,0.6-0.2,0.3,0.1-0.2c0.2-0.4,0.5-0.8,0.7-1.2c0.5-0.8,1-1.6,1.4-2.5c0.8-1.4,1.4-2.8,1.6-4.5
		C1111.5,340.3,1110.7,340.2,1110.4,340.6L1110.4,340.6z"/>
	<path fill="#9F592A" d="M1117.3,343.9c-1,1.1-2.2,1.9-3.2,3c-0.9,1-2,2-2.5,3.3c-0.4,1.1,1,2,1.9,1.4c1.2-0.7,2-2.1,2.8-3.1
		c0.9-1.1,1.5-2.5,2.4-3.6C1119.2,344.2,1117.9,343.2,1117.3,343.9L1117.3,343.9z"/>
	<path fill="#9F592A" d="M1166.4,382c1.3-0.5,2.3-1.4,3.4-2.1c1-0.7,2.7-1.2,3.3-2.3c0.3-0.7-0.1-1.4-0.8-1.4
		c-1.3-0.1-2.6,1.2-3.6,1.9c-1.1,0.9-2.3,1.8-3,3.1C1165.5,381.5,1165.9,382.2,1166.4,382L1166.4,382z"/>
	<path fill="#9F592A" d="M1173.3,388.4c1.2-0.6,2.4-1.3,3.6-1.9s2.6-1,3.6-1.8c1.1-0.8,0.4-2.4-0.9-2.1s-2.6,1-3.8,1.7
		c-1.3,0.7-2.6,1.4-3.7,2.2C1171.1,387.3,1172,389,1173.3,388.4L1173.3,388.4z"/>
	<path fill="#9F592A" d="M1214.1,383.4c1.8,0.3,3.7-1.5,5.2-2.4c1.5-1,3.8-2,4.5-3.8c0.2-0.4-0.3-1-0.7-0.9c-1.9,0.1-3.7,2-5.2,3
		c-1.4,1-3.6,1.8-4.1,3.5C1213.6,383,1213.8,383.3,1214.1,383.4L1214.1,383.4z"/>
	<path fill="#9F592A" d="M1219.7,385.4c0.8-0.1,1.4-0.1,2.2-0.4c0.8-0.2,1.5-0.6,2.2-0.9c1.5-0.8,0.2-2.9-1.3-2.3
		c-0.7,0.3-1.3,0.7-1.9,1.1s-1.1,0.9-1.6,1.4C1218.9,384.8,1219.1,385.5,1219.7,385.4L1219.7,385.4z"/>
	<path fill="#9F592A" d="M627.9,530.1c1.3,6,1.7,12.1,2.4,18.2c0.2,1.9,3.2,1.9,3,0c-0.3-3.7-1.1-7.4-1.8-11
		c-0.5-2.6-0.6-5.8-2.5-7.9C628.6,529,627.8,529.5,627.9,530.1L627.9,530.1z"/>
	<path fill="#9F592A" d="M632.6,529.3c0.3,2.2,0.8,4.4,1.3,6.6c0.4,2.2,0.7,4.5,1.3,6.6c0.7,2.3,4.2,1.3,3.5-1s-1.8-4.5-2.7-6.7
		c-0.8-2-1.5-4-2.4-5.9C633.3,528.2,632.5,528.7,632.6,529.3L632.6,529.3z"/>
	<path opacity="0.4" fill="#9F592A" enable-background="new    " d="M1218.5,373.8c-20.8-20.1-63-46.2-88.1-53.2s-38.6,4.2-45.8,2.3
		c-4.8-1.2-16.3-6.6-30.8-15.1c-7.6-4.5-16-9.7-24.7-15.7c-30.3-20.8-30.3-19.7-86.1-22.2c-66.8-3-110.2,13.5-110.2,13.5
		s6.4,5.7,11.6,14.2c5.2,8.5,12.5,17.9-13,21.8s-59.2,25.1-84.7,42.2c-25.4,17.2-35.7,38.2-63.7,55.7s-73.7,17.8-95.6,10.7
		c0,0-0.7,12.4-0.2,20.6c0,0-8.2,15.3-16.5,36.2c2.2,2.7,4.4,5.3,6.3,8.2c1.1,1.6-1.6,3.1-2.6,1.5c-1.6-2.5-3-5.1-4.5-7.6
		c-0.7,1.8-1.4,3.6-2.1,5.5c2.1,1.3,4.2,2.6,6.4,3.9c2.1,1.2-0.2,4.3-2,2.6c-1.7-1.6-3.3-3.2-5-4.7c-6,16.1-11.4,34.3-13.3,51
		c-4.7,41.4,1.9,88.6,4.6,108.9c2.7,20.3,7.7,34,7.7,34c4.6,10.6,9.8,14.3,17,0c5.1-10.3,14.9-41.5,26.2-67
		c4.4-10.1,9.1-19.3,13.8-26c0,0,30.8-19.8,46.7-36.7c15.8-16.8,12.2-28.8,11.7-46s5.7-24.5,25-46.3s57.6-47.8,130.8-43
		s111.2,20.7,165.5,19.7c54.3-1,98-1.7,132-15.7s69.8-17.2,93.3-11.7s30.3,8,30.3,8S1248,402.3,1218.5,373.8z"/>
	<path fill="#9F592A" d="M574.1,496.2c-2.2-1.3-4.3-2.5-6.4-3.9c-1.5-0.9-2.9-1.9-4.3-3.1c-0.8-0.6-1.6,0.5-0.8,1.1
		c1.6,1.2,3,2.5,4.4,3.7c1.7,1.5,3.4,3.1,5,4.7C573.9,500.4,576.2,497.4,574.1,496.2z"/>
	<path fill="#9F592A" d="M576.9,493c-1.9-2.9-4.1-5.5-6.3-8.2c-0.6-0.8-1.3-1.6-1.9-2.4c-0.5-0.6-1.5,0.2-1.1,0.8
		c0.8,1.2,1.5,2.4,2.2,3.6c1.5,2.6,2.9,5.2,4.5,7.6C575.3,496.1,577.9,494.6,576.9,493z"/>
	<path fill="#9F592A" d="M574.1,496.2c-2.2-1.3-4.3-2.5-6.4-3.9c-1.5-0.9-2.9-1.9-4.3-3.1c-0.8-0.6-1.6,0.5-0.8,1.1
		c1.6,1.2,3,2.5,4.4,3.7c1.7,1.5,3.4,3.1,5,4.7C573.9,500.4,576.2,497.4,574.1,496.2z"/>
	<path fill="#9F592A" d="M576.9,493c-1.9-2.9-4.1-5.5-6.3-8.2c-0.6-0.8-1.3-1.6-1.9-2.4c-0.5-0.6-1.5,0.2-1.1,0.8
		c0.8,1.2,1.5,2.4,2.2,3.6c1.5,2.6,2.9,5.2,4.5,7.6C575.3,496.1,577.9,494.6,576.9,493z"/>
	<g>
		<path opacity="0.35" fill="#E8FFFA" enable-background="new    " d="M1154.6,331.9c0.1,0.1,0.1,0.2,0.2,0.3c0.3,0.6,0.7,1.6,1.3,2
			c0.7,0.5,1.6,0,2.5-0.6C1157.3,333,1156,332.5,1154.6,331.9z"/>
		<path opacity="0.35" fill="#E8FFFA" enable-background="new    " d="M1164.8,334.8c-15.6-9.8-33.5-15.7-52-16.1
			c-4.4-0.1-8.9,0.2-13.3,0.9c-5.2,0.8-10.2,2.7-15.4,2.8c-11.1,0.3-20.3-6.7-30-11c-0.6-0.3-1.1,0.6-0.5,0.9
			c8.1,4.1,15.7,9.2,24.4,11.8c9.4,2.8,18-1.1,27.4-1.9c7.5-0.6,14.8-0.1,22,1.2c-0.2,0.6,0.1,1.5,1,1.5c0.5,0,0.9-0.3,1.2-0.7
			c0.1-0.1,0.1-0.2,0.1-0.4c2,0.4,4,0.9,5.9,1.4c0.2,0.7,0.4,1.2,0.3,2c-0.1,1.1,1.6,1.3,1.9,0.3c0.1-0.5,0.1-1.1,0.1-1.6
			c0.3,0.1,0.7,0.2,1,0.3c0.1,1.4,0.7,2.6,1.1,4c0.3,0.9,1.5,0.9,1.8,0c0.3-0.8-0.1-1.4-0.3-2.2c-0.1-0.4-0.2-0.8-0.2-1.1
			c3.8,1.2,7.5,2.6,11.2,4.1c0.7,1.3,1.4,2.6,2,3.9c0.4,1,0.9,1.8,2.1,2c1,0.2,1.9-0.1,2.7-0.7c-0.1,0.3-0.2,0.5-0.2,0.8
			c-0.5,1.3-0.7,2.6-1.1,3.9c-0.2,0.1-0.3,0.3-0.3,0.5v0.1c0,0.3,0.2,0.5,0.5,0.6c1.2,0.5,1.8-1.7,2.1-2.4c0.4-1,0.8-2,1.2-3
			c0.2-0.6,0.5-1.1,0.6-1.6c0.8,0.4,1.5,0.7,2.3,1.1C1164.9,336.6,1165.7,335.3,1164.8,334.8z M1156.2,334.2c-0.6-0.4-1-1.4-1.3-2
			c-0.1-0.1-0.1-0.2-0.2-0.3c1.3,0.6,2.7,1.2,4,1.8C1157.8,334.2,1156.8,334.7,1156.2,334.2z"/>
		<path opacity="0.35" fill="#E8FFFA" enable-background="new    " d="M1123.2,328.4c0,0.5,0.1,0.9,0.1,1.4c0,0.2,0,0.5,0.1,0.7
			s0.2,0.4,0.2,0.7c0,0.4,0.7,0.7,0.9,0.2c0.1-0.3,0.3-0.5,0.4-0.7s0.1-0.5,0.2-0.8c0.1-0.6,0.1-1.2,0-1.8
			C1124.9,327.1,1123.1,327.3,1123.2,328.4z"/>
		<path opacity="0.35" fill="#E8FFFA" enable-background="new    " d="M1088.9,375.5c0-0.4-0.4-0.7-0.8-0.5
			c-2.1,1.2-2.3,4.2-2.7,6.3c-0.2,0.8,1,1.1,1.3,0.3C1087.4,379.8,1089.1,377.7,1088.9,375.5z"/>
		<path opacity="0.35" fill="#E8FFFA" enable-background="new    " d="M1134.2,385.7c-0.4,0.1-0.8,0.1-1.1,0.2
			c-0.4,0.1-0.7,0.5-1,0.7s-0.6,0.5-0.8,0.7c-0.2,0.1-0.4,0.3-0.5,0.4c-0.1,0.2-0.3,0.1,0,0.1c-0.8,0.1-1.3,1.2-0.4,1.6
			c1,0.5,1.7-0.2,2.5-0.8c0.4-0.3,0.9-0.7,1.2-1.1c0.4-0.4,0.5-0.9,0.7-1.4C1134.9,385.9,1134.5,385.6,1134.2,385.7z"/>
		<path opacity="0.35" fill="#E8FFFA" enable-background="new    " d="M1132.7,390.5c-0.6,0.5-1.2,0.9-1.9,1.3
			c-1.1,0.7-0.1,2.5,1,1.8c1-0.6,2.1-1.3,2.7-2.3c0.2-0.3,0.1-0.6,0-0.8C1134.2,389.6,1133.2,390.1,1132.7,390.5z"/>
		<path opacity="0.35" fill="#E8FFFA" enable-background="new    " d="M1158.3,414.9c-0.8,0.5-1.5,1.1-2.2,1.7
			c-0.5,0.5-1.3,1.3-1.2,2.1c0,0.2,0.2,0.5,0.4,0.4c0.8,0,1.3-0.7,1.8-1.1c0.7-0.6,1.4-1.1,2-1.6
			C1160.1,415.7,1159.3,414.3,1158.3,414.9z"/>
		<path opacity="0.35" fill="#E8FFFA" enable-background="new    " d="M1161.9,415.5c-0.8-0.1-1.4,0.3-1.9,0.9
			c-0.4,0.5-0.9,1.2-0.7,1.9c0.1,0.3,0.4,0.4,0.6,0.4c0.6-0.1,1.1-0.7,1.4-1.1c0.5-0.5,0.9-0.8,1-1.6
			C1162.3,415.8,1162.1,415.5,1161.9,415.5z"/>
		<path opacity="0.35" fill="#E8FFFA" enable-background="new    " d="M1172.3,377.7c-1-0.1-2,1-2.8,1.6c-1,0.8-2,1.7-3.1,2.5
			c-0.7,0.5-0.1,1.6,0.7,1.1c1-0.6,2-1.4,2.9-2.2c0.8-0.7,2.4-1.5,2.6-2.6C1172.6,377.8,1172.5,377.7,1172.3,377.7z"/>
		<path opacity="0.35" fill="#E8FFFA" enable-background="new    " d="M1182,383.9c-1.2,0.2-2.2,1.1-3.2,1.7
			c-1.1,0.7-2.3,1.3-3.5,1.9c-0.7,0.3-0.2,1.5,0.5,1.3c1.3-0.5,2.6-1.1,3.8-1.7c1.1-0.6,2.4-1.2,3-2.3
			C1182.9,384.3,1182.5,383.9,1182,383.9z"/>
		<path opacity="0.35" fill="#E8FFFA" enable-background="new    " d="M1120.3,345.1c0-0.2-0.3-0.3-0.4-0.3s-0.2,0-0.3,0
			c-0.2,0-0.4,0.2-0.4,0.4c-0.3,1.1-1.4,1.4-2.2,2.2c-0.6,0.7-1.3,1.3-2,1.9c-0.5,0.5,0.2,1.5,0.8,1c0.8-0.6,1.6-1.3,2.4-2
			c0.8-0.8,0.9-1.9,1.9-2.5c0.3-0.1,0.3-0.4,0.3-0.7C1120.3,345.3,1120.3,345.2,1120.3,345.1z"/>
		<path opacity="0.35" fill="#E8FFFA" enable-background="new    " d="M1111.3,342.9c-1.1-0.4-1.8,1.6-2.1,2.3
			c-0.5,1.1-0.8,2.4-0.6,3.7c0,0.3,0.4,0.2,0.5,0.1c0.9-1.2,1.4-2.6,2.1-3.9C1111.5,344.5,1112.3,343.3,1111.3,342.9z"/>
		<path opacity="0.35" fill="#E8FFFA" enable-background="new    " d="M1180.9,348.7c1.6,1.3,3.5,2.5,5.3,3.6c2.4,1.5,4,2.8,5.8,5.1
			c3.3,4.2,7.6,6.9,11.7,10.2c0.5,0.4,1.4,0.5,1.8,0c1.1,1.1,2.2,2.1,3.4,3c1.1,0.9,2.3,1.6,3.4,2.5c1.3,1.1,2.2,2.5,3.5,3.5
			c0.8,0.7,1.9-0.1,1.4-1.1c-1.1-2.5-4.1-4.8-6.1-6.5c-2.4-2.2-5.1-3.9-7.2-6.4c-0.8-1-2.2,0.2-1.8,1.2c-3.7-2.5-6.8-5.5-10-8.7
			c-1.5-1.5-2.6-3-4.3-4.3c-1.9-1.4-4.3-2-6.3-3.2c-2.2-1.3-2.7-3-4.4-4.6c-0.4-0.4-2.4-1.3-2.8-1.5c-3.1-2.2-2.6-3.6-7.1-3
			c-0.9,0.1-0.9,1.3,0,1.4c3.9,0.3,4,3.7,7.1,4.6c0.8,0.2,1.6,0.1,2.4,0.5C1178.4,345.7,1179.5,347.6,1180.9,348.7z"/>
		<path opacity="0.35" fill="#E8FFFA" enable-background="new    " d="M1223.8,382.8c-1.4,0.6-2.8,1.3-4.1,2.1
			c-0.6,0.4-0.2,1.3,0.5,1.1c1.5-0.3,3.1-1.1,4.4-1.8C1225.6,383.7,1224.7,382.4,1223.8,382.8z"/>
		<path opacity="0.35" fill="#E8FFFA" enable-background="new    " d="M1190.4,409.4c0.3-0.5-0.1-1.3-0.7-1.2
			c-1.2,0.2-2.2,1-3.3,1.7c-0.8,0.5-2.2,1.2-2.4,2.3l0,0c-0.1,0.3,0,0.6,0.3,0.7c1,0.3,2.2-0.6,3.1-1.1
			C1188.5,411,1189.7,410.5,1190.4,409.4z"/>
		<path opacity="0.35" fill="#E8FFFA" enable-background="new    " d="M1193.3,409.9c0.3-0.5-0.2-1.2-0.8-1c-1,0.3-1.8,1.2-2.6,1.9
			c-0.9,0.8-1.8,1.5-2.7,2.4c-0.5,0.5,0.2,1.4,0.7,1c1-0.7,1.9-1.4,2.9-2.1C1191.7,411.4,1192.8,410.8,1193.3,409.9z"/>
		<path opacity="0.35" fill="#E8FFFA" enable-background="new    " d="M1221,410c0,0.4,0,0.7-0.1,1.1c-0.4-0.4-0.9-0.8-1.4-1.3
			c-0.1-0.1-0.2-0.1-0.2-0.1c0.2-1.2-1.7-1.6-2.1-0.4c-0.1,0.2-0.2,0.8-0.4,1.4c-0.2-0.2-0.5-0.3-0.9-0.4s-0.9,0-1.3,0.2
			c-0.1,0-0.2,0.1-0.3,0.2c-0.6-1.6-1.5-3.1-2.3-4.5c0,0,0-0.1-0.1-0.1c-0.1-0.2-0.2-0.4-0.4-0.5c0,0-0.1,0-0.1-0.1
			c-0.3-0.2-0.6-0.2-0.9,0c0-0.1,0-0.3-0.1-0.4l-0.1-0.1c-0.2-0.3-0.5-0.5-0.8-0.5h-0.1c-0.4,0-0.8,0.3-0.9,0.7
			c-0.3,0.9,0,2.1,0.1,3.1c-0.5-0.1-1,0-1.4,0.5c-0.5,0.6-0.9,1.2-1.5,1.7c-0.6-0.3-1.2-0.7-1.5-1.2c-0.2-0.3-0.6-0.4-0.9-0.2
			c-0.5,0.3-1.1,1-1.6,1.2c-0.2,0.1-0.6,0-1-0.1c0-0.1-0.1-0.2-0.2-0.3c-0.1-0.1-0.1-0.1-0.2-0.2c-0.2-0.2-0.5-0.2-0.7-0.1
			c-0.1-0.1-0.3-0.2-0.5-0.3c-1.5-0.3-3,0.5-4.2,1.5c-0.7,0.5-1.3,1.1-2,1.6s-1.5,0.8-2.1,1.4c-0.4,0.4-0.2,1.2,0.3,1.3
			c1.5,0.3,2.8-0.7,3.9-1.5c0.3-0.2,0.5-0.4,0.8-0.6c0,0.4,0.3,0.8,0.8,0.8c0.9,0,1.7-0.4,2.4-1c0.3-0.3,0.7-0.5,1-0.8
			c0.5,0.2,1,0.5,1.6,0.5c0.5,0.1,0.9-0.1,1.2-0.5c0.3-0.4,0.3-0.8,0.5-1.2c0.4,1,1.3,1.9,2.3,2.1c0.9,0.2,2-0.5,2.8-1.4
			c0,0.3,0,0.7,0.1,1c0.1,0.5,0.7,0.6,1.1,0.3c0.8-0.9,0.9-2.1,1-3.2c0.1-0.5,0-1.1,0-1.6c0,0.1,0.1,0.1,0.1,0.2
			c0.6,1.3,0.6,2.6,0.9,4c0.1,0.2,0.3,0.5,0.6,0.6c0.1,0,0.1,0,0.2,0l0,0c0.2,0,0.4-0.1,0.6-0.3v0.1c0.1,0.3,0.4,0.7,0.8,0.8
			c0.5,0.1,0.9,0.1,1.3-0.2c0.5-0.3,0.6-1,0.9,0c0.2,0.7,1,1,1.6,0.7c0.9-0.5,1.3-1.8,1.6-2.9c0.3,0.7,0.6,1.4,1,2.1
			s0.8,1.5,1.8,1.4c1.9-0.3,1.3-3.1,1.2-4.4C1222.9,408.7,1221.1,408.7,1221,410z"/>
		<path opacity="0.35" fill="#E8FFFA" enable-background="new    " d="M1227.8,410.9c-0.3,0.5-0.3,0.9-0.4,1.4
			c0,0.6-0.1,1.1-0.3,1.7c-0.2,1,1.4,1.5,1.6,0.4c0.2-1,0.6-2.6-0.1-3.6C1228.5,410.6,1228,410.5,1227.8,410.9z"/>
		<path opacity="0.35" fill="#E8FFFA" enable-background="new    " d="M1236.5,412.8c0.6-0.4-0.2-1.4-0.7-1c-1.6,1-3.1,2.1-4.6,3.3
			c-0.7,0.6,0.3,1.7,1.1,1l0,0C1233.6,415.1,1235,413.9,1236.5,412.8z"/>
		<path opacity="0.35" fill="#E8FFFA" enable-background="new    " d="M1237.9,413.7c-0.8,0.3-1.4,0.7-2.1,1.3
			c-0.6,0.5-1.4,1-1.3,1.9c0.1,0.3,0.4,0.4,0.6,0.5c0.7,0.1,1.3-0.8,1.8-1.2c0.6-0.5,1.1-1,1.7-1.5
			C1239.2,414.1,1238.5,413.4,1237.9,413.7z"/>
		<path opacity="0.35" fill="#E8FFFA" enable-background="new    " d="M1242.5,415.2c0.1-1-1.6-1.5-2-0.5c-0.3,0.6-0.3,1.6-0.7,2.1
			c-0.5,0.6-1.3,0.8-2,1c-0.8,0.3-0.4,1.5,0.3,1.3c0.9-0.3,1.6-0.9,2.3-1.5l0.1-0.1c0,0.3,0.1,0.7,0.1,1s0.4,0.5,0.7,0.3
			c0.3-0.3,0.9-0.5,1.2-0.8c0.2-0.1,0-0.3-0.2-0.3c-0.1,0.1-0.3,0.2-0.5,0.3c0.2-0.3,0.4-0.6,0.5-0.9
			C1242.4,416.5,1242.5,415.8,1242.5,415.2z"/>
		<path opacity="0.35" fill="#E8FFFA" enable-background="new    " d="M1243.2,416.7c-0.1,0.1-0.2,0.2-0.4,0.3
			c-0.2,0.2,0.1,0.6,0.3,0.3c0.1-0.1,0.2-0.2,0.3-0.4C1243.6,416.8,1243.4,416.5,1243.2,416.7z"/>
		<path opacity="0.35" fill="#E8FFFA" enable-background="new    " d="M1255.1,419.7c0.7-0.5,0.3-1.8-0.6-1.5
			c-0.3,0.1-0.7,0.3-1,0.4c-0.8-2.9-2.3-5.4-3.8-8c-0.1-0.2-0.3-0.4-0.5-0.5c-0.9-1.8-2.6-2.9-4.1-4.6c0,0,0,0-0.1-0.1
			c-0.7-1.8-1.6-3.2-2.7-4.6c0,0,0-0.1-0.1-0.1c-2.1-3-4.8-5.7-8-7.6c-0.6-0.5-1.3-1-2-1.3c-0.1-1-0.6-1.9-1.4-2.8
			c-0.3-0.3-1-0.5-1.4-0.2s-0.7,0.5-1.1,0.8c0.1-0.7,0.1-1.5-0.2-2.3c-0.1-0.3-0.6-0.3-0.7,0c-0.2,1.1-0.5,2.2-1.2,3.2
			c-0.5,0.6-0.2,1.8,0.7,1.7c0.9-0.1,1.6-0.2,2.3-0.6c0.1,0.5,0.2,1,0.2,1.5c-0.1,0.3-0.1,0.5-0.1,0.9c-0.1,1.5,2.1,1.6,2.5,0.3
			c-0.1,0.7,1.7,2.1,2.1,2.7c1.2,1.6,2.3,3.2,2.2,5.2c-0.1,1.5,2,1.6,2.5,0.3c0.2-0.5,0.3-0.9,0.3-1.3c1.3,1,2.1,2.3,1.6,4.1
			c-0.4,1.3,1.4,1.8,2,1c0.4,1.4,0.7,2.8,1.3,4c0.5,0.9,1.6,0.6,2-0.1c0.6,0.8,1.1,1.6,1.3,2.5c0.2,0.9,1,1,1.7,0.7
			c1.2,1.8,1.6,3.8,1.9,6c-0.1,0-0.2,0-0.3,0c0-0.4-0.3-0.8-0.8-0.9c-0.9-0.3-2.2,0.3-2.8-0.1c-0.7-0.4-0.7-2.1-1.2-3
			c-0.3-0.5-1-0.5-1.3,0c0,0.1-0.1,0.1-0.1,0.2c-0.1,0.1-0.1,0.2,0,0.3v0.9c0,0.6,0.1,1.2,0.2,1.7s0.2,1.1,0.5,1.5
			c0.9,1.1,2,0.6,3.1,0.4c0,0.1,0.1,0.3,0.2,0.4c0.6,0.9,2.5,1.2,3.5,1.2l0,0c0,0.2,0.1,0.4,0.4,0.6c1,0.6,2.6,0.3,2.7-1.1
			c0-0.3-0.3-0.6-0.6-0.5c-0.3,0.1-0.5,0.1-0.8,0.2c-0.2,0.1-0.3,0.1-0.5,0c0-0.1,0.1-0.1,0.1-0.2
			C1253.5,420.7,1254.5,420.1,1255.1,419.7z"/>
		<path opacity="0.35" fill="#E8FFFA" enable-background="new    " d="M1216.9,396.2c0-0.2-0.2-0.2-0.4-0.2
			c-0.6,0.1-0.9,0.6-1.2,1.1c-0.4,0.5-0.8,1.2-1.3,1.6c-0.7,0.5-0.5,1.7,0.5,1.7c0.5,0,0.9-0.2,1.2-0.7c0.2-0.3,0.2-0.6,0-0.8
			c0.2-0.4,0.4-0.7,0.7-1.1C1216.6,397.2,1217,396.8,1216.9,396.2z"/>
		<path opacity="0.35" fill="#E8FFFA" enable-background="new    " d="M1219.2,399.2c0.5-0.4,0.6-1,0.8-1.5c0.2-0.8-1-1.4-1.4-0.6
			c-0.2,0.6-0.6,1.1-0.4,1.7C1218.4,399.2,1218.9,399.5,1219.2,399.2z"/>
		<path opacity="0.35" fill="#E8FFFA" enable-background="new    " d="M1089.1,434c-0.6,0.1-0.7,0.3-1,0.8c-0.2,0.4-0.4,0.9-0.6,1.3
			c-0.1,0.4,0.1,0.9,0.5,1.1s0.9,0.1,1.2-0.2c0.1-0.1,0.2-0.1,0.3-0.2c0.3-0.2,0.3-0.7,0.2-1c0-0.2,0.1-0.5,0.1-0.8
			C1089.9,434.7,1089.7,434,1089.1,434z"/>
		<path opacity="0.35" fill="#E8FFFA" enable-background="new    " d="M1097.6,434.5c0.1,0.1-0.1-0.2-0.1-0.2
			c-0.1-0.3-0.1-0.6-0.1-0.8c-0.1-0.6-0.5-1.4-1.1-1.5c-0.4-0.1-0.8,0.1-0.9,0.5c-0.1,0.3,0,0.6,0.1,0.9c0,0.3,0,0.6,0,0.9
			c0,0.7,0.2,1.4,0.7,1.9c0.4,0.4,1.1,0.4,1.5,0s0.5-1.2,0-1.5C1097.5,434.5,1097.6,434.7,1097.6,434.5z"/>
		<path opacity="0.35" fill="#E8FFFA" enable-background="new    " d="M1118.8,428.8c-0.2-0.3-0.4-0.5-0.6-0.8
			c-0.5-0.6-1.7-0.1-1.6,0.7c0,0.3,0,0.7,0.1,1s0.2,0.7,0.3,1.1c0.3,0.6,1,1.2,1.7,0.9c0.7-0.3,0.8-1.2,0.6-1.8
			C1119.2,429.4,1118.9,429.1,1118.8,428.8z"/>
		<path opacity="0.35" fill="#E8FFFA" enable-background="new    " d="M886.5,345.6c-2,1.6-3.4,3.8-4.7,5.9
			c-0.8,1.2-2.8,3.4-1.9,4.9c0.1,0.2,0.3,0.2,0.4,0.1c1.4-0.7,2.2-2.9,3.1-4.1c1.4-2,3-3.7,4.6-5.4
			C888.9,346,887.6,344.8,886.5,345.6z"/>
		<path opacity="0.35" fill="#E8FFFA" enable-background="new    " d="M894.3,346.4c-1.6,0.5-2.6,2.5-3.5,3.8
			c-1.3,1.8-2.5,3.7-3.5,5.8c-0.4,0.8,0.7,1.4,1.2,0.7c1.2-1.9,2.6-3.8,4-5.6c1-1.3,2.5-2.4,2.7-4.1
			C895.1,346.6,894.7,346.3,894.3,346.4z"/>
		<path opacity="0.35" fill="#E8FFFA" enable-background="new    " d="M960.5,361.1c-0.1-0.4-0.4-0.5-0.7-0.4
			c-0.4-1.4-0.6-2.8-0.7-4.3c0-0.5-0.8-0.7-0.9-0.1c-0.6,2.1-0.5,4.1,0.3,6.1c0.2,0.5,0.8,0.9,1.4,0.5
			C960.6,362.4,960.7,361.9,960.5,361.1z"/>
		<path opacity="0.35" fill="#E8FFFA" enable-background="new    " d="M964.5,360.5c0.4,0.3,1,0.1,1.3-0.3c0.4-0.8,0.1-1.6-0.1-2.4
			c-0.1-0.7-0.2-1.6-0.7-2.1c-0.2-0.2-0.6-0.2-0.8,0c-0.6,0.5-0.6,1.7-0.6,2.4C963.6,358.9,963.7,360,964.5,360.5z"/>
		<path opacity="0.35" fill="#E8FFFA" enable-background="new    " d="M962.7,404.7c0-1-0.2-1.9-0.5-2.8c-0.3-1.1-1.8-0.6-1.7,0.5
			c0.2,1.7-1.3,5.8,1,6.6c0.8,0.3,1.7-0.6,1.4-1.4C962.7,406.6,962.8,405.6,962.7,404.7z"/>
		<path opacity="0.35" fill="#E8FFFA" enable-background="new    " d="M964.7,400.5c-0.5-1.2-2.3-0.8-2,0.5s0.6,2.5,1,3.8
			c0.3,1,0.7,2.3,1.9,2.5c0.7,0.1,1.3-0.3,1.4-1c0.1-0.9-0.7-1.8-0.9-2.6C965.6,402.6,965.1,401.5,964.7,400.5z"/>
		<path opacity="0.35" fill="#E8FFFA" enable-background="new    " d="M966.8,263.2c0.6,5,0.3,10.8,2.1,15.6
			c0.3,0.8,1.4,0.7,1.5-0.2c0.4-5.1-1.5-10.5-2.4-15.5C967.9,262.4,966.8,262.5,966.8,263.2z"/>
		<path opacity="0.35" fill="#E8FFFA" enable-background="new    " d="M979.3,262.6c-1.5,4.4-3.7,8.9-4.6,13.4
			c-0.1,0.7,0.9,1.3,1.3,0.5c2-4.3,2.9-9.2,4.2-13.7C980.4,262.3,979.5,262.1,979.3,262.6z"/>
		<g opacity="0.3">
			<path opacity="0.3" fill="#091426" enable-background="new    " d="M624,505c12.2-27.5,49.9-67.9,64.5-85.5s33.2-41.2,108.5-60
				s101.5-22.6,131.7-23.5s55,1,13.9-7.8c-41.1-8.7-49.8-23-19.1-24.7c27.5-1.6,80-2.2,130.2,4.3c-7.5-4.4-15.9-9.7-24.6-15.7
				c-30.3-20.8-30.3-19.7-86.1-22.2c-66.8-3-110.2,13.5-110.2,13.5s6.4,5.7,11.6,14.2c5.2,8.5,12.5,17.9-13,21.8
				s-59.2,25.1-84.7,42.2c-25.4,17.2-35.7,38.2-63.7,55.7s-73.7,17.8-95.6,10.7c0,0-0.7,12.4-0.2,20.6c0,0-8.2,15.3-16.5,36.2
				c2.2,2.7,4.4,5.3,6.3,8.2c1.1,1.6-1.6,3.1-2.6,1.5c-1.6-2.5-3-5.1-4.5-7.6c-0.7,1.8-1.4,3.6-2.1,5.5c2.1,1.3,4.2,2.6,6.4,3.9
				c2.1,1.2-0.2,4.3-2,2.6c-1.7-1.6-3.3-3.2-5-4.7c-6,16.1-11.4,34.3-13.3,51c-4.7,41.4,1.9,88.6,4.6,108.9c2.7,20.3,7.7,34,7.7,34
				c4.6,10.6,9.8,14.3,17,0c5.1-10.3,14.9-41.4,26.1-66.9C604.2,567.1,613.4,528.8,624,505z"/>
			<path opacity="0.3" fill="#091426" enable-background="new    " d="M928.7,336c-30.2,0.9-56.5,4.8-131.7,23.5
				s-93.9,42.4-108.5,60s-52.2,58-64.5,85.5c-10.6,23.8-19.8,62.1-14.9,116.1c-11.2,25.5-21,56.6-26.1,66.9
				c-7.2,14.3-12.3,10.6-17,0c0,0-5-13.7-7.7-34s-9.2-67.5-4.5-108.9c1.9-16.7,7.3-34.9,13.3-51c-1.4-1.3-2.9-2.6-4.4-3.8
				c-0.8-0.6,0.1-1.7,0.8-1.1c1.4,1.1,2.8,2.1,4.3,3.1c0.7-1.9,1.4-3.7,2.1-5.5c-0.7-1.2-1.4-2.4-2.2-3.6c-0.4-0.7,0.6-1.4,1.1-0.8
				c0.6,0.8,1.3,1.6,1.9,2.4c8.3-20.8,16.5-36.2,16.5-36.2c-0.4-8.2,0.2-20.6,0.2-20.6c21.9,7.2,67.6,6.8,95.6-10.7
				s38.2-38.5,63.7-55.7c25.4-17.2,59.2-38.3,84.7-42.2c25.5-3.9,18.2-13.3,13-21.8s-11.6-14.2-11.6-14.2s43.5-16.5,110.2-13.5
				c55.8,2.5,55.8,1.3,86.1,22.2c8.7,6,17,11.2,24.6,15.7c-50.2-6.5-102.7-5.8-130.2-4.3c-30.8,1.8-22,16,19.1,24.7
				C983.7,337,958.9,335.1,928.7,336z"/>
		</g>
	</g>
</g>
</svg>
