<?xml version="1.0" encoding="utf-8"?>
<!-- Generator: Adobe Illustrator 23.0.1, SVG Export Plug-In . SVG Version: 6.00 Build 0)  -->
<svg version="1.1" id="Layer_1" xmlns="http://www.w3.org/2000/svg" xmlns:xlink="http://www.w3.org/1999/xlink" x="0px" y="0px"
	 viewBox="0 0 2000 2000" enable-background="new 0 0 2000 2000" xml:space="preserve">
<g>
	<g id="Masked">
		<g id="_x31_9_x5F_Hair_x5F_SoftWavesShort_x5F_Main_Asset_x5F_Masked">
			<path fill="#9F592A" d="M1089.3,409.5c4.6,0.6,9,1.3,12.7,2c15.5,3,52.2,7.7,83.7,1.8C1153.8,410.6,1121.6,409.3,1089.3,409.5z"
				/>
			<path fill="#9F592A" d="M795.9,458c42.6-2.5,83.2-17.3,98-28.9c0,0-5.3,15.3-10.7,23.8s-17.9,17.6-17.9,17.6s13.4,2.8,48.8-18.8
				c21.4-13.1,39.6-26.6,64.7-35.9c-72.2,7.1-146.3,19.5-217.7,40.6C770.9,457.9,782.6,458.8,795.9,458z"/>
			<path fill="#9F592A" d="M551.2,576.5c-1.9,18.9,6.2,71,11.3,93.3c6.1,24.9,15.2,53.8,15.2,53.8c15.8-38.3,30.3-113.4,30.3-113.4
				s34.5-11.9,46.8-32.8c11.2-19,36.9-81.9,48-101.5c-52.5,19.7-102.9,45-149.2,77.1C552.6,561.6,551.9,569.6,551.2,576.5z"/>
		</g>
		<g id="_x31_9_x5F_Hair_x5F_SoftWavesShort_x5F_Highlights_x5F_Masked">
		</g>
		<g id="_x31_9_x5F_Hair_x5F_SoftWavesShort_x5F_Shadows_x5F_Masked">
			<path fill="none" d="M903.6,445.8c2-0.9,3.9-2.1,5.9-3.8c4.4-3.8,8.2-8.1,11.8-12.6c2-2.6,4.1-5.2,6.3-7.7
				c-1.2,0.2-2.3,0.3-3.5,0.5c-3.1,3.8-6.2,7.6-9.2,11.4C911.9,437.3,908.1,442.3,903.6,445.8z"/>
			<path fill="none" d="M909.2,448.4c0.8-0.1,1.6-0.4,2.4-0.6c4.9-1.5,31.1-18.6,50.7-30.3c-10.2,1.1-20.4,2.3-30.6,3.7
				c-4.3,5-7.9,10.4-11.7,15.6C916.8,441.1,913.5,445.3,909.2,448.4z"/>
			<path fill="none" d="M901,441.6c1.7-1.2,3.4-2.5,4.9-4.1c3.9-4.1,7.4-8.7,10.9-13.1c0.4-0.5,0.7-0.9,1.1-1.3
				c-3.8,0.5-7.5,1.1-11.3,1.7c-2.2,4.5-4,9.2-5.9,13.9C900.7,439.7,900.8,440.7,901,441.6z"/>
			<path opacity="0.3" fill="#091426" enable-background="new    " d="M551.2,576.6c-1.9,18.9,6.2,71,11.3,93.3
				c5.6,24.6,14.7,53.4,14.7,53.4c12.3-29.8,23.8-82,28.3-103.6c-1.1-1.9-2.3-4.3-3.5-6.7c1.9-0.8,3.7-1.8,5.5-3v-0.1
				c0,0,0.1,0,0.2-0.1c1.2-0.8,2.3-1.7,3.4-2.6c5.3-3.6,11.5-7,15.2-12c0.3-0.4-0.3-0.7-0.6-0.5c-4.5,3.6-9.1,7.1-13.8,10.3
				c-3.6,2.4-6.9,4-10.6,5.1c-0.1-0.2-0.2-0.4-0.2-0.6c1.6-1.2,3.1-2.7,4.4-4.3c0.1,0.3,0.5,0.6,0.9,0.5c1.5-0.4,2.7-1.6,3.9-2.5
				c1.1-0.8,2.7-1.5,3.4-2.8c0.1-0.2-0.1-0.4-0.3-0.3c-1.4,0.3-2.6,1.5-3.8,2.1c-0.9,0.5-1.9,0.9-2.8,1.4c1.9-2.4,3.5-5,5.1-7.5
				c0.3-0.5-0.4-1.1-0.9-0.7c-2.4,2.3-3.2,5.7-5.5,8.2c-1.5,1.7-3.3,3.1-5,4.6c-0.1-0.2-0.2-0.5-0.3-0.7c1.3-1.5,2.6-3.1,4-4.6
				c0.5-0.6-0.3-1.4-0.9-0.9c-1.2,1.2-2.4,2.3-3.9,3.1c-0.5-1.8-0.8-3.4-0.6-4.6c0.6-4.9,4-33.4,8.3-58.6c-1.5,2.5-2.6,5.5-4.7,7.4
				c-0.4,0.4-1.2,0.1-1.2-0.5c0-3.2,2.2-6.6,3.4-9.5c1.2-2.7,2.7-5.4,4.3-7.8c0.4-2.2,0.9-4.4,1.3-6.5c-1.3,1.2-2.6,2.3-3.9,3.5
				c-0.6,0.5-1.6-0.2-1.2-0.9c1-1.5,1.9-3.1,2.7-4.7c-0.5,0.3-1,0.5-1.6,0.6c-0.5,0.1-1.2-0.3-1-1c0.3-0.8,0.7-1.6,1.3-2.3
				c-18.1,10.1-35.8,21-52.9,32.9C552.6,561.6,551.9,569.7,551.2,576.6z"/>
			<path opacity="0.3" fill="#091426" enable-background="new    " d="M637.8,517.6c-1.2,2.3-2.6,4.5-4,6.8c-1,1.6-2.1,3.1-3,4.7
				c-0.3,0.3-0.5,0.6-0.8,0.9c-0.6,0.9,0.5,1.8,1.3,1.3c2.1-1.1,3.6-3.2,5.2-5c1.3-1.4,3.3-2.8,3.9-4.6c0.1-0.2-0.2-0.4-0.3-0.3
				c-1.7,1.1-3.2,2.6-4.8,3.9c1.3-2.4,2.4-4.9,3.5-7.1C639.3,517.5,638.2,516.8,637.8,517.6z"/>
			<path opacity="0.3" fill="#091426" enable-background="new    " d="M647.8,517.1c0.2-0.3-0.2-0.5-0.4-0.2
				c-1.1,1.5-2.4,2.7-3.6,4.1c-1,1.1-2,2.3-3.2,3.2c-0.3,0.2-0.4,0.5-0.3,0.9v0.1c0.1,0.4,0.4,0.6,0.8,0.7l0.1,0.1
				c0.3,0.2,0.7,0.2,0.9,0c1.4-0.9,2.7-2,3.9-3.2c1-1,2.1-2.2,2.6-3.5c0.1-0.3-0.3-0.4-0.4-0.1c-0.2,0.5-0.9,0.9-1.3,1.2
				c-0.6,0.5-1.2,1-1.8,1.5c-0.2,0.2-0.4,0.3-0.6,0.5c0-0.1,0.1-0.1,0.1-0.2C645.8,520.4,646.8,518.7,647.8,517.1z"/>
			<path opacity="0.3" fill="#091426" enable-background="new    " d="M647.6,534.2c-2.3,3.3-5.3,6.1-8.4,8.9
				c1.9-2.8,3.7-5.7,5.6-8.5c0.1-0.1,0.1-0.3,0.1-0.4c0.3-0.4,0.6-0.8,0.9-1.2c0.4-0.6-0.6-1.2-1-0.6c-2.6,3.8-5.1,7.3-8.5,10.4
				c-3.1,2.8-6.6,5-9.5,7.9c-0.8,0.7,0.2,2,1.1,1.4c3.9-2.2,6.9-5.7,9.7-9c0.1-0.1,0.1-0.2,0.2-0.2c-1.3,1.7-2.6,3.4-4,5
				c-1.6,1.6-3,3.1-4.3,4.7c-0.7,0.7,0.2,1.9,1,1.3c3.6-2.6,6.7-6,9.9-9.1s6.1-6,8.5-9.8C649.4,534.1,648.1,533.4,647.6,534.2z"/>
			<path opacity="0.3" fill="#091426" enable-background="new    " d="M647.6,559.3c4.4-2.6,8-6.8,11.6-10.3c4.1-4,8.2-8,12-12.3
				c0.2-0.3-0.1-0.7-0.4-0.4c-4,3.7-7.8,7.5-11.9,11.1c-4,3.6-8.7,6.7-12.1,10.8C646.3,558.8,646.8,559.7,647.6,559.3z"/>
			<path opacity="0.3" fill="#091426" enable-background="new    " d="M676.7,529.4c-2,7.7-8.2,13.4-13.2,19.4
				c-2.3,1.9-4.3,4.2-6.5,6.2c-3.3,2.9-6.8,5.6-10.2,8.5c-0.5,0.4,0.1,1.3,0.7,0.9c3-1.8,5.9-4,8.6-6.2c-1.7,2.3-3.4,4.7-4.9,7.1
				c-0.8,1.3,1.1,2.3,2,1.2c3.7-5.3,7.5-10.5,11.4-15.7c0.9-0.9,1.7-1.9,2.3-2.9c0-0.1,0.1-0.2,0.1-0.2c2.2-2.9,4.6-5.8,6.5-8.9
				c1.2-2.7,2.5-5.5,3.7-8.2c0.1-0.3,0.1-0.6,0.2-0.8C677.5,529.1,676.8,528.9,676.7,529.4z"/>
			<path opacity="0.3" fill="#091426" enable-background="new    " d="M665.9,494.7c-0.3,0.4,0.3,0.9,0.6,0.5
				c1.7-2.2,3.4-4.4,4.9-6.7c-0.7,0.3-1.5,0.6-2.2,0.9C668.2,491.2,667.1,493,665.9,494.7z"/>
			<path opacity="0.3" fill="#091426" enable-background="new    " d="M660.8,505.2c-0.2,0.3,0.3,0.6,0.5,0.4
				c7.9-7.4,15.5-15.1,23.3-22.6c-2.1,0.8-4.2,1.7-6.2,2.5C671.7,491.3,665.5,498.1,660.8,505.2z"/>
			<path opacity="0.3" fill="#091426" enable-background="new    " d="M911.6,447.8c-0.8,0.2-1.6,0.5-2.4,0.6
				c4.3-3.1,7.6-7.3,10.8-11.6c3.9-5.2,7.4-10.7,11.7-15.6c-1.4,0.2-2.8,0.4-4.1,0.5c-2.2,2.5-4.2,5.1-6.3,7.7
				c-3.6,4.5-7.4,8.8-11.8,12.6c-2,1.7-3.9,2.9-5.9,3.8c4.5-3.5,8.3-8.5,11.3-12.2c3-3.8,6.1-7.6,9.2-11.4c-2.1,0.3-4.1,0.6-6.2,0.9
				c-0.4,0.5-0.7,0.9-1.1,1.3c-3.5,4.4-7,9-10.9,13.1c-1.5,1.6-3.2,2.9-4.9,4.1c-0.2-0.9-0.3-1.9-0.3-3c1.8-4.7,3.7-9.4,5.9-13.9
				c-13,2-26,4.1-39,6.5c-9.8,9.6-27.4,18.4-66.3,24.1c-10.9,1.6-20.1,2.6-27.8,3.3c7,0.5,14.6,0.7,22.8,0.2
				c42.6-2.5,83.2-17.3,98-28.9c0,0-5.3,15.3-10.7,23.8s-17.9,17.6-17.9,17.6s13.4,2.8,48.8-18.8c22.4-13.6,41.2-27.8,68-37.1
				c-6.7,0.6-13.4,1.3-20.2,2.1C942.7,429.2,916.5,446.3,911.6,447.8z"/>
		</g>
	</g>
	<g id="Original">
		<g id="_x31_9_x5F_Hair_x5F_SoftWavesShort_x5F_Main_Asset_1_">
			<path fill="#9F592A" d="M577.7,723.6c15.8-38.3,30.3-113.4,30.3-113.4s34.5-11.9,46.8-32.8c12.2-20.8,41.8-93.8,50.6-105.7
				s21.1-25.3,21.1-25.3s26.8,14.1,69.4,11.6s83.2-17.3,98-28.9c0,0-5.3,15.3-10.7,23.8s-17.9,17.6-17.9,17.6s13.4,2.8,48.8-18.8
				s61.9-44.5,125.1-47.3c0,0,41.2,3,62.8,7.1c21.6,4.2,84,11.5,116.4-10.4c32.5-21.9,36.8-48.8,28-66.1
				c-8.8-17.3-22.2-20.5-18.8-30.1s14.2-2.4,16.6-0.9c2,1.3,1.3-2.7-3.3-4.3c-4.5-1.6-17.8-4.6-17.9,11c0,0-2.9-5.9-5-9.5
				c0,0-0.8-19.9-7.5-29.7s-16.5-17.7-16.5-17.7s1.4,12.8-6.5,23.9c-9.9,14-37.5,40-37.5,40s1.6-11.7-5.2-32.2s-32.2-43.7-32.2-43.7
				s-14.8-20.6-43.5-32.2c-28.7-11.6-32.2-21.7-67.2-26.7c-35-5-74.8,5.6-100.3,13.7c-25.5,8.1-51.1,18.7-69.3,17.9
				s-25-24.6-24-36.6s10.5-16.3,16.8-15.7c6.3,0.7,10.8,3,13.5,3.2s2.8-2.8-8.2-4.5s-15.8,0.2-25,4.3s-16.9,13-19,19.5
				s-3.2,24.1,5.5,38.3c8.8,14.1,27,21.2,27,21.2s-10.6,2.8-15.2,4.7c0,0,14.6,15.5,23.5,27.4c5.7,7.6,15.3,24.7,15.3,24.7
				s-28,11-46.8,28.7s-43.2,33.9-55.7,40.5s-40.7,15.2-53.5,7.3c-12.8-7.8-1.7-21.8,9-26.7c10.7-4.8,22.4-2.2,23.2,0.8
				s-1.9,6.2,0.3,5.8c2.2-0.3,7.2-4,0.8-10s-24.4-4-37-0.3s-21.8,16.5-15.2,30.5s21.4,23.7,36.5,30.7s29.2,10,53.2,5.3
				c23.9-4.7,44-17.2,44-17.2s-19.1,20.7-49.2,28c-30.1,7.3-51.2,5.7-65.3-1.7c-14.2-7.3-18.8-12.8-21-13.7
				c-2.2-0.9-3.9,3.5,4.3,10.8s34.3,17,34.3,17s-32.9,4.3-57.8,6.1c-24.9,1.8-58.9-2.2-59.8-2.3c-1-0.2,1.3,4.2-2.8,12.7
				s-16.7,33.4-22.6,54.6c-6.1,21.7-8.3,49.7-10.2,68.6c-1.9,18.9,6.2,71,11.3,93.3C568.6,694.7,577.7,723.6,577.7,723.6z"/>
		</g>
		<g id="_x31_9_x5F_Hair_x5F_SoftWavesShort_x5F_Highlights_1_">
			<path fill="none" d="M1054.3,341.9c0.1,8.6-0.7,17.2-2.1,25.6c-0.2,1.1-0.4,2.2-0.6,3.3c0.2-0.5,0.4-1,0.5-1.5
				c2-6.2,3.5-12.4,4.5-18.8c2.3-14.7,1.1-29.3-2-43.9c-2.8-13.2-7.2-25.5-15.4-36.3c-4.8-6.3-10.3-12.3-16.5-17.4
				c9.1,11.2,16.3,24,21.6,37.4C1050.7,306.7,1054,324.5,1054.3,341.9z"/>
			<path fill="none" d="M1178,337.2c2.9-4,5.4-8.2,7.6-12.6c4.8-9.8,7.8-20.3,9.9-31c0.5-2.8,1.1-5.6,1.5-8.4
				c-1.8,8.8-4.4,16.3-8,26.2C1185.8,320.2,1182.5,329,1178,337.2z"/>
			<path opacity="0.35" fill="#E8FFFA" enable-background="new    " d="M870.1,216.6c0.4-0.4,0.2-1.1-0.3-1.2
				c-3.3-1.1-6.8,0.5-10.1,1.4c-4.3,1.1-8.7,1.7-12.9,3c-0.9,0.3-0.8,1.7,0.2,1.7c4.2-0.2,8.4-1.2,12.5-1.8
				C863.1,219.1,867.4,219.1,870.1,216.6z"/>
			<path opacity="0.35" fill="#E8FFFA" enable-background="new    " d="M857.3,220.4c-2.7,0.7-5.4,2.2-8.2,1.1
				c-0.9-0.3-1.3,1-0.6,1.4c2.8,1.9,6.6,1,9.6,0.4c0.5-0.1,1-0.6,1.1-1.1s0.1-0.8-0.2-1.2C858.6,220.5,857.9,220.2,857.3,220.4z"/>
			<path opacity="0.35" fill="#E8FFFA" enable-background="new    " d="M889.7,212.4c11.5-1.7,23-3.4,34.4-5.3
				c11.9-2,24.2-4.3,36.3-4.6c1.4,0,1.4-2.1,0-2.1c-24.3-0.1-47.5,5.1-71.1,10.4C888.2,211,888.7,212.6,889.7,212.4z"/>
			<path opacity="0.35" fill="#E8FFFA" enable-background="new    " d="M959.2,212c4.5-0.4,9-0.5,13.5-0.6c4.8-0.1,9.5-0.8,14.3,0.1
				c0.5,0.1,0.7-0.6,0.2-0.7c-16.7-4.8-35.1-2.8-52.2-0.9c-17.7,1.9-35.4,4.6-52.9,7.6c-0.3,0.1-0.3,0.5,0,0.6
				c8.1,1.6,16.9,0,25-0.9c8.7-1,17.3-1.8,26-2.8C941.9,213.5,950.5,212.8,959.2,212z"/>
			<path opacity="0.35" fill="#E8FFFA" enable-background="new    " d="M1049.7,343.7c0,8.8,0.5,19-1,27.8
				c-0.7,3.8-1.4,8.9-2.3,12.7c-1,3.8-1.2,5.3-0.6,3.5c3.8-4.7,7.1-10.1,9.1-15.6c2.6-7.2,4.3-14.7,5.4-22.2
				c2.1-14.7,1.6-29.8-1.2-44.3c-2.6-13.8-7.4-26.9-16.1-38c-7.2-9.2-16.4-15.8-26.4-21.4c-10.4-11.1-24-21.6-39.6-23.3
				c-0.7-0.1-1,1-0.4,1.3c7.1,3.3,14.1,6,20.6,10.4c7.1,4.9,13.4,11.4,18.8,18.1c10.3,12.7,18.8,27,24.5,42.4
				C1046.5,310.6,1049.6,327,1049.7,343.7z M1039.2,270.4c8.2,10.8,12.6,23.2,15.4,36.3c3.1,14.5,4.2,29.1,2,43.9
				c-1,6.4-2.6,12.7-4.5,18.8c-0.2,0.5-0.3,1-0.5,1.5c0.2-1.1,0.4-2.2,0.6-3.3c1.4-8.5,2.2-17.1,2.1-25.6
				c-0.3-17.5-3.6-35.2-10-51.5c-5.3-13.4-12.5-26.2-21.6-37.4C1028.9,258.1,1034.4,264.1,1039.2,270.4z"/>
			<path opacity="0.35" fill="#E8FFFA" enable-background="new    " d="M1030.9,354.7C1031.1,355.1,1031.1,355.1,1030.9,354.7
				L1030.9,354.7z"/>
			<path opacity="0.35" fill="#E8FFFA" enable-background="new    " d="M1028.6,350.6c0.4,0.8,0.8,1.6,1.2,2.4
				c0.4,0.6,0.8,1.2,1.1,1.8C1030.1,353.3,1029.4,351.9,1028.6,350.6z"/>
			<path opacity="0.35" fill="#E8FFFA" enable-background="new    " d="M1029.7,352.9c-0.4-0.8-0.8-1.6-1.2-2.4
				c-3.1-6.4-6.5-12.4-11-18.3c-5.6-7.3-9.4-13.9-16.2-20c-6.7-6-13.7-13.2-21.8-17.2c-11.3-5.6-11.7-4-3.3,0.4
				c7.9,4.1,16,11.6,22.5,17.8c5.1,4.8,9.8,10.4,14.1,16c-4.7-5.2-9.7-10.1-15.2-15.4c-12-11.5-28-22.8-44.7-26.1
				c-0.7-0.1-0.9,0.8-0.3,1c8.4,3.3,16.3,6.4,23.9,11.3c7.5,4.8,14.3,10.3,20.6,16.6c11,10.9,21.5,20.6,30.2,32.9
				c0.6,1.1,1.2,2.2,1.8,3.4l2.3,3.8C1030.9,355.5,1030.3,354.2,1029.7,352.9z"/>
			<path opacity="0.35" fill="#E8FFFA" enable-background="new    " d="M1013.3,353.2c-5.3-4.8-11.1-9.1-17.1-13
				c-12.7-8.2-25.9-13.4-40.3-17.5c-0.7-0.2-1,0.8-0.3,1c13.5,4,26.7,10.9,38.4,18.7c6,4,11.6,8.5,17,13.2c4.7,4.2,9.1,10,14.5,13.3
				c0.4,0.2,1-0.2,0.8-0.6C1023.8,362.4,1017.9,357.3,1013.3,353.2z"/>
			<path opacity="0.35" fill="#E8FFFA" enable-background="new    " d="M1035.6,399.8c0.1-0.1,0.2-0.3,0.2-0.5
				c-0.5-4.9-4.9-8.7-8.6-11.5c-5.9-4.5-13-6.8-20-9c-7.9-2.4-16.1-4.7-24.3-5.9c-6.2-0.9-14.7-3-20.5-0.2c-0.2,0.1-0.2,0.5,0.1,0.6
				c2.8,0.9,5.7,0.6,8.7,0.7c4.1,0.2,8,0.8,12,1.7c6.6,1.5,13,3.6,19.5,5.7s13,3.9,19.1,7.1c2.5,1.3,5,2.9,7,4.9
				c1,0.9,1.8,1.9,2.6,3c-4.2-2.3-10-3.7-13.4-4.6c-6.6-1.7-14.5-3.2-21.2-1.3c-0.8,0.2-0.6,1.3,0.2,1.4c7.7,0.4,14.5,0.9,21.8,3.5
				c3.6,1.3,7,2.7,10.5,4.2c2.2,1,3.6,1.8,6,1.3C1035.7,400.7,1035.9,400.2,1035.6,399.8C1035.7,399.8,1035.6,399.8,1035.6,399.8z"
				/>
			<path opacity="0.35" fill="#E8FFFA" enable-background="new    " d="M1100.7,246.2c1.9,7.1,2.9,14.5,3.4,21.8
				c0.9,14.4-1.2,29.4-5.2,43.2c-0.1,0.4,0.5,0.7,0.7,0.3c6.3-14.2,8.6-28.8,7.4-44.3c-0.6-7.3-2.1-14.5-4.2-21.6
				c-2-6.6-4.3-14.7-8.6-20.2c-0.4-0.6-1.3,0-1.2,0.7C1095.1,233,1098.8,239.2,1100.7,246.2z"/>
			<path opacity="0.35" fill="#E8FFFA" enable-background="new    " d="M1100.1,231.5c3,5.5,4.4,12,5.8,18.1
				c1.3,5.5,1.7,11.6,4.4,16.6c0.2,0.4,0.9,0.3,1-0.1c1.5-6.3-1.3-13.1-3.3-19c-1.8-5.5-3.2-11.7-7.1-16.2
				C1100.5,230.5,1099.8,231,1100.1,231.5z"/>
			<path opacity="0.35" fill="#E8FFFA" enable-background="new    " d="M1110.2,363.2c2.5-3.2,4.3-7.3,7.4-10c0.6-0.5-0.2-1.2-0.7-1
				c-5.9,2.8-8.7,9.3-13.3,13.7c-5.4,5.1-11.6,9.6-17.8,13.7c10.5-8.1,20-17.6,27.8-28.4c8-11.1,14.5-23.7,18.1-37
				c1.8-6.7,3.1-13.6,3.4-20.5c0.3-6.4,0.6-13.5-1.7-19.5c-0.2-0.4-0.8-0.4-0.8,0.1c-0.6,13.3-1,26-5,38.8
				c-4,13.1-10.2,25.5-18.5,36.5c-14.5,19.3-34.3,34.9-55.7,46.1c-2.6,1.4-5.3,2.8-8.2,3.7c-1.7,0.5-3.3,0.4-1.7,0.5
				c7.1,0.7,14.8-2.4,21.2-5.2c7.7-3.4,13.2-5.8,20.1-10.7c6-4.3,12.3-8.4,17.9-13.2C1105.4,368.6,1108,366.1,1110.2,363.2z"/>
			<path opacity="0.35" fill="#E8FFFA" enable-background="new    " d="M1199.3,263.1c0-0.4-0.7-0.4-0.6,0c0.1,2.3,0.1,4.6,0.1,6.9
				c-0.6,7.7-2.2,11.6-4.6,18.5c-2.2,6.6-4.6,13.2-7,19.8c-4.7,13-9.8,25.7-18.5,36.6c-7.8,9.7-17.3,18.4-27.6,25.6
				c-5,3.5-10.1,6.7-15.5,9.5c-2.9,1.5-5.9,2.9-8.9,4.4c-2.5,1.3-5.3,2-7.2,4.2c-0.3,0.4-0.2,1,0.3,1.2c5,1.1,11.5-2.4,15.9-4.6
				c6.2-3,12.1-6.7,17.6-10.8c0.8-0.6,1.6-1.2,2.3-1.8l0,0c8.4-3.8,19.8-15.1,25.3-20.7c7.1-7.3,12.5-15.7,16.9-24.9
				C1197.3,306.9,1201.2,285,1199.3,263.1z M1195.4,293.6c-2.1,10.7-5.1,21.2-9.9,31c-2.1,4.4-4.7,8.6-7.6,12.6
				c4.5-8.2,7.8-17,11-25.7c3.6-10,6.2-17.4,8-26.2C1196.5,288,1196,290.8,1195.4,293.6z"/>
			<path opacity="0.35" fill="#E8FFFA" enable-background="new    " d="M1236.3,328.9c2.7,14.2-0.5,29.7-7.4,42
				c-4.6,8.3-11,15.8-18.8,21.3c-0.4,0.2-0.7,0.5-1.1,0.7c7.8-6.5,14.1-15.6,18.2-23.7c4.5-8.9,7.9-18.5,9.1-28.4
				c0.5-4.2,0.4-8.2-0.1-12.1c-0.5-0.9-1.1-1.9-1.7-2.9s-2-3.3-2.7-2.8c-0.6-1.7,0.1,0-0.6-1.7c-0.5-1.3,1.3,6.4,1.1,15.8
				c-0.3,10.2-3.7,20.2-8.2,29.3c-3.8,7.8-8.7,15.2-15.1,21.2c-6.8,6.4-14.7,9.8-23.2,13.3c-0.6,0.2-0.5,1.1,0.2,1.2
				c1.5,0,3-0.1,4.4-0.3c-1.3,0.5-2.5,1-3.8,1.6c-0.6,0.3-0.3,1.4,0.4,1.3c18.8-1.2,37.2-17.5,46-33.2
				C1242.3,354.8,1244.9,344.8,1236.3,328.9z"/>
			<path opacity="0.35" fill="#E8FFFA" enable-background="new    " d="M1236,327.4c0.1,0.4,0.1,0.9,0.2,1.4c0,0.1,0.1,0.1,0.1,0.2
				C1236.2,328.4,1236.1,327.9,1236,327.4z"/>
		</g>
		<g id="_x31_9_x5F_Hair_x5F_SoftWavesShort_x5F_Shadows_1_">
			<path fill="none" d="M1207.6,355.9c4-8.8,5.3-18.8,3.8-28.3c-1.2,2.8-2.4,5.6-3.8,8.3c-5,9.9-11.4,19-19,27.1
				c-5.5,5.8-11.8,11.6-19,15.6c-1.7,1.2-3.3,2.3-5.1,3.4c-10.7,6.6-22.4,11.4-34.7,13.9c17.9-2.1,35.5-6,51.7-14.6
				C1192.6,375.3,1202.4,367.6,1207.6,355.9z"/>
			<path fill="none" d="M1218,306.8c-1.3,5.9-3.1,11.6-5.2,17.2c2.6,10.5,2.2,21.4-2,31.6c-4.6,11.2-13.2,19.2-23.4,25.4
				c-12.1,7.3-25.9,11.3-39.7,14c-13.4,2.6-27.3,3.6-40.9,3.8c-1.8,0.2-3.6,0.4-5.4,0.5c9.1,0.1,18.3,0.3,27.4,0.2
				c17.8-0.3,36.1-2.6,52.7-9.6c16.1-6.9,34.1-20.7,39.6-37.9c2.7-8.3,3.2-17.6,2.2-26.3C1222.4,319,1220.2,313,1218,306.8z"/>
			<path fill="none" d="M883.5,260.3c33.8,0.7,67.1,10.9,95.2,29.6c24.1,16,45.8,39,57.6,65.9c-0.3-1.4-0.6-2.9-1-4.4
				c-7.4-14.7-15.8-28.6-26.6-41.2c-22.4-26.1-52.8-44.9-85.8-54.4c-17.3-5-35.4-7.2-53.3-7c-10.8,0.1-21.7,0.9-32.5,0.4
				c-4.1,3.6-6.2,8.3-2.1,16.5C850.9,261.7,867.3,260,883.5,260.3z"/>
			<path fill="none" d="M1009.5,321c-41.6-49.7-111.4-67.2-173.3-53.1c0.6,1.1,1.4,2.2,2.2,3.4c8.6,12.4,16.8,17.1,21.3,18.9
				c14.4-1.2,28.8-1.9,43.2-2c15.4,0,31,1.4,45.7,6.2c14.5,4.7,27.8,12.5,40.6,20.6c12.1,7.7,23.4,16.8,32.6,27.8
				c3.8,4.5,7.2,9.4,10.1,14.5C1026,344.4,1018.9,332.3,1009.5,321z"/>
			<path fill="none" d="M1086.4,366.7c7.8-9.5,14.7-19.7,20.5-30.5c6-11.2,10.6-23.1,12.9-35.6c0.7-3.8,1.2-7.6,1.5-11.4
				c-0.8,4.8-2.1,10.8-4.7,18.6c-7.1,21.3-19.7,43.5-45,69c-3.7,3.7-6.9,6.8-9.7,9.4C1070.7,380.6,1079.9,374.6,1086.4,366.7z"/>
			<path fill="none" d="M792.6,199.4c3.3,11.2,14.1,23.3,32.4,25.4c2.4,0.3,5.1,0.5,7.9,0.7c-6.6-2.6-13-6-19-9.4
				C806.2,211.6,798.3,206.3,792.6,199.4z"/>
			<path fill="none" d="M1044.6,330.6c-6.6-32.8-24.4-62.2-52.1-81.4c-14.4-10-31.6-17-49.1-18.2c-7.3-0.5-14.4,0.4-21.6,1.1
				c4.1,0.7,8.2,1.6,12.3,2.5c45.5,10.3,65.5,26.6,88.8,56.9c22.3,29.1,23.9,56.1,17.3,94.1c0.2,1.1,0.4,2.1,0.6,3
				C1046.8,369.9,1048.6,350,1044.6,330.6z"/>
			<path fill="none" d="M883.2,246.9c35,1.7,69.3,14.1,97.8,34.3c17.9,12.7,34.5,29.1,47.2,47.7c-4.6-11.6-12-24.2-28.2-41.5
				c-25.7-27.5-53.3-39.5-87.6-43.9c-34.3-4.5-55.4-6.2-64.9-0.7c-2.5,1.4-5.1,2.8-7.5,4.3C854.4,247.5,868.8,246.2,883.2,246.9z"/>
			<path fill="none" d="M926.2,228.5c10.6-1.3,21-1,31.5,1.4c32,7.5,59.1,30.1,75,58.4c16.6,29.7,19.2,66.2,13.1,99.3
				c1.4-1.3,3-2.6,4.5-3.8c13.4-26.2,19.1-54.8,13.2-84.2c-5.1-25.6-19.6-54.4-42.8-68.1c-24.4-14.4-56.7-12.2-83.8-9.5
				c-14.9,1.5-29.8,3.2-44.7,4.8c-2.2,0.2-4.5,0.5-6.8,0.8c8.4,0.6,17.2,1.5,26.4,2.8C916.6,229.9,921.5,229,926.2,228.5z"/>
			<path opacity="0.3" fill="#091426" enable-background="new    " d="M706.5,438.5c-1.5,1.6-2.8,3.3-3.9,5.2
				c1.2-0.4,2.4-0.8,3.5-1.5c1.3-0.8,2.4-1.9,3.7-2.6C708.8,439.2,707.7,438.9,706.5,438.5L706.5,438.5z"/>
			<path opacity="0.3" fill="#091426" enable-background="new    " d="M626.3,595.2c0.3-0.4-0.3-0.7-0.6-0.5
				c-4.5,3.6-9.1,7.1-13.8,10.3c-3.6,2.4-6.9,4-10.6,5.1c-0.1-0.2-0.2-0.4-0.2-0.6c1.6-1.2,3.1-2.7,4.4-4.3c0.1,0.3,0.5,0.6,0.9,0.5
				c1.5-0.4,2.7-1.6,3.9-2.5c1.1-0.8,2.7-1.5,3.4-2.8c0.1-0.2-0.1-0.4-0.3-0.3c-1.4,0.3-2.6,1.5-3.8,2.1c-0.9,0.5-1.9,0.9-2.8,1.4
				c1.9-2.4,3.5-5,5.1-7.5c0.3-0.5-0.4-1.1-0.9-0.7c-2.4,2.3-3.2,5.7-5.5,8.2c-1.5,1.7-3.3,3.1-5,4.6c-0.1-0.2-0.2-0.5-0.3-0.7
				c1.3-1.5,2.6-3.1,4-4.6c0.5-0.6-0.3-1.4-0.9-0.9c-1.2,1.2-2.4,2.3-3.9,3.1c-0.5-1.8-0.8-3.4-0.6-4.6c0.6-4.9,4-33.4,8.3-58.6
				c-1.5,2.5-2.6,5.5-4.7,7.4c-0.4,0.4-1.2,0.1-1.2-0.5c0-3.2,2.2-6.6,3.4-9.5c1.2-2.7,2.7-5.4,4.3-7.8c0.4-2.2,0.9-4.4,1.3-6.5
				c-1.3,1.2-2.6,2.3-3.9,3.5c-0.6,0.5-1.6-0.2-1.2-0.9c1-1.5,1.9-3.1,2.7-4.7c-0.5,0.3-1,0.5-1.6,0.6c-0.5,0.1-1.2-0.3-1-1
				c0.8-2.4,3.2-4.5,4.6-6.4c1-1.3,2.1-3.3,3.5-4.5c0.5-1.7,0.9-3.3,1.4-5c-0.1,0.1-0.2,0.2-0.3,0.3c-1.9,2.1-4.6,5.8-7.7,6.1
				c-0.8,0.1-1.1-0.9-0.8-1.4c1.5-2.9,4.1-5.3,6.2-7.6c1.6-1.8,3.3-4.9,5.4-6.4c2.5-7.5,5.4-14.9,8.5-22.7c3.3-1.1,5.7-3.5,8.1-6
				c2.7-2.8,5.8-5.7,8-9c0.4-0.7-0.5-1.3-1.1-0.8c-2.6,2.3-4.8,5.2-7.4,7.7c-2.1,2-4.4,4.7-6.9,6.4c0.4-1,0.8-2.1,1.2-3.1
				c-1.6,1.4-3,2.9-4.7,4c-1.1,0.7-2.1-0.6-1.6-1.6c1.1-2.3,3.4-4.2,5.4-5.7c0.8-0.6,1.9-1.6,3.1-2.3c0.2-0.4,0.3-0.8,0.5-1.3
				c-0.4,0.1-0.7,0.2-1.1,0.3c-1.2,0.3-2-1.4-0.8-2c1.1-0.6,2.2-1.2,3.3-1.7c0.2-0.6,0.5-1.1,0.7-1.7c-0.3,0.1-0.6,0.2-0.8,0.3
				c-0.9,0.4-1.5-1.1-0.7-1.6c0.9-0.5,1.8-1,2.6-1.5c0.4-1,0.8-2,1.2-2.9c-0.4,0.2-0.8,0.4-1.2,0.5c-2.6,1.2-5.2,2.4-7.7,3.8
				c-0.4,0.2-0.9-0.3-0.5-0.6c2.1-1.8,4.2-3.6,6.4-5.3c1.4-1,3.1-2.5,4.9-3.1c0.1-0.3,0.3-0.7,0.4-1c-0.3,0.1-0.5,0.3-0.8,0.4
				c-1.2,0.7-2.4,1.3-3.7,1.6c-0.2,0.1-0.6-0.1-0.5-0.4c0.1-1.5,1.4-2.2,2.4-3.1c0.7-0.5,1.5-1.2,2.3-1.7
				c-23.2,0.5-49.3-2.6-50.2-2.8c-1-0.2,1.3,4.2-2.8,12.7s-16.7,33.4-22.6,54.6c-6.1,21.7-8.3,49.7-10.2,68.6s6.2,71,11.3,93.3
				c5.6,24.6,14.7,53.4,14.7,53.4c12.3-29.8,23.8-82,28.3-103.6c-1.1-1.9-2.3-4.3-3.5-6.7c1.9-0.8,3.7-1.8,5.5-3v-0.1
				c0,0,0.1,0,0.2-0.1c1.2-0.8,2.3-1.7,3.4-2.6C616.4,603.6,622.6,600.2,626.3,595.2z"/>
			<path opacity="0.3" fill="#091426" enable-background="new    " d="M637.8,517.6c-1.2,2.3-2.6,4.5-4,6.8c-1,1.6-2.1,3.1-3,4.7
				c-0.3,0.3-0.5,0.6-0.8,0.9c-0.6,0.9,0.5,1.8,1.3,1.3c2.1-1.1,3.6-3.2,5.2-5c1.3-1.4,3.3-2.8,3.9-4.6c0.1-0.2-0.2-0.4-0.3-0.3
				c-1.7,1.1-3.2,2.6-4.8,3.9c1.3-2.4,2.4-4.9,3.5-7.1C639.3,517.5,638.2,516.8,637.8,517.6z"/>
			<path opacity="0.3" fill="#091426" enable-background="new    " d="M647.8,517.1c0.2-0.3-0.2-0.5-0.4-0.2
				c-1.1,1.5-2.4,2.7-3.6,4.1c-1,1.1-2,2.3-3.2,3.2c-0.3,0.2-0.4,0.5-0.3,0.9v0.1c0.1,0.4,0.4,0.6,0.8,0.7l0.1,0.1
				c0.3,0.2,0.7,0.2,0.9,0c1.4-0.9,2.7-2,3.9-3.2c1-1,2.1-2.2,2.6-3.5c0.1-0.3-0.3-0.4-0.4-0.1c-0.2,0.5-0.9,0.9-1.3,1.2
				c-0.6,0.5-1.2,1-1.8,1.5c-0.2,0.2-0.4,0.3-0.6,0.5c0-0.1,0.1-0.1,0.1-0.2C645.8,520.4,646.8,518.7,647.8,517.1z"/>
			<path opacity="0.3" fill="#091426" enable-background="new    " d="M629.5,552.6c-0.7,0.7,0.2,1.9,1,1.3c3.6-2.6,6.7-6,9.9-9.1
				s6.1-6,8.5-9.8c0.5-0.9-0.8-1.6-1.3-0.8c-2.3,3.3-5.3,6.1-8.4,8.9c1.9-2.8,3.7-5.7,5.6-8.5c0.1-0.1,0.1-0.3,0.1-0.4
				c0.3-0.4,0.6-0.8,0.9-1.2c0.4-0.6-0.6-1.2-1-0.6c-2.6,3.8-5.1,7.3-8.5,10.4c-3.1,2.8-6.6,5-9.5,7.9c-0.8,0.7,0.2,2,1.1,1.4
				c3.9-2.2,6.9-5.7,9.7-9c0.1-0.1,0.1-0.2,0.2-0.2c-1.3,1.7-2.6,3.4-4,5C632.2,549.5,630.8,551,629.5,552.6z"/>
			<path opacity="0.3" fill="#091426" enable-background="new    " d="M647.6,559.3c4.4-2.6,8-6.8,11.6-10.3c4.1-4,8.2-8,12-12.3
				c0.2-0.3-0.1-0.7-0.4-0.4c-4,3.7-7.8,7.5-11.9,11.1c-4,3.6-8.7,6.7-12.1,10.8C646.3,558.8,646.8,559.7,647.6,559.3z"/>
			<path opacity="0.3" fill="#091426" enable-background="new    " d="M676.7,529.4c-2,7.7-8.2,13.4-13.2,19.4
				c-2.3,1.9-4.3,4.2-6.5,6.2c-3.3,2.9-6.8,5.6-10.2,8.5c-0.5,0.4,0.1,1.3,0.7,0.9c3-1.8,5.9-4,8.6-6.2c-1.7,2.3-3.4,4.7-4.9,7.1
				c-0.8,1.3,1.1,2.3,2,1.2c3.7-5.3,7.5-10.5,11.4-15.7c0.9-0.9,1.7-1.9,2.3-2.9c0-0.1,0.1-0.2,0.1-0.2c2.2-2.9,4.6-5.8,6.5-8.9
				c1.2-2.7,2.5-5.5,3.7-8.2c0.1-0.3,0.1-0.6,0.2-0.8C677.5,529.1,676.8,528.9,676.7,529.4z"/>
			<path opacity="0.3" fill="#091426" enable-background="new    " d="M689.2,463.3c-2,2.2-4,4.5-5.9,6.8c2.2-3.4,4.5-6.7,7.1-9.8
				c0.5-0.6-0.1-1.6-0.9-1.1c-2.5,1.5-3.7,3.8-5.3,6.1c-2.3,3.4-4.5,6.7-6.7,10.1c-4.1,6.3-7.4,13.1-11.6,19.3
				c-0.3,0.4,0.3,0.9,0.6,0.5c3.3-4.1,6.2-8.5,9-13c4.7-6.2,9.7-12.1,14.8-17.8C691.1,463.7,689.9,462.5,689.2,463.3z"/>
			<path opacity="0.3" fill="#091426" enable-background="new    " d="M685.1,480.2c-9.1,6.7-18.1,15.5-24.3,25
				c-0.2,0.3,0.3,0.6,0.5,0.4c8.4-7.9,16.4-16.1,24.8-24C686.8,480.8,685.9,479.6,685.1,480.2z"/>
			<path opacity="0.3" fill="#091426" enable-background="new    " d="M700.2,466.1c3.4-1.7,6.3-4.6,9.2-7.1
				c2.8-2.5,6.3-4.9,8.4-8.1c0.3-0.5-0.3-1.1-0.8-0.8c-3.3,1.8-6.2,5-9.1,7.4c-2.9,2.5-6.2,4.9-8.3,8
				C699.4,465.9,699.9,466.2,700.2,466.1z"/>
			<path opacity="0.3" fill="#091426" enable-background="new    " d="M724.4,446.6c-4.5,4.8-8.6,9.9-13.3,14.6
				c-4.2,4.2-8.5,8.7-11.9,13.6c-0.3,0.5,0.3,1.1,0.8,0.8c2.4-1.8,4.7-3.8,6.9-5.9c5-6.6,10.9-13.5,14.9-18c1.1-1.5,2.2-3,3.2-4.6
				C725.3,446.7,724.7,446.3,724.4,446.6z"/>
			<path opacity="0.3" fill="#091426" enable-background="new    " d="M663.7,442.9c-4,1.6-7.7,4-11.8,5.3c-0.3,0.1-0.3,0.5,0,0.6
				c1.7,0.7,3.7-0.6,5.4-1.1c2.1-0.6,4.3-1.2,6.4-1.8c-0.1,0.1-0.2,0.2-0.3,0.3c-0.7,0.6,0.2,1.5,0.9,1.2c2.3-1,4.4-2.5,6.8-3.4
				c0.2-0.1,0.3-0.1,0.5-0.2c-0.1,0.2-0.3,0.3-0.4,0.5c-0.4,0.6,0.2,1.3,0.8,1.3c-3.7,2.4-6.7,5.9-10,8.9c-0.7,0.6,0,1.6,0.9,1.5
				c2.4-0.5,3.9-2.7,5.6-4.3c1.7-1.5,3.5-2.7,5.3-4c-1.1,1.4-2.2,2.9-3.3,4.2c-2,2.6-4.2,5-6.4,7.4c-0.4,0.4,0.2,1,0.6,0.6
				c4.6-4.2,10.3-8.9,13.3-14.5c0.5-0.8-0.6-1.7-1.3-1c-0.1,0.1-0.2,0.2-0.2,0.2c-0.1-0.6-0.6-1-1.3-0.7c-0.8,0.3-1.6,0.7-2.3,1.2
				c0.5-0.6,1-1.1,1.6-1.6c0.7-0.5,1.5-0.8,1.8-1.6c0.1-0.4-0.2-0.9-0.6-1c-0.7-0.1-1.4,0.3-1.9,0.7v-0.1c0-0.2-0.2-0.4-0.4-0.4
				c-1.4-0.1-3.2,0.7-4.5,1.3c-1.2,0.6-2.3,1.4-3.4,2.2C665.5,443.5,664.8,442.4,663.7,442.9z"/>
			<path opacity="0.3" fill="#091426" enable-background="new    " d="M645,451.8c2.1-1.3,4.1-2.6,6.2-3.9c1.9-1.1,4.1-3,6.4-2.9
				c0.9,0.1,1.3-1.2,0.7-1.7c-1.4-1.3-3.8,0.8-4.9,1.6c-2.9,2.1-5.8,4.2-8.9,6.2C644.1,451.3,644.5,452.1,645,451.8z"/>
			<path opacity="0.3" fill="#091426" enable-background="new    " d="M680.3,450.5c0.7-0.7,1.5-1.1,1.9-2c0.2-0.4,0-0.9-0.6-1
				c-1.9-0.1-3.3,2.4-4.3,3.7c-1.5,2-3.4,4.1-4,6.6c0,0.2,0.1,0.5,0.3,0.6c1.6,0.2,2.6-1.1,3.9-1.9c0.2-0.1,0.3-0.4,0.2-0.7
				c-0.1-0.1-0.1-0.2-0.2-0.3c-0.2-0.3-0.7-0.2-0.7,0.2c0,0.5-1.1,1.2-2,1.6c1.1-1.4,2.4-2.8,3.5-4.2
				C678.9,452.2,679.6,451.3,680.3,450.5z"/>
			<path opacity="0.3" fill="#091426" enable-background="new    " d="M666.1,415.3c9.2,7,20.6,11.4,31.1,15.9
				c11.1,4.7,22.4,8.5,34.4,9.8c11.9,1.3,24,0.4,35.7-2.1c6.3-1.4,12.4-3.2,18.4-5.5c4.9-1.8,10.6-3.6,14.7-7
				c0.7-0.6-0.1-1.7-0.9-1.5c-5.5,1.3-10.8,4.6-16.1,6.6c-5.2,1.9-10.5,3.5-15.9,4.7c-11.4,2.6-23.3,3.6-35,2.4
				c-11.9-1.2-23.3-5-34.4-9.5c-11.2-4.5-22.8-9.1-33.1-15.6C665.3,414,665.6,414.6,666.1,415.3z"/>
			<path opacity="0.3" fill="#091426" enable-background="new    " d="M750.1,445.4c30.8-0.7,59.2-13,83.2-31.9
				c1.1-0.9-0.5-2.5-1.6-1.6c-5.9,5.1-11.8,10.2-18.8,13.7c-6.4,3.2-13,6.2-19.7,8.8c-13.7,5.2-28.5,8.5-43.1,9.3
				c-16.3,0.9-31.4-3.2-46.6-8.4c-12.5-4.2-24.3-9.5-35-17.1c0.6,0.6,1.3,1.3,2,2c8.2,7.3,34.3,17,34.3,17s-0.6,0.1-1.7,0.2
				c0.8,0.3,1.7,0.6,2.5,0.8c-1.8,1.9-3.3,3.9-4.6,6.1c-0.1,0.2-0.1,0.6,0.2,0.7c1.7,1,3.9,0.1,5.5-0.7c1.8-1,3.8-2.2,4.5-4.2
				c0-0.1,0-0.1,0-0.2C723.9,443.6,736.5,445.7,750.1,445.4z M706.2,442.1c-1.2,0.7-2.3,1.1-3.5,1.5c1.1-1.9,2.4-3.6,3.9-5.2l0,0
				c1.1,0.4,2.3,0.7,3.4,1C708.6,440.3,707.5,441.3,706.2,442.1z"/>
			<path opacity="0.3" fill="#091426" enable-background="new    " d="M1243.7,333.2c-2.5-5.8-6.5-10.5-10.5-15.2
				c-0.6-0.7-1.1-1.4-1.7-2.1c-1.8-1.9-3.1-3.6-3.8-5.5c-1.2-1.9-2.4-3.7-3.6-5.5c-0.5,1.6-0.8,3.5-0.8,5.8c0,0-2.9-5.9-5-9.5
				c0,0-0.8-19.9-7.5-29.7c-2-2.9-4.3-5.6-6.4-8c3.5,8.3,6.6,17.5,7.2,26.5c0.7,9.8-1.5,19.4-4.9,28.5
				c-6.4,16.8-16.5,33.5-28.5,46.8c-12.8,14.3-28.9,22.3-47.2,27.5c-9.4,2.7-18.8,4.3-28.4,5.1c-0.6,0-1.2,0.1-1.9,0.1
				c-0.1,0-0.2,0-0.2,0.1c-0.1,0-0.2,0-0.2,0c-6.4,0.5-12.8,0.4-19.3,0.5c0.4-0.1,0.9-0.2,1.3-0.4c23.6-1.9,46.3-9.9,66-23.4
				c23.6-16.3,43.6-39.1,51.9-66.9c4.4-14.7,5.5-30.1,3.5-45.2c-1.3-1.3-2.5-2.6-3.6-3.7c11.4,69.1-48.4,129.8-114.4,138.2
				c2-0.6,4-1.3,6-2.1c12.8-4.8,24.6-11.4,34.8-20.6c10.4-9.4,18-21.3,24.3-33.8c1.6-3.3,3.2-6.5,4.7-9.9c5.7-3,10.8-8.7,15-13.1
				c5.2-5.6,9.9-11.9,14-18.4c4.1-6.6,7.5-13.5,10.1-20.8c2.6-7.5,4.9-14.6,2.5-22.3c-0.8-0.7-1.5-1.3-2-1.8
				c-0.2,0.2-0.3,0.5-0.2,0.9c2.6,7.9-0.1,16.6-2.9,24.1c-2.7,7-6,13.9-10,20.3c-3.9,6.2-8.5,11.8-13.6,17.1
				c-3.2,3.3-7.2,6.2-10.7,9.3c0.7-1.6,1.4-3.2,2-4.8c0.9-2.1,1.8-4.3,2.5-6.6c11.5-8.8,20.9-20.5,25.2-34.4
				c0.1-0.4-0.6-0.6-0.7-0.2c-4.2,12.8-13.5,21.3-23.2,29.6c0.3-1.8,0.5-3.6,0.3-5.4c-7.5,7.6-13.6,13.3-13.6,13.3s1.3-9.4-3.4-26.2
				c1.9,17.2-0.5,35-7.4,50.8c-7.6,17.3-20,30.6-34.6,41.9c-16.2,9.5-34.6,15.1-53.4,17c-0.3,0-0.3,0.5,0,0.5
				c7.4,0.4,14.4,0,21.3-1.2c7.1,1.5,14.8,1.3,21.9,1.5c8.9,0.2,17.8,0.4,26.8,0.1c15-0.6,30.1-0.4,44.9-3.3
				c14.4-2.9,27.4-9.5,38.6-19c5.2-4.4,10.3-9.1,14.2-14.7c4.2-6,6.4-13.1,8-20.2c1.9-8.5,2.1-18.8,0.2-28.3
				c3.4,4.3,7.2,8.4,10.1,13c6.3,10.1,7.2,22.7,3.9,34c-7,23.3-30.8,38.4-52.9,45c-0.3,0.1-0.2,0.5,0.1,0.5
				c12.7-3.5,24.7-7.4,35.3-15.6c9.2-7.1,16.7-16.4,20.6-27.3C1248.1,355.5,1248.1,343.5,1243.7,333.2z M1164.6,381.9
				c1.8-1.1,3.4-2.2,5.1-3.4c7.1-4,13.5-9.8,19-15.6c7.6-8.1,14-17.2,19-27.1c1.4-2.7,2.6-5.5,3.8-8.3c1.4,9.6,0.1,19.5-3.8,28.3
				c-5.2,11.7-15,19.5-26.1,25.3c-16.2,8.6-33.8,12.5-51.7,14.6C1142.2,393.3,1153.9,388.5,1164.6,381.9z M1221,352
				c-5.5,17.2-23.5,31-39.6,37.9c-16.5,7.1-34.8,9.3-52.7,9.6c-9.1,0.2-18.3-0.1-27.4-0.2c1.8-0.2,3.6-0.3,5.4-0.5
				c13.7-0.2,27.6-1.2,40.9-3.8c13.8-2.7,27.5-6.7,39.7-14c10.2-6.1,18.8-14.2,23.4-25.4c4.2-10.1,4.7-21.1,2-31.6
				c2.1-5.6,3.9-11.4,5.2-17.2c2.2,6.2,4.4,12.2,5.2,18.9C1224.2,334.4,1223.6,343.7,1221,352z"/>
			<path opacity="0.3" fill="#091426" enable-background="new    " d="M981.5,407c-12.6,4.9-62.9,38.7-69.9,40.8
				c-0.8,0.2-1.6,0.5-2.4,0.6c4.3-3.1,7.6-7.3,10.8-11.6c4-5.4,7.7-11.1,12.2-16.2c4.4-5,9.8-8.5,15-12.7c0.8-0.7-0.2-1.8-1.1-1.4
				c-10.5,4.8-17.8,14.1-24.8,22.9c-3.6,4.5-7.4,8.8-11.8,12.6c-2,1.7-3.9,2.9-5.9,3.8c4.5-3.5,8.3-8.5,11.3-12.2
				c7.1-8.9,14.1-17.9,22.4-25.8c8.6-8.2,18.5-15.8,30.1-19.2c12.5-3.7,26.1-1.9,38.8,0c1.3,0.2,1.9-1.8,0.6-2
				c-11.5-2.3-23.4-4-35.1-2.3c-11.8,1.6-21.2,6.9-30.3,14.3c-9.3,7.5-17.2,16.5-24.6,25.8c-3.5,4.4-7,9-10.9,13.1
				c-1.5,1.6-3.2,2.9-4.9,4.1c-0.2-0.9-0.3-1.9-0.3-3c2.3-5.9,4.6-11.7,7.6-17.3c4.7-8.7,9.9-17.3,16-25
				c5.9-7.4,12.5-13.9,20.8-18.6c9.3-5.4,19.4-7.9,29.8-10.2c0.8-0.2,0.6-1.5-0.2-1.5c-20.1,0.4-38.8,11.8-51.6,26.8
				c-7.8,9.2-15.6,19.6-21.7,30.7c4.4-22.8,32.8-48.5,41.3-55.3c8.9-7.1,39.8-6.8,57.3,0c17.6,6.8,28,11.8,36.8,32.8l4.9-0.4
				c0,0,1.5,2.6,0.3-5.1c1.1,0.1,2.2-0.4,2.5-1.8c0.1-0.6,0.2-1.2,0.4-1.8c5.7-3.3,11.1-9.2,15.4-13.9c0.8-0.9,1.6-1.7,2.4-2.6
				c-1.8,3.6-3.6,7.3-5.9,10.5c-8.2,7.7-14.3,12.4-14.3,12.4s2.3,2.5,15.8-9c11.4-5.1,21.3-11.4,30.3-20.3
				c9.2-9,16.5-21.1,22.4-32.4c6.2-11.7,11.2-24.4,13.7-37.5c1.2-6.5,1.9-13.2,1.8-19.8c0-2.1,0-4.6-0.2-7.1
				c2.7-3.2,5.4-5.1,8.2-5.1c3.2,14,4.6,28.3,3.1,42.6c-1.6,15.8-7.8,31.8-16.6,44.9c-16.5,24.6-44.7,42.5-74.2,45.6
				c-0.3,0-0.3,0.5,0,0.5c30.4-3,58.2-18.3,75.6-43.6c16.6-24.2,22-56.8,15.6-85.7c-9.1-14.2-22.3-26.9-24.7-29.1
				c4.7,15.7,3.9,29.8,1.4,48.4c-3.1,23.3-14.7,41.4-31.4,65.2c-5.5,7.9-11.9,15.3-17.9,21.5c15.6-23.5,26.5-50.3,31.7-78
				c3-16.2,3.7-32.5,1.3-48.9c-1.4-9.5-3.7-20.5-8.4-29.7c-2-1.4-4.2-2.8-6.5-4.1c14.5,25.6,16.1,58.3,10.8,86.8
				c-4,21.8-12.7,41.8-23.4,60.8c1.2-2.9,2.3-5.9,3.5-8.7c5.7-14.8,12.3-29.3,15.6-44.9c2.9-13.6,1.9-28-0.2-41.7
				c-2.1-13.5-6-26.6-11.8-39c-3.3-7-7.3-13.7-12-19.8c-0.6-0.8-1.3-1.7-2-2.6c-4-1.8-7.5-3.5-10.7-5.2c21.7,23.3,33,53.3,34.6,85.2
				c0.9,18.4-3.8,36.5-9.7,53.8c-0.8,2.4-1.7,4.7-2.7,7c1.1-7,1.5-14.2,1.5-21c0-10.1-0.5-20.3-2.7-30.1c0-0.2-0.1-0.4-0.1-0.6
				c-0.1-6.1-0.6-12.2-1.4-18.3c-0.3-2.8-0.6-5.5-1-8.3c0-0.3-0.2-0.4-0.4-0.5c0-0.1,0-0.3-0.1-0.4c-2.1-11.4-4.8-22.5-9.9-33
				c-8.6-17.7-19.6-35.4-35.5-47.4c-1.9-0.7-4-1.3-6.3-2c-0.1,0.4,0,0.9,0.4,1.2c8.2,6.7,15.7,13.1,22.2,21.6
				c6.6,8.7,11.9,18.4,16.7,28.1c5,10.1,8.6,21,10.4,32.1c0.8,4.7,1.3,9.4,1.8,14.1c-3.9-14.2-9.3-28-16.6-40.7
				c-8.4-14.6-19.5-27.9-33.8-37c-15.9-10.1-35.5-13.9-54.2-13c-11.6,0.5-22.8,2.8-34.2,4.7c-3.1,0.5-6.3,1.1-9.5,1.7
				c-5.8,0.1-12.1,2.3-17.7,3.5c-7.1,1.5-14.2,3.1-21.3,4.7c-14.2,3.2-28.7,7.6-43.4,7.8c-12.4,0.2-25.8-3.8-33.5-14.2
				c-3.7-5-5.2-11-5.4-17.2c-0.2-5.3-0.3-12.3,2.1-17.6c-0.9,0.5-1.8,1-2.6,1.6c-1.4,3.8-2.3,7.6-2.3,12c0,5.9,0.5,12.4,3,17.8
				c4.7,10.5,15.9,17,26.8,19.2c15.4,3.1,31.3-1.2,46.3-4.6c8.4-1.9,16.8-3.8,25.1-5.7c4.5-1,9-2.1,13.5-3.1
				c3.1-0.7,6.4-1.3,9.4-2.5c0.2,0,0.4-0.1,0.6-0.1c10.4-2.2,20.8-3.8,31.4-4.8c19.7-1.8,40.7-0.4,58.5,8.9
				c30.8,16.1,49.2,52,56.6,84.8c0.9,4.2,1.8,8.4,2.6,12.8c-0.1,20.4-3,40.7-8.3,60.7c-0.1,0.5,0.6,0.7,0.7,0.2
				c5.2-17,8.1-34.8,8.8-52.6c0.5,4.3,0.9,8.5,1,12.8c0.3,10.8-0.9,21.1-2.3,31.7c-1.5,3.2-3,6.3-4.5,9.4c-3,4.6-6,9.1-10.1,13
				c-1.7,1.6-3.5,3.1-5.4,4.6c25.5-42.7,18.8-100.8-12.9-138.5c-17.5-20.8-45.7-26.9-71.9-26.5c-30.4,0.5-60.8,4.9-91,7.9
				c-4.7,0.5-9.4,1-14.1,1.3c-5.5-0.2-10.6-0.3-15.5-0.5c-7.5-1.1-14.6-3.8-21.4-7c-12.8-6.1-23.8-13.5-33.8-23.3
				c-0.2-1.5-0.3-2.9-0.2-4.3c0.4-7,4.9-16.2,9-23.2c-6.8,4.6-12.2,11.4-13.9,16.7c-2.1,6.5-3.2,24.1,5.5,38.3
				c8.8,14.1,27,21.2,27,21.2s-10.6,2.8-15.2,4.7c0,0,14.6,15.5,23.5,27.4c5,6.7,13.1,20.8,14.9,24.1l0,0l15.9-7
				c15.5-1.4,30.9-3.2,46.4-3c15.2,0.2,30,2.3,44.2,7.2c-6.6-1.2-13.1-1.9-19.3-2.1c-19-0.8-38.1,2.4-56.1,8.2
				c-39.6,12.7-74,37.4-109.8,57.8c-15.3,8.7-34.4,18.1-53,18.5c-2.8,0.5-5.6,0.8-8.3,0.8c14.7,2.4,29.1-0.5,43.4-6.9
				c19.2-8.6,37-20.5,55.1-31.2c35.3-21,72.9-41.1,114.7-43.6c11-0.7,22.2-0.1,33.1,2.1c9.3,1.8,17.6,5.4,26.2,8.8
				c12.1,7,23.6,15.3,33.4,25c1.6,1.5,3.1,3.1,4.6,4.8c-4-3.9-8.3-7.4-12.8-10.5c-19.3-13.5-43.2-18.9-66.5-18.3
				c-54.6,1.3-102.3,32.2-150.7,54c-14.6,6.5-29.6,12.5-45.1,16.5c-15.2,3.9-30.1,6.2-45-0.1c-0.5-0.2-0.8,0.6-0.3,0.8
				c10.4,5.4,22.3,5.1,33.6,3.7c12-1.5,24.1-5.3,35.5-9.4c24.7-8.9,47.9-21.2,71.6-32.5c46-21.9,103.2-43.3,152.7-19
				c19.2,9.4,33.8,25,41.6,44.4c0.3,1.2,0.5,2.1,0.5,2.8c-15-11.8-53.3-39.1-91.1-43.2c-48.5-5.3-90.8,11.4-122.6,35.6
				s-57.6,30.3-77.8,34.3c-17.8,3.6-39.9,4-61.4-10.4c7.6,8.6,18.5,15.1,29.5,20.2c15.1,7,29.2,10,53.2,5.3
				c23.9-4.7,44-17.2,44-17.2c8-6.4,25.8-19.4,47.4-31.5c-14.5,13.5-27.2,29-42.8,41.3c-13.2,10.4-28.6,18-44.9,22.2
				c-16.5,4.3-32.2,4-49,3.4c-0.8,0-0.9,1.1-0.2,1.3c14.8,3.7,31.9,2.2,46.7-1.2c16-3.7,31.3-10.5,44.7-20
				c23.3-16.7,40.4-40.7,64.2-56.6c23.4-11.1,49.2-19.2,71.3-17c2.6,0.3,5.3,0.6,7.8,1.1c0.9,0.5,1.8,1,2.7,1.5
				c-4.9-0.7-9.9-1-15.2-0.6c-16.5,1.3-33.2,6.9-47.4,15.3c-13.1,7.8-24.2,18.4-34.9,29.1c-5.4,5.4-10.9,10.9-16.7,16
				c-6,5.2-12.7,9.3-18.8,14.2c-0.5,0.4,0,1.3,0.6,1.1c6.1-2.2,11.3-6.5,16.4-10.4c5.9-4.6,11.4-9.6,16.8-14.6
				c10.8-10,21.1-20.6,33.4-28.9c13.6-9.2,29.4-15.4,45.7-17.7c10-1.4,20.3-0.7,30.2,1.7c-3.3,0-6.6,0.2-9.9,0.5
				c-7.5,0.8-14.8,2.6-21.8,5.4c-7.8,3.2-16.3,6.9-23.3,11.5c-0.4,0.3-0.2,1,0.4,0.9c14-4.2,26.1-12.6,40.9-14.9
				c6.7-1,13.2-1,19.8-0.1c-3.6,0-7.2,0.3-10.8,1c-21.2,2.7-41,13.2-55.9,28.6c-5.4,5.6-10.3,11.6-16,16.9
				c-5.9,5.6-12.3,10.7-18.8,15.6c-6.2,4.6-12.6,9-19,13.3c-6.5,4.4-13.4,10.2-20.7,13.1c-0.5,0.2-0.3,0.9,0.2,0.7
				c13.7-4.7,25.8-13.3,37.6-21.5c11.6-8.1,22.3-16.9,32.3-26.9c-5.8,7-10.3,13.7-13.3,19c-9.5,16.8-13.9,35.4-80.2,45.1
				c-10.9,1.6-20.1,2.6-27.8,3.3c7,0.5,14.6,0.7,22.8,0.2c42.6-2.5,83.2-17.3,98-28.9c0,0-5.3,15.3-10.7,23.8s-17.9,17.6-17.9,17.6
				s13.4,2.8,48.8-18.8c34.7-21.1,60.8-43.5,121.1-47.1C1010.4,398.7,993.4,402.3,981.5,407z M1071.6,376.7c25.3-25.6,38-47.7,45-69
				c2.6-7.8,3.9-13.8,4.7-18.6c-0.3,3.8-0.8,7.7-1.5,11.4c-2.3,12.5-6.8,24.4-12.9,35.6c-5.8,10.8-12.7,21-20.5,30.5
				c-6.5,7.9-15.7,13.9-24.6,19.4C1064.7,383.5,1067.9,380.4,1071.6,376.7z M1040.9,388.7c-0.2-0.9-0.4-1.9-0.6-3
				c6.6-38,5-65.1-17.3-94.1c-23.3-30.4-43.3-46.6-88.8-56.9c-4.1-0.9-8.2-1.8-12.3-2.5c7.2-0.7,14.3-1.6,21.6-1.1
				c17.5,1.2,34.8,8.3,49.1,18.2c27.6,19.2,45.4,48.6,52.1,81.4C1048.6,350,1046.8,369.9,1040.9,388.7z M892.2,226.8
				c14.9-1.6,29.8-3.3,44.7-4.8c27.1-2.7,59.4-4.9,83.8,9.5c23.2,13.7,37.6,42.5,42.8,68.1c5.9,29.4,0.2,58-13.2,84.2
				c-1.6,1.2-3.1,2.5-4.5,3.8c6.1-33.2,3.5-69.7-13.1-99.3c-15.9-28.4-43-50.9-75-58.4c-10.4-2.5-20.8-2.7-31.5-1.4
				c-4.7,0.6-9.6,1.4-14.4,2c-9.1-1.3-18-2.2-26.4-2.8C887.7,227.3,890,227,892.2,226.8z M847.5,242.9c9.5-5.5,30.6-3.8,64.9,0.7
				c34.3,4.5,61.8,16.5,87.6,43.9c16.1,17.2,23.5,29.9,28.2,41.5c-12.7-18.6-29.3-35.1-47.2-47.7c-28.5-20.2-62.8-32.6-97.8-34.3
				c-14.4-0.7-28.8,0.7-43.2,0.3C842.4,245.7,845.1,244.3,847.5,242.9z M825,224.7c-18.2-2.1-29.1-14.1-32.4-25.4
				c5.7,6.9,13.6,12.2,21.2,16.6c6.1,3.5,12.4,6.8,19,9.4C830.1,225.2,827.4,225,825,224.7z M837.3,249.3
				c10.8,0.5,21.7-0.3,32.5-0.4c18-0.2,36,2,53.3,7c33,9.4,63.4,28.3,85.8,54.4c10.8,12.6,19.1,26.5,26.6,41.2
				c0.4,1.5,0.7,2.9,1,4.4C1024.6,329,1003,306,978.9,290c-28.2-18.7-61.5-28.9-95.2-29.6c-16.3-0.3-32.7,1.3-48.4,5.5
				C831.1,257.6,833.2,252.8,837.3,249.3z M1021.8,342.9c-9.2-10.9-20.6-20.1-32.6-27.8c-12.8-8.1-26.1-15.8-40.6-20.6
				c-14.7-4.8-30.3-6.2-45.7-6.2c-14.4,0-28.8,0.8-43.2,2c-4.5-1.8-12.7-6.5-21.3-18.9c-0.8-1.2-1.6-2.3-2.2-3.4
				c61.9-14.1,131.6,3.4,173.3,53.1c9.4,11.3,16.4,23.4,22.4,36.4C1029,352.2,1025.6,347.4,1021.8,342.9z"/>
			<path opacity="0.3" fill="#091426" enable-background="new    " d="M693.9,381.1c0.4,0.1,0.6-0.6,0.2-0.7
				c-0.5-0.1-0.9-0.3-1.4-0.5c-2.2-0.5-4.1-1.2-5.8-2.3c-2.9-1.8-4.6-3.9-5.3-6.2c-3.3-4.8-3.6-10.7,2.3-15.6
				c3.9-3.2,8.7-5,13.7-5.6c5.8-2.2,11.7-2.3,15.8-1.5c-4.9-2.1-12.1-1.7-16.6-1c-6.2,0.9-12.5,3.9-16.8,8.5
				C669.9,367,682.9,379.3,693.9,381.1z"/>
		</g>
	</g>
</g>
</svg>
