<?xml version="1.0" encoding="utf-8"?>
<!-- Generator: Adobe Illustrator 23.0.3, SVG Export Plug-In . SVG Version: 6.00 Build 0)  -->
<svg version="1.1" id="Layer_1" xmlns="http://www.w3.org/2000/svg" xmlns:xlink="http://www.w3.org/1999/xlink" x="0px" y="0px"
	 viewBox="0 0 2000 2000" enable-background="new 0 0 2000 2000" xml:space="preserve">
<g id="Back">
	<g id="_x32_1_x5F_Hair_x5F_Ponytail_x5F_back_x5F_Main_Asset">
		<path fill="#9F592A" d="M1260.8,837.5c-0.2,0.3-6.5,9.6-8.7,19.9c-2.2,10.2-0.8,19.8,7.3,27.7s13.8,12.9,15.3,17.7
			s1.8,8.5-1.5,11.8s-5.6,5.4-2.2,5.8c3.4,0.4,8-3.5,8.3-9.5s0.1-12.5-10.7-22.5s-8-26.8-5.7-33.3s7.5-12.8,7.5-12.8
			s-1.7,12.4,8.9,23.2s17.8,9.1,23.1,22.3s9.6,16.5,5,37.7s-8.8,21.9-8,31.3c0.8,9.4,4.1,10.9,9.9,10.2c5.8-0.8,8.4-3.7,7.1-5.5
			s-3.2,0.9-6,1.2c-2.8,0.2-8.8-1.9-6-11.3c2.8-9.4,8-7.5,11.3-24.3s4-44.3-8-55s-15.3-29.3-16.2-39.2c-0.8-9.8-1.6-39.4-1.6-39.4
			s-9.7,18-15.9,27.8C1272.4,824,1260.8,837.5,1260.8,837.5z"/>
	</g>
	<g id="_x32_1_x5F_Hair_x5F_Ponytail_x5F_back_x5F_Highlights">
		<path opacity="0.35" fill="#E8FFFA" enable-background="new    " d="M1284.7,829.1c0.1,3.4,0.7,6.8,1.5,10.1
			c1,6.4,2.2,12.7,4.4,18.9c1.5,4.4,3.3,8.7,5.5,12.8l0.1,0.1c1.8,2.1,3.7,4.1,5.6,6.1c1.4,1.4,2.7,2.8,4,4.2c0-0.1,0.1-0.3,0-0.4
			c-1.2-4.1-4.2-7.4-6.3-11.1c-2.3-4.1-4.2-8.3-5.7-12.7c3,5.7,6.5,11.4,10.8,16.1c3.1,3.5,6.7,6.1,9.1,10.3
			c1.4,2.5,2.3,5.2,3.4,7.7c-1.2-7.3-3.7-13.9-7.8-18.3c-2.2-2-4.5-3.9-6.3-6.4c-2.5-3.5-4.7-7.2-6.8-10.9
			c-4.9-8.6-8.6-17.7-9.3-27.6c-0.3-4.7-0.4-9.6-0.5-14.3c-0.1-4.6,0.9-9-0.1-13.6c-0.4,0.7-0.8,1.5-1.3,2.3
			c-0.4,3.8,0.2,7.5,0,11.3c-0.1,3.4-0.4,6.8-0.5,10.3c-0.2,0.1-0.4,0.3-0.4,0.7c0.1,0.8,0.2,1.6,0.3,2.4
			C1284.6,827.9,1284.6,828.5,1284.7,829.1z"/>
	</g>
	<g id="_x32_1_x5F_Hair_x5F_Ponytail_x5F_back_x5F_Shadows">
		<path opacity="0.3" fill="#091426" enable-background="new    " d="M1278.2,915.7c0.7-1.4,1.2-3,1.3-4.8c0-0.4,0-0.9,0.1-1.3
			c-1.4-2.5-3-4.9-4.8-7.1c0,0.1,0.1,0.2,0.1,0.3c0.8,2.5,1.2,4.6,1,6.7C1276.8,911.3,1277.5,913.5,1278.2,915.7z"/>
		<path opacity="0.3" fill="#091426" enable-background="new    " d="M1294,868.5c-1.2-2.3-2.4-4.7-3.3-7.2c-2.3-6.2-4-12.5-5-19
			c-1.1-7.3-1.6-14.8-2-22.2c-0.2-4.8,0-9.6-0.3-14.4c-0.8,1.4-1.6,2.8-2.4,4.2c0,4.1,0.3,8.2,0.5,12.1c0.4,7.3,0.9,14.6,2.1,21.8
			c0.9,5.6,2.3,11.2,4.3,16.6c-0.8-1.3-1.6-2.6-2.4-3.9c-2.5-4.5-4.3-9.5-5.2-14.6c-0.9-5.2-0.3-10.3-0.8-15.5
			c0-0.4-0.7-0.6-0.8-0.1c-3.4,17.1,3.9,33.8,13.9,47.3c0.5,0.7,1,1.3,1.6,2c-5.5-5-10.8-10.2-13.9-17c-2.5-5.6-3.4-11.9-4.5-17.9
			c-1.1-5.7-2.2-11.3-3.4-17c-2.4,3-6.2,7.5-8.8,10.6c-9,11.6-10.9,27.2-8.2,41.3c0.5,2.4,1.1,4.8,1.9,7.1c0.7,0.8,1.4,1.6,2.2,2.4
			c2,1.9,3.8,3.6,5.4,5.2c-2-3.1-3.8-6.4-5-10.3c-2.4-7.4-3.3-15.3-2.7-23c0.6-8.5,3.4-15.5,7.6-22.8c0.7,4.2,1.7,8.4,2.5,12.7
			c1.8-2.8,3.3-4.7,3.3-4.7s-0.5,3.5,0.7,8.4c0.1-0.1,0.3-0.1,0.4-0.2c0.3,1.6,0.6,3.1,1,4.6c1.3,3.3,3.5,6.9,6.8,10.3
			c10.6,10.8,17.8,9.1,23.1,22.3c4.3,10.9,8,15.1,6.6,28.1c0.1,5.1-0.3,10.3-1,15.3c-0.7,5.7-2.4,11.6-2.6,17.3
			c2-4.4,4.6-5.9,7.1-11c0.2-1.5,0.4-3,0.6-4.5c0.9-6.2,1.3-12.5,1-18.8c-0.4-8.2-2-15.9-5.9-22.7c0.7,0.8,1.4,1.7,2,2.5
			c3.4,4.6,5.8,9.7,7.5,15c0.1-4.2,0.1-8.4-0.3-12.5c-4.3-7-10-13.2-15.9-19.3C1299.1,874.4,1296.4,871.5,1294,868.5z"/>
		<path opacity="0.3" fill="#091426" enable-background="new    " d="M1310.8,966.6c-0.6-1.4-1.3-2.8-1.8-4.1c0-0.1,0-0.1-0.1-0.2
			c-1.8-0.4-4-1.6-4.8-4.4c0,0.2-0.1,0.3-0.1,0.6c-0.1,0.6-0.1,1.2-0.1,1.7c0,1.5,0.2,3.1,0.5,4.6c0.1,0.6,0.3,1.2,0.4,1.9
			c1.3,0.4,2.9,0.3,4.6,0.1C1310,966.8,1310.4,966.7,1310.8,966.6z"/>
	</g>
</g>
</svg>
