<?xml version="1.0" encoding="utf-8"?>
<!-- Generator: Adobe Illustrator 22.1.0, SVG Export Plug-In . SVG Version: 6.00 Build 0)  -->
<svg version="1.1" xmlns="http://www.w3.org/2000/svg" xmlns:xlink="http://www.w3.org/1999/xlink" x="0px" y="0px"
	 viewBox="0 0 2000 2000" style="enable-background:new 0 0 2000 2000;" xml:space="preserve">
<style type="text/css">
	.st0{fill:#9F592A;}
	.st1{opacity:0.25;fill:#E8FFFA;enable-background:new    ;}
	.st2{opacity:0.35;fill:#E8FFFA;enable-background:new    ;}
	.st3{opacity:0.3;fill:#091426;enable-background:new    ;}
	.st4{fill:none;}
</style>
<g id="Masked">
	<g id="_x32_3_x5F_Hair_x5F_SidePartBangsWavytMed_x5F_back_x5F_Main_Asset">
		<path class="st0" d="M1284.1,498.5c0,0,15.7,20.1,19.5,37.2s-3.2,37.2-6.3,65c-3.1,27.8-11,64.1,26.9,103.8
			s103.1,75.3,135.1,113.8s67.7,78.7,53.4,138.8c0,0-46.6-13.4-89.7,0c-43,13.4-49.8,54.5-55.3,84.2s-4.1,69.3-24.9,102.7
			s-40.7,22.3-66.9,10.3s-72-45.8-101-72.6s-66.1-69.1-86.2-89s-28.3-24.3-33.1-29.4s-1.5-15.2-1.5-15.2s46.9-10.2,107.1-40.5
			s86.5-51.5,105.5-83.3c19.1-31.8,23.9-53.7,23.1-78.7s-15.9-37.2-19.7-45.9c-3.6-8.4-0.7-14.9,3.6-47.3
			c4.3-32.4,8.7-67.6,10.6-106.4C1286.4,507.3,1284.1,498.5,1284.1,498.5z"/>
		<path class="st0" d="M668.4,870.5c1.1,1.1,42.3,41.7,107.6,67.3s134,24.6,167.4,22.6s51-1.8,51-1.8s6,0.4-7.9,11.6
			c-13.9,11.2-55.3,55.1-100.7,82s-99.6,65.6-131.7,86.7c-32,21.1-43.7,30.5-43.7,30.5s-27-20.6-74.9-45.4
			c-48-24.9-71.2-44.4-87.3-60.6s-24-30.4-15.5-54.2s61.2-69.4,77.6-88.7C626.6,901.1,668.4,870.5,668.4,870.5z"/>
		<path class="st0" d="M834.8,1207.9c0,0,6.2,14.1,30.2,21s54.4,5.6,59,2.1s-10.4,2.3-22.7-2.1s-17.8-26.1-14-53.6
			s27.3-48.2,27.3-48.2s-8.5,18.8-1.3,30.8c7.2,11.9,20.1,28.1,14.6,39.4c-5.4,11.3-18.4,16.4-25.3,17.9c-6.8,1.5,1.7,2.7,14.1,0
			s20.5-12,20.5-12s12-53.1,18.9-91s12.2-68.3,12.2-68.3s-30.2,30.8-60,60.3C878.3,1133.7,834.8,1207.9,834.8,1207.9z"/>
		<path class="st0" d="M1137.4,1141.8c21.5,42.7,65.5,82.1,65.5,82.1s10.3,11.5,8.6,33.3s-9.6,30.2-12.5,32.9s-0.9-2.9-4.8-26.4
			s-23.8-52.4-41.9-66.8c0,0-4.7-15.8-9-29.9C1139.1,1153.1,1137.4,1141.8,1137.4,1141.8z"/>
		<path class="st0" d="M1484.9,1186.1c0,0,10.1,32.5-14.1,67.7s-49.8,47.6-62,58s-19,25-16,34.5s12,22.8,3.5,14.8
			s-20.9-17.8-8.8-49.2s27.4-33.8,36.3-55.5c0,0,12.6-9.2,31.5-31.2C1469.1,1209.1,1484.9,1186.1,1484.9,1186.1z"/>
	</g>
	<g id="_x32_3_x5F_Hair_x5F_SidePartBangsWavytMed_x5F_back_x5F_Highlights">
		<path class="st1" d="M1388.7,812c5,6,9.9,12.3,13.2,19.5c3.5,7.5,5.4,15.7,6.7,23.9c2.7,17.4,2.6,36-6.4,51.7
			c-0.9,1.6,1.6,3.1,2.5,1.5c7.7-12.6,9.8-27.4,9.1-41.9c-0.7-15.3-3.3-31.2-11.7-44.4c-8.3-13.1-19.4-24.7-29.9-36.1
			c-10.9-11.9-22.3-23.3-33.3-35.2c-5.9-6.4-12-12.8-17.6-19.6c-6.4-7.6-12.5-15.2-18.5-23.1c-0.3-0.5-1.1-0.1-0.8,0.5
			c15.1,25.8,36.3,47.9,56.6,69.7C1369,789.5,1379.2,800.5,1388.7,812z"/>
		<path class="st1" d="M1425,885.3c3.9-8.6,3.2-19.2,1.5-28.2c-1.9-10.4-6.8-20.6-12.1-29.6c-10.8-18.1-25.5-35.8-42.4-48.6
			c-0.5-0.4-1.1,0.4-0.7,0.8c14.9,14.5,28.1,29.3,38.6,47.4c5,8.7,9.5,17.9,12.1,27.7c1.3,5,2.4,10,2.5,15.1c0.1,5-0.9,9.8-1.6,14.7
			C1422.8,885.8,1424.6,886.3,1425,885.3z"/>
		<path class="st1" d="M1458.9,818.4c-9.4-10.6-20-19.8-31-28.8c-11-8.9-21.9-17.9-32.8-27c-20.4-15.2-41.4-30.6-58.8-46.5
			c-0.8-0.6-1.7-1.2-2.5-1.8c-1.4-1-3.2,1.2-1.9,2.4c19.1,17.6,39.4,34,59.8,50.3c-2-1.4-3.9-2.7-5.9-4.1
			c-9.6-6.8-18.8-14.2-27.7-21.9c-8.4-7.3-16-16.1-25.1-22.6c-0.5-0.4-1.1-0.2-1.6,0.2c-0.7-0.4-1.4-0.9-2.1-1.2
			c-0.6-0.3-1.4,0.4-1,1c1.5,2,3.2,3.8,5.1,5.5c4.7,6.4,11,12.1,16.6,17.5c7,6.6,14.3,12.8,21.9,18.6c2.1,1.6,4.3,3.3,6.5,4.8
			c15.8,14.7,30.6,30.2,45.1,46.3c1.4,1.5,4.2-0.5,2.9-2.2c-7.1-9.4-14.9-18.2-23.2-26.7c5.7,4.1,11.3,8.4,16.6,13.1
			c28.1,25,48,57.4,60.3,92.8c7.2,20.9,11.1,42.4,9.9,64.5c1.4,0.2,2.8,0.4,4.2,0.6c0.4-38.5-12-76.8-30.8-110.1
			c-8.4-14.9-18.3-28.8-29.5-41.7c9.9,8.6,19.2,17.7,27.5,28c5.5,6.9,10.7,14.2,15.3,21.7c4.4,7.3,7.4,15.3,11.8,22.5
			c0.2,0.3,0.5,0.5,0.8,0.5c0.9,1.5,2,2.8,3.3,3.9c1.5,1.2,4.3,0.2,3.6-2.1c-3.7-11.3-10.6-22.4-17.1-32.3
			c-2.8-4.2-5.7-8.5-8.8-12.6c-2.2-2.7-4.4-5.4-6.7-8C1461.9,821.6,1460.4,820,1458.9,818.4z"/>
		<path class="st2" d="M1475.4,1239.7c3.1-4.6,5.3-9.8,6.6-15.2c1.5-6.2,2.2-12.7,1.6-19.1c-0.4-4.7-1.7-9.2-2.7-13.7
			c-0.7,1-1.5,2.1-2.4,3.3c0.4,2.2,0.9,4.4,1.1,6.7c0.4,6.1-0.8,12.7-2.1,18.7c-1.2,5.4-3,10.6-6,15.3c-0.3,0.5-0.7,1-1.1,1.5
			c0.9-5.1,1.3-10.4,1.5-15.5c0.2-3.6-0.4-7.1-0.5-10.6c-0.1-2.1-0.1-4.2-0.1-6.3c-0.8,1-1.6,2.1-2.4,3.2c-0.1,3.5-0.2,6.9-0.5,10.4
			c-0.5,6.3-2.1,13.2-3.7,19.3c-3.2,12.3-10.8,21.4-17,32.1c-0.5,0.9,0.5,1.7,1.3,1.3c9.1-4.2,15.2-13.7,18.6-23.4
			C1471,1246.2,1473.4,1242.7,1475.4,1239.7z"/>
	</g>
	<g id="_x32_3_x5F_Hair_x5F_SidePartBangsWavytMed_x5F_back_x5F_Shadows">
		<path class="st3" d="M994.3,958.6c0,0-17.5-0.2-51,1.8s-102.1,3.1-167.4-22.6c-65.3-25.7-106.4-66.2-107.6-67.3
			c0,0-41.8,30.6-58.2,49.9c-14,16.5-54.6,52.3-71.4,77.2c0.3,3.8,0.7,7.6,1.2,11.4c0.4,2,0.7,4,0.9,6c2.5,14.1,7.5,27.6,18.3,37.7
			c4.1,3.8,8.6,7.1,13.4,10c3.3,2,7.3,3.4,9.2,7c5.4,10.1,8.9,21.2,13.9,31.5c11,7.1,24.1,14.6,39.7,22.8
			c48,24.9,74.9,45.4,74.9,45.4s0.7-0.6,2.4-1.8c-14.9-14.6-31.8-26.2-51.5-33.5c-1.1-0.4-0.6-2.1,0.5-1.7
			c20.1,7.2,39.4,17.8,55.4,32c3.6-2.6,8.7-6.3,15.7-11.1c-1.3-1.3-2.5-2.7-3.8-4.2c-3-3.5-6.3-6.9-9.7-10c-7-6.6-14.7-13.1-23-18.2
			c-0.4-0.2,0-0.8,0.3-0.6c7.4,4,14.5,8,21.2,13c-1.4-1.3-2.8-2.6-4.3-3.9c-8.1-6.9-16.6-13.1-24.9-19.8
			c-8.3-6.6-16.5-13.5-23.6-21.4c-3.1-3.5-6-7.2-8.6-11.1c-2.3-3.5-5.3-7.7-5.5-11.9c0-0.3,0.3-0.4,0.5-0.2
			c3.3,3.3,5.1,8.4,7.9,12.3c3.2,4.5,6.9,8.7,10.9,12.6c7.5,7.5,15.8,13.9,24.3,20.1c8.3,6,16.7,12,24.5,18.6
			c7,5.9,14.6,12.8,19.3,20.8c4.6-3.1,9.7-6.6,15.6-10.4c5.8-3.8,12.4-8.3,19.6-13.1c-0.6-1-1.1-2-1.6-2.7
			c-3.7-5.5-7.2-10.9-10.6-16.6c-3.3-5.7-6.6-11.3-10.1-16.9c-3-4.9-7.4-9.7-9.4-15.1c-0.1-0.3,0.3-0.5,0.5-0.3
			c4.7,3.9,8,10,11.7,14.9c3.8,5,7.7,10,11.5,15c2.7,3.5,5.3,7,7.8,10.6c-2.4-5.2-5.1-10.3-8.2-15.3c-2.9-4.6-5.9-9-8.9-13.5
			c-2.3-3.5-6-7.4-7.1-11.5c-0.1-0.2,0.1-0.4,0.4-0.4c4.2,1.4,8.2,6.2,11.2,9.5c3.6,4,6.7,8.3,9.6,12.9c2.6,4.1,5.1,8.4,7.4,12.9
			c1.5-5.2,3.2-10.4,4.4-15.6c2.1-9.2,3.4-18.5,3.9-27.8c1-18.1-0.7-36.3-1.3-54.4c0-0.4,0.7-0.5,0.7-0.1c3,18.4,4.4,36.9,3.6,55.5
			c-0.3,7.6-1.1,15.1-2.4,22.5c0.6-1.5,1.2-3,1.8-4.5c5-12.6,9.4-24.9,12.9-38c0.2-0.7,1.5-0.6,1.4,0.2c-3,24.6-16,46.6-21.1,70.6
			c0.2,0.4,0.4,0.8,0.5,1.2c1.2-3.3,2.9-6.6,4.1-9.7c1.9-4.8,3.6-9.7,5.5-14.5c3.7-9.3,7.3-18.7,11.4-27.8c0.2-0.4,0.6-0.1,0.7,0.2
			c0.5,4.9-1.4,9.5-2.8,14.1c-1.5,4.9-3.1,9.8-4.8,14.7c-1.8,5.2-3.7,10.3-5.6,15.5c-0.4,1.1-0.7,2.3-1.1,3.4
			c18.4-12.5,39-26.6,59.6-39.9c-0.2-3.3-0.4-6.6-1.4-9.8c-1.5-4.7-4.1-9.4-4.5-14.3c0-0.3,0.4-0.4,0.5-0.2
			c3.4,3.8,5.5,9.3,7.7,13.9c1.2,2.5,1.8,5,2.3,7.5c10.8-7,21.5-13.7,31.8-19.7c45.4-26.9,86.7-70.8,100.7-82
			S994.3,958.6,994.3,958.6z"/>
		<path class="st3" d="M863.4,1216.1c4.7,4.2,9.8,8.1,15.1,11.4c0.3,0.2,0.6,0.4,0.9,0.6c-0.2-0.3-0.4-0.6-0.6-0.9
			c-5.1-5.3-9.6-11.1-13.4-17.3c-7-11.6-9.4-23.3-9.3-36.3c-4.9,7.5-9.2,14.4-12.6,20c2.8,3.1,4.9,7.4,7.7,10.4
			C855.1,1208.1,859.1,1212.2,863.4,1216.1z"/>
		<path class="st3" d="M870.1,1210.6c-3.3-9.1-4.1-18.3-4.1-28.1c0.1-11.6,1.5-22.7,6.4-33.4c-5.6,8-10.9,16-15.7,23.4
			c1,12.6,4.5,25,11.6,35.6C868.9,1209,869.5,1209.8,870.1,1210.6z"/>
		<path class="st3" d="M934.1,1162.1c-3.1-6.5-4.8-13.2-5.4-20.3c-0.6-8.2,0.1-16.4,1-24.5c0.3-3,0.6-5.9,1.3-8.8
			c-2.6,2.2-5.1,4.5-7.6,6.8c-3.3,4.2-6.8,8.2-9.9,12.6c-0.1,0.1-0.2,0.3-0.3,0.4c0.8-0.8,1.3-1.3,1.3-1.3s-8.5,18.8-1.3,30.8
			c7.2,11.9,20.1,28.1,14.6,39.4c-5.4,11.3-18.4,16.4-25.3,17.9c-6.8,1.5,1.7,2.7,14.1,0s20.5-12,20.5-12s2-8.6,4.7-21.4
			c-0.9-2.6-1.5-5.4-2.5-8C938,1169.8,936,1166,934.1,1162.1z"/>
		<path class="st3" d="M847.9,1206.4c-1.9-2.9-4.8-6.1-6.5-9.5c-1.1,1.8-2.1,3.4-3,4.9c6.1,5.3,11.8,10.7,18.3,15.4
			C853.5,1213.8,850.5,1210.3,847.9,1206.4z"/>
		<path class="st3" d="M836.6,1204.9c-1.2,1.9-1.8,3-1.8,3s6.2,14.1,30.2,21c0.4,0.1,0.8,0.2,1.2,0.3c-2.2-1.2-4.3-2.6-6.3-4
			C851.7,1219.7,842.8,1213,836.6,1204.9z"/>
		<path class="st3" d="M947.8,1112.3c0.2-5.7-0.1-12.9,1.5-19.1c-1,0.8-2,1.7-3,2.5c-1.2,4.9-2,10.1-2.7,14.9
			c-1,6.8-1.4,13.7-1,20.6s1.6,13.8,3.5,20.4c0.4,1.4,0.9,2.7,1.3,4.1c0.8-3.9,1.6-7.8,2.4-11.8
			C947.3,1133.8,947.5,1122.7,947.8,1112.3z"/>
		<path class="st3" d="M950.5,1115.1c-0.1,6.3,0.5,12.3,1.6,18.3c1.4-7.3,2.8-14.5,4-21.2c1.9-10.6,3.7-20.7,5.3-29.6
			c-2.9,2.8-5.9,5.5-9,8.1C950.4,1098.5,950.6,1107.1,950.5,1115.1z"/>
		<path class="st3" d="M908.2,1104.2c-7.6,7.5-16,17.8-24.4,29c-2.3,4.4-4.6,8.8-6.8,13.3c-5.4,10.8-7.4,21.3-7.4,33.4
			c0,10.3,1.4,20.4,5.4,29.9c-2.1-9.4-1.4-19.9-0.3-28.5c2.1-15.7,7.4-31.5,16.3-44.7c8.5-12.7,20.4-23.8,31.7-34
			c10.9-9.9,23.4-20,38.2-22.9c0.4-0.1,0.8,0,1.1,0.2c3.8-21.5,6.3-36,6.3-36S938.1,1074.8,908.2,1104.2z"/>
		<path class="st3" d="M939.9,1131.3c-0.3-6.5,0-13,0.9-19.5c0.7-5.3,2.2-9.9,3.9-14.6c-3.5,2.9-7.1,5.7-10.5,8.7
			c-1.1,5.2-1.2,10.9-1.6,15.8c-0.6,7.5-1.2,15.2-0.2,22.7c1,7.9,4.1,15.1,8,22c1.1,2,2.5,4.2,3.7,6.4c0.5-2.5,1.1-5.1,1.7-7.8
			c-1.2-4.7-2-9.6-2.9-14.3C941.3,1144.3,940.3,1137.8,939.9,1131.3z"/>
		<path class="st3" d="M1186.1,1218.3c5.4,7.7,10.1,15.5,13.6,24c-0.7-2.6-1.5-5.2-2.4-7.8c-4-11.3-9.9-22.1-16.2-32.5
			c-14.2-15.4-32.2-37.3-43.7-60.2c0,0,0.8,5.3,2.7,13.1c6,10.9,12,21.6,20,31.2C1168.8,1196.8,1178.1,1207,1186.1,1218.3z"/>
		<path class="st3" d="M1181,1215.6c-8.4-11.3-17.6-22.1-26.3-33.2c-4-5.1-7.3-10.7-10.4-16.4c-0.8-1.5-1.7-3.1-2.6-4.6
			c0.5,1.9,1.1,3.8,1.7,5.8c4.2,14,9,29.9,9,29.9c18.1,14.4,38,43.3,41.9,66.8c3.5,21.5,2.2,28,4.1,26.9
			C1203.7,1264.3,1197.2,1237.3,1181,1215.6z"/>
		<path class="st3" d="M1406.7,1313.6L1406.7,1313.6L1406.7,1313.6C1406.7,1313.5,1406.7,1313.6,1406.7,1313.6z"/>
		<path class="st3" d="M1404.8,1305.8c6.7-9.8,15.5-17.8,24.1-26c9.4-9,18-18.6,23.7-30.4c2.7-5.7,4.9-11.7,6.5-17.8
			c1.3-4.9,2.9-10.1,3.5-15.2c-1.8,2.3-3.6,4.5-5.4,6.6c-0.2,2.2-0.5,4.3-1,6.6c-0.8,3-1.6,5.9-2.9,8.8c-2.5,5.9-5.6,11.5-9.3,16.7
			c-3.9,5.4-8.4,10.4-12.8,15.4c-4.9,5.6-9.7,11.5-15.1,16.5c-0.8,0.8-2.3-0.2-1.6-1.2c7.7-11.2,17.8-20.7,25.6-31.9
			c3.9-5.7,7.2-11.7,10-18.1c1.2-2.9,2.6-5.9,3.9-9c-18.1,20.7-30,29.4-30,29.4c-8.9,21.7-24.2,24-36.3,55.5s0.2,41.2,8.8,49.2
			s-0.5-5.2-3.5-14.8c-1.5-4.7-0.6-10.6,2.1-16.6C1395.2,1321.2,1400.5,1312.1,1404.8,1305.8z"/>
		<path class="st3" d="M1463.1,1215.6c-0.3,4.5-0.3,8.9-1.1,13.4c-1.1,5.7-3,11.4-5.2,16.8c-4,9.9-9.5,19.4-16.3,27.7
			c-2.1,2.5-4.2,5-6.4,7.4c-3.5,5.2-6.9,10.4-10.6,15.4c-2.5,3.3-4.9,6.6-7.4,9.9c4.7-3.4,10.3-7.2,16.5-12c1-1.8,2.2-3.5,3.2-5.1
			c2.2-3.6,4.5-7.1,6.8-10.6c4.8-7.4,9.7-14.8,13.9-22.6c4.2-7.9,7.8-16.2,9.6-24.9c1.5-6.9,1.7-14.1,1.8-21.3
			C1466.3,1211.6,1464.7,1213.6,1463.1,1215.6z"/>
		<path class="st3" d="M1167.6,1062.5c-0.5-5-1.1-10.3-1.6-15.6c-0.4,4.4-0.6,8.8-0.6,13.2c0,4.6,0.6,9.2,1.3,13.8c1,1,2.1,2,3.1,3
			C1168.9,1072.2,1168.1,1067.4,1167.6,1062.5z"/>
		<path class="st3" d="M1345.4,1065.9c-4.8-12.8-6.7-26.3-5.4-39.8c0.1-0.8-1.1-0.8-1.2,0c-1.8,14.2-0.3,28.6,4.2,42.1
			c3.5,10.5,8.9,21.9,16.6,30.4c0.5-2.3,0.9-4.7,1.3-7c-2-2.3-4-4.7-5.8-7.3C1351.3,1078.5,1347.9,1072.3,1345.4,1065.9z"/>
		<path class="st3" d="M1345.3,1139.8c0.3-0.6,0.7-1.2,1-1.8c0.3-0.5,0.6-1.1,0.8-1.6c0.2-0.5,0.5-0.9,0.7-1.4
			c0.3-0.6,0.6-1.2,0.9-1.9c0.2-0.4,0.4-0.8,0.5-1.1c0.3-0.7,0.6-1.4,0.9-2.1c0.1-0.3,0.3-0.6,0.4-0.9c0.3-0.8,0.7-1.6,1-2.4
			c0.1-0.2,0.2-0.4,0.2-0.6c0.3-0.9,0.7-1.7,1-2.6c0-0.1,0.1-0.2,0.1-0.3c0.3-0.9,0.7-1.9,1-2.8l0,0c-4.1-2.1-8.8-4.8-13.7-8.1
			c-13.2-13.1-22.1-30.2-26-48.5c-2.7-12.9-1.7-26.1,0.6-39c1.1-6.5,3-12.7,4.9-19c1.8-5.8,4.8-12,5.4-18.1c0.1-0.7-0.9-0.8-1.2-0.3
			c-3.5,5.6-5.1,13.3-6.9,19.6c-2.1,7.1-4.1,14.4-5.7,21.6c-2.7,12.5-3,25.3-1.3,37.9c1.4,9.7,4.6,19.1,9.3,27.7
			c-0.1-0.1-0.2-0.2-0.3-0.3c-19.2-22.3-29.5-67.8-12.3-92c8.8-12.4,21-34.1,32.3-56.1c-5.6,15.7-10.3,31.9-12.9,48.5
			c-4.5,29.3-3.3,61.7,8.3,89.4c4.9,11.6,12.1,23,20.9,32.4c0.7-2.2,1.3-4.4,1.9-6.6c-16-18.1-25.6-40.3-29.6-64.5
			c-5.4-32,3.6-66.3,14.3-96.2c3-8.5,6.4-16.9,9.8-25.3c2.3-5.6,5.1-11.5,7-17.5c2.7-5.8,5.1-11.1,7-15.6c12-28.2,1.8-63.2-7.7-88.3
			c-3.7-9.8-12.4-23.1-22.2-36.3c12.5,14.5,25.7,28.8,36.5,44.7c10.6,15.6,19.2,33.1,21.1,52.1c0.5,4.9,0.5,9.9,0,14.7
			c-0.1,0.1-0.2,0.3-0.2,0.5c-1.8,11.3-5.9,21.7-10.9,31.8c-0.6,1-1.2,1.9-1.8,2.9c-0.2,0.3-0.2,0.6-0.1,0.9
			c-7.1,13.5-15.6,26.4-21.9,40.1c-12.1,26.1-13.9,55.5-8.2,83.4c2.6,12.5,6.7,25.1,13.3,36.1c0.4-3,0.7-6.1,1.1-9
			c-4.4-7.8-7.7-16.1-9.8-25c-3.1-13.4-3.2-27.7-2.2-41.3c1.1-15.6,4.9-30.2,11.5-44.5c1.8-3.8,3.7-7.6,5.6-11.3
			c-3.1,10.6-4.8,21.7-5.2,32.9c-0.3,8.9,0.3,17.8,1.9,26.6c1.2,6.5,2.6,13.8,5.3,20.2c0.8-3.5,1.7-7,2.8-10.4
			c-1.1-2.8-2.1-5.6-3-8.5c-2.4-8.7-3.8-17.9-4.1-26.9c-0.5-14.3,2-28.7,6.8-42.2c2.8-5.1,5.5-10.2,8.1-15.5
			c1.4-2.8,2.7-5.6,3.9-8.5c6.5-8.6,10-20.3,11.1-30.5c1.5-14.2-1.4-28.8-6.6-42c-11.5-29.4-33.7-53.2-54.1-76.7
			c-12.8-14.8-25.7-29.6-39.5-43.4c-0.3-0.3-0.9,0.1-0.6,0.5c1.9,2.5,3.7,5,5.7,7.5c-2.6-2.9-4.9-5.3-6.5-6.9
			c-6.6-6.7-18.2-20.8-26.6-31.3c0,0.3-0.1,0.6-0.1,1c0,0.1,0,0.1,0,0.2c0,0.3-0.1,0.5-0.1,0.8c0,0.1,0,0.2,0,0.3
			c0,0.2,0,0.5-0.1,0.7c0,0.1,0,0.2,0,0.3c0,0.2,0,0.4,0,0.7c0,0.1,0,0.2,0,0.3c0,0.2,0,0.4,0,0.6c0,0.1,0,0.2,0,0.3
			c0,0.2,0,0.4,0,0.6c0,0.1,0,0.2,0,0.3c0,0.2,0,0.3,0,0.5c0,0.1,0,0.2,0,0.4s0,0.3,0,0.5c0,0.1,0,0.2,0,0.3c0,0.2,0,0.3,0,0.5
			c0,0.1,0,0.2,0,0.4c0,0.1,0,0.3,0.1,0.4c0,0.1,0,0.2,0.1,0.4c0,0.1,0.1,0.3,0.1,0.4c0,0.1,0.1,0.2,0.1,0.4c0,0.1,0.1,0.3,0.1,0.4
			c0,0.1,0.1,0.3,0.1,0.4c0,0.1,0.1,0.2,0.1,0.4c0,0.1,0.1,0.3,0.1,0.4c0,0.1,0.1,0.2,0.1,0.3c0.1,0.2,0.1,0.3,0.2,0.5
			c0,0.1,0.1,0.2,0.1,0.3c0.1,0.2,0.2,0.5,0.3,0.7c0,0,0,0,0,0.1c1.7,4.1,6,8.9,10.1,15.5c0.8,1.3,1.6,2.7,2.4,4.2c0.5,1,1,2,1.5,3
			s1,2.1,1.4,3.2c0.9,2.2,1.7,4.6,2.4,7.2c1,3.8,1.6,8.1,1.8,12.8c0.2,7,0,13.8-0.9,20.7c-0.2,1.5-0.4,3-0.7,4.6
			c-0.5,3.1-1.2,6.1-2,9.2c-0.8,3.1-1.7,6.3-2.9,9.5c-1.4,4-3.1,8.2-5,12.5c-1.6,3.5-3.3,7-5.3,10.7c-1,1.8-2,3.7-3.1,5.6
			c-1.1,1.9-2.2,3.9-3.4,5.9c-3.6,6-7.4,11.6-11.7,16.9c-5,6.2-10.5,12.1-16.9,17.9c-1.8,1.7-3.7,3.3-5.7,4.9
			c-3,2.5-6.1,4.9-9.5,7.3c-2.2,1.6-4.5,3.3-6.9,4.9c-14.4,9.8-32.2,19.9-54.8,31.3c-3.8,1.9-7.5,3.7-11.1,5.5
			c-1.8,0.9-3.6,1.7-5.4,2.6c-2.7,1.2-5.3,2.5-8,3.6c-1.7,0.8-3.5,1.5-5.2,2.3c-6.8,3-13.4,5.6-19.5,8c-4.6,1.8-9,3.5-13.2,5
			c-5.6,2-10.8,3.8-15.5,5.3c-5.3,1.7-10,3.1-13.9,4.3c-0.9,0.3-1.7,0.5-2.5,0.7c-8.1,2.3-12.7,3.3-12.7,3.3s-0.2,0.6-0.5,1.7
			c-0.1,0.3-0.1,0.5-0.2,0.8c-0.1,0.5-0.2,1-0.3,1.5c-0.2,1.3-0.3,2.7-0.2,4.2c0,0.4,0.1,0.8,0.1,1.3c0,0.2,0.1,0.4,0.1,0.6
			c0.2,1.1,0.5,2.1,0.9,3c0.4,0.8,0.8,1.5,1.4,2.1s1.3,1.3,2,1.9c0.7,0.6,1.5,1.3,2.4,2c0.4,0.4,0.9,0.7,1.4,1.1
			c1.5,1.2,3.1,2.5,5.1,4.1c1,0.8,2,1.6,3.1,2.6c3.3,2.8,7.3,6.3,12.2,10.9c0.5,0.5,1.1,1,1.6,1.6c1.7,1.6,3.5,3.3,5.3,5.2
			c0.5,0.5,1.1,1.1,1.6,1.6c0.1,0.1,0.2,0.2,0.3,0.3c0.3,0.3,0.6,0.6,0.9,1c0.4,0.4,0.7,0.7,1.1,1.1c0.3,0.3,0.6,0.6,0.9,0.9
			c0.4,0.4,0.8,0.8,1.3,1.3c0.3,0.3,0.6,0.6,0.9,0.9c0.4,0.5,0.9,0.9,1.3,1.4c0.2,0.2,0.4,0.4,0.6,0.6c0.6,0.6,1.1,1.2,1.7,1.8
			c0.2,0.2,0.4,0.4,0.6,0.7c0.6,0.6,1.2,1.2,1.8,1.8c0.1,0.2,0.3,0.3,0.4,0.5c0.7,0.7,1.3,1.4,2,2.1l0.1,0.1
			c0.8,0.8,1.6,1.7,2.4,2.5l0,0c0.1-3.8,0.2-7.6-0.6-11.5c-0.2-1,1.3-1.4,1.5-0.4c1.2,5.5,2.4,11.1,3.6,16.6
			c3.5,3.7,7.1,7.5,10.8,11.5c0.4,0.4,0.7,0.8,1.1,1.1c0.5,0.5,1,1.1,1.5,1.6c0.6,0.6,1.1,1.2,1.7,1.8c0.4,0.5,0.9,0.9,1.3,1.4
			c0.6,0.7,1.3,1.4,1.9,2.1c0.4,0.4,0.7,0.8,1.1,1.2c0.7,0.8,1.5,1.5,2.2,2.3c0.3,0.3,0.6,0.7,1,1c0.8,0.9,1.7,1.8,2.5,2.7
			c0.2,0.2,0.4,0.4,0.6,0.6c2.2,2.3,4.4,4.6,6.6,6.9c0.1,0.1,0.1,0.1,0.2,0.2c1,1,2,2.1,3,3.1c0.2,0.2,0.4,0.4,0.6,0.6
			c0.9,0.9,1.7,1.8,2.6,2.7c0.3,0.3,0.5,0.5,0.8,0.8c0.8,0.8,1.6,1.7,2.5,2.5c0.3,0.3,0.5,0.5,0.8,0.8c0.8,0.8,1.6,1.7,2.5,2.5
			c0.3,0.3,0.5,0.5,0.8,0.8c0.9,0.9,1.7,1.7,2.6,2.6c0.2,0.2,0.4,0.4,0.6,0.6c1,1,2.1,2.1,3.1,3.1c0-3.8,0.1-7.7,0.2-11.5
			c0.2-6.7,0.8-13.4,1.9-20c-0.2-4.8-0.1-9.4,0.6-13.9c0.1-0.8,1.4-0.7,1.5,0c1.1,5.6,1.1,11.6,1.7,17.3c0.6,6.5,1.7,12.9,2.9,19.3
			c1.1,5.9,2.2,11.9,3.4,17.8c0.3,1.2,0.5,2.3,0.8,3.5c2.7,2.5,5.6,5,8.6,7.6l0,0c1,0.9,2,1.7,3,2.6l0,0c1,0.9,2,1.7,3,2.6
			c0,0,0,0,0.1,0.1c1,0.8,2,1.7,3.1,2.5l0.1,0.1c1,0.8,2,1.7,3.1,2.5l0.1,0.1c1,0.8,2,1.7,3.1,2.5c0.1,0.1,0.1,0.1,0.2,0.2
			c1,0.8,2,1.6,3,2.4c0.1,0.1,0.2,0.1,0.3,0.2c1,0.8,2,1.6,3,2.4c0.1,0.1,0.2,0.2,0.4,0.3c1,0.8,2,1.5,3,2.3
			c0.1,0.1,0.3,0.2,0.4,0.3c1,0.7,1.9,1.5,2.9,2.2c0.2,0.1,0.3,0.3,0.5,0.4c0.9,0.7,1.9,1.4,2.8,2.1c0.2,0.2,0.4,0.3,0.6,0.5
			c0.9,0.7,1.8,1.4,2.8,2.1c0.2,0.2,0.5,0.3,0.7,0.5c0.9,0.7,1.8,1.3,2.7,2c0.3,0.2,0.5,0.4,0.8,0.6c0.9,0.6,1.7,1.2,2.6,1.9
			c0.3,0.2,0.6,0.4,0.9,0.6c0.8,0.6,1.6,1.2,2.5,1.8c0.3,0.2,0.6,0.5,1,0.7c0.8,0.6,1.6,1.1,2.4,1.7c0.3,0.2,0.7,0.5,1,0.7
			c0.8,0.5,1.5,1.1,2.3,1.6c0.4,0.3,0.7,0.5,1.1,0.8c0.7,0.5,1.5,1,2.2,1.5c0.4,0.3,0.8,0.5,1.2,0.8c0.7,0.5,1.4,0.9,2.1,1.4
			c0.4,0.3,0.9,0.6,1.3,0.9c0.6,0.4,1.3,0.9,1.9,1.3c0.5,0.3,0.9,0.6,1.4,0.9c0.6,0.4,1.2,0.8,1.8,1.2c0.5,0.3,0.9,0.6,1.4,0.9
			c0.6,0.4,1.2,0.7,1.8,1.1c0.5,0.3,0.9,0.6,1.4,0.9c0.6,0.3,1.1,0.7,1.7,1c0.5,0.3,1,0.6,1.5,0.9s1.1,0.6,1.6,0.9s1,0.6,1.5,0.9
			s1,0.6,1.5,0.9s1,0.6,1.5,0.9c0.4,0.3,0.9,0.5,1.3,0.8c0.5,0.3,1,0.6,1.6,0.9c0.4,0.2,0.8,0.5,1.2,0.7c0.5,0.3,1.1,0.6,1.6,0.8
			c0.4,0.2,0.7,0.4,1.1,0.6c0.6,0.3,1.2,0.6,1.7,0.9c0.3,0.1,0.6,0.3,0.9,0.4c0.8,0.4,1.7,0.8,2.5,1.2c1.4,0.7,2.9,1.3,4.3,2
			c0.3,0.2,0.7,0.3,1,0.5c-8.5-9.5-16.1-20-22.5-30.9c-10.2-17.5-18-38.9-18.5-59.3c0-0.7,1-0.8,1.2-0.2c2.3,10.8,4.4,21.3,8.4,31.7
			c3.5,9.1,8.2,17.8,13.3,26.1c8.7,14.2,19.6,26.5,31.3,38.2c0.5,0.2,1,0.4,1.5,0.6c0.1,0,0.2,0.1,0.2,0.1c0.5,0.2,1,0.4,1.5,0.5
			l0,0c0.5,0.2,1,0.3,1.5,0.5c0.1,0,0.2,0.1,0.2,0.1c0.5,0.1,1,0.3,1.5,0.4l0,0c0.5,0.1,1,0.3,1.5,0.4c0.1,0,0.2,0,0.3,0.1
			c0.5,0.1,0.9,0.2,1.4,0.3l0,0c0.5,0.1,1,0.2,1.4,0.3c0.1,0,0.2,0,0.3,0c0.5,0.1,0.9,0.2,1.4,0.2l0,0c0.5,0.1,0.9,0.1,1.4,0.2
			c0.1,0,0.2,0,0.3,0c0.5,0,0.9,0.1,1.4,0.1l0,0c0.5,0,0.9,0,1.4,0c0.1,0,0.2,0,0.3,0c0.4,0,0.9,0,1.3,0l0,0c0.5,0,0.9-0.1,1.4-0.1
			c0.1,0,0.2,0,0.3,0c0.4-0.1,0.9-0.1,1.3-0.2l0,0c0.5-0.1,0.9-0.2,1.3-0.3c0.1,0,0.2,0,0.3-0.1c0.4-0.1,0.9-0.2,1.3-0.3l0,0
			c0.4-0.1,0.9-0.3,1.3-0.4c0.1,0,0.2-0.1,0.3-0.1c0.4-0.2,0.9-0.3,1.3-0.5l0,0c0.4-0.2,0.9-0.4,1.3-0.6c0.1,0,0.2-0.1,0.3-0.2
			c0.4-0.2,0.9-0.4,1.3-0.7l0,0c0.4-0.2,0.9-0.5,1.3-0.8c0.1-0.1,0.2-0.1,0.3-0.2c0.4-0.3,0.8-0.6,1.3-0.9l0,0
			c0.4-0.3,0.9-0.6,1.3-1c0.1-0.1,0.2-0.2,0.3-0.2c0.4-0.3,0.8-0.7,1.3-1.1l0,0c0.4-0.4,0.9-0.8,1.3-1.2c0.1-0.1,0.2-0.2,0.3-0.3
			c0.4-0.4,0.9-0.8,1.3-1.3l0,0c0.4-0.5,0.9-0.9,1.3-1.4c0.1-0.1,0.2-0.2,0.3-0.4c0.4-0.5,0.9-1,1.3-1.5l0,0
			c0.4-0.5,0.9-1.1,1.3-1.7c0.1-0.1,0.2-0.3,0.3-0.4c0.4-0.6,0.9-1.2,1.3-1.8l0,0c0.4-0.6,0.9-1.3,1.3-1.9c0.1-0.2,0.2-0.3,0.3-0.5
			c0.4-0.7,0.9-1.3,1.3-2c0.6-1,1.2-2,1.8-3C1344.8,1140.6,1345.1,1140.2,1345.3,1139.8z"/>
		<path class="st3" d="M1435.5,953.9c5.4-13,7.8-27.3,8.9-41.2c1.5-19.3,1.3-40.1-3.8-58.9c-5.3-19.6-19.1-33-33.5-46.5
			c-15.2-14.3-31.2-27.7-46.6-41.8c-17.3-15.8-34-32.1-48.9-50.3c-0.4-0.5-1.3,0.2-0.9,0.7c23.3,31.6,53.8,56.6,82.4,83
			c14,12.9,31.1,26,39.2,43.8c7.1,15.7,8.6,33.6,8.8,50.9c-0.6,3.1-1.3,6.3-2.2,9.3c-2.1,7-4.7,13.8-7.3,20.6
			c-4.6,12-10,23.7-14.6,35.7c1.9-0.8,3.8-1.5,5.9-2.1c4.1-10.8,7.8-21.9,11.9-32.7c2.1-5.6,4.4-11.7,6.3-17.8
			c-0.5,16.9-3.3,33.2-10.4,48.3C1432.2,954.6,1433.8,954.3,1435.5,953.9z"/>
		<path class="st3" d="M1484.6,952.1c1.1-14.3-0.6-29.3-3.3-43c-3.6-18.2-10-36-19.1-52.1c-9.4-16.6-21.7-30.7-35.8-43.5
			c-16.8-15.3-33.1-30.9-49.5-46.7c-19.1-18.5-38.1-37.1-57.6-55.1c-0.4-0.4-1.1,0.2-0.7,0.7c15.7,16.3,32.3,31.7,48.2,47.9
			c15.4,15.6,31.1,31.2,47.5,45.9c14.9,13.3,28.6,27,39.5,43.9c10,15.6,17.7,32.8,22.3,50.7c2.6,10.1,4.2,20.4,4.9,30.7
			c0.4,6.8,0.2,13.6-0.2,20.3C1482.1,951.9,1483.4,952,1484.6,952.1z"/>
		<path class="st3" d="M1499.4,931c-0.2-1.3-2.4-1-2.3,0.3c0.7,7.5,0.6,15-0.4,22.4c1.2,0.2,2.3,0.4,3.4,0.6
			C1500.9,946.5,1500.7,938.8,1499.4,931z"/>
		<path class="st3" d="M1498.5,896.6c-0.3-0.5-1.1-0.2-1,0.4c3,9.6,6.3,19.1,7.6,29.2c1.2,9.8,0.4,19.3,0,29.1
			c1.6,0.3,2.9,0.6,4,0.9c1.5-9.7,0.3-20-1.3-29.6C1506,916.2,1503.6,905.8,1498.5,896.6z"/>
	</g>
	<g id="_x32_3_x5F_Hair_x5F_SidePartBangsWavytMed_x5F_front_x5F_Main_Asset_x5F_Masked">
		<path class="st4" d="M572.4,927.1c-4.6,8.2-6.5,14.5-0.7,18.7c3.7,2.7,9.4,0,26-20s30.3-32.1,44.5-41.5c14.2-9.4,16.8-9.6,17-12
			c0.2-2.4,1-7.4-2.7-8.3s-32.2,16.8-48.8,26.8S577,918.9,572.4,927.1z"/>
		<path class="st4" d="M538.2,852.3c-1.5,3.9-1.5,9.1,0,9.4c3.4,0.7,11,0.9,28.3-11.9c17.4-12.9,36.9-20.4,47.3-23.7
			c10.4-3.3,13-5.3,13.4-8.7s0.2-6.9-9.1-6s-45.3,12-57.7,18.3C548,836,539.7,848.4,538.2,852.3z"/>
		<path class="st0" d="M1024.1,412c-53.1,3.7-107.7,10-161.9,20.3c14.6,19.3,29.6,35.3,40.4,46.6c21.4,22.3,59.1,43,101.5,57
			s66.2,8,104,7.2s56.5-9.4,78.5,13s22.9,45.1,28.2,71.5s13.6,44.6,33.8,67.5s62.4,27.8,88.8,21.9s47.4-29.1,49-37.2
			c-0.2,0.1-0.2,0.1-4.6,2.5c-4.5,2.5-13.6,7.5-37.3,11.2c-23.7,3.8-43.9-4-56.7-30s-11.5-33.9-3.2-62.8c8.2-28.9,3.2-70.1,5.4-96.9
			c1.3-16.8,3.1-12.3,0-31c-2.3-13.7-4.4-28.5-10.3-46.8C1196.5,410.8,1110.6,405.9,1024.1,412z"/>
		<path class="st0" d="M533.3,582.8c11,55.1,22.2,95,31,107.9c8.8,12.9,9,28.1,3,55.9s-23.8,51.9-61.8,93.1s-63.8,63.3-78,91.4
			c-14.2,28.1-29.2,65.2-21.8,108.8s24.4,75.4,51.2,104c26.8,28.6,75.5,30.4,114.8,38.5s60.8,32.4,59.5,51S617.6,1261,605,1282
			s-13.4,38,3.8,54.5s22.5,10.1,18,8s-11-6-15.8-17.2s-0.5-30.5,10.2-43.8s30.1-28.5,30.1-28.5c6.8-35.1,27.6-56.1,27.6-56.1
			c3.8-24.9-14.8-59.8-32.4-75.1s-54.8-38.2-64.5-58.5s-10.5-50.5-3.2-68.5s26.9-48.6,64.5-82.8c37.6-34.2,68.5-49.5,96.8-69.4
			c28.3-19.9,30.4-47.1,28.8-68.3s-8.9-38.4-28.5-65.8C720.8,683.1,708,661,701.5,640s-5.2-30,5.8-49s19.2-32.4,57-74.8
			c29.3-32.9,40.8-54.8,48.6-73.5c-100.4,23.8-197.8,62.7-280.6,125.9C532.6,577.8,533.3,582.8,533.3,582.8z M656.5,864
			c3.7,0.9,2.9,5.9,2.7,8.3c-0.2,2.4-2.8,2.6-17,12c-14.2,9.4-27.9,21.5-44.5,41.5s-22.3,22.7-26,20c-5.8-4.2-3.9-10.5,0.7-18.7
			c4.6-8.2,18.7-26.3,35.3-36.3S652.8,863.1,656.5,864z M627.2,817.4c-0.4,3.4-3,5.4-13.4,8.7c-10.4,3.3-29.9,10.8-47.3,23.7
			c-17.3,12.8-24.9,12.6-28.3,11.9c-1.5-0.3-1.5-5.5,0-9.4c1.5-3.9,9.8-16.3,22.2-22.6c12.4-6.3,48.4-17.4,57.7-18.3
			S627.6,814,627.2,817.4z"/>
	</g>
	<g id="_x32_3_x5F_Hair_x5F_SidePartBangsWavytMed_x5F_front_x5F_Highlights_x5F_Masked">
		<path class="st4" d="M740.9,504.7c-7.6,7.5-14.8,15.2-20.5,24.2c-0.4,0.6-0.9,0.9-1.4,0.9c-3.8,5.6-7.3,11.3-10.6,17.1
			c-7.6,13.7-13.8,28.2-18.8,43.1c-5.1,15.2-8.7,30.7-7.8,46.8c0.4,7.1,1.5,14.3,3.3,21.3c4.4,13.2,11.1,25.3,19.1,36.9
			c9.8,14.2,22.3,26,32.9,39.4c18.3,23.8,24.4,55.2,16.8,84.1c-0.9,3.8-2.1,7.5-3.5,11c0.2-0.4,0.5-0.7,0.7-1.1
			c9.2-14.7,12-30.7,9.8-47.8c-2.2-17.2-7-35.4-16.1-50.2c-5.5-8.9-11.9-17.2-18-25.7c-3-3.7-5.8-7.6-8.5-11.2
			c-5.2-7-10.2-14.2-14.5-21.8c-7.6-13.5-13.4-28.8-12.9-44.5c0.5-15.9,5.1-31.9,11.2-46.5c5.8-13.9,13.5-26.7,22.7-38.6
			c4.3-5.5,8.9-10.7,13.6-15.9c3.7-4.9,8.2-9.6,12.2-14c5.9-6.6,11.8-13.2,17.6-20c12.3-14.4,23.8-29.8,32.5-46.6
			c-3.7,0.9-7.5,1.9-11.2,2.9c-8.3,10.6-16.8,21-25.7,31.3C756.5,488.4,749,496.7,740.9,504.7z"/>
		<path class="st2" d="M654.3,578.1c-18,22.1-24.7,53.3-21.3,81.4c1.7,12.7,6.4,24.8,14.3,34.9c6.1,7.7,15.6,16.7,25.8,19.1
			c5.6,5.3,11.5,10.3,17.1,15.5c8,7.4,16,15.1,22.3,24c6,8.6,9.4,17.9,13.2,27.6c0.7,6.6,0.5,13.2-0.4,19.1
			c-2.5,15.5-8.4,31.6-17.7,44.3c-1.2,1.7,1.3,3.1,2.6,2c6.5-5.1,9.5-14,12.5-21.4c3.5-8.7,6.4-17.7,7.5-27.1
			c1-8.2,0.6-16.6-1.8-24.6c-0.5-1.5-1-3-1.7-4.4c-3.5-11.1-11.3-21.3-18.5-29.6c-11.9-13.7-26.8-24.2-39.1-37.5
			c-25.8-28-21.5-67.8-9.1-100.9c3.7-9.7,7.8-19.3,12.1-28.7c4.2-9.3,9-18.4,15.7-26.1c0.8-0.9-0.4-2-1.2-1.2
			c-13.1,11-19.1,28.8-25.5,44.1c-7.1,16.9-13.7,34.5-15.4,52.9c-1.4,16.4,0.6,33.4,8.2,48.1c2.7,5.2,6.1,9.9,10,14.3
			c-0.3-0.2-0.7-0.4-1-0.7c-4.9-3.4-9.3-7.7-13-12.4c-8-10.4-12.5-23.2-13.6-36.2c-2.2-26.6,4.2-53.7,18.8-75.9
			C655.4,578.2,654.7,577.6,654.3,578.1z"/>
		<path class="st2" d="M679.4,488.1c-6.6,7-12.6,14.3-18.4,21.9c-5.9,7.6-11.8,15.2-15.9,23.9c-0.2,0.5,0.4,1.1,0.8,0.6
			c5.5-7,10.3-14.4,15.9-21.3c5.5-6.9,11.8-13.4,17.8-19.9c4.3-4.6,8.7-9.1,13.2-13.5c-3,1.2-6,2.4-8.9,3.6
			C682.4,484.9,680.9,486.5,679.4,488.1z"/>
		<path class="st2" d="M1084,519.1c-1.4-0.1-2.8-0.2-4.2-0.6c-0.2-0.1-0.3,0.3-0.1,0.3c1.4,0.4,2.9,0.7,4.3,0.6
			C1084.2,519.4,1084.2,519.2,1084,519.1z"/>
		<path class="st2" d="M951.6,426.6c17.9,6.4,35.9,11,54.6,14.3c1.3,0.2,1.9-1.8,0.6-2.1c-21.6-4.8-42.5-11.1-62.5-19.2
			c-2.7,0.3-5.4,0.7-8.2,1C941.3,422.7,946.4,424.7,951.6,426.6z"/>
		<path class="st2" d="M881.2,434.5c33.3,29.2,72.9,55.4,114.5,69.8c12.6,4.4,25.6,6.8,38.5,10.3c13.4,3.7,19.3,2.3,33,4.7
			c0.9,0.1,9.5-1.5,8.6-1.6c-11.1-1.3-23.5-1.2-34.8-4.4s-25-6.2-36.2-10c-22.2-7.6-43.1-19.1-64-29.8c-13.6-6.9-25.6-16.2-38-25.2
			c7.9,5.5,17.4,12.6,25.8,17.3c38.4,21.5,80.6,34.1,123.7,41.7c12.5,2.2,25.6,2.6,38.2,3.8c6.8,0.7,14.5,1.1,21.3,1.5
			c6.9,0.4,13.8,0.1,20.7,0.7c0.8,0.4,0.8-1.3-0.3-1.3c-11.1-0.5-25.7-2.7-36.8-4c-11.9-1.3-23.4-2.1-35.2-4
			c-22-3.5-44.1-8.6-65.3-15.3c-38.6-12.3-73.1-26.7-104.7-54.2c-2.2-1.9-4.4-3.9-6.8-6.1c-2.5,0.4-4.9,0.8-7.4,1.3
			C877.7,431.3,879.4,432.9,881.2,434.5z"/>
		<path class="st2" d="M927.2,441.8c6.7,3.8,13.6,7.3,20.6,10.6c6.9,3.3,14.3,7.3,21.8,8.8c1.2,0.2,2-1.4,0.9-2.1
			c-5.8-3.7-12.5-6-18.6-9c-6-2.9-11.8-6.1-17.6-9.5c-8.7-5-17.2-10.5-25.5-16.2c-2.4,0.4-4.8,0.7-7.1,1.1
			C909.9,431.4,918.5,436.9,927.2,441.8z"/>
		<path class="st2" d="M768.2,492.2c-5.8,6.8-11.7,13.4-17.6,20c-4,4.4-8.5,9.1-12.2,14c-4.7,5.2-9.3,10.4-13.6,15.9
			c-9.2,11.9-16.9,24.7-22.7,38.6c-6.1,14.6-10.7,30.6-11.2,46.5c-0.5,15.7,5.3,31,12.9,44.5c4.3,7.6,9.3,14.8,14.5,21.8
			c2.7,3.6,5.5,7.5,8.5,11.2c6.1,8.5,12.5,16.8,18,25.7c9.1,14.8,13.9,33,16.1,50.2c2.2,17.1-0.6,33.1-9.8,47.8
			c-0.2,0.4-0.5,0.7-0.7,1.1c1.4-3.5,2.6-7.2,3.5-11c7.6-28.9,1.5-60.3-16.8-84.1C726.5,721,714,709.2,704.2,695
			c-8-11.6-14.7-23.7-19.1-36.9c-1.8-7-2.9-14.2-3.3-21.3c-0.9-16.1,2.7-31.6,7.8-46.8c5-14.9,11.2-29.4,18.8-43.1
			c3.3-5.8,6.8-11.5,10.6-17.1c0.5,0,1-0.3,1.4-0.9c5.7-9,12.9-16.7,20.5-24.2c8.1-8,15.6-16.3,23-24.9
			c8.8-10.3,17.4-20.7,25.7-31.3c-1.5,0.4-3,0.8-4.4,1.2c-8.7,10.1-17.8,20-26.6,29.9c-7.3,8.1-15,15.8-22.7,23.4
			c-6.1,6-11.9,12-16.2,19.3c-4.3,5.5-8.3,11.3-11.9,17.2c-8.5,14-15.5,28.9-21,44.3c-5.7,15.8-10.1,32.1-10,49
			c0.1,14.5,3.2,29.2,9.4,42.3c3.7,7.8,8.4,14.9,13.7,21.8c1.7,2.3,3.6,4.8,5.7,7.1c6.7,9,14.2,17.6,21.7,26.2
			c11,12.7,19,27.5,23.1,43.1c0.4,2,0.8,4,1.1,6.1c2.8,18.1,1,38.1-8.2,54.2c-9.9,17.2-29.9,27.7-47,36.6
			c-17.3,9-35.5,16.3-51.3,27.9c-17.2,12.5-28.7,29.2-41.4,45.8c-0.3,0.4,0.4,1,0.7,0.6c13.1-15.5,28-31.3,44.8-42.9
			c9.6-6.6,20-11.8,30.5-16.9c22.2-15.9,42-27.1,60.7-40.3c9.4-6.7,15.9-14.1,20.4-21.9c3.8-8.8,6-18.3,6.2-28.2
			c0.3-17.4-4.1-35.9-10.5-52.1c-6.5-16.2-18.1-29.4-28-43.5c-5.8-8.1-11.2-16.4-16.2-25.1c-4.3-7.4-8.8-15-12.1-22.9
			c-2.1-6.1-3.5-12.4-3.9-18.8c-0.9-15.5,3.8-31.6,9.3-46c5.3-13.9,12.7-26.9,21.6-38.8c4.2-5.6,8.5-11,12.9-16.3
			c4.7-4.2,9-9.3,13.1-13.9c5.6-6.1,11.1-12.3,16.5-18.6c10.3-12,20.1-24.4,28.5-37.9c3.3-5.3,6.3-10.7,9-16.3
			c-2.1,0.5-4.2,1-6.3,1.5C792,462.4,780.5,477.8,768.2,492.2z"/>
		<path class="st2" d="M1245.1,662.2c-4.3-6.9-8.1-19.2-10.3-26.9c-5-17.8-7-34.4-11.1-51.7c-2-8.5-5.5-18.1-7.9-26.5
			c-2.1-7.3-12.1-19.5-17.1-25.4c-1-1.2,4.4,7.2,5.1,8.5c9.8,16.9,10.8,35.2,14.5,54.1c3.6,18,6.8,37.5,14.5,54.3
			c6.1,13.1,16,26.9,28,37.1C1252,677.3,1244.8,661.4,1245.1,662.2z"/>
		<path class="st2" d="M1264.7,688.8c-1.3-1-2.6-2.1-3.9-3.1C1262.1,686.9,1263.3,688,1264.7,688.8z"/>
		<path class="st2" d="M1262.5,673.7c-0.7-0.8-10.4-12.4-12.5-18.5c-2.9-8.5-5.2-17.3-7.1-26c-4.1-18.1-7-37.2-11.2-55.3
			c-7.2-31.1-12.1-66-33.8-91c-9.7-11.2-24.1-21.3-39.2-22.9c-1.9-0.2-2.2,2.8-0.4,3.2c14.7,3.6,26.1,10.5,36,22.2
			c10.6,12.5,16.9,27.8,21.3,43.4c4.6,16.2,9.4,32.9,12.8,49.4c3.7,17.5,7.7,34.5,11.6,52c1.8,7.9,6.2,19.1,8.8,26.8
			c5.6,11.7,27.7,38.4,35.9,33.7c-3.5-2.7-7.8-4.4-11.5-6.9C1268.7,680.8,1266.1,677.7,1262.5,673.7z"/>
		<path class="st2" d="M1327.7,694.1c-0.2,0-0.4-0.1-0.6-0.1C1327.4,694.1,1327.6,694.1,1327.7,694.1z"/>
		<path class="st2" d="M1289.2,674.5c-10.8-12.8-13.3-31.7-14.2-47.9c-1.9-34.2,7.6-67.4,11.3-101.2c1.8-16.5,1.7-34.2-5-49.6
			c-0.4-0.9-1.9-0.2-1.5,0.6c6.4,17.1,3.8,34.6,1.1,52.2c-2.7,17.6-6.1,35.2-8.6,52.8c-2.4,17.1-3.9,34.5-2.3,51.7
			c1.4,15.2,7.7,32.9,17.5,45.1c6.8,8.4,16.6,10.2,26.7,12.3c-4.2-1.6-8.2-4.1-11.8-7.3C1297.4,681.4,1292.8,678.8,1289.2,674.5z"/>
		<path class="st2" d="M1293.2,577.3c0.9-1.7,1.8-3.4,2.7-4.9c5.3-17.2,5.7-18.9,8-36.7c0,0.1-0.1,0.1-0.2-0.1
			c-0.6-1.2-3.1-8.7-3.1-8.7c-2.3,16.8-6,33.4-8,50.2C1292.5,577.9,1292.8,577.8,1293.2,577.3z"/>
		<path class="st2" d="M674,1167.2c-0.2-1.2-0.4-2.4-0.6-3.5c-6.5-16.1-16.8-31.2-26.9-39.9c-13.9-12.1-40-28.9-55.2-45.5
			c-1-0.7-1.9-1.3-2.9-2c-5.2-3.3-10.8-7.5-16.6-9.7c-0.7-0.3-1.1,0.7-0.7,1.2c4.2,4.5,9.8,8.1,14.6,12c4.6,3.7,9.4,7.1,14.2,10.6
			c10.4,7.5,20.3,15.6,30.1,23.8c11.8,9.9,22.3,20.7,30,33.4c-1.5-1.5-3-3-4.6-4.4c-6.9-6-14.4-11.7-22.1-16.6
			c-8.2-5.3-15.9-11.1-23.8-16.7c-0.6-0.4-1.1,0.5-0.7,0.9c5.3,6.3,13.1,10.6,19.5,15.6c7.5,5.7,14.7,12,21.6,18.4
			c6.8,6.2,12.6,13.1,17.1,21.3c4,7.4,6.1,16.4,11.1,23.1c0.3,0.4,0.8,0.7,1.3,0.8c-0.2-6.1-1.5-12.6-3.5-19.1
			C675.3,1169.6,674.6,1168.4,674,1167.2z"/>
	</g>
	<g id="_x32_3_x5F_Hair_x5F_SidePartBangsWavytMed_x5F_front_x5F_Shadows_x5F_Masked">
		<path class="st4" d="M418.5,973.8c0,0.1-0.1,0.3-0.2,0.6C418.4,974.2,418.5,974,418.5,973.8z"/>
		<path class="st4" d="M1044.8,491c32.3,4.3,65,6.3,97.2,11.5c22.6,3.6,50.4,8.8,65.1,28.2c5.8,6.4,9.9,14.2,13,22.2
			c7.3,19.2,10.5,39.9,15.1,59.8c4.7,20.1,9.7,42.3,20.8,60c10,15.9,28.5,22.8,46.4,25.1c-4.4-1.3-8.6-3.2-12.5-5.6
			c-1.4-0.7-2.8-1.3-4.2-2c-7.6-3.7-15.2-8.4-21.4-14.3c-12.8-12.2-18.1-28.6-21.7-45.4c-4-19.3-6.7-38.8-9.3-58.3
			c-1.2-8.7-2.4-17.5-3.6-26.2c-0.2-0.1-0.4-0.3-0.4-0.6c-0.1-1.5-0.2-2.9-0.3-4.4c0-0.2-0.1-0.5-0.1-0.7c-0.6-4.3-1.2-8.7-1.7-13.1
			c-2.3-12.6-6.7-24.7-13.8-35.4c-11.4-17.1-30-27.4-49.4-32.7c-38.7-10.7-79.3-2.2-118.7-2.9c-31.7-0.5-63.2-6.9-92.7-18.4
			c-11.1-4.3-21.9-9.4-32.3-15.1c-10.9,1.5-21.9,3.2-32.8,5c19.6,18.3,42.4,32.7,67.5,42.6C983.5,481.5,1014.4,487,1044.8,491z"/>
		<path class="st4" d="M418.5,973.8c-0.1,0.2-0.1,0.3-0.2,0.6C418.4,974.2,418.4,974,418.5,973.8z"/>
		<path class="st3" d="M418.5,973.8c-0.1,0.2-0.1,0.4-0.2,0.6C418.4,974.1,418.5,973.9,418.5,973.8z"/>
		<path class="st3" d="M1280.1,434.9c0.7,1.4,0.8,0.1,0.1-1.3c-1.3-2.9-2.9-5.7-4.5-8.4c-0.5-0.1-1.1-0.2-1.6-0.3
			C1276.4,428.1,1278.4,431.4,1280.1,434.9z"/>
		<path class="st3" d="M1280.3,428c0.4,0.6,0.1-0.5-0.4-2c-0.3-0.1-0.6-0.1-0.9-0.2C1279.4,426.5,1279.8,427.2,1280.3,428z"/>
		<path class="st3" d="M1189.8,418.5c0.7,0.1,1-1.1,0.3-1.3c-4.1-1.3-8.2-2.8-12.2-4.5c-1.6-0.1-3.3-0.3-4.9-0.4
			C1178.5,414.6,1184.1,416.6,1189.8,418.5z"/>
		<path class="st3" d="M1155.4,418.8c13.1,3.6,26.5,8.1,38.2,15.1c12.1,7.3,22.5,16.2,31.6,26.9c0.7,0.8,2-0.2,1.4-1.1
			c-12.7-19.2-34.1-30.7-55.1-38.5c-13.2-4.9-27-8.4-40.9-11.2c-8.3-0.3-16.6-0.5-24.9-0.5C1122.5,411.6,1139.2,414.3,1155.4,418.8z
			"/>
		<path class="st3" d="M1280,597.3c-0.9,8.6-2.1,18.2-1.3,27.3c0.9-6.5,0.7-12.1,2.6-23.9c0.3-3.8,1.8-10.6,2.2-14.5
			c1.7-17.6,6-31.7,8.9-49.1c2.4-14.7,2.1-16.6,2.1-23.1l-2.7-3.9c0.8,16.2-2.5,24.5-5.2,40.3C1283.9,566,1281.6,581.6,1280,597.3z"
			/>
		<path class="st3" d="M1303.6,562c2.7-15.3,0-26.3,0-26.3c-2,14.4-4.3,28.4-7.7,39.9C1298.1,572.1,1302.6,567.9,1303.6,562z"/>
		<path class="st3" d="M882.9,443.4c33.2,29.8,73.5,53.4,115.7,68c12.8,4.4,25.7,7.6,39,9.6c6.4,1,12.8,2.4,19.3,2.6
			c7,0.2,14,1.5,20.9,1.2c1,0,1-1.5,0-1.6c-6.4-0.5-12.7,0.2-19-0.9c-5.7-1-11.5-1.5-17.2-2.7c-11.1-2.2-22.1-5.4-32.9-8.8
			c-22.5-7.3-44-17-64.4-28.9c-18.4-10.7-35.9-23-52.1-36.8c-5.8-4.9-11.5-10-17-15.2c-1.8,0.3-3.5,0.6-5.3,0.9
			C874.1,435.2,878.4,439.4,882.9,443.4z"/>
		<path class="st3" d="M867.9,439.1c0.5,0.7,1.1,1.4,1.6,2.2c1.3,1.8,2.6,3.5,4,5.2c10.7,12.8,20.9,23.7,28.9,32
			c21.4,22.2,59.1,43,101.5,57s66.2,8,104,7.2c37.8-0.8,56.5-9.4,78.5,13c22,22.4,22.9,45.1,28.2,71.5c5.3,26.4,13.6,44.6,33.8,67.5
			c20.2,22.9,62.4,27.8,88.8,21.9c10.4-2.3,19.9-7.3,27.8-13c-8.3,2.2-16.6,4.1-25,5c-8.5,0.9-17,1.1-25.5,0.5
			c23,0.3,45-9.8,62.7-24.5c-3.3,1.5-8,3.4-14.9,5.2c-3.3,2.3-6.7,4.4-10.3,6.3c-13.2,6.9-26.6,9.6-41.4,8.6
			c-24.6-1.6-47.1-12-65.6-27.9c-0.8-0.9-1.5-1.8-2.3-2.7c-17.4-22.1-23.9-50.4-29.9-77.3c-2.8-12.2-4.8-25.3-10.4-36.6
			c-5.1-10.4-13.8-17.3-25-20.3c-8.2-2.2-16.8-2.7-25.3-2.5c-11.4-0.3-22.9,0.4-34.2,0.8c-30.9,1.2-62,2.2-92.4-4.7
			c-15.2-3.5-30.1-8.5-44.5-14.4c-5.5-2.3-11-4.5-16.5-6.9c-14.9-7.6-29.1-16.8-42.1-27.3c-10.1-8.1-19.4-17-28.9-25.8
			c-4.7-4.4-9-9-13.3-13.8c-3.9-4.7-7.6-9.5-11.2-14.4c-2.3,0.4-4.5,0.8-6.8,1.3C864.1,434.5,866,436.8,867.9,439.1z"/>
		<path class="st3" d="M952.6,437.8c29.5,11.5,61,17.9,92.7,18.4c39.4,0.7,80-7.8,118.7,2.9c19.4,5.3,38,15.6,49.4,32.7
			c7.1,10.7,11.5,22.8,13.8,35.4c0.5,4.4,1.1,8.8,1.7,13.1c0,0.2,0.1,0.5,0.1,0.7c0.1,1.5,0.2,2.9,0.3,4.4c0,0.3,0.2,0.5,0.4,0.6
			c1.2,8.7,2.4,17.5,3.6,26.2c2.6,19.5,5.3,39,9.3,58.3c3.6,16.8,8.9,33.2,21.7,45.4c6.2,5.9,13.8,10.6,21.4,14.3
			c1.4,0.7,2.8,1.3,4.2,2c3.9,2.4,8.1,4.3,12.5,5.6c-17.9-2.3-36.4-9.2-46.4-25.1c-11.1-17.7-16.1-39.9-20.8-60
			c-4.6-19.9-7.8-40.6-15.1-59.8c-3.1-8-7.2-15.8-13-22.2c-14.7-19.4-42.5-24.6-65.1-28.2c-32.2-5.2-64.9-7.2-97.2-11.5
			c-30.4-4-61.3-9.5-89.9-20.7c-25-9.8-47.9-24.3-67.5-42.6c-1,0.2-2.1,0.4-3.1,0.5c15.2,14.6,32.1,27.4,50.9,36.8
			c56.4,28.4,120,29.6,181.4,37.1c22.7,2.8,47.8,5.3,68.6,15.6c6.9,3.8,13.4,8.3,18.6,14.1c6.8,7.5,10.9,17,14,26.6
			c6.8,21,10.3,42.9,15.5,64.3c4.7,19.5,9.9,42.2,22.9,58.1c11.5,14.1,31.9,21.3,49.5,23.1c18.9,2,38.2-2.1,53.4-13.5
			c-4.2,1-9.2,2-15,3c-13.2,2.1-25.6,0.5-36.2-6.1c0.6,0.8,1.3,1.5,1.9,2.3c2.1,2.5,4.3,4.8,6.8,6.6h-0.1c-0.9-0.2-1.8-0.5-2.6-0.7
			c-0.3-0.3-0.6-0.4-1-0.5c-0.5-0.1-0.9-0.2-1.4-0.3c-21-7.5-34.5-26.4-40.5-47.7c-7.4-26.3-8.4-55.2-7.3-82.3
			c0-0.9-1.5-1.2-1.7-0.2c-2.4,15.1-1.1,30.9-0.1,46.1c0.9,14,2.6,28.2,6.9,41.7c3.7,11.6,9.8,23.3,18.3,32.5
			c-5.2-3.7-9.7-8.5-13.5-14.5c-8.8-14.1-14.2-30.6-18.1-46.7c-4.1-17.3-5.8-35-5.4-52.8c0.4-17.8,2.3-35.5,2-53.3
			c-0.2-15.4-1.8-30.6-13-42.2c-0.6-0.6-1.5,0.3-0.9,0.9c11.9,11.1,11,32.2,10.8,47.2c-0.2,18.8-2.3,37.5-1.9,56.3
			c0.4,16.9,2.6,33.7,6.9,50.1c4.1,15.6,9.6,32.4,18.8,45.8c1.8,2.6,3.8,5.1,6.1,7.4c-5.7-3.6-11-7.9-15.5-13
			c-11.9-13.4-15.6-31.7-18.8-48.9c-3.5-18.7-5.8-37.7-8.3-56.6c-1.2-9.1-2.4-18.1-4-27.1c-0.6-3.5-1.4-7-2.2-10.5
			c-3.4-25-16.7-48.1-39.3-60.8c-33-18.6-72.9-16.7-109.3-14.3c-19,1.2-38.1,1.9-57.1,0c-16.5-1.6-32.9-4.9-48.8-9.6
			c-17.4-5.1-34.2-11.9-50.3-20.3c-1.7,0.2-3.4,0.5-5.1,0.7C930.7,428.4,941.5,433.5,952.6,437.8z"/>
		<path class="st3" d="M508.3,919.9c-0.7,0.8,0.2,1.9,1.1,1.5c8-3.8,15.3-9.9,22.6-14.9c6.9-4.7,13.8-9.6,20.7-14.4
			c14.3-10,28.6-20,42.8-30.1c13.3-9.5,26.6-18.9,39.3-29.2c11.1-8.9,24.3-19.2,31-32.1c0.3-0.5-0.4-1.1-0.8-0.7
			c-5.6,5.3-10.5,11.2-16.2,16.4c-6,5.6-12.4,10.6-19,15.4c-13.1,9.7-26.3,19.2-39.6,28.6c-13.7,9.8-27.4,19.4-41.2,29.1
			c-6.9,4.8-13.8,9.7-20.5,14.7S514.2,913.8,508.3,919.9z"/>
		<path class="st3" d="M624.5,1171.9c-17.4-14.1-36.6-26.1-57-35.5c-10.4-4.8-21.2-8.6-31.2-14.1c-8.6-4.8-16.5-10.8-23.3-17.9
			c-7.9-8.1-14.5-17.5-19.5-27.8c-5.1-10.4-7.7-21.2-10-32.4c-0.2-1-1.8-0.8-1.7,0.2c0.4,17.9,8.4,36.3,18.6,50.7
			c10.6,15,25.1,26.8,41.7,34.6c10.3,4.8,21,8.8,31.3,13.9c10,5,19.6,10.6,28.8,16.8c18.1,12.1,39.7,27.2,46.9,48.8
			c4.5,13.5,1.3,25.9-5.2,38c-5,9.4-10.5,18.5-15.4,28c4.1-4.2,8.5-8.2,12.3-11.6c2-3.6,4-7.1,6-10.7c5.2-9.3,10.1-19.1,9.9-30
			C656.4,1201.6,640.2,1184.6,624.5,1171.9z"/>
		<path class="st3" d="M729.1,476.5c-32.3,30.1-63.3,62.9-84,102.3c-5.5,10.5-10.3,21.4-13.8,32.6c-1.1,3.6-2.2,7.3-3.3,11.1
			c-2,7-3.4,14.1-4.2,21.5c-1.8,17.9,0.8,33.9,10.1,49.4c8,13.2,18,25.1,29.6,35.3c5.6,4.9,11.6,9.5,17.9,13.6
			c7.1,4.7,14.8,8.4,21.8,13.2c7,4.8,13.1,10.9,15.8,18.9c1.2,5.3,0.8,10.8-0.8,16.1c-2.3,5.2-6,10-8.7,15.2
			c-0.3,0.6-0.2,1.1,0.2,1.5c-4.1,5.8-8.9,11.1-13.3,15.3c-14.7,14.1-32.5,24.3-49.7,34.9c-36.5,22.5-72.9,46.8-100.6,80.1
			c-6.8,8.2-13.1,16.9-18.6,26c-3.8,6.3-8.1,13.4-10.6,20.8c-3.8,7.7-7.1,15.7-9.2,24c-5.6,21.4-4.4,44.4,7.6,63.4
			c11.7,18.4,30.3,30.6,49.2,40.5c21.4,11.2,43.3,21.1,63.2,35c20.4,14.4,38,32.9,47.3,56.3c1.5-1.9,2.7-3.3,3.4-4
			c-16.3-37.9-52.3-62.2-87.9-80.5c-20.4-10.5-41.8-19.8-58.5-35.8c-17.3-16.5-24.8-38-21.7-61.7c1.4-10.8,4.8-21.3,9.2-31.3
			c3.3-5.3,5.9-11.2,8.7-16.9c2.7-4.6,5.4-9.2,8-13.8c4.5-6.8,9.4-13.4,14.7-19.6c14.1-16.7,30.5-31.3,48-44.3
			c18.5-13.8,38.1-26.1,57.8-38.1c17-10.4,34.2-21.2,47.9-35.9c7.9-8.5,15.7-19.7,18-31.2c2.3-7,2.5-14.5-0.7-21.3
			c-7.2-14.5-23-20.6-35.8-28.6c-13.7-8.5-25.7-19.4-35.9-31.9c-11.7-14.1-21.5-30.2-22.5-48.9c-0.4-6.1-0.2-12.3,0.4-18.5
			c2.2-8.4,3.9-16.9,6.7-25.2c3.5-10.5,7.8-20.8,12.8-30.7c10.1-20.1,23-38.7,37.5-55.9c14.3-17,30.1-32.8,46.2-48.1
			c8.1-7.6,16.1-15.2,23.9-23.1c-3.3,1-6.5,2-9.8,3C740,466.3,734.6,471.4,729.1,476.5z"/>
		<path class="st3" d="M628.6,509.3c-17.1,17.5-30.3,37.9-40.5,60c-2.5,5.4-4.9,10.9-7.2,16.5c-9.6,19.9-15.3,42.7-15.7,64.6
			c-0.2,12.1,2.1,23.8,6.9,34.9c2.6,5.9,5.6,11.6,8.7,17.2c2.8,5,5.5,11.1,9.5,15.2c0.6,0.6,1.8,0,1.5-0.9c-1.7-5-5.3-9.5-7.9-14.1
			c-3.1-5.5-5.9-11.2-8.2-17.1c-4.4-11.7-5.9-23.7-5.8-36.2c0-1.8,0.1-3.5,0.2-5.2c8.5-46.9,25.5-94.3,58.8-129.5
			c4-4.3,8.1-8.4,12.3-12.5c-3.6,1.8-7.3,3.6-10.9,5.4C629.8,508.1,629.2,508.7,628.6,509.3z"/>
		<path class="st3" d="M567.5,746.3c-10.8,26.3-23.8,51.9-61.8,93.1s-63.8,63.3-78,91.4c-14.2,28.1-29.2,65.2-21.8,108.8
			s24.4,75.4,51.2,104c26.8,28.6,75.5,30.4,114.8,38.5s60.8,32.4,59.5,51S617.6,1261,605,1282c-12,20-13.3,36.3,1.3,52
			c-0.8-6.7-1.4-15.4-1.1-25.8c0.8-27,21.8-46.1,31.4-64.8c9.6-18.7,10.5-30.2-6.1-52.3c-14.5-19.4-46.9-30.5-85.1-40.4
			c-4.2-2.5-8.3-5.2-12.3-8.2c-9.5-7.2-18.1-15.6-25.7-24.8c-7.5-9-13.8-19-18.9-29.6c-3.2-6.6-5.9-13.3-8.7-20.1
			c-2.5-6.1-4.7-12.9-8.2-18.5c-0.4-0.7-1.5-0.2-1.3,0.6c1.5,7.2,5,14.5,7.7,21.3c2.5,6.4,4.9,12.8,7.8,19.1
			c5,10.9,11.5,21.1,18.8,30.6c7.2,9.4,15.7,17.9,24.8,25.4h-0.1c-1.6-0.4-3.2-0.8-4.7-1.2c-1.9-1.8-3.8-3.5-5.7-5.4
			c-9.9-9.8-18.9-20.5-26.6-32.2c-7.6-11.4-14.2-23.6-19.4-36.3c-2.5-6.2-4.7-12.6-6.5-19c-1.9-6.6-3-13.7-5.4-20.1
			c-0.2-0.6-1.1-0.5-1.1,0.2c-0.1,6.5,1.8,13.7,3.4,20c1.8,7,4.1,13.8,6.6,20.5c5,13.2,11.2,25.8,18.9,37.6
			c7.4,11.5,15.9,22.2,25.4,32c-2.3-0.6-4.4-1.1-6.6-1.7c-1.8-1.6-3.7-3.3-5.4-5.1c-6.7-6.8-12.2-15.1-16.7-23.5
			c-0.7-1.3-2.7-0.1-1.9,1.1c5.1,8,9.4,16.4,14.8,24.2c0.2,0.3,0.4,0.6,0.6,0.9c-5.1-1.4-9.8-2.9-14.1-4.4c-0.6-0.6-1.2-1.1-1.9-1.7
			c-5.5-5.2-10.3-11.1-14.4-17.4c-7.9-12.2-13.2-25.6-16-39.9c-6.5-32.4-0.5-66.7,11.3-97.3c6.5-16.9,15.5-32.1,24.8-47.6
			c0.5-0.9-0.8-1.9-1.4-1.1c-20,25-32.2,57.6-38.3,88.7c-6.2,31.7-4.1,65.6,11.3,94.4c3,5.7,6.7,11,10.8,16
			c-10.4-5.2-18.3-11.8-24.9-21.4c-5.7-8.2-13.4-21.9-19.9-38.6c-2-12.8-2.4-25.8-1.2-38.8c1.3-13.4,4.2-26.7,8.2-39.5
			c0.8-2.7,1.8-5.3,2.7-8c16.4-34.2,36.7-66.2,62.6-94.2c12.4-13.4,25.9-25.6,40-37.2c2.5-4.9,10.4-15.6,21.6-21.3
			c2.8-1.4,6.7-3.1,11.3-4.8c9.1-7.3,18.1-14.8,26.6-22.8c15.2-14.3,30.1-34.9,21.4-56.7c-0.5-1.3-2.7-0.8-2.1,0.6
			c8.8,22.8-9.9,42.3-25.5,56.3c-16.3,14.7-33.9,27.8-51.1,41.5c-31.6,25.2-59.4,54.2-81.7,88.1c-4.7,7.2-9.2,14.6-13.4,22.2
			c-3.7,4.5-6.2,10.4-8.8,15.5c-3,6-5.6,12.3-7.9,18.7c-4.8,13.5-8,27.4-9.4,41.6c-0.5,5.2-0.8,10.5-0.8,15.7
			c-1.9-7.3-3.3-14.9-4.2-22.6c0.1-2.1,0.3-4.2,0.5-6.3c1.7-16.7,5.9-33.1,11.4-48.9c5.7-16.1,13-31.9,21.5-46.9
			c10.3-14.7,21.9-28.5,34.8-41c30.3-29.4,68.3-49.8,97.3-80.7c7.4-7.9,14.3-16.4,19.9-25.7c5.5-9.2,10.1-19.1,8.8-30.1
			c-0.2-1.3-2.2-1.4-2.1,0c1,11.3-5.5,21.3-11.5,30.2c-4.5,6.7-9.7,13-15.2,18.9c4.9-6.2,8.3-12.1,9.9-17.7
			c2.7-9.9,3.3-18.1,1.7-26.3c0.1-0.2,0.2-0.5,0.2-0.7c0-12.1-6-24.9-12.1-35c-3.5-5.8-7-11.6-9.4-18c-2.3-6.3-3.8-12.9-5.1-19.5
			c-2.7-13.6-4.9-27.4-5.5-41.3c-0.3-6.7-0.2-13.4,0.2-20c0.4-7.6,2.4-14.7,4.1-22c0.3-1.1-1.3-1.5-1.7-0.5
			c-9.1,25.1-5.4,53.8-1.3,79.6C570.4,698.4,576.4,724.7,567.5,746.3z M418.3,974.4c0.1-0.3,0.1-0.4,0.2-0.6
			C418.5,974,418.4,974.2,418.3,974.4z"/>
		<path class="st3" d="M533.5,582.5c1.2,8.2,3.2,16.6,5.7,25.1c0.6-19,6.8-37.3,14.8-54.8c-7.2,5-14.3,10.2-21.4,15.5
			C532.8,577.5,533.5,582.5,533.5,582.5z"/>
		<path class="st3" d="M544.3,637.9c0.1-3.9,0.3-7.9,0.8-11.9c-2.1-6.2-4.1-12.3-5.9-18.4c0,1.2-0.1,2.3-0.1,3.5
			C539.2,620.2,541.3,629.2,544.3,637.9z"/>
		<path class="st3" d="M548.7,645.5c0.4,2.7,0.9,5.3,1.5,7.9c0.7,1.5,1.3,3.1,1.9,4.6c3,7.6,6.2,15.2,9.6,22.6
			c0.7,1.6,1.4,3.1,2.2,4.7c-1-4.3-1.9-8.7-2.6-13.1c-0.1-0.5-0.2-1.1-0.3-1.6c-4-11.8-8.6-23.9-12.9-35.9
			C548.1,638.4,548.2,642,548.7,645.5z"/>
		<path class="st3" d="M552.1,602.9c2.4-12.3,4.5-27.2,13.7-36.5c1.4-1.4-0.8-3.5-2.1-2.1c-8.8,9-11.5,22.1-14,34.1
			c-1.9,9-3.7,18.3-4.6,27.6c1,2.9,2,5.8,3.1,8.6C548.2,624,550.2,613,552.1,602.9z"/>
		<path class="st3" d="M514.7,889.1c-10,9.8-19.5,19.9-28.7,30.4c-8.6,9.8-18.7,20.1-24.9,31.6c-0.2,0.5,0.3,0.9,0.7,0.6
			c5-4.8,9.1-10.6,13.5-15.9c4.3-5.1,8.6-10.2,13.1-15.2c9.1-10.1,18.6-20,28.4-29.4c9.7-9.2,19.7-18.1,30-26.6
			c4.4-3.6,8.8-7,13.3-10.5c-6.6,4.3-11.5,6.4-15,7.3C534.6,870.2,524.5,879.5,514.7,889.1z"/>
	</g>
</g>
<g id="Original">
	<g id="_x32_3_x5F_Hair_x5F_SidePartBangsWavytMed_x5F_back_x5F_Main_Asset_1_">
		<path class="st0" d="M1284.1,498.5c0,0,15.7,20.1,19.5,37.2s-3.2,37.2-6.3,65c-3.1,27.8-11,64.1,26.9,103.8
			s103.1,75.3,135.1,113.8s67.7,78.7,53.4,138.8c0,0-46.6-13.4-89.7,0c-43,13.4-49.8,54.5-55.3,84.2s-4.1,69.3-24.9,102.7
			s-40.7,22.3-66.9,10.3s-72-45.8-101-72.6s-66.1-69.1-86.2-89s-28.3-24.3-33.1-29.4s-1.5-15.2-1.5-15.2s46.9-10.2,107.1-40.5
			s86.5-51.5,105.5-83.3c19.1-31.8,23.9-53.7,23.1-78.7s-15.9-37.2-19.7-45.9c-3.6-8.4-0.7-14.9,3.6-47.3
			c4.3-32.4,8.7-67.6,10.6-106.4C1286.4,507.3,1284.1,498.5,1284.1,498.5z"/>
		<path class="st0" d="M668.4,870.5c1.1,1.1,42.3,41.7,107.6,67.3s134,24.6,167.4,22.6s51-1.8,51-1.8s6,0.4-7.9,11.6
			c-13.9,11.2-55.3,55.1-100.7,82s-99.6,65.6-131.7,86.7c-32,21.1-43.7,30.5-43.7,30.5s-27-20.6-74.9-45.4
			c-48-24.9-71.2-44.4-87.3-60.6s-24-30.4-15.5-54.2s61.2-69.4,77.6-88.7C626.6,901.1,668.4,870.5,668.4,870.5z"/>
		<path class="st0" d="M834.8,1207.9c0,0,6.2,14.1,30.2,21s54.4,5.6,59,2.1s-10.4,2.3-22.7-2.1s-17.8-26.1-14-53.6
			s27.3-48.2,27.3-48.2s-8.5,18.8-1.3,30.8c7.2,11.9,20.1,28.1,14.6,39.4c-5.4,11.3-18.4,16.4-25.3,17.9c-6.8,1.5,1.7,2.7,14.1,0
			s20.5-12,20.5-12s12-53.1,18.9-91s12.2-68.3,12.2-68.3s-30.2,30.8-60,60.3C878.3,1133.7,834.8,1207.9,834.8,1207.9z"/>
		<path class="st0" d="M1137.4,1141.8c21.5,42.7,65.5,82.1,65.5,82.1s10.3,11.5,8.6,33.3s-9.6,30.2-12.5,32.9s-0.9-2.9-4.8-26.4
			s-23.8-52.4-41.9-66.8c0,0-4.7-15.8-9-29.9C1139.1,1153.1,1137.4,1141.8,1137.4,1141.8z"/>
		<path class="st0" d="M1484.9,1186.1c0,0,10.1,32.5-14.1,67.7s-49.8,47.6-62,58s-19,25-16,34.5s12,22.8,3.5,14.8
			s-20.9-17.8-8.8-49.2s27.4-33.8,36.3-55.5c0,0,12.6-9.2,31.5-31.2C1469.1,1209.1,1484.9,1186.1,1484.9,1186.1z"/>
	</g>
	<g id="_x32_3_x5F_Hair_x5F_SidePartBangsWavytMed_x5F_back_x5F_Highlights_1_">
		<path class="st1" d="M1388.7,812c5,6,9.9,12.3,13.2,19.5c3.5,7.5,5.4,15.7,6.7,23.9c2.7,17.4,2.6,36-6.4,51.7
			c-0.9,1.6,1.6,3.1,2.5,1.5c7.7-12.6,9.8-27.4,9.1-41.9c-0.7-15.3-3.3-31.2-11.7-44.4c-8.3-13.1-19.4-24.7-29.9-36.1
			c-10.9-11.9-22.3-23.3-33.3-35.2c-5.9-6.4-12-12.8-17.6-19.6c-6.4-7.6-12.5-15.2-18.5-23.1c-0.3-0.5-1.1-0.1-0.8,0.5
			c15.1,25.8,36.3,47.9,56.6,69.7C1369,789.5,1379.2,800.5,1388.7,812z"/>
		<path class="st1" d="M1425,885.3c3.9-8.6,3.2-19.2,1.5-28.2c-1.9-10.4-6.8-20.6-12.1-29.6c-10.8-18.1-25.5-35.8-42.4-48.6
			c-0.5-0.4-1.1,0.4-0.7,0.8c14.9,14.5,28.1,29.3,38.6,47.4c5,8.7,9.5,17.9,12.1,27.7c1.3,5,2.4,10,2.5,15.1c0.1,5-0.9,9.8-1.6,14.7
			C1422.8,885.8,1424.6,886.3,1425,885.3z"/>
		<path class="st1" d="M1458.9,818.4c-9.4-10.6-20-19.8-31-28.8c-11-8.9-21.9-17.9-32.8-27c-20.4-15.2-41.4-30.6-58.8-46.5
			c-0.8-0.6-1.7-1.2-2.5-1.8c-1.4-1-3.2,1.2-1.9,2.4c19.1,17.6,39.4,34,59.8,50.3c-2-1.4-3.9-2.7-5.9-4.1
			c-9.6-6.8-18.8-14.2-27.7-21.9c-8.4-7.3-16-16.1-25.1-22.6c-0.5-0.4-1.1-0.2-1.6,0.2c-0.7-0.4-1.4-0.9-2.1-1.2
			c-0.6-0.3-1.4,0.4-1,1c1.5,2,3.2,3.8,5.1,5.5c4.7,6.4,11,12.1,16.6,17.5c7,6.6,14.3,12.8,21.9,18.6c2.1,1.6,4.3,3.3,6.5,4.8
			c15.8,14.7,30.6,30.2,45.1,46.3c1.4,1.5,4.2-0.5,2.9-2.2c-7.1-9.4-14.9-18.2-23.2-26.7c5.7,4.1,11.3,8.4,16.6,13.1
			c28.1,25,48,57.4,60.3,92.8c7.2,20.9,11.1,42.4,9.9,64.5c1.4,0.2,2.8,0.4,4.2,0.6c0.4-38.5-12-76.8-30.8-110.1
			c-8.4-14.9-18.3-28.8-29.5-41.7c9.9,8.6,19.2,17.7,27.5,28c5.5,6.9,10.7,14.2,15.3,21.7c4.4,7.3,7.4,15.3,11.8,22.5
			c0.2,0.3,0.5,0.5,0.8,0.5c0.9,1.5,2,2.8,3.3,3.9c1.5,1.2,4.3,0.2,3.6-2.1c-3.7-11.3-10.6-22.4-17.1-32.3
			c-2.8-4.2-5.7-8.5-8.8-12.6c-2.2-2.7-4.4-5.4-6.7-8C1461.9,821.6,1460.4,820,1458.9,818.4z"/>
		<path class="st2" d="M1475.4,1239.7c3.1-4.6,5.3-9.8,6.6-15.2c1.5-6.2,2.2-12.7,1.6-19.1c-0.4-4.7-1.7-9.2-2.7-13.7
			c-0.7,1-1.5,2.1-2.4,3.3c0.4,2.2,0.9,4.4,1.1,6.7c0.4,6.1-0.8,12.7-2.1,18.7c-1.2,5.4-3,10.6-6,15.3c-0.3,0.5-0.7,1-1.1,1.5
			c0.9-5.1,1.3-10.4,1.5-15.5c0.2-3.6-0.4-7.1-0.5-10.6c-0.1-2.1-0.1-4.2-0.1-6.3c-0.8,1-1.6,2.1-2.4,3.2c-0.1,3.5-0.2,6.9-0.5,10.4
			c-0.5,6.3-2.1,13.2-3.7,19.3c-3.2,12.3-10.8,21.4-17,32.1c-0.5,0.9,0.5,1.7,1.3,1.3c9.1-4.2,15.2-13.7,18.6-23.4
			C1471,1246.2,1473.4,1242.7,1475.4,1239.7z"/>
	</g>
	<g id="_x32_3_x5F_Hair_x5F_SidePartBangsWavytMed_x5F_back_x5F_Shadows_1_">
		<path class="st3" d="M994.3,958.6c0,0-17.5-0.2-51,1.8s-102.1,3.1-167.4-22.6c-65.3-25.7-106.4-66.2-107.6-67.3
			c0,0-41.8,30.6-58.2,49.9c-14,16.5-54.6,52.3-71.4,77.2c0.3,3.8,0.7,7.6,1.2,11.4c0.4,2,0.7,4,0.9,6c2.5,14.1,7.5,27.6,18.3,37.7
			c4.1,3.8,8.6,7.1,13.4,10c3.3,2,7.3,3.4,9.2,7c5.4,10.1,8.9,21.2,13.9,31.5c11,7.1,24.1,14.6,39.7,22.8
			c48,24.9,74.9,45.4,74.9,45.4s0.7-0.6,2.4-1.8c-14.9-14.6-31.8-26.2-51.5-33.5c-1.1-0.4-0.6-2.1,0.5-1.7
			c20.1,7.2,39.4,17.8,55.4,32c3.6-2.6,8.7-6.3,15.7-11.1c-1.3-1.3-2.5-2.7-3.8-4.2c-3-3.5-6.3-6.9-9.7-10c-7-6.6-14.7-13.1-23-18.2
			c-0.4-0.2,0-0.8,0.3-0.6c7.4,4,14.5,8,21.2,13c-1.4-1.3-2.8-2.6-4.3-3.9c-8.1-6.9-16.6-13.1-24.9-19.8
			c-8.3-6.6-16.5-13.5-23.6-21.4c-3.1-3.5-6-7.2-8.6-11.1c-2.3-3.5-5.3-7.7-5.5-11.9c0-0.3,0.3-0.4,0.5-0.2
			c3.3,3.3,5.1,8.4,7.9,12.3c3.2,4.5,6.9,8.7,10.9,12.6c7.5,7.5,15.8,13.9,24.3,20.1c8.3,6,16.7,12,24.5,18.6
			c7,5.9,14.6,12.8,19.3,20.8c4.6-3.1,9.7-6.6,15.6-10.4c5.8-3.8,12.4-8.3,19.6-13.1c-0.6-1-1.1-2-1.6-2.7
			c-3.7-5.5-7.2-10.9-10.6-16.6c-3.3-5.7-6.6-11.3-10.1-16.9c-3-4.9-7.4-9.7-9.4-15.1c-0.1-0.3,0.3-0.5,0.5-0.3
			c4.7,3.9,8,10,11.7,14.9c3.8,5,7.7,10,11.5,15c2.7,3.5,5.3,7,7.8,10.6c-2.4-5.2-5.1-10.3-8.2-15.3c-2.9-4.6-5.9-9-8.9-13.5
			c-2.3-3.5-6-7.4-7.1-11.5c-0.1-0.2,0.1-0.4,0.4-0.4c4.2,1.4,8.2,6.2,11.2,9.5c3.6,4,6.7,8.3,9.6,12.9c2.6,4.1,5.1,8.4,7.4,12.9
			c1.5-5.2,3.2-10.4,4.4-15.6c2.1-9.2,3.4-18.5,3.9-27.8c1-18.1-0.7-36.3-1.3-54.4c0-0.4,0.7-0.5,0.7-0.1c3,18.4,4.4,36.9,3.6,55.5
			c-0.3,7.6-1.1,15.1-2.4,22.5c0.6-1.5,1.2-3,1.8-4.5c5-12.6,9.4-24.9,12.9-38c0.2-0.7,1.5-0.6,1.4,0.2c-3,24.6-16,46.6-21.1,70.6
			c0.2,0.4,0.4,0.8,0.5,1.2c1.2-3.3,2.9-6.6,4.1-9.7c1.9-4.8,3.6-9.7,5.5-14.5c3.7-9.3,7.3-18.7,11.4-27.8c0.2-0.4,0.6-0.1,0.7,0.2
			c0.5,4.9-1.4,9.5-2.8,14.1c-1.5,4.9-3.1,9.8-4.8,14.7c-1.8,5.2-3.7,10.3-5.6,15.5c-0.4,1.1-0.7,2.3-1.1,3.4
			c18.4-12.5,39-26.6,59.6-39.9c-0.2-3.3-0.4-6.6-1.4-9.8c-1.5-4.7-4.1-9.4-4.5-14.3c0-0.3,0.4-0.4,0.5-0.2
			c3.4,3.8,5.5,9.3,7.7,13.9c1.2,2.5,1.8,5,2.3,7.5c10.8-7,21.5-13.7,31.8-19.7c45.4-26.9,86.7-70.8,100.7-82
			S994.3,958.6,994.3,958.6z"/>
		<path class="st3" d="M863.4,1216.1c4.7,4.2,9.8,8.1,15.1,11.4c0.3,0.2,0.6,0.4,0.9,0.6c-0.2-0.3-0.4-0.6-0.6-0.9
			c-5.1-5.3-9.6-11.1-13.4-17.3c-7-11.6-9.4-23.3-9.3-36.3c-4.9,7.5-9.2,14.4-12.6,20c2.8,3.1,4.9,7.4,7.7,10.4
			C855.1,1208.1,859.1,1212.2,863.4,1216.1z"/>
		<path class="st3" d="M870.1,1210.6c-3.3-9.1-4.1-18.3-4.1-28.1c0.1-11.6,1.5-22.7,6.4-33.4c-5.6,8-10.9,16-15.7,23.4
			c1,12.6,4.5,25,11.6,35.6C868.9,1209,869.5,1209.8,870.1,1210.6z"/>
		<path class="st3" d="M934.1,1162.1c-3.1-6.5-4.8-13.2-5.4-20.3c-0.6-8.2,0.1-16.4,1-24.5c0.3-3,0.6-5.9,1.3-8.8
			c-2.6,2.2-5.1,4.5-7.6,6.8c-3.3,4.2-6.8,8.2-9.9,12.6c-0.1,0.1-0.2,0.3-0.3,0.4c0.8-0.8,1.3-1.3,1.3-1.3s-8.5,18.8-1.3,30.8
			c7.2,11.9,20.1,28.1,14.6,39.4c-5.4,11.3-18.4,16.4-25.3,17.9c-6.8,1.5,1.7,2.7,14.1,0s20.5-12,20.5-12s2-8.6,4.7-21.4
			c-0.9-2.6-1.5-5.4-2.5-8C938,1169.8,936,1166,934.1,1162.1z"/>
		<path class="st3" d="M847.9,1206.4c-1.9-2.9-4.8-6.1-6.5-9.5c-1.1,1.8-2.1,3.4-3,4.9c6.1,5.3,11.8,10.7,18.3,15.4
			C853.5,1213.8,850.5,1210.3,847.9,1206.4z"/>
		<path class="st3" d="M836.6,1204.9c-1.2,1.9-1.8,3-1.8,3s6.2,14.1,30.2,21c0.4,0.1,0.8,0.2,1.2,0.3c-2.2-1.2-4.3-2.6-6.3-4
			C851.7,1219.7,842.8,1213,836.6,1204.9z"/>
		<path class="st3" d="M947.8,1112.3c0.2-5.7-0.1-12.9,1.5-19.1c-1,0.8-2,1.7-3,2.5c-1.2,4.9-2,10.1-2.7,14.9
			c-1,6.8-1.4,13.7-1,20.6s1.6,13.8,3.5,20.4c0.4,1.4,0.9,2.7,1.3,4.1c0.8-3.9,1.6-7.8,2.4-11.8
			C947.3,1133.8,947.5,1122.7,947.8,1112.3z"/>
		<path class="st3" d="M950.5,1115.1c-0.1,6.3,0.5,12.3,1.6,18.3c1.4-7.3,2.8-14.5,4-21.2c1.9-10.6,3.7-20.7,5.3-29.6
			c-2.9,2.8-5.9,5.5-9,8.1C950.4,1098.5,950.6,1107.1,950.5,1115.1z"/>
		<path class="st3" d="M908.2,1104.2c-7.6,7.5-16,17.8-24.4,29c-2.3,4.4-4.6,8.8-6.8,13.3c-5.4,10.8-7.4,21.3-7.4,33.4
			c0,10.3,1.4,20.4,5.4,29.9c-2.1-9.4-1.4-19.9-0.3-28.5c2.1-15.7,7.4-31.5,16.3-44.7c8.5-12.7,20.4-23.8,31.7-34
			c10.9-9.9,23.4-20,38.2-22.9c0.4-0.1,0.8,0,1.1,0.2c3.8-21.5,6.3-36,6.3-36S938.1,1074.8,908.2,1104.2z"/>
		<path class="st3" d="M939.9,1131.3c-0.3-6.5,0-13,0.9-19.5c0.7-5.3,2.2-9.9,3.9-14.6c-3.5,2.9-7.1,5.7-10.5,8.7
			c-1.1,5.2-1.2,10.9-1.6,15.8c-0.6,7.5-1.2,15.2-0.2,22.7c1,7.9,4.1,15.1,8,22c1.1,2,2.5,4.2,3.7,6.4c0.5-2.5,1.1-5.1,1.7-7.8
			c-1.2-4.7-2-9.6-2.9-14.3C941.3,1144.3,940.3,1137.8,939.9,1131.3z"/>
		<path class="st3" d="M1186.1,1218.3c5.4,7.7,10.1,15.5,13.6,24c-0.7-2.6-1.5-5.2-2.4-7.8c-4-11.3-9.9-22.1-16.2-32.5
			c-14.2-15.4-32.2-37.3-43.7-60.2c0,0,0.8,5.3,2.7,13.1c6,10.9,12,21.6,20,31.2C1168.8,1196.8,1178.1,1207,1186.1,1218.3z"/>
		<path class="st3" d="M1181,1215.6c-8.4-11.3-17.6-22.1-26.3-33.2c-4-5.1-7.3-10.7-10.4-16.4c-0.8-1.5-1.7-3.1-2.6-4.6
			c0.5,1.9,1.1,3.8,1.7,5.8c4.2,14,9,29.9,9,29.9c18.1,14.4,38,43.3,41.9,66.8c3.5,21.5,2.2,28,4.1,26.9
			C1203.7,1264.3,1197.2,1237.3,1181,1215.6z"/>
		<path class="st3" d="M1406.7,1313.6L1406.7,1313.6L1406.7,1313.6C1406.7,1313.5,1406.7,1313.6,1406.7,1313.6z"/>
		<path class="st3" d="M1404.8,1305.8c6.7-9.8,15.5-17.8,24.1-26c9.4-9,18-18.6,23.7-30.4c2.7-5.7,4.9-11.7,6.5-17.8
			c1.3-4.9,2.9-10.1,3.5-15.2c-1.8,2.3-3.6,4.5-5.4,6.6c-0.2,2.2-0.5,4.3-1,6.6c-0.8,3-1.6,5.9-2.9,8.8c-2.5,5.9-5.6,11.5-9.3,16.7
			c-3.9,5.4-8.4,10.4-12.8,15.4c-4.9,5.6-9.7,11.5-15.1,16.5c-0.8,0.8-2.3-0.2-1.6-1.2c7.7-11.2,17.8-20.7,25.6-31.9
			c3.9-5.7,7.2-11.7,10-18.1c1.2-2.9,2.6-5.9,3.9-9c-18.1,20.7-30,29.4-30,29.4c-8.9,21.7-24.2,24-36.3,55.5s0.2,41.2,8.8,49.2
			s-0.5-5.2-3.5-14.8c-1.5-4.7-0.6-10.6,2.1-16.6C1395.2,1321.2,1400.5,1312.1,1404.8,1305.8z"/>
		<path class="st3" d="M1463.1,1215.6c-0.3,4.5-0.3,8.9-1.1,13.4c-1.1,5.7-3,11.4-5.2,16.8c-4,9.9-9.5,19.4-16.3,27.7
			c-2.1,2.5-4.2,5-6.4,7.4c-3.5,5.2-6.9,10.4-10.6,15.4c-2.5,3.3-4.9,6.6-7.4,9.9c4.7-3.4,10.3-7.2,16.5-12c1-1.8,2.2-3.5,3.2-5.1
			c2.2-3.6,4.5-7.1,6.8-10.6c4.8-7.4,9.7-14.8,13.9-22.6c4.2-7.9,7.8-16.2,9.6-24.9c1.5-6.9,1.7-14.1,1.8-21.3
			C1466.3,1211.6,1464.7,1213.6,1463.1,1215.6z"/>
		<path class="st3" d="M1167.6,1062.5c-0.5-5-1.1-10.3-1.6-15.6c-0.4,4.4-0.6,8.8-0.6,13.2c0,4.6,0.6,9.2,1.3,13.8c1,1,2.1,2,3.1,3
			C1168.9,1072.2,1168.1,1067.4,1167.6,1062.5z"/>
		<path class="st3" d="M1345.4,1065.9c-4.8-12.8-6.7-26.3-5.4-39.8c0.1-0.8-1.1-0.8-1.2,0c-1.8,14.2-0.3,28.6,4.2,42.1
			c3.5,10.5,8.9,21.9,16.6,30.4c0.5-2.3,0.9-4.7,1.3-7c-2-2.3-4-4.7-5.8-7.3C1351.3,1078.5,1347.9,1072.3,1345.4,1065.9z"/>
		<path class="st3" d="M1345.3,1139.8c0.3-0.6,0.7-1.2,1-1.8c0.3-0.5,0.6-1.1,0.8-1.6c0.2-0.5,0.5-0.9,0.7-1.4
			c0.3-0.6,0.6-1.2,0.9-1.9c0.2-0.4,0.4-0.8,0.5-1.1c0.3-0.7,0.6-1.4,0.9-2.1c0.1-0.3,0.3-0.6,0.4-0.9c0.3-0.8,0.7-1.6,1-2.4
			c0.1-0.2,0.2-0.4,0.2-0.6c0.3-0.9,0.7-1.7,1-2.6c0-0.1,0.1-0.2,0.1-0.3c0.3-0.9,0.7-1.9,1-2.8l0,0c-4.1-2.1-8.8-4.8-13.7-8.1
			c-13.2-13.1-22.1-30.2-26-48.5c-2.7-12.9-1.7-26.1,0.6-39c1.1-6.5,3-12.7,4.9-19c1.8-5.8,4.8-12,5.4-18.1c0.1-0.7-0.9-0.8-1.2-0.3
			c-3.5,5.6-5.1,13.3-6.9,19.6c-2.1,7.1-4.1,14.4-5.7,21.6c-2.7,12.5-3,25.3-1.3,37.9c1.4,9.7,4.6,19.1,9.3,27.7
			c-0.1-0.1-0.2-0.2-0.3-0.3c-19.2-22.3-29.5-67.8-12.3-92c8.8-12.4,21-34.1,32.3-56.1c-5.6,15.7-10.3,31.9-12.9,48.5
			c-4.5,29.3-3.3,61.7,8.3,89.4c4.9,11.6,12.1,23,20.9,32.4c0.7-2.2,1.3-4.4,1.9-6.6c-16-18.1-25.6-40.3-29.6-64.5
			c-5.4-32,3.6-66.3,14.3-96.2c3-8.5,6.4-16.9,9.8-25.3c2.3-5.6,5.1-11.5,7-17.5c2.7-5.8,5.1-11.1,7-15.6c12-28.2,1.8-63.2-7.7-88.3
			c-3.7-9.8-12.4-23.1-22.2-36.3c12.5,14.5,25.7,28.8,36.5,44.7c10.6,15.6,19.2,33.1,21.1,52.1c0.5,4.9,0.5,9.9,0,14.7
			c-0.1,0.1-0.2,0.3-0.2,0.5c-1.8,11.3-5.9,21.7-10.9,31.8c-0.6,1-1.2,1.9-1.8,2.9c-0.2,0.3-0.2,0.6-0.1,0.9
			c-7.1,13.5-15.6,26.4-21.9,40.1c-12.1,26.1-13.9,55.5-8.2,83.4c2.6,12.5,6.7,25.1,13.3,36.1c0.4-3,0.7-6.1,1.1-9
			c-4.4-7.8-7.7-16.1-9.8-25c-3.1-13.4-3.2-27.7-2.2-41.3c1.1-15.6,4.9-30.2,11.5-44.5c1.8-3.8,3.7-7.6,5.6-11.3
			c-3.1,10.6-4.8,21.7-5.2,32.9c-0.3,8.9,0.3,17.8,1.9,26.6c1.2,6.5,2.6,13.8,5.3,20.2c0.8-3.5,1.7-7,2.8-10.4
			c-1.1-2.8-2.1-5.6-3-8.5c-2.4-8.7-3.8-17.9-4.1-26.9c-0.5-14.3,2-28.7,6.8-42.2c2.8-5.1,5.5-10.2,8.1-15.5
			c1.4-2.8,2.7-5.6,3.9-8.5c6.5-8.6,10-20.3,11.1-30.5c1.5-14.2-1.4-28.8-6.6-42c-11.5-29.4-33.7-53.2-54.1-76.7
			c-12.8-14.8-25.7-29.6-39.5-43.4c-0.3-0.3-0.9,0.1-0.6,0.5c1.9,2.5,3.7,5,5.7,7.5c-2.6-2.9-4.9-5.3-6.5-6.9
			c-6.6-6.7-18.2-20.8-26.6-31.3c0,0.3-0.1,0.6-0.1,1c0,0.1,0,0.1,0,0.2c0,0.3-0.1,0.5-0.1,0.8c0,0.1,0,0.2,0,0.3
			c0,0.2,0,0.5-0.1,0.7c0,0.1,0,0.2,0,0.3c0,0.2,0,0.4,0,0.7c0,0.1,0,0.2,0,0.3c0,0.2,0,0.4,0,0.6c0,0.1,0,0.2,0,0.3
			c0,0.2,0,0.4,0,0.6c0,0.1,0,0.2,0,0.3c0,0.2,0,0.3,0,0.5c0,0.1,0,0.2,0,0.4s0,0.3,0,0.5c0,0.1,0,0.2,0,0.3c0,0.2,0,0.3,0,0.5
			c0,0.1,0,0.2,0,0.4c0,0.1,0,0.3,0.1,0.4c0,0.1,0,0.2,0.1,0.4c0,0.1,0.1,0.3,0.1,0.4c0,0.1,0.1,0.2,0.1,0.4c0,0.1,0.1,0.3,0.1,0.4
			c0,0.1,0.1,0.3,0.1,0.4c0,0.1,0.1,0.2,0.1,0.4c0,0.1,0.1,0.3,0.1,0.4c0,0.1,0.1,0.2,0.1,0.3c0.1,0.2,0.1,0.3,0.2,0.5
			c0,0.1,0.1,0.2,0.1,0.3c0.1,0.2,0.2,0.5,0.3,0.7c0,0,0,0,0,0.1c1.7,4.1,6,8.9,10.1,15.5c0.8,1.3,1.6,2.7,2.4,4.2c0.5,1,1,2,1.5,3
			s1,2.1,1.4,3.2c0.9,2.2,1.7,4.6,2.4,7.2c1,3.8,1.6,8.1,1.8,12.8c0.2,7,0,13.8-0.9,20.7c-0.2,1.5-0.4,3-0.7,4.6
			c-0.5,3.1-1.2,6.1-2,9.2c-0.8,3.1-1.7,6.3-2.9,9.5c-1.4,4-3.1,8.2-5,12.5c-1.6,3.5-3.3,7-5.3,10.7c-1,1.8-2,3.7-3.1,5.6
			c-1.1,1.9-2.2,3.9-3.4,5.9c-3.6,6-7.4,11.6-11.7,16.9c-5,6.2-10.5,12.1-16.9,17.9c-1.8,1.7-3.7,3.3-5.7,4.9
			c-3,2.5-6.1,4.9-9.5,7.3c-2.2,1.6-4.5,3.3-6.9,4.9c-14.4,9.8-32.2,19.9-54.8,31.3c-3.8,1.9-7.5,3.7-11.1,5.5
			c-1.8,0.9-3.6,1.7-5.4,2.6c-2.7,1.2-5.3,2.5-8,3.6c-1.7,0.8-3.5,1.5-5.2,2.3c-6.8,3-13.4,5.6-19.5,8c-4.6,1.8-9,3.5-13.2,5
			c-5.6,2-10.8,3.8-15.5,5.3c-5.3,1.7-10,3.1-13.9,4.3c-0.9,0.3-1.7,0.5-2.5,0.7c-8.1,2.3-12.7,3.3-12.7,3.3s-0.2,0.6-0.5,1.7
			c-0.1,0.3-0.1,0.5-0.2,0.8c-0.1,0.5-0.2,1-0.3,1.5c-0.2,1.3-0.3,2.7-0.2,4.2c0,0.4,0.1,0.8,0.1,1.3c0,0.2,0.1,0.4,0.1,0.6
			c0.2,1.1,0.5,2.1,0.9,3c0.4,0.8,0.8,1.5,1.4,2.1s1.3,1.3,2,1.9c0.7,0.6,1.5,1.3,2.4,2c0.4,0.4,0.9,0.7,1.4,1.1
			c1.5,1.2,3.1,2.5,5.1,4.1c1,0.8,2,1.6,3.1,2.6c3.3,2.8,7.3,6.3,12.2,10.9c0.5,0.5,1.1,1,1.6,1.6c1.7,1.6,3.5,3.3,5.3,5.2
			c0.5,0.5,1.1,1.1,1.6,1.6c0.1,0.1,0.2,0.2,0.3,0.3c0.3,0.3,0.6,0.6,0.9,1c0.4,0.4,0.7,0.7,1.1,1.1c0.3,0.3,0.6,0.6,0.9,0.9
			c0.4,0.4,0.8,0.8,1.3,1.3c0.3,0.3,0.6,0.6,0.9,0.9c0.4,0.5,0.9,0.9,1.3,1.4c0.2,0.2,0.4,0.4,0.6,0.6c0.6,0.6,1.1,1.2,1.7,1.8
			c0.2,0.2,0.4,0.4,0.6,0.7c0.6,0.6,1.2,1.2,1.8,1.8c0.1,0.2,0.3,0.3,0.4,0.5c0.7,0.7,1.3,1.4,2,2.1l0.1,0.1
			c0.8,0.8,1.6,1.7,2.4,2.5l0,0c0.1-3.8,0.2-7.6-0.6-11.5c-0.2-1,1.3-1.4,1.5-0.4c1.2,5.5,2.4,11.1,3.6,16.6
			c3.5,3.7,7.1,7.5,10.8,11.5c0.4,0.4,0.7,0.8,1.1,1.1c0.5,0.5,1,1.1,1.5,1.6c0.6,0.6,1.1,1.2,1.7,1.8c0.4,0.5,0.9,0.9,1.3,1.4
			c0.6,0.7,1.3,1.4,1.9,2.1c0.4,0.4,0.7,0.8,1.1,1.2c0.7,0.8,1.5,1.5,2.2,2.3c0.3,0.3,0.6,0.7,1,1c0.8,0.9,1.7,1.8,2.5,2.7
			c0.2,0.2,0.4,0.4,0.6,0.6c2.2,2.3,4.4,4.6,6.6,6.9c0.1,0.1,0.1,0.1,0.2,0.2c1,1,2,2.1,3,3.1c0.2,0.2,0.4,0.4,0.6,0.6
			c0.9,0.9,1.7,1.8,2.6,2.7c0.3,0.3,0.5,0.5,0.8,0.8c0.8,0.8,1.6,1.7,2.5,2.5c0.3,0.3,0.5,0.5,0.8,0.8c0.8,0.8,1.6,1.7,2.5,2.5
			c0.3,0.3,0.5,0.5,0.8,0.8c0.9,0.9,1.7,1.7,2.6,2.6c0.2,0.2,0.4,0.4,0.6,0.6c1,1,2.1,2.1,3.1,3.1c0-3.8,0.1-7.7,0.2-11.5
			c0.2-6.7,0.8-13.4,1.9-20c-0.2-4.8-0.1-9.4,0.6-13.9c0.1-0.8,1.4-0.7,1.5,0c1.1,5.6,1.1,11.6,1.7,17.3c0.6,6.5,1.7,12.9,2.9,19.3
			c1.1,5.9,2.2,11.9,3.4,17.8c0.3,1.2,0.5,2.3,0.8,3.5c2.7,2.5,5.6,5,8.6,7.6l0,0c1,0.9,2,1.7,3,2.6l0,0c1,0.9,2,1.7,3,2.6
			c0,0,0,0,0.1,0.1c1,0.8,2,1.7,3.1,2.5l0.1,0.1c1,0.8,2,1.7,3.1,2.5l0.1,0.1c1,0.8,2,1.7,3.1,2.5c0.1,0.1,0.1,0.1,0.2,0.2
			c1,0.8,2,1.6,3,2.4c0.1,0.1,0.2,0.1,0.3,0.2c1,0.8,2,1.6,3,2.4c0.1,0.1,0.2,0.2,0.4,0.3c1,0.8,2,1.5,3,2.3
			c0.1,0.1,0.3,0.2,0.4,0.3c1,0.7,1.9,1.5,2.9,2.2c0.2,0.1,0.3,0.3,0.5,0.4c0.9,0.7,1.9,1.4,2.8,2.1c0.2,0.2,0.4,0.3,0.6,0.5
			c0.9,0.7,1.8,1.4,2.8,2.1c0.2,0.2,0.5,0.3,0.7,0.5c0.9,0.7,1.8,1.3,2.7,2c0.3,0.2,0.5,0.4,0.8,0.6c0.9,0.6,1.7,1.2,2.6,1.9
			c0.3,0.2,0.6,0.4,0.9,0.6c0.8,0.6,1.6,1.2,2.5,1.8c0.3,0.2,0.6,0.5,1,0.7c0.8,0.6,1.6,1.1,2.4,1.7c0.3,0.2,0.7,0.5,1,0.7
			c0.8,0.5,1.5,1.1,2.3,1.6c0.4,0.3,0.7,0.5,1.1,0.8c0.7,0.5,1.5,1,2.2,1.5c0.4,0.3,0.8,0.5,1.2,0.8c0.7,0.5,1.4,0.9,2.1,1.4
			c0.4,0.3,0.9,0.6,1.3,0.9c0.6,0.4,1.3,0.9,1.9,1.3c0.5,0.3,0.9,0.6,1.4,0.9c0.6,0.4,1.2,0.8,1.8,1.2c0.5,0.3,0.9,0.6,1.4,0.9
			c0.6,0.4,1.2,0.7,1.8,1.1c0.5,0.3,0.9,0.6,1.4,0.9c0.6,0.3,1.1,0.7,1.7,1c0.5,0.3,1,0.6,1.5,0.9s1.1,0.6,1.6,0.9s1,0.6,1.5,0.9
			s1,0.6,1.5,0.9s1,0.6,1.5,0.9c0.4,0.3,0.9,0.5,1.3,0.8c0.5,0.3,1,0.6,1.6,0.9c0.4,0.2,0.8,0.5,1.2,0.7c0.5,0.3,1.1,0.6,1.6,0.8
			c0.4,0.2,0.7,0.4,1.1,0.6c0.6,0.3,1.2,0.6,1.7,0.9c0.3,0.1,0.6,0.3,0.9,0.4c0.8,0.4,1.7,0.8,2.5,1.2c1.4,0.7,2.9,1.3,4.3,2
			c0.3,0.2,0.7,0.3,1,0.5c-8.5-9.5-16.1-20-22.5-30.9c-10.2-17.5-18-38.9-18.5-59.3c0-0.7,1-0.8,1.2-0.2c2.3,10.8,4.4,21.3,8.4,31.7
			c3.5,9.1,8.2,17.8,13.3,26.1c8.7,14.2,19.6,26.5,31.3,38.2c0.5,0.2,1,0.4,1.5,0.6c0.1,0,0.2,0.1,0.2,0.1c0.5,0.2,1,0.4,1.5,0.5
			l0,0c0.5,0.2,1,0.3,1.5,0.5c0.1,0,0.2,0.1,0.2,0.1c0.5,0.1,1,0.3,1.5,0.4l0,0c0.5,0.1,1,0.3,1.5,0.4c0.1,0,0.2,0,0.3,0.1
			c0.5,0.1,0.9,0.2,1.4,0.3l0,0c0.5,0.1,1,0.2,1.4,0.3c0.1,0,0.2,0,0.3,0c0.5,0.1,0.9,0.2,1.4,0.2l0,0c0.5,0.1,0.9,0.1,1.4,0.2
			c0.1,0,0.2,0,0.3,0c0.5,0,0.9,0.1,1.4,0.1l0,0c0.5,0,0.9,0,1.4,0c0.1,0,0.2,0,0.3,0c0.4,0,0.9,0,1.3,0l0,0c0.5,0,0.9-0.1,1.4-0.1
			c0.1,0,0.2,0,0.3,0c0.4-0.1,0.9-0.1,1.3-0.2l0,0c0.5-0.1,0.9-0.2,1.3-0.3c0.1,0,0.2,0,0.3-0.1c0.4-0.1,0.9-0.2,1.3-0.3l0,0
			c0.4-0.1,0.9-0.3,1.3-0.4c0.1,0,0.2-0.1,0.3-0.1c0.4-0.2,0.9-0.3,1.3-0.5l0,0c0.4-0.2,0.9-0.4,1.3-0.6c0.1,0,0.2-0.1,0.3-0.2
			c0.4-0.2,0.9-0.4,1.3-0.7l0,0c0.4-0.2,0.9-0.5,1.3-0.8c0.1-0.1,0.2-0.1,0.3-0.2c0.4-0.3,0.8-0.6,1.3-0.9l0,0
			c0.4-0.3,0.9-0.6,1.3-1c0.1-0.1,0.2-0.2,0.3-0.2c0.4-0.3,0.8-0.7,1.3-1.1l0,0c0.4-0.4,0.9-0.8,1.3-1.2c0.1-0.1,0.2-0.2,0.3-0.3
			c0.4-0.4,0.9-0.8,1.3-1.3l0,0c0.4-0.5,0.9-0.9,1.3-1.4c0.1-0.1,0.2-0.2,0.3-0.4c0.4-0.5,0.9-1,1.3-1.5l0,0
			c0.4-0.5,0.9-1.1,1.3-1.7c0.1-0.1,0.2-0.3,0.3-0.4c0.4-0.6,0.9-1.2,1.3-1.8l0,0c0.4-0.6,0.9-1.3,1.3-1.9c0.1-0.2,0.2-0.3,0.3-0.5
			c0.4-0.7,0.9-1.3,1.3-2c0.6-1,1.2-2,1.8-3C1344.8,1140.6,1345.1,1140.2,1345.3,1139.8z"/>
		<path class="st3" d="M1435.5,953.9c5.4-13,7.8-27.3,8.9-41.2c1.5-19.3,1.3-40.1-3.8-58.9c-5.3-19.6-19.1-33-33.5-46.5
			c-15.2-14.3-31.2-27.7-46.6-41.8c-17.3-15.8-34-32.1-48.9-50.3c-0.4-0.5-1.3,0.2-0.9,0.7c23.3,31.6,53.8,56.6,82.4,83
			c14,12.9,31.1,26,39.2,43.8c7.1,15.7,8.6,33.6,8.8,50.9c-0.6,3.1-1.3,6.3-2.2,9.3c-2.1,7-4.7,13.8-7.3,20.6
			c-4.6,12-10,23.7-14.6,35.7c1.9-0.8,3.8-1.5,5.9-2.1c4.1-10.8,7.8-21.9,11.9-32.7c2.1-5.6,4.4-11.7,6.3-17.8
			c-0.5,16.9-3.3,33.2-10.4,48.3C1432.2,954.6,1433.8,954.3,1435.5,953.9z"/>
		<path class="st3" d="M1484.6,952.1c1.1-14.3-0.6-29.3-3.3-43c-3.6-18.2-10-36-19.1-52.1c-9.4-16.6-21.7-30.7-35.8-43.5
			c-16.8-15.3-33.1-30.9-49.5-46.7c-19.1-18.5-38.1-37.1-57.6-55.1c-0.4-0.4-1.1,0.2-0.7,0.7c15.7,16.3,32.3,31.7,48.2,47.9
			c15.4,15.6,31.1,31.2,47.5,45.9c14.9,13.3,28.6,27,39.5,43.9c10,15.6,17.7,32.8,22.3,50.7c2.6,10.1,4.2,20.4,4.9,30.7
			c0.4,6.8,0.2,13.6-0.2,20.3C1482.1,951.9,1483.4,952,1484.6,952.1z"/>
		<path class="st3" d="M1499.4,931c-0.2-1.3-2.4-1-2.3,0.3c0.7,7.5,0.6,15-0.4,22.4c1.2,0.2,2.3,0.4,3.4,0.6
			C1500.9,946.5,1500.7,938.8,1499.4,931z"/>
		<path class="st3" d="M1498.5,896.6c-0.3-0.5-1.1-0.2-1,0.4c3,9.6,6.3,19.1,7.6,29.2c1.2,9.8,0.4,19.3,0,29.1
			c1.6,0.3,2.9,0.6,4,0.9c1.5-9.7,0.3-20-1.3-29.6C1506,916.2,1503.6,905.8,1498.5,896.6z"/>
	</g>
	<g id="_x32_3_x5F_Hair_x5F_SidePartBangsWavytMed_x5F_front_x5F_Main_Asset_1_">
		<path class="st0" d="M1381.8,682.2c-4.5,2.5-13.6,7.5-37.3,11.2c-23.7,3.8-43.9-4-56.7-30s-11.5-33.9-3.2-62.8
			c8.2-28.9,3.2-70.1,5.4-96.9c1.3-16.8,3.1-12.3,0-31s-6-39.5-18.3-68.2s-9-29.1-32.2-67.8c-20.8-34.8-42.1-45.3-42.1-45.3
			c0.9,24.3-1,34.5-1,34.5s-52.1-36.9-91.5-51s-89.8-15.8-89.8-15.8c3-8.5,18.8-24.7,18.8-24.7c-20.7-1.4-73.8-6.1-132.3,17.7
			s-80.4,36.6-92,50.5s-12.9,17.8-12.9,17.8s-8.9,4.8-23.4,17.4s-59.1,47.8-88.8,71.5s-53,42.2-53,42.2s-28.4,5.9-35.9-17.9
			s-4.2-40.1-4.2-40.1c-24.7,33.7-47.1,66.3-54.6,113.3s-3.5,76-3.5,76c11,55.1,22.2,95,31,107.9s9,28.1,3,55.9
			s-23.8,51.9-61.8,93.1s-63.8,63.3-78,91.4s-29.2,65.2-21.8,108.8s24.4,75.4,51.2,104s75.5,30.4,114.8,38.5s60.8,32.4,59.5,51
			S617.6,1261,605,1282s-13.4,38,3.8,54.5s22.5,10.1,18,8s-11-6-15.8-17.2s-0.5-30.5,10.2-43.8s30.1-28.5,30.1-28.5
			c6.8-35.1,27.6-56.1,27.6-56.1c3.8-24.9-14.8-59.8-32.4-75.1s-54.8-38.2-64.5-58.5s-10.5-50.5-3.2-68.5s26.9-48.6,64.5-82.8
			s68.5-49.5,96.8-69.4s30.4-47.1,28.8-68.3s-8.9-38.4-28.5-65.8S708,661,701.5,640s-5.2-30,5.8-49s19.2-32.4,57-74.8
			s46-66.6,54.8-89.2s6-60,6-60c18,48.7,56.1,89.5,77.5,111.8s59.1,43,101.5,57s66.2,8,104,7.2s56.5-9.4,78.5,13
			s22.9,45.1,28.2,71.5s13.6,44.6,33.8,67.5s62.4,27.8,88.8,21.9s47.4-29.1,49-37.2C1386.2,679.8,1386.2,679.8,1381.8,682.2z
			 M538.2,861.7c-1.5-0.3-1.5-5.5,0-9.4s9.8-16.3,22.2-22.6s48.4-17.4,57.7-18.3s9.5,2.6,9.1,6s-3,5.4-13.4,8.7
			s-29.9,10.8-47.3,23.7C549.2,862.6,541.6,862.4,538.2,861.7z M659.2,872.3c-0.2,2.4-2.8,2.6-17,12s-27.9,21.5-44.5,41.5
			s-22.3,22.7-26,20c-5.8-4.2-3.9-10.5,0.7-18.7c4.6-8.2,18.7-26.3,35.3-36.3s45.1-27.7,48.8-26.8S659.4,869.9,659.2,872.3z"/>
	</g>
	<g id="_x32_3_x5F_Hair_x5F_SidePartBangsWavytMed_x5F_front_x5F_Highlights_1_">
		<path class="st2" d="M647.3,694.4c6.1,7.7,15.6,16.7,25.8,19.1c5.6,5.3,11.5,10.3,17.1,15.5c8,7.4,16,15.1,22.3,24
			c6,8.6,9.4,17.9,13.2,27.6c0.7,6.6,0.5,13.2-0.4,19.1c-2.5,15.5-8.4,31.6-17.7,44.3c-1.2,1.7,1.3,3.1,2.6,2
			c6.5-5.1,9.5-14,12.5-21.4c3.5-8.7,6.4-17.7,7.5-27.1c1-8.2,0.6-16.6-1.8-24.6c-0.5-1.5-1-3-1.7-4.4
			c-3.5-11.1-11.3-21.3-18.5-29.6c-11.9-13.7-26.8-24.2-39.1-37.5c-25.8-28-21.5-67.8-9.1-100.9c3.7-9.7,7.8-19.3,12.1-28.7
			c4.2-9.3,9-18.4,15.7-26.1c0.8-0.9-0.4-2-1.2-1.2c-13.1,11-19.1,28.8-25.5,44.1c-7.1,16.9-13.7,34.5-15.4,52.9
			c-1.4,16.4,0.6,33.4,8.2,48.1c2.7,5.2,6.1,9.9,10,14.3c-0.3-0.2-0.7-0.4-1-0.7c-4.9-3.4-9.3-7.7-13-12.4
			c-8-10.4-12.5-23.2-13.6-36.2c-2.2-26.6,4.2-53.7,18.8-75.9c0.3-0.5-0.4-1.1-0.8-0.6c-18,22.1-24.7,53.3-21.3,81.4
			C634.7,672.2,639.4,684.3,647.3,694.4z"/>
		<path class="st2" d="M661,510c-5.9,7.6-11.8,15.2-15.9,23.9c-0.2,0.5,0.4,1.1,0.8,0.6c5.5-7,10.3-14.4,15.9-21.3
			c5.5-6.9,11.8-13.4,17.8-19.9c12.3-13.2,25.5-25.3,38.5-37.8c25.3-24.3,50-50.6,66.3-81.9c8.6-16.6,14.3-34.1,15.7-52.8
			c0.1-0.9-1.5-1.2-1.6-0.2c-10,72.6-72.6,117.4-119.1,167.5C672.8,495.1,666.8,502.4,661,510z"/>
		<path class="st2" d="M818.2,320.7c26.3,19.4,45,32.1,76.2,42.8c17.1,5.9,35.5,7.9,53.2,11c18.5,3.3,37.2,5.8,55.7,9
			c10.2,1.8,20.5,3.6,30.8,5.1c10.2,1.4,20.2,2.1,30.4,3c0.9,0.1,0.9-1.3,0-1.4c-9.5-1.1-19.1-3.1-28.5-4.7
			c-9-1.5-17.9-3.1-26.8-4.7c-17.8-3.2-35.4-7-53.2-10.3c-17.5-3.2-35.3-5.6-52.6-10.2c-16-4.2-31.3-10.6-45.8-18.5
			c-16.2-8.8-27.1-15.6-41.9-26.6C814.3,314.2,816.9,319.7,818.2,320.7z"/>
		<path class="st2" d="M1084,519.4c0.2,0,0.2-0.2,0-0.3c-1.4-0.1-2.8-0.2-4.2-0.6c-0.2-0.1-0.3,0.3-0.1,0.3
			C1081.1,519.2,1082.6,519.5,1084,519.4z"/>
		<path class="st2" d="M872.1,383.9c24.2,17.9,51.2,32.6,79.5,42.7c17.9,6.4,35.9,11,54.6,14.3c1.3,0.2,1.9-1.8,0.6-2.1
			c-59.8-13.2-114.5-38.5-159.2-80.6c-4.4-4.2-9.1-8.3-13.5-12.7c3.6,6.8,10.4,12.6,15.2,18.5C857.5,371.7,862.9,377.1,872.1,383.9z
			"/>
		<path class="st2" d="M876.1,367.5c-5-4.2-10.9-7.6-16.3-11.2c-5.7-3.8-11.2-7.7-16.6-11.9c-7.7-5.9-14.8-12.5-22.1-18.9
			c1.7,3.9,5.8,8.1,8.3,11.5c4.2,3.4,6.6,6,10.8,9.2c10.8,8.2,22.5,17.8,35.2,22.8C876.1,369.3,876.8,368.1,876.1,367.5z"/>
		<path class="st2" d="M1132.2,512c-11.1-0.5-25.7-2.7-36.8-4c-11.9-1.3-23.4-2.1-35.2-4c-22-3.5-44.1-8.6-65.3-15.3
			c-38.6-12.3-73.1-26.7-104.7-54.2c-9.8-8.5-21.7-20.3-30.7-29.5c-3.7-4.6-7.3-9.3-10.6-14.3c-10.2-15.2-20.4-34.3-27.9-50.9
			c26.3,40.5,63.9,78.4,106.2,102c6.7,3.8,13.6,7.3,20.6,10.6c6.9,3.3,14.3,7.3,21.8,8.8c1.2,0.2,2-1.4,0.9-2.1
			c-5.8-3.7-12.5-6-18.6-9c-6-2.9-11.8-6.1-17.6-9.5c-11.7-6.8-23.2-14.3-34-22.4c-21.9-16.4-42.2-35.6-59.1-57.1
			c-3.8-4.8-7.3-9.6-10.7-14.6c1.5,1.7-14.7-19.5-22.3-28.5c0.1,0.1,0.1,0.2,0.2,0.3c0.5,0.6,1.1,1.2,1.6,1.9l0,0
			c-0.4-0.2-0.9-0.2-1.4-0.1c0-0.1,0-0.2,0-0.3c-0.1-1.3-1.9-1.7-2.3-0.3c-0.1,0.5-0.3,1-0.4,1.5c-0.7,0.1-1.4,0.7-1.4,1.6
			c0,1.4,0,2.8,0.1,4.1c-1.4,7.6-2,15.4-3.3,23c-1.8,9.6-4.2,19.2-7,28.6c-5.2,17.9-13.5,33.3-24.2,48.5c-1,1.4,1.2,3.1,2.4,1.8
			c12.3-13.1,20-30.6,25.8-47.5c3.4-9.8,5.3-20.1,7.1-30.3c0.1-0.7,0.2-1.3,0.3-2c-0.1,2.7-0.2,5.4-0.4,8.1
			c-0.5,5.8-1.3,11.7-2.4,17.4c-1,5.2-5.8,12.2-5.3,17.5c0.1,0.6,4.3-5.4,4.7-6c3.6-6.7,4.1-8.4,5.3-13.3c1.4-5.8,2.6-8.2,3.2-14.1
			c1-10.5,1.5-12-2.6-26.2c0-0.4,1.6,0.1,1.6-0.3c4.9,14.1,5.1,20.8,5.9,35.7c0.8,15.7,1,30.9-2.8,46.3
			c-7.3,29.7-25.1,55.3-44.7,78.3c-5.8,6.8-11.7,13.4-17.6,20c-4,4.4-8.5,9.1-12.2,14c-4.7,5.2-9.3,10.4-13.6,15.9
			c-9.2,11.9-16.9,24.7-22.7,38.6c-6.1,14.6-10.7,30.6-11.2,46.5c-0.5,15.7,5.3,31,12.9,44.5c4.3,7.6,9.3,14.8,14.5,21.8
			c2.7,3.6,5.5,7.5,8.5,11.2c6.1,8.5,12.5,16.8,18,25.7c9.1,14.8,13.9,33,16.1,50.2c2.2,17.1-0.6,33.1-9.8,47.8
			c-0.2,0.4-0.5,0.7-0.7,1.1c1.4-3.5,2.6-7.2,3.5-11c7.6-28.9,1.5-60.3-16.8-84.1C726.5,721,714,709.2,704.2,695
			c-8-11.6-14.7-23.7-19.1-36.9c-1.8-7-2.9-14.2-3.3-21.3c-0.9-16.1,2.7-31.6,7.8-46.8c5-14.9,11.2-29.4,18.8-43.1
			c3.3-5.8,6.8-11.5,10.6-17.1c0.5,0,1-0.3,1.4-0.9c5.7-9,12.9-16.7,20.5-24.2c8.1-8,15.6-16.3,23-24.9
			c15.1-17.6,29.5-35.5,42.8-54.4c0.6-0.9-0.8-1.7-1.5-0.9c-14.1,19.5-30.7,37.2-46.7,55.1c-7.3,8.1-15,15.8-22.7,23.4
			c-6.1,6-11.9,12-16.2,19.3c-4.3,5.5-8.3,11.3-11.9,17.2c-8.5,14-15.5,28.9-21,44.3c-5.7,15.8-10.1,32.1-10,49
			c0.1,14.5,3.2,29.2,9.4,42.3c3.7,7.8,8.4,14.9,13.7,21.8c1.7,2.3,3.6,4.8,5.7,7.1c6.7,9,14.2,17.6,21.7,26.2
			c11,12.7,19,27.5,23.1,43.1c0.4,2,0.8,4,1.1,6.1c2.8,18.1,1,38.1-8.2,54.2c-9.9,17.2-29.9,27.7-47,36.6
			c-17.3,9-35.5,16.3-51.3,27.9c-17.2,12.5-28.7,29.2-41.4,45.8c-0.3,0.4,0.4,1,0.7,0.6c13.1-15.5,28-31.3,44.8-42.9
			c9.6-6.6,20-11.8,30.5-16.9c22.2-15.9,42-27.1,60.7-40.3c9.4-6.7,15.9-14.1,20.4-21.9c3.8-8.8,6-18.3,6.2-28.2
			c0.3-17.4-4.1-35.9-10.5-52.1c-6.5-16.2-18.1-29.4-28-43.5c-5.8-8.1-11.2-16.4-16.2-25.1c-4.3-7.4-8.8-15-12.1-22.9
			c-2.1-6.1-3.5-12.4-3.9-18.8c-0.9-15.5,3.8-31.6,9.3-46c5.3-13.9,12.7-26.9,21.6-38.8c4.2-5.6,8.5-11,12.9-16.3
			c4.7-4.2,9-9.3,13.1-13.9c5.6-6.1,11.1-12.3,16.5-18.6c10.3-12,20.1-24.4,28.5-37.9c7.8-12.6,14.3-26.1,18.4-40.4
			c4.4-15.3,5.1-31,3.9-46.8c-0.9-12-2-26.8-4.6-38.7c18.3,32.3,35.3,73.5,65.5,100c33.3,29.2,72.9,55.4,114.5,69.8
			c12.6,4.4,25.6,6.8,38.5,10.3c13.4,3.7,19.3,2.3,33,4.7c0.9,0.1,9.5-1.5,8.6-1.6c-11.1-1.3-23.5-1.2-34.8-4.4s-25-6.2-36.2-10
			c-22.2-7.6-43.1-19.1-64-29.8c-13.6-6.9-25.6-16.2-38-25.2c7.9,5.5,17.4,12.6,25.8,17.3c38.4,21.5,80.6,34.1,123.7,41.7
			c12.5,2.2,25.6,2.6,38.2,3.8c6.8,0.7,14.5,1.1,21.3,1.5c6.9,0.4,13.8,0.1,20.7,0.7C1133.3,513.7,1133.3,512,1132.2,512z"/>
		<path class="st2" d="M1260.8,685.7c-8.8-8.4-16-24.3-15.7-23.5c-4.3-6.9-8.1-19.2-10.3-26.9c-5-17.8-7-34.4-11.1-51.7
			c-2-8.5-5.5-18.1-7.9-26.5c-2.1-7.3-12.1-19.5-17.1-25.4c-1-1.2,4.4,7.2,5.1,8.5c9.8,16.9,10.8,35.2,14.5,54.1
			c3.6,18,6.8,37.5,14.5,54.3C1238.9,661.7,1248.8,675.5,1260.8,685.7z"/>
		<path class="st2" d="M1260.8,685.7c1.3,1.2,2.5,2.3,3.9,3.1C1263.4,687.8,1262.1,686.7,1260.8,685.7z"/>
		<path class="st2" d="M1194.3,485.4c10.6,12.5,16.9,27.8,21.3,43.4c4.6,16.2,9.4,32.9,12.8,49.4c3.7,17.5,7.7,34.5,11.6,52
			c1.8,7.9,6.2,19.1,8.8,26.8c5.6,11.7,27.7,38.4,35.9,33.7c-3.5-2.7-7.8-4.4-11.5-6.9c-4.5-3-7.1-6.1-10.7-10.1
			c-0.7-0.8-10.4-12.4-12.5-18.5c-2.9-8.5-5.2-17.3-7.1-26c-4.1-18.1-7-37.2-11.2-55.3c-7.2-31.1-12.1-66-33.8-91
			c-9.7-11.2-24.1-21.3-39.2-22.9c-1.9-0.2-2.2,2.8-0.4,3.2C1173,466.8,1184.4,473.7,1194.3,485.4z"/>
		<path class="st2" d="M1327.1,694L1327.1,694c0.3,0.1,0.5,0.1,0.6,0.1C1327.5,694.1,1327.3,694,1327.1,694z"/>
		<path class="st2" d="M1302.4,683.2c-5-1.8-9.6-4.4-13.2-8.7c-10.8-12.8-13.3-31.7-14.2-47.9c-1.9-34.2,7.6-67.4,11.3-101.2
			c1.8-16.5,1.7-34.2-5-49.6c-0.4-0.9-1.9-0.2-1.5,0.6c6.4,17.1,3.8,34.6,1.1,52.2c-2.7,17.6-6.1,35.2-8.6,52.8
			c-2.4,17.1-3.9,34.5-2.3,51.7c1.4,15.2,7.7,32.9,17.5,45.1c6.8,8.4,16.6,10.2,26.7,12.3C1310,688.9,1306,686.4,1302.4,683.2z"/>
		<path class="st2" d="M1300.6,526.9c-2.3,16.8-6,33.4-8,50.2c-0.1,0.8,0.2,0.7,0.6,0.2c0.9-1.7,1.8-3.4,2.7-4.9l0,0
			c5.3-17.2,5.7-18.9,8-36.7c0,0.1-0.1,0.1-0.2-0.1C1303.1,534.4,1300.6,526.9,1300.6,526.9z"/>
		<path class="st2" d="M868.7,280.2c-9.4,5.1-16.2,6.8-25.8,13.7c-2.8,1.5,19.3-5.9,16.5-4.3c-1.5,0.8,45-9.9,62-12
			c16.2-2,32.6-1.9,48.8-0.7c8.4,0.6,16.9,1.6,25.3,2.7c8.6,1.1,17.4,3.2,26.1,3.6c1.3,0.1,1.5-1.9,0.3-2.3
			c-8.6-2.5-18.1-3.4-27-4.7c-7.9-1.2-15.8-2.2-23.8-2.9c-17.2-1.6-34.5-1.8-51.6,0.4c-11.6,1.5-22.8,4.4-33.7,8.3
			c19.9-7.6,40.5-13.4,61.6-16.1c39.3-4.9,79.6-1.2,117.7,9.2c21.5,5.8,42.9,13.1,63.4,21.7c0.8,0.3,1.4-1.1,0.6-1.4
			c-67.1-29.9-144.5-47.1-216.6-27.2c0.9-0.4,1.7-0.9,2.5-1.3c0.2-0.1,0.3-0.3,0.4-0.5c17.9-5.3,36.1-9.1,54.8-10.2
			c0.2,0,0.2-0.3,0-0.3c-11.9-0.4-24.2,2.1-36,4.1c-12,2-22.8,4-34.3,7.8C889.2,271.3,878.7,274.8,868.7,280.2z"/>
		<path class="st2" d="M836.9,304.6C836.9,304.5,836.8,304.5,836.9,304.6c-0.6,0.2-1.2,0.5-1.8,0.8
			C835.7,305.1,836.3,304.8,836.9,304.6z"/>
		<path class="st2" d="M975.9,255c-0.6,0-0.6,0.9,0,0.9c1.3,0,2.6,0,4,0c0.6,0,0.6-1,0-1C978.5,254.9,977.2,254.9,975.9,255z"/>
		<path class="st2" d="M646.5,1123.8c-13.9-12.1-40-28.9-55.2-45.5c-1-0.7-1.9-1.3-2.9-2c-5.2-3.3-10.8-7.5-16.6-9.7
			c-0.7-0.3-1.1,0.7-0.7,1.2c4.2,4.5,9.8,8.1,14.6,12c4.6,3.7,9.4,7.1,14.2,10.6c10.4,7.5,20.3,15.6,30.1,23.8
			c11.8,9.9,22.3,20.7,30,33.4c-1.5-1.5-3-3-4.6-4.4c-6.9-6-14.4-11.7-22.1-16.6c-8.2-5.3-15.9-11.1-23.8-16.7
			c-0.6-0.4-1.1,0.5-0.7,0.9c5.3,6.3,13.1,10.6,19.5,15.6c7.5,5.7,14.7,12,21.6,18.4c6.8,6.2,12.6,13.1,17.1,21.3
			c4,7.4,6.1,16.4,11.1,23.1c0.3,0.4,0.8,0.7,1.3,0.8c-0.2-6.1-1.5-12.6-3.5-19.1c-0.6-1.3-1.3-2.5-1.9-3.7
			c-0.2-1.2-0.4-2.4-0.6-3.5C666.9,1147.6,656.6,1132.5,646.5,1123.8z"/>
	</g>
	<g id="_x32_3_x5F_Hair_x5F_SidePartBangsWavytMed_x5F_front_x5F_Shadows_1_">
		<path class="st4" d="M845,288.1c15.5-9.2,31.7-17,49.1-22.7c23.8-7.7,48.4-11.9,73.1-15.8c-2.2-1.7-3.8-3.6-5.1-5.8
			c-10.5,1.7-20.9,3.4-31.2,5.9c-14.6,3.5-28.8,8.1-42.6,14c-12.7,5.5-24.9,12.1-36.5,19.7C849.4,284.9,847.2,286.5,845,288.1z"/>
		<path class="st3" d="M418.5,973.8c-0.1,0.2-0.1,0.4-0.2,0.6C418.4,974.1,418.5,973.9,418.5,973.8
			C418.5,973.7,418.5,973.7,418.5,973.8z"/>
		<path class="st3" d="M829.2,374l0.1,0.1c-0.1-0.2-0.2-0.4-0.3-0.5C829.1,373.7,829.2,373.9,829.2,374z"/>
		<path class="st3" d="M1060.2,290.5c33.7,9.3,65,23.4,95,41.3s57.9,39,85,61.1c14.7,12,31.5,24.6,39.9,42c0.7,1.4,0.8,0.1,0.1-1.3
			c-7-15.1-18.8-27.1-31.3-37.7c-13.4-11.3-27.2-22.1-41.3-32.6c-28.3-21.1-58.4-41.1-90.8-55.4c-18.1-7.9-36.6-15.2-55.8-19.7
			C1059.3,287.8,1058.7,290.1,1060.2,290.5z"/>
		<path class="st3" d="M1233.7,362.9c1.8,2.4,3.6,4.7,5.4,7c-6.3-5.8-13.2-11-20.7-15.4c-1.1-0.6-2,1-1,1.7
			c14.4,10.7,26.8,22.3,38,36.4c12,15.1,14.8,19,24.9,35.4c0.8,1.3-1.5-5.5-2.3-6.8c-7.9-13-4.2-8.6-13.3-21.5
			c7.4,8.6,1.8,1.9,9.1,10.5c0.9,1-0.1-2.1-1-3.1c-18.2-21.6-22-26-38.8-48.8c-7.2-9.7-16.8-17-26.1-24.6c-3.8-3.1-7.7-6.2-11.5-9.4
			c-0.1,1.1-0.2,1.7-0.2,1.7s-2.7-1.9-7.2-4.9c5.1,4.9,10.5,9.6,16,14.3C1215.5,344,1225.6,351.9,1233.7,362.9z"/>
		<path class="st3" d="M1223.1,335.5c-7.6-10.6-16.5-20.3-25.6-29.9c0,1.6-0.1,3-0.1,4.4c8.2,8.7,16.5,17.4,24.5,26.4
			C1222.5,337.1,1223.7,336.2,1223.1,335.5z"/>
		<path class="st3" d="M1197.6,299c1.1,1.3,2.2,2.7,3.2,4.1c3.8,5.4,6.8,11.2,11.8,15.7c1.2,1.1,2.9-0.7,1.7-1.7
			c-5.6-5.2-8.7-12.2-13.4-18c-0.7-0.9-1.5-1.9-2.4-2.8c2.6,2.4,5.1,4.8,7.6,7.2c6.8,6.9,12.5,15.1,18,23.1
			c5.4,7.9,10.6,15.9,15.9,23.8c2.8,4.3,5.7,8.6,8.5,12.9c2.6,4,5,8.8,8.6,11.9c0.5,0.4,1.5,0,1.2-0.7c-1.5-4.6-4.9-8.5-7.5-12.6
			c-3-4.6-6-9.1-9-13.7c-5.5-8.4-11-16.9-16.8-25.2c-5.2-7.5-10.8-14.5-16.5-21.6c-3.2-4-7-8.1-11.1-11.6
			C1197.6,293,1197.6,296.1,1197.6,299z"/>
		<path class="st3" d="M1190.1,417.2c-24.6-7.7-47-22.8-65.9-40.1c-8.5-7.8-17-16-27.8-20.5c-11.7-4.9-23.8-4.1-35.8-1.1
			c-13.4,3.4-26.3,7.9-40.2,4.4c-12.6-3.1-23.5-10.6-33.7-18.4s-20.1-16.1-31.7-21.7c-11.5-5.6-23.8-8.5-36.4-10.5
			c-30.4-4.8-62.4-5.5-92.7,0.6c-1.3,0.3-0.7,2.2,0.5,2c29.3-4.3,58.4-5.5,87.8-0.9c13.1,2,26.5,5.1,38.6,10.9
			c11.4,5.5,21.1,13.5,31.1,21.2c9.5,7.3,19.6,14.4,31,18.3c11.2,3.8,22.3,3.3,33.7,0.5c13.3-3.4,26.4-8.1,40.3-4.8
			c13.3,3.2,23,12.4,32.7,21.6c9.5,9,19.7,16.8,31,23.6c11.8,7.1,24.2,11.8,37.2,16.2C1190.5,418.6,1190.8,417.4,1190.1,417.2z"/>
		<path class="st3" d="M980.2,396c29.6,4.6,59.6,6.7,89.4,9.7c28.6,2.8,58,5.4,85.8,13.1c13.1,3.6,26.5,8.1,38.2,15.1
			c12.1,7.3,22.5,16.2,31.6,26.9c0.7,0.8,2-0.2,1.4-1.1c-12.7-19.2-34.1-30.7-55.1-38.5c-25.1-9.3-52.3-13.8-78.8-16.9
			c-57.7-6.8-116.5-7.3-172.5-24.5c-29.1-8.9-56.8-21.8-80.5-41.2c-0.4-0.4-1.1,0.2-0.6,0.6C878.5,373.6,929.6,388.2,980.2,396z"/>
		<path class="st3" d="M1291.8,510.1c0.8,16.2-2.5,24.5-5.2,40.3c-2.7,15.6-5,31.2-6.6,46.9c-0.9,8.6-2.1,18.2-1.3,27.3
			c0.9-6.5,0.7-12.1,2.6-23.9c0.3-3.8,1.8-10.6,2.2-14.5c1.7-17.6,6-31.7,8.9-49.1c2.4-14.7,2.1-16.6,2.1-23.1L1291.8,510.1z"/>
		<path class="st3" d="M1303.6,535.7c-2,14.4-4.3,28.4-7.7,39.9c2.2-3.5,6.7-7.7,7.7-13.6C1306.3,546.7,1303.6,535.7,1303.6,535.7z"
			/>
		<path class="st3" d="M1340,708.6c-8.5,0.9-17,1.1-25.5,0.5c23,0.3,45-9.8,62.7-24.5c-3.3,1.5-8,3.4-14.9,5.2
			c-3.3,2.3-6.7,4.4-10.3,6.3c-13.2,6.9-26.6,9.6-41.4,8.6c-24.6-1.6-47.1-12-65.6-27.9c-0.8-0.9-1.5-1.8-2.3-2.7
			c-17.4-22.1-23.9-50.4-29.9-77.3c-2.8-12.2-4.8-25.3-10.4-36.6c-5.1-10.4-13.8-17.3-25-20.3c-8.2-2.2-16.8-2.7-25.3-2.5
			c-11.4-0.3-22.9,0.4-34.2,0.8c-30.9,1.2-62,2.2-92.4-4.7c-15.2-3.5-30.1-8.5-44.5-14.4c-5.5-2.3-11-4.5-16.5-6.9
			c-14.9-7.6-29.1-16.8-42.1-27.3c-10.1-8.1-19.4-17-28.9-25.8c-4.7-4.4-9-9-13.3-13.8c-5.2-6.3-10-12.7-14.8-19.3
			c5.6,6.1,11.4,11.9,17.5,17.4c33.2,29.8,73.5,53.4,115.7,68c12.8,4.4,25.7,7.6,39,9.6c6.4,1,12.8,2.4,19.3,2.6
			c7,0.2,14,1.5,20.9,1.2c1,0,1-1.5,0-1.6c-6.4-0.5-12.7,0.2-19-0.9c-5.7-1-11.5-1.5-17.2-2.7c-11.1-2.2-22.1-5.4-32.9-8.8
			c-22.5-7.3-44-17-64.4-28.9c-18.4-10.7-35.9-23-52.1-36.8c-15.9-13.5-31.4-28.3-44-45c-9.9-13.1-18.1-27.2-24.6-42.1
			c-0.9-3.3-1.6-6.7-2.1-10.1c-0.2-1.1-2-0.7-1.7,0.5c0,0.1,0.1,0.2,0.1,0.3c-1.3-3.5-2.6-7.1-3.7-10.8c-0.2-0.6-1.1-0.4-1,0.3
			c2,7.2,4.5,14.3,7.3,21.2c0.7,2.8,1.5,5.5,2.4,8.2c0-0.6-0.1-0.9-0.1-0.9c8.7,23.6,22.2,45.3,36.2,64c2.3,2.8,4.6,5.6,6.9,8.4
			c0.5,0.7,1.1,1.4,1.6,2.2c1.3,1.8,2.6,3.5,4,5.2c10.7,12.8,20.9,23.7,28.9,32c21.4,22.2,59.1,43,101.5,57s66.2,8,104,7.2
			s56.5-9.4,78.5,13s22.9,45.1,28.2,71.5s13.6,44.6,33.8,67.5s62.4,27.8,88.8,21.9c10.4-2.3,19.9-7.3,27.8-13
			C1356.7,705.8,1348.4,707.7,1340,708.6z M829.2,374c-0.1-0.1-0.1-0.3-0.2-0.4c0.1,0.2,0.2,0.4,0.3,0.5
			C829.3,374.1,829.2,374.1,829.2,374z"/>
		<path class="st3" d="M1307.9,687.4c0.6,0.8,1.3,1.5,1.9,2.3c2.1,2.5,4.3,4.8,6.8,6.6h-0.1c-0.9-0.2-1.8-0.5-2.6-0.7
			c-0.3-0.3-0.6-0.4-1-0.5c-0.5-0.1-0.9-0.2-1.4-0.3c-21-7.5-34.5-26.4-40.5-47.7c-7.4-26.3-8.4-55.2-7.3-82.3
			c0-0.9-1.5-1.2-1.7-0.2c-2.4,15.1-1.1,30.9-0.1,46.1c0.9,14,2.6,28.2,6.9,41.7c3.7,11.6,9.8,23.3,18.3,32.5
			c-5.2-3.7-9.7-8.5-13.5-14.5c-8.8-14.1-14.2-30.6-18.1-46.7c-4.1-17.3-5.8-35-5.4-52.8s2.3-35.5,2-53.3
			c-0.2-15.4-1.8-30.6-13-42.2c-0.6-0.6-1.5,0.3-0.9,0.9c11.9,11.1,11,32.2,10.8,47.2c-0.2,18.8-2.3,37.5-1.9,56.3
			c0.4,16.9,2.6,33.7,6.9,50.1c4.1,15.6,9.6,32.4,18.8,45.8c1.8,2.6,3.8,5.1,6.1,7.4c-5.7-3.6-11-7.9-15.5-13
			c-11.9-13.4-15.6-31.7-18.8-48.9c-3.5-18.7-5.8-37.7-8.3-56.6c-1.2-9.1-2.4-18.1-4-27.1c-0.6-3.5-1.4-7-2.2-10.5
			c-3.4-25-16.7-48.1-39.3-60.8c-33-18.6-72.9-16.7-109.3-14.3c-19,1.2-38.1,1.9-57.1,0c-16.5-1.6-32.9-4.9-48.8-9.6
			c-31.2-9.1-60.5-23.8-86.7-43c-21.6-15.8-40.4-34.2-56.3-55.2c1,1,2.1,2,3.1,3.1c10.1,10,20.7,19.2,32,27.8
			c11.4,8.6,23.5,16.3,36,23.2c6.1,3.3,12.4,6.2,18.8,9c6.5,2.8,13.1,6.1,19.9,8.1c0.7,0.2,1.2-0.9,0.5-1.2
			c-6.3-3.2-13.1-5.6-19.4-8.9c-5.8-3-11.6-6.3-17.3-9.6c-12.2-6.9-24-14.5-35.4-22.6c-11.5-8.2-22.6-17.1-33-26.7
			c-4.5-4.2-8.9-8.6-13.2-13.1c-3.6-5.3-7-10.7-10.2-16.3c-0.7-1.3-2.7-0.1-2,1.1c0.6,1,1.2,2.1,1.8,3.1c-1.7-1.9-3.5-3.8-5.4-5.3
			c-0.4-0.3-0.9,0.1-0.7,0.5c2.8,5.7,8.4,10.7,12.6,15.4c0.1,0.1,0.1,0.1,0.2,0.2c31.4,47.9,78.5,85.1,131.7,105.9
			c29.5,11.5,61,17.9,92.7,18.4c39.4,0.7,80-7.8,118.7,2.9c19.4,5.3,38,15.6,49.4,32.7c7.1,10.7,11.5,22.8,13.8,35.4
			c0.5,4.4,1.1,8.8,1.7,13.1c0,0.2,0.1,0.5,0.1,0.7c0.1,1.5,0.2,2.9,0.3,4.4c0,0.3,0.2,0.5,0.4,0.6c1.2,8.7,2.4,17.5,3.6,26.2
			c2.6,19.5,5.3,39,9.3,58.3c3.6,16.8,8.9,33.2,21.7,45.4c6.2,5.9,13.8,10.6,21.4,14.3c1.4,0.7,2.8,1.3,4.2,2
			c3.9,2.4,8.1,4.3,12.5,5.6c-17.9-2.3-36.4-9.2-46.4-25.1c-11.1-17.7-16.1-39.9-20.8-60c-4.6-19.9-7.8-40.6-15.1-59.8
			c-3.1-8-7.2-15.8-13-22.2c-14.7-19.4-42.5-24.6-65.1-28.2c-32.2-5.2-64.9-7.2-97.2-11.5c-30.4-4-61.3-9.5-89.9-20.7
			c-27.5-10.8-52.4-27.2-73.2-48.1c-22.5-22.6-39.7-49.1-56.8-75.8c-0.3-0.5-1-0.1-0.7,0.4c12.3,24.5,28.4,47.4,46.8,67.8
			c18.4,20.2,39.7,38.2,64.2,50.5c56.4,28.4,120,29.6,181.4,37.1c22.7,2.8,47.8,5.3,68.6,15.6c6.9,3.8,13.4,8.3,18.6,14.1
			c6.8,7.5,10.9,17,14,26.6c6.8,21,10.3,42.9,15.5,64.3c4.7,19.5,9.9,42.2,22.9,58.1c11.5,14.1,31.9,21.3,49.5,23.1
			c18.9,2,38.2-2.1,53.4-13.5c-4.2,1-9.2,2-15,3C1330.9,695.6,1318.5,694,1307.9,687.4z"/>
		<path class="st3" d="M861.7,335.8c11.4,5.6,22.7,11.1,34.1,16.4c0.3,0.1,0.5-0.3,0.3-0.4c-10.8-6.7-21.8-12.6-33.5-17.7
			c-5.8-2.5-11.6-5-17.4-7.5c-5.7-2.4-11.7-5.5-17.7-6.8c-0.5-0.1-0.9,0.6-0.4,0.9c4.9,2.9,10.6,4.5,15.8,6.7
			C849.3,330,855.6,332.8,861.7,335.8z"/>
		<path class="st3" d="M811.8,312.7c-0.6-0.1-1.1,0.8-0.5,1.1c2.1,1,4.5,1.5,6.9,1.9c30,13,62.9,16,93.7,26.5
			c0.3,0.1,0.5-0.4,0.2-0.5c-14.9-6.7-30.3-10.4-46.3-14c-14.2-3.2-28.6-6.1-42.4-10.9c2.5,0.6,5,1,7.7,1.2
			c7.9,0.7,15.8,0.3,23.8,0.3c7.7-0.1,15.3-0.1,23,0.8c8.2,0.9,15.5,3.3,23.2,6.1c0.8,0.3,1.2-0.9,0.6-1.3
			c-11.9-7.4-27.8-7.8-41.4-7.7c-7.9,0.1-15.8,0.4-23.7,0.1c-3.6-0.1-7.3-0.4-10.9-0.7c-2.3-0.2-4.7-0.2-7-0.7
			C816.3,314.2,814.2,313.1,811.8,312.7z"/>
		<path class="st3" d="M808.7,315.3c2.2-2.7,3.4-6.1,5.2-9c2.2-3.6,4.7-6.9,7.4-10.1c2.8-3.4,5.7-6.7,8.4-10.2
			c-5,3.1-9.1,6.1-12.5,8.9c0,0.1-0.1,0.1-0.1,0.2c-3.8,5.3-9.5,12.8-9.4,19.7C807.7,315.4,808.4,315.8,808.7,315.3z"/>
		<path class="st3" d="M878.9,261.7c-9.8,4.2-18.2,8-25.5,11.6c-2.5,1.9-4.9,3.8-7.3,5.7c-11.3,9.2-23.3,18.9-31.9,30.8
			c-0.1,0.2-0.2,0.4-0.2,0.5c-0.1,0.2,0,0.4,0.1,0.5c0.3,0.4,1.1,0.6,1.6,0.2c0.7-0.5,1.3-1.1,2-1.6c3.3-1.5,6.5-3.5,9.8-5.1
			c5.7-2.7,11.5-5,17.5-7.1c10.7-3.7,22.1-5,32.8-8.7c0.9-0.3,0.8-1.9-0.2-1.8c-11.4,0.6-23.4,4.6-34.1,8.2
			c-3.6,1.2-7.4,2.6-11.3,4.1c20.7-12.2,41.6-23.7,64.7-31c24.4-7.7,49.7-11.8,75-15.7c8.4,4.1,22,6.1,43.2,6.8
			c3-8.5,18.8-24.7,18.8-24.7c-13.5-0.9-40.7-3.2-74.3,1.9c0.2,1.3,0.5,2.5,0.9,3.6c-25,4-50.2,10.5-73.3,20.3
			c-8.1,3.5-16,7.4-23.7,11.7c1.1-0.8,2.2-1.5,3.3-2.3C870.6,267.1,875,264.6,878.9,261.7z M888.2,263.8c13.8-5.9,28-10.5,42.6-14
			c10.3-2.5,20.8-4.2,31.2-5.9c1.3,2.2,2.9,4.2,5.1,5.8c-24.6,3.8-49.3,8.1-73.1,15.8c-17.5,5.6-33.6,13.5-49.1,22.7
			c2.2-1.6,4.5-3.1,6.8-4.6C863.3,275.9,875.5,269.3,888.2,263.8z"/>
		<path class="st3" d="M509.4,921.4c8-3.8,15.3-9.9,22.6-14.9c6.9-4.7,13.8-9.6,20.7-14.4c14.3-10,28.6-20,42.8-30.1
			c13.3-9.5,26.6-18.9,39.3-29.2c11.1-8.9,24.3-19.2,31-32.1c0.3-0.5-0.4-1.1-0.8-0.7c-5.6,5.3-10.5,11.2-16.2,16.4
			c-6,5.6-12.4,10.6-19,15.4c-13.1,9.7-26.3,19.2-39.6,28.6c-13.7,9.8-27.4,19.4-41.2,29.1c-6.9,4.8-13.8,9.7-20.5,14.7
			s-14.3,9.6-20.2,15.7C507.6,920.7,508.5,921.8,509.4,921.4z"/>
		<path class="st3" d="M624.5,1171.9c-17.4-14.1-36.6-26.1-57-35.5c-10.4-4.8-21.2-8.6-31.2-14.1c-8.6-4.8-16.5-10.8-23.3-17.9
			c-7.9-8.1-14.5-17.5-19.5-27.8c-5.1-10.4-7.7-21.2-10-32.4c-0.2-1-1.8-0.8-1.7,0.2c0.4,17.9,8.4,36.3,18.6,50.7
			c10.6,15,25.1,26.8,41.7,34.6c10.3,4.8,21,8.8,31.3,13.9c10,5,19.6,10.6,28.8,16.8c18.1,12.1,39.7,27.2,46.9,48.8
			c4.5,13.5,1.3,25.9-5.2,38c-5,9.4-10.5,18.5-15.4,28c4.1-4.2,8.5-8.2,12.3-11.6c2-3.6,4-7.1,6-10.7c5.2-9.3,10.1-19.1,9.9-30
			C656.4,1201.6,640.2,1184.6,624.5,1171.9z"/>
		<path class="st3" d="M686.1,740.5c-13.7-8.5-25.7-19.4-35.9-31.9c-11.7-14.1-21.5-30.2-22.5-48.9c-0.4-6.1-0.2-12.3,0.4-18.5
			c2.2-8.4,3.9-16.9,6.7-25.2c3.5-10.5,7.8-20.8,12.8-30.7c10.1-20.1,23-38.7,37.5-55.9c14.3-17,30.1-32.8,46.2-48.1
			c16.2-15.3,32.4-30.5,46.1-48.2c2.2-2.9,4.3-5.8,6.4-8.8c1.1-1.5,2.2-2.9,3.2-4.4c6.5-9,12.9-18.2,17.9-28.1
			c9.6-19.1,13.1-39.4,5.1-59.7c-0.3-0.9-1.8-0.5-1.4,0.4c5.8,16,2.5,33.9-4.1,49.6c-3.1,6-6.1,12.1-9.4,18
			c-0.4,0.8-0.9,1.5-1.3,2.3c-5.4,8.7-11.5,16.9-17.3,25.3c-13.9,18.1-30.7,33.2-47.4,48.8c-32.3,30.1-63.3,62.9-84,102.3
			c-5.5,10.5-10.3,21.4-13.8,32.6c-1.1,3.6-2.2,7.3-3.3,11.1c-2,7-3.4,14.1-4.2,21.5c-1.8,17.9,0.8,33.9,10.1,49.4
			c8,13.2,18,25.1,29.6,35.3c5.6,4.9,11.6,9.5,17.9,13.6c7.1,4.7,14.8,8.4,21.8,13.2s13.1,10.9,15.8,18.9c1.2,5.3,0.8,10.8-0.8,16.1
			c-2.3,5.2-6,10-8.7,15.2c-0.3,0.6-0.2,1.1,0.2,1.5c-4.1,5.8-8.9,11.1-13.3,15.3c-14.7,14.1-32.5,24.3-49.7,34.9
			c-36.5,22.5-72.9,46.8-100.6,80.1c-6.8,8.2-13.1,16.9-18.6,26c-3.8,6.3-8.1,13.4-10.6,20.8c-3.8,7.7-7.1,15.7-9.2,24
			c-5.6,21.4-4.4,44.4,7.6,63.4c11.7,18.4,30.3,30.6,49.2,40.5c21.4,11.2,43.3,21.1,63.2,35c20.4,14.4,38,32.9,47.3,56.3
			c1.5-1.9,2.7-3.3,3.4-4c-16.3-37.9-52.3-62.2-87.9-80.5c-20.4-10.5-41.8-19.8-58.5-35.8c-17.3-16.5-24.8-38-21.7-61.7
			c1.4-10.8,4.8-21.3,9.2-31.3c3.3-5.3,5.9-11.2,8.7-16.9c2.7-4.6,5.4-9.2,8-13.8c4.5-6.8,9.4-13.4,14.7-19.6
			c14.1-16.7,30.5-31.3,48-44.3c18.5-13.8,38.1-26.1,57.8-38.1c17-10.4,34.2-21.2,47.9-35.9c7.9-8.5,15.7-19.7,18-31.2
			c2.3-7,2.5-14.5-0.7-21.3C714.7,754.6,698.9,748.5,686.1,740.5z"/>
		<path class="st3" d="M605,1282c-12,20-13.3,36.3,1.3,52c-0.8-6.7-1.4-15.4-1.1-25.8c0.8-27,21.8-46.1,31.4-64.8
			c9.6-18.7,10.5-30.2-6.1-52.3c-14.5-19.4-46.9-30.5-85.1-40.4c-4.2-2.5-8.3-5.2-12.3-8.2c-9.5-7.2-18.1-15.6-25.7-24.8
			c-7.5-9-13.8-19-18.9-29.6c-3.2-6.6-5.9-13.3-8.7-20.1c-2.5-6.1-4.7-12.9-8.2-18.5c-0.4-0.7-1.5-0.2-1.3,0.6
			c1.5,7.2,5,14.5,7.7,21.3c2.5,6.4,4.9,12.8,7.8,19.1c5,10.9,11.5,21.1,18.8,30.6c7.2,9.4,15.7,17.9,24.8,25.4h-0.1
			c-1.6-0.4-3.2-0.8-4.7-1.2c-1.9-1.8-3.8-3.5-5.7-5.4c-9.9-9.8-18.9-20.5-26.6-32.2c-7.6-11.4-14.2-23.6-19.4-36.3
			c-2.5-6.2-4.7-12.6-6.5-19c-1.9-6.6-3-13.7-5.4-20.1c-0.2-0.6-1.1-0.5-1.1,0.2c-0.1,6.5,1.8,13.7,3.4,20c1.8,7,4.1,13.8,6.6,20.5
			c5,13.2,11.2,25.8,18.9,37.6c7.4,11.5,15.9,22.2,25.4,32c-2.3-0.6-4.4-1.1-6.6-1.7c-1.8-1.6-3.7-3.3-5.4-5.1
			c-6.7-6.8-12.2-15.1-16.7-23.5c-0.7-1.3-2.7-0.1-1.9,1.1c5.1,8,9.4,16.4,14.8,24.2c0.2,0.3,0.4,0.6,0.6,0.9
			c-5.1-1.4-9.8-2.9-14.1-4.4c-0.6-0.6-1.2-1.1-1.9-1.7c-5.5-5.2-10.3-11.1-14.4-17.4c-7.9-12.2-13.2-25.6-16-39.9
			c-6.5-32.4-0.5-66.7,11.3-97.3c6.5-16.9,15.5-32.1,24.8-47.6c0.5-0.9-0.8-1.9-1.4-1.1c-20,25-32.2,57.6-38.3,88.7
			c-6.2,31.7-4.1,65.6,11.3,94.4c3,5.7,6.7,11,10.8,16c-10.4-5.2-18.3-11.8-24.9-21.4c-5.7-8.2-13.4-21.9-19.9-38.6
			c-2-12.8-2.4-25.8-1.2-38.8c1.3-13.4,4.2-26.7,8.2-39.5c0.8-2.7,1.8-5.3,2.7-8c16.4-34.2,36.7-66.2,62.6-94.2
			c12.4-13.4,25.9-25.6,40-37.2c2.5-4.9,10.4-15.6,21.6-21.3c2.8-1.4,6.7-3.1,11.3-4.8c9.1-7.3,18.1-14.8,26.6-22.8
			c15.2-14.3,30.1-34.9,21.4-56.7c-0.5-1.3-2.7-0.8-2.1,0.6c8.8,22.8-9.9,42.3-25.5,56.3c-16.3,14.7-33.9,27.8-51.1,41.5
			c-31.6,25.2-59.4,54.2-81.7,88.1c-4.7,7.2-9.2,14.6-13.4,22.2c-3.7,4.5-6.2,10.4-8.8,15.5c-3,6-5.6,12.3-7.9,18.7
			c-4.8,13.5-8,27.4-9.4,41.6c-0.5,5.2-0.8,10.5-0.8,15.7c-1.9-7.3-3.3-14.9-4.2-22.6c0.1-2.1,0.3-4.2,0.5-6.3
			c1.7-16.7,5.9-33.1,11.4-48.9c5.7-16.1,13-31.9,21.5-46.9c10.3-14.7,21.9-28.5,34.8-41c30.3-29.4,68.3-49.8,97.3-80.7
			c7.4-7.9,14.3-16.4,19.9-25.7c5.5-9.2,10.1-19.1,8.8-30.1c-0.2-1.3-2.2-1.4-2.1,0c1,11.3-5.5,21.3-11.5,30.2
			c-4.5,6.7-9.7,13-15.2,18.9c4.9-6.2,8.3-12.1,9.9-17.7c2.7-9.9,3.3-18.1,1.7-26.3c0.1-0.2,0.2-0.5,0.2-0.7c0-12.1-6-24.9-12.1-35
			c-3.5-5.8-7-11.6-9.4-18c-2.3-6.3-3.8-12.9-5.1-19.5c-2.7-13.6-4.9-27.4-5.5-41.3c-0.3-6.7-0.2-13.4,0.2-20
			c0.4-7.6,2.4-14.7,4.1-22c0.3-1.1-1.3-1.5-1.7-0.5c-9.3,25.6-5.2,55-1,81.2c0.7,4.4,1.6,8.8,2.6,13.1c-0.8-1.6-1.5-3.1-2.2-4.7
			c-3.4-7.4-6.6-15-9.6-22.6c-0.6-1.5-1.2-3.1-1.9-4.6c-0.6-2.6-1.1-5.2-1.5-7.9c-1.8-13.8,0.8-29.1,3.4-42.6
			c2.4-12.3,4.5-27.2,13.7-36.5c1.4-1.4-0.8-3.5-2.1-2.1c-8.8,9-11.5,22.1-14,34.1c-2.7,12.8-5.2,26.3-5.4,39.5
			c-3-8.7-5.1-17.7-5.2-26.8c-0.1-20.9,6.8-40.9,15.6-60c3.5-5.9,7.4-11.6,11.6-17.2c6.5-8.7,12.9-17.4,20.1-26.8
			c0.1-0.1,0.2-0.3,0.4-0.4c6.7-7.3,13.7-14.4,20.8-21.3c14.6-14,29.9-27.2,45.7-39.9c31.7-25.6,64.6-49.5,96.2-75.2
			c8.6-7,17.2-14.2,25.4-21.7c3.2-2.9,6.5-5.9,9.6-8.9c-5.3,7.2-11.3,13.8-17.5,20.4c-11.5,12.2-23.3,24.1-35.4,35.7
			c-24.2,23.3-49.3,45.6-74,68.3c-14.1,13-28.8,25.9-41.5,40.2c-1.1,1.3,0.6,3,1.9,1.9c12.8-11.2,24.9-23.5,37.4-35.1
			s25.2-23.1,37.9-34.6c16.9-15.4,33.7-30.9,50.1-46.9c-3.2,3.5-6.3,7-9.5,10.5c-3.1,3.5-6.8,6.9-8.9,11.1c-0.5,1,0.6,2.4,1.7,1.7
			c3.9-2.6,6.9-6.5,10.1-10c3.8-4.2,7.5-8.3,11.3-12.5c7.3-8.1,14.6-16.2,21.9-24.3c4.4-4.9,9.4-10.2,13.9-15.8
			c-8.5,15.3-18.5,29.7-30.2,43.2c-18.2,20.9-39,39.3-60,57.3c-22.2,19-44.7,37.6-65.1,58.5c-17.1,17.5-30.3,37.9-40.5,60
			c-2.5,5.4-4.9,10.9-7.2,16.5c-9.6,19.9-15.3,42.7-15.7,64.6c-0.2,12.1,2.1,23.8,6.9,34.9c2.6,5.9,5.6,11.6,8.7,17.2
			c2.8,5,5.5,11.1,9.5,15.2c0.6,0.6,1.8,0,1.5-0.9c-1.7-5-5.3-9.5-7.9-14.1c-3.1-5.5-5.9-11.2-8.2-17.1c-4.4-11.7-5.9-23.7-5.8-36.2
			c0-1.8,0.1-3.5,0.2-5.2c8.5-46.9,25.5-94.3,58.8-129.5c38.7-41.1,86.3-72.9,123.9-115.1c18.7-20.9,36.1-45,45-71.8
			c0.8,8.7-2.5,18-4.8,26.2c-2.6,9.1-5.7,18.1-9,27c-3.4,9-6.9,18-10.9,26.8c-1.9,4.2-3.9,8.3-5.9,12.4c-1.9,3.9-4.4,7.7-5.5,11.9
			c-0.3,1,1,1.8,1.7,1c3.1-3.4,5-8,7.1-12.1c2.2-4.4,4.4-8.8,6.4-13.2c4.1-9,7.9-18.3,11.2-27.7c3.3-9.5,6-19.3,8.5-29.1
			c1.9-7.7,6.4-18.1,3.2-26c-0.4-1-1.5-1-2-0.3c0,0-0.1,0-0.1-0.1c0.2-0.3,0.3-0.7,0.5-1c0.1-0.3,0.2-0.6,0.1-0.9
			c0.6-1.3-0.9-2.3-1.9-1.7c-0.7,0.1-1.5,0.3-2.2,0.5c-2.8,1.8-7.8,5.2-14.5,10.6l0,0c3.9-2,8.8-3.9,12.9-6.4
			c-2.6,2.4-5.5,4.6-8.1,6.8c-3.8,3.2-7.6,6.3-11.5,9.4c-8.6,6.9-17.5,13.5-26.6,19.7c-5.2,3.6-10.5,7.1-15.8,10.6
			c-9.1,7.2-18.5,14.8-27.6,22c16.1-10.5,32-21.4,47.6-32.7c8.3-6.1,16.6-12.2,24.6-18.6c4-3.2,8.2-6.4,12.1-9.9
			c-10.7,12.1-24.7,21.9-37,31.8c-16,12.8-32.4,25.1-48.7,37.4c-28.9,21.7-57.9,43.3-84.8,67.4c5.3-6.4,11.2-13.2,17.7-20.6
			c-1.8,1.4-2.8,2.2-2.8,2.2s-28.4,5.9-35.9-17.9s-4.2-40.1-4.2-40.1c-24.7,33.7-47.1,66.3-54.6,113.3s-3.5,76-3.5,76
			c8.1,55.5,52.2,119.5,34,163.8c-10.8,26.3-23.8,51.9-61.8,93.1s-63.8,63.3-78,91.4s-29.2,65.2-21.8,108.8s24.4,75.4,51.2,104
			s75.5,30.4,114.8,38.5s60.8,32.4,59.5,51S617.6,1261,605,1282z M418.5,973.8C418.5,973.7,418.5,973.7,418.5,973.8
			c0,0.2-0.1,0.4-0.2,0.6C418.4,974.1,418.4,974,418.5,973.8z"/>
		<path class="st3" d="M516.8,891.2c9.7-9.2,19.7-18.1,30-26.6c4.4-3.6,8.8-7,13.3-10.5c-6.6,4.3-11.5,6.4-15,7.3
			c-10.5,8.8-20.6,18.1-30.4,27.7c-10,9.8-19.5,19.9-28.7,30.4c-8.6,9.8-18.7,20.1-24.9,31.6c-0.2,0.5,0.3,0.9,0.7,0.6
			c5-4.8,9.1-10.6,13.5-15.9c4.3-5.1,8.6-10.2,13.1-15.2C497.5,910.5,507,900.6,516.8,891.2z"/>
	</g>
</g>
</svg>
