<?xml version="1.0" encoding="utf-8"?>
<!-- Generator: Adobe Illustrator 23.0.1, SVG Export Plug-In . SVG Version: 6.00 Build 0)  -->
<svg version="1.1" id="_x30_3_x5F_Top_x5F_BiznessSuit_x5F_JacketShirtTie"
	 xmlns="http://www.w3.org/2000/svg" xmlns:xlink="http://www.w3.org/1999/xlink" x="0px" y="0px" viewBox="0 0 2000 2000"
	 enable-background="new 0 0 2000 2000" xml:space="preserve">
<g>
	<polygon fill="#A3A7AC" points="1355,1080 1356.5,1088.5 1365.5,1123.5 1385,1155 1423,1192.5 1445.5,1212 1420.5,1245 
		1378,1209.5 1356.5,1146.5 1348,1112 1349,1083.5 	"/>
	<path fill="#A3A7AC" d="M849.5,1467c1.5-1.5,29.5-17.5,29.5-17.5l55-26l66-8.5l12.5,8l3-10.5c0,0-56.5-71-58.5-71.5
		s-31.5-3.5-34-3.5s-41.5,11-45.5,14.5s-37,32-38,33.5s-29,41-29,41L839,1469L849.5,1467z"/>
	<polygon fill="#27272D" points="863,1460 864,1471 863.5,1478 850.7,1479.4 849.5,1467 	"/>
	<path fill="#27272D" d="M1452,1207c1.5-0.5,18.5-2,18.5-2l19-18.5l11-23.5l8,30.5c0,0-17.5,20.5-19.5,20.5s-35,4.5-35.5,2.5
		S1452,1207,1452,1207z"/>
	<path fill="#27272D" d="M932,1215l32-10l65.5-10l6.5-32.5l17,1.5l9.5,6l26-11.5l3.4,3.8l10.6,7.7l24,11.5l22,14.5l12.5,11l5-28
		l90.5,83.5L1399,1293c0,0,38-8,41.5-9s17-13,17-13l32-33.5l0.2-10.2l-52.2,19.8l-48.5-16.5l-25-53.5l-12.5-44l-3.5-21l-6.5-2
		l-12.5,44h-8h-27.3l-22.7-6l-2.8-9.8L1188,1089l-70.5-76.8l-3.5-2.7l-0.4-11.2l-15.6-7.8l-8.5-11.5l-9-10.5l-13.5-1l-18,18
		l-13.5,3.5l-14.6-5.5L996.5,965h-16L968,978.5l-15.5,4.1l-12,9.4l-17.6,2.5l5.6,4l-14,22L670,1195l-17.6,43.3l21.7,80.2l50.5,76
		c0,0,53,43,54.5,43s15.5,4,15.5,4L954,1366l13.8-15l-1.8-19l-8.2-11l-10.3-5.5l-71.5-20l-35.5-43L837,1208l32-45l41.5-46.5l32.5-28
		l10-5.5l-3,21.5l-4,32L932,1215z"/>
	<path fill="#565657" d="M860.7,1467c0,0,3,1,4,2.3s1.8,2.9,1.8,2.9s-5.5,7.8-18.5,2.8L860.7,1467z"/>
	<path fill="#27272D" d="M1249.4,1159.5c-17.7,12.8-18.8,19.5-18.8,19.5s6.8-8.7,18.2-16.2s31.9-12.8,34.6-11.9s-0.2,4.5-4.2,11.1
		s-10.9,11.9-17.9,20s-12.4,21.4-8.9,20.5s7.9-15.1,18-26.6s13.9-11.9,23.2-20.5c1.2-1.2,2.7-2.2,4.2-3.1c-2.5,1-4.2,1.8-4.2,1.8
		s-2.7-6.7-12.4-6.3c0,0-5.1-3.6-13.1-9.5l0,0C1272.6,1144.6,1267.1,1146.7,1249.4,1159.5z"/>
	<path fill="#27272D" d="M943.4,1005.2c9.8,11.6,14.1,34.9,13.6,30.3s-0.2-8.2-4.4-18.1s-9-19.5-20.5-22.4c-3.3-0.9-6.4-0.8-9.1-0.5
		c-0.4,2.2,3.1,5.2,3.1,5.2S933.6,993.6,943.4,1005.2z"/>
	<path fill="#27272D" d="M967.8,1351c1.1-6-3.7-16.4-7.3-19.5c-3.7-3.1-32.2-10.8-68.5,4.7s-54.9,30.7-69,52.5s-21.9,26.6-21.9,26.6
		s2.3-7.5,6.3-13s6.9-13.8,2.7-8s-7.9,13.2-10.5,18.3c-2.6,5.1-4.3,6-13.7,1.5c-9.3-4.5-7.8-15.2-19.2-25.8s-22.6-7.4-24.3-8.4
		s-7.1-7.5-9-9.4s-7.5-1.1-7-11.2c0.5-10.2-8.9-3.4-12.7-7.8s-9.3-13.6-9.9-22.1c-0.6-8.5-6.2-6.9-10.6-9.9
		c-4.4-3-14-11.1-22.5-35.5s-8.7-40.2-3.8-75.2c0.6-4.1,1.6-8.8,3-13.8c-7.4,9.4-13.1,18.1-15.7,25.5c-8.5,23.4-14.9,54.9,4.5,91.2
		s46.8,78.1,78.2,102s49.4,35.9,59.8,33.4s18.9-6.3,18.9-6.3L970,1359c0.1-1.3,0.1-2.5,0.2-3.7
		C968.6,1354.2,967.5,1352.8,967.8,1351z"/>
	<path fill="#27272D" d="M923.6,1316c0,1.4,4.6,2.2,23.4,5.5c6.8,1.2,12.2,3,16.4,4.9c-1.6-1.6-3.5-3.4-5.6-5.4
		C942.2,1316.4,923.6,1314.8,923.6,1316z"/>
	<path fill="#27272D" d="M1489.8,1227.2c-14-44.6-29.3,16.3-108-53c-6.3-5.5-15.4-63.2-20.8-64.9c-12.5-4-19.3-3.8-24.8,3.2
		c-7.9,10-10.9,43.9-10.9,43.9s0.3-3.7-2.1-6.3c-0.4,0.8-2,1.2-5.4,2.8c-5.5,2.6-17.9,12.4-24.1,23.8s-3.3,26.6-2.1,23.6
		s0.3-10.9,10.2-25.5s22.2-17,22.2-17s-0.4,10.4-0.2,13.9s2.9,1.6,4.1-0.6s1.9-5.6,4.6-20.1s5.9-17.4,5.9-17.4s3.9,23.3,9.5,35.7
		c5.6,12.4,5.7,10.4,0.7-5s-7.6-30.6-7.2-38.3c0.4-7.7,1.9-15.7,2.3-11.4s0,10.1,3.4,24.7s7.4,25.8,14.2,44.6s15.7,33.9,19.8,39.5
		s12,22.8,26.5,32.2s14.9,10.6,14.5,13.2s0.4,4.4-3.5,1.8s-18.8-13.2-23.5-19.8s-10.6-11.9-5-2.8s16.1,18.2,23,22.5s4.1,3.1,0,3.8
		s-26.2,5.2-56.4,3s-49.3-9.1-75-21.8s-49.7-26.6-70-50.4s-36.9-51.1-51.1-77s-29.8-53.3-33-62.4s-4.6-14.1-6.6-23.7s-4.8-14-5.2-11
		s1.3,6,4.8,19.6s5.9,37.8,7,43.3s5.2,13.3,8.6,24.1s15.9,50.1,18.9,66.1s-0.6,15.6-0.6,15.6c-4.9-6.8-15.3-14-23.1-18.2
		s-19.2-7.6-26.4-13.1s-13-6.2-13-6.2c-2.5-7.9-3.8-50-4.9-62.4s-3-16.8-3-16.8s5.8-29.5,9.5-43.4c3.8-13.9,7.6-29.4,7.6-29.4
		s-1.9-2.9-4.6-6.2s-6.5-6-6.5-6c3.2-2.9,5.1-6.7,6.1-11.6l-1.1-0.7l0.8-3.3c0,0-0.3-0.4-1-1.2l-6.2,15.6c0,0-3.1-3.4-7-5.9
		s-5.9,0-5.9,0l-3.5-15.8c9.6-0.6,14.1-0.3,19.1,2.3c-5.7-6-16.1-15.4-27.2-17l-7.3,30.6l-34.7,1.1l-30.7-33l-14.4,3.7l-2.1,7.6
		c0,0-12.2,6.9-22.4,12.4c9.5,0,17.4,0.8,17.4,0.8s-2.7,12.3-2,13.3s1.6-0.4,6.9-1.4c5.3-1,8.8-0.4,8.8-0.4
		c-3.7,2.4-10.5,8.9-10.5,8.9s0,0,5,12.2c5,12.2,21.6,40.5,30.5,55.4c8.9,14.8,28.3,37.8,28.3,37.8s0.8,21,0,34.3
		s-4.6,41.1-7.1,46.1s-8.4,2.2-34.5,6.5c-26.2,4.2-39.3,9.1-41.2,8.7c-1.8-0.4-2.9-4.8-3.5-21.5s3.2-49.3,5.4-54s7.5-2,10-4.2
		s-4.9-1.2-11-2.4s-4.7-5.4-4.5-7s0.2-2.7,8.8-5.1s6.4-2.9,3.3-2.5c-3.1,0.5-7.6,1.2-7.6,1.2c4.3-20.3,12.5-32.1,12.5-32.1
		c4.5-1.5,3.6-2.6,0-3s-5.7-1-5.7-1c8.5-5,6.1-5.7,1.6-4.9c-3.6,0.6-5.1,3.3-5.5,4.5c-0.1,0.2-0.1,0.3-0.2,0.5c0,0,0.1-0.2,0.2-0.5
		c2.1-5.6-1-7.7-2-4.5c-1,3.3-1.2,6.7-1.2,6.7s-40.6,30.5-63.2,53.3S837,1187,837,1187c-8.1-10.2-11.3-6.4-11.3-6.4
		c2.6,2.3,12.7,11.3,11.8,14.3s-3.2,13.5-27.8,8.2s-40,5.8-40,5.8c44.4-11.8,61.9,3.4,55.8,8.8c-6.2,5.3-15.1,6.1-42.5,11.1
		s-24.2,12.4-24.2,12.4c17.2-15.2,64.9-12.1,77.5-9.3s13.4,8.6,2.5,9.3s-10.2,2.3-10.2,2.3c11.4,1.8,21.9,4,39,10
		c-2.5-1.3-5-2.5-7.5-3.7c0,0-3.5-9.3-19.6-17.8c0,0,3.3-0.9,1.6-10.7c0,0,5.2-4.5,5-14.6c0,0,34.8-45.5,49.7-64.7
		c14.8-19.2,46.7-51.4,46.7-51.4l2.1,23.9c0,0-4.8,0.2-6.5,7.3s3.7,6,3.7,6s-10.7,55.6-17.2,73.5s-0.4,20.2,6.5,22.7l2.4-6.2
		c0,0,45.1-18.4,98.3-21.5l4.5-29.9c0,0,17.7-3.1,26.1,6.1l25.4-11.6l1,5.5c0,0,40.3,17.7,64.5,38.9l2.6,11.5c0,0,3.7-0.7,9.5-2.7
		c0,0-1.6-15.4-4.2-23.4c0,0,34,49.8,85.4,78.1s131.9,42.8,177,30S1503.8,1271.9,1489.8,1227.2z M1086.3,997.5
		c5.8,5.1,12.6,13.8,12.6,13.8s-9.7,33.6-14.9,61.6c0,0-1.8-44.6-3-59.2c-1.2-14.7-4-21.1-4-21.1
		C1079.6,991.9,1080.6,992.4,1086.3,997.5z M982.2,990.8c-5.8,0.6-11.4,2.7-12.2,3.2c0,0,2.2-7.7,3.9-12.4
		c1.7-4.8,3.5-7.8,10.6-10.2s10.9-2.2,10.9-2.2s9.7,22.9,5.7,19.9s-8.8,0.9-8.8,0.9S988,990.2,982.2,990.8z M1006.3,1061.4
		c-10-18-21.9-32-30.2-58.2c0,0,12.7-8.9,17.1-11.3c4.4-2.3,8.9-0.7,9.3,1s16.2,42.2,16.2,42.2l-2.3,4.3c0,0,3.7,17.9,7.5,29.5
		s10,33.6,10,33.6S1016.3,1079.4,1006.3,1061.4z M1043.8,1160.9c0,0-2-10.9-2.8-20.2s-0.7-27.7-1.5-32.7c-0.9-5-4.5-15.9-9.6-29.5
		s-7.3-24.9-8.4-37.4l37.5,32.9l5.2,23l-7.7,14.7l1.5,4.8l-3.9,0.4c0,0,2.6,12.4,3.8,22.9c1.2,10.6,2.4,25.7,2.4,25.7
		C1054.3,1159.8,1043.8,1160.9,1043.8,1160.9z M1070.5,1165.5c-5.6,2.2-7.1,2.1-7.1,2.1s-0.3-20.7-0.9-33.3s-3.1-22.3-3.1-22.3
		s5.9-9.5,10.5-21.2c4.5-11.8,11.2-25.5,11.2-25.5v11.1c0,0-0.9,3.6-1.9,6.6s2.6,17.8,3.3,32.7s3.2,42.6,3.2,42.6
		S1076.1,1163.4,1070.5,1165.5z"/>
	<path fill="#373740" d="M1072.2,975l3.5,15.8c0,0,2-2.5,5.9,0s7,5.9,7,5.9l6.2-15.6c-0.8-0.9-1.9-2.3-3.5-3.9
		C1086.3,974.7,1081.9,974.4,1072.2,975z"/>
	<path fill="#373740" d="M1084,1073c5.2-28,14.9-61.6,14.9-61.6s-6.9-8.8-12.6-13.8c-5.8-5.1-6.7-5.6-9.3-4.9c0,0,2.8,6.5,4,21.1
		C1082.2,1028.4,1084,1073,1084,1073z"/>
	<path fill="#373740" d="M1016.5,1039.3l2.3-4.3c0,0-15.8-40.5-16.2-42.2s-5-3.3-9.3-1c-4.4,2.3-17.1,11.3-17.1,11.3
		c8.2,26.2,20.2,40.2,30.2,58.2s27.7,41.1,27.7,41.1s-6.2-22-10-33.6C1020.2,1057.2,1016.5,1039.3,1016.5,1039.3z"/>
	<path fill="#373740" d="M1054,1116.9l3.9-0.4l-1.5-4.8l7.7-14.7l-5.2-23l-37.5-32.9c1.1,12.5,3.3,23.9,8.4,37.4
		c5.1,13.6,8.7,24.5,9.6,29.5s0.7,23.4,1.5,32.7s2.8,20.2,2.8,20.2s10.5-1,16.4,4.7c0,0-1.3-15.1-2.4-25.7
		C1056.6,1129.2,1054,1116.9,1054,1116.9z"/>
	<path fill="#373740" d="M1079.2,1083c1-3,1.9-6.6,1.9-6.6v-11.1c0,0-6.6,13.8-11.2,25.5c-4.5,11.8-10.5,21.2-10.5,21.2
		s2.5,9.7,3.1,22.3s0.9,33.3,0.9,33.3s1.5,0,7.1-2.1c5.6-2.2,15.2-7.1,15.2-7.1s-2.4-27.7-3.2-42.6S1078.2,1086.1,1079.2,1083z"/>
	<path fill="#373740" d="M958.1,1072.5c-0.1,0.3-0.2,0.5-0.2,0.5C958,1072.8,958.1,1072.7,958.1,1072.5z"/>
	<path fill="#373740" d="M838.8,1241.3c10.9-0.7,10.1-6.5-2.5-9.3s-60.2-5.9-77.5,9.3c0,0-3.1-7.4,24.2-12.4s36.3-5.8,42.5-11.1
		c6.2-5.3-11.4-20.5-55.8-8.8c0,0,15.4-11.1,40-5.8s26.9-5.2,27.8-8.2s-9.2-12-11.8-14.3c0,0,3.2-3.9,11.3,6.4
		c0,0,32.1-36.1,54.8-58.9s63.2-53.3,63.2-53.3s0.1-3.4,1.2-6.7c1-3.2,4.1-1.1,2,4.5c0.5-1.1,2-3.9,5.5-4.5c4.5-0.7,6.8-0.1-1.6,4.9
		c0,0,2.1,0.6,5.7,1c3.6,0.4,4.5,1.6,0,3c0,0-8.2,11.9-12.5,32.1c0,0,4.5-0.8,7.6-1.2c3.1-0.5,5.3,0.1-3.3,2.5s-8.6,3.5-8.8,5.1
		s-1.6,5.7,4.5,7s13.5,0.2,11,2.4c-2.5,2.2-7.8-0.4-10,4.2s-6,37.3-5.4,54s1.6,21.1,3.5,21.5c1.8,0.4,15-4.4,41.2-8.7
		c26.2-4.2,32.1-1.5,34.5-6.5s6.2-32.8,7.1-46.1c0.8-13.3,0-34.3,0-34.3s-19.4-22.9-28.3-37.8c-8.9-14.8-25.5-43.1-30.5-55.4
		c-5-12.2-5-12.2-5-12.2s6.8-6.5,10.5-8.9c0,0-3.4-0.6-8.8,0.4c-5.3,1-6.2,2.4-6.9,1.4s2-13.3,2-13.3s-8-0.7-17.4-0.8
		c-5.2,2.8-9.8,5.3-12,6.3c-6.5,3-12.2,2-16.2,3.9c-0.9,0.4-1.3,1-1.4,1.6c2.7-0.3,5.8-0.3,9.1,0.5c11.5,3,16.3,12.5,20.5,22.4
		s3.9,13.5,4.4,18.1s-3.8-18.6-13.6-30.3s-17.4-5.5-17.4-5.5s-25.1,19.7-58.2,39.5s-105.8,68.5-136.2,94.5
		c-20.9,17.8-45.4,40.9-61.5,61.3c-1.4,5.1-2.4,9.7-3,13.8c-4.8,34.9-4.7,50.8,3.8,75.2c8.5,24.4,18.1,32.5,22.5,35.5
		s10.1,1.4,10.6,9.9c0.6,8.5,6.1,17.7,9.9,22.1c3.8,4.4,13.2-2.3,12.7,7.8c-0.5,10.2,5.1,9.3,7,11.2s7.2,8.4,9,9.4
		s12.9-2.2,24.3,8.4s9.8,21.3,19.2,25.8c9.3,4.5,11.1,3.5,13.7-1.5c2.6-5.1,6.3-12.5,10.5-18.3s1.2,2.5-2.7,8s-6.3,13-6.3,13
		s7.8-4.8,21.9-26.6s32.6-37,69-52.5s64.8-7.8,68.5-4.7c3.7,3.1,8.4,13.5,7.3,19.5c-0.3,1.8,0.7,3.2,2.3,4.3
		c1.1-20.8,1.1-20.9,1.1-20.9s-2.9-3-8-8c-4.1-1.9-9.5-3.7-16.4-4.9c-18.9-3.3-23.5-4.1-23.4-5.5c0-1.2,18.6,0.4,34.2,5
		c-18.4-17.5-53.3-48.2-90.3-67.5c-17.1-5.9-27.6-8.2-39-10C828.5,1243.6,827.9,1242,838.8,1241.3z"/>
	<path fill="#373740" d="M1323.2,1150c0.3-0.5,0.1-1.2-0.4-2.4c-1.1-2.8-15.1-1.4-24.9,4.6c4.8-1.9,12.8-4.6,18.9-4.6
		C1319.9,1147.7,1321.9,1148.7,1323.2,1150z"/>
	<path fill="#373740" d="M1096.5,1004c2.7,3.3,4.6,6.2,4.6,6.2s-3.9,15.5-7.6,29.4c-3.8,13.9-9.5,43.4-9.5,43.4s1.9,4.5,3,16.8
		s2.4,54.5,4.9,62.4c0,0,5.9,0.7,13,6.2s18.6,8.9,26.4,13.1s18.2,11.4,23.1,18.2c0,0,3.6,0.4,0.6-15.6s-15.4-55.3-18.9-66.1
		s-7.6-18.6-8.6-24.1s-3.6-29.7-7-43.3s-5.2-16.6-4.8-19.6s3.2,1.4,5.2,11s3.4,14.6,6.6,23.7s18.8,36.5,33,62.4s30.8,53.2,51.1,77
		s44.3,37.8,70,50.4s44.8,19.6,75,21.8s52.3-2.3,56.4-3s6.9,0.5,0-3.8s-17.4-13.4-23-22.5s0.2-3.9,5,2.8s19.6,17.2,23.5,19.8
		s3.1,0.9,3.5-1.8s0-3.8-14.5-13.2s-22.4-26.6-26.5-32.2s-12.9-20.8-19.8-39.5s-10.8-29.9-14.2-44.6c-3.4-14.6-3-20.5-3.4-24.7
		s-1.9,3.7-2.3,11.4c-0.4,7.7,2.2,22.9,7.2,38.3s4.9,17.4-0.7,5s-9.5-35.7-9.5-35.7s-3.2,2.8-5.9,17.4s-3.4,17.9-4.6,20.1
		s-4,4.1-4.1,0.6s0.2-13.9,0.2-13.9s-12.3,2.4-22.2,17s-9,22.5-10.2,25.5s-4.1-12.2,2.1-23.6s18.6-21.2,24.1-23.8
		c3.4-1.6,5-2,5.4-2.8c-1.3-1.4-3.2-2.4-6.4-2.4c-6.1-0.1-14.1,2.7-18.9,4.6c-1.5,0.9-2.9,2-4.2,3.1c-9.2,8.6-13.1,9-23.2,20.5
		s-14.5,25.8-18,26.6s1.9-12.4,8.9-20.5s13.8-13.4,17.9-20s7-10.2,4.2-11.1s-23.1,4.3-34.6,11.9s-18.2,16.2-18.2,16.2
		s1.1-6.7,18.8-19.5s23.2-14.9,18.8-21.3l0,0c-16.6-12.2-45.6-33.9-65.9-51.5c-27.7-24.2-77.5-68-84.8-74.5
		c-3.6,5.2-2.9,12.1-3.7,7.1c-0.6-3.6-0.8-10.6-0.1-21l-17.6-11.9c-0.9,5-2.9,8.7-6.1,11.6C1090,998,1093.8,1000.7,1096.5,1004z"/>
	<path fill="#373740" d="M1001,989.1c4,3-5.7-19.9-5.7-19.9s-3.7-0.3-10.9,2.2c-7.1,2.4-9,5.5-10.6,10.2c-1.7,4.8-3.9,12.4-3.9,12.4
		c0.8-0.5,6.4-2.6,12.2-3.2c5.8-0.6,10-0.8,10-0.8S997,986.1,1001,989.1z"/>
	<path fill="#27272D" d="M1116.6,1000.2l-3-2c-0.7,10.4-0.5,17.3,0.1,21c0.8,5,0.2-1.9,3.7-7.1c-0.6-0.5-0.9-0.8-0.9-0.8v-11.1
		L1116.6,1000.2L1116.6,1000.2z"/>
	<g>
		<g>
			<path fill="#A3A7AC" d="M1522,1177.7c-1,18.8-20,43.3-41,62s-40,31-40,31s-32.3-7.3-60-52.7c-27.7-45.3-31-81.7-33-96.4
				s-1.4-23.6-0.9-33c0.5-9.3,5.9-11.7,10.9-10.7c0,0-2.8,36.3,26.7,70s38.2,45.8,56.3,52.3s26.3,3.3,26.3,3.3s19.1-22.2,32.9-44.2
				c1.5-2.4,3-4.8,4.4-7.2c0,0,4.4,1.6,8.7,5.3C1517.9,1161.6,1522.5,1168,1522,1177.7z"/>
		</g>
		<path fill="#E6E6E6" d="M1359.2,1149.9c0,0,10.5,31.9,17.2,45.4s37.8,39.2,37.8,39.2l11-16.5c0,0-1.8-0.6-6-5.8s0-4.5,3.8-1.8
			s5.8,3.6,5.8,3.6s-0.5-7.7-4.8-19.3c0,0-20.6-16.5-41.5-41.9s-24.5-38.3-27.2-69.8c0,0-5.3-2.2-6.5,8s2.3,49.6,24.9,76.1
			c0,0-0.6,4.5-6.1-4.1S1359.2,1149.9,1359.2,1149.9z"/>
		<path fill="#E6E6E6" d="M1471,1208.3c6.1,3,16.5,2,23.5-7s3.3-19.3,2-11s-8.5,13.8-14.2,15.7
			C1476.7,1207.8,1466.9,1206.3,1471,1208.3z"/>
		<path fill="#E6E6E6" d="M1500.3,1167.1c0,0,7.4,4.9,15.2,19.7c0,0,7.2-14.1-2.2-29.2c-4.4-3.8-8.7-5.3-8.7-5.3
			c-1.4,2.4-2.8,4.8-4.4,7.2C1500.5,1164.4,1500.3,1167.1,1500.3,1167.1z"/>
	</g>
	<g>
		<g>
			<path fill="#A3A7AC" d="M1018.3,1421.4c-0.1,0.5-0.2,0.9-0.4,1.4c-2.6,8.6-11.5,9.9-11.5,9.9c0-7.2-1.8-14.6-1.8-14.6
				s-36.8-4.9-87.9,14.9c-51.1,19.8-72.1,48.5-72.1,48.5l-41.9-48.5c0,0,41.1-66.3,81.3-87.2c40.2-20.9,62.3-12.8,62.3-12.8
				s7,4.7,16.4,12.2c11.8,9.3,27.5,22.9,38.2,36.8C1020.3,1407,1020.3,1411.5,1018.3,1421.4z"/>
		</g>
		<path fill="#E6E6E6" d="M1001,1382c-10.7-13.9-26.4-27.5-38.2-36.8c-24.2-6.8-44.2-1.8-74.1,8.5c-39.3,13.5-68,62.7-68,62.7
			s10,12.6,26.7,24.6s22,11.3,22,11.3s26.3-24.2,83.2-36.3c44-9.4,63.3-3.9,65.4,6.8c0.1-0.4,0.3-0.9,0.4-1.4
			C1020.3,1411.5,1020.3,1407,1001,1382z"/>
		<g>
			<ellipse fill="#C4C4C4" cx="832.8" cy="1431.7" rx="12.1" ry="12.8"/>
			<g>
				<path fill="#797A7D" d="M825,1439.6c-4.4-4-5.3-10.3-2.3-14.6c-0.3,0.2-0.6,0.5-0.8,0.8c-3.9,4.2-3.2,11.2,1.6,15.5
					c4.7,4.3,11.7,4.4,15.6,0.2c0.3-0.3,0.5-0.6,0.7-0.9C835.8,1443.9,829.4,1443.6,825,1439.6z"/>
				<path fill="#575757" d="M837.5,1426c-4.4-4-10.8-4.4-14.7-1c-3,4.3-2.1,10.6,2.3,14.6c4.4,4,10.8,4.4,14.7,1
					C842.8,1436.3,841.9,1430,837.5,1426z"/>
			</g>
			<g>
				<path fill="#AAAAAA" d="M828.3,1430.4c0-0.4,0.1-0.8,0.3-1.1c-0.5,0.4-0.9,1-0.9,1.8c0,1.2,0.9,2.1,2,2.1c0.7,0,1.4-0.4,1.7-1
					c-0.3,0.2-0.7,0.4-1.1,0.4C829.2,1432.5,828.3,1431.5,828.3,1430.4z"/>
				<path fill="#77797B" d="M829.7,1428.9c-0.4,0-0.8,0.1-1.1,0.4c-0.2,0.3-0.3,0.7-0.3,1.1c0,1.2,0.9,2.1,2,2.1
					c0.4,0,0.8-0.1,1.1-0.4c0.2-0.3,0.3-0.7,0.3-1.1C831.7,1429.9,830.8,1428.9,829.7,1428.9z"/>
			</g>
			<g>
				<path fill="#AAAAAA" d="M833.7,1436.1c0-0.4,0.1-0.8,0.3-1.1c-0.5,0.4-0.9,1-0.9,1.8c0,1.2,0.9,2.1,2,2.1c0.7,0,1.4-0.4,1.7-1
					c-0.3,0.2-0.7,0.4-1.1,0.4C834.6,1438.2,833.7,1437.3,833.7,1436.1z"/>
				<path fill="#77797B" d="M835.1,1434.7c-0.4,0-0.8,0.1-1.1,0.4c-0.2,0.3-0.3,0.7-0.3,1.1c0,1.2,0.9,2.1,2,2.1
					c0.4,0,0.8-0.1,1.1-0.4c0.2-0.3,0.3-0.7,0.3-1.1C837.1,1435.6,836.2,1434.7,835.1,1434.7z"/>
			</g>
			<g>
				<path fill="#AAAAAA" d="M829.3,1439.4c0-0.3,0.1-0.5,0.2-0.8c-0.4,0.3-0.6,0.7-0.6,1.2c0,0.8,0.6,1.5,1.4,1.5
					c0.5,0,1-0.3,1.2-0.7c-0.2,0.2-0.5,0.3-0.8,0.3C830,1440.9,829.3,1440.2,829.3,1439.4z"/>
				<path fill="#77797B" d="M830.3,1438.4c-0.3,0-0.6,0.1-0.8,0.2c-0.1,0.2-0.2,0.5-0.2,0.8c0,0.8,0.6,1.5,1.4,1.5
					c0.3,0,0.6-0.1,0.8-0.3c0.1-0.2,0.2-0.5,0.2-0.8C831.7,1439.1,831.1,1438.4,830.3,1438.4z"/>
			</g>
			<g>
				<path fill="#AAAAAA" d="M823.5,1434c0-0.3,0.1-0.5,0.2-0.8c-0.4,0.3-0.6,0.7-0.6,1.2c0,0.8,0.6,1.5,1.4,1.5c0.5,0,1-0.3,1.2-0.7
					c-0.2,0.2-0.5,0.2-0.8,0.2C824.1,1435.5,823.5,1434.8,823.5,1434z"/>
				<path fill="#77797B" d="M824.4,1433c-0.3,0-0.6,0.1-0.8,0.2c-0.1,0.2-0.2,0.5-0.2,0.8c0,0.8,0.6,1.5,1.4,1.5
					c0.3,0,0.6-0.1,0.8-0.2c0.1-0.2,0.2-0.5,0.2-0.8C825.8,1433.6,825.2,1433,824.4,1433z"/>
			</g>
		</g>
	</g>
	<g>
		
			<ellipse transform="matrix(0.7185 -0.6956 0.6956 0.7185 -760.4182 927.3012)" fill="#ABABAB" cx="765.3" cy="1403" rx="12.8" ry="19.5"/>
		
			<ellipse transform="matrix(0.7185 -0.6956 0.6956 0.7185 -762.9453 925.8745)" fill="#575757" cx="762.3" cy="1405.4" rx="11.3" ry="19.5"/>
		
			<ellipse transform="matrix(0.7185 -0.6956 0.6956 0.7185 -762.3804 929.6081)" fill="#434343" cx="767.2" cy="1406.6" rx="1.6" ry="2.8"/>
		
			<ellipse transform="matrix(0.7185 -0.6956 0.6956 0.7185 -760.444 919.9915)" fill="#434343" cx="756.2" cy="1399.4" rx="1.9" ry="3.2"/>
		
			<ellipse transform="matrix(0.7185 -0.6956 0.6956 0.7185 -765.6872 922.763)" fill="#434343" cx="757" cy="1407.2" rx="1.5" ry="2.6"/>
		
			<ellipse transform="matrix(0.7185 -0.6956 0.6956 0.7185 -767.9658 931.2081)" fill="#434343" cx="766.3" cy="1414.3" rx="1.5" ry="2.6"/>
	</g>
	<g>
		
			<ellipse transform="matrix(0.8805 -0.4741 0.4741 0.8805 -562.6115 507.3718)" fill="#ABABAB" cx="724.9" cy="1369.5" rx="10" ry="15.3"/>
		
			<ellipse transform="matrix(0.8805 -0.4741 0.4741 0.8805 -563.517 506.1868)" fill="#575757" cx="722.1" cy="1370.7" rx="8.8" ry="15.3"/>
		
			<ellipse transform="matrix(0.8805 -0.4741 0.4741 0.8805 -564.0226 508.0204)" fill="#434343" cx="725.5" cy="1372.6" rx="1.3" ry="2.2"/>
		
			<ellipse transform="matrix(0.8805 -0.4741 0.4741 0.8805 -561.1648 503.9353)" fill="#434343" cx="718.9" cy="1364.9" rx="1.5" ry="2.5"/>
		
			<ellipse transform="matrix(0.8805 -0.4741 0.4741 0.8805 -564.1884 504.1427)" fill="#434343" cx="717.8" cy="1371" rx="1.2" ry="2.1"/>
		
			<ellipse transform="matrix(0.8805 -0.4741 0.4741 0.8805 -566.9713 507.6641)" fill="#434343" cx="723.3" cy="1378.3" rx="1.2" ry="2.1"/>
	</g>
	<g>
		
			<ellipse transform="matrix(0.8805 -0.4741 0.4741 0.8805 -551.0646 491.4112)" fill="#ABABAB" cx="699.1" cy="1338.6" rx="9.3" ry="15.3"/>
		
			<ellipse transform="matrix(0.8805 -0.4741 0.4741 0.8805 -551.9061 490.2367)" fill="#575757" cx="696.3" cy="1339.7" rx="8.2" ry="15.3"/>
		
			<ellipse transform="matrix(0.8805 -0.4741 0.4741 0.8805 -552.7008 493.6678)" fill="#434343" cx="702.7" cy="1343" rx="1.3" ry="2.2"/>
		
			<ellipse transform="matrix(0.8805 -0.4741 0.4741 0.8805 -549.7307 489.6521)" fill="#434343" cx="696.2" cy="1335.1" rx="1.5" ry="2.5"/>
		
			<ellipse transform="matrix(0.8805 -0.4741 0.4741 0.8805 -551.9703 487.7476)" fill="#434343" cx="691.3" cy="1338.6" rx="1.2" ry="2.1"/>
		
			<ellipse transform="matrix(0.8805 -0.4741 0.4741 0.8805 -554.1832 491.2696)" fill="#434343" cx="697.2" cy="1344.7" rx="1.2" ry="2.1"/>
	</g>
	<g>
		<ellipse fill="#27272D" cx="1017.4" cy="1162" rx="7.4" ry="8.2"/>
		<ellipse fill="#A6A6A6" cx="1019.3" cy="1157" rx="6.4" ry="7"/>
		<ellipse fill="#373C43" cx="1018.2" cy="1159.4" rx="6.4" ry="7"/>
		<ellipse fill="#565657" cx="1018.8" cy="1159" rx="5.9" ry="6.6"/>
		<g>
			<path fill="#858585" d="M1016.1,1159.4c0-0.3,0.1-0.5,0.2-0.7c-0.3,0.3-0.6,0.7-0.6,1.2c0,0.8,0.6,1.5,1.4,1.5
				c0.5,0,1-0.3,1.2-0.8c-0.2,0.2-0.5,0.3-0.8,0.3C1016.7,1160.9,1016.1,1160.2,1016.1,1159.4z"/>
			<path fill="#3F4248" d="M1017,1158.4c-0.3,0-0.6,0.1-0.8,0.3c-0.1,0.2-0.2,0.4-0.2,0.7c0,0.8,0.6,1.5,1.4,1.5
				c0.3,0,0.6-0.1,0.8-0.3c0.1-0.2,0.2-0.4,0.2-0.7C1018.4,1159.1,1017.8,1158.4,1017,1158.4z"/>
		</g>
		<g>
			<path fill="#858585" d="M1019.9,1159.7c0-0.3,0.1-0.5,0.2-0.7c-0.3,0.3-0.6,0.7-0.6,1.2c0,0.8,0.6,1.5,1.4,1.5
				c0.5,0,1-0.3,1.2-0.8c-0.2,0.2-0.5,0.3-0.8,0.3C1020.5,1161.1,1019.9,1160.5,1019.9,1159.7z"/>
			<path fill="#3F4248" d="M1020.8,1158.7c-0.3,0-0.6,0.1-0.8,0.3c-0.1,0.2-0.2,0.4-0.2,0.7c0,0.8,0.6,1.5,1.4,1.5
				c0.3,0,0.6-0.1,0.8-0.3c0.1-0.2,0.2-0.4,0.2-0.7C1022.2,1159.4,1021.6,1158.7,1020.8,1158.7z"/>
		</g>
		<g>
			<path fill="#858585" d="M1020.3,1155.6c0-0.3,0.1-0.5,0.2-0.7c-0.3,0.3-0.6,0.7-0.6,1.2c0,0.8,0.6,1.5,1.4,1.5
				c0.5,0,1-0.3,1.2-0.8c-0.2,0.2-0.5,0.3-0.8,0.3C1020.9,1157.1,1020.3,1156.4,1020.3,1155.6z"/>
			<path fill="#3F4248" d="M1021.2,1154.6c-0.3,0-0.6,0.1-0.8,0.3c-0.1,0.2-0.2,0.4-0.2,0.7c0,0.8,0.6,1.5,1.4,1.5
				c0.3,0,0.6-0.1,0.8-0.3c0.1-0.2,0.2-0.4,0.2-0.7C1022.6,1155.3,1022,1154.6,1021.2,1154.6z"/>
		</g>
		<g>
			<path fill="#858585" d="M1016.5,1155.5c0-0.3,0.1-0.5,0.2-0.7c-0.3,0.3-0.6,0.7-0.6,1.2c0,0.8,0.6,1.5,1.4,1.5
				c0.5,0,1-0.3,1.2-0.8c-0.2,0.2-0.5,0.3-0.8,0.3C1017.1,1157,1016.5,1156.3,1016.5,1155.5z"/>
			<path fill="#3F4248" d="M1017.4,1154.5c-0.3,0-0.6,0.1-0.8,0.3c-0.1,0.2-0.2,0.4-0.2,0.7c0,0.8,0.6,1.5,1.4,1.5
				c0.3,0,0.6-0.1,0.8-0.3c0.1-0.2,0.2-0.4,0.2-0.7C1018.8,1155.2,1018.2,1154.5,1017.4,1154.5z"/>
		</g>
	</g>
	<g>
		
			<ellipse transform="matrix(0.1064 -0.9943 0.9943 0.1064 -210.3945 2015.7323)" fill="#27272D" cx="1016.3" cy="1124.9" rx="8.2" ry="7.4"/>
		
			<ellipse transform="matrix(0.1064 -0.9943 0.9943 0.1064 -203.3897 2013.7798)" fill="#A6A6A6" cx="1018.7" cy="1120" rx="7" ry="6.4"/>
		
			<ellipse transform="matrix(0.1064 -0.9943 0.9943 0.1064 -206.9103 2014.5444)" fill="#373C43" cx="1017.4" cy="1122.4" rx="7" ry="6.4"/>
		
			<ellipse transform="matrix(0.1064 -0.9943 0.9943 0.1064 -206.0916 2014.7521)" fill="#565657" cx="1017.9" cy="1122" rx="6.6" ry="5.9"/>
		<g>
			<path fill="#858585" d="M1015.3,1122.1c0-0.2,0.1-0.5,0.2-0.7c-0.4,0.2-0.6,0.6-0.7,1.1c-0.1,0.8,0.4,1.5,1.2,1.6
				c0.5,0.1,1-0.2,1.3-0.7c-0.2,0.2-0.5,0.2-0.8,0.2C1015.7,1123.7,1015.2,1123,1015.3,1122.1z"/>
			<path fill="#3F4248" d="M1016.3,1121.3c-0.3,0-0.6,0-0.8,0.2c-0.1,0.2-0.2,0.4-0.2,0.7c-0.1,0.8,0.4,1.5,1.2,1.6
				c0.3,0,0.6,0,0.8-0.2c0.1-0.2,0.2-0.4,0.2-0.7C1017.6,1122.1,1017.1,1121.4,1016.3,1121.3z"/>
		</g>
		<g>
			<path fill="#858585" d="M1019,1122.8c0-0.2,0.1-0.5,0.2-0.7c-0.4,0.2-0.6,0.6-0.7,1.1c-0.1,0.8,0.4,1.5,1.2,1.6
				c0.5,0.1,1-0.2,1.3-0.7c-0.2,0.2-0.5,0.2-0.8,0.2C1019.5,1124.4,1018.9,1123.6,1019,1122.8z"/>
			<path fill="#3F4248" d="M1020.1,1122c-0.3,0-0.6,0-0.8,0.2c-0.1,0.2-0.2,0.4-0.2,0.7c-0.1,0.8,0.4,1.5,1.2,1.6
				c0.3,0,0.6,0,0.8-0.2c0.1-0.2,0.2-0.4,0.2-0.7C1021.4,1122.8,1020.8,1122,1020.1,1122z"/>
		</g>
		<g>
			<path fill="#858585" d="M1019.9,1118.8c0-0.2,0.1-0.5,0.2-0.7c-0.4,0.2-0.6,0.6-0.7,1.1c-0.1,0.8,0.4,1.5,1.2,1.6
				c0.5,0.1,1-0.2,1.3-0.7c-0.2,0.2-0.5,0.2-0.8,0.2C1020.3,1120.4,1019.8,1119.6,1019.9,1118.8z"/>
			<path fill="#3F4248" d="M1020.9,1118c-0.3,0-0.6,0-0.8,0.2c-0.1,0.2-0.2,0.4-0.2,0.7c-0.1,0.8,0.4,1.5,1.2,1.6
				c0.3,0,0.6,0,0.8-0.2c0.1-0.2,0.2-0.4,0.2-0.7C1022.2,1118.8,1021.7,1118,1020.9,1118z"/>
		</g>
		<g>
			<path fill="#858585" d="M1016.1,1118.3c0-0.2,0.1-0.5,0.2-0.7c-0.4,0.2-0.6,0.6-0.7,1.1c-0.1,0.8,0.4,1.5,1.2,1.6
				c0.5,0.1,1-0.2,1.3-0.7c-0.2,0.2-0.5,0.2-0.8,0.2C1016.5,1119.8,1016,1119.1,1016.1,1118.3z"/>
			<path fill="#3F4248" d="M1017.1,1117.4c-0.3,0-0.6,0-0.8,0.2c-0.1,0.2-0.2,0.4-0.2,0.7c-0.1,0.8,0.4,1.5,1.2,1.6
				c0.3,0,0.6,0,0.8-0.2c0.1-0.2,0.2-0.4,0.2-0.7C1018.4,1118.2,1017.9,1117.5,1017.1,1117.4z"/>
		</g>
	</g>
	<g>
		<g>
			<path fill="#FFFFFF" d="M1117,1052.2l-0.4,0.1l-5.7,1.3l-8.9,1.4c-0.1-0.7-0.2-1.4-0.3-2.1c-0.6-5-0.6-9.7-0.5-10.5
				s2.8-0.8,5,2.5c0.2,0.3,0.4,0.6,0.6,1c0,0,1.8-2.6,2.8-3.9c0.2-0.3,0.6-0.3,1.1,0C1112.3,1042.9,1115.1,1046.8,1117,1052.2z"/>
		</g>
		<path fill="#8B9199" d="M1110.9,1053.6l5.7-1.3c-6-0.9-12.8,0.2-12.8,0.2l6.9-10.6c-0.5-0.3-0.9-0.3-1.1,0c-1,1.3-2.8,3.9-2.8,3.9
			c-0.2-0.4-0.4-0.7-0.6-1l-4.5,8.1c0.1,0.7,0.2,1.4,0.3,2.1L1110.9,1053.6z"/>
		<path fill="#27272D" d="M1100.9,1062.7c-0.1-0.1-0.2-0.1-0.4-0.1c-0.1,0-0.3,0-0.2,0h0.1l0.3-0.1l0.5-0.2l1.1-0.3
			c0.7-0.2,1.5-0.4,2.2-0.6c1.5-0.4,2.9-0.7,4.4-1c3-0.5,6-0.9,9.1-0.7l0,0l-1.2,1.3l-1.1-8.1l0,0l1.3,1.1c-1.5,0-3,0.1-4.5,0.2
			s-3,0.3-4.5,0.5c-3,0.4-6,0.9-9,1.6l0,0l0.6-1c0.5,1.2,0.8,2.3,1,3.5c0.1,0.6,0.2,1.2,0.3,1.8
			C1100.9,1061.2,1100.9,1061.9,1100.9,1062.7z M1100,1064.3c-0.3-0.5-0.5-1.2-0.8-1.9c-0.2-0.7-0.4-1.5-0.6-2.2
			c-0.4-1.5-0.6-3.1-0.7-4.6l-0.1-0.8l0.7-0.1l0,0c3-0.7,6.1-1.2,9.1-1.7c3.1-0.4,6.1-0.7,9.3-0.8h0.5l0.1,0.4l0,0l1,8.2l0.1,0.6
			h-0.6l0,0c-2.9-0.1-5.9,0.2-8.7,0.8c-1.4,0.3-2.9,0.6-4.3,1c-0.7,0.2-1.4,0.4-2.1,0.6l-1.1,0.3l-0.5,0.2l-0.3,0.1h-0.1
			c0,0-0.2,0.1-0.4,0.1C1100.3,1064.4,1100.1,1064.3,1100,1064.3z"/>
	</g>
	<g>
		<g>
			<path fill="#A4A7AD" d="M1082.5,1060.2c0,0-11.9,24.6-18.4,36.8c0,0-0.7-0.7-1.7-1.8c-0.6-0.6-1.4-1.4-2.3-2.4
				c-6.9-7.2-20.9-21.8-26.5-28.7c0,0,0-0.1-0.1-0.1c-5.1-6.5-12.1-16.2-15.9-21.8c-1.8-2.5-2.9-4.2-2.9-4.2l-1.3-5.5
				c-2.4-11.3-9.6-30.8-15.4-48.5c-5.7-17.7-6.8-25.2-6.8-25.2c10.6,9.4,25.7,19.6,34.5,25c1.6,1,3,1.8,4.1,2.4
				c0.3,0.2,0.6,0.3,0.9,0.5c6.6,3.4,10.3,3.8,17-5.4c6.7-9.1,8.2-17.4,8.2-17.4c-6.8-7.7,0-13.5,0-13.5c3.5,1.5,7,3.4,10,9
				c0.5,1,1,2,1.5,3.2c2.4,6.1,5.6,22.5,8.2,38.4c0.9,5.4,1.8,10.8,2.5,15.6C1081.2,1035.9,1082.5,1060.2,1082.5,1060.2z"/>
		</g>
		<path fill="#E6E6E6" d="M1056.1,969.6c-4.3,8.2-6.1,11.4-6.1,11.4s5.2-2.1,10.1,3.8s12.2,29,12.2,29s2.3-3.6,3.3-12.8
			c-2.7-15.9-5.8-32.3-8.2-38.4c-0.5-1.2-1-2.2-1.5-3.2c-2-1.4-4.2-2.1-6.8-2.6C1059.2,956.9,1060.4,961.4,1056.1,969.6z"/>
		<path fill="#E6E6E6" d="M1020.9,983.5c-6.6-3.1-20.8-17.6-21.9-15.4c-1.6,3.4,0.8,8.6,3.9,17.2s5.8,22.4,12.2,32.1
			c0,0,2.6-7.5,8-15.2c4.8-6.9,6.9-11.1,6.9-15.8c-1.1-0.6-2.5-1.4-4.1-2.4C1024.6,984.3,1023,984.5,1020.9,983.5z"/>
		<path fill="#E6E6E6" d="M1031.3,1016.3c-4.4-8.9-1.8-13-7.2-11.7c-5.4,1.3-7.8,19.2-8.3,22.3c-0.3,1.9,0.9,9.5,1.8,15.3
			c3.8,5.5,10.7,15.3,15.9,21.8c1.9-19.6,4.6-33.7,4.6-33.7S1035.8,1025.2,1031.3,1016.3z"/>
		<path fill="#E6E6E6" d="M1074,1016.7c0,0-0.9,0.8-1.8,2.8c-0.9,2.1-5.8-15.1-5.8-15.1l-9.5,14.7l-2.4,19.5l5.6,54.2
			c0.9,0.9,1.7,1.7,2.3,2.4c7.4-15.6,16.8-33,16.8-33S1076.7,1031.6,1074,1016.7z"/>
		<g>
			<path fill="#A4A7AD" d="M1041.3,1032.5L1041.3,1032.5L1041.3,1032.5C1041.4,1032.4,1041.3,1032.4,1041.3,1032.5z"/>
			<path fill="#34373C" d="M1060.6,995.3c0.7-0.8,1.3-1.6,1.9-2.5c-1.4-2.8-3.7-6.6-6.9-8.5c-1.3-0.8-2.7-1.2-4.3-1.6
				c-0.1,0.2-0.2,0.4-0.2,0.6C1055,985.8,1058.4,990,1060.6,995.3z"/>
			<path fill="#34373C" d="M1047.3,1042.2c0,3.4,0.1,7.4,0.3,11c0.6,0.4,0.9,0.7,0.9,0.7l0.1-2.6c0,0,0.4,0.2,1,0.6
				c-0.1-1.2-0.1-2.4-0.2-3.6c-0.1-1.9-0.1-3.6-0.1-5l-2-0.8L1047.3,1042.2z"/>
			<path fill="#34373C" d="M1048.9,1059.5c0,0-0.2-0.2-0.6-0.4c0.2,0.9,0.4,1.7,0.6,2.3c1.5,4.6,1.5,1.6,1.2-3.6
				c-0.7-0.6-1.1-0.9-1.1-0.9L1048.9,1059.5L1048.9,1059.5z"/>
			<path fill="#34373C" d="M1034,1001.3c-1,0.6-1.9,1.3-3,1.9c0.8,2.7,1.7,5.9,2.4,8.8c0.4,1.4,0.9,3,1.5,4.6
				c1.3-0.8,2.5-1.6,3.7-2.4C1036.7,1010,1035.1,1005.2,1034,1001.3z"/>
			<path fill="#34373C" d="M1043.4,1022c-1.3-1.5-2.6-3.6-3.8-5.9c-1.3,0.8-2.6,1.6-3.9,2.4c2,4.9,4.5,9.8,5.5,11.7
				c2.5-1.5,4.9-3.2,7.2-5C1046.5,1024.6,1044.7,1023.5,1043.4,1022z"/>
			<path fill="#34373C" d="M1032.9,985.1c-1.6,0.9-2,1.7-2,1.7c0.9,0.5,1.7,0.9,2.5,1.2C1033.3,987,1033.2,986,1032.9,985.1z"/>
			<path fill="#34373C" d="M1028.6,995.5c0,0,0.8,2.4,1.8,5.7c1.1-0.7,2.1-1.3,3.1-2c-0.4-2.1-0.7-3.7-0.5-4.6
				c0.3-2,0.6-4.3,0.4-6.7c-0.8-0.3-1.6-0.7-2.5-1.2C1030.9,986.8,1032.2,989.6,1028.6,995.5z"/>
			<path fill="#34373C" d="M1047.2,1034.2c0.1-0.2,0.1,0.4,0.2,1.7h0.1l0.3,1.7l1.8,1.1c0.3-1.9,0.8-2.9,1.6-3.5
				c0.7-0.5,1.2,0.7,1.6,2.4l4.5,1.7c-0.2-4.5-0.3-9.1-0.3-12.5c0,0,0.7-1.2,1.7-3.9c-2.2,1.9-4.9,2.8-7.4,2.7
				c-3,2.3-6.3,4.7-9.7,6.7v0.2l5.2,2.9C1046.8,1034.9,1047,1034.5,1047.2,1034.2z"/>
			<path fill="#34373C" d="M1063.6,1091.9c-1.3,0.9-5.7-2.8-10-7.8c-1.4-0.8-2.9-1.7-4.5-2.7c4.1,4.4,8.1,8.5,11,11.5
				c0.9,0.9,1.7,1.7,2.3,2.4c1.1,1.1,1.7,1.8,1.7,1.8c1-2,2.2-4.3,3.5-6.8c-0.8-0.3-1.6-0.5-2.4-0.8
				C1064.7,1090.6,1064.2,1091.4,1063.6,1091.9z"/>
			<path fill="#34373C" d="M1054.5,1046c1.2,4.2,3.5,10.8,3.4,6.8c-0.1-1.6-0.2-4.8-0.4-8.7l-3.7-1.3
				C1054,1044,1054.2,1045.1,1054.5,1046z"/>
			<path fill="#34373C" d="M1066.8,1085.7c0.9,0.3,1.8,0.6,2.6,0.9c0.5-1,1-2,1.5-3c-0.4-1.3-0.8-2.7-1.3-4.2
				C1068.5,1081.7,1067.6,1083.8,1066.8,1085.7z"/>
			<path fill="#34373C" d="M1063.1,1004.4c0.4-2.4,0.7-5,1-7.8c0,0-0.2-0.7-0.6-1.7c-0.6,0.8-1.3,1.7-2,2.5
				C1062.2,999.7,1062.7,1002,1063.1,1004.4z"/>
			<path fill="#34373C" d="M1044.7,1047.4c0.3-3.6,0.6-6.1,1-8c-0.9-0.8-2.3-2-4.6-3.8l-1.5,11.1c1.3,1.2,3.1,2.7,4.9,4.1
				C1044.4,1049.7,1044.6,1048.6,1044.7,1047.4z"/>
			<path fill="#34373C" d="M1043.6,1055.6c-1.5-1.2-3.1-2.5-4.9-4.1l-2.2,16c4,3.2,7.6,5.8,10.9,8.1c-0.8-1.4-1.5-2.8-2.1-4.1
				C1042.7,1064.9,1042.9,1060.7,1043.6,1055.6z"/>
			<path fill="#464646" d="M1039.6,1016.1c1.2,2.3,2.5,4.4,3.8,5.9s3.1,2.6,5,3.2c5.9-4.5,10.8-9.2,12.8-11.2
				c0.6-2.7,1.3-5.9,1.9-9.6c-0.3-2.4-0.9-4.8-1.6-6.9C1056.2,1003.8,1048.7,1010.2,1039.6,1016.1z"/>
			<path fill="#464646" d="M1060.6,995.3c-2.2-5.4-5.7-9.6-9.6-11.9c-2.7,6.3-8.3,12.2-17,17.9c1,3.9,2.7,8.7,4.7,12.9
				C1048,1008.2,1055.5,1001.7,1060.6,995.3z"/>
			<path fill="#464646" d="M1058.6,1023c0.5-1.4,1.1-3.1,1.7-5.2c-2.2,2.1-5.4,5-9.1,7.9C1053.7,1025.7,1056.4,1024.9,1058.6,1023z"
				/>
			<path fill="#464646" d="M1047.1,982.4c-4-0.1-7.4,0.5-7.4,0.5c-3.4,0.6-5.5,1.5-6.8,2.2c0.3,1,0.4,1.9,0.5,2.9
				C1038.3,990,1041.8,989.3,1047.1,982.4z"/>
			<path fill="#464646" d="M1033.4,988c0.2,2.4-0.2,4.6-0.4,6.7c-0.1,0.9,0.1,2.6,0.5,4.6c8-5.4,13.3-11,15.7-16.7
				c-0.7-0.1-1.4-0.1-2.1-0.1C1041.8,989.3,1038.3,990,1033.4,988z"/>
			<path fill="#696A6D" d="M1033.5,999.3c-1,0.7-2,1.3-3.1,2c0.2,0.6,0.4,1.3,0.6,2c1-0.6,2-1.2,3-1.9
				C1033.8,1000.6,1033.7,999.9,1033.5,999.3z"/>
			<path fill="#696A6D" d="M1051.3,982.8c-0.6-0.1-1.3-0.2-1.9-0.3c0.6,0.3,1.1,0.6,1.7,0.9C1051.2,983.2,1051.2,983,1051.3,982.8z"
				/>
			<path fill="#C2C2C2" d="M1049.3,982.5L1049.3,982.5L1049.3,982.5C1049.4,982.5,1049.3,982.5,1049.3,982.5z"/>
			<path fill="#C2C2C2" d="M1051.1,983.4c-0.5-0.3-1.1-0.6-1.7-0.9h-0.1c-2.5,5.8-7.7,11.4-15.7,16.7c0.1,0.7,0.3,1.3,0.5,2.1
				C1042.7,995.6,1048.4,989.7,1051.1,983.4z"/>
			<path fill="#696A6D" d="M1061.5,997.5c0.7-0.8,1.4-1.7,2-2.5c-0.2-0.6-0.6-1.3-0.9-2.1c-0.6,0.8-1.2,1.6-1.9,2.5
				C1060.9,996,1061.2,996.8,1061.5,997.5z"/>
			<path fill="#696A6D" d="M1038.7,1014.2c-1.2,0.8-2.5,1.6-3.7,2.4c0.2,0.6,0.5,1.3,0.7,1.9c1.3-0.8,2.6-1.6,3.9-2.4
				C1039.3,1015.5,1039,1014.9,1038.7,1014.2z"/>
			<path fill="#C2C2C2" d="M1061.5,997.5c-0.3-0.7-0.5-1.5-0.8-2.2c-5.2,6.4-12.7,12.9-21.9,18.9c0.3,0.6,0.6,1.2,0.9,1.8
				C1048.7,1010.2,1056.2,1003.8,1061.5,997.5z"/>
			<path fill="#696A6D" d="M1048.4,1025.2c-2.3,1.7-4.7,3.5-7.2,5c0.3,0.5,0.4,0.8,0.4,0.8l-0.2,1.4c3.4-2,6.7-4.4,9.7-6.7
				C1050.2,1025.6,1049.3,1025.5,1048.4,1025.2z"/>
			<path fill="#C2C2C2" d="M1051.1,1025.6c3.7-2.9,6.9-5.8,9.1-7.9c0.3-1.1,0.6-2.4,1-3.7c-2,2-6.8,6.7-12.8,11.2
				C1049.3,1025.5,1050.2,1025.6,1051.1,1025.6z"/>
			<path fill="#464646" d="M1057.9,1052.8c0.1,3.9-2.2-2.6-3.4-6.8c-0.3-0.9-0.5-2-0.7-3.1l-0.9-0.3v2.2l-3.5-1.4
				c0,1.4,0.1,3.1,0.1,5c0,1.2,0.1,2.4,0.2,3.6c2.7,1.5,10,5.6,15.5,7.9c-0.9-4.4-1.9-9.3-3.1-14.1l-4.7-1.6
				C1057.7,1048,1057.8,1051.2,1057.9,1052.8z"/>
			<path fill="#464646" d="M1069.7,1079.5c-0.8-2.7-1.5-5.6-2.2-8.5c-0.2-1.1-0.5-2.4-0.8-3.8c-2.6,1.1-8.7,3.7-10.4,3.6
				c-2-0.2-3.8-4.7-2.4-10.3c-1.7-1.1-3-2-3.9-2.7c0.3,5.2,0.4,8.3-1.2,3.6c-0.2-0.7-0.4-1.5-0.6-2.3c-0.9-0.6-2.5-1.8-4.7-3.5
				c-0.7,5.1-1,9.4,1.7,15.8c0.6,1.3,1.3,2.7,2.1,4.1c7.4,5,13.5,8.2,19.3,10.2C1067.6,1083.8,1068.5,1081.7,1069.7,1079.5z"/>
			<path fill="#464646" d="M1060.9,1040.7c-1.3-5.2-2.6-10-4-13.8c0,3.4,0.2,8,0.3,12.5L1060.9,1040.7z"/>
			<path fill="#464646" d="M1047.3,1042.2l-0.3-1.6c0,0-0.2-0.3-1.4-1.2c-0.3,1.9-0.7,4.5-1,8c-0.1,1.2-0.2,2.3-0.3,3.3
				c1.3,1,2.5,1.9,3.3,2.5C1047.4,1049.6,1047.3,1045.6,1047.3,1042.2z"/>
			<path fill="#464646" d="M1063.6,1091.9c0.6-0.4,1.1-1.3,1.7-2.4c-3.7-1.3-7.5-3.1-11.7-5.4
				C1057.9,1089.1,1062.3,1092.8,1063.6,1091.9z"/>
			<path fill="#464646" d="M1051.9,1037.3l0.9,0.3c-0.4-1.8-0.9-2.9-1.6-2.4c-0.8,0.5-1.3,1.5-1.6,3.5l2.4,1.4v-2.8H1051.9z"/>
			<path fill="#464646" d="M1047.2,1034.2c-0.1,0.3-0.3,0.7-0.6,1.2l0.7,0.4C1047.3,1034.7,1047.3,1034,1047.2,1034.2z"/>
			<path fill="#696A6D" d="M1053.6,1084c-2.2-2.6-4.4-5.6-6.1-8.5c-3.3-2.3-6.9-4.9-10.9-8.1v0.2c3.4,3.9,8.1,9,12.6,13.7
				C1050.6,1082.3,1052.1,1083.2,1053.6,1084z"/>
			<path fill="#696A6D" d="M1065.3,1089.4c0.8,0.3,1.6,0.5,2.4,0.8c0.6-1.2,1.2-2.4,1.8-3.6c-0.9-0.3-1.8-0.6-2.6-0.9
				C1066.2,1087.1,1065.7,1088.4,1065.3,1089.4z"/>
			<path fill="#C2C2C2" d="M1066.8,1085.7c-5.8-2.1-11.9-5.2-19.3-10.2c1.7,2.9,3.9,5.9,6.1,8.5c4.2,2.3,8,4.1,11.7,5.4
				C1065.7,1088.4,1066.2,1087.1,1066.8,1085.7z"/>
			<path fill="#696A6D" d="M1044.3,1050.7c-1.7-1.3-3.6-2.8-4.9-4.1l-0.7,4.8c1.7,1.6,3.4,2.9,4.9,4.1
				C1043.8,1054,1044.1,1052.5,1044.3,1050.7z"/>
			<path fill="#696A6D" d="M1048.7,1051.3l-0.1,2.6c0,0-0.4-0.3-0.9-0.7c0.1,2.1,0.4,4.1,0.7,5.8c0.4,0.3,0.6,0.4,0.6,0.4v-2.6
				c0,0,0.4,0.4,1.1,0.9c-0.1-1.8-0.3-3.8-0.4-5.8C1049,1051.6,1048.7,1051.3,1048.7,1051.3z"/>
			<path fill="#C2C2C2" d="M1044.3,1050.7c-0.2,1.7-0.5,3.3-0.7,4.8c2.1,1.7,3.8,2.9,4.7,3.5c-0.3-1.7-0.5-3.7-0.7-5.8
				C1046.8,1052.6,1045.6,1051.7,1044.3,1050.7z"/>
			<path fill="#C2C2C2" d="M1050.1,1057.8c0.9,0.7,2.2,1.7,3.9,2.7c0.1-0.6,0.3-1.2,0.5-1.8l11.3,4.1c-0.2-0.9-0.4-1.9-0.6-2.9
				c-5.5-2.2-12.9-6.4-15.5-7.9C1049.8,1054,1049.9,1056,1050.1,1057.8z"/>
			<path fill="#696A6D" d="M1047.3,1042.2l0.1,0.4l2,0.8c0-2,0.1-3.5,0.2-4.7l-1.8-1.1l-0.3-1.7h-0.1
				C1047.4,1037.3,1047.3,1039.6,1047.3,1042.2z"/>
			<path fill="#696A6D" d="M1057.5,1044.1c-0.1-1.5-0.1-3.2-0.2-4.8l-4.5-1.7c0.3,1.5,0.6,3.4,1,5.2L1057.5,1044.1z"/>
			<path fill="#696A6D" d="M1046.6,1035.5l-5.2-2.9l-0.4,3c2.3,1.8,3.8,3,4.6,3.8C1046,1037.5,1046.3,1036.3,1046.6,1035.5z"/>
			<path fill="#C2C2C2" d="M1047,1040.6l0.3,1.6c0-2.6,0-4.9,0-6.3l-0.7-0.4c-0.3,0.8-0.6,2-1,3.9
				C1046.8,1040.3,1047,1040.6,1047,1040.6z"/>
			<path fill="#C2C2C2" d="M1057.5,1044.1l4.7,1.6c-0.4-1.7-0.8-3.4-1.2-5l-3.7-1.4C1057.3,1041,1057.4,1042.6,1057.5,1044.1z"/>
			<path fill="#C2C2C2" d="M1052.8,1044.8v-2.2l0.9,0.3c-0.3-1.8-0.6-3.7-1-5.2l-0.9-0.3v2.8l-2.4-1.4c-0.2,1.2-0.2,2.7-0.2,4.7
				L1052.8,1044.8z"/>
			<path fill="#34373C" d="M1056.4,1070.8c1.7,0.2,7.8-2.4,10.4-3.6c-0.1-0.5-0.2-1-0.3-1.6c-4.8-0.9-9.3-3.2-12.4-5.2
				C1052.6,1066.1,1054.4,1070.6,1056.4,1070.8z"/>
			<path fill="#C2C2C2" d="M1054,1060.5c3.2,2,7.6,4.2,12.4,5.2c-0.2-0.9-0.4-1.9-0.6-2.9l-11.3-4.1
				C1054.3,1059.3,1054.1,1059.9,1054,1060.5z"/>
		</g>
		<g>
			<path fill="#9D842C" d="M1057.4,1064.1c0,0-0.2-1.9-0.5-4.7c-0.4,0.1-0.9,0.2-1.3,0.2l0.4,5.7c0,0,1.5-0.2,3.6-0.6l0.6-1.2
				C1058.4,1063.9,1057.4,1064.1,1057.4,1064.1z"/>
			<path fill="#9D842C" d="M1071.2,1062.3c-0.1,0.3-0.2,0.5-0.3,0.8c1.4-0.2,2.8-0.4,3.9-0.5v-0.3
				C1073.6,1062.2,1072.4,1062.2,1071.2,1062.3z"/>
			<path fill="#9D842C" d="M1064.6,1062.9c-0.2,0.4-0.3,0.8-0.5,1.2c0.7-0.1,1.5-0.2,2.3-0.3l0.5-1.1
				C1066.1,1062.7,1065.3,1062.8,1064.6,1062.9z"/>
			<path fill="#F9CA32" d="M1066.5,1058.2c-0.6,1.5-1.3,3.2-1.9,4.7c0.7-0.1,1.5-0.2,2.3-0.3l2.1-4.6
				C1068.3,1058.1,1067.4,1058.1,1066.5,1058.2z"/>
			<path fill="#F9CA32" d="M1073,1057.9c-0.6,1.5-1.3,3-1.8,4.4c1.2-0.1,2.4-0.1,3.6-0.1v-4.4
				C1074.8,1057.9,1074.1,1057.8,1073,1057.9z"/>
			<path fill="#F9CA32" d="M1060.2,1063.6l2.3-4.9c-1.7,0.2-3.6,0.5-5.6,0.8c0.3,2.7,0.5,4.7,0.5,4.7S1058.4,1063.9,1060.2,1063.6z"
				/>
			<path fill="#9EA0A3" d="M1066.9,1062.6l-0.5,1.1c1.5-0.2,3-0.5,4.5-0.7c0.1-0.2,0.2-0.5,0.3-0.8
				C1069.7,1062.4,1068.3,1062.5,1066.9,1062.6z"/>
			<path fill="#FEFEFD" d="M1066.9,1062.6c1.4-0.1,2.8-0.3,4.3-0.3c0.6-1.4,1.2-3,1.8-4.4c-1,0-2.3,0.1-4,0.2L1066.9,1062.6z"/>
			<path fill="#9EA0A3" d="M1060.2,1063.6l-0.6,1.2c1.3-0.2,2.9-0.5,4.5-0.7c0.2-0.4,0.3-0.8,0.5-1.2
				C1062.9,1063.1,1061.4,1063.4,1060.2,1063.6z"/>
			<path fill="#FEFEFD" d="M1062.5,1058.7l-2.3,4.9c1.2-0.2,2.7-0.5,4.4-0.7c0.6-1.5,1.3-3.1,1.9-4.7
				C1065.3,1058.3,1063.9,1058.5,1062.5,1058.7z"/>
		</g>
	</g>
	<g>
		<path fill="#27272D" d="M1081,1150.4c-1.7,2.7-7.9,6.7-11.1,6.5s-1.1-2.3,1.3-3.5C1073.5,1152.1,1082.1,1148.6,1081,1150.4z"/>
		
			<ellipse transform="matrix(0.8428 -0.5382 0.5382 0.8428 -451.6156 759.6458)" fill="#A6A6A6" cx="1074.7" cy="1153" rx="3.7" ry="3.2"/>
		
			<ellipse transform="matrix(0.8428 -0.5382 0.5382 0.8428 -452.5211 759.1876)" fill="#5C5C5C" cx="1073.5" cy="1154.3" rx="3.7" ry="3.2"/>
		<g>
			<path fill="#858585" d="M1073.4,1153.1c0-0.2,0.1-0.4,0.1-0.6c-0.3,0.2-0.5,0.6-0.5,1c0,0.7,0.5,1.2,1.1,1.2c0.4,0,0.8-0.3,1-0.7
				c-0.2,0.1-0.4,0.2-0.7,0.2C1073.9,1154.4,1073.4,1153.8,1073.4,1153.1z"/>
			<path fill="#3F4248" d="M1074.2,1152.3c-0.2,0-0.5,0.1-0.7,0.2c-0.1,0.2-0.1,0.4-0.1,0.6c0,0.7,0.5,1.2,1.1,1.2
				c0.2,0,0.5-0.1,0.7-0.2c0.1-0.2,0.1-0.4,0.1-0.6C1075.3,1152.9,1074.8,1152.3,1074.2,1152.3z"/>
		</g>
		<g>
			<path fill="#858585" d="M1071.5,1155.2c0-0.2,0.1-0.4,0.1-0.6c-0.3,0.2-0.5,0.6-0.5,1c0,0.7,0.5,1.2,1.1,1.2c0.4,0,0.8-0.3,1-0.7
				c-0.2,0.1-0.4,0.2-0.7,0.2C1072,1156.4,1071.5,1155.9,1071.5,1155.2z"/>
			<path fill="#3F4248" d="M1072.3,1154.4c-0.2,0-0.5,0.1-0.7,0.2c-0.1,0.2-0.1,0.4-0.1,0.6c0,0.7,0.5,1.2,1.1,1.2
				c0.2,0,0.5-0.1,0.7-0.2c0.1-0.2,0.1-0.4,0.1-0.6C1073.4,1154.9,1072.9,1154.4,1072.3,1154.4z"/>
		</g>
	</g>
	<g>
		<path fill="#27272D" d="M1076.5,1135.2c3.1-1.7,3.5-2.9,2.7-3.1s-11,1.1-12.4,2.6s0,2.3,2,2.7
			C1071,1137.8,1076.5,1135.2,1076.5,1135.2z"/>
		<g>
			
				<ellipse transform="matrix(0.8428 -0.5382 0.5382 0.8428 -441.2927 755.9755)" fill="#A6A6A6" cx="1073.6" cy="1133.5" rx="4.7" ry="4"/>
			
				<ellipse transform="matrix(0.8428 -0.5382 0.5382 0.8428 -442.4485 755.4324)" fill="#5C5C5C" cx="1072.1" cy="1135.2" rx="4.7" ry="4"/>
			<g>
				<path fill="#858585" d="M1072,1133.7c0-0.3,0.1-0.5,0.2-0.7c-0.4,0.3-0.6,0.7-0.6,1.3c0,0.9,0.6,1.6,1.4,1.6
					c0.5,0,1-0.3,1.3-0.8c-0.2,0.2-0.5,0.3-0.8,0.3C1072.6,1135.2,1072,1134.5,1072,1133.7z"/>
				<path fill="#3F4248" d="M1073,1132.7c-0.3,0-0.6,0.1-0.8,0.3c-0.1,0.2-0.2,0.5-0.2,0.7c0,0.9,0.6,1.6,1.4,1.6
					c0.3,0,0.6-0.1,0.8-0.3c0.1-0.2,0.2-0.5,0.2-0.7C1074.4,1133.3,1073.7,1132.7,1073,1132.7z"/>
			</g>
			<g>
				<path fill="#858585" d="M1069.5,1136.3c0-0.3,0.1-0.5,0.2-0.7c-0.4,0.3-0.6,0.7-0.6,1.3c0,0.9,0.6,1.6,1.4,1.6
					c0.5,0,1-0.3,1.3-0.8c-0.2,0.2-0.5,0.3-0.8,0.3C1070.2,1137.8,1069.5,1137.1,1069.5,1136.3z"/>
				<path fill="#3F4248" d="M1070.5,1135.2c-0.3,0-0.6,0.1-0.8,0.3c-0.1,0.2-0.2,0.5-0.2,0.7c0,0.9,0.6,1.6,1.4,1.6
					c0.3,0,0.6-0.1,0.8-0.3c0.1-0.2,0.2-0.5,0.2-0.7C1072,1135.9,1071.3,1135.2,1070.5,1135.2z"/>
			</g>
		</g>
	</g>
	<path fill="#27272D" d="M1063.4,1117.3c0.8,0.4,8.1-0.4,12.3-0.7c4.3-0.3,4.3,0.1,4.6-1.1c0.3-1.2-3.4-1.5-5-1.2
		c0,0,0.2,0.1,1.5-1.3s-1-1.4-4.6,0S1062.6,1116.9,1063.4,1117.3z"/>
	<g>
		<path fill="#A6A6A6" d="M1070.6,1111.2c-1.5-0.2-3,0.5-3.9,1.8c0.9-0.7,1.9-1,3-0.9c2.4,0.3,4.2,2.6,3.9,5.3
			c-0.1,0.8-0.4,1.5-0.8,2.2c0.8-0.8,1.4-1.8,1.5-3.1C1074.7,1113.8,1073,1111.5,1070.6,1111.2z"/>
		<path fill="#565657" d="M1069.8,1112.1c-1.1-0.1-2.2,0.2-3,0.9c-0.5,0.7-0.9,1.5-1,2.5c-0.3,2.6,1.4,4.9,3.9,5.2
			c1.3,0.1,2.4-0.3,3.3-1.2c0.4-0.6,0.7-1.4,0.8-2.2C1074,1114.7,1072.2,1112.4,1069.8,1112.1z"/>
	</g>
	<g>
		<path fill="#858585" d="M1067.5,1116.4c0-0.2,0.1-0.3,0.2-0.5c-0.3,0.2-0.4,0.4-0.5,0.8c-0.1,0.6,0.3,1.1,0.8,1.1
			c0.4,0,0.7-0.2,0.9-0.5c-0.2,0.1-0.4,0.2-0.6,0.1C1067.8,1117.5,1067.5,1117,1067.5,1116.4z"/>
		<path fill="#3F4248" d="M1068.3,1115.8c-0.2,0-0.4,0-0.6,0.1c-0.1,0.1-0.1,0.3-0.2,0.5c-0.1,0.6,0.3,1.1,0.8,1.1
			c0.2,0,0.4,0,0.6-0.1c0.1-0.1,0.1-0.3,0.2-0.5C1069.2,1116.3,1068.8,1115.8,1068.3,1115.8z"/>
	</g>
	<g>
		<path fill="#858585" d="M1069.9,1117.8c0-0.2,0.1-0.3,0.2-0.5c-0.3,0.2-0.4,0.4-0.5,0.8c-0.1,0.6,0.3,1.1,0.8,1.1
			c0.4,0,0.7-0.2,0.9-0.5c-0.2,0.1-0.4,0.2-0.6,0.1C1070.3,1118.9,1069.9,1118.4,1069.9,1117.8z"/>
		<path fill="#3F4248" d="M1070.7,1117.2c-0.2,0-0.4,0-0.6,0.1c-0.1,0.1-0.1,0.3-0.2,0.5c-0.1,0.6,0.3,1.1,0.8,1.1
			c0.2,0,0.4,0,0.6-0.1c0.1-0.1,0.1-0.3,0.2-0.5C1071.6,1117.8,1071.2,1117.3,1070.7,1117.2z"/>
	</g>
	<g>
		<path fill="#858585" d="M1071.2,1115c0-0.2,0.1-0.3,0.2-0.5c-0.3,0.2-0.4,0.4-0.5,0.8c-0.1,0.6,0.3,1.1,0.8,1.1
			c0.4,0,0.7-0.2,0.9-0.5c-0.2,0.1-0.4,0.2-0.6,0.1C1071.5,1116.1,1071.1,1115.6,1071.2,1115z"/>
		<path fill="#3F4248" d="M1071.9,1114.4c-0.2,0-0.4,0-0.6,0.1c-0.1,0.1-0.1,0.3-0.2,0.5c-0.1,0.6,0.3,1.1,0.8,1.1
			c0.2,0,0.4,0,0.6-0.1c0.1-0.1,0.1-0.3,0.2-0.5C1072.8,1115,1072.4,1114.5,1071.9,1114.4z"/>
	</g>
	<g>
		<path fill="#858585" d="M1068.5,1113.8c0-0.2,0.1-0.3,0.2-0.5c-0.3,0.2-0.4,0.4-0.5,0.8c-0.1,0.6,0.3,1.1,0.8,1.1
			c0.4,0,0.7-0.2,0.9-0.5c-0.2,0.1-0.4,0.2-0.6,0.1C1068.8,1114.9,1068.4,1114.4,1068.5,1113.8z"/>
		<path fill="#3F4248" d="M1069.2,1113.2c-0.2,0-0.4,0-0.6,0.1c-0.1,0.1-0.1,0.3-0.2,0.5c-0.1,0.6,0.3,1.1,0.8,1.1
			c0.2,0,0.4,0,0.6-0.1c0.1-0.1,0.1-0.3,0.2-0.5C1070.1,1113.8,1069.7,1113.3,1069.2,1113.2z"/>
	</g>
	<path fill="#27272D" d="M1099,1140.6c2.2-0.7,4.6-0.6,6.8,0c1.9,0.5,2.7-2.4,0.8-2.9c-2.7-0.7-5.7-0.9-8.4,0
		C1096.4,1138.3,1097.2,1141.2,1099,1140.6L1099,1140.6z"/>
	<path fill="#27272D" d="M1093.3,1106c-0.1,0.1,0,0,0.3-0.2c0.4-0.3,0.8-0.5,1.2-0.7c1.4-0.7,2.9-1.2,4.5-1.4c1.9-0.2,1.9-3.2,0-3
		c-2.9,0.3-5.8,1.4-8.1,3.3C1089.7,1105.1,1091.9,1107.2,1093.3,1106L1093.3,1106z"/>
	<path fill="#A3A7AC" d="M844.7,1481.5c0.9,0.8,3.3,1,5.3,0.6c1.1-3.5,5.3-11.9,23.1-26.2c0.1-0.3-10.9,5.6-12.9,7.8
		C859.1,1464.8,848.5,1475.3,844.7,1481.5z"/>
	<path fill="#A3A7AC" d="M853.3,1474.9c0.8,4.2,11.9,1.2,13.2-2.7c0,0,0.6,0.9,1,2.1c0.6,1.7,0.5,1.8,0.5,1.8s-8.2,8-13.5,6
		c-1.8-0.4-3.2-1-3.8-2.8C850.8,1477.8,853.3,1474.9,853.3,1474.9z"/>
	<path fill="#565657" d="M1497.3,1164.3c4.7,3,3.7,28.7-7.7,36.7c-11.3,8-35.3,4.7-39.3,2c12,2.5,16,1,17,0.7
		C1470.4,1200.2,1491.8,1173.5,1497.3,1164.3z"/>
</g>
</svg>
