<?xml version="1.0" encoding="utf-8"?>
<!-- Generator: Adobe Illustrator 21.0.2, SVG Export Plug-In . SVG Version: 6.00 Build 0)  -->
<svg version="1.1" id="_x31_1_x5F_Top_x5F_Scuba_x5F_Wetsuit__x28_SCU_x29_"
	 xmlns="http://www.w3.org/2000/svg" xmlns:xlink="http://www.w3.org/1999/xlink" x="0px" y="0px" viewBox="0 0 2000 2000"
	 enable-background="new 0 0 2000 2000" xml:space="preserve">
<g>
	<g>
		<g>
			<path fill="#D8D8D8" d="M941.4,995.2v8.6l-78.1,58.7c0,0-0.3-5.1-0.3-11.4c0-3.1,0.1-6.6,0.3-9.8c0.3-4,3.2-8.1,6.5-11.5
				c4.6-4.8,10-8.4,10-8.4L941.4,995.2z"/>
		</g>
		<path opacity="0.3" fill="#091426" enable-background="new    " d="M863.2,1062.6l78.1-58.8v-8.6l-61.7,26.3c0,0-5.4,3.5-10,8.4
			c14.8-1.4,18.3-1.5,21.4,0.3l-28.2,21C862.9,1057.5,863.2,1062.6,863.2,1062.6z"/>
	</g>
	<g>
		<g>
			<path fill="#D8D8D8" d="M960.9,1052.2l-7.8,55.1l-20,117.7l-7.5,38.7l-38-14.7c0,0-3.7-13.3-6.6-32c-3-18.7-9.4-56.2-9.4-56.2
				s25.4-40,45.2-62.1C936.5,1076.7,960.9,1052.2,960.9,1052.2z"/>
		</g>
		<path opacity="0.3" fill="#091426" enable-background="new    " d="M916.8,1098.8c-19.8,22.1-45.2,62.1-45.2,62.1
			s6.4,37.6,9.4,56.2s6.6,32,6.6,32l38,14.7l7.5-38.7l20-117.7l7.8-55.1C960.9,1052.2,936.5,1076.7,916.8,1098.8z M910,1220.3
			c-0.4,10.1-2.6,11.3-5.2,11.7c-2.6,0.3-8.6-1.3-9.7-3.1c-1.1-1.8-2-7.9-4.7-20.3s-6.1-31.2-5.8-34.7c0.3-3.6,2.8-11.7,8.3-18.8
			c5.5-7.2,17.7-12.5,17.7-12.5S910.4,1210.2,910,1220.3z"/>
	</g>
	<g>
		<g>
			<path fill="#888888" d="M1170.8,1008.2c-15.1-14.1-26-21.1-43.8-27.6s-44.9-7.9-62-7.1s-18.8-19.1-2.1-22
				c12.7-2.2,41-4.6,64.4-1.9c4.3,0.5,8.5,1.2,12.4,2c1.7,0.4,3.3,0.8,4.8,1.2c0.8,0.2,1.7,0.5,2.5,0.8c2.6,0.9,5.2,1.8,7.7,2.7
				c1.6,0.6,3.2,1.2,4.8,1.8c2.3,0.9,4.5,1.8,6.7,2.7c1.7,0.7,3.3,1.4,4.9,2.2c3.7,1.7,7.1,3.4,10.3,5.2c1.1,0.6,2.2,1.2,3.2,1.9
				c1.8,1.1,3.6,2.2,5.2,3.4c0.7,0.5,1.4,1.1,2.1,1.6c0.4,0.3,0.7,0.6,1.1,0.8c2.9,2.3,5.3,4.8,7.2,7.3
				C1208.6,994.7,1170.8,1008.2,1170.8,1008.2z"/>
		</g>
		<path opacity="0.3" fill="#091426" enable-background="new    " d="M1062.9,951.5c-16.6,2.9-15,22.8,2.1,22s44.2,0.6,62,7.1
			s28.6,13.6,43.8,27.6c0,0,37.8-13.6,29.4-25c-1.8-2.5-4.3-4.9-7.2-7.3c-3.3,1.6-6.3,4.9-8.4,7.2c-3.5,3.8-6.2,8-8.2,12.6
			c-2,1.1-3.8,1.4-5.4,1.1c5.7-8.7,12.1-15.7,20.9-21.7c-0.7-0.5-1.4-1.1-2.1-1.6c-8.6,5.5-18.6,12.1-22.4,21.8
			c-0.8-0.5-1.7-1-2.6-1.5c-1.3-0.8-2.6-1.7-3.8-2.6c3-10,14.9-16,23.6-21.2c-1-0.6-2.1-1.3-3.2-1.9c-4.8,2.5-9.3,6-13.1,9.5
			c-3.9,3.5-7.6,7.2-9.2,12.1c-0.9-0.7-1.9-1.4-2.8-2.1c-1.4-1.1-2.8-2.2-4.2-3.3c1.7-6.4,4.1-11.8,9.4-16.4c2.9-2.5,6.2-3.9,9.6-5
			c-1.6-0.7-3.2-1.4-4.9-2.2c-2.8,1.6-5.3,3.6-7.4,5.5c-4.1,3.8-8.9,10.2-9.1,16.2c-2.4-1.8-4.8-3.4-7.3-4.9c2.5-4,3.6-8.8,6.8-12.6
			c3-3.6,6.5-5.5,10.4-7c-1.6-0.6-3.2-1.2-4.8-1.8c-2.7,1.7-5.2,3.8-7.2,6c-3.2,3.5-7,9-7.4,14.1c-3.3-1.7-6.6-3-10.1-4.2
			c1.8-5.5,4.1-10.5,8.2-14.8c2-2.1,4.1-3.5,6.4-4.7c-1.5-0.5-3.1-0.9-4.8-1.2c-1.6,1.5-3,3.1-4.2,4.5c-3.9,4.4-7.1,9.7-7.6,15.6
			c-2.2-0.6-4.4-1.2-6.6-1.6c-1.8-0.4-3.8-0.9-5.9-1.3c1.1-4.7,2.9-9.3,5.6-13.2c1.8-2.6,3.9-4.4,6.3-6
			C1103.9,946.9,1075.6,949.3,1062.9,951.5z M1113.5,958c1.7-2.3,3.7-4.2,6-5.8c-3.3,4.8-5.5,10.6-6.7,16.2
			c-0.9-0.1-1.9-0.2-2.8-0.3C1110.5,964.4,1111.1,961.2,1113.5,958z"/>
	</g>
	<g>
		<path fill="none" d="M1195.4,996c2.1,0.8,3.9,2.1,4.9,3.9c5.5,1.5,10.4,6.4,14.6,10c-4.1-3.6-9.1-8.4-14.6-10
			C1199.3,998,1197.5,996.7,1195.4,996z"/>
		<path fill="none" d="M1205.5,980.3c0.7-0.4,1.5-0.7,2.3-0.9C1207,979.6,1206.2,979.9,1205.5,980.3c-1.8,0.9-3.5,1.8-5.2,2.8
			C1201.9,982,1203.7,981.1,1205.5,980.3z"/>
		<path fill="none" d="M1173.6,1005.6c-1.8-0.5-3.9-0.7-5.9-0.6C1169.7,1004.9,1171.8,1005.2,1173.6,1005.6z"/>
		<path fill="none" d="M1178.9,1008.5c-0.8-0.7-1.7-1.3-2.6-1.8C1177.2,1007.2,1178.1,1007.8,1178.9,1008.5z"/>
		<path fill="none" d="M1212.8,1012.6c-1.9-1.6-3.8-3.2-5.7-4.8C1209,1009.4,1210.9,1011.1,1212.8,1012.6c1.3,1.1,2.8,2.1,4,3.3
			C1215.6,1014.7,1214.1,1013.7,1212.8,1012.6z"/>
		<path fill="none" d="M1195.5,1003.7c-0.4,0.1-0.9,0.2-1.3,0.3c-0.3,0.1-0.6,0.2-1,0.3c0.4-0.1,0.7-0.2,1-0.3
			C1194.6,1003.9,1195,1003.8,1195.5,1003.7z"/>
		<path fill="none" d="M1197.6,1059.6c-0.1,0-0.2,0.1-0.2,0.1C1197.5,1059.7,1197.5,1059.7,1197.6,1059.6c1.4-0.5,2.5-1.2,3.5-1.9
			C1200.2,1058.5,1199,1059.1,1197.6,1059.6z"/>
		<path fill="none" d="M1186,1011c0,0.4-0.1,0.7-0.3,1C1185.9,1011.8,1186,1011.4,1186,1011z"/>
		<path fill="none" d="M1229,1056.5c-0.4-2.1-0.6-4.2-0.6-6.4C1228.4,1052.3,1228.6,1054.5,1229,1056.5c0.1,0.2,0.2,0.3,0.4,0.4
			C1229.3,1056.8,1229.1,1056.7,1229,1056.5z"/>
		<path fill="none" d="M1245.2,1065.6c-0.4,0-0.7,0-1.1,0C1244.5,1065.7,1244.9,1065.7,1245.2,1065.6z"/>
		<path fill="none" d="M1245.3,1065.6c0.4,0,0.7-0.1,1.1-0.1c3-0.5,5.7-1.7,8.3-2.9c-2.6,1.3-5.3,2.4-8.3,2.9
			C1246.1,1065.5,1245.7,1065.6,1245.3,1065.6z"/>
		<path fill="none" d="M1205.3,1049.9L1205.3,1049.9c0-0.1,0-0.1,0-0.2C1205.4,1049.7,1205.3,1049.8,1205.3,1049.9z"/>
		<path fill="none" d="M1203.1,1021.9L1203.1,1021.9C1203,1021.8,1203,1021.9,1203.1,1021.9c4.7,5.3,7.1,11.4,7.6,17.9l0,0
			C1210.2,1033.3,1207.8,1027.2,1203.1,1021.9z"/>
		<path fill="none" d="M1222.9,1023.6L1222.9,1023.6c0.2-1.1,0.3-2.1,0.2-3.2C1223.2,1021.5,1223.1,1022.5,1222.9,1023.6
			L1222.9,1023.6c-0.3,3.1-0.5,6.4-0.5,9.8C1222.4,1030,1222.6,1026.7,1222.9,1023.6z"/>
		<path fill="none" d="M1243.5,1065.6c0.2,0,0.4,0,0.6,0C1243.9,1065.7,1243.7,1065.6,1243.5,1065.6z"/>
		<path fill="none" d="M1236,1022.2c-6.5,5.6-10.9,12.8-12.3,21.9l0,0C1225.1,1035,1229.5,1027.8,1236,1022.2z"/>
		<path fill="#434343" d="M1269.1,1024c-0.3-3.4-0.8-6.2-1.8-8.5c-2-4.6-5.8-7.5-13.1-11c-11.1-5.3-24.3-16.6-33.2-22.2
			c-3.3-2.1-5.6-3.9-7.5-5c-0.7,0.3-1.4,0.6-2.1,0.9c0.7-0.3,1.5-0.5,2.1-0.9c-3.1-1.8-5.4-2-10.6,0.5c-8.2,4-13.9,10.4-16.4,15.9
			s-1.6,9-1.6,9s-1,0.3-2.4,0.5c-0.6,0.1-1.2,0.2-1.9,0.3c-0.9,0.1-2,0.2-3,0.3c-3.9,0.2-4.3-0.6-9.2,0c-1.1,0.1-2.2,0.7-3.2,1.5
			l0,0c-3.6,2.8-6.4,9.1-6.2,15.9c0.2,8.7,0.9,15.5,10.1,28.3c0,0,6.3,10.4,23.8,10.9c0.8,0,1.5,0,2.3,0l0,0
			c15.6-0.6,19.1-12.1,19.1-12.1s13.3,17.9,19.5,20.8c5.4,2.6,13.1,1.9,22.2-7.3l0,0c1.3-1.3,2.6-2.7,3.9-4.3
			c3.1-3.8,5.3-7.4,6.8-10.8C1270.2,1038.5,1269.8,1031.3,1269.1,1024z M1194.1,1004c0.4-0.1,0.9-0.2,1.3-0.3
			C1195,1003.8,1194.6,1003.9,1194.1,1004c-0.3,0.1-0.6,0.2-1,0.3C1193.5,1004.2,1193.8,1004.1,1194.1,1004z M1186,1011
			c0,0.4-0.1,0.7-0.3,1C1185.9,1011.8,1186,1011.4,1186,1011z M1207.1,1007.9c1.9,1.5,3.8,3.2,5.7,4.8c1.3,1.1,2.8,2.1,4,3.3
			c-1.2-1.2-2.7-2.2-4-3.2C1210.9,1011.1,1209,1009.4,1207.1,1007.9z M1214.9,1009.8c-4.1-3.6-9.1-8.4-14.6-10
			c-1-1.8-2.8-3.1-4.9-3.9c2.1,0.8,3.9,2.1,4.9,3.9C1205.8,1001.3,1210.8,1006.2,1214.9,1009.8z M1205.5,980.3
			c0.7-0.4,1.5-0.7,2.3-0.9C1207,979.6,1206.2,979.9,1205.5,980.3c-1.8,0.9-3.5,1.8-5.2,2.8C1201.9,982,1203.7,981.1,1205.5,980.3z
			 M1178.9,1008.5c-0.8-0.7-1.7-1.3-2.6-1.8C1177.2,1007.2,1178.1,1007.8,1178.9,1008.5z M1173.6,1005.6c-1.8-0.5-3.9-0.7-5.9-0.6
			C1169.7,1004.9,1171.8,1005.2,1173.6,1005.6z M1197.4,1059.7c0.1,0,0.2-0.1,0.2-0.1c1.4-0.5,2.5-1.2,3.5-1.9
			c-0.9,0.7-2.1,1.3-3.5,1.9C1197.5,1059.7,1197.5,1059.7,1197.4,1059.7z M1205.3,1049.9c0-0.1,0-0.1,0-0.2
			C1205.4,1049.7,1205.3,1049.8,1205.3,1049.9L1205.3,1049.9z M1203.1,1021.9L1203.1,1021.9C1203,1021.8,1203,1021.9,1203.1,1021.9
			c4.7,5.3,7.1,11.4,7.6,17.9l0,0C1210.2,1033.3,1207.8,1027.2,1203.1,1021.9z M1222.9,1023.6L1222.9,1023.6
			c0.2-1.1,0.3-2.1,0.2-3.2C1223.2,1021.5,1223.1,1022.5,1222.9,1023.6L1222.9,1023.6c-0.3,3.1-0.5,6.4-0.5,9.8
			C1222.4,1030,1222.6,1026.7,1222.9,1023.6z M1223.7,1044.1L1223.7,1044.1c1.4-9.1,5.8-16.3,12.3-21.9
			C1229.5,1027.8,1225.1,1035,1223.7,1044.1z M1228.4,1050.1c0,2.2,0.1,4.3,0.6,6.4c0.1,0.2,0.2,0.3,0.4,0.4
			c-0.1-0.2-0.2-0.3-0.4-0.4C1228.6,1054.5,1228.4,1052.3,1228.4,1050.1z M1243.5,1065.6c0.2,0,0.4,0,0.6,0
			C1243.9,1065.7,1243.7,1065.6,1243.5,1065.6z M1246.4,1065.5c-0.4,0.1-0.7,0.1-1.1,0.1C1245.7,1065.6,1246.1,1065.5,1246.4,1065.5
			c3-0.5,5.7-1.7,8.3-2.9C1252.1,1063.8,1249.4,1064.9,1246.4,1065.5z M1244.2,1065.7c0.4,0,0.7,0,1.1,0
			C1244.9,1065.7,1244.5,1065.7,1244.2,1065.7z"/>
	</g>
	<path opacity="0.3" fill="#091426" enable-background="new    " d="M1255.9,1061.9c-9.1,9.2-16.8,9.9-22.2,7.3
		c-6.2-3-19.5-20.8-19.5-20.8s-3.5,11.6-19.1,12.1c0.8-0.3,1.7-0.6,2.5-0.9c5-1.9,6.5-4.7,7.7-9.8c2.2-8.9,2.3-19.1-3.6-26.6
		c-0.7-0.9,0.5-2.3,1.3-1.4c4.7,5.3,7.1,11.4,7.6,17.9c0.4-0.9,0.8-1.8,1.1-2.7c1-2.3,1.9-4.6,2.9-6.9c1.3-2.9,3.7-6.1,4-9.2
		c0.5-4.2-3.3-6.1-6-8.3c-2.5-2.1-4.9-4.3-7.6-6.2c-3.2-2.2-7.2-3.6-11-2.5c-2.4,0.7-8.8,3.5-8.2,6.8c0.2,1.2-1,2.3-2.1,1.6
		c-3.4-2-5.5-5.3-9.4-6.6c-2.7-0.9-6.3-1.2-9.4-0.5c1-0.8,2.1-1.4,3.2-1.5c4.9-0.6,5.2,0.2,9.2,0c1.1,0,2.1-0.1,3-0.3
		c0.7-0.1,1.4-0.2,1.9-0.3c1.5-0.3,2.4-0.5,2.4-0.5s-0.9-3.5,1.6-9c2.5-5.6,8.2-11.9,16.4-15.9c5.1-2.5,7.4-2.3,10.6-0.5
		c-2.5,1.2-5.5,1.8-8,3c-3.6,1.8-7.3,3.7-10.3,6.5c-2.6,2.5-4.5,5.5-6.2,8.6c4.2-0.8,9.4,0.9,11.3,4.4c5.9,1.6,11.3,7.2,15.6,10.9
		c3.1,2.6,6.2,4.7,7,8.8c0.3,1.3,0.2,2.7-0.1,4v0.1c-0.7,6.4-0.8,13.7,0.7,20.5c1.8-11.4,8.2-19.8,17.8-25.9c1.1-0.7,2.4,1,1.4,1.8
		c-6,5.4-11,13.3-13.1,21.1c-1.2,4.3-1.8,10.3-0.7,15.4c0.4,0.6,0.9,1.1,1.3,1.7c4,4.6,9.8,8.4,16.1,7.3
		C1249.9,1064.9,1252.9,1063.4,1255.9,1061.9z"/>
	<path opacity="0.3" fill="#091426" enable-background="new    " d="M1269.1,1024c-0.3-3.4-0.8-6.2-1.8-8.5
		c-2.3-2.7-5.7-4.1-10.1-2.4c-1.3,0.5-1.2,2.8,0.3,2.6c7.5-1,7.6,11.1,7.9,16c0.3,5.2,1.3,10.1,1.1,15.2
		C1270.2,1038.5,1269.8,1031.3,1269.1,1024z"/>
	<path opacity="0.3" fill="#091426" enable-background="new    " d="M1180.5,1018c-6.7-6.4-15.1-5.7-16.6-1.5s-2.4,11.2,6.6,23
		c15,19.8,27.6,11.4,28,4.9C1198.8,1038.1,1187.2,1024.4,1180.5,1018z"/>
	<g>
		<path fill="#888888" d="M985,958.5c0,0-10.7,2.1-24.9,2.9c-1.2,0.1-2.4,0.1-3.6,0.2c0,0-1.9,0.6-4.8,2c-0.9,0.4-1.9,0.9-2.9,1.5
			c-2.9,1.6-6.3,3.7-9.7,6.6c-1.1,0.9-2.1,1.9-3.2,2.9c-0.7,0.7-1.4,1.4-2.1,2.2c-1.6,1.8-3.2,3.7-4.6,5.9c0,0-1.9-8.2-4.1-11.6
			s-11.9-6.1-21.4,3l13,38.8c0,0,2.2,1.7,8.9-0.6s9.5-6.3,7.4-11.9c0,0,3.4-0.3,7-1.5s41.6-20.5,41.6-20.5s5.2,0.1,6.8-5.4
			S985,958.5,985,958.5z"/>
		<path opacity="0.3" fill="#091426" enable-background="new    " d="M925.1,971c-2.2-3.4-11.9-6.1-21.4,3l13,38.8
			c0,0,2.2,1.7,8.9-0.6s9.5-6.3,7.4-11.9c0,0,3.4-0.3,7-1.5s41.6-20.5,41.6-20.5s5.2,0.1,6.8-5.4s-3.4-14.4-3.4-14.4
			s-10.7,2.1-24.9,2.9c0.1,1.5,0.3,3.6,0.5,5.8c0.4,4.1-2,2.8-2,2.8s-0.4-1.4-4.8-5.2c-0.6-0.5-1.3-0.9-2-1.2
			c-0.9,0.4-1.9,0.9-2.9,1.5c4.3,1.9,7.2,6.7,7.2,6.7l-8,6.2c0,0-1.3-2.5-6.9-5.4c-0.7-0.3-1.3-0.6-1.9-0.8
			c-1.1,0.9-2.1,1.9-3.2,2.9c4.8,1.9,9.7,4.9,9.7,4.9l-5.7,5.9c0,0-0.7-1.2-6-8.6c-1.6,1.8-3.2,3.7-4.6,5.9
			C929.2,982.6,927.4,974.4,925.1,971z"/>
		<path fill="#434343" d="M919.3,1004.4c-0.2-1.7-0.6-3.6-1.1-5.5c-0.1-0.5-0.3-1.1-0.5-1.6c-0.3-1-0.6-2-1-3
			c-0.3-0.8-0.6-1.5-0.9-2.3c-0.5-1.2-1-2.4-1.5-3.6c-0.5-1.2-1.1-2.3-1.6-3.5c-0.6-1.2-1.2-2.4-1.8-3.5c-0.4-0.7-0.8-1.5-1.2-2.1
			c-0.2-0.3-0.4-0.6-0.5-0.9c-0.6-0.9-1.2-1.7-1.8-2.4c-0.8-0.9-1.7-1.6-2.6-2.2c-1.4-1-3-1.6-4.6-2.1c-1.9-0.5-4-0.7-6.2-0.7
			c-6.2,0.1-10.5,1.5-14.3,2.5c-0.2,0-0.3,0.1-0.5,0.1c-2,0.5-3.8,0.9-5.5,2s-3.4,2.9-5.2,6.4c-3.7,7-4.9,12.4-1.1,27.5
			c0.7,2.7,2.1,6.4,4,9.5c1.3,2.2,2.8,4,4.5,5.1c4.1,2.7,11.4,2.4,18.1,0s10.6-4.3,18.6-6.4C920.6,1015.7,920.3,1012.5,919.3,1004.4
			z"/>
		<path opacity="0.3" fill="#091426" enable-background="new    " d="M875.9,1024.2c4.1,2.7,11.4,2.4,18.1,0s10.6-4.3,18.6-6.4
			c8-2.1,7.7-5.3,6.8-13.4c-0.2-1.7-0.6-3.6-1.1-5.5c-2.3,0.6-4.6,1.2-6.9,1.8c-2.8,0.7-5.7,1.1-8.4,2.2c0-0.1,0-0.2,0-0.3
			c0-1.1-0.1-2.2-0.2-3.3c3,0,6-0.6,8.9-1.1c2-0.3,4-0.5,6-0.9c-0.3-1-0.6-2-1-3c-1.9,0.3-3.9,0.8-5.8,1.2c-2.8,0.5-5.7,1-8.4,2
			c-0.1-1-0.3-2-0.6-3c2.2-0.1,4.5-0.8,6.6-1.2c2.4-0.4,4.9-0.7,7.3-1.2c-0.5-1.2-1-2.4-1.5-3.6c-2.3,0.4-4.5,1.1-6.7,1.5
			c-2.1,0.4-4.5,0.5-6.5,1.4c-0.4-1.3-1-2.6-1.6-3.8c3.2-0.2,6.6-1.3,9.6-2c1-0.2,2.3-0.4,3.6-0.6c-0.6-1.2-1.2-2.4-1.8-3.5
			c-0.7,0.2-1.4,0.4-2,0.6c-3.5,0.8-7.5,1.5-10.7,3.2c-0.8-1.2-1.7-2.4-2.7-3.5c2.6-0.2,5.1-1,7.7-1.7c2-0.6,4.1-1,6.1-1.6
			c-0.6-0.9-1.2-1.7-1.8-2.4c-4.5,1.3-8.9,3-13.3,4.4c-0.5-0.5-1.1-0.9-1.7-1.3c-0.3-0.2-0.7-0.5-1.1-0.7c2.1-0.7,4.2-1.6,6.3-2.4
			c2.3-0.8,4.9-1.2,7.2-2.2c-1.4-1-3-1.6-4.6-2.1c-1.4,0.5-2.7,1.1-4,1.6c-2.6,1-5.3,2-7.7,3.4c-2.8-1.4-5.8-2.5-8.8-3.1
			c-0.2,0-0.3,0.1-0.5,0.1c-2,0.5-3.8,0.9-5.5,2c3.4,1,6.8,2.4,10.1,3.8c4.3,1.8,7.9,3.8,10.3,8c1.7,3,2.7,6.6,3.3,10
			c1.5,7.9-0.7,15.7-7.6,20.5c-2.9,2-6.6,3.5-10.1,3.7c-3.1,0.2-5.7-1.2-8.3-2.5C872.7,1021.2,874.2,1023.1,875.9,1024.2z"/>
	</g>
	<path fill="#999DA2" d="M908.5,962.5c0,0,4.7-0.1,6.6,0.1c0,0,0.9,5.9,1.1,6.8s-3.2,2.6-4.8,2.1s-1.3-1.6-1.9-4
		C908.8,965.2,908.5,962.5,908.5,962.5z"/>
	<g>
		<path fill="#25184E" d="M1508,1147c0,0-3.4,10.2-14.2,15.2c-8.6,4-38.7,0.9-60.6-5.1c-5.3-1.5-10.2-3.1-14.1-4.8
			c-20-8.9-39.8-23.2-51.5-36.7c-11.6-13.5-9.7-38.1-9.7-38.1s-5.2-3.3-9.8,0.1c-4.6,3.4-7.4,8.7-6.7,23.9
			c0.2,4.7-0.3,12.6-1.8,21.2c-2.7,14.8-8.6,31.6-19.6,37.4c-3.2,1.7-6.9,2.5-11.1,2c-26.5-3.3-66.4-34.2-85.3-47.4
			c-15.4-10.8-46.8-36.6-70-57.3c-3.9-3.5-7.6-6.8-10.9-9.9c-1.2-1.1-2.3-2.2-3.4-3.2c-11.3-10.7-18.6-18.4-23.2-23.4
			c-4.4-4.9-6.2-7.2-6.2-7.2c-9.7-11.7-18.6-20.5-25.3-26.7c-1.3-1.2-2.4-2.2-3.5-3.2c-2.1-1.9-4-3.4-5.4-4.7
			c-6.1-5.1-10.2-8.5-12.7-11.5c-2.5-2.9-0.6-21.4-0.6-21.4s-5.9,2.4-14.5,4.5c-9.5,2.4-15.9,3.9-30,5.3
			c-14.1,1.4-34.4,3.6-34.4,3.6s1.3,0.6,2,5c0.6,4.4-0.1,5.7-2,7.7c-0.9,1-7.7,5.5-15.8,11c-0.5,0.3-1,0.7-1.5,1
			c-7.4,5-15.6,10.6-21.4,15c-1.6,1.2-3,2.3-4.2,3.3c-3.2,2.6-7.4,6-12.3,9.9c-11.8,9.3-27.7,21.4-43.6,32.9
			c-22.5,16.3-38.4,24.9-64.9,42.9c-9.2,6.2-19.7,13.2-30.5,20.3c-20.2,13.4-41.1,27.3-54.7,37.8c-20.9,16.1-58.2,46-70.1,61.7
			c-6.2,8.2-10.1,15.3-12.6,22.5c-2.3,6.6-3.5,13.4-4.2,21.3c-0.8,8.4-1.4,15.2,0.2,23.7c1.6,8.3,5.2,18.3,12.7,33
			c15.2,29.7,35.7,52.6,58.3,71.4s48.6,34.7,60.9,41.7c5.5,3.1,12.8,6.9,20.1,11.2c9.3,5.4,18.6,11.4,24,17.2
			c9.8,10.3,11,15.5,19.5,19.6c8.4,4.1,13.1,1.1,13.6-7c0,0-7.8-6.3-11.3-10.9c-4.8-6.1-4.5-21.2-1.7-31.2s12.1-27,28.9-37.2
			c16.8-10.1,52.9-21.3,52.9-21.3c17.4-3.5,36.3-2.3,43.3-1s17.1,15,17.1,15s2.3-3,2.7-7.8c0.2-2.2,0-4.7-0.9-7.5
			c-3.1-8.8-9.2-9.8-21.5-19.7c-3.3-2.6-6.6-5.4-9.6-8c-1.8-1.5-3.5-3-5.1-4.4c-3.7-3.2-6.7-5.9-8.5-7.5c-1.1-1-1.7-1.6-1.7-1.6
			s-1.4-1-3.9-2.8c-13.8-10.1-61-44.4-82.7-59.5c-3.3-2.3-6-4.1-7.9-5.4c-16.8-11-26.7-16.6-26.7-16.6s6.6-10.5,21.3-30.8
			c4-5.6,8.6-11.8,13.9-18.8c24.4-32.6,56.8-74.6,73.2-94.9c0.3-0.4,0.7-0.8,1-1.2c1-1.2,2-2.4,3-3.6c14.6-17.8,26-30.6,26-30.6
			l-2,13.9l-3.3,23l-3.3,23.1l13,16.6l25.9,33l22.6,2.8l147.8,18l4.6,0.6c0,0,32.6,33.2,51.9,51c11.2,10.3,23.5,21.9,38.9,31.7
			c11.1,7.1,23.9,13.1,39,17c35.9,9.2,76.8,9.8,106.3-8s41.2-26.5,69-56.7c10.2-11.1,18.1-19.8,24.2-26.8
			c10.5-12.2,15.8-19.5,18.5-26C1515.9,1157.9,1514.9,1152,1508,1147z"/>
		<path fill="#76D53D" d="M1029.9,1037.7c-10-24.2-48.4-45.5-63.8-53.4c-9.4,6.3-20.1,13.7-25.7,18.2c-10.7,8.9-33.4,26.5-55.8,42.8
			c-22.5,16.3-38.4,24.9-64.9,42.9c-9.2,6.2-19.7,13.2-30.5,20.3c62.1-28.6,99.8-39,143.3-22.8c14.6-17.8,26-30.6,26-30.6l-2,13.9
			c3.4,2.3,8.2,7.4,9.8,18.3c2,13.8-1.6,35.5-3.3,44.3l25.9,33l22.6,2.8c6.8-7.8,14-20.5,18.4-40.9
			C1040.1,1079.3,1042.5,1068.2,1029.9,1037.7z"/>
		<path fill="#76D53D" d="M713.2,1296.3c-29.1-3.7-46-6.9-65.6-20.7c1.6,8.3,5.2,18.3,12.7,33c15.2,29.7,35.7,52.6,58.3,71.4
			s48.6,34.7,60.9,41.7c5.5,3.1,12.8,6.9,20.1,11.2c30.3-26.6,6.8-84,33.4-90.9c6.3-1.6,113.9-12.8,118.4-13.4
			c-3.7-3.2-6.7-5.9-8.5-7.5l-132.2-46.9C810.9,1274.2,748.2,1300.8,713.2,1296.3z"/>
		<path fill="#76D53D" d="M1364,1169.2c-20.5-20.6-23.8-29.2-24.3-46.5c-2.7,14.8-8.6,31.6-19.6,37.4c-0.8,7.9-1.7,21.8,0.2,30.3
			c2.7,12.4,11.5,20.9,11.5,20.9c-7.9,33.3-25.1,50.3-46,55c-10.9,2.5-22.4,2.7-31,2.4c11.1,7.1,23.9,13.1,39,17
			c35.9,9.2,76.8,9.8,106.3-8s41.2-26.5,69-56.7c10.2-11.1,18.1-19.8,24.2-26.8C1458,1205.2,1388.1,1193.4,1364,1169.2z"/>
		<path fill="#76D53D" d="M1088.7,1130.1l45.4,13.7c0,0-5.5-25.2-10.2-37.1c-4.7-12,1.2-20.3,1.2-20.3s-21.1-36.2-5-41.1
			c7.9-2.4,16.3-0.5,22.7,2c-1.2-1.1-2.3-2.2-3.4-3.2c-22.4-21.2-29.3-30.7-29.3-30.7c-11.5-13.9-21.9-23.7-28.8-29.9
			c-3.3,24.3-12.3,31.8-14.6,57.9C1064.2,1070.1,1072.3,1086.1,1088.7,1130.1z"/>
		<path opacity="0.3" fill="#091426" enable-background="new    " d="M939.3,1328c7.4,1.6-2.4,19.3-8,27.9c-0.9,0.3-1.7,0.6-2.6,0.9
			c-16.4,5.4-32.8,10.7-49.1,16.4c1.9-2.9,0.4-7.8-4.1-8.1c-3.1-0.3-6.2-0.5-9.4-0.6c-0.9-1-2.1-1.8-3.6-2.1
			c-5.2-1.3-9.5,0.1-13.2,2.8c-8.8,1.2-17.1,4.2-24.4,10.3c-7.6,6.4-12.1,15.9-15.1,25.9c-4.7,8.4-7.3,17.4-5.2,26.5
			c-2.8-2.7-5.6-5.4-8.4-8.1c-1.8-1.7-3.7-2.4-5.5-2.4c-0.8-4.3-1.2-8.8-1.1-13.2c1.2-6.5,2.4-13.1,3.6-19.6c0.4-2,0.1-3.7-0.5-5.1
			c5.7-13.1,11.2-26.2,15.8-39.8c1.7-5-4.2-8.2-8-6.1c-0.1,0-0.1-0.1-0.2-0.1c-3.5-21.8,7.2-43.4,26.9-54c5.5-2.9,4.3-11.9-1.7-13.4
			c-24.8-6-42.4,16.3-49.2,37.4c-4.9,15.1-5.7,34.5,2.1,49c-2.1,4.1-4,8.2-5.9,12.4c-2.4,5.4-4.6,10.9-6.6,16.4
			c-23.8-9.7-45.5-24.1-63.7-42.2c-11.1-11-20.9-23.3-29-36.7c-4.4-7.3-8.6-15-11.7-23c-3.5-9.2-5.3-18.9-6.8-28.6
			c-1-6.7-2-13.3-2.9-20c-2.3,6.6-3.5,13.4-4.2,21.3c-0.8,8.4-1.4,15.2,0.2,23.7c1.6,8.3,5.2,18.3,12.7,33
			c15.2,29.7,35.7,52.6,58.3,71.4s48.6,34.7,60.9,41.7c5.5,3.1,12.8,6.9,20.1,11.2c9.3,5.4,18.6,11.4,24,17.2
			c9.8,10.3,11,15.5,19.5,19.6c8.4,4.1,13.1,1.1,13.6-7c0,0-7.8-6.3-11.3-10.9c-4.8-6.1-4.5-21.2-1.7-31.2s12.1-27,28.9-37.2
			c16.8-10.1,52.9-21.3,52.9-21.3c17.4-3.5,36.3-2.3,43.3-1s17.1,15,17.1,15s2.3-3,2.7-7.8c-4.5-6.9-11.4-12.2-19.4-15.1
			c-5.7-2.1-11.3-2.5-16.8-2.1c2-4.6,3.3-9.5,3.9-14.5c0.1-1.2,0.2-2.3,0.2-3.5c-1.8-1.5-3.5-3-5.1-4.4c-3.7-3.2-6.7-5.9-8.5-7.5
			c-1.1-1-1.7-1.6-1.7-1.6s-1.4-1-3.9-2.8c-0.3,0.3-0.7,0.5-1,0.9C933.3,1320.7,934.5,1327,939.3,1328z"/>
		<path opacity="0.3" fill="#091426" enable-background="new    " d="M806,1214.8c-3.5-2.4-6.9-5.2-10.4-7.9
			c-5.6-4.3-11.8-7.5-18.3-10c-5-2-13.2-5.4-17.9-1.3c-0.5,0.4-0.4,1.2,0,1.6c1.8,2.3,4.6,2.9,7.3,3.6c3.7,1,7.5,2,11,3.7
			c6.5,3.1,11.6,8.2,16.5,13.4c-2.4,0.7-4.9,1.5-7.3,2.3c-10.7-1.8-21.3-2.9-32.2-3.1c-8.8-0.1-21.3-0.7-26.8,7.5
			c-0.6,0.8,0.4,1.7,1.2,1.6c4.8-0.9,9.5-2.4,14.4-2.5c5.5-0.1,10.9,0.7,16.3,1.8c10.8,2.1,21.7,4.3,32.2,7.7
			c10.3,3.3,20.5,6.9,30.3,11.3c5.2,2.3,10.1,5.2,15.1,7.8c5.3,2.8,9.8,6.6,16,5.3c0.4-0.1,0.9-0.2,1.3-0.5c-3.3-2.3-6-4.1-7.9-5.4
			c-16.8-11-26.7-16.6-26.7-16.6s6.6-10.5,21.3-30.8c-8.3,3.7-17.2,6.1-26,8.2C812.2,1213.3,809.1,1214.1,806,1214.8z"/>
		<path opacity="0.3" fill="#091426" enable-background="new    " d="M959.7,1092.2c0.4,2.6,0.7,5.1,0.9,7.7
			c-1.3-0.4-2.5-0.6-3.8-0.5c-2.2,0.2-4.5,1.8-4.3,4.3c0.3,5.2,4.5,8.9,8.1,12.3c0.4,1.7,1.7,2.9,3.2,3.5c0.1,0.1,0.1,0.2,0.2,0.3
			c0.9,1.7,2.4,2.6,4,2.9c1.5,1.4,2.9,2.8,4.4,4.3c3.5,3.6,6.7,7.4,9.4,11.6c2.8,4.4,4.1,10,7.6,13.9c4.2,4.6,10.7,0.6,11.2-4.7
			c0.5-5.3-3.3-11.4-6.1-15.7c-3-4.7-6.7-9.2-10.5-13.3c-2.5-2.6-5.1-5.1-7.7-7.5c-0.2-3.2-0.8-6.4-1.1-9.4
			c-0.5-5.8-0.9-11.7-1.4-17.5c-0.4-5.5-0.9-11.1-1.4-16.6c-0.2-1.5-0.3-3-0.5-4.5c0.7-1.5,1.3-3,2.1-4.5c2.2-4.5,4.5-8.9,6.8-13.2
			c2.3-4.3,5.4-9.2,6.2-14c0.7-4.1-3.1-7.4-7-5.4c-1.3,0.7-2.5,1.5-3.6,2.4c-1.1-3.9-3-7.7-5.5-11.3c-0.4-0.5-0.8-1.1-1.2-1.6
			c-2.2-5-4.6-9.9-7.6-14.4c-3.1-4.7-8.5-3.8-11.1-0.5c-2-0.6-4.1-1.1-6.2-1.4c-1.6,1.2-3,2.3-4.2,3.3c-3.2,2.6-7.4,6-12.3,9.9
			c3.9-0.4,7.8-0.4,11.7,0.1c5.2,0.7,10.1,2.1,13.8,5.9c1.1,1.1,2.3,2.4,3.4,3.8c1.8,3.9,4.9,9.1,4.6,13.4
			c-0.3,3.8-2.2,7.8-3.9,11.5c-0.2,0.3-0.4,0.5-0.6,0.8c-4.5,5.7-8.8,11.7-12.8,17.7c-5.2,7.7-10.1,15.7-14.8,23.7
			c1-1.2,2-2.4,3-3.6c14.6-17.8,26-30.6,26-30.6l-2,13.9l-3.3,23C955.3,1092.9,957.7,1093.1,959.7,1092.2z"/>
		<path opacity="0.3" fill="#091426" enable-background="new    " d="M987.9,989.9c10.6,1.7,21.2,1.8,31.9,1.5
			c7.4-0.2,14.7-0.6,22-1.3c0.2,0.7,0.4,1.5,0.6,2.2c1.5,5.4,2.6,10.9,3.5,16.4c1.8,11.2,2.6,22.5,3.6,33.8
			c1.9,20.8,4.4,41.7,7.5,62.3c-3.7,0.1-7.5,0.3-11.3,0.7c-1-2.5-2-5-3-7.4c-2.5-6.3-5.1-12.6-7.8-18.9c-2.8-6.5-5.8-12.9-9-19.2
			c-1.6-3.3-3.2-6.6-5.1-9.8c-1.7-2.9-4.2-4.6-6.3-7.2c-0.4-0.5-1.2,0-1,0.6c0.9,3.2,0.9,6.4,2.3,9.5c1.2,2.8,2.5,5.6,3.8,8.5
			c3,6.8,5.7,13.6,8.3,20.5c2.4,6.3,4.4,12.7,6.4,19.2c0.6,1.9,1.1,3.8,1.6,5.7c-0.1,0-0.2,0-0.3,0.1c-4.5,1-4.5,6.8-1.2,9.1
			c1.3,0.9,2.7,1.4,4.1,1.6c0.3,1.4,0.7,2.7,1.1,4.1c2,7,12.9,4,10.9-3c-0.2-0.6-0.3-1.1-0.5-1.7c3.2-0.2,6.3-0.3,9.5-0.3
			c4.5,0,9.1,0.1,13.6,0.4c5,0.2,10.1,1.1,15.1,0.1c5.8-1.1,4.8-9.2,0-10.8c-0.3-0.1-0.5-0.2-0.8-0.2c0.5-3.9,0.6-8.1,1.1-11.8
			c0.8-6.6,1.4-13.3,1.6-19.9c0.3-13.2,0.7-26.5,0.4-39.7c-0.3-12.7-2.3-25.2-4.2-37.7c-0.5-3.5-1.1-7-1.5-10.5
			c-1.3-1.2-2.4-2.2-3.5-3.2c-2.1-1.9-4-3.4-5.4-4.7c-6.1-5.1-10.2-8.5-12.7-11.5c-2.5-2.9-0.6-21.4-0.6-21.4s-5.9,2.4-14.5,4.5
			c-9.5,2.4-15.9,3.9-30,5.3c-14.1,1.4-34.4,3.6-34.4,3.6s1.3,0.6,2,5c0.6,4.4-0.1,5.7-2,7.7c-0.9,1-7.7,5.5-15.8,11
			c1.9,1,3.9,1.8,5.7,2.5C978,987.8,982.9,989.1,987.9,989.9z M1050.6,989c6.2-0.9,13.7-1.9,20.3-4c0.4,4.4,1.1,8.7,1.7,13.1
			c1.9,12.9,4,25.7,4.2,38.8c0.2,12.9-0.1,25.9-0.5,38.7c-0.2,6.6-0.8,13.2-1.6,19.8c-0.4,3.2-1,6.5-1,9.7
			c-3.9-0.2-7.9-0.3-11.8-0.4c-2.9-22.4-6.9-44.5-8.8-67c-0.9-10.7-1.9-21.4-3.8-32c-1-5.4-2.2-10.8-3.7-16.1
			C1047.2,989.5,1048.9,989.3,1050.6,989z"/>
		<path opacity="0.3" fill="#091426" enable-background="new    " d="M1215.8,1237c11.2,10.3,23.5,21.9,38.9,31.7
			c11.1,7.1,23.9,13.1,39,17c35.9,9.2,76.8,9.8,106.3-8s41.2-26.5,69-56.7c10.2-11.1,18.1-19.8,24.2-26.8
			c10.5-12.2,15.8-19.5,18.5-26c4.2-10.2,3.2-16.2-3.7-21.2c0,0-3.4,10.2-14.2,15.2c-8.6,4-38.7,0.9-60.6-5.1
			c0.1,0.7,0.2,1.4,0.3,2.1c0.9,7.3-1.1,14.8-3.9,21.4c-5.7,13.8-15.8,25.2-25.9,36c-5,5.3-10,10.8-15.5,15.6
			c-5.7,5-12.4,8.8-19.2,12.2c-13.8,7-28.5,12.4-43.7,15.6c-7.8,1.6-15.7,2.6-23.5,2.7c-1.8-0.2-3.5-0.4-5.3-0.7
			c-9.8-1.5-19.7-3.9-28.6-8.3c-9-4.4-17-10.4-24.7-16.9c-14.7-12.4-29.6-25.4-41.6-40.5c-12.8-16-19.4-34.7-25.1-54.1
			c-2.9-9.8-4.9-21.5-11.4-29.6c-3.8-4.7-9.4-8.5-15.5-10.5c-2-5.7-4.7-11.3-6.4-17.3c-3-10.7,1.9-20.8,10.2-27.7
			c-3.9-3.5-7.6-6.8-10.9-9.9c-1.2-1.1-2.3-2.2-3.4-3.2c-11.3-10.7-18.6-18.4-23.2-23.4c-2.2,1.4-3.7,4-3.3,7.3
			c1,7.3,1,15.5,2.6,22.9c-1.4,0.8-2.5,2.4-2.4,4.1c0.4,11.2,9.8,20.9,13.6,31.1c4.2,11.3,8,22.8,12.1,34.2
			c2.7,7.6,12.8,5.9,13.6-1.8c0.2-1.6,0.2-3.1,0.1-4.6c2.8,2.5,4.6,5.6,6.1,9.3c1.4,3.4,2.5,6.9,3.5,10.4c-2.5,0.7-4.7,2.8-5.1,6.4
			c-1.5,13.3-1,26.6,1.2,39.8c0.3,1.8,0.7,3.8,1.2,5.7l4.6,0.6C1163.9,1186,1196.5,1219.2,1215.8,1237z"/>
	</g>
	<g>
		<path fill="#434343" d="M1037.3,1129.2l0.8-7.5c0,0-3.5-39.5-13.8-65.7c-10.3-26.2-18.1-41.7-24.8-54.5
			c-3.9-7.4-8.7-15.7-12.7-21.4c-2.9-4.2-5.5-7-7-7.2c-3.6-0.5-16.6,2.4-27.7,8.7s-12.8,8.5-13.1,11.9c-0.2,3.4,0,10.6,0,10.6
			l6.4-4.5c0,0,15.1,16.7,24.5,40.1c9.4,23.4,14.2,49,15.7,54.5s4.5,25.2,4.4,45.9c0,0.7,0,1.4,0,2.2c0.1,12.7,2.2,30.5,5,43.1
			c1.9,8.4,4.1,14.4,6.4,14.9c5.9,1.2,35,0,35,0l-0.6-22l-0.8-28.3l0.9-8L1037.3,1129.2z"/>
		<path opacity="0.3" fill="#091426" enable-background="new    " d="M1033.4,1129.4c-0.5-12.6-3.2-25.6-5.5-37.6
			c-3-15.4-7.1-30.8-12.2-45.6c-4.9-14.2-10.9-28-17.8-41.3c-3.9-7.5-9-16.2-15.6-22.3c0.9-0.1,1.7-0.5,2.1-1.4
			c0.1-0.2,0.2-0.5,0.4-0.7c0.5,0,1.1-0.1,1.6-0.1c0.2,0,0.4-0.1,0.5-0.1c-2.9-4.2-5.5-7-7-7.2c-3.6-0.5-16.6,2.4-27.7,8.7
			s-12.8,8.5-13.1,11.9c-0.2,3.4,0,10.6,0,10.6l6.4-4.5c0,0,15.1,16.7,24.5,40.1s14.2,49,15.7,54.5s4.5,25.2,4.4,45.9
			c0,0.7,0,1.4,0,2.2c0.3,0,0.7,0,1,0.1c1.6,0.1,3.2,0.2,4.8,0c0.6,0,1-0.5,0.9-1.2c-0.4-1.5-1.3-2.8-1.8-4.3
			c-0.1-0.3-0.2-0.6-0.2-0.9c0.4-0.4,0.8-0.9,0.9-1.4c5,0.2,9.9,0.5,14.9,0.6c1.2,0,2.4,0,3.6,0c1,1.8,1.6,3.6,1.5,5.8
			c0,0.6,0.5,0.9,1,1c6.1,0.7,13,0.7,19.3,0l1.4-12.7C1036,1129.3,1034.7,1129.3,1033.4,1129.4z M1019.8,1069.1
			c0.1,0.2,0.1,0.4,0.2,0.7c-0.8,0.1-1.6,0.5-1.9,1.3c-6.9,1-13.7,2.4-20.4,4.4c-0.1,0-0.2,0-0.3,0c-0.5-1.8-1-3.5-1.6-5.3
			c-1.8-5.9-3.7-11.8-5.9-17.6c7.4,7.9,17.9,14,27.5,17.1c0.8,0.3,1.6,0,2.2-0.5C1019.7,1069.2,1019.7,1069.1,1019.8,1069.1z
			 M1009,1036.6c0.1,0,0.3,0.1,0.4,0.1c1.8,4.8,3.5,9.7,5.1,14.6c1.4,4.2,2.7,8.4,3.9,12.6c-2.6-1.7-5.5-2.9-8-4.6
			c-3.8-2.4-7.5-5-11-7.8c-3.2-2.6-6.2-5.5-9.2-8.4c-1.1-1.1-2.2-2.3-3.3-3.3c2.7-0.3,5.4-1,8.1-1.4c4.3-0.7,8.7-1.2,12.9-2.2
			C1008.2,1036.3,1008.6,1036.4,1009,1036.6z M957.8,986.7c6.4-2.3,13.9-5.1,20.9-4.6c4,2.9,7.3,6.2,10.3,10.7
			c3.3,5.1,6,10.4,8.7,15.9c3,6.2,5.7,12.6,8.3,19c-1.5,0-2.9,1.6-2,3.3c0.1,0.2,0.1,0.4,0.2,0.7c-3.3,0.4-6.5,1-9.8,1.5
			c-3.7,0.6-7.5,1-11,2.5c-3.7-8.9-8-17.5-12.5-26.2c-4-7.7-10.1-17.1-18.6-20.5C954.1,988.1,955.9,987.4,957.8,986.7z
			 M998.4,1129.4c0-0.1,0-0.3-0.1-0.4c0-0.1-0.1-0.2-0.1-0.3c-0.2-0.6-0.5-1.1-1-1.4c-0.1-1.1-0.1-3.2-0.2-3.9
			c-0.2-1.8-0.5-3.6-0.7-5.5c-0.5-3.7-1.1-7.5-1.7-11.2c-1.3-7.7-2.9-15.5-4.7-23.1c-3.5-15-8-29.8-13.1-44.3
			c-4.7-13.2-9.9-26.1-18.9-37c-3.2-3.9-8.4-7.9-13.8-9.4c1.7-0.9,3.5-1.8,5.3-2.7c11.7,3.5,16.6,15.1,21.8,26.1
			c3.2,6.7,6.3,13,8.7,20c1.8,5.3,4,10.4,6.8,15.3c2.4,6.4,4.8,12.7,6.8,19.3c1,3.4,2,6.8,2.9,10.2c-0.1,0.6,0,1.1,0.4,1.5
			c1.3,5,2.5,10.1,3.7,15.2c0.6,3.8,1.4,7.6,1.9,11.4c0.9,6.8,1.7,13.7,2.4,20.5C1002.6,1129.5,1000.5,1129.5,998.4,1129.4z
			 M1013.8,1129.7c-2.4,0-4.8-0.1-7.2-0.1c-0.7-7.2-1.2-14.5-2.2-21.6c-0.6-4.9-1.3-10.4-2.8-15.3c-0.7-3.3-1.4-6.6-2.3-9.8
			c3.3-0.4,6.5-1.8,9.7-2.7c4-1.2,8.2-2,12.2-3.1c0.2,0,0.3-0.1,0.5-0.2c1.3,5.2,2.4,10.3,3.4,15.6c1.5,7.8,2.8,15.6,3.8,23.4
			c0.6,4.5,0.8,9.1,1.2,13.6C1024.8,1129.6,1019.3,1129.8,1013.8,1129.7z"/>
		<path opacity="0.3" fill="#091426" enable-background="new    " d="M1033.9,1177.9c-0.4-0.2-0.8-0.3-1.4-0.3
			c-6.1,0.1-12.1,1.1-18.1,2c-5.7,0.8-12.2,1-17.4,3.7c-0.1,0.1-0.2,0.1-0.3,0.2c-0.7,0.3-1.3,1-1.7,1.9c1.9,8.4,4.1,14.4,6.4,14.9
			c5.9,1.2,35,0,35,0l-0.6-22c-0.4-0.3-1-0.5-1.6-0.4C1034.1,1177.8,1034,1177.8,1033.9,1177.9z M1015.8,1195.2
			c-1.1,0.1-2.2,0.2-3.2,0.4c-1.2,0.2-2.5,0.5-3.7,0.9c-0.1-1.5-0.2-2.9-0.3-4.4s-0.1-3.1-0.3-4.6c2.7-0.6,5.4-1.2,8.2-1.6
			C1015.3,1188.5,1015.4,1191.9,1015.8,1195.2z"/>
		<g>
			<path fill="#888888" d="M1017.1,1055.1c0,0-1.2-0.8-3.6-2.4c-2.4-1.6-6.1-3.9-11-7c-5.2-3.3-9.3-6-11.9-7.9
				c-2.3-1.6-3.6-2.6-3.6-2.6l21.4-4.2l-3.6-9.1l-3.2,0.7l-21.7,4.5c0.8,1.7,1.7,4.2,2.6,6.7c1.5,4.5,2.6,9.1,2.6,9.1
				s9.2,9.5,18.3,14.4c9.1,4.8,15.6,8,15.6,8l-3.5,0.9l-20.6,5.2l1.8,6.2l0.7,2.4l26.4-7L1017.1,1055.1z"/>
			<path opacity="0.3" fill="#091426" enable-background="new    " d="M1023.6,1073.1l-6.6-17.9c0,0-1.2-0.8-3.6-2.4
				c1.1,2.5,2.7,4.8,3.6,7.5c0.2,0.7,0.4,1.3,0.7,2c-5.7-2.2-11.4-5.5-16.3-8.7c-6.2-4-11.3-9.1-16.7-14c1.9-0.5,3.9-1.1,5.8-1.7
				c-2.3-1.6-3.6-2.6-3.6-2.6l21.4-4.2l-3.6-9.1l-3.2,0.7c0.3,0.8,0.5,1.5,0.8,2.3c0.4,1.2,0.9,2.4,1.4,3.6h-0.1
				c-3.4,0.9-6.9,1.6-10.3,2.3c-3.1,0.7-7.5,1.3-11,3c1.5,4.5,2.6,9.1,2.6,9.1s9.2,9.5,18.3,14.4c9.1,4.8,15.6,8,15.6,8l-3.5,0.9
				c1.3,0.3,2.5,0.7,3.8,0.9c0.5,1.5,0.9,3.1,1.4,4.6c-8,1.9-16.6,2.4-24,5.9l0.7,2.4L1023.6,1073.1z"/>
		</g>
	</g>
	<g>
		<path fill="#888888" d="M1047.6,972.1v-0.3c0.1-1.2-3.6-8.4-6.9-12.9c-3.2-4.6-2.8-4.6-4.2-4.2c-1.4,0.4-2.1,0.8-2.6,1.8
			s-0.7,2.5-1.2,5c-1.1,4.8,0,14,0,14s7.9-0.7,11.6-0.9C1047.8,974.3,1047.6,973.3,1047.6,972.1z M1036.3,968.5
			c0-0.5,0.1-1.1,0.2-1.8c0.2-1.3,3.7-1.9,4.6-0.9c0.5,0.6,1.4,2.1,2,3.2c0.4,0.8,0.8,1.5,0.8,1.5h-7.6
			C1036.3,970.6,1036.1,970.2,1036.3,968.5z"/>
		<path opacity="0.3" fill="#091426" enable-background="new    " d="M1032.7,975.4c0,0,7.9-0.7,11.6-0.9c3.4-0.3,3.3-1.2,3.3-2.4
			l-14.1,1c0,0-0.4-7.4,0.4-16.7c-0.5,1-0.7,2.5-1.2,5C1031.6,966.3,1032.7,975.4,1032.7,975.4z"/>
		<path opacity="0.3" fill="#091426" enable-background="new    " d="M1036.2,968.5L1036.2,968.5c0.1-0.5,0.2-1.1,0.3-1.8
			c0.2-1.3,3.7-1.9,4.6-0.9c0.5,0.6,1.4,2.1,2,3.2c1.2-0.7-0.9-4.9-1.9-6c-1.1-1.3-3-0.2-4.4,1
			C1035.4,965.2,1036.4,964.5,1036.2,968.5z"/>
	</g>
	<g>
		<path fill="#434343" d="M1131.3,1170.2l-3.3-23.3l-2.3-16.3h-4.3c0,0,0.1-1.6,0.2-4.4c0.4-9.7,1.4-34.3,2.4-64.2
			c1.1-35.1,0.7-66.8-4.4-77.5c-0.5-1.1-1.1-2-1.7-2.6c-6.7-6.8-33-13.8-41.8-13.7s-10.7,3.6-10.7,3.6s0.8,0.4,5.3,4
			c4.5,3.5,6.9,5.5,8.2,20.4s5.6,25.6,5.5,54.7c-0.1,25.9-1.6,58.7-1.9,65.6c0,0.9-0.1,1.3-0.1,1.3l4.8,11.1l1.6,3.6l16.1,37.2
			c-1.1,0.7-1.8,2-1.7,3.3c0.2,1.3,0,2.5-0.8,3.5c-1.7,3,1.1,6.7,4.5,5.8c1.1-0.3,2.1-0.5,3.2-0.8l4.1,9.5c3.9,0,7.3-0.2,10.2-0.5
			c6-0.7,9.6-1.7,9.6-1.7L1131.3,1170.2z"/>
		<path opacity="0.3" fill="#091426" enable-background="new    " d="M1131.3,1170.2c-0.4-0.2-0.8-0.3-1.3-0.3c-4-0.5-8-1.1-12-1.5
			c-3.8-0.4-7.3,0.4-11,0.3c-0.8,0-1.6,0.2-2.2,0.7l5.1,11.9c3.5-0.8,6.9-1.4,10.5-1.7c0.6,3.7,1.9,7.4,3.8,10.7
			c6-0.7,9.6-1.7,9.6-1.7L1131.3,1170.2z"/>
		<path opacity="0.3" fill="#091426" enable-background="new    " d="M1093.4,1073.4c0.3,0.1,0.5,0.2,0.9,0.2
			c6.9,0.1,13.9-0.1,20.8-0.3c0.3,0,0.6-0.1,0.8-0.2c-0.1,7.7-0.2,15.5-0.3,23.2c-0.1,11,0.3,22.3-1.2,33.3
			c-1.6,1.5-2.8,3.4-3.9,5.4c-0.5,1,0.8,2.2,1.7,1.3c0.7-0.7,1.5-1.4,2.2-1.9c0.4,0.2,1,0,1.1-0.5c0-0.1,0-0.1,0-0.2
			c1-0.6,2-1,3.2-1.4c-2.1,4.4-2.3,9.8-5,14c-0.8,1.2,0.5,2.6,1.8,2.3c1.8-0.4,3.1-1.5,4.1-2.8c-0.1,3.9,5.1,4.7,7.1,2
			c0.4-0.3,0.8-0.5,1.2-0.7l-2.3-16.3h-4.3c0,0,0.1-1.6,0.2-4.4c-1.2,0.3-2.4,0.7-3.5,1.2c-0.6,0.2-1.1,0.5-1.7,0.9
			c1-9.1,0.9-18.2,1-27.3c0.1-11.5,0.2-22.9,0.4-34.4c0.1-11.5,0.2-22.9,0.4-34.4c0.1-11.1,0.9-22.5,0-33.6
			c-0.5-6.3-2.1-12.9-5.6-18.1c1.9,0.8,3.7,1.7,5.4,2.8c0.6,0.4,1.2,0.7,1.7,1.1c-0.5-1.1-1.1-2-1.7-2.6c-6.7-6.8-33-13.8-41.8-13.7
			s-10.7,3.6-10.7,3.6s0.8,0.4,5.3,4c4.5,3.5,6.9,5.5,8.2,20.4s5.6,25.6,5.5,54.7c-0.1,25.9-1.6,58.7-1.9,65.6
			c1.7-6.3,2.1-13.4,2.8-19.8c0.9-7.7,1.5-15.4,1.7-23.1c0.2-9.8,0.3-19.9-0.5-29.8c0-1.1,0-2.3,0-3.4c-0.3-11.8-0.9-23.5-2-35.2
			c-0.8-9.2-1.4-19.1-6.8-26.9c-0.2-0.3-0.4-0.5-0.6-0.8c2.1-0.1,4.1-0.2,6.2-0.1c4.9,6.6,5.9,15.6,6.5,23.8
			c0.7,11,1.3,22.1,1.7,33.1c0.3,8.3,0.5,16.6,0.5,24.8c0,0.1-0.1,0.3-0.1,0.4c-0.1,1.5-0.2,3.4,0,5c0,1.4,0,2.7,0,4.1
			c0,0.1,0,0.3,0,0.4c0,0.2,0,0.3,0,0.4c-0.1,10.2-0.5,20.4-1.3,30.6c-0.7,9.7-2.1,19.2-3.3,28.8l1.6,3.6c1.8-9.5,2.5-19.4,3.3-29
			C1092.8,1093.2,1093.2,1083.3,1093.4,1073.4z M1093.5,1056.5c-0.1-9.3-0.3-18.6-0.8-27.9c6.5,0.8,13,2.6,19.5,3.9
			c0.5,0.1,1,0,1.4-0.3l0,0c0,0,0,0.1,0.1,0.1c-0.8,5.2-3.3,8.8-7.5,12.7C1102,1049,1097.7,1052.7,1093.5,1056.5z M1115.9,1068.5
			c-0.2-0.1-0.3-0.1-0.5-0.1c0.1-1-0.5-2.2-1.9-2.4c-3.8-0.4-7.6-0.9-11.4-1.3c-1.3-0.2-3.3-0.1-4.6-0.5c-0.7,0.2-1.2,0.1-1.5-0.3
			c0-1.3-0.1-2.6-0.2-4c0.2-0.1,0.3-0.1,0.5-0.2c0.6-0.2,1-0.7,1-1.3c5.1-4.4,10.6-8.8,15-13.8c1.9-2.2,3.2-4.4,4-6.7
			C1116.2,1048.1,1116.1,1058.3,1115.9,1068.5z M1091,999.3c-0.6-7.7-1.8-16-6.1-22.4c1.6,0,3.2,0.1,4.8,0.1
			c6.2,0.1,12.7,0,18.7,1.9c0.4,0.1,0.8,0.3,1.2,0.4c4.7,5.6,6.5,13.2,6.9,20.6c0.5,9.2,0.1,18.4-0.1,27.6c-0.1,0-0.3-0.1-0.4-0.1
			c-0.5-0.8-1.9-0.9-2.6-0.3c-0.3-0.1-0.6-0.2-0.8-0.1c-1.4-0.9-3.8-0.9-5.2-1.2c-0.2,0-0.5-0.1-0.7-0.1c-1.4-0.4-2.8-0.8-4.2-1
			c-3-0.6-6-1-9-1.3c-0.4,0-0.7,0-1,0.2C1092.1,1015.5,1091.6,1007.4,1091,999.3z"/>
		<g>
			<path fill="#888888" d="M1106.5,1017c-7.4-1.2-14.8-1.6-14.8-1.6l0.2,5.1l0.2,3.8l17.8,2.8c0,0-0.3,0.4-0.8,1.1
				c-2.2,3-8.7,11.9-15.7,19l0.2,10.3v1.4l0.1,5.7v2.3c0,0,10.8,1.6,15,2.4c4.2,0.7,8.6,0,8.6,0v-3.4v-4.6l-20.2-3.2l-1.8-0.3
				c0,0,5.6-2.7,12.9-12.3c7.2-9.6,9.7-18.3,9.7-18.3v-1.1v-4.7C1118,1021.6,1113.9,1018.2,1106.5,1017z"/>
			<path opacity="0.3" fill="#091426" enable-background="new    " d="M1095.1,1059.1c0.7-0.3,1.4-0.6,2.1-1l-1.8-0.3
				c0,0,5.6-2.7,12.9-12.3c7.2-9.6,9.7-18.3,9.7-18.3v-1.1c-4.3-1.9-9.1-2.5-13.7-3.4c-4.1-0.8-8.2-1.9-12.3-2.4l0.2,3.8l17.8,2.8
				c0,0-0.3,0.4-0.8,1.1c2.3,0,4.5,0,6.8,0.3c-0.2,0.2-0.3,0.5-0.4,0.7c-1.9,5.3-6.7,10.1-9.8,14.7c-3.5,5.2-7.5,9.1-12,13.4
				l-0.1,0.1v1.4C1094,1059.2,1094.6,1059.4,1095.1,1059.1z"/>
			<path opacity="0.3" fill="#091426" enable-background="new    " d="M1108.8,1069.2c4.2,0.7,8.6,0,8.6,0v-3.4
				c-3.7-0.6-7.8-0.2-11.5-0.3c-4.1-0.2-8.1-0.6-12.1-1v2.3C1093.8,1066.9,1104.6,1068.5,1108.8,1069.2z"/>
		</g>
	</g>
	<g>
		<path fill="#888888" d="M1172.2,1168.8c-0.2-3.7-2.5-3.7-2.6-3.7l-0.2-1.8l-5.8-44.8l-0.3-2.3c0,0,2.6-1.2,3-3s-0.1-4.9-4.1-10.1
			c-1.4-1.9-3.1-3.4-5-4.5c-3.5-2.1-7.8-3-12.4-2.6c-5.1,0.5-8.4,1.6-9.9,2.2c-0.6,0.2-0.9,0.4-0.9,0.4l3.2,12.2
			c0,0-9.7,5.1-11.5,9.2c-0.1,0.3-0.3,0.6-0.4,1c-0.7,2-1.1,4.7-1.4,8.1c-0.3,4.4-0.4,9.8-0.2,16c0,0,0.9,12.9,3,23.9
			c2.1,10.9,5.6,27.4,14.3,29.8c8.7,2.4,19-2.1,25.6-11.5C1173.3,1177.5,1172.4,1172.5,1172.2,1168.8z"/>
		<path opacity="0.3" fill="#091426" enable-background="new    " d="M1134.1,1113.8c2.8-1.6,6.1-2.9,7.2-6.3
			c1.2-4.1-2.3-7.5-6.3-9.5c-0.6,0.2-0.9,0.4-0.9,0.4l3.2,12.2c0,0-9.7,5.1-11.5,9.2c-0.1,0.3-0.3,0.6-0.4,1
			C1127.7,1118,1130.7,1115.7,1134.1,1113.8z"/>
		<path opacity="0.3" fill="#091426" enable-background="new    " d="M1161.3,1112c-2.1,3.7-6.4,5.6-9.5,8.4
			c-6.3,5.7-6.5,13.6-4,21.3c0.8,2.7,5.6,2.4,5.2-0.7c-0.8-6.1-2-11.7,3.1-16.4c2.4-2.2,5.2-3.9,7.5-6.2l-0.3-2.3c0,0,2.6-1.2,3-3
			s-0.1-4.9-4.1-10.1c-1.4-1.9-3.1-3.4-5-4.5C1160.9,1102.1,1163.9,1107.5,1161.3,1112z"/>
		<path opacity="0.3" fill="#091426" enable-background="new    " d="M1123.7,1144.9c0,0,0.9,12.9,3,23.9
			c2.1,10.9,5.6,27.4,14.3,29.8c8.7,2.4,19-2.1,25.6-11.5c6.6-9.5,5.8-14.5,5.6-18.3c-0.2-3.7-2.5-3.7-2.6-3.7l-0.2-1.8
			c-0.4,0-0.8,0.1-1.1,0.2c-1.6,0.4-2.1,1.6-2.9,2.9c-0.4,0.7-1.1,1.2-1.5,1.9c-0.2,0.3-0.2,0.6-0.3,1c-0.6,0.1-0.7,1-0.1,1.2
			c0.7,0.2,1.1,0.3,1.8,0.1c0.5-0.2,0.8-0.5,1.3-0.7c0.6-0.2,1.1-0.2,1.7-0.5c0.4-0.2,0.8-0.5,1.1-0.8c0.1,0,0.1-0.1,0.1-0.1
			c0.4,0.3,0.8,0.5,1.3,1c-0.1,7.7-7.3,15.4-13.4,19.3c-8.9,5.7-14.3-10.8-15.6-16.8c-2.6-12.2-4.9-24.8-5.3-37.4
			c0.1-0.4,0.1-0.9,0-1.2c-0.1-4.8,0-9.6,0.6-14.4c0.1-0.9-1.4-1.1-1.7-0.2c-1,4.4-1.6,8.8-1.9,13.2c-2,0-4.3,0.3-6.1-0.3
			c-1.2-0.4-2.3-1.3-3.3-2.5C1123.5,1133.3,1123.5,1138.7,1123.7,1144.9z"/>
		<path fill="#434343" d="M1148,1128.8c-2,2.7-1.9,14.5-0.6,25.7s1.5,19.4,4.1,21.2c2.6,1.8,8.5,1,10.9,0s6.4-6.4,7.3-10.7
			l-6.3-48.9C1154.5,1122,1150,1126.1,1148,1128.8z"/>
	</g>
	<g>
		<g>
			<path fill="#2F2F2F" d="M1132.5,1168.2c-0.2,3.1-0.6,3.3-6.7,3.6c-6.1,0.2-12.7-0.4-12.7-0.4l-0.1-4.9l-0.7-24.1
				c3.7,0.1,6.5,0.2,8.8,0.3c4.2,0.2,6.4,0.6,8.2,1.3c2.8,1,1.8,6.5,2.1,11.2C1131.6,1159.8,1132.7,1165.2,1132.5,1168.2z"/>
		</g>
		<path opacity="0.3" fill="#091426" enable-background="new    " d="M1125.8,1171.8c6.1-0.2,6.5-0.5,6.7-3.6s-0.9-8.4-1.2-13.1
			s0.7-10.2-2.1-11.2c-1.8-0.7-4-1-8.2-1.3c2.6,4.3,3.4,9.6,3.6,15.1c0.2,6.7,1.9,8.7-2.2,8.7c-2.4,0-6.5,0-9.4,0l0.1,4.9
			C1113.1,1171.4,1119.7,1172.1,1125.8,1171.8z"/>
	</g>
	<g>
		<g>
			<path fill="#D8D8D8" d="M1116.1,1112v0.2C1116.1,1112.1,1116.1,1112,1116.1,1112z"/>
			<path fill="#D8D8D8" d="M1117.9,1203.7c-0.5-7.2-1.8-23.6-2.4-36.1c-0.2-4.9-0.5-11.6-0.7-18.6c-0.6-16.2-1.1-34-1.2-35.2
				c0-0.3-0.1-0.6-0.3-0.8c-0.8-1-3.1-1.4-7.9-2.2c-5.8-1.1-15.7,1.7-36,2.9c-20.3,1.3-44.5,1.6-46.8,2.6c-0.2,0.1-0.3,0.2-0.4,0.3
				c-0.2,0.2-0.4,0.6-0.3,0.9c1.8,29.7,3.4,59.4,2.8,67.8s-0.6,13.8-0.6,15.4c0.1,1.5,0.1,1.5,0.1,1.5s13.3,8.6,14.6,9.6
				c1.3,1-0.8,1.1,16.8-1.4s27.6-4.4,43.7-3.5s18.7,1,18.9,0.3C1118.1,1207.2,1118.1,1205.9,1117.9,1203.7z"/>
		</g>
		<path fill="#FFFFFF" d="M1049.8,1117.4c-11.6,1-6.6,2.3,2.1,2s19.1-1.2,19.1-1.2l-30,57.9l0.5,29.4c0.2-0.2,10.8-1.1,10.8-1.1
			l12.3-23.4c0,0,2.5,2.2,6.7,3.7l-9.6,17.9l15.7-1.5l8.9-17.6c0,0,3.2-1.2,5.8-5.2s3-6.2,5.9-6.8c3-0.6,5.4-0.3,5.3-2.7
			s-11.8-3.3-11.8-3.3s-11.6,3.6-25.7,1.2c-8-1.3-9.1,1.6-9.1,3.2c0.4,1.3,0,0.9,0,0c-0.1-0.4-0.3-0.9-0.6-1.6
			c-2.8-7.2-4-10.8-2.8-13.1c1.2-2.3,6.4,0.4,6.4,0.4s0.9-6.7,7.1-10.7c6.1-4,16.9-3.4,16.9-3.4l10-24.6l10.3-0.5l-12.5,26.8
			c0,0,2.4,3,3.8,6.6s1.8,4.9,1.8,4.9l4.7-1.9l9.2-19.4l3.9,15.9c-0.6-16.2-1.1-34-1.2-35.2c0-0.3-0.1-0.6-0.3-0.8
			c-2.2,0.4-6.2,0.8-13.3,1C1082.7,1114.8,1061.4,1116.4,1049.8,1117.4z"/>
		<path opacity="0.3" fill="#091426" enable-background="new    " d="M1024.7,1185.5c-0.6,8.4-0.6,13.8-0.6,15.4
			c0.1,1.5,0.1,1.5,0.1,1.5s13.3,8.6,14.6,9.6c1.3,1-0.8,1.1,16.8-1.4s27.6-4.4,43.7-3.5s18.7,1,18.9,0.3c0-0.2,0-1.5-0.2-3.6
			c-4.2-0.7-10.9-1.4-21.3-1.5c-21.2-0.3-37.6,3.1-46.3,4.6s-10.8,1.8-11.2,0.2c-0.4-1.6-0.5-7.8-0.6-21.2
			c-0.1-13.5,0.7-44.8,0.5-52.3s0.8-12.2-1.7-13.2c-2.1-0.8-6.9-2.3-15.2-3.6c-0.2,0.2-0.4,0.6-0.3,0.9
			C1023.7,1147.4,1025.3,1177.1,1024.7,1185.5z"/>
		<path fill="#434343" d="M1103.3,1168.8l-5.5-0.6l-2.3-0.2c-0.6-0.1-1.3,0.2-1.6,0.8c-0.6,0.8-1.6,2.3-3.4,4.9
			c-3.1,4.6-7.8,8.2-17.6,5.7c-6.8-1.7-8.9-5.6-9.6-7.8c-0.3-0.9-1.2-1.5-2.2-1.3l-5.9,1c0,0,0-5.1-0.5-9.7c-0.2-1.6-0.4-3-0.7-4.2
			l6.1,2c1.1,0.4,2.4-0.3,2.6-1.5c0.4-1.9,1.3-4.5,2.8-6.5c2.6-3.3,10.6-8.6,20.4-5.4c7.1,2.4,9.2,8.1,9.8,11.1
			c0.2,1,1.2,1.6,2.1,1.3l4.9-1.4L1103.3,1168.8z"/>
		<path opacity="0.3" fill="#091426" enable-background="new    " d="M1102.7,1156.8l-4.9,1.4c-1,0.3-1.9-0.3-2.1-1.3
			c-0.6-3-2.7-8.7-9.8-11c-9.8-3.3-17.8,2.1-20.4,5.4c-1.5,2-2.4,4.6-2.8,6.5c-0.3,1.2-1.5,1.8-2.6,1.5l-6.1-2
			c0.3,1.2,0.5,2.7,0.7,4.2c3.5,1.4,7.2,1.9,9.9-0.4c2.6-2.2,3.8-5.8,6.4-8c3.9-3.3,9.4-5,14.2-3c4.5,1.9,4.6,5.2,6.5,9.1
			c0.9,1.9,2.4,3.3,4.7,3c0.4-0.1,0.8-0.3,1.3-0.5c0,0.9,0.1,1.9,0,2.5c-0.1,1.4-0.1,2.7-0.1,4.1l5.5,0.6L1102.7,1156.8z"/>
		<path opacity="0.3" fill="#091426" enable-background="new    " d="M1077.7,1156.2c-1.3,0.8-1.6,2.6-0.5,3.7c0.8,0.8,2,1.1,2.6,2
			c0.6,0.8,0.8,2,0.6,2.9c-0.3,2.2-2.1,3.7-4.3,3.7c-2.6,0-3.6-1.6-3.2-4c0.2-1.3,0.5-2.8,1.2-4c0.5-0.9,1-1.5,1.1-2.6
			c0-0.3-0.2-0.6-0.5-0.6c-2-0.7-3.4,1.2-4.5,2.5c-1.7,2-3.2,4.4-3.2,7.1c0,5.4,5.8,8.1,10.5,7.4c4.8-0.7,8.3-4.6,8.6-9.4
			C1086.5,1161,1082.7,1153,1077.7,1156.2z"/>
		<g>
			<path fill="#D8D8D8" d="M1085.5,1162.1c0,3.6-3.2,7.3-7,7.9c-0.3,0-0.7,0.1-1,0.1c-2.9,0-5.1-1.8-6.3-4.1
				c-0.5-1.1-0.8-2.2-0.8-3.4c0-3.5,3.3-7.2,7-8.1c0.5-0.1,1-0.2,1.4-0.2c2.6,0,4.6,1.6,5.7,3.8
				C1085.2,1159.3,1085.5,1160.7,1085.5,1162.1z"/>
		</g>
		<path fill="#FFFFFF" d="M1070.5,1162.5c0,1.2,0.3,2.4,0.8,3.5c1.3-2.6,3.4-6.6,6.2-11.5
			C1073.9,1155.3,1070.5,1159.1,1070.5,1162.5z"/>
		<path fill="#FFFFFF" d="M1085.5,1162.1c0-1.4-0.3-2.8-0.9-4.1c-2.5,4.8-4.7,9.2-6.1,12C1082.3,1169.5,1085.5,1165.7,1085.5,1162.1
			z"/>
	</g>
	<g>
		<g>
			<g>
				<path fill="#2F2F2F" d="M1034.6,1176.8c-1,3.4-0.8,2.6-6.2,2.8c-5.5,0.3-28.4,4.9-28.4,4.9l-0.6-2.7l-7-29.9
					c16.6-4.9,27.8-7.5,34-7.2c0.5,0,0.9,0.1,1.3,0.1c5.8,0.8,4.8-0.1,5.7,10.2C1034.5,1165.4,1035.7,1173.4,1034.6,1176.8z"/>
			</g>
			<path opacity="0.3" fill="#091426" enable-background="new    " d="M1028.4,1179.6c5.5-0.3,5.2,0.5,6.2-2.8
				c1-3.4-0.2-11.4-1.1-21.8s0.1-9.4-5.7-10.2c-0.4-0.1-0.9-0.1-1.3-0.1c-0.1,15.5,0.7,28.2,0.1,29.3c-0.5,1-18.6,5.7-27.2,7.8
				l0.6,2.7C1000,1184.6,1022.9,1179.9,1028.4,1179.6z"/>
		</g>
		<path fill="#888888" d="M1001.8,1167.5c0-0.3-0.1-0.5-0.1-0.8c-3.9-20.9-17.2-42.1-26.8-50.2c-4.7-4-12.4-5.6-20.1-6.1
			c-8-0.5-16,0.3-20.5,1.3c-8.9,1.9-10.6,7.7-10.8,14.8c-0.2,7.2,1.1,10.9,4.5,11c0,0,1.5,31-2.2,42.1c-3.7,11.2-1.4,19.7-1.4,19.7
			c-6.1-1.3-15.9,15.2-7.7,22c8.2,6.7,17.7,10,40.9,10.2s40.5-5.8,41.8-11.8C1000.8,1213.7,1005.5,1188.2,1001.8,1167.5z"/>
		<path opacity="0.3" fill="#091426" enable-background="new    " d="M934.3,1111.7c-8.9,1.9-10.6,7.7-10.8,14.8
			c-0.2,7.2,1.1,10.9,4.5,11c0,0,1.5,31-2.2,42.1c-3.7,11.2-1.4,19.7-1.4,19.7c-6.1-1.3-15.9,15.2-7.7,22c8.2,6.7,17.7,10,40.9,10.2
			s40.5-5.8,41.8-11.8s6-31.4,2.3-52.2c0.7,32.3-4.4,47.2-5.5,48.4c-0.8,0.9-4.1,3.2-9.7,5.2c0.2-0.6,0.3-1.1,0.5-1.6
			c1.8-6.2,2.8-12.9,3.3-19.3c1.1-13.4,0.7-27.4-1.8-40.7c-0.1-0.7-1.2-0.5-1.2,0.2c0.3,10.4,1.1,20.7,0.6,31.2
			c-0.3,5.5-0.9,11-1.9,16.4c-0.4,2.5-0.9,4.9-1.5,7.4c-0.3,1.3-1.2,5.9-2.5,6.8c-0.4,0.1-0.7,0.3-1,0.5c-0.1,0.1-0.1,0.1-0.2,0.2
			c-0.3,0.3-0.5,0.6-0.5,0.9c-1.5,0.4-3.1,0.7-4.8,1c-12.2,2-28.4,1.3-30.4,1.3s-2.8-4.5,0-11.6s5.4-16.6,5.4-16.6
			s2.2-51.5-3.3-61.5c-3.2-5.8-2.7-12.6,1.1-18.5c2.6-0.2,5.2-0.2,7.9,0.4c3.9,0.9,7.5,2.9,11.3,4.2c1.7,0.6,2.7-1.9,1.2-2.8
			c-5.6-3.5-11.2-5.3-17.1-5.7c1-1,2-1.9,3.2-2.7C946.8,1109.9,938.8,1110.7,934.3,1111.7z"/>
		<path fill="#434343" d="M948.1,1208.3c9.7,1.3,22.5-3.1,23.9-4s5.3-7.9,2.9-31.9c-2.4-24-11.9-35-11.9-35s-21.2-4.8-35,0
			c0,0,1.5,31-2.2,42.1s-1.3,19.7-1.3,19.7C928.6,1204.8,938.4,1207,948.1,1208.3z"/>
	</g>
	<g>
		<g>
			<path fill="#888888" d="M948,1310.5c-0.1-8.8,0.3-19.8-5.4-31.3c-0.6-1.2-1.2-2.4-2-3.6c-7.8-12.8-26.6-21.8-45.5-27.1
				c-17.1-4.8-41.4-4.1-60.3,3c-2,0.8-4,1.6-5.9,2.5c-19.4,9.5-35.8,21.1-35.8,46.6s4.2,42.1,4.2,42.1s-12.4,19.3-13.8,22.7
				c-1.4,3.3-0.6,5,1.2,20.8c0,0,1.7,0.8,4.4,2.1c7.9,3.8,24.1,11.7,27.4,13c0.1,0,0.2,0.1,0.3,0.1c3.6,1.5,6.1,2.2,8.1,1.7
				c0.4-0.1,0.7-0.2,1.1-0.5c1.8-1.1,20.3-13.1,27.2-17.6c1.6-1.1,2.6-1.7,2.6-1.7c14.6,5.5,40.5,1.8,59.1-6.8
				c18.5-8.7,29.6-29.2,31.9-34.3C949.2,1337,948.1,1320.2,948,1310.5z"/>
			<path opacity="0.3" fill="#091426" enable-background="new    " d="M914.9,1376.5c18.5-8.7,29.6-29.2,31.9-34.3
				c2.3-5.2,1.2-21.9,1.2-31.7c-0.1-8.8,0.3-19.8-5.4-31.3c2.8,10.7-0.1,22.5-4.6,32.5c-2.2,5-5,10.1-8.4,14.5
				c-4.4,5.8-12,10.1-17.9,14.2c-1.2,0.8-0.1,2.8,1.2,2c6.6-4.2,14.8-7.7,20.1-13.6c4.6-5.1,8-11.3,10.7-17.6
				c0.3-0.8,0.7-1.7,1.1-2.5c-0.1,0.7-0.1,1.3-0.2,2c-0.7,5-0.3,10-0.3,15.1c0,4.8-0.3,9.5-0.8,14.3c-2,3.5-4.3,6.9-6.6,10.3
				c-5.7,8.2-12.5,15.1-21.2,20.3c-17.4,10.3-38.2,12-57.8,8.8c-0.2-2.1-0.6-4.2-0.9-6.2c-0.3-2-0.2-5.7-1.8-7.2
				c-1.8-1.7-6.5-2-8.8-2.4c-3.8-0.7-7.6-1.1-11.3-1.9c-4.6-0.9-9.1-2.5-13.5-4.5c0.1-0.3,0.2-0.7,0.2-1.2c-0.3-2.8-0.3-5.6,0.4-8.4
				c0.4-1.7,1.2-3.5,1.6-5.2c4.4,2.1,9.1,3.9,13.9,5.4c16.9,5.6,33.6,7.5,51.3,4.9c1.1-0.2,0.8-2-0.3-1.9
				c-16.8,1.3-35.2-0.2-51.1-6.1c-8-3-15.7-6.9-21.6-13.2c-5.8-6.1-9.7-13.6-12.2-21.6c-4.9-15.6-3.8-32.7,9-44.1
				c5.8-5.2,13-9.1,19.8-12.9c0.9-0.5,1.7-1,2.6-1.4c-2,0.8-4,1.6-5.9,2.5c-19.4,9.5-35.8,21.1-35.8,46.6s4.2,42.1,4.2,42.1
				s-12.4,19.3-13.8,22.7c-1.4,3.3-0.6,5,1.2,20.8c0,0,1.7,0.8,4.4,2.1c0.2-0.3,0.3-0.7,0.4-1.1c0.1-2-0.1-3.9-0.5-5.8
				c4.8,1.7,9.8,3,14.5,4.8c2.3,0.9,4.5,1.9,6.7,2.9c1.3,0.6,4,1.3,4.8,2.4c0.6,0.7,0.9,1.7,1.2,2.8c0,2.4,0.3,4.7,0.7,7.1
				c3.6,1.5,6.1,2.2,8.1,1.7c0-0.1,0-0.2,0-0.3c0-2.9,0-5.7-0.1-8.6c0-1.5,0.3-3.7-0.2-5.3c2.2-2,4.6-3.8,6.9-5.7
				c2.4-1.9,5.8-3.6,7.3-6.3c0.1-0.2-0.1-0.4-0.3-0.4c-3,0.5-5.8,3.3-8.4,4.9c-2.5,1.6-5.1,3.2-7.7,4.6c-2.9-2.5-7.7-4.1-10.6-5.3
				c-5-2.1-10.1-3.8-15.1-5.6c-3-1.1-5.9-2.4-8.8-3.6c2-7.8,4.9-15.4,9.8-21.9c8.9,5.5,18.2,10.4,28,14c7,2.6,14,2.4,21.3,3.7
				c0.5,0.1,1,0.2,1.4,0.2c0,0,0,0-0.1,0c-0.8,0.9-1.3,1.9-2.2,2.7c-0.9,0.8-1.8,1.5-2.9,2c-0.8,0.4-0.4,1.9,0.5,1.8
				c2-0.2,3.1-1.8,4.7-2.8c0.9-0.5,2-0.8,3-1.3l0,0c0.4,1.3,0.2,3.2,0.4,4.5c0.3,3.4,0.5,7,1.4,10.3c1.6-1.1,2.6-1.7,2.6-1.7
				C870.5,1388.8,896.4,1385.2,914.9,1376.5z"/>
			<path opacity="0.3" fill="#091426" enable-background="new    " d="M816.1,1298.5c2.5,15,15.5,34.6,32.6,34.1
				c1.1,0,1.5-1.9,0.3-2.1c-9.2-1.4-16.3-6-21-14.1c-2-3.5-3.9-7.4-5.2-11.5c-0.5-10.2-0.1-19.8,7.3-28c3.6-4,7.9-7.3,12.6-9.8
				c5.3-1.9,10.9-3.1,16.1-3.9c12.4-1.8,25.7-1.7,37.5,2.7c7.7,3.4,14.3,8.8,18.8,16.8c0.7,1.2,2.1,1.5,3.2,1.2
				c1.3,2.3,2.4,4.8,3.1,7.4c1.1,3.8,1.8,8.3,0.9,12.3c-1.1,4.9-5.6,6-9.6,7.8c-3,1.3-0.8,5.8,2.2,5.1c6.5-1.5,12.2-5.1,13.3-12
				c1.2-7.2-0.4-14.7-3.5-21.3c-3.6-7.5-9.5-13.5-16.4-17.9c-14.4-10.3-36.3-11.6-52.6-8.8c-5.2,0.9-10.3,2.5-15,4.9
				C824.6,1267.5,812.8,1279.2,816.1,1298.5z"/>
			<g>
				<g>
					<path fill="#D8D8D8" d="M914.9,1324.9c-10.7,8.7-30.8,15.2-54.6,12c-23.8-3.3-35.8-18.2-39.6-30.4c-0.8-2.5-1.1-5.1-1-7.7
						c0.4-10.2,6.8-20.4,13.2-25.7c8.1-6.7,16.2-10.8,28.2-12.5c17.3-2.4,35.4,1.6,44.6,8.9c9,7.1,16.8,14.6,18.9,26.9
						c0.4,2.5,0.7,4.7,0.8,6.8C926,1311.6,923.5,1317.9,914.9,1324.9z"/>
				</g>
				<path opacity="0.3" fill="#091426" enable-background="new    " d="M820.8,1306.5c3.8,12.3,15.8,27.2,39.6,30.4
					s43.9-3.2,54.6-12c8.6-7,11.1-13.2,10.7-21.7c-4,5.6-12.2,15.4-22.6,20.7c-15,7.7-31.5,8.2-46.9,2.7
					c-13.4-4.8-24.7-11.7-36.3-27.8C819.7,1301.3,820,1303.9,820.8,1306.5z"/>
				<path fill="#CE2828" d="M836.8,1299c0.2-6.4,4.9-11.4,10-14.7c5.1-3.3,19.5-8.2,19.5-8.2l-1.9-9.5c0,0-8.9-0.8-17.4,3.2
					s-14.8,10.4-17.9,14.9c-3.1,4.5-1.8,14-1.8,14L836.8,1299z"/>
				<path fill="#434343" d="M863.2,1325.8c1.4-0.1,3.2-3.5,5.1-10c1.9-6.5,3.3-14.7,3.3-14.7s4.3,1.2,5.6-2.7c1.2-3.8-1-6.9-5.6-6.1
					s-5.7,5-3.1,8c0,0-3.8,9.5-5.3,15.8C861.6,1322.4,861.4,1326,863.2,1325.8z"/>
				<path fill="#434343" d="M875.5,1321.9c-0.8,1.4,0.5,3.7,1,5.1c0.6,1.5,1,3.9,2.7,4.3c0.4,0.1,0.8-0.1,0.9-0.5
					c0.6-1.5-0.9-3.3-1.6-4.7c-0.6-1.3-1.2-3.7-2.6-4.3C875.9,1321.7,875.6,1321.7,875.5,1321.9L875.5,1321.9z"/>
				<path fill="#434343" d="M899.8,1314.5c0.2,1.4,2.4,2.8,3.4,3.7c1.3,1.2,3,2.2,4.9,2.3c1.7,0,1.9-2.3,0.4-2.8
					c-1.7-0.6-3.2-1.2-4.7-2.2c-1-0.6-2.3-1.9-3.6-1.5C899.9,1314.1,899.8,1314.3,899.8,1314.5L899.8,1314.5z"/>
				<path fill="#434343" d="M903.8,1295.5c0.8,1.5,2.9,1,4.4,1c1.2,0,2.3,0,3.4,0.1c1.2,0.1,1.8,0.3,2.8-0.3
					c0.5-0.3,0.7-1.1,0.2-1.5c-1.4-1.3-3.6-0.8-5.4-0.8c-1.6,0.1-3.9,0-5.3,0.8C903.8,1295,903.7,1295.3,903.8,1295.5L903.8,1295.5z
					"/>
				<g>
					<path fill="#434343" d="M866.5,1271c-0.6-1.9-1.1-4-2.2-5.6c-0.3-0.5-1.3-0.4-1.3,0.3c0.2,2,1,3.9,1.5,5.8
						c0.4,1.6,0.4,3.5,1.7,4.5c0.3,0.2,0.8,0.1,0.9-0.2C868,1274.3,867,1272.6,866.5,1271z"/>
					<path fill="#434343" d="M844.6,1279.5c-0.1,0-0.1,0-0.2,0c-0.3,0-0.5,0-0.7,0c-2.2-1.2-4.4-2.5-6.4-3.9
						c-0.8-0.5-1.5,0.7-0.8,1.3c2.1,1.5,4.1,3.1,6.1,4.8c0.6,0.5,1.1,1,1.9,0.7c0.7-0.2,1.2-0.9,1.1-1.6
						C845.5,1280.3,845.2,1279.6,844.6,1279.5z"/>
					<path fill="#434343" d="M837.4,1297.8c-1.9-0.7-4.2-0.2-6.1-0.1c-1.6,0.1-3.6-0.2-5.1,0.7c-0.1,0.1-0.2,0.3-0.1,0.4
						c1.3,1,3.1,1.1,4.7,1.3c2,0.3,4.5,0.9,6.5,0.3C838.6,1299.9,838.6,1298.2,837.4,1297.8z"/>
				</g>
				<path opacity="0.75" fill="#FFFFFF" enable-background="new    " d="M846.7,1329.1l55.7-57.5c0,0-8.2-7.2-26.2-7.9l-50.1,51
					C826,1314.6,833.2,1325.6,846.7,1329.1z"/>
				<path opacity="0.75" fill="#FFFFFF" enable-background="new    " d="M855.9,1332.3l54-53.3l8.3,8.4l-47.5,48.3
					C870.7,1335.7,860.5,1335.2,855.9,1332.3z"/>
			</g>
		</g>
		<g>
			<path fill="#434343" d="M815.3,1431.5c-0.9-4.2-1-8.3-0.7-12.2c0.3-3.9,1-7.4,1.8-10.3c1.1-4.2,2.2-6.8,2.2-6.8l-0.2-12
				c0,0-30.2-11.9-30.6-12s-7,6.3-11,19.8s-1.9,25.9,3.1,32.2c5,6.2,18.8,12.7,28.4,17.7s11.4,6.4,16.1,2.1
				C824.5,1450,818.4,1445.9,815.3,1431.5z"/>
			<g opacity="0.3">
				<path fill="#091426" d="M815.3,1431.5c-0.9-4.2-1-8.3-0.7-12.2c-1.7-0.3-3.3-0.5-4.9-0.9c-0.2-7.5,0.6-14.6,4.5-21.2
					c1.3,4,1.9,8.7,2.1,11.8c1.1-4.2,2.2-6.8,2.2-6.8l-0.2-12c0,0-30.2-11.9-30.6-12s-7,6.3-11,19.8s-1.9,25.9,3.1,32.2
					c5,6.2,18.8,12.7,28.4,17.7s11.4,6.4,16.1,2.1C824.5,1450,818.4,1445.9,815.3,1431.5z M788.3,1410.1c-6.7-5.1-8.3-7.9-8.3-7.9
					s3.5-15.6,8-18.3c0,0,14.5,3.5,21.4,6.5c1.8,0.8,3.1,2.6,4.1,4.9c-4.8,6.4-8.4,14.2-8.2,22.2
					C798.2,1415.7,792.7,1413.4,788.3,1410.1z"/>
			</g>
		</g>
	</g>
</g>
</svg>
