<?xml version="1.0" encoding="utf-8"?>
<!-- Generator: Adobe Illustrator 21.0.2, SVG Export Plug-In . SVG Version: 6.00 Build 0)  -->
<svg version="1.1" id="_x31_2_x5F_Top_x5F_Dancer_x5F_Tights"
	 xmlns="http://www.w3.org/2000/svg" xmlns:xlink="http://www.w3.org/1999/xlink" x="0px" y="0px" viewBox="0 0 2000 2000"
	 enable-background="new 0 0 2000 2000" xml:space="preserve">
	 <g>
	<path fill="#1D1744" d="M950.8,1064.2c7.2-10.1,14.5-16.9,14.9-17.4s3.9-0.1,4.3,0.7c0,0-3.3,26.7-9,38.5c0,0-0.5,0.7-6.9,0
		C947.6,1085.3,950.8,1064.2,950.8,1064.2z"/>
	<g>
		<path fill="#583687" d="M955.5,1047c-1.7,9.1-2.5,17.2-2.3,22.6c0.2,4.9,1.2,8.3,2.3,10.8l-6.7,17.8
			c-15.1,15.3-41.1,42.3-57.6,63.7c-24.5,31.7-34,65.1-34,65.1c8,11.3,5.3,16.8,5.3,16.8c4.1,3.3,6.4,6.4,7.6,9.1
			c1.5,3.2,1.5,5.8,1.2,7.5c-0.2,1.3-0.6,2.1-0.6,2.1c0.6,0.6,1.2,1.2,1.8,1.8c30.2,31.6,40.4,27,50.7,35.5
			c12,9.9,11.2,24.2,11.2,24.2c-10-9.2-9.3-13.5-29.8-15.5s-54.5,18-75,52.2c-9.5,15.8-14.3,31.9-16.8,44.7
			c-2.9,14.9-2.6,25.3-2.6,25.3l10.2,6.9c-5.2,3.2-11.4,2.4-19.9-2.1s-8.8-4-19.4-13.7c-10.6-9.7-40.1-22.9-60.2-42.4
			c-20.2-19.5-42.3-38.4-60.8-75.5s-12.2-62.2,10-94.5c8.4-12.2,22.8-26,39.2-39.7c27.1-22.6,59.5-44.5,78.6-56.8
			c30.5-19.7,98.7-65.1,131.6-90c33-24.8,70.7-57.6,70.7-57.6s-6.5,12.9-18.6,34.7C963.8,1013.6,958.3,1031.8,955.5,1047z"/>
		<path fill="#583687" d="M960.9,1086c0,0-4.8,4.7-12.1,12l6.7-17.8C957.8,1085.1,960.9,1086,960.9,1086z"/>
	</g>
	<path fill="#7A44B1" d="M838,1256.4c-10.3-3,15.1-1.9,20.6-0.6c4.4,1,8.9,2.7,12.6,4.4c0.3-1.7,0.3-4.3-1.2-7.5
		c-19.2-15.3-51.2-19-72.7-9.1c-23,10.6-37.7,11.4-9.3-2.3s53.5-6.6,57.3-6.2c3.8,0.5,6.5,0.5,3.3-6.2c-3.2-6.8-9.7-20.6-29-26.5
		c-19.4-6-54-3.2-32.3-5.3c21.7-2.2,26.2,3.3,45-2.7s39.8-37.5,58.1-66.2c15-23.5,37.1-53.1,65-81.1c2.9-15.2,8.4-33.3,16-47
		c12.1-21.8,18.6-34.7,18.6-34.7s-37.7,32.7-70.7,57.6c-33,24.8-101.1,70.3-131.6,90c-19,12.3-51.5,34.2-78.6,56.7
		c-15,33.8-22.9,63.4-8.2,104.6c18,50.3,45.7,80.7,67.3,102.5c16,16.2,32.1,21.5,44.4,28.6c2.5-12.8,7.3-28.9,16.8-44.7
		c20.5-34.2,54.6-54.2,75-52.2s19.8,6.2,29.8,15.5c0,0,0.8-14.2-11.2-24.2c-10.3-8.5-20.5-3.9-50.7-35.5
		C847.1,1252.6,844.8,1258.4,838,1256.4z"/>
	<path fill="#583687" d="M1060.4,966.6C1060.5,966.6,1060.5,966.6,1060.4,966.6C1060.5,966.6,1060.5,966.6,1060.4,966.6l-0.3-0.3l0,0
		l-0.1-0.1c0,0,0,0-0.1-0.1l0.1,0.1c0,0,0,0,0.1,0.1l0.1,0.1c0,0,0.1,0,0.1,0.1l0,0C1060.3,966.5,1060.4,966.5,1060.4,966.6z"/>
	<path fill="#583687" d="M1060.7,966.8L1060.7,966.8c0,0-0.1-0.1-0.1-0.1C1060.6,966.7,1060.6,966.8,1060.7,966.8z"/>
	<path fill="#583687" d="M1062.1,968.3c-0.1,0-0.1-0.1-0.2-0.1c-0.1-0.1-0.2-0.2-0.3-0.3l-0.3-0.3c0,0,0.1,0.1,0.2,0.2
		C1061.7,967.8,1061.9,968,1062.1,968.3z"/>
	<path fill="#583687" d="M1060,966.2L1060,966.2C1059.9,966.1,1059.9,966.1,1060,966.2C1060,966.1,1060,966.1,1060,966.2z"/>
	<path fill="#583687" d="M1060.2,966.4C1060.2,966.3,1060.2,966.3,1060.2,966.4C1060.1,966.3,1060.1,966.3,1060.2,966.4
		C1060.1,966.3,1060.1,966.3,1060.2,966.4C1060.1,966.3,1060.2,966.3,1060.2,966.4z"/>
	<path fill="#583687" d="M1060.3,966.5L1060.3,966.5C1060.4,966.5,1060.4,966.5,1060.3,966.5L1060.3,966.5z"/>
	<path fill="#583687" d="M1060.5,966.7C1060.5,966.6,1060.5,966.6,1060.5,966.7C1060.4,966.6,1060.4,966.6,1060.5,966.7
		C1060.5,966.6,1060.5,966.6,1060.5,966.7z"/>
	<path fill="#583687" d="M1062.7,968.8L1062.7,968.8c-0.2-0.2-0.5-0.5-0.7-0.7c-0.1-0.1-0.2-0.2-0.3-0.3c-0.1-0.1-0.1-0.1-0.2-0.2
		c0.2,0.2,0.4,0.4,0.6,0.6c0,0,0.1,0.1,0.2,0.2l0.1,0.1c0,0,0,0,0.1,0.1C1062.5,968.7,1062.6,968.7,1062.7,968.8z"/>
	<path fill="#583687" d="M1064,970.1c-0.4-0.5-0.9-0.9-1.3-1.3l0.1,0.1c0.1,0.1,0.2,0.2,0.3,0.3
		C1063.4,969.5,1063.7,969.8,1064,970.1z"/>
	<g>
		<path fill="#583687" d="M1313.5,1159.4c-1.1-0.6-2.3-1.2-3.5-1.8C1312.3,1158.2,1313.4,1159.2,1313.5,1159.4z"/>
		<path fill="#583687" d="M1473.2,1213c-10.5,14.6-41.2,66.9-95,84.7s-83.4,20.5-149.8-41s-89.2-102.8-89.2-102.8
			s-12.6-32.3-17.5-67.4c-4.2-30.2-11.7-50.5-21.2-68.3c-1.6-3-3.2-5.8-4.8-8.7c-8.4-14.4-23.4-30.7-31.2-38.8
			c-0.2-0.2-0.4-0.4-0.6-0.6c-0.3-0.3-0.6-0.6-0.8-0.9c-0.1-0.1-0.2-0.2-0.3-0.3l-0.1-0.1l0,0c-0.1-0.1-0.2-0.2-0.2-0.3
			c0,0,0-0.1-0.1-0.1c0,0,0,0-0.1-0.1s-0.1-0.1-0.2-0.2c-0.2-0.2-0.4-0.4-0.6-0.6c-0.1,0-0.1-0.1-0.2-0.2l-0.2-0.2
			c0-0.1-0.1-0.1-0.1-0.1l-0.1-0.1l-0.1-0.1c0-0.1-0.1-0.1-0.1-0.1l-0.1-0.1l-0.1-0.1l0,0l-0.1-0.1l0,0c0,0,0,0-0.1-0.1l-0.1-0.1
			c0,0,0,0-0.1-0.1l-0.1-0.1c0,0,0-0.1-0.1-0.1l-0.1-0.1c0,0,0,0-0.1,0c-0.1-0.1-0.1-0.1-0.1-0.1c14.2,8.3,25.9,20.7,43.4,41.5
			c7.4,6.9,15.8,14.8,25.5,23.7c52.1,48.1,129.9,100.6,181.5,126.6c1.2,0.6,2.4,1.2,3.5,1.8l0,0c0,0,11.1-10.8,17.3-4.8
			c0,0,13.4-22.9,14.5-32.9c0.5-4.1,0.6-10.1,1.4-16.2c1.1-8.7,3.7-17.3,10.8-20.2c-0.2,0.7-9.4,27.5,17.6,71.1
			c10.3,16.6,20.7,28,30.3,35.9c15.9,13.1,29.9,16.8,39,19.7c14.5,4.6,28.4-7.3,35.6-18.3C1479.9,1193.7,1483.8,1198.4,1473.2,1213z"
			/>
	</g>
	<g>
		<path fill="none" d="M1310,1157.6c1.2,0.6,2.4,1.2,3.5,1.8C1313.5,1159.4,1312.4,1158.2,1310,1157.6z"/>
		<path fill="#583687" d="M1298.8,1159.4c-10.7,4.6-12.2,12.3-12.2,12.3s11.8-11.8,23.3-8.8c0,0-8,5.8-8.6,18.2
			c-0.7,12.3,5.7,28.8,5.7,28.8s-2.9-23.3,4.7-37.5s11.2-15.4,16.1-12.9c0,0-2.7,2.1,3,18.3c5.7,16.2,18.1,24,18.1,24
			s-12.8-12.7-10.1-36.8c2.5-22.2,11.8-30.6,7.9-59.3c-0.8,6-0.9,12-1.4,16.2c-1.2,10-14.5,32.9-14.5,32.9c-6.2-6-17.3,4.8-17.3,4.8
			c-1.2-0.6-2.3-1.2-3.5-1.8C1307.6,1157.1,1304,1157.1,1298.8,1159.4z"/>
		<path fill="#583687" d="M1479.9,1193.7c-7.2,11-21.1,23-35.6,18.3c-9-2.9-23.1-6.6-39-19.7c-32.5,44.1-59.4,71.8-87.9,70.2
			c-36.5-2-73.8-35.3-117.3-97.5c-40.7-58.2-82.1-137.7-99.4-146.8c9.4,17.8,17,38.1,21.2,68.3c4.9,35.2,17.5,67.4,17.5,67.4
			s22.9,41.3,89.2,102.8s96,58.9,149.8,41s84.5-70.1,95-84.7C1483.8,1198.4,1479.9,1193.7,1479.9,1193.7z"/>
		<path fill="#7A44B1" d="M1200,1165c43.5,62.2,80.8,95.5,117.3,97.5c28.6,1.6,55.5-26.1,87.9-70.2c-9.6-7.9-20-19.3-30.3-35.9
			c-27-43.5-17.8-70.4-17.6-71.1c-7.1,2.9-9.6,11.5-10.8,20.2c3.9,28.8-5.4,37.2-7.9,59.3c-2.7,24.1,10.1,36.8,10.1,36.8
			s-12.4-7.8-18.1-24s-3-18.3-3-18.3c-4.8-2.4-8.5-1.2-16.1,12.9c-7.6,14.2-4.7,37.5-4.7,37.5s-6.3-16.5-5.7-28.8
			c0.7-12.3,8.6-18.2,8.6-18.2c-11.5-2.9-23.3,8.8-23.3,8.8s1.5-7.7,12.2-12.3c5.2-2.2,8.8-2.3,11.1-1.8
			c-51.6-26-129.4-78.5-181.5-126.6c-9.7-9-18.2-16.9-25.5-23.7c-17.5-20.9-29.2-33.2-43.4-41.5l0.1,0.1c0,0,0,0,0.1,0l0.1,0.1
			c0,0,0,0,0.1,0.1l0.1,0.1c0,0,0,0,0.1,0.1l0.1,0.1c0,0,0.1,0,0.1,0.1l0,0l0.1,0.1l0.1,0.1c0,0-0.1,0-0.1-0.1l0.1,0.1l0.1,0.1
			l0.1,0.1c0.1,0,0.1,0.1,0.1,0.1c0.1,0,0.1,0.1,0.1,0.1l0.1,0.1l0.2,0.2c0,0,0.1,0.1,0.2,0.2c0.2,0.2,0.4,0.4,0.6,0.6
			c0,0,0.1,0.1,0.2,0.2l0.1,0.1c0,0,0,0,0.1,0.1s0.2,0.2,0.2,0.3l0,0l0.1,0.1c0.1,0.1,0.2,0.2,0.3,0.3c0.3,0.3,0.5,0.6,0.8,0.9
			c0.2,0.2,0.4,0.4,0.6,0.6c7.8,8,22.8,24.3,31.2,38.8c1.7,2.9,3.3,5.7,4.8,8.7C1117.9,1027.3,1159.3,1106.9,1200,1165z"/>
	</g>
	<g>
		<g>
			<path fill="#908BB5" d="M1149.9,1158.5c-0.8,10.1-6.8,6.5-6.8,6.5c-10.1-9.6-49.2-15.1-111.4-8.1c-23.2,2.6-41.7,6.8-55.8,11
				c-17.4,5.2-28.1,10.4-32.6,12.8c-1.5,0.8-3.4,0.2-4.2-1.3c-3.1-5.9-2-12.2-0.1-19.9c2.9-11.9,3.6-12,10.1-37.9
				c8.4-33.2,19-62.1,19-62.1s12.9,23.1,30.4,5.9c17.5-17.3,11.7-46.9,7.9-68.1c-3.8-21.2-16.4-31.9-16.4-31.9l1.5-2.7
				c2.5,1.5,6,5.5,9.8,10.1c4,4.9,8.3,10.4,12.1,14.6c7.3,8.1,18.7,17.9,36.1,18.5c17.4,0.7,22.8-6.8,20.2-17.9
				c-2.6-11-10.1-22.2-10.1-22.2l6.2,4.7c25.4,38.2,60.9,110.6,69.7,142.4C1144.3,1144.5,1150.7,1148.4,1149.9,1158.5z"/>
		</g>
		<path fill="#CABEF3" d="M1143.1,1165c0,0,6.1,3.6,6.9-6.5s-5.6-14-14.4-45.7s-45.1-105.4-70.5-143.6l-5.5-3.5
			c0,0,7.5,11.2,10.1,22.3s-2.8,18.5-20.2,17.9c-17.4-0.7-28.8-10.4-36.1-18.5c-3.7-4.2-8.1-9.7-12.1-14.6c6.9,16.4,14.4,49,13,66.4
			c-1.7,22-7.1,40.1-22.3,41.6s-21.4-7.6-21.4-7.6s5.6,10.6,10.9,12.7c5.3,2.1,14.9-0.5,14.9-0.5s-4.4,5.3-13.7,3.8
			s-12.8-9.5-12.8-9.5c5.2,33.6,6.5,58.2,5.9,88.4c14.1-4.2,32.6-8.4,55.8-11C1093.8,1149.9,1133,1155.5,1143.1,1165z"/>
	</g>
	</g>
</svg>
