<?xml version="1.0" encoding="utf-8"?>
<!-- Generator: Adobe Illustrator 22.1.0, SVG Export Plug-In . SVG Version: 6.00 Build 0)  -->
<svg version="1.1" id="_x31_3_x5F_Top_x5F_BunnySuit"
	 xmlns="http://www.w3.org/2000/svg" xmlns:xlink="http://www.w3.org/1999/xlink" x="0px" y="0px" viewBox="0 0 2000 2000"
	 enable-background="new 0 0 2000 2000" xml:space="preserve">
<g>
	<g>
		<path fill="#7A44B1" d="M1003.8,1392.7c-2.4-6.3-5.9-14.9-10.6-28.3l-189.4,66.8c21.9,27.6,46.3,45.9,74.6,53.7
			c15,4.1,31,5.3,48.4,3.3c33.3-3.8,57.3-25.7,70.2-45c1-1.4,1.9-2.9,2.7-4.3c4.8-8,7.6-15.3,8.2-20.1
			C1009.2,1407.8,1008.2,1404.1,1003.8,1392.7z"/>
		<path opacity="0.3" fill="#091426" d="M993.1,1408.6c3.7-4.8,7.1-9.8,10.2-15.1c0.1-0.3,0.3-0.5,0.5-0.8
			c-2.4-6.3-5.9-14.9-10.6-28.3l-189.4,66.8c21.9,27.6,46.3,45.9,74.6,53.7c-2.2-2.7-4-5.7-4.5-9.3c-0.4-3.2,0.1-6.6,2.2-9.1
			c2.7-3.2,7.2-3.4,11-4c8.5-1.3,17-2.6,25.5-4.5c0,0,0,0,0,0c-1,3.4-1.5,7.1-2.2,10.5c-0.7,3.3-1.9,7.3-0.1,10.4
			c0.2,0.4,0.8,0.3,1,0c2.1-3,2.2-7.7,3.1-11.2c0.8-3.5,2-7,2.4-10.6c0,0,0,0,0,0c1.1-0.3,2.1-0.5,3.2-0.8c-0.1,3.1-0.3,6.2-0.4,9.2
			c0,3.3-0.5,6.8,0.7,9.9c0.2,0.5,0.8,0.5,1,0c1-3.1,0.6-6.5,0.9-9.7c0.4-3.5,0.9-7.2,2-10.6c3.1-0.9,6.1-1.8,9.1-2.9
			c5.7-2.1,11.3-4.5,16.7-7.3c2.1,4,4,8.2,5.4,12.5c1.4,3.9,2.1,8.2,3.9,12c0.2,0.5,1,0.2,1-0.3c0.7-8.6-3.5-18-7.3-25.8
			c12.3-6.9,23.5-15.8,33.1-26.2c4.3,8.4,7.7,17.3,10.9,26.2c1-1.4,1.9-2.9,2.7-4.3c-2.4-9-5.4-17.7-10.3-25.7
			C990.7,1411.7,991.9,1410.2,993.1,1408.6z"/>
	</g>
	<path fill="#EFA6EF" d="M1507,1181.8c0,0-0.1,0-0.2,0c-4,0.7-61.2,10-98.5-5.5c-38.8-16.1-50.2-123.8-50.2-123.8s-13.4-2.8-28,17.5
		c-0.2,0.3-0.4,0.5-0.5,0.8c-14.8,21.1-12,33.6-12,33.6l-10.2,4.6c-1.8-2.3-4.2-4.8-7-7.3c-26-23.6-92.5-56.8-138-80.6
		c-32.9-17.2-57.1-27-69.9-31.8c-3.9-1.4-6.7-2.4-8.5-3c-0.3,0.4-0.6,0.9-0.9,1.3c-3.1,4.4-6.3,8.7-9.3,13.3l-13.6,25.5l-13-6
		c-10-3.5-19.7-8.4-29.2-13.5l-58.3-27c0,0-8.9,2.4-20.9,6.6c-13.2,4.6-30.1,11.5-43.1,19.9c-24.9,16-84.6,51.5-122.5,80.8
		s-75,51.9-96.8,77c-14.3,16.5-23.4,29.2-29.6,41.2c-3.2,6.3-5.6,12.4-7.4,18.7c-5.4,18.3-1.4,38.6-1.8,50.2
		c-0.4,11.7,0.1,8.6-2.2,14.8s2.6,11.8,12.2,32s5.4,13.5,16.8,29s16,21.5,40.8,43.8c24.8,22.2,45.5,23.2,45.5,23.2
		c7,22.4,9.8,28.5,33.5,30.6s39.6-6.5,39.6-6.5s34.4,15.2,70,14.1c1.2,0,2.3-0.1,3.5-0.2c15.5-1,29.4-5.6,41.6-12
		c16.6-8.8,30.1-21.1,40.2-32c17.5-18.9,27-55.1,11.2-94.5c-10.5-26.3-22.6-40.2-43.7-50.9c-10.5-5.3-23.2-9.8-39-14.7
		c-20-6.1-34.2-9.4-43.8-11.1c-13.3-2.4-18.2-1.8-18.2-1.8l-3.8-12.1c24.1-13.6,28.4-22.8,25.8-31.5c-2.5-8.8-5.1-11-5.1-11
		s27.6-26,42.8-40.1s35.6-31.5,35.6-31.5s-1.5,11-2.7,25c-1.2,14-2.1,22.5-1.9,32.3c0.1,9.8-2.1,10.6-0.2,12.2c1.9,1.5,5,0.7,5,0.7
		s1.3-5.5,2.1-6.1c0.8-0.6,2.8-1.8,8.3-3.6c6.9-2.2,16.6-5,27.7-7.8c21-5.3,47-10.7,67.9-12.9c2.1-0.2,4.2-0.4,6.2-0.5
		c2.3-0.2,4.6-0.3,6.7-0.3c1.3,0,2.5-0.1,3.7-0.1c12.1,0,25,0.4,36.7,1.1c18.4,1.1,33.8,3.2,38.4,6.6c7.4,5.5,7.4,13,7.4,13.2
		c4.3-1.2,6.5-3.5,7-4c0.1-0.1,0.1-0.1,0.1-0.1c28.5,45.4,72.4,86.2,108.2,109.9s59.5,26.9,110.7,17.8s111.1-36.5,127.8-59.5
		S1507,1181.8,1507,1181.8z"/>
	<path opacity="0.3" fill="#091426" d="M989.5,1001.6c22.9,11.2,44.9,23.8,70.1,29c2.7,0.6,4.4-2,4.1-4c5.7-7,10.3-14.8,15.9-21.9
		c3-3.8,6-7.7,9.2-11.5c1.1-1.4,2.4-2.7,3.6-4c-3.9-1.4-6.7-2.4-8.5-3c-0.3,0.4-0.6,0.9-0.9,1.3c-3.1,4.4-6.3,8.7-9.3,13.3
		l-13.6,25.5l-13-6c-10-3.5-19.7-8.4-29.2-13.5l-58.3-27c0,0-8.9,2.4-20.9,6.6c4.3,0.5,8.7,1.2,12.9,2
		C964.7,991,977.4,995.7,989.5,1001.6z"/>
	<path opacity="0.3" fill="#091426" d="M978.9,1155c0-6.2-0.2-12.4-0.4-18.5c-0.4-11.3-0.8-22.6-3.2-33.7c-2.4-11.1-5.6-22-8.3-32.9
		c-1.5-6-3.4-11.8-5-17.7c-0.2-0.6-0.3-1.3-0.5-1.9c-0.1-1.4-0.3-2.8-0.6-4.2c-0.7-3.2-0.7-7.2-3.3-9.4c-0.1-0.2-0.2-0.5-0.3-0.7
		c-0.7-1.5-3.2-0.8-3.1,0.8c0.1,0.8,0.1,1.6,0.3,2.4c-0.3,2.2,0.4,4.5,0.5,6.8c0.1,4.6-0.3,9.3-1.9,13.6c-1.8,5-5.4,10.7-6.7,16.2
		c-3.2,5.4-6.7,10.6-10.4,15.5c-8.1,10.8-17.6,20.6-27.5,29.8c-10.1,9.3-20.9,17.9-31.9,26c-5.3,3.9-10.6,7.7-15.5,12
		c-2.8,2.5-6.4,5.4-8.9,8.8c-4.9-8.8-8.8-18.3-13-27.2c-0.3-0.6-1.3-0.3-1.2,0.3c1.3,13.8,6.4,26.2,12.6,38.4
		c1.1,2.2,2.3,4.2,3.6,6.3c1.3,5.8,2.2,11.6-0.5,17.1c-1.8,3.7-4.4,4.9-7.6,6.2c-1-0.7-1.7-1.8-2.5-2.9c-0.8-1.2-1.6-2.4-2.4-3.6
		c-1.3-5.1-2.6-10.3-4.7-15.3c-4-9.6-10.3-17.4-16.3-25.9c-2.9-4.1-6-7.9-9.4-11.5c-1.8-1.9-3.4-4.1-5.4-5.8c-2.3-2-5-3.3-7.1-5.3
		c-0.6-0.6-1.6,0.3-1,1c2.9,2.9,4.9,6.9,7.4,10.1c2.4,3.1,4.5,6.4,6.6,9.7c4.1,6.6,6.6,14,10.9,20.4c2.2,3.2,5.1,5.8,7.1,9.1
		c2.1,3.5,3.7,7.1,4.8,11.1c1.2,4.7,2.7,15.7-1.3,20.1c-2.3-0.3-4.5-0.6-6.8-1c-9.5-1.8-17.8-6.3-26.1-11.1
		c-8.4-4.9-17-9.7-25.4-14.6c-4.2-2.5-8.4-4.9-12.8-7.2c-4-2.1-8.1-5.1-12.6-6c-0.9-0.2-1.3,0.8-0.8,1.4c2.8,3.6,7.4,5.9,11,8.6
		c4.2,3.1,8.6,5.9,13,8.8c9,5.8,18.1,11.6,27.1,17.4c6.7,4.3,12.9,8.4,20.1,11.2c-6.6-0.4-13.1-0.5-19.7-0.8
		c-8-0.3-15.9-1.8-23.8-2.6c-1.1-0.1-1.1,1.5-0.2,1.8c6.9,2.8,14.6,3.7,21.9,4.8c7.8,1.1,15.7,2.3,23.5,3.5
		c14.1,2.2,27.8,8.3,42.2,5.6c-13.3-2.4-18.2-1.8-18.2-1.8l-3.8-12.1c24.1-13.6,28.4-22.8,25.8-31.5c-2.5-8.8-5.1-11-5.1-11
		s27.6-26,42.8-40.1s35.6-31.5,35.6-31.5s-1.5,11-2.7,25c-1.2,14-2.1,22.5-1.9,32.3c0.1,9.8-2.1,10.6-0.2,12.2c1.9,1.5,5,0.7,5,0.7
		s1.3-5.5,2.1-6.1c0.8-0.6,2.8-1.8,8.3-3.6c6.9-2.2,16.6-5,27.7-7.8C979.1,1161.4,978.9,1158.2,978.9,1155z M856,1174.3
		c0.1-0.1,0.2-0.1,0.3-0.2c0,0.3,0.1,0.6,0.1,0.9C856.3,1174.7,856.2,1174.5,856,1174.3z"/>
	<path opacity="0.3" fill="#091426" d="M984.3,1332.8c1.2,11.3,1.9,22.5,0.5,33.7c-1.5,11.2-5,22.3-10.3,32.3
		c-1.6,3.1-3.4,6.1-5.3,9c-28.7,33.4-81.1,45.5-122.6,36.4c-14.8-3.2-29.8-8.7-41.5-18.6c-6.2-5.2-12-11.5-17.1-18.2
		c-1-1.9-2.1-3.8-3.2-5.7c-1.5-2.5-3-5.1-4.8-7.4c-1.7-2.3-3.9-3.9-5.7-6.1c-0.6-0.8-1.9,0.2-1.4,1.1c1.9,2.9,3.2,6.4,4.9,9.4
		c1.9,3.4,3.7,6.9,5.2,10.5c2.3,5.6,8.4,17.5,0.4,20.8c-0.5,0.2-0.8,0.5-1.1,0.8c-12.2,2.7-28.1-23.4-32.4-31
		c-4.8-8.4-8.5-17.2-11.6-26.3c-1.5-4.4-3.1-8.8-4.2-13.3c-1.2-4.8-1.9-9.6-3.6-14.3c-0.4-1-1.7-0.8-1.8,0.2c-0.8,6,0.4,12,1.5,17.8
		c0.2,1,0.4,2,0.6,3c-5.9-4-12.2-7.2-18.3-11c-7.8-4.9-12.9-11.8-18.3-19.1c-11.3-15.2-22.7-30.6-31.9-47.3
		c-9-16.3-13.2-35.1-15.7-53.5c-1.2-9.1-1.3-18.4-0.3-27.5c0.1-1.2,0.3-2.3,0.5-3.5c-3.2,6.3-5.6,12.4-7.4,18.7
		c-5.4,18.3-1.4,38.6-1.8,50.2c-0.4,11.7,0.1,8.6-2.2,14.8s2.6,11.8,12.2,32s5.4,13.5,16.8,29s16,21.5,40.8,43.8
		c24.8,22.2,45.5,23.2,45.5,23.2c7,22.4,9.8,28.5,33.5,30.6s39.6-6.5,39.6-6.5s34.4,15.2,70,14.1c9.3-0.9,18.5-2.8,27.4-5.5
		c6-1.8,11.9-4.1,17.6-6.7c16.6-8.8,30.1-21.1,40.2-32c17.5-18.9,27-55.1,11.2-94.5c-10.5-26.3-22.6-40.2-43.7-50.9
		c14.1,14.1,25.3,31,32.4,49.7C980.9,1320.9,982.8,1326.8,984.3,1332.8z"/>
	<path opacity="0.3" fill="#091426" d="M1261.2,1277.5c35.9,23.6,59.5,26.9,110.7,17.8s111.1-36.5,127.8-59.5s7.3-54,7.3-54
		s-0.1,0-0.2,0c-14.8,6.4-31,8.7-46.9,10.3c-8.3,0.8-17.3,2.5-25.5,0.6c-4-0.9-7.7-2.5-11.6-3.8c-1.6-0.6-3.3-1.1-5-1.6
		c-1.1-0.4-2.2-0.7-3.3-1.1c-0.3-0.2-0.6-0.3-0.9-0.4c0.5-2.8-2.6-5.8-6-4.3c-1,0.4-1.8,1.1-2.4,2c-9.5-6.3-19.7-11.7-27.2-20.5
		c-5.4-6.4-9.3-14.1-12-22c-1.3-3.8-2.2-7.7-3.4-11.5c-1.1-3.7-1.4-7.7-3.1-11.2c-0.8-1.7-3.5-1.2-4,0.5c-1.6,5.4-0.6,12.8,0.6,18.3
		c1.4,6.6,3.5,13.1,6.4,19.2c5.8,12.5,15.2,21.4,26.6,28.9c10.9,7.2,24.5,14.3,29.3,27.4c4.7,12.8-1.8,27-9.8,37
		c-2.8,3.4-5.8,6.6-9.1,9.6c-9,6.3-18.3,12.3-28.3,16.9c-13.3,6.1-27.9,8.9-42.4,8.3c-28.7-1.2-55.7-14.7-77.6-32.6
		c-22.5-18.4-41.3-41.4-58.6-64.6c-5.4-7.3-10.6-14.7-15.7-22.2c-6.3-12.4-13.1-24.6-19.6-36.9c-6.9-13.1-13.9-26.1-20.9-39.2
		c-3.5-6.7-6.8-13.5-10.1-20.3c-1.7-3.4-3.4-6.7-5.2-10c-1.7-3.3-2.8-7-5-10.1c-0.1-0.2-0.3-0.3-0.5-0.3c-0.1-0.1-0.1-0.2-0.2-0.2
		c-3.4-9-6.6-18-10.2-26.9c-0.6-1.4-2.7-0.9-2.4,0.6c3.6,15,8.9,29.6,14.5,43.9c1.6,4,3.1,7.9,4.7,11.8c0.6,1.7,1.1,3.5,1.7,5.2
		c4.1,12,8.3,24,12.6,36c4.1,11.7,8.6,23.3,12.5,35.1c1.6,4.7,2.8,9.4,3.9,14.2c0.1-0.1,0.1-0.1,0.1-0.1
		C1181.5,1213,1225.4,1253.9,1261.2,1277.5z"/>
	<path opacity="0.3" fill="#091426" d="M1277.9,1131.3c-3.7,8.9-5.9,18.7-6.9,28.3c-0.6,5.7-0.7,11.5-1,17.2
		c-0.2,5-0.9,10.8,0.5,15.6c0.1,0.4,0.6,0.4,0.8,0.1c0.2,0,0.4-0.2,0.3-0.4c0,0-0.1-0.1-0.1-0.1c1.1-4,0.8-8.4,1-12.5
		c0.2-4.8,0.6-9.4,1.4-14.1c1.6-9.2,3.5-18.5,7.6-27c1.7-3.5,3.6-6.8,5.7-9.8c4.3-4.5,10.1-7.5,16.1-9.1c0.7-0.2,1.4-0.3,2.2-0.4
		c0,0,0,0,0,0.1c-2.3,6.4-3.4,13.3-5.1,19.9c-3.6,13.8-2.6,28.3-1.9,42.3c1.4,26.3,9,50.7,24.5,72.2c1,1.4,3.4,0.1,2.4-1.4
		c-14.6-20.3-20.1-47-19.9-71.7c0.1-13.1,3.1-26.2,3.8-39.3c0.4-9.1,1.7-19,4.6-28c0.3-0.2,0.6-0.3,0.9-0.5c0.2-0.1,0.4-0.2,0.7-0.3
		c0,0,0,0,0.1,0c0.3-0.1,0.6-0.2,0.9-0.3c0.4,8.9,2.8,17.5,6.5,25.6c3.4,7.6,7.8,16,13.5,22.1c0.9,0.9,2.4-0.3,1.8-1.4
		c-4.7-7.7-9.6-14.5-11.9-23.4c-2-7.9-3.1-15.9-3.2-24c0-8.6,1.4-17.2,3-25.6c1-5.3,2.4-10.3,4-15.2c-0.2,0.3-0.4,0.5-0.5,0.8
		c-14.8,21.1-12,33.6-12,33.6l-10.2,4.6c-1.8-2.3-4.2-4.8-7-7.3c-3,2.1-5.8,4.4-8.3,7C1285.7,1115.2,1281.3,1122.9,1277.9,1131.3z
		 M1305.2,1111.6c0,0.2-0.1,0.3-0.2,0.4c-0.2,0.3-0.9,0.6-1.8,0.9C1303.9,1112.4,1304.6,1112,1305.2,1111.6z"/>
	<g>
		<path fill="#7A44B1" d="M1513.4,1141.9l-3.5-1.8c0,0-5.6,11.2-8.2,12.7c-2.6,1.5-15.8,7.6-30.6,7.3c-28.5-0.7-60.4-4.2-80.1-28.8
			s-19.3-28.6-24.9-48.8c-5.5-20.1-2.9-41.1-2.9-41.1s0,0,0,0c-0.6,0.3-6.8,3.4-8.9,20c-0.5,3.9-1.2,10.4-1.7,18.4
			c-0.1,2.5-0.3,5.1-0.4,7.8c-0.3,10.6-0.1,22.8,1.6,34.9c2.8,19.7,9.4,38.9,23.7,49.1c26.2,18.8,35.9,24.2,71.8,26.2
			s54.4-1.8,60.4-16.8S1518,1156.8,1513.4,1141.9z"/>
		<path opacity="0.3" fill="#091426" d="M1377.5,1171.8c26.2,18.8,35.9,24.2,71.8,26.2s54.4-1.8,60.4-16.8s8.3-24.4,3.7-39.3
			l-3.5-1.8c0,0-5.6,11.2-8.2,12.7c-2.6,1.5-15.8,7.6-30.6,7.3c-28.5-0.7-60.4-4.2-80.1-28.8s-19.3-28.6-24.9-48.8
			c-5.5-20.1-2.9-41.1-2.9-41.1s0,0,0,0c-1.1,5.7-2.3,11.3-2.6,17.1c-0.2,2.8-0.2,5.7-0.2,8.5c-1.9,2.1-3.3,4.8-4.6,7
			c-1.1,1.9-2.2,3.8-3.2,5.8c-0.1,2.5-0.3,5.1-0.4,7.8c1.4-2.9,2.6-5.9,4.1-8.8c1-2,2.4-5,4.3-7.2c0.3,4.4,0.8,8.7,1.6,13
			c0.9,5,2.2,9.9,3.8,14.6c-4.9,4-8.5,10.4-10.3,15.9c-0.8,2.4-1.4,4.8-1.7,7.3C1356.6,1142.4,1363.3,1161.5,1377.5,1171.8z
			 M1488.6,1166.9C1488.6,1166.9,1488.6,1166.9,1488.6,1166.9c7.5,3.1,7.1,11.1,1.9,16.2c-0.5,0.5-1.1,0.9-1.6,1.4
			c1-5.7-0.1-11.9-2.3-17C1487.2,1167.3,1487.9,1167.1,1488.6,1166.9z M1429.1,1163.5c14.7,5.1,30.6,7.1,46.6,5.8
			c3-0.2,6.2-0.7,9.2-1.4c0.8,6.3,1,13.3-0.9,19.4c-5.1,2.2-10.9,3-16.2,3.8c-8.2,1.2-16.4,1.7-24.5,1.2c-0.4-2.9-0.5-5.9-0.1-8.8
			c0.3-3.1,1.4-6.1,1.3-9.2c0-0.8-1.2-1.3-1.6-0.4c-2.4,5.3-3,12.2-2.5,18.2c-2.5-0.2-5-0.5-7.5-0.9c-0.5-1.4-1.2-2.5-1.7-4
			c-1.1-3-1.5-6.5-1.9-9.7C1428.9,1172.7,1429.1,1168.1,1429.1,1163.5z M1425.6,1162.2c-1.5,6.1-1.1,12.8-0.3,18.9
			c0.3,2.6,0.6,6,1.7,8.8c-2.6-0.6-5.2-1.3-7.8-2.1c-13.6-4.3-25.7-11.5-36.1-20.6c0.3-9.9,2.8-19.4,6.7-28.5
			C1400,1149.2,1412.2,1157,1425.6,1162.2z M1357.4,1120.2c1.8-6.9,5.5-11.7,10.1-16.4c3.9,10.1,9.4,19.6,16.3,28.1
			c1.3,1.6,2.7,3.2,4.1,4.7c-4.7,8.2-7.5,17.2-9,26.5c-8.9-8.8-16.4-19.1-22.2-30.4C1356.1,1128.6,1356.3,1124.3,1357.4,1120.2z"/>
	</g>
	<g>
		<path opacity="0.3" fill="#091426" d="M1039.8,1037c-4,1.9-4,5.4-5.6,14.5c-1.6,9.1-5.6,51.9-5.7,54.9s-0.2,2.8,4.3,6.1
			s9.9,5.5,11.8,6.9c1.5,1.1,2,22.4,2.2,32.4c2.1-0.2,4.2-0.4,6.2-0.5c2.3-0.2,4.6-0.3,6.7-0.3l-7.6-107.1L1039.8,1037z"/>
		<g>
			<polygon fill="none" points="1070.9,1061 1070,1037.9 1059.7,1037.9 1057.6,1061 			"/>
			<path fill="#B19EF3" d="M1095.3,1114.8l-0.6-4.8c0,0,0-0.1-0.1-0.1c0,0,0,0,0,0l-0.3-2.5l-0.3-2.5l-8.5-75c0,0-0.4-0.2-1.1-0.5
				c-2.4-1-8.6-3.1-17.5-3.1c-6.4,0-13.8,3.4-19.3,6.5c-4.6,2.6-7.9,5.1-7.9,5.1l-7,65.2l16.7,10.5l3.5,37.8
				c1.4-0.1,2.9-0.2,4.2-0.2c2.2-0.1,4.2-0.2,6.2-0.2c6.2,0,12.6,0.1,18.9,0.3c0.7,0,1.5,0.1,2.2,0.1c1,0,2,0.1,3,0.1
				c0.4,0,0.7,0,1.1,0c2.5,0.1,4.9,0.2,7.4,0.3c1.3,0.1,2.7,0.1,4,0.2L1095.3,1114.8z M1059.7,1037.9h10.4l0.9,23h-13.3
				L1059.7,1037.9z"/>
			<path opacity="0.3" fill="#091426" d="M1078.8,1060.1c0,0-1.4,0.7-6.1,0.8c-0.5,0-1.1,0-1.7,0l-0.9-23v-2.7l5.2,0.8
				c0,0,1.2,2.4,2.2,7.6C1078.2,1047.5,1078.8,1052.9,1078.8,1060.1z"/>
			<path opacity="0.3" fill="#091426" d="M1094.8,1109.9C1094.8,1109.9,1094.8,1109.9,1094.8,1109.9c-0.9,0.5-2.2,0.9-3.6,1.3
				c-1.5,0.4-3.1,0.8-5,1.2c0.3,3.7,0.6,8.5-2.7,10.2c-0.4,0.2-0.8,0.4-1.3,0.5c-3.5,0.7-7.1-0.8-10.6-0.9c-5.8,0-8.6,6.4-8,11.6
				c0.6,5.7,4.1,6.2,8.3,5.7c1.9-0.3,4-0.8,6-1.1c1.5-0.2,3-0.4,4.4-0.3c0.7,0.1,1.3,0.2,2,0.4c5.2,2,5.1,7.9,4.7,12.8
				c-0.4,0-0.7,0-1.1,0c-1,0-2-0.1-3-0.1c-0.5-4,0.2-8.2-5.8-8.6c-3-0.2-6.3,1.1-9.5,1.4c-0.4,0-0.7,0-1.1,0c-5.9-0.1-9-3.4-9.3-9.4
				c-0.2-5.6,1.9-12.9,7.5-15.4c2.5-1.1,5.3-0.9,8-0.6c1.6,0.2,5.2,1.5,6.5,0.7c1.8-1.2,1.6-4,1.3-6.2c-3.7,0.7-7.6,1.3-11.4,1.9
				c-10.6,1.5-15.2,0.4-15.3,0.9c-0.1,0.4,1.1,23.8,1.7,35c-1.4,0.1-2.8,0.1-4.2,0.2l-3.5-37.8l-16.7-10.5l7-65.2
				c0,0,3.2-2.4,7.9-5.1c0.6,17.9,2.8,41.4,4.4,57.4c0,0.3,0,0.5,0.1,0.8c0.2,1.5,0.3,2.9,0.4,4.3c0.1,1.3,0.3,2.5,0.4,3.6
				c0.2,1.8,0.4,3.5,0.5,4.8c0,0.3,0.1,0.5,0.1,0.8c0.2,2.3,0.4,3.6,0.4,3.6l-3.2,3.7c0,0,10.5-1.3,23.3-2.5
				c7.2-0.6,13.2-2.1,17.1-3.3c1.2-0.4,2.2-0.7,3-1l0.3,2.5L1094.8,1109.9z"/>
			<path fill="#B19EF3" d="M1094.8,1110L1094.8,1110C1094.8,1109.9,1094.7,1109.9,1094.8,1110C1094.7,1110,1094.8,1110,1094.8,1110z
				"/>
			<path fill="#D9DFFF" d="M1086.9,1067.8c-0.1,0-0.2,0-0.4,0.1c-6.5,3.3-12.5,7.8-18.6,11.8c-5.3,3.4-10.9,6.6-15.9,10.5
				c0,0.3,0.1,0.5,0.1,0.8c6-2.9,11.7-6.8,17.5-10.3c5.8-3.5,12-6.8,17.5-10.8c0.1,1,0.2,1.9,0.3,2.9c-6.8,2.5-12.9,7.7-18.9,11.8
				c-5,3.4-11.1,6.6-16,10.7c0.1,1.3,0.3,2.5,0.4,3.6c5.9-2.6,11.4-7.1,16.8-10.4c6.1-3.7,12.1-7.5,18.2-11.2
				c0.2,1.4,0.3,2.9,0.5,4.3c-6.2,3.7-12.4,7.4-18.5,11.2c-5.4,3.4-11.6,6.6-16.4,11c0,0.3,0.1,0.5,0.1,0.8c6.1-2.2,12-6.3,17.5-9.6
				c5.9-3.5,11.7-7.2,17.6-10.8c0.8,7.3,1.7,14.6,2.5,21.9c1.2-0.4,2.2-0.7,3-1l-8.5-75c0,0-0.4-0.2-1.1-0.5c0,0.1-0.1,0.2-0.1,0.3
				C1083.9,1042.3,1085.6,1055.1,1086.9,1067.8z"/>
			<path fill="#D9DFFF" d="M1095.3,1114.8l-0.5-4.8c0,0,0,0-0.1-0.1c-0.9,0.4-2.1,0.9-3.6,1.3c-0.2,3,0.6,6.1,0.8,9.1
				c-0.2,0-0.4,0.1-0.6,0.2c-4.8,3-9.4,6.4-14,9.7c-3.4,2.4-6.9,4.8-9.4,8.1c0,0-0.1,0-0.1,0c-2-1.4-2.3-4.2-2-6.4
				c0.7-4,2.9-6,7-6.2c3.6-0.2,8.9,0.4,10.6-3.1c-0.4,0.2-0.8,0.4-1.3,0.5c-3.5,0.7-7.1-0.8-10.6-0.9c-5.8,0-8.6,6.4-8,11.6
				c0.6,5.7,4.1,6.2,8.3,5.7c0,0,0,0,0-0.1c2.6-1.5,5-3.5,7.4-5.4c4.2-3.4,8.6-6.4,13-9.5c0,1.1,0,2.2,0.1,3.3
				c-2.4,1.6-4.9,3.2-7.2,5c-2.2,1.7-4.5,4.4-7,5.4c-0.1,0.1-0.2,0.1-0.3,0.2c1.5-0.2,3-0.4,4.3-0.3c1-0.7,2-1.6,2.8-2.2
				c2.4-1.8,4.9-3.5,7.5-5.1c0,0.3,0,0.6,0.1,0.9c0.6,6.8,2.1,13.4,3.7,20c1.3,0.1,2.7,0.1,4,0.2L1095.3,1114.8z"/>
			<path fill="#D9DFFF" d="M1078.9,1142.7c-3-0.2-6.3,1.1-9.5,1.4c-0.2,0.1-0.5,0.2-0.7,0.3c-0.4,0.2-0.3,0.7,0,0.9
				c2.1,1.5,5.1,0.8,7.5,0.3c1.9-0.4,4.4-1.6,5.9,0.3c1,1.3,0.6,3.7,0.4,5.3c0.7,0,1.5,0,2.2,0.1
				C1084.1,1147.3,1084.8,1143,1078.9,1142.7z"/>
			<path fill="#D9DFFF" d="M1072.6,1060.9c-1.4,0.1-2.8,0.1-3.9,0.3c-2.8,0.3-5.2,0-8-0.1c-0.9,0-0.9,1.1-0.2,1.4
				c3.1,1.3,7.1,1.9,10.4,1.9c2.5,0,6.7-0.1,8.6-1.9c1.8-1.6,1.6-4.9,1.6-7.1c0-3.6-0.4-7.2-1.3-10.7c-0.3-1.3-1.5-1.5-2.5-1.1
				c0.7,3.9,1.4,9.3,1.3,16.5C1078.8,1060.1,1077.3,1060.8,1072.6,1060.9z"/>
		</g>
	</g>
	<g>
		<g>
			<path fill="#7A44B1" d="M1052.1,1008.9c-4.2-8.8-17.1-26.2-22.2-35s-5.4-8.9-11.1-10.1c-2.8-0.6-15.4-1.9-29.1-3.4
				c-0.7-0.1-1.4-0.2-2.2-0.2c-8-0.8-16.2-1.7-22.9-2.5c-1.1-0.1-2.1-0.3-3.1-0.4c-3.1-0.4-5.8-0.7-7.9-1.1c-0.1,0-0.2,0-0.3,0
				c-14.4-2.2-10.8,1.4-8.6,6s5.6,15.8,12,19s22.2,10.2,45.3,20.9s43.1,20.3,58.1,24.2c0,0-0.8-1.8-2-4.6
				C1056.5,1018.3,1054.4,1013.6,1052.1,1008.9z"/>
			<path fill="#7A44B1" d="M1087.5,947c-0.5-4.6-0.5-5.5-3.3-3.8c-0.5,0.3-1.1,0.7-1.9,1.1c-0.6,0.4-1.2,0.8-2,1.2
				c-2.3,1.4-4.5,2.8-6.5,4.3c-0.6,0.5-1.2,0.9-1.8,1.4c-3,2.4-5.2,4.6-5.9,6.5c-1.2,3.4-2.9,9.8-4.6,31.6
				c-1,11.9-1.3,21.8-1.4,28.3c-0.1,5.5-0.1,8.7-0.1,8.7s15.6-25.5,20.3-31.8c4.7-6.2,4.2-6.2,6-14c0,0,0,0,0.5-3.8
				c0.2-1.1,0.3-2.5,0.6-4.3C1088.6,964.2,1088.2,953.2,1087.5,947z"/>
		</g>
		<path opacity="0.3" fill="#091426" d="M944.6,962.2c2.1,4.7,5.6,15.8,12,19s22.2,10.2,45.3,20.9s43.1,20.3,58.1,24.2
			c0,0-0.8-1.8-2-4.6c-5.7-2.7-11.5-5-17.4-7.2c-1.3-1-2.5-2.2-3.7-3.5c-3.6-4.1-7.1-8.7-10.2-13.3c-3-4.4-5.7-9.2-8-14.1
			c-2.6-5.6-3.7-11.5-5.9-17.2c-0.2-0.5-1-0.5-1,0.1c-1.2,12.3,6.2,25.5,12.1,35.8c1.1,1.9,2.3,4,3.7,6.2c-2.5-1.1-4.9-2.2-7.1-3.4
			c-6.2-3.3-12.7-6.3-16.8-12.2c-3.7-5.2-6.8-11-9.8-16.6c-1.6-3-2.6-6.2-3.3-9.5c-0.5-2.2-0.5-4.4-1-6.5c-0.7-0.1-1.4-0.2-2.2-0.2
			c-1.3,5,1.3,11.4,2.7,15.9c2.1,7,5.2,13.3,9.2,19.5c0.2,0.3,0.4,0.6,0.6,0.8c-8.1-3.8-17-7.1-22.7-14c-3.3-4-6.1-8.6-8.3-13.3
			c-1.7-3.7-2.9-7.6-4.3-11.3c-1.1-0.1-2.1-0.3-3.1-0.4c0.4,4.4,2.2,9.1,3.8,12.9c2,4.9,4.4,9.8,7.5,14.2c-2.9-1.5-5.8-3-8.7-4.6
			c-8.5-4.7-13.3-14.3-10.4-23.5c-0.1,0-0.2,0-0.3,0C938.9,953.9,942.5,957.5,944.6,962.2z"/>
		<path opacity="0.3" fill="#091426" d="M1060,1026.2c0,0,15.6-25.5,20.3-31.8c4.7-6.2,4.2-6.2,6-14c0,0,0,0,0.5-3.8
			c-1,2.1-2.1,4.2-3.1,6.3c2.4-12.8,4.5-27.5,0.4-39.8c-0.5,0.3-1.1,0.7-1.9,1.1c4,14.1-0.9,31-4.6,44.5c-1.9,7-3.9,13.4-8,19.5
			c-0.2,0.2-0.3,0.5-0.5,0.7c2.1-7,3.6-14.2,4.5-21.3c0.9-7.2,1.4-14.5,1.5-21.8c0.1-5,0.7-11.3-1.3-16.2c-0.6,0.5-1.2,0.9-1.8,1.4
			c0.5,5.3,1.1,10.3,0.8,15.7c-0.4,7.1-0.8,14.3-2.1,21.4c-1.2,7-3.7,13.7-6.6,20.1c-1.3,2.9-2.9,6-4.1,9.2
			C1059.9,1023.1,1060,1026.2,1060,1026.2z"/>
	</g>
</g>
</svg>
