<?xml version="1.0" encoding="utf-8"?>
<!-- Generator: Adobe Illustrator 21.0.2, SVG Export Plug-In . SVG Version: 6.00 Build 0)  -->
<svg version="1.1" id="_x31_5_x5F_Top_x5F_Tunic" xmlns="http://www.w3.org/2000/svg" xmlns:xlink="http://www.w3.org/1999/xlink"
	 x="0px" y="0px" viewBox="0 0 2000 2000" enable-background="new 0 0 2000 2000" xml:space="preserve">
<g>
	<polygon fill="#7F8631" points="1099.7,1030.7 1148,1165.7 1156,1175.7 1183.3,1239.3 1188.7,1201.7 1108.3,1026.3 	"/>
	<path fill="#7F8631" d="M722,1158l-27.7,23.7L653,1240l-5,41l17.3-22.3l5.7-6.3c0,0,10.3-2.3,10.7-4C682,1246.7,722,1158,722,1158z
		"/>
	<path fill="#B3B96A" d="M1173.8,1218.8c1,0.5,25.5,56.2,25.5,56.2l8.8,17.5l18.2,25.5c0,0,8.8,6.5,8.5,4.8s-1.2-5.8-1.2-6.8
		s-22.2-65.2-22.5-66s-22.5-54.2-22.5-54.2L1173.8,1218.8z"/>
	<path fill="#F1F681" d="M1248.8,1123.5l25.2,16.8l37.2,14.5l8.8,6.5c0,0-2.8,2.5-3.5,2.2s-13.5-0.2-13.5-0.2l-25.7,24.3l-19.1,33.5
		l-19.5,46.8l3.5,31.5l8.8,28.2l12.8,21.2l-30.5-31.8l-48.2-114.2l13.8-41"/>
	<path fill="#F1F681" d="M1061.6,967.4l-4.3,18.6l-1.6,14.2c0,0-0.2,25-0.2,24.5s-35.3-28.3-35.7-29.3s-26.6-23.3-26.6-23.3
		l-0.8-4.5l-16.9,7.2l-4.9,7.2c0,0,19.6,25.4,20.8,25.4s35.5,12.6,35.5,12.6s47.7,85.4,48.3,85s2.9-5.6,2.9-5.6s3.3-14.9,3.3-15.9
		s-1.2-68.9-1.2-68.9l6.2-26.6l-6-7.2l-12.8-12L1061.6,967.4z"/>
	<path fill="#ACB033" d="M1166.7,1226l4.9,16.1l3.7,17.2l1.3,12c0,0-75.3,15.7-80.7,13.7s-67-3.7-67-3.7s-43-11.3-43.3-12.7
		c-0.3-1.3-6.3-12-6.3-12l-2.7-83L1166.7,1226z"/>
	<path fill="#7F8631" d="M982.7,1255.3l-5-7.7L980,1045l-14.7,1l-83.3,92.3l-58.3,72l-18.3-3.7l-67.3-13c0,0,18.3-32.7,20-33.7
		s82.3-16.7,83.3-17.7S970.7,1025,970.7,1025s13.7-5.3,14.7-5.3s13,2.7,13,2.7L982.7,1255.3z"/>
	<polygon fill="#7F8631" points="938.5,1177.8 924.8,1239.8 955.8,1211.5 980.8,1246.2 978.8,1171 	"/>
	<g>
		<g>
			<g>
				<path fill="#F1F681" d="M1272.6,1149.1c-0.1-0.1-0.2-0.2-0.3-0.2c-1.3-0.9-3.3-0.6-4.6,0.8c-1.4,1.4-1.6,3.4-0.7,4.7
					c0.1,0.1,0.1,0.2,0.2,0.3c0.2,0.2,0.4,0.3,0.7,0.4c1.3,0.6,3,0.3,4.3-1s1.6-3.1,0.9-4.3
					C1272.9,1149.5,1272.8,1149.3,1272.6,1149.1z"/>
				<path fill="#F1F681" d="M1302.7,1150.9c-8-2.4-14.1-3.8-22.8-8.1l-1.2,1.3c0.6,6.4-1.3,10.1-4.7,13.4c-2.8,2.8-8.6,2.5-10.7,2.4
					l-3.2,3.3l-0.8-0.8l3-3.1c-0.8-1.5-2.6-6.4,2.2-11.6c4.8-5.3,11.3-4.7,13.4-4.4l0.9-0.9c-5.1-2.6-11.1-6.1-18.8-11.3
					c-0.6-0.4-1.3-0.9-2.1-1.4c-16.6,2.2-39.4,27.6-54.5,45.5c-7.9,9.4-13.3,18.6-16.6,28.8c5.9,13.5,10.8,24.5,13.8,31.1
					c16.3,35.2,32.7,107.4,72.7,120.4c0,0-16.2-13.7-28-43.1s-10.2-47.6,4.8-83.6c14.5-34.9,61-90.3,69.2-64c0.5-0.2,1-0.4,1.4-0.6
					C1319.7,1154.8,1315.5,1154.7,1302.7,1150.9z"/>
				<path fill="#612260" d="M1264.4,1147.6c-4.7,5.3-2.9,10.1-2.2,11.6l-3,3.1l0.8,0.8l3.2-3.3c2,0.2,7.8,0.5,10.7-2.4
					c3.3-3.3,5.3-7,4.7-13.4l1.2-1.3c-0.4-0.2-0.7-0.4-1.1-0.5l-0.9,0.9C1275.8,1142.8,1269.2,1142.3,1264.4,1147.6z M1272.2,1154.1
					c-1.3,1.3-3,1.7-4.3,1c-0.2-0.1-0.5-0.3-0.7-0.4c-0.1-0.1-0.2-0.2-0.2-0.3c-1-1.2-0.7-3.2,0.7-4.7c1.4-1.4,3.4-1.7,4.6-0.8
					c0.1,0.1,0.2,0.1,0.3,0.2c0.2,0.2,0.3,0.4,0.5,0.6C1273.7,1151,1273.4,1152.8,1272.2,1154.1z"/>
			</g>
			<g>
				<path fill="#F1F681" d="M1150.3,1304.6c1.9,1.1,3.4,3,3.8,5.2c9.3-1.2,42.2-0.8,50.2-3.2c-1.1-5.4-5-15.1-7.9-21.5l-33-1.7
					C1161.7,1285,1155.6,1296.4,1150.3,1304.6z"/>
				<path fill="#F1F681" d="M994.8,1297.8c1.2,0.5,5.7,1.7,11.8,3.7l23.1-11.4h0.4c0.2,0,17.3,0.4,28.6,1.1c0.7-3.5,3.8-6.1,7.5-6.1
					c3.8,0,5.5,4.2,6.1,7.8c14.6-0.2,36.5-2.4,43.5-2.7c-0.1,0.5-0.1,0.9-0.1,1.4c0,0.6,0.1,1.1,0.2,1.6c-5,0.2-17.3,0.2-28.7,0.5
					l18.5,19.5c3.1,0,17.1-0.2,33.5-1.7v-0.1c0-4.2,3.4-7.6,7.6-7.6c0.2,0,0.4,0,0.7,0c6.3-10,14.5-17.4,14.9-17.8l0.4-0.4l33.7-0.4
					c-3.1-5-5.3-9.5-8-16.3c-7.1,2.5-37.6,4.8-83.3,9.3c-67,6.6-109.3-7.8-109.3-7.8c-4.7-4.4-10.1-10.5-14.9-16.7
					c0.3,6.4-0.2,12.3,0.1,16.2c0.3,6.1-0.3,4.4,0.8,8.8c-0.5-2.3,1.8,2.7,1.4,0C987.4,1285.8,991,1292,994.8,1297.8z"/>
				<path fill="#F1F681" d="M1147.6,1317.1c-3.1,0-6.7-0.1-7.9-2.7c-18.8,1.7-34.6,1.8-34.8,1.8h-0.7l-20.2-22
					c-3.7,0.1-8.4-0.1-11.7-0.1c-0.8,3.4-2.7,6.2-6.3,6.2c-3.7,0-6.8-2.7-7.5-6.2c-10.3-0.6-25.7-1-28.3-1.1c0,0-36.3,6.8-36.4,6.8
					l-0.4-0.2l-0.2-0.4c-2.7-4.1-5.8-9-9.1-14.1c2.4,18,10.1,24.3,17.6,28.3c8.6,4.5,59.8,18.9,121.7,15.1
					c30.6-3.3,65.4-13.1,74.9-15.8c3.3-0.9,6.4-2.5,6.3-4.1c-0.1-1.9-0.8-4.7-1.6-6.8c-8.1,2.3-41.2,9.8-50.6,11.1
					C1151.5,1316.2,1151.2,1317.1,1147.6,1317.1z"/>
				<ellipse fill="#F1F681" cx="1048.4" cy="1311.2" rx="4.4" ry="4.3"/>
				<path fill="#F1F681" d="M1066.1,1288.2c-1.9,0-3.5,1.2-4.3,2.8c-0.3,0.5-0.4,1-0.4,1.6c0,0.7,0.3,1.5,0.5,2.1
					c0.8,1.3,2.3,2.3,4,2.3c1.8,0,3.3-1,4-2.3c0.4-0.6,0.6-1.3,0.6-2.1c0-0.6-0.1-1.1-0.3-1.6
					C1069.8,1289.4,1068.1,1288.2,1066.1,1288.2z"/>
				<path fill="#F1F681" d="M1146.7,1306.6c-2.3,0-4.2,1.9-4.3,4.3c0,0.1,0,0.1,0,0.3c0,1.4,0.6,2.5,1.4,3.4
					c0.7,0.8,1.8,1.3,2.9,1.3c1.4,0,2.8-0.8,3.6-2c0.5-0.8,0.8-1.7,0.8-2.7c0-0.5-0.1-0.9-0.2-1.3
					C1150.3,1308,1148.6,1306.6,1146.7,1306.6z"/>
				<path fill="#C59DEC" d="M984,1285.2L984,1285.2L984,1285.2z"/>
				<path fill="#C59DEC" d="M1154.2,1309.7c-0.5-2.2-1.9-4.1-3.8-5.2c5.3-8.1,11.9-14.5,13.5-16.1l29.7-3.9
					c-0.6-1.2-0.8-3.2-0.8-3.2l-30.1,4.2l-0.4,0.4c-0.4,0.3-8.6,7.8-14.9,17.8c-0.2,0-0.4,0-0.7,0c-4.2,0-7.6,3.4-7.6,7.6
					c0,0.1,0,0.1,0,0.1c-16.4,1.4-30.4,1.7-33.5,1.7l-17.6-19c11.4-0.3,22.7-0.7,27.7-0.9c-0.1-0.5,1.3-0.8,1.3-1.4
					c0-0.5-0.4-1.1-0.4-1.6c-7,0.3-28.6,1.1-43.1,1.3c-0.6-3.6-3.8-6.3-7.5-6.3s-6.8,2.6-7.5,6.1c-11.3-0.7-28.4-1.1-28.6-1.1h-0.4
					l-23.1,11.4c-6.1-2-9.9-3.6-11.1-4.1c-3.7-5.6-8.1-12.5-12.6-19.7c0.3,2.7,0.8,5.3,1.3,7.6l0,0c3.3,5.1,6.4,10,9.1,14.1l0.2,0.4
					l0.4,0.2c0.2,0.1,17.4,8,47.1,12.6c0.6,3.6,3.7,6.4,7.5,6.4c4.2,0,7.6-3.4,7.6-7.6s-3.4-7.6-7.6-7.6c-3.6,0-6.6,2.5-7.4,5.8
					c-12.5-2-22.8-4.5-30.4-6.8l19.6-9.6c2.6,0.1,18,0.4,28.3,1.1c0.7,3.5,3.8,6.2,7.5,6.2c3.6,0,6.7-2.5,7.4-5.9
					c3.3,0,6.9-0.1,10.6-0.2l20.2,22h0.7c0.3,0,16-0.1,34.8-1.8c1.2,2.7,3.9,4.5,7,4.5c3.7,0,6.8-2.6,7.5-6.1
					c9.4-1.2,41-8.7,49-11.1c0.1,0.6-1-2.6-1-2.6C1194.3,1301.4,1163.5,1308.5,1154.2,1309.7z M1048.4,1307.6c2,0,3.6,1.6,3.6,3.6
					s-1.6,3.6-3.6,3.6s-3.6-1.6-3.6-3.6S1046.4,1307.6,1048.4,1307.6z M1069.2,1294.3c-0.6,1.1-1.8,1.9-3.2,1.9
					c-1.4,0-2.6-0.8-3.2-1.9c-0.3-0.5-0.4-1.1-0.4-1.7c0-0.5,0.1-0.9,0.3-1.3c0.5-1.4,1.8-2.3,3.4-2.3s2.9,1,3.4,2.4
					c0.1,0.4,0.2,0.8,0.2,1.3C1069.6,1293.2,1069.5,1293.8,1069.2,1294.3z M1149.6,1313.3c-0.7,0.9-1.7,1.6-3,1.6
					c-0.9,0-1.8-0.4-2.4-1c-0.7-0.7-1.2-1.6-1.2-2.7c0-0.1,0-0.2,0-0.2c0.1-1.9,1.7-3.4,3.6-3.4c1.7,0,3,1.1,3.5,2.6
					c0.1,0.3,0.2,0.6,0.2,1C1150.3,1312,1150.1,1312.7,1149.6,1313.3z"/>
			</g>
			<path fill="#7F8631" d="M1186.8,1203.9c-25.7-58.6-71.4-165.1-78-168.7c-8.2-4.5-4.4,3.6,4.2,23.3c8.6,19.7,17.5,50,38.9,111.3
				c0.5,1.1,13.9,30.4,30.4,67.4C1182.3,1224.5,1183.6,1213.7,1186.8,1203.9z"/>
			<g>
				<path fill="none" d="M1218.3,1280c0.3,0.8,0.6,1.7,1,2.5c-0.2-0.8-0.5-1.5-0.7-2.3C1218.5,1280.1,1218.4,1280.1,1218.3,1280z"/>
				<path fill="#B3B96A" d="M1207.8,1252.3c-0.1-0.4-0.3-0.7-0.4-1l-0.1,0.3C1207.5,1251.8,1207.7,1252,1207.8,1252.3z"/>
				<path fill="#B3B96A" d="M1226.5,1306.1c1.2,0.7,2.4,1.3,3.7,1.8c-1.5-3.1-3-6.3-4.4-9.5
					C1225.6,1301,1225.9,1303.5,1226.5,1306.1z"/>
				<path fill="#B3B96A" d="M1334,1290.1c-45.4-4.5-86.7-36.3-86.7-36.3s9-28.8,27.3-57.7c14.1-22.1,25-28.9,32.6-31.1
					c4.7,1,9.1,0.6,12-0.4c-8.1-26.3-54.7,29.1-69.2,64c-15,36.1-16.7,54.2-4.8,83.6c11.8,29.4,28,43.1,28,43.1
					c-17.6-5.7-30.7-22.9-41.1-43.4c-1.5-0.6-3-1.2-4.5-1.9c0.7,1.7,1.5,3.3,2.4,4.9c1,1.7-1.6,3.2-2.6,1.5
					c-1.5-2.6-2.8-5.5-3.7-8.4c-2.1-1.2-4.1-2.6-6-4.1c-1.5-1.2,0.6-3.3,2.1-2.1c0.9,0.8,1.9,1.5,3,2.2c-0.3-1.9-0.4-3.9-0.2-5.8
					c0.1-1.3,1.5-1.7,2.3-1.3c-1.4-3.3-2.8-6.7-4.2-10.1c-0.2-0.2-0.3-0.4-0.4-0.6c-0.5-1.2-0.9-2.4-1.3-3.7c-0.3-0.8-0.7-1.7-1-2.5
					c-1.6-0.9-3.2-1.7-4.9-2.6c-1.7-0.9-0.2-3.5,1.5-2.6c0.6,0.3,1.2,0.6,1.7,0.9c-1.9-5-3.7-9.9-5.5-14.6c0.3,2.6,0,5.2-0.7,7.8
					c-1.2,4.8-7,8.3-9.3,9.5c16.6,33,31.1,49.3,47.8,68.2c19.8,22.3,50.7,25.8,70.7-2C1339.7,1316.8,1334,1290.1,1334,1290.1z"/>
				<path fill="#B3B96A" d="M1205,1261.3c-0.3-0.2-0.5-0.3-0.8-0.4c-0.1,0-0.3,0-0.4,0c-1.8-0.1-3.7,1.5-4.3,4s0.3,4.7,2,5.4
					c0.1,0.1,0.3,0.1,0.4,0.2c0.3,0.1,0.6,0.1,0.9,0c1.7-0.2,3.2-1.7,3.8-3.9C1207.2,1264.3,1206.4,1262.2,1205,1261.3z"/>
				<path fill="#B3B96A" d="M1206.1,1251.1l0.5-2.1c-2-5.1-3.9-9.8-5.9-14c-1.3-2.9-3-6.6-5-11.1c-0.3,1.5-0.7,3.1-1,4.6
					c-0.4,1.9-3.3,1.1-2.9-0.8c0.4-2,0.9-3.9,1.3-5.9c-1.7-0.9-3.4-1.8-5.1-2.7c-1.7-0.9-0.2-3.5,1.5-2.6c1.3,0.7,2.6,1.4,3.9,2
					c-2-4.4-4.1-9.4-6.5-14.7c-3.2,9.8-4.6,20.6-4.5,33.3c1.2,2.7,2.5,5.5,3.7,8.3c0.1,0.1,0.2,0.2,0.3,0.2v-3.5c0-1.9,3-1.9,3,0
					v5.7c1.5,1.1,3.1,2.3,4.6,3.5s0,3.8-1.5,2.6c-1-0.8-2-1.6-3.1-2.3v1.3c0.8,1.8,1.6,3.5,2.3,5.3c1.1,2.4,2.1,4.8,3.2,7.1
					c0-0.2,0.1-0.4,0.1-0.7C1196.7,1255.9,1203.8,1252.1,1206.1,1251.1z"/>
				<path fill="#612260" d="M1208.5,1246.4l-1.3-0.3l-0.7,2.9c0.3,0.7,0.6,1.5,0.8,2.2L1208.5,1246.4z"/>
				<path fill="#612260" d="M1207.8,1252.3c1.1,2.9,2.2,5.8,3.3,8.9C1210.9,1258.3,1209.9,1255.4,1207.8,1252.3z"/>
				<path fill="#491E56" d="M1210.4,1269c0.7-2.7,1-5.2,0.7-7.8c-1.1-3-2.2-6-3.3-8.9c-0.2-0.2-0.3-0.5-0.5-0.7l0.1-0.3
					c-0.3-0.7-0.6-1.5-0.8-2.2l-0.5,2.1c-2.3,1-9.3,4.7-11.1,13.6c0,0.2-0.1,0.4-0.1,0.7c2.1,4.6,4.2,9,6.3,13.1
					C1203.5,1277.2,1209.2,1273.7,1210.4,1269z M1206.6,1266.6c-0.5,2.2-2.1,3.8-3.8,3.9c-0.3,0-0.6,0-0.9,0c-0.1,0-0.3-0.1-0.4-0.2
					c-1.7-0.7-2.6-3-2-5.4s2.4-4.1,4.3-4c0.1,0,0.3,0,0.4,0c0.3,0.1,0.6,0.2,0.8,0.4C1206.4,1262.2,1207.2,1264.3,1206.6,1266.6z"/>
				<path fill="#C79EEF" d="M1225.8,1298.2c0.1-0.6-0.2-1.1-0.7-1.3c0.2,0.5,0.4,1,0.7,1.5
					C1225.8,1298.3,1225.8,1298.2,1225.8,1298.2z"/>
				<path fill="#C79EEF" d="M1234.1,1312.7c1.8,0.7,2.6-2.2,0.8-2.9c-1.6-0.6-3.2-1.2-4.7-1.9c0.7,1.4,1.3,2.7,2,4.1
					C1232.8,1312.2,1233.5,1312.5,1234.1,1312.7z"/>
				<path fill="#9280A6" d="M1222.8,1298.2c-0.2,1.9-0.1,3.9,0.2,5.8c-1-0.7-2-1.4-3-2.2c-1.5-1.2-3.6,0.9-2.1,2.1
					c1.9,1.5,3.9,2.9,6,4.1c0.8,3,2.1,5.9,3.7,8.4c1,1.7,3.6,0.2,2.6-1.5c-0.9-1.5-1.7-3.2-2.4-4.9c1.5,0.7,3,1.3,4.5,1.9
					c-0.7-1.3-1.4-2.7-2-4.1c-1.2-0.6-2.5-1.2-3.7-1.8c-0.6-2.5-0.9-5.1-0.7-7.6c-0.2-0.5-0.4-1-0.7-1.5
					C1224.3,1296.5,1222.9,1296.9,1222.8,1298.2z"/>
				<path fill="#C79EEF" d="M1218.6,1280.2c0.2,0.8,0.4,1.6,0.7,2.3c0.6,1.4,1.1,2.9,1.7,4.3c1,0.9,3.1,0.1,2.5-1.4
					c-0.4-1.1-0.8-2.2-1.2-3.3c2.2,1.2,4.4,2.3,6.7,3.5c1.7,0.9,3.2-1.7,1.5-2.6c-3.1-1.6-6.1-3.2-9.2-4.8c-0.8-3.8-1-7.7,0.1-11.3
					c0.6-1.8-2.3-2.6-2.9-0.8c-1,3.3-1,6.8-0.5,10.3c-0.4-0.2-0.8-0.4-1.2-0.6c0.5,1.4,1.1,2.8,1.6,4.2
					C1218.4,1280.1,1218.5,1280.1,1218.6,1280.2z"/>
				<path fill="#9280A6" d="M1213.4,1277.5c1.6,0.9,3.2,1.7,4.9,2.6c-0.5-1.4-1.1-2.8-1.6-4.2c-0.6-0.3-1.2-0.6-1.7-0.9
					C1213.2,1274,1211.7,1276.6,1213.4,1277.5z"/>
				<path fill="#C79EEF" d="M1220.6,1286.2c0.1,0.3,0.2,0.4,0.4,0.6c-0.6-1.4-1.2-2.9-1.7-4.3
					C1219.6,1283.8,1220.1,1285,1220.6,1286.2z"/>
				<path fill="#C79EEF" d="M1195.8,1223.3c1.3,0.7,2.5,1.3,3.8,2c1.7,0.9,3.2-1.7,1.5-2.6c-1.5-0.8-3.1-1.6-4.6-2.4
					c0.2-0.9,0.4-1.8,0.6-2.7c0.4-1.9-2.5-2.7-2.9-0.8c-0.1,0.7-0.3,1.4-0.5,2.1c-0.1-0.1-0.3-0.2-0.4-0.2c0.8,1.9,1.6,3.7,2.4,5.3
					C1195.7,1223.7,1195.7,1223.5,1195.8,1223.3z"/>
				<path fill="#9280A6" d="M1187.9,1219.1c1.7,0.9,3.4,1.8,5.1,2.7c-0.4,2-0.9,3.9-1.3,5.9c-0.4,1.9,2.5,2.7,2.9,0.8
					c0.4-1.5,0.7-3.1,1-4.6c-0.7-1.7-1.5-3.5-2.4-5.3c-1.3-0.7-2.6-1.4-3.9-2C1187.7,1215.6,1186.2,1218.2,1187.9,1219.1z"/>
				<path fill="#9280A6" d="M1192.4,1254.1c1.5,1.2,3-1.4,1.5-2.6s-3.1-2.3-4.6-3.5v-5.7c0-1.9-3-1.9-3,0v3.5
					c-0.1-0.1-0.2-0.2-0.3-0.2c1.1,2.5,2.2,5,3.3,7.5v-1.3C1190.4,1252.5,1191.4,1253.3,1192.4,1254.1z"/>
			</g>
			<path fill="#F1F681" d="M675.3,1267.7c4.5,49.8,26.2,58,26.2,58s-14.9,38.9-10.2,66.3c3,17.9,12.8,30.2,15.5,32.6s1-7.3-4.4-15.6
				c-4.4-6.7-14.1-39.4,9-75.3c16.9-41.4,53.8-66.2,89.5-76c19.7-5.4,34.7-3.9,44.7-1c-3.6-5-8-10.8-12.7-16.2
				c-7.6-8.6-14.8-22.5-24.7-33c-2.2-1-4.6-1.9-7.1-2.4c-16.8-3.6-42.9-1.5-64.2,6c-27.9,9.8-46.5,20.5-61.8,34.9
				C674.6,1252.8,674.6,1259.9,675.3,1267.7z"/>
			<g>
				<path fill="#7F8631" d="M934.1,1218.9c0.1,0.1,0.2,0.2,0.2,0.2c1.1,0.9,3.1,0.6,4.7-0.7c1.7-1.3,2.3-3.3,1.6-4.5
					c0-0.1-0.1-0.2-0.2-0.3c-0.1-0.2-0.3-0.3-0.5-0.4c-1.1-0.6-2.9-0.3-4.4,0.9c-1.5,1.2-2.2,2.9-1.8,4.1
					C933.9,1218.6,934,1218.8,934.1,1218.9z"/>
				<path fill="#7F8631" d="M933.1,1200.8c-0.1,0.4-0.2,0.8-0.3,1.2c0.2-0.2,0.4-0.3,0.7-0.5C933.4,1201.2,933.3,1201,933.1,1200.8z
					"/>
				<path fill="#7F8631" d="M976.9,1200.6c-0.7,0.5-1.7,0.1-2-0.5c-0.4-0.8-0.1-1.6,0.5-2.1c0.4-0.3,0.9-0.6,1.4-0.9
					c-0.7-0.9-1.4-1.9-1.8-3c-0.6-1.8,2.3-2.6,2.9-0.8c0-0.1-0.1-0.2-0.1-0.2c0,0.1,0.1,0.3,0.2,0.4c0.2,0.2,0.3,0.5,0.5,0.8
					c0.3,0.4,0.5,0.8,0.8,1.2l0.1-0.1c-0.7-36-0.6-75,1.8-96.5c4.5-40.5,12-72.8,12-72.8c-9.9-2.9-12.8,1-50.5,37.4
					s-101.4,115.3-108.9,126.2c-7.5,10.9-6.6,10.7-14.5-5.3s-20.8-17.2-20.8-17.2c17.1,16,27.8,37.6,21,36.5
					c-6.8-1.2-4.1-4.8-27-13.9s-40.6,1-40.6,1s17.7-2.2,38.3,4.8c7,2.4,12.9,6.9,18,12.3c12.6,5.8,20.4,17.9,20.4,17.9
					s42-59.8,65.7-88.1c23.7-28.3,70.4-86.5,70.4-86.5s-15,50-27.3,102.8c-3.2,13.7-20.7,66.7-21.5,70.5
					c-4.9,15.2-15.4,49.3-23.6,62.2c21.6-16.1,63.4-71.1,63.4-71.1s12.1,20.9,25.7,38.6c-0.6-13.8-1.2-32.6-1.7-52.7
					c-0.4-0.5-0.7-1.1-1.1-1.6C978,1199.8,977.4,1200.2,976.9,1200.6z"/>
				<path fill="#B3B96A" d="M979.3,1195.4c-0.3-0.4-0.5-0.8-0.8-1.2c-0.2-0.3-0.3-0.5-0.5-0.8c-0.1-0.1-0.2-0.3-0.2-0.4
					c0,0,0,0.1,0.1,0.2c-0.6-1.8-3.5-1-2.9,0.8c0.4,1,1.1,2,1.8,3c-0.5,0.3-0.9,0.6-1.4,0.9c-0.7,0.5-1,1.3-0.5,2.1
					c0.4,0.6,1.4,1,2,0.5c0.5-0.4,1-0.7,1.5-1.1c0.4,0.6,0.7,1.1,1.1,1.6c0-1.9-0.1-3.9-0.1-5.9
					C979.4,1195.3,979.4,1195.3,979.3,1195.4z"/>
			</g>
			<path fill="#7F8631" d="M675.6,1201.4c-25,32.9-28.8,50.4-27.6,77.9c8.7-13.1,17.2-24,27.1-33.3c2.6-30.1,17.9-52.3,44.8-87.2
				C701.4,1173.7,685.6,1188.3,675.6,1201.4z"/>
			<g>
				<circle fill="none" cx="1048.4" cy="1311.2" r="3.6"/>
				<path fill="none" d="M1123.1,1295.1c2,0,3.6-1.6,3.6-3.6s-1.6-3.6-3.6-3.6s-3.6,1.6-3.6,3.6S1121.1,1295.1,1123.1,1295.1z"/>
				<path fill="none" d="M1066,1289c-1.5,0-2.8,1-3.4,2.3c-0.2,0.4-0.3,0.8-0.3,1.3c0,0.6,0.2,1.2,0.4,1.7c0.6,1.1,1.8,1.9,3.2,1.9
					c1.4,0,2.6-0.8,3.2-1.9c0.3-0.5,0.5-1.1,0.5-1.7c0-0.5-0.1-0.9-0.2-1.3C1068.9,1290,1067.6,1289,1066,1289z"/>
				<path fill="none" d="M1146.7,1307.6c-1.9,0-3.5,1.5-3.6,3.4c0,0.1,0,0.1,0,0.2c0,1.1,0.5,2,1.2,2.7c0.6,0.6,1.5,1,2.4,1
					c1.2,0,2.3-0.6,3-1.6c0.4-0.6,0.7-1.3,0.7-2.1c0-0.4-0.1-0.7-0.2-1C1149.7,1308.7,1148.3,1307.6,1146.7,1307.6z"/>
				<path fill="#B3B96A" d="M952.8,1229.6l1,1.7c0.2,0.3,15.2,24.6,28.9,46.3c-0.3-2.5-0.6-5.2-0.7-8.1c-0.2-3.9-0.5-9.2-0.8-15.6
					c-13.5-17.7-25.7-38.6-25.7-38.6s-41.9,51.3-62.8,71.6c0,0,8.7,0.9,7.6,5.9c18.1-22.4,50.9-61.5,51.1-61.7L952.8,1229.6z"/>
				<path fill="#B3B96A" d="M903.3,1275.6l-10.9,11.2l14.9,13.6c0,0,9.2-11.3,15.9-18.7c5.1-6.4,27.1-29.8,27.1-29.8l31.8,58.5
					c0,0,66.2,21.7,116.3,20c8.9-0.3,17.3-0.9,25-1.8c-62.3,1-112.5-11.7-121.1-16.3c-7.6-4-14.7-10.8-18.2-27.1
					c-12.6-19.8-27.7-44.2-31.7-50.7C947.8,1239.3,919.8,1254.9,903.3,1275.6z"/>
				<path fill="#817496" d="M953.8,1231.2l-1-1.7l-1.3,1.4c-0.2,0.2-34.6,39.4-52.7,61.7l2.3,2.1c16.5-20.8,46.8-55.5,51.3-60.3
					c4,6.5,19.1,30.9,31.7,50.7c-0.5-2.3-0.9-4.9-1.3-7.6C969,1255.9,954,1231.6,953.8,1231.2z"/>
				<path fill="#C59DEC" d="M1115.7,1293.1c0.7,3.4,3.8,6,7.5,6c4.2,0,7.6-3.4,7.6-7.6s-3.4-7.6-7.6-7.6c-3.7,0-6.8,2.7-7.5,6.2
					c-0.1,0.5-0.1,0.9-0.1,1.4C1115.5,1292.1,1115.6,1292.6,1115.7,1293.1z M1123.1,1287.9c2,0,3.6,1.6,3.6,3.6s-1.6,3.6-3.6,3.6
					s-3.6-1.6-3.6-3.6S1121.1,1287.9,1123.1,1287.9z"/>
			</g>
			<g>
				<path fill="none" d="M649,1340.2c-1.5,2.1-1.6,4.6-0.6,6.1c0.2,0.3,0.4,0.5,0.7,0.7c0.1,0.1,0.3,0.2,0.4,0.2
					c1.6,0.8,3.9,0,5.5-1.8c-0.6-2.6-1.2-5.3-1.7-8C651.8,1337.6,650.1,1338.6,649,1340.2z"/>
				<path fill="none" d="M684,1295.3c-0.1-0.1-0.2-0.2-0.3-0.3c-0.2-0.2-0.5-0.3-0.8-0.3c-0.7-0.2-1.6,0-2.5,0.5
					c0.8,2.5,1.6,4.8,2.4,6.9c0.1-0.2,0.3-0.4,0.4-0.6C685,1299.1,685.2,1296.5,684,1295.3z"/>
				<path fill="#B3B96A" d="M677.8,1297.6c-1.5,2.1-1.8,4.5-1,5.9c0.2,0.2,0.3,0.5,0.6,0.6c0.1,0.1,0.2,0.1,0.4,0.2
					c1.4,0.6,3.6-0.3,5.2-2.2c-0.9-2.1-1.7-4.4-2.4-6.9C679.5,1295.6,678.5,1296.5,677.8,1297.6z"/>
				<path fill="#B3B96A" d="M655.6,1344.8c1.6-2.3,1.7-5.1,0.2-6.5c-0.1-0.1-0.2-0.2-0.3-0.3c-0.3-0.2-0.6-0.3-0.9-0.4
					c-0.4-0.1-0.8-0.1-1.2-0.1c0.5,2.7,1.1,5.4,1.7,8C655.3,1345.3,655.4,1345.1,655.6,1344.8z"/>
				<path fill="#B3B96A" d="M703.7,1361.4c0.2-1.1,0.4-2.2,0.6-3.4c1.6-8.7,4-16.8,7.1-24.3c-23.1,35.9-13.3,68.7-9,75.3
					c5.4,8.2,7.1,18,4.4,15.6c-2.7-2.4-12.5-14.7-15.5-32.6c-4.7-27.4,10.2-66.3,10.2-66.3s-0.8-0.3-2-1.1c-0.3,0.7-1.2,1.2-2,0.6
					c-1.2-0.9-2.5-1.8-3.7-2.8c-1.7,3.7-2.9,7.7-4,11.4c-0.5,1.9-3.4,1.1-2.9-0.8c1.2-4.1,2.5-8.4,4.4-12.4
					c-1.9-1.4-3.8-2.8-5.6-4.2c-1.5-1.1,0-3.7,1.5-2.6c1.3,1,2.6,1.9,3.9,2.9c-2.1-2.7-4.3-6.1-6.4-10.5c-5.3,5.8-11.4,7.1-13.6,7.4
					l-3.3,4.8l-1-0.7l3.4-4.9c-1-8,1.3-13.4,5.2-18.9c1-1.4,2.3-2.5,3.7-3.4c-1.7-6.4-3-14-3.8-22.9c-0.1-0.6-0.1-1.3-0.2-1.9
					c-0.1-0.1-0.3-0.3-0.4-0.4c-1.2,1.6-2.4,3.2-3.8,4.5c-1.5,1.3-3.6-0.8-2.1-2.1c1.4-1.2,2.6-2.9,3.8-4.4
					c-1.6-1.5-3.2-3.1-4.9-4.6c-1.4-1.3,0.7-3.4,2.1-2.1c1.6,1.5,3.1,2.9,4.7,4.4c0.1-0.2,0.3-0.3,0.4-0.5c-0.2-5-0.1-9.8,0.3-14.4
					c-9.9,9.3-18.4,20.1-27.1,33.3c0.5,10.9,1.7,23.4,2.8,39c0.3,4.6,0.8,9,1.5,13.4c3-1.2,6.1-1.7,7.6-1.9l3.8-5.4l1.2,0.8
					l-3.6,5.1c1.3,1.9,4.3,7.9-1.2,16.4c-1.1,1.7-2.4,3.1-3.6,4.3c3.1,11,7.1,21.1,11.6,30.3c0.3-1,1.6-1.7,2.5-0.8
					c1,0.9,2.3,1.6,3.7,2.2c0-1.9,0.2-3.7,0.5-5.5c0.3-1.9,3.2-1.1,2.9,0.8c-0.3,1.8-0.5,3.8-0.5,5.7c1.7,0.5,3.4,0.8,4.9,1.1
					c1.9,0.4,1.1,3.3-0.8,2.9c-1.2-0.2-2.6-0.5-3.9-0.9c0.2,2.6,0.9,5.1,2,7.3c0.9,1.7-1.7,3.2-2.6,1.5c-1.5-3-2.2-6.3-2.5-9.7
					c-2-0.7-3.9-1.6-5.4-2.9c11.3,22.3,25.3,38,34.3,43.9c16.3,10.6,36.3,6.1,36.3,6.1c14.3-8.9,35.3-18.4,35.3-18.4
					C739.8,1394,708.2,1365.2,703.7,1361.4z"/>
				<path fill="#612260" d="M682.9,1294.7c0.3,0.1,0.6,0.2,0.8,0.3c0.1,0.1,0.2,0.2,0.3,0.3c1.2,1.2,1,3.9-0.7,6.2
					c-0.1,0.2-0.3,0.4-0.4,0.6c0.6,1.5,1.2,2.9,1.9,4.2c0.9-1,1.7-2,2.5-3.3c5.6-8.5,3.2-14,2.2-15.7l3.6-5.1l-1-0.7l-3.8,5.4
					c-1.7,0.4-5.8,1.4-9.2,3.7c0.4,1.6,0.8,3.1,1.3,4.6C681.3,1294.7,682.2,1294.5,682.9,1294.7z"/>
				<path fill="#491E56" d="M675.5,1294c-3.9,5.5-6.2,10.9-5.2,18.9l-3.4,4.9l1,0.7l3.3-4.8c2.2-0.3,8.3-1.6,13.6-7.4
					c-0.6-1.3-1.3-2.7-1.9-4.2c-1.6,2-3.7,2.9-5.2,2.2c-0.1,0-0.2-0.1-0.4-0.2c-0.2-0.2-0.4-0.4-0.6-0.6c-0.9-1.3-0.5-3.7,1-5.9
					c0.8-1.1,1.7-2,2.7-2.5c-0.5-1.5-0.9-3-1.3-4.6C677.8,1291.5,676.5,1292.6,675.5,1294z"/>
				<path fill="#491E56" d="M660.2,1346.8c5.5-8.5,2.4-14.6,1.2-16.4l3.6-5.1l-1.2-0.8l-3.8,5.4c-1.5,0.2-4.6,0.7-7.6,1.9
					c0.3,1.9,0.6,3.8,1,5.7c0.4,0,0.8,0,1.2,0.1c0.3,0.1,0.7,0.2,0.9,0.4c0.1,0.1,0.2,0.2,0.3,0.3c1.5,1.4,1.4,4.2-0.2,6.5
					c-0.2,0.2-0.3,0.5-0.5,0.7c0.5,1.9,0.9,3.8,1.5,5.6C657.8,1349.9,659.1,1348.5,660.2,1346.8z"/>
				<path fill="#9280A6" d="M676.8,1395.6c0.9,1.7,3.4,0.2,2.6-1.5c-1.1-2.2-1.7-4.7-2-7.3c1.3,0.3,2.7,0.6,3.9,0.9
					c1.9,0.4,2.7-2.5,0.8-2.9c-1.5-0.3-3.2-0.6-4.9-1.1c0-2,0.2-3.9,0.5-5.7c0.3-1.9-2.6-2.7-2.9-0.8c-0.3,1.8-0.5,3.7-0.5,5.5
					c-1.4-0.6-2.7-1.3-3.7-2.2c-1-0.9-2.3-0.2-2.5,0.8c0.3,0.6,0.6,1.1,0.9,1.7c1.5,1.3,3.4,2.2,5.4,2.9
					C674.6,1389.3,675.3,1392.6,676.8,1395.6z"/>
				<path fill="#C79EEF" d="M699.5,1324.6c0.3-0.6,0.2-1.5-0.5-2c-1.3-1-2.6-1.9-3.9-2.9c0.8-1.5,1.8-2.9,2.8-4.2
					c1.2-1.5-0.9-3.6-2.1-2.1c-1.2,1.4-2.2,3-3.1,4.6c-0.5-0.4-1.1-0.8-1.6-1.2C694.5,1321,697.6,1323.4,699.5,1324.6z"/>
				<path fill="#9280A6" d="M685.7,1316.4c1.9,1.4,3.8,2.8,5.6,4.2c-1.9,4-3.2,8.3-4.4,12.4c-0.5,1.8,2.4,2.7,2.9,0.8
					c1.1-3.7,2.3-7.7,4-11.4c1.2,0.9,2.5,1.9,3.7,2.8c0.8,0.6,1.6,0.1,2-0.6c-1.9-1.2-5-3.6-8.3-7.9c-1.3-1-2.6-1.9-3.9-2.9
					C685.7,1312.7,684.2,1315.3,685.7,1316.4z"/>
				<path fill="#C79EEF" d="M679.5,1269.8c1.4,1.3,3.5-0.8,2.1-2.1c-1.6-1.6-3.3-3.1-5-4.7c2.4-2.8,4.8-5.6,7.5-7.9
					c1.5-1.3-0.7-3.4-2.1-2.1c-2.6,2.3-4.9,4.9-7.2,7.5c0.1,1.7,0.2,3.5,0.3,5.3C676.6,1267.1,678.1,1268.5,679.5,1269.8z"/>
				<path fill="#9280A6" d="M669.8,1256.6c-1.4-1.3-3.5,0.8-2.1,2.1c1.6,1.5,3.2,3.1,4.9,4.6c-1.2,1.5-2.4,3.2-3.8,4.4
					c-1.5,1.3,0.7,3.4,2.1,2.1c1.4-1.2,2.6-2.9,3.8-4.5c0.1,0.1,0.3,0.3,0.4,0.4c-0.1-1.8-0.2-3.5-0.3-5.3c-0.1,0.2-0.3,0.3-0.4,0.5
					C672.9,1259.5,671.4,1258,669.8,1256.6z"/>
			</g>
			<g>
				<path fill="none" d="M814,1225.4c-0.1,0.2-0.1,0.4-0.1,0.7c0,0.1,0,0.2,0,0.3c0.2,1.4,2,2.5,4.1,2.5s3.9-1,4.1-2.4
					c0-0.1,0.1-0.2,0.1-0.3c0-0.2-0.1-0.5-0.1-0.7c0,0,0,0,0-0.1c-0.2-0.3-0.4-0.5-0.5-0.8c-0.7-0.7-2-1.2-3.4-1.3
					C816.1,1223.4,814.4,1224.3,814,1225.4z"/>
				<path fill="#B3B96A" d="M828.1,1224.6c-2.1-2.9-9.2-12.1-19.8-17c1.1,1.2,2.2,2.5,3.3,3.7c0.5,0,1,0.1,1.5,0.1
					c1.6,0.2,1.8,2.2,0.9,2.8c1.5,1.9,3,3.9,4.4,5.9c0.3,0,0.6,0,0.9,0C822.8,1220.3,826.2,1222.9,828.1,1224.6z"/>
				<path fill="#B3B96A" d="M821.4,1224.6c0.2,0.3,0.4,0.5,0.5,0.8C821.8,1225.1,821.7,1224.9,821.4,1224.6z"/>
				<path fill="#B3B96A" d="M853.3,1246c-7.3-5.8-19.4-16.1-23.4-19.4h-0.6c-0.4,0.9-1.4,2.7-3.9,4.1c2.5,3.7,5,7.1,7.5,9.9
					c4.7,5.3,9.2,11.2,12.7,16.2c10.1,2.9,15.2,7.2,15.2,7.2C865.5,1258.7,862.2,1253,853.3,1246z"/>
				<path fill="#612260" d="M822,1225.5c0.1,0.2,0.1,0.5,0.1,0.7c0,0.1,0,0.2-0.1,0.3c-0.3,1.4-2,2.4-4.1,2.4s-3.9-1.1-4.1-2.5
					c0-0.1,0-0.2,0-0.3c0-0.2,0.1-0.5,0.1-0.7c0.5-1.2,2.1-2.1,4-2.1c1.4,0,2.7,0.5,3.4,1.3c-1-1.5-2-3-3.1-4.4
					c-4.7,0-8.7,1.1-12.9,5.2h-4.5v1h4.4c1.3,1.5,5.7,6.1,13.4,5.9c3-0.1,5.2-0.8,6.8-1.6C824.3,1228.9,823.2,1227.2,822,1225.5
					C822,1225.4,822,1225.5,822,1225.5z"/>
				<path fill="#491E56" d="M829.4,1226.5h0.6c-0.8-0.7-1.3-1.1-1.3-1.1s-0.2-0.3-0.6-0.9c-1.9-1.7-5.3-4.3-8.8-4.4
					c-0.3,0-0.6,0-0.9,0c1,1.5,2.1,3,3.1,4.4c0.2,0.2,0.4,0.5,0.5,0.8c1.2,1.8,2.4,3.5,3.5,5.2
					C827.9,1229.3,829,1227.4,829.4,1226.5z"/>
				<path fill="#C79EEF" d="M800.5,1212c-1.7,0.4-4.3,0.7-5.7,1.8c-1.5,1.1,0,3.8,1.5,2.6c1.3-1,3.5-1.2,5-1.5
					c3.9-0.8,7.9-0.9,11.8-0.5c0.3,0,0.6,0,0.9-0.2c-0.8-1-1.6-2-2.4-3C807.9,1211,804.2,1211.3,800.5,1212z"/>
				<path fill="#9280A6" d="M813.1,1211.4c-0.5-0.1-1-0.1-1.5-0.1c0.8,1,1.6,2,2.4,3C815,1213.6,814.7,1211.6,813.1,1211.4z"/>
			</g>
			<g>
				<path fill="#F1F681" d="M1079.1,987c-0.1-0.1-0.2-0.1-0.2-0.2c-1-0.8-2.7-0.7-3.9,0.4c-1.2,1.1-1.5,2.7-0.8,3.8
					c0.1,0.1,0.1,0.2,0.2,0.3c0.1,0.2,0.3,0.3,0.5,0.4c1,0.6,2.5,0.4,3.6-0.6s1.5-2.4,1-3.5C1079.3,987.4,1079.2,987.2,1079.1,987z"
					/>
				<path fill="#F1F681" d="M1095.7,995.2c-3.9-4-7.8-7.9-11.4-11.5c0,5-1.7,7.8-4.6,10.2c-2.5,2.2-7.3,1.6-8.9,1.4l-2.8,2.5
					l-0.6-0.7l2.7-2.4c-0.6-1.3-1.8-5.4,2.4-9.5c3.6-3.5,8.1-3.4,10.4-3c-3.9-3.8-7.5-7.3-10.9-10.2c-2.7-2.4-5-4.3-6.9-5.7
					c0.5,4.3-1.6,8.8-3.5,13.8c-2.8,7.5-3.5,4.6-3.9,17s1.8,31.2,1.8,31.2l-3.7-6.6l-16.8-30.8c0,0-7.7,0.1-30-7.6
					c-8-2.7-12.3-8.3-14.7-13.1c-7.6,0.3-17.1,8.1-28.4,18.5c14.8,19.2,34.5,31.8,57.1,38.3l57.3,95.3c0,0,3.4-26.7,3.9-56.3
					s1.5-46.6,1.2-47.2C1085.2,1018.3,1092.5,1007.1,1095.7,995.2z"/>
				<path fill="#612260" d="M1072.4,985.3c-4.2,4.1-3,8.1-2.4,9.5l-2.7,2.4l0.6,0.7l2.8-2.5c1.6,0.3,6.4,0.8,8.9-1.4
					c2.8-2.4,4.6-5.3,4.6-10.2c-0.5-0.5-1-1-1.5-1.4C1080.5,981.9,1076.1,981.7,1072.4,985.3z M1078.4,991.1c-1.1,1-2.6,1.2-3.6,0.6
					c-0.2-0.1-0.4-0.2-0.5-0.4c-0.1-0.1-0.1-0.2-0.2-0.3c-0.7-1.1-0.4-2.7,0.8-3.8c1.2-1.1,2.9-1.2,3.9-0.4c0.1,0.1,0.2,0.1,0.2,0.2
					c0.1,0.2,0.3,0.3,0.3,0.5C1079.9,988.6,1079.5,990.1,1078.4,991.1z"/>
			</g>
			<path fill="#7F8631" d="M965.9,988.7c-0.8-1-1.6-2.1-2.4-3.2c-16.1,15.9-57.8,49.5-92.6,72.5c33.9-19.7,63-40.3,75.8-51.7
				C953.6,1000.2,960,994.1,965.9,988.7z"/>
			<g>
				<path fill="none" d="M990,983.4c-1.4-1.1-3.1-1.3-4.2-0.6c-0.2,0.1-0.4,0.3-0.5,0.5c-0.1,0.1-0.1,0.2-0.2,0.3
					c-0.7,1.2-0.1,3.1,1.5,4.3s3.5,1.3,4.5,0.4c0.1-0.1,0.2-0.1,0.2-0.2c0.1-0.2,0.2-0.4,0.3-0.6C992,986.1,991.4,984.5,990,983.4z"
					/>
				<path fill="#B3B96A" d="M976.3,975.5l2.7,2.1c5.8-4.4,10.9-7.2,15.4-7.3c-2.2-4.5-2.6-8.2-2.6-8.2c-6.8,0.8-10.5,4.5-24.7,20
					c-1,1-2.1,2.2-3.4,3.5c0.8,1.1,1.6,2.1,2.4,3.2c4.3-4,8.4-7.6,12.2-10.5l-2.5-1.9L976.3,975.5z"/>
				<path fill="#612260" d="M996.8,991.3c-0.2-1.9-0.8-7.3-3.9-9.7c-3.6-2.9-7.4-4.5-13.3-3.6l-0.6-0.4c-0.3,0.2-0.6,0.4-0.8,0.6
					l0.7,0.5c0,1.9,0.5,8,6.3,12.2c5.7,4.1,10,2.2,11.3,1.4l3.4,2.6l0.6-0.8L996.8,991.3z M991.6,987.3c-0.1,0.2-0.2,0.4-0.3,0.6
					c-0.1,0.1-0.2,0.2-0.2,0.2c-1,1-2.9,0.8-4.5-0.4s-2.2-3-1.5-4.3c0-0.1,0.1-0.2,0.2-0.3c0.1-0.2,0.3-0.3,0.5-0.5
					c1.1-0.7,2.8-0.5,4.2,0.6C991.4,984.5,992,986.1,991.6,987.3z"/>
				<path fill="#491E56" d="M976.3,975.5l-0.6,0.8l2.5,1.9c0.3-0.2,0.6-0.4,0.8-0.6L976.3,975.5z"/>
			</g>
			<path fill="#B3B96A" d="M1057.6,997.1c0.4-12.4,1-9.5,3.9-17c1.9-5,4-9.5,3.5-13.8c-9.6-7.2-9.4-2.9-9.4-2.9
				c8.8,9.6-3.7,24-3.7,24c-1,13.3,3.7,34.4,3.7,34.4l3.7,6.6C1059.5,1028.3,1057.3,1009.4,1057.6,997.1z"/>
			<g>
				<path fill="#ACB033" d="M1132.3,1033c-11.2-11.4-24.3-25.3-36.6-37.8c-3.2,11.9-10.5,23.1-10.3,23.6c0.3,0.6-0.7,17.5-1.2,47.2
					s-3.9,56.3-3.9,56.3L1023,1027c-22.6-6.4-42.3-19-57.1-38.3c-5.9,5.4-12.3,11.5-19.1,17.6c-12.8,11.3-41.9,32-75.8,51.7
					c-4.6,3-9.1,5.9-13.3,8.5c-28.1,17-91.2,55.2-137.7,92.4c-27,34.9-42.2,57.2-44.8,87.2c15.3-14.4,33.9-25.1,61.8-34.9
					c21.3-7.5,47.4-9.6,64.2-6c2.5,0.5,4.9,1.4,7.1,2.4c-5.1-5.4-11-9.9-18-12.3c-20.6-7-38.3-4.8-38.3-4.8s17.7-10,40.6-1
					c22.9,9.1,20.2,12.8,27,13.9c6.8,1.2-3.9-20.5-21-36.5c0,0,12.9,1.2,20.8,17.2s7,16.2,14.5,5.3c7.5-10.9,71.2-89.8,108.9-126.2
					c37.7-36.4,40.6-40.2,50.5-37.4c0,0-7.5,32.2-12,72.8c-3.9,34.9-1.7,115.8,0,155.5c4.8,6.3,9.8,11.8,14.4,16.1
					c0,0,42.3,14.4,109.3,7.8c45.7-4.5,76.3-6.7,83.4-9.2c0,0-1.1-2.5-2.2-4.6c-4.9-9.2-8.3-19.3-11.2-29.3
					c-8.2-28-22.9-64.3-23.2-65.5c-21.4-61.2-30.3-91.6-38.9-111.3c-8.6-19.7-12.4-27.7-4.2-23.3c6.7,3.6,52.3,110,78,168.7
					c3.3-10.2,8.7-19.4,16.6-28.8c15.1-17.9,37.9-43.2,54.5-45.5C1233.2,1112.7,1150.9,1051.9,1132.3,1033z"/>
				<path fill="#ACB033" d="M1163.3,1257.6c-0.7-1.1-2.5-1.7-4.5-1.3c-2,0.4-3.5,1.5-3.8,2.8c0,0.2-0.1,0.5,0,0.7
					c0,0.1,0.1,0.2,0.1,0.3c0.5,1.3,2.5,2,4.7,1.6s3.8-1.8,3.8-3.2c0-0.1,0-0.2,0-0.3C1163.5,1258,1163.4,1257.8,1163.3,1257.6z"/>
				<path fill="#612260" d="M1159.5,1252.9c-5.2,0.9-9.4,2.6-13.3,7.8l-4.6,0.8l0.2,1l4.5-0.8c1.6,1.3,7,4.9,14.9,3.2
					c7.8-1.6,9.5-6.1,9.9-7.7l3.5-0.6c-0.1-0.3-0.1-0.7-0.2-1l-3.8,0.7C1168.9,1255.2,1164,1252.2,1159.5,1252.9z M1163.6,1258.5
					c0,1.4-1.6,2.8-3.8,3.2c-2.2,0.4-4.2-0.3-4.7-1.6c0-0.1-0.1-0.2-0.1-0.3c0-0.2,0-0.5,0-0.7c0.3-1.3,1.8-2.4,3.8-2.8
					s3.8,0.2,4.5,1.3c0.1,0.2,0.2,0.4,0.3,0.6C1163.6,1258.3,1163.6,1258.4,1163.6,1258.5z"/>
			</g>
		</g>
		<g>
			<path fill="#612260" d="M1082.3,1264.4c-1.5-1.4-5.9-5.2-10.6-5.3c-5.4-0.1-10.1,0.9-14.9,5.3h-4.8v1h4.7c1.4,1.5,6.2,6,14.5,5.8
				c8.2-0.2,10.8-4.3,11.4-5.8h5v-1H1082.3z M1074.8,1265.4c-0.3,1.4-2.1,2.4-4.4,2.4s-4.2-1.1-4.4-2.4c0-0.1,0-0.2,0-0.3
				c0-0.2,0.1-0.5,0.2-0.7c0.5-1.2,2.2-2.1,4.3-2.1c2.1,0,3.8,0.9,4.3,2.1c0.1,0.2,0.2,0.5,0.2,0.7
				C1074.8,1265.2,1074.8,1265.3,1074.8,1265.4z"/>
		</g>
		<g>
			<path fill="#612260" d="M1036.8,1262.7c-1.5-1.4-5.9-5.2-10.4-5.3c-5.4-0.1-9.9,0.9-14.7,5.3h-4.8v1h4.6c1.4,1.5,6.1,6,14.3,5.8
				c8.1-0.2,10.6-4.3,11.3-5.8h5v-1H1036.8z M1029.4,1263.7c-0.3,1.4-2.1,2.4-4.4,2.4c-2.3,0-4.1-1.1-4.4-2.4c0-0.1,0-0.2,0-0.3
				c0-0.2,0.1-0.5,0.1-0.7c0.5-1.2,2.2-2.1,4.3-2.1c2.1,0,3.8,0.9,4.3,2.1c0.1,0.2,0.2,0.5,0.2,0.7
				C1029.5,1263.5,1029.5,1263.6,1029.4,1263.7z"/>
		</g>
		<g>
			<path fill="#612260" d="M996.9,1257.1c0.5-1.9,1.9-7.6-0.2-11.7c-2.4-4.8-5.5-8.4-11.5-10.5l-2.2-4.2l-0.9,0.5l2.2,4.1
				c-0.7,1.9-2.5,8.2,1.6,15.3c4,7,8.8,7.4,10.4,7.3l2.3,4.4l0.9-0.5L996.9,1257.1z M992.5,1251c-1.3,0.4-3.1-0.7-4.2-2.7
				c-1.1-2-1-4.1,0.1-5c0.1-0.1,0.2-0.1,0.3-0.2c0.2-0.1,0.4-0.2,0.7-0.2c1.3-0.1,2.9,1,3.8,2.8c1,1.8,1,3.8,0.1,4.7
				c-0.2,0.2-0.3,0.3-0.5,0.5C992.7,1251,992.6,1251,992.5,1251z"/>
		</g>
		<g>
			<path fill="#491E56" d="M977.4,1222.1c0.4-1.9,1.2-7.5-1.1-11.1c-2.8-4.2-6-7.2-12.1-8.5l-2.5-3.7l-0.8,0.6l2.4,3.6
				c-0.5,1.9-1.8,8.1,2.8,14.4c4.5,6.2,9.2,5.8,10.7,5.5l2.6,3.9l0.8-0.6L977.4,1222.1z M972.7,1216.9c-1.3,0.6-3.1-0.3-4.3-2
				c-1.2-1.8-1.3-3.8-0.3-4.8c0.1-0.1,0.1-0.2,0.2-0.2c0.2-0.1,0.4-0.2,0.6-0.3c1.2-0.3,2.9,0.5,4,2.2c1.1,1.6,1.3,3.4,0.5,4.5
				c-0.1,0.2-0.3,0.4-0.5,0.5C972.9,1216.8,972.8,1216.8,972.7,1216.9z"/>
		</g>
		<g>
			<path fill="#612260" d="M783.7,1226.4c-2.1-1.2-8.2-4.3-13.3-2.9c-5.9,1.6-10.6,4.3-14.3,10.9l-5.2,1.5l0.3,1.2l5.1-1.5
				c2,1.4,8.8,5.2,17.7,2.3c8.8-2.9,10.2-8.5,10.4-10.4l5.5-1.6l-0.3-1.2L783.7,1226.4z M775.9,1230c0.2,1.7-1.5,3.6-3.9,4.3
				c-2.5,0.7-4.9,0-5.6-1.5c-0.1-0.1-0.1-0.2-0.2-0.4c-0.1-0.3-0.1-0.6-0.1-0.9c0.1-1.6,1.7-3.2,4-3.8c2.3-0.7,4.5-0.2,5.4,1.1
				c0.2,0.2,0.3,0.5,0.4,0.8C775.9,1229.7,775.9,1229.8,775.9,1230z"/>
		</g>
		<g>
			<path fill="#612260" d="M729.3,1248.6c-2.5-0.2-9.8-0.6-14.4,2.9c-5.4,4.1-9.2,8.5-10.6,16.4l-4.7,3.7l0.8,1l4.6-3.6
				c2.5,0.4,10.6,1.2,18.6-5.3c7.9-6.4,7.3-12.4,6.8-14.3l4.9-3.8l-0.8-1L729.3,1248.6z M722.7,1255.3c0.8,1.5-0.2,4-2.5,5.7
				c-2.2,1.7-4.9,2.1-6.2,1c-0.1-0.1-0.2-0.2-0.3-0.3c-0.2-0.2-0.3-0.5-0.4-0.8c-0.4-1.5,0.6-3.7,2.7-5.3c2-1.6,4.4-2,5.8-1.2
				c0.3,0.1,0.5,0.3,0.7,0.5C722.6,1255,722.7,1255.2,722.7,1255.3z"/>
		</g>
		<g>
			<path fill="#612260" d="M1024.5,1007.8c-0.4-1.5-1.8-5.9-4.7-7.4c-3.5-1.8-6.8-2.6-11.5-0.9l-3.1-1.6l-0.4,0.8l3,1.5
				c0.3,1.6,1.7,6.5,7,9.1c5.3,2.5,8.6,0.2,9.5-0.6l3.2,1.6l0.4-0.8L1024.5,1007.8z M1019.3,1006.1c-0.7,0.9-2.3,1.1-3.8,0.4
				c-1.5-0.7-2.3-2.2-1.9-3.3c0-0.1,0-0.2,0.1-0.3c0.1-0.2,0.2-0.3,0.4-0.5c0.8-0.7,2.2-0.8,3.6-0.2c1.3,0.7,2.1,1.9,2,3
				c0,0.2-0.1,0.4-0.2,0.6C1019.4,1006,1019.3,1006,1019.3,1006.1z"/>
		</g>
		<g>
			<path fill="#612260" d="M1048.6,1031.6c0.4-1.7,1.3-6.7-0.7-9.7c-2.4-3.6-5.3-6.1-10.8-7l-2.2-3.2l-0.8,0.5l2.1,3.1
				c-0.5,1.7-1.8,7.3,2.1,12.6c3.9,5.2,8.2,4.8,9.6,4.4l2.3,3.3l0.8-0.5L1048.6,1031.6z M1044.4,1027.2c-1.2,0.6-2.8-0.1-3.9-1.6
				c-1-1.5-1.1-3.3-0.1-4.2c0.1-0.1,0.1-0.1,0.2-0.2c0.2-0.1,0.4-0.2,0.6-0.3c1.1-0.3,2.6,0.4,3.6,1.7c0.9,1.4,1,3,0.3,3.9
				c-0.1,0.2-0.3,0.3-0.5,0.5C1044.6,1027.1,1044.5,1027.1,1044.4,1027.2z"/>
		</g>
		<g>
			<path fill="#612260" d="M1064.3,1063.5c0.6-1.6,2.3-6.4,0.7-9.7c-1.9-3.9-4.3-6.8-9.7-8.4l-1.7-3.4l-0.8,0.4l1.7,3.4
				c-0.8,1.6-2.9,6.9,0.3,12.7c3.1,5.8,7.5,5.9,8.9,5.7l1.8,3.6l0.8-0.4L1064.3,1063.5z M1060.8,1058.6c-1.2,0.4-2.8-0.5-3.6-2.1
				c-0.8-1.6-0.6-3.4,0.5-4.2c0.1-0.1,0.2-0.1,0.3-0.2c0.2-0.1,0.4-0.1,0.6-0.2c1.2-0.1,2.5,0.7,3.3,2.2c0.7,1.5,0.6,3.1-0.2,3.9
				c-0.2,0.2-0.3,0.3-0.5,0.4C1061,1058.5,1060.9,1058.5,1060.8,1058.6z"/>
		</g>
		<g>
			<path fill="#612260" d="M1076.2,1094.7c1.1-1.4,4.1-5.5,3.5-9.1c-0.6-4.3-2.1-7.8-6.8-10.9l-0.6-3.8l-0.9,0.1l0.6,3.7
				c-1.2,1.3-4.8,5.8-3.5,12.3c1.3,6.4,5.4,7.8,6.8,8.1l0.6,4l0.9-0.1L1076.2,1094.7z M1074.3,1089c-1.3,0-2.5-1.3-2.8-3.1
				c-0.3-1.8,0.5-3.4,1.7-3.8c0.1,0,0.2-0.1,0.3-0.1c0.2,0,0.4,0,0.6,0c1.2,0.2,2.2,1.4,2.5,3.1c0.3,1.6-0.3,3.1-1.4,3.7
				c-0.2,0.1-0.4,0.2-0.6,0.2C1074.5,1089,1074.4,1089,1074.3,1089z"/>
		</g>
		<g>
			<path fill="#612260" d="M1072.2,1059.3c1.3-1.2,4.8-4.8,4.8-8.5c0-4.3-1-8-5.2-11.8l-0.1-3.8h-0.9l0.1,3.7
				c-1.4,1.1-5.5,5-5.2,11.6c0.4,6.5,4.2,8.5,5.6,9l0.1,4h0.9L1072.2,1059.3z M1071.2,1053.3c-1.3-0.2-2.3-1.6-2.4-3.5
				c0-1.8,0.9-3.3,2.2-3.6c0.1,0,0.2,0,0.3,0c0.2,0,0.4,0,0.6,0.1c1.1,0.4,2,1.7,2,3.4c0,1.7-0.8,3.1-1.9,3.5
				c-0.2,0.1-0.4,0.1-0.6,0.1C1071.4,1053.3,1071.3,1053.3,1071.2,1053.3z"/>
		</g>
		<g>
			<path fill="#612260" d="M1071.4,1025.6c1.2-1.2,4.5-4.6,4.3-7.9c-0.2-3.9-1.5-7.1-5.8-10.1l-0.3-3.4l-0.9,0.1l0.3,3.3
				c-1.3,1.1-5.3,4.9-4.6,10.7c0.7,5.8,4.7,7.3,6.1,7.6l0.3,3.6l0.9-0.1L1071.4,1025.6z M1070,1020.4c-1.3-0.1-2.4-1.3-2.5-2.9
				c-0.1-1.6,0.8-3,2-3.3c0.1,0,0.2-0.1,0.3-0.1c0.2,0,0.4,0,0.6,0.1c1.1,0.3,2.1,1.4,2.2,2.9s-0.6,2.8-1.7,3.2
				c-0.2,0.1-0.4,0.1-0.6,0.2C1070.2,1020.4,1070.1,1020.4,1070,1020.4z"/>
		</g>
		<g>
			<path fill="#612260" d="M1235.3,1197.1c2.4-0.3,9.4-1.5,12.3-5.6c3.4-4.8,5.2-9.8,3.4-17.4l3-4.3l-1.1-0.7l-2.9,4.2
				c-2.5,0.1-10.4,1.1-15.2,8.7c-4.8,7.6-1.9,13-0.7,14.6l-3.1,4.5l1.1,0.7L1235.3,1197.1z M1238.8,1189.6c-1.3-1.3-1.4-3.7,0-5.8
				c1.4-2.1,3.7-3,5.4-2.2c0.1,0.1,0.3,0.1,0.4,0.2c0.3,0.2,0.5,0.4,0.7,0.6c1,1.3,0.9,3.6-0.4,5.5s-3.3,2.8-4.9,2.3
				c-0.3-0.1-0.6-0.2-0.8-0.4C1239,1189.8,1238.9,1189.7,1238.8,1189.6z"/>
		</g>
		<g>
			<path fill="#612260" d="M1212.5,1238.4c2.3-0.7,9-2.9,11.3-7.5c2.6-5.3,3.6-10.5,0.6-17.7l2.2-4.8l-1.2-0.6l-2.2,4.6
				c-2.5,0.5-10.1,2.7-13.7,11c-3.5,8.2,0.2,13.1,1.6,14.5l-2.3,5l1.2,0.6L1212.5,1238.4z M1214.8,1230.4c-1.5-1-1.9-3.5-0.9-5.7
				c1.1-2.3,3.2-3.5,5-3c0.1,0,0.3,0.1,0.4,0.1c0.3,0.1,0.5,0.3,0.7,0.5c1.2,1.2,1.5,3.4,0.5,5.4c-1,2.1-2.8,3.3-4.5,3.1
				c-0.3,0-0.6-0.1-0.9-0.2C1215,1230.6,1214.9,1230.5,1214.8,1230.4z"/>
		</g>
		<g>
			<path fill="#612260" d="M1125.6,1263.5c-1.5-1.3-5.9-5.1-10.4-5c-5.3,0.1-9.7,1.2-14.3,5.6l-4.7,0.1v1l4.6-0.1
				c1.4,1.5,6.2,5.9,14.2,5.4c7.9-0.4,10.3-4.6,10.9-6.1l4.9-0.1v-1L1125.6,1263.5z M1118.3,1264.7c-0.2,1.4-2,2.5-4.2,2.5
				c-2.2,0.1-4.1-1-4.4-2.3c0-0.1-0.1-0.2-0.1-0.3c0-0.2,0-0.5,0.1-0.7c0.4-1.2,2.1-2.1,4.1-2.2s3.7,0.8,4.2,2
				c0.1,0.2,0.2,0.4,0.2,0.7C1118.3,1264.5,1118.3,1264.6,1118.3,1264.7z"/>
		</g>
		<path fill="#9280A6" d="M670.7,1354c4.4,2.3,8.8,4.7,13.3,7c1.7,0.9,3.2-1.7,1.5-2.6c-4.4-2.3-8.8-4.7-13.3-7
			C670.6,1350.5,669,1353.1,670.7,1354L670.7,1354z"/>
		<path fill="#9280A6" d="M679.6,1368.1c-0.5-6.1-0.3-13,2.2-18.7c0.8-1.8-1.8-3.3-2.6-1.5c-2.7,6.2-3.1,13.5-2.6,20.3
			C676.8,1370,679.8,1370.1,679.6,1368.1L679.6,1368.1z"/>
		<path fill="#C79EEF" d="M701.6,1291.9c-0.3-0.2,0.3,0.3,0.5,0.4c0.5,0.4,1,0.8,1.5,1.2c1.3,1.1,2.6,2.2,3.8,3.3
			c1.8,1.6,3.6,3.1,5.4,4.7c1.5,1.3,3.6-0.9,2.1-2.1c-3.8-3.3-7.6-7.3-11.8-10.1C701.5,1288.2,700,1290.8,701.6,1291.9L701.6,1291.9
			z"/>
		<path fill="#C79EEF" d="M704.3,1305.9c1.6-0.6,2.2-3.4,2.9-4.8c1.8-3.6,4.1-7,7.5-9.2c1.6-1,0.1-3.6-1.5-2.6
			c-3.1,2-5.4,4.8-7.2,7.9c-0.8,1.3-1.5,2.7-2.1,4.1c-0.2,0.5-0.5,1-0.7,1.5c-0.3,0.9-0.8,0.7,0.4,0.3
			C701.7,1303.7,702.4,1306.6,704.3,1305.9L704.3,1305.9z"/>
		<path fill="#C79EEF" d="M722.9,1270c1.8,0.9,3.7,3,5.3,4.3c1.7,1.4,3.3,2.8,5,4.2c1.5,1.2,3.6-0.9,2.1-2.1c-1.8-1.5-3.6-3-5.3-4.5
			c-1.7-1.4-3.6-3.5-5.6-4.5C722.7,1266.6,721.2,1269.2,722.9,1270L722.9,1270z"/>
		<path fill="#C79EEF" d="M724.9,1282.2c0.8-1.8,2.5-3.5,3.7-4.9c2.4-2.8,5-5.5,8.3-7.3c1.7-0.9,0.2-3.5-1.5-2.6
			c-3.5,1.9-6.3,4.7-8.9,7.7c-1.4,1.6-3.3,3.5-4.2,5.5C721.6,1282.5,724.1,1284,724.9,1282.2L724.9,1282.2z"/>
		<path fill="#9280A6" d="M650.6,1281.8c3.9,3.4,7.9,7,12.5,9.5c1.7,0.9,3.2-1.7,1.5-2.6c-4.3-2.4-8.2-5.8-11.9-9
			C651.3,1278.4,649.2,1280.5,650.6,1281.8L650.6,1281.8z"/>
		<path fill="#9280A6" d="M654.9,1296.3c2.6-5,5.2-11.2,9.4-15.1c1.4-1.3-0.7-3.4-2.1-2.1c-4.4,4.1-7.2,10.5-9.9,15.7
			C651.5,1296.5,654,1298,654.9,1296.3L654.9,1296.3z"/>
		<path fill="#C79EEF" d="M695.8,1235.6c3.2,3.6,6.3,7.1,9.5,10.7c1.3,1.4,3.4-0.7,2.1-2.1c-3.2-3.6-6.3-7.1-9.5-10.7
			C696.7,1232,694.5,1234.2,695.8,1235.6L695.8,1235.6z"/>
		<path fill="#C79EEF" d="M695.4,1247.6c4.6-4.9,10.3-9.1,16.4-11.7c1.8-0.8,0.2-3.3-1.5-2.6c-6.4,2.7-12.3,7.1-17.1,12.2
			C692,1246.8,694.1,1249,695.4,1247.6L695.4,1247.6z"/>
		<path fill="#C79EEF" d="M728.6,1218.4c2.3,3.3,4.6,6.5,6.9,9.8c1.1,1.6,3.7,0.1,2.6-1.5c-2.3-3.3-4.6-6.5-6.9-9.8
			C730.1,1215.3,727.5,1216.8,728.6,1218.4L728.6,1218.4z"/>
		<path fill="#C79EEF" d="M724.4,1229.3c5.3-3.4,11.6-6.4,18-6.7c1.9-0.1,1.9-3.1,0-3c-6.9,0.3-13.8,3.4-19.5,7.1
			C721.3,1227.8,722.8,1230.3,724.4,1229.3L724.4,1229.3z"/>
		<path fill="#C79EEF" d="M749.9,1262.4c3.2-4,7.3-7.5,11.9-9.5c1.8-0.8,0.2-3.4-1.5-2.6c-4.8,2.2-9.2,5.8-12.6,10
			C746.6,1261.8,748.7,1263.9,749.9,1262.4L749.9,1262.4z"/>
		<path fill="#C79EEF" d="M748.5,1250.8c2.8,3.8,5.6,7.6,8.4,11.4c1.1,1.5,3.7,0,2.6-1.5c-2.8-3.8-5.6-7.6-8.4-11.4
			C749.9,1247.7,747.3,1249.2,748.5,1250.8L748.5,1250.8z"/>
		<path fill="#C79EEF" d="M773.4,1249.3c4.5-2.2,9.4-3.8,14.3-4.6c1.9-0.3,1.1-3.2-0.8-2.9c-5.2,0.9-10.3,2.5-15,4.9
			C770.1,1247.6,771.7,1250.2,773.4,1249.3L773.4,1249.3z"/>
		<path fill="#C79EEF" d="M775.7,1241.3c2,3.7,4,7.4,6,11.1c0.9,1.7,3.5,0.2,2.6-1.5c-2-3.7-4-7.4-6-11.1
			C777.4,1238.1,774.8,1239.6,775.7,1241.3L775.7,1241.3z"/>
		<path fill="#C79EEF" d="M805,1242c4.8-1.4,11.3-2.6,15.8-0.2c1.7,0.9,3.2-1.7,1.5-2.6c-5.4-2.9-12.5-1.8-18.2-0.2
			C802.4,1239.6,803.2,1242.5,805,1242L805,1242z"/>
		<path fill="#C79EEF" d="M807.8,1234.3c1.6,3.7,3.1,7.4,4.7,11c0.8,1.8,3.3,0.2,2.6-1.5c-1.6-3.7-3.1-7.4-4.7-11
			C809.7,1231,807.1,1232.5,807.8,1234.3L807.8,1234.3z"/>
		<path fill="#C79EEF" d="M763.1,1216.6c5.2-2.2,11.2-2.7,16.8-2.2c1.9,0.2,1.9-2.8,0-3c-5.8-0.5-12.2,0-17.6,2.3
			C760.6,1214.4,761.3,1217.3,763.1,1216.6L763.1,1216.6z"/>
		<path fill="#C79EEF" d="M766.3,1208.4c1.9,2.5,3.1,5.5,3.6,8.5c0.3,1.9,3.2,1.1,2.9-0.8c-0.5-3.3-1.8-6.6-3.9-9.2
			C767.8,1205.4,765.2,1206.9,766.3,1208.4L766.3,1208.4z"/>
		<path fill="#C79EEF" d="M799.9,1209.9c1.7,1.9,3,4.5,3.2,7.1c0.2,1.9,3.2,1.9,3,0c-0.3-3.4-1.9-6.6-4.1-9.2
			C800.7,1206.3,798.6,1208.5,799.9,1209.9L799.9,1209.9z"/>
		<path fill="#C79EEF" d="M1216.9,1248.9c2,0.6,5.6,3.3,7.9,4.8c2.4,1.5,4.8,3,7.1,4.5c1.6,1,3.1-1.6,1.5-2.6
			c-2.5-1.6-5.1-3.2-7.7-4.8c-2.5-1.6-5.2-3.8-8.1-4.7C1215.8,1245.4,1215.1,1248.3,1216.9,1248.9L1216.9,1248.9z"/>
		<path fill="#C79EEF" d="M1225.8,1259c0.5-5.1,1.7-10.4,4.3-14.8c1-1.7-1.6-3.2-2.6-1.5c-2.9,4.9-4.2,10.7-4.8,16.3
			C1222.6,1260.9,1225.6,1260.9,1225.8,1259L1225.8,1259z"/>
		<path fill="#C79EEF" d="M1230.1,1226.6c3.5,1.7,6.9,3.7,10.3,5.6c1.7,0.9,3.2-1.7,1.5-2.6c-3.4-1.9-6.8-3.9-10.3-5.6
			C1229.9,1223.2,1228.4,1225.8,1230.1,1226.6L1230.1,1226.6z"/>
		<path fill="#C79EEF" d="M1235.9,1235.3c1.2-3.6,2.4-7.3,3.6-10.9c0.6-1.8-2.3-2.6-2.9-0.8c-1.2,3.6-2.4,7.3-3.6,10.9
			C1232.5,1236.3,1235.3,1237.1,1235.9,1235.3L1235.9,1235.3z"/>
		<path fill="#C79EEF" d="M1240.4,1208.6c2.7,1.8,5.4,3.7,8.2,5.5c1.6,1.1,3.1-1.5,1.5-2.6c-2.7-1.8-5.4-3.7-8.2-5.5
			C1240.3,1205,1238.8,1207.5,1240.4,1208.6L1240.4,1208.6z"/>
		<path fill="#C79EEF" d="M1243.7,1217.3c1-1.3,1.4-3.3,2.1-4.8c1.1-2.4,2.2-5.1,3.9-7.2c1.2-1.5-0.9-3.6-2.1-2.1
			c-1.8,2.1-3,4.7-4.1,7.2c-0.7,1.7-1.3,3.9-2.4,5.4S1242.6,1218.8,1243.7,1217.3L1243.7,1217.3z"/>
		<path fill="#C79EEF" d="M1253.1,1189.3c3,2.1,6.1,4.2,9.1,6.3c1.6,1.1,3.1-1.5,1.5-2.6c-3-2.1-6.1-4.2-9.1-6.3
			C1253.1,1185.6,1251.6,1188.2,1253.1,1189.3L1253.1,1189.3z"/>
		<path fill="#C79EEF" d="M1256.1,1198.1c2.5-3.9,4.9-7.9,7.5-11.8c1.1-1.6-1.5-3.1-2.6-1.5c-2.6,3.9-5,7.8-7.5,11.8
			C1252.5,1198.2,1255.1,1199.7,1256.1,1198.1L1256.1,1198.1z"/>
		<path fill="#C79EEF" d="M1265.7,1172.6c3.1,2.1,6.3,4.2,9.4,6.4c1.6,1.1,3.1-1.5,1.5-2.6c-3.1-2.1-6.3-4.2-9.4-6.4
			C1265.7,1168.9,1264.1,1171.5,1265.7,1172.6L1265.7,1172.6z"/>
		<path fill="#C79EEF" d="M1268.8,1180.8c2.6-3.3,5.1-6.7,7.7-10c1.2-1.5-1.4-3-2.6-1.5c-2.6,3.3-5.1,6.7-7.7,10
			C1265,1180.8,1267.6,1182.3,1268.8,1180.8L1268.8,1180.8z"/>
		<path fill="#C79EEF" d="M1282.3,1158.9c2.4,2.1,4.8,4.2,7.2,6.2c1.5,1.3,3.6-0.9,2.1-2.1c-2.4-2.1-4.8-4.2-7.2-6.2
			C1282.9,1155.5,1280.8,1157.6,1282.3,1158.9L1282.3,1158.9z"/>
		<path fill="#C79EEF" d="M1285.1,1166.1c2.2-2.6,4.9-4.8,7.3-7.2c1.4-1.3-0.7-3.5-2.1-2.1c-2.4,2.3-5.2,4.6-7.3,7.2
			C1281.7,1165.4,1283.8,1167.6,1285.1,1166.1L1285.1,1166.1z"/>
		<path fill="#C79EEF" d="M1254.1,1135.4c2.7,2.1,5.4,4.1,8.2,6.2c1.5,1.2,3-1.4,1.5-2.6c-2.7-2.1-5.4-4.1-8.2-6.2
			C1254,1131.7,1252.6,1134.3,1254.1,1135.4L1254.1,1135.4z"/>
		<path fill="#C79EEF" d="M1255.3,1142.3C1255.2,1142.6,1255.3,1142.4,1255.3,1142.3c0.3-0.2,0.5-0.5,0.7-0.7
			c0.7-0.7,1.3-1.4,2.1-2.1c1-0.9,2.7-2.7,4.2-2.8c1.9,0,1.9-3,0-3c-2.3,0-4.4,1.9-6.1,3.4c-1.3,1.2-3.2,2.7-3.8,4.3
			C1251.8,1143.3,1254.7,1144,1255.3,1142.3L1255.3,1142.3z"/>
		<path fill="#C79EEF" d="M1238.6,1147.2c3.5,2.4,7.1,5.3,9.5,8.9c1.1,1.6,3.7,0.1,2.6-1.5c-2.6-4-6.6-7.3-10.5-10
			C1238.5,1143.6,1237,1146.2,1238.6,1147.2L1238.6,1147.2z"/>
		<path fill="#C79EEF" d="M1240.6,1157.1c1.2-1.5,2.4-3,3.6-4.5c1.5-1.8,3.1-4.3,5.2-5.4c1.7-0.9,0.2-3.5-1.5-2.6
			c-2.3,1.3-4.2,3.9-5.8,5.9c-1.4,1.7-2.7,3.4-4,5.1C1236.9,1157.2,1239.5,1158.7,1240.6,1157.1L1240.6,1157.1z"/>
		<path fill="#C79EEF" d="M1222.7,1162.1c3.3,2.3,6.6,4.5,9.8,6.8c1.6,1.1,3.1-1.5,1.5-2.6c-3.3-2.3-6.6-4.5-9.8-6.8
			C1222.7,1158.5,1221.2,1161.1,1222.7,1162.1L1222.7,1162.1z"/>
		<path fill="#C79EEF" d="M1225,1171.3c0.7-0.3,1.2-1.3,1.7-1.9c1.1-1.4,2.1-2.7,3.2-4.1c1.6-2,3.1-4,4.7-6.1c1.2-1.5-1.4-3-2.6-1.5
			c-1.3,1.7-2.8,3.7-4.2,5.5c-1,1.2-1.9,2.5-2.9,3.7c-0.4,0.5-0.8,0.9-1.1,1.4c-0.2,0.3-0.8,0.7-0.3,0.4
			C1221.8,1169.6,1223.3,1172.2,1225,1171.3L1225,1171.3z"/>
		<path fill="#C79EEF" d="M1208.7,1180.8c-0.5-0.1,0.3,0.2,0.4,0.3c0.5,0.3,1,0.6,1.5,0.9c1.2,0.7,2.4,1.4,3.5,2.2
			c1.6,1,3.1,2,4.7,3.1s3.1-1.5,1.5-2.6c-1.8-1.2-3.6-2.4-5.5-3.5c-1.8-1.1-4-3-6.2-3.3C1206.8,1177.5,1206.8,1180.5,1208.7,1180.8
			L1208.7,1180.8z"/>
		<path fill="#C79EEF" d="M1212,1190.6c2.8-4.1,5.6-8.1,8.3-12.2c1.1-1.6-1.5-3.1-2.6-1.5c-2.8,4.1-5.6,8.1-8.3,12.2
			C1208.3,1190.7,1210.9,1192.2,1212,1190.6L1212,1190.6z"/>
		<path fill="#C79EEF" d="M1197.1,1199.6c1.2,1.5,3.9,2.3,5.5,3.2c1.8,0.9,3.6,1.9,5.4,2.8c1.7,0.9,3.2-1.7,1.5-2.6
			c-1.7-0.8-3.3-1.7-5-2.6c-1.1-0.6-2.3-1.2-3.4-1.8c-0.4-0.2-0.9-0.5-1.3-0.8c-0.3-0.2-0.6-0.5-0.5-0.3
			C1198,1195.9,1195.9,1198.1,1197.1,1199.6L1197.1,1199.6z"/>
		<path fill="#C79EEF" d="M1201.8,1210.3c0.1-2.1,1.9-6.1,2.7-8.7c0.9-2.6,1.7-5.3,2.6-7.9c0.6-1.8-2.3-2.6-2.9-0.8
			c-0.9,2.8-1.9,5.7-2.8,8.5c-0.9,2.7-2.4,5.9-2.6,8.8C1198.7,1212.3,1201.7,1212.3,1201.8,1210.3L1201.8,1210.3z"/>
		<path fill="#F1F681" d="M1160.4,1237.7c-0.1,2.9,0.3,5.8,1,8.6c0.5,1.9,3.4,1.1,2.9-0.8c-0.6-2.5-1-5.2-0.9-7.8
			C1163.5,1235.7,1160.5,1235.8,1160.4,1237.7L1160.4,1237.7z"/>
		<path fill="#F1F681" d="M1158.8,1243.8c2.7-0.3,5.3-0.6,8-0.8c1.9-0.2,1.9-3.2,0-3c-2.7,0.3-5.3,0.6-8,0.8
			C1156.9,1241,1156.8,1244,1158.8,1243.8L1158.8,1243.8z"/>
		<path fill="#F1F681" d="M1147.2,1239.3c-0.1,2.9,0.3,5.8,1,8.6c0.5,1.9,3.4,1.1,2.9-0.8c-0.6-2.5-1-5.2-0.9-7.8
			C1150.3,1237.4,1147.3,1237.4,1147.2,1239.3L1147.2,1239.3z"/>
		<path fill="#F1F681" d="M1145.5,1245.5c2.7-0.3,5.3-0.6,8-0.8c1.9-0.2,1.9-3.2,0-3c-2.7,0.3-5.3,0.6-8,0.8
			C1143.6,1242.7,1143.6,1245.7,1145.5,1245.5L1145.5,1245.5z"/>
		<path fill="#F1F681" d="M1133.1,1241.8c-0.1,2.9,0.3,5.8,1,8.6c0.5,1.9,3.4,1.1,2.9-0.8c-0.6-2.5-1-5.2-0.9-7.8
			C1136.2,1239.9,1133.2,1239.9,1133.1,1241.8L1133.1,1241.8z"/>
		<path fill="#F1F681" d="M1131.4,1247.9c2.7-0.3,5.3-0.6,8-0.8c1.9-0.2,1.9-3.2,0-3c-2.7,0.3-5.3,0.6-8,0.8
			C1129.5,1245.1,1129.5,1248.1,1131.4,1247.9L1131.4,1247.9z"/>
		<path fill="#F1F681" d="M1119.8,1242.9c-0.4,3-0.3,6.1,0.1,9.1c0.3,1.9,3.2,1.1,2.9-0.8c-0.3-1.8-0.3-3.6-0.2-5.4
			c0-0.5,0.1-1,0.1-1.5c0-0.2,0.1-0.9,0.1-0.6C1123,1241.8,1120.1,1240.9,1119.8,1242.9L1119.8,1242.9z"/>
		<path fill="#F1F681" d="M1117.7,1249c2.7,0,5.4,0,8,0c1.9,0,1.9-3,0-3c-2.7,0-5.4,0-8,0C1115.7,1246,1115.7,1249,1117.7,1249
			L1117.7,1249z"/>
		<path fill="#F1F681" d="M1104.2,1242.5c-0.5,3.4-0.4,6.8,0.1,10.2c0.3,1.9,3.2,1.1,2.9-0.8c-0.3-2-0.4-4.1-0.3-6.1
			c0-0.6,0.1-1.2,0.1-1.7c0-0.2,0.1-0.9,0.1-0.7C1107.3,1241.4,1104.4,1240.6,1104.2,1242.5L1104.2,1242.5z"/>
		<path fill="#F1F681" d="M1101.5,1249.2c3,0,6.1,0,9.1,0c1.9,0,1.9-3,0-3c-3,0-6.1,0-9.1,0
			C1099.6,1246.2,1099.6,1249.2,1101.5,1249.2L1101.5,1249.2z"/>
		<path fill="#F1F681" d="M1090.2,1243.5c-0.5,3.4-0.4,6.8,0.1,10.2c0.3,1.9,3.2,1.1,2.9-0.8c-0.3-2-0.4-4.1-0.3-6.1
			c0-0.6,0.1-1.2,0.1-1.7c0-0.2,0.1-0.9,0.1-0.7C1093.4,1242.4,1090.5,1241.6,1090.2,1243.5L1090.2,1243.5z"/>
		<path fill="#F1F681" d="M1087.6,1250.2c3,0,6.1,0,9.1,0c1.9,0,1.9-3,0-3c-3,0-6.1,0-9.1,0
			C1085.7,1247.2,1085.7,1250.2,1087.6,1250.2L1087.6,1250.2z"/>
		<path fill="#F1F681" d="M1077.4,1242.9c-0.5,3.4-0.4,6.8,0.1,10.2c0.3,1.9,3.2,1.1,2.9-0.8c-0.3-2-0.4-4.1-0.3-6.1
			c0-0.6,0.1-1.2,0.1-1.7c0-0.2,0.1-0.9,0.1-0.7C1080.6,1241.8,1077.7,1240.9,1077.4,1242.9L1077.4,1242.9z"/>
		<path fill="#F1F681" d="M1074.8,1249.6c3,0,6.1,0,9.1,0c1.9,0,1.9-3,0-3c-3,0-6.1,0-9.1,0
			C1072.9,1246.6,1072.9,1249.6,1074.8,1249.6L1074.8,1249.6z"/>
		<path fill="#F1F681" d="M1065.7,1243c-0.5,3.4-0.4,6.8,0.1,10.2c0.3,1.9,3.2,1.1,2.9-0.8c-0.3-2-0.4-4.1-0.3-6.1
			c0-0.6,0.1-1.2,0.1-1.7c0-0.2,0.1-0.9,0.1-0.7C1068.8,1241.9,1066,1241.1,1065.7,1243L1065.7,1243z"/>
		<path fill="#F1F681" d="M1063.1,1249.7c2.4,0,4.9,0,7.3,0c1.9,0,1.9-3,0-3c-2.4,0-4.9,0-7.3,0
			C1061.1,1246.8,1061.1,1249.8,1063.1,1249.7L1063.1,1249.7z"/>
		<path fill="#F1F681" d="M1052.4,1243.2c-0.5,3.4-0.4,6.8,0.1,10.2c0.3,1.9,3.2,1.1,2.9-0.8c-0.3-2-0.4-4.1-0.3-6.1
			c0-0.6,0.1-1.2,0.1-1.7c0-0.2,0.1-0.9,0.1-0.7C1055.6,1242.1,1052.7,1241.3,1052.4,1243.2L1052.4,1243.2z"/>
		<path fill="#F1F681" d="M1049.8,1249.9c2.4,0,4.9,0,7.3,0c1.9,0,1.9-3,0-3c-2.4,0-4.9,0-7.3,0
			C1047.9,1246.9,1047.9,1249.9,1049.8,1249.9L1049.8,1249.9z"/>
		<path fill="#F1F681" d="M1039.6,1243c-0.5,3.4-0.4,6.8,0.1,10.2c0.3,1.9,3.2,1.1,2.9-0.8c-0.3-2-0.4-4.1-0.3-6.1
			c0-0.6,0.1-1.2,0.1-1.7c0-0.2,0.1-0.9,0.1-0.7C1042.8,1241.9,1039.9,1241.1,1039.6,1243L1039.6,1243z"/>
		<path fill="#F1F681" d="M1037,1249.7c2.4,0,4.9,0,7.3,0c1.9,0,1.9-3,0-3c-2.4,0-4.9,0-7.3,0
			C1035.1,1246.7,1035.1,1249.7,1037,1249.7L1037,1249.7z"/>
		<path fill="#F1F681" d="M1026.2,1242.6c-0.5,3.4-0.4,6.8,0.1,10.2c0.3,1.9,3.2,1.1,2.9-0.8c-0.3-2-0.4-4.1-0.3-6.1
			c0-0.6,0.1-1.2,0.1-1.7c0-0.2,0.1-0.9,0.1-0.7C1029.3,1241.5,1026.4,1240.7,1026.2,1242.6L1026.2,1242.6z"/>
		<path fill="#F1F681" d="M1023.5,1249.4c2.4,0,4.9,0,7.3,0c1.9,0,1.9-3,0-3c-2.4,0-4.9,0-7.3,0
			C1021.6,1246.4,1021.6,1249.4,1023.5,1249.4L1023.5,1249.4z"/>
		<path fill="#F1F681" d="M1014.5,1242c-0.5,3.4-0.4,6.8,0.1,10.2c0.3,1.9,3.2,1.1,2.9-0.8c-0.3-2-0.4-4.1-0.3-6.1
			c0-0.6,0.1-1.2,0.1-1.7c0-0.2,0.1-0.9,0.1-0.7C1017.7,1240.9,1014.8,1240.1,1014.5,1242L1014.5,1242z"/>
		<path fill="#F1F681" d="M1011.9,1248.8c2.4,0,4.9,0,7.3,0c1.9,0,1.9-3,0-3c-2.4,0-4.9,0-7.3,0
			C1010,1245.8,1010,1248.8,1011.9,1248.8L1011.9,1248.8z"/>
		<path fill="#F1F681" d="M1003.5,1237.2c0.5,1.4,1.6,2.7,2.4,3.8c0.8,1.2,1.6,2.4,2.4,3.6c1.1,1.6,3.7,0.1,2.6-1.5
			c-0.7-1.1-1.5-2.2-2.2-3.4c-0.5-0.8-1.1-1.6-1.6-2.4c-0.2-0.3-0.3-0.5-0.5-0.8c-0.1-0.2-0.4-0.8-0.1-0.2
			C1005.8,1234.6,1002.9,1235.4,1003.5,1237.2L1003.5,1237.2z"/>
		<path fill="#F1F681" d="M1005.4,1243.7c1.7-1.2,3.5-2.3,5.2-3.4c1.6-1.1,0.1-3.7-1.5-2.6c-1.7,1.1-3.5,2.2-5.2,3.4
			c-0.7,0.5-1,1.3-0.5,2.1C1003.8,1243.8,1004.8,1244.2,1005.4,1243.7L1005.4,1243.7z"/>
		<path fill="#F1F681" d="M996.3,1226.4c0.5,1.4,1.6,2.7,2.4,3.8c0.8,1.2,1.6,2.4,2.4,3.6c1.1,1.6,3.7,0.1,2.6-1.5
			c-0.7-1.1-1.5-2.2-2.2-3.4c-0.5-0.8-1.1-1.6-1.6-2.4c-0.2-0.3-0.3-0.5-0.5-0.8c-0.1-0.2-0.4-0.8-0.1-0.2
			C998.5,1223.8,995.6,1224.6,996.3,1226.4L996.3,1226.4z"/>
		<path fill="#F1F681" d="M998.2,1232.9c1.7-1.2,3.5-2.3,5.2-3.4c1.6-1.1,0.1-3.7-1.5-2.6c-1.7,1.1-3.5,2.2-5.2,3.4
			c-0.7,0.5-1,1.3-0.5,2.1C996.5,1233.1,997.6,1233.4,998.2,1232.9L998.2,1232.9z"/>
		<path fill="#F1F681" d="M989,1215.7c0.5,1.4,1.6,2.7,2.4,3.8c0.8,1.2,1.6,2.4,2.4,3.6c1.1,1.6,3.7,0.1,2.6-1.5
			c-0.7-1.1-1.5-2.2-2.2-3.4c-0.5-0.8-1.1-1.6-1.6-2.4c-0.2-0.3-0.3-0.5-0.5-0.8c-0.1-0.2-0.4-0.8-0.1-0.2
			C991.3,1213,988.4,1213.8,989,1215.7L989,1215.7z"/>
		<path fill="#F1F681" d="M990.9,1222.2c1.7-1.2,3.5-2.3,5.2-3.4c1.6-1.1,0.1-3.7-1.5-2.6c-1.7,1.1-3.5,2.2-5.2,3.4
			c-0.7,0.5-1,1.3-0.5,2.1C989.3,1222.3,990.3,1222.7,990.9,1222.2L990.9,1222.2z"/>
		<path fill="#F1F681" d="M982.2,1205.3c0.5,1.4,1.6,2.7,2.4,3.8c0.8,1.2,1.6,2.4,2.4,3.6c1.1,1.6,3.7,0.1,2.6-1.5
			c-0.7-1.1-1.5-2.2-2.2-3.4c-0.5-0.8-1.1-1.6-1.6-2.4c-0.2-0.3-0.3-0.5-0.5-0.8c-0.1-0.2-0.4-0.8-0.1-0.2
			C984.4,1202.7,981.5,1203.4,982.2,1205.3L982.2,1205.3z"/>
		<path fill="#F1F681" d="M984.1,1211.8c1.7-1.2,3.5-2.3,5.2-3.4c1.6-1.1,0.1-3.7-1.5-2.6c-1.7,1.1-3.5,2.2-5.2,3.4
			c-0.7,0.5-1,1.3-0.5,2.1C982.4,1211.9,983.5,1212.3,984.1,1211.8L984.1,1211.8z"/>
		<path fill="#B3B96A" d="M972.9,1189.9c-0.5-0.5-1-1.1-1.5-1.6c-0.6,0.8-1.3,1.5-1.9,2.3c-1.2,1.5-3.4-0.7-2.1-2.1
			c0.7-0.8,1.4-1.6,2-2.4c-0.5-0.5-1-1.1-1.5-1.6c-1.3-1.4,0.8-3.6,2.1-2.1c0.4,0.5,0.8,0.9,1.3,1.4c0.5-0.6,1-1.2,1.5-1.8
			c1.2-1.5,3.4,0.7,2.1,2.1c-0.5,0.6-1.1,1.3-1.6,1.9c0.5,0.6,1.1,1.2,1.6,1.8C976.3,1189.2,974.2,1191.3,972.9,1189.9z"/>
		<path fill="#B3B96A" d="M963.3,1185.6c-0.8,0.5-1.6,1.1-2.4,1.6c0.3,0.5,0.6,1.1,0.8,1.6c0.9,1.7-1.7,3.2-2.6,1.5
			c-0.3-0.5-0.5-1-0.8-1.5c-1,0.7-2,1.3-3,2c-1.6,1.1-3.1-1.5-1.5-2.6c1-0.7,2.1-1.4,3.1-2.1c-0.4-0.8-0.8-1.6-1.2-2.4
			c-0.9-1.7,1.7-3.2,2.6-1.5c0.4,0.7,0.8,1.5,1.2,2.2c0.8-0.5,1.5-1,2.3-1.5C963.4,1181.9,964.9,1184.5,963.3,1185.6z"/>
		<path fill="#B3B96A" d="M950.7,1193.1c-0.5,0.4-1,0.8-1.5,1.2c0.3,0.5,0.7,1,1,1.4c1.1,1.6-1.5,3.1-2.6,1.5
			c-0.2-0.4-0.5-0.8-0.8-1.1c-1,0.8-2.1,1.6-3.1,2.4c-1.5,1.2-3-1.4-1.5-2.6c1-0.8,2-1.5,3-2.3c-0.6-0.9-1.2-1.8-1.7-2.7
			c-1-1.6,1.6-3.1,2.6-1.5c0.5,0.8,1,1.6,1.5,2.3c0.5-0.4,1.1-0.9,1.7-1.3C950.8,1189.3,952.2,1191.9,950.7,1193.1z"/>
	</g>
	<path fill="#9B965A" d="M1247.3,1253.8c1.5,1.4,17.5,11.6,19.5,12.6c7.1,4,14.8,8,22.3,11.2s15.6,5.3,23.4,7.6
		c4,1.2,8.1,2.2,12.2,3.1c2.8,0.6,5.1,1,7.8,1.5c0,0-0.3,13.5-0.4,14.6c-2,17.9-7.2,34.9-21.6,46.7c-9.9,8.1-24.8,11.5-36.3,4.7
		c-6.4-3.8-12.1-12.9-16.2-19c-4.5-6.7-7.6-13.8-10.4-21.4c-3.6-9.9-5.6-20.4-5.8-31C1241.5,1273.6,1243.6,1264.1,1247.3,1253.8z"/>
	<path fill="#9B965A" d="M703.7,1361.5c-0.6,3-2.6,19.4-2.7,22c-0.3,12.3,4.8,30.2,13.2,39.8c3.7,4.2,7.9,7.7,13.2,9
		c2.8,0.7,12.1,0.8,12.1,0.8l15.5-8.7l19.8-9.7l-19.3-12.3l-25.7-19C729.9,1383.4,703.7,1361.5,703.7,1361.5z"/>
	<path fill="#B3B96A" d="M935,1208.3c-0.5,0-0.9-0.2-1.2-0.6l-5-7.2c-0.5-0.7-0.3-1.6,0.4-2.1s1.6-0.3,2.1,0.4l5,7.2
		c0.5,0.7,0.3,1.6-0.4,2.1C935.6,1208.2,935.3,1208.3,935,1208.3z"/>
	<path fill="#B3B96A" d="M929.2,1207.8c-0.4,0-0.9-0.2-1.2-0.6c-0.5-0.7-0.4-1.6,0.3-2.1l7-5.5c0.7-0.5,1.6-0.4,2.1,0.3
		c0.5,0.7,0.4,1.6-0.3,2.1l-7,5.5C929.9,1207.6,929.5,1207.8,929.2,1207.8z"/>
	<path fill="#B3B96A" d="M920.3,1219.1c-0.5,0-1-0.3-1.3-0.7l-0.9-1.4c0,0,0.9-3,1.7-2.2c1.1,1.1,1.7,2.1,1.7,2.1
		c0.4,0.7,0.2,1.6-0.5,2.1C920.9,1219,920.6,1219.1,920.3,1219.1z"/>
	<path fill="#B3B96A" d="M919.8,1211.8l2.4-1.8c0.7-0.5,1.6-0.4,2.1,0.3c0.5,0.7,0.4,1.6-0.3,2.1l-3.5,2.6l-2.2,1.7L919.8,1211.8z"
		/>
	<g>
		<path fill="#491E56" d="M945.4,1209.6c-1.9,0-7.6,0.4-10.6,3.4c-3.5,3.6-5.8,7.4-5.8,13.6l-3.1,3.2l0.8,0.7l3-3.1
			c2,0.1,8.3,0.1,13.5-5.7c5.1-5.7,3.8-10.2,3.1-11.6l3.3-3.4l-0.8-0.7L945.4,1209.6z M941.3,1215.3c0.9,1.1,0.4,3.1-1.1,4.6
			s-3.4,2.1-4.6,1.3c-0.1-0.1-0.2-0.1-0.2-0.2c-0.1-0.2-0.3-0.3-0.4-0.5c-0.5-1.1-0.1-2.9,1.3-4.4c1.3-1.4,3.1-2,4.3-1.4
			c0.2,0.1,0.5,0.2,0.6,0.4C941.1,1215.1,941.1,1215.2,941.3,1215.3z"/>
	</g>
	<g>
		<path fill="#491E56" d="M919.1,1236.7c-1.4,0-4.7,0.2-7.6,1.4l-5.4,16.1c2.8-0.5,7.3-1.8,10.6-5.5c5.2-5.7,3.8-10.2,3.2-11.6
			l3.3-3.3l-0.7-0.7L919.1,1236.7z M915,1242.4c0.8,1.2,0.3,3.1-1.1,4.6c-1.5,1.5-3.5,2-4.6,1.3c-0.1-0.1-0.2-0.1-0.2-0.2
			c-0.1-0.2-0.3-0.4-0.4-0.5c-0.1-0.1-0.1-0.1-0.1-0.2l1.5-4.1c0.1-0.1,0.1-0.1,0.2-0.2c1.3-1.3,3-1.8,4.1-1.2
			C914.6,1242,914.9,1242.1,915,1242.4C914.8,1242.2,914.9,1242.3,915,1242.4z"/>
	</g>
	<circle fill="#C59DEC" cx="1187.9" cy="1283.8" r="6.7"/>
	<circle fill="#F1F681" cx="1188.3" cy="1283.8" r="3"/>
</g>
</svg>
