<?xml version="1.0" encoding="utf-8"?>
<!-- Generator: Adobe Illustrator 21.0.2, SVG Export Plug-In . SVG Version: 6.00 Build 0)  -->
<svg version="1.1" id="_x31_6_x5F_Top_x5F_ZipUp_x5F_Hoodie"
	 xmlns="http://www.w3.org/2000/svg" xmlns:xlink="http://www.w3.org/1999/xlink" x="0px" y="0px" viewBox="0 0 2000 2000"
	 enable-background="new 0 0 2000 2000" xml:space="preserve">
<g>
	<path fill="#898989" d="M797,1095l-5-15l-14-57l3.7-18.8c0,0,32.3-13.2,36.3-14.2s37-6,42-9s63-17,63-17l65-2l-2,2.7l-3,9.3l47,21
		l16.7,13l10.8-0.5c0,0,1.5-6.5,4-7s9.5-10.5,9.5-10.5s1.5-11,2-13.5s-7-20-7-20s11-6,13-6.5s19.4,4,19.4,4l11.6,16l5,8.5l-10.5,24
		l6.5,7.5l135.5,137c0,0,41,5.5,43.5,2.5s8-16.1,11-17.3s21.5-6.2,21.5-6.2l12,2.5l12.5-40l6-4.5l4,9l2.7,19.1l13.2,13.4l29.6,29.5
		c0,0,32,13,34.5,13s36.5-1,36.5-1l26-7.5l6.8-11.2l6.2,3.7l-1,14.5l-16,16L1485,1211l-3,15.5l-61.5,67.5c0,0-130,18.5-130.5,15
		s-119.5-104-119.5-104l-7.7-4.9l-8.8-2.1l-37-8.5l-53-7l-28.9,1.3l-39.6,1.2l-36.6,10.5l-29.4,7.5l1-25.5c0,0,0.5-47.5,2-48.5
		s20-33.5,20-35s-1.5-16-1.5-16l-39,40.5l-53.5,77l-11,19.5l3.5,20.5c0,0,15.5,19.5,17,20s156.5,121.5,156.5,121.5l1.5,13.5
		l-2.5,8.5l-4.4,1.2l7.9,31.3l-1.7,22.1l-7.3,12.4l-31,17c0,0-47.5,14-49,13.5s-26.5,2-26.5,2l-41.5-12c0,0-64.5-38-65.5-39.5
		S633,1296,634,1294.5s4.5-63,7-64.5s18.5-27,18.5-27L797,1095z"/>
	<g>
		<g>
			<path fill="#62666B" d="M893.7,1488.8c1.6,2.9,3,5.4,4.2,7.4c5.3,1,10.6,1.7,15.8,2c-1.6-1.6-3.2-3.4-4.7-5.3
				C903.5,1492.1,898.4,1490.8,893.7,1488.8z"/>
			<path fill="#62666B" d="M912,1493.2c1.6,1.9,3.2,3.6,4.9,5.2c4,0.2,8.1,0.1,12-0.1c-1-1.4-2-3-3.1-4.6
				C921.1,1493.8,916.4,1493.7,912,1493.2z"/>
			<path fill="#62666B" d="M958.9,1191.2c0.5,1.2,1.1,2.4,1.9,3.7c3.3-1.1,7-2.2,11-3.3c-0.2-0.4-0.5-0.8-0.7-1.1
				C966.3,1191.9,962.3,1192.5,958.9,1191.2z"/>
			<path fill="#62666B" d="M1007.9,1181.8c0.2,1.1,0.5,2.2,0.9,3.3c3.8-0.4,7.8-0.7,11.9-0.9c4.7-0.2,9.5-0.3,14.4-0.3
				c-0.2-1-0.3-2.1-0.4-3.2C1025,1180.7,1015.7,1181.1,1007.9,1181.8z"/>
			<path fill="#62666B" d="M973.1,1189.8c0.2,0.4,0.5,0.8,0.8,1.2c4.4-1.1,9.1-2.2,14.2-3.1c-0.4-0.9-0.8-1.8-1.1-2.7
				C981.8,1186.7,977.2,1188.5,973.1,1189.8z"/>
			<path fill="#62666B" d="M842.5,994.5c0,0-14.5,8.5-25.8,12.8s-13.2,7.1-15.8,4.8s1.8-7.8,6.8-10.5s7.2-7-4.5-1.6
				c-11.8,5.5-16.4,21.7-8,25.6c8.4,3.9,44.2-12.4,74.5-31c30.2-18.6,46.6-32.4,73.6-32.8c-21.5,0.6-41.7,0.6-41.7,0.6
				s-9.7,4.4-27.2,9.7c-13.7,4.1-24.8,7.3-39.5,8.8C841.1,984.7,842.8,988.9,842.5,994.5z"/>
			<path fill="#62666B" d="M993.2,1183.7c-1.5,0.3-2.9,0.6-4.3,1c0.3,0.9,0.7,1.9,1.2,2.9c5.2-0.9,10.7-1.7,16.6-2.3
				c-0.4-1.1-0.7-2.2-0.9-3.3C1000.9,1182.4,996.6,1183,993.2,1183.7z"/>
			<path fill="#62666B" d="M1025.1,1457.7c0.7-1.7,1.2-3.6,1.7-5.6c-0.5,0.5-0.9,1.1-1.4,1.6
				C1025.3,1455,1025.2,1456.3,1025.1,1457.7z"/>
			<path fill="#62666B" d="M1000.6,1473.9c-0.3,1.9-0.5,3.8-0.9,5.8c3.2-1.5,5.9-3,8.3-4.3c0.6-0.4,1.2-0.7,1.9-1.1
				c0.7-2.7,1.2-5.3,1.7-7.9C1008,1469.1,1004.3,1471.6,1000.6,1473.9z"/>
			<path fill="#62666B" d="M928.1,1493.6c1,1.6,2.1,3.1,3.1,4.6c7.1-0.4,14-1.4,20.7-2.7c-0.4-1.2-1-2.7-1.6-4.5
				C943,1492.3,935.5,1493.3,928.1,1493.6z"/>
			<path fill="#62666B" d="M1015,1387c1.5,4.1,2.9,8.6,4.2,13.3c2.8,4.4,2.8,4.4,2.8,4.4s0.6-0.1,1.5-0.1c1.5-0.8,3.8-4.3,4.3-17.6
				c0.1-3.3-1-7.6-3.5-12.9C1025.3,1394.9,1023.3,1392.6,1015,1387z"/>
			<path fill="#62666B" d="M1014,1464.4c-0.5,2.7-1.1,5.5-1.7,8.3c4.3-2.9,7.8-6.1,10.4-10.2c0.2-2.2,0.4-4.4,0.6-6.6
				C1020.3,1458.9,1017.2,1461.8,1014,1464.4z"/>
			<path fill="#62666B" d="M952.3,1490.6c0.6,1.8,1.2,3.3,1.6,4.5c5.5-1.1,10.9-2.5,15.9-4c0.5-1.6,1-3.4,1.4-5.1
				C965.3,1487.7,958.9,1489.3,952.3,1490.6z"/>
			<path fill="#62666B" d="M996.4,1476.3c-4.6,2.6-12.9,6-23.1,9c-0.4,1.8-0.8,3.4-1.2,5.1c9.8-3,18.4-6.5,25.4-9.8
				c0.3-1.8,0.6-3.7,0.9-5.5C997.7,1475.6,997.1,1476,996.4,1476.3z"/>
			<path fill="#62666B" d="M874.6,1469.7c-2.8-7.2-4.2-14.1-3.7-20.8c-1.9-4-3.8-8.1-5.5-12.1l1.8-0.8c1.3,3.1,2.7,6.2,4.2,9.2
				c1.1-5.8,3.7-11.5,8.2-17c-0.8-2.5-1.6-5-2.5-7.6l1.9-0.6c0.7,2.2,1.4,4.4,2.1,6.5c4.1-4.5,9.5-9,16.5-13.3
				c-0.3-2.2-0.6-4.4-0.8-6.5l2-0.2c0.2,1.8,0.4,3.6,0.7,5.6c6.5-3.9,14.2-7.7,23.3-11.4c-0.5-2.3-1-4.5-1.4-6.6l2-0.4
				c0.4,2,0.9,4.1,1.3,6.3c1.2-0.5,2.5-1,3.8-1.5c8.7-3.3,16.6-6,23.8-8.1c-1-2-2.1-3.9-3.2-5.8l1.7-1c1.2,2.1,2.3,4.1,3.5,6.2
				c11.1-3.1,20.5-4.8,28.3-5.5c-0.4-0.7-0.9-1.3-1.3-2l1.6-1.1c0.7,1,1.3,2,1.9,3c5.8-0.3,10.8,0,14.9,0.8
				c-0.5-0.9-1.1-1.8-1.6-2.7l1.7-1.1c0.9,1.4,1.8,2.9,2.6,4.3c6.4,1.7,10.5,4.7,12.8,8.3c0.1,0.2,0.2,0.4,0.3,0.5
				c-1-3.2-2-6.2-3.1-9.1c-3.2-2-7.2-4.2-12.1-5.7c-23.5-7.5-65.9,2.3-109.7,29.1c-43.8,26.8-50.4,29-84.1,14.4
				s-43.6-40.4-61.9-52.9s-42.7-18.8-76.9-61.7c-24.5-30.8-27.6-49.5-25.5-82.6c-23.2,37.6-31.1,74.8-15,105.8
				c22.8,43.8,57.8,67.8,95.7,88.5s54.3,34,77.3,43.5s29.2,7.2,38.3,5.8c0,0,10.8,16.2,57,26.3c-1.3-2.3-2.9-5.1-4.7-8.4
				C883.4,1483.5,877.8,1477.8,874.6,1469.7z"/>
			<path fill="#62666B" d="M1036.7,1180.6c0.1,1.2,0.3,2.2,0.4,3.3c5.6,0,11.2,0.2,16.9,0.5c-0.2-1-0.4-2.2-0.6-3.6
				C1047.9,1180.6,1042.2,1180.6,1036.7,1180.6z"/>
			<path fill="#62666B" d="M1496,1193.3c5.8-14.5,31.1-34.6,12.2-49l-1.9,3.9c4.1,3.7,5,7.1,4,10.1c0.7,1.2,1.2,2.6,1.4,4.1l-2,0.2
				c-0.1-0.8-0.3-1.5-0.6-2.2c-0.7,1-1.6,1.9-2.7,2.8c1,1.9,1.4,3.3,1.5,3.5l-1.9,0.6c0,0-0.4-1.2-1.2-2.9
				c-4.9,3.3-12.1,5.6-18.5,6.5c1.3,2.7,2,4.6,2.1,4.8l-1.9,0.7c0,0-0.8-2.2-2.3-5.2c-14.6,1.9-11.4,10.3-18.3,24.8
				c-7,14.8-25.7,29.7-25.7,29.7s-1.4,0-3.8-0.1c-2.5,2.7-4.1,4.2-4.1,4.3l-1.4-1.4c0,0,1.2-1.2,3-3c-6-0.5-15.8-1.7-26.9-4.9
				c-1.5,2.1-2.4,3.3-2.5,3.4l-0.7-0.8l-0.8-0.6c0.1-0.2,0.8-1.1,1.9-2.6c-9.1-2.8-18.9-6.9-28-13c-0.3,1.3-0.6,2.7-0.9,4.2l-2-0.4
				c0.4-1.7,0.7-3.4,1-5c-1.2-0.8-2.3-1.7-3.4-2.5c-9.5-7.4-16.7-16.5-22-26c-0.3,0.8-0.6,1.6-0.9,2.4l-1.9-0.7c0.5-1.4,1-2.7,1.5-4
				c-3.6-6.8-6.1-13.8-7.8-20.4c-0.6,1.1-1.2,2.3-1.9,3.6l-1.8-0.9c1.1-2,2.1-3.9,3-5.6c-0.8-3.8-1.4-7.5-1.7-10.9
				c-0.9,1.8-1.8,3.7-2.9,5.7l-1.8-0.9c1.7-3.3,3.1-6.3,4.4-9.1c-0.1-4.2,0.2-7.9,0.9-10.9c4-17,11.2-41.6,13.2-39.2
				c1.4,1.8,1.5,3.6,5.9,10.2c-0.8-4.3-0.9-8.7-0.5-13.7c0,0-6-4.8-12.1,8s-11.8,34.7-11.8,34.7s-7.9-4.5-20.4,0
				c-4.2,1.5-8.4,3.8-12.6,6.3c14-1,26.8,0.6,28,7.5c1.5,8.2,14.4,63.3,56.2,81.7s46.1,19.9,44.5,27.6c-1.6,7.8-14.8,34.7-57.6,41.5
				s-87.3-15.5-131.9-53.1s-72.8-85.9-72.8-85.9c0.8-22.2-4-29.7-15.8-48.1s-22.7-32.1-31.4-50.8s-8.8-10.5-3.6,2.2
				s25.5,45.7,32.7,53.5s14.5,25.2,12.8,41c-1.8,15.8-7.8,20.7-17.1,14.6c-9.4-6.1-9.5-8.5-5.4-14.6s5-12.4,2.4-27.2
				s-7.6-19.9-7.6-19.9s7.1,27.1,5.7,32.5s-2.5,8.8-26.2,9.9s-28.2-6.5-28.2-6.5s0.4-13,0.2-28.6s-12.1-34.4-16.2-48.2
				c-4.1-13.7-3.8-15.7-3.8-15.7s7.8-2.3,6.4-4.8s-10.2-7.8-10.2-7.8l-1,14.6c0,0,5.5,15.6,9.2,24s11,23,11.8,40.8s-1,24.7-1.7,26.7
				s-11.4,1.2-11.3-5.6s-14.1-113.3-17.5-119s-5.6,6.9-8,18.2s-4.4,12-1.2,14.9s8.2,1.6,8.2,1.6s-1.2,16.2,0.2,24.1
				c1.5,7.8,4.8,17.2,4.8,33.6s-3.6,32.2-3.6,32.2c-8,6.3-38.4,10.9-53.5,7.9s-13.9-13.9-11.5-29.3s-3.8-25.8-3.8-25.8
				c21.1-18.5,36-18.6,36-18.6c-5.5,22.6,3.2,25.4,3.2,25.4c-0.8,11.1-4.2,17,2,16.6c6.3-0.4,9.1,0.9,9.2-3.9s-4.2-21.2-3.9-32.2
				s-8.9-65.5-8.9-65.5c14.6-0.1,35.8-3.8,35.8-3.8c19.6,6.8,30.5,3.8,30.5,3.8c4.1,8.1,3.8,24.8,3.2,31.8
				c-0.5,7.1-3.2,21.9-3.2,21.9l3,0.8c0,0-1,3.3-1.5,11.4s3.2,12.4,3.8,19s-0.4,10.2,4.1,11.9c4.4,1.7,7.7,0,7.7,0
				s-6.9-26.2-7.5-42.4s0.1-55.1,4.2-49.6s8,20.2,9,16.7s-1.2-7.6-2.2-10.2s0.2-4.1,1.1-13c0.2-2.6,0.8-4,1.8-4.4
				c-0.6-0.6-1.2-1.3-1.8-1.9c0,0,6.5-4.9,8.3-12.3c0.6-2.7,0.5-10.6-2.5-19.1c-0.9,5.9-3,12.7-7.3,17.3
				c-9.3,9.9-28.7,14.3-28.7,14.3c11.6-6.7,17.6-20.1,15.9-19.6s-4.8,7.5-16.5,14.8s-17.5,4-17.5,4c11.8-8.4,13-17.1,14.8-28.3
				s-5.2-15.2-5.2-15.2c1.7-3.8,6.6-11.3,23.3-8.7c1.7,0.3,3.4,0.6,4.9,0.9c-9.2-5.5-22.7-7.9-42.2-3.5c0,0-5.4,4.4-3.2,13.7
				c2.3,9.3,21.6,6.3,19.7,20.4c-1.9,14.1-21.3,24-21.3,24s-2.4-2.3-6.9-5.8c-1.7,2.7-4.4,4-10.6,1.5c-9.5-3.9-26.6-14.5-39.7-21.5
				s-13.1-2.8-4.3,1.5c8.8,4.2,22.9,15.7,22.9,15.7s-4.6,4.2-21.8-4.4s-30.2-18.5-50-17s-27.3,6.2-24.5,8s14.2-6.9,32.3-2.5
				c0,0-13.1-2-27.9,16s-39.9,37.1-64.5,45.3c-25.1,8.4-55.1,15.4-67,0c-7.5-9.8-8.8-27.2-8.4-40.9c-3.4,11.7-4.9,25.3-1.8,42.4
				c3.8,21,6.2,35.3,16.7,43.3C841.4,1067.9,926,1015,926,1015c14.1-11,7.9-17.5,25.3-22.2c17.3-4.7,31.7,5.6,39.9,10.8
				s20.7,8.5,20.7,8.5c1.1,9.2,10.1,26.1,9.5,38.6s-2.3,18.9-2.3,18.9s-12.6,4.4-21.1,8.2c-8.5,3.8-17.3,11.8-16.8,13.9
				c0.5,2.2,4.1,16.6,1.7,26.8s-9.1,19.5-9.1,19.5s-0.1-19.7,3.1-30c3.2-10.3,3.2-13.8,2.3-15s-3.6,4.9-7,18.7s-4,32.8-7.3,37
				c-3.2,4.2-11.5,6.2-20.4-2.3s-5.3-17.4,2.2-28c7.6-10.5,9.4-13.6,10.9-25.8c1.5-12.2,4.3-17.2,8.9-23.1s7.8-7.3,6-7.7
				s-7.8,1.3-16.5,8.4s-28.9,19.1-46.7,39l-0.1,1.2c-28.2,27.3-46.5,76.1-56,85.7s-10.2-0.2-23-4.1c-12.8-4-22.9-0.3-22.9-0.3
				s8.9,2.7,25.5,8s15.4,28.9,15.4,28.9s-10.7-6.5-29-9.7s-22,4.9-22,4.9s8.8-1.7,28.3,2.1c19.5,3.9,30,16.3,30,16.3s-29-6.3-51.8-1
				s-33.5,19-15.5,14.9c18-4.2,49.2-7,79-3.2c0,0,0.5-6.1-12.7-19.5c0,0,4-0.8-2.7-14.5c0,0,7.7-12.9,15.3-29.5
				c7.7-16.5,57.9-82.7,81.8-106.7c0,0,3.2,9.9-9.2,26.4s-33.6,54.4-10.6,70.5c0,0-18,30.8,5.6,33.9l1.5-7.8c0,0,7.5-5,22.6-10.2
				c-1.2-2.1-2.1-4-2.6-5.9c-4.6-3.8-2.9-8,0.1-13.3c0.7-3.7,1.9-8,3.6-13.6l1.9,0.6c-0.7,2.4-1.3,4.6-1.9,6.6
				c0.6-1.1,1.1-2.2,1.7-3.4c0,0,1.7-2.6,9.1-5.2c0.3-1.1,0.6-2.3,0.9-3.5l1.9,0.5c-0.2,0.8-0.4,1.6-0.6,2.3c3-0.9,6.8-1.8,11.5-2.6
				c1.7-0.3,3.3-0.5,4.9-0.8c0.4-1.6,0.8-3.3,1.2-5.1l1.9,0.5c-0.4,1.5-0.7,2.9-1,4.3c6.6-1,12.3-1.9,17.2-2.5
				c0.4-1.6,0.7-3.3,1.1-5.1l2,0.4c-0.3,1.5-0.6,3-0.9,4.4c10.2-1.3,17.4-1.8,24.8-1.7c0.1-1.1,0.2-2.2,0.3-3.4l2,0.2
				c-0.1,1.1-0.2,2.2-0.3,3.3c4.3,0.1,8.8,0.4,14.1,0.9c0-1.9,0.1-3.8,0.2-5.7l2,0.1c-0.1,2-0.2,3.9-0.2,5.8c0.7,0.1,1.3,0.1,2,0.2
				c9.2,0.9,15.8,0.3,22.1-0.3c0.1-2.3,0.1-4.4,0.1-6.4h2c0,1.9,0,4-0.1,6.2c2.7-0.2,5.3-0.4,8.1-0.5c-0.1-2-0.1-3.9-0.2-5.7l2-0.1
				c0.1,1.8,0.1,3.7,0.2,5.7c5.7,0,12.1,0.8,20.7,3c-0.1-1.4-0.2-2.9-0.2-4.4l2-0.1c0.1,1.8,0.2,3.5,0.3,5c1.9,0.5,3.9,1.1,6,1.8
				c4.8,1.5,9,2.9,12.7,4.2c-0.1-1.4-0.1-2.8-0.2-4.2l2-0.1c0.1,1.7,0.1,3.3,0.2,5c5.2,1.8,9.4,3.4,12.9,4.8c0-0.6,0-1.2-0.1-1.8h2
				c0,0.9,0,1.8,0.1,2.7c3.9,1.7,6.7,3.3,8.9,4.9c0.1-0.6,0.3-1.3,0.4-1.9l1-4.2l1.9,0.5l-1,4.2c-0.2,1-0.5,2-0.7,2.9
				c1.7,1.5,2.9,3.1,3.9,4.9c0.5,0.8,0.8,1.6,1.2,2.4c0.7-1.9,1.4-3.9,2.2-6.1l1.9,0.7c-1.1,3.2-2.1,6-3.1,8.5c0.9,4.2-0.4,7-2.2,10
				c-1.3,2.2-2.1,3.1-3.2,3c-1,2.2-1.6,3.3-1.6,3.4l-1.8-0.9c0,0,0.6-1.1,1.5-3.2c-0.5-0.3-1.1-0.7-1.9-1.2
				c-0.5-0.3-1.8-0.8-3.8-1.4c-0.5,0.8-1.1,1.5-1.8,2.1c1.3,0.3,2,0.4,2,0.4l1.3,6c0,0,4.9,2.3,9.4-3.5c0,0,69.3,105.7,157.6,121.2
				c88.3,15.5,126.8-47.5,143.3-62.7c16.5-15.1,37.8-41.5,24.7-51C1488.7,1207.3,1490.2,1207.8,1496,1193.3z"/>
			<path fill="#62666B" d="M1090.5,1183.1c0,1.6,0.1,3.1,0.1,4.4c5.8,0.7,11.4,1.4,16.7,2.1c0.9-1.3,1.7-2.5,2.3-3.7
				C1103.1,1184.9,1096.6,1183.9,1090.5,1183.1z"/>
			<path fill="#62666B" d="M1111.6,1186.3c-0.6,1.2-1.2,2.4-2.1,3.7c7,1,13.4,2,19.1,3c0.6-1.1,1-2.2,1.5-3.3
				C1124.3,1188.5,1118,1187.3,1111.6,1186.3z"/>
			<path fill="#62666B" d="M1142.5,1192.3c-3.1-0.7-6.7-1.5-10.5-2.3c-0.4,1.1-0.8,2.1-1.4,3.2c3.4,0.6,6.6,1.1,9.3,1.6
				C1140.9,1194,1141.8,1193.2,1142.5,1192.3z"/>
			<path fill="#62666B" d="M1078,1181.8c-0.1,1.6-0.3,3-0.4,4.3c3.7,0.4,7.4,0.7,11,1.2c0-1.3,0-2.7-0.1-4.4
				C1084.8,1182.4,1081.2,1182.1,1078,1181.8z"/>
			<path fill="#62666B" d="M1150.1,1194.2c-1.6-0.4-3.4-0.9-5.4-1.4c-0.7,0.8-1.5,1.6-2.4,2.5c2.2,0.4,4.1,0.8,5.6,1.1
				C1148.8,1195.8,1149.5,1195,1150.1,1194.2z"/>
			<path fill="#62666B" d="M1055.5,1180.8c0.2,1.5,0.4,2.7,0.6,3.7c6.5,0.4,13.1,0.9,19.5,1.5c0.1-1.2,0.2-2.7,0.4-4.2
				C1069.6,1181.3,1062.6,1180.9,1055.5,1180.8z"/>
			<path fill="#62666B" d="M987.2,969.9c0,0,1.6-2.2,4.4-5.3c2.7-3.2-0.7-5.9-0.7-5.9s-13,1.9-37.8,2.8c-3.2,0.1-6.5,0.2-9.7,0.3
				C970.4,961.3,987.2,969.9,987.2,969.9z"/>
			<path fill="#898989" d="M788.3,1256.2c-18,4.2-7.4-9.5,15.5-14.9s51.8,1,51.8,1s-10.5-12.4-30-16.3s-28.3-2.1-28.3-2.1
				s3.7-8.1,22-4.9s29,9.7,29,9.7s1.3-23.6-15.4-28.9s-25.5-8-25.5-8s10.1-3.7,22.9,0.3c12.8,4,13.5,13.8,23,4.1s27.8-58.5,56-85.7
				l0.1-1.2c17.7-19.9,37.9-32,46.7-39s14.8-8.8,16.5-8.4s-1.4,1.8-6,7.7s-7.3,10.9-8.9,23.1c-1.5,12.2-3.4,15.3-10.9,25.8
				c-7.6,10.5-11.2,19.4-2.2,28s17.2,6.5,20.4,2.3s3.9-23.2,7.3-37s6.1-19.9,7-18.7c0.9,1.2,0.9,4.7-2.3,15s-3.1,30-3.1,30
				s6.8-9.3,9.1-19.5s-1.3-24.6-1.7-26.8c-0.5-2.2,8.3-10.1,16.8-13.9s21.1-8.2,21.1-8.2s1.7-6.3,2.3-18.9s-8.4-29.4-9.5-38.6
				c0,0-12.5-3.3-20.7-8.5s-22.6-15.5-39.9-10.8c-17.3,4.7-11.2,11.2-25.3,22.2c0,0-84.6,52.9-129.7,75.2c0,0-70.6,37.2-118.8,89.5
				c-14,15.2-26,30.7-35.5,46c-2.1,33.1,1,51.8,25.5,82.6c34.2,43,58.6,49.2,76.9,61.7s28.3,38.2,61.9,52.9s40.2,12.4,84.1-14.4
				c43.8-26.8,86.2-36.6,109.7-29.1c4.9,1.6,8.9,3.7,12.1,5.7c-0.8-2.2-1.6-4.3-2.4-6.3l1.9-0.8c1.1,2.8,2.3,5.7,3.4,8.9
				c8.3,5.6,10.2,7.9,9.2-12.9c-13.4-28.2-64.7-81.8-156.9-121.1C837.5,1249.2,806.3,1252,788.3,1256.2z"/>
			<path fill="#898989" d="M1015.3,1394.3c-0.1-0.2-0.2-0.3-0.3-0.5c-2.3-3.6-6.4-6.6-12.8-8.3c13.4,23.2,17.3,48.7,11.8,78.9
				c3.2-2.6,6.3-5.5,9.2-8.5C1024.8,1432.8,1020.7,1411.4,1015.3,1394.3z"/>
			<path fill="#898989" d="M999.5,1384.9c-4.1-0.8-9-1.1-14.9-0.8c14.7,23.3,20.4,56.2,15.9,89.8c3.7-2.3,7.4-4.8,11-7.6
				C1017.7,1434.9,1013.8,1408.6,999.5,1384.9z"/>
			<path fill="#898989" d="M982.4,1384.2c-7.8,0.6-17.2,2.3-28.3,5.5c16.9,32,24.5,69.9,19.3,95.7c10.2-3.1,18.4-6.5,23.1-9
				c0.7-0.4,1.3-0.7,2-1.1C1003.2,1441.1,997.5,1407.5,982.4,1384.2z"/>
			<path fill="#898989" d="M899.4,1412c3.7,25.3,15.6,61.2,28.7,81.7c7.4-0.3,14.9-1.3,22.2-2.6c-6.1-17.2-20.5-59.3-27.6-90.4
				C913.6,1404.3,905.9,1408.1,899.4,1412z"/>
			<path fill="#898989" d="M1023.5,1404.6c-0.9,0-1.5,0.1-1.5,0.1S1022.6,1405,1023.5,1404.6z"/>
			<path fill="#898989" d="M871.3,1445.2c7.7,16.6,16.4,32.8,22.4,43.6c4.6,2,9.8,3.3,15.3,4.1c-9.9-12.6-19.2-33-29.5-64.7
				C875,1433.7,872.4,1439.4,871.3,1445.2z"/>
			<path fill="#898989" d="M1022,1404.7c0,0,0,0-2.8-4.4c4.2,15.5,7.2,33.7,6.2,53.4c0.5-0.5,1-1.1,1.4-1.6
				C1029,1441.6,1027.7,1426.9,1022,1404.7z"/>
			<path fill="#898989" d="M881,1426.4c10.8,33.1,20.6,54.4,30.9,66.8c4.5,0.5,9.1,0.6,13.8,0.5c-12.9-20.7-24.5-55.6-28.2-80.6
				C890.6,1417.4,885.1,1421.9,881,1426.4z"/>
			<path fill="#898989" d="M874.6,1469.7c3.2,8.1,8.8,13.8,16,17.6c-5.5-10-13-24-19.8-38.4C870.4,1455.6,871.8,1462.5,874.6,1469.7
				z"/>
			<path fill="#898989" d="M952.1,1390.2c-7.2,2.1-15.1,4.8-23.8,8.1c-1.3,0.5-2.5,1-3.8,1.5c7.1,31.3,21.7,73.8,27.7,90.8
				c6.7-1.3,13.1-2.9,18.9-4.6C976.8,1460.6,969.2,1422.4,952.1,1390.2z"/>
			<path fill="#898989" d="M943.4,961.7C943.4,961.7,943.3,961.7,943.4,961.7C943.3,961.7,943.4,961.7,943.4,961.7L943.4,961.7z"/>
			<path fill="#898989" d="M789.8,1045.3c11.9,15.4,41.9,8.4,67,0c24.6-8.2,49.8-27.3,64.5-45.3s27.9-16,27.9-16
				c-18.1-4.4-29.5,4.2-32.3,2.5s4.7-6.5,24.5-8s32.9,8.4,50,17s21.8,4.4,21.8,4.4s-14.1-11.4-22.9-15.7c-8.8-4.2-8.8-8.5,4.3-1.5
				s30.2,17.6,39.7,21.5c6.1,2.5,8.8,1.2,10.6-1.5c-10.1-8-30.7-22.7-57.4-32.9c0,0-16.8-8.6-43.8-8.2l0,0
				c-27,0.4-43.3,14.2-73.6,32.8c-30.2,18.6-66.1,34.9-74.5,31s-3.8-20.1,8-25.6s9.5-1.2,4.5,1.6s-9.2,8.1-6.8,10.5
				s4.5-0.5,15.8-4.8s25.8-12.8,25.8-12.8c0.3-5.6-1.4-9.8-7.6-13.8c-4.1,0.4-8.5,0.7-13.3,0.8c-22.1,0.6-32.6,1.9-37.7,15.2
				c-0.9,2.5-1.8,5-2.6,7.7C781,1018.1,782.2,1035.6,789.8,1045.3z"/>
			<path fill="#898989" d="M1155.9,1196.2c0.7,0.5,1.3,0.9,1.9,1.2c1.3-2.9,3.5-8,6.2-15.4c-0.3-0.7-0.7-1.5-1.2-2.4
				c-1-1.8-2.2-3.4-3.9-4.9c-2.3,9.7-3.8,15.8-6.8,20C1154.1,1195.3,1155.4,1195.8,1155.9,1196.2z"/>
			<path fill="#898989" d="M1162.9,1195c1.7-3,3.1-5.8,2.2-10c-2.3,6.1-4.1,10.4-5.4,13C1160.7,1198.1,1161.6,1197.2,1162.9,1195z"
				/>
			<path fill="#898989" d="M1144.7,1192.8c2,0.5,3.8,0.9,5.4,1.4c3.1-4,4.6-10,7.1-20.8c-2.2-1.6-5-3.2-8.9-4.9
				c0.1,2.3,0.3,4.3,0.4,6.1C1149.4,1182,1149.8,1186.8,1144.7,1192.8z"/>
			<path fill="#898989" d="M1109.5,1185.9c2.7-5.6,2.3-11.3,1.6-21.9c-0.2-2.5-0.4-5.3-0.5-8.4c-8.5-2.2-15-3-20.7-3
				c0.3,10.2,0.5,22.5,0.6,30.6C1096.6,1183.9,1103.1,1184.9,1109.5,1185.9z"/>
			<path fill="#898989" d="M1036.7,1180.6c5.6,0,11.2,0,16.8,0.1c-0.9-6.3-2-16.4-1.8-27.5c-5.3-0.5-9.8-0.8-14.1-0.9
				C1036.3,1164.9,1036,1174,1036.7,1180.6z"/>
			<path fill="#898989" d="M1055.5,1180.8c7.1,0.2,14.1,0.5,20.5,0.9c0.7-7.8,1.5-19.1,1.8-28.5c-6.3,0.6-12.9,1.2-22.1,0.3
				c-0.7-0.1-1.3-0.1-2-0.2C1053.4,1164.5,1054.6,1174.6,1055.5,1180.8z"/>
			<path fill="#898989" d="M1007.9,1181.8c7.9-0.7,17.1-1,26.8-1.2c-0.7-6.7-0.4-15.6,0.8-28.4c-7.4-0.1-14.6,0.4-24.8,1.7
				c-0.2,1.2-0.5,2.3-0.7,3.4C1007.8,1167.4,1006.3,1174.4,1007.9,1181.8z"/>
			<path fill="#898989" d="M988.9,1184.7c1.4-0.4,2.8-0.7,4.3-1c3.4-0.7,7.7-1.3,12.6-1.8c-1.6-7.7-0.1-14.8,2.2-25.1
				c0.2-0.9,0.4-1.7,0.6-2.6c-4.9,0.7-10.5,1.5-17.2,2.5c-0.2,0.7-0.3,1.4-0.5,2.1C988.3,1169.7,986.4,1177.2,988.9,1184.7z"/>
			<path fill="#898989" d="M958.9,1191.2c3.4,1.3,7.4,0.7,12.2-0.8c-4.4-7.5-4.7-12.2-0.5-29.3c-7.4,2.6-9.1,5.2-9.1,5.2
				c-0.5,1.2-1.1,2.3-1.7,3.4C957,1180.7,956.7,1185.9,958.9,1191.2z"/>
			<path fill="#898989" d="M973.1,1189.8c4.1-1.3,8.8-3.1,13.9-4.6c-2.6-7.9-0.8-15.6,2-26.9c0.1-0.4,0.2-0.8,0.3-1.3
				c-1.6,0.3-3.2,0.5-4.9,0.8c-4.7,0.8-8.5,1.6-11.5,2.6C968.3,1178.4,968.7,1182.7,973.1,1189.8z"/>
			<path fill="#898989" d="M1111.6,1186.3c6.4,1.1,12.7,2.2,18.4,3.4c2.6-7.1,2.1-14.9,1.6-23.6c-0.1-1.3-0.2-2.6-0.2-4
				c-3.8-1.3-8-2.7-12.7-4.2c-2.1-0.7-4.1-1.3-6-1.8c0.2,2.8,0.3,5.4,0.5,7.8C1113.8,1174.3,1114.2,1180.4,1111.6,1186.3z"/>
			<path fill="#898989" d="M1088.5,1182.9c-0.1-8.1-0.4-20.3-0.6-30.3c-2.8,0.1-5.5,0.3-8.1,0.5c-0.3,9.5-1.1,20.9-1.8,28.8
				C1081.2,1182.1,1084.8,1182.4,1088.5,1182.9z"/>
			<path fill="#898989" d="M1132,1190.1c3.8,0.8,7.4,1.5,10.5,2.3c5.2-5.7,4.9-10,4.2-17.5c-0.2-2.1-0.4-4.5-0.5-7.2
				c-3.5-1.4-7.7-3-12.9-4.8c0.1,1.1,0.1,2.1,0.2,3.1C1134.2,1174.8,1134.7,1182.7,1132,1190.1z"/>
			<path fill="#898989" d="M956.3,1176.3c-3,5.3-4.6,9.5-0.1,13.3C955.2,1185.8,955.2,1181.9,956.3,1176.3z"/>
			<path fill="#898989" d="M1108.8,1012c-0.8,8.9-2.1,10.4-1.1,13s3.2,6.7,2.2,10.2s-4.9-11.2-9-16.7s-4.9,33.4-4.2,49.6
				s7.5,42.4,7.5,42.4s-3.3,1.7-7.7,0c-4.4-1.7-3.4-5.3-4.1-11.9s-4.3-10.9-3.8-19s1.5-11.4,1.5-11.4l-3-0.8c0,0,2.8-14.8,3.2-21.9
				c0.5-7.1,0.9-23.7-3.2-31.8c0,0-10.9,3-30.5-3.8c0,0-21.1,3.6-35.8,3.8c0,0,9.3,54.5,8.9,65.5s4,27.3,3.9,32.2
				c-0.1,4.8-3,3.5-9.2,3.9c-6.3,0.4-2.8-5.4-2-16.6c0,0-8.8-2.8-3.2-25.4c0,0-14.9,0.1-36,18.6c0,0,6.1,10.4,3.8,25.8
				s-3.6,26.3,11.5,29.3s45.5-1.6,53.5-7.9c0,0,3.7-15.7,3.6-32.2s-3.3-25.8-4.8-33.6c-1.5-7.8-0.2-24.1-0.2-24.1s-5.1,1.2-8.2-1.6
				s-1.1-3.5,1.2-14.9s4.6-24,8-18.2s17.6,112.1,17.5,119s10.7,7.7,11.3,5.6c0.7-2,2.4-8.8,1.7-26.7s-8-32.4-11.8-40.8
				s-9.2-24-9.2-24l1-14.6c0,0,8.8,5.2,10.2,7.8s-6.4,4.8-6.4,4.8s-0.4,2,3.8,15.7c4.1,13.7,16.1,32.6,16.2,48.2s-0.2,28.6-0.2,28.6
				s4.5,7.6,28.2,6.5s24.9-4.6,26.2-9.9s-5.7-32.5-5.7-32.5s4.9,5.1,7.6,19.9s1.8,21.1-2.4,27.2c-4.1,6.1-4,8.5,5.4,14.6
				s15.4,1.2,17.1-14.6c1.8-15.8-5.6-33.1-12.8-41s-27.5-40.8-32.7-53.5s-5.1-20.9,3.6-2.2s19.6,32.4,31.4,50.8s16.5,25.9,15.8,48.1
				c0,0,28.1,48.3,72.8,85.9s89.1,59.9,131.9,53.1s56-33.7,57.6-41.5s-2.6-9.3-44.5-27.6s-54.8-73.5-56.2-81.7
				c-1.3-6.8-14.1-8.5-28-7.5c-8.6,5-17.4,10.6-26.7,11.4c-13.9,1.1-40.5-26.1-69.6-51.5c-28.3-24.8-72.6-62-93.7-84.1
				C1109.6,1008,1109,1009.4,1108.8,1012z"/>
			<path fill="#898989" d="M1339.1,1125.5c-0.7,3-1,6.7-0.9,10.9c5.2-11.5,7-19.4,8.7-26.5c0.3-1.4,0.6-2.7,1-4.1
				c1.1-4.5,3.1-7.2,5.9-8c1.4-0.4,3-0.4,4.7,0.2c-0.1-0.5-0.2-0.9-0.3-1.4c-4.4-6.7-4.5-8.5-5.9-10.2
				C1350.4,1083.9,1343.1,1108.6,1339.1,1125.5z"/>
			<path fill="#898989" d="M1499.8,1157.9c-3,1.6-8.8,4.1-17.6,6.1c1.8,2.5,3.2,5,4.2,7c6.3-0.9,13.5-3.2,18.5-6.5
				C1503.8,1162.6,1502.2,1159.9,1499.8,1157.9z"/>
			<path fill="#898989" d="M1510.3,1158.4c1.1-3,0.1-6.4-4-10.1l-1.9,4C1506.1,1153.5,1508.7,1155.6,1510.3,1158.4z"/>
			<path fill="#898989" d="M1503.5,1154.2l-1.1,2.2c0,0-0.3,0.2-0.8,0.5c2.2,2,3.8,4.5,4.8,6.5c1.1-0.9,2-1.8,2.7-2.8
				C1508,1157.7,1505.3,1155.4,1503.5,1154.2z"/>
			<path fill="#898989" d="M1385.3,1160.1c2.8-6.7,6.6-11.2,10-13.8c-9.5-6.8-17.3-14.3-22.4-20.7c-2.3,0.5-5.4,1.9-7.7,5.7
				c-2.2,3.6-3.8,9-5.9,16.6c-2.2,7.8-4.8,17.4-9.4,29.5c5.3,9.5,12.5,18.5,22,26c1.1,0.9,2.3,1.7,3.4,2.5
				c1.9-9.1,3.2-16.3,4.3-22.3C1381.6,1172.7,1382.8,1166.2,1385.3,1160.1z"/>
			<path fill="#898989" d="M1433.1,1164.6c-13.1-3.4-25.6-9.8-36.1-17.2c-3,2.2-6.9,6.5-9.8,13.4c-2.5,5.8-3.6,12.3-5.6,23
				c-1.1,6.1-2.5,13.6-4.5,23.1c9.1,6.1,18.9,10.2,28,13c4.5-6.3,15.9-22.8,22.3-34.5C1432.2,1176.9,1433.1,1169.3,1433.1,1164.6z"
				/>
			<path fill="#898989" d="M1463.9,1170.6c-0.5-1.5-1.2-2.8-1.9-3.7c-3.1,0.2-6.4,0.3-10,0.3c-5.7,0-11.3-0.7-16.8-2
				c0,5-1.1,12.6-5.9,21.3c-6.1,11.1-17.2,27.2-22.1,34.2c11,3.2,20.8,4.4,26.9,4.9c5.8-6.1,18.7-20.5,26.5-34.7
				C1465.7,1181.2,1465.2,1174.5,1463.9,1170.6z"/>
			<path fill="#898989" d="M1363.5,1130.1c2.4-3.8,5.5-5.6,8.1-6.3c-0.6-0.7-1.1-1.5-1.6-2.2c-2.5-3.8-4.5-7.1-6.2-10.2
				c-1.6-0.2-3,0-4.2,0.6c-3.4,1.8-4.9,7.1-6.4,12.1c-0.2,0.7-0.4,1.4-0.6,2.1c-2.5,8.2-4.6,14.4-11.9,28.3
				c1.7,6.6,4.3,13.6,7.8,20.4c4.2-11.2,6.7-20.3,8.8-27.7C1359.5,1139.5,1361.1,1133.9,1363.5,1130.1z"/>
			<path fill="#898989" d="M1351.4,1123.6c1.6-5.5,3.2-11.1,7.3-13.3c1.2-0.7,2.6-1,4-1c-1.6-3.2-2.8-6.1-3.6-9
				c-1.8-0.9-3.4-1.1-4.8-0.7c-2.1,0.6-3.6,2.9-4.5,6.6c-0.3,1.3-0.7,2.7-1,4.1c-1.9,7.9-4,16.8-10.5,30.3c0.3,3.4,0.8,7.1,1.7,10.9
				c6.4-12.4,8.4-18.3,10.7-25.9C1351,1125,1351.2,1124.3,1351.4,1123.6z"/>
			<path fill="#898989" d="M1464.3,1166.7L1464.3,1166.7c2.3,3.9,5,12.2-2.1,25.2c-7.4,13.5-19.4,27.2-25.6,33.9
				c2.4,0.1,3.8,0.1,3.8,0.1s18.7-14.9,25.7-29.7c6.9-14.6,3.6-22.9,18.3-24.8c-1-2-2.4-4.4-4.2-6.8
				C1475.5,1165.4,1470.3,1166.2,1464.3,1166.7z"/>
			<path fill="#62666B" d="M1403.2,1222.7l0.8,0.6l-0.7-0.8l0.7,0.8l0.7,0.8c0.1-0.1,1-1.3,2.5-3.4c-0.7-0.2-1.3-0.4-2-0.6
				C1404,1221.6,1403.4,1222.5,1403.2,1222.7z"/>
			<path fill="#62666B" d="M1435.2,1165.1c-0.7-0.2-1.3-0.3-2-0.5c0,4.7-0.9,12.3-5.7,20.9c-6.5,11.7-17.8,28.2-22.3,34.5
				c0.7,0.2,1.3,0.4,2,0.6c4.9-7,15.9-23,22.1-34.2C1434,1177.8,1435.1,1170.1,1435.2,1165.1z"/>
			<path fill="#62666B" d="M1431,1228.6l1.4,1.4c0.1-0.1,1.6-1.6,4.1-4.3c-0.8,0-1.6-0.1-2.6-0.2
				C1432.2,1227.5,1431.1,1228.6,1431,1228.6z"/>
			<path fill="#62666B" d="M1464.3,1166.7L1464.3,1166.7c-0.8,0-1.6,0-2.3,0.1c0.7,1,1.4,2.2,1.9,3.7c1.3,3.9,1.8,10.7-3.4,20.3
				c-7.7,14.2-20.7,28.6-26.5,34.7c1,0.1,1.8,0.1,2.6,0.2c6.3-6.7,18.3-20.4,25.6-33.9C1469.3,1178.8,1466.6,1170.5,1464.3,1166.7z"
				/>
			<path fill="#62666B" d="M1484.3,1171.3c1.5,3,2.3,5.1,2.3,5.2l1.9-0.7c-0.1-0.2-0.7-2.1-2.1-4.8c-0.5,0.1-0.9,0.1-1.4,0.2
				C1484.7,1171.2,1484.5,1171.3,1484.3,1171.3z"/>
			<path fill="#62666B" d="M1480.1,1164.5c1.8,2.4,3.2,4.8,4.2,6.8c0.2,0,0.5-0.1,0.7-0.1c0.5,0,0.9-0.1,1.4-0.2c-1-2-2.4-4.5-4.2-7
				C1481.5,1164.2,1480.8,1164.4,1480.1,1164.5z"/>
			<path fill="#62666B" d="M1506.1,1167.4l1.9-0.6c0-0.1-0.5-1.6-1.5-3.5c-0.5,0.4-1.1,0.8-1.6,1.2
				C1505.7,1166.2,1506.1,1167.4,1506.1,1167.4z"/>
			<path fill="#62666B" d="M1501.7,1156.9c-0.4,0.3-1,0.6-1.9,1c2.3,2,4,4.6,5,6.7c0.6-0.4,1.1-0.8,1.6-1.2
				C1505.4,1161.4,1503.9,1158.9,1501.7,1156.9z"/>
			<path fill="#62666B" d="M1509.7,1162.8l2-0.2c-0.2-1.5-0.7-2.9-1.4-4.1c-0.3,0.7-0.7,1.5-1.2,2.2
				C1509.4,1161.3,1509.6,1162,1509.7,1162.8z"/>
			<path fill="#62666B" d="M1504.4,1152.3l-0.9,1.8c1.8,1.2,4.5,3.5,5.6,6.4c0.5-0.7,0.9-1.4,1.2-2.2
				C1508.7,1155.6,1506.1,1153.5,1504.4,1152.3z"/>
			<path fill="#62666B" d="M1374.3,1210.8l2,0.4c0.3-1.4,0.6-2.8,0.9-4.2c-0.6-0.4-1.2-0.8-1.8-1.2
				C1375,1207.4,1374.6,1209.1,1374.3,1210.8z"/>
			<path fill="#62666B" d="M1387.2,1160.9c2.9-6.9,6.9-11.2,9.8-13.4c-0.6-0.4-1.1-0.8-1.7-1.2c-3.3,2.6-7.1,7.2-10,13.8
				c-2.6,6-3.8,12.6-5.7,23.4c-1.1,5.9-2.4,13.1-4.3,22.3c0.6,0.4,1.2,0.8,1.8,1.2c2-9.6,3.3-17,4.5-23.1
				C1383.5,1173.2,1384.7,1166.7,1387.2,1160.9z"/>
			<path fill="#62666B" d="M1347.1,1179l1.9,0.7c0.3-0.8,0.6-1.6,0.9-2.4c-0.4-0.8-0.9-1.6-1.3-2.3
				C1348.1,1176.3,1347.6,1177.6,1347.1,1179z"/>
			<path fill="#62666B" d="M1365.2,1131.2c2.3-3.7,5.4-5.1,7.7-5.7c-0.5-0.6-0.9-1.2-1.3-1.7c-2.6,0.8-5.7,2.5-8.1,6.3
				s-3.9,9.4-6.1,17.2c-2.1,7.4-4.6,16.4-8.8,27.7c0.4,0.8,0.8,1.6,1.3,2.3c4.6-12.1,7.3-21.7,9.4-29.5
				C1361.4,1140.2,1363,1134.7,1365.2,1131.2z"/>
			<path fill="#62666B" d="M1337.1,1157.2l1.8,0.9c0.7-1.3,1.3-2.4,1.9-3.6c-0.3-1-0.5-2-0.7-3
				C1339.2,1153.3,1338.2,1155.2,1337.1,1157.2z"/>
			<path fill="#62666B" d="M1353.3,1124.2c1.5-5.1,3-10.3,6.4-12.1c1.2-0.6,2.6-0.8,4.2-0.6c-0.4-0.7-0.7-1.4-1.1-2.1
				c-1.5,0-2.8,0.3-4,1c-4.1,2.2-5.7,7.9-7.3,13.3c-0.2,0.7-0.4,1.4-0.6,2.1c-2.3,7.6-4.3,13.5-10.7,25.9c0.2,1,0.5,2,0.7,3
				c7.3-13.9,9.4-20.1,11.9-28.3C1352.9,1125.6,1353.1,1124.9,1353.3,1124.2z"/>
			<path fill="#62666B" d="M1333.8,1145.5l1.8,0.9c1-2,2-3.9,2.9-5.7c-0.1-1.5-0.2-2.9-0.2-4.3
				C1336.9,1139.2,1335.5,1142.2,1333.8,1145.5z"/>
			<path fill="#62666B" d="M1349.8,1106.3c0.9-3.7,2.5-6,4.5-6.6c1.3-0.4,3-0.2,4.8,0.7c-0.2-0.8-0.4-1.6-0.6-2.4
				c-1.7-0.6-3.3-0.7-4.7-0.2c-2.8,0.9-4.8,3.6-5.9,8c-0.3,1.3-0.7,2.7-1,4.1c-1.7,7.1-3.6,15.1-8.7,26.5c0,1.4,0.1,2.8,0.2,4.3
				c6.5-13.5,8.6-22.4,10.5-30.3C1349.2,1109,1349.5,1107.6,1349.8,1106.3z"/>
			<path fill="#62666B" d="M982.7,1381.1l-1.6,1.1c0.4,0.7,0.9,1.3,1.3,2c0.8-0.1,1.5-0.1,2.3-0.2
				C984,1383.1,983.4,1382.1,982.7,1381.1z"/>
			<path fill="#62666B" d="M998.4,1475.2c-0.3,1.8-0.6,3.7-0.9,5.5c0.8-0.4,1.5-0.7,2.2-1.1c0.3-1.9,0.6-3.8,0.9-5.8
				C999.8,1474.3,999.1,1474.8,998.4,1475.2z"/>
			<path fill="#62666B" d="M984.7,1384.1c-0.7,0-1.5,0.1-2.3,0.2c15.1,23.3,20.9,56.9,16,91c0.7-0.4,1.5-0.9,2.2-1.3
				C1005,1440.3,999.3,1407.3,984.7,1384.1z"/>
			<path fill="#62666B" d="M1011.6,1466.3c-0.5,2.6-1.1,5.3-1.7,7.9c0.8-0.5,1.6-1,2.4-1.6c0.6-2.8,1.2-5.6,1.7-8.3
				C1013.2,1465,1012.4,1465.7,1011.6,1466.3z"/>
			<path fill="#62666B" d="M999.6,1381.1l-1.7,1.1c0.6,0.9,1.1,1.8,1.6,2.7c0.9,0.2,1.8,0.4,2.7,0.6
				C1001.4,1384,1000.5,1382.6,999.6,1381.1z"/>
			<path fill="#62666B" d="M1002.2,1385.5c-0.9-0.2-1.7-0.4-2.7-0.6c14.3,23.8,18.2,50,12,81.4c0.8-0.6,1.6-1.3,2.4-1.9
				C1019.5,1434.2,1015.6,1408.7,1002.2,1385.5z"/>
			<path fill="#62666B" d="M1023.2,1455.9c-0.1,2.2-0.3,4.4-0.6,6.6c0.9-1.5,1.8-3.1,2.5-4.8c0.1-1.3,0.2-2.7,0.3-4
				C1024.7,1454.4,1023.9,1455.2,1023.2,1455.9z"/>
			<path fill="#62666B" d="M1019.2,1400.3c-1.3-4.7-2.7-9.1-4.2-13.3c-0.9-0.6-1.8-1.2-2.8-1.8c1.1,2.9,2.1,5.9,3.1,9.1
				C1017,1396.9,1018.2,1398.8,1019.2,1400.3z"/>
			<path fill="#898989" d="M1011.7,1378.1l-1.9,0.8c0.8,2,1.6,4.1,2.4,6.3c1,0.6,1.9,1.2,2.8,1.8
				C1013.9,1383.9,1012.8,1380.9,1011.7,1378.1z"/>
			<path fill="#62666B" d="M1023.2,1455.9c0.7-0.7,1.4-1.5,2.1-2.3c1-19.7-1.9-37.9-6.2-53.4c-0.9-1.5-2.2-3.4-3.8-6
				C1020.7,1411.4,1024.8,1432.8,1023.2,1455.9z"/>
			<path fill="#62666B" d="M971.2,1486c-0.4,1.8-0.8,3.5-1.4,5.1c0.8-0.2,1.5-0.5,2.3-0.7c0.5-1.6,0.9-3.3,1.2-5.1
				C972.6,1485.6,971.9,1485.8,971.2,1486z"/>
			<path fill="#62666B" d="M950.6,1383.4l-1.7,1c1.1,1.9,2.2,3.8,3.2,5.8c0.7-0.2,1.3-0.4,2-0.6
				C953,1387.6,951.8,1385.5,950.6,1383.4z"/>
			<path fill="#62666B" d="M954.1,1389.7c-0.7,0.2-1.3,0.4-2,0.6c17.1,32.1,24.7,70.3,19.1,95.8c0.7-0.2,1.5-0.4,2.2-0.6
				C978.6,1459.6,971,1421.7,954.1,1389.7z"/>
			<path fill="#62666B" d="M923.2,1393.5l-2,0.4c0.4,2.1,0.9,4.4,1.4,6.6c0.6-0.3,1.2-0.5,1.9-0.8
				C924.1,1397.7,923.6,1395.6,923.2,1393.5z"/>
			<path fill="#62666B" d="M950.3,1491c0.6,1.8,1.2,3.3,1.6,4.5c0.7-0.1,1.3-0.3,2-0.4c-0.4-1.2-1-2.7-1.6-4.5
				C951.6,1490.7,950.9,1490.9,950.3,1491z"/>
			<path fill="#62666B" d="M922.7,1400.6c7.1,31.2,21.5,73.2,27.6,90.4c0.7-0.1,1.3-0.2,2-0.4c-6-17-20.6-59.6-27.7-90.8
				C923.9,1400.1,923.3,1400.3,922.7,1400.6z"/>
			<path fill="#62666B" d="M898.7,1406.4l-2,0.2c0.2,2.1,0.5,4.2,0.8,6.5c0.6-0.4,1.2-0.8,1.9-1.1
				C899.2,1410,898.9,1408.2,898.7,1406.4z"/>
			<path fill="#62666B" d="M925.8,1493.7c1,1.6,2,3.2,3.1,4.6c0.8,0,1.6-0.1,2.4-0.1c-1-1.4-2.1-2.9-3.1-4.6
				C927.3,1493.7,926.6,1493.7,925.8,1493.7z"/>
			<path fill="#62666B" d="M897.6,1413.1c3.8,25.1,15.4,59.9,28.2,80.6c0.8,0,1.5,0,2.3-0.1c-13.1-20.5-25-56.3-28.7-81.7
				C898.8,1412.3,898.2,1412.7,897.6,1413.1z"/>
			<path fill="#62666B" d="M879,1419.9l-1.9,0.6c0.8,2.6,1.6,5.2,2.5,7.6c0.5-0.6,1-1.2,1.5-1.8
				C880.3,1424.3,879.7,1422.2,879,1419.9z"/>
			<path fill="#62666B" d="M912,1493.2c-1-0.1-2-0.2-2.9-0.4c1.6,2,3.1,3.7,4.7,5.3c1,0.1,2.1,0.1,3.1,0.2
				C915.2,1496.9,913.6,1495.2,912,1493.2z"/>
			<path fill="#62666B" d="M879.5,1428.2c10.4,31.6,19.6,52.1,29.5,64.7c1,0.1,2,0.3,2.9,0.4c-10.4-12.4-20.1-33.7-30.9-66.8
				C880.5,1427,880,1427.6,879.5,1428.2z"/>
			<path fill="#62666B" d="M867.2,1436l-1.8,0.8c1.8,4,3.6,8.1,5.5,12.1c0.1-1.2,0.2-2.5,0.5-3.7
				C869.9,1442.1,868.5,1439,867.2,1436z"/>
			<path fill="#62666B" d="M890.6,1487.3c1.8,3.2,3.4,6.1,4.7,8.4l0,0c0.9,0.2,1.7,0.3,2.6,0.5c-1.1-2-2.6-4.5-4.2-7.4
				C892.7,1488.3,891.6,1487.8,890.6,1487.3z"/>
			<path fill="#62666B" d="M870.9,1448.9c6.8,14.4,14.2,28.3,19.8,38.4c1,0.5,2,1,3.1,1.5c-6-10.7-14.7-27-22.4-43.6
				C871.1,1446.4,870.9,1447.7,870.9,1448.9z"/>
			<path fill="#62666B" d="M971.1,1190.4c0.2,0.4,0.5,0.8,0.7,1.1c0.7-0.2,1.3-0.4,2-0.5c-0.3-0.4-0.5-0.8-0.8-1.2
				C972.4,1190,971.8,1190.3,971.1,1190.4z"/>
			<path fill="#62666B" d="M973.5,1158.1l-1.9-0.5c-0.3,1.2-0.6,2.4-0.9,3.5c0.7-0.2,1.4-0.5,2.2-0.7
				C973.1,1159.7,973.3,1158.9,973.5,1158.1z"/>
			<path fill="#62666B" d="M971.1,1190.4c0.6-0.2,1.3-0.4,1.9-0.6c-4.4-7.2-4.7-11.4-0.2-29.4c-0.8,0.2-1.6,0.5-2.2,0.7
				C966.4,1178.2,966.7,1183,971.1,1190.4z"/>
			<path fill="#62666B" d="M987,1185.3c0.3,0.9,0.6,1.8,1.1,2.7c0.7-0.1,1.4-0.2,2.1-0.4c-0.5-1-0.8-1.9-1.2-2.9
				C988.3,1184.9,987.6,1185.1,987,1185.3z"/>
			<path fill="#62666B" d="M992.5,1152.4l-1.9-0.5c-0.4,1.8-0.8,3.5-1.2,5.1c0.7-0.1,1.4-0.2,2.1-0.3
				C991.8,1155.4,992.1,1154,992.5,1152.4z"/>
			<path fill="#62666B" d="M987,1185.3c0.6-0.2,1.3-0.4,1.9-0.5c-2.5-7.5-0.7-15,2-25.9c0.2-0.7,0.3-1.4,0.5-2.1
				c-0.7,0.1-1.4,0.2-2.1,0.3c-0.1,0.4-0.2,0.9-0.3,1.3C986.2,1169.6,984.4,1177.3,987,1185.3z"/>
			<path fill="#62666B" d="M1011.6,1149.6l-2-0.4c-0.4,1.8-0.7,3.5-1.1,5.1c0.7-0.1,1.4-0.2,2.1-0.3
				C1011,1152.6,1011.3,1151.1,1011.6,1149.6z"/>
			<path fill="#62666B" d="M1005.8,1182c0.2,1.1,0.5,2.2,0.9,3.3c0.7-0.1,1.4-0.1,2.1-0.2c-0.4-1.1-0.7-2.2-0.9-3.3
				C1007.2,1181.8,1006.5,1181.9,1005.8,1182z"/>
			<path fill="#62666B" d="M1005.8,1182c0.7-0.1,1.3-0.1,2-0.2c-1.6-7.4-0.1-14.4,2.1-24.5c0.2-1.1,0.5-2.2,0.7-3.4
				c-0.7,0.1-1.4,0.2-2.1,0.3c-0.2,0.9-0.4,1.8-0.6,2.6C1005.8,1167.2,1004.2,1174.3,1005.8,1182z"/>
			<path fill="#62666B" d="M1034.7,1180.6c0.1,1.1,0.3,2.2,0.4,3.2c0.7,0,1.4,0,2,0c-0.2-1-0.3-2.1-0.4-3.3
				C1036,1180.6,1035.3,1180.6,1034.7,1180.6z"/>
			<path fill="#62666B" d="M1037.8,1149l-2-0.2c-0.1,1.2-0.2,2.3-0.3,3.4c0.7,0,1.3,0,2,0C1037.6,1151.2,1037.7,1150.1,1037.8,1149z
				"/>
			<path fill="#62666B" d="M1034.7,1180.6c0.7,0,1.3,0,2,0c-0.7-6.6-0.4-15.7,0.8-28.3c-0.7,0-1.3,0-2,0
				C1034.3,1165,1034,1173.9,1034.7,1180.6z"/>
			<path fill="#62666B" d="M1053.8,1147.6l-2-0.1c-0.1,1.9-0.2,3.9-0.2,5.7c0.7,0.1,1.3,0.1,2,0.2
				C1053.6,1151.5,1053.7,1149.5,1053.8,1147.6z"/>
			<path fill="#62666B" d="M1053.5,1180.7c0.2,1.4,0.4,2.6,0.6,3.6c0.7,0,1.4,0.1,2,0.1c-0.2-1-0.4-2.2-0.6-3.7
				C1054.8,1180.7,1054.1,1180.7,1053.5,1180.7z"/>
			<path fill="#62666B" d="M1053.5,1180.7c0.7,0,1.4,0,2,0c-0.9-6.2-2.1-16.3-1.9-27.4c-0.7-0.1-1.3-0.1-2-0.2
				C1051.4,1164.3,1052.5,1174.4,1053.5,1180.7z"/>
			<path fill="#62666B" d="M1079.8,1146.8h-2c0,2,0,4.1-0.1,6.4c0.7-0.1,1.3-0.1,2-0.2C1079.8,1150.8,1079.8,1148.7,1079.8,1146.8z"
				/>
			<path fill="#62666B" d="M1076.4,1181.7c-0.1,0-0.3,0-0.4,0c-0.1,1.6-0.3,3-0.4,4.2c0.7,0.1,1.3,0.1,2,0.2
				c0.1-1.2,0.2-2.7,0.4-4.3C1077.4,1181.8,1076.9,1181.7,1076.4,1181.7z"/>
			<path fill="#62666B" d="M1076.4,1181.7c0.5,0,1,0.1,1.6,0.1c0.7-7.9,1.5-19.3,1.8-28.8c-0.7,0.1-1.3,0.1-2,0.2
				c-0.3,9.4-1.1,20.7-1.8,28.5C1076.1,1181.7,1076.3,1181.7,1076.4,1181.7z"/>
			<path fill="#62666B" d="M1088.5,1182.9c0,1.6,0.1,3.1,0.1,4.4c0.7,0.1,1.3,0.2,2,0.2c0-1.3,0-2.7-0.1-4.4
				C1089.8,1183,1089.2,1183,1088.5,1182.9z"/>
			<path fill="#62666B" d="M1089.9,1152.5c-0.1-2-0.1-3.9-0.2-5.7l-2,0.1c0.1,1.8,0.1,3.7,0.2,5.7
				C1088.5,1152.5,1089.2,1152.5,1089.9,1152.5z"/>
			<path fill="#62666B" d="M1090.5,1183.1c-0.1-8.1-0.4-20.4-0.6-30.6c-0.7,0-1.3,0-2,0c0.3,10.1,0.5,22.2,0.6,30.3
				C1089.2,1183,1089.8,1183,1090.5,1183.1z"/>
			<path fill="#62666B" d="M1109.5,1185.9c-0.6,1.2-1.3,2.5-2.3,3.7c0.8,0.1,1.5,0.2,2.2,0.3c0.8-1.2,1.5-2.5,2.1-3.7
				C1110.9,1186.1,1110.2,1186,1109.5,1185.9z"/>
			<path fill="#62666B" d="M1112.3,1151l-2,0.1c0.1,1.5,0.1,3,0.2,4.4c0.7,0.2,1.3,0.4,2,0.5
				C1112.5,1154.5,1112.4,1152.8,1112.3,1151z"/>
			<path fill="#62666B" d="M1109.5,1185.9c0.7,0.1,1.4,0.2,2,0.3c2.7-5.9,2.2-12,1.5-22.4c-0.2-2.4-0.3-4.9-0.5-7.8
				c-0.7-0.2-1.4-0.4-2-0.5c0.2,3.1,0.4,5.9,0.5,8.4C1111.8,1174.6,1112.2,1180.4,1109.5,1185.9z"/>
			<path fill="#62666B" d="M1130,1189.7c-0.4,1.1-0.9,2.2-1.5,3.3c0.7,0.1,1.4,0.2,2.1,0.4c0.5-1.1,1-2.1,1.4-3.2
				C1131.3,1189.9,1130.7,1189.8,1130,1189.7z"/>
			<path fill="#62666B" d="M1133.2,1157.9l-2,0.1c0,1.4,0.1,2.8,0.2,4.2c0.7,0.2,1.4,0.5,2,0.7
				C1133.3,1161.2,1133.2,1159.6,1133.2,1157.9z"/>
			<path fill="#62666B" d="M1130,1189.7c0.7,0.1,1.3,0.3,2,0.4c2.7-7.4,2.2-15.3,1.6-24.1c-0.1-1-0.1-2.1-0.2-3.1
				c-0.7-0.2-1.3-0.5-2-0.7c0.1,1.3,0.2,2.7,0.2,4C1132.2,1174.8,1132.6,1182.5,1130,1189.7z"/>
			<path fill="#62666B" d="M1144.7,1192.8c-0.7-0.2-1.4-0.3-2.2-0.5c-0.8,0.8-1.6,1.7-2.6,2.6c0.9,0.2,1.7,0.3,2.4,0.5
				C1143.3,1194.5,1144,1193.7,1144.7,1192.8z"/>
			<path fill="#62666B" d="M1148.2,1165.8h-2c0,0.6,0,1.2,0.1,1.8c0.7,0.3,1.4,0.6,2,0.9C1148.3,1167.6,1148.2,1166.7,1148.2,1165.8
				z"/>
			<path fill="#62666B" d="M1142.5,1192.3c0.8,0.2,1.5,0.3,2.2,0.5c5.1-6,4.7-10.8,4-18.2c-0.2-1.8-0.3-3.9-0.4-6.1
				c-0.6-0.3-1.3-0.6-2-0.9c0.1,2.7,0.3,5.1,0.5,7.2C1147.4,1182.3,1147.8,1186.6,1142.5,1192.3z"/>
			<path fill="#62666B" d="M1159.6,1171.9l1-4.2l-1.9-0.5l-1,4.2c-0.2,0.7-0.3,1.3-0.4,1.9c0.6,0.5,1.2,0.9,1.7,1.4
				C1159.2,1173.8,1159.4,1172.9,1159.6,1171.9z"/>
			<path fill="#62666B" d="M1150.1,1194.2c-0.6,0.8-1.4,1.6-2.2,2.2c1,0.2,1.8,0.4,2.4,0.5c0.7-0.7,1.2-1.4,1.8-2.1
				C1151.6,1194.6,1150.9,1194.4,1150.1,1194.2z"/>
			<path fill="#62666B" d="M1152.2,1194.8c2.9-4.2,4.5-10.3,6.8-20c-0.5-0.5-1.1-0.9-1.7-1.4c-2.5,10.8-4,16.9-7.1,20.8
				C1150.9,1194.4,1151.6,1194.6,1152.2,1194.8z"/>
			<path fill="#62666B" d="M1156.3,1200.5l1.8,0.9c0.1-0.1,0.6-1.2,1.6-3.4c-0.5,0-1.1-0.3-1.9-0.7
				C1156.8,1199.5,1156.3,1200.5,1156.3,1200.5z"/>
			<path fill="#62666B" d="M1168.1,1176.5l-1.9-0.7c-0.8,2.2-1.5,4.2-2.2,6.1c0.5,1.1,0.8,2.1,1,3
				C1166,1182.5,1167,1179.7,1168.1,1176.5z"/>
			<path fill="#62666B" d="M1159.7,1198.1c1.2-2.7,3-6.9,5.4-13c-0.2-0.9-0.5-1.9-1-3c-2.7,7.4-4.9,12.4-6.2,15.4
				C1158.5,1197.8,1159.1,1198.1,1159.7,1198.1z"/>
			<path fill="#62666B" d="M956.6,1189.9c-0.1-0.1-0.2-0.2-0.3-0.3c0.6,1.9,1.5,3.9,2.6,5.9c0.6-0.2,1.3-0.4,1.9-0.7
				c-0.7-1.3-1.4-2.5-1.9-3.7C958.1,1190.9,957.3,1190.5,956.6,1189.9z"/>
			<path fill="#62666B" d="M961.8,1163.3l-1.9-0.6c-1.6,5.5-2.8,9.9-3.6,13.6c1.1-2,2.4-4.1,3.6-6.4
				C960.5,1167.9,961.1,1165.7,961.8,1163.3z"/>
			<path fill="#62666B" d="M958.9,1191.2c-2.2-5.3-1.9-10.5,1-21.4c-1.2,2.3-2.5,4.5-3.6,6.4c-1.1,5.7-1.2,9.6-0.1,13.3
				c0.1,0.1,0.2,0.2,0.3,0.3C957.3,1190.5,958.1,1190.9,958.9,1191.2z"/>
			<path fill="#898989" d="M1070.2,961.7c0,0,7,3.9,5.2,15.2c-1.8,11.2-3,19.9-14.8,28.3c0,0,5.8,3.4,17.5-4s14.8-14.3,16.5-14.8
				s-4.2,12.9-15.9,19.6c0,0,19.4-4.4,28.7-14.3c4.3-4.6,6.3-11.4,7.3-17.3c-2.7-7.4-7.6-15.2-16.3-20.4c-1.5-0.3-3.1-0.6-4.9-0.9
				C1076.8,950.4,1071.8,957.9,1070.2,961.7z"/>
		</g>
		<path fill="#898989" d="M1054.4,1049.6l-1.7,1.1c0,0-1.6,12.2,2,26.1s4.8,30,4.4,42.9s-3.6,18.8,3,21.5c6.6,2.8,5.1-38.8,2.4-54
			C1061.8,1071.9,1054.4,1049.6,1054.4,1049.6z"/>
		<path fill="#7A7A7A" d="M1140.3,1146.5c5.7-9.9,4.8-20.3,3-29.1c-1.8-8.8-13.1-23.1-16.5-30s-6.7-13.5-6.7-13.5
			s-11.7-5.9-23.9-7.9s-24.2-2-24.7,1.3c0,0-0.1,0.4,8.8,0.8s30.2,4.8,38.7,7.6c0,0,2.6,8.5,10.9,22.4s10.9,19,11.3,27.4
			C1141.5,1133.9,1140.3,1146.5,1140.3,1146.5z"/>
		<path fill="#7A7A7A" d="M987,1140.3c1.9-14.5,2.1-20.4,1.5-29.8c-0.6-9.5-4.2-18.8-4.2-18.8s9.6-7.9,20-12.5s25.8-10.3,35.6-10.3
			s8.1-3.1,1.8-2.9s-25.3,2.9-40.1,11.1s-18.9,13.4-20.4,14.6s4.9,13.2,5.1,22.2s-1.7,15-1.3,19.9
			C985.4,1138.7,987,1140.3,987,1140.3z"/>
		<g>
			<g>
				<path fill="#FFFFFF" d="M1011.5,1019.3c-6.4-6-16.5-2-21.7,3.7c-5.2,5.7-9.9,15.4-5.7,30.5s17,14.9,17,14.9l-0.3-8.9
					c-4,0.1-5.1-0.2-6.5-3.3c-1.4-3.1-6.7-4.5-4-5.6c2.7-1.2,4.6,1.4,6,3.6c1.4,2.1,3,1.7,3,1.7c0.3-1.4,2.1-2.4,2.1-2.4l-0.1-2.6
					c0,0-4.4,0-7-3.5s-1.1-8.3-1.1-8.3c-1.3-5.3-1.5-7.5,0.5-7.1s4.4,2.3,4.4,2.3c3.9-2.1,8.5-0.3,8.5-0.3s1.9-1.6,3.4-2.6
					s3-0.6,2.8,2.5s-1.8,4.2-1.8,4.2s3,4.5,0.8,8.4s-6.3,4.4-6.3,4.4v2.6c0,0,3.2,1.8,4.2,4.6c1,2.8,1.5,7.9,1.5,7.9
					c5.2,1.2,8.2-3.7,9.7-9.3c-0.6-5.2-1.8-15.6-4.4-30.2C1015.1,1023.7,1013.5,1021.2,1011.5,1019.3z"/>
				<path fill="#999DA2" d="M1021.8,1043.7c-0.7-3.9-2.3-11.2-5.4-17.3c2.6,14.6,3.9,25,4.4,30.2
					C1022.2,1051.7,1022.3,1046.3,1021.8,1043.7z"/>
			</g>
			<path fill="#D8D8D8" d="M1010,1003.4c-0.1,3.7,0.9,4.4,6.8,4.6c2.7,0.1,4.7-0.4,6-1c1.9-2.3,0.9-5.6-2-7.9
				c-3.5-2.8-9.1-2.1-11.7,0.4C1010.1,1000.2,1010.1,1000.9,1010,1003.4z"/>
			<path fill="#9B9D9F" d="M1016.3,1009.6c3.3-0.2,5.4-1.2,6.5-2.6c-1.4,0.6-3.3,1.1-6,1c-5.9-0.2-7-0.9-6.8-4.6
				c0.1-2.5,0.1-3.2-0.8-4c-0.8,0.8-1.4,1.8-1.4,2.9C1007.5,1007,1009.7,1010.1,1016.3,1009.6z"/>
			<g>
				<g>
					<path fill="#D8D8D8" d="M1052,1015.6c-0.4,3.7-2.3,20.1-2.7,25.1c-0.3,5-0.3,4.5,2.2,4c2.1-0.4,14.6-6.6,19.9-6.1
						c-3.9-8.6-12.8-18.1-19.5-25.9C1052.2,1013.4,1052.2,1014.2,1052,1015.6z"/>
					<path fill="#FFFFFF" d="M1076.5,1106.9c-1-16.5-5.2-25.8-10.5-40.9c-3.4-9.7-4-16-4-19.2c-2.6,0.9-5.2,1.8-7.6,2.9
						c-0.9,9.6,1.4,25.2,4.1,34.8c2.9,10.5,4,30.9,3.8,43.5s-3.6,14.9-3.9,17.5s-0.2,11.9,0.8,26.4l14-2.5
						c-3.3-11.1-4.5-21.3-1.9-27.5S1077.4,1123.4,1076.5,1106.9z"/>
					<path fill="#C8C8C8" d="M1067.8,1170.7h-3l0.1-6.7l-1.9-0.2c-1.5-0.2-2.6-1.4-2.6-2.8l-0.1-5.5c0-0.9,0.4-1.7,1-2.3
						c0.7-0.6,1.5-0.8,2.4-0.7l1.8,0.3l0.5-3.1l-1-0.1c-1.6-0.2-2.7-1.6-2.5-3.1l0.7-8.5c0.1-0.8,0.4-1.5,1.1-2
						c0.6-0.5,1.4-0.7,2.2-0.6l0.5,0.1l3-9.3l-2.1-1c-1-0.5-1.6-1.5-1.6-2.6l0.1-11.7c0-1.6,1.3-2.9,2.8-2.9v-15.8h-1.7
						c-1.2,0-2.2-0.7-2.7-1.8l-4.3-10.6c-0.3-0.8-0.3-1.7,0.1-2.4s1.1-1.3,1.9-1.5l2-0.5c-1.9-4.6-3.4-10.7-4-13.2h-1.1
						c-1.6,0-2.9-1.2-2.9-2.8c-0.1-2-0.1-6.4,0.3-13.9l3,0.2c-0.4,7.3-0.4,11.6-0.3,13.5h1.1c1.4,0,2.5,0.9,2.8,2.2
						c0.6,2.4,2.1,8.4,3.9,12.9c0.3,0.8,0.3,1.7-0.1,2.4c-0.4,0.8-1.1,1.3-1.9,1.5l-2,0.5l4.3,10.5h1.7c1.6,0,2.9,1.3,2.9,2.9v16
						c0,1.6-1.3,2.9-2.8,2.9l-0.1,11.6l2.1,1c1.3,0.6,1.9,2.2,1.5,3.5l-3.1,9.4c-0.4,1.3-1.7,2.1-3.1,2h-0.5l-0.7,8.4l1.1,0.1
						c0.8,0.1,1.5,0.5,2,1.2c0.5,0.6,0.7,1.4,0.5,2.2l-0.5,3.2c-0.1,0.8-0.5,1.4-1.2,1.9c-0.6,0.5-1.4,0.6-2.2,0.5l-1.7-0.3l0.1,5.3
						l1.9,0.2c1.5,0.2,2.6,1.4,2.6,2.9L1067.8,1170.7z M1069.9,1126L1069.9,1126L1069.9,1126z"/>
					<path fill="#999DA2" d="M1062.1,1044c0,0,4.6-1.4,8.6-3.8c0.4-0.2,0.8-0.5,1.1-0.7c-0.1-0.3-0.3-0.6-0.4-0.9
						c-5.3-0.4-17.8,5.7-19.9,6.1c-2.5,0.5-2.6,1-2.2-4c0.3-5,2.3-21.4,2.7-25.1c0.1-1.4,0.2-2.3,0-3c-0.7-0.8-1.3-1.6-1.9-2.3
						c-0.1,0.1-0.1,0.2-0.2,0.3c-0.9,2-1.9,11.8-2.9,23.5c-0.9,11.7-0.9,15.7,1.5,15.1s6.2-2.2,6.2-2.2c-0.1,0.8-0.2,1.6-0.3,2.5
						c2.3-1,5-2,7.6-2.9C1062,1044.9,1062.1,1044,1062.1,1044z"/>
					<path fill="#FEFEFE" d="M1063.1,1022.6c-9.1-11.9-11.8-13.7-12.9-12.5c1,1.1,1.6,1.8,1.8,2.5c6.7,7.8,15.5,17.3,19.5,25.9
						c0.4,0,0.8,0.1,1.1,0.2C1073.8,1036.6,1071.2,1033.2,1063.1,1022.6z"/>
					<path fill="#999DA2" d="M1050,1010.3c0.6,0.8,1.3,1.5,1.9,2.3c-0.2-0.7-0.8-1.4-1.8-2.5
						C1050.1,1010.2,1050.1,1010.2,1050,1010.3z"/>
					<path fill="#999DA2" d="M1072.5,1038.8c-0.3-0.1-0.7-0.2-1.1-0.2c0.1,0.3,0.3,0.6,0.4,0.9
						C1072.1,1039.3,1072.3,1039,1072.5,1038.8z"/>
				</g>
				<g>
					<path fill="#D8D8D8" d="M1074.2,1181.5c0,0-0.3-10.2-0.8-10.8c-0.5-0.6-2.6-0.2-7.1,0c-4.4,0.2-6.5,0.1-7.2,1.1l1.5,10.2
						L1074.2,1181.5z"/>
					<path fill="#999DA2" d="M1060.6,1182l-1.5-10.2l-2.8-1.5c-0.4,0.6-0.7,1.3-0.6,2l0.5,6.6c0.3,3.7,3.4,6.4,7.1,6.2l9.3-0.6
						c1.1-0.1,2.1-0.6,2.8-1.5l-1.3-1.5L1060.6,1182z"/>
					<path fill="#FEFEFE" d="M1076.5,1169.6v10.8c0,1-0.4,1.8-1,2.6l-1.3-1.5c0,0-0.3-10.2-0.8-10.8c-0.5-0.6-2.6-0.2-7.1,0
						c-4.4,0.2-6.6,0.2-7.2,1.1l0,0l-2.8-1.5c0-0.1,0.1-0.1,0.1-0.1c0.5-0.6,1.1-0.9,1.9-1l15.2-2
						C1075.1,1166.9,1076.5,1168.1,1076.5,1169.6z"/>
				</g>
			</g>
			<g>
				<path fill="#FFFFFF" d="M1015.8,1013.4c0.1-0.3,0.2-0.5,0.2-0.7c1.5-4.2,3-3.4,2.6-1.3c-0.5,2.2-2,2.8-1.3,5
					c0.6,2.2,4.5,7.9,4.5,7.9s1.2-2.5,2.1-3s0.8,1.2,0,3.8c-0.8,2.6-0.4,3,0.9,6.3c1.3,3.4,1.6,6.4,1.6,6.4c1.7-3.3,6.2-4.6,5.3-3.2
					c-0.9,1.5-1.9,1-3.8,5.5c-1.8,4.5-0.4,11.8-0.4,11.8s6.7-6.1,6.8-4.5c0.2,1.6-1.3,2-4.8,5.8s-3.5,13.1-3.5,13.1s1.9-4.5,5.1-4.5
					s-0.8,2.8-3.8,7.8s-3,11.1-3,11.1c11.2-5.7,5.6-0.6,3,1.2c-2.6,1.8-5.3,4.4-3.4,7.9c1.9,3.5,4.5-0.9,9.3,0.5
					c1.4,0.4,2.2,1,2.6,1.6c0.2-0.1,0.3-0.2,0.4-0.4c1.2-1.3-2.1-4-3.2-7.4s3.1-9.6,4.2-17s2.2-21.2-2.9-30.6
					c-3.3-6.2-8.2-15.2-11.5-23.1c-3.3-7.9-1.9-9.5-4.4-11.2c-1.2-0.9-2.7-0.9-3.9-0.4C1014.6,1006.3,1014.5,1017.4,1015.8,1013.4z"
					/>
				<path fill="#FFFFFF" d="M1031.2,1112.8c4.7-3.5,6.1-3,6.6,0c0.5-0.4,0.9-0.7,0.9-0.7s-2.2-10.3-5.1-17l-5.4-0.5
					C1030.3,1100.5,1031.2,1112.8,1031.2,1112.8z"/>
				<path fill="#B4B7BD" d="M1033.6,1095.2l2.3,0.2c0,0,1.1-1.8-0.1-3.4c-1.3,0.9-3.3,0.9-3.3,0.9
					C1032.9,1093.6,1033.2,1094.4,1033.6,1095.2z"/>
				<path fill="#B4B7BD" d="M1012.2,1005.3c-0.1,3.3,1.5,7.7,6.3,19.3s8,17.5,6.5,30.1s-4.4,23.6-4.2,31.6s5.9,8.1,5.9,8.1
					s1.1,2.2,1.6,9.1s0.4,13.1,0.4,13.1c2.2,1,7.1-2.3,9.1-3.7c-0.5-3-1.9-3.6-6.6,0c0,0-0.9-12.3-3-18.1l5.4,0.5
					c-0.4-0.8-0.7-1.6-1.1-2.3c0,0,2,0,3.3-0.9c-0.5-0.6-1.3-1.2-2.6-1.6c-4.8-1.4-7.4,3-9.3-0.5c-1.9-3.5,0.8-6.1,3.4-7.9
					s8.2-6.9-3-1.2c0,0,0-6.1,3-11.1s6.9-7.8,3.8-7.8c-3.2,0-5.1,4.5-5.1,4.5s0-9.2,3.5-13.1s5-4.2,4.8-5.8
					c-0.2-1.6-6.8,4.5-6.8,4.5s-1.4-7.3,0.4-11.8s2.8-4,3.8-5.5c0.9-1.5-3.6-0.1-5.3,3.2c0,0-0.2-3-1.6-6.4
					c-1.3-3.4-1.8-3.7-0.9-6.3c0.8-2.6,0.8-4.3,0-3.8s-2.1,3-2.1,3s-3.9-5.7-4.5-7.9s0.9-2.8,1.3-5c0.4-2.1-1.1-2.9-2.6,1.3
					c-0.1,0.2-0.2,0.5-0.2,0.7c-1.3,4-1.2-7.1-1.1-11.6C1013.3,1002.4,1012.3,1003.6,1012.2,1005.3z"/>
			</g>
			<g>
				<path fill="#D8D8D8" d="M1095.3,996.6c-3.1-1.9-7.4-1-9.9,1.3c1.6,0,2,1,1.9,2.4c-0.2,2-0.5,4.2,1.8,5.5c1,0.6,2.4,1.2,3.5,1.7
					C1097.7,1004.7,1099.9,999.4,1095.3,996.6z"/>
				<path fill="#9B9D9F" d="M1087.3,1000.3c0.1-1.4-0.3-2.4-1.9-2.4c-1.3,1.2-2.1,2.7-2,4.4c0.2,5,4.6,7.6,8.9,5.3
					c0.1-0.1,0.2-0.1,0.3-0.2c-1.2-0.5-2.5-1.1-3.5-1.7C1086.8,1004.5,1087.1,1002.3,1087.3,1000.3z"/>
			</g>
			<g>
				<path fill="#FFFFFF" d="M1091.4,1010.1c1.6,3.9,1.8,6.2,1.8,6.2s0.9-3.5,2.6-4.3s0.7,0.9,0,2.9s-2.4,7.1,0.2,11.5
					c0,0,0.6-3,2.4-3.2s1.7,1.1,0,3.9c-1.7,2.8-1.9,8.7-1,11.5c0,0,0.9-2.8,2.3-2.7s-0.3,2-1.7,5.7c-1.4,3.7-0.7,10-0.7,10
					s1.3-1.9,2.4-1.3c1.2,0.6-1.9,3-2.8,6.2c-1,3.3-0.5,10.3-0.5,10.3s1.4-2.2,2.5-1.9s-1,2.6-2.4,6.8c-1.4,4.2-0.7,11-0.7,11
					s1.5-2.4,3.1-2.6s-0.2,1.8-1.5,4.2c-1.3,2.5-1.3,2.5-1.3,2.5s0.2,2.8,1.3,3.8c0,0,1.5-1.2,2,0.7s-2.6,0.8,2.2,3.6
					c0,0,4.2,0,3.2-3.9s-4.5-6.4-3.5-24.9s4.4-38.6,1.4-48.4c-3-9.8-8.7-16-8.7-16c-0.4-0.3-0.9-0.6-1.4-0.8
					C1089.9,1003.8,1090.1,1006.9,1091.4,1010.1z"/>
				<path fill="#FFFFFF" d="M1101.2,1096.9c-1.1,1.9,2.2,11.1,2.2,11.1s5.9-2.7,7.9,0.2c0-0.1,0.1-0.1,0.1-0.2
					c0.5-1.3-4.1-7.1-7.9-11.2C1102.5,1096.4,1101.6,1096.3,1101.2,1096.9z"/>
				<path fill="#B4B7BD" d="M1108.8,1099.8l-2.3-2.2c0,0,0,0-4.9-2.8c0.6,0.6,1.3,1.3,2,2
					C1105.9,1097.6,1108.8,1099.8,1108.8,1099.8z"/>
				<path fill="#B4B7BD" d="M1087.3,1004.5c0.1,5,5.2,9.9,5.2,19.7c0,9.9,3.2,22,1.5,33.9s-3.8,35.2,3,37.2c0,0,3.3,13.4,5.7,16.2
					c2.4,2.7,7.8-1.8,8.7-3.5c-2-2.8-7.9-0.2-7.9-0.2s-3.3-9.1-2.2-11.1c0.4-0.6,1.3-0.5,2.4-0.1c-0.7-0.7-1.4-1.4-2-2
					c-4.9-2.8-1.7-1.7-2.2-3.6s-2-0.7-2-0.7c-1.1-1-1.3-3.8-1.3-3.8s0,0,1.3-2.5s3.1-4.4,1.5-4.2c-1.6,0.2-3.1,2.6-3.1,2.6
					s-0.8-6.8,0.7-11c1.4-4.2,3.5-6.6,2.4-6.8s-2.5,1.9-2.5,1.9s-0.5-7,0.5-10.3s4-5.6,2.8-6.2s-2.4,1.3-2.4,1.3s-0.7-6.3,0.7-10
					c1.4-3.7,3-5.6,1.7-5.7s-2.3,2.7-2.3,2.7c-0.9-2.8-0.7-8.7,1-11.5s1.8-4.2,0-3.9s-2.4,3.2-2.4,3.2c-2.6-4.4-0.9-9.5-0.2-11.5
					c0.7-2,1.7-3.8,0-2.9c-1.7,0.8-2.6,4.3-2.6,4.3s-0.2-2.4-1.8-6.2c-1.4-3.2-1.5-6.3,1.2-9.4
					C1090.2,999.7,1087.3,1000.4,1087.3,1004.5z"/>
			</g>
		</g>
		<g>
			<path fill="#999DA2" d="M1064.7,1032.5c-0.8-2.8-2.6-5-5.2-4.7c-2.8,0.3-5.7,0.3-5.4,5.8c3.4-2.5,4.8-2.8,4.8-2.8l3.2,4.7
				C1064.4,1035.1,1065.4,1034.9,1064.7,1032.5z"/>
			<path fill="#616366" d="M1054,1033.7c0,0.1,0,0.2,0,0.3c0,0.1,0.1,0.6,0.1,1.3c3-2.4,4.1-2.7,4.1-2.7l1.8,3.3
				c0.3-0.1,0.6-0.2,0.9-0.2c0.4-0.1,0.8-0.1,1.1-0.2l-3.2-4.7C1058.9,1030.8,1057.4,1031.2,1054,1033.7z"/>
			<path fill="#898989" d="M1060.1,1035.9l-1.8-3.3c0,0-1.1,0.3-4.1,2.7c0.1,1.3,0.3,3,0.3,3S1057.3,1036.7,1060.1,1035.9z"/>
		</g>
	</g>
	<path fill="#62666B" d="M1088.1,1063.2c0,0-0.5,1.5,0.6,2.1s1.8,2.1,1.2,4.5s2.4,2.2,2.4,2.2l0.9-8.2L1088.1,1063.2z"/>
	<path fill="#62666B" d="M1019.1,1069.5c1,0.6,0.8,2.1,0.1,3.5l2.6,1.4l1.4-8.2L1019.1,1069.5z"/>
</g>
</svg>
