<?xml version="1.0" encoding="utf-8"?>
<!-- Generator: Adobe Illustrator 21.0.2, SVG Export Plug-In . SVG Version: 6.00 Build 0)  -->
<svg version="1.1" id="_x31_9_x5F_Top_x5F_SportsJersey"
	 xmlns="http://www.w3.org/2000/svg" xmlns:xlink="http://www.w3.org/1999/xlink" x="0px" y="0px" viewBox="0 0 2000 2000"
	 enable-background="new 0 0 2000 2000" xml:space="preserve">
<g>
	<path fill="#CE2828" d="M1214.3,1097.2c-1.6-9-13.9-14.3-20.8-16.1c-1.1-0.3-2.3-0.4-3.6-0.4c-7.2-5.9-21.7-17.4-32.1-26.1
		c-0.3-0.3-0.5-0.6-0.8-0.9c-0.7-0.6-1.5-1.2-2.1-1.8c-14-11.9-33.7-26.3-47.3-42c-9-10.3-16.3-17.9-20.2-21.9
		c-0.2,0.9-0.3,1.9-0.4,3.1c4,3.8,7.3,7.1,9.6,10.1c5.1,6.6,18.7,19.7,28.1,29.4c9.4,9.7,25.7,28.3,32.1,33.9
		c6.3,5.6,8.7,7.8,12.9,11.3c2.8,2.3,7.1,5.8,9.8,7.9c0,0-0.1,0-0.1,0.1c-2.7-2.1-7-5.6-9.7-7.9c-4.2-3.6-6.6-5.7-12.9-11.3
		c-6.3-5.6-22.7-24.3-32.1-33.9c-9.4-9.7-22.9-22.9-28.1-29.4c-2.3-2.9-5.5-6.2-9.7-9.9c0-0.1,0-0.1,0-0.2l0,0
		c0.1-1.2,0.2-2.2,0.4-3.1c-1.9-1.9-3.1-3.1-3.3-3.2c-3.5-3.5-7.6-6.5-10-8.2c-0.3-2.7-2-4.3-3.6-6.6c-2.4-3.6,2.2-1.1-3.1-4.1
		c-5.3-2.9-8.5,2.2-8.5,2.2c0.9,5.6,1.5,4.4,3.7,7.6c0.8,1.2,1.2,2.8,1.4,4.8c2.1-2.9,2.1-7.6,4.1-7.6c2.5,0-1.4-4.4-1.4-2.2v0.1
		c0-2.2,4,2.2,1.4,2.3c-2,0-2.1,4.7-4.1,7.6c0.4,3.7-4.9,3.9-5.1,10.2s-1.8,9.9-3.8,12.9v0.1c-1,1.5-2.1,3-3.2,4.7
		c-3.3,4.9-7.7,11.7-7.7,11.7c-0.6,1.1-1.1,1.9-1.6,2.5l0,0c0.5-0.6,1-1.4,1.5-2.4c0,0-7.1,0.1-13.4-1.9s-7.1-2.8-15.2-5.9
		c-8.1-3.2-9.1-4.7-12-8.4c-3-3.7-7.1-8-10.6-12c-1.8-2.1-3.7-5.7-5.3-8.9c-1.5-1.2-2.9-2.1-3.6-2c-0.8,0-1.4,0.2-1.8,0.5
		c0.4-0.4,1-0.6,1.9-0.6c0.8,0,2.1,0.8,3.6,2c-1.6-3.1-5.9-6.5-5.9-6.5c3.4-3,0.2-3.8,0.2-3.8c-3.1-0.9-1-1.3-4.6,1.5
		c-2.2,1.6-5.1-0.4-5.9,2.1c-1.5,0.7-3,1.5-4.7,2.3c-0.1,0-0.1,0.1-0.2,0.1c-7.1,3.7-15.7,8.9-22.2,15c-1.5,1.5-3.4,3.1-5.3,4.7
		c2.3-1.1,4.2-1.9,6.1-2.5l0.1-0.1c1.3-0.4,2.5-0.7,3.6-1c5.3-4,10.3-7.7,14.5-10.7c-4.3,3-9.3,6.8-14.5,10.8c0.1,0,0.3,0,0.4-0.1
		c-16.8,13-36.1,29-41.7,33.4c-11.1,8.7-29.7,22.7-38.8,30.2c-8.5,7.1-16.8,15.4-37.5,32.4c-0.1,0-0.1,0-0.2,0
		c20.4-16.9,28.8-25.1,37.2-32.1c9-7.5,27.6-21.5,38.8-30.2c5.6-4.4,25-20.5,41.8-33.6c-1.2,0.2-2.5,0.6-3.9,1.1
		c-0.8,0.5-1.5,1.1-2.2,1.6l0,0l0,0c0.7-0.5,1.4-1.1,2.2-1.6c-1.8,0.6-3.8,1.5-6.1,2.5c-13.8,11.5-38.7,28.8-66.1,47.6l0,0
		c-4.3,3-8.8,6-13.2,9c-28.7,19.4-38.2,24.5-47.4,34.6c-1.3,0.1-2.5,0.2-3.5,0.4c-0.1,0.1-0.1,0.1-0.2,0.2c-2,0.3-3.5,0.8-4.3,1.4
		c-3.3,2.6-15,13.9-14.9,15.7c0,1.9,6.9-2.8,6.9-2.8l8-2.4c16.5-3.3,25.9,1,43.3,12.7c17.4,11.7,26.7,40.4,26.7,40.4
		s-28.3,35.7-39.9,54.7c0,0,7.8,5.3,20.9,8.7c13.1,3.5,23.9-0.2,36.2-23c3.9-7.2,5.7-13.8,6.4-19.6c6.9-16.7,27.7-57.1,36.6-68.8
		c11-14.4,18.5-21.3,18.6-21.4c-0.2,2.4-4.4,47.6-8.8,63.8c-4.5,16.7-12.7,31.2-12.4,39.1s7.4,5.5,7.4,5.5l1.6-7
		c6.4-2.6,12.9-5,19.6-7l0,0c48.3-15.2,101.2-17.9,124.4-16.7c26.4,1.4,36.5,3.8,50.4,6.7c1.6,0.3,2.9,0.7,3.9,1.1
		c-0.1-1-0.2-2.2-0.4-3.7c-16.5-7.3-46.4-7.1-69.4-6.9c-26.9,0.2-62.9,5.5-84.2,10.8c21.3-5.3,57.5-10.7,84.6-10.9
		c22.9-0.1,52.5-0.4,69.2,6.9l0,0c1.8,0.9,3.4,1.8,4.9,2.8c0,0,0,0.1,0,0.2c-1.5-1-3.2-1.9-5-2.7c0.1,1.4,0.2,2.7,0.4,3.7
		c3.3,1.2,4.9,2.7,5.8,3.8c0.1,0.2,0.1,0.4,0.2,0.6c2,8.5,12.1,18.9,12.1,18.9s-7.9-13.2,0-12.7s0,8.7,0,8.7l3.3-4.7
		c4-1.2-2.1-9.1-2.5-12.1c-0.6-3.5,6.7-4.5,0.1-8.2c0.4-6.2,1.5-14.2,4.5-22.7c-0.1,0-0.1,0.1-0.2,0.1c1.6-4.4,3.6-9,6.4-13.7
		c14.5-24,31-37.5,31-37.5s-2.3,6.6,4.4,2.6l11.9,7.8c-6.7,4-8.9-3.1-8.9-3.1l0,0C1207.4,1099.9,1215.9,1106.3,1214.3,1097.2z
		 M968.3,1062.3L968.3,1062.3c0,0,3.8-5.6,9.3-10.2l0,0l0,0C972.1,1056.7,968.3,1062.3,968.3,1062.3z M969.4,1037.2
		c-0.4,10.5-0.3,18.7-0.9,23.3C969.1,1056,968.9,1047.8,969.4,1037.2z M965.7,1002.9c-0.4-0.9-1-1.9-1.6-2.9
		C964.8,1001,965.3,1001.9,965.7,1002.9z M961.3,996.4c-0.7,0.6-1.3,1.2-2,1.7l-0.1-0.1C959.9,997.4,960.6,996.9,961.3,996.4
		c-1.5-2.2-0.5-2.8,6.7-5.9c2.3-2,4.1-3.5,5.1-4.4c0,0.1,0.1,0.1,0.1,0.2c-1.1,0.9-2.8,2.4-5,4.2c1.6-0.7,3.7-1.6,6-2.6
		c0,0,0,0,0,0.1c-2.4,1.1-4.4,1.9-6.1,2.7l0,0l0,0C960.9,993.7,960,994.3,961.3,996.4z M851.7,1097.4c20-22.1,45.9-49.5,58.8-61.5
		c13.4-12.5,33-29.2,41.8-36.9c1.1-1,2.3-1.9,3.6-2.9c-0.9-0.4-1.9-0.7-3-0.8l0,0c1.2,0.1,2.2,0.4,3.1,0.8c0.1,0,0.1,0.1,0.2,0.1
		c-1.1,0.9-2.2,1.8-3.2,2.6c-9,7.7-28.4,24.4-41.8,36.9c-12.9,12.1-39.1,39.6-59.1,61.8C851.9,1097.5,851.8,1097.4,851.7,1097.4z
		 M980.1,989.9C980.1,989.9,980,989.9,980.1,989.9c-0.2,0-0.2-0.1-0.3-0.3c0,0,0.1,0,0.1-0.1C980,989.6,980,989.8,980.1,989.9z
		 M971,981c-2.8,2.2-9.5,7.4-18,14.1h-0.1C961.5,988.4,968.2,983.1,971,981L971,981z M874.3,1111.8c-0.1-0.1-0.1-0.1-0.2-0.2
		c16.2-18.7,34.2-44,43.8-54.3c10.2-10.9,24.5-26.6,30.9-34.5c5.2-6.4,9.6-12.2,14.6-17.6c-0.8-1.6-1.9-3.3-3.3-5.2
		c-0.2-0.3-0.3-0.5-0.5-0.7c0.2,0.2,0.3,0.4,0.5,0.6c1.4,2,2.5,3.7,3.3,5.2c0.8-0.8,1.5-1.6,2.3-2.3l0,0c0.5-0.5,1-0.9,1.5-1.4
		c4.5-3.9,8.4-7.1,10.7-8.9c0.1,0.1,0.1,0.1,0.2,0.2c-2.3,1.8-6.1,4.8-10.2,8.5c-0.5,0.5-1,0.9-1.5,1.4c2.9,6.1,1.6,11.6,0.9,10.2
		l0,0c0.5-1.2,0.7-5.5-1.4-10.1c-0.8,0.7-1.6,1.5-2.4,2.3c0.1,0.1,0.1,0.2,0.1,0.3c-5,5.2-9.2,10.9-14.3,17.2
		c-6.4,7.9-20.8,23.7-30.9,34.5C908.9,1067.5,890.7,1093.1,874.3,1111.8z M963.5,1062.1c3.6-12.3,3.6-19.6,4.2-27.6
		c0.3-3.5,0.8-5.8,1.1-6.1c-0.4,0.4-0.8,2.6-1.1,6.1C967.1,1042.5,967.1,1049.8,963.5,1062.1L963.5,1062.1L963.5,1062.1z
		 M957.5,1143.6c-0.2,1.5-0.5,2.9-0.8,4C957,1146.5,957.2,1145.1,957.5,1143.6z M962,1081.9c0,0.2,0,13.4-1,25.7
		C961.9,1095.3,962,1082.1,962,1081.9z M977.4,1056.1c2.3-3.3,3.3-5.2,3.4-5.9C980.8,1050.8,979.8,1052.7,977.4,1056.1L977.4,1056.1
		z M1088.1,1031.8c0,0,2.2,1.7,5.1,4.4c0.1,0.2,0.2,0.4,0.2,0.7c-2.1-2-3.9-3.5-5-4.3C1088.3,1032.3,1088.2,1032,1088.1,1031.8z
		 M1136.5,1153.9c-10.4-2.4-20.1-3.1-27-3.1C1116.3,1150.8,1126.1,1151.5,1136.5,1153.9L1136.5,1153.9z M1145.4,1118
		C1145.4,1118,1145.4,1117.9,1145.4,1118c0-0.1,0.1-0.1,0.1-0.2C1145.4,1117.9,1145.4,1118,1145.4,1118z M1071.4,976.3L1071.4,976.3
		c-0.8-2.7-3.2-4.4-3.3-4.4c0-0.1,0-0.1,0-0.1S1070.6,973.4,1071.4,976.3z M1068.1,973.4c0,1.4-0.1,3.5-0.7,6
		c-0.8,3.6-1.9,4.7-1.9,3c0.1,1.5,1.1,0.4,1.9-3.1C1068,976.9,1068.1,974.8,1068.1,973.4z M1059.5,995.7c0.8-1.5,1.5-2.6,2-3.4
		C1061,993.1,1060.4,994.2,1059.5,995.7c-2.2,4.3-5.2,17.3-9.9,22.8c-0.1,0.1-0.2,0.2-0.3,0.3
		C1054,1013.3,1057.2,1000.1,1059.5,995.7z M872.6,1046.7c-5.4,5.2-12,11.6-19.1,18.6C860.5,1058.4,867.2,1052,872.6,1046.7z
		 M853.5,1065.4L853.5,1065.4c3.7-2.7,7.2-5.2,10.7-7.8c0.1-0.1,0.2-0.2,0.3-0.3c-0.1,0.1-0.2,0.2-0.3,0.3
		C860.7,1060.1,857.1,1062.8,853.5,1065.4c-8.1,8.2-16.9,17.2-24.9,25.7l0,0C836.5,1082.5,845.3,1073.6,853.5,1065.4
		c-12.7,9.2-25.2,18.2-31.9,25h-0.1C828.2,1083.6,840.7,1074.6,853.5,1065.4z M864.3,1133.3c-8-9.4-18.2-19.8-34-25.5
		c-15.9-5.6-32.4-1.5-31.6-3c0,0,0.1-0.1,0.1-0.2c-0.5,1.4,15.8-2.6,31.5,3C846.2,1113.4,856.3,1123.9,864.3,1133.3
		c8,9.3,16.2,20.4,19,30c1.4,4.8,2.2,9.9,2.2,14.9c0-5-0.8-10-2.2-14.8C880.5,1153.8,872.3,1142.7,864.3,1133.3z M888.1,1187.1
		c-2.3,3.7-1.9,5.2-4.4,12.6c-2.6,7.4-7.1,14.9-14,16.1c-1.8,0.3-27.8-8.5-21.2-1.6c-0.9-1-1.3-1.5-1.2-1.6c0,0.2,0.4,0.7,1.2,1.5
		c-6.6-6.9,19.4,1.9,21.2,1.6c6.8-1.2,11.4-8.7,14-16.1C886.2,1192.3,885.9,1190.6,888.1,1187.1c2.1-3.3,4.6-6.8,6.5-12.1
		c0,0,0,0,0,0.1C892.7,1180.4,890.2,1183.8,888.1,1187.1z M923.6,1113.9c6.8-9.2,12.6-16.8,17-22.2c0.1-0.1,0.2-0.3,0.3-0.4
		c-0.1,0.1-0.2,0.3-0.3,0.4C936.3,1097.2,930.5,1104.7,923.6,1113.9z M960.2,1178.7c-0.3-2.1-0.7-4.9-1-8c0.1,0,0.2-0.1,0.3-0.1
		c0.3,3.2,0.6,5.9,1,8.1c3.8-0.9,8.3-2,13.5-3.5c-5.2,1.5-9.8,2.6-13.6,3.5C960.3,1178.8,960.3,1178.8,960.2,1178.7
		c-8.1,2.1-12.6,2.9-12.6,2.9S952.1,1180.7,960.2,1178.7z M960.5,1170.4c3.9-1.1,8.6-2.4,14.2-3.8
		C969,1168,964.3,1169.3,960.5,1170.4z M1065.9,1152c0-0.6-8.8-0.5-22.6,0.5c-19.4,1.4-34.2,4-52.8,7.6c-11.7,2.3-24,5.4-31.5,7.4
		c0,0,0,0,0-0.1c-4.3,1.2-7.1,2-7.1,2l0,0c0,0,2.8-0.8,7.1-2c-0.7-9-0.8-20.5,1.1-32.1c4-24.4,11.2-44.2,20.9-63.6
		c9.3-18.5,16.3-23.8,16.9-24.2c0.1,0,0.1,0,0.2,0c0,0-7.2,4.8-17,24.3c-9.8,19.4-17,39.3-20.9,63.6c-1.9,11.5-1.8,23.1-1.1,32.1
		c7.5-2,19.8-5.1,31.6-7.4c18.6-3.6,33.4-6.2,52.8-7.6C1058.3,1151.3,1067.3,1151.2,1065.9,1152z M1158.2,1174.6
		c0-0.8-0.1-1.6-0.1-2.5l1.1,1.8L1158.2,1174.6z"/>
	<g>
		<g>
			<path fill="#D8D8D8" d="M1088.3,986.8c-1.9-1.9-3.1-3.1-3.3-3.2c-3.5-3.6-7.7-6.6-10.2-8.3c-0.3-2.7-2-4.3-3.6-6.6
				c-2.4-3.6-2.8-6.2-8.2-9.2c-5.4-2.9-9.6-1.8-9.6-1.8c0.9,5.7,1.5,4.5,3.7,7.7c0.8,1.2,1.2,2.8,1.4,4.9c2.1-2.9,3.1-3.6,5.2-3.6
				c2.5,0,3.6,0.6,3.6,2.8v0.1c0-2.2-1-2.9-3.6-2.8c-2,0-3.1,0.7-5.2,3.6c0.4,3.8,0.1,9-0.1,15.4s-1.8,10-3.8,13.1v0.1
				c-1.1,1.5-2.1,3.1-3.3,4.7c-3.3,5-7.8,11.9-7.8,11.9c-0.9,1.7-1.7,2.8-2.5,3.5c0.7-0.7,1.5-1.8,2.4-3.4c0,0-7.2,0.1-13.6-1.9
				s-7.2-2.8-15.4-6s-9.2-4.8-12.2-8.5s-7.2-8.1-10.7-12.2c-1.8-2.1-3.8-5.8-5.4-9c-1.5-1.2-2.9-2.1-3.6-2c-0.8,0-1.4,0.2-1.8,0.6
				c0.4-0.4,1-0.6,1.9-0.7c0.8,0,2.1,0.8,3.6,2c-1.6-3.1-2.8-5.8-2.8-5.8c3.4-3,5.2-5.2,5.2-5.2c-3.1-0.9-9.1-0.7-12.8,2.1
				c-2.2,1.6-4.1,3.6-4.9,6.2c-1.5,0.7-3.1,1.5-4.8,2.3c-5.9,4.9-14.8,12.2-22.1,17.7c1.5-0.5,2.8-0.8,4-1.1
				c9-6.8,17.2-12.9,22.5-15.9c0,0.4,0.1,0.8,0.1,1.3c-2.9,2.2-9.8,7.6-18.5,14.5c1.3,0.1,2.4,0.4,3.4,0.9
				c5.9-4.7,12.5-9.3,16.4-11.9c0.5,0.9,1.1,2,2,3.2c0,0.1,0,0.2,0,0.3c-2.5,1.1-4.5,2-6.2,2.7c-1.9,1.6-4.3,3.7-6.9,5.9
				c-0.8,0.7-1.6,1.4-2.4,2.1l0,0c-0.7,0.6-1.5,1.3-2.3,2c-9.8,8.4-30.2,32-41.3,43.9s-21.7,24.3-31.5,32.7
				c-8.2,7-21.1,21.4-25.1,26c-1.3-0.7-2.6-1.5-4-2.2c-1.5-0.8-2.9-1.5-4.5-2.1c20.3-22.4,46.5-50.1,59.6-62.3
				c13.6-12.7,33.4-29.6,42.4-37.4c1.1-1,2.3-1.9,3.6-2.9c-1-0.5-2.1-0.8-3.4-0.9c-1.1,1-2.4,2-3.7,3c-13.5,10.6-52.7,42-65.9,53.7
				c-11.1,9.9-36.6,35.4-44,42.8c-3.2-0.9-6.5-1.6-9.6-2.1c20.7-17.1,29.2-25.4,37.7-32.6c9.1-7.6,28-21.8,39.3-30.6
				c5.7-4.5,25.3-20.8,42.4-34c-1.2,0.2-2.5,0.6-4,1.1c-0.8,0.5-1.5,1.1-2.2,1.6c-12.1,9-62.3,47.2-79.6,60.1
				c-3.5,2.6-7.1,5.3-10.7,7.9c-8.3,8.3-17.2,17.4-25.3,26.1l0,0c8.1-8.8,17-17.8,25.4-26.1c-12.9,9.4-25.7,18.5-32.4,25.3
				c-5.4-0.4-10-0.2-13.3,0.3c-0.1,0.1-0.1,0.1-0.2,0.2c-2.1,0.3-3.5,0.8-4.3,1.4c-3.3,2.6-15.2,14.1-15.1,15.9c0,1.9,1,5.4,1,5.4
				l7.2-4.8c16.7-3.3,33.8,2.9,51.5,14.7c17.6,11.9,26.3,33.2,26.3,33.2s-28.7,36.2-40.4,55.4c0,0,9.9,9.8,23.2,13.3
				s24.2-0.2,36.7-23.3c12.5-23.2,4.2-39.9,3.2-46.7c-0.4-3-1.3-6.4-2.5-10c0-0.1,0-0.1,0-0.2c-1.5-4.7-3.4-9.7-5.7-14.6
				c-2.1-4.6-5.4-9.9-10.9-15.5l-0.9-0.7c-0.8-0.8-1.7-1.6-2.6-2.4c16.4-18.9,34.7-44.6,44.4-55c10.3-11,24.8-27,31.3-35
				c5.3-6.5,9.7-12.4,14.8-17.8c-0.8-1.6-1.9-3.3-3.3-5.3c-0.2-0.3-0.3-0.5-0.5-0.7c0.2,0.2,0.3,0.4,0.5,0.6c1.4,2,2.5,3.8,3.3,5.3
				c0.8-0.8,1.5-1.6,2.3-2.3l0,0c0.5-0.5,1-0.9,1.5-1.4c4.5-4,8.5-7.2,10.8-9c5.6,6.9,13.9,15.3,21.6,20.8
				c11.1,7.8,26.6,12,38.6,12.1l0.2-0.3c0.7,0,1.4,0,2.1,0c1.9-1.9,4.4-3.4,7.8-6.9c-3.5,3.6-6.1,5.2-8.1,7.2c0.5,0,0.9,0,1.4-0.1
				c2.7-0.2,5.9-3.7,11.7-9.4c0.1-0.1,0.1-0.2,0.2-0.3c2.1-2,4.4-4.3,7.2-6.8c10.8-9.8,11.1-20.3,13.7-27c0.2-0.6,0.4-1.1,0.5-1.6
				c5.3,4,9.7,7.6,13.5,10.9C1088,988.7,1088.1,987.7,1088.3,986.8z M893.8,1174.4c0.3-1,0.4-2.8,0.5-5.1
				C894.3,1171.7,894.2,1173.5,893.8,1174.4c-2,6.5-4.9,10.3-7.2,14s-1.9,5.3-4.5,12.8s-7.2,15.1-14.2,16.3
				c-6.9,1.2-17.7,2.4-21.5-1.6c-0.9-1-1.3-1.5-1.2-1.6c0,0.2,0.4,0.7,1.2,1.5c3.8,4,14.6,2.8,21.5,1.6c6.9-1.2,11.6-8.8,14.2-16.3
				c2.6-7.5,2.2-9.2,4.5-12.8S891.8,1180.8,893.8,1174.4z M884,1179.4c0-5-0.8-10.1-2.2-15c-2.9-9.8-11.2-21-19.3-30.5
				s-18.4-20.1-34.5-25.8c-16.1-5.7-32.8-1.5-32-3c0,0,0.1-0.1,0.1-0.2c-0.5,1.5,16-2.7,31.9,3.1c16.1,5.7,26.4,16.3,34.5,25.8
				s16.4,20.8,19.3,30.5C883.3,1169.2,884,1174.3,884,1179.4z M963.6,998.8c0.7,1,1.2,1.9,1.6,2.9
				C964.8,1000.8,964.2,999.8,963.6,998.8z M981.6,988.7c-4-4-3.5-7-4.3-8.5c-0.3-0.7-0.9-0.8-1.5-0.4c0.6-0.5,1.2-0.4,1.6,0.3
				C978.2,981.6,977.7,984.6,981.6,988.7c2.9,2.7,4.6,4.4,5.1,4.4C986.5,993.5,984.6,991.7,981.6,988.7z M1039.3,1021.9
				c-0.1-0.1-5.8,1-9.4,0.4s-10.2-2.3-14.5-4.5c-3.7-1.9-5.8-3.7-6.5-4.2c0.1,0.1,0.3,0.1,0.5,0.2c1,0.8,3,2.3,6.1,3.8
				c4.3,2.2,10.9,3.9,14.5,4.5s9.5-0.6,9.5-0.6L1039.3,1021.9z M1072.3,974.7L1072.3,974.7c-0.8-2.8-3.3-4.4-3.4-4.5
				c0-0.1,0-0.1,0-0.1S1071.5,971.8,1072.3,974.7z M1069,971.9c0,1.4-0.1,3.5-0.7,6c-0.8,3.6-1.9,4.7-1.9,3c0.1,1.6,1.1,0.4,1.9-3.1
				C1068.9,975.4,1069,973.3,1069,971.9z M1046.4,1016.5c0.3-0.2,0.9-0.8,1.8-1.8c5-5.5,9.6-15.6,12.1-20.3c0.8-1.5,1.5-2.6,2-3.4
				c-0.5,0.8-1.2,1.9-1.9,3.3c-2.5,4.8-7,14.9-12.1,20.3C1047.3,1015.7,1046.7,1016.3,1046.4,1016.5z M1057.6,1007.8
				c-0.9,1.3-2,2.8-3,4.3C1055.6,1010.6,1056.6,1009.1,1057.6,1007.8z"/>
			<path fill="#D8D8D8" d="M977,1055.7c-8.1,6.1-13.6,15.1-24.7,30.5c0,0-4.3,47.9-8.9,64.8s-12.9,31.6-12.6,39.6s7.5,5.6,7.5,5.6
				l1.6-7.1c6.5-2.7,13.2-5.1,20.1-7.2c-0.1-0.6-0.2-1.2-0.3-2c-8.3,2.1-12.9,2.9-12.9,2.9s4.6-0.9,12.8-2.9c-0.3-2.2-0.7-5-1-8.2
				h0.1c-0.1-1-0.2-2.1-0.3-3.3c-4.4,1.2-7.2,2-7.2,2l0,0c0,0,2.8-0.8,7.2-2c-0.7-9.1-0.8-20.8,1.1-32.5
				c4.1-24.7,11.4-44.8,21.2-64.5c9.9-19.7,17.2-24.6,17.2-24.6C988.4,1049.2,982.2,1051.9,977,1055.7L977,1055.7z M961.5,1081.8
				c0,0.2,0,13.6-1,26.1C961.4,1095.4,961.5,1082,961.5,1081.8z M956.9,1144.3c-0.3,1.5-0.5,2.9-0.8,4.1
				C956.4,1147.2,956.6,1145.8,956.9,1144.3z"/>
			<path fill="#D8D8D8" d="M1217.1,1097.3c-1.6-9.1-14.1-14.5-21.1-16.3c-2.2-0.6-4.6-0.5-7.3,0.1c-3.7-2.4-9.4-6.4-12.8-10
				c-2.4-2.5-9.6-10.1-16.9-17.8c-0.7-0.6-1.5-1.2-2.1-1.8c-14.2-12.1-34.1-26.7-47.9-42.6c-9.1-10.4-16.5-18.1-20.5-22.2
				c-0.2,0.9-0.3,1.9-0.4,3.1c4.1,3.9,7.4,7.2,9.7,10.2c5.2,6.7,19,20,28.5,29.8s26,28.7,32.5,34.4c6.4,5.7,8.8,7.9,13.1,11.5
				c2.8,2.4,7.2,5.9,9.9,8c-4.4,2.3-9.2,5.9-14.1,11c-7.1,7.2-14,18-19.2,29.2c0,0.1,0,0.1,0,0.2c-2.7,6-5,12.1-6.6,17.8
				c-0.4,1.4-0.6,2.7-0.9,4c-1-4.8-2.6-11.7-4.7-19.4c-4.1-14.6-12.1-37.7-19.1-52.6s-11.6-26.2-17-32.2c5.4,11.8,14,30,18.3,41.1
				c5.5,14.2,15.3,44.9,22.3,64.7l0,0c-7-19.8-16.9-50.5-22.3-64.7c-4.3-11.1-12.9-29.3-18.3-41.1c-5.4-6-11.5-10.7-11.5-10.7
				c5,9.1,13.1,19.2,20.9,37.9s15.7,34.8,19.9,55.1c2.9,13.9,6.6,23.1,8.8,30.8l0,0l0,0c0.4,1.4,0.7,2.7,1,4c0.1,0,0.2,0,0.2,0.1
				c0.5,2,0.8,4.1,1,6c0.1,1.6,0.2,3,0.3,4.3c1.8,0.9,3.5,1.8,5,2.8c0,0,0,0.1,0,0.2c-1.5-1-3.2-1.9-5.1-2.8
				c0.1,1.4,0.2,2.7,0.4,3.7c3.3,1.2,5,2.7,5.8,3.8c0.1,0.2,0.1,0.4,0.2,0.7c2,8.6,6.8,25.6,6.8,25.6s5.2,9.1,13.2,9.6
				s14-10.3,14-10.3s-15.8-17.1-20.5-22.6c0,0-2.5-16.3,4.3-35.5c-0.1,0-0.1,0.1-0.2,0.1c1.6-4.5,3.7-9.2,6.5-13.8
				c14.7-24.3,29-31.3,29-31.3l0.1-0.1l12,7.9v0.1l4.7,3.1C1217.1,1110.4,1218.8,1106.5,1217.1,1097.3z"/>
		</g>
		<g>
			<g>
				<g>
					<path fill="#932227" d="M1175.7,1091.8c-23.4,15.2-28.4,26.5-28.4,26.5s-10.8-10.9-16.5-23.2c-5.7-12.2-14.3-29.9-19.8-40.7
						s-11.7-23.2-15.2-30.4c-3.5-7.2-5.5-8.9-7.1-17.2c-1-5.1-1.3-12-0.8-17c-4.4-3.9-9.9-8.2-16.4-13.1l-4.5,11.9
						c0,0,11.8,16.8,20.8,26.9c3.2,10.5,7.4,21.9,10.6,31.8c7.4,22.6,29.4,76.6,46.4,109.6l49.4-68.9L1175.7,1091.8z"/>
					<path fill="#CE2828" d="M1158.9,1053.4c7.3,7.7,14.6,15.3,16.9,17.8c5.3,5.6,16.3,12.2,16.3,12.2l-8,2.3c0,0-8-6.3-12.3-9.9
						s-6.7-5.8-13.1-11.5s-23-24.6-32.5-34.4c-9.5-9.8-23.2-23.2-28.5-29.8c-2.3-3-5.6-6.3-9.9-10.1c-0.4,5-0.2,12,0.8,17
						c1.6,8.2,3.6,9.9,7.1,17.2c3.5,7.2,9.7,19.7,15.2,30.4s14.2,28.4,19.8,40.7c5.7,12.2,16.5,23.2,16.5,23.2s4.9-11.3,28.4-26.5
						l18.6-3.8l2.7-3.8C1197,1084.2,1173.5,1065.6,1158.9,1053.4z"/>
					<path fill="#999DA2" d="M1088.3,986.8c-1.9-1.9-3.1-3.1-3.3-3.2l0,0c-5.4-5.5-12.4-9.7-12.4-9.7l-1.1,2.9
						c6.6,4.8,12,9.2,16.4,13.1C1088,988.7,1088.1,987.7,1088.3,986.8z"/>
					<path fill="#D8D8D8" d="M1097.8,1000c5.2,6.7,19,20,28.5,29.8s26,28.7,32.5,34.4c6.4,5.7,8.8,7.9,13.1,11.5
						c4.3,3.6,12.3,9.9,12.3,9.9l8-2.3c0,0-11-6.6-16.3-12.2c-2.4-2.5-9.6-10.1-16.9-17.8c-0.7-0.6-1.5-1.2-2.1-1.8
						c-14.2-12.1-34.1-26.7-47.9-42.6c-9.1-10.4-16.5-18.1-20.5-22.2c-0.2,0.9-0.3,1.9-0.4,3.1C1092.2,993.7,1095.5,997,1097.8,1000
						z"/>
				</g>
				<g>
					<path fill="#D8D8D8" d="M1217.1,1097.3c-1.6-9.1-14.1-14.5-21.1-16.3s-17.3,2.4-28.3,13.7c-7.1,7.2-14,18-19.2,29.2
						c-1.7,8.5-1.7,11.6,0.6,14.4c3.2,4,6.7,7.9,9.2,9.4c1.1,0.6,3.7-1,6.4-3.1c1.6-4.5,3.7-9.2,6.5-13.9c14.7-24.3,29-31.3,29-31.3
						c5.3-3.5,15.7-3.8,12.1,8l4.7,3.1C1217.1,1110.4,1218.8,1106.5,1217.1,1097.3z"/>
					<path fill="#999DA2" d="M1200.3,1099.3l12.1,8C1216.1,1095.5,1205.7,1095.9,1200.3,1099.3z"/>
					<path fill="#999DA2" d="M1158.4,1147.6c-2.5-1.5-6-5.4-9.2-9.4c-2.3-2.8-2.3-5.9-0.6-14.4c-2.8,6.1-5.1,12.3-6.7,18.1
						c-4.4,16.5,3,27.2,3,27.2s0.2-0.1,2.2,8.5s6.8,25.6,6.8,25.6s5.2,9.1,13.2,9.6s14-10.3,14-10.3s-15.8-17.1-20.5-22.6
						c0,0-2.5-16.3,4.3-35.5C1162.1,1146.6,1159.4,1148.3,1158.4,1147.6z"/>
				</g>
			</g>
		</g>
		<g>
			<path fill="none" d="M1153,1180.4c9.1,12.9,20.9,4.5,20-1.5c-0.7-4.4-9-9.9-18-14.2l6.3,10.3L1153,1180.4z"/>
			<path fill="#CE2828" d="M960.8,995.1c2.6-2.2,4.9-4.2,6.9-5.9C960.4,992.4,959.4,993,960.8,995.1z"/>
			<path fill="#CE2828" d="M862.3,1057.1c17.3-12.9,67.6-51.1,79.6-60.1c0.7-0.5,1.4-1.1,2.2-1.6c-1.8,0.6-3.9,1.5-6.2,2.5
				c-14,11.7-39.2,29.2-67,48.2c-5.5,5.3-12.2,11.8-19.4,18.9C855.2,1062.3,858.8,1059.7,862.3,1057.1z"/>
			<path fill="#CE2828" d="M1142.8,1152.9c-0.2-0.7-0.5-1.4-0.8-2.1c0.2,1.2,0.3,1.9,0.3,1.9L1142.8,1152.9z"/>
			<path fill="#CE2828" d="M939.8,1091.7c10-12.5,19.6-17.4,23.2-30c3.6-12.5,3.6-19.9,4.3-28s2.2-9.4,1.7,2.8s-0.3,21.2-1.2,25.4
				c0,0,3.9-5.7,9.4-10.3c4.3-3.6,4.6-2.8-0.2,4.2c5.2-3.9,11.4-6.6,21-9c0,0-7.3,4.9-17.2,24.6s-17.2,39.8-21.2,64.5
				c-1.9,11.7-1.8,23.4-1.1,32.5c7.6-2,20.1-5.2,32-7.5c18.8-3.6,33.8-6.3,53.5-7.7c19.7-1.4,29.3-1.2,18.2,0.7
				c-11.2,1.8-34.4,1.3-65.3,8.3c-17.4,3.9-29.8,7.1-38,9.5c0.3,3.2,0.6,6,1,8.2c5.1-1.2,11.5-2.9,19.2-5.1
				c20.1-5.8,61.5-12.4,91.6-12.6c23.3-0.1,53.6-0.4,70.4,7.1c-0.1-1.3-0.2-2.7-0.3-4.3c-0.1-2.1-0.5-4.1-1-6.2
				c-12.8-3.3-35.9-5.7-38.6-6.3c-2.2-0.5,16.4-2.7,37.6,2.3c-2.2-7.8-5.9-16.9-8.8-30.8c-4.3-20.3-12.1-36.4-19.9-55.1
				s-15.9-28.8-20.9-37.9c0,0,6.1,4.7,11.5,10.7l0,0c-2.3-5.1-4.1-9-4.7-10.7c-2-5.8-4.5-19.2-5.5-23.3s-3.2-5.4-4-12.3
				c-0.8-6.9-1.4-10-7.5-11.1s-12-4.8-15,7.4s-20,26.8-20,26.8s-25.2-3.5-43.3-14.5c-9.8-5.9-15-14.9-17.7-21.9
				c-1.4,1-3.2,1.9-5.4,2.9c-0.4,0.2-0.9,0.4-1.3,0.6l3.8,4.1c0,0-5.8,4.3-12.8,10.5c-0.5,0.5-1,0.9-1.5,1.4
				c2.9,6.2,1.6,11.8,0.9,10.3c-0.5-1.2-1.1-3.9-3.3-8c-5.2,5.4-9.6,11.3-14.8,17.8c-6.5,8-21.1,24-31.3,35s-30.1,39.2-47.3,58.3
				l-12.5-12c0,0,16.5-19,26.3-27.4s20.4-20.8,31.5-32.7c11.1-11.9,31.5-35.5,41.3-43.9c0.8-0.7,1.5-1.3,2.3-2c-0.9-1-1.9-1.7-3-2.3
				c-1.2,1-2.4,2-3.6,2.9c-9.1,7.8-28.8,24.7-42.4,37.4c-13.6,12.7-41.7,42.3-62.2,65.2l-10.8-4.8c0,0,32.9-33.2,46-44.9
				c13.1-11.7,52.4-43,65.9-53.7c1.3-1,2.6-2,3.8-3c-1.2-0.1-2.5,0-4,0.3c-17.1,13.2-36.7,29.5-42.4,34c-11.2,8.8-30.1,23-39.3,30.6
				s-18.1,16.6-42,36.1l-1.3-0.5c-2.4,2.6-4.8,5.2-7,7.8c14.8,2.9,37.4,9.3,51.4,22.1c11.3,10.4,18.4,26.8,22.6,40.4l2-8.1
				C912.4,1127.5,929.8,1104.1,939.8,1091.7z"/>
			<path fill="#D8D8D8" d="M960.8,995.1c0.6,0.9,1.6,2,2.8,3.7c0.7,1,1.2,1.9,1.6,2.9c0.5-0.5,1-0.9,1.5-1.4
				c7-6.2,12.8-10.5,12.8-10.5l-3.8-4.1c-3.3,1.5-5.9,2.6-8,3.5C965.8,990.8,963.4,992.9,960.8,995.1z"/>
			<path fill="#D8D8D8" d="M958.4,997.2c-0.7,0.6-1.5,1.3-2.3,2c-9.8,8.4-30.2,32-41.3,43.9s-21.7,24.3-31.5,32.7
				c-9.8,8.4-26.3,27.4-26.3,27.4l12.5,12c17.1-19.1,37-47.3,47.3-58.3s24.8-27,31.3-35c5.3-6.5,9.7-12.4,14.8-17.8
				c-0.8-1.6-1.9-3.3-3.3-5.3C959.2,998.1,958.8,997.6,958.4,997.2z"/>
			<path fill="#D8D8D8" d="M948.2,997c-13.5,10.6-52.7,42-65.9,53.7c-13.1,11.7-46,44.9-46,44.9l10.8,4.8
				c20.6-22.9,48.6-52.5,62.2-65.2c13.6-12.7,33.4-29.6,42.4-37.4c1.1-1,2.3-1.9,3.6-2.9c-1-0.5-2.1-0.8-3.4-0.9
				C950.8,995,949.5,996,948.2,997z"/>
			<path fill="#D8D8D8" d="M941.9,997c-12.1,9-62.3,47.2-79.6,60.1c-3.5,2.6-7.1,5.3-10.7,7.9c-9.4,9.4-19.6,19.8-28.5,29.5l1.3,0.5
				c23.9-19.5,32.9-28.5,42-36.1s28-21.8,39.3-30.6c5.7-4.5,25.3-20.8,42.4-34c-1.2,0.2-2.5,0.6-4,1.1
				C943.3,995.9,942.6,996.5,941.9,997z"/>
			<path fill="#D8D8D8" d="M946.8,1182.8c0,0,4.6-0.9,12.8-2.9c-0.3-2.2-0.7-5-1-8.2c-6.4,1.9-10.2,3.3-11.9,4.4v6.7H946.8z"/>
			<path fill="#D8D8D8" d="M961.5,1081.8c0,0,0,13.5-1,26.1s-2.4,32-4.4,40.5c-2,8.6-4.9,22-4.9,22s2.8-0.8,7.2-2
				c-0.7-9.1-0.8-20.8,1.1-32.5c4.1-24.7,11.4-44.8,21.2-64.5c9.9-19.7,17.2-24.6,17.2-24.6c-9.5,2.4-15.8,5.1-21,9
				c-1.3,2-3,4.4-5.1,7.4C962.1,1076.8,961.5,1081.8,961.5,1081.8z"/>
			<path fill="#999DA2" d="M1142,1150.8c-0.7-3.8-2.6-13.2-5.7-24.3c-4.1-14.6-12.1-37.7-19.1-52.6s-11.6-26.2-17-32.2
				c5.4,11.8,14,30,18.3,41.1C1124.3,1097.8,1135,1131.3,1142,1150.8z"/>
			<path fill="#D8D8D8" d="M1150.2,1176.1c0-0.1,0-0.1,0.1-0.2c0.6-2.2,0.3-6.1-0.3-10.6c-0.2-1.5-0.6-2.6-1-3.4
				c-2.2-0.9-4.4-1.7-6.3-2.3c-1-0.3-2-0.6-3.2-0.9c0.5,2.1,0.8,4.2,1,6.2c0.1,1.6,0.2,3,0.3,4.3
				C1144.8,1171.1,1148,1173.3,1150.2,1176.1z"/>
			<path fill="#D8D8D8" d="M1088.7,1031c5,9.1,13.1,19.2,20.9,37.9s15.7,34.8,19.9,55.1c2.9,13.9,6.6,23.1,8.8,30.8
				c1.9,0.5,3.8,1,5.8,1.5c-0.3-0.4-0.5-0.9-0.8-1.9c-0.2-0.5-0.4-1-0.6-1.5l-0.4-0.2c0,0-0.1-0.7-0.3-1.9c-7-19.5-17.8-53-23.5-68
				c-4.3-11.1-12.9-29.3-18.3-41.1l0,0C1094.8,1035.7,1088.7,1031,1088.7,1031z"/>
			<path fill="#932227" d="M933.4,1108c11.2-14.7,18.9-21.7,18.9-21.7c11.1-15.4,16.6-24.4,24.7-30.5c4.8-7.1,4.5-7.9,0.2-4.2
				c-5.5,4.6-9.4,10.3-9.4,10.3c0.9-4.1,0.6-13.1,1.2-25.4s-1-10.9-1.7-2.8s-0.7,15.5-4.3,28s-13.2,17.5-23.2,30s-27.4,35.8-47.7,65
				l-2,8.1c4.1,13.1,5.6,23.7,5.6,23.7S922.2,1122.6,933.4,1108z"/>
			<path fill="#932227" d="M1100.8,1152.5c2.7,0.6,25.8,3,38.6,6.3c-0.3-1.3-0.6-2.6-1-4C1117.2,1149.8,1098.6,1152,1100.8,1152.5z"
				/>
			<path fill="#932227" d="M996.7,1162.3c30.9-7,54.2-6.4,65.3-8.3c11.2-1.8,1.5-2-18.2-0.7c-19.7,1.4-34.7,4.1-53.5,7.7
				c-11.9,2.3-24.4,5.5-32,7.5c0.1,1.1,0.2,2.2,0.3,3.3C966.8,1169.3,979.3,1166.2,996.7,1162.3z"/>
			<path fill="#932227" d="M1070.3,1162.3c-30.1,0.2-71.5,6.8-91.6,12.6c-7.6,2.2-14.1,3.9-19.2,5.1c0.1,0.7,0.2,1.4,0.3,2
				c48.9-15.4,102.6-18.1,126.1-16.9c26.8,1.4,37,3.8,51.1,6.8c1.6,0.3,2.9,0.7,4,1.1c-0.1-1-0.2-2.2-0.4-3.7
				C1123.9,1161.9,1093.6,1162.1,1070.3,1162.3z"/>
			<path fill="#999DA2" d="M946.8,1182.8v-6.7c1.7-1.1,5.5-2.5,11.9-4.4c-0.1-1-0.2-2.1-0.3-3.3c-4.4,1.2-7.2,2-7.2,2
				s2.9-13.4,4.9-22s3.5-27.9,4.4-40.5s1-26.1,1-26.1s0.6-5,10.4-18.7c2.1-3,3.8-5.4,5.1-7.4c-8.1,6.1-13.6,15.1-24.7,30.5
				c0,0-4.3,47.9-8.9,64.8s-12.9,31.6-12.6,39.6s7.5,5.6,7.5,5.6l1.6-7.1c6.5-2.7,13.2-5.1,20.1-7.2c-0.1-0.6-0.2-1.2-0.3-2
				C951.4,1182,946.8,1182.8,946.8,1182.8z"/>
			<path fill="#999DA2" d="M1148.9,1162c-0.8-1.5-1.8-2.1-3-3.5c-1-1.2-1.4-1.6-1.8-2.2c-1.9-0.6-3.9-1.1-5.8-1.5
				c0.4,1.4,0.7,2.7,1,4c1.1,0.3,2.2,0.6,3.2,0.9C1144.6,1160.3,1146.7,1161.1,1148.9,1162z"/>
			<path fill="#999DA2" d="M1147.8,1178.6c0,0,1.8-0.4,2.4-2.4c-2.2-2.8-5.4-5-9.5-6.8c0.1,1.4,0.2,2.7,0.4,3.7
				C1147.2,1175.3,1147.8,1178.6,1147.8,1178.6z"/>
			<path fill="#932227" d="M817.2,1092.3c6.1-7,20.1-17,34.3-27.3c7.1-7.1,13.9-13.6,19.4-18.9c-4.4,3-8.9,6.1-13.4,9.1
				c-37.1,25.1-42.5,26.6-56,44.9c0,0,6,0.5,14.6,2.3c2.2-2.5,4.5-5.1,7-7.8L817.2,1092.3z"/>
			<path fill="#999DA2" d="M851.6,1065c-14.2,10.3-28.2,20.3-34.3,27.3l5.8,2.2C832,1084.7,842.1,1074.4,851.6,1065z"/>
			<path fill="#932227" d="M962.9,1004c2.2,4.1,2.7,6.8,3.3,8c0.6,1.5,1.9-4.2-0.9-10.3C964.5,1002.4,963.7,1003.2,962.9,1004z"/>
			<path fill="#932227" d="M974.5,973.6l4.2,2.5L976,978c2.6-6.2-11.6,3.6-28,16.3c1.5-0.3,2.8-0.4,4-0.3c11.6-9.1,20-15.6,20-15.6
				l2.8,2.4c0,0-10.7,7-19.5,14c1.1,0.5,2.1,1.3,3,2.3c0.8-0.7,1.6-1.4,2.4-2.1c-1.4-2.1-0.4-2.7,6.9-5.9c3.8-3.3,6.3-5.4,6.3-5.4
				l1.7,1.8c0.4-0.2,0.8-0.4,1.3-0.6c2.2-1,3.9-2,5.4-2.9c-2.3-6-2.9-10.6-2.9-10.6S977.6,972.2,974.5,973.6z"/>
			<path fill="#932227" d="M966.2,977.6c-7.3,3.8-16.1,9.1-22.8,15.4c-1.5,1.5-3.4,3.1-5.4,4.8c2.3-1.1,4.3-1.9,6.2-2.5
				C951.4,989.8,960.3,982.5,966.2,977.6z"/>
			<path fill="#999DA2" d="M960.8,995.1c-0.8,0.7-1.6,1.4-2.4,2.1c0.4,0.5,0.8,0.9,1.2,1.5c1.4,2,2.5,3.8,3.3,5.3
				c0.8-0.8,1.5-1.6,2.3-2.3c-0.4-0.9-1-1.9-1.6-2.9C962.5,997.1,961.4,995.9,960.8,995.1z"/>
			<path fill="#932227" d="M967.8,989.1c2.1-0.9,4.8-2.1,8-3.5l-1.7-1.8C974.1,983.8,971.6,985.9,967.8,989.1z"/>
			<path fill="#999DA2" d="M972.1,978.4c0,0-8.4,6.5-20,15.6c1.3,0.1,2.4,0.4,3.4,0.9c8.8-7,19.5-14,19.5-14L972.1,978.4z"/>
			<path fill="#999DA2" d="M976,978l2.7-1.9l-4.2-2.5c-2.3,1-5.2,2.4-8.4,4c-5.9,4.9-14.8,12.2-22.1,17.7c1.5-0.5,2.8-0.8,4-1.1
				C964.5,981.6,978.6,971.8,976,978z"/>
		</g>
		<g>
			<path fill="#999DA2" d="M895,1155.3c-0.4-3-1.3-6.4-2.5-10.1c1.3,11.8,2.4,25.7,1.3,29.3c-2,6.4-4.9,10.2-7.2,13.9
				s-1.9,5.3-4.5,12.8s-7.2,15.1-14.2,16.3c-6.9,1.2-17.7,2.4-21.5-1.6s2.2,0.1,7.7,0.7c5.4,0.6,8.2,0,16.2-3s8.4-9.9,11.5-19.4
				s2.9-20.1,0-29.8c-2.9-9.8-11.2-21-19.3-30.5s-18.4-20.1-34.5-25.8c-16.1-5.7-32.8-1.5-32-3c0.7-1.2,2.8-5.1,9.8-14.3
				c-2.1,0.3-3.6,0.8-4.4,1.4c-3.3,2.6-15.2,14.1-15.1,15.9c0,1.9,1,5.4,1,5.4l7.2-4.8c16.7-3.3,33.8,2.9,51.5,14.7
				c17.6,11.9,26.3,33.2,26.3,33.2s-28.7,36.2-40.4,55.4c0,0,9.9,9.8,23.2,13.3s24.2-0.2,36.7-23.3
				C904.3,1178.8,896,1162.1,895,1155.3z"/>
			<path fill="#D8D8D8" d="M866.4,1107.1l9.5,8C873.3,1112.5,870.1,1109.8,866.4,1107.1z"/>
			<path fill="#D8D8D8" d="M828,1108c16.1,5.7,26.4,16.3,34.5,25.8s16.4,20.8,19.3,30.5c2.9,9.8,3.1,20.3,0,29.8
				s-3.5,16.4-11.5,19.4s-10.8,3.5-16.2,3c-5.4-0.6-11.5-4.7-7.7-0.7s14.6,2.8,21.5,1.6c6.9-1.2,11.6-8.8,14.2-16.3
				c2.6-7.5,2.2-9.2,4.5-12.8s5.2-7.5,7.2-13.9c1.1-3.5,0-17.5-1.3-29.3c-1.5-4.7-3.4-9.7-5.7-14.6c-2.1-4.6-5.4-9.9-10.9-15.5
				l-9.5-8c-3.5-2.5-7.5-5-12.2-7.4c-16.8-8.8-38.7-10.5-48.3-9c-7,9.2-9.2,13.1-9.8,14.3C795.2,1106.5,811.9,1102.2,828,1108z"/>
		</g>
		<g>
			<path fill="#999DA2" d="M974.1,983.8c0.6-4.1,2.5-5.2,3.3-3.7s0.3,4.5,4.3,8.5s5.9,5.8,4.8,3.4c-1.1-2.3-5.1-5.7-6-10
				s-0.5-5.9,2.1-6c0.8,0,2.1,0.8,3.6,2c-1.6-3.1-2.8-5.8-2.8-5.8c3.4-3,5.2-5.2,5.2-5.2c-3.1-0.9-9.1-0.7-12.8,2.1
				c-3.8,2.8-6.8,6.7-4.6,12.5c0.5,1.2,1.4,2.9,2.8,4.8C973.9,985.5,974,984.5,974.1,983.8z"/>
			<path fill="#999DA2" d="M1071.2,968.7c-2.4-3.6-2.8-6.2-8.2-9.2c-5.4-2.9-9.6-1.8-9.6-1.8c0.9,5.7,1.5,4.5,3.7,7.7
				c0.8,1.2,1.2,2.8,1.4,4.9c2.1-2.9,3.1-3.6,5.2-3.6c2.5,0,3.6,0.6,3.6,2.8s-0.2,6.4-0.8,9.9s0.8,2.8,1.8-1.6
				c1-4.4,0.6-7.7,0.6-7.7s3.7,2.4,3.6,6.3c-0.1,3.9-0.2,6.5-2.6,11.3c-2.5,4.8-5.7,11.9-10.4,17.6c-1.9,2.3-4.2,5.8-6.6,9.2
				c2.1-2,4.5-4.4,7.3-6.9c10.8-9.8,11.1-20.3,13.7-27C1076.4,974,1073.6,972.2,1071.2,968.7z"/>
			<path fill="#999DA2" d="M1050.5,1014.1c6-7.1,12.1-19,13-22.4s-0.6-2.2-3.1,2.6s-7,14.9-12.1,20.3c-5,5.5-0.5-1.5,3.8-9.2
				c1.3-2.3,2.1-4.6,2.6-6.6c-1.1,1.6-2.2,3.2-3.4,4.9c-3.3,5-7.8,11.9-7.8,11.9c-2.5,4.5-3.8,4.8-6.8,5.1s-10,0.1-15.6-2.1
				c-5.6-2.2-12.6-5.2-12.4-5.2c0.2,0,2.5,2.2,6.8,4.3c4.3,2.2,10.9,3.9,14.5,4.5s9.5-0.6,9.5-0.6l-1.6,2.3c0.7,0,1.4,0,2.1,0
				C1042.3,1021.6,1045.6,1019.8,1050.5,1014.1z"/>
			<g>
				<path fill="#999DA2" d="M1074.8,975.3c-0.3-2.7-2-4.3-3.6-6.6c-2.4-3.6-2.8-6.2-8.2-9.2c-5.4-2.9-9.6-1.8-9.6-1.8
					c0.9,5.7,1.5,4.5,3.7,7.7c0.8,1.2,1.2,2.8,1.4,4.9c2.1-2.9,3.1-3.6,5.2-3.6c2.5,0,3.6,0.6,3.6,2.8s-0.2,6.4-0.8,9.9
					c-0.6,3.5,0.8,2.8,1.8-1.6s0.6-7.7,0.6-7.7s2.6,1.7,3.4,4.6l-0.8,2.1c0.3,0.2,0.6,0.5,1,0.7c-0.1,3.3-0.4,5.9-2.6,10.2
					c-2.5,4.8-5.7,11.9-10.4,17.6c-1.9,2.3-4.2,5.8-6.6,9.2c2.1-2,4.5-4.4,7.3-6.9c10.8-9.8,11.1-20.3,13.7-27
					c0.2-0.6,0.4-1.1,0.5-1.6c5.3,4,9.7,7.6,13.5,10.9c0.1-1.2,0.2-2.2,0.4-3.1c-1.9-1.9-3.1-3.1-3.3-3.2
					C1081.5,980,1077.3,977,1074.8,975.3z"/>
				<path fill="#999DA2" d="M1200.3,1099.3l12.1,8C1216.1,1095.5,1205.7,1095.9,1200.3,1099.3z"/>
				<path fill="#999DA2" d="M1164.9,1144.4c-2.8,2.2-5.5,3.9-6.5,3.2c-2.5-1.5-6-5.4-9.2-9.4c-2.3-2.8-2.3-5.9-0.6-14.4
					c-2.8,6.1-5.1,12.3-6.7,18.1c-0.4,1.4-0.6,2.7-0.9,4c-1-4.8-2.6-11.7-4.7-19.4c-4.1-14.6-12.1-37.7-19.1-52.6
					s-11.6-26.2-17-32.2c5.4,11.8,14,30,18.3,41.1c5.5,14.2,15.3,44.9,22.3,64.7c-0.4,2.9-0.4,5.5-0.2,7.9c-0.8-0.2-1.6-0.4-2.3-0.5
					c0.4,1.4,0.7,2.7,1,4c0.6,0.2,1.3,0.3,1.9,0.5c1.2,6.2,3.7,9.8,3.7,9.8s0.1,0,0.9,3.1c-1.5-1-3.2-1.9-5.1-2.8
					c0.1,1.4,0.2,2.7,0.4,3.7c3.3,1.2,5,2.7,5.8,3.8c0.1,0.2,0.1,0.4,0.2,0.7c2,8.6,6.8,25.6,6.8,25.6s5.2,9.1,13.2,9.6
					s14-10.3,14-10.3s-15.8-17.1-20.5-22.6C1160.6,1179.9,1158.1,1163.6,1164.9,1144.4z"/>
				<path fill="#999DA2" d="M952.3,1086.2c0,0-4.3,47.9-8.9,64.8s-12.9,31.6-12.6,39.6s7.5,5.6,7.5,5.6l1.6-7.1
					c6.5-2.7,13.2-5.1,20.1-7.2c-0.1-0.6-0.2-1.2-0.3-2c-8.3,2.1-12.9,2.9-12.9,2.9v-6.7c1.7-1.1,5.5-2.5,11.9-4.4
					c-0.1-1-0.2-2.1-0.3-3.3c-4.4,1.2-7.2,2-7.2,2s2.9-13.4,4.9-22s3.5-27.9,4.4-40.5s1-26.1,1-26.1s0.6-5,10.4-18.7
					c2.1-3,3.8-5.4,5.1-7.4C968.9,1061.8,963.4,1070.8,952.3,1086.2z"/>
				<path fill="#999DA2" d="M851.6,1065c-14.2,10.3-28.2,20.3-34.3,27.3l5.8,2.2C832,1084.7,842.1,1074.4,851.6,1065z"/>
				<path fill="#999DA2" d="M965.2,1001.7c-0.4-0.9-1-1.9-1.6-2.9c-1.1-1.7-2.2-2.9-2.8-3.7c-0.8,0.7-1.6,1.4-2.4,2.1
					c0.4,0.5,0.8,0.9,1.2,1.5c1.4,2,2.5,3.8,3.3,5.3C963.7,1003.2,964.4,1002.4,965.2,1001.7z"/>
				<path fill="#999DA2" d="M892.5,1145.2c1.3,11.8,2.4,25.7,1.3,29.3c-2,6.4-4.9,10.2-7.2,13.9s-1.9,5.3-4.5,12.8
					s-7.2,15.1-14.2,16.3c-6.9,1.2-17.7,2.4-21.5-1.6s2.2,0.1,7.7,0.7c5.4,0.6,8.2,0,16.2-3s8.4-9.9,11.5-19.4s2.9-20.1,0-29.8
					c-2.9-9.8-11.2-21-19.3-30.5s-18.4-20.1-34.5-25.8c-16.1-5.7-32.8-1.5-32-3c0.7-1.2,2.8-5.1,9.8-14.3c-2.1,0.3-3.6,0.8-4.4,1.4
					c-3.3,2.6-15.2,14.1-15.1,15.9c0,1.9,1,5.4,1,5.4l7.2-4.8c16.7-3.3,33.8,2.9,51.5,14.7c17.6,11.9,26.3,33.2,26.3,33.2
					s-28.7,36.2-40.4,55.4c0,0,9.9,9.8,23.2,13.3s24.2-0.2,36.7-23.3c12.5-23.2,4.2-39.9,3.2-46.7
					C894.6,1152.3,893.7,1148.9,892.5,1145.2z"/>
				<path fill="#999DA2" d="M988.6,967c-3.1-0.9-9.1-0.7-12.8,2.1c-2.2,1.6-4.1,3.6-4.9,6.2c-1.5,0.7-3.1,1.5-4.8,2.3
					c-5.9,4.9-14.8,12.2-22.1,17.7c1.5-0.5,2.8-0.8,4-1.1c9-6.8,17.2-12.9,22.5-15.9c0,0.4,0.1,0.8,0.1,1.3
					c-2.9,2.2-9.8,7.6-18.5,14.5c1.3,0.1,2.4,0.4,3.4,0.9c5.9-4.7,12.5-9.3,16.4-11.9c0.5,1,1.2,2.1,2.1,3.4c-0.1-0.9,0-1.9,0.1-2.6
					c0.2-1.2,0.5-2.1,0.8-2.8c0.1,0,0.1-0.1,0.1-0.1l0,0c0.8-1.6,1.9-1.8,2.4-0.8c0.8,1.5,0.3,4.5,4.3,8.5s5.9,5.8,4.8,3.4
					c-1.1-2.3-5.1-5.7-6-10s-0.5-5.9,2.1-6c0.8,0,2.1,0.8,3.6,2c-1.6-3.1-2.8-5.8-2.8-5.8C986.8,969.2,988.6,967,988.6,967z"/>
				<path fill="#999DA2" d="M1008.9,1013.5c-0.1-0.1-0.1-0.1-0.2-0.1C1008.7,1013.4,1008.7,1013.4,1008.9,1013.5z"/>
				<path fill="#999DA2" d="M1060.4,994.3c-2.5,4.8-7,14.9-12.1,20.3c-5,5.5-0.5-1.5,3.8-9.2c1.3-2.3,2.1-4.6,2.6-6.6
					c-1.1,1.6-2.2,3.2-3.4,4.9c-3.3,5-7.8,11.9-7.8,11.9c-2.5,4.5-3.8,4.8-6.8,5.1s-10,0.1-15.6-2.1c-5.1-2-11.2-4.6-12.2-5.1
					c0.6,0.4,2.8,2.3,6.6,4.2c4.3,2.2,10.9,3.9,14.5,4.5s9.5-0.6,9.5-0.6l-1.6,2.3c0.7,0,1.4,0,2.1,0c2.3-2.3,5.6-4.1,10.5-9.8
					c6-7.1,12.1-19,13-22.4S1062.9,989.5,1060.4,994.3z"/>
			</g>
			<path fill="#D8D8D8" d="M1069.9,987.8c2.5-4.8,2.6-7.4,2.6-11.3c0.1-3.9-3.6-6.3-3.6-6.3s0.4,3.3-0.6,7.7s-2.4,5.1-1.8,1.6
				s0.8-7.7,0.8-9.9s-1-2.9-3.6-2.8c-2,0-3.1,0.7-5.2,3.6c0.4,3.8,0.1,9-0.1,15.4s-1.8,10-3.8,13.1c-0.5,2-1.3,4.3-2.6,6.6
				c-4.3,7.7-8.8,14.6-3.8,9.2c5-5.5,9.6-15.6,12.1-20.3s4-6,3.1-2.6s-7,15.3-13,22.4c-4.9,5.7-8.2,7.5-10.7,10c0.5,0,0.9,0,1.4-0.1
				c2.7-0.2,5.9-3.7,11.7-9.4c2.4-3.5,4.7-7,6.6-9.2C1064.2,999.6,1067.5,992.6,1069.9,987.8z"/>
			<path fill="#D8D8D8" d="M1029.9,1022.3c-3.6-0.6-10.2-2.3-14.5-4.5s-6.5-4.3-6.8-4.3c-0.2,0,6.8,3,12.4,5.2s12.6,2.4,15.6,2.1
				c3-0.3,4.3-0.6,6.8-5.1c0,0-7.2,0.1-13.6-1.9s-7.2-2.8-15.4-6s-9.2-4.8-12.2-8.5s-7.2-8.1-10.7-12.2c-1.8-2.1-3.8-5.8-5.4-9
				c-1.5-1.2-2.9-2.1-3.6-2c-2.6,0.1-3,1.7-2.1,6s4.9,7.7,6,10s-0.8,0.6-4.8-3.4s-3.5-7-4.3-8.5s-2.8-0.4-3.3,3.7
				c-0.1,0.8-0.2,1.7-0.1,2.7c5.1,7.3,15.6,18.7,25.2,25.5c11.1,7.8,26.6,12,38.6,12.1l1.6-2.3
				C1039.3,1021.8,1033.5,1022.9,1029.9,1022.3z"/>
			<path fill="#D8D8D8" d="M1097.8,1000c5.2,6.7,19,20,28.5,29.8s26,28.7,32.5,34.4c6.4,5.7,8.8,7.9,13.1,11.5
				c4.3,3.6,12.3,9.9,12.3,9.9l8-2.3c0,0-11-6.6-16.3-12.2c-2.4-2.5-9.6-10.1-16.9-17.8c-0.7-0.6-1.5-1.2-2.1-1.8
				c-14.2-12.1-34.1-26.7-47.9-42.6c-9.1-10.4-16.5-18.1-20.5-22.2c-0.2,0.9-0.3,1.9-0.4,3.1C1092.2,993.7,1095.5,997,1097.8,1000z"
				/>
			<path fill="#D8D8D8" d="M1217.1,1097.3c-1.6-9.1-14.1-14.5-21.1-16.3s-17.3,2.4-28.3,13.7c-7.1,7.2-14,18-19.2,29.2
				c-1.7,8.5-1.7,11.6,0.6,14.4c3.2,4,6.7,7.9,9.2,9.4c1.1,0.6,3.7-1,6.4-3.1c1.6-4.5,3.7-9.2,6.5-13.9c14.7-24.3,29-31.3,29-31.3
				c5.3-3.5,15.7-3.8,12.1,8l4.7,3.1C1217.1,1110.4,1218.8,1106.5,1217.1,1097.3z"/>
			<path fill="#D8D8D8" d="M960.8,995.1c0.6,0.9,1.6,2,2.8,3.7c0.7,1,1.2,1.9,1.6,2.9c0.5-0.5,1-0.9,1.5-1.4
				c7-6.2,12.8-10.5,12.8-10.5l-3.8-4.1c-3.3,1.5-5.9,2.6-8,3.5C965.8,990.8,963.4,992.9,960.8,995.1z"/>
			<path fill="#D8D8D8" d="M958.4,997.2c-0.7,0.6-1.5,1.3-2.3,2c-9.8,8.4-30.2,32-41.3,43.9s-21.7,24.3-31.5,32.7
				c-9.8,8.4-26.3,27.4-26.3,27.4l12.5,12c17.1-19.1,37-47.3,47.3-58.3s24.8-27,31.3-35c5.3-6.5,9.7-12.4,14.8-17.8
				c-0.8-1.6-1.9-3.3-3.3-5.3C959.2,998.1,958.8,997.6,958.4,997.2z"/>
			<path fill="#D8D8D8" d="M948.2,997c-13.5,10.6-52.7,42-65.9,53.7c-13.1,11.7-46,44.9-46,44.9l10.8,4.8
				c20.6-22.9,48.6-52.5,62.2-65.2c13.6-12.7,33.4-29.6,42.4-37.4c1.1-1,2.3-1.9,3.6-2.9c-1-0.5-2.1-0.8-3.4-0.9
				C950.8,995,949.5,996,948.2,997z"/>
			<path fill="#D8D8D8" d="M941.9,997c-12.1,9-62.3,47.2-79.6,60.1c-3.5,2.6-7.1,5.3-10.7,7.9c-9.4,9.4-19.6,19.8-28.5,29.5l1.3,0.5
				c23.9-19.5,32.9-28.5,42-36.1s28-21.8,39.3-30.6c5.7-4.5,25.3-20.8,42.4-34c-1.2,0.2-2.5,0.6-4,1.1
				C943.3,995.9,942.6,996.5,941.9,997z"/>
			<path fill="#D8D8D8" d="M946.8,1182.8c0,0,4.6-0.9,12.8-2.9c-0.3-2.2-0.7-5-1-8.2c-6.4,1.9-10.2,3.3-11.9,4.4v6.7H946.8z"/>
			<path fill="#D8D8D8" d="M961.5,1081.8c0,0,0,13.5-1,26.1s-2.4,32-4.4,40.5c-2,8.6-4.9,22-4.9,22s2.8-0.8,7.2-2
				c-0.7-9.1-0.8-20.8,1.1-32.5c4.1-24.7,11.4-44.8,21.2-64.5c9.9-19.7,17.2-24.6,17.2-24.6c-9.5,2.4-15.8,5.1-21,9
				c-1.3,2-3,4.4-5.1,7.4C962.1,1076.8,961.5,1081.8,961.5,1081.8z"/>
			<path fill="#D8D8D8" d="M1150.2,1176.1c0-0.1,0-0.1,0.1-0.2c0.6-2.2,0.3-6.1-0.3-10.6c-0.2-1.5-0.6-2.6-1-3.4
				c-2.2-0.9-4.4-1.7-6.3-2.3c-1-0.3-2-0.6-3.2-0.9c0.5,2.1,0.8,4.2,1,6.2c0.1,1.6,0.2,3,0.3,4.3
				C1144.8,1171.1,1148,1173.3,1150.2,1176.1z"/>
			<path fill="#D8D8D8" d="M1088.7,1031c5,9.1,13.1,19.2,20.9,37.9s15.7,34.8,19.9,55.1c2.9,13.9,6.6,23.1,8.8,30.8
				c1.9,0.5,3.8,1,5.8,1.5c-0.3-0.4-0.5-0.9-0.8-1.9c-0.2-0.5-0.4-1-0.6-1.5l-0.4-0.2c0,0-0.1-0.7-0.3-1.9c-7-19.5-17.8-53-23.5-68
				c-4.3-11.1-12.9-29.3-18.3-41.1l0,0C1094.8,1035.7,1088.7,1031,1088.7,1031z"/>
			<path fill="#D8D8D8" d="M866.4,1107.1l9.5,8C873.3,1112.5,870.1,1109.8,866.4,1107.1z"/>
			<path fill="#D8D8D8" d="M828,1108c16.1,5.7,26.4,16.3,34.5,25.8s16.4,20.8,19.3,30.5c2.9,9.8,3.1,20.3,0,29.8
				s-3.5,16.4-11.5,19.4s-10.8,3.5-16.2,3c-5.4-0.6-11.5-4.7-7.7-0.7s14.6,2.8,21.5,1.6c6.9-1.2,11.6-8.8,14.2-16.3
				c2.6-7.5,2.2-9.2,4.5-12.8s5.2-7.5,7.2-13.9c1.1-3.5,0-17.5-1.3-29.3c-1.5-4.7-3.4-9.7-5.7-14.6c-2.1-4.6-5.4-9.9-10.9-15.5
				l-9.5-8c-3.5-2.5-7.5-5-12.2-7.4c-16.8-8.8-38.7-10.5-48.3-9c-7,9.2-9.2,13.1-9.8,14.3C795.2,1106.5,811.9,1102.2,828,1108z"/>
			<path fill="#D8D8D8" d="M1069.9,987.8c2.5-4.8,2.6-7.4,2.6-11.3c0.1-3.9-3.6-6.3-3.6-6.3s0.4,3.3-0.6,7.7s-2.4,5.1-1.8,1.6
				s0.8-7.7,0.8-9.9s-1-2.9-3.6-2.8c-2,0-3.1,0.7-5.2,3.6c0.4,3.8,0.1,9-0.1,15.4s-1.8,10-3.8,13.1c-0.5,2-1.3,4.3-2.6,6.6
				c-4.3,7.7-8.8,14.6-3.8,9.2c5-5.5,9.6-15.6,12.1-20.3s4-6,3.1-2.6s-7,15.3-13,22.4c-4.9,5.7-8.2,7.5-10.7,10c0.5,0,0.9,0,1.4-0.1
				c2.7-0.2,5.9-3.7,11.7-9.4c2.4-3.5,4.7-7,6.6-9.2C1064.2,999.6,1067.5,992.6,1069.9,987.8z"/>
			<path fill="#D8D8D8" d="M1029.9,1022.3c-3.6-0.6-10.2-2.3-14.5-4.5s-6.5-4.3-6.8-4.3c-0.2,0,6.8,3,12.4,5.2s12.6,2.4,15.6,2.1
				c3-0.3,4.3-0.6,6.8-5.1c0,0-7.2,0.1-13.6-1.9s-7.2-2.8-15.4-6s-9.2-4.8-12.2-8.5s-7.2-8.1-10.7-12.2c-1.8-2.1-3.8-5.8-5.4-9
				c-1.5-1.2-2.9-2.1-3.6-2c-2.6,0.1-3,1.7-2.1,6s4.9,7.7,6,10s-0.8,0.6-4.8-3.4s-3.5-7-4.3-8.5s-2.8-0.4-3.3,3.7
				c-0.1,0.8-0.2,1.7-0.1,2.7c5.1,7.3,15.6,18.7,25.2,25.5c11.1,7.8,26.6,12,38.6,12.1l1.6-2.3
				C1039.3,1021.8,1033.5,1022.9,1029.9,1022.3z"/>
			<path fill="#D8D8D8" d="M1097.8,1000c5.2,6.7,19,20,28.5,29.8s26,28.7,32.5,34.4c6.4,5.7,8.8,7.9,13.1,11.5
				c4.3,3.6,12.3,9.9,12.3,9.9l8-2.3c0,0-11-6.6-16.3-12.2c-2.4-2.5-9.6-10.1-16.9-17.8c-0.7-0.6-1.5-1.2-2.1-1.8
				c-14.2-12.1-34.1-26.7-47.9-42.6c-9.1-10.4-16.5-18.1-20.5-22.2c-0.2,0.9-0.3,1.9-0.4,3.1C1092.2,993.7,1095.5,997,1097.8,1000z"
				/>
			<path fill="#D8D8D8" d="M1217.1,1097.3c-1.6-9.1-14.1-14.5-21.1-16.3s-17.3,2.4-28.3,13.7c-7.1,7.2-14,18-19.2,29.2
				c-1.7,8.5-1.7,11.6,0.6,14.4c3.2,4,6.7,7.9,9.2,9.4c1.1,0.6,3.7-1,6.4-3.1c1.6-4.5,3.7-9.2,6.5-13.9c14.7-24.3,29-31.3,29-31.3
				c5.3-3.5,15.7-3.8,12.1,8l4.7,3.1C1217.1,1110.4,1218.8,1106.5,1217.1,1097.3z"/>
			<path fill="#D8D8D8" d="M960.8,995.1c0.6,0.9,1.6,2,2.8,3.7c0.7,1,1.2,1.9,1.6,2.9c0.5-0.5,1-0.9,1.5-1.4
				c7-6.2,12.8-10.5,12.8-10.5l-3.8-4.1c-3.3,1.5-5.9,2.6-8,3.5C965.8,990.8,963.4,992.9,960.8,995.1z"/>
			<path fill="#D8D8D8" d="M958.4,997.2c-0.7,0.6-1.5,1.3-2.3,2c-9.8,8.4-30.2,32-41.3,43.9s-21.7,24.3-31.5,32.7
				c-9.8,8.4-26.3,27.4-26.3,27.4l12.5,12c17.1-19.1,37-47.3,47.3-58.3s24.8-27,31.3-35c5.3-6.5,9.7-12.4,14.8-17.8
				c-0.8-1.6-1.9-3.3-3.3-5.3C959.2,998.1,958.8,997.6,958.4,997.2z"/>
			<path fill="#D8D8D8" d="M948.2,997c-13.5,10.6-52.7,42-65.9,53.7c-13.1,11.7-46,44.9-46,44.9l10.8,4.8
				c20.6-22.9,48.6-52.5,62.2-65.2c13.6-12.7,33.4-29.6,42.4-37.4c1.1-1,2.3-1.9,3.6-2.9c-1-0.5-2.1-0.8-3.4-0.9
				C950.8,995,949.5,996,948.2,997z"/>
			<path fill="#D8D8D8" d="M941.9,997c-12.1,9-62.3,47.2-79.6,60.1c-3.5,2.6-7.1,5.3-10.7,7.9c-9.4,9.4-19.6,19.8-28.5,29.5l1.3,0.5
				c23.9-19.5,32.9-28.5,42-36.1s28-21.8,39.3-30.6c5.7-4.5,25.3-20.8,42.4-34c-1.2,0.2-2.5,0.6-4,1.1
				C943.3,995.9,942.6,996.5,941.9,997z"/>
			<path fill="#D8D8D8" d="M946.8,1182.8c0,0,4.6-0.9,12.8-2.9c-0.3-2.2-0.7-5-1-8.2c-6.4,1.9-10.2,3.3-11.9,4.4v6.7H946.8z"/>
			<path fill="#D8D8D8" d="M961.5,1081.8c0,0,0,13.5-1,26.1s-2.4,32-4.4,40.5c-2,8.6-4.9,22-4.9,22s2.8-0.8,7.2-2
				c-0.7-9.1-0.8-20.8,1.1-32.5c4.1-24.7,11.4-44.8,21.2-64.5c9.9-19.7,17.2-24.6,17.2-24.6c-9.5,2.4-15.8,5.1-21,9
				c-1.3,2-3,4.4-5.1,7.4C962.1,1076.8,961.5,1081.8,961.5,1081.8z"/>
			<path fill="#D8D8D8" d="M1150.2,1176.1c0-0.1,0-0.1,0.1-0.2c0.6-2.2,0.3-6.1-0.3-10.6c-0.2-1.5-0.6-2.6-1-3.4
				c-2.2-0.9-4.4-1.7-6.3-2.3c-1-0.3-2-0.6-3.2-0.9c0.5,2.1,0.8,4.2,1,6.2c0.1,1.6,0.2,3,0.3,4.3
				C1144.8,1171.1,1148,1173.3,1150.2,1176.1z"/>
			<path fill="#D8D8D8" d="M1088.7,1031c5,9.1,13.1,19.2,20.9,37.9s15.7,34.8,19.9,55.1c2.9,13.9,6.6,23.1,8.8,30.8
				c1.9,0.5,3.8,1,5.8,1.5c-0.3-0.4-0.5-0.9-0.8-1.9c-0.2-0.5-0.4-1-0.6-1.5l-0.4-0.2c0,0-0.1-0.7-0.3-1.9c-7-19.5-17.8-53-23.5-68
				c-4.3-11.1-12.9-29.3-18.3-41.1l0,0C1094.8,1035.7,1088.7,1031,1088.7,1031z"/>
			<path fill="#D8D8D8" d="M866.4,1107.1l9.5,8C873.3,1112.5,870.1,1109.8,866.4,1107.1z"/>
			<path fill="#D8D8D8" d="M828,1108c16.1,5.7,26.4,16.3,34.5,25.8s16.4,20.8,19.3,30.5c2.9,9.8,3.1,20.3,0,29.8
				s-3.5,16.4-11.5,19.4s-10.8,3.5-16.2,3c-5.4-0.6-11.5-4.7-7.7-0.7s14.6,2.8,21.5,1.6c6.9-1.2,11.6-8.8,14.2-16.3
				c2.6-7.5,2.2-9.2,4.5-12.8s5.2-7.5,7.2-13.9c1.1-3.5,0-17.5-1.3-29.3c-1.5-4.7-3.4-9.7-5.7-14.6c-2.1-4.6-5.4-9.9-10.9-15.5
				l-9.5-8c-3.5-2.5-7.5-5-12.2-7.4c-16.8-8.8-38.7-10.5-48.3-9c-7,9.2-9.2,13.1-9.8,14.3C795.2,1106.5,811.9,1102.2,828,1108z"/>
			<path fill="#D8D8D8" d="M1069.9,987.8c2.5-4.8,2.6-7.4,2.6-11.3c0.1-3.9-3.6-6.3-3.6-6.3s0.4,3.3-0.6,7.7s-2.4,5.1-1.8,1.6
				s0.8-7.7,0.8-9.9s-1-2.9-3.6-2.8c-2,0-3.1,0.7-5.2,3.6c0.4,3.8,0.1,9-0.1,15.4s-1.8,10-3.8,13.1c-0.5,2-1.3,4.3-2.6,6.6
				c-4.3,7.7-8.8,14.6-3.8,9.2c5-5.5,9.6-15.6,12.1-20.3s4-6,3.1-2.6s-7,15.3-13,22.4c-4.9,5.7-8.2,7.5-10.7,10c0.5,0,0.9,0,1.4-0.1
				c2.7-0.2,5.9-3.7,11.7-9.4c2.4-3.5,4.7-7,6.6-9.2C1064.2,999.6,1067.5,992.6,1069.9,987.8z"/>
			<path fill="#D8D8D8" d="M1029.9,1022.3c-3.6-0.6-10.2-2.3-14.5-4.5s-6.5-4.3-6.8-4.3c-0.2,0,6.8,3,12.4,5.2s12.6,2.4,15.6,2.1
				c3-0.3,4.3-0.6,6.8-5.1c0,0-7.2,0.1-13.6-1.9s-7.2-2.8-15.4-6s-9.2-4.8-12.2-8.5s-7.2-8.1-10.7-12.2c-1.8-2.1-3.8-5.8-5.4-9
				c-1.5-1.2-2.9-2.1-3.6-2c-2.6,0.1-3,1.7-2.1,6s4.9,7.7,6,10s-0.8,0.6-4.8-3.4s-3.5-7-4.3-8.5s-2.8-0.4-3.3,3.7
				c-0.1,0.8-0.2,1.7-0.1,2.7c5.1,7.3,15.6,18.7,25.2,25.5c11.1,7.8,26.6,12,38.6,12.1l1.6-2.3
				C1039.3,1021.8,1033.5,1022.9,1029.9,1022.3z"/>
			<path fill="#D8D8D8" d="M1097.8,1000c5.2,6.7,19,20,28.5,29.8s26,28.7,32.5,34.4c6.4,5.7,8.8,7.9,13.1,11.5
				c4.3,3.6,12.3,9.9,12.3,9.9l8-2.3c0,0-11-6.6-16.3-12.2c-2.4-2.5-9.6-10.1-16.9-17.8c-0.7-0.6-1.5-1.2-2.1-1.8
				c-14.2-12.1-34.1-26.7-47.9-42.6c-9.1-10.4-16.5-18.1-20.5-22.2c-0.2,0.9-0.3,1.9-0.4,3.1C1092.2,993.7,1095.5,997,1097.8,1000z"
				/>
			<path fill="#D8D8D8" d="M1217.1,1097.3c-1.6-9.1-14.1-14.5-21.1-16.3s-17.3,2.4-28.3,13.7c-7.1,7.2-14,18-19.2,29.2
				c-1.7,8.5-1.7,11.6,0.6,14.4c3.2,4,6.7,7.9,9.2,9.4c1.1,0.6,3.7-1,6.4-3.1c1.6-4.5,3.7-9.2,6.5-13.9c14.7-24.3,29-31.3,29-31.3
				c5.3-3.5,15.7-3.8,12.1,8l4.7,3.1C1217.1,1110.4,1218.8,1106.5,1217.1,1097.3z"/>
			<path fill="#D8D8D8" d="M960.8,995.1c0.6,0.9,1.6,2,2.8,3.7c0.7,1,1.2,1.9,1.6,2.9c0.5-0.5,1-0.9,1.5-1.4
				c7-6.2,12.8-10.5,12.8-10.5l-3.8-4.1c-3.3,1.5-5.9,2.6-8,3.5C965.8,990.8,963.4,992.9,960.8,995.1z"/>
			<path fill="#D8D8D8" d="M958.4,997.2c-0.7,0.6-1.5,1.3-2.3,2c-9.8,8.4-30.2,32-41.3,43.9s-21.7,24.3-31.5,32.7
				c-9.8,8.4-26.3,27.4-26.3,27.4l12.5,12c17.1-19.1,37-47.3,47.3-58.3s24.8-27,31.3-35c5.3-6.5,9.7-12.4,14.8-17.8
				c-0.8-1.6-1.9-3.3-3.3-5.3C959.2,998.1,958.8,997.6,958.4,997.2z"/>
			<path fill="#D8D8D8" d="M948.2,997c-13.5,10.6-52.7,42-65.9,53.7c-13.1,11.7-46,44.9-46,44.9l10.8,4.8
				c20.6-22.9,48.6-52.5,62.2-65.2c13.6-12.7,33.4-29.6,42.4-37.4c1.1-1,2.3-1.9,3.6-2.9c-1-0.5-2.1-0.8-3.4-0.9
				C950.8,995,949.5,996,948.2,997z"/>
			<path fill="#D8D8D8" d="M941.9,997c-12.1,9-62.3,47.2-79.6,60.1c-3.5,2.6-7.1,5.3-10.7,7.9c-9.4,9.4-19.6,19.8-28.5,29.5l1.3,0.5
				c23.9-19.5,32.9-28.5,42-36.1s28-21.8,39.3-30.6c5.7-4.5,25.3-20.8,42.4-34c-1.2,0.2-2.5,0.6-4,1.1
				C943.3,995.9,942.6,996.5,941.9,997z"/>
			<path fill="#D8D8D8" d="M946.8,1182.8c0,0,4.6-0.9,12.8-2.9c-0.3-2.2-0.7-5-1-8.2c-6.4,1.9-10.2,3.3-11.9,4.4v6.7H946.8z"/>
			<path fill="#D8D8D8" d="M961.5,1081.8c0,0,0,13.5-1,26.1s-2.4,32-4.4,40.5c-2,8.6-4.9,22-4.9,22s2.8-0.8,7.2-2
				c-0.7-9.1-0.8-20.8,1.1-32.5c4.1-24.7,11.4-44.8,21.2-64.5c9.9-19.7,17.2-24.6,17.2-24.6c-9.5,2.4-15.8,5.1-21,9
				c-1.3,2-3,4.4-5.1,7.4C962.1,1076.8,961.5,1081.8,961.5,1081.8z"/>
			<path fill="#D8D8D8" d="M1150.2,1176.1c0-0.1,0-0.1,0.1-0.2c0.6-2.2,0.3-6.1-0.3-10.6c-0.2-1.5-0.6-2.6-1-3.4
				c-2.2-0.9-4.4-1.7-6.3-2.3c-1-0.3-2-0.6-3.2-0.9c0.5,2.1,0.8,4.2,1,6.2c0.1,1.6,0.2,3,0.3,4.3
				C1144.8,1171.1,1148,1173.3,1150.2,1176.1z"/>
			<path fill="#D8D8D8" d="M1088.7,1031c5,9.1,13.1,19.2,20.9,37.9s15.7,34.8,19.9,55.1c2.9,13.9,6.6,23.1,8.8,30.8
				c1.9,0.5,3.8,1,5.8,1.5c-0.3-0.4-0.5-0.9-0.8-1.9c-0.2-0.5-0.4-1-0.6-1.5l-0.4-0.2c0,0-0.1-0.7-0.3-1.9c-7-19.5-17.8-53-23.5-68
				c-4.3-11.1-12.9-29.3-18.3-41.1l0,0C1094.8,1035.7,1088.7,1031,1088.7,1031z"/>
			<path fill="#D8D8D8" d="M866.4,1107.1l9.5,8C873.3,1112.5,870.1,1109.8,866.4,1107.1z"/>
			<path fill="#D8D8D8" d="M828,1108c16.1,5.7,26.4,16.3,34.5,25.8s16.4,20.8,19.3,30.5c2.9,9.8,3.1,20.3,0,29.8
				s-3.5,16.4-11.5,19.4s-10.8,3.5-16.2,3c-5.4-0.6-11.5-4.7-7.7-0.7s14.6,2.8,21.5,1.6c6.9-1.2,11.6-8.8,14.2-16.3
				c2.6-7.5,2.2-9.2,4.5-12.8s5.2-7.5,7.2-13.9c1.1-3.5,0-17.5-1.3-29.3c-1.5-4.7-3.4-9.7-5.7-14.6c-2.1-4.6-5.4-9.9-10.9-15.5
				l-9.5-8c-3.5-2.5-7.5-5-12.2-7.4c-16.8-8.8-38.7-10.5-48.3-9c-7,9.2-9.2,13.1-9.8,14.3C795.2,1106.5,811.9,1102.2,828,1108z"/>
			<path fill="#D8D8D8" d="M1069.9,987.8c2.5-4.8,2.6-7.4,2.6-11.3c0.1-3.9-3.6-6.3-3.6-6.3s0.4,3.3-0.6,7.7s-2.4,5.1-1.8,1.6
				s0.8-7.7,0.8-9.9s-1-2.9-3.6-2.8c-2,0-3.1,0.7-5.2,3.6c0.4,3.8,0.1,9-0.1,15.4s-1.8,10-3.8,13.1c-0.5,2-1.3,4.3-2.6,6.6
				c-4.3,7.7-8.8,14.6-3.8,9.2c5-5.5,9.6-15.6,12.1-20.3s4-6,3.1-2.6s-7,15.3-13,22.4c-4.9,5.7-8.2,7.5-10.7,10c0.5,0,0.9,0,1.4-0.1
				c2.7-0.2,5.9-3.7,11.7-9.4c2.4-3.5,4.7-7,6.6-9.2C1064.2,999.6,1067.5,992.6,1069.9,987.8z"/>
			<path fill="#D8D8D8" d="M1029.9,1022.3c-3.6-0.6-10.2-2.3-14.5-4.5s-6.5-4.3-6.8-4.3c-0.2,0,6.8,3,12.4,5.2s12.6,2.4,15.6,2.1
				c3-0.3,4.3-0.6,6.8-5.1c0,0-7.2,0.1-13.6-1.9s-7.2-2.8-15.4-6s-9.2-4.8-12.2-8.5s-7.2-8.1-10.7-12.2c-1.8-2.1-3.8-5.8-5.4-9
				c-1.5-1.2-2.9-2.1-3.6-2c-2.6,0.1-3,1.7-2.1,6s4.9,7.7,6,10s-0.8,0.6-4.8-3.4s-3.5-7-4.3-8.5s-2.8-0.4-3.3,3.7
				c-0.1,0.8-0.2,1.7-0.1,2.7c5.1,7.3,15.6,18.7,25.2,25.5c11.1,7.8,26.6,12,38.6,12.1l1.6-2.3
				C1039.3,1021.8,1033.5,1022.9,1029.9,1022.3z"/>
			<path fill="#D8D8D8" d="M1097.8,1000c5.2,6.7,19,20,28.5,29.8s26,28.7,32.5,34.4c6.4,5.7,8.8,7.9,13.1,11.5
				c4.3,3.6,12.3,9.9,12.3,9.9l8-2.3c0,0-11-6.6-16.3-12.2c-2.4-2.5-9.6-10.1-16.9-17.8c-0.7-0.6-1.5-1.2-2.1-1.8
				c-14.2-12.1-34.1-26.7-47.9-42.6c-9.1-10.4-16.5-18.1-20.5-22.2c-0.2,0.9-0.3,1.9-0.4,3.1C1092.2,993.7,1095.5,997,1097.8,1000z"
				/>
			<path fill="#D8D8D8" d="M1217.1,1097.3c-1.6-9.1-14.1-14.5-21.1-16.3s-17.3,2.4-28.3,13.7c-7.1,7.2-14,18-19.2,29.2
				c-1.7,8.5-1.7,11.6,0.6,14.4c3.2,4,6.7,7.9,9.2,9.4c1.1,0.6,3.7-1,6.4-3.1c1.6-4.5,3.7-9.2,6.5-13.9c14.7-24.3,29-31.3,29-31.3
				c5.3-3.5,15.7-3.8,12.1,8l4.7,3.1C1217.1,1110.4,1218.8,1106.5,1217.1,1097.3z"/>
			<path fill="#D8D8D8" d="M960.8,995.1c0.6,0.9,1.6,2,2.8,3.7c0.7,1,1.2,1.9,1.6,2.9c0.5-0.5,1-0.9,1.5-1.4
				c7-6.2,12.8-10.5,12.8-10.5l-3.8-4.1c-3.3,1.5-5.9,2.6-8,3.5C965.8,990.8,963.4,992.9,960.8,995.1z"/>
			<path fill="#D8D8D8" d="M958.4,997.2c-0.7,0.6-1.5,1.3-2.3,2c-9.8,8.4-30.2,32-41.3,43.9s-21.7,24.3-31.5,32.7
				c-9.8,8.4-26.3,27.4-26.3,27.4l12.5,12c17.1-19.1,37-47.3,47.3-58.3s24.8-27,31.3-35c5.3-6.5,9.7-12.4,14.8-17.8
				c-0.8-1.6-1.9-3.3-3.3-5.3C959.2,998.1,958.8,997.6,958.4,997.2z"/>
			<path fill="#D8D8D8" d="M948.2,997c-13.5,10.6-52.7,42-65.9,53.7c-13.1,11.7-46,44.9-46,44.9l10.8,4.8
				c20.6-22.9,48.6-52.5,62.2-65.2c13.6-12.7,33.4-29.6,42.4-37.4c1.1-1,2.3-1.9,3.6-2.9c-1-0.5-2.1-0.8-3.4-0.9
				C950.8,995,949.5,996,948.2,997z"/>
			<path fill="#D8D8D8" d="M941.9,997c-12.1,9-62.3,47.2-79.6,60.1c-3.5,2.6-7.1,5.3-10.7,7.9c-9.4,9.4-19.6,19.8-28.5,29.5l1.3,0.5
				c23.9-19.5,32.9-28.5,42-36.1s28-21.8,39.3-30.6c5.7-4.5,25.3-20.8,42.4-34c-1.2,0.2-2.5,0.6-4,1.1
				C943.3,995.9,942.6,996.5,941.9,997z"/>
			<path fill="#D8D8D8" d="M946.8,1182.8c0,0,4.6-0.9,12.8-2.9c-0.3-2.2-0.7-5-1-8.2c-6.4,1.9-10.2,3.3-11.9,4.4v6.7H946.8z"/>
			<path fill="#D8D8D8" d="M961.5,1081.8c0,0,0,13.5-1,26.1s-2.4,32-4.4,40.5c-2,8.6-4.9,22-4.9,22s2.8-0.8,7.2-2
				c-0.7-9.1-0.8-20.8,1.1-32.5c4.1-24.7,11.4-44.8,21.2-64.5c9.9-19.7,17.2-24.6,17.2-24.6c-9.5,2.4-15.8,5.1-21,9
				c-1.3,2-3,4.4-5.1,7.4C962.1,1076.8,961.5,1081.8,961.5,1081.8z"/>
			<path fill="#D8D8D8" d="M1150.2,1176.1c0-0.1,0-0.1,0.1-0.2c0.6-2.2,0.3-6.1-0.3-10.6c-0.2-1.5-0.6-2.6-1-3.4
				c-2.2-0.9-4.4-1.7-6.3-2.3c-1-0.3-2-0.6-3.2-0.9c0.5,2.1,0.8,4.2,1,6.2c0.1,1.6,0.2,3,0.3,4.3
				C1144.8,1171.1,1148,1173.3,1150.2,1176.1z"/>
			<path fill="#D8D8D8" d="M1088.7,1031c5,9.1,13.1,19.2,20.9,37.9s15.7,34.8,19.9,55.1c2.9,13.9,6.6,23.1,8.8,30.8
				c1.9,0.5,3.8,1,5.8,1.5c-0.3-0.4-0.5-0.9-0.8-1.9c-0.2-0.5-0.4-1-0.6-1.5l-0.4-0.2c0,0-0.1-0.7-0.3-1.9c-7-19.5-17.8-53-23.5-68
				c-4.3-11.1-12.9-29.3-18.3-41.1l0,0C1094.8,1035.7,1088.7,1031,1088.7,1031z"/>
			<path fill="#D8D8D8" d="M866.4,1107.1l9.5,8C873.3,1112.5,870.1,1109.8,866.4,1107.1z"/>
			<path fill="#D8D8D8" d="M828,1108c16.1,5.7,26.4,16.3,34.5,25.8s16.4,20.8,19.3,30.5c2.9,9.8,3.1,20.3,0,29.8
				s-3.5,16.4-11.5,19.4s-10.8,3.5-16.2,3c-5.4-0.6-11.5-4.7-7.7-0.7s14.6,2.8,21.5,1.6c6.9-1.2,11.6-8.8,14.2-16.3
				c2.6-7.5,2.2-9.2,4.5-12.8s5.2-7.5,7.2-13.9c1.1-3.5,0-17.5-1.3-29.3c-1.5-4.7-3.4-9.7-5.7-14.6c-2.1-4.6-5.4-9.9-10.9-15.5
				l-9.5-8c-3.5-2.5-7.5-5-12.2-7.4c-16.8-8.8-38.7-10.5-48.3-9c-7,9.2-9.2,13.1-9.8,14.3C795.2,1106.5,811.9,1102.2,828,1108z"/>
			<path fill="#D8D8D8" d="M1069.9,987.8c2.5-4.8,2.6-7.4,2.6-11.3c0.1-3.9-3.6-6.3-3.6-6.3s0.4,3.3-0.6,7.7s-2.4,5.1-1.8,1.6
				s0.8-7.7,0.8-9.9s-1-2.9-3.6-2.8c-2,0-3.1,0.7-5.2,3.6c0.4,3.8,0.1,9-0.1,15.4s-1.8,10-3.8,13.1c-0.5,2-1.3,4.3-2.6,6.6
				c-4.3,7.7-8.8,14.6-3.8,9.2c5-5.5,9.6-15.6,12.1-20.3s4-6,3.1-2.6s-7,15.3-13,22.4c-4.9,5.7-8.2,7.5-10.7,10c0.5,0,0.9,0,1.4-0.1
				c2.7-0.2,5.9-3.7,11.7-9.4c2.4-3.5,4.7-7,6.6-9.2C1064.2,999.6,1067.5,992.6,1069.9,987.8z"/>
			<path fill="#D8D8D8" d="M1029.9,1022.3c-3.6-0.6-10.2-2.3-14.5-4.5s-6.5-4.3-6.8-4.3c-0.2,0,6.8,3,12.4,5.2s12.6,2.4,15.6,2.1
				c3-0.3,4.3-0.6,6.8-5.1c0,0-7.2,0.1-13.6-1.9s-7.2-2.8-15.4-6s-9.2-4.8-12.2-8.5s-7.2-8.1-10.7-12.2c-1.8-2.1-3.8-5.8-5.4-9
				c-1.5-1.2-2.9-2.1-3.6-2c-2.6,0.1-3,1.7-2.1,6s4.9,7.7,6,10s-0.8,0.6-4.8-3.4s-3.5-7-4.3-8.5s-2.8-0.4-3.3,3.7
				c-0.1,0.8-0.2,1.7-0.1,2.7c5.1,7.3,15.6,18.7,25.2,25.5c11.1,7.8,26.6,12,38.6,12.1l1.6-2.3
				C1039.3,1021.8,1033.5,1022.9,1029.9,1022.3z"/>
		</g>
		<path fill="#F9C92B" d="M1056.2,1044.3c2.2,8.2,7.1,21.3,13.6,27.1s14.8,4.5,17.4,0s4.5-10.6,4.8-22.2s-1.6-12.9-4.8-10.2
			c-3.3,2.6-10.5,4.1-13.1,0.3c0,0-3.2,5.5-6.4,5.6C1064.5,1045,1055.8,1042.8,1056.2,1044.3z"/>
	</g>
	<path fill="#757677" d="M872.3,1156.6c8,18.9,12.7,54.4-8.2,57.7c-20.8,3.3-26.7-4.5-28.7-7.5c0,0,14.2-20.8,19.2-27
		C859.7,1173.7,872.3,1156.6,872.3,1156.6z"/>
	<path fill="#757677" d="M1160.5,1180c0.5,12.7,0.8,26.7,8.2,27c7.3,0.3,9.3-7.3,9.3-7.3s-10.3-11.3-12-13.3
		S1160.5,1180,1160.5,1180z"/>
</g>
</svg>
