<?xml version="1.0" encoding="utf-8"?>
<!-- Generator: Adobe Illustrator 21.0.2, SVG Export Plug-In . SVG Version: 6.00 Build 0)  -->
<svg version="1.1" id="_x32_0_x5F_Top_x5F_GitHubPride_x5F_Shirts"
	 xmlns="http://www.w3.org/2000/svg" xmlns:xlink="http://www.w3.org/1999/xlink" x="0px" y="0px" viewBox="0 0 2000 2000"
	 enable-background="new 0 0 2000 2000" xml:space="preserve">
<g>
	<path fill="#585858" d="M1174.4,1063.2c-0.4-0.3-0.7-0.5-1.1-0.7c-3.9-2.5-8.1-2.4-8.1-2.4s-0.4-0.3-1.2-1
		c-4.4-3.6-20.5-16.9-36.2-30.8c-18.5-16.3-33.5-29.7-39.1-35.5s-5.9-6.3-9.7-10c-3.8-3.7-11.9-11.7-11.9-11.7s0.3-0.8-0.7-2.6
		c-0.5-0.8-1.2-1.9-2.5-3.2c-0.5-0.5-1-1-1.5-1.5c-4.7-4.5-9.1-6.8-9.1-6.8s0.2,2.3-0.6,9.1c-0.6,5.2-4.5,10-10.6,12.8
		c-0.2,0.1-0.5,0.2-0.7,0.3c-2.4,1.1-5.1,1.8-8,2.2c-0.1,0-0.2,0-0.3,0c-0.2,0-0.4,0-0.5,0.1c-2.7,0.3-5.2,0.5-7.7,0.5
		c-0.3,0-0.6,0-0.9,0c-6.2-0.1-11.8-1.6-16.8-5.3c-0.6-0.4-1.2-0.9-1.8-1.4c-0.1-0.1-0.2-0.1-0.3-0.2c-1.7-1.5-3.2-3-4.7-4.4
		c-5.3-5.4-8.8-10.3-8.8-10.3s-3.5-0.2-11,5c-4.5,3.1-18.1,13.5-32.2,24.5c-0.2,0.2-0.5,0.4-0.7,0.6c-2.1,1.7-4.3,3.3-6.4,5
		c-1.9,1.5-3.8,3-5.6,4.4c-0.1,0.1-0.3,0.2-0.4,0.3c-2.4,1.9-4.7,3.8-6.9,5.5c-2.1,1.7-4,3.2-5.8,4.7c-0.2,0.2-0.4,0.3-0.6,0.5
		c-0.5,0.4-1.1,0.9-1.6,1.3c-1.4,1.2-2.8,2.4-4.3,3.6c-1.8,1.5-3.6,3-5.4,4.6c-1.3,1.1-2.5,2.1-3.8,3.2c-0.6,0.6-1.3,1.1-1.9,1.7
		c-0.9,0.8-1.9,1.6-2.8,2.4c-3.2,2.8-6.3,5.5-9.1,8c-6.9,6-12.2,10.8-13.8,12.2c-0.3,0.3-0.5,0.5-0.5,0.5s-4.1-0.7-8.2-0.2
		c-0.7,0.1-1.5,0.2-2.2,0.4c-4.7,1.1-11.9,9.7-16.5,14.1s-5.3,7.2-4.4,12c0,0,2-1.3,5-2.7c4.2-2,10.3-4.2,15.5-3.4
		c9,1.4,17.9,4.2,24.1,18.1c6.2,13.8,9.6,27.8,8.8,32.5c-0.5,3-14,19.5-14,19.5s4.7,8.4,9.2,10.5c4.5,2,9.8,0.2,16.8-8.6
		c7-8.8,7.4-13,7.9-18.2l1.6-1.8l9.8-10.6l1.4-1.5l9.1-9.8l4.9-5.3l0.3-0.4c0,0-0.1,0.3-0.2,0.8c-0.5,2.1-1.8,7.8-3.2,14.9
		c-0.9,4.5-1.9,9.6-2.7,14.6c-0.4,2.2-0.7,4.5-0.9,6.6c-2.1,16.3-5.3,28-10.3,45.2s-5.5,20.3-6.1,22.7s2.6,5,12.4,5.1
		c0,0,1.2-6.9,28.7-20.8c5.6-2.8,12.5-5.6,20.1-8.1c5.6-1.9,11.6-3.6,17.7-5.2c1.4-0.4,2.9-0.8,4.3-1.1c2.3-0.6,4.5-1.1,6.8-1.7
		c2-0.5,4.1-0.9,6.1-1.4c2.6-0.6,5.1-1.1,7.6-1.6c1-0.2,1.9-0.4,2.9-0.6c3.7-0.7,7.4-1.4,10.8-1.9c1.4-0.2,2.8-0.4,4.2-0.6
		c3.8-0.6,7.3-1,10.5-1.3c1.8-0.2,3.5-0.3,5.1-0.4c3.2-0.2,6-0.3,8.1-0.2c1.9,0.1,4,0.3,6.2,0.5c0.5,0,0.9,0.1,1.4,0.1
		c4.5,0.5,9.4,1.2,14.5,2c15.3,2.5,31.4,6,38.6,8.2c11.1,3.3,17.3,8.5,18.5,14.4c0,0,1.5,0.5,5.5-2.5c0.5-0.4,0.9-0.7,1.3-1.1
		c2.6-2.5,2.2-4.7,0.2-12.9c-2.3-9.5-6.6-11.4-8.9-14c-2.1-2.5-9.5-28.2-10.2-30.6c0-0.1-0.1-0.2-0.1-0.2s-2.5-11.7,7.8-28.8
		c10.4-17.1,26-16.3,32.3-12.9c0,0,1-0.6,2.2-3.7c0.3-0.9,0.6-2,0.9-3.3C1181.1,1069,1178.6,1066.4,1174.4,1063.2z"/>
	<path fill="#6F24B3" d="M926.5,1060.3c-3.7-6-12.4-15.7-33.5-24.5c-8.3,7.2-14.3,12.6-14.3,12.6c18.4,2.3,28.7,10.6,36.3,21.1
		c7,9.6,16.1,30,18.5,38.9l9.1-9.8C940,1091.6,929.9,1065.8,926.5,1060.3z"/>
	<path fill="#6F24B3" d="M997.5,1162c-3.6-5.9-12.7-18.7-28.3-34.9c-11.9-12.3-21-17-24.7-18.5c-0.9,4.5-1.9,9.6-2.7,14.6
		c1.4,1.1,3,2.4,4.9,3.9c14.4,11.2,28.4,36.1,38.9,46.9c5.6-1.9,11.6-3.6,17.7-5.2C1001.6,1167.2,999.3,1165,997.5,1162z"/>
	<path fill="#2471B3" d="M983.1,1116.5c-15.3-16.2-32.5-26-32.5-26s1.2-4.4-3.9-12.9c-4.6-7.8-23.8-33.2-41.9-52.2
		c-0.9,0.8-1.9,1.6-2.8,2.4c-3.2,2.8-6.3,5.5-9.1,8c21.1,8.8,29.8,18.5,33.5,24.5c3.4,5.5,13.5,31.3,16.2,38.2l4.9-5.3l0.3-0.4
		c0,0-0.1,0.3-0.2,0.8c-0.5,2.1-1.8,7.8-3.2,14.9c3.7,1.5,12.8,6.2,24.7,18.5c15.7,16.2,24.8,29,28.3,34.9c1.8,3,4.1,5.2,5.9,6.7
		c1.4-0.4,2.9-0.8,4.3-1.1c2.3-0.6,4.5-1.1,6.8-1.7C1009.8,1156.7,995.7,1129.8,983.1,1116.5z"/>
	<path fill="#1C7421" d="M989.5,1104.2c-17.8-20-31.8-27.2-31.8-27.2s-11.8-30.8-17.8-38.4c-5.2-6.6-15.8-16.1-29.3-18.1
		c-1.3,1.1-2.5,2.1-3.8,3.2c-0.6,0.6-1.3,1.1-1.9,1.7c18,19.1,37.2,44.4,41.9,52.2c5,8.5,3.9,12.9,3.9,12.9s17.2,9.7,32.5,26
		c12.5,13.3,26.7,40.1,31.4,49.4c2-0.5,4.1-0.9,6.1-1.4c2.6-0.6,5.1-1.1,7.6-1.6C1024.3,1155.8,1005.4,1122,989.5,1104.2z"/>
	<path fill="#E5EA12" d="M1026,1136.8c-7.8-11.2-23.8-33.5-37-47.8s-25.8-19.5-25.8-19.5s-11.4-23.9-16.8-33
		c-4.9-8.3-12.2-15.2-26-24.1c-1.4,1.2-2.8,2.4-4.3,3.6c-1.8,1.5-3.6,3-5.4,4.6c13.4,2,24,11.5,29.3,18.1c6,7.6,17.8,38.4,17.8,38.4
		s14,7.2,31.8,27.2c15.9,17.8,34.8,51.6,38.7,58.8c1-0.2,1.9-0.4,2.9-0.6c3.7-0.7,7.4-1.4,10.8-1.9
		C1034.1,1154.8,1033,1146.9,1026,1136.8z"/>
	<path fill="#EABB12" d="M1000,1084.7c-15.5-17-31.5-27.5-31.5-27.5c-7-25.9-23.4-42.8-40.1-51.4c-2.1,1.7-4,3.2-5.8,4.7
		c-0.2,0.2-0.4,0.3-0.6,0.5c-0.5,0.4-1.1,0.9-1.6,1.3c13.8,8.9,21.1,15.8,26,24.1c5.4,9.2,16.8,33,16.8,33s12.7,5.3,25.8,19.5
		c13.2,14.3,29.2,36.6,37,47.8c7,10.1,8.1,18,15.9,23.7c1.4-0.2,2.8-0.4,4.2-0.6c3.8-0.6,7.3-1,10.5-1.3
		C1047.1,1145.5,1013.3,1099.2,1000,1084.7z"/>
	<path fill="#EA6E12" d="M1050.2,1124.4c-20.7-22.7-49.7-57.3-71.8-68.4c-0.6-0.3-1.1-0.6-1.7-0.8c0,0-0.1-0.8-0.4-2.3
		c-1.2-5.2-5.3-18.6-18.4-34.6c-8.7-10.6-16.6-15.8-22.2-18.3c-0.1,0.1-0.3,0.2-0.4,0.3c-2.4,1.9-4.7,3.8-6.9,5.5
		c16.7,8.6,33,25.5,40.1,51.4c0,0,16.1,10.5,31.5,27.5c13.2,14.5,47.1,60.8,56.6,73.9c1.8-0.2,3.5-0.3,5.1-0.4
		c3.2-0.2,6-0.3,8.1-0.2c1.9,0.1,4,0.3,6.2,0.5C1073.4,1153.6,1066.2,1141.8,1050.2,1124.4z"/>
	<path fill="#EA2B12" d="M1091.8,1154c-3.1-3.5-34.1-47.1-56.5-69.2s-55.8-48.2-55.8-48.2c-6.1-18.1-14.6-32.7-31.8-46
		c-2.1,1.7-4.3,3.3-6.4,5c-1.9,1.5-3.8,3-5.6,4.4c5.6,2.5,13.5,7.7,22.2,18.3c13.1,16,17.2,29.5,18.4,34.6c0.7,1,1.4,2.1,2.1,3.1
		c22.1,11.2,51.1,45.7,71.8,68.4c15.9,17.4,23.1,29.2,25.8,34c0.5,0,0.9,0.1,1.4,0.1c4.5,0.5,9.4,1.2,14.5,2
		C1092.8,1158.4,1093.4,1155.8,1091.8,1154z"/>
	<path fill="#EA2B12" d="M978.4,1056c-0.7-1-1.4-2-2.1-3.1c0.3,1.5,0.4,2.3,0.4,2.3C977.3,1055.4,977.9,1055.7,978.4,1056z"/>
	<path opacity="0.3" fill="#091426" enable-background="new    " d="M921.1,1107.1c-1.2-8.6-3.7-17.2-7.4-25
		c-0.3-0.7-1.3-0.2-1.2,0.5c1.1,7.9,3.3,15.6,4.3,23.5c0.5,3.9,0.8,7.9,0.6,11.8c0,0.5-0.1,1-0.1,1.5c-1-0.4-2.1-0.5-3.2-0.3
		c-1.4,0.3-2.8,0.5-4.2,0.6c0.2,0-3.5,0.4-3.8,0.6c-0.1-0.4-0.1-0.8-0.2-1.3c-0.2-1.5-0.5-3-0.7-4.5c-1-5-2.3-10-3.9-14.9
		c-3-8.9-6.9-18.2-13-25.4c-5.7-6.6-14.5-10.6-23.2-11c-3.7-0.1-7.6,1-10.2,3.7c-1.5,1.5-2.1,3.1-2.4,4.8c4.2-2,10.3-4.2,15.5-3.4
		c9,1.4,17.9,4.2,24.1,18.1c6.2,13.8,9.6,27.8,8.8,32.5c-0.5,3-14,19.5-14,19.5s4.7,8.4,9.2,10.5c4.5,2,9.8,0.2,16.8-8.6
		c7-8.8,7.4-13,7.9-18.2l1.6-1.8C922.4,1115.8,921.7,1110.9,921.1,1107.1z M906.1,1120.5L906.1,1120.5
		C906.1,1120.4,906.2,1120.4,906.1,1120.5C906.3,1121.2,906.2,1121.3,906.1,1120.5z"/>
	<path opacity="0.3" fill="#091426" enable-background="new    " d="M890,1056.3c0.7,0.4,1.4-0.5,0.8-1.1c-3.2-3-7.4-5.4-11.6-7.2
		c-0.3,0.3-0.5,0.5-0.5,0.5s-4.1-0.7-8.2-0.2c0.8,0.1,1.6,0.3,2.4,0.4C879.3,1050,884.4,1053,890,1056.3z"/>
	<path opacity="0.3" fill="#091426" enable-background="new    " d="M1145.2,1167.9c-8-2.8-16-5.3-24.1-7.6
		c-15.9-4.5-32.2-7.9-48.7-8.6c-33.1-1.4-65.7,8-96.3,19.6c-9.5,3.6-20,7.7-29.2,13.3c0-1,0-1.9,0-2.9c0.1-2.5,0.2-5,0.2-7.6
		c2.7-1.3,5-3.4,7.6-4.7c3.8-1.9,8.2-3,12.2-4.4c8.3-2.8,16.7-5.3,25.2-7.5c16.8-4.2,34.1-7.3,51.4-8.2c16.9-0.9,34-1,50.9,0.6
		c8.8,0.8,17.5,2.4,26.3,4.1c4.2,0.8,8.5,1,12.7,1.8c4.3,0.8,8.4,2.4,12.8,2.2c0.8,0,1.1-1.1,0.4-1.5c-3.7-2.5-8-3.1-12.2-4.3
		c-4.7-1.3-9.2-3-14-3.9c-8.6-1.6-17.3-2.5-26-3.4c-18.3-1.8-36.3-2-54.5-0.4c-17.7,1.6-35.4,4.6-52.6,9.2
		c-8.6,2.3-17.3,4.9-25.6,8.4c-4.2,1.8-10.8,4.6-14.6,8.5c0-0.2,0-0.4,0-0.5c0.3-8.7,0.7-17.3,1.3-26c0.6-8.3,1.3-16.6,2.3-24.9
		c0.7-5.6,2.9-13.1,2.5-19.4c1.6-7.5,3.5-14.8,5.9-22c3.1-9.2,7.1-18.1,11.7-26.7c4.4-8.3,10.2-15.9,14.3-24.3
		c0.2-0.4,0.2-0.8,0-1.1c-0.1-0.8-1.2-1.3-2-0.6c-10.9,9.1-19.3,21.2-28.8,31.6c-9.4,10.4-19.1,20.5-28.2,31.2
		c-0.4,0.5-0.3,1.1,0.1,1.5c1.5,3.6,3.5,6.9,4.6,10.8c0.9,3.2,0.9,6.5,1.1,9.7l1.4-1.5l9.1-9.8l4.9-5.3l0.3-0.4c0,0-0.1,0.3-0.2,0.8
		c-0.5,2.1-1.8,7.8-3.2,14.9c-0.9,4.5-1.9,9.6-2.7,14.6c-0.4,2.2-0.7,4.5-0.9,6.6c-2.1,16.3-5.3,28-10.3,45.2s-5.5,20.3-6.1,22.7
		s2.6,5,12.4,5.1c0,0,1.2-6.9,28.7-20.8c5.6-2.8,12.5-5.6,20.1-8.1c5.6-1.9,11.6-3.6,17.7-5.2c1.4-0.4,2.9-0.8,4.3-1.1
		c2.3-0.6,4.5-1.1,6.8-1.7c2-0.5,4.1-0.9,6.1-1.4c2.6-0.6,5.1-1.1,7.6-1.6c1-0.2,1.9-0.4,2.9-0.6c3.7-0.7,7.4-1.4,10.8-1.9
		c1.4-0.2,2.8-0.4,4.2-0.6c3.8-0.6,7.3-1,10.5-1.3c1.8-0.2,3.5-0.3,5.1-0.4c3.2-0.2,6-0.3,8.1-0.2c1.9,0.1,4,0.3,6.2,0.5
		c0.5,0,0.9,0.1,1.4,0.1c4.5,0.5,9.4,1.2,14.5,2c15.3,2.5,31.4,6,38.6,8.2c11.1,3.3,17.3,8.5,18.5,14.4c0,0,1.5,0.5,5.5-2.5
		c0.5-0.4,0.9-0.7,1.3-1.1c-0.1-0.6-0.3-1.3-0.5-1.9C1155,1172,1150,1169.6,1145.2,1167.9z"/>
	<path opacity="0.3" fill="#091426" enable-background="new    " d="M1164.7,1073.5c-5.6,1.8-10.5,5.3-14.6,9.5
		c-3.4,3.4-7.3,7.7-9.5,12.2c-1.2-0.6-2.5-1.2-3.5-2.2c-0.2-0.2-0.3-0.3-0.5-0.5c-1.5-2.8-2.9-5.6-4.3-8.4c0.2-1.1,0.2-2.1,0.4-3.2
		c0.3-1.6,0.7-3.4,1.4-4.8c0.3-0.7,4-3.9,2.4-4.9c-0.1-0.1-0.2-0.1-0.3-0.2c-0.4-0.2-0.9-0.2-1.3,0c-1.9,1.2-3.9,2.8-5.4,4.7
		c-0.4-0.8-0.9-1.5-1.5-2.4c-1.1-1.7-2.3-3.4-3.4-5.1c-1.6-2.8-3.3-5.5-5.3-7.8c-4.5-6.4-8.8-13-13.2-19.5
		c-4.1-6.1-7.8-12.2-12.8-17.6c-4-6.3-8.1-12.6-12.1-18.9c-0.3-0.4-0.9-0.1-0.7,0.4c5.6,11,10.9,22,16.5,32.9
		c5.7,10.9,11.3,21.8,16.8,32.7c5.4,11,10.5,22.2,15.1,33.6c2.4,5.9,4.7,12.3,7.9,18.1c0-0.1-0.1-0.2-0.1-0.2s-2.5-11.7,7.8-28.8
		c10.4-17.1,26-16.3,32.3-12.9c0,0,1-0.6,2.2-3.7c-2.4-0.7-3.6-2.8-6.1-3.6C1170.4,1071.9,1167.3,1072.6,1164.7,1073.5z"/>
	<path opacity="0.3" fill="#091426" enable-background="new    " d="M1165.2,1060c0,0-0.4-0.3-1.2-1c-2.8,1.3-5.5,3-7.8,4.4
		c-0.3,0.2-0.2,0.8,0.2,0.8c5.1-0.4,10.5-2.1,15.6-1.9c0.4,0,0.9,0.1,1.4,0.1C1169.4,1059.9,1165.2,1060,1165.2,1060z"/>
	<path opacity="0.3" fill="#091426" enable-background="new    " d="M979.7,983.6c3.1-0.6,7.5-1.2,10.6-3c1.5,1.8,3.1,3.5,4.6,5
		c3.3,3.4,6.9,6.5,11,9c9.1,5.6,21.5,9,32.2,8.1c6.4-0.6,12.5-3.5,17.3-7.7c0.3,0,0.6-0.2,0.7-0.5c0-0.1,0.1-0.2,0.1-0.3
		c3.1-2.9,5.7-6.4,7.5-10.2c0.5-0.3,0.9-0.9,0.7-1.6c1.8-4.4,2.6-9.1,2-13.8c-0.5-0.8-1.2-1.9-2.5-3.2c-0.5-0.5-1-1-1.5-1.5
		c1.6,5.7,2.1,11.2,0.8,16.4c-0.5-0.7-1.2-1.2-1.9-1.6c-0.6-0.3-1.3-0.4-2-0.6c-0.7-0.2-1.4-0.4-2.1-0.6c-0.4-0.1-0.6,0.5-0.3,0.6
		c0.6,0.3,1.2,0.6,1.7,1.1c0.4,0.4,0.5,0.8,0.8,1.2c0.6,1,1.5,1.9,2.2,2.9c0.1,0.1,0.2,0.3,0.4,0.4c-1,2.4-2.5,4.7-4.5,6.9
		c-0.4,0.4-0.8,0.8-1.2,1.2c-0.5-2.4-3-4.5-5-5.9c-1.9-1.3-3.7-2.6-5.5-4c-1.3-1-2.4-2.2-3.7-3.1c-0.2,0.1-0.5,0.2-0.7,0.3
		c0.7,0.7,1.5,1.1,2.4,1.9c1.4,1.2,2.6,2.7,3.7,4s1.9,2.8,3,4c1.2,1.4,3,2.8,3.5,4.7c-4.8,3.7-10.6,5.3-16.6,5.6
		c-0.3-2.6-0.9-5.1-1.9-7.5c-1.5-3.5-1.3-7-2.2-10.5c-0.1,0-0.2,0-0.3,0c-0.2,0-0.4,0-0.5,0.1c0.8,5.9,1,12,1.7,17.9
		c-0.8,0-1.5-0.1-2.3-0.1c-2-0.2-4.1-0.4-6.1-0.8c-0.3-1.8-1.5-4-1.8-5.1c-1-4-0.3-7.5,0.8-11.3c-0.3,0-0.6,0-0.9,0
		c-1.5,3.3-2.8,6.9-2.9,10.5c0,1.1,0.1,3.3,0.6,5.1c-2.8-0.7-5.5-1.7-8.2-2.8l0,0c-0.4-2-1-3.9-1.2-5.9c-0.2-1.8,0.5-3.5,0-5.3
		c-0.1-0.3-0.4-0.2-0.5,0c-0.9,2.8-2.3,6.4-1.8,9.5c-1.3-0.7-2.6-1.4-3.9-2.3c-1.2-0.8-2.4-1.7-3.5-2.6c-0.1-1.3-0.2-2.6-0.3-3.9
		c-0.1-1.2,0.3-2.4,0.1-3.6c0-0.2-0.3-0.2-0.4-0.1c-1,0.8-1.5,2.5-1.9,3.7c-0.2,0.5-0.2,1-0.3,1.5c-1.4-1.2-2.7-2.5-3.9-3.9
		c-1.1-1.2-2.1-2.6-3.1-3.9c0.8-1.2,1.2-2.6,2-3.9c1.3-2.1,3.3-3.1,5.6-3.6c-5.3-5.4-8.8-10.3-8.8-10.3s-3.5-0.2-11,5
		c-4.5,3.1-18.1,13.5-32.2,24.5c4.8-2.4,8.9-4.8,14.7-5C968.7,984.8,974.2,984.6,979.7,983.6z"/>
	<path opacity="0.3" fill="#091426" enable-background="new    " d="M1004.2,977.4c-0.1,0.3,0,0.3-0.1,0.7c0,0.1,0,0.1,0.1,0.1
		c0.1-0.1,0.4-0.1,0.5-0.2c0.2-0.2,0.3-0.4,0.6-0.6c0.5-0.3,0.8-0.2,1.4-0.3c0.2,0,0.4-0.1,0.6-0.2c-0.6-0.4-1.2-0.9-1.8-1.4
		c-0.2,0.3-0.4,0.7-0.6,1.1C1004.6,976.8,1004.3,977.1,1004.2,977.4z"/>
</g>
</svg>
