<?xml version="1.0" encoding="utf-8"?>
<!-- Generator: Adobe Illustrator 21.0.2, SVG Export Plug-In . SVG Version: 6.00 Build 0)  -->
<svg version="1.1" id="_x32_1_x5F_Top_x5F_TankTop_x5F_Shirt"
	 xmlns="http://www.w3.org/2000/svg" xmlns:xlink="http://www.w3.org/1999/xlink" x="0px" y="0px" viewBox="0 0 2000 2000"
	 enable-background="new 0 0 2000 2000" xml:space="preserve">
<g>
	<g>
		<g>
			<path fill="#B59F72" d="M1144.8,1222.5c-10.8,10.9-38.8,30.3-82.8,21.1c-14.2-3-28.1-7.2-41-11.8c-26.9-9.4-49.6-20.1-62.7-23.2
				c-19.3-4.5-27.8,7.5-27.8,7.5c-4.4-1.5-6.1-5.6-4.1-9.8s3.3-6.6,3.3-6.6c1.1-14.9,12.1-57.3,14.5-68.4s11.6-47.8,13.5-58.3
				c1.9-10.4,4.7-9,4.7-9s1.1,1.8,6.2,1.2c5.1-0.6,8.1-10,9.7-17c1.6-7,2.1-24.3,0.3-40c-1.9-15.7-6.6-27.6-6.6-27.6
				c3.2-4,11.9-9.2,11.9-9.2s2.8,6.3,12.3,23.4s28.9,29.9,43.5,33.5c10.3,2.6,19.2-8.6,23.8-20.7c1.9-5,3.1-10.3,3.3-14.8
				c0.5-9.5-6.4-24-4-24.1s9.1,3.9,14,9.4c4.9,5.4,5.7,8.3,7.6,16.6c1.8,8.2,6.3,23,10.2,36.1c5,16.5,18.7,43.4,30.7,70.7
				c11.9,27.3,32,86.5,32,86.5C1170.2,1198.7,1155.7,1211.6,1144.8,1222.5z"/>
		</g>
		<g>
			<path fill="none" d="M1010.1,1221.7c1.3,0.2,2.8,0.4,4.7,0.7c0,0-1.4-0.8-4.2-2.4c0,0.1,0,0.1,0,0.2
				C1010.7,1220.9,1010.5,1221.4,1010.1,1221.7z"/>
			<path fill="#FFDB93" d="M1157.4,1190.7c-0.6,1.3-4,4.5-4.8,5.6c-1.1,1.6-3.7,0.1-2.6-1.5c1-1.4,5.9-5.1,6.5-6.7l-0.6-1.9
				c0,0-18.3-57.2-30.2-84.5c-11.9-27.3-25.7-54.2-30.7-70.7c-3.9-13-8.4-27.8-10.2-36.1s-2.7-11.1-7.6-16.6s-11.6-9.5-14-9.4
				s4.5,14.5,4,24.1c-0.2,4.5-1.4,9.7-3.3,14.8c1.1,3.2,1.5,7.9-1,13.9c-5.1,12.1-16.9,15.5-33,11.7c-16-3.8-25.4-14.3-36.7-27.8
				c-11.2-13.5-11.9-18.5-13.3-19.9c-1.5-1.4-2.5,2.4,1.1,9.3c3.6,7,3.2,17,4.3,36.5c1.2,19.6-4.5,29.6-8.8,34.4
				c-4.3,4.9-6.7,6.6-4,6.4c2.7-0.1,7.1-1.2,12.6-8.3c5.5-7.1,5.5-7.7,5.5-3c0,4.6-4.8,10.1-13,14.7c-8.3,4.6-6.9,5.1-2,6.1
				s6.5,1.1,4.5,3.7c-1.9,2.6-5.2,5.3-5.2,5.3c-0.1,7.2,3.5,39.7,2.2,78.4s3.6,34.6,17.2,41.9c5.3,2.8,9.5,5.1,12.7,6.9
				c0.5,0.2,1.1,0.5,1.6,0.7c0.7-0.3,1.6,0,1.8,1c0,0.1,0,0.2,0,0.2c2.8,1.6,4.2,2.4,4.2,2.4c-1.8-0.3-3.4-0.6-4.7-0.7
				c-0.4,0.4-1.1,0.5-1.7,0.2c-0.4-0.2-0.7-0.3-1.1-0.5c-5.6-0.2,0.9,3.4,13.7,10.4c12.9,4.5,26.7,8.8,41,11.8
				c44,9.2,72-10.2,82.9-21.1C1154.9,1212.3,1166.2,1200.5,1157.4,1190.7z"/>
			<path fill="#FDB34F" d="M1152.6,1196.3c0.8-1.2,5.3-6,5.9-7.3c-0.7-0.8-0.8-1.6-1.6-2.4c-0.6,1.6-5.8,6.8-6.9,8.2
				C1148.9,1196.4,1151.5,1197.9,1152.6,1196.3z"/>
			<path fill="#B38648" d="M1010.1,1221.7c-1.2-0.2-2.1-0.2-2.8-0.3c-3.3-1.4-6.6-2.9-9.8-4.6c-1.7-0.9-0.2-3.4,1.5-2.6
				c2.7,1.3,5.4,2.6,8.1,3.8c0.5,0.3,1,0.5,1.4,0.8c0.4,0.2,0.8,0.4,1.1,0.6s0.6,0.3,0.9,0.5c0,0.1,0,0.1,0,0.2
				C1010.7,1220.9,1010.5,1221.4,1010.1,1221.7z"/>
			<path fill="#FDB34F" d="M1008.7,1218.8c-0.5-0.2-1.1-0.5-1.6-0.7c0.5,0.3,1,0.6,1.4,0.8
				C1008.6,1218.9,1008.6,1218.9,1008.7,1218.8z"/>
			<path fill="#FDB34F" d="M1009.6,1219.6c0.3,0.2,0.6,0.3,0.9,0.5c0-0.1,0-0.2,0-0.2c-0.2-1-1-1.2-1.8-1c0.4,0.2,0.8,0.4,1.2,0.5
				C1009.8,1219.4,1009.7,1219.5,1009.6,1219.6z"/>
			<path fill="#FDB34F" d="M1010.1,1221.7c-1.2-0.2-2.1-0.2-2.8-0.3c0.4,0.2,0.7,0.3,1.1,0.5
				C1009,1222.2,1009.7,1222.1,1010.1,1221.7z"/>
			<path fill="#FDB34F" d="M1009.6,1219.6c0.1-0.1,0.2-0.1,0.2-0.2c-0.4-0.2-0.8-0.4-1.2-0.5c-0.1,0-0.1,0-0.2,0.1
				C1008.9,1219.1,1009.3,1219.4,1009.6,1219.6z"/>
		</g>
		<path fill="#FDB34F" d="M1138.9,1214c1.9-1.3,3.6-2.9,5.1-4.6c1.1-1.3,3-3.2,2.7-5.1c-0.1-0.5-0.6-0.9-1-1c-0.5-0.1-1-0.1-1.4,0.2
			c-0.6,0.4-0.9,1-0.7,1.7v0.1c0.4,1.9,3.3,1.1,2.9-0.8v-0.1c-0.2,0.6-0.5,1.1-0.7,1.7l0.1-0.1c-0.4,0.1-0.8,0.1-1.2,0.2h0.1
			c-0.3-0.3-0.7-0.7-1-1c0,0.1,0,0.1,0,0.2c0.1-0.4,0.1-0.8,0.2-1.2c-1.3,2.9-4.1,5.5-6.6,7.3
			C1135.9,1212.5,1137.3,1215.1,1138.9,1214L1138.9,1214z"/>
		<path fill="#FDB34F" d="M1122.1,1227.9c3.7-2.4,7.3-4.9,11-7.3c1.6-1.1,0.1-3.7-1.5-2.6c-3.7,2.4-7.3,4.9-11,7.3
			C1119,1226.4,1120.5,1229,1122.1,1227.9L1122.1,1227.9z"/>
		<path fill="#FDB34F" d="M1096.8,1238.5c2.8,0.5,5.8-1.1,8.3-2.1c1.9-0.8,5.3-1.5,5.8-3.7c0.4-1.9-2.5-2.7-2.9-0.8
			c0-0.1-1.2,0.6-1.5,0.7c-1,0.5-2,0.9-3,1.3c-1.5,0.6-4.2,2.1-5.9,1.8C1095.7,1235.3,1094.9,1238.2,1096.8,1238.5L1096.8,1238.5z"
			/>
		<path fill="#FDB34F" d="M1072.7,1238.3c3.9,0.4,7.8,0.6,11.8,0.6c1.9,0,1.9-3,0-3c-3.9,0.1-7.8-0.1-11.8-0.6
			C1070.8,1235,1070.9,1238,1072.7,1238.3L1072.7,1238.3z"/>
		<path fill="#FDB34F" d="M1047.3,1233.5c3.7,1.2,7.5,2.3,11.3,3.1c1.4,0.3,2.6-1.4,1.5-2.5c-0.2-0.1-0.3-0.3-0.5-0.4
			c-1.4-1.3-3.6,0.8-2.1,2.1c0.2,0.1,0.3,0.3,0.5,0.4c0.5-0.8,1-1.7,1.5-2.5c-3.8-0.8-7.6-1.9-11.3-3.1
			C1046.3,1230,1045.5,1232.9,1047.3,1233.5L1047.3,1233.5z"/>
		<path fill="#FDB34F" d="M1022.9,1227.3c2.3,0.6,4.5,1.3,6.8,1.9c1.3,0.4,3.4,1.5,4.7,0.6c0.6-0.5,1-1.3,0.5-2.1c0,0,0-0.1-0.1-0.1
			c-0.4-0.6-1-0.8-1.7-0.7c-0.1,0-0.1,0-0.2,0c-0.8,0.1-1.2,1.1-1,1.8v0.1c0.4,1.9,3.3,1.1,2.9-0.8v-0.1c-0.3,0.6-0.7,1.2-1,1.8
			c0.1,0,0.1,0,0.2,0c-0.6-0.2-1.1-0.5-1.7-0.7c0,0,0,0.1,0.1,0.1c0.2-0.7,0.4-1.4,0.5-2.1c-0.1,0.1-4-1.3-4.3-1.4
			c-1.6-0.5-3.3-0.9-4.9-1.4C1021.9,1223.9,1021.1,1226.8,1022.9,1227.3L1022.9,1227.3z"/>
		<path fill="#B38648" d="M968.5,1205.8c1.8,0.2,3.5,0.6,5.2,1.2c0.9,0.3,1.7,0.6,2.5,1c0.2,0.1,2,1,2,0.7c0.3-0.6,0.7-1.2,1-1.8
			c-0.1,0-0.1,0-0.2,0.1c0.6,0.3,1.2,0.7,1.8,1v-0.1c-0.6-1.8-3.5-1-2.9,0.8v0.1c0.3,0.7,1,1.3,1.8,1c0.1,0,0.1,0,0.2-0.1
			c0.8-0.2,1.3-1,1-1.8c-0.5-1.8-3.2-2.5-4.8-3.1c-2.5-1-5.1-1.6-7.8-2C966.6,1202.6,966.6,1205.6,968.5,1205.8L968.5,1205.8z"/>
		<path fill="#B38648" d="M943.2,1202.5c3.4-0.9,6.8-1.2,10.3-0.8c1.9,0.2,1.9-2.8,0-3c-3.8-0.4-7.5-0.1-11.1,0.9
			C940.5,1200.2,941.3,1203.1,943.2,1202.5L943.2,1202.5z"/>
	</g>
	<g>
		<path fill="none" d="M1070.4,1004c0.4,0.9,0.8,1.8,1.4,2.7c1.2,1.7,0.3-6.6,0.3-9.8c0-1.6-0.6-3.4-1.6-5
			C1070.8,996,1070.8,1000.2,1070.4,1004z"/>
		<path fill="none" d="M1070.2,988.9c1.5,1.8,2.5,3.6,3.3,3.6c1.2,0.1-1.8-8.2-4.7-13.2c0.2,1.2,0.5,2.5,0.7,4
			C1069.8,985.1,1070,987,1070.2,988.9z"/>
		<path fill="none" d="M1066.1,1017.9c0.1,0.2,0.2,0.4,0.4,0.6c3.8,6.7,2.6-2.3,3.3-6.8c0.2-1.3,0.2-2.6,0-3.8
			c-0.7,3.9-1.9,7.3-3.6,9.9C1066.2,1017.8,1066.2,1017.9,1066.1,1017.9z"/>
		<path fill="none" d="M1058.5,1026.6c1.5,0,3.2-0.8,5.2-2.9c1.4-1.5,1.7-2.9,1.4-4.3C1063.2,1022,1061,1024.5,1058.5,1026.6z"/>
		<path fill="#FDB049" d="M1041.2,1030.5c1.5,0.4,9.2,0,11.5-1.8c2.1-1.6-1.4-7.1-3.6-9c-3.5,2.5-7.1,3.9-9.6,3.7
			c0,0.5-0.1,1.1-0.1,1.8C1039.3,1028.3,1039.6,1030.1,1041.2,1030.5z"/>
		<path fill="#FDB049" d="M1028.7,1021.3c-1.5,1.9-1.6,4.2-0.9,5.2c0.7,1.1,3.1,2,6.2,3.1s4,1.3,3.6-1c-0.3-1.5-0.2-3.8,0.2-5.6
			c-2.1-0.5-4.7-1.6-7.7-3.1C1029.6,1020.4,1029.1,1020.8,1028.7,1021.3z"/>
		<path fill="#FDB049" d="M1053.3,1022.8c1.6,2.2,3.2,3.8,5.2,3.9c2.5-2.1,4.7-4.6,6.5-7.1c-0.8-3-4.7-5.5-5.5-6.1
			c-1.1-0.8,3-1.5,6.6,4.5c0-0.1,0.1-0.1,0.1-0.2c1.7-2.5,2.9-6,3.6-9.9c-0.5-2.9-1.9-5.2-3.7-6.6c-2.6-2,0.1-2.4,2.2-0.2
			c1.1,1.1,1.6,2.1,2,3c0.4-3.8,0.4-8,0.1-12.2c-0.9-1.5-2.1-2.7-3.3-3.5c-2.6-1.6-5.7-3.7-1.4-2.7c1.9,0.5,3.3,1.8,4.5,3.2
			c-0.2-1.9-0.4-3.8-0.7-5.6c-0.2-1.5-0.5-2.8-0.7-4c-0.6-1-1.2-1.9-1.8-2.6c-3.4-4-6.7-3.2-6.3-4.2s2.4-1.1,4.6,0.1
			c1.1,0.6,1.8,1.3,2.5,2.1c-1.7-6-3.6-8.3-6.2-11.3c-3.6-4.2-7.1-2.2-7.1-2.2s3.6,5.2,5.8,21.6c2.3,16.4,0.6,23.8-4.2,30.2
			c-1.8,2.5-4.1,4.7-6.5,6.4C1050.7,1020,1052.1,1021.1,1053.3,1022.8z"/>
		<path fill="#FDB049" d="M1003.2,1000.2c-2.1,2.8-3.2,2.8-1.2,5.3s4.5,5.2,6.7,7.2s2.5,2.3,3.1,0.8c0.4-1,1.3-2.7,2.7-3.6
			c-3.6-3.1-6.3-6.6-9.8-11.4C1004.2,999.1,1003.6,999.6,1003.2,1000.2z"/>
		<path fill="#FDB049" d="M993.8,994.4c1.4,2.1,3.6,6.3,4.2,7.2c0.5,0.6,3.4-2.7,5.7-4.1c-0.6-0.9-1.3-1.8-2-2.7
			c-1.7-2.4-3.2-4.6-4.5-6.8c-0.5,0.1-1.1,0.3-1.7,0.7C992.8,990.7,992.4,992.3,993.8,994.4z"/>
		<path fill="#FDB049" d="M985.7,972.8c-1.5,1.9-1.6,4.9-0.7,6.7c0.9,1.6,1.5-4,6.7-3.8c-0.4-1.3-0.7-2.6-0.9-3.8
			c-0.1-0.7-0.2-1.2-0.4-1.7C988,969.9,986.7,971.5,985.7,972.8z"/>
		<path fill="#FDB049" d="M1014.8,1012c-1.8,2.3-1,3.2-0.3,4.8c0.7,1.5,2.8,2.9,5.4,5c2.7,2.1,3.5,3.1,4.5,3.2c0.8,0.1,2-4,4.2-5.8
			c-2.7-1.4-5.6-3.1-8.7-5.1c-1.6-1-2.9-2-4.2-3C1015.4,1011.4,1015.1,1011.7,1014.8,1012z"/>
		<path fill="#FDB049" d="M988.2,984.9c1.6,4.4,2.3,6,2.5,5.8s3-3.7,5.7-4.1c-1.9-3.3-3.2-6.3-4.2-9.1c-1.2,0.2-2.5,0.5-3.2,1.2
			C986.5,981,986.6,980.5,988.2,984.9z"/>
		<path fill="#B3813E" d="M1066.1,1001.2c1.8,1.4,3.3,3.8,3.7,6.6c0.2-1.2,0.4-2.5,0.5-3.9c-0.4-0.9-1-1.9-2-3
			C1066.2,998.8,1063.5,999.2,1066.1,1001.2z"/>
		<path fill="#B3813E" d="M1065.2,972.6c-2.2-1.2-4.2-1.1-4.6-0.1s3,0.2,6.3,4.2c0.6,0.7,1.2,1.6,1.8,2.6c-0.3-1.7-0.7-3.2-1.1-4.6
			C1067,973.9,1066.3,973.2,1065.2,972.6z"/>
		<path fill="#B3813E" d="M1065.8,985.7c-4.2-1.1-1.2,1.1,1.4,2.7c1.2,0.8,2.4,2,3.3,3.5c-0.1-1-0.1-2-0.2-3
			C1069.1,987.5,1067.6,986.1,1065.8,985.7z"/>
		<path fill="#B3813E" d="M985,967.9c-3.5,2.3-4.4,3.6-3.8,7.9s1.8,11.4,17.9,30.8c16.2,19.3,36.7,26.9,45.5,26.5
			c5-0.3,9.8-2.8,13.9-6.4c-2,0-3.7-1.6-5.2-3.9c-1.2-1.7-2.6-2.8-3.8-3.4c-0.2,0.1-0.3,0.2-0.5,0.3c2.2,1.9,5.7,7.4,3.6,9
			c-2.3,1.8-10,2.2-11.5,1.8c-1.5-0.4-1.9-2.2-1.8-5.3c0-0.6,0.1-1.2,0.1-1.8c-0.2,0-0.3,0-0.5,0c-0.4-0.1-0.8-0.2-1.2-0.3
			c-0.4,1.7-0.5,4-0.2,5.6c0.4,2.3-0.5,2.1-3.6,1s-5.5-2-6.2-3.1s-0.6-3.3,0.9-5.2c0.4-0.5,0.9-0.9,1.4-1.3c-0.5-0.2-1-0.5-1.5-0.8
			c-2.2,1.8-3.4,5.9-4.2,5.8c-1-0.1-1.8-1.1-4.5-3.2c-2.7-2.1-4.8-3.5-5.4-5c-0.7-1.5-1.4-2.5,0.3-4.8c0.3-0.3,0.5-0.6,0.9-0.9
			c-0.4-0.4-0.9-0.7-1.3-1.1c-1.5,0.9-2.3,2.6-2.7,3.6c-0.6,1.5-0.9,1.2-3.1-0.8c-2.2-2-4.7-4.8-6.7-7.2c-2-2.5-0.8-2.5,1.2-5.3
			c0.5-0.6,1-1.1,1.5-1.5c-0.3-0.4-0.6-0.8-0.9-1.3c-2.3,1.4-5.2,4.7-5.7,4.1c-0.6-0.8-2.9-5-4.2-7.2s-1-3.8,1.8-5.8
			c0.6-0.4,1.1-0.6,1.7-0.7c-0.3-0.5-0.6-1-0.8-1.4c-2.7,0.4-5.5,4-5.7,4.1c-0.2,0.2-0.9-1.4-2.5-5.8s-1.8-3.9,0.8-6.2
			c0.7-0.7,2-1,3.2-1.2c-0.2-0.6-0.4-1.2-0.6-1.8c-5.2-0.2-5.8,5.4-6.7,3.8c-1-1.8-0.8-4.8,0.7-6.7c1.1-1.4,2.3-2.9,4.7-2.7
			C989.3,965.5,988.1,965.8,985,967.9z"/>
		<path fill="#B3813E" d="M1059.5,1013.4c0.8,0.6,4.8,3,5.5,6.1c0.4-0.5,0.8-1,1.1-1.6C1062.5,1011.9,1058.4,1012.6,1059.5,1013.4z"
			/>
	</g>
</g>
</svg>
