<?xml version="1.0" encoding="utf-8"?>
<!-- Generator: Adobe Illustrator 21.0.2, SVG Export Plug-In . SVG Version: 6.00 Build 0)  -->
<svg version="1.1" id="_x32_2_x5F_Top_x5F_Lab_x5F_Coat"
	 xmlns="http://www.w3.org/2000/svg" xmlns:xlink="http://www.w3.org/1999/xlink" x="0px" y="0px" viewBox="0 0 2000 2000"
	 enable-background="new 0 0 2000 2000" xml:space="preserve">

<g>
	<g>
		<g>
			<path fill="none" d="M1005.4,1019.6l-1.1-4c0,0-1.6,0.7-3.4,1.8c0.4,0.6,0.7,1.3,1.1,1.9
				C1003.7,1019,1005.4,1019.6,1005.4,1019.6z"/>
			<path fill="#999DA2" d="M1077.2,1109.2c2.2-5.1,6.5-44.6,12.1-58.6c5.5-13.9,8-22.7,8-22.7s-1.9-5.4-6.8-10.9s-10.2-9.3-10.2-9.3
				c3.8-5,8.2-4.8,12.4-6.8c4.2-1.9,0.6-3.3,0.2-5.6s-2.3-8-2.3-8s-0.3-1-1-2.6c-0.2,2.7-0.1,6.3,1.2,12.2c0,0-8.9,0.3-13.2,7.9
				c0,0-5.4-3.2-10.1-4.3c0.1,0.9,0.2,1.8,0.3,2.7c10.6,4.5,17,10.2,27.5,24c0,0-7.9,12.1-10.1,23.6s-6.9,53.5-10,57.1
				c-1.2,1.4-2.3,0.9-3.1-0.2c0,2.4,0,3.8,0,3.8C1075.6,1117.2,1075,1114.2,1077.2,1109.2z"/>
			<path fill="#999DA2" d="M1254.1,1186.5c4.1-0.9,8.8-8.7,16.9-16.4s18.5-14.8,18.5-14.8s-7.8,12.4-10.1,23.5
				c-2.4,11.1-3.5,23.8-1.4,21.1c2.1-2.7,2.6-14.9,6.6-26.9s5.3-11.5,10.6-20.3c0,0,0-2.4-8-1.3c0,0-4.9,2.9-15.2,12
				C1261.8,1172.6,1250,1187.4,1254.1,1186.5z"/>
			<path fill="#999DA2" d="M1071.6,1110.4c0.3,0.5,0.5,0.9,0.6,1.1C1072.2,1111.5,1072,1111.1,1071.6,1110.4z"/>
			<path fill="#999DA2" d="M1303.9,1169.2c1.2-2.2,0.7-5.1,3.8-11.2c1.9-3.5,4.1-6.1,6-8.3c-0.2,0.1-0.5,0.3-0.7,0.4
				c0,0-0.6-0.3-1.6-0.7C1299,1164.5,1302.7,1171.4,1303.9,1169.2z"/>
			<path fill="#999DA2" d="M931,1011.6c1.6,1.1,0.6-4.3-3.9-6.4c-0.6,0.4-1.3,1-2.2,1.7C928.5,1008.4,929.6,1010.6,931,1011.6z"/>
			<path fill="#999DA2" d="M1230.7,1184.1c2.3-1,1.7-3.1,6.6-8.7s7.5-10.6,31-19c7.5-2.7,12.7-4.6,16.4-6c-1.3-0.6-3.2-1.5-5.4-2.6
				c-10.1,3.7-30.8,11.9-37.5,18.2C1232.7,1174.4,1228.5,1185.2,1230.7,1184.1z"/>
			<path fill="#999DA2" d="M1070.6,973c3.2,2,4.5,1.8,9.8,3c1.5,0.3,3.1,0.2,4.5,0c-4.6-6.7-12.5-14.9-25.5-20.3c0,0-3.8-0.7-5.9,0
				c0,0-1.9,4.2,2.2,10.4c2.8,4.3,5.6,2.9,7.8,7.6C1067.1,971.2,1068,971.4,1070.6,973z"/>
			<path fill="#999DA2" d="M1099.2,1422.1c-8.1-12.5-7.2-20.7-5.9-36.9c1.2-16.2,4.9-49.7,4.2-95.1s-4.3-80.3-6.5-104.6
				c-2.2-24.4-4.2-54.1-4.2-54.1s-16.3-19.1-26.9-24.7s-22.2-14.8-30-20.8s-24.5-13.6-29.7-17.1c-5.3-3.4-12.3-3.6-12.3-3.6
				s3.5-12.2,6.5-21.4c3.1-9.3,2.5-16.5,4.3-21.3c0.7-2,2.1-2.9,3.4-3.2c-0.4-0.7-0.7-1.3-1.1-1.9c-2.1,1.3-4.5,3.2-5.2,5.3
				c-1.3,3.9-1.4,8.3-1.4,8.3s-4.9-1.5-13.3,2.9c-8.4,4.5-14.3,4.5-14.3,4.5s0.9-19.9,1.2-28.3c0.3-8.4-2.3-9.8-0.7-11.7
				s6.1-5.3,11.4-10.3c3.9-3.7,4-3.5,6.7-0.6c-0.4-2.1-0.2-4,0.6-6.1c2-5.7,4.2-8.5,5.6-12.5c1.4-4,0.4-8.1,0.4-8.1
				s-6.7-0.3-13.9,6.9c-7.2,7.1-10.5,12.1-12.9,15.9s-2.3,4.4-2.3,4.4s-16.5,11.1-21.1,12.9c-4.6,1.7-5.6,2.8-6.8,2.8
				c0.5,0.4,1.5,0.9,3.7,1.6c6.9,2.2,12.2,1.1,17.2-2.6s6.3-5,6.3-5s3.3,4.5,3.1,13s-0.4,27.6-0.6,30.9c-0.1,3.3,5.1,0,9.4-1.2
				c4.3-1.2,15.7-7.9,20.3-6.1c0,0-2,8.7-4.3,16.5s-5.9,11.5-6.3,15c-0.4,3.5,4.1,3.2,5.7,4.3c1.6,1.1,2.5,3,9.1,5.5
				s24.9,10.1,36.2,18.9c11.3,8.8,14.3,8.8,22.3,14.6c8,5.7,24.4,19.4,27.1,22.3c0,0,1.2,10.2,4.8,58.1
				c3.5,47.9,7.1,110.8,4.6,149.2s-8.3,71.8-2.3,96.3c0,0-17.2,17.3-71,15.3c0,0-1.5-51-42.3-84.3c0,0-41.4-45-45.3-53.7
				s3.8-33.1,6.6-66.8c2.7-33.7,3.2-71.9,0.9-104.7c-2.3-32.8-4.3-44.5-2.6-48.5c1.6-4,7.1-8.4,10.9-19.2c3.8-10.8-3-36.1-4.7-45.4
				c-1.7-9.3-3.3-11.2-0.7,7.5c2.6,18.8,9.3,37.4-7.2,51.1s-98.1,103.5-124.8,139c0,0-18-15.7-44.7-19.1s-44.2,3.6-47,5.7
				s36.5-2.4,51,1.6c14.5,4.1,38,15.3,38,15.3s-19-5.5-42,0s-25,7.5-4,6.1s60.4-2.4,80.1,19.8c0,0-26.3-2.2-42.6,9.8
				c0,0,33.2-7,71.5-5.5c-0.6-0.4-1.3-0.6-2-0.7l-7.7-0.6c-12.8-8.5-29-17.5-29-17.5s12.8-26.4,25.3-43.2
				c12.5-16.8,37-46.7,61.3-79.6c0,0-2.8,29.7-10.4,80.1c-7.7,50.4-15.5,73.9-15.7,74.4c13.5,9.4,25.9,20.7,28.4,24.7
				c1.6,2.5,1.2,10.4,0.7,16.1c12.2,11.3,40,38.9,55.7,58.3c18.9,23.2,37.5,50.5,26.6,81.9c0,0,16.9,3.1,43.7,0
				c26.8-3.1,47.3-15.1,47.3-15.1s-2.5-7.2-3-13.7c0,0,17.7,4,38.7,2.7s53.7-9.5,67.7-26c-27.6,21.1-44.3,15.1-62.9,20.4
				S1099.2,1422.1,1099.2,1422.1z"/>
			<path fill="#999DA2" d="M1502.3,1214.1c0,0-3-23.4-6.4-46c-11.1,19-35.6,56.4-72.1,88.1c0,0-5-3.5-12.6-13.3
				c2.7,5.4,5.6,10.3,8.5,13.6c10.4,12,13.5,16.5,13.5,16.5v8.5c-5.5-3.2-19-11.5-30.5-32s-23.2-39.1-28.2-52.2s-10.3-24.2-8.5-16.1
				c0.9,4,8,19.6,8.2,26.2s-2.4,6.8-12,14.5s-20.6,16.3-21.6,12.9s-6.1-13.9-9-25.9s-2.9-38.2-2.9-47.7s-0.2-17.6,4.1-28.6
				c4.2-11,8.3-20.5,12.7-33.6c4.5-13.1,8.3-14.4,8.3-14.4s-0.2,21.4,7.8,51.5c1.9,6.9,4.8,14.7,8.3,22.5
				c-16.8-52.3-11.8-80.5-11.8-80.5s-9.4,0.3-13.4,12.6c-4,12.3-6.1,23.7-10,32.7c-4,9.1-8.2,17.1-8.7,21.9
				c-2.5,17.3-0.9,36.7,2.5,63.7s11.4,43.8,11.4,43.8s-5.4,5.3-13.6,8.6s-32.7,3.8-60.4-4c-27.7-7.8-45.2-22.7-53.4-32.3
				c-8.2-9.6-33.6-39.2-44.4-66.8s-25.9-66.2-32.5-88.3s-17.1-40-19-45.8c-1.5-4.5-1.5-9.4,2-17.6c-1-1.1-1.5-1.6-1.5-1.6
				s-4.3,6.1-4.6,12.7s2.9,9.7,10.2,27.9s20.8,60.9,30.4,90.1s20,76.8,20,76.8s27.4,29.8,51.7,51.8c24.3,22,66.5,39.2,103,47.6
				s71.3,3.4,71.3,3.4s9.2,7.2,24.3,2c15.2-5.2,35.7-16.7,53.7-25s36.4-22.7,35.5-64c0-1.5-0.1-3-0.1-4.5
				C1506.8,1213.8,1502.3,1214.1,1502.3,1214.1z"/>
			<path fill="#999DA2" d="M905,1300.3c-16-2.6-43.5-4.3-86.7,18.7c-43.2,22.9-63.4,59.1-67.9,66.1s-3.9,11.5-12.1,8.7
				s-33.1-30.7-33.1-30.7s0.4-21.9,17.4-44.2c17-22.3,29.8-33.6,49.6-41.5c9.5-3.8-0.4-6.7-19.8,7.9c-37.4,28.2-45.4,52.2-50.2,64.8
				c0,0-25.1-18-41.5-46c-12.6-21.5-19.4-45-20.7-62c-0.5,2.5-0.9,5-1.2,7.6c-2.9,20.9,2.9,52.3,10.6,66.5
				c7.7,14.2,46.4,59.6,46.4,59.6s1,10.5,1.3,17.9c0.4,7.4,33.2,45.7,33.2,45.7s26.7-17.1,44.5-24.8c0,0-16.1-9.7-21.7-13.6
				c0,0,4.3-41.3,62.6-74.8c55.2-31.7,91.3-23.6,99.9-18.9C915.3,1304.7,913.1,1301.6,905,1300.3z"/>
			<path fill="#D8D8D8" d="M921.3,1296.9c-2.5-4.1-11.1-11.9-24.6-21.3c-0.1,0.4-21.1-13.3-25.7-16.4c-38.3-1.5-71.5,5.5-71.5,5.5
				c16.2-12.1,42.6-9.8,42.6-9.8c-19.7-22.3-59.1-21.2-80.1-19.8s-19-0.6,4-6.1s42,0,42,0s-23.5-11.3-38-15.3
				c-14.5-4.1-53.8,0.4-51-1.6s20.4-9.1,47-5.7s44.7,19.1,44.7,19.1c26.7-35.5,108.3-125.3,124.8-139s9.9-32.4,7.2-51.1
				c-2.6-18.8-1-16.9,0.7-7.5c1.7,9.3,8.6,34.6,4.7,45.4c-3.8,10.8-9.3,15.3-10.9,19.2c-1.6,4,0.3,15.7,2.6,48.5s1.8,70.9-0.9,104.7
				c-2.7,33.7-10.4,58.1-6.6,66.8s45.3,53.7,45.3,53.7c40.8,33.3,42.3,84.3,42.3,84.3c53.8,2,71-15.3,71-15.3
				c-6-24.5-0.2-57.8,2.3-96.3s-1.1-101.3-4.6-149.2c-3.5-47.9-4.8-58.1-4.8-58.1c-2.7-2.9-19.1-16.5-27.1-22.3
				c-8-5.7-11-5.8-22.3-14.6c-11.3-8.8-29.5-16.5-36.2-18.9s-7.5-4.3-9.1-5.5c-1.6-1.1-6.1-0.9-5.7-4.3c0.4-3.5,4-7.2,6.3-15
				s4.3-16.5,4.3-16.5c-4.7-1.8-16,4.9-20.3,6.1s-9.6,4.5-9.4,1.2c0.1-3.3,0.3-22.3,0.6-30.9s-3.1-13-3.1-13s-1.4,1.2-6.3,5
				s-10.3,4.8-17.2,2.6c-2.2-0.7-3.2-1.2-3.7-1.6c0,0,0,0-0.1,0c-1.3,0-1.1-3.6-7.3,1.2c-0.1,0.1-0.2,0.2-0.3,0.3
				c4.5,2.1,5.5,7.5,3.9,6.4c-1.4-1-2.4-3.2-6.1-4.7c-10.2,7.9-40.9,31.5-59.6,44.7c-20.6,14.5-62.2,38-95.9,59.5
				s-73,50.2-97.6,75.2c-21.5,21.9-28.5,38.1-31.8,55.9c1.3,16.9,8.1,40.5,20.7,62c16.4,28,41.5,46,41.5,46
				c4.8-12.5,12.8-36.5,50.2-64.8c19.4-14.7,29.3-11.7,19.8-7.9c-19.8,7.9-32.6,19.2-49.6,41.5s-17.4,44.2-17.4,44.2
				s24.9,27.9,33.1,30.7s7.6-1.7,12.1-8.7s24.7-43.2,67.9-66.1s70.7-21.3,86.7-18.7c8.1,1.3,10.3,4.5,10.6,7.2
				c0.5,0.3,0.9,0.5,1.2,0.8c1,0.8,2.8,2.4,5.2,4.6C922.5,1307.3,922.9,1299.4,921.3,1296.9z"/>
			<path fill="#D8D8D8" d="M1122.6,1046c-7.3-18.2-10.5-21.3-10.2-27.9s4.6-12.7,4.6-12.7s-6.5-2-12.3-7.3s-9-9-14-10.7
				c0,0,1.9,5.6,2.3,8c0.4,2.3,4,3.7-0.2,5.6c-4.2,1.9-8.6,1.7-12.4,6.8c0,0,5.3,3.8,10.2,9.3c4.9,5.5,6.8,10.9,6.8,10.9
				s-2.5,8.8-8,22.7c-5.5,13.9-9.9,53.5-12.1,58.6s-1.7,8-5.1,2.4c-0.1-0.2-0.3-0.6-0.6-1.1c-1.7-3-7-11.7-16-19
				c-11.1-9-24.9-27.3-33-38.1c-5.2-6.8-13.5-21.5-20.6-34c-1.3,0.3-2.6,1.1-3.4,3.2c-1.7,4.8-1.2,12.1-4.3,21.3
				c-3.1,9.3-6.5,21.4-6.5,21.4s7.1,0.1,12.3,3.6c5.3,3.4,21.9,11.1,29.7,17.1s19.4,15.2,30,20.8c10.6,5.6,26.9,24.7,26.9,24.7
				s2,29.8,4.2,54.1c2.2,24.4,5.8,59.2,6.5,104.6s-3,79-4.2,95.1c-1.2,16.2-2.2,24.4,5.9,36.9c0,0,17.9,4.6,36.5-0.7
				s35.3,0.7,62.9-20.4c0,0-5.2-6.3-8.3-28c-3.2-21.7-6.9-98.6-17.4-160.1c0,0-10.3-47.6-20-76.8S1130,1064.1,1122.6,1046z"/>
			<path fill="#D8D8D8" d="M978.5,988.2c-5.2,5-9.8,8.4-11.4,10.3c-1.6,1.9,1,3.3,0.7,11.7s-1.2,28.3-1.2,28.3s5.9-0.1,14.3-4.5
				c8.4-4.5,13.3-2.9,13.3-2.9s0.1-4.3,1.4-8.3c0.7-2.1,3.1-4,5.2-5.3c-3.6-6.4-6.8-12.2-8.9-15.7c-3.9-6.7-6.1-10.7-6.8-14.2
				C982.5,984.6,982.4,984.5,978.5,988.2z"/>
			<path fill="#D8D8D8" d="M1075.3,1108c3.1-3.6,7.7-45.6,10-57.1s10.1-23.6,10.1-23.6c-10.5-13.9-16.9-19.5-27.5-24
				c1.9,17.9,4.1,40.1,4.3,56.9c0.2,18.3,0.1,39.2,0,47.6C1073,1108.9,1074,1109.4,1075.3,1108z"/>
			<path fill="#D8D8D8" d="M1090.9,996.9c-1.2-5.9-1.4-9.5-1.2-12.2c-0.9-2.1-2.4-5.2-4.8-8.8c-1.4,0.2-3,0.3-4.5,0
				c-5.3-1.2-6.5-1-9.8-3c-2.6-1.6-3.5-1.7-7.2,0.6c0.9,2.1,1.7,5.3,2.3,10.8c0.5,4.5,1.1,10,1.8,16.2c4.7,1,10.1,4.3,10.1,4.3
				C1082,997.1,1090.9,996.9,1090.9,996.9z"/>
			<path fill="#D8D8D8" d="M1116.5,1024.5c1.9,5.8,12.5,23.7,19,45.8s21.7,60.7,32.5,88.3s36.2,57.2,44.4,66.8
				c8.2,9.6,25.7,24.5,53.4,32.3c27.7,7.8,52.2,7.2,60.4,4s13.6-8.6,13.6-8.6s-7.9-16.9-11.4-43.8s-5.1-46.4-2.5-63.7
				c0,0-5.4,0.2-12.3,4.2c-1.9,2.3-4.1,4.8-6,8.3c-3.2,6-2.6,9-3.8,11.2c-1.2,2.1-4.9-4.7,7.5-19.7c-2.9-1-9.3-2.2-16.1,3.3
				c-5.3,8.8-6.6,8.3-10.6,20.3s-4.5,24.1-6.6,26.9c-2.1,2.7-1-10,1.4-21.1s10.1-23.5,10.1-23.5s-10.4,7.1-18.5,14.8
				s-12.8,15.5-16.9,16.4s7.7-14,18-23.1s15.2-12,15.2-12s-1-0.4-2.7-1.2c-3.7,1.4-8.9,3.4-16.4,6c-23.5,8.4-26.1,13.3-31,19
				s-4.3,7.7-6.6,8.7c-2.3,1,1.9-9.7,11-18.2c6.8-6.3,27.5-14.5,37.5-18.2c-11.4-5.7-33.6-17.8-57.9-36.8
				c-35.2-27.6-78.2-71.1-88.7-85.9c-7.2-10.2-11.9-15.7-14.1-18.1C1115,1015.1,1115,1020,1116.5,1024.5z"/>
			<path fill="#D8D8D8" d="M1496,1168.1c3.3,22.6,6.4,46,6.4,46s4.5-0.3,10,10.1c-1.4-39.1-9.5-68.5-9.5-68.5
				S1500.5,1160.3,1496,1168.1z"/>
			<path fill="#D8D8D8" d="M1353.9,1084.8c0,0-3.8,1.4-8.3,14.4c-4.5,13.1-8.5,22.6-12.7,33.6s-4.1,19.1-4.1,28.6s0,35.7,2.9,47.7
				s8.1,22.5,9,25.9s12-5.2,21.6-12.9s12.2-7.9,12-14.5s-7.4-22.2-8.2-26.2c-1.8-8.2,3.5,3,8.5,16.1s16.8,31.7,28.2,52.2
				s25,28.8,30.5,32v-8.5c0,0-3.1-4.5-13.5-16.5c-2.9-3.3-5.8-8.2-8.5-13.6c-9.2-11.7-22.2-32.4-35.3-66.9c-2.3-6-4.3-11.8-6-17.3
				c-3.5-7.8-6.4-15.6-8.3-22.5C1353.7,1106.2,1353.9,1084.8,1353.9,1084.8z"/>
		</g>
		<g>
			<path fill="#999DA2" d="M1111.3,1269.8c0.4,14.6,3.2,41.4,1.8,54.7c-1.3,13.2-1.8,21.9-0.7,26.2s12,8.8,28.9,8.2
				c16.9-0.6,27.7-6.4,30.3-9c2.7-2.6,3.4-27.2,3.8-48.2s-1-32.3-1.5-34.5s3.9-2.1-14.8,0.7s-32.7,1.3-38.7,0.9
				S1111.3,1267.6,1111.3,1269.8z"/>
			<path fill="#D8D8D8" d="M1159.9,1274c-9.1,1-25.4-0.7-35.1-2s-10.3-3-10.8,0s0.6,17.2,2.3,32.3c1.8,15.1,8.3,34.5,24,39.3
				s25.3-9.1,28.2-17.2s4.4-32,3.3-36.4s-1.5-3.9-0.5-9.1s0.8-12.2,0.8-12.2S1166.3,1273.3,1159.9,1274z"/>
			<path fill="#999DA2" d="M1114,1285.1c4.8,1.4,9.8,2.2,14.8,2.5s10,0.1,15-0.4s9.9-1.4,14.8-2.5c2.4-0.6,4.8-1.3,7.2-2
				c2.4-0.7,4.7-1.6,6.9-2.6l1.6,4.6c-1.4,0.3-2.6,0.5-3.9,0.8l-3.8,0.7c-2.5,0.5-5,0.8-7.6,1.1c-5,0.8-10.1,1.2-15.1,1.7
				c-5.1,0.4-10.2,0.3-15.2,0.1c-5.1-0.3-10.2-1-15.2-2.1L1114,1285.1z"/>
		</g>
		<g>
			<path fill="#999DA2" d="M977.7,1366c-17.3-17.2-25.6-27.9-25.9-28.1s1-13.6,0-30.5s-4.5-26.2-5.8-32.5s-1.2-8.1-0.8-8
				s7.5,0.1,20.4,1.6c13,1.5,37.2,5.3,47.1,4.5c9.8-0.7,17.2-3.6,17.2-3.6s1,10.9,0,22.4s-1.5,45.8-4.5,59.2
				c-3.1,13.3-4.3,17.9-16.2,19.5c-11.8,1.6-29.7-1-29.7-1L977.7,1366z"/>
			<path fill="#D8D8D8" d="M947.2,1269.4c0.3,3.2,2.8,11.7,4.2,14.1c1.3,2.4,2.2,2.3,1.8,7.5s1.4,14.8,2.4,22.7
				c1,7.8,5.3,22.5,14.8,30.8s29.3,8,37.9,4.5c8.7-3.5,14.4-8.5,15.2-14.7s2.3-26.4,3.2-38c0.8-11.6,1.2-24.6,1.2-24.6
				s-4.8,2-18.3,3.9s-46-4.7-52.9-5.7S947.2,1269.4,947.2,1269.4z"/>
			<path fill="#999DA2" d="M950.8,1284.2c6.6,1.7,13.2,3.3,19.7,5.5c1.6,0.6,3.2,1.1,4.8,1.8c0.8,0.3,1.6,0.7,2.3,0.9
				c0.7,0.3,1.5,0.5,2.3,0.7c3.2,0.8,6.5,1.1,9.8,1.3c3.3,0.2,6.7,0.2,10,0s6.7-0.5,9.9-1.3c6.7-1.5,13.4-2.6,20.1-3.5l0.1,1
				c-6.7,1.1-13.3,2.4-19.8,4.1c-3.3,0.9-6.8,1.3-10.2,1.7c-3.4,0.3-6.8,0.4-10.3,0.3c-3.4-0.1-6.9-0.3-10.3-1.1
				c-0.9-0.2-1.7-0.4-2.6-0.7c-0.9-0.3-1.6-0.6-2.4-0.9c-1.6-0.6-3.2-1.1-4.8-1.6c-6.4-1.9-13-3.3-19.6-4.8L950.8,1284.2z"/>
		</g>
		<g>
			<path fill="none" d="M1004.3,1085.4c0,0-2.5-2.3-3.5,0.5c-0.6,1.7,0.7,1.1,1.9,1.5C1003.2,1086.4,1003.7,1085.8,1004.3,1085.4z"
				/>
		</g>
		<g>
			<path fill="#999DA2" d="M973.2,1107.9c-2.7,0.2-3.1,1.4-2.3,9.3c0.8,7.8,3.3,24.2,2.3,37.5s-0.5,21.2-0.5,21.2s7,5.4,23.2,10.2
				c16.2,4.8,34.3,0,40-5.2c5.8-5.1,1.7-6.6,5.3-23c3.7-16.4,3.7-17.2,3.5-25.2s1.5-14.2,1.2-17.8c-0.3-3.6-3.8-1.3-9.3,0
				s-25.9,1.6-30.2,1.4c-4.2-0.2,0.1-31.3-1.2-34.4s-3.6-2.4-5.2-1.8c-1.6,0.6-3.5,18.5-3.5,18.5s-1.7-9.6-6.8-10.3
				c-5.2-0.8-6.5,0.1-7.3,4.7c-0.8,4.5,0,10.1,0,10.1s-1.7-2.4-3.3,8.7L973.2,1107.9z"/>
			<path fill="#D8D8D8" d="M974.9,1111.6c-2.3-1.5-2.8,0.4-2,6.3s4.7,12.2,5.2,20.8s2,14.1,6.9,23.1s15.9,11.9,23.2,14
				c7.2,2.1,18,3.4,22.9-5.4s10.2-19.5,11.1-30.4c0.9-10.8,0.7-16.6,1-21.5s0.9-3.5-3-2.3s-10.5,2.9-25.4,3.7s-24.1-2.2-29.9-4.6
				c0,0,1.8,9.3,1.4,13s-1.2,5-2.4,4.6s-5.1-1.7-5.8-7.8s-0.9-11.7-0.9-11.7L974.9,1111.6z"/>
			<g>
				<path fill="#2B4CA9" d="M989.6,1098.5c0.4,6.5,0.1,10.9,0.8,13.1c0.5,1.6,4.6,0.9,6.7,0.3c1.2-13.3-0.2-23.5-1.8-27.9
					c-1.2-3.5-3.6-4.7-5.4-3.6C988.9,1087.5,989.2,1092.7,989.6,1098.5z"/>
				<path fill="#213B81" d="M988.5,1082.2c-1.7,3.4-1.9,10.3-2,16.3c-0.1,6.1,1,16.8,1,16.8s2.4,1,5.7,0.9c3.3,0,3.8-2.9,3.8-2.9
					c0.1-0.5,0.1-1,0.1-1.4c-2.1,0.5-6.2,1.3-6.7-0.3c-0.7-2.2-0.4-6.6-0.8-13.1c-0.3-5.8-0.7-11,0.4-18
					C989.4,1080.8,988.9,1081.4,988.5,1082.2z"/>
			</g>
			<path fill="#718BD7" d="M995,1088.1c-0.1-1.1-0.5-2.2-1.1-3.2c-1-1.4-1.3-0.8-1.2,0.9c0.1,2.2,0.6,7.9,1.1,12.6s1.5,5.6,1.9,2.7
				C996,1099,995.3,1091.4,995,1088.1z"/>
			<g>
				<path fill="#2B4CA9" d="M990.6,1098.5c-3.3,1.5-5.4,3.3-6.7,5.1c-1.1,7.6-0.6,15.7,0.4,20.2c0.5,2.5,1,5,1.1,7
					c0.2,0,0.4,0,0.6-0.1c1.5-0.3,1.3-4.4,0.5-10.4s-0.7-18.8,4.2-17.1L990.6,1098.5z"/>
				<path fill="#213B81" d="M983.8,1103.6c-1,1.3-1.6,2.6-2,3.8c-1,3-1.1,13.9,0,18.4c1,3.9,2.3,4.9,3.5,5c-0.2-2-0.6-4.5-1.1-7
					C983.3,1119.3,982.7,1111.1,983.8,1103.6z"/>
			</g>
			<g>
				<path fill="#E45930" d="M1002.8,1088.5c0.9,0.2,1.8,0.9,2,3.2c0.5,5.5,1.4,19.4,1.6,20.8c0.1,1,4.8-1.4,7.7,0.1
					c0-5.2-0.7-14.1-1.2-19.2c-0.7-7.2-3.3-7.1-3.3-7.1l-5.1,0.2C1003.7,1086.9,1003.2,1087.5,1002.8,1088.5z"/>
				<path fill="#E45930" d="M1006.8,1077.9c-0.1,4.9-0.1,5.4,2.8,5.5c0.1-3.8,0.3-10.1-0.1-10.8c-0.4-1-2.8-2.1-4-0.3
					C1006.5,1072.7,1006.8,1073.8,1006.8,1077.9z"/>
				<path fill="#A2442D" d="M1004.3,1086.6l5.1-0.2c0,0,0-1.2,0.1-2.9c-2.9-0.2-2.9-0.7-2.8-5.5c0.1-4.1-0.2-5.2-1.3-5.6
					c-0.2,0.3-0.4,0.7-0.5,1.2C1004.1,1076.9,1004.3,1086.6,1004.3,1086.6z"/>
				<path fill="#A2442D" d="M1006.3,1112.6c-0.2-1.4-1-15.4-1.6-20.8c-0.2-2.3-1.1-3-2-3.2c-0.6,1.5-1,3.8-0.9,7.8
					c0.6,24.1,1.2,21.6,2.9,22.2s8-0.6,8.9-1.9c0.3-0.4,0.3-1.9,0.3-4C1011.1,1111.2,1006.5,1113.6,1006.3,1112.6z"/>
				<path fill="#FB9577" d="M1010.1,1088.9c-1-1.3-2.4-2.2-2.1,0c0.3,2.2,1.4,3.2,2.1,4.6
					C1010.8,1094.9,1011.6,1090.8,1010.1,1088.9z"/>
			</g>
			<path fill="#999DA2" d="M974.3,1128.8c5,3.7,10.2,7.1,16.2,8.6c3,0.8,6,1.1,9.1,1.4c3.1,0.2,6.2,0.3,9.2,0.2
				c6.2-0.3,12.3-1.2,18.3-2.5c3-0.7,6-1.4,9-2.3c1.5-0.5,2.9-0.9,4.4-1.5c0.7-0.3,1.4-0.6,2.1-0.9c0.6-0.3,1.4-0.8,1.6-1.2l0.9,0.5
				c-0.3,0.5-0.6,0.7-1,1c-0.3,0.2-0.7,0.5-1,0.6c-0.7,0.4-1.4,0.7-2.2,1c-1.5,0.6-2.9,1.1-4.4,1.6c-3,1-6,1.8-9,2.5
				c-6.1,1.4-12.3,2.5-18.6,2.9c-3.2,0.2-6.3,0.1-9.4,0c-3.1-0.2-6.3-0.5-9.5-1.2s-6.2-2-9.1-3.5c-2.8-1.5-5.5-3.3-8-5.1
				L974.3,1128.8z"/>
		</g>
		<g>
			<path fill="#9A9EA3" d="M1070.2,1129.4c4.1-0.6,5.3-2,2.2-2s-16.5-0.6-19.2,0.7s-2,4.1,7.4,3
				C1070,1130.1,1070.2,1129.4,1070.2,1129.4z"/>
			<path fill="#FDFDFD" d="M1072.4,1127.4c0,3.8-2.8,6.9-6.3,6.9s-6.3-3.1-6.3-6.9s1.6-6.9,5-6.9
				C1068.4,1120.5,1072.4,1123.6,1072.4,1127.4z"/>
			<path fill="#9A9EA3" d="M1060.7,1123.4c-1.8,2.5-2.4,5.8-1.4,9.8s3.7,4.8,5.1,5.1s6.9,0.1,7.7-8.8c0,0,0,1-2.3,1.3
				s-8.1-1.8-8.8-2.6C1060.4,1127.3,1060.7,1123.4,1060.7,1123.4z"/>
			<path fill="#D8D8D8" d="M1071.3,1128.1c0,3.1-2.3,5.6-5.1,5.6c-2.8,0-5.1-2.5-5.1-5.6s1.3-5.6,4.1-5.6S1071.3,1125,1071.3,1128.1
				z"/>
			<g>
				<path fill="#EAEAEA" d="M1063.6,1128.9c0-0.3,0.1-0.5,0.1-0.7c-0.4,0.3-0.6,0.9-0.6,1.4c0,1,0.7,1.8,1.6,1.8
					c0.6,0,1.2-0.4,1.4-1.1c-0.3,0.2-0.6,0.3-0.9,0.3C1064.3,1130.7,1063.6,1129.9,1063.6,1128.9z"/>
				<path fill="#9C9FA4" d="M1064.6,1127.8c-0.3,0-0.7,0.1-0.9,0.3c-0.1,0.2-0.1,0.5-0.1,0.7c0,1,0.7,1.8,1.6,1.8
					c0.3,0,0.7-0.1,0.9-0.3c0.1-0.2,0.1-0.5,0.1-0.7C1066.2,1128.6,1065.5,1127.8,1064.6,1127.8z"/>
			</g>
			<g>
				<path fill="#EAEAEA" d="M1067.6,1129c0-0.3,0.1-0.5,0.1-0.7c-0.4,0.3-0.6,0.9-0.6,1.4c0,1,0.7,1.8,1.6,1.8
					c0.6,0,1.2-0.4,1.4-1.1c-0.3,0.2-0.6,0.3-0.9,0.3C1068.3,1130.8,1067.6,1130,1067.6,1129z"/>
				<path fill="#9C9FA4" d="M1068.7,1128c-0.3,0-0.7,0.1-0.9,0.3c-0.1,0.2-0.1,0.5-0.1,0.7c0,1,0.7,1.8,1.6,1.8
					c0.3,0,0.7-0.1,0.9-0.3c0.1-0.2,0.1-0.5,0.1-0.7C1070.2,1128.8,1069.6,1128,1068.7,1128z"/>
			</g>
			<g>
				<path fill="#EAEAEA" d="M1066.6,1125c0-0.3,0.1-0.5,0.1-0.7c-0.4,0.3-0.6,0.9-0.6,1.4c0,1,0.7,1.8,1.6,1.8
					c0.6,0,1.2-0.4,1.4-1.1c-0.3,0.2-0.6,0.3-0.9,0.3C1067.3,1126.8,1066.6,1126,1066.6,1125z"/>
				<path fill="#9C9FA4" d="M1067.6,1124c-0.3,0-0.7,0.1-0.9,0.3c-0.1,0.2-0.1,0.5-0.1,0.7c0,1,0.7,1.8,1.6,1.8
					c0.3,0,0.7-0.1,0.9-0.3c0.1-0.2,0.1-0.5,0.1-0.7C1069.2,1124.8,1068.5,1124,1067.6,1124z"/>
			</g>
			<g>
				<path fill="#EAEAEA" d="M1062.9,1124.6c0-0.3,0.1-0.5,0.1-0.7c-0.4,0.3-0.6,0.9-0.6,1.4c0,1,0.7,1.8,1.6,1.8
					c0.6,0,1.2-0.4,1.4-1.1c-0.3,0.2-0.6,0.3-0.9,0.3C1063.6,1126.4,1062.9,1125.6,1062.9,1124.6z"/>
				<path fill="#9C9FA4" d="M1063.9,1123.5c-0.3,0-0.7,0.1-0.9,0.3c-0.1,0.2-0.1,0.5-0.1,0.7c0,1,0.7,1.8,1.6,1.8
					c0.3,0,0.7-0.1,0.9-0.3c0.1-0.2,0.1-0.5,0.1-0.7C1065.5,1124.3,1064.8,1123.5,1063.9,1123.5z"/>
			</g>
		</g>
		<g>
			<path fill="#9A9EA3" d="M1064.9,1216.3c-5.2,1.1-8.1,1-8.9,0.2c-0.8-0.9,4.1-2.1,9.6-3.4c5.5-1.4,11.3-4.2,14.8-5.8
				c3.5-1.7,3.4,0.7-0.6,3.3c0,0,1.5,0.7,4.1,0.8s-2.6,2.1-7,2.4C1072.5,1213.9,1064.9,1216.3,1064.9,1216.3z"/>
			<path fill="#FDFDFD" d="M1078.1,1213c0,3.8-2.8,6.9-6.3,6.9s-6.3-3.1-6.3-6.9s1.6-6.9,5-6.9S1078.1,1209.2,1078.1,1213z"/>
			<path fill="#9A9EA3" d="M1066.3,1209c-1.8,2.5-4.3,7.5-3.3,11.5s5.1,4.5,6.5,4.8s7.5-1.4,8.3-10.3c0,0,0,1-2.3,1.3
				s-8.1-1.8-8.8-2.6C1066,1212.9,1066.3,1209,1066.3,1209z"/>
			<path fill="#D8D8D8" d="M1076.9,1213.7c0,3.1-2.3,5.6-5.1,5.6s-5.1-2.5-5.1-5.6s1.3-5.6,4.1-5.6S1076.9,1210.6,1076.9,1213.7z"/>
			<g>
				<path fill="#EAEAEA" d="M1069.2,1214.5c0-0.3,0.1-0.5,0.1-0.7c-0.4,0.3-0.6,0.9-0.6,1.4c0,1,0.7,1.8,1.6,1.8
					c0.6,0,1.2-0.4,1.4-1.1c-0.3,0.2-0.6,0.3-0.9,0.3C1069.9,1216.3,1069.2,1215.5,1069.2,1214.5z"/>
				<path fill="#9C9FA4" d="M1070.3,1213.4c-0.3,0-0.7,0.1-0.9,0.3c-0.1,0.2-0.1,0.5-0.1,0.7c0,1,0.7,1.8,1.6,1.8
					c0.3,0,0.7-0.1,0.9-0.3c0.1-0.2,0.1-0.5,0.1-0.7C1071.8,1214.2,1071.1,1213.4,1070.3,1213.4z"/>
			</g>
			<g>
				<path fill="#EAEAEA" d="M1073.3,1214.7c0-0.3,0.1-0.5,0.1-0.7c-0.4,0.3-0.6,0.9-0.6,1.4c0,1,0.7,1.8,1.6,1.8
					c0.6,0,1.2-0.4,1.4-1.1c-0.3,0.2-0.6,0.3-0.9,0.3C1074,1216.5,1073.3,1215.7,1073.3,1214.7z"/>
				<path fill="#9C9FA4" d="M1074.3,1213.6c-0.3,0-0.7,0.1-0.9,0.3c-0.1,0.2-0.1,0.5-0.1,0.7c0,1,0.7,1.8,1.6,1.8
					c0.3,0,0.7-0.1,0.9-0.3c0.1-0.2,0.1-0.5,0.1-0.7C1075.9,1214.4,1075.2,1213.6,1074.3,1213.6z"/>
			</g>
			<g>
				<path fill="#EAEAEA" d="M1072.2,1210.7c0-0.3,0.1-0.5,0.1-0.7c-0.4,0.3-0.6,0.9-0.6,1.4c0,1,0.7,1.8,1.6,1.8
					c0.6,0,1.2-0.4,1.4-1.1c-0.3,0.2-0.6,0.3-0.9,0.3C1072.9,1212.5,1072.2,1211.7,1072.2,1210.7z"/>
				<path fill="#9C9FA4" d="M1073.3,1209.6c-0.3,0-0.7,0.1-0.9,0.3c-0.1,0.2-0.1,0.5-0.1,0.7c0,1,0.7,1.8,1.6,1.8
					c0.3,0,0.7-0.1,0.9-0.3c0.1-0.2,0.1-0.5,0.1-0.7C1074.8,1210.4,1074.1,1209.6,1073.3,1209.6z"/>
			</g>
			<g>
				<path fill="#EAEAEA" d="M1068.5,1210.2c0-0.3,0.1-0.5,0.1-0.7c-0.4,0.3-0.6,0.9-0.6,1.4c0,1,0.7,1.8,1.6,1.8
					c0.6,0,1.2-0.4,1.4-1.1c-0.3,0.2-0.6,0.3-0.9,0.3C1069.2,1212,1068.5,1211.2,1068.5,1210.2z"/>
				<path fill="#9C9FA4" d="M1069.6,1209.1c-0.3,0-0.7,0.1-0.9,0.3c-0.1,0.2-0.1,0.5-0.1,0.7c0,1,0.7,1.8,1.6,1.8
					c0.3,0,0.7-0.1,0.9-0.3c0.1-0.2,0.1-0.5,0.1-0.7C1071.1,1209.9,1070.4,1209.1,1069.6,1209.1z"/>
			</g>
		</g>
		<g>
			<path fill="#9A9EA3" d="M1078.2,1301.9c5.2-0.9,7.3-3.2,7.5-3.8c0.2-0.7-2.7-0.4-6,1.5c-3.3,1.8-12.6-2.1-15.8-2.8
				c-3.2-0.7-4.9-0.5-2.6,1.5s4.7,2.4,4.7,2.4s-1.8-0.1-4,0s-2.8,1.2-0.5,1.6c2.3,0.5,4-0.2,4-0.2s-2.6,2-4.2,3.4s0,1.9,2.1,0.4
				s4.6-3,4.7-2.8C1068.2,1303.2,1078.2,1301.9,1078.2,1301.9z"/>
			<path fill="#FDFDFD" d="M1080.4,1299.5c0,3.8-2.8,6.9-6.3,6.9s-6.3-3.1-6.3-6.9s1.6-6.9,5-6.9
				C1076.4,1292.6,1080.4,1295.7,1080.4,1299.5z"/>
			<path fill="#9A9EA3" d="M1068.6,1295.5c-1.8,2.5-1.9,5.1-1.5,7c1,4,3.3,4.9,4.7,5.2s7.8-1.9,8.3-6.2c0,0,0,1-2.3,1.3
				s-8.1-1.8-8.8-2.6C1068.3,1299.4,1068.6,1295.5,1068.6,1295.5z"/>
			<path fill="#D8D8D8" d="M1079.2,1300.2c0,3.1-2.3,5.6-5.1,5.6c-2.8,0-5.1-2.5-5.1-5.6s1.3-5.6,4.1-5.6
				C1075.9,1294.6,1079.2,1297.1,1079.2,1300.2z"/>
			<g>
				<path fill="#EAEAEA" d="M1071.6,1301c0-0.3,0.1-0.5,0.1-0.7c-0.4,0.3-0.6,0.9-0.6,1.4c0,1,0.7,1.8,1.6,1.8
					c0.6,0,1.2-0.4,1.4-1.1c-0.3,0.2-0.6,0.3-0.9,0.3C1072.3,1302.8,1071.6,1302,1071.6,1301z"/>
				<path fill="#9C9FA4" d="M1072.6,1299.9c-0.3,0-0.7,0.1-0.9,0.3c-0.1,0.2-0.1,0.5-0.1,0.7c0,1,0.7,1.8,1.6,1.8
					c0.3,0,0.7-0.1,0.9-0.3c0.1-0.2,0.1-0.5,0.1-0.7C1074.2,1300.7,1073.5,1299.9,1072.6,1299.9z"/>
			</g>
			<g>
				<path fill="#EAEAEA" d="M1075.6,1301.2c0-0.3,0.1-0.5,0.1-0.7c-0.4,0.3-0.6,0.9-0.6,1.4c0,1,0.7,1.8,1.6,1.8
					c0.6,0,1.2-0.4,1.4-1.1c-0.3,0.2-0.6,0.3-0.9,0.3C1076.3,1303,1075.6,1302.2,1075.6,1301.2z"/>
				<path fill="#9C9FA4" d="M1076.7,1300.1c-0.3,0-0.7,0.1-0.9,0.3c-0.1,0.2-0.1,0.5-0.1,0.7c0,1,0.7,1.8,1.6,1.8
					c0.3,0,0.7-0.1,0.9-0.3c0.1-0.2,0.1-0.5,0.1-0.7C1078.2,1300.9,1077.5,1300.1,1076.7,1300.1z"/>
			</g>
			<g>
				<path fill="#EAEAEA" d="M1074.5,1297.2c0-0.3,0.1-0.5,0.1-0.7c-0.4,0.3-0.6,0.9-0.6,1.4c0,1,0.7,1.8,1.6,1.8
					c0.6,0,1.2-0.4,1.4-1.1c-0.3,0.2-0.6,0.3-0.9,0.3C1075.2,1299,1074.5,1298.2,1074.5,1297.2z"/>
				<path fill="#9C9FA4" d="M1075.6,1296.1c-0.3,0-0.7,0.1-0.9,0.3c-0.1,0.2-0.1,0.5-0.1,0.7c0,1,0.7,1.8,1.6,1.8
					c0.3,0,0.7-0.1,0.9-0.3c0.1-0.2,0.1-0.5,0.1-0.7C1077.2,1296.9,1076.5,1296.1,1075.6,1296.1z"/>
			</g>
			<g>
				<path fill="#EAEAEA" d="M1070.8,1296.7c0-0.3,0.1-0.5,0.1-0.7c-0.4,0.3-0.6,0.9-0.6,1.4c0,1,0.7,1.8,1.6,1.8
					c0.6,0,1.2-0.4,1.4-1.1c-0.3,0.2-0.6,0.3-0.9,0.3C1071.5,1298.5,1070.8,1297.7,1070.8,1296.7z"/>
				<path fill="#9C9FA4" d="M1071.9,1295.6c-0.3,0-0.7,0.1-0.9,0.3c-0.1,0.2-0.1,0.5-0.1,0.7c0,1,0.7,1.8,1.6,1.8
					c0.3,0,0.7-0.1,0.9-0.3c0.1-0.2,0.1-0.5,0.1-0.7C1073.5,1296.4,1072.8,1295.6,1071.9,1295.6z"/>
			</g>
		</g>
		<g>
			<path fill="#9A9EA3" d="M1082,1379c3.4-0.9,3.9-1.9,2.6-2s-5.1,0.6-11-0.8s-10.4-1.7-9.6-0.2s2.9,2.6,5.7,3.1
				c2.7,0.5-0.1,0.4-1.9,0.9s-2.6,1.2,2.9,1.4C1076.1,1381.7,1082,1379,1082,1379z"/>
			<path fill="#FDFDFD" d="M1083.1,1379c0,3.8-2.8,6.9-6.3,6.9s-6.3-3.1-6.3-6.9s1.6-6.9,5-6.9
				C1079.1,1372.1,1083.1,1375.2,1083.1,1379z"/>
			<path fill="#9A9EA3" d="M1071.4,1375c-1.8,2.5-1.9,5.1-1.5,7c1,4,3.6,4.4,5,4.7s7.4-1.4,8-5.7c0,0,0,1-2.3,1.3s-8.1-1.8-8.8-2.6
				C1071.1,1378.9,1071.4,1375,1071.4,1375z"/>
			<path fill="#D8D8D8" d="M1082,1379.7c0,3.1-2.3,5.6-5.1,5.6c-2.8,0-5.1-2.5-5.1-5.6s1.3-5.6,4.1-5.6S1082,1376.6,1082,1379.7z"/>
			<g>
				<path fill="#EAEAEA" d="M1074.3,1380.5c0-0.3,0.1-0.5,0.1-0.7c-0.4,0.3-0.6,0.9-0.6,1.4c0,1,0.7,1.8,1.6,1.8
					c0.6,0,1.2-0.4,1.4-1.1c-0.3,0.2-0.6,0.3-0.9,0.3C1075,1382.3,1074.3,1381.5,1074.3,1380.5z"/>
				<path fill="#9C9FA4" d="M1075.3,1379.4c-0.3,0-0.7,0.1-0.9,0.3c-0.1,0.2-0.1,0.5-0.1,0.7c0,1,0.7,1.8,1.6,1.8
					c0.3,0,0.7-0.1,0.9-0.3c0.1-0.2,0.1-0.5,0.1-0.7C1076.9,1380.2,1076.2,1379.4,1075.3,1379.4z"/>
			</g>
			<g>
				<path fill="#EAEAEA" d="M1078.3,1380.7c0-0.3,0.1-0.5,0.1-0.7c-0.4,0.3-0.6,0.9-0.6,1.4c0,1,0.7,1.8,1.6,1.8
					c0.6,0,1.2-0.4,1.4-1.1c-0.3,0.2-0.6,0.3-0.9,0.3C1079,1382.4,1078.3,1381.6,1078.3,1380.7z"/>
				<path fill="#9C9FA4" d="M1079.4,1379.6c-0.3,0-0.7,0.1-0.9,0.3c-0.1,0.2-0.1,0.5-0.1,0.7c0,1,0.7,1.8,1.6,1.8
					c0.3,0,0.7-0.1,0.9-0.3c0.1-0.2,0.1-0.5,0.1-0.7C1080.9,1380.4,1080.3,1379.6,1079.4,1379.6z"/>
			</g>
			<g>
				<path fill="#EAEAEA" d="M1077.3,1376.7c0-0.3,0.1-0.5,0.1-0.7c-0.4,0.3-0.6,0.9-0.6,1.4c0,1,0.7,1.8,1.6,1.8
					c0.6,0,1.2-0.4,1.4-1.1c-0.3,0.2-0.6,0.3-0.9,0.3C1078,1378.4,1077.3,1377.6,1077.3,1376.7z"/>
				<path fill="#9C9FA4" d="M1078.3,1375.6c-0.3,0-0.7,0.1-0.9,0.3c-0.1,0.2-0.1,0.5-0.1,0.7c0,1,0.7,1.8,1.6,1.8
					c0.3,0,0.7-0.1,0.9-0.3c0.1-0.2,0.1-0.5,0.1-0.7C1079.9,1376.4,1079.2,1375.6,1078.3,1375.6z"/>
			</g>
			<g>
				<path fill="#EAEAEA" d="M1073.6,1376.2c0-0.3,0.1-0.5,0.1-0.7c-0.4,0.3-0.6,0.9-0.6,1.4c0,1,0.7,1.8,1.6,1.8
					c0.6,0,1.2-0.4,1.4-1.1c-0.3,0.2-0.6,0.3-0.9,0.3C1074.3,1378,1073.6,1377.2,1073.6,1376.2z"/>
				<path fill="#9C9FA4" d="M1074.6,1375.1c-0.3,0-0.7,0.1-0.9,0.3c-0.1,0.2-0.1,0.5-0.1,0.7c0,1,0.7,1.8,1.6,1.8
					c0.3,0,0.7-0.1,0.9-0.3c0.1-0.2,0.1-0.5,0.1-0.7C1076.2,1375.9,1075.5,1375.1,1074.6,1375.1z"/>
			</g>
		</g>
		<path fill="#999DA2" d="M735.2,1384.9c1.6-1.2,3-2.6,4-4.3c1-1.7-1.6-3.2-2.6-1.5c-0.7,1.3-1.7,2.4-2.9,3.2
			c-0.7,0.5-1,1.3-0.5,2.1C733.5,1385,734.5,1385.3,735.2,1384.9L735.2,1384.9z"/>
		<path fill="#999DA2" d="M741.5,1374.5c1-0.7,1.8-1.7,2.1-3c0.2-0.8-0.2-1.7-1-1.8c-0.8-0.2-1.7,0.2-1.8,1c0,0.1-0.2,0.6-0.1,0.4
			c-0.1,0.1-0.1,0.3-0.2,0.4c-0.2,0.3,0.1-0.1-0.1,0.2c-0.1,0.1-0.1,0.1-0.2,0.2c0.1-0.1,0.1-0.1-0.1,0c-0.7,0.5-1,1.3-0.5,2.1
			C739.9,1374.6,740.9,1375,741.5,1374.5L741.5,1374.5z"/>
		<path fill="#999DA2" d="M750.1,1364.6c1.4-1.3,2.6-2.8,3.5-4.6c0.4-0.7,0.2-1.6-0.5-2.1c-0.7-0.4-1.7-0.2-2.1,0.5
			c-0.7,1.5-1.7,2.8-3,4C746.5,1363.7,748.6,1365.8,750.1,1364.6L750.1,1364.6z"/>
		<path fill="#999DA2" d="M763.3,1350c1.1-1,2.1-2.1,3.1-3.3c0.5-0.6,0.6-1.5,0-2.1c-0.5-0.5-1.6-0.6-2.1,0c-1,1.1-2,2.2-3.1,3.3
			C759.8,1349.3,761.9,1351.4,763.3,1350L763.3,1350z"/>
		<path fill="#999DA2" d="M776.7,1336.9c1.2-1,2.5-2,3.8-2.8c1.6-1.1,0.1-3.7-1.5-2.6c-1.5,1-3,2.1-4.4,3.3c-0.6,0.5-0.5,1.6,0,2.1
			C775.2,1337.5,776.1,1337.4,776.7,1336.9L776.7,1336.9z"/>
		<path fill="#999DA2" d="M791.3,1325c1.5-0.7,2.8-1.9,3.6-3.4c0.9-1.7-1.7-3.2-2.6-1.5c-0.6,1.1-1.4,1.8-2.5,2.3
			c-0.7,0.3-0.9,1.4-0.5,2.1S790.6,1325.3,791.3,1325L791.3,1325z"/>
		<path fill="#999DA2" d="M810,1311.8c1.9-1.2,3.8-2.3,5.8-3.5c1.7-1,0.1-3.6-1.5-2.6c-1.9,1.2-3.8,2.3-5.8,3.5
			C806.9,1310.2,808.4,1312.8,810,1311.8L810,1311.8z"/>
		<path fill="#999DA2" d="M831.5,1299.5c0.9-1,1.9-1.8,3.2-2.2c1.9-0.5,1.1-3.4-0.8-2.9c-1.8,0.5-3.4,1.5-4.5,2.9
			c-0.5,0.6-0.6,1.5,0,2.1C829.9,1300.1,831,1300.2,831.5,1299.5L831.5,1299.5z"/>
		<path fill="#999DA2" d="M852.9,1291.1c2.5,0,4.8-0.7,6.9-2.1c1.6-1.1,0.1-3.7-1.5-2.6s-3.4,1.7-5.3,1.7
			C850.9,1288.1,850.9,1291.1,852.9,1291.1L852.9,1291.1z"/>
		<path fill="#999DA2" d="M874.4,1285.9c1.4-0.5,2.7-0.7,4.1-0.6c1.9,0.2,1.9-2.8,0-3c-1.7-0.2-3.4,0.1-4.9,0.7
			c-0.8,0.3-1.3,1-1,1.8C872.8,1285.5,873.7,1286.2,874.4,1285.9L874.4,1285.9z"/>
		<path fill="#999DA2" d="M888.8,1284.7c1,0.8,2.3,0.9,3.3,0c0.6-0.5,0.6-1.6,0-2.1c-0.6-0.6-1.5-0.6-2.1,0c0.3-0.3,0.7-0.2,1,0
			c-0.6-0.5-1.5-0.6-2.1,0C888.2,1283.1,888.1,1284.2,888.8,1284.7L888.8,1284.7z"/>
		<path fill="#999DA2" d="M898.8,1286c-0.3-0.3-0.6-0.6-0.9-0.9c0,0.8,0.7,1.5,1.5,1.5s1.5-0.7,1.5-1.5c0-1.2-0.9-2-2.1-2.1
			c-0.8,0-1.5,0.7-1.5,1.5S898,1286,898.8,1286L898.8,1286z"/>
	</g>
	<path fill="#707172" d="M753.1,1401.1c-5.1,13.5-4.7,27.9-4.7,27.9l26.4-14.3L753.1,1401.1z"/>
	<path fill="#707172" d="M1420,1253c15,16,31,32,53,24s32-23,29-66l-6-42.9c0,0-26,39.9-41,57.9S1420,1253,1420,1253z"/>
</g>
</svg>
