<?xml version="1.0" encoding="utf-8"?>
<!-- Generator: Adobe Illustrator 21.0.2, SVG Export Plug-In . SVG Version: 6.00 Build 0)  -->
<svg version="1.1" id="_x32_6_x5F_Top_x5F_Midi_x5F_Dress"
	 xmlns="http://www.w3.org/2000/svg" xmlns:xlink="http://www.w3.org/1999/xlink" x="0px" y="0px" viewBox="0 0 2000 2000"
	 enable-background="new 0 0 2000 2000" xml:space="preserve">
<g>
	<g>
		<g>
			<path fill="#B58361" d="M1274,1443c-0.2,0.1-0.3,0.1-0.5,0.2c-19.6,9-47.5,4.4-47.5,4.4l11.3,28.4
				c-28.4,26.3-59.1,29.2-98.6,21.3c-12.2-2.4-21.1-5.3-27.7-8.1c-5.5-2.4-9.3-4.7-11.9-6.6c-4.4-3.3-5.4-5.6-5.4-5.6
				c-0.8-4.3-9.5-126-9.7-128.3c-5,62.8-18,133.2-18,133.2c-5.1,4.4-10.5,7.7-16,10.2c-0.8,0.3-1.5,0.7-2.3,1
				c-2.5,1.1-5.1,1.9-7.7,2.7c-1.2,0.3-2.3,0.6-3.5,0.9c-6.1,1.4-12.1,2.1-17.8,2.3c-20.5,0.6-36.9-5.4-36.9-5.4
				s22.1-30.4,24.4-52.9c0.8-7.9-0.2-16.2-2.3-24.4c-3.9-15.3-11.6-30.2-18.6-41.1c-1.9-3-4.4-6.3-7.3-9.7
				c-6.6-7.9-15.2-16.6-23.6-24.5c-7.3-6.9-14.4-13.2-20-17.9c-1.1-1-2.2-1.8-3.2-2.7c-14.2-11.6-30-25.4-30-25.4
				s23.2-37.7,25.8-48.2c2.6-10.4,7.8-42.6,10.6-56.3c2.8-13.7,12.8-59,15.1-74.3c2.2-15.3,7.1-43,7.1-43s-9.1,10.3-21.8,34.9
				s-35,48.4-48.8,64s-36.1,21.3-36.1,21.3s-2,22.9-3.3,39.7c-1.2,16.8-1.5,22.4-1.5,22.4s-21.2-12.9-32.8-19
				c-11.5-6.1-26.9-16.5-49.6-26.1c-22.8-9.6-62-11.5-75.7-9.3c-13.7,2.3-15.7,2.8-15.7,2.8s-1.5-1.6,0.6-4.7
				c1.1-1.6,5.5-7,11.6-14.2c5.6-6.6,12.6-14.8,19.7-23c4.5-5.1,9-10.2,13.4-14.6c10.2-10.4,19.3-18,23.3-18
				c5.7,0,10.2,1.3,10.2,1.3c3.3-13.9,34.4-29.1,49-37.4c14.6-8.2,72.3-40,89.7-52.1s51.4-37.5,67.5-51.6s21.5-17.8,21.5-17.8
				s2.1-2.8,5.2-5.7c3.1-2.9,4.5-1.8,4.5-1.8c0,2.3,5.3,7.1,10.4,11c3.1,2.4,6.2,4.4,7.8,5.3c2.9,1.5,5.8,3.1,8.5,4.9
				c1.3,0.9,2.5,1.9,3.6,3c0,0,0,0.1,0.1,0.1c3.4,3.5,10.8,12.7,18.2,21.4c0.2,0.2,0.3,0.4,0.5,0.6c7.2,8.4,14.7,18,15,18.3l0,0
				c0.1-13,4.3-30.9,5.5-42.6c0.1-0.8,0.2-1.6,0.2-2.3c0-0.1,0-0.1,0-0.2c0.9-9.8,0.2-13.6-2.7-17c-2.6-3.1-3.4-4.9-3.4-4.9
				c7.5-3.3,16.5,10.8,22.4,17.5c4.8,5.4,7.8,10.2,11.6,14.1c0.9,1,1.9,1.8,2.9,2.7c0.6,0.4,1.2,1,2,1.7
				c6.9,6.1,22.3,21.6,33.8,31.9c12.8,11.5,30.2,24.3,45.7,33.9c7.8,4.8,14.2,11.9,18.8,17.9c2.3,3,4.1,5.7,5.3,7.6
				c1.2,1.9,1.9,3.1,1.9,3.1s6.2-4,19.6,2.2c13.3,6.2,21.5,15.3,38.4,28c11.4,8.5,14.1,17.4,14.7,22.3c0.3,2.3,0,3.8,0,3.8
				c-8.8-5.6-15.6-8.3-20.9-3.6c-6.7,5.8-21.2,24.3-25.3,55.4c-4.2,31.1,7.3,48.6,7.3,48.6c-7.4,4.9-14.3,2.6-31.9-10.4
				c-17.7-12.9-47-40.8-47-40.8c-0.2,5,1,11,3.1,17.7c19.8,62.5,128,190,135.2,198.7C1300,1423.3,1293.7,1433.7,1274,1443z"/>
		</g>
		<path fill="#FFB37B" d="M1095.2,1020.3c-0.5,0.6-2.8-1.7-8.8-7.2s-14.6-9.7-18.3-9c-3.8,0.7,15,171.3,15,171.3l66.1,4.1
			c0,0-4.3-14.8-11.7-37.9c-7.4-23.1-20.3-56.6-25.6-72.2c-5.2-15.6-14.9-31.2-19.3-39.8s-3.6-10.7,1.5-5.1c5.1,5.6,8.7,15,8.7,15
			s-1.1-7.8,0-11.8s0.5,3.7,3.3,13.3c2.8,9.7,12,30,18.7,43.1s11.7,22.6,18.7,27.9s20.5,15.6,20.5,15.6c3.2-4.2,5.4-7.8,6.9-10.2
			c1.6-2.4-0.4-1.8-2.3-7.7c-1.9-5.9-3.2-9.8,0.7-4.7c3.9,5.1,5.2,9.2,5.2,9.2s2.8-1.8-0.3-13.5s-6.4-16.3-11.2-22.7
			c-4.8-6.3-4-8.9,2.5-2.7s14.8,19.3,16.4,30.7c0,0,3.7-1.5,6.8-11.7c3.1-10.2-3.6-13.1-4.8-17.2s2.5,0.2,5.6,5s5.7,6.3,4.1,10.8
			l5.6-1.2l0,0c0,0-2.6-4.8-7.2-10.7c-4.6-6-11.1-13.1-18.8-17.9c-15.5-9.6-32.9-22.4-45.7-33.9c-11.5-10.3-26.8-25.8-33.8-31.9
			c0.8,2.7,1.6,5.4,2,7.7C1097.2,1014.4,1095.7,1019.8,1095.2,1020.3z"/>
		<path fill="#FFB37B" d="M1093.7,1477c0,0,1,2.3,5.4,5.6c2.6,2,6.4,4.3,11.9,6.6c6.6,2.8,15.5,5.7,27.7,8.1
			c39.5,7.8,70.3,5,98.6-21.3l-11.3-28.4c-18.3-43.3-26.4-58-45.7-110.1c-19.3-52.1-30-87.5-29-96.4c1-9,6.4-2,12.6,17.2
			s17.9,65.5,29.1,92.5c11.2,26.9,45.2,76.8,54.7,86.9c4.4,4.6,15.3,5.7,25.8,5.6c0.2-0.1,0.3-0.1,0.5-0.2c19.7-9.3,26-19.7,18-29.3
			c-7.2-8.6-115.4-136.2-135.2-198.7c-15.7-1.7-50.3-5.1-72.4-4.4l-0.4,138l0,0l0,0C1084.1,1350,1092.8,1472.7,1093.7,1477z"/>
		<path fill="#FFDB93" d="M1098.5,1375.7c-0.8-17.6-4.5-50.2-6-68.4l-3.9,40.6c0,0,1,17.6,2.6,35.8c1.5,16.7,5.1,66.9,7.9,99
			c2.6,2,6.4,4.3,11.9,6.6c-2.8-17-6.6-41.3-7.7-51.1C1101.7,1422.3,1099.5,1397.9,1098.5,1375.7z"/>
		<path fill="#FFDB93" d="M1075.9,1232.6c-0.5,15.5-1.6,51.1-3.6,77.2s-7.7,76.2-10.5,93.2c-2.3,14-7.6,52.9-11.8,89.1
			c5.5-2.5,10.9-5.9,16-10.2c0,0,12.9-70.4,18-133.2l0,0c0,0,5.6-44.2,7.6-49.2c0.5-1.2,0.2-8.5,0.3-9.1
			c-0.6-17.5-1.7-42.9-1.2-55.4c0.7-15.4,0.2-25.8,0.2-25.8s-12.2-1.6-16.1-0.7C1075.3,1212.6,1076.3,1221.4,1075.9,1232.6z"/>
		<path fill="#B59F72" d="M1091.5,1292.1c-1.3,6-7.6,56.6-7.6,56.6l0,0l0,0c0,0,8.9,124,9.7,128.3c0,0,1,2.3,5.4,5.6
			c-2.8-32.1-6.4-82.3-7.9-99c-1.7-18.2-2.6-35.8-2.6-35.8l4-40.1c-0.4-4.8-0.3-3.8-0.3-7.1c-0.1-2.9-0.2-6.4-0.3-10.4
			C1091.9,1290.3,1091.8,1290.8,1091.5,1292.1z"/>
		<path fill="#B59F72" d="M1073.8,1209c-0.7,1.9,0.1,5.3,0,16.9s-3.7,75.5-4.8,95.9c-1.2,20.4-10.1,84.9-11.5,92.3
			c-1.2,6.3-6.7,46.7-9.8,78.9c0.8-0.3,1.5-0.6,2.3-1c4.3-36.1,9.5-75,11.8-89.1c2.8-17,8.5-67.1,10.5-93.2s3.1-61.7,3.6-77.2
			c0.4-11.2-0.6-20.1-1.1-24.2C1074.3,1208.6,1073.9,1208.8,1073.8,1209z"/>
		<path fill="#FFDB93" d="M1054.9,1028.5c-0.3-0.3-7.8-9.9-15-18.3c-6.3-0.6-12.6,3.8-12.6,3.8s10,18.7,16,31.3
			c6,12.7,18.8,48.6,22,62.7c2.9,12.9,7.7,40,8.4,66c9.4-0.2,13.8,0,13.8,0s-0.2-14.6-2.8-34.2c-2.5-18.3-10.7-57.4-14.2-72
			C1068.9,1061.2,1059.8,1037.2,1054.9,1028.5C1054.9,1028.6,1054.9,1028.6,1054.9,1028.5z"/>
		<path fill="#B59F72" d="M1054.9,1028.6C1054.9,1028.6,1054.9,1028.5,1054.9,1028.6L1054.9,1028.6c4.9,8.6,14,32.6,15.6,39.3
			c-0.2-1-0.5-1.9-0.7-2.6c0,0-0.1-3-0.2-7.5c-2.7-7.4-8-21.3-12-28.6c0,0-0.2-7.5,2.7-17.2c2.2-7.3,5.8-9.4,8.9-9
			c0.3-7.3,0.5-12.7,0.5-12.7s-5.8-8.1-9.2-6.7c-0.1,0.7-0.1,1.5-0.2,2.3C1059.2,997.7,1055,1015.6,1054.9,1028.6z"/>
		<path fill="#B59F72" d="M1018.2,1003.7c0,0,8.4,12.2,13.5,22.3s18.9,38.1,25,57.2s11,37.5,13.2,57.8s2.3,33,2.3,33
			c0.5,0,1,0,1.5,0c-0.7-26-5.5-53.1-8.4-66c-3.2-14.1-16-50-22-62.7s-16-31.3-16-31.3s6.3-4.4,12.6-3.8c-0.2-0.2-0.3-0.4-0.5-0.6
			c-7.4-8.6-14.8-17.9-18.2-21.4c0,0-0.1,0-0.1-0.1c-1.1-1.1-2.3-2.1-3.6-3h-0.2L1018.2,1003.7z"/>
		<path fill="#FFB37B" d="M989,976.1c-3.2,4.5-6.6,11.3-2.4,25s15.1,26.3,20.5,31c5.5,4.7,6.6,5.6,8.5,0.8
			c1.7-4.4,3.3-24.8,5.6-44.6l-0.1-0.1c-3.3-3.4-7.8-5.7-12-8c-1.6-0.9-4.7-2.9-7.8-5.3C996,973.9,990.9,973.5,989,976.1z"/>
		<path fill="#FFB37B" d="M1068.9,986.9c7.3,7,10.5,11.8,16.9,17.4s8.2,9.8,8.2,9.8s-1-8.8-5.5-21c-3.8-3.9-6.8-8.7-11.6-14.1
			c-5.9-6.7-14.9-20.8-22.4-17.5c0,0,0.8,1.7,3.4,4.9c2.9,3.5,3.6,7.3,2.7,17C1062.5,981.3,1063.8,982,1068.9,986.9z"/>
		<path fill="#FFB37B" d="M1176.3,1126.2c-3.7,14.9,5,31.2,17.7,46s24.1,14.9,24.1,14.9c8.4-19.5,14.7-42.8,31.3-48.2
			c13.5-4.5,15.7,0,22.2,5.5c-0.6-4.9-3.3-13.7-14.6-22.3c-16.9-12.7-25-21.8-38.4-28c-13.3-6.1-19.5-2.2-19.5-2.2l0,0
			C1189.9,1100.7,1180,1111.2,1176.3,1126.2z"/>
		<path fill="#FFB37B" d="M1050.3,1077.7c-7-21.1-19.4-49.3-26-56.4c0,0-3.5,4.4-4.5,11.6c-1.1,7.2-3.9,11-8.4,6.7
			c-4.5-4.2-10.4-7.7-21.3-27.7c-10.9-20-12.3-26.4-12.3-26.4s-12.2,1.4-25,13.3c-12.8,11.9-61.7,46.2-84.8,62.7
			s-56.7,31.3-60.2,42.6c0,0,10.1-0.2,9.3,7.1c-0.8,7.3-14.3,22.6-14.3,22.6s2.2-0.1,8.2-6.7s11-10.5,11.8-9.5
			c0.8,1.1-4.4,8.4-9.4,16.2c-5,7.8-3.5,11.4,1.6,16.1s12.5,7.9,12.5,7.9s3-6,9.8-13.7s13.8-10.3,15.8-10.3
			c2.1-0.1-5.7,6.2-9.5,11.8s-6.8,10.8-3.1,12.2c3.7,1.4,15.3-8.2,26.6-18.4c11.3-10.2,17.6-14.8,15.3-9.5s-12.7,22.1-22.3,27.9
			c-9.7,5.8-19.8,12.6-17.8,14.6c1.9,2,10.2,4.2,18.5-5.8s14.3-14.3,12.7-11.3c-9,16.3-22,23.6-19,23.2c6.3-0.8,20.4-9.6,38.5-32.6
			c18.1-23.1,28.6-45.5,50.5-68.2s34.5-38.6,37.7-41.4s7.2-0.9,0,6.3c-7.2,7.2-8.3,9.7-10.1,21s-0.4,30.5-2,51.5
			s-9.9,79.2-15.4,96.1s-4.5,16.7-4.5,16.7s28.7-10.6,57.4-16s63.3-8.7,63.3-8.7s-0.4-25.8-2.4-44.8S1057.3,1098.8,1050.3,1077.7z"
			/>
		<path fill="#FFB37B" d="M1068,1269.4c2.9-37.6,1.9-60.4,1.9-60.4c-20.9,0.5-67.5,8.1-88.6,13.5S948,1235,948,1235
			s-8.5,27.6-10.8,43.1c-2.3,15.4-3.1,21.3-2.7,44.8c5.6,4.7,12.8,11,20,17.9c2.1-6.2,5-15.1,7.2-22.5c3.8-12.7,10.2-36.1,18.5-42.7
			s10.6,0.7,5.8,14.6s-13.9,36.4-11.1,58.8c0.7,5.3,1.8,10.8,3.2,16.3c2.9,3.5,5.4,6.7,7.3,9.7c7,10.9,14.7,25.8,18.6,41.1
			c11.4,15.9,7.6,40.3,5.4,52.3c-1.8,10.1,1.3,19.5,9.3,30.4c6.8-0.2,14-1.1,21.3-3.2c1.3-12.6,4.3-34.6,10.5-63
			C1060.4,1387.2,1065.1,1307,1068,1269.4z"/>
		<g>
			<path fill="#FFDB93" d="M998.2,1087.2c-10.6,0.4-18,2.2-19,10.1c-1.1,7.8-2.9,15.4,1.2,22.3c4.2,7,14.1,16.5,22.1,21.3
				c7.9,4.8,9.7,4.9,9.8,4.9c2-0.3,4-1.1,5.9-2.5c9.1-6.6,17.6-18.8,19.9-26.8c1.7-5.9,0.9-20.8,0.3-28.1c-0.1,0-0.2,0.1-0.3,0.1
				C1033.2,1091.6,1008.8,1086.9,998.2,1087.2z"/>
			<path fill="#E57C2E" d="M1039.8,1080c-0.6-5.4-1-7.5-1.6-11.2s-14.7-9.5-58.9-3.6c2.4,0.1,2.3,2,1.2,3.9
				c-1.5,2.4,0.1,1.3-0.2,9.2c-0.1,2.2,0.2,3.7,0.8,4.8c6.4-1,17-2.3,24.7-2.3c11.6,0.1,32.4,3.6,32.4,3.6s0.1,1.3,0.3,3.4
				c0.1,0.2,0.2,0.4,0,0.5c0,0.1,0,0.1,0,0.2C1041.2,1087.7,1040.4,1085.2,1039.8,1080z"/>
			<path fill="#E57C2E" d="M993.2,1083.5c8.5-1.7,42.9,1.5,45.2,4.3c-0.2-2.1-0.3-3.4-0.3-3.4s-20.8-3.5-32.4-3.6
				c-7.7-0.1-18.4,1.3-24.7,2.3C982.6,1085.6,986.5,1084.8,993.2,1083.5z"/>
			<path fill="#E57C2E" d="M1038.2,1088.6c0.1,0,0.2-0.1,0.3-0.1c0-0.1,0-0.1,0-0.2C1038.4,1088.4,1038.3,1088.5,1038.2,1088.6z"/>
			<path fill="#8D7463" d="M990.4,1137.2c-7.4-5.4-13.5-13.2-13.9-18.9c-0.3-5.1-0.7-18-0.8-30.6c-2.7-1.1-1.9-4.4-0.8-10.1
				c1.3-6.4,0.2-11.8,3.8-12.3c0.2,0,0.3,0,0.5-0.1c-2.7,0.4-5.9,1.1-6.2,4.3c-1.3,13.1-1.1,25.6,0,37.2s1.1,16.3,5.6,22.2
				c4.2,5.5,16.6,13.9,21.8,16.5s11.9,0.5,11.9,0.5l0,0C1004.6,1147.1,996.3,1141.6,990.4,1137.2z"/>
			<path fill="#B59F72" d="M980.4,1119.7c-4.2-7-2.3-14.5-1.2-22.3s8.4-9.7,19-10.1s35.1,4.3,40,1.4c-3.1,0.7-9-2.5-29.8-4.2
				c-20.8-1.8-27.5,4.3-31.6,3.7c-0.5-0.1-0.8-0.2-1.2-0.3c0.1,12.6,0.5,25.5,0.8,30.6c0.4,5.6,6.4,13.4,13.9,18.9
				c5.9,4.3,14.2,9.8,21.9,8.7c-0.1,0-1.9-0.2-9.8-4.9C994.4,1136.1,984.5,1126.6,980.4,1119.7z"/>
			<path fill="#B59F72" d="M1038.5,1087.8c0,0.2,0,0.3,0,0.5C1038.6,1088.2,1038.6,1088,1038.5,1087.8z"/>
			<path fill="#A35D2C" d="M1038.5,1088.3c-0.1,0.1-0.2,0.2-0.3,0.3c-3.1,0.7-9-2.5-29.8-4.2c-20.8-1.8-27.5,4.3-31.5,3.7
				c-0.5-0.1-0.8-0.2-1.2-0.3c-2.7-1.1-1.9-4.4-0.8-10.2c1.3-6.4,0.2-11.8,3.8-12.3c0.2,0,0.3,0,0.5-0.1c2.4-0.3,3.7-0.5,3.7-0.5
				c-1.5,2.4-2.4,5.6-2.7,13.5c-0.1,2.2,0.2,3.8,0.8,4.8c1.6,2.6,5.5,1.8,12.2,0.5c8.5-1.7,42.9,1.5,45.2,4.3
				C1038.5,1088,1038.5,1088.2,1038.5,1088.3z"/>
		</g>
		<ellipse fill="#A35D2C" cx="1004.7" cy="1073.9" rx="6.6" ry="6.1"/>
		<g>
			<path fill="#6C2614" d="M1002,1073.1c0-2.6,2.7-4.6,5.9-4.6c0.4,0,0.8,0,1.2,0.1c-0.8-0.4-1.7-0.6-2.7-0.6
				c-3.3,0-5.9,2.5-5.9,5.7c0,3.1,2.7,5.7,5.9,5.7c1.9,0,3.6-0.9,4.7-2.3c-0.9,0.5-2,0.7-3.2,0.7
				C1004.6,1077.7,1002,1075.6,1002,1073.1z"/>
			<path fill="#842A0F" d="M1009.1,1068.5c-0.4-0.1-0.8-0.1-1.2-0.1c-3.3,0-5.9,2.1-5.9,4.6c0,2.6,2.7,4.6,5.9,4.6
				c1.2,0,2.3-0.3,3.2-0.7c0.8-1,1.2-2.1,1.2-3.4C1012.3,1071.4,1011,1069.5,1009.1,1068.5z"/>
		</g>
		<g>
			<path fill="#B59F72" d="M710.5,1204.5c12.3,0.3,20.6,1.4,23.3,0s12.3-15.8,25.4-29.8c13.1-14.1,49.5-49.4,54-57.7
				c4.5-8.2,4.2-15.1-9.7-11.8c-13.9,3.2-77.5,60.4-90,77.3S695.5,1204.2,710.5,1204.5z"/>
			<path fill="#FFDB93" d="M705.7,1195.3c21.7-31.2,36.8-46.7,52.8-59.2s36.3-29.9,46.7-31.3c10.3-1.4,9.4,4.8,4.7,12
				c-4.8,7.2-27.8,33.1-42,44.3c-14.2,11.2-23.1,24.1-28.8,30.6s-8.1,7.2-12,8.6C723.1,1201.7,701.8,1200.9,705.7,1195.3z"/>
			
				<ellipse transform="matrix(0.6515 -0.7587 0.7587 0.6515 -571.5725 993.7581)" fill="#B59F72" cx="795.8" cy="1119" rx="10" ry="6.1"/>
			
				<ellipse transform="matrix(0.6515 -0.7587 0.7587 0.6515 -571.2064 994.442)" fill="#622617" cx="796.7" cy="1118.9" rx="7.9" ry="4.6"/>
			
				<ellipse transform="matrix(0.6515 -0.7587 0.7587 0.6515 -571.1331 994.1715)" fill="#842A0F" cx="796.5" cy="1118.7" rx="6.6" ry="3.5"/>
		</g>
		<g>
			<path fill="#FFDB93" d="M1060.4,1012c-2.9,9.7-2.7,17.2-2.7,17.2c4,7.3,9.2,21.1,12,28.6c-0.2-7.1-0.5-17.9-0.7-26.7
				c-0.2-7.9,0.1-19.3,0.4-28C1066.2,1002.6,1062.6,1004.7,1060.4,1012z"/>
		</g>
		<g>
			
				<ellipse transform="matrix(0.9978 -6.564859e-02 6.564859e-02 0.9978 -67.0446 71.5801)" fill="#B59F72" cx="1055.7" cy="1056" rx="5.8" ry="8.9"/>
			<g>
				<path fill="#6C2614" d="M1053.9,1055.3c0-3.4,1.9-6.2,4.2-6.2c0.1,0,0.3,0,0.4,0c-0.7-0.5-1.4-0.8-2.2-0.8
					c-2.8,0-5.1,3.4-5.1,7.6s2.3,7.6,5.1,7.6c1.7,0,3.2-1.2,4.1-3.1c-0.7,0.6-1.4,1-2.3,1
					C1055.8,1061.5,1053.9,1058.7,1053.9,1055.3z"/>
				<path fill="#842A0F" d="M1058.5,1049.1c-0.1,0-0.3,0-0.4,0c-2.3,0-4.2,2.8-4.2,6.2c0,3.4,1.9,6.2,4.2,6.2c0.8,0,1.6-0.4,2.3-1
					c0.6-1.3,1-2.8,1-4.6C1061.4,1052.9,1060.2,1050.3,1058.5,1049.1z"/>
			</g>
		</g>
		<g>
			
				<ellipse transform="matrix(0.9852 -0.1715 0.1715 0.9852 -175.7388 200.6539)" fill="#B59F72" cx="1073.5" cy="1117.5" rx="5.8" ry="8.9"/>
			<g>
				<path fill="#6C2614" d="M1071.7,1116.9c-0.4-3.4,1.2-6.4,3.5-6.6c0.1,0,0.3,0,0.4,0c-0.7-0.4-1.5-0.6-2.3-0.5
					c-2.8,0.3-4.7,3.9-4.3,8.1c0.4,4.2,3.1,7.3,5.9,7c1.7-0.2,3-1.5,3.8-3.5c-0.6,0.7-1.3,1.1-2.2,1.2
					C1074.2,1122.9,1072,1120.3,1071.7,1116.9z"/>
				<path fill="#842A0F" d="M1075.6,1110.3c-0.1,0-0.3,0-0.4,0c-2.3,0.2-3.9,3.2-3.5,6.6s2.5,6,4.8,5.7c0.8-0.1,1.6-0.5,2.2-1.2
					c0.5-1.3,0.7-2.9,0.5-4.6C1078.9,1113.8,1077.4,1111.3,1075.6,1110.3z"/>
			</g>
		</g>
		<g>
			
				<ellipse transform="matrix(0.9997 -2.436600e-02 2.436600e-02 0.9997 -30.4334 26.7436)" fill="#B59F72" cx="1082.2" cy="1262.2" rx="6.1" ry="9.4"/>
			<g>
				<path fill="#6C2614" d="M1080.4,1261.3c0.1-3.6,2.2-6.5,4.7-6.4c0.1,0,0.3,0,0.4,0c-0.7-0.5-1.5-0.9-2.3-0.9
					c-3-0.1-5.5,3.4-5.7,7.8s2.1,8.1,5.1,8.2c1.8,0.1,3.4-1.1,4.4-3c-0.7,0.6-1.5,1-2.4,1C1082.1,1268,1080.3,1265,1080.4,1261.3z"
					/>
				<path fill="#842A0F" d="M1085.5,1255c-0.1,0-0.3,0-0.4,0c-2.4-0.1-4.5,2.7-4.7,6.4c-0.1,3.6,1.7,6.6,4.1,6.7
					c0.9,0,1.7-0.3,2.4-1c0.7-1.3,1.2-2.9,1.3-4.7C1088.4,1259.2,1087.3,1256.4,1085.5,1255z"/>
			</g>
		</g>
		<g>
			
				<ellipse transform="matrix(3.328626e-02 -0.9994 0.9994 3.328626e-02 -288.8929 2364.4668)" fill="#B59F72" cx="1077.8" cy="1331.6" rx="9.4" ry="6.1"/>
			<g>
				<path fill="#6C2614" d="M1076.2,1330.6c0.4-3.6,2.6-6.3,5-6.1c0.1,0,0.3,0,0.4,0.1c-0.7-0.6-1.4-0.9-2.2-1c-3-0.3-5.7,3-6.2,7.4
					c-0.4,4.4,1.6,8.2,4.6,8.5c1.8,0.2,3.4-0.9,4.6-2.8c-0.8,0.6-1.6,0.9-2.5,0.8C1077.5,1337.3,1075.8,1334.2,1076.2,1330.6z"/>
				<path fill="#842A0F" d="M1081.6,1324.6c-0.1,0-0.3-0.1-0.4-0.1c-2.4-0.2-4.7,2.5-5,6.1c-0.4,3.6,1.3,6.7,3.7,6.9
					c0.9,0.1,1.7-0.2,2.5-0.8c0.8-1.3,1.4-2.9,1.5-4.7C1084.2,1328.9,1083.3,1326.1,1081.6,1324.6z"/>
			</g>
		</g>
		<g>
			<path fill="#A35D2C" d="M1156.8,1215L1156.8,1215C1156.8,1215.1,1156.8,1215,1156.8,1215z"/>
			<path fill="#A35D2C" d="M1074.1,1203.3c0,0-1.1-16.1-1.6-30.8c-1.3,0-2.6,0-3.9,0c1,10.7,1.1,30.5,1.1,30.5
				c-16-0.3-38.3,6.2-60.2,8.9c-21.8,2.7-60.3,15.6-60.3,15.6s3.2-14.3,7.2-32.2c-7.4,3.2-14.5,6.6-21.5,10.1l-7.8,41.2
				c13.2-21.9,79.7-32.8,106.4-35.5c26.7-2.7,55.2-2.8,89.5-0.8c31.5,1.9,33.6,4.2,33.8,4.6l-0.6-2.6c-15.7-6.2-48-4.4-57.4-6.2
				C1088.8,1204.2,1074.1,1203.3,1074.1,1203.3z"/>
			<path fill="#E57C2E" d="M1009.5,1211.9c21.8-2.7,44.2-9.2,60.2-8.9c0,0-0.1-19.8-1.1-30.5c-48.5,0.8-82.3,9.9-112.2,22.8
				c-4,17.9-7.2,32.2-7.2,32.2S987.7,1214.6,1009.5,1211.9z"/>
			<path fill="#E57C2E" d="M1073.6,1172.5c-0.4,0-0.8,0-1.1,0c0.6,14.8,1.6,30.8,1.6,30.8s14.6,1,24.7,2.9
				c9.3,1.8,41.7,0.1,57.4,6.2l-7.1-32.7C1144.7,1172.4,1137,1172.2,1073.6,1172.5z"/>
		</g>
		<g>
			<ellipse fill="#A35D2C" cx="1081.1" cy="1188.4" rx="5.2" ry="8.7"/>
			<g>
				<path fill="#6C2614" d="M1078.2,1187.1c-0.3-3.9,1.6-7.3,4.3-7.5c0.1,0,0.1,0,0.2,0c-0.5-0.2-1.1-0.4-1.6-0.3
					c-2.7,0.2-4.5,3.9-4.2,8.2c0.3,4.4,2.7,7.7,5.4,7.5c1-0.1,1.8-0.6,2.5-1.5c-0.4,0.2-0.8,0.3-1.2,0.3
					C1080.9,1194.1,1078.5,1191.1,1078.2,1187.1z"/>
				<path fill="#842A0F" d="M1086.4,1186.8c-0.3-3.4-1.8-6.3-3.8-7.2c-0.1,0-0.1,0-0.2,0c-2.7,0.2-4.6,3.5-4.3,7.5
					c0.3,3.9,2.7,7,5.3,6.8c0.4,0,0.8-0.1,1.2-0.3C1085.9,1192.1,1086.6,1189.6,1086.4,1186.8z"/>
			</g>
		</g>
		<path fill="#FFB37B" d="M745.3,1197.9c0,0,16.6,2.4,32.4,9.6c15.8,7.2,43.7,26.3,46.1,26s2.9-1.2,12.5-18.6s12.4-26.9,12.4-26.9
			s-4.8-12.5-26.2-27.7s-28-16-28-16s-5.4,5.9-16.2,16.2C767.5,1170.7,753.5,1183,745.3,1197.9z"/>
		<path fill="#FFB37B" d="M687.8,1195.9c6.6-0.7,10.5,0.1,10.5,0.1s15.9-19.4,27-33.2c11.2-13.8,22.9-22.4,22.9-22.4s2-4.6-6.3-6.4
			c-3.9-0.9-13.2,5.8-22,13.2c-4.4,4.5-9,9.5-13.4,14.6c-7.1,8.2-14.1,16.3-19.7,23C682.7,1194.1,683.3,1196.4,687.8,1195.9z"/>
	</g>
	<polygon fill="#A35D2C" points="1088.3,1174.8 1090.3,1205.7 1093,1206.7 	"/>
</g>
</svg>
