<?xml version="1.0" encoding="utf-8"?>
<!-- Generator: Adobe Illustrator 21.0.2, SVG Export Plug-In . SVG Version: 6.00 Build 0)  -->
<svg version="1.1" id="_x33_0_x5F_Top_x5F_Barbarian_x5F_FurVest"
	 xmlns="http://www.w3.org/2000/svg" xmlns:xlink="http://www.w3.org/1999/xlink" x="0px" y="0px" viewBox="0 0 2000 2000"
	 enable-background="new 0 0 2000 2000" xml:space="preserve">
<g>
	<g>
		<g>
			<path opacity="0.3" fill="#091426" enable-background="new    " d="M1087.9,1142.8c-0.9-3.1-2.5-5.9-3.7-8.9
				c-1.7-4.5-3.2-9-4.9-13.5c-0.4-1.2-1.1-2.1-2-2.7c-0.2-2.3-0.6-4.5-1.2-6.8c-1.5-6.2-2.3-12.2-2.5-18.6
				c-0.3-9.8-3.2-19-11.4-25.1c-6-4.5-16.5-7.6-22.6-1.9c-7.8-7.6-16.8-13.7-26.3-19c-5.7-3.2-11.5-6-17.4-8.7c-2.2-1-4.5-2-6.7-3.1
				c-0.2-0.1-0.3-0.1-0.5-0.2l0,0l0.1-0.1c0.3-0.3,0.6-0.7,0.8-1.1c0-0.1,0.1-0.2,0.1-0.3c0.9-1.8,0.7-3.8-0.2-5.2
				c0-0.6,0-1.2-0.2-1.9c-3-9.8-9.7-18.2-18.8-22.8c-2.7-1.4-6.4-3.2-9.9-3.4c-2.3-1.5-5.2-2-8.2-1c-3.8,1.3-6.4,5.1-6.1,9
				c0.3,4.6,3.4,6,6.5,8.1c-0.1,0.3-0.2,0.7-0.3,1c-0.3,1.6,0.1,3-0.2,4.6c-0.1,0.6,0,1.2,0.3,1.7c-0.5,0.5-1,1-1.4,1.6
				c-0.7,1.1-1.2,3.7,0.6,4.1c1,0.2,1.8-0.1,2.8-0.3c1.3-0.2,2.6-0.1,3.9,0.1c-3,2.2-6.2,4.8-7.6,7.9c-0.2,0.5,0.2,1.2,0.8,1
				c2-0.6,3.9-1.5,5.7-2.6c-2,1.8-3.7,3.7-4.1,5.9c-0.1,0.4,0.2,0.9,0.7,0.9c4.8-0.2,9.3-3.9,14.1-4.8c1.1-0.2,2.1-0.4,3.2-0.6
				l13.7,203.7c-2.2-0.6-4.6,1.6-4.1,4.1c0.1,0.5,0.2,0.9,0.3,1.4c-1.3,5.4-5.7,11.9-1.7,16.8c1.1,1.3,3.4,0.5,3.8-1
				c0.4-1.5,0.1-2.6-0.1-4.2c-0.2-1.9,0.2-3.6,0.6-5.5c0.4,0.9,0.7,1.8,1,2.7c0.5,1.8,1.4,3.4,1.7,5.2c0.3,1.8,1.1,5,0.3,6.6
				c-0.3,0.6,0.5,1,0.8,0.5c1.4-2.3,3.5-3,4.5-5.6c1.1-2.7,2.3-5.6,2.2-8.6c0-0.3,0-0.6-0.1-0.9c1.4-2.5,2.8-5.1,4.9-7.1
				c0.3-0.3,0.4-0.6,0.4-0.8c0.1,0.1,0.1,0.2,0.3,0.3c0.7,0.7,1.1,1.7,1.8,2.4c3.6,3.8,9.4-2.1,5.7-5.7c-0.1-2.8,0.7-3.1,2.4-1
				c1,0.9,1.7,2,2.2,3.2c1.4,2.6,6.3,1.6,5.9-1.6c-0.3-2-2.9-7.8-1.3-10.3c0.4,0.4,0.8,0.8,1.3,1.2c2.8,2.3,6.4,0.1,5.9-3.4
				c-0.1-0.1-0.1-0.1-0.2-0.2c0.1,0,0.1,0.1,0.2,0.2l0,0c0.1,0.1,0.3,0.2,0.4,0.4c1,0.6,1.7,0.8,2.9,0.8c2.8,0.2,4.4-3.2,3.1-5.4
				c-2-3.4-6.4-9.4-3.5-13.3c1.1-1.5,0.8-3-0.2-4.1c0.1-0.5,0.1-1,0.1-1.5c0.1-1.6-0.4-3.2,0-4.8c0.4-1.5,1.4-2.8,2.6-2.8
				c1,1.2,2.2,2.2,3.5,3c2.6,1.7,5.8-1.6,4.2-4.2c-0.9-1.4-2-2.6-3.4-3.5c-0.4-0.8-0.6-1.8-0.6-3c-0.1-0.8,0-1.5,0.2-2.2
				c0.1-0.1,0.1-0.3,0.2-0.4c1.7-0.3,3.1-1.2,4.1-2.8c1.7-3,0.2-7.1,3.1-9.6c2.3-2,8-1.4,11.2-2.2c4.3-1.1,8.6-2.5,12.8-3.9
				c7.9-2.7,15.6-6,22.3-11.1C1092.1,1153.9,1094.1,1146.4,1087.9,1142.8z M1054.7,1099c-0.5,2.3-2.4,3.7-4.1,5.3
				c-2.2,2.2-4.2,4.5-6.1,6.9c-1.4,1.7-2.7,3.5-3.9,5.3c-0.1-4.9-0.2-9.9-0.2-14.8c0-0.6,0-1.1,0-1.7c0.4-3.8,0.9-7.7,1.9-11.4
				c0.5-2,1.7-4.5,2.5-7c1.5,1.2,3,2.3,4,3.5C1051.5,1088.4,1055.6,1094.6,1054.7,1099z"/>
			<g>
				<g>
					<path fill="#4F3615" d="M1052.7,1153.6c-0.8-2.1-2.1-3.9-3.6-5.6l0,0c-0.3-1.5-1.7-2.8-2.6-3.9c-1.8-2.1-3.7-4.2-5.6-6.1l0,0
						c0.3,0.1,0.7,0.2,1,0.3c1.8,0.6,3.9,1.9,5.9,1.7c0.3,0,0.5-0.4,0.3-0.7c-1.4-1.6-3.9-2.1-5.7-3.1c-0.4-0.2-0.8-0.5-1.2-0.7
						c-0.1-1.5,0.1-2.9,0.6-4.3c0.3,0.6,0.6,1.2,0.9,1.8c0.7,1.3,3,0.4,2.4-1c-0.7-1.9-0.7-3.8-0.5-5.8c0.9,0.9,1.7,1.8,2.5,2.7
						c0.8,0.9,2.4-0.3,1.7-1.3c-0.2-0.2-0.3-0.5-0.5-0.7c0.9,1.2,1.6,2.4,2.9,3.3c0.3,0.2,0.7-0.1,0.7-0.4c-0.1-2.5-1.4-4.8-2.3-7.2
						c-0.4-1.2-0.9-2.3-1.5-3.4c-0.2-2.5-1.2-4.9-2.4-7c-0.7-1.2-1.7-2.3-2.8-3.2c-0.7-1.5-1.6-2.9-2.7-4.1c0.5,0,1,0.1,1.6,0.1
						c3,0.4,5.4,3.8,6.6,6.3c0.4,1,2.1,0.3,1.8-0.8c-0.8-2.8-2-5.6-3.8-7.8c-0.6-0.8-1.4-1.5-2.2-2.1c0.8-0.2,1.1-1.3,0.5-1.9
						s-1-1.3-1.7-1.8c-0.4-0.3-0.7-0.6-1.1-0.8c-0.1-1.1-0.1-2.1,0.2-3.2c0,0,0,0,0,0.1c0.6,0.8,1.4,1.8,2.3,2.2
						c0.7,0.3,1.5,0.3,2.1-0.3c0.1-0.1,0.1-0.2,0.2-0.3l0,0c1.2,1,1.8,1.9,3.2,2.5c0.4,0.2,0.7-0.3,0.7-0.7c-0.2-1.3-0.8-1.9-1.5-3
						c-0.5-0.8-0.9-1.7-1.4-2.6c0.1-0.2,0.1-0.4,0-0.7c-0.4-3.7-1.1-7.3-2.5-10.7c-1.1-2.6-2.5-4.9-4.1-7.1c2.1,2.3,4.5,4.3,7.2,5.9
						c0.7,0.4,1.4-0.5,0.8-1.1c-1.9-1.8-3.1-3.9-4.2-6.1c0.1-0.3,0.1-0.6-0.1-0.9c-0.4-0.9-0.4-1.9-0.8-2.9
						c-0.2-0.6-0.5-1.1-0.7-1.7c0.6,0.2,1.1,0.3,1.7,0.6c1,0.4,2,0.9,2.9,1.5s1.5,1.2,2.6,1.5c0.6,0.1,1.2-0.3,1.2-0.9
						c0-1.8-1.6-3.7-3.1-5c0.3-0.3,0.6-0.8,0.5-1.3c-1.2-7.5-5.5-13.7-8.5-20.6c-2.7-6.1-4.8-12.4-7.7-18.4c1.7-0.2,4.4-0.3,5.4-1.9
						c0.2-0.3,0.1-0.6-0.1-0.9c-1.1-1.3-3-0.9-4.5-1.3c-1.6-0.4-2.9-1.4-4.3-2.2c-0.9-1.6-1.9-3.2-2.8-4.9c-0.6-1-1-2-1.6-3
						c0-0.1-0.1-0.1-0.1-0.2c2.3,0.6,4.7,0.9,7,1.2c0.8,0.1,1-1.1,0.4-1.4c-2.4-1.3-4.3-2.8-6.3-4.7c-0.8-0.8-1.6-1.7-2.4-2.5
						c-1.5-3.2-3.2-6.2-5.2-9.1c0.1,0,0.3,0,0.4,0c2.9,0,5.7,0,8.5,0.7c0.5,0.1,0.7-0.6,0.2-0.8c-2.3-0.8-4.3-2.3-6.4-3.5
						c3.4,0.4,7.7,0.6,10.4,2.5c1.2,0.8,2.2-1,1.1-1.9c-3-2.3-7.3-3.8-10.7-5.4c-2.9-1.4-6-1.7-9.1-1.7c0.4-0.5,0.7-1.1,1.2-1.6
						c1.6-1.8,5.3-2.3,7.5-2.3c0.3,0,0.4-0.4,0.1-0.6c-2.3-1.3-5.6-1.4-8.2-1.1c-0.8,0.1-1.5,0.3-2.2,0.6c0.2-0.4,0.5-0.9,1-1.3
						c1.5-1.5,3.8-2.5,5.8-3.3c0.2-0.1,0.3-0.2,0.3-0.4c1-0.1,2-0.3,3-0.4c0.4,0,0.3-0.6,0-0.7c-3.3-0.7-6.3-1.1-9.5-0.5
						c-0.8-0.2-1.6-0.2-2.4-0.1c-0.2,0-0.5,0-0.7,0c0-0.2-0.1-0.3-0.1-0.5l0.2-0.6c0-0.1,0-0.2,0.1-0.3c0.9-0.8,2-1.5,3-2.1
						s0.3-2.2-0.8-1.9c-1.8,0.6-3.6,1.3-5.3,2.2c-0.5-0.1-0.9-0.3-1.2-0.9c-0.7-1.2-0.5-2.9-0.2-4.2v-0.1c0,0,0,0,0-0.1
						c1-2.4,2.6-4.5,5-5.9c0.2-0.1,0.3-0.3,0.4-0.5c0.4-0.2,0.9-0.3,1.3-0.5c0.5-0.2,0.2-1-0.3-1.1c-6.6-0.3-12.1,3.7-15.9,8.9l0,0
						c-0.3,0.1-0.7,0.1-1,0.1c-0.7,0-1.2-0.3-1.5-0.9c0-0.2,0.1-0.3,0.1-0.5c0.6-2,2.1-3.8,3.4-5.4c0.3-0.3,0.1-1-0.4-0.9
						c-2.7,0.4-4.9,1.7-6.5,3.7c0.9-2.8,2.2-5.4,5.1-6.9c0.9-0.4,0.3-2-0.7-1.6c-3,1.1-5.8,2.3-7.8,4.9c-0.9,1.1-2,2.7-2.9,4.4
						c-16.3,1.7-32,2.2-32,2.2c-6.1,3.1-12.3,8.9-12.3,8.9c-2.9-3.8-9.1-6.1-7.2-3.7c1.9,2.3,3.4,4.3,3.6,4.5
						c-0.2-0.1-4.5-2.4-11-1.9c-6.6,0.5-8.2,5-3.8,3.8c4.2-1.2,4.9,1,7.1,3.1c0,0-0.1,0-0.1,0.1c-1,0.7-2.1,1.6-3,2.6
						c-6.7-2.6-14.8-2.4-19.9,2.3c-0.9,0.8-0.2,2.5,1,2.5c2-0.1,4.1-0.3,6.2-0.4c4.3,1.2,8.1,5,10.9,8.3c-2.9-0.5-5.9,0.8-8.4,2
						c-1,0.5-0.5,2,0.5,2c2.3,0,4.7,0.1,6.7,1.4c0.7,0.5,1.4,1.1,2,1.8c-0.2,0-0.4,0-0.6,0c-1.4,0.1-3.1,0-4.5,0.4
						c-1.3,0.4-3.8,2.4-2.8,3.9c0,0.1-0.1,0.2-0.1,0.4l0,0c-0.8,0.2-1.5,0.5-2.3,0.7c-2.8,0.8-5.8,1.6-8.1,3.4
						c-0.2,0.1-0.3,0.3-0.3,0.4l0,0c-0.3,0.2-0.5,0.5-0.8,0.7c-1.1,1.2,0.6,3,1.8,1.8c2.8-2.6,5.6,0.6,7.8,3.6
						c-5.9,1.3-11.3,3.8-14.5,9.2c-0.3,0.6,0.4,1.1,0.9,0.7c5.1-4.2,11.8-3.7,18.1-4.6c-2.4,2-4.6,4-6.4,5.7
						c-10.8,10.6-6.4,10.9-6.4,10.9s10.6-7.3,20.7-15.2c7.2-5.7,14.7-11.7,18.4-14.6c2.1-0.9,4.2-2.2,6.3-3.2
						c-0.2,0.2-0.5,0.5-0.7,0.7c-0.8,0.9,0.4,2.1,1.3,1.3c1.7-1.5,3.6-2.8,5.6-4.1c0.7,0,1.5,0,2.2,0c1.1,0.1,3.5,0.3,4.2,1.3
						c0.6,0.8,0,1.3-0.7,1.8c-3,0.8-5.9,2-8.6,3.1c-5.2,2.2-11.2,6.8-13,12.3c-0.2,0.8,0.8,1.4,1.4,0.8c2.1-2.5,5-4.5,8.4-6.2
						c2.8-0.7,5.7-0.4,8.5-0.3c1.1,0.1,2.9,0,4.7,0c-3.2,2.9-5.7,6.7-6,10.3c-0.1,0.8,1.1,1.1,1.5,0.4c1.8-3.6,5.2-6.2,8.9-7.9
						c0.2,0.2,0.3,0.5,0.4,0.7c0.5,2.2-3.8,5.8-5.1,7.5c-3.2,4.1-5.6,8.3-6.8,13.4c-0.3,1.2,1.5,2.1,2.1,0.9c1.1-2.1,2.5-4,4.1-5.8
						c0.4,0.2,0.8,0.3,1.4,0.3c0.4-0.1,0.9-0.2,1.4-0.3c-0.5,0.9-0.8,1.9-1,2.8c-0.1,0.9,0.8,2,1.7,1.3c1-0.7,1.9-1.7,2.7-2.6
						c0.5,0.7,0.7,1.3,0.8,2.2c-0.1,0-0.2,0.1-0.3,0.1c-1.2,0.6-2.1,1.8-2.8,2.8c-0.6,0.9,0.7,1.7,1.4,1.1c0.1-0.1,0.3-0.2,0.5-0.4
						c-1.1,1.4-2.2,2.8-3.2,4.1c-0.7,0.2-1.2,0.9-1.4,1.7c-28.6,35.5-33.7,36.1-38.4,44.7c-4.2,7.8-2.9,10.4-0.7,11.4
						c-2.6,2.5-4.8,5.6-6.4,8.5c-0.9,1.5,1,3.7,2.6,2.6c0,0,0.1-0.1,0.2-0.1c-1.9,3.3-2.5,6.5-2.7,10.5c0,0.9,0.7,1.4,1.5,1.3
						c0.8,0.4,1.8,0.4,2.5-0.4c0.5-0.5,1.1-0.8,1.8-0.9c0,0.2,0,0.5,0,0.7c0,0.8-0.1,1.7-0.2,2.5c-0.2,1.4-0.7,3.4-2.5,3.5
						c-1.9,0.1-2.5,2.9-0.5,3.4c0.6,0.2,1.3,0.2,1.8,0.2c-4.2,4.9-9.9,8.8-14,13.5c-0.7,0.8-0.3,2.1,0.9,2.1c0.2,0,0.5,0,0.7-0.1
						c0,0,0,0,0.1,0c1.1,0.1,2,0.7,3.2,0.8c1.6,0.1,3.1,0,4.7,0.1c0.5,0,1.1,0.1,1.6,0.2c0,0.1,0,0.2-0.1,0.2
						c-0.1,0.8-0.1,1.7,0,2.4c0.1,1.5,0.2,2.9,0.9,4.3c-5.1,2.8-9.3,7.4-12.8,11.8c-1.4,1.7,1,4.2,2.5,2.5c2.2-2.6,4.7-4.5,7.3-6.2
						c1,2,1.7,3.1,0.1,5.2c-0.8,1-1.6,2-2.3,3.1c-2.3,3.5-3.6,6.7-7.1,9.3c-1.7,1.2-0.2,3.9,1.7,2.9c1-0.6,2.1-1.1,3.1-1.8
						c0.7,0.1,1.5,0.1,2.1,0.4s1.4,1.3,1.8,1.8c0.7,0.7,1,1.5,1.4,2.3c-1.5,0.7-2.8,1.5-4,2.2c-3.3,2-6.3,4.6-8.9,7.4
						c-0.9,1,0.3,2.8,1.5,1.9c0.4-0.3,0.8-0.6,1.3-0.9l0,0c1.2-0.5,3-1.2,4,0c0,0,0,0,0.1,0.1c0,0,0,0,0,0.1c0.1,0.3,0,0.7,0,1
						c0,0.4-0.1,0.8-0.3,1.1c-0.7,0.7-1.4,1.2-1.4,1.3c-1.7,1.2-3.4,2.2-5.1,3.4c-3.4,2.2-5.4,4.8-7.4,8.3c-0.6,1,0.9,1.9,1.5,0.9
						c2.4-4.1,6.2-5.7,10-7.2c-0.9,1.1-1.7,2.2-2.7,3.3c-2.5,2.8-4.6,5.3-6.3,8.4c-1.5-0.2-3.1-0.1-4.7,0.5
						c-1.8,0.7-5.6,2.5-5.2,4.8c0,0.1,0.1,0.2,0.2,0.2c0.6,0.2,0.7,0.2,1.3,0.1c1.6-0.3,2.6-0.9,4.3-0.8c1,0,1.9,0.1,2.8,0.3
						c-2.6,2.6-5.5,4.8-8.7,6.9s-7.7,4.6-9.2,8.3c-0.1,0.2,0.2,0.5,0.4,0.4c2.6-0.9,5-2.3,7.6-3.2c0.5,0.1,1,0.3,1.4,0.5
						c0.9,0.4,1.7,0.9,2.2,1.8c-4.2,3.4-8.5,6.9-10.6,11.6c-0.6,1.4,1.3,2.6,2.1,1.2c2-3.3,4.7-5,7.9-6.8c-0.2,0.4-0.3,0.9-0.4,1.3
						c-1,3.3-2.4,7.8,0.1,10.6c0.3,0.4,0.7,0.5,1.2,0.5l0,0c0.2,0.2,0.5,0.3,0.8,0.3c2.5,0,4.7-1.9,6.3-4c0.4,0,0.8,0,1.2-0.1
						c-1.5,2.8-4,7.4-1,9.8c0.5,0.4,1.4,0.3,1.5-0.4c0.5-3.3,1.9-6.1,4-8.8c0.1-0.1,0.2-0.2,0.3-0.3c0,0.9,0,1.8,0.2,2.6
						c0.2,1,1.7,1.5,2.4,0.6c0.7-0.8,1-1.8,1.3-2.8c0.2-0.1,0.5-0.1,0.7-0.3c0.1,0,0.2-0.1,0.2-0.1c-2,5.8-2.3,12.5-1.4,17.9
						c0.3,1.8,3.2,1.3,3.1-0.4c0-1.8,0.1-3.6,0.3-5.4c0.9-1.6,2-3.2,3.1-4.7c-0.3,1.3,1.5,2,2.2,0.9c2-2.9,4.2-5.7,6.2-8.7
						c-0.5,5.9,0.7,12.3,2.7,17.6l0,0c0,0.2,0,0.5,0,0.7c0,0.9,1.4,1.1,1.6,0.2c1.3-5.4,3.3-10.7,7.3-14.6c1.4-1.3,3-2.4,4.6-3.3
						l0,0c0.3,3.1,2,6.4,4,8.4c0.3,0.3,1,0.1,1-0.4c0-2-0.3-4.9,0.1-7.4l0,0l0,0l0,0c0.6-0.7,1.4-1.4,2.1-1.7
						c0.4-0.2,1.1-0.4,1.5-0.2c0.2,0.1,0.3,0.2,0.4,0.4c-0.7,3.4-0.4,6.9,0.9,10.6c0.4,1.1,2.3,1,2.2-0.3c-0.4-3.3,0.6-6.6,2.1-9.7
						c1.1-1.3,2.3-2.5,3.9-3.4c1.1-0.6,2.2-1.1,3.2-1.4c-2.4,7.3-1.7,15.3,1.2,22.4c0.3,0.8,1.5,0.5,1.3-0.4
						c-1.4-7.1,0.8-13.6,2.8-20.2c0,1.7,0.1,3.5,0.9,5.1c0.2,0.4,0.7,0.2,0.8-0.1c0.7-2.3,0.5-4.8,1.3-7.2c0.5-1.6,1.4-3,1.9-4.5
						c0.6,2.9,1.8,5.8,2,8.8c0.3,4,0.7,8.9,0.2,12.9c-0.1,0.9,1.2,1.1,1.2,0.2c0.1-6.8,3.3-14.1,2.1-20.8c1.7,2.5,3.2,5.1,2.5,8.1
						c-0.1,0.5,0.7,0.7,0.7,0.1c0.2-2.7,0.6-5,0-7.7c-0.2-0.8-0.4-1.7-0.7-2.6c0.5,1.1,0.9,2.2,1.3,3.1c0.9,2.3,4.3,1.4,3.7-1
						c-0.4-1.5-0.7-3.3-1.3-5.1c0.3,0,0.5,0.1,0.8,0.2c2.2,2,3.8,5.1,5,7.6c0.8,1.7,1.3,3.8,2.2,5.7l0,0c0.1,6.2-1.3,12.9-1.8,16.7
						c0,0.4,0.4,0.6,0.7,0.3c0.8-1.1,1.6-2.3,2.3-3.6c4.4-4,6.3-11.1,7.4-16.7c0.5-2.5,0.9-5.2,1-7.8c1.4,3.3,2.3,6.3,1.9,10.1
						c0,0.4,0.6,0.5,0.7,0.1c1.4-3.5,0.9-7.5,0.1-11.1c-0.7-3.1-1.2-7.2-3.6-9.5c0.8,0.7,1.5,1.4,2.1,2.3c1.2,1.6,2,3.5,3.4,5
						c2,2.2,5.7,2.8,7.6,0.1c2-2.8,1.3-7.9,0.6-11c-0.7-3.6-2.2-6.2-4.3-8.8c1.4,0.7,3.2,1.4,4,2.6c0.4,0.6,1.5,0.2,1.2-0.5
						c-0.6-1.6-1.9-3.1-3-4.4c-0.2-0.2-0.3-0.4-0.5-0.6c1.2,0.1,2.3,0.2,3.3,0.6s1.7,1,2.4,1.7c0.1,0.2,0.2,0.4,0.3,0.6
						c0.5,0.8,1,1.6,1.5,2.4c0,0.1,0.1,0.1,0.1,0.2c1.2,1.8,2.4,3.7,2.8,5.9c0.1,0.4,0.6,0.3,0.7-0.1c0.3-2.7,0.5-5.2,0.2-7.7
						c0.4-2.5-0.5-5.7-1.2-7.8c-0.4-1.2-0.9-2.3-1.5-3.4c1.3,1.2,2,2.9,3.7,3.7c1.6,0.8,3.7-0.1,3.7-2.1c-0.1-3.4-2.9-6.4-6.3-8.1
						c0.6-0.3,1.2-0.5,1.9-0.6c2.5-0.4,4.5,0.3,6.2,1.9c1.7,3.7,1.3,7.1,0.5,11.1c-0.2,0.8,0.9,1.3,1.4,0.6c2.6-3.9,4.3-9.5,3-14.1
						c-0.5-1.7-1.4-3.2-2.5-4.6c-0.8-1.5-1.9-2.8-2.8-4.2c-0.4-0.6-0.8-1.2-1.1-1.7c0.8,0,1.6,0.2,2.4,0.2c0.2,0.2,0.4,0.3,0.6,0.5
						c1.2,0.8,2.7-0.1,3.1-1.2c0.8-2.3-0.3-4.9-1-7.2c-0.6-1.9-1.4-3.8-2.2-5.7c1.3,0.3,2.6,1,3.9,1.7c1,0.5,2.1,1,2.7,1.9
						c0.5,0.7,0.5,1.3,1.3,1.8c0.2,0.1,0.4,0.1,0.6-0.1c1-0.9,0.7-2.3,0-3.7c0,0,0-0.1,0.1-0.1c1-2.4,1.4-4.9,0.2-7.3
						c0.3-0.4,0.5-0.8,0.5-1.2v-0.1c1.1,1.9,2,3.9,2.4,5.9c0.1,0.6,0.9,0.5,1.1,0c1.4-4.5,0.1-8.6-1.7-12.9
						c-1.2-2.8-2.4-5.5-3.7-8.2c2.4-0.9,2.1-4,1.2-6.1c1.7,1,3.2,2.3,3.8,4.1c0.5,1.6,3.1,0.9,2.6-0.7c-0.5-1.7-1.6-3-2.7-4.2
						c0.3-0.3,0.6-0.6,0.7-1.1c0.1-0.3,0.1-0.6,0.1-0.9c2.2,1.5,4.2,3,5.7,5.6C1051.1,1155.7,1053.2,1154.9,1052.7,1153.6z"/>
					<g>
						<path fill="#6D440E" d="M1032.7,1147.2c0.2,0,0.4,0.1,0.5,0.1c-0.1-0.2-0.2-0.3-0.3-0.5
							C1032.9,1147,1032.8,1147.1,1032.7,1147.2z"/>
						<path fill="#6D440E" d="M941.2,1224.9c-0.3,0.1-0.6,0.1-0.9,0c-0.3,0.5-0.6,1-0.9,1.6c-1,2-1.6,3.9-2.2,6
							c1.5-1.2,2.9-2.8,3.9-4.4c0.1-0.2,0.3-0.5,0.6-0.9c0.1-0.8,0.3-1.6,0.6-2.4l0,0C941.8,1224.8,941.4,1224.9,941.2,1224.9z"/>
						<path fill="#6D440E" d="M1035.8,1160.9c-0.3-0.2-0.6-0.3-0.9-0.5c-0.1,0-0.2-0.1-0.2-0.1c0.1,0.9,0.8,2,1.2,2.7
							c0.8,1.5,1.9,2.9,3.1,4.1l0,0c1.2,0.1,2.5,0.6,3.5,1.2c-0.7-1.4-2-2.7-2.8-3.8C1038.5,1163.2,1037.4,1161.9,1035.8,1160.9z"/>
						<path fill="#6D440E" d="M999,1219.6L999,1219.6L999,1219.6L999,1219.6z"/>
						<path fill="#6D440E" d="M900,1024.5c0.4-0.4,0.9-0.7,1.4-1c0.9-0.9,1.9-1.7,3-2.4c1.7-1.1,3.6-1.8,5.5-2.3
							c1.3-0.4,2.8-0.5,3.7-1.6c0.4-0.5,0.7-1.2,0.5-1.9c0-0.1-0.1-0.2-0.1-0.3c-0.2-0.4-0.5-0.8-0.9-1.1c0.2,0.2,0.4,0.5,0.5,0.7
							c-5.9,1.3-11.3,3.8-14.5,9.2C898.8,1024.4,899.5,1024.9,900,1024.5z"/>
						<path fill="#6D440E" d="M1044.2,1169.8c-0.2-0.2-0.3-0.3-0.5-0.4c0-0.2,0.1-0.5,0.1-0.7c-0.3-0.9-0.7-1.8-1.1-2.7
							c-1.1-2.6-2.2-5.1-3.4-7.6l0,0l0,0c-0.1-0.2-0.2-0.4-0.3-0.6c0.2-0.1,0.4-0.2,0.5-0.3c0-0.2,0.1-0.3,0-0.5
							c-0.1-2.5-0.9-4.1-2.8-5.8c-0.2-0.2-0.4-0.3-0.5-0.5c0.3,0,0.7,0.1,1,0.2c0.8,0.2,2.3,0.4,3,0.8c0.2,0.1,0.5-0.1,0.4-0.4
							c-0.4-0.8-0.5-1.5-1.2-2.1c-0.3-0.2-0.6-0.4-1-0.5c0-0.2-0.1-0.4-0.2-0.6c-0.4-0.6-0.8-1-1.3-1.5c-0.2-0.2-1.1-1-1.2-1.3
							c0-0.5,0.6-0.6,0.9-0.6c0.4,0,0.7-0.1,1-0.1c1.7,1.4,3.6,2.6,5.5,3.7c0.6,0.3,1.4-0.2,1.2-0.9c-0.8-2.6-3-4.9-5-6.6
							c-0.1-0.1-0.2-0.2-0.3-0.2c0-0.6,0.2-1.1,0.4-1.6c0.2-0.1,0.4-0.1,0.8-0.2s0.8-0.1,1.2-0.1c-0.2-0.2-0.4-0.4-0.6-0.6l0,0
							c0.3,0.1,0.7,0.2,1,0.3c0.3,0.1,0.5,0.2,0.8,0.3c0.5,0,1,0,1.5,0c0.9-0.1,1.7-0.1,2.6-0.2c-1.4-0.9-3.1-1.3-4.5-2.1
							c-0.4-0.2-0.8-0.5-1.2-0.7c0-0.1,0-0.2,0-0.3c0,0,0,0-0.1,0c-0.1-0.7-0.6-0.7-0.7-1.7c-0.1-0.8,0.5-1.8,0.9-2.5
							c0.5-1,1.3-1.7,1.6-2.7c0.5,0.9,1.1,1.7,1.8,2.3c-0.3-1.5-0.2-3-0.1-4.5c0.9,0.9,1.7,1.8,2.5,2.7c0,0.1,0.1,0.1,0.2,0.1
							c-0.1-2.2-2.4-3.1-3.9-4.6c-0.5-0.5-1.8-2-0.9-2.8c0.6-0.6,1.5-0.3,2.2-0.2c0.4,0,0.7,0,1.1,0c0.2,0.2,0.5,0.5,0.7,0.8
							c0.5,0.7,0.7,1.2,1.5,1.4c0.4,0.1,0.8-0.1,0.9-0.5c0.2-0.7,0-1.4-0.5-2.1c0.2,0,0.3-0.1,0.5-0.1c0.1,0.1,0.2,0.2,0.2,0.3
							c-0.3-0.6-0.6-1.3-0.9-1.9c-0.2-2.5-1.2-4.9-2.4-7c-0.7-1.2-1.7-2.3-2.8-3.2c-0.7-1.5-1.6-2.9-2.7-4.1c0.5,0,1,0.1,1.6,0.1
							c0.4,0.1,0.8,0.2,1.1,0.3c0.4-1.1,0-2.2,0.3-3.5c0.3-1.4,0.6-2.3,0-3.7c-0.3-0.7-0.7-1.2-1.2-1.6c0.1-0.1,0.2-0.2,0.3-0.4
							c-0.1-0.1-0.2-0.2-0.3-0.2c-0.1-1.1-0.1-2.1,0.2-3.2c0,0,0,0,0,0.1c0.1,0.2,0.3,0.4,0.5,0.6c0-0.8,0.1-1.6-0.1-2.4
							c-0.1-0.4-0.3-0.8-0.4-1.2c-0.2-0.8-0.4-1.2-0.3-2.2c0.2-2.6-0.3-4-2.1-5.5c1.5-1.6,0.2-3.7-1.3-4.7c-0.6-0.4-1.3-0.7-1.9-0.9
							v-0.1c0-1-0.3-1.9-0.5-2.9c-0.1-0.8-0.1-1.5-0.6-2.1c-0.7-1-1.9-1.7-3-2.1c-0.1-0.9-0.5-1.8-0.8-2.7c-0.5-1.4-0.9-2.9-1.4-4.3
							c-0.7-1.7-2.1-2.8-3.8-2.9c-0.3-1.2-0.4-2.8-1.3-3.7c-0.8-0.8-2-1-2.9-1.7c-0.7-0.5-1-1.1-1.4-1.8c0.3-0.1,0.6-0.3,0.8-0.6
							c1,0.2,1.4,1.2,2.5,1c0.2,0,0.3-0.2,0.3-0.3c0-0.1,0.1-0.2,0.1-0.3c0.1-0.3,0-0.6-0.2-0.8c-0.7-0.7-1.4-1.1-2.2-1.6
							c-0.7-0.4-1.2-1.2-1.8-1.9c-0.6-0.8-1.2-1.7-1.6-2.7c-0.2-0.5-0.4-0.9-0.6-1.4l0,0c0-0.1,0-0.2,0-0.3c0,0,0.1-0.4,0.1-0.5
							c0.1-0.3,0.1-0.6,0.2-0.9c-0.1,0.5,0.1,0.1,0.2,0c1-1-0.3-2.5-1.5-1.9c-0.2,0.1-0.5,0.3-0.7,0.4l0,0l0,0
							c-0.2-1.1,0.3-2.2,0.8-3.1c0.2-0.4,0.8-1.9-0.2-1.9c-0.4,0-0.8,0.1-1.2,0.2c0.4-1.3,0.3-3-0.1-4.1c-0.6-1.8-2-3.6-4-3.9l0,0
							c0-0.4,0-0.9-0.1-1.3c0-0.8-0.1-1.6-0.2-2.4c-0.1-0.8-0.5-1.8-1.1-2.5c0.4-0.5,0.6-1,0.5-1.9c0-0.3-0.6-0.4-0.7-0.1
							c-0.7,1.4-2.8,1.1-4.1,1.5c-0.7,0.2-1.3,0.5-1.9,0.8c-0.5-0.3-1.1-0.5-1.5-0.9c-0.2-0.2-0.5-0.6-0.6-0.8c0,0,0-0.1-0.1-0.1
							c0,0,0,0,0-0.1c0-0.4,0.1-0.7,0.4-1.1c0.3-0.4-0.4-0.8-0.7-0.4c-0.4,0.5-0.6,1.2-0.9,1.7c-0.2,0.3-0.3,0.7-0.3,1l0,0
							c-0.6-0.7-1.1-1.5-1.6-2.3c-0.7-1-1.5-1.7-2.3-2.7c-0.2-0.3-0.5-0.2-0.7,0c-0.6-0.8-1.2-1.5-1.6-2.6c-0.7-2.3-1-4.7-1.3-7.1
							c-0.1-0.9-1.5-0.9-1.9-0.3l0,0c-0.1-0.1-0.2-0.2-0.3-0.4c-0.7-0.9-1.5-1.9-2-2.9c0.1-0.3,0.2-0.7,0.4-1c0.5-0.7,1.3-1.2,1.7-2
							c0.7-1.2,0.9-2.5,1.7-3.8c1.6-2.5,3-4.7,2.2-7.8c-0.2-0.6-1.1-0.6-1.3-0.1c-0.2,0-0.3,0.1-0.5,0.2c0.2-0.7,0.5-1.5,0.7-2.2
							c0.7,0.4,1.5,0.1,2-0.5c2.9-3.9,4-4.4,9.1-5.1c3-0.4,5.8-0.3,8.7,0.1c0.1-0.1,0.2-0.3,0.3-0.4c1.6-1.8,5.3-2.3,7.5-2.3
							c0.3,0,0.4-0.4,0.1-0.6c-2.3-1.3-5.6-1.4-8.2-1.1c-0.8,0.1-1.5,0.3-2.2,0.6c0.2-0.4,0.5-0.9,1-1.3c1.5-1.5,3.8-2.5,5.8-3.3
							c0.2-0.1,0.3-0.2,0.3-0.4c1-0.1,2-0.3,3-0.4c0.4,0,0.3-0.6,0-0.7c-3.3-0.7-6.3-1.1-9.5-0.5c-0.8-0.2-1.6-0.2-2.4-0.1
							c-0.2,0-0.5,0-0.7,0c0-0.2-0.1-0.3-0.1-0.5l0.2-0.6c0-0.1,0-0.2,0.1-0.3c0.9-0.8,2-1.5,3-2.1s0.3-2.2-0.8-1.9
							c-1.8,0.6-3.6,1.3-5.3,2.2c-0.5-0.1-0.9-0.3-1.2-0.9c-0.7-1.2-0.5-2.9-0.2-4.2v-0.1c0,0,0,0,0-0.1c1-2.4,2.6-4.5,5-5.9
							c0.2-0.1,0.3-0.3,0.4-0.5c0.4-0.2,0.9-0.3,1.3-0.5c0.5-0.2,0.2-1-0.3-1.1c-6.6-0.3-12.1,3.7-15.9,8.9l0,0
							c-0.3,0.1-0.7,0.1-1,0.1c-0.7,0-1.2-0.3-1.5-0.9c0-0.2,0.1-0.3,0.1-0.5c0.6-2,2.1-3.8,3.4-5.4c0.3-0.3,0.1-1-0.4-0.9
							c-2.7,0.4-4.9,1.7-6.5,3.7c0.9-2.8,2.2-5.4,5.1-6.9c0.9-0.4,0.3-2-0.7-1.6c-3,1.1-5.8,2.3-7.8,4.9c-0.9,1.1-2,2.7-2.9,4.4l0,0
							c0.1,0.4,0.1,0.8,0.3,1.1c-0.3,1.1-0.9,2.1-2.1,3.4c-1.2,1.3-2.9,2.1-3.9,3.6c-0.5,0.7-0.7,2-1.2,2.6
							c-1.3,1.6-2.3,1.2-4.2,2.2c-1,0.5-1.7,1.6-2.6,2c-0.9,0.5-2,0.5-3.2,0.5c0.1-0.2,0.1-0.4,0.2-0.6c0.1-0.7-0.2-1.4-0.9-1.6
							c-2.2-0.7-3.8,0.8-4.9,2.6c-1.1,0.1-2.3-0.1-3.4,0c-1.5,0.2-2.9,0.5-4.3,1.1c-0.3,0-0.5,0-0.8,0c-0.9,0.1-0.9,1.3,0,1.4
							c0.3,0,0.6,0.1,0.9,0.3c0,0.1,0,0.1,0,0.2c-0.1,0.8,0.9,1.4,0.2,2.1c-0.6,0.7-2.2,0.7-3,0.5c-0.1,0-0.1,0-0.2,0
							c-1-0.6-1.8-1.3-2.9-1.8c-0.9-0.4-1.7,0.6-1.1,1.4c0.6,0.8,1.4,1.6,1.9,2.4c-1.9-1.5-4.5-2.5-6.7-3.3c-2-0.7-4-0.5-6.1-0.2
							c0.1-0.3,0.1-0.6-0.2-1c-1.2-1.5-3.9,0.4-5,1c-1.2,0.8-2.5,1.6-3.3,2.7c-6.7-3.8-15.8-3.9-22.5-0.4c-0.5,0.9,0.2,2.2,1.3,2.2
							c0.4,0,0.8,0,1.1-0.1c7-2.3,13.5,0.6,17.5,7.1c-0.8-0.1-1.6-0.2-2.4-0.3c0.3,0.4,0.7,0.7,1,1.1c-2.9-0.5-5.9,0.8-8.4,2
							c-0.5,0.3-0.6,0.8-0.4,1.3c2.4-0.8,5.3-1.1,7.1-1c2.9,0.1,5.4,0.8,7.8,2.1c0.2,0.2,0.3,0.5,0.4,0.8c2,4.5-4.2,2.8-6.5,2.5
							c-0.6-0.1-1.2-0.1-1.9-0.2l-0.1-0.1c-0.8,0-1.5,0.1-2.3,0.3c-1.3,0.4-3.7,2.3-2.8,3.8c0.6-0.1,1.1-0.2,1.7-0.2c0,0,0,0,0,0.1
							c1,2.1-0.9,1.5-2.4,1.4c-0.5,0-1-0.1-1.4-0.1c-0.1,0-0.1,0-0.2,0.1c-2.8,0.8-5.8,1.6-8.1,3.4c-0.2,0.1-0.3,0.3-0.3,0.4l0,0
							c-0.3,0.2-0.5,0.5-0.8,0.7c-0.5,0.5-0.4,1.1-0.2,1.5c2.3-0.9,4.5-1.6,6.9-1.7c1.3,0.4,2.4,1.1,3.8,2c1.9,1.3,4.2,1.3,5.9,2.7
							c-0.1,0.2-0.2,0.3-0.4,0.5c-0.3,0.3-0.8,0.5-1.1,0.8c-0.1,0.1-0.1,0.3-0.1,0.5c0.7,1.5,3,0.2,3.8-0.4c0.3-0.2,0.6-0.4,0.8-0.7
							c-0.1,0.4-0.3,0.9-0.4,1.4c-0.2,0.7,0.6,1,1,0.6c0.9-0.8,1.8-1.1,2.7-2c1-1,1.9-2,3-2.9c2.4-2,5-3.6,7.9-4.7
							c0.8-0.3,1.1-1.1,1.1-1.8c0-0.1,0.1-0.1,0.1-0.2c1-1.5,2-3,3.6-3.9c0.8-0.5,0.1-1.8-0.8-1.3c-0.8,0.4-1.5,0.7-2.2,1.1
							c0,0-0.1-0.1-0.1-0.2c-0.2-0.2-0.4-0.6-0.7-0.8c1-0.2,1.6-1.6,1-2.4c0-0.1,0-0.2,0.1-0.2c0.2-0.2,0.4-0.4,0.6-0.6
							c0.3-0.3,0.6-0.5,0.9-0.8c4.1-0.3,7.7,0.8,8.2,5.6c0.1,1,0.9,1.8,1.9,1.5c0,0.1,0.1,0.1,0.1,0.2c-0.5,0.7-1,1.3-1.7,1.8
							c-0.2,0.8,0.8,1.5,1.6,0.9c1.7-1.5,3.6-2.8,5.6-4.1c0.7,0,1.5,0,2.2,0c1.1,0.1,3.5,0.3,4.2,1.3c0.6,0.8,0,1.3-0.7,1.8
							c-3,0.8-5.9,2-8.6,3.1c-5.2,2.2-11.2,6.8-13,12.3c-0.1,0.3,0,0.6,0.2,0.8c3.5-4,7.9-7.4,12.7-8.8c3.8-1,8.5-1.1,10.8,2.5
							c0,0,0,0-0.1,0c-0.4,0.3-0.8,0.5-1.1,0.8c-1.2,1-0.2,2.8,1.2,2.9c0.6-0.2,1.1-0.1,1.3,0.1c0.7-0.4,1.4-0.8,2.2-1.1
							c0.2,0.2,0.3,0.5,0.4,0.7c0.5,2.2-3.8,5.8-5.1,7.5c-3.2,4.1-5.6,8.3-6.8,13.4c-0.2,1,0.9,1.8,1.7,1.3c0,0,0,0,0-0.1
							c0.3-0.6,0.7-1.2,1.1-1.7c1-1.6,2.1-3.1,3.3-4.5c0.4,0.2,0.8,0.3,1.4,0.3c0.4-0.1,0.9-0.2,1.4-0.3c-0.2,0.5-0.4,0.9-0.6,1.4
							c0.6,0.5,1.1,1.3,1.6,2.5c0.9-0.7,1.7-1.6,2.5-2.4c0.5,0.7,0.7,1.3,0.8,2.2c-0.1,0-0.2,0.1-0.3,0.1c-1.2,0.6-2.1,1.8-2.8,2.8
							c-0.4,0.6,0,1.1,0.5,1.2l0,0c0.3,0.1,0.6,0.1,0.9-0.2c0.1-0.1,0.3-0.2,0.5-0.4c-0.2,0.2-0.4,0.4-0.5,0.7
							c0.5,0,0.7-0.1,0.9-0.2c-0.1,0.2-0.1,0.6,0,1.5c0.3,2.1,2.4,3.4,2.8,5.3c0.2,1.1,1.8,1.1,2.2,0.2c1.8,3.3,1.4,8.4,1.4,11.9
							c-0.1,3.6-0.9,6.9-1.6,10.4c0-1.6,0.1-3.2,0-4.8c-0.1-2.3-0.5-4.6-0.7-6.9c-0.1-0.8-1.3-0.8-1.3,0c0,1,0,2.1-0.1,3.2
							c-1,4.8-3.4,10-6.3,14c-0.4-2.2-0.9-4.4-1.1-6.6c-0.1-0.8-1.1-0.8-1.2,0c0,0.4-0.1,0.8-0.1,1.1c-1.9,2.4-3.5,5.3-5.1,7.9
							c-0.4,0.6-0.8,1.3-1.3,2c-0.7-2-1.2-4.2-1.6-6.4c-0.1-0.4-0.6-0.4-0.8-0.1c-0.1,0.2-0.2,0.4-0.3,0.6c-0.3-0.2-0.8-0.2-1,0.2
							c-1.7,4.1-5,7.2-7.3,11c-1.8,2.9-4.2,6.7-4,10.2c0,0.5,0.7,1.1,1.2,0.7c1.5-1.1,2.7-2.6,3.8-4.3c0.1,3.1-0.3,6.2-1.6,9.5
							c-0.3,0.9,1.1,1.5,1.5,0.6c0.1-0.1,0.1-0.3,0.2-0.4c1.4-0.5,3.5-0.8,4.7-0.2c0.7,0.3,1.2,0.8,1.8,1.3c-3.2,1.6-6.2,4-8.5,6.5
							c-1.5,1.6-3,3.5-3.9,5.6c-1.4,3.2-0.7,7.3-3.8,9.7c-0.7,0.6-0.4,2.1,0.7,1.7c1.4-0.5,2.1-1.1,2.6-2.5c0.1-0.2,0.1-0.3,0.2-0.5
							c1.2-0.4,2.4-0.6,3.6-0.4c1.1,0.2,2.8,0.1,3.7,0.7c-0.3,0.4-0.6,0.8-0.9,1.2c-1.2,1.5-2.6,2.9-4,4.3c-2.2,2.2-4.5,5-5.3,8.1
							c-0.2,0.6,0.8,1.1,1.1,0.5c0.8-1.6,1.7-2.9,2.9-3.9c-1.4,3.1-2.2,7.1-3.2,9.2c-2.2,4.4-6.4,10.8-4.8,15.9
							c0.1,0.4,0.5,0.4,0.7,0.1c0.6-0.8,1-1.6,1.5-2.4l0.1-0.1c1.6-1.4,3.9-2,5.8-2.8c0.3-0.1,0.6-0.3,1-0.4c0,0.1,0,0.1-0.1,0.2
							c-0.5,1.5-1.2,2.8-1.9,4.2c-1,2-3.2,4.2-3.5,6.5c0,0.5,0.6,0.7,0.9,0.4c0.2-0.2,0.5-0.5,0.7-0.7c-0.5,1.1-0.8,2.2-1.1,3.3
							c-0.3,1.4-0.6,3.6,0,5.4c-1,1.2-1.9,2.6-2.7,3.6c-2.3,3.2-3.3,6.5-3.9,10.3c-0.1,0.4,0.5,0.7,0.7,0.3c1.5-3.1,4-5.8,6.3-8.2
							c0.1-0.1,0.2-0.2,0.4-0.3c0,1-0.1,2.1-0.3,3c-0.4,2.3-2,4.1-3.2,6.1c-0.4,0.5,0.4,1.3,0.9,0.9c1.6-1.1,3.1-2.4,4.3-3.8
							c-0.5,1.3-1,2.7-1.4,4.1c-0.1,0.5,0,0.9,0.3,1.2c-0.3,0.4-0.6,0.8-0.9,1.1c-1.4,1.6-3,3-4.3,4.7c-2,2.6-4.1,6.1-4.8,9.3
							c-0.1,0.3,0.3,0.6,0.6,0.3c2.1-1.9,3.7-4.1,5.6-6.1c-0.6,2.1-1.3,4.1-2.2,6.1c-1.3,2.8-4.2,5.6-4.2,8.7c0,0.3,0.4,0.5,0.7,0.3
							c1.3-1.2,2.2-2.9,3.5-4.2c0.1-0.1,0.2-0.2,0.4-0.4c0.2,1.1,0.2,2.2-0.1,3.5c-0.5,2.1-2.4,3.5-3.7,5.1
							c-0.6,0.8,0.1,1.9,1.1,1.4c0.2-0.1,0.4-0.2,0.6-0.3c-0.4,0.6-0.7,1.1-1,1.6c-1.1,1.7-3.2,5.2-2.4,7.2c0.1,0.3,0.4,0.4,0.7,0.3
							c1-0.5,1.2-1.3,1.8-2.2c0.8-1.3,1.7-2.4,2.6-3.6c0.1-0.1,0.1-0.1,0.2-0.2c-0.7,1.5-1.3,3.1-1.7,4.6c-0.3,1.2,1.4,1.9,2,0.9
							c1.1-1.8,1.9-3.9,2.9-5.8c0.2-0.3,0.4-0.7,0.6-1c-0.2,1-0.4,2-0.5,2.9c-0.3,2.5-0.5,5.3-0.3,7.8c0,0.2,0.1,0.3,0.2,0.3
							c-0.1,0.1-0.3,0.2-0.4,0.3c-0.8,0.5-0.1,1.6,0.7,1.2c0.9-0.4,1.8-0.9,2.7-1.3c-1.2,2.1-2.6,4.1-4.1,6c-0.7,0.8,0.5,2,1.2,1.2
							c2.6-3.2,4.9-6.4,7.1-9.8l0,0c0.3-0.2,0.5-0.4,0.8-0.6c0.5-0.4,1-1,1.5-1.5c0.1,0.1,0.1,0.2,0.2,0.3c1.5,1.6,3.5,1.6,5.1,0.3
							c-0.4,0.9-0.6,2,0,2.9c0.9,1.5,3,1.5,4.2,0.3c0.1-0.1,0.1-0.1,0.1-0.2c-0.3,1.6-0.7,3.2-0.8,4.8c-0.1,0.8,1.1,1.1,1.5,0.4
							c1.4-2.5,2.2-5.2,3.8-7.6c0.6-1,1.4-1.9,2.2-2.9c0,0,0,0,0.1,0c1.4-0.1,2.6,1.5,4.1,1.6c1.6,0.1,2.4-1.1,3.2-2.3
							c0.1-0.1,0.2-0.3,0.3-0.4c0.1,1.3,0.4,2.6,0.5,3.9c0.1,1.5-0.3,2.7,0.2,4.1c0.2,0.5,0.9,0.7,1.2,0.2c0.4-0.8,0.5-1.4,0.6-2.1
							c0-0.1,0.1-0.2,0.2-0.2l0,0c0.1,0,0.1-0.1,0.2-0.1c0.2-0.1,0.2-0.3,0.2-0.4c1.1-1.6,2.5-3.2,3.9-4.5c0.7-0.7,1.6-1.2,2.4-1.6
							c-0.3,0.8-0.5,1.6-0.3,2.6c0.2,1.1,1.5,1.7,2.5,1.4c1.6-0.4,2.6-1.9,3.5-3.2c0.3-0.4,0.6-0.9,0.9-1.4c0.4-0.4,0.9-0.7,1.5-1
							c0.5-0.2,1-0.4,1.5-0.6c0.1,0,0.5-0.1,0.8-0.2c-0.2,1.4-1,2.5-1.3,3.8c-0.2,0.7,0.5,1.6,1.3,1.3c1.6-0.6,2.8-2.2,4-3.5
							c0,0,0,0,0-0.1c0.3,1.4,0.8,2.8,1.6,3.9c0.6,0.8,2,0.4,1.7-0.7c-0.1-0.5-0.3-1-0.4-1.4c0.2-0.1,0.4-0.3,0.5-0.6
							c0.3-0.7,0.7-1.8,1.5-2.1c0.5-0.2,1.2,0.2,1.7,0.1c1.2-0.1,2.1-0.9,2.6-2c0.3-0.8,0.5-1.8,0.6-2.8c0.7,1.3,1.3,2.7,1.4,4.3
							c0.1,1.4,2.1,1.4,2.2,0c0.1-1.4-0.4-2.3-1.2-3.5c-0.6-0.8-1.7-2.2-2.1-3.4c0-1,0.5-2,1-2.8c0.4-0.7,1-1.1,1.5-1.7
							c0.5-0.2,0.8-0.6,0.8-1.1l0.1,0.1c0.6,0.7,1.1,0.9,1.9,1.2c0.4,0.2,0.7-0.4,0.5-0.7c-0.7-1.4-1.5-2.6-2.5-3.8
							c-0.3-0.4-0.7-0.8-1.1-1.1c0.4-0.1,0.9-0.1,1.5-0.1h0.2c0.2,0,0.5,0.1,0.7,0.1l0,0c3.1,0.7,3.8,4.1,5.3,6.5
							c1.3,2.1,4.5,5.8,7.3,4.8c0.1,0,0.1-0.1,0.1-0.2c0.2-2.1-2.1-3.6-3.5-4.8c-2-1.8-3.2-3.9-4.8-6c5.8,0.4,11.5,1.1,14.3,7.3
							c0.2,0.5,0.6,0.6,1,0.6c0.2-0.3,0.3-0.7,0.3-1.1c-0.1-3.4-2.9-6.4-6.3-8.1c0.3-0.2,0.7-0.3,1.1-0.4c-0.8-0.5-1.7-1-2.6-1.4
							c-0.9-0.4-2-0.9-3.2-1.3c0-0.3,0.1-0.5,0-0.8c0-0.7-0.3-1.4-0.3-2.1c0-1.6,1.1-2.5,2-3.7l0.1-0.1c0.2,1.6,0.7,3.7,2.1,4.5
							c0.2,0.1,0.5,0,0.5-0.2c0.4-1.3,0-2.5,0.5-3.8c0.5-1.2,1.2-2.3,1.4-3.7l0,0c2.2,2.3,4.7,4.1,6.4,6.9c1.2,2,3,3.8,5,5.2
							c0-0.1-0.1-0.2-0.1-0.4c-0.5-1.7-1.4-3.2-2.5-4.6c-0.8-1.4-1.8-2.6-2.6-4c-1.5-1.6-2.3-3.7-3.7-5.5c-0.1-0.1-0.2-0.3-0.3-0.4
							c0.8-0.6,1.4-1.9,2.1-2.7c0.4-0.4,0.8-0.8,1.1-1.3c0.2-0.2,0.3-0.5,0.4-0.8c0.4,0.6,0.9,1.2,1.4,1.7c0.2,0.2,0.5,0.1,0.5-0.1
							c0.4-1.2-0.6-2.1-1.4-2.9c-0.2-0.2-0.5-0.5-0.7-0.8c0.3-0.8,0.4-1.5,1.2-2c0.4-0.3,0.8-0.3,1.1-0.2c-0.1-0.1-0.1-0.2-0.1-0.4
							c1.3,0.3,2.5,1,3.8,1.7c-0.5-0.4-1-0.9-1.4-1.3c-0.8-0.8-1.7-2.2-2.9-2.5c0.3-0.4,0.6-0.6,1.1-0.9s0.9-0.6,1.5-0.5
							c1,0.1,1.7,0.8,2.2,1.6c0.1,0.2,0.4,0,0.3-0.2c-0.4-0.7-1.2-1.3-1.9-1.8c-0.3-0.2-0.7-0.3-1-0.5c0.1-0.1,0.2-0.1,0.2-0.2
							c0.6-0.6,1.2-1.5,2-1.6c1.8-0.2,2,2.2,3.1,3c0.2,0.1,0.5,0.1,0.6-0.1c1.7-1.8-1.3-4.9-3-5.6h-0.1c0.8-0.7,1.8-1.1,2.9-0.9
							c1.7,0.4,3.3,1.5,4.5,2.6c0.4,0.4,0.9,0.8,1.3,1.1C1044.9,1172.5,1044.6,1171.1,1044.2,1169.8z M941.6,1227.2
							c-0.2,0.4-0.4,0.7-0.6,0.9c-1,1.6-2.4,3.2-3.9,4.4c0.6-2.1,1.2-4.1,2.2-6c0.3-0.5,0.6-1.1,0.9-1.6c0.3,0.1,0.6,0.1,0.9,0
							c0.2-0.1,0.6-0.2,1-0.2l0,0C941.9,1225.5,941.8,1226.3,941.6,1227.2z M999,1219.6L999,1219.6L999,1219.6L999,1219.6z
							 M1032.7,1147.2c0.1-0.1,0.2-0.2,0.3-0.3c0.1,0.2,0.2,0.3,0.3,0.5C1033,1147.3,1032.9,1147.2,1032.7,1147.2z M1039,1167.2
							L1039,1167.2c-1.2-1.3-2.2-2.6-3.1-4.2c-0.4-0.7-1.1-1.8-1.2-2.7c0.1,0,0.1,0.1,0.2,0.1c0.3,0.2,0.6,0.3,0.9,0.5
							c1.6,1,2.7,2.3,3.8,3.7c0.8,1.1,2.2,2.4,2.8,3.8C1041.4,1167.8,1040.2,1167.3,1039,1167.2z"/>
					</g>
				</g>
				<path fill="#6D440E" d="M937.6,1116.9c0.6-0.1,0.8-0.5,1.1-0.9c0.3-0.3,0.8-0.4,1-0.8c0.4-0.5,0.5-1.2,0.1-1.7s-1.1-0.7-1.7-0.3
					c-0.7,0.4-0.9,1-1,1.7c-0.1,0.5-0.4,1.1-0.2,1.5C937,1116.6,937.2,1116.9,937.6,1116.9L937.6,1116.9z"/>
				<path fill="#6D440E" d="M933.3,1138.8c0.6-1.1,1.2-2.1,1.9-3c0.6-0.7,1.4-1.3,2-2c1.5-1.7-1.2-3.8-2.5-1.9
					c-0.5,0.8-1.1,1.5-1.4,2.5c-0.4,1.3-0.8,2.4-1.4,3.6C931.6,1138.9,932.8,1139.7,933.3,1138.8L933.3,1138.8z"/>
				<path fill="#6D440E" d="M932,1170.1c0.6,0,0.9-0.4,1.3-0.8c0.3-0.4,0.7-0.8,1-1.3c0.4-0.6,0.1-1.3-0.5-1.6
					c-0.7-0.3-1.3,0.1-1.5,0.7c-0.2,0.4-0.3,0.8-0.5,1.1c-0.1,0.2-0.3,0.4-0.4,0.7c-0.1,0.2,0,0.5,0,0.7
					C931.3,1169.8,931.7,1170.1,932,1170.1L932,1170.1z"/>
				<path fill="#6D440E" d="M926.9,1197c0.7-0.6,0.9-1.6,1.6-2.3c0.7-0.7,1.8-2.1,0.5-2.9c-1.1-0.7-2.2,0.5-2.6,1.4
					c-0.5,1-0.1,2.1-0.5,3.2C925.7,1197,926.5,1197.3,926.9,1197L926.9,1197z"/>
				<path fill="#6D440E" d="M920.9,1230.8c0.2-1.7,0.9-2.7,2-4c0.9-1,1.7-2,2.2-3.3c0.6-1.5-1.4-2.2-2.4-1.4
					c-2.4,1.9-3.4,5.7-3.2,8.7C919.6,1231.7,920.8,1231.7,920.9,1230.8L920.9,1230.8z"/>
				<path fill="#6D440E" d="M924.1,1212.4C924.1,1212.4,924.3,1212.1,924.1,1212.4c-0.1,0-0.1,0.1-0.2,0.2c-0.1,0.2-0.3,0.4-0.5,0.7
					c-0.3,0.4-0.8,0.9-0.7,1.4c0,0.4,0.4,0.8,0.8,0.6c0.7-0.2,0.9-1.1,1.2-1.7c0.2-0.5,0.7-1,0.1-1.5
					C924.6,1212,924.1,1212.1,924.1,1212.4L924.1,1212.4z"/>
				<path fill="#6D440E" d="M927.2,1233.6c-0.3,0.4-0.6,0.7-0.9,1c-0.4,0.3-0.7,0.7-0.9,1.2s-0.3,1.1-0.3,1.6c0,0.7,0.2,1.1,0.8,1.6
					c0.4,0.3,1,0.1,1.4-0.2c0.7-0.6,0.6-1.7,0.6-2.5c0-0.4-0.1-0.7-0.1-1.1c-0.1-0.5,0-0.8,0.2-1.2
					C928,1233.6,927.5,1233.3,927.2,1233.6L927.2,1233.6z"/>
				<path fill="#6D440E" d="M948.3,1236.2c-1.3,2.2-6.5,4.8-4.2,7.9c0.4,0.5,1.1,0.5,1.6,0.2c1.3-0.7,1.2-2.2,1.6-3.4
					c0.2-0.7,0.7-1.3,1-2s0.4-1.6,0.7-2.3C949.2,1236.2,948.6,1235.7,948.3,1236.2L948.3,1236.2z"/>
				<path fill="#6D440E" d="M964.6,1231.3c-1,1.3-2.4,2.3-2.8,4c-0.1,0.7,0.1,1.3,0.7,1.7c0.3,0.2,0.7,0.2,1.1,0.1
					c0.5-0.1,0.9-0.6,1-1c0.2-0.6,0.4-1.3,0.6-1.9c0.2-0.7,0.4-1.2,0.8-1.8C966.5,1231.6,965.2,1230.5,964.6,1231.3L964.6,1231.3z"
					/>
				<path fill="#4F3615" d="M947.2,1181.8c-1.9,0.5-3.3,2.8-4.3,4.4s-2.7,3.9-2.3,5.9c0.1,0.5,0.7,0.7,1.1,0.4
					c1.6-1,2.4-3.5,3.3-5.1c1-1.6,2.5-3.3,2.7-5.2C947.7,1181.9,947.4,1181.8,947.2,1181.8L947.2,1181.8z"/>
				<path fill="#4F3615" d="M955.4,1200.6c-1.8,0.6-3.1,3-3.8,4.6s-1.8,4-0.1,5.3c0.4,0.3,0.8,0.2,1-0.1c1-1.4,1.1-3.4,1.8-4.9
					c0.6-1.4,1.7-2.9,1.8-4.4C956.2,1200.8,955.7,1200.5,955.4,1200.6L955.4,1200.6z"/>
				<path fill="#4F3615" d="M960.1,1202.5c-0.6,0.4-1.3,0.8-1.7,1.4c-0.3,0.6-0.5,1.7,0.2,2.1c0.6,0.4,1.5-0.3,1.8-0.9
					c0.4-0.7,0.3-1.6,0.3-2.4C960.7,1202.6,960.3,1202.3,960.1,1202.5L960.1,1202.5z"/>
				<path fill="#4F3615" d="M967.2,1212.6c-0.8,0.5-1.4,1.5-1.8,2.3c-0.5,0.8-1.1,1.8-0.8,2.8c0.1,0.5,0.9,0.8,1.2,0.3
					c0.6-0.7,0.7-1.7,1.2-2.5c0.4-0.8,0.9-1.7,0.9-2.5C967.8,1212.7,967.5,1212.4,967.2,1212.6L967.2,1212.6z"/>
				<path fill="#4F3615" d="M957.2,1184.7c-0.7,0.1-0.9,0.9-1.1,1.5c-0.2,0.6-0.4,1.3,0,1.8c0.1,0.1,0.3,0.1,0.4,0.1
					C957.6,1187.9,958.6,1184.5,957.2,1184.7L957.2,1184.7z"/>
				<path fill="#4F3615" d="M976.6,1166.2c-1.8,0.1-3.3,1.6-4.4,2.9c-1.2,1.3-2.4,3-2.6,4.8c-0.1,0.6,0.7,0.7,1.1,0.4
					c1.4-1.1,2.4-2.7,3.5-4c1-1.2,2.4-2.1,3-3.6C977.2,1166.5,976.9,1166.2,976.6,1166.2L976.6,1166.2z"/>
				<path fill="#4F3615" d="M979.3,1169.9c-0.8,0.8-1.8,1.6-2,2.7c-0.1,0.3,0.2,0.6,0.5,0.5c1.1-0.4,1.8-1.4,2.5-2.3
					C980.8,1170.2,979.9,1169.3,979.3,1169.9L979.3,1169.9z"/>
				<path fill="#4F3615" d="M994.8,1200.5c-1.5,0.2-2.5,2.4-3.1,3.6c-0.6,1.3-1.7,3.4-1.1,4.9c0.2,0.5,0.9,0.8,1.3,0.3
					c1-1.2,1-3,1.6-4.4c0.5-1.2,1.9-2.6,1.9-3.9C995.4,1200.6,995.1,1200.4,994.8,1200.5L994.8,1200.5z"/>
				<path fill="#4F3615" d="M1008.3,1197.1c0,0.2,0,0.4,0,0.6s0.1,0.4,0.1,0.6c0,0.5-0.1,0.8,0.3,1.2c0.2,0.2,0.6,0.3,0.9,0.1
					c0.6-0.4,0.6-1.1,0.4-1.7c-0.2-0.6-0.5-0.9-1-1.3C1008.6,1196.4,1008.2,1196.7,1008.3,1197.1L1008.3,1197.1z"/>
				<path fill="#4F3615" d="M948.8,1161.5c0,0.1-0.1,0.2-0.1,0.3c0.1-0.1,0.2-0.1,0.3-0.2c-0.6,0.2-0.8,0.7-1.1,1.3
					c-0.6,0.9,1,1.8,1.4,0.8c0.2-0.3,0.3-0.7,0.4-1c0.1-0.4-0.1-0.7-0.1-1.1C949.6,1161.2,948.9,1161.1,948.8,1161.5L948.8,1161.5z"
					/>
				<path fill="#4F3615" d="M941.6,1175c-0.1,0.6-0.2,1.2-0.2,1.7c0,0.7,1.1,1.1,1.5,0.4c0.3-0.6,0.5-1.3,0.7-1.9s-0.3-1.2-0.8-1.3
					C942.1,1173.9,941.7,1174.4,941.6,1175L941.6,1175z"/>
				<path fill="#4F3615" d="M948.5,1138c-0.4,0.5-0.8,1-1.1,1.5s-0.7,1.2-0.5,1.8c0.1,0.4,0.7,0.6,1,0.3c0.4-0.4,0.4-1,0.6-1.5
					c0.2-0.6,0.4-1.1,0.7-1.6C949.4,1138.1,948.8,1137.6,948.5,1138L948.5,1138z"/>
				<path fill="#4F3615" d="M964.1,1123.7c-0.3,0.4-0.7,0.9-1,1.3s-0.8,0.8-0.7,1.4c0,0.3,0.4,0.7,0.7,0.6c0.5-0.2,0.7-0.7,1-1.2
					s0.5-1,0.8-1.5C965,1123.8,964.4,1123.2,964.1,1123.7L964.1,1123.7z"/>
				<path fill="#4F3615" d="M1001.8,1132.6c0,0.4-0.1,0.9,0.1,1.2c0.1,0.2,0.4,0.5,0.6,0.5c0.7-0.1,0.4-1.3,0.4-1.7
					C1002.9,1131.9,1001.9,1131.9,1001.8,1132.6L1001.8,1132.6z"/>
				<path fill="#4F3615" d="M1016.4,1159.1c0,0.4,0.1,0.8,0,1.3s-0.3,0.8,0,1.3c0.2,0.3,0.6,0.4,0.9,0.2c0.6-0.3,0.6-0.9,0.6-1.5
					c0-0.5,0-1.2-0.3-1.6C1017.3,1158.2,1016.5,1158.5,1016.4,1159.1L1016.4,1159.1z"/>
				<path fill="#4F3615" d="M1019.2,1153.4c0.8,1.4,1.3,2.9,1.5,4.5c0.2,1.2,2.1,1.3,2,0c-0.2-2.1-1-3.8-2.3-5.4
					C1019.8,1151.8,1018.7,1152.7,1019.2,1153.4L1019.2,1153.4z"/>
				<path fill="#4F3615" d="M951.8,1112.2c-0.6,1-1.3,1.7-1.7,2.8c-0.2,0.4-0.4,0.9-0.5,1.4s0.1,1,0.2,1.5c0.1,0.4,0.6,0.5,1,0.3
					c0.3-0.3,0.7-0.5,0.9-0.9c0.3-0.4,0.4-0.9,0.6-1.4c0.4-0.9,0.6-2,1.1-2.8C953.9,1112.1,952.4,1111.2,951.8,1112.2L951.8,1112.2z
					"/>
				<g>
					<g>
						<path fill="#4F3615" d="M950.2,1118.7C950.3,1118.7,950.3,1118.6,950.2,1118.7L950.2,1118.7L950.2,1118.7z"/>
					</g>
				</g>
				<path fill="#4F3615" d="M986.3,1092.8c-2.1-0.1-4.6,2-6.3,3.2c-1.8,1.3-3.8,2.9-4.5,5.1c-0.2,0.7,0.6,1.2,1.2,0.9
					c2-0.9,3.5-2.9,5-4.3c0.9-0.9,1.9-1.6,3-2.3c0.9-0.6,1.5-0.8,2.1-1.7C987,1093.2,986.7,1092.8,986.3,1092.8L986.3,1092.8z"/>
				<path fill="#4F3615" d="M987,1096.9c-1.2,0.3-1.9,2.1-2.4,3.1c-0.2,0.5-0.5,1-0.3,1.6c0.2,0.4,0.6,0.7,1,0.7
					c0.5,0,1-0.6,0.6-1.1c0.2,0.2-0.1,0.3,0.1,0.1c0.1-0.2,0.2-0.5,0.3-0.6c0.2-0.4,0.4-0.9,0.6-1.3c0.3-0.7,0.8-1.3,0.6-2.1
					C987.5,1096.9,987.2,1096.8,987,1096.9L987,1096.9z"/>
				<g>
					<g>
						<path fill="#4F3615" d="M990.9,1100.3C991,1100.3,991,1100.2,990.9,1100.3C990.8,1100.2,990.8,1100.3,990.9,1100.3
							L990.9,1100.3z"/>
					</g>
				</g>
				<path fill="#4F3615" d="M1018.7,1101.2c-0.1,0.1-0.1,0.1-0.2,0.2c0.1,0,0.2,0,0.3,0C1018.8,1101.4,1018.8,1101.4,1018.7,1101.2
					c-0.3-0.7-1.5,0-1.1,0.8c0.6,1.2,2,1.7,3,2.5s1.7,2.1,2.7,2.9c0.5,0.4,1.4-0.1,1.3-0.8c-0.2-1.4-1.5-2.7-2.6-3.6
					s-2.4-2.1-3.9-2.1c0.2,0.2,0.4,0.4,0.7,0.7c0.1,0,0.1-0.1,0.2-0.1C1019.2,1101.4,1018.9,1101,1018.7,1101.2L1018.7,1101.2z"/>
				<path fill="#4F3615" d="M960.1,986.6c0.5,0.5,1.1,0.9,1.8,1.1c0.4,0.2,0.9,0.2,1.2-0.2c0.2-0.3,0.3-0.9-0.1-1.2
					c-0.5-0.4-0.9-0.8-1.3-1.3C960.6,984.1,959.2,985.6,960.1,986.6L960.1,986.6z"/>
				<path fill="#4F3615" d="M963.5,985.1c0.5,0.4,1,0.7,1.6,1c0.5,0.3,1,0.9,1.7,0.8c0.3,0,0.6-0.3,0.6-0.6c0-0.8-0.8-1.3-1.3-1.6
					c-0.7-0.4-1.3-0.7-2.1-0.7C963.4,984,963.1,984.7,963.5,985.1L963.5,985.1z"/>
				<g>
					<g>
						<path fill="#4F3615" d="M967.1,985.9C967.2,985.9,967.2,985.8,967.1,985.9C967.1,985.8,967.1,985.9,967.1,985.9L967.1,985.9z"
							/>
					</g>
				</g>
				<path fill="#4F3615" d="M989.4,985.3c0.3-0.4,0.6-0.9,1-1.2c0.3-0.4,0.8-0.8,0.7-1.3c0-0.3-0.2-0.6-0.6-0.6
					c-1.2,0.1-1.6,1.9-1.9,2.8C988.5,985.5,989.2,985.7,989.4,985.3L989.4,985.3z"/>
			</g>
		</g>
		<g>
			<g opacity="0.3">
				<path fill="#091426" d="M1159.4,1240.1c0.1,0.8,0.1,1.7,0,2.5c-0.3,3.9-2.5,5.4-5.8,6.8c-1.3,0.6-2.5,0-2.9-1
					c-0.5-0.3-0.9-0.8-0.9-1.5c0-2.2-0.6-4.4-1.2-6.6c-0.7,7.3-2.1,14.7-6.1,20.3c-0.2,0.3-0.8,0.2-0.8-0.2
					c0.2-5.2,1.2-10.2,1.1-15.4c0-3.1,0.1-6.1,0.2-9.1c-0.1,0.1-0.3,0.3-0.4,0.4c-1.3,1.3-3.1,3.8-5.2,2.8l-0.1-0.1
					c-0.6,1.2-1.5,2.2-2.7,2.8c-1.2,0.6-2.7,0.6-3.8-0.2c-1,0.4-2.3,0.1-3.3-0.5c-1.1-0.6-1.9-1.5-2.6-2.4c-0.6,0.8-1.7,1.1-2.6,0.5
					c-3-2-3.7-6.1-3.8-9.6c0-1.5,0.2-3,0.6-4.4c0-0.6,0-1.3-0.2-1.9c-0.1-0.3-0.2-0.7-0.4-1c0,0,0,0-0.1,0c-0.8,0.1-1.6,0.4-2.3,0.8
					c-2.6,4.4-4.4,9.5-5.6,13.7c-0.2,0.7-1.3,0.6-1.3-0.2c-0.1-5.2,0.8-11.2,3.1-16.3c0-0.4,0-0.7,0-1.1c-0.2-1.5-1.4-3-2.6-1.3
					c-0.3,0.4-0.5,0.8-0.8,1.3c0,0.1-0.1,0.2-0.1,0.3c-0.1,0.1-0.1,0.3-0.2,0.4c-0.1,0.3-0.3,0.6-0.4,0.8c0,0.1-0.1,0.1-0.1,0.2l0,0
					c-1.3,2.9-2.5,5.9-3.5,9c-0.4,1.2-2.3,0.7-1.9-0.5c2.2-7.4,4.1-14.8,7.8-21.3c-0.6,0.1-1.2,0.2-1.9,0.1
					c-1.1-0.2-1.5-1.5-1.4-2.4c0-0.1,0-0.2,0.1-0.2c-0.6-2.4,0.5-5.2,1.3-7.4c0.3-0.9,0.6-1.8,1-2.7c-0.3-0.4-0.8-0.9-1-1.2
					c-0.2-0.2-0.4-0.3-0.6-0.3l0,0c-1.3,2.4-2.7,5.9-4.9,7.3c-0.5,0.3-1.1,0.2-1.5-0.2c-3.5-3.2,1.1-10.3,3.3-13.1
					c0.6-0.7,1.2-1.5,2-2.2c0-0.7,0-1.3,0-1.9c0.1-0.8,0.3-1.6,0.5-2.3c-0.2,0.1-0.3,0.1-0.5,0.2c-0.4,0.3-1-0.1-1-0.6
					s-0.2-0.8-0.1-1.3c0.1-0.6,0.4-1.3,0.6-1.9c0.3-1,0.9-1.9,1.7-2.7c-2-4.4-3-7.3-1.5-12.5c1.1-3.8,2.8-7.5,5.2-10.8
					c0.3-0.9,0.3-1.7-0.4-2.2c-0.7,0.8-1.1,2-1.5,2.8c-0.4,0.9-1.9,1.2-2.1,0c-0.5-2.9,0-6.4,2.2-8.4c-0.1,0-0.2-0.1-0.3-0.1
					c-0.3,0.1-0.7,0-1.1,0.1c-0.8,0.3-1.4,0.9-2,1.5c-1.4,1.4-2.7,3.1-3.6,4.8c-0.7,1.2-2.4,0.3-2.1-0.9c0.5-2.3,0.5-4.5,1.7-6.7
					l0.1-0.1c0-0.2,0-0.3,0.1-0.5c0.2-0.7,0.4-1.3,0.6-2c-0.8-0.9-1.5-1.9-2.3-2.8c-0.6-0.7-1.3-1.4-1.9-2.2
					c-0.4-0.5-0.7-1.1-1.3-1.4c-0.9,0.6-2.3-0.2-2.2-1.3c0.3-3.8,2.4-7.2,4.1-10.5c0,0,0,0,0-0.1c-1.2-2.4-1.9-4.4-0.8-7.2
					c0.3-0.8,0.6-1.6,0.9-2.4c-0.1-0.2-0.2-0.3-0.3-0.5c-0.2,0.2-0.4,0.4-0.8,0.5c-0.7,0.4-1.6,0.4-2.4,0.6
					c-1.8,0.4-3.4-1.9-1.9-3.3c0.1-0.1,0.2-0.1,0.2-0.2c0,0,0-0.1,0-0.3c0,0,0,0,0-0.1c-3.6-2.9-4.9-6.5-4-11.1
					c0-0.2,0.1-0.4,0.1-0.6c-0.9-0.1-1.8-1-1.6-2.2c0.4-2.1,0.7-3.9,1.8-5.7c-0.8,0.1-1.6-0.3-2-1c-0.3-0.5-0.5-1.1-0.5-1.6
					s0.1-1.1,0.4-1.6c-0.2,0.2-0.5,0.3-0.7,0.4c-0.3,0.2-0.6,0.3-1,0.3c-0.6-0.1-0.7-0.1-0.3,0c-1,0.4-1.6-0.7-1.6-1.5
					c-0.2-1.2,0.4-2.4,1.1-3.4l0,0c-0.5-0.3-0.9-0.8-1-1.6c-0.7-5.8,1.8-9.1,4-14.1l0,0c-0.6-2.1-0.7-4.5-1-6.7
					c-0.8-5.4-2.1-10.9-3.5-16.2c-0.2-0.9,0.2-1.6,0.9-2l0,0c-0.9-2.9-1.9-5.7-2.9-8.6c-1.3,1-2.9,1.7-4.6,2.1
					c-1.4,0.3-3.4-0.4-3.7-2.1c-0.4-2.3,0-3.6,1.3-5.5c1.6-2.4,3.1-3.2,3.2-6.4c0-0.3,0-0.6,0-1c-1.1,1.3-2.3,2.5-3.7,3.6
					c-2.2,1.8-5.8,0.2-5-2.9c0.6-2.4,1.3-4.8,2.1-7.1c0.2-0.6,0.9-2.1,1.5-3.6c-0.1,0.1-0.3,0.2-0.4,0.3c-1.5,0.7-3.5,0.8-4.9-0.3
					c-3.6-2.7-0.8-8.1,0.7-11.2c0,0,0.2-0.5,0.6-1.2c-1.3,0.5-2.8,0.5-4.1-0.3c-2.7-1.7-2.3-4.3-1.7-7c-0.1,0-0.1,0-0.2,0
					c-1.5-0.2-2.1-0.9-3.1-2.1c-0.7-0.9-0.4-2.1,0-3c1.2-2.5,3.8-3.9,6.4-4.2c5.1-2.6,9.6-1.5,13.8,3.7c5,6.2,9.3,13.2,13,20.2
					c7.7,14.6,14.3,30.7,18.6,46.6c0.2,0.8,0.1,1.4-0.1,1.9c3.1,8.8,5.7,17.7,7.8,26.9c2.4,10.5,5.2,21.4,6.8,32.2
					c3.3,9.3,5.5,19.3,8.6,28.6c4.1,12.6,9.5,25.2,12.8,38.1c1,1.2,1.8,2.7,2.8,4.6c2.3,4.8,4.3,9.8,5.2,15.1
					c1,5.8,1.4,11.9,1.7,17.9c0.2,6.1,0.2,12.2,0.3,18.1l1.4,0.7l2.3,12.5L1159.4,1240.1z"/>
			</g>
			<g>
				<g>
					<path fill="#4F3615" d="M1201,1171.2c0.4,0.1,0.8-0.3,0.7-0.7c-0.4-1.9-3.1-2.9-4.8-3.6c-1.7-0.6-3.7-1.2-5.5-1.1l0,0l0,0
						c-0.3-0.2-0.7-0.4-1-0.6c-0.5-1.5-1.6-2.5-3.1-3.3c-0.3-0.1-0.5-0.3-0.7-0.4c4.8-0.6,10,0,14,2.3c0.4,0.2,0.8-0.5,0.4-0.7
						c-4.2-1.9-7.3-5.6-11.9-7.1c-1.1-0.3-2.3-0.6-3.6-0.6c0.1-0.1,0.1-0.2,0.2-0.2c1-1.2,3-0.8,4.3-0.7c0.2,0,0.3-0.3,0.2-0.4
						c-1.4-1.6-3-1.6-5-1.3c-0.7-2.3-3.8-3.9-5.4-5.8c1.1-0.6,2.1-1.1,3.5-0.4c0.8,0.4,1.6,0.9,2.5,1.2c1.1,0.3,2,0.1,3,0.6
						c0.4,0.2,0.8-0.4,0.4-0.6c-0.7-0.5-1.2-1.2-1.7-1.9c0.8-0.4,1.3-1,1.3-1.9c0-0.6-0.6-0.9-1.2-0.7c0.4-0.2-0.5,0.1-0.6,0.2
						c-0.3,0.1-0.5,0.1-0.8,0.1c-0.6,0-1.1-0.1-1.7-0.1l0,0c-0.5-0.4-1-0.8-1.3-1.9c-0.4-1.2-0.4-2.7-0.5-3.9
						c-0.2-1.8-0.4-3.6-0.6-5.5l0,0c0.7,0,1.3-0.2,1.9-0.5c1.1-0.4,2.2-1.2,3-2.1l0,0c1.9,0.5,3.6,1.5,4.5,3.1
						c0.4,0.7,1.4,0.4,1.5-0.4c0.1-2.7-1.7-4.8-4.1-6.1c-0.1-0.4-0.3-0.9-0.6-1.4c-0.2-0.3-0.3-0.5-0.5-0.7c1,0.3,2,0.7,2.8,1.3
						c0.9,0.6,1.9-0.7,1.1-1.5c-2.8-2.8-8.7-5.2-13.6-5.4c-0.2-0.5-0.4-0.9-0.2-1.5c0.3-1,0.9-1.3,1.7-1.7c0.2-0.1,0.4-0.2,0.7-0.3
						c2.6,0.5,5.2,1.1,7.9,1.4c1,0.1,1.2-1.5,0.2-1.8c-3.9-1.2-7.1-3.3-11.3-3.7c-1.7-0.1-3.3-0.1-4.8,0.2c0-0.5,0.1-0.9,0.5-1.3
						c0.9-1,2.6-1.4,3.9-1.6c0.9-0.1,0.5-1.5-0.4-1.4c-2.1,0.3-3.8,1.3-5.8,1.8c-0.1,0-0.2,0-0.3,0.1c-0.2-0.4-0.6-0.8-1-1.2l0,0
						c0.2-0.2,0.3-0.6,0.4-0.9c0,0,0,0.1,0,0.2c0.5-0.8,0.2-1.5-0.4-1.9c0.3-0.2,0.7-0.3,1-0.6c0.4-0.4,0.5-0.9,0.2-1.3
						c0.5-0.3,0.9-0.7,1.2-1.1c0.7,0,1.3,0.2,2.1,0.3c0.7,0.1,1-0.7,0.4-1.1c-0.7-0.5-1.5-0.9-2.3-1.2l0,0c0-0.2,0-0.3-0.1-0.4
						c0-0.2,0-0.3,0-0.4c0-0.3-0.1-0.6-0.1-0.9c0.4,0.1,0.7,0.3,1.1,0.4c1.7,0.7,3.1,1.4,4.5,2.6c1.6,1.3,2.6,2.8,4,4.1
						c0.3,0.3,1,0.1,1-0.4c-0.4-3.8-3.5-7.7-6.1-10.3c-1.4-1.5-3.8-2.9-6.2-3.6l0,0c0.5-0.7,1.1-1.3,1.7-1.7
						c1.2-0.8,2.7-0.9,3.9-1.6c0.7-0.4,0.4-1.3-0.2-1.5c-1-0.3-1.8-0.3-2.9-0.2c-1.1,0.1-2.1,0.2-3.2,0.3c-0.3,0-0.5,0.1-0.8,0.2
						c0,0,0,0,0-0.1c0.1-0.6,0.2-1.1,0.2-1.7s-0.1-1.2,0-1.8c0-0.3-0.5-0.5-0.7-0.3c-0.4,0.5-1.1,0.9-1.6,1.4
						c-0.1,0.1-0.2,0.2-0.2,0.2c-0.1-0.5-0.2-0.9-0.3-1.2c-0.7-2.8-0.4-4.7,1.2-7.2c0.1-0.2,0.1-0.3,0.2-0.5c1-1,1.8-2.1,2.5-3.4
						c0.2-0.5,0.2-1.1-0.1-1.5c1.2,0,2.5-0.2,3.7-0.7c0.6-0.3,0.9-1.4,0.5-1.9c-2-2.8-6.1-3.7-9.6-3.5c-0.1-0.9-0.8-1.9-1.4-2.6
						c-0.1-0.2-0.3-0.4-0.5-0.5c0.2-0.2,0.4-0.4,0.6-0.6c0.9-1,1.9-2,1.9-3.3c0.2,0.2,0.4,0.4,0.6,0.6c0.5,0.6,1.6,0.1,1.6-0.7
						c0-0.8,0.3-1.4,0.3-2.2c-0.1-1-0.6-2-1.1-2.9c-1.1-1.8-2.7-3.6-4.5-4.7c-0.5-0.3-1.2-0.7-2-1.1c1.3-0.8,3-1.2,4.2-1
						s2.2,0.8,3.3,1.2c0.5,0.5,0.9,1,1.2,1.6c0.4,0.7,1.6,0.2,1.3-0.6c-0.2-0.5-0.4-1.1-0.6-1.7c0-0.9-0.4-1.7-0.9-2.3
						c-0.3-0.6-0.6-1.1-0.9-1.6c-1.4-1.9-3.8-3.3-5.7-4.7c-0.8-0.6-1.6-1.1-2.5-1.5l0,0c0.5-0.3,1-0.5,1.5-0.8c0.4-0.2,0.4-0.8,0-1
						c-1.5-0.7-2.8-0.5-4.4-0.2c-0.7,0.1-1.5,0.2-2.3,0.3c0.9-0.7,1.7-1.3,2.7-1.9c1.6-0.9,4.1-1.5,4.7-3.4c0.1-0.2-0.1-0.4-0.3-0.4
						c-3.4-0.4-7.8,0.7-11.1,2.7c0-0.3-0.1-0.7-0.2-1c-0.2-1-0.6-1.9-1.1-2.8c2.4-0.5,5.2-2.3,6.8-3.1c1.2-0.5,1.5-2.2,0.9-3.3
						c-1.8-2.9-5.9-2.3-8.9-1.8c-0.5,0.1-1.1,0.2-1.6,0.3c0.1-0.1,0.2-0.2,0.2-0.3c0.4-0.7,0.7-1.4,1.3-2c0.6-0.6,1.3-1,1.7-1.7
						c0.2-0.3-0.1-0.6-0.4-0.6c-0.8-0.1-1.5,0.4-2.3,0.7c-0.3,0.2-0.7,0.3-1,0.4c0.9-2.1,1.5-4.4,0.9-6.3c-0.1-0.2-0.2-0.5-0.4-0.6
						c-0.1-0.2-0.2-0.3-0.3-0.4c-1.2-0.5-2.7,0.1-4,0.7v-0.1c0.2-1.4,0.6-2.9,0.3-4.3c-0.2-0.8-0.7-1.5-1.3-2.1
						c1.2-1.5,2.8-2.8,3.8-3.7c1.4-1.3,2.7-1.7,4.6-1.9c0.8-0.1,1.3-0.1,1.9-0.5c0.1,0,0.2,0.1,0.3,0.1c0.5,0.2,0.8-0.4,0.7-0.9
						c-1.8-3.9-8-4.1-11.5-3.1c-0.5,0.1-1,0.3-1.6,0.5c0.7-1,1.6-2,2.4-3c0.4-0.5,0-1.4-0.7-1.1c-2.2,0.9-4.6,1.3-6.6,2.7
						c-0.5,0.3-0.9,0.7-1.3,1.1c-0.1-0.3-0.2-0.6-0.4-0.8c-0.5-0.6-1.2-0.9-1.9-0.9c0.5-0.3,1-0.7,1.4-1.2c0.3-0.3,0.2-0.9-0.3-1
						c-1.7-0.3-3.4-0.4-5.2-0.2c0.1-0.3,0.2-0.6,0.4-0.8c0.4-0.7,0.9-1.1,1.6-1.6c1.2-0.8,2.7-1.4,3.9-2.4c1.9,0.4,3.7,1,5.7,1.2
						c0.9,0.1,1.1-1,0.7-1.6c-2-2.5-5-4.2-8.4-4.9c-2.4-1.1-5-1.6-7.8-1.6c-1.5,0-3,0.3-4.4,0.9c0.3-0.6,0.6-1.2,0.9-1.8
						c0.6-1.1,2-2.6,1.6-3.9c-0.1-0.2-0.3-0.4-0.6-0.3c-0.4,0.1-0.6,0.3-0.8,0.5c0,0-0.1,0-0.1,0.1c-0.9,0.5-2.2,1.4-3.3,1
						c-1.3-0.5-0.9-2.2-0.6-3.1c0.7-1.7,2.7-4.8,4.7-4.9c0.2,0,0.4-0.1,0.6-0.2c0.1,0,0.1,0.1,0.2,0.1c0.8,0.7,2.1-0.2,1.5-1.2
						c-1.9-3.1-6.3-3.7-9.7-3.4c-2.9,0.2-5.4,1.2-7.6,2.7c0.3-0.8,0.6-1.6,1.1-2.4c1.7-3.1,3.5-5.4,6.7-7.1c0.5-0.2,0.1-0.9-0.3-0.8
						c-3.6,0.9-7.5,2.8-9.6,6c-0.3,0.5-0.6,1-0.9,1.6c-0.1-0.4-0.2-0.7-0.2-1.1c-0.3-3.2,1.5-5.1,3.3-7.4c0.1-0.1,0-0.2-0.1-0.2
						c-2.5,0.3-4.2,3.2-5.5,5.1c-0.6,0.9-1,1.8-1.2,2.9c-0.5-0.7-0.8-1.3-1.4-2c-0.7-0.9-1.3-2.1-2.3-2.7l0,0
						c-0.1-0.4-0.7-0.5-0.9-0.1c-0.5,1-1.9,1.7-2.8,2.3c-0.5,0.4-1.1,0.8-1.7,1.2c-0.4-0.3-0.8-0.6-1.3-0.8
						c-0.9-0.4-1.7-0.7-2.5-1.2c0.3-0.3,0.5-0.6,0.8-0.9c1-1.3,2-2.7,2.5-4.3c0.4-0.3,0.8-0.6,1.3-1c0.8-0.6,0.1-1.9-0.8-1.4
						c-3.1,1.7-6.4,1.5-9.6,2.5c-2,0.6-4,1.8-5.9,2.9c-0.2-0.1-0.4-0.2-0.5-0.3c3.2-6.4,3.9-9.1,4.9-10.3c1-1.3,1.3-2.2,1.3-2.2
						c-12.3,3.5-18.7,5-18.7,5s-7,2.9-7.2,10.6c0,0.6,0,1.2,0.2,1.8l0,0c-0.1,0.4-0.3,0.9-0.3,1.4c-0.1,1.4,0.3,2.9,1.2,4
						c0.8,0.9,1.8,1.4,2.8,1.7c0,0.1,0,0.2,0,0.3s0,0.1,0,0.1s-0.1,0.1-0.1,0.2c-0.2,0.2-0.2,0.5-0.4,0.7c-0.6,0.6-1.3,0.6-2,0.3
						c-0.6-0.2-0.9,0.7-0.4,1c0.9,0.6,1.9,0.8,2.9,0.6l0,0c-1.7,1.8-2,4.7-1,7c0.2,0.3,0.6,0.2,0.8,0c0.8-1.1,1.8-2.7,3.2-2.9
						c0.8-0.1,1.8,0,2.8,0.3c0.1,0,0.1,0.1,0.2,0.1c0.7,0.6,1.3,1.4,1.7,2.3c0.7,1.4,0.4,2.6,0.2,4.1c-0.1,0.6,0.5,1,1,0.6
						c0.2-0.2,0.4-0.4,0.6-0.6c0.9,0.1,1.9,0.7,2.6,1c-0.6,2.7-1.8,4.5-3.5,6.8c-1.3,1.9-2.1,4.8-1.9,7.1c0.1,0.7,0.9,0.8,1.2,0.2
						c0.8-1.8,1.4-2.8,2.8-3.8c0.7-0.1,1.9,0.5,2.3,0.8c0.4,0.2,0.8,0.5,1.1,0.8c0.1,0.1,0.8,0.8,0.9,0.8c-0.3,0.5-0.5,1-0.8,1.5
						c-1.1,1.9-2.4,3.3-2.8,5.5c-0.1,0.5,0,0.8,0.4,1.1c0.1,0.1,0.2,0.2,0.4,0.1c0.8-0.1,0.8-0.4,1.3-1c0.7-1,1.7-1.9,2.8-2.6
						c1-0.6,2-0.9,3-1.6c0.2-0.2,0.4-0.3,0.6-0.5c2.6,1.8,5.3,6.3,6.1,8.6c1.3,3.7,0.8,7.6,0.9,11.4c0.1,7.7,1.2,15.1,0.7,22.9
						c0,0.3,0,0.5,0.1,0.7c-0.1,0.1-0.2,0.3-0.3,0.4c-0.5,0.7,0.5,1.6,1.2,1.2c0.3-0.2,0.6-0.3,0.9-0.5l0,0c0.4,0,0.9-0.1,1.2-0.3
						l0,0c0.5-0.1,1-0.1,1.5,0.1c0.7,1.3,1,2.9,0.5,4.3s-1.1,2.6-0.7,4.1c0.2,0.6,1,0.6,1.2,0c0.3-0.9,0.9-1.5,1.5-2.1l0,0
						c1.3,0.2,2.3,0.9,3.4,1.5c-0.2,1.3-0.6,2.7-1,4c-0.8,1-1,2.2-0.9,3.4c-0.6,3-0.8,6-0.8,9.1c0,0.9,1.3,1.1,1.6,0.2
						c0.4-1.3,0.7-2.6,1-3.9c0.3,1.1,0.2,1.9,0.3,3c0.1,0.4,0.4,0.9,0.8,0.8c0.7-0.1,1.4-0.4,2-0.9c-0.8,1-1.5,2.1-2.1,3
						c-2.7,4.3-4.2,9.8-5.7,14.6c-0.4,1.4,1.6,1.9,2.1,0.6c0.2-0.5,0.4-1,0.7-1.6c0.2-0.1,0.3-0.2,0.5-0.4c0.9-1.2,2.2-1.8,3.6-2.3
						c-0.6,1.6-0.8,3.2-1.2,4.9c-0.2,1.1,1.4,2,2,0.8c0.3-0.6,0.7-1.2,1-1.7c0.1,0.2,0.1,0.4,0.2,0.7c0.3,0.8,0.8,1.6,1.3,2.4
						c-0.2,0.2-0.5,0.3-0.8,0.5c-2.3,1.8-4.3,4.3-4.9,7.3c-0.1,0.4,0.5,0.9,0.8,0.5c1.8-2.2,3.6-3.8,6.4-4.6
						c0.9-0.2,1.8-0.3,2.7-0.3c-1,1.6-1.5,3.7-2.1,5.1c-1.3,3.2-2,6.5-1.8,9.9c0,0.4,0.6,0.5,0.8,0.2c0.2-0.2,0.3-0.5,0.5-0.8
						c0.1,1.6,0.1,3.2-0.5,4.7c-0.8,1.8,1.7,3.4,2.7,1.6c0.3-0.4,0.6-0.9,0.8-1.2c0.7,1.4-0.4,4-1.1,5.2c-0.2,0.4,0.3,0.9,0.6,0.5
						c1.2-1.4,3-2.1,4.1-3.5l0,0c0.2,0.2,0.5,0.5,0.7,0.8c-0.6,2.3-0.9,4.7-1.5,7.1c-1,4-3.4,7.5-4.8,11.5c-0.3,0.8,1,1.2,1.3,0.4
						c0.1-0.2,0.1-0.4,0.2-0.6c0.9-0.6,2.1-1.2,3.2-1.2c0.6,0,0.9,0.3,1.4,0.6c0.1,0,0.2,0.1,0.2,0.1c-0.1,0.3-0.1,0.7-0.1,0.5
						c0,0.1,0,0.2,0,0.3c-0.1,0.2-0.2,0.4-0.2,0.6c-0.4,0.5-1,1.4-0.2,1.8c0.4,0.2,0.7,0.2,1.1,0c0,0.2,0,0.4,0.1,0.6
						c0,0.1,0,0.2,0.1,0.3c0,0.2-0.1,0.3-0.1,0.4c-0.6,0.2-0.9,0.9-0.9,1.5c0.1,0.7,0.7,1.2,1.4,1.2c0.2,0,0.5,0,0.7,0
						c-0.1,0.7-0.2,1.3-0.2,1.9c-0.2,2.8,0.1,5.1-1.9,7.3c-0.3,0.3,0.1,0.8,0.5,0.6c0.7-0.3,1.3-0.6,1.8-0.9c1.2-0.3,2,0,2.9,0.9
						c0.6,0.6,1,1.2,1.3,1.9c0.3,0.7,0.6,1.5,0.7,2.2c0.2,1-0.2,1.1-0.8,1.8c-0.6,0.7-0.5,1.7,0.3,2.2c0.4,0.3,0.8,0.4,1.3,0.4
						c-0.2,0.3-0.3,0.6-0.5,0.9c-0.4,0.8-0.8,1.5-1.3,2.2c-0.3,0.3-0.4,0.7-0.5,1.1c-0.4,0.2-0.6,0.7-0.3,1.1
						c0.3,0.5,0.8,0.9,1.3,1.3c-0.2,0.8-0.4,1.7-0.7,2.4c-0.4,0.9-1.3,2.1-1.5,3.1c-0.2,0-0.3,0.2-0.3,0.3c0,0.4,0.2,0.6,0.4,0.9
						c0.3,0.6,0.5,1.2,0.6,1.8c0.2,1.1,0.5,2.2,0.8,3.3c-0.6,1.1-1.3,2.1-2,3.1c-1.1,1.5-2.6,3.2-3.2,4.9c-0.3,0.8,0.4,1.5,1.2,1.6
						c1.8,0.1,3.8-0.9,5.3-2c-0.2,0.7-0.5,1.4-1.2,2.4c-2.5,3.6-3.6,7.5-4.2,11.8c-0.3,2,2,3.8,3.6,2.1c0.7-0.7,1.2-1.5,1.6-2.2
						c-0.2,2.3-1.3,4.2-1.7,6.5c-0.1,0.8,0.6,1.5,1.4,1.1c0.6-0.3,1.1-0.7,1.6-1c-1.1,3.7-3.1,7-4,11c-1.3,5.5,0.2,12.2-2.2,17.3
						c-0.5,1,1.1,1.6,1.4,0.6c0.1-0.3,0.1-0.5,0.2-0.8c0.1-0.1,0.2-0.2,0.2-0.3c2-4.7,6-9.2,10.8-11.2c0.1,5,0.5,10.3,2.2,14.8
						c0,0.1,0,0.1,0,0.2c0,0.2,0.1,0.4,0.3,0.5c0,0.1,0,0.1,0.1,0.2c0.1,0.3,0.7,0.4,0.8,0c0-0.1,0-0.2,0.1-0.3
						c1.6-1.9,3.1-4,4.8-5.9c0,0,0-0.1,0.1-0.1c0.1,0.2,0.2,0.5,0.2,0.8c0.5,1.6,1.2,3.8,1,5.4c-0.1,1,1.4,1.1,1.7,0.2
						c0-0.1,0-0.1,0.1-0.2c1.9-0.5,3.4-2.1,5.1-3c0.8-0.5,1.8-0.9,2.7-1.1c-0.1,1-0.4,1.9-0.6,2.9c-0.3,1.6-0.3,3.2-0.8,4.7
						c-0.5,1.8,2.2,3,3,1.3c0.9-1.9,2.4-3.9,3.4-5.9l0,0c2.2,4.3,2.2,9.9,2.8,14.5c0.1,0.6,0.8,0.5,1.1,0.1
						c1.6-2.6,2.6-6.4,2.6-10.2c0.7,0.7,1.4,1.4,2,2.1c0.9,0.9,1.5,2.1,2.8,2.4c0.5,0.1,0.8-0.1,1-0.5c0.3,0.6,0.5,1.2,0.8,1.9
						c1,2.6,3,4.9,2.4,7.8c-0.1,0.5,0.5,0.8,0.9,0.5c2.7-2.2,3.3-6.2,2.4-10c0.3-0.2,0.6-0.4,1-0.5c0.4-0.2,0.7-0.2,1-0.3
						c-0.2,0.8-0.5,1.6-1,2.4c-1.3,2,1.2,4.2,3,3.3c0,0.2-0.1,0.4-0.1,0.5c-0.6,2.2,2,3.6,3.6,2.5c0,0.1,0,0.2,0,0.3
						c-0.1,2.1-0.6,4.3-2,5.9c-0.9,1,0.5,2.5,1.5,1.5c2-2,3.8-4.6,4.9-7.1c0,0,0.1-0.1,0.1-0.2c0.6,1.1,1,2.4,1.5,3.5
						c0.9,2.3,2.4,5.5,1.1,7.8c-0.6,1.1,0.9,2.4,1.8,1.4c0.2-0.2,0.4-0.4,0.5-0.6c0.1,0,0.1-0.1,0.2-0.2c2.6-2.6,4.8-5.3,4.5-8.8
						c1,1,1.8,2.1,1.8,3.6c0,0.8,1.4,0.7,1.1-0.1c-1.2-4.3-1.9-8.7-2.9-13.1c-0.1-0.3-0.2-0.7-0.3-1c0.1-0.2,0.2-0.5,0.2-0.8
						c0-0.1,0-0.3,0-0.4c1.1,2.3,2,4.7,3.4,6.8c0.3,0.5,1.3,0.4,1.3-0.3c-0.2-4.2-1.5-9-2.7-13.1c-0.4-1.4-1.1-3.1-2.1-4.5
						c-0.4-1-0.6-2.2-0.1-3c0.9,1.1,1.7,2.3,2.5,3.4c2.3,3.2,4.1,5.7,4.5,9.7c0.1,0.7,0.9,0.8,1.2,0.1c0.7-1.7,0.9-3.6,0.8-5.4
						c2.4-5.2,0-13.9-4-19c0.2,0,0.4,0.1,0.7,0.1c0.9,0.2,1.9,0.5,2.8,1s1.4,1.3,2.3,1.8c0.3,0.2,0.6,0,0.6-0.4
						c0.1-1.9-2.1-3.9-3.5-4.9c-1.3-1-3-2-4.7-2.5c0.7-0.1,1.4-0.4,1.7-1.1c1.1-1.8-0.1-3.9-1-5.5c-0.7-1.4-1.4-3-2.5-4.2
						c1.5-0.3,2.8-0.4,4.2,0.9c1.5,1.4,1.3,3.6,2.2,5.3c0.2,0.3,0.5,0.2,0.7,0c0.4-0.6,0.5-1.3,0.5-2c0.9-2.8,0.1-5.9-1.1-8.7
						c-0.2-0.5-0.5-1-0.8-1.5c0.3,0,0.7,0,1,0c1.9,0.2,3,2.4,3.5,4c0.1,0.4,0.8,0.4,0.8-0.1c0.1-2.7-0.4-4.9-2.2-6.9
						c-0.7-0.8-1.6-1.3-2.6-1.6l0,0c-0.1-0.1-0.3-0.2-0.4-0.4c-0.8-0.7-1.6-1.6-2.2-2.5c-0.9-1.2-1.7-2.4-2.5-3.6
						c0.1,0,0.1-0.1,0.2-0.1c2.1-1.6,1.8-3.8,0.7-5.9c0.1,0,0.2,0.1,0.4,0.1c1,0.4,1.8,0.8,2.5,1.6c0.7,0.7,1.3,1.5,1.9,2.2
						c0.7,0.8,1,1.8,1.8,2.6c0.2,0.2,0.5,0.1,0.7-0.1c0.6-1,0.7-2.6,0.7-3.8c-0.1-1.5-0.6-3-1.4-4.3c0,0,0,0,0-0.1
						c0-0.9-0.1-1.8-0.6-2.7c-0.2-0.5-0.5-0.9-0.8-1.3C1198.5,1170.9,1199.7,1171,1201,1171.2z M1110.5,1133.7L1110.5,1133.7
						L1110.5,1133.7L1110.5,1133.7z M1072.2,993.6C1072.2,993.7,1072.2,993.7,1072.2,993.6L1072.2,993.6
						C1072.2,993.7,1072.2,993.7,1072.2,993.6z"/>
					<g>
						<path fill="none" d="M1110.5,1133.7L1110.5,1133.7L1110.5,1133.7L1110.5,1133.7z"/>
						<path fill="none" d="M1072.2,993.6C1072.2,993.7,1072.2,993.7,1072.2,993.6L1072.2,993.6
							C1072.2,993.7,1072.2,993.7,1072.2,993.6z"/>
						<path fill="#6D440E" d="M1163.2,1054.3c-1-0.5-2.1-0.8-3.3-0.5c-0.4,0.1-0.9,0.4-1.2,0.7c-0.6,0.2-0.6,0.4,0,0.6
							c0.4,0.5,1.9,1,2.5,1.2c1,0.4,2.1,0.6,3.1,1c0.2,0.1,0.4,0.2,0.6,0.2c0.1-0.2,0.1-0.4,0.1-0.6c0.2,0.2,0.4,0.4,0.6,0.6
							c0.4,0.5,1,0.3,1.4-0.1c-0.2-0.6-0.5-1.1-0.8-1.6C1165.2,1055.2,1164.2,1054.7,1163.2,1054.3z"/>
						<path fill="#6D440E" d="M1116.5,985.5h0.4c-0.3-1.4-0.3-2.8-0.3-4.1c0-0.4,0.6-0.7,0.9-0.4c0.6,0.8,1.2,1.7,1.7,2.5v-0.4
							c-0.2-0.4-0.4-0.8-0.6-1s-0.3-0.5-0.2-0.8v-0.1c0.1-0.3,0.4-0.6,0.8-0.7v-0.3h-2.6v5.3H1116.5z"/>
						<path fill="#6D440E" d="M1150.6,1018.9c-0.6-0.2-1.3-0.2-2,0c-0.1,0-0.3,0.1-0.4,0c-0.5,0.6-1,1.2-1.7,1.8
							c0.9-0.6,1.8-1,2.6-1.3C1149.7,1019.2,1150.2,1019,1150.6,1018.9z"/>
						<path fill="#6D440E" d="M1161.6,1060.2L1161.6,1060.2c-3,1-3.2,2.7-0.7,5c1,0,2.1,0,3.1,0c0.7-0.2,1.3-0.7,1.9-1.1
							c-0.6,0-1.1,0-1.7,0c-0.1-0.9-0.8-1.9-1.4-2.6c-0.1-0.2-0.3-0.4-0.5-0.5c0,0,0,0,0.1-0.1l-0.1-0.1
							C1162,1060.6,1161.8,1060.4,1161.6,1060.2z"/>
						<path fill="#6D440E" d="M1156.4,1210.7C1156.4,1210.7,1156.4,1210.8,1156.4,1210.7c0.1,0,0.2,0,0.2-0.1
							c-0.1-0.2-0.2-0.4-0.2-0.6V1210.7z"/>
						<path fill="#6D440E" d="M1152.6,1212.2c0.4-0.9,0.5-1.8,0.2-2.8c-0.2-0.8,1-0.9,1.1-0.1c0.2,1.5,0.5,2.9,0.6,4.3l0,0
							c0-1.4,0-2.7,0-4.1c0-0.6,0.5-0.8,1-0.7v-0.2h-2.8L1152.6,1212.2L1152.6,1212.2z"/>
						<path fill="#6D440E" d="M1184.3,1168.6c-3.3-0.7-2.2,0.3-0.1,1.8c1.2,1,2.7,1.5,3.9,2.6c1.6,1.4,3.1,3,4.5,4.6
							c-0.1-0.3-0.3-0.7-0.5-1c0.1,0,0.2,0.1,0.4,0.1c1,0.4,1.8,0.8,2.5,1.6c0.7,0.7,1.3,1.5,1.9,2.2c0.7,0.8,1,1.8,1.8,2.6
							c0.2,0.2,0.5,0.1,0.7-0.1c0.2-0.4,0.4-0.8,0.5-1.3c-1-2.7-2.2-5.4-3.7-7.8C1193.5,1169.9,1188.7,1169.6,1184.3,1168.6z"/>
						<path fill="#6D440E" d="M1185.6,1196c0.1,1.2,0.3,2.3,0.5,3.4h0.1c-0.3-1.7-0.3-3.4,0.5-4.4h-1.9
							C1185.2,1195.1,1185.5,1195.5,1185.6,1196z"/>
						<path fill="none" d="M1072.2,993.7L1072.2,993.7L1072.2,993.7L1072.2,993.7z"/>
						<path fill="none" d="M1110.5,1133.7L1110.5,1133.7L1110.5,1133.7L1110.5,1133.7z"/>
						<path fill="#6D440E" d="M1196.5,1189.1L1196.5,1189.1c-0.2-0.1-0.3-0.2-0.5-0.4c-0.8-0.7-1.6-1.6-2.2-2.5
							c-0.9-1.2-1.7-2.4-2.5-3.6c0.1,0,0.1-0.1,0.2-0.1c1.7-1.3,1.8-3.1,1.1-4.9c-1.4-1.6-2.9-3.2-4.5-4.6c-1.2-1.1-2.6-1.6-3.9-2.6
							c-2-1.6-3.2-2.6,0.1-1.8c4.3,0.9,9.2,1.3,11.7,5.4c1.5,2.4,2.7,5.1,3.7,7.8c0.2-0.8,0.2-1.8,0.2-2.5c-0.1-1.5-0.6-3-1.4-4.3
							c0,0,0,0,0-0.1c0-0.9-0.1-1.8-0.6-2.7c-0.2-0.5-0.5-0.9-0.8-1.3c1.3,0,2.5,0.1,3.8,0.3c0.4,0.1,0.8-0.3,0.7-0.7
							c-0.4-1.9-3.1-2.9-4.8-3.6c-1.7-0.6-3.7-1.2-5.5-1.1l0,0l0,0c-0.3-0.2-0.7-0.4-1-0.6c-0.5-1.5-1.6-2.5-3.1-3.3
							c-0.3-0.1-0.5-0.3-0.7-0.4c4.8-0.6,10,0,14,2.3c0.4,0.2,0.8-0.5,0.4-0.7c-4.2-1.9-7.3-5.6-11.9-7.1c-1.1-0.3-2.3-0.6-3.6-0.6
							c0.1-0.1,0.1-0.2,0.2-0.2c1-1.2,3-0.8,4.3-0.7c0.2,0,0.3-0.3,0.2-0.4c-1.4-1.6-3-1.6-5-1.3c-0.7-2.3-3.8-3.9-5.4-5.8
							c1.1-0.6,2.1-1.1,3.5-0.4c0.8,0.4,1.6,0.9,2.5,1.2c1.1,0.3,2,0.1,3,0.6c0.4,0.2,0.8-0.4,0.4-0.6c-0.7-0.5-1.2-1.2-1.7-1.9
							c0.8-0.4,1.3-1,1.3-1.9c0-0.6-0.6-0.9-1.2-0.7c0.4-0.2-0.5,0.1-0.6,0.2c-0.3,0.1-0.5,0.1-0.8,0.1c-0.6,0-1.1-0.1-1.7-0.1l0,0
							c-0.5-0.4-1-0.8-1.3-1.9c-0.4-1.2-0.4-2.7-0.5-3.9c-0.2-1.8-0.4-3.6-0.6-5.5l0,0c0.5,0,1-0.2,1.5-0.3c-0.2-1.4-0.4-2.6-1-3.8
							c3.1-2.4,7.7,2.2,9.8,5c0.2-0.1,0.4-0.4,0.4-0.7c0.1-2.7-1.7-4.8-4.1-6.1c-0.1-0.4-0.3-0.9-0.6-1.4c-0.2-0.3-0.3-0.5-0.5-0.7
							c1,0.3,2,0.7,2.8,1.3c0.9,0.6,1.9-0.7,1.1-1.5c-2.8-2.8-8.7-5.2-13.6-5.4c-0.1-0.2-0.2-0.5-0.3-0.7c-1.5-0.1-3.1-0.1-4.6-0.2
							c0,0,0-0.1,0.1-0.2c1.9-7.2,10.7-3.3,15.7-1.7c0.1-0.4-0.1-1-0.6-1.1c-3.9-1.2-7.1-3.3-11.3-3.7c-1.7-0.1-3.3-0.1-4.8,0.2
							c0-0.5,0.1-0.9,0.5-1.3c0.9-1,2.6-1.4,3.9-1.6c0.9-0.1,0.5-1.5-0.4-1.4c-2.1,0.3-3.8,1.3-5.8,1.8c-0.1,0-0.2,0-0.3,0.1
							c-0.2-0.4-0.6-0.8-1-1.2l0,0c0.2-0.2,0.3-0.6,0.4-0.9c0,0,0,0.1,0,0.2c0.5-0.8,0.2-1.5-0.4-1.9c0.3-0.2,0.7-0.3,1-0.6
							c0.4-0.4,0.5-0.9,0.2-1.3c0.5-0.3,0.9-0.7,1.2-1.1c0.7,0,1.3,0.2,2.1,0.3c0.7,0.1,1-0.7,0.4-1.1c-0.7-0.5-1.5-0.9-2.3-1.2l0,0
							c0-0.2,0-0.3-0.1-0.4c0-0.2,0-0.3,0-0.4c0-0.3-0.1-0.6-0.1-0.9c0.3,0.1,0.6,0.2,0.9,0.4c-0.6-0.8-1.2-1.6-1.9-2.4
							c-0.1-0.1-0.2-0.2-0.3-0.3l0,0c3.8,1,7.3,3,10.7,5.1c-1.2-2.4-3.1-4.6-4.8-6.3c-0.9-0.9-2.2-1.8-3.6-2.5
							c-0.9-0.3-1.8-0.5-2.7-0.8c-5.2-1.8,3.7-3.3,5.3-3.3c0.2-0.1,0.3-0.1,0.5-0.2c0.7-0.4,0.4-1.3-0.2-1.5c-1-0.3-1.8-0.3-2.9-0.2
							c-1.1,0.1-2.1,0.2-3.2,0.3c-0.3,0-0.5,0.1-0.8,0.2c0,0,0,0,0-0.1c0.1-0.6,0.2-1.1,0.2-1.7c0-0.2,0-0.4,0-0.6
							c-0.6,0-1.1-0.2-1.5-0.8c-0.3,0.2-0.6,0.5-0.8,0.7c-0.1,0.1-0.2,0.2-0.2,0.2c-0.1-0.5-0.2-0.9-0.3-1.2
							c-0.7-2.8-0.4-4.7,1.2-7.2c0.1-0.2,0.1-0.3,0.2-0.5l0.1-0.1c-0.4-0.2-0.9-0.5-1.3-0.7c-1.8-1.2-2.3-3.4,0.5-3.6
							c1.2-0.1,2.2,0,3.3,0.3c0-0.2-0.1-0.5-0.2-0.7c1.2,0,2.5-0.2,3.7-0.7c0.6-0.3,0.9-1.4,0.5-1.9c-1.7-2.4-4.9-3.3-7.9-3.5
							c-0.6,0.4-1.2,0.9-1.9,1.1c-1,0-2.1,0-3.1,0c-2.5-2.3-2.3-4,0.6-5h0.1c0.2,0.2,0.5,0.4,0.7,0.6l0.1,0.1
							c0.2-0.2,0.4-0.4,0.6-0.6c0.7-0.8,1.6-1.7,1.8-2.7c-0.2-0.1-0.4-0.2-0.6-0.2c-1-0.4-2.1-0.6-3.1-1c-0.6-0.3-2-0.7-2.5-1.2
							c-0.6-0.2-0.6-0.4,0-0.6c0.4-0.3,0.8-0.5,1.2-0.7c1.1-0.4,2.3,0,3.3,0.5c0.9,0.4,1.9,1,2.9,1.6c0.3,0.5,0.5,1.1,0.8,1.6
							c0.1-0.2,0.2-0.3,0.2-0.5c0-0.8,0.3-1.4,0.3-2.2c-0.1-1-0.6-2-1.1-2.9c-0.9-1.6-2.2-3-3.7-4.2c-0.3-0.1-0.6-0.2-0.9-0.2
							c-1.3-0.3-7.2-0.9-6.4-3.2c4-1.1,7.4-0.8,11,1.4c0.2,0.1,0.5,0.3,0.7,0.5c0.1,0,0.3,0.1,0.4,0.1c0.2,0.1,0.3,0.3,0.4,0.5
							c0.6,0.4,1.1,0.9,1.7,1.4c0.4-0.1,0.6-0.4,0.5-0.9c-0.2-0.5-0.4-1.1-0.6-1.7c0-0.9-0.4-1.7-0.9-2.3c-0.3-0.6-0.6-1.1-0.9-1.6
							c-1.4-1.9-3.8-3.3-5.7-4.7c-0.8-0.6-1.6-1.1-2.5-1.5l0,0c0.5-0.3,1-0.5,1.5-0.8c0.4-0.2,0.4-0.8,0-1c-1.5-0.7-2.8-0.5-4.4-0.2
							c-0.7,0.1-1.5,0.2-2.3,0.3c0.9-0.7,1.7-1.3,2.7-1.9c1.6-0.9,4.1-1.5,4.7-3.4c0.1-0.2-0.1-0.4-0.3-0.4
							c-3.4-0.4-7.8,0.7-11.1,2.7c0-0.3-0.1-0.7-0.2-1c-0.2-1-0.6-1.9-1.1-2.8c0.1,0,0.1,0,0.2,0c-0.4-0.5-0.9-1-1.3-1.5
							c1.9-2.6,5.5-2.9,8.5-1.9c0.7-0.7,0.9-2,0.4-2.9c-1.8-2.9-5.9-2.3-8.9-1.8c-0.5,0.1-1.1,0.2-1.6,0.3c0.1-0.1,0.2-0.2,0.2-0.3
							c0.4-0.7,0.7-1.4,1.3-2c0.6-0.6,1.3-1,1.7-1.7c0.2-0.3-0.1-0.6-0.4-0.6c-0.8-0.1-1.5,0.4-2.3,0.7c-0.3,0.1-0.5,0.2-0.8,0.3
							c-0.5,0.9-2.7,3.8-3.3,1.6c-0.3-1.4,1.5-2.5,2.3-3.3c0.7-0.7,1.3-1.6,1.7-2.5c0.1-0.3,0.2-0.6,0.3-0.9c0-0.4-0.1-0.8-0.2-1.2
							c-0.1-0.2-0.2-0.5-0.4-0.6c-0.1-0.2-0.2-0.3-0.3-0.4c-1.2-0.5-2.7,0.1-4,0.7v-0.1c0.2-1.4,0.6-2.9,0.3-4.3
							c-0.1-0.5-0.4-1-0.7-1.4c-0.6-0.2-1.2-0.5-1.9-0.7c-0.9-0.3-1.9-0.6-2.8-0.7c-0.6-0.1-1.2,0-1.7,0.1c2.3-3.7,5.3-6.2,10.1-6.1
							c1.5,0,2.7,0.5,3.7,1.1c0.1,0,0.3,0,0.4-0.1c0.8-0.1,1.3-0.1,1.9-0.5c0.1,0,0.2,0.1,0.3,0.1c0.5,0.2,0.8-0.4,0.7-0.9
							c-1.8-3.9-8-4.1-11.5-3.1c-0.5,0.1-1,0.3-1.6,0.5c0.7-1,1.6-2,2.4-3c0.4-0.5,0-1.4-0.7-1.1c-2.2,0.9-4.6,1.3-6.6,2.7
							c-0.5,0.3-0.9,0.7-1.3,1.1c-0.1-0.3-0.2-0.6-0.4-0.8c-0.5-0.6-1.2-0.9-1.9-0.9c0.5-0.3,1-0.7,1.4-1.2c0.3-0.3,0.2-0.9-0.3-1
							c-0.7-0.1-1.5-0.2-2.3-0.3c-1.2,0.7-2.3,1.5-3.4,2.7c-0.2-0.2-0.3-0.4-0.4-0.6c-0.8-1.1-2.5-1.7-3.5-2.6
							c-0.8-0.7-1.4-1.6-1.9-2.5v-0.8c0.5,0.3,1,0.5,1.6,0.8c0.6,0.2,1.3,0,1.7-0.5c0.7-0.7,2.7-3.7,3.7-3.8
							c0.7-0.1,2.9,1.9,3.7,2.3c0.4,0.2,0.7,0.4,1.1,0.6c0.1-0.1,0.2-0.1,0.3-0.2c1.9,0.4,3.7,1,5.7,1.2c0.9,0.1,1.1-1,0.7-1.6
							c-2-2.5-5-4.2-8.4-4.9c-2.4-1.1-5-1.6-7.8-1.6c-1.5,0-3,0.3-4.4,0.9c0.3-0.6,0.6-1.2,0.9-1.8c0.6-1.1,2-2.6,1.6-3.9
							c-0.1-0.2-0.3-0.4-0.6-0.3c-0.4,0.1-0.6,0.3-0.8,0.5c0,0-0.1,0-0.1,0.1c-0.9,0.5-2.2,1.4-3.3,1c-1.3-0.5-0.9-2.2-0.6-3.1
							c0.7-1.7,2.7-4.8,4.7-4.9c0.2,0,0.4-0.1,0.6-0.2c0.1,0,0.1,0.1,0.2,0.1c0.8,0.7,2.1-0.2,1.5-1.2c-1-1.6-2.6-2.5-4.5-3
							c-0.3,0.1-0.5,0.3-0.8,0.4c-2.2,1.3-3.4,2.2-6.1,2.1c-2.2,0-4.5-0.3-6.7-0.2c-0.1-0.1-0.2-0.2-0.3-0.2c-1.3-1.1-3,0-2.7,1.6
							c0.2,0.9,0.4,1.9,0.8,2.9c-3.2-1.8-7.2-3.2-10.4-4.1c-1.9-0.6-3.8-0.7-5.6-1.6c-1.8-0.8-3.2-1.6-5.2-1.9
							c-1.6-0.3-2.2,1.9-0.7,2.5c1,0.4,1.6,1.3,2.2,2.2l0,0c-0.2-0.3-0.5-0.5-0.8-0.8c-1.6-1-2.9-1.8-4.8-2.1
							c-2.1-0.3-4.1-0.5-6.2-0.8c-1.1-0.2-2,0.9-1.9,1.8c-0.8-0.4-1.6-0.7-2.4-1c-0.2-0.2-0.5-0.4-0.8-0.4c-0.3-0.1-0.6-0.1-0.9-0.2
							c-0.8-0.3-1.6-0.5-2.3-0.8c-3.5-1.3-5.9-1.4-8.9-0.2c0,0.1,0,0.1,0,0.2c-0.1,1.4,0.3,2.9,1.2,4c0.3,0.4,0.7,0.7,1.2,1
							c0.9-0.1,1.8-0.2,2.8-0.4c1.2-0.2,2.2-0.3,3.4-0.1c0.3,0.1,0.6,0.1,0.9,0.2c0.3,0.1,0.5,0.2,0.8,0.3c-0.9,0.3-1.9,0.5-2.9,0.5
							c-0.8,0-1,1.2-0.2,1.4c2.4,0.5,4.9-0.2,7,1.5c1.8,1.5,3.5,3.9,3.8,6.2c0.4,4,1.7,6.5,5.5,8.4c0.5,0.2,1,0.3,1.4,0.3
							c3,2,6,4,9.5,4.9c4.6,1.2,8.2,2.8,12.3,5.3c0.1,0,0.1,0,0.1,0.1c1,1.6,0.8,3.8,0.8,5.7c0,4.3-2,3.6-3.6,6.5
							c-0.8,1.5-0.6,2.6-0.5,4.3c0.2,3.9-0.3,7.6-1.5,11.3c-0.5,1.7,2.1,2.4,2.7,0.7c0,0,0-0.1,0.1-0.1c0.3,0.5,0.6,1,1,1.5
							c-0.7,1.8-0.4,4.1-2.3,5.2c-0.9,0.5-0.3,2.1,0.7,1.7c0.9-0.3,1.5-0.7,2.1-1.4c1-1.4,1.5-2.5,3-3.5c0.1-0.1,0.2-0.1,0.2-0.2
							c0,0.1,0,0.2,0.1,0.4c0.1,0.5,0.4,1,0.8,1.4c0.5,0.6,1.3,1.1,2,1.5c-0.4,0.2-0.7,0.4-1,0.8s-0.6,0.9-0.9,1.2
							c-0.3,0-0.6,0.2-0.8,0.5l0,0h-0.1c-0.1,0-0.2,0.1-0.2,0.1l0,0c-0.4,0-0.8,0.2-1.1,0.4c-0.6,0-1.2,0-1.9,0.1
							c-1.2,0.1-2,0.6-2.7,1.6c-0.6,0.8-0.8,1.8-0.6,2.8c0.2,0.9,0.1,2,0.7,2.7c0.3,0.4,0.9,0.5,1.2,0c0.4-0.6,0.2-1.3,0.5-1.9
							s0.9-1.3,1.4-1.8s0.8-1.1,1.2-1.7c0.1-0.1,0.2-0.2,0.4-0.3c-0.3,0.8-0.5,1.6-0.7,2.5c-0.1,0.7-0.1,1.5-0.1,2.2
							c-0.1,1.3-0.4,2.6-0.7,3.9c-0.2,1.1,1.4,1.6,1.7,0.5c0.3-1.2,0.6-2.3,1-3.5c0.3,0,0.5-0.2,0.6-0.6c0.1-0.3,0.3-0.5,0.6-0.3
							c0.3,0.1,0.4,0.5,0.5,0.8c0.2,0.3,0.4,0.7,0.6,1c0.1,0.2,0.1,0.4,0.2,0.6c-0.1,2.6-0.6,5.1-2.2,7.3c-1,1.4-2.2,2.5-2.9,4.2
							c-1.1,2.8-1.6,6.5-0.3,9.3c0.3,0.6,1.1,0.4,1.3-0.2c0.6-2.2,1-4.3,2.2-6.2h0.1c0,0.1,0.1,0.2,0.1,0.4c0.1,0.3,0.1,0.5,0.2,0.8
							l0,0c-0.8,2.1,0,5.3-1.5,7c-1,1.1,0.5,2.6,1.6,1.6c1.1-0.9,1.4-2.1,1.8-3.3c0,0.1,0,0.3,0,0.4c0.2,0.9,0.4,0.7,0.2,1.6
							c-0.1,0.6-0.5,1.1-0.7,1.7c-0.9,2.2-1.3,4.2-0.6,6.5c-0.2,0.4-0.4,0.8-0.8,1.1c-0.3,0.2-0.1,0.7,0.3,0.5
							c1.2-0.6,1.6-1.9,3.3-1.9c1,0,2.3,0.5,3,1.3c0,0.2,0,0.3,0.1,0.5c-0.1,0.2-0.2,0.3-0.5,0.4c-0.5,0.2-1,0.2-1.5,0.5
							c-1.4,0.8-0.2,2.8,1.3,2.2c0.1,0,0.2,0,0.2-0.1l0,0c0.1,0.4,0.4,0.7,0.8,0.9c0.1,0.1,0,0.5,0,0.7c-0.2,0.6-0.3,0.9-0.8,1.2
							c-0.1,0.1-0.2,0.2-0.3,0.3l0,0c-1.1,0.8-1.4,2.3-1.8,3.5c-0.2,0.5,0.5,0.7,0.8,0.3c1.1-1.5,2.6-1.6,3.9-0.3
							c0.8,0.9,1.6,1.7,1.3,2.9c-0.1,0.5-0.1,1,0.1,1.4l0,0c0,0.1-0.1,0.1-0.2,0.2c-1.1,1.3-2.2,2.4-2.5,4.1c-0.1,0.6,0.6,1,1,0.6
							c0.7-0.6,1.3-1.2,1.9-1.7c0.6,2.2-0.5,4.8-1.7,6.6c-0.2,0.3-0.2,0.7,0,1c-0.2,0.3-0.4,0.6-0.5,1c-0.5,1-0.7,2-1.1,3.1
							c-0.4,0.9-0.9,1.7-0.9,2.7c0,0.3,0.4,0.6,0.7,0.4c0.5-0.4,0.8-0.8,1.1-1.3c0.6-0.9,1.3-1.6,2.2-2.2c0.7-0.5,1.4-0.8,2.1-1.1
							c-0.1,0.8-0.1,1.7-0.8,2.2c-0.3,0.2-0.4,0.5-0.5,0.8c-0.8,0.5-1.6,1.1-2.4,1.8c-0.5,0.4,0.1,1.1,0.7,0.9
							c2.4-1.1,5.7-1.6,8.7-1.1c-1.8,0.5-3.4,1.4-3.7,3.5c-0.1,0.7,0.6,1.6,1.3,1.8c0,0.4,0,0.8,0.1,1.2c-0.8-0.1-1.6-0.2-2.5-0.1
							c-0.8,0.1-1.2,1.4-0.2,1.6c0.9,0.2,2.2,0.6,2.7,1.4c0.2,0.3,0.1,0.9,0.1,1.2l0,0c-0.2,0-0.3,0-0.4,0c-1,0.1-1.3,0.4-2.2,0.9
							c-0.5,0.3-0.4,1.1,0.2,1.3c0.5,0.1,0.8,0.3,1.2,0.4c0.5,0.1,0.9,0,1.4,0.1l0,0c0.2,0.8,0.7,1.6,1.4,2
							c-0.1,0.3-0.2,0.6-0.4,0.9c-0.1,0-0.1,0-0.2,0.1c-1.7,0.4-3.1,1.8-3.7,3.5c-0.4,1.2,1.2,1.6,1.8,0.8c0.3-0.4,0.7-0.7,1.1-0.9
							c0.1,0.2,0.2,0.4,0.4,0.6c-0.6,0.8-1.1,1.6-1.5,2.4c-0.9,1.9-1.9,5.1-1.4,7.2c0.1,0.4,0.6,0.4,0.9,0.1
							c0.6-0.8,0.8-1.8,1.3-2.7c0.4-0.8,0.8-1.5,1.3-2.1c-0.9,2.2-1.5,4.6-2.2,6.6c-0.2,0.6,0.7,0.8,0.9,0.2c0.6-1.9,1.9-3.6,3.3-5
							c0.2-0.2,0.3-0.3,0.5-0.4c-0.1,0.3-0.1,0.6-0.1,0.9c-0.4,2-1.2,4.5-0.8,6.4c0.1,0.4,0.6,0.4,0.8,0.1c0.1-0.2,0.2-0.4,0.4-0.7
							c0,1,0.1,2,0.1,3c0.1,2.8-0.9,5.3-1.6,7.8l0,0c-1.9,2.3-2.8,5.3-1.1,7.7c0.3,0.4,0.7,0.3,0.9-0.1c0.8-2.1,1.6-4.3,3.4-5.7
							c1.2-0.9,2.9-1.1,3.9-0.5c-0.1,0-0.1,0.1-0.1,0.1c-2.8,2.7-1.9,6.7-2.7,10.2c-0.1,0.3,0.3,0.5,0.5,0.3
							c0.7-0.5,1.2-1.2,1.7-1.8c-0.3,0.9-0.4,1.8-0.5,2.8c-0.1,1.1,0,2.2-0.1,3.3c-0.1,0.5-0.2,1-0.3,1.5c-0.2,0.5-0.4,1.1-0.6,1.5
							c-0.3,0.9,1.1,1.5,1.5,0.6c0.2-0.4,0.6-1.4,1.2-1.4c0.4,0,0.7,0.7,1,1.1c0.2,0.4,0.5,0.8,0.7,1.2c-3.1,3.9-2.8,11.8-3.4,15.8
							c-0.1,0.5,0.6,0.7,0.8,0.2c0.7-1.6,1.4-3.2,2.1-4.7c0.1-0.2,0.2-0.4,0.5-0.6c0.4-0.3,0.4-0.2,0.8,0.1c0.3,0.2,0.7,0.6,0.9,0.9
							c0.4,0.7-0.1,0.8-0.7,1.3c-0.8,0.8-1.7,1.4-1.9,2.5v0.1c-2.6,3.9-3.8,8.7-4.6,13.3c-0.2,1.3,1.7,1.9,2,0.6
							c1-4.7,3.6-8.6,6.4-12.4c-2.9,4.7-4.2,10.5-0.3,15l0.1,0.1c-0.3,1-0.5,2.1-0.2,3.1c0.1,0.2,0.4,0.4,0.6,0.2
							c1.5-1,2.1-3,3.3-4.3c0.2-0.2,0.4-0.4,0.6-0.6c-0.8,1.7-1.3,3.5-1.7,5.3c-0.6,3.1-0.5,6.4-0.5,9.6c0,0.5-0.1,0.9,0,1.4v0.1
							l0,0v0.1c0,0.1,0.1,0.2,0.1,0.3v0.1l0,0v0.1v0.1l0,0c0,0,0,0.1,0.1,0.1c1,0.9,1.5-1,1.6-1.6c0.3-1.5,0.5-2.9,1.1-4.1
							c0,0.2,0,0.3,0,0.5c0,1,0.4,2.3,0.1,3.2c-0.2,0.5,0.6,1,1,0.6c0.5-0.6,1-1.1,1.3-1.6c0.6-0.5,1.4-0.7,2.2-0.8
							c0.9-0.2,1.8,0.1,2.6-0.1c0.2,0.8,0.4,1.7,0.7,2.6c0.5,1.3,1,2.8,2.2,3.3c0.1,0.3,0.3,0.6,0.4,1c0,0.2,0.2,0.3,0.4,0.3
							c2.1-0.6,3.3-2.1,4.1-4.2c0.2-0.7,0.3-1.3,0.4-2h0.1c0,1,0,2.1,0.1,3.1c0.2,2.2,0,4.8,1.3,6.7c0.4,0.6,1.6,0.8,1.9,0
							c0.6-1.3,0.6-2.6,0.5-4c0.3,0.1,0.6,0.2,0.9,0.1c0.4,1.4,0.8,2.7,1.3,4c1.5,3.5,3.5,6.8,5.2,10.2c0.4,0.9,1.7,0.4,1.7-0.5
							c0.2-4.5-3.1-8.4-4.6-12.5c-0.8-2.3-1.5-4.6-2.6-6.7l0,0l0.1,0.1c0.8,0.9,1.5,1.8,2.2,2.7c0.9,1.2,1.3,2.6,2.2,3.7
							c0.5,0.6,1.3-0.2,1-0.8c-0.9-2-1.2-4-2.3-5.7c1,0.8,1.9,1.7,2.7,3.1c1.3,2.2,2.4,4.4,4.4,6.1c0.6,0.5,1.8,0.2,1.6-0.7
							c0-0.2-0.1-0.4-0.1-0.6c0.4,0.5,0.9,1,1.3,1.6c1.4,1.7,2.3,4,4.1,5.4c0,0.2,0,0.4,0,0.5c0.1,1.3,2,1.3,2.1,0
							c0.1-1.9,1.6-3.1,2.4-4.7c0.5-1,0.8-2.1,1-3.2c0.1-0.8,0.2-1.5,0.1-2.3c0.7,1.3,1.4,2.5,2.4,3.7c0.5,0.6,1.5,0.1,1.5-0.6
							c-0.2-4-1.4-7.8-3.1-11.4c-0.5-1.2-1.1-2.3-2.1-3.2c-1.1-0.9-2.3-1.2-3.4-1.8c1-0.1,1.9-0.3,2.9-0.1c0.6,0.1,1.2,0.3,1.8,0.6
							c0.2,0.1,0.6,0.2,0.8,0.3c0.4,1.5,1.1,2.9,2.8,2.9c0.3,0,0.6-0.2,0.7-0.4c0.8-1.6-0.2-3.7-0.4-5.4c-0.2-1.5-0.4-2.9-0.7-4.4
							h0.1c0.2,0.6,0.3,1.3,0.5,1.9c0.3,1.2,2.2,0.9,2.2-0.3c0-1.2,0.1-2.5-0.2-3.7c0-0.2,0.1-0.4,0.1-0.5c0.7,0.1,1.6,0.1,2.9,0.1
							c2.6,1.4,4.8,4.7,5.6,7.9c0.3-0.6,0.5-1.2,0.5-1.9c0.9-2.8,0.1-5.9-1.1-8.7c-0.2-0.5-0.5-1-0.8-1.5l0,0
							c-0.5-0.7-0.8-1.4-0.9-2c-1.1-1.2-0.4-1.3,1.9-0.4c0.9,0.4,1.8,0.9,2.6,1.3c0.3,0.2,0.7,0.4,1,0.6c-0.3-0.9-0.9-1.7-1.6-2.5
							C1198.4,1189.9,1197.5,1189.4,1196.5,1189.1z M1119.1,980.6c-0.3,0.1-0.7,0.4-0.8,0.7v0.1c-0.1,0.2,0,0.6,0.2,0.8
							s0.4,0.6,0.6,1v0.4c-0.5-0.9-1-1.7-1.7-2.5c-0.3-0.3-0.9,0-0.9,0.4c0,1.3,0,2.7,0.3,4.1h-0.4v-5.2h2.6v0.2H1119.1z
							 M1146.6,1020.7c0.6-0.5,1.2-1.1,1.7-1.8c0.1,0,0.3,0,0.4,0c0.7-0.2,1.3-0.1,2,0c-0.5,0.1-1,0.2-1.4,0.4
							C1148.4,1019.6,1147.5,1020.1,1146.6,1020.7z M1155.4,1208.8c-0.4-0.1-1,0.1-1,0.7c0.1,1.4,0,2.8,0,4.1l0,0
							c-0.1-1.4-0.4-2.8-0.6-4.3c-0.1-0.8-1.2-0.6-1.1,0.1c0.3,1.1,0.1,2-0.2,2.8v-3.7h2.8L1155.4,1208.8L1155.4,1208.8z
							 M1156.4,1210.8C1156.4,1210.8,1156.4,1210.7,1156.4,1210.8v-0.6c0.1,0.2,0.1,0.4,0.2,0.6
							C1156.6,1210.7,1156.5,1210.7,1156.4,1210.8z M1186.2,1199.4L1186.2,1199.4c-0.3-1.1-0.5-2.3-0.6-3.4c-0.1-0.5-0.4-0.9-0.8-1
							h1.9C1185.9,1196,1185.9,1197.7,1186.2,1199.4z"/>
						<path fill="#6D440E" d="M1136.2,1217.4L1136.2,1217.4L1136.2,1217.4L1136.2,1217.4z"/>
					</g>
				</g>
				<path fill="#4F3615" d="M1105.2,988.1c0.5-0.2,0.6-0.5,1-0.9c0.4-0.5,0.9-0.9,1.4-1.3c0.9-0.7,2.2-1.2,2.5-2.4
					c0.1-0.4-0.1-1-0.6-1c-1.5-0.2-2.5,1-3.3,2.1c-0.4,0.5-0.8,1.1-1,1.7c-0.2,0.5-0.6,1.1-0.4,1.6
					C1104.8,988.1,1105,988.2,1105.2,988.1L1105.2,988.1z"/>
				<path fill="#4F3615" d="M1100.7,985.6c0.7-0.2,1.1-0.9,1.7-1.4s1.2-0.7,1.5-1.5c0.1-0.4-0.2-0.8-0.5-0.9c-0.9-0.2-1.6,0.4-2.3,1
					c-0.6,0.5-1.4,1.2-1.4,2C1099.7,985.3,1100.2,985.8,1100.7,985.6L1100.7,985.6z"/>
				<path fill="#4F3615" d="M1119.2,1003.7c1.3,0.7,3.2,1.2,4.5,0.1c0.3-0.3,0.2-0.9-0.3-1c-1.3-0.2-2.5,0.1-3.7-0.2
					C1119,1002.4,1118.6,1003.4,1119.2,1003.7L1119.2,1003.7z"/>
				<path fill="#4F3615" d="M1121.7,1023.5c0.6,0.6,1.2,1.3,2.1,1.6c0.8,0.3,1.9,0.2,2.1-0.8c0.1-0.3-0.1-0.7-0.3-0.8
					c-0.5-0.3-1.1-0.2-1.6-0.3c-0.6-0.2-1.1-0.6-1.7-0.8C1121.7,1022.1,1121.3,1023,1121.7,1023.5L1121.7,1023.5z"/>
				<path fill="#4F3615" d="M1136.2,1024.4c0.4,0.3,0.5,0.6,1,0.6c0.4,0.1,0.9,0.2,1.3,0.2c0.9,0,1-1.1,0.4-1.5
					c-0.4-0.3-0.9-0.3-1.4-0.2c-0.2,0-0.4,0-0.6,0.1s-0.4,0.3-0.6,0.3C1136.1,1023.8,1135.9,1024.2,1136.2,1024.4L1136.2,1024.4z"/>
				<path fill="#4F3615" d="M1128.2,1045.8c0.5,1.4,1.8,2.3,3,3c0.7,0.4,1.4,0.8,2,1.3s1.1,0.8,1.9,0.8c0.6,0,1.2-0.7,0.8-1.3
					c-0.7-1.1-2-1.8-3.1-2.4c-1.3-0.6-2.6-1.5-4-1.9C1128.5,1045.2,1128.1,1045.5,1128.2,1045.8L1128.2,1045.8z"/>
				<path fill="#4F3615" d="M1128.5,1052.5c0,0.4-0.1,0.8-0.2,1.2c0,0.5-0.1,0.9-0.1,1.4s0.3,0.9,0.8,0.9c0.4,0.1,1-0.2,1-0.7
					c0.1-0.6,0.1-1.2-0.1-1.8c-0.1-0.2-0.2-0.5-0.3-0.7c-0.1-0.2-0.3-0.3-0.4-0.5C1129.1,1051.9,1128.5,1052.1,1128.5,1052.5
					L1128.5,1052.5z"/>
				<path fill="#4F3615" d="M1160.2,1060.7c0.2,0.2,0.2,0.7,0.2,1c0.1,0.6,0.2,1.1,0.3,1.7c0.2,0.9,0.1,1.9,0.7,2.6
					c0.1,0.2,0.4,0.2,0.5,0.1c1.3-0.7,0.9-2.5,0.5-3.6c-0.3-1.1-0.6-2.5-1.7-2.9C1160.2,1059.3,1159.7,1060.3,1160.2,1060.7
					L1160.2,1060.7z"/>
				<path fill="#4F3615" d="M1122,1067.6c0,0.7,0.5,1.1,1,1.5c0.4,0.4,1.1,0.8,1.6,0.3s0-1.1-0.3-1.4c-0.5-0.5-0.9-1-1.6-1
					C1122.3,1067,1122,1067.3,1122,1067.6L1122,1067.6z"/>
				<path fill="#4F3615" d="M1135.3,1088.2c1.3-1,2.6-1.6,4.2-2.2c1.5-0.5,3.3-0.7,4.5-1.7c0.2-0.2,0.2-0.6-0.1-0.8
					c-3.2-1.7-8.9,0.4-9.3,4.3C1134.6,1088.1,1135,1088.4,1135.3,1088.2L1135.3,1088.2z"/>
				<path fill="#4F3615" d="M1136.1,1089.7c0.4,0.9,1.3,1.6,2.2,2c0.4,0.2,0.8,0.5,1.2,0.7c0.2,0.1,0.4,0.2,0.6,0.2s0.4,0,0.6,0.1
					c0.1,0.1,0.3,0,0.3-0.2c0-0.5,0.1-0.7-0.2-1.1c-0.3-0.4-0.7-0.6-1.1-0.9c-0.4-0.2-0.8-0.4-1.2-0.7c-0.5-0.3-0.9-0.8-1.5-1
					C1136.3,1088.5,1135.8,1089.1,1136.1,1089.7L1136.1,1089.7z"/>
				<path fill="#4F3615" d="M1155.9,1078c0.4,0,0.7,0,1-0.1c0.4-0.2,0.5-0.9,0.1-1.2c-0.3-0.3-0.6-0.3-0.9-0.4
					C1154.9,1075.9,1154.6,1077.9,1155.9,1078L1155.9,1078z"/>
				<path fill="#4F3615" d="M1135.4,1106.7c0.1,0.1,0.2,0.1,0.3,0.2c1.2,0.7,2.4-1.2,1.1-1.9c-0.1-0.1-0.2-0.1-0.3-0.2
					C1135.2,1104,1134.1,1106,1135.4,1106.7L1135.4,1106.7z"/>
				<g>
					<g>
						<path fill="#4F3615" d="M1156.5,1120.5C1156.6,1120.5,1156.6,1120.4,1156.5,1120.5C1156.4,1120.4,1156.4,1120.5,1156.5,1120.5
							L1156.5,1120.5z"/>
					</g>
				</g>
				<g>
					<g>
						<path fill="#4F3615" d="M1154.3,1116.4C1154.3,1116.4,1154.3,1116.3,1154.3,1116.4C1154.2,1116.3,1154.2,1116.4,1154.3,1116.4
							L1154.3,1116.4z"/>
					</g>
				</g>
				<path fill="#4F3615" d="M1154.5,1116.7c1.1,0.7,2.1,1.7,2.9,2.7c0.7,0.8,1.4,1.8,2.6,1.5c0.2-0.1,0.3-0.3,0.4-0.5
					c0.1-1.3-1.1-2.2-1.9-3c-1.1-1-2.1-1.2-3.6-1.6C1154.3,1115.8,1154.1,1116.5,1154.5,1116.7L1154.5,1116.7z"/>
				<path fill="#4F3615" d="M1154.9,1121.5c0.1,0.3,0.2,0.6,0.3,0.9c0.2,0.7,1,1.1,1.7,0.8c0.7-0.3,1-1.1,0.6-1.8
					c-0.2-0.3-0.3-0.5-0.5-0.8C1156.4,1119.5,1154.5,1120.2,1154.9,1121.5L1154.9,1121.5z"/>
				<path fill="#4F3615" d="M1166.2,1131.4c0.7,1,1.9,2.4,3.2,2.4c0.5,0,1.1-0.6,0.9-1.1c-0.3-0.7-0.8-0.9-1.4-1.3
					c-0.5-0.3-0.9-0.6-1.3-1C1166.9,1129.7,1165.6,1130.6,1166.2,1131.4L1166.2,1131.4z"/>
				<path fill="#4F3615" d="M1139.8,1136.3c1.9-1,3.8-1.4,5.9-1.4c1.5,0,3.4,0.9,4.8,0.3c0.5-0.2,0.8-0.7,0.5-1.3
					c-1-1.7-3.8-1.6-5.5-1.5c-2.3,0.2-4.6,1.2-6.5,2.6C1138.3,1135.6,1139,1136.8,1139.8,1136.3L1139.8,1136.3z"/>
				<path fill="#4F3615" d="M1140.1,1139.2c0.2,0.1,0.3,0.4,0.5,0.6s0.5,0.3,0.7,0.4c0.6,0.2,1.2,0.2,1.7-0.1
					c0.7-0.3,0.5-1.5-0.2-1.7c-0.5-0.1-0.9,0-1.4,0s-0.9,0.1-1.2,0.4c0.1,0,0.2-0.1,0.3-0.1c-0.1,0-0.2,0-0.2,0
					C1140,1138.5,1139.8,1139.1,1140.1,1139.2L1140.1,1139.2z"/>
				<path fill="#4F3615" d="M1148.9,1148.8c0.4,0.2,0.7,0.4,1.1,0.6c0.6,0.4,1.4,0.1,1.7-0.5c0.4-0.6,0.1-1.4-0.5-1.7
					c-0.3-0.2-0.7-0.4-1.1-0.6c-0.6-0.3-1.4-0.2-1.7,0.5C1148.2,1147.7,1148.3,1148.5,1148.9,1148.8L1148.9,1148.8z"/>
				<path fill="#4F3615" d="M1143.6,1149.2c1.5,0.9,3.1,1.8,4.6,2.8c1.3,0.9,2.5,2.4,4,2.8c0.4,0.1,0.7-0.3,0.5-0.7
					c-0.7-1.4-2.4-2.2-3.6-3.1c-1.5-1.1-3-2.2-4.7-3.2C1143.5,1147.3,1142.7,1148.7,1143.6,1149.2L1143.6,1149.2z"/>
				<path fill="#4F3615" d="M1166.5,1146.6c0.6,0.4,1.2,1,1.5,1.6c0.3,0.7,1.2,0.8,1.8,0.5c0.6-0.4,0.8-1.2,0.5-1.8
					c-0.3-0.5-0.7-0.9-1.2-1.2c-0.4-0.3-0.8-0.5-1.3-0.7s-1-0.2-1.4,0.3C1166.1,1145.6,1166,1146.3,1166.5,1146.6L1166.5,1146.6z"/>
				<path fill="#4F3615" d="M1169.6,1163.8c1.2,0.2,1.8,1.3,2.8,1.8c1,0.6,1.9-0.6,1.5-1.5c-0.3-0.7-1.1-1.1-1.8-1.4
					c-0.7-0.3-1.5-0.6-2.3-0.6C1168.8,1162.1,1168.6,1163.7,1169.6,1163.8L1169.6,1163.8z"/>
				<path fill="#4F3615" d="M1167.5,1166.5c0.4,0.9,1.5,1.3,2.4,0.9c0.4-0.2,0.6-0.9,0.3-1.3c-0.5-0.8-1.4-1-2.3-0.8
					C1167.4,1165.4,1167.3,1166.1,1167.5,1166.5L1167.5,1166.5z"/>
				<path fill="#4F3615" d="M1158.1,1172.9c0.2,0.2,0.2,0.5,0.4,0.8c0.2,0.3,0.5,0.5,0.8,0.8c0.6,0.5,1.1,0.9,1.8,1.2
					c0.7,0.4,1.6-0.6,0.9-1.2c-0.5-0.5-1.1-0.9-1.7-1.3c-0.3-0.2-0.5-0.4-0.8-0.6s-0.6-0.2-0.9-0.3
					C1158.1,1171.9,1157.8,1172.5,1158.1,1172.9L1158.1,1172.9z"/>
				<path fill="#4F3615" d="M1170,1177.7c-0.1,0.4-0.1,0.8-0.2,1.1c-0.1,0.4,0.1,0.6,0.3,0.8c0,0,0,0,0.1,0.1c0.2,0.1,0.4,0.1,0.6,0
					c0,0,0.1,0,0.1-0.1c0.2-0.1,0.4-0.4,0.4-0.6c0-0.4,0-0.8-0.1-1.2C1171.2,1177.2,1170.1,1177,1170,1177.7L1170,1177.7z"/>
				<path fill="#4F3615" d="M1172.9,1176.2c-0.2,1.1,0.3,1.8,0.6,2.8c0.3,0.9,0.5,1.7,1.3,2.3c0.1,0.1,0.3,0.1,0.5-0.1
					c0.8-0.9,0.6-1.9,0.2-2.9c-0.4-1.1-0.8-2.1-1.9-2.5C1173.3,1175.7,1172.9,1175.9,1172.9,1176.2L1172.9,1176.2z"/>
				<path fill="#4F3615" d="M1144.5,1176.3c0.1,0.7-0.3,1.4,0.3,1.9c0.3,0.2,0.8,0.3,1-0.1c0.3-0.8-0.2-1.2-0.4-1.9
					C1145.2,1175.7,1144.4,1175.8,1144.5,1176.3L1144.5,1176.3z"/>
				<path fill="#4F3615" d="M1142.6,1177.9c-0.2,0.8-0.1,1.6,0.3,2.3c0.8,1.2,2.6-0.2,1.6-1.2c-0.4-0.4-0.8-0.8-1.1-1.2
					C1143.2,1177.5,1142.7,1177.5,1142.6,1177.9L1142.6,1177.9z"/>
				<path fill="#4F3615" d="M1146,1174.2c0.6,0.3,0.8,1.3,1,1.9s0.2,1.4,0.8,1.7c0.2,0.1,0.5,0.1,0.7-0.1c0.6-0.7,0.1-1.8-0.2-2.5
					c-0.3-0.7-0.9-1.7-1.7-2C1145.9,1172.9,1145.3,1173.8,1146,1174.2L1146,1174.2z"/>
				<path fill="#4F3615" d="M1187.1,1189.9c0.4,0.2,0.8,0.4,1.2,0.6c0.6,0.3,1.4,0.2,1.7-0.4c0.3-0.5,0.2-1.4-0.4-1.7
					c-0.4-0.2-0.8-0.4-1.3-0.6c-0.6-0.3-1.3-0.2-1.7,0.4C1186.3,1188.8,1186.5,1189.6,1187.1,1189.9L1187.1,1189.9z"/>
				<path fill="#4F3615" d="M1180.5,1197.9c0.2,0.5,0.2,0.9,0.3,1.4c0.1,0.6,0.2,1.2,0.8,1.5c0.4,0.2,0.9,0.2,1.3-0.2
					c0,0,0-0.1,0.1-0.1c0.3-0.3,0.4-0.7,0.3-1.2c-0.1-0.4-0.3-1-0.6-1.4c-0.3-0.3-0.5-0.6-0.7-0.9
					C1181.3,1196.3,1180.1,1196.9,1180.5,1197.9L1180.5,1197.9z"/>
				<path fill="#4F3615" d="M1162.1,1197.8c0.9,1.9,1.6,3.9,2.1,5.9c0.2,0.8,1.6,0.7,1.6-0.2c0-0.1,0-0.2,0-0.2c0-0.5-0.5-0.9-1-0.6
					c-0.1,0-0.1,0.1-0.2,0.1c0.4,0.2,0.8,0.3,1.2,0.5c-0.4-2.2-1.8-4-3-5.9C1162.6,1197,1161.9,1197.4,1162.1,1197.8L1162.1,1197.8z
					"/>
				<path fill="#4F3615" d="M1158,1200.2c0,0.2,0,0.3,0,0.5C1158,1200.6,1158.1,1200.5,1158,1200.2c-0.3,0.8-0.1,1.6,0.3,2.3
					c0.6,1.3,2.6,0.2,1.9-1.1c-0.2-0.3-0.3-0.6-0.6-0.9c-0.1-0.2-0.3-0.3-0.5-0.4c0.2,0.2-0.1-0.2-0.1-0.2
					C1158.9,1199.3,1158.1,1199.6,1158,1200.2L1158,1200.2z"/>
				<path fill="#4F3615" d="M1174.3,1213.7c-0.2,1,0.3,1.9,0.6,2.8c0.3,0.8,0.6,1.9,1.4,2.4c0.8,0.4,1.6-0.4,1.2-1.2
					c-0.3-0.8-0.8-1.5-1.2-2.3c-0.4-0.7-0.7-1.5-1.4-1.9C1174.7,1213.3,1174.4,1213.4,1174.3,1213.7L1174.3,1213.7z"/>
				<path fill="#6D440E" d="M1169.3,1226.1c0,0.7,0.3,1.3,0.3,2c0.1,0.8,0.1,1.4,0.6,2c0.4,0.5,1.3,0.4,1.6-0.2
					c0.4-0.8,0.1-1.6-0.2-2.3c-0.3-0.7-0.6-1.4-1.1-1.9C1170.2,1225.1,1169.3,1225.4,1169.3,1226.1L1169.3,1226.1z"/>
				<path fill="#6D440E" d="M1183.9,1228.8c0.1,0.1,0.3,0.2,0.4,0.3c0.1,0,0.1,0,0.1,0.2v0.1c0.1,0.3,0.2,0.6,0.3,0.9
					c0.2,0.3,0.3,0.7,0.7,0.9c0.4,0.2,0.9,0.2,1.2-0.2c0.6-0.7,0-1.6-0.6-2c-0.2-0.2-0.6-0.4-0.8-0.5c-0.3-0.1-0.5-0.3-0.7-0.4
					C1184,1227.9,1183.5,1228.5,1183.9,1228.8L1183.9,1228.8z"/>
				<path fill="#6D440E" d="M1189.6,1216.9c0.2,1.1,0.7,2.1,1.1,3c0.5,0.9,0.9,1.9,1.3,2.8c0.3,0.7,1.6,0.6,1.7-0.2
					c0.2-1.2-0.5-2.2-1.1-3.2c-0.7-1-1.5-2.1-2.4-2.9C1189.9,1216.2,1189.6,1216.6,1189.6,1216.9L1189.6,1216.9z"/>
				<g>
					<g>
						<path fill="#6D440E" d="M1130.2,1205.1C1130.3,1205.1,1130.3,1205,1130.2,1205.1C1130.2,1205,1130.2,1205.1,1130.2,1205.1
							L1130.2,1205.1z"/>
					</g>
				</g>
				<path fill="#6D440E" d="M1130.7,1204.8L1130.7,1204.8c-0.1,0.2-0.2,0.4-0.3,0.6c0,0,0,0,0.1,0c-0.2-0.1-0.3-0.2-0.5-0.3v0.1
					c0.1-0.2,0.1-0.3,0.2-0.5c-0.7,0.3-1,1-1.3,1.6c-0.4,0.7-0.8,1.4-1.3,2c-0.8,0.7,0.4,1.9,1.2,1.2c0.7-0.7,1.1-1.6,1.6-2.5
					C1130.7,1206.3,1131.2,1205.5,1130.7,1204.8c-0.1-0.3-0.4-0.4-0.5-0.2c0,0,0,0-0.1,0c-0.2,0.2-0.3,0.4-0.1,0.7l0,0
					C1130.4,1205.7,1130.9,1205.2,1130.7,1204.8L1130.7,1204.8z"/>
				<path fill="#6D440E" d="M1124.4,1182.8c-0.9,0.9-1.9,2.3-1.8,3.6c0.1,0.5,0.3,0.8,0.8,0.9c0.4,0.1,0.9-0.2,1-0.7s0.2-1,0.4-1.5
					c0.3-0.5,0.5-0.9,0.8-1.4C1126.2,1183,1125.1,1182.1,1124.4,1182.8L1124.4,1182.8z"/>
				<path fill="#6D440E" d="M1127,1171.5c0,0.1,0,0.1,0,0.2c0-0.1,0-0.3,0.1-0.4c-0.3,0.5-0.6,1-0.4,1.5c0.1,0.4,0.6,0.5,1,0.3
					c0.4-0.4,0.5-1,0.5-1.5c-0.1,0.1-0.1,0.3-0.2,0.4l0.1-0.1c0.3-0.3,0.2-0.9-0.3-1.1C1127.3,1170.6,1126.9,1171.1,1127,1171.5
					L1127,1171.5z"/>
				<path fill="#6D440E" d="M1122.8,1160.5c-0.2,0.2-0.4,0.2-0.6,0.4c-0.2,0.2-0.3,0.4-0.4,0.6c-0.2,0.5-0.3,1.1,0.1,1.5
					c0.2,0.2,0.5,0.2,0.8,0.1c0.8-0.3,0.6-1.6,0.9-2.2C1123.8,1160.5,1123.2,1160.3,1122.8,1160.5L1122.8,1160.5z"/>
				<path fill="#6D440E" d="M1123.4,1168.6c0,0.9-0.4,1.9-0.4,2.8s0.2,1.8,0.5,2.7c0.1,0.3,0.4,0.5,0.8,0.5c0.1,0,0.1,0,0.2-0.1
					c0.2-0.1,0.4-0.5,0.3-0.7c-0.3-0.9-0.6-1.9-0.6-2.9c0-0.8,0.2-1.5,0-2.3C1124.1,1168.1,1123.4,1168.1,1123.4,1168.6
					L1123.4,1168.6z"/>
			</g>
		</g>
		<g>
			<path fill="none" d="M1034.3,1185.9c-0.1,0.1-0.2,0.2-0.3,0.5C1034.1,1186.1,1034.2,1186,1034.3,1185.9z"/>
			<path fill="none" d="M1054.9,1098.6c-0.5,2.3-2.4,3.7-4.1,5.3c-2.2,2.2-4.2,4.5-6.1,6.9c-1.4,1.7-2.7,3.5-3.9,5.3
				c-0.1-4.9-0.2-9.9-0.2-14.8c0-0.6,0-1.1,0-1.7c0.4-3.8,0.9-7.7,1.9-11.4c0.5-2,1.7-4.5,2.5-7c1.5,1.2,3,2.3,4,3.5
				C1051.8,1088,1055.8,1094.2,1054.9,1098.6z"/>
			<path opacity="0.3" fill="#091426" enable-background="new    " d="M1024.2,1227.7c0.1,0.1,0.1,0.1,0.2,0.2l0,0
				C1024.4,1227.8,1024.3,1227.8,1024.2,1227.7z"/>
		</g>
		<path opacity="0.3" fill="#091426" enable-background="new    " d="M989.6,1034c-0.2-0.1-0.3-0.1-0.5-0.2l0,0l0.1-0.1L989.6,1034z
			"/>
	</g>
	<g>
		<g>
			<path fill="#B19229" d="M1027.8,1019.5c-3.2,1.1-4.4,4.2-5.3,3.2c-1-0.9-2.3-2-3.3-4.4s-1.6-5.6-0.8-6.3c0.8-0.8,2.9-2.1,6.5-4
				c0,0,0.6-3.7,0.2-9.9c0-0.2,0-0.3-0.1-0.5c-1.6,2.8-3.9,6.2-6.8,7.6c-5.5,2.8-11.2,0.1-14.4-2.9c-2.6-2.3-4.6-6.9-3.8-12.3
				c-0.7,0.8-1.3,1.8-1.8,2.9c-4.3,8.6-1.5,15.8,3.7,20s13.2,1.8,13.5,1.8s0.9,3.7,1.5,6.2s2.6,3.8,2.6,3.8c1.6,1.4,7.7,0.7,7.7,0.7
				s3.9-3.6,5-5.8c0.4-0.8,0.7-1.4,1-2C1031.1,1018.4,1029.1,1019.1,1027.8,1019.5z"/>
			<path fill="#F9C92B" d="M1003.8,1002.3c3.2,3,8.9,5.6,14.4,2.9c2.9-1.5,5.2-4.8,6.8-7.6c-0.6-6-4.2-10.3-9.2-12
				c-4.5-1.5-11.3-1.3-15.8,4.5C999.1,995.5,1001.2,1000,1003.8,1002.3z M1019.3,997.6c0.2-0.7,0.3-1.5,0.4-2.2
				c0.2-1.3,2.4-0.8,2.1,0.6c-0.3,1.4-1.4,3.6-2.9,4.1c-0.3,0.1-0.5-0.2-0.4-0.4C1018.6,998.9,1019.1,998.3,1019.3,997.6z
				 M1008,987.8c2.6-2.5,8.4-0.4,9.5,2.9c0.3,1.1-0.9,1.6-1.7,1.1c-0.2,1.6-1,3.2-1.3,4.8c-0.5,2-0.9,4.6-3,5.5
				c-0.6,0.3-1.6,0.1-1.7-0.7c-0.4-2,0.7-3.6,1.6-5.3c1-1.9,1.1-4.4,2.2-6.2c-0.3-0.2-0.7-0.5-1.2-0.6c-1.4-0.5-2.8-0.4-4.2-0.9
				C1007.9,988.4,1007.8,988,1008,987.8z"/>
			<path fill="#F9C92B" d="M1019.2,1018.3c1,2.5,2.4,3.5,3.3,4.4c1,0.9,2.1-2.1,5.3-3.2c1.2-0.4,3.2-1.1,5.3-1.8
				c0.5-1,1-1.7,1.3-2.5c0.5-1.2-5.7-6.2-6.8-6.8c-1.2-0.6-2.8-0.5-2.8-0.5c-3.6,1.9-5.7,3.2-6.5,4
				C1017.5,1012.8,1018.2,1015.9,1019.2,1018.3z M1022.8,1011c1.6-1,3.3-0.5,4.9,0.4c1.7,1-0.5,3.4-1.7,1.7c-0.6-0.9-2-1.2-3-1.2
				C1022.5,1011.8,1022.3,1011.2,1022.8,1011z"/>
			<path fill="#FFFFFF" d="M1008.2,988.5c1.3,0.5,2.8,0.4,4.2,0.9c0.5,0.2,0.8,0.4,1.2,0.6c0-0.1,0.1-0.1,0.1-0.2
				c0.5-0.7,1.9-0.8,2.1,0.3c0.1,0.6,0.1,1.2,0,1.8c0.8,0.5,2-0.1,1.7-1.1c-1-3.2-6.9-5.3-9.5-2.9
				C1007.8,988,1007.9,988.4,1008.2,988.5z"/>
			<path fill="#FFFFFF" d="M1015.8,990c-0.2-1.1-1.6-1-2.1-0.3c0,0.1-0.1,0.1-0.1,0.2c-1.1,1.7-1.2,4.3-2.2,6.2
				c-0.9,1.7-2,3.4-1.6,5.3c0.2,0.8,1.1,1,1.7,0.7c2-1,2.5-3.5,3-5.5c0.4-1.5,1.1-3.2,1.3-4.8C1015.9,991.2,1015.9,990.6,1015.8,990
				z"/>
			<path fill="#FFFFFF" d="M1018.9,1000c1.5-0.5,2.6-2.6,2.9-4.1c0.3-1.4-1.9-1.9-2.1-0.6c-0.1,0.7-0.2,1.5-0.4,2.2s-0.7,1.3-0.8,2
				C1018.4,999.9,1018.6,1000.1,1018.9,1000z"/>
			<path fill="#FFFFFF" d="M1023,1011.9c1,0.1,2.4,0.4,3,1.2c1.2,1.7,3.3-0.7,1.7-1.7c-1.5-0.9-3.3-1.4-4.9-0.4
				C1022.3,1011.2,1022.5,1011.8,1023,1011.9z"/>
		</g>
		<path fill="#B19229" d="M1026,1023.4c1.6,5.7,7.3,11.8,7.3,11.8s1.4,4,3.4,6.1c0,0-0.7,5,10.9,13c0,0,0.7,6.3,7.3,11.6
			c0,0,1.5,6.2,8.2,6.3s2.9-6.5,0.5-9.8s-3.5-5-5.2-5.6c0,0-1.3-7.5-6.8-11.5c0,0,0.1-5.9-7.8-10.7c0,0-1.9-11.8-12.7-14.9
			L1026,1023.4z"/>
		<g>
			<path fill="#F9C92B" d="M1027.1,1022.6c3.5,6.7,6.8,10.3,16.1,9.5c-1.2-3.6-4.4-10.2-12-12.4L1027.1,1022.6z M1035,1026.6
				c1.1-0.2,1.9,0.2,2.9,0.6c0.4,0.1,0.5,0.4,0.5,0.8c0,0.2-0.1,0.3-0.3,0.4c-0.2,0.1-0.6,0.1-0.8-0.1c-0.6-0.7-1.3-1-2.2-1.1
				C1034.7,1027.2,1034.6,1026.6,1035,1026.6z"/>
			<path fill="#F9C92B" d="M1051.2,1042.9c-0.7-2.2-2.6-5.4-7.3-8.3c-4.8,0.8-8.4,0.5-8.4,0.5s5.1,5.9,8,7.6
				C1046,1044.3,1046.4,1042.4,1051.2,1042.9z M1043.3,1039.5c0.6,0,1.2-0.1,1.9,0c0.5,0.1,1,0.3,1.5,0.5c0.1,0,0.2,0.1,0.3,0.1l0,0
				l0,0c0.1,0,0.1,0.1,0.2,0.1c0.6,0.8-0.1,1.9-1.1,1.4c-0.5-0.2-1-0.4-1.4-0.7c-0.5-0.3-0.9-0.7-1.4-0.9
				C1042.9,1040,1042.9,1039.5,1043.3,1039.5z"/>
			<path fill="#F9C92B" d="M1051.7,1045.3L1051.7,1045.3c-3.7,1-7.3,1.4-8.3,1.5l0,0c0,0,1.7,2.4,3.6,4.3c1.7,1.7,4.4,0.6,10.5,2.5
				C1056.6,1051.1,1054.8,1047.6,1051.7,1045.3z M1053.9,1051.7c-0.8,0.1-1.4-0.1-1.9-0.7c-0.4-0.4-1-1-0.8-1.6
				c0.1-0.4,0.6-0.4,0.9-0.3c0.1,0,0.2-0.1,0.3-0.1c0.9,0.1,1.6,0.5,2,1.3C1054.8,1050.7,1054.6,1051.5,1053.9,1051.7z"/>
			<path fill="#F9C92B" d="M1043.3,1046.8C1043,1046.8,1043,1046.8,1043.3,1046.8L1043.3,1046.8z"/>
			<path fill="#F9C92B" d="M1058.4,1056.8c-2.7,0.1-7-0.9-7-0.9s0.6,2.3,2.3,4.2c1.3,1.5,6.5,1.1,8.9,0.8
				C1060.9,1058.6,1059.9,1057.3,1058.4,1056.8z M1057.6,1060.4c-0.3-0.1-0.5-0.2-0.8-0.3c-0.5-0.2-0.4-1,0.1-0.9c0.3,0,0.1,0,0.3,0
				l0,0c0.2-0.2,0.6-0.3,0.9-0.2h0.1C1059,1059.4,1058.4,1060.6,1057.6,1060.4z"/>
			<path fill="#F9C92B" d="M1056.5,1065.5v0.2c0,0,1,2.5,1.3,2.9s1.3-0.1,2.5-1.4s1.3-2.8,1.3-2.8S1058.5,1065.7,1056.5,1065.5z"/>
			<path fill="#FFFFFF" d="M1035.1,1027.2c0.9,0,1.6,0.4,2.2,1.1c0.2,0.2,0.6,0.2,0.8,0.1c0.2-0.1,0.3-0.2,0.3-0.4
				c0.1-0.4-0.1-0.7-0.5-0.8c-1-0.4-1.9-0.8-2.9-0.6C1034.6,1026.6,1034.7,1027.2,1035.1,1027.2z"/>
			<path fill="#FFFFFF" d="M1046.1,1041.7c1,0.5,1.7-0.6,1.1-1.4c0-0.1-0.1-0.1-0.2-0.1l0,0l0,0c-0.1-0.1-0.2-0.1-0.3-0.1
				c-0.5-0.2-1-0.4-1.5-0.5c-0.6-0.1-1.2,0.1-1.9,0c-0.4,0-0.4,0.5-0.1,0.6c0.5,0.2,0.9,0.6,1.4,0.9
				C1045.1,1041.2,1045.6,1041.4,1046.1,1041.7z"/>
			<path fill="#FFFFFF" d="M1054.5,1050.2c-0.4-0.8-1.1-1.2-2-1.3c-0.1,0-0.2,0-0.3,0.1c-0.4-0.1-0.8-0.1-0.9,0.3
				c-0.2,0.6,0.4,1.2,0.8,1.6c0.5,0.5,1.2,0.8,1.9,0.7C1054.6,1051.5,1054.8,1050.7,1054.5,1050.2z"/>
			<path fill="#FFFFFF" d="M1058.2,1059C1058.2,1059,1058.1,1059,1058.2,1059c-0.4-0.2-0.8-0.1-1,0.1l0,0c-0.2,0.1,0,0-0.3,0
				c-0.5,0-0.6,0.8-0.1,0.9c0.3,0.1,0.5,0.2,0.8,0.3C1058.4,1060.6,1059,1059.4,1058.2,1059z"/>
		</g>
		<path fill="#B19229" d="M1083.8,1018.7c-4.1-0.9-4.5-1.3-5.2-1.6c-0.6-0.3-1.7-1.6,1.7-14.5c0,0-4.9-2.4-8-6.8s-3.3-13.1,0.4-19.2
			c3.8-6,17.3-7.9,22.8-2.1c5.5,5.8,7.1,11.2,3.9,17.4s-7.6,8-7.6,8s0.7,10.1,0.6,11.7c-0.1,1.5-1,3.9-3.8,5
			S1083.8,1018.7,1083.8,1018.7z"/>
		<g>
			<path fill="#F9C92B" d="M1095.6,974.6c-3.9-4.2-12.1-4.4-17.8-1.9c-1.1,1.4-1.9,3-2.3,4.4c-1.2,3.7-1.3,7.4,1.8,11.9
				c3.2,4.5,9.2,5.5,15.6,2.3c5.8-2.9,7.4-5.3,7.7-8.8C1099.8,979.8,1098.1,977.3,1095.6,974.6z M1090.1,982.8
				c-0.8,1.7-1.7,5-4.1,4.4l0,0c-0.4,0.3-1-0.2-0.9-0.7c0-0.1,0.1-0.3,0.1-0.4c0-0.1,0.1-0.3,0.1-0.4c0.9-2.7,2.3-5.2,2.9-7.9
				c0.1-0.4,0.1-0.7,0.3-1c-0.6-0.4-1.3-0.7-2.2-0.9c-1.6-0.4-3.6-0.8-5.2-0.9c-0.4,0-0.5-0.6-0.1-0.7c1.4-0.2,2.1-0.5,3.5-0.4
				c0.9,0.1,1.8,0.2,2.6,0.5c1.8,0.5,3.9,1.3,5.4,2.5c0.9,0.7,0.1,2.1-0.9,2.2C1091.3,980.4,1090.5,981.9,1090.1,982.8z
				 M1094.7,984.6c-0.2,0.5-0.6,0.6-0.9,1c-0.4,0.4-0.7,0.7-1.2,1c-0.3,0.2-0.7-0.3-0.4-0.5c0.3-0.3,0.7-0.6,0.9-1
				c0.3-0.3,0.2-0.8,0.6-1.1c0.1-0.1,0.4-0.2,0.6-0.1c0.1,0,0.2,0.1,0.3,0.1C1094.7,984.1,1094.7,984.4,1094.7,984.6z M1095.9,982.9
				c-0.4,0.4-1.2,0.5-1.5-0.1c-0.2-0.3,0.2-0.8,0.4-1C1095.5,981.1,1096.6,982.2,1095.9,982.9z"/>
			<path fill="#F9C92B" d="M1082.3,1002.9l-1.2,10c0,0,6.6-0.1,10.3,1.7c0.7-1,1-2.1,1.1-2.9c0.1-1-0.2-5.7-0.4-8.9
				C1089.8,1003,1086.6,1003.1,1082.3,1002.9z M1089.1,1007.2c0.3,1.1-1.4,1.9-1.9,0.8c-0.2-0.3-0.3-0.6-0.5-0.9
				c-0.2-0.2-0.5-0.4-0.8-0.6c-0.5-0.3-0.5-1.2,0.2-1.3C1087.3,1005,1088.7,1006,1089.1,1007.2z"/>
			<path fill="#FFFFFF" d="M1086,1005.3c-0.7,0.1-0.6,1-0.2,1.3c0.3,0.2,0.6,0.3,0.8,0.6c0.2,0.3,0.3,0.6,0.5,0.9
				c0.5,1.1,2.3,0.3,1.9-0.8C1088.7,1006,1087.3,1005,1086,1005.3z"/>
			<path fill="#FFFFFF" d="M1092.5,976.9c-1.5-1.2-3.5-2-5.4-2.5c-0.9-0.2-1.7-0.4-2.6-0.5c-1.4-0.2-2.1,0.1-3.5,0.4
				c-0.4,0.1-0.3,0.6,0.1,0.7c1.6,0.1,3.7,0.5,5.2,0.9c0.9,0.2,1.6,0.5,2.2,0.9c-0.1,0.3-0.2,0.7-0.3,1c-0.6,2.8-2.1,5.2-2.9,7.9
				c-0.1,0.1-0.1,0.3-0.1,0.4c0,0.1-0.1,0.3-0.1,0.4c-0.1,0.5,0.5,0.9,0.9,0.7l0,0c2.5,0.6,3.4-2.7,4.1-4.4c0.4-0.9,1.2-2.4,1.5-3.8
				C1092.5,978.9,1093.4,977.6,1092.5,976.9z"/>
			<path fill="#FFFFFF" d="M1094.3,983.9c-0.2-0.1-0.4,0-0.6,0.1c-0.3,0.3-0.3,0.7-0.6,1.1c-0.3,0.4-0.6,0.7-0.9,1
				c-0.3,0.2,0.1,0.7,0.4,0.5c0.4-0.3,0.8-0.6,1.2-1c0.3-0.4,0.8-0.5,0.9-1c0.1-0.2,0-0.4-0.1-0.6
				C1094.4,983.9,1094.4,983.9,1094.3,983.9z"/>
			<path fill="#FFFFFF" d="M1094.8,981.8c-0.2,0.2-0.6,0.7-0.4,1c0.3,0.6,1.1,0.5,1.5,0.1C1096.6,982.2,1095.5,981.1,1094.8,981.8z"
				/>
		</g>
		<path fill="#B19229" d="M1073.2,1064.2c0.6-5.9,0.7-8.5,1.6-11.3s2.5-5.2,2.5-5.2s-0.7-7,0-10.6s2.1-5.2,2.1-5.2s-0.7-5.8,0-9.4
			s2.1-6.6,3.6-7.2s5.1,0,5,3.5s-0.1,5.2-0.1,5.2s1.2-1.1,0.9,7.5c-0.3,8.6-3.2,12.5-3.2,12.5s0.5,3.3,0,7.1s-3.6,7.6-3.6,7.6
			s0.8,4.1-0.7,8.2c-1.5,4.2-3.5,6.2-3.5,6.2L1073.2,1064.2z"/>
		<g>
			<path fill="#F9C92B" d="M1079.6,1067.1c0.3,0.5,0.7,0.7,1.2,0.7c0.1-0.3,0.3-0.6,0.4-1c1.5-4.2,0.7-8.2,0.7-8.2
				c-3.8,1.6-6.7,2.4-6.7,2.4S1078.3,1065,1079.6,1067.1z M1079.3,1061.4c0.5-0.2,0.7-0.3,1.1-0.1c0.3,0.1,0.4,0.5,0.2,0.8
				c-0.3,0.4-0.5,0.4-1,0.5C1078.9,1062.7,1078.6,1061.7,1079.3,1061.4z"/>
			<path fill="#F9C92B" d="M1077.3,1047.7c0,0-1.5,2.2-2.4,4.9c0,1.9,0.5,1.9,0.9,1.8c0.6-0.2,2.7,0.5,6.6-2.3
				c1.2-0.8,2.3-1.7,3.2-2.5c0.2-3.1-0.2-5.5-0.2-5.5s-2,2-4.3,3.1S1077.3,1047.7,1077.3,1047.7z M1081.7,1048.3
				c0.4-0.5,1-0.8,1.4-1.3s1.1-0.4,1.5,0s0.4,1.1,0,1.5c-0.7,0.6-1.5,1.2-2.4,1C1081.7,1049.5,1081.4,1048.7,1081.7,1048.3z"/>
			<path fill="#F9C92B" d="M1087.9,1023.9L1087.9,1023.9c-0.1,0,0,2.6-2.8,4.5s-5.7,3.5-5.7,3.5s-1.4,1.6-2.1,5.2
				c-0.2,1.3-0.3,2.9-0.3,4.6c3.9-1.9,6-2.7,7.6-4.7c0.9-1.1,2.5-3.3,4.1-5.5v-0.1C1089,1024.1,1088.2,1023.8,1087.9,1023.9z
				 M1087.3,1030.4c-0.3,0.7-0.5,1.4-0.9,2s-0.8,1.3-1.4,1.8c-0.5,0.5-1.2,0.6-1.7,1.2c-0.2,0.3-0.7-0.1-0.5-0.4
				c0.5-0.7,0.4-1.4,0.7-2.2c0.3-0.7,0.6-1.4,1-2s1-1.1,1.5-1.5c0.3-0.2,0.8-0.4,1.2-0.1C1087.5,1029.5,1087.4,1030,1087.3,1030.4z"
				/>
			<path fill="#F9C92B" d="M1088,1020.1c0-0.4,0-0.9,0-1.4c0.1-3.5-3.5-4.1-5-3.5s-2.9,3.6-3.6,7.2c-0.3,1.5-0.3,3.4-0.3,5.2
				c0.8-0.3,2-1,3.6-2.5C1084.6,1023.4,1086.4,1021.7,1088,1020.1z M1083.3,1019c0.1-0.2,0.2-0.3,0.3-0.4c0-0.5,0.3-1,0.6-1.4
				c0.5-0.6,1.6-0.4,2,0.3s0,1.6-0.8,1.9c-0.3,0.1-0.5,0.2-0.8,0.2c-0.1,0.1-0.2,0.2-0.3,0.3
				C1083.8,1020.4,1082.9,1019.6,1083.3,1019z"/>
			<path fill="#FFFFFF" d="M1079.7,1062.6c0.5-0.1,0.7-0.1,1-0.5c0.2-0.2,0.1-0.6-0.2-0.8c-0.5-0.2-0.7-0.1-1.1,0.1
				C1078.6,1061.7,1078.9,1062.7,1079.7,1062.6z"/>
			<path fill="#FFFFFF" d="M1082.2,1049.6c0.9,0.1,1.7-0.5,2.4-1c0.4-0.4,0.4-1.1,0-1.5s-1.2-0.5-1.5,0c-0.4,0.5-1,0.8-1.4,1.3
				C1081.4,1048.7,1081.7,1049.5,1082.2,1049.6z"/>
			<path fill="#FFFFFF" d="M1085.9,1029.4c-0.5,0.4-1.1,1-1.5,1.5c-0.4,0.6-0.8,1.3-1,2c-0.3,0.8-0.2,1.5-0.7,2.2
				c-0.2,0.3,0.3,0.6,0.5,0.4c0.5-0.6,1.2-0.7,1.7-1.2s1-1.2,1.4-1.8c0.4-0.6,0.7-1.3,0.9-2c0.1-0.4,0.2-0.9-0.2-1.1
				C1086.7,1029,1086.3,1029.1,1085.9,1029.4z"/>
			<path fill="#FFFFFF" d="M1084.3,1019.8c0.1-0.1,0.2-0.2,0.3-0.3c0.3,0,0.5-0.1,0.8-0.2c0.8-0.3,1.2-1.1,0.8-1.9
				c-0.4-0.7-1.5-0.9-2-0.3c-0.3,0.4-0.7,0.8-0.6,1.4c-0.1,0.1-0.2,0.3-0.3,0.4C1082.9,1019.6,1083.8,1020.4,1084.3,1019.8z"/>
		</g>
		<g>
			<path fill="#B19229" d="M1097.7,1127.9c-3.8,4.3-12.3,12.8-22.1,14.8c-13.3,2.6-21.8,0-21.8,0s0.7-1.4,1.7-3.4
				c-0.4,0.1-0.7,0.2-1.1,0.4c-0.4,0.1-0.7-0.4-0.4-0.7c0.4-0.4,0.7-0.7,1.1-0.9c-0.1,0-0.2,0-0.3-0.1c-0.4-0.1-0.4-0.7,0-0.8
				c0.6-0.2,1.3-0.4,2-0.5c2.9-6,7.2-14.9,8.2-18c1.6-5,1.7-14.1,0.9-14.6c-0.8-0.5-1.5-1.8,0-2.1c1.2-0.2,6.2-1.4,12.5-0.5
				c-1.2-2.6-2.2-3.3-3.7-3.6c-1.9-0.3-8.7,1-10,1.6c-1.4,0.6-0.6,6-3.4,15s-4.8,18.1-7.7,24.2c-2.9,6.1-8.8,12-8.8,12
				s8.2,4.6,17.4,4.8c9.2,0.1,14.2-3.5,23.7-7.3c9.6-3.8,15.1-12,17.5-17.4C1103.2,1130.8,1101.2,1130.3,1097.7,1127.9z"/>
			<path fill="#F9C92B" d="M1065.8,1101.9c-1.5,0.3-0.8,1.6,0,2.1s0.7,9.6-0.9,14.6c-1,3.2-5.3,12-8.2,18c3.2-0.6,6.9-0.1,10.1-0.4
				c4.7-0.5,9.3-1.7,13.8-3.2c0.7-0.2,1,0.9,0.3,1.1s-1.4,0.4-2.1,0.6c0.2,0.2,0.2,0.5-0.1,0.7c-5.4,3-14.5,5.6-20.6,3.4
				c-0.2-0.1-0.3-0.2-0.4-0.3c-0.8,0.2-1.6,0.5-2.4,0.7c-1,2.1-1.7,3.4-1.7,3.4s8.5,2.6,21.8,0c9.8-1.9,18.3-10.5,22.1-14.8
				c-1-0.7-2.2-1.6-3.5-2.6c-0.6,1.1-1.6,2.1-2.5,2.9c-1.3,1.3-2.8,2.4-4.6,2.8c-0.7,0.2-1.3-0.8-0.8-1.3c1.2-1.1,2.5-2.1,3.6-3.3
				c0.8-0.8,1.4-2,2.2-2.9c-0.6-0.6-1.3-1.2-2-1.8c-7.9-7.8-9.5-13.5-11.1-18c-0.3-0.9-0.6-1.7-0.9-2.3
				C1072,1100.5,1067.1,1101.7,1065.8,1101.9z M1076.8,1105.4c1.2,0.9,2.7,2.6,3.3,3.9c0.5,1,0.4,1.6,0.1,2.6
				c-0.1,0.2-0.5,0.6-0.4,0.8c0,0.5,0.6,0.9,0.8,1.2c0.3,0.5,0.6,1.4,1,1.7c0.3,0.3,1.2,0.5,1.6,0.7c0.8,0.4,0.9,1,0.8,1.6l0,0
				l-4.8,13.1l-4.7,0.8c0,0,5.1-10.6,6-14.3c0-0.5,0-0.9-0.1-1.4c-0.3-0.9-1-1.3-1.7-1.7c-4.3,11.9-8.9,18.5-8.9,18.5
				c-2.5,1-6.5,1.6-6.5,1.6c8.9-13.1,12.6-21.7,13-25.8c-0.7-1.6-2.1-2.3-4.3-2.5c-0.8-0.1-1-1.2-0.2-1.4
				C1073.6,1104.2,1075.3,1104.2,1076.8,1105.4z"/>
			<path fill="#B19229" d="M1086.4,1129.7c-0.6,0.5,0,1.5,0.8,1.3c1.8-0.5,3.3-1.6,4.6-2.8c0.8-0.8,1.9-1.8,2.5-2.9
				c-0.6-0.5-1.3-1.1-2-1.7c-0.8,0.9-1.4,2.1-2.2,2.9C1088.9,1127.6,1087.6,1128.6,1086.4,1129.7z"/>
			<path fill="#FFFFFF" d="M1072.1,1106.3c2.3,0.2,3.7,0.9,4.3,2.5c-0.4,4-4.2,12.7-13,25.8c0,0,4-0.6,6.5-1.6c0,0,4.6-6.6,8.9-18.5
				c0.7,0.4,1.5,0.8,1.7,1.7c0.1,0.5,0.1,0.9,0.1,1.4c-0.9,3.7-6,14.3-6,14.3l4.7-0.8l4.8-13.1l0,0c0.1-0.6-0.1-1.2-0.8-1.6
				c-0.5-0.2-1.4-0.5-1.6-0.7c-0.4-0.4-0.6-1.3-1-1.7c-0.2-0.3-0.8-0.8-0.8-1.2c0-0.1,0.4-0.6,0.4-0.8c0.2-1,0.3-1.6-0.1-2.6
				c-0.6-1.3-2.2-3-3.3-3.9c-1.5-1.2-3.2-1.2-5-0.6C1071.1,1105.1,1071.2,1106.2,1072.1,1106.3z"/>
			<path fill="#FFFFFF" d="M1061.5,1138c-0.8,0-1.6,0.1-2.4,0.2c-0.4,0.1-0.8,0.2-1.2,0.3h-0.1c0.1,0.1,0.2,0.2,0.4,0.3
				c6.1,2.2,15.2-0.4,20.6-3.4c0.3-0.2,0.3-0.5,0.1-0.7c-3.9,1.1-7.8,2.3-11.8,2.8C1065.2,1137.7,1063.3,1137.9,1061.5,1138z"/>
			<path fill="#B19229" d="M1057.9,1138.5c0.3-0.1,0.8-0.2,1.2-0.3c0.8-0.1,1.6-0.1,2.4-0.2c1.9-0.1,3.7-0.3,5.5-0.5
				c4-0.5,7.9-1.7,11.8-2.8c0.7-0.2,1.4-0.4,2.1-0.6s0.4-1.3-0.3-1.1c-4.5,1.5-9.1,2.7-13.8,3.2c-3.2,0.4-6.9-0.1-10.1,0.4
				c-0.7,0.1-1.3,0.3-2,0.5c-0.4,0.1-0.4,0.7,0,0.8c0.1,0,0.2,0,0.3,0.1c-0.4,0.3-0.8,0.6-1.1,0.9c-0.3,0.3,0,0.8,0.4,0.7
				c0.4-0.1,0.7-0.3,1.1-0.4C1056.2,1139,1057,1138.7,1057.9,1138.5L1057.9,1138.5z"/>
		</g>
		<g>
			<path fill="#B19229" d="M1075.3,1092.1c-3.2,0.7-5-3.2-5-3.2s0.5,4.8-2.2,6.7c-0.6,0.4-1.4,0.8-2.2,1.2c0.8,0.9,1.8,1.8,3,3
				c0,0-1.1,1.7,3.7-1.3c3.9-2.5,6.5-4.9,7.8-10.5C1078.9,1089.8,1076.9,1091.7,1075.3,1092.1z"/>
			<path fill="#B19229" d="M1063.7,1086.7c1.1,5,2.5,8.4,3.8,7.5s1.9-4.5,1.8-8.1s-1.5-8.3-2.6-14.8s-2-5-2-5s-0.8-1-0.4-4
				c-0.7,1.3-1.5,3.2-2.1,6.1c-0.3,1.2-0.5,2.5-0.7,3.9c0.7,1.2,1.4,2.6,1.5,3.5C1063.1,1077.5,1062.6,1081.7,1063.7,1086.7z"/>
			<path fill="#F9C92B" d="M1070.3,1088.9c0,0,1.8,3.9,5,3.2c1.6-0.3,3.5-2.3,5.1-4.2c0.3-1.2,0.5-2.5,0.6-4
				c0.9-8.7-2.5-12.9-4.9-16.9s-4-6.7-4.7-6.8s-3.8-0.6-5.2,0c-0.7,0.3-1.3,0.9-2,2c-0.4,3.1,0.4,4,0.4,4s0.9-1.5,2,5
				s2.4,11.1,2.6,14.8s-0.4,7.1-1.8,8.1s-2.7-2.5-3.8-7.5s-0.6-9.2-0.7-10.9c-0.1-0.9-0.8-2.3-1.5-3.5c-0.6,4.9-0.5,10.7,0.7,15.5
				c1.1,4.5,1.8,6.6,3.8,9c0.8-0.3,1.5-0.8,2.2-1.2C1070.9,1093.7,1070.3,1088.9,1070.3,1088.9z M1067.7,1064.4
				c-0.8-0.2-0.5-1.3,0.2-1.4c2.9-0.4,4.6,3.1,5.6,5.3c1.5,3.1,2.6,7.3,3,10.7c0,0.4-0.7,0.5-0.8,0.1c-0.7-3.1-1.2-5.7-3-8.4
				C1071.5,1068.7,1070.3,1065,1067.7,1064.4z"/>
			<path fill="#FFFFFF" d="M1072.8,1070.7c1.7,2.8,2.3,5.3,3,8.4c0.1,0.4,0.8,0.3,0.8-0.1c-0.4-3.4-1.5-7.6-3-10.7
				c-1-2.2-2.7-5.7-5.6-5.3c-0.7,0.1-1,1.2-0.2,1.4C1070.3,1065,1071.5,1068.7,1072.8,1070.7z"/>
		</g>
	</g>
</g>
</svg>
