<?xml version="1.0" encoding="utf-8"?>
<!-- Generator: Adobe Illustrator 21.0.2, SVG Export Plug-In . SVG Version: 6.00 Build 0)  -->
<svg version="1.1" id="_x33_1_x5F_Top_x5F_Overalls"
	 xmlns="http://www.w3.org/2000/svg" xmlns:xlink="http://www.w3.org/1999/xlink" x="0px" y="0px" viewBox="0 0 2000 2000"
	 enable-background="new 0 0 2000 2000" xml:space="preserve">
<g>
	<path fill="#D8D8D8" d="M1163.9,1029.3c-1.3-7.4-1.8-8.1-7-10c-3.2-1.2-4.8-1.1-6.2-0.2c-0.8,0.5-1.5,1.4-2.3,2.4l-0.1,0.1
		c0,0-18.9-7.7-27-13.9c-8.2-6.2-22.3-16.8-28.5-23.9c-0.1-0.1-0.2-0.2-0.3-0.3c-4.1-4.7-8-8.7-10.2-10.9c-1-1-1.6-1.6-1.6-1.6
		s-10.5-7.2-18.8-9.8c-3.1-1-5.8-1.3-7.6-0.3c0,0,0.4,1.6,1.6,2.9c1.2,1.3,6.1,4.6,6.1,4.6s0.3,5.3-3.9,10.7
		c-0.1,0.1-0.2,0.2-0.3,0.3c-1.3,1.6-2.9,3.2-4.6,4.6c-1.3,1.1-2.8,2-4.3,2.8c-0.6,0.3-1.1,0.6-1.7,0.8c-1,0.4-2,0.8-3,1.1
		c-1.3,0.4-2.6,0.6-3.9,0.7c-0.3,0-0.5,0-0.8,0c-0.9,0-1.8-0.1-2.9-0.3s-2.3-0.4-3.5-0.7c-1-0.3-2.1-0.6-3.2-0.9
		c-0.6-0.2-1.2-0.4-1.8-0.6c-1.5-0.5-2.9-1.1-4.4-1.8c-0.7-0.3-1.3-0.6-2-1c-3.6-1.8-6.6-3.9-8.2-6c-0.3-0.4-0.7-0.8-1.1-1.1
		c-6.7-5.5-31.5-11.4-31.5-11.4l-1.9,2.5l-7.3,9.6c0,0-6,6-13.6,13c-4.7,4.3-10,8.9-14.9,12.6c-10.9,8.4-36.9,24-44.3,28.3
		c-1.3,0.7-2,1.2-2,1.2s-3.5-1.1-7.6,0c-0.9,0.2-1.8,0.6-2.8,1c-5.1,2.6-11.8,13.2-7.6,20.8l5.2-3.2l7.4-4.5c0,0,1.9-2.3,6.8,5.4
		c5,7.7,9.9,12.8,12.7,27.4s3.9,20.5,2.8,23c0,0-15.1,17.6-22.5,30.2c0,0,0.2,10.8,10.2,11.4s23-21.5,31-30.5l2.6,6.4l7.3,18
		l10.2-0.4l16.6-0.7l141.6-5.7l15.4-11.2l1.4-1c7.6-5.6,13.9-12.3,19.1-20.4c4-6.2,7.3-13.2,9.9-21.1
		C1162.7,1059.4,1165.2,1036.7,1163.9,1029.3z"/>
	<path opacity="0.3" fill="#091426" enable-background="new    " d="M1138.7,1089.1c-0.2-4.2,2.6-8.9,4.5-12.5
		c3.3-6.2,6.8-12.5,7-19.7c0-0.3-0.5-0.5-0.6-0.2c-2.4,5.2-4.2,10.5-7.1,15.5c-1.5,2.6-3.2,5.2-4.6,7.8
		c-7.1-9.5-15.3-18.7-21.3-28.9c-5.8-9.9-11.8-21.8-14.3-33c-0.3-1.3-2.4-0.6-1.8,0.8c0.3,0.6,0.5,1.2,0.7,1.8
		c-0.1,0.1-0.1,0.2,0,0.3c0.2,0.8,0.3,1.6,0.9,2.2l0,0c1.6,4.6,2.6,9.5,4.1,14.1c0.3,0.9,0.6,1.8,1,2.8c3,10.7,5.7,21.6,8.6,32.3
		c1.9,7.1,5,15,4.7,22.4c-0.2,3.9-0.8,7.7-1.2,11.5c-0.3,2.8-1,6.1,0.3,8.7c0.3,0.7,1.1,1.1,1.9,1.3c0.3,0.8,0.8,1.5,1.4,2.1
		c0.7,0.6,1.7,1.1,2.7,0.8c0.1,0.4,0.3,0.8,0.6,1.1l1.4-1c7.6-5.6,13.9-12.3,19.1-20.4C1143,1097.2,1138.9,1093.1,1138.7,1089.1z
		 M1114.4,1055.1c-0.1-0.2-0.2-0.5-0.2-0.7c0.1,0.2,0.3,0.5,0.4,0.7C1114.6,1055.1,1114.5,1055.1,1114.4,1055.1z M1132.2,1079.1
		c0.8,1,1.5,1.9,2.3,2.9C1133.7,1081.3,1132.9,1080.3,1132.2,1079.1z"/>
	<path opacity="0.3" fill="#091426" enable-background="new    " d="M1151.2,1023.6c0.4,0.9,0.9,1.7,1.3,2.7c0.6,1.9,1,3.3,0.7,5.3
		c-0.4,2.1,2.9,2.4,2.8,0.4c-0.1-1.8-0.6-3.7-1-5.5c-0.3-1.4-0.8-3-1.7-4.1c0.2-0.6-0.1-1.2-0.5-1.6c-0.6-0.7-1.3-1.3-2-1.8
		c-0.8,0.5-1.5,1.4-2.3,2.4C1149.3,1022.3,1150.1,1023.3,1151.2,1023.6z"/>
	<path opacity="0.3" fill="#091426" enable-background="new    " d="M1153.2,1036.7C1153.2,1036.8,1153.2,1036.8,1153.2,1036.7
		c-0.1,0.2-0.2,0.4-0.3,0.5c-0.1,0.2-0.1,0.5-0.1,0.7c-0.1,0.2-0.2,0.5-0.2,0.7c0,0.4,0.1,0.7,0.2,1c0.2,0.4,0.7,0.6,1.2,0.5
		c0.9-0.2,1.2-1.1,1.3-1.9c0.1-0.8-0.2-1.3-0.7-1.9C1154.1,1035.9,1153.4,1036.2,1153.2,1036.7z"/>
	<path opacity="0.3" fill="#091426" enable-background="new    " d="M1152.2,1045.7c-0.4,0.3-0.5,0.6-0.7,1.1
		c-0.1,0.2-0.2,0.4-0.2,0.5s-0.1,0.3-0.1,0.4c0,0.2-0.1,0.3,0,0.1c-0.7,1.1,1,2.1,1.8,1c0.3-0.4,0.3-1.1,0.3-1.6
		c0-0.3,0.1-0.5,0-0.8c0-0.2-0.2-0.5-0.3-0.7S1152.5,1045.5,1152.2,1045.7z"/>
	<path opacity="0.3" fill="#091426" enable-background="new    " d="M1011.8,981.6c0.5,0.5,1.1,0.8,1.8,1.1c-0.1,0.3-0.2,0.7-0.3,1
		c-0.1,0.6-0.2,1.3-0.2,2c0,0.1,0,0.2,0,0.4c0,1.5,0.5,2.9,1.6,4c1.1,2.5,2.6,4.7,4.9,6.5c2.6,2,5.5,3.7,8.6,5.1
		c0.3,0.4,0.8,0.7,1.4,0.9c0.3,0.1,0.7,0.1,1,0c1.6,0.6,3.2,1,4.8,1.4c6,1.3,12.5,0.3,18.5-2c-0.4,1.3-0.8,2.5-0.8,3.9
		c0,2.3,1.5,4.2,3.1,5.6c4,3.3,8.7,4.1,13.3,6c4.1,1.7,6.7-5,3-7.1c-3-1.8-6.9-2-10.1-3.7c-1.1-0.6-2.7-1.3-3.1-2.6
		c-0.4-1.1,0.1-3.5,0.1-4.7c1.2-0.6,2.3-1.3,3.4-2c0.5,3.6,2.3,6.1,6.4,6.9c2.8,0.5,5.8,0,8.6-0.3c2.8-0.3,11-2.9,7.7,3.3
		c-1,1.9-2.9,2.9-3.8,5c-0.9,2.2-1.2,4.5-1,6.8c0.3,3.6,5.9,3.6,5.6,0c-0.3-4.1,1.4-5.7,3.4-8.8c0.1,0,0.1,0,0.2,0s0.3-0.1,0.4-0.1
		c0.7-0.2,1.4-0.8,1.6-1.6c1.3-7-3.3-15.7-11.4-14.7c-2.1,0.3-3.4,3.1-1.2,4.4c0.4,0.2,0.8,0.4,1.2,0.6c-3.3,0.4-8.3,0.8-10.2-1.5
		c-1.3-1.5,0-7.1-0.1-9.4c-0.3-4.2-2-7.5-4.2-10.7c2.3-0.1,4.5-2,4-4.2c0.5-0.6,0.8-1.4,0.8-2.4c-0.1-3.8-3.1-6.1-6.6-7.8
		c-0.8-0.7-1.6-1.3-2.5-1.9c-3.1-1-5.8-1.3-7.6-0.3c0,0,0.4,1.6,1.6,2.9c1.2,1.3,6.1,4.6,6.1,4.6s0.3,5.3-3.9,10.7
		c-0.1,0.1-0.2,0.2-0.3,0.3c1.7,2,3.3,4,4.2,6.4c0.8,2.4,0.8,4.8,0.8,7.3c-1.3,1-2.7,1.8-4.1,2.6c-0.2-0.3-0.5-0.5-0.7-0.9
		c-0.5-0.7-0.7-1.5-1-2.4c-0.4-1.1-2.1-0.7-1.8,0.5c0.1,0.5,0.4,1.2,0.2,1.8c-0.1,0.2-0.2,0.5-0.3,0.7c-0.8,0.5-1.1,1.5-1,2.4
		c-1.6,0.6-3.3,1.1-5,1.5c-0.1-0.3-0.2-0.6-0.4-0.9c-0.2-0.5-0.5-0.9-0.9-1.3c0-0.3-0.1-0.6-0.2-0.9c-0.1-0.3-0.7-0.2-0.7,0.1
		c0,0.2,0,0.7,0,0.9c-0.1,0.2-0.4,0.5-0.5,0.7c-0.3,0.6-0.6,1.3-0.8,2c-1.7,0.2-3.4,0.4-5.2,0.4c-0.1-0.1-0.1-0.3-0.2-0.4
		c-0.2-0.3-0.4-0.5-0.7-0.8c-0.3-0.4-0.4-1-0.9-1.2c-0.2-0.1-0.4-0.1-0.6,0c-0.5,0.3-0.4,0.7-0.7,1.2c-0.3,0.4-0.6,0.8-0.9,1.2
		c-1.1-0.1-2.3-0.2-3.4-0.5l0,0c-0.1-0.8-0.1-1-0.1-0.5c0-0.2-0.1-0.4-0.1-0.6c0,0.2,0,0.2,0-0.1c0-0.4-0.1-0.8-0.3-1.2
		c-0.1-0.2-0.2-0.3-0.4-0.5c-0.4-0.2-0.5-0.3-0.3-0.3c0-0.5-0.7-0.7-0.9-0.2c-0.1,0.1-0.4,0.1-0.6,0.1c-0.2,0.1-0.7,0.3-0.9,0.5
		c-0.7,0.2-1.3,0.7-1.6,1.3c-4.5-1.7-8.6-4.5-10.6-8.6c0.2-0.3,0.4-0.7,0.5-1.1c0.4-1.2-0.1-1.7,0.9-2.5c0.9-0.8,2.2-1.3,3.2-2
		c-3.6-1.8-6.6-3.9-8.2-6c-0.3-0.4-0.7-0.8-1.1-1.1c-0.2,0.2-0.5,0.3-0.7,0.6C1010.8,978.5,1010.6,980.6,1011.8,981.6z"/>
	<path opacity="0.3" fill="#091426" enable-background="new    " d="M1080.3,976.1c3,2.4,5,5.6,8.9,6.6c1,0.3,2.1,0.5,3.2,0.7
		c-4.1-4.7-8-8.7-10.2-10.9C1080.4,972.2,1078.6,974.7,1080.3,976.1z"/>
	<path opacity="0.3" fill="#091426" enable-background="new    " d="M1050.7,987.3c0.4,0.2,0.7,0.5,1.1,0.7c0.6,0.4,1.1,0.3,1.7,0.4
		c0.4,0.1,0.9-0.2,0.9-0.7c0-0.8,0.1-1.3-0.3-2c-0.2-0.4-0.5-0.9-0.8-1.3c0-0.2-0.1-0.4-0.1-0.6c-1.3,1.1-2.8,2-4.3,2.8
		c0.3,0.2,0.6,0.4,1,0.5C1050.1,987.3,1050.4,987.3,1050.7,987.3z"/>
	<path opacity="0.3" fill="#091426" enable-background="new    " d="M1045.4,990.6c0,0.6,1,0.8,1.1,0.2s0.6-1,0.7-1.6
		c0.1-0.5,0.1-1.1,0-1.7c-1,0.4-2,0.8-3,1.1c0.2,0.3,0.3,0.6,0.5,0.9C1044.8,989.8,1045.4,990.4,1045.4,990.6z"/>
	<path opacity="0.3" fill="#091426" enable-background="new    " d="M1037.1,992c-0.1,0.5,0.1,1.1,0.7,1.2c0.1,0,0.1,0,0.2,0l0,0
		c0.5,0,1-0.5,1-1c0-0.9,0.2-1.9,0.4-3c-0.9,0-1.8-0.1-2.9-0.3C1037,990,1037.3,991.3,1037.1,992z"/>
	<path opacity="0.3" fill="#091426" enable-background="new    " d="M1024,986.9c0.3,1,0.8,1.9,1.1,2.9c0.2,0.8,1.3,0.7,1.5,0
		c0.3-1.1,1-2,1.6-3c-1.5-0.5-2.9-1.1-4.4-1.8C1023.8,985.6,1023.8,986.3,1024,986.9z"/>
	<path opacity="0.3" fill="#091426" enable-background="new    " d="M1030,987.5c0.3,0.6,0.5,1.1,0.6,1.8c0,0.6,0.1,0.8,0.5,1.2
		c0.2,0.2,0.6,0.3,0.9,0.1c0.8-0.6,0.5-0.9,0.9-1.7c0.1-0.2,0.2-0.4,0.3-0.6c-1-0.3-2.1-0.6-3.2-0.9
		C1029.9,987.4,1030,987.5,1030,987.5z"/>
	<path opacity="0.3" fill="#091426" enable-background="new    " d="M972.6,1135.5c4.8,0.9,6-5.6,1.6-6.8c1.8-2.1,3.3-4.5,4.7-6.5
		c4.2-6,8-12.1,11.3-18.7c1.3,0.7,2.9,0.5,3.9-1.2c3.1-5.3,4.5-11.9,6.2-17.8c0.9-3.2,1.8-6.5,2.6-9.7c1.9-4.7,3.6-9.4,5.3-14.1
		c0.7-1.9-0.4-3.4-1.9-3.9c0.4-3.1,0.8-6.2,1-9.3c0.5-5.9,0.2-11.7,0.8-17.6c2.6,0.7,5.4-2.8,2.9-4.8c-5.2-4.1-10.3-8.5-17.1-9.4
		c-0.7-0.1-3.5-0.6-3.2,0c-0.5-0.9,1.7-4.7,2.1-5.4c0.3-0.6,0.7-1.2,1.1-1.7c1.5,2.2,3.6,3.8,6.6,4c3.4,0.2,7.3-1.4,10.4-2.5
		c2.4-0.9,6.7-1.7,8.1-4.3c0-0.1,0.1-0.2,0.1-0.3c0.5,2.7-1.6,4.4-2.9,6.8c-1.7,3.2-1.3,7.1-0.4,10.5c1.1,4.4,7.9,1.9,5.9-2.5
		c-1.2-2.7-0.9-4.7,0.3-7.2c0.5-1,1.4-1.8,1.8-2.9c0.8-1.8,1-3.7,0.6-5.6c-1.1-5.1-5.2-7.6-9.6-9.5h-0.1c-1.7-1.8-3.5-3.4-4.4-4.7
		c-2.5-3.8-8.4-0.4-6.1,3.6c1.2,2.1,6,5.5,7.5,8.3c-3.4,1.7-10.3,3.7-12,1.8c-2.1-2.3-2.8-7.8-3.8-10.7c-1.4-4-2.8-7.7-4.6-11.2
		c1.1-1.6,0.4-4.2-1.4-5.3c-0.1-0.4-0.2-0.7-0.2-0.8c0.6-2.2-2.4-3.3-3.5-1.7c-0.1-0.1-0.1-0.1-0.2-0.2c0.1-0.6,0.3-1.1,0.3-1.3
		c0.1-1.1-0.7-1.8-1.6-1.9c-0.1-0.5-0.3-1-0.7-1.3c1.1-1.5-0.5-3.7-2.5-2.8c-0.8,0.4-1.6,0.8-2.3,1.3l-7.3,9.6c0,0-6,6-13.6,13
		c3.8-1.4,7.4-3.7,11.3-4.5c4.8-1,9.6-1.4,14.5-2c2.4,5.1,4.3,10.5,6.2,15.7c0.4,1.2,0.9,2.5,1.4,3.9c-1.5,1.1-2.6,2.9-3.8,4.4
		c-2.3,3.1-5.2,6.4-3.8,10.5c1.2,3.4,4.1,3.9,7.2,4c4.1,0.2,8.6,0.8,12.1,3c-2.4,1.9-2.3,6.2-2.4,9.4c-0.2,7.6-0.6,15.1-1.8,22.7
		c-0.9,5.9-2.1,11.7-3.6,17.5c-3.7,9.4-7.8,18.6-12.4,27.6c-3.2,6.4-6.2,12.9-10.5,18.8c-1.7,2.4-3.6,4.3-5.5,6.3
		c-0.8-0.1-1.7-0.2-2.5-0.4c-4-0.8-5.5-2.7-6.2-6.6c-1.1-6.9-0.6-13.9,0.1-20.8c0.7-6.5,1.5-12.3,5.3-17.7
		c3.4-4.8,8.6-9.2,11.1-14.5c0.5-1-0.3-2.4-1.5-2c-5.1,1.6-9.7,7.2-13.1,12.2c-8.4,7.8-16.4,16.2-24.9,24c-5,4.5-10.1,8.9-15,13.5
		c0,0,0,0-0.1,0.1c0-3.3,0-6.6-0.1-9.8c-0.4-7.8-1.4-15.6-3.1-23.2c-1.6-7.3-4-13.5-7.7-20c-0.8-1.3-1.6-2.8-2.4-4.3
		c-2.3-5.3-4.9-11.4-9.7-14.7c-3.6-2.5-9.7-3.9-12.8,0.2c-1.7,2.2-1.5,5.2-0.4,7.6l7.4-4.5c0,0,1.9-2.3,6.8,5.4
		c5,7.7,9.9,12.8,12.7,27.4s3.9,20.5,2.8,23c0,0-15.1,17.6-22.5,30.2c0,0,0.2,10.8,10.2,11.4s23-21.5,31-30.5l2.6,6.4
		c0.6-0.6,1.2-1.2,2-1.7c3.1-2.2,1.7-6.6-1-7.4c2.4-2.2,4.8-4.3,7.1-6.5c-0.8,4.6-0.4,9.9,0.1,13.4c0.5,3.6,1.5,7.1,3.1,10.4
		c1.3,2.8,3.2,5.1,5,7.6c0.4,0.6,0.8,1.3,1.2,1.9l16.6-0.7c0.5-0.5,0.8-1.2,0.8-2C971,1135.2,971.8,1135.4,972.6,1135.5z"/>
	<path opacity="0.3" fill="#091426" enable-background="new    " d="M910,1044.2c1.6,1.4,4-0.9,2.4-2.4c-4.3-3.9-7.9-7.9-13.3-10.3
		c-1.3,0.7-2,1.2-2,1.2s-3.5-1.1-7.6,0c3.3,0.3,6.4,1.2,9.6,2.8C903.5,1037.6,906.3,1041.2,910,1044.2z"/>
	<path opacity="0.3" fill="#091426" enable-background="new    " d="M914.6,1049.8c0.3,0.3,0.6,0.5,0.9,1c0.2,0.4,0.4,0.7,0.9,0.8
		c0.2,0.1,0.6,0,0.7-0.3c0.2-0.4,0.2-0.7,0-1.2c-0.1-0.2-0.2-0.4-0.3-0.7c-0.1-0.3-0.1-0.6-0.1-0.8c-0.2-0.9-1.1-2-1.8-2.6
		c-1-0.9-2.6,0.2-1.9,1.5C913.3,1048.2,913.9,1049.2,914.6,1049.8z"/>
	<path opacity="0.3" fill="#091426" enable-background="new    " d="M921.2,1060.4c0.3-0.1,0.6-0.3,0.7-0.7c0.2-0.9-0.1-1.8-0.5-2.5
		c-0.4-0.8-1.2-1.2-1.9-1.8c-0.2-0.2-0.6,0-0.5,0.3C919.3,1056.7,919.3,1061,921.2,1060.4z"/>
	<path opacity="0.3" fill="#091426" enable-background="new    " d="M922.6,1069.3c-0.1,0.7-0.2,1.5,0,2.2c0.2,1.2,2.3,0.9,2.2-0.3
		c-0.1-0.8-0.3-1.6-0.8-2.2c-0.2-0.3-0.4-0.6-0.6-1c-0.1-0.3-0.2-0.6-0.4-0.9c-0.2-0.2-0.6-0.2-0.6,0.2
		C922.5,1068,922.7,1068.5,922.6,1069.3z"/>
	<path opacity="0.3" fill="#091426" enable-background="new    " d="M925.7,1082.2c0.6,0.1,1.2-0.3,1.4-0.9c0.1-0.5,0.1-1-0.1-1.5
		c-0.2-0.6-0.5-0.9-1-1.2c-0.1-0.1-0.3,0-0.4,0.1c-0.6,0.6-1,1.3-0.9,2.2C924.7,1081.6,925.1,1082.1,925.7,1082.2z"/>
	<path opacity="0.3" fill="#091426" enable-background="new    " d="M926.1,1085.9c0.1,0.6-0.3,0.8-0.4,1.4
		c-0.1,0.6,0.1,1.2,0.7,1.4c0.5,0.2,1.2,0.1,1.5-0.5c0.3-0.5,0.3-1,0.2-1.6c-0.1-0.4-0.1-0.8-0.2-1.2c-0.1-0.5-0.7-0.8-1.1-0.6
		C926.3,1084.9,926.1,1085.4,926.1,1085.9z"/>
	<path opacity="0.3" fill="#091426" enable-background="new    " d="M926.8,1092.7c-0.2-0.1-0.4,0-0.4,0.2c-0.6,1.5-0.3,3.4-0.3,5
		c0,2.2,3.5,1.9,3.1-0.4C929,1095.8,928.4,1093.6,926.8,1092.7z"/>
	<path fill="#2B4CA9" d="M1152,1141.6c-0.7-1-1.2-1.7-1.2-1.7c3.9-4.5,4.8-9.7,4.8-13.9c0-2-0.3-3.7-0.6-5.1c-1-4.2-6.5-2.3-9.1-0.5
		s-2.8,2.1-6.5-1.1s-9.6-10.9-19.2-25.1s-19.5-34.7-23.1-46.6s-6.4-26.1-7.8-27.9s-3.6-5.7-15.5-6.7s-25.2-2.8-47.5,3.4
		c-11.2,3.1-16.7,4.8-19.3,6.2c-2.6,1.3-2.4,2.3-2.3,3.8c0.2,3.1,1.1,14.2-3.1,34.8c-3.2,15.2-8.6,29.3-14.3,40.8c-2,4-4,7.7-6,11
		c-2.4,4-4.2,7-5.9,9.3c-3.9,5.2-7.3,7-14.8,8.6c-0.1,0-0.2,0-0.3,0.1c-1.3,0.3-2.4,0.5-3.4,0.6c-1.5,0.2-2.7,0.2-3.8,0.1
		c-4.5-0.4-5.9-3.4-7-9.7c-0.3-1.4-0.4-2.9-0.5-4.6c-0.4-8.7,1.3-19.4,1.3-19.4l-14.2,16c0,0,0.1,5.7-3,11.4s-4.8,10.2-2.8,16.5
		s5.8,7.8,5.8,7.8s-4.1,2.6-4.4,5.4s-0.1,20.7,1.2,26.1s3.2,9.9,6.5,7.5s17.7-12.7,41.4-21.3c23.7-8.6,62-8.8,93.1-10.1
		s54.8,4.1,68.8,8.1s15.1,5.1,15.2,2.6c0-0.7,0.1-2.6,0.1-5c0.1-6.1,0-15.5-0.8-17.5C1153.3,1143.8,1152.6,1142.5,1152,1141.6z"/>
	<path opacity="0.3" fill="#091426" enable-background="new    " d="M1009.3,1098.6c-1.1,2-0.6,4.6-0.2,6.8
		c0.7,3.5,0.9,6.5,0.6,10.1c0,0.5,0.1,0.9,0.4,1.1c-0.2,0.5,0,1.1,0.6,1.1c4.5-0.2,9-1.4,13.4-2.1c5.5-0.9,11.1-1.6,16.7-2.1
		c9.6-0.9,19.2-1.3,28.9-1.3c9.9,0,19.8,0.5,29.7,0.3c2.4-0.1,4.4,0.3,5.8-1.9c1.8-2.7,1.3-8.3,1.7-11.3l0,0
		c0.5-0.2,0.8-0.8,0.3-1.2c-6.7-5.8-11.1-13.8-14.6-21.8c-1.9-4.3-3.3-8.6-4.6-13.1c-1.4-4.5-3.2-9.4-3.3-14.2l0,0
		c0.1-0.2,0-0.5-0.3-0.5c-0.1,0-0.1,0-0.2,0c0,0,0,0-0.1,0c-9.5-2.2-20.7-2-30.3-0.7c-10.6,1.5-21.7,2.8-31.9,5.8
		c-0.2,0-0.2,0.1-0.3,0.2c-0.3-0.2-0.7-0.1-0.8,0.4c-0.9,7.7-0.8,15.2-2.9,22.7c-2.1,7.2-5.5,14-8.8,20.7
		C1009.1,1097.8,1009.1,1098.2,1009.3,1098.6z M1011.6,1098.7c7.2-14.2,11.9-28.2,10.4-44.3c0.1,0,0.2,0.1,0.4,0.1
		c10.4-1.5,20.5-4.2,31-5.2c4.8-0.5,9.7-0.6,14.6-0.6c5.2,0,10.4,0.8,15.5,0.6c2,9.5,4.5,18.6,8.2,27.5c2.9,7,6.6,16.5,13,21.3
		c-0.3,0.3-0.4,0.7-0.3,1.2c0.4,2.3,0.7,6.6-0.4,8.8c-1.6,3-3.6,2.4-6.5,2.3c-4-0.2-7.9-0.3-11.9-0.4c-8.9-0.2-17.8-0.4-26.7-0.1
		c-8.3,0.3-16.5,0.9-24.7,2c-7,0.9-14.7,1.4-21.5,3.6c0-2.8-0.7-5.6-1.3-8.4c-0.5-2.5-0.4-5.3-1.1-7.8
		C1010.7,1099.4,1011.3,1099.3,1011.6,1098.7z"/>
	<path opacity="0.3" fill="#091426" enable-background="new    " d="M1021,1105.6c0,0.2,0.1,0.3,0.3,0.3c5.8-0.5,11.5-1.9,17.2-2.8
		c6.5-1.1,12.7-1.3,19.3-0.9c12.8,0.7,25.7,1.6,38.5,2.3c0.9,0.1,1-1.1,0.4-1.5c0.4-1.4,0.2-3,0.2-4.5c-0.1-1.4,0-2.8-0.6-4.1
		c0.1-0.2,0.1-0.5-0.1-0.8c-5.2-4.6-7.9-11.2-11-17.3c-3.3-6.5-4.9-13.6-8-20.1c0-0.2,0-0.5-0.3-0.6l0,0c0,0-0.1,0-0.1-0.1
		c-8-1.3-16-1.7-24.1-0.9c-6.9,0.6-15.1,1.5-21.4,4.6c-0.2-0.1-0.6,0-0.6,0.3c-1.9,8.4-2.2,16.7-4.9,24.9c-1.5,4.4-3.3,8.6-5.4,12.7
		c-1.4,2.8-0.8,4.3-0.2,7.5C1020,1105.3,1020.5,1105.6,1021,1105.6z M1076.3,1056.8c0.1,0,0.2,0,0.3,0c0,6.7,3.8,13.8,6.8,19.5
		c3.1,6,6.6,13.2,11.5,17.9l0,0c-0.9,2-0.6,4.6-0.7,6.7c0,0.5,0,1.2,0,1.7c-9-0.6-18-1.1-27-1.6c0-0.1,0-0.1,0-0.2
		c-1.4-8.2-2.7-16.4-3.7-24.6c-0.8-6.7-0.6-14.2-2.5-20.7C1066.1,1055.6,1071.3,1056,1076.3,1056.8z M1060.1,1055.6
		c-0.8,7.5,1.2,16.1,2.1,23.6c0.9,7.3,1.9,14.6,3,21.8c-2.5-0.1-5-0.3-7.6-0.4c0-0.1,0.1-0.2,0.1-0.3c-0.2-7.8-1.3-15.5-1.5-23.3
		c-0.2-7.2-0.7-14.2-2.5-21.1C1056,1055.7,1058,1055.6,1060.1,1055.6z M1023.1,1095.9c0.5-1.2,1.1-2.3,1.5-3.5c1.6-3.8,3-7.7,4-11.6
		c1.8-6.5,3.6-14.3,2.7-21c7.1-1,13.9-3.2,21.1-3.8c0.1,0,0.2,0,0.3,0c1.2,7.9,1.6,15.9,1.9,23.9c0.3,6.8-0.2,14.1,1.7,20.7l0,0
		c-11.4-0.6-23.1,1.2-34.1,4.5c0.2-0.3,0.3-0.7,0.2-1.1C1021.7,1100.6,1021.8,1099.1,1023.1,1095.9z"/>
	<path opacity="0.3" fill="#091426" enable-background="new    " d="M1023,1025.4c7.7-2.3,15.7-3.1,23.6-4.1c7.5-1,14.8,0,22.3,0.3
		c0.4,0,0.6-0.7,0.1-0.8c-15.4-2.7-31.4-0.1-46.3,3.4C1021.9,1024.4,1022.2,1025.6,1023,1025.4z"/>
	<path opacity="0.3" fill="#091426" enable-background="new    " d="M1155.5,1126c-3.3,0.1-7.9,3.7-10.7,2.9c-2.4-0.6-4.6-2.5-7-3.7
		c-4.9-3.3-9.3-7-13.3-11.6c-6.9-7.9-12.3-16.9-17.5-25.9c-5.2-8.8-10.1-17.8-14-27.2c-1.8-4.3-3.2-8.7-4.4-13.2
		c-1.3-5.1-1.6-10.3-2.6-15.4c-0.1-0.7-1.1-0.5-1.2,0.2c-0.7,9.9,3.2,20.7,6.7,29.8c3.9,9.9,9.1,19.3,14.6,28.5
		c7,11.7,15.2,24.8,26.1,33.9c-2,0.2-4,0.7-5.9,0.7c-3.2,0.1-6.4-0.3-9.6-0.3c-0.6-0.1-1.2-0.2-1.8-0.3c-17-2.5-34.2-3.6-51.3-3.9
		c-18.9-0.3-39,0.8-58.3,4.6c-4.6,0.1-9.3,0.6-14,0.8c-1.3,0.1-2.4,0.2-3.3,0.4c2.1-3.1,3.8-6.4,5.5-9.5c4.4-8.1,8.2-16.4,11.5-25
		c3.4-8.7,6.4-17.6,8.7-26.7c1.1-4.5,1.7-8.9,1.7-13.5c0-2.3-0.2-4.5-0.3-6.8c-0.1-2.7,0.4-5.1,0-7.7c-0.1-0.6-0.9-0.4-1,0.1
		c-0.3,3.2,0.4,6.2,0.1,9.4c-0.2,2.2-0.4,4.4-0.8,6.6c-0.7,4.3-1.7,8.5-2.8,12.7c-2.1,7.9-4.3,15.9-7.1,23.6
		c-5.4,14.5-12.5,31.2-23.7,42.5c-5.1,1.8-10.1,3.9-14.9,6.3c-0.4-1.2-0.6-2.5-0.7-3.9c0.1-0.3,0.2-0.7,0.3-1c0.9-1.8,1.4-1.3,3.3-2
		c1.8-0.6,3.6-1.5,5.2-2.6c3.7-2.4,6.5-6,8.8-9.7c5.8-9.1,10.1-19.6,13.3-30c3.6-11.3,6.4-23.1,8.8-34.7c2.1-10.1,4.5-21.8,3-32.2
		c-2.6,1.3-2.4,2.3-2.3,3.8c0.2,3.1,1.1,14.2-3.1,34.8c-3.2,15.2-8.6,29.3-14.3,40.8c-2.9,7.3-6.6,14.6-11.7,20.1
		c-0.1,0.1-0.1,0.1-0.2,0.2c-3.9,5.2-7.3,7-14.8,8.6c-0.1,0-0.2,0-0.3,0.1c-0.1,2.7,0,5.7,0.5,8.1c-0.1,0.6-0.2,1.2-0.7,1.6
		c-0.8,0.7-1.8,0.7-2.8,0.4c-0.5-2.5-0.8-5-0.7-7.6c0-0.7,0.1-1.3,0.2-2c-1.5,0.2-2.7,0.2-3.8,0.1c0,0.3-0.1,0.7-0.1,1
		c-0.1,1.1-0.1,2.3,0,3.4c-2.2-0.7-4.4-1.1-6.1-3.2c-2.8-3.3-3.1-8.3-2.2-12.3c0.3-1.1,0.6-2.2,0.9-3.2c-0.4-8.7,1.3-19.4,1.3-19.4
		l-14.2,16c0,0,0.1,5.7-3,11.4s-4.8,10.2-2.8,16.5s5.8,7.8,5.8,7.8s-4.1,2.6-4.4,5.4s-0.1,20.7,1.2,26.1s3.2,9.9,6.5,7.5
		s17.7-12.7,41.4-21.3c23.7-8.6,62-8.8,93.1-10.1s54.8,4.1,68.8,8.1s15.1,5.1,15.2,2.6c0-0.7,0.1-2.6,0.1-5
		c-0.7,1.8-1.4,3.4-1.9,4.2c-0.7-0.3-1.4-0.6-2.1-0.9h-0.1c-1.8-0.7-3.5-1.4-5.3-2h-0.1c-2.1-1.1-4-2.6-6.1-3.6
		c-5.2-2.6-11.4-3.4-17.5-3.8c-24.5-4.4-49.5-6.2-74.4-5.1c-0.5,0-1,0.1-1.5,0.1c-5.6,0.2-11.1,0.7-16.6,1.3
		c-7.6,0.8-15.1,1.8-22.6,3.1c-6.9,1.2-13.7,2.5-20.5,4.1c-6.7,1.6-13.8,4.3-20.5,2.2c-1.6-5.4-1.4-11.2-1.1-16.9
		c0.2,0,0.4-0.1,0.7-0.2c15.3-6.2,30.4-11.5,46.8-14.4c16.8-3,34-4.1,51.1-4.1c16.6,0,33.4,0.9,49.9,3.2c7.9,1.1,15.8,2.6,23.4,4.9
		c5.8,1.7,10.9,4.2,15.9,7.1c-0.7-1-1.2-1.7-1.2-1.7C1154.6,1135.3,1155.6,1130.1,1155.5,1126z M964.1,1167.8
		c-2.4,1.4-4.6,2.9-6.5-0.1c-1.1-1.7-1.5-4.7-1.9-6.7c-0.9-4.7-1.9-12.1,0.7-16.5c0.3-0.1,0.5-0.2,0.8-0.3c1.4-0.5,2.9-0.8,4.4-1
		c0.2,0.6,0.6,1.1,1,1.4c-1.7,3.6-1.2,8.7-0.9,12.4C961.9,1161,962.3,1164.6,964.1,1167.8z"/>
	<g>
		<g>
			<path fill="#F9C92B" d="M1096.1,998.4c-2.9-3.8-8.8-5.5-10.8-6c-0.2,0-0.3-0.1-0.4-0.1c0.8,0.3,1.7,1.3,1.6,2.5l-2.5-0.2
				l-0.4-2.5l-2,0.3l-0.1,2c0,0.2,0,0.3,0,0.5c0.2,1.6,1.8,2.1,2.4,2.3c4.2,1.2,6.9,2.6,8.2,4.3c1,1.3,1,2.6,0.8,3.5
				c-0.1,0.2-0.1,0.5-0.2,0.7c-0.5,1-1.3,2-2.4,2.5l-0.6,0.3c-3.9,1.8-7.3,4.1-8.9,11.4c-0.1,0.6-0.2,1.2-0.4,1.8c0,0,0,0-0.1,0
				c0.1-0.7,0.1-1.3,0.2-1.9c0.1-0.9,0.1-1.7,0.1-2.4c-0.1-5-4.3-7-8.2-8.4l-0.6-0.2c-3.7-1.3-8.8-3.2-9.9-6.1
				c-0.5-1.3-0.3-1.7-0.2-1.9c0.2-0.3,0.5-0.7,1.2-1.1c1.1-0.7,3-1.5,6.4-2.4l-1.3-4.8c-2.6,0.7-4.6,1.4-6.2,2.2
				c-2.3,1.1-3.8,2.4-4.6,3.9c0,0,0,0,0,0.1c-0.9,1.7-0.9,3.7,0,5.9c1.9,5,8.2,7.3,12.8,9l0.5,0.2c4.5,1.6,4.8,2.7,4.9,3.8
				c0,1.4-0.3,4.1-0.6,6.3c-1.6,1.4-2.6,3.5-2.6,5.8c0,4.3,3.6,7.8,8,7.8c2.8,0,5.3-1.5,6.8-3.7c0.8-1.2,1.2-2.6,1.2-4.2
				c0-2.6-1.3-4.9-3.3-6.3c1.1-7.6,3.7-8.9,6.5-10.2l0.7-0.3c1.2-0.6,2.3-1.4,3.2-2.4c1-1.2,1.8-2.6,2.2-4.1
				C1098.4,1003.4,1097.8,1000.7,1096.1,998.4z"/>
			<path opacity="0.3" fill="#091426" enable-background="new    " d="M1080.4,1021.5c0.1-0.6,0.2-1.2,0.4-1.8
				c-0.1,0-0.2-0.1-0.2-0.1C1080.5,1020.2,1080.4,1020.9,1080.4,1021.5L1080.4,1021.5z"/>
		</g>
		<path opacity="0.3" fill="#091426" enable-background="new    " d="M1068.3,992.2c-2.6,0.7-4.6,1.4-6.2,2.2
			c0.4,1.2,0.8,3.4,1.1,5.1c1.1-0.7,3-1.5,6.4-2.4L1068.3,992.2z"/>
		<path opacity="0.3" fill="#091426" enable-background="new    " d="M1091.8,1012.9l0.7-0.3c1.2-0.6,2.3-1.4,3.2-2.4
			c-1.3,0.3-3.1,1.1-4.8,1.8c-3.8,1.6-4.9,3.7-5.6,5.6s0.1,2.7-1.7,2.7c-0.9,0-2-0.1-2.8-0.5c-0.1,0.6-0.2,1.2-0.4,1.8
			c0,0,0,0-0.1,0c0.1-0.7,0.1-1.3,0.2-1.9c-0.6-0.4-1.1-1-1.3-2.1c-0.5-2.5-2.2-5.2-7.1-7.2s-9.5-2.8-12.8-5.5c-2-1.6-2.2-4.3-2-6.4
			c-0.9,1.7-0.9,3.7,0,5.9c1.9,5,8.2,7.3,12.8,9l0.5,0.2c4.5,1.6,4.8,2.7,4.9,3.8c0,1.4-0.3,4.1-0.6,6.3c-1.6,1.4-2.6,3.5-2.6,5.8
			c0,4.3,3.6,7.8,8,7.8c2.8,0,5.3-1.5,6.8-3.7c-2.1-0.5-3.1,0.1-5.7,0.9c-3.3,1-6.4-2.7-6.5-5.3c-0.2-2.6,1.2-4.7,3.1-5.6
			s5-1.5,7.1-0.4C1086.3,1015.5,1089,1014.2,1091.8,1012.9z"/>
		<path opacity="0.3" fill="#091426" enable-background="new    " d="M1092.2,999.5c-1.7-1.6-4.6-2.4-10.6-4.6
			c0.2,1.6,1.8,2.1,2.4,2.3c4.2,1.2,6.9,2.6,8.2,4.3c1,1.3,1,2.6,0.8,3.5c-0.1,0.2-0.1,0.5-0.2,0.7
			C1094.3,1004.3,1093.7,1001,1092.2,999.5z"/>
		<path fill="#FBF7EA" d="M1090.6,996.8c0.6,0.5,1,1.1,1.5,1.7c0.4,0.5,0.8,0.9,1,1.5c0.3,0.8,1.5,0.7,1.5-0.2
			c0.1-1.9-2.3-2.6-3.5-3.6C1090.7,995.8,1090.2,996.4,1090.6,996.8L1090.6,996.8z"/>
		<path fill="#FBF7EA" d="M1075.6,1012c0.4,0.3,0.9,0.8,1.2,1.1c0.2,0.2,0.3,0.4,0.5,0.6c0.2,0.3,0.3,0.5,0.5,0.6
			c0.3,0.1,0.6,0.1,0.8-0.2c0.5-0.6-0.2-1.6-0.6-2c-0.3-0.3-0.6-0.5-1-0.6c-0.3-0.1-0.7-0.1-1-0.3
			C1075.5,1011.1,1075.1,1011.7,1075.6,1012L1075.6,1012z"/>
		<path fill="#FBF7EA" d="M1081.1,1025.6c0.8-0.1,2,0.3,2.6,0.7c0.8,0.6,0.9,1.7,1.6,2.3c0.3,0.3,0.9,0.3,1.1-0.1
			c0.8-1.4-0.7-3.2-1.9-4c-0.6-0.4-1.5-0.7-2.3-0.7s-1.2,0.5-1.6,1.1C1080.6,1025.2,1080.8,1025.6,1081.1,1025.6L1081.1,1025.6z"/>
	</g>
	<g>
		<g>
			<path fill="#F9C92B" d="M1030.1,1027.7c-1.5-2.1-4.2-3.3-7-3.5c-0.2-2.1-0.6-4.6-0.8-6.1c-0.2-1.3,1.9-4.1,3.5-6.1
				c0.5-0.7,1.1-1.4,1.6-2.1c0.4-0.5,0.7-1,0.9-1.4c2-3.4,1.7-6.1,0.9-8.5c-0.5-1.8-2.2-7.1-11.6-6l0.3,2.6l0.3,2.3
				c5.3-0.6,5.8,1.2,6.2,2.5c0.2,0.7,0.4,1.4,0.3,2.2v0.1l0,0l0,0c-0.1,0.9-0.5,1.9-1.5,3.2c-0.5,0.7-1,1.3-1.5,2
				c-2.5,3.2-5.1,6.6-4.5,10.1c0,0.2,0.1,0.3,0.1,0.5c0.2,1.4,0.5,3.4,0.7,5.3c-0.2,0.1-0.5,0.2-0.7,0.3c-0.7-1.1-1.6-2.4-2.4-3.6
				c-1-1.4-2-2.7-2.8-3.4c-3.2-3-7.4-4-14.4-3.3c-5.6,0.6-5.9-1.5-6.2-3.6c-0.1-0.7,0-1.4,0.3-2.2c0.8-2,2.9-4.2,6.6-6l-2.1-4.5
				c-2.2,1-3.9,2.2-5.3,3.4c-3.8,3.4-4.9,7.2-4.5,10c0,0,0,0,0,0.1c0.9,5.9,4.7,8.5,11.6,7.8c7-0.7,9.1,0.6,10.4,1.9
				c1.1,1,3.1,4,4.7,6.6c-2.4,3.2-2.6,7.6-0.2,10.8c3,4,8.8,4.8,13.1,1.6c0.4-0.3,0.8-0.6,1.1-0.9
				C1031.1,1036.5,1032.8,1031.4,1030.1,1027.7z"/>
			<path fill="#F9C92B" d="M1024.8,1003.8L1024.8,1003.8L1024.8,1003.8L1024.8,1003.8z"/>
			<path opacity="0.3" fill="#091426" enable-background="new    " d="M1024.8,1003.8L1024.8,1003.8L1024.8,1003.8L1024.8,1003.8z"
				/>
			<path opacity="0.3" fill="#091426" enable-background="new    " d="M998.4,1019.7c7-0.7,9.1,0.6,10.4,1.9c1.1,1,3.1,4,4.7,6.6
				c-2.4,3.2-2.6,7.6-0.2,10.8c3,4,8.8,4.8,13.1,1.6c0.4-0.3,0.8-0.6,1.1-0.9c-4.7,1.5-8.1,1.4-10.6-0.1c-3.1-1.9-4.5-7.1-3.6-9.9
				s3.9-4.7,9.7-5.6c-0.2-2.1-0.6-4.6-0.8-6.1c-0.2-1.3,1.9-4.1,3.5-6.1c0.5-0.7,1.1-1.4,1.6-2.1c0.4-0.5,0.7-1,0.9-1.4
				c-1.3,0.4-2.9,1.4-4.2,2.7c-2.8,2.8-2.5,5.9-3.4,7.5c-0.6,1-2.1,1-3.2,0.8c0.2,1.4,0.5,3.4,0.7,5.3c-0.2,0.1-0.5,0.2-0.7,0.3
				c-0.7-1.1-1.6-2.4-2.4-3.6c-0.7,1-1.5,2.2-1.9,2.5c-1,0.7-1.1-2.3-4.1-4.2s-6.4-2.2-11.1-2.4c-4.2-0.2-8,0.2-11.2-5.5
				c0,0,0,0,0,0.1C987.7,1017.9,991.5,1020.4,998.4,1019.7z"/>
			<path opacity="0.3" fill="#091426" enable-background="new    " d="M992,1006c-0.4,1-0.5,2,0,3c0.8-2,2.9-4.2,6.6-6l-2.1-4.5
				c-2.2,1-3.9,2.2-5.3,3.4C992.3,1003.7,992.4,1005,992,1006z"/>
			<path opacity="0.3" fill="#091426" enable-background="new    " d="M1024.4,1001.5c0.2,0.7,0.4,1.4,0.3,2.2
				c0.5-4.2-2.2-6.4-6.8-7.1l0.3,2.3C1023.5,998.3,1024,1000.2,1024.4,1001.5z"/>
		</g>
		<path fill="#FBF7EA" d="M1022.9,996.6c0.6,1.2,1.5,2.3,2.2,3.4c0.4,0.6,1.2,2.3,2.1,1.4c0.9-0.8-0.4-2.5-0.9-3.2
			c-0.8-1.1-1.7-1.9-3.1-2.2C1023,996,1022.7,996.3,1022.9,996.6L1022.9,996.6z"/>
		<path fill="#FBF7EA" d="M989.6,1010.2c0,0.7-0.1,1.4,0.4,1.9c0.3,0.3,0.9,0.2,1-0.1c0.4-0.7,0-1.5-0.4-2.1
			C990.3,1009.4,989.6,1009.7,989.6,1010.2L989.6,1010.2z"/>
		<path fill="#FBF7EA" d="M1005.7,1016.2c0.6,0.4,1.2,0.9,1.8,1.3c0.5,0.4,1.1,1.2,1.8,1.3c0.5,0.1,0.9-0.1,1.1-0.6
			c0.3-1.1-0.8-1.7-1.6-2c-0.9-0.4-1.9-0.5-2.9-0.5C1005.6,1015.7,1005.5,1016.1,1005.7,1016.2L1005.7,1016.2z"/>
		<path fill="#FBF7EA" d="M1021.5,1027.7c0.4,0.2,0.7,0.1,1.1,0.1c0.8,0,1.2,0.3,1.8,0.9c1,1,2.2,1.8,2.9,3c0.7,1.2,2.5,0.4,2.2-0.9
			c-0.4-2.1-2-3.9-4.3-4.2c-1.1-0.1-3.8-1-3.9,0.8C1021.3,1027.5,1021.4,1027.7,1021.5,1027.7L1021.5,1027.7z"/>
	</g>
	<path fill="#2B4CA9" d="M1020.4,998.9c-0.2-1.1-0.6-2.7-1.2-4.8c-0.2-0.8-0.4-1.6-0.7-2.6c-0.4-1.5-0.8-3.2-1.3-5.2
		c-2.1-9.4-5.5-17.9-11.7-24.8c-3.4-3.7-5.7-4.4-7.9-4.1c-1.9,0.3-3.8,1.4-6.4,2.2c-2.7,0.8-6.2,2.1-9.5,3.5c-0.7,0.3-1.3,0.6-2,0.9
		c-2.7,1.2-5,2.4-6.5,3.4c-3.5,2.4-1.5,10.3-1.5,10.3c4-4.2,6.3-6.6,7.1-7.2c0.8-0.6,3.2,0.5,5.8,5.4s5.8,13.3,8.2,21.6
		s5.5,9.7,13.3,8.7c7.8-1.1,13.2-4.1,14.1-5.2C1020.6,1000.5,1020.6,999.9,1020.4,998.9z"/>
	<path fill="#2B4CA9" d="M1085.8,972.7c-1.7-7.5-2.8-11.2-4.6-11.9c-0.6-0.2-1.6-0.4-2.8-0.6l0,0c-0.3,0-0.7-0.1-1.1-0.1
		c-0.3,0-0.7-0.1-1-0.1c-2.3-0.2-5-0.5-7.5-0.8c-1.2-0.2-2.3-0.4-3.4-0.7c-0.7-0.2-1.4-0.4-2.1-0.6c-2.5-0.7-4.5-1.5-5.7-1.4
		c-1.2,0-2.4,0.6-3.1,1.1c-0.5,0.3-0.9,0.6-0.9,0.6c0.1,1.1,0.8,2.7,0.8,2.7s3.7-1.7,8.2,3.5c4.5,5.1,3.9,16,3.9,26.6s2,9.5,5.9,9.4
		c1.6,0,3.2-0.1,4.5-0.2c5.7-0.5,9.2-1.7,9.7-4C1087.1,993.2,1087.5,980.2,1085.8,972.7z"/>
	<path opacity="0.3" fill="#091426" enable-background="new    " d="M1069.5,994.6c-0.2-1.8,0-3.7,0-5.5c0.2-7.1,0.2-13.8-1.7-20.8
		c-1.3-4.8-3.6-9.8-8.9-11.1c-1.5-0.3-3.1-0.2-4.6,0.2c-0.5,0.3-0.9,0.6-0.9,0.6c0.1,1.1,0.8,2.7,0.8,2.7s3.7-1.7,8.2,3.5
		c4.5,5.1,3.9,16,3.9,26.6s2,9.5,5.9,9.4c1.6,0,3.2-0.1,4.5-0.2c-1.3-0.2-2.6-0.3-3.9-0.5C1069.9,999,1069.9,997.5,1069.5,994.6z"/>
	<path opacity="0.3" fill="#091426" enable-background="new    " d="M1079,988.4c-2.8,0.1-4.8,1-7,2.7c-0.2,0.2,0,0.5,0.2,0.5
		c2.1-0.2,4.3-0.6,6.4-0.7c1.7-0.1,3.9,0.9,5.4,0c0.2-0.1,0.4-0.4,0.3-0.7C1083.6,988.4,1080.7,988.4,1079,988.4z"/>
	<g>
		<g>
			<path fill="#E5A354" d="M1064.3,959.9c0.3,0.3,0.8,0.3,1.1,0.1c0.4-0.3,0.4-0.7,0.2-1.1c-0.1-0.2-0.2-0.3-0.3-0.5
				c-0.7-0.2-1.4-0.4-2.1-0.6l0,0C1063.3,958.6,1063.8,959.4,1064.3,959.9z"/>
			<path fill="#E5A354" d="M1078.5,960.3C1078.5,960.2,1078.5,960.2,1078.5,960.3L1078.5,960.3c-0.4-0.1-0.8-0.2-1.2-0.2
				c-0.3,0-0.7-0.1-1-0.1l0,0c0.3,0.5,0.4,1.1,0.8,1.5c0.5,0.5,1.4,0.1,1.4-0.6C1078.5,960.7,1078.5,960.5,1078.5,960.3z"/>
			<g>
				<path fill="#E5A354" d="M1067,961.3c-0.2,0.4,0.1,0.9,0.4,1.2c0.7,0.9,1.9-0.1,1.2-0.9c-0.3-0.4-0.5-0.7-1-0.7
					C1067.3,960.8,1067,961.1,1067,961.3L1067,961.3z"/>
				<path fill="#E5A354" d="M1070.4,965.2c0.1,0.3,0.2,0.5,0.5,0.7c0.4,0.3,0.9-0.1,0.9-0.5c0-0.3,0-0.4-0.2-0.7
					C1071.2,964.2,1070.2,964.5,1070.4,965.2L1070.4,965.2z"/>
				<path fill="#E5A354" d="M1071.6,968.8C1071.4,968.7,1071.4,968.7,1071.6,968.8c0.5,0.8,1.6,0.1,1.2-0.7
					c-0.2-0.4-0.7-0.6-1.2-0.5C1071,967.9,1071.1,968.6,1071.6,968.8L1071.6,968.8z"/>
				<path fill="#E5A354" d="M1071.6,972.1c0,0.3,0,0.5,0.2,0.8c0.3,0.5,1,0.3,1.1-0.3c0-0.3,0-0.4-0.1-0.7
					C1072.5,971.4,1071.6,971.4,1071.6,972.1L1071.6,972.1z"/>
				<path fill="#E5A354" d="M1071.9,976.9c-0.1,0.3,0,0.6,0.1,1c0.1,0.3,0.5,0.7,0.9,0.5c0.1,0,0.1,0,0.2-0.1c0.4-0.2,0.4-0.7,0.3-1
					c-0.2-0.3-0.3-0.5-0.6-0.7C1072.5,976.4,1072,976.6,1071.9,976.9L1071.9,976.9z"/>
				<path fill="#E5A354" d="M1071.8,980.9c0,0.1-0.1,0.2-0.1,0.3c-0.2,1.3,1.8,0.8,1.2-0.2c-0.1-0.2-0.3-0.4-0.6-0.5
					C1072.1,980.6,1071.9,980.7,1071.8,980.9L1071.8,980.9z"/>
				<path fill="#E5A354" d="M1071.6,986.7c0,0.1,0,0.2,0,0.3c0,1,1.7,0.6,1.2-0.3c-0.1-0.1-0.1-0.2-0.2-0.3
					C1072.4,986,1071.6,986.2,1071.6,986.7L1071.6,986.7z"/>
				<path fill="#E5A354" d="M1071.5,998.1c0.2,0.1,0.5,0.2,0.7,0.4c0.9,0.5,1.5-1,0.5-1.3c-0.3-0.1-0.5-0.1-0.8-0.2
					C1071.3,996.9,1070.8,997.8,1071.5,998.1L1071.5,998.1z"/>
				<path fill="#E5A354" d="M1076.6,997.2c0.3,0.2,0.6,0.5,1,0.5c1.2,0.2,1.4-1.5,0.2-1.6c-0.2,0-0.4,0-0.5-0.1
					C1076.7,996,1076.1,996.8,1076.6,997.2L1076.6,997.2z"/>
				<path fill="#E5A354" d="M1082.7,997c0.5,0.2,1.1,0.1,1.3-0.5c0-0.2,0-0.4-0.2-0.5c-0.3-0.2-0.6-0.1-1-0.1
					C1082.2,996,1082.2,996.8,1082.7,997L1082.7,997z"/>
				<path fill="#E5A354" d="M1081.6,985.1c0.2,0.6,0.7,0.8,1.3,0.6c0.8-0.3,0.5-1.4-0.4-1.3h-0.1
					C1082,984.3,1081.4,984.6,1081.6,985.1L1081.6,985.1z"/>
				<path fill="#E5A354" d="M1081.7,981.5c0.1,0.1,0.1,0.1,0.2,0.2c0.8,0.7,1.5-0.8,0.6-1c-0.1,0-0.3-0.1-0.4,0
					C1081.7,980.7,1081.3,981.2,1081.7,981.5L1081.7,981.5z"/>
				<path fill="#E5A354" d="M1081.1,976.2c0,0.1,0,0.2,0.1,0.3c0.1,0.3,0.3,0.5,0.7,0.5h0.1c0.3,0,0.6-0.3,0.6-0.6v-0.1
					c0-0.4-0.3-0.6-0.7-0.7c-0.2,0-0.3,0-0.5,0.1C1081.2,975.9,1081.1,976.1,1081.1,976.2L1081.1,976.2z"/>
				<path fill="#E5A354" d="M1081.3,972.5c0,0.2,0,0.4,0.1,0.6c0.3,1.2,2.3,0.2,1.3-0.8c-0.1-0.1-0.2-0.2-0.3-0.3
					C1082,971.6,1081.3,972,1081.3,972.5L1081.3,972.5z"/>
				<path fill="#E5A354" d="M1081.2,967.9c-0.3,0.4-0.3,0.9-0.1,1.4c0.2,0.4,0.6,0.8,1.1,0.6c0.1,0,0.1,0,0.2-0.1
					c0.4-0.2,0.6-0.8,0.3-1.2S1081.7,967.3,1081.2,967.9L1081.2,967.9z"/>
				<path fill="#E5A354" d="M1080.4,965.3c0.4,0.8,1.6,0,1.2-0.7c-0.2-0.3-0.7-0.4-1-0.3c-0.5,0.2-0.5,1-0.4,1.4s0.4,0.6,0.8,0.5
					s0.7-0.4,0.7-0.7v-0.1c0-0.5-0.6-0.9-1.1-0.6c0,0,0,0-0.1,0c0.4,0.2,0.8,0.4,1.1,0.7c0-0.1,0-0.3,0-0.4c0-0.1,0-0.2-0.1-0.2
					c-0.1,0.2-0.1,0.3-0.2,0.5c0,0,0,0,0.1,0c-0.2,0.1-0.3,0.1-0.5,0.2c-0.1,0-0.1,0-0.2-0.1c-0.1-0.2-0.2-0.3-0.3-0.5
					c0,0,0,0,0,0.1c0.1-0.1,0.1-0.3,0.2-0.4c0.1,0,0.1-0.1,0.2-0.1C1080.4,964.5,1080.2,965,1080.4,965.3L1080.4,965.3z"/>
				<path fill="#E5A354" d="M984.9,966.6c0.1,0.1,0.2,0.2,0.2,0.4c0,0.3,0.2,0.6,0.5,0.6c0.1,0,0.2,0,0.3,0c0.3,0,0.5-0.4,0.5-0.6
					c-0.1-0.5-0.2-1-0.6-1.3C985.2,965.1,984.3,966,984.9,966.6L984.9,966.6z"/>
				<path fill="#E5A354" d="M987.9,967.6C987.9,967.6,988,967.6,987.9,967.6c0.2-0.1,0.4-0.1,0.5,0c0,0,0,0-0.1,0
					c-0.2,0.3-0.5,0.6-0.7,0.9c0.2,0.1,0.3,0.2,0.5,0.3c0.3,0.1,0.2,0.1,0.4,0.3c0.6,0.5,1.5,0.2,1.5-0.6c0-0.6-0.4-1-0.9-1.2
					c-0.2-0.1-0.5,0-0.7,0c-0.1,0-0.2,0.1-0.2,0.1c-0.2,0.1-0.2,0.1-0.1,0c-0.7-0.1-0.7,0.9-0.2,1.2c0.3,0.1,0.7,0,0.8-0.3
					C989.1,967.7,988.3,967.1,987.9,967.6L987.9,967.6z"/>
				<path fill="#E5A354" d="M991.8,974.7c0.2,0.2,0.5,0.3,0.8,0.3c1,0.2,1.4-1.3,0.4-1.5c-0.2,0-0.4-0.1-0.6-0.2
					C991.5,973.1,991.2,974.3,991.8,974.7L991.8,974.7z"/>
				<path fill="#E5A354" d="M993.3,978.1c0.2,0.2,0.3,0.4,0.5,0.6c0.6,0.5,1.5,0,1.3-0.8c-0.1-0.4-0.4-0.7-0.7-0.9
					C993.7,976.7,992.8,977.5,993.3,978.1L993.3,978.1z"/>
				<path fill="#E5A354" d="M994.5,982.2c0.1,0.1,0.3,0.3,0.4,0.4c0.5,0.8,1.8,0,1.3-0.8c-0.3-0.4-0.5-0.7-0.9-0.9
					c-0.3-0.2-0.8-0.1-1,0.3C994,981.5,994.2,981.9,994.5,982.2L994.5,982.2z"/>
				<path fill="#E5A354" d="M995.6,986.3c0.2,0.2,0.3,0.4,0.5,0.6c0.3,0.4,1.2,0.1,1.1-0.5c-0.1-0.6-0.3-0.9-0.8-1.1
					C995.8,985,995.1,985.8,995.6,986.3L995.6,986.3z"/>
				<path fill="#E5A354" d="M997,990.8C997.1,990.8,997.1,990.8,997,990.8c0.7,0.4,1.5-0.3,1.1-1c0,0,0-0.1-0.1-0.1
					C997.5,988.6,995.9,990.1,997,990.8L997,990.8z"/>
				<path fill="#E5A354" d="M998.6,994.1c0.1,0,0.1,0,0.2,0c-0.1,0.2,0,0.4,0.1,0.6l0.1,0.1c0.6,0.4,1.4-0.3,0.8-0.8l-0.1-0.1
					c-0.2-0.2-0.6-0.2-0.8,0C998.8,994,998.7,994,998.6,994.1C998.5,994,998.5,994.1,998.6,994.1L998.6,994.1z"/>
				<path fill="#E5A354" d="M999.7,1000.4c0.2,0.1,0.3,0.2,0.5,0.3c0.3,0.2,0.7,0.1,1-0.1c0,0,0,0,0.1-0.1c0.2-0.2,0.2-0.4,0.2-0.6
					v-0.1c-0.1-0.4-0.4-0.6-0.8-0.6c-0.2,0-0.4,0-0.6-0.1C999.4,998.9,999.1,1000.1,999.7,1000.4L999.7,1000.4z"/>
				<path fill="#E5A354" d="M1006.2,1002.1c0.1,0.1,0.2,0.2,0.3,0.3c0.5,0.3,1.2-0.1,1.2-0.7c0-0.6-0.7-1-1.2-0.7l0,0
					C1006.1,1001.2,1005.9,1001.7,1006.2,1002.1L1006.2,1002.1z"/>
				<path fill="#E5A354" d="M1017.1,999.2c0.2-0.3,0.3-0.8,0.3-1.2c0-1-1.5-1.2-1.8-0.2c-0.2,0.6,0,1.3,0.6,1.7
					C1016.5,999.7,1016.9,999.5,1017.1,999.2L1017.1,999.2z"/>
				<path fill="#E5A354" d="M1015.8,995.7c0.2-0.3,0.4-0.6,0.5-0.9c0.2-1.1-1.4-1.4-1.6-0.2l0,0c-0.3,0.3-0.3,0.8,0,1.1
					C1015,996,1015.5,996,1015.8,995.7L1015.8,995.7z"/>
				<path fill="#E5A354" d="M1014.9,989.9c0.2-0.5,0.3-1.1-0.3-1.4c-0.3-0.2-0.6-0.1-0.8,0.2c-0.1,0.1-0.1,0.3-0.2,0.4
					c-0.2,0.4-0.1,0.8,0.3,1C1014.2,990.4,1014.7,990.3,1014.9,989.9L1014.9,989.9z"/>
				<path fill="#E5A354" d="M1013.6,983.4c0.1-0.6,0.2-1.1-0.4-1.4c-0.5-0.3-1,0.1-1,0.6c0,0.4,0.2,0.5,0.3,0.9
					C1012.5,984,1013.4,983.9,1013.6,983.4L1013.6,983.4z"/>
				<path fill="#E5A354" d="M1011.3,979.1c1-0.3,0.7-1.7-0.3-1.8c-0.4,0-0.7,0.3-0.7,0.7s0.2,0.7,0.4,1
					C1010.9,979.1,1011.1,979.2,1011.3,979.1L1011.3,979.1z"/>
				<path fill="#E5A354" d="M1009.3,974.7c0.7-0.7,0.6-1.9,0-2.6c-0.2-0.3-0.7-0.3-1-0.1s-0.4,0.6-0.4,0.9c0.1,0.4,0,0.8,0,1.2
					C1008,974.9,1008.9,975.2,1009.3,974.7L1009.3,974.7z"/>
				<path fill="#E5A354" d="M1007.8,971.5c0.4-0.4,0.7-1,0.6-1.6c-0.1-0.6-0.5-1-1.1-1c-0.6,0.1-1,0.6-0.8,1.2
					c0,0.2,0.1,0.3,0.1,0.5c0-0.2,0-0.3,0-0.5c0,0.2,0,0.2-0.1,0.3C1006,971.2,1007.2,972.1,1007.8,971.5L1007.8,971.5z"/>
				<path fill="#E5A354" d="M1004.5,965.9c0.1-0.1,0.3-0.2,0.5-0.3c0.4-0.3,0.2-1-0.3-1.1c-0.4-0.1-1,0.3-0.8,0.8
					c0.1,0.2,0.2,0.4,0.3,0.5S1004.4,965.9,1004.5,965.9L1004.5,965.9z"/>
				<path fill="#E5A354" d="M1001.3,963.2c0.4-0.7,0.9-1.5,0.3-2.3c-0.6-0.7-1.8,0.1-1.5,0.9v0.1c0-0.2,0-0.3,0-0.5
					c-0.1,0.7-0.1,1.3,0.4,1.9C1000.7,963.6,1001.1,963.5,1001.3,963.2L1001.3,963.2z"/>
				<path fill="#E5A354" d="M997.7,960.7c0.1-0.2,0.2-0.4,0.2-0.6c0.4-0.9-1-1.4-1.5-0.6c-0.2,0.4-0.3,0.8,0,1.2
					C996.7,961.2,997.4,961.2,997.7,960.7L997.7,960.7z"/>
				<path fill="#E5A354" d="M940.4,1107.1c-0.1,0.1-0.1,0.3-0.1,0.4c0.1,0.4,0.1,0.5,0,0.2c0,0.2,0,0.2,0,0c0,0.1-0.1,0.1-0.1,0.2
					c-0.2,0.7,0.2,1.5,0.8,1.7s1.5,0.1,1.8-0.6c0.3-0.6,0.4-1.3,0-1.9c-0.3-0.6-0.8-0.9-1.4-0.9
					C941,1106.2,940.6,1106.6,940.4,1107.1L940.4,1107.1z"/>
				<path fill="#E5A354" d="M940.4,1112.2c-0.4,0.4-0.6,0.9-0.7,1.4c-0.2,0.7,0.3,1.4,1,1.5s1.4-0.5,1.4-1.2c0-0.5,0-1.1-0.3-1.6
					C941.4,1111.9,940.8,1111.8,940.4,1112.2L940.4,1112.2z"/>
				<path fill="#E5A354" d="M940.4,1120.7c0,0.7-0.2,2.1,0.9,2.1c1.1,0,0.9-1.3,0.9-2.1C942.2,1119.5,940.5,1119.5,940.4,1120.7
					L940.4,1120.7z"/>
				<path fill="#E5A354" d="M941.3,1127.7c0,0.2,0,0.4,0,0.7c0,1.5,2.4,1.5,2.4,0c0-0.2,0-0.4,0-0.7
					C943.6,1126.2,941.4,1126.2,941.3,1127.7L941.3,1127.7z"/>
				<path fill="#E5A354" d="M944.6,1134.1c0.1,0.3,0.2,0.6,0.3,0.9s0.6,0.6,1,0.5c0.3,0,0.5-0.1,0.8-0.3c0.4-0.3,0.4-0.9,0.2-1.3
					c-0.1-0.2-0.2-0.4-0.4-0.6C945.9,1132.3,944.3,1133,944.6,1134.1L944.6,1134.1z"/>
				<path fill="#E5A354" d="M949.4,1137.7c0.1,0.1,0.1,0.1,0.2,0.2c1,1,2.3-1,0.9-1.5c-0.1,0-0.2-0.1-0.3-0.1
					C949.4,1136.1,948.8,1137.1,949.4,1137.7L949.4,1137.7z"/>
				<path fill="#E5A354" d="M959.4,1135.9c0.2-0.4,0.4-0.9,0.3-1.4c-0.1-0.9-0.8-1.6-1.8-1.3c-0.9,0.2-1.3,1.3-0.8,2
					c0.1,0.2,0.2,0.3,0.2,0.4C957.7,1136.5,959,1136.8,959.4,1135.9L959.4,1135.9z"/>
				<path fill="#E5A354" d="M958.2,1139.3C958.1,1139.3,958.1,1139.3,958.2,1139.3c-0.3,0.3-0.4,0.6-0.3,0.9c0,0.1,0,0.1,0.1,0.2
					c0.2,0.5,0.7,0.8,1.3,0.6c0.5-0.2,0.8-0.9,0.5-1.3c0-0.1-0.1-0.1-0.1-0.2c-0.2-0.3-0.5-0.5-0.8-0.5
					C958.5,1139.1,958.3,1139.1,958.2,1139.3L958.2,1139.3z"/>
				<path fill="#E5A354" d="M957.1,1149.4c0.6,0.5,1.3,0.3,1.7-0.3c0.6-1-1-2-1.6-1c-0.1,0.1-0.1,0.2-0.2,0.3
					C956.8,1148.7,956.9,1149.2,957.1,1149.4L957.1,1149.4z"/>
				<path fill="#E5A354" d="M956.7,1153.3c-0.2,0.3-0.4,0.4-0.6,0.7c-0.1,0.4-0.1,0.8,0,1.2c0.2,1,1.8,0.6,1.6-0.4
					c-0.1-0.3-0.1-0.6-0.3-0.8c-0.1-0.2-0.3-0.4-0.4-0.6C957,1153.3,956.8,1153.2,956.7,1153.3L956.7,1153.3z"/>
				<path fill="#E5A354" d="M957.6,1160.2c0,0.4,0,0.9,0.1,1.3c0.1,0.5,0.5,0.8,1,1c0.6,0.2,1.2-0.2,1.1-0.8
					c-0.1-0.3-0.1-0.6-0.2-0.9c-0.1-0.2-0.2-0.4-0.2-0.6C959.3,1159.1,957.7,1159.1,957.6,1160.2L957.6,1160.2z"/>
				<path fill="#E5A354" d="M958.4,1168.5c0.1,0.7,0.3,2,1.3,1.9c0.3,0,0.6-0.2,0.7-0.5c0.2-0.6-0.3-1-0.4-1.6
					C959.8,1167.4,958.3,1167.6,958.4,1168.5L958.4,1168.5z"/>
				<path fill="#E5A354" d="M968.7,1135.9c0.9-0.6,1.8-1.1,1.9-2.3c0-0.6-0.6-1.3-1.2-1.2c-1.2,0.2-1.7,1-2.2,1.9
					C966.6,1135.3,967.7,1136.5,968.7,1135.9L968.7,1135.9z"/>
				<path fill="#E5A354" d="M976.9,1130.4c0.2-0.2,0.4-0.4,0.7-0.5s0.5-0.3,0.8-0.4c0.5-0.4,0.7-1.1,0.3-1.6s-1.2-0.6-1.6-0.1
					c-0.2,0.3-0.4,0.6-0.6,0.9c-0.2,0.3-0.4,0.5-0.6,0.7C975.1,1130,976.2,1131,976.9,1130.4L976.9,1130.4z"/>
				<path fill="#E5A354" d="M983,1125c0.7-0.1,1.5-0.7,1.7-1.4c0.2-0.5-0.3-1-0.8-1c-0.7,0-1.6,0.6-1.9,1.2
					C981.7,1124.4,982.3,1125.1,983,1125L983,1125z"/>
				<path fill="#E5A354" d="M987.2,1119.2c0.8-0.3,1.3-1,1-1.9c-0.3-1.1-1.9-1.1-2.2,0c-0.1,0.2-0.1,0.5-0.1,0.7
					C985.8,1118.7,986.5,1119.6,987.2,1119.2L987.2,1119.2z"/>
				<path fill="#E5A354" d="M990.9,1113.2c0.6-0.3,1.1-1,0.8-1.8c-0.1-0.2-0.3-0.5-0.6-0.5c-0.5,0-0.8,0.3-1.2,0.5
					C988.7,1112.2,989.7,1113.9,990.9,1113.2L990.9,1113.2z"/>
				<path fill="#E5A354" d="M994.3,1107.1c0.4-0.2,0.7-0.6,0.8-1c0.2-0.7-0.6-1.4-1.3-1c-0.5,0.3-0.7,0.7-0.8,1.3
					C992.9,1107,993.8,1107.3,994.3,1107.1L994.3,1107.1z"/>
				<path fill="#E5A354" d="M996.2,1101.9c0.3-0.4,0.7-0.9,0.9-1.4s0.2-1.1-0.3-1.5c-0.5-0.3-1.1-0.3-1.5,0.1s-0.8,1-1.1,1.6
					c-0.4,0.5-0.1,1.3,0.4,1.6C995.2,1102.7,995.8,1102.5,996.2,1101.9L996.2,1101.9z"/>
				<path fill="#E5A354" d="M998.9,1094.6c0.5-0.5,0.7-1.1,0.8-1.8c0-1.4-2-1.6-2.4-0.3c-0.1,0.2-0.2,0.5-0.3,0.7
					C996.3,1094.4,997.9,1095.7,998.9,1094.6L998.9,1094.6z"/>
				<path fill="#E5A354" d="M1001.4,1085.8L1001.4,1085.8c0-0.4-0.3-0.8-0.7-0.8h-0.1c-0.6,0-1,0.8-0.5,1.3
					C1000.6,1086.8,1001.4,1086.5,1001.4,1085.8L1001.4,1085.8z"/>
				<path fill="#E5A354" d="M1002.4,1081.6c0.1-0.2,0.2-0.3,0.2-0.5c0.4-1-0.9-1.8-1.4-0.8c-0.1,0.2-0.2,0.3-0.3,0.5
					C1000.4,1081.7,1002,1082.6,1002.4,1081.6L1002.4,1081.6z"/>
				<path fill="#E5A354" d="M1004.1,1075.4c0.2-0.5,0.5-1.1,0.7-1.6s-0.2-1.1-0.7-1.2c-0.6-0.2-1,0.2-1.2,0.7s-0.3,1.1-0.5,1.7
					c-0.1,0.5,0.2,1,0.6,1.1C1003.5,1076.2,1003.9,1075.9,1004.1,1075.4L1004.1,1075.4z"/>
				<path fill="#E5A354" d="M1006.4,1067.6c0.5-0.4,0.8-0.8,1-1.4c0.2-0.5,0.3-1.1,0-1.6c-0.2-0.3-0.6-0.5-1-0.4
					c-0.5,0.1-0.6,0.4-0.9,0.7c-0.2,0.2-0.5,0.5-0.7,0.6c-0.6,0.5-0.9,1.2-0.4,1.9C1005,1068.1,1005.8,1068.1,1006.4,1067.6
					L1006.4,1067.6z"/>
				<path fill="#E5A354" d="M1008.1,1059.7c0.6-0.4,0.9-0.9,1.2-1.6c0.4-0.9-0.8-1.7-1.4-0.8c-0.4,0.6-0.7,1.2-0.7,1.9
					C1007.3,1059.6,1007.8,1059.9,1008.1,1059.7L1008.1,1059.7z"/>
				<path fill="#E5A354" d="M1009.2,1052.7c0.6-0.1,1.1-0.7,1.2-1.3c0.1-0.4,0-0.8-0.4-1c-0.3-0.2-0.8-0.2-1.1,0.1
					c-0.5,0.5-0.6,1.3-0.3,1.9C1008.7,1052.7,1009,1052.8,1009.2,1052.7L1009.2,1052.7z"/>
				<path fill="#E5A354" d="M1011.2,1045.8c0.4-0.3,0.6-0.6,0.8-1c0.1-0.4,0.1-0.8,0.2-1.2c0.1-0.6-0.5-1.2-1.1-1.2
					c-0.5-0.1-1.3,0.3-1.4,0.9c-0.1,0.4-0.1,0.8-0.1,1.3s0.2,0.8,0.5,1.2C1010.4,1045.9,1010.9,1046,1011.2,1045.8L1011.2,1045.8z"
					/>
				<path fill="#E5A354" d="M1011,1037.3c0.1-0.4,0.1-0.9,0.1-1.3c0-0.7-0.6-1.2-1.2-1.2c-0.7,0-1.2,0.6-1.2,1.2c0,0.3,0,0.6,0,1
					c0,0.6,0.4,1.1,1,1.2C1010.2,1038.2,1010.9,1037.9,1011,1037.3L1011,1037.3z"/>
				<path fill="#E5A354" d="M1011.1,1031.2c0.3-0.4,0.3-0.7,0.4-1.2c0.1-1.4-2.2-1.4-2.1,0c0,0.2,0,0.4,0,0.7
					C1009.3,1031.7,1010.5,1031.9,1011.1,1031.2L1011.1,1031.2z"/>
				<path fill="#E5A354" d="M1009.1,1026.3c0.3,0.2,0.7,0.3,1,0.3c0.7,0,1.2-0.6,1.1-1.2c-0.1-0.7-0.7-1-1.4-0.9
					c-0.4,0.1-0.6,0.2-0.9,0.5C1008.5,1025.3,1008.6,1026.1,1009.1,1026.3L1009.1,1026.3z"/>
				<path fill="#E5A354" d="M1026.2,1021.1c0.5,0.4,1.2,0.4,1.8,0.3c0.5,0,0.7-0.3,0.9-0.7c0.2-0.5-0.3-1.1-0.8-1.2
					c-0.2,0-0.5,0-0.7,0c-0.3,0-0.5-0.1-0.8,0C1025.8,1019.6,1025.5,1020.6,1026.2,1021.1L1026.2,1021.1z"/>
				<path fill="#E5A354" d="M1034.6,1019c0.1,0,0.1,0,0.2,0.1c-0.1-0.1-0.2-0.1-0.3-0.2c0.3,0.3,0.6,0.4,1.1,0.3
					c0.4,0,0.7-0.3,0.9-0.7c0.1-0.2,0.1-0.3,0-0.5c-0.1-0.4-0.5-0.7-0.9-0.7s-0.8,0-1.1,0.3c0.1-0.1,0.2-0.1,0.3-0.2
					c-0.1,0-0.1,0-0.2,0.1C1034,1017.9,1034,1018.8,1034.6,1019L1034.6,1019z"/>
				<path fill="#E5A354" d="M1042.3,1017.7c0.3,0.6,0.8,0.8,1.5,0.7c0.8-0.2,0.9-1.3,0.2-1.7c-0.2-0.1-0.5-0.2-0.7-0.2
					C1042.5,1016.1,1042,1017.1,1042.3,1017.7L1042.3,1017.7z"/>
				<path fill="#E5A354" d="M1050.5,1016.5c0.2,0.4,0.6,0.6,1,0.5c0.8-0.1,1-1.2,0.2-1.5h-0.1c0.1,0.1,0.2,0.1,0.3,0.2l0,0
					C1051.3,1014.8,1049.9,1015.7,1050.5,1016.5L1050.5,1016.5z"/>
				<path fill="#E5A354" d="M1059,1016.4c0.3,0.3,0.8,0.5,1.2,0.4c1.3-0.1,1.3-1.9,0-2c-0.4,0-0.9,0.1-1.2,0.4
					C1058.7,1015.6,1058.7,1016.1,1059,1016.4L1059,1016.4z"/>
				<path fill="#E5A354" d="M1066.6,1017c0.1,0.1,0.2,0.3,0.3,0.4c0.4,0.3,1,0.4,1.3-0.1c0.3-0.4,0.2-1-0.2-1.3
					c-0.2-0.1-0.3-0.2-0.5-0.2C1066.9,1015.6,1066.1,1016.4,1066.6,1017L1066.6,1017z"/>
				<path fill="#E5A354" d="M1071.2,1016.7L1071.2,1016.7c0.2,0.6,0.9,0.6,1.2,0.3c0.3-0.3,0.3-1-0.2-1.2h-0.1
					C1071.5,1015.4,1070.9,1016,1071.2,1016.7L1071.2,1016.7z"/>
				<path fill="#E5A354" d="M1086.6,1027.1c0.5,0.4,0.9,0.8,1.5,1c0.8,0.3,1.6-0.4,1.7-1.1c0.1-0.8-0.5-1.6-1.3-1.5
					c-0.6,0-1,0.2-1.5,0.4C1086.5,1026,1086.2,1026.7,1086.6,1027.1L1086.6,1027.1z"/>
				<path fill="#E5A354" d="M1088.6,1033.9c0,0.3,0,0.5,0,0.7c0,0.4,0.3,0.9,0.8,1c0.4,0.1,0.7,0,1-0.3s0.4-0.9,0.2-1.2
					c-0.1-0.2-0.3-0.4-0.4-0.6C1089.6,1033.1,1088.7,1033.3,1088.6,1033.9L1088.6,1033.9z"/>
				<path fill="#E5A354" d="M1089.5,1040.8c0,0.1,0,0.1,0,0.2C1089.5,1041.4,1089.6,1041.4,1089.5,1040.8c-0.2,0.6,0,1.3,0.5,1.6
					s1.3,0.2,1.5-0.4c0.4-0.9,0.3-1.9-0.8-2.3C1090.1,1039.6,1089.5,1040.2,1089.5,1040.8L1089.5,1040.8z"/>
				<path fill="#E5A354" d="M1093,1048.5c0,0.2-0.1,0.3-0.2,0.5c-0.6,1.1,1.1,2.1,1.7,1c0.3-0.6,0.3-1.2,0-1.9
					C1094.2,1047.4,1093,1047.8,1093,1048.5L1093,1048.5z"/>
				<path fill="#E5A354" d="M1095.3,1056.2c-0.2,0.4-0.2,0.8-0.1,1.2c0.1,0.7,0.5,1.2,1.2,1.1s1-0.7,0.9-1.4
					c-0.1-0.5-0.4-0.9-0.8-1.1C1096.1,1055.7,1095.6,1055.8,1095.3,1056.2L1095.3,1056.2z"/>
				<path fill="#E5A354" d="M1099.3,1064c0,0.4-0.1,0.9,0.3,1.2c0.2,0.2,0.4,0.2,0.7,0.1c0.6-0.3,0.5-1.1,0.2-1.6
					C1100.1,1063.2,1099.3,1063.3,1099.3,1064L1099.3,1064z"/>
				<path fill="#E5A354" d="M1101,1069.8c0,0.5,0.2,0.8,0.4,1.2c0.3,0.5,1.1,0.8,1.7,0.4c0.2-0.1,0.3-0.3,0.4-0.4
					c0.4-0.6,0.1-1.3-0.4-1.7c-0.4-0.3-0.7-0.5-1.1-0.5C1101.4,1068.9,1101,1069.3,1101,1069.8L1101,1069.8z"/>
				<g>
					<g>
						<path fill="#E5A354" d="M1106.3,1076.6C1106.4,1076.6,1106.4,1076.5,1106.3,1076.6C1106.3,1076.4,1106.3,1076.6,1106.3,1076.6
							L1106.3,1076.6z"/>
					</g>
				</g>
				<path fill="#E5A354" d="M1105.4,1076.7c0,0.1,0,0.2,0,0.3c0,0.8,1,0.9,1.4,0.4c0.1-0.1,0.1-0.2,0.2-0.3c0.3-0.5,0-1.1-0.5-1.3
					C1106,1075.7,1105.4,1076.1,1105.4,1076.7L1105.4,1076.7z"/>
				<path fill="#E5A354" d="M1108.6,1082.8c-0.1,0.3-0.3,0.6-0.4,1c-0.3,0.8,0.7,1.6,1.4,1.1c0,0,0.1,0,0.1-0.1
					c0.5-0.4,0.7-1.1,0.2-1.6s-1.2-0.3-1.6,0.2l-0.1,0.1c0.6,0.1,1.2,0.2,1.8,0.2c0-0.3-0.1-0.5-0.1-0.8
					C1109.9,1082.3,1108.9,1082.1,1108.6,1082.8L1108.6,1082.8z"/>
				<path fill="#E5A354" d="M1112.5,1089.1L1112.5,1089.1c0.1-0.2,0.3-0.4,0.4-0.6c0,0,0,0-0.1,0.1c0.2,0,0.3-0.1,0.5-0.1h-0.1
					c0.2,0,0.3,0.1,0.5,0.1c0,0,0,0-0.1,0c-0.7-0.5-1.6,0.3-1.4,1.1c0.1,0.2,0.2,0.4,0.3,0.5c0.3,0.3,0.8,0.4,1.2,0.2c0,0,0,0,0.1,0
					c0.3-0.2,0.5-0.5,0.5-0.9s-0.1-0.7-0.4-0.9C1113.4,1088.1,1112.6,1088.4,1112.5,1089.1L1112.5,1089.1z"/>
				<path fill="#E5A354" d="M1116.2,1096.5c0,0.2-0.1,0.3-0.1,0.5s0.1,0.5,0.1,0.7c0.1,0.5,0.7,0.9,1.2,0.9c0.4,0,0.6-0.1,0.9-0.4
					c0.4-0.3,0.5-1,0.2-1.5c-0.1-0.2-0.2-0.4-0.4-0.5c-0.1-0.1-0.3-0.2-0.4-0.3C1117,1095.4,1116.2,1095.7,1116.2,1096.5
					L1116.2,1096.5z"/>
				<path fill="#E5A354" d="M1120.3,1102.3c0.2,0.3,0.3,0.7,0.5,1c0.3,0.4,0.8,0.7,1.3,0.4c0.4-0.2,0.8-0.8,0.6-1.3
					c-0.2-0.5-0.4-0.8-0.7-1.3C1121.4,1100.1,1119.7,1101.1,1120.3,1102.3L1120.3,1102.3z"/>
				<path fill="#E5A354" d="M1123.1,1106.3c0,0.4,0.1,0.7,0.2,1.1c0.4,1.2,2.3,0.7,1.9-0.5c-0.2-0.4-0.3-0.8-0.6-1.2
					C1124.1,1105.1,1123.2,1105.6,1123.1,1106.3L1123.1,1106.3z"/>
				<path fill="#E5A354" d="M1129.2,1114.3c-0.6,1.1,0.4,2.2,1.5,2.2c1.5,0,1.5-2.4,0-2.4c-0.2,0-0.2,0,0,0c0.1,0.1,0.2,0,0,0
					c0.1,0.1-0.2-0.1-0.2-0.2C1130,1113.7,1129.4,1113.9,1129.2,1114.3L1129.2,1114.3z"/>
				<path fill="#E5A354" d="M1134,1121.1c0.2,0.5,0.6,0.7,1,1c1.3,0.9,2.6-1,1.6-2.1c-0.3-0.4-0.7-0.6-1.2-0.7s-1,0-1.3,0.4
					C1133.8,1120.1,1133.8,1120.6,1134,1121.1L1134,1121.1z"/>
				<g>
					<g>
						<path fill="#E5A354" d="M1140.3,1123.1C1140.4,1123.1,1140.4,1123,1140.3,1123.1C1140.3,1122.9,1140.3,1123.1,1140.3,1123.1
							L1140.3,1123.1z"/>
					</g>
				</g>
				<g>
					<g>
						<path fill="#E5A354" d="M1141.2,1123.2C1141.2,1123.2,1141.2,1123.1,1141.2,1123.2C1141.1,1123.1,1141.1,1123.2,1141.2,1123.2
							L1141.2,1123.2z"/>
					</g>
				</g>
				<path fill="#E5A354" d="M1144.3,1127.3c0.2,0.2,0.5,0.3,0.8,0.4c1,0.2,2-1.1,1.1-1.9c-0.3-0.3-0.6-0.4-1-0.5
					c-0.5-0.2-1.1,0.2-1.3,0.6C1143.6,1126.5,1143.8,1127,1144.3,1127.3L1144.3,1127.3z"/>
				<path fill="#E5A354" d="M1148.9,1124.4c0.1,0,0.4,0.1,0.6,0.1s0.4-0.1,0.6-0.1c0.4-0.1,0.7-0.4,0.8-0.8v-0.1
					c0.1-0.4-0.1-0.9-0.5-1.2c0,0-0.1,0-0.1-0.1c-0.4-0.2-0.8-0.2-1.2,0c-0.2,0.1-0.4,0.2-0.5,0.4c-0.1,0.1-0.2,0.3-0.3,0.5
					C1148.1,1123.5,1148.4,1124.3,1148.9,1124.4L1148.9,1124.4z"/>
				<path fill="#E5A354" d="M1024.4,1060.5L1024.4,1060.5c0.5,0.7,1.4,0.9,1.9,0.2c0.5-0.6,0.2-1.5-0.6-1.7c-0.1,0-0.1,0-0.2-0.1
					C1024.7,1058.7,1023.8,1059.8,1024.4,1060.5L1024.4,1060.5z"/>
				<path fill="#E5A354" d="M1026.8,1058.7c0.3,0,0.6-0.1,0.8-0.2c0.9-0.6,0.1-1.9-0.8-1.4l0,0
					C1025.7,1057.1,1025.7,1058.8,1026.8,1058.7L1026.8,1058.7z"/>
				<path fill="#E5A354" d="M1033.7,1057.3c0.5-0.2,1-0.4,1.3-0.9c0.4-0.7-0.3-1.9-1.2-1.6c-0.2,0.1-0.4,0.3-0.7,0.3
					c-0.6,0.2-0.9,0.8-0.8,1.4C1032.5,1057.1,1033.1,1057.5,1033.7,1057.3L1033.7,1057.3z"/>
				<path fill="#E5A354" d="M1043,1054.6c0.5-0.1,1.1-0.2,1.5-0.5c1.2-0.7,0-2.6-1.1-1.8c-0.2,0.2-0.4,0.3-0.7,0.4
					c-0.5,0.1-0.8,0.6-0.7,1.1C1042.1,1054.2,1042.5,1054.6,1043,1054.6L1043,1054.6z"/>
				<path fill="#E5A354" d="M1054.4,1052.3c0.5,0.2,0.9,0.4,1.5,0.3c0.8-0.1,0.9-1.4,0.2-1.7c-0.5-0.3-1-0.2-1.5-0.1
					C1053.7,1050.9,1053.6,1051.9,1054.4,1052.3L1054.4,1052.3z"/>
				<path fill="#E5A354" d="M1062.6,1052.3c0.5,0.9,1.7,0.9,2.4,0.3c0.5-0.5,0.3-1.5-0.4-1.6c-0.4-0.1-1-0.1-1.5,0
					C1062.6,1051.2,1062.3,1051.8,1062.6,1052.3L1062.6,1052.3z"/>
				<path fill="#E5A354" d="M1070.2,1052.5c0.4,0.4,0.8,0.5,1.3,0.6c1.6,0.1,1.6-2.5,0-2.4c-0.1,0-0.3,0-0.2,0
					C1070.2,1050.4,1069.4,1051.8,1070.2,1052.5L1070.2,1052.5z"/>
				<path fill="#E5A354" d="M1076.5,1051.7c0.1,0.4,0.2,0.7,0.5,1c0.9,1,2.5-0.3,1.8-1.4c-0.2-0.3-0.5-0.6-0.8-0.8
					C1077.1,1050.2,1076.3,1050.9,1076.5,1051.7L1076.5,1051.7z"/>
				<path fill="#E5A354" d="M1080.9,1052.5L1080.9,1052.5c1.1,0.1,1.1-1.6,0.1-1.5h-0.1C1079.9,1051.1,1079.9,1052.4,1080.9,1052.5
					L1080.9,1052.5z"/>
				<path fill="#E5A354" d="M1081,1059.5c0.1,0.1,0.2,0.2,0.3,0.3c0.9,0.9,2.5-0.3,1.8-1.4c-0.4-0.6-1.1-1-1.8-0.7
					C1080.4,1058,1080.3,1059,1081,1059.5L1081,1059.5z"/>
				<path fill="#E5A354" d="M1082,1065.4c0.1,0.2,0.1,0.3,0.2,0.6c0.2,0.4,0.5,0.7,0.9,0.8c0.4,0,0.9-0.1,1.1-0.5
					c0.4-0.8,0.1-1.6-0.4-2.2C1082.9,1063.2,1081.3,1064.4,1082,1065.4L1082,1065.4z"/>
				<g>
					<g>
						<path fill="#E5A354" d="M1085.4,1071.9C1085.5,1071.9,1085.5,1071.8,1085.4,1071.9C1085.3,1071.8,1085.3,1071.9,1085.4,1071.9
							L1085.4,1071.9z"/>
					</g>
				</g>
				<path fill="#E5A354" d="M1085.4,1071.3c-0.1,0-0.1-0.1-0.2-0.1c-0.2-0.1-0.5,0.1-0.4,0.4c0,0.1,0.1,0.1,0.1,0.2
					C1085.2,1072.3,1085.9,1071.6,1085.4,1071.3L1085.4,1071.3z"/>
				<path fill="#E5A354" d="M1084.5,1071.1c0.1,0.5,0.2,0.9,0.7,1.2c0.5,0.4,1.1-0.1,1.2-0.7c0.1-0.7-0.7-1.3-1.4-1.1
					C1084.7,1070.6,1084.5,1070.8,1084.5,1071.1L1084.5,1071.1z"/>
				<path fill="#E5A354" d="M1087.8,1079.6c0.2,0.4,0.3,0.6,0.6,0.8c0.5,0.4,1.5-0.1,1.4-0.8c-0.1-0.5-0.2-0.8-0.5-1.1
					c-0.3-0.4-0.9-0.3-1.2-0.1C1087.7,1078.7,1087.6,1079.2,1087.8,1079.6L1087.8,1079.6z"/>
				<path fill="#E5A354" d="M1090.3,1085.3c0.1,0.3,0.2,0.6,0.5,0.9s0.8,0.3,1.2,0.1c0.4-0.3,0.4-0.7,0.2-1.1
					c-0.2-0.3-0.4-0.5-0.8-0.7C1090.9,1084.2,1090,1084.7,1090.3,1085.3L1090.3,1085.3z"/>
				<path fill="#E5A354" d="M1095.3,1092.2c0.1,0.8,0.4,1.4,1.2,1.5c0.4,0,0.7-0.3,0.8-0.6c0.2-0.7-0.2-1.3-0.8-1.6
					C1096,1091.1,1095.2,1091.5,1095.3,1092.2L1095.3,1092.2z"/>
				<path fill="#E5A354" d="M1099,1097.7c0.1,0,0.2,0.1,0.3,0.1c0.8,0.3,1.2-0.8,0.8-1.3c-0.1-0.1-0.1-0.1-0.2-0.2
					C1099,1095.3,1097.6,1097.2,1099,1097.7L1099,1097.7z"/>
				<path fill="#E5A354" d="M1100.9,1100.1c0.1,0.7,0.2,1.2,0.9,1.4c0.3,0.1,0.7,0,0.9-0.2c0.4-0.5,0.4-0.9,0.2-1.5
					c-0.2-0.5-0.6-0.8-1.1-0.7C1101.4,1099.1,1100.9,1099.5,1100.9,1100.1L1100.9,1100.1z"/>
				<path fill="#E5A354" d="M1102,1103.1C1102,1103.1,1101.9,1103.1,1102,1103.1c-0.5,0.1-0.8,0.7-0.7,1.1c0.2,0.9,1.2,1.1,1.7,0.2
					c0.3-0.6-0.1-1.4-0.8-1.4C1102.1,1103.1,1102,1103.1,1102,1103.1L1102,1103.1z"/>
				<path fill="#E5A354" d="M1099.8,1106.9c-0.1,0.1-0.1,0.1-0.2,0.2c-0.6,0.6,0.6,1.5,0.9,0.5c0-0.1,0.1-0.2,0.1-0.3
					C1100.8,1106.9,1100.1,1106.6,1099.8,1106.9L1099.8,1106.9z"/>
				<path fill="#E5A354" d="M1094.3,1107.7c-0.1,0.1-0.2,0.2-0.3,0.2c-0.9,0.7-0.1,2.2,0.9,1.6c0.3-0.2,0.6-0.4,0.8-0.7
					C1096.4,1108,1095,1107,1094.3,1107.7L1094.3,1107.7z"/>
				<path fill="#E5A354" d="M1088.1,1108.6L1088.1,1108.6c0.3-0.4,0.2-0.8,0.1-1.1c-0.2-0.3-0.4-0.5-0.8-0.6
					c-0.8-0.2-1.5,0.5-1.4,1.2c0.1,0.8,1,1.2,1.7,0.8h0.1c-0.2,0-0.4,0.1-0.5,0.1h0.1c-0.3-0.2-0.5-0.3-0.8-0.5v0.1
					C1086.9,1109.2,1087.8,1109,1088.1,1108.6L1088.1,1108.6z"/>
				<path fill="#E5A354" d="M1076.4,1106.6c-0.4,0.1-0.6,0.2-0.9,0.4c-0.4,0.3-0.3,1,0,1.3s0.7,0.4,1.2,0.4c0.7,0,1.2-0.6,1.1-1.2
					C1077.7,1106.8,1077,1106.5,1076.4,1106.6L1076.4,1106.6z"/>
				<path fill="#E5A354" d="M1070.2,1106.9c-0.4-0.3-0.7-0.5-1.2-0.4c-0.4,0.1-0.7,0.6-0.4,1c0.3,0.4,0.6,0.5,1.1,0.5
					C1070.3,1108,1070.7,1107.3,1070.2,1106.9L1070.2,1106.9z"/>
				<path fill="#E5A354" d="M1062,1106.5c-0.1,0-0.1,0-0.2,0c-0.5-0.1-1,0.1-1.3,0.5c-0.2,0.4-0.2,0.7,0,1.1s0.8,0.7,1.3,0.5
					c0.1,0,0.1,0,0.2,0C1063,1108.2,1063,1106.8,1062,1106.5L1062,1106.5z"/>
				<path fill="#E5A354" d="M1061.7,1100.9c0.3-0.3,0.6-0.5,0.6-1s-0.5-0.8-0.9-0.7c-0.5,0.1-0.6,0.4-0.8,0.8
					C1060,1100.7,1061,1101.5,1061.7,1100.9L1061.7,1100.9z"/>
				<path fill="#E5A354" d="M1060.6,1097L1060.6,1097c1.1-0.1,1.1-1.4,0.1-1.5h-0.1C1059.7,1095.4,1059.6,1097.1,1060.6,1097
					L1060.6,1097z"/>
				<path fill="#E5A354" d="M1059.4,1088.3L1059.4,1088.3c0.5,0.3,1,0,1.1-0.4c0,0,0,0,0-0.1c0.3-0.9-1.2-1.3-1.4-0.4
					C1059,1087.8,1059.1,1088.1,1059.4,1088.3L1059.4,1088.3z"/>
				<path fill="#E5A354" d="M1058.7,1078.9c0,0.4,0.4,0.6,0.8,0.6c0.8-0.2,0.2-1.5-0.5-0.9c0.1,0,0.2-0.1,0.3-0.1
					c0.1,0.1,0.2,0.1,0.3,0.2c0,0,0,0,0-0.1C1059.3,1078.3,1058.7,1078.4,1058.7,1078.9L1058.7,1078.9z"/>
				<path fill="#E5A354" d="M1058.8,1073.9c0.6-0.5,0.9-1.3,0.5-2c-0.1-0.2-0.4-0.4-0.7-0.4c-0.1,0-0.2,0-0.3,0.1
					c0.2-0.1,0.2-0.1-0.1,0c-0.1,0.1-0.2,0.1-0.2,0.2c-0.2,0.3-0.2,0.6-0.4,0.8C1056.6,1073.4,1057.9,1074.7,1058.8,1073.9
					L1058.8,1073.9z"/>
				<path fill="#E5A354" d="M1058.4,1066.3c0.9,0.3,1.6-0.8,1.4-1.6c-0.4-1-1.7-0.8-1.8,0.2c0,0.2,0,0.1,0,0
					c-0.1,0.2-0.1,0.3-0.1,0.5C1057.8,1065.9,1058,1066.1,1058.4,1066.3L1058.4,1066.3z"/>
				<path fill="#E5A354" d="M1058.6,1060.2c1,0,1-1.6,0-1.6S1057.6,1060.2,1058.6,1060.2L1058.6,1060.2z"/>
				<path fill="#E5A354" d="M1022.5,1068.9c0,0.1,0.1,0.1,0.1,0.2c0.2,0.4,0.9,0.4,1.1,0c0-0.1,0.1-0.1,0.1-0.2
					c0.3-0.5-0.1-1.1-0.7-1.1S1022.2,1068.4,1022.5,1068.9L1022.5,1068.9z"/>
				<path fill="#E5A354" d="M1022.2,1074.7c0,0.1-0.1,0.1-0.1,0.2c-0.3,0.7,0,1.5,0.8,1.6s1.3-0.6,1.2-1.4c0-0.2-0.1-0.3-0.2-0.5
					C1023.6,1073.8,1022.5,1073.8,1022.2,1074.7L1022.2,1074.7z"/>
				<path fill="#E5A354" d="M1020.8,1080.7c0.2,0.4,0.3,0.7,0.6,1c0.6,0.8,1.8,0.1,1.8-0.8c0-0.3-0.1-0.6-0.2-0.9
					c-0.2-0.6-0.8-1-1.4-0.8C1021,1079.4,1020.5,1080.1,1020.8,1080.7L1020.8,1080.7z"/>
				<path fill="#E5A354" d="M1021.1,1085.3L1021.1,1085.3c-0.6,0.4-0.6,1.2,0,1.4c0.5,0.2,1.2-0.3,1-0.9c0-0.1,0-0.1-0.1-0.2
					C1021.9,1085.4,1021.4,1085.1,1021.1,1085.3L1021.1,1085.3z"/>
				<path fill="#E5A354" d="M1019.1,1090c-0.1,0.2-0.1,0.5-0.2,0.7c-0.1,0.3,0,0.5,0.1,0.8s0.1,0.7,0.5,0.8c0.4,0.1,0.6-0.2,0.8-0.4
					c0.2-0.2,0.3-0.4,0.4-0.6c0.1-0.2,0.1-0.5,0.1-0.7C1021.1,1089.3,1019.5,1088.8,1019.1,1090L1019.1,1090z"/>
				<path fill="#E5A354" d="M1015.8,1096.5c-0.2,0.6-0.6,1.1-0.3,1.8c0.1,0.3,0.5,0.4,0.7,0.3c0.8-0.2,0.9-1.2,0.8-1.9
					C1017,1095.9,1015.9,1095.7,1015.8,1096.5L1015.8,1096.5z"/>
				<path fill="#E5A354" d="M1013.5,1101.3c0.3,0.6,0.5,1.2,1.3,1.3c0.2,0,0.6-0.2,0.7-0.4c0.3-0.7-0.1-1.2-0.4-1.8
					C1014.4,1099.4,1013,1100.3,1013.5,1101.3L1013.5,1101.3z"/>
				<path fill="#E5A354" d="M1014.5,1106.2c0.1,0.2,0.1,0.4,0.1,0.6c0,0.4,0.2,0.6,0.6,0.8c0,0,0.1,0,0.1,0.1
					c0.4,0.2,0.9-0.2,0.9-0.7v-0.1c0-0.3-0.1-0.6-0.4-0.7c-0.3-0.1-0.5-0.2-0.7-0.4C1014.8,1105.7,1014.4,1105.9,1014.5,1106.2
					L1014.5,1106.2z"/>
				<path fill="#E5A354" d="M1018.5,1112.2L1018.5,1112.2c-0.1-0.1-0.3-0.3-0.5-0.4c0.2,0.3,0.5,0.4,0.7,0.6
					c0.5,0.3,1.2,0.1,1.5-0.4s0.1-1.2-0.4-1.5c-0.3-0.2-0.6-0.3-0.9-0.2c-0.3,0-0.6,0.2-0.8,0.3
					C1017.4,1111.2,1017.7,1112.1,1018.5,1112.2L1018.5,1112.2z"/>
				<path fill="#E5A354" d="M1024.9,1110.9c0.2,0.3,0.6,0.5,0.9,0.5c0.4,0,0.8-0.3,1.1-0.3c0.4,0,0.7-0.2,0.9-0.5
					c0.1-0.2,0.1-0.3,0.1-0.5c0.1-0.5-0.5-1-1-1s-0.9,0.2-1.2,0.5c-0.1,0.1-0.2,0.2-0.3,0.3c-0.1,0.1-0.1,0.1-0.2,0.2
					c-0.2,0.2-0.2,0.2,0.1,0.1C1024.9,1110.1,1024.6,1110.5,1024.9,1110.9L1024.9,1110.9z"/>
				<path fill="#E5A354" d="M1035.1,1109c0.2,0,0.3,0.1,0.5,0.1c0.8,0.1,1.5-0.3,1.5-1.2c0-0.9-0.8-1.3-1.5-1.2
					c-0.2,0-0.3,0-0.5,0.1C1034.1,1107.1,1034.1,1108.7,1035.1,1109L1035.1,1109z"/>
				<path fill="#E5A354" d="M1040,1110c0.2,0,0.5,0,0.8,0c1.4,0.1,1.4-2.3,0-2.2c-0.2,0-0.5,0-0.8,0
					C1038.6,1107.9,1038.6,1109.9,1040,1110L1040,1110z"/>
				<path fill="#E5A354" d="M1045,1108.5c0.5,0.4,1.2,0.5,1.6,0c0.3-0.4,0.4-0.9,0-1.2c-0.3-0.3-0.9-0.3-1.2,0
					c-0.1,0.1-0.2,0.2-0.3,0.3c0.1-0.1,0.2-0.2,0.3-0.3h0.1C1044.9,1107.2,1044.5,1108.1,1045,1108.5L1045,1108.5z"/>
				<path fill="#E5A354" d="M1050.9,1109.4c0.4,0,0.7,0.1,1.1,0.1c0.6,0.1,1.2-0.6,1.2-1.2c0-0.1,0-0.2,0-0.3
					c-0.1-0.6-0.9-1.1-1.5-0.8c-0.3,0.1-0.7,0.2-1,0.4C1049.5,1107.8,1049.8,1109.3,1050.9,1109.4L1050.9,1109.4z"/>
			</g>
		</g>
		<path fill="#E5A354" d="M980.1,964.2c0.5,0.2,1.4,0.7,2,0.3c0.4-0.3,0.5-1.2-0.2-1.3h-0.1c-0.7,0.3-1.3,0.6-2,0.9
			C979.9,964.1,980,964.2,980.1,964.2z"/>
	</g>
	<path opacity="0.3" fill="#091426" enable-background="new    " d="M981.8,963.2c-0.7,0.3-1.3,0.6-2,0.9c-2.7,1.2-5,2.4-6.5,3.4
		c-3.5,2.4-1.5,10.3-1.5,10.3c4-4.2,6.3-6.6,7.1-7.2c0.8-0.6,3.2,0.5,5.8,5.4s5.8,13.3,8.2,21.6s5.5,9.7,13.3,8.7
		c7.8-1.1,13.2-4.1,14.1-5.2c0.3-0.4,0.3-1,0.1-2c-4.2,2.7-8.8,4.5-13.7,5.4c-2.9,0.5-5.7,1.3-7.6-1.6c-0.8-1.3-1.1-3.5-1.5-4.9
		c-1.2-3.8-2.6-7.6-4-11.3c-2.2-5.8-4.2-13.2-9.1-17.4c-0.9-0.7-1.9-1.4-2.9-1.8c2.7-1.3,5.1-2.7,7.6-4.5c2.8-2,5.5-3.6,8.5-5.2
		c-1.9,0.3-3.8,1.4-6.4,2.2C988.5,960.5,985,961.8,981.8,963.2z"/>
	<path opacity="0.3" fill="#091426" enable-background="new    " d="M1001.1,994.5c-0.3,0.2-0.2,0.7,0.2,0.6c6-0.8,12.1-2.7,18-1.1
		c-0.2-0.8-0.4-1.6-0.7-2.6C1012.8,990.7,1005.5,991.7,1001.1,994.5z"/>
</g>
</svg>
