<?xml version="1.0" encoding="utf-8"?>
<!-- Generator: Adobe Illustrator 23.0.1, SVG Export Plug-In . SVG Version: 6.00 Build 0)  -->
<svg version="1.1" id="_x33_3_x5F_Top_x5F_Dirndl_1_"
	 xmlns="http://www.w3.org/2000/svg" xmlns:xlink="http://www.w3.org/1999/xlink" x="0px" y="0px" viewBox="0 0 2000 2000"
	 enable-background="new 0 0 2000 2000" xml:space="preserve">
<g>
	<g>
		<path fill="none" d="M1240.4,1076c-0.2,0-0.3,0-0.4-0.1c0,0.1,0,0.2,0,0.2C1240.1,1076.1,1240.3,1076.1,1240.4,1076z"/>
		<path fill="#09FF60" d="M1240,1075.9c0-0.1,0-0.3-0.1-0.4c-0.2-0.6-0.6-1.4-1.1-2.2C1238.3,1074.3,1238.7,1075.6,1240,1075.9z"/>
		<g>
			<path fill="#D6DEFF" d="M1240,1075.9c-1.2-0.3-1.6-1.6-1.2-2.6c-2.4-3.4-8.1-7.9-15.1-9.4c-4.1-0.9-11-0.3-17.1,0.6
				c-3.9,0.3-7.9,0.8-11.8,1.7c0.3-0.8,0.6-1.6,0.8-2.4c3.2-10.8,0.4-19.1-0.9-24.9c-0.5-2-0.9-3.7-1.2-5.1
				c-0.7-3.2-1.2-5.4-1.9-8.2c-1.1-4-0.7-7.7-4.8-15.3s-10.8-9.5-10.8-9.5s-0.1-4.7-3.4-9.6s-7.6-4.7-7.6-4.7s-0.1-0.1-0.2-0.2
				c-1.2-1.7-9.1-12.8-17.3-16.3c-9-3.8-17.6-2.7-17.6-2.7s-2.2-1.6-4.9-3.3c-2.7-1.6-4.7-1.5-4.7-1.5c-3.2-4-7-5.6-9.5-5
				c-2.6,0.5-7.2,5-7.2,5s-1.9-0.2-8.5,0.3c0,0,1.8,4.6,4.5,11.8c6.6,17.5,18.7,50.3,23.8,68.7c3.5,12.8,8.8,34.7,13.3,53.6
				c4.6,19.4,8.3,35.7,8.3,35.7c32.3-28.5,54.8-40.6,54.8-40.6l2.2,2.9l0.2,0.3l0.2-0.2l2.7-3.2c0,0,6.1,4.4,12.6,7.5
				c3.8,1.8,7.1,3.2,9.2,2.9c1.4-0.2,2.3-1.3,2.2-3.7c-0.1-5.9-10.2-13.4-16.3-17.8c-2.8-2-5.7-3.7-8-4.9c-2.7-1.4-4.6-2.1-4.6-2.1
				s7.5,0.7,20.5,3.4c12.2,2.6,19.1,1.9,19.3-0.9C1240,1076.1,1240,1076,1240,1075.9z"/>
			<path fill="#D6DEFF" d="M945.2,977l-11.7-3.5c0,0-3.5-3.6-11.2-3.4c-7.7,0.2-11.2,7-11.2,7s-14,0.5-20.5,1.9s-15.8,8.3-15.8,8.3
				c-14,2.9-26.8,8.4-42.8,21.7s-13.3,24.8-13.3,24.8s-0.2,0.7-0.5,2.2c-0.4,2.5-0.6,7.2,0.8,13.7c1.5,7.1,3.3,11.4,4.3,13.3
				c0.4,0.9,0.7,1.3,0.7,1.3l-4.8,7.5c0,0-12.6,1.6-24.2,6.1c-3.1,1.2-6,2.7-8.6,4.3c-7.3,4.5-12.4,9.6-12.4,9.6s0.9,1.5,3.6,2.8
				c2.3,1.1,5.8,2.1,11.2,2c11.7-0.3,24.8-5.9,24.8-5.9l18.5,14.7c0,0-5.1,7.7-6,19.1c-0.2,2.6-0.3,5-0.2,7.1
				c0.2,7.1,2.4,10.5,9.4,6c9.1-5.8,10.5-20,10.5-20c6.3,4.6,15.2,12.3,23,18.8c7.9,6.6,14.6,11.9,16.3,11.7
				c3.4-0.4,1.3-1.4,5.2-2.1c3.9-0.7,5.4-0.5,8.1-4.8s0.8-4.8,2.4-4.6s2.4,2.6,4.8,1c0.6-0.4,1.1-0.8,1.5-1.2c0.6-0.6,1-1.2,1.1-2
				c0.2-1,0-2.1-0.7-3.6c-1.7-3.6,0-8,0-8s2.1,1.3,6.8,1.2c4.2,0,20-4.8,33.9-16.4c1.5-1.3,3-2.6,4.5-4.1l21.5-30.3l-7.5-89.7
				L945.2,977z"/>
		</g>
	</g>
	<path opacity="0.3" fill="#05132B" enable-background="new    " d="M956.5,1071.1c1-0.4,1.7-1.2,2-2.6c2.9-16.9,3-34.1,0-51.1
		c-1.5-8.7-3.8-17.2-7-25.4c-1.8-4.8-3.7-10.3-6.4-15l-11.7-3.5c0,0-3.5-3.6-11.2-3.4c-7.7,0.2-11.2,7-11.2,7s-14,0.5-20.5,1.9
		s-15.8,8.3-15.8,8.3c-14,2.9-26.8,8.4-42.8,21.7c-16,13.3-13.3,24.8-13.3,24.8s-0.2,0.7-0.5,2.2c0.5,1.7,1,3.4,1.6,4.9
		c2.5,6.4,7.7,11.6,9.3,18.3c0.1,0.5,0.5,0.8,0.9,0.8c0,0,0.1,0,0.1,0c0,0,0.1,0,0.1,0c0.9-0.1,1.8-0.5,2.7-0.7
		c1.2-0.2,2.3-0.4,3.5-0.7c0.6,0.9,1.2,1.8,1.9,2.6l0,0c0,0.1,0,0.2,0,0.2c0,1-3.1,0.4-3.7,0.5c-1.8,0.3-3.4,1.5-5.1,0.3
		c-0.8-0.6-1.6,0.1-1.9,0.8c-0.4-0.2-0.8-0.5-1.2-0.7c-0.6-0.9-2.2-0.8-2.5,0.3c-0.2,0.1-0.5,0.2-0.7,0.3c0.4,0.9,0.7,1.3,0.7,1.3
		l-4.8,7.5c0,0-12.6,1.6-24.2,6.1c-3.1,1.2-6,2.7-8.6,4.3c1.3-0.2,2.7-0.6,4-1c3.2-1,6-2,9.3-2.8c7.4-1.7,14.9-3.3,22.2-5.5
		c3,1.1,6.5,1.2,9.7,1.3c0,0,0,0,0,0.1c0,0.3,0,0.6,0.1,0.9c-2.2,0.6-4.5,1.2-6,2.9c-2.4,2.6-3.9,4.7-7.2,6.3
		c-2.4,1.2-4.9,2.3-7.3,3.4c-5.2,2.4-10.3,5.5-16,6.3c-5.8,0.8-11.8,0.4-17.6,0.4c2.3,1.1,5.8,2.1,11.2,2
		c11.7-0.3,24.8-5.9,24.8-5.9l18.5,14.7c0,0-5.1,7.7-6,19.1c-0.2,2.6-0.3,5-0.2,7.1c0.4-1,0.7-2.1,1.1-3.1c1-2.6,2.3-5.1,3.5-7.6
		c0.8,0.7,2.3,0.7,2.8-0.6c3.3-9.8,10.3-20.8,10.3-31.7c0.2-0.1,0.5-0.2,0.7-0.2c0.3,0,0.5-0.4,0.5-0.7c-0.1-2.3,0-4.1-0.5-6
		c0,0,0,0,0,0c6.9,7.7,14.5,14.7,21.5,22.2c6.6,7.1,12.4,15.1,18.8,22.5c-1.6-0.4-3-1.1-4.5-2.2c-1-0.7-1.9-1.5-2.8-2.2
		c-0.5-0.6-1-1.1-1.5-1.5c-5.1-5.4-10.4-10.7-15.8-15.8c-4.4-4.2-9-9.7-14.2-12.8c-0.3-0.2-0.7,0.1-0.7,0.5
		c1.6,6.6,9.8,12.4,14.4,16.9c3.3,3.2,6.7,6.1,10,9.2c1.4,1.3,2.8,2.7,4.1,4.1c0.7,0.8,1.5,1.6,2.1,2.4c2.4,1.9,2.1,3.4-0.9,4.7
		c-0.1-0.1-0.1-0.1-0.2-0.2c-4.4-4.3-9.8-8.2-14.7-12.1c-2.3-1.9-4.6-3.7-7-5.5c-1.5-1.2-5.7-3.2-6.2-5.1c-0.1-0.5-0.5-0.7-0.8-0.6
		c0-0.1-0.1-0.2-0.1-0.2c-0.2-0.4-0.8-0.1-0.7,0.3c0,0.1,0,0.2,0.1,0.3c-0.1,0.1-0.2,0.3-0.2,0.5c0,0.1,0,0.3,0,0.4
		c0,0.2-0.1,0.4-0.2,0.6c-0.2,0.5,0.1,1,0.5,1.2c0.4,1,1.4,1.7,2.6,2.7c3.2,2.7,6.5,5.2,9.8,7.8c3.2,2.6,6.6,5.2,9.8,7.9
		c1.2,1,4.1,3,4.5,4.6c1,3.6-1.1,4.1-3.2,4.2c7.9,6.6,14.6,11.9,16.3,11.7c3.4-0.4,1.3-1.4,5.2-2.1c3.9-0.7,5.4-0.5,8.1-4.8
		s0.8-4.8,2.4-4.6s2.4,2.6,4.8,1c0.6-0.4,1.1-0.8,1.5-1.2c0.4-0.7,0.7-1.3,1.1-2c0.2-1,0-2.1-0.7-3.6c-1.7-3.6,0-8,0-8
		s2.1,1.3,6.8,1.2c4.2,0,20-4.8,33.9-16.4c0.7-1.7,1.3-3.4,1.9-5.2C953.6,1092.4,955.7,1081.8,956.5,1071.1z M834.5,1096.1
		c-0.1,0.1-0.2,0.2-0.3,0.2c-1.9,1.2-4.5-1.6-6-2.7c-2-1.4-5.1-2.8-4.8-5.3c0.2-1.4,0.6-2.5,1.9-3.3c0.1-0.1,0.7-0.3,1.3-0.5
		c0.2,0.2,0.4,0.4,0.6,0.5c1.5,1.1,3.2,1.7,4.8,2.6c0.8,0.5,1.6,1.1,2.4,1.6c0.3,0.3,0.6,0.8,0.8,1.2
		C836.4,1092.7,835.5,1094.2,834.5,1096.1z M835.3,1085.8c-2.2-1.3-6.3-2.3-7.7-4.8c2.1-2.5,4.1-3.3,7.4-4.2l0,0
		c0.3,0.2,0.5,0.4,0.7,0.5c0.7,0.5,1.4,1.1,2.2,1.5c0.4,0.2,0.8,0.4,1.2,0.5C839.2,1082.5,839.6,1088.3,835.3,1085.8z M896.4,1112.9
		c-0.1,0-0.2,0.1-0.3,0.1c-0.5,0.1-0.9,0.1-1.4,0.1c-3.3-2.4-6.2-5.4-9.4-8.1c-6.2-5.2-9.9-11.1-14-17.9c-2.6-4.3-5.4-8.6-8.8-12.3
		c-0.2-0.2-0.3-0.3-0.5-0.5c6.3,3.5,12.4,7.2,17.6,12.1c7.3,6.8,12.7,15.5,16.6,24.8c0.1,0.6,0.2,1.1,0.2,1.7
		C896.5,1112.9,896.5,1112.9,896.4,1112.9z M897.3,1119.3C897.3,1119.3,897.2,1119.3,897.3,1119.3c0,0-0.1,0-0.1-0.1c0,0,0,0,0,0
		C897.2,1119.2,897.2,1119.2,897.3,1119.3C897.3,1119.3,897.3,1119.3,897.3,1119.3z M946.3,1029.3
		C946.3,1029.4,946.3,1029.4,946.3,1029.3c-5.7,2.5-11.5,4.8-15.5,9.6c-3.9,4.6-6.8,10.1-8.4,16c-1.9,6.9-0.2,13.7-1.3,20.7
		c-1.1,6.9-3,13.5-3,20.5c0,0.7,0.5,1.2,1,1.4c0,0,0,0,0,0c0.2,0.1,0.4,0.2,0.7,0.1c0.6,0,1.1-0.3,1.3-1c5.9-4.9,8.9-14.3,11.2-21.4
		c1.5-4.4,2.6-8.9,3.3-13.5c0.8-4.8,1.1-9.7,2.8-14.2c2.8,4.6,1.6,10.6,0.9,15.8c-0.8,6.3-1.1,12.8-2.3,19.1
		c-1.1,6.1-3.3,11.4-6.1,16.9c-1.3,2.5-2.7,5.2-3.7,7.9c-6,5.6-14.5,8.2-23.2,5c-0.9-0.3-2.2,0-2.9,0.7c-2-4.6-4.6-8.9-6.9-13.4
		c0-0.1-0.1-0.2-0.1-0.2c1.1-0.3,2.2-1,3.1-1.2c1.5-0.5,3.2-0.6,4.7-1.3c1.2-0.6,2.1-1.8,2.9-2.8c0.2-0.3-0.1-0.7-0.4-0.4
		c-2,1.7-3.8,2-6.3,2.6c-1.8,0.4-3.2,1.3-4.9,1.4c-2.7-5-5.8-9.8-10-13.6c-0.4-0.4-0.9-0.7-1.3-1.1c-1.2-1.8-2.2-3.8-2.7-5.9
		c-1.2-4.8-0.6-10.6,0.4-15.4c0.1-0.3-0.4-0.5-0.5-0.2c-2.3,5.1-3.3,12.5-1.5,18.5c-3.5-2.1-7.3-3.7-10.8-5.7
		c-5.1-2.9-10.4-5.4-15.8-7.7c-0.4-0.2-0.8-0.4-1.2-0.7c-0.1-0.1-0.2,0-0.3,0.1c-1.3-0.5-2.5-1-3.8-1.5c-0.3-0.1-0.4,0.3-0.2,0.4
		c2.8,1.9,5.8,3.7,8.9,5.4c2.7,2.7,5.3,5.8,7.3,8.4c2.6,3.3,4.3,7.1,6.7,10.5c0,0,0,0,0,0c-3.4-2.8-7.1-5.3-11.2-7.4
		c-0.2-0.1-0.3,0.2-0.2,0.3c8.7,4.9,16.2,13.3,22.6,20.9c3.3,4,6.5,8.1,9.6,12.2c1.5,2,2.9,4.2,4.1,6.4c0.6,1.1,1.6,2.4,1.1,3.4
		c-0.6,1-3.9,0.8-4.8,0.8c0,0-0.1,0-0.2,0c-8.1-7.6-16.5-14.9-23.3-23.7c-5.9-7.6-11.9-16.7-19.6-23c0.6-0.1,1.2-0.2,1.8-0.3
		c0.8-0.1,1.5-0.3,2.3-0.4c0.4,0,0.7-0.1,0.9-0.2c0.4,0.5,1.1,0.6,1.6,0.2c0.5-0.4,0.7-1.3,0.1-1.7c-0.2-0.2-0.5-0.3-0.8-0.5
		c-0.4-0.3-0.7-0.7-1.2-0.9c-0.2-0.1-0.4,0-0.4,0.2c0,0,0,0.1,0,0.1c-0.5-0.2-1-0.3-1.5-0.3c0.8-0.6,1.4-1.4,1.8-2.3
		c0.6-1.4-0.7-3-2.2-2.2c-2.3,1.2-4.3,3.3-7.2,2.6c-1.1-0.3-1.6-1-2.4-1.7c0,0,0.1-0.1,0.1-0.1c0.5-0.1,1.2-1.2,1.4-1.5c0,0,0,0,0,0
		c2.2,0.3,4.5,0.3,6.7,0.3c2.1,0,2.1-3.2,0-3.3c-2.9-0.1-5.7-0.7-8.5-1.2c-1.6-0.3-2.6,1.2-2.3,2.4c-0.8,0.4-1.6,0.7-2.4,1
		c-0.5,0-1,0-1.5,0c0.7-1.3,0.8-3,0.2-4.3c0.4-0.1,0.8-0.2,1.3-0.3c2.6-0.5,5.8,1.7,7.3-1.6c0.5-1,0.3-2-0.6-2.7v0
		c-0.2-0.6-0.6-1.1-1.2-1.9c-2.2-3-4.3-5.9-6.1-9.2c-2.9-5.2-3.3-14.8-0.8-20.3c2.4-5.4,6.3-9.7,11-13.1c-1.8,2.1-3.5,4.2-5.1,6.4
		c-1.8,2.5-4.6,6.7-4.5,10.1c-0.3,0.5-0.3,0.8-0.5,1.9c-0.4,2,1.5,3.3,3.3,2.5c14.5-6.4,27.2-16.9,39.2-27
		c6-5.1,12.3-10.1,19.4-13.5c3.7-1.8,7.9-3.2,12-3.6c1.7-0.2,3.3,0,5,0.3c-1.5,0.6-3,1.1-4.3,1.7c-3.5,1.6-7,3.4-10.3,5.4
		c-6.2,3.7-12.1,8.2-17.4,13.1c-5.9,5.5-11.7,11.4-17.2,17.4c-1.8,2-3.3,3.9-4.2,5.9c-2.3,2.5-2.8,5.8-2.1,9.5
		c0.9,4.6,2.8,10.9,5.6,14.7c6.3,8.5,17.6-5.1,21.3-10.1c7-9.5,10.2-20.8,14.1-31.7c2-5.7,4.8-11.9,10.4-14.9
		c4.1-2.3,10.2-3.2,15.5-3.1c-1.5,1.8-3,3.7-4.2,5.7c-2.5,4.2-3.5,9.3-4.7,14c-1.1,4.7-2.1,9.5-2.4,14.3c-0.1,1.6-0.3,3.2-0.3,4.9
		c-1.7,4.7,2.8,11.9,8,6.2c4-4.4,6.1-10.1,10.4-14.3c4.3-4.2,9-7.3,13.8-10.5C947,1023.5,947.7,1026.7,946.3,1029.3z"/>
	<path opacity="0.3" fill="#05132B" enable-background="new    " d="M792.2,1091c4.5,0.1,9.6-1.8,13.7-3.6c4.8-2.1,9.7-4.4,14-7.4
		c0.4-0.3,0-0.9-0.4-0.7c-4.5,2.7-9,5.4-14.1,7.1c-2.3,0.8-4.5,1.6-6.8,2.3c-2.2,0.7-4.5,1.1-6.6,2
		C791.9,1090.7,792,1091,792.2,1091z"/>
	<path opacity="0.3" fill="#05132B" enable-background="new    " d="M1159.1,995.1c-1.1,8.4,0.7,18.2,4,26
		c3.4,7.9,10.4,12,15.3,18.8c1.4,1.9,5.1,0.8,4.1-1.7c-0.5-1.2-1-2.4-1.7-3.5c-0.6-2-1.8-3.9-2.7-5.7c-2-4.2-3.8-8.6-5.6-12.9
		c-1.6-4.1-3.2-8.2-4.7-12.3c-1-2.8-1.9-5.8-3.4-8.4c-0.1-0.3-0.1-0.5-0.2-0.8C1163.5,991.3,1159.5,992.4,1159.1,995.1z"/>
	<path opacity="0.3" fill="#05132B" enable-background="new    " d="M1220.7,1077.1c12.2,2.6,19.1,1.9,19.3-0.9
		c-2.1,0.8-4.3,1.2-6.6,1c-1.2,0-2.4-0.1-3.6-0.2c-2.2-0.2-4.4-0.6-6.6-1c-3.8-0.7-7.6-1.6-11.4-2.4c-3.9-0.8-12.4-3.7-15.9-0.8
		c-1.4,1.2,0.4,3,1.8,2.4c1.3-0.6,5.4,0.4,7,0.7c-2.7-1.4-4.6-2.1-4.6-2.1S1207.7,1074.3,1220.7,1077.1z"/>
	<path opacity="0.3" fill="#05132B" enable-background="new    " d="M1195.2,1077.4c3.6,2.8,7.4,5.2,11.4,7.5
		c4.2,2.5,9,4.2,13.1,6.8c0.2,0.2,0.4-0.2,0.2-0.4c-3.8-2.9-6.9-6-11.1-8.4c-4.2-2.3-8.6-4.5-13.2-6.1
		C1195.2,1076.7,1194.9,1077.1,1195.2,1077.4z"/>
	<path opacity="0.3" fill="#05132B" enable-background="new    " d="M1207.8,1090.4c-3-2.1-6.1-4.2-8.7-6.8c-2.1-2-3.6-4.4-5.6-6.5
		c0.9-1.6,1.4-3.4,1.2-5.5c0-0.1,0-0.1,0-0.2c2.2-0.4,4.5-0.8,6.8-1.1c6.5-0.2,13.1,0.7,19.6,1.1c0.4,0.1,0.8,0.2,1.2,0.1
		c0.7,0,1.3,0.1,1.9,0.1c0.3,0,0.6,0,0.9,0c0.1,0,0.1,0,0.2,0c0,0,0,0,0.1,0c0.9,0,1.8-0.2,2.7-0.6c0.8-0.3,1-1.4,0.9-2.1
		c-0.8-5.3-14.5-4.6-17.9-4.4c-1.4,0.1-2.9,0.1-4.4,0.2c-6.5,0.9-11.9,2.2-11.9,2.2c0.1-0.2,0.1-0.3,0.2-0.5
		c-0.2,0.1-0.4,0.1-0.6,0.1c0.5-0.8,1-1.6,1.3-2.5c3.2-10.8,0.4-19.1-0.9-24.9c-0.5-2-0.9-3.7-1.2-5.1c0,2.2,0.2,4.4-0.1,6.6
		c-0.3,2.1-1.1,3.8-1.2,6c-0.3,4.3,0.5,8.6-0.1,12.9c-0.6,4.3-3.4,7.7-7,10.5c-0.3,0.1-0.7,0.2-1,0.3c0.8-2.1,1.5-4.3,2.1-6.6
		c1.1-3.8,3.7-11.1,0-14.2c-0.5-0.4-1.3-0.4-1.6,0.2c-2.4,4.1-0.8,10.2-2.3,14.7c-0.6,1.8-1.5,3.5-2.6,5c0.6-3.4,0.7-6.8,0.6-10.3
		c0.2-2.6,0-5.2-0.8-7.6c-0.1-0.4-0.1-0.8-0.2-1.2c-0.1-0.4-0.4-0.8-0.7-0.9c0,0,0,0,0,0c-0.7-1.3-2.4-0.5-2.6,0.7
		c-0.6,4.5-0.1,8.9-1.1,13.4c-1,4.6-2.7,7.2-6.9,7.8c-0.3-5.1-0.8-10.1-1.6-15.1c-0.3-2-0.6-4.1-1.1-6.1c-0.5-4-1.6-7.8-4-10
		c-0.6-0.6-1.5-0.3-1.8,0.5c-1.2,3.2,0.1,6.4,0.5,9.8c0.4,3.8,0.4,7.6-0.1,11.4c-0.9,7.7-2.9,14.5-6.2,21.4c-1-2.4-1.6-5.1-2.5-7.8
		c-0.7-2-1.5-4-2.6-5.8c-1.4-2.1-3.2-3.7-3.6-6.3c-0.7-4.3,0.2-9-0.2-13.5c0.4-4.2-0.1-8.8-0.2-12.8c-0.1-5.5-0.2-11.1-0.9-16.5
		c-0.7-5.5-1.8-11.8-4-17.6c1,0.1,1.7,0.5,2.6,1.2l0,0c0.8,1.4,1.5,2.9,2.2,4.4c0.2,0.4,0.8,0.1,0.7-0.3c-2-6.9-5.5-13.4-10.4-18.5
		c-4.8-5-10.7-9-16.8-12.2c-0.2-0.1-0.3-0.1-0.4-0.1c-2-1.2-3.6-1.9,0-1.7c4.2,0.3,8.6,3.3,12.3,5.1c4,2,8.1,3.9,11.8,6.2
		c2.1,1.3,4.5,2.8,6.1,4.7c1.3,1.4,1.9,3,3.3,4.2c1.5,1.3,4.2,0.5,4.2-1.7c-0.2-8.6-6.9-13.2-13.1-18.1c-3.2-2.5-6.5-5.3-9.9-7.9
		c0.1,0,0.2,0,0.3,0.1c3.3,0.6,6.6,1.8,9.9,2.6c0,0,0.1,0,0.1,0c3.4,1.4,6.9,2.8,10.1,4.7c4,2.4,6.3,5.7,9.1,9.4
		c0.8,1,1.8,1.5,2.9,1.5c-1.2-1.7-9.1-12.8-17.3-16.3c-9-3.8-17.6-2.7-17.6-2.7s-2.2-1.6-4.9-3.3c-2.7-1.6-4.7-1.5-4.7-1.5
		c-3.2-4-7-5.6-9.5-5c-2.6,0.5-7.2,5-7.2,5s-1.9-0.2-8.5,0.3c0,0,1.8,4.6,4.5,11.8c0.9,1.2,2,2.1,3.6,2.8c1.8,0.8,3.9,1.2,5.6,0.2
		c1.2,2.8,5.1,4.4,8.2,5.7c-0.8,1.1-1,2.5,0,3.7c2.8,3.8,8.1,6.3,12.2,8.8c1.3,4.2,3.4,8.1,4.7,12.3c0.1,0.2,0.1,0.4,0.2,0.6
		c-2.5,0.3-4.8,2.1-5,5.4c-0.4,6.2-1.2,12.3-1.6,18.5c-0.4,5.9,6,7.9,10.2,5.9c0,0.1,0,0.2,0,0.3c0,1.1,0,2.3-0.1,3.4
		c-1.8-0.8-3.9-0.5-5.4,1c-0.7,0.7-1.3,1.5-1.5,2.5c-0.1,0.7-0.1,1.4,0,2.1c-1.2,0.9-1.9,2.4-1.6,3.9c0.7,3.2-0.2,6.5,0.3,9.8
		c0.4,3,1.3,5.9,2.1,8.8c1.7,6,1.3,12.3,4.4,17.9c0.6,1.1,1.5,1.8,2.4,2.2c-0.3,1.8-0.7,3.6-1.3,5.4c-0.1,0.3-0.3,0.7-0.4,1
		c4.6,19.4,8.3,35.7,8.3,35.7c32.3-28.5,54.8-40.6,54.8-40.6l2.2,2.9c0.1,0,0.3,0.1,0.4,0.1l2.7-3.2c0,0,6.1,4.4,12.6,7.5
		c3.8,1.8,7.1,3.2,9.2,2.9c0,0-0.1,0-0.1-0.1C1220.4,1098.3,1214,1094.6,1207.8,1090.4z M1162.9,1076.9
		C1162.9,1076.9,1162.9,1076.9,1162.9,1076.9c0,0.1,0,0.1,0,0.1C1162.9,1077,1162.9,1076.9,1162.9,1076.9z M1164.9,1089.2
		c3.9-3.6,8.6-6.6,13-9.5c2.2-1.5,5.2-2.8,7.6-4.6c-0.2,1.4-0.4,2.9,0.6,4.1c-7.9,4.8-15.7,9.8-23.7,14.5c-0.8,0.5-1.7,1-2.5,1.5
		C1161.4,1093.1,1162.9,1091,1164.9,1089.2z M1156.8,1116.6C1156.8,1116.6,1156.8,1116.6,1156.8,1116.6
		C1156.8,1116.6,1156.8,1116.6,1156.8,1116.6C1156.8,1116.6,1156.8,1116.6,1156.8,1116.6z M1172,1109.1
		C1172,1109.1,1172,1109.1,1172,1109.1C1172,1109.1,1172,1109.1,1172,1109.1C1172,1109.1,1172,1109.1,1172,1109.1z M1187.5,1081.4
		c-1.3,1.5-2.7,3-4.2,4.3c-2.3,2.1-5.2,3.9-5.7,7.2c-0.1,1.2,1.7,1.6,2.2,0.6c1.4-2.9,4.7-4.7,7-6.9c0.2-0.2,0.4-0.3,0.6-0.5
		c-1,1.5-2,3-3.2,4.4c-2.7,3.1-5.6,6.1-8.4,9.1c-4.4,4.7-8.8,9.6-13.4,14.1c2.2-3.3,4.5-6.5,6.6-9.8c1-1,2-2.1,2.8-3.3
		c0.3-0.4-0.2-0.8-0.6-0.6c-4.2,1.9-8.3,5.3-11.6,8.5c-1.6,1.5-3,3.1-4.4,4.8c-0.8,0.9-4.1,6.2-6,6.5c0-0.1,0-0.1,0-0.2
		c3.1-8.3,11.3-12.8,17-19.1c1.4-1.2,2.8-2.3,4.1-3.6c0.2-0.2,0.5-0.3,0.7-0.5c0.2-0.1,0.3-0.3,0.3-0.5c0.5-0.4,0.9-0.9,1.4-1.4
		c0.3-0.3,0-0.9-0.4-0.7c-4.1,1.5-7.6,4-11.1,6.7c-1.5,0.9-3,1.9-4.4,3c-1.9,1.4-3.7,2.9-5.6,4.3c-0.7,0.5-1.4,0.9-2.1,1.3
		c-1.3,0.1-2-0.4-2.3-1.3c12.3-11.1,27.6-17.5,40.6-27.7c0.2,0.1,0.4,0.2,0.7,0.2C1187.9,1080.9,1187.7,1081.2,1187.5,1081.4z
		 M1190.3,1077.3c-1.6,1.3-1.8-0.6-1.8-1.9c0-0.9-0.1-1.8-0.2-2.6c0.5-0.2,0.9-0.4,1.4-0.5c0.9-0.2,1.8-0.3,2.6-0.5
		C1192.8,1073.5,1191.3,1076.5,1190.3,1077.3z"/>
	<g>
		<g>
			<path fill="#3A3E40" d="M933.4,973.4c0,0,12.9-0.1,21,0.8c31.1,3.5,49.7,27.9,80.4,25.8c30.7-2.1,48.9-3.3,44-17.4l7.4-18.3
				l0.8-1.1l8.2-0.2c0,0,9.7,8.3,16.7,14.3c7,6,15.3,13.3,19.4,20.2s6.5,19.6,6.5,19.6s-1.7,2.5-2.1,8.3c-0.3,5.7-0.3,8.2,1.2,10.5
				s3,3.7,3,3.7s-0.6,11.5-0.8,11.6c-0.1,0.1-2.5-2.5-4.9,0c-2.5,2.5-2.1,9.1-1.8,13.8s4.5,7.3,4.5,7.3s1.6,9.4,2.7,19.3
				s2.6,18.8,4,28.9c1.4,10,3.3,16.3,5.1,27.1s1.8,16.6,1.8,16.6s-6.7-2.2-16.1-4c-9.4-1.8-32.3-5-49-5.3s-46.7,0.1-64.8,1.3
				c-18.1,1.3-30.2,4.1-47.3,7.9c-17.2,3.8-31.6,9.2-35.8,9.6c-4.2,0.4-3.2,1-2.8-2.4s2.7-22.3,3.9-35.9c1.2-13.7,2.9-25.6,2.9-25.6
				s3.5-13.1,6.1-20.7c2.7-7.6,5.5-15.9,7.1-20.9c1.6-5,1.1-15.2,1.1-15.2s3-2.5,4-6.6c0.9-4.1-0.1-8.5-3-11c-2.8-2.4-4-3.4-3.2-5.7
				c0.8-2.3,1.1-3.2,2.2-8.8c1-5.6,1.3-10.4-2.2-13.4c-3.4-3-5.1-5.4-5.1-5.4s0.8-5.1,0.5-10.9c-0.3-5.9-2.2-9.4-5.4-12
				s-7.5-3.3-7.5-3.3L933.4,973.4z"/>
			<g>
				<g>
					<path fill="#EFF476" d="M944.7,982.3c2.8,0.5,5.4,0.8,6.4,3.9c0.5,1.5,0.5,2.7,1.6,3.9c1,1.1,1.7,1.2,1.1,3.1
						c-0.6,2-2.1,2.7-3.9,3.1c-1.4,0.3-2.7,0.4-3.5,1.6c-0.4,0.5,0.5,1.1,0.9,0.5c0.9-1.5,3.9-1.3,5.3-1.9c0.9-0.4,1.5-1,2-1.8
						c1-1.6,1.8-4,0.1-5.3c-0.4-0.3-0.9-0.3-1.2-0.5c-1.2-0.9-0.9-1.2-1.1-2.2c-0.3-1.3-0.4-2.6-1.3-3.7c-1.5-1.8-4.2-1.7-6.4-1.2
						C944.4,981.8,944.4,982.3,944.7,982.3z"/>
					<path fill="#EFF476" d="M965,998c0.6-0.1,0.7-1,0-1c-3.2-0.2-1.3-7.5-1.1-9.3c0.1-0.6-0.9-0.7-1-0.1c-0.7,2.3-1.7,4.8-1,7.2
						C962.3,996.3,963.1,998.3,965,998z"/>
					<path fill="#EFF476" d="M963.1,1007.8c-1.3,2.7-1,4.5,0.9,6.7c0.4,0.5,1.3-0.2,0.9-0.7c-2.9-4.2,1.1-7.5,3.8-10.2
						c0.3-0.3,0-0.7-0.4-0.7C966.1,1003.5,964.1,1005.8,963.1,1007.8z"/>
					<path fill="#EFF476" d="M991.3,1028.9c-0.8-0.6-1.3-1.5-2.5-1.4c-0.8,0.1-1.1,1.3-0.2,1.5c0.6,0.1,1,0.8,1.4,1.2
						c0.2,0.2,0.5,0.3,0.8,0.5c0.3,0.2,0.5,0.4,0.7,0.7c0.3,0.3,0.9,0.3,1.2-0.2C993.3,1030,992.2,1029.4,991.3,1028.9z"/>
					<path fill="#EFF476" d="M1000,1032.7c0.4,0.2,0.9,0.3,1.3,0c0.3-0.2,0.4-0.5,0.4-0.8c0.2-0.2,0.4-0.5,0.3-0.9
						c-0.1-0.8-0.5-1.9-1.2-2.3c-0.9-0.5-1.8,0.3-2.2,1c-0.4,0.7-0.6,1.6-0.2,2.3C998.8,1032.5,999.4,1032.8,1000,1032.7z"/>
					<path fill="#EFF476" d="M984.2,1047.8c0.5-0.1,0.7-0.7,0.2-0.9c-1.2-0.7-2.6-0.9-3.7-1.8c-0.7-0.6-1.1-1.3-1.1-2.2
						c0-0.3,0-0.9,0.2-1.2c0.3-0.5,1.2-0.6,1.8-0.4c0.8,0.4,1.5-0.8,0.7-1.2c-1-0.6-2.2-1.2-3.3-0.3c-1,0.8-1.2,2.4-1.1,3.6
						C978.2,1046.3,981.4,1048.1,984.2,1047.8z"/>
					<path fill="#EFF476" d="M970.6,1073.7c-1.5-1-3.4-1.9-5.3-2.3c0.7-1,1-2.2,0.9-3.3c-0.2-1.7-1.3-4-2.9-4.8
						c-0.6-0.2-1.3-0.3-1.8-0.1c-0.7,0.4-0.7,1.1-1.2,1.7c-0.3,0.3,0.2,0.8,0.6,0.6c0.5-0.4,0.9-1.4,1.7-1.1c1,0.3,1.7,2.9,1.8,3.7
						c0.1,0.8-0.2,1.6-0.8,2.3c-0.7,0.7-1.1,0.7-2.1,0.5c-0.8-0.2-1.5-0.5-2.3-0.7c-1-1.4-2.1-2.7-2.8-4.3c-0.4-1-1.9-0.4-1.9,0.5
						c0,2.2,0.5,3.7,1.8,5.4c1.8,2.6,2.8,4.6,4,7.6c0.7,1.7,1.5,3.5,2.7,5c1.6,1.9,3.4,2.4,5.5,3.8c0.9,0.6,1.8-1.1,0.9-1.5
						c-5.2-2.2-5.2-6.9-7-11.5c-0.3-0.9-0.8-1.7-1.3-2.5c0.6,0.2,1.2,0.2,1.7,0.2c0.9,0.4,1.9,0.7,2.9,1.1c1.2,0.6,2.3,1.2,3.5,1.9
						C970.7,1077.1,972.1,1074.7,970.6,1073.7z"/>
					<path fill="#EFF476" d="M1016.1,1094.1c0.3,0,0.5-0.4,0.3-0.7c-1.1-1.2-2.9-1.4-4,0c-1.6,2.1-0.1,5.7,0.7,7.8
						c0.9,2.3,1.9,4,4.3,4.8c1.1,0.4,2.5,0.6,3.4,0.1c6.5,0.2,5.3-11.8,4.6-15.9c-0.2-1.1-0.5-2.2-0.8-3.4c1.4-1.6,3.1-2.9,4.4-4.5
						c0.9-1.2,0.9-3.4-0.9-3.8c-1.9-0.4-2.9,1.7-3.5,3.1c-0.3,0.9-0.7,1.8-0.8,2.8c0-0.1-0.1-0.1-0.1-0.2c-0.5-1.2-1.2-2.4-1.9-3.4
						c-2.7-5.2-3.8-10.1,0.2-16c2-3,4.7-5.4,3.9-9.2c-0.1-0.6-1-0.4-1,0.1c-0.4,6.4-7.8,8.4-8,14.6c-0.1,2.4,0.7,5,1.7,7.5
						c-1.7-0.9-3.8-1.2-6.2-0.2c-0.2,0.1-0.2,0.3,0,0.4c2.8,0.9,5,0.7,7.3,3.2c1.6,1.8,2.5,4.3,3.2,6.5c1.7,5.8,2.6,13.6-3.1,16.9
						c-1.5,0.2-3.2-0.8-4-1.8c-0.7-0.9-1.1-2.2-1.4-3.3c-0.4-1.3-0.5-2.4-0.4-3.8C1014.1,1094,1014.5,1094.1,1016.1,1094.1z"/>
					<path fill="#EFF476" d="M986.3,1125.4c-0.2-0.2-0.4-0.3-0.6-0.5c-0.1-0.1-0.1-0.1-0.2-0.2l0,0c0,0,0,0,0,0c0-0.3-0.2-0.7-0.4-1
						c1.6-1.1,2.7-2.6,2.5-4.5c-0.1-0.4-0.3-0.8-0.7-1c-0.3-1.6-1.4-3.3-2.6-4.2c-0.9-0.6-2-1-3.1-0.8c-1.7,0.3-1.8,2.1-3.8-0.8
						c-0.9-1.3-1.2-3.8-1-5.3c0.2-1-1.4-1-1.2,0c0.5,2.8-0.3,6.5,2.6,8.4c0.9,0.6,1.5,0.4,2.5,0.3c1.8-0.3,3.2-0.9,4.3,1
						c0.7,1.2,0.5,2.2,0.3,3.3c-1.2,2-3.8,3.3-6,3.5c-1.1,0.1-2.5,0-3.5-0.6c-2.5-1.5-1.4-3.6,0.2-4.9c0.3-0.2,0-0.8-0.3-0.8
						c-1.7,0.1-2.9,1.2-3.1,3c-0.2,2.3,1.8,4.2,3.8,4.9c1.2,0.5,3,0.5,4.8,0.1c0.7,0.7,1.3,1.3,2.1,1.9c1,0.7,2.1,1.7,3.3,2
						c0.7,0.2,1.4-0.1,1.8-0.7c0.5-0.9,0.2-1.6-0.4-2.3C987,1126.1,986.7,1125.7,986.3,1125.4z"/>
					<path fill="#EFF476" d="M985.4,1147.5c-2.3-1.1-4.3-2.6-6.9-2.7c-1.8-0.1-3.9-0.3-5.4,1c-0.2,0.1,0,0.3,0.2,0.3
						c3.8-0.7,8.1,0.4,11.1,2.7C985.4,1149.6,986.4,1148,985.4,1147.5z"/>
					<path fill="#EFF476" d="M953.5,1159.3c-1.2-0.4-2.4-0.4-3.6-0.6c0.1-0.5,0.2-0.9,0.3-1.4c0.2-1.6,0-3.2,0.5-4.7
						c0.4-1.3,1.5-2.1,2-3.4c0.1-0.3-0.2-0.5-0.5-0.5c-2.3,0.4-2.9,3.2-3.2,5.2c-0.1-0.3-0.2-0.7-0.3-1c-0.9-2.6-2.1-5.8-4.3-7.5
						c-0.4-0.3-1.2-0.3-1.2,0.3c-0.3,2.4,0.8,4.5,1.6,6.7c0.9,2.3,1,5,2.4,7.1c-0.4,0.2-1,0.4-1.6,0.4c-1.9,0.1-4.8-0.6-6.2-1.8
						c-0.2-0.2-0.6,0.1-0.3,0.3c2.5,2.2,6.2,4.4,9.6,2.3c0.2-0.1,0.4-0.3,0.5-0.5c1.2,0.8,2.3,2.1,3.8,2.2c1.3,0.1,3.3-0.2,4.3-1.1
						c0.1-0.1,0.1-0.3,0-0.5C956.3,1159.9,954.7,1159.7,953.5,1159.3z"/>
					<path fill="#EFF476" d="M1032.6,1148.4c-1.4-0.4-6.1,1.7-5.1-1.9c0.5-2,4.5-3,5.3-5.2c1.2-3-1-4.8-3.8-5.3c-2-0.3-4.1,0-6,0.7
						c-3.5,1.2-5.1,3.6-9,2c-1.4-2.5-4.4-5.1-7-4.2c-1,0.3-0.8,1.8,0.2,1.8c6.3,0.1,7.6,10.4,0.6,10c-5.9-0.3-4.2-7.1-4.3-10.9
						c0-0.3-0.4-0.4-0.6-0.2c-1,0.9-1.5,2.2-1.7,3.6c-2.9-0.9-8.4,0-8.3,3c-0.4,0.7-0.1,1.8,0.8,2c2.2,0.5,4.9-0.7,7.1-1
						c0,0,0,0,0,0c0,1,0.2,2.1,0.6,2.9c1.6,3.3,6.1,3.8,9.1,2.4c2.6-1.1,4.3-4.1,4.1-6.9c1.5,0.7,3.1,0.6,5-0.4
						c1.5-0.7,2.9-1.5,4.5-1.8c1.2-0.3,2.5-0.3,3.7-0.2c1.3-0.3,1.6,0.3,0.9,1.6c0.1,2.9-3.2,3.6-4.3,5.9c-1,1.9-0.3,4.4,1.9,5.2
						c1.8,0.7,3.1-0.4,4.8,0.1c0.8,0.2,3.5,2.1,3.6,2.5c0.3,1.4,2.6,0.8,2.2-0.6C1036.8,1152,1034.2,1148.9,1032.6,1148.4z"/>
					<path fill="#EFF476" d="M1052,1115.9c4.2-2.3,9.3-2.4,13.9-3.4c4.9-1.1,9.4-2.6,10.3-8.1c1.3-8.1-14.3-12.5-14.4-2.8
						c0,1,1.4,1,1.6,0c1.5-1.1,3-2.2,4.5-3.3c0.9,0.3,1.7,0.7,2.6,1c0.8,0.4,2.2,0.8,2.8,1.4c4,3.8-1.9,8.2-5.5,9.1
						c-4.9,1.2-9.9,2.6-14.8,3.9c-2.7,0.7-4.7,2.1-6.1,3.9c-0.9-2.4-3-4.2-4.1-6.5c0,0,0,0,0,0c-0.7-1-2.4-0.8-2.4,0.6
						c0,3.9,3.2,6.6,4.1,10.2c0.8,3.3,0,6.1,2.2,9.1c4.7,6.6,12.8,5.7,18.9,2c0.9-0.5,0.1-1.8-0.8-1.4c-6.8,3.7-17.2,2.2-18.1-5.9
						C1047.4,1121.7,1047.8,1118.2,1052,1115.9z"/>
					<path fill="#EFF476" d="M1097,1135.2c-2.8-1.9-7.4-1.9-10.6-1.3c-10,1.8-5.4,15.6-15.2,18.2c-1,0.3-0.6,1.7,0.4,1.5
						c5-1.2,9.6-3.6,10.8-8.8c1-4.1,2-6.8,6.8-7.4c5.6-0.7,7.4,2.6,9.5,6.7c0.7,1.3,3,0.4,2.5-1
						C1100.2,1140.3,1099.5,1137,1097,1135.2z"/>
					<path fill="#EFF476" d="M1139.9,1147.8c-0.2,2.5-1.1,5.1-4.3,4c-1.9-0.6-2.8-2.2-3.9-3.7c-0.8-1-1.7-1.7-2.7-1.7
						c0.1-0.2,0.1-0.4,0.2-0.6c0.8-2.7,3.7-2.6,6-2.5c1.3,0,1.6-2.1,0.3-2.3c-2.9-0.5-6.6-0.1-8.1,2.9c-1.3,2.7-0.9,6.8,0.9,9.2
						c0.5,0.7,1.6,0.1,1.1-0.7c-0.7-1.2-0.8-3.2-0.6-4.9c1.8,0.7,2.8,3,4.1,4.4c1.1,1.2,2.5,2.1,4.2,2.1c3.5,0.1,4.7-3.3,4.9-6.3
						C1141.9,1146.5,1140,1146.5,1139.9,1147.8z"/>
					<path fill="#EFF476" d="M1110.7,1128.2c1.8,0.1,2.1-4,1.1-4.9c-0.3-0.3-0.9-0.2-1,0.3c-0.2,0.6,0.1,1.3,0,1.9
						c-0.1,0.6-0.2,1.4-0.5,2C1110.1,1127.8,1110.3,1128.2,1110.7,1128.2z"/>
					<path fill="#EFF476" d="M1126.7,1125.1c-0.8-0.3-1.5-1.1-2.3-1.6c-0.7-0.4-1.5-0.7-2.3-1c-1.4-0.5-3-0.7-4.1,0.3
						c-0.5-0.6-1.6-0.6-1.8,0.3c-0.8,3.2,0.7,11-4.5,10c-3.9-0.7-5.6-3.5-7.3-6.8c-0.3-0.5-1-0.2-0.9,0.4c1.1,4.9,4.5,8.4,9.8,8.5
						c1.8,0,3.1-0.6,3.8-2.2c0.6-1.2,0.6-2.5,0.7-3.8c0.2-1.5,0.4-3,0.5-4.6c0,0,0,0,0.1,0c1.3,0.3,2.6-0.4,3.9,0
						c0.7,0.2,1.4,0.6,2.1,0.9c0.5,0.2,1.2,0.3,1.7,0.7C1126.9,1126.9,1127.7,1125.4,1126.7,1125.1z"/>
					<path fill="#EFF476" d="M1099.9,1106.2c0.6,0.1,1.2-0.4,1-1c-0.3-1.3-1.5-2.3-2.2-3.3c-0.9-1.3-1.4-2.4-1.7-3.9
						c-0.1-0.6-1-0.5-1.1,0c-0.3,1.6,0.1,3.1,0.8,4.5C1097.3,1103.8,1098.2,1105.9,1099.9,1106.2z"/>
					<path fill="#EFF476" d="M1112.7,1096.2c0.1,0.6,0.2,1.3,0.2,1.9c0.1,0.7,0.1,1.3,0.4,1.9c0.2,0.5,1.1,0.4,1.2-0.2
						c0.3-1.3-0.4-2.8-1-3.9C1113.2,1095.7,1112.6,1095.8,1112.7,1096.2z"/>
					<path fill="#EFF476" d="M1131.2,1085.4c0.9-1.2,1.2-2.7,2-4c0.7-1.3,1.7-2.3,2.6-3.5c1.4-1.8,2.7-4,2-6.3
						c-0.1-0.4-0.8-0.4-0.9,0c-0.9,3.2-2.8,5-4.9,7.4c-1.4,1.7-2.6,3.7-2.7,5.9C1129.3,1085.9,1130.7,1086.1,1131.2,1085.4z"/>
					<path fill="#EFF476" d="M1113.2,1050.2c-0.2-0.2-0.6,0-0.6,0.3c0.5,1.8,1,3.6,1,5.5c0,2.2-0.5,4.3-0.9,6.4
						c-0.3,1,1.2,1.4,1.5,0.4C1115.5,1058.7,1116.6,1053.6,1113.2,1050.2z"/>
					<path fill="#EFF476" d="M1116.2,1044.7c-0.2,0.2-0.2,0.4-0.1,0.7c0,0.1,0.1,0.1,0.1,0.2c0.2,0.2,0.4,0.4,0.7,0.4
						c2-0.1,3.8-0.9,3.6-3.2c-0.1-1.1-1.2-4.3-2.8-3.3c-0.2,0.1-0.2,0.3-0.1,0.6c0.2,0.4,0.7,0.6,0.9,1c0.4,0.5,0.5,1.3,0.5,2
						C1119,1044.8,1117,1043.7,1116.2,1044.7z"/>
					<path fill="#EFF476" d="M1122.5,1030.3c0.9-0.4,0.4-1.8-0.5-1.8c-2,0-2.3,2.4-4.7,2c-1.9-0.3-3-1.8-5-1.4c-0.6,0.1-0.4,1,0.1,1
						c2.3,0.2,3.6,2.7,6,2.5c0.8-0.1,1.7-0.4,2.4-0.9C1121.4,1031.4,1121.8,1030.6,1122.5,1030.3z"/>
					<path fill="#EFF476" d="M1054.5,1040.4c1.6,0.6,3.5,0.6,5,0c-0.3,1-0.6,1.9-0.9,2.9c-1.5,0.7-2,2.3-2.7,4.1
						c-0.4,0.9,1.2,1.6,1.6,0.7c0.7-1.4,0.9-2.7,2.7-2.8c1.6-0.1,3.5,0.5,4.7,1.5c0.8,0.6,1.8,0.1,1.6-0.9c-0.4-2.2-4.2-3-6.1-2.9
						c1.6-4.9,4.1-9.6,10.1-9.7c3.4-0.1,6.4,0.4,9.8-0.6c4.9-1.6,7.9-5.4,7.4-10.7c-0.1-1.1-1.7-0.9-1.4,0.2
						c2.6,13.3-14.2,7.6-20.5,10.6c-0.4,0.2-0.8,0.4-1.2,0.7c0.4-1,0.5-2.2,0.6-3.1c0.3-2.2-0.1-4.3-1.7-5.9
						c-0.5-0.5-1.1-0.2-1.4,0.4c-0.8,1.9-0.6,3.7-0.6,5.7c0,1.6-0.4,3.6,0.4,5c0,0.1,0.1,0.1,0.1,0.2c-0.2,0.2-0.4,0.5-0.5,0.7
						c-0.3,0.1-0.5,0.3-0.6,0.7c0,0.2-0.1,0.3-0.1,0.4c-0.2,0.3-0.3,0.6-0.4,0.8c-0.8,0.9-2.4,1.2-3.6,1.1c-1.8,0-3-0.7-3.9-2.2
						c-1-1.8-1.6-4-1.5-6c0-0.4-0.7-0.5-0.8-0.1C1049.9,1034.4,1050.7,1039.1,1054.5,1040.4z"/>
					<path fill="#EFF476" d="M1072,1052.2c0.1,0,0.1-0.1,0.2-0.1c0.6-0.3,0.4-1.1,0-1.4c-1.8-1.3-3.4,0.7-4.4,2
						c-0.9,1.1-1.8,2.1-2.7,3.1c-0.7,0.7-1.3,1.7-2.6,1.4c-0.5-0.1-1-0.7-1.5-1c-0.7-0.4-1.7,0.4-1.2,1.2c1.7,2.2,3.8,2.6,5.8,0.8
						c1.5-1.4,2.9-2.8,4.3-4.3c0.3-0.4,0.8-0.8,1.2-1.2c0.6-0.1,0.7-0.2,0.3-0.4C1071.6,1052.2,1071.8,1052.3,1072,1052.2z"/>
					<path fill="#EFF476" d="M1116.6,995.4c0.3,0.1,0.6,0.1,0.8,0.2c0.2,0.2,0.4,0.4,0.7,0.6c0.7,0.4,1.4-0.4,1.1-1
						c-0.3-0.6-1-0.9-1.7-1c-0.3,0-0.7-0.1-1-0.1c-0.2,0-0.4-0.1-0.6-0.1c-0.2,0-0.3,0.1-0.5,0c-0.3-0.1-0.4,0.3-0.2,0.4
						c0.2,0.1,0.3,0.4,0.5,0.5C1115.9,995.2,1116.2,995.3,1116.6,995.4z"/>
					<path fill="#EFF476" d="M1114.6,984.2c3.4,2.1,7.7,3.2,10.5,6c0.5,0.5,1.4-0.3,0.8-0.8c-2.6-2.4-5.3-4-8.6-5.6
						c-4-1.9-7-4-8.8-8.1c-0.1-0.2-0.4-0.1-0.4,0.2C1108.9,979.3,1111.8,982.4,1114.6,984.2z"/>
				</g>
				<g>
					<path fill="#8B1718" d="M967.8,1019.2c0.1,0.1,0.1,0.2,0.2,0.3c0.3,0.3,0.6,0.7,0.9,1c0.6,0.7,1.9-0.2,1.3-1c0,0,0-0.1-0.1-0.1
						c0,0,0,0-0.1-0.1c0,0,0,0,0,0c-0.3-0.3-0.6-0.6-0.8-0.9c-0.2-0.2-0.5-0.4-0.7-0.6c0.2-0.7,0.2-1.4-0.1-2c-1-2.2-4.2-2.2-6-1.1
						c-0.2,0.2-0.5,0.3-0.7,0.5c-0.3-0.2-0.7-0.3-1-0.4c-0.6-0.2-1.3-0.5-2-0.4c-0.5,0.2-0.7,1-0.2,1.3c0.4,0.2,1.3,0.6,2.1,0.8
						c0,0.1-0.1,0.2-0.1,0.3c-0.1,0.1-0.2,0.2-0.2,0.4c0,0.1,0,0.2,0,0.3c0,0.2,0,0.3,0.1,0.5c0.4,2,2.1,2.8,4.3,2.5
						C965.9,1020.2,967.1,1020.1,967.8,1019.2z M964.3,1018.8c-0.9,0.2-1.7,0.5-2.3-0.4c-0.1-0.2-0.2-0.4-0.3-0.6c0-2,3.7-3,4.7-1.2
						C967.3,1018.2,965.5,1018.6,964.3,1018.8z"/>
					<path fill="#8B1718" d="M1013.4,1062.6c-0.4,0.2-0.8,0.6-1.2,0.9c-0.3,0.3-0.6,0.5-0.9,0.8c-0.5-0.4-1-0.8-1.6-1
						c-3.2-1.3-5.8,1.3-5.7,4.6c0,0.7,1.2,1,1.4,0.2c0.1-0.9,0.4-1.9,0.9-2.6c0.8-0.9,1.7-0.5,2.7-0.1c2.2,1.1,0.2,3.1,1.2,4.6
						c0.2,0.3,0.5,0.5,0.9,0.3c1.5-0.5,1.7-2.6,1.4-3.9c0-0.1-0.1-0.3-0.1-0.4c1-0.5,2.1-1.7,2.2-2.9
						C1014.7,1062.6,1013.9,1062.3,1013.4,1062.6z"/>
					<path fill="#8B1718" d="M1032.6,1053.6C1032.5,1053.5,1032.6,1053.6,1032.6,1053.6c-0.2,0,0,0-0.1-0.1
						c-0.2-0.2-0.3-0.3-0.5-0.5c-0.2-0.2-0.4-0.4-0.7-0.5c-0.2-0.1-0.3-0.2-0.5-0.2c0-1.5-0.5-2.6-1.9-3.3c-2.3-1.2-5.6-1.1-6.6,1.7
						c-0.5-0.1-1.1-0.1-1.5,0c-0.6,0.1-0.8,0.8-0.5,1.3c0.2,0.3,0.4,0.6,0.8,0.8c0.1,0.1,0.4,0.2,0.5,0.2c0.1,0,0.2,0.1,0,0
						c0.2,0.2,0.5,0.3,0.7,0.3c0.2,0.5,0.4,0.9,0.7,1.4c0.6,0.8,1.2,1.2,1.9,1.5c1.3,1,3.6,0.9,4.8-0.2c0.2-0.2,0.4-0.4,0.6-0.7
						c0.4,0.5,0.9,0.8,1.6,1.1c0.8,0.3,1.6-0.3,1.8-1C1033.8,1054.6,1033.3,1053.8,1032.6,1053.6z M1028.2,1054.2
						c-0.3,0.5-1.1,0.6-1.8,0.5c-0.2-0.3-0.3-0.7-0.5-0.9c-0.2-0.4-0.4-0.8-0.5-1.3c-0.1-1.2,0.7-1.1,1.6-0.8
						c0.5,0.1,0.8,0.3,1.1,0.8C1028.2,1052.9,1028.4,1053.8,1028.2,1054.2z"/>
					<path fill="#8B1718" d="M981.4,1101.9c-0.4,0-0.8,0-1.2,0.1c0,0-0.1,0-0.1,0c-0.7-2.8-3.8-3.8-6.4-2.6
						c-1.4,0.7-2.1,1.9-2.3,3.2c0,0-0.1,0-0.2,0c-0.4,0-0.8,0-1.2,0.1c-1.2,0.1-1.4,1.7-0.3,2c0.5,0.2,0.9,0.2,1.4,0.3
						c0.2,0,0.4,0.1,0.6,0.1c0.2,0.3,0.3,0.7,0.6,1c1.5,1.8,5.4,2.5,6.7,0.2c0.1-0.2,0.1-0.4,0.1-0.6c0.3-0.4,0.6-0.9,0.8-1.5
						c0.4,0.2,0.9,0.2,1.3,0.2c0.7,0.1,1.3-0.7,1.3-1.3C982.7,1102.6,982.1,1101.9,981.4,1101.9z M974.7,1102.4
						c0.6-0.6,2.2-0.9,2.8-0.3c0.9,0.9,0.2,3.4-1.3,3.1c-0.2-0.1-0.5,0-0.7,0.1c-0.1-0.1-0.2-0.1-0.3-0.2
						C974.3,1104.5,973.8,1103.2,974.7,1102.4z"/>
					<path fill="#8B1718" d="M968.6,1086.9c-0.7,1.1-0.7,2.7-0.4,3.9c0.1,0.3,0.2,0.6,0.4,0.8c-0.1,0.1-0.1,0.2-0.2,0.3
						c-0.3,0.4-0.5,0.7-0.6,1.2c0,0.4,0.4,0.6,0.7,0.5c0.5-0.1,0.8-0.4,1.1-0.8c0,0,0,0,0,0c0.9,0.8,2.2,1.1,3.4,1
						c3.1-0.2,4.2-4,2.6-6.4c-0.1-0.2-0.3-0.4-0.5-0.6c0.4-0.4,0.7-0.8,0.9-1.3c0.7-1.3-1.2-2.5-2-1.2c-0.2,0.3-0.5,0.8-0.7,1.2
						C971.6,1085.1,969.7,1085.2,968.6,1086.9z M973.5,1089c0.3,0.5,0.5,1.2,0.3,1.8c-0.2,0.8-0.8,1-1.6,0.8
						c-0.6-0.1-1.2-0.4-1.6-0.8c-0.1-0.1-0.2-0.2-0.3-0.4c-0.1-0.7,0-1.4,0.2-1.9C971.3,1087.4,972.9,1088.1,973.5,1089z"/>
					<path fill="#8B1718" d="M957.9,1148.5c0.7-1.1,0.3-2.4,0-3.6c-0.4-1.3-0.8-2.6-1.8-3.6c-1.2-1.2-3.7-1.3-4.8,0
						c-0.2-0.1-0.3-0.2-0.5-0.3c-0.4-0.3-0.7-0.6-1.2-0.8c-0.5-0.2-0.9,0.1-0.8,0.6c0.1,0.5,0.4,0.9,0.8,1.3
						c0.2,0.2,0.2,0.3,0.4,0.6c0.2,0.3,0.3,0.5,0.6,0.7c-0.5,1.7,0,3.8,1.1,5c1.1,1.2,3.2,1.8,4.9,1.3c0.1,0.2,0.2,0.4,0.4,0.6
						c0.3,0.4,1,0.3,1.4,0c0.4-0.4,0.3-1,0-1.4C958.1,1148.8,958,1148.6,957.9,1148.5z M952.4,1146.7c-0.5-0.8-0.6-2.1-0.4-3.1
						c1.2-0.6,1.7-1.8,3-0.3c0.8,1,1.7,2.6,1,3.9C955.3,1148.7,953.1,1147.8,952.4,1146.7z"/>
					<path fill="#8B1718" d="M972.4,1145.9c-1,0.1-2,0.2-2.7,1.1c-0.2,0.3-0.4,0.7-0.5,1c0,0,0,0-0.1,0c-0.2,0-0.4-0.1-0.7-0.1
						c-0.1,0-0.1,0-0.1,0c-0.2,0-0.4-0.1-0.6-0.1c-0.4-0.1-0.8-0.2-1.2-0.2c-0.6,0-1.2,0.4-1.4,1c-0.4,2,1.9,2.7,3.5,2.8
						c0.1,0,0.1,0,0.2,0c0,0.3,0,0.6,0.1,0.9c0,0.1,0.2,0.2,0.3,0.2c1.6,0,1.6-2.6,2-3.7c0.4-0.9,1.1-0.7,1.7-0.2
						c0.7,0.7,1.5,1.1,2.3,0.3c0.7-0.6,0.5-1.5,0-2.1C974.5,1145.9,973.5,1145.8,972.4,1145.9z"/>
					<path fill="#8B1718" d="M1072.3,1130.5C1072.3,1130.5,1072.3,1130.5,1072.3,1130.5c0.1-0.8,0-1.4,0-2.1c0-0.8,0.1-1.5-0.3-2.3
						c-1.3-2.7-6.2-2.2-7.7,0c0,0.1-0.1,0.1-0.1,0.1c0,0-0.1,0-0.1,0c-0.6-0.3-1.2-0.5-1.9-0.5c-0.2,0-0.5,0-0.7,0.1
						c-0.1,0-0.2,0.1-0.3,0.1c-0.8-0.1-1.3,0.9-0.6,1.4c0,0,0,0.1,0,0.1c0.1,0.2,0.2,0.3,0.3,0.5c0.3,0.5,0.6,0.8,1,1.1
						c0.4,0.3,0.8,0.5,1.2,0.7c0,0.2,0,0.5,0.1,0.8c0.2,0.7,0.6,1.4,1.2,2c1.1,1.5,4,1.6,5.6,0.8c0.4-0.2,0.7-0.4,1-0.7
						c0.2,0.4,0.5,0.7,0.7,1c0.8,1.6,3.5,0.1,2.5-1.4C1074,1131.5,1073.2,1130.9,1072.3,1130.5z M1069.8,1130.9
						c-0.4,0.6-1.4,0.8-2.1,0.7c-0.7,0-1-0.3-1.3-0.8c-0.1-0.5,0-1.1,0.2-1.6c0.2-0.5,0.4-1.1,0.9-1.2c0.4-0.1,1.2,0.1,1.5,0.2
						C1070,1128.6,1070.3,1130.1,1069.8,1130.9z"/>
					<path fill="#8B1718" d="M1109.7,1141.5c-0.2,0-0.5,0-0.7,0.1c-0.1-0.2-0.3-0.4-0.5-0.6c-2.5-2.7-6.5-0.8-8.4,1.7
						c-1.2,1.7-1.7,4.2-0.6,5.8c-0.1,0.1-0.2,0.2-0.4,0.3c-0.6,0.5-1.1,1.1-1.1,1.9c0,0.9,1.3,1.6,1.9,0.8c0.3-0.3,0.5-0.6,0.8-0.9
						c0.4-0.3,0.4-0.4,0.8-0.6c0.1,0,0.1-0.1,0.1-0.1c0,0,0,0,0,0c0,0,0,0,0.1,0c0.4,0.2,0.8,0.4,1.1,0.5c1.5,0.4,3.4-0.3,4.6-1.2
						c1.7-1.2,2.4-3.5,2.1-5.5C1111,1143.6,1111,1141.4,1109.7,1141.5z M1105.3,1147.6c-0.8,0.2-1.6,0.4-2.3,0.1
						c-0.5-0.2-0.8-0.5-1.4-0.5c-0.6-2,3-6.6,4.8-3.1c0.3,0.6,0.8,1.3,0.7,2C1107.1,1147.2,1106.3,1147.4,1105.3,1147.6z"/>
					<path fill="#8B1718" d="M1132.1,1122.6c-1.1-0.8-2.2-1-3.2-0.7c-0.2-0.4-0.4-0.8-0.5-1.2c-0.2-0.7-0.3-1.6-0.7-2.1
						c-0.3-0.4-1.1-0.6-1.4,0c-0.4,0.8-0.2,1.8,0.1,2.7c0.2,0.6,0.4,1.2,0.8,1.7c-0.6,0.6-0.9,1.5-0.9,2.6c0,0.2,0,0.5,0,0.7
						c0.1,2.4,2.2,4.8,4.5,4.6c0,0,0,0,0,0c0,0.1,0,0.2,0,0.3c0,0.4,0,0.7,0.1,1c0,0.2,0.1,0.4,0.1,0.6c0,0.1,0.1,0.2,0.1,0.3
						c0,0,0,0,0,0c0.7,1.1,2.7,0.5,2.2-0.9c0-0.1-0.1-0.2-0.1-0.3c-0.1-0.2-0.2-0.4-0.3-0.5c-0.1-0.2-0.3-0.4-0.4-0.6
						c-0.1-0.1-0.2-0.2-0.2-0.3C1134.5,1128.6,1134.1,1124,1132.1,1122.6z M1130.6,1124.5c0.8,0.6,1.2,2.5,0.7,3.4
						c-0.5,0.9-1.4,0.7-2.1,0.1c-0.4-0.4-0.7-0.9-0.9-1.5C1128,1125,1129,1123.2,1130.6,1124.5z"/>
					<path fill="#8B1718" d="M1117.7,1095.2c-0.2-0.1-0.5-0.1-0.7-0.2c-0.2-0.1-0.4-0.3-0.7-0.4c-0.4-0.2-0.8-0.4-1.1-0.8
						c-0.1-0.1-0.1-0.1-0.2-0.2c0-1.4-0.6-3-1.8-3.7c-1.4-0.8-3.1-0.1-4,1.1c-0.6-0.4-1.3-0.8-2-0.9c-0.5-0.1-1,0.1-1.1,0.6
						c-0.1,0.5,0.2,1,0.6,1.1c0.3,0.1,0.5,0.2,0.7,0.5c0.2,0.2,0.4,0.4,0.7,0.5c0,0.9,0.2,1.8,0.7,2.5c0.5,0.8,1.3,0.9,2.1,1.2
						c1.6,0.6,3.2,0.2,3.8-1.4c0.2,0.2,0.4,0.3,0.7,0.4c0.2,0.1,0.4,0.2,0.6,0.4c0.2,0.1,0.2,0.3,0.4,0.6c0.3,0.6,1.2,0.7,1.7,0.2
						c0.1-0.1,0.1-0.1,0.2-0.2C1118.7,1096.2,1118.4,1095.4,1117.7,1095.2z M1111,1095.3c-0.9-0.4-1.3-1.1-1.3-2
						c0.3,0,0.6,0,0.8-0.3c0.5-0.6,1.1-0.8,1.9-0.7c0.9,0.1,1.1,0.9,1.1,1.7C1113.4,1095.4,1112.2,1095.8,1111,1095.3z"/>
					<path fill="#8B1718" d="M1134.7,1090.8c-0.3-0.5-0.7-0.7-1.3-0.9c-0.4-0.1-0.8-0.1-1.2,0c-0.2,0-0.4-0.1-0.7-0.1
						c0-0.3,0.1-0.5,0-0.8c0-1.1-0.3-2.7-1-3.7c-0.7-1-2.3-1.3-3.5-1.1c-0.7,0.1-1.3,0.5-1.8,1.1c-0.9-0.6-2-1.1-2.8-1.8
						c-0.8-0.7-2.1,0.4-1.2,1.2c0.9,0.9,1.8,1.8,3,2.4c-0.2,0.6-0.2,1.2-0.1,1.8c0,1.8,1.4,3.8,3,4.2c2,0.5,3.6-0.7,4.2-2.4l0,0
						c0.1,0.1,0.2,0.1,0.3,0.2c0,0,0.1,0.1,0.1,0.1c0.1,0.2,0.2,0.4,0.3,0.5c0.3,0.3,0.5,0.6,0.9,0.8c0.5,0.3,1.1,0.2,1.5-0.2
						C1134.8,1091.9,1135,1091.2,1134.7,1090.8z M1127.3,1091.3c-0.8-0.4-1.1-1.4-1.3-2.3c-0.1-0.3-0.1-0.7,0-1.1
						c0.1-0.7,0.2-0.7,0.9-0.8c0.5-0.1,1.3-0.2,1.8,0.1c0.5,0.3,0.7,1,0.8,1.5C1129.7,1089.9,1129,1092.1,1127.3,1091.3z"/>
					<path fill="#8B1718" d="M1099.1,1065.6c1.1-0.7,1.6-1.8,1.6-3.1c0-1.3-0.2-2.7-1.1-3.7c-0.9-1.1-2.3-1.3-3.7-1.2
						c-0.9,0.1-1.7,0.4-2.3,0.9c-0.1-0.1-0.3-0.1-0.4-0.1c-0.6-0.2-1.1-0.2-1.7-0.1c-0.4,0.1-0.9,0.4-1.4,0.3
						c-0.7-0.1-0.8,0.9-0.3,1.2c0.2,0.1,0.4,0.3,0.6,0.4c0.2,0.1,0.4,0.2,0.7,0.3c0,0,0,0,0,0c0.1,0.1,0.3,0.2,0.4,0.3
						c0.2,0.1,0.3,0.2,0.5,0.3c-0.1,0.6-0.1,1.2,0,1.9c0.4,2.1,2.5,3.7,4.6,3.2C1097.4,1066.4,1098.4,1066,1099.1,1065.6z
						 M1094.7,1062.1c0.3-0.8,1.4-1.5,2.3-1.2c0.5,0.2,1.1,1.7,0.9,2.3c-0.1,0.7-1.2,0.9-1.8,1.2
						C1095,1064.4,1094.3,1063,1094.7,1062.1z"/>
					<path fill="#8B1718" d="M1121.2,1027.7c0.2,1.1,0.5,2.2,1.6,2.8c1.2,0.6,2.5,0.3,3.7-0.2c0.2-0.1,0.4-0.2,0.6-0.3
						c0.1,0.2,0.2,0.4,0.3,0.6c0.1,0.1,0.2,0.3,0.3,0.4c0.1,0.1,0.1,0.2,0.2,0.3c-0.1-0.2-0.1-0.2,0,0c0.3,0.9,1.3,1.4,2.2,0.9
						c0.9-0.5,0.9-1.6,0.3-2.3c-0.3-0.3-0.6-0.5-1.1-0.9c-0.2-0.1-0.4-0.2-0.6-0.4c0.9-1.1,1.2-2.6,0.7-4.1c-0.7-2-2.4-2.9-4.2-2.6
						c-0.3-0.2-0.6-0.2-1-0.1c-0.4,0.1-0.8,0.3-1.1,0.5c-0.4-0.3-0.8-0.5-1.2-0.7c-0.6-0.2-1-0.1-1.5,0.2c-0.5,0.2-0.6,0.8-0.4,1.2
						c0,0,0,0,0,0c0,0.2,0.1,0.3,0.2,0.5c-0.1-0.3,0.1,0.2,0.1,0.2c0.2,0.4,0.4,0.8,0.8,1.1c0.1,0.1,0.2,0.2,0.3,0.3
						C1121,1026,1121,1026.9,1121.2,1027.7z M1126.4,1025.3c0.7,1,0.6,2-0.5,2.6c-1.1,0.6-3,1.1-3-0.8c0-0.5,0.2-1.4,0.5-1.8
						c0.2-0.2,0.4-0.3,0.6-0.4C1124.9,1024.8,1126,1024.6,1126.4,1025.3z"/>
					<path fill="#8B1718" d="M1126.2,993.9c0.7,0.5,1.4,1,2.2,0.7c0.7-0.2,1.6-0.8,1.5-1.5c0-0.3-0.2-0.6-0.6-0.5
						c-0.5,0-0.6,0.2-1,0.5c-0.5,0.4-0.9,0.2-1.4-0.2c-0.5-0.3-0.6-0.7-0.6-1.3c0-0.4-0.2-0.9,0-1.3c0.2-0.3-0.2-0.7-0.5-0.4
						C1124.5,990.9,1124.9,993,1126.2,993.9z"/>
				</g>
			</g>
			<g>
				<g>
					<g>
						<path fill="#FFDB94" d="M1083.1,1038c1-0.4,1.4-1.1,1.7-2c0.5-1.2,0.9-2.2,1.1-3.4c0.1-1.1-1.4-1.5-1.6-0.4
							c-0.1,0.8-0.3,1.6-0.8,2.2c-0.7,0.9-1.5,0.8-2.5,0.6s-2.2-0.8-3.3-0.7c-1,0.1-1.4,1.3-0.5,1.9
							C1078.8,1037.2,1081,1038.8,1083.1,1038z"/>
						<path fill="#FFDB94" d="M1023.7,1037.2c0.6-1.9,0.2-3.9-0.2-5.8c-0.3-1.3-2.5-1.1-2.4,0.3c0,1-0.4,2-0.6,3
							c-0.2,0.9-0.3,1.6-0.8,2.5c-0.7,1.1-1.7,1.9-2.3,2.9c-0.1,0-0.1,0.1-0.2,0.1c-1.3,0.8-0.8,3,0.8,2.9
							C1020.3,1043,1024.6,1039.9,1023.7,1037.2z"/>
						<path fill="#FFDB94" d="M1025.6,1069.1c1.8-2.2,1.3-6.6-0.1-8.8c-0.7-1.1-2.7-0.4-2.2,0.9c0.5,1.4,0.3,3.6-0.4,5
							c-0.5,0.9-2.4,2.1-3.5,2c-0.9-0.1-1.2,1.1-0.7,1.6C1020.6,1071.8,1023.9,1071.1,1025.6,1069.1z"/>
						<path fill="#FFDB94" d="M1030.9,1090.2c0.2,4-4.9,5.9-7.3,8.2c-0.2,0.2-0.3,0.7-0.1,0.9c1.3,2.2,5.1-0.2,6.4-1.3
							c2.5-2.1,3.2-4.7,2.8-7.8C1032.6,1089.1,1030.8,1089,1030.9,1090.2z"/>
						<path fill="#FFDB94" d="M1030.3,1115.7c-0.4,0.1-0.8,0.2-1,0.6c-0.2,0.4-0.1,0.8-0.2,1.2c-0.2,0.7-0.7,1.3-1.2,1.7
							c-1.6,1.5-4.3,3.4-6.6,3.2c-1.1-0.1-1.2,1.3-0.5,1.9c2.5,1.8,5.3,0.5,7.5-1c2.2-1.6,4-3.8,3.1-6.7
							C1031.3,1116.1,1030.8,1115.6,1030.3,1115.7z"/>
						<path fill="#FFDB94" d="M1088.7,1116.6c-1.3,0.1-2.8-0.5-3.6-1.5c-0.7-0.8-1.2-2-2-2.7c-0.5-0.4-1.2-0.3-1.5,0.2
							c0,0,0,0.1-0.1,0.1c-0.2,0.3-0.2,0.8,0,1.1c0.8,1.5,1.9,2.8,2.9,4.2c1,1.5,2.5,2.2,4.3,2.2c0.9,0,1.8-0.8,1.8-1.8
							c0-0.2,0-0.3-0.1-0.5C1090.2,1117.2,1089.5,1116.6,1088.7,1116.6z"/>
						<path fill="#FFDB94" d="M1096.9,1087.9c-0.1,0.1-0.1,0.1,0-0.1c0.1-0.3,0.2-0.5,0.2-0.8c0.1-0.8-1.1-1.1-1.5-0.5
							c-0.7-0.2-1.5,0-2.2-0.1c-0.5-0.1-1.1-0.1-1.5,0.4c-0.5,0.5-0.5,1.2-0.1,1.8c0.7,1.2,2.5,1,3.6,0.8c0.6-0.1,1.4-0.5,1.5-1.2
							C1097,1087.9,1097,1087.8,1096.9,1087.9z"/>
						<path fill="#FFDB94" d="M1092,1057.6c0.1-0.6-0.9-0.8-1.1-0.3c-0.3,0.6-0.6,1.1-0.8,1.7c-0.3,0.7-0.3,1.7-1.1,2.1
							c-1.8,0.8-2.7-1.1-4.3-1.1c-0.6,0-1.2,0.5-1.3,1c-0.8,3.2,4.1,3.9,6.2,3c1.2-0.5,2-1.5,2.4-2.7
							C1092.3,1060,1091.8,1058.9,1092,1057.6z"/>
					</g>
					<path fill="#153F35" d="M1025.6,1066.3c3.2-3.7,9.4-4.5,13.8-6.3c4.3-1.8,8.6-4,12.7-6.3c8.7-4.8,16.9-10.2,25.6-15.1
						c1.8-1,0.2-3.6-1.6-2.7c-9.4,4.6-18.3,10.3-27.4,15.4c-4.5,2.5-9.1,4.7-13.9,6.7c-4.2,1.8-7.8,3.1-10.7,6.7
						C1023.2,1065.9,1024.7,1067.4,1025.6,1066.3L1025.6,1066.3z"/>
					<path fill="#153F35" d="M1029.5,1095.4c4.2-0.3,7.8-2.7,11.2-5.1c4.7-3.3,9.5-6.5,14.4-9.5c10.2-6.4,20.5-13,31-18.8
						c1.9-1.1,0.2-3.9-1.7-2.9c-10.1,5.5-19.8,11.4-29.5,17.6c-4.5,2.9-8.9,5.9-13.2,9c-4.1,3-8.5,5.3-12.6,8.2
						C1028.5,1094.3,1028.6,1095.4,1029.5,1095.4L1029.5,1095.4z"/>
					<path fill="#153F35" d="M1028.6,1120.7c10.9-4.1,21.2-9.2,31.4-14.6c10.8-5.8,22.3-10.9,32.4-17.8c1.9-1.3,0.1-4.5-1.8-3.1
						c-10.1,6.9-21.6,12.1-32.4,17.8c-5.3,2.8-10.6,5.8-16.2,8.3c-5,2.2-10.4,3.8-14.6,7.4
						C1026.5,1119.4,1027.4,1121.1,1028.6,1120.7L1028.6,1120.7z"/>
					<path fill="#34AF93" d="M1092.7,1083c-11.3-3.7-23-6.8-34.5-10c-5.6-1.6-11.3-2.9-16.9-4.4c-3.2-0.9-6.5-2-9.8-2.8
						c3.6-0.5,7.7-0.3,10.6-0.6c4.8-0.4,9.7-0.8,14.5-1.2c10-0.8,20.1-0.8,30.1-1.5c1.7-0.1,2.1-2,1.2-2.9c0-0.6-0.3-1.1-1-1.4
						c-17.2-7.6-34.7-13.7-52.5-19.6c4.2,0,8.4,0,12.6,0c11,0,21.9,0,32.9,0.5c2.4,0.1,2.4-3.7,0-3.8c-10-0.4-19.9-0.8-29.9-0.9
						c-4.6,0-9.3-0.1-14,0.1c-4.4,0.1-9.1-0.2-13.4,0.2c0,0,0,0,0,0c-1.5-0.5-2.6,1.9-1.1,2.6c9.7,4.2,20.1,7,30,10.8
						c9.1,3.5,18.2,7.1,27.3,10.9c-9,0-18,0.6-27,1.1c-5.5,0.3-11,0.8-16.5,1.3c-4.1,0.4-8.1,0.3-11.2,3.2c-0.2,0.2-0.3,0.4-0.4,0.6
						c-0.5,0.7-0.6,1.8,0.3,2.3c4.7,2.4,10.2,3.2,15.3,4.5c5.9,1.5,11.8,3.3,17.8,5c9.4,2.7,18.7,5.6,28,8.7
						c-8.8,0.6-17.7,1.7-26.4,2.8c-9.7,1.2-20.6,1.3-29.9,4.3c0,0-0.1,0-0.1,0.1c-1.9,0.1-2.1,3-0.2,3.6c9.3,2.9,18.9,4.7,28.1,8.2
						c8.2,3.1,16.3,7.1,23.9,11.7c-7.9,1.6-16.3,2.3-24.3,2.4c-9.2,0.1-18.2-1.6-27.4-1.3c-1.9,0.1-2.4,2.9-0.5,3.4
						c9.2,2.5,19.3,1.8,28.8,1.5c9.6-0.3,19.2-0.7,28.6-2.9c1.8-0.4,1.8-2.5,0.8-3.5c-0.1-0.3-0.4-0.6-0.8-0.8
						c-8.8-5.3-17.8-10-27.3-13.8c-5.4-2.1-11.1-4.3-16.8-5.9c6.1-0.8,12.2-2.1,18.1-2.8c10.7-1.3,21.5-2,32.2-3.3
						c1.1-0.1,1.7-1,1.8-1.9C1094.7,1086,1094.7,1083.7,1092.7,1083z"/>
					<g>
						<g>
							<path fill="#FFFAE6" d="M1043.8,1085.8c-1.6-1-4.3-0.8-5.6,0.7c0,0-0.1,0.1-0.1,0.1c-0.3,0.3-0.5,0.6-0.7,1
								c-0.1,0-0.1,0.1-0.2,0.1c-0.1,0.1-0.3,0.3-0.4,0.4c-2.2,2.4-3.4,6.2-1.8,9.2c1.5,2.8,5,3.9,8,3.1c2.6-0.7,4.1-2.6,4.5-4.8
								C1048.4,1092,1046.8,1087.7,1043.8,1085.8z"/>
							<path fill="#FFFAE6" d="M1062.7,1076.4c-0.9-1.6-2.6-2.7-4.3-3c-0.1,0-0.2-0.1-0.2-0.1c-1.2-0.3-2.3-0.2-3.3,0.3
								c-1.3,0.5-2.5,1.6-3,2.9c-1.2,2.1-1.2,4.5-0.2,6.6c0,0,0,0,0,0.1c2.2,4.5,8.7,4.6,11.2,0.3c0.7-1.2,0.9-2.5,0.8-3.9
								C1063.7,1078.6,1063.3,1077.5,1062.7,1076.4z"/>
							<path fill="#FFFAE6" d="M1083.2,1088.8c-0.7-1.9-1.8-4-3.8-4.8c-1.2-0.5-2.5-0.9-3.8-0.5c-1.1,0.3-1.9,0.9-2.6,1.8
								c0,0,0,0,0,0c-1.5,1.3-2.5,3.1-2.8,4.9c0,0.2-0.1,0.4-0.1,0.6c-0.1,1.1,0.1,2.1,0.6,3.1c0.4,2.7,3.2,4.7,5.8,4.7
								c2.4,0,4.9-1.2,6.2-3.4c0.2-0.2,0.3-0.5,0.4-0.8C1083.9,1092.7,1083.9,1090.7,1083.2,1088.8z"/>
							<path fill="#FFFAE6" d="M1035.9,1052.7c4.3-1,5.5-5.5,4.7-9.4c-0.1-0.2-0.1-0.5-0.2-0.7c-0.7-2.7-2.5-4.9-4.8-6
								c-1-0.6-2.2-0.9-3.4-0.7c-0.4,0-0.8,0.1-1.3,0.2c-1.8,0.4-3,2-3.4,3.7c-1.7,2.1-2.9,4.6-2.1,7.2c0.2,0.6,0.5,1.2,0.8,1.7
								c0.8,1.2,1.9,2.2,3.1,3C1031.3,1053.1,1033.6,1053.2,1035.9,1052.7z"/>
							<path fill="#FFFAE6" d="M1055.8,1060.1c2.4-0.3,4.2-2.2,4.9-4.5c0.5-1.4,0.4-3-0.1-4.4c-0.1-0.4-0.3-0.8-0.5-1.1
								c-0.8-1.4-2.4-3-4.1-3.3c-1.4-0.2-2.6-0.2-3.8,0.5c-0.2,0.1-0.4,0.3-0.7,0.5c-0.7,0.4-1.3,0.8-1.7,1.4
								c-0.2,0.2-0.3,0.4-0.4,0.6c-0.9,1.2-1.5,2.7-1.5,4.3c0,2.7,1.6,5,4.1,5.8C1053.2,1060.2,1054.6,1060.2,1055.8,1060.1z"/>
							<path fill="#FFFAE6" d="M1075.9,1045.9c1.3-1.4,1.8-3,1.9-4.8c0-0.2,0-0.3,0-0.5c0-1.3-0.4-2.7-1.1-3.8
								c-0.4-0.5-0.8-1.1-1.2-1.6c-0.2-0.2-0.4-0.5-0.6-0.7c-0.4-0.5-0.9-0.9-1.4-1.2c-2.2-1.3-5.6-0.6-6.8,1.7
								c-0.1,0.2-0.4,0.5-0.5,0.7c-0.9,0.9-1.3,2-1.6,3.3c-0.2,0.9-0.2,1.8,0,2.6c0.2,1,0.7,2,1.3,2.9c0.1,0.1,0.1,0.2,0.2,0.2
								c0,0.2,0.8,1,1,1.2c0.8,0.7,1.8,1.3,2.9,1.6C1072,1048.1,1074.5,1047.5,1075.9,1045.9z"/>
							<path fill="#FFFAE6" d="M1077.7,1072.7c2.2-1.2,3-3.5,3.3-5.8c0-0.1,0-0.3,0-0.4c0-0.4,0.1-0.9,0.1-1.3c0-1-0.2-1.8-0.6-2.6
								c-0.1-0.3-0.2-0.6-0.4-0.9c-1.4-2.4-4.1-3.2-6.7-2.8c-2.5,0.4-4.4,2.2-5.2,4.5c-0.6,1.5-0.7,3.2-0.2,4.8
								c0.6,1.8,1.7,3.6,3.3,4.6C1073.2,1073.9,1075.7,1073.8,1077.7,1072.7z"/>
							<path fill="#FFFAE6" d="M1035.7,1077.6c0.3,0,0.5-0.1,0.8-0.1c0.3,0,0.7-0.1,1-0.2c0.7-0.2,1.2-0.5,1.7-0.8
								c1.7-1.1,2.9-2.8,3.2-5.2c0.2-1.4,0.2-2.8-0.1-4c-0.1-0.4-0.2-0.8-0.4-1.2c-0.1-0.7-0.2-1.4-0.6-2.1
								c-1.3-2.4-4.6-3.5-7.2-2.8c-3.8,1.1-7.3,5.5-6,9.6c0,0.1,0,0.1,0.1,0.2c0.9,2.3,2.6,4.7,4.8,5.8
								C1033.7,1077.4,1034.7,1077.8,1035.7,1077.6z"/>
						</g>
						<path opacity="0.3" fill="#05132B" enable-background="new    " d="M1029.3,1051.8c2,1.3,4.3,1.4,6.6,0.9
							c4.3-1,5.5-5.5,4.7-9.4c-0.3-0.8-0.6-1.6-1.1-2.4c-1.2-2.2-3.3-3-5.7-3.3c-2.1-0.2-4.4,1.4-5.4,3.1c-0.8,1.4-1.2,3.3-1.6,4.9
							c-0.2,1-0.4,2.1-0.6,3.1C1027.1,1050,1028.1,1051,1029.3,1051.8z"/>
						<path opacity="0.3" fill="#05132B" enable-background="new    " d="M1052,1059.8c1.2,0.4,2.6,0.4,3.8,0.3
							c2.4-0.3,4.2-2.2,4.9-4.5c0.5-1.4,0.4-3-0.1-4.4c-1.5-1.8-3.7-3.1-6.1-3.1c-1.9,0-3.6,0.6-5.1,1.6c-0.9,1.2-1.5,2.7-1.5,4.3
							C1047.9,1056.7,1049.4,1058.9,1052,1059.8z"/>
						<path opacity="0.3" fill="#05132B" enable-background="new    " d="M1066.1,1044.8c0,0.2,0.8,1,1,1.2c0.8,0.7,1.8,1.3,2.9,1.6
							c2,0.6,4.5,0,5.9-1.6c1.3-1.4,1.8-3,1.9-4.8c0-0.2,0-0.3,0-0.5c-0.9-3.3-4.3-6-7.9-4.9c-2.7,0.8-4.6,3.3-5.4,5.9
							c0.2,1,0.7,2,1.3,2.9C1066,1044.6,1066,1044.7,1066.1,1044.8z"/>
						<path opacity="0.3" fill="#05132B" enable-background="new    " d="M1067.9,1068.1c0.6,1.8,1.7,3.6,3.3,4.6
							c2,1.2,4.5,1.1,6.5,0c2.2-1.2,3-3.5,3.3-5.8c0-0.1,0-0.3,0-0.4c-0.1-0.6-0.3-1.3-0.7-1.9c-1.2-2.1-3.1-3.4-5.5-3.7
							c-2.5-0.3-5,0.7-6.8,2.4C1067.5,1064.8,1067.4,1066.5,1067.9,1068.1z M1078,1070.4c0-0.2,0.1-0.5,0.1-0.7
							C1078,1069.9,1078,1070.1,1078,1070.4L1078,1070.4z"/>
						<path opacity="0.3" fill="#05132B" enable-background="new    " d="M1070.7,1093.9c0.4,2.7,3.2,4.7,5.8,4.7
							c2.4,0,4.9-1.2,6.2-3.4c0.2-0.2,0.3-0.5,0.4-0.8c0-0.7-0.1-1.3-0.1-1.9c-0.2-1.5-0.4-2.7-1.4-3.9c-0.8-1.1-2-2-3.4-2.3
							c-3-0.7-5.6,0.5-7.3,3c-0.2,0.3-0.4,0.7-0.6,1c0,0.2-0.1,0.4-0.1,0.6C1070.1,1091.9,1070.3,1093,1070.7,1093.9z"/>
						<path opacity="0.3" fill="#05132B" enable-background="new    " d="M1062.9,1083.6c0.7-1.2,0.9-2.5,0.8-3.9
							c-0.7-1.8-1.9-3.4-3.8-4.5c-3.1-1.7-7.6,0.3-7.6,4.1c-0.5,1.3-0.7,2.6-0.7,4C1053.9,1087.8,1060.4,1087.9,1062.9,1083.6z"/>
						<path opacity="0.3" fill="#05132B" enable-background="new    " d="M1033,1076.8c0.8,0.6,1.7,0.9,2.8,0.8
							c0.3,0,0.5-0.1,0.8-0.1c0.3,0,0.7-0.1,1-0.2c0.7-0.2,1.2-0.5,1.7-0.8c1.7-1.1,2.9-2.8,3.2-5.2c0.2-1.4,0.2-2.8-0.1-4
							c-0.3-0.9-0.8-1.7-1.4-2.4c-1.8-1.9-4.5-2.4-6.9-1.4c-0.9,0.4-1.6,0.9-2.3,1.7c-0.2,0.3-0.4,0.5-0.6,0.7
							c-0.2,0.2-0.4,0.3-0.6,0.5c-1.2,1.2-2,2.9-2.4,4.4c0,0.1,0,0.1,0.1,0.2C1029,1073.4,1030.7,1075.7,1033,1076.8z M1040,1072.1
							c0.3-0.5,0.3-0.4-0.1,0.2c0,0-0.1,0-0.1,0.1C1039.8,1072.2,1039.9,1072.2,1040,1072.1z"/>
						<path opacity="0.3" fill="#05132B" enable-background="new    " d="M1037.3,1087.7c-0.1,0.1-0.3,0.3-0.4,0.4
							c-2.2,2.4-3.4,6.2-1.8,9.2c1.5,2.8,5,3.9,8,3.1c2.6-0.7,4.1-2.6,4.5-4.8c-0.2-2-0.9-4-2.3-5.4
							C1043.3,1088,1040.1,1087,1037.3,1087.7z M1041.5,1094.7c0.3,0.1,0.6,0.2,0.9,0.4C1042.1,1094.9,1041.8,1094.8,1041.5,1094.7z
							 M1043.7,1095.6C1043.7,1095.5,1043.7,1095.4,1043.7,1095.6L1043.7,1095.6z"/>
					</g>
					<g>
						<g>
							<path fill="#5C58FF" d="M1018,1041.9C1018,1041.9,1018,1041.8,1018,1041.9C1017.9,1041.8,1017.9,1041.9,1018,1041.9
								L1018,1041.9z"/>
						</g>
					</g>
				</g>
				<path fill="#A1A6BF" d="M998.2,1106.8c-0.2-0.2-0.5-0.4-0.8-0.5C997.6,1106.4,997.9,1106.6,998.2,1106.8
					C998.2,1106.8,998.2,1106.8,998.2,1106.8z"/>
				<path fill="#A1A6BF" d="M1015.2,1114.6c-0.1,0.4-0.4,0.8-0.8,0.9c-0.3,0.3-0.8,0.5-1.3,0.3c-1.4-0.4-5-2-5.9,0
					c-0.3,0.7-1.5,0.5-1.2-0.3c0.5-1.9,2.5-2.8,4.5-2.8c-1.7-0.8-3.6-1.3-4.6-0.5c-0.7,0.5-1.5,0.3-1.8-0.5
					c-0.8-2.1-2.2-2.9-4.4-2.5c-0.3,1.1-1.6,1-2.1,0.3c-1.2-1.8-2.6-2-4.2-0.6c-2.2,0.1-2.8,1-1.7,2.7c0.1,0.5-0.2,1-0.7,1.2
					c-1.2,1-1.9,2.3-2,3.8c0,0.2-0.2,0.3-0.4,0.4c0.1,0.2,0.2,0.4,0.3,0.6c-0.5,0.3-1,0.7-1.4,1c-0.7,0.6-1.3,1.3-1.7,2.1
					c-0.8,1.7-0.8,3.9-0.5,5.9c0.2,1.2,0.5,2.4,0.8,3.4c1.2,3.2,6.7,5.7,8.8,3c1.7,2.2,3.6,4.1,6.5,4.4c2.3,0.3,5.5,0.1,7.2-1.5
					c1.1-1.1,1.3-2.5,1.9-3.8c0.6-1.3,1.6-2.4,1.8-3.8c0.1-0.6,0-1.3-0.3-1.9c0.3-0.1,0.6-0.2,0.9-0.4c0.1-0.1,0.3-0.1,0.4-0.2
					c1.4-0.8,2.6-1.8,3.3-3.4c0.9-2.2,0.3-4.7-0.8-6.8C1015.5,1115.1,1015.4,1114.8,1015.2,1114.6z M1003.1,1118.9
					c-1.3-0.2-2.9-0.6-4.2-0.2c-1.4,0.5-2.4,1.5-3.4,2.6c-0.3,0.3-0.8,0-0.7-0.4c0.8-3.2,6.7-6.2,8.4-2.2
					C1003.3,1118.9,1003.2,1118.9,1003.1,1118.9z"/>
				<path fill="#A1A6BF" d="M991.9,1056.8c1.2-0.2,2.2-0.7,3.1-1.4c3.7,3.1,9.7,4.6,13.7,1.3c1.5-1.2,2.4-3.2,2.8-5.2
					c0-0.2,0.1-0.3,0.1-0.5c0.3-2.3-0.1-4.8-1.4-6.7c1-1,1.7-2.1,2-3.4c0.1-0.8,0.1-1.5-0.1-2.3c0-0.1-0.1-0.2-0.1-0.3
					c-0.5,0.7-2,0.7-2.4-0.4c-1.4-3.7-6.3-6.5-10.1-4.8c-0.6,0.3-1.3,0.3-1.8-0.2c-1.9-2-5-1.3-7.4-0.4c-3,1.2-4.8,4-5.5,7.1
					c0,0.2-0.2,0.4-0.3,0.5c0.2,0.4,0.3,0.9,0.5,1.3c0.1,0.2,0.3,0.4,0.4,0.7c-1.7,1.3-2.9,3.1-3.4,5.1c-0.5,2.1-0.2,4.4,1.3,6.6
					C985,1056.1,989,1057.2,991.9,1056.8z M991.2,1041.1c1.1-1.6,2.5-3.2,4.5-3.6c1.5-0.3,3.1,0.1,4.1,1.4c0.2,0.2-0.1,0.5-0.3,0.5
					c-1.3,0-2.3-0.7-3.7-0.5c-1.7,0.3-3,1.3-4.2,2.5C991.4,1041.7,991,1041.4,991.2,1041.1z"/>
				<path fill="#A1A6BF" d="M994.6,1091.5c3.1,3.4,8.4,3.8,12.6,1.7c3-1.5,4.3-4.3,4.8-7.3c0.2-0.3,0.5-0.5,0.8-0.6
					c-0.2-0.2-0.4-0.4-0.7-0.6c0-0.5,0.1-1.1,0-1.6c4-2.5,4.1-7.2,2.3-10.8c-0.2,0.1-0.5,0-0.7-0.2c-2.6-2.2-4.5-3.6-8.3-3.1
					c-0.5,0.1-1,0-1.3-0.5c-4.3-7.7-16.3,0.2-15.3,7.4c0,0.4-0.5,0.7-0.7,0.3c-0.2-0.3-0.3-0.7-0.5-1.1c0,0.1,0,0.3,0.1,0.4
					c0.1,0.2,0.1,0.5,0.2,0.7c-0.4,0.2-0.7,0.3-1,0.5c-0.4,0.3-0.8,0.6-1.1,1c-0.3,0.4-0.6,0.9-0.9,1.5c-0.9,2.1-0.9,4.5,0.1,6.6
					C986.4,1088.9,991,1092.8,994.6,1091.5z M996.7,1075.9c0.4-0.7,1.1-1.3,1.9-1.6c0.8-0.2,1.9,0.1,2.7,0.3
					c0.7,0.2,1.4,0.4,1.5,1.2c0,0.2,0,0.3-0.2,0.4c-0.5,0.2-0.6,0.1-1-0.1c-0.8-0.3-1.2-0.4-2.1-0.1c-1,0.4-2.4,1-2.5,2.3
					c0,0.5-0.8,0.5-0.8,0C996.3,1077.4,996.2,1076.7,996.7,1075.9z"/>
				<path fill="#A1A6BF" d="M1099.7,1053.8c1.9,1.3,4.2,0.8,5.3-1c3.4,1.8,7.6,1,10.4-2.2c3.8-4.5,2.7-9.8-0.2-14.2
					c0-0.1,0.1-0.1,0.1-0.2c0.2-0.2,0.3-0.5,0.4-0.7c1.1-2.4,0.2-4.4-1.3-6.8c0-0.1-0.1-0.1-0.1-0.1c-0.3,0.2-0.7,0.3-1,0.1
					c-2-1.4-5-1.8-7.3-1.1c-0.8,0.2-1.4,0.8-2.1,1c-1.3,0.4-2.3,0.6-3.7,0.5c-1.1-0.1-2.3-0.6-3.4-0.6c-2.5-0.1-2.7,0.5-3.9,2.4
					c-1,1.6-2.2,3-3.4,4.4c0,0.5-0.1,1,0,1.4c0.1,1.8,0.8,3.5,2.2,5c0.1,0.1,0.1,0.1,0.2,0.2c-0.6,0-1.2,0.2-1.6,0.8
					c-0.2,0.3-0.3,0.6-0.3,0.9C1089.9,1049.5,1092.7,1056,1099.7,1053.8z M1102.5,1033.6c1.4-0.1,4.8,0.6,4.8,2.4
					c0,0.1-0.1,0.2-0.2,0.2c-1.2,0.4-2.8-0.8-4.1-0.9c-1.9-0.1-3,0.7-4.6,1.6c-0.2,0.1-0.3-0.1-0.3-0.2
					C1098.5,1034.9,1100.8,1033.7,1102.5,1033.6z"/>
				<path fill="#A1A6BF" d="M1096.6,1078.7c-0.4,1.8-0.2,3.7,0.5,5.2c0.4,0.9,1,1.8,1.9,2.3c0.6,0.3,1.2,0.4,1.8,0.4
					c1,1.9,2.4,3.4,4.7,3.8c1.5,0.2,3-0.1,4.3-1c0.2-0.1,0.4-0.3,0.6-0.5c4,2.2,9.2-0.1,11.2-4.8c1.1-2.7,2-5.9,0.7-8.7
					c-0.1-0.1-0.1-0.2-0.2-0.3c-0.3-0.6-0.8-1.1-1.2-1.6c1.8-2.7,2-5.6,0.3-8.1c-1.3-1-3.8-2.9-4.4-3c-1.4-0.1-4.2,1.2-5.4,1.8
					c-1.2,0.5-2.1,1.4-3.6,1.3c-2.3-0.2-3.7-1.8-6.3-1.4c-2.1,0.3-3.9,1.7-5.8,2.8c-0.1,0.2-0.3,0.4-0.4,0.7
					C1093.4,1071.1,1094.4,1075.3,1096.6,1078.7z M1104.3,1073.8c0.9-1.9,2.5-3.4,4.7-3.7c1.7-0.2,4,0.5,3.7,2.5
					c0,0.1-0.1,0.1-0.2,0.1c-1.3-0.4-2.3-0.9-3.7-0.6c-1.4,0.3-2.7,1.1-3.4,2.3C1105,1075.2,1103.9,1074.5,1104.3,1073.8z"/>
				<path fill="#A1A6BF" d="M1122.9,1105.5c-0.3,0.3-0.9,0.5-1.2,0.1c-1.5-1.7-2.5-3.4-4.5-4.5c-3.3-1.9-7.7-1.8-9.5,2.5
					c-0.2,0.4-0.7,0.8-1.2,0.5c-4.4-3.3-7.5-0.6-10.3,2.7c-0.4,1.2-0.4,2.5-0.3,3.8c0.2,2.2,1,4.5,2,6.3c-0.9,1.8-1.3,3.7-0.8,5.7
					c0.7,2.4,2.2,5.3,4.7,6.1c1.7,1,4.3,0.7,6.1,0.4c2.5-0.5,3.5-2.3,4.3-4.4c1.3,1.1,2.8,1.9,4.3,1.5c2.2-0.5,4-3.6,5.1-5.4
					c1.4-2.3,1.8-7.2,0-9.9c0.4-0.6,0.7-1.2,1-1.8C1123.1,1108.1,1123.1,1106.7,1122.9,1105.5z M1115,1111.1
					c-1.7-0.7-2.9-1.8-4.9-1.7c-2.2,0.1-3.8,1.8-4.8,3.6c-0.4,0.8-1.7,0.2-1.4-0.6c1-2.6,2.5-4.5,5.4-4.9c2.2-0.3,5.6,0.7,6,3.2
					C1115.3,1110.9,1115.2,1111.2,1115,1111.1z"/>
				<path fill="#D1D8F9" d="M1096.6,1028.4c1.1,0,2.3,0.5,3.4,0.6c1.4,0.1,2.4,0,3.7-0.5c0.7-0.2,1.3-0.8,2.1-1
					c2.3-0.7,5.3-0.3,7.3,1.1c0.3,0.2,0.7,0.2,1-0.1c-0.3-0.4-0.6-0.9-0.9-1.4c-3.3-4.9-7.6-2.6-11.2,0.3
					c-6.1-3.7-12.2,1.8-12.7,7.8c1.2-1.4,2.4-2.9,3.4-4.4C1094,1028.9,1094.2,1028.3,1096.6,1028.4z"/>
				<path fill="#D1D8F9" d="M1098.4,1036.9c1.6-0.8,2.7-1.7,4.6-1.6c1.3,0.1,2.9,1.3,4.1,0.9c0.1,0,0.2-0.1,0.2-0.2
					c0-1.8-3.4-2.5-4.8-2.4c-1.7,0.1-4,1.2-4.3,3.1C1098.1,1036.9,1098.3,1037,1098.4,1036.9z"/>
				<path fill="#D1D8F9" d="M1107.7,1065.5c1.5,0.1,2.4-0.8,3.6-1.3c1.3-0.5,4-1.8,5.4-1.8c0.6,0,3.2,2,4.4,3c-0.7-1-1.8-2-3.2-2.8
					c-4.2-2.5-9.3-2.2-12,1.5c-3.2-1.6-6.7-1.5-9.4,1.5c-0.3,0.4-0.6,0.8-0.9,1.2c1.9-1,3.6-2.4,5.8-2.8
					C1104,1063.7,1105.4,1065.3,1107.7,1065.5z"/>
				<path fill="#D1D8F9" d="M1105.4,1074.4c0.7-1.2,2-2,3.4-2.3c1.4-0.3,2.4,0.2,3.7,0.6c0.1,0,0.2,0,0.2-0.1c0.3-2-2-2.7-3.7-2.5
					c-2.2,0.2-3.7,1.8-4.7,3.7C1103.9,1074.5,1105,1075.2,1105.4,1074.4z"/>
				<path fill="#D1D8F9" d="M1106.4,1102.6c0.1-0.1,0.1-0.2,0.2-0.4c-0.4-0.3-0.8-0.5-1.2-0.8c0,0.1,0,0.2,0,0.3
					C1105.8,1102,1106.1,1102.2,1106.4,1102.6z"/>
				<path fill="#D1D8F9" d="M1105.4,1101.7c0,0.6,0.2,1.3,0.7,2c0.4-0.3,0.8-0.7,1.3-1c-0.2-0.2-0.5-0.4-0.8-0.6
					c-0.1,0.1-0.1,0.2-0.2,0.4C1106.1,1102.2,1105.8,1102,1105.4,1101.7z"/>
				<path fill="#D1D8F9" d="M1106.4,1104.1c0.5,0.3,1-0.1,1.2-0.5c1.8-4.3,6.2-4.4,9.5-2.5c2,1.1,3,2.8,4.5,4.5
					c0.4,0.4,0.9,0.3,1.2-0.1c0-0.1,0-0.2-0.1-0.3c-0.3-1.3-1-2.6-1.9-3.5c-2.5-2.4-6.2-4.3-9.7-3.4c-2.2,0.6-3.7,2-4.6,3.8
					c0.2,0.2,0.5,0.4,0.8,0.6c-0.4,0.3-0.8,0.7-1.3,1c-0.4-0.7-0.6-1.4-0.7-2c-0.4-0.3-0.9-0.6-1.4-0.7c-2.2-0.6-5,1.3-6.4,2.8
					c-0.8,0.9-1.3,1.9-1.6,2.9C1098.8,1103.5,1101.9,1100.8,1106.4,1104.1z"/>
				<path fill="#D1D8F9" d="M1109.3,1107.5c-2.9,0.4-4.4,2.3-5.4,4.9c-0.3,0.8,1,1.3,1.4,0.6c1-1.9,2.6-3.5,4.8-3.6
					c2-0.1,3.2,1,4.9,1.7c0.2,0.1,0.3-0.1,0.3-0.3C1114.9,1108.3,1111.5,1107.2,1109.3,1107.5z"/>
				<path fill="#D1D8F9" d="M1005.7,1111c0,0,0.1,0,0.1,0c0.1,0,0.2-0.1,0.3-0.1c-0.2-0.3-0.3-0.7-0.5-1c-0.1,0.1-0.2,0.1-0.3,0.2
					C1005.4,1110.3,1005.6,1110.7,1005.7,1111z"/>
				<path fill="#D1D8F9" d="M998.6,1107.3C998.6,1107.3,998.6,1107.3,998.6,1107.3c0-0.1-0.1-0.2-0.2-0.3
					C998.5,1107.1,998.5,1107.2,998.6,1107.3z"/>
				<path fill="#D1D8F9" d="M1005.7,1111C1005.8,1111,1005.8,1111,1005.7,1111C1005.8,1111,1005.8,1111,1005.7,1111
					C1005.7,1111,1005.7,1111,1005.7,1111z"/>
				<path fill="#D1D8F9" d="M998.4,1107c0.1,0.1,0.2,0.2,0.3,0.2c0.8-0.3,1.6-0.5,2.3-0.4c2.1,0.2,3.4,1.6,4.3,3.2
					c0.1-0.1,0.2-0.1,0.3-0.2c-1-1.8-2.4-3.5-4.6-3.8c-1.2-0.2-2.2,0.1-2.8,0.7C998.2,1106.9,998.3,1107,998.4,1107z"/>
				<path fill="#D1D8F9" d="M1006.2,1111.1c0-0.1-0.1-0.1-0.1-0.2c-0.1,0-0.2,0.1-0.3,0.1C1006,1111,1006.1,1111.1,1006.2,1111.1z"
					/>
				<path fill="#D1D8F9" d="M989,1116.5c0.1-1.5,0.8-2.8,2-3.8c0.5-0.2,0.8-0.6,0.7-1.2c-1.1-1.7-0.5-2.6,1.7-2.7
					c1.6-1.4,3-1.2,4.2,0.6c0.6,0.8,1.8,0.8,2.1-0.3c2.2-0.4,3.7,0.4,4.4,2.5c0.3,0.8,1.2,1,1.8,0.5c1-0.7,2.9-0.3,4.6,0.5
					c1.2-0.1,2.4,0.2,3.4,0.6c0.5,0.2,1,0.6,1,1.3c0,0.4-0.1,0.7-0.4,0.9c0,0,0,0,0,0c0.4-0.1,0.7-0.5,0.8-0.9
					c-0.1-0.2-0.2-0.3-0.3-0.5c-2-2.8-5.9-4.3-8.8-3.2c0,0.1,0.1,0.1,0.1,0.2c-0.1,0-0.2-0.1-0.4-0.1c0,0-0.1,0-0.1,0c0,0,0,0,0-0.1
					c-0.5-0.1-0.9-0.2-1.3-0.4c0.3-0.2,0.6-0.4,0.9-0.6c-0.9-1.7-2.2-3-4.3-3.2c-0.7-0.1-1.6,0.1-2.3,0.4c0.2,0.2,0.5,0.5,0.7,0.8
					c-0.7,0.3-1.3,0.6-2,0.8c0-0.9,0.3-1.6,0.8-2c-0.3-0.2-0.5-0.4-0.8-0.6c-0.2-0.1-0.4-0.2-0.7-0.2c-2.3-0.4-4.7,1.3-5.8,3.2
					c-0.3,0.5-0.5,1.2-0.8,1.7c0.2-0.1,0.4-0.1,0.7-0.1c-0.3,0.4-0.6,0.8-0.9,1.2c0-0.1-0.1-0.2-0.1-0.4c0,0,0,0,0,0
					c-0.6,0.7-1.3,0.9-1.5,1.9c-0.3,1-0.1,2,0.2,2.9c0,0.1,0.1,0.2,0.2,0.3C988.7,1116.8,988.9,1116.7,989,1116.5z"/>
				<path fill="#D1D8F9" d="M998.4,1107c-0.1-0.1-0.1-0.1-0.2-0.2c-0.5,0.5-0.8,1.1-0.8,2c0.7-0.3,1.3-0.6,2-0.8
					c-0.2-0.3-0.5-0.5-0.7-0.8c0,0,0,0,0,0C998.5,1107.2,998.5,1107.1,998.4,1107z"/>
				<path fill="#D1D8F9" d="M998.4,1107c-0.1-0.1-0.1-0.1-0.2-0.2c0,0,0,0,0,0C998.2,1106.9,998.3,1107,998.4,1107z"/>
				<path fill="#D1D8F9" d="M1004.4,1110.6c0.5,0.1,0.9,0.2,1.3,0.4c-0.1-0.3-0.3-0.6-0.4-0.9
					C1005,1110.2,1004.7,1110.4,1004.4,1110.6z"/>
				<path fill="#D1D8F9" d="M989.8,1112c0.3-0.4,0.6-0.8,0.9-1.2c-0.2,0-0.4,0.1-0.7,0.1c-0.1,0.3-0.2,0.6-0.4,0.7
					C989.7,1111.8,989.8,1111.9,989.8,1112z"/>
				<path fill="#D1D8F9" d="M1013.3,1115c-0.4-0.8-1.6-1.7-2.9-2.3c-2,0.1-3.9,0.9-4.5,2.8c-0.2,0.8,0.9,1.1,1.2,0.3
					c0.8-2,4.5-0.5,5.9,0c0.4,0.1,0.9,0,1.3-0.3C1014,1115.6,1013.6,1115.5,1013.3,1115z"/>
				<path fill="#D1D8F9" d="M1014.8,1114.5c0-0.7-0.4-1.1-1-1.3c-0.9-0.4-2.2-0.6-3.4-0.6c1.3,0.7,2.5,1.5,2.9,2.3
					c0.3,0.5,0.7,0.6,1.1,0.5c0,0,0,0,0,0C1014.8,1115.2,1014.8,1114.9,1014.8,1114.5z"/>
				<path fill="#D1D8F9" d="M994.9,1121c-0.1,0.4,0.4,0.7,0.7,0.4c1-1.1,2-2.1,3.4-2.6c1.3-0.4,2.9,0,4.2,0.2c0.1,0,0.2-0.1,0.2-0.2
					C1001.6,1114.7,995.7,1117.8,994.9,1121z"/>
				<path fill="#D1D8F9" d="M988.8,1075.9c-1-7.3,11-15.2,15.3-7.4c0.3,0.5,0.8,0.6,1.3,0.5c3.8-0.6,5.7,0.8,8.3,3.1
					c0.2,0.2,0.5,0.2,0.7,0.2c0-0.1-0.1-0.2-0.1-0.2c-2-3.6-5.9-6.1-9.8-4.2c-0.2-0.3-0.3-0.6-0.5-0.9c-1.7-2.9-4.7-3.9-8-3.1
					c-5.7,1.4-9.3,6.2-8.4,11.4c0.1,0.4,0.3,0.8,0.5,1.1C988.3,1076.6,988.8,1076.2,988.8,1075.9z"/>
				<path fill="#D1D8F9" d="M997.1,1078.3c0-1.3,1.5-1.9,2.5-2.3c0.8-0.3,1.3-0.2,2.1,0.1c0.4,0.2,0.5,0.2,1,0.1
					c0.2-0.1,0.2-0.2,0.2-0.4c-0.1-0.8-0.9-0.9-1.5-1.2c-0.8-0.2-1.9-0.6-2.7-0.3c-0.8,0.2-1.5,0.9-1.9,1.6
					c-0.5,0.8-0.4,1.5-0.4,2.4C996.3,1078.8,997.1,1078.8,997.1,1078.3z"/>
				<path fill="#D1D8F9" d="M991.6,1041.4c1.2-1.2,2.5-2.2,4.2-2.5c1.4-0.3,2.3,0.5,3.7,0.5c0.2,0,0.5-0.3,0.3-0.5
					c-1-1.3-2.6-1.7-4.1-1.4c-2,0.4-3.4,2-4.5,3.6C991,1041.4,991.4,1041.7,991.6,1041.4z"/>
				<path fill="#D1D8F9" d="M984.6,1039.6c0.7-3.1,2.5-5.8,5.5-7.1c2.3-0.9,5.5-1.6,7.4,0.4c0.5,0.5,1.2,0.5,1.8,0.2
					c3.8-1.8,8.7,1,10.1,4.8c0.4,1.1,1.9,1.1,2.4,0.4c-0.5-1.7-1.6-3.2-2.7-4.4c-1.6-1.7-4-3.2-6.4-3.2c-1.2,0-2.7,0.5-3.8,1.3
					c-0.5-0.8-1.1-1.5-1.9-2c-1.1-0.8-2.6-1.3-3.9-0.7c-0.5,0.2-0.8,0.6-1.2,0.8c-0.6,0.2-1.5,0.1-2.1,0.2c-4.3,1.1-6.5,5.5-5.5,9.3
					c0,0.2,0.1,0.4,0.2,0.5C984.5,1040,984.6,1039.8,984.6,1039.6z"/>
				<g>
					<g>
						<path fill="#6B6F80" d="M992,1032.2c-0.1,0-0.2,0.1-0.2,0.1c-0.1,0.4,0,0.7,0,1.1c0,0.8-0.3,1.2-1,1.6c-1,0.6-1.9,0.1-3,0.3
							c-0.6,0.1-0.6,0.8-0.3,1.2c1.1,1.3,4,1,4.9-0.4c0.2-0.3,0.3-0.7,0.3-1.2c0-0.5,0-1,0-1.5
							C992.8,1032.9,992.6,1032.2,992,1032.2z"/>
						<path fill="#6B6F80" d="M989.9,1042.5c0.9-0.3,2.1-1.2,2.6-2.1c1.8-1.3,3.2-3.1,5.6-1.9c1.7,0.8,3.1,2.3,3.6,4.1
							c0.6,2.4-0.7,4.6-3,5.4c-0.9,0.3-1.8,0.3-2.7,0.2c-0.7-0.3-1.6-0.4-2.2-0.7c-0.9-0.4-1.6-1.3-2.4-1.9
							c-0.2-0.2-0.5,0.1-0.5,0.4c0.2,1.1,1,1.8,1.8,2.5c1.7,2.4,5.4,2.4,7.8,1.3c0.5-0.2,0.9-0.5,1.3-0.8c2.6-0.7,4.6-3.8,5.7-6
							c0.3-0.6,0-1.2-0.6-1.4c-3.5-1.5-5.1-3.8-6.8-6.9c-0.1-0.2-0.5-0.2-0.5,0.1c-0.2,0.6-0.3,1.2-0.2,1.8
							c-0.2-0.1-0.5-0.2-0.7-0.3c-1-0.4-2.6-0.9-3.6-0.3c-0.9,0.5-1.8,1.7-2.4,2.9c-0.1-0.2-0.2-0.4-0.3-0.6
							c-0.1-0.1-0.3-0.1-0.4-0.1c-1.2,0.7-1.7,1.8-3.3,2c-1.7,0.2-3.1,0-4.5-0.7c0.2,0.6,0.4,1.2,0.7,1.8
							C986.3,1042.4,988,1043.2,989.9,1042.5z"/>
						<path fill="#6B6F80" d="M983.2,1053.7c1.8,2.5,5.8,3.5,8.7,3.1c1.2-0.2,2.2-0.7,3.1-1.4c3.7,3.1,9.7,4.6,13.7,1.3
							c1.5-1.2,2.4-3.2,2.8-5.2c0-0.1,0-0.3-0.1-0.4c0,0,0.1,0,0.1-0.1c0,0,0,0,0,0c0.3-2.3-0.1-4.8-1.4-6.7c1-1,1.7-2.1,2-3.4
							c0.1-0.8,0.1-1.5-0.1-2.3c-0.3-0.2-0.8-0.1-0.8,0.4c0,1.9-1.4,3.4-2.7,4.7c-0.5,0.5-0.5,1.2-0.2,1.8c0.6,1.2,1.1,2.4,1.2,3.7
							c-0.2,0.1-0.4,0.3-0.5,0.5c-0.4,0.5-0.3,1.3,0.2,1.6c-0.8,1.8-1.5,3.4-3.5,4.2c-2.6,1-4.6-0.2-6.7-1.6
							c-0.1-0.1-0.2-0.1-0.3-0.2l0,0c0-0.3-0.1-0.5-0.4-0.5c-1.7-0.2-3.1,1.1-4.8,0.8c-0.6-0.1-1.1-0.3-1.6-0.5
							c0.1-0.2,0.2-0.5,0.2-0.7c0.4-2.6-0.4-4.6-2-6.5c-0.1-0.2-0.3-0.2-0.5-0.1c0,0,0,0,0,0c-0.2-0.1-0.4,0.2-0.3,0.4
							c0,0.1,0,0.2,0.1,0.3c1,1.3,1.5,3.9,0.2,5.1c-0.5,0.5-1.3,0.8-2.1,0.9c-2.2-1.2-4-3.3-5.4-5.7
							C981.3,1049.2,981.6,1051.5,983.2,1053.7z"/>
						<path fill="#6B6F80" d="M993.7,1074.6c0.9-0.3,1.8-0.9,2.1-1.9c0.2-0.6,0.5-1.5,0.1-2.1c0.8,0.2,1.7,0,2.3-0.2
							c1.3-0.5,1.6-1.7,1.6-3c0-0.3-0.3-0.6-0.6-0.6c0,0-0.1,0-0.2,0c-0.3,0.1-0.4,0.3-0.4,0.6c0,1.6-2.6,1.9-3.8,2.2
							c-0.1,0-0.2,0.2-0.1,0.4c0.2,0.3,0.5,0.5,0.8,0.6c0,0,0,0,0,0c-0.3,0.4-0.3,0.9-0.6,1.2c-0.4,0.4-1.3,0.8-1.9,0.9
							c-0.6,0.2-1.3,0.2-2,0.1c-0.7-0.1-1,0-1.3-0.6c-0.2-0.3-0.6,0-0.5,0.3c0.5,0.9,0.1,1.8,1.2,2.3
							C991.4,1075.4,992.6,1075,993.7,1074.6z"/>
						<path fill="#6B6F80" d="M989.3,1077.5c0.5-0.2,0.7-0.6,0.9-1.1c0.1-0.4,0-0.8-0.1-1.3c0-0.2-0.4-0.2-0.4,0.1
							c0,0.5-0.5,0.7-0.9,0.7c-0.4,0-0.7-0.2-1-0.4c0.1,0.2,0.1,0.5,0.2,0.7c-0.4,0.2-0.7,0.3-1,0.5
							C987.4,1077.5,988.4,1077.8,989.3,1077.5z"/>
						<path fill="#6B6F80" d="M984.9,1085.9c1.5,3.1,6.1,6.9,9.7,5.6c3.1,3.4,8.4,3.8,12.6,1.7c3-1.5,4.3-4.3,4.8-7.3
							c-0.2,0.2-0.3,0.5-0.3,0.9c0,0,0,0,0,0c-0.7-0.1-1.6,0.2-2,1c-0.4,0.1-0.7,0.1-0.9,0.1c-1.2,0-2.2-0.4-3.3,0
							c-0.6,0.2-0.8,0.8-0.6,1.4c0.5,1,1.3,1.6,2.3,1.8c-2.1,1.6-5,2.2-7.4,1.8c-1.4-0.2-1.6-0.1-2.1-1.5c-0.6-1.5,0-0.8-0.2-1.7
							c-0.2-0.7-0.2-1-0.7-1.6c-0.4-0.4-1-0.5-1.5-0.4c-1,0.2-1.6,1-1.8,1.9c-1.5-0.2-2.9-0.4-4.1-1.4c-2.2-1.8-1.8-3.9-0.8-6.3
							c0.4-0.9,0-2.2-1.2-2.2c-1-0.4-1.5-1.1-1.7-1.9c-0.3,0.4-0.6,0.9-0.9,1.5C983.9,1081.4,983.9,1083.8,984.9,1085.9z"/>
						<path fill="#6B6F80" d="M1013.7,1073.4c0.5,2.4,0.4,4.2-1.2,6.2c-1.1,1.4-2.4,0.9-3.7,0.1c-0.9-0.6-2.1-1.2-2.8-2.1
							c-0.3-0.8-0.7-1.5-1.3-1.7c-0.3-0.1-0.6,0.3-0.4,0.6c0.6,1.4,0.5,2.4,0.2,3.9c-0.1,0.7-0.1,1.3-0.5,1.9c0,0-0.1,0.1-0.1,0.1
							c-0.7,0.5-1.5,1-2.3,1.2c-1.4,0.4-3.1-0.5-4.2-1.4c-1.5-1.1-1.7-2.3-1.7-4.1c0-1-0.2-1.9-0.3-2.9c0-0.2-0.4-0.2-0.4,0.1
							c0,0.5-0.1,1.1-0.3,1.6c-0.1-0.2-0.2-0.3-0.2-0.4c-0.4-0.5-1.3-0.2-1.1,0.5c0.1,0.4,0,0.5-0.3,0.9c-0.1,0.1-0.3,0.2-0.5,0.4
							c-0.3,0.2-0.4,0.5-0.5,0.8c0,0,0,0,0,0c-0.3,0.4-0.4,1,0,1.4c0.6,0.7,1.8,1.3,1.9,2.3c0,0.9-0.1,1.8-1.1,2.2
							c-0.4,0.2-0.3,0.8,0,0.9c0.7,0.4,1.3,0.1,2-0.3c0.7-0.4,0.8-0.9,1-1.6c0.6,0.5,1.2,0.9,1.8,1.3c2.7,1.7,5.7,1,7.8-1.1
							c0.8-0.2,1.5-0.9,2.1-1.4c0.5-0.5,1-0.7,1.5-0.7c0.3,0.2,0.7,0.3,1.1,0.4c0.7,0.5,1.4,1.3,2,1.9c0-0.5,0.1-1.1,0-1.6
							c4.1-2.6,4.1-7.4,2.2-11C1013.9,1072.2,1013.6,1072.8,1013.7,1073.4z"/>
						<path fill="#6B6F80" d="M999,1072.4c0.5,0.2,1,0.3,1.5,0.3c-0.2,0.2-0.4,0.3-0.6,0.3c-0.9,0.3-1.8,0.4-2.4,1.2
							c-0.1,0.2,0.1,0.4,0.3,0.3c0.7-0.2,1.3-0.5,2-0.6c0.5-0.1,1,0,1.4-0.1c0.7-0.1,1.3-0.7,1.8-1.2c0.1,0.3,0.3,0.5,0.4,0.8
							c0.3,0.6,0.8,1.1,1.2,1.6c0.4,0.5,1.2,0.3,1.5-0.2c0.3-0.6,0-1.2-0.6-1.4c-0.4-0.2-0.8-0.6-1.1-0.9c-0.2-0.2-0.3-0.4-0.5-0.6
							c-0.1-0.1-0.2-0.2-0.3-0.3c0-0.1,0-0.2,0-0.2c0.5-0.6,0.9-1.4,1-2.3c0-0.3-0.3-0.7-0.6-0.8c0,0-0.1,0-0.1,0
							c-0.6-0.1-1.3,0.6-0.9,1.2c-0.1-0.2-0.1,0.1-0.2,0.2c-0.2,0.2-0.3,0.4-0.5,0.6c-0.3,0.3-0.7,0.7-1.1,0.9
							c-0.7,0.4-1.6,0.4-2.3,0.9C998.8,1072,998.8,1072.3,999,1072.4z"/>
					</g>
					<path fill="#6B6F80" d="M994,1118.4c1.3-0.8,2.5-3.1,1.8-4.4c0.2,0,0.4-0.1,0.6-0.1c1.3-0.4,2.5-1.3,3.2-2.4
						c0.2-0.3,0.1-0.8-0.1-1c-0.2-0.2-0.4-0.3-0.8-0.3c-0.1,0-0.2,0.1-0.2,0.1c-0.3,0.2-0.5,0.6-0.8,0.9c-0.5,0.5-1.1,0.8-1.8,0.9
						c-0.6,0.1-1.1,0-1.7,0.1s-1,0.4-1.6,0.4c-0.3,0-0.4,0.4-0.1,0.5c0.5,0.2,0.9,0.5,1.4,0.7c0.9,1.8-1.3,2.8-2.8,2.9
						c-1,0.1-1.9,0-2.7-0.2c0.1,0.3,0.3,0.7,0.5,1c-0.5,0.3-1,0.7-1.4,1c0.5,0.3,1.1,0.5,1.8,0.6
						C990.7,1119.2,992.7,1119.2,994,1118.4z"/>
					<path fill="#6B6F80" d="M1001.4,1115.6c1.1-0.3,2.3-0.5,3-1.6c0.4-0.8-0.7-1.7-1.2-1c-0.5,0.7-1.6,0.8-2.4,0.9
						c-0.8,0.2-1.7,0.2-2.5,0.4c-0.3,0.1-0.3,0.4-0.1,0.6C999.3,1115.7,1000.1,1116,1001.4,1115.6z"/>
					<path fill="#6B6F80" d="M989.8,1123.9c0.8,0.4,1.8,0.4,2.5-0.1c0.3-0.2,0.5-0.6,0.7-1c0.2-0.4,0.2-0.7,0-1.2
						c-0.2-0.7-1.2-0.5-1.2,0.2c0-0.3-0.1,0.3-0.1,0.3c-0.1,0.2-0.2,0.3-0.3,0.4c-0.3,0.3-0.6,0.3-1,0.1
						C989.6,1122.4,989,1123.6,989.8,1123.9z"/>
					<path fill="#6B6F80" d="M1016.5,1122.2c0.9-2.2,0.3-4.7-0.8-6.8c-0.8-0.1-1.8,0.8-1.1,1.6c0.7,1.1,1.1,1.6,0.7,2.7
						c-0.5,1.4-1,2.3-2.5,2.8c-1,0.3-1.6,0.4-2.4,0.9c-0.1,0.1-0.2,0.2-0.2,0.4c-0.3,0.2-0.6,0.2-1,0.2c-0.3,0-0.7-0.1-1-0.2
						c-0.1-0.2-0.3-0.3-0.4-0.5c-0.2-0.2-0.4-0.3-0.6-0.3c0-0.7-0.1-1.4-0.5-2.2c-0.4-0.9-2-0.3-1.6,0.7c1,2.7-2.2,4.4-4.4,4.9
						c-2.8,0.6-4-1.5-5.8-3.1c-0.3-0.2-0.9-0.1-0.8,0.3c0,0.2,0,0.4,0.1,0.6c-0.3-0.3-0.9-0.1-1.2,0.2c-0.3,0.2-0.6,0.5-0.6,0.9
						c0,0.3,0.1,0.5,0.2,0.8c0,0,0,0.1,0,0.1c-0.3,0.2-0.7,0.6-1,0.8c-0.3,0.2-0.8,0.9-1.2,0.9c-0.4,0-0.6,0.6-0.2,0.8
						c0.6,0.3,1,0.3,1.6,0.3c0.7-0.1,1.2-0.3,1.7-0.7c0.2-0.2,0.4-0.3,0.5-0.5c0.5,0,1-0.3,1-0.9c0-0.1,0-0.2,0-0.4
						c0.3,0.4,0.7,0.8,1.2,1.2c1.7,1.2,3.7,0.9,5.5,0.3c1.7-0.5,3.4-1.5,4.4-2.8c0.2,0.3,0.3,0.6,0.4,0.9c0.1,0.3,0.3,0.6,0.6,0.8
						c0.4,0.6,1.2,0.9,1.9,0.9c0,0.3,0,0.5,0,0.8c0,0.2,0,0.4,0.1,0.7c0,0.1,0,0.2,0,0.3c0,0.4,0,0.9-0.3,1.3
						c-0.6,0.9-1.8,0.3-2.7,0.7s-1.2,1.2-0.8,2c0.1,0.3,0.3,0.5,0.5,0.7c-1.3,0.4-3,0.5-3.7,0.3c-5-1.8-0.8-1.2-2.2-2.2
						c-1-0.7-1.4-0.8-2.8-1.2c-1.1-0.3-1.6-0.2-2.5-0.2c-3.7-0.1-5,0.8-7.7-2c-0.4-0.4-1.2-1.6-1.9-2.5c0.2,1.2,0.5,2.4,0.8,3.4
						c1.2,3.2,6.7,5.7,8.8,3c1.7,2.2,3.6,4.1,6.5,4.4c2.3,0.3,5.5,0.1,7.2-1.5c1.1-1.1,1.3-2.5,1.9-3.8c0.6-1.3,1.6-2.4,1.8-3.8
						c0.1-0.6,0-1.3-0.3-1.9c0.3-0.1,0.6-0.2,0.9-0.4c0-0.1,0-0.1,0-0.2c0.1,0,0.3,0,0.4-0.1
						C1014.7,1124.9,1015.9,1123.8,1016.5,1122.2z"/>
				</g>
				<path fill="#6B6F80" d="M1097.6,1035.9c1.3-0.1,2.8-1.2,3.7-2c0.9-0.9,1.4-3.2,0.3-4c-0.1-0.1-0.2-0.1-0.2,0
					c-0.3,0.5-0.3,1-0.6,1.5c-0.3,0.5-0.7,1-1,1.5c-0.5,0.8-1.1,1.2-1.8,1.5c0-1.6-1.1-3.3-2.7-3.6c-0.6-0.1-1,0.7-0.4,1
					c0,0,0.1,0.1,0.1,0.1c-0.2,0.3-0.3,0.6-0.2,0.9c0,0.7-0.2,1.2-0.7,1.7c-0.3,0.2-0.6,0.4-0.8,0.7c-0.5,0.1-1,0.2-1.5,0.3
					c-1.6,0.5-0.9,2.9,0.7,2.5c1.1-0.2,2.2,0,3.2-0.4C1096.4,1037.3,1097.1,1036.7,1097.6,1035.9z"/>
				<path fill="#6B6F80" d="M1092.7,1041.5c0.3-0.1,0.5-0.5,0.5-0.9c-0.1-1.6-1.4-1.4-2.4-2.2c-0.6-0.5-1.1-1.2-1.5-1.9
					c0.1,1.8,0.8,3.5,2.2,5C1091.9,1041.7,1092.3,1041.7,1092.7,1041.5z"/>
				<path fill="#6B6F80" d="M1099.7,1053.8c1.9,1.3,4.2,0.8,5.3-1c3.4,1.8,7.6,1,10.4-2.2c3.8-4.5,2.7-9.8-0.2-14.2
					c0-0.1,0.1-0.1,0.1-0.2c-0.1-0.1-0.1-0.2-0.2-0.2c0.2-0.1,0.4-0.3,0.5-0.5c1.1-2.4,0.2-4.4-1.3-6.8c-0.5,0.2-1,0.7-0.8,1.4
					c0.1,0.6,0.4,1.1,0.5,1.6c0.2,0.6,0.1,0.9-0.1,1.5c-0.2,1-0.6,2.2-1.5,2.7c-0.2,0.1-0.1,0.4,0.1,0.5c0.4,0.1,0.8,0.2,1.1,0.2
					c0.1,1,0.3,1.9,1,2.7c0.6,0.6,1,1.2,1.4,2c0.2,0.4,0.3,0.8,0.5,1.2c-0.1,0.1-0.1,0.2-0.2,0.3c-0.1,0.6-0.1,1.9-0.8,2.3
					c-0.1,0.1-0.3,0.1-0.4,0.1c-0.2,0-0.1,0-0.1-0.3c0-0.1,0-0.1,0-0.1c0.4-0.6,0.6-1.3,0.3-1.9c-0.2-0.6-1.1-0.8-1.4-0.2
					c-0.5,0.9-0.7,1.5-1.8,1.7c-0.4,0.1-0.8,0.2-1.3,0.2c-0.4,0-0.7-0.2-1.1-0.1c-0.1,0-0.2,0.2-0.2,0.3c0.3,1.1,2.5,1.6,3.5,1.4
					c0.1,0,0.2-0.1,0.3-0.1c0,0,0.1,0,0.1,0c0.7,0.3,1,0.9,1,1.7c0,0.2,0,0.3-0.1,0.5c-0.9,1.5-2.3,2.6-4.2,2.8
					c-2,0.3-4-0.7-5.9-1.3c-0.2-0.1-0.5,0.1-0.5,0.3c0,0.5,0.1,0.9,0.2,1.3c-0.3,0.1-0.6,0.4-0.8,0.6c-0.1,0.1-0.1,0.2-0.2,0.3
					c-0.2,0-0.4,0-0.7,0c-0.6-0.1-1.2-0.4-1.8-0.7c-0.5-0.3-1.3-0.5-1.8-0.9c-0.8-0.7-2,0.2-1.5,1.1c0.1,0.3,0.3,0.5,0.4,0.8
					c-1.4-0.3-2.5-1.8-3.3-2.8c-1.7-2.2-3.5-4.6-4.6-7.1c-0.2,0.3-0.3,0.6-0.3,0.9C1089.9,1049.5,1092.7,1056,1099.7,1053.8z"/>
				<path fill="#6B6F80" d="M1094.8,1045.3c-0.4,0.4-0.3,1.2,0.4,1.3c0.6,0.1,0.8,0.4,1.3,0.5c0.2,0.2,0.3,0.3,0.5,0.4
					c0.2,0.1,0.4-0.1,0.5-0.3c0.1-0.4-0.1-0.6-0.1-1c-0.1-0.4-0.1-0.8-0.1-1.2c0-0.1,0-0.2,0-0.2c0.1-0.2,0.2-0.5,0.3-0.7
					c0.2,0,0.4-0.2,0.4-0.4c0-0.3,0-0.7-0.1-1c0-0.3,0-0.5,0-0.8c0-0.2-0.1-0.3-0.1-0.5c1.6,1.2,3.2,2.4,5.1,3.1
					c2.7,1,4.8-0.8,6.3-3c0.5-0.7-0.6-1.4-1.1-0.9c-2.7,2.6-5.6,3.3-8.8,1c-0.9-0.7-1.6-1.8-2.7-2.2c-0.5-0.3-1.1-0.4-1.8-0.3
					c-0.8,0.1-0.5,1.3,0.3,1.2c1-0.1,0.9,2,0.8,2.6C1095.8,1043.8,1095.3,1044.7,1094.8,1045.3z"/>
				<path fill="#6B6F80" d="M1111.1,1035.4c-0.3,0.5-1,1-1.6,0.9c-0.2,0-0.6-0.3-0.7-0.4c-0.3-0.2-0.6-0.3-0.9-0.4
					c-0.6-0.1-1.3,0.5-0.9,1.2c0.3,0.5,0.8,0.8,1.4,1c0.6,0.2,1.2,0,1.8-0.1c0.9-0.1,2.2-0.8,2.1-1.9
					C1112.1,1035.1,1111.4,1034.8,1111.1,1035.4z"/>
				<path fill="#6B6F80" d="M1111.7,1032.5c0.6-0.6,1-1.4,0.7-2.2c-0.2-0.7-0.6-1.5-1.4-1.5c-0.3,0-0.4,0.2-0.4,0.5
					c0.1,0.4,0.4,0.8,0.3,1.2c-0.1,0.7-1,0.9-1.6,1.1c-1.2,0.3-2.6-0.1-3.7,0.5c-0.1,0.1-0.2,0.3-0.1,0.4
					C1106.8,1033.8,1110.4,1033.7,1111.7,1032.5z"/>
				<path fill="#6B6F80" d="M1114.4,1065.9c-0.2-0.5-0.9-3-1.9-2.4c-1.7,1,0.1,4.5,1.2,5.4c0.8,0.7,2,1.1,3.1,1.1
					c1.4,0,2.4-1,3.5-1.7c0.7-0.5,0-1.6-0.7-1.1C1118,1068.5,1115.2,1068,1114.4,1065.9z"/>
				<path fill="#6B6F80" d="M1119.4,1073.3c-0.2,0.1-0.4,0.3-0.6,0.4c-0.1,0-0.2,0-0.2,0c0,0,0,0,0,0c0,0,0,0-0.1-0.1
					c-0.6-0.3-1.1-0.5-1.5-1.1c-0.6-0.7-1.7-0.1-1.2,0.7c0.3,0.5,0.4,1.1,0.8,1.5c0.5,0.5,1,0.8,1.7,0.8c1,0,2.3-0.4,2.4-1.6
					C1120.7,1073.4,1119.9,1073.1,1119.4,1073.3z"/>
				<path fill="#6B6F80" d="M1121.3,1076.8c0.1,0.9,0.1,2,0,3.1c-0.9,0.5-1.8,1.2-2.6,1.7c-0.8,0.5-1.9,1.1-2.9,0.6
					c-1.2-0.6-1.5-2.3-1.2-3.6c0.6-1.4,1.2-3.1-0.2-4.1c-0.2-0.2-0.6,0-0.7,0.3c-0.3,1.1-0.2,2.2-1.1,3.2c-0.8,0.9-1.8,1.6-2.9,1.8
					c-3.2,0.8-2.9-2-4.7-3.3c-0.3-0.2-0.7,0-0.8,0.3c-0.3,1.1,0.2,2.4,1,3.3c0,0,0,0.1-0.1,0.1c-1,2.6-3.6,1.8-5.3,0.7
					c-0.5-0.3-1,0.1-1.1,0.6c0,0.2,0,0.4,0,0.6c-0.1-0.5-0.2-1.1-0.2-1.7c0-1.2,0.7-2.5,0.4-3.7c-0.2-0.7-0.6-1.2-1-1.8
					c-1.1-1.6-2-3.1-2.4-4.9c0.4,0.2,0.8,0.4,1.3,0.4c1.6,0,3.3-1,3.8-2.6c0.2-0.8-0.9-1.3-1.4-0.6c-0.7,1-0.8,1.6-2.1,1.7
					c-0.9,0.1-1.4-0.4-1.9-1.1c0-0.1,0-0.2,0-0.2c0-0.1,0-0.2-0.1-0.3c-1.8,3.6-0.8,7.8,1.4,11.2c-0.4,1.8-0.2,3.7,0.5,5.2
					c0.4,0.9,1,1.8,1.9,2.3c0.6,0.3,1.2,0.4,1.8,0.4c1,1.9,2.4,3.4,4.7,3.8c1.5,0.2,3-0.1,4.3-1c0.2-0.1,0.4-0.3,0.6-0.5
					c4,2.2,9.2-0.1,11.2-4.8c1.1-2.7,2-5.9,0.7-8.7C1121.7,1075.5,1121.1,1076,1121.3,1076.8z M1099,1082.9c0-0.1-0.1-0.2-0.1-0.2
					c0.1,0.1,0.1,0.3,0.2,0.4C1099.1,1083,1099.1,1083,1099,1082.9z M1118,1086.8c-2.5,1.6-6.4,2.2-8-0.9c-0.7-1.3-3.1-0.4-2.5,1.1
					c0.1,0.3,0.3,0.7,0.5,1c-1.7,0.4-3.1,0.4-4.8-0.6c-1.5-1-2.9-2.4-3.8-3.9c0.8,0.8,2.1,1.1,3.2,1c1.1-0.1,1.7-0.9,2.5-1.5
					c0.6-0.4,1-0.9,1.2-1.6c1.3,0.8,3,0.8,4.4,0.4c0.8-0.2,1.4-0.5,2.1-1c-0.1,0.8,0,1.5,0.4,2.3c0.7,1.3,2.2,2.2,3.7,2
					c0.7-0.1,1.3-0.4,1.8-0.9c0.4-0.4,0.6-1,1.2-1.2c0.2-0.1,0.4-0.1,0.6-0.1C1120.1,1084.5,1119.2,1086,1118,1086.8z"/>
				<path fill="#6B6F80" d="M1103.7,1068.3c-0.3,0.8-1,1.6-1.8,2c-0.3,0.1-0.7,0.2-1,0.3c-0.1,0.1-0.2,0.2-0.3,0.2
					c-0.1,0.2-0.1,0.2-0.2,0c0-0.1-0.1-0.2-0.3-0.2c-0.3-0.2-0.7,0.3-0.4,0.5c0.2,0.2,0.5,0.3,0.6,0.4c0.2,0.2,0.2,0.5,0.5,0.6
					c0.6,0.3,1.4,0.2,2-0.1c1.4-0.6,1.7-2.2,2.2-3.5C1105.3,1067.8,1104,1067.4,1103.7,1068.3z"/>
				<path fill="#6B6F80" d="M1106.2,1107.2c-0.1,0.5-0.3,1-0.2,1.5c0.1,0.4,0.5,0.5,0.8,0.3c1.3-0.7,0.7-3.2,0.1-4.2
					c-0.4-0.7-1.5-0.1-1.1,0.6C1106.2,1106.1,1106.3,1106.6,1106.2,1107.2z"/>
				<path fill="#6B6F80" d="M1097,1122.6c0.7,2.4,2.2,5.3,4.7,6.1c1.7,1,4.3,0.7,6.1,0.4c2.5-0.5,3.5-2.3,4.3-4.4
					c1.3,1.1,2.8,1.9,4.3,1.5c2.2-0.5,4-3.6,5.1-5.4c1.4-2.3,1.8-7.2,0-9.9c0.4-0.6,0.7-1.2,1-1.8c0.5-1.2,0.5-2.6,0.2-4
					c-0.3,0.1-0.5,0.3-0.7,0.6c-0.4-0.2-0.8-0.2-1.2-0.1c-2.2,1.1-5.4,1.6-7.6,0.5c-0.3-0.2-0.6,0.2-0.5,0.5c0,0.1,0.1,0.1,0.1,0.2
					c-1-0.2-2.1-0.1-3-0.7c-0.3-0.2-0.8,0.2-0.4,0.4c0.7,0.6,1.5,0.8,2.3,0.9c1.4,0.3,2.4,0.9,3.1,2.3c0.4,0.8,1.8-0.2,0.8-0.8
					c-0.1-0.1-0.3-0.2-0.4-0.3c1.9,0.6,4.3,0.2,6-0.6c-0.3,0.7-0.6,1.4-0.9,2c-1.3,0.3-1.7,2-0.8,2.9c3.8,4-0.2,6.3-2,9.4
					c-0.2,0.4-0.6,1.9-0.7,2.1c-1.1,0.8-2.9-0.4-3.9-1.2c-0.4-0.3-1-0.2-1.5,0c-3,1.6-7.7,4.4-10.4,1.1c2.2,0.2,4.3-0.7,4.5-3.3
					c0.1-0.6-0.8-0.7-1.1-0.3c-0.6,0.8-1.5,1.6-2.5,1.6c-0.7,0-1.4-0.2-2-0.3c0-0.2-0.1-0.4-0.2-0.5c-0.2-0.4-0.5-0.8-1.1-1.2
					c-0.1-0.1-0.2-0.1-0.4-0.2c1.3-1.4,0.5-3.6-0.4-5.2c0.2,0,0.4,0,0.6,0c1.4-0.2,3.1-1,4.2-2.1c0.6,3.6,2.1,8.2,6.1,8.2
					c4.6,0,7.5-4,7.3-8.2c-0.1-1.1-1.8-1.1-1.7,0c0.3,3.1-3.1,7.2-6.5,5.8c-2.2-1-3.6-4.5-4.5-6.9c0-0.1,0.1-0.2,0.1-0.2
					c0.3-0.2,0.7-0.4,1-0.6c0.7-0.6-0.1-1.6-0.8-1.5c-1.6,0.4-3.3,0-4.8,0.7c-0.7,0.3-0.8,1.1-0.2,1.5c0.4,0.3,0.9,0.4,1.5,0.5
					c-0.9,0.3-1.9,0.3-3-0.1c-0.7-0.3-1.2-0.9-1.8-1.3c0.2,2.2,1,4.5,2,6.3C1096.9,1118.7,1096.4,1120.7,1097,1122.6z"/>
				<g>
					<path fill="#80756B" d="M1110,1114.6C1110,1114.6,1110,1114.6,1110,1114.6C1110,1114.6,1110,1114.5,1110,1114.6
						C1110,1114.5,1110,1114.6,1110,1114.6z"/>
					<path fill="#80756B" d="M1105.5,1038.1c-0.3-0.5-0.7-1-1.1-1.3c-1.2-0.9-2.7-0.6-3.5,0.7c-0.7,1-0.9,2.3-0.3,3.4
						c0.5,1,1.6,1.6,2.6,1.9c1.6,0.4,3.4-0.6,3.4-2.3C1106.6,1039.5,1106.2,1038.7,1105.5,1038.1z"/>
					<path fill="#80756B" d="M1106.8,1077.3c0.7,1.1,2.1,1.6,3.3,1.3c1.2-0.3,2.1-1.5,2.1-2.8c0-1.2-0.9-2.6-2.1-3
						c-0.3-0.1-0.5-0.1-0.8-0.1c-0.2,0-0.3-0.1-0.5-0.1c-0.8,0-1.4,0.5-1.8,1.2C1106.4,1074.9,1106.1,1076.3,1106.8,1077.3z"/>
					<path fill="#80756B" d="M1111.9,1111.7c-0.1-0.6-0.5-1.1-1.2-1.3c-1.5-0.5-3,0.4-3.7,1.7c-0.6,1.1-1,2.7-0.4,3.8
						c0.3,0.5,0.8,0.8,1.3,1c0.1,0.1,0.1,0.1,0.2,0.2c0.7,0.7,1.7,0.7,2.5,0.3c1.3-0.3,2.2-1.3,2.5-2.7
						C1113.3,1113.7,1112.9,1112.4,1111.9,1111.7z M1110,1114.6C1110,1114.6,1110,1114.5,1110,1114.6
						C1110,1114.5,1110,1114.6,1110,1114.6C1110,1114.6,1110,1114.6,1110,1114.6z"/>
					<path fill="#80756B" d="M1000.4,1119.1c-0.3-0.3-0.8-0.4-1.2-0.4c-1.3,0-2.2,1.2-2.7,2.3c-0.4,1.1-0.3,2.3,0.3,3.3
						c0.7,1.2,1.9,1.6,3.2,1.6c1.2,0,2.4-0.6,3-1.7c0.6-1.1,0.7-2.4,0-3.5C1002.5,1119.6,1001.5,1119.1,1000.4,1119.1z"/>
					<path fill="#80756B" d="M1001.1,1076.1c-1.1-0.3-2.3-0.1-3,0.9c-0.1,0.1-0.1,0.2-0.2,0.3c-0.3,0.3-0.6,0.6-0.8,1
						c-0.5,1.1-0.4,2.2,0.5,3c0.7,0.7,1.7,1,2.7,1.1c1,0,2-0.4,2.7-1.1c0.9-0.9,0.8-2.3,0.2-3.3
						C1002.8,1077.1,1002,1076.4,1001.1,1076.1z"/>
					<path fill="#80756B" d="M998.3,1047c0.8-0.4,1.6-1.4,1.8-2.2c0.3-1.1-0.1-2.1-0.8-2.9c-0.6-0.7-1.4-1-2.3-1
						c-0.2,0-0.5-0.1-0.8,0c-0.8,0.2-1.5,0.8-1.9,1.6c-1,1.5-0.7,3.9,1,4.8C996.2,1047.6,997.4,1047.5,998.3,1047z"/>
				</g>
			</g>
		</g>
		<g>
			<path fill="#E6F7FF" d="M1116,994.5c-0.1,0-0.2-0.1-0.4-0.2c0.1-1.5-0.5-3.2-1.2-4.3c-0.5-0.7-1.3-1-2.1-1
				c-0.1-0.3-0.2-0.6-0.4-0.9c-0.9-1.8-2.4-3.6-3.7-4.5c-2.2-1.6-5.1-3.1-8-3.7c0-0.1-0.1-0.3-0.1-0.4c-1.9-4.5-4.6-7.8-8.1-10.4
				c-0.8-0.6-1.7-1.2-2.6-1.7c-0.2-0.1-0.3-0.2-0.5-0.3c0.2-0.4,0.4-0.8,0.6-1.3c0.2-0.6,0.3-1.2,0.3-1.8c0.1-0.8,0-1.7-0.1-2.5
				c-0.3-1.5-0.9-2.9-1.8-3.9c-1-1.2-2.5-1.9-4.1-1.2c-0.7,0.3-1,0.7-1.3,1.2c-0.2-0.2-0.4-0.5-0.6-0.7c-2-2.1-5.2-3.4-7.6-3.6
				c-4.5-0.4-9.1,0.7-12.2,3.8c-0.6-1-1.3-1.7-2-2.1c-0.7-0.7-1.5-1-2.3-0.9c-3.4,0.5-4.6,5.2-4.6,5.2s0.2,0.6,0.7,1.7
				c1.2,3,3.9,9.6,6.5,15.8c3.4,8.4,4.9,10.6,4.9,10.6s-26.1,0.1-38,2.8c0,0-4.3-6.6-15.7-17.4c-4-3.7-6.7-6.5-8.8-8.5
				c-3-2.8-4.5-4.2-5.8-4.8c-1.3-0.8-2.9-1.2-4.5-0.7c-2.3,0.7-3.2,3.3-3.8,5.8c-0.8-0.4-1.6-0.7-2.6-1c-3.4-0.9-7.5-2.1-11-2.2
				c-4.9-0.2-6.5,3.7-8.9,6.9c-0.2-0.7-0.6-1.3-1.1-1.9c-1-1.1-2.5-1.5-3.9-0.8c-1.1,0.6-2,1.6-2.5,2.8c-0.1,0.2-0.2,0.5-0.3,0.8
				c-0.5-0.1-1-0.4-1.5-0.6c-0.5-0.1-1-0.2-1.5-0.3c-0.7,0-1.3,0-1.9,0.3c-2.1,0.9-1.7,3.5-0.8,5.1c1,2,2.6,3.9,4.8,4.7
				c0.6,0.2,1.1,0.3,1.7,0.4c0.1,0.1,0.2,0.2,0.3,0.3c-0.3,1.1-0.4,2.3,0,3.3c0.2,0.5,0.8,0.7,1.2,0.4c0.1,0,0.1,0,0.2-0.1
				c3.2-2.5,0.3,4.1,0,4.8c-0.3,0.9,0.7,1.8,1.5,1.5c2.9-0.8,1,0.8,0.7,2c-0.3,1-0.4,2.2-0.1,3.2c0.4,1.4,1.1,1.9,2,2.4
				c-0.1,0.8,0.1,1.6,0.3,2.6c1,1.2,1.6,2.6,1.7,4.2c-0.1,1-0.2,2-0.3,3c0.1,1.4,0.1,2,0.9,3.1c0.5,0.7,1.1,0.9,2,0.8
				c0.3-0.1,0.7-0.2,0.9-0.3c-0.2,1.6,0.1,3.2,1,4.9c0.8,1.3,2.3,2.9,3.9,3.7c-1.5,2.3-1.3,4.9,0,7.5c1.6,3.1,5,4.7,8.5,5
				c5.8,0.4,9.8-4.1,10.5-9.3c1.9-0.5,4.6-0.2,5.9,0c3.1,0.4,5.6,2,6,5.2c0.1,0.9,0.9,1.2,1.6,1c3.1,0.6,7.1,0.8,9.8-0.6
				c1.1-0.6,2.3-1.2,3.4-2.1c1,0.1,2.1,0.1,3.1,0c0.6,1.1,1.4,2.1,2.7,2.7c1.6,0.8,3.5,0.9,5.2,1c1.3,0,3.1-0.2,4.6-0.7
				c1.8,2.3,4.5,4.1,7.4,3.9c3-0.2,5.9-2.5,7.3-5.2c3,0.9,6.3,0.2,8.9-1.8c1.3-1,2.5-2.5,3.2-4.2c2.4,4.3,6.2,8.3,11.3,7.7
				c2.3-0.2,4.8-1.6,5.9-3.7c0.4-0.8,0.8-2.1,1.1-3.3c2.7,1,6.3,0.9,8.5,0.2c0.7-0.2,1.5-0.6,2.2-1.1c1.7,0,3.4-0.1,4.9-0.5
				c1.9,0.9,4.1,1.5,6.1,1.2c1.4-0.2,3.5-1,5.2-2.2c0.6-0.1,1.2-0.2,1.8-0.3c2.2,0.5,4.4,0.2,6.6-1c3.8-2,4.7-4.2,5.2-8.3
				C1123.1,1002.8,1122.1,996.9,1116,994.5z"/>
			<path fill="#D6DEFF" d="M991.8,996.7c-5.5,6.8-10.8,14.1-13.5,22.6c-0.3,0.9,0.3,2.1,1.3,2.2c3.2,0.5,4.4-2.4,5.5-5
				c1.3-3.2,3.1-7,3.2-10.6c1.6-2.9,3.2-5.7,4.6-8.4C993.3,996.9,992.3,996.1,991.8,996.7z"/>
			<path fill="#D6DEFF" d="M1007.3,996.9c-6.5-0.6-7.5,16.8-8,20.5c-0.2,1.2,1.2,1.5,2,1c0.6,1.7,1.8,3.1,3.6,4.2
				c0.4,0.2,0.9,0.3,1.3,0.2c0,0.3,0.1,0.6,0.2,0.8c0.4,1.8,3.1,1.4,3.1-0.4c0-0.9,0-1.7,0.1-2.6c0.3-0.1,0.6-0.3,0.8-0.6
				c0.9,0,1.7-0.6,1.7-1.6c-0.3-5.4-0.8-10.8-1.5-16.1C1010.3,1000.2,1010,997.1,1007.3,996.9z"/>
			<path fill="#D6DEFF" d="M1121.1,1009.1c0.1-6.5-5.9-6.7-11-6.6c-1.9,0-3.8,0.2-5.7,0.1c-2.6-0.1-4-1.5-6.4-1.9
				c-1.7-0.3-2.7-0.4-3.9,0.5c-0.4-0.4-0.7-0.8-1.2-1.1c-0.4-0.2-0.8,0.2-0.7,0.6c0.1,0.7,0.4,1.3,0.7,1.9c0,0,0,0,0,0.1
				c-0.5,1.9,1.3,2.8,2.3,4.2c1.3,1.9,2.3,4.1,2.9,6.3c0.1,0.2,0.1,0.3,0.2,0.4c-0.1,0.3-0.2,0.6-0.2,0.9c0.1,3-10.2,2.3-12.4,2.5
				c-1.7,0.1-3.8,0.5-5.5,0.3c-1-0.1-1.7-0.1-2.2-0.3c0.2-0.3,0.4-0.7,0.5-1c0.6-0.2,1.1-0.6,1.4-1.3c0.5-1.3,0.9-2.7,1.1-4
				c1.2,0.4,2.7-0.2,2.8-1.8c0-2,0.4-4.4-0.2-6.4c0-0.4-0.1-0.8-0.2-1.2c1.3-1.5,1.6-3.5,1.2-5.3c-0.7-2.9-2.7-6-4.6-8.8
				c4.5-1.3,18.9-5.8,15.1-10.1c-2.1-2.3-6.3,0.7-8.3,1.6c-2.8,1.4-6.5,2.7-9.3,4.7c-1-1.6-2.1-3.1-3.2-4.6c3.1-1.6,6.3-3.2,9.3-5
				c1.7-1,3.3-2.1,5.1-2.8c1.1-0.4,1.9-0.5,2.8-1.2c0.2-0.1,0.3-0.3,0.4-0.5c-0.8-0.6-1.7-1.2-2.6-1.7c-0.2-0.1-0.3-0.2-0.5-0.3
				c0.2-0.4,0.4-0.8,0.6-1.3c-1.9-0.2-3.7,0.8-5.6,1.7c-4.3,2.1-8.7,4.1-12.9,6.4c-0.6-0.8-1.2-1.7-1.8-2.5c-2.6-4-4.8-8.3-7.3-12.4
				c-0.8-1.4-2.6-0.7-2.9,0.5c-0.3-0.2-0.6-0.4-0.9-0.6c-0.8-0.4-1.7,0.3-1.5,1.1c1.2,5,4.2,10.6,6.7,15.2c2.8,5.1,8.7,11,9.8,16.9
				c-0.6-0.2-1.3-0.3-2-0.4c0,0,0,0,0,0c-5.6-1.2-12-0.4-17.3-0.1c-1.1,0.1-2.2,0.1-3.4,0.2h-0.1c-9.7,0.2-19.3,1.1-29,2
				c-0.1,0-0.2,0-0.4,0.1c-4.9-5.2-11.3-10.8-14.1-17.2c-1.2-2.8-1.5-6-2.9-8.6c-1.4-2.6-3.7-4.7-5.4-7.1c-1.1-1.6-3.6-0.2-2.7,1.5
				c1.2,2.1,2.6,4,3.8,6.1l-5.5,1.7h0c-0.8-0.7-1.6-1.2-2.4-1.5c-0.9-0.4-1.9,0.4-1.4,1.4c1.4,2.8,3.3,5.5,5.3,8.1
				c-2.1,0.9-3.8,2.3-5.8,3.5c-2.5,1.5-5.2,2.8-7.7,4.5c-4.3,2.9-7.7,7.6-10,12.2c-0.3,0.6-0.1,1.2,0.3,1.5
				c-0.1,0.2-0.2,0.4-0.4,0.6c-0.7,1.3,0.5,3.1,2,2.5c4.7-1.6,7.9-6.1,11-9.8c3.9-4.7,8.1-8.6,12.7-12.6c3.4,3.9,7.1,7.7,10.4,11.2
				c2.7,2.9,5.5,6.8,8.7,9c0.5,0.3,1,0.5,1.5,0.8c1.5,1,2.1,1.7,3,3.5c1.1,2.5,1.8,5.2,2.5,7.9c0.5,2,3.7,1.2,3.2-0.9
				c0,0,0-0.1,0-0.1l1.2-1.2c0.1,0.2,0.3,0.4,0.4,0.7c1.2,2,4.2,0.2,3.2-1.8c-0.5-1-0.8-1.7-1.4-2.3c-1.2-2.2-2.3-4.6-3.2-7
				c6.2,2,12.9,1.5,19.4,0.2c5.3-1,10.8-2.9,16.3-1.9c3.8,0.7,7.3,2.8,10.5,5.1c-2.6,2.9-5,5.9-7.4,9c-0.2,0.3-0.3,0.6-0.3,0.9
				c-0.1,0.1-0.2,0.2-0.2,0.2c-1,0.9,0.3,2.6,1.5,1.9c0.2-0.1,0.4-0.3,0.6-0.4c0.2,0,0.3,0,0.5-0.1c0.2-0.1,0.4-0.2,0.6-0.3
				c-0.1,1.7,2.1,2.9,3.2,1.1c0.3-0.4,0.6-0.8,0.8-1.3c0.1,0.2,0.2,0.4,0.3,0.5c-0.2,2-0.2,4,1.9,5.2c3,1.6,8.4,0.2,11.6,0
				c1.6-0.1,3.7,0,5.7,0c0.9-0.6,1.7-1.3,2.3-2.1c0.8,0.6,1.7,1.2,2.6,1.6c1.3-0.3,2.5-0.9,3.4-1.8c2.2,1.2,5.2,1.1,7.9,0.7
				c0.3-0.2,0.5-0.4,0.7-0.6c0.3,0.1,0.7,0.2,1,0.3c0,0,0.1,0,0.1,0C1115.8,1017.8,1121.1,1015.3,1121.1,1009.1z"/>
			<path fill="#34AF93" d="M1084.3,972c-1.3,0.8-0.1,2.8,1.2,2.1c3-1.7,2.8-2.6,6.6-1.6c4,1,3,1.6,2.7,5.2c0,0.4-0.4,1.2-0.3,1.6
				c0.4,2.9,6.6,4.3,5.8,7.1c-0.2,0.7,0.2,1.3,0.7,1.8c2.2,1.6,7.5,0.8,10.9,0.1c-0.9-1.8-2.4-3.6-3.7-4.5c-2.2-1.6-5.1-3.1-8-3.7
				c0-0.1-0.1-0.3-0.1-0.4c-2.3-5.5-5.8-9.3-10.7-12.1C1087.6,968.7,1086.2,970.8,1084.3,972z"/>
			<path fill="#34AF93" d="M1084.5,962.8c1.9-0.6,4-0.5,5.2,1.3c0,0,0.1,0.1,0.1,0.1c0.2-2.3-0.5-4.8-1.9-6.4
				c-1-1.2-2.5-1.9-4.1-1.2c-0.7,0.3-1,0.7-1.3,1.2c-0.2-0.2-0.4-0.5-0.6-0.7c0.9,1.6,1.7,3.3,1.7,5.1
				C1083.6,962.6,1084.1,963,1084.5,962.8z"/>
			<g>
				<path fill="#A1A6BF" d="M1057.9,965.2c0.3,0.5,0.9,0.9,1.4,0.8c8.3-0.9,16.8-1.3,25.1-2.9c1.4-0.3,3.5-0.7,5.2-1.3
					c-0.3-1.5-0.9-2.9-1.8-3.9c-1-1.2-2.5-1.9-4.1-1.2c-0.7,0.3-1,0.7-1.3,1.2c-0.2-0.2-0.4-0.5-0.6-0.7c-2-2.1-5.2-3.4-7.6-3.6
					c-4.5-0.4-9.1,0.7-12.2,3.8c-0.6-1-1.3-1.7-2-2.1c-0.7-0.7-1.5-1-2.3-0.9c-3.4,0.5-4.6,5.2-4.6,5.2s0.2,0.6,0.7,1.7
					C1055.4,962.1,1056.8,963.3,1057.9,965.2z"/>
				<path fill="#A1A6BF" d="M1087.4,1002.7c0-1-1.1-1.6-2-1.1c-2.6,1.2-3.6,5.2-4.8,7.7c-1.4,3.1-2.5,6.3-3.6,9.5
					c-0.3,0.3-0.6,0.5-0.8,0.8c-1.2,1.3,0.4,3.7,1.9,2.5c1.4-1.1,2.7-2.2,4.1-3.3c1.3-1,4.2-2.3,5.1-3.8c0.8-1.2,0.4-3.2,0.4-4.5
					C1087.8,1007.8,1087.4,1005.2,1087.4,1002.7z"/>
				<path fill="#A1A6BF" d="M1056.1,1008c-2.6,2-4.4,4.2-6,7c-1.7,2.9-3.5,5.7-5.2,8.6c-0.5-4.5-1.8-8.9-3.7-12.9
					c-1.9-4.1-4-8.8-8.3-10.8c-0.4-0.2-0.8,0.3-0.5,0.6c6.2,6.2,8.3,16.6,9.8,24.9c-0.2,0.3-0.3,0.6-0.3,0.9c0,0.1,0,0.2,0,0.3
					c0.1,1.2,1,1.8,2.1,1.6c8.2-1.3,13.2-7.6,18.5-13.4c1.6-1.7,9.8-8.5,6.8-11.7C1066.4,1000,1058.3,1006.4,1056.1,1008z"/>
				<path fill="#A1A6BF" d="M1116.1,995.8c-3.4,0.2-6.3,1.1-9.7,0.5c-2.8-0.5-5.6-1.3-8.3-2.1c-0.6-0.3-1.2-0.5-1.9-0.6
					c-0.9-0.2-1.6,0.7-1.2,1.5c0,0.3,0.2,0.6,0.6,0.8c0.1,0,0.2,0.1,0.3,0.2c2.3,2.4,5.6,4.6,8.5,5.9c3.4,1.5,6.5,1.2,10,0.3
					c1.1-0.3,1.4-1.7,0.7-2.5c0.7-0.2,1.3-0.5,1.9-0.9C1118.1,998,1117.8,995.7,1116.1,995.8z"/>
				<path fill="#A1A6BF" d="M1104.5,986.8c0.7-0.6,0.6-1.7,0-2.3c-1.3-1.4-4-2.1-5.8-2.8c-0.5-0.2-1-0.4-1.5-0.5
					c-0.1-0.1-0.2-0.2-0.3-0.4c-0.6-0.4-1.1-0.6-1.6-0.5c0.3-0.5,0.6-1.1,0.8-1.8c0.3-0.8-0.9-1.3-1.4-0.6c-1,1.5-2.2,2.9-3.7,4
					c-0.7,0.5-0.8,1.4,0,1.9C1094.8,986.3,1100.2,990.5,1104.5,986.8z"/>
				<path fill="#A1A6BF" d="M1019.5,1001.7c0,0,0,0.1,0,0.2c-0.1,0.2-0.3,0.4-0.5,0.5c0-0.2,0-0.4-0.1-0.6c-0.1-0.7-1.2-0.5-1.3,0.2
					c-0.2,8-2.9,15.6-6.4,22.6c-0.5,1,0.1,2.3,1.3,2.2c3.6-0.1,7.3-1.2,9.3-4.2c0.8,0.6,2.2,0.4,2.7-0.9c2-6.1-0.7-14.6-2.3-20.5
					C1021.8,999.8,1019.5,1000.1,1019.5,1001.7z"/>
				<path fill="#A1A6BF" d="M993.8,1000.4c-3.7,3.9-6.1,8.3-8.3,13.1c-1.2,2.5-2.6,4.5-4.6,6.4c-1,0.9-1.7,1.6-2.3,2.5
					c-4.5,3.3,2.8,9.5,7.5,7.3c4.1-1.9,4.1-6.6,4.5-10.4c0.7-6.4,4.6-11.8,5.3-18C996,1000.2,994.5,999.7,993.8,1000.4z"/>
				<path fill="#A1A6BF" d="M986.6,991.8c0.2-0.5-0.4-0.8-0.7-0.4c-4.6,6.4-11.6,11.7-13.8,19.5c-0.4,1.5,1.7,3,2.8,1.7
					c2.5-3.1,3.2-6.6,4.8-10C981.6,998.8,984.6,995.6,986.6,991.8z"/>
				<path fill="#A1A6BF" d="M979.4,990.6c0.9-1.5,2.1-2.8,3.4-4.1c0.6-0.6-0.3-1.5-0.9-0.9c-0.2,0.2-0.5,0.4-0.7,0.6
					c-2.2-0.1-4.1,0.7-6.2,1.1c-2.4,0.4-4.3,0.2-5.8,2.4c-1.9,2.8-4.1,7.9,0.1,9.5c0.6,0.2,1.3,0,1.7-0.4c2.2-2.1,4.6-4,6.9-6
					C978.5,992,978.9,991.4,979.4,990.6z"/>
				<path fill="#A1A6BF" d="M965.9,989.5c0.7,1.5,3.1,0.7,3-0.8l0-0.7c2.7-1.2,5.6-3.3,4.1-6c-0.3-0.6-1-0.8-1.7-0.7
					c-3.4-1.5-3.9-2.3-1.3-2.5c0.5-0.1,1-0.2,1.5-0.3c1.7-0.4,3.5-0.8,5.2-1.2c3.7-0.8,7.5-1.7,11.2-2.6c3.5-0.8,7-1.6,10.5-2.4
					c1.4-0.3,3.8-0.3,4.7-1.5c0.9-1.1,0.6-1.9,0.3-3.2c-0.2-1.1-0.7-2.1-0.9-3.2c-3-2.8-4.5-4.2-5.8-4.8c-1.3-0.8-2.9-1.2-4.5-0.7
					c-2.3,0.7-3.2,3.3-3.8,5.8c-0.8-0.4-1.6-0.7-2.6-1c-3.4-0.9-7.5-2.1-11-2.2c-4.9-0.2-6.5,3.7-8.9,6.9c-0.2-0.7-0.6-1.3-1.1-1.9
					c-1-1.1-2.5-1.5-3.9-0.8c-1.1,0.6-2,1.6-2.5,2.8c-0.1,0.2-0.2,0.5-0.3,0.8c-0.5-0.1-1-0.4-1.5-0.6c-0.5-0.1-1-0.2-1.5-0.3
					c-0.2,2.4,0.4,5,1.5,7.2c0.6,1.3,1.3,2.3,2.2,3.3c0.1,0,0.2,0,0.4,0c0,0.1,0,0.2-0.1,0.3c0.5,0.6,1.1,1.1,1.7,1.7
					C963.4,983.4,964.4,986.2,965.9,989.5z"/>
			</g>
			<path fill="#34AF93" d="M956.8,968.6c-1.1-0.3-2.4-0.4-3.5,0c-2.1,0.9-1.7,3.5-0.8,5.1c1,2,2.6,3.9,4.8,4.7
				c0.8,0.3,1.4,0.4,2,0.4c-0.3,1.2-0.5,2.5,0,3.6c0.2,0.5,0.8,0.7,1.2,0.4c0.1,0,0.1,0,0.2-0.1c3.2-2.5,0.3,4.1,0,4.8
				c-0.3,0.9,0.7,1.8,1.5,1.5c2.9-0.8,1,0.8,0.7,2c-0.3,1-0.4,2.2-0.1,3.2c0.4,1.4,1.1,1.9,2,2.4c-0.1,0.8,0.1,1.6,0.3,2.6
				c1,1.2,1.6,2.6,1.7,4.2c-0.1,1-0.2,2-0.3,3c0.1,1.4,0.1,2,0.9,3.1c0.5,0.7,1.1,0.9,2,0.8c0.3-0.1,0.7-0.2,0.9-0.3
				c-0.2,1.6,0.1,3.2,1,4.9c0.8,1.3,2.3,2.9,3.9,3.7c-1.5,2.3-1.3,4.9,0,7.5c1.6,3.1,5,4.7,8.5,5c5.8,0.4,9.8-4.1,10.5-9.3
				c1.9-0.5,4.6-0.2,5.9,0c3.1,0.4,5.6,2,6,5.2c0.1,0.9,0.9,1.2,1.6,1c3.1,0.6,7.1,0.8,9.8-0.6c1.1-0.6,2.3-1.2,3.4-2.1
				c1,0.1,2.1,0.1,3.1,0c0.6,1.1,1.4,2.1,2.7,2.7c1.6,0.8,3.5,0.9,5.2,1c1.3,0,3.1-0.2,4.6-0.7c1.8,2.3,4.5,4.1,7.4,3.9
				c3-0.2,5.9-2.5,7.3-5.2c3,0.9,6.3,0.2,8.9-1.8c1.3-1,2.5-2.5,3.2-4.2c2.4,4.3,6.2,8.3,11.3,7.7c2.3-0.2,4.8-1.6,5.9-3.7
				c0.4-0.8,0.8-2.1,1.1-3.3c2.7,1,6.3,0.9,8.5,0.2c1.6-0.5,3.4-1.7,4.6-3.2c2.4,1.9,5.8,3.2,8.7,2.8c1.6-0.2,4.2-1.3,6-2.8
				c2.6,0.8,5.1,0.6,7.6-0.7c3.8-2,4.7-4.2,5.2-8.3c0.9-6.8-0.1-12.8-6.2-15.1c-0.9,1.6-2.7,2.9-4.6,3.9c-2.7,0.8-5.4,1.2-6,1.3
				c-1.9,0.3-1.6,3,0,3.5c2.3,0.7,4.2,0.5,6.6,0.5c5.1,0.1,8.8,5.4,5.1,9.8c-2.4,2.8-6.3,3.8-9.8,3.7c-2.7,0-5.3-0.8-7-3
				c-0.9-1.1-1.5-2.5-2.3-3.6c-1.7-2.3-4.4-4.1-7.3-3.1c-5.5,1.9-5.8,9.2-12.6,8.2c-4-2.1-8.3-5-12.9-4.2
				c-6.6,1.2-10.1,9.2-16.8,10.3c-9.8,1.6-5.5-11.5-11-14.6c-2.9-1.7-7.3,0.1-10.2,2.1c-1.2,0.8-2.3,1.6-3.2,2.5
				c-3.6,3.5-2.9,9.2-8.6,11c-6.3,2-9-2.2-12.5-6.3c-4.4-5-9.4-1-12.7,3c-1.2,1.4-2.8,4.4-4.4,5.3c-5.8,3.3-5.8-3.8-5.1-7.2
				c0.5-2.3,1.3-4.2,1.7-6.2c0.2-0.1,0.3-0.2,0.5-0.5c1.1-2.3,0.7-6.2-2.8-4.7c-1,0.4-1.9,2.8-2.8,2.8c-2.5-1.4-3-2.9-1.4-4.4
				c0.5-0.7,0.9-1.3,1.4-2c1.6-2.3,3.4-4,2.8-6.8c-0.1-0.7-1-1-1.6-0.7c-2.2,1.3-2.4,2.1-4.2,0c-1.8-2.1-0.7-2-0.5-4.2
				c0.1-0.8,0.2-1.8-0.2-2.7c-1.8-4.5-8,0-8.4-7.3c0-0.5-0.5-0.8-0.9-0.7c-2.3,0.5-1.9-2-2.6-3c-0.7-1.1-2.8-0.3-1.9-3.1
				c0.1-0.3-0.1-0.7-0.3-0.8c-1.3-0.7-1.3-2.8-1-4.9c-0.1,0.2-0.2,0.5-0.3,0.8C957.7,969,957.3,968.7,956.8,968.6z"/>
		</g>
	</g>
</g>
</svg>
