<?xml version="1.0" encoding="utf-8"?>
<!-- Generator: Adobe Illustrator 23.0.1, SVG Export Plug-In . SVG Version: 6.00 Build 0)  -->
<svg version="1.1" id="_x33_4_x5F_Top_x5F_GermanFootballJersey_1_"
	 xmlns="http://www.w3.org/2000/svg" xmlns:xlink="http://www.w3.org/1999/xlink" x="0px" y="0px" viewBox="0 0 2000 2000"
	 enable-background="new 0 0 2000 2000" xml:space="preserve">
<g>
	<g>
		<path fill="#FBFBFB" d="M941.2,993.5c0,0.1-0.1,0.2-0.1,0.2c0.1-0.1,0.2-0.1,0.2-0.2C941.3,993.5,941.2,993.5,941.2,993.5z"/>
		<path fill="#FBFBFB" d="M1217.7,1100.7c-0.1-0.2-0.1-0.3-0.2-0.5c-2.3-7.2-11.3-10.6-22.8-15.2c-0.4-0.1-0.7-0.3-1.2-0.5
			c-1.2-0.6-2.6-1.4-4.1-2.4c-14.7-9.7-45.1-38.1-75.4-63.7c-7.3-6.2-14.7-13.7-21-20.5c-0.7-0.8-1.5-1.6-2.2-2.4
			c-0.6-0.7-1.2-1.3-1.8-2c-0.1-0.1-0.2-0.2-0.3-0.4c-4-4.4-7.4-8.2-9.8-10.6c-2.1-2.2-4.2-4.6-6.3-7c-4.2-4.9-8.3-9.9-12-13.1
			c-2.8-2.5-4.5-3-5.4-3c-0.9,0-1.2,0.7-1.2,0.7s0.1,0.7,0.6,2.2c0.3,0.9,0.9,2.1,1.7,3.7c2.1,4.2,3.8,7.2,0.8,24
			c-3.2,18.1-13.6,30.6-13.6,30.6c-0.1,0-0.3,0-0.4,0c-34-3.9-52.1-25.1-58.5-35c-3.1-4.8-3.4-8.2-2.9-10.4c0.6-2.4,2.1-3.5,2.1-3.5
			c-3.3,1.1-7.2,2.8-11.6,5c-0.4,0.2-0.8,0.4-1.1,0.6c-6.6,3.4-14.1,7.9-22.1,13c-0.5,0.3-0.9,0.6-1.4,0.9
			c-26.4,17.1-57.5,40.9-75.7,55.5c-32.6,26-55.5,41.2-69.1,50.8c-4.1,2.9-7.4,5.4-9.8,7.4c-10.3,8.9-6.8,9-6.8,9s3-0.2,7.8-0.2
			c4.1,0,9.5,0.2,15.4,0.9c4.5,0.5,9.4,1.3,14.1,2.6c5.7,1.5,11.3,3.6,16,6.6c19.8,12.4,30.9,32.8,30.9,32.8
			c-14,17.9-31.8,44.6-37.8,53.9c-0.3,0.4-0.5,0.8-0.8,1.2c-0.9,1.3-1.4,2.1-1.4,2.1c21.2,21.2,40.9,21.2,53.1,1.2
			s29.6-60.8,38.9-81.9s28.8-41,28.8-41s-2.8,33.5-4.7,49c-1.9,15.6-10.2,28.5-11.3,33.2c-0.6,2.5,0.9,4.6,2.5,6.1
			c1.4,1.3,2.8,2,2.8,2l0.7-3.7l0.9-4.6c0,0,46-13.6,84.9-14.2s73.5-1.1,113,14c9.5,3.6,6.9,4.9,9.1,8.2s3,6.6,4.6,11.4
			s2.7,10.2,8.6,11.8s11.8,0.6,17.6-5.4l-17.8-19.2c0,0-1.7-13.1,1.7-24.4c3.4-11.3,6.1-22.3,22.8-39.9
			c16.7-17.6,20.7-13.2,20.7-13.2l10.1,7.3C1217.5,1110.7,1219.7,1107.5,1217.7,1100.7z"/>
	</g>
	<path fill="#898989" d="M1096.9,1055.2l8.3,9.6l-0.9,9.2l5.6,6l-2.2,8.2l7.9,7c0.3-7.7-1.6-30.7-6.9-42.4s-11.9-23.6-13.9-39.6
		c-0.9-7.6-1.5-12.3-1.8-15.2c-1.4-1.5-2.7-2.9-4-4.3c0.9,4.1,2,9.2,3,14.9C1094.6,1023.5,1096.5,1042.5,1096.9,1055.2z"/>
	<path fill="#414449" d="M968.7,981.5c2.3-1.9,3.3-3.5,3.6-4.7c-7.2,3.7-15.6,8.7-24.6,14.5c1.3,0.8,2.6,1.7,2.7,1.8
		C950.4,993.1,963.6,985.6,968.7,981.5z"/>
	<path fill="#CE2828" d="M809.6,1114.8c5-4.5,11.7-10.4,20.1-17.9c-3.3-0.3-6.8-0.6-9.8-0.4c-1.1,0.1-2.2,0.1-3.4,0.2
		c-8.4,6.1-16.3,12.4-22.3,17.3C798.3,1113.9,803.7,1114.1,809.6,1114.8z"/>
	<path fill="#424242" d="M786.4,1114.1c0,0,3-0.2,7.8-0.2c6-4.8,13.9-11.2,22.3-17.3c-4.4,0.3-9.5,0.7-13.6,1
		c-4.1,2.9-7.4,5.4-9.8,7.4C782.8,1113.9,786.4,1114.1,786.4,1114.1z"/>
	<path fill="#F6C628" d="M842.9,1098.8c0,0-6.3-1.3-13.2-2c-8.4,7.5-15.1,13.5-20.1,17.9c4.5,0.5,9.4,1.3,14.1,2.6
		C833.5,1107.1,842.9,1098.8,842.9,1098.8z"/>
	<path fill="#898989" d="M998.3,1065.3l-10.6-8.8c0,0,16.2-9.4,37.3-12c21.1-2.5,45.7-1.9,45.7-1.9l27.2,17.6l-2.3,10.9
		L998.3,1065.3z"/>
	<path fill="#B6B6B6" d="M995.1,1078c-6.8-6.9-8.7-10-8.7-10s19.1-14.8,82.6-18.4l33.8,24.5l-1.6,10.8l-33-19L995.1,1078z"/>
	<path fill="#D8D8D8" d="M1104.3,1098.3c1.9-4.6,3.1-9.2,3.1-9.2l-32.9-27.1c0,0-20.4-0.2-42.6,3.9c-22.2,4.1-52.6,17.2-52.6,17.2
		l9.3,6.6c0,0,29.3-9.9,50.4-12.1c21.1-2.2,36.2-2.8,36.8-2.7C1076.3,1075.1,1104.3,1098.3,1104.3,1098.3z"/>
	<g>
		<path fill="#FFDB94" d="M1050.1,1073c-4.8-0.6-7.7-4.9-9.2-6.6s-1.9-2.3-2.4-5.4s-1.4-8.8-1-11.2s2.5-3.4,6.7-3.7s15-0.6,17.2-0.4
			c2.2,0.2,2.4,3.5,2.5,6.3c0.1,2.8,0.6,7,0,9.5s-2.8,6-6.2,8.5S1053.1,1073.4,1050.1,1073z"/>
	</g>
	<path fill="#FFFFFF" d="M1051.2,1073.6c-0.4,0-0.8,0-1.2-0.1l0,0c-4.4-0.5-7.2-4-8.9-6c-0.2-0.3-0.5-0.6-0.7-0.8
		c-1.5-1.8-2-2.4-2.5-5.7l-0.2-1.3c-0.5-3.3-1.2-7.9-0.8-10c0.5-3.2,3.9-3.8,7.1-4.1c4-0.3,15-0.6,17.3-0.4c2.8,0.3,2.9,4.3,2.9,6.8
		c0,0.8,0.1,1.7,0.1,2.6c0.2,2.4,0.3,5.1-0.1,7c-0.6,2.4-2.6,6.1-6.4,8.8l-0.3,0.2C1054.9,1072.6,1053.5,1073.6,1051.2,1073.6z
		 M1050.2,1072.5c2.7,0.3,3.8-0.4,7-2.7l0.3-0.2c3.3-2.4,5.4-5.8,6-8.2c0.4-1.7,0.3-4.4,0.1-6.7c-0.1-0.9-0.1-1.8-0.1-2.7
		c-0.1-2.7-0.3-5.6-2-5.8c-2.1-0.2-12.7,0.1-17.1,0.4c-4.1,0.3-5.9,1.2-6.2,3.2c-0.3,2,0.4,6.6,0.8,9.7l0.2,1.3
		c0.4,3,0.8,3.5,2.2,5.2c0.2,0.2,0.4,0.5,0.7,0.8C1043.5,1068.8,1046.1,1072,1050.2,1072.5L1050.2,1072.5z"/>
	<g>
		<path fill="#FBFBFB" d="M1049.5,1053.9c2.1,0.1,4.1,0.2,6.2,0c2.6,0.8,3.7-4.6,0.4-4.3c-2.1,0.2-4.1,0.2-6.2,0.1
			c-2.1-0.1-4.2,0.2-6.3,0.2c-2,0-2.7,3.4-0.5,3.7C1045.2,1054,1047.3,1053.8,1049.5,1053.9z"/>
		<path fill="#FBFBFB" d="M1050.4,1060.2c1.2,0.1,2.5,0.2,3.7,0.1c0.5,0,2.1-0.4,2.4-0.4c0.6,0.2,1.2,0.2,1.8-0.2c0,0,0.1,0,0.1-0.1
			c2-1.4,1.2-4.2-1.2-4.4c-1-0.1-2,0.3-3,0.4c-1.1,0.1-2.2,0-3.3,0c-2.4-0.1-4.6,0.3-6.9,0.4c-2.1,0.1-2.4,2.9-0.5,3.6
			C1045.6,1060.4,1048.2,1060.1,1050.4,1060.2z"/>
		<path fill="#FBFBFB" d="M1057.5,1061.1c-2.2,0.2-4.3,0.4-6.5,0.6c-1.9,0.1-4,0-5.6,1c-1.1,0.6-1.1,2.2,0,2.8
			c1.8,1.1,4.1,0.9,6.1,0.8c2.2-0.1,4.5-0.3,6.7-0.6C1060.7,1065.3,1060.1,1060.9,1057.5,1061.1z"/>
	</g>
	<path fill="#898989" d="M960.5,1095.1c7.2-4.2,18.7-12,18.7-12l-7.3-9.5l12.4-5.6l-9.5-6.9l10.6-4.8c0,0-5.9-25.8-10.6-35.9
		c-4.7-10.1-9.1-13.1-9.1-13.1s4.4,13.1,4.8,19.5c0.5,6.3-0.2,21.6-4.5,38.5C961.9,1082.2,960.5,1095.1,960.5,1095.1z"/>
	<path fill="#414449" d="M1000,1043.5c-0.2-0.1-4.2-3.8-4.2-3.8l-5.4,6.5l2.7,0.8L1000,1043.5z"/>
	<polygon fill="#414449" points="1003.3,1043.3 1009.1,1041.2 1000.9,1033.6 997.5,1037.8 	"/>
	<g>
		<path fill="none" d="M1088,1021.5c0-0.1,0-0.1,0-0.2c0,0,0,0,0,0C1088,1021.3,1088,1021.4,1088,1021.5z"/>
		<path fill="none" d="M1070.3,1022.1C1070.3,1022.1,1070.3,1022.1,1070.3,1022.1C1070.3,1022.2,1070.3,1022.2,1070.3,1022.1
			L1070.3,1022.1z"/>
		<path fill="none" d="M1075.9,1028.1c-1.9,3.2-2.4,6.5-0.3,10.3c2.2,3.9,7.3,7.8,12,5.8C1098.3,1039.3,1085.3,1019.2,1075.9,1028.1
			z M1087.1,1036.3c-0.8,2.1-2.8,3.4-5.1,2.8c-2.2-0.6-3.7-2.6-4.7-4.5c-0.6-1,0.8-2.2,1.7-1.3c0.7,0.8,1.4,1.4,2.3,1.8
			c0.2-0.8,0.5-1.7,0.8-2.5c0.4-1.1,2.1-0.7,1.8,0.5c-0.2,0.8-0.3,1.7-0.3,2.5c0.1,0,0.2,0,0.3-0.1c0.6-0.2,0.7-0.7,1.1-1.1
			C1086.4,1033.1,1087.7,1034.6,1087.1,1036.3z"/>
		<path fill="#414449" d="M1084.9,1034.5c-0.4,0.4-0.6,0.9-1.1,1.1c-0.1,0-0.2,0.1-0.3,0.1c0-0.8,0.1-1.7,0.3-2.5
			c0.3-1.2-1.4-1.6-1.8-0.5c-0.3,0.8-0.6,1.6-0.8,2.5c-0.9-0.4-1.7-1.1-2.3-1.8c-0.8-0.9-2.2,0.3-1.7,1.3c1,1.9,2.5,4,4.7,4.5
			c2.3,0.6,4.3-0.7,5.1-2.8C1087.7,1034.6,1086.4,1033.1,1084.9,1034.5z"/>
		<path fill="#414449" d="M1087.5,1026.8c-4.4-3.6-12.6-4.4-14,2.4c-4.7,9.4,10.4,23.6,17.8,14.2
			C1095.6,1037.9,1092.1,1030.5,1087.5,1026.8z M1087.6,1044.1c-4.7,2.1-9.8-1.8-12-5.8c-2.1-3.8-1.6-7.1,0.3-10.3
			C1085.3,1019.2,1098.3,1039.3,1087.6,1044.1z"/>
		<path fill="#414449" d="M1070.2,1021.6C1070.2,1021.6,1070.2,1021.6,1070.2,1021.6c0-0.8-0.6-1.5-1.4-1.5c0,0-0.1,0-0.1,0
			c-0.5-0.2-1-0.1-1.4,0.3c-0.4,0.5-0.5,1.1-0.2,1.6c0,0,0,0,0,0c0.1,0.2,0.3,0.4,0.4,0.6c0.1,0.4,0.2,0.7,0.3,1
			c0.4,0.8,1.4,1.4,2.3,1.1c0.6-0.2,1-0.8,1-1.4c0-0.5-0.2-0.8-0.4-1.2C1070.5,1022,1070.4,1021.8,1070.2,1021.6z M1070.3,1022.1
			C1070.3,1022.1,1070.3,1022.1,1070.3,1022.1C1070.3,1022.1,1070.3,1022.1,1070.3,1022.1
			C1070.3,1022.2,1070.3,1022.2,1070.3,1022.1z"/>
		<path fill="#414449" d="M1077.3,1021.6c1,0,1.6-1,1.6-1.9c0-0.7-0.3-1.3-0.7-1.9c-0.1-0.2-0.3-0.3-0.4-0.4
			c-0.2-0.2-0.3-0.3-0.5-0.3c-0.7-0.2-1.3,0.2-1.5,0.8C1075.3,1019.2,1075.6,1021.6,1077.3,1021.6z"/>
		<path fill="#414449" d="M1088.2,1022.6c0.2-0.2,0.3-0.5,0.3-0.7c0.1-0.4,0.1-0.5,0-0.3c0-0.2,0.1-0.3,0.1-0.5
			c0-0.4-0.1-0.8-0.2-1.1c0.1-0.5-0.1-1-0.5-1.3c-0.5-0.4-1.4-0.4-1.8,0.1c-0.1,0.1-0.1,0.2-0.2,0.2c-0.1,0.1-0.3,0.2-0.4,0.4
			c-0.1,0.1-0.1,0.3-0.1,0.4c-0.3,0.5-0.5,1.2-0.5,1.8C1084.9,1023.4,1087.1,1024,1088.2,1022.6z M1088,1021.5c0-0.1,0-0.1,0-0.2
			c0,0,0,0,0,0C1088,1021.4,1088,1021.4,1088,1021.5z"/>
	</g>
	<path fill="#414449" d="M958,998.2l-4.6-3.1c0,0,4.8-3.7,10.9-7s9-5.3,10.1-4.7s3.7,3,3.7,3L958,998.2z"/>
	<path opacity="0.3" fill="#05132B" enable-background="new    " d="M1027.2,1160.1c38.9-0.7,73.5-1.1,113,14
		c9.5,3.6,6.9,4.9,9.1,8.2s3,6.6,4.6,11.4s2.7,10.2,8.6,11.8s11.8,0.6,17.6-5.4l-17.8-19.2c0,0-1.7-13.1,1.7-24.4
		c3.4-11.3,6.1-22.3,22.8-39.9c16.7-17.6,20.7-13.2,20.7-13.2l10.1,7.3c0,0,2.2-3.2,0.2-10c-1.2-1.5-3-2.5-5.5-2.3
		c-3.4,0.2-7,2.9-9.9,4.5c-3.7,2-7.2,4.2-10.6,6.7c-5.8,4.4-10.9,9.7-15.2,15.6c-2.4,3.3-4.5,6.9-6.3,10.6c-1.7,3.6-2.7,7.8-5.1,11
		c-1.1,1.5-3.3,3.6-5.4,3.8c-2.5,0.3-3.6-2-5.3-3.9c-1.7-1.9-3.8-4-5-6.2c-1.6-3-0.7-5.6,0.3-8.5c1.5-4.5,3.5-8.7,5.9-12.7
		c3.1-4.7,6.7-9.1,10.4-13.2c4.5-5,9.1-9.7,14.4-13.8c4.1-3.2,8.5-5.6,13.2-7.7c-1.2-0.6-2.6-1.4-4.1-2.4
		c-18.6,8.3-35.9,24.4-43.8,43.4c-1.3-3.4-3-6.6-4.8-9.7c-1.1-2.5-2.5-4.9-4.3-7.1c-1.6-2.6-3.1-5.2-4.5-7.9
		c-4.7-9.3-6.3-19.9-11.2-29.1c-5-9.2-12.2-16.9-16-26.8c-2.9-7.5-5.4-15.2-7.9-22.9c-2.2-8.7-3.8-17.7-6-26.4
		c-0.6-0.7-1.2-1.3-1.8-2c-0.1-0.1-0.2-0.2-0.3-0.4c1.3,10.1,4.3,20.2,6.6,30c2.8,12,5.3,24.5,9.2,36.2c3.6,10.8,9.5,20.6,14,31.1
		c5.2,12.2,9.2,24.8,13.5,37.3c0.2,0.5,0.5,0.9,0.9,1.1c0.9,3,1.8,6,2.6,9c2.2,8,4,16.2,5.6,24.3c-2.4-1-5.2-1.7-6.8-2.2
		c-6.4-2.4-12.9-4.2-19.5-5.8c-12.5-3.1-25.3-5-38.2-5.9c-27-1.8-54.9-1.7-81.1,5.7c-0.6,0.2-0.3,1.1,0.3,0.9
		c12.4-3.9,25.9-4.3,38.8-4.6c12.2-0.3,24.5-0.3,36.7,0.6c12.3,0.8,24.6,2.3,36.6,4.9c5.8,1.3,11.4,2.8,17.1,4.7
		c2.8,0.9,5.6,1.9,8.3,3c0.8,0.3,5.9,1.9,7.9,3.1c0,0,0,0,0,0c0,0.1,0.1,0.2,0.1,0.3c0.2,0.5,0.5,0.9,0.9,1.1c0.3,1.9,0.7,3.8,1,5.7
		c-15.8-6.2-32.8-9.7-49.5-12.3c-16.9-2.7-33.3-4.6-50.4-3.4c-16.9,1.2-33.7,2.5-50.5,4.7c-12.2,1.6-25.7,3.1-37.9,7.1
		c0.9-5.1,0.6-10.6,0.8-15.7c0.3-7.6,0.7-15.1,1.2-22.6c0.5-8.5,1.2-16.9,1.9-25.4c1.9-6.8,2.2-14.1,3.4-20.9
		c1.5-8.4,3.7-16.7,5.2-25.2c0.8-4.5,1.3-9.1,1.7-13.7c1-4.8,1.7-9.7,2-14.6c0.5-9.9-1.3-21.9-8.4-29.3c-4.2-4.4-8.4-9.3-13.5-12.1
		c-0.5,0.3-0.9,0.6-1.4,0.9c-26.4,17.1-57.5,40.9-75.7,55.4c-32.6,26-55.5,41.2-69.1,50.8c-4.1,2.9-7.4,5.4-9.8,7.4
		c-10.3,8.9-6.8,9-6.8,9s3-0.2,7.8-0.2c4.1,0,9.5,0.2,15.4,0.9c4.5,0.5,9.4,1.3,14.1,2.6c5.7,1.5,11.3,3.6,16,6.6
		c19.8,12.4,30.9,32.8,30.9,32.8c-14,17.9-31.8,44.6-37.8,53.9c5.7,5.5,14.9,8.4,22.5,8.9c8.7,0.7,16-2.5,20.3-10.2
		c9.2-16.3,4.1-38.3-3.5-54.2c-7.9-16.6-22-30-38.8-37.5c-13.3-5.9-29.9-8.7-45-6c3.4-2.8,6.8-5.8,10.3-8.4c1.2-0.9,2.5-1.8,3.7-2.8
		c11.4-2,23.9-2.7,34.4,0.4c13.1,3.9,26,11.3,35.5,21.2c4.7,4.9,9.5,10,12.6,16.1c3.1,6.1,4.7,13.2,6,19.9
		c1.4,7.2,2.1,14.6,2.4,21.9c-1,2.5-1.8,5.1-3,7.5c-2,3.8-5,7.2-6.2,11.3c-2.7,8.8-4.6,21.2-14.8,24.3c-8.1,2.4-17.5,0.8-25.1-2.5
		c-4.7-2-8.6-5.1-12-8.7c-0.9,1.3-1.4,2.1-1.4,2.1c21.2,21.2,40.9,21.2,53.1,1.2s29.6-60.8,38.9-81.9s28.8-41,28.8-41
		s-2.8,33.5-4.7,49c-1.9,15.6-10.2,28.5-11.3,33.2c-0.6,2.5,0.9,4.6,2.5,6.1c1.2-0.7,2.3-1.2,3.5-1.7l0.9-4.6
		C942.3,1174.3,988.3,1160.7,1027.2,1160.1z M947.8,1083.4c-11.3,13.6-22.9,27.4-32.5,42.3c-5.5,8.5-11,17.1-16.4,25.6
		c-0.8,1.2-1.6,2.4-2.3,3.6c-1.2-5.2-2.6-10.3-4.6-15.2c-3-7.3-8-12.4-13.5-17.9c-11.1-10.9-25-19.5-40.1-23.9
		c-8.5-2.5-17-2.3-25.7-1.5c-1.9,0.2-3.8,0.3-5.6,0.6c2.8-2.1,5.7-4.3,8.5-6.4c11.7-8.7,23.5-17.2,35.5-25.4
		c10.7-7.2,21.7-14,32.1-21.5c0.2-0.2,0.4-0.3,0.6-0.4c9.9-5.8,18.9-13.6,27.5-20.7c11.3-9.3,25.1-15.7,35.8-25.8
		c1.8,1.4,3.4,2.9,4.9,4.2c3.1,2.7,6.7,5.7,8.6,9.4c2.1,4.3,3.1,9,3.3,13.8c0,0.7-0.1,1.4-0.1,2c-0.1,2.9-0.2,5.8-0.4,8.8
		c-0.2,1.5-0.4,2.9-0.6,4.3C960.2,1054.9,954.8,1069.5,947.8,1083.4z"/>
	<path opacity="0.3" fill="#05132B" enable-background="new    " d="M983.8,971.9c-3.3,1.1-7.2,2.8-11.6,5c-0.4,0.2-0.8,0.4-1.1,0.6
		c1.2,5,4.6,9.5,7.6,13.6c4.9,6.6,10.4,12.7,16.8,17.9c12.8,10.6,30.3,17.6,47,18.6c0.3,0,0.5-0.1,0.6-0.3c0.4,0.1,0.9,0,1.2-0.4
		c9.7-15.4,30.9-26.9,28.4-47.8c-0.1-0.8-0.2-1.6-0.4-2.5c0.2-0.2,0.4-0.5,0.5-0.9c-4.2-4.9-8.3-9.9-12-13.1c-2.8-2.5-4.5-3-5.4-3
		c-0.4,0.7-0.6,1.7-0.5,2.9c0.3,0.9,0.9,2.1,1.7,3.7c2.1,4.2,3.8,7.2,0.8,24c-3.2,18.1-13.6,30.6-13.6,30.6c-0.1,0-0.3,0-0.4,0
		c-0.4,1.7-0.7,3.4-0.8,5.2c-7.7-2.2-15.5-3.1-23-5.9c-7.2-2.8-14.1-6.7-20.2-11.5c-5.3-4.2-10.1-9-14.3-14.3
		c-0.1-0.1-0.2-0.3-0.3-0.4c-3.3-6-9.1-15.2-2.7-18.5C982.3,973,983.8,971.9,983.8,971.9z M975.9,981c0.1,0,0.2-0.1,0.2-0.1
		c0,0.2,0,0.5,0.1,0.7C976.1,981.4,976,981.2,975.9,981z M1058.4,997.2c2.3-6.3,3.4-14.3,2.7-21.8c0.4-0.7,1.1-1.2,2.1-1.4
		c2.4-0.7,4.2,1.2,6.2,2.5c2.3,6.1,1.5,12.8-1.9,18.6c-5.1,8.7-13.8,14.9-20,22.7C1050.8,1010.9,1055.7,1004.5,1058.4,997.2z"/>
</g>
</svg>
