<?xml version="1.0" encoding="utf-8"?>
<!-- Generator: Adobe Illustrator 23.0.1, SVG Export Plug-In . SVG Version: 6.00 Build 0)  -->
<svg version="1.1" id="_x33_5_x5F_Top_x5F_KraftwerkShirt_1_"
	 xmlns="http://www.w3.org/2000/svg" xmlns:xlink="http://www.w3.org/1999/xlink" x="0px" y="0px" viewBox="0 0 2000 2000"
	 enable-background="new 0 0 2000 2000" xml:space="preserve">
<g>
	<g>
		<path fill="none" d="M1269.1,1156.9c1.9-0.8,3.9-1.6,5.8-2.3C1273,1155.3,1271,1156.1,1269.1,1156.9z"/>
		<path fill="none" d="M1267.3,1212.9C1267.3,1212.9,1267.3,1212.9,1267.3,1212.9C1267.3,1212.9,1267.3,1212.9,1267.3,1212.9z"/>
		<path fill="none" d="M1267.4,1212.8L1267.4,1212.8c0.7-1.3,1.4-2.6,2.2-3.8C1268.9,1210.3,1268.2,1211.6,1267.4,1212.8z"/>
		<path fill="none" d="M1268.2,1174.8c0-0.1,0-0.2,0.1-0.3c1.9-1.2,3.7-2.3,5.6-3.3c-1.9,1-3.7,2.1-5.6,3.3
			C1268.2,1174.6,1268.2,1174.7,1268.2,1174.8z"/>
		<path fill="none" d="M1267.2,1212.9c-0.1,0-0.2-0.1-0.2-0.3c0.3-1.1,0.7-2.2,1.1-3.3c-0.4,1.1-0.7,2.2-1.1,3.3
			C1267,1212.8,1267.1,1212.9,1267.2,1212.9z"/>
		<path fill="none" d="M1279.3,1168.3c0.6-0.3,1.1-0.6,1.7-0.9c1.9-1,4.8-2.5,6.7-4.4c-1.9,1.9-4.8,3.4-6.7,4.4
			C1280.4,1167.7,1279.9,1168,1279.3,1168.3z"/>
		<path fill="none" d="M1265.8,1162.4c2.5-0.9,5-1.7,7.4-2.6c2.2-0.8,4.9-1.5,7.4-2.4c1.3,0,2.5,0,3.7-0.1c0.3,0,0.7-0.1,1.2-0.1
			c-0.4,0-0.9,0.1-1.2,0.1c-1.2,0.1-2.4,0.1-3.7,0.1c-2.6,0.9-5.2,1.6-7.4,2.4C1270.8,1160.6,1268.3,1161.4,1265.8,1162.4z"/>
		<path fill="none" d="M1297.5,1193.6c0.3,0.5,0.7,1.1,1,1.6C1298.2,1194.7,1297.9,1194.1,1297.5,1193.6c-0.2-0.2-0.3-0.4-0.5-0.7
			C1297.2,1193.2,1297.4,1193.4,1297.5,1193.6z"/>
		<path fill="none" d="M1301.9,1201.7c0.2,0.6,0.4,1.2,0.7,1.8C1302.4,1202.8,1302.2,1202.2,1301.9,1201.7c0-0.1-0.1-0.1-0.1-0.2
			C1301.9,1201.5,1301.9,1201.6,1301.9,1201.7z"/>
		<path fill="none" d="M1310.5,1217.2c-0.4-0.5-0.8-1-1.2-1.5c-1.6-2.1-3-4.3-4.2-6.7c1.2,2.3,2.6,4.6,4.2,6.7
			C1309.7,1216.2,1310.1,1216.7,1310.5,1217.2z"/>
		<path fill="none" d="M1281.5,1183.1c0.2-0.3,0.3-0.6,0.5-0.9c0.6-1,1.3-2,1.8-3.1l0,0c-0.5,1.1-1.2,2.1-1.8,3.1
			C1281.8,1182.5,1281.7,1182.8,1281.5,1183.1z"/>
		<path fill="none" d="M1264.1,1186.8c2.9-3.4,6-6.6,9.5-9.6c1.1-0.9,2.2-1.9,3.3-2.8c-1.1,0.9-2.2,1.8-3.3,2.8
			C1270.2,1180.2,1267.1,1183.4,1264.1,1186.8c-2.7,2.4-5.1,4.9-6.9,8.1c0,0.1-0.1,0.1-0.1,0.2c0-0.1,0-0.1,0.1-0.2
			C1259.1,1191.6,1261.5,1189.1,1264.1,1186.8z"/>
		<path fill="none" d="M1255.8,1167.6c-0.1,0.1-0.1,0.1-0.2,0.1C1255.7,1167.7,1255.8,1167.7,1255.8,1167.6c1-0.8,2.1-1.6,3.3-2.2
			C1258,1166,1256.8,1166.8,1255.8,1167.6z"/>
		<path fill="none" d="M1257.2,1195c0,0.1,0,0.1,0,0.2l0,0C1257.2,1195.1,1257.2,1195,1257.2,1195z"/>
		<path fill="none" d="M1328.5,1238.6c0.6,2.3-0.5,4.7-2.6,6c-2.7,1.6-6.7,0.5-9.4-0.4c-7.7-2.6-11.3-8.8-14.7-15.7
			c-0.1-0.2,0.2-0.4,0.4-0.2c2.4,4.3,6.3,9.2,11,11.8c-4.7-2.6-8.6-7.5-11-11.8c-0.1-0.2-0.5,0-0.4,0.2c3.4,6.9,7,13.1,14.7,15.7
			c2.7,0.9,6.7,2,9.4,0.4C1328,1243.3,1329.1,1240.8,1328.5,1238.6c-0.2-4.8-3.5-9-6.8-12.8
			C1325,1229.5,1328.3,1233.7,1328.5,1238.6z"/>
		<path fill="none" d="M1282.7,1169.4L1282.7,1169.4c-4.3,1.6-8.9,2.7-13,4.8C1273.7,1172.2,1278.3,1171.1,1282.7,1169.4z"/>
		<path fill="none" d="M1278.8,1179c0.2-0.1,0.4-0.2,0.6-0.4C1279.2,1178.8,1279,1178.9,1278.8,1179c-0.3,0.2-0.7,0.4-1,0.6
			C1278.2,1179.4,1278.5,1179.2,1278.8,1179z"/>
		<path fill="none" d="M1283.2,1177.8c0,0,0.1,0.2,0.2,0.6C1283.3,1178,1283.2,1177.8,1283.2,1177.8L1283.2,1177.8z"/>
		<path fill="none" d="M1277.2,1152.6c-0.1,0.3-0.2,0.6-0.4,0.9C1277,1153.2,1277.1,1152.9,1277.2,1152.6z"/>
		<path fill="none" d="M1289.7,1158.3c-0.1-0.2-0.2-0.3-0.3-0.5C1289.5,1158,1289.6,1158.1,1289.7,1158.3z"/>
		<path fill="none" d="M1044.9,1142.7c0-0.1,0-0.1-0.1-0.1C1044.9,1142.6,1044.9,1142.6,1044.9,1142.7z"/>
		<path fill="none" d="M1060,1141.2c0.1-0.4,0.2-0.8,0.2-1.2C1060.2,1140.3,1060.1,1140.8,1060,1141.2z"/>
		<path fill="none" d="M1060.3,1139.4c0.1-0.7,0.2-1.4,0.2-2.1C1060.4,1138.1,1060.4,1138.8,1060.3,1139.4z"/>
		<path fill="none" d="M1060.4,1132c0,0.3,0.1,0.6,0.1,0.8C1060.4,1132.6,1060.4,1132.3,1060.4,1132z"/>
		<path fill="none" d="M1060.5,1133.8c0,0.3,0,0.6,0,0.9C1060.5,1134.4,1060.5,1134.1,1060.5,1133.8z"/>
		<path fill="none" d="M1010.4,955.6c7.8-0.1,15.2-2.8,22.1-6.4C1025.6,952.8,1018.2,955.5,1010.4,955.6z"/>
		<path fill="none" d="M1060.2,1130.2c0,0.2,0.1,0.5,0.1,0.7C1060.2,1130.7,1060.2,1130.4,1060.2,1130.2z"/>
		<path fill="none" d="M1071.9,1141.5L1071.9,1141.5c0.1-0.1,0.1-0.3,0.1-0.4C1072,1141.2,1071.9,1141.3,1071.9,1141.5z"/>
		<path fill="none" d="M1264.1,1159.6c-3.1,2-5.8,4.5-8.4,7.4C1258.3,1164.1,1261,1161.6,1264.1,1159.6z"/>
		<path fill="none" d="M1072.3,1140.2c0.1-0.2,0.2-0.5,0.2-0.7C1072.5,1139.7,1072.4,1139.9,1072.3,1140.2z"/>
		<path fill="none" d="M1057.7,1132.6c0,0.3,0,0.7,0,1C1057.7,1133.2,1057.7,1132.9,1057.7,1132.6z"/>
		<path fill="none" d="M1060.5,1135.7c0,0.3,0,0.6,0,0.9C1060.5,1136.3,1060.5,1136,1060.5,1135.7z"/>
		<path fill="none" d="M1057.3,1138.4c0.1-0.5,0.1-0.9,0.2-1.4C1057.4,1137.5,1057.3,1138,1057.3,1138.4z"/>
		<path fill="none" d="M1255,1199.4c1.4-1.7,2.8-3.3,4.4-4.9C1257.8,1196.1,1256.3,1197.7,1255,1199.4c-0.4,0.5-1-0.2-0.6-0.6
			c0.8-1,1.6-2,2.4-3c-0.8,1-1.6,2-2.4,3C1254,1199.2,1254.6,1199.9,1255,1199.4z"/>
		<path fill="none" d="M1057.7,1132c0-0.5,0-1-0.1-1.5C1057.7,1131,1057.7,1131.5,1057.7,1132z"/>
		<path fill="none" d="M1057.6,1135.1c0-0.3,0-0.6,0.1-0.9C1057.7,1134.4,1057.7,1134.8,1057.6,1135.1z"/>
		<path fill="none" d="M1044.7,1142.2C1044.8,1142.2,1044.8,1142.3,1044.7,1142.2C1044.8,1142.3,1044.8,1142.2,1044.7,1142.2z"/>
		<path fill="none" d="M1057.3,1138.5c-0.2,1-0.3,2.1-0.5,3.1c0,0,0,0,0,0C1056.9,1140.6,1057.1,1139.5,1057.3,1138.5z"/>
		<path fill="none" d="M1044.5,1141.9C1044.5,1142,1044.6,1142,1044.5,1141.9C1044.6,1142,1044.5,1142,1044.5,1141.9z"/>
		<path fill="none" d="M1057.5,1136.7c0-0.3,0.1-0.7,0.1-1.1C1057.6,1136,1057.5,1136.3,1057.5,1136.7z"/>
		<path fill="none" d="M1280.6,1157.3c1.3,0,2.5,0,3.7-0.1c0.3,0,0.7-0.1,1.2-0.1c-0.4,0-0.9,0.1-1.2,0.1
			C1283.1,1157.3,1281.9,1157.3,1280.6,1157.3c-2.6,0.9-5.2,1.6-7.4,2.4c-2.4,0.9-4.9,1.7-7.4,2.6c2.5-0.9,5-1.7,7.4-2.6
			C1275.4,1158.9,1278.1,1158.2,1280.6,1157.3z"/>
		<path fill="none" d="M1269.7,1174.3c4.1-2.1,8.7-3.2,13-4.8C1278.3,1171.1,1273.7,1172.2,1269.7,1174.3z"/>
		<path fill="none" d="M1268.2,1174.8c0-0.1,0-0.2,0.1-0.3c1.9-1.2,3.7-2.3,5.6-3.3c-1.9,1-3.7,2.1-5.6,3.3
			C1268.2,1174.6,1268.2,1174.7,1268.2,1174.8z"/>
		<path fill="none" d="M1264.1,1159.6c-3.1,2-5.8,4.5-8.4,7.4C1258.3,1164.1,1261,1161.6,1264.1,1159.6z"/>
		<path fill="none" d="M1257.2,1195c0,0.1,0,0.1,0,0.2l0,0C1257.2,1195.1,1257.2,1195,1257.2,1195z"/>
		<path fill="none" d="M1259.1,1165.4c-1.2,0.7-2.3,1.4-3.3,2.2c-0.1,0.1-0.1,0.1-0.2,0.1c0.1,0,0.1,0,0.2-0.1
			C1256.8,1166.8,1258,1166,1259.1,1165.4z"/>
		<path fill="none" d="M1254.3,1198.8c0.8-1,1.6-2,2.4-3C1255.9,1196.8,1255.1,1197.8,1254.3,1198.8c-0.4,0.4,0.3,1.1,0.6,0.6
			c1.4-1.7,2.8-3.3,4.4-4.9c-1.5,1.6-3,3.2-4.4,4.9C1254.6,1199.9,1254,1199.2,1254.3,1198.8z"/>
		<path fill="none" d="M1032.5,949.2c-6.9,3.5-14.2,6.2-22.1,6.4C1018.2,955.5,1025.6,952.8,1032.5,949.2z"/>
		<path fill="none" d="M1269.1,1156.9c1.9-0.8,3.9-1.6,5.8-2.3C1273,1155.3,1271,1156.1,1269.1,1156.9z"/>
		<path fill="none" d="M1071.9,1141.5c0-0.1,0.1-0.3,0.1-0.4C1072,1141.2,1071.9,1141.3,1071.9,1141.5
			C1071.9,1141.5,1071.9,1141.5,1071.9,1141.5z"/>
		<path fill="none" d="M1056.7,1141.6c0.2-1,0.4-2.1,0.5-3.1C1057.1,1139.5,1056.9,1140.6,1056.7,1141.6L1056.7,1141.6z"/>
		<path fill="none" d="M1276.8,1153.5c0.2-0.3,0.3-0.6,0.4-0.9C1277.1,1152.9,1277,1153.2,1276.8,1153.5z"/>
		<path fill="none" d="M1310.5,1217.2c-0.4-0.5-0.8-1-1.2-1.5c-1.6-2.1-3-4.3-4.2-6.7c1.2,2.3,2.6,4.6,4.2,6.7
			C1309.7,1216.2,1310.1,1216.7,1310.5,1217.2z"/>
		<path fill="none" d="M1297.1,1192.9c0.2,0.2,0.3,0.5,0.5,0.7c0.3,0.5,0.7,1.1,1,1.6c-0.3-0.5-0.7-1.1-1-1.6
			C1297.4,1193.4,1297.2,1193.2,1297.1,1192.9z"/>
		<path fill="none" d="M1321.7,1225.8c3.3,3.7,6.6,7.9,6.8,12.8c0.6,2.3-0.5,4.7-2.6,6c-2.7,1.6-6.7,0.5-9.4-0.4
			c-7.7-2.6-11.3-8.8-14.7-15.7c-0.1-0.2,0.2-0.4,0.4-0.2c2.4,4.3,6.3,9.2,11,11.8c-4.7-2.6-8.6-7.5-11-11.8c-0.1-0.2-0.5,0-0.4,0.2
			c3.4,6.9,7,13.1,14.7,15.7c2.7,0.9,6.7,2,9.4,0.4c2.2-1.3,3.2-3.7,2.6-6C1328.3,1233.7,1325,1229.5,1321.7,1225.8z"/>
		<path fill="none" d="M1302.6,1203.4c-0.2-0.6-0.4-1.2-0.7-1.8c0-0.1-0.1-0.2-0.1-0.2c0,0.1,0.1,0.2,0.1,0.2
			C1302.2,1202.2,1302.4,1202.8,1302.6,1203.4z"/>
		<path fill="none" d="M1279.3,1168.3c0.6-0.3,1.1-0.6,1.7-0.9c1.9-1,4.8-2.5,6.7-4.4c-1.9,1.9-4.8,3.4-6.7,4.4
			C1280.4,1167.7,1279.9,1168,1279.3,1168.3z"/>
		<path fill="none" d="M1267,1212.7c0.3-1.1,0.7-2.2,1.1-3.3C1267.7,1210.4,1267.4,1211.5,1267,1212.7c-0.1,0.2,0.1,0.3,0.2,0.3
			C1267.1,1212.9,1267,1212.8,1267,1212.7z"/>
		<path fill="none" d="M1277.8,1179.6c0.3-0.2,0.7-0.4,1-0.6c0.2-0.1,0.4-0.2,0.6-0.4c-0.2,0.1-0.5,0.3-0.6,0.4
			C1278.5,1179.2,1278.2,1179.4,1277.8,1179.6z"/>
		<path fill="none" d="M1264.1,1186.8c-2.7,2.4-5.1,4.9-6.9,8.1c0,0.1-0.1,0.1-0.1,0.2c0-0.1,0-0.1,0.1-0.2
			C1259.1,1191.6,1261.5,1189.1,1264.1,1186.8c2.9-3.4,6-6.6,9.5-9.6c1.1-0.9,2.2-1.9,3.3-2.8c-1.1,0.9-2.2,1.8-3.3,2.8
			C1270.2,1180.2,1267.1,1183.4,1264.1,1186.8z"/>
		<path fill="none" d="M1267.4,1212.8c0.7-1.3,1.4-2.6,2.2-3.8C1268.9,1210.3,1268.2,1211.6,1267.4,1212.8L1267.4,1212.8z"/>
		<path fill="none" d="M1282,1182.2c-0.2,0.3-0.3,0.6-0.5,0.9C1281.7,1182.8,1281.8,1182.5,1282,1182.2c0.6-1,1.3-2,1.8-3.1l0,0
			C1283.3,1180.2,1282.6,1181.2,1282,1182.2z"/>
		<path fill="none" d="M1283.2,1177.8c0,0,0.1,0.2,0.2,0.6C1283.3,1178,1283.2,1177.8,1283.2,1177.8L1283.2,1177.8z"/>
		<path fill="#D32D2D" d="M1505,1151.6c0,0-7.3,17.2-19.2,20.6c-11.9,3.4-42,9.6-64.6,2.1c-22.6-7.5-42.8-18.7-54.7-38.1
			c-11.7-19-10.8-33.5-8.6-51.9c0,0,0,0,0,0c0-0.3,0.1-0.7,0.1-1.1c0,0-2.2-3.7-8.4,1.9c-0.8,0.7-1.3,1.5-1.8,2.3
			c-0.1,1.3-0.1,2.6-0.1,3.9c-0.1-1.3-0.1-2.7,0.1-3.9c-3,6.2,1.7,17.2-4.1,33.2c0,0,0,0-0.1,0c-0.3,2.2-1,4.1-1.9,6
			c0.9-1.9,1.6-3.8,1.9-6c-0.9-0.3-10.3-3.1-22.2,5.8c-7.5,5.6-12.7,13.7-16.3,21.1v0c-2.4,4.8-4.2,9.3-5.4,12.7c0,0-2.2-1.7-6,0
			c0,0-0.1-3.8-2.1-4.8c-2-1-5.6,1.2-14.4-3.9c0,0,0,0,0,0.1c0,0,0,0,0-0.1c-0.3-0.2-0.6-0.3-0.9-0.5c-9.4-5.8-60.2-41-87.9-64.1
			c-27.5-22.9-55-49.6-78-78.5l0,0c-0.2-0.2-0.3-0.4-0.5-0.6l2.2-2.4c0.1-0.1,0.1-0.2,0-0.2c-1.4,0.8-2.9,1.8-3.9,3.2
			c1-1.3,2.5-2.3,3.9-3.2c-0.2-0.8-3.8-2.1-8.6-6.3c-3.6-3.2-10.1-10.4-14.1-15l0,0c-2-2.3-3.4-3.8-3.4-3.8s0.4-1.8,1-2.9
			c0.3-0.6,0.3-1.3-0.1-2.5l0,0l0,0c-0.4-1.1-1-2.6-2-4.9c-0.3-0.7-0.6-1.6-1-2.6c-2.3-6.3-5.7-18.2-6.7-24.8c0,0-15.1,3.9-21.3,4.4
			c-1.9,0.2-3.4,0.2-4.6,0.1c-1.7-0.6-6.5-1.1-8.5-0.8c0,0,0,0,0,0l0,0c-0.9,0.3-1.2,1-1.6,1.7c0,0-0.8-1.3-2.3-1.5l0,0l0,0
			c0,0-0.2,0-0.5,0l0,0l0,0l0,0c-1.6,0-3.5,0.7-10.9,4.2c-7.8,3.7-18.5,4.8-24.8,3.6c-6.3-1.2-13.6-2.9-16-3.3
			c-2.4-0.4-2.8,0.2-3.8,3.5c-1,3.4-2.8,10.4-4.8,15c-2,4.6-2,5.8-0.2,7.7c0,0-16,11-26.8,18.6c6,0.8,12.1,0.8,18.1-0.8
			c-5.9,1.6-12,1.6-18.1,0.8c-4.9,3.4-8.8,6.1-9.5,6.7c-2.3,1.9-1.2,4.3-1.2,4.3s-48.8,32.7-89.1,58.9s-112.2,72.2-145,99.6
			c-16.2,13.5-29.8,25.3-40,38.4c-10.5,13.5-17.4,28.3-19.7,47.6c-4.5,38.2,10.4,52.4,16.7,65.2s11.6,18.5,14.9,30.1
			c3.3,11.7,3.4,7.4,7.9,10c4.5,2.6,5.6,2.1,4.8,8.2c-0.8,6.2-2.7,27.9-2.7,27.9s9,8.6,22.2,15.1c13.3,6.4,44.4,19.7,54.9,4.4
			L820,1450c0,0,9.7,2.2,14.9-2.4c0,0-1.2-0.8-2.6-2.7c-2-2.7-4.2-7.5-3.5-15.2c0.2-2.3,0.5-4.2,0.8-5.7c0.5-2.3,1.1-3.7,1.6-4.6
			c0.4-0.3,0.8-0.7,1.2-1.1c0-0.2,0-0.3,0-0.4c0.7-0.7,1.2-1.1,1.6-2.1c0.7-2.2-1.1-1.2-0.5-3.3v0c0-0.1,0.1-0.2,0.1-0.3
			c0.2-0.6,0.6-1.3,1.1-2.4c3.1-5.7,18.4-36.1,57.9-54.4c39.5-18.3,62.2-14.2,74.7-2.3c0,0,0-0.3,0.1-0.7c0.2-2,0.3-7.6-2.5-10.8
			c-3.5-4-9.5-7.2-21.5-16.4c-12.5-9.7-23.1-17.9-29.8-23.1c-4.7-3.6-7.4-5.7-7.4-5.7s2.5-15.6-7.3-29.2s-14.9-17.9-17-18.6
			c-0.1,0-0.3-0.1-0.4-0.1c-2-0.2-4.5,2.1-12.7,2.5c-2.5,0.9-5.4,1.1-8.4,1c-0.4,0-0.9-0.1-1.3-0.1c0.4,0,0.9,0.1,1.3,0.1
			c2.9,0.2,5.8-0.1,8.3-1c-0.4,0-0.9,0.1-1.4,0.1c-10,0.2-15.9-7.6-18.2-12c-2.3-4.4-4.3-7.5-4.3-7.5s7.4-5.7,14.6-5.5
			c0,0,2.9-2.8,5.6-10.2s-0.3-10.9-2.7-16.4c-2.4-5.5,5.3-7.8,8.3-14c3.1-6.1,3.3-11.8,4.8-23.3c1.5-11.5,28.7-42.2,43.2-60.5
			c14.6-18.3,30.3-34.4,30.3-34.4s-1.2,23.3-7.8,44.4c-6.6,21.1-9.3,47.8,0.7,58.4c10,10.5,99.3-18.9,133-17.6
			c33.7,1.3,69.9,8.5,69.9,8.5s9.5,19.6,24.5,39c15,19.4,29.9,39.2,58.6,63.5s56.3,41.5,88,46.6c31.8,5.1,69-2.6,85.1-10.6
			c16.1-7.9,18.8-6.2,24.3-9.2c5.5-3,11-8.7,14.3-13.7c3.3-5,1.4-13.4,1.4-13.4s18-1,26.4-8.3c8.4-7.3,16.3-19.7,8.3-42.7
			c0,0,19.5-20.4,28.8-33.5C1513.8,1165.3,1508.8,1154.6,1505,1151.6z M1010.4,955.6c7.8-0.1,15.2-2.8,22.1-6.4
			C1025.6,952.8,1018.2,955.5,1010.4,955.6z M1044.5,1141.9C1044.5,1142,1044.6,1142,1044.5,1141.9
			C1044.6,1142,1044.5,1142,1044.5,1141.9z M1044.7,1142.2C1044.8,1142.2,1044.8,1142.3,1044.7,1142.2
			C1044.8,1142.3,1044.8,1142.2,1044.7,1142.2z M1044.9,1142.5c0,0.1,0,0.1,0.1,0.1C1044.9,1142.6,1044.9,1142.6,1044.9,1142.5z
			 M1060.4,1132.8c0-0.3,0-0.6-0.1-0.8C1060.4,1132.3,1060.4,1132.6,1060.4,1132.8z M1056.7,1141.6L1056.7,1141.6
			c0.2-1,0.4-2.1,0.5-3.1C1057.1,1139.5,1056.9,1140.6,1056.7,1141.6z M1057.3,1138.4c0.1-0.5,0.1-0.9,0.2-1.4
			C1057.4,1137.5,1057.3,1138,1057.3,1138.4z M1057.5,1136.7c0-0.3,0.1-0.7,0.1-1.1C1057.6,1136,1057.5,1136.3,1057.5,1136.7z
			 M1057.7,1132c0-0.5,0-1-0.1-1.5C1057.7,1131,1057.7,1131.5,1057.7,1132z M1057.6,1135.1c0-0.3,0-0.6,0.1-0.9
			C1057.7,1134.4,1057.7,1134.8,1057.6,1135.1z M1057.7,1133.5c0-0.3,0-0.7,0-1C1057.7,1132.9,1057.7,1133.2,1057.7,1133.5z
			 M1060,1141.2c0.1-0.4,0.2-0.8,0.2-1.2C1060.2,1140.3,1060.1,1140.8,1060,1141.2z M1060.2,1130.2c0,0.2,0.1,0.5,0.1,0.7
			C1060.2,1130.7,1060.2,1130.4,1060.2,1130.2z M1060.3,1139.4c0.1-0.7,0.2-1.4,0.2-2.1C1060.4,1138.1,1060.4,1138.8,1060.3,1139.4z
			 M1060.5,1134.7c0-0.3,0-0.6,0-0.9C1060.5,1134.1,1060.5,1134.4,1060.5,1134.7z M1060.5,1136.6c0-0.3,0-0.6,0-0.9
			C1060.5,1136,1060.5,1136.3,1060.5,1136.6z M1071.9,1141.5L1071.9,1141.5c0-0.1,0.1-0.2,0.1-0.4
			C1072,1141.2,1071.9,1141.3,1071.9,1141.5z M1072.3,1140.2c0.1-0.2,0.2-0.5,0.2-0.7C1072.5,1139.7,1072.4,1139.9,1072.3,1140.2z
			 M1277.2,1152.6c-0.1,0.3-0.2,0.6-0.4,0.9C1277,1153.2,1277.1,1152.9,1277.2,1152.6z M1274.9,1154.5c-2,0.8-3.9,1.5-5.8,2.3
			C1271,1156.1,1273,1155.3,1274.9,1154.5z M1273.2,1159.7c2.2-0.8,4.9-1.5,7.4-2.4c1.2,0,2.5,0,3.7-0.1c0.3,0,0.7-0.1,1.2-0.1
			c-0.4,0-0.9,0.1-1.2,0.1c-1.2,0.1-2.4,0.1-3.7,0.1C1278.1,1158.2,1275.4,1158.9,1273.2,1159.7c-2.4,0.9-4.9,1.7-7.4,2.6
			C1268.3,1161.4,1270.8,1160.6,1273.2,1159.7z M1268.3,1174.6c-0.1,0.1-0.1,0.2-0.1,0.3C1268.2,1174.7,1268.2,1174.6,1268.3,1174.6
			c1.9-1.2,3.7-2.3,5.6-3.3C1272,1172.2,1270.2,1173.3,1268.3,1174.6z M1282.7,1169.4c-4.3,1.6-8.9,2.7-13,4.8
			C1273.7,1172.2,1278.3,1171.1,1282.7,1169.4z M1264.1,1159.6c-3.1,2-5.8,4.5-8.4,7.4C1258.3,1164.1,1261,1161.6,1264.1,1159.6z
			 M1255.8,1167.6c1-0.8,2.1-1.6,3.3-2.2C1258,1166,1256.8,1166.8,1255.8,1167.6c-0.1,0.1-0.1,0.1-0.2,0.1
			C1255.7,1167.7,1255.8,1167.7,1255.8,1167.6z M1255,1199.4c-0.4,0.5-1-0.2-0.7-0.7c0.8-1,1.6-2,2.4-3c-0.8,1-1.6,2-2.4,3
			C1254,1199.2,1254.6,1199.9,1255,1199.4c1.4-1.7,2.8-3.3,4.4-4.9C1257.8,1196.1,1256.3,1197.7,1255,1199.4z M1257.2,1195
			c0,0.1,0,0.1,0,0.2l0,0C1257.2,1195.1,1257.2,1195,1257.2,1195z M1267,1212.7c0.3-1.1,0.7-2.2,1.1-3.3
			C1267.7,1210.4,1267.4,1211.5,1267,1212.7c0,0.2,0.1,0.3,0.2,0.3C1267.1,1212.9,1267,1212.8,1267,1212.7z M1267.3,1212.9
			C1267.3,1212.9,1267.3,1212.9,1267.3,1212.9C1267.3,1212.9,1267.3,1212.9,1267.3,1212.9z M1267.4,1212.8L1267.4,1212.8
			c0.7-1.3,1.4-2.6,2.2-3.8C1268.9,1210.3,1268.2,1211.6,1267.4,1212.8z M1273.6,1177.1c-3.5,3-6.6,6.3-9.5,9.6
			c-2.7,2.4-5.1,4.9-6.9,8.1c0,0.1-0.1,0.1-0.1,0.2c0-0.1,0-0.1,0.1-0.2c1.8-3.2,4.2-5.7,6.9-8.1
			C1267.1,1183.4,1270.2,1180.2,1273.6,1177.1c1.1-0.9,2.2-1.9,3.3-2.8C1275.8,1175.2,1274.7,1176.2,1273.6,1177.1z M1278.8,1179
			c-0.3,0.2-0.7,0.4-1,0.6C1278.2,1179.4,1278.5,1179.2,1278.8,1179c0.2-0.1,0.4-0.2,0.6-0.4C1279.2,1178.8,1279,1178.9,1278.8,1179
			z M1282,1182.2c-0.2,0.3-0.3,0.6-0.5,0.9C1281.7,1182.8,1281.8,1182.5,1282,1182.2c0.6-1,1.3-2,1.8-3.1l0,0
			C1283.3,1180.2,1282.6,1181.2,1282,1182.2z M1283.2,1177.8L1283.2,1177.8c0,0,0.1,0.3,0.2,0.6
			C1283.3,1178,1283.2,1177.8,1283.2,1177.8z M1281,1167.4c-0.6,0.3-1.1,0.6-1.7,0.9C1279.9,1168,1280.4,1167.7,1281,1167.4
			c1.9-1,4.8-2.5,6.7-4.4C1285.8,1164.9,1282.9,1166.4,1281,1167.4z M1289.4,1157.8c0.1,0.1,0.2,0.3,0.3,0.5
			C1289.6,1158.1,1289.5,1158,1289.4,1157.8z M1297.5,1193.6c-0.2-0.2-0.3-0.4-0.5-0.7C1297.2,1193.2,1297.4,1193.4,1297.5,1193.6
			c0.3,0.5,0.7,1.1,1,1.6C1298.2,1194.7,1297.9,1194.1,1297.5,1193.6z M1309.4,1215.7c0.4,0.5,0.8,1,1.2,1.5
			C1310.1,1216.7,1309.7,1216.2,1309.4,1215.7c-1.6-2.1-3-4.3-4.2-6.7C1306.4,1211.4,1307.8,1213.6,1309.4,1215.7z M1301.9,1201.7
			c0.2,0.6,0.4,1.2,0.7,1.8C1302.4,1202.8,1302.2,1202.2,1301.9,1201.7c0-0.1-0.1-0.2-0.1-0.2
			C1301.9,1201.5,1301.9,1201.6,1301.9,1201.7z M1325.8,1244.6c-2.7,1.6-6.7,0.5-9.4-0.4c-7.7-2.6-11.3-8.8-14.7-15.7
			c-0.1-0.2,0.2-0.4,0.4-0.2c2.4,4.3,6.3,9.2,11,11.8c-4.7-2.6-8.6-7.5-11-11.8c-0.1-0.2-0.5,0-0.4,0.2c3.4,6.9,7,13.1,14.7,15.7
			C1319.2,1245,1323.2,1246.1,1325.8,1244.6c2.2-1.3,3.2-3.7,2.6-6c-0.2-4.8-3.5-9-6.8-12.8c3.3,3.7,6.6,7.9,6.8,12.8
			C1329.1,1240.8,1328,1243.3,1325.8,1244.6z"/>
		<path fill="#D32D2D" d="M860.3,1251.9c-0.4,0-0.9-0.1-1.3-0.1C859.5,1251.8,859.9,1251.9,860.3,1251.9z"/>
	</g>
	<path opacity="0.3" fill="#05132B" enable-background="new    " d="M879.9,1351.9c-0.1,0.1,0,0.2,0.1,0.1c6.5-3,12.8-6,19.5-8.6
		c6.3-2.5,12.7-4.3,19.4-5.6c6.9-1.3,13.9-1.7,20.9-1.5c7.3,0.2,14.2,1.7,21.3,2.8c0.2,0,0.2-0.2,0.1-0.2
		c-6.3-2.5-13.7-3.4-20.5-3.8c-7.1-0.4-14.3,0.1-21.3,1.3c-7.1,1.2-14,3.5-20.6,6.3C892.5,1345.4,885.6,1347.8,879.9,1351.9z"/>
	<g opacity="0.3">
		<path fill="#05132B" d="M725,1344c1.2,2.8,2.9,8,6.5,7.9c0.5,0,1.1-0.3,1.4-0.8c1.1-2,1.5-4.6,1.6-7.1c1-5.1,0.7-11.1,1.8-15.6
			c2.2-8.6,6.2-15.9,11.7-22.8c0.1-0.2-0.1-0.4-0.2-0.2c-5.8,5.2-9.4,12.3-11.8,19.6c-1.2,3.5-2.4,7.3-3.4,11.1l0,0
			c-1.1,1.9-1.2,4.3-4,4.5c-1,0.1-2.2-0.1-3-0.6c-0.1-0.1-0.2-0.1-0.3-0.2c-1.4-3.9-2-8.2-2.3-12.4c-0.6-9.9,1.5-19.7,4.9-29
			c0-0.1,0-0.2-0.1-0.2c0,0,0,0,0-0.1c0,0,0,0,0,0c0,0,0,0,0,0.1c0,0,0,0-0.1,0.1c-5.2,10-7.2,21.3-6,32.5
			C722,1335.4,723.1,1339.8,725,1344z"/>
		<path fill="#05132B" d="M906.2,1296.3c0,0,2.5-15.6-7.3-29.2s-14.9-17.9-17-18.6c-0.1,0-0.3-0.1-0.4-0.1c1.7,1.5,3.3,3.3,4.2,4.2
			c2.9,3,5.8,5.9,7.2,9.9c2.7,7.8,0.8,16.4-3.8,23c-0.4,0.3-0.8,0.5-1.1,0.8c-0.1,0.1-0.3,0.3-0.4,0.5c-4.7-1.3-9.7-2.2-15-2.2
			c-15.1,0-30,1.8-44.3,7c-26.2,9.6-48.3,28.8-61.3,53.5c-5.6,10.7-8.8,22.3-12.7,33.7c-9.1,5.6-22,4.2-32.1,2.1
			c-11.6-2.3-21.2-8.4-24.8-20.1c-3.5-11.3-1.5-23.2-2.7-34.7c-1.1-10.5-5-20.4-11.4-28.8c-0.6-0.8-1.8-0.1-1.3,0.8
			c3.8,6.4,6.3,12.9,7.9,19.6c-1-2.1-2.3-4.2-3.9-6.3c-8.8-11.6-16.7-23.4-22.7-36.8c-6.3-14.2-9-29.3-6-44.7
			c1.8-9.4,5.3-18.1,8.8-26.8c-10.5,13.5-17.4,28.3-19.7,47.6c-4.5,38.2,10.4,52.4,16.7,65.2s11.6,18.5,14.9,30.1
			c3.3,11.7,3.4,7.4,7.9,10c4.5,2.6,5.6,2.1,4.8,8.2c-0.8,6.2-2.7,27.9-2.7,27.9s9,8.6,22.2,15.1c13.3,6.4,44.4,19.7,54.9,4.4
			L820,1450c0,0,9.7,2.2,14.9-2.4c0,0-1.2-0.8-2.6-2.7c-2-2.7-4.2-7.5-3.5-15.2c0.2-2.3,0.5-4.2,0.8-5.7c0.5-2.3,1.1-3.7,1.6-4.6
			c-1.8,1.5-3.8,2.5-6.5,2.2c-0.5-0.1-1.1-0.2-1.6-0.3c3.7-3.2,4.7-8.4,2.8-12.7c0.7,0.4,1.4,0.8,2,1.2c2,2.2,3.6,4.8,4.5,7.7
			c0,0,0,0.1,0,0.1c0,0.1,0,0.2,0,0.4c0.7-0.7,1.2-1.1,1.6-2.1c0.7-2.2-1.1-1.2-0.5-3.3c-0.3-1.1-0.8-2.1-1.5-3
			c-0.1-0.1-0.2-0.2-0.3-0.3c4-9.6,9.2-18.6,15.6-26.9c3.2-4.2,6.6-8.2,10.3-11.9c3.7-3.8,7.9-7,11.8-10.7c0.2-0.2,0-0.4-0.2-0.3
			c-4.4,2.6-8.3,6.4-12,10c-3.8,3.8-7.4,7.7-10.7,11.9c-6.4,8.3-11.6,17.4-15.6,27c-2.3-1.8-5.5-2.9-8.1-3.9
			c-8.3-3.3-16.8-6.3-25-9.8c-14.2-6.1-28.3-14.4-37.2-27.4c2.6-8,5.5-15.7,9.6-23.1c8.7-15.9,21.3-29.6,36.5-39.4
			c11.1-7.2,23.4-12.3,36.2-15.1c6.2,0.2,12.8-1.3,18.9-1.6c7.2-0.3,15-0.5,22,1.7c6.1,1.9,12.4,4.4,18.1,7.3
			c3.7,1.9,7.6,4.2,11.8,4.9C908.9,1298.4,906.2,1296.3,906.2,1296.3z M791.7,1393.9c5.8,2.8,11.8,5.1,17.9,7.4
			c2.1,1.3,4.6,2.2,6.7,3.1c2.4,1,4.9,1.8,7.4,2.7c0,0.1,0.1,0.2,0.2,0.3c3.5,3.7,2.1,9.9-1.7,13c-0.2,0-0.4,0.1-0.5,0.3
			c0,0,0,0,0,0c-2.8-0.9-5.7-2.5-8.3-3.6c-7.5-3.2-15.2-6.2-22.5-9.7c-13.6-6.4-26.4-14.9-33.7-28.3c-0.1-0.1-0.2-0.2-0.2-0.3
			c1-2.9,1.9-5.9,2.9-8.8c0.2-0.5,0.3-0.9,0.4-1.4C767.7,1380.1,779.3,1388,791.7,1393.9z"/>
	</g>
	<path opacity="0.3" fill="#05132B" enable-background="new    " d="M932.6,1341.3c-16.3,1.1-32.3,5.6-46.7,13.4
		c-13.6,7.3-25.9,17.3-35.7,29.3c-4.9,6-9.3,12.5-12.9,19.3c-1.4,2.7-3,5.7-3.8,8.8c0.2-0.6,0.6-1.3,1.1-2.4
		c3.1-5.7,18.4-36.1,57.9-54.4c39.5-18.3,62.2-14.2,74.7-2.3c0,0,0-0.3,0.1-0.7C961.4,1341.4,943.4,1340.6,932.6,1341.3z"/>
	<path opacity="0.3" fill="#05132B" enable-background="new    " d="M754.2,1219.6c2.5,0.2,5-0.2,7.6-0.2c2,0,3.9,0.5,5.8,0.2
		c0.1,0,0.2-0.2,0.1-0.3c-3.4-3.3-9.6-1.5-13.6-0.7C753.5,1218.7,753.6,1219.6,754.2,1219.6z"/>
	<path opacity="0.3" fill="#05132B" enable-background="new    " d="M941.7,1006c0.4-2,4.1,0.3,5.4,0.6c2.1,0.5,4,0.9,5.9,2
		c3.2,1.9,5.7,4.9,7.3,8.2c2,4,2.5,8.6,2.7,13.1c0.2,4.7,0.1,9.6-1,14.2c-0.1,0.4,0.5,0.7,0.7,0.3c1.9-4.6,1.9-10.1,1.7-15
		c-0.1-4.8-1-9.7-3.2-14c-1.8-3.5-4.5-6.7-8-8.5c-2-1.1-4.2-1.3-6.4-2.1c-1.9-0.6-3.6-1.9-5.5-0.8c-0.2,0.1-0.3,0.3-0.3,0.5
		c0,0.5,0,0.9,0,1.3C940.9,1006.4,941.6,1006.5,941.7,1006z"/>
	<path opacity="0.3" fill="#05132B" enable-background="new    " d="M1055.9,946.5c-1.9,0.2-3.4,0.2-4.6,0.1c1,0.5,2,0.8,3.1,1
		c2.2,0.4,4.5-0.1,6.7,0c3.7,0.1,7.1,1.7,10.2,3.7c4.7,3.1,7.4,7,10.1,11.8c0.7,1.3,1.5,2.8,2.6,3.7c-2.3-6.3-5.7-18.2-6.7-24.8
		C1077.3,942.1,1062.2,946,1055.9,946.5z"/>
	<path opacity="0.3" fill="#05132B" enable-background="new    " d="M1505,1151.6c0,0-7.3,17.2-19.2,20.6c-11.9,3.4-42,9.6-64.6,2.1
		c-22.6-7.5-42.8-18.7-54.7-38.1c-11.7-19-10.8-33.5-8.6-51.9c-4.4,4.6-4,15.7-3.7,20.8c0.6,9.1,3.2,17.7,7.1,25.9
		c4,8.4,9.2,15.9,16,22.3c6.4,6,14.2,13,22.6,16.1c0.4,0.1,0.7,0.2,1.1,0.2c3.9,2,8,3.5,12.4,4.8c0.3,0.1,0.7,0.2,1,0.3
		c3.4,1.5,6.9,2.8,10.6,3.9c0,0,0,0,0,0c3.6,2.1,6.2,5.2,8.7,8.4c0,0.1,0,0.2-0.1,0.3c-5.2-1-10.4-2.1-15.5-3.8
		c-3.1-1.1-6.1-2.3-9-3.6c-3.2-1.4-6.2-3.4-9.5-4.5c-0.1,0-0.1,0.1-0.1,0.1c2.3,2.3,5.5,3.7,8.3,5.2c3.1,1.6,6.2,3,9.5,4.2
		c5,1.8,10.5,3.5,16,4.3c-1,4.9-2.6,9.6-4.7,14.6c-1.8,4.4-3.7,8.8-5.5,13.2c-0.8,1.8-3.8,11.4-5.5,11.3c-0.3,0-0.5,0.1-0.7,0.4
		c-0.1,0-0.2,0-0.2,0c-0.3,0.1-0.4,0.2-0.6,0.4c-7.3-1.2-14.1-4.4-20.8-7.4c-7.4-3.3-14.7-6.9-21.5-11.2
		c-7.7-7.1-15.3-14.6-20.6-23.8c-6-10.5-9.4-22.6-9.7-34.7c-0.3-11.9,2.7-23.5,4.5-35.2c0.4-2.6,0.6-5.1,0.8-7.7
		c0.7,3.8,1.5,7.6,2.4,11.3c1.6,6.3,3.7,12.6,6.8,18.4c2.7,4.9,6.4,10.9,11.4,13.8c0.5,0.3,0.9-0.3,0.6-0.8c-1.8-2.3-4-4.3-5.8-6.6
		c-1.8-2.3-3.4-4.8-4.8-7.3c-3-5.5-5.1-11.4-6.6-17.5c-1.6-6.2-2.4-12.6-3.4-19c-0.3-1.9-0.7-3.9-1-6c-0.1-1.3-0.3-2.6-0.4-3.9
		c-0.1-1.3-0.1-2.7,0.1-3.9c-3,6.2,1.7,17.2-4.1,33.2c0,0,0,0-0.1,0c-0.5,3.6-2.2,6.5-3.8,10c-1.4,3.1-1.8,6.6-2.1,9.9
		c-0.8,8.2-1.4,16.8-0.2,25c0.5,3.6,1.4,7.4,2.8,11.1c-0.2,0-0.3,0.2-0.2,0.4c0.9,2,1.8,3.9,2.9,5.8c1.3,2.5,2.8,4.8,4.6,7
		c5.2,7,11.7,13,18.9,18c2.1,1.6,4.2,3,6.5,4.2c0.1,0.1,0.2,0.1,0.3,0.1c7.3,4.3,15,8,22.8,11.4c6.8,3,13.7,6.2,21.1,7.2
		c4.6,2.1,3.1,9.9,2.4,13.8c-0.6,3.5-2.1,6.5-3.5,9.7c-0.1,0-0.1,0-0.2,0c-0.4,0.1-0.8,0.2-1.2,0.4c-3.9-1.4-8.6-2.6-11.7,0
		c-3.6,2.9-1.7,6.5,1.2,9.2c0.2,0.2,0.4-0.1,0.2-0.3c-1.4-1.7-3-4.2-1.6-6.3c1.1-1.5,2.8-2,4.6-2c1.7,0,3.4,0.3,5.1,0.8
		c-1,1-1.8,2.3-2.3,3.6c-0.9,2.4-0.2,4.5,0.5,6.7c0,0,0,0,0,0c-0.8,4.2-3.3,7.8-6.4,10.7c-5.9,5.6-13.9,8.6-21.7,10.4
		c-11.8,2.7-24.5,3.5-36.9,3.5c-10.6-1.9-21.7-1.2-32.5-2.3c-11-2.2-21.6-6-31.9-11.2c-2.6-1.3-5.1-2.6-7.7-4
		c-0.3-0.2-0.7-0.4-1.1-0.6c-11.1-6.7-22-13.8-32.2-21.8c-7.4-5.8-14.5-12.1-21.5-18.4c-2.6-3-5.1-6.1-7.6-9.3
		c-8.7-11.3-16.5-23.3-24.4-35.1c-8.5-12.8-16.8-25.8-24.2-39.3c-3.5-6.5-7-13-10.4-19.5c-0.3-0.5-0.6-1.1-0.8-1.6
		c0-0.1-0.1-0.2-0.1-0.3c-1.6-3.4-3.2-6.7-5-10c-3.8-7.2-7.8-14.3-11.6-21.4c-5.6-10.5-11.8-20.8-17.3-31.4
		c-1.4-3.5-2.9-6.9-4.6-10.1c-0.7-2.4-2-4.7-3.4-6.9c-2.6-4.2-4.3-9.6-4.6-14.5c-0.3-5,0.1-9.9,1.2-14.8c0.5-2.3,1.2-4.8,2.1-7
		c0.6-1.3,1.4-2.3,2.4-3.1c-0.2-0.2-0.3-0.4-0.5-0.6l2.2-2.4c0.1-0.1,0.1-0.2,0-0.2c-1.4,0.8-2.9,1.8-3.9,3.2
		c-1.4,1.8-2,4.3-2.6,6.4c-1.4,5-2,10.3-1.6,15.4c0.3,4.8,0.8,9.9,2.4,14.5c0.8,2.2,2.2,4,3.4,5.9c0.6,0.9,1.1,1.9,1.5,2.9
		c-0.1,0.1-0.2,0.2-0.2,0.4c1.8,14.1,9.1,28.5,15.3,41.2c3.3,6.7,7.1,13.2,10.8,19.8c1.8,3.3,3.6,6.7,5,10.2
		c1.1,2.8,1.3,5.5,1.5,8.3c-0.2,1.4-1,2.6-2.6,3.3c-1.5,0.8-3.2,1-5,1.2c1.6-2.1,2-4.8,1.5-7.9c-0.1-0.3-0.4-0.2-0.5,0.1
		c-0.4,3.8-2.7,5.6-5.5,6.8c-4.3,0-8.5,0.1-12.8-0.2c-3.2-0.2-6.5-0.8-9.7-1.2c0.4-0.3,0.8-0.5,1.2-0.8c2.1-1.5,4.4-3.2,5.7-5.4
		c0.1-0.2-0.1-0.4-0.3-0.3c-2.2,1.4-3.9,3.2-6.2,4.3c-0.8,0.4-1.7,0.7-2.6,1c0.2-0.3,0.3-0.6,0.4-0.9c1.6-3.6,3.1-8.3,1.7-12.1
		c0-0.1-0.2-0.1-0.2,0c-0.2,2.8-1.4,7.2-2.8,9.7c-0.6,1-2,2.8-3.6,4.1c-2.8,0.3-5.7,1.1-8.5,1.6c-5.9,1.1-11.3,1.4-17.2-0.1
		c1.1-4.7,0.8-9.7,0.2-14.4c-0.6-4.5-1.3-10.9-5.1-14c0,0-0.1,0-0.1,0.1c0.8,2.1,2,3.9,2.7,6.1c0.8,2.6,1.1,5.4,1.3,8.1
		c0.3,4.7,0.3,9.2-0.6,13.8c-1,0.1-1.9,0.6-2.2,1.7c-0.3,1.3-0.7,2.5-1.1,3.8c-3.2-0.1-7.4-0.1-11.9,0c0.9-4.2,0.8-8.7-0.1-13.1
		c0.5,0.4,1,0.8,1.5,1.2c0.7,0.5,1.7,0.4,2.4,0c0.9,1.5,2.3,2.8,4,2.7c3.2-0.1,5.8-3.7,4.8-6.6c-0.7-2.1-3.8-1.1-3.2,0.9
		c0,0,0,0,0-0.1c0.3,1-0.4,1.9-1.3,2.4c-1.2,0.7-1.7-0.3-2.4-1.3c-0.4-0.5-1.4-3-2.4-2.7c-2.2-2.2-4-5.6-5.9-7.9
		c-1.4-1.7-2.8-3.3-4.4-4.9c-1.8-1.8-4.8-3.6-5.7-6c-0.1-0.2-0.2-0.4-0.2-0.7c0.8-0.6,1.4-1.5,1.4-2.7c0.1-10.2-1.7-20.6-2.5-30.7
		c-0.8-9.6-1.4-19.2-2.1-28.8c-0.7-9.5-0.9-18.8-0.5-28.3c0.2-5.2,0.5-10.3,0.8-15.5c0.2-4.5,1-9-1-13.1c-0.8-1.6-2.7-1.7-4-0.8
		c-0.9-0.8-1.8-1.5-2.5-2.2c-1.1-1.1-3.6-3.1-3.8-4.6c-0.2-1.2,1.7-3.2,2.9-3.8c1.6-0.8,1.1-3.1-0.5-3.6c-2.3-0.8-4.5,0.1-6.2,1.6
		c1.4-3.4,2.9-6.8,4.5-10.1c1.9-4,3.9-8.1,6.7-11.6c0.2,1,0.4,1.9,0.5,2.9c0.2,1.4,1.6,1.8,2.8,1.5c3.2,6,7.1,11.8,10.7,17.4
		c2.6,4,4.9,8.1,7.3,12.2c1.8,3,3.5,6.4,5.6,9.4c2.3,3.6,5.5,7.8,5.7,11.5c0,0,0,0,0,0c0,0.2,0,0.3,0.1,0.4c0.1,0.7,0.9,1.3,1.6,0.6
		c4.7-4.5,6-12.9,9-18.5c0.2-0.4,0.4-0.8,0.6-1.2c1.6-1.4,3.4-2.6,5.2-3.6c-2-2.3-3.4-3.8-3.4-3.8s0.4-1.8,1-2.9
		c0.3-0.6,0.3-1.3-0.1-2.5c-1,1.5-2.1,2.9-2.8,4.5c-1.1,2.5-2.1,5-3,7.6c-1.9,5.6-3,11.9-6.3,17c-0.8-2.9-3.4-6.6-4.1-7.8
		c-0.6-1.1-1.2-2.2-1.8-3.3c-1.3-3-2.9-6-4.3-8.8c-2.1-4.3-4.6-8.5-7.3-12.5c-2.7-4.1-5.5-8.1-7.9-12.4c-1.6-2.9-2.9-6-4.9-8.5
		c-0.4-1.5-1.1-2.8-1.9-4.3c-0.9,0.3-1.2,1-1.6,1.7c0,0-0.8-1.3-2.3-1.5c0.1,0.3,0.2,0.7,0.3,1c0.2,0.6,0.4,1.1,0.6,1.7
		c-3.2,3.7-5.4,8.1-7.5,12.5c-2.4,5.1-4.6,10.3-6.6,15.5c-2,5.3-4.3,10.6-6.1,16c-1.6,4.6-2.8,9.4-2.5,14.2c-4-0.5-7.4-1.5-11-3.5
		c-3.2-1.8-6.4-3.8-9.4-6c-3.2-2.4-6.1-5-8.3-8.3c-0.8-1.2-1.6-2.3-2.4-3.4c2.1-3,3.1-6.7,4.3-10.2c1.8-5.3,3.1-11.1,5.6-16.1
		c2.9-5.9,9-3.8,14.4-3.8c10.1-0.2,19.4-4.6,28-9.6c-1.6,0-3.5,0.7-10.9,4.2c-7.8,3.7-18.5,4.8-24.8,3.6c-6.3-1.2-13.6-2.9-16-3.3
		c-2.4-0.4-2.8,0.2-3.8,3.5c-1,3.4-2.8,10.4-4.8,15c-2,4.6-2,5.8-0.2,7.7c0,0-16,11-26.8,18.6c6,0.8,12.1,0.8,18.1-0.8
		c3.8-1,8.3-2.2,11.9-4.2c1.6-0.4,3.3-1,4.5-2c0.9,1.3,1.8,2.6,2.8,3.9c2.4,3,5.4,5.4,8.7,7.5c5.7,3.7,13.3,9.5,20.5,8.8
		c0.2,0.2,0.6,0.1,0.7-0.2c0,0,0,0,0,0c0-0.1,0.1-0.1,0.1-0.2c0,0,0-0.1,0-0.1c0.1-0.2,0-0.4-0.1-0.5c0.9-9.8,4.4-18.7,8.1-27.6
		c0,0.5,0.1,1,0.3,1.4c1,3.2,4.1,6.2,6.3,8.6c1.1,1.2,2.3,2.5,3.6,3.6c-0.1,2-0.1,4-0.2,5.9c-0.3,5.2-0.6,10.3-0.8,15.5
		c-0.5,9.8-0.2,19.5,0.5,29.2c0.7,9.9,1.4,19.9,2.2,29.8c0.7,8.7,1.1,17.8,2.7,26.5c0,3.1,0.1,6.2,1.4,8.9c1.9,3.9,6.5,6.6,9.4,9.9
		c1.7,1.9,3.2,4,4.9,5.9c0.5,1.8,0.8,3.6,1,5.4c0.3,3.8-0.2,7.4-0.9,11.1c-3.9,0.2-8,0.6-11.8,1.2c-0.1-0.4-0.4-0.8-0.7-1.1
		c0.1-0.2,0.2-0.3,0.4-0.5c0.4-0.5,0.2-1.4-0.2-1.8c-0.1-0.1-0.2-0.2-0.3-0.2c-0.8-0.4-1.5-0.2-2,0.5c-0.7,1.1-1.4,2.2-2.3,3.3
		c-2.1,0.3-4.4,0-6.5-0.1c-0.9-1.1-2-2.1-2.8-3.3c-1-1.6-1.9-3.4-2.7-5.1c-0.1-0.3-0.5-0.1-0.4,0.2c0.3,1.6,0.7,3.7,1.4,5.6
		c-1-0.8-2-1.7-2.9-2.4c-2.3-1.9-4.1-4.3-5.5-6.9c-0.2-0.3-0.5,0-0.4,0.2c1.3,3.1,2.4,6.1,4.9,8.4c1.2,1.1,2.5,2.3,3.9,3.4
		c-3.2,0.1-6.1,0-9.4-0.5c-2.6-0.4-5-0.4-7.7-0.4c-2.5,0-7.3-0.8-9.6,0.4c-0.8,0.4-1.2,1.3-1.9,2c-1.9,1.9-4.2,2.7-6.8,3.5
		c-3.8,1.2-7.8,1.8-11.8,2.1c-3.8,0.2-8.1,0.6-11.9-0.4c-4.3-1.1-7.6-4.4-10.3-7.7c-0.3-0.3-0.7,0.1-0.6,0.4c1.8,3.8,4,6.4,7,8.1
		c-0.1,0.1-0.3,0.2-0.4,0.4c-3.3,3.5-10.3,1.8-12.4-2.1c-1.8-3.4-1.8-8-1.5-11.7c0.7-8.9,4.6-17.3,6.7-25.9
		c1.9-8.1,3.3-16.5,3.3-24.8c0-7.8,0.4-17-2.3-24.4c0.1-0.1,0.1-0.1,0.2-0.2c0.3-0.3,0.3-0.6,0.3-1c0.3-0.7,0.6-1.3,0.9-2
		c1-2.3,1.3-4.9,1-7.3c-0.1-0.6-1-0.7-1,0c0.2,2.4-0.3,4.7-1.4,6.9c-0.3,0.6-0.8,1.2-1.3,1.7c-10.3,1-16.3,8-22.9,15.1
		c-12.8,10.8-24,23.4-34.3,36.6c-2.9,3.7-5.5,7.5-7.8,11.4c-4.3,4.8-8.3,9.7-12,14.9c0.6-2.5,1-5,0.8-7.4c0-0.2-0.2-0.2-0.3-0.1
		c-3.4,3.3-4.8,9-6.1,13.5c-1.7,5.8-2.9,11.8-4,17.8c-1,5.3-2.2,10.5-2.6,15.9c-0.2,1.8-0.2,3.6-0.6,5.4c-1.2,2.7-3,5.7-6.3,5.8
		c-1.9,0.1-3.9-0.8-5.7-1.9c-0.5-0.8-0.8-1.6-1.2-2.5c-0.9-2.4-1.4-4.8-2.4-7.2c-0.2-0.4-0.7-0.2-0.8,0.1
		c-1.8,5.1,0.6,11.6,3.2,16.1c2,3.5,4.2,7.4,6.6,11.1c0.5,4.2,1.7,7.2-0.5,11.7c-0.8,1.7-2.1,4.9-4.2,5.3c-2,0.4-5.7-1-7.7-1.4
		c-4.8-1-9.5-2.3-13.7-4.8c-3.8-2.2-6.6-5.2-9.9-8.1c-0.5-0.4-1.3,0-1.1,0.7c0.3,1.1,0.7,2.2,1.3,3.1c0,0.1,0,0.1,0,0.2
		c1.4,3.2,4.5,5.8,5.1,9.4c0.6,4.3-2.6,5.3-5.7,6.3c-2.5-0.3-5.1-0.6-7.6-1c-2.4-0.4-4.8-0.9-7.2-1.4c-1.5-2.1-2.3-4.8-3.8-6.9
		c-2.1-3-4.3-4.1-7.6-5.3c-8.8-3.1-18-4.2-27.4-4.4c-0.4,0-0.4,0.6,0,0.6c8.9,0.8,17.5,2.9,25.9,5.8c3.1,1.1,4.6,2,6.1,5.1
		c0.6,1.3,0.8,2.7,1.3,4.1c-5-1-10-2-15.1-2.5c-8.6-0.8-17.7,1.3-25.8,4c-7.6,2.5-15.3,6-21,11.7c-0.7,0.7,0.2,1.7,1,1.3
		c7.9-4.4,15.2-9,23.9-11.6c8.7-2.5,17.8-2.6,26.7-1c15.5,2.9,30.9,8.3,46.7,10.1c1.1,1.2,1.9,2.5,2.4,4.1c0.3,0.9,0.9,2.4,0.7,3.3
		c0.3,0.8,0,1.2-1,1.3c0,0,0,0,0,0c-0.8-0.1-1.6-0.3-2.3-0.3c-8.9-1.1-17.9-1.7-26.9-1.9c-7.7-0.2-16.3-0.7-23.6,2.2
		c-6.8,2.7-12.2,7.8-17.5,12.6c-0.5,0.5,0.2,1.2,0.8,0.8c6.5-5.1,13.8-10.6,22-12.4c9.1-2,20-0.9,29.1,0.3
		c8.6,1.2,16.9,3.7,25.4,5.2c5.5,0.9,12.9,2.5,18.5,0.4c-0.4,0-0.9,0.1-1.4,0.1c-10,0.2-15.9-7.6-18.2-12c-2.3-4.4-4.3-7.5-4.3-7.5
		s7.4-5.7,14.6-5.5c0,0,2.9-2.8,5.6-10.2s-0.3-10.9-2.7-16.4c-2.4-5.5,5.3-7.8,8.3-14c3.1-6.1,3.3-11.8,4.8-23.3
		c1.5-11.5,28.7-42.2,43.2-60.5c14.6-18.3,30.3-34.4,30.3-34.4s-1.2,23.3-7.8,44.4c-6.6,21.1-9.3,47.8,0.7,58.4
		c10,10.5,99.3-18.9,133-17.6c33.7,1.3,69.9,8.5,69.9,8.5s9.5,19.6,24.5,39c15,19.4,29.9,39.2,58.6,63.5s56.3,41.5,88,46.6
		c31.8,5.1,69-2.6,85.1-10.6c16.1-7.9,18.8-6.2,24.3-9.2c5.5-3,11-8.7,14.3-13.7c3.3-5,1.4-13.4,1.4-13.4s18-1,26.4-8.3
		c8.4-7.3,16.3-19.7,8.3-42.7c0,0,19.5-20.4,28.8-33.5C1513.8,1165.3,1508.8,1154.6,1505,1151.6z M837,1228.2
		C837,1228.2,837,1228.2,837,1228.2C837,1228.2,837,1228.2,837,1228.2C837,1228.2,837,1228.2,837,1228.2z"/>
	<path opacity="0.3" fill="#05132B" enable-background="new    " d="M1325.8,1244.6c-2.7,1.6-6.7,0.5-9.4-0.4
		c-7.7-2.6-11.3-8.8-14.7-15.7c-0.1-0.2,0.2-0.4,0.4-0.2c2.9,5.3,8.2,11.5,14.3,13.2c3.2,0.9,6.1,0.5,7.8-2.5
		c0.1-0.2,0.2-0.6,0.3-0.9c-0.3-8.6-10.4-16.1-15.2-22.3c-3.2-4.2-5.7-9-7.4-14.1c-0.1-0.2-0.2-0.5-0.3-0.7c-1.1-2.6-2.6-5-4.1-7.3
		c-1.8-2.7-4.3-5.8-7.6-6.6c-3.3-0.8-5.7,0.7-7.8,2.9c-5.6,7.3-10.3,14.9-14.7,23c-0.1,0.2-0.5,0.1-0.4-0.2c2-7.3,5.4-13.5,9.1-20.1
		c1.9-3.5,3.8-6.9,5.9-10.3c0.6-1,1.3-2,1.8-3.1c-0.2-0.5-0.6-1.4-0.6-1.4c-1.2-0.7-3.4,0.7-4.3,1.2c-1.9,1.1-3.8,2.3-5.6,3.6
		c-6.6,5-13.1,10.4-18.3,16.8c-0.4,0.5-1-0.2-0.6-0.6c1-1.2,1.9-2.4,2.9-3.7c0-0.1,0-0.2,0.1-0.3c1.8-3.2,4.2-5.7,6.9-8.1
		c2.9-3.4,6-6.6,9.5-9.6c3-2.6,6.1-5.1,9-7.7c-4.8,1.8-9.8,2.9-14.2,5.5c-0.2,0.1-0.4-0.2-0.2-0.4c4.2-2.8,8.3-4.8,12.7-7.1
		c3.3-1.7,9.2-5,8.8-8.9c-0.2-0.5-0.5-0.9-1-1.2c-1-0.6-3.4-0.2-4.6-0.1c-1.2,0.1-2.4,0.1-3.7,0.1c-2.6,0.9-5.2,1.6-7.4,2.4
		c-5.8,2.2-12.6,3.9-17.4,7.9c-0.3,0.2-0.6-0.1-0.4-0.4c3.9-4.3,7.9-7.8,13.3-10.2c2.6-1.1,5.2-2.1,7.8-3.1c0.6-0.7,0.9-1.4,0.7-2.4
		c0,0,0-0.1,0-0.1c8.8,5.1,12.4,2.9,14.4,3.9c2.1,1,2.1,4.8,2.1,4.8c3.8-1.7,6,0,6,0c1.3-3.3,3-7.8,5.4-12.7
		c-1.1,7.7-2.9,15.1-2.9,23c0.1,9.3-0.1,18.2,2.1,27.3c2.4,10.1,7.8,17.3,14.6,24.9c3.9,4.4,9.2,9.6,9.5,15.8
		C1329.1,1240.8,1328,1243.3,1325.8,1244.6z"/>
	<g>
		<g>
			<path fill="#3E3F49" d="M1148.7,1148.9c-0.1-1.7-0.1-3-0.9-4c-0.8-1-2.4-1.7-5.8-2.4c-3.1-0.6-7.5-1.6-12.5-2.4
				c-2.2-0.4-4.6-0.7-6.9-1c-1.6-0.2-3.3-0.3-4.9-0.4c-2.5-0.2-5-0.2-7.4,0c-10.8,0.7-18,0.9-18,0.9s-2.8-1.4-7.3-2.4
				c-1.6-0.3-3.3-0.6-5.2-0.7c-7.5-0.5-7.7-2.1-18.4,2c-2,0.8-3.9,1.5-5.7,2.2c-1-1.1-3-0.4-3,1.2c-4.8,1.9-8.5,3.4-10.2,4
				c-0.6,0.2-0.9,0.3-0.9,0.3s-2.5,0.1-6.2,0.3c-6.2,0.4-15.8,1.1-22.9,2.2c-2.9,0.5-6.2,1-10,1.6c-1.2,0.2-2.5,0.4-3.8,0.7
				c-10.5,1.8-23.3,4.5-36.9,8.8c-4.8,1.5-8.7,2.8-12,3.9c-11,3.7-15,5.6-16.7,7.2c-2.2,2-1.8,4,0,7.4s2.8,8.6,2.8,8.6
				s0,5.7,4.1,3.5s16-7.9,32.4-11.2c9.6-1.9,21.3-4.3,33.1-5.8c1.5-0.2,3-0.3,4.5-0.5c6.9-0.7,13.8-1,20.4-0.7c0,0,5.8,4.5,15.9,0.8
				c0.1-0.1,0.3-0.1,0.4-0.1c2.6-1,5.6-1.7,9.1-2.1c5.4-0.7,11.9-0.8,19.1-0.7c3.9,0,8.1,0.1,12.4,0.1c3,0,6.1,0.1,9.3,0
				c12.1-0.1,20.8,0,26.2,0.1c2,0,3.5,0.1,4.6,0.1c1.3,0,1.9,0.1,1.9,0.1c11.9,1.2,16.4,2,17.8,2.2c1.3,0.2,2.3,0,1.2-6
				C1147.1,1160.9,1148.9,1152.3,1148.7,1148.9z"/>
			<path opacity="0.3" fill="#05132B" enable-background="new    " d="M1003.1,1171.3c-1.6-6.8-2-13.9-0.7-20.8
				c-1.2,0.2-2.5,0.4-3.8,0.7c-1.8,6.8-1.4,14.5,0.6,21c-3.7,0.5-7.6,0.6-11.2,1.4c-4.3,1-8.7,1.4-12.9,2.8c-3.9,1.3-8,2.3-12,3.3
				c-2.9,0.8-6.4,1.2-9.3,2.6c-0.9-0.5-1.7-1.2-2.5-2.5c-1.2-1.9-1.9-4.6-2.5-6.8c-0.8-3.5-0.4-6.4,0.7-9.2c-11,3.7-15,5.6-16.7,7.2
				c-2.2,2-1.8,4,0,7.4s2.8,8.6,2.8,8.6s0,5.7,4.1,3.5s16-7.9,32.4-11.2c9.6-1.9,21.3-4.3,33.1-5.8
				C1005.6,1172.3,1004.6,1170.9,1003.1,1171.3z"/>
			<path opacity="0.3" fill="#05132B" enable-background="new    " d="M1042.2,1158.6c-0.7-4.2,0.2-8.4,0.2-12.6
				c-0.6,0.2-0.9,0.3-0.9,0.3s-2.5,0.1-6.2,0.3c-0.2,0.3-0.2,0.6-0.3,1c0,0.3,0.1,0.6,0.1,0.8c-3.2,2.2-6.3,5.1-7.9,7.6
				c-1.9,2.9-2,6.2-1.3,9.3c0.1,1.8,0.6,3.5,1.3,4.9c-5.4-0.3-10.7,1.1-16,1.5c-0.8,0.1-1.2,0.6-1.3,1.2c6.9-0.7,13.8-1,20.4-0.7
				c0,0,5.8,4.5,15.9,0.8c0-0.1-0.1-0.2-0.1-0.4C1044.4,1168.3,1043,1163.4,1042.2,1158.6z M1032.7,1171.5c0-0.1-0.1-0.1-0.1-0.1
				c-1.8-1.7-3.1-3.8-3.8-6c-0.6-3.3-0.4-6.6,1.7-9.9c1.9-3,4.9-4.8,7.7-6.8c-1.2,7.9,1.2,16.9,3.8,24.1
				C1038.6,1173.6,1035.7,1172.4,1032.7,1171.5z"/>
			<path opacity="0.3" fill="#05132B" enable-background="new    " d="M1122.2,1149.6c-0.8-3.9-2.2-7.8-4.5-10.9
				c-2.5-0.2-5-0.2-7.4,0c-10.8,0.7-18,0.9-18,0.9s-2.8-1.4-7.3-2.4c0.3,0.4,0.7,0.7,1.2,0.9c7.3,2.2,16.1,3.8,24,2.4
				c3.8,3.9,4.9,10.3,5.4,15.4c0.3,2.6,0.8,5.4,0.8,8.1c0,1.7-0.7,3-1.2,4.4c0,0-0.1,0.1-0.1,0.1c-1.7-0.2-3.3-0.2-5-0.3
				c-3.6-0.2-5.9-1-9.2-2.4c-4.8-2.1-9.8-2.8-15.1-3.2c-7.5-0.6-16.4-0.6-23.3,3c-0.4-0.9-0.7-1.9-1.1-2.8c1.9-0.6,3.8-1.2,5.6-2
				c1.8-0.8,4-1.9,4.4-4.1c0.3-1.9-1.1-3.6-2.9-4.1c-0.7-0.2-1.5-0.2-2.2,0.3c-0.8,0.6-0.7,1.4-1.2,2.1c-0.6,0.9,0.7,1.9,1.4,1.1
				c0.3-0.4,1.1-0.8,1.1,0.1c0,0.6-2,1.3-2.5,1.5c-1.5,0.7-3.2,1.2-4.8,1.6c-1.5-5.9-2.2-11.9-4.2-17.8c-0.1-0.3-0.2-0.5-0.4-0.7
				c-1,0.4-2,0.8-3,1.2c0,0.1,0,0.3,0.1,0.4c1.3,5.2,1.9,10.6,3.1,15.9c0.8,3.2,1.4,6.7,3.2,9.5c-1.1,0.8-2.1,1.8-3,2.9
				c0,0.1-0.1,0.1-0.1,0.2c5.4-0.7,11.9-0.8,19.1-0.7c4-0.4,8.1-0.3,12.4,0.1c3,0,6.1,0.1,9.3,0c12.1-0.1,20.8,0,26.2,0.1
				C1125.6,1164.4,1123.5,1155.7,1122.2,1149.6z"/>
			<path opacity="0.3" fill="#05132B" enable-background="new    " d="M1084.2,1152.8c0.2,1.1,1.6,1.6,2.4,0.8
				c0.6-0.6,0.5-1.5-0.1-1.9c0,0,0-0.1-0.1-0.1v0c-0.1-0.7-1-1-1.6-0.8c-0.4,0.2-0.6,0.5-0.7,0.9c0,0.1,0,0.2,0,0.2
				c0,0.1,0,0.1,0,0.2c0,0,0,0,0,0C1084.2,1152.4,1084.2,1152.6,1084.2,1152.8z M1086.3,1151.6
				C1086.3,1151.6,1086.4,1151.6,1086.3,1151.6C1086.3,1151.6,1086.3,1151.6,1086.3,1151.6
				C1086.3,1151.5,1086.3,1151.6,1086.3,1151.6z"/>
			<path opacity="0.3" fill="#05132B" enable-background="new    " d="M1100.7,1153.8c0.2-0.3,0.4-0.5,0.5-0.9
				c0.1-0.3,0.1-0.6-0.1-0.9c0-0.2,0-0.5-0.1-0.7c-0.3-0.8-1-1.1-1.7-0.7c-0.9,0.4-1.1,1.3-1.2,2.2
				C1098,1154,1100,1154.8,1100.7,1153.8z"/>
			<path opacity="0.3" fill="#05132B" enable-background="new    " d="M1147.1,1172.8c1.3,0.2,2.3,0,1.2-6s0.7-14.6,0.5-18
				c-0.1-1.7-0.1-3-0.9-4c-1.1,3.1-1.1,6.8-1.2,9.7c-0.1,3.3-0.1,6.5,0,9.8c0.1,2.1-0.1,3.8-0.4,5.4c-3.5,0.5-7.8-0.2-10.6-1.3
				c-4.7-1.9-4.3-7.5-4.7-11.8c-0.3-3.9-0.6-7.8-0.9-11.7c-0.1-1.5,0-3.2-0.4-4.7c0,0,0,0,0,0c-2.2-0.4-4.6-0.7-6.9-1
				c0.5,1.9,1,3.6,1.1,5.7c0.3,3.6,0.4,7.2,0.7,10.8c0.3,4.7,0.3,10.8,2.9,14.9c1.3,0,1.9,0.1,1.9,0.1
				C1141.1,1171.8,1145.7,1172.7,1147.1,1172.8z"/>
			<path fill="#ABAFC6" d="M1097.7,1168.7c-0.5-4.4-3.8-2.9-3.8-2.9s-0.6,0-1.7,0.1c-3.5,0.2-11.8,0.5-20.3,1.1
				c-1.2,0.1-2.4,0.2-3.5,0.2c-2.7,0.2-5.2,0.4-7.6,0.7l0.1-0.2l-1.5-3.1l-0.7-2.8c0.1,0,0.1,0,0.2,0c3-0.6,9.3-2.7,10.4-3.7
				c1.1-1.1,0.5-3.8-2.6-4.2c-0.2,0-0.3,0-0.4,0c-0.2,0-0.4,0-0.6,0c-2.3,0.2-5.3,1.8-8,2.7c-0.1,0-0.2,0.1-0.4,0.1l0,0l-2.1-8
				l1-2.7c1.8-1.8,5.4-4.8,10.5-6.4c1.3-0.4,2.5-0.7,3.6-1c1.6-0.3,3.2-0.5,4.6-0.6c1.2,0,2.3,0,3.4,0.1c2.4,0.2,4.8,0.6,7.5,1.2
				c6.9,1.4,7.8,1.3,7.8,1.1s-0.1-2-0.1-4.2c0-0.2,0-0.4,0-0.6c-0.1-1.6-0.5-1.8-2.1-2.1c-1.8-0.4-11.8,0.4-20.8,1.3
				c-9.1,0.8-24.2,3-25.3,3.6c-0.1,0.1-0.2,0.2-0.4,0.3c0,0-0.1,0.1-0.1,0.1c-1,1-2.3,3.3-3.3,5.4c-1.1,2.4-0.9,1.5-0.7,9.2
				c0.2,7.8,4.6,19.4,5.6,23c1,3.6,2.4,3.8,5.7,3.9c3.3,0.1,10.9-1.9,21.8-2.9c10.9-1,20.8-1,22.4-1.7c0.5-0.2,0.9-0.5,1.2-1
				c0.3-0.5,0.4-1.1,0.5-2C1098,1171.7,1097.9,1170.4,1097.7,1168.7z"/>
			<path fill="#DBE2FF" d="M1046.8,1170.9l3.1,8.5l2.9,0.4l4.4-1.6l3.6-10.3c-0.2,0-0.4,0-0.6,0.1l-0.1-0.3l-0.8-3.1l-1.4-2.9
				c0,0-5.2,0.8-5.6-0.9c-0.3-1.3-0.2-2.6,0.5-3.1c0.8-0.5,4.4-1,4.4-1l-2.1-8L1046.8,1170.9z"/>
			<path fill="#DBE2FF" d="M1059.3,1137.1l-3.3,8.9c1.8-1.8,5.4-4.8,10.5-6.4c1.3-0.4,2.5-0.7,3.6-1l0.6-2.3l4.6-0.5l-0.5,2.2
				c1.2,0,2.3,0,3.4,0.1l0.6-2.6l14.6,0.1c-0.1-1.6-0.5-1.8-2.1-2.1c-1.8-0.4-11.8,0.4-20.8,1.3c-9.1,0.8-24.2,3-25.3,3.6
				c-0.1,0.1-0.2,0.2-0.4,0.3c0,0-0.1,0.1-0.1,0.1l0.2,0.4C1054.7,1137.8,1059.3,1137.1,1059.3,1137.1z"/>
			<path fill="#DBE2FF" d="M1069.5,1176.5l2.4-9.5c-1.2,0.1-2.4,0.2-3.5,0.2l-2.7,10L1069.5,1176.5z"/>
			<path fill="#DBE2FF" d="M1097.7,1168.7c-0.5-4.4-3.8-2.9-3.8-2.9s-0.6,0-1.7,0.1l-0.2,0.5c4,0.8,4.8,0.1,5,2.9
				c0.1,1.3,0.6,2.5,1,3.5C1098,1171.7,1097.9,1170.4,1097.7,1168.7z"/>
			<path fill="#DBE2FF" d="M1053.8,1158.7c0.4,0.7,1.2,0.2,4.4-0.9c3.2-1.1,5.8-3.1,7.7-3.1l0.9-0.2l-0.7-0.6c-0.2,0-0.4,0-0.6,0
				c-2.3,0.2-5.3,1.8-8,2.7c-0.6,0.4-1.3,0.8-2.1,1C1053.4,1158,1053.4,1158.1,1053.8,1158.7z"/>
			<path fill="#767A8B" d="M1054.7,1151.8c0.2,1.5,0.3,3.2,1,4.6c0.3,0.6,1,0.6,1.5,0.3l-2.4-9.1c-0.1,0.1-0.1,0.1-0.2,0.2
				C1054.1,1149.1,1054.5,1150.5,1054.7,1151.8z"/>
			<path fill="#767A8B" d="M1041.2,1144.1c-1.1,2.4-0.9,1.5-0.7,9.2c0.2,7.8,4.6,19.4,5.6,23c1,3.6,2.4,3.8,5.7,3.9
				c3.3,0.1,10.9-1.9,21.8-2.9c10.9-1,20.8-1,22.4-1.7c0.5-0.2,0.9-0.5,1.2-1c-9.6,0.3-19.2,0.8-28.7,1.5c-4.1,0.3-8.2,0.5-12.2,1.4
				c-1.8,0.5-3.6,1.2-5.4,1.8c-2.8-8.4-4.4-17.2-5.3-26.1c-0.5-4.8-0.8-9.5-1-14.3c0-0.2,0-0.4,0-0.6
				C1043.6,1139.5,1042.2,1141.9,1041.2,1144.1z"/>
			<path fill="#767A8B" d="M1067.8,1156.9c-0.2,0.4-3.9,1.2-4.4,1.3c-2.4,0.7-10,4.1-11.1,0.5c-0.1-0.2-0.5-0.3-0.6-0.1
				c-0.3,0.7-0.4,1.3-0.4,1.9c-0.3,0-0.5,0.1-0.5,0.4c-0.1,2.7,3.8,3.1,6.7,3c0.3,1.2,0.8,2.3,1.5,3.3c0.3,0.4,0.7,0.5,1.1,0.5
				l-1.6-5.8c0.1,0,0.1,0,0.2,0c3-0.6,9.3-2.7,10.4-3.7c1.1-1.1,0.5-3.8-2.6-4.2c-0.3,0-0.7,0-1.1,0
				C1066.6,1154.8,1068,1156.2,1067.8,1156.9z"/>
			<g>
				<g>
					<path fill="#1DFF52" d="M1028.8,1172.4C1028.8,1172.4,1028.8,1172.3,1028.8,1172.4C1028.7,1172.3,1028.7,1172.4,1028.8,1172.4
						L1028.8,1172.4z"/>
				</g>
			</g>
			<path fill="#888888" d="M1018.5,1141.8c-1.7-3-6.5-1.6-9.8-1.1s-3.5-0.5-6,6.7c-1.4,4.1-1.5,11.6-1.2,17.8
				c0.2,4.6,0.6,8.5,0.7,10c0.4,3.4,2,7.3,4.3,7.6c2.4,0.3,9.2-1.7,10.2-2.5c1-0.8,0.9-3.4,1.1-7.1c0-0.2,0-0.5,0-0.7l-0.2,0
				l-1.3,0.1c0,0-0.5-2.6-0.3-12.2s2.4-12.2,2.4-12.2l0.6-0.1l2.2-0.3C1021.3,1147.8,1020.2,1144.7,1018.5,1141.8z"/>
			<path opacity="0.3" fill="#05132B" enable-background="new    " d="M1006.6,1182.7c2.4,0.3,9.2-1.7,10.2-2.5
				c1-0.8,0.9-3.4,1.1-7.1c-0.1-0.2-0.1-0.5-0.2-0.7l-1.3,0.1c0,0-0.5-2.6-0.3-12.2s2.4-12.2,2.4-12.2l0.6-0.1
				c0-0.1-0.1-0.2-0.2-0.4c-0.2-0.3-0.3-0.6-0.4-0.9c-0.1-0.1-0.2-0.3-0.3-0.4c0.1-0.4,0.1-0.8,0.2-1.2c0-0.1,0.1-0.2,0.1-0.3
				c0-0.1,0-0.2,0-0.2c0.2-0.9-0.9-1.2-1.4-0.6c-3.7,5.1-3.8,13-3.7,19c0.1,5.3,0.3,11.5,2.8,16.4c-1.8,0.5-3.8,1-5.4,0.9
				c-3.5-0.3-5.9-1.8-6.9-5c-0.5-1.5-0.8-3-1-4.5c-0.4-1.9-0.8-3.9-1.4-5.8c0.2,4.6,0.6,8.5,0.7,10
				C1002.7,1178.5,1004.2,1182.4,1006.6,1182.7z"/>
			<g>
				<path fill="#888888" d="M1134.3,1173.4c-1.5,1.1-6.3,2-9.3,1.2s-6.9-2.8-7-4.2l2.1,0c0,0-0.3-5.8-2.1-13.4
					c-1.7-7.6-3.8-18.3-3.8-18.3l-1.6-0.1c0-0.1,0-0.3-0.1-0.4c-0.4-2.5,0.6-2.3,6.1-3.6c5.8-1.4,4.1-0.8,6.3,2.2
					c2.2,3.1,5.9,16.8,7.8,24c0.4,1.7,0.8,3.2,1.2,4.6C1135.1,1169.9,1135.4,1172.6,1134.3,1173.4z"/>
			</g>
			<path opacity="0.3" fill="#05132B" enable-background="new    " d="M1114.3,1138.7c0,0,2,10.7,3.8,18.3s2.1,13.4,2.1,13.4l-2.1,0
				c0.2,1.4,4.1,3.4,7,4.2s7.7-0.1,9.3-1.2c1.2-0.8,0.8-3.5-0.3-8c-0.3,3.4-1.9,6.7-5,7.6c-3.3,0.9-6.7-0.7-7.7-3.6
				c-0.8-2.2-0.4-5.4-0.8-7.8c-0.6-3.3-1.3-6.5-1.8-9.8c-0.5-3-1.8-16.6-6.1-13.6c0,0.1,0,0.2,0.1,0.4L1114.3,1138.7z"/>
		</g>
		<g>
			<path fill="#FFECDB" d="M798.9,1412.3c-0.1,1.2-0.5,1.8-3.1,4.7c-0.1,0.1-0.2,0.2-0.3,0.3c-1.5,1.7-8.4,0.8-12.1-1.6
				c-3-1.9-3.8-5.6-3.8-8c0-0.6,0.1-1.1,0.2-1.5c0.5-1.9,2.4-4.2,3.7-4.6c1.3-0.4,5.1-0.8,9.1,1.5
				C796.8,1405.4,799,1411.1,798.9,1412.3z"/>
			<path opacity="0.3" fill="#05132B" enable-background="new    " d="M783.5,1415.8c3.7,2.4,10.6,3.3,12.1,1.6
				c0.1-0.1,0.2-0.2,0.3-0.3c-0.5-1.6-1.7-3.6-3.3-5.7c-3-3.9-6.7-5-8.2-5.6c-1.4-0.6-2.5-1-4.6,2.1
				C779.7,1410.2,780.5,1413.9,783.5,1415.8z"/>
		</g>
		<g>
			<g>
				<path fill="#FFECDB" d="M1072.7,1126.3c0,0.1,0,0.2,0,0.3c-0.3,3.2-1.6,3.6-4.2,3.8c-2.3,0.2-4.1-1.3-3.9-3.3
					c0-0.3,0.1-0.6,0.2-0.9c0.9-2.5,3.2-4.2,3.2-4.2C1071.8,1122.9,1072.8,1123.4,1072.7,1126.3z"/>
			</g>
			<path opacity="0.3" fill="#05132B" enable-background="new    " d="M1068.4,1130.4c2.6-0.2,4-0.6,4.2-3.8c0-0.1,0-0.2,0-0.2
				c-1.2,1.2-2.6,2.5-3.7,3c-1.7,0.7-2.3,0.6-4.5-2.2C1064.3,1129.1,1066.1,1130.6,1068.4,1130.4z"/>
			<ellipse opacity="0.3" fill="#05132B" enable-background="new    " cx="1070.4" cy="1125.7" rx="0.7" ry="0.9"/>
		</g>
		<g>
			<path fill="#3E3F49" d="M1074.6,1100.5c-1.1-11.5-4.8-45.3-7.4-58.2c-2.8-14-6.9-33.4-12.4-47.9c-0.5-1.3-1-2.6-1.5-3.8
				c0,0,0.5,0.2,1.1-1c0.3-0.7,0.7-1.8,1-3.5c0.4-2.3,0.9-4.8,1.2-6.8c0.4-2.4,0.8-4.1,0.8-4.1s-13.2-23.8-14.4-25.2
				c-1.3-1.3-2-1.5-3.6,1.9c-1.6,3.5-11.5,23.2-11.5,23.2s6.2,10.3,8.2,13.5c2,3.2,2,3.5,3.3,3.1c0,0,0.6,21.9,1.3,40.3
				c0.7,18.5,2.9,57,3.1,64.7s0.3,9.3,0.4,9.8c0.1,0.4,10.4,9.8,14.7,14.9s5.5,7.2,6.3,7.6s2.5-4,6.1-12s3.7-10.7,3.8-12.8
				C1074.9,1104,1074.8,1102.6,1074.6,1100.5z"/>
			<path opacity="0.3" fill="#05132B" enable-background="new    " d="M1042.9,950c-1.3-1.3-2-1.5-3.6,1.9
				c-1.6,3.5-11.5,23.2-11.5,23.2s6.2,10.3,8.2,13.5c2,3.2,2,3.5,3.3,3.1c0,0,0.6,21.9,1.3,40.3c0.7,18.5,2.9,57,3.1,64.7
				s0.3,9.3,0.4,9.8c0.1,0.4,10.4,9.8,14.7,14.9s5.5,7.2,6.3,7.6s2.5-4,6.1-12s3.7-10.7,3.8-12.8c0-0.3-0.1-1.7-0.3-3.8
				c-0.2,2.2-0.6,4.4-1.2,6.6c-1,3.3-2.4,6.6-3.9,9.7c-1.3,2.7-3.4,4.8-5,7.2c-3.7-3.6-6.8-7.7-10.1-11.5c-2.1-2.4-4.4-4.8-6.3-7.3
				c-2.5-3.3-1.8-5.8-1.7-9.8c0.1-5.1,0-10.2-0.4-15.4c-0.1-5.5-0.6-11-0.8-16.4c-0.3-8.2-0.6-16.4-0.9-24.6
				c-0.3-7.9-0.6-15.8-0.8-23.7c-0.3-7.5,0.5-16-1.3-23.3c1-0.7,2.2-1.2,3.3-1.5c0.3,0.8,0.6,1.7,0.8,2.5c0.1,0.3,0.6,0.2,0.6-0.1
				c0-0.5,0.1-1,0.1-1.4c0-0.3,0-0.5,0.1-0.8c0-0.1,0-0.3,0-0.4c0.5,0,1.1,0,1.6,0.1c1.5,3.6,2.5,7.5,2.4,11.5c0,0.2,0.3,0.2,0.3,0
				c0.3-3.7-0.5-7.2-0.8-10.8c0.8,0.4,1.5,0.9,2.2,1.5c0.7,0.7,1.4,1.4,2.2,2.1c-0.5-1.3-1-2.6-1.5-3.8c0,0,0.5,0.2,1.1-1
				c-1.5-1.3-3-2.2-5.1-2.5c-2.2-0.3-5.2-0.4-7.4,0.5c-0.8,0.3-1.4,0.8-1.9,1.3c-1-2.5-3-4.8-4.1-6.9c-1.1-2.1-2.2-4.2-3.2-6.3
				c-0.2-2.4,0.4-4.6,1.7-7.5c2.2-5.1,4.6-10.1,6.7-15.3c0.4,0.5,0.8,0.9,1.1,1.4c1.7,2.8,2.8,5.9,4.3,8.8c2.8,5.7,6.1,11.2,10,16.2
				c0.4-2.4,0.8-4.1,0.8-4.1S1044.2,951.2,1042.9,950z"/>
			<path opacity="0.3" fill="#05132B" enable-background="new    " d="M1057,1073.6c-0.6,1-0.6,2.1,0,3.1c0.3,0.5,0.9,0.9,1.5,0.8
				c1-0.1,1.9-0.6,2.2-1.6c0.2-0.7-0.1-1.5-0.6-2.1c-0.1-0.3-0.4-0.7-0.7-0.8C1058.5,1072.6,1057.4,1072.8,1057,1073.6z"/>
			<path opacity="0.3" fill="#05132B" enable-background="new    " d="M1054.8,1044.3c0,0.2,0.1,0.4,0.2,0.6c0,0,0,0.1,0,0.1
				c0,0,0,0,0,0c0,0.3,0.2,0.7,0.5,0.9c0,0,0,0,0.1,0c0.3,0.2,0.8,0.2,1.1,0c0.5-0.4,0.9-0.9,0.8-1.6c-0.1-0.8-0.7-1.1-1.5-1.2
				C1055.4,1043.1,1054.8,1043.7,1054.8,1044.3z M1056,1045.4C1056,1045.4,1056,1045.5,1056,1045.4
				C1056,1045.5,1056,1045.4,1056,1045.4C1055.9,1045.4,1056,1045.4,1056,1045.4z"/>
			<path opacity="0.3" fill="#05132B" enable-background="new    " d="M1052.8,1031.1c0,0.3,0.1,0.6,0.3,0.8
				c0.1,0.1,0.2,0.1,0.3,0.2c0.3,0.7,1.5,0.7,1.8,0c0.4-0.9,0.1-2-0.9-2.1C1053.7,1029.7,1052.8,1030.3,1052.8,1031.1z"/>
			<path opacity="0.3" fill="#05132B" enable-background="new    " d="M1051.1,1017.1c-0.1,0.2-0.2,0.4-0.2,0.6
				c-0.1,0.6,0.1,1.2,0.8,1.5c0.5,0.2,1.1,0.1,1.5-0.2c0.6-0.5,0.5-1.3,0-1.9c-0.1-0.1-0.2-0.2-0.2-0.2c0,0,0,0,0,0c0,0,0,0,0,0
				C1052.3,1016.4,1051.5,1016.4,1051.1,1017.1z"/>
		</g>
	</g>
</g>
</svg>
