<?xml version="1.0" encoding="utf-8"?>
<!-- Generator: Adobe Illustrator 23.0.1, SVG Export Plug-In . SVG Version: 6.00 Build 0)  -->
<svg version="1.1" id="_x33_6_x5F_Top_x5F_AdidasTracksuit_1_"
	 xmlns="http://www.w3.org/2000/svg" xmlns:xlink="http://www.w3.org/1999/xlink" x="0px" y="0px" viewBox="0 0 2000 2000"
	 enable-background="new 0 0 2000 2000" xml:space="preserve">
<g>
	<g>
		<path fill="#D42E2D" d="M650.1,1205.7c-0.3,0.5-0.7,1-1,1.6c0.2,0,0.3,0,0.5,0C649.7,1206.7,649.9,1206.2,650.1,1205.7z"/>
		<path fill="#D42E2D" d="M1461.7,1208.1c-1.7-2.8-3.7-5.5-6.2-8c0,0-20.1,8.7-55.8,6.7c-34-1.9-42.9-56.6-53.5-69.2
			c-0.5-0.6-1-1.1-1.6-1.5c0,0-2.9-2.9-7.3-4.7c-2.4-1-5.2-1.7-8.3-1.4c-0.7,0.1-1.3,0.2-1.9,0.4c-6.5,1.7-11.2,8.6-12.4,10.6
			c-0.2,0.3-0.3,0.6-0.3,0.6s-0.2-0.1-0.4-0.2c-0.9-0.5-3.3-1.7-6.4-2.4c-3.3-0.8-7.3-1.2-11.4,0.2c-9,3-13,4.2-17.2,2.1
			c-2.3-1.1-3.3-4.4-5.4-8.2c-0.5-0.8-1-1.7-1.6-2.6c-1.7-2.6-4.1-5.3-7.8-7.6c-1.2-0.8-2.6-1.4-4-2c-5.9-2.4-13-3.4-20.8-5
			c-6.1-1.2-12.5-2.9-18.9-5.9c-16.7-7.8-36.3-28.5-59.1-47s-40.2-50.5-44.2-57.5c-2.7-4.8-7-14.8-16.1-23.7c-4.2-4.1-9.3-8-15.8-11
			c-1.5-0.7-3.4-1.3-5.6-1.7c-27.8-5.5-104.8,9.7-104.8,9.7s-2.8,0.5-6.9,1.4c-0.7,0.2-1.5,0.3-2.3,0.5c-8.4,2-20.4,5.4-26.7,10.3
			c-10.5,8-16.5,18.3-28.2,28.6c-2.6,2.2-5.3,4.5-8.3,7c-5.5,4.4-12,9.4-20.4,15.7c-1.4,1.1-2.9,2.1-4.4,3.3
			c-7.5,5.5-16.5,12-27.4,19.8c-0.2,0.1-0.3,0.2-0.5,0.4c-33.7,24.1-73.7,52.5-94.4,66.1c-16.9,11.1-42.3,27-61.2,40
			c-4.3,3-8.3,5.8-11.7,8.3c-3.9,2.9-7.8,5.9-11.4,9c-5,4.2-9.7,8.6-14,13.5c-4,4.6-7.7,9.6-11,15.2c-2.8,4.8-5.3,10-7.4,15.8
			c-9.1,24.9-6.8,49,1.2,64.6c6.9,13.5,19.4,28.3,26.5,39.1c1.1,1.7,2.1,3.2,2.9,4.7c6,10.9,2.6,16.8,9.2,32.5
			c6.6,15.7,19.9,19,32.8,21c12.9,2.1,25,5.9,28.4,14.7c3.5,8.8,2.6,16.8,17.4,29s35.8,4.3,41.9,0.4c6-3.9,9.4,0.6,13,2.8
			c3.5,2.2,13.4,5.4,27.5-9.5c14.1-15,89.1-83.9,94.5-101.5c4.6-14.8,2.7-22.9-2.2-34.2c-0.9-2.2-2-4.4-3.1-6.9
			c-7.1-15.3-23-23-42.8-29.5c-1.4-0.5-2.8-0.9-4.1-1.4c-16.6-5.6-22.1-8.5-22.1-8.5s6.1-10.3,2.2-17.5s-8.8-10.1-9.2-11.2
			c-0.4-1.1,2-3.1,13.3-8.7c11.1-5.5,10.7-13.8,7.8-22.4c0-0.1,0-0.2,0-0.2c0,0,0,0-0.1-0.1c0-0.1-0.1-0.2-0.1-0.3
			c-3.1-8.8-1.5-14.9,8.8-23c10.3-8.1,31.2-25.7,31.2-25.7s-4.8,14.7,0,27.3c3.9,10.3,6.5,13.2,14.1,17.3c1.7,0.9,3.7,1.9,6,3.1
			c6.2,3.1,35.9-16.4,75.1-24.5c8.7-1.8,20.8-2.3,34.5-1.9l1.5,3.1l5.6,11.9c0,0,3.3,0.2,7.8,0.3c7.6,0.3,18.7,0.6,24,0.4
			c0.6,0,1.1-0.1,1.5-0.1c6.8-0.7,5.2-0.7,10.5-6.2c0,0,0.1-0.1,0.1-0.1l3.8-5.2c24.5,2.8,46.1,6.1,54.7,7.4c2.6,0.4,4,0.7,4,0.7
			s2.4,19,45.3,68.1c42.9,49.1,76.9,63.1,151.4,68.8c2.3,0.2,4.6,0.3,6.9,0.4c15,0.5,27.9-1.3,39.2-4.6c12.7-3.7,23.1-9.2,31.6-15.2
			c12.2-8.7,20.3-18.6,25.2-25.8c2.6-3.8,4.3-6.9,5.2-8.7C1465.7,1249.8,1472.6,1226.6,1461.7,1208.1z"/>
	</g>
	<g>
		<path fill="#E9F8FF" d="M941,1123.9c0.5-1,1-2.1,1.5-3.2c5.6-10,9.3-23.8,6.3-35.2c-3,2.4-5.1,5.3-6.6,7.8c0.3,4.2-0.1,8.6-1,12.7
			c-0.2,0.8-0.4,1.6-0.7,2.3c-0.4,1.2-0.8,2.3-1.2,3.4c-3.6,8.3-10.1,15-13.3,23.6c-4,10.6-5.2,20.4-1,31.1c1.5,4,3.3,7.9,6.5,10.8
			c3.5,3.2,8.2,4.3,12.6,5.8c4.8,1.6,6.9-5.9,2.1-7.6c-0.6-0.2-1.2-0.4-1.8-0.6c-0.3-0.6-0.9-1.1-1.7-1.4
			c-9.8-3.3-12.8-12.8-12.2-22.3C931.3,1140.9,936.7,1132.8,941,1123.9z"/>
		<path fill="#E9F8FF" d="M925.3,1173.8c-2.6-3-3.8-7.4-4.7-11.2c-2.1-8.9-0.7-18.5,2.7-26.9c2.8-6.8,8-12,10.8-18.8
			c1.7-4.1,3-8.8,2.9-13.3c-0.9,1.5-2.2,3.6-3.8,6.4c-0.2,0.7-0.3,1.3-0.5,2c-1.4,4.4-3.5,8.6-5.7,12.6c-1.9,3.4-4.9,6.1-6.8,9.5
			c-1.8,3.3-2.7,7.3-3.5,10.9c-1.6,7.4-2.4,14.9-0.3,22.3c0.9,3.1,2.2,6.4,4.1,9c2.4,3.2,5.9,4.4,8.8,7.1c2.2,2,5.4-1.1,3.3-3.3
			C930.5,1177.8,927.4,1176.2,925.3,1173.8z"/>
		<path fill="#E9F8FF" d="M906.5,1037.5c11.6-7.6,24.5-14.8,32.7-26.3c3.9-5.4,7.9-10.7,13-15.1c2.2-2,4.9-3.8,7.4-5.3
			c0.1,0,0.1-0.1,0.2-0.1c3.2-1.2,6.6-2.1,10.1-2.6c0.7-0.1,1.2-0.5,1.5-1.1c0.1,0,0.2-0.1,0.3-0.1c2.1-0.6,1.8-4.1-0.5-3.9
			c-0.4,0-0.8,0.1-1.2,0.1c-0.2,0-0.5-0.1-0.8,0c-4.7,0.6-9,1.9-13,4c-0.9,0.3-1.7,0.6-2.6,0.9c-5.8,2.5-11.1,6.1-15.1,10.9
			c-4.7,5.6-8,11.7-13.7,16.5c-6,5.1-12.1,10-18.7,14.3c-9,6-18.7,11.2-28.5,15.9c-7.5,5.5-16.5,12-27.4,19.8
			c-0.2,0.1-0.3,0.2-0.5,0.4c6.3-2.2,12.5-4.7,18.6-7.3C881.7,1052.6,894.2,1045.5,906.5,1037.5z"/>
		<path fill="#E9F8FF" d="M928.3,1006.7c2.2-3.2,4-6.7,6.5-9.6c2.8-3.2,6.4-5.7,10.1-7.8c6.5-3.7,13.7-6,20.7-8.6
			c-8.4,2-20.4,5.4-26.7,10.3c-10.5,8-16.5,18.3-28.2,28.6c-2.6,2.2-5.3,4.5-8.3,7c3.4-0.9,6-2.6,9-4.6
			C917.7,1017.7,923.8,1013.1,928.3,1006.7z"/>
		<path fill="#E9F8FF" d="M646.8,1254.4c0.9,8.4,2,17,5.2,24.9c2.6,6.6,6.3,12.8,10.5,18.5c0.5,0.6,1,1.3,1.5,1.9
			c0.2,0.2,0.3,0.5,0.5,0.8c4.7,6.7,10,12,16.5,16.9c2.5,1.8,5.2,3.6,7.8,5.5c4.5,5,7.3,11.1,9.8,17.3c5.2,12.9,12.6,23.3,25.9,28.7
			c7.1,2.9,14.4,1.3,21.7,2.4c7.5,1.1,12.9,5.2,16.7,11.7c6.5,11.2,8.6,24.5,19.9,32.4c6.4,4.5,14.2,5.4,21.8,6.4
			c7,0.8,19.1,2.8,24.6-2.6c0-0.1,0.1-0.1,0.1-0.2c0.5-0.2,1-0.4,1.6-0.6c8.6-3.6,3.5-15.9-5-11.8c-13.5,6.5-30.3-0.4-38.6-12
			c-4.5-6.3-6.4-13.7-10.2-20.3c-3.6-6.3-9.4-10.6-16-13.4c-6.5-2.8-13.5-3.9-20.3-5.6c-6.4-1.6-13.4-3.1-18.3-7.9
			c-5.3-5.3-7-13.3-10.8-19.7c-3.8-6.6-9.4-11.4-15.5-15.8c-6.7-4.8-13.3-9.2-19.3-15.1c-0.8-0.7-1.5-1.5-2.2-2.3c0,0,0-0.1-0.1-0.1
			c-2.1-2.4-3.9-4.9-5.6-7.6c-1.1-1.7-2.1-3.4-3.4-5c-0.2-0.2-0.4-0.4-0.6-0.6c-1.1-2.1-2.2-4.2-3-6.4c-2.6-7-2.8-14.1-2.9-21.4
			c-0.1-7.5-0.5-14.9-0.2-22.4c0.5-13.8,8.4-27.6,16.8-38.2c4.6-5.7,9.5-11.2,14.3-16.7c1.3-1.5,2.6-2.9,3.8-4.4
			c-4.3,3-8.3,5.8-11.7,8.3c-9.2,6.9-17.9,14.1-25.4,22.6c-4.8,8.5-8.3,17.6-10.1,27.6C645.4,1238.2,646,1246.5,646.8,1254.4z"/>
		<path fill="#E9F8FF" d="M682.5,1350.4c5.8,9.4,6.6,23.4,15.7,30.6c1.1,0.8,2.3,1.3,3.5,1.5c4.6,3.9,9.9,6.4,15.8,8.3
			c3.7,1.2,7.4,2.1,11.2,2.6c4.5,0.6,9.5,0.9,13.6,3.1c6.5,3.5,8.3,11.6,11.1,17.8c0.9,2.1,2,4.2,3.3,6.2c0.8,1.8,1.6,3.5,2.6,5.3
			c3.5,6.3,8.9,9.3,15.6,10.8c2,0.7,4.1,1.1,6.2,1.2c5.5,1.1,10.9,1.8,16.4-0.1c4.3-1.5,7.6-0.1,11.8,0.9c0.8,0.2,1.6,0.3,2.4,0.3
			c6.6,2.6,11.2,0.7,17-3.5c6.1-4.5-2.9-11.7-5.9-5.9c-1.9,3.7-4.8,4.1-7.9,3.4c-0.3-0.2-0.6-0.5-0.9-0.7c-1.2-0.7-2.9-1.4-4.2-1.8
			c-2.5-0.9-5.1-1.6-7.7-1.8c-6.3-0.5-13.2,0.3-19.3-1.1c-3.1-0.7-5.8-2.7-8.6-4.1c-2.5-1.3-4.9-2.9-6.8-5c-1.3-1.6-2.4-3.5-3.5-5.3
			c-2-3.8-3.8-7.8-5.9-11.4c-2.8-4.8-6.6-9.6-11.5-12.2c-6-3.2-13.3-4.1-19.8-5.9c-7.5-2.1-15.4-5.7-21.6-11
			c-0.6-0.8-1.2-1.5-1.6-2.3c-1.6-2.5-2.7-5.2-3.7-8c-2.1-5.8-3.7-11.7-6.5-17.2c-3-5.8-7.5-11.2-12.2-15.8c-5-4.9-10.7-8.8-15.4-14
			c-4.3-4.8-8.1-10-11.4-15.5c-7.8-13.3-12.3-28.3-13.1-43.7c-0.4-8.5,0.2-17.1,1.7-25.4c0.8-4.1,1.8-8.1,3-12.2
			c0-0.2,0.1-0.3,0.1-0.5c-2.8,4.8-5.3,10-7.4,15.8c-9.1,24.9-6.8,49,1.2,64.6c6.9,13.5,19.4,28.3,26.5,39.1
			C671.6,1341.6,678.8,1344.4,682.5,1350.4z"/>
		<path fill="#E9F8FF" d="M1262.2,1145.1c3.7,8.1,10.2,13.6,19.1,14.7c5.2,0.6,11,0.1,16,1.6c3.6,1,6,3.7,8.6,6
			c1-4.9,2.3-9.4,3.7-13.4c-5-2.3-11.4-2.7-16.4-3.1c-5.6-0.5-11-0.9-16.2-3.3c-4.6-2.2-6.2-5.9-8.5-10.2c-2.9-5.7-5-11.4-8.5-16.4
			c-5.9-2.4-13-3.4-20.8-5c3.6,1.7,7.3,3.2,10.7,5.4C1259,1127.1,1258.2,1136.4,1262.2,1145.1z"/>
		<path fill="#E9F8FF" d="M1281.8,1145.6c5.5,2.1,11-0.1,16.7,0.1c4.2,0.1,9.2,2,13.5,1.8c1-2.4,1.9-4.4,2.7-5.9v-0.6
			c-0.2,0.3-0.3,0.6-0.3,0.6s-9.2-5.5-18.2-2.5c-9,3-13,4.2-17.2,2.1c-2.8-1.4-3.8-5.9-6.9-10.8c0.4,1.7,0.9,3.4,1.5,5.1
			C1274.9,1139.9,1277.4,1144,1281.8,1145.6z"/>
		<path fill="#E9F8FF" d="M1440.9,1258.9c3.5-8,4.7-16.5,2.4-25c-2.3-8.7-7.7-15.7-12.7-23c-3-4.5-9.9-0.6-7.3,4.3
			c7.2,13.8,11.6,28.2,3.6,42.5c-6.9,12.4-15.4,24.9-26.3,34c-10,8.3-21.4,15-33.8,19c-2.2,0.7-4.5,1.4-6.8,2
			c15,0.5,27.9-1.3,39.2-4.6c4.1-2.8,8-6,11.7-9.4C1422.5,1287.6,1434.5,1273.7,1440.9,1258.9z"/>
		<path fill="#E9F8FF" d="M1460.8,1235.5c-1.3-5-3-10-5.4-14.5c-2.7-5.2-6.6-9.5-9.3-14.6c-1.6-2.9-6.3-0.1-4.4,2.6
			c2.7,3.9,4.6,8.7,6.5,13.1c2.2,5,4,10,4.4,15.5c0.7,9-1.6,17.9-4.8,26.2c-2.9,7.8-6.9,15.2-11.6,22c-1.7,2.5-3.5,4.8-5.4,7.1
			c12.2-8.7,20.3-18.6,25.2-25.8c0.3-0.8,0.6-1.6,0.9-2.4C1460.1,1255.5,1463.3,1245.2,1460.8,1235.5z"/>
	</g>
	<path opacity="0.3" fill="#05132B" enable-background="new    " d="M1201.8,1243.5c42.9,49.1,76.9,63.1,151.4,68.8
		c2.3,0.2,4.6,0.3,6.9,0.4c15,0.5,27.9-1.3,39.2-4.6c12.7-3.7,23.1-9.2,31.6-15.2c12.2-8.7,20.3-18.6,25.2-25.8
		c2.6-3.8,4.3-6.9,5.2-8.7c4.4-8.5,11.3-31.7,0.4-50.2c-1.3,0.7-2.5,1.7-3.6,3.1c-2.1,2.8-3.5,5.9-4.5,9.2c-0.2,0.3-0.5,0.6-0.7,0.8
		c-2.4-1.9-4.9-3.1-8.8-2.7c-4,0.4-7.7,2.9-9.2,6.4c-1.7-1.4-3.3-2.9-4.8-4.7c-4.9-5.5-14.9,1.9-10.4,8c0.2,0.3,0.5,0.6,0.7,0.9
		c-0.4-0.2-0.9-0.4-1.3-0.5c-10.9-4.2-22.9-3.8-33.5-9c-9.5-4.7-19.9-11.2-26.7-19.4c-8-9.6-10.5-23.8-12.3-35.8
		c-1.4-9-1.6-18.1-0.1-26.9c-0.5-0.6-1-1.1-1.6-1.5c0,0-2.9-2.9-7.3-4.7c-4.5,17.8-1.4,37.2,3.6,54.5c2.7,9.4,6.9,18.1,14.1,24.9
		c7.3,6.9,16.4,13,25.4,17.5c10,4.9,20.6,5.6,31.2,8.5c11,3,18.8,9.8,16,21.9c-4.2,17.8-14.4,38.1-32.1,44.7
		c-13.6,1.9-28,0.2-41.6-0.6c-1.9-0.1-3.9-0.2-5.8-0.4c-22.5-4.2-44.4-10.9-65.2-21.1c-17.2-8.5-33.3-19.3-47.3-32.4
		c-15.8-14.9-29-32.3-41.1-50.3c-6.5-9.6-12.6-19.5-17.9-29.8c-3.8-7.3-6.9-14.7-10-22.2c-1.2-4.4-2.3-8.7-3.6-13
		c-1.7-5.7-4.3-10.7-7.7-15.3c-4.1-6.3-8.8-12.2-12.6-18.6c-5.1-8.7-9.3-17.9-12.3-27.4c-1.1-3.3-2.2-6.4-3.4-9.5
		c-0.9-2.6-2.1-5.2-3.5-7.7c-1.2-2.3-2.5-4.6-4-6.9c-2.4-3.8-5-7.5-7.1-11.5c-2.5-4.8-3.6-9.6-4.8-14.8c-0.2-0.7-1.1-0.5-1.2,0.2
		c-0.6,8.4,4.8,16.8,9.2,23.6c2.4,3.8,5,7.6,7.1,11.6c3,6.7,3.1,13.6,3.8,20.9c0.5,4.9,1.6,9.6,4.5,13.6c0.6,1.4,1.3,2.8,2.1,4.1
		c4.4,6.8,9.4,13.2,14.8,19.4c4.2,4.9,7.4,9.5,9.9,14.9c0.5,4.1,0.8,8.2,0.5,12.3c-0.2,2.8-0.4,6.3-1.6,8.9c-2,4.4-5.5,4.9-9.8,4.4
		c-0.7-0.1-1.4-0.2-2.1-0.2c-8.7-3.7-17.9-5.9-27.2-7.4c-4.6-0.7-9.3-1.4-13.9-1.9c-5.3-0.6-12.4,0.2-16.1-4.2
		c-0.2-0.2-0.3-0.3-0.5-0.3c-0.4-1.7-0.4-3.5,0.1-5.4c2.9-0.2,6-1.2,9.1-1.4c1.7-0.1,3.4-0.2,5.1-0.4c2.2,0.2,4.1,0.1,6.2-0.8
		c0.4-0.2,0.5-0.6,0.5-1c0.1-0.1,0.2-0.1,0.3-0.2c0.5-0.3,0.2-1.1-0.4-1c-0.2,0.1-0.4,0.1-0.6,0.1c0,0,0,0,0,0
		c-1.8-0.3-3.5-0.1-5.4-0.3c-2.3-0.3-4.2-1.4-6.4-1.6c-0.2,0-0.4-0.1-0.6-0.1c6.3-7.7,6.1-20.3,0.2-28.4c-0.2-0.2-0.6-0.2-0.6,0.2
		c0.5,6.6,3.8,12.4,2.2,19.1c-0.7,2.9-2.1,5.4-3.9,7.7c-0.7,0.8-1.4,1.4-2.1,2c-2,0-6.6-0.4-7.4-2.3c-0.1-0.2-0.2-0.4-0.3-0.6
		c4.5-6,7.6-12.7,5.5-20.5c-1.9-7.4-8-13.4-13.8-18.4c1.4-0.1,2.9-0.3,4.9-0.4c1-0.1,2.1-0.1,3.1-0.1c0.9,1.3,2.4,1.9,3.8,3
		c1.1,0.8,2.1,1.7,2.9,2.8c0.8,1.2,0.9,2.4,2.1,3.1c0.1,0.1,0.2,0,0.3-0.1c0.1-0.9,0.1-1-0.4-1.9c-0.6-1.1-0.9-2.3-1.8-3.2
		c-0.9-1-2.2-1.4-3.1-2.5c-0.1-0.1-0.1-0.1-0.1-0.2c0.1,0,0.2-0.1,0.2-0.1c0.4-0.2,0.7-0.3,1.1-0.4c0.6-0.2,1.2-0.2,1.8-0.4
		c0.8,0.1,1.7,0.1,2.7-0.1c0.2,0,0.4-0.2,0.4-0.4c0.6-0.4,0.4-1.4-0.5-1.5c-0.3,0-0.5-0.1-0.8-0.1c-1.6-1.3-3.9-2.3-5.9-2.6
		c0.8-3.2,0.5-7.2,0.1-10.2c-0.7-4.6-2.4-8.3-5-12.2c-0.3-0.4-0.9,0-0.7,0.4c3.5,5.6,6,15.2,3.8,21.9c-0.7,0.1-1.4,0.3-2.2,0.5
		c-2.8,0.9-4.2,0.9-6.3-0.9c3.7-3.8,2.8-12.1,1.3-16.4c-3.3-9.4-9.5-17.3-14.7-25.6c-5.5-8.8-9.2-17.6-8.7-28.2
		c0.3-5,2.2-12.9,1.3-19.1c1.1-0.3,2.5-0.4,4-0.3c0.5,0.8,1,1.7,1.4,2.5c0,0.5-0.1,0.9-0.1,1.4c-0.1,0.6-0.2,1.3-0.2,1.9
		c-0.2,1.4-0.4,2.9-0.6,4.3c-0.4,2.9-0.7,5.8-0.9,8.7c-0.3,5.6,0.6,11,2.8,16.1c2,4.9,4.8,9.4,7.6,13.9c3.2,5.1,6.4,10.1,9.9,15
		c0.3,0.4,0.9,0,0.6-0.4c-3.4-5.5-6.9-10.9-10.2-16.5c-3.2-5.4-6.7-10.9-8.2-17c-1.6-6.3-0.9-12.9,0-19.3c0.3-2,1.9-7.9,0.5-10.5
		c2,0.1,3.8,0.3,4.8,0.2c3.9-0.3,7.9-1.1,11.4-2.8c4.3-2.1,7.6-5.8,12.2-7.3c3.9-1.3,8-1.5,12.1-1.3c-4.2-4.1-9.3-8-15.8-11
		c-1.5-0.7-3.4-1.3-5.6-1.7c-5.2,1.8-7.9,5.8-8.5,12.4c-0.2,2.4,2.5,4,4.6,3.5c0.1,0,0.2-0.1,0.3-0.1c-0.6,0.4-1.3,0.7-1.9,1
		c-5.9,2.7-11.5,2.1-17.7,1.5c-1.7-0.2-3.2,0-4.5,0.4c-0.2-0.3-0.5-0.7-0.8-1c-1.7-1.7-5.1-0.5-4.9,2c0.2,4,1.1,7.8,0.9,11.8
		c-0.2,4.5-0.9,9-1,13.5c-0.2,7.6,1.7,14.7,5,21.5c2.9,6.1,6.9,11.7,10.6,17.3c-0.5,0.7-0.5,1.8,0.4,2.4c0.7,0.4,1.4,0.9,2,1.4
		c2.3,3.7,4.7,7.6,6.1,11.8c0.8,2.6,1.4,5.4,0.5,8c-0.6,1.8-1.8,2.8-2.1,4.7c0,0.2,0,0.3,0,0.5c-2.5-0.4-5.2-0.3-7.7,0.1
		c-0.2-0.4-0.5-0.7-0.9-0.9c0,0,0,0,0,0c0.8-1.1,1.4-2.4,1.9-3.9c0.5-1.3-1.7-2.3-2.3-1c-1.9,3.9-5,6.4-9.6,5.6
		c-0.4-0.1-0.8-0.1-1.1-0.2c2-4.4,2.8-9.4,2.1-14.1c-1.2-7.3-6.8-12.7-10.7-18.7c-4.6-6.8-7.8-13.9-9-22.1
		c-1.1-7.5-0.1-15.4,1.1-22.9c0.4-0.5,0.7-1.1,0.7-1.7c0-0.3,0-0.5-0.1-0.8c1.5-1.5,3.2-2.8,5.1-3.8c1.1-0.3,2.3-0.4,3.6-0.4
		c4.1,0,4.5-5.8,1.3-6.9c-0.3-1.8-1.6-3.3-3.7-3.2c-5.3,0.4-10.7,0.6-15.9,1.4c-5,0.8-9,3.6-14.2,2.4c-10.7-2.4-20.6-4.8-31.7-4.7
		c-1.2,0-2.5,0-3.7,0.1c1.3-2.1,0.9-5-2.1-5.7c-1.2-0.3-2.5-0.4-3.7-0.5c-0.7,0.2-1.5,0.3-2.3,0.5c-8.4,2-20.4,5.4-26.7,10.3
		c-10.5,8-16.5,18.3-28.2,28.6c-2.6,2.2-5.3,4.5-8.3,7c-5.5,4.4-12,9.4-20.4,15.7c4-1.9,8-3.7,12-5.7c8.8-4.6,16-10.8,22.7-18.1
		c3.2-3.4,6.3-7,9.5-10.4c5.1-3.2,10.5-5.9,16.1-8.2c2.3-0.6,4.6-1.2,6.8-1.8c10.5-2.9,21.2-4.5,32.2-4.2c5.2,0.1,10.4,0.8,15.5,1.6
		c2.6,0.4,5.1,1.1,7.7,1.8c1.3,3.3,2.2,7,3.3,10.2c0.5,1.3,1.6,2,3,1.7c6.8-1.6,13.7-3.5,20.6-4.6c0.1,0,0.3-0.1,0.4-0.1
		c-1.2,6.3-2.2,12.6-2,19c0.2,7.6,2.2,14.6,5.9,21.2c1.8,3.3,4,6.4,6.2,9.5c2.2,3.1,4.8,6.1,6.4,9.6c2.7,6.1,1.6,12.6-1.2,18.3
		c-2,0.5-3.9,1.9-5.9,2.6c-3.1,1.1-6.3,1.6-9.6,1.7c-0.1,0-0.2,0-0.3,0.1c-0.2,0-0.3,0-0.4,0c-0.6-0.1-0.8,0.9-0.3,1.1
		c2.6,1.2,15.7,0.8,14.9,4.7c-0.1,0.2,0,0.4,0.1,0.6c0.4,4.5,3.5,8.9,6.4,11.9c1.4,1.4,2.9,2.7,4,4.4c2.2,3.6,0.8,6.8-1.3,9.8
		c-1.8,2.7-4.1,5.2-5.7,8c-6,4.5-12.9,5.1-20.2,5.4c-0.4,0-0.7,0.7-0.2,0.9c1.5,0.7,3.3,1.1,5.1,1.3c1.6,0.3,3.1,0.3,4.9,0.5
		c3,0.3,5.4,1.3,8.1,2.4c-0.4,1.2-0.8,2.5-1.6,3.6c-1.8,2.4-4.9,4.3-7.7,5.4c-2.3,0.9-4.8,1.6-7.2,2.2c-12.2,1.9-24.5,3.6-36.8,5.4
		c-8.3,1.2-15.7,3.4-23.4,6.6c-4.6,1.9-9.5,2.9-14.4,4c0-0.1,0-0.1-0.1-0.2c7.7-4.4,15.8-11.3,20.8-18.6c2.8-4.2,4.6-9.5,6.5-14.2
		c2-4.8,4.1-9.7,5.1-14.8c0.5-2.2-2.8-3.2-3.4-0.9c-1.3,4.6-4,8.9-6.1,13.2c-2,4.2-3.5,8.8-5.9,12.7c-3.7,6.2-10.5,12.2-17,16.3
		c-0.1-0.2-0.2-0.4-0.3-0.5c-0.1-0.1-0.2-0.2-0.3-0.3c-0.2-0.4-0.5-0.8-0.8-1c-0.7-0.4,0.2-4.4,0.3-5.1c0.2-1.6-1.4-2.7-2.8-2.8
		c-0.1,0-0.3,0-0.4,0c0.5-0.4,1-0.8,1.5-1.2c5.9-4.8,11.7-10.3,16.5-16.2c4.4-5.4,6.8-11.3,8.5-18.1c2.1-8,4-16.5,4.2-24.8
		c0-1.7-2.4-2-2.9-0.4c-2.7,8.4-4.3,17.2-6.8,25.6c-2.5,8.5-7.3,14.5-13.5,20.7c-3,2.9-6,5.9-9.2,8.6c-2.1,1.8-6.1,3.7-7.5,6.3
		c-1.2,2.3,0.4,4.2,1.5,6.2c1.6,2.7,3.2,5.4,4.9,8.1c-2.2-0.3-4.3-0.4-6.4-1.1c-2.7-0.8-5-2.8-6.9-4.9c-4.1-4.6-2.9-12.7-2.4-18.5
		c0.6-6.7,2.1-13.6,4.8-19.8c2.2-5.2,3.8-10,4.4-15.5c1.3-3.6,2.8-7,5-10.3c3.9-5.8,8.8-10.8,12.7-16.6c4.2-6.3,7.6-13.6,11-20.3
		c0.1-0.1,0.1-0.2,0-0.3c0.2-0.3,0.3-0.5,0.5-0.8c0.2-0.4-0.3-0.7-0.6-0.3c-0.2,0.3-0.4,0.6-0.7,0.9c0,0,0,0,0,0
		c-4.9,4.7-8.4,10.3-12.2,15.8c-0.4,0.6-0.8,1.1-1.2,1.6c-1.4,1.7-2.8,3.4-4.3,5c-6.1,6.8-12.3,13.8-17.3,21.6
		c-4.8,7.4-8.7,15.2-13.9,22.3c-2.8,3.7-5.7,7.6-9.3,10.5c-0.9,0.7-1.7,1.3-2.1,2.2c-7.1,6-14.7,11.2-22.1,16.8
		c-7.3,5.5-12.7,12.1-16.4,20.5c-2.8,6.3-3.9,15.4,2.7,19.5c0-0.1-0.1-0.2-0.1-0.3c-3.1-8.8-1.5-14.9,8.8-23
		c10.3-8.1,31.2-25.7,31.2-25.7s-4.8,14.7,0,27.3c3.9,10.3,6.5,13.2,14.1,17.3c0.2,0,0.3-0.1,0.4-0.1c2.6-0.8,3.9-2.7,4.5-5.2
		c1.7,0.6,3.2,0.1,4.3-1c1.3,0.4,2.8,0.3,3.9-0.5c1.1-0.8,1.9-1.8,2.6-2.8c0.6-0.2,1.2-0.4,1.9-0.6c1.9-0.7,3-2.3,3.3-3.9
		c0,0,0,0,0,0c1.2,0.5,2.5,0.5,3.8-0.2c0.1,0,0.1-0.1,0.2-0.1c0.7-0.4,1.2-0.9,1.5-1.6c5.6-0.9,11.3-2.3,16.3-4.2
		c7.9-3,15.2-5.7,23.6-6.9c17.3-2.5,34.5-4.8,51.8-7.8c0,0.1,0,0.1,0,0.2c0.6,2.7,0.4,5.4,0.2,8.1c-1,0.2-1.8,1-1.7,2.3
		c0,1.3,0.1,2.6,0.2,3.9l5.6,11.9c0,0,3.3,0.2,7.8,0.3c1.1-0.8,1.9-1.9,2.1-3.1c0-0.1,0.1-0.2,0.1-0.2c0.3-1.7-0.2-2.5-0.1-4.1
		c0-2.7,1.6-2.5,3.1-4c1.8-1.8,2.7-4.5,2.8-7.1c0.1-3.8-1.4-7.6-2.5-11.2c-0.7-2.4-1.7-4.9-2.2-7.4c-0.2-1-0.2-1.9-0.3-2.8
		c1.3-0.6,2.1-2.2,0.8-3.5c-0.2-0.2-0.5-0.4-0.7-0.6c0-0.1,0-0.3,0-0.4c3.3,0.4,6.6,1,9.9,1.6c-0.9,3.1-1.1,6.6,0.3,9.3
		c1.5,3,3.7,5.2,4.6,8.5c0.5,1.8,0.6,3.7,0.5,5.5c-0.9,0.3-1.6,1.3-0.9,2.4c0.2,0.3,0.4,0.6,0.6,0.8c-0.1,0.9-0.3,1.8-0.5,2.6
		c-0.7,3.6,4.8,5.2,5.5,1.5c0,0,0-0.1,0-0.1c0.1,0.3,0.2,0.6,0.2,1c0.1,0.4,0.1,0.8,0.1,1.2c-0.6,0.3-1,0.8-1.2,1.5
		c-0.4,1.8,0.1,3.4,1.1,4.9c0.1,1.4,0.2,2.8,0.8,3.9c0.6,0,1.1-0.1,1.5-0.1c6.8-0.7,5.2-0.7,10.5-6.2c0.4-1,0.8-2,1.1-2.9
		c1.3-3.6,2-7.2,1.4-11c-0.5-3-5.6-2.3-5.4,0.7c0.3,3.4-0.8,6.6-1.8,9.8c-0.2,0.7-0.6,2.5-1.2,3c-0.9,0.6-1.6,0.2-2.2-0.5
		c0-0.6,0-1.2,0-1.8c0-1.9,0.1-3.7-0.6-5.5c-0.7-1.8-2-2.8-3.5-3.6c0.2-3.5-0.1-7-1.6-10.5c-1-2.4-2.6-4.2-3.8-6.4
		c-1.4-2.6-1-5.1-0.5-7.7c0.2,0,0.4,0,0.7-0.1c0.9-0.1,1.9-0.4,2.8-0.6c2.8-0.4,3.7,0.6,6.9,0.7h0c-1.5,2.9-1.7,6.3-0.4,9.3
		c1,2.4,2.3,4.8,3.5,7.1c0.6,1.1,1,2.6,2.6,2.4c1.2-0.2,2.2-1.7,1.1-2.6c-0.6-0.5-1.1-1.2-1.7-2c0.3,0.1,0.6,0.3,0.9,0.3
		c0.8,0.2,1.4,0,1.9-0.4c5,1.6,11.1,1.7,15.2,2.3c11.3,1.6,22.6,3.6,33.2,8c-0.8,2.1,0.3,5,3.1,4.7c-0.6,0.1,0,0,0.5,0.3
		c0.6,0.4,1.2,0.8,1.9,1.2c0.5,0.3,1.1,0.5,1.6,0.7c0.1,0.2,0.1,0.4,0.2,0.6c1,2.2,2,4.4,3,6.7c2.6,0.4,4,0.7,4,0.7
		S1159,1194.4,1201.8,1243.5z M1010,998.8c0-0.1-0.1-0.3-0.2-0.4c0.1,0,0.2,0,0.3,0C1010.1,998.5,1010,998.7,1010,998.8z
		 M1056.3,1164.5c-1,0.9-1.7,1.6-2.1,2.9c-0.7,1.9-0.4,4.1,0.3,6c-0.3,0.5-0.4,0.5-1.4-0.2c-0.4-0.3-0.7-0.7-1-1.1
		c-0.2-1.7-0.7-3.4-0.7-5.2c-0.1-3.4,0.4-6.9,0.4-10.3c0.1-4.4-1.1-8.4-2.8-12.4c0.1-1.8,0.5-3.6,1.6-4.6c1.2-1.1,2.7-1.4,4.3-1.4
		c-0.1,6.8,4.7,13.8,4.9,20.4C1059.9,1162,1058.6,1162.6,1056.3,1164.5z M1076.9,1126c-0.3,0.3-0.4,0.6-0.5,1
		c-2.3,0.5-4.8,0.6-7.2,0.1c-0.7-0.2-1.3,0-1.7,0.3c-0.3,0-0.5,0.1-0.7,0.1c0.9-1.2,1.8-2.4,2.6-3.6c1.5-2.4,3.2-5,4-7.8
		c0.5-1.8-1.5-3.2-3-2.3c-3,1.7-4.3,4.9-6.1,7.7c-1.5,2.3-3.3,4.4-4.5,6.8c-2.7,0.7-5.2,0.8-8-1.4c1.7-2.2,3.2-4.8,4.8-7
		c2.2-3.1,3.5-5.7,2.7-9.5c-0.7-3-2.4-4.9-4.7-6.8c-2.5-2-4.6-3.6-6.1-6.5c-0.8-1.7-1.1-3.4-1.4-5.2c0-0.1,0-0.1,0.1-0.2
		c1.5-2.2,7-0.7,9.2-1.6c2.2-0.9,3.8-2.2,6.4-2.7c2.3-0.4,4.4-0.1,6.7,0.3c0,0.3,0.1,0.6,0.3,0.9c3.1,5.4,8.5,9.2,11.6,14.6
		C1086.1,1111.6,1082.5,1119.3,1076.9,1126z M1154.3,1158.7C1154.2,1158.7,1154.2,1158.7,1154.3,1158.7
		C1154.2,1158.7,1154.3,1158.7,1154.3,1158.7C1154.3,1158.7,1154.3,1158.7,1154.3,1158.7z"/>
	<path opacity="0.3" fill="#05132B" enable-background="new    " d="M855.5,1206.1c-4.5,0.1-8.9-0.6-13.1-1.9
		c-4-1.2-10.5-3.2-13.3-6.6c-1.6-1.9-5.2-1.4-6.2,0.8c-4.3,8.8,5.9,16.9,12.8,20.6c4.5,2.4,9.4,4.1,13.8,6.7
		c2.8,1.6,5.1,3.1,6.2,6.3c0.8,2.2,1.2,4.9-0.1,6.6c-0.5,0.2-1.1,0.3-1.9,0.4c-3.4,0.1-7-2.2-9.8-3.8c-3.4-1.9-7.3-5.2-11.4-5.6
		c-3.8-3.6-7.5-7.4-11.3-11.2c-5.2-5.2-10.8-11.5-18.2-13.4c-0.6-0.2-1.3,0.6-0.9,1.1c5.1,6.7,12.4,11.9,18.2,17.9
		c6.5,6.8,12.6,14,20,19.7c11.7,9.1,26.4,13.2,41,15.7c-16.6-5.6-22.1-8.5-22.1-8.5s6.1-10.3,2.2-17.5s-8.8-10.1-9.2-11.2
		c-0.4-1.1,2-3.1,13.3-8.7c11.1-5.5,10.7-13.8,7.8-22.4c0,0.4,0.1,0.9,0.3,1.4C877.4,1202.2,862.1,1205.9,855.5,1206.1z"/>
	<path opacity="0.3" fill="#05132B" enable-background="new    " d="M656.9,1202.7c-4,4.6-7.7,9.6-11,15.2c-2.8,4.8-5.3,10-7.4,15.8
		c-9.1,24.9-6.8,49,1.2,64.6c6.9,13.5,19.4,28.3,26.5,39.1c1.1,1.7,2.1,3.2,2.9,4.7c6,10.9,2.6,16.8,9.2,32.5
		c6.6,15.7,19.9,19,32.8,21c12.9,2.1,25,5.9,28.4,14.7c3.5,8.8,2.6,16.8,17.4,29s35.8,4.3,41.9,0.4c6-3.9,9.4,0.6,13,2.8
		c3.5,2.2,13.4,5.4,27.5-9.5c14.1-15,89.1-83.9,94.5-101.5c4.6-14.8,2.7-22.9-2.2-34.2c0.9,5.2,1.3,10.6,0.5,15.8
		c-2.2,5.2-8.8,7.3-14.4,8c-7.7,1-15.2,1.5-22.7,3.5c-14,3.8-26.9,10.7-38,19.8c-12.4,10.2-20.6,23.8-30.1,36.5
		c-8.3,11.2-20.1,23.7-35,24.7c-6,0.4-12.2-1.7-16.8-5.6c-5.2-4.5-6.2-9.3-5.9-15.9c0.8-15.6-13.4-22.3-26.8-23.7
		c-13.4-1.4-30,1.7-38.8-11.1c-8.5-12.4-7.6-28.6-12.6-42.4c-5.9-16.3-19.8-27.2-28-42.2c-4.6-8.4-7.3-17.6-8.3-26.9
		c0.1-5.5,0.4-11,1.5-16.4c1.6-8,4.7-15.6,8.6-22.7c1.8-3.3,3.9-6.5,6.1-9.5C665.9,1193.3,661.2,1197.8,656.9,1202.7z M885,1364.4
		c0.4-0.1,0.7-0.2,1.1-0.3c-3.7,2.9-7.3,5.9-11,8.8C878.2,1369.9,881.6,1367.1,885,1364.4z M820.3,1439.6c0.4,0.1,0.7,0.2,1.1,0.2
		c-1.6,0.6-3.3,1.1-5,1.6C817.8,1440.9,819,1440.2,820.3,1439.6z M790.8,1442.5c0,0.1,0,0.1,0,0.2
		C790.2,1443.6,790.2,1443.5,790.8,1442.5z M737.8,1371.7c-1.1,0-2.2-0.1-3.3-0.1C735.7,1371.6,736.8,1371.6,737.8,1371.7z
		 M731.9,1389.3c0,0.1,0,0.1,0,0.2C731.2,1390.5,729.8,1389.1,731.9,1389.3z"/>
	<path opacity="0.3" fill="#05132B" enable-background="new    " d="M1306.4,1164.2c-1.8,3.5-4.1,6.9-7.2,9.4
		c-2.6,2.1-5.8,3.1-8.4,5.2c-1.4,1.1-0.7,3.2,0.5,4.1c2.8,2.1,6.6,2.8,9.9,3.8c2.5,0.8,4.7,1.8,7.1,0.4c5.2-2.8,3.3-11.5,3.6-16.3
		c0.5-7.9,0.2-16.2,3.9-23.3c3-5.8,7-11.8,11.2-17c-6.5,1.7-11.2,8.6-12.4,10.6c-0.2,0.3-0.3,0.6-0.3,0.6s-0.2-0.1-0.4-0.2
		c-2.4,5.1-3.9,10.7-5.7,15.9C1307.4,1159.6,1306.8,1161.9,1306.4,1164.2z"/>
	<path opacity="0.3" fill="#05132B" enable-background="new    " d="M1281.5,1154.9c5.3-0.8,8.9-5.2,12.5-8.7
		c4.1-4,8.6-5.8,13.5-7.2c-3.3-0.8-7.3-1.2-11.4,0.2c-9,3-13,4.2-17.2,2.1c-2.3-1.1-3.3-4.4-5.4-8.2c1.3,4.7,1.3,9.4,1.8,14.8
		C1275.6,1151.5,1277,1155.6,1281.5,1154.9z"/>
	<path fill="#961819" d="M1080.3,982.1c-2.3-2.7-3.3-10-3.3-10s2.8-3.1,4-6.8c0.2-0.7,0.3-1.3,0.4-2c0.2-2.6-0.9-4.4-1.9-5.4
		c-0.8-0.8-1.5-1.1-1.5-1.1s1.4-4.2,2.5-8.3c0.2-0.6,0.3-1.3,0.5-1.9c1.1-4.7,0-5.5-3.3-7.5s-14.4-4-23.4-4
		c-4.6,0-10.9,1.2-15.9,2.3c-4.8,1.1-8.5,2.1-8.5,2.1c-0.3-0.1-0.5-0.2-0.8-0.3c-13.5-5.1-28.5-4.2-48.6,2.7
		c-8.1,2.8-13.7,6.5-17.4,9.9c-5.7,5.2-7.1,9.9-7.1,9.9s0.8,0.9,4.8,2.6s5,5.1,5,5.1s-4.2,2.2-3.2,6.6c1,4.4,4.7,5.4,4.7,5.4
		s-0.6,3.3-0.4,6.5c0.1,0.9,0.2,1.7,0.4,2.5c0.4,1.4,1.9,2.6,4.2,3.6c0.6,0.3,1.2,0.5,1.8,0.7c1,0.3,2.1,0.6,3.3,0.8
		c4.8,2.4,11.6,2.2,16.5,2.2c6.9,0,14.2,0.1,20.6-2.9c0.8-0.4,1.3-0.9,1.5-1.5c4-1,8.2-2.2,12.5-3.7c0,0,8.4-7.6,16.3-5.1
		c1.5,0.5,2.9,1.3,4.3,2.6c8.8,8.3,25,3.6,30.6,2C1084.4,987.6,1082.6,984.8,1080.3,982.1z"/>
	<g opacity="0.3">
		<path fill="#05132B" d="M973.2,994.7c1,0.3,2.1,0.6,3.3,0.8c-0.5-0.2-0.9-0.5-1.3-0.7C974.5,994.8,973.9,994.8,973.2,994.7z"/>
		<path fill="#05132B" d="M966.9,987.9c0.1,0.9,0.2,1.7,0.4,2.5c0.4,1.4,1.9,2.6,4.2,3.6c-0.5-0.3-1-0.6-1.5-1
			C968.2,991.6,967.6,989.7,966.9,987.9z"/>
		<path fill="#05132B" d="M1029.1,939.1c-0.9,1.1-1.5,2.4-2.2,3.7c-1.4,2.9-2.9,5.7-4.6,8.5c-1.2,1.9-2.8,3.8-3.7,5.9
			c-9.9,2.2-19.4-0.2-29.5,1c-5.3,0.6-10.9,1.7-16.1,3.5c-0.5,0.1-1,0.2-1.6,0.2c-1,0-1.8-0.2-2.4-0.6c-0.4-1.2-0.8-2.3-1.8-3.4
			c-1.7-1.9-3.3-2.8-4-5.5c-0.1-0.2-0.1-0.5-0.2-0.7c-5.7,5.2-7.1,9.9-7.1,9.9s0.8,0.9,4.8,2.6s5,5.1,5,5.1s-4.2,2.2-3.2,6.6
			c1,4.4,4.7,5.4,4.7,5.4s-0.6,3.3-0.4,6.5c0.7,1.8,1.3,3.7,3,5.1c0.5,0.4,1,0.7,1.5,1c0.6,0.3,1.2,0.5,1.8,0.7
			c0.7,0.1,1.3,0.2,2,0.1c0.4,0.3,0.9,0.5,1.3,0.7c4.8,2.4,11.6,2.2,16.5,2.2c6.9,0,14.2,0.1,20.6-2.9c0.8-0.4,1.3-0.9,1.5-1.5
			c0.4-1,0.2-2.2-0.5-3.1c1.3-3.1,1.1-6.6,1.3-10.3c0.2-5.7,5.6-10,6.9-15.5c0.7-3,1-5.3,2.7-8c1.9-3,3.7-6,5.2-9.1
			c0.7-1.4,1.3-3.6,2.4-4.8c0.7-0.8,2-1.3,2.8-2.1c0.9-0.9,1.7-1.9,2.3-3c-4.8,1.1-8.5,2.1-8.5,2.1
			C1029.6,939.3,1029.3,939.2,1029.1,939.1z M978.6,978.5c4.3-0.5,8.6-0.5,13.2-0.2c3.5,0.2,7.1,0.3,10.6,0.3c2.5,0,5.2,0.2,7.7-0.1
			c-0.1,0.2-0.1,0.4-0.2,0.6c-0.9,3-0.6,7.7-3.2,9.8c-0.8,0.6-1.2,1.2-1.5,1.9c-3.3,0.6-6.9,0.6-10.2,0.6c-4.6,0.1-10,0.4-14.1-1.9
			C979.8,985.9,979.8,982,978.6,978.5z M1016.3,965.3c-1.2,2.6-2.8,5-4,7.6c-0.3,0.6-0.5,1.2-0.8,1.8c-4.1,0.2-7.8,1-12.1,0.3
			c-3.4-0.5-6.8-1.2-10.2-1.5c-3.8-0.3-7.6-0.4-11.4,0c-0.6,0.1-1.1,0.2-1.7,0.3c-0.1,0-0.2,0-0.2,0c-0.1,0-0.3-0.1-0.4-0.1
			c-2-1.9-4.2-3.6-4-6.5c2.6-1.3,5.3-2.6,8-3.4c5.1-1.5,10.4-2.5,15.7-2.7c7.3-0.4,15.2,1.1,22.4-0.6
			C1017.3,962.2,1017,963.7,1016.3,965.3z"/>
		<path fill="#05132B" d="M1048.7,956.6c2.4,0.2,4.6,1.2,7,1.3c2,0.1,3.9-0.3,5.9-0.6c4.2-0.6,8.3-0.7,12.5-0.9c0,0,0.1,0,0.1,0
			c1.9,0.2,3.6,0.7,5.4,1.3c-0.8-0.8-1.5-1.1-1.5-1.1s1.4-4.2,2.5-8.3c-0.2,0.3-0.4,0.6-0.7,0.9c-3,3.6-7.4,3.4-11.6,3.6
			c-2.6,0.1-5.2,0.5-7.7,0.9c-4.1,0.5-7.8-0.3-11.8,0C1046.8,954,1046.8,956.5,1048.7,956.6z"/>
		<path fill="#05132B" d="M1080.3,982.1c-2.3-2.7-3.3-10-3.3-10s2.8-3.1,4-6.8c-4.2,3.1-10.6,3-15.5,2.1c-3.8-0.7-8.2-3.2-12-2.4
			c-0.2,0-0.3,0.3-0.3,0.5c0.5,3,3.8,4.2,6.6,4.6c1.6,0.2,2.8-0.1,4.3-0.4c3-0.5,5.8-0.5,8.8-0.1c1.1,0.1,2.6,0.3,4.3,0.3
			c-0.7,1.4-1,3-0.9,4.5c0.1,2.1,0.6,4,1.4,6c0.4,1.1,0.9,2,1.6,3c0.1,0.2,0.8,1.1,1.2,1.5c-4,2.8-8.2,4.3-13.5,4
			c-1.2-0.1-2.4-0.2-3.7-0.4c0.3-2.8-3.5-5.3-6-5.6c-1.2-0.2-2.3,0.3-3,1c-3.2-1.1-6.4-1.4-9.8,0.1c-0.3,0.1-0.5,0.3-0.6,0.5
			c1.5,0.5,2.9,1.3,4.3,2.6c8.8,8.3,25,3.6,30.6,2C1084.4,987.6,1082.6,984.8,1080.3,982.1z"/>
	</g>
	<g>
		<g>
			<path fill="#961819" d="M988,1087.1l-9.4-1.5c2.2,14.2-2.3,27.4-13.4,42.5c-6.7,9.1-14.1,14.8-18.9,17.8c-3.2,2-5.2,2.9-5.2,2.9
				v0.9c0,0,4.2,4.9,8.9,8.2c4.6,3.3,4.5,9.7,21-6.8c16.5-16.5,17.1-27.8,19.5-38.8c1.2-5.5,0.6-11.7-0.3-16.6
				C989.3,1090.7,988,1087.1,988,1087.1z"/>
			<path fill="#961819" d="M1148.6,1130.6c-0.5-0.5-1.2-1-2.2-1.4c-4.9-2.1-13-7.5-18.3-16.2s-6.8-24.1-6.7-28.3
				c0.1-4.3,0.2-5.8-2.6-5.8c-2,0-4.3,0.1-5.8,0.9c-0.6,0.3-1.2,0.8-1.4,1.4c-0.9,2-0.9,15.5,2.8,28s4.4,19.2,20.5,34.9
				c3.1,3,8.7,5.7,10.6,4.9c1.9-0.8,2.3-6.5,2.9-10.7C1149,1134.9,1150.4,1132.5,1148.6,1130.6z"/>
		</g>
		<path opacity="0.3" fill="#05132B" enable-background="new    " d="M1111.5,1081.1c-0.9,2-0.9,15.5,2.8,28s4.4,19.2,20.5,34.9
			c3.1,3,8.7,5.7,10.6,4.9c1.9-0.8,2.3-6.5,2.9-10.7c0.5-3.3,2-5.7,0.1-7.6c-0.7,2.2-1.6,5.2-2.3,7.8c-1.4,4.9-3.4,5.9-5.4,5.6
			s-5.5-2.8-12-9.2s-7.6-10.8-10.3-18.8c-2.4-7.1-5.1-17.1-5.7-36.3C1112.3,1080.1,1111.8,1080.5,1111.5,1081.1z"/>
		<path opacity="0.3" fill="#05132B" enable-background="new    " d="M941.1,1149.7c0,0,4.2,4.9,8.9,8.2c4.6,3.3,4.5,9.7,21-6.8
			c16.5-16.5,17.1-27.8,19.5-38.8c1.2-5.5,0.6-11.7-0.3-16.6c1.2,16.3-5.3,29.1-6.9,33.1c-2,4.8-6.4,14.7-15.6,17.2
			s-15.4-3.4-15.4-3.4s-2.5,1.6-6,3.5c-3.2,2-5.2,2.9-5.2,2.9L941.1,1149.7L941.1,1149.7z"/>
	</g>
	<g>
		<path fill="#B6C1C7" d="M1085.3,1178.9c-0.1-2.5-0.6-8.6-1-12c-0.4-4-0.7-5.1-1.3-5.3c-0.6-0.2-3.7,0.6-4.2,0.7c0,0-0.1,0-0.1,0
			s0-0.2,0-0.5c-0.1-1.5-0.7-5.9-2.6-9.9c-2.4-4.9-2.8-8.8-2.6-13c0.3-4.2,6.8-7.9,10.4-13.1c3.6-5.2,5-11.1,1.4-19.6
			c-3.6-8.5-9.6-11.7-12.4-16.2s-0.8-8.6,0.8-11.4s2-6.6,0-11.4s-6.1-11.6-11.3-20.4s-8.8-14-11.1-22.9c-2.3-8.9-0.5-16.7,0.1-23.9
			c0.6-7.2-1.2-11.2-1.2-11.2s0.2-0.1,0.6-0.2c2.2-0.8,9.9-3.7,12.3-5.1c1.4-0.8,2.1-1.2,2.4-1.7c0.3-0.5,0.1-1.2-0.5-2.4
			c-0.5-1.1-4.2-8.9-8.1-17.2c-0.8-1.8-1.7-3.6-2.6-5.4c-1.1-2.4-2.3-4.7-3.3-6.8c-2.1-4.4-3.9-8-4.7-9.4c-0.2-0.4-0.4-0.8-0.7-1.1
			c-0.6-0.9-1.1-1.6-1.7-2.3c-2-2.4-3.5-3.2-3.5-3.2l-10.7,4c0,0,0,0-2.9,8.4c-2.9,8.4-9.2,27.2-11.9,34.4c-2.7,7.3-4.7,8.6-3.6,9.8
			c0.8,0.9,5,4.2,7.1,5.8c0.7,0.5,1.1,0.8,1.1,0.8c4.1,0,18.3-4.7,19.6-5.1c0.1,0,0.1,0,0.1,0s0.9,10.3,0,17c-0.4,2.7-1,5.7-1.5,9
			c-0.6,5-0.8,10.6,1.5,16.9c3.7,10.6,10.5,19.2,15.2,27.6c0.7,1.2,1.3,2.4,1.8,3.6c3,6.9,3,12.8,1.3,16.6c-1.3,2.8-2.3,4.9-2.6,6.8
			c-0.2,1.1-0.1,2,0.4,2.9c1.2,2.4,3.8,2.9,7.6,10c3.8,7.1,4.7,13.9,3.2,18.7c-0.3,0.9-0.8,1.8-1.4,2.8c-2.8,4.3-8.4,9.1-9.4,12.7
			c-0.1,0.3-0.1,0.6-0.2,0.9c-0.4,4.3,4.1,10.4,5.7,16.5c0.1,0.6,0.2,1.1,0.3,1.6c0.8,4.2,0.6,7,0.4,8.1c-0.1,0.3-0.1,0.5-0.1,0.5
			s-0.5,0.3-1.3,0.7c-1.7,1-4.5,2.6-4.7,3.2c-0.4,0.9,0.6,1.6,1.1,5.3c0.6,3.7,0.7,6.4,1.4,7.3c0.6,0.9,1.9,1.6,5.7,3.2
			c0,0,16.4-2.3,18.3-2.9c1.9-0.6,3.2-0.2,3.2-1.3c0-0.2,0-0.5,0-0.9C1085.3,1179.1,1085.3,1179,1085.3,1178.9z"/>
		<path fill="#808C98" d="M1055.6,1168.4c-0.4,0.9,0.6,1.6,1.1,5.3c0.6,3.7,0.7,6.4,1.4,7.3c0.6,0.9,1.9,1.6,5.7,3.2
			c0,0,16.4-2.3,18.3-2.9c1.9-0.6,3.2-0.2,3.2-1.3c0-0.2,0-0.5,0-0.9c-3.7,0.5-9.5,1.4-12.7,2.2c-5,1.3-8.7,1.7-9.1,1.1
			c-0.3-0.6-2.4-10.9-3.2-17.1C1058.6,1166.2,1055.9,1167.8,1055.6,1168.4z"/>
		<path fill="#808C98" d="M1030,938.1c0,0,0,0-2.9,8.4s-9.2,27.2-11.9,34.5s-4.7,8.6-3.6,9.8c0.8,0.9,5,4.2,7.1,5.8
			c2.9-10.8,14-52.3,14.4-55.1C1033.4,938.2,1032,938.2,1030,938.1z"/>
		<path fill="#CCD4D8" d="M1032.6,992.8l8.1-20.7c0,0-5.5-1.2-5.5-1.2s-1.3-1.3,8-3.8l8.1-17.2c-2.1-4.4-3.9-7.9-4.7-9.4
			c-0.2-0.4-0.4-0.8-0.7-1.1l-24.4,55.3C1024.4,995.2,1032.6,992.8,1032.6,992.8z"/>
		<path fill="#CCD4D8" d="M1053.3,971.5l3.8-9.3c-0.8-1.8-1.7-3.6-2.6-5.3l-3.7,9.5L1053.3,971.5z"/>
		<path fill="#FEFEFE" d="M1038.3,960.8c2.1-0.6,4.4-1,6.6-1.4c1-0.2,0.8-1.8-0.2-1.7c-2.4,0.3-4.4,1.3-6.6,2.1
			C1037.5,960,1037.7,960.9,1038.3,960.8L1038.3,960.8z"/>
		<path fill="#FEFEFE" d="M1034.7,971.5c-0.7,3.4-1.2,6.8-1.8,10.2c-0.1,0.6,0.4,1,1,0.8c3.3-1.6,7.3-1.9,10.9-2.7
			c1.7-0.4,3.3-0.9,4.9-1.5c1.4-0.5,3-0.6,4.4-1.3c0.4-0.2,0.3-0.9-0.1-1c-3.2-0.7-7,1.3-10.1,2c-3.8,0.8-7.2,1.5-10.7,3.3
			c0.3,0.2,0.7,0.5,1,0.8c0.7-3.5,1.2-6.9,1.2-10.5C1035.3,971.2,1034.8,971.1,1034.7,971.5L1034.7,971.5z"/>
		<path fill="#808C98" d="M1053.8,975.4c0.1,0.4-1.9,1.2-5.1,1.9c-0.7,0.2-1.4,0.3-2.2,0.5c-4.4,0.8-12.7,2.9-12.7,2.9
			c0.6-4.1,1.4-9.6,1.4-9.6s7.6-2.3,9.5-3.1c0.2-0.1,0.5-0.2,0.8-0.3c1.8-0.8,4-1.8,4-1.8S1053.7,974.9,1053.8,975.4z"/>
		<path fill="#808C98" d="M1044.5,957.4l-2.9,0.9l-4.1,1.3c0-0.1,1-4.8,1.7-8c0.3-1.5,0.6-2.8,0.7-3
			C1040.2,947.9,1044.5,957.4,1044.5,957.4z"/>
		<path fill="#6A161E" d="M1041.6,958.4c-0.5-1.5-1.3-3.9-2.3-6.7c-0.7,3.2-1.7,7.9-1.7,8L1041.6,958.4z"/>
		<path fill="#6A161E" d="M1044.6,967.9c-1.9,0.8-9.5,3.1-9.5,3.1s-0.8,5.5-1.4,9.6c0,0,8.3-2.1,12.7-2.9c0.8-0.1,1.5-0.3,2.2-0.5
			c-0.6-1.7-1.6-4.7-3.3-9.8C1045.1,967.7,1044.9,967.8,1044.6,967.9z"/>
		<path fill="#CCD4D8" d="M1044.2,988.7c1.5-0.3,4-1.3,4-1.3l4.2-10.4l-4.7,1.6L1044.2,988.7z"/>
		<path fill="#FEFEFE" d="M1032.8,938.8c-0.4,0.2-0.1,0.9,0.3,0.8c2.6-0.7,5.1-1.4,7.8-1.9c1.7-0.3,2.7,0.4,3.6,1.8
			c0.6,0.9,1.1,1.8,1.6,2.8c2.3,4.6,4.2,9.5,6.4,14.1c2.2,4.7,4.5,9.4,7,14c1.2,2.2,2.4,4.4,3.6,6.7c0.8,1.5,1.5,3.2,2.4,4.7
			c0.3-0.5,0.1-1.2-0.5-2.4c-0.5-1.1-4.2-8.9-8.1-17.2c-0.8-1.8-1.7-3.6-2.6-5.4c-1.1-2.4-2.3-4.7-3.3-6.8c-2.1-4.4-3.9-8-4.7-9.4
			c-0.2-0.4-0.4-0.8-0.7-1.1c-0.6-0.9-1.1-1.6-1.7-2.3C1040.9,935.4,1035.9,937.2,1032.8,938.8z"/>
		<path fill="#FEFEFE" d="M1041.9,1014.4c0.6,0.1,1.2-0.1,1.8-0.1c0.8,0,1.6,0,2.3,0c-0.2-0.5-0.4-0.9-0.6-1.3c0,0-0.1,0.1-0.1,0.1
			c-0.5,0.5-0.1,1.2,0.5,1.2c0.1,0,0.1,0,0.2,0c1,0.1,1-1.6,0-1.6c-0.7,0-1.4,0.1-2.1,0.2c-0.6,0.2-1.3,0.6-2,0.6
			C1041.5,1013.6,1041.4,1014.3,1041.9,1014.4L1041.9,1014.4z"/>
		<path fill="#FEFEFE" d="M1043.8,1029.2C1043.8,1029.2,1043.8,1029.2,1043.8,1029.2C1043.8,1029.2,1043.8,1029.2,1043.8,1029.2
			C1043.8,1029.2,1043.8,1029.2,1043.8,1029.2C1043.8,1029.1,1043.7,1029.2,1043.8,1029.2L1043.8,1029.2z"/>
		<path fill="#FEFEFE" d="M1043.7,1029.7c0.8,0.2,1.5,0,2.2-0.1c0.9-0.1,1.9-0.1,2.8-0.3c0.7-0.1,0.6-1.1,0-1.3
			c-0.8-0.2-1.6-0.1-2.3,0.1c-0.8,0.2-1.8,0.8-2.6,0.7C1043.3,1028.7,1043.2,1029.6,1043.7,1029.7L1043.7,1029.7z"/>
		<path fill="#FEFEFE" d="M1048.3,1042.6c1-0.7,2-1.3,3-1.9c0.9-0.5,2.2-0.8,2.9-1.6c0.4-0.4,0.1-1-0.4-1.1
			c-1.1-0.1-2.4,0.8-3.3,1.3c-1.1,0.7-2,1.5-2.9,2.4C1047.3,1042.2,1047.8,1042.9,1048.3,1042.6L1048.3,1042.6z"/>
		<path fill="#FEFEFE" d="M1055.2,1050.2c0.8,0,1.5-0.6,2.1-0.9c0.6-0.3,1.7-0.5,2-1.2c0.1-0.3,0.1-0.7-0.2-0.9
			c-0.8-0.4-1.8,0.2-2.5,0.6c-0.7,0.4-1.6,0.9-1.9,1.7C1054.5,1049.8,1054.8,1050.2,1055.2,1050.2L1055.2,1050.2z"/>
		<path fill="#FEFEFE" d="M1060.8,1061.7c-0.5,0.8,1.1,0.7,1.4,0.7c1.4-0.2,2.8-0.8,4.1-1.6c0.9-0.6,0.1-2-0.8-1.5
			c-0.8,0.5-1.7,0.9-2.5,1.3c-0.4,0.2-0.9,0.3-1.3,0.5c-0.2,0.1-0.3,0.1-0.4,0.2c-0.1,0-0.1,0.1-0.2,0.1c-0.2,0.1-0.1,0.2,0.2,0
			C1061,1061.5,1060.8,1061.5,1060.8,1061.7L1060.8,1061.7z"/>
		<path fill="#FEFEFE" d="M1064.8,1072.2c0.9-0.1,1.7-0.2,2.6-0.1c0.8,0.1,1.6,0.1,2.4-0.2c0.5-0.1,0.7-0.8,0.3-1.2
			c-0.8-0.6-1.5-0.2-2.4-0.2c-1,0-2,0.2-3,0.3C1064,1070.9,1063.9,1072.3,1064.8,1072.2L1064.8,1072.2z"/>
		<path fill="#FEFEFE" d="M1061.8,1089c0.9,0.1,1.8-0.1,2.7-0.2c0.9-0.1,1.9-0.1,2.7-0.6c0.5-0.2,0.4-1.1-0.2-1.2
			c-1-0.2-2.2,0.1-3.2,0.2c-0.8,0.1-1.8,0.3-2.4,0.9C1061.2,1088.5,1061.4,1088.9,1061.8,1089L1061.8,1089z"/>
		<path fill="#FEFEFE" d="M1070.3,1102.6c0.7-0.1,1.3-0.6,1.9-1c0.6-0.5,1.3-0.9,1.9-1.4c0.8-0.7-0.6-1.9-1.2-0.9c0,0,0,0,0,0.1
			c-0.2,0.3-0.1,0.6,0.1,0.8c0,0,0,0,0.1,0.1c0.1-0.4,0.1-0.8,0.2-1.2c-0.7,0.4-1.3,0.9-1.9,1.4c-0.5,0.4-1.2,1-1.4,1.7
			C1069.8,1102.3,1070.1,1102.6,1070.3,1102.6L1070.3,1102.6z"/>
		<path fill="#FEFEFE" d="M1074.7,1112.3c1.1-0.1,2.3-0.4,3.4-0.7c0.7-0.1,1.3-0.4,2-0.4c0.6,0,1,0,1.6-0.1c1-0.2,0.8-2-0.2-1.8
			c-0.6,0.1-1.2,0-1.8,0.1c-0.7,0.1-1.5,0.4-2.2,0.7c-1.1,0.3-2.4,0.6-3,1.7C1074.3,1112,1074.4,1112.3,1074.7,1112.3L1074.7,1112.3
			z"/>
		<path fill="#FEFEFE" d="M1073.6,1120.1c0.9,0.5,1.9,0.8,3,1c0.8,0.2,1.5,0.7,2.4,0.7c1.2-0.1,1.2-1.8,0-1.9
			c-0.7-0.1-1.5-0.5-2.3-0.6c-0.9-0.2-1.8-0.3-2.8-0.2C1073.3,1119.1,1073.1,1119.8,1073.6,1120.1L1073.6,1120.1z"/>
		<path fill="#FEFEFE" d="M1063,1140.6c1.6,0.3,2.9,1.5,4.5,1.9c0-0.6,0-1.2,0-1.8c-0.1,0-0.2,0-0.2,0c-0.7,0.1-0.9,1.3-0.2,1.6
			c0.1,0,0.1,0.1,0.2,0.1c1.2,0.5,2-1.4,0.7-1.7c-1.6-0.4-3.1-1.2-4.8-1.4C1062.5,1139.3,1062.3,1140.5,1063,1140.6L1063,1140.6z"/>
		<path fill="#FEFEFE" d="M1065.9,1152.6c1.2-0.3,2.6-0.5,3.9-0.5c1,0,1.7,0.1,2.3-0.7c0.3-0.4,0-1-0.4-1.1
			c-0.9-0.2-1.8,0.1-2.7,0.2c-1.2,0.2-2.2,0.7-3.3,1.1C1065,1151.9,1065.2,1152.8,1065.9,1152.6L1065.9,1152.6z"/>
		<path fill="#FEFEFE" d="M1041.9,1014.4c0.6,0.1,1.2-0.1,1.8-0.1c0.8,0,1.6,0,2.3,0c-0.2-0.5-0.4-0.9-0.6-1.3c0,0-0.1,0.1-0.1,0.1
			c-0.5,0.5-0.1,1.2,0.5,1.2c0.1,0,0.1,0,0.2,0c1,0.1,1-1.6,0-1.6c-0.7,0-1.4,0.1-2.1,0.2c-0.6,0.2-1.3,0.6-2,0.6
			C1041.5,1013.6,1041.4,1014.3,1041.9,1014.4L1041.9,1014.4z"/>
		<path fill="#FEFEFE" d="M1043.8,1029.2C1043.8,1029.2,1043.8,1029.2,1043.8,1029.2C1043.8,1029.2,1043.8,1029.2,1043.8,1029.2
			C1043.8,1029.2,1043.8,1029.2,1043.8,1029.2C1043.8,1029.1,1043.7,1029.2,1043.8,1029.2L1043.8,1029.2z"/>
		<path fill="#FEFEFE" d="M1043.7,1029.7c0.8,0.2,1.5,0,2.2-0.1c0.9-0.1,1.9-0.1,2.8-0.3c0.7-0.1,0.6-1.1,0-1.3
			c-0.8-0.2-1.6-0.1-2.3,0.1c-0.8,0.2-1.8,0.8-2.6,0.7C1043.3,1028.7,1043.2,1029.6,1043.7,1029.7L1043.7,1029.7z"/>
		<path fill="#FEFEFE" d="M1048.3,1042.6c1-0.7,2-1.3,3-1.9c0.9-0.5,2.2-0.8,2.9-1.6c0.4-0.4,0.1-1-0.4-1.1
			c-1.1-0.1-2.4,0.8-3.3,1.3c-1.1,0.7-2,1.5-2.9,2.4C1047.3,1042.2,1047.8,1042.9,1048.3,1042.6L1048.3,1042.6z"/>
		<path fill="#FEFEFE" d="M1055.2,1050.2c0.8,0,1.5-0.6,2.1-0.9c0.6-0.3,1.7-0.5,2-1.2c0.1-0.3,0.1-0.7-0.2-0.9
			c-0.8-0.4-1.8,0.2-2.5,0.6c-0.7,0.4-1.6,0.9-1.9,1.7C1054.5,1049.8,1054.8,1050.2,1055.2,1050.2L1055.2,1050.2z"/>
		<path fill="#FEFEFE" d="M1060.8,1061.7c-0.5,0.8,1.1,0.7,1.4,0.7c1.4-0.2,2.8-0.8,4.1-1.6c0.9-0.6,0.1-2-0.8-1.5
			c-0.8,0.5-1.7,0.9-2.5,1.3c-0.4,0.2-0.9,0.3-1.3,0.5c-0.2,0.1-0.3,0.1-0.4,0.2c-0.1,0-0.1,0.1-0.2,0.1c-0.2,0.1-0.1,0.2,0.2,0
			C1061,1061.5,1060.8,1061.5,1060.8,1061.7L1060.8,1061.7z"/>
		<path fill="#FEFEFE" d="M1064.8,1072.2c0.9-0.1,1.7-0.2,2.6-0.1c0.8,0.1,1.6,0.1,2.4-0.2c0.5-0.1,0.7-0.8,0.3-1.2
			c-0.8-0.6-1.5-0.2-2.4-0.2c-1,0-2,0.2-3,0.3C1064,1070.9,1063.9,1072.3,1064.8,1072.2L1064.8,1072.2z"/>
		<path fill="#FEFEFE" d="M1061.8,1089c0.9,0.1,1.8-0.1,2.7-0.2c0.9-0.1,1.9-0.1,2.7-0.6c0.5-0.2,0.4-1.1-0.2-1.2
			c-1-0.2-2.2,0.1-3.2,0.2c-0.8,0.1-1.8,0.3-2.4,0.9C1061.2,1088.5,1061.4,1088.9,1061.8,1089L1061.8,1089z"/>
		<path fill="#FEFEFE" d="M1070.3,1102.6c0.7-0.1,1.3-0.6,1.9-1c0.6-0.5,1.3-0.9,1.9-1.4c0.8-0.7-0.6-1.9-1.2-0.9c0,0,0,0,0,0.1
			c-0.2,0.3-0.1,0.6,0.1,0.8c0,0,0,0,0.1,0.1c0.1-0.4,0.1-0.8,0.2-1.2c-0.7,0.4-1.3,0.9-1.9,1.4c-0.5,0.4-1.2,1-1.4,1.7
			C1069.8,1102.3,1070.1,1102.6,1070.3,1102.6L1070.3,1102.6z"/>
		<path fill="#FEFEFE" d="M1074.7,1112.3c1.1-0.1,2.3-0.4,3.4-0.7c0.7-0.1,1.3-0.4,2-0.4c0.6,0,1,0,1.6-0.1c1-0.2,0.8-2-0.2-1.8
			c-0.6,0.1-1.2,0-1.8,0.1c-0.7,0.1-1.5,0.4-2.2,0.7c-1.1,0.3-2.4,0.6-3,1.7C1074.3,1112,1074.4,1112.3,1074.7,1112.3L1074.7,1112.3
			z"/>
		<path fill="#FEFEFE" d="M1073.6,1120.1c0.9,0.5,1.9,0.8,3,1c0.8,0.2,1.5,0.7,2.4,0.7c1.2-0.1,1.2-1.8,0-1.9
			c-0.7-0.1-1.5-0.5-2.3-0.6c-0.9-0.2-1.8-0.3-2.8-0.2C1073.3,1119.1,1073.1,1119.8,1073.6,1120.1L1073.6,1120.1z"/>
		<path fill="#FEFEFE" d="M1063,1140.6c1.6,0.3,2.9,1.5,4.5,1.9c0-0.6,0-1.2,0-1.8c-0.1,0-0.2,0-0.2,0c-0.7,0.1-0.9,1.3-0.2,1.6
			c0.1,0,0.1,0.1,0.2,0.1c1.2,0.5,2-1.4,0.7-1.7c-1.6-0.4-3.1-1.2-4.8-1.4C1062.5,1139.3,1062.3,1140.5,1063,1140.6L1063,1140.6z"/>
		<path fill="#FEFEFE" d="M1065.9,1152.6c1.2-0.3,2.6-0.5,3.9-0.5c1,0,1.7,0.1,2.3-0.7c0.3-0.4,0-1-0.4-1.1
			c-0.9-0.2-1.8,0.1-2.7,0.2c-1.2,0.2-2.2,0.7-3.3,1.1C1065,1151.9,1065.2,1152.8,1065.9,1152.6L1065.9,1152.6z"/>
		<g>
			<path fill="#969696" d="M1083.3,1109c0-0.1-0.1-0.2-0.2-0.2c0,0-0.1-0.1-0.1-0.1c-0.1-0.1-0.1-0.1-0.2-0.2
				c-0.1-0.1-0.2-0.1-0.3-0.1c-2-0.9-5.9,0.9-7.9,1.8c-0.9-2-1.8-4.4-2.3-6.4c-0.5-2.3,2.6-1.9,2.7-3.9c0.2-1.6-1.8-4-2.5-5.4
				c-0.4-0.9-0.9-3.2-1.8-4.1c-0.1-0.4-0.6-0.8-1.1-0.6c-1,0.5-2.1,1-3.1,1.5c-0.3,0.2-2.1,1.3-2.1,1.3c-0.3-0.1-1.1-2.3-1.3-2.6
				c-0.4-0.8-0.8-1.7-1.2-2.5c1.2-0.1,2.5-0.2,3.7-0.3c0.8,0,1.9,0.3,2.6-0.3c0.3-0.3,0.4-0.6,0.5-1c0.5-1.8,0.3-4,0.6-5.9
				c0.1-0.4-0.2-1.1-0.8-1c-1.6,0.2-3.1,0.5-4.6,1.1c0.1-2.2,0.2-4.4,0.5-6.6c0.2-1.7,1-2.3,2.7-2.3c1.4,0,2.7,0.1,4.1-0.1
				c0.2,0,0.3-0.1,0.3-0.2c0.2-0.2,0.3-0.4,0.2-0.7c-1.6-3.9-2.9-7.9-4.4-11.9c-0.2-0.5-0.6-0.6-1.1-0.4c-1.2,0.5-2.5,1.3-3.8,1.7
				c-0.6,0.3-1.3,0.4-2.1,0.2c-0.2-0.3-0.3-0.6-0.4-0.8c-0.5-0.5-0.8-1.5-1.1-2.1c-1.2-2.3-2.4-4.9-3.8-7.1c0.9-0.6,2.4-1,3.3-1.4
				c0.3-0.1,0.4-0.5,0.3-0.8c-0.7-1.9-1.4-3.8-2.2-5.7c-0.5-1.4-1-3.2-1.9-4.4c-0.1-0.2-0.3-0.3-0.6-0.3c-1.1,0.2-2.1,0.7-3.1,1.2
				c-0.7,0.3-1.4,1-2.1,1.2c-1,0.4-0.8,0.9-1.5-0.4c-0.5-1-2.7-10.1-3.8-10c0,0,0,0,0,0c1.4-0.1,5,0,5.7-1.1c0.4-0.6,0-1.7-0.1-2.3
				c-0.2-1.7-0.4-3.4-0.6-5.1c-0.2-1.5-0.3-3.1-0.5-4.7c-0.1-1-0.1-2.7-0.6-3.6c-0.7-1.4-2.8-0.6-4.3-0.1c-0.2-2.5-0.2-4.9-0.1-7.3
				c0,0,0,0,0,0c1.8-0.7,4.1,0.2,6-0.8c0.2-0.1,0.4-0.4,0.4-0.6c0-1.5-0.6-3-0.8-4.5c-0.4-2.2-0.7-4.4-1-6.6
				c-0.1-0.5-0.4-0.8-0.9-0.7c-0.7,0.2-2.2,0.9-2.8,0.7c-0.6-0.2-0.9-0.8-1.1-1.5l-1,0.3c0,0.8,0.2,1.6,0.9,2.2
				c1,0.8,2.5,0.4,3.7-0.1c0.3,2.3,0.6,4.6,1,6.9c0.1,0.5,0.4,1.3,0.4,1.8c-0.2,1.1-1.1,1-2.1,1.2c-1,0.1-2-0.1-2.9,0.2
				c-0.1,0-0.2,0.1-0.3,0.2c-0.1,0-0.1,0.1-0.2,0.2c-0.5,3-0.5,6-0.2,9.1c0,0.4,0.3,0.7,0.8,0.6c0.4-0.1,2.3-0.8,2.8-0.6
				c1,0.4,0.8,1.7,0.9,2.5c0.2,1.7,0.5,3.4,0.7,5.1c0.2,1.7,0.6,3.5,0.6,5.1c0,1.2,0.2,1.2-1.1,1.7c-1,0.3-2.3,0.3-3.3,0.4
				c-0.3,0-0.6,0.3-0.6,0.5c-0.7,0.8,0.6,3.1,0.9,3.8c0.7,1.7,1.3,3.4,1.8,5.2c0.3,0.9,0.5,3.5,1.3,4.2c0.4,0.4,0.7,0.4,1.2,0.3
				c0.2,0,1.8-1.3,1.7-1.2c0.6-0.4,1.3-0.8,2-1.2c0.9-0.5,1.4-1,2.3-0.3c0.5,0.4,0.7,2,1,2.6c0.7,1.8,1.4,3.7,2.1,5.5
				c-1.2,0.4-2.7,0.9-3.5,1.7c-0.3,0.3-0.2,0.9,0.1,1.1c0.9,1.8,1.9,3.6,2.8,5.3c0.9,1.6,1.7,4.1,3,5.5c1.6,1.7,4.9-0.4,6.8-1.4
				c1.1,3.5,2.4,6.9,3.8,10.3c-2.2-0.4-5.4-0.6-6.4,0.8c-0.7,0.9-0.4,3.2-0.5,4.2c-0.2,2.1-0.3,4.2-0.4,6.3c0,0.4,0.5,0.8,0.9,0.7
				c1.4-0.5,2.7-0.8,4.1-1c-0.1,0.6-0.2,1.1-0.2,1.7c0,0.4,0.1,3.4-0.2,3.5c-0.1,0.1-2.4-0.1-2.8-0.1c-1.1,0.1-2.3,0.2-3.4,0.3
				c-0.4,0-0.8,0.4-0.7,0.9c0.6,1.5,1.2,3,2,4.5c0.3,0.6,0.7,1.9,1.4,2.2c0.7,0.3,1.4-0.2,2-0.5c1.4-0.7,2.8-1.4,4.1-2.1
				c0.3,0.7,0.4,1.7,0.6,2.3c0.4,1.1,1,2.1,1.5,3.2c0.5,1,1.6,2.4,0.9,3.3c-0.6,0.8-1.8,1-2.3,1.9c-0.7,1.1,0,1.7,0.5,2.8
				c1,2.2,1.4,4.6,2.5,6.7c0.1,0.3,0.6,0.5,0.9,0.3c1.4-0.5,6-2.5,7.5-2.1c0,1-1,3-1.2,3.6c-0.4,1.3-0.7,2.6-1,3.9
				c-0.5,1.7-0.8,1.5-2.4,1.1c-0.8-0.2-1.8-0.6-2.7-0.4c-1.6,0.3-2.3,2.3-3.1,3.5c-1.8,2.7-3.8,5.4-6,7.9c-0.3,0.3-0.3,1,0.2,1.2
				c1.7,0.8,3.5,1,5.2,1.5c0,0.5-1.4,3.1-1.6,3.4c-0.6,1.2-1.2,2.4-1.8,3.6c-1.8-0.8-4.3-1.6-6-0.6c-0.3,0.2-0.5,0.7-0.3,1.1
				c1.1,1.7,1.2,3.9,1.8,5.8c0.5,1.5,0.9,4.3,1.9,5.6c0.6,0.8,1,0.7,2,0.5c1.8-0.2,3.6-0.7,5.3-0.9c0,0.4-0.3,6.5-0.2,7.2
				c0.1,1.9,0.2,4.1,1.2,5.7c0.2,0.3,0.9,0.3,0.9-0.1c0.2-1.6-0.3-3.1-0.4-4.7c-0.2-1.7-0.2-3.4-0.1-5.1c0.1-1.2,0.5-3.4-0.7-4.1
				c-0.2-0.2-0.4-0.4-0.7-0.3c-1.5,0.2-3.1,0.5-4.6,0.6c-2.1,0.1-2-1.8-2.6-3.6c-0.7-2.1-1-4.5-1.9-6.5c1.4-0.1,3.5,0.9,4.6,1.3
				c0.3,0.1,0.7-0.1,0.9-0.4c1-1.8,2-3.7,2.9-5.5c0.5-1.1,1.3-2.2,1.3-3.4c0-0.3-0.2-0.6-0.4-0.7c-0.5-0.5-1.4-0.5-2.1-0.7
				c-1-0.3-2.1-0.6-3.1-0.9c1.8-2.6,3.7-5.1,5.6-7.7c0.6-0.8,0.9-1.8,1.8-2c0.7-0.2,1.4,0.2,2.1,0.3c0.8,0.2,2.2,0.9,3,0.6
				c1.7-0.7,1.9-4.5,2.3-5.9C1082.7,1112.9,1084.3,1110.6,1083.3,1109z"/>
		</g>
		<g>
			<g>
				<path fill="#B6C1C7" d="M1061.8,1165.4C1061.8,1165.4,1061.8,1165.3,1061.8,1165.4C1061.8,1165.3,1061.8,1165.4,1061.8,1165.4
					L1061.8,1165.4z"/>
			</g>
		</g>
		<path fill="#FEFEFE" d="M1083,1161.7c-0.6-0.2-4.2,0.7-4.2,0.7s0-0.2,0-0.5c-1.7,0.3-3.3,0.6-5,0.9c-4,0.7-8.1,1.4-12.1,2.2
			c-0.5,0.1-0.4,0.8,0.1,0.8c5.8-0.2,11.4-1.1,17.1-2.1c0.6-0.1,1.3-0.4,1.9-0.3c1.9,0.2,1.9,0.9,2.1,2.3c0.2,1.3,0.3,2.7,0.4,4.1
			c0.3,2.9,0.4,5.8,0.8,8.7c0.1,0.6,0.8,0.9,1.2,0.7c-0.1-2.5-0.6-8.6-1-12C1083.9,1163,1083.6,1161.9,1083,1161.7z"/>
		<path opacity="0.3" fill="#05132B" enable-background="new    " d="M1078.8,1161.8c-0.1-1.5-0.7-5.9-2.6-9.9
			c-2.4-4.9-2.8-8.8-2.6-13c0.3-4.2,6.8-7.9,10.4-13.1c3.6-5.2,5-11.1,1.4-19.6c-3.6-8.5-9.6-11.7-12.4-16.2s-0.8-8.6,0.8-11.4
			s2-6.6,0-11.4s-6.1-11.6-11.3-20.4s-8.8-14-11.1-22.9c-2.3-8.9-0.5-16.7,0.1-23.9c0.6-7.2-1.2-11.2-1.2-11.2s0.2-0.1,0.6-0.2
			c-1.7,0.1-3.5,0.7-5.1,1.1c-2.3,0.6-4.5,1.4-6.5,2.5c0.1,0,0.1,0,0.1,0s0.9,10.3,0,17c-0.4,2.7-1,5.7-1.5,9
			c2.3-5.4,2.2-11.5,4.4-17.2c2.4-0.5,4.7-0.8,7.1-1.1c-1.1,4.8-0.4,10.9-0.4,14.3c0.1,8.6,1.4,17.2,6.1,24.5
			c1.8,3.9,4.1,7.5,6.5,11.1c2.6,3.9,5.4,7.6,7.9,11.6c3.1,5,3.9,9.4,3.3,14.8c-2.7,1-5.3,1.9-8.2,2.3c-1.1,0.1-2.2,0.2-3.3,0.2
			c-0.3-4.7-2.2-8.8-4.9-12.5c3,6.9,3,12.8,1.3,16.6c-1.3,2.8-2.3,4.9-2.6,6.8c4.4-1.2,11-3.2,14.8-0.2c1.6,1.3,2.5,3.4,3.7,5.1
			c1.3,1.8,2.8,3.5,4.3,5.3c3.6,4.3,6.4,8.7,7,14.3c0.1,3.8-0.2,7.6-2.2,9.4c-3.2,2.9-12.5,1.5-16.4,0.8c-0.5-0.1-0.9-0.2-1.4-0.3
			c-2.8,4.3-8.4,9.1-9.4,12.7c-0.1,0.3-0.1,0.6-0.2,0.9c1.7-0.4,3.3-0.8,5.1-0.9c2.7-0.1,5.5,0.1,8.2,0.1c1.5,0,3,0.1,4.5,0.1
			c-1.6,2.7-2.6,5.8-2.2,8.3c0.4,2.4,2.4,4.3,3.3,6.5c0.7,1.5,1,3.2,1.6,4.8c-0.5,1.1-0.8,2.1-2.4,2.4c-2.1,0.4-4.6,0-6.7-0.6
			c-1.3-0.4-2.5-0.9-3.7-1.5c-0.5-0.3-1.1-0.8-1.7-1.1c0.8,4.2,0.6,7,0.4,8.1c1.1,0.2,2.2,0.4,3.4,0.4c3.1,0,6.2-0.6,9.2-1
			c1.3-0.2,3.4-0.2,4.6-1.1c0,0-0.1,0-0.1,0S1078.8,1162.2,1078.8,1161.8z M1065.5,1161.4c0-0.1-0.1-0.1-0.1-0.2
			c0.2,0.1,0.3,0.1,0.5,0.2C1065.7,1161.5,1065.6,1161.5,1065.5,1161.4z M1076.8,1159.2c0,0,0-0.1,0.1-0.1c0,0,0.1,0.1,0.1,0.1
			C1076.9,1159.2,1076.9,1159.2,1076.8,1159.2z"/>
	</g>
	<path fill="#E9F8FF" d="M1079.5,1045.8c-7.8-2-12.8-7.5-13-17c-0.1-9.6,3.2-17.2,10-20.4s17-1.2,22.2,6s6.7,13.9,5.1,19.5
		c-1.6,5.6-6.3,9.4-8.2,9.6s-2.2-0.8-2.4-3.3c-0.2-2.6-1.3-3.5-2.5-4.9c-1.2-1.4-1.6-1.9,2.2-2.5c3.8-0.6,4.3-3.4,4.2-8.2
		c-0.2-4.8-3.7-7.5-3.7-7.5s0.1-2.3-0.6-3.5s-2.7-0.6-4.8,1.9c0,0-1.4-0.2-4.5,0s-5.4,1.8-5.4,1.8s-1.7-1.6-3.2-1.6
		c-1.5,0-2,2.4-0.5,5.5c0,0-1.3,1.2-1,4.8c0.3,3.6,1.7,6.4,4.2,7.2s6.2,0,5.7,1.4s-1.5,4.8-2.8,4.5s-2.5-2.6-4.6-3.2
		c-2-0.6-5.2-0.3-4,0.1c1.2,0.3,1.2,1.9,3.3,3.4c2,1.5,3,1.9,5.2,1.9s1.9,0.1,1.9,1.5C1082.2,1044.2,1082.4,1046.5,1079.5,1045.8z"
		/>
	<g>
		<path fill="#961819" d="M1050.1,1164c1.7-8.2,0.8-11.9,0-13s-17.1-3.1-42.9,1.9c-25.8,4.9-44.1,11.2-56.4,16.2
			s-23.6,12.1-25.1,13.8c-1.5,1.7,0.4,3.8-1.1,8s-3.7,8.2-2.8,12.7s1.9,6.1,7.1,3.8c5.2-2.3,40.7-14.1,56.7-18.3
			s42.6-10.2,52.8-10.5c10.2-0.3,16-0.3,16-0.3C1049.4,1172.8,1048.4,1172.2,1050.1,1164z"/>
		<path fill="#961819" d="M1160.4,1178.6c-1.8-5.6-2.9-8.2-2.4-11s-2.5-4.1-7.8-6.8s-14.7-6.3-24.9-9.2s-29.1-3.4-33-3.4
			s-6.6-0.9-5,2.6s4.3,11.9,3.5,16.4s-2.2,7.7-2.2,8.9s14-3.1,27.7-0.9c13.7,2.2,24.5,3.5,38.8,11.8c4.3,2.5,3.6,3.3,4.7,1.5
			C1160.9,1186.7,1162.3,1184.2,1160.4,1178.6z"/>
		<path opacity="0.3" fill="#05132B" enable-background="new    " d="M1050.1,1164c1.7-8.2,0.8-11.9,0-13s-17.1-3.1-42.9,1.9
			c-25.8,4.9-44.1,11.2-56.4,16.2s-23.6,12.1-25.1,13.8c-1.5,1.7,0.4,3.8-1.1,8s-3.7,8.2-2.8,12.7s1.9,6.1,7.1,3.8
			c5.2-2.3,40.7-14.1,56.7-18.3s42.6-10.2,52.8-10.5c10.2-0.3,16-0.3,16-0.3C1049.4,1172.8,1048.4,1172.2,1050.1,1164z
			 M946.1,1198.4c-1.5-2.8-2.3-5.9-1.2-9.2c1-3,4.2-4.8,4.8-7.8c0.8-3.7-1.8-6.7-0.6-10.6c1.5-0.7,3-1.3,4.6-1.9
			c-0.8,1.5-0.9,3.2-0.7,4.9c0.5,3.7,1.7,6.9,0.9,10.7c-0.4,1.7-3.5,8.2-3.3,11.9C949.1,1197.2,947.6,1197.8,946.1,1198.4z
			 M952.3,1195.8c0-0.1,0-0.1,0-0.2c0.1-0.9,0.2-1.7,0.5-2.6c0.3-1.2,0.6-2.3,1-3.4c0.7-2.3,1.5-4.6,1.7-7c0.4-4.7-2.9-9.6-0.8-14
			c3.6-1.4,7.3-2.6,11-3.7c-0.2,0.9-0.2,1.9-0.2,2.9c0.1,1.5,0.4,2.9,0.3,4.4c-0.1,1.8-0.7,3.5-1.3,5.1c-1.7,4.8-1.5,9.2,0.2,13.7
			C960.4,1192.4,956.3,1194,952.3,1195.8z M976.4,1185.5c0.1,0.6,0.2,1.1,0.3,1.7c-3.4,1.1-6.9,2.1-10.3,3.2
			c-0.6-1.6-1.2-3.2-1.5-4.9c-0.6-3.1-0.2-5.7,0.8-8.7c0.7-2,1.1-3.8,1-5.9c-0.1-2.2-0.5-4.3,0.1-6.3c1-0.3,2-0.6,3.1-0.9
			c2.4-0.7,4.8-1.4,7.3-2.1c0.1,1.6,0.5,3.1,0.9,4.7c1.1,4.1,0.2,7.6-0.7,11.6C976.8,1180.4,976.1,1182.9,976.4,1185.5z
			 M993.3,1178.2c0.1,1.3,0.1,2.7,0.3,4c-3,0.7-6.1,1.5-9,2.5c-2,0.6-4,1.3-6.1,1.9c-0.2-0.4-0.3-0.9-0.4-1.4
			c-0.7-3.2,0.1-6.2,0.9-9.3c0.5-2.3,1-4.8,0.6-7.2c-0.3-1.7-1-3.2-1.4-4.9c-0.2-0.8-0.3-1.7-0.3-2.5c6.4-1.8,12.9-3.4,19.4-4.9
			c-0.6,1.2-1.1,2.4-1.3,3.7c-0.3,1.6-0.4,3.3-0.7,4.9c-0.3,1.5-0.9,2.9-1.3,4.4C992.9,1172.3,993.1,1175.2,993.3,1178.2z
			 M1015,1178.2c-6.6,1.1-13.2,2.2-19.7,3.7c-0.2-1.2-0.3-2.4-0.4-3.7c-0.4-3.1-0.9-5.9,0-8.9c0.7-2.3,1.2-4.4,1.5-6.8
			c0.3-2.4,1-4.4,2-6.3c4.3-1,8.6-1.9,13-2.6c2.3-0.4,4.7-0.8,7-1.1c0.2,2.5-0.5,5-1.1,7.5c-0.7,2.8-1.5,5.5-2,8.3
			C1014.6,1171.5,1014.3,1174.9,1015,1178.2z M1038.1,1175.2c-6.2,0.2-12.3,1.2-18.4,2.2c-1,0.2-2,0.3-2.9,0.5
			c-0.9-4.4-0.5-8.8,0.5-13.3c0.8-3.9,2.3-8.2,1.7-12.2c5.2-0.7,10.5-1.2,15.8-1.3c1.8-0.1,3.7-0.1,5.6-0.1
			c0.8,4.8-1.3,9.4-2.2,14.1c-0.7,3.5-0.2,6.9,0.8,10.2C1038.7,1175.2,1038.4,1175.2,1038.1,1175.2z M1041,1175.1
			c-0.6-1.5-1.1-3.1-1.4-4.7c-0.6-3-0.2-5.9,0.4-8.9c0.8-3.7,1.7-7.1,0.8-10.7c3,0,6.1,0.3,8.9,1.2c0.4,2,0.9,4.1,0.5,6.4
			c-0.7,3.6-2.3,7-2.4,10.8c0,1.9,0.4,4.2,1.3,6.4C1046.4,1175.2,1043.6,1175.1,1041,1175.1z"/>
		<path opacity="0.3" fill="#05132B" enable-background="new    " d="M1158,1167.6c0.5-2.8-2.5-4.1-7.8-6.8s-14.7-6.3-24.9-9.2
			s-29.1-3.4-33-3.4s-6.6-0.9-5,2.6s4.3,11.9,3.5,16.4s-2.2,7.7-2.2,8.9s14-3.1,27.7-0.9c13.7,2.2,24.5,3.5,38.8,11.8
			c4.3,2.5,3.6,3.3,4.7,1.5c1.1-1.8,2.5-4.3,0.6-9.9C1158.6,1173.1,1157.6,1170.4,1158,1167.6z M1107.8,1171.7
			c-0.4,0-0.8,0.1-1.2,0.1c-3.2,0.3-6.4,0.8-9.6,1.1c-1.9,0.2-3.8,0.4-5.7,0.5c-0.2,0-0.4,0-0.7,0c0.4-1.6,1-3.4,1.2-4.4
			c0.4-2.5,0.9-5,0.8-7.6c-0.1-3.1-0.8-6-2.1-8.6c-0.1-0.4-0.3-0.9-0.6-1.3c-0.1-0.2-0.3-0.4-0.4-0.6c2.8-0.4,5.7-1.1,7.9-1.1
			c2.6,0,5.2,0.1,7.8,0.3c1.1,3.6,0.1,7.3,0.6,11.1c0.2,1.7,1,3.1,1.6,4.7C1108.1,1168,1108.1,1169.7,1107.8,1171.7z M1126.5,1172.8
			c-0.2,0-0.4-0.1-0.6-0.1c-5.4-1-10.8-1.4-16.3-1.1c0.7-3.1-0.9-6-2.1-9c-1.5-3.9,0.2-8.5-1.4-12.3c4.8,0.4,9.7,1.1,14.3,1.8
			c0.9,0.2,1.8,0.3,2.8,0.5c0.7,3.3-1.1,6.3,0.3,9.6C1124.9,1165.9,1126.9,1169,1126.5,1172.8z M1141.1,1176.8
			c-4.3-1.5-8.7-2.8-13.1-3.7c0.4-3.2-0.6-6.3-2.1-9.2c-0.6-1.2-1.5-2.3-1.9-3.6c-0.4-1.3-0.3-2.5-0.2-3.8c0.1-1.4,0.2-2.6-0.2-3.8
			c5.5,1.1,10.8,2.7,16,4.8c-1.6,2.1-1.5,5.2-0.7,7.6c0.6,1.8,1.5,3.3,2,5.1C1141.7,1172.5,1141.8,1174.7,1141.1,1176.8z
			 M1149.7,1178.2c0,0.5-0.1,0.9-0.1,1.4c0,0.2,0,0.4-0.1,0.5c-2.2-1-4.5-1.9-6.8-2.8c0.7-2.5,0.6-5.1-0.4-7.7
			c-0.8-1.9-1.9-3.6-2.6-5.6c-0.8-2.4-0.3-4.2,0.5-6.4c2.4,1,4.8,2.2,7,3.4c0.1,3.7,0,6.6,1.5,10.2
			C1149.6,1173.7,1149.8,1175.8,1149.7,1178.2z M1151.1,1180.8c0.1-0.2,0.1-0.4,0.2-0.6c0.4-2,0.3-4.4-0.2-6.3
			c-0.6-2.2-2.1-4-2.8-6.2c-0.6-2-0.8-4.2-0.8-6.3c2,1.1,4,2.3,6,3.6c-0.7,1.8-0.3,5-0.2,6.1c0.6,4.2,2.2,8,2.6,12.1
			C1154.3,1182.3,1152.7,1181.6,1151.1,1180.8z M1159,1184.8c-0.6-0.3-1.2-0.6-1.8-0.9c-0.2-2.9-1.2-5.6-2-8.4
			c-0.5-1.8-1-3.6-1.2-5.4c-0.2-1.2-0.4-3.2,0-4.8c0.5,0.3,1,0.6,1.5,0.9c1.6,3.5,0.9,7.3,2.3,11
			C1159,1180.2,1159.7,1182.4,1159,1184.8z"/>
	</g>
	<path fill="#961819" d="M993.8,1375.8c-0.1-2.2-0.5-4.7-1.6-7.7c-3.4-9.4-11.6-13.1-20.4-16.1c-2.2-0.8-4.5-1.4-6.7-2.2
		c-0.6-0.2-1.2-0.4-1.8-0.6c-7.8-3-17.6-9.8-24.2-15.1c-2.6-2.1-4.8-4-6-5.3c-4.6-4.7-7.7-5.8-16.4-4.2s-28,8.5-49.4,23
		s-31.7,33.6-36.2,41.4s-8.6,22.7-10.6,31.5c-2,8.8-0.2,10.7,1.3,12.6s3,4.6,7.7,12.7s6,14.6,14,19.5c7.9,4.9,13.5,5.9,19.3,2.6
		l-5.4-6.8c0,0-2.2-12.5,17.9-32.8s40.4-32,60.5-41.9s44.1-13.2,46.5-13c2.3,0.2,8.7,11.5,8.7,11.5
		C990.9,1385,994,1382.1,993.8,1375.8z"/>
	<path opacity="0.3" fill="#05132B" enable-background="new    " d="M933.1,1328.9c-4.6-4.7-7.7-5.8-16.4-4.2s-28,8.5-49.4,23
		s-31.7,33.6-36.2,41.4s-8.6,22.7-10.6,31.5c-2,8.8-0.2,10.7,1.3,12.6s3,4.6,7.7,12.7s6,14.6,14,19.5c7.9,4.9,13.5,5.9,19.3,2.6
		l-5.4-6.8c0,0-2.2-12.5,17.9-32.8s40.4-32,60.5-41.9s44.1-13.2,46.5-13c2.3,0.2,8.7,11.5,8.7,11.5c0-0.1,3-2.9,2.8-9.3
		c-1.3,1.4-2.6,2.9-3.8,4.4c-0.2,0.2-0.4,0.5-0.6,0.7c-0.7-2.3-1.7-4.4-3.4-6.2c1.3-2,1.9-4.2,1-6.8c-1.3-4-3.6-8.5-6.9-11.2
		c-2.4-1.9-5.4-3.3-8.2-4.6c-2.2-0.8-4.5-1.4-6.7-2.2c-0.6-0.2-1.2-0.4-1.8-0.6c2.2,1.5,4.6,2.8,7,4.1c4.2,2.2,8.7,3.7,11.6,7.7
		c1.3,1.8,2.8,4.4,3.4,6.6c0.6,2.4,0.1,4.1-0.8,5.7c-0.6-0.5-1.3-0.9-2-1.3c-2.5-1.3-5.2-1.8-8.1-1.9c4-11.6-14.6-14.5-21.9-17
		c-7.5-2.6-13.7-7.3-18.9-13.1c-2.9-3.2-5.1-6.8-7.5-10.4c4.4,1.2,8.7,2.8,13.1,4.4C936.5,1332,934.4,1330.2,933.1,1328.9z
		 M856.9,1437.1c-6.3,0.5-7.8-7.9-9-12.7c-2.6-10.4-7.3-19.1-12.6-28c0-0.2,0.1-0.3,0.2-0.5c0.9-2.8,2-5.4,3.3-8.1
		c9.8,14.9,12.8,35.7,27.7,46C863.6,1435.7,860.3,1436.8,856.9,1437.1z M875.5,1424.2c-2.7,2.7-5.3,5.4-7.8,8.3
		c-15.5-9.8-16.9-32.1-28.4-45.9c1.3-2.7,2.8-5.4,4.5-7.9c2.4-3.7,5-7.2,7.9-10.5c3.5,4,6.3,9,8.9,13.6c3.5,6.2,6.3,12.7,8.7,19.4
		c2.7,7.6,5.9,13.7,11.8,17.8C879.2,1420.6,877.3,1422.4,875.5,1424.2z M882.4,1417.7c-4.2-2.4-7.3-5.8-9.4-11
		c-2-4.7-3.4-9.7-5.4-14.4c-3.8-8.8-8.4-18-15.2-25c5.4-6.2,11.6-11.8,17.8-17.1c0.6-0.5,1.2-1,1.8-1.5c1.7,1.6,3.6,3,5.1,4.8
		c2.1,2.6,3.8,5.5,5.3,8.5c3.3,6.7,5.3,14,8.1,20.9c2.4,5.7,6.5,14,12.5,17.9C895.9,1406.1,889,1411.7,882.4,1417.7z M936.5,1380.9
		c-7.5,3.4-14.6,7.4-21.5,11.8c-3.3,2.1-6.7,4.4-9.9,6.7c-10.1-6-13.6-19-17.5-29.7c-2.5-6.9-6.8-18.2-14.2-22.1
		c7.1-5.8,14.5-11.3,23-14.9c7.6,5.6,11.7,15.9,17.5,23.1c3.1,3.9,6.8,7.2,10.8,10.2c2.3,1.7,4.7,3.3,7,5c2,1.5,5.3,4.9,5.4,7.5
		C937.2,1379.3,936.9,1380.1,936.5,1380.9z M940,1348.5c4.4,3.3,9.1,5.5,14.3,6.9c7.1,1.9,20.5,4.4,17.7,14.8c-4,0.3-8,1.3-11.6,2.2
		c-7,1.8-13.9,4.2-20.6,7c0.5-2.2,0-4.6-2-6.5c-2.5-2.3-6-3.9-8.8-5.9c-3.4-2.5-6.8-5.2-9.7-8.1c-5.8-5.7-9.8-12.7-14.3-19.3
		c-1.9-2.8-4-5.6-6.6-7.8c1.7-0.6,3.3-1.2,5.1-1.7c4.5-1.3,9.2-2,13.8-2.2c2,0.2,3.9,0.6,5.8,1
		C927.2,1336.5,933.7,1343.7,940,1348.5z"/>
	<path fill="#961819" d="M1496.5,1167.1c0,0-12.2,16.4-24,20.4s-35.3,4.8-63.5-6.6s-39.8-29.5-46.5-46.8s-4.5-48.5-4.5-48.5
		s-0.4,0-1.2,0.1c-0.7,0.1-1.7,0.2-2.8,0.6c-0.4,0.1-0.9,0.3-1.4,0.5c-2.3,0.9-5.2,2.5-8.3,5.3c-0.7,0.6-1.2,1.1-1.8,1.7
		c-0.8,0.8-1.5,1.6-2.1,2.4c-0.4,0.3-0.8,0.6-1.2,1c-0.3,0.3-0.5,0.6-0.7,0.8c0.1,0.5,0.2,0.9,0.3,1.4c-0.9,3.1-0.2,6.4,0.5,12.5
		c1.1,10.6,0.9,13.7-1.1,29.8c-2.1,16.1-2.4,25.8,8.1,46.1s34,43.3,69.6,45.3s47.2-10.4,47.2-10.4c4.3-7,9.4-12,18.2-14.8
		s17.2-10.6,18.4-22.6C1500.6,1173.1,1496.4,1167.3,1496.5,1167.1z"/>
	<path opacity="0.3" fill="#05132B" enable-background="new    " d="M1344.3,1094.3c2.8-1.2,5-1,7.8-0.1c1.3,0.4,2.3,1.1,3.1,1.9
		c-0.4,2.3-0.8,4.6-1.1,6.8c-1.2-0.2-2.3-0.1-3.4,0.4c-2.9,1.3-4.3,5-5.8,7.6c-0.8,1.4-1.8,2.8-2.3,4.4c-0.5,1.9-0.2,3.9-0.1,5.8
		c0.1,1.5,0.1,3,0.1,4.5c-0.1-0.3-0.2-0.7-0.2-1c-1.5-7.1-2.4-14.2-3.1-21.4c-0.1-1.4-0.4-2.7-0.6-4c-0.9,3.1-0.2,6.4,0.5,12.5
		c1.1,10.6,0.9,13.7-1.1,29.8c-2.1,16.1-2.4,25.8,8.1,46.1s34,43.3,69.6,45.3s47.2-10.4,47.2-10.4c4.3-7,9.4-12,18.2-14.8
		s17.2-10.6,18.4-22.6c1.2-12.1-3-17.8-2.9-18c0,0-12.2,16.4-24,20.4s-35.3,4.8-63.5-6.6s-39.8-29.5-46.5-46.8s-4.5-48.5-4.5-48.5
		s-0.4,0-1.2,0.1c-0.1,0.8-0.2,1.6-0.3,2.4c-0.4-0.3-0.8-0.6-1.2-0.9c-0.4-0.3-0.9-0.6-1.4-0.9c-0.4,0.1-0.9,0.3-1.4,0.5
		c0.8,0.4,1.6,0.9,2.3,1.5c0.5,0.4,1,1,1.4,1.5c-0.2,1.6-0.4,3.1-0.7,4.7c-0.5-0.4-1.1-0.7-1.7-0.9c-2.3-0.9-5.5-1.6-7.9-1
		c-1.1,0.3-2.3,0.7-3.5,1.1c-0.8,0.8-1.5,1.6-2.1,2.4C1341.6,1095.3,1342.9,1094.9,1344.3,1094.3z M1433.2,1190.7
		c1.9,0.4,4.6,0.6,6.6,1.7c-0.2,2.7-0.4,5.4-0.6,8.1c-0.2,1.8,0.1,2.8-1,3.9c-1,1-3.4,1.5-4.6,2.2c-6.3,4-5.5,10.1-8,16.2
		c-2.6,6.3-11,6.6-16.7,5.7c-0.6-0.1-1.3-0.2-1.9-0.3c2.9-2.6,4.3-6.3,5.9-9.8c0.8-1.8,1.6-3.7,2.7-5.3c1.5-2.1,3.6-3.5,5.6-5.1
		c3-2.6,6.4-5.9,7.8-9.7c1.2-3.1,0.1-6-1.5-8.7C1429.4,1190,1431.3,1190.3,1433.2,1190.7z M1402.7,1180.6c6.5,3.4,13,6.6,20.2,8.2
		c0.8,0.2,1.6,0.3,2.4,0.5c1.3,1.6,2.5,3.4,2.9,5.4c0.5,2.5-0.6,4.6-2,6.6c-2.6,3.6-6.1,5.9-9.4,8.7c-5.5,4.7-5.5,12.8-10.7,17.5
		c-0.2,0.2-0.2,0.4-0.2,0.5c-11.5-2.3-23.5-7.1-33.5-13.7c1.2-2.8,2.6-5.4,4.2-8c2.2-3.5,3.7-7,4.4-11.1c1.5-7.7,2.3-18.6,11.5-20.2
		C1395.8,1176.9,1399.2,1178.8,1402.7,1180.6z M1370.6,1156.1c5.5,7.5,12.6,13.1,20.3,17.8c-6.7,1.6-9.3,10.6-10.3,16.6
		c-0.8,5.1-1.8,9.8-4.5,14.3c-1.7,2.8-3.5,5.7-4.7,8.7c-2.1-1.4-4.1-2.9-5.9-4.5c-5-4.2-8.5-9.2-11.7-14.7c3.7-6,6-12.9,7-19.8
		c0.6-4.6,0.2-9.3,1.1-13.8c0.8-3.6,3.2-7,6.6-7.9C1369.1,1153.9,1369.8,1155,1370.6,1156.1z M1356.8,1127.1
		c1.2,3.4,2.5,6.8,3.8,10.1c2,5,4.2,10,7,14.6c-1.8,0.5-3.4,1.7-4.6,3.1c-2.8,3.3-3.2,7.7-3.3,11.8c-0.2,5.2-0.5,10.2-1.9,15.2
		c-1.1,4.1-2.8,7.9-4.7,11.6c-0.4-0.7-0.8-1.4-1.2-2.2c-3.8-6.9-7.8-13.9-10.2-21.4c-0.4-1.4-0.8-2.8-1.1-4.2
		c0.3-0.4,0.6-0.6,1.1-0.7c1.6-0.1,2.7,0.8,3.8,1.8c1,1.8,2.1,3.7,3.2,5.5c2.8,4.8,9.6,0.6,7.3-4.3c-3.8-8.2-6.9-16.9-9.4-25.8
		c0.5-3.5,1.3-6.9,3-10.2c1.3-2.5,2.8-4.2,5.6-4.8C1355.8,1127.2,1356.3,1127.1,1356.8,1127.1z M1356.3,1125.5
		c-2.3,0.4-4.5,1.4-5.7,2.9c-2.4,2.9-4,7.2-4.6,11.3c-0.9-3.4-1.8-6.8-2.6-10.2c0.2-1.3,0.3-2.6,0.4-3.9c0.1-1.5,0.1-3.1,0.1-4.6
		c-0.1-1.9-0.5-4,0.1-5.8c0.8-2.8,2.9-5.8,4.5-8.3c1.6-2.5,3.5-3.1,5.5-2.8c-0.5,4-0.6,8,0.1,12.2
		C1354.6,1119.5,1355.4,1122.5,1356.3,1125.5z"/>
</g>
</svg>
