<?xml version="1.0" encoding="utf-8"?>
<!-- Generator: Adobe Illustrator 23.0.1, SVG Export Plug-In . SVG Version: 6.00 Build 0)  -->
<svg version="1.1" id="_x33_8_x5F_Top_x5F_NewTshirt"
	 xmlns="http://www.w3.org/2000/svg" xmlns:xlink="http://www.w3.org/1999/xlink" x="0px" y="0px" viewBox="0 0 2000 2000"
	 enable-background="new 0 0 2000 2000" xml:space="preserve">
<g>
	<path fill="#403F3A" d="M1165.4,1051.6c-0.1-0.4-0.1-0.6-0.1-0.6s-19.8-17-35.7-31.6c-2.8-2.5-5.4-5-7.8-7.3
		c-4.9-4.7-9.1-8.6-12.9-12.1c-8.7-8-15.4-13.5-23.6-20.6c-11.8-10.2-19.6-15.4-21.1-16.1c-1.5-0.7-4.2,2.4-8.9,5.9
		c-4.8,3.5-16.5,9.2-33.1,8s-26.9-7.3-32-9.6c-5.2-2.3-5-2.2-14.2,4.2s-28.7,18-44.4,29.6s-19.8,11.5-32.4,23.5
		c-12.6,11.9-22,21.7-23.5,22.8c-0.1,0.1-0.2,0.2-0.2,0.3c-1.1,1.7,0.8,8.5,0.8,8.5l7.4-4.8c0,0,0.4-0.4,2.9,0.6
		c2.1,0.9,5,2.3,8.5,4.5c2.1,1.3,4.3,2.9,6.8,4.8c5.4,4.2,10.7,10.8,14.8,16.7c4.7,6.7,7.8,12.4,7.8,12.4l-1,2.4l-4.5,6.6
		c0,0,4.1,2.8,6.5,3.6c0.3,0.1,0.8-0.1,1.4-0.5c4-2.8,14-16.3,20.2-22.1c1.2-1.1,2.3-2.1,3.4-2.9c5-4,7.8-4.8,7.8-4.8
		s-0.5,3.3-1.3,8c-0.8,4.3-1.8,9.7-3,14.8c-10.8,47.3-17.5,81.5-17.5,81.5c0,0.3,0.1,0.6,0.3,0.9c1.1,1.2,4.4,2.1,4.4,2.1
		s-0.2-3,17.9-9.9c2.1-0.8,4.4-1.7,7-2.6c9.5-2.7,19.1-5.5,28.8-7.6c15-3.3,29.9-6.7,45-9.4c30.8-5.5,61.3-4,91.6,3.8
		c0.3,0.1,0.6-0.1,0.8-0.3c1.3,0.5,2.6,1,3.7,1.4c5.1,2.1,7.2,3.7,7.2,3.7l0.8,4c0,0,2.7-1.3,4.3-2.7c0.2-0.1,0.3-0.4,0.3-0.9
		c0.1-3.5-4.9-15.9-8.4-27.6c-0.1-0.4-0.3-0.8-0.4-1.3c-1-3.2-2.2-7.1-3.6-11.4c-1.9-6.1-4-12.7-5.8-18.4
		c-2.5-7.8-4.4-13.7-4.4-13.7s3.5-4.1,8-8.9c4.2-4.5,9.2-9.7,13.2-12.8c8.2-6.4,6.5-6.5,10.9-2.5c0,0,4.4-4.5,6.1-7.3
		c0.4-0.6,0.7-1.1,0.9-1.5C1165.4,1053.3,1165.4,1052.2,1165.4,1051.6z"/>
	<path opacity="0.3" fill="#05132B" enable-background="new    " d="M1157.9,1048.5c0,0-7.8,4.1-15.9,10.4s-11.2,13.2-7.9,10.2
		s21.6-16.3,25-17.5c3.3-1.2,3.3,1.4,4.7,4.6c0.4-0.6,0.7-1.1,0.9-1.5c0.7-1.4,0.7-2.5,0.7-3.1c-0.1-0.4-0.1-0.6-0.1-0.6
		s-19.8-17-35.7-31.6c2.7,4,5.9,8.1,9.3,11.4C1148.2,1040.2,1157.9,1048.5,1157.9,1048.5z"/>
	<path opacity="0.3" fill="#05132B" enable-background="new    " d="M1125.6,1087.7c0,0,3.5-4.1,8-8.9c-0.1-0.1-0.2-0.2-0.3-0.3
		c-4.7-6.3-18.8-22.1-22.1-26.8s-2.4-6.1-4.1-15.1s-4-8.7-3.1,0.2c0.9,8.8,1.9,11.2,1.9,11.2s-3.9-5.5-8.3-11.4
		c-4.4-6-2.9-1.1-0.3,3.1c2.6,4.2,4,5.5,4,5.5s-6.9-5.5-9.1-5.5s0.3,1.3,7.1,6.5c6.8,5.3,5.7,6.2,5.7,6.2s0.3,0.8,1.1,4.7
		c0.7,3.9,6,12,12.4,28.2c6.1,15.4,10.3,22,17.4,34.6c-1.9-6.1-4-12.7-5.8-18.4C1127.5,1093.7,1125.6,1087.7,1125.6,1087.7z"/>
	<path opacity="0.3" fill="#05132B" enable-background="new    " d="M1035.6,1140.1c-39.3,4.2-67.5,15.2-67.5,15.2
		c-4.7-16.7-4-54.8-4.9-67.5s0.1-23.9,5.1-34.9s5.9-13.4,4.3-11.2s-5.6,8.6-5.6,8.6s3.6-11.3,3-14.8s-1.8,2.2-4,8.6
		c-2.2,6.4-6.4,9.8-6.4,9.8c3.1-11.1,2.7-15,0-10.4s-3.6,13.1-6.7,18.7s-7.3,8-13.3,13.1s-7,10.9-8.9,7.7s-15.3-19.5-22.1-26.1
		c-6.8-6.6-16.5-8.7-15.3-10c1.2-1.3,9.5-9.4,35-25.5s39.8-22.9,52.7-28.7c13-5.7,9.9-5.6,30.4-6.7s32.9-1.1,42.3-4.2
		c9.4-3.1,15.6-1.8,27.1,1.4c10.1,2.8,11.1,5.1,28.2,16.9c-8.7-8-15.4-13.5-23.6-20.6c-11.8-10.2-19.6-15.4-21.1-16.1
		c-1.5-0.7-4.2,2.4-8.9,5.9c-4.8,3.5-16.5,9.2-33.1,8s-26.9-7.3-32-9.6c-5.2-2.3-5-2.2-14.2,4.2s-28.7,18-44.4,29.6
		s-19.8,11.5-32.4,23.5c-12.6,11.9-22,21.7-23.5,22.8c-0.1,0.1-0.2,0.2-0.2,0.3c-1.1,1.7,0.6,8.5,0.6,8.5l7.4-4.8
		c0,0,0.7-0.4,3.2,0.6c1.2-0.9,4.4-2.9,7.3-1.4c3.6,1.9,9.1,5,17.1,11.1c8,6.1,16,21.2,16.6,23.5c0.5,2.1-0.2,7.4-4.7,7.4l-4.5,6.6
		c0,0,4.7,2.9,7.1,3.7c0.3,0.1,0.8-0.1,1.4-0.5c4-2.8,14-16.3,20.2-22.1c1.2-1.1,2.3-2.1,3.4-2.9c5-4,7.8-4.8,7.8-4.8
		s-0.5,3.3-1.3,8c-0.8,4.3-1.8,9.7-3,14.8c-10.8,47.3-17.5,81.5-17.5,81.5c0,0.3,0.1,0.6,0.3,0.9c1.1,1.2,4.4,2.1,4.4,2.1
		s-0.2-3,17.9-9.9c2.1-0.8,4.4-1.7,7-2.6c-5.2,1.5-10.5,3-15.7,4.4c-0.7,0.2-1-0.8-0.3-1.1c14.9-5.6,30.6-9.6,46-13.9
		c15.3-4.3,31-7.8,46.6-10.4c5.4-0.9,10.8-1.6,16.2-2.1c-2,0.2-4,0.3-6,0.6c-14.3,1.6-28.6,3.3-42.8,6.1c-6.7,1.3-13.4,2.8-20,4.5
		c-6,1.5-12,3.7-18.2,4.2c-0.4,0-0.5-0.5-0.2-0.7c5.8-3.6,12.8-5.3,19.4-7.1c6.9-1.9,13.8-3.6,20.8-5c13.5-2.7,27.3-4.7,41-5
		c27.8-0.6,56.5-2.1,82.8,8.3c0.2,0.1,0.1,0.4-0.1,0.3c-12.9-4.6-27.5-5.4-41.1-6c12.6,1.3,25.1,4,37.3,8.5c0.5,0.2,0.6,0.8,0.4,1.1
		c1.3,0.5,2.6,1,3.7,1.4c5.1,2.1,7.7,3.7,7.7,3.7l0.5,3.2c0,0,2.5-0.5,4.1-1.8c0.2-0.1,0.3-0.4,0.3-0.9c0.1-3.5-4.9-15.9-8.4-27.6
		c-0.1-0.4-0.3-0.8-0.4-1.3c-0.1,8.1-0.9,17.2-0.9,17.2C1116.8,1138.5,1074.9,1135.9,1035.6,1140.1z"/>
	<path fill="#80756B" d="M1033.7,1088.9c-0.6,6.3,0,9.9-0.6,11.6c-0.6,1.7-4.4,1.7-8.6-0.5c-4.2-2.2-19.1-7.8-25.4-23.1
		s-4.8-32.6-3.4-37.8s8.3-22.7,27.4-30.4c19.1-7.7,43.2-1.4,52.3,12.9s14.3,26.3,10.7,42.9c-3.6,16.6-17.6,28.6-23.4,31.7
		s-5.8,0.8-6.3-5.1c-0.5-5.9,0.4-11-0.6-14.4s-1.8-3.5-2.7-4.6c-0.8-1.1-1.4-1.7-0.5-2.5c0.8-0.7,7,0.7,13.7-6.7
		c6.7-7.4,4.9-19.5,3.6-22.8c-1.3-3.3-5.9-8.1-5.9-8.1s1-3.5,0.1-7.8s-1.8-4.5-6.3-2.2c-4.5,2.3-6.9,4.5-6.9,4.5s-4.6-1.4-10.9-0.8
		c-6.3,0.6-12.9,3.3-12.9,3.3s-6.8-2.7-10.2-3c-3.4-0.3-2.8-0.3-3.4,4.3c-0.6,4.6,1.5,7.2,1.5,7.2s-2.1,3.2-3.5,8.1
		c-1.4,4.9-1.2,16,5.9,21.2c7.1,5.2,9.4,4.1,13,4.7c3.6,0.6,4.6,0.8,4.5,1.6s-1.5,1.4-2,3.5c-0.5,2.1-0.1,3.5-1.3,4.8
		c-1.2,1.3-4.8,3.2-8,1.8c-3.2-1.4-5-6.7-9.3-8s-7.5-0.1-4.4,1.4s5.2,3.4,6.4,6.5c1.2,3.1,2.5,6.8,8.3,7.1
		C1030.4,1090.4,1033.7,1088.9,1033.7,1088.9z"/>
	<path opacity="0.3" fill="#05132B" enable-background="new    " d="M875.3,1049.3c-1.1,1.7-0.1,7.7-0.1,7.7l7.4-4.8
		c0,0,4.8,1.1,12.4,5.9h0C886,1051.3,879.8,1048.5,875.3,1049.3z"/>
	<path opacity="0.3" fill="#05132B" enable-background="new    " d="M916.5,1079.6L916.5,1079.6c4.7,6.7,7.8,12.4,7.8,12.4l-6.1,8.8
		c0,0,4.7,2.9,7.1,3.7c0.3,0.1,0.8-0.1,1.4-0.5C928.3,1093.5,924.3,1089.1,916.5,1079.6z"/>
	<path opacity="0.3" fill="#05132B" enable-background="new    " d="M965.2,1053.5c-1.4,0.9-3.2,7.1-4.7,11.8s-4.8,6.4-10.4,13.8
		l0,0c5-4,7.8-4.8,7.8-4.8s-0.5,3.3-1.3,8c3.6-7.6,7-18.6,8.6-22.9C967,1054.4,966.6,1052.6,965.2,1053.5z"/>
	<path opacity="0.3" fill="#05132B" enable-background="new    " d="M938.1,1177.7c-0.5,0.3-0.8,0.6-1.1,0.9
		c1.1,1.2,4.4,2.1,4.4,2.1s-0.2-3,17.9-9.9l0,0C946.6,1174,940.3,1176.2,938.1,1177.7z"/>
	<path opacity="0.3" fill="#05132B" enable-background="new    " d="M1134.9,1156.9c5.1,2.1,7.7,3.7,7.7,3.7l0.5,3.2
		c0,0,2.5-0.5,4.1-1.8c0.2-0.1,0.3-0.4,0.3-0.9C1146.1,1159.9,1141.8,1158.9,1134.9,1156.9L1134.9,1156.9z"/>
	<path opacity="0.3" fill="#05132B" enable-background="new    " d="M1146.8,1067.3c8.2-6.4,7.2-8,11.7-4.1c0,0,5.1-5,6.2-7.3
		c0.7-1.4,0.7-2.5,0.7-3.1c-0.9,0.1-2.5,0.9-4.4,2.1c-4.3,2.7-10.1,6.1-19.6,14.1s-14,13.9-14,13.9s-3.4-5.5-8.6-14.3
		s-10.3-15.8-12-16.2c-1.7-0.4,0.1,1.9,4.7,11.4c4.6,9.4,8.5,17.7,18.6,38.9l0,0c-2.5-7.8-4.4-13.7-4.4-13.7
		S1138.6,1073.7,1146.8,1067.3z"/>
</g>
</svg>
