<?xml version="1.0" encoding="utf-8"?>
<!-- Generator: Adobe Illustrator 23.0.3, SVG Export Plug-In . SVG Version: 6.00 Build 0)  -->
<svg version="1.1" id="Layer_1" xmlns="http://www.w3.org/2000/svg" xmlns:xlink="http://www.w3.org/1999/xlink" x="0px" y="0px"
	 viewBox="0 0 2000 2000" enable-background="new 0 0 2000 2000" xml:space="preserve">
<g>
	<path fill="#282828" class="main-body-fill" d="M1583.6,1149.1c0,0-3,0.8-9,1.4c-5.7,0.6-13.9,0.9-24.8,0.2c-22.2-1.5-38.6-10.1-38.6-10.1s-1.1,3-8.5,15.1
		c0,0-10.3,8.6-27.8,7.7c-15.6-0.8-32.9-4.8-44-9.4c-1.4-0.6-2.7-1.2-3.9-1.8c-10.5-5.2-32.9-15.6-49.4-34.4s-19.3-23.3-18.5-37.5
		c0.2-3.8,0.6-7.7,1.1-11.5c1.5-10.5,4.2-19.9,7.9-21.9c2.6-1.4,74.6-10.6,145.8-15.5l-1.7,38.5c11.9,4.1,21.7,11,29.3,18.3
		c11.2,10.7,18.1,22.3,21,27.4c4.9,8.5,6.5,12.2,6.5,12.2C1578.7,1145.2,1583.6,1149.1,1583.6,1149.1z"/>
	<path fill="#494949" class="secondary-body-fill" d="M1657.4,1119.2c-9.3,25.3-24.9,45.9-44,46c-6.3,0-11.8-1.8-16.2-4.1c-8.8-4.8-13.6-12-13.6-12
		s-5-4-14.6-21.3c0,0-1.6-3.7-6.5-12.2c-2-3.4-5.7-9.8-11.4-16.9c-2.7-3.4-5.9-7-9.6-10.4c-7.7-7.3-17.4-14.2-29.3-18.3l1.7-38.5
		c66.4-4.6,132.1-5.5,140.1,7.3c3.1,5,5.5,10.1,7.3,15.2C1668.9,1075.9,1664.9,1098.7,1657.4,1119.2z"/>
	<path opacity="0.3" fill="#091426" enable-background="new    " d="M1513.9,1031.5l-1.7,38.5c11.9,4.1,21.7,11,29.3,18.3
		c3.6,3.5,6.8,7,9.6,10.4c11.6-13.6,31.3-21,48.3-27.7c15.5-6.1,46.2-15.5,61.9-17.1c-1.8-5.1-4.2-10.2-7.3-15.2
		C1646,1026,1580.3,1026.9,1513.9,1031.5z"/>
	<path opacity="0.3" fill="#091426" enable-background="new    " d="M1583.6,1149.1c0,0-3,0.8-9,1.4c-5.7,0.6-13.9,0.9-24.8,0.2
		c-22.2-1.5-38.6-10.1-38.6-10.1s-1.1,3-8.5,15.1c0,0-10.3,8.6-27.8,7.7c-15.6-0.8-32.9-4.8-44-9.4l6.8-18.7c0,0-28-12.4-45.2-28.5
		c-13.8-13-24.4-23.2-32.2-38c1.5-10.5,4.2-19.9,7.9-21.9c2.6-1.4,74.6-10.6,145.8-15.5l-1.7,38.5c11.9,4.1,21.7,11,29.3,18.3
		c-2.6,0.3-6.1,0.8-10,1.5c-8.6,1.5-19.7,3.9-29.7,7.7c-20.5,7.7-22,12.8-22,12.8s19.7,15.4,52,18.8s37.2-1.3,37.2-1.3
		C1578.7,1145.2,1583.6,1149.1,1583.6,1149.1z"/>
	<path fill="#888888" d="M1220.7,953.5c0.8,6,1.7,10.2,2,12.5c0.3,2.4,13.2,14.2,34.7,29c21.4,14.8,49.5,28.2,67.5,37
		c18,8.8,53.9,26.3,77.8,36.7c23.9,10.3,81.8,25.4,86.2,26.5c4.4,1.1,43.2-10.8,56.8-14.8c13.6-4,101.7-38.6,117.7-45
		s48.5-20.3,51.8-22.8c3.3-2.6,3.1-3.6,2.2-14.7c0,0,10.9-2.7,16.5-17s33.6-92.3,41.3-113.3s34.8-90.2,38.7-100.7
		c3.8-10.5,7.3-13.3,6.7-21.3s-2.5-10.5-9.8-13.3s-16.9-5.8-21-6.3s-23.2,5.8-49.3,13c-26.2,7.2-152.2,39.6-161.5,42.5
		c-9.2,2.9-14.7,12.4-17.7,20.5s-11.5,52.3-18.8,84.7c-7.3,32.3-7.5,39.5-7.5,39.5s-25.1-6.8-41.3-11.5s-21-5.7-25.2-6.7
		s-13.9,3.3-49.8,11.7s-81.6,15.4-116.5,19.8c-34.9,4.4-64.1,8.2-72.3,9.3C1221.4,949.8,1220.4,951.2,1220.7,953.5z"/>
	<path fill="#585656" d="M1524.7,958.9c-1,0.2-2.1,0.5-3.1,0.7c-2.3-1.2-4.6-2.2-6.9-3.2c-3.6-1.5-7-3.5-10.5-5.1
		c2.9-0.9,5.9-1.9,8.8-2.9c1.2-0.4,0.7-2.2-0.5-1.9c-13.4,3.3-26.6,7.6-39.8,11.4c-13.6,3.9-27.2,7.8-40.8,11.6
		c-13.3,3.8-26.6,7.6-40,10.9c-13.6,3.4-27.7,6.3-41,10.7c-0.2,0.1-0.4,0.2-0.5,0.3c-0.5,0.2-0.8,1.2-0.1,1.6
		c19.1,10.5,41.2,14.8,61.7,21.7c22,7.3,43.9,15,65.6,23.1c0.1,0,0.1,0,0.2,0c0.2,0.3,0.6,0.4,1,0.2c10.8-5.7,20.8-12.7,31.8-18
		c0.9-0.5,0.1-1.9-0.8-1.4c-10.6,5.2-21.9,10.5-31.3,17.8c-0.1-0.1-0.2-0.2-0.4-0.3c-11-4-22-7.9-33.1-11.8c5.5-2,10.9-4.4,16.4-6.3
		c5.9,2.4,11.8,4.7,17.7,7c1.2,0.5,1.7-1.5,0.5-1.9c-5.1-2-10.3-4-15.4-6c5-1.7,10-3.4,15-5c7.4-2.5,14.9-5.1,22.3-7.6
		c4,1.1,8.1,2.3,12.1,3.4c1.1,0.3,1.6-1.5,0.5-1.7c-3.3-0.8-6.7-1.7-10-2.6c3.8-1.3,7.5-2.6,11.3-3.9c1.1-0.4,0.6-2.2-0.5-1.8
		c-4.6,1.6-9.3,3.2-13.9,4.8c-9.1-2.5-18.1-5.1-27.2-7.8c10.7-3.8,21.5-7.9,32.4-11.2c3.8,1.8,7.7,3.6,11.5,5.4
		c1.2,0.6,1.9-1.2,0.7-1.7c-3.4-1.4-6.7-2.8-10-4.4c3.9-1.2,7.8-2.2,11.8-3.1c1.4-0.3,0.8-2.6-0.6-2.2c-4.7,1.2-9.3,2.5-13.9,4
		c-4.5-2.2-8.9-4.5-13.3-6.8c-2.7-1.5-5.7-2.9-8.7-4.5c12.9-3,25.8-5.9,38.7-8.6c0.6,0.3,1.2,0.7,1.8,1c1,0.6,1.9-0.9,0.9-1.5h-0.1
		c0.2,0,0.4-0.1,0.6-0.1C1526.9,960.9,1526.2,958.6,1524.7,958.9z M1432.4,971.7c11.7-3.2,23.4-6.5,35.1-9.8c0,0.2,0.1,0.5,0.3,0.7
		c3.1,2.7,6.8,5,10.6,7.1c-10.3,2.6-20.6,5.2-30.9,8c-5.4,1.4-10.8,2.9-16.3,4.3c-5.1-1.7-10.1-3.3-15.3-4.5
		c-1.1-0.2-1.4,1.2-0.4,1.6c3.7,1.5,7.5,2.9,11.3,4.2c-5.6,1.5-11.2,3-16.7,4.6c-3.4,1-6.8,1.9-10.3,2.9c-4.3-1.8-8.6-3.6-12.9-5.2
		c-0.7-0.3-1.2,0.9-0.5,1.2c3.5,1.7,7,3.3,10.6,4.9c-8.7,2.5-17.4,5-25.8,8.2c-0.1,0.1-0.2,0.1-0.3,0.2c-5.7-2.2-11.2-4.7-16.9-7.1
		c12.6-2.6,25.2-6.5,37.5-10.1C1405,978.9,1418.7,975.4,1432.4,971.7z M1430.1,984.3c11.3,3.6,22.9,6.6,34.2,9.9
		c1.1,0.3,2.1,0.6,3.2,0.9c-0.3,0.1-0.6,0.2-0.9,0.3c-8.9,3-17.8,6.1-26.7,9.3c-1.3,0.5-2.6,0.9-4,1.4c-1-0.4-1.9-0.8-2.9-1.1
		c-10-4-19.9-8.4-29.8-12.7c2.2-0.7,4.3-1.3,6.5-2C1416.5,988.2,1423.3,986.2,1430.1,984.3z M1382.1,1003.8
		c-2.8-0.8-5.6-1.7-8.3-2.7c8.9-2.4,17.8-5.3,26.6-8c10.4,4.5,20.9,8.6,31.3,12.9c0.6,0.3,1.3,0.5,1.9,0.8c-2.1,0.7-4.2,1.5-6.3,2.3
		c-4,1.7-7.7,4.2-12,5.1c0,0,0,0-0.1,0c-0.7-0.2-1.3-0.5-2-0.7C1402.9,1010.1,1392.6,1006.7,1382.1,1003.8z M1442.2,1023.6
		c-8.1-2.8-16.2-5.6-24.3-8.4c3.4-1.2,6.5-3.1,9.8-4.4c2.8-1.1,5.5-2,8.3-3c7.7,3.2,15.4,6.4,23.1,9.5
		C1453.4,1019.2,1447.7,1021.2,1442.2,1023.6z M1498.3,1003.7c-6.9,2.4-13.7,4.8-20.5,7.3c-5.2,1.9-10.5,3.6-15.8,5.4
		c-7.9-3.1-15.7-6.2-23.5-9.3c0.6-0.2,1.3-0.4,1.9-0.6c8.9-3,17.9-6,26.8-9.1c1.2-0.4,2.5-0.9,3.7-1.3
		C1480,998.6,1489.1,1001.1,1498.3,1003.7z M1490.6,976c4.2,2.3,8.5,4.4,12.8,6.4c-11.1,3.6-22,7.7-32.9,11.5
		c-1.9-0.6-3.8-1.1-5.7-1.7c-8.2-2.4-16.3-4.9-24.5-7.4c-2-0.6-3.9-1.2-5.9-1.9c4.5-1.3,9-2.5,13.5-3.7c11-2.9,22-5.6,33.1-8.2
		C1484.3,972.8,1487.5,974.4,1490.6,976z M1480.9,969.1c-4.2-2.3-8.2-4.8-11.5-7.7c1-0.3,2-0.5,2.9-0.8c10.2-2.9,20.5-5.6,30.6-8.8
		c0,0.1,0,0.1,0.1,0.2c3.7,4.3,10.1,6,15.7,8.3C1506,963.1,1493.4,966,1480.9,969.1z"/>
	<path fill="#BFBFBF" d="M1467.7,1027c-0.4,0-0.9-0.1-1.3-0.1c-1.6-0.1-3.3-0.5-4.8,0.2c-0.2,0.1-0.2,0.3-0.1,0.4
		c1.3,1.2,3.3,1.2,5,1.4c0.8,0.1,1.6,0.2,2.4,0.3c-0.3-0.5-0.6-1.1-0.9-1.6C1467.9,1027.5,1467.8,1027.2,1467.7,1027z"/>
	<g>
		<defs>
			<path id="SVGID_1_" d="M1220.7,953.5c0.8,6,1.7,10.2,2,12.5c0.3,2.4,13.2,14.2,34.7,29c21.4,14.8,49.5,28.2,67.5,37
				c18,8.8,53.9,26.3,77.8,36.7c23.9,10.3,81.8,25.4,86.2,26.5c4.4,1.1,43.2-10.8,56.8-14.8c13.6-4,101.7-38.6,117.7-45
				s48.5-20.3,51.8-22.8c3.3-2.6,3.1-3.6,2.2-14.7c0,0,10.9-2.7,16.5-17s33.6-92.3,41.3-113.3s34.8-90.2,38.7-100.7
				c3.8-10.5,7.3-13.3,6.7-21.3s-2.5-10.5-9.8-13.3s-16.9-5.8-21-6.3s-23.2,5.8-49.3,13c-26.2,7.2-152.2,39.6-161.5,42.5
				c-9.2,2.9-14.7,12.4-17.7,20.5s-11.5,52.3-18.8,84.7c-7.3,32.3-7.5,39.5-7.5,39.5s-25.1-6.8-41.3-11.5s-21-5.7-25.2-6.7
				s-13.9,3.3-49.8,11.7s-81.6,15.4-116.5,19.8c-34.9,4.4-64.1,8.2-72.3,9.3C1221.4,949.8,1220.4,951.2,1220.7,953.5z"/>
		</defs>
		<clipPath id="SVGID_2_">
			<use xlink:href="#SVGID_1_"  overflow="visible"/>
		</clipPath>
		<path clip-path="url(#SVGID_2_)" fill="#62656A" d="M1724,1010.5c-30.1,8.6-98.4,31.2-128.2,41.8s-111.5,46-111.5,46l-212-61.5
			l-56.8-73.2l7.2-21.8c0,0,1.5,13,2.8,19.8s0.5,6.9,15.2,16.2s94.5,55.5,121.5,67s96.8,39.2,107.5,42s11,3.4,16.8-1
			s10.2-6.5,10.2-6.5s-16.9-25.5-32.5-53.5s-29.2-53-30.8-57.5s-0.4-6.9,21-16.2s80.3-26,80.3-26s-13.2,60-18.1,82.2
			c-4.9,22.2-14.6,65.1-15,66.8s3.8,3.9,6.5-7.2s20.1-64.1,23.8-83.5s15.9-82,24.2-114.5s13.6-42.8,14.8-45.2s1.1,1.9-3.2,15
			s-13.8,55.6-20,84.8s-15.1,70.2-19.8,90c-4.7,19.8-12.1,41.5-12.8,46.5s2.9,8.5,12.5,6s50.5-22.5,83.8-35.5s128.2-38.8,129.2-62
			l12.2,10L1724,1010.5z"/>
	</g>
	<g>
		<defs>
			<path id="SVGID_3_" d="M1220.7,953.5c0.8,6,1.7,10.2,2,12.5c0.3,2.4,13.2,14.2,34.7,29c21.4,14.8,49.5,28.2,67.5,37
				c18,8.8,53.9,26.3,77.8,36.7c23.9,10.3,81.8,25.4,86.2,26.5c4.4,1.1,43.2-10.8,56.8-14.8c13.6-4,101.7-38.6,117.7-45
				s48.5-20.3,51.8-22.8c3.3-2.6,3.1-3.6,2.2-14.7c0,0,10.9-2.7,16.5-17s33.6-92.3,41.3-113.3s34.8-90.2,38.7-100.7
				c3.8-10.5,7.3-13.3,6.7-21.3s-2.5-10.5-9.8-13.3s-16.9-5.8-21-6.3s-23.2,5.8-49.3,13c-26.2,7.2-152.2,39.6-161.5,42.5
				c-9.2,2.9-14.7,12.4-17.7,20.5s-11.5,52.3-18.8,84.7c-7.3,32.3-7.5,39.5-7.5,39.5s-25.1-6.8-41.3-11.5s-21-5.7-25.2-6.7
				s-13.9,3.3-49.8,11.7s-81.6,15.4-116.5,19.8c-34.9,4.4-64.1,8.2-72.3,9.3C1221.4,949.8,1220.4,951.2,1220.7,953.5z"/>
		</defs>
		<clipPath id="SVGID_4_">
			<use xlink:href="#SVGID_3_"  overflow="visible"/>
		</clipPath>
		<g clip-path="url(#SVGID_4_)">
			<defs>
				<path id="SVGID_5_" d="M1724,1010.5c-30.1,8.6-98.4,31.2-128.2,41.8s-111.5,46-111.5,46l-212-61.5l-56.8-73.2l7.2-21.8
					c0,0,1.5,13,2.8,19.8s0.5,6.9,15.2,16.2s94.5,55.5,121.5,67s96.8,39.2,107.5,42s11,3.4,16.8-1s10.2-6.5,10.2-6.5
					s-16.9-25.5-32.5-53.5s-29.2-53-30.8-57.5s-0.4-6.9,21-16.2s80.3-26,80.3-26s-13.2,60-18.1,82.2c-4.9,22.2-14.6,65.1-15,66.8
					s3.8,3.9,6.5-7.2s20.1-64.1,23.8-83.5s15.9-82,24.2-114.5s13.6-42.8,14.8-45.2s1.1,1.9-3.2,15s-13.8,55.6-20,84.8
					s-15.1,70.2-19.8,90c-4.7,19.8-12.1,41.5-12.8,46.5s2.9,8.5,12.5,6s50.5-22.5,83.8-35.5s128.2-38.8,129.2-62l12.2,10
					L1724,1010.5z"/>
			</defs>
			<clipPath id="SVGID_6_">
				<use xlink:href="#SVGID_5_"  overflow="visible"/>
			</clipPath>
			<path clip-path="url(#SVGID_6_)" fill="#44464C" d="M1524.7,958.9c-1,0.2-2.1,0.5-3.1,0.7c-2.3-1.2-4.6-2.2-6.9-3.2
				c-3.6-1.5-7-3.5-10.5-5.1c2.9-0.9,5.9-1.9,8.8-2.9c1.2-0.4,0.7-2.2-0.5-1.9c-13.4,3.3-26.6,7.6-39.8,11.4
				c-13.6,3.9-27.2,7.8-40.8,11.6c-13.3,3.8-26.6,7.6-40,10.9c-13.6,3.4-27.7,6.3-41,10.7c-0.2,0.1-0.4,0.2-0.5,0.3
				c-0.5,0.2-0.8,1.2-0.1,1.6c19.1,10.5,41.2,14.8,61.7,21.7c22,7.3,43.9,15,65.6,23.1c0.1,0,0.1,0,0.2,0c0.2,0.3,0.6,0.4,1,0.2
				c10.8-5.7,20.8-12.7,31.8-18c0.9-0.5,0.1-1.9-0.8-1.4c-10.6,5.2-21.9,10.5-31.3,17.8c-0.1-0.1-0.2-0.2-0.4-0.3
				c-11-4-22-7.9-33.1-11.8c5.5-2,10.9-4.4,16.4-6.3c5.9,2.4,11.8,4.7,17.7,7c1.2,0.5,1.7-1.5,0.5-1.9c-5.1-2-10.3-4-15.4-6
				c5-1.7,10-3.4,15-5c7.4-2.5,14.9-5.1,22.3-7.6c4,1.1,8.1,2.3,12.1,3.4c1.1,0.3,1.6-1.5,0.5-1.7c-3.3-0.8-6.7-1.7-10-2.6
				c3.8-1.3,7.5-2.6,11.3-3.9c1.1-0.4,0.6-2.2-0.5-1.8c-4.6,1.6-9.3,3.2-13.9,4.8c-9.1-2.5-18.1-5.1-27.2-7.8
				c10.7-3.8,21.5-7.9,32.4-11.2c3.8,1.8,7.7,3.6,11.5,5.4c1.2,0.6,1.9-1.2,0.7-1.7c-3.4-1.4-6.7-2.8-10-4.4
				c3.9-1.2,7.8-2.2,11.8-3.1c1.4-0.3,0.8-2.6-0.6-2.2c-4.7,1.2-9.3,2.5-13.9,4c-4.5-2.2-8.9-4.5-13.3-6.8c-2.7-1.5-5.7-2.9-8.7-4.5
				c12.9-3,25.8-5.9,38.7-8.6c0.6,0.3,1.2,0.7,1.8,1c1,0.6,1.9-0.9,0.9-1.5h-0.1c0.2,0,0.4-0.1,0.6-0.1
				C1526.9,960.9,1526.2,958.6,1524.7,958.9z M1432.4,971.7c11.7-3.2,23.4-6.5,35.1-9.8c0,0.2,0.1,0.5,0.3,0.7
				c3.1,2.7,6.8,5,10.6,7.1c-10.3,2.6-20.6,5.2-30.9,8c-5.4,1.4-10.8,2.9-16.3,4.3c-5.1-1.7-10.1-3.3-15.3-4.5
				c-1.1-0.2-1.4,1.2-0.4,1.6c3.7,1.5,7.5,2.9,11.3,4.2c-5.6,1.5-11.2,3-16.7,4.6c-3.4,1-6.8,1.9-10.3,2.9
				c-4.3-1.8-8.6-3.6-12.9-5.2c-0.7-0.3-1.2,0.9-0.5,1.2c3.5,1.7,7,3.3,10.6,4.9c-8.7,2.5-17.4,5-25.8,8.2c-0.1,0.1-0.2,0.1-0.3,0.2
				c-5.7-2.2-11.2-4.7-16.9-7.1c12.6-2.6,25.2-6.5,37.5-10.1C1405,978.9,1418.7,975.4,1432.4,971.7z M1430.1,984.3
				c11.3,3.6,22.9,6.6,34.2,9.9c1.1,0.3,2.1,0.6,3.2,0.9c-0.3,0.1-0.6,0.2-0.9,0.3c-8.9,3-17.8,6.1-26.7,9.3c-1.3,0.5-2.6,0.9-4,1.4
				c-1-0.4-1.9-0.8-2.9-1.1c-10-4-19.9-8.4-29.8-12.7c2.2-0.7,4.3-1.3,6.5-2C1416.5,988.2,1423.3,986.2,1430.1,984.3z
				 M1382.1,1003.8c-2.8-0.8-5.6-1.7-8.3-2.7c8.9-2.4,17.8-5.3,26.6-8c10.4,4.5,20.9,8.6,31.3,12.9c0.6,0.3,1.3,0.5,1.9,0.8
				c-2.1,0.7-4.2,1.5-6.3,2.3c-4,1.7-7.7,4.2-12,5.1c0,0,0,0-0.1,0c-0.7-0.2-1.3-0.5-2-0.7
				C1402.9,1010.1,1392.6,1006.7,1382.1,1003.8z M1442.2,1023.6c-8.1-2.8-16.2-5.6-24.3-8.4c3.4-1.2,6.5-3.1,9.8-4.4
				c2.8-1.1,5.5-2,8.3-3c7.7,3.2,15.4,6.4,23.1,9.5C1453.4,1019.2,1447.7,1021.2,1442.2,1023.6z M1498.3,1003.7
				c-6.9,2.4-13.7,4.8-20.5,7.3c-5.2,1.9-10.5,3.6-15.8,5.4c-7.9-3.1-15.7-6.2-23.5-9.3c0.6-0.2,1.3-0.4,1.9-0.6
				c8.9-3,17.9-6,26.8-9.1c1.2-0.4,2.5-0.9,3.7-1.3C1480,998.6,1489.1,1001.1,1498.3,1003.7z M1490.6,976c4.2,2.3,8.5,4.4,12.8,6.4
				c-11.1,3.6-22,7.7-32.9,11.5c-1.9-0.6-3.8-1.1-5.7-1.7c-8.2-2.4-16.3-4.9-24.5-7.4c-2-0.6-3.9-1.2-5.9-1.9
				c4.5-1.3,9-2.5,13.5-3.7c11-2.9,22-5.6,33.1-8.2C1484.3,972.8,1487.5,974.4,1490.6,976z M1480.9,969.1c-4.2-2.3-8.2-4.8-11.5-7.7
				c1-0.3,2-0.5,2.9-0.8c10.2-2.9,20.5-5.6,30.6-8.8c0,0.1,0,0.1,0.1,0.2c3.7,4.3,10.1,6,15.7,8.3
				C1506,963.1,1493.4,966,1480.9,969.1z"/>
		</g>
	</g>
	<g>
		<defs>
			<path id="SVGID_7_" d="M1220.7,953.5c0.8,6,1.7,10.2,2,12.5c0.3,2.4,13.2,14.2,34.7,29c21.4,14.8,49.5,28.2,67.5,37
				c18,8.8,53.9,26.3,77.8,36.7c23.9,10.3,81.8,25.4,86.2,26.5c4.4,1.1,43.2-10.8,56.8-14.8c13.6-4,101.7-38.6,117.7-45
				s48.5-20.3,51.8-22.8c3.3-2.6,3.1-3.6,2.2-14.7c0,0,10.9-2.7,16.5-17s33.6-92.3,41.3-113.3s34.8-90.2,38.7-100.7
				c3.8-10.5,7.3-13.3,6.7-21.3s-2.5-10.5-9.8-13.3s-16.9-5.8-21-6.3s-23.2,5.8-49.3,13c-26.2,7.2-152.2,39.6-161.5,42.5
				c-9.2,2.9-14.7,12.4-17.7,20.5s-11.5,52.3-18.8,84.7c-7.3,32.3-7.5,39.5-7.5,39.5s-25.1-6.8-41.3-11.5s-21-5.7-25.2-6.7
				s-13.9,3.3-49.8,11.7s-81.6,15.4-116.5,19.8c-34.9,4.4-64.1,8.2-72.3,9.3C1221.4,949.8,1220.4,951.2,1220.7,953.5z"/>
		</defs>
		<clipPath id="SVGID_8_">
			<use xlink:href="#SVGID_7_"  overflow="visible"/>
		</clipPath>
		<path clip-path="url(#SVGID_8_)" fill="#363837" d="M1682,865.2c-11.6-5-27.9,8.1-37.2,28.9c-11.4,25.6-9.3,40.7,4.8,46.9
			c0.8,0.3,1.6,0.6,2.6,0.7c0-6.4,2.8-10.8,2.8-10.8s-2.8,0.2-4.5-3.5s-0.2-4.3-2.6-6.4c-2.4-2.1-1.4-3.6,0.8-3.2
			c2.1,0.4,3.4,2.6,3.8,5.4c0.4,2.8,2.5,5.6,5.2,1.4c2.8-4.2,3.1-3.8,3.2-4.1c0-0.2,0.2-2.2,0.2-2.2s0,0-2.6,0s-7.2-3-5.7-11.4
			s4.6-11.3,4.6-11.3c-0.6-6.1,0.4-8.2,2.8-7c2.3,1.2,2.6,5.4,2.6,5.4c7-5.4,10.2-3.6,10.2-3.6s0.6-2.3,2.6-4.9c2-2.6,3.7-5.6,3.8,0
			c0,5.6-2.7,7.8-2.7,7.8c1.1,6.1,0.2,10-2.4,16.6c-2.7,6.6-7.2,6.2-7.2,6.2l-1.2,3.3c0,0,2.3,1.3,2.1,5.5c-0.2,3.5-1.2,5.5-3,13.3
			c8.1-4.7,16.8-13.8,21.9-26C1695.7,891.1,1693.6,870.1,1682,865.2z"/>
	</g>
	<g>
		<defs>
			<path id="SVGID_9_" d="M1220.7,953.5c0.8,6,1.7,10.2,2,12.5c0.3,2.4,13.2,14.2,34.7,29c21.4,14.8,49.5,28.2,67.5,37
				c18,8.8,53.9,26.3,77.8,36.7c23.9,10.3,81.8,25.4,86.2,26.5c4.4,1.1,43.2-10.8,56.8-14.8c13.6-4,101.7-38.6,117.7-45
				s48.5-20.3,51.8-22.8c3.3-2.6,3.1-3.6,2.2-14.7c0,0,10.9-2.7,16.5-17s33.6-92.3,41.3-113.3s34.8-90.2,38.7-100.7
				c3.8-10.5,7.3-13.3,6.7-21.3s-2.5-10.5-9.8-13.3s-16.9-5.8-21-6.3s-23.2,5.8-49.3,13c-26.2,7.2-152.2,39.6-161.5,42.5
				c-9.2,2.9-14.7,12.4-17.7,20.5s-11.5,52.3-18.8,84.7c-7.3,32.3-7.5,39.5-7.5,39.5s-25.1-6.8-41.3-11.5s-21-5.7-25.2-6.7
				s-13.9,3.3-49.8,11.7s-81.6,15.4-116.5,19.8c-34.9,4.4-64.1,8.2-72.3,9.3C1221.4,949.8,1220.4,951.2,1220.7,953.5z"/>
		</defs>
		<clipPath id="SVGID_10_">
			<use xlink:href="#SVGID_9_"  overflow="visible"/>
		</clipPath>
		<path clip-path="url(#SVGID_10_)" fill="#555353" d="M1446.7,1072c0.7,0.5,1.2,1.2,1.9,1.7c0.8,0.5,1.6,1,2.4,1.4s1.6,0.7,2.6,0.8
			c0.9,0.1,1.7,0.3,2.7,0.3c1.5-0.1,2.8-1.8,1.8-3.2c-1-1.4-2.8-2.6-4.5-3.2s-3.7-0.7-5.4-1.3C1446,1067.6,1445,1070.8,1446.7,1072
			L1446.7,1072z"/>
	</g>
	<g>
		<defs>
			<path id="SVGID_11_" d="M1220.7,953.5c0.8,6,1.7,10.2,2,12.5c0.3,2.4,13.2,14.2,34.7,29c21.4,14.8,49.5,28.2,67.5,37
				c18,8.8,53.9,26.3,77.8,36.7c23.9,10.3,81.8,25.4,86.2,26.5c4.4,1.1,43.2-10.8,56.8-14.8c13.6-4,101.7-38.6,117.7-45
				s48.5-20.3,51.8-22.8c3.3-2.6,3.1-3.6,2.2-14.7c0,0,10.9-2.7,16.5-17s33.6-92.3,41.3-113.3s34.8-90.2,38.7-100.7
				c3.8-10.5,7.3-13.3,6.7-21.3s-2.5-10.5-9.8-13.3s-16.9-5.8-21-6.3s-23.2,5.8-49.3,13c-26.2,7.2-152.2,39.6-161.5,42.5
				c-9.2,2.9-14.7,12.4-17.7,20.5s-11.5,52.3-18.8,84.7c-7.3,32.3-7.5,39.5-7.5,39.5s-25.1-6.8-41.3-11.5s-21-5.7-25.2-6.7
				s-13.9,3.3-49.8,11.7s-81.6,15.4-116.5,19.8c-34.9,4.4-64.1,8.2-72.3,9.3C1221.4,949.8,1220.4,951.2,1220.7,953.5z"/>
		</defs>
		<clipPath id="SVGID_12_">
			<use xlink:href="#SVGID_11_"  overflow="visible"/>
		</clipPath>
		<path clip-path="url(#SVGID_12_)" fill="#555353" d="M1479.2,1086.9c-2.2,0-4-1.8-4-4s1.8-4,4-4s4,1.8,4,4
			S1481.4,1086.9,1479.2,1086.9z M1479.2,1080.8c-1.1,0-2,0.9-2,2s0.9,2,2,2s2-0.9,2-2S1480.3,1080.8,1479.2,1080.8z"/>
	</g>
	<g>
		<defs>
			<path id="SVGID_13_" d="M1220.7,953.5c0.8,6,1.7,10.2,2,12.5c0.3,2.4,13.2,14.2,34.7,29c21.4,14.8,49.5,28.2,67.5,37
				c18,8.8,53.9,26.3,77.8,36.7c23.9,10.3,81.8,25.4,86.2,26.5c4.4,1.1,43.2-10.8,56.8-14.8c13.6-4,101.7-38.6,117.7-45
				s48.5-20.3,51.8-22.8c3.3-2.6,3.1-3.6,2.2-14.7c0,0,10.9-2.7,16.5-17s33.6-92.3,41.3-113.3s34.8-90.2,38.7-100.7
				c3.8-10.5,7.3-13.3,6.7-21.3s-2.5-10.5-9.8-13.3s-16.9-5.8-21-6.3s-23.2,5.8-49.3,13c-26.2,7.2-152.2,39.6-161.5,42.5
				c-9.2,2.9-14.7,12.4-17.7,20.5s-11.5,52.3-18.8,84.7c-7.3,32.3-7.5,39.5-7.5,39.5s-25.1-6.8-41.3-11.5s-21-5.7-25.2-6.7
				s-13.9,3.3-49.8,11.7s-81.6,15.4-116.5,19.8c-34.9,4.4-64.1,8.2-72.3,9.3C1221.4,949.8,1220.4,951.2,1220.7,953.5z"/>
		</defs>
		<clipPath id="SVGID_14_">
			<use xlink:href="#SVGID_13_"  overflow="visible"/>
		</clipPath>
		<path clip-path="url(#SVGID_14_)" fill="#555353" d="M1409.2,1057.8c2.8,1.1,5.2,2.9,7.9,4.1c2.1,0.9,5.3,3.2,7.6,2.2
			c0.7-0.3,1.3-0.9,1.3-1.7c0-3.1-3.7-4.4-6.2-5.2c-1.4-0.5-2.9-0.8-4.4-1c-1.8-0.3-3.8,0-5.6-0.4
			C1408.4,1055.5,1407.9,1057.3,1409.2,1057.8L1409.2,1057.8z"/>
	</g>
	<g>
		<defs>
			<path id="SVGID_15_" d="M1220.7,953.5c0.8,6,1.7,10.2,2,12.5c0.3,2.4,13.2,14.2,34.7,29c21.4,14.8,49.5,28.2,67.5,37
				c18,8.8,53.9,26.3,77.8,36.7c23.9,10.3,81.8,25.4,86.2,26.5c4.4,1.1,43.2-10.8,56.8-14.8c13.6-4,101.7-38.6,117.7-45
				s48.5-20.3,51.8-22.8c3.3-2.6,3.1-3.6,2.2-14.7c0,0,10.9-2.7,16.5-17s33.6-92.3,41.3-113.3s34.8-90.2,38.7-100.7
				c3.8-10.5,7.3-13.3,6.7-21.3s-2.5-10.5-9.8-13.3s-16.9-5.8-21-6.3s-23.2,5.8-49.3,13c-26.2,7.2-152.2,39.6-161.5,42.5
				c-9.2,2.9-14.7,12.4-17.7,20.5s-11.5,52.3-18.8,84.7c-7.3,32.3-7.5,39.5-7.5,39.5s-25.1-6.8-41.3-11.5s-21-5.7-25.2-6.7
				s-13.9,3.3-49.8,11.7s-81.6,15.4-116.5,19.8c-34.9,4.4-64.1,8.2-72.3,9.3C1221.4,949.8,1220.4,951.2,1220.7,953.5z"/>
		</defs>
		<clipPath id="SVGID_16_">
			<use xlink:href="#SVGID_15_"  overflow="visible"/>
		</clipPath>
		<g clip-path="url(#SVGID_16_)">
			<defs>
				<path id="SVGID_17_" d="M1220.7,953.5c0.8,6,1.7,10.2,2,12.5c0.3,2.4,13.2,14.2,34.7,29c21.4,14.8,49.5,28.2,67.5,37
					c18,8.8,53.9,26.3,77.8,36.7c23.9,10.3,81.8,25.4,86.2,26.5c4.4,1.1,43.2-10.8,56.8-14.8c13.6-4,101.7-38.6,117.7-45
					s48.5-20.3,51.8-22.8c3.3-2.6,3.1-3.6,2.2-14.7c0,0,10.9-2.7,16.5-17s33.6-92.3,41.3-113.3s34.8-90.2,38.7-100.7
					c3.8-10.5,7.3-13.3,6.7-21.3s-2.5-10.5-9.8-13.3s-16.9-5.8-21-6.3s-23.2,5.8-49.3,13c-26.2,7.2-152.2,39.6-161.5,42.5
					c-9.2,2.9-14.7,12.4-17.7,20.5s-11.5,52.3-18.8,84.7c-7.3,32.3-7.5,39.5-7.5,39.5s-25.1-6.8-41.3-11.5s-21-5.7-25.2-6.7
					s-13.9,3.3-49.8,11.7s-81.6,15.4-116.5,19.8c-34.9,4.4-64.1,8.2-72.3,9.3C1221.4,949.8,1220.4,951.2,1220.7,953.5z"/>
			</defs>
			<clipPath id="SVGID_18_">
				<use xlink:href="#SVGID_17_"  overflow="visible"/>
			</clipPath>
			<path clip-path="url(#SVGID_18_)" fill="none" d="M1426.9,939.9c-5.8-1.3-12.1-1.3-17.4-3.9c-0.2,0.1-0.4,0.2-0.6,0.3
				c-9.6,2.9-19.2,5.9-28.7,8.9c-4.3,1.4-8.6,2.8-13,3.9c-1.8,0.4-3.7,0.8-5.5,1.2c3.8,1.2,7.5,3.1,10.7,4.6
				c6.6,3,14.1,5.2,20.2,8.9c0.1,0.1,0.2,0.1,0.3,0.2c9-4.8,20.2-6.6,29.9-9.2c8.8-2.4,17.2-5.5,25.7-8.6
				C1441.4,944.3,1434.3,941.5,1426.9,939.9z"/>
			<path clip-path="url(#SVGID_18_)" fill="#62656A" d="M1454.2,944.1c-0.7,0.2-1.4,0.5-2.1,0.7c0.1-0.6-0.1-1.3-0.8-1.6
				c-12.8-5.5-27.1-8.3-40.9-9.9c-0.4-0.9-1.2-1.5-2.4-1.2c-9.7,2.5-19.3,5.5-28.6,9.2c-7.3,2.9-15.2,6.1-23,7.8c-0.7,0-1.4,0-2,0
				c-0.4,0-0.7,0.2-1,0.5c-0.3,0-0.6,0.1-0.9,0.1c-1.7,0.2-0.9,3.1,0.7,2.6c0.4-0.1,0.7-0.2,1.1-0.3c4.5,3.7,11.4,5.1,16.7,6.8
				c3.8,1.3,7.6,2.3,11.3,4.1c3.1,1.4,6,3.1,9.2,4.1c0.8,0.2,1.4,0,1.8-0.5c10.4-1.1,20.7-5.7,30.8-8.4c10.7-2.9,20.9-6.6,31.1-10.8
				C1456.8,946.4,1456.1,943.4,1454.2,944.1z M1423,954.6c-9.7,2.6-21,4.4-29.9,9.2c-0.1-0.1-0.2-0.2-0.3-0.2
				c-6.2-3.7-13.7-5.9-20.2-8.9c-3.2-1.5-7-3.4-10.7-4.6c1.9-0.4,3.7-0.7,5.5-1.2c4.4-1.1,8.7-2.5,13-3.9c9.6-3,19.1-6,28.7-8.9
				c0.2-0.1,0.4-0.2,0.6-0.3c5.3,2.7,11.5,2.6,17.4,3.9c7.4,1.7,14.5,4.4,21.8,6.2C1440.2,949.1,1431.7,952.2,1423,954.6z"/>
		</g>
		<g clip-path="url(#SVGID_16_)">
			<defs>
				<path id="SVGID_19_" d="M1220.7,953.5c0.8,6,1.7,10.2,2,12.5c0.3,2.4,13.2,14.2,34.7,29c21.4,14.8,49.5,28.2,67.5,37
					c18,8.8,53.9,26.3,77.8,36.7c23.9,10.3,81.8,25.4,86.2,26.5c4.4,1.1,43.2-10.8,56.8-14.8c13.6-4,101.7-38.6,117.7-45
					s48.5-20.3,51.8-22.8c3.3-2.6,3.1-3.6,2.2-14.7c0,0,10.9-2.7,16.5-17s33.6-92.3,41.3-113.3s34.8-90.2,38.7-100.7
					c3.8-10.5,7.3-13.3,6.7-21.3s-2.5-10.5-9.8-13.3s-16.9-5.8-21-6.3s-23.2,5.8-49.3,13c-26.2,7.2-152.2,39.6-161.5,42.5
					c-9.2,2.9-14.7,12.4-17.7,20.5s-11.5,52.3-18.8,84.7c-7.3,32.3-7.5,39.5-7.5,39.5s-25.1-6.8-41.3-11.5s-21-5.7-25.2-6.7
					s-13.9,3.3-49.8,11.7s-81.6,15.4-116.5,19.8c-34.9,4.4-64.1,8.2-72.3,9.3C1221.4,949.8,1220.4,951.2,1220.7,953.5z"/>
			</defs>
			<clipPath id="SVGID_20_">
				<use xlink:href="#SVGID_19_"  overflow="visible"/>
			</clipPath>
			<path clip-path="url(#SVGID_20_)" fill="#C5C5C5" d="M1809.7,735.9c-15.6-1.7-32.3,4.5-47.1,8.9c-16,4.8-32,9.4-48.2,13.8
				c-32.8,8.9-66.3,15.2-99.4,23.1c-9.3,2.2-21,4.7-29.1,11c0.1-0.6-0.2-1.2-0.6-1.6c-2.2-2.3-8.6-0.9-11.5-0.9
				c-2.5,0-5,0.2-7.5,0.4c-1.8,0.1-3.7-0.2-5.4,0.4c-1.5,0.5-1.5,2.3-0.4,3c-0.4,0.1-0.7,0.1-1.1,0.2c-0.6,0.1-1.1,0.7-1.4,1.4
				c-0.6,0.2-1.2,0.3-1.8,0.6c-1.9,0.9-0.6,4.3,1.5,3.5c1.8-0.6,4-0.8,6.1-0.8c0.4,0,0.7,0,1.1,0c1.3,0,2.5,0.1,3.6,0
				c3.8-0.1,7.6,0,11.4,0.2c-0.1,0.2-0.2,0.3-0.3,0.5c-0.3,0.6,0.4,1.2,0.9,0.7c4.9-5.2,9.9-9,16.6-11.6c5.9-2.3,12.2-3.7,18.4-5.1
				c15.8-3.5,31.6-7,47.4-10.6c31.8-7.1,63.7-14.2,95-23.7c8.4-2.5,16.8-5.1,25.3-7.2c8.7-2.2,17.7-3.3,26.4-5.5
				C1810.3,736.5,1810.1,735.9,1809.7,735.9z"/>
			<path clip-path="url(#SVGID_20_)" fill="#C5C5C5" d="M1576,804c-0.3,0-0.5,0.1-0.8,0.1c-0.4-0.1-0.7-0.2-1.1-0.3
				c-0.8-0.1-1,0.8-0.8,1.4c0.2,0.5,0.7,0.8,1.2,1s1,0.5,1.5,0.4c0.7-0.1,1.3-0.5,1.3-1.3C1577.3,804.6,1576.7,804,1576,804z"/>
			<path clip-path="url(#SVGID_20_)" fill="#C5C5C5" d="M1572.8,783.2c3.8,2.6,7.7,3.7,12.2,4.5c2.9,0.5,7,1.9,9.2-0.5
				c0.2-0.2,0.3-0.5,0.1-0.8c-0.1-0.2-0.2-0.3-0.4-0.4c0.2,0.1,0.5,0.1,0.7,0.2c1.1,0.2,2.1-0.3,2.4-1.4c0.3-0.9-0.3-2.3-1.4-2.4
				c-0.9-0.2-1.9-0.2-2.8-0.2s-1.7,0.1-2.6-0.3c-1.2-0.5-2.1,1.6-0.9,2.1c0.3,0.1,0.5,0.2,0.7,0.4c-1.7-0.3-3.4-0.3-4.9-0.6
				c-4.1-0.8-8-1.7-12.1-1.9C1572.4,781.8,1572.2,782.8,1572.8,783.2z"/>
			<path clip-path="url(#SVGID_20_)" fill="#C5C5C5" d="M1234.9,949.1c2.4,1.2,3.7,0.6,6.3,0.1c3.8-0.7,7.5-1.4,11.4-2
				c8-1.2,16.1-2.3,24.1-3.3c15.6-1.9,31.2-3.4,46.8-5.3c14.6-1.8,29.3-3.8,43.7-7.1c13.6-3.2,25.4-10.6,38.8-14.3
				c2.8-0.8,2.3-5.2-0.7-5.1c-6,0.2-11.4,2.9-16.7,5.6c-6.6,3.3-13,6.3-20.2,8.3c-15.3,4.2-31.1,6.4-46.8,8.3
				c-15.3,1.9-30.6,3.3-45.8,5.4c-7.2,1-14.3,2-21.4,3.3c-3.8,0.7-7.5,1.5-11.3,2.3c-3.1,0.7-6.3,0.7-8.3,3.2
				C1234.6,948.5,1234.6,948.9,1234.9,949.1L1234.9,949.1z"/>
			<path clip-path="url(#SVGID_20_)" fill="#C5C5C5" d="M1457.9,903c3.5,4,11.3,5.6,16.1,7.7c5.9,2.6,11.8,5.1,17.8,7.3
				c13,4.8,26.6,8.7,40,12.4c3.7,1,5.3-4.8,1.6-5.7c-13.6-3.4-27.1-6.6-40.4-11c-6.5-2.1-12.8-4.6-19.1-7.2
				c-4.5-1.9-10.7-5.6-15.7-4.1C1457.8,902.4,1457.7,902.7,1457.9,903L1457.9,903z"/>
			<path clip-path="url(#SVGID_20_)" fill="#C5C5C5" d="M1352.2,954c3.8,3,9.4,3.8,13.9,5.5c6.2,2.3,12.1,4.9,18,7.8
				c2.3,1.1,3.8-2.3,1.4-3.3c-5.6-2.3-11.3-4.5-17-6.6c-4.8-1.8-10.8-4.9-15.9-4.5C1352.2,952.9,1351.7,953.6,1352.2,954L1352.2,954
				z"/>
			<path clip-path="url(#SVGID_20_)" fill="#C5C5C5" d="M1388.5,967.7c4.9,0.6,9.9-1.2,14.6-2.4c5.5-1.4,11-3,16.4-4.6
				c11.3-3.4,22.5-6.8,33.8-10.2c2.2-0.7,1.3-4.1-0.9-3.4c-11,3.3-21.9,6.6-32.9,9.9c-5.2,1.6-10.3,3.2-15.5,4.9
				c-5.1,1.7-10.8,2.1-15.7,4.2C1387.3,966.4,1387.4,967.6,1388.5,967.7L1388.5,967.7z"/>
			<path clip-path="url(#SVGID_20_)" fill="#C5C5C5" d="M1235.8,962.3c4.7,2.9,8.9,6.1,13.8,8.6c4.9,2.6,9.9,5,15,7.3
				c9.5,4.2,19.2,8.3,29,11.7c0.8,0.3,1.1-1,0.4-1.3c-9.9-3.8-19.6-8-29-12.8c-4.7-2.4-9.4-4.7-14-7.2c-4.8-2.6-9.9-4.6-14.6-7.2
				C1235.7,961.1,1235.2,961.9,1235.8,962.3L1235.8,962.3z"/>
			<path clip-path="url(#SVGID_20_)" fill="#C5C5C5" d="M1332.8,1006.9c26.2,11.4,52.4,22.5,78.4,34.3c13,5.9,26,11.7,39.1,17.5
				c5.9,2.6,11.7,5.4,17.6,7.8c6,2.4,12.1,5.9,18.5,7.2c0.2,0,0.3-0.2,0.2-0.3c-4.8-3.7-10.9-5.9-16.2-8.6
				c-6.1-3.1-12.4-5.8-18.6-8.6c-12.9-5.7-25.8-11.3-38.9-16.7c-26.6-11.1-53.1-22.3-79.8-33.3
				C1332.7,1005.9,1332.4,1006.7,1332.8,1006.9L1332.8,1006.9z"/>
		</g>
	</g>
	<g>
		<defs>
			<path id="SVGID_21_" d="M1220.7,953.5c0.8,6,1.7,10.2,2,12.5c0.3,2.4,13.2,14.2,34.7,29c21.4,14.8,49.5,28.2,67.5,37
				c18,8.8,53.9,26.3,77.8,36.7c23.9,10.3,81.8,25.4,86.2,26.5c4.4,1.1,43.2-10.8,56.8-14.8c13.6-4,101.7-38.6,117.7-45
				s48.5-20.3,51.8-22.8c3.3-2.6,3.1-3.6,2.2-14.7c0,0,10.9-2.7,16.5-17s33.6-92.3,41.3-113.3s34.8-90.2,38.7-100.7
				c3.8-10.5,7.3-13.3,6.7-21.3s-2.5-10.5-9.8-13.3s-16.9-5.8-21-6.3s-23.2,5.8-49.3,13c-26.2,7.2-152.2,39.6-161.5,42.5
				c-9.2,2.9-14.7,12.4-17.7,20.5s-11.5,52.3-18.8,84.7c-7.3,32.3-7.5,39.5-7.5,39.5s-25.1-6.8-41.3-11.5s-21-5.7-25.2-6.7
				s-13.9,3.3-49.8,11.7s-81.6,15.4-116.5,19.8c-34.9,4.4-64.1,8.2-72.3,9.3C1221.4,949.8,1220.4,951.2,1220.7,953.5z"/>
		</defs>
		<clipPath id="SVGID_22_">
			<use xlink:href="#SVGID_21_"  overflow="visible"/>
		</clipPath>
		<path clip-path="url(#SVGID_22_)" fill="none" d="M1473.1,980.2c-1.5-1-8.2,1.2-6,3.3l0.1,0.1c0.3,0,0.6,0,0.9,0
			c0.8,0,1.5,0,2.3,0C1470.9,983.5,1476.5,982.4,1473.1,980.2z"/>
		<path clip-path="url(#SVGID_22_)" fill="none" d="M1491.4,959.3c-2.1,0.8-4.3,1.6-6.4,2.3c1.4,1.5,1.9,1.8,4.6,1.3
			c1.4-0.3,2.9-0.8,4.2-1.2c0.1,0,0.2-0.1,0.3-0.1C1493.1,961,1492.1,960.2,1491.4,959.3z"/>
		<path clip-path="url(#SVGID_22_)" fill="none" d="M1495.9,959.8c0.4,0.2,0.6,0.5,0.6,0.8c0.8-0.3,1.6-0.7,2.4-1.1
			c0.5-0.2,3.7-1.5,3.8-2c0.9-3-4.7-0.8-5.4-0.5c-1.3,0.5-2.7,1-4,1.5C1494.3,959,1495.1,959.5,1495.9,959.8z"/>
		<path clip-path="url(#SVGID_22_)" fill="none" d="M1424.2,989C1424.1,989,1424.1,989,1424.2,989c-0.3,0.1-0.6,0.2-0.9,0.4
			c-0.2,0.1-0.4,0.3-0.6,0.4l0,0h0.1c0.2,0.1,0.5,0.1,0.8,0c0.2,0,1-0.3,0.9-0.4C1424.2,989.3,1424.2,989.1,1424.2,989z"/>
		<path clip-path="url(#SVGID_22_)" fill="none" d="M1435.9,1001.2c0.5-0.4,0.3-1,0-1.5c-0.5,0.3-0.9,0.8-1.1,1.3
			c-0.1,0.4-0.2,0.4,0.2,0.5C1435.3,1001.4,1435.7,1001.4,1435.9,1001.2z"/>
		<path clip-path="url(#SVGID_22_)" fill="none" d="M1444.4,995.4c-0.4,0.4-0.7,0.8-0.7,1.3c0.1,0.5,0.4,1,0.9,0.9
			c0.7,0,1.5-0.6,1.2-1.4C1445.5,995.5,1445,995.5,1444.4,995.4z"/>
		<path clip-path="url(#SVGID_22_)" fill="none" d="M1514.1,969.3c-1.4,0.3-2.8,0.7-4.1,1.2c-1,0.4-1.9,0.9-2.9,1.3
			c0.5,0.2,0.9,0.3,1.3,0.5c1.7,0.5,3.4,1,5.1,1.5C1513.9,972.3,1514.1,970.8,1514.1,969.3z"/>
		<path clip-path="url(#SVGID_22_)" fill="none" d="M1496,1012.6c-1.4-0.2-2.2,0.3-3,0.9c-1.2,1.2-2.1,2.6,0.5,3.4
			c1.3,0.4,4.8,0.4,5.9-0.7C1501.3,1014.2,1497.3,1012.8,1496,1012.6z M1497.2,1015.5c-0.5,0.5-1.3,0.4-1.8,0
			c-0.4-0.4-0.2-1,0.3-1.1c0.4-0.1,1-0.1,1.4,0.1C1497.5,1014.6,1497.5,1015.1,1497.2,1015.5z"/>
		<path clip-path="url(#SVGID_22_)" fill="#898C92" d="M1475,1000.4c-1.3,1.7-4.8-0.4-6.7,0.1c-0.5,0.1-0.8,0.7-0.7,1.2
			c0.1,0.5,0.5,0.9,0.6,1.4c0.2,0.3,0.4,0.5,0.7,0.7c-0.6,0.4-1.1,0.9-1.7,1.3c-1.5,0.3-2.7-1-4.3-0.3c-0.8,0.4-1.5,1-1.7,1.9
			c-0.1,0.5,0.1,0.9,0,1.3c0,0.2,0.1,0.5,0.2,0.7c-0.8,1.6-1.9,1.9-3.2,0.9c-0.3-0.2-0.7,0.2-0.4,0.5c1.1,1.1,3.4,2.7,5.1,1.6
			c2.2-1.5-1.7-4.6,2.9-5c1.8-0.2,3.9,1.4,5.3-0.7c1-1.5-0.1-2.3-0.9-3.4c1.2,0.3,2.3,1,3.5,0.9c1.3-0.1,2.2-0.7,3.1-1.6
			C1477.8,1000.6,1476,999.1,1475,1000.4z"/>
		<path clip-path="url(#SVGID_22_)" fill="#898C92" d="M1499.3,1011.3c-1.5-0.8-3.5-1.2-5.2-0.9c-1.5,0.3-2.7,1.8-3.4,3.1
			c-0.1,0.1-0.1,0.2-0.1,0.3c-0.8,1.2-1,2.7,0.1,4c2.2,2.4,7.9,1.8,10.3,0C1504,1015.6,1501.8,1012.6,1499.3,1011.3z M1499.4,1016.1
			c-1.1,1.1-4.6,1.1-5.9,0.7c-2.6-0.8-1.7-2.2-0.5-3.4c0.8-0.6,1.7-1.1,3-0.9C1497.3,1012.8,1501.3,1014.2,1499.4,1016.1z"/>
		<path clip-path="url(#SVGID_22_)" fill="#898C92" d="M1497.1,1014.4c-0.4-0.2-0.9-0.2-1.4-0.1c-0.5,0.1-0.7,0.8-0.3,1.1
			c0.5,0.5,1.3,0.6,1.8,0C1497.5,1015.1,1497.5,1014.6,1497.1,1014.4z"/>
		<path clip-path="url(#SVGID_22_)" fill="#898C92" d="M1504.2,989.4c-1.5-0.1-3.2-0.2-4.7,0.3c-0.3,0.1-0.4,0.6-0.1,0.8
			c0.8,0.4,1.8,0.7,2.6,0.9c0.1,0,0.2,0,0.3,0.1c-0.2,0.1-0.3,0.2-0.5,0.2c-1.9,0.9-3.7,1.8-5.5,3c-0.6,0.4-0.2,1.4,0.5,1.2
			c1.6-0.4,3.1-1,4.7-1.6c1-0.4,1.9-0.9,2.9-1.3c-0.1,0.1-0.1,0.3-0.2,0.4c-0.4,0.9-0.8,1.9-0.8,2.9c-0.1,0.9,1.2,1.4,1.7,0.7
			c0.9-1.1,1.7-2.5,2.4-3.7c0.6-1,1-2.2,0-3.1C1506.6,989.3,1505.3,989.5,1504.2,989.4z"/>
		<path clip-path="url(#SVGID_22_)" fill="#898C92" d="M1478.8,976.7c-0.8,0.1-1.5,0.4-2.2,0.7c-0.6,0.3-1.3,0.6-1.9,0.9
			c-4-2.1-11.9,1-10.1,5.6c-1.3,0.4-2.5,1-3.7,2c-0.5,0.4,0,1,0.5,0.9c1.3-0.3,2.4-0.9,3.6-1.2c1.2-0.2,2.2,0,3.3,0
			c1.7,0.1,3.5-0.1,5.1-0.7c2-0.8,4.1-3,2.7-5.2c0.3-0.1,0.6-0.3,0.9-0.4c0.7-0.3,1.4-0.5,2-0.9C1480,978,1479.8,976.6,1478.8,976.7
			z M1470.3,983.5c-0.8,0.1-1.5,0.1-2.3,0c-0.3,0-0.6,0-0.9,0l-0.1-0.1c-2.1-2.1,4.5-4.3,6-3.3
			C1476.5,982.4,1470.9,983.5,1470.3,983.5z"/>
		<path clip-path="url(#SVGID_22_)" fill="#898C92" d="M1515,966.9c-1.3,0.2-10.4,2.2-11.3,4.5c-0.8,0.4-0.8,1.5-0.1,2.1
			c0,0,0,0,0.1,0.1c0.3,0.2,0.7,0.2,1,0.1c0.5,0,1.7,0.5,1.9,0.5c0.8,0.2,1.7,0.4,2.5,0.6c1.7,0.4,3.3,0.9,5,1.4
			c0.5,0.2,1.2-0.2,1.3-0.7c0.6-2.5,0.9-4.9,1-7.4C1516.4,967.1,1515.7,966.8,1515,966.9z M1508.5,972.2c-0.4-0.1-0.9-0.3-1.3-0.5
			c1-0.4,1.9-1,2.9-1.3c1.4-0.5,2.7-0.9,4.1-1.2c-0.1,1.5-0.2,3-0.5,4.5C1511.9,973.2,1510.2,972.7,1508.5,972.2z"/>
		<path clip-path="url(#SVGID_22_)" fill="#898C92" d="M1448,971.5c-1-0.2-2.1,0.3-3,0.7c-0.8,0.4-1.8,0.8-1.9,1.7
			c0,0.2,0.2,0.4,0.3,0.5c0.8,0.2,1.5-0.4,2.2-0.6c0.8-0.3,1.8-0.3,2.6-0.7C1448.9,972.8,1448.8,971.7,1448,971.5z"/>
		<path clip-path="url(#SVGID_22_)" fill="#898C92" d="M1458.2,968.1c-0.7,0.2-1.4,0.5-2.2,0.7c-0.3,0.1-0.7,0.2-1,0.4
			s-0.4,0.5-0.6,0.7s-0.1,0.5,0.2,0.6c0.3,0.1,0.6,0.3,0.9,0.3s0.7-0.1,1.1-0.2c0.7-0.2,1.5-0.3,2.2-0.5
			C1460,969.6,1459.5,967.8,1458.2,968.1z"/>
		<path clip-path="url(#SVGID_22_)" fill="#898C92" d="M1504.7,957.7c0.2-2.4-2.9-3.8-4.8-3.6c-2.8,0.3-6,2.1-8.6,3.1
			s-5.3,2-7.9,3.1c-0.2,0-0.4,0.1-0.6,0.2c-0.1,0-0.2,0.1-0.2,0.1c-0.5,0.2-0.5,0.7-0.3,1.1c0,0.2,0.1,0.4,0.3,0.6
			c1.4,1.7,2.1,3.3,4.4,3.3c2.4-0.1,5.1-1.3,7.3-2.1C1496.7,962.8,1504.4,960.7,1504.7,957.7z M1502.8,957.6c-0.2,0.5-3.4,1.8-3.8,2
			c-0.8,0.4-1.6,0.7-2.4,1.1c0-0.3-0.2-0.6-0.6-0.8c-0.9-0.4-1.7-0.8-2.5-1.3c1.3-0.5,2.7-1,4-1.5
			C1498.1,956.8,1503.7,954.6,1502.8,957.6z M1489.5,963c-2.6,0.5-3.2,0.2-4.6-1.3c2.2-0.7,4.3-1.5,6.4-2.3c0.7,0.9,1.7,1.7,2.6,2.3
			c-0.1,0-0.2,0.1-0.3,0.1C1492.4,962.2,1491,962.7,1489.5,963z"/>
		<path clip-path="url(#SVGID_22_)" fill="#BFBFBF" d="M1432.8,998c-1.4-0.5-2.6-1.5-3.6-2.7l-0.1-0.1c0.8-0.6,1.6-1.2,2.4-1.7
			c0.3,0,0.6-0.2,0.7-0.5c0.3-0.2,0.7-0.4,1-0.6c3.2-1.7,4.9,0.6,7.5,2.3c1,0.6,2-0.8,1.2-1.6c-2-2-4.6-4.1-7.5-3.3
			c-1.1,0.3-2.2,0.9-3.2,1.6c-0.3-0.2-0.5-0.4-0.8-0.6c-0.5-0.3-1.1-0.5-1.7-0.7c-0.9-0.3-1.8-0.7-2.7-1c-0.1-0.3-0.3-0.6-0.5-0.9
			c0-0.1,0-0.2-0.1-0.3c-0.8-1.1-2.3-0.2-3.2,0.4c-0.5,0.3-1,0.7-1.2,1.3c-0.1,0.6,0.1,1,0.6,1.3c1,0.7,2.5,0.7,3.5,0.1
			c0.5-0.3,0.8-0.7,0.9-1.2c0.8,0.4,1.5,0.9,2.3,1.5c0.5,0.4,1.1,0.8,1.6,1.2c-0.9,0.8-1.6,1.7-2.2,2.6c-0.1,0.2,0,0.5,0.2,0.7
			c0,0.1,0,0.2,0.1,0.4c1.1,1.6,2.6,2.8,4.4,3.5C1433.4,1000,1433.8,998.4,1432.8,998z M1423.5,989.8c-0.3,0-0.5,0-0.8,0h-0.1l0,0
			c0.2-0.1,0.4-0.3,0.6-0.4c0.3-0.1,0.6-0.3,0.8-0.4l0,0c0,0.2,0.1,0.3,0.2,0.4C1424.5,989.5,1423.7,989.8,1423.5,989.8z"/>
		<path clip-path="url(#SVGID_22_)" fill="#BFBFBF" d="M1433.8,1003c1.3,0.7,2.9,0.3,3.7-1c0.6-1.1,0.3-2.7-0.9-3.2l0,0
			c-0.2-0.4-0.9-0.4-1.3-0.3c-0.6,0.1-1.1,0.5-1.5,1C1432.9,1000.4,1432.4,1002.2,1433.8,1003z M1434.8,1001c0.2-0.5,0.6-1,1.1-1.3
			c0.2,0.5,0.5,1.1,0,1.5c-0.2,0.2-0.6,0.3-0.8,0.2C1434.6,1001.4,1434.7,1001.4,1434.8,1001z"/>
		<path clip-path="url(#SVGID_22_)" fill="#BFBFBF" d="M1444.9,993.9c-0.2-0.1-0.4-0.2-0.7,0c-1.4,0.7-2.8,1.7-2.4,3.5
			c0.4,1.5,1.9,2.5,3.4,2.2c1.4-0.3,2.4-2.1,2-3.5C1447,995.1,1446,994,1444.9,993.9z M1444.6,997.6c-0.5,0-0.9-0.5-0.9-0.9
			c-0.1-0.5,0.3-1,0.7-1.3c0.6,0.2,1.2,0.2,1.5,0.9C1446.1,997,1445.4,997.6,1444.6,997.6z"/>
		<path clip-path="url(#SVGID_22_)" fill="#BFBFBF" d="M1440,1013c-1.4,0.4-2.7,0.8-4.1,1.4c-1,0.4-2,0.7-2.6,1.6
			c-0.1,0.1,0,0.4,0.2,0.4c1,0.3,2.2,0,3.2-0.3c1.3-0.4,2.6-0.8,3.8-1.2C1441.6,1014.4,1441.2,1012.7,1440,1013z"/>
		<path clip-path="url(#SVGID_22_)" fill="#BFBFBF" d="M1444,1014.7c-2.1,0.6-4,1.7-5.6,3c-0.4,0.3-0.2,1.1,0.3,1.2
			c0.9,0.1,1.8-0.5,2.6-0.8c1.1-0.4,2.2-0.8,3.3-1.2C1445.9,1016.4,1445.4,1014.3,1444,1014.7z"/>
		<path clip-path="url(#SVGID_22_)" fill="#BFBFBF" d="M1416.2,1005.1c-0.9,0.1-6.8,1.3-7.3,0.5c-0.6-1.1,1-2.7-0.1-4.1
			c-0.6-0.7-1.6-1.1-2.6-1.1c-1.6,0.1-6.2,4-7.2,1.3c-0.1-0.2-0.4-0.3-0.5-0.1c-0.5,1.1-0.3,2.2,0.8,2.9c0.8,0.5,1.8,0.4,2.7,0.2
			c0.4-0.1,0.9-0.4,1.3-0.6c1.4-0.8,1.2-1.5,2.7-0.3c1.5,1.3,0.3,1.4,0.9,2.9c0.2,0.6,0.6,1,1.1,1.3c2.1,1.2,6.3-0.2,8.6-0.5
			C1418,1007.4,1417.7,1005,1416.2,1005.1z"/>
		<path clip-path="url(#SVGID_22_)" fill="#BFBFBF" d="M1382.5,989.6c-1.9-0.3-3.9,0.6-5.6,1.3c-0.1,0.1-0.3,0.1-0.4,0.2
			c-2-0.5-4.2-0.5-5.9,0c-0.3,0.1-0.3,0.5,0,0.6c1,0.3,2,0.6,3,0.9c-0.8,0.4-1.6,0.9-2.4,1.3c-0.9,0.5-0.1,1.8,0.8,1.3
			c1.3-0.7,2.8-1.3,4.3-1.8c1.2,0.3,2.4,0.7,3.3,1.5c1.1,1,2.7-0.6,1.6-1.6c-0.4-0.3-0.8-0.6-1.3-0.9c0.8-0.2,1.6-0.3,2.4-0.4
			C1383.4,991.8,1383.9,989.9,1382.5,989.6z"/>
		<path clip-path="url(#SVGID_22_)" fill="#BFBFBF" d="M1402.6,983.4c2.1,0.2,4.3,0,6.5-0.4c-0.1,0.1-0.2,0.2-0.3,0.3
			c-0.6,0.7-1,1.4-1.6,2.1c-0.6,0.6,0.3,1.5,1,1c0.6-0.5,1.4-0.8,2.1-1.4c0.7-0.6,1.4-1.1,2.1-1.8c0.5-0.5,0.5-1.2,0.1-1.6
			c0-0.6-0.4-1.2-1.1-1.1c-3,0.2-6.4,0.7-8.9,2.5C1402.3,983.1,1402.4,983.4,1402.6,983.4z"/>
		<path clip-path="url(#SVGID_22_)" fill="#BFBFBF" d="M1435.4,977.6c0.5,0,1.1-0.2,1.6-0.4s0.9-0.7,0.7-1.3
			c-0.1-0.5-0.8-0.9-1.3-0.7c-0.6,0.2-1.2,0.4-1.7,0.8C1434.1,976.7,1434.7,977.6,1435.4,977.6z"/>
		<path clip-path="url(#SVGID_22_)" fill="#898C92" d="M1472.8,1029.5c-0.4,0-0.8-0.1-1.1-0.1c0,0,0,0,0,0.1c0.5,1-0.8,2.1-1.6,1.2
			c-0.4-0.4-0.8-0.9-1.1-1.5c-0.3-0.5-0.6-1.1-0.9-1.6c-0.1-0.2-0.2-0.4-0.3-0.6c-0.4-0.8-0.9-1.7-0.9-2.5c0-0.4,0.5-0.8,0.9-0.5
			c0.8,0.6,1.3,1.6,1.9,2.5c0.2,0.2,0.3,0.5,0.5,0.7c0.9,0.1,1.7,0.1,2.6,0.2C1474,1027.5,1474.1,1029.5,1472.8,1029.5z"/>
		<path clip-path="url(#SVGID_22_)" fill="#898C92" d="M1464.8,1026.8c2,0.1,4.1,0.3,4.1,0.3l0.9,2.1l-3.8-0.3L1464.8,1026.8z"/>
	</g>
	<g>
		<defs>
			<path id="SVGID_23_" d="M1220.7,953.5c0.8,6,1.7,10.2,2,12.5c0.3,2.4,13.2,14.2,34.7,29c21.4,14.8,49.5,28.2,67.5,37
				c18,8.8,53.9,26.3,77.8,36.7c23.9,10.3,81.8,25.4,86.2,26.5c4.4,1.1,43.2-10.8,56.8-14.8c13.6-4,101.7-38.6,117.7-45
				s48.5-20.3,51.8-22.8c3.3-2.6,3.1-3.6,2.2-14.7c0,0,10.9-2.7,16.5-17s33.6-92.3,41.3-113.3s34.8-90.2,38.7-100.7
				c3.8-10.5,7.3-13.3,6.7-21.3s-2.5-10.5-9.8-13.3s-16.9-5.8-21-6.3s-23.2,5.8-49.3,13c-26.2,7.2-152.2,39.6-161.5,42.5
				c-9.2,2.9-14.7,12.4-17.7,20.5s-11.5,52.3-18.8,84.7c-7.3,32.3-7.5,39.5-7.5,39.5s-25.1-6.8-41.3-11.5s-21-5.7-25.2-6.7
				s-13.9,3.3-49.8,11.7s-81.6,15.4-116.5,19.8c-34.9,4.4-64.1,8.2-72.3,9.3C1221.4,949.8,1220.4,951.2,1220.7,953.5z"/>
		</defs>
		<clipPath id="SVGID_24_">
			<use xlink:href="#SVGID_23_"  overflow="visible"/>
		</clipPath>
		<path clip-path="url(#SVGID_24_)" fill="#62656A" d="M1226.8,956.3c16.1,9,32.5,17.7,49.2,25.4c16.8,7.7,34.2,13.9,51.5,20.6
			c35.3,13.7,69.8,29.3,104.2,45c9.7,4.4,19.3,8.8,28.9,13.2c9.6,4.4,19,9.1,28.9,12.8c0.4,0.2,0.7-0.5,0.3-0.8
			c-8.3-4.6-17-8.3-25.7-12.2c-8.6-3.9-17.2-7.9-25.8-11.9c-17-7.9-34-15.6-51.1-23.2c-16.9-7.4-33.9-14.5-51.2-21.1
			c-17.8-6.8-35.9-13-53.3-20.7c-18.9-8.4-37-18.5-55.4-28C1226.8,955.1,1226.2,956,1226.8,956.3L1226.8,956.3z"/>
	</g>
	<g>
		<defs>
			<path id="SVGID_25_" d="M1220.7,953.5c0.8,6,1.7,10.2,2,12.5c0.3,2.4,13.2,14.2,34.7,29c21.4,14.8,49.5,28.2,67.5,37
				c18,8.8,53.9,26.3,77.8,36.7c23.9,10.3,81.8,25.4,86.2,26.5c4.4,1.1,43.2-10.8,56.8-14.8c13.6-4,101.7-38.6,117.7-45
				s48.5-20.3,51.8-22.8c3.3-2.6,3.1-3.6,2.2-14.7c0,0,10.9-2.7,16.5-17s33.6-92.3,41.3-113.3s34.8-90.2,38.7-100.7
				c3.8-10.5,7.3-13.3,6.7-21.3s-2.5-10.5-9.8-13.3s-16.9-5.8-21-6.3s-23.2,5.8-49.3,13c-26.2,7.2-152.2,39.6-161.5,42.5
				c-9.2,2.9-14.7,12.4-17.7,20.5s-11.5,52.3-18.8,84.7c-7.3,32.3-7.5,39.5-7.5,39.5s-25.1-6.8-41.3-11.5s-21-5.7-25.2-6.7
				s-13.9,3.3-49.8,11.7s-81.6,15.4-116.5,19.8c-34.9,4.4-64.1,8.2-72.3,9.3C1221.4,949.8,1220.4,951.2,1220.7,953.5z"/>
		</defs>
		<clipPath id="SVGID_26_">
			<use xlink:href="#SVGID_25_"  overflow="visible"/>
		</clipPath>
		<path clip-path="url(#SVGID_26_)" fill="none" d="M1403.2,992.2c9.9,4.2,19.8,8.6,29.8,12.7c1,0.4,1.9,0.8,2.9,1.1
			c1.3-0.5,2.7-0.9,4-1.4c8.9-3.1,17.8-6.2,26.7-9.3c0.3-0.1,0.6-0.2,0.9-0.3c-1.1-0.3-2.1-0.6-3.2-0.9c-11.2-3.3-22.9-6.2-34.2-9.9
			c-6.8,1.9-13.6,3.9-20.4,5.9C1407.6,990.9,1405.4,991.5,1403.2,992.2z"/>
		<path clip-path="url(#SVGID_26_)" fill="none" d="M1427.7,1010.8c-3.3,1.3-6.4,3.2-9.8,4.4c8.1,2.8,16.2,5.5,24.3,8.4
			c5.5-2.3,11.2-4.3,16.9-6.3c-7.7-3.1-15.4-6.3-23.1-9.5C1433.2,1008.8,1430.4,1009.7,1427.7,1010.8z"/>
		<path clip-path="url(#SVGID_26_)" fill="none" d="M1370.8,1000c0.1-0.1,0.2-0.2,0.3-0.2c8.4-3.2,17.1-5.8,25.8-8.2
			c-3.6-1.6-7.1-3.2-10.6-4.9c-0.7-0.3-0.2-1.5,0.5-1.2c4.3,1.7,8.6,3.4,12.9,5.2c3.4-1,6.9-1.9,10.3-2.9c5.6-1.6,11.1-3.1,16.7-4.6
			c-3.8-1.3-7.6-2.7-11.3-4.2c-1-0.4-0.6-1.8,0.4-1.6c5.2,1.2,10.2,2.9,15.3,4.5c5.4-1.4,10.8-2.9,16.3-4.3
			c10.3-2.7,20.6-5.4,30.9-8c-3.8-2.1-7.5-4.4-10.6-7.1c-0.2-0.2-0.3-0.4-0.3-0.7c-11.7,3.3-23.4,6.6-35.1,9.8
			c-13.7,3.7-27.3,7.2-40.9,11.1c-12.3,3.6-24.9,7.5-37.5,10.1C1359.6,995.2,1365.1,997.7,1370.8,1000z"/>
		<path clip-path="url(#SVGID_26_)" fill="none" d="M1440.3,1006.4c-0.6,0.2-1.3,0.4-1.9,0.6c7.8,3.1,15.7,6.2,23.5,9.3
			c5.3-1.8,10.6-3.5,15.8-5.4c6.8-2.5,13.7-4.9,20.5-7.3c-9.2-2.5-18.3-5.1-27.5-7.7c-1.2,0.4-2.5,0.9-3.7,1.3
			C1458.2,1000.4,1449.3,1003.4,1440.3,1006.4z"/>
		<path clip-path="url(#SVGID_26_)" fill="none" d="M1415.3,1014.2c4.3-0.9,7.9-3.5,12-5.1c2.1-0.9,4.2-1.6,6.3-2.3
			c-0.6-0.3-1.3-0.5-1.9-0.8c-10.3-4.4-20.9-8.5-31.3-12.9c-8.8,2.8-17.7,5.7-26.6,8c2.7,1,5.5,1.9,8.3,2.7
			c10.5,2.9,20.8,6.3,31.2,9.8C1413.9,1013.8,1414.6,1014,1415.3,1014.2C1415.2,1014.3,1415.3,1014.2,1415.3,1014.2z"/>
		<path clip-path="url(#SVGID_26_)" fill="none" d="M1503,952c0,0-0.1-0.1-0.1-0.2c-10.1,3.1-20.5,5.9-30.6,8.8
			c-1,0.3-2,0.6-2.9,0.8c3.3,2.9,7.4,5.4,11.5,7.7c12.6-3.1,25.2-6.1,37.8-8.8C1513.1,958,1506.7,956.3,1503,952z"/>
		<path clip-path="url(#SVGID_26_)" fill="none" d="M1434.5,983.1c2,0.6,3.9,1.3,5.9,1.9c8.1,2.5,16.3,5,24.5,7.4
			c1.9,0.6,3.8,1.1,5.7,1.7c10.9-3.8,21.9-8,32.9-11.5c-4.3-2.1-8.6-4.2-12.8-6.4c-3-1.6-6.3-3.2-9.5-4.9
			c-11.1,2.6-22.1,5.4-33.1,8.2C1443.5,980.6,1439,981.8,1434.5,983.1z"/>
		<path clip-path="url(#SVGID_26_)" fill="#44464C" d="M1529.2,945.4c-6.1-1.4-12.6-3.8-18.9-4.3c-0.6,0-0.8,0.9-0.3,1.1
			c5.7,2.6,12.7,3.4,18.7,4.9C1529.9,947.4,1530.4,945.6,1529.2,945.4z"/>
	</g>
</g>
</svg>
