<?xml version="1.0" encoding="utf-8"?>
<!-- Generator: Adobe Illustrator 21.0.2, SVG Export Plug-In . SVG Version: 6.00 Build 0)  -->
<svg version="1.1" id="Layer_1" xmlns="http://www.w3.org/2000/svg" xmlns:xlink="http://www.w3.org/1999/xlink" x="0px" y="0px"
	 viewBox="0 0 2000 2000" enable-background="new 0 0 2000 2000" xml:space="preserve">
<g>
	<g id="_x30_6_x5F_Props_x5F_Newspaper_x5F_Main_Asset">
		<path fill="#999999" d="M1777.5,767.4c-7.1,0.6-14.3,1.5-21.4,2.7c11.7-16.2,8.6-13.4,2.8-13.5c-1.6,0-3.8,0.2-6.3,0.5
			c-7.1,1-16.1,3-16.1,3V754v-10.3c0,0,0,0-2.6,0.4c-1,0.1-6.3,2.5-12.6,5.5c-10.7,5-24.2,11.7-24.2,11.7l-9.3-2.8l-1.4-0.4
			c-29.5,12.5-94,55.9-139.2,95.5c-42.8,37.5-98,64.4-137.1,91.1c-2.2,1.5-4.4,3-6.4,4.5c-3.6,2.6-7.3,5-11.1,7.2
			c-37.1,21.6-80,24.1-95.9,24.7c-6.2,0.2-10.6,0.5-13.3,0.9c-4.9,0.8-4.5,2.2,0,5.1c7,4.6,17.8,8,17.8,8c-6,1.6-11.4,3.8-15.9,6.7
			c-13.4,8.7-19.6,23.7-13.9,46.6c7.8,30.7,18.4,63.3,53,92.4c14,11.8,25.7,19.3,35.8,23.7c15,6.5,26.7,6.2,37.9,2.6
			c17.2-5.4,31.2-22.1,49.3-37c1.8-1.5,3.6-2.9,5.5-4.4l6.8-2.5l18.1-6.6l15.6-5.7c0,0,133.9-107.9,165.3-127.3
			c2.1-1.3,3.8-2.2,4.9-2.7h0.1c9.2-3.6,22.5-7.4,35.3-13.4c11.8-5.5,23.1-12.7,30.3-23.2c8.1-11.8,11.2-22.7,11.5-35.8
			c0.2-11.3-1.6-24.3-4-41.2c-5.2-36.5,16.2-71.6,22.5-80c4.9-6.5,9.7-9.8,10.8-12c2.4-0.2,4.8-0.5,7.3-0.6
			C1782.1,774.2,1782.1,767,1777.5,767.4z"/>
		<path fill="#525252" d="M1368,989c-3.9-3.2-5.7-3.7-3.3-6.7c2.4-3,42.6-23.3,42.6-23.3l27.6,31.6l-43.3,24
			C1391.5,1014.6,1380.7,999.3,1368,989z"/>
		<path fill="#525252" d="M1394.4,1018.5l4.9,7.6l44.8-25.3l-7.7-7.7C1436.3,993.1,1409.6,1008.1,1394.4,1018.5z"/>
		<path fill="#525252" d="M1410.2,1043l46.4-32.6l15.2,19.2l-11,5.6c0,0,11.9-0.9,16.1,5.3l3.1-2.1l11.1,15.1l-18.4,12.5
			c0,0-6.1-7.7-7.2-10c-1.1-2.4-3.9-5.1,5.8-10.6c0,0-5.2-3.4-16-3.1s-35,17.5-35,17.5L1410.2,1043z"/>
		<path fill="#525252" d="M1572.9,876.4c36.4-30.5,80.7-49.7,133-62.1c0,0-6.8,27.6-5.7,43.3l-89.5,39.3L1572.9,876.4z"/>
		<path fill="#525252" d="M1616.7,899.2c0,0,59.1-25,84.1-32.9l-0.8,9.3l-73.6,30.8L1616.7,899.2z"/>
		<path fill="#525252" d="M1635,917.4l22-9.5c0,0,2.6,1.7,4.4,7.5s-1.1,8.3-1.1,8.3l-17.5,6.9L1635,917.4z"/>
		<path fill="#525252" d="M1666.9,902.7c0,0,4.2,6.8,6.3,14.9l34.1-14.9c0,0-2.9-4.9-3.6-8.1c-0.8-3.2-0.8-6-0.8-6L1666.9,902.7z"/>
		<path fill="#525252" d="M1498.2,1066l-52.3,44.5c0,0,2.3,8.6,1.5,19.6c1.8-1.5,3.6-2.9,5.5-4.4l6.8-2.5l40.9-33.1L1498.2,1066z"/>
		<path fill="#525252" d="M1711,916.7l-58.5,25.1l11.4,39.1c9.2-3.6,22.5-7.4,35.3-13.4c3.2-5.3,7.9-13.7,11.8-23.3
			C1717.7,927.7,1711,916.7,1711,916.7z"/>
		<path opacity="0.3" fill="#091426" enable-background="new    " d="M1619.9,801.6c-14.1,9.3-27.6,19.4-41,29.6
			c-6.3,4.8-12.5,9.8-18.4,15.1c-3.1,2.8-6.3,5.6-9.4,8.4c-3.6,3.2-6.7,7-10.3,10c-0.8,0.7,0.5,2.1,1.2,1.2c0.9-1,1.9-2,2.9-2.9
			c0.1,0.1,0.2,0.2,0.3,0.2c-1.6,1.4-3.2,2.9-4.8,4.3c-0.8,0.7,0.2,2.1,1.1,1.5c9.3-6.4,18.4-13.1,27.5-19.9c3.3-2,6.5-4.2,9.4-6.9
			c0.3-0.2,0.6-0.5,1-0.7c12.9-9.3,26.3-17.8,39.9-26c9.4-5.6,19-10.9,28.8-15.9c13.5-6.4,27.1-12.5,40.9-18.2
			c11.5-4.8,23.1-9.3,34.7-13.7c9.6-3.6,19.8-6.6,29.2-10.8c-7.1,1-16.1,3-16.1,3v-6.1c-2.8,1.1-5.5,2.2-8.2,3.3
			c-7.1,2.7-14.1,5.6-21.1,8.6c-14.6,6.2-29,12.9-43,20.3c-14,7.4-27.5,15.8-41.2,23.9c-13.7,8.1-27,16.7-40.2,25.5
			c-3.7,2.5-7.4,5-11.1,7.6c-3.3,1.7-6.5,3.7-9.6,5.6c6.6-5.2,13.3-10.4,20.1-15.4c13.5-10,27.8-18.9,41.9-28.1
			c3.8-2.5,7.6-4.9,11.4-7.4c6.9-3.9,13.9-7.7,20.9-11.5c10.6-5.7,21.1-11.6,31.7-17.3c10.7-5.8,22.8-10.9,32.5-18.4
			c0.4-0.3,0.6-0.7,0.8-1.1c-10.7,5-24.2,11.7-24.2,11.7l-9.3-2.8c-8.4,5.1-16.6,10.4-24.8,15.6
			C1648.6,783.1,1634.2,792.2,1619.9,801.6z"/>
		<path opacity="0.3" fill="#091426" enable-background="new    " d="M1770.2,773.5c-1.6-2.4-16.2-0.5-16.2-0.5c0.8-1.1,1.5-2,2.2-3
			c-24.8,3.9-49.2,10.8-72.5,20c-30.3,12-58.9,28-86.9,44.6c-7.8,4.6-15.5,9.3-23.2,14.1c-7.6,4.7-16.3,9.2-22.7,15.5
			c-0.8,0.8,0,2.4,1.2,2c7-2.6,13.4-7.4,19.8-11.3c6.6-4.1,13.3-8.2,20-12.3c13.9-8.4,28.1-16.3,42.5-23.7
			c28.2-14.5,58.3-26.7,88.9-35c15.6-4.2,31.2-7.1,47.1-8.7C1770.6,774.6,1770.6,774,1770.2,773.5z"/>
		<path opacity="0.3" fill="#091426" enable-background="new    " d="M1722.9,930.5c-21.8,16.5-39,19.1-68.8,26.7l4.7,26.3
			c2.1-1.3,3.8-2.2,4.9-2.7h0.1c9.2-3.6,22.5-7.4,35.3-13.4c11.8-5.5,23.1-12.7,30.3-23.2c8.1-11.8,11.2-22.7,11.5-35.8
			C1737.7,915.4,1732.2,923.5,1722.9,930.5z"/>
		<path opacity="0.3" fill="#091426" enable-background="new    " d="M1439.1,940.1l-28.9,4.5c-2.2,1.5-4.4,3-6.4,4.5
			c-3.6,2.6-7.3,5-11.1,7.2c5.5,17.7,15.4,37.2,26.9,50.3c13.3,15.3,28.5,26.7,37.7,33.7c9.2,6.9,18.4,16.6,18.4,25.9
			s0.9,8.2-4.5,15.3c-5.4,7.1-44.8,43-72.3,63.1c0,0,15.1-14-4-59.1s-34.5-60-60.8-78.7c-17.3-12.3-38.2-20.7-50.5-24.9
			c-4.9,0.8-4.5,2.2,0,5.1c7,4.6,17.8,8,17.8,8c-6,1.6-11.4,3.8-15.9,6.7c4.2-1.4,9.8-1.9,16.4,0.4c15.8,5.3,35.9,15.2,51.6,32.5
			c15.7,17.3,24,39.6,32.3,58.2c8.2,18.6,9.4,30.2,6.4,37.9c0,0-6.6,4.5-11.5,5.9s-10.4-6.1-10.4-6.1l-17.4,8.5c0,0-17.1-9.3-33-32
			s-23.6-48.4-23.1-60.8s0.4-11.9,10.8-18.8c0,0,13.4,3.9,25.9,20.3s20.1,26,26.6,44.8s14,35.2,18.4,36.3c4.4,1.1,7.7-3.1,4.9-17.4
			c-2.7-14.4-10.4-35.9-36-65c-25.7-29.1-45.2-42.1-58.4-36.9c-13.2,5.2-13.9,23-11.3,38.5s13.3,43.7,29.4,65.5s31.5,33.9,45.9,41.5
			c14.5,7.5,24.6,8,41-4c0,0-13.9,16.4-33.5,13.8c15,6.5,26.7,6.2,37.9,2.6c17.2-5.4,31.2-22.1,49.3-37c1.8-1.5,3.6-2.9,5.5-4.4
			l6.8-2.5l18.1-6.6l32.6-37.8L1439.1,940.1z"/>
		<path opacity="0.3" fill="#091426" enable-background="new    " d="M1318.3,1046c-8.7-9.2-13.2-7.8-13.2,1.7
			c0.1,9.4,6.6,30.1,21,52.7s30.3,31,30.3,31l9.7-5.8c0,0-4.8-5-17.7-26.7C1335.6,1077.2,1327,1055.2,1318.3,1046z"/>
	</g>
	<g id="_x30_6_x5F_Props_x5F_Newspaper_x5F_Tentical">
		<path fill="#282828" class="main-body-fill" d="M1656.8,943.9c-7.3-14.7-17.6-27.9-30.6-39.4c-33.4-29.6-75.1-63.4-148.5-35c0,0-4.8-5.2-12.7-10.6
			c-7-4.8-16.5-9.8-27.3-11.4c-19.1-2.9-34.4,6-43.2,21.4c-1.7,2.9-3.1,6-4.3,9.4c-7.5,20.9-6.5,48.6,7.5,71.5s28.4,38,50.2,59.2
			s33.6,31.9,41.2,46.2s8.2,26.6,4.5,31.2s-40.8,39.2-40.8,39.2l52.9,23.9c0,0,4.1-6.4,10.9-21.9c0,0,47.8,17.5,86.2-6.8
			s59.2-47,65.8-96.5C1672.7,994.2,1668.4,967.1,1656.8,943.9z"/>
	</g>
	<g id="_x30_6_x5F_Props_x5F_Newspaper_x5F_Shadow">
		<path opacity="0.3" fill="#091426" enable-background="new    " d="M1452.6,890.6c3.7-5.2,13.6-12.3,25.2-21.1
			c0,0-4.8-5.2-12.7-10.6c-12.6,15-16,25.2-18.2,31.7C1444.2,898,1448.8,895.9,1452.6,890.6z"/>
		<path opacity="0.3" fill="#091426" enable-background="new    " d="M1397.8,949.8c14,22.9,28.4,38,50.2,59.2
			c21.8,21.2,33.6,31.9,41.2,46.2s8.2,26.6,4.5,31.2s-40.8,39.2-40.8,39.2l52.9,23.9c0,0,4.1-6.4,10.9-21.9c0,0,47.8,17.5,86.2-6.8
			s59.2-47,65.8-96.5c4-30.3-0.3-57.4-11.9-80.6c7.5,30.1,7.6,59.3,1.6,73.4c-8.9,21.2-15.6,42-53.8,52.7
			c-38.2,10.7-43.8,1.5-72.7-19s-48.2-45.5-66.3-62.7c-18.2-17.2-33.3-19.2-49.8-31.3s-18.3-23.5-22.2-45.7
			c-2.8-16-3.9-24.4,0.9-42.5c-1.7,2.9-3.1,6-4.3,9.4C1382.8,899.1,1383.8,926.9,1397.8,949.8z"/>
	</g>
</g>
</svg>
