<?xml version="1.0" encoding="utf-8"?>
<!-- Generator: Adobe Illustrator 21.0.2, SVG Export Plug-In . SVG Version: 6.00 Build 0)  -->
<svg version="1.1" id="Layer_1" xmlns="http://www.w3.org/2000/svg" xmlns:xlink="http://www.w3.org/1999/xlink" x="0px" y="0px"
	 viewBox="0 0 2000 2000" enable-background="new 0 0 2000 2000" xml:space="preserve">
<g>
	<g id="_x31_0_x5F_Props_x5F_WizardWand_x5F_Main_Asset">
		<path fill="#CE2928" d="M1477.9,232.4l-46.7,73.6l-57.1-116.8c0,0-40.3-9.9-62.1-15.8c-2.4,5.7-2.1,8.5-0.5,13.3
			c2.3,6.8,8.6,13,33.4,41.9l74.9,104.6l44.2-17.4l14.7-27.7l-6.1-4.1L1477.9,232.4z"/>
		<polygon fill="#E35A30" points="1399.4,154.2 1374.1,189.2 1431.2,306 1477.9,232.4 1494.8,169.2 1460.4,142.6 		"/>
		<path fill="#E0368E" d="M1538.9,170.8c14-26.8,13.6-29.4,12.3-32.1l-56.4,30.5l-16.9,63.2l-5.3,51.6l6.1,4.1l38.4-72.4
			C1517.1,215.7,1523.8,199.6,1538.9,170.8z"/>
		<path fill="#9A3268" d="M1520.4,116.3c-23-14.6-24.6-18.8-33.7-18.8c-0.3,0-0.7,0-1.1,0l-25.1,45l34.4,26.6l56.4-30.5
			c-0.1-0.2-0.2-0.4-0.3-0.6C1549.4,135,1543.4,130.9,1520.4,116.3z"/>
		<path fill="#CE2928" d="M1485.5,97.5c-12.5,0.6-76.6,9.5-106.9,16.8c-25.3,6.2-33.8,8.6-37.7,11.8l58.4,28.1l61-11.7L1485.5,97.5z
			"/>
		<path fill="#E0368E" d="M1399.4,154.2l-58.4-28.1c-0.9,0.8-1.6,1.6-2.2,2.5c-3.1,4.7-14.9,22.9-22.1,35.7
			c-2.1,3.8-3.6,6.7-4.7,9.1c21.7,5.9,62.1,15.8,62.1,15.8L1399.4,154.2z"/>
		<polygon fill="#A0592B" points="1467.1,1014.6 1454.6,1021.8 1467.6,1017.5 		"/>
		<polygon fill="#FF00B0" points="1483,1012.4 1467.6,1017.5 1474.1,1060.7 		"/>
		<path fill="#A0592B" d="M1476.7,1605.1c-1.8-15-3.8-19.1-8.2-40.1c-2.6-12.6-3.6-52.9-4.7-92.3c-0.8-26.6-1.6-52.8-3.1-69.7
			c-3.7-41.9-1.8-65.2,3-92.8c2.5-14.5,4.2-24.6,4.7-33.3c0.4-7.8-0.1-14.5-1.7-22.3c-3.5-16.6-6.8-46.4-5.7-96.7l22.8-33.7
			l-9.6-63.4l-6.5-43.2l-13,4.3l-62.7,36l-4,47.2l10.4,36.5c0,0,0.1,34.5,0.9,83.4s-4.3,88.8,0,141.5s2.4,63.2,4.2,92.8
			c1.8,29.6-6.5,98.3-6.5,142.5c0,44.1,3,103.3,5.5,110.9c0.9,2.8,4.3,4.7,9,6.1c1,0.3,2.1,0.5,3.2,0.8c3.7,0.7,7.9,1.2,12.4,1.4
			c1.4,0.1,2.9,0.1,4.4,0.2c1.8,0.1,3.6,0.1,5.4,0.1c1.6,0,3.2,0,4.9,0c0.3,0,0.6,0,0.9,0c7.8-0.1,14-1.5,19-3.2
			c3.6-1.2,6.7-2.5,9.4-3.7c1.9-0.8,3.7-1.5,5.3-2c0.2-0.1,0.5-0.2,0.7-0.2c7.2-1.8,2.6-39.9-0.4-53.7
			C1473.7,1644.5,1478.4,1620.1,1476.7,1605.1z"/>
		<path fill="none" d="M1501.1,527.1c2.9-1,13.1-2.8,17.2-7.3s4.2-9.4,4-14.9c-0.1-5.5-3.5-11.7-9.3-13.9
			c-5.9-2.1-13.2-1.9-14.9,1.1c-1.7,3-7.4,12.1-8,19.9C1489.5,519.7,1496.7,528.7,1501.1,527.1z"/>
		<path fill="none" d="M1577.7,626.9c-6.3,1.2-9.7,4.4-11.3,8.8c-1.6,4.4-2.5,9.9,2,13.8c1.5,1.3,12,4.7,15.7,2.8s6.7-6.6,7.3-12.4
			S1584,625.7,1577.7,626.9z"/>
		<path fill="none" d="M1501.1,527.1c2.9-1,13.1-2.8,17.2-7.3s4.2-9.4,4-14.9c-0.1-5.5-3.5-11.7-9.3-13.9
			c-5.9-2.1-13.2-1.9-14.9,1.1c-1.7,3-7.4,12.1-8,19.9C1489.5,519.7,1496.7,528.7,1501.1,527.1z"/>
		<path fill="none" d="M1493.2,510.1c-0.7-1.6-1.3-2.9-1.8-4.2c-0.7,2-1.1,4.1-1.3,6.1c-0.6,7.7,6.6,16.7,11,15.2
			c2.9-1,13.1-2.8,17.2-7.3c1.5-1.6,2.4-3.2,3-5c-0.6-0.1-1.2-0.4-1.7-0.8C1513.4,509.8,1493.2,510.1,1493.2,510.1z"/>
		<path fill="none" d="M1577.7,626.9c-6.3,1.2-9.7,4.4-11.3,8.8c-1.6,4.4-2.5,9.9,2,13.8c1.5,1.3,12,4.7,15.7,2.8s6.7-6.6,7.3-12.4
			S1584,625.7,1577.7,626.9z"/>
		<path fill="#A0592B" d="M1352.5,235.9c5.9,7.8,15.3,23,22,33.4s11.3,16.5,11.3,16.5s3.1-0.4,8,7.3c4.9,7.6,8.4,12.6,15.4,18
			c7,5.3,12.3,6.2,14.5,2.3c2.3-3.8,7.5-30.2,11.3-53.4s4.2-37.4,5.5-46.3c1.3-8.9,6.8-9.7,10.9-5.8c4.2,3.9,5.6,25.9,8.2,33
			c2.5,7.2,2.9,14.3,8.5-2.7s15.3-44.9,18-46.8s2.5,8.2,0,23.4s-5.5,27.5-7.6,41.6s-4.2,20.5,1.1,22.9s4.1-0.2,11.7-13.3
			c0,0,0,0,0-0.1c-1.7,2.8-3.2,5.1-4.3,6.7c-6.6,9.1-7.5,1.4-4.5-10.5c0,0,7.5-36,8.6-51c1.1-15.1,1.4-24.5-1.8-28.6
			c-2.5-3.2-5.6-3.4-8.1,0.4c-0.2,4.2-0.9,10-3.1,16.9c-4.3,14-9.8,28.9-12.5,30.9c-1.8,1.3-1.7-1.3-1.5-5.7
			c-6.8-15.5-13.2-29.6-22.6-35c-1.8-1-3.3-1.6-4.7-1.7c-0.5,0-1,0-1.5,0.1c-0.6,0.1-1.1,0.4-1.6,0.8c6.4,6.4,1.9,30.3,0.2,48.9
			c-1.8,19.6-6.6,58-10.1,66.6s-3.8,8.8-13.5-1.8s-14.8-16.3-26.7-30.9c-11.9-14.6-25.6-33.9-31.1-40.4c-5-5.9-10.6-8-21.5-13.6
			c-1.1,0.5-2,1.2-2.9,2.1l-0.1,0.1C1339,223.3,1348,229.9,1352.5,235.9z"/>
		<path fill="#A0592B" d="M1406.7,887l19.4-14.3l-19.2,8.3C1406.8,882.9,1406.7,885,1406.7,887z"/>
		<path fill="#FF00B0" d="M1433.5,869.5c0,0,0-0.8,0-2.3l-7.4,5.5L1433.5,869.5z"/>
		<path fill="#FF00B0" d="M1508.5,234.4c-0.2,0.4-9.8,18.5-17.2,31.5C1496.3,257.6,1503.2,244.9,1508.5,234.4z"/>
		<path fill="none" d="M1525.5,497.2L1525.5,497.2L1525.5,497.2z"/>
		<path fill="none" d="M1501.1,527.1c2.9-1,13.1-2.8,17.2-7.3c1.5-1.6,2.4-3.2,3-5l0,0c1.1-3.1,1.1-6.4,1-10
			c-0.1-5.5-3.5-11.7-9.3-13.9c-5.9-2.1-13.2-1.9-15,1.1c-1.3,2.2-4.8,7.9-6.7,13.8l0,0c-0.7,2-1.1,4.1-1.3,6.1
			C1489.5,519.7,1496.7,528.7,1501.1,527.1z"/>
		<path fill="none" d="M1526,498.2L1526,498.2L1526,498.2z"/>
		<path fill="none" d="M1491.3,265.9c5-8.3,11.9-21,17.2-31.5C1508.3,234.8,1498.7,252.9,1491.3,265.9z"/>
		<path fill="none" d="M1526.4,499.1L1526.4,499.1L1526.4,499.1z"/>
		<path fill="none" d="M1577.7,626.9c-6.3,1.2-9.7,4.4-11.3,8.8c-1.6,4.4-2.5,9.9,2,13.8c1.5,1.3,12,4.7,15.7,2.8s6.7-6.6,7.3-12.4
			S1584,625.7,1577.7,626.9z"/>
		<path fill="none" d="M1495.3,490.5c0.1-0.1,0.2-0.2,0.2-0.2C1495.4,490.4,1495.3,490.4,1495.3,490.5c-1.6,1.8-2.8,3.2-3.6,4.6
			C1492.5,493.7,1493.7,492.3,1495.3,490.5z"/>
		<path fill="#A0592B" d="M1571,620.6c-15.8,8-15.1,21.6-15.2,22.2s-17.6-0.3-40.2-2.2s-31.2-8.3-31.2-8.3s7.4-13.8,9.9-23.9
			c2.5-10.1,6.2-24.3,8.1-43c1.5-15.5,2.3-22.6,2.5-24.6c0-0.4,0.1-0.6,0.1-0.6c16.1-4.4,24.5-13.4,28.5-22.2
			c2.6-5.7,3.3-11.2,3.1-15.5c-0.5-10.8-11.4-29.1-35.1-21.5c-16.9,5.4-23.6,13.6-24.9,24.1c-0.5,4.3-0.1,8.9,0.8,13.9
			c0.3,1.5,0.6,2.9,1,4.2c0.9,4,2.7,7.5,5.6,10.2c3.9,4.2,7.9,4.9,7.9,4.9s-1.2,5.5-3.1,30.5s-4.8,34.9-15.2,52.5
			c-10.5,17.6-27.4,30.3-27.4,30.3s0-2.8,0-7.7c0-16.1,0.1-55.3,1.3-97.7c1.6-55.5,0.3-65.1,1.3-72.2s7.2-10.3,13.6-25.2
			c6.4-14.9,8.2-23.5,8.6-49.6c0.5-26.1,4.4-61.1,4-69.6s3.3-9.5,5.7-17.1c2.4-7.5,12.9-21.9,23.1-48.8s16.6-42.4,18.9-50.3
			c0.8-2.7,1.1-4.8,1.1-6.5c-0.1-3.2-1.6-4.7-4.2-5.5c-3.9-1.1-6.1,3.5-17.8,26.8s-19.3,33.6-19.3,33.6c-3,11.9-2.1,19.5,4.5,10.5
			c1.1-1.6,2.6-3.9,4.3-6.7c7.4-13,17-31.1,17.2-31.5c-5.4,10.6-12.2,23.2-17.2,31.5c0,0,0,0,0,0.1c-7.5,13.1-6.4,15.7-11.7,13.3
			s-3.2-8.8-1.1-22.9s5.1-26.3,7.6-41.6c2.5-15.2,2.7-25.3,0-23.4c-2.7,1.9-12.5,29.8-18,46.8c-5.6,17-5.9,9.9-8.5,2.7
			c-2.5-7.2-4-29.1-8.2-33s-9.6-3.1-10.9,5.8c-1.3,8.9-1.7,23.1-5.5,46.3s-9.1,49.6-11.3,53.4c-2.3,3.8-7.5,3-14.5-2.3
			s-10.5-10.4-15.4-18s-8-7.3-8-7.3s-4.5-6.1-11.3-16.5c-6.7-10.4-16.2-25.6-22-33.4c-4.5-6-13.4-12.6-24.4-15.6
			c-0.6,0.7-1.1,1.4-1.5,2.3c-2.6,5.5-1.9,15,4,28.4c11.2,25.8,37.2,66.2,50.2,85s17.1,17,22.8,49.5s2.2,69-10.5,91.5
			c-12.4,21.9-17,52.9-6.4,86.8c0.3,0.9,0.6,1.8,0.9,2.7c2.9,8.7,5.1,16.5,6.9,24.1c5.4,23.2,6.6,44.3,10.5,79.9
			c5.1,46.3,4.6,111.8,1.9,210.4l19.2-8.3l7.4-5.5l19.1-14.1c0,0-5.8-149.1-5.9-156.8s1.7-10.2,11.2-22.2s23.7-23.7,29.6-27
			s6.1-1.5,14,1.3s6.3,2,9.5,5.9s12.5,15.8,12.7,16.3c0.2,0.6,3.5-1.8,3.5-1.8l-7.5-16c1.3,0.3,2.6,0.5,3.9,0.8
			c1.6,0.3,3.3,0.5,5,0.6c14.6,1.3,30.5-0.8,30.5-0.8s9.3,13.7,21.9,10.7s19.6-10.8,20.6-24.4S1586.8,612.6,1571,620.6z M1490.1,512
			c0.2-2,0.6-4,1.3-6.1l0,0c1.9-5.9,5.4-11.6,6.7-13.8c1.7-3,9.1-3.2,15-1.1s9.2,8.3,9.3,13.9c0.1,3.6,0.1,6.9-1,10l0,0
			c-0.6,1.7-1.6,3.4-3,5c-4.1,4.5-14.4,6.3-17.2,7.3C1496.7,528.7,1489.5,519.7,1490.1,512z M1525.5,497.2L1525.5,497.2
			L1525.5,497.2z M1526,498.2L1526,498.2L1526,498.2z M1526.4,499.1L1526.4,499.1L1526.4,499.1z M1495.5,490.3
			c-0.1,0.1-0.2,0.2-0.2,0.2c-1.6,1.8-2.8,3.2-3.6,4.6c0.9-1.3,2.1-2.8,3.6-4.6C1495.3,490.4,1495.4,490.4,1495.5,490.3z
			 M1591.3,639.9c-0.6,5.7-3.6,10.5-7.3,12.4c-3.7,1.9-14.2-1.5-15.7-2.8c-4.5-3.9-3.6-9.4-2-13.8c1.6-4.4,5-7.6,11.3-8.8
			C1584,625.7,1591.9,634.2,1591.3,639.9z"/>
		<path fill="#A0592B" d="M1352.5,231.6c5.5,6.5,19.2,25.8,31.1,40.4s17,20.3,26.7,30.9s10,10.4,13.5,1.8s8.4-47.1,10.1-66.6
			c1.7-18.6,6.2-42.5-0.2-48.9c-4.7,3.6-4.5,18-5.7,37.8c-1.8,27.2-8.5,82.5-8.5,82.5s-21-27-33-42.5s-32.5-44.8-46-49
			c-3.7-1.2-6.9-1.1-9.5,0.1C1341.9,223.6,1347.4,225.7,1352.5,231.6z"/>
		<path fill="#A0592B" d="M1465.6,230.7c2.7-2,8.2-16.9,12.5-30.9c2.1-6.9,2.9-12.8,3.1-16.9c-0.8,1.2-1.4,2.7-2,4.7
			c-2.5,8.4-13.6,40.8-13.6,40.8c-0.5-1.1-1-2.2-1.5-3.3C1463.9,229.5,1463.8,232.1,1465.6,230.7z"/>
		<path fill="#63330F" d="M1421.4,707.7c1.2,3.1,3.9,9.8,8.3,9.1c4.9-0.8,4.7-8.3,5-11.8c0.8-8.7,0.8-17.5,0.3-26.2
			c-0.8-17-3.4-33.9-4.7-50.8c-0.7-9.4-0.8-18.8-0.4-28.3c0.4-9.2,1.8-19.4-1.3-28.3c-0.2-0.6-1.1-0.5-1.1,0.1
			c0.2,15.1-1.8,30-1.4,45.1c0.4,14.8,2.3,29.6,3.9,44.3s2.8,29.4,1.4,44.1c-0.1,1.1-0.2,5.7-0.8,6.4c-1.2,0.2-2.3,0.4-3.5,0.6
			c-0.6-0.8-1.1-1.7-1.6-2.6c-1.6-3.1-2.6-6.6-3.4-10c-0.3-1.3-1.7-4.8-1.1-5.8c1.6-0.8,3.2-1.5,4.7-2.3c0.7,1.4,1,2.8,0.8,4.2
			c0,3.3-0.8,6.2-0.1,9.5c0.1,0.6,0.9,0.5,1.1,0c1.6-3.9,3-12.7-0.1-16.2c-2.8-3.1-7.1-1.5-8.7,1.9
			C1416.4,695.5,1419.6,703.1,1421.4,707.7z"/>
		<path fill="#63330F" d="M1416.4,646.7c0.3,1,2.1,0.9,1.9-0.3c-1.4-10.9-3.8-21.6-4.9-32.6s-1.9-21.9-2.1-32.9
			c-0.2-10.6,0.3-21.3-0.4-31.9c-0.7-10.4-0.8-21.7-3.3-31.9c-0.1-0.5-0.8-0.3-0.9,0.1c-0.9,10.8,1.1,22,1.6,32.7
			c0.4,11-0.2,21.9,0.1,32.9c0.3,10.7,1.1,21.4,2.4,32C1412.2,625.4,1413.5,636.4,1416.4,646.7z"/>
		<path fill="#63330F" d="M1438.8,606.9c-0.1-0.4-0.8-0.4-0.8,0.1c0,11.4-0.6,23,0.1,34.4c0.8,11.5,2,23,3.3,34.4
			c0.2,1.4,2.4,1.5,2.3,0c-0.8-11.8-1.8-23.6-3-35.3c-0.6-5.7-0.7-11.4-0.6-17.2C1440.3,617.8,1440.7,612,1438.8,606.9z"/>
		<path fill="#63330F" d="M1508.9,643.4c-0.4-0.2-0.9,0.3-0.5,0.7c4.4,3.5,4.8,9.1,7.4,13.7c2,3.5,4.4,8.3,7.3,11.1
			c0.5,0.4,1.5,0.3,1.6-0.4c0.7-4.7-3.3-8.5-6-12C1515.6,652.3,1513.8,645.9,1508.9,643.4z"/>
		<path fill="#63330F" d="M1563.1,650.3c-7.4-1.3-14.8-2.2-22.2-3.1c-3.8-0.4-7.6-0.9-11.5-1.2c-4.2-0.4-8.2-0.1-12.4-0.2
			c-0.5,0-0.5,0.7,0,0.8c0.1,0,0.3,0,0.4,0.1v0.1c0.4,1.3,1.4,1.9,2.4,2.7c1.3,1.2,2.6,2.5,3.7,4c1.6,0.3,3.3,0.5,5,0.6
			c-1.3-0.9-2.5-1.9-3.6-3c-1-1.1-2.4-2.7-3.9-3.8c2.4,0.5,4.8,1,7.4,1.2c3.8,0.4,7.6,0.8,11.5,1.2c7.6,0.9,15.2,2,22.9,2.9
			C1564.1,652.7,1564.4,650.6,1563.1,650.3z"/>
		<path fill="#63330F" d="M1423.3,752.8c0-5.6,0-11.1-0.1-16.7c0-5.3,0.4-10.7-0.6-15.9c-0.2-0.8-1.4-0.8-1.6,0
			c-2.1,10-0.9,21.4-1.1,31.6c-0.1,11.4-0.3,22.9-0.4,34.3c-0.2,22.8-0.6,45.6-2.3,68.3c-0.2,2.9,4.3,2.9,4.5,0
			c1.6-22.8,1.4-45.5,1.5-68.3C1423.3,775,1423.4,763.9,1423.3,752.8z"/>
		<path fill="#63330F" d="M1438.4,822c0.4,4.8,0.7,9.5,1.1,14.3c0.3,4.1,0.2,8.6,2.2,12.2c0.6,1.2,2.9,1.1,3.1-0.4
			c0.6-4.2-0.9-8.2-1.8-12.3c-1-4.9-1.9-9.8-2.3-14.8c-0.9-9.6-0.5-19.3-1.6-28.8c-0.1-0.9-1.2-0.9-1.4,0
			C1436.4,801.9,1437.5,812.4,1438.4,822z"/>
		<path fill="#63330F" d="M1489.6,600.8c-6.4,13.7-13.1,27.5-20.6,40.5c-7.2,12.4-17.6,23.7-20.6,38.1c0,0.1,0,0.2,0,0.3
			c-0.9,2.2-1.7,4.4-3.1,6.3c-0.4,0.5,0.6,1,0.8,0.5c0.9-2.1,2.3-4.1,3.3-6.2c0.1-0.2,0.2-0.4,0.3-0.7c3.6-5.9,5.7-12.8,9.2-18.9
			c3.8-6.6,8.8-12.4,12.6-19c7.5-12.9,12.6-27,18.8-40.5C1490.6,600.7,1489.9,600.3,1489.6,600.8z"/>
		<path fill="#63330F" d="M1457.1,434.9c2.1-4.2,4.8-8.5,5.2-13.3c0-0.4-0.6-0.6-0.8-0.2c-10.2,20-25.6,39.7-25.2,63.2
			c0,0.3,0.5,0.3,0.5,0c1.3-12.6,6.6-24.2,12.5-35.3C1451.9,444.4,1454.6,439.7,1457.1,434.9z"/>
		<path fill="#63330F" d="M1441.3,533.3c1.7-7.9,2.3-15.9,2.6-24c0.3-7.8,1.3-16.4-0.4-24.1c-0.1-0.4-0.8-0.4-0.8,0
			c-1.4,7.5-0.8,15.5-1.1,23.2c-0.4,8.3-1,16.6-1,24.9C1440.6,533.6,1441.2,533.7,1441.3,533.3z"/>
		<path fill="#63330F" d="M1414.5,454.1c-0.2-6.8,0.6-15.2-1.8-21.7c-0.1-0.4-0.7-0.4-0.8,0c-2.1,6.6-0.9,14.8-0.7,21.7
			c0.2,7.5,0.4,15.1,0.8,22.6c0.5,7.5,1.4,15,1.4,22.6c0,7.2-0.6,14.5,0.7,21.7c0.1,0.4,0.6,0.2,0.6-0.1c1-7.5-0.1-15-0.3-22.6
			c-0.3-7.5,0.3-15,0.3-22.6C1414.8,468.5,1414.7,461.3,1414.5,454.1z"/>
		<path fill="#63330F" d="M1433.3,535c0.7,1,1.4,2.5,1.5,3.3c0.1,0.6,1,0.6,1,0c-0.2-2,0-4.5-2-5.6c-0.3-0.2-0.7-0.2-1,0
			c-0.1,0.1-0.3,0.2-0.4,0.3c-0.4,0.2-0.6,0.7-0.5,1.1c0.3,0.8-1,4.1-1.2,4.9c-0.4,2-0.8,3.9-1,5.9c-0.3,2.5-1.3,6,0.6,8
			c0.8,0.9,2-0.7,1-1.3c-1.7-1,0.8-10.1,1.1-12.1C1432.7,537.9,1432.6,536.2,1433.3,535z"/>
		<path fill="#63330F" d="M1407.5,368.1c4.1,14.1,3.1,29.3,6.2,43.6c0.1,0.6,1.1,0.4,1-0.3c-3.3-14.3-0.3-29-3.9-43.3
			c-3.3-13-12.4-22.4-19.9-33.1c-8.3-11.8-13.3-25.9-19-39.1c-6.6-15.2-12.5-30.9-18.7-46.3c-0.2-0.4-0.9-0.3-0.7,0.2
			c4.8,15,10.3,29.7,16.1,44.4c5.3,13.4,9.9,27.6,17.7,39.7C1393.6,345.3,1403.6,354.9,1407.5,368.1z"/>
		<path fill="#63330F" d="M1431.7,449.5c-0.1,0.5,0.3,0.9,0.6,1c-2.9,29.4-6.5,58.9-7.4,88.5c-0.1,3.5,0,6.9-0.3,10.4
			c-0.2,2.2-0.3,4.4,0.1,6.6c0.4,2.5,2.4,7.6,5.7,7.6c2.8,0,3.7-4.9,4.4-6.8c2.1-5.7,2.8-11.4,1.4-17.3c-0.2-0.7-1.1-0.5-1.2,0.2
			c-0.6,5.3-1,10.6-2.3,15.7c-0.3,1.2-0.9,5-1.8,5.4c-2,0.9-3.4-1.8-3.9-3.2c-0.8-2.1-0.9-4.5-1.1-6.7c-0.4-5.3,0.9-10.5,1.2-15.8
			c0.3-6,0.7-11.9,1.2-17.9c2-22.3,2.9-44.6,4.8-66.9c0-0.1,0.1-0.1,0.1-0.2c3.3-16.9-1.3-33.5-6.2-49.6c-2.8-9.4-4.1-18.4-2.3-28.2
			c1.6-8.8,4.3-18.8,8.6-26.7c1.4-2.7,2.5-3.1,5-4.3c0.8-0.4,1.5-0.6,2-1.3c1.8-2,1.5-6,1.8-8.5c0.8-8.5,4.3-16.3,5.5-24.6
			c1.3-8.6,0.1-17.3,0.1-25.9c0-9.7-0.3-19.6-0.9-29.3c-0.1-0.9-1.3-0.9-1.3,0c-0.2,9-0.3,18.3,0.2,27.3c0.4,8.9,1.4,18.8-0.2,27.6
			c-0.8,4.3-2.9,8.2-3.9,12.4c-0.9,4-1.1,8.1-2,12.1c-0.6,2.5-0.8,4.6-2.3,6.7c-1.1,1.5-2.3,2.3-3.5,3.6c-1.8,2-2.8,4.4-3.7,6.8
			c-3.2,8.2-6.4,16.5-7.9,25.3c-1.3,7.7-0.6,14.8,1.1,22.3C1427.6,413.5,1434.6,430.8,1431.7,449.5z"/>
		<path fill="#63330F" d="M1468.5,332.8c0.1,0.1,0.3,0.2,0.4,0.1c1.1-0.4,0.4-1.7,0.1-2.4c-0.2-0.4-0.9-0.1-0.8,0.3
			c0.1,0.2,0.2,0.4,0.2,0.5s-0.1,0.3-0.1,0.5C1468.1,332.2,1468.2,332.6,1468.5,332.8z"/>
		<path fill="#63330F" d="M1470.2,365.5c0-5.5-0.4-11.1-0.5-16.6c-0.1-5.1,0.3-10.8-1.3-15.7c0-0.1-0.2-0.1-0.2,0
			c-1.2,4.7-0.5,9.9-0.3,14.7c0.2,5.6,0.6,11.1,0.4,16.7c-0.4,11.6-3.3,22-8.2,32.5c-4.3,9.1-9.7,17.5-14,26.5
			c-4.5,9.4-6.2,18.5-7,28.8c-0.1,1.4,2.3,1.4,2.2,0c-0.7-22,15.2-39.8,23.1-59.3C1467.8,384.4,1470.2,374.9,1470.2,365.5z"/>
		<path fill="#63330F" d="M1458.3,361c-1.6,12.6-2.5,32.2-12.6,42.3c-0.6-0.7-1.8-0.9-2.5-0.1c-1.2,1.3-3.7-1.4-4.6-2.5
			c-1-1.3-1.4-3.3-1.8-4.9c-0.8-3-1.1-6.2-1.4-9.3c-0.5-6-1-12.3-0.3-18.3c0.3-2.9,0.9-7.6,3.2-9.6c4.7-4.1,5.5,3.7,5.4,7
			c-0.1,3-0.4,6-0.6,9.1c-0.1,1.5-0.2,3.1-0.2,4.6c0,0.6,0,1.2-0.1,1.8c0.4,1.6-0.4,2.6-2.5,2.7c0-0.1-0.1-0.1-0.1-0.1l0,0
			c-0.2-0.7-1.3-0.2-0.8,0.5c0.1,0.1,0.2,0.3,0.4,0.4l0,0c1,2.4,3.4,1.9,5,0.1c3.2-3.7,2.2-11.8,2.6-16.3c0.4-4.8,1.1-11.1-3.5-14.3
			c-3.4-2.4-7.1-1-8.9,2.4c-5.6,10.6-3.8,25.9-1.8,37.2c0.8,4.3,2.4,11,6.2,13.7c0.4,0.3,0.9,0.5,1.4,0.7c0.2,0.6,0.9,1.2,1.6,0.7
			c0.3-0.2,0.7-0.4,1-0.6c1-0.2,1.9-0.8,2.4-1.7c9.8-8,12.2-21.9,14-34c1.2-8.2,2-16.5,3-24.8c1.1-9,2.6-17.9,2.5-27
			c-0.2-17-3.2-33.5-0.5-50.5c1.2-7.9,3.3-15.6,6.1-23.1c3.2-8.5,8.2-15.9,11.8-24.1c0.4-0.9-0.6-1.9-1.4-1.1
			c-2.5,2.4-4.6,5.4-6.4,8.5c1.1-7.2,2.3-14.4,4-21.5c2.1-8.8,6.2-17.5,6.7-26.6c0.1-1-1.4-1.1-1.7-0.2c-2.5,9.4-6,18.5-8.1,28
			c-1.7,8-2.4,16-3,24.1c-1.2,2.3-2.3,4.6-3.4,6.8c-3.2,6.9-5.7,14.1-7.7,21.4c-4.1,15.3-4.1,30.7-2.3,46.3
			C1461.3,325.9,1460.5,343.6,1458.3,361z"/>
		<path fill="#63330F" d="M1492,534.5c-5.6-2.1-9.1-6.2-10.6-12.1c-1.3-5.2-1.1-11.2-0.2-16.4c0.8-4.6,3-8.6,4.8-12.9
			c0.3-0.8-0.9-1.2-1.3-0.6c-5.3,7.3-8.7,20.5-6.3,30.8c0.9,4,2.7,7.5,5.6,10.2c0.7,0.6,1.4,1.2,2.2,1.7c4.1,2.7,8.6,2.2,11.2,7.1
			c3.2,5.8,1,10.4-0.7,16.2c-2.7,9.6-4.2,20.2-4.8,30.2c0,0.3,0.4,0.3,0.5,0.1c3.3-10,4.7-20.3,7.3-30.4c1.7-6.7,3.6-13.5-1.2-19.5
			C1496.7,536.5,1494.7,535.5,1492,534.5z"/>
		<path fill="#63330F" d="M1443.7,222.2c0.2,1.1,1.7,0.7,1.8-0.2c0.8-7.6-0.9-15.7-2.9-23c-1-3.6-2.3-8.6-5.7-10.7
			c-0.5,0-1,0-1.5,0.1c0,0,0,0.1,0.1,0.1C1443.1,197.1,1442.1,211.6,1443.7,222.2z"/>
		<path fill="#63330F" d="M1390.1,491.6c0.1-0.4-0.5-0.6-0.6-0.2c-5.8,15.2-4.6,33.3-4.7,49.3c-0.1,7.7,0.7,15.4,1.9,23.1
			c0.3,0.9,0.6,1.8,0.9,2.7c2.9,8.7,5.1,16.5,6.9,24.1c-1.4-16.5-6.3-32.4-6.6-49C1387.5,525.1,1387,507.8,1390.1,491.6z"/>
		<path fill="#63330F" d="M1375.1,280.4c0.1,0.3,0.5,0.1,0.5-0.2c-1.9-6.9-5.6-12.6-9.7-18.3c-4.6-6.6-9.1-13.4-13.8-19.9
			c-5.8-8.1-13.1-20.3-24-21.8c-0.6,0.7-1.2,1.5-1.6,2.5c12.6,4.2,19,15.1,26.7,25.4C1360.9,258.5,1369.8,268.4,1375.1,280.4z"/>
		<path fill="#63330F" d="M1415.1,1191.7c0.9,14,3.8,27.9,5.9,41.8c0.2,1,1.7,0.6,1.5-0.4c-2.1-14.8-5-30-5.3-45
			c-0.2-14.3,1.2-28.6,1.2-42.9c-0.1-29.5-1-59.2-5.6-88.3c-0.2-1-1.7-0.7-1.7,0.2c-0.4,30.4,3.3,60.7,3.8,91
			C1415.1,1162.6,1414.2,1177.2,1415.1,1191.7z"/>
		<path fill="#63330F" d="M1431.9,1189.8c0,0.2,0.3,0.1,0.3,0c-2.5-20.3-1.5-40.7-1.4-61.1c0-10.2-0.1-20.5-0.2-30.7
			c-0.1-5.1-0.6-10.2-1.1-15.3c-0.4-3.9-0.2-8-1.7-11.6c-0.2-0.4-0.7-0.1-0.7,0.2c-0.6,4.9,1,10.2,1.2,15.2
			c0.2,5.1,0.4,10.2,0.6,15.3c0.3,9.9-0.4,19.8-0.7,29.7C1427.6,1151.1,1428.2,1170.5,1431.9,1189.8z"/>
		<path fill="#63330F" d="M1444.9,1262.7c-1.8-15.2-2.5-30.6-2.6-46c-0.1-15.6,1.3-31.5,0.4-47.1c-0.1-0.9-1.2-0.9-1.4,0
			c-1.9,14.8-1.5,30.2-1.5,45.1c0,15.3,0.4,30.7,1.3,46c0.8,14.4,3.2,28.6,5.4,42.8c1.1,7.6,1.8,15.3,2.3,23
			c0.5,7.6-0.8,14.7-1.5,22.2c-0.1,1.2,1.8,1.8,2.4,0.6c2.7-5.8,3.3-12.8,3.8-19.1c0.5-7.2-0.4-14.3-1.4-21.4
			C1449.8,1293.5,1446.8,1278.2,1444.9,1262.7z"/>
		<path fill="#63330F" d="M1456.7,1303.7c0,1,1.8,1.4,1.9,0.3c1.4-10.4,0.8-21.5,0.1-31.9c-0.7-10.5-2.3-21.3-5.3-31.5
			c-0.1-0.5-0.9-0.4-0.9,0.1c1.3,10.5,2.8,20.8,3.6,31.3C1457,1282.6,1456.4,1293.1,1456.7,1303.7z"/>
		<path fill="#63330F" d="M1408.9,1354.4c-0.4,19,0,38.1,2.4,57.1c0.9,7,1,15.5,5.8,21.2c2.2,2.6,5.6,4.6,8.8,4.4
			c2.5,0.5,5.2,0,7.4-1.6c5.2-3.7,6.9-11.7,7.5-17.7c0.5-5.2,2.2-36.3-10.8-30.4c-4.7,2.1-6.7,10.8-7.8,15.1
			c-1.1,4.4-2.3,10.9,1.9,14.1c8,6.1,15.9-11.4,7.1-16.2c-0.9-0.5-1.7,0.1-1.8,1c-0.4,3.2-0.9,6.3-1,9.5c0,1.2,1.7,1.2,1.9,0
			c0.3-2.5,0.5-4.9,1-7.3c1.2,1.5,1.6,3.6,1.7,5.5c0.5,2.6-0.3,4.9-2.7,7c-1.7-0.5-3.4-1-5.1-1.5c-1.6-1.6-0.6-8-0.2-9.9
			c0.6-3.1,1.6-6.3,2.7-9.3c0.3-1.2,0.8-2.4,1.5-3.5c1.9-0.3,3.7-0.6,5.6-0.9c1.8,0.9,2.4,4.3,2.7,6.1c1.9,9.3,2.7,35.5-9.9,36.7
			c-8.4-1-10.8-9.2-12.1-17.2c-1.4-8.6-2.1-17.3-2.6-26c-1-17.1-0.7-34.4-0.2-51.5c0.5-17.2,1.3-34.4,1.2-51.6
			c-0.1-8.3-0.4-16.5-1.1-24.8c-0.7-8.1-0.9-16.9-3-24.8c-0.2-0.6-1-0.5-1,0.1c0.1,10.1,1.9,20.2,2,30.3c0.2,9.5,0.1,19.1,0,28.6
			C1410.3,1316.2,1409.3,1335.3,1408.9,1354.4z"/>
		<path fill="#63330F" d="M1425.6,1468.6c4.7,2,10-0.1,13.3-4c4.5-5.4,5.8-13.8,7.1-20.5c1.8-8.6,3.3-17.2,3-26
			c-0.3-8-0.7-16.6-2.9-24.4c-2.3-8.1-5.2-15-10.3-21.8c-5.9-7.9-7.5-16.5-9.2-26c-3.6-20.1-5.2-40.8-4.5-61.2c0-0.8-1.2-0.8-1.3,0
			c-1.6,17.4-1.5,34.7,0.8,52.1c1,7.7,2.4,15.4,4.3,22.9c1.8,7.2,6,12,9.9,18.2c8.9,14,12.7,29.2,11.2,45.8
			c-0.7,8-4.6,53.4-21.5,41.9c-0.6-0.4-1.6-0.2-1.9,0.5c-1.9,4.6-4,9.1-5.7,13.7c-1,2.7-1.7,5.4-2.3,8.2c0-0.1,0-0.1,0-0.2
			c-0.1-0.5-0.7-0.3-0.8,0c-3,7.5-2,16.5-1.4,24.4c0.7,9,1.2,17.9,1.2,26.9c0,18.5-2,36.9-3,55.4c-1,18.1-0.6,36.2,0.6,54.3
			c1.2,17.6,1.4,35.6,4,53.1c0.1,0.9,1.5,0.7,1.5-0.2c0.1-17.9-2.4-36-3.2-53.9c-0.8-18.1-1-36.2,0.1-54.3
			c1.1-18.1,2.9-36.3,3.3-54.5c0.2-9-0.3-17.9-1-26.9c-0.5-5.9-0.4-12-0.8-18c1.5-4.2,3.5-8.3,4.9-12.5
			C1422.6,1477.3,1424,1472.9,1425.6,1468.6z"/>
		<path fill="#63330F" d="M1453,1617.6c-2.7-9.1-8.6-17.5-10.2-26.9c-1-5.6,0.2-11.2,1.5-16.6c0.9-4,1.7-8.3,4.1-11.8
			c2-2.9,5.4-4.6,6.7-7.9c1.5-3.8,1-8.5,1-12.4c0-10.3-0.2-20.6-0.7-31c-0.5-9.7-0.4-19.5-2.2-29.1c-0.1-0.6-0.9-0.4-0.9,0.1
			c-0.4,10.3,0.9,20.6,1.1,30.9s0.3,20.6,0.2,31c0,2.7,0.3,5.7-0.3,8.3c-0.9,3.7-3.2,4.8-5.8,7.1c-2.4,2.1-4,4.7-5.2,7.6
			c-2.7,6.8-4.5,15.6-3.7,22.9c1,9,6.3,17,9,25.6c2.9,9.3,4.7,18.8,6,28.5c2.7,20.6,4.2,41.4,5.8,62.1c0.1,1.9,3.1,1.9,3,0
			c-1.6-20.3-3.1-40.5-4.7-60.8C1456.7,1636,1455.6,1626.5,1453,1617.6z"/>
		<path fill="#63330F" d="M1412.4,1682c1.3,7.7,0.3,16,0,23.7c-0.2,4.3-0.6,8.5-1,12.8c1,0.3,2.1,0.5,3.2,0.8
			c0.4-4.5,0.6-9.1,0.8-13.5c0.3-8.3-1.2-15.7-2.3-23.8C1413.1,1681.3,1412.3,1681.4,1412.4,1682z"/>
		<path fill="#63330F" d="M1427.5,1656.9c0.1-3.8,0.1-7.7,0.2-11.5s0.7-7.8-0.2-11.6c-0.1-0.4-0.7-0.4-0.8,0
			c-1.1,3.7-0.8,7.8-1,11.6c-0.2,3.8-0.4,7.7-0.6,11.5c-0.4,8.6-0.6,17.2-0.7,25.9c-0.1,12.6,0.6,25.4,2.6,37.9
			c1.4,0.1,2.9,0.1,4.4,0.2c-2.6-13.2-3.6-26.5-4-40C1427.2,1672.9,1427.4,1664.9,1427.5,1656.9z"/>
		<path fill="#63330F" d="M1440.9,1671c-0.1-4.6,1.1-11.1-1.7-15c-0.3-0.4-0.8-0.4-1.1,0c-2.6,3.8-1.4,9.6-1.4,14
			c0,6.2,0,12.4,0.1,18.6c0,10.7-0.4,21.5,0,32.3c1.6,0,3.2,0,4.9,0c0.2-10.7-0.4-21.5-0.5-32.3
			C1441.1,1682.8,1441,1676.9,1440.9,1671z"/>
		<path fill="#63330F" d="M1468.3,1651.5c-0.8-7.2-2.8-14.3-3.4-21.5c0-0.5-0.9-0.5-0.8,0c0.9,7.1,0.6,14.3,1.3,21.5
			c0.8,7.5,1.5,15,2.2,22.5c1.2,13.3,1.6,26.9,3.5,40.2c1.9-0.8,3.7-1.5,5.3-2c-1.1-13.1-3.7-26.2-5.4-39.2
			C1470,1665.8,1469.1,1658.7,1468.3,1651.5z"/>
		<path fill="#FC9779" d="M1352.5,231.6c5.5,6.5,19.2,25.8,31.1,40.4s17,20.3,26.7,30.9s10,10.4,13.5,1.8s8.4-47.1,10.1-66.6
			c1.7-18.6,6.2-42.5-0.2-48.9c-4.7,3.6-4.5,18-5.7,37.8c-1.8,27.2-8.5,82.5-8.5,82.5s-21-27-33-42.5s-32.5-44.8-46-49
			c-3.7-1.2-6.9-1.1-9.5,0.1C1341.9,223.6,1347.4,225.7,1352.5,231.6z"/>
		<path fill="#FC9779" d="M1465.6,230.7c2.7-2,8.2-16.9,12.5-30.9c2.1-6.9,2.9-12.8,3.1-16.9c-0.8,1.2-1.4,2.7-2,4.7
			c-2.5,8.4-13.6,40.8-13.6,40.8c-0.5-1.1-1-2.2-1.5-3.3C1463.9,229.5,1463.8,232.1,1465.6,230.7z"/>
		<path fill="#FC9779" d="M1487,272.6c1.1-1.6,2.6-3.9,4.3-6.7c7.4-13,17-31.1,17.2-31.5c3.3-6.6,6.1-12.3,7.4-15.7
			c3.1-8,5.6-12.7,7.9-11.5c-0.1-3.2-1.6-4.7-4.2-5.5c-3.9-1.1-6.1,3.5-17.8,26.8s-19.3,33.6-19.3,33.6
			C1479.5,274,1480.4,281.7,1487,272.6z"/>
		<path opacity="0.3" fill="#091426" enable-background="new    " d="M1433.9,824.2c0.5-19.6-0.5-18.2-0.7-36.9s-2.7-34.4-6.5-49.7
			s-3.9-40.7-5.4-74.2c-1.5-33.6-2.5-92.3-1.5-129.8s1.2-77.5,2.1-89.8s1.5-18.2,5.2-26.1s9.1-25.6,12-38.7s4.7-13.3,14.7-37.6
			s16.5-31.4,16.5-31.4c8.4-0.5,12.7-8.4,18.9-19.8c6.2-11.3,17.4-39.4,20.5-48.1s-1-7.7-1-7.7l0,0c-5.4,10.6-12.2,23.2-17.2,31.5
			c0,0,0,0,0,0.1c-7.5,13.1-6.4,15.7-11.7,13.3s-3.2-8.8-1.1-22.9s5.1-26.3,7.6-41.6c2.5-15.2,2.7-25.3,0-23.4
			c-2.7,1.9-12.5,29.8-18,46.8c-5.6,17-5.9,9.9-8.5,2.7c-2.5-7.2-4-29.1-8.2-33s-9.6-3.1-10.9,5.8c-1.3,8.9-1.7,23.1-5.5,46.3
			s-9.1,49.6-11.3,53.4c-2.3,3.8-7.5,3-14.5-2.3s-10.5-10.4-15.4-18s-8-7.3-8-7.3s-4.5-6.1-11.3-16.5c-6.7-10.4-16.2-25.6-22-33.4
			c-4.5-6-13.4-12.6-24.4-15.6c-0.6,0.7-1.1,1.4-1.5,2.3c-2.6,5.5-1.9,15,4,28.4c11.2,25.8,37.2,66.2,50.2,85s17.1,17,22.8,49.5
			s2.2,69-10.5,91.5c-12.4,21.9-17,52.9-6.4,86.8c0.3,0.9,0.6,1.8,0.9,2.7c2.9,8.7,5.1,16.5,6.9,24.1c5.4,23.2,6.6,44.3,10.5,79.9
			c5.1,46.3,4.6,111.8,1.9,210.4l19.2-8.3l7.4-5.5C1433.5,860.4,1433.5,840.3,1433.9,824.2z"/>
		<path opacity="0.3" fill="#091426" enable-background="new    " d="M1444.1,661.1c6.8,6,16.8-3.5,27.1-21.5
			c10.3-18,14.9-28.2,19.9-52.9s7.4-45.8,7.4-45.8h6.2c0-0.4,0.1-0.6,0.1-0.6c16.1-4.4,24.5-13.4,28.5-22.2c0-0.1,0-0.3,0-0.4
			c0.6-8.4-0.3-6.1-4.7,0.1c-4.4,6.2-10.5,16-25.7,13.9c-15.1-2.1-18.2-9.9-19.6-17.8s3.4-15.9,1.8-18.9c-1.3-2.5-5.6,2.2-8.8,10.2
			c-0.5,4.3-0.1,8.9,0.8,13.9c0.3,1.5,0.6,2.9,1,4.2c0.9,4,2.7,7.5,5.6,10.2c3.9,4.2,7.9,4.9,7.9,4.9s-1.2,5.5-3.1,30.5
			s-4.8,34.9-15.2,52.5c-10.5,17.6-27.4,30.3-27.4,30.3s0-2.8,0-7.7C1440.3,651.2,1438.4,656.1,1444.1,661.1z"/>
		<path opacity="0.3" fill="#091426" enable-background="new    " d="M1498.1,492.1c1.7-3,9.1-3.2,14.9-1.1
			c5.9,2.1,9.2,8.3,9.3,13.9c0.1,3.6,0.1,6.9-1,10c5.5,1.1,9.6-10.6,2.4-20.4c-8-10.9-21.9-11.4-28.5-3.9c-5.6,6.3-6.5,8.7-3.9,15.4
			C1493.3,500,1496.8,494.3,1498.1,492.1z"/>
		<path fill="#254214" d="M1524.8,664.8c-3.9,4.6-8.1,9.4-12,23.6c-3.9,14.2-2,26.1,4.4,35.2c6.4,9.1,9.8,10.1,9.8,13.6
			c0.1,3.5,1,5.4,3.3,0s7.5-9.8,8.5-27.9c1-18.1-6.5-35.4-9.7-40.1C1525.8,664.4,1524.8,664.8,1524.8,664.8z"/>
		<path opacity="0.3" fill="#091426" enable-background="new    " d="M1449.3,1619.2c0.5-24.7,3.9-31.5,2.2-46.8
			c-1.7-15.3-11.6-81.7-22.8-130.2c-11.2-48.6-4.7-73.1-4.7-111.5s3.7-76.5,5.6-129.6s5.9-93.1,5.9-93.1s12-9.5,33.1-17.5l5.5-29.8
			l-6.5-43.2l-13,4.3l-62.7,36l-4,47.2l10.4,36.5c0,0,0.1,34.5,0.9,83.4s-4.3,88.8,0,141.5s2.4,63.2,4.2,92.8
			c1.8,29.6-6.5,98.3-6.5,142.5c0,44.1,3,103.3,5.5,110.9c0.9,2.8,4.3,4.7,9,6.1c1,0.3,2.1,0.5,3.2,0.8c3.7,0.7,7.9,1.2,12.4,1.4
			c1.4,0.1,2.9,0.1,4.4,0.2c1.8,0.1,3.6,0.1,5.4,0.1c1.6,0,3.2,0,4.9,0c0.3,0,0.6,0,0.9,0c7.8-0.1,14-1.5,19-3.2
			c-2.6-13.9-8.1-42.8-10.1-51.5C1448.8,1654.8,1448.8,1643.8,1449.3,1619.2z"/>
		<path opacity="0.3" fill="#091426" enable-background="new    " d="M1453,1279.4c-5.3-7.2-9.1-16.1-10.9-30.9
			c-1.9-14.8-1.6-44.3-3.7-47.5c-2.2-3.1-4.5,3.3-5.6,15.6c-1.1,12.3,0.5,30.9,1.6,40s-1.9,9.4-1.9,9.4s-1.2,7,6,38.1
			s5.5,50.7,9.7,71.8c3.5,17.3,9.7,69.7,15.8,96.8c-0.8-26.6-1.6-52.8-3.1-69.7c-3.7-41.9-1.8-65.2,3-92.8
			c2.5-14.5,4.2-24.6,4.7-33.3C1461.3,1282.6,1457.4,1285.2,1453,1279.4z"/>
	</g>
	<g id="_x31_0_x5F_Props_x5F_WizardWand_x5F_Tentacle">
		<path fill="#282828" class="main-body-fill" d="M1556.4,1036c-14.7,58.8-36.7,87.7-43.6,101.2s-5.4,8.6-15.5,13.2c-10,4.6-36.4,7.3-36.4,7.3l-0.6-30.4
			l-1.7-89.3c0,0-11.9,11.3-26.8,21.3c-14.8,9.9-32.6,18.1-32.6,18.1l-0.9,64.1c0,0-14.3-8.3-21.4-15s-7.4-13.8-14.4-24.5
			s-3.1-19.4-3.1-19.4c-24.8-4.1-32.4-20.8-32.4-30.2c0-0.5,0-0.9,0-1.3c0.4-7.9,5.6-7.4,11.1-17c0.4-0.8,0.8-1.6,1.1-2.4
			c3.5-10.1-3.8-24.1-3.8-24.1c-7.1-12.9-12.4-24.5-14.1-37.7s4.3-35.1,22.8-58.3c1.4-1.8,2.9-3.5,4.4-5.3
			c18.1-21,41.9-38.9,53.3-46.9c10.7-7.5,30.8-20.9,59.1-17.5c4.5,0.5,9.3,1.5,14.3,3.1c35.7,11,58,25.2,78.7,60.5
			C1574.5,940.8,1571.1,977.2,1556.4,1036z"/>
		<path opacity="0.3" fill="#091426" enable-background="new    " d="M1359.4,1082.6c0,0-3.9,8.7,3.1,19.4
			c7,10.7,7.3,17.8,14.4,24.5s21.4,15,21.4,15l0.9-64.1C1377.4,1086.7,1359.4,1082.6,1359.4,1082.6z"/>
		<path fill="#494949" class="secondary-body-fill" d="M1453.1,1035.4c-11.5,10.5-37.6,29.1-57,37.8s-40.6,5.8-55.9-4.4c-7.3-4.8-11.1-11.7-13.2-17.7
			c0,0.4,0,0.9,0,1.4c0.1,9.3,7.7,26.1,32.4,30.2c0,0,17.9,4.1,39.8-5.2c0,0,17.8-8.1,32.6-18.1s26.8-21.3,26.8-21.3
			c14-14,16.9-23.4,16.9-23.4S1464.6,1024.9,1453.1,1035.4z"/>
	</g>
	<g id="_x31_0_x5F_Props_x5F_WizardWand_x5F_Shadow">
		<path opacity="0.3" fill="#091426" enable-background="new    " d="M1383.3,1044.2c28.1-1.8,45.4-10.3,63-25
			c17.6-14.7,37.7-31.1,41-35.3s1.3-5-9.7,1.3s-49,16.2-72.2,14.3c-23.2-1.8-44.1-20.7-53.7-37c-7.9-13.5-10.2-31.7-3.3-56.2
			c-1.5,1.7-3,3.5-4.4,5.3c-18.5,23.2-24.5,45.2-22.8,58.3c1.7,13.2,7,24.8,14.1,37.7c0,0,7.3,13.9,3.8,24.1
			C1348.2,1039.9,1360.3,1045.6,1383.3,1044.2z"/>
		<path opacity="0.3" fill="#091426" enable-background="new    " d="M1497.3,1150.4c10-4.6,8.6,0.3,15.5-13.2s28.9-42.3,43.6-101.2
			c14.7-58.8,18.1-95.3-2.6-130.6s-42.9-49.4-78.7-60.5c-5-1.5-9.7-2.5-14.3-3.1c-9.7,1.4-10.3,4.9,6.9,7.3c21.6,3,63,32.9,75,72
			s2.8,76.5-7.8,111.2c-10,33.1-41.6,91.1-74.7,94.9l0.6,30.4C1460.9,1157.7,1487.3,1155,1497.3,1150.4z"/>
	</g>
</g>
</svg>
