<?xml version="1.0" encoding="utf-8"?>
<!-- Generator: Adobe Illustrator 21.0.2, SVG Export Plug-In . SVG Version: 6.00 Build 0)  -->
<svg version="1.1" id="Layer_1" xmlns="http://www.w3.org/2000/svg" xmlns:xlink="http://www.w3.org/1999/xlink" x="0px" y="0px"
	 viewBox="0 0 2000 2000" enable-background="new 0 0 2000 2000" xml:space="preserve">
<g>
	<g id="_x31_3_x5F_Props_x5F_Treasure__x28_SCU_x29__x5F_Tentical">
		<g>
			<path fill="#282828" d="M1685.6,1102.4c-1.4,2.4-3.1,5.2-5.1,8.2c-11.3,16.8-33.6,40.6-80.5,48.6c-55.2,9.4-82.3,0.6-95.1-5.6
				l-3.9,5.5c0,0-16.9,5.2-56.8,0.7c-4.7-0.5-9.1-1.4-13.3-2.6c-31.9-8.7-50.8-33.6-57.8-42.4c-7.8-10-15.8-28.2-15.8-28.2
				s0-0.3,0.1-0.9c0.7-5.7,4.4-37,10.5-63.2c2.5-10.5,5.5-24.5,11.6-32.6c9.7-13,25.1-18.1,42-21.9c1.7-0.4,3.3-0.7,5.1-1
				c29.1-4.6,99.1,59.4,103.5,63.5c0.1,0.1,0.2,0.2,0.2,0.2s0-0.1,0.1-0.2c0.6-2-6.8-24.8,1.3-53.8c8.1-28.9,18.1-43.7,36.1-51.8
				c1.4-0.7,9.4-1,11-1.6c21.9-7.9,58.1-1.3,64.8,11.1c3.2,6,6.8,7.9,7.8,11.3c1,3.7,4.3,6.4,3.5,9.8c0,0,1.6,3.4,7.5,6.5
				c6.8,3.5,2.9,17.2,8.5,27.2c4.7,8.2,9.2,17.1,13.1,26.4c4.9,11.6,8.8,24.1,10.9,37.1C1698.5,1075.9,1694.9,1086.4,1685.6,1102.4z
				"/>
		</g>
		<path fill="#494949" d="M1530.4,1030.4l-0.1,0.2c-5.2,17.6-34.7,34.1-61.1,19.2c-26.4-15-53.2-40.2-80.9-56.5
			c-11.2-5.7-13.2,9.6-18.6,20.6c9.8-41.3,30.2-54.1,57.9-62.6c29.1-4.6,97.6,74.7,102.4,79.1L1530.4,1030.4L1530.4,1030.4z"/>
	</g>
	<g id="_x31_3_x5F_Props_x5F_Treasure__x28_SCU_x29__x5F_Shadow">
		<path opacity="0.3" fill="#091426" enable-background="new    " d="M1501,1159.1l3.9-5.5c12.8,6.2,39.9,15,95.1,5.6
			c46.9-8,69.1-31.7,80.5-48.6c-34.9,13.1-71.7,25.4-109.2,27.3c-19.5,1-38.7-1.5-57.8-5.6c-17.3-3.8-35.6-7.4-50.5-17.5
			c-7.6-5.1-14.2-11.4-21.2-17.2c-5.9-4.8-12.7-11-20.7-11.5c-1.6-0.1-2.2,1.9-1.2,3c2.3,2.5,4.9,4.8,7.7,6.9
			c5.7,7,6.4,18.6,6.8,26.9c0.5,11.6-0.8,23.1-3.5,34.3c4.2,1.2,8.6,2,13.3,2.6C1484.1,1164.2,1501,1159.1,1501,1159.1z"/>
		<path opacity="0.3" fill="#091426" enable-background="new    " d="M1588.7,958.7c-5.2,1.2-10.5,2.5-15.6,4
			c-4.3,1.2-9.8,2.4-13,5.7c-0.8,0.8-0.5,2.3,0.7,2.5c3.9,1,8.3-0.4,12.3-1.2c5-1,9.9-2.2,14.9-3.1c9.6-1.7,20.1-1.9,29.8-1.9
			c10,0,19.8,2,29.5,4.1c0.8,0.2,1.5,0.3,2.3,0.5c-5.8-3-10.3-4.2-10.3-4.2c0.9-3.4,1-6.3,0-9.9c-6.5-1-12.9-1.6-19.6-1.5
			C1608.9,954,1599.1,956.3,1588.7,958.7z"/>
		<path opacity="0.3" fill="#091426" enable-background="new    " d="M1360.4,1080.5c-0.1-1.1-0.1-2.2-0.2-3.3
			c0.7-1.3,1.3-2.7,1.9-4c3.4-7.4,6.5-15,10.9-21.9c9.1-14.4,26.9-19.5,43-21.1c17.9-1.8,34.6,2.6,52.1,5.8
			c8.5,1.5,16.9,2.5,25.5,2.7c7.8,0.2,16.2,0.4,19.9,8.5c0.2,0.5,0.5,0.9,0.8,1.3c-2.7,1.9-5.9,3.6-9.5,4.8
			c-7.8,2.6-16.9,2.6-24.8,0.2s-14.4-7.6-22-10.6c-0.6-0.2-1.2,0.6-0.8,1.1c6.7,11.2,23.7,18.5,36.3,19.5c14.7,1.2,28.1-4.3,37.1-16
			c19.5-25.6,9.7-60.2,23-88.1c4.9-10.2,11.8-19.1,20.5-26c-18,8.1-22.6,21.7-30.7,50.6c-8.7,31.3-13.2,46.7-13.2,46.7
			s-69.8-84.4-99.9-79.7c-19.2,3-42.3,15.8-50.8,37.1c-6.1,8.2-9.3,23.9-11.8,34.4c-6.1,26.2-9.8,57.5-10.5,63.2
			C1359.2,1084.9,1360.5,1083.2,1360.4,1080.5z"/>
	</g>
	<g id="_x31_3_x5F_Props_x5F_Treasure__x28_SCU_x29__x5F_Main_Asset">
		<g>
			<path fill="#F9C92B" d="M1758.2,958.9c-1.6-2.5-7.6-3.3-10.6-3.6c-1.1-0.1-1.7-0.1-1.7-0.1c0.1-1.2,0.2-2.7,0.3-4.2
				c0.1-1.9,0.1-4.1,0.1-6.5c0-0.9,0-1.7,0-2.6c0-1.4,0-2.9,0-4.5c0-0.9,0-1.8,0-2.8c0-2.9,0-6.1,0-9.5c0-1.3,0-2.7,0-4.2
				c0-2.6,0.1-5.3,0.1-8.1c0-0.7,0-1.3,0-2c0.1-2.4,0.1-4.9,0.2-7.4c0-1,0.1-2.1,0.1-3.2c0-0.5,0-0.9,0.1-1.4
				c0.1-2.3,0.2-4.5,0.3-6.5c0.1-1.3,0.1-2.5,0.2-3.6c0.1-1,0.1-2,0.2-2.9c0.1-1.6,0.2-3.1,0.4-4.5c0.2-2.4,0.4-4.5,0.7-6.4
				c0.1-0.7,0.2-1.4,0.2-2.1c0.6-4.5,1.2-8,1.7-13.2c0-0.4,0.1-0.8,0.1-1.3c0.7-7.4-0.7-13.9-2.1-18.9c-1-3.8-1.9-6.7-1.9-8.6
				c0.1-3.3,0.9-4.8-0.2-6.7c-0.3-0.5-0.7-1.1-1.4-1.7c-0.2-0.2-0.4-0.4-0.7-0.6c-2.2-1.9-4.1-2.4-6.7-2.8c-0.6-0.1-1.3-0.2-2-0.3
				c-1.8-0.2-3.8-0.5-6.3-1.1c-1.2-0.3-2.2-0.5-3.1-0.7c-0.7-0.1-1.4-0.2-2.1-0.3c-4.1-0.5-6.3,0.1-9.3,2.2l0,0c0,0-10.5,17.4-1.6,9
				c8.9-8.3,16.7-3.9,20.4-0.9c3.7,3,12.6,24.9,12.6,24.9s0.2,9.3-0.8,17c-0.6,5.1-1.3,5.6-1.7,5.4c-0.1-0.1-0.4-0.6-0.5-1.5
				l-1.6-9.3l-3,3.2c0,0,0.1,7.2,0.3,17.3c0,2,0.1,4,0.1,6.2c0.2,12.4,0.5,27.5,0.7,39c0.5,23.7,2,26.7,2,26.7
				c-0.8,0.5-1.5,1.1-2.2,1.7c-1.3,1.2-2.5,2.6-3.6,4.4c-1.4,2.4-2.5,5.7-3.2,10.2c-1.6,9.9-0.7,17.7,3.2,20.8
				c3.9,3.1,16.2,10.1,22.1-2.8c1.6-3.5,2.5-7.1,2.9-10.6C1762.3,969.9,1759.8,961.3,1758.2,958.9z"/>
			<path fill="#E69C18" d="M1736.1,992.9c3.9,3.1,16.2,10.1,22.1-2.8c1.6-3.5,2.5-7.1,2.9-10.6c-1.6,5.7-4,10.6-7.2,13
				c-4.9,3.6-8.1,3.2-10.9,2.3c-2.8-0.8-9.5-3.1-9.6-12.3c-0.1-7.6,0.3-13.2,2.6-20.5c-1.4,2.4-2.5,5.7-3.2,10.2
				C1731.2,982,1732.2,989.8,1736.1,992.9z"/>
			<path fill="#E69C18" d="M1737.9,970.2c-2,8.1-1.4,12.6-0.6,16.5c0.9,4,2.9,5.9,7.1,5.4c4.1-0.5,7.5-5.7,7.1-13
				S1737.9,970.2,1737.9,970.2z"/>
			<path fill="#E69C18" d="M1741.8,863.4l-3,3.2c0,0,0.1,7.2,0.3,17.3l4.3-11.2L1741.8,863.4z"/>
			<path fill="#E69C18" d="M1744.9,957.4c1.4-0.6,2.2-1.4,2.7-2.1c-1.1-0.1-1.7-0.1-1.7-0.1c0.1-1.2,0.2-2.7,0.3-4.2l-2.8,3.7
				c0,0-1.1-6.4-0.4-7.5c0.4-0.6,2-1.9,3.2-2.8c0-0.8,0-1.7,0-2.6c-1.5,1.7-3.5,3.1-3.5,3.1c0-2.9-0.5-4,0.8-5.3
				c0.6-0.6,1.7-1.6,2.7-2.3c0-0.9,0-1.8,0-2.8c-1.7,2.6-3.8,3.8-3.8,3.8s-0.4-8.9,0.2-10c0.4-0.7,2.2-2.2,3.6-3.3
				c0-1.4,0-2.7,0-4.2l-4,5.4c0,0-0.5-6.7,0-8.7c0.3-1.1,2.4-3.3,4-4.9c0-0.7,0-1.3,0-2l-4.2,5.2c0,0-0.4-4.9,0.4-7.1
				c0.5-1.3,2.6-3.8,4.1-5.5c0-1,0.1-2.1,0.1-3.2c0-0.5,0-0.9,0.1-1.4l-4,5.5l0.2-7.1l4.1-4.9c0.1-1.3,0.1-2.5,0.2-3.6l-4.3,6
				c0,0-0.3-1.8,0.6-4.6c0.5-1.6,2.3-3,3.9-4.3c0.1-1.6,0.2-3.1,0.4-4.5l-3.1,4.3c0,0,0-4.6,1.4-7.4c0.5-1.1,1.5-2.2,2.4-3.3
				c0.1-0.7,0.2-1.4,0.3-2.1c-0.8,1.1-1.6,2-2.1,2.2c-2,0.8-1.1-1.8,1.1-8c0.7-2,1.7-4.7,2.7-7.5c0-0.4,0.1-0.8,0.1-1.3
				c0.7-7.4-0.7-13.8-2.1-18.9l-10.1-11.6l7.9-3.7c-0.3-0.5-0.7-1.1-1.4-1.7c-0.9,0.5-1.8,0.9-2.9,1.1c-3.5,0.6-9.1-0.2-9.8-0.8
				c-0.4-0.3,2.8-2.3,5.3-3.7c-0.6-0.1-1.3-0.2-2-0.3c-1.5,0.6-3.5,1.3-5.2,1.2c-3.4-0.1-6.1-1-6.1-1l1.9-2
				c-0.7-0.1-1.4-0.2-2.1-0.3c-1.8,1.8-4.4,4.1-6.5,4.1c-2.5,0-3.6,0.2-2.9-1.9l0,0c0,0-10.5,17.4-1.6,9s16.7-3.9,20.4-0.9
				s12.6,24.9,12.6,24.9s0.2,9.3-0.8,17c-0.6,5.1-1.3,5.6-1.7,5.4c-0.4,2.4-1,5.6-1.9,9c-0.9,3.3-1.9,5.1-2.8,6.9
				c0.2,12.4,0.5,27.5,0.7,39c0.5,23.7,2,26.7,2,26.7c-0.8,0.5-1.5,1.1-2.2,1.7C1741,957.9,1743.1,958.2,1744.9,957.4z"/>
			<path fill="#FDECB2" d="M1754.6,958.9c-0.9-1.4-3.7-1.2-3.7,0.7c-1,2-0.8,4.3,2.1,4.8h0.1c1.9,4.5,2.7,9.9,3.4,14.4
				c0.1,0.6,0.9,0.5,1.1,0C1759.2,972.3,1758.5,964.6,1754.6,958.9z"/>
			<path fill="#6241CE" d="M1739,981.3c1.3,2.9,0.1,3.7,1.2,4.8c1.2,1.1,2.3,0.9,5.1-0.7c2-1.2,2.5-2.9,2.8-5.4l-1.4,0.4l-2.7-5.8
				l-2.7-2l-2.7-0.8l1.6-6.4c-2.1,2.5-3.4,6.9-3.4,11.9c0,0.6,0,1.2,0.1,1.7C1737.7,979.4,1738.5,980.1,1739,981.3z"/>
			<path fill="#775AD6" d="M1741.4,972.5l5.2-7.6c-0.3-0.5-0.5-1-0.8-1.4c-0.5-0.2-1-0.3-1.5-0.3c-1.4,0-2.7,0.8-3.9,2.1l-1.6,6.4
				L1741.4,972.5z"/>
			<path fill="#C0B1F0" d="M1746.6,964.9l-5.2,7.6l2.7,2l4.5-2.8C1748.4,969.7,1747.9,967.4,1746.6,964.9z"/>
			<path fill="#765AD5" d="M1748.6,971.8l-4.5,2.8l2.7,5.8l1.4-0.4c0.1-0.9,0.2-2,0.3-3.1C1748.6,975.3,1748.7,973.6,1748.6,971.8z"
				/>
			<path fill="#3F2F8B" d="M1744.3,991.2c3.7,0,6.7-5.2,7.2-12l-3.3,0.9c-0.3,2.5-0.8,4.2-2.8,5.4c-2.8,1.6-3.9,1.8-5.1,0.7
				s0-1.9-1.2-4.8c-0.5-1.2-1.3-1.9-2-2.4C1737.4,985.8,1740.5,991.2,1744.3,991.2z"/>
			<path fill="#5C4DA3" d="M1751.6,977.2c0,0.7,0,1.3-0.1,2l-3.3,0.9c0.1-0.9,0.2-2,0.3-3.1c0.1-1.6,0.3-3.2,0.1-5.1
				c-0.2-2.1-0.7-4.4-2-6.9c-0.2-0.5-0.5-1-0.8-1.5c0.4,0.2,0.9,0.4,1.3,0.8c1.6,1.2,2.9,3.5,3.7,6.3
				C1751.2,972.5,1751.6,974.8,1751.6,977.2z"/>
		</g>
		<path fill="#FEB04B" d="M1734.7,825.7c0,0-20.2-0.2-21,0S1581.5,725,1506,726.4c-7.3,0.1-14.8,0.3-22.2,0.6l-3.1,0.1
			c-8.4,0.3-16.9,0.8-25.1,1.2l-3.3,0.2c-4.4,0.3-8.8,0.5-13.1,0.8c-8.9,0.6-17.4,1.2-25.6,1.9c-3.7,0.3-7.4,0.6-10.9,0.9
			c-2.6,0.2-5.2,0.5-7.7,0.7c-28.5,2.6-47.8,4.9-47.8,4.9c-22.7,17.3-32.2,66-27,88.3c4.7,20.5,15.6,45.1,33.1,47
			c1.6,0.2,3.2,0.2,4.9,0c20.3-2.7,40.7-7.7,40.7-7.7l22.5,102.6l6.5,29.7l55.8,37.3l46.3-4.5h0.3c0.5-1.8,4-13.9,10.4-36.6
			c0.3-1-5.9-4.3-5.7-5.3c0.6-2.2,0.2-11.6,0.9-14c8.1-28.9,19.3-41.3,37.3-49.4c1.4-0.7,8.7-2,10.3-2.6c21.9-7.9,51.3,2.7,58,15.1
			c3.2,6,5.1,11.4,6,14.8c1,3.7,0.8,6.7,0,10.1c0,0,3.5-0.3,9.4,2.8c2.7,1.4,2.8,2.5,5.7,4.8c2.8,2.2,1.2,9.7,3.8,12.8
			c1.2,1.5,2.4,3.2,3.5,4.9c0.3,0.5,0.5,0.9,0.5,0.9c0.1,0.1,0.2,0.3,0.2,0.4c0.4,0.8,0.9,1.5,1.3,2.3c3.6,6.6,7.2,13.5,10.4,20.8
			c0.5,1.1,0.9,2.2,1.4,3.3l14.6-1.4c0.2-0.8,0.3-1.5,0.5-2.3c1.4-6.6,2.8-13.3,4.2-20.1c0.2-1,0.4-2,0.7-3.1
			c8-36.9,17.5-75,27.6-98.2c4.4-10.2,9.3-20.2,13.8-28.8c0.6-1.1,1.1-2.2,1.7-3.2c7.2-13.8,12.9-23.3,12.9-23.3L1734.7,825.7z"/>
		<path fill="#3D3E41" d="M1471.5,737.4c8.6-0.5,9.2-0.3,9.2-2.3s-0.5-1.6-6.1-1.6s-9.9-0.2-11.1,1
			C1462.3,735.8,1464.4,737.9,1471.5,737.4z"/>
		<path fill="#FFD8A7" d="M1395.4,746.6l7.4-14.5c-2.6,0.2-5.2,0.5-7.7,0.7l-7.9,14.8L1395.4,746.6z"/>
		<path fill="#FFD8A7" d="M1432,742.4l7.3-13.1c-8.9,0.6-17.4,1.2-25.6,1.9l-6.6,14L1432,742.4z"/>
		<path opacity="0.3" fill="#091426" enable-background="new    " d="M1683.7,1015.4l14.6-1.4c0.2-0.8,0.3-1.5,0.5-2.3l-16.5,0.4
			C1682.8,1013.2,1683.2,1014.3,1683.7,1015.4z"/>
		<path opacity="0.3" fill="#091426" enable-background="new    " d="M1701.4,858.5c-39.6,0.7-73.2,2.1-73.2,2.1l0.1,2.6l6.5,36
			l-43.6-1.4l1.6-61.5l-17.5-9.9l-2.3,9.1l14.9,6.4l-1.6,22.2c0,0-30.6,1.9-51.6,3.8s-41.6,4.9-83.8,7.4c0,0-4.5-15.8-4.8-17
			s1.1-2.9,18.4-17.4l-2.2-1.2l-17.1,15c0,0-48.3-21.6-50.4-22.9s-2.6-2.9,18.4-7.8l1,1.5c0,0-3.8,1.2-4.4,4.2s0.9,5.6,7.5,5.5
			s8.8-0.9,12.2,0.4s5.2,3.7,12.4-1.1s26.8-34.6,26.8-34.6l-43.1,8.1l3.2,9.8l-35.8,9.6l-45.6-87.1l27.2,13l6,13.6l73.8-8.8
			l8.4-13.5l23.8-1.9l-6.4,12.1l15-0.4l4.2-15.8l-10.8,0.9l-4.8-12.8c-1,0-2,0.1-3.1,0.1l4.9,12.8l-23.6,2.2l-6.3-13.8
			c-1.1,0.1-2.2,0.1-3.3,0.2l7.1,14l-83.2,9.1l-28.9-14c-22.7,17.3-32.2,66-27,88.3s17.7,49.7,38,47s40.7-7.7,40.7-7.7l22.5,102.6
			l6.5,29.7l55.8,37.3l46.3-4.5h0.3c0.5-1.9,4.3-15,11.2-39.6h-13.3l-12,39.1l-33,3.4l-6.4-27.8l45.9-10.4l-7-1.1l-38.9,9.2
			c0,0-9.1-38.2-14.9-76s-10.5-48.6-10.5-48.6l37.6-1.6l96.1,29.8l53.9-0.4l19.1,68.5c4.2,3.2,8.4,7.5,11.7,12.8
			c1.4-2.7,5.8-11.6,10.4-28.5c5.6-20.8,24-98.4,24-98.4l40.8,0.7c0.6-1.1,1.1-2.2,1.7-3.2C1740.6,858.2,1727.3,858.1,1701.4,858.5z
			"/>
		<path fill="#926B3B" d="M1393.7,829.7l-0.7-2.2c-2.3,0.3-2.7,2.1-5.3,9.2c-2.5,6.8-12.6,28.2-34.2,36.4c1.6,0.2,3.2,0.2,4.9,0
			c20.3-2.7,40.7-7.7,40.7-7.7l-7.5-34.5L1393.7,829.7z"/>
		<path opacity="0.3" fill="#091426" enable-background="new    " d="M1670.7,989c0.4,0.8,0.9,1.5,1.3,2.3l31.1,0.3
			c0.2-1,0.4-2.1,0.7-3.1l-33.3,0.1C1670.5,988.8,1670.6,988.9,1670.7,989z"/>
		<path fill="#FFD8A7" d="M1479.1,1007.3l5.3,24.7l11.6-1.1l22.9-28l5.6-0.4l0.9-3.1c0,0-12.8,2.1-26.1,3.7
			S1479.1,1007.3,1479.1,1007.3z"/>
		<polygon fill="#FFD8A7" points="1478.3,1002.9 1474.5,984.9 1499.9,954.6 1507,996.1 		"/>
		<polygon fill="#FFD8A7" points="1469.4,961.3 1466.5,945.9 1493,917 1495.2,933.7 		"/>
		<path fill="#FFD8A7" d="M1447.9,857.9l115.4-9.6l-19.4,18.9l15.9-1.2l22.6-22.2c0,0-31.6,1.3-59.8,3.9
			c-28.2,2.6-71.2,6.4-72.9,7.1C1447.9,855.5,1447.9,857.9,1447.9,857.9z"/>
		<path opacity="0.3" fill="#091426" enable-background="new    " d="M1606.6,847.9c3.7-4.3,5.8-5.7,8.6-2.3
			c2.8,3.5,3.1,5.9,2.6,8.8c-0.5,2.9-2.4,4-2.4,4l0.6,4c0,0-0.5,1.3-2,2.3c0,0,4.6,20,4.3,24.3l-3.9,0.5l-3.7-1.6l-6.8-29.7
			L1606.6,847.9z"/>
		<path fill="#FFD8A7" d="M1618.3,888.9c-0.4,1.8-1.9,1.3-6.3,2s-6.5,4.7-6.5,4.7s-7.2,0.6-9.2,0s-2.5-0.2-1.9-8.5
			s1.9-40.1,1.9-40.1l9.9-10.1c0,0-11.2,1-12.1,0.7s-0.8-2,5.6-2.2s22-0.6,24.2,0c2.1,0.6,4.2,25.3,4.2,25.3l1.1,8.3l-9.6,10.8
			l-3.4-21.2c0,0,2.8-0.6,2.7-6.2c-0.1-5.6-2.7-10.1-8.2-10s-12.2,5.4-7.4,12.7c4.8,7.3,10.7,33.4,10.7,33.4L1618.3,888.9z"/>
		<path fill="#434343" d="M1603.4,850.4c1.1-2.3,4.2-5.8,8.1-2.1s4.6,6.4,3.1,10.3c-1.6,3.8-3.7,3.6-3.7,3.6s1.1,6.3,2.4,12.9
			c1.3,6.6,1.6,13.4,1.6,13.4l-13.9,1.8c0,0,3.2-14.4,4.8-19.5c1.6-5,1.6-6.7,0.9-8.5s-3-1.8-4.3-5.2
			C1601.1,853.8,1603.4,850.4,1603.4,850.4z"/>
		<polygon fill="#FFD8A7" points="1700.6,890.8 1707.8,860.9 1732,861.4 		"/>
		<path fill="#FFD8A7" d="M1632.3,860.5c0-0.6-2-22.2-2-22.2l125.8-4.6l3.5,1.3l-20.8,20.6l-55,1.6l20.4-18.7l-41.5,1.2l-19,20.4
			L1632.3,860.5z"/>
		<path fill="#FFD8A7" d="M1677.1,991.4c-1.3,0.3-2.1,2.4,0,3s23.3,0.7,23.3,0.7l1.1,3.9l1.6-7.4L1677.1,991.4z"/>
		<path fill="#FFD8A7" d="M1424,811.5c-1.2,2.3-8.2,4.3-8.2,4.3l-1.7,3.7l-20.9,5.5l-2.6-5.1l4.5-9.4c0,0-13.1-32.8-16.5-40.4
			c-3.4-7.6-2.6-13.3-2.6-13.3l4.5,10.2L1424,811.5z"/>
		<path fill="#492916" d="M1376.8,833l-32.2-57.4c0,0-9.5,4.8-13,22.9s1.8,33.3,10.6,42.1C1350.8,849.2,1367.5,848.7,1376.8,833z"/>
		<polygon fill="#492916" points="1402.9,816.3 1379.5,764.4 1500.3,749.6 1464.5,804 		"/>
		<path fill="#492916" d="M1423.1,877.6c0.2,0.4,14.5,8.3,14.5,8.3l20.6,104l-17.5-9.5L1423.1,877.6z"/>
		<g>
			<path fill="#64320F" d="M1628.4,862.7c0,0,0.6,5,1.4,11.3c0.6,5.2,1.3,11.3,1.8,16.3c0.1,0.7,0.1,1.4,0.2,2
				c0.4,3.8,0.6,6.6,0.5,7.4c-0.2,3.2-1.5,3-1.5,3s0,0-4.5,0s-42-2-42-2v-34c-30.3,3-101.3,9.2-101.3,9.2l22.5,120.6l2.3-0.2
				l33.1-2.6c0.3-1,0.5-1.8,0.8-2.8c0.6-2.2,1.3-4.3,2-6.7c0.5-1.7,0.9-3.2,1.4-4.8c0.3-1.2,0.7-2.3,1-3.5
				c2.9-9.9,5.5-17.5,8.8-23.8c0.7-1.2,1.3-2.4,2.1-3.6c4.2-6.6,9.1-11.2,17.1-14.8c1.4-0.7,3.1-1.4,4.7-2c21.9-7.9,47-2,54.1,9.5
				c0,0.1,1.8,3.2,2.3,4.2c2.2,4.5,3.4,7.3,4.1,10.1c1,3.7,0.6,6.7,0,9.9c0,0,3.6,0.9,7.7,2.7c1,0.5,1.7,0.8,2.9,1.4
				c0.5,0.3,1.3,0.7,1.8,1c2.3,1.3,4.1,2.4,6.5,4.3c0.1,0.1,0.8,0.5,0.8,0.6c2.7,2.1,5.1,4.2,7.5,7.2l25.5-121.1L1628.4,862.7z"/>
			<path opacity="0.3" fill="#091426" enable-background="new    " d="M1666.4,982.8l25.5-121.1l-63.4,1c0,0,0.6,5,1.4,11.3
				c16.2-0.2,32.3-0.2,48.5-0.3c-1.1,5.3-1.9,10.7-3,15.9c-14.6,0-29.1,0.2-43.6,0.6c0.1,0.7,0.1,1.4,0.2,2
				c14.3-0.5,28.6-0.5,42.9-0.1c-1.7,7.8-3.3,15.6-4.9,23.4c-1.8-0.1-3.7,0-5.5,0c-3.6-0.1-7.2-0.1-10.8-0.2
				c-7.5-0.1-15.1-0.2-22.6-0.1c-15.1,0.1-30.2,1-45.1,2.7c-11.7,1.4-23.3,2.9-35,4.5c-0.1-0.6-0.3-1.3-0.7-1.8
				c1.6-2.2,1.6-5.1,0.2-7.2c0.1-0.3,0.2-0.7,0.4-1c0.6-1.5,0-3.4-1.1-4.7c0.2-0.6,0.4-1.3,0.4-2c0-1-0.4-2.2-0.9-3
				c0-0.1-0.1-0.2-0.3-0.4c0.1,0.3,0.1,0.6,0,0c0-0.1-0.1-0.1-0.1-0.2l0,0c0,0.1,0.1,0.1,0.1,0.2c0,0,0,0,0-0.1
				c0-0.2-0.1-0.5-0.2-0.6c-0.1-0.5-0.1-0.9-0.3-1.4c-0.1-0.3-0.3-0.6-0.4-0.8c0.1-0.1,0.1-0.2,0.2-0.3c9.5-1.2,18.9-2.4,28.4-3.3
				c0,5.5-0.1,10.1-0.1,11.8c0,4.3,0.9,4.6,3.8,4.3s37.3-0.4,41.2-0.4s3.1,0,6.1-3.5c3.1-3.5,3.6-5.1,3.6-5.1s0,0-4.5,0s-42-2-42-2
				v-34c-30.3,3-101.3,9.2-101.3,9.2l22.5,120.6l2.3-0.2c-0.7-4.4-1.4-8.8-2.1-13.2c4.5-0.5,9-1.3,13.4-1.7
				c6.6-0.6,13.1-1.1,19.7-1.7c2-0.2,4-0.4,6-0.5c0.3-1.2,0.7-2.3,1-3.5c-2.3,0.1-4.6,0.1-7,0.3c-7.2,0.3-14.5,1-21.7,1.9
				c-3.9,0.5-8,0.8-12.1,1.3c-1.1-6.5-2.1-13.1-3.2-19.6c0.3,0,0.7,0,1-0.1c0.1,1.1,0.2,2.2,0.5,3.4c1,4.1,6.8,5.6,9.7,2.7
				c0,1,0.1,2,0.2,2.9c0.3,2.9,2.6,5.9,5.8,5c0.6-0.2,1.1-0.5,1.5-0.9c0.1,0.2,0.3,0.4,0.4,0.6c1.9,2.3,5.1,0.6,6-1.6
				c0.2-0.6,0.3-1.2,0.3-1.8c2.5,2,5.8,0.8,6.9-2.1c0.2-0.5,0.4-1.1,0.3-1.7c0.1-0.6,0.1-0.8,0-0.4c0.1-0.4,0.1-0.9,0.2-1.3
				c0.6-0.1,1.1-0.4,1.5-0.9c0.2-0.4,0.5-0.8,0.7-1.2c1.3,0.5,2.8,0.3,3.8-0.9c1.7-2.1,2.4-4.1,2.7-6.8c0-0.4,0-0.8,0-1.2
				c3.7-0.5,7.4-0.9,11.1-1.4c0.7-1.2,1.3-2.4,2.1-3.6c-4.5,0.5-8.9,1.1-13.4,1.7c0-0.5-0.1-1.1-0.1-1.6c0.3-0.2,0.6-0.3,0.8-0.5
				c0.2-0.2,0.4-0.3,0.7-0.5c-0.3,0.3-0.4,0.3,0,0c1-0.7,1.7-1.6,2.4-2.7c0.9-1.5,1.7-3.5,1.6-5.2c-0.2-2.2-1.5-4.5-3.8-5
				s-4.7,0.3-5.9,2.4c-0.7,1.1-0.9,2.4-1.3,3.7c-0.1,0.4-0.3,0.8-0.4,1.2s-0.1,0.7-0.1,0.9c-0.1,0.3-0.1,0.4,0,0.1l0,0
				c-0.2,0.4-0.3,0.8-0.4,1.2c-1,0.6-1.8,1.7-1.8,3.2c0,1.1,0,2.3,0.1,3.5c-0.9-0.1-1.8,0.1-2.5,0.8c-6.1,0.8-12.3,1.5-18.4,2.3
				c-1-2.8-1.7-5.7-3-8.4c-0.6-1.2-1.4-1.9-2.3-2.2c-0.2-2.9-0.9-5.7-2.3-8.6c-0.4-0.8-0.8-1.4-1.4-1.8l0,0
				c11.5-2.1,23-4.3,34.5-6.2c-0.1,1,0.1,2.1,0.2,3.2c0.2,1.4,1.6,2.9,2.7,3.6c1.3,0.8,3.2,1.1,4.6,0.6c3-1,5.2-4.2,4.2-7.4
				c-0.1-0.4-0.2-0.8-0.3-1.3l0,0c0-0.2,0-0.3,0-0.5c12.1-1.8,24.3-3.3,36.5-4.1c14.4-0.9,28.8-1.9,43.2-2.3
				c7.2-0.2,14.4-0.4,21.6-0.3c3.9,0.1,7.9,0.2,11.8,0.4c1.7,0.1,3.3,0.3,4.9,0.4c-0.1,0.4-0.2,0.8-0.2,1.1c-1.5,7.5-3,15-4.4,22.5
				c-10.4-0.1-21-0.4-31.3-0.2c0.6,1.1,1.2,2,1.7,3c9.6-0.2,19.5-0.2,29,0.4c-0.3,1.6-0.6,3.2-0.9,4.9c-1,5.2-2.1,10.5-3,15.9
				c-4.6,0.5-9.1,1-13.7,1.6c1,0.5,2.2,1,3.4,1.6c0.5,0.3,1,0.5,1.5,0.8c2.8-0.3,5.5-0.7,8.3-1c-0.3,2-0.6,3.9-0.9,5.9
				C1661.2,977.2,1663.9,979.8,1666.4,982.8z M1537.2,942.5L1537.2,942.5L1537.2,942.5L1537.2,942.5z M1526.6,955.5
				c-0.2,0.3-0.5,0.6-0.7,0.9c-0.6,1-1,2.2-1.2,3.4c-0.8-0.4-1.8-0.6-2.7-0.3c-0.2-0.2-0.5-0.4-0.8-0.6c-2-1.3-4.2-0.8-5.8,0.6
				c0-0.7,0-1.4-0.1-2.1C1519,956.7,1522.8,956.1,1526.6,955.5z M1491.7,894.9c-0.8-3.5-1.9-7-3.2-10.4c16.9-1.9,33.8-4,50.7-5.9
				c-1.1,1.5-2.1,3.1-2.5,4.8c-0.5,2.3,0.1,4.4,1,6.4c-0.7,1-1.3,2.1-1.4,3.2c-0.2,1.6,0.1,3.2,0.8,4.6c-14.3,1.9-28.9,3.7-42.8,7.4
				C1493.5,901.7,1492.5,898.4,1491.7,894.9z M1502.2,955.3c-0.3,0.1-0.6,0.1-0.9,0.1c-0.2-1-0.3-2-0.5-3c0.7,0.2,1.4,0.3,2.1,0.3
				c0.2,0.8,0.3,1.5,0.4,2.3C1503,955.2,1502.6,955.2,1502.2,955.3z M1540.3,923.8c-12,1.7-24,3.4-36,5c-0.5-1.8-1-3.6-1.6-5.3
				c-2-5.4-4.6-11.4-8-16.3c0-0.2-0.1-0.4-0.1-0.6c14.4-1.5,28.6-4.5,42.9-6.4c0.4-0.1,0.8-0.1,1.2-0.2c-0.4,1-0.7,2.1-0.7,3.1
				c0,1.9,0.6,4.4,2,5.8c-1.1,1.3-1.9,2.7-2.1,4.6c-0.4,2.7,0.5,5.8,2.7,7.6c0.2,0.2,0.5,0.3,0.7,0.5
				C1540.8,922.4,1540.6,922.8,1540.3,923.8z M1547.1,884.3c0.7-1.4,0.7-3.8,1-5.2c0.1-0.5,0.1-0.9,0.1-1.4
				c9.3-0.9,18.6-1.7,27.9-2.2c0.3,5.5,0.4,12.2,0.4,18c-9.3,0.8-18.5,1.7-27.8,2.7c0-0.8-0.2-1.6-0.4-2.3c1.5-1.7,1.7-4.2,0.6-6.4
				c-0.4-0.8-0.8-1.6-1.2-2.4C1547.4,884.9,1547.2,884.6,1547.1,884.3z M1548.5,901.8C1548.5,901.8,1548.5,901.9,1548.5,901.8
				C1548.6,901.9,1548.6,901.9,1548.5,901.8C1548.5,901.9,1548.5,901.8,1548.5,901.8z M1550.5,922.4
				C1550.4,922.1,1550.4,922.1,1550.5,922.4L1550.5,922.4z"/>
		</g>
		<g>
			<path fill="none" d="M1582,705.5l-7,9.6c0.1,1.9-0.4,3-0.4,3l0.4,0.3l1.5,1.1c0,0,0.3,0,0.6-0.4c0.2-0.3,0.5-0.7,0.7-1.4
				c0.6-1.7-0.2-2.5-0.2-2.5s4.4-4.8,4.9-6.7S1582,705.5,1582,705.5z"/>
			<g>
				<path fill="none" d="M1582,705.5l-7,9.6c0.1,1.9-0.4,3-0.4,3l0.4,0.3l1.5,1.1c0,0,0.3,0,0.6-0.4c0.2-0.3,0.5-0.7,0.7-1.4
					c0.6-1.7-0.2-2.5-0.2-2.5s4.4-4.8,4.9-6.7S1582,705.5,1582,705.5z"/>
				<path fill="#E69C18" d="M1750.2,736.5c-2.4-4.5-12.5-17.2-25.3-22c-10.2-3.8-18.6-5.6-24.5-3c-1.5,0.7-2.9,1.6-4,2.9
					c-5.7,6.2-19,23.5-19.2,38.2s6.3,23,6.3,23l-4,6.5c-0.8-2.5-4.8-5.2-4.8-5.2c2.3-6.3,3.3-11.9,1.3-14.9c-0.6-0.9-1.5-1.6-2.8-2
					c-2.6-0.7-4.8,0.6-6.5,2.1c-1.7,1.6-2.7,3.4-2.7,3.4s-0.1-0.7-1-2.3c-0.7-1.4-2.1-3.5-4.3-6.5c-5-6.6-8.5-5.5-8.5-5.5
					c-14.7-27.7-51-24.2-51-24.2l-8.7-0.3c0,0,0.1-3.7-2.5-6.8c0-0.1-0.1-0.1-0.1-0.2c-1.1-1.2-2.2-2.1-3.1-2.6
					c-1.4-0.8-2.4-1-2.4-1c4.5-5.2,5.2-9.9,4-12.3c-1.2-2.4-2.9-4.3-6.5-1.7c-2.6,1.9-5.6,6.6-7,9c-0.5,0.9-0.8,1.5-0.8,1.5
					c-0.4-0.4-0.8-0.8-1.2-1.2c-9.6-8.7-26.9-9.6-30.1-7c-0.7,0.5-1.2,1.1-1.6,1.6c-0.9,1-1.3,1.9-1.4,2.5c-0.2,0.6-0.1,0.9-0.1,0.9
					l-3.8,1.2c0,0-4.3-3.7-9.2-3c-1.2,0.2-2.2,0.6-2.9,1.1c-2.4,1.7-3.1,4.5-3.1,4.5s-5.9,1-10.7,4.3c-1.4,1-2.8,2.2-3.8,3.7
					c-4.6,6.3-2,10-2,10s-5.2,3.3-7.5,11.3s0.5,12.3,0.5,12.3l-31.3,47.7l-6.2,8.3l-0.3,0.4c-2.2-2.5-15.8-4.8-21,5
					c-0.2,0.4-0.4,0.8-0.6,1.2c-4.3,9.2-0.9,16.1-0.9,16.1l27.5,9.8c8.6-0.4,17-0.9,24.9-1.4c2.2-0.1,4.3-0.3,6.4-0.4
					c8.4-0.5,16.3-1,23.7-1.6c1.8-0.1,3.5-0.2,5.2-0.4c1.3-0.1,2.6-0.2,3.9-0.3c3.2-0.2,6.3-0.5,9.3-0.7c26.2-2,42-3.5,42-3.5v-6.5
					l2.9-0.7l24.1-5.8l6.1,2.9l5,2.4l8.3,4l58.3-3.7l19.6-1.3l13.4-0.9l1.2-10c0.1-0.9,0-2-0.3-3.3c-0.9-3.4-3.4-8-7.7-12
					c-4.8-4.4-10.7-3.7-13-3.2c-0.6,0.1-1,0.2-1,0.2l-0.3-2.2c2.4-1.3,4.1-3.7,5.2-5.4c0.7-1.1,1-1.9,1-1.9s2.6,1,6.9,0.8
					c4.4-0.1,10.6-1.3,17.8-5.8c3.4-2.1,6.2-4.6,8.5-7.2c7.4-8.3,10.2-18.3,14-24.8C1752.2,742.3,1752.6,741,1750.2,736.5z
					 M1577.9,717.7c-0.2,0.7-0.5,1.1-0.7,1.4c-0.3,0.4-0.6,0.4-0.6,0.4l-1.5-1.1l-0.4-0.3c0,0,0.5-1,0.4-3l7-9.6c0,0,1.1,1.2,0.5,3
					s-4.9,6.7-4.9,6.7S1578.4,716,1577.9,717.7z"/>
			</g>
			<path fill="#F9C92B" d="M1624.6,793.6c-2.3,3.3-2.3,8.6-2.3,8.6s5.6-2.3,14.6-2.7s11.8,3.9,11.8,3.9s9.3-3.9,14.2-7.9
				s2.9-9.2-8.6-10.8S1626.8,790.3,1624.6,793.6z"/>
			<path fill="#F9C92B" d="M1640.8,802.8c-8.7-0.8-18.2,0.8-18.9,3.8c-0.9,3.4-0.4,8.4,8.8,10.8s13.1-0.8,14.8,2.6
				c0,0,4.3-1.8,5.4-6.9S1649.5,803.6,1640.8,802.8z"/>
			<path fill="#F9C92B" d="M1488.3,828l-1.6-3.7c0,0-8.5,2.2-14.3,1c-5.9-1.2-4-4.2-4-4.2s-11.7,1.7-13.7,3.7c-1.9,2-0.2,4.2,13.7,5
				C1482.1,830.6,1488.3,828,1488.3,828z"/>
			<path fill="#F9C92B" d="M1708.3,800.3c-4.8-4.4-10.7-3.7-13-3.2c-0.9,4.9-6.2,11.8-6.2,11.8s3.6-0.6,7.6,3s5.1,6.9,5.1,6.9
				l9.1,1.1c0,0,3.3-4.7,5.2-7.6C1715.2,808.9,1712.7,804.3,1708.3,800.3z"/>
			<path fill="#F9C92B" d="M1683.2,811.7l-4.2,8.2c2.2,1.4,2.9,6,3.1,7.8l19.6-1.3c0.4-1.8,0.3-5.7-4.4-10.2
				C1690.8,810.1,1683.2,811.7,1683.2,811.7z"/>
			<path fill="#F9C92B" d="M1604.3,802.6c-10.1-3.4-14.9,0-21.3,3.3c-6.5,3.3-13.5,8.3-12.6,13.4c0.7,4.2,4.4,7.1,10.1,8.7l24.1-5.8
				c0,0,5.8-3.1,7.8-7.9S1614.4,806,1604.3,802.6z"/>
			<path fill="#F9C92B" d="M1556,807.1c-3.5-2.3-9.5,0.1-20.3,7.8c-10.7,7.8-16.8,17-16.7,18.8c0.1,1.5,0.1,4.5,7.2,5.6
				c3.2-0.2,6.3-0.5,9.3-0.7c8.2-3.2,18-12.5,20.5-16.6C1559.1,817,1559.5,809.4,1556,807.1z"/>
			<path fill="#F9C92B" d="M1457.5,810.8l-0.3,0.4c-2.2-2.5-15.8-4.8-21,5c-0.2,0.4-0.4,0.8-0.6,1.2c-1.1,6.3,0.8,12.6,0.8,12.6
				l1.3,0.6c0,0-1.6-7.8,0.4-12.6c0,0-0.8,7.8,1.1,12.2c0,0,1.3,0.6,2.3,1.5c1,1,2,2.3,3.2,2.8s4.7-1.5,6.6-1.7c0,0-0.4-5.4,0-7.3
				s2.3-4.3,11.5-5.1C1462.8,820.4,1461.1,815.2,1457.5,810.8z"/>
			<path fill="#F9C92B" d="M1528.1,739.5c-0.4-3.4-4.2-12.4-10.6-12.8s-14.5,4.1-17.3,8.6s-3.7,12.6-1.9,18.2l19.6,7.3
				C1517.9,760.9,1528.5,742.9,1528.1,739.5z"/>
			<path fill="#F9C92B" d="M1572.9,729.7c-4.6-1.3-9.7,0.3-9.7,0.3s0.3,3.6,3.4,8.2c3.1,4.6,6.9,6.3,6.9,6.3s-14.7,10.4-21.2,14
				s-9.7,5.3-9.7,5.3s1.1,0.6,0,2.3s-2.6,2.1-4.5,8.8s3.8,11.7,7,13.2s13.3,2,18.4-1.3s7.7-8.4,7.6-13.8s-1.5-8.9-1.5-8.9
				s5.3,1.3,11.5-5.1c6.2-6.4,6.2-9.3,4.7-11.9c0,0,2.4,1.1,2.1,4c-0.2,2.9,0,3.9,0,3.9l3-0.1c0,0,2.7-7.9,0-13.5
				c-2.7-5.5-8.9-5.5-8.9-5.5S1577.5,731,1572.9,729.7z"/>
			<path fill="#F9C92B" d="M1616.5,769.1c0,0,6-2.2,7.1-5.7s-3-11.5-13.9-13.7s-15.5,2.7-15.5,2.7v9.5c0,0,3.6,2.5,9.8,5.1
				L1616.5,769.1z"/>
			<path fill="#F9C92B" d="M1633.7,774c-2.1-3.5-6.3-4.8-12.2-2.4l12.7,10.9C1634.2,782.5,1635.8,777.5,1633.7,774z"/>
			<path fill="#F9C92B" d="M1657.7,782.9c-2.1-3.6-5.4-4.5-10.8-4.4s-8.8,1.6-8.8,1.6l0.5,5c0,0,3.2-2.3,8.7-2.7
				C1652.8,782.1,1657.7,782.9,1657.7,782.9z"/>
			<path fill="#F9C92B" d="M1635.1,773.7c0,0,14.2-0.3,18.2-0.3s4.7-0.9,6.1-2.8c1.3-1.7,1.5-4.3,3.6-7.3c-0.7-1.4-2.1-3.5-4.3-6.5
				c-5-6.6-8.5-5.5-8.5-5.5l-22,8.8l-3.6,7.4c0,0,4,0,7.1,1.7C1634.7,770.8,1635.1,773.7,1635.1,773.7z"/>
			<path fill="none" d="M1575.1,718.4l1.5,1.1c0,0,0.3,0,0.6-0.4c0.2-0.3,0.5-0.7,0.7-1.4c0.6-1.7-0.2-2.5-0.2-2.5s4.4-4.8,4.9-6.7
				s-0.5-3-0.5-3l-7,9.6c0.1,1.9-0.4,3-0.4,3L1575.1,718.4z"/>
			<g>
				<path fill="#FDECB2" d="M1446,831.5l-6.8-12.4c0,0,0.7-3.1,2.8-4l7.1,12.3c0,0-0.7,2-1.3,3.2S1446,831.5,1446,831.5z"/>
				<path fill="#FDECB2" d="M1450,824.2c0,0-3.6-7.1-3.8-8.4c-0.3-1.3,0-3.8,0-3.8s2.3-1.8,3.5-0.9c1.2,0.8,4.4,8.9,4.4,8.9
					L1450,824.2z"/>
				<path fill="#FDECB2" d="M1459.5,827.7c5,1.7,10.2,1.1,15.4,1.3c4.2,0.1,7.8-0.4,11.6-2.4c1.1-0.6,0.1-2.3-1-1.7
					c-7.4,3.8-18,2.4-26,2.1C1459.1,826.9,1459.1,827.5,1459.5,827.7L1459.5,827.7z"/>
				<path fill="#FDECB2" d="M1520.3,832.3c-0.5,2.3,0.6,4.2,0.6,4.2l22.5-2.6l8.3-8.4l-22.9,1.2c0,0-1.6,3-3.5,4.3
					C1523.6,832.2,1520.3,832.3,1520.3,832.3z"/>
				<path fill="#FDECB2" d="M1532.5,822.1l24.7-3.7c0,0,0.9-4.8,0.7-7.7l-16.2,1.7L1532.5,822.1z"/>
				<path fill="#FDECB2" d="M1576.3,813.4l18.2,11.2c0,0,8.2-2.1,8.4-2c0.2,0,2.6-3.4,2.6-3.4l-21-11
					C1584.6,808.1,1579.7,811.4,1576.3,813.4z"/>
				<polygon fill="#FDECB2" points="1588,807 1605.9,817.9 1611.1,810.3 1597.9,802.6 				"/>
				<polygon fill="#FDECB2" points="1634.3,799.1 1641.9,799.1 1644.7,787.3 1637.1,788.3 				"/>
				<path fill="#FDECB2" d="M1646.4,799.1c0,0,6,0.8,8.5-1.3l2.5-11.6c0,0-4-0.4-7,0L1646.4,799.1z"/>
				<path fill="#FDECB2" d="M1688.4,812l-7,13.4h3.7c0,0,3.5-3.7,4.9-7.3s1.2-5.7,1.2-5.7L1688.4,812z"/>
				<path fill="#FDECB2" d="M1694.3,816.6l-5.4,10.3l5.4-0.3c0,0,1.2-2,1.8-4.8C1696.8,818.9,1694.3,816.6,1694.3,816.6z"/>
				<path fill="#FDECB2" d="M1705.4,800.1c1.6,2.8,4,5,4.8,8.3c0.9,3.6-0.7,7.1-1.7,10.5c-0.3,0.9,0.9,1.3,1.4,0.6
					c2.6-3.5,3.3-7.5,1.8-11.5c-1.1-3-2.8-7.1-6-8.2C1705.5,799.6,1705.3,799.9,1705.4,800.1L1705.4,800.1z"/>
				<path fill="#FDECB2" d="M1634.4,767.9c3.6,0.3,5.8,2.7,5.8,4.6c0,0,12.2-4.8,14.8-6.1c2.6-1.3,3.2-1.1,3.5-3.3
					c0.3-2.3-0.9-4.4-0.9-4.4L1634.4,767.9z"/>
				<path fill="#FDECB2" d="M1631.8,766.5c-2.3-1-3.1-2.7-2-5.5c0,0,17.1-7.6,20-8.1s4.4,0.1,5.3,1.1s1.1,2.4-0.3,3.3
					C1653.3,758.1,1631.8,766.5,1631.8,766.5z"/>
				<path fill="#FDECB2" d="M1611.4,766.1c0.2,0,9.6-8,9.6-8l-3.3-2.9l-14.9,10.9l2.5,0.8L1611.4,766.1z"/>
				<path fill="#FDECB2" d="M1598.4,762.9c-2-1.5-3.2-3.3-3.2-3.3s10.2-6.7,11.1-7.9s-3.6-1.5-5-1s0.4-2.1,6.7,0
					c6.4,2.1,5,2.8,5,2.8L1598.4,762.9z"/>
				<path fill="#FDECB2" d="M1547.6,764.4c-3.5,2.7-5.3,6-5.7,7.3c-0.4,1.3,7.8,16.4,7.8,16.4s0.9,0.4,3.6-0.4
					c2.8-0.7,2.9-0.8,2.6-2.6C1555.7,783.2,1547.6,764.4,1547.6,764.4z"/>
				<path fill="#FDECB2" d="M1551.9,762.2c1.3,4.2,7.2,21.8,7.7,22.5c0.5,0.6,2.5-0.1,4.8-1s1.5-0.6,0.8-3.2c-0.7-2.6-7-18.8-7-18.8
					L1551.9,762.2z"/>
				<path fill="#FDECB2" d="M1555.4,756.7c-0.3,1.3,3.9,1.8,8.1,3.3s10.8,4.4,10.8,4.4s2.5-1.9,4.5-3.3l-21-6.7
					C1557.7,754.4,1555.6,755.5,1555.4,756.7z"/>
				<path fill="#FDECB2" d="M1558.9,754c0,0,4.5,0.7,11.3,1.6c6.9,0.9,12.5,0.8,12.5,0.8l2.2-3.8c0,0-1.9-0.6-9-1.4
					s-11.9-0.3-14.1,0.7C1559.5,753,1558.9,754,1558.9,754z"/>
				<polygon fill="#FDECB2" points="1568,730.2 1571.1,742.3 1574.4,744.3 1578,744.3 1571.9,729.8 				"/>
				<path fill="#FDECB2" d="M1581.5,734.7c-1.5,0.1-2.4,0-2.3,1.3c0,1.4,1.2,8,1.2,8s3.2-0.1,5.1,2s2.6,5.2,2.6,5.2s0.5-3.2-1.5-8.5
					s-2.4-6.8-2.4-6.8L1581.5,734.7z"/>
				<path fill="#FDECB2" d="M1508.6,748.4c-3.1-2.1-4.5-3.6-4.7-4.7c-0.2-1.2-0.3-2.3,0.7-3.8c1.1-1.5,10.6-11.4,10.6-11.4
					s1.4,0.5,3,2.2s2.7,3.5,2.7,3.5L1508.6,748.4z"/>
				<path fill="#FDECB2" d="M1510.8,749l10.8-13.1c0,0,1.4,3.5,1.3,7.1c0,3.6,0,4.8,0,4.8s-3.5,4.8-4.4,5.2
					C1517.6,753.4,1512.9,751.5,1510.8,749z"/>
			</g>
			<path fill="#F9C92B" d="M1523.4,725c0.1,0,1.1,1.7,1.1,1.7l4.2-0.8l-0.9-1.6L1523.4,725z"/>
			<polygon fill="#F9C92B" points="1529.9,729.4 1529.1,728.1 1525.6,728.9 1526.3,730 			"/>
			<path fill="#F9C92B" d="M1519.8,762v1c0,0,8-1,17.3-5s13.2-7.7,17.4-11.4c4.3-3.7,4-5.3,1.8-6.9c-2.2-1.6-11.6,0.3-20.9,7.2
				C1526.1,753.8,1523.1,756.4,1519.8,762z"/>
			<path fill="#F9C92B" d="M1551.6,756.4c0.6-0.5,1.2-0.9,1.7-1.4l-1.4-4.1c-0.6,0.5-1.3,1-2,1.5L1551.6,756.4z"/>
			<path fill="#F9C92B" d="M1546.5,760c1-0.6,2-1.3,3.2-2.2c-0.4-1.2-1-3-1.5-4.1c-1,0.7-2,1.4-3.1,2.1L1546.5,760z"/>
			<path fill="#F9C92B" d="M1541.9,762.3c0,0,1-0.3,2.7-1.2l-1.4-4.1c-0.8,0.5-1.6,0.9-2.5,1.4L1541.9,762.3z"/>
			<path fill="#F9C92B" d="M1554,749.3l1.3,4c3-2.6,4.1-3.9,4.1-3.9l-0.6-4.7C1558.9,744.8,1557.1,746.7,1554,749.3z"/>
			<path fill="#F9C92B" d="M1551.1,715.9c-8.2-2.4-11.7-0.4-11.7-0.4c4.5,8.3,4.9,23,4.9,23l8.4-5.1c0,0,1.6-4.7,5.3-6.8
				c3.6-2.1,5.5-2.2,5.5-2.2S1559.3,718.3,1551.1,715.9z"/>
			<path fill="#F9C92B" d="M1561.4,730.5l-2.5,2.4c0,0,0.1,0.9,0.5,2.1l2.5-1.9C1561.6,732.2,1561.4,731.3,1561.4,730.5z"/>
			<path fill="#F9C92B" d="M1560.6,737.4c0.5,0.7,1.1,1.4,1.9,2.1l2.2-1.4c-0.6-0.8-1.2-1.7-1.7-2.5L1560.6,737.4z"/>
			<path fill="#F9C92B" d="M1570.6,743.8c-1.6-1.1-3.2-2.5-4.6-4.1l-1.6,1.3c0.2,0.1,0.4,0.2,0.6,0.3
				C1570.8,744.3,1570.6,743.8,1570.6,743.8z"/>
			<polygon fill="#F9C92B" points="1580.1,767 1577,768.3 1577.5,772 1580.6,770.6 			"/>
			<polygon fill="#F9C92B" points="1587.7,763.4 1586.1,764.1 1586.8,767.9 1588.1,767.3 			"/>
			<polygon fill="#F9C92B" points="1583.8,765.2 1581.8,766.2 1582.4,769.8 1584.5,768.9 			"/>
			<path fill="#F9C92B" d="M1573.7,779.4l2.9,0.3c0,0,2.3-4.1,5.2-5.2s5.1-0.9,5.1-0.9v-2.8l-13.2,5.9V779.4z"/>
			<path fill="#F9C92B" d="M1589.1,793.5v-18c-6.8-0.5-10.1,5.3-10.1,5.3s2.5,1,4.8,4.8s2.6,8.1,2.6,8.1L1589.1,793.5z"/>
			<path fill="#F9C92B" d="M1567.9,790.7c0,0-0.6,3,2.3,8.4s5.7,6.8,5.7,6.8l10.1-3.9c0,0,0.3-6.2-2.9-13.3s-10-7.6-10-7.6
				S1574.8,785,1567.9,790.7z"/>
			<path fill="#F9C92B" d="M1563.5,798.7l3.7-2.8c-0.5-1.9-0.8-3.3-0.8-3.3l-3.3,3.5C1563,796.1,1563.1,797.2,1563.5,798.7z"/>
			<path fill="#F9C92B" d="M1568.9,800.5c-0.3-0.5-0.5-1.1-0.7-1.6l-3.4,2.5c0.3,0.5,0.7,0.9,1.2,1.4l3.2-2
				C1569,800.7,1568.9,800.6,1568.9,800.5z"/>
			<path fill="#F9C92B" d="M1575.1,807.1c0,0-2.6-1.9-4.5-4.2l-2.3,1.6c3,2,5.7,3.4,5.7,3.4L1575.1,807.1z"/>
			<path fill="#F9C92B" d="M1547.2,802.4c3.2,0.2,4.3,1.8,4.3,1.8l3-3.4c0,0-2.5-4.5-7.7-5.5s-7.7,1.4-7.7,1.4l0.3,8.4
				C1539.5,805.1,1543.9,802.2,1547.2,802.4z"/>
			<path fill="#F9C92B" d="M1536.4,795.9l4.7-6c0,0-2.6-3.4-7.9-6.2c0,0,0.4,2.1,1.2,6.5C1535.2,794.6,1536.4,795.9,1536.4,795.9z"
				/>
			<path fill="#F9C92B" d="M1535.9,782.4v-6.9c0,0-3.7-0.3-9,0.7v2.7C1526.9,778.9,1530.9,777.9,1535.9,782.4z"/>
			<path fill="#F9C92B" d="M1674.7,776.8c-1.1,1.4-1.6,1.9-1.6,1.9s1.4,5.4,1,9.8c-0.4,4.4-0.6,6.1-0.6,6.1l4.3-3.7l-0.2-11.8
				C1675.9,777.3,1674.7,776.8,1674.7,776.8z"/>
			<path fill="#F9C92B" d="M1635.6,823.4c-9.2,0.2-12.3,2.7-12.1,6.1l24-2.2C1647.4,827.4,1644.8,823.3,1635.6,823.4z"/>
			<path fill="#F9C92B" d="M1655.8,818.1c0.8,1,3.9,1.9,3.9,1.9c0.6-1.7,6.5-4,6.5-4C1655.6,813.4,1655.1,817.1,1655.8,818.1z"/>
			<polygon fill="#F9C92B" points="1668,802.6 1663.5,802.6 1656.9,808.6 1668.3,808.6 			"/>
			<path fill="#F9C92B" d="M1670.8,818.9c-7.7-1.1-9,5-8.8,7.6l17.1-2.2C1679,824.3,1678.5,820.1,1670.8,818.9z"/>
			<path fill="#F9C92B" d="M1679.4,811.3l7.6-13.5c0,0-3.5,0.5-5.4-3.1l-5.9,13.9C1676.2,811.1,1679.4,811.3,1679.4,811.3z"/>
			<path fill="#F9C92B" d="M1684.2,777.5l-2.1,7l4.2-6.7C1686.2,777.9,1684.2,777.5,1684.2,777.5z"/>
			<path fill="#F9C92B" d="M1687.9,790.9c0.8-1,4.6-7.4,4.6-7.4l-4.6-4c0,0-4,8.2-4.1,10.3S1687.2,791.9,1687.9,790.9z"/>
			<path fill="#F9C92B" d="M1560,816.6l3.4,1.6c0,0,0.9-3,0.8-5.4l-4.2-2.1C1560.3,814.7,1560,816.6,1560,816.6z"/>
			<polygon fill="#F9C92B" points="1559.1,820.7 1561.1,821.9 1562.4,819.8 1559.7,818.8 			"/>
			<path fill="#F9C92B" d="M1471.6,831.5c-1.6,0-3.2-0.1-4.8-0.2l1.7,4.4c1,0,2.1,0,3.3-0.1c5.9-0.4,14.2-5.4,14.2-5.4
				S1477.9,831.7,1471.6,831.5z"/>
			<path fill="#F9C92B" d="M1462.4,830.9l1.9,4.5c0.4,0,0.8,0.1,1.3,0.1c-0.3-1.3-0.8-3.2-1.1-4.5
				C1463.8,831.1,1463.1,831,1462.4,830.9z"/>
			<path fill="#F9C92B" d="M1458.3,830.5c0,0,1.4,3.1,1.8,3.8c0.1,0.2,0.8,0.5,2,0.7l-1.8-4.3C1459,830.6,1458.3,830.5,1458.3,830.5
				z"/>
			<path fill="#F9C92B" d="M1516.3,724.2c0,0,0.9-6.1,2.2-11.1c0,0-5.9,1-10.7,4.3c-0.5,0.9-1,1.8-1.6,3c-3.1,6.8-2.4,8.4-2.4,8.4
				C1509,725.4,1516.3,724.2,1516.3,724.2z"/>
			<path fill="#F9C92B" d="M1527.3,721.9c0,0-2-3.7-1.3-9c0.7-5.4,2.4-3.8,1.7-2.6c-0.6,1.2-1.5,5.3,1.8,13.2s11.2,16,11.2,16
				s0.8-5.9-1.1-14.2c-1.8-8.3-2.3-9.1-2.2-10.4s4.9-2.3,4.9-2.3l-4.8-4.1c-0.2,0.6-0.1,0.9-0.1,0.9l-3.8,1.2c0,0-4.3-3.7-9.2-3
				c-1.2,0.2-2.2,0.6-2.9,1.1c-0.9,5.7,0,11.4,0.9,14.1L1527.3,721.9z"/>
			<path fill="#F9C92B" d="M1545.3,711.7c0,0,5.4,1,11.9,2.3c6.6,1.3,13.8,3.5,13.8,3.5s0.3-3-0.2-6.1c-9.6-8.7-26.9-9.6-30.1-7
				c-0.7,0.5-1.2,1.1-1.6,1.6C1544,709.2,1545.3,711.7,1545.3,711.7z"/>
			<path fill="#F9C92B" d="M1572.9,718.4h2.2l-0.4-0.3c0,0,0.5-1,0.4-3l7-9.6c0,0,1.1,1.2,0.5,3s-4.9,6.7-4.9,6.7s0.8,0.8,0.2,2.5
				c-0.2,0.7-0.5,1.1-0.7,1.4l0.9,0.9c0,0,1.3-1.5,4.3-4c4.5-5.2,5.2-9.9,4-12.3c-1.2-2.4-2.9-4.3-6.5-1.7c-2.6,1.9-5.6,6.6-7,9
				C1573.1,714.9,1572.9,718.4,1572.9,718.4z"/>
			<path fill="#F9C92B" d="M1580.9,720.6c-2.8,1.6-11,5.6-11,5.6l6.5,0.5c0,0,6.1-2.6,8.9-3.8c1.3-0.6,2.1-1.9,2.5-3.2
				c-1.1-1.2-2.2-2.1-3.1-2.6C1584,718,1582.7,719.6,1580.9,720.6z"/>
			<path fill="#F9C92B" d="M1668.9,791.2c0,0-0.8-1.7-0.6-6.3c0.1-4.6,0-8.5,0-8.5s-0.9,0.9-2.2,1.3s-1.6-2.8,1.7-7.3
				c3.3-4.5,5.4-7.3,7-7.8c0.5-0.1,0.9-0.3,1.1-0.6c-0.6-0.9-1.5-1.6-2.8-2c-2.6-0.7-4.8,0.6-6.5,2.1c-0.8,1.8-1.9,4.3-3.1,7.5
				c-3.2,8.7-3.4,12.1-3.4,12.1L1668.9,791.2z"/>
			<path fill="#F9C92B" d="M1693.8,792.3c1.3-0.8,3.4-3.3,3.4-3.3l2,0.7c0.7-1.1,1-1.9,1-1.9s2.6,1,6.9,0.8
				c-8.6-2.3-12.5-4.4-12.5-4.4s-3.1,5.5-3.5,7.3C1690.6,793.4,1692.4,793.1,1693.8,792.3z"/>
			<path fill="#F9C92B" d="M1617.1,820.2c-1.6,1.4-2.6,0.2-4.2,2c-0.9,1-1.8,2.2-2.4,2.9l5,2.4c1.2-2,3.4-6.4,3.2-11.9l-1,1
				C1617.9,816.6,1618.7,818.8,1617.1,820.2z"/>
			<path fill="#F9C92B" d="M1517.5,835.5l-0.3,4.5c1.8-0.1,3.5-0.2,5.2-0.4C1519,837.9,1517.6,835.6,1517.5,835.5z"/>
			<path fill="#F9C92B" d="M1492.8,835.5c-12.1-1.1-15.7,4.6-15.7,4.6c4.7,0.9,7.9,1.5,10,1.9c2.2-0.1,4.3-0.3,6.4-0.4
				C1496.7,839.7,1501.6,836.3,1492.8,835.5z"/>
			<path fill="#F9C92B" d="M1750.2,736.5c-2.4-4.5-12.5-17.2-25.3-22c-10.2-3.8-18.6-5.6-24.5-3c-9.7,11.1-17.9,27.3-18,40.3
				c-0.1,13.6,7,21.4,7,21.4s1.3-12.2,4-16s3.6-2.8,2,3.2s-2.2,16.1-2.2,16.1l7.2,4.9c0,0,4.2-5.2,10.1-10.5s6.4-6.9,3.6-0.5
				s-10.2,12.6-10.2,12.6c8.4,2.2,12.6-0.4,20.5-7.2s10.4-7.3,5.8-1.6s-10.8,7.9-10.8,7.9s6.7-1.8,14.1-6.4
				c7.4-8.3,10.2-18.3,14-24.8C1752.2,742.3,1752.6,741,1750.2,736.5z"/>
		</g>
		<g>
			<g>
				<path fill="#CE2828" d="M1531.2,809.1l5.6-4.1c-3-8.1-9.3-25.6-13.1-40.8l-4.5-3.5l3.4,28.2L1531.2,809.1z"/>
				<path fill="#D33E3E" d="M1472.8,774.6c0,0-0.1,8.1-1.4,11.5l4.2,2.2l11.2-4.3l8.2-7.9l-1.2-7.3l-4.7-6.4l-8.7,2.4
					c4-6.9,3.7-9.7,3.7-9.7l-19.1,19.2C1465,774.2,1470.2,772,1472.8,774.6z"/>
				<polygon fill="#CE2828" points="1519.3,760.7 1519.3,760.7 1493.8,768.7 				"/>
				<path fill="#E27E7E" d="M1500.9,807.7c12.1-13.4,21.8-18.8,21.8-18.8L1495,776l-8.2,7.9l12.4,24.1
					C1500.3,807.8,1500.9,807.7,1500.9,807.7z"/>
				<path fill="#BA2628" d="M1531.2,809.1c-7,2.6-13,11.3-13,11.3s-2-3-7.9-7.6c-3.2-2.4-5.6-3.7-7.2-4.4c-1.4-0.6-2.2-0.7-2.2-0.7
					c11.7-13,21.1-18.4,21.7-18.7l0,0L1531.2,809.1z"/>
				<path fill="#D85353" d="M1499.2,808.1c-4.2,0.9-15.5,3.4-28.7,5.8l5-25.6l11.2-4.3L1499.2,808.1z"/>
				<path fill="#932227" d="M1538.6,809.7c0,0-15.7,12.3-18.9,21.1l-49.2-16.9c13.1-2.4,24.4-4.8,28.7-5.8c1.1-0.2,1.8-0.4,1.8-0.4
					s0.8,0.1,2.2,0.7c1.6,0.7,4.1,2,7.2,4.4c5.9,4.6,7.9,7.6,7.9,7.6s6-8.7,13-11.3l5.6-4.1C1537.9,807.9,1538.6,809.7,1538.6,809.7
					z"/>
				<path fill="#932227" d="M1499.2,808.1L1499.2,808.1L1499.2,808.1z"/>
				<path fill="#BA2628" d="M1472.8,774.6c-2.5-2.6-7.8-0.4-7.8-0.4l-4,26.4l10.3-14.5C1472.7,782.7,1472.8,774.6,1472.8,774.6z"/>
				<polygon fill="#BE3A3C" points="1475.5,788.2 1471.3,786.1 1461,800.6 1470.5,813.8 				"/>
				<path fill="#D85353" d="M1480.4,764.7l8.7-2.4l14.3-13.9l-19.2,6.6C1484.1,754.9,1484.3,757.8,1480.4,764.7z"/>
				<polygon fill="#E27E7E" points="1493.8,768.7 1519.3,760.7 1503.3,748.3 1489,762.3 				"/>
				<path fill="#F5D4D4" d="M1519.3,760.7L1519.3,760.7L1519.3,760.7z"/>
				<polygon fill="#F5D4D4" points="1494.9,776 1522.7,788.9 1519.3,760.7 1519.3,760.7 1493.8,768.7 				"/>
			</g>
			<g>
				<path fill="none" d="M1494.7,777.3c-0.7,1.7-3,3.2-4.2,4.3c-0.9,0.8-1.7,1.8-2.6,2.6c1.3,1.9,2.4,4,3.6,5.9
					c1,1.6,1.7,3.4,2.4,5.1c1.7,4.2,2.9,8.5,6,12c4-2.6,6.7-6.5,10.1-9.9c3.3-3.3,6.9-6.4,10.5-9.5
					C1511.7,784.7,1503.6,779.7,1494.7,777.3z"/>
				<path fill="#EFB9B9" d="M1522.5,787.6c0-0.2-0.1-0.3-0.3-0.4c-5.1-2.9-10.8-5-16.2-7.4c-2.5-1.1-5.1-2.2-7.6-3.3
					c-1.3-0.6-2.2-1.2-3.5-0.9c0.1-1.2-0.2-2.4-0.1-3.6c0.1-1.2,0.2-2.7-0.1-3.9c-0.4-1.2-1.6-2.3-2.3-3.3c-0.7-1-1.4-2-2.3-2.7
					c1.1-0.7,2.1-1.4,3.1-2.3c1.1-1,2.5-1.9,2.8-3.5c0-0.2-0.1-0.3-0.3-0.2c-1.3,1.1-2.8,1.9-4.2,2.9c-1.4,1-2.6,2-3.8,3.2
					c-1,0.1-1.9,0.4-2.9,0.6c-1.4,0.3-2.5,1.1-3.8,1.6c-0.3,0.1-0.1,0.6,0.2,0.6c1.4,0,2.7-0.5,4.1-0.7c0.7-0.1,1.4-0.2,2-0.3
					c0.3-0.1,1.1-0.4,1.7-0.6c1,1.7,2.5,3,3.5,4.6c1.5,2.4,0.2,6,0.2,8.8c-1,0.8-1.9,1.9-2.7,2.7c-0.8,0.8-1.6,1.5-2.3,2.3
					c-0.4,0.5-0.8,1.2-1.3,1.7c-0.1,0-0.2,0-0.3,0.1c-1.9,1-3.8,1.8-5.8,2.6c-1.5,0.6-3.3,1.1-4.5,2.3c-0.2,0.1,0,0.4,0.2,0.4
					c1.9,0,3.8-0.9,5.6-1.6c1.5-0.6,3.1-1.2,4.5-1.9l0,0c0.2-0.1,0.3-0.1,0.5-0.2c0.6,2,2,3.8,3.1,5.5c1.4,2.1,2.4,4.3,3.3,6.7
					c1.5,3.9,3.1,7.9,5.9,11c0.4,0.5,1,0.2,1.3-0.2c4.1-1.9,6.5-6,10-8.9c4.3-3.5,8.3-7.3,12.4-10.9
					C1522.8,788.3,1522.7,787.9,1522.5,787.6z M1509.9,797.4c-3.3,3.3-6.1,7.3-10.1,9.9c-3.1-3.5-4.3-7.8-6-12
					c-0.7-1.7-1.4-3.5-2.4-5.1c-1.2-1.9-2.3-4.1-3.6-5.9c0.9-0.8,1.7-1.8,2.6-2.6c1.2-1.2,3.5-2.6,4.2-4.3c9,2.4,17.1,7.4,25.8,10.6
					C1516.8,791,1513.2,794.1,1509.9,797.4z"/>
			</g>
		</g>
		<g>
			<g>
				<path fill="#583688" d="M1616.7,791.8c0,0-3.3,0.8-6.9-1.8c-3.7-2.7-14.2-13.3-14.2-13.3l-2-1.4l-0.5,25.4c0,0,6.8-0.4,13.4,2.8
					s9.2,9.2,9.2,9.2c0.3-2.7,3.3-5.2,3.3-5.2l0.6-3c-0.9-1.5-1.3-6.2,5.7-10.4c2.3-1.4,4.4-2.6,6.2-3.6l-13.2,1.2L1616.7,791.8z"/>
				<polygon fill="#E4DAEF" points="1595.6,776.7 1606.4,770.6 1617.3,778.7 1618.4,778.8 1627.5,779.3 1629.3,776.2 1617.3,768.5 
					1608.1,765.8 1606.4,770.6 				"/>
				<path fill="#583688" d="M1635.8,788.2L1635.8,788.2L1635.8,788.2z"/>
				<path fill="#7A44B3" d="M1606.4,770.6l1.7-4.8l-12.4,3.3c-1.5,0.7-2.1,5.8-2.1,5.8v0.3l2,1.4L1606.4,770.6z"/>
				<path fill="#9569C2" d="M1606.4,770.6l-10.8,6.1c0,0,10.5,10.6,14.2,13.3s6.9,1.8,6.9,1.8l1.7-0.1v-12.8l-1.1-0.1L1606.4,770.6z
					"/>
				<path fill="#AF8FD1" d="M1635.8,788.2l-8.3-8.9l-9.1-0.5v12.8l13.2-1.2C1633.3,789.5,1634.7,788.8,1635.8,788.2L1635.8,788.2
					L1635.8,788.2z"/>
				<path fill="#EBE2EF" d="M1635.8,788.2L1635.8,788.2c1.2-0.6,1.9-0.9,1.9-0.9l0.7-1.2l-9.1-9.9l-1.8,3.1L1635.8,788.2z"/>
				<polygon fill="#EBE2EF" points="1635.8,788.2 1635.8,788.2 1627.5,779.3 				"/>
			</g>
			<path fill="#7A44B3" d="M1608.7,800.9c0.1,0.1,3.8-7.3,3.8-7.3s-4.5-0.5-10.9-6.4l-0.5,11.2C1601,798.4,1607,798.1,1608.7,800.9z
				"/>
			<path fill="#F7F4FB" d="M1628.2,778.5c-4.8-0.3-9.2,0.4-12.8-3.4c-1-1.1-2-2.2-3.1-3.2c-1.2-1-3.8-1.9-4.1-3.7
				c-0.2-0.8-1.1-0.5-1.2,0.2s-0.1,1.2,0,1.7c-1.4,0.6-2.8,1.5-4.2,2.2c-1.4,0.8-2.9,1.4-4.1,2.4c-0.3,0.2,0.1,0.6,0.4,0.5
				c1.6-0.8,3.2-1.6,4.9-2c1.4-0.4,2.9-0.7,4.3-1.3c0.1,0.1,0.2,0.2,0.3,0.3c2,1.8,4.1,3.7,6.1,5.5c0.8,0.7,1.6,1.1,2.5,1.5
				c-0.1,1.5,0.2,3,0.4,4.4c0.4,2.7,0.5,5.4,0.8,8.1c0,0.2,0.3,0.2,0.3,0c0.3-2.9,0.3-5.8,0.7-8.6c0.1-1.1,0.3-2.3,0-3.3
				c2.9,0.4,6.2-0.2,9-0.5C1628.7,779.3,1628.7,778.5,1628.2,778.5z"/>
		</g>
		<g>
			<path fill="none" d="M1633.4,712.4L1633.4,712.4L1633.4,712.4z"/>
			<polygon fill="#BBEA9E" points="1631.4,731.1 1644.2,735.6 1645,720.6 			"/>
			<polygon fill="#BAEA9E" points="1610.2,723.4 1626.4,729.3 1633.4,712.4 1633.4,712.4 1613.2,724.4 			"/>
			<path fill="#579E37" d="M1644.2,735.6c0,0-0.6,2.3-2.4,3.7c-1.9,1.4-17.3,10-18.5,10.9c-0.9,0.7-1.5,0.5-2.3-0.7
				c-0.3-0.4-0.6-0.9-0.9-1.6c-0.2-0.5-0.6-0.8-0.9-1.2l7.2-17.4l0.4,0.2l4.6,1.6L1644.2,735.6z"/>
			<path fill="#6BC13B" d="M1613.6,744.7c1.5,0,4,0.4,5.6,2l7.2-17.4l-16.1-5.9l-3.5,18.6c0.5,0,0.9,0.3,1.4,0.7
				C1610.2,744.7,1611.7,744.7,1613.6,744.7z"/>
			<path fill="#76D53D" d="M1610.2,723.4l4.5-17.1c-1.9,0.1-4.6,0.3-7.5,0.7c-5.1,0.6-9.6,1.7-10.7,2
				C1603.3,715.3,1610.2,723.4,1610.2,723.4z"/>
			<path fill="#60AE38" d="M1596.3,726.2c0.5,1.2,1.1,3.1,1.4,6c0.7,6.4,0.8,12.4,0.8,12.4s2.4-0.4,4.1-0.8c1.3-0.3,2.7-1.8,4.2-1.7
				l3.5-18.6c0,0-6.9-8.1-13.7-14.4c-0.2,0-0.3,0.1-0.3,0.1V726.2z"/>
			<path fill="#91DD64" d="M1613.2,724.4l20.3-12l-15.4-6.3c0,0-1.2,0-3.2,0.2l-4.5,17.1L1613.2,724.4z"/>
			<path fill="#E4F7D8" d="M1626.8,729.4l4.6,1.6l0,0l13.6-10.5l0,0l1.1-0.8c-1.1-1.7-1.9-2.9-1.9-2.9l-10.8-4.4l-7,16.9
				L1626.8,729.4z"/>
			<path fill="#91DD64" d="M1644.2,735.6l10.6,2.7c0,0-1.4-4.6-3.8-9.9c-1.4-3-3.4-6.4-4.9-8.7l-1.1,0.8L1644.2,735.6z"/>
			<path fill="#4D8D34" d="M1613.6,744.7c-1.9,0-3.4,0-5.4-2c-0.5-0.5-0.9-0.7-1.4-0.7l-1.2,6.6c2.1,0.1,4.3,0.4,6.5,1
				c1.9,0.5,3.6,1.2,5.1,1.8l2-4.8C1617.5,745.1,1615.1,744.7,1613.6,744.7z"/>
			<path fill="#457F33" d="M1602.5,743.7c-1.7,0.4-4.1,0.8-4.1,0.8s-0.1-6-0.8-12.4c-0.3-2.8-0.9-4.7-1.4-6V749c0,0,4.1-0.8,9.2-0.5
				l1.2-6.6C1605.3,741.8,1603.8,743.4,1602.5,743.7z"/>
			<path fill="#6BC13B" d="M1646.1,719.7L1646.1,719.7L1646.1,719.7z"/>
			<polygon fill="#6BC13B" points="1645,720.6 1645,720.6 1646.1,719.7 1646.1,719.7 			"/>
			<path fill="#559B36" d="M1654.9,738.2c0,0-15.9,12.1-30.4,17.8c0,0-1.9-1.7-5.2-3.5c-0.7-0.3-1.4-0.7-2.1-1l2-4.8
				c0.3,0.3,0.7,0.7,0.9,1.2c0.4,0.6,0.7,1.2,0.9,1.6c0.8,1.2,1.4,1.4,2.3,0.7c1.2-0.9,16.7-9.5,18.5-10.9c1.9-1.4,2.4-3.7,2.4-3.7
				L1654.9,738.2z"/>
		</g>
		<g>
			<path fill="#E69C18" d="M1723.9,754.1c-0.2-0.2-0.4-0.3-0.7-0.3c-1.7-0.2-3.1,1.9-4,3.1c-1,1.5-2.2,3.7-0.7,5.3
				c1.4,1.5,3.7,0.6,4.5-1c0.5-0.9,0.7-1.9,1.1-2.9s0.6-2,0.6-3.1C1724.7,754.7,1724.4,754.3,1723.9,754.1z"/>
			<path fill="#E69C18" d="M1738.1,754.3c-2,1.1-3.4,3-4.7,4.7c-1.3,1.8-2.8,3.7-2.8,6c0,1.4,1.7,2.6,3,1.7c1.4-1,2.2-2.3,3-3.9
				c0.7-1.3,1.3-2.4,1.3-3.8c0.7-1.1,1.4-2.3,1.9-3.6C1740,754.6,1738.9,753.9,1738.1,754.3z"/>
			<path fill="#E69C18" d="M1704.4,746.1c-2,1.1-3.7,2.3-5,4.1c-1,1.5-2.4,4.1-1.8,6c0.7,2.3,3.2,1.7,4.4,0.3
				c1.3-1.6,2.5-3.6,2.6-5.7c0-0.3-0.1-0.6-0.3-0.9c0.6-0.7,1.1-1.3,1.6-1.9C1706.7,747,1705.7,745.4,1704.4,746.1z"/>
			<path fill="#E69C18" d="M1692.8,734.2c-2.1,0.1-3.7,1.7-4.9,3.3c-1.4,1.8-2.8,4.1-2.9,6.4c-0.1,1.8,2.2,2.5,3.4,1.4
				c1.6-1.4,3.1-3.7,2.9-5.9c0-0.2,0-0.3-0.1-0.5c0.7-1.1,1.6-2,2.4-3.1C1694.2,735.1,1693.5,734.1,1692.8,734.2z"/>
		</g>
		<path fill="#FEB04B" d="M1738.4,728.6c-6.3-6.9-15.7-11.6-24.6-13.2c-9-1.6-10.9-0.7-10.9-0.7c-2.5,2.4-1.9,7.3,4.3,13
			C1720.4,725.6,1731.1,726.8,1738.4,728.6z"/>
		<path fill="#EA9022" d="M1740.2,740.7c7.4-0.2,4.7-4.9-1.6-11.9c-0.1-0.1-0.1-0.2-0.2-0.2c-7.3-1.8-18-3-31.2-0.8
			c0.9,0.9,2,1.8,3.2,2.7C1719.6,737.4,1732.8,740.9,1740.2,740.7z"/>
		<g>
			<path fill="#2B4CA9" d="M1702.5,754.4c0.2,0.1,0.4,0.1,0.6,0c0.2-0.2,0.4-0.5,0.5-0.9s0.6-0.9,0.8-1.2c0.4-0.6,0.7-1.2,1.1-1.8
				c0.7-1.1,1.5-2.2,1.6-3.6c0-1.3-1.5-2.1-2.6-1.5c-1.3,0.7-1.9,2.2-2.7,3.5c-0.2,0.3-0.4,0.6-0.6,0.9
				C1700.9,751.4,1700.7,753.9,1702.5,754.4z"/>
			<path fill="#2B4CA9" d="M1722.6,761.2c0.2,0.1,0.4,0.1,0.6,0.1c0.1-0.2,0.3-0.3,0.3-0.6c0.9-1.5,1.6-3,2.2-4.6
				c0.5-1.3,0.3-3.9-1.7-3.5c-1.4,0.3-1.8,1.7-2.3,2.9c-0.5,1.1-1,2.2-1.6,3.2C1720.5,759.9,1721.5,760.9,1722.6,761.2z"/>
			<path fill="#2B4CA9" d="M1734.4,762.9c1.4,0.5,2.4,0,3.3-0.8c0.6-0.9,1-1.9,1.4-2.7c0.7-1.6,2-4.2,0.5-5.6
				c-0.3-0.3-0.9-0.4-1.3-0.2c-1.5,1-2,2.8-2.8,4.3c-0.6,1.2-1.9,2.5-2.2,3.9C1733.4,762.2,1733.8,762.6,1734.4,762.9z"/>
			<path fill="#2B4CA9" d="M1691.3,734.1c-1,1.6-1.9,3.3-2.7,5c-0.1,0.1-0.1,0.2-0.2,0.3c-0.2,0.9-0.3,2.1,0.1,2.8
				c0.3,0.5,1,0.5,1.6,0.6c0.6-0.9,1-2,1.4-3c0.6-1.6,1.4-3,2.4-4.3C1694.8,734.1,1692.2,732.5,1691.3,734.1z"/>
			<path fill="#2B4CA9" d="M1684.4,730.7c1.4-2.3,4.2-6.5,4.2-6.5s-0.8-2.2-3-1.3c-1.6,0.6-2.9,2.7-3.5,4.5c0.1,0.9,0.4,1.7,1.1,2.4
				C1683.6,730.4,1683.8,730.4,1684.4,730.7z"/>
			<path fill="#2B4CA9" d="M1744.6,761.5c0.5-0.4,1-0.9,1.5-1.7c2.3-3.4,3.2-6.6,0.5-7.7l-3.3,7.1
				C1743.3,760,1744,760.9,1744.6,761.5z"/>
			<path fill="#2B4281" d="M1681.8,729.3c0.2,1.9,1.7,3,1.7,3c0-0.1,0.4-0.6,0.9-1.5c-0.6-0.3-0.8-0.4-1.2-0.9
				c-0.7-0.7-1-1.5-1.1-2.4C1681.9,728.1,1681.8,728.8,1681.8,729.3z"/>
			<path fill="#2B4281" d="M1688.5,742.3c-0.4-0.7-0.3-2-0.1-2.8c-0.7,1.4-1.3,2.8-0.7,4.3c0.3,0.6,1.1,0.6,1.5,0.2
				c0.3-0.3,0.6-0.6,0.8-1C1689.4,742.8,1688.7,742.7,1688.5,742.3z"/>
			<path fill="#2B4281" d="M1703.1,754.4c-0.2,0-0.4,0-0.6,0c-1.8-0.5-1.6-2.9-1.3-4.6c-0.6,0.9-1.2,1.8-1.4,2.7
				C1699.2,754.6,1701.9,755.6,1703.1,754.4z"/>
			<path fill="#2B4281" d="M1723.2,761.3c-0.2,0-0.4,0-0.6-0.1c-1.1-0.3-2.1-1.4-2.5-2.5c0,0.1-0.1,0.1-0.1,0.2
				C1718.7,761.1,1721.9,762.8,1723.2,761.3z"/>
			<path fill="#2B4281" d="M1733.3,763c0.2,0.6,0.7,1,1.4,1.1c1.3,0,2.2-0.9,3-2.1c-0.9,0.8-1.9,1.4-3.3,0.8c-0.6-0.2-1-0.6-1.2-1.1
				C1733.2,762.2,1733.2,762.6,1733.3,763z"/>
			<path fill="#2B4281" d="M1744.6,761.5c-0.7-0.6-1.2-1.7-1.3-2.5l-1.4,2.9C1742,761.9,1743.2,762.6,1744.6,761.5z"/>
			<path fill="#2B4281" d="M1741.1,761.3L1741.1,761.3L1741.1,761.3z"/>
		</g>
		<path fill="#FDECB2" d="M1697.4,717.4c3.3,11.2,12.9,17.2,22.5,22.5c2.6,1.4,4.5,3.3,7.3,4.4c2.7,1,5.4,1.4,8.3,1.7
			c3.8,0.5,9.1,1.2,11.6-2.3c0.4-0.5-0.4-1.2-0.9-0.9c-4.9,2.7-10.6,0.9-15.6-0.9c-4.4-1.6-9.1-2.1-13.2-4.3
			c-8.8-4.5-16.3-10.6-19.1-20.5C1698.2,716.5,1697.2,716.7,1697.4,717.4L1697.4,717.4z"/>
		<g>
			<path fill="#D8D8D8" d="M1576.3,832.9c-0.3-1.3-2.8-3.7-5.9-3.5c-0.6,0-1.2,0.2-1.8,0.4c-0.8,0.3-1.4,0.8-1.8,1.3
				c0-0.1,0-0.1,0-0.2c-0.2-1.1-0.7-2.1-1.5-2.9c-1.5-1.6-4.1-2.1-6.1-1.4c-0.3,0.1-0.7,0.3-1,0.5c-0.8,0.5-1.5,1.2-1.9,2.1
				c-0.5,0.9-0.9,1.9-0.9,3c0,0.1,0,0.2,0,0.3c-0.3-0.2-0.6-0.4-0.9-0.6c-1.2-0.6-2.6-0.8-4-0.4c-0.6,0.2-1.1,0.4-1.5,0.8
				c-0.9,0.7-1.5,1.6-2.2,2.5c-0.6,0.9-0.7,2.4-0.5,3.5c0,0.1,0.1,0.2,0.1,0.3c0,0.3,0.1,0.6,0.2,0.9c0.1,0.2,0.2,0.5,0.3,0.7
				c-0.1,0-0.1,0-0.2,0c-1.3,0.2-2.1,0.9-2.9,2c-0.2,0.2-0.3,0.5-0.4,0.7c-0.4,0.9-0.6,2-0.6,2.9c0.1,1.4,0.5,2.7,1.4,3.8
				c-0.3,0.1-0.7,0.3-1,0.5c-0.5,0.2-0.9,0.5-1.3,0.9c-0.9,0.9-1.3,2-1.4,3.3c0,0.7,0.2,1.5,0.6,2.1c0.4,0.7,1,1.2,1.7,1.6
				c-0.5,0.2-1,0.5-1.5,0.9c-0.3,0.3-0.5,0.6-0.7,0.9c-0.1,0.2-0.2,0.4-0.3,0.6c-0.1,0.1-0.1,0.2-0.2,0.3c-0.6,1-0.9,2.2-0.6,3.5
				c0.2,1.2,1.1,2.3,2.2,2.9c0.5,0.2,1,0.4,1.5,0.5c-0.7,0.3-1.3,0.8-1.7,1.5l0,0c-0.7,0.7-1.1,1.6-1.4,2.5c0,0.2-0.1,0.3-0.1,0.5
				c-0.4,1.6,0,3.1,1,4.4c0.9,1.2,2.3,1.8,3.8,2c-1.1,0.7-1.9,1.9-2.6,2.9c-0.7,1.1-1.3,2.6-1.3,4c0,0.1,0.1,0.5,0.1,0.9
				c0,0.3,0.2,1,0.2,1.1c0.4,1.1,1.1,2.1,2.1,2.7c0.6,0.4,1.3,0.6,2,0.8c-0.3,0.2-0.5,0.4-0.7,0.6c0,0,0,0-0.1,0.1
				c-0.3,0.4-0.6,0.8-0.8,1.2c0,0,0,0.1-0.1,0.1c-0.1,0.1-0.1,0.2-0.2,0.2c-0.4,0.6-0.9,1.4-1.2,2.2c-0.4,1-0.7,2-0.6,2.9
				c0.2,2,1.2,3.2,3,3.9c0.1,0,0.2,0.1,0.3,0.1c-0.2,0.3-0.3,0.6-0.4,1c-0.4,0.5-0.8,1.1-1,1.7c0,0.1-0.1,0.2-0.1,0.3
				c-0.4,1.3-0.2,2.6,0.4,3.7c0.4,0.8,1,1.5,1.8,1.9c0.4,0.2,0.9,0.4,1.4,0.5c-0.2,0.2-0.4,0.5-0.6,0.7s-0.3,0.5-0.4,0.7
				s-0.1,0.4-0.2,0.6c-0.1,0.2-0.2,0.4-0.3,0.5c-0.2,0.4-0.4,0.7-0.5,1.1c-0.6,2.1,0.5,4.4,2.3,5.7c-0.2,0-0.4,0.1-0.6,0.1
				c-0.4,0.1-0.8,0.2-1.2,0.4c-0.9,0.5-1.8,1.4-2.4,2.1c-1.2,1.3-1.7,2.9-1.3,4.5c0.1,0.4,0.2,0.8,0.5,1.3c0.1,0.2,0.3,0.5,0.5,0.7
				c-0.6,0-1.2,0.2-1.8,0.4c-0.9,0.3-1.7,0.8-2.3,1.5c-1.3,1.5-1.7,3.4-1.5,5.2c0.1,0.5,0.2,1.1,0.3,1.6c0.1,0.2,0.2,0.5,0.2,0.7
				s0.1,0.3,0.1,0.5c-0.2-0.3-0.5-0.6-0.9-0.8c-0.2-0.2-0.4-0.3-0.6-0.5c-0.4-0.2-0.9-0.6-1.4-0.7c-0.4-0.1-0.8-0.1-1.2-0.1
				c-0.2,0-1.3,0.1-0.7,0.1c-1.1,0-2.2,0.2-3.2,0.8c-1.5,0.9-2.3,2.4-2.5,4c-0.7-1.3-1.6-2.1-2.9-2.8c-0.5-0.5-1.1-0.8-1.7-1
				c-0.7-0.2-1.4-0.2-2,0s-1.2,0.4-1.7,0.8c0.1-0.7,0.2-1.4,0.1-2.1c0-0.1,0-0.3-0.1-0.4c-0.3-1.5-1-2.7-2.2-3.6
				c-0.2-0.2-0.5-0.3-0.7-0.5c-1-0.6-2.2-0.8-3.3-0.8c0.3-0.4,0.4-0.9,0.6-1.4c0.2-0.6,0.3-1.3,0.3-2c0-1.8-0.8-3.4-2.1-4.5
				c-0.5-0.5-1-0.8-1.6-1.2c0.7-0.9,1.1-1.9,1.3-3c0.2-1.1,0.1-2.2-0.2-3.3c-0.5-1.9-1.9-3.3-3.7-4.1c-0.8-0.4-1.7-0.6-2.6-0.6
				c0.7-0.9,1.1-2,1.3-3.2c0.2-1.3,0.2-2.6,0-3.8c-0.2-1.4-1.1-2.7-2.2-3.7c-0.5-0.5-1.2-0.9-1.8-1.1c-0.3-0.1-0.5-0.2-0.8-0.2
				c0.2-0.6,0.3-1.1,0.4-1.8c0.1-1.9-0.9-4.2-2.4-5.4c-0.6-0.5-1.3-0.8-2.1-0.9c0.4-0.2,0.8-0.4,1.2-0.7c0.6-0.4,1-0.9,1.4-1.5
				c0.5-0.7,0.9-1.4,1.2-2.2c1-2.5,0.1-5.2-1.8-6.8c-0.2-0.2-0.5-0.4-0.7-0.6c0.9-1.1,1.5-2.4,1.9-3.7c0.1-0.2,0.1-0.4,0.2-0.6
				c0.4-1.9,0.4-3.9-0.6-5.6c-0.4-0.7-1-1.3-1.8-1.8c-0.5-0.3-1-0.6-1.6-0.8c0.4-0.4,0.8-0.9,1.1-1.4c0.6-1.1,1-2.5,1.2-3.8
				c0.2-1,0.3-2.1,0-3.1c-0.1-0.3-0.9-2.3-0.4-0.8c-0.1-0.4-0.2-0.7-0.4-1c-0.1-0.2-0.2-0.4-0.3-0.6c0.8-0.7,1.4-1.5,1.9-2.5
				c0.3-0.6,0.5-1.2,0.7-1.9c0.9-3.2,0.5-6.8-1.9-9c0.2-0.1,0.4-0.1,0.5-0.2c1.3-0.5,2.5-1.4,3.3-2.6l3-0.2l5.1-0.3
				c0,0,1.1-3.4-2.5-5c-0.2-0.1-0.4-0.1-0.7-0.2c-1.2-0.3-2.8-0.1-3.5,0c0-0.4-0.1-0.7-0.2-1l0,0c-0.2-0.5-0.4-1.1-0.7-1.6
				c-0.1-0.1-0.1-0.2-0.2-0.3c-0.2-1.6-1.3-3-3.1-3.5c-1.8-0.5-4,0.1-5.4,1.1c-0.6,0.5-1.2,1-1.7,1.6c0,0,0,0-0.1,0.1
				c-0.2,0.2-0.5,0.5-0.7,0.8c-0.1,0.2-0.2,0.3-0.3,0.5c-1.2,2-1.6,4.4-1,6.7c0.3,1.1,0.9,2,1.7,2.7c-0.1,0-0.2,0.1-0.2,0.1
				c-0.4,0.1-0.8,0.3-1.2,0.5c-0.3,0.2-0.6,0.5-0.9,0.8c-1,1-1.6,2.3-2,3.6c-0.9,2.9-0.3,6.3,1.7,8.6c-0.1,0.1-0.2,0.1-0.3,0.2
				c-0.3,0.3-0.6,0.6-0.9,0.9c-0.7,0.9-1.2,2-1.4,3.1c-0.2,1.6,0.2,3.1,0.9,4.6c0.2,0.4,0.4,0.9,0.8,1.2c0,0.1,0.1,0.1,0.1,0.1
				s0,0,0-0.1c0,0,0,0.1,0.1,0.2c0.3,0.7,0.7,1.2,1.1,1.7c0.3,0.4,0.7,0.6,1.1,0.8c-0.2,0.1-0.4,0.2-0.6,0.3c-0.5,0.3-1,0.7-1.4,1.1
				c-1.1,1.1-1.8,2.6-1.9,4.3c-0.1,2.5,1.4,5.7,3.7,7.3c-0.8,0.9-1.4,2.1-1.5,3.2c-0.2,1.1,0,2.1,0.5,3.1c0.2,0.3,0.4,0.8,0.7,1.2
				c0.1,0.2,0.2,0.5,0.3,0.7c0.5,0.8,1.2,1.6,2,2c0.3,0.1,0.5,0.2,0.8,0.3c-0.1,0-0.2,0.1-0.3,0.1c-1.9,0.8-2.9,2.8-2.9,4.7
				c0,2.5,2,6.1,4.5,6.8c0.3,0.1,0.7,0.1,1,0.2c0,0.1-0.1,0.2-0.1,0.3c-0.1,0.4-0.1,0.9,0,1.3c-0.3,1.4-0.5,2.8,0,4.2
				c0.8,2.2,2.8,4,5,4.2c-0.1,0.1-0.2,0.3-0.4,0.5h-0.1v0.1c-1.2,1.7-1.8,4.2-1.4,6c0.3,1.5,1.2,2.7,2.3,3.5
				c0.4,0.3,0.9,0.6,1.4,0.8c-0.1,0.3-0.3,0.6-0.4,0.9c0,0.1-0.1,0.2-0.1,0.4c-0.3,1.3-0.3,2.7,0,4c0.6,2.8,3,5.1,6,5
				c0.2,0,0.3,0,0.5,0c-0.1,0.2-0.1,0.4-0.2,0.6c-0.2,0.5-0.4,1-0.5,1.5c-0.3,1.4-0.5,3.1,0,4.5c0.8,2.5,3.5,3.9,6,3.2
				c1-0.3,1.9-0.8,2.7-1.4c-0.4,2,0,4.3,1.4,5.8c1,1.1,2.4,2.1,3.9,2.3c2.2,0.3,4.1-0.8,5.2-2.7c0.4-0.6,0.7-1.4,0.8-2.1
				c1.4,2.8,4.7,4.2,7.5,2.5c1.5-0.9,2.4-2.4,2.8-4.1c0.2-1,0.3-2,0.2-3c0-0.3-0.1-0.6-0.1-0.9c0-0.1-0.1-0.2-0.1-0.3
				c0.8,1.3,2.1,2.2,3.8,2.2c2.1,0,3.5-1.4,4.3-3.2c0.8-1.9,1.3-4.3,0.7-6.4c0-0.5-0.1-1-0.3-1.4c2.7,0.4,5.8-0.9,6.5-3.8
				c0.3-1.2,0.3-2.5,0-3.6c-0.1-0.4-0.3-0.9-0.5-1.3c-0.3-0.4-0.6-0.8-0.9-1.2c-0.2-0.2-0.4-0.4-0.6-0.6c1.9-0.3,3.2-1.8,3.9-3.6
				c0.3-1,0.5-2,0.5-3c-0.1-1.2-0.4-2.3-1.1-3.2c-0.3-0.5-0.7-0.9-1.2-1.3c-0.1,0-0.1-0.1-0.2-0.1c0.6-0.4,1.1-1,1.5-1.7
				c0.4-0.6,0.6-1.3,0.7-1.9c0.2-1.3,0-2.7-0.6-4c-0.3-0.6-0.7-1.1-1.1-1.5c-0.8-0.8-1.8-1.4-2.8-1.7l0,0c0,0,0-0.1,0.1-0.1
				c0.8-0.9,1.3-1.8,1.5-2.8c0.1-0.4,0.1-0.8,0.1-1.2c-0.1-1.5-0.6-3-1.7-4.1l-0.1-0.1l0,0c0,0,0-0.1-0.1-0.1
				c-0.4-0.4-0.8-0.7-1.3-0.9c1.2-0.5,2.3-1.4,2.9-2.5c0.3-0.6,0.5-1.1,0.7-1.7c0.2-1.1,0.2-2.2-0.2-3.3c-0.4-1.3-1.2-2.3-2.1-3
				c-0.2-0.2-0.4-0.3-0.6-0.4c-0.5-0.6-1.2-1-1.9-1.2c1.3-0.6,2.4-1.6,2.9-2.9c0.2-0.5,0.3-1,0.4-1.6c0.1-1.6-0.7-3-1.7-4.1
				c-0.2-0.3-0.5-0.5-0.8-0.8c-0.4-0.3-0.9-0.7-1.3-0.9s-0.9-0.3-1.3-0.4c0.8-0.3,1.5-0.8,2.1-1.4c0.4-0.5,0.8-1.1,1-1.7
				c0.3-0.8,0.4-1.7,0.2-2.6c0-0.1,0-0.2-0.1-0.3c-0.4-1.1-1-1.9-2-2.5c-0.1-0.1-0.2-0.1-0.2-0.1c1.2-0.3,2.3-1.1,3.1-2.2
				c0.1-0.2,0.2-0.3,0.3-0.5c0.6-1.1,0.7-2.2,0.3-3.4c0-0.1-0.1-0.2-0.1-0.3c-0.3-0.7-0.7-1.2-1.3-1.6c0.1-0.1,0.2-0.1,0.3-0.2
				c0.7-0.3,1.2-0.7,1.7-1.3c0.8-0.9,1.2-2.1,1.1-3.4c0-0.5-0.1-1-0.3-1.5c-0.2-0.5-0.4-1-0.6-1.5c1,0,2-0.3,2.9-0.8
				c0.5-0.3,1-0.6,1.4-1.1c1-1,1.5-2.4,1.6-3.8c0-0.2,0-0.4,0-0.6c0.6,0.4,1.2,0.8,1.9,0.9c1.3,0.3,2.8,0.1,4-0.5
				c0.6-0.3,1.1-0.6,1.5-1.1c0.1-0.1,0.2-0.2,0.3-0.3c0.1-0.1,0.2-0.2,0.2-0.3c0,0.4,0.1,0.7,0.1,0.7l7.7-0.7l3.3-0.3
				C1576.5,835.3,1576.7,834.4,1576.3,832.9z"/>
			<path opacity="0.3" fill="#091426" enable-background="new    " d="M1499.4,843.6c1.3-0.5,2.5-1.4,3.3-2.6l3-0.2
				c0.2-0.4,0.4-0.8,0.6-1.2c0.6-1.2,1.1-2.7,1.3-4.3c-1.2-0.3-2.8-0.1-3.5,0c0-0.4-0.1-0.7-0.2-1l0,0c0,0.8-0.1,1.5-0.2,2.3
				c-0.6,3.2-2.2,4.1-5.4,4c-3-0.1-4.9-1.2-5.6-4.1c-0.4-1.8-0.3-3.3,0.1-4.9c0,0,0,0-0.1,0.1c-0.2,0.2-0.5,0.5-0.7,0.8
				c-0.1,0.2-0.2,0.3-0.3,0.5c-1.2,2-1.6,4.4-1,6.7c0.3,1.1,0.9,2,1.7,2.7c-0.1,0-0.2,0.1-0.2,0.1c1.4,0.7,3.2,1,5,1.1
				C1498,843.4,1498.7,843.5,1499.4,843.6z"/>
			<path opacity="0.3" fill="#091426" enable-background="new    " d="M1498.6,857.7c-0.1-0.2-0.2-0.4-0.3-0.6
				c0.8-0.7,1.4-1.5,1.9-2.5c-3.9,1.2-8.7,0-9.5-4c-0.5-2.5,0-4.7-0.4-7c-1,1-1.6,2.3-2,3.6c-0.9,2.9-0.3,6.3,1.7,8.6
				c-0.1,0.1-0.2,0.1-0.3,0.2c0.4,0.3,0.7,0.5,1.2,0.7C1492.8,857.6,1495.7,857.9,1498.6,857.7z"/>
			<path opacity="0.3" fill="#091426" enable-background="new    " d="M1498.7,868.6c-0.5-0.3-1-0.6-1.6-0.8
				c0.4-0.4,0.8-0.9,1.1-1.4c-2.7,0.5-6.7,0.2-7.8-2.4c-0.9-2.2-1-4.7-1.6-7.1c-0.7,0.9-1.2,2-1.4,3.1c-0.2,1.6,0.2,3.1,0.9,4.6
				c0.2,0.4,0.4,0.9,0.8,1.2c0,0.1,0.1,0.1,0.1,0.1s0,0,0-0.1c0,0,0,0.1,0.1,0.2c0.3,0.7,0.7,1.2,1.1,1.7c0.3,0.4,0.7,0.6,1.1,0.8
				c-0.2,0.1-0.4,0.2-0.6,0.3C1493.2,869.7,1496,869.3,1498.7,868.6z"/>
			<path opacity="0.3" fill="#091426" enable-background="new    " d="M1512.2,924.4c-0.5-0.5-1-0.8-1.6-1.2c0.7-0.9,1.1-1.9,1.3-3
				c-1.2,0.5-2.8,0.7-4,0.7c-2.4,0.1-4.4,0-5.6-2.2c-0.7-1.2-0.9-2.8-1.4-4.2c-1.2,1.7-1.8,4.2-1.4,6c0.3,1.5,1.2,2.7,2.3,3.5
				C1504.6,925.3,1508.9,925.4,1512.2,924.4z"/>
			<path opacity="0.3" fill="#091426" enable-background="new    " d="M1487.5,874.3c-0.1,2.5,1.4,5.7,3.7,7.3
				c-0.8,0.9-1.4,2.1-1.5,3.2c-0.2,1.1,0,2.1,0.5,3.1c0.2,0.3,0.4,0.8,0.7,1.2c0.1,0.2,0.2,0.5,0.3,0.7c0.5,0.8,1.2,1.6,2,2
				c0.3,0.1,0.5,0.2,0.8,0.3c-0.1,0-0.2,0.1-0.3,0.1c-1.9,0.8-2.9,2.8-2.9,4.7c0,2.5,2,6.1,4.5,6.8c0.3,0.1,0.7,0.1,1,0.2
				c0,0.1-0.1,0.2-0.1,0.3c-0.1,0.4-0.1,0.9,0,1.3c-0.3,1.4-0.5,2.8,0,4.2c0.8,2.2,2.8,4,5,4.2c-0.1,0.1-0.2,0.3-0.4,0.5
				c2,0,4.7-0.6,7-1.7c-0.8-0.4-1.7-0.6-2.6-0.6c0.7-0.9,1.1-2,1.3-3.2c-2.1,1-4.8,1.6-6.1,1.5c-2.3-0.2-2.7-3.7-3.2-6.2
				c1.6-0.2,3.2-0.7,4.4-1.1c1-0.3,2-0.9,2.7-1.7c-0.5-0.5-1.2-0.9-1.8-1.1c-0.7,0.7-1.6,1.1-2.7,1.2c-1.1,0-3.5-0.6-4.4-1.2
				c-1.7-1.3-1.7-5.3-1.5-7.4c1.8,0.5,3.8,0.5,5.7,0.1c-0.6-0.5-1.3-0.8-2.1-0.9c0.4-0.2,0.8-0.4,1.2-0.7c0.6-0.4,1-0.9,1.4-1.5
				c-2.8,1.1-5.9,1.6-7.6-1.4c-0.9-1.6-1.2-3.6-1.1-5.4c0-0.6,0.1-1,0.1-1.4c2.5,0.4,5.5,0.1,8-0.8c-0.2-0.2-0.5-0.4-0.7-0.6
				c0.9-1.1,1.5-2.4,1.9-3.7c-2.2,1.5-4.6,2.7-7.4,2.2c-3.7-0.7-4-5.5-4-8.8C1488.3,871.1,1487.6,872.6,1487.5,874.3z"/>
			<path opacity="0.3" fill="#091426" enable-background="new    " d="M1528.5,945c-0.2-0.5-0.9-0.4-1,0.1c-0.1,0.7,0,1.4,0.1,2.1
				c-0.5-0.3-1.2-0.4-1.9,0c-1.6,0.8-4.3,1.7-6,0.7c-1.9-1.2-1.4-3.6-0.9-5.6c0.5-0.7,1-1.4,1.5-2c0.3-0.5,0.6-0.9,0.8-1.4
				c-0.6,0.2-1.2,0.4-1.7,0.8c0.1-0.7,0.2-1.4,0.1-2.1c0-0.1,0-0.3-0.1-0.4c-0.1,0.1-0.1,0.1-0.1,0.2c-0.7,1.8-1.9,2.4-3.5,3.1
				c-0.9,0.5-2.3,1.3-3.3,1.4c-2.3,0.2-2.7-3-2.7-5.3c2.5-0.5,5.5-1.9,7.5-3.1c-0.2-0.2-0.5-0.3-0.7-0.5c-1-0.6-2.2-0.8-3.3-0.8
				c0.3-0.4,0.4-0.9,0.6-1.4c-0.9,0.4-1.9,0.7-2.6,1c-2.7,1-4.8,0.9-6.1-2.1c-0.7-1.5-1.4-2.8-2.5-4c0,0.1-0.1,0.2-0.1,0.4
				c-0.3,1.3-0.3,2.7,0,4c0.6,2.8,3,5.1,6,5c0.2,0,0.3,0,0.5,0c-0.1,0.2-0.1,0.4-0.2,0.6c-0.2,0.5-0.4,1-0.5,1.5
				c-0.3,1.4-0.5,3.1,0,4.5c0.8,2.5,3.5,3.9,6,3.2c1-0.3,1.9-0.8,2.7-1.4c-0.4,2,0,4.3,1.4,5.8c1,1.1,2.4,2.1,3.9,2.3
				c2.2,0.3,4.1-0.8,5.2-2.7c0.4-0.6,0.7-1.4,0.8-2.1c1.4,2.8,4.7,4.2,7.5,2.5c1.5-0.9,2.4-2.4,2.8-4.1c-1.4,1.2-2.9,2.3-4.7,2.6
				C1531.7,948.3,1529.3,947.2,1528.5,945z"/>
			<path opacity="0.3" fill="#091426" enable-background="new    " d="M1548.5,917.3c-1.1-0.6-2.1-1.4-3.1-2.1
				c-0.6,2.1,0.5,4.4,2.3,5.7c-0.2,0-0.4,0.1-0.6,0.1c1.1,0.5,2.2,0.9,3.4,1.2c0.6,0.1,1.2,0.2,1.8,0.3c-0.2-0.2-0.4-0.4-0.6-0.6
				c1.9-0.3,3.2-1.8,3.9-3.6C1553.2,919,1550.2,918.3,1548.5,917.3z"/>
			<path opacity="0.3" fill="#091426" enable-background="new    " d="M1538.7,941.1c0.8,1.3,2.1,2.2,3.8,2.2c2.1,0,3.5-1.4,4.3-3.2
				c0.8-1.9,1.3-4.3,0.7-6.4c0-0.5-0.1-1-0.3-1.4c2.7,0.4,5.8-0.9,6.5-3.8c0.3-1.2,0.3-2.5,0-3.6c-0.3,1.5-1.1,2.9-2.3,3.8
				c-1.1,0.8-2.7,1-4.3,1c-1.6-0.5-3.3-1-5-1.6c0.1,0.4,0.2,0.8,0.5,1.3c0.1,0.2,0.3,0.5,0.5,0.7c-0.6,0-1.2,0.2-1.8,0.4
				c1.9,1.6,4,3,6.2,3.7c-0.8,0.1-1.4,0.8-1.5,1.7c0,0.1,0,0.1,0,0.2c-0.5,0.8-1.5,1.6-2,2.1c-1,0.8-2.2,1.1-3.4,0.5
				c-0.1,0-0.2-0.1-0.2-0.1c-0.6-0.4-1.2-0.8-1.8-1.5c-0.3-0.4-0.8-0.2-1,0.1c0.1,0.5,0.2,1.1,0.3,1.6c0.1,0.2,0.2,0.5,0.2,0.7
				c0.1,0.2,0.1,0.4,0.2,0.6c0,0,0-0.1-0.1-0.1c0.2,0.8,0.4,1.6,0.8,2.4c0-0.3-0.1-0.6-0.1-0.9
				C1538.8,941.3,1538.8,941.2,1538.7,941.1z"/>
			<path opacity="0.3" fill="#091426" enable-background="new    " d="M1544,909c0.4,0.8,1,1.5,1.8,1.9c0.4,0.2,0.9,0.4,1.4,0.5
				c-0.2,0.2-0.4,0.5-0.6,0.7s-0.3,0.5-0.4,0.7c1.8,0.3,3.7,0.3,5.6-0.1c1-0.2,2-0.4,3-0.8c-0.3-0.5-0.7-0.9-1.2-1.3
				c-0.1,0-0.1-0.1-0.2-0.1c0.6-0.4,1.1-1,1.5-1.7c0.4-0.6,0.6-1.3,0.7-1.9C1552.2,909.2,1548,909.7,1544,909z"/>
			<path opacity="0.3" fill="#091426" enable-background="new    " d="M1547.7,898.6c-1.7,0.2-3,0.1-4.3-1.2c-0.7-0.7-0.9-1.3-1-2.1
				c-0.4,1-0.7,2-0.6,2.9c0.2,2,1.2,3.2,3,3.9c0.1,0,0.2,0.1,0.3,0.1c-0.2,0.3-0.3,0.6-0.4,1c-0.4,0.5-0.8,1.1-1,1.7
				c1.7-0.8,3.7-1.3,5.4-1.9c1.6-0.6,3.1-1.1,4.7-1.5c-0.8-0.8-1.8-1.4-2.8-1.7l0,0c0,0,0-0.1,0.1-0.1c0.8-0.9,1.3-1.8,1.5-2.8
				c-0.1,0.1-0.3,0.2-0.5,0.4C1551,898.1,1549.1,898.4,1547.7,898.6z"/>
			<path opacity="0.3" fill="#091426" enable-background="new    " d="M1540.2,871.8c0,0.2-0.1,0.3-0.1,0.5c-0.4,1.6,0,3.1,1,4.4
				c0.9,1.2,2.3,1.8,3.8,2c-1.1,0.7-1.9,1.9-2.6,2.9c-0.7,1.1-1.3,2.6-1.3,4c0,0.1,0.1,0.5,0.1,0.9c0,0.3,0.2,1,0.2,1.1
				c0.4,1.1,1.1,2.1,2.1,2.7c0.6,0.4,1.3,0.6,2,0.8c-0.3,0.2-0.5,0.4-0.7,0.6c0,0,0,0-0.1,0.1c-0.3,0.4-0.6,0.8-0.8,1.2
				c2.4-0.4,4.8-0.8,7.2-1.2l-0.1-0.1l0,0c0,0,0-0.1-0.1-0.1c-0.4-0.4-0.8-0.7-1.3-0.9c1.2-0.5,2.3-1.4,2.9-2.5
				c0.3-0.6,0.5-1.1,0.7-1.7c-1,0.6-2,1.3-3.2,1.5c-1.6,0.3-3.7-0.1-5.1-0.9c-1.4-0.8-1.9-2.6-2-4.3c1.2-0.7,2.5-1.3,3.8-1.8
				c1.4-0.1,2.8-0.4,4.1-0.9c-0.2-0.2-0.4-0.3-0.6-0.4c-0.5-0.6-1.2-1-1.9-1.2c1.3-0.6,2.4-1.6,2.9-2.9c-1.5,0.9-3.2,1.5-5.2,1.5
				C1542.8,876.7,1541.4,874.3,1540.2,871.8z"/>
			<path opacity="0.3" fill="#091426" enable-background="new    " d="M1549.8,849.4c-0.9-0.5-1.9-0.8-3-0.8
				c-0.2-0.1-0.4-0.2-0.6-0.3c-1.9-1-2.5-3.1-2.7-5.1c-0.4,0.9-0.6,2-0.6,2.9c0.1,1.4,0.5,2.7,1.4,3.8c-0.3,0.1-0.7,0.3-1,0.5
				c-0.5,0.2-0.9,0.5-1.3,0.9c-0.9,0.9-1.3,2-1.4,3.3c0,0.7,0.2,1.5,0.6,2.1c0.4,0.7,1,1.2,1.7,1.6c-0.5,0.2-1,0.5-1.5,0.9
				c-0.3,0.3-0.5,0.6-0.7,0.9c1.7,0.1,3.5,0.4,5.1,0.8c1.2,0.4,2.5,0.6,3.7,0.9c0-0.1,0-0.2-0.1-0.3c-0.4-1.1-1-1.9-2-2.5
				c-0.1-0.1-0.2-0.1-0.2-0.1c1.2-0.3,2.3-1.1,3.1-2.2c-0.8,0-1.6,0.1-2.2,0c-1.7-0.3-3.7-0.8-4.8-2.2c-0.6-0.8-0.8-1.7-1-2.7
				c1-0.2,2-0.1,3,0.1c1.6,0.7,3.7,1.1,5.6,0.9c0-0.1-0.1-0.2-0.1-0.3c-0.3-0.7-0.7-1.2-1.3-1.6c0.1-0.1,0.2-0.1,0.3-0.2
				c0.7-0.3,1.2-0.7,1.7-1.3C1550.9,849.4,1550.4,849.4,1549.8,849.4z"/>
			<path opacity="0.3" fill="#091426" enable-background="new    " d="M1546.4,865.1c-0.7,0-1.4,0-2.1-0.2c-2-0.4-3.3-2.1-4-3.9
				c-0.6,1-0.9,2.2-0.6,3.5c0.2,1.2,1.1,2.3,2.2,2.9c0.5,0.2,1,0.4,1.5,0.5c-0.7,0.3-1.3,0.8-1.7,1.5l0,0c1.1-0.1,2.2-0.2,3.3-0.3
				c1.2,0.1,2.4,0,3.6-0.2c0.1,0,0.2,0,0.4,0c-0.4-0.3-0.9-0.7-1.3-0.9s-0.9-0.3-1.3-0.4c0.8-0.3,1.5-0.8,2.1-1.4
				c0.4-0.5,0.8-1.1,1-1.7c-0.3,0.2-0.7,0.3-1.1,0.4C1547.6,864.9,1547,865,1546.4,865.1z"/>
			<path opacity="0.3" fill="#091426" enable-background="new    " d="M1551.6,840.7c-3.3-1.5-4.3-5.1-2.6-8.3l0,0
				c-0.9,0.7-1.5,1.6-2.2,2.5c-0.6,0.9-0.7,2.4-0.5,3.5c0,0.1,0.1,0.2,0.1,0.3c0,0.3,0.1,0.6,0.2,0.9c0.1,0.2,0.2,0.5,0.3,0.7
				c-0.1,0-0.1,0-0.2,0c0.5,1,1.1,1.9,2,2.5c0.9,0.7,2.2,1.3,3.5,1.6c-0.2-0.5-0.4-1-0.6-1.5c1,0,2-0.3,2.9-0.8
				c0.5-0.3,1-0.6,1.4-1.1C1554.5,841.4,1553.1,841.4,1551.6,840.7z"/>
			<path opacity="0.3" fill="#091426" enable-background="new    " d="M1559.4,837.7c1.3,0.3,2.8,0.1,4-0.5c-1.6-0.4-2.9-1.3-4-2.7
				c-1-1.3-2.1-3.1-1.8-4.9c0.2-1.2,0.9-2.1,1.5-3c-0.3,0.1-0.7,0.3-1,0.5c-0.8,0.5-1.5,1.2-1.9,2.1c-0.5,0.9-0.9,1.9-0.9,3
				c0,0.1,0,0.2,0,0.3c-0.3-0.2-0.6-0.4-0.9-0.6c0.2,1.2,0.8,2.3,1.4,3.3c0.4,0.6,0.9,1.3,1.6,2c0-0.2,0-0.4,0-0.6
				C1558,837.2,1558.7,837.5,1559.4,837.7z"/>
			<path opacity="0.3" fill="#091426" enable-background="new    " d="M1569.6,834.6c-0.4-0.1-1-0.3-1.5-0.6c0-0.5,0-0.9,0.1-1.4
				c0.3-1.1,1.2-2.3,2.2-3.3c-0.6,0-1.2,0.2-1.8,0.4c-0.8,0.3-1.4,0.8-1.8,1.3c0-0.1,0-0.1,0-0.2c-1.3,1.6-2.1,3.5-1.9,5.3
				c0.1-0.1,0.2-0.2,0.3-0.3c0.1-0.1,0.2-0.2,0.2-0.3c0,0.4,0.1,0.7,0.1,0.7l7.7-0.7c-0.2-0.2-0.4-0.3-0.7-0.4
				C1571.5,834.9,1570.5,834.9,1569.6,834.6z"/>
			<circle fill="#FEFEFE" cx="1498.9" cy="834.6" r="1.9"/>
			<circle fill="#FEFEFE" cx="1494.6" cy="861.5" r="2.3"/>
			<circle fill="#FEFEFE" cx="1496.5" cy="872.5" r="2.3"/>
			<circle fill="#FEFEFE" cx="1550.1" cy="845.7" r="1.1"/>
			<circle fill="#FEFEFE" cx="1553.3" cy="835.7" r="1.1"/>
			<circle fill="#FEFEFE" cx="1562.5" cy="830.4" r="1.1"/>
			<circle fill="#FEFEFE" cx="1572.3" cy="832.2" r="1.1"/>
			<circle fill="#FEFEFE" cx="1498.1" cy="897.9" r="2.3"/>
			<circle fill="#FEFEFE" cx="1548.3" cy="884.6" r="1.7"/>
			<circle fill="#FEFEFE" cx="1546" cy="863.1" r="1.7"/>
			<circle fill="#FEFEFE" cx="1547.3" cy="872.8" r="1.7"/>
			<circle fill="#FEFEFE" cx="1497.7" cy="885.1" r="2.3"/>
			<circle fill="#FEFEFE" cx="1503.2" cy="906.8" r="2.3"/>
			<circle fill="#FEFEFE" cx="1507.1" cy="916.8" r="1.8"/>
			<circle fill="#FEFEFE" cx="1549.8" cy="926.3" r="1.8"/>
			<circle fill="#FEFEFE" cx="1548.3" cy="895.7" r="1.8"/>
			<circle fill="#FEFEFE" cx="1510" cy="927" r="1.2"/>
			<circle fill="#FEFEFE" cx="1535" cy="943.3" r="1.2"/>
			<circle fill="#FEFEFE" cx="1551.6" cy="914.6" r="1.2"/>
			<circle fill="#FEFEFE" cx="1550.5" cy="905" r="1.2"/>
			<circle fill="#FEFEFE" cx="1516.2" cy="937.6" r="1.2"/>
			<circle fill="#FEFEFE" cx="1524.3" cy="944.5" r="1.2"/>
			<circle fill="#FEFEFE" cx="1543.1" cy="935.6" r="1.2"/>
			<circle fill="#FEFEFE" cx="1496.5" cy="848.7" r="1.9"/>
			<circle fill="#FEFEFE" cx="1547.3" cy="854.6" r="1.9"/>
		</g>
		<g>
			<path fill="#FFE590" d="M1307,663.8c1.4,3.3,3.8,6.1,6,8.9c2.2,2.8,4.3,6.8,7.4,8.6c0.3,0.2,0.7-0.1,0.6-0.5
				c-0.5-3.3-3.5-6.6-5.2-9.5c-1.9-3.1-3.9-6.5-6.6-8.9C1308.3,661.8,1306.4,662.5,1307,663.8L1307,663.8z"/>
			<path fill="#FFE590" d="M1320.4,594.1c6.4,15,14.2,29.6,21.9,43.9c7.5,13.9,15.1,28.1,23.4,41.6c0.4,0.7,1.6,0.2,1.3-0.6
				c-4.8-14.8-14-28.2-21.4-41.8c-7.9-14.6-15.1-29.8-23.5-44.1C1321.5,591.9,1319.9,593,1320.4,594.1L1320.4,594.1z"/>
			<path fill="#FFE590" d="M1359.9,579.8c6,12.7,12.1,25.4,17.7,38.3c2.7,6.2,5.4,12.4,8.1,18.6c3.1,6.9,5.8,14.7,10,21
				c0.3,0.5,1,0.2,0.9-0.4c-1.5-7.4-5.2-14.9-7.9-21.9c-2.4-6.2-4.9-12.3-7.5-18.4c-5.7-13.1-11.8-26.3-20.3-37.9
				C1360.5,578.4,1359.5,579,1359.9,579.8L1359.9,579.8z"/>
			<path fill="#FFE590" d="M1349.6,435.5c1.3,8.6,4.9,17.2,7.4,25.5c2.7,8.6,5.4,17.2,8.1,25.8c5.3,17,10.6,33.9,16,50.8
				c5.5,16.9,11.1,33.8,17,50.5c6,17.1,13.2,33.7,20.1,50.5c0.3,0.8,1.6,0.4,1.3-0.3c-6.4-16.8-11.8-34.1-17.8-51.1
				c-6-17.1-11.7-34.2-17.3-51.4c-5.6-17.2-10.9-34.5-16.3-51.8c-2.7-8.6-5.2-17.2-7.8-25.8c-2.4-7.9-4.3-16.5-7.8-23.9
				C1351.6,432.5,1349.4,433.9,1349.6,435.5L1349.6,435.5z"/>
			<path fill="#FFE590" d="M1436,588.2c-0.4,2.8,0.5,5,1.3,7.7c1.2,3.9,2.4,7.9,3.6,11.8c2.1,6.9,3.4,14.5,6.3,21
				c0.3,0.6,1.2,0.3,1.2-0.3c0.1-7-2.3-14.9-4.1-21.6c-1.5-5.7-3-14.8-7.5-18.8C1436.6,587.8,1436.1,587.8,1436,588.2L1436,588.2z"
				/>
			<path fill="#FFE590" d="M1452.9,534.2c2.5,16.5,6.4,32.9,10.2,49.1c1.9,8.1,3.9,16.3,6.2,24.3c2.3,7.9,5.3,15.7,6.9,23.7
				c0.1,0.4,0.7,0.3,0.7-0.1c-0.9-16.2-6.9-32.1-10.8-47.8c-4.2-16.5-7.4-33.3-12-49.7C1454,533,1452.8,533.3,1452.9,534.2
				L1452.9,534.2z"/>
			<path fill="#FFE590" d="M1463.8,459.9c-0.2,5.3,1.5,10.8,2.5,15.9c1.2,6.1,2.4,12.2,3.6,18.3c2.3,11.8,4.5,23.6,6.9,35.4
				c2.3,11.7,4.7,23.3,7.1,35c2.4,12.1,4,25.1,8.2,36.7c0.2,0.7,1.4,0.6,1.3-0.2c-0.5-11.5-3.6-23.2-5.7-34.5
				c-2.3-12.4-4.6-24.7-6.9-37.1c-2.2-11.8-4.6-23.6-6.9-35.4c-1.1-5.8-2.2-11.6-3.4-17.3c-1.1-5.8-1.6-12.2-4-17.5
				C1465.8,457.8,1463.9,458.6,1463.8,459.9L1463.8,459.9z"/>
			<path fill="#FFE590" d="M1513.6,479.7c-1.5,2.8-0.4,6.3,0.1,9.4c0.6,4.4,1.3,8.8,2.2,13.1c0.1,0.6,1,0.5,1.2,0
				c1.4-4,0.6-8.7,0.1-12.8c-0.4-3.2-0.2-7.4-2.5-9.8C1514.4,479.2,1513.8,479.3,1513.6,479.7L1513.6,479.7z"/>
			<path fill="#FFE590" d="M1521.4,573.5c-0.2,9.1,1.9,18.6,3.1,27.6c1.2,8.7,2.3,17.3,4.2,25.9c0.2,1,1.8,0.8,1.8-0.2
				c-0.4-9.3-1.6-18.4-2.8-27.6c-1.1-8.6-1.6-17.7-3.9-26C1523.4,571.8,1521.4,572.1,1521.4,573.5L1521.4,573.5z"/>
			<path fill="#FFE590" d="M1542.3,363.4c-0.6,7.1,0.4,14.6,0.5,21.7c0.2,7.2,0.2,14.5,0.2,21.7c-0.1,14.5-0.4,29-0.8,43.5
				c-0.3,14.5-0.3,29-0.1,43.5c0.2,13.7,0,28,2.2,41.6c0.1,0.6,1,0.4,1-0.1c0.4-14.4-0.5-29-0.3-43.4c0.2-14.5,0.9-29,1.3-43.5
				s0.7-29,0.8-43.5c0-6.9,0-13.8-0.2-20.7c-0.2-7,0.1-14.3-1.2-21.2C1545.2,361,1542.5,361.7,1542.3,363.4L1542.3,363.4z"/>
			<path fill="#FFE590" d="M1568.3,455.5c-1.6,5.8-1.5,12.2-1.8,18.2c-0.4,6.6-0.7,13.3-1.1,19.9c-0.7,13-1.4,25.9-2.2,38.9
				c-0.8,13-1.6,25.9-2.4,38.9c-0.9,13.1-2.6,26.7-1.4,39.8c0,0.5,0.8,0.6,0.9,0.1c2.9-12.3,3.1-25.4,4-38
				c0.9-13.3,1.7-26.6,2.5-39.9c0.8-13,1.5-25.9,2.2-38.9c0.4-6.6,0.7-13.3,1-19.9c0.3-6.3,1.1-12.9,0-19.2
				C1569.9,454.7,1568.6,454.8,1568.3,455.5L1568.3,455.5z"/>
			<path fill="#FFE590" d="M1594.4,458.2c-0.7,6.5-0.4,13.2-0.8,19.8c-0.4,6.2-0.9,12.4-1.4,18.7c-0.5,6.1-1,12.3-1.3,18.4
				c-0.3,6.3-1.5,13.1-0.6,19.4c0.1,0.6,0.9,0.8,1.2,0.2c1.7-5.6,1.7-11.8,2.4-17.6c0.8-6.8,1.4-13.6,2-20.4
				c1.1-12.4,3.6-26.4,0.6-38.7C1595.9,456.9,1594.5,457.2,1594.4,458.2L1594.4,458.2z"/>
			<path fill="#FFE590" d="M1608.7,558.6c-0.9,3.2-0.4,6.6-0.5,9.9c0,3.8-0.2,7.7-0.4,11.5c-0.4,8.1-1.1,16.1-1.7,24.1
				c-1.2,15.9-3.1,32.3-2.7,48.3c0,0.4,0.7,0.6,0.8,0.1c3-15.5,3.9-31.7,5.4-47.4c0.7-7.7,1.5-15.5,2-23.2
				c0.5-7.1,2.2-16.7-0.4-23.4C1610.9,557.4,1609.1,557.3,1608.7,558.6L1608.7,558.6z"/>
			<path fill="#FFE590" d="M1650.9,422.7c-3.6,11.7-4.3,25-6,37.2c-1.8,12.4-3.6,24.9-5.3,37.3c-1.5,11.6-3,23.3-4.2,34.9
				c-1.3,12.6-4,25.8-3.3,38.5c0,0.7,1.1,1,1.4,0.2c3.1-12,3.2-25,4.9-37.2c1.7-12.4,3.4-24.9,5.1-37.3c1.7-12.1,3.4-24.2,5.1-36.3
				c1.8-12,5-24.7,4.9-36.8C1653.4,421.5,1651.3,421.3,1650.9,422.7L1650.9,422.7z"/>
			<path fill="#FFE590" d="M1643.2,606.7c-2.3,4.3-3,9.6-3.8,14.4c-0.8,4.9-2.1,10-1.9,15c0,0.6,0.8,0.9,1.2,0.3
				c2.4-3.6,2.7-8.1,3-12.4c0.5-5.8,1.4-11.2,2.6-16.9C1644.5,606.5,1643.5,606,1643.2,606.7L1643.2,606.7z"/>
			<path fill="#FFE590" d="M1685,521.6c-2.8,5.9-3.6,12.8-5,19.1c-1.5,6.7-2.9,13.4-4.3,20c-2.9,13.7-7.3,27-10,40.7
				c-0.1,0.4,0.5,0.5,0.6,0.2c5.2-13,8.3-26.7,12.1-40.1c1.9-6.6,3.6-13.2,5.1-19.8c1.5-6.3,3.6-13.1,3.3-19.6
				C1686.9,521.2,1685.5,520.6,1685,521.6L1685,521.6z"/>
			<path fill="#FFE590" d="M1707.7,502.9c-2.4,6.5-3.5,13.4-5.2,20c-1.6,6.1-3.4,12.1-5.2,18.1c-4.1,13.4-8.2,26.7-12.1,40.2
				c-3.9,13.2-7.9,26.3-11.9,39.4c-3.6,11.9-8.4,24.6-8.7,37.2c0,1.2,1.9,1.5,2.1,0.3c5.7-26.4,14.4-52.1,22.6-77.8
				c4.1-13,8.2-26,12.1-39.1c3.6-12,8.8-25.3,8.8-37.9C1710.1,501.8,1708.2,501.6,1707.7,502.9L1707.7,502.9z"/>
			<path fill="#FFE590" d="M1706.7,634.5c-2.9,6.3-5.1,12.6-6.1,19.5c-0.1,0.4,0.5,0.7,0.7,0.3c3.2-6.2,5.1-12.6,6.5-19.4
				C1707.8,634.3,1707,633.8,1706.7,634.5L1706.7,634.5z"/>
			<path fill="#FFE590" d="M1779.2,479.4c-3.8,7.4-5.9,15.9-8.5,23.7c-2.9,8.5-5.7,17-8.5,25.5c-6,18.2-13,36-19,54.1
				c-0.2,0.7,1,1.3,1.3,0.5c7.6-17.3,13.8-35.3,20.5-52.9c3.3-8.7,6.5-17.4,9.5-26.2c1.4-4,2.7-8,4.1-11.9c1.3-3.9,3.2-8,2.9-12.2
				C1781.5,478.9,1779.8,478.3,1779.2,479.4L1779.2,479.4z"/>
			<path fill="#FFE590" d="M1821.2,522c-7.8,10-13.3,21.7-19.6,32.6c-6.8,11.8-13.1,24-20.6,35.4c-7.3,11.1-14.2,22.5-21.1,33.9
				c-7,11.7-14.3,23.3-20,35.7c-0.6,1.3,1,2.2,1.9,1.1c7.8-10.8,14.2-22.5,20.9-34c6.8-11.8,13.5-23.7,19.8-35.8
				c6.2-11.8,13.6-22.9,20.3-34.3c6.6-11.1,14.4-21.9,19.4-33.9C1822.5,522.1,1821.6,521.5,1821.2,522L1821.2,522z"/>
			<path fill="#FFE590" d="M1884.3,527.1c-5.2,6.1-9.4,12.9-14,19.4c-4.9,6.9-9.9,13.7-15,20.5c-10.7,14.1-21.8,27.9-32.6,41.9
				c-10.1,13-20.1,26.2-29.3,39.9c-10.2,15-20.3,30.5-28.9,46.5c-0.7,1.3,1.1,2.3,2,1.2c10.7-14.4,19.7-30.1,29.7-44.9
				c9.7-14.4,20.2-28.3,30.9-42c10.1-13,20.4-26,30.4-39.1c10-13.2,21.6-26.8,28.5-42C1886.4,527.4,1885.1,526.1,1884.3,527.1
				L1884.3,527.1z"/>
			<path fill="#FFE590" d="M1809,649.4c8.5-11.5,17.7-22.5,26.4-33.9c4.7-6.1,9.4-12.2,14.1-18.2c4.4-5.6,9.5-11.1,12.8-17.4
				c0.4-0.8-0.6-1.7-1.3-1c-5.2,4.9-9.2,11.2-13.5,16.9c-4.5,6-9,11.9-13.5,17.8c-8.9,11.6-17.6,23.3-26,35.2
				C1807.6,649.4,1808.6,650,1809,649.4L1809,649.4z"/>
			<path fill="#FFE590" d="M1786.8,704.7c4.8-3.4,8.9-7.6,13-11.9c4-4.1,8.7-8.4,11.6-13.3c0.5-0.9-0.6-1.5-1.3-1
				c-4.5,3.5-8.1,8.4-12.1,12.5c-4,4.2-8.3,8.2-11.9,12.7C1785.7,704.3,1786.2,705.1,1786.8,704.7L1786.8,704.7z"/>
			<path fill="#FFE590" d="M1832.9,685.4c22.7-20.2,44-41.7,67.7-60.8c1.6-1.3-0.5-4-2.2-2.8c-13.3,9.3-24.9,21.2-36.6,32.4
				c-6.1,5.8-12.1,11.6-18.4,17.2c-3.7,3.3-12.1,7.8-11.5,13.5C1831.9,685.5,1832.5,685.7,1832.9,685.4L1832.9,685.4z"/>
			<path fill="#FFE590" d="M1819.5,748.7c11.2-6.7,21.7-14.8,32.5-22.1c10.9-7.4,21.8-14.7,32.8-22c21.4-14.2,44-27.6,64.1-43.5
				c1.5-1.2-0.5-3.8-2.1-2.7c-11.1,7-21.7,14.9-32.6,22.2s-21.9,14.5-32.9,21.8c-10.7,7.1-21.3,14.3-31.8,21.8
				c-10.3,7.4-21.4,15-30.5,23.9C1818.8,748.4,1819.2,748.9,1819.5,748.7L1819.5,748.7z"/>
			<path fill="#FFE590" d="M1819.5,782.5c12-4.1,24.2-5.8,36.8-6.5c1.7-0.1,1.7-2.6,0-2.6c-12.9-0.4-25.5,2.8-37.1,8.3
				C1818.7,781.8,1819,782.6,1819.5,782.5L1819.5,782.5z"/>
		</g>
	</g>
</g>
</svg>
