<?xml version="1.0" encoding="utf-8"?>
<!-- Generator: Adobe Illustrator 21.0.2, SVG Export Plug-In . SVG Version: 6.00 Build 0)  -->
<svg version="1.1" id="Layer_1" xmlns="http://www.w3.org/2000/svg" xmlns:xlink="http://www.w3.org/1999/xlink" x="0px" y="0px"
	 viewBox="0 0 2000 2000" enable-background="new 0 0 2000 2000" xml:space="preserve">
<g>
	<g id="_x31_8_x5F_Props_x5F_Paintbrush_x5F_Tentacle">
		<path fill="#494949" class="secondary-body-fill" d="M1374.4,1005.4c11.9-43.6,44.7-51.5,44.7-51.5l95.2,78.3l-39.6,34.1L1374.4,1005.4z"/>
		<path fill="#282828" class="main-body-fill" d="M1661,958c-0.9-2.6-1.8-5.1-2.8-7.5c-8.6-21.3-20.8-32.9-28.9-40.7c-1.6-1.6-3.8-3.2-6.5-4.7
			c-7.7-4.6-19.5-9-33-12c-8.1-1.7-16.8-2.9-25.7-3.3c-29-1.1-49.5,5.4-72.5,21.5s-27.6,24.2-27.6,24.2s-0.3-0.9-9.2-1.7
			c-2.4-0.2-5.4-0.4-9.2-0.6c-17.8-0.9-31.1,12.4-34.2,19s-3.1,19,4.3,34.9s26.4,28.3,36.6,33.4c10.2,5,13.6,3.3,21.9,5.9
			c8.4,2.6,2.3,12.1-2.4,15.7c-4.6,3.6-11.3-3.8-24.6-12.4c-13.4-8.6-40.3-30.6-56.9-34.7c-16.6-4.2-17.5,16.6-22.3,36.4
			c-4.8,19.8-9.7,43.2-10.1,46.9c-0.4,3.7-0.4,4.4,1.8,6.3c2.2,2,10.3,8.5,32.6,19.6c13.8,6.8,32.3,14.8,48.9,21.3
			c10.2,4,19.7,7.5,27,9.8c19,6.1,38.6,12,38.6,12l4.1-6.5l3-4.6c0,0,15.5-1,32.4-3.3s37.4-12.9,53-21.6c15.6-8.8,29.6-21.6,44.1-43
			c14.5-21.3,17.5-37.7,21.1-48.7C1668.3,1008.7,1669.6,984.1,1661,958z"/>
	</g>
	<g id="_x31_8_x5F_Props_x5F_Paintbrush_x5F_Shadow">
		<path opacity="0.3" fill="#091426" enable-background="new    " d="M1506.8,1147.3l4.3-6.5l3-4.6c0,0,15.5-1,32.4-3.3
			s37.4-12.9,53-21.6c15.6-8.8,29.6-21.6,44.1-43c14.5-21.3,17.5-37.7,21.1-48.7c3.6-10.9,4.9-35.5-3.7-61.6
			c-0.9-2.6-1.8-5.1-2.8-7.5c4.2,39.9-9.1,75.9-15.1,85.9c-7.2,12.1-37.8,54.6-84.4,68s-82.1-2.4-106.6-14.1
			c-5.8-2.8-7.8-2.9-6.5,0.4c1.3,3.4,3.2,9.6,3.2,12.9s-1.4,6.1-7.4,21.8c10.2,4,19.7,7.5,27,9.8
			C1487.4,1141.4,1506.8,1147.3,1506.8,1147.3z"/>
		<path opacity="0.3" fill="#091426" enable-background="new    " d="M1450.8,973.5c1-4.8,3.8-21.8,13.3-38c0,0-0.3-0.9-9.2-1.7
			C1442.6,955.9,1449.8,977.8,1450.8,973.5z"/>
	</g>
	<g id="_x31_8_x5F_Props_x5F_Paintbrush_x5F_Paintbrush">
		<path fill="#4E3615" d="M1415.5,1103.6c45.2-33.4,68.8-57.4,71.6-62.8c2.8-5.3-1.8-11.8-7.2-16.4c-5.4-4.6-13.2-6.2-18.9,0
			c-5.7,6.2-40.3,42.2-52.6,55.9c-12.2,13.6-16.9,20.8-11.8,25C1401.7,1109.5,1405.4,1111.1,1415.5,1103.6z"/>
		<path fill="#6C440D" d="M1470.7,1029.4c-4-3.2-6.2-5.6-9.1-5.5c-0.2,0.2-0.4,0.4-0.6,0.6c-5.7,6.2-40.3,42.2-52.6,55.9
			c-1.1,1.2-2.1,2.3-3,3.4c-6.8,11.5-7.7,14-2.9,16.5c6.2,3.2,12.3-5.1,32.9-24s38.1-36.7,39.1-38S1476,1033.6,1470.7,1029.4z"/>
		<path fill="#63320E" d="M1743.5,775.2c-3.9-19.7-40.2-25.6-48.3-22.5c-8.2,3.1-38.2,23.3-50.5,41.7c-9.9,14.8-12.6,21.3-14.2,43.8
			c-5.8-24.8,8.2-51.1,22.3-70.8c0.5-0.6-0.5-1.3-1.1-0.8c-10.2,10.3-17.8,23.8-22.3,37.6c-2.9,8.8-4.6,18.3-3.8,27.5
			c-0.8-3.5-1.4-7-1.8-10.5c-0.3-2.6-0.2-4.5-1.4-6.8c-0.1-0.2-0.5-0.2-0.6,0c-2.3,5,0.1,13.2,1.3,18.4c1.5,6.3,3.3,12.2,6.6,17.8
			c-0.1,2.3-0.2,4.6-0.3,7.1c0,0-7.5,6.4,17.5,11.6c4.6,2.5,10,3.6,15.1,4.2c6,0.8,11.8-0.3,17.8-0.2c1.1,0,1-1.7-0.2-1.5
			c-7.1,1.2-14.3,0.2-21.3-1.4c26.7-0.9,58.2-25.2,67.4-37.4C1735.9,819.4,1747.4,794.8,1743.5,775.2z"/>
		<path fill="#4E2B15" d="M1636.4,850.1c-1.2-4.7-1.5-9.6-1.2-15c0.2-4.7,0.1-10.7,1.1-16.2c-2.5,6.5-3.9,13-3.2,20.1
			C1633.5,843.2,1634.8,846.7,1636.4,850.1z"/>
		<path fill="#4E2B15" d="M1635.2,858.8c0.6,0.6,1.4,0.6,2,0.3c0.5,0.5,1,1.1,1.5,1.5c1,0.9,2.5,0.1,2.4-1.1c0.5,0,1-0.3,1.3-0.8
			c0.1,0.3,0.3,0.5,0.5,0.6c0.1,1.6,2.5,1.9,2.8,0c0.1-0.4,0.1-0.9,0.2-1.3c1.9-1.6,3.4-3.9,4.6-5.9c0.8-1.2,1.3-2.5,1.8-3.8
			c0.6-1.5,1.5-2.6,1.6-4.2c0-0.2-0.2-0.3-0.3-0.2c-0.9,0.7-1,1.3-1.6,2.3c-0.8,1.3-1.8,2.4-2.7,3.7c-0.8,1.2-1.7,2.2-2.6,3.2
			c3.8-21.8,13-41.6,25.5-60c0.4-0.6-0.5-1.4-1-0.8c-14.1,16.9-23.1,38.2-27.1,59.8c-0.4-3.1-0.7-6.2-0.5-9.4
			c0.3-4.5,1.4-8.9,1.8-13.4c0-0.3-0.4-0.4-0.6-0.2c-3.8,7.4-4.3,18.1-2.9,26.6c-1.6-3.1-3.3-6.3-4.2-9.7c-1-4-0.8-8.5-0.7-12.6
			c0.1-4.1,0.4-8.3,1-12.4c0.5-3.5,1.8-7,2-10.6c2.1-4.5,4.4-8.9,7.1-13.1c3.7-5.9,9.1-11,12.2-17.1c0.1-0.3-0.1-0.6-0.4-0.4
			c-5.9,3.6-10.6,11.3-14.2,17.1c-4.2,6.9-7.9,14.4-10.7,22c-0.8,2.3-1.7,4.7-2.3,7.2c-0.5,3.5-0.9,7.5-1.2,12.1
			c-5.8-24.8,8.2-51.1,22.3-70.8c0.5-0.6-0.5-1.3-1.1-0.8c-2.3,2.3-4.5,4.8-6.5,7.5c-2.1,3.5-4,7.1-5.8,10.6
			c-4.1,8-7.4,16.6-9.7,25.3c-2.2,8.5-3.1,17.3-1.9,26c0.2,1.1,0.3,2.3,0.5,3.5c-1.2-2.1-2.4-4.2-4-5.9c-0.5-0.5-0.9-1-1.3-1.4
			c0.1,0.2,0.1,0.4,0.2,0.6c1,4.1,2.1,8.1,3.7,11.9c1.2,2,2.4,4.1,3.8,5.9C1631.6,853.7,1633.1,856.6,1635.2,858.8z M1636.3,819
			c-0.9,5.5-0.9,11.5-1.1,16.2c-0.3,5.4,0,10.2,1.2,15c-1.6-3.4-2.9-6.9-3.3-11.1C1632.4,832,1633.8,825.4,1636.3,819z"/>
		<path fill="#4E2B15" d="M1663,848.4c0.1-0.2-0.1-0.4-0.3-0.2c-2.3,1.8-4.4,3.7-6.9,5.3c-2.2,1.4-4.9,2.3-7,3.9
			c-0.6,0.4-0.5,1.6,0.4,1.5C1654.6,858.2,1660.4,852.9,1663,848.4z"/>
		<path fill="#4E2B15" d="M1734.7,816.3c-0.2-3.1-3.8-4.3-5.8-2.1c-0.3-0.2-0.6-0.4-1-0.6c0.6-1.1,1.2-2.2,1.3-3.3
			c0.3-2-0.5-4-2.6-4.6c-0.1,0-0.1,0-0.2,0c-1.7-0.5-3.6,0.3-4.5,1.8c-2.4,4.1-7.9,14.6-4,19.2c-1.3,2.4-2.9,4.7-4.6,6.8
			c-5.1,6.5-11.6,11.8-18.7,16c-7.1,4.3-14.7,7.6-22.5,10.4c-4,1.4-8.1,2.6-12.3,3.6c-4.1,0.9-8.6,1-12.2,3.1
			c-1.1,0.6-1.5,1.6-1.5,2.7c0.2,0,0.4,0.1,0.6,0.1c4.6,2.5,10,3.6,15.1,4.2c0.2,0,0.4,0,0.6,0.1c2.1-0.4,4.2-0.9,6.3-1.4
			c-3.5-0.3-7.1-1-10.6-1.7c26.7-0.9,58.2-25.2,67.4-37.4c3-4,6.2-9,9-14.6C1734.7,817.7,1734.8,817,1734.7,816.3z"/>
		<path fill="#4E2B15" d="M1687.9,765.4c2.6,4.3,5.7,7.1,11,7.5c4.9,0.4,10.4-1.7,14.1-4.8c2.9-2.5-0.2-7.1-3.6-6.2
			c-2.9,0.8-5.5,2.8-8.6,3.1c-2.8,0.2-6.3-1.1-8.3-3C1690.1,759.8,1686.2,762.6,1687.9,765.4z"/>
		<path fill="#4E2B15" d="M1733.6,786c3.4-3.8-2.2-9.5-5.6-5.6c-7.1,8-14.4,15.8-22.3,23c-3.7,3.4-7.6,6.8-11.9,9.3
			c-2.1,1.2-4.5,2.4-7,2.1c-2.9-0.3-4.6-2.3-6.7-3.9c-2.5-1.9-6.5-0.2-5.6,3.2c0.1,0.5,0.3,1,0.6,1.5c-0.6,0.7-1.1,1.3-1.6,2
			c-1.6,2-3,4.3-4.4,6.4c-0.3,0.5,0.4,1.1,0.8,0.7c1.6-1.8,3.1-3.6,4.8-5.4c0.5-0.6,1.1-1.1,1.6-1.6c0.2,0.3,0.5,0.6,0.7,0.8
			c-1.6,1.8-2.9,3.8-4.3,5.6c-2,2.6-4.6,5.4-5.7,8.5c-0.1,0.4,0.4,0.6,0.7,0.4c2.5-2.1,4.2-5.2,6.4-7.6c1.6-1.8,3.6-3.2,5.3-4.9
			c1.8,1.1,3.8,1.8,5.9,2.1c5.7,0.8,10.9-1.9,15.4-5.1c-2.6,3.1-5.2,6.2-7.8,9.3c-0.3,0.4,0.2,0.8,0.5,0.5
			c6.4-6.1,12.5-12.4,18.4-18.9C1719.7,801.4,1726.8,793.7,1733.6,786z"/>
		<path fill="#4E2B15" d="M1645.2,863.8c4.5,1.5,9.4-0.4,13.5-2.2c6.4-2.9,12.2-7.2,17.9-11.2c10.9-7.8,21.5-16.2,31.9-24.6
			c0.9-0.7-0.4-2-1.2-1.2c-10.1,8.1-20.5,15.7-31.1,23.2c-4.8,3.4-9.5,7-14.7,9.8c-5.3,2.8-11,3.4-16.3,5.8
			C1644.8,863.3,1644.9,863.7,1645.2,863.8z"/>
		<path fill="#CABEF3" d="M1652,875.1c0,0,1.9-6.5-6.3-15.8c-8.2-9.3-14.4-8.3-17-6c-2.3,2.1-21.8,20.4-38.9,39.7
			c13.6,2.9,25.3,7.4,33,12L1652,875.1z"/>
		<path fill="#908BB5" d="M1615.2,901.1c2.8,1.3,5.4,2.6,7.6,3.9l29.2-29.9c0,0,1.9-6.5-6.3-15.8c-7-8-12.6-8.3-15.7-6.8
			c7,3,14.6,7.7,17.4,15c-3,3.4-6.1,6.7-9.1,10c-0.3-0.9-0.7-1.8-1.2-2.7c-0.3,0.1-0.6,0-0.9-0.3c-0.8-1.1-1.6-2.3-2.5-3.3
			c-3-2.5-7.5-5.3-11.2-4.9c-0.3,0-0.5,0.4-0.2,0.6c2.3,2.1,5.8,3,8.4,4.8c3.2,2.2,5,5,5.4,8.4c-1.9,2.1-3.7,4.2-5.5,6.4
			c-2.2,2.7-4.3,5.3-6.7,7.7c-1.2-2.6-2.8-5-4.9-7c-2.3-2.2-6.5-5.1-9.8-4.4c-0.5,0.1-0.5,0.8-0.1,1c1.2,0.9,2.8,1.1,4.2,1.8
			c1.6,0.8,3,1.8,4.3,3.1c2.2,2.2,3.6,4.8,4.1,7.7c-0.3,0.3-0.6,0.6-0.9,0.9C1619,898.9,1617.2,900.1,1615.2,901.1z"/>
		<path fill="#EEEAFE" d="M1637.1,874.8c0.4-0.1,0.8-0.6,0.5-1.1c-2.3-5-8.6-12-14.9-10.7c2.2-2.4,4.5-4.8,6.7-7.2
			c0.7-0.7-0.4-1.9-1.1-1.1c-11.2,11.7-22.9,22.8-33.8,34.8c-0.7,0.7,0,1.8,0.9,1.6c3-0.6,4.8-3.4,6.8-5.5c3.3-3.5,6.6-7,9.7-10.6
			c3-3.5,6.2-7,9.3-10.4c2.8,0.9,5.7,0.5,8.3,2.4c1.6,1.2,2.9,2.7,4.1,4.2c0.8,1.1,1.6,2.2,2.5,3.3
			C1636.5,874.8,1636.8,874.9,1637.1,874.8z"/>
		<path fill="#EEEAFE" d="M1617.2,882.7c1.4,1.1,2.1,2.3,3.1,3.7c0.4,0.6,1.2,0.3,1.3-0.4c0.6-5-7.6-6.6-11-6.9c-0.6,0-0.6,0.9,0,1
			C1613.1,880.3,1615.3,881.1,1617.2,882.7z"/>
		<path fill="#6141CE" d="M1709.5,768.3c0,0-9.4,6-20,2.7s-3.4-17.4,0-22.9c3.4-5.4,11.8-9,30.7-7.8c19,1.2,33.9,1.3,47.7-0.2
			c13.8-1.5,19.6-5.6,21.1-5.5s3.5-1.4,6.4,13s4.2,18.2,7,31.5c2.8,13.4-0.5,21.4-8.3,21.8c-7.8,0.3-13.3-9.7-12.3-23.7
			s4.2-20.7,6.4-26.7c2.2-6,1.4-10.7,1.4-10.7s-12.9,8.3-22.9,19.8s-14.5,21.6-16.8,32s-1.3,15-6.3,22.6s-12.4,10.6-19.8,10.1
			c-7.4-0.6-4.9-13.3-2.1-19.4c2.8-6.1,7.4-17.6,7.4-17.6s-4.7,2.2-14.4,10.7s-16.1,17.6-30.8,20.8c-14.7,3.2-11.3-11-7.4-16.8
			C1680.3,796.1,1709.5,768.3,1709.5,768.3z"/>
		<path fill="#46339B" d="M1689.5,748.1c-3.4,5.4-10.6,19.6,0,22.9s20-2.7,20-2.7s14.2-8.7,17.2-13.7s0.8-3.8-5.6,1.1
			s-10.9,6.6-10.9,6.6s-3.6-1.4-6.4,0.8s-6.6,2.5-6.6,2.5s-5.1-3.6-6-8.1s0.2-5.1,3.2-10.2c0.9-1.5,2.2-3.3,3.7-5.3
			C1693.7,743.4,1691,745.6,1689.5,748.1z"/>
		<path fill="#46339B" d="M1766.7,759.5c10-11.5,22.9-19.8,22.9-19.8s0.8,4.7-1.4,10.7c-2.2,6-5.4,12.7-6.4,26.7s4.5,24,12.3,23.7
			c5.1-0.2,8.2-3.7,9.1-9.8c-3.8,4.9-7.9,4-7.9,4s0,0-3-2.2s-4.6-0.9-4.9-4.4s-0.5-10.5-0.5-10.5s3.6,1.4,4-4.8s-0.8-7.2,0-13.2
			c0.7-5.4,0.8-9.7,3.2-17.9c-1.3-4.8-2.4-6.5-3.3-7.1c-5.3,3.6-14.9,10.4-23.4,17c-12.5,9.7-17.8,15.1-17.8,17.2s2.5,2,2.5,2
			s-4.2,5-6,12.8s-2.4,7.2-6.1,12.9s0.6,5.2,0.8,8.6s-2.3,5.4-5.1,6s-3.4,1.5-6.6,4.5s-5.7,0.8-5.2-5.4s3.4-14.8,7.8-22.9
			s8.5-10.1,8.5-10.1c-3.2-1.7-5.4-2.5-13.9,3.8s-18.2,15.9-26.6,23s-18.5,10.8-20.2,6.8s1.9-8.1,6.1-14.6c3-4.6,4.9-6.5,5.3-9.8
			c-6.5,6.5-12.6,12.8-14.2,15.3c-3.8,5.8-7.3,20,7.4,16.8c14.7-3.2,21.1-12.2,30.8-20.8c9.7-8.6,14.4-10.7,14.4-10.7
			s-4.6,11.5-7.4,17.6s-5.3,18.8,2.1,19.4c7.4,0.6,14.8-2.6,19.8-10.1s4-12.2,6.3-22.6C1752.2,781.1,1756.7,771,1766.7,759.5z"/>
		<path fill="#A48DF6" d="M1706.1,781.6c-5.4,3.3-10.2,6.9-14.6,11.5c-1.8,1.9-3.2,3.9-4.7,6s-3.7,3.8-3.7,6.6c0,1,0.8,1.6,1.7,1.7
			c4.4,0.6,7.8-5.9,9.4-9.2c3.1-6.5,7.3-10.8,12.7-15.5C1707.6,782.2,1706.8,781.2,1706.1,781.6z"/>
		<path fill="#A48DF6" d="M1720.6,767c-1.4,1-2.5,2.4-3.6,3.7c-1,1.3-2.3,2.6-3,4.1c-0.2,0.4,0.3,0.8,0.6,0.5
			c1.2-1.1,2.2-2.4,3.4-3.5c1.2-1.1,2.6-2.1,3.7-3.2C1722.6,767.8,1721.5,766.3,1720.6,767z"/>
		<path fill="#A48DF6" d="M1704,742.8c-3.6,0.9-7.1,3.3-8,7c-0.3,1.2,1,2.2,2.1,1.6c3.1-1.9,5.5-3.5,9-4.7c3.1-1.1,6.7-1.2,9.7-2.6
			c0.4-0.2,0.3-0.7,0-1c-1.9-1.3-3.5-0.8-5.7-0.6C1708.7,742.7,1706.4,742.2,1704,742.8z"/>
		<path fill="#A48DF6" d="M1739.8,749.5c0.2,0.3,0.4,0.5,0.7,0.8c0.1,0.1,0.2,0.2,0.3,0.3c0.7,0.6,2.1,0.5,2.9,0
			c4.5-2.9,8.9-2.3,13.9-3.4c3.9-0.9,9.3-0.8,12.5-3.2c0.8-0.6,0.6-1.9-0.5-2c-1.6-0.1-1.8,0.1-3.3,0.2c-2.1,0-4.1-0.4-6.1-0.5
			c-2.5-0.1-5.2,0.3-7.7,0.3c-4.7,0-8.6,1-12.2,4.2C1739.4,746.8,1739.1,748.5,1739.8,749.5z"/>
		<path fill="#A48DF6" d="M1799.8,787.2c-0.6-3.8-0.5-7.8-1.8-11.5c-0.2-0.6-1-0.6-1.3,0c-1.2,3.3-0.7,7.2-2,10.4
			c-0.1,0.1-0.1,0.3-0.2,0.4c-0.1,0.2-0.2,0.4-0.2,0.7C1792.9,791.1,1800.6,792.4,1799.8,787.2z"/>
		<path fill="#A48DF6" d="M1732.8,798.8c-1.7,1.1-2.6,3-4.2,4.3c-1.6,1.2-2.2,2.4-2.5,4.3c-0.3,1.8,1.3,3.1,3,2.3
			c1.4-0.6,2.2-2.8,2.7-4.1c0.7-1.9,2.2-3.5,2.7-5.5C1734.6,799.1,1733.6,798.2,1732.8,798.8z"/>
		<path fill="#482915" d="M1674.5,836.4c-0.3,2.7,1,3.8,3.3,2.3s2.8-4,2.8-4L1674.5,836.4z"/>
		<path fill="#6141CE" d="M1678.8,829.8c-2.3-0.1-4.8,0.8-5.5,3.3s-0.4,4.4,2.1,4.8c2.4,0.4,4.8-1.4,5.3-3.6
			C1681.2,832.1,1680.4,829.9,1678.8,829.8z"/>
		<path fill="#46339B" d="M1679.4,830c0.2,2.7-0.6,4.8-2,6c-1.1,0.9-2.9,0.8-4,0.7c0.4,0.6,1,1,2,1.2c2.4,0.4,4.8-1.4,5.3-3.6
			C1681.1,832.4,1680.6,830.5,1679.4,830z"/>
		<path fill="#A48DF6" d="M1674.4,833.6c0.3-0.5,0.7-0.8,1.1-1.2s0.9-0.7,1.3-1.1c0.3-0.3,0-0.9-0.4-0.8c-0.6,0.2-1.2,0.7-1.6,1.2
			s-0.5,1.1-0.7,1.7C1673.9,833.7,1674.3,833.8,1674.4,833.6z"/>
	</g>
</g>
</svg>
