<?xml version="1.0" encoding="utf-8"?>
<!-- Generator: Adobe Illustrator 21.0.2, SVG Export Plug-In . SVG Version: 6.00 Build 0)  -->
<svg version="1.1" id="Layer_1" xmlns="http://www.w3.org/2000/svg" xmlns:xlink="http://www.w3.org/1999/xlink" x="0px" y="0px"
	 viewBox="0 0 2000 2000" enable-background="new 0 0 2000 2000" xml:space="preserve">
<g>
	<g id="_x31_9_x5F_Props_x5F_FishingRod_x5F_FishingRod">
		<path fill="#173538" d="M1622.9,213.8c5.1,7.1,12.2,8.8,15.9,9.2s6.8-1.3,6.8-1.3l0.3-4.3c0,0-1.8,4.5-10.8,2.3
			c-9-2.3-10.8-7.8-10.8-7.8L1622.9,213.8z"/>
		<path fill="#113130" d="M1447.6,801.9c4.7,6.8,8.3,8.6,14.1,11.1c5.7,2.6,13.4-0.8,14-1.9l-1.1-5.8c0,0-3.8,4.1-7.9,3.9
			s-17.3-8.4-17.3-8.4L1447.6,801.9z"/>
		<path fill="#113130" d="M1503.3,606.6c5.5,4.3,11,7.1,19.9,7.6c9,0.5,11.4-2.9,11.4-2.9l-1.3-8.2c0,0,0.4,5.4-13.7,4.8
			c-14.2-0.6-15.4-8.8-15.4-8.8L1503.3,606.6z"/>
		<path fill="#113130" d="M1574.8,372.8c4.6,5.4,9.9,7.2,15,8.5c5.2,1.2,14.5-2.3,14.5-2.3l-0.4-7.2c0,0-0.1,6.1-13.3,4.9
			c-13.2-1.2-14.6-5.4-14.6-5.4L1574.8,372.8z"/>
		<path fill="#B3813E" d="M1300.6,1288.5c63.2-208.9,103.8-328.2,147.6-481.5c43.7-153.3,95.9-333.7,134.8-454.8
			s54-182.5,35.2-130.6s-119.3,354.9-140.9,428.7S1419,833.7,1419,833.7s-68.9,192.5-91.7,257.5c-22.8,65-58.9,184.6-58.9,184.6
			L1300.6,1288.5z"/>
		<path fill="#FDB049" d="M1300.6,1288.5c21.5-71.2,40.4-132,57.8-187.3c-8.1-18.2-15.9-25.3-15.9-25.3s-28.6,73.7-61.2,204.9
			L1300.6,1288.5z"/>
		<path fill="#FDB049" d="M1625.5,208.4c-63.6,175.3-168.1,532.3-195.6,619.2l10.4,6.6c2.6-9,5.2-18,7.8-27.2
			c43.7-153.3,95.9-333.7,134.8-454.8C1607.1,276.8,1622.2,224.6,1625.5,208.4z"/>
		<path fill="#313712" d="M1094.8,1803c20.7,8.3,44.8,11.6,64-33s132.4-385.9,142.6-419.6s30.1-61.5-3.1-78.1s-44.9-10.1-48.5-8.5
			s-32.3,83-46.8,116.5s-62.8,162.4-75.2,198s-46.9,131.4-52,158C1075.8,1736.2,1059,1788.6,1094.8,1803z"/>
		<path fill="#43460A" d="M1298.2,1272.2c-14.8-7.4-25.2-10.2-32.7-10.9c-46.9,74.7-127.1,331.7-140.6,380
			c-15.7,56.3-18.3,114.4,0,133c11.7,11.9,17.4,15.4,25.2,12c2.9-4.6,5.8-10,8.6-16.4c8.3-19.3,34.3-94.5,61.9-176.1
			c-24.2,5.1-43-53.3-39.2-82.9c4.2-32.8,11.7-55.4,26.7-80.6s31.8-40.6,41.6-41.2c9.8-0.7,23.4,14.5,23.4,14.5s5.1-1.4,12.6-5.1
			c8-24.4,13.6-41.8,15.6-48.2C1311.6,1316.6,1331.5,1288.9,1298.2,1272.2z"/>
		<path fill="#113130" d="M1260.3,1549.8c-6.7,8.9-13.3,13.3-25,11.2c-1.5-0.3-3.1-0.7-4.8-1.2c-14.8-4.4-26.2-10.1-27.9-11.7
			c-1.7-1.6-10-18.4-10.5-40.5s3-48.2,18-74.2s25.5-33.7,33.7-40.2c8.3-6.5,9.9-6.6,18.6-3.8c2.8,0.9,6.4,2.1,10.2,3.3
			c8.1,2.7,17.1,5.7,20.1,6.9c4.5,1.7,8.2,7.6,9.7,19.7C1304,1431.4,1260.3,1549.8,1260.3,1549.8z"/>
		<path fill="#143E34" d="M1260.3,1549.8c0,0,43.7-118.4,42.2-130.5s-5.2-18-9.7-19.7c-3.1-1.1-12-4.2-20.1-6.9
			c-40.9,14.7-51.1,52.1-58.9,70.4c-8.3,19.7-5.9,62.2-2.7,69.6c2.9,6.5,8.9,20.4,24.2,28.2
			C1247.1,1563.2,1253.6,1558.7,1260.3,1549.8z"/>
		<path fill="none" d="M1240.4,1507.7c0.9-12.4,4.1-24.4,8.7-35.9c8.2-20.5,20.1-40.6,36.6-55.6c-21.7,9.5-36,29.7-44.1,51.5
			c-4.5,11.9-7.8,24.7-8.2,37.5c-0.1,2.4,0.1,4.8,0.3,7.3c1.8,3,4,5.8,6.6,8.3C1240,1516.3,1240.1,1511.9,1240.4,1507.7z"/>
		<path fill="#FFDB93" d="M1296,1418.6c-16.1,12.7-28.5,29.5-36.6,48.2c-4.2,9.7-7.1,20-8.8,30.4c-1.1,6.6-2.1,13.2-1.1,19.8
			c0.6,3.9,1.7,7.7,2.8,11.5c-0.8-0.4-1.6-0.7-2.4-1.1c-2.7-9-3.7-18-2-27.7c1.9-11.3,5.4-22.2,9.9-32.7c8.1-19,20.2-36,36-49.1
			c-1.7-0.6-3.3-1.1-4.8-1.5c-16.9,14.6-29,34.6-37.5,55.1c-4.6,11.2-8,23.2-8.7,35.3c-0.4,5.8,0.1,11.3,0.9,16.7
			c-1.2-0.9-2.3-1.8-3.3-2.8c-0.3-4.5-0.2-8.9,0-13.1c0.9-12.4,4.1-24.4,8.7-35.9c8.2-20.5,20.1-40.6,36.6-55.6
			c-21.7,9.5-36,29.7-44.1,51.5c-4.5,11.9-7.8,24.7-8.2,37.5c-0.1,2.4,0.1,4.8,0.3,7.3c-0.6-1.1-1.2-2.2-1.8-3.3
			c-0.1-1-0.2-2.1-0.2-3.1c-0.7-13.8,3.8-27.7,8.6-40.4c8.2-21.3,22-40.9,42.9-50.8c-1-0.3-2-0.5-2.9-0.7c-10,5-18.4,14.6-25.2,23.2
			c-7.3,9.2-13.4,19.4-17.7,30.3c-4.2,10.6-6.9,22.1-7.3,33.5c0,1.3,0,2.6,0,3.9c-0.9-2.5-1.7-5.2-2.3-8c1-10.9,3.7-21.7,7.8-31.7
			c4.6-10.9,10.9-21.1,18.3-30.3c5.4-6.7,11.7-14,19.1-19.2c-20.9,8.7-35.1,29.3-41.9,50.3c-1.9,5.8-3.7,12-4.9,18.3
			c-0.2-2.6-0.2-5.2-0.2-7.9c0.9-3.8,2-7.4,3.2-11c7.7-23.2,22.5-43.2,45-52.7c-5.9-1-8.4-0.8-8.4-0.8c-12.2,5.6-29,21.3-39,46
			c-2.9,7.1-5.2,15-6.6,23.6c-6.5,38.5,2.5,50.8,2.5,50.8l37.8,9.5l3.4-9.7L1303,1421C1300.6,1420.2,1298.2,1419.4,1296,1418.6z"/>
		<path fill="#8A56AD" d="M1240.4,1465.6c-4.9,12.8-9.3,26.6-8.6,40.4c0.1,1.1,0.1,2.1,0.2,3.1c0.5,1.1,1.1,2.2,1.8,3.3
			c-0.3-2.4-0.4-4.9-0.3-7.3c0.3-12.8,3.7-25.6,8.2-37.5c8.1-21.8,22.4-42,44.1-51.5c-16.5,15-28.4,35-36.6,55.6
			c-4.6,11.5-7.8,23.5-8.7,35.9c-0.3,4.2-0.4,8.6,0,13.1c1,1,2.1,1.9,3.3,2.8c-0.9-5.4-1.3-10.9-0.9-16.7
			c0.7-12.1,4.1-24.1,8.7-35.3c8.5-20.5,20.6-40.5,37.5-55.1c-2-0.6-3.9-1.1-5.7-1.6C1262.4,1424.7,1248.6,1444.3,1240.4,1465.6z"/>
		<path fill="#8A56AD" d="M1257.8,1467c-4.5,10.5-8,21.4-9.9,32.7c-1.7,9.7-0.7,18.7,2,27.7c0.8,0.4,1.5,0.8,2.4,1.1
			c-1.1-3.8-2.2-7.6-2.8-11.5c-1-6.7,0-13.2,1.1-19.8c1.8-10.4,4.6-20.7,8.8-30.4c8.1-18.8,20.5-35.6,36.6-48.2
			c-0.7-0.3-1.5-0.5-2.2-0.7C1277.9,1431.1,1265.9,1448,1257.8,1467z"/>
		<path fill="#8A56AD" d="M1229.3,1465.5c-1.2,3.6-2.3,7.3-3.2,11c0,2.7,0.1,5.3,0.2,7.9c1.3-6.3,3.1-12.6,4.9-18.3
			c6.8-21,21.1-41.6,41.9-50.3c-7.3,5.2-13.6,12.5-19.1,19.2c-7.4,9.2-13.8,19.4-18.3,30.3c-4.2,10-6.8,20.8-7.8,31.7
			c0.6,2.8,1.3,5.5,2.3,8c0-1.3,0-2.6,0-3.9c0.4-11.4,3.1-22.9,7.3-33.5c4.4-10.9,10.4-21.1,17.7-30.3c6.8-8.6,15.2-18.2,25.2-23.2
			c-2.4-0.6-4.4-1-6.2-1.3C1251.8,1422.3,1237,1442.3,1229.3,1465.5z"/>
		<path fill="#B59F72" d="M1222.9,1508.9c-0.9-10.7,0.6-21.8,3.2-32.4c0-5.9,0.3-12.1,0.9-18.4c-2.9,7.1-5.2,15-6.6,23.6
			c-6.5,38.5,2.5,50.8,2.5,50.8l7.8,1.9c-0.3-1.4-0.7-2.8-1-4.3C1225.7,1523.6,1223.5,1515.6,1222.9,1508.9z"/>
		<path fill="#B59F72" d="M1233.7,1512.4c1,8.6,4,17.3,8,24.8l2.2,0.5c-2.1-5.3-3.1-11.2-3.6-17.1
			C1237.7,1518.3,1235.5,1515.5,1233.7,1512.4z"/>
		<path fill="#B59F72" d="M1230.2,1505c0.2,8,1.5,15.8,2.6,23.7c1.9,2.7,3.9,5.2,5.9,7.9l0.7,0.2c-4.4-8.7-6.7-17.8-7.5-27.6
			C1231.3,1507.8,1230.8,1506.4,1230.2,1505z"/>
		<path fill="#B59F72" d="M1252.8,1535.8c-1.1-2.8-2.1-5.6-3-8.4c-2.3-1.2-4.4-2.5-6.2-3.9c0.8,5,2,10,3.3,15.1l13.7,3.4l3.4-9.7
			c-4.4-1-8.4-2.2-11.9-3.8c0.7,2.3,1.4,4.6,2,6.9C1254.4,1536.3,1253.2,1536.6,1252.8,1535.8z"/>
		<path fill="none" d="M1254.1,1434.9c5.4-6.7,11.7-14,19.1-19.2c-20.9,8.7-35.1,29.3-41.9,50.3c-1.9,5.8-3.7,12-4.9,18.3
			c0.3,4.4,0.8,8.6,1.6,12.6c1-10.9,3.7-21.7,7.8-31.7C1240.4,1454.3,1246.7,1444.1,1254.1,1434.9z"/>
		<path fill="#B59F72" d="M1224.8,1505.4c0.4,4.6,1.5,9.2,3.2,13.5c-0.7-7.3-0.7-14.7,0-22c-0.8-4-1.4-8.2-1.6-12.6
			C1224.9,1491.4,1224.2,1498.6,1224.8,1505.4z"/>
		<path fill="#5B3A86" d="M1240.3,1520.7c0.4,5.9,1.5,11.7,3.6,17.1l3.1,0.8c-1.3-5.1-2.5-10.1-3.3-15.1
			C1242.5,1522.6,1241.4,1521.7,1240.3,1520.7z"/>
		<path fill="#5B3A86" d="M1232,1509.1c0.8,9.8,3.1,18.9,7.5,27.6l2.2,0.6c-4-7.6-7-16.2-8-24.8
			C1233.1,1511.4,1232.5,1510.3,1232,1509.1z"/>
		<path fill="#5B3A86" d="M1252.8,1535.8c0.3,0.8,1.6,0.5,1.4-0.4c-0.6-2.3-1.3-4.6-2-6.9c-0.8-0.4-1.6-0.7-2.4-1.1
			C1250.7,1530.2,1251.7,1533,1252.8,1535.8z"/>
		<path fill="#5B3A86" d="M1230.2,1505c-0.9-2.5-1.7-5.2-2.3-8c-0.7,7.3-0.7,14.7,0,22c-1.7-4.3-2.8-8.9-3.2-13.5
			c-0.6-6.8,0.1-14,1.5-21.1c-0.2-2.6-0.2-5.2-0.2-7.9c-2.6,10.6-4.1,21.7-3.2,32.4c0.6,6.7,2.8,14.7,6.7,21.4
			c0.3,1.4,0.6,2.9,1,4.3l8.2,2.1c-2-2.7-4-5.2-5.9-7.9C1231.7,1520.8,1230.4,1513,1230.2,1505z"/>
		<path fill="#143E34" d="M1354.3,1516.6c-11.3,24.8-16.8,40.1-28.3,51c-7.7,7.3-12.6,12-15.1,14.3c-1.1,1.1-2.7,1.5-4.2,1.1
			c-3.4-0.9-7.9-2.1-12.7-3.4c-11.9-3.2-25.5-7-27.9-7.3c-3.5-0.5-18.2-22.1-14.7-53s9.8-44.3,27.2-76c17.3-31.7,35.8-34.8,38-35
			c1.4-0.2,12.7,2.7,22.3,5.3c5.7,1.6,10.8,3.1,12.9,3.9c5.5,2.1,12.6,8.8,13.7,26.7C1366.6,1462,1365.7,1491.8,1354.3,1516.6z"/>
		<path fill="#113130" d="M1314.8,1482.5c0,0-4.9,0.4-10.1,8.8s-4.5,17.2-2.2,20.4l-25.2,56c0,0-6.1,2.2-8.1-17.2
			s-0.2-47.5,9.1-67.9s19.5-42.3,33.6-55.3c8.1-7.5,19.3-11.5,27.2-13.5c-9.6-2.6-20.9-5.5-22.3-5.3c-2.2,0.2-20.7,3.3-38,35
			s-23.7,45.1-27.2,76s11.2,52.5,14.7,53c2.3,0.3,15.9,4.1,27.9,7.3l31.3-88.5L1314.8,1482.5z"/>
		<path fill="#B58361" d="M1322.9,1641.3c-34.7-19.3-43.4-24.1-49.3-27.8c-5.9-3.7-7.6-3.5-4.3-11.7c3.3-8.2,39.9-92.3,39.9-92.3
			l11.7,5.8l-24.6,100.8l35.8,15.4L1322.9,1641.3z"/>
		<path fill="#FFB37B" d="M1273.2,1607.3c0,0,14.3,5.6,23.1,8.6l23.4-95.9l-9.8-2.4L1273.2,1607.3z"/>
		<path fill="#A1442C" d="M1309.2,1693.8c-5.7-5.2-3.5-16.4,1.8-29.5s12.7-31.2,20.8-42.4c8.1-11.2,13.9-15.3,19.4-11
			s3.7,11.6,1,20.2s-6.3,18.7-13.8,33.9s-12.9,24.7-19.2,28.3S1309.2,1693.8,1309.2,1693.8z"/>
		<path fill="#E3592F" d="M1327,1685.3c3.4-4.9,7-11.7,11.3-20.3c7.5-15.2,11.2-25.3,13.8-33.9c2.7-8.6,4.5-15.9-1-20.2
			c-2.4-1.9-4.9-2.2-7.7-0.9c-5.5,9-18.4,31-21,37.2c-3.3,8-12.7,32.6-6.2,38.1C1320.8,1689.1,1322.7,1688.9,1327,1685.3z"/>
		<path fill="#A1442C" d="M1331,1650.5c-0.1,0.9-0.2,1.7,0,2.1c0.1,0.4,4.7-0.3,4.7-0.3L1331,1650.5z"/>
		<path fill="#B58361" d="M1331.3,1651.1c3.6,1.8,4.6,2.1,6.2,0s5.7-10.9,5.7-13.5c0-2.7-0.8-2.9-2.6-3.2c-1.8-0.3-1.9-0.3-2.9,1.9
			c-1,2.2-3,7.1-4.8,10.5S1330.5,1650.6,1331.3,1651.1z"/>
		<path fill="#FFB37B" d="M1340.7,1634.3c-0.7-0.1-1.1-0.2-1.4-0.1c0.8,1.7,0.5,3.6-0.6,6.5c-1.4,3.6-3.9,8.3-4.3,9.3
			c-0.3,0.6,1.3,1.4,2.4,2c0.3-0.2,0.5-0.5,0.8-0.9c1.6-2.1,5.7-10.9,5.7-13.5C1343.3,1634.9,1342.5,1634.6,1340.7,1634.3z"/>
		<path fill="#B59F72" d="M1317.9,1516.4c-10.2-3.4-10.9-5.1-11.7-11.2c-0.9-6.1,1.7-13.5,3.4-17.8c1.8-4.3,6.8-6.9,18.9-7.1
			c0,0,8.5,0.4,8.8,13.4s-2.2,19.1-8.1,21.4S1317.9,1516.4,1317.9,1516.4z"/>
		<path fill="#FFDB93" d="M1328.4,1480.3c-0.2,0-0.3,0-0.5,0c-5.7,4.1-7.4,9.2-10.3,14.1c-3.1,5.4-4.4,17.4,1.3,22.1
			c1.9,0.2,5.9,0.3,10.2-1.4c5.9-2.3,8.4-8.4,8.1-21.4C1336.9,1480.7,1328.4,1480.3,1328.4,1480.3z"/>
		<path fill="#7649A5" d="M1305,1296l-1.9-0.7l0.3-0.7c18.8-49,68.8-179.3,60.7-214.3c-5.6-24,31.1-116.1,60.5-190
			c14.6-36.8,27.3-68.5,32.3-85.7c5.1-17.3,12.8-45,21.8-77.1c17.8-63.5,39.8-142.5,53.3-184.2c6-18.5,12.7-39.8,19.8-62.4
			c16.7-52.9,35.6-112.9,49.2-149.6c19-51.5,42.2-118.8,42.4-119.4l1.9,0.7c-0.2,0.7-23.4,67.9-42.4,119.5
			c-13.6,36.7-32.5,96.7-49.1,149.5c-7.1,22.6-13.9,44-19.8,62.4c-13.5,41.7-35.6,120.7-53.3,184.1c-9,32-16.7,59.7-21.8,77.1
			c-5,17.2-17.7,49-32.4,85.9c-29.3,73.7-65.8,165.4-60.4,188.8c8.2,35.6-41.9,166.3-60.8,215.5L1305,1296z"/>
		<path fill="#143E34" d="M1571.8,369.4c0-0.1,0-3.5,0-3.5s13.8-5.9,23.5-3.5s11.1,4.8,11.1,4.8l-2,11.8c0,0-2.9-4.7-12-7.5
			S1571.8,369.4,1571.8,369.4z"/>
		<path fill="#143E34" d="M1500.2,595.4c11.4-5.4,19.7-3.7,24.5-2.5c4.8,1.1,11.4,5.9,11.4,5.9l-1.6,12.5c0,0-1.5-6.7-13.1-8.8
			s-23.5,0.1-23.5,0.1L1500.2,595.4z"/>
		<path fill="#143E34" d="M1446.7,796.9c0.3-3.1,4.2-4.6,10.3-4.9c6.1-0.3,15.5,2.1,19.7,7.7l-1.1,11.4c0,0-1.1-4.5-8.6-8.7
			s-15-3.1-17.8-2.7C1446.4,800.2,1446.5,799.4,1446.7,796.9z"/>
		<path fill="#143E34" d="M1624.6,212.5c-1.1-0.1-0.4-1.8,0-3.1s8.3-3.1,14.4-1.7c6.1,1.3,6.7,1.3,7.4,3.4c0.7,2.1-1.5,11-1.5,10.9
			s0.3-3.8-4.8-7.2c-5.1-3.4-13.6-2-14.6-2.1C1624.6,212.5,1624.6,212.5,1624.6,212.5z"/>
		<g>
			<g>
				<path fill="#FDB27B" d="M1609.8,941.6c-6.9,7-6.8,12.4-7.3,18.9s3.8,15,6,17.6s5.3-0.3,7.9-7.9s6.8-15.1-2.6-26.6
					c0,0-1.7-0.1-0.1,6s2.8,5.9,1.5,12.4s-2.8,9.7-2.8,9.7s-2.7-1.2-3.3-11.3c-0.6-10.1,2.2-13.4,2.2-13.4L1609.8,941.6z"/>
				<g>
					<g>
						<defs>
							<path id="SVGID_1_" d="M1609.8,941.6c-6.9,7-6.8,12.4-7.3,18.9s3.8,15,6,17.6s5.3-0.3,7.9-7.9s6.8-15.1-2.6-26.6
								c0,0-1.7-0.1-0.1,6s2.8,5.9,1.5,12.4s-2.8,9.7-2.8,9.7s-2.7-1.2-3.3-11.3c-0.6-10.1,2.2-13.4,2.2-13.4L1609.8,941.6z"/>
						</defs>
						<clipPath id="SVGID_2_">
							<use xlink:href="#SVGID_1_"  overflow="visible"/>
						</clipPath>
						<path clip-path="url(#SVGID_2_)" fill="#B48261" d="M1603.9,944.6c0,16.8,0.4,19.7,4,26.4s7.9,5.8,7.9,5.8l-3.4-9.7l-0.9-25.1
							l6.1-1.2l4.9,19.2l-5,20.1l-12.6,0.3l-4.8-21.1L1603.9,944.6z"/>
					</g>
				</g>
			</g>
			<path fill="#7649A5" d="M1646.7,221.2c-3.5,54.1-7,108.2-10.7,162.3c-3.7,55.3-6.7,110.8-10,166.1c-2.4,40-4.7,80-6,120.1
				c-1.9,56.4-3.5,112.8-5.1,169.2c-0.9,31.4-1.7,62.8-2.6,94.2c0,0.1,0,0.2,0,0.3l0.1-0.1c1.8-1.9,5.9-6.3,10-10
				c5.4-4.9,7.1-6.1,8.5-4.9c1.5,1.2,0.3,3.9-2.6,5.5c-2.9,1.7-7.2,3.5-11.9,8.3c-1.5,1.5-2.5,2.6-3.3,3.4c1.1,3.4,2.4,7.7,2.4,8.8
				c0,1.9-1,5.1-4.8,4.9c-3.7-0.2-3.4-0.8-3.3-5c0.1-2.8,0.4-5.6,1.4-8.6c-1.6-1.2-4-3.1-8-5.4c-0.8-0.5-2.1-1-1.6-1.6s1-1.2,4.7,1
				c2.1,1.2,4.3,2.6,5.8,3.5c0.1,0,0.1,0.1,0.2,0.1c0-0.2,0-0.5,0-0.7c0.6-37.7,2.1-75.5,3.1-113.2c1.5-55.1,3.1-110.2,5.1-165.3
				c1.5-41,4.1-82,6.6-123c3.3-55.3,6.2-110.6,10.2-165.9c1.8-25.5,3.5-51,5.3-76.5c0.9-12.8,1.7-25.7,2.4-38.6
				c0.4-8.1,0.9-16.3,1.4-24.4c0.2-3.1,0.4-6.2,0.6-9.4c0.2-2.1,1.2-5.5,0-7.3c-0.8-1.2,1.2-2.3,2-1.1
				C1648.7,211.3,1646.9,217.6,1646.7,221.2z"/>
			<path fill="#7649A5" d="M1609.8,933.4c0.1-0.2,0.1-0.4,0.2-0.5c0,0.2,0,0.5,0,0.7C1609.9,933.5,1609.8,933.4,1609.8,933.4z"/>
			<path fill="#7649A5" d="M1612.4,933.5C1612.3,933.5,1612.3,933.5,1612.4,933.5c-0.1,0-0.1-0.1-0.1-0.2
				C1612.3,933.3,1612.3,933.4,1612.4,933.5z"/>
			<g>
				<path fill="#B59F72" d="M1613.3,1093.8c-18.9-3.4-23.8-30-22-43c0.2-1.3,0.4-2.9,0.7-4.7c2.6-15.5,9.4-46.6,17.4-70.9l2.5,0.6
					c0,0,19.7,57.3,20.8,72.1c0,0.4,0.1,0.9,0.1,1.3C1633.8,1064.6,1631.7,1097.1,1613.3,1093.8z"/>
			</g>
			<path fill="#A1442C" d="M1627.7,1085.5c-9.7,6.5-16.5,0.6-21.3-12.2c-2-5.4-3.3-11.8-4-18.4c2.1,0.7,4.7,1.1,8.4,1.5
				c9.2,1.1,18-4.2,22.2-7.3C1633.5,1058.9,1632.8,1075.5,1627.7,1085.5z"/>
			<g>
				<g>
					<path fill="#B59F72" d="M1612,1089.5c-0.9,33.9-0.8,45.9-2,56.4s-1.4,21.9-1.4,21.9l12.4,1.2c0,0-2.3-38.7-2.4-44.9
						s-1-7.3,2.4-3.4s15,10.6,27.4,3.1s23.6-25.9,21.2-47.7c-2.4-21.9-7.7-6.2-9.9,6.2s-7.4,36.3-22.6,38.8s-18.4-8-18.4-8
						l-2.5-23.4L1612,1089.5z"/>
					<g>
						<g>
							<defs>
								<path id="SVGID_3_" d="M1612,1089.5c-0.9,33.9-0.8,45.9-2,56.4s-1.4,21.9-1.4,21.9l12.4,1.2c0,0-2.3-38.7-2.4-44.9
									s-1-7.3,2.4-3.4s15,10.6,27.4,3.1s23.6-25.9,21.2-47.7c-2.4-21.9-7.7-6.2-9.9,6.2s-7.4,36.3-22.6,38.8s-18.4-8-18.4-8
									l-2.5-23.4L1612,1089.5z"/>
							</defs>
							<clipPath id="SVGID_4_">
								<use xlink:href="#SVGID_3_"  overflow="visible"/>
							</clipPath>
							<path clip-path="url(#SVGID_4_)" fill="#FFDB93" d="M1613.5,1165.5c1.1-36.6,0.6-65,0.6-65s2-3.5,5.2-5s29.4-18.1,37.1-15.9
								s8.5,1.9,8.5,1.9s3.9,7-4.1,22.4s-19.8,26.1-38.6,19.9l0.9,45.2L1613.5,1165.5z"/>
						</g>
					</g>
				</g>
				<g>

						<ellipse transform="matrix(1 -1.710829e-03 1.710829e-03 1 -2.0092 2.7651)" fill="#A1442C" cx="1615.2" cy="1175.8" rx="12.4" ry="12.9"/>
					<g>
						<g>
							<defs>

									<ellipse id="SVGID_5_" transform="matrix(1 -1.710829e-03 1.710829e-03 1 -2.0092 2.7651)" cx="1615.2" cy="1175.8" rx="12.4" ry="12.9"/>
							</defs>
							<clipPath id="SVGID_6_">
								<use xlink:href="#SVGID_5_"  overflow="visible"/>
							</clipPath>
							<g clip-path="url(#SVGID_6_)">
								<path fill="#E3592F" d="M1614.4,1160.9c-2,5-4.5,7.6-4.9,11.9c-0.4,4.4,1,9.9,5.4,12.3s14.4,1.8,14.4,1.8l0.5-27.9
									L1614.4,1160.9z"/>
								<path fill="#F09D84" d="M1617.2,1167.2c-1.2,1.2-0.3,2.8,0.5,4c0.8,1.1,1.7,2.3,2.2,3.5s1.7,1.9,2.9,1.2
									c1.7-1,1.6-3.7-0.4-4.2s-3.7,1.8-2.5,3.4c0.8,1.2,2.7,1.4,3.4,0c0.4-0.7,0.3-1.5-0.1-2.2c0.1,0.3,0.2,0.7,0.3,1
									c0-0.1,0-0.1,0-0.2c-0.2,0.5-0.4,0.9-0.6,1.4l0.1-0.1c-0.5,0.2-0.9,0.4-1.4,0.6c0.1,0,0.1,0,0.2,0c-0.3-0.1-0.7-0.2-1-0.3
									c0.1,0,0.1,0.1,0.2,0.1c-0.3-0.4-0.6-0.8-0.9-1.2c0,0.1,0,0.1,0,0.2c0.1-0.5,0.1-1,0.2-1.5c0,0.1-0.1,0.1-0.1,0.2
									c0.2-0.2,0.5-0.5,0.7-0.7c-0.1,0-0.1,0.1-0.2,0.1c0.9,0.2,1.8,0.5,2.7,0.7c-0.6-1.5-1.6-2.8-2.6-4.2
									C1620.3,1168,1618.6,1165.7,1617.2,1167.2L1617.2,1167.2z"/>
							</g>
						</g>
					</g>
				</g>
				<g>

						<ellipse transform="matrix(1 -1.710829e-03 1.710829e-03 1 -1.8205 2.851)" fill="#A1442C" cx="1665.5" cy="1065.5" rx="12.4" ry="12.9"/>
					<g>
						<g>
							<defs>

									<ellipse id="SVGID_7_" transform="matrix(1 -1.710829e-03 1.710829e-03 1 -1.8205 2.851)" cx="1665.5" cy="1065.5" rx="12.4" ry="12.9"/>
							</defs>
							<clipPath id="SVGID_8_">
								<use xlink:href="#SVGID_7_"  overflow="visible"/>
							</clipPath>
							<g clip-path="url(#SVGID_8_)">
								<path fill="#E3592F" d="M1664.6,1050.6c-2,5-4.5,7.6-4.9,11.9c-0.4,4.4,1,9.9,5.4,12.3s14.4,1.8,14.4,1.8l0.5-27.9
									L1664.6,1050.6z"/>
								<path fill="#F09D84" d="M1667.5,1057c-1.2,1.2-0.3,2.8,0.5,4c0.8,1.1,1.7,2.3,2.2,3.5s1.7,1.9,2.9,1.2
									c1.7-1,1.6-3.7-0.4-4.2s-3.7,1.8-2.5,3.4c0.8,1.2,2.7,1.4,3.4,0c0.4-0.7,0.3-1.5-0.1-2.2c0.1,0.3,0.2,0.7,0.3,1
									c0-0.1,0-0.1,0-0.2c-0.2,0.5-0.4,0.9-0.6,1.4l0.1-0.1c-0.5,0.2-0.9,0.4-1.4,0.6c0.1,0,0.1,0,0.2,0c-0.3-0.1-0.7-0.2-1-0.3
									c0.1,0,0.1,0.1,0.2,0.1c-0.3-0.4-0.6-0.8-0.9-1.2c0,0.1,0,0.1,0,0.2c0.1-0.5,0.1-1,0.2-1.5c0,0.1-0.1,0.1-0.1,0.2
									c0.2-0.2,0.5-0.5,0.7-0.7c-0.1,0-0.1,0.1-0.2,0.1c0.9,0.2,1.8,0.5,2.7,0.7c-0.6-1.5-1.6-2.8-2.6-4.2
									C1670.6,1057.8,1668.9,1055.5,1667.5,1057L1667.5,1057z"/>
							</g>
						</g>
					</g>
				</g>
			</g>
			<g>
				<g>
					<defs>
						<path id="SVGID_9_" d="M1613.3,1093.8c-18.9-3.4-23.8-30-22-43c0.2-1.3,0.4-2.9,0.7-4.7c2.6-15.5,9.4-46.6,17.4-70.9l2.5,0.6
							c0,0,19.7,57.3,20.8,72.1c0,0.4,0.1,0.9,0.1,1.3C1633.8,1064.6,1631.7,1097.1,1613.3,1093.8z"/>
					</defs>
					<clipPath id="SVGID_10_">
						<use xlink:href="#SVGID_9_"  overflow="visible"/>
					</clipPath>
					<g clip-path="url(#SVGID_10_)">
						<path fill="#A1442C" d="M1606.4,1073.4c-2-5.4-3.3-11.8-4-18.4c-4-1.3-6.1-3.6-10.3-8.9c-0.3,1.8-0.5,3.4-0.7,4.7
							c-1.8,13,3.1,39.6,22,43c6.8,1.2,11.3-2.4,14.3-8.3C1618,1092.1,1611.2,1086.2,1606.4,1073.4z"/>
						<path fill="#FFDB93" d="M1627.6,1000l-10.5-18.5l-6.2-0.6c0,0-5.2,23.9-7.7,39.2c-1.6,9.9-2.2,22.8-0.9,34.8
							c2.1,0.7,4.7,1.1,8.4,1.5c9.2,1.1,18-4.2,22.2-7.3c0.6,9.7-0.1,26.3-5.2,36.3c1.7-1.2,3.5-2.7,5.4-4.7
							C1645.8,1067.8,1627.6,1000,1627.6,1000z"/>
						<path fill="#E3592F" d="M1632.9,1049.2c-4.2,3.1-13,8.4-22.2,7.3c-3.7-0.4-6.3-0.9-8.4-1.5c0.7,6.7,2,13,4,18.4
							c4.8,12.8,11.6,18.7,21.3,12.2C1632.8,1075.5,1633.5,1058.9,1632.9,1049.2z"/>
						<path fill="#FFE8BB" d="M1611.8,988.4c1.9,19.3,11.4,36.9,12.7,56.4c0.2,2.5,4.2,2.6,4,0c-0.6-9.8-2.8-19.3-5.9-28.5
							c-3.2-9.3-7.4-18.3-8.8-28.1C1613.5,987,1611.7,987.3,1611.8,988.4L1611.8,988.4z"/>
					</g>
				</g>
			</g>
		</g>
	</g>
	<g id="_x31_9_x5F_Props_x5F_FishingRod_x5F_Tentacle">
		<path fill="#282828" class="main-body-fill" d="M1546.4,1016.1c-8.2,51-16.3,76.3-22.4,92c-6.2,15.7-12.4,31.4-15.8,38.6s-18.5-2.4-38.7-8.6
			c-10.7-3.3-19.2-6.3-29-10.5c-8.7-3.7-18.5-8.4-31.6-14.8c-27.8-13.7-46.9-28.3-46.9-28.3s-2.1-8.6-12.6-12.3
			c-10.4-3.7-16.4,4-16.4,4s-15.4-7.6-21.1-25.8c-5.7-18.2-4.3-35.1,4.3-59c8.5-23.9,17.9-50.1,23.8-70.4c5.8-20.3,5.2-21.7,4-34.1
			c-1.1-12.5-1.7-37.9,12.6-58.3c14.2-20.4,61.8-31.6,93.1-17.5c12.2,5.5,23.6,11.5,33.9,18.9c16.3,11.6,29.8,26.5,39,47.7
			C1537.7,912.5,1554.6,965.1,1546.4,1016.1z"/>
	</g>
	<g id="_x31_9_x5F_Props_x5F_FishingRod_x5F_Shadow">
		<path opacity="0.3" fill="#091426" enable-background="new    " d="M1508.2,1146.7c3.4-7.2,9.6-22.9,15.8-38.6
			c6.2-15.7,14.2-40.9,22.4-92c8.2-51-8.7-103.6-23.8-138.4c-9.2-21.3-22.7-36.1-39-47.7c10.5,18.6,13.8,47.6,17,68
			c4,25.7,0.4,53.6-9.3,74.4s-23.7,34.6-38,54.7c-14.3,20.1-6.6,40-3.8,58c2.5,16.6-0.3,23-9,42.7c9.8,4.2,18.3,7.3,29,10.5
			C1489.7,1144.3,1504.9,1153.9,1508.2,1146.7z"/>
	</g>
</g>
</svg>
