<?xml version="1.0" encoding="utf-8"?>
<!-- Generator: Adobe Illustrator 21.0.2, SVG Export Plug-In . SVG Version: 6.00 Build 0)  -->
<svg version="1.1" id="Layer_1" xmlns="http://www.w3.org/2000/svg" xmlns:xlink="http://www.w3.org/1999/xlink" x="0px" y="0px"
	 viewBox="0 0 2000 2000" enable-background="new 0 0 2000 2000" xml:space="preserve">
<g>
	<g id="_x32_0_x5F_Props_x5F_GameController_x5F_Tentacle">
		<path fill="#494949" d="M1450.7,968.9l-57.6,67.1l-26.7-5.2c8.8-40.8,12.9-52.3,30.8-66c0.2-0.1,0.3-0.2,0.4-0.3
			c11.7-8.9,21.4-12.7,26.7-14.3c3-0.9,4.7-1.1,4.7-1.1L1450.7,968.9z"/>
		<path fill="#091426" d="M1424.4,950.1c-1.1,0.3-2.5,0.8-3.9,1.4C1421.9,950.9,1423.3,950.5,1424.4,950.1L1424.4,950.1z"/>
		<path fill="#091426" d="M1397.2,964.8L1397.2,964.8C1397.3,964.8,1397.3,964.8,1397.2,964.8
			C1397.3,964.8,1397.3,964.8,1397.2,964.8z"/>
		<path fill="#282828" d="M1667.7,988.6c-0.4-1-4.3-8.4-4.7-9.2c-4.3-9.1-13.3-41.1-21-50.6s-35.3-18-55.4-26.1
			c-20-8-30.7-14.9-49.7-18.6c-7.2-1.4-14.9-1.9-21.6-2c-11.1-0.1-19.6,0.8-19.6,0.8s-0.7-0.5-1.9-1.2c-1.1-0.7-2.7-1.6-4.7-2.6
			c-5.1-2.7-13-6.4-23.2-9.8c-18.8-6.2-26-4.2-32.9,0c-4.7,2.9-8.5,6.5-11.9,10.7c-1.6,2-3.2,4.1-4.7,6.3c-4.8,6.9-9.7,19.9-6.8,38
			c3,18.1,8.2,28.2,18.3,33.9c5.2,2.9-1.1,14.5-8.4,25.1c-7,10.1-15,19.3-15,19.3s-2.7-8.4-14.8-7.2c-12.1,1.2-16.2,15.9-20.8,27.8
			c-4.6,11.9-6.2,26.2-8,36.7s-2.9,19.1-2.9,19.1c2.3,4,30.8,22.3,47.6,30.1c9.7,4.5,22.8,10.8,36.2,16.6c9.8,4.3,19.9,8.3,29,11.2
			c21.5,6.9,36.2,10.6,36.2,10.6c2.5-6.1,5.2-11,5.2-11c2.6-4.3,4.7-5.3,4.7-5.3s24.6,1.8,37.7-2.5c13-4.3,37.7-6.6,58.6-22.8
			c20.9-16.2,22.9-17.4,29.7-32.4s14.3-30.9,16.9-47.5c0.1-0.6,0.2-1.1,0.2-1.7C1661.9,1009.7,1671.2,997.9,1667.7,988.6z"/>
	</g>
	<g id="_x32_0_x5F_Props_x5F_GameController_x5F_Shadow">
		<path opacity="0.3" fill="#091426" enable-background="new    " d="M1429.1,949c0,0-1.7,0.2-4.7,1.1l0,0l13.1,11.1
			c0,0-0.4,29.5-21.7,30.6c-16.4,0.8-21.5-14.2-18.6-27l0,0c-17.9,13.6-21.9,25.2-30.8,66l26.7,5.2l57.6-67.1L1429.1,949z"/>
		<path opacity="0.3" fill="#091426" enable-background="new    " d="M1507,1147.6c2.5-6.1,5.2-11,5.2-11c2.6-4.3,4.7-5.3,4.7-5.3
			s24.6,1.8,37.7-2.5c13-4.3,37.7-6.6,58.6-22.8c20.9-16.2,22.9-17.4,29.7-32.4s14.3-30.9,16.9-47.5c0.1-0.6,0.2-1.1,0.2-1.7
			c1.9-14.6-0.5-30.2-4.1-39.6c0,9.6-0.2,21-1.2,28.4c-2,14.9-11,37-28,50.9c-17.1,13.9-43.7,28.9-58.9,29.2
			c-15.2,0.3-36.6-6.6-55.8-25.6s-14.9-46.7-16.2-68.6c-1.3-21.9-12.3-32.7-29.5-42.4s-30.6-15.6-39.2-29c-7.2-11.3-11-27.1-6-47.3
			c-1.6,2-3.2,4.1-4.7,6.3c-4.8,6.9-9.7,19.9-6.8,38c3,18.1,8.2,28.2,18.3,33.9c5.2,2.9-1.1,14.5-8.4,25.1l32.9,86.9l-10.6,55.5
			c9.8,4.3,19.9,8.3,29,11.2C1492.4,1143.9,1507,1147.6,1507,1147.6z"/>
		<path opacity="0.3" fill="#091426" enable-background="new    " d="M1454.7,919.6c-2.1,4.2,0.7,3.9,0.7,3.9
			c3.1-0.1,3.5-2.1,14.1-14.8c7.7-9.2,29.6-20.3,45.8-26.7c-11.1-0.1-19.6,0.8-19.6,0.8s-0.7-0.5-1.9-1.2c-1.1-0.7-2.7-1.6-4.7-2.6
			c-1,0.8-2.1,1.7-3.1,2.6C1459.6,905.3,1456.8,915.5,1454.7,919.6z"/>
	</g>
	<g id="_x32_0_x5F_Props_x5F_GameController_x5F_GameController">
		<g>
			<path fill="#908BB5" d="M1428,958.7c4,1,13.4-1.7,21.7,5.8c8.3,7.5,20.4,19.6,24.6,41.3s5.7,36,0,44.7
				c-5.7,8.6-24.4,28.6-41.8,32.5s-32-5.8-38.6-22.7c-6.6-16.9-2.4-27.6,5.6-54.2C1407.5,979.4,1428,958.7,1428,958.7z"/>
			<g>
				<g>
					<g>
						<defs>
							<path id="SVGID_1_" d="M1428,958.7c4,1,13.4-1.7,21.7,5.8c8.3,7.5,20.4,19.6,24.6,41.3s5.7,36,0,44.7
								c-5.7,8.6-24.4,28.6-41.8,32.5s-32-5.8-38.6-22.7c-6.6-16.9-2.4-27.6,5.6-54.2C1407.5,979.4,1428,958.7,1428,958.7z"/>
						</defs>
						<clipPath id="SVGID_2_">
							<use xlink:href="#SVGID_1_"  overflow="visible"/>
						</clipPath>
						<path clip-path="url(#SVGID_2_)" fill="#CABEF3" d="M1410.3,974.3c15-2.8,31,12.2,38.2,23.5s12.9,27.7,12.7,33.3
							c-0.2,5.7-4.2,20.2-17.3,32.5c-13.1,12.2-20.3,21.2-43.3,11.3s-15.5-55.5-15.5-55.5L1410.3,974.3z"/>
					</g>
				</g>
			</g>
		</g>
		<g>
			<path fill="#24184E" d="M1755.7,890.9c6.9-8.1,8.6-8.6,10.3-10.3c1.7-1.7,19.7,3,41.6,15.3s41.1,37.4,42.4,38.6
				c1.3,1.3-0.7,25.4-0.7,25.4L1755.7,890.9z"/>
			<path fill="#24184E" d="M1569.6,836.3c13.7-13,15.6-14.1,20.6-17.7c5-3.5,13.9-5.2,37.5,1.5s46.5,19.6,49.8,21.7
				c3.3,2.1,6.1,16.7,6.1,16.7L1569.6,836.3z"/>
			<path fill="#CABEF3" d="M1857.9,984.1c0,0,5.1-8.8-5.5-24.3c-10.6-15.6-38.1-40.1-79.2-63.5s-78.7-40.8-109.1-49.6
				s-76.2-15.9-89.1-17c-11.3-0.9-14.4-0.7-25.7,6.7c-9.3,6.1-43.8,35.4-55.5,45.4c1.3,0.8,1.9,1.2,1.9,1.2s22.3-2.5,41.2,1.2
				c19,3.7,29.6,10.5,49.7,18.6c20,8,35.2,22.4,42.9,31.9c7.7,9.5,20.9,38.2,25.2,47.3c4.2,8.8,7.5,26.3,5.3,42.4
				c26.8,14.3,49,26.7,56.4,31.3c8.6,5.4,14,10,17.6,29.6s12.6,63.3,16.3,89.1s17.7,42.2,34.8,46.8c17.1,4.6,37.3-0.6,52.1-21.6
				c14.8-21,21.4-60.7,25.9-122.7C1867.6,1014.9,1862.5,997.9,1857.9,984.1z"/>
			<g>
				<ellipse fill="#908BB5" cx="1657.2" cy="872.6" rx="5.8" ry="6.1"/>
				<ellipse fill="#5943AC" cx="1658.8" cy="873.3" rx="5.4" ry="5.6"/>
				<g>
					<g>
						<g>
							<defs>
								<ellipse id="SVGID_3_" cx="1658.8" cy="873.3" rx="5.4" ry="5.6"/>
							</defs>
							<clipPath id="SVGID_4_">
								<use xlink:href="#SVGID_3_"  overflow="visible"/>
							</clipPath>
							<ellipse clip-path="url(#SVGID_4_)" fill="#6141CD" cx="1660" cy="872.6" rx="4.8" ry="5"/>
						</g>
					</g>
				</g>
			</g>
			<g>
				<path fill="#908BB5" d="M1773.2,954.7c0,6.5-5.1,11.8-11.3,11.8s-10.5-5-10.5-11.6s5-11.6,11.2-11.6S1773.2,948.2,1773.2,954.7z
					"/>
				<ellipse fill="#223C83" cx="1765" cy="955.9" rx="10.4" ry="10.9"/>
				<g>
					<g>
						<g>
							<defs>
								<path id="SVGID_5_" d="M1775.4,955.9c0,6-4.7,10.9-10.4,10.9c-5.8,0-10.1-4.9-10.1-10.9s4.4-10.9,10.1-10.9
									S1775.4,949.9,1775.4,955.9z"/>
							</defs>
							<clipPath id="SVGID_6_">
								<use xlink:href="#SVGID_5_"  overflow="visible"/>
							</clipPath>
							<path clip-path="url(#SVGID_6_)" fill="#2A4CA9" d="M1776.6,954.7c0,5.4-4.2,10.2-9.3,10.2c-6.2,0-9.9-4.8-9.9-10.2
								s4.8-9.7,9.9-9.7C1772.4,945,1776.6,949.3,1776.6,954.7z"/>
						</g>
					</g>
				</g>
			</g>
			<path fill="#908BB5" d="M1821.1,979.2c0,6.3-4.9,10.7-10.9,10.7s-8.5-4.1-8.5-10.4c0-6.3,3.2-10.6,9.2-10.6
				C1816.9,968.8,1821.1,972.9,1821.1,979.2z"/>
			<ellipse fill="#AC9030" cx="1813.2" cy="980.3" rx="10.1" ry="10.5"/>
			<g>
				<g>
					<g>
						<defs>
							<ellipse id="SVGID_7_" cx="1813.2" cy="980.3" rx="10.1" ry="10.5"/>
						</defs>
						<clipPath id="SVGID_8_">
							<use xlink:href="#SVGID_7_"  overflow="visible"/>
						</clipPath>
						<g clip-path="url(#SVGID_8_)">
							<path fill="#F5C627" d="M1824.4,979.2c0,5.2-4,9.8-9,9.8c-6,0-9.6-4.6-9.6-9.8s4.6-9.4,9.6-9.4S1824.4,974,1824.4,979.2z"/>
						</g>
					</g>
				</g>
			</g>
			<path fill="#908BB5" d="M1786,989.8c0,6.9-5.3,11.8-11.8,11.8s-9.2-4.5-9.2-11.5c0-6.9,3.4-11.7,10-11.7
				C1781.4,978.3,1786,982.8,1786,989.8z"/>
			<ellipse fill="#278474" cx="1777.4" cy="991" rx="10.9" ry="11.6"/>
			<g>
				<g>
					<g>
						<defs>
							<path id="SVGID_9_" d="M1788.3,991c0,6.4-4.9,11.6-10.9,11.6s-9.8-5.2-9.8-11.6s3.8-11.6,9.8-11.6S1788.3,984.6,1788.3,991z"
								/>
						</defs>
						<clipPath id="SVGID_10_">
							<use xlink:href="#SVGID_9_"  overflow="visible"/>
						</clipPath>
						<g clip-path="url(#SVGID_10_)">
							<path fill="#33AF92" d="M1789.5,989.8c0,5.7-4.4,10.8-9.7,10.8c-6.5,0-10.4-5.1-10.4-10.8s5-10.4,10.4-10.4
								S1789.5,984,1789.5,989.8z"/>
						</g>
					</g>
				</g>
			</g>
			<g>
				<ellipse fill="#908BB5" cx="1797.3" cy="941.7" rx="12.4" ry="12.9"/>
				<path fill="#9A2227" d="M1812.1,943c0,6.6-5.1,12-11.4,12s-10.5-4.8-11.6-11.3c-1.1-7,3.3-12.6,11.6-12.6
					C1807,931,1812.1,936.4,1812.1,943z"/>
				<g>
					<g>
						<g>
							<defs>
								<ellipse id="SVGID_11_" cx="1800.7" cy="943" rx="11.4" ry="12"/>
							</defs>
							<clipPath id="SVGID_12_">
								<use xlink:href="#SVGID_11_"  overflow="visible"/>
							</clipPath>
							<path clip-path="url(#SVGID_12_)" fill="#CE2828" d="M1813.4,941.7c0,5.9-4.6,12.2-10.2,12.2c-6.9,0-12.3-6.3-12.3-12.2
								s4.6-10.7,12.3-10.7C1808.8,931,1813.4,935.8,1813.4,941.7z"/>
						</g>
					</g>
				</g>
			</g>
			<g>
				<path fill="#908BB5" d="M1749.4,991c-1.6,17.8-16.7,31.8-35,31.8c-19.4,0-34.1-15.7-35.1-35c-1.2-21.6,10.9-37.9,34-37.9
					c19.4,0,36.2,18.5,36.2,37.9C1749.6,988.9,1749.5,989.9,1749.4,991"/>
				<path fill="#CABEF3" d="M1746.5,986.3c0,19.7-15.9,31.1-31,31.1c-17.1,0-32.6-15.6-33.5-32.6c-1-19,13.8-36.8,32.6-36.8
					C1742.9,948.1,1746.5,965,1746.5,986.3z"/>
				<path fill="#908BB5" d="M1696.8,979.4c-1.7,7.7-1.8,17.3,4.6,22.1c6.3,4.8,13.7,5.4,18.8,1.7s4.8-9.8,4.8-9.8L1696.8,979.4z"/>
				<ellipse fill="#24184E" cx="1715.1" cy="980.1" rx="20.1" ry="21"/>
				<path fill="#1F1746" d="M1718.6,971.9c4.8,4.9,5.9,11.4,0,15.8c-0.5,0.3-0.2,1,0.4,0.9c3.4-0.6,5.4-4.3,5.5-7.5
					c0.2-4-2.5-7.3-5.5-9.6C1718.7,971.3,1718.4,971.7,1718.6,971.9L1718.6,971.9z"/>
			</g>
			<g>
				<g>
					<g>
						<defs>
							<path id="SVGID_13_" d="M1857.9,984.1c0,0,5.1-8.8-5.5-24.3c-10.6-15.6-38.1-40.1-79.2-63.5s-78.7-40.8-109.1-49.6
								s-76.2-15.9-89.1-17c-11.3-0.9-14.4-0.7-25.7,6.7c-9.3,6.1-43.8,35.4-55.5,45.4c1.3,0.8,1.9,1.2,1.9,1.2s22.3-2.5,41.2,1.2
								c19,3.7,29.6,10.5,49.7,18.6c20,8,35.2,22.4,42.9,31.9c7.7,9.5,20.9,38.2,25.2,47.3c4.2,8.8,7.5,26.3,5.3,42.4
								c26.8,14.3,49,26.7,56.4,31.3c8.6,5.4,14,10,17.6,29.6s12.6,63.3,16.3,89.1s17.7,42.2,34.8,46.8c17.1,4.6,37.3-0.6,52.1-21.6
								c14.8-21,21.4-60.7,25.9-122.7C1867.6,1014.9,1862.5,997.9,1857.9,984.1z"/>
						</defs>
						<clipPath id="SVGID_14_">
							<use xlink:href="#SVGID_13_"  overflow="visible"/>
						</clipPath>
						<g clip-path="url(#SVGID_14_)">
							<path fill="#908BB5" d="M1846.9,1019.4c-20.8-0.5-41.9,3-60.9,11.5c-7.2,3.2-14.1,6.7-20.7,11c-8.9,5.7-16.3,12.6-24.2,19.3
								c9.2,19.1,14.9,64.5,17.9,85.4c3.3,22.7,10.8,56.6,31.7,65c20.9,8.4,53.7-13.7,53.7-13.7l-7,45H1731l-96.3-194.3l14-48.7
								c41.7,19.3,79.3,41.5,90,57c0.1,0.2,0.3,0.4,0.4,0.6c6.2-7.2,15.3-12.8,23-17.6c7-4.4,14.5-8.3,22.2-11.4
								c19.9-8,41.2-11.8,62.6-10.1C1847.5,1018.5,1847.5,1019.5,1846.9,1019.4z"/>
							<g>
								<path fill="#908BB5" d="M1661.2,950.4c0,20.5-15.2,37.1-33.9,37.1c-18.7,0-33-16.7-33.9-37.1c-1.1-22.9,10.6-40.2,32.9-40.2
									C1645,910.2,1661.2,929.9,1661.2,950.4z"/>
								<path fill="#CABEF3" d="M1658.2,946.5c0,21.5-13.4,33.6-30,33.6s-29.1-15.1-30-33.6c-0.6-11.9,4.7-23.1,11.9-30.3
									c5.3-5.3,11.5-8.4,17.1-8C1643.8,909.5,1658.2,925.3,1658.2,946.5z"/>
								<path fill="#908BB5" d="M1620.8,930.5c1.4-5.5,2.2-6.6,4.5-6.8s7.9,1.7,10,2.5c2,0.8,2,3.4,1.4,6.2s-2.8,10.3-3.3,12.3
									s1.7,2.5,5.6,3.4s6.6,2.2,7.5,3.5c0.9,1.4-2.4,15.1-2.4,15.1L1620.8,930.5z"/>
								<path fill="#24184E" d="M1622.7,930.5c1.4-5.5,2.2-6.6,4.5-6.8s7.9,1.7,10,2.5c2,0.8,2,3.4,1.4,6.2s-2.8,10.3-3.3,12.3
									s1.7,2.5,5.6,3.4s6.6,2.2,7.5,3.5c0.9,1.4-2.4,15.1-2.4,15.1L1622.7,930.5z"/>
							</g>
							<g>
								<path fill="#908BB5" d="M1628.9,874.8c0,17.2-14.5,31.2-32.3,31.2s-31.4-14-32.3-31.2c-1.1-19.2,10.1-33.8,31.3-33.8
									C1613.4,841.1,1628.9,857.6,1628.9,874.8z"/>
								<path fill="#CABEF3" d="M1626,871.6c0,18.1-12.8,28.2-28.5,28.2s-27.7-12.6-28.5-28.2c-0.9-17.4,15-33.1,27.6-32.2
									C1612.3,840.5,1626,853.8,1626,871.6z"/>
								<ellipse fill="#908BB5" cx="1595.6" cy="870.4" rx="16.6" ry="19.6"/>
								<ellipse fill="#24184E" cx="1595.2" cy="865.2" rx="18.4" ry="19.6"/>
								<path fill="#1F1746" d="M1596,856.8c3.8,0.1,5.7,3.3,6.1,6.7c0.2,1.8-0.1,3.1-1,4.7c-0.5,1-1.1,2.9-2.2,3.4
									c-0.6,0.3-0.2,1.2,0.4,1.1c3.8-1.1,5.7-6,5-9.6c-0.8-4.2-4.3-6.7-8.4-7.1C1595.4,855.9,1595.4,856.8,1596,856.8L1596,856.8z
									"/>
							</g>
						</g>
					</g>
				</g>
			</g>
			<g>
				<path fill="none" d="M1709.7,900.2L1709.7,900.2c0.8-1.7,1-3.7,0.3-5.5c-0.2-0.5-0.4-0.9-0.6-1.3c-0.7-1.2-1.7-2.2-3-2.8
					c-1-0.5-2.1-0.7-3.2-0.7c-0.3,0-0.6,0-0.9,0.1c-0.5,0.1-1,0.2-1.4,0.3c-1.8,0.6-3.3,1.9-4.1,3.6c-0.8,1.7-1,3.7-0.3,5.5
					c0.2,0.5,0.4,0.9,0.6,1.3c0.7,1.2,1.7,2.2,3,2.8s2.7,0.9,4.1,0.7c0.5-0.1,0.9-0.2,1.4-0.3
					C1707.4,903.2,1708.8,901.9,1709.7,900.2z"/>
				<path fill="#9791BC" d="M1717.6,908.1c-5.3,5.4-13.1,8.2-19.3,6.5s-12.8-8.2-13.4-12.5s0-6.5,0-6.5s-4.6-1.8-7.3-3.8
					s-0.5-5.2,1-8.1s2-3.8,4.8-2.3s6.3,13.5,10.4,20.1s21.6,3.5,21.6,3.5L1717.6,908.1z"/>
				<path fill="#FFDB93" d="M1728.1,902.5l-8.7-4.3c0.2-2.2-0.1-4.4-0.8-6.5c-1.4-4.1-4.3-7.4-8.2-9.3c-3.9-1.9-8.3-2.2-12.4-0.8
					c-2.1,0.7-4,1.9-5.6,3.3l-8-3.9c-1.3-0.6-2.8-0.1-3.4,1.2l-3,6.2c-0.6,1.3-0.1,2.8,1.2,3.4l8,3.9c-0.2,2.2,0.1,4.4,0.8,6.5
					c1.4,4.1,4.3,7.4,8.2,9.3c2.3,1.1,4.7,1.7,7.1,1.7c1.8,0,3.5-0.3,5.3-0.9c2.1-0.7,4-1.9,5.6-3.3l8.7,4.3
					c1.3,0.6,2.8,0.1,3.4-1.2l3-6.2C1729.9,904.7,1729.4,903.1,1728.1,902.5z M1700.1,903.4c-1.3-0.6-2.3-1.6-3-2.8
					c-0.2-0.4-0.4-0.9-0.6-1.3c-0.6-1.8-0.5-3.8,0.3-5.5s2.3-3,4.1-3.6c0.5-0.2,1-0.3,1.4-0.3c0.3,0,0.6-0.1,0.9-0.1
					c1.1,0,2.2,0.2,3.2,0.7c1.3,0.6,2.3,1.6,3,2.8c0.2,0.4,0.4,0.9,0.6,1.3c0.6,1.8,0.5,3.8-0.3,5.5l0,0c-0.8,1.7-2.3,3-4.1,3.6
					c-0.5,0.2-0.9,0.3-1.4,0.3C1702.7,904.3,1701.3,904.1,1700.1,903.4z"/>
				<g>
					<g>
						<g>
							<defs>
								<path id="SVGID_15_" d="M1728.1,902.5l-8.7-4.3c0.2-2.2-0.1-4.4-0.8-6.5c-1.4-4.1-4.3-7.4-8.2-9.3
									c-3.9-1.9-8.3-2.2-12.4-0.8c-2.1,0.7-4,1.9-5.6,3.3l-8-3.9c-1.3-0.6-2.8-0.1-3.4,1.2l-3,6.2c-0.6,1.3-0.1,2.8,1.2,3.4l8,3.9
									c-0.2,2.2,0.1,4.4,0.8,6.5c1.4,4.1,4.3,7.4,8.2,9.3c2.3,1.1,4.7,1.7,7.1,1.7c1.8,0,3.5-0.3,5.3-0.9c2.1-0.7,4-1.9,5.6-3.3
									l8.7,4.3c1.3,0.6,2.8,0.1,3.4-1.2l3-6.2C1729.9,904.7,1729.4,903.1,1728.1,902.5z M1700.1,903.4c-1.3-0.6-2.3-1.6-3-2.8
									c-0.2-0.4-0.4-0.9-0.6-1.3c-0.6-1.8-0.5-3.8,0.3-5.5s2.3-3,4.1-3.6c0.5-0.2,1-0.3,1.4-0.3c0.3,0,0.6-0.1,0.9-0.1
									c1.1,0,2.2,0.2,3.2,0.7c1.3,0.6,2.3,1.6,3,2.8c0.2,0.4,0.4,0.9,0.6,1.3c0.6,1.8,0.5,3.8-0.3,5.5l0,0c-0.8,1.7-2.3,3-4.1,3.6
									c-0.5,0.2-0.9,0.3-1.4,0.3C1702.7,904.3,1701.3,904.1,1700.1,903.4z"/>
							</defs>
							<clipPath id="SVGID_16_">
								<use xlink:href="#SVGID_15_"  overflow="visible"/>
							</clipPath>
							<g clip-path="url(#SVGID_16_)">
								<path fill="#B39E79" d="M1683.6,879.4c-3,5.3-4,8.4-4.3,9.2c-0.3,0.9,1.1,1.8,3.3,2.7c2.1,0.9,6.2,3.1,6.2,3.1
									s-1.4,1.7-0.6,6c0.8,4.2,5,8.9,9.7,10.8c4.7,1.9,10.3,0.2,12.6-1.5c2.2-1.8,2.8-2.7,3.9-2.8c1.2,0,12.4,6.9,12.4,6.9
									l-6.4,4.9l-35.5-3.7c0,0-10.9-27.6-11-27.7c-0.1,0,5.5-10.4,5.5-10.4L1683.6,879.4z"/>
								<path fill="#B39E79" d="M1696,896.5c-1.1-5.3,0.9-7.8,4.5-9.4c3.6-1.6,8.8,0.6,10.7,4.7s0.6,6.5-1.3,7.7
									C1708,900.7,1696,896.5,1696,896.5z"/>
							</g>
						</g>
					</g>
				</g>
			</g>
			<g>
				<path fill="#908BB5" d="M1661.2,893.6c-4.3-4.5-7.3-5.9-10-5.7s-4.2,1-5,3.6s1.4,4.1,6,5.5s7.2-0.7,7.2-0.7L1661.2,893.6z"/>
				<g>
					<path fill="#5943AC" d="M1649.3,891.4c-0.7,1.6-1.3,2.5,2.1,3.5s7.8,2.3,9,2.6s1.5-2.6,2-3.6s-2.5-2.3-6.5-3.5
						C1651.8,889.2,1650.2,889.4,1649.3,891.4z"/>
					<g>
						<g>
							<g>
								<defs>
									<path id="SVGID_17_" d="M1649.3,891.4c-0.7,1.6-1.3,2.5,2.1,3.5s7.8,2.3,9,2.6s1.5-2.6,2-3.6s-2.5-2.3-6.5-3.5
										C1651.8,889.2,1650.2,889.4,1649.3,891.4z"/>
								</defs>
								<clipPath id="SVGID_18_">
									<use xlink:href="#SVGID_17_"  overflow="visible"/>
								</clipPath>
								<path clip-path="url(#SVGID_18_)" fill="#6141CD" d="M1660.2,896.7c-7.3-1.9-9.8-2.7-10.4-3.1c-0.6-0.4,0.9-2.4,1.2-3
									c0.3-0.5,12.5,2.3,12.5,2.3l-0.2,4.2L1660.2,896.7z"/>
							</g>
						</g>
					</g>
				</g>
			</g>
		</g>
	</g>
</g>
</svg>
