<?xml version="1.0" encoding="utf-8"?>
<!-- Generator: Adobe Illustrator 21.1.0, SVG Export Plug-In . SVG Version: 6.00 Build 0)  -->
<svg version="1.1" id="Layer_1" xmlns="http://www.w3.org/2000/svg" xmlns:xlink="http://www.w3.org/1999/xlink" x="0px" y="0px"
	 viewBox="0 0 2000 2000" enable-background="new 0 0 2000 2000" xml:space="preserve">
<g>
	<path opacity="0.47" fill="#72C4ED" enable-background="new    " d="M1498.8,457.6c-64.1,0-119.7,36-147.5,88.9
		c-4.8,15.4-7.4,31.9-7.4,48.9c0,91.5,74.5,165.7,166.4,165.7c64.1,0,119.7-36,147.5-88.9c4.8-15.4,7.4-31.9,7.4-48.9
		C1665.2,531.8,1590.7,457.6,1498.8,457.6z"/>
	<path fill="#737C80" d="M1501.1,445.7c-100,0-181,81-181,181s81,181,181,181s181-81,181-181S1601.1,445.7,1501.1,445.7z
		 M1510.3,761.1c-91.9,0-166.4-74.2-166.4-165.7c0-17,2.6-33.5,7.4-48.9c27.8-52.9,83.4-88.9,147.5-88.9
		c91.9,0,166.4,74.2,166.4,165.7c0,17-2.6,33.5-7.4,48.9C1630,725.1,1574.4,761.1,1510.3,761.1z"/>
	<g id="_x32_5_x5F_Props_x5F_MagnifyingGlass_x5F_Tentacle">
		<path fill="#282828" d="M1540.7,1055c-5.3,21.8-10.3,43.2-33.9,92.7c0,0-20.4-3.6-38.1-8.1s-41.2-15.7-56.3-24
			c-15.2-8.3-27.5-16-39.7-28s-40.3-9-40.3-9s-13.5-8-22.7-21s-3.7-48.3,4.7-65.3c8.3-17,15.3-39.5,18.3-50.3s3.5-44.3,5-61.7
			c1.5-17.3,2-42.5,18.7-53c13-8.2,31.8-17.6,59.7-17.9c7.8-0.1,16.4,0.6,25.7,2.2c6.4,1.1,12.6,2.7,18.6,4.8
			c33.4,11.7,58.9,39.5,75.8,90.6C1555.8,967.2,1546,1033.2,1540.7,1055z"/>
	</g>
	<g id="_x32_5_x5F_Props_x5F_MagnifyingGlass_x5F_Shadow">
		<path opacity="0.3" fill="#091426" enable-background="new    " d="M1536,907c-12.3-37.4-29.3-62.3-50.6-77.5
			c13,21.6,18.2,55.7,15.6,92.2c-3.5,48-15.7,69.2-35.7,90.3c-20,21.2-18.2,30.5-17.9,52c0.3,21.3,4.5,39.6-6.4,65.7
			c9.5,4.1,19.2,7.8,27.6,9.9c17.7,4.5,38.1,8.1,38.1,8.1c23.6-49.6,28.6-70.9,33.9-92.7C1546,1033.2,1555.8,967.2,1536,907z"/>
	</g>
	<path fill="#172B67" d="M1316.1,1101.1c10.4-28.7,12.9-37.6,23-43.8s22.4,3.1,27.8,9.2s5.6,12.4,2.5,22.6s-6,21.9-7.4,24.9
		s-8,7.6-23.6,4.6s-20.5-10.3-21.5-12.1C1315.9,1104.6,1316.1,1101.1,1316.1,1101.1z"/>
	<path fill="#2B4CA9" d="M1362.1,1114c1.4-3,4.3-14.8,7.4-24.9c1.6-5.2,2.3-9.4,1.9-13.1c-2.2-2.4-5.7-4.3-11.2-6.3
		c-10.2-3.7-19.3-5.3-22.3,2.9c-5.1,14.1-7.8,24.1-7.8,24.1s11.1-2.9,22.6,7.7c5,4.6,7.7,7.9,9.1,10.1
		C1361.9,1114.3,1362,1114.2,1362.1,1114z"/>
	<path fill="#585D5E" d="M1431.1,789.8c5.1-9.8,5.9-11.2,7.3-12.2c1.4-1,10.5-2.6,16.9,1.8c6.4,4.3,7,6,6.4,7.4s-3.7,10.8-3.7,10.8
		L1431.1,789.8z"/>
	<path fill="#ACB9BF" d="M1435.2,793.6c4.4-7.9,6.7-11,12.9-11.6s8.9,4.4,8.9,4.4l-4.4,9.5L1435.2,793.6z"/>
	<path fill="#2B4CA9" d="M1460.2,816.4l3.6-14.1c0,0-0.5-5.9-16.1-12s-22.2-2.8-22.2-2.8s-2,4.5-9.6,21.9c7.8-0.1,16.3,0.6,25.7,2.2
		C1448.1,812.8,1454.3,814.4,1460.2,816.4z"/>
	<path fill="#172B67" d="M1429.8,810.1c4.2-11.2,7.2-18.9,8.5-22.6c-8.8-1.8-12.7,0.1-12.7,0.1s-2,4.5-9.6,21.9
		C1420.4,809.4,1425,809.6,1429.8,810.1z"/>
	<path fill="#BCC9CE" d="M1509.5,417c-100.7,0-182.4,81-182.4,181s81.7,181,182.4,181s182.4-81,182.4-181S1610.2,417,1509.5,417z
		 M1510.3,761.1c-91.9,0-166.4-74.2-166.4-165.7c0-17,2.6-33.5,7.4-48.9c27.8-52.9,83.4-88.9,147.5-88.9
		c91.9,0,166.4,74.2,166.4,165.7c0,17-2.6,33.5-7.4,48.9C1630,725.1,1574.4,761.1,1510.3,761.1z"/>
	<circle fill="#FFFFFF" cx="1588.1" cy="556" r="3.7"/>
	<path fill="#FFFFFF" d="M1571.2,513.5c5.3,16.4,10.4,24.3,18.9,29.4s17,2.2,19.4-1.7s3.9-13.7-11-29.2s-25-7.5-26.4-5.5
		C1570.7,508.4,1570.5,511.5,1571.2,513.5z"/>
	<g opacity="0.45">
		<path fill="#E5F7FF" d="M1623.6,513.7c11.6-7.6,22.8-15,33.6-22c-14.7-20-33.3-36.9-54.8-49.5l-53.7,23
			C1577.9,474.3,1603.7,491.3,1623.6,513.7z"/>
		<path fill="#E5F7FF" d="M1327.1,598c0,34.3,9.6,66.4,26.3,93.7c4.9-3.2,9.9-6.5,14.9-9.9c-15.5-25.2-24.4-54.8-24.4-86.4"/>
		<path fill="#E5F7FF" d="M1402.6,721.7c-5.2,3.6-10.4,7.2-15.4,10.6c5.2,4.6,10.6,8.9,16.2,13l16.1-11
			C1413.7,730.5,1408,726.3,1402.6,721.7z"/>
		<path fill="#E5F7FF" d="M1657.2,572.3l28.9-19.8c-2-7.6-4.5-15-7.4-22.2c-9.7,6.7-19.7,13.7-30.1,20.9
			C1651.9,558,1654.8,565,1657.2,572.3z"/>
	</g>
	<g>
		<path fill="#737C80" d="M1498.8,457.6c91.9,0,166.4,74.2,166.4,165.7c0,17-2.6,33.5-7.4,48.9c-2.6,4.9-5.4,9.6-8.4,14.2
			c17.3-26.1,27.4-57.4,27.4-91.1c0-91.5-74.5-165.7-166.4-165.7c-74.8,0-138,49.1-159,116.7
			C1379.2,493.5,1434.8,457.6,1498.8,457.6z"/>
		<path fill="#737C80" d="M1646.1,691.2c1-1.5,2-2.9,3-4.4C1648.2,688.3,1647.1,689.8,1646.1,691.2z"/>
		<path fill="#737C80" d="M1643.3,695c0.9-1.2,1.9-2.5,2.8-3.8C1645.2,692.5,1644.3,693.7,1643.3,695z"/>
		<path fill="#737C80" d="M1640.6,698.5c0.5-0.6,0.9-1.2,1.4-1.7C1641.5,697.4,1641,698,1640.6,698.5z"/>
	</g>
	<path opacity="0.6" fill="#E5F7FF" enable-background="new    " d="M1510.3,761.3l-8.2,0.3c-2.7,0-5.5-0.1-8.2-0.2
		c-2.7-0.1-5.5-0.4-8.2-0.6c-2.7-0.3-5.4-0.7-8.2-1c-1.4-0.2-2.7-0.5-4.1-0.7l-4.1-0.8c-1.4-0.2-2.7-0.6-4-0.9l-4-1
		c-1.3-0.3-2.7-0.7-4-1.1l-4-1.2c-1.3-0.4-2.6-0.9-3.9-1.4l-3.9-1.4c-10.3-3.9-20.2-9.1-29.6-15.1c-9.3-6.1-17.9-13.1-25.9-20.9
		c-7.8-7.9-14.9-16.5-21-25.7c-6-9.3-11.3-19.1-15.2-29.5c-4.1-10.3-6.9-21-8.7-31.9c-0.3-2.7-0.8-5.5-1-8.2
		c-0.2-2.7-0.5-5.5-0.6-8.2c-0.1-2.7-0.2-5.5-0.2-8.2l0.3-8.2h0.4c0,21.7,4.4,43.4,12.8,63.4c8.4,20,20.8,38.3,36.2,53.6
		c15.4,15.3,33.7,27.6,53.8,35.9c20.1,8.3,41.7,12.6,63.4,12.6L1510.3,761.3L1510.3,761.3z"/>
	<path opacity="0.6" fill="#E5F7FF" enable-background="new    " d="M1691.7,598l-0.7-8.9l-1-8.8c-0.4-2.9-1-5.8-1.5-8.7
		c-0.6-2.9-1.3-5.8-1.9-8.6c-0.7-2.9-1.5-5.7-2.2-8.5c-0.8-2.8-1.8-5.6-2.6-8.4c-0.9-2.8-2-5.5-3-8.3c-1-2.7-2.3-5.4-3.4-8.1
		c-4.8-10.7-10.5-21-17.2-30.5c-6.6-9.6-14.1-18.6-22.5-26.8c-8.2-8.2-17.3-15.6-27-22.2c-9.6-6.6-20-12.1-30.7-16.9
		c-10.7-4.6-21.9-8.4-33.4-11c-2.9-0.6-5.7-1.3-8.7-1.9c-2.9-0.5-5.8-1-8.8-1.4c-2.9-0.3-5.9-0.7-8.8-1l-8.9-0.7v-0.4
		c23.8,0,47.6,4.6,69.7,13.6c22.1,9,42.3,22.4,59.3,39.1c16.9,16.8,30.5,36.9,39.7,58.9c9.2,22,13.9,45.8,13.9,69.6L1691.7,598
		L1691.7,598z"/>
</g>
</svg>
