<?xml version="1.0" encoding="utf-8"?>
<!-- Generator: Adobe Illustrator 21.0.2, SVG Export Plug-In . SVG Version: 6.00 Build 0)  -->
<svg version="1.1" id="Layer_1" xmlns="http://www.w3.org/2000/svg" xmlns:xlink="http://www.w3.org/1999/xlink" x="0px" y="0px"
	 viewBox="0 0 2000 2000" enable-background="new 0 0 2000 2000" xml:space="preserve">
<g>
	<g id="_x32_6_x5F_Props_x5F_Beachball_x5F_Beachball">
		<path fill="#FFDB93" d="M1835,806.6c0,147.3-118.7,266.7-265.2,266.7c-99.8,0-185.3-54-230.6-134.3c-22.1-39-34.6-84.2-34.6-132.5
			c0-147.3,118.7-266.7,265.2-266.7c95.8,0,179.7,51.1,226.3,127.6C1820.8,708,1835,755.6,1835,806.6z"/>
		<path fill="none" d="M1643.6,979.7c2.7-32.7,4.5-58.9,5.4-72.9c-0.9,0.1-1.8,0.1-2.7,0.1c-11.4,0-23.7-5.2-33.2-13.7
			c-3.8,3.8-8.3,7.6-13.7,11.5c-33.3,24.3-124.8,76.9-219,74.9c44.5,36.3,99.2,59.8,158.3,59.8c35.2,0,70.9-9.5,104.2-27.1
			C1642.5,1001.9,1642.7,990.9,1643.6,979.7z"/>
		<path fill="#B59F72" d="M1538.6,1039.4c-59.1,0-113.8-23.5-158.3-59.8c-4.5-0.1-9-0.3-13.6-0.7c0.1,0.1,0.2,0.3,0.3,0.4
			c2.8,3.3,5.7,6.6,8.7,9.8c0.2,0.2,0.4,0.5,0.6,0.7c1.5,1.6,2.9,3.1,4.4,4.6c0.2,0.2,0.3,0.3,0.5,0.5c1.5,1.5,3,3,4.5,4.5
			c0.1,0.1,0.1,0.1,0.2,0.2c1.6,1.5,3.1,3,4.7,4.4c0.2,0.2,0.5,0.5,0.7,0.7c1.6,1.4,3.2,2.9,4.8,4.3c0.1,0.1,0.3,0.2,0.4,0.4
			c1.6,1.4,3.2,2.7,4.8,4c0.2,0.1,0.3,0.3,0.5,0.4c1.6,1.3,3.3,2.7,5,4c0.3,0.2,0.6,0.4,0.9,0.7c1.7,1.3,3.4,2.6,5.1,3.9
			c0.1,0.1,0.2,0.2,0.4,0.3c1.7,1.2,3.3,2.4,5,3.6c0.2,0.2,0.5,0.3,0.7,0.5c1.7,1.2,3.4,2.4,5.2,3.5c0.3,0.2,0.7,0.4,1,0.6
			c1.8,1.2,3.6,2.3,5.4,3.4c0.1,0.1,0.2,0.1,0.3,0.2c1.7,1.1,3.5,2.1,5.3,3.2c0.3,0.2,0.7,0.4,1,0.6c1.8,1,3.6,2,5.4,3
			c0.4,0.2,0.7,0.4,1.1,0.6c1.8,1,3.7,2,5.6,2.9c0.1,0,0.1,0.1,0.2,0.1c1.9,0.9,3.7,1.9,5.6,2.8c0.4,0.2,0.8,0.4,1.2,0.6
			c1.8,0.9,3.7,1.7,5.5,2.5c0.4,0.2,0.8,0.4,1.2,0.5c1.8,0.8,3.6,1.5,5.3,2.3c0.2,0.1,0.4,0.2,0.6,0.3c1.9,0.8,3.8,1.5,5.8,2.3
			c0.5,0.2,1,0.4,1.4,0.5c1.9,0.7,3.8,1.4,5.7,2.1c0.4,0.2,0.9,0.3,1.3,0.4c1.7,0.6,3.5,1.2,5.2,1.7c0.4,0.1,0.7,0.2,1.1,0.3
			c1.9,0.6,3.9,1.2,5.8,1.8c0.5,0.2,1.1,0.3,1.6,0.5c1.9,0.5,3.9,1.1,5.9,1.6c0.4,0.1,0.9,0.2,1.3,0.3c1.7,0.4,3.5,0.9,5.2,1.3
			c0.5,0.1,0.9,0.2,1.4,0.3c2,0.4,4,0.9,5.9,1.3c0.6,0.1,1.2,0.2,1.8,0.3c2,0.4,4,0.8,6,1.1c0.4,0.1,0.9,0.1,1.3,0.2
			c1.8,0.3,3.6,0.6,5.3,0.8c0.5,0.1,1.1,0.2,1.6,0.2c2,0.3,4,0.5,6.1,0.8c0.6,0.1,1.2,0.1,1.8,0.2c2.1,0.2,4.1,0.4,6.2,0.6
			c0.4,0,0.7,0.1,1.1,0.1c1.9,0.2,3.7,0.3,5.6,0.4c0.6,0,1.2,0.1,1.8,0.1c2.1,0.1,4.1,0.2,6.2,0.3c0.6,0,1.2,0,1.8,0
			c2,0,4,0.1,6,0.1c0.2,0,0.4,0,0.6,0c2.1,0,4.2,0,6.3-0.1c0.4,0,0.9,0,1.3,0c1.7,0,3.5-0.1,5.2-0.2c0.4,0,0.9,0,1.3-0.1
			c4.1-0.2,8.2-0.5,12.3-0.9c0.5-0.1,1.1-0.1,1.6-0.2c1.5-0.2,3.1-0.3,4.6-0.5c0.5-0.1,1.1-0.1,1.6-0.2c2-0.3,3.9-0.5,5.9-0.8
			c0.4-0.1,0.8-0.1,1.2-0.2c1.6-0.2,3.1-0.5,4.7-0.8c0.7-0.1,1.4-0.3,2.1-0.4c1.3-0.2,2.6-0.5,3.9-0.7c0.7-0.1,1.4-0.3,2.1-0.4
			c1.8-0.4,3.6-0.8,5.4-1.2c0.7-0.2,1.4-0.3,2-0.5c1.2-0.3,2.4-0.6,3.6-0.9c0.8-0.2,1.7-0.4,2.5-0.6c1.1-0.3,2.2-0.6,3.2-0.9
			c0.8-0.2,1.6-0.4,2.4-0.7c1.6-0.5,3.3-1,4.9-1.5c-2-11.5-4.5-29.1-5.1-49.3C1609.5,1029.8,1573.8,1039.4,1538.6,1039.4z"/>
		<path fill="#B59F72" d="M1796.1,667.5c3.5,15.1,5.7,31.1,6.4,48.3c2.2,54.9-8,105.2-26.8,148.9c5.2-0.9,10.8-2.1,16.8-3.4
			c17.4-3.9,29.9-7.4,38.8-10.3v-0.1c1.1-6.7,2-13.6,2.6-20.5c0.1-0.6,0.1-1.2,0.2-1.9c0.1-1.2,0.2-2.4,0.3-3.5c0.1-1,0.1-2,0.2-2.9
			c0.1-1,0.1-2,0.2-3c0.1-1.3,0.1-2.5,0.1-3.8c0-0.8,0.1-1.6,0.1-2.3c0-2.1,0.1-4.2,0.1-6.3C1835,755.6,1820.8,708,1796.1,667.5z"/>
		<path fill="#F5C627" d="M1344.6,948.2c-0.6-0.9-1.1-1.8-1.7-2.8C1343.5,946.4,1344,947.3,1344.6,948.2z"/>
		<path fill="#F5C627" d="M1341.7,943.4c-0.6-1-1.2-2-1.7-3C1340.5,941.4,1341.1,942.4,1341.7,943.4z"/>
		<path fill="#F5C627" d="M1366.5,978.7c-1.2-1.4-2.4-2.9-3.5-4.3C1364.2,975.8,1365.3,977.2,1366.5,978.7z"/>
		<path fill="#F5C627" d="M1380.3,979.6c94.3,2,185.7-50.6,219-74.9c5.3-3.9,9.9-7.8,13.7-11.5c-9.9-8.7-16.8-20.9-16.8-34.4
			c0-4.9,0.7-9.5,2-13.8c-26.4-8-69.3-26.9-114.2-49.3c-47.3-23.7-109.7-67.8-145.3-120c-21.7,38.7-34.1,83.3-34.1,130.9
			c0,48.2,12.5,93.4,34.6,132.5l0,0C1351.6,953.8,1365.4,967.4,1380.3,979.6z"/>
		<path fill="#F5C627" d="M1348.3,954.1c-0.9-1.4-1.8-2.8-2.7-4.1C1346.5,951.4,1347.4,952.7,1348.3,954.1z"/>
		<path fill="#F5C627" d="M1351.5,958.8c-0.7-1-1.4-2-2.1-3.1C1350.1,956.7,1350.8,957.7,1351.5,958.8z"/>
		<path fill="#F5C627" d="M1355.5,964.5c-1-1.4-2-2.9-3-4.3C1353.5,961.7,1354.5,963.1,1355.5,964.5z"/>
		<path fill="#F5C627" d="M1362.7,973.9c-1-1.3-2.1-2.6-3.1-3.9C1360.6,971.3,1361.7,972.6,1362.7,973.9z"/>
		<path fill="#F5C627" d="M1358.8,968.9c-1-1.3-2-2.6-2.9-3.9C1356.8,966.3,1357.8,967.6,1358.8,968.9z"/>
		<path fill="#AE9027" d="M1339.2,939.1c0.3,0.4,0.5,0.9,0.8,1.3c0.6,1,1.2,2,1.7,3c0.4,0.7,0.8,1.4,1.2,2c0.6,0.9,1.1,1.8,1.7,2.8
			c0.4,0.6,0.7,1.2,1.1,1.8c0.9,1.4,1.8,2.8,2.7,4.1c0.3,0.5,0.7,1,1,1.6c0.7,1,1.4,2.1,2.1,3.1c0.3,0.5,0.7,1,1,1.5
			c1,1.4,2,2.9,3,4.3c0.1,0.2,0.2,0.3,0.4,0.5c1,1.3,1.9,2.6,2.9,3.9c0.3,0.4,0.5,0.7,0.8,1.1c1,1.3,2,2.6,3.1,3.9
			c0.1,0.1,0.2,0.3,0.3,0.4c1.2,1.5,2.4,2.9,3.5,4.3c0.1,0.1,0.1,0.2,0.2,0.3c4.5,0.4,9,0.6,13.6,0.7
			C1365.4,967.4,1351.6,953.8,1339.2,939.1z"/>
		<path fill="#D969D9" d="M1649,906.7c-0.9,14.1-2.7,40.2-5.4,72.9c-0.9,11.2-1.1,22.2-0.7,32.6c55.4-29.2,104.2-80.7,132.9-147.6
			c-34,6.1-51.9,3.5-81.2-1.1C1691.5,882.3,1671.4,905,1649,906.7z"/>
		<path fill="#9A4FA3" d="M1775.7,864.7c-28.7,66.9-77.5,118.4-132.9,147.6c0.6,20.2,3.1,37.8,5.1,49.3h0.1c0.7-0.2,1.5-0.5,2.2-0.7
			c1.1-0.3,2.2-0.7,3.2-1.1c0.8-0.3,1.6-0.5,2.4-0.8c1.1-0.4,2.3-0.8,3.4-1.2c1-0.4,2-0.7,3-1.1c1.2-0.5,2.5-0.9,3.7-1.4
			c0.8-0.3,1.6-0.6,2.4-1c1-0.4,2-0.8,3-1.2c0.8-0.3,1.5-0.6,2.3-1c1.5-0.7,3.1-1.3,4.6-2c0.8-0.3,1.5-0.7,2.3-1
			c1-0.4,1.9-0.9,2.8-1.3c0.8-0.4,1.6-0.8,2.4-1.2c1-0.5,2-1,3.1-1.5c1.1-0.6,2.2-1.1,3.3-1.7c1-0.5,2-1.1,3-1.6
			c0.8-0.4,1.6-0.9,2.4-1.3c0.9-0.5,1.7-1,2.6-1.5c0.8-0.4,1.5-0.9,2.3-1.3c1.4-0.8,2.8-1.6,4.2-2.5c0.8-0.5,1.5-1,2.3-1.4
			c0.8-0.5,1.6-1,2.4-1.5s1.6-1,2.4-1.5c0.8-0.6,1.7-1.1,2.5-1.7c1.2-0.8,2.4-1.6,3.7-2.5c0.8-0.5,1.6-1.1,2.3-1.6
			c0.8-0.6,1.6-1.1,2.4-1.7c0.7-0.5,1.4-1,2.1-1.5c0.9-0.7,1.8-1.3,2.6-2c1.1-0.9,2.3-1.7,3.4-2.6c0.8-0.6,1.6-1.3,2.4-1.9
			c0.6-0.5,1.2-1,1.9-1.5c0.8-0.7,1.6-1.3,2.4-2c0.6-0.5,1.2-1,1.8-1.5c1.4-1.2,2.8-2.4,4.1-3.6c0.5-0.5,1.1-1,1.6-1.5
			c0.8-0.7,1.6-1.5,2.4-2.2c0.5-0.5,1-1,1.5-1.4c1.7-1.6,3.3-3.1,4.9-4.7c0.2-0.2,0.4-0.4,0.7-0.7c0.8-0.8,1.6-1.6,2.4-2.5
			c0.4-0.5,0.9-0.9,1.3-1.4c0.8-0.8,1.6-1.7,2.4-2.5c0.3-0.3,0.6-0.6,0.9-1c1.6-1.7,3.1-3.4,4.6-5.1c0.3-0.4,0.7-0.8,1-1.2
			c0.8-0.9,1.6-1.8,2.4-2.8c0.3-0.4,0.6-0.8,1-1.1c2.6-3,5-6.2,7.5-9.3c0.3-0.4,0.6-0.7,0.8-1.1c2.5-3.3,4.9-6.6,7.2-10
			c0.2-0.3,0.3-0.5,0.5-0.8c0.8-1.1,1.5-2.2,2.3-3.4c0.1-0.2,0.3-0.5,0.4-0.7c2.3-3.5,4.6-7.1,6.7-10.8c0.1-0.2,0.3-0.5,0.4-0.7
			c2.2-3.7,4.3-7.5,6.3-11.4c0.1-0.1,0.1-0.2,0.2-0.4c0.7-1.3,1.3-2.6,2-3.9c0,0,0-0.1,0.1-0.1c2-4,3.9-8.1,5.7-12.2
			c0.1-0.1,0.1-0.3,0.2-0.4c1.8-4.1,3.5-8.3,5.1-12.6v-0.1c2.2-5.8,4.1-11.6,5.9-17.5c0-0.1,0-0.1,0-0.2c1.3-4.4,2.5-8.9,3.6-13.5
			l0,0c1.5-6.1,2.7-12.2,3.7-18.5c0,0,0,0,0-0.1c-8.9,2.9-21.3,6.4-38.8,10.3C1786.5,862.6,1780.9,863.7,1775.7,864.7z"/>
		<path fill="#33AF92" d="M1677.4,818c0.3,0.2,0.6,0.4,1,0.6c6.6-8.1,19.8-29.1,40.1-82.6c19.2-50.5,19.2-91.4,14.3-123.1
			c-1.1-0.7-2.2-1.4-3.3-2.1c-10.4-6.4-21.3-12.4-32.1-18.1c-11.8-6.2-23.4-12.6-35.7-17.6c-6.1-2.5-11.9-5.4-18.1-7.6
			c-6.4-2.2-12.8-5-19.2-6.9c-1.8-0.5-1-3.2,0.8-2.8c3.7,0.8,7.4,1,11,1.9s7.2,1.9,10.8,2.8c6.6,1.8,13.3,2.9,19.7,5
			c12.6,4.1,25.4,8,37.3,14c9.5,4.8,17.8,10.4,26.1,16.6c-0.4-1.7-0.7-3.3-1.1-4.9c-44.3-33.5-99.5-53.4-159.2-53.4
			c-43.3,0-84.1,10.4-120.2,28.9c58.8,28.4,138.5,110.7,184.9,241.3c3.6-0.9,7.4-1.4,11.2-1.4C1658.8,808.7,1669.7,811.4,1677.4,818
			z"/>
		<path fill="#FFECC4" d="M1745.4,621.5c4.8,3,8.7,8.1,14.1,9.9c1,0.3,2-0.7,1.7-1.7c-1.6-5.6-7.4-9.2-10.9-13.6
			c-4-5-8.8-8.9-13.8-12.9c-2.1-1.7-4.3-3.4-6.4-5c1,4.7,1.9,9.6,2.7,14.8C1737,615.7,1741,618.8,1745.4,621.5z"/>
		<path fill="#78DCC5" d="M1666.7,567.5c-6.5-2.1-13.2-3.3-19.7-5c-3.6-1-7.2-2-10.8-2.8c-3.6-0.9-7.4-1-11-1.9
			c-1.8-0.4-2.6,2.3-0.8,2.8c6.5,2,12.8,4.7,19.2,6.9c6.2,2.2,12,5.1,18.1,7.6c12.3,5,23.9,11.4,35.7,17.6
			c10.8,5.7,21.7,11.7,32.1,18.1c1.1,0.7,2.2,1.4,3.3,2.1c-0.8-5.2-1.7-10.1-2.7-14.8c-8.2-6.3-16.6-11.8-26.1-16.6
			C1692.1,575.4,1679.3,571.6,1666.7,567.5z"/>
		<path fill="#B59F72" d="M1613,893.2c9.6,8.5,21.8,13.7,33.2,13.7c0.9,0,1.8,0,2.7-0.1c22.5-1.7,42.5-24.4,45.6-43.2
			c0.3-1.6,0.4-3.2,0.4-4.8c0-20.2-6-32.9-16.6-40.1c-0.3-0.2-0.6-0.4-1-0.6c4.9,4.2,8.6,9.9,10.8,17.5c1.7,5.7,2.6,12.3,2.6,20.2
			c0,19.7-21.5,47-45.2,47c-21.4,0-46.3-21-46.3-47c0-12.4,4.2-22.8,10.9-30.7c-5.5,5.4-9.8,12.1-12.1,20c-1.3,4.3-2,8.9-2,13.8
			C1596.2,872.2,1603.1,884.4,1613,893.2z"/>
		<path fill="#FFDB93" d="M1599.3,855.7c0,26,24.9,47,46.3,47c23.7,0,45.2-27.3,45.2-47c0-7.8-0.9-14.5-2.6-20.2
			c-1.1,0.3-2.3,0-3-1.3c-4.9-9.5-11.8-14.9-22-18.4c-10.7-3.7-20.7-4.2-31.8-2.8c-1,0.1-1.5-0.8-1.4-1.6
			c-7.6,2.7-14.5,7.3-19.8,13.6C1603.6,832.9,1599.3,843.3,1599.3,855.7z"/>
		<path fill="#FFECC5" d="M1631.5,813c11.1-1.4,21.2-0.9,31.8,2.8c10.2,3.5,17.1,9,22,18.4c0.7,1.3,1.9,1.6,3,1.3
			c-2.2-7.6-5.9-13.3-10.8-17.5c-7.8-6.6-18.6-9.3-31.8-9.3c-3.8,0-7.5,0.5-11.2,1.4c-1.5,0.4-2.9,0.8-4.4,1.3
			C1630,812.2,1630.4,813.1,1631.5,813z"/>
	</g>
	<g id="_x32_6_x5F_Props_x5F_Beachball_x5F_Tentical">
		<path fill="#282828" d="M1377.9,991.3c0,0,34.8,37,69.5,49.2s75.1,9,108.3-17.4c33.2-26.4,60.7-52.3,92.2-61.2s39.7,0.9,44.8,8.9
			c5.1,7.9,4.4,18.2-6,32.1c0,0,8.9,21.2,2.3,41.8c-6.5,20.6-22.8,60.5-49.2,79.4s-61.8,46.9-127.6,16.4l-5.7,7.9
			c0,0-45.5-0.4-95.3-35.2c-48.8-34.2-53.1-34.7-53.1-34.7s0.4-1.6,0.6-4.3c0.4-4.4,1.2-8.4,2.5-15
			C1363.4,1048.1,1377.9,991.3,1377.9,991.3z"/>
	</g>
	<g id="_x32_6_x5F_Props_x5F_Beachball_x5F_Shadow">
		<path opacity="0.3" fill="#091426" enable-background="new    " d="M1692.7,970.9c5.1,19.9-18.5,31.8-28.5,32.7
			c-11.6,1.1-17.5-3.4-18.5-1.9s-1.9,4.7,6.9,5.5s15.9,0.4,15.9,0.4c13.5,21.9,2.7,62.6-21,84.8s-79.3,40.9-135.7,27.4
			c-34.1-8.1-58.2-30.5-58.2-30.5s-6.7,18.2-14.6,40.8c37.4,18.7,67.5,18.2,67.5,18.2l5.7-7.9c65.7,30.5,101.1,2.5,127.6-16.4
			c26.4-18.9,42.7-58.8,49.2-79.4s-2.3-41.8-2.3-41.8C1697.1,989,1697.8,978.8,1692.7,970.9z"/>
	</g>
</g>
</svg>
