<?xml version="1.0" encoding="utf-8"?>
<!-- Generator: Adobe Illustrator 23.0.1, SVG Export Plug-In . SVG Version: 6.00 Build 0)  -->
<svg version="1.1" id="_x33_3_x5F_Props_x5F_DonerKebap_1_"
	 xmlns="http://www.w3.org/2000/svg" xmlns:xlink="http://www.w3.org/1999/xlink" x="0px" y="0px" viewBox="0 0 2000 2000"
	 enable-background="new 0 0 2000 2000" xml:space="preserve">
<g>
	<g>
		<path fill="#E2E8FF" d="M1396.1,1122.8c-25.4,6.8-47.4,16-56.5,26.1c-6.4,7.1-10.1,11.1-12.8,13.3c-3.3,2.8-4.9,2.8-7.4,2.3
			c-4.7-0.8-4.9-11.3-6.6-30.4c-1.4-15.2-0.6-32.4,4.2-47.6c0.3-0.9,0.6-1.9,1-2.8c19.8,8.6,16.5,7.9,30.1,12.9
			C1360.3,1101.1,1384.1,1115.4,1396.1,1122.8z"/>
		<g>
			<path fill="#E2E8FF" d="M1746.7,1011.4c-0.3,10.4,0.1,13.8-1.7,15.9c0,0-0.1,0.1-0.1,0.1c-1.9,2.1-8,7.4-8,7.4s-11.2-3.6-12.8,0
				c-1.7,3.6-1.1,11.3-14.6,18.3c-0.4,0.2-0.9,0.5-1.4,0.7c-4.4,2.2-10.3,4.9-17.9,7.8c-16.1,6.2-40.2,13.6-76,21.5
				c-1.3,0.3-2.7,0.6-4.1,0.9c-17.9,3.8-37.1,7.6-56.3,11.1c-15.2,2.8-30.4,5.4-45,7.8c-25.7,4.3-49.4,7.9-67.6,10.5
				c0,0-0.1,0-0.1,0l1.2-1l-84.6-74.1l-3.3-3.7c4.7-3.2,10.1-6.4,16.6-9.8l181.6-249.7c0.9-1,7.8-9.2,15.3-12.4
				c7.5-3.2,9.3-3.5,16.8-7.8c7.5-4.2,7.6-9.6,16.2-15.7s16.3-9.8,25.5-17.5s17.4,0.5,23.9,8.2c6.5,7.8,8.4,15.2,16.2,27.2
				c7.8,12.1,15.5,49.2,20.8,64c5.3,14.8,9.7,15.8,18.2,36.8c8.4,20.9,16.8,64.5,17.7,72.3c0.9,7.8-0.2,9.2-4.7,14
				c-3.9,4.1-4.9,7.6-3.6,10.6c0.2,0.5,0.4,0.9,0.8,1.3c2.3,3.3,8.8,2,19,13.7c2.4,2.7,4.4,5.9,5.9,9.2c2.5,5.3,4.1,11.2,5,16.7
				C1746.6,1001.8,1746.9,1007.2,1746.7,1011.4z"/>
			<path fill="#ADB9BF" d="M1712.1,991.5c-11.6-1.4-15.4-4.1-24.6-2.6c-6.2,1-18.8,24.6-26.5,40.1c1.2-0.1,2.3-0.2,3.5-0.2
				c28.6-0.6,41.5,9.3,43.7,25.1c0.5-0.2,0.9-0.5,1.4-0.7c13.5-7.1,12.9-14.8,14.6-18.3c1.7-3.6,12.8,0,12.8,0s6.1-5.3,8-7.4
				s1.4-5.4,1.8-16c0.1-4.2-0.1-9.6-1-15.3c-5.4-3-7.4-4.5-15.5-4.5C1716.8,991.4,1723.6,992.9,1712.1,991.5z"/>
			<path fill="#ADB9BF" d="M1502,1066.3l6.9,36.7c32.9-5.5,69.1-12,101.3-18.9c1.4-0.3,2.7-0.6,4.1-0.9l-3.1-11.3
				c0,0,3.6-8.7,10.9-18.3c-8.6-6.2-18-13.2-18-13.2L1502,1066.3z"/>
			<g>
				<g>
					<path fill="#ADB9BF" d="M1613.1,1081.1C1613.2,1081.1,1613.2,1081,1613.1,1081.1C1613,1080.9,1613,1081.1,1613.1,1081.1
						L1613.1,1081.1z"/>
				</g>
			</g>
		</g>
		<path fill="#ADB9BF" d="M1357.9,1038.4l-3.3-3.7c-0.2,0.1-0.3,0.2-0.5,0.3L1357.9,1038.4z"/>
		<path fill="#ADB9BF" d="M1442.5,1112.5l-1.2,1c-4.3,0.6-8.7,1.4-13.1,2.2c-9.2,1.7-18.5,3.6-27.4,5.9c-1.6,0.4-3.1,0.8-4.7,1.2
			c-12-7.4-35.8-21.7-48.1-26.2c-13.6-5-10.3-4.3-30.1-12.9c1.1-2.9,2.3-5.8,3.7-8.5c5-9.7,8.8-18.4,17.3-27.4
			c3.9-4.2,8.8-8.4,15.3-12.8l3.8,3.3L1442.5,1112.5z"/>
		<g>
			<path opacity="0.3" fill="#05132B" enable-background="new    " d="M1442.5,1112.5l-1.2,1c-4.3,0.6-8.7,1.4-13.1,2.2
				c-9.2,1.7-18.5,3.6-27.4,5.9c-1.8-0.6-3.6-1.3-5.4-2c-14.4-5.5-36.2-17.6-45.8-29.8c-8.1-10.3-11.8-27.7-10.8-41.9
				c3.9-4.2,8.8-8.4,15.3-12.8l3.8,3.3L1442.5,1112.5z"/>
			<path opacity="0.3" fill="#05132B" enable-background="new    " d="M1321.4,1112.5c0.3-14.6-1.4-22.2-4.5-26
				c-4.9,15.2-5.7,32.4-4.2,47.6c1.8,19.2,2,29.6,6.6,30.4c2.6,0.4,4.1,0.5,7.4-2.3C1324.8,1150.5,1321.1,1127,1321.4,1112.5z"/>
		</g>
		<g>
			<path fill="#FC9779" d="M1670,856.6c0,0,0,0.1,0,0.2c0,0,0,0,0,0.1C1670,856.8,1670,856.7,1670,856.6
				C1670,856.6,1670,856.6,1670,856.6L1670,856.6z"/>
			<path fill="#FC9779" d="M1670,856.9C1670,856.8,1670,856.8,1670,856.9C1670,856.8,1670,856.8,1670,856.9
				C1670,856.9,1670,856.9,1670,856.9z"/>
			<path fill="#FC9779" d="M1571.5,779.1c-0.1,0-1.9,0.2-1.4,0.4c-0.6-0.2-1.2-2.8-1.4-3.5c-0.5-1.4-1.1-3.4-2.2-4.4
				c-2.9-2.5-5.5,2.1-7.9,2.6c-1,0.2-0.6,1.7,0.4,1.5c0.1,0,0.2,0,0.3-0.1c0,0,0,0,0,0c0,0.1,0.1,0.2,0.1,0.3
				c0.3,0.9,1.2,1.5,2.2,1.2c0.1,0,0.2,0,0.3-0.1c0.4-0.1,0.7-0.3,0.8-0.6c0.3-0.1,0.8-0.2,0.9-0.2c1.4,0.2,1.2,0.8,1.6,1.9
				c0.4,1.3,1,2.5,1.8,3.6c1.8,2.4,3.1,1,5.2-0.5C1573.2,780.8,1572.7,779.3,1571.5,779.1z"/>
			<path fill="#FC9779" d="M1593,794.7c-3-2.2-6.3-4.3-9.8-5.6c-2-0.8-3.6-0.7-4.8,0.4c-1.6,0.5-2.4,2.2-2.6,3.7c0,0.1,0,0.2,0,0.3
				c-0.3,2.7,2.1,3.9,4.3,3.6c1.3,0.3,3.5,2.4,4.3,3c0.6,0.5,1.2,1,1.8,1.5c0.4,0.3,0.8,0.6,1.2,1c0.4,0.4,0.3,0.3-0.3-0.2
				c-0.5,2.3,1.6,5.3,4.2,4.2c2.4-1,5.6-2.6,6.4-5.3C1598.7,798.2,1595.1,796.2,1593,794.7z"/>
			<path fill="#FC9779" d="M1622.3,828.9c1.5-1.1,1.9-2.9,0.7-4.4c0.1-0.1,0.1-0.2,0.2-0.2c0.2-0.3,0.3-0.6,0.4-1
				c0.1-0.2,0.1-0.4,0.1-0.6c0-0.2-0.2-0.5-0.2-0.7c0-0.2-0.3-0.4-0.4-0.3c-0.1,0.1-0.3,0-0.4,0c-0.2,0-0.3,0.1-0.4,0.2
				c-0.3,0.1-0.6,0.3-0.8,0.4c-0.1,0-0.1,0-0.1,0.1c-1.7-2-3.4-3.9-5.1-5.9c-1.5-1.7-2.7-3.5-5-3.9c-4.6-0.8-9.9,1.9-12,6
				c-0.4,0.8-0.2,1.6,0.3,2c-0.2,0.8-0.1,1.8,0.4,2.5c1.3,2.1,3,3.2,5.1,4.3c2.8,1.5,3.6,3.3,5.5,5.6c1.4,1.7,3.5,2.8,5.7,2
				C1618.8,834.1,1620,830.6,1622.3,828.9z"/>
			<path fill="#FC9779" d="M1659.7,844.9c3.4-0.8,7.1-4.4,5.9-8.1c-0.5-1.4-1.6-2.5-3-3c-0.1-0.1-0.3-0.2-0.5-0.3c0,0,0,0,0,0
				c-1.3-1-3.5-0.4-4.9,0.2c-1.4,0.7-2.6,2.2-3.3,3.6c-0.9,2-1,4.4,0.6,6.1C1655.8,844.9,1657.8,845.4,1659.7,844.9z"/>
			<path fill="#FC9779" d="M1663.5,855.3c-1,3.5,1.3,7.1,5,7.2c3.2,0.1,5.6-2.7,6.1-5.7c0.4-2.2,0-4.5-2.4-5.3
				c-0.4-0.1-0.8-0.2-1.3-0.2c-0.2-0.1-0.4-0.2-0.7-0.3C1667.2,850.2,1664.4,852.4,1663.5,855.3z M1670,856.9
				C1670,856.8,1670,856.8,1670,856.9C1670,856.8,1670,856.8,1670,856.9C1670,856.9,1670,856.9,1670,856.9z M1670,856.9
				C1670,856.8,1670,856.8,1670,856.9c0-0.1,0-0.2,0-0.2l0,0l0,0C1670,856.7,1670,856.8,1670,856.9z"/>
			<path fill="#FC9779" d="M1697,906.1c-1.1-2.2-2.8-4.7-4.9-6.8c-3.4-4.1-7.9-7.5-11.6-9.3c-4.9-2.4-10.8-4.1-16.2-4.8
				c-3.6-0.5-6.3,0.1-8.8,1.1c2.7-3.8,4.8-7.8,5.2-12.8c0.5-6.3-0.7-12.7-4.8-17.7c-8.4-10.4-21.9-10.5-33.8-7.7
				c-3.2,0.8-2.1,5,0.7,5.3c-0.2,1.2,0.1,2.4,1,3.4c4.7,5.2,9.1,10.3,13,16.2c3.3,5.1,8.6,8.9,10.1,14.8c0.2,0.8,0.8,1.5,1.5,2
				c-0.1,0-0.2,0.1-0.2,0.1c-2.6,1.3-1.3,4.9,1.1,5.3c-0.8,1.5-0.3,3.1,0.8,4.2c1.1,2.5,3.1,4.8,5.3,5.8c4.9,2.3,9.6-1.5,14.6-1.5
				c3.4,0,5.1,1.6,7.2,4c1,1.1,2.6,2.5,3.3,3.8c1.2,2.4-0.3,2.6-1.9,4c-4.4,3.7-8,7.8-10.7,12.9c-1.3,2.5,2,5.4,4.1,3.2
				c1.1-1.2,2.2-2.3,3.3-3.3c-1.9,2.5-3.9,5-5.8,7.4c-2.5,3.2,1.8,7.7,4.5,4.5c4.3-5.2,8.8-10.2,13.1-15.4c2.4-2.9,5.4-6.1,7.3-9.6
				c0.4,0.1,0.7,0.2,1.1,0.2c1,0,2.1-0.7,2.6-1.5C1699.7,911.7,1698.1,908.2,1697,906.1z"/>
		</g>
		<path opacity="0.3" fill="#05132B" enable-background="new    " d="M1614.3,1083.2c35.8-7.8,59.9-15.3,76-21.5
			c7.7-2.9,13.5-5.6,17.9-7.8c0.5-0.2,0.9-0.5,1.4-0.7c13.5-7.1,12.9-14.8,14.6-18.3c1.7-3.6,12.8,0,12.8,0s6.1-5.3,8-7.4
			c0,0,0.1-0.1,0.1-0.1c-2.5-0.9-5.1-1.7-7.8-2.4c-8.4-2.1-17-3.9-25.5-5.8c0.9-9.9-0.6-19.6-4.3-28.8c9.8-6.1,22.8-6.2,33.2-10.9
			c-1.6-3.3-3.5-6.5-5.9-9.2c-10.3-11.7-16.7-10.4-19-13.7c-0.3-0.4-0.6-0.9-0.8-1.3c-1.8,0.1-3.5,0.3-5.1,0.3
			c-4.4,0.2-10.7,1.2-14.1-2.2l0,0c-1-1.4-1.8-3.2-2.4-5c-0.8-3.4-0.8-7.3-1.1-10.2c-0.7-5.1-1.3-10.2-2-15.4
			c-0.6-4.8-1-10.2-1.9-15.5c-0.2-5.5-2-10.7-4.8-15.5c-0.1-0.4-0.3-0.7-0.5-0.8c-5.9-9.5-15.8-17.2-25.5-21.9
			c-5.9-2.9-11.6-4.4-15.7-9.9c-3.4-4.5-6.9-8.8-10.7-12.9c-8.1-8.7-17.2-16.3-27.1-22.9c-0.9-0.6-2.1-0.2-2.6,0.7
			c-4.2,6.9-2.8,15-3.3,22.7c-0.8,10-3.4,19.8-5.2,29.7c-3.2,18.1-4.3,36.5-6.3,54.8c-2,18.7-5.1,37.4-11.9,54.9
			c-6.8,17.6-16.8,33.7-24.6,50.8c-6,13.2-14.1,30.6-8.1,45.2c2.4,5.9,6.8,10.1,12,13.1c19.2-3.5,38.3-7.2,56.3-11.1
			C1611.6,1083.8,1612.9,1083.5,1614.3,1083.2z"/>
		<path fill="#5C5856" d="M1708.2,1053.9c-4.4,2.2-10.3,4.9-17.9,7.8c-16.1,6.2-40.2,13.6-76,21.5l-3.1-11.3
			c0,0,16.4-39.6,49.8-42.9c1.2-0.1,2.3-0.2,3.5-0.2C1693.1,1028.3,1705.9,1038.2,1708.2,1053.9z"/>
	</g>
	<g>
		<path fill="none" d="M1653.1,914.3L1653.1,914.3c0,0-7.3-7.2-9.6-16.6c-0.9-3.5-0.7-5.7,0.1-6.8c-0.8,1.1-1,3.3-0.1,6.8
			C1645.8,907.1,1653.1,914.3,1653.1,914.3z"/>
		<path fill="none" d="M1646.4,923.3c0.3-2.1,0.9-3.8,1.5-5C1647.3,919.6,1646.7,921.2,1646.4,923.3z"/>
		<path fill="none" d="M1652.7,896.9c0.4,0.6,0.7,1.2,1.1,1.8C1653.4,898.1,1653.1,897.5,1652.7,896.9z"/>
		<polygon fill="none" points="1552.5,1076.4 1553.1,1078.3 1552.5,1076.4 1623.2,972.2 		"/>
		<polygon fill="none" points="1655.6,897.5 1657,904.6 1657,904.6 		"/>
		<path fill="#FFE690" d="M1689,961.7c-2-8.8-5.2-17.3-9.1-25.7c-2.4-5.2-5.2-10.3-8-15.3c-2.8-4.9-5.7-9.8-8.7-14.6
			c-2-1.8-3.5-3.5-4.7-4.8c1.2,1.4,2.7,3,4.7,4.8c-3.6-5.8-7.3-11.7-10.9-17.5c-14.6-24-26.1-46.3-50.6-74.4
			c-16.1-18.5-27.6-30.8-38.9-39.4c-5.8-4.5-11.6-8-17.9-10.8c-8.9-4-17.4-7.1-26.2-8.8c-9.6-1.8-19.5-1.8-30.6,0.8
			c-13.2,3-22.9,8.8-30,15.4c-4.4,4.1-7.8,8.5-10.3,12.7c-6.7,11.1-7.5,13.6-12.6,22.1c-1.8,3-3.3,5.9-4.3,8.8
			c-1.8,5.2-2.2,10.7-0.1,17.8c0,0-6.3,10.7-5.4,23.7c0.6,8.7,4.4,19.5,7,25.8c1.3,3.2,2.2,5.2,2.2,5.2l-1.4,3.3l-11.9,28
			c0,0-15.4,10.9-15.7,11.2c-0.2,0.3,23.5,17.3,23.5,17.3l125.5,135.1l0,0l10.2,10.9c1.1-0.2,2.2-0.5,3.3-0.7
			c30.8-6.9,69.6-20.4,91.3-36.5c22.5-16.6,21-21.8,25.9-34.9c3.3-9,6.7-21.5,6.6-36.8C1691.6,977.2,1690.8,969.7,1689,961.7z
			 M1643.6,890.9c-0.8,1.1-1,3.3-0.1,6.8c2.4,9.4,9.6,16.6,9.6,16.6l0,0c-0.1,0-7.3-7.3-9.6-16.6
			C1642.6,894.2,1642.8,892,1643.6,890.9z M1652.7,896.9c0.4,0.6,0.7,1.2,1.1,1.8C1653.4,898.1,1653.1,897.5,1652.7,896.9z
			 M1647.9,918.3c-0.6,1.2-1.2,2.9-1.5,5C1646.7,921.2,1647.3,919.6,1647.9,918.3z M1552.5,1076.4l0.6,1.8L1552.5,1076.4l70.7-104.2
			L1552.5,1076.4z M1657,904.6l-1.3-7l0,0L1657,904.6C1657,904.6,1657,904.6,1657,904.6z"/>
	</g>
	<path fill="#EABE2F" d="M1437,820.5c5.2,2.8,38.8-34,40.3-38.1c1.4-3.8-2.8-16-19.4-11.1c-4.4,4.1-7.8,8.5-10.3,12.7
		c-6.7,11.1-7.5,13.6-12.6,22.1c-1.8,3-3.3,5.9-4.3,8.8C1432,817.3,1434.3,819,1437,820.5z"/>
	<path fill="#EABE2F" d="M1536.3,787.8c4.5,1.1,6.5,0,10-1.6s2.8,0.4,12.4-2.5c5.6-1.7,6.1-4.5,4.1-9c-5.8-4.5-11.6-8-17.9-10.8
		c-8.9-4-17.4-7.1-26.2-8.8c-2.9,4-6.2,9-6.5,11.9C1511.5,772.1,1518.2,783.4,1536.3,787.8z"/>
	<path fill="#EABE2F" d="M1620.8,874c1.4-7.1-3.4-9.2-10.8-22.9c-7.4-13.8-12.8-27.7-16.3-33.7c-3.5-6-9.4-2.4-9.4-2.4
		s-5.3-6-15.5-9.4c-10.2-3.5-13.2,9.4-13.2,9.4s-8-10.3-10.5-13.5c-2.5-3.1-9.3-2.4-14.1,6.4l30.9,71.5
		C1561.9,879.4,1619.4,881.2,1620.8,874z"/>
	<path fill="#EABE2F" d="M1624.5,923.5c8.2,15.8,22.5-1,18.2-12.3c-4.3-11.3-11.9-16.5-24.1-14.6
		C1618.6,896.6,1616.4,907.7,1624.5,923.5z"/>
	<path fill="#EABE2F" d="M1691.7,984.1c0.2,15.3-3.2,27.8-6.6,36.8c-4.9,13.1-3.4,18.3-25.9,34.9c-21.7,16.1-60.5,29.6-91.3,36.5
		c-1.1,0.2-2.2,0.5-3.3,0.7l-10.2-10.9l-1.9-5.7l94.1-138.6c-3.2-24,6.5-23.5,6.5-23.5s-7.3-7.2-9.6-16.6c-2.4-9.4,3-9.2,6.4-4.9
		c3.4,4.4,7.1,11.8,7.1,11.8l-1.3-7c0,0,2.3,3.8,7.4,8.5c3,4.9,5.9,9.7,8.7,14.6c2.9,5.1,5.6,10.2,8,15.3c3.9,8.3,7.1,16.8,9.1,25.7
		C1690.8,969.7,1691.6,977.2,1691.7,984.1z"/>
	<path fill="#FEB04B" d="M1432.7,851.7c4.7-4.8,15.9-1.8,18,17.6c0,0,0.1,1.4,2.4-0.4s8.6-2.8,14,3.4c5.4,6.2,12.3,19.2,12.3,19.2
		s1.2,9.5-6,11.7c-7.2,2.3-15.8-8.7-23.8-19.8s-12.5-12-15.8-20.2C1430.3,855.1,1432.7,851.7,1432.7,851.7z"/>
	<g>
		<path fill="#E55930" d="M1549.7,813.8c-1.3,0.1-3,0.1-5,0c-12.9-0.6-14.5-0.5-20.3-8s-6.8-10.9-10.5-14c-3.7-3.1-4.6-4.1-8.8-3.8
			c-4.2,0.3-5.7,3.6-14,3.5c-8.3-0.1-4.8,0.2-8.2-1c-3.3-1.2-2.7-1.2-10.9,5.4c-8.2,6.6-14,9.4-22.3,20
			c-8.3,10.5-9.4,11.5-10.6,19.7c-1.2,8.1,0,8-1.7,11.7c-1.7,3.7-5.4,5.3-4.1,10.3c0.4,1.7,0.9,3.2,1.5,4.6
			c0.5,3.9,1.2,9.2,2.4,15.3c-3.4-7.2-5.4-12.3-6.9-22.1c-2.5-16.2,0.3-22.5,0.3-22.5s1.9-12.4,13.9-24.8
			c11.7-12,15.7-12.9,24.4-20.6c0.3-0.3,0.6-0.5,0.9-0.8c9.4-8.5,18.6-10.1,24.7-9.9c5.8,0.2,16.7,11.1,17.4,11.9c0,0,0,0,0,0
			c0,0,2.8-5,8.4-1.2c5.6,3.8,7.2,8.8,7.2,8.8s2-2.4,5.5,2c3.5,4.4,0,8.5,0,8.5s0,0,0,0C1533.3,806.7,1542.1,808.3,1549.7,813.8z"/>
		<path fill="#842A10" d="M1444.6,807.8c-12.1,12.4-13.9,24.8-13.9,24.8s-2.8,6.3-0.3,22.5c1.5,9.8,3.5,14.9,6.9,22.1
			c-1.2-6.1-1.9-11.4-2.4-15.3c0.7,1.9,1.5,3.5,2.3,5.1c-0.8-1.5-1.6-3.2-2.3-5.1c-0.6-1.4-1.1-3-1.5-4.6c-1.3-5,2.5-6.6,4.1-10.3
			c1.7-3.7,0.5-3.5,1.7-11.7c1.2-8.1,2.3-9.1,10.6-19.7c8.3-10.5,14.1-13.4,22.3-20c8.2-6.6,7.6-6.6,10.9-5.4c3.3,1.2-0.1,0.9,8.2,1
			c8.3,0.1,9.8-3.2,14-3.5c4.2-0.3,5,0.8,8.8,3.8c3.7,3.1,4.7,6.5,10.5,14c5.8,7.5,7.4,7.4,20.3,8c2,0.1,3.7,0.1,5,0
			c-7.6-5.4-16.4-7.1-16.6-7.1h0c0,0-0.9,0.7-5.2-2.1s-9.3-10.5-15.8-16.1l0,0l0,0c0,0,0,0,0,0c-6.5-5.6-9.5-6.9-21.3-7.1
			c-11.8-0.2-15.6,5.2-15.6,5.2s-2.1-0.2-6.1,0.7C1460.2,794.9,1456.2,795.8,1444.6,807.8z"/>
		<g>
			<path fill="none" d="M1642,924.2c0.8,0.9,1.6,1.8,2.5,2.8c1,1.2,2.1,2.6,3.3,4c-1.2-1.4-2.3-2.8-3.3-4
				C1643.6,926,1642.8,925.1,1642,924.2z"/>
			<path fill="none" d="M1601,865.5c1.8,1.4,3.1,2.7,7.4,10.3c5.5,9.8,8.9,15.9,13.8,23.3c-4.9-7.3-8.2-13.4-13.8-23.3
				C1604.2,868.3,1602.8,866.9,1601,865.5z"/>
			<path fill="#E55930" d="M1601,865.5c1.8,1.4,3.1,2.7,7.4,10.3c5.5,9.8,8.9,15.9,13.8,23.3c1.8,2.6,3.7,5.4,6,8.6
				c7,9.7,10.5,12.9,13.8,16.4c0.8,0.9,1.6,1.8,2.5,2.8c1,1.2,2.1,2.6,3.3,4c3.8,4.6,7.9,9.5,7.9,9.5c-2.2-10.3-8.3-25.9-15.5-31.9
				s-6.3,2.9-6.3,2.9s-11.7-15.7-5.6-11.6c6.1,4.1,2.1-3.8-1.5-13.6c-3.6-9.8-10.3-20.8-15.2-25.5s-13.8-1.9-13.8-1.9
				s-21.8-29.5-24.7-31.7c-2.9-2.1-3.9,1.2-3.9,1.2s-11.5-8.8-19.2-14.5c-0.1-0.1-0.2-0.1-0.2-0.2c-1,0.1-2.1,0.1-3.4,0
				c5.1,3.4,6.5,4.6,6.5,4.6s7.1,5,16.1,13.5c4.9,4.6,10,9.9,14.9,15.2c4.1,4.5,8,8.9,11.3,12.8
				C1598.2,863.5,1599.7,864.5,1601,865.5z"/>
			<g>
				<path fill="none" d="M1611.2,963.6c-2.7-2.2-6.9-5.1-13.4-9.9C1606,972.6,1610.1,966.1,1611.2,963.6z"/>
				<path fill="#FFE9D6" d="M1664.5,1000l3.9,2.6c0-0.1,0.1-0.2,0.2-0.5c-0.1,0.3-0.2,0.5-0.2,0.5l0,0c0,0,0.4-1.1,1.2-2.8
					c-0.5,0.9-0.8,1.7-1,2.2c0.6-1.5,2-5.9,3.1-11.4c-2.4,1.3-4.6,2.5-6.5,3.6C1664.9,997.5,1664.5,1000,1664.5,1000z"/>
				<path fill="#FEB04B" d="M1663.2,979.6c-1.5-6.2-0.6-8.2-3.8-15.9s-4.8-15.2-4.8-15.2s-8.4-15.2-13.7-14.5s-4.4,7.8,7.5,24.3
					s13.4,17,13.4,17l-8,6.9c0,0-0.4-0.8-3.2-2.7s-3.6,0.9-3.6,0.9l-6.7,0.7c0,0-0.2-1.8-5.8-3.2c-5.6-1.4-7.3,6.3-7.3,6.3
					l-11.1-2.5c0,0,1.2-5.8-0.1-11c-0.7-2.7-1.9-4.4-5-7c-1.1,2.5-5.2,9.1-13.4-9.9c-0.2-0.2-0.5-0.3-0.7-0.5l-2.5,22.9l0,0.5
					l5.7,1.9c0,0,3.3,6.5,27.9,17.1c20.3,8.7,23,6.8,37-1.2c0.1-1.5,0.2-3.2,0.2-4.8C1665.4,984.3,1664.8,985.8,1663.2,979.6z"/>
				<path fill="#FEB04B" d="M1597,953.1c0.2,0.2,0.5,0.3,0.7,0.5c-0.4-1-0.9-2-1.3-3.1c-10.8-26.8-24.8-29.8-35.4-30.3
					c-10.6-0.5-17.4,8-17.4,8s1.2-3.8,1-5.3c-1.7-9.6-7.9-19-23.3-32.8l-6.2,60.5l79.6,26.1l0-0.5L1597,953.1z"/>
				<path fill="#FEB04B" d="M1672.7,976.7c-1-12.3-4.4-16.1-9.7-25.3c-5.3-9.2-7.3-11-7.3-11l0,0l0,0c0,0-4.1-4.9-7.9-9.5
					c-1.2-1.4-2.3-2.8-3.3-4c-0.8-1-1.6-1.9-2.5-2.8c-1-1.1-2.1-2.2-3.3-3.5c-3,1.9-6,4.4-7.5,7.3c-3.3,6.6,0,24.3,0,24.3
					c-3.2-2.5-7-0.9-7-0.9c-2.3-8.5-16.8-13.9-18.3-3.5c-1.6,10.4,5.6,14.8,5.6,14.8s-0.1,0.3-0.3,0.8c3.2,2.6,4.3,4.3,5,7
					c1.3,5.1,0.1,11,0.1,11l11.1,2.5c0,0,1.7-7.7,7.3-6.3c5.6,1.4,5.8,3.2,5.8,3.2l6.7-0.7c0,0,0.8-2.9,3.6-0.9
					c2.7,2,3.2,2.7,3.2,2.7l8-6.9c0,0-1.5-0.5-13.4-17c-11.9-16.5-12.8-23.7-7.5-24.3s13.7,14.5,13.7,14.5s1.6,7.5,4.8,15.2
					c3.2,7.7,2.3,9.7,3.8,15.9s2.2,4.7,2.2,9.9c0,1.7-0.1,3.3-0.2,4.8c1.9-1.1,4.1-2.3,6.5-3.6
					C1672.5,986.4,1673.1,981.5,1672.7,976.7z"/>
				<g>
					<path fill="#FFE9D6" d="M1667.7,1025.8l-6.1,6.4c0,0,1.4,1.9-3.2,7.6c-4.6,5.7-6.6,8.1-9.4,5.8c0,0-4,1.6-6.6,2.7
						s-4.9,0.2-4.9,0.2s-21.8,20.4-39.8,19.6c-6.9-0.3-24.5-15.6-44.9-35.9c-33-33-73.2-79.4-86.4-97.3c-3.7-5-6.7-9.4-9.1-13.3
						l2.8-3l6.4-6.8l6.3-6.7c0,0-0.3-0.4-0.8-1.1c-2-2.7-7.6-10.2-16.2-21.8c-10.5-14.2-8.2-9.7-10.7-10.5c-0.1,0-0.2,0-0.2-0.1
						c-0.2-0.1-0.3-0.1-0.5-0.2c-2.6-0.7-4.8,0.8-6.2-2.2c-0.3-0.7-0.7-1.4-1.1-2.2c-0.8-1.5-1.6-3.2-2.3-5.1
						c-0.6-1.4-1.1-3-1.5-4.6c-1-4,1.2-5.9,3-8.3c0.4-0.6,0.8-1.2,1.2-2c1.7-3.7,0.5-3.5,1.7-11.7c1.2-8.1,2.3-9.1,10.6-19.7
						c8.3-10.5,14.1-13.4,22.3-20c8.2-6.6,7.6-6.6,10.9-5.4c3.3,1.2-0.1,0.9,8.2,1c8.3,0.1,9.8-3.2,14-3.5c4.2-0.3,5,0.8,8.8,3.8
						c3.7,3.1,4.7,6.5,10.5,14c5.8,7.5,7.4,7.4,20.3,8c0.5,0,1.1,0,1.6,0.1c5.1,3.4,6.5,4.6,6.5,4.6s7.1,5,16.1,13.5
						c4.9,4.6,10,9.9,14.9,15.1c4.1,4.5,8,8.9,11.3,12.8c3.1,3.7,4.6,4.7,5.9,5.8c1.8,1.4,3.1,2.7,7.4,10.3
						c5.5,9.8,8.9,15.9,13.8,23.3c1.8,2.6,3.7,5.4,6,8.6c4.8,6.6,7.9,10.2,10.5,12.9c-3,1.9-6,4.4-7.5,7.3c-3.3,6.6,0,24.3,0,24.3
						c-3.2-2.5-7-0.9-7-0.9c-2.3-8.5-16.8-13.9-18.3-3.5c-1.6,10.4,5.6,14.8,5.6,14.8s-0.1,0.3-0.3,0.8c-2.7-2.2-6.9-5.1-13.4-9.9
						c-0.4-1-0.9-2-1.3-3.1c-10.8-26.8-24.8-29.8-35.4-30.3c-10.6-0.5-17.4,8-17.4,8s1.2-3.8,1-5.3c-1.7-9.6-7.9-19-23.3-32.8
						l-6.2,60.5l79.6,26.1l1.5,24l2.1,33.1l18.1,10.2c0,0,10.4-2.9,24.4-9.1c14-6.1,9.7-6.9,13.3-7.5c3.6-0.6,2.7,3.1,5.5,1
						c2.8-2.1,2.5-4.1,2.5-4.1s4.4,0.8,10.6-0.3c-0.3,0.2-0.7,0.4-1,0.5C1666.4,1025.6,1667.7,1025.8,1667.7,1025.8z"/>
				</g>
			</g>
			<path fill="#FFE9D6" d="M1655.6,940.5L1655.6,940.5c0,0-4.1-4.9-7.9-9.5C1651.5,935.6,1655.6,940.5,1655.6,940.5z"/>
			<path fill="#FFE9D6" d="M1622.2,899.2c1.8,2.6,3.7,5.4,6,8.6c7,9.7,10.5,12.9,13.8,16.4c-3.3-3.5-6.8-6.8-13.8-16.4
				C1625.9,904.6,1623.9,901.8,1622.2,899.2z"/>
			<path fill="#FFE9D6" d="M1601,865.5c-1.3-1-2.8-2-5.9-5.8c-3.3-4-7.2-8.4-11.3-12.8c4.1,4.5,8,8.9,11.3,12.8
				C1598.2,863.5,1599.7,864.5,1601,865.5z"/>
			<path fill="#FFE9D6" d="M1668.4,1002.6L1668.4,1002.6c0-0.1,0.1-0.2,0.2-0.5C1668.5,1002.3,1668.4,1002.5,1668.4,1002.6z"/>
			<path fill="#842A10" d="M1647.7,1027.4c-12.7,10.8-15,12.2-13.1,18.1l-29.8,15.8l4.6-22.9L1647.7,1027.4z"/>
			<path fill="#6D440E" d="M1679.5,994.7c-4.9-2.3-8.2,2-9.8,5.1c-0.7,1.7-1.2,2.8-1.2,2.8l0,0c0,0,0,0,0,0s0,0,0,0l-3.9-2.6
				c0,0,1-5.3,1-10.5s-0.7-3.6-2.2-9.9c-1.5-6.2-0.6-8.2-3.8-15.9s-4.8-15.2-4.8-15.2s-8.4-15.2-13.7-14.5s-4.4,7.8,7.5,24.3
				s13.4,17,13.4,17l-8,6.9c0,0-0.4-0.8-3.2-2.7s-3.6,0.9-3.6,0.9l-6.7,0.7c0,0-0.2-1.8-5.8-3.2c-5.6-1.4-7.3,6.3-7.3,6.3l-11.1-2.5
				c0,0,1.2-5.8-0.1-11c-1.3-5.1-4.4-6.6-19.2-17.4l-2.5,22.9l3.6,57.7l18.1,10.2c0,0,10.4-2.9,24.4-9.1c14-6.1,9.7-6.9,13.3-7.5
				c3.6-0.6,2.7,3.1,5.5,1c2.8-2.1,2.5-4.1,2.5-4.1s4.4,0.8,10.6-0.3C1677.7,1020.1,1686.3,997.9,1679.5,994.7z"/>
			<path fill="#6D440E" d="M1668.4,1002.6C1668.4,1002.6,1668.4,1002.6,1668.4,1002.6L1668.4,1002.6
				C1668.4,1002.6,1668.4,1002.6,1668.4,1002.6z"/>
		</g>
		<path fill="#6D440E" d="M1526.9,900c7.1,4.9,8.3,7.1,9.5,11c1.2,3.8,0.6,1.7,4.2,5.5c3.7,3.8,5,3.5,6.3,10.3s-0.1-0.2,0.7,1.3
			s10.2,9.4,12.8,18.5s1,16.7-18,0.8C1523.4,931.5,1526.9,900,1526.9,900z"/>
		<path fill="#E55930" d="M1668.6,1002c-0.1,0.3-0.2,0.6-0.2,0.6S1668.5,1002.4,1668.6,1002z"/>
		<path fill="#E55930" d="M1512.1,788.4C1512.1,788.4,1512.1,788.4,1512.1,788.4C1512.1,788.4,1512.1,788.4,1512.1,788.4
			L1512.1,788.4z"/>
		<path fill="#842A10" d="M1445.2,871.6c-0.1,0-0.2,0-0.2-0.1c-0.2-0.1-0.3-0.1-0.5-0.2c0.2,0,0.3,0.1,0.5,0.2
			C1445,871.5,1445.1,871.6,1445.2,871.6z"/>
		<path fill="#842A10" d="M1460.1,918.5l12.8-13.5c0,0-0.3-0.4-0.8-1.1c0.5,0.7,0.8,1.1,0.8,1.1L1460.1,918.5z"/>
		<polygon fill="#6D440E" points="1455.5,923.2 1455.5,923.2 1455.5,923.2 1457.2,921.5 1457.2,921.5 		"/>
		<path fill="#6D440E" d="M1455.8,882c8.6,11.6,14.2,19.1,16.2,21.8C1470,901.2,1464.4,893.7,1455.8,882
			c-10.5-14.2-8.2-9.7-10.7-10.5C1447.6,872.3,1445.3,867.8,1455.8,882z"/>
		<path fill="#6D440E" d="M1444.4,871.3c-2.6-0.7-4.8,0.8-6.2-2.2c-0.3-0.7-0.7-1.4-1.1-2.2c0.4,0.8,0.7,1.5,1.1,2.2
			C1439.6,872.2,1441.8,870.6,1444.4,871.3z"/>
		<polygon fill="#6D440E" points="1457.2,921.5 1457.2,921.5 1460.1,918.5 		"/>
		<path fill="#6D440E" d="M1457.2,921.5c-11.9-18.8-11.7-25.6-11.7-25.6c-3.5-8.3-6.3-13.9-8.4-18.6c0.7,3.4,1.4,7,2.4,10.8l16,35.2
			l0,0L1457.2,921.5z"/>
		<path fill="#6D440E" d="M1437.1,877.2c2.2,4.7,4.9,10.2,8.4,18.6c0,0-0.2,6.8,11.7,25.6l2.8-3l12.8-13.5c0,0-0.3-0.4-0.8-1.1
			c-2-2.7-7.6-10.2-16.2-21.8c-10.5-14.2-8.2-9.7-10.7-10.5c-0.1,0-0.2,0-0.2-0.1c-0.2-0.1-0.3-0.1-0.5-0.2
			c-2.6-0.7-4.8,0.8-6.2-2.2c-0.3-0.7-0.7-1.4-1.1-2.2c-0.8-1.5-1.6-3.2-2.3-5.1C1435.2,865.8,1435.9,871.1,1437.1,877.2z"/>
		<g>
			<path fill="#842A10" d="M1555.9,817.8c-1.7-0.8-4,0.5-3.4,2.6c0.5,1.4,1.5,2.7,2.5,3.8c0.9,1.1,1.9,2.7,3.4,3
				c1.5,0.3,3.1-0.7,3.1-2.3c0-1.8-1.3-2.9-2.4-4.2C1558.2,819.6,1557.2,818.3,1555.9,817.8z"/>
			<path fill="#842A10" d="M1644,927.3c-1.8-0.7-3.9-2.7-4.3-4.4c-0.3-1.2,0.6-2.5,0.5-3.6c-0.1-2.2-1.3-4.5-2.4-6.2
				c-1.8-2.7-4.1-4.9-6-7.5c-1.8-2.4-3.3-5.2-5.4-7.4c-1.4-1.5-3-1.8-3.9-3.5c-1.1-2-1-4.3-2.2-6.3c-2-3.6-5-7-7.9-10.2
				c0-2.2-0.6-4.6-1.1-6c-1.6-4.3-6.1-8.5-10.8-8.6c0-0.1-0.1-0.1-0.1-0.2c0.4-0.3,0.7-0.6,0.9-1c2.5-5.3-2.9-8.7-5.3-12.7
				c-2.8-4.5-5.5-12.3-11.5-13.4c-1.1-0.2-2,0-2.7,0.3c-0.6,0.2-1.1,0.7-1.5,1.2c-0.1,0.1-0.2,0.3-0.2,0.5c-0.3-0.2-0.6-0.4-1-0.5
				c-0.6-0.2-1-0.2-1.6-0.5c-0.6-0.3-1.2-0.7-1.8-1.2c-0.8-0.6-1.5-1.4-2.3-2.1c0.4-1.1,0.2-2.5-0.8-3.4c-0.5-0.5-1.1-0.7-1.7-0.8
				c-0.2-0.2-0.4-0.5-0.7-0.6c-0.1-0.1-0.2-0.1-0.3-0.2c0,0-0.1,0-0.1,0c0,0-0.1-0.1-0.2-0.1c-0.4-0.3-0.9-0.5-1.4-0.7
				c-1-0.4-2.4,0.3-2.9,1.2c-0.8,1.4-0.4,2.9,0.6,4.1c0.5,0.6,1,1.2,1.6,1.7c1.1,0.9,2.6,1.5,4,1c0.9,1.3,0.9,3.1,1.8,4.6
				c1.2,2,3.6,3.1,5.9,2.6c0.3-0.1,0.6-0.2,0.8-0.3c1,3.9,4,8.3,5.4,10.5c2.1,3.4,5.5,8.3,9.7,10c0.1,2.1-0.1,4,0.8,6.2
				c0.9,2.4,2.1,4.7,3.4,6.9c1.8,3.2,5.7,9.6,10.2,7.9c0.6-0.2,1.1-0.6,1.6-1.1c5.3,8,10.3,16.1,15.7,24c2.2,3.1,3.8,6.5,6,9.6
				c1.7,2.5,3.2,4.7,4.2,7.5c1.1,3.2,3.3,7,7.4,5.5C1645.3,929.6,1645.3,927.8,1644,927.3z"/>
			<path fill="#842A10" d="M1675.4,982.7c-0.1-7.1,0.1-14.7-4.8-20.3c-0.7-0.8-2.2-0.8-2.9,0c-2.9,3.4-4.8,1.5-6.7-1.2
				c-0.5-2.8-0.6-5.7-0.7-8.5c0.3,0.3,0.7,0.6,1.1,0.8c0.7,0.5,1.6-0.3,1.4-1.1c-0.6-2.2-1.8-3.4-3.1-5.3c-1.1-1.5-3.9-1.2-3.9,1
				c0.1,4.3,1.7,7.3,3.1,11.3c0.1,0.4,0.3,0.8,0.4,1.1c-0.1,0.2-0.2,0.5,0,0.8c0.2,0.5,0.5,1,0.7,1.5c1.1,3.9,1.8,7.8,2.2,12
				c0.8,8.5,4.2,16.2,2.1,24.8c-0.2,0.5-0.3,1.1-0.2,1.7c0,0,0,0.1,0.1,0.2c0.5,1.8,3,2.7,4.4,1.2c1.1,0.5,2.3,0.4,3.4-0.9
				C1676.4,996.3,1675.5,989.3,1675.4,982.7z"/>
		</g>
	</g>
	<path fill="#E55930" d="M1637.4,1048.5c0,0,2.3,0.9,4.9-0.2s6.6-2.7,6.6-2.7c2.9,2.3,4.9-0.1,9.4-5.8c4.6-5.7,3.2-7.6,3.2-7.6
		l6.1-6.4c0,0-1.4-0.2,3.8-1.5c0.3-0.1,0.6-0.2,1-0.5c-6.1,1.1-10.6,0.3-10.6,0.3s0.3,2-2.5,4.1c-2.8,2.1-1.8-1.6-5.5-1
		c-3.6,0.6,0.7,1.4-13.3,7.5c-14,6.1-24.4,9.1-24.4,9.1l-18.1-10.2l-2-33.1l-19.3-11l-24,42.5c20.4,20.3,38,35.6,44.9,35.9
		C1615.6,1068.9,1637.4,1048.5,1637.4,1048.5z"/>
	<g>
		<path fill="#FEB04B" d="M1580.1,874c-3.3,3-2,8.1,1.9,12.2c1.5,1.6,4,2.9,8,2.2s4.7-6.9,2.5-12S1583.3,871,1580.1,874z"/>
		<path fill="#FEB04B" d="M1624.1,923.4c-3.4,2.4-7.7,1.2-11.1-1.3c0.4,1.8,0.2,3.9-0.2,5.5c-0.1,0.3-0.2,0.6-0.4,0.9
			c-0.1,0.4-0.2,0.8-0.3,1.2c-1.2,3.8-5.3,5.9-9.1,4.6c-3.6-1.2-7.7-5.4-8.5-9.1c-0.6-3,0.8-5.1,3-6.4c2.1-2.8,7-3.2,10.7-1.9
			c-0.1-0.2-0.2-0.4-0.3-0.6c-0.2-0.5-0.3-0.9-0.1-1.3c-1.2-2.7-1.6-5.7-0.2-8.6c3-6.2,11.3-6.9,15.7-1.8
			C1627.1,909,1629.7,919.5,1624.1,923.4z"/>
	</g>
	<path fill="#FEB04B" d="M1478.3,888.9c0,0-10.7-17.8-16.6-21s-11.7,2.1-11.7,2.1s-1.3-10.4-5.2-16.8c-2.8-4.6-5.3-5.8-8.7-4.3
		c-1.8,2.5-4,4.3-3,8.3c0.4,1.7,0.9,3.2,1.5,4.6c0.7,1.9,1.5,3.5,2.3,5.1c0.4,0.8,0.7,1.5,1.1,2.2c1.5,3,3.7,1.5,6.2,2.2
		c0.2,0,0.3,0.1,0.5,0.2c0.1,0,0.2,0.1,0.2,0.1c2.4,0.7,0.1-3.8,10.7,10.5c8.6,11.6,14.2,19.1,16.2,21.8c0.5,0.7,0.8,1.1,0.8,1.1
		l-6.3,6.7l5.9,2.4L1478.3,888.9z"/>
	<path fill="#6D440E" d="M1481.8,876.7c-8.3-3.7-5.6-1.1-10.6-6.6s-7.2-4.9-7.2-9s3.9-9,11.3-5c7.4,4,12.2,12.1,12.2,12.1
		L1481.8,876.7z"/>
	<path fill="#6D440E" d="M1465,846.5c-4.6,0.8-6.7-1.5-7.4-3.9s2.6-6.9,6.4-5c3.8,1.9,5.5,3.5,3.8,6.2
		C1466.2,846.5,1465,846.5,1465,846.5z"/>
	<path fill="#FEB04B" d="M1492.5,849.7c-5.6,4.1-10.1-1.6-11.3-7.2c-1.2-5.6,1.9-11.9,8-11.6
		C1496.3,831.3,1500.7,843.7,1492.5,849.7z"/>
	<path fill="#FEB04B" d="M1467.1,831c7.3-7.8,10.3-12.4,8.6-20.2s-10.8-8.7-16.3-3.2s-9.9,10.3-11.1,14s-0.8,9.6,4.5,11.5
		C1458.2,835,1464.9,833.3,1467.1,831z"/>
	<path fill="#FEB04B" d="M1498.7,827.2c-8.4-5.2-8.3-14.1-5.6-18.5c2.7-4.4,6.8-4.3,11.3,1.3s11.2,6.1,9.2,13.5
		S1503.3,830,1498.7,827.2z"/>
	<path fill="#FEB04B" d="M1524.7,834.9c-6.1-6.3,0.4-14.9,4.9-15.3c4.6-0.4,10.8,0.5,11.7,7.7
		C1542.1,834.3,1535.7,846.3,1524.7,834.9z"/>
	<path fill="#FEB04B" d="M1546.5,820.8c-2.5,1.2-3.9,3.7-1.2,6.9s6.1,0.9,6.9-0.8C1553,825.3,1550.4,819,1546.5,820.8z"/>
	<path fill="#FEB04B" d="M1563.3,846.5c-3.6,0.6-4.7,3.9-2,6.5s5.2,1.5,6.4-0.2C1568.8,851.3,1567.3,845.8,1563.3,846.5z"/>
	<path fill="#6D440E" d="M1574.1,889.6c-4.3,2.7-5.2,8.9-0.8,11.5s9.2,1.3,9.7-4.6C1583.4,890.6,1577.4,887.5,1574.1,889.6z"/>
	<g>
		<path fill="#6D440E" d="M1641.2,959.1C1641.1,959.1,1641.1,959.1,1641.2,959.1C1641.2,959.2,1641.2,959.2,1641.2,959.1z"/>
		<path fill="#6D440E" d="M1641.3,959.1C1641.3,959.1,1641.3,959.1,1641.3,959.1C1641.4,959.2,1641.4,959.2,1641.3,959.1z"/>
		<path fill="#6D440E" d="M1578,896.8c0,0-0.1,0.1-0.1,0.2C1577.9,896.9,1577.9,896.8,1578,896.8C1578,896.8,1578,896.8,1578,896.8z
			"/>
		<path fill="#6D440E" d="M1641.2,959.1C1641.3,959.1,1641.3,959.1,1641.2,959.1C1641.3,959.1,1641.2,959.1,1641.2,959.1
			C1641.2,959.1,1641.2,959.1,1641.2,959.1z"/>
		<path fill="#6D440E" d="M1641.1,959C1641.1,959,1641.1,959,1641.1,959C1641.1,959,1641.1,959,1641.1,959
			C1641.1,959,1641.1,959,1641.1,959z"/>
		<path fill="#6D440E" d="M1570.3,926.1c-0.7-0.6-1.5-1-2.2-1.1c-0.2,0-0.3,0-0.5,0c-0.1,0-0.2-0.1-0.3-0.1
			c-0.8-0.2-1.8,0.1-2.2,0.9c-0.3,0.5-0.6,1.2-0.7,1.8c-0.1,0.3-0.2,0.5-0.3,0.8c-0.6,2.2-0.2,4.6,1.5,6.2c1.6,1.5,4.2,1.8,5.9,0.3
			c1.8-1.5,2-4.4,1-6.4C1572,927.4,1571.2,926.6,1570.3,926.1z"/>
		<path fill="#6D440E" d="M1592.6,926.7c-0.2-0.4-0.6-0.7-0.9-1c-0.3-0.7-0.7-1.2-1.5-1.6c-2-1.1-4.5,0.2-5.6,2
			c-1.9,3.3-0.2,7.8,2.3,10.3c3.5,3.4,9.3,0.7,8.4-4.3C1595,930.1,1593.7,928.3,1592.6,926.7z"/>
		<path fill="#6D440E" d="M1618.1,927.8c-2.5-0.6-5.1,0.4-6.7,2.2c-2.1,1.8-3,5.5-1.4,7.9c0.8,1.2,2.2,1.9,3.1,3.1
			c1.1,1.4,2.1,2.7,3.5,3.7c2.8,1.9,6.7,1.9,9-0.8c2.5-3,1.3-6.8-0.5-9.7C1623.4,931.4,1621.4,928.6,1618.1,927.8z"/>
		<path fill="#6D440E" d="M1643,955.8c-1.3-1.5-3.3-2.1-5.1-1.5c-0.5,0-0.9,0.2-1.4,0.4c-1.7,1-2.1,3.2-2,5c0.3,3.7,4.1,6.8,7.8,5.8
			c2.2-0.6,3.6-2.5,3.4-4.7C1645.8,959,1644.3,957.2,1643,955.8z M1641.1,959.1C1641.1,959.1,1641.1,959.1,1641.1,959.1
			C1641.2,959.2,1641.2,959.2,1641.1,959.1z M1641.3,959.1C1641.3,959.1,1641.3,959.1,1641.3,959.1
			C1641.4,959.2,1641.4,959.2,1641.3,959.1z M1641.2,959.1C1641.2,959.1,1641.2,959.1,1641.2,959.1
			C1641.2,959.1,1641.3,959.1,1641.2,959.1C1641.3,959.1,1641.3,959.1,1641.2,959.1z M1641.1,959C1641.1,959,1641.1,959,1641.1,959
			C1641.1,959,1641.1,959,1641.1,959C1641.1,959,1641.1,959,1641.1,959z"/>
	</g>
	<path fill="#E55930" d="M1663.3,952.9c-2.1-0.8-3.7,1.7-4,3.5c-0.4,2.1,0.6,4.7,2.1,6.3c0.3,0.5,0.7,1,1.2,1.4
		c2.2,1.7,5.2,0.6,5.5-2.3c0,0,0,0,0,0C1668.8,958.9,1665.5,953.7,1663.3,952.9z"/>
	<path opacity="0.3" fill="#05132B" enable-background="new    " d="M1685.1,1020.9c4.8-13.1,9.8-33.4,3.9-59.2
		c-2-8.8-5.2-17.3-9.1-25.7c-1.3,0.6-2.6,2.1-3.4,5c-3.1,10.8,1.2,21.9,0,18.6s-5.1-7-7.2-11.8s-2.6-8.2-8.2-20.2
		s-7.2-12.5-15.8-21.7s-12.8-14.2-21.4-27.6s-10.7-5.3-7.2,4s7.7,21,19.4,38s10.2,12.5,15.3,22.2c5.1,9.8,5.9,21.4,8.6,31.2
		c2.6,9.8,4.2,13.5,4.6,17.3c0.4,3.8,0.6,8.9,0.6,8.9l-45.8-26.6c0,0,0.5-28.3-16.1-36.1s-49.2-4-49.2-4s2.7-10.4-3.4-17.8
		s-12.1-5.6-12.1-5.6s3.6-34,3.1-42.6s-17.6-31-41.9-21.8c-24.3,9.1-22.8,27.2-21.3,40.5s-7.3,27.7-7.3,27.7s-5-6.6-16.2-20.3
		c-9.7-12-13.9-13.5-22.9-11.2c1.3,3.2,2.2,5.2,2.2,5.2l-1.4,3.3l133.8,193.7l1.1,8.1c30.8-6.9,69.6-20.5,91.3-36.5
		C1681.7,1039.2,1680.2,1034,1685.1,1020.9z"/>
	<path fill="#842A10" d="M1634.6,1045.5c0,0-5.3-4.9,6.1-10.6c0,0-17.6,7.8-24.9,7.5c-7.4-0.3-13.9,20-13.9,20L1634.6,1045.5z"/>
	<path opacity="0.3" fill="#05132B" enable-background="new    " d="M1634.6,1045.5c0,0-5.3-4.9,6.1-10.6c0,0-17.6,7.8-24.9,7.5
		c-7.4-0.3-13.9,20-13.9,20L1634.6,1045.5z"/>
	<path fill="#AA5C24" d="M1562.6,1101.2c5.1-5.4,7.4-6.8,16-13s20.8-10.7,22.1-18.6c0,0,1.2-3.6,10.6-14.8
		c9.4-11.1,10.7-11.5,10.6-15.1s-1.7-5-8.3-4.8s-60.4,21.9-60.4,21.9l-3.3,38.9L1562.6,1101.2z"/>
	<g>
		<path fill="#66BB3C" d="M1620.8,1000.1c-3.8-2-6.6-2.4-8.9-2.5c-2.4-0.1-4.2,0.1-6.1-1c-3.7-2.1-2.3-7.5,0-12.6
			c2-4.5,4.7-7.5,6.2-10.3c0.2-0.4,0.4-0.7,0.5-1.1c1.4-3.1-5.5-13.7-13.4-20.8s-13.8-11.5-22.1-12.5c-2.4-0.3-4.8-0.2-6.9,0.1
			c-5.2,0.8-9.4,2.8-11.7,4.5c-3.2,2.4-6.7,3.8-9.7-3.4c-2.9-7.2-1.3-12-5.2-12.3c-0.4,0-0.8-0.1-1.2-0.1c-3.2-0.2-7.1-0.3-9.2-0.6
			c-0.4,0-0.7-0.1-1-0.2c-2-0.5-3.6-1.6-2.2-13.5c1.4-11.9,2.1-15.9-0.5-25.7c-2.7-9.8-8.6-11.5-9.3-17.6c-0.7-6.1,1.6-7.8-0.6-9.1
			c-1.4-0.8-4.6-2.9-9.3-4.1c-2.7-0.7-5.9-1.1-9.6-0.8c-10.2,0.7-15.7,6.1-19.3,12.3c-3.6,6.2-5,23.4-5,23.4s-3.6,1.2-6.1,6
			c-2.6,4.8-3.1,9.7-3.4,11c-0.3,1.3-8.1,2.7-10.3,1s-3.5-10.8-10-19.5c-2-2.7-4.1-4.8-6.3-6.4c-4.9-3.5-10.3-4-16.1-0.6
			c-4.6,2.7-8.2,6.2-10.5,10.3c-1.9,3.4-2.9,7.3-3,11.6c-0.1,9.6,0.8,22.2,5.2,28.5c0.4,0.6,1.6,1.9,3.3,3.7
			c16,16.3,80.9,75.7,80.9,75.7l30,33.6l53.3,12.5c10.1,1.4,25.1,2.1,25-12s1.9-12.9,1.9-12.9s4.8-3.2,13.1-11.6
			C1631.5,1014.6,1628.7,1004.3,1620.8,1000.1z"/>
		<path fill="#264415" d="M1605.8,983.9c2-4.5,4.7-7.5,6.2-10.3c-22,1.2-30,5.7-31.7,18.2c-1.8,13.1,6.8,13.8,6.8,13.8s0,0-0.5,1
			s-0.7-1.4-6.9-2.6c-6.2-1.2-9.9,1.4-9.9,1.4s-0.5-2.6-5.2-6.5s-5.9-0.9-8.1-3.3c-2.2-2.4-2.3-5.1-2.2-8c0.1-2.9,6.4-9.2,6.4-9.2
			s7.3-2.8,15.8-7.9s7.6-7,7.5-14s-5.7-9-13.2-6.6c-7.5,2.4-19.9,9.1-26.6,14.3s-3.8,7.3-5.3,9.2c-1.5,1.9-2.7,2.1-3-1.2
			c-0.4-3.3,0.1-2-2.4-4.1c-2.4-2.1-0.9-1.8-2.2-5.1s-2.4-3.8-3.6-6.4c-1.2-2.6,0.5-7.5-0.8-10.1c-1.2-2.6-3.8,0.3-3.3-1.2
			c0.5-1.5,2-2.7,0.9-4.7s-2.7-2.8-2.7-2.8s0.4-3-6-2.6s-9,2.8-10.2,3.8c-1.2,1-1.7-1.8-2.8-3.7s-2.6-0.8-0.5-4.6
			c2-3.7,0.8-2,3.4-3.7s0,0,1.2-3.2s1.1-2.3,1.2-8s-3.2-7-8-7c-4.8,0-6.9,0.3-6.2-1.8s2-3.5,2.6-7.5s-1.6-7.7-8.8-10.4
			s-11.4,2.9-11.4,2.9s-3.6,1.2-6.1,6c-2.6,4.8-3.1,9.7-3.4,11c-0.3,1.3-8.1,2.7-10.3,1s-3.5-10.8-10-19.5c-2-2.7-4.1-4.8-6.3-6.4
			c-1.7,1.6-1.9,4.5-0.6,8.2c1.7,5,1.9,7.8,1.1,14.7s-6.8,6.7-13,3.4s-8.1-6.4-8.5-9.9s-0.5-2.8-3.4-3.9c-1.5-0.6-2.1-1.3-2.2-2.6
			c-1.9,3.4-2.9,7.3-3,11.6c-0.1,9.6,0.8,22.2,5.2,28.5c0.4,0.6,1.6,1.9,3.3,3.7l15.7-11.4c0,0,33.1,5.5,43.3,31.7
			c10.1,26.2,24.5,44.8,24.5,44.8s8.2-21.6,9.8-8.2s11.6,12,14,11.1c2.4-1,3.9-2.5,4.6,1.2c0.7,3.7,0,12.9,0,12.9s43-3.4,47.5,4.6
			s11.4,4.2,11.4,4.2v8.7l-10.4,1.3c0,0-5.1,15.8,7.4,19.5c12.5,3.7,18.3-11.8,17-14.4c-1.3-2.7-4-3.1-4.3-3.1s2.5-2.7,6-6.6
			s6.4-9.7,7.5-14.2s0.2-11.4-4.5-13.5s-6.4,0.9-10.4,0.9s-5.6-1.5-5.6-1.5s9.3-4.2,19.2-7.9c-2.4-0.1-4.2,0.1-6.1-1
			C1602.1,994.5,1603.5,989,1605.8,983.9z"/>
		<path fill="#264415" d="M1512.6,869.3c0.2,5.7,1.3,10,5.9,14.5c4.7,4.5,6.8,6.9,6.3,9.2s-2.3-1.4-7,2c-4.7,3.5-5.1,8-3.9,16.3
			s3.7,5.1,4.8,10.2s0.3,6.6,5,8.2c3.8,1.3,6.9,1.9,9.4-2.4c-0.4,0-0.7-0.1-1-0.2c-2-0.5-3.6-1.6-2.2-13.5
			c1.4-11.9,2.1-15.9-0.5-25.7c-2.7-9.8-8.6-11.5-9.3-17.6c-0.7-6.1,1.6-7.8-0.6-9.1c-1.4-0.8-4.6-2.9-9.3-4.1
			c0.2,3.7,1.7,4.7,2.5,6.2C1513.8,865.5,1512.4,863.5,1512.6,869.3z"/>
		<path fill="#264415" d="M1534.2,953.4c3.1,2.8,3.5,2.5,6.2,4.8c2.7,2.3,4.6,3.6,10.3-1.9s8.9-3.2,13.4-8.4c3.4-3.9,2.6-5.4,6-8.6
			c-5.2,0.8-9.4,2.8-11.7,4.5c-3.2,2.4-6.7,3.8-9.7-3.4c-2.9-7.2-1.3-12-5.2-12.3c-0.4,0-0.8-0.1-1.2-0.1c-2.5,5-4.4,9.8-6.5,13.7
			C1532.3,948.5,1531.1,950.7,1534.2,953.4z"/>
	</g>
	<path fill="#EABE2F" d="M1351.3,1029.4c-0.1,19.8,0.4,34.3,2.6,42.5c2.2,8.2,8,19.3,21.7,30.4c13.7,11,32.8,13.7,40.6,13.8
		s-2.2-42.4-2.2-42.4l-53.1-45.2L1351.3,1029.4z"/>
	<path fill="#FFE690" d="M1465.2,1114.8c11.3,1.1,22.6-3.2,22.6-3.2l-7.6-8.1l-10.6,5.2L1465.2,1114.8z"/>
	<path fill="#64320F" d="M1354.1,1061.6c-7.4,4.8-10.2,6.3-7.7,12.8s8.4,8.8,14.5,10.8s7,3.8,10.3,0.5s8.7-12.2,8.7-12.2
		s4.2-2.9,9.2,4.2s6,10.1,8.3,10.4s7.2-2.2,10.8,1c3.7,3.2,6.7,5.8,2.8,9.7c-3.8,3.8-3.3,7.4-0.4,13s12.1,13.6,21.8,18.7
		s19.1,7.2,23,6.6s6.3-1.6,8.2-8c1.9-6.4,8.2-18.1,8.2-18.1l20.4-12.4l-89.4-34.1l-45.2-9.7L1354.1,1061.6z"/>
	<g>
		<path fill="#DB722C" d="M1383.2,1047.7l-5.1,22l-4.4,3l-4.8,3.3c0,0-1.6-1.5-5.1-5.3c-1.1-1.2-1.8-1.9-2.3-2.3
			c-1-0.8-1-0.4-1.5-1.8c-0.8-2-0.9-2.5-2.5-4.5s-1.4-1.2-3.4-0.3l3.6-7l13.3-12.6l3.7-3.5l6.1,6.5L1383.2,1047.7z"/>
	</g>
	<path fill="#AA5C24" d="M1363.8,1070.6c3.5,3.9,5.1,5.3,5.1,5.3l4.8-3.3c-0.9-0.5-1.8-1.2-2.8-2.2c-3.9-4,0.2-15.6,7-22.1
		c1.3-1.3,2.3-2.3,2.9-3.2l-6.1-6.6l-3.7,3.5c-1.4,10.2-1.2,12-3.8,18.4c-1.7,4.2-4.1,6.5-5.8,7.8
		C1362,1068.7,1362.7,1069.3,1363.8,1070.6z"/>
	<g>
		<path fill="none" d="M1366.5,1030.4L1366.5,1030.4c-0.8,0.3-1.6,0.7-2.4,1.1C1364.9,1031.1,1365.7,1030.7,1366.5,1030.4z"/>
		<polygon fill="none" points="1359.2,1016.5 1359.1,1016.6 1346.2,1025.4 		"/>
		<path fill="none" d="M1357,1024.9c1.7-1.1,2.7-2.2,3.1-3.3C1359.7,1022.7,1358.7,1023.9,1357,1024.9
			C1357,1024.9,1357,1025,1357,1024.9C1357,1025,1357,1025,1357,1024.9z"/>
		<polygon fill="none" points="1351.9,1004.7 1350.3,1001.8 1347.2,1002.3 1350.3,1001.8 		"/>
		<polygon fill="none" points="1358.7,1006.1 1358.7,1006.1 1355.9,1005.6 		"/>
		<polygon fill="none" points="1364.2,1033.8 1365.8,1031.3 1364.2,1033.8 1363,1035.6 1355.9,1041.6 1363,1035.6 		"/>
		<path fill="#842910" d="M1352.7,994.2l-5.5,6.3c-0.5,0.7-0.9,1.4-1.4,2.1l0,0c-4.3,7.1-6,16.8-5.5,26.8c0,0.5,0.1,1,0.1,1.4
			c0,0,1.3,1.5,1.9,2.4c0.1,0.2,0.2,0.3,0.2,0.4l0,0c0.3,0.8,5.4-0.4,6.6,0.6c1.2,1,1.8,1.2,2.1,4.4c0,0.3,0.1,0.7,0.1,1.1l0,0
			c0,0.1,0,0.2,0,0.3c0.1,1.1,0.3,2.4,0.6,3.7c0.1,0.3,0.1,0.7,0.2,1l0,0c0.4,2.7,1,5.5,1.5,7.6c0.2,0.7,0.3,1.4,0.4,2.2
			c0.4,3.5,0.2,7,0.2,7l20.8-18.7c0,0-1.8,1.7-1.4,4.3c0.4,2.6,5.2,4.1,5.2,4.1l10.3-24.9L1352.7,994.2z M1366.5,1030.4
			c-0.8,0.3-1.6,0.7-2.4,1.1C1364.9,1031.1,1365.7,1030.7,1366.5,1030.4L1366.5,1030.4z M1359.1,1016.6L1359.1,1016.6L1359.1,1016.6
			l-12.9,8.8L1359.1,1016.6z M1360.1,1021.7c-0.4,1.1-1.4,2.2-3.1,3.3c0,0,0,0,0,0c0,0,0,0,0,0
			C1358.7,1023.9,1359.7,1022.7,1360.1,1021.7z M1358.7,1006.1l-2.8-0.5L1358.7,1006.1L1358.7,1006.1z M1350.3,1001.8l1.6,2.9
			L1350.3,1001.8l-3.1,0.5L1350.3,1001.8z M1363,1035.6l1.2-1.8l1.6-2.4l-1.6,2.4L1363,1035.6l-7.1,6L1363,1035.6z"/>
	</g>
	<path fill="#AA5C24" d="M1352,1004.9l-1.5-0.3c-3.3,8.2-4.1,17.7-4.3,20.2c0,0.4,0,0.6,0,0.6c-5.7,4.2-5.9,5.4-5.9,5.4
		c0-0.5-0.1-1-0.1-1.4c-0.5-10,1.2-19.7,5.5-26.8l4.6-0.8L1352,1004.9z"/>
	<path fill="#DB722C" d="M1359.2,1016.5L1359.2,1016.5l-12.9,8.9c0,0,0-0.2,0-0.6c0.2-2.5,1-12,4.3-20.2l1.5,0.3l6.7,1.2
		L1359.2,1016.5z"/>
	<path fill="#65320F" d="M1357,1024.9C1357,1025,1357,1025,1357,1024.9c-6.2,3.9-14.5,8.7-14.5,8.7c-0.1-0.1-0.1-0.2-0.2-0.4
		c-0.6-0.9-1.9-2.4-1.9-2.4s0.2-1.3,5.9-5.4l12.9-8.8C1359.2,1016.5,1363.1,1021.1,1357,1024.9z"/>
	<path fill="#64320F" d="M1365.3,1032.9l-1.1,0.9l-1.2,1.8l-10.9,9.3c0.4,2.7,1,5.5,1.5,7.6c0.2,0.7,0.3,1.4,0.4,2.2
		c6.9-6.1,14.8-15.3,29.9-26.2L1365.3,1032.9z"/>
	<path fill="#AA5C24" d="M1366.5,1030.4l-2.3,3.4l-1.2,1.8l-10.9,9.3c-0.1-0.3-0.1-0.7-0.2-1c-0.2-1.3-0.4-2.6-0.6-3.7
		c0-0.1,0-0.2,0-0.3c2.2-1.9,5.8-4.7,10.6-7.2C1363.3,1031.8,1364.8,1031.1,1366.5,1030.4z"/>
	<path fill="#AA5C24" d="M1399.5,1079.3c7.9-1.8,14.2,4.8,14.2,4.8l20.3-15.7l-8.1-12.9l-19.3-1.8L1399.5,1079.3z"/>
	<path fill="#DB722C" d="M1429.4,1058.1c-9.6,6.6-13.2,7.4-17.1,5.6s-6.9-6.3-6.9-6.3l8-23.2l23.4,2l-2,19.4L1429.4,1058.1z"/>
	<path fill="#CE2828" d="M1436.2,1000l-17.3-15.7l-25.8,6l-3.1,18.9c21.1-3.7,36.5-4.5,44.9-4.5L1436.2,1000z"/>
	<path fill="#CE2828" d="M1387.7,1022.7c0.1,0,0.2-0.1,0.4-0.1l-0.3-0.5L1387.7,1022.7z"/>
	<g>
		<path fill="#45460C" d="M1421.1,1013.2l-4.3,0.7c-12,12.9-16,26.2-20.7,39.8c-3.9,11.3-3.7,25.1-3.3,31.4c1.1,0.8,2.1,1.4,3,1.7
			c2.4,0.9,7.3-6.8,7.3-6.8s2-12,7.5-27.6s9.4-23.2,11-26.9C1423.1,1021.8,1421.1,1013.2,1421.1,1013.2z"/>
		<path fill="#A3A72E" d="M1396.1,1053.7c4.7-13.6,8.7-26.9,20.7-39.8l-24.8,4c-11.9,15.9-11.2,19.5-14.6,34.4s-1,24.7-1,24.7
			s7.4,1.6,10.9,4c2.1,1.5,3.9,3,5.5,4.2C1392.4,1078.8,1392.2,1065,1396.1,1053.7z"/>
	</g>
	<path fill="#842910" d="M1434.9,1004.6c-8.4,0.1-23.8,0.8-44.9,4.5l-2.1,12.8l0.3,0.5c17.2-5.8,43.6-7.1,43.6-7.1L1434.9,1004.6z"
		/>
	<path fill="#66BB3C" d="M1473.6,952.2c-5.2-9.7-13-17.8-24.8-21.5c-11.8-3.8-13.5,5.8-28.7,4.6s-23.4-7.1-29.5-0.5
		s-5.5,7.8-4.5,11.2c1.1,3.5-3.2,6.2-4.6,10.5c-1.4,4.4-0.2,6.5-0.2,6.5l-3.9,9.7l16.9,21.7c0,0,2.6,2.5,7.9,2.2s4.8-3.2,7.7-3.1
		s6.3-1.3,8.2,1.7c1.9,3-1.9,8.8,4.1,11.5c6.1,2.8,15-3.5,15-3.5l37.6-22.4L1473.6,952.2z"/>
	<g>
		<g>
			<path fill="#EFF476" d="M1389.5,950.3l-15.8,19.2l-17.1,41.8l-6.7-3.1l-15.9-7.3c0,0,7.4-16,19-31.3
				c11.5-15.3,21.2-23.2,21.2-23.2l14.2,0.8L1389.5,950.3z"/>
		</g>
		<path fill="#FFFAE6" d="M1388.3,947.2l-14.2-0.8c0,0-9.7,7.8-21.2,23.2c-11.5,15.3-18.9,31.3-18.9,31.3l15.9,7.3
			C1357.1,986.1,1374.3,959.8,1388.3,947.2z"/>
	</g>
	<path fill="#842910" d="M1433.3,1046.4c-9.2,5.7-11.7,8.5-11.7,8.5s0.2,4.1,2.6,7.9s2.7,4.9,2.7,4.9s-8.1,6-12.6,11.4
		s-3.9,6.3-0.7,9.2s5.5,3.2,9,0s35.4-7.7,35.4-7.7l3.4-17L1433.3,1046.4z"/>
	<path fill="#DB722C" d="M1458.9,1075.9c-17.7,4.8-28.9,7-34.7,12.8c-5.8,5.8-9.4,7.9-4.9,15.3s13.2,14.3,23.1,17.9
		c9.9,3.6,10.2,5.5,13.5-0.9c3.3-6.3,11.9-20.4,21.3-19.9C1486.4,1101.8,1458.9,1075.9,1458.9,1075.9z"/>
	<polygon fill="#8B1718" points="1498.8,1046.4 1470.8,1062 1472.7,1066.2 1504.8,1055.5 	"/>
	<path fill="#A68B2C" d="M1547.5,1084.2l-0.7,14.1l-1.3,0.5c-1.5,0.4-3,0.7-4.5,1.1c-9.4,2.2-17.8,3.6-17.8,3.6l-6.7-3.5l0.6-1.4
		l6.2-13.4L1547.5,1084.2z"/>
	<path fill="#B5A770" d="M1517.1,1098.9l-0.6,1.3l6.4,3.3c0,0,8.1-1.4,17.2-3.4l-3.9-3.5C1536.2,1096.6,1526.6,1099.3,1517.1,1098.9
		z"/>
	<path fill="#AA5C24" d="M1543.9,1086.8c-11.6-0.3-17.6,0.6-17.6,0.6s-2.5-0.6-2.9,5.3c-0.4,5.9-0.2,8.4-0.2,8.4l3.1,2.2
		c0,0,0.8,4.8-0.4,9.1s-0.6,5.1-5.2,4.5s-23.6-4.5-23.6-4.5l21.3-38.2l25,8.8L1543.9,1086.8z"/>
	<path fill="#64320F" d="M1501.9,1105.7c5.5,4.3,5.8,3.5,6.7,4.8s0,2-1.4,1.6c-1.4-0.4-1.5-1-2.7-0.4s-2,1.9-2,1.9l-5.9-0.4
		L1501.9,1105.7z"/>
	<path fill="#842910" d="M1562.6,1101.2l-4.4-4.9l-5.7-19.8l-27.8-12.2l-9.2,8.5l3.7,4.9c0,0,1.3,3.6,19.8,6.9l0.7,3.7
		c0,0,2.2,0,3.3,2.7s2.5,7.1,2.5,7.1s-1.6,2.5,5.6,3.1S1562.6,1101.2,1562.6,1101.2z"/>
	<path fill="#8B1718" d="M1519.3,1077.6l2.7,4.3c0,0-5.5,7.7-13.8,20.3c-8.3,12.6-16.2,16.4-16.2,16.4l-13.8-7.8l-5.5-7.4l-0.8-1.1
		c0,0,22.6-20.9,22.4-34.3l19.8-10.2l7.9,11.2L1519.3,1077.6z"/>
	<path fill="#CE2828" d="M1513.1,1072.2h-9.6c0,0-10.4,14.7-30.7,31.2l5.5,7.4C1502.5,1094.1,1513.1,1072.2,1513.1,1072.2z"/>
	<g>
		<path fill="#FFFAE6" d="M1430.6,1059.8c-2.3-5.2-1.2-3.8,2-4c3.2-0.2,31.5-2.9,31.5-2.9s17-5.3,33.6-12.6l-0.7-4.6
			c-16.3,7-18.7,9.3-26.9,11.7c-8.2,2.4-34,4.9-38.9,4.9s-7,0.2-5.6,4.3c1,3,2.6,11.1,3.6,16.1h5.7
			C1434.8,1072.8,1432.9,1065,1430.6,1059.8z"/>
		<path fill="#CC6B29" d="M1451.7,1073.4c4.9-1.5,11.2-4.7,18.5-8.4c-15.8,3.2-35.4,7.7-35.4,7.7h-5.7c0.3,1.8,0.6,3.1,0.8,3.8
			C1430.6,1079,1441,1076.8,1451.7,1073.4z"/>
		<path fill="#EFF476" d="M1499.3,1051c-10.6,4.4-20.5,9.6-29.1,14.1c-15.8,3.2-35.4,7.7-35.4,7.7s-1.9-7.8-4.2-12.9
			c-2.3-5.2-1.2-3.8,2-4c3.2-0.2,31.5-2.9,31.5-2.9s17-5.3,33.6-12.6L1499.3,1051z"/>
	</g>
	<polygon fill="#AE6026" points="1496.4,1037.6 1472.6,1048.9 1476.2,1033.8 1494.8,1034.9 	"/>
	<path fill="#FEB04B" d="M1476.2,1036.4c0.5,0,18.1,0.8,18.1,0.8l-0.6-10l-14.3-0.9L1476.2,1036.4z"/>
	<g>
		<path opacity="0.3" fill="#05132B" enable-background="new    " d="M1430.9,1050.9c3.6,15.5,18.1,23,34.6,17.1
			c16.5-5.9,25.5-16.2,20.9-40.2C1481.8,1003.9,1430.9,1050.9,1430.9,1050.9z"/>
		<g>
			<g>
				<path fill="#66BB3C" d="M1469.4,1052.2c-12.1,4.5-19.4-2.8-19.4-2.8l-3.4-58.4l-0.1,0l3.4,58.4c0,0-2,3.5-10.1,4.4
					c-8,0.9-10,0.4-10,0.4c9.6,13,26.9,12.4,36.5,6.1c6.6-4.3,11.5-12,13.8-23.1C1478,1043.9,1474.6,1050.3,1469.4,1052.2z"/>
				<path fill="#A3A72E" d="M1439.9,1053.8c8-0.9,10.1-4.4,10.1-4.4l-3.4-58.4l-18.9,2.7l2.3,60.5
					C1429.9,1054.2,1431.8,1054.7,1439.9,1053.8z"/>
				<path fill="#EFF476" d="M1469.4,1052.2c5.2-1.9,8.6-8.3,10.8-15c1-5.1,1.5-10.8,1.3-17.3l-11.3-32.2l-23.6,3.3l3.4,58.4
					C1450,1049.4,1457.3,1056.8,1469.4,1052.2z"/>
			</g>
			<g>
				<path fill="#A3A72E" d="M1455.6,1011.2c0.4,0.2,0.9,0.2,1.3-0.1c2.2-1.8,3.8-4.4,5.7-6.5c1-1,0-3.1-1.5-2.5
					c-3.1,1.1-5.5,4.6-7,7.4C1453.7,1010.3,1454.6,1011.6,1455.6,1011.2z"/>
				<path fill="#A3A72E" d="M1457.2,1024.3c0.9-0.5,3.2-0.3,4.3-0.6c1.3-0.4,2.6-0.9,3.8-1.6c1.7-1,5.1-3.3,3.4-5.7
					c-1.4-1.9-4.7-0.6-6.3,0.3c-2.7,1.4-5.8,2.9-7.6,5.4c-0.3,0.4-0.1,0.8,0.2,1.1C1455.1,1024.1,1456.2,1024.9,1457.2,1024.3z"/>
				<path fill="#A3A72E" d="M1464.8,1035.3c-0.2-0.1-0.5-0.1-0.7-0.1c-0.1-0.4-0.4-0.7-0.9-0.9c-2.1-0.7-6.8-1.1-7.2,2
					c-0.4,2.9,4.9,4,6.9,4.4c1.3,0.2,2.8,0.5,3.9-0.3c1-0.7,1.4-2,1-3.1C1467.3,1035.9,1466,1035.5,1464.8,1035.3z"/>
			</g>
		</g>
	</g>
	<path fill="#DB722C" d="M1511.8,1063.1c7.2,7.3,19.8,16.6,37.8,17.9s22.1,2.1,22.1,2.1s13.5-9.9,11.5-21.6s-55.4-12.1-55.4-12.1
		L1511.8,1063.1z"/>
	<path fill="#47470C" d="M1543.9,1055.8c0,0.3,3.7,43.3,3.7,43.3l24.8-3.1l-0.7-37.5L1543.9,1055.8z"/>
	<polygon fill="#EFF476" points="1452.2,1102.3 1471.6,1096.8 1478.2,1069 1453.2,1073.9 	"/>
	<path fill="#FFFAE6" d="M1452.2,1102.3l-6.7-2.6l3.4-28.4l53.8-18.3l3.2,7.3c0,0-22.2,12.7-32.5,14.3c-10.2,1.7-17.4,2.2-17.4,2.2
		L1452.2,1102.3z"/>
	<path fill="#AA5C24" d="M1474.1,1101.2c0.5-2.2-4.5-4.4-7.7-3l4.5-19.6l26.7-8.6l-2.6,4.3l1.9,2.2c0,0,2.1,1.2-2.4,4.8
		S1474.1,1101.2,1474.1,1101.2z"/>
	<path fill="#F4A971" d="M1509.4,1056.5c-16.6,4.1-23.6,8.9-31.2,13.5c-7.7,4.6-7.9,9.4-7.5,15.6s2.8,4.5,8.4,1.4
		c5.7-3.1,17.9-10.5,17.9-10.5s0.2-4.7,0.7-6.5c0.6-1.8,11.8-8.3,11.8-8.3L1509.4,1056.5L1509.4,1056.5z"/>
	<g>
		<path fill="#EFF476" d="M1499.3,1051l8.9,17c0,0,34.7-11.5,72.7-5l1.7-8.5l-32.7-20.8L1499.3,1051z"/>
		<path fill="#FFFAE6" d="M1506.3,1064.3c0,0,6.6-2.4,26.9-6.5s33.6-0.9,33.6-0.9l-2.8-9.5c0,0-27.7,0.6-40.2,3.8s-21,6.2-21,6.2
			L1506.3,1064.3z"/>
	</g>
	<path fill="#EFF476" d="M1577.6,1061.7c0.5,0.2,29.6,12.1,29.6,12.1l3.1-4.6l-23.1-14.3L1577.6,1061.7z"/>
	<path opacity="0.3" fill="#05132B" enable-background="new    " d="M1580.3,1019.5c7.2,6.8,9.3,10.8,2.3,18.8
		c-6.9,8-10.2-2.6-10.2-2.6L1580.3,1019.5z"/>
	<g>
		<path opacity="0.3" fill="#05132B" enable-background="new    " d="M1505.9,1044.2c4,22.2,9.2,39,17,44.3s12.3,1.7,20.2-7.5
			s26-27.8,26-27.8l-7.3-10.8L1505.9,1044.2z"/>
		<g>
			<path fill="#66BB3C" d="M1530.3,1075.2c-9-6.6-11.6-15.7-17.8-27.6l6.2-7.1l16.2,17.6L1530.3,1075.2z"/>
			<g>
				<path fill="#EFF476" d="M1527.7,1058.1l-11.1-10.8l44.3-42c0,0,16.3,0.6,19.9,4.3l-29.7,41.9L1527.7,1058.1z"/>
				<polygon fill="#A3A72E" points="1530.3,1075.2 1527.7,1058.1 1580.9,1009.7 1577.6,1037 				"/>
			</g>
		</g>
	</g>
	<g>
		<path fill="#8B1718" d="M1459.1,971.3h-1.4c-0.6-0.2-1.2-0.5-1.8-0.7c-3.8-1.6-7.1-3.2-9.4-4.5c-2.7-1.5-4.3-2.5-4.3-2.5l-1-8.6
			l7.6-13.1c0,0,5.2,3.3,8.3,12.7C1460.1,963.9,1459.1,971.3,1459.1,971.3z"/>
		<path fill="#CE2828" d="M1450.2,964.7c0,0-1.4,0.8-3.7,1.3c2.4,1.3,5.6,2.9,9.4,4.5l0.8-2L1450.2,964.7z"/>
	</g>
	<path opacity="0.3" fill="#05132B" enable-background="new    " d="M1440.7,954.3c7.9,10.4,9.6,10.4,9.6,10.4s2.5-2,5.2-9.7
		s6-17.4,6.3-22.4s-3.1-8.9-7.5-9.6S1440.7,954.3,1440.7,954.3z"/>
	<g>
		<path fill="#EFF476" d="M1419.2,930.7l-2,8.2l-0.9,3.9c-20.9-3.8-45.9-4-64.6-2.2l-3.7-9.3l-0.8-2.1c0,0,7.1-5.8,19.4-6.7
			C1378.9,921.7,1419.2,930.7,1419.2,930.7z"/>
		<path fill="#FFFAE6" d="M1366.6,922.5c-12.3,0.8-19.4,6.7-19.4,6.7l0.8,2.1c40.2,0.6,51.8,2.2,69.1,7.6l2-8.2
			C1419.2,930.7,1378.9,921.7,1366.6,922.5z"/>
	</g>
	<g>
		<path fill="#66BB3C" d="M1455.1,920.8c-0.1,1.1-0.3,2.2-0.9,3.1c-0.3,0.4-0.7,0.8-1.2,1.1c-3.3,1.6-9.6,1.7-18.2,9.7
			c-6.3,5.9-9.2,6.5-12.7,15.3c-3.3-1.8-7.6-4.1-12.7-7.1c-0.2-1.6,0.2-3.3,1.2-5.1c6.6-11.7,18.5-18.4,29.3-20.6
			c5.4-1.1,9.6,0.2,12.4,1.7C1453.5,919.5,1454.4,920.2,1455.1,920.8z"/>
		<path fill="#4A8935" d="M1420.2,955.5c0.7-2.2,1.3-4,2-5.6c-3.3-1.8-7.6-4.1-12.7-7.1C1409.9,948.1,1415.5,952.6,1420.2,955.5z"/>
		<path fill="#EFF476" d="M1454.2,923.9c0,0-5.2,20.1-8.6,33.3l-15.8,1.6l-2.9,0.3c0,0-3.1-1.3-6.7-3.5c0.7-2.2,1.3-4,2-5.6
			c3.5-8.8,6.3-9.4,12.7-15.3c8.6-8,14.9-8.2,18.2-9.7C1453.5,924.7,1453.9,924.3,1454.2,923.9L1454.2,923.9z"/>
		<path fill="#A3A72E" d="M1454.2,923.9c0,0-5.2,20.1-8.6,33.3l0.9-0.1l2.4-7.4c6.7-20.3,7.6-27.5,7.6-27.5s-0.5-0.6-1.4-1.4
			C1455,921.9,1454.7,923,1454.2,923.9L1454.2,923.9z"/>
	</g>
	<g>
		<path opacity="0.3" fill="#05132B" enable-background="new    " d="M1529.7,965.5c4.9,4.2,6.3,10,1.6,19.4s-7.3,12.3-13,15.2
			s-10.1,5.9-10.1,5.9v-10.6L1529.7,965.5z"/>
		<polygon fill="#64161C" points="1532.1,964.2 1518.6,993.3 1508.7,999.5 1505.3,994.3 1509.7,967.4 		"/>
		<polygon fill="#CE2828" points="1470.2,943.9 1481.6,940.5 1532.1,964.2 1513.9,973.8 1492.5,976.2 		"/>
		<polygon fill="#8B1718" points="1465,978.4 1470.2,943.9 1513.9,973.8 1505.3,994.3 		"/>
	</g>
	<g>
		<path fill="#EFF476" d="M1398.5,991c0,0,21,0.9,41.5,1.9c0,0,3.9-1.6,7.4-4.2c-11.1-2.1-30.4-5.5-46-7.4L1398.5,991z"/>
		<path fill="#FFFAE6" d="M1451,976.8c-7.4-8.4-45.6-9.4-45.6-9.4l-4.1,13.9c15.6,2,34.9,5.3,46,7.4
			C1451.4,985.7,1455,981.3,1451,976.8z"/>
	</g>
	<g>
		<path opacity="0.3" fill="#05132B" enable-background="new    " d="M1373,1027.1c9.4,11.6,17.8,11.6,22.5,8.6s9.2-17.1,12.4-30.7
			s9.7-32.5,9.1-36.9c-0.6-4.4-2.9-7.9-9.4-7.6S1373,1027.1,1373,1027.1z"/>
		<g>
			<path fill="#A3A72E" d="M1410.6,955.9c1.8,2.8,2.1,3.1,0,11.3c-2.1,8.2-17.4,58.3-18.6,60.7s-6,2.1-6,2.1l-13.8-7.8
				c0,0-10.1-40.5,5.7-53C1393.8,956.7,1410.6,955.9,1410.6,955.9z"/>
			<path fill="#EFF476" d="M1386.1,1029.9c3.6-1.5,6-11.2,10.2-25.2s12.4-38.5,13.2-41.7s-0.1-4.6-0.1-4.6s-6.2-4.6-18.8,3.1
				s-19.8,48.2-19.8,48.2L1386.1,1029.9z"/>
			<path fill="#66BB3C" d="M1360,1037.3c0,0-12.8-26.1-0.6-50.3s29.6-29.7,51.2-31.1l-1.2,2.5c0,0-12.7-2.6-24.2,10.8
				c-11.5,13.3-9.1,46.3,0.9,60.8L1360,1037.3z"/>
			<g>
				<path fill="#AAB05E" d="M1387.4,988.4c-1.5-2-4.9-0.1-3.4,2c0.1,0.2,0.2,0.4,0.4,0.6c0.3,5,2.4,10.9,5.3,14.6
					c0.8,1,2.3,0.5,2.9-0.4c1.3-2-0.4-5.5-0.9-7.6C1390.8,994.2,1389.5,991.3,1387.4,988.4z"/>
				<path fill="#AAB05E" d="M1391.2,972.8c-0.4,0-0.7,0.1-1.1,0.4c-1.8,1.8-1.1,4.5-0.7,6.7c0.6,3.4,1.7,6.1,3.3,9.2
					c0.5,0.9,2.1,0.8,2.3-0.3c1.1-5,0.9-10.5-1.6-15.1C1392.8,972.7,1391.9,972.5,1391.2,972.8z"/>
				<path fill="#AAB05E" d="M1400.9,977.6c-0.1-1.7-0.2-3.5-0.9-5c-0.3-0.7-1.3-1.1-2.1-0.8c-0.1,0-0.2,0-0.2,0.1
					c-0.9,0.3-1.3,1.1-1.1,2c-0.2,0.2-0.3,0.5-0.3,0.9c-0.1,2.5-0.2,5.2,1.1,7.5c0.6,1.1,2.3,1.1,2.9,0
					C1401.1,980.9,1400.9,979.1,1400.9,977.6z"/>
			</g>
		</g>
	</g>
	<g>
		<g>
			<path fill="#D6DEFF" d="M1428.9,963C1428.9,963,1428.9,963,1428.9,963C1428.9,963,1428.9,963,1428.9,963
				C1428.9,963,1428.9,963,1428.9,963z"/>
			<path fill="#D6DEFF" d="M1570.8,1022.6C1570.8,1023.1,1570.8,1022.9,1570.8,1022.6L1570.8,1022.6z"/>
			<path fill="#D6DEFF" d="M1488.5,952.2C1488.6,952.3,1488.6,952.3,1488.5,952.2C1488.6,952.3,1488.6,952.2,1488.5,952.2
				C1488.5,952.2,1488.5,952.2,1488.5,952.2z"/>
			<path fill="#D6DEFF" d="M1574.6,1054.1c0,0.1,0,0.2-0.1,0.2C1574.6,1054.9,1575,1053.8,1574.6,1054.1z"/>
			<path fill="#D6DEFF" d="M1558.4,983.4C1558.5,983.4,1558.5,983.4,1558.4,983.4L1558.4,983.4z"/>
			<path fill="#D6DEFF" d="M1461.7,955.9c0,0.2-0.1,0.3-0.1,0.4C1461.7,956.2,1461.7,956,1461.7,955.9z"/>
			<path fill="#D6DEFF" d="M1608.2,1044.7c0.2,0.1,0.4,0.2,0.4,0.1C1608.7,1044.8,1608.5,1044.7,1608.2,1044.7z"/>
			<path fill="#D6DEFF" d="M1608.2,1044.7C1607.7,1044.6,1607.2,1044.6,1608.2,1044.7L1608.2,1044.7z"/>
			<path fill="#D6DEFF" d="M1608.4,1044.7c-0.1,0-0.1,0-0.2,0l0,0C1608.3,1044.7,1608.3,1044.7,1608.4,1044.7z"/>
			<path fill="#D6DEFF" d="M1436.6,975c4.1-2.3,7-6.9,6.8-11.7c-0.2-4.3-3-10.5-7.4-12c-2.1-1.1-4.6-1.4-7.1-0.5
				c-4.8,1.6-7.9,5.9-8.6,10.8c-0.6,4.3-0.1,9.1,2.9,12.4C1426.7,977.8,1432.4,977.4,1436.6,975z M1428.9,963
				C1428.9,963,1428.9,963,1428.9,963C1428.9,963,1428.9,963,1428.9,963C1428.9,963,1428.9,963,1428.9,963z"/>
			<path fill="#D6DEFF" d="M1402,958.4c-3.2-0.2-6.2,1.2-8.1,3.4c0,0-0.1,0.1-0.1,0.1c-0.1,0.1-0.2,0.3-0.3,0.4
				c-0.1,0.1-0.2,0.2-0.2,0.4c-1.1,1.8-1.5,4-0.9,6.4c0.3,1.5,1.4,2.9,2.8,4c1.7,2.4,3.3,4.9,5.9,6.4c4.3,2.5,9.9,1.4,12.5-3
				c2.2-3.7,1.4-8.6-0.8-12.2C1410.4,960.5,1406.3,958.6,1402,958.4z"/>
			<path fill="#D6DEFF" d="M1398.6,947.9c3.4,2.9,8.6,3.5,12,0.2c1.5-1.5,2.4-3.7,2.4-5.9c0-1.3-0.3-2.8-1-3.9
				c-0.4-0.7-0.9-1.2-1.4-1.7c-1.5-2.8-4.6-4.8-7.8-4.8c-4.5,0-7.5,4.5-7.5,8.6C1395.2,943.1,1396.5,946.1,1398.6,947.9z"/>
			<path fill="#D6DEFF" d="M1458.1,962c2,0.5,4.2,0,5.7-1.5c1.5-1.5,2-3.6,1.6-5.7c-0.4-1.6-1.5-3.1-2.9-3.9
				c-2.7-1.6-6.5-0.6-7.6,2.4c-0.3,0.4-0.5,0.8-0.6,1.3c-0.3,1-0.4,2.2-0.1,3.2C1454.6,959.9,1456.2,961.5,1458.1,962z
				 M1461.7,956.3c0-0.1,0-0.3,0.1-0.4C1461.7,956,1461.7,956.2,1461.7,956.3z"/>
			<path fill="#D6DEFF" d="M1562.9,1030.9c4.2,4.6,9.7,2.9,13.9-0.6c3.2-2.6,6.8-7.4,5.6-11.8c-1.9-6.5-9.2-4.8-14.2-4.2
				c-0.5,0.1-0.9,0.2-1.4,0.3c1.5-3.3,1.4-7-1.5-10.3c-3.1-3.4-8.1-4-12.1-1.7c-1.7,1-3,2.3-4,3.9c-2.8-1.3-6.2-1.3-9.2-0.7
				c-2.9,0.7-4.8,2.1-5.9,3.9c-0.7-0.1-1.4-0.2-2.2-0.3c-3.8-0.2-8.6,0.5-11.4,3.4c-0.2,0.2-0.4,0.5-0.6,0.7
				c-2.6-0.6-5.4-0.5-8.1,0.3c1-2.9,1.2-6.2,0.9-9.6c-0.7-8.1-5.2-13-12.5-15.9c-3.3-1.3-6.5-1.7-9.4-1.2c0.6-3.6-0.2-7.5-2.9-10.4
				c-6-6.4-16.6-5.9-23.3-1.2c-0.5-2.7-1.7-5.2-4.5-7c-2.5-1.7-6.5-1.1-8.6,1.1c-3.5,3.8-7.5,7.1-11.5,10.3c-1.2,1-2.5,1.9-3.8,2.9
				c-7.6,3.6-13.2,11.9-5.8,18.8c5.5,5.2,13.3,2.3,19.2-0.3c4.1-1.8,9.1-4.1,12-7.7c0.5,0.2,1,0.3,1.5,0.3c0.8,2.4,2.4,4.5,4.7,6.1
				c-3.6,6.6-2.7,16.2,1.5,22.2c5.1,7.3,14.5,9.3,22.2,6.5c-1.6,6.9-2.5,16.6,2.3,22.2c4.8,5.6,13.4,5.2,18.5,0.2
				c0.1-0.1,0.2-0.2,0.3-0.3c0.2,0,0.3,0.1,0.5,0.1c3.8,0.7,7.9-0.7,11.2-2.7c3-1.8,5.5-4.3,7.2-7.2c1,0.5,2,0.9,3.2,1.2
				c7.2,1.6,12.1-3.4,13.8-9.4c0.5-0.2,1-0.4,1.4-0.6c1.8-1.1,2.9-3,3.9-4.8c0.7-1.1,1.2-2.3,1.6-3.5c1.6-0.3,3.2-1,4.7-1.9
				C1559.5,1025,1560.6,1028.3,1562.9,1030.9z M1570.8,1022.6C1570.8,1022.9,1570.8,1023.1,1570.8,1022.6L1570.8,1022.6z"/>
			<path fill="#D6DEFF" d="M1578.8,1036.7c-1.6-0.3-3.2-0.2-4.7,0.1c-4.3,0.7-8.3,3.3-10.7,7c-5.3,8.6-2,21.4,8.4,23.8
				c11.5,2.7,20.1-10,17.8-20.6C1588.5,1041.7,1584.1,1037.7,1578.8,1036.7z M1574.5,1054.3c0.1,0,0.1-0.1,0.1-0.2
				C1575,1053.8,1574.6,1054.9,1574.5,1054.3z"/>
			<path fill="#D6DEFF" d="M1617.9,1040c-0.9-4-4.1-6.4-7.9-7.5c-3.6-1-7.3,1.5-7.8,5.2c-0.1,0.8-0.1,1.6,0.1,2.3
				c-0.4,6,3.1,12.8,9.7,10.7C1616.4,1049.2,1619,1044.4,1617.9,1040z M1608.4,1044.7c-0.1,0-0.1,0-0.1,0l0,0
				C1608.3,1044.7,1608.3,1044.7,1608.4,1044.7z M1608.2,1044.7C1607.2,1044.6,1607.7,1044.6,1608.2,1044.7L1608.2,1044.7z
				 M1608.2,1044.7c0.2,0,0.5,0.1,0.4,0.1C1608.6,1044.9,1608.5,1044.8,1608.2,1044.7z"/>
			<path fill="#D6DEFF" d="M1545.3,983.7c1,2.8,2.8,5,5.4,6.5c3.3,1.9,7,0.8,10.1-0.9c5.3-2.8,10-9.3,6.3-15.2c-2-3.3-6-4.2-9.5-4.6
				c-2.4-0.3-5.5-0.3-7.9,0.6c-1.3,0.4-2.3,1.1-3.1,2.2c-1.3,1.4-2.1,3.2-1.9,5.1C1544.4,979.6,1544.7,981.9,1545.3,983.7z
				 M1558.4,983.4C1558.5,983.4,1558.5,983.4,1558.4,983.4L1558.4,983.4z"/>
			<path fill="#D6DEFF" d="M1487.6,951.3c0.1,0.1,0.2,0.2,0.3,0.3c0.3,2.1,1.7,4.2,3.8,4.6c0,0,0.1,0,0.1,0c3,0.6,5.6-0.8,6.6-3.7
				c0.7-2.1-0.2-4.5-1.7-6c-0.4-0.4-1-0.9-1.5-1.2c-0.6-0.4-1.3-0.5-2-0.6c0.1,0,0.2,0,0.3,0c-0.6-0.2-1.2-0.3-1.8-0.3
				c-0.4,0-0.8,0.1-1.2,0.2c-1.3,0.2-2.4,0.8-3.2,1.9c-0.2,0.2-0.5,0.5-0.6,0.8C1486.1,948.9,1486.3,950.4,1487.6,951.3z
				 M1488.5,952.2C1488.5,952.2,1488.5,952.2,1488.5,952.2C1488.6,952.2,1488.6,952.3,1488.5,952.2
				C1488.6,952.3,1488.6,952.3,1488.5,952.2z"/>
			<path fill="#D6DEFF" d="M1436.9,1020.7c-1.7-2.2-4.5-3.3-7.7-2.5c-3.8,0.9-8.7,3.7-11.2,6.8c-6.7,8,0.2,21.6,10.1,22.3
				c10.6,0.8,18.4-13,13.6-22.1C1440.7,1023,1438.9,1021.5,1436.9,1020.7z"/>
		</g>
		<g>
			<path fill="#FFFAE6" d="M1552.8,976.9L1552.8,976.9C1552.8,976.9,1552.8,976.9,1552.8,976.9L1552.8,976.9
				C1552.8,976.9,1552.8,976.9,1552.8,976.9z"/>
			<path fill="#FFFAE6" d="M1553.7,978.5C1554.1,978.2,1554.1,978.2,1553.7,978.5C1553.7,978.5,1553.7,978.5,1553.7,978.5z"/>
			<path fill="#FFFAE6" d="M1551.8,1023.1C1551.8,1023.1,1551.8,1023.2,1551.8,1023.1C1551.8,1023.2,1551.8,1023.1,1551.8,1023.1z"
				/>
			<path fill="#FFFAE6" d="M1403.2,961.1c-0.3,0.1-0.3,0.1-0.1,0.1C1403.1,961.1,1403.1,961.1,1403.2,961.1z"/>
			<path fill="#FFFAE6" d="M1552.8,977.7L1552.8,977.7C1552.5,977.9,1552.7,977.8,1552.8,977.7z"/>
			<path fill="#FFFAE6" d="M1431.3,957.8c-0.1,0-0.2,0-0.3,0.1C1431.1,957.8,1431.2,957.8,1431.3,957.8
				C1431.2,957.8,1431.3,957.8,1431.3,957.8z"/>
			<path fill="#FFFAE6" d="M1571.6,1045.6c0-0.1,0-0.2,0-0.2C1571.6,1045.4,1571.6,1045.5,1571.6,1045.6L1571.6,1045.6z"/>
			<path fill="#FFFAE6" d="M1487.8,952.3c0.1,0.1,0.1,0.1,0.2,0.2c1.1,0.8,2.6,1.2,3.9,0.8c2.5-0.8,3.7-3.8,2.3-6.1
				c-0.7-1.2-2-1.9-3.4-2c-1.3,0-3,0.6-3.5,1.9c0,0.1-0.1,0.2-0.1,0.2c-0.5,0.6-0.8,1.4-0.7,2.2
				C1486.5,950.6,1487,951.6,1487.8,952.3z"/>
			<path fill="#FFFAE6" d="M1433.9,972c3.3,0.7,6.3-1.2,7.7-4.2c1.4-3,1.1-6.5-1.2-9c-1.3-1.4-3.1-2.3-4.9-2.4
				c0-0.3-0.1-0.6-0.2-0.9c-0.4-1.3-1.4-2.4-2.7-2.8c-0.5-0.1-1-0.2-1.5-0.1c-0.6-0.2-1.3-0.2-1.9,0c-1.8,0.5-2.9,2.2-2.9,4.1
				c0,1.6,0.8,3.2,2.3,4c0,0,0.1,0,0.1,0c-1.2,1.6-1.8,3.5-1.4,5.4C1427.8,969.1,1430.9,971.4,1433.9,972z M1431.3,957.8
				C1431.3,957.8,1431.2,957.8,1431.3,957.8c-0.1,0-0.2,0-0.3,0.1C1431.1,957.8,1431.2,957.8,1431.3,957.8z"/>
			<path fill="#FFFAE6" d="M1405.2,947c2,0.5,4.6-0.5,5-2.7c0-0.1,0-0.2,0-0.3c0.6-1.4,0.5-3.1-0.3-4.4c-1.1-1.8-3.5-2.4-5.3-1.3
				c-1.4,0.9-2.5,2.9-2.5,4.6C1402.1,944.8,1403.3,946.5,1405.2,947z"/>
			<path fill="#FFFAE6" d="M1411.8,965.3c-0.3-2.2-1.9-4.3-4.1-4.8c-2.5-0.6-5.6,0.6-7.3,2.4c-2.1,2.1-2.5,5.6-0.8,8.1
				c1.6,2.5,4.8,3.7,7.6,2.8c1.5-0.5,3.1-1.4,4.1-2.7c1.3-1.7,1.5-3.7,0.7-5.7C1411.8,965.3,1411.8,965.3,1411.8,965.3z
				 M1403.2,961.1c-0.1,0-0.1,0-0.1,0.1C1402.9,961.2,1402.9,961.2,1403.2,961.1z"/>
			<path fill="#FFFAE6" d="M1434.7,1016.5c-2.6,0.4-4.9,2.1-5.8,4.7c-1.2,3.2-0.4,7.3,2.4,9.4c2.5,1.8,6.3,1.6,9,0.3
				c3.4-1.6,4.7-6.1,3.5-9.5C1442.6,1017.8,1438.4,1014.9,1434.7,1016.5z"/>
			<path fill="#FFFAE6" d="M1464.9,974.6c-0.7-3-3.4-5.3-6.2-6.1c-2.1-0.6-4.1-0.5-5.9,0c-4,0.4-7.3,3.7-9,7.2c-1.8,4-3,9.6,0.6,13
				c3.4,3.3,9.3,2.2,13.1,0.3c3.7-1.9,7.5-6.3,7.4-10.7c0-0.2,0-0.4-0.1-0.6C1465.1,976.8,1465.2,975.7,1464.9,974.6z"/>
			<path fill="#FFFAE6" d="M1503.7,1009.3c2.5-1,3.4-2.3,4.4-4.5c5.8-4.9,2.2-14.7-5-16.8c-5.6-1.7-12.8,2.3-15,7.8
				c-0.5-0.2-1.1-0.3-1.6-0.4c0.8-0.8,1.5-1.6,2.2-2.6c1.5-2.2,2.6-5.3,2.4-8.2c0.3-1.7-0.1-3.5-1.2-5.2c-1.9-3-5.5-4.2-9-3.8
				c-6,0.7-11.5,6-10.6,12c-0.2,4.3,2.5,7.9,6.3,9.8c0.2,0.1,0.5,0.2,0.8,0.3c-0.1,0-0.1,0.1-0.2,0.1c-1.8,1.6-3,4.2-3,6.7
				c0,0,0,0,0,0c0,0.1,0,0.2,0,0.2c0,3.2,1.6,6.2,4.8,7.5c3.3,1.4,7.8,1.3,11.1,0c1.7-0.7,2.9-1.9,3.8-3.3c1.2,0.6,2.5,1,3.9,1.2
				C1499.7,1010.3,1501.8,1010,1503.7,1009.3z"/>
			<path fill="#FFFAE6" d="M1550.3,984.8c5.5,0.8,12-4,10.5-10c-0.8-2.9-3.1-5.1-6-5.7c-0.2-0.1-0.4-0.2-0.6-0.2
				c-2.7-0.8-5.9,0.8-7.8,2.8C1542.3,975.9,1543.9,983.9,1550.3,984.8z M1552.8,977.7L1552.8,977.7
				C1552.7,977.8,1552.5,977.9,1552.8,977.7z M1552.8,976.9L1552.8,976.9C1552.8,976.9,1552.8,976.9,1552.8,976.9L1552.8,976.9
				C1552.8,976.9,1552.8,976.9,1552.8,976.9z M1553.7,978.5C1553.7,978.5,1553.7,978.5,1553.7,978.5
				C1554.1,978.2,1554.1,978.2,1553.7,978.5z"/>
			<path fill="#FFFAE6" d="M1565.7,1027.6c4.1,0.6,8.1-3.2,8.2-7.3c0.1-2.4-1.3-4.7-3.3-5.9c-0.8-0.5-1.8-0.9-2.9-1
				c0.2-0.6,0.3-1.2,0.3-1.9c0-5-5.9-9.8-10.9-8.6c-4.9,1.2-6.3,6.7-4.9,10.8c-0.1,0.9,0,1.7,0.3,2.5c-2.2,0.1-4.5,1.2-5.9,3
				c-1.2-1.6-2.7-2.9-4.6-3.8c-1.4-0.7-2.6-1-3.8-1c-0.5-0.9-1.2-1.7-1.9-2.3c-4.2-3.8-11.5-3.5-15.5,0.6c-0.9,0.9-1.6,2.2-2,3.6
				c-0.7,0.5-1.3,1-1.8,1.6c-0.6-0.5-1.2-1-1.9-1.4c-0.9-0.5-2-1-3-1.2c-3.3-2.1-7.5-2.4-10.6,0.4c-6.7,6-3.2,18.3,6.3,18.2
				c0.1,0,0.2,0,0.3,0c2.1,0.3,4.3,0.1,6.2-0.8c0.8-0.4,1.4-0.8,2.1-1.4c1.9,3.9,5.3,7,9.8,7.2c1.6,0.1,3.5-0.5,5.4-1.4
				c1.4,2.9,4.7,4.8,8.6,3.8c5.9-1.5,9.3-6.3,9.4-12.3c0-0.2,0-0.4,0-0.6c1.6,0.4,3.4,0.1,4.8-0.8c1.4-0.9,2.6-2.4,2.9-4.1
				c0.1-0.1,0.2-0.2,0.2-0.3c0.7-0.9,0.7-2.1,0.4-3.1c0.6,0,1.2,0,1.7,0c-0.4,2,0,4.1,1.5,5.5c0.8,0.7,1.7,1.2,2.7,1.6
				c0.4,0.2,0.3,0.1,0,0C1564.4,1027.2,1564.9,1027.5,1565.7,1027.6z M1551.8,1023.1C1551.8,1023.1,1551.8,1023.2,1551.8,1023.1
				C1551.8,1023.2,1551.8,1023.1,1551.8,1023.1z"/>
			<path fill="#FFFAE6" d="M1573.1,1038.4c-1.9,0.2-3.6,0.7-5.1,2.1c-0.9,0.8-1.5,1.9-1.8,3.1c-0.3,0.5-0.6,0.9-0.8,1.4
				c-0.9,1.8-1.2,3.8-0.1,5.6c0.8,1.4,2.3,2.3,3.8,2.7c2.5,0.7,5.2-0.1,7.3-1.6c1.1-0.8,2.2-1.6,3-2.8c1-1.6,1.1-3.6,0.8-5.3
				C1579.3,1040.1,1576.5,1038,1573.1,1038.4z M1571.6,1045.6L1571.6,1045.6c0-0.1,0-0.2,0-0.2
				C1571.6,1045.4,1571.6,1045.5,1571.6,1045.6z"/>
			<path fill="#FFFAE6" d="M1609,1031.9c-1-0.3-2.3-0.3-3.4,0.1c-1.5,0.5-2.6,1.5-3.3,2.9c-0.5,1.1-0.8,2.3-0.4,3.4
				c0.2,0.4,0.3,0.7,0.4,1.1c0.3,0.5,0.7,1,1.2,1.3c0.1,0.1,0.1,0.2,0.2,0.2c1.2,1.2,2.9,1.8,4.6,1.3c1.4-0.4,2.5-1.3,3.2-2.5
				C1613.4,1037,1612.3,1032.8,1609,1031.9z"/>
		</g>
	</g>
	<g>
		<polygon fill="#EFF476" points="1470.2,1065 1470.2,1065 1470.2,1065 		"/>
	</g>
	<path fill="#747B2C" d="M1442,946.3c-0.5-2-1-4.8-2.8-6c-1.7-1.2-3.2,1.2-2.2,2.6c-0.4,1.8-0.2,3.7,0.3,5.6
		c0.4,1.8,1.7,4.3,3.9,3.3C1443.3,950.8,1442.4,948,1442,946.3z"/>
</g>
</svg>
