<?xml version="1.0" encoding="utf-8"?>
<!-- Generator: Adobe Illustrator 21.1.0, SVG Export Plug-In . SVG Version: 6.00 Build 0)  -->
<svg version="1.1" id="Layer_1" xmlns="http://www.w3.org/2000/svg" xmlns:xlink="http://www.w3.org/1999/xlink" x="0px" y="0px"
	 viewBox="0 0 2000 2000" enable-background="new 0 0 2000 2000" xml:space="preserve">
<g>
	<g id="Layer_23">
		<path fill="#282828" class="main-body-fill" d="M1418.5,1035l10.5-21l79-3.5l67,53.5l-67,14.5c0,0-73.5-22.5-74-24S1418.5,1035,1418.5,1035z"/>
		<path fill="#494949" d="M1641,1083c4-37-3.4-58.9-33.4-81.4S1469,928.3,1412,957c-9.8,4.9-17.1,10.2-22.7,15.9
			c-6.3,8-12.3,18.6-18,33c-1.3,4.2-2.4,8.5-3.6,13c12.4-27.6,17.4-21.8,33.9-10.8c18,12,37.4,25,71.4,45s65,34,80,53
			s13.7-29.7,30.7-19.7c5.9,3.5,5.9,27.8,10,30c-6.8-54.5,6.7-34.4,9.3-34C1622,1085.3,1637.4,1116.6,1641,1083z"/>
		<path opacity="0.3" fill="#091426" enable-background="new    " d="M1658,1089c0.1-1,0.2-2,0.3-3c-0.5,1.4-1,2.7-1.6,4.1
			c-4.8,11.3-12.9,21.7-24.1,26.8c-15,6.8-33,2.8-47.4-5.3c-14.3-8.2-26.1-20.1-38.8-30.6c-32.1-26.2-70.7-43-107-63
			c-15.2-8.4-30.9-18.4-38-34.3c-2.5-5.7-3.6-11.9-3.4-18.1c-3.3,2.4-6.2,4.8-8.7,7.4c-6.3,8-12.3,18.6-18,33
			c-1.3,4.2-2.4,8.5-3.6,13c12.4-27.6,16.2-24.9,32.7-13.9c18,12,38.6,28,72.6,48s65,34,80,53s21,4.3,38,14.3
			c5.9,3.5,7.9-25.5,12-23.3c2.2,0.6-0.6,14.3,2,14.7C1624,1114.7,1654.4,1122.6,1658,1089z"/>
	</g>
	<g id="_x32_5_x5F_Props_x5F_MagnifyingGlass.png">
		<path fill="#EA4AAA" d="M1624.5,818c12.3-2.5,23.8-5,35.3-7.2c42.8-8.1,78.2,7.3,99.8,43.4c21.3,35.6,18.2,78.8-8.4,111
			c-33,39.8-76,62.3-126.8,67.5c-55.8,5.8-112,8.5-168,12.7c-5.7,0.4-9.5-0.7-11-7.3c-13.6-60.5-26.8-121-30.2-183.2
			c-2.5-46,8.7-88,36.4-125.1c24.3-32.5,65.9-45.4,105.4-33.5c39.8,12.1,63.1,41.8,65.7,84.5C1623.5,792.9,1623.9,805,1624.5,818z"
			/>
		<path fill="#B93A86" d="M1418.9,801.9c-3.5,17-4.7,34.6-3.7,52.9c3.4,62.2,16.6,122.7,30.2,183.2c1.5,6.6,5.3,7.7,11,7.3
			c56-4.1,112.2-6.9,168-12.7c50.8-5.2,93.8-27.7,126.8-67.5c15.1-18.3,22.7-40.1,22.5-62c-20.4,53.4-76.9,82.9-132.8,95.7
			c-16.7,3.7,41.3-38.2,24.1-42.6c-36.7-9.3-99.8,49.7-104,49.7c-25.1-0.2-53.5-11.4-63.9-18.6c-40.2-27.8-62.7-76.7-77.1-155.9
			C1419.1,815.8,1418.9,801.9,1418.9,801.9z"/>
		<path fill="#F692CE" d="M1574.8,729c0.5-9.7-17.2-21.7-40.7-23s-43.9,8.8-44.5,18.5s18.1,18.5,41.6,19.8
			C1554.8,745.5,1574.2,738.7,1574.8,729z"/>
		<path fill="#F692CE" d="M1681.4,842c12,0.5,20.9-4.4,21.1-10.1s-9.8-9.8-21.8-10.3c-12-0.5-23.9,4-24.1,9.7
			S1669.4,841.5,1681.4,842z"/>
	</g>
	<g id="Layer_22">
		<path fill="#282828" class="main-body-fill" d="M1506.8,1147.7c1.7-3.7,4.7-9.1,4.7-9.1s7.9,3.5,14,6.3c18.6,8.4,48.6,15.4,90.9-4.3s52.6-57.6,57.2-72.5
			s11.5-37.4,9-68c0,0,15.8-26.4,2.5-38.2s-29.6-7.5-56,7.8s-48.4,28.6-71.8,49.2c-21.8,19.2-53.5,36.1-86.5,25.6
			c-3-0.1-18.7,1.1-22.1-0.2c-3-1.2-4.2-9.4-4.7-11.7c-23.2-11.8-40.9-24.5-62.9-46.7c0,0-6.4,8.5-12.5,32
			c-6.1,23.5-8.9,48.8-9.3,55.5c-0.6,8.3,7.1,11.9,14.5,16.3c26.7,16.2,28.7,18.2,58.6,31.2s49.6,20.1,60.6,23.4
			S1506.8,1147.7,1506.8,1147.7z"/>
		<g>
			<g>
				<defs>
					<path id="SVGID_1_" d="M1506.8,1147.7c1.7-3.7,4.7-9.1,4.7-9.1s7.9,3.5,14,6.3c18.6,8.4,48.6,15.4,90.9-4.3
						s52.6-57.6,57.2-72.5s11.5-37.4,9-68c0,0,15.8-26.4,2.5-38.2s-29.6-7.5-56,7.8s-48.4,28.6-71.8,49.2s-58.8,38.5-94.2,22.8
						s-54-27.6-82-55.8c0,0-6.4,8.5-12.5,32s-8.9,48.8-9.3,55.5c-0.6,8.3,7.1,11.9,14.5,16.3c26.7,16.2,28.7,18.2,58.6,31.2
						s49.6,20.1,60.6,23.4S1506.8,1147.7,1506.8,1147.7z"/>
				</defs>
				<clipPath id="SVGID_2_">
					<use xlink:href="#SVGID_1_"  overflow="visible"/>
				</clipPath>
				<g clip-path="url(#SVGID_2_)">
					<path fill="#36393E" d="M1367.5,1022.8c9.6-26.1,13.8-27.4,24.7-28.3c11-0.9-12.4-13.6-12.4-13.6l-15.4,19.8L1367.5,1022.8z"/>
					<path opacity="0.3" fill="#091426" enable-background="new    " d="M1692.2,957.2c-4.8,14.8-17.1,28.4-28,37.8
						s-23.6,11-20.5,16.2s16.5,4.2,29.2-3.5c0,0-1.8,46.2-29.7,76.5s-70.7,43.6-115.5,27.8s-71.6-29.9-76.5-30.8s-1.1,3.1,3.2,9
						s-0.6,18.9-13,34.4l64.4,58.9l157.6-16.4l58-134.5L1692.2,957.2z"/>
				</g>
			</g>
		</g>
	</g>
	<g id="Layer_25">
	</g>
</g>
</svg>
