<?xml version="1.0" encoding="utf-8"?>
<!-- Generator: Adobe Illustrator 21.1.0, SVG Export Plug-In . SVG Version: 6.00 Build 0)  -->
<svg version="1.1" id="M87_x5F_BH" xmlns="http://www.w3.org/2000/svg" xmlns:xlink="http://www.w3.org/1999/xlink" x="0px" y="0px"
	 viewBox="0 0 2000 2000" enable-background="new 0 0 2000 2000" xml:space="preserve">
<g>
	<g>
		<path fill="#971819" stroke="#961818" stroke-width="0.4047" stroke-miterlimit="10" d="M1795,804.6c-8.8,9.6-15.2,21.5-28.9,27.5
			c-1.7,0.9-3.5,1.7-5.3,2.8c-13,7.4-28.1,13-44.5,15.3c-13.7,1.9-29.2,0.7-44.7-1.5c-30.4-4.3-61.9-12.5-91.3-26.3
			c-28.4-13.3-54.9-32.1-71.9-53.8c8.8,9.5,18.7,18.7,30,27c6.7,4.9,13.7,9.5,21,13.8c7.4,4.2,15,8.1,22.9,11.5
			c23.1,10.1,46.8,15.1,70,17.8c12.3,1.4,24.3,2.1,36.4,3c7.9,0.5,22.7,4.2,27-0.3c35.6-36.8,61.1-24.3,62.6-40.7
			c1-26.1,3.6-19.9,6.2-30c3.4-13.7,2.8-28.8-1.3-44.5c-0.6-2.2-0.9-4.5-1.2-6.9c-0.2-18.1-10.3-38.4-29.7-55.3
			c-4.6-4.2-11-7.6-16-12c-7.3-6-10.6-13.4-17.6-19.9c-9.8-9.3-18.1-17.6-27.7-27.4c-3.5-3.4-8.6-6.3-14.1-7.1
			c-11-1.7-23.1-5.5-29.4-14.4c-1.9-2.2-4.5-3.7-7.3-4.9c-5.6-2.6-11.2-5-16.9-7.3c-2.9-1.1-5.7-2.2-8.6-3.3
			c-19.8-9.6-40.9-15.1-60.9-16.2c-2.9-0.5-5.8-0.9-8.6-1.3c-8.6-1.1-17.1-1.8-25.4-2.1c-7.4-0.2-16.4,1.9-13.2,7.7
			c2.3,4.3,9.4,6.5,15.1,7.8c5.6,1.3,11.3,2.6,16.9,3.9c2.8,0.6,5.6,1.3,8.5,1.9c21.7-3,46.2-1.2,67.7,15.5c2.9,0.8,5.7,1.5,8.5,2.1
			c4.2,1,8.5,2,12.6,3.3c2.1,0.7,4.1,1.7,5.9,3.5c8.2,9.5,19.9,16.5,29.5,25.1c2,2.1,4.1,4.3,5.6,6.5c14.2,24.6,39.2,46.8,68.2,65.1
			c2.7,1.8,3.8,3.8,3,5.7c-1.4,2.2-5,2.8-5.5,5.7c-0.5,0.9-0.8,2.3-1.1,3.6c-0.3,1.4-0.6,2.7-0.8,4.1c-1.8,10.6,10.3,21.1,9,31.6
			c-2.5,15-1.5,32.9-11.9,43.8c-2.6,2.7-5.9,5-10.8,6.7c-18.6,10.6-23.9,18.5-57.1,20.4c-0.5,0.5-11.1,0.3-32.2-0.9
			c0,0-91.4-9.2-122.7-80.8c-0.2-0.6-3.2-6.9-4.8-15.5c-12.6-67,112.7-66,143.7-0.7c-44.9-62.3-169-40.5-111.4,38.9
			c35.8,49.4,129.4,79.9,181.4,32.2c29.1-30.2-2.9-95.1-28.4-113.5c-14.9-10.9-28.1-21.8-42-32.9c-2.7-1.7-5.5-3.5-8.4-5.1
			c-11.5-6.6-23.8-12.3-36.1-15.8c-2.5-0.7-4.9-1.3-7.4-1.8c-10.3-2.5-19.7-2.3-28.5-1.1c-2.2,0.4-4.6,0.5-7,0.4
			c-21.5-0.6-47.9-16-64.2-6.5c-11.5,7-26.4,10-39.1,16c-3.7,2-6.5,4.8-10.2,6.8c-4.4,2.4-18.4,0.4-18.2,11c0.8,5.1,6.5,12,2.1,14.4
			c-5.7,3.2-9.2,8.2-11.4,14.1c-0.9,1.1-1.5,2.1-2.2,3.2c-8.4,11.6-8.7,26.5-3,42.3c1.3,4,3.2,8.9-0.8,10.2
			c-9.1,3.2-6.7,13.9-2,21.5c1.5,2.2,4.5,4.5,7.4,4.5c6.9-0.1,7-5.3,11-7.9c1.5-1.2,4.4-1.2,6.3,1.2c2.8,3.7,4.6,7.6,5.6,11.2
			c2.1,10.3,3.9,20.1,8.9,30.4c1.6,1.6,3.3,3.1,5.1,4.6c5.4,4.4,11.5,8.4,18.3,11.9c12.2,6,14.1,17.7,21.7,26.4
			c1.6,2.1,3.8,4.1,6.1,6s4.5,3.9,6.7,5.8c7.2,6.1,11.5,11.4,17.1,17.5c6.2,6.8,11.3,8.9,21.5,12.8c23.1,9,47.1,15.3,70.3,18.4
			c6.6,0.9,14.1,1.2,16.7-2.4c2.6-3.7-1.3-9.8-6.9-13.7c-5.7-3.9-12.6-6.1-19.2-8.2c-17.9-5.5-36-11-53-19.2
			c-14.9-7.2-29.3-16.7-38.8-27.7c-1.3-1.7-2.6-3.4-3.6-5.5c2.4,2.2,5,4.1,7.6,5.9c65.9,43.3,152.8,64.2,216.9,51.6
			c11-2.2,21.2-5.2,31.1-8.7c2-0.7,4-1.4,6.3-1.9c17.8-2.8,34.6-9.1,36.4-24.2c1-8.3,5.7-14,8.2-21.3c1.3-4.4,1.2-10-4.6-14.8
			c-6.7-5.1-15.8-4.1-20.2-0.8C1797.8,801.8,1796.3,803.2,1795,804.6z M1635.5,725.6c0.2,2.1,0,4.2-0.6,6.1l-0.2,0.7
			c-0.1,0.2-0.2,0.5-0.3,0.7c-0.2,0.5-0.4,0.9-0.6,1.3c-0.5,0.8-1.1,1.6-1.8,2.3c-1.4,1.4-3.2,2.6-5.3,3.5c-2.2,0.8-4.6,1.4-7.3,1.5
			c-1.2,0.1-2.4,0.1-3.7,0c0.7,0,1.5-0.1,2.2-0.2c3.6-0.5,6.7-1.6,9.2-3.3s4.3-3.9,5.4-6.5c0.1-0.3,0.3-0.6,0.4-1l0.2-1
			c0.1-0.3,0.2-0.7,0.2-1l0.1-1.1c0-0.4,0.1-0.7,0-1.1l-0.1-1.1c0-0.4,0-0.8-0.1-1.1l-0.2-1.1c-1.2-6-5.1-12.4-11.1-18
			c-1.6-1.5-3.3-2.9-5.1-4.2c0.1,0.1,0.3,0.2,0.4,0.2c5.2,3.1,9.6,7,12.8,11.3C1633.1,716.7,1635.1,721.3,1635.5,725.6z
			 M1596.6,735.8c-0.3-0.2-0.6-0.4-0.9-0.6l-0.9-0.6c-0.3-0.2-0.6-0.5-0.9-0.7c-2.4-1.8-4.4-3.9-5.9-6.1c-0.9-1.2-1.5-2.5-2.1-3.8
			c0-0.2,0.1-0.4,0.1-0.6l0.1-0.7c0-0.2,0.2-0.5,0.2-0.7l0.2-0.7c0.1-0.2,0.2-0.4,0.3-0.6c0.9-1.7,2.5-3.2,4.4-4.2
			c2-1.1,4.4-1.7,7.2-1.9c2.7-0.2,5.7,0.1,8.8,0.8l0,0c1.9,0.4,3.4-0.2,3.5-1.5c0.1-1.4-1.4-2.9-3.4-3.5c-4-1.2-8.1-1.7-11.9-1.7
			c-3.8,0.1-7.3,0.8-10.3,2.1c-0.5,0.2-1,0.5-1.5,0.7c-0.1-0.1-0.2-0.1-0.3-0.2c-1.9-0.9-3.9-0.8-4.6,0.3c-1.2,2-1.8,4.4-1.8,6.9
			c-0.1,0.1-0.1,0.3-0.2,0.4l-0.3,1c-0.1,0.3-0.2,0.7-0.3,1l-0.1,1.1c0,0.4-0.1,0.7-0.1,1.1v1.1c0,5.8,2.9,12.3,8,18.2
			c2.2,2.5,4.7,4.9,7.6,7.1c-4.8-2.5-9.4-5.5-13.3-9c-4.4-3.9-8-8.2-10.5-12.6c-1.2-2.2-2.2-4.5-2.9-6.7c-0.2-0.6-0.3-1.1-0.4-1.7
			c-0.2-0.6-0.2-1.1-0.3-1.6c-0.1-1-0.2-2.1-0.2-3.1c0.1-4,1.8-7.7,4.8-10.4c3-2.8,7.4-4.7,12.6-5.4c2.6-0.3,5.4-0.4,8.3-0.2
			l1.1,0.1c0.4,0,0.7,0.1,1.1,0.1c0.8,0.1,1.5,0.2,2.2,0.3c1.4,0.3,2.9,0.6,4.3,1c2.9,0.8,5.7,2,8.4,3.5c2.7,1.5,5.3,3.2,7.5,5.1
			c4.5,3.8,7.7,8.4,9,12.9l0.2,0.8c0.1,0.3,0.1,0.5,0.1,0.8l0.1,0.8c0.1,0.3,0,0.5,0,0.8v0.8c0,0.3-0.1,0.5-0.1,0.7l-0.1,0.7
			c0,0.2-0.1,0.5-0.2,0.7c-0.5,1.9-1.7,3.6-3.3,4.9c-1.7,1.3-3.8,2.3-6.4,2.8c-2.5,0.5-5.4,0.6-8.4,0.2l0,0c-1.8-0.3-3.2,0.6-3,2
			c0,0.3,0.2,0.6,0.3,0.9c-0.3-0.1-0.6-0.2-0.9-0.4l-1.1-0.5c-0.4-0.2-0.7-0.3-1-0.5l-1-0.5c-0.4-0.2-0.7-0.4-1-0.6L1596.6,735.8z
			 M1639,749c-3.7,2.3-8.6,3.5-14.2,3.6c-2.8,0-5.7-0.2-8.7-0.8l-1.1-0.2c-0.4-0.1-0.7-0.2-1.1-0.2c-0.8-0.2-1.5-0.4-2.2-0.5
			c-1.4-0.4-2.9-0.9-4.3-1.4c-2.8-1.1-5.6-2.5-8.1-4.2c-1.1-0.8-2.3-1.6-3.3-2.4l0.2,0.1c0.5,0.3,1,0.5,1.5,0.8l1.4,0.7
			c7.8,3.7,16.5,5.7,24.2,5.6c3.9,0,7.5-0.6,10.7-1.7c3.2-1.1,6-2.6,8.2-4.6c1.1-1,2.1-2.1,2.9-3.2c0.4-0.6,0.8-1.2,1.1-1.8
			c-0.1,0.4-0.1,0.7-0.2,1.1C1645.2,743.6,1642.7,746.8,1639,749z M1643.6,673.1c5.1,2.5,9.7,5.2,14.2,8.3c2.2,1.7,2.2,4.3-0.1,4.7
			c1.4,1.4,2.7,2.8,4,4.2s2.5,2.8,3.7,4.3c7,8.7,12,17.9,14.4,26.9s2.2,17.6-0.6,25.3c-0.3,1-0.7,1.9-1.2,2.8
			c-0.4,1-0.9,1.8-1.3,2.7c-1,1.7-2.1,3.3-3.5,4.8c-2.7,3-6.1,5.5-10.1,7.6c-1.1,0.6-2.2,1.1-3.4,1.5c4.8-2.3,8.9-5.2,12.2-8.7
			c2-2.1,3.6-4.4,4.9-6.8c0.3-0.6,0.7-1.2,0.9-1.9l0.8-1.9l0.7-2c0.2-0.7,0.4-1.4,0.5-2c0.6-2.8,0.9-5.6,0.9-8.6l-0.1-2.2
			c0-0.7-0.2-1.5-0.2-2.3c-0.1-0.8-0.2-1.5-0.4-2.2c-0.1-0.7-0.3-1.5-0.4-2.2c-2.7-12-9.7-24.7-20.3-36.2c-1.8-2-3.2-3.7-2.7-4.4
			c1.4-2.1-2-5.1-4.6-6.6C1649.6,676.5,1646.8,674.8,1643.6,673.1z"/>
		<path fill="#E76437" stroke="#E86438" stroke-width="0.4358" stroke-miterlimit="10" d="M1692.7,631.8c-0.7,0.2-0.7-0.8-1.7-0.8
			c7,3,8,11,13.1,15c0.6,0.6,1.2,1.1,1.9,1.7c0.6,0.5,1.3,1.1,2,1.6c0.8,0.8,1.5,1.5,2.2,2.3c3.2,3.7,6.1,7.5,8.9,11.3
			c0.6,0.8,1.2,1.6,1.9,2.4c7.1,4.6,10.1,12.6,12.5,20.2c0.5,0.8,0.9,1.7,1.4,2.5c1.4,2.5,2.7,5.1,4.1,7.6c0.8,1.8,4.9,2.9,5.6,4.8
			c3.7,10.5,10.9,21.4,10,31.6c0.6-9.7-7.1-20.1-11.4-29.9c-0.8-1.7-5-1.4-5.9-3c-1.8-3-2.4-6.7-3.5-10.2c-0.2-0.7-0.4-1.4-0.7-2.1
			c-3.1-7.9-7.1-14.9-15.3-20.2c-0.7-0.7-1.4-1.5-2-2.2c-3.4-3.6-7-7.2-10.8-10.7c-0.8-0.7-1.6-1.4-2.4-2.1c-0.7-0.5-1.3-1-1.9-1.5
			s-1.3-1-1.9-1.5c-4.7-4.7-9.7-8.7-15.8-12.8c-0.9-0.6-1.8-1.3-2.6-1.9c-38-26.6-86.1-45.3-129.7-49.2
			c63.4,14.7,136.8,49.5,167.6,99.2c-13.3-19-33.4-35.1-57.1-49.1c-4.9-2.4-8.2-6.4-13.5-8.4c-40.4-17.5-80.2-32.4-118.5-30.8
			c-3.6,0.1-5.9,1.7-8,3.7c-0.7,0.6-1.4,1.3-2.1,2c-4.3,3.2-10.9,7.9-19.3,3.9c-1.7-0.4-3.6-0.7-5.5-0.9c-23.2-2.3-38.4,8.2-47,22.7
			c-2.7,4.4-8.9,7.3-11.6,11.6c2.4-1.8,4.9-3.5,7.4-5.1c0.9-0.5,1.7-1.1,2.6-1.6c4.3-2.6,9-4.7,12.3-8.4c1.2-0.9,2.5-1.8,3.8-2.5
			c12.9-7.6,31.3-8.7,49.8-10.3c26.1-2.4,53.7-5.1,83.1,6c2.3,0.8,4.7,1.7,7,2.6c23,9,45.7,21.9,64.5,34.7c3,1.9,6.4,3.3,8.8,5.1
			c8.9,7.5,17.2,15.6,24.2,23.8c1.2,1.6,2.4,3.3,3.1,4.8c2.7,7.7,10.2,15,12.7,22.6c6.3,18.4-1.6,33.6,7.2,52.5
			c4.9,12.1-7.7,18.4-20.4,21.2c-1.6,0.6-3.1,1.3-4.5,2.1c-7,3.8-15.6,6.4-25.7,7.2c-2.1,0.3-4.1,0.5-6,0.8
			c-7.6,1.1-15.7,1.4-24,0.9c-1.9-0.3-3.9-0.5-5.8-0.9c-3.1-0.3-6.3-0.7-9.4-1.2c-1.6-0.2-3.2-0.5-4.9-0.9
			c-8.8-2.2-17.7-4.7-26.4-6.7c8,1.6,15.2,2.6,23.1,4.4c1.9,0.4,3.6,0.5,5.3,0.6c5,0.3,10,0.5,15,0.9c2.1,0.2,4.2,0.2,6.2,0.3
			c4.3-0.2,8.5-0.6,12.5-1.3c2-0.3,4-0.7,6.3-0.9c10.1-0.8,18.6-3.3,25.5-7.1c1.4-0.8,2.7-1.6,3.9-2.4c8.4-4.8,26.2-3.8,23.2-15.4
			c-1.3-4.5-7.6-9.1-7.2-13.5c0.8-21.7-3.8-42.7-17.1-65.5c-1.4-1.7-2.8-3.4-4.3-5.1c-18.5-20.9-46-39.3-75.4-51.1
			c-2.3-0.9-4.5-1.8-6.8-2.6c-29.3-13.4-59.6-14.3-85.1-9.5c-2,0.4-3.9,0.8-6.1,1.1c-14.4,1.8-31,2.7-37.6,12.7
			c-7.4,9.5-12.5,19.2-23.7,26.4c-8.5,5.5,0.9,16-2.9,23.4c-0.6,1.3-1.6,3.1-4.2,3.5c-0.3,1.4-0.5,2.9-0.6,4.4
			c-0.7,12.5,1.3,25.9,5.9,39.3c0.4,1.6,1.1,3.4,1.9,5.2c5.9,13.8,14.4,27.5,25.2,40.4c1.3,1.6,2.6,3.3,3.9,5.1
			c14.6,20.8,39,39.2,66.1,51.9c12.1,6.1,26.7,4.7,37.6,14.8c2.1-3-3.3-6.7-7.2-9.5c-9.4-6.5-20.2-6.8-29.3-11
			c-25.1-11.8-48.7-31.1-59.6-51.2c-0.9-1.6-2.1-3.1-3.3-4.7c-7-9.3-12.9-18.8-17.4-28.3c-0.8-1.7-1.6-3.4-2.3-5.1
			c-1.8-12.9-5-26.3-5.7-39.1c1.3,12.9,3.7,25.8,6.5,38.8c0.8,1.7,1.6,3.3,2.5,4.9c5.1,9.3,11.7,18.5,19.5,27.4
			c1.3,1.5,2.6,3,3.8,4.4c7,10.2,17.1,19.8,30.5,27.7c7,4.6,10.8,11.4,18,15.1c16.8,8,34.2,12.1,48.9,23.3c1.9,0.8,3.8,1.6,5.7,2.3
			c3.8,1.5,7.7,2.9,11.6,4.3c1.2,0.4,2.4,0.8,3.8,1.4c22.2,11.2,47.1,15.5,66.3,12.9c13.3-1.8,27.4-0.6,40.1-2.8
			c1.8-0.6,3.5-1.2,5.1-1.9c1.7-0.7,3.3-1.5,4.8-2.4c-3.9-1.1-8.7-0.9-13.6-0.6c-1.7,0-3.5,0.1-5.3,0.1c-18-3.1-33.1,0-52-3.6
			c-7.2-1.1-12.7,0.5-19,0.3c-9.3-0.7-18.4-5-27.3-9.9c-1.9-1-3.8-1.8-5.8-2.5c-1.9-0.8-3.8-1.6-5.7-2.5c-2-0.8-4-1.7-6-2.5
			c-1.7-0.7-3.4-1.5-5.1-2.2c-1.7-0.8-3.4-1.5-5-2.3c-13.5-7.5-29.4-13.3-38.4-24.7c-1.4-1.4-2.8-2.8-4.3-4.2
			c-3-2.8-6.2-5.5-9.5-8.2c-1.6-1.3-3.3-2.7-5-4.1c-1.7-1.4-3.4-2.7-5-4s-3.1-2.6-4.7-4s-3.1-2.8-4.6-4.2
			c-10.9-10-18.9-20.5-24.3-31c-1.4-2.6-2.5-5.2-3.3-7.9c-2.4-11.4-3.2-22.9-1.8-33.6c0.2-1.5,0.4-3.1,0.7-4.6
			c4.5-22.9,21-44.6,51.9-48.4c1.3,0,2.6-0.1,4-0.2c1.4-0.1,2.8-0.2,4.3-0.2c2.7,0.1,5.1,0.1,7.2-0.1c1.7-0.1,3.4-0.2,5.1-0.2
			s3.5,0,5.2,0c11,1.9,22.6,1.4,33.5,5.4c1.3,0.6,3.1,1.3,4.9,1.9c1.9,0.7,3.7,1.4,5.6,2.1c2,0.8,3.9,1.5,5.8,2.2
			c3.8,1.3,7.5,2.8,11.3,4.4c-2.5-1-4.9-2-7.4-2.9c-2.4-0.9-4.9-1.7-7.3-2.5c-2.1-1-4.2-1.9-6.4-2.7s-4.2-1.5-6.3-2.1
			c-8.8-3.1-16.3-2-24.9-3.5c-2,0-4,0-6,0.1s-4,0.2-5.9,0.3c-1.7,0.1-3.5,0.3-5.2,0.5c-4.7-0.3-9.1-0.3-13.2,0
			c-2.1,0.2-4,0.4-5.8,0.6c-10.1,1.1-16.6,5.8-23.9,9.9c-1.3,1-2.5,2-3.6,3c-3.4,3.2-6.3,6.8-8.7,10.7c-0.8,1.3-1.5,2.6-2.2,4
			s-1.3,2.8-1.9,4.2s-1.1,2.9-1.6,4.4s-0.9,3-1.3,4.6c-0.4,1.5-0.7,3.1-1,4.6c-2.1,10.5-1.5,21.6,0.5,33.4c0.1,1.8,0.8,3.5,1.5,5.3
			c0.8,1.7,1.6,3.5,2.5,5.4c4.6,10.7,15.2,20.3,24.7,29.5c2.9,2.6,6,5.1,9.2,7.5c9.5,7.3,19.2,14,27.6,22.1c1.8,1.5,3.8,2.8,5.8,4
			s4,2.3,6,3.4c12.1,7.8,26.4,15.4,40.3,20.3c2,0.7,4,1.3,5.8,2.1c14.1,7.6,23.9,1.2,36.3,1.3c2.5,0.1,5,0.4,6.7,0.3
			c7-0.5,14.4-0.3,22.9,2.1c2-0.2,4-0.4,6-0.6c12.5-1.6,24.2-4.5,34.5-8.6c1.5-0.6,2.9-1.2,4.4-1.9c16.6-1.1,28.3-8.3,29.4-22.5
			c0.1-8,4.1-14.6,8.4-21.1c0.7-1.1,1.4-2.2,2.2-3.3c13.7-6,10.8-20.3,4.1-33.8c-2.6-4.9,1.5-8.8,0.6-13.7c-0.7-1.8-0.1-3.1-1.4-4.9
			c-7.8-10.9-12.4-20.7-16.6-31.6c-1.1-1.7-2.3-3.5-3.6-5.2c-1.1-1.6-2.3-3.2-3.5-4.7c-0.6-0.8-1.2-1.6-1.8-2.4
			c-3.4-8.4-10.4-13.4-16.4-18.2c-0.7-0.7-1.5-1.5-2.2-2.2c-1.9-1.9-3.9-3.7-6-5.6c-0.7-0.6-1.4-1.2-2.1-1.8c-2-1.7-4.2-3.2-6.3-4.7
			c-0.7-0.5-1.4-1-2.2-1.5c-5.3-2.3-6.3-9.3-11.6-11.7C1694,632.4,1693.4,632.1,1692.7,631.8z M1599.1,728.9
			c-12.2-7.9,3.5-18,13.7-7C1619.6,729.4,1611.1,736.7,1599.1,728.9z"/>
		<path fill="#FEB955" d="M1729.5,705.1c-0.2-0.4-0.4-0.7-0.6-1.1c6.8,17.4,8.2,34.6,4.3,49.7c-0.4,1.2-0.8,2.4-1.4,3.6
			c-3.3,6.7-3.9,14.7-10.8,19.7c6.3-4.8,6.3-12.8,8.7-19.3c0.3-1.2,0.6-2.3,0.8-3.5c0.5-3.4,0.8-6.9,0.7-10.5c0-1.3-0.1-2.6-0.2-4
			c-0.9-37.7-39.2-82.9-89.1-107.9c43.3,29,82.6,71.9,78,108c0.5-14.3-6.3-29.4-17.4-44.7c-2.6-2.9-2.9-6.1-6.1-8.9
			c-22.6-22.7-46.4-43.9-78.8-56c-3-1.2-5.9-1.1-8.8-0.8c-1,0.1-1.9,0.2-2.9,0.3c-5.5,0.2-13.7,0.4-18.2-4.5c-1.2-0.8-2.5-1.6-4-2.3
			c-17.7-9.1-36.5-8.8-52.3-4.2c-4.9,1.3-11.7,0.8-16.6,2.1c3-0.1,6.1-0.2,9.2-0.1c1,0,2.1,0,3.1,0c5.1,0.1,10.3,0.6,15.2-0.1
			c1.6-0.1,3.2-0.1,4.7,0c15.1,0.4,30.9,6.1,47.2,11.5c22.9,7.6,47.2,15.5,64.7,31.3c1.4,1.2,2.8,2.5,4.2,3.7
			c13.5,12.4,24.3,26.8,32,39.8c1.4,2,3.3,3.9,4.2,5.6c2.8,6.9,4.8,13.9,5.5,20.5c0,1.3,0,2.5-0.4,3.5c-2.4,4.9-0.6,11.2-3.1,16
			c-5.9,11.6-21.5,16.8-25.7,29.6c-3.3,7.9-17.4,6.9-29.5,4c-1.7-0.2-3.4-0.4-5-0.4c-8.1-0.4-16.6-2-25.5-5
			c-1.9-0.6-3.7-1.1-5.4-1.6c-6.9-2-13.7-4.6-20.3-7.6c-1.4-0.8-2.8-1.6-4.3-2.4c-2.3-1.2-4.7-2.5-7-3.8c-1.2-0.7-2.3-1.3-3.5-2.1
			c-5.9-4.2-11.7-8.4-17.7-12.4c5.6,3.5,10.9,6.5,16.4,10.1c1.3,0.8,2.6,1.5,4,2.1c3.9,1.9,7.9,3.7,11.7,5.6
			c1.6,0.8,3.3,1.5,4.9,2.2c3.7,1.3,7.4,2.5,11.1,3.6c1.9,0.5,3.7,1,5.7,1.7c8.8,3,17.3,4.6,25.3,5c1.6,0.1,3.2,0.1,4.7,0.1
			c9.7,0.4,23.8,6.9,28.4-0.1c1.7-2.7-0.8-7.3,2.2-9.4c13.7-10.9,22.6-23.3,25.4-39.6c-0.1-1.3-0.2-2.7-0.5-4.1
			c-2.6-17-14.2-35.9-31.2-51.9c-1.3-1.2-2.7-2.5-4-3.6c-16-16.9-40.3-27.5-64.2-33.8c-1.8-0.5-3.7-0.9-5.7-1.5
			c-12.9-3.9-27.1-9.1-38.6-6.2c-11.8,2.4-21.8,5.6-35.3,5.6c-10.3,0-8.9,8.5-16.5,11.1c-1.3,0.5-3.1,1-5.6,0.4
			c-1.1,0.6-2.2,1.3-3.2,2.1c-8.1,6.2-14.5,13.8-18.9,22.3c-0.6,1-1.1,2.2-1.6,3.3c-3.5,9.1-4.7,19.1-3.7,29.4
			c0.1,1.3,0.2,2.6,0.1,3.9c-0.5,15.7,8.4,33.4,23.1,49.2c6.2,7.2,19.1,11.5,22,20.4c3.6-0.8,1.3-4.6-0.2-7.4
			c-3.8-6.5-12.5-10.3-17.4-15.6c-13.5-14.6-21.3-32.5-18.1-46.6c0.2-1.1,0.1-2.3,0.1-3.5c-0.2-7.2,0.7-14.1,2.8-20.5
			c0.4-1.2,0.8-2.3,1.2-3.4c6.3-7.2,11.7-15.2,18.9-22.1c-6.7,7.1-12.5,14.6-18,22.2c-0.3,1.1-0.6,2.3-0.9,3.4
			c-1.4,6.5-1.5,13.5-0.5,20.7c0.2,1.2,0.4,2.4,0.4,3.6c-0.4,7.6,2.2,16,8.4,24.6c2.9,4.7,2,9.5,5.7,13.9c9,9.8,20.8,17.8,26.2,28.6
			c1.1,1.1,2.2,2.1,3.3,3.1c2.2,2.1,4.5,4.1,6.9,6.1c0.7,0.6,1.5,1.3,2.2,2c11.5,13.3,29.4,23.9,46.7,29.1
			c12.1,3.6,22.8,9,34.7,12.1c1.8,0.3,3.6,0.5,5.4,0.7s3.6,0.3,5.3,0.4c-2.5-1.9-6.6-3.4-10.9-4.9c-1.5-0.6-2.9-1.1-4.4-1.8
			c-12.9-7.7-27.2-11.2-40.6-19.5c-5.3-3-10.8-4-15.8-6.3c-7.2-3.5-12.1-8.8-16.5-14.3c-1-1.1-2.1-2.2-3.2-3.3
			c-1.1-1-2.2-2.1-3.2-3.2c-1.2-1.1-2.3-2.2-3.4-3.3c-1-0.9-1.9-1.9-2.8-2.9s-1.8-1.9-2.7-2.9c-6.6-8.5-16.2-16.8-16.7-25.8
			c-0.3-1.2-0.6-2.4-1-3.7c-0.8-2.5-1.8-5-2.9-7.5c-0.5-1.2-1.1-2.5-1.7-3.8s-1.1-2.5-1.6-3.8c-0.5-1.2-1-2.4-1.5-3.7
			c-0.5-1.2-0.9-2.5-1.3-3.7c-2.9-8.9-3.2-17-1.3-24.2c0.5-1.8,1.1-3.6,2-5.2c4.9-6.7,11.2-12.9,18.8-18c1.1-0.7,2.2-1.4,3.4-2.1
			c17.5-10.3,44.2-15.9,71.8-7.4c1.1,0.4,2.2,0.8,3.4,1.2c1.2,0.4,2.4,0.9,3.6,1.3c2.2,1,4.1,1.7,6,2.4c1.5,0.5,2.9,1.1,4.3,1.6
			c1.4,0.6,2.9,1.2,4.3,1.8c7.8,4.7,17.7,8.4,24.3,14.1c0.6,0.8,1.7,1.7,2.8,2.6c1.1,1,2.2,2,3.3,3c1.2,1.1,2.3,2.1,3.5,3.1
			c2.3,2,4.5,4,6.6,6.1c-1.4-1.4-2.8-2.7-4.3-4s-3-2.5-4.5-3.8c-1.1-1.2-2.4-2.4-3.6-3.5s-2.6-2.2-4-3.2
			c-5.4-4.6-12.2-6.5-18.3-10.2c-1.6-0.7-3.3-1.4-5-2s-3.4-1.2-5.1-1.8c-1.5-0.5-3-1-4.5-1.5c-3.6-1.8-7.3-3.2-10.8-4.5
			c-1.8-0.6-3.6-1.2-5.1-1.7c-8.9-2.9-17.1-2.7-25.6-3c-1.6,0.1-3.2,0.2-4.8,0.3c-4.7,0.5-9.3,1.3-13.6,2.6
			c-1.4,0.4-2.8,0.8-4.2,1.3s-2.8,1-4.1,1.5c-1.3,0.5-2.6,1.1-4,1.7c-1.3,0.6-2.6,1.2-3.8,1.9c-1.2,0.7-2.4,1.3-3.6,2
			c-8.1,4.7-14.3,10.6-19.7,17.4c-1,1-1.5,2.1-1.9,3.2c-0.4,1.2-0.8,2.4-1.2,3.6c-2.7,7.1,0.3,15.7,2.5,23.6c0.8,2.3,1.9,4.7,3,7
			c3.4,7,7.3,13.7,9.4,20.7c0.6,1.4,1.4,2.7,2.4,4c0.9,1.3,1.9,2.5,2.9,3.8c5.2,8.1,12.4,16.9,20.9,24.1c1.2,1,2.4,2,3.5,3
			c7,8.7,18.9,8.7,29.1,13c2,0.9,3.9,1.9,5.4,2.4c6,2.1,12,4.7,17.6,8.8c1.8,0.6,3.6,1.2,5.3,1.7c11.2,3.4,22.5,5.9,33.6,7.2
			c1.6,0.2,3.2,0.4,4.7,0.5c14.3,5,28.3,5.3,37.7-1.7c4.9-4.1,12.1-6.1,19.6-8c1.2-0.3,2.5-0.6,3.7-0.9c14.9,1.5,21.1-6.8,23.8-16
			c0.9-3.4,6.5-4.1,8.8-6.9c0.5-1.2,1.8-1.6,1.8-3c0.1-8.2,2.3-14.9,5.4-21.9c0.1-1.3,0.2-2.6,0.2-3.9
			C1742.9,736,1738.5,720.3,1729.5,705.1z M1595.1,722.8c-5.2-8.2,13.7-8.1,15.4,1C1611.7,729.9,1600.3,730.9,1595.1,722.8z"/>
	</g>
	
		<ellipse transform="matrix(0.4717 -0.8818 0.8818 0.4717 219.7226 1792.1649)" fill="#FFE99B" cx="1605.4" cy="712.7" rx="44.1" ry="88.5"/>
	<path fill="#F1F6C2" d="M1457.3,608.7c2.8-5.1,7-9.4,11.9-13c1.2-0.9,2.5-1.7,3.7-2.5c1.3-0.8,2.6-1.5,3.9-2.2
		c2.7-1.4,5.4-2.5,8.3-3.5c2.8-1,5.7-1.8,8.6-2.5s5.8-1.2,8.8-1.6c4.4-0.6,8.8-0.9,13.2-1c1.5,0,2.9,0,4.4,0c3,0.3,5.4,1.7,7.9,3.7
		c2,1,4.4,1.5,6.4,1c11.3-4.9,23.6-4.4,32.8,3.5c1.4,0.6,2.8,1.1,4.2,1.6c5.4,2,10.7,4.3,15.9,6.8c10.3,5.1,20,11.3,29.2,17.9
		c1.2,0.8,2.3,1.7,3.5,2.5s2.3,1.7,3.4,2.5c6.3,3.5,14.6,12.8,16.6,10.4c13.7-14.7,26.5,0.5,38.3,6.9c1.5,0.5,2.9,2,5.1,1.6
		c1.2,0.1,2.5-0.1,3.7-0.6c1,0,2.5,1,2.9,2c5.4,9.3,6.4,19.6,13.1,27.4c1.2,1.1,2.5,2.2,3.7,3.2c1.2,1.1,2.4,2.1,3.6,3.2
		c9.1,8.9,14.8,21,10.1,34.3c-1,2-1,4.4,0.3,6.5c0.7,1.6,1.5,3.4,2.6,5.2c0.9,1.3,1.8,2.5,2.7,3.8s2,2.4,3,3.6
		c7,10.9,22.7,18.2,24.7,31c-3.2,0.4-6.3,0.2-9.4-0.2c-1.5-0.2-3.1-0.5-4.6-0.9c-15.3-6.5-31.7-6.9-47.5-3c-0.9,0.2-1.9,0.5-2.8,0.7
		c-0.8,0.3-1.6,0.7-2.3,1c-0.8,0.3-1.5,0.6-2.3,0.9c-4.9,1.4-9.4,2.7-14,3.3c-0.9,0.1-1.8,0.2-2.8,0.3c-7,0.7-12-3.3-18.1-5
		c-0.8-0.2-1.6-0.4-2.4-0.5c-5.5-0.8-10.5-1.8-15.5-4.8c3.3,3.3,6.7,6,10.5,8.2c0.8,0.5,1.5,0.9,2.3,1.3c9.2,2.4,18.2,7.4,27,7.4
		c0.8,0,1.6,0,2.4,0.1c1.6,0,3.2,0,4.8,0c-1.2,1.8-2.7,2.9-4.2,3.8c-0.8,0.4-1.6,0.8-2.4,1c-12.3,1.2-24.3,2.2-36,3.1
		c-1-0.2-2-0.4-3-0.7c-3.1-0.8-6.3-1.9-9.4-3.2c-0.8-0.3-1.6-0.6-2.3-1c-4.8-1.7-6.2-5.4-9.5-8.3c-0.7-0.6-1.4-1.1-2.2-1.6
		c-6-7-18-7-21.4-15.8c-0.5-0.8-0.9-1.6-1.3-2.4c-1.3-2.3-3-4.3-5.4-5.5c-0.8-0.5-1.5-1-2.3-1.4s-1.6-0.7-2.5-1c-3.1-3-6.1,0-9.1,0
		c1,8,10,9,12,15c-9,2-21-3-26.1-11.1c-0.5-0.7-0.9-1.5-1.3-2.3c-1.1-2.4-1.8-5.1-1.8-7.9c-0.1-0.8-0.2-1.6-0.3-2.3
		c-0.1-0.7-0.3-1.4-0.5-1.9c-0.6-0.8-1.1-1.5-1.6-2.3c-1.2-2-2.2-4-2.8-6.2c-0.2-0.7-0.4-1.5-0.6-2.3c-2-10.6-11-17.6-11.4-29.2
		c-0.2-0.9-0.3-1.8-0.4-2.8c-0.1-0.9-0.1-1.8-0.1-2.7c-4.1-11.8-0.1-21.8,13.3-22.4c0.6-0.4,1.1-0.9,1.6-1.4
		c-0.1,0.9-0.4,1.7-0.7,2.4c-7.3,5.6-12.3,14.6-3,21.8c0.4,0.4,0.8,0.8,1.2,1.2s0.8,0.9,1.1,1.4c1.5,2.2,2.9,4.3,4.3,6.4
		c0.5,0.7,0.9,1.4,1.4,2c4.6,2.8,3.6,8.8,3.6,13.8c0,2,1,4,2.6,4.7c0.6,0.6,1.3,1,2,1.4c2.2,1.1,5,1.2,7.6,0.6c1.4,0,2.9,0,4.3,0.2
		s2.8,0.4,4,1c2.5,3,4.4,6.9,6.8,9.9c0.5,0.6,1,1.1,1.5,1.6c3.2,3.7,8.2,2.7,11.8,3.9c0.9,0.2,1.8,0.4,2.7,0.6
		c3.6,0.8,7.2,1.6,10.7,2.5c1.4,0.4,2.8,0.8,4.1,1.3c0.8,0.4,1.5,1,2.1,1.6c0.6,0.7,1.3,1.3,2,1.9c4.8,5,11.8,5,17.4,5.1
		c0.9,0,1.8,0.1,2.8,0.1c4.6,0.1,9.2,0.1,13.4,0.8c0.8,0.1,1.6,0.1,2.4,0.2c2.4,0.2,4.9,0.6,7.4,1.1c2.6,0.3,4.8-0.1,6.8-0.7
		c2.1-0.6,4-1.3,5.7-2.2c7.4-2.8,10.8-10.1,11.8-17.5c0-2,0.1-3.8,0.3-5.6c0.2-1.8,0.5-3.4,0.8-5.1c0.2-1.1,0.5-2.2,0.9-3.3
		c4.4-7.6,5.4-17-0.3-24.8c-0.5-0.9-1.1-1.8-1.6-2.6c-1.8-2.8-4-5.3-6.3-7.6c-1.2-1.2-2.4-2.3-3.6-3.4c-1.1-1.1-2.2-2.2-3.1-3.5
		c-0.9-1.2-1.8-2.5-2.7-4c-5.4-8.3-7.9-18.6-16.7-24.5c-4.4-2.9-7.4,2.9-11.8,3.9c-3.4,0.5-5.9-1.5-8.5-3.8
		c-0.9-0.5-1.7-1.1-2.6-1.6c-1.7-1.1-3.5-2.1-5.3-3.1c-4.8-2.6-9.7-5.1-14.7-7.3c-10-4.5-20.2-8.2-30.3-11.7
		c-3.8-1.3-7.6-2.6-11.4-3.9c-1.3-0.4-2.5-0.8-3.8-1.2c-2.8-4.6-6.8-11-12.2-9.5c-11.3,3.4-25,9.8-34-1.4c-1.3-0.3-2.6-0.5-3.9-0.7
		c-9.1-0.9-18.3-1.1-27.2,0.1c-10.2,1.4-20.3,4.7-28.9,11.6l0,0c-0.5,0.4-1.1,0.3-1.5-0.2C1457.1,609.5,1457.1,609,1457.3,608.7z"/>
	<path fill="#65ACCF" d="M1767.2,771.1C1767.1,771.1,1767.1,771.1,1767.2,771.1c-11.6,0.6-24.2-9.9-34-14.8
		c-23.1-11.6-36.8-21.4-42-30c-4.1-6.9-3.8-14.3-3.3-22.2c0.8-14.8,1.7-33.1-28.5-58.5c-17.3-14.4-34.5-20.5-52.7-18.5
		c-16.3,1.8-31.4,9.5-46,17c-4.2,2.1-9.2,7.2-13.1,9.1c-15.3,7.3-35.1-2.1-61-21.7c-5-3.8-40.6-28.7-33.2-37.3
		c3.1-3.7,9.8-0.9,13.6-0.2c18.3,3.6,39.1,3.2,54.7,15c15.4,11.6,30.4-5.5,44.6,1c16.2,7.4-9-16.5-4.9-18.6
		c29.6-15.2,63.5,15,111.9,46.1c46.6,29.9,22.9,54.9,22.1,71.1c-0.4,6.7,10.7,4.4,15.2,5.9c29.6,9.7,3.1,18.9,27.5,32
		c6.9,3.7,14.8,5.4,21.9,8.7C1763.8,757.2,1777.8,770.4,1767.2,771.1z"/>
	<path fill="#DBE2FF" d="M1731.1,744.4c-8.4-5.7-16.7-11.6-23.8-19.4c-0.9-1-1.8-2.1-2.7-3.1c-1.7-2.1-3.3-4.4-4.8-6.7
		c-0.7-0.9-1.6-2.4-2.7-3.6c-1-1.1-2.3-2-3.4-2.9c-0.5-0.4-1-0.9-1.4-1.3c0-0.3,0.1-0.6,0.1-1c0.4-2.9,0.8-5.7,1.3-8.6
		c0.5-2.7,0.8-5.4,1.5-8c0.8-3.1,1.5-6.3,1.3-9.6c-0.3-3.6-3.2-5.6-6.1-5.4c-0.6-4-1.5-7.9-3.1-11.6c-2.9-7-7.8-12.9-13.3-18.2
		c-5.4-5.2-11.3-10.1-17.2-14.6c-5.9-4.5-11.9-8.5-18.8-11.1c-6.2-2.4-13-3.2-19.7-2.9c-1.3,0.1-2.7,0.2-4,0.3
		c-7.8,2.3-15.7-1.1-24-0.1c-9.3,1-15.2,9.3-23.9,11.1c-1.7,0.1-3.4,0.2-5.1,0.3s-3.4,0.2-5.3,0.3c-1.5,0-3-0.1-4.5-0.1s-3,0-4.5,0
		c-1.6,0.1-3.2,0.1-4.8,0.1s-3.2,0-4.7-0.2c-7.7,0.1-11.6-6.3-17.5-10.7c-6.9-5.9-16.7-3.4-25-6.4c2.9-1.5,5.9-2.5,8.3-3.9
		c-3.9-1-7.9-2.9-11.6-4.4c-1.2-0.5-2.5-0.8-3.8-1c-2.6-0.4-5.2-0.2-7.7,1c-2,0.5-2,3.9-0.5,5.9c1.1,1.3,2.1,2.6,3.2,3.9
		c1.1,1.3,2.2,2.5,3.4,3.7c6.2,5.6,13.5,7.6,20.9,12c6.9,4.9,11.3,12.3,19.6,14.4c1.6,0.5,3.1,1,4.7,1.4s3.2,0.8,4.8,1.1
		c1.8,0.4,3.6,0.8,5.4,1.2s3.6,0.7,5.4,0.9c1.9,0.2,3.8,0.3,5.7,0.3c3.8,0,7.6-0.3,11.5-1c1.3-0.2,2.6-0.5,3.9-0.8
		c1.8-1.2,4.2-0.8,5.7-2.2c11.3-14.7,24-20.6,41.7-14.6c1.2-0.1,2.5-0.2,3.7-0.2c1.3,0,2.5,0,3.8,0.1c6.7,0.4,12.8,2.9,18.4,6.4
		c5.9,3.6,10.9,8.2,15.9,12.9c4.8,4.5,10.3,9.2,13.8,14.4c4.4,6.5,5.6,13.5,5.7,21.3c0.1,4.2-0.2,8.4-0.3,12.6
		c-0.1,2.3-0.1,4.7,0,7.1c0.1,1.3,0.2,2.8,0.5,4.1c0.2,0.7,0.6,1.3,0.8,1.9c0.3,0.7,0.3,0.1,0.3,0c0,0.1,0,0.4,0.1,1.1
		c0.3,2.5,1.7,4.6,4.3,4.9c0.2,0,0.4,0,0.5,0c0.1,0.1,0.1,0.3,0.1,0.4c0.4,1,1.2,1.6,2,1.8c0.3,0.7,0.6,1.4,1,2.1
		c1,1.7,2.3,3.4,3.7,4.9c0.7,0.8,1.5,1.5,2.3,2.2c1.4,0.9,2.7,1.8,4.1,2.8s2.7,2,4,3.1c12.2,8,23,19.8,37.7,22.3
		c-1-2.9-2-6.4-4.7-8.2C1732.9,745.8,1732.1,745.1,1731.1,744.4z"/>
	<path fill="#FFFFFF" d="M1677.4,753.6c-27.6,40-161.8-48.1-135.4-91.1c26.1-38.8,77.6-49.9,115-24.7S1703.5,714.8,1677.4,753.6z"/>
	<path d="M1651.6,760.4c-15.1,0-36.4-7.8-56.9-20.8s-37.7-29.4-45.8-44c-6.4-11.4-7.2-20.9-2.6-28.5c15-22.2,39.5-35.5,65.6-35.5
		c14.8,0,29,4.3,41.1,12.5c34.6,23.3,43.1,71.6,18.9,107.6C1667.9,757.4,1661.1,760.4,1651.6,760.4z"/>
</g>
</svg>
